<svg width="24" height="24" viewBox="0 0 24 24" fill="none" xmlns="http://www.w3.org/2000/svg"><path d="M11.120 2.039 C 9.316 2.220,7.707 2.807,6.280 3.806 C 2.738 6.286,1.178 10.759,2.422 14.865 C 2.918 16.499,3.728 17.850,4.939 19.061 C 5.928 20.050,7.038 20.788,8.272 21.278 C 11.634 22.610,15.313 22.080,18.200 19.845 C 18.637 19.507,19.507 18.637,19.845 18.200 C 21.255 16.379,22.000 14.234,22.000 12.000 C 22.000 7.432,18.842 3.387,14.430 2.303 C 13.446 2.062,12.028 1.948,11.120 2.039 M12.383 5.043 C 13.185 5.190,13.839 5.872,13.967 6.695 C 14.153 7.894,13.209 9.000,12.000 9.000 C 11.032 9.000,10.183 8.268,10.033 7.305 C 9.933 6.663,10.132 6.061,10.596 5.596 C 11.085 5.108,11.698 4.918,12.383 5.043 M6.800 9.508 C 8.764 10.262,10.833 10.760,12.000 10.760 C 13.176 10.760,15.274 10.253,17.220 9.498 C 17.910 9.231,18.128 9.204,18.379 9.359 C 18.735 9.580,18.850 10.060,18.627 10.397 C 18.492 10.600,18.434 10.637,17.920 10.841 C 16.380 11.453,14.356 12.016,13.150 12.167 L 12.760 12.216 12.760 12.992 C 12.760 13.812,12.800 14.084,12.968 14.418 C 13.013 14.507,13.644 15.506,14.371 16.637 C 15.175 17.889,15.705 18.754,15.726 18.847 C 15.793 19.143,15.623 19.524,15.367 19.657 C 15.103 19.793,14.764 19.769,14.548 19.599 C 14.491 19.554,13.901 18.672,13.237 17.639 C 12.572 16.606,12.016 15.760,12.000 15.760 C 11.984 15.760,11.428 16.606,10.763 17.639 C 10.099 18.672,9.509 19.554,9.452 19.599 C 9.236 19.769,8.897 19.793,8.633 19.657 C 8.377 19.524,8.207 19.143,8.274 18.847 C 8.295 18.754,8.825 17.889,9.629 16.637 C 10.356 15.506,10.987 14.507,11.032 14.418 C 11.200 14.084,11.240 13.812,11.240 12.992 L 11.240 12.216 10.850 12.167 C 9.644 12.016,7.620 11.453,6.080 10.841 C 5.566 10.637,5.508 10.600,5.373 10.397 C 5.103 9.989,5.337 9.395,5.815 9.277 C 6.008 9.229,6.173 9.268,6.800 9.508 " fill="#1C274C" stroke="none" fill-rule="evenodd"></path></svg>