<svg width="24" height="24" viewBox="0 0 24 24" fill="none" xmlns="http://www.w3.org/2000/svg"><path d="M4.000 3.280 C 3.380 3.335,3.039 3.478,2.731 3.813 C 2.337 4.240,2.278 4.505,2.251 5.959 L 2.230 7.098 2.365 6.989 C 3.319 6.215,3.927 6.054,6.058 6.007 L 7.275 5.980 7.395 5.865 C 7.888 5.393,7.786 4.292,7.199 3.743 C 6.789 3.360,6.492 3.285,5.280 3.263 C 4.785 3.253,4.209 3.261,4.000 3.280 M18.020 3.279 C 17.393 3.333,17.036 3.482,16.724 3.820 C 16.394 4.178,16.220 4.789,16.316 5.254 C 16.376 5.542,16.473 5.744,16.619 5.880 L 16.726 5.980 17.993 6.005 C 19.994 6.045,20.585 6.188,21.436 6.834 L 21.772 7.089 21.749 5.995 C 21.736 5.393,21.705 4.794,21.680 4.664 C 21.538 3.939,21.055 3.455,20.340 3.322 C 20.024 3.264,18.528 3.236,18.020 3.279 M9.920 5.027 C 9.255 5.145,8.738 5.551,8.385 6.234 C 8.172 6.648,7.935 6.885,7.670 6.953 C 7.574 6.977,6.929 7.005,6.180 7.015 C 4.784 7.036,4.287 7.084,3.873 7.238 C 3.164 7.504,2.548 8.112,2.255 8.836 C 2.047 9.351,2.029 9.629,2.010 12.651 C 1.984 16.847,2.054 17.716,2.488 18.576 C 2.563 18.724,2.723 18.932,2.896 19.104 C 3.462 19.671,4.119 19.875,5.649 19.960 C 6.549 20.010,17.451 20.010,18.351 19.960 C 19.881 19.875,20.538 19.671,21.104 19.104 C 21.671 18.538,21.875 17.881,21.960 16.351 C 22.011 15.438,22.010 10.772,21.959 10.066 C 21.906 9.331,21.835 9.008,21.635 8.600 C 21.500 8.324,21.400 8.191,21.104 7.896 C 20.508 7.300,20.055 7.121,18.934 7.041 C 18.629 7.019,17.950 7.001,17.425 7.000 C 16.809 7.000,16.413 6.983,16.312 6.953 C 16.056 6.876,15.822 6.635,15.616 6.236 C 15.317 5.657,14.947 5.312,14.407 5.108 C 14.186 5.024,14.121 5.022,12.100 5.015 C 10.956 5.012,9.975 5.017,9.920 5.027 M16.751 11.302 C 16.909 11.368,17.096 11.527,17.173 11.660 C 17.199 11.704,17.229 11.965,17.240 12.240 L 17.260 12.740 17.760 12.760 C 18.035 12.771,18.296 12.801,18.340 12.827 C 18.560 12.954,18.760 13.280,18.760 13.511 C 18.760 13.689,18.578 14.009,18.414 14.120 C 18.281 14.210,18.216 14.222,17.763 14.240 L 17.260 14.260 17.240 14.763 C 17.222 15.216,17.210 15.281,17.120 15.414 C 17.006 15.582,16.688 15.760,16.500 15.760 C 16.312 15.760,15.994 15.582,15.880 15.414 C 15.790 15.281,15.778 15.216,15.760 14.763 L 15.740 14.260 15.237 14.240 C 14.784 14.222,14.719 14.210,14.586 14.120 C 14.422 14.009,14.240 13.689,14.240 13.511 C 14.240 13.280,14.440 12.954,14.660 12.827 C 14.704 12.801,14.965 12.771,15.240 12.760 L 15.740 12.740 15.760 12.240 C 15.782 11.716,15.802 11.648,15.987 11.472 C 16.218 11.252,16.488 11.192,16.751 11.302 M9.267 12.803 C 9.516 12.897,9.757 13.239,9.759 13.502 C 9.760 13.687,9.582 14.006,9.414 14.120 L 9.266 14.220 7.500 14.220 L 5.734 14.220 5.586 14.120 C 5.422 14.009,5.240 13.689,5.240 13.511 C 5.240 13.256,5.460 12.924,5.700 12.817 C 5.854 12.748,9.089 12.735,9.267 12.803 " fill="#1C274C" stroke="none" fill-rule="evenodd"></path></svg>