<svg width="24" height="24" viewBox="0 0 24 24" fill="none" xmlns="http://www.w3.org/2000/svg"><path d="M11.807 5.288 C 11.558 5.343,11.342 5.571,11.284 5.838 C 11.254 5.976,11.240 6.901,11.240 8.662 L 11.240 11.280 8.529 11.280 C 5.487 11.280,5.677 11.262,5.421 11.578 C 5.313 11.712,5.300 11.756,5.300 12.000 C 5.300 12.244,5.313 12.288,5.421 12.422 C 5.677 12.738,5.487 12.720,8.529 12.720 L 11.240 12.720 11.240 15.338 C 11.240 17.099,11.254 18.024,11.284 18.162 C 11.424 18.815,12.311 18.943,12.640 18.358 L 12.740 18.180 12.751 15.450 L 12.763 12.720 15.472 12.720 C 18.513 12.720,18.323 12.738,18.579 12.422 C 18.687 12.288,18.700 12.244,18.700 12.000 C 18.700 11.756,18.687 11.712,18.579 11.578 C 18.323 11.262,18.513 11.280,15.472 11.280 L 12.763 11.280 12.751 8.550 L 12.740 5.820 12.651 5.653 C 12.523 5.415,12.388 5.328,12.040 5.261 C 12.007 5.255,11.902 5.267,11.807 5.288 " fill="#1C274C" stroke="none" fill-rule="evenodd"></path></svg>