<svg width="24" height="24" viewBox="0 0 24 24" fill="none" xmlns="http://www.w3.org/2000/svg"><path d="M11.807 5.288 C 11.558 5.343,11.342 5.571,11.284 5.838 C 11.254 5.976,11.240 6.895,11.240 8.641 L 11.240 11.238 8.530 11.249 C 5.870 11.260,5.817 11.262,5.660 11.344 C 5.572 11.390,5.446 11.503,5.381 11.596 C 5.282 11.736,5.261 11.804,5.261 11.993 C 5.261 12.270,5.373 12.475,5.612 12.633 L 5.774 12.740 8.507 12.751 L 11.240 12.762 11.240 15.359 C 11.240 17.105,11.254 18.024,11.284 18.162 C 11.424 18.815,12.311 18.943,12.640 18.358 L 12.740 18.180 12.751 15.471 L 12.763 12.762 15.494 12.751 L 18.226 12.740 18.388 12.633 C 18.627 12.475,18.739 12.270,18.739 11.993 C 18.739 11.804,18.718 11.736,18.619 11.596 C 18.554 11.503,18.428 11.390,18.340 11.344 C 18.183 11.262,18.130 11.260,15.471 11.249 L 12.763 11.238 12.751 8.529 L 12.740 5.820 12.651 5.653 C 12.523 5.415,12.388 5.328,12.040 5.261 C 12.007 5.255,11.902 5.267,11.807 5.288 " fill="#1C274C" stroke="none" fill-rule="evenodd"></path></svg>