<svg width="24" height="24" viewBox="0 0 24 24" fill="none" xmlns="http://www.w3.org/2000/svg"><path d="M11.120 2.039 C 9.316 2.220,7.707 2.807,6.280 3.806 C 2.738 6.286,1.178 10.759,2.422 14.865 C 2.918 16.499,3.728 17.850,4.939 19.061 C 5.928 20.050,7.038 20.788,8.272 21.278 C 11.634 22.610,15.313 22.080,18.200 19.845 C 18.637 19.507,19.507 18.637,19.845 18.200 C 21.255 16.379,22.000 14.234,22.000 12.000 C 22.000 7.432,18.842 3.387,14.430 2.303 C 13.446 2.062,12.028 1.948,11.120 2.039 M12.405 8.381 C 12.485 8.432,12.593 8.543,12.645 8.627 C 12.739 8.778,12.740 8.796,12.753 10.007 L 12.765 11.235 13.993 11.247 C 15.204 11.260,15.222 11.261,15.373 11.355 C 15.615 11.506,15.733 11.718,15.733 12.003 C 15.733 12.203,15.714 12.270,15.616 12.409 C 15.385 12.738,15.382 12.738,13.993 12.752 L 12.765 12.764 12.753 13.999 L 12.740 15.233 12.619 15.405 C 12.453 15.642,12.273 15.739,12.000 15.739 C 11.727 15.739,11.547 15.642,11.381 15.405 L 11.260 15.233 11.247 13.999 L 11.235 12.764 10.007 12.752 C 8.618 12.738,8.615 12.738,8.384 12.409 C 8.286 12.271,8.267 12.203,8.267 12.007 C 8.267 11.721,8.372 11.526,8.612 11.367 L 8.774 11.260 10.004 11.247 L 11.235 11.235 11.247 10.007 C 11.260 8.804,11.262 8.777,11.353 8.631 C 11.586 8.256,12.044 8.147,12.405 8.381 " fill="#1C274C" stroke="none" fill-rule="evenodd"></path></svg>