<svg width="24" height="24" viewBox="0 0 24 24" fill="none" xmlns="http://www.w3.org/2000/svg"><path d="M8.419 2.041 C 5.785 2.145,4.480 2.507,3.549 3.393 C 2.551 4.342,2.166 5.587,2.041 8.260 C 1.988 9.399,1.988 14.601,2.041 15.740 C 2.160 18.285,2.507 19.501,3.379 20.433 C 4.245 21.360,5.318 21.742,7.580 21.927 C 8.488 22.002,15.512 22.002,16.420 21.927 C 18.857 21.727,19.992 21.275,20.860 20.157 C 21.474 19.368,21.771 18.329,21.927 16.420 C 22.002 15.512,22.002 8.488,21.927 7.580 C 21.740 5.297,21.356 4.232,20.407 3.355 C 19.572 2.585,18.492 2.242,16.380 2.078 C 15.684 2.023,9.573 1.995,8.419 2.041 M12.405 8.381 C 12.485 8.432,12.593 8.543,12.645 8.627 C 12.739 8.778,12.740 8.796,12.753 10.007 L 12.765 11.235 13.993 11.247 C 15.204 11.260,15.222 11.261,15.373 11.355 C 15.615 11.506,15.733 11.718,15.733 12.003 C 15.733 12.203,15.714 12.270,15.616 12.409 C 15.385 12.738,15.382 12.738,13.993 12.752 L 12.765 12.764 12.753 13.999 L 12.740 15.233 12.619 15.405 C 12.453 15.642,12.273 15.739,12.000 15.739 C 11.727 15.739,11.547 15.642,11.381 15.405 L 11.260 15.233 11.247 13.999 L 11.235 12.764 10.007 12.752 C 8.618 12.738,8.615 12.738,8.384 12.409 C 8.286 12.271,8.267 12.203,8.267 12.007 C 8.267 11.721,8.372 11.526,8.612 11.367 L 8.774 11.260 10.004 11.247 L 11.235 11.235 11.247 10.007 C 11.260 8.804,11.262 8.777,11.353 8.631 C 11.586 8.256,12.044 8.147,12.405 8.381 " fill="#1C274C" stroke="none" fill-rule="evenodd"></path></svg>