<svg width="24" height="24" viewBox="0 0 24 24" fill="none" xmlns="http://www.w3.org/2000/svg"><path d="M5.579 2.039 C 3.926 2.274,2.565 3.484,2.133 5.100 C 2.038 5.454,2.026 5.573,2.026 6.140 C 2.026 6.703,2.039 6.826,2.130 7.168 C 2.256 7.635,2.492 8.152,2.745 8.514 C 2.992 8.868,14.938 20.832,15.380 21.169 C 15.775 21.471,16.315 21.731,16.829 21.869 C 17.174 21.961,17.296 21.974,17.860 21.974 C 18.427 21.974,18.546 21.962,18.900 21.867 C 20.358 21.477,21.476 20.356,21.871 18.885 C 21.961 18.547,21.974 18.422,21.974 17.860 C 21.974 17.293,21.962 17.175,21.867 16.823 C 21.732 16.319,21.468 15.775,21.164 15.374 C 21.021 15.186,18.480 12.618,14.833 8.976 C 8.393 2.545,8.552 2.696,7.857 2.375 C 7.225 2.083,6.264 1.941,5.579 2.039 M17.420 2.027 C 16.747 2.112,16.130 2.334,15.585 2.691 C 15.298 2.879,14.990 3.158,14.140 4.004 L 13.060 5.079 15.991 8.009 L 18.922 10.940 19.996 9.860 C 20.837 9.014,21.121 8.701,21.308 8.415 C 22.014 7.337,22.179 6.058,21.771 4.826 C 21.375 3.628,20.449 2.682,19.257 2.256 C 18.681 2.050,17.956 1.960,17.420 2.027 M9.071 8.062 C 9.536 8.256,9.707 8.826,9.423 9.235 C 9.164 9.609,8.594 9.675,8.265 9.367 C 7.930 9.054,7.919 8.561,8.241 8.239 C 8.472 8.008,8.783 7.942,9.071 8.062 M11.986 9.063 C 12.177 9.173,12.360 9.489,12.360 9.709 C 12.360 9.980,12.160 10.294,11.901 10.429 C 11.836 10.463,11.692 10.492,11.581 10.493 C 10.853 10.499,10.521 9.576,11.081 9.105 C 11.150 9.047,11.254 8.989,11.313 8.976 C 11.372 8.964,11.438 8.947,11.460 8.939 C 11.549 8.907,11.830 8.973,11.986 9.063 M10.155 10.932 C 10.391 11.088,10.493 11.309,10.473 11.622 C 10.452 11.946,10.334 12.126,10.049 12.266 C 9.872 12.353,9.803 12.367,9.632 12.347 C 9.226 12.298,8.940 11.971,8.945 11.560 C 8.948 11.238,9.079 11.028,9.380 10.864 C 9.567 10.762,9.948 10.795,10.155 10.932 M12.791 11.782 C 12.988 11.864,13.115 11.986,13.204 12.180 C 13.356 12.508,13.252 12.895,12.946 13.138 C 12.806 13.249,12.766 13.260,12.500 13.260 C 12.234 13.260,12.194 13.249,12.054 13.138 C 11.865 12.988,11.720 12.715,11.720 12.510 C 11.720 11.957,12.287 11.571,12.791 11.782 M15.633 12.744 C 15.912 12.883,16.053 13.116,16.053 13.435 C 16.053 13.885,15.735 14.200,15.280 14.200 C 14.836 14.200,14.520 13.886,14.520 13.444 C 14.520 13.096,14.669 12.860,14.980 12.716 C 15.201 12.614,15.388 12.622,15.633 12.744 M3.993 14.150 C 3.159 14.989,2.878 15.299,2.691 15.585 C 1.775 16.987,1.780 18.757,2.705 20.150 C 3.960 22.041,6.508 22.557,8.415 21.309 C 8.701 21.121,9.014 20.837,9.860 19.996 L 10.940 18.922 8.020 16.001 C 6.414 14.394,5.090 13.080,5.078 13.080 C 5.066 13.080,4.578 13.562,3.993 14.150 M13.802 14.601 C 14.145 14.776,14.304 15.279,14.126 15.628 C 13.828 16.213,13.034 16.215,12.744 15.633 C 12.687 15.518,12.640 15.364,12.640 15.291 C 12.640 15.016,12.852 14.688,13.100 14.577 C 13.283 14.495,13.617 14.507,13.802 14.601 M16.557 15.518 C 17.245 15.869,17.068 16.904,16.305 16.989 C 15.581 17.071,15.149 16.179,15.664 15.664 C 15.897 15.432,16.268 15.371,16.557 15.518 " fill="#1C274C" stroke="none" fill-rule="evenodd"></path></svg>