<svg width="24" height="24" viewBox="0 0 24 24" fill="none" xmlns="http://www.w3.org/2000/svg"><path d="M6.767 2.042 C 4.452 2.333,2.582 4.054,2.120 6.318 C 1.900 7.398,2.014 8.534,2.443 9.536 C 2.579 9.852,2.861 10.360,3.023 10.579 C 3.079 10.654,3.285 10.455,6.862 6.879 L 10.643 3.100 10.519 2.995 C 10.311 2.819,9.669 2.483,9.264 2.339 C 8.503 2.066,7.509 1.948,6.767 2.042 M7.950 7.950 L 4.120 11.780 8.180 15.840 L 12.240 19.900 16.070 16.070 L 19.900 12.240 15.840 8.180 L 11.780 4.120 7.950 7.950 M12.433 8.276 C 12.926 8.528,13.132 9.095,12.906 9.580 C 12.735 9.948,12.403 10.160,12.000 10.160 C 11.597 10.160,11.265 9.948,11.094 9.580 C 10.835 9.024,11.135 8.400,11.760 8.195 C 11.916 8.144,12.253 8.185,12.433 8.276 M9.582 11.095 C 10.353 11.454,10.353 12.546,9.582 12.905 C 8.926 13.211,8.183 12.730,8.183 12.000 C 8.183 11.269,8.926 10.789,9.582 11.095 M15.169 11.063 C 15.553 11.193,15.817 11.576,15.817 12.000 C 15.817 12.729,15.074 13.211,14.420 12.906 C 14.052 12.735,13.840 12.403,13.840 12.000 C 13.840 11.728,13.911 11.538,14.090 11.335 C 14.351 11.037,14.778 10.929,15.169 11.063 M17.122 17.138 C 15.044 19.216,13.352 20.924,13.362 20.934 C 13.433 21.000,13.990 21.335,14.220 21.450 C 14.564 21.623,15.108 21.807,15.560 21.904 C 16.040 22.007,17.127 22.009,17.599 21.907 C 18.767 21.655,19.587 21.214,20.401 20.401 C 21.214 19.587,21.655 18.767,21.907 17.599 C 22.019 17.079,22.009 16.037,21.886 15.485 C 21.780 15.005,21.627 14.570,21.419 14.158 C 21.268 13.858,20.957 13.360,20.921 13.360 C 20.909 13.360,19.200 15.060,17.122 17.138 M12.374 13.900 C 12.723 14.046,12.999 14.444,13.000 14.803 C 13.001 15.375,12.565 15.817,12.000 15.817 C 10.936 15.817,10.623 14.400,11.581 13.922 C 11.776 13.825,12.169 13.814,12.374 13.900 " fill="#1C274C" stroke="none" fill-rule="evenodd"></path></svg>