<svg width="24" height="24" viewBox="0 0 24 24" fill="none" xmlns="http://www.w3.org/2000/svg"><path d="M4.614 3.056 C 3.547 3.260,2.762 3.833,2.307 4.740 C 2.026 5.301,2.020 5.353,2.020 7.160 C 2.020 8.747,2.022 8.786,2.114 9.080 C 2.372 9.908,2.865 10.497,3.652 10.920 C 4.037 11.127,4.445 11.236,4.998 11.280 C 5.378 11.310,5.495 11.335,5.677 11.428 C 5.922 11.554,6.134 11.798,6.198 12.031 C 6.225 12.126,6.240 13.091,6.240 14.710 L 6.240 17.240 8.621 17.240 L 11.003 17.240 10.989 12.290 C 10.975 6.815,10.993 7.204,10.714 6.406 C 10.135 4.749,8.670 3.516,6.805 3.117 C 6.302 3.009,5.043 2.975,4.614 3.056 M17.740 3.025 C 15.916 3.220,14.300 4.302,13.519 5.853 C 13.410 6.069,13.276 6.393,13.222 6.573 C 12.996 7.320,13.000 7.201,13.000 12.425 L 13.000 17.240 15.380 17.240 L 17.760 17.240 17.760 14.727 C 17.760 11.968,17.760 11.962,18.000 11.673 C 18.190 11.443,18.469 11.332,18.934 11.301 C 20.199 11.217,21.195 10.583,21.701 9.540 C 21.976 8.972,22.000 8.783,22.000 7.165 C 22.000 5.649,21.975 5.393,21.782 4.917 C 21.432 4.055,20.609 3.357,19.640 3.101 C 19.383 3.034,18.133 2.984,17.740 3.025 M4.780 5.316 C 4.966 5.402,5.137 5.573,5.197 5.733 C 5.225 5.804,5.240 6.359,5.240 7.264 C 5.240 8.578,5.234 8.694,5.164 8.832 C 5.031 9.094,4.792 9.240,4.500 9.240 C 4.206 9.240,3.969 9.094,3.834 8.829 C 3.762 8.686,3.758 8.593,3.769 7.206 L 3.780 5.734 3.880 5.586 C 3.994 5.418,4.313 5.240,4.498 5.241 C 4.565 5.241,4.692 5.275,4.780 5.316 M19.840 5.342 C 19.977 5.412,20.146 5.597,20.197 5.733 C 20.225 5.805,20.240 6.353,20.239 7.253 C 20.238 8.532,20.232 8.675,20.165 8.820 C 20.077 9.010,19.988 9.096,19.790 9.178 C 19.530 9.287,19.193 9.232,18.986 9.048 C 18.943 9.011,18.876 8.908,18.835 8.820 C 18.768 8.674,18.762 8.532,18.761 7.249 C 18.760 6.152,18.772 5.809,18.814 5.708 C 18.881 5.548,19.124 5.329,19.271 5.297 C 19.331 5.284,19.398 5.267,19.420 5.260 C 19.485 5.238,19.732 5.287,19.840 5.342 M6.241 18.870 C 6.241 18.930,6.268 19.093,6.300 19.231 C 6.488 20.026,7.101 20.651,7.942 20.905 C 8.296 21.012,8.973 21.005,9.340 20.891 C 10.226 20.615,10.871 19.862,10.984 18.970 L 11.010 18.760 8.625 18.760 L 6.240 18.760 6.241 18.870 M13.000 18.833 C 13.000 19.048,13.103 19.417,13.243 19.703 C 13.516 20.259,14.036 20.695,14.660 20.890 C 15.027 21.005,15.703 21.012,16.058 20.905 C 16.899 20.651,17.512 20.026,17.700 19.231 C 17.732 19.093,17.759 18.930,17.759 18.870 L 17.760 18.760 15.380 18.760 C 13.107 18.760,13.000 18.763,13.000 18.833 " fill="#1C274C" stroke="none" fill-rule="evenodd"></path></svg>