<svg width="24" height="24" viewBox="0 0 24 24" fill="none" xmlns="http://www.w3.org/2000/svg"><path d="M8.771 2.043 C 6.564 2.136,5.517 2.470,4.554 3.391 C 3.506 4.392,3.165 5.355,3.041 7.660 C 2.988 8.647,2.988 15.353,3.041 16.340 C 3.164 18.628,3.503 19.596,4.527 20.583 C 5.081 21.117,5.578 21.416,6.240 21.613 C 7.313 21.933,8.296 21.999,12.000 21.999 C 15.704 21.999,16.687 21.933,17.760 21.613 C 18.422 21.416,18.919 21.117,19.473 20.583 C 20.194 19.889,20.569 19.173,20.776 18.100 C 20.962 17.137,20.999 16.129,20.999 12.000 C 20.999 7.871,20.962 6.863,20.776 5.900 C 20.567 4.814,20.188 4.099,19.446 3.391 C 18.460 2.449,17.477 2.143,15.100 2.041 C 14.050 1.996,9.863 1.997,8.771 2.043 M17.373 8.355 C 17.615 8.506,17.733 8.718,17.733 9.003 C 17.733 9.203,17.714 9.270,17.616 9.409 C 17.552 9.501,17.436 9.613,17.359 9.658 C 17.221 9.740,17.189 9.740,12.000 9.740 C 6.811 9.740,6.779 9.740,6.641 9.658 C 6.564 9.613,6.448 9.501,6.384 9.409 C 6.098 9.003,6.330 8.395,6.815 8.278 C 6.884 8.261,9.253 8.250,12.080 8.254 L 17.220 8.260 17.373 8.355 M12.389 12.366 C 12.554 12.467,12.660 12.616,12.717 12.829 C 12.800 13.139,12.731 13.281,12.121 14.048 L 11.570 14.740 12.915 14.760 C 13.862 14.774,14.285 14.794,14.345 14.828 C 14.492 14.913,14.675 15.153,14.721 15.323 C 14.771 15.509,14.745 15.683,14.639 15.867 C 14.490 16.126,12.476 18.600,12.369 18.655 C 11.795 18.952,11.132 18.456,11.280 17.839 C 11.317 17.686,11.437 17.508,11.878 16.954 L 12.430 16.260 11.085 16.240 C 10.138 16.226,9.715 16.206,9.655 16.172 C 9.508 16.087,9.325 15.847,9.279 15.677 C 9.229 15.491,9.255 15.317,9.361 15.133 C 9.486 14.915,11.505 12.423,11.603 12.364 C 11.842 12.223,12.157 12.224,12.389 12.366 " fill="#1C274C" stroke="none" fill-rule="evenodd"></path></svg>