<svg width="24" height="24" viewBox="0 0 24 24" fill="none" xmlns="http://www.w3.org/2000/svg"><path d="M17.640 2.041 C 17.497 2.060,17.210 2.115,17.003 2.163 C 15.281 2.557,13.842 3.813,13.286 5.406 C 13.008 6.201,13.025 5.846,13.012 11.020 L 13.000 15.700 13.190 15.350 C 13.294 15.158,13.461 14.888,13.560 14.751 C 13.823 14.387,14.452 13.769,14.825 13.508 C 15.595 12.971,16.584 12.600,17.430 12.534 L 17.760 12.508 17.760 11.844 C 17.760 11.098,17.787 10.955,17.973 10.711 C 18.183 10.436,18.453 10.323,19.002 10.280 C 19.555 10.236,19.963 10.127,20.348 9.920 C 20.977 9.582,21.397 9.160,21.682 8.580 C 21.974 7.986,21.980 7.939,21.980 6.140 C 21.980 4.355,21.973 4.300,21.693 3.740 C 21.281 2.920,20.586 2.364,19.660 2.116 C 19.402 2.047,19.201 2.028,18.620 2.018 C 18.224 2.011,17.783 2.021,17.640 2.041 M4.660 4.042 C 3.576 4.212,2.609 4.953,2.220 5.911 C 2.021 6.403,2.000 6.612,2.000 8.144 C 2.000 9.785,2.023 9.970,2.299 10.540 C 2.805 11.583,3.801 12.217,5.066 12.301 C 5.531 12.332,5.810 12.443,6.000 12.673 C 6.240 12.962,6.240 12.968,6.240 15.727 L 6.240 18.240 8.620 18.240 L 11.000 18.240 11.000 13.425 C 11.000 8.201,11.004 8.320,10.778 7.573 C 10.724 7.393,10.590 7.069,10.481 6.853 C 9.783 5.468,8.437 4.461,6.820 4.113 C 6.403 4.023,5.059 3.979,4.660 4.042 M19.780 4.316 C 19.966 4.402,20.137 4.573,20.197 4.733 C 20.225 4.804,20.240 5.359,20.240 6.264 C 20.240 7.578,20.234 7.694,20.164 7.832 C 20.031 8.094,19.792 8.240,19.500 8.240 C 19.206 8.240,18.969 8.094,18.834 7.829 C 18.762 7.686,18.758 7.593,18.769 6.206 L 18.780 4.734 18.880 4.586 C 18.994 4.418,19.313 4.240,19.498 4.241 C 19.565 4.241,19.692 4.275,19.780 4.316 M4.840 6.342 C 4.977 6.412,5.146 6.597,5.197 6.733 C 5.225 6.805,5.240 7.353,5.239 8.253 C 5.238 9.532,5.232 9.675,5.165 9.820 C 5.077 10.010,4.988 10.096,4.790 10.178 C 4.530 10.287,4.193 10.232,3.986 10.048 C 3.943 10.011,3.876 9.908,3.835 9.820 C 3.768 9.674,3.762 9.532,3.761 8.249 C 3.760 7.152,3.772 6.809,3.814 6.708 C 3.881 6.548,4.124 6.329,4.271 6.297 C 4.331 6.284,4.398 6.267,4.420 6.260 C 4.485 6.238,4.732 6.287,4.840 6.342 M17.420 14.044 C 16.618 14.159,15.768 14.588,15.178 15.178 C 13.253 17.103,13.781 20.344,16.220 21.570 C 17.744 22.336,19.612 22.032,20.822 20.822 C 22.377 19.267,22.377 16.733,20.822 15.178 C 19.936 14.292,18.660 13.867,17.420 14.044 M19.780 16.316 C 20.077 16.453,20.240 16.697,20.240 17.004 C 20.240 17.337,20.206 17.376,18.590 18.877 C 18.177 19.261,17.790 19.607,17.730 19.646 C 17.563 19.756,17.305 19.781,17.108 19.705 C 16.899 19.625,15.894 18.684,15.814 18.493 C 15.656 18.114,15.829 17.697,16.220 17.516 C 16.525 17.374,16.809 17.455,17.161 17.785 L 17.363 17.974 17.572 17.774 C 18.478 16.906,19.064 16.385,19.210 16.319 C 19.423 16.222,19.576 16.221,19.780 16.316 M6.241 19.870 C 6.241 19.930,6.268 20.093,6.300 20.231 C 6.488 21.026,7.101 21.651,7.942 21.905 C 8.296 22.012,8.973 22.005,9.340 21.891 C 10.226 21.615,10.871 20.862,10.984 19.970 L 11.010 19.760 8.625 19.760 L 6.240 19.760 6.241 19.870 " fill="#1C274C" stroke="none" fill-rule="evenodd"></path></svg>