<svg width="24" height="24" viewBox="0 0 24 24" fill="none" xmlns="http://www.w3.org/2000/svg"><path d="M15.701 2.042 C 14.482 2.233,13.465 3.184,13.113 4.462 C 13.031 4.759,13.025 4.885,13.010 6.394 C 12.999 7.438,13.009 8.126,13.038 8.341 C 13.187 9.460,13.848 10.406,14.820 10.892 C 15.213 11.088,15.474 11.158,15.969 11.200 C 16.618 11.254,16.892 11.403,17.114 11.820 L 17.220 12.020 17.231 14.930 L 17.242 17.840 19.622 17.840 L 22.003 17.840 21.989 12.330 C 21.976 6.900,21.974 6.814,21.891 6.436 C 21.633 5.260,21.138 4.335,20.341 3.539 C 19.601 2.799,18.688 2.305,17.679 2.098 C 17.320 2.025,16.043 1.988,15.701 2.042 M15.671 4.342 C 15.860 4.421,15.986 4.539,16.094 4.740 C 16.177 4.894,16.180 4.955,16.193 6.345 C 16.201 7.262,16.190 7.875,16.163 8.025 C 16.038 8.706,15.357 8.962,14.912 8.494 C 14.684 8.253,14.680 8.221,14.680 6.536 C 14.680 4.815,14.688 4.752,14.927 4.513 C 15.149 4.291,15.407 4.232,15.671 4.342 M9.480 4.459 C 7.623 4.970,6.154 6.370,5.540 8.214 C 5.388 8.670,5.338 8.968,5.377 9.179 C 5.429 9.457,5.805 9.758,6.100 9.758 C 6.166 9.758,6.292 9.725,6.380 9.684 C 6.653 9.558,6.753 9.413,6.883 8.955 C 7.322 7.409,8.409 6.322,9.955 5.883 C 10.413 5.753,10.558 5.653,10.684 5.380 C 10.725 5.292,10.758 5.166,10.758 5.100 C 10.758 4.939,10.636 4.684,10.495 4.553 C 10.260 4.333,10.019 4.311,9.480 4.459 M6.834 11.043 C 4.461 11.337,2.564 13.122,2.095 15.501 C 1.998 15.994,1.998 17.006,2.095 17.499 C 2.432 19.207,3.494 20.623,5.024 21.402 C 5.820 21.807,6.547 21.976,7.500 21.976 C 8.453 21.976,9.180 21.807,9.976 21.402 C 11.506 20.623,12.568 19.207,12.905 17.499 C 13.002 17.006,13.002 15.994,12.905 15.501 C 12.683 14.374,12.177 13.419,11.379 12.621 C 10.585 11.827,9.614 11.311,8.520 11.102 C 8.102 11.022,7.245 10.992,6.834 11.043 M8.260 13.371 C 8.852 13.569,9.337 13.975,9.568 14.467 C 9.960 15.298,9.702 16.238,8.933 16.787 C 8.794 16.886,8.680 16.976,8.680 16.987 C 8.680 16.998,8.913 17.396,9.198 17.873 C 9.482 18.350,9.727 18.805,9.741 18.884 C 9.792 19.169,9.618 19.527,9.364 19.658 C 9.093 19.798,8.749 19.766,8.528 19.581 C 8.465 19.527,8.111 18.979,7.741 18.362 L 7.069 17.240 6.915 17.240 L 6.760 17.240 6.759 18.190 C 6.758 19.028,6.750 19.159,6.684 19.300 C 6.406 19.904,5.594 19.904,5.316 19.300 C 5.246 19.150,5.242 18.981,5.241 16.509 C 5.240 14.223,5.248 13.858,5.302 13.729 C 5.384 13.533,5.506 13.406,5.700 13.314 C 5.847 13.244,5.947 13.239,6.900 13.251 C 7.903 13.264,7.952 13.268,8.260 13.371 M6.760 15.260 L 6.760 15.760 7.138 15.760 C 7.679 15.760,7.907 15.703,8.090 15.519 C 8.263 15.347,8.282 15.212,8.160 15.040 C 8.007 14.826,7.793 14.760,7.247 14.760 L 6.760 14.760 6.760 15.260 M17.240 19.622 C 17.240 19.845,17.373 20.355,17.500 20.620 C 17.786 21.214,18.315 21.684,18.920 21.882 C 19.342 22.020,19.898 22.020,20.318 21.882 C 21.213 21.589,21.871 20.753,21.980 19.770 L 22.008 19.520 19.624 19.520 L 17.240 19.520 17.240 19.622 " fill="#1C274C" stroke="none" fill-rule="evenodd"></path></svg>