<svg width="24" height="24" viewBox="0 0 24 24" fill="none" xmlns="http://www.w3.org/2000/svg"><path d="M17.640 2.041 C 17.497 2.060,17.210 2.115,17.003 2.163 C 15.281 2.557,13.842 3.813,13.286 5.406 C 13.008 6.201,13.025 5.846,13.012 11.020 L 13.000 15.700 13.190 15.350 C 13.294 15.158,13.461 14.888,13.560 14.751 C 13.823 14.387,14.452 13.769,14.825 13.508 C 15.595 12.971,16.584 12.600,17.430 12.534 L 17.760 12.508 17.760 11.844 C 17.760 11.098,17.787 10.955,17.973 10.711 C 18.183 10.436,18.453 10.323,19.002 10.280 C 19.555 10.236,19.963 10.127,20.348 9.920 C 20.977 9.582,21.397 9.160,21.682 8.580 C 21.974 7.986,21.980 7.939,21.980 6.140 C 21.980 4.355,21.973 4.300,21.693 3.740 C 21.281 2.920,20.586 2.364,19.660 2.116 C 19.402 2.047,19.201 2.028,18.620 2.018 C 18.224 2.011,17.783 2.021,17.640 2.041 M4.614 4.056 C 3.547 4.260,2.762 4.833,2.307 5.740 C 2.026 6.301,2.020 6.353,2.020 8.160 C 2.020 9.747,2.022 9.786,2.114 10.080 C 2.372 10.908,2.865 11.497,3.652 11.920 C 4.037 12.127,4.445 12.236,4.998 12.280 C 5.378 12.310,5.495 12.335,5.677 12.428 C 5.922 12.554,6.134 12.798,6.198 13.031 C 6.225 13.126,6.240 14.091,6.240 15.710 L 6.240 18.240 8.621 18.240 L 11.003 18.240 10.989 13.290 C 10.975 7.815,10.993 8.204,10.714 7.406 C 10.135 5.749,8.670 4.516,6.805 4.117 C 6.302 4.009,5.043 3.975,4.614 4.056 M19.780 4.316 C 19.966 4.402,20.137 4.573,20.197 4.733 C 20.225 4.804,20.240 5.359,20.240 6.264 C 20.240 7.578,20.234 7.694,20.164 7.832 C 20.031 8.094,19.792 8.240,19.500 8.240 C 19.206 8.240,18.969 8.094,18.834 7.829 C 18.762 7.686,18.758 7.593,18.769 6.206 L 18.780 4.734 18.880 4.586 C 18.994 4.418,19.313 4.240,19.498 4.241 C 19.565 4.241,19.692 4.275,19.780 4.316 M4.780 6.316 C 4.966 6.402,5.137 6.573,5.197 6.733 C 5.225 6.804,5.240 7.359,5.240 8.264 C 5.240 9.578,5.234 9.694,5.164 9.832 C 5.031 10.094,4.792 10.240,4.500 10.240 C 4.206 10.240,3.969 10.094,3.834 9.829 C 3.762 9.686,3.758 9.593,3.769 8.206 L 3.780 6.734 3.880 6.586 C 3.994 6.418,4.313 6.240,4.498 6.241 C 4.565 6.241,4.692 6.275,4.780 6.316 M17.433 14.040 C 16.843 14.134,16.221 14.380,15.731 14.712 C 14.955 15.240,14.394 16.037,14.130 16.989 C 14.034 17.337,14.022 17.449,14.022 18.000 C 14.022 18.553,14.034 18.663,14.132 19.017 C 14.475 20.256,15.357 21.252,16.520 21.715 C 18.334 22.437,20.462 21.710,21.444 20.033 C 22.503 18.224,21.985 15.878,20.269 14.712 C 19.917 14.473,19.343 14.214,18.958 14.120 C 18.572 14.026,17.783 13.984,17.433 14.040 M17.340 16.331 C 17.384 16.354,17.550 16.499,17.710 16.653 L 18.000 16.934 18.290 16.653 C 18.649 16.306,18.722 16.267,19.008 16.267 C 19.430 16.267,19.733 16.572,19.733 16.996 C 19.733 17.278,19.693 17.352,19.347 17.710 L 19.066 18.000 19.347 18.290 C 19.694 18.649,19.733 18.722,19.733 19.008 C 19.733 19.508,19.283 19.850,18.796 19.719 C 18.667 19.684,18.544 19.596,18.311 19.369 L 18.000 19.066 17.689 19.369 C 17.456 19.596,17.333 19.684,17.204 19.719 C 16.717 19.850,16.267 19.508,16.267 19.008 C 16.267 18.722,16.306 18.649,16.653 18.290 L 16.934 18.000 16.653 17.710 C 16.307 17.352,16.267 17.278,16.267 16.996 C 16.267 16.533,16.641 16.206,17.100 16.268 C 17.188 16.280,17.296 16.308,17.340 16.331 M6.241 19.870 C 6.241 19.930,6.268 20.093,6.300 20.231 C 6.488 21.026,7.101 21.651,7.942 21.905 C 8.296 22.012,8.973 22.005,9.340 21.891 C 10.226 21.615,10.871 20.862,10.984 19.970 L 11.010 19.760 8.625 19.760 L 6.240 19.760 6.241 19.870 " fill="#1C274C" stroke="none" fill-rule="evenodd"></path></svg>