<svg width="24" height="24" viewBox="0 0 24 24" fill="none" xmlns="http://www.w3.org/2000/svg"><path d="M5.645 2.042 C 4.755 2.202,3.900 2.949,3.636 3.799 C 3.506 4.218,3.469 4.673,3.492 5.540 C 3.516 6.427,3.549 6.601,3.784 7.076 C 4.052 7.618,4.653 8.123,5.240 8.299 C 5.361 8.335,5.626 8.381,5.829 8.401 C 6.590 8.476,6.799 8.733,6.800 9.590 L 6.800 10.000 8.660 10.000 L 10.520 10.000 10.519 8.170 C 10.519 7.163,10.501 6.169,10.479 5.960 C 10.332 4.556,9.566 3.348,8.364 2.624 C 7.991 2.399,7.453 2.187,7.031 2.098 C 6.667 2.021,5.929 1.991,5.645 2.042 M17.278 2.044 C 15.681 2.251,14.264 3.424,13.733 4.980 C 13.536 5.558,13.520 5.779,13.520 7.965 L 13.520 10.000 15.360 10.000 L 17.200 10.000 17.200 9.570 C 17.200 9.064,17.242 8.886,17.402 8.703 C 17.572 8.510,17.769 8.432,18.179 8.395 C 18.660 8.351,19.035 8.226,19.385 7.991 C 19.898 7.649,20.237 7.182,20.397 6.601 C 20.471 6.334,20.480 6.190,20.479 5.281 C 20.479 4.126,20.450 3.930,20.209 3.440 C 19.990 2.992,19.495 2.505,19.040 2.288 C 18.493 2.027,17.971 1.954,17.278 2.044 M3.859 11.040 C 3.637 11.072,3.377 11.191,3.272 11.307 C 3.234 11.349,3.162 11.472,3.112 11.581 L 3.020 11.780 3.023 14.020 C 3.027 17.285,3.140 18.329,3.599 19.309 C 4.112 20.403,5.186 21.323,6.320 21.638 C 6.732 21.753,7.464 21.867,8.180 21.928 C 9.023 22.000,14.981 22.000,15.820 21.928 C 17.701 21.767,18.544 21.460,19.448 20.607 C 20.035 20.053,20.454 19.356,20.654 18.600 C 20.912 17.626,20.974 16.750,20.977 14.000 L 20.980 11.780 20.887 11.574 C 20.774 11.324,20.681 11.232,20.420 11.112 C 20.223 11.021,20.197 11.020,18.495 11.007 L 16.770 10.994 16.741 11.267 C 16.626 12.351,15.876 13.271,14.811 13.634 L 14.500 13.740 12.000 13.740 L 9.500 13.740 9.180 13.631 C 8.735 13.480,8.397 13.269,8.064 12.936 C 7.600 12.472,7.327 11.907,7.259 11.270 L 7.231 11.000 5.645 11.005 C 4.773 11.008,3.970 11.023,3.859 11.040 M8.775 11.188 C 8.829 11.584,9.091 11.940,9.463 12.123 L 9.660 12.220 12.000 12.220 L 14.340 12.220 14.537 12.123 C 14.909 11.940,15.171 11.584,15.225 11.188 L 15.251 11.000 12.000 11.000 L 8.749 11.000 8.775 11.188 " fill="#1C274C" stroke="none" fill-rule="evenodd"></path></svg>