<svg width="24" height="24" viewBox="0 0 24 24" fill="none" xmlns="http://www.w3.org/2000/svg"><path d="M6.840 2.023 C 6.785 2.032,6.605 2.060,6.440 2.084 C 6.044 2.142,5.457 2.331,5.060 2.529 C 3.608 3.253,2.531 4.624,2.160 6.220 C 2.008 6.877,2.000 7.182,2.000 12.578 L 2.000 17.840 4.379 17.840 L 6.758 17.840 6.769 14.930 L 6.780 12.020 6.886 11.820 C 7.110 11.399,7.372 11.255,8.009 11.202 C 8.525 11.158,8.784 11.090,9.180 10.892 C 10.152 10.406,10.813 9.460,10.962 8.341 C 10.991 8.126,11.001 7.438,10.990 6.394 C 10.975 4.885,10.969 4.759,10.887 4.462 C 10.703 3.794,10.290 3.136,9.803 2.733 C 9.507 2.487,8.940 2.192,8.580 2.097 C 8.348 2.035,7.082 1.981,6.840 2.023 M8.976 4.430 C 9.062 4.491,9.170 4.612,9.216 4.700 C 9.296 4.853,9.301 4.928,9.312 6.440 C 9.321 7.509,9.310 8.069,9.280 8.171 C 9.229 8.348,9.037 8.579,8.870 8.665 C 8.587 8.811,8.188 8.698,7.990 8.416 C 7.814 8.166,7.793 7.930,7.807 6.347 C 7.820 4.955,7.823 4.894,7.906 4.740 C 8.145 4.296,8.599 4.165,8.976 4.430 M13.700 4.414 C 13.458 4.527,13.239 4.858,13.241 5.109 C 13.242 5.265,13.368 5.519,13.510 5.652 C 13.594 5.732,13.751 5.799,14.045 5.883 C 15.591 6.322,16.678 7.409,17.117 8.955 C 17.247 9.413,17.347 9.558,17.620 9.684 C 17.708 9.725,17.834 9.758,17.900 9.758 C 18.195 9.758,18.571 9.457,18.623 9.179 C 18.706 8.738,18.294 7.573,17.788 6.820 C 17.381 6.212,16.759 5.594,16.167 5.205 C 15.298 4.635,14.070 4.241,13.700 4.414 M15.834 11.043 C 13.461 11.337,11.564 13.122,11.095 15.501 C 10.998 15.994,10.998 17.006,11.095 17.499 C 11.432 19.207,12.494 20.623,14.024 21.402 C 14.820 21.807,15.547 21.976,16.500 21.976 C 17.453 21.976,18.180 21.807,18.976 21.402 C 20.506 20.623,21.568 19.207,21.905 17.499 C 22.002 17.006,22.002 15.994,21.905 15.501 C 21.683 14.374,21.177 13.419,20.379 12.621 C 19.585 11.827,18.614 11.311,17.520 11.102 C 17.102 11.022,16.245 10.992,15.834 11.043 M15.531 13.055 C 15.688 13.123,15.900 13.340,15.958 13.493 C 15.986 13.567,16.000 14.350,16.000 15.803 L 16.000 18.000 17.197 18.000 C 17.944 18.000,18.437 18.016,18.507 18.042 C 18.660 18.100,18.877 18.312,18.945 18.469 C 19.067 18.754,18.963 19.142,18.712 19.333 C 18.482 19.509,18.290 19.525,16.615 19.512 C 14.948 19.499,14.982 19.503,14.746 19.285 C 14.488 19.046,14.501 19.193,14.489 16.383 C 14.476 13.640,14.485 13.495,14.671 13.274 C 14.874 13.032,15.254 12.936,15.531 13.055 M2.018 19.770 C 2.127 20.751,2.788 21.590,3.682 21.882 C 4.102 22.020,4.658 22.020,5.080 21.882 C 5.685 21.684,6.214 21.214,6.500 20.620 C 6.627 20.355,6.760 19.845,6.760 19.622 L 6.760 19.520 4.375 19.520 L 1.990 19.520 2.018 19.770 " fill="#1C274C" stroke="none" fill-rule="evenodd"></path></svg>