<svg width="24" height="24" viewBox="0 0 24 24" fill="none" xmlns="http://www.w3.org/2000/svg"><path d="M9.140 2.025 C 8.020 2.061,7.031 2.176,6.402 2.342 C 4.975 2.720,3.754 3.915,3.362 5.320 C 3.192 5.928,3.040 7.167,3.040 7.950 L 3.040 8.240 4.692 8.240 L 6.344 8.240 6.472 7.930 C 6.789 7.160,7.478 6.564,8.321 6.331 C 8.560 6.265,8.840 6.260,12.000 6.260 C 15.160 6.260,15.440 6.265,15.679 6.331 C 16.522 6.564,17.211 7.160,17.528 7.930 L 17.656 8.240 19.308 8.240 L 20.960 8.240 20.960 7.946 C 20.960 7.536,20.892 6.700,20.818 6.200 C 20.635 4.972,20.227 4.131,19.456 3.398 C 18.576 2.562,17.734 2.247,15.920 2.078 C 15.491 2.037,10.057 1.995,9.140 2.025 M8.616 7.816 C 8.368 7.895,8.105 8.094,7.968 8.308 C 7.557 8.951,7.786 9.790,8.463 10.123 L 8.660 10.220 12.000 10.220 L 15.340 10.220 15.537 10.123 C 15.788 10.000,16.000 9.788,16.123 9.537 C 16.203 9.375,16.220 9.279,16.220 9.000 C 16.220 8.721,16.203 8.625,16.123 8.463 C 16.000 8.212,15.788 8.000,15.537 7.877 L 15.340 7.780 12.060 7.772 C 9.468 7.766,8.746 7.775,8.616 7.816 M3.000 12.670 C 3.000 16.728,3.059 17.658,3.386 18.760 C 3.582 19.420,3.880 19.916,4.417 20.473 C 5.405 21.499,6.384 21.840,8.680 21.959 C 9.690 22.011,14.310 22.011,15.320 21.959 C 17.616 21.840,18.595 21.499,19.583 20.473 C 20.117 19.919,20.416 19.422,20.613 18.760 C 20.940 17.665,20.999 16.729,21.000 12.650 L 21.000 9.760 19.325 9.760 L 17.651 9.760 17.580 9.950 C 17.335 10.603,16.807 11.181,16.187 11.476 C 15.608 11.751,15.787 11.740,12.000 11.740 C 8.213 11.740,8.392 11.751,7.813 11.476 C 7.193 11.181,6.665 10.603,6.420 9.950 L 6.349 9.760 4.675 9.760 L 3.000 9.760 3.000 12.670 " fill="#1C274C" stroke="none" fill-rule="evenodd"></path></svg>