<svg width="24" height="24" viewBox="0 0 24 24" fill="none" xmlns="http://www.w3.org/2000/svg"><path d="M7.351 1.269 C 7.261 1.282,3.679 3.484,3.086 3.890 C 2.784 4.097,2.680 4.483,2.835 4.820 C 3.015 5.210,3.454 5.347,3.862 5.139 C 3.971 5.084,4.941 4.485,6.017 3.809 C 7.359 2.967,8.011 2.534,8.090 2.435 C 8.296 2.177,8.288 1.783,8.072 1.537 C 7.881 1.320,7.631 1.227,7.351 1.269 M16.340 1.277 C 16.162 1.320,16.065 1.381,15.927 1.538 C 15.712 1.783,15.704 2.177,15.910 2.435 C 15.989 2.534,16.641 2.967,17.983 3.809 C 19.059 4.485,20.029 5.084,20.138 5.139 C 20.364 5.254,20.577 5.267,20.790 5.178 C 20.988 5.096,21.077 5.010,21.165 4.820 C 21.320 4.483,21.215 4.097,20.914 3.890 C 20.704 3.746,16.933 1.390,16.820 1.332 C 16.701 1.270,16.476 1.245,16.340 1.277 M11.320 4.025 C 9.104 4.228,7.155 5.127,5.634 6.648 C 4.435 7.847,3.556 9.454,3.203 11.092 C 2.559 14.080,3.478 17.197,5.641 19.359 C 7.578 21.296,10.315 22.256,13.008 21.941 C 16.089 21.580,18.721 19.720,20.083 16.940 C 21.614 13.817,21.198 10.096,19.013 7.369 C 17.610 5.617,15.558 4.440,13.320 4.101 C 12.909 4.039,11.677 3.992,11.320 4.025 M10.220 10.210 C 10.264 10.232,10.683 10.630,11.150 11.094 L 12.000 11.938 12.850 11.094 C 13.318 10.630,13.745 10.227,13.800 10.198 C 13.929 10.132,14.312 10.132,14.440 10.198 C 14.586 10.274,14.719 10.403,14.790 10.540 C 14.866 10.686,14.873 11.063,14.802 11.200 C 14.773 11.255,14.370 11.683,13.906 12.150 L 13.062 13.000 13.906 13.850 C 14.370 14.318,14.773 14.745,14.802 14.800 C 14.874 14.940,14.866 15.314,14.788 15.465 C 14.701 15.633,14.510 15.788,14.329 15.838 C 14.142 15.890,14.098 15.890,13.900 15.836 C 13.769 15.800,13.583 15.636,12.870 14.927 L 12.000 14.062 11.130 14.927 C 10.238 15.814,10.151 15.879,9.849 15.880 C 9.623 15.880,9.328 15.686,9.210 15.460 C 9.134 15.314,9.127 14.937,9.198 14.800 C 9.227 14.745,9.630 14.317,10.094 13.850 L 10.938 12.999 10.093 12.150 C 9.629 11.682,9.226 11.255,9.198 11.200 C 9.126 11.060,9.134 10.685,9.212 10.535 C 9.294 10.377,9.494 10.207,9.633 10.176 C 9.692 10.164,9.758 10.147,9.780 10.139 C 9.840 10.117,10.129 10.164,10.220 10.210 " fill="#1C274C" stroke="none" fill-rule="evenodd"></path></svg>