<svg width="24" height="24" viewBox="0 0 24 24" fill="none" xmlns="http://www.w3.org/2000/svg"><path d="M7.277 1.295 C 7.136 1.345,3.129 3.829,2.986 3.955 C 2.860 4.065,2.760 4.307,2.760 4.500 C 2.760 4.693,2.860 4.935,2.986 5.045 C 3.209 5.241,3.569 5.298,3.812 5.175 C 4.107 5.026,7.871 2.658,7.995 2.544 C 8.330 2.236,8.326 1.749,7.987 1.452 C 7.853 1.334,7.622 1.238,7.480 1.242 C 7.447 1.243,7.356 1.266,7.277 1.295 M16.265 1.299 C 15.724 1.492,15.585 2.157,16.005 2.544 C 16.079 2.612,17.058 3.241,18.180 3.941 C 20.126 5.156,20.230 5.216,20.443 5.232 C 21.025 5.276,21.410 4.715,21.165 4.180 C 21.124 4.092,21.057 3.991,21.016 3.955 C 20.865 3.825,16.862 1.344,16.723 1.295 C 16.541 1.230,16.457 1.230,16.265 1.299 M11.140 4.042 C 7.366 4.430,4.232 7.101,3.304 10.722 C 3.082 11.586,3.023 12.066,3.023 13.000 C 3.023 14.208,3.212 15.237,3.625 16.279 C 4.825 19.307,7.466 21.402,10.721 21.906 C 11.355 22.004,12.645 22.004,13.279 21.906 C 16.533 21.402,19.175 19.307,20.375 16.279 C 20.788 15.237,20.977 14.208,20.977 13.000 C 20.977 12.066,20.918 11.586,20.696 10.722 C 19.810 7.266,16.894 4.648,13.320 4.102 C 12.809 4.024,11.632 3.991,11.140 4.042 M15.219 9.285 C 15.511 9.366,15.759 9.708,15.760 10.031 C 15.760 10.283,15.627 10.430,13.229 12.830 L 10.820 15.240 12.940 15.240 C 14.275 15.240,15.115 15.256,15.209 15.282 C 15.628 15.398,15.864 15.875,15.698 16.271 C 15.616 16.468,15.494 16.595,15.300 16.684 C 15.149 16.754,14.969 16.758,12.040 16.759 C 9.899 16.759,8.891 16.746,8.781 16.715 C 8.489 16.634,8.241 16.292,8.240 15.969 C 8.240 15.717,8.373 15.570,10.771 13.170 L 13.180 10.760 11.029 10.760 C 9.177 10.760,8.857 10.751,8.729 10.698 C 8.101 10.436,8.084 9.600,8.700 9.316 C 8.851 9.246,9.031 9.242,11.960 9.241 C 14.101 9.241,15.109 9.254,15.219 9.285 " fill="#1C274C" stroke="none" fill-rule="evenodd"></path></svg>