<svg width="24" height="24" viewBox="0 0 24 24" fill="none" xmlns="http://www.w3.org/2000/svg"><path d="M7.277 1.295 C 7.136 1.345,3.129 3.829,2.986 3.955 C 2.860 4.065,2.760 4.307,2.760 4.500 C 2.760 4.693,2.860 4.935,2.986 5.045 C 3.209 5.241,3.569 5.298,3.812 5.175 C 4.107 5.026,7.871 2.658,7.995 2.544 C 8.330 2.236,8.326 1.749,7.987 1.452 C 7.853 1.334,7.622 1.238,7.480 1.242 C 7.447 1.243,7.356 1.266,7.277 1.295 M16.265 1.299 C 15.724 1.492,15.585 2.157,16.005 2.544 C 16.079 2.612,17.058 3.241,18.180 3.941 C 20.126 5.156,20.230 5.216,20.443 5.232 C 21.025 5.276,21.410 4.715,21.165 4.180 C 21.124 4.092,21.057 3.991,21.016 3.955 C 20.865 3.825,16.862 1.344,16.723 1.295 C 16.541 1.230,16.457 1.230,16.265 1.299 M11.140 4.042 C 7.366 4.430,4.232 7.101,3.304 10.722 C 3.082 11.586,3.023 12.066,3.023 13.000 C 3.023 14.208,3.212 15.237,3.625 16.279 C 4.825 19.307,7.466 21.402,10.721 21.906 C 11.355 22.004,12.645 22.004,13.279 21.906 C 16.533 21.402,19.175 19.307,20.375 16.279 C 20.788 15.237,20.977 14.208,20.977 13.000 C 20.977 12.066,20.918 11.586,20.696 10.722 C 19.810 7.266,16.894 4.648,13.320 4.102 C 12.809 4.024,11.632 3.991,11.140 4.042 M10.489 9.131 C 10.702 9.256,10.864 9.449,10.943 9.670 C 11.022 9.891,11.022 16.109,10.943 16.330 C 10.864 16.551,10.702 16.744,10.489 16.869 L 10.300 16.980 9.500 16.980 L 8.700 16.980 8.508 16.867 C 8.290 16.739,8.099 16.498,8.039 16.276 C 8.012 16.177,8.002 15.004,8.009 12.909 L 8.020 9.694 8.141 9.498 C 8.275 9.281,8.518 9.090,8.725 9.038 C 8.799 9.020,9.184 9.008,9.580 9.012 C 10.288 9.020,10.303 9.022,10.489 9.131 M15.489 9.131 C 15.702 9.256,15.864 9.449,15.943 9.670 C 16.022 9.891,16.022 16.109,15.943 16.330 C 15.864 16.551,15.702 16.744,15.489 16.869 L 15.300 16.980 14.500 16.980 L 13.700 16.980 13.508 16.867 C 13.290 16.739,13.099 16.498,13.039 16.276 C 13.012 16.177,13.002 15.004,13.009 12.909 L 13.020 9.694 13.141 9.498 C 13.275 9.281,13.518 9.090,13.725 9.038 C 13.799 9.020,14.184 9.008,14.580 9.012 C 15.288 9.020,15.303 9.022,15.489 9.131 " fill="#1C274C" stroke="none" fill-rule="evenodd"></path></svg>