<svg width="24" height="24" viewBox="0 0 24 24" fill="none" xmlns="http://www.w3.org/2000/svg"><path d="M7.351 1.269 C 7.261 1.282,3.679 3.484,3.086 3.890 C 2.784 4.097,2.680 4.483,2.835 4.820 C 3.015 5.210,3.454 5.347,3.862 5.139 C 3.971 5.084,4.941 4.485,6.017 3.809 C 7.359 2.967,8.011 2.534,8.090 2.435 C 8.296 2.177,8.288 1.783,8.072 1.537 C 7.881 1.320,7.631 1.227,7.351 1.269 M16.340 1.277 C 16.162 1.320,16.065 1.381,15.927 1.538 C 15.712 1.783,15.704 2.177,15.910 2.435 C 15.989 2.534,16.641 2.967,17.983 3.809 C 19.059 4.485,20.029 5.084,20.138 5.139 C 20.364 5.254,20.577 5.267,20.790 5.178 C 20.988 5.096,21.077 5.010,21.165 4.820 C 21.320 4.483,21.215 4.097,20.914 3.890 C 20.704 3.746,16.933 1.390,16.820 1.332 C 16.701 1.270,16.476 1.245,16.340 1.277 M11.320 4.025 C 9.104 4.228,7.155 5.127,5.634 6.648 C 4.435 7.847,3.556 9.454,3.203 11.092 C 2.559 14.080,3.478 17.197,5.641 19.359 C 7.578 21.296,10.315 22.256,13.008 21.941 C 16.089 21.580,18.721 19.720,20.083 16.940 C 21.614 13.817,21.198 10.096,19.013 7.369 C 17.610 5.617,15.558 4.440,13.320 4.101 C 12.909 4.039,11.677 3.992,11.320 4.025 M12.405 9.381 C 12.485 9.432,12.593 9.543,12.645 9.627 C 12.739 9.778,12.740 9.796,12.753 11.007 L 12.765 12.235 13.993 12.247 C 15.204 12.260,15.222 12.261,15.373 12.355 C 15.615 12.506,15.733 12.718,15.733 13.003 C 15.733 13.203,15.714 13.270,15.616 13.409 C 15.385 13.738,15.382 13.738,13.993 13.752 L 12.765 13.764 12.753 14.999 L 12.740 16.233 12.619 16.405 C 12.453 16.642,12.273 16.739,12.000 16.739 C 11.727 16.739,11.547 16.642,11.381 16.405 L 11.260 16.233 11.247 14.999 L 11.235 13.764 10.007 13.752 C 8.618 13.738,8.615 13.738,8.384 13.409 C 8.286 13.271,8.267 13.203,8.267 13.007 C 8.267 12.721,8.372 12.526,8.612 12.367 L 8.774 12.260 10.004 12.247 L 11.235 12.235 11.247 11.007 C 11.260 9.804,11.262 9.777,11.353 9.631 C 11.586 9.256,12.044 9.147,12.405 9.381 " fill="#1C274C" stroke="none" fill-rule="evenodd"></path></svg>