<svg width="24" height="24" viewBox="0 0 24 24" fill="none" xmlns="http://www.w3.org/2000/svg"><path d="M7.351 1.269 C 7.261 1.282,3.679 3.484,3.086 3.890 C 2.784 4.097,2.680 4.483,2.835 4.820 C 3.015 5.210,3.454 5.347,3.862 5.139 C 3.971 5.084,4.941 4.485,6.017 3.809 C 7.359 2.967,8.011 2.534,8.090 2.435 C 8.296 2.177,8.288 1.783,8.072 1.537 C 7.881 1.320,7.631 1.227,7.351 1.269 M16.340 1.277 C 16.162 1.320,16.065 1.381,15.927 1.538 C 15.712 1.783,15.704 2.177,15.910 2.435 C 15.989 2.534,16.641 2.967,17.983 3.809 C 19.059 4.485,20.029 5.084,20.138 5.139 C 20.364 5.254,20.577 5.267,20.790 5.178 C 20.988 5.096,21.077 5.010,21.165 4.820 C 21.320 4.483,21.215 4.097,20.914 3.890 C 20.704 3.746,16.933 1.390,16.820 1.332 C 16.701 1.270,16.476 1.245,16.340 1.277 M11.320 4.025 C 9.104 4.228,7.155 5.127,5.634 6.648 C 4.435 7.847,3.556 9.454,3.203 11.092 C 2.559 14.080,3.478 17.197,5.641 19.359 C 7.578 21.296,10.315 22.256,13.008 21.941 C 16.089 21.580,18.721 19.720,20.083 16.940 C 21.614 13.817,21.198 10.096,19.013 7.369 C 17.610 5.617,15.558 4.440,13.320 4.101 C 12.909 4.039,11.677 3.992,11.320 4.025 M11.300 9.235 C 11.797 9.483,12.785 10.096,13.291 10.471 C 13.950 10.960,14.878 11.760,15.104 12.033 C 15.398 12.390,15.491 12.648,15.473 13.060 C 15.448 13.675,15.155 14.046,13.904 15.050 C 13.188 15.623,12.796 15.900,12.100 16.320 C 10.871 17.063,10.493 17.149,10.082 16.777 C 9.672 16.407,9.541 15.493,9.541 13.000 C 9.541 10.607,9.666 9.655,10.032 9.265 C 10.339 8.937,10.685 8.929,11.300 9.235 " fill="#1C274C" stroke="none" fill-rule="evenodd"></path></svg>