<svg width="24" height="24" viewBox="0 0 24 24" fill="none" xmlns="http://www.w3.org/2000/svg"><path d="M7.389 2.045 C 7.307 2.076,4.013 4.099,3.299 4.556 C 3.170 4.639,3.040 4.866,3.015 5.055 C 2.983 5.283,3.101 5.551,3.299 5.702 C 3.483 5.842,3.838 5.884,4.025 5.788 C 4.406 5.591,8.115 3.260,8.187 3.172 C 8.539 2.744,8.251 2.071,7.696 2.020 C 7.588 2.010,7.450 2.021,7.389 2.045 M16.140 2.043 C 15.926 2.106,15.730 2.339,15.665 2.610 C 15.630 2.755,15.705 3.041,15.813 3.172 C 15.885 3.260,19.594 5.591,19.975 5.788 C 20.055 5.829,20.167 5.843,20.323 5.832 C 21.018 5.782,21.236 4.909,20.649 4.524 C 20.157 4.201,16.790 2.134,16.660 2.075 C 16.488 1.996,16.331 1.986,16.140 2.043 M11.380 4.682 C 9.347 4.808,7.378 5.684,5.906 7.117 C 5.002 7.996,4.404 8.857,3.940 9.941 C 2.138 14.161,3.946 19.018,8.084 21.076 C 9.813 21.936,11.777 22.205,13.665 21.839 C 16.985 21.195,19.658 18.700,20.481 15.475 C 20.958 13.609,20.812 11.705,20.057 9.935 C 19.602 8.869,18.989 7.988,18.094 7.117 C 16.845 5.901,15.217 5.075,13.492 4.781 C 13.181 4.728,12.025 4.631,11.900 4.647 C 11.878 4.650,11.644 4.666,11.380 4.682 M12.291 8.815 C 12.447 8.882,12.620 9.059,12.677 9.213 C 12.705 9.286,12.720 9.966,12.720 11.177 L 12.720 13.030 13.882 14.174 C 14.616 14.897,15.065 15.370,15.102 15.458 C 15.216 15.732,15.141 16.056,14.914 16.267 C 14.694 16.472,14.337 16.505,14.069 16.346 C 13.848 16.214,11.377 13.734,11.322 13.587 C 11.264 13.432,11.264 9.368,11.323 9.213 C 11.379 9.064,11.551 8.883,11.700 8.817 C 11.857 8.747,12.130 8.746,12.291 8.815 " fill="#1C274C" stroke="none" fill-rule="evenodd"></path></svg>