<svg width="24" height="24" viewBox="0 0 24 24" fill="none" xmlns="http://www.w3.org/2000/svg"><path d="M8.165 2.045 C 7.380 2.175,6.558 2.821,6.256 3.544 L 6.199 3.680 12.000 3.680 L 17.801 3.680 17.744 3.544 C 17.435 2.803,16.623 2.176,15.800 2.043 C 15.478 1.991,8.481 1.993,8.165 2.045 M6.237 4.581 C 5.382 4.789,4.646 5.442,4.336 6.267 C 4.247 6.503,4.244 6.527,4.309 6.501 C 4.724 6.337,5.590 6.213,6.680 6.161 C 7.769 6.109,16.384 6.109,17.480 6.161 C 18.549 6.212,19.425 6.339,19.859 6.505 C 19.916 6.527,19.914 6.506,19.846 6.327 C 19.545 5.533,18.918 4.918,18.120 4.633 L 17.860 4.540 12.160 4.533 C 7.463 4.527,6.421 4.536,6.237 4.581 M6.976 7.323 C 5.145 7.400,4.188 7.767,3.575 8.625 C 3.154 9.215,3.018 9.765,3.024 10.860 C 3.028 11.741,3.053 11.981,3.483 15.260 C 3.929 18.664,4.013 19.168,4.247 19.838 C 4.604 20.858,5.224 21.470,6.192 21.758 C 6.925 21.976,6.998 21.979,12.000 21.979 C 16.118 21.979,16.669 21.971,17.068 21.911 C 18.866 21.643,19.643 20.818,20.020 18.780 C 20.206 17.774,20.886 12.539,20.964 11.520 C 21.066 10.169,20.903 9.295,20.425 8.625 C 19.793 7.740,18.890 7.407,16.884 7.320 C 15.842 7.275,8.056 7.277,6.976 7.323 M17.520 8.680 C 18.982 8.831,19.496 9.200,19.643 10.203 C 19.700 10.593,19.674 11.425,19.579 12.240 C 19.486 13.042,18.930 17.260,18.839 17.856 C 18.795 18.140,18.760 18.387,18.760 18.406 C 18.760 18.425,18.744 18.440,18.724 18.440 C 18.704 18.440,18.242 18.105,17.697 17.695 C 16.322 16.660,15.912 16.478,14.952 16.477 C 14.283 16.476,13.892 16.576,13.247 16.912 C 12.746 17.172,12.736 17.176,12.420 17.176 C 12.170 17.176,12.065 17.158,11.940 17.092 C 11.852 17.045,11.042 16.389,10.140 15.633 C 7.895 13.754,8.017 13.845,7.527 13.681 C 6.692 13.403,5.831 13.526,5.085 14.030 C 4.879 14.169,4.703 14.276,4.694 14.267 C 4.667 14.240,4.450 12.550,4.383 11.843 C 4.209 10.023,4.407 9.328,5.203 8.961 C 5.667 8.748,6.189 8.676,7.560 8.640 C 9.236 8.595,16.998 8.626,17.520 8.680 M15.569 10.696 C 14.626 11.004,14.337 12.219,15.043 12.910 C 15.360 13.221,15.809 13.365,16.203 13.283 C 16.883 13.142,17.317 12.565,17.271 11.863 C 17.241 11.398,16.969 10.991,16.540 10.770 C 16.296 10.644,15.836 10.609,15.569 10.696 " fill="#1C274C" stroke="none" fill-rule="evenodd"></path></svg>