<svg width="24" height="24" viewBox="0 0 24 24" fill="none" xmlns="http://www.w3.org/2000/svg"><path d="M3.060 1.703 C 2.872 1.800,2.722 1.964,2.677 2.118 C 2.650 2.214,2.640 5.608,2.648 12.463 L 2.660 22.666 2.776 22.818 C 3.108 23.253,3.801 23.194,4.035 22.710 L 4.120 22.535 4.120 12.386 C 4.120 1.450,4.132 2.092,3.928 1.867 C 3.737 1.656,3.307 1.574,3.060 1.703 M8.448 5.458 C 7.992 5.569,7.566 6.002,7.455 6.467 C 7.415 6.638,7.400 7.013,7.399 7.880 C 7.399 9.391,7.438 9.566,7.856 9.952 C 8.082 10.160,8.284 10.262,8.579 10.316 C 8.898 10.375,19.791 10.377,20.155 10.318 C 20.771 10.218,21.218 9.772,21.317 9.159 C 21.373 8.817,21.372 6.881,21.317 6.577 C 21.258 6.259,21.107 5.993,20.853 5.761 C 20.446 5.389,21.038 5.421,14.460 5.413 C 9.838 5.408,8.617 5.417,8.448 5.458 M8.448 14.458 C 7.992 14.569,7.566 15.002,7.455 15.467 C 7.415 15.638,7.400 16.013,7.399 16.880 C 7.399 18.391,7.438 18.566,7.856 18.952 C 8.082 19.160,8.284 19.262,8.579 19.316 C 8.908 19.377,16.852 19.377,17.181 19.316 C 17.784 19.205,18.220 18.761,18.317 18.159 C 18.373 17.817,18.372 15.881,18.317 15.577 C 18.258 15.259,18.107 14.993,17.853 14.761 C 17.451 14.393,17.839 14.421,12.960 14.413 C 9.559 14.407,8.616 14.417,8.448 14.458 " fill="#1C274C" stroke="none" fill-rule="evenodd"></path></svg>