<svg width="24" height="24" viewBox="0 0 24 24" fill="none" xmlns="http://www.w3.org/2000/svg"><path d="M6.284 3.043 C 5.945 3.087,5.652 3.236,5.422 3.482 C 5.189 3.731,5.089 3.952,5.040 4.328 C 4.989 4.723,4.990 15.283,5.041 15.680 C 5.091 16.062,5.227 16.340,5.482 16.578 C 5.864 16.935,6.172 16.999,7.500 16.999 C 8.828 16.999,9.136 16.935,9.518 16.578 C 9.786 16.327,9.912 16.060,9.961 15.638 C 10.013 15.186,10.013 4.814,9.961 4.362 C 9.912 3.940,9.786 3.673,9.518 3.422 C 9.269 3.189,9.048 3.089,8.672 3.040 C 8.321 2.995,6.643 2.997,6.284 3.043 M15.284 6.043 C 14.945 6.087,14.652 6.236,14.422 6.482 C 14.189 6.731,14.089 6.952,14.040 7.328 C 13.990 7.719,13.990 15.287,14.041 15.680 C 14.091 16.062,14.227 16.340,14.482 16.578 C 14.864 16.935,15.172 16.999,16.500 16.999 C 17.828 16.999,18.136 16.935,18.518 16.578 C 18.786 16.327,18.912 16.060,18.961 15.638 C 19.012 15.191,19.012 7.809,18.961 7.362 C 18.912 6.940,18.786 6.673,18.518 6.422 C 18.269 6.189,18.048 6.089,17.672 6.040 C 17.321 5.995,15.643 5.997,15.284 6.043 M1.811 20.279 C 1.536 20.344,1.316 20.587,1.260 20.885 C 1.197 21.220,1.450 21.624,1.781 21.715 C 2.007 21.778,21.993 21.778,22.219 21.715 C 22.431 21.657,22.660 21.422,22.719 21.204 C 22.808 20.873,22.689 20.566,22.394 20.372 L 22.226 20.260 12.083 20.254 C 6.504 20.251,1.882 20.262,1.811 20.279 " fill="#1C274C" stroke="none" fill-rule="evenodd"></path></svg>