<svg width="24" height="24" viewBox="0 0 24 24" fill="none" xmlns="http://www.w3.org/2000/svg"><path d="M20.300 1.704 C 20.112 1.807,20.035 1.887,19.955 2.060 C 19.885 2.214,19.882 2.607,19.881 12.377 L 19.880 22.535 19.965 22.710 C 20.134 23.059,20.564 23.210,20.928 23.049 C 21.161 22.946,21.310 22.748,21.361 22.474 C 21.387 22.331,21.397 18.824,21.390 12.238 C 21.380 2.310,21.379 2.219,21.300 2.063 C 21.256 1.976,21.152 1.851,21.069 1.784 C 20.943 1.684,20.874 1.661,20.669 1.651 C 20.494 1.642,20.384 1.658,20.300 1.704 M3.683 5.464 C 3.410 5.537,3.252 5.634,3.048 5.856 C 2.840 6.082,2.738 6.284,2.684 6.579 C 2.627 6.887,2.627 8.873,2.684 9.181 C 2.795 9.784,3.239 10.220,3.841 10.317 C 4.208 10.377,15.098 10.376,15.423 10.317 C 15.741 10.258,16.007 10.107,16.239 9.853 C 16.562 9.500,16.574 9.441,16.592 8.040 C 16.602 7.210,16.592 6.733,16.560 6.549 C 16.469 6.029,16.043 5.576,15.533 5.456 C 15.175 5.372,3.998 5.379,3.683 5.464 M6.683 14.464 C 6.410 14.537,6.252 14.634,6.048 14.856 C 5.840 15.082,5.738 15.284,5.684 15.579 C 5.627 15.887,5.627 17.873,5.684 18.181 C 5.793 18.772,6.229 19.209,6.817 19.317 C 7.148 19.377,15.092 19.377,15.423 19.317 C 15.741 19.258,16.007 19.107,16.239 18.853 C 16.562 18.500,16.574 18.441,16.592 17.040 C 16.602 16.210,16.592 15.733,16.560 15.549 C 16.469 15.029,16.043 14.576,15.533 14.456 C 15.177 14.372,6.997 14.379,6.683 14.464 " fill="#1C274C" stroke="none" fill-rule="evenodd"></path></svg>