<svg width="24" height="24" viewBox="0 0 24 24" fill="none" xmlns="http://www.w3.org/2000/svg"><path d="M1.811 2.279 C 1.536 2.344,1.316 2.587,1.260 2.885 C 1.197 3.220,1.450 3.624,1.781 3.715 C 2.007 3.778,21.993 3.778,22.219 3.715 C 22.431 3.657,22.660 3.422,22.719 3.204 C 22.808 2.873,22.689 2.566,22.394 2.372 L 22.226 2.260 12.083 2.254 C 6.504 2.251,1.882 2.262,1.811 2.279 M6.200 8.040 C 4.805 8.153,4.300 8.559,4.087 9.740 C 4.033 10.039,4.022 10.423,4.022 12.000 C 4.022 13.577,4.033 13.961,4.087 14.260 C 4.276 15.311,4.686 15.721,5.740 15.914 C 6.064 15.973,6.689 15.980,12.000 15.980 C 17.311 15.980,17.936 15.973,18.260 15.914 C 19.314 15.721,19.712 15.324,19.910 14.267 C 20.012 13.721,20.012 10.279,19.910 9.733 C 19.714 8.690,19.320 8.288,18.300 8.090 C 18.021 8.036,17.245 8.026,12.280 8.019 C 9.145 8.014,6.409 8.024,6.200 8.040 M1.811 20.279 C 1.536 20.344,1.316 20.587,1.260 20.885 C 1.197 21.220,1.450 21.624,1.781 21.715 C 2.007 21.778,21.993 21.778,22.219 21.715 C 22.431 21.657,22.660 21.422,22.719 21.204 C 22.808 20.873,22.689 20.566,22.394 20.372 L 22.226 20.260 12.083 20.254 C 6.504 20.251,1.882 20.262,1.811 20.279 " fill="#1C274C" stroke="none" fill-rule="evenodd"></path></svg>