<svg width="24" height="24" viewBox="0 0 24 24" fill="none" xmlns="http://www.w3.org/2000/svg"><path d="M1.698 3.075 C 1.368 3.225,1.186 3.580,1.273 3.905 C 1.340 4.155,1.423 4.267,1.636 4.392 L 1.820 4.500 12.000 4.500 L 22.180 4.500 22.364 4.392 C 22.577 4.267,22.660 4.155,22.727 3.905 C 22.814 3.580,22.632 3.225,22.302 3.075 C 22.146 3.005,21.752 3.002,12.000 3.002 C 2.248 3.002,1.854 3.005,1.698 3.075 M6.200 7.804 C 5.904 7.855,5.676 7.972,5.457 8.185 C 5.228 8.408,5.090 8.705,5.041 9.084 C 4.986 9.507,4.987 19.962,5.042 20.401 C 5.108 20.925,5.275 21.215,5.664 21.483 C 5.988 21.706,6.211 21.737,7.500 21.737 C 8.467 21.737,8.702 21.725,8.913 21.669 C 9.322 21.558,9.686 21.257,9.845 20.899 C 9.996 20.557,10.005 20.164,9.992 14.480 C 9.980 9.409,9.974 8.964,9.910 8.778 C 9.812 8.488,9.624 8.224,9.396 8.057 C 9.048 7.801,8.959 7.787,7.620 7.776 C 6.960 7.770,6.321 7.783,6.200 7.804 M15.200 7.804 C 14.904 7.855,14.676 7.972,14.457 8.185 C 14.228 8.408,14.090 8.705,14.041 9.084 C 13.986 9.503,13.988 16.966,14.042 17.401 C 14.108 17.925,14.275 18.215,14.664 18.483 C 14.988 18.706,15.211 18.737,16.500 18.737 C 17.467 18.737,17.702 18.725,17.913 18.669 C 18.322 18.558,18.686 18.257,18.845 17.899 C 18.992 17.565,19.005 17.122,18.991 12.980 C 18.979 9.339,18.972 8.962,18.910 8.778 C 18.812 8.488,18.624 8.224,18.396 8.057 C 18.048 7.801,17.959 7.787,16.620 7.776 C 15.960 7.770,15.321 7.783,15.200 7.804 " fill="#1C274C" stroke="none" fill-rule="evenodd"></path></svg>