<svg width="24" height="24" viewBox="0 0 24 24" fill="none" xmlns="http://www.w3.org/2000/svg"><path d="M11.811 1.278 C 11.639 1.320,11.417 1.493,11.330 1.652 C 11.267 1.767,11.259 1.946,11.248 3.390 L 11.237 5.000 8.928 5.001 C 7.659 5.002,6.485 5.020,6.320 5.041 C 6.154 5.063,5.929 5.125,5.816 5.180 C 5.538 5.316,5.235 5.645,5.116 5.941 C 5.021 6.177,5.020 6.198,5.020 7.500 C 5.021 8.795,5.023 8.825,5.116 9.060 C 5.246 9.389,5.610 9.754,5.940 9.884 L 6.180 9.979 8.710 9.992 L 11.240 10.004 11.240 12.002 L 11.240 14.000 9.930 14.001 C 8.476 14.003,8.117 14.033,7.816 14.180 C 7.538 14.316,7.235 14.645,7.116 14.941 C 7.021 15.177,7.020 15.198,7.020 16.500 C 7.021 17.795,7.023 17.825,7.116 18.060 C 7.247 18.391,7.611 18.754,7.940 18.883 C 8.174 18.974,8.218 18.977,9.710 18.992 L 11.240 19.007 11.240 20.533 C 11.240 21.524,11.256 22.116,11.285 22.219 C 11.344 22.432,11.578 22.660,11.798 22.719 C 12.198 22.827,12.610 22.599,12.718 22.209 C 12.743 22.118,12.760 21.460,12.760 20.533 L 12.760 19.007 14.290 18.992 C 15.788 18.977,15.825 18.975,16.060 18.882 C 16.362 18.762,16.720 18.431,16.835 18.163 C 16.979 17.828,17.009 17.462,16.991 16.284 C 16.975 15.244,16.969 15.166,16.881 14.941 C 16.765 14.645,16.466 14.318,16.184 14.180 C 15.883 14.033,15.524 14.003,14.070 14.001 L 12.760 14.000 12.760 12.002 L 12.760 10.004 15.290 9.992 L 17.820 9.979 18.060 9.883 C 18.363 9.762,18.720 9.429,18.835 9.163 C 18.979 8.828,19.009 8.462,18.991 7.284 C 18.971 5.992,18.943 5.867,18.588 5.491 C 18.338 5.227,18.065 5.091,17.680 5.041 C 17.515 5.020,16.341 5.002,15.072 5.001 L 12.763 5.000 12.752 3.390 C 12.741 1.851,12.736 1.774,12.658 1.641 C 12.494 1.361,12.122 1.202,11.811 1.278 " fill="#1C274C" stroke="none" fill-rule="evenodd"></path></svg>