<svg width="24" height="24" viewBox="0 0 24 24" fill="none" xmlns="http://www.w3.org/2000/svg"><path d="M6.284 5.043 C 5.769 5.110,5.308 5.465,5.116 5.941 L 5.020 6.180 5.008 8.708 L 4.996 11.236 3.385 11.248 L 1.774 11.260 1.605 11.372 C 1.311 11.566,1.192 11.873,1.281 12.204 C 1.340 12.422,1.569 12.657,1.781 12.715 C 1.884 12.744,2.477 12.760,3.468 12.760 L 4.996 12.760 5.008 15.290 L 5.021 17.820 5.116 18.060 C 5.246 18.389,5.611 18.754,5.940 18.884 C 6.176 18.978,6.204 18.979,7.500 18.979 C 8.801 18.979,8.823 18.978,9.060 18.883 C 9.361 18.762,9.720 18.429,9.834 18.165 C 9.984 17.816,9.999 17.537,10.000 15.110 L 10.000 12.760 11.997 12.760 L 13.993 12.760 14.008 14.290 C 14.023 15.782,14.026 15.826,14.117 16.060 C 14.246 16.389,14.609 16.753,14.940 16.884 C 15.176 16.978,15.204 16.979,16.500 16.979 C 17.801 16.979,17.823 16.978,18.060 16.883 C 18.361 16.762,18.720 16.429,18.834 16.165 C 18.973 15.843,18.999 15.511,19.000 14.110 L 19.000 12.760 20.530 12.760 C 21.523 12.760,22.116 12.744,22.219 12.715 C 22.431 12.657,22.660 12.422,22.719 12.204 C 22.808 11.873,22.689 11.566,22.395 11.372 L 22.226 11.260 20.616 11.248 L 19.007 11.236 18.992 9.708 C 18.977 8.213,18.975 8.175,18.882 7.941 C 18.765 7.645,18.464 7.317,18.184 7.180 C 17.902 7.042,17.526 7.002,16.500 7.002 C 15.474 7.002,15.098 7.042,14.816 7.180 C 14.536 7.317,14.235 7.645,14.117 7.941 C 14.024 8.175,14.022 8.210,14.008 9.710 L 13.994 11.240 11.999 11.240 L 10.004 11.240 9.992 8.710 L 9.979 6.180 9.883 5.941 C 9.765 5.645,9.463 5.317,9.184 5.180 C 9.071 5.125,8.846 5.063,8.680 5.041 C 8.322 4.995,6.647 4.996,6.284 5.043 " fill="#1C274C" stroke="none" fill-rule="evenodd"></path></svg>