<svg width="24" height="24" viewBox="0 0 24 24" fill="none" xmlns="http://www.w3.org/2000/svg"><path d="M2.811 1.278 C 2.639 1.320,2.417 1.493,2.330 1.652 C 2.264 1.773,2.259 2.352,2.250 11.915 C 2.242 19.210,2.252 22.095,2.284 22.213 C 2.342 22.431,2.574 22.659,2.798 22.719 C 3.201 22.828,3.613 22.597,3.719 22.203 C 3.747 22.098,3.757 18.799,3.750 11.915 C 3.740 1.782,3.740 1.780,3.658 1.641 C 3.494 1.361,3.122 1.202,2.811 1.278 M20.811 1.278 C 20.639 1.320,20.417 1.493,20.330 1.652 C 20.264 1.773,20.259 2.352,20.250 11.915 C 20.242 19.210,20.252 22.095,20.284 22.213 C 20.342 22.431,20.574 22.659,20.798 22.719 C 21.201 22.828,21.613 22.597,21.719 22.203 C 21.747 22.098,21.757 18.799,21.750 11.915 C 21.740 1.782,21.740 1.780,21.658 1.641 C 21.494 1.361,21.122 1.202,20.811 1.278 M10.200 4.039 C 8.799 4.157,8.303 4.556,8.086 5.740 C 8.027 6.064,8.020 6.689,8.020 12.000 C 8.020 17.311,8.027 17.936,8.086 18.260 C 8.279 19.314,8.689 19.724,9.740 19.913 C 10.270 20.008,13.730 20.008,14.260 19.913 C 15.311 19.724,15.710 19.326,15.910 18.267 C 15.975 17.929,15.980 17.436,15.980 12.000 C 15.980 6.564,15.975 6.071,15.910 5.733 C 15.713 4.688,15.310 4.278,14.300 4.094 C 13.928 4.026,10.842 3.985,10.200 4.039 " fill="#1C274C" stroke="none" fill-rule="evenodd"></path></svg>