<svg width="24" height="24" viewBox="0 0 24 24" fill="none" xmlns="http://www.w3.org/2000/svg"><path d="M15.047 5.045 C 14.953 5.073,14.561 5.426,13.687 6.274 C 13.012 6.929,11.488 8.406,10.300 9.557 C 9.112 10.708,8.109 11.706,8.070 11.774 C 8.031 11.843,8.000 11.944,8.000 12.000 C 8.000 12.056,8.031 12.157,8.070 12.226 C 8.170 12.404,14.774 18.802,14.970 18.910 C 15.251 19.066,15.619 19.008,15.848 18.772 L 15.980 18.636 15.980 12.001 L 15.980 5.366 15.880 5.258 C 15.676 5.037,15.359 4.956,15.047 5.045 " fill="#1C274C" stroke="none" fill-rule="evenodd"></path></svg>