<svg width="24" height="24" viewBox="0 0 24 24" fill="none" xmlns="http://www.w3.org/2000/svg"><path d="M2.904 3.044 C 2.584 3.091,2.335 3.219,2.220 3.395 C 2.039 3.673,2.020 3.828,2.020 5.000 C 2.020 6.259,2.051 6.449,2.301 6.699 C 2.390 6.787,2.525 6.864,2.670 6.909 C 2.887 6.976,3.396 6.980,12.000 6.980 C 20.604 6.980,21.113 6.976,21.330 6.909 C 21.632 6.816,21.816 6.632,21.909 6.330 C 21.970 6.133,21.980 5.941,21.980 5.000 C 21.980 4.059,21.970 3.867,21.909 3.670 C 21.820 3.382,21.632 3.188,21.350 3.092 C 21.151 3.024,20.677 3.020,12.140 3.015 C 7.190 3.012,3.034 3.025,2.904 3.044 M3.481 11.130 C 3.483 15.789,3.542 17.167,3.782 18.112 C 3.994 18.948,4.258 19.426,4.771 19.905 C 5.413 20.502,6.225 20.782,7.740 20.927 C 8.541 21.003,15.459 21.003,16.260 20.927 C 17.772 20.782,18.589 20.502,19.225 19.908 C 19.740 19.427,20.013 18.933,20.217 18.115 C 20.458 17.143,20.518 15.764,20.519 11.090 L 20.520 8.000 16.640 8.000 L 12.760 8.000 12.760 11.500 C 12.760 13.425,12.767 15.000,12.775 15.000 C 12.784 15.000,13.182 14.566,13.661 14.036 C 14.565 13.033,14.696 12.923,14.991 12.921 C 15.254 12.919,15.544 13.098,15.670 13.339 C 15.761 13.515,15.749 13.844,15.645 14.020 C 15.486 14.290,12.451 17.626,12.310 17.685 C 12.143 17.755,11.857 17.755,11.690 17.685 C 11.549 17.626,8.514 14.290,8.355 14.020 C 8.251 13.844,8.239 13.515,8.330 13.339 C 8.456 13.098,8.746 12.919,9.009 12.921 C 9.304 12.923,9.435 13.033,10.339 14.036 C 10.818 14.566,11.216 15.000,11.225 15.000 C 11.233 15.000,11.240 13.425,11.240 11.500 L 11.240 8.000 7.360 8.000 L 3.480 8.000 3.481 11.130 " fill="#1C274C" stroke="none" fill-rule="evenodd"></path></svg>