<svg width="24" height="24" viewBox="0 0 24 24" fill="none" xmlns="http://www.w3.org/2000/svg"><path d="M8.460 2.042 C 5.702 2.140,4.359 2.536,3.415 3.529 C 2.921 4.049,2.591 4.680,2.382 5.500 C 2.276 5.919,2.157 6.600,2.190 6.600 C 2.201 6.600,2.377 6.440,2.581 6.245 C 3.358 5.503,4.381 4.956,5.403 4.738 C 6.445 4.516,8.046 4.465,13.020 4.493 C 16.895 4.515,17.369 4.533,18.279 4.684 C 19.491 4.886,20.536 5.408,21.429 6.257 L 21.826 6.635 21.794 6.387 C 21.516 4.276,20.529 2.988,18.787 2.462 C 17.969 2.215,17.046 2.101,15.393 2.041 C 14.160 1.996,9.738 1.997,8.460 2.042 M7.240 6.042 C 5.407 6.128,4.463 6.488,3.478 7.476 C 2.705 8.251,2.310 9.019,2.144 10.063 C 2.035 10.752,2.001 11.700,2.001 14.000 C 2.001 17.021,2.060 17.882,2.324 18.700 C 2.688 19.827,3.608 20.884,4.703 21.433 C 5.338 21.751,5.973 21.889,7.123 21.959 C 7.980 22.011,16.020 22.011,16.877 21.959 C 18.668 21.850,19.534 21.509,20.524 20.522 C 21.284 19.765,21.692 18.973,21.856 17.937 C 21.965 17.248,21.999 16.300,21.999 14.000 C 21.999 11.034,21.940 10.133,21.692 9.340 C 21.260 7.961,19.982 6.696,18.624 6.302 C 18.139 6.162,17.551 6.084,16.648 6.040 C 15.746 5.996,8.176 5.997,7.240 6.042 M14.840 11.342 C 14.977 11.412,15.146 11.597,15.197 11.733 C 15.256 11.887,15.251 12.137,15.186 12.291 C 15.156 12.362,14.290 13.363,13.261 14.515 C 11.210 16.810,11.225 16.796,10.847 16.744 C 10.748 16.731,10.614 16.686,10.549 16.645 C 10.383 16.540,8.880 14.847,8.814 14.691 C 8.608 14.203,8.967 13.669,9.500 13.669 C 9.611 13.669,9.760 13.699,9.831 13.735 C 9.902 13.772,10.178 14.043,10.444 14.337 L 10.929 14.872 11.952 13.726 C 13.610 11.869,14.003 11.440,14.105 11.373 C 14.308 11.240,14.616 11.227,14.840 11.342 " fill="#1C274C" stroke="none" fill-rule="evenodd"></path></svg>