<svg width="24" height="24" viewBox="0 0 24 24" fill="none" xmlns="http://www.w3.org/2000/svg"><path d="M2.904 3.044 C 2.584 3.091,2.335 3.219,2.220 3.395 C 2.039 3.673,2.020 3.828,2.020 5.000 C 2.020 6.259,2.051 6.449,2.301 6.699 C 2.390 6.787,2.525 6.864,2.670 6.909 C 2.887 6.976,3.396 6.980,12.000 6.980 C 20.604 6.980,21.113 6.976,21.330 6.909 C 21.632 6.816,21.816 6.632,21.909 6.330 C 21.970 6.133,21.980 5.941,21.980 5.000 C 21.980 4.059,21.970 3.867,21.909 3.670 C 21.820 3.382,21.632 3.188,21.350 3.092 C 21.151 3.024,20.677 3.020,12.140 3.015 C 7.190 3.012,3.034 3.025,2.904 3.044 M3.481 11.130 C 3.483 15.789,3.542 17.167,3.782 18.112 C 3.994 18.948,4.258 19.426,4.771 19.905 C 5.413 20.502,6.225 20.782,7.740 20.927 C 8.541 21.003,15.459 21.003,16.260 20.927 C 17.772 20.782,18.589 20.502,19.225 19.908 C 19.740 19.427,20.013 18.933,20.217 18.115 C 20.458 17.143,20.518 15.764,20.519 11.090 L 20.520 8.000 12.000 8.000 L 3.480 8.000 3.481 11.130 M14.840 10.342 C 14.977 10.412,15.146 10.597,15.197 10.733 C 15.256 10.887,15.251 11.137,15.186 11.291 C 15.156 11.362,14.290 12.363,13.261 13.515 C 11.210 15.810,11.225 15.796,10.847 15.744 C 10.748 15.731,10.614 15.686,10.549 15.645 C 10.383 15.540,8.880 13.847,8.814 13.691 C 8.608 13.203,8.967 12.669,9.500 12.669 C 9.611 12.669,9.760 12.699,9.831 12.735 C 9.902 12.772,10.178 13.043,10.444 13.337 L 10.929 13.872 11.952 12.726 C 13.610 10.869,14.003 10.440,14.105 10.373 C 14.308 10.240,14.616 10.227,14.840 10.342 " fill="#1C274C" stroke="none" fill-rule="evenodd"></path></svg>