<svg width="24" height="24" viewBox="0 0 24 24" fill="none" xmlns="http://www.w3.org/2000/svg"><path d="M8.540 3.546 C 7.825 3.610,7.285 3.735,6.928 3.918 C 6.391 4.194,5.973 4.669,5.781 5.222 C 5.579 5.802,5.554 6.065,5.533 7.800 L 5.513 9.420 5.777 9.617 C 6.352 10.048,6.449 10.218,7.241 12.174 L 7.900 13.800 11.988 13.800 C 16.062 13.800,16.077 13.800,16.121 13.718 C 16.145 13.674,16.444 12.949,16.785 12.108 C 17.126 11.268,17.447 10.507,17.499 10.419 C 17.662 10.139,17.944 9.827,18.220 9.620 L 18.487 9.420 18.467 7.800 C 18.446 6.067,18.424 5.835,18.222 5.238 C 17.979 4.520,17.382 3.960,16.625 3.740 C 15.975 3.551,15.941 3.549,12.220 3.540 C 10.284 3.535,8.628 3.538,8.540 3.546 M3.425 10.061 C 2.443 10.310,1.820 11.225,2.051 12.080 C 2.176 12.542,3.491 15.993,3.652 16.280 C 3.888 16.702,4.392 17.197,4.870 17.477 L 5.240 17.693 5.240 18.877 C 5.240 19.617,5.257 20.120,5.285 20.219 C 5.344 20.432,5.578 20.660,5.798 20.719 C 6.198 20.827,6.610 20.599,6.718 20.209 C 6.742 20.124,6.760 19.615,6.760 19.030 L 6.760 18.000 12.000 18.000 L 17.240 18.000 17.240 19.030 C 17.240 19.615,17.258 20.124,17.282 20.209 C 17.390 20.599,17.802 20.827,18.202 20.719 C 18.422 20.660,18.656 20.432,18.715 20.219 C 18.743 20.120,18.760 19.617,18.760 18.877 L 18.760 17.693 19.114 17.484 C 19.697 17.138,20.173 16.652,20.433 16.135 C 20.539 15.925,21.872 12.367,21.944 12.100 C 22.101 11.527,21.870 10.855,21.386 10.473 C 20.521 9.789,19.292 9.866,18.573 10.649 C 18.356 10.886,18.382 10.830,17.699 12.520 C 17.375 13.323,17.075 14.048,17.033 14.132 C 16.913 14.371,16.697 14.582,16.470 14.685 L 16.260 14.780 12.020 14.780 C 7.957 14.780,7.772 14.777,7.584 14.704 C 7.335 14.608,7.100 14.396,6.982 14.163 C 6.932 14.062,6.625 13.323,6.300 12.520 C 5.976 11.717,5.684 11.008,5.652 10.945 C 5.491 10.630,5.060 10.286,4.620 10.122 C 4.308 10.006,3.754 9.978,3.425 10.061 " fill="#1C274C" stroke="none" fill-rule="evenodd"></path></svg>