<svg width="24" height="24" viewBox="0 0 24 24" fill="none" xmlns="http://www.w3.org/2000/svg"><path d="M9.699 2.043 C 8.688 2.105,8.009 2.314,7.453 2.735 C 6.990 3.086,6.540 3.660,6.338 4.158 C 6.101 4.742,6.001 5.755,6.000 7.595 L 6.000 8.649 6.314 8.981 C 6.666 9.353,6.933 9.816,7.085 10.322 C 7.172 10.611,7.176 10.688,7.198 12.780 C 7.222 15.169,7.217 15.118,7.480 15.250 C 7.611 15.315,7.910 15.320,12.000 15.320 C 16.090 15.320,16.389 15.315,16.520 15.250 C 16.783 15.118,16.778 15.169,16.802 12.780 C 16.828 10.335,16.816 10.433,17.161 9.732 C 17.320 9.408,17.427 9.255,17.681 8.987 L 18.000 8.649 18.000 7.595 C 17.999 5.357,17.877 4.471,17.475 3.790 C 16.966 2.925,16.180 2.349,15.255 2.162 C 15.032 2.117,14.555 2.062,14.195 2.041 C 13.441 1.995,10.471 1.997,9.699 2.043 M3.660 9.056 C 3.369 9.127,3.049 9.285,2.811 9.477 C 2.539 9.696,2.224 10.170,2.110 10.533 L 2.020 10.820 2.021 14.240 L 2.021 17.660 2.129 18.051 C 2.356 18.879,2.814 19.614,3.427 20.133 L 3.760 20.415 3.760 21.415 C 3.760 22.352,3.765 22.426,3.845 22.590 C 3.971 22.850,4.189 22.980,4.500 22.980 C 4.811 22.980,5.029 22.850,5.155 22.590 C 5.232 22.431,5.240 22.347,5.240 21.697 L 5.240 20.980 12.000 20.980 L 18.760 20.980 18.760 21.697 C 18.760 22.347,18.768 22.431,18.845 22.590 C 18.971 22.850,19.189 22.980,19.500 22.980 C 19.811 22.980,20.029 22.850,20.155 22.590 C 20.235 22.426,20.240 22.352,20.240 21.415 L 20.240 20.415 20.573 20.133 C 21.180 19.618,21.646 18.873,21.870 18.057 L 21.979 17.660 21.979 14.240 L 21.980 10.820 21.890 10.533 C 21.776 10.170,21.461 9.696,21.189 9.477 C 20.944 9.280,20.586 9.108,20.288 9.045 C 19.430 8.863,18.501 9.323,18.073 10.140 C 17.803 10.656,17.800 10.687,17.799 12.866 C 17.797 15.536,17.761 15.842,17.424 16.099 C 17.129 16.325,17.247 16.320,12.000 16.320 C 6.753 16.320,6.871 16.325,6.576 16.099 C 6.239 15.843,6.203 15.536,6.201 12.880 C 6.199 10.712,6.192 10.645,5.929 10.144 C 5.490 9.307,4.526 8.844,3.660 9.056 " fill="#1C274C" stroke="none" fill-rule="evenodd"></path></svg>