<svg width="24" height="24" viewBox="0 0 24 24" fill="none" xmlns="http://www.w3.org/2000/svg"><path d="M5.811 5.278 C 5.415 5.375,5.173 5.797,5.280 6.204 C 5.322 6.364,5.644 6.699,8.883 9.940 L 12.440 13.500 10.417 15.520 C 9.305 16.631,8.371 17.586,8.341 17.641 C 8.124 18.049,8.348 18.595,8.781 18.715 C 9.005 18.778,17.995 18.778,18.219 18.715 C 18.427 18.658,18.660 18.422,18.717 18.212 C 18.749 18.094,18.758 16.720,18.751 13.413 C 18.740 8.826,18.739 8.779,18.658 8.641 C 18.613 8.564,18.501 8.448,18.409 8.384 C 18.194 8.233,17.848 8.218,17.636 8.352 C 17.561 8.398,16.600 9.337,15.500 10.438 L 13.500 12.440 9.960 8.904 C 8.013 6.960,6.384 5.351,6.340 5.329 C 6.217 5.268,5.955 5.243,5.811 5.278 " fill="#1C274C" stroke="none" fill-rule="evenodd"></path></svg>