<svg width="24" height="24" viewBox="0 0 24 24" fill="none" xmlns="http://www.w3.org/2000/svg"><path d="M11.811 3.278 C 11.639 3.320,11.417 3.493,11.330 3.652 C 11.265 3.772,11.259 4.094,11.249 8.509 L 11.239 13.237 8.506 13.249 L 5.774 13.260 5.605 13.372 C 5.312 13.566,5.193 13.871,5.280 14.205 C 5.322 14.363,5.625 14.679,8.433 17.493 C 10.142 19.205,11.594 20.635,11.660 20.671 C 11.730 20.709,11.872 20.736,12.000 20.736 C 12.128 20.736,12.270 20.709,12.340 20.671 C 12.406 20.635,13.858 19.205,15.567 17.493 C 18.375 14.679,18.678 14.363,18.720 14.205 C 18.807 13.871,18.688 13.566,18.395 13.372 L 18.226 13.260 15.494 13.249 L 12.761 13.237 12.751 8.509 C 12.740 3.825,12.739 3.779,12.658 3.641 C 12.494 3.361,12.122 3.202,11.811 3.278 " fill="#1C274C" stroke="none" fill-rule="evenodd"></path></svg>