<svg width="24" height="24" viewBox="0 0 24 24" fill="none" xmlns="http://www.w3.org/2000/svg"><path d="M5.811 5.279 C 5.640 5.320,5.417 5.493,5.330 5.652 C 5.265 5.771,5.259 6.089,5.249 10.413 C 5.242 13.720,5.251 15.094,5.283 15.212 C 5.401 15.651,5.948 15.878,6.359 15.659 C 6.414 15.629,7.369 14.695,8.480 13.583 L 10.500 11.560 14.060 15.117 C 17.286 18.340,17.636 18.678,17.795 18.720 C 18.366 18.870,18.870 18.366,18.720 17.795 C 18.678 17.636,18.340 17.286,15.117 14.060 L 11.560 10.500 13.583 8.480 C 14.695 7.369,15.635 6.406,15.671 6.340 C 15.708 6.272,15.736 6.125,15.737 6.000 C 15.739 5.727,15.643 5.548,15.405 5.381 L 15.233 5.260 10.587 5.254 C 8.031 5.250,5.882 5.261,5.811 5.279 " fill="#1C274C" stroke="none" fill-rule="evenodd"></path></svg>