<svg width="24" height="24" viewBox="0 0 24 24" fill="none" xmlns="http://www.w3.org/2000/svg"><path d="M11.815 3.277 C 11.746 3.294,11.638 3.346,11.575 3.391 C 11.512 3.437,10.080 4.857,8.393 6.547 C 5.608 9.337,5.322 9.636,5.280 9.796 C 5.174 10.200,5.401 10.610,5.791 10.718 C 5.887 10.745,6.891 10.760,8.590 10.760 L 11.240 10.760 11.240 15.410 C 11.240 18.679,11.254 20.107,11.285 20.219 C 11.344 20.432,11.578 20.660,11.798 20.719 C 12.198 20.827,12.610 20.599,12.718 20.209 C 12.746 20.110,12.760 18.485,12.760 15.410 L 12.760 10.760 15.410 10.760 C 17.109 10.760,18.113 10.745,18.209 10.718 C 18.599 10.610,18.826 10.200,18.720 9.796 C 18.678 9.636,18.391 9.336,15.587 6.528 C 13.889 4.828,12.446 3.403,12.380 3.362 C 12.235 3.273,11.985 3.235,11.815 3.277 " fill="#1C274C" stroke="none" fill-rule="evenodd"></path></svg>