<svg width="24" height="24" viewBox="0 0 24 24" fill="none" xmlns="http://www.w3.org/2000/svg"><path d="M11.680 3.824 C 11.516 3.894,6.582 8.801,6.399 9.076 C 6.185 9.397,6.202 9.703,6.451 9.987 C 6.670 10.235,6.998 10.309,7.311 10.178 C 7.413 10.136,8.060 9.517,9.350 8.229 L 11.240 6.342 11.240 10.606 C 11.240 15.231,11.243 15.166,11.017 15.912 C 10.876 16.376,10.563 16.969,10.255 17.354 C 9.581 18.197,8.602 18.658,7.315 18.740 C 7.109 18.753,6.881 18.773,6.809 18.784 C 6.547 18.824,6.242 19.209,6.242 19.500 C 6.242 19.759,6.484 20.104,6.733 20.197 C 7.029 20.310,8.147 20.203,8.850 19.996 C 10.731 19.442,12.034 18.021,12.563 15.948 C 12.753 15.206,12.758 15.045,12.759 10.561 L 12.760 6.342 14.650 8.229 C 15.940 9.517,16.587 10.136,16.689 10.178 C 17.002 10.309,17.330 10.235,17.549 9.987 C 17.798 9.703,17.815 9.397,17.601 9.076 C 17.405 8.782,12.483 3.893,12.311 3.822 C 12.125 3.744,11.862 3.745,11.680 3.824 " fill="#1C274C" stroke="none" fill-rule="evenodd"></path></svg>