<svg width="24" height="24" viewBox="0 0 24 24" fill="none" xmlns="http://www.w3.org/2000/svg"><path d="M6.700 3.814 C 6.461 3.926,6.240 4.257,6.240 4.500 C 6.240 4.757,6.501 5.123,6.737 5.197 C 6.805 5.218,7.022 5.246,7.220 5.260 C 8.081 5.319,8.590 5.446,9.156 5.744 C 10.219 6.305,10.938 7.383,11.179 8.775 C 11.231 9.079,11.240 9.745,11.240 13.394 L 11.240 17.658 9.350 15.771 C 8.060 14.483,7.413 13.864,7.311 13.822 C 6.998 13.691,6.670 13.765,6.451 14.013 C 6.202 14.297,6.185 14.603,6.399 14.924 C 6.595 15.218,11.517 20.107,11.689 20.178 C 11.878 20.257,12.122 20.257,12.311 20.178 C 12.483 20.107,17.405 15.218,17.601 14.924 C 17.815 14.603,17.798 14.297,17.549 14.013 C 17.330 13.765,17.002 13.691,16.689 13.822 C 16.587 13.864,15.940 14.483,14.650 15.771 L 12.760 17.658 12.759 13.439 C 12.758 8.955,12.753 8.794,12.563 8.052 C 11.974 5.746,10.421 4.246,8.220 3.859 C 7.697 3.767,6.853 3.742,6.700 3.814 " fill="#1C274C" stroke="none" fill-rule="evenodd"></path></svg>