<svg width="24" height="24" viewBox="0 0 24 24" fill="none" xmlns="http://www.w3.org/2000/svg"><path d="M16.300 3.786 C 15.817 3.845,15.319 3.948,14.969 4.063 C 12.967 4.718,11.607 6.472,11.298 8.799 C 11.253 9.137,11.241 10.052,11.241 13.439 L 11.240 17.658 9.350 15.771 C 8.060 14.483,7.413 13.864,7.311 13.822 C 6.998 13.691,6.670 13.765,6.451 14.013 C 6.202 14.297,6.185 14.603,6.399 14.924 C 6.595 15.218,11.517 20.107,11.689 20.178 C 11.878 20.257,12.122 20.257,12.311 20.178 C 12.483 20.107,17.405 15.218,17.601 14.924 C 17.815 14.603,17.798 14.297,17.549 14.013 C 17.330 13.765,17.002 13.691,16.689 13.822 C 16.587 13.864,15.940 14.483,14.650 15.771 L 12.760 17.658 12.760 13.394 C 12.760 8.769,12.757 8.834,12.983 8.088 C 13.206 7.352,13.733 6.540,14.256 6.123 C 14.926 5.590,15.669 5.336,16.780 5.260 C 16.978 5.246,17.195 5.218,17.263 5.197 C 17.503 5.122,17.761 4.755,17.759 4.491 C 17.757 4.239,17.512 3.895,17.267 3.803 C 17.163 3.763,16.575 3.753,16.300 3.786 " fill="#1C274C" stroke="none" fill-rule="evenodd"></path></svg>