<svg width="24" height="24" viewBox="0 0 24 24" fill="none" xmlns="http://www.w3.org/2000/svg"><path d="M11.680 3.824 C 11.516 3.894,6.582 8.801,6.399 9.076 C 6.185 9.397,6.202 9.703,6.451 9.987 C 6.670 10.235,6.998 10.309,7.311 10.178 C 7.413 10.136,8.060 9.517,9.350 8.229 L 11.240 6.342 11.241 10.561 C 11.242 15.045,11.247 15.206,11.437 15.948 C 12.097 18.533,13.974 20.099,16.564 20.228 C 16.819 20.241,17.094 20.239,17.175 20.224 C 17.456 20.171,17.758 19.797,17.758 19.500 C 17.758 19.209,17.453 18.824,17.191 18.784 C 17.119 18.773,16.891 18.753,16.685 18.740 C 15.398 18.658,14.419 18.197,13.745 17.354 C 13.437 16.969,13.124 16.376,12.983 15.912 C 12.757 15.166,12.760 15.231,12.760 10.606 L 12.760 6.342 14.650 8.229 C 15.940 9.517,16.587 10.136,16.689 10.178 C 17.002 10.309,17.330 10.235,17.549 9.987 C 17.798 9.703,17.815 9.397,17.601 9.076 C 17.405 8.782,12.483 3.893,12.311 3.822 C 12.125 3.744,11.862 3.745,11.680 3.824 " fill="#1C274C" stroke="none" fill-rule="evenodd"></path></svg>