<svg width="24" height="24" viewBox="0 0 24 24" fill="none" xmlns="http://www.w3.org/2000/svg"><path d="M13.811 5.278 C 13.639 5.320,13.417 5.493,13.330 5.652 C 13.266 5.770,13.259 5.999,13.249 8.509 L 13.238 11.238 8.506 11.249 L 3.774 11.260 3.606 11.372 C 3.311 11.566,3.192 11.873,3.281 12.204 C 3.340 12.422,3.569 12.657,3.781 12.715 C 3.893 12.746,5.321 12.760,8.590 12.760 L 13.240 12.760 13.240 15.410 C 13.240 17.109,13.255 18.113,13.282 18.209 C 13.390 18.599,13.800 18.826,14.204 18.720 C 14.364 18.678,14.666 18.389,17.493 15.567 C 19.205 13.858,20.630 12.414,20.659 12.359 C 20.747 12.194,20.770 11.985,20.720 11.796 C 20.678 11.636,20.391 11.336,17.587 8.528 C 15.889 6.828,14.446 5.403,14.380 5.362 C 14.234 5.272,13.985 5.235,13.811 5.278 " fill="#1C274C" stroke="none" fill-rule="evenodd"></path></svg>