<svg width="24" height="24" viewBox="0 0 24 24" fill="none" xmlns="http://www.w3.org/2000/svg"><path d="M8.811 5.279 C 8.639 5.320,8.416 5.494,8.332 5.652 C 8.244 5.817,8.243 6.181,8.329 6.340 C 8.365 6.406,9.305 7.369,10.417 8.480 L 12.440 10.500 8.883 14.060 C 5.660 17.286,5.322 17.636,5.280 17.795 C 5.130 18.366,5.634 18.870,6.205 18.720 C 6.364 18.678,6.714 18.340,9.940 15.117 L 13.500 11.560 15.520 13.583 C 16.631 14.695,17.586 15.629,17.641 15.659 C 18.052 15.878,18.599 15.651,18.717 15.212 C 18.749 15.094,18.758 13.720,18.751 10.413 C 18.740 5.826,18.739 5.779,18.658 5.641 C 18.613 5.564,18.499 5.447,18.405 5.381 L 18.233 5.260 13.587 5.254 C 11.031 5.250,8.882 5.261,8.811 5.279 " fill="#1C274C" stroke="none" fill-rule="evenodd"></path></svg>