<svg width="24" height="24" viewBox="0 0 24 24" fill="none" xmlns="http://www.w3.org/2000/svg"><path d="M9.815 5.277 C 9.746 5.294,9.638 5.346,9.575 5.391 C 9.512 5.437,8.080 6.857,6.393 8.547 C 3.608 11.337,3.322 11.636,3.280 11.796 C 3.230 11.985,3.253 12.194,3.341 12.359 C 3.370 12.414,4.795 13.858,6.507 15.567 C 9.334 18.389,9.636 18.678,9.796 18.720 C 10.200 18.826,10.610 18.599,10.718 18.209 C 10.745 18.113,10.760 17.109,10.760 15.410 L 10.760 12.760 15.410 12.760 C 18.679 12.760,20.107 12.746,20.219 12.715 C 20.431 12.657,20.660 12.422,20.719 12.204 C 20.808 11.873,20.689 11.566,20.394 11.372 L 20.226 11.260 15.494 11.249 L 10.762 11.238 10.751 8.509 C 10.740 5.841,10.738 5.777,10.658 5.641 C 10.495 5.362,10.122 5.202,9.815 5.277 " fill="#1C274C" stroke="none" fill-rule="evenodd"></path></svg>