<svg width="24" height="24" viewBox="0 0 24 24" fill="none" xmlns="http://www.w3.org/2000/svg"><path d="M17.900 5.259 C 17.878 5.267,17.806 5.285,17.740 5.299 C 17.650 5.319,16.745 6.200,14.060 8.882 L 10.499 12.440 8.500 10.438 C 7.400 9.337,6.439 8.398,6.364 8.352 C 6.152 8.218,5.806 8.233,5.591 8.384 C 5.499 8.448,5.387 8.564,5.342 8.641 C 5.261 8.779,5.260 8.826,5.249 13.413 C 5.242 16.720,5.251 18.094,5.283 18.212 C 5.340 18.422,5.573 18.658,5.781 18.715 C 6.005 18.778,14.995 18.778,15.219 18.715 C 15.652 18.595,15.876 18.049,15.659 17.641 C 15.629 17.586,14.695 16.631,13.583 15.520 L 11.560 13.500 15.117 9.940 C 18.340 6.714,18.678 6.364,18.720 6.205 C 18.806 5.878,18.687 5.564,18.412 5.385 C 18.271 5.294,17.993 5.226,17.900 5.259 " fill="#1C274C" stroke="none" fill-rule="evenodd"></path></svg>