<svg width="24" height="24" viewBox="0 0 24 24" fill="none" xmlns="http://www.w3.org/2000/svg"><path d="M11.120 2.042 C 9.365 2.202,7.708 2.806,6.280 3.806 C 3.583 5.694,2.001 8.736,2.000 12.035 L 2.000 12.530 2.110 12.506 C 2.754 12.365,3.052 12.316,3.464 12.280 C 5.894 12.070,8.318 13.260,9.650 15.320 C 10.842 17.162,11.072 19.449,10.270 21.491 C 10.203 21.662,10.157 21.810,10.167 21.821 C 10.220 21.873,11.058 21.965,11.680 21.987 C 13.369 22.045,14.959 21.696,16.480 20.934 C 18.821 19.761,20.625 17.696,21.457 15.238 C 21.557 14.940,21.640 14.677,21.640 14.654 C 21.640 14.631,21.537 14.590,21.410 14.561 C 20.782 14.421,19.867 14.021,19.280 13.630 C 17.742 12.605,16.676 10.982,16.357 9.177 C 16.240 8.516,16.239 7.490,16.354 6.837 C 16.457 6.256,16.693 5.532,16.940 5.039 C 17.136 4.647,17.508 4.046,17.649 3.892 L 17.730 3.805 17.395 3.586 C 15.597 2.415,13.281 1.845,11.120 2.042 M18.653 5.070 C 18.260 5.668,18.005 6.274,17.853 6.969 C 17.752 7.434,17.752 8.566,17.853 9.031 C 18.207 10.650,19.225 11.974,20.674 12.698 C 20.966 12.844,21.736 13.120,21.851 13.120 C 21.944 13.120,21.958 13.041,21.985 12.367 C 22.092 9.701,21.106 7.094,19.242 5.110 C 19.061 4.918,18.900 4.760,18.884 4.760 C 18.869 4.760,18.764 4.899,18.653 5.070 M11.020 6.060 C 12.202 6.306,13.062 7.434,12.987 8.640 C 12.890 10.174,11.479 11.254,9.980 10.940 C 8.853 10.704,8.001 9.654,8.001 8.500 C 8.001 6.930,9.475 5.738,11.020 6.060 M3.400 13.783 C 3.345 13.793,3.192 13.820,3.060 13.842 C 2.928 13.865,2.688 13.922,2.526 13.969 L 2.232 14.054 2.258 14.217 C 2.302 14.501,2.518 15.204,2.706 15.680 C 3.552 17.821,5.138 19.621,7.179 20.756 C 7.609 20.995,8.514 21.400,8.617 21.400 C 8.646 21.400,8.724 21.279,8.790 21.130 C 9.326 19.930,9.382 18.467,8.938 17.240 C 8.480 15.973,7.531 14.902,6.340 14.309 C 5.607 13.945,5.010 13.801,4.140 13.781 C 3.788 13.772,3.455 13.774,3.400 13.783 M15.340 15.066 C 15.709 15.192,16.000 15.604,16.000 16.000 C 16.000 16.527,15.527 17.000,15.000 17.000 C 14.758 17.000,14.479 16.881,14.299 16.701 C 13.907 16.309,13.908 15.690,14.300 15.298 C 14.577 15.020,14.957 14.936,15.340 15.066 " fill="#1C274C" stroke="none" fill-rule="evenodd"></path></svg>