<svg width="24" height="24" viewBox="0 0 24 24" fill="none" xmlns="http://www.w3.org/2000/svg"><path d="M5.184 2.824 C 4.780 2.897,4.374 3.039,4.087 3.207 C 3.796 3.377,3.377 3.796,3.207 4.087 C 2.471 5.342,2.652 7.412,3.706 9.804 C 3.848 10.126,3.986 10.419,4.012 10.453 C 4.053 10.507,4.102 10.457,4.349 10.108 C 5.853 7.980,8.038 5.819,10.354 4.169 L 10.528 4.045 10.294 3.927 C 9.252 3.401,7.855 2.951,6.859 2.821 C 6.293 2.746,5.607 2.748,5.184 2.824 M17.119 2.820 C 16.318 2.930,15.305 3.226,14.381 3.621 C 13.889 3.831,13.465 4.038,13.486 4.059 C 13.494 4.066,13.707 4.220,13.960 4.402 C 15.534 5.530,17.213 7.098,18.519 8.660 C 18.920 9.140,19.669 10.115,19.887 10.440 L 19.953 10.540 20.154 10.118 C 20.709 8.949,21.076 7.769,21.202 6.749 C 21.270 6.200,21.232 5.309,21.125 4.900 C 20.987 4.376,20.754 3.953,20.425 3.624 C 20.090 3.290,19.804 3.113,19.350 2.958 C 18.766 2.758,17.944 2.708,17.119 2.820 M11.480 5.227 C 8.998 6.931,6.894 9.037,5.223 11.489 L 4.876 11.998 5.125 12.369 C 6.821 14.897,9.102 17.179,11.630 18.874 L 12.000 19.122 12.370 18.874 C 14.896 17.181,17.181 14.895,18.875 12.369 L 19.124 11.998 18.777 11.489 C 17.102 9.032,14.969 6.898,12.514 5.225 C 12.235 5.035,12.001 4.881,11.994 4.882 C 11.986 4.882,11.755 5.038,11.480 5.227 M12.700 9.606 C 13.100 9.721,13.455 9.932,13.761 10.239 C 14.175 10.652,14.402 11.120,14.476 11.710 C 14.604 12.726,14.052 13.761,13.140 14.219 C 12.745 14.417,12.448 14.485,11.980 14.485 C 11.296 14.486,10.726 14.249,10.239 13.761 C 9.746 13.269,9.514 12.705,9.514 12.000 C 9.514 11.294,9.750 10.720,10.239 10.237 C 10.906 9.578,11.800 9.349,12.700 9.606 M3.927 13.706 C 3.541 14.471,3.127 15.627,2.945 16.446 C 2.667 17.703,2.713 18.863,3.073 19.649 C 3.804 21.243,5.795 21.661,8.514 20.793 C 8.999 20.637,9.912 20.267,10.330 20.055 L 10.528 19.954 10.354 19.830 C 7.916 18.082,5.856 16.022,4.169 13.646 L 4.045 13.472 3.927 13.706 M19.651 13.891 C 18.931 14.911,17.992 16.001,16.915 17.068 C 15.844 18.128,14.926 18.914,13.912 19.635 C 13.546 19.895,13.492 19.947,13.546 19.988 C 13.687 20.094,14.856 20.582,15.400 20.761 C 16.495 21.122,17.384 21.268,18.240 21.227 C 19.558 21.164,20.437 20.659,20.901 19.699 C 21.480 18.502,21.301 16.575,20.414 14.469 C 20.209 13.983,19.972 13.479,19.949 13.481 C 19.944 13.482,19.810 13.666,19.651 13.891 " fill="#1C274C" stroke="none" fill-rule="evenodd"></path></svg>