<svg width="24" height="24" viewBox="0 0 24 24" fill="none" xmlns="http://www.w3.org/2000/svg"><path d="M8.419 2.041 C 5.785 2.145,4.480 2.507,3.549 3.393 C 2.551 4.342,2.166 5.587,2.041 8.260 C 1.988 9.399,1.988 14.601,2.041 15.740 C 2.160 18.285,2.507 19.501,3.379 20.433 C 4.245 21.360,5.318 21.742,7.580 21.927 C 8.488 22.002,15.512 22.002,16.420 21.927 C 18.857 21.727,19.992 21.275,20.860 20.157 C 21.474 19.368,21.771 18.329,21.927 16.420 C 22.002 15.512,22.002 8.488,21.927 7.580 C 21.740 5.297,21.356 4.232,20.407 3.355 C 19.572 2.585,18.492 2.242,16.380 2.078 C 15.684 2.023,9.573 1.995,8.419 2.041 M8.840 7.342 C 9.131 7.491,9.090 7.379,10.447 11.708 C 11.329 14.519,11.726 15.842,11.731 15.981 C 11.739 16.241,11.626 16.463,11.404 16.619 C 11.263 16.719,11.197 16.738,11.008 16.737 C 10.871 16.736,10.728 16.708,10.649 16.667 C 10.403 16.536,10.319 16.353,9.940 15.126 L 9.580 13.960 8.500 13.960 L 7.420 13.960 7.083 15.050 C 6.898 15.650,6.711 16.217,6.668 16.310 C 6.334 17.046,5.248 16.789,5.270 15.980 C 5.274 15.841,5.663 14.546,6.553 11.708 C 7.896 7.422,7.869 7.497,8.140 7.350 C 8.344 7.238,8.631 7.235,8.840 7.342 M16.670 7.335 C 17.638 7.584,18.437 8.391,18.666 9.350 C 18.751 9.708,18.749 10.344,18.661 10.680 C 18.446 11.504,17.851 12.200,17.087 12.523 C 16.940 12.585,16.820 12.650,16.820 12.669 C 16.820 12.688,17.250 13.391,17.776 14.233 C 18.699 15.712,18.731 15.770,18.733 15.972 C 18.736 16.238,18.632 16.457,18.432 16.601 C 18.157 16.800,17.779 16.792,17.532 16.583 C 17.470 16.531,16.898 15.651,16.260 14.626 L 15.100 12.764 14.932 12.762 L 14.764 12.760 14.752 14.497 L 14.740 16.233 14.619 16.405 C 14.453 16.642,14.273 16.739,14.000 16.739 C 13.727 16.739,13.547 16.641,13.381 16.405 L 13.260 16.233 13.260 12.007 L 13.260 7.780 13.353 7.631 C 13.461 7.457,13.637 7.321,13.815 7.276 C 13.884 7.258,14.498 7.250,15.180 7.257 C 16.156 7.268,16.473 7.284,16.670 7.335 M14.760 9.998 L 14.760 11.240 15.498 11.240 C 16.386 11.240,16.562 11.194,16.878 10.878 C 17.481 10.275,17.309 9.257,16.539 8.878 C 16.351 8.786,16.295 8.779,15.550 8.768 L 14.760 8.755 14.760 9.998 M8.426 10.747 C 8.218 11.395,7.920 12.369,7.920 12.402 C 7.920 12.424,8.158 12.440,8.500 12.440 C 8.821 12.440,9.080 12.424,9.080 12.404 C 9.080 12.354,8.529 10.596,8.507 10.573 C 8.496 10.563,8.460 10.641,8.426 10.747 " fill="#1C274C" stroke="none" fill-rule="evenodd"></path></svg>