<svg width="24" height="24" viewBox="0 0 24 24" fill="none" xmlns="http://www.w3.org/2000/svg"><path d="M10.540 1.027 C 9.972 1.111,9.312 1.358,8.893 1.643 C 8.615 1.833,8.140 2.300,7.935 2.586 C 7.711 2.899,7.460 3.433,7.381 3.764 C 7.348 3.905,7.309 4.194,7.295 4.407 L 7.268 4.793 7.004 4.881 C 6.637 5.003,6.005 5.323,5.600 5.592 C 5.144 5.895,4.324 6.714,4.025 7.167 C 3.590 7.828,3.286 8.543,3.114 9.312 C 3.035 9.665,3.026 9.843,3.011 11.300 L 2.994 12.900 3.207 12.966 C 3.324 13.002,3.645 13.125,3.920 13.239 C 5.832 14.033,8.210 14.590,10.420 14.761 C 11.140 14.817,12.860 14.817,13.580 14.761 C 15.790 14.590,18.168 14.033,20.080 13.239 C 20.355 13.125,20.676 13.002,20.793 12.966 L 21.006 12.900 20.989 11.300 C 20.974 9.843,20.965 9.665,20.886 9.312 C 20.630 8.168,20.124 7.217,19.333 6.399 C 18.883 5.933,18.455 5.599,17.945 5.317 C 17.610 5.131,17.082 4.897,16.856 4.834 L 16.732 4.799 16.705 4.410 C 16.670 3.909,16.589 3.581,16.396 3.166 C 16.024 2.363,15.371 1.720,14.535 1.334 C 13.921 1.050,13.749 1.028,12.120 1.018 C 11.317 1.013,10.606 1.017,10.540 1.027 M13.305 2.523 C 13.709 2.579,14.039 2.715,14.360 2.957 C 14.787 3.279,15.125 3.816,15.183 4.265 L 15.209 4.470 14.880 4.418 C 13.921 4.264,13.297 4.222,12.000 4.222 C 10.703 4.222,10.079 4.264,9.120 4.418 L 8.791 4.470 8.817 4.265 C 8.850 4.015,9.031 3.613,9.231 3.349 C 9.542 2.939,10.132 2.598,10.660 2.524 C 11.015 2.474,12.945 2.473,13.305 2.523 M14.209 11.962 C 14.672 12.091,14.877 12.625,14.626 13.053 C 14.552 13.180,14.466 13.260,14.331 13.326 L 14.140 13.420 11.980 13.420 L 9.820 13.420 9.646 13.320 C 9.212 13.072,9.134 12.462,9.492 12.127 C 9.706 11.928,9.753 11.924,11.980 11.922 C 13.293 11.921,14.115 11.936,14.209 11.962 M3.000 15.391 C 3.000 16.359,3.051 16.851,3.199 17.330 C 3.544 18.441,4.335 19.402,5.360 19.954 C 5.953 20.274,6.443 20.412,7.800 20.640 C 10.574 21.106,13.426 21.106,16.200 20.640 C 17.557 20.412,18.047 20.274,18.640 19.954 C 19.689 19.389,20.488 18.401,20.819 17.260 C 20.960 16.772,21.006 16.269,20.992 15.335 L 20.980 14.491 20.340 14.742 C 19.988 14.880,19.373 15.097,18.972 15.225 L 18.245 15.457 18.232 16.182 C 18.220 16.878,18.216 16.912,18.120 17.054 C 18.006 17.222,17.688 17.400,17.500 17.400 C 17.312 17.400,16.994 17.222,16.880 17.054 C 16.788 16.918,16.779 16.865,16.767 16.368 L 16.754 15.830 16.607 15.852 C 16.526 15.864,16.199 15.920,15.880 15.977 C 13.922 16.325,11.551 16.401,9.561 16.179 C 7.315 15.928,5.329 15.424,3.210 14.566 L 3.000 14.481 3.000 15.391 " fill="#1C274C" stroke="none" fill-rule="evenodd"></path></svg>