<svg width="24" height="24" viewBox="0 0 24 24" fill="none" xmlns="http://www.w3.org/2000/svg"><path d="M9.100 4.025 C 7.453 4.106,6.620 4.452,5.817 5.390 C 5.671 5.560,5.423 5.880,5.266 6.100 C 4.922 6.583,3.083 9.437,2.701 10.080 C 1.768 11.650,1.768 12.351,2.701 13.920 C 3.088 14.571,4.925 17.421,5.266 17.900 C 6.250 19.280,6.968 19.749,8.374 19.928 C 8.966 20.004,16.865 20.002,17.660 19.927 C 19.564 19.745,20.536 19.311,21.194 18.349 C 21.641 17.696,21.874 16.720,21.959 15.140 C 22.012 14.152,22.012 9.839,21.958 8.860 C 21.838 6.653,21.438 5.597,20.456 4.896 C 19.803 4.429,19.041 4.211,17.600 4.075 C 17.173 4.035,9.785 3.992,9.100 4.025 M10.791 8.821 C 10.889 8.862,11.292 9.234,11.970 9.911 L 13.000 10.939 14.030 9.911 C 15.093 8.850,15.210 8.759,15.509 8.761 C 15.682 8.762,15.948 8.873,16.048 8.986 C 16.151 9.102,16.240 9.340,16.240 9.500 C 16.240 9.790,16.143 9.914,15.089 10.970 L 14.061 12.000 15.089 13.030 C 16.143 14.086,16.240 14.210,16.240 14.500 C 16.240 14.661,16.151 14.900,16.048 15.013 C 15.857 15.225,15.443 15.303,15.188 15.176 C 15.118 15.141,14.597 14.651,14.030 14.086 L 13.000 13.061 11.970 14.086 C 11.403 14.651,10.882 15.141,10.812 15.176 C 10.557 15.303,10.143 15.225,9.952 15.013 C 9.849 14.900,9.760 14.661,9.760 14.500 C 9.760 14.210,9.857 14.086,10.911 13.030 L 11.939 12.000 10.911 10.970 C 9.857 9.914,9.760 9.790,9.760 9.500 C 9.760 9.340,9.849 9.102,9.952 8.986 C 10.131 8.783,10.516 8.708,10.791 8.821 " fill="#1C274C" stroke="none" fill-rule="evenodd"></path></svg>