<svg width="24" height="24" viewBox="0 0 24 24" fill="none" xmlns="http://www.w3.org/2000/svg"><path d="M11.120 2.039 C 9.316 2.220,7.707 2.807,6.280 3.806 C 2.738 6.286,1.178 10.759,2.422 14.865 C 2.918 16.499,3.727 17.848,4.939 19.062 C 5.925 20.049,7.036 20.787,8.272 21.278 C 11.634 22.610,15.313 22.080,18.200 19.845 C 18.637 19.507,19.507 18.637,19.845 18.200 C 22.091 15.298,22.618 11.564,21.254 8.220 C 20.058 5.287,17.480 3.053,14.430 2.303 C 13.446 2.062,12.028 1.948,11.120 2.039 M12.388 4.367 C 12.628 4.526,12.733 4.721,12.733 5.007 C 12.733 5.203,12.714 5.271,12.616 5.409 C 12.384 5.740,12.383 5.740,11.000 5.740 C 9.617 5.740,9.616 5.740,9.384 5.409 C 9.098 5.003,9.328 4.398,9.815 4.277 C 9.884 4.260,10.454 4.249,11.083 4.253 L 12.226 4.260 12.388 4.367 M6.503 5.801 C 6.596 5.847,6.720 5.954,6.781 6.042 C 6.879 6.183,6.895 6.251,6.921 6.650 C 6.959 7.237,7.043 7.489,7.322 7.864 C 7.628 8.275,8.137 8.507,8.820 8.546 C 9.308 8.574,9.512 8.670,9.646 8.931 C 9.862 9.356,9.664 9.860,9.225 10.000 C 9.139 10.027,8.896 10.048,8.685 10.047 C 6.801 10.032,5.439 8.658,5.425 6.760 C 5.422 6.364,5.434 6.278,5.507 6.140 C 5.609 5.947,5.697 5.863,5.881 5.783 C 6.075 5.699,6.305 5.706,6.503 5.801 M15.592 6.521 C 17.085 6.877,18.037 8.123,18.039 9.724 C 18.040 10.091,18.028 10.171,17.947 10.324 C 17.811 10.581,17.573 10.735,17.310 10.737 C 17.030 10.740,16.818 10.631,16.681 10.415 C 16.587 10.267,16.569 10.187,16.548 9.832 C 16.533 9.577,16.491 9.321,16.438 9.161 C 16.175 8.368,15.508 7.920,14.591 7.920 C 14.095 7.920,13.777 7.678,13.731 7.265 C 13.684 6.854,13.930 6.529,14.360 6.435 C 14.573 6.388,15.228 6.433,15.592 6.521 M11.820 7.837 C 12.032 7.936,13.097 9.011,13.178 9.209 C 13.287 9.471,13.232 9.810,13.048 10.013 C 12.849 10.234,12.439 10.304,12.168 10.163 C 11.957 10.053,10.897 8.974,10.822 8.791 C 10.743 8.602,10.743 8.398,10.822 8.210 C 10.904 8.012,10.990 7.923,11.180 7.835 C 11.385 7.741,11.617 7.742,11.820 7.837 M5.339 9.897 C 5.728 10.193,5.740 10.466,5.400 11.284 C 5.127 11.940,5.073 12.025,4.856 12.149 C 4.602 12.295,4.212 12.250,3.986 12.048 C 3.870 11.946,3.762 11.681,3.761 11.500 C 3.761 11.338,4.092 10.463,4.286 10.115 C 4.486 9.756,5.011 9.647,5.339 9.897 M14.840 11.342 C 14.977 11.412,15.146 11.597,15.197 11.733 C 15.224 11.803,15.240 12.281,15.240 13.000 C 15.240 13.719,15.224 14.197,15.197 14.267 C 15.104 14.516,14.759 14.758,14.500 14.758 C 14.241 14.758,13.896 14.516,13.803 14.267 C 13.736 14.090,13.746 11.872,13.814 11.708 C 13.881 11.548,14.124 11.329,14.271 11.297 C 14.331 11.284,14.398 11.267,14.420 11.260 C 14.485 11.238,14.732 11.287,14.840 11.342 M9.566 12.063 C 9.985 12.142,10.533 12.396,10.873 12.670 C 11.555 13.220,12.000 14.140,12.000 15.000 C 12.000 16.202,11.187 17.383,10.075 17.798 C 8.577 18.357,6.976 17.705,6.298 16.260 C 6.072 15.779,6.021 15.546,6.021 15.000 C 6.021 14.454,6.072 14.221,6.298 13.740 C 6.885 12.488,8.210 11.808,9.566 12.063 M19.413 12.521 C 19.615 12.659,19.731 12.885,19.731 13.137 C 19.731 13.494,19.542 13.734,19.141 13.883 C 18.548 14.104,18.115 14.901,18.172 15.667 C 18.197 15.999,18.289 16.230,18.493 16.473 C 18.819 16.860,18.765 17.358,18.368 17.626 C 17.894 17.945,17.371 17.660,16.981 16.870 C 16.732 16.365,16.666 16.032,16.693 15.400 C 16.750 14.056,17.452 12.956,18.545 12.496 C 18.854 12.366,19.202 12.376,19.413 12.521 M13.750 17.110 C 13.958 17.222,15.521 18.450,15.603 18.564 C 15.644 18.621,15.695 18.749,15.717 18.847 C 15.842 19.403,15.307 19.894,14.777 19.711 C 14.685 19.679,14.231 19.356,13.730 18.966 C 12.772 18.221,12.680 18.115,12.680 17.766 C 12.680 17.489,12.879 17.181,13.120 17.085 C 13.283 17.020,13.608 17.033,13.750 17.110 " fill="#1C274C" stroke="none" fill-rule="evenodd"></path></svg>