<svg width="24" height="24" viewBox="0 0 24 24" fill="none" xmlns="http://www.w3.org/2000/svg"><path d="M7.760 4.043 C 6.597 4.110,5.924 4.344,5.420 4.855 C 4.884 5.399,4.634 6.068,4.264 7.940 C 4.106 8.742,3.220 13.466,3.064 14.340 C 2.621 16.825,2.646 17.941,3.163 18.716 C 3.699 19.517,4.543 19.845,6.360 19.959 C 7.239 20.013,16.761 20.013,17.640 19.959 C 19.457 19.845,20.301 19.517,20.837 18.716 C 21.243 18.107,21.347 17.152,21.159 15.748 C 21.059 14.995,20.290 10.775,19.755 8.040 C 19.371 6.075,19.124 5.408,18.580 4.855 C 18.059 4.326,17.425 4.115,16.132 4.040 C 15.350 3.995,8.556 3.997,7.760 4.043 M9.520 7.341 C 9.682 7.424,9.781 7.558,9.959 7.936 C 10.783 9.675,13.217 9.675,14.041 7.936 C 14.292 7.404,14.447 7.271,14.821 7.266 C 15.241 7.260,15.560 7.580,15.560 8.008 C 15.560 8.185,15.526 8.296,15.377 8.603 C 14.863 9.658,14.034 10.336,12.877 10.646 C 12.397 10.775,11.603 10.775,11.123 10.646 C 9.961 10.335,9.118 9.642,8.620 8.590 C 8.478 8.290,8.440 8.167,8.440 8.001 C 8.440 7.442,9.024 7.086,9.520 7.341 " fill="#1C274C" stroke="none" fill-rule="evenodd"></path></svg>