<svg width="24" height="24" viewBox="0 0 24 24" fill="none" xmlns="http://www.w3.org/2000/svg"><path d="M11.555 2.279 C 10.982 2.351,10.339 2.595,9.842 2.930 C 9.535 3.137,8.995 3.721,8.785 4.072 C 8.553 4.461,8.341 5.059,8.282 5.493 C 8.259 5.665,8.240 6.071,8.240 6.395 L 8.240 6.984 7.030 7.031 C 5.362 7.097,4.782 7.191,4.140 7.501 C 3.518 7.801,3.140 8.227,2.934 8.860 C 2.848 9.124,2.826 9.280,2.810 9.748 C 2.775 10.765,2.857 11.297,3.719 15.604 C 4.319 18.605,4.467 19.270,4.662 19.860 C 5.093 21.159,5.726 21.692,7.094 21.909 C 7.501 21.974,7.929 21.980,12.000 21.980 C 16.071 21.980,16.499 21.974,16.906 21.909 C 18.297 21.688,18.909 21.161,19.355 19.800 C 19.541 19.229,19.675 18.630,20.222 15.907 C 21.115 11.467,21.222 10.791,21.190 9.780 C 21.174 9.274,21.155 9.130,21.067 8.860 C 20.859 8.227,20.481 7.801,19.860 7.501 C 19.218 7.191,18.638 7.097,16.970 7.031 L 15.760 6.984 15.760 6.395 C 15.760 5.653,15.710 5.282,15.543 4.790 C 15.055 3.351,13.731 2.352,12.200 2.267 C 11.991 2.256,11.701 2.261,11.555 2.279 M12.765 3.892 C 13.415 4.139,13.854 4.575,14.108 5.229 C 14.206 5.479,14.215 5.557,14.231 6.250 L 14.249 7.000 12.000 7.000 L 9.751 7.000 9.769 6.250 C 9.785 5.562,9.794 5.478,9.889 5.235 C 10.183 4.481,10.778 3.963,11.540 3.798 C 11.841 3.733,12.473 3.782,12.765 3.892 M9.476 9.130 C 10.149 9.476,10.158 10.476,9.492 10.867 C 9.327 10.964,9.257 10.980,9.000 10.980 C 8.744 10.980,8.672 10.964,8.511 10.869 C 7.933 10.529,7.832 9.766,8.303 9.295 C 8.604 8.994,9.081 8.927,9.476 9.130 M15.316 9.063 C 15.827 9.214,16.121 9.808,15.939 10.322 C 15.854 10.563,15.709 10.740,15.489 10.869 C 15.328 10.964,15.256 10.980,15.000 10.980 C 14.744 10.980,14.672 10.964,14.511 10.869 C 13.933 10.529,13.832 9.766,14.303 9.295 C 14.573 9.025,14.921 8.945,15.316 9.063 " fill="#1C274C" stroke="none" fill-rule="evenodd"></path></svg>