<svg width="24" height="24" viewBox="0 0 24 24" fill="none" xmlns="http://www.w3.org/2000/svg"><path d="M11.555 2.279 C 10.981 2.351,10.337 2.596,9.842 2.930 C 9.549 3.128,9.033 3.675,8.828 4.004 C 8.404 4.687,8.280 5.156,8.246 6.220 L 8.220 7.020 7.699 7.047 C 5.910 7.142,5.138 7.686,4.644 9.200 C 4.456 9.777,4.291 10.526,3.681 13.580 C 2.859 17.700,2.775 18.245,2.810 19.252 C 2.833 19.922,2.936 20.304,3.202 20.709 C 3.657 21.403,4.361 21.737,5.729 21.908 C 6.254 21.974,6.762 21.980,12.000 21.980 C 17.238 21.980,17.746 21.974,18.271 21.908 C 19.639 21.737,20.343 21.403,20.798 20.709 C 21.074 20.289,21.168 19.925,21.190 19.200 C 21.220 18.184,21.117 17.540,20.182 12.890 C 19.673 10.362,19.539 9.763,19.355 9.200 C 18.858 7.682,18.091 7.142,16.301 7.047 L 15.780 7.020 15.756 6.240 C 15.740 5.735,15.709 5.365,15.667 5.191 C 15.264 3.525,13.882 2.360,12.200 2.267 C 11.991 2.256,11.701 2.261,11.555 2.279 M12.765 3.892 C 13.415 4.139,13.854 4.575,14.108 5.229 C 14.206 5.479,14.215 5.557,14.231 6.250 L 14.249 7.000 12.000 7.000 L 9.751 7.000 9.769 6.250 C 9.785 5.562,9.794 5.478,9.889 5.235 C 10.183 4.481,10.778 3.963,11.540 3.798 C 11.841 3.733,12.473 3.782,12.765 3.892 M9.520 15.341 C 9.682 15.424,9.781 15.558,9.959 15.936 C 10.783 17.675,13.217 17.675,14.041 15.936 C 14.292 15.404,14.447 15.271,14.821 15.266 C 15.241 15.260,15.560 15.580,15.560 16.008 C 15.560 16.185,15.526 16.296,15.377 16.603 C 14.863 17.658,14.034 18.336,12.877 18.646 C 12.397 18.775,11.603 18.775,11.123 18.646 C 9.961 18.335,9.118 17.642,8.620 16.590 C 8.478 16.290,8.440 16.167,8.440 16.001 C 8.440 15.442,9.024 15.086,9.520 15.341 " fill="#1C274C" stroke="none" fill-rule="evenodd"></path></svg>