<svg width="24" height="24" viewBox="0 0 24 24" fill="none" xmlns="http://www.w3.org/2000/svg"><path d="M11.560 1.279 C 10.585 1.403,9.627 1.939,9.064 2.676 C 8.715 3.134,8.491 3.596,8.355 4.140 C 8.295 4.381,8.269 4.656,8.252 5.250 L 8.228 6.040 7.953 6.040 C 7.801 6.040,7.505 6.059,7.295 6.083 C 5.810 6.248,5.092 6.839,4.663 8.246 C 4.486 8.828,4.350 9.493,3.704 12.940 C 2.999 16.708,2.907 17.231,2.816 18.017 C 2.738 18.699,2.757 19.654,2.856 20.020 C 3.124 21.005,3.881 21.611,5.104 21.818 C 5.960 21.964,6.256 21.972,11.340 21.989 C 17.323 22.010,18.364 21.977,19.291 21.737 C 20.068 21.537,20.664 21.095,20.955 20.505 C 21.147 20.114,21.207 19.834,21.229 19.214 C 21.266 18.216,21.184 17.668,20.301 12.960 C 19.660 9.541,19.529 8.894,19.354 8.307 C 18.920 6.846,18.212 6.251,16.705 6.083 C 16.495 6.059,16.199 6.040,16.047 6.040 L 15.772 6.040 15.748 5.250 C 15.720 4.305,15.652 3.973,15.363 3.380 C 14.951 2.537,14.404 2.000,13.543 1.597 C 12.968 1.327,12.178 1.201,11.560 1.279 M12.488 2.804 C 13.294 2.971,14.029 3.706,14.196 4.512 C 14.220 4.629,14.240 5.011,14.240 5.362 L 14.240 6.000 12.000 6.000 L 9.760 6.000 9.760 5.362 C 9.760 5.011,9.780 4.629,9.804 4.512 C 9.966 3.727,10.665 3.008,11.451 2.817 C 11.715 2.753,12.213 2.747,12.488 2.804 M13.209 9.282 C 13.390 9.332,13.581 9.487,13.667 9.653 C 13.702 9.721,13.746 9.910,13.764 10.073 C 13.841 10.757,14.235 11.151,14.933 11.239 C 15.379 11.296,15.567 11.416,15.698 11.729 C 15.862 12.122,15.639 12.582,15.215 12.722 C 14.958 12.806,14.314 12.704,13.832 12.502 C 13.769 12.475,13.764 12.614,13.751 14.487 L 13.738 16.500 13.630 16.820 C 13.480 17.263,13.269 17.603,12.936 17.936 C 12.601 18.271,12.260 18.482,11.820 18.628 C 11.543 18.719,11.433 18.733,11.000 18.733 C 10.567 18.733,10.457 18.719,10.180 18.628 C 9.740 18.482,9.399 18.271,9.064 17.936 C 8.729 17.601,8.518 17.260,8.372 16.820 C 8.281 16.543,8.267 16.433,8.267 16.000 C 8.267 15.567,8.281 15.457,8.372 15.180 C 8.515 14.748,8.726 14.403,9.049 14.077 C 9.822 13.295,10.938 13.044,11.955 13.425 C 12.095 13.477,12.216 13.520,12.225 13.520 C 12.233 13.520,12.240 12.700,12.240 11.699 C 12.240 10.145,12.249 9.856,12.302 9.729 C 12.384 9.532,12.506 9.405,12.700 9.316 C 12.883 9.231,12.998 9.223,13.209 9.282 M10.591 14.819 C 10.076 15.014,9.760 15.466,9.760 16.004 C 9.760 17.104,11.099 17.657,11.878 16.878 C 12.481 16.275,12.308 15.255,11.539 14.879 C 11.296 14.760,10.824 14.730,10.591 14.819 " fill="#1C274C" stroke="none" fill-rule="evenodd"></path></svg>