<svg width="24" height="24" viewBox="0 0 24 24" fill="none" xmlns="http://www.w3.org/2000/svg"><path d="M11.560 1.279 C 10.585 1.403,9.627 1.939,9.064 2.676 C 8.715 3.134,8.491 3.596,8.355 4.140 C 8.295 4.381,8.269 4.656,8.252 5.250 L 8.228 6.040 7.953 6.040 C 7.801 6.040,7.505 6.059,7.295 6.083 C 5.810 6.248,5.092 6.839,4.663 8.246 C 4.486 8.828,4.350 9.493,3.704 12.940 C 2.999 16.708,2.907 17.231,2.816 18.017 C 2.738 18.699,2.757 19.654,2.856 20.020 C 3.124 21.005,3.881 21.611,5.104 21.818 C 5.960 21.964,6.256 21.972,11.340 21.989 C 17.323 22.010,18.364 21.977,19.291 21.737 C 20.068 21.537,20.664 21.095,20.955 20.505 C 21.147 20.114,21.207 19.834,21.229 19.214 C 21.266 18.216,21.184 17.668,20.301 12.960 C 19.660 9.541,19.529 8.894,19.354 8.307 C 18.920 6.846,18.212 6.251,16.705 6.083 C 16.495 6.059,16.199 6.040,16.047 6.040 L 15.772 6.040 15.748 5.250 C 15.720 4.305,15.652 3.973,15.363 3.380 C 14.951 2.537,14.404 2.000,13.543 1.597 C 12.968 1.327,12.178 1.201,11.560 1.279 M12.488 2.804 C 13.294 2.971,14.029 3.706,14.196 4.512 C 14.220 4.629,14.240 5.011,14.240 5.362 L 14.240 6.000 12.000 6.000 L 9.760 6.000 9.760 5.362 C 9.760 5.011,9.780 4.629,9.804 4.512 C 9.966 3.727,10.665 3.008,11.451 2.817 C 11.715 2.753,12.213 2.747,12.488 2.804 M15.720 9.025 C 16.093 9.201,16.369 9.467,16.540 9.813 C 16.712 10.162,16.759 10.432,16.760 11.062 C 16.760 11.807,16.615 12.230,16.224 12.621 C 16.048 12.797,15.850 12.912,14.920 13.379 C 13.581 14.051,13.408 14.120,13.042 14.120 L 12.765 14.120 12.751 15.810 L 12.737 17.500 12.630 17.820 C 12.481 18.263,12.270 18.602,11.936 18.936 C 11.601 19.271,11.260 19.482,10.820 19.628 C 10.543 19.719,10.433 19.733,10.000 19.733 C 9.567 19.733,9.457 19.719,9.180 19.628 C 8.740 19.482,8.399 19.271,8.064 18.936 C 7.729 18.601,7.518 18.260,7.372 17.820 C 7.281 17.543,7.267 17.433,7.267 17.000 C 7.267 16.567,7.281 16.457,7.372 16.180 C 7.515 15.748,7.726 15.403,8.049 15.077 C 8.822 14.295,9.938 14.044,10.955 14.425 C 11.095 14.477,11.216 14.520,11.225 14.520 C 11.233 14.520,11.240 13.837,11.240 13.002 C 11.240 11.360,11.254 11.211,11.449 10.824 C 11.678 10.368,11.861 10.233,13.080 9.621 C 14.555 8.880,14.564 8.877,15.060 8.891 C 15.410 8.901,15.493 8.917,15.720 9.025 M13.874 10.909 L 12.780 11.460 12.769 11.969 C 12.758 12.442,12.764 12.484,12.842 12.562 C 12.904 12.624,12.955 12.640,13.029 12.621 C 13.085 12.607,13.601 12.358,14.176 12.068 L 15.220 11.540 15.231 11.039 C 15.250 10.205,15.267 10.207,13.874 10.909 M9.616 15.814 C 8.747 16.099,8.475 17.235,9.120 17.880 C 9.368 18.128,9.606 18.220,10.000 18.220 C 10.279 18.220,10.375 18.203,10.537 18.123 C 10.788 18.000,11.000 17.788,11.123 17.537 C 11.260 17.259,11.262 16.745,11.128 16.472 C 11.006 16.225,10.778 15.995,10.541 15.880 C 10.306 15.767,9.859 15.735,9.616 15.814 " fill="#1C274C" stroke="none" fill-rule="evenodd"></path></svg>