<svg width="24" height="24" viewBox="0 0 24 24" fill="none" xmlns="http://www.w3.org/2000/svg"><path d="M11.555 1.279 C 10.982 1.351,10.339 1.595,9.842 1.930 C 9.535 2.137,8.995 2.721,8.785 3.072 C 8.553 3.461,8.341 4.059,8.282 4.493 C 8.259 4.665,8.240 5.081,8.240 5.417 L 8.240 6.028 7.730 6.051 C 6.051 6.126,5.217 6.669,4.744 7.992 C 4.514 8.638,4.392 9.219,3.643 13.220 C 3.068 16.295,2.989 16.735,2.882 17.460 C 2.589 19.442,2.774 20.465,3.553 21.162 C 4.086 21.639,4.889 21.867,6.360 21.959 C 7.239 22.013,16.761 22.013,17.640 21.959 C 19.457 21.845,20.301 21.517,20.837 20.716 C 21.243 20.107,21.347 19.152,21.159 17.748 C 21.059 16.995,20.290 12.775,19.755 10.040 C 19.371 8.075,19.124 7.408,18.580 6.855 C 18.078 6.345,17.376 6.101,16.270 6.051 L 15.760 6.028 15.760 5.417 C 15.760 4.653,15.711 4.285,15.543 3.790 C 15.055 2.351,13.731 1.352,12.200 1.267 C 11.991 1.256,11.701 1.261,11.555 1.279 M12.765 2.892 C 13.415 3.139,13.854 3.575,14.108 4.229 C 14.206 4.479,14.215 4.557,14.231 5.250 L 14.249 6.000 12.000 6.000 L 9.751 6.000 9.769 5.250 C 9.785 4.562,9.794 4.478,9.889 4.235 C 10.183 3.481,10.778 2.963,11.540 2.798 C 11.841 2.733,12.473 2.782,12.765 2.892 M15.292 10.814 C 15.468 10.888,15.667 11.124,15.721 11.323 C 15.771 11.509,15.745 11.683,15.640 11.865 C 15.525 12.067,11.588 16.969,11.446 17.088 C 11.216 17.282,10.833 17.289,10.566 17.104 C 10.334 16.944,8.418 14.996,8.339 14.841 C 8.252 14.669,8.247 14.339,8.331 14.179 C 8.521 13.815,8.932 13.664,9.308 13.821 C 9.395 13.857,9.747 14.173,10.201 14.623 L 10.949 15.364 12.671 13.212 C 13.618 12.028,14.444 11.012,14.507 10.952 C 14.569 10.893,14.665 10.827,14.720 10.805 C 14.865 10.747,15.143 10.752,15.292 10.814 " fill="#1C274C" stroke="none" fill-rule="evenodd"></path></svg>