<svg width="24" height="24" viewBox="0 0 24 24" fill="none" xmlns="http://www.w3.org/2000/svg"><path d="M11.084 2.046 C 8.583 2.307,6.347 3.872,5.246 6.131 C 4.213 8.252,4.261 10.772,5.378 13.060 C 7.107 16.603,10.834 18.313,14.221 17.117 C 17.466 15.972,19.726 12.535,19.480 9.120 C 19.169 4.810,15.358 1.599,11.084 2.046 M13.358 5.365 C 14.739 5.682,15.874 6.852,16.164 8.259 C 16.248 8.662,16.262 9.097,16.197 9.267 C 16.104 9.516,15.759 9.758,15.500 9.758 C 15.241 9.758,14.896 9.516,14.803 9.267 C 14.779 9.205,14.760 9.088,14.759 9.007 C 14.758 8.741,14.644 8.305,14.496 8.005 C 14.145 7.293,13.316 6.763,12.545 6.759 C 12.241 6.758,11.903 6.533,11.803 6.267 C 11.744 6.113,11.749 5.863,11.814 5.708 C 11.881 5.548,12.124 5.329,12.271 5.297 C 12.331 5.284,12.398 5.267,12.420 5.259 C 12.502 5.230,13.031 5.290,13.358 5.365 M9.821 18.269 C 9.806 18.308,9.783 18.475,9.771 18.640 C 9.713 19.465,10.221 20.217,11.019 20.487 L 11.220 20.554 11.241 21.367 C 11.258 22.053,11.273 22.204,11.336 22.332 C 11.598 22.863,12.402 22.863,12.664 22.332 C 12.727 22.204,12.742 22.053,12.759 21.367 L 12.780 20.554 12.981 20.487 C 13.779 20.217,14.287 19.465,14.229 18.640 C 14.203 18.282,14.172 18.187,14.089 18.219 C 13.907 18.289,12.980 18.446,12.540 18.482 C 11.710 18.549,10.703 18.447,9.915 18.217 C 9.877 18.206,9.838 18.227,9.821 18.269 " fill="#1C274C" stroke="none" fill-rule="evenodd"></path></svg>