<svg width="24" height="24" viewBox="0 0 24 24" fill="none" xmlns="http://www.w3.org/2000/svg"><path d="M7.600 2.067 C 6.332 2.267,5.276 2.749,4.292 3.574 C 3.748 4.031,3.108 4.829,2.806 5.427 L 2.722 5.594 3.171 5.815 C 4.825 6.628,6.584 8.463,7.698 10.537 C 7.933 10.973,7.982 11.042,8.018 10.981 C 8.189 10.690,8.606 10.096,8.819 9.841 C 9.145 9.451,9.745 8.876,10.114 8.602 C 10.271 8.485,10.400 8.375,10.400 8.357 C 10.400 8.340,10.293 8.175,10.161 7.993 C 9.390 6.919,8.656 5.396,8.283 4.098 C 8.138 3.595,7.974 2.810,7.939 2.460 C 7.894 2.007,7.904 2.019,7.600 2.067 M9.427 2.246 C 9.549 3.282,10.025 4.735,10.589 5.800 C 10.899 6.385,11.465 7.264,11.745 7.596 C 11.752 7.604,11.988 7.520,12.269 7.409 C 12.973 7.130,13.380 7.010,14.118 6.864 L 14.751 6.739 14.616 6.359 C 13.897 4.334,12.188 2.753,10.146 2.223 C 9.945 2.170,9.696 2.115,9.593 2.100 L 9.407 2.072 9.427 2.246 M2.186 7.070 C 2.176 7.087,2.136 7.298,2.096 7.540 C 1.996 8.154,2.004 9.105,2.113 9.721 C 2.502 11.903,3.972 13.770,5.985 14.638 C 6.380 14.808,6.760 14.931,6.760 14.888 C 6.762 14.714,6.944 13.685,7.021 13.422 C 7.075 13.233,7.120 13.047,7.120 13.008 C 7.120 12.970,7.065 12.795,6.998 12.619 C 6.230 10.616,4.859 8.778,3.303 7.663 C 2.817 7.315,2.228 7.002,2.186 7.070 M19.500 10.480 C 20.864 11.844,21.987 12.960,21.996 12.960 C 22.037 12.960,21.955 10.754,21.904 10.480 C 21.784 9.836,21.534 9.365,21.064 8.899 C 20.690 8.528,20.266 8.284,19.780 8.160 C 19.434 8.072,18.465 8.000,17.600 8.000 L 17.020 8.000 19.500 10.480 M14.800 8.247 C 13.835 8.451,13.128 8.667,12.475 8.958 C 10.209 9.965,8.893 11.738,8.295 14.591 L 8.191 15.091 11.550 18.450 L 14.909 21.809 15.409 21.705 C 19.075 20.936,20.996 18.976,21.741 15.244 L 21.808 14.908 18.454 11.554 C 16.609 9.709,15.073 8.202,15.040 8.204 C 15.007 8.207,14.899 8.226,14.800 8.247 M15.812 11.824 C 15.882 11.859,16.066 12.012,16.221 12.164 L 16.502 12.440 16.761 12.177 C 17.070 11.863,17.253 11.760,17.500 11.760 C 17.916 11.760,18.240 12.084,18.240 12.500 C 18.240 12.747,18.137 12.930,17.823 13.239 L 17.560 13.498 17.836 13.779 C 18.161 14.110,18.240 14.251,18.240 14.500 C 18.240 14.916,17.916 15.240,17.500 15.240 C 17.251 15.240,17.110 15.161,16.779 14.836 L 16.498 14.560 16.280 14.780 L 16.062 15.000 16.349 15.290 C 16.759 15.704,16.843 15.957,16.684 16.300 C 16.595 16.494,16.468 16.616,16.271 16.698 C 15.939 16.837,15.694 16.750,15.290 16.349 L 15.000 16.062 14.780 16.280 L 14.560 16.498 14.836 16.779 C 15.161 17.110,15.240 17.251,15.240 17.500 C 15.240 17.916,14.916 18.240,14.500 18.240 C 14.251 18.240,14.110 18.161,13.779 17.836 L 13.498 17.560 13.239 17.823 C 12.930 18.137,12.747 18.240,12.500 18.240 C 12.084 18.240,11.760 17.916,11.760 17.500 C 11.760 17.251,11.839 17.110,12.164 16.779 L 12.440 16.498 12.177 16.239 C 11.863 15.930,11.760 15.747,11.760 15.500 C 11.760 15.084,12.084 14.760,12.500 14.760 C 12.749 14.760,12.890 14.839,13.221 15.164 L 13.502 15.440 13.720 15.220 L 13.938 15.000 13.651 14.710 C 13.250 14.306,13.163 14.061,13.302 13.729 C 13.384 13.532,13.506 13.405,13.700 13.316 C 14.043 13.157,14.296 13.241,14.710 13.651 L 15.000 13.938 15.220 13.720 L 15.440 13.502 15.164 13.221 C 15.013 13.067,14.859 12.882,14.824 12.812 C 14.697 12.558,14.776 12.139,14.986 11.955 C 15.210 11.759,15.568 11.702,15.812 11.824 M8.000 17.600 C 8.000 18.465,8.072 19.434,8.160 19.780 C 8.413 20.767,9.234 21.588,10.223 21.841 C 10.582 21.933,11.739 22.011,12.470 21.992 L 12.960 21.980 10.480 19.500 L 8.000 17.020 8.000 17.600 " fill="#1C274C" stroke="none" fill-rule="evenodd"></path></svg>