<svg width="24" height="24" viewBox="0 0 24 24" fill="none" xmlns="http://www.w3.org/2000/svg"><path d="M5.380 5.044 C 4.040 5.119,3.316 5.358,2.815 5.889 C 2.143 6.599,2.001 7.442,2.001 10.720 C 2.001 13.124,2.075 14.054,2.321 14.728 C 2.654 15.642,3.314 16.119,4.500 16.301 C 5.228 16.413,7.096 16.449,11.140 16.427 C 15.105 16.407,15.499 16.392,16.200 16.241 C 16.683 16.136,16.950 16.027,17.275 15.798 C 17.908 15.354,18.210 14.660,18.319 13.400 C 18.376 12.738,18.376 8.642,18.319 8.019 C 18.217 6.909,18.010 6.333,17.540 5.859 C 17.012 5.326,16.346 5.122,14.871 5.040 C 14.055 4.995,6.192 4.998,5.380 5.044 M19.733 7.610 C 19.845 8.253,19.862 12.391,19.759 13.560 C 19.634 14.969,19.279 15.876,18.577 16.577 C 17.854 17.301,16.929 17.662,15.440 17.802 C 14.738 17.868,7.741 17.898,6.140 17.842 C 5.414 17.816,4.753 17.785,4.670 17.773 C 4.480 17.745,4.479 17.777,4.654 18.141 C 5.108 19.082,5.937 19.641,7.199 19.856 C 7.973 19.988,8.810 20.006,13.560 19.990 C 18.502 19.973,18.615 19.969,19.380 19.776 C 20.804 19.418,21.599 18.525,21.855 16.998 C 21.965 16.343,21.999 15.518,21.999 13.560 C 21.999 11.014,21.939 10.234,21.681 9.431 C 21.411 8.591,20.848 7.954,20.056 7.595 C 19.730 7.448,19.706 7.449,19.733 7.610 M10.561 7.642 C 11.902 7.808,12.971 8.779,13.261 10.096 C 13.353 10.513,13.326 11.179,13.200 11.580 C 13.036 12.103,12.815 12.467,12.421 12.865 C 11.809 13.482,11.198 13.753,10.335 13.790 C 9.715 13.816,9.365 13.745,8.820 13.480 C 8.146 13.152,7.693 12.705,7.381 12.060 C 7.142 11.565,7.067 11.238,7.070 10.700 C 7.073 10.165,7.168 9.771,7.398 9.329 C 7.884 8.398,8.737 7.795,9.780 7.644 C 10.121 7.595,10.182 7.595,10.561 7.642 M5.242 8.181 C 5.305 8.213,5.406 8.306,5.468 8.387 L 5.580 8.534 5.591 10.672 L 5.602 12.809 5.505 12.975 C 5.381 13.186,5.149 13.320,4.907 13.320 C 4.578 13.320,4.369 13.189,4.236 12.900 C 4.167 12.751,4.162 12.599,4.161 10.755 C 4.160 9.663,4.171 8.713,4.185 8.644 C 4.220 8.471,4.467 8.208,4.660 8.138 C 4.838 8.073,5.067 8.090,5.242 8.181 M15.699 8.125 C 15.787 8.149,15.924 8.235,16.004 8.315 C 16.236 8.547,16.245 8.647,16.232 10.845 L 16.220 12.780 16.120 12.959 C 15.993 13.185,15.769 13.318,15.513 13.319 C 15.179 13.321,14.970 13.191,14.836 12.900 C 14.767 12.751,14.762 12.599,14.762 10.720 C 14.762 8.841,14.767 8.689,14.836 8.540 C 14.928 8.340,15.068 8.209,15.266 8.138 C 15.456 8.071,15.500 8.069,15.699 8.125 M9.840 9.093 C 9.319 9.210,8.896 9.548,8.668 10.029 C 8.549 10.281,8.540 10.330,8.540 10.721 C 8.540 11.119,8.547 11.157,8.677 11.420 C 8.851 11.772,9.108 12.029,9.460 12.203 C 9.728 12.335,9.755 12.340,10.199 12.340 C 10.624 12.340,10.678 12.331,10.890 12.227 C 11.676 11.841,12.059 10.951,11.779 10.158 C 11.512 9.401,10.627 8.915,9.840 9.093 " fill="#1C274C" stroke="none" fill-rule="evenodd"></path></svg>