<svg width="24" height="24" viewBox="0 0 24 24" fill="none" xmlns="http://www.w3.org/2000/svg"><path d="M6.393 5.043 C 5.246 5.102,4.426 5.286,3.897 5.604 C 3.585 5.792,3.135 6.183,2.920 6.454 C 2.136 7.439,2.001 8.255,2.001 12.000 C 2.001 15.814,2.144 16.630,2.984 17.614 C 3.585 18.320,4.288 18.696,5.308 18.857 C 6.052 18.974,7.219 18.999,12.000 18.999 C 16.781 18.999,17.948 18.974,18.692 18.857 C 19.712 18.696,20.415 18.320,21.016 17.614 C 21.891 16.589,22.030 15.688,21.988 11.340 C 21.962 8.622,21.902 8.049,21.562 7.231 C 21.326 6.663,20.700 5.967,20.097 5.602 C 19.785 5.413,19.173 5.215,18.675 5.142 C 18.442 5.108,17.911 5.062,17.495 5.040 C 16.624 4.995,7.284 4.996,6.393 5.043 M5.780 8.315 C 5.983 8.406,6.189 8.639,6.220 8.809 C 6.233 8.881,6.238 10.363,6.232 12.103 L 6.220 15.266 6.120 15.414 C 6.006 15.582,5.688 15.760,5.500 15.760 C 5.312 15.760,4.994 15.582,4.880 15.414 L 4.780 15.266 4.768 12.103 C 4.762 10.363,4.767 8.881,4.780 8.809 C 4.828 8.544,5.211 8.242,5.500 8.242 C 5.566 8.242,5.692 8.275,5.780 8.315 M12.507 8.282 C 12.940 8.341,13.538 8.552,13.929 8.785 C 14.371 9.047,14.953 9.629,15.215 10.071 C 15.782 11.024,15.902 12.166,15.545 13.209 C 15.349 13.780,15.090 14.190,14.640 14.640 C 14.190 15.090,13.780 15.349,13.209 15.545 C 12.166 15.902,11.027 15.782,10.070 15.215 C 9.626 14.953,9.047 14.374,8.785 13.930 C 8.218 12.973,8.098 11.834,8.455 10.791 C 8.651 10.220,8.910 9.810,9.360 9.360 C 10.215 8.505,11.331 8.123,12.507 8.282 M18.780 8.315 C 18.983 8.406,19.189 8.639,19.220 8.809 C 19.233 8.881,19.238 10.363,19.232 12.103 L 19.220 15.266 19.120 15.414 C 19.006 15.582,18.688 15.760,18.500 15.760 C 18.312 15.760,17.994 15.582,17.880 15.414 L 17.780 15.266 17.768 12.103 C 17.762 10.363,17.767 8.881,17.780 8.809 C 17.828 8.544,18.211 8.242,18.500 8.242 C 18.566 8.242,18.692 8.275,18.780 8.315 M11.540 9.798 C 10.501 10.023,9.760 10.940,9.760 12.000 C 9.760 12.615,9.979 13.139,10.420 13.580 C 11.309 14.469,12.691 14.469,13.580 13.580 C 14.744 12.416,14.319 10.482,12.771 9.894 C 12.473 9.781,11.844 9.732,11.540 9.798 " fill="#1C274C" stroke="none" fill-rule="evenodd"></path></svg>