<svg width="24" height="24" viewBox="0 0 24 24" fill="none" xmlns="http://www.w3.org/2000/svg"><path d="M11.120 2.023 C 10.195 2.101,9.853 2.139,9.300 2.224 C 8.522 2.342,8.162 2.438,7.736 2.637 C 6.675 3.135,5.933 4.007,5.574 5.180 C 5.472 5.513,5.464 5.593,5.462 6.240 C 5.460 6.894,5.466 6.954,5.555 7.150 C 5.607 7.266,5.714 7.417,5.792 7.485 C 6.066 7.726,6.127 7.738,7.222 7.760 L 8.224 7.780 6.731 14.740 C 5.755 19.285,5.244 21.746,5.257 21.834 C 5.303 22.153,5.523 22.395,5.846 22.482 C 6.142 22.561,6.522 22.384,6.655 22.105 C 6.692 22.028,6.929 20.996,7.182 19.812 C 7.435 18.629,7.652 17.628,7.664 17.590 C 7.684 17.524,7.926 17.520,12.000 17.520 C 16.074 17.520,16.316 17.524,16.336 17.590 C 16.348 17.628,16.565 18.629,16.818 19.812 C 17.071 20.996,17.308 22.028,17.345 22.105 C 17.478 22.384,17.858 22.561,18.154 22.482 C 18.477 22.395,18.697 22.153,18.743 21.834 C 18.756 21.746,18.245 19.285,17.269 14.740 L 15.776 7.780 16.778 7.760 C 17.725 7.741,17.790 7.735,17.969 7.647 C 18.186 7.540,18.337 7.377,18.456 7.120 C 18.531 6.958,18.540 6.869,18.538 6.240 C 18.536 5.593,18.528 5.513,18.426 5.180 C 18.067 4.007,17.325 3.135,16.264 2.637 C 15.725 2.385,15.051 2.239,13.763 2.098 C 13.243 2.041,11.496 1.991,11.120 2.023 M14.240 7.774 C 14.240 7.789,15.945 15.761,15.980 15.910 L 16.002 16.000 12.000 16.000 L 7.998 16.000 8.020 15.910 C 8.055 15.761,9.760 7.789,9.760 7.774 C 9.760 7.766,10.768 7.760,12.000 7.760 C 13.232 7.760,14.240 7.766,14.240 7.774 " fill="#1C274C" stroke="none" fill-rule="evenodd"></path></svg>