<svg width="24" height="24" viewBox="0 0 24 24" fill="none" xmlns="http://www.w3.org/2000/svg"><path d="M11.240 2.025 C 10.749 2.070,9.925 2.215,9.451 2.340 C 8.692 2.540,7.675 2.934,7.746 2.999 C 7.765 3.016,8.059 3.252,8.400 3.522 C 9.618 4.487,10.667 5.423,11.731 6.493 L 12.482 7.248 12.710 7.054 C 13.732 6.184,14.819 4.841,15.335 3.809 C 15.527 3.426,15.760 2.851,15.760 2.762 C 15.760 2.715,15.023 2.461,14.470 2.318 C 13.738 2.129,13.039 2.038,12.180 2.022 C 11.762 2.015,11.339 2.016,11.240 2.025 M17.099 3.527 C 17.039 3.727,16.717 4.437,16.539 4.760 C 15.953 5.826,14.978 7.027,13.944 7.959 C 13.688 8.190,13.487 8.400,13.497 8.426 C 13.507 8.452,13.656 8.660,13.827 8.887 C 14.492 9.767,15.075 10.823,15.524 11.960 C 15.642 12.257,15.740 12.505,15.744 12.512 C 15.747 12.518,15.873 12.477,16.023 12.420 C 16.465 12.254,17.319 12.012,17.856 11.902 C 19.244 11.616,20.504 11.575,21.667 11.778 C 21.839 11.808,21.987 11.826,21.995 11.818 C 22.026 11.788,21.916 10.673,21.841 10.256 C 21.360 7.597,19.849 5.252,17.653 3.757 C 17.152 3.416,17.135 3.409,17.099 3.527 M5.853 4.120 C 3.900 5.644,2.571 7.868,2.145 10.329 C 2.083 10.689,2.033 10.645,2.620 10.747 C 3.190 10.846,4.526 10.845,5.180 10.745 C 7.045 10.459,9.006 9.672,10.844 8.470 L 11.275 8.188 10.936 7.818 C 10.370 7.204,9.017 5.966,7.954 5.092 C 7.411 4.646,6.308 3.798,6.275 3.802 C 6.267 3.803,6.077 3.946,5.853 4.120 M11.880 9.585 C 9.235 11.395,5.978 12.468,3.501 12.345 C 3.024 12.321,2.247 12.228,2.064 12.174 C 1.991 12.152,1.989 12.171,2.016 12.625 C 2.110 14.190,2.638 15.859,3.470 17.216 C 4.210 18.423,5.328 19.581,6.496 20.350 C 6.671 20.465,6.827 20.560,6.842 20.560 C 6.857 20.560,6.928 20.412,7.000 20.230 C 8.017 17.652,10.808 14.903,14.070 13.265 C 14.230 13.185,14.360 13.112,14.360 13.103 C 14.360 13.094,14.268 12.856,14.156 12.574 C 13.718 11.470,13.157 10.467,12.510 9.631 C 12.378 9.460,12.268 9.321,12.265 9.322 C 12.262 9.324,12.089 9.442,11.880 9.585 M19.440 13.183 C 18.402 13.304,17.618 13.473,16.754 13.762 C 16.482 13.853,16.255 13.932,16.249 13.938 C 16.242 13.944,16.337 14.302,16.460 14.733 C 16.866 16.168,17.352 18.336,17.583 19.750 C 17.624 19.997,17.672 20.200,17.690 20.200 C 17.738 20.200,18.105 19.924,18.511 19.583 C 19.972 18.357,21.137 16.511,21.639 14.630 C 21.706 14.381,21.793 13.994,21.834 13.770 L 21.909 13.363 21.703 13.321 C 21.590 13.297,21.399 13.260,21.279 13.239 C 21.046 13.197,19.676 13.156,19.440 13.183 M14.406 14.783 C 11.900 16.113,9.634 18.252,8.643 20.222 C 8.470 20.565,8.240 21.149,8.240 21.243 C 8.240 21.284,8.850 21.500,9.357 21.640 C 11.480 22.223,13.664 22.097,15.730 21.273 C 16.204 21.084,16.240 21.062,16.240 20.963 C 16.240 20.698,15.898 18.807,15.635 17.620 C 15.373 16.434,14.911 14.667,14.844 14.592 C 14.830 14.576,14.633 14.662,14.406 14.783 " fill="#1C274C" stroke="none" fill-rule="evenodd"></path></svg>