<svg width="24" height="24" viewBox="0 0 24 24" fill="none" xmlns="http://www.w3.org/2000/svg"><path d="M4.610 1.044 C 3.446 1.238,2.474 2.112,2.112 3.287 L 2.022 3.580 2.010 7.290 L 1.998 11.000 1.809 11.001 C 1.419 11.003,1.069 11.277,1.018 11.622 C 0.942 12.124,1.330 12.520,1.897 12.520 L 1.990 12.520 2.011 13.290 C 2.034 14.154,2.099 14.590,2.307 15.280 C 2.744 16.732,3.632 18.099,4.749 19.040 L 5.106 19.340 4.553 20.455 C 3.951 21.669,3.930 21.741,4.077 22.065 C 4.118 22.155,4.212 22.275,4.286 22.331 C 4.427 22.438,4.713 22.533,4.806 22.504 C 4.836 22.494,4.909 22.476,4.969 22.463 C 5.218 22.408,5.348 22.223,5.868 21.183 C 6.143 20.631,6.372 20.176,6.377 20.171 C 6.381 20.166,6.545 20.232,6.742 20.316 C 7.707 20.731,8.502 20.902,9.740 20.960 C 11.335 21.036,14.101 20.992,14.840 20.879 C 15.487 20.781,16.394 20.504,16.889 20.255 C 16.992 20.203,17.087 20.160,17.099 20.160 C 17.110 20.160,17.353 20.627,17.638 21.197 C 18.196 22.312,18.253 22.388,18.590 22.478 C 18.811 22.537,19.033 22.479,19.223 22.312 C 19.412 22.146,19.489 21.986,19.492 21.752 C 19.495 21.580,19.432 21.431,18.944 20.450 L 18.392 19.342 18.586 19.182 C 19.638 18.311,20.487 17.153,20.974 15.920 C 21.331 15.018,21.486 14.198,21.495 13.175 L 21.500 12.530 21.731 12.505 C 21.858 12.492,22.013 12.455,22.075 12.423 C 22.228 12.344,22.433 12.103,22.463 11.969 C 22.476 11.909,22.493 11.840,22.500 11.815 C 22.528 11.721,22.431 11.416,22.332 11.286 C 22.276 11.212,22.155 11.118,22.065 11.077 C 21.905 11.004,21.599 11.002,12.709 11.001 L 3.518 11.000 3.529 7.349 L 3.540 3.698 3.668 3.439 C 3.830 3.108,4.108 2.830,4.439 2.668 C 4.683 2.548,4.724 2.540,5.139 2.540 C 5.532 2.540,5.605 2.552,5.805 2.645 C 6.209 2.835,6.502 3.162,6.696 3.638 L 6.800 3.893 6.710 3.955 C 6.313 4.230,5.827 4.829,5.561 5.372 C 5.262 5.982,5.157 6.389,5.131 7.040 C 5.108 7.643,5.149 7.994,5.300 8.472 C 5.427 8.876,5.537 9.037,5.760 9.153 C 6.088 9.321,6.062 9.330,9.340 7.915 C 10.990 7.202,12.395 6.586,12.462 6.546 C 12.658 6.428,12.773 6.224,12.790 5.966 C 12.804 5.767,12.786 5.701,12.644 5.410 C 12.410 4.932,12.190 4.623,11.824 4.258 C 10.993 3.432,9.800 3.016,8.678 3.161 C 8.470 3.188,8.266 3.212,8.224 3.215 C 8.166 3.219,8.121 3.155,8.035 2.948 C 7.715 2.172,7.038 1.513,6.255 1.216 C 5.746 1.023,5.127 0.958,4.610 1.044 " fill="#1C274C" stroke="none" fill-rule="evenodd"></path></svg>