<svg width="24" height="24" viewBox="0 0 24 24" fill="none" xmlns="http://www.w3.org/2000/svg"><path d="M7.300 4.027 C 6.631 4.048,5.742 4.124,5.300 4.200 C 3.429 4.521,2.501 5.463,2.186 7.360 C 2.035 8.265,2.020 8.706,2.021 12.060 C 2.022 15.583,2.041 16.012,2.246 16.957 C 2.537 18.304,3.216 19.145,4.342 19.556 C 5.382 19.935,6.308 19.999,10.740 19.999 C 14.561 19.998,15.459 19.961,16.420 19.762 C 17.939 19.446,18.813 18.645,19.192 17.220 C 19.359 16.595,19.480 15.452,19.480 14.494 L 19.480 14.009 20.330 13.989 C 21.209 13.969,21.375 13.943,21.605 13.788 C 21.924 13.573,21.999 13.230,21.999 12.000 C 21.999 10.722,21.925 10.418,21.559 10.192 C 21.328 10.049,20.984 10.003,20.130 10.001 L 19.480 10.000 19.480 9.510 C 19.480 9.240,19.461 8.768,19.438 8.460 C 19.305 6.685,18.988 5.805,18.225 5.091 C 17.484 4.397,16.519 4.132,14.400 4.040 C 13.619 4.007,8.310 3.997,7.300 4.027 M7.420 8.394 C 7.633 8.539,7.810 8.901,7.960 9.494 C 8.171 10.327,8.218 10.785,8.218 12.000 C 8.218 13.213,8.171 13.673,7.962 14.500 C 7.762 15.289,7.551 15.626,7.192 15.722 C 6.781 15.833,6.389 15.589,6.280 15.156 C 6.238 14.991,6.247 14.940,6.395 14.499 C 6.592 13.908,6.668 13.487,6.729 12.650 C 6.811 11.516,6.692 10.389,6.395 9.503 C 6.244 9.051,6.238 9.014,6.283 8.827 C 6.338 8.596,6.562 8.345,6.768 8.284 C 6.967 8.224,7.239 8.270,7.420 8.394 M10.693 8.283 C 11.049 8.382,11.270 8.738,11.475 9.540 C 11.829 10.928,11.829 13.073,11.475 14.460 C 11.279 15.226,11.085 15.559,10.751 15.698 C 10.557 15.779,10.417 15.775,10.220 15.684 C 9.803 15.491,9.650 15.067,9.844 14.640 C 9.948 14.410,10.098 13.835,10.166 13.399 C 10.239 12.939,10.239 11.061,10.166 10.601 C 10.098 10.165,9.948 9.590,9.844 9.360 C 9.644 8.920,9.829 8.454,10.265 8.299 C 10.455 8.231,10.500 8.229,10.693 8.283 M14.420 8.394 C 14.633 8.539,14.810 8.901,14.960 9.494 C 15.171 10.327,15.218 10.785,15.218 12.000 C 15.218 13.213,15.171 13.673,14.962 14.500 C 14.762 15.289,14.551 15.626,14.192 15.722 C 13.781 15.833,13.389 15.589,13.280 15.156 C 13.238 14.991,13.247 14.940,13.395 14.499 C 13.592 13.908,13.668 13.487,13.729 12.650 C 13.811 11.516,13.692 10.389,13.395 9.503 C 13.244 9.051,13.238 9.014,13.283 8.827 C 13.338 8.596,13.562 8.345,13.768 8.284 C 13.967 8.224,14.239 8.270,14.420 8.394 " fill="#1C274C" stroke="none" fill-rule="evenodd"></path></svg>