<svg width="24" height="24" viewBox="0 0 24 24" fill="none" xmlns="http://www.w3.org/2000/svg"><path d="M7.300 4.027 C 6.631 4.048,5.742 4.124,5.300 4.200 C 3.429 4.521,2.501 5.463,2.186 7.360 C 2.035 8.265,2.020 8.706,2.021 12.060 C 2.022 15.583,2.041 16.012,2.246 16.957 C 2.537 18.304,3.216 19.145,4.342 19.556 C 5.382 19.935,6.308 19.999,10.740 19.999 C 14.561 19.998,15.459 19.961,16.420 19.762 C 17.454 19.547,18.214 19.086,18.691 18.384 C 19.032 17.882,19.270 17.120,19.381 16.180 C 19.557 14.681,19.557 9.319,19.381 7.820 C 19.271 6.882,19.032 6.118,18.692 5.618 C 18.475 5.298,18.026 4.881,17.706 4.702 C 16.953 4.281,16.126 4.115,14.400 4.040 C 13.619 4.007,8.310 3.997,7.300 4.027 M11.840 8.341 C 11.977 8.412,12.146 8.597,12.197 8.733 C 12.256 8.889,12.251 9.138,12.184 9.291 C 12.154 9.362,11.794 9.820,11.384 10.309 C 10.975 10.798,10.640 11.208,10.640 11.219 C 10.640 11.231,11.068 11.240,11.590 11.240 C 12.129 11.240,12.605 11.259,12.691 11.282 C 12.879 11.335,13.115 11.537,13.186 11.708 C 13.256 11.875,13.255 12.128,13.184 12.291 C 13.103 12.479,10.475 15.611,10.351 15.668 C 9.904 15.871,9.401 15.644,9.286 15.186 C 9.196 14.830,9.245 14.742,10.102 13.710 L 10.875 12.780 9.828 12.760 C 8.642 12.737,8.609 12.729,8.384 12.409 C 8.287 12.271,8.267 12.202,8.267 12.011 C 8.267 11.884,8.289 11.738,8.317 11.686 C 8.376 11.576,10.908 8.534,11.031 8.426 C 11.233 8.248,11.588 8.211,11.840 8.341 M21.807 9.289 C 21.558 9.342,21.342 9.570,21.284 9.838 C 21.224 10.121,21.224 13.879,21.284 14.162 C 21.447 14.920,22.553 14.920,22.716 14.162 C 22.774 13.891,22.775 10.093,22.717 9.841 C 22.620 9.420,22.247 9.194,21.807 9.289 " fill="#1C274C" stroke="none" fill-rule="evenodd"></path></svg>