<svg width="24" height="24" viewBox="0 0 24 24" fill="none" xmlns="http://www.w3.org/2000/svg"><path d="M1.811 5.278 C 1.639 5.320,1.417 5.493,1.330 5.652 C 1.264 5.772,1.259 6.161,1.249 11.914 C 1.242 16.308,1.252 18.094,1.283 18.212 C 1.434 18.772,2.195 18.930,2.574 18.480 C 2.729 18.295,2.760 18.121,2.760 17.410 L 2.760 16.760 11.936 16.760 L 21.111 16.760 21.126 17.470 C 21.141 18.127,21.149 18.192,21.236 18.346 C 21.485 18.784,22.009 18.881,22.378 18.556 C 22.655 18.313,22.649 18.384,22.630 15.535 C 22.611 12.761,22.598 12.588,22.373 11.900 C 21.976 10.685,21.070 9.642,19.900 9.051 C 18.935 8.563,18.463 8.507,15.540 8.528 C 13.613 8.541,13.532 8.545,13.311 8.627 C 12.847 8.801,12.430 9.180,12.202 9.634 C 12.012 10.012,12.001 10.175,12.001 12.790 L 12.000 15.240 7.381 15.240 L 2.761 15.240 2.751 10.510 C 2.740 5.825,2.739 5.779,2.658 5.641 C 2.494 5.361,2.122 5.202,1.811 5.278 M6.392 8.582 C 5.892 8.703,5.339 9.059,5.045 9.449 C 4.689 9.921,4.521 10.418,4.521 11.000 C 4.521 11.982,5.029 12.802,5.908 13.237 C 6.565 13.563,7.435 13.563,8.092 13.237 C 8.615 12.978,8.987 12.606,9.237 12.095 C 9.564 11.424,9.564 10.576,9.237 9.905 C 8.912 9.240,8.301 8.748,7.592 8.581 C 7.281 8.507,6.697 8.508,6.392 8.582 " fill="#1C274C" stroke="none" fill-rule="evenodd"></path></svg>