<svg width="24" height="24" viewBox="0 0 24 24" fill="none" xmlns="http://www.w3.org/2000/svg"><path d="M8.300 4.025 C 7.234 4.063,6.436 4.152,5.829 4.303 C 5.316 4.430,5.011 4.561,4.612 4.825 C 3.768 5.384,3.320 6.267,3.141 7.722 C 3.057 8.410,3.001 9.755,3.001 11.125 L 3.000 12.269 2.837 12.382 C 2.472 12.635,2.177 13.076,2.070 13.527 C 2.000 13.824,2.000 16.176,2.070 16.473 C 2.215 17.085,2.683 17.624,3.272 17.854 C 3.366 17.891,3.623 17.941,3.842 17.966 L 4.240 18.011 4.240 18.984 C 4.240 19.543,4.259 20.044,4.284 20.162 C 4.447 20.920,5.553 20.920,5.716 20.162 C 5.741 20.044,5.760 19.541,5.760 18.978 L 5.760 18.000 12.000 18.000 L 18.240 18.000 18.240 18.978 C 18.240 19.541,18.259 20.044,18.284 20.162 C 18.405 20.725,19.111 20.929,19.520 20.520 C 19.733 20.307,19.760 20.135,19.760 18.984 L 19.760 18.011 20.158 17.966 C 20.377 17.941,20.634 17.891,20.728 17.854 C 21.317 17.624,21.785 17.085,21.930 16.473 C 22.000 16.176,22.000 13.824,21.930 13.527 C 21.824 13.079,21.528 12.635,21.169 12.386 L 21.012 12.278 20.987 10.529 C 20.956 8.300,20.875 7.392,20.636 6.583 C 20.476 6.044,20.104 5.416,19.760 5.105 C 19.092 4.501,18.288 4.229,16.720 4.076 C 16.296 4.035,9.239 3.992,8.300 4.025 M16.555 5.801 C 18.238 5.974,19.026 6.762,19.199 8.445 C 19.221 8.667,19.240 9.558,19.240 10.424 L 19.240 12.000 12.000 12.000 L 4.760 12.000 4.760 10.424 C 4.760 8.772,4.792 8.246,4.921 7.731 C 5.209 6.587,6.028 5.947,7.384 5.804 C 7.858 5.754,16.070 5.752,16.555 5.801 M7.920 7.283 C 6.845 7.340,6.556 7.489,6.383 8.078 C 6.299 8.367,6.232 9.288,6.248 9.960 L 6.260 10.500 8.750 10.510 L 11.240 10.521 11.240 8.880 L 11.240 7.240 9.870 7.246 C 9.117 7.250,8.239 7.266,7.920 7.283 M12.760 8.854 L 12.760 10.480 15.266 10.480 L 17.772 10.480 17.743 9.590 C 17.701 8.257,17.630 7.872,17.379 7.621 C 17.087 7.329,16.722 7.282,14.530 7.252 L 12.760 7.228 12.760 8.854 " fill="#1C274C" stroke="none" fill-rule="evenodd"></path></svg>