<svg width="24" height="24" viewBox="0 0 24 24" fill="none" xmlns="http://www.w3.org/2000/svg"><path d="M7.040 1.785 C 5.929 1.839,5.052 1.961,4.507 2.139 C 3.188 2.569,2.461 3.494,2.201 5.069 C 2.120 5.561,2.040 6.409,2.040 6.782 L 2.040 7.000 12.000 7.000 L 21.960 7.000 21.960 6.782 C 21.960 6.409,21.880 5.561,21.799 5.069 C 21.495 3.224,20.567 2.280,18.742 1.960 C 17.789 1.793,17.601 1.788,12.360 1.780 C 9.577 1.776,7.183 1.778,7.040 1.785 M2.011 11.830 C 2.030 15.120,2.045 15.522,2.184 16.380 C 2.406 17.757,2.980 18.647,3.966 19.143 L 4.237 19.279 4.248 20.610 C 4.259 21.869,4.264 21.949,4.344 22.100 C 4.462 22.327,4.736 22.489,5.000 22.489 C 5.264 22.489,5.538 22.327,5.656 22.100 C 5.735 21.950,5.741 21.866,5.752 20.785 L 5.764 19.629 6.032 19.657 C 6.612 19.717,8.056 19.758,9.610 19.759 L 11.240 19.760 11.240 14.140 L 11.240 8.520 6.616 8.520 L 1.993 8.520 2.011 11.830 M12.760 14.140 L 12.760 19.760 14.010 19.759 C 15.323 19.757,17.352 19.704,17.907 19.657 L 18.234 19.629 18.247 20.784 L 18.260 21.940 18.369 22.126 C 18.445 22.255,18.532 22.338,18.652 22.396 C 19.016 22.573,19.436 22.457,19.631 22.126 L 19.740 21.940 19.754 20.600 L 19.768 19.260 20.045 19.127 C 21.081 18.629,21.647 17.662,21.859 16.026 C 21.960 15.250,21.999 13.891,21.999 11.130 L 22.000 8.520 17.380 8.520 L 12.760 8.520 12.760 14.140 M9.302 11.075 C 9.483 11.158,9.665 11.353,9.710 11.513 C 9.727 11.572,9.740 12.367,9.740 13.280 L 9.740 14.940 9.640 15.114 C 9.355 15.612,8.645 15.612,8.360 15.114 L 8.260 14.940 8.260 13.280 C 8.260 12.367,8.273 11.572,8.290 11.513 C 8.363 11.251,8.710 11.002,9.000 11.002 C 9.077 11.002,9.213 11.035,9.302 11.075 M15.302 11.075 C 15.497 11.164,15.663 11.352,15.721 11.552 C 15.751 11.651,15.761 12.240,15.752 13.343 L 15.740 14.986 15.630 15.152 C 15.335 15.598,14.665 15.598,14.370 15.152 L 14.260 14.986 14.248 13.343 C 14.239 12.240,14.249 11.651,14.279 11.552 C 14.368 11.248,14.691 11.002,15.000 11.002 C 15.077 11.002,15.213 11.035,15.302 11.075 " fill="#1C274C" stroke="none" fill-rule="evenodd"></path></svg>