<svg width="24" height="24" viewBox="0 0 24 24" fill="none" xmlns="http://www.w3.org/2000/svg"><path d="M7.300 2.026 C 6.601 2.050,5.735 2.126,5.300 2.200 C 3.429 2.521,2.499 3.464,2.186 5.360 C 2.108 5.833,2.040 6.568,2.040 6.950 L 2.040 7.240 12.000 7.240 L 21.960 7.240 21.960 6.950 C 21.960 6.568,21.892 5.833,21.814 5.360 C 21.496 3.436,20.530 2.481,18.599 2.183 C 17.675 2.041,17.292 2.030,12.460 2.022 C 9.820 2.017,7.498 2.019,7.300 2.026 M2.000 11.000 L 2.000 13.240 12.000 13.240 L 22.000 13.240 22.000 11.000 L 22.000 8.760 12.000 8.760 L 2.000 8.760 2.000 11.000 M2.055 15.270 C 2.136 16.819,2.345 17.663,2.825 18.387 C 3.121 18.835,3.480 19.145,4.001 19.403 L 4.240 19.522 4.240 20.739 C 4.240 21.477,4.257 22.037,4.284 22.162 C 4.447 22.920,5.553 22.920,5.716 22.162 C 5.742 22.042,5.760 21.524,5.760 20.913 L 5.760 19.869 6.028 19.896 C 6.764 19.972,8.297 19.998,12.000 19.998 C 15.703 19.998,17.236 19.972,17.972 19.896 L 18.240 19.869 18.240 20.913 C 18.240 21.524,18.258 22.042,18.284 22.162 C 18.447 22.920,19.553 22.920,19.716 22.162 C 19.743 22.037,19.760 21.477,19.760 20.739 L 19.760 19.522 19.999 19.403 C 20.520 19.145,20.879 18.835,21.175 18.387 C 21.655 17.663,21.864 16.819,21.945 15.270 L 21.972 14.760 12.000 14.760 L 2.028 14.760 2.055 15.270 M12.512 16.147 C 13.142 16.534,13.154 17.446,12.535 17.839 C 12.060 18.141,11.442 17.992,11.141 17.503 C 11.034 17.329,11.020 17.271,11.020 17.003 C 11.020 16.744,11.036 16.673,11.131 16.511 C 11.339 16.158,11.660 15.988,12.072 16.015 C 12.261 16.027,12.371 16.060,12.512 16.147 " fill="#1C274C" stroke="none" fill-rule="evenodd"></path></svg>