<svg width="24" height="24" viewBox="0 0 24 24" fill="none" xmlns="http://www.w3.org/2000/svg"><path d="M7.300 2.026 C 6.601 2.050,5.735 2.126,5.300 2.200 C 3.421 2.523,2.492 3.471,2.184 5.380 C 2.063 6.129,2.035 6.619,2.012 8.430 L 1.989 10.240 12.000 10.240 L 22.011 10.240 21.988 8.430 C 21.965 6.619,21.937 6.129,21.816 5.380 C 21.503 3.442,20.537 2.482,18.599 2.183 C 17.675 2.041,17.292 2.030,12.460 2.022 C 9.820 2.017,7.498 2.019,7.300 2.026 M15.267 5.803 C 15.540 5.905,15.731 6.193,15.731 6.500 C 15.731 6.807,15.540 7.095,15.267 7.197 C 15.191 7.226,14.132 7.240,12.000 7.240 C 9.868 7.240,8.809 7.226,8.733 7.197 C 8.460 7.095,8.269 6.807,8.269 6.500 C 8.269 6.200,8.458 5.909,8.720 5.805 C 8.863 5.748,15.117 5.746,15.267 5.803 M2.012 13.490 C 2.043 15.654,2.098 16.348,2.302 17.171 C 2.572 18.255,3.109 18.961,4.001 19.403 L 4.240 19.522 4.240 20.739 C 4.240 21.477,4.257 22.037,4.284 22.162 C 4.447 22.920,5.553 22.920,5.716 22.162 C 5.742 22.042,5.760 21.524,5.760 20.913 L 5.760 19.869 6.028 19.896 C 6.764 19.972,8.297 19.998,12.000 19.998 C 15.703 19.998,17.236 19.972,17.972 19.896 L 18.240 19.869 18.240 20.913 C 18.240 22.140,18.265 22.305,18.480 22.520 C 18.889 22.929,19.595 22.725,19.716 22.162 C 19.743 22.037,19.760 21.477,19.760 20.739 L 19.760 19.522 19.999 19.403 C 20.828 18.992,21.390 18.298,21.652 17.360 C 21.895 16.491,21.998 15.159,21.999 12.870 L 22.000 11.760 11.994 11.760 L 1.988 11.760 2.012 13.490 M15.267 14.803 C 15.516 14.896,15.758 15.241,15.758 15.500 C 15.758 15.759,15.516 16.104,15.267 16.197 C 15.191 16.226,14.132 16.240,12.000 16.240 C 9.868 16.240,8.809 16.226,8.733 16.197 C 8.484 16.104,8.242 15.759,8.242 15.500 C 8.242 15.347,8.363 15.078,8.485 14.961 C 8.698 14.758,8.601 14.763,11.987 14.762 C 14.132 14.761,15.191 14.774,15.267 14.803 " fill="#1C274C" stroke="none" fill-rule="evenodd"></path></svg>