<svg width="24" height="24" viewBox="0 0 24 24" fill="none" xmlns="http://www.w3.org/2000/svg"><path d="M11.280 2.045 C 10.477 2.137,9.845 2.329,9.060 2.719 C 7.284 3.600,5.973 5.252,5.482 7.225 C 5.317 7.887,5.283 8.200,5.243 9.385 C 5.212 10.297,5.196 10.467,5.106 10.811 C 4.961 11.367,4.734 11.811,4.058 12.860 C 3.353 13.954,3.236 14.165,3.115 14.560 C 2.996 14.945,2.985 15.642,3.091 16.040 C 3.313 16.873,3.931 17.599,4.673 17.900 C 4.972 18.022,6.000 18.285,6.857 18.460 C 10.206 19.143,13.794 19.143,17.143 18.460 C 18.000 18.285,19.028 18.022,19.327 17.900 C 20.065 17.600,20.693 16.861,20.908 16.040 C 21.014 15.636,21.003 14.940,20.885 14.561 C 20.756 14.145,20.692 14.029,19.977 12.920 C 19.279 11.836,19.054 11.402,18.899 10.839 C 18.805 10.499,18.790 10.354,18.759 9.420 C 18.720 8.266,18.711 8.162,18.593 7.560 C 18.185 5.467,16.813 3.649,14.940 2.719 C 14.632 2.566,14.218 2.389,14.020 2.325 C 13.145 2.044,12.164 1.943,11.280 2.045 M14.312 8.370 C 14.623 8.576,14.736 9.024,14.560 9.352 C 14.517 9.433,13.889 10.112,13.165 10.860 L 11.849 12.220 12.997 12.240 L 14.146 12.260 14.308 12.367 C 14.779 12.679,14.733 13.432,14.228 13.676 C 14.052 13.761,14.028 13.762,11.952 13.751 L 9.854 13.740 9.688 13.630 C 9.377 13.424,9.264 12.976,9.440 12.648 C 9.483 12.567,10.112 11.888,10.836 11.140 L 12.153 9.780 11.006 9.760 C 9.892 9.741,9.856 9.737,9.710 9.647 C 9.627 9.595,9.512 9.473,9.455 9.375 C 9.244 9.016,9.394 8.511,9.767 8.325 C 9.939 8.239,9.957 8.239,12.043 8.249 L 14.146 8.260 14.312 8.370 M8.462 20.379 C 8.524 20.461,8.693 20.635,8.837 20.766 C 9.767 21.613,10.966 22.049,12.197 21.988 C 13.416 21.929,14.432 21.484,15.294 20.630 C 15.490 20.436,15.644 20.271,15.635 20.263 C 15.627 20.255,15.332 20.282,14.980 20.322 C 13.159 20.529,11.028 20.535,9.160 20.339 C 8.841 20.306,8.528 20.268,8.465 20.255 L 8.349 20.231 8.462 20.379 " fill="#1C274C" stroke="none" fill-rule="evenodd"></path></svg>