<svg width="24" height="24" viewBox="0 0 24 24" fill="none" xmlns="http://www.w3.org/2000/svg"><path d="M11.280 2.045 C 10.477 2.137,9.845 2.329,9.060 2.719 C 7.284 3.600,5.973 5.252,5.482 7.225 C 5.317 7.887,5.283 8.200,5.243 9.385 C 5.212 10.297,5.196 10.467,5.106 10.811 C 4.961 11.367,4.734 11.811,4.058 12.860 C 3.353 13.954,3.236 14.165,3.115 14.560 C 2.996 14.945,2.985 15.642,3.091 16.040 C 3.313 16.873,3.931 17.599,4.673 17.900 C 4.972 18.022,6.000 18.285,6.857 18.460 C 10.206 19.143,13.794 19.143,17.143 18.460 C 18.000 18.285,19.028 18.022,19.327 17.900 C 20.065 17.600,20.693 16.861,20.908 16.040 C 21.014 15.636,21.003 14.940,20.885 14.561 C 20.756 14.145,20.692 14.029,19.977 12.920 C 19.279 11.836,19.054 11.402,18.899 10.839 C 18.805 10.499,18.790 10.354,18.759 9.420 C 18.720 8.266,18.711 8.162,18.593 7.560 C 18.185 5.467,16.813 3.649,14.940 2.719 C 14.632 2.566,14.218 2.389,14.020 2.325 C 13.145 2.044,12.164 1.943,11.280 2.045 M12.271 5.302 C 12.468 5.384,12.595 5.506,12.684 5.700 C 12.753 5.849,12.758 6.004,12.758 8.000 C 12.758 9.996,12.753 10.151,12.684 10.300 C 12.406 10.904,11.594 10.904,11.316 10.300 C 11.247 10.151,11.242 9.995,11.241 8.009 C 11.240 6.174,11.249 5.857,11.302 5.729 C 11.384 5.532,11.506 5.405,11.700 5.316 C 11.897 5.225,12.076 5.221,12.271 5.302 M8.462 20.379 C 8.524 20.461,8.693 20.635,8.837 20.766 C 9.767 21.613,10.966 22.049,12.197 21.988 C 13.416 21.929,14.432 21.484,15.294 20.630 C 15.490 20.436,15.644 20.271,15.635 20.263 C 15.627 20.255,15.332 20.282,14.980 20.322 C 13.159 20.529,11.028 20.535,9.160 20.339 C 8.841 20.306,8.528 20.268,8.465 20.255 L 8.349 20.231 8.462 20.379 " fill="#1C274C" stroke="none" fill-rule="evenodd"></path></svg>