<svg width="24" height="24" viewBox="0 0 24 24" fill="none" xmlns="http://www.w3.org/2000/svg"><path d="M11.610 4.047 C 11.321 4.111,10.614 4.501,8.500 5.759 C 6.512 6.943,6.099 7.196,5.790 7.423 L 5.640 7.533 3.940 6.400 L 2.239 5.267 2.002 5.267 C 1.810 5.267,1.732 5.288,1.600 5.375 C 1.227 5.622,1.138 6.118,1.406 6.459 C 1.453 6.519,2.281 7.094,3.247 7.738 L 5.002 8.908 5.002 12.004 L 5.003 15.100 3.220 16.291 C 1.979 17.120,1.414 17.520,1.361 17.608 C 1.032 18.150,1.504 18.844,2.130 18.738 C 2.250 18.718,2.725 18.422,3.970 17.593 C 5.586 16.516,5.651 16.478,5.734 16.539 C 6.243 16.915,10.222 19.297,11.000 19.692 C 11.820 20.108,12.193 20.104,13.040 19.670 C 13.558 19.404,17.282 17.203,17.880 16.808 C 18.292 16.536,18.634 16.203,18.750 15.960 C 18.981 15.478,18.975 15.566,18.991 12.180 L 19.005 9.060 20.766 7.803 C 22.720 6.410,22.739 6.392,22.739 6.004 C 22.739 5.728,22.643 5.548,22.409 5.384 C 22.270 5.286,22.203 5.267,22.003 5.267 C 21.716 5.267,21.876 5.167,19.980 6.519 C 19.188 7.084,18.518 7.559,18.490 7.575 C 18.460 7.593,18.348 7.535,18.210 7.429 C 17.890 7.184,17.793 7.124,15.500 5.759 C 13.311 4.456,12.683 4.113,12.361 4.044 C 12.121 3.992,11.848 3.993,11.610 4.047 M16.267 13.803 C 16.404 13.854,16.589 14.023,16.658 14.160 C 16.805 14.450,16.756 14.764,16.527 15.002 C 16.346 15.190,12.330 17.587,12.135 17.624 C 11.749 17.696,11.365 17.437,11.277 17.046 C 11.228 16.830,11.292 16.569,11.434 16.405 C 11.523 16.302,15.487 13.902,15.740 13.798 C 15.855 13.751,16.136 13.753,16.267 13.803 " fill="#1C274C" stroke="none" fill-rule="evenodd"></path></svg>