<svg width="24" height="24" viewBox="0 0 24 24" fill="none" xmlns="http://www.w3.org/2000/svg"><path d="M13.580 2.044 C 12.697 2.224,12.000 3.087,12.000 4.000 C 12.000 5.080,12.920 6.000,14.000 6.000 C 15.080 6.000,16.000 5.080,16.000 4.000 C 16.000 3.167,15.447 2.392,14.657 2.118 C 14.379 2.022,13.864 1.986,13.580 2.044 M9.140 6.659 C 7.780 6.913,6.714 7.948,6.439 9.283 C 6.209 10.396,6.521 11.489,7.307 12.321 C 7.724 12.763,7.991 12.911,9.796 13.700 C 10.711 14.100,11.515 14.456,11.582 14.490 C 11.781 14.594,12.023 14.887,12.100 15.119 C 12.225 15.497,12.179 15.698,11.726 16.746 C 11.245 17.858,11.230 17.908,11.286 18.170 C 11.372 18.570,11.779 18.817,12.186 18.714 C 12.513 18.632,12.613 18.487,13.050 17.458 C 13.605 16.150,13.609 16.137,13.631 15.599 C 13.653 15.047,13.597 14.777,13.357 14.289 C 13.172 13.910,12.836 13.525,12.493 13.297 C 12.370 13.216,11.513 12.819,10.588 12.414 C 9.663 12.010,8.833 11.636,8.743 11.584 C 8.140 11.230,7.756 10.394,7.878 9.695 C 8.097 8.433,9.468 7.723,10.585 8.293 C 10.692 8.348,11.338 8.837,12.020 9.379 C 13.296 10.394,13.566 10.568,14.040 10.686 C 14.212 10.728,14.743 10.740,16.480 10.740 C 18.951 10.740,18.816 10.754,19.072 10.463 C 19.371 10.123,19.258 9.589,18.836 9.340 C 18.706 9.263,18.609 9.259,16.500 9.240 C 14.478 9.222,14.289 9.214,14.168 9.148 C 14.095 9.108,13.537 8.678,12.928 8.191 C 11.728 7.233,11.405 7.005,11.026 6.851 C 10.468 6.623,9.735 6.549,9.140 6.659 M5.560 14.279 C 4.585 14.403,3.627 14.939,3.064 15.676 C 2.520 16.388,2.266 17.130,2.266 18.000 C 2.266 20.089,3.911 21.734,6.000 21.734 C 7.782 21.734,9.267 20.537,9.663 18.780 C 9.766 18.323,9.758 17.611,9.644 17.140 C 9.482 16.464,9.040 15.704,8.549 15.255 C 7.754 14.528,6.591 14.149,5.560 14.279 M17.560 14.279 C 16.585 14.403,15.627 14.939,15.064 15.676 C 14.520 16.388,14.266 17.130,14.266 18.000 C 14.266 20.089,15.911 21.734,18.000 21.734 C 19.782 21.734,21.267 20.537,21.663 18.780 C 21.766 18.323,21.758 17.611,21.644 17.140 C 21.482 16.464,21.040 15.704,20.549 15.255 C 19.754 14.528,18.591 14.149,17.560 14.279 M6.488 15.804 C 7.107 15.932,7.739 16.429,8.011 17.003 C 8.439 17.904,8.276 18.888,7.584 19.580 C 7.131 20.033,6.635 20.239,6.000 20.239 C 5.365 20.239,4.869 20.033,4.416 19.580 C 3.972 19.136,3.760 18.625,3.760 18.000 C 3.760 17.624,3.822 17.355,3.989 17.003 C 4.252 16.448,4.850 15.963,5.451 15.817 C 5.715 15.753,6.213 15.747,6.488 15.804 M18.488 15.804 C 19.107 15.932,19.739 16.429,20.011 17.003 C 20.439 17.904,20.276 18.888,19.584 19.580 C 19.131 20.033,18.635 20.239,18.000 20.239 C 17.365 20.239,16.869 20.033,16.416 19.580 C 15.972 19.136,15.760 18.625,15.760 18.000 C 15.760 17.624,15.822 17.355,15.989 17.003 C 16.252 16.448,16.850 15.963,17.451 15.817 C 17.715 15.753,18.213 15.747,18.488 15.804 " fill="#1C274C" stroke="none" fill-rule="evenodd"></path></svg>