<svg width="24" height="24" viewBox="0 0 24 24" fill="none" xmlns="http://www.w3.org/2000/svg"><path d="M14.580 2.044 C 13.697 2.224,13.000 3.087,13.000 4.000 C 13.000 5.080,13.920 6.000,15.000 6.000 C 16.080 6.000,17.000 5.080,17.000 4.000 C 17.000 3.167,16.447 2.392,15.657 2.118 C 15.379 2.022,14.864 1.986,14.580 2.044 M9.735 5.856 C 9.291 5.964,8.924 6.266,8.445 6.918 C 7.927 7.621,6.409 9.827,6.176 10.214 C 5.885 10.697,5.788 11.022,5.806 11.451 C 5.824 11.862,5.962 12.169,6.260 12.460 C 6.563 12.755,6.927 12.943,8.656 13.702 C 11.464 14.934,11.517 14.973,11.519 15.808 C 11.520 16.159,11.488 16.432,11.304 17.644 C 11.231 18.123,11.269 18.309,11.480 18.520 C 11.832 18.872,12.448 18.781,12.655 18.345 C 12.727 18.194,12.930 16.971,13.001 16.260 C 13.128 15.006,12.781 14.192,11.860 13.579 C 11.465 13.316,10.947 13.067,9.320 12.361 C 8.012 11.793,7.325 11.460,7.294 11.379 C 7.256 11.278,7.529 10.836,8.441 9.520 C 9.592 7.859,9.800 7.571,9.957 7.421 L 10.082 7.303 10.224 7.379 C 10.302 7.421,10.919 7.997,11.594 8.658 C 12.865 9.901,13.196 10.173,13.731 10.419 C 14.350 10.702,15.090 10.772,17.290 10.752 C 18.855 10.739,18.826 10.743,19.072 10.463 C 19.371 10.123,19.258 9.589,18.836 9.340 C 18.707 9.264,18.604 9.259,16.740 9.236 C 15.626 9.222,14.720 9.194,14.640 9.171 C 14.141 9.028,13.993 8.911,12.657 7.600 C 11.219 6.188,10.975 5.996,10.453 5.860 C 10.183 5.789,10.015 5.789,9.735 5.856 M5.560 14.279 C 4.585 14.403,3.627 14.939,3.064 15.676 C 2.520 16.388,2.266 17.130,2.266 18.000 C 2.266 20.089,3.911 21.734,6.000 21.734 C 7.782 21.734,9.267 20.537,9.663 18.780 C 9.766 18.323,9.758 17.611,9.644 17.140 C 9.482 16.464,9.040 15.704,8.549 15.255 C 7.754 14.528,6.591 14.149,5.560 14.279 M17.560 14.279 C 16.585 14.403,15.627 14.939,15.064 15.676 C 14.520 16.388,14.266 17.130,14.266 18.000 C 14.266 20.089,15.911 21.734,18.000 21.734 C 19.782 21.734,21.267 20.537,21.663 18.780 C 21.766 18.323,21.758 17.611,21.644 17.140 C 21.482 16.464,21.040 15.704,20.549 15.255 C 19.754 14.528,18.591 14.149,17.560 14.279 M6.488 15.804 C 7.107 15.932,7.739 16.429,8.011 17.003 C 8.439 17.904,8.276 18.888,7.584 19.580 C 7.131 20.033,6.635 20.239,6.000 20.239 C 5.365 20.239,4.869 20.033,4.416 19.580 C 3.972 19.136,3.760 18.625,3.760 18.000 C 3.760 17.624,3.822 17.355,3.989 17.003 C 4.252 16.448,4.850 15.963,5.451 15.817 C 5.715 15.753,6.213 15.747,6.488 15.804 M18.488 15.804 C 19.107 15.932,19.739 16.429,20.011 17.003 C 20.439 17.904,20.276 18.888,19.584 19.580 C 19.131 20.033,18.635 20.239,18.000 20.239 C 17.365 20.239,16.869 20.033,16.416 19.580 C 15.972 19.136,15.760 18.625,15.760 18.000 C 15.760 17.624,15.822 17.355,15.989 17.003 C 16.252 16.448,16.850 15.963,17.451 15.817 C 17.715 15.753,18.213 15.747,18.488 15.804 " fill="#1C274C" stroke="none" fill-rule="evenodd"></path></svg>