<svg width="24" height="24" viewBox="0 0 24 24" fill="none" xmlns="http://www.w3.org/2000/svg"><path d="M5.700 2.039 C 4.469 2.151,3.466 3.014,3.109 4.266 L 3.020 4.580 3.009 12.540 C 3.000 18.537,3.008 20.542,3.044 20.670 C 3.103 20.885,3.367 21.189,3.578 21.285 C 3.902 21.432,4.326 21.359,4.626 21.106 C 4.809 20.952,5.007 20.880,5.249 20.881 C 5.547 20.882,5.727 20.979,6.178 21.380 C 6.428 21.601,6.670 21.776,6.837 21.855 C 7.077 21.969,7.135 21.980,7.500 21.980 C 7.865 21.980,7.923 21.969,8.160 21.856 C 8.303 21.788,8.499 21.666,8.596 21.584 C 9.009 21.237,9.429 21.093,9.899 21.136 C 10.247 21.169,10.512 21.288,10.923 21.598 C 11.639 22.137,12.361 22.137,13.077 21.598 C 13.488 21.288,13.753 21.169,14.101 21.136 C 14.571 21.093,14.991 21.237,15.404 21.584 C 15.501 21.666,15.697 21.788,15.840 21.856 C 16.077 21.969,16.135 21.980,16.500 21.980 C 16.865 21.980,16.923 21.969,17.163 21.855 C 17.330 21.776,17.572 21.601,17.822 21.380 C 18.273 20.979,18.453 20.882,18.751 20.881 C 18.993 20.880,19.191 20.952,19.374 21.106 C 19.674 21.359,20.098 21.432,20.422 21.285 C 20.633 21.189,20.897 20.885,20.956 20.670 C 20.992 20.542,21.000 18.542,20.991 12.540 L 20.980 4.580 20.890 4.266 C 20.588 3.202,19.801 2.400,18.772 2.110 L 18.460 2.022 12.240 2.016 C 8.819 2.013,5.876 2.023,5.700 2.039 M7.820 6.835 C 8.010 6.923,8.096 7.012,8.178 7.210 C 8.287 7.470,8.232 7.810,8.048 8.013 C 7.892 8.186,7.704 8.240,7.264 8.240 C 6.803 8.240,6.676 8.208,6.506 8.047 C 6.339 7.889,6.269 7.727,6.269 7.500 C 6.269 7.273,6.339 7.111,6.506 6.952 C 6.676 6.792,6.779 6.765,7.240 6.763 C 7.565 6.762,7.696 6.778,7.820 6.835 M17.267 6.803 C 17.540 6.905,17.731 7.193,17.731 7.500 C 17.731 7.807,17.540 8.095,17.267 8.197 C 17.191 8.226,16.054 8.240,13.736 8.240 C 10.460 8.240,10.311 8.237,10.168 8.164 C 9.985 8.071,9.901 7.980,9.822 7.790 C 9.713 7.530,9.768 7.193,9.952 6.986 C 9.989 6.943,10.092 6.876,10.180 6.835 C 10.331 6.766,10.527 6.762,13.747 6.761 C 16.060 6.760,17.191 6.774,17.267 6.803 M7.820 10.330 C 8.304 10.583,8.389 11.196,7.989 11.546 C 7.782 11.728,7.611 11.771,7.165 11.753 C 6.714 11.735,6.568 11.671,6.384 11.409 C 6.098 11.003,6.327 10.402,6.815 10.276 C 7.019 10.223,7.684 10.259,7.820 10.330 M17.388 10.367 C 17.628 10.526,17.733 10.721,17.733 11.007 C 17.733 11.203,17.714 11.271,17.616 11.409 C 17.552 11.501,17.436 11.613,17.359 11.658 C 17.222 11.739,17.165 11.740,13.802 11.751 L 10.384 11.762 10.182 11.662 C 9.547 11.349,9.650 10.446,10.340 10.277 C 10.406 10.260,11.982 10.250,13.843 10.254 L 17.226 10.260 17.388 10.367 M7.820 13.835 C 8.010 13.923,8.096 14.012,8.178 14.210 C 8.287 14.470,8.232 14.810,8.048 15.013 C 7.892 15.186,7.704 15.240,7.264 15.240 C 6.803 15.240,6.676 15.208,6.506 15.047 C 6.339 14.889,6.269 14.727,6.269 14.500 C 6.269 14.273,6.339 14.111,6.506 13.952 C 6.676 13.792,6.779 13.765,7.240 13.763 C 7.565 13.762,7.696 13.778,7.820 13.835 M17.267 13.803 C 17.540 13.905,17.731 14.193,17.731 14.500 C 17.731 14.807,17.540 15.095,17.267 15.197 C 17.191 15.226,16.054 15.240,13.736 15.240 C 10.460 15.240,10.311 15.237,10.168 15.164 C 9.985 15.071,9.901 14.980,9.822 14.790 C 9.713 14.530,9.768 14.193,9.952 13.986 C 9.989 13.943,10.092 13.876,10.180 13.835 C 10.331 13.766,10.527 13.762,13.747 13.761 C 16.060 13.760,17.191 13.774,17.267 13.803 " fill="#1C274C" stroke="none" fill-rule="evenodd"></path></svg>