<svg width="24" height="24" viewBox="0 0 24 24" fill="none" xmlns="http://www.w3.org/2000/svg"><path d="M5.530 2.044 C 4.525 2.212,3.584 2.995,3.223 3.965 C 2.989 4.594,3.000 4.165,3.000 12.656 L 3.000 20.466 3.110 20.683 C 3.256 20.971,3.479 21.127,3.780 21.152 C 4.098 21.178,4.319 21.083,4.531 20.831 C 4.814 20.492,5.178 20.371,5.533 20.498 C 5.742 20.573,5.803 20.634,6.187 21.150 C 6.560 21.652,6.787 21.843,7.123 21.938 C 7.405 22.017,7.610 22.017,7.879 21.937 C 8.171 21.850,8.346 21.725,8.649 21.387 C 8.800 21.220,8.999 21.049,9.124 20.979 C 9.323 20.869,9.371 20.860,9.740 20.860 C 10.315 20.860,10.412 20.913,11.020 21.560 C 11.311 21.869,11.570 21.980,12.000 21.980 C 12.430 21.980,12.689 21.869,12.980 21.560 C 13.383 21.131,13.472 21.052,13.664 20.957 C 13.832 20.874,13.917 20.860,14.260 20.860 C 14.629 20.860,14.677 20.869,14.876 20.979 C 15.001 21.049,15.200 21.220,15.351 21.387 C 15.654 21.725,15.829 21.850,16.121 21.937 C 16.390 22.017,16.595 22.017,16.877 21.938 C 17.200 21.847,17.449 21.646,17.733 21.248 C 18.183 20.614,18.409 20.440,18.780 20.441 C 18.983 20.441,19.287 20.612,19.469 20.831 C 19.681 21.083,19.902 21.178,20.220 21.152 C 20.521 21.127,20.744 20.971,20.890 20.683 L 21.000 20.466 20.999 12.663 C 20.997 6.268,20.987 4.806,20.943 4.560 C 20.709 3.266,19.693 2.245,18.440 2.043 C 18.118 1.991,5.842 1.992,5.530 2.044 M10.340 7.330 C 10.384 7.352,10.775 7.723,11.210 8.154 L 12.000 8.937 12.790 8.154 C 13.225 7.723,13.625 7.347,13.680 7.318 C 13.846 7.232,14.207 7.253,14.377 7.358 C 14.611 7.503,14.733 7.721,14.733 7.992 C 14.733 8.118,14.710 8.265,14.682 8.320 C 14.653 8.375,14.277 8.775,13.846 9.210 L 13.063 10.000 13.846 10.790 C 14.277 11.225,14.653 11.625,14.682 11.680 C 14.710 11.735,14.733 11.882,14.733 12.008 C 14.733 12.509,14.284 12.849,13.795 12.719 C 13.645 12.680,13.505 12.559,12.810 11.868 L 12.000 11.063 11.190 11.868 C 10.495 12.559,10.355 12.680,10.205 12.719 C 9.716 12.849,9.267 12.509,9.267 12.008 C 9.267 11.882,9.290 11.735,9.318 11.680 C 9.347 11.625,9.723 11.225,10.154 10.790 L 10.937 10.000 10.154 9.210 C 9.723 8.775,9.347 8.375,9.318 8.320 C 9.233 8.156,9.253 7.793,9.356 7.626 C 9.462 7.456,9.640 7.320,9.815 7.277 C 9.956 7.243,10.220 7.269,10.340 7.330 M16.820 14.835 C 17.010 14.923,17.096 15.012,17.178 15.210 C 17.257 15.398,17.257 15.602,17.178 15.790 C 17.099 15.980,17.015 16.071,16.832 16.164 C 16.688 16.237,16.517 16.240,12.000 16.240 C 7.483 16.240,7.312 16.237,7.168 16.164 C 6.985 16.071,6.901 15.980,6.822 15.790 C 6.713 15.530,6.768 15.193,6.952 14.986 C 6.989 14.943,7.092 14.876,7.180 14.835 C 7.332 14.765,7.563 14.762,12.000 14.762 C 16.437 14.762,16.668 14.765,16.820 14.835 " fill="#1C274C" stroke="none" fill-rule="evenodd"></path></svg>