<svg width="24" height="24" viewBox="0 0 24 24" fill="none" xmlns="http://www.w3.org/2000/svg"><path d="M1.811 1.279 C 1.536 1.344,1.316 1.587,1.260 1.885 C 1.197 2.220,1.450 2.624,1.781 2.715 C 1.878 2.742,2.342 2.760,2.970 2.760 L 4.000 2.760 4.000 8.162 C 4.000 11.751,4.014 13.693,4.043 13.949 C 4.130 14.730,4.358 15.196,4.939 15.781 C 5.301 16.146,8.950 19.346,9.574 19.847 C 10.635 20.698,11.271 21.000,12.000 21.000 C 12.735 21.000,13.318 20.724,14.392 19.868 C 15.084 19.317,18.673 16.173,19.066 15.773 C 19.651 15.180,19.870 14.731,19.957 13.949 C 19.986 13.693,20.000 11.751,20.000 8.162 L 20.000 2.760 21.030 2.760 C 21.658 2.760,22.122 2.742,22.219 2.715 C 22.431 2.657,22.660 2.422,22.719 2.204 C 22.808 1.873,22.689 1.566,22.394 1.372 L 22.226 1.260 12.083 1.254 C 6.504 1.251,1.882 1.262,1.811 1.279 M15.820 7.326 C 16.402 7.649,16.380 8.407,15.780 8.684 C 15.628 8.755,15.439 8.758,12.000 8.758 C 8.561 8.758,8.372 8.755,8.220 8.684 C 7.699 8.443,7.595 7.818,8.015 7.450 C 8.095 7.379,8.211 7.310,8.271 7.297 C 8.331 7.284,8.398 7.267,8.420 7.259 C 8.442 7.251,10.089 7.249,12.080 7.253 C 15.370 7.259,15.711 7.266,15.820 7.326 M15.820 12.326 C 16.402 12.649,16.380 13.407,15.780 13.684 C 15.628 13.755,15.439 13.758,12.000 13.758 C 8.561 13.758,8.372 13.755,8.220 13.684 C 7.699 13.443,7.595 12.818,8.015 12.450 C 8.095 12.379,8.211 12.310,8.271 12.297 C 8.331 12.284,8.398 12.267,8.420 12.259 C 8.442 12.251,10.089 12.249,12.080 12.253 C 15.370 12.259,15.711 12.266,15.820 12.326 " fill="#1C274C" stroke="none" fill-rule="evenodd"></path></svg>