<svg width="24" height="24" viewBox="0 0 24 24" fill="none" xmlns="http://www.w3.org/2000/svg"><path d="M5.700 2.039 C 4.469 2.151,3.466 3.014,3.109 4.266 L 3.020 4.580 3.009 12.540 C 3.000 18.537,3.008 20.542,3.044 20.670 C 3.103 20.885,3.367 21.189,3.578 21.285 C 3.902 21.432,4.326 21.359,4.626 21.106 C 4.809 20.952,5.007 20.880,5.249 20.881 C 5.547 20.882,5.727 20.979,6.178 21.380 C 6.428 21.601,6.670 21.776,6.837 21.855 C 7.077 21.969,7.135 21.980,7.500 21.980 C 7.865 21.980,7.923 21.969,8.160 21.856 C 8.303 21.788,8.499 21.666,8.596 21.584 C 9.009 21.237,9.429 21.093,9.899 21.136 C 10.247 21.169,10.512 21.288,10.923 21.598 C 11.639 22.137,12.361 22.137,13.077 21.598 C 13.488 21.288,13.753 21.169,14.101 21.136 C 14.571 21.093,14.991 21.237,15.404 21.584 C 15.501 21.666,15.697 21.788,15.840 21.856 C 16.077 21.969,16.135 21.980,16.500 21.980 C 16.865 21.980,16.923 21.969,17.163 21.855 C 17.330 21.776,17.572 21.601,17.822 21.380 C 18.273 20.979,18.453 20.882,18.751 20.881 C 18.993 20.880,19.191 20.952,19.374 21.106 C 19.674 21.359,20.098 21.432,20.422 21.285 C 20.633 21.189,20.897 20.885,20.956 20.670 C 20.992 20.542,21.000 18.542,20.991 12.540 L 20.980 4.580 20.890 4.266 C 20.588 3.202,19.801 2.400,18.772 2.110 L 18.460 2.022 12.240 2.016 C 8.819 2.013,5.876 2.023,5.700 2.039 M14.840 7.342 C 14.977 7.412,15.146 7.597,15.197 7.733 C 15.256 7.887,15.251 8.137,15.186 8.291 C 15.156 8.362,14.290 9.363,13.261 10.515 C 11.210 12.810,11.225 12.796,10.847 12.744 C 10.748 12.731,10.614 12.686,10.549 12.645 C 10.383 12.540,8.880 10.847,8.814 10.691 C 8.608 10.203,8.967 9.669,9.500 9.669 C 9.611 9.669,9.760 9.699,9.831 9.735 C 9.902 9.772,10.178 10.043,10.444 10.337 L 10.929 10.872 11.952 9.726 C 13.610 7.869,14.003 7.440,14.105 7.373 C 14.308 7.240,14.616 7.227,14.840 7.342 M16.820 14.835 C 17.010 14.923,17.096 15.012,17.178 15.210 C 17.257 15.398,17.257 15.602,17.178 15.790 C 17.099 15.980,17.015 16.071,16.832 16.164 C 16.688 16.237,16.517 16.240,12.000 16.240 C 7.483 16.240,7.312 16.237,7.168 16.164 C 6.985 16.071,6.901 15.980,6.822 15.790 C 6.713 15.530,6.768 15.193,6.952 14.986 C 6.989 14.943,7.092 14.876,7.180 14.835 C 7.332 14.765,7.563 14.762,12.000 14.762 C 16.437 14.762,16.668 14.765,16.820 14.835 " fill="#1C274C" stroke="none" fill-rule="evenodd"></path></svg>