<svg width="24" height="24" viewBox="0 0 24 24" fill="none" xmlns="http://www.w3.org/2000/svg"><path d="M7.136 3.039 C 6.875 3.094,6.697 3.182,6.354 3.424 C 5.971 3.694,5.654 3.804,5.254 3.806 C 4.863 3.808,4.583 3.718,4.213 3.470 C 3.929 3.280,3.880 3.261,3.676 3.261 C 3.501 3.261,3.417 3.284,3.292 3.367 C 2.972 3.579,3.000 2.764,3.000 12.000 C 3.000 21.238,2.972 20.421,3.293 20.634 C 3.420 20.717,3.502 20.740,3.680 20.740 C 3.885 20.740,3.933 20.722,4.208 20.536 C 4.599 20.272,4.911 20.183,5.369 20.207 C 5.752 20.227,6.064 20.352,6.437 20.635 C 6.783 20.898,7.030 20.977,7.500 20.977 C 7.970 20.977,8.217 20.898,8.563 20.635 C 8.943 20.347,9.249 20.226,9.646 20.207 C 10.099 20.185,10.452 20.287,10.792 20.537 C 11.638 21.160,12.362 21.160,13.208 20.537 C 13.548 20.287,13.901 20.185,14.354 20.207 C 14.751 20.226,15.057 20.347,15.437 20.635 C 15.783 20.898,16.030 20.977,16.500 20.977 C 16.970 20.977,17.217 20.898,17.563 20.635 C 17.936 20.352,18.248 20.227,18.631 20.207 C 19.089 20.183,19.401 20.272,19.792 20.536 C 20.067 20.722,20.115 20.740,20.320 20.740 C 20.498 20.740,20.580 20.717,20.707 20.634 C 21.028 20.421,21.000 21.238,21.000 12.000 C 21.000 2.764,21.028 3.579,20.708 3.367 C 20.583 3.284,20.499 3.261,20.324 3.261 C 20.120 3.261,20.071 3.280,19.787 3.470 C 19.417 3.718,19.137 3.808,18.746 3.806 C 18.344 3.804,18.029 3.694,17.640 3.420 C 17.171 3.090,16.987 3.026,16.500 3.026 C 16.013 3.026,15.829 3.090,15.360 3.420 C 14.971 3.694,14.656 3.804,14.254 3.806 C 13.858 3.808,13.575 3.715,13.198 3.459 C 12.754 3.156,12.607 3.088,12.282 3.032 C 12.061 2.994,11.939 2.994,11.718 3.032 C 11.393 3.088,11.246 3.156,10.802 3.459 C 10.425 3.715,10.142 3.808,9.746 3.806 C 9.344 3.804,9.029 3.694,8.640 3.420 C 8.460 3.293,8.223 3.155,8.112 3.113 C 7.881 3.026,7.377 2.987,7.136 3.039 M16.820 7.835 C 17.010 7.923,17.096 8.012,17.178 8.210 C 17.257 8.398,17.257 8.602,17.178 8.790 C 17.099 8.980,17.015 9.071,16.832 9.164 C 16.688 9.237,16.517 9.240,12.000 9.240 C 7.483 9.240,7.312 9.237,7.168 9.164 C 6.985 9.071,6.901 8.980,6.822 8.790 C 6.713 8.530,6.768 8.193,6.952 7.986 C 6.989 7.943,7.092 7.876,7.180 7.835 C 7.332 7.765,7.563 7.762,12.000 7.762 C 16.437 7.762,16.668 7.765,16.820 7.835 M16.820 11.326 C 17.402 11.649,17.380 12.407,16.780 12.684 C 16.627 12.755,16.412 12.758,11.998 12.759 L 7.376 12.760 7.178 12.661 C 6.547 12.344,6.653 11.445,7.340 11.277 C 7.406 11.261,9.539 11.250,12.080 11.254 C 16.303 11.259,16.710 11.266,16.820 11.326 M16.820 14.835 C 17.010 14.923,17.096 15.012,17.178 15.210 C 17.257 15.398,17.257 15.602,17.178 15.790 C 17.099 15.980,17.015 16.071,16.832 16.164 C 16.688 16.237,16.517 16.240,12.000 16.240 C 7.483 16.240,7.312 16.237,7.168 16.164 C 6.985 16.071,6.901 15.980,6.822 15.790 C 6.713 15.530,6.768 15.193,6.952 14.986 C 6.989 14.943,7.092 14.876,7.180 14.835 C 7.332 14.765,7.563 14.762,12.000 14.762 C 16.437 14.762,16.668 14.765,16.820 14.835 " fill="#1C274C" stroke="none" fill-rule="evenodd"></path></svg>