<svg width="24" height="24" viewBox="0 0 24 24" fill="none" xmlns="http://www.w3.org/2000/svg"><path d="M7.380 2.258 C 7.358 2.266,7.290 2.284,7.229 2.298 C 7.080 2.330,6.849 2.544,6.476 2.993 C 6.109 3.435,6.040 3.567,6.040 3.826 C 6.040 4.225,6.317 4.523,6.714 4.552 C 7.031 4.575,7.212 4.477,7.475 4.142 C 7.588 3.998,7.786 3.764,7.915 3.622 C 8.193 3.315,8.270 3.099,8.197 2.829 C 8.136 2.603,8.023 2.454,7.845 2.362 C 7.694 2.286,7.453 2.232,7.380 2.258 M16.036 4.998 C 15.802 5.041,15.629 5.130,15.526 5.262 C 15.235 5.632,15.357 6.195,15.772 6.396 C 15.938 6.477,15.989 6.481,16.545 6.457 C 17.024 6.437,17.222 6.446,17.560 6.504 C 18.176 6.611,18.471 6.604,18.651 6.481 C 18.855 6.341,18.971 6.116,18.971 5.862 C 18.971 5.645,18.925 5.520,18.785 5.366 C 18.557 5.115,18.022 5.000,16.980 4.979 C 16.562 4.971,16.137 4.979,16.036 4.998 M5.700 5.036 C 5.284 5.141,5.143 5.392,5.016 6.255 C 4.930 6.841,4.953 7.939,5.056 8.179 C 5.148 8.396,5.259 8.505,5.466 8.584 C 5.825 8.721,6.233 8.565,6.396 8.228 C 6.477 8.062,6.481 8.011,6.457 7.455 C 6.437 6.983,6.446 6.773,6.502 6.440 C 6.617 5.751,6.619 5.625,6.520 5.420 C 6.382 5.135,6.006 4.959,5.700 5.036 M13.816 5.603 C 13.410 5.721,11.992 6.578,11.675 6.898 C 11.182 7.394,11.548 8.202,12.243 8.152 C 12.447 8.137,12.507 8.110,12.806 7.894 C 13.219 7.596,13.616 7.356,14.151 7.082 C 14.498 6.904,14.577 6.846,14.661 6.702 C 14.845 6.389,14.763 5.919,14.491 5.729 C 14.267 5.573,14.055 5.534,13.816 5.603 M19.860 6.103 C 19.689 6.192,19.602 6.279,19.516 6.448 C 19.345 6.783,19.464 7.168,19.822 7.438 C 19.941 7.528,20.152 7.707,20.290 7.835 C 20.607 8.131,20.743 8.200,21.008 8.199 C 21.688 8.197,21.970 7.452,21.493 6.920 C 21.278 6.682,20.722 6.226,20.512 6.117 C 20.331 6.023,20.026 6.017,19.860 6.103 M10.426 8.256 C 10.342 8.288,10.227 8.355,10.172 8.407 C 10.011 8.557,9.609 9.184,9.381 9.638 C 8.997 10.407,8.880 10.906,9.022 11.178 C 9.074 11.278,9.076 11.341,9.037 11.598 C 9.010 11.772,9.001 12.044,9.016 12.240 L 9.041 12.580 8.896 12.590 C 8.438 12.623,8.119 13.071,8.238 13.514 C 8.262 13.603,8.328 13.731,8.385 13.799 C 8.632 14.092,9.799 14.751,10.437 14.957 C 10.740 15.055,11.015 15.063,11.178 14.978 C 11.278 14.926,11.341 14.924,11.598 14.963 C 11.772 14.990,12.044 14.999,12.240 14.984 L 12.580 14.959 12.590 15.104 C 12.623 15.562,13.071 15.881,13.514 15.762 C 13.603 15.738,13.731 15.672,13.799 15.615 C 14.092 15.368,14.751 14.201,14.957 13.563 C 15.055 13.260,15.063 12.985,14.978 12.822 C 14.926 12.722,14.924 12.659,14.963 12.402 C 14.990 12.228,14.999 11.956,14.984 11.760 L 14.959 11.420 15.104 11.410 C 15.562 11.377,15.881 10.929,15.762 10.486 C 15.738 10.397,15.672 10.269,15.615 10.201 C 15.368 9.908,14.201 9.249,13.563 9.043 C 13.260 8.945,12.985 8.937,12.822 9.022 C 12.722 9.074,12.659 9.076,12.402 9.037 C 12.227 9.010,11.956 9.001,11.757 9.016 L 11.413 9.042 11.408 8.895 C 11.390 8.431,10.870 8.092,10.426 8.256 M5.950 9.323 C 5.722 9.443,5.588 9.674,5.584 9.952 C 5.582 10.153,5.609 10.236,5.820 10.659 C 6.084 11.190,6.684 12.121,6.900 12.338 C 7.387 12.825,8.209 12.433,8.152 11.741 C 8.136 11.556,8.101 11.481,7.893 11.193 C 7.596 10.781,7.356 10.383,7.082 9.849 C 6.904 9.502,6.846 9.423,6.702 9.339 C 6.488 9.214,6.170 9.207,5.950 9.323 M16.245 11.527 C 16.131 11.583,16.028 11.678,15.952 11.797 C 15.848 11.958,15.836 12.009,15.849 12.224 C 15.862 12.447,15.882 12.494,16.104 12.804 C 16.411 13.234,16.653 13.633,16.918 14.151 C 17.096 14.498,17.154 14.577,17.298 14.661 C 17.613 14.845,18.079 14.763,18.274 14.488 C 18.400 14.311,18.454 14.042,18.403 13.851 C 18.292 13.438,17.432 11.995,17.098 11.661 C 16.870 11.432,16.540 11.381,16.245 11.527 M17.927 15.446 C 17.825 15.496,17.709 15.598,17.647 15.693 L 17.540 15.854 17.536 16.697 C 17.532 17.326,17.515 17.611,17.466 17.820 C 17.430 17.974,17.400 18.171,17.400 18.257 C 17.400 18.924,18.263 19.232,18.694 18.720 C 18.923 18.447,19.058 17.614,19.031 16.640 C 19.007 15.788,18.936 15.599,18.580 15.435 C 18.367 15.337,18.138 15.341,17.927 15.446 M2.622 15.891 C 2.351 16.044,2.208 16.396,2.287 16.711 C 2.340 16.922,2.572 17.187,3.014 17.543 C 3.471 17.911,3.601 17.972,3.883 17.952 C 4.156 17.932,4.358 17.800,4.480 17.559 C 4.655 17.217,4.539 16.835,4.178 16.562 C 4.059 16.472,3.848 16.293,3.710 16.165 C 3.573 16.036,3.402 15.902,3.332 15.866 C 3.145 15.770,2.815 15.781,2.622 15.891 M11.506 15.900 C 11.443 15.933,11.272 16.046,11.126 16.152 C 10.776 16.406,10.354 16.659,9.849 16.918 C 9.502 17.096,9.423 17.154,9.339 17.298 C 9.024 17.836,9.475 18.522,10.078 18.420 C 10.445 18.358,11.960 17.470,12.325 17.102 C 12.796 16.629,12.475 15.839,11.812 15.840 C 11.706 15.840,11.569 15.867,11.506 15.900 M5.409 17.483 C 5.176 17.601,5.029 17.853,5.029 18.135 C 5.029 18.430,5.163 18.656,5.417 18.788 C 5.648 18.909,6.246 19.003,6.920 19.026 C 7.719 19.054,8.103 19.008,8.327 18.860 C 8.777 18.563,8.719 17.842,8.228 17.604 C 8.062 17.523,8.011 17.519,7.455 17.543 C 6.983 17.563,6.773 17.554,6.440 17.498 C 5.771 17.386,5.606 17.383,5.409 17.483 M16.899 19.515 C 16.799 19.560,16.676 19.672,16.569 19.813 C 16.475 19.938,16.293 20.152,16.165 20.290 C 15.869 20.607,15.800 20.743,15.801 21.008 C 15.802 21.493,16.213 21.816,16.698 21.712 C 16.918 21.665,17.172 21.448,17.543 20.986 C 17.875 20.574,17.960 20.410,17.960 20.180 C 17.960 19.630,17.408 19.284,16.899 19.515 " fill="#1C274C" stroke="none" fill-rule="evenodd"></path></svg>