<svg width="24" height="24" viewBox="0 0 24 24" fill="none" xmlns="http://www.w3.org/2000/svg"><path d="M14.720 1.280 C 13.434 1.380,12.271 1.808,11.292 2.543 C 9.701 3.736,8.607 5.794,8.317 8.140 C 8.246 8.707,8.257 9.883,8.338 10.420 C 8.421 10.972,8.566 11.557,8.716 11.943 C 8.830 12.237,8.831 12.240,8.746 12.241 C 8.604 12.242,8.344 12.380,8.232 12.513 C 8.012 12.775,7.991 13.119,8.177 13.403 C 8.296 13.583,8.962 14.034,9.513 14.307 L 9.931 14.514 9.779 14.543 C 9.546 14.586,8.345 14.534,7.940 14.462 C 5.732 14.071,4.094 12.985,3.291 11.380 C 2.973 10.747,2.816 10.131,2.761 9.314 C 2.724 8.750,2.665 8.573,2.464 8.420 C 2.037 8.095,1.396 8.316,1.287 8.827 C 1.188 9.286,1.372 10.575,1.648 11.357 C 2.518 13.822,4.945 15.574,8.052 15.979 C 8.658 16.057,9.741 16.058,10.348 15.979 C 10.910 15.906,11.604 15.731,12.060 15.548 L 12.392 15.415 12.437 15.566 C 12.523 15.854,12.848 16.117,13.120 16.119 C 13.310 16.120,13.522 16.035,13.651 15.906 C 13.819 15.738,14.190 15.177,14.399 14.776 L 14.565 14.460 14.545 15.080 C 14.509 16.194,14.281 17.148,13.821 18.107 C 13.236 19.330,12.440 20.179,11.380 20.709 C 10.747 21.027,10.131 21.184,9.314 21.239 C 8.750 21.276,8.573 21.335,8.420 21.536 C 8.095 21.963,8.316 22.604,8.827 22.713 C 9.285 22.812,10.572 22.628,11.357 22.352 C 14.148 21.372,16.040 18.320,16.040 14.800 C 16.040 13.762,15.902 12.901,15.605 12.087 C 15.491 11.776,15.489 11.760,15.564 11.760 C 15.680 11.760,15.925 11.649,16.033 11.548 C 16.274 11.323,16.327 10.944,16.159 10.646 C 16.057 10.465,15.693 10.181,15.220 9.915 L 14.980 9.780 15.140 9.767 C 15.546 9.733,16.681 9.946,17.375 10.187 C 19.414 10.893,20.758 12.318,21.140 14.180 C 21.176 14.356,21.220 14.730,21.239 15.011 C 21.268 15.445,21.288 15.546,21.373 15.691 C 21.710 16.267,22.573 16.112,22.723 15.448 C 22.768 15.246,22.698 14.338,22.600 13.857 C 22.109 11.455,20.360 9.608,17.760 8.746 C 16.736 8.406,15.847 8.266,14.740 8.269 C 13.774 8.273,12.825 8.423,12.146 8.682 C 12.033 8.725,11.935 8.760,11.930 8.760 C 11.925 8.760,11.920 8.720,11.920 8.670 C 11.919 8.478,11.825 8.256,11.684 8.115 C 11.429 7.860,11.060 7.821,10.758 8.018 C 10.594 8.125,10.271 8.577,9.970 9.120 L 9.760 9.500 9.761 9.040 C 9.763 7.551,10.308 5.883,11.149 4.789 C 12.111 3.537,13.371 2.870,14.973 2.763 C 15.446 2.732,15.545 2.713,15.691 2.627 C 16.157 2.354,16.159 1.634,15.693 1.372 C 15.498 1.263,15.251 1.239,14.720 1.280 M7.009 2.020 C 6.784 2.118,6.057 2.935,5.934 3.229 C 5.823 3.493,5.879 3.809,6.073 4.014 C 6.232 4.182,6.382 4.246,6.620 4.246 C 6.888 4.246,7.035 4.170,7.228 3.934 C 7.312 3.831,7.510 3.599,7.670 3.417 C 7.994 3.048,8.047 2.943,8.046 2.672 C 8.044 2.459,7.977 2.307,7.814 2.153 C 7.607 1.957,7.279 1.903,7.009 2.020 M16.565 4.680 C 16.077 4.749,15.816 5.042,15.848 5.483 C 15.860 5.655,15.892 5.748,15.975 5.857 C 16.187 6.134,16.207 6.140,17.098 6.144 C 17.679 6.146,17.988 6.165,18.220 6.214 C 18.811 6.336,19.032 6.296,19.272 6.023 C 19.563 5.691,19.459 5.113,19.072 4.916 C 18.684 4.718,17.252 4.583,16.565 4.680 M5.380 4.787 C 5.094 4.938,5.025 5.059,4.910 5.614 C 4.840 5.949,4.825 6.167,4.823 6.860 C 4.820 7.666,4.824 7.708,4.915 7.893 C 5.179 8.429,5.950 8.461,6.231 7.946 C 6.289 7.839,6.300 7.699,6.303 7.020 C 6.305 6.436,6.324 6.134,6.373 5.900 C 6.451 5.530,6.457 5.331,6.397 5.173 C 6.340 5.019,6.167 4.842,6.011 4.775 C 5.841 4.702,5.529 4.708,5.380 4.787 M14.347 5.288 C 13.982 5.365,12.679 6.122,12.233 6.516 C 11.902 6.809,11.838 7.189,12.062 7.529 C 12.289 7.874,12.784 7.942,13.150 7.678 C 13.642 7.325,14.112 7.034,14.543 6.817 C 14.950 6.612,15.029 6.556,15.127 6.402 C 15.481 5.846,14.995 5.151,14.347 5.288 M20.340 5.775 C 20.006 5.931,19.828 6.300,19.922 6.647 C 19.972 6.833,20.079 6.949,20.685 7.475 C 21.103 7.838,21.203 7.891,21.459 7.891 C 21.940 7.891,22.262 7.487,22.179 6.990 C 22.154 6.846,22.098 6.768,21.805 6.477 C 21.615 6.289,21.336 6.047,21.184 5.939 C 20.945 5.771,20.877 5.742,20.684 5.731 C 20.550 5.724,20.412 5.741,20.340 5.775 M5.790 9.003 C 5.560 9.124,5.421 9.363,5.421 9.636 C 5.422 9.829,5.454 9.926,5.656 10.331 C 5.924 10.869,6.435 11.670,6.680 11.936 C 7.070 12.358,7.632 12.321,7.905 11.855 C 7.994 11.703,8.007 11.642,7.992 11.438 C 7.978 11.247,7.948 11.161,7.840 11.010 C 7.467 10.485,7.221 10.090,7.035 9.714 C 6.921 9.486,6.793 9.250,6.751 9.189 C 6.570 8.931,6.099 8.840,5.790 9.003 M16.832 11.800 C 16.517 11.894,16.320 12.178,16.320 12.535 C 16.320 12.729,16.341 12.784,16.506 13.027 C 16.973 13.713,17.058 13.851,17.302 14.328 C 17.623 14.958,17.726 15.051,18.116 15.072 C 18.351 15.084,18.399 15.073,18.551 14.973 C 18.764 14.833,18.880 14.607,18.880 14.330 C 18.880 14.161,18.840 14.045,18.643 13.653 C 18.370 13.107,17.831 12.275,17.588 12.022 C 17.367 11.793,17.107 11.716,16.832 11.800 M18.420 15.740 C 18.240 15.837,18.087 15.998,18.043 16.137 C 18.021 16.204,18.005 16.593,18.007 17.000 C 18.011 17.603,17.996 17.815,17.929 18.145 C 17.872 18.425,17.856 18.594,17.878 18.693 C 18.035 19.389,18.950 19.507,19.254 18.870 C 19.526 18.300,19.605 16.539,19.379 16.064 C 19.231 15.752,18.719 15.579,18.420 15.740 M2.697 16.118 C 2.508 16.163,2.346 16.273,2.238 16.431 C 2.158 16.548,2.140 16.623,2.140 16.842 C 2.140 17.171,2.212 17.286,2.668 17.688 C 3.167 18.127,3.367 18.251,3.613 18.271 C 4.022 18.305,4.358 18.024,4.392 17.622 C 4.417 17.314,4.347 17.147,4.111 16.949 C 4.000 16.856,3.763 16.652,3.585 16.496 C 3.406 16.340,3.224 16.194,3.180 16.172 C 3.060 16.110,2.835 16.085,2.697 16.118 M11.133 16.346 C 10.463 16.803,10.310 16.896,9.828 17.146 C 9.274 17.432,9.150 17.546,9.087 17.831 C 8.981 18.301,9.318 18.722,9.803 18.726 C 9.969 18.727,10.085 18.690,10.414 18.530 C 11.196 18.150,12.117 17.523,12.279 17.261 C 12.409 17.052,12.408 16.756,12.279 16.526 C 12.144 16.287,11.919 16.160,11.630 16.160 C 11.430 16.160,11.378 16.179,11.133 16.346 M5.224 17.812 C 5.139 17.865,5.026 17.979,4.975 18.064 C 4.792 18.367,4.881 18.841,5.157 19.038 C 5.498 19.280,6.862 19.430,7.718 19.319 C 8.083 19.271,8.277 19.155,8.395 18.910 C 8.555 18.581,8.465 18.194,8.177 17.975 L 8.026 17.860 7.223 17.855 C 6.781 17.853,6.321 17.829,6.200 17.804 C 6.079 17.778,5.845 17.748,5.680 17.736 C 5.412 17.717,5.364 17.725,5.224 17.812 M17.537 19.760 C 17.332 19.805,17.191 19.915,16.930 20.234 C 16.792 20.403,16.599 20.634,16.501 20.749 C 16.224 21.076,16.184 21.351,16.366 21.681 C 16.516 21.951,16.840 22.086,17.184 22.022 C 17.360 21.989,17.691 21.691,18.052 21.240 C 18.434 20.764,18.509 20.524,18.378 20.209 C 18.233 19.862,17.893 19.681,17.537 19.760 " fill="#1C274C" stroke="none" fill-rule="evenodd"></path></svg>