<svg width="24" height="24" viewBox="0 0 24 24" fill="none" xmlns="http://www.w3.org/2000/svg"><path d="M14.674 1.282 C 12.242 1.481,10.279 2.878,9.162 5.206 C 8.161 7.291,7.970 9.812,8.662 11.800 C 9.026 12.846,9.646 13.695,10.411 14.192 C 10.770 14.426,10.780 14.415,10.134 14.501 C 8.693 14.692,7.018 14.402,5.711 13.734 C 4.404 13.065,3.489 12.055,3.045 10.791 C 2.888 10.342,2.804 9.887,2.763 9.264 C 2.726 8.695,2.677 8.572,2.409 8.384 C 2.269 8.285,2.204 8.267,2.000 8.267 C 1.796 8.267,1.731 8.285,1.591 8.384 C 1.310 8.581,1.259 8.710,1.264 9.220 C 1.285 11.939,2.949 14.255,5.678 15.362 C 8.489 16.504,11.695 16.226,13.517 14.684 C 13.771 14.468,14.147 14.008,14.304 13.720 C 14.377 13.585,14.424 13.534,14.443 13.568 C 14.459 13.597,14.491 13.805,14.516 14.032 C 14.761 16.313,13.864 18.817,12.356 20.064 C 11.458 20.806,10.532 21.161,9.288 21.239 C 8.810 21.269,8.739 21.283,8.596 21.378 C 8.059 21.733,8.184 22.550,8.801 22.722 C 9.181 22.827,10.533 22.645,11.260 22.390 C 13.506 21.602,15.116 19.702,15.776 17.060 C 16.482 14.234,15.825 11.297,14.203 10.028 L 13.925 9.811 14.133 9.786 C 15.013 9.680,16.299 9.834,17.298 10.164 C 19.652 10.944,21.114 12.721,21.225 14.940 C 21.258 15.601,21.345 15.810,21.651 15.966 C 21.964 16.125,22.405 16.034,22.592 15.771 C 22.754 15.543,22.778 15.361,22.726 14.745 C 22.510 12.204,21.144 10.281,18.740 9.136 C 17.508 8.550,16.216 8.267,14.780 8.270 C 13.098 8.274,11.786 8.651,10.733 9.433 C 10.437 9.653,10.067 10.020,9.928 10.232 L 9.865 10.329 9.829 10.234 C 9.767 10.072,9.746 8.891,9.797 8.420 C 10.051 6.055,11.203 4.166,12.920 3.301 C 13.553 2.982,14.207 2.812,14.940 2.775 C 15.601 2.742,15.810 2.655,15.966 2.349 C 16.144 1.999,16.021 1.550,15.697 1.372 C 15.496 1.261,15.223 1.237,14.674 1.282 " fill="#1C274C" stroke="none" fill-rule="evenodd"></path></svg>