<svg width="24" height="24" viewBox="0 0 24 24" fill="none" xmlns="http://www.w3.org/2000/svg"><path d="M8.837 2.052 C 8.315 2.200,7.951 2.584,7.784 3.161 C 7.640 3.664,7.629 3.913,7.604 7.289 L 7.580 10.638 6.440 9.833 C 3.955 8.077,3.969 8.086,3.784 8.058 C 3.187 7.969,2.763 8.722,3.157 9.171 C 3.220 9.242,4.127 9.903,5.174 10.640 C 6.221 11.377,7.078 11.989,7.078 12.000 C 7.079 12.011,6.247 12.605,5.230 13.320 C 4.214 14.035,3.315 14.680,3.233 14.753 C 3.053 14.914,2.982 15.108,3.015 15.351 C 3.047 15.580,3.202 15.786,3.415 15.883 C 3.612 15.973,3.758 15.979,3.931 15.905 C 4.002 15.875,4.852 15.292,5.820 14.609 L 7.580 13.367 7.604 16.714 C 7.629 20.087,7.640 20.336,7.784 20.839 C 8.033 21.701,8.777 22.154,9.599 21.943 C 10.169 21.797,10.540 21.568,12.620 20.081 C 14.382 18.820,14.565 18.681,14.900 18.343 C 15.630 17.605,15.646 16.760,14.945 16.011 C 14.649 15.694,14.218 15.371,11.569 13.480 C 10.443 12.677,9.523 12.011,9.523 12.000 C 9.523 11.989,10.407 11.350,11.488 10.580 C 14.743 8.261,15.050 8.014,15.296 7.511 C 15.583 6.924,15.475 6.285,14.998 5.749 C 14.734 5.453,14.405 5.201,12.553 3.876 C 10.856 2.661,10.305 2.306,9.864 2.140 C 9.537 2.017,9.095 1.979,8.837 2.052 M18.178 4.854 C 18.014 4.928,17.851 5.129,17.800 5.319 C 17.735 5.561,17.802 5.757,18.069 6.112 C 18.723 6.979,19.245 8.413,19.486 10.000 C 19.571 10.560,19.580 10.753,19.580 12.000 C 19.580 13.247,19.571 13.440,19.486 14.000 C 19.245 15.586,18.731 16.999,18.069 17.891 C 17.801 18.253,17.736 18.443,17.800 18.681 C 17.911 19.091,18.345 19.308,18.731 19.146 C 19.089 18.997,19.741 17.958,20.178 16.842 C 20.502 16.017,20.774 14.854,20.905 13.740 C 21.001 12.923,21.002 11.052,20.906 10.280 C 20.723 8.802,20.449 7.745,19.961 6.640 C 19.654 5.944,19.114 5.116,18.832 4.907 C 18.695 4.806,18.346 4.778,18.178 4.854 M16.260 7.697 C 15.894 7.917,15.849 8.250,16.105 8.840 C 16.628 10.046,16.867 11.152,16.829 12.200 C 16.796 13.111,16.619 13.864,16.172 14.999 C 15.951 15.559,15.916 15.682,15.938 15.817 C 15.994 16.170,16.268 16.400,16.630 16.400 C 16.984 16.400,17.163 16.221,17.416 15.615 C 18.259 13.602,18.424 11.812,17.940 9.940 C 17.749 9.202,17.372 8.188,17.185 7.911 C 16.972 7.594,16.581 7.504,16.260 7.697 " fill="#1C274C" stroke="none" fill-rule="evenodd"></path></svg>