<svg width="24" height="24" viewBox="0 0 24 24" fill="none" xmlns="http://www.w3.org/2000/svg"><path d="M11.300 2.024 C 10.268 2.130,9.297 2.339,8.537 2.620 C 6.161 3.500,4.142 5.321,3.043 7.576 C 2.706 8.267,2.527 8.743,2.342 9.443 C 2.101 10.351,2.026 10.964,2.026 12.000 C 2.026 12.726,2.043 13.008,2.113 13.460 C 2.441 15.571,3.363 17.437,4.837 18.972 C 5.788 19.962,7.208 20.887,8.523 21.374 C 9.075 21.579,9.894 21.787,10.540 21.887 C 11.338 22.011,12.662 22.011,13.460 21.887 C 14.942 21.657,16.316 21.129,17.508 20.333 C 19.030 19.315,20.184 18.007,20.959 16.420 C 21.435 15.446,21.720 14.536,21.887 13.460 C 22.011 12.662,22.011 11.338,21.887 10.540 C 21.657 9.058,21.129 7.684,20.333 6.492 C 19.530 5.292,18.683 4.446,17.483 3.649 C 15.928 2.615,14.126 2.060,12.200 2.022 C 11.793 2.014,11.388 2.015,11.300 2.024 M12.140 5.437 C 12.342 5.537,12.924 5.943,13.720 6.540 C 15.258 7.692,15.423 7.835,15.600 8.166 C 15.717 8.384,15.736 8.460,15.738 8.700 C 15.740 9.086,15.604 9.372,15.270 9.686 C 15.132 9.815,14.408 10.381,13.660 10.944 C 12.912 11.507,12.300 11.983,12.300 12.000 C 12.300 12.018,12.929 12.506,13.698 13.086 C 14.467 13.666,15.192 14.233,15.309 14.348 C 15.606 14.637,15.740 14.936,15.737 15.300 C 15.734 15.648,15.607 15.918,15.306 16.219 C 14.954 16.570,12.499 18.386,12.125 18.572 C 11.821 18.723,11.762 18.738,11.485 18.738 C 11.243 18.739,11.143 18.719,11.000 18.645 C 10.652 18.464,10.458 18.214,10.328 17.780 C 10.280 17.619,10.263 17.191,10.244 15.605 L 10.220 13.630 9.320 14.381 C 8.825 14.794,8.362 15.156,8.291 15.186 C 7.733 15.421,7.115 14.888,7.277 14.310 C 7.342 14.078,7.446 13.978,8.740 12.902 C 9.312 12.426,9.780 12.020,9.780 12.000 C 9.780 11.980,9.312 11.574,8.740 11.098 C 7.446 10.022,7.342 9.922,7.277 9.690 C 7.113 9.103,7.724 8.575,8.291 8.814 C 8.362 8.844,8.825 9.206,9.320 9.619 L 10.220 10.370 10.244 8.395 C 10.269 6.306,10.275 6.238,10.470 5.860 C 10.516 5.772,10.613 5.644,10.686 5.574 C 11.090 5.196,11.563 5.151,12.140 5.437 M11.760 8.720 C 11.760 10.131,11.770 10.482,11.810 10.449 C 11.838 10.427,12.355 10.036,12.960 9.581 C 13.565 9.126,14.065 8.740,14.071 8.723 C 14.078 8.706,13.619 8.344,13.051 7.919 C 12.484 7.494,11.962 7.102,11.890 7.049 L 11.760 6.951 11.760 8.720 M11.760 15.282 L 11.760 17.049 11.890 16.951 C 11.962 16.898,12.484 16.506,13.051 16.081 C 13.619 15.656,14.078 15.294,14.071 15.276 C 14.062 15.249,12.247 13.862,11.870 13.593 L 11.760 13.515 11.760 15.282 " fill="#1C274C" stroke="none" fill-rule="evenodd"></path></svg>