<svg width="24" height="24" viewBox="0 0 24 24" fill="none" xmlns="http://www.w3.org/2000/svg"><path d="M11.677 1.280 C 11.065 1.384,10.588 1.884,10.400 2.619 C 10.268 3.135,10.241 3.936,10.240 7.290 C 10.240 9.067,10.229 10.520,10.215 10.520 C 10.202 10.520,9.327 9.916,8.272 9.178 C 7.216 8.439,6.308 7.818,6.254 7.798 C 6.122 7.748,5.872 7.750,5.733 7.803 C 5.484 7.896,5.242 8.241,5.242 8.500 C 5.242 8.685,5.372 8.930,5.552 9.082 C 5.641 9.158,6.606 9.841,7.695 10.600 C 8.785 11.359,9.676 11.989,9.676 12.000 C 9.676 12.011,8.785 12.641,7.695 13.400 C 6.606 14.159,5.641 14.842,5.552 14.918 C 5.372 15.070,5.242 15.315,5.242 15.500 C 5.242 15.759,5.484 16.104,5.733 16.197 C 5.875 16.251,6.123 16.252,6.261 16.200 C 6.320 16.177,7.228 15.556,8.281 14.820 C 9.333 14.083,10.204 13.480,10.217 13.480 C 10.230 13.480,10.240 14.933,10.240 16.710 C 10.241 20.064,10.268 20.865,10.400 21.381 C 10.549 21.963,10.866 22.392,11.300 22.596 C 11.997 22.923,12.657 22.753,13.900 21.925 C 14.765 21.349,17.564 19.340,17.895 19.058 C 18.560 18.491,18.847 17.870,18.722 17.270 C 18.609 16.725,18.250 16.269,17.480 15.695 C 17.271 15.539,16.029 14.651,14.720 13.722 C 13.411 12.793,12.336 12.021,12.331 12.007 C 12.326 11.992,13.475 11.161,14.885 10.161 C 16.295 9.160,17.614 8.205,17.816 8.037 C 18.797 7.225,19.007 6.378,18.439 5.528 C 18.151 5.097,17.925 4.915,15.820 3.419 C 13.442 1.730,12.941 1.425,12.340 1.300 C 12.035 1.236,11.952 1.234,11.677 1.280 " fill="#1C274C" stroke="none" fill-rule="evenodd"></path></svg>