<svg width="24" height="24" viewBox="0 0 24 24" fill="none" xmlns="http://www.w3.org/2000/svg"><path d="M8.456 2.042 C 5.720 2.141,4.373 2.534,3.435 3.507 C 2.688 4.282,2.317 5.263,2.142 6.927 C 2.046 7.840,2.001 9.469,2.001 12.000 C 2.001 16.100,2.103 17.613,2.459 18.779 C 2.891 20.195,3.805 21.109,5.221 21.541 C 6.387 21.897,7.900 21.999,12.000 21.999 C 16.116 21.999,17.590 21.899,18.787 21.538 C 20.186 21.116,21.116 20.186,21.538 18.787 C 21.899 17.590,21.999 16.116,21.999 11.980 C 21.999 7.887,21.899 6.409,21.538 5.213 C 21.115 3.811,20.192 2.890,18.779 2.459 C 17.994 2.219,17.052 2.102,15.417 2.041 C 14.217 1.996,9.702 1.997,8.456 2.042 M12.067 5.940 C 12.434 6.121,14.832 7.908,15.067 8.175 C 15.327 8.470,15.380 8.610,15.380 9.000 C 15.380 9.619,15.290 9.719,13.604 10.987 C 12.887 11.525,12.300 11.981,12.300 12.000 C 12.300 12.019,12.887 12.475,13.604 13.013 C 15.290 14.281,15.380 14.381,15.380 15.000 C 15.380 15.390,15.327 15.530,15.067 15.825 C 14.826 16.099,12.433 17.879,12.055 18.066 C 11.776 18.204,11.713 18.220,11.442 18.219 C 10.975 18.217,10.653 18.018,10.439 17.598 C 10.283 17.293,10.270 17.135,10.245 15.365 L 10.220 13.630 9.320 14.381 C 8.825 14.794,8.362 15.156,8.291 15.186 C 8.001 15.308,7.586 15.203,7.408 14.962 C 7.267 14.772,7.217 14.524,7.277 14.310 C 7.342 14.078,7.446 13.978,8.740 12.902 C 9.312 12.426,9.780 12.020,9.780 12.000 C 9.780 11.980,9.312 11.574,8.740 11.098 C 7.446 10.022,7.342 9.922,7.277 9.690 C 7.113 9.103,7.724 8.575,8.291 8.814 C 8.362 8.844,8.825 9.206,9.320 9.619 L 10.220 10.370 10.245 8.635 C 10.260 7.523,10.286 6.838,10.316 6.726 C 10.486 6.089,10.923 5.743,11.514 5.777 C 11.706 5.788,11.840 5.827,12.067 5.940 M11.760 9.000 L 11.760 10.489 11.890 10.392 C 11.962 10.338,12.398 10.010,12.860 9.664 C 13.322 9.318,13.700 9.019,13.700 9.000 C 13.700 8.981,13.322 8.682,12.860 8.336 C 12.398 7.990,11.962 7.662,11.890 7.608 L 11.760 7.511 11.760 9.000 M11.760 15.000 L 11.760 16.489 11.890 16.392 C 11.962 16.338,12.398 16.010,12.860 15.664 C 13.322 15.318,13.700 15.019,13.700 15.000 C 13.700 14.981,13.322 14.682,12.860 14.336 C 12.398 13.990,11.962 13.662,11.890 13.608 L 11.760 13.511 11.760 15.000 " fill="#1C274C" stroke="none" fill-rule="evenodd"></path></svg>