<svg width="24" height="24" viewBox="0 0 24 24" fill="none" xmlns="http://www.w3.org/2000/svg"><path d="M3.811 1.278 C 3.638 1.320,3.416 1.494,3.333 1.652 C 3.208 1.889,3.240 2.129,3.476 2.720 C 3.750 3.408,4.269 4.969,4.473 5.720 C 5.005 7.676,5.222 9.053,5.217 10.440 C 5.215 11.236,5.207 11.329,5.110 11.688 C 4.879 12.548,4.616 13.085,3.590 14.797 C 2.331 16.897,1.816 18.072,1.501 19.562 C 1.302 20.503,1.186 21.858,1.276 22.188 C 1.421 22.719,2.063 22.925,2.480 22.574 C 2.698 22.391,2.730 22.277,2.766 21.580 C 2.822 20.483,3.010 19.483,3.320 18.630 L 3.448 18.280 3.754 18.280 C 4.115 18.281,5.015 18.372,5.510 18.459 C 6.751 18.675,7.935 19.093,8.848 19.636 C 9.448 19.994,9.767 20.241,10.242 20.717 C 10.714 21.191,11.060 21.679,11.246 22.137 C 11.432 22.593,11.744 22.809,12.115 22.740 C 12.439 22.679,12.588 22.536,12.759 22.123 C 13.393 20.585,15.325 19.211,17.660 18.637 C 18.499 18.431,19.585 18.281,20.246 18.280 L 20.552 18.280 20.680 18.630 C 20.990 19.483,21.178 20.483,21.234 21.580 C 21.270 22.277,21.302 22.391,21.520 22.574 C 21.970 22.952,22.655 22.680,22.744 22.087 C 22.813 21.633,22.639 20.104,22.416 19.200 C 22.074 17.814,21.577 16.735,20.328 14.664 C 19.390 13.108,19.032 12.341,18.834 11.460 C 18.753 11.102,18.765 9.682,18.855 8.980 C 19.081 7.201,19.661 4.977,20.409 3.020 C 20.762 2.096,20.768 2.075,20.742 1.900 C 20.685 1.520,20.388 1.267,20.000 1.267 C 19.811 1.267,19.732 1.288,19.603 1.373 C 19.401 1.507,19.362 1.568,19.167 2.060 C 18.404 3.989,17.750 6.305,17.459 8.111 C 17.282 9.214,17.202 10.551,17.277 11.160 C 17.323 11.531,17.422 12.066,17.466 12.182 C 17.486 12.232,16.776 12.240,12.000 12.240 C 7.224 12.240,6.514 12.232,6.534 12.182 C 6.582 12.057,6.681 11.512,6.724 11.136 C 6.882 9.749,6.467 7.084,5.698 4.555 C 5.367 3.464,4.760 1.789,4.617 1.570 C 4.472 1.347,4.091 1.210,3.811 1.278 " fill="#1C274C" stroke="none" fill-rule="evenodd"></path></svg>