<svg width="24" height="24" viewBox="0 0 24 24" fill="none" xmlns="http://www.w3.org/2000/svg"><path d="M7.322 2.061 C 7.102 2.123,6.775 2.289,6.000 2.732 C 5.350 3.105,4.922 3.406,4.280 3.942 C 3.267 4.790,3.020 5.131,3.020 5.680 C 3.020 5.930,3.039 6.019,3.136 6.217 C 3.285 6.521,3.710 6.945,4.519 7.600 C 5.739 8.587,5.902 8.753,6.026 9.132 C 6.088 9.320,6.097 9.693,6.117 13.020 C 6.140 16.619,6.142 16.704,6.223 16.901 C 6.268 17.011,6.368 17.194,6.445 17.308 C 6.660 17.627,9.807 21.321,10.078 21.571 C 10.224 21.707,10.407 21.830,10.549 21.886 C 10.773 21.977,10.815 21.980,12.000 21.980 C 13.185 21.980,13.227 21.977,13.451 21.886 C 13.592 21.830,13.776 21.707,13.919 21.575 C 14.164 21.347,17.083 17.933,17.464 17.428 C 17.583 17.270,17.721 17.041,17.770 16.920 L 17.860 16.700 17.882 13.020 C 17.903 9.689,17.911 9.320,17.973 9.132 C 18.098 8.753,18.261 8.587,19.481 7.600 C 20.290 6.945,20.715 6.521,20.864 6.217 C 20.961 6.019,20.980 5.930,20.980 5.680 C 20.980 5.307,20.865 5.050,20.536 4.686 C 20.214 4.330,19.185 3.481,18.664 3.140 C 18.134 2.794,17.103 2.216,16.830 2.112 C 16.409 1.953,15.979 1.977,15.508 2.189 C 15.320 2.273,15.215 2.361,14.993 2.617 C 14.211 3.525,13.184 4.000,12.000 4.000 C 10.816 4.000,9.771 3.517,9.003 2.614 C 8.753 2.321,8.697 2.278,8.418 2.162 C 8.041 2.005,7.651 1.969,7.322 2.061 " fill="#1C274C" stroke="none" fill-rule="evenodd"></path></svg>