<svg width="24" height="24" viewBox="0 0 24 24" fill="none" xmlns="http://www.w3.org/2000/svg"><path d="M11.120 2.039 C 9.316 2.220,7.707 2.807,6.280 3.806 C 2.738 6.286,1.178 10.759,2.422 14.865 C 2.918 16.499,3.728 17.850,4.939 19.061 C 5.928 20.050,7.038 20.788,8.272 21.278 C 11.634 22.610,15.313 22.080,18.200 19.845 C 18.637 19.507,19.507 18.637,19.845 18.200 C 21.255 16.379,22.000 14.234,22.000 12.000 C 22.000 7.432,18.842 3.387,14.430 2.303 C 13.446 2.062,12.028 1.948,11.120 2.039 M13.565 7.263 C 13.911 7.441,13.879 7.961,13.417 9.691 C 13.149 10.694,13.117 10.960,13.239 11.153 C 13.351 11.332,13.590 11.434,14.460 11.674 C 15.416 11.939,15.630 12.022,15.810 12.201 C 15.939 12.329,15.960 12.376,15.960 12.529 C 15.960 12.875,15.825 13.005,13.755 14.652 C 11.795 16.211,11.414 16.496,11.061 16.666 C 10.752 16.815,10.615 16.830,10.435 16.737 C 10.089 16.559,10.121 16.039,10.583 14.309 C 10.849 13.313,10.883 13.040,10.764 12.852 C 10.650 12.670,10.459 12.586,9.650 12.361 C 8.521 12.047,8.320 11.967,8.145 11.758 C 8.024 11.615,8.004 11.385,8.097 11.206 C 8.198 11.010,8.667 10.607,10.350 9.269 C 12.396 7.641,12.745 7.388,13.114 7.256 C 13.309 7.186,13.420 7.188,13.565 7.263 " fill="#1C274C" stroke="none" fill-rule="evenodd"></path></svg>