<svg width="24" height="24" viewBox="0 0 24 24" fill="none" xmlns="http://www.w3.org/2000/svg"><path d="M12.067 2.058 C 11.629 2.214,11.055 2.749,10.275 3.730 C 9.794 4.335,5.505 10.113,4.873 11.008 C 4.279 11.850,4.003 12.418,4.001 12.802 C 4.000 13.052,4.166 13.375,4.372 13.524 C 4.564 13.663,4.914 13.777,5.345 13.841 C 5.518 13.866,6.488 13.901,7.500 13.919 C 9.067 13.945,9.373 13.960,9.560 14.019 C 9.859 14.112,10.026 14.221,10.164 14.412 C 10.407 14.747,10.408 14.764,10.442 17.280 C 10.479 20.042,10.529 20.683,10.757 21.281 C 10.882 21.612,11.026 21.787,11.267 21.905 C 11.900 22.215,12.552 21.762,13.860 20.100 C 14.324 19.512,18.652 13.666,19.147 12.960 C 19.744 12.108,19.997 11.584,19.999 11.198 C 20.000 10.947,19.839 10.635,19.627 10.480 C 19.226 10.185,18.734 10.124,16.426 10.081 C 14.551 10.046,14.410 10.032,14.097 9.838 C 14.018 9.789,13.900 9.676,13.836 9.588 C 13.593 9.253,13.592 9.236,13.558 6.720 C 13.541 5.455,13.506 4.204,13.481 3.940 C 13.373 2.828,13.167 2.310,12.748 2.101 C 12.520 1.988,12.302 1.974,12.067 2.058 " fill="#1C274C" stroke="none" fill-rule="evenodd"></path></svg>