<svg width="24" height="24" viewBox="0 0 24 24" fill="none" xmlns="http://www.w3.org/2000/svg"><path d="M15.699 2.816 C 15.535 2.888,15.334 3.125,15.276 3.316 C 15.240 3.437,15.240 3.518,15.276 3.661 C 15.330 3.875,15.761 4.757,15.907 4.950 C 16.112 5.223,16.528 5.319,16.832 5.164 C 17.096 5.029,17.240 4.792,17.240 4.491 C 17.240 4.335,17.189 4.194,16.966 3.737 C 16.673 3.139,16.500 2.901,16.292 2.814 C 16.130 2.746,15.857 2.747,15.699 2.816 M19.800 3.290 C 19.639 3.323,19.552 3.395,18.974 3.974 C 18.371 4.578,18.326 4.633,18.287 4.822 C 18.168 5.389,18.635 5.850,19.190 5.715 C 19.360 5.674,19.449 5.600,20.026 5.024 C 20.619 4.432,20.674 4.364,20.711 4.189 C 20.833 3.605,20.388 3.166,19.800 3.290 M16.801 6.290 C 16.642 6.324,16.548 6.401,15.973 6.969 L 15.324 7.611 15.852 8.143 L 16.380 8.675 17.025 8.028 C 17.615 7.435,17.673 7.364,17.710 7.189 C 17.834 6.606,17.387 6.165,16.801 6.290 M19.177 6.836 C 18.773 7.019,18.640 7.534,18.896 7.921 C 18.986 8.057,19.094 8.126,19.631 8.395 C 19.977 8.568,20.317 8.722,20.387 8.737 C 20.680 8.801,21.105 8.549,21.202 8.253 C 21.228 8.175,21.241 8.022,21.230 7.914 C 21.199 7.582,21.073 7.469,20.326 7.090 C 19.610 6.727,19.479 6.698,19.177 6.836 M8.724 7.046 C 6.359 7.293,4.242 8.661,3.025 10.730 C 1.964 12.532,1.721 14.778,2.367 16.795 C 3.097 19.076,4.925 20.904,7.204 21.633 C 8.685 22.107,10.316 22.107,11.795 21.633 C 14.074 20.903,15.903 19.074,16.633 16.795 C 17.279 14.778,17.036 12.532,15.975 10.730 C 14.475 8.181,11.641 6.741,8.724 7.046 " fill="#1C274C" stroke="none" fill-rule="evenodd"></path></svg>