<svg width="24" height="24" viewBox="0 0 24 24" fill="none" xmlns="http://www.w3.org/2000/svg"><path d="M18.247 2.068 C 18.173 2.104,18.087 2.173,18.056 2.221 C 18.024 2.269,17.854 2.675,17.677 3.123 C 17.335 3.990,17.234 4.200,17.127 4.266 C 17.090 4.289,16.642 4.474,16.130 4.677 C 15.460 4.943,15.178 5.075,15.121 5.147 C 14.951 5.364,14.982 5.757,15.182 5.914 C 15.237 5.958,15.682 6.151,16.171 6.343 C 16.827 6.601,17.092 6.725,17.183 6.817 C 17.275 6.908,17.399 7.174,17.661 7.840 C 17.894 8.432,18.051 8.777,18.121 8.847 C 18.321 9.048,18.745 9.033,18.913 8.820 C 18.955 8.766,19.148 8.321,19.341 7.831 C 19.600 7.175,19.726 6.907,19.817 6.817 C 19.908 6.725,20.173 6.601,20.829 6.343 C 21.318 6.151,21.763 5.958,21.818 5.914 C 22.018 5.757,22.049 5.364,21.879 5.147 C 21.822 5.075,21.540 4.943,20.870 4.677 C 20.358 4.474,19.910 4.289,19.873 4.266 C 19.766 4.200,19.665 3.990,19.323 3.123 C 19.146 2.675,18.976 2.269,18.944 2.220 C 18.872 2.110,18.645 2.000,18.494 2.001 C 18.431 2.001,18.320 2.031,18.247 2.068 M8.724 7.046 C 6.359 7.293,4.242 8.661,3.025 10.730 C 1.964 12.532,1.721 14.776,2.367 16.796 C 3.096 19.075,4.925 20.904,7.204 21.633 C 8.685 22.107,10.316 22.107,11.795 21.633 C 14.075 20.903,15.903 19.075,16.633 16.795 C 17.279 14.778,17.036 12.532,15.975 10.730 C 14.475 8.181,11.641 6.741,8.724 7.046 M15.336 7.609 L 14.973 7.980 15.503 8.504 L 16.033 9.028 16.399 8.661 L 16.764 8.295 16.614 7.915 L 16.465 7.535 16.143 7.409 C 15.965 7.340,15.793 7.273,15.760 7.261 C 15.720 7.247,15.574 7.367,15.336 7.609 M9.300 11.075 C 9.498 11.164,9.700 11.389,9.824 11.657 C 10.107 12.266,10.037 13.124,9.665 13.611 C 9.174 14.254,8.443 14.066,8.119 13.211 C 8.012 12.929,7.972 12.388,8.036 12.080 C 8.166 11.454,8.570 11.002,9.000 11.002 C 9.077 11.002,9.212 11.035,9.300 11.075 M13.300 11.075 C 13.498 11.164,13.700 11.389,13.824 11.657 C 14.107 12.266,14.037 13.124,13.665 13.611 C 13.174 14.254,12.443 14.066,12.119 13.211 C 12.012 12.929,11.972 12.388,12.036 12.080 C 12.166 11.454,12.570 11.002,13.000 11.002 C 13.077 11.002,13.212 11.035,13.300 11.075 M12.209 15.282 C 12.408 15.337,12.595 15.501,12.685 15.698 C 12.862 16.088,12.680 16.527,12.271 16.698 C 12.052 16.789,9.948 16.789,9.729 16.698 C 9.101 16.436,9.084 15.600,9.700 15.316 C 9.843 15.250,9.976 15.242,10.960 15.241 C 11.596 15.241,12.123 15.258,12.209 15.282 " fill="#1C274C" stroke="none" fill-rule="evenodd"></path></svg>