<svg width="24" height="24" viewBox="0 0 24 24" fill="none" xmlns="http://www.w3.org/2000/svg"><path d="M18.250 2.066 C 18.072 2.154,18.018 2.256,17.635 3.237 C 17.420 3.788,17.263 4.131,17.197 4.197 C 17.130 4.264,16.771 4.427,16.182 4.658 C 15.209 5.040,15.065 5.129,15.018 5.378 C 15.004 5.453,15.004 5.569,15.019 5.637 C 15.071 5.874,15.222 5.965,16.182 6.342 C 16.771 6.573,17.130 6.737,17.196 6.804 C 17.263 6.870,17.427 7.229,17.658 7.818 C 17.908 8.456,18.050 8.764,18.129 8.843 C 18.256 8.969,18.449 9.022,18.637 8.981 C 18.874 8.929,18.966 8.778,19.342 7.818 C 19.575 7.225,19.736 6.871,19.803 6.803 C 19.870 6.737,20.232 6.572,20.818 6.342 C 21.456 6.092,21.764 5.950,21.843 5.871 C 21.969 5.744,22.022 5.551,21.981 5.363 C 21.929 5.126,21.778 5.034,20.818 4.658 C 20.229 4.427,19.870 4.264,19.803 4.197 C 19.737 4.131,19.580 3.788,19.365 3.237 C 19.181 2.766,18.996 2.323,18.955 2.254 C 18.815 2.023,18.505 1.940,18.250 2.066 M8.700 7.047 C 6.154 7.304,3.789 8.987,2.714 11.308 C 1.081 14.836,2.350 18.958,5.684 20.954 C 8.001 22.341,10.999 22.341,13.316 20.954 C 14.600 20.185,15.681 18.998,16.286 17.692 C 17.894 14.218,16.699 10.179,13.460 8.140 C 12.070 7.265,10.382 6.878,8.700 7.047 M15.336 7.609 L 14.973 7.980 15.503 8.504 L 16.033 9.028 16.399 8.661 L 16.764 8.295 16.614 7.915 L 16.465 7.535 16.143 7.409 C 15.965 7.340,15.793 7.273,15.760 7.261 C 15.720 7.247,15.574 7.367,15.336 7.609 " fill="#1C274C" stroke="none" fill-rule="evenodd"></path></svg>