<svg width="24" height="24" viewBox="0 0 24 24" fill="none" xmlns="http://www.w3.org/2000/svg"><path d="M15.380 2.063 C 14.402 2.279,13.640 3.074,13.313 4.220 C 13.192 4.644,13.184 5.444,13.297 5.840 C 13.344 6.004,13.372 6.233,13.372 6.460 C 13.374 7.040,13.371 7.045,12.078 8.342 L 10.960 9.463 10.960 10.365 C 10.960 10.861,10.970 11.277,10.983 11.290 C 10.995 11.302,11.269 11.224,11.591 11.116 C 12.264 10.891,12.481 10.871,12.728 11.010 C 12.818 11.060,12.930 11.171,12.984 11.263 C 13.066 11.404,13.080 11.479,13.080 11.791 C 13.080 11.991,13.093 12.163,13.110 12.171 C 13.127 12.180,13.739 12.095,14.472 11.981 L 15.804 11.775 16.292 11.289 C 16.878 10.705,17.019 10.628,17.499 10.628 C 17.680 10.628,18.011 10.668,18.257 10.719 C 19.929 11.069,21.626 10.091,21.946 8.592 C 22.117 7.789,21.857 6.910,21.276 6.332 C 20.960 6.019,20.649 5.826,20.246 5.693 C 19.948 5.596,19.839 5.580,19.460 5.583 C 18.853 5.586,18.408 5.737,17.941 6.097 L 17.782 6.220 17.931 6.025 C 18.960 4.673,18.331 2.677,16.708 2.141 C 16.294 2.004,15.783 1.974,15.380 2.063 M8.300 12.114 C 7.296 13.111,7.116 13.273,6.963 13.317 C 6.613 13.417,6.396 13.414,5.817 13.300 C 5.356 13.209,5.198 13.194,4.900 13.214 C 3.580 13.301,2.490 14.059,2.132 15.140 C 2.043 15.410,2.026 15.532,2.025 15.920 C 2.023 16.332,2.036 16.416,2.144 16.722 C 2.415 17.488,2.955 18.028,3.718 18.295 C 4.016 18.399,4.116 18.415,4.500 18.416 C 5.106 18.418,5.618 18.250,6.060 17.905 L 6.220 17.780 6.090 17.946 C 5.749 18.380,5.582 18.892,5.584 19.500 C 5.585 19.884,5.601 19.984,5.705 20.282 C 5.972 21.045,6.512 21.585,7.278 21.856 C 7.583 21.964,7.670 21.977,8.080 21.977 C 8.490 21.977,8.577 21.964,8.882 21.856 C 9.775 21.540,10.407 20.809,10.679 19.775 C 10.822 19.235,10.827 18.826,10.700 18.183 C 10.586 17.605,10.583 17.388,10.683 17.037 C 10.727 16.881,10.929 16.663,12.356 15.230 C 13.669 13.910,13.959 13.600,13.879 13.600 C 13.824 13.601,13.495 13.646,13.147 13.700 C 12.312 13.832,12.183 13.830,11.954 13.685 C 11.708 13.529,11.600 13.304,11.600 12.950 L 11.600 12.686 11.023 12.879 C 10.705 12.985,10.392 13.084,10.326 13.099 C 10.164 13.134,9.910 13.060,9.760 12.934 C 9.520 12.732,9.502 12.658,9.480 11.771 L 9.460 10.962 8.300 12.114 " fill="#1C274C" stroke="none" fill-rule="evenodd"></path></svg>