<svg width="24" height="24" viewBox="0 0 24 24" fill="none" xmlns="http://www.w3.org/2000/svg"><path d="M15.380 2.063 C 14.402 2.279,13.640 3.074,13.313 4.220 C 13.192 4.644,13.184 5.444,13.297 5.840 C 13.344 6.005,13.371 6.232,13.372 6.460 C 13.373 7.019,13.330 7.091,12.479 7.941 C 11.978 8.442,11.760 8.686,11.760 8.748 C 11.760 8.821,11.835 8.875,12.170 9.043 C 12.801 9.360,13.249 9.687,13.781 10.219 C 14.313 10.752,14.639 11.198,14.955 11.830 C 15.125 12.168,15.177 12.240,15.251 12.240 C 15.314 12.240,15.553 12.028,16.059 11.521 C 16.894 10.685,16.985 10.629,17.500 10.628 C 17.681 10.628,18.010 10.668,18.257 10.719 C 19.929 11.069,21.626 10.091,21.946 8.592 C 22.117 7.789,21.857 6.910,21.276 6.332 C 20.960 6.019,20.649 5.826,20.246 5.693 C 19.948 5.596,19.839 5.580,19.460 5.583 C 18.853 5.586,18.408 5.737,17.941 6.097 L 17.782 6.220 17.931 6.025 C 18.960 4.673,18.331 2.677,16.708 2.141 C 16.294 2.004,15.783 1.974,15.380 2.063 M8.807 3.289 C 8.691 3.314,8.584 3.376,8.481 3.479 C 8.289 3.671,8.240 3.880,8.240 4.500 C 8.240 5.119,8.289 5.329,8.480 5.520 C 8.889 5.929,9.595 5.725,9.716 5.162 C 9.771 4.904,9.772 4.080,9.717 3.841 C 9.620 3.420,9.247 3.194,8.807 3.289 M4.620 4.257 C 4.471 4.323,4.299 4.504,4.243 4.653 C 4.176 4.828,4.192 5.108,4.277 5.272 C 4.389 5.487,5.866 6.943,6.049 7.019 C 6.333 7.136,6.697 7.064,6.888 6.853 C 7.072 6.650,7.127 6.311,7.019 6.049 C 6.943 5.866,5.487 4.389,5.272 4.277 C 5.099 4.187,4.797 4.178,4.620 4.257 M3.807 8.287 C 3.276 8.406,3.085 9.125,3.480 9.520 C 3.671 9.711,3.881 9.760,4.500 9.760 C 5.119 9.760,5.329 9.711,5.520 9.520 C 5.929 9.111,5.725 8.405,5.162 8.284 C 4.915 8.231,4.049 8.233,3.807 8.287 M7.904 12.512 C 7.265 13.141,7.111 13.273,6.963 13.316 C 6.615 13.417,6.397 13.414,5.817 13.300 C 5.356 13.209,5.198 13.194,4.900 13.214 C 3.580 13.301,2.490 14.059,2.132 15.140 C 2.043 15.410,2.026 15.532,2.025 15.920 C 2.023 16.332,2.036 16.416,2.144 16.722 C 2.415 17.488,2.955 18.028,3.718 18.295 C 4.016 18.399,4.116 18.415,4.500 18.416 C 5.106 18.418,5.618 18.250,6.060 17.905 L 6.220 17.780 6.090 17.946 C 5.749 18.380,5.582 18.892,5.584 19.500 C 5.585 19.884,5.601 19.984,5.705 20.282 C 5.972 21.045,6.512 21.585,7.278 21.856 C 7.583 21.964,7.670 21.977,8.080 21.977 C 8.490 21.977,8.577 21.964,8.882 21.856 C 9.775 21.540,10.407 20.809,10.679 19.775 C 10.822 19.235,10.827 18.826,10.700 18.183 C 10.586 17.603,10.583 17.385,10.684 17.037 C 10.727 16.889,10.859 16.735,11.488 16.096 C 11.986 15.589,12.240 15.303,12.240 15.247 C 12.240 15.181,12.176 15.133,11.950 15.028 C 10.700 14.447,9.553 13.300,8.972 12.050 C 8.867 11.824,8.819 11.760,8.753 11.760 C 8.697 11.760,8.411 12.014,7.904 12.512 M18.807 14.287 C 18.276 14.406,18.085 15.125,18.480 15.520 C 18.671 15.711,18.881 15.760,19.500 15.760 C 20.119 15.760,20.329 15.711,20.520 15.520 C 20.929 15.111,20.725 14.405,20.162 14.284 C 19.915 14.231,19.049 14.233,18.807 14.287 M17.340 16.987 C 17.155 17.085,17.075 17.166,16.995 17.340 C 16.905 17.536,16.900 17.755,16.981 17.951 C 17.057 18.134,18.513 19.611,18.728 19.723 C 18.998 19.863,19.354 19.814,19.575 19.607 C 19.805 19.392,19.869 19.010,19.723 18.728 C 19.611 18.513,18.134 17.057,17.951 16.981 C 17.762 16.903,17.494 16.905,17.340 16.987 M14.807 18.289 C 14.691 18.314,14.584 18.376,14.481 18.479 C 14.289 18.671,14.240 18.880,14.240 19.500 C 14.240 20.119,14.289 20.329,14.480 20.520 C 14.889 20.929,15.595 20.725,15.716 20.162 C 15.771 19.904,15.772 19.080,15.717 18.841 C 15.620 18.420,15.247 18.194,14.807 18.289 " fill="#1C274C" stroke="none" fill-rule="evenodd"></path></svg>