<svg width="24" height="24" viewBox="0 0 24 24" fill="none" xmlns="http://www.w3.org/2000/svg"><path d="M15.380 2.063 C 14.402 2.279,13.640 3.074,13.313 4.220 C 13.192 4.644,13.184 5.444,13.297 5.840 C 13.405 6.219,13.400 6.758,13.285 7.022 C 13.210 7.193,12.728 7.692,10.168 10.246 C 7.458 12.950,7.121 13.272,6.963 13.317 C 6.616 13.416,6.397 13.413,5.849 13.305 C 5.240 13.184,4.988 13.176,4.502 13.261 C 3.607 13.417,2.770 13.947,2.367 14.614 C 2.294 14.734,2.187 14.965,2.129 15.127 C 2.038 15.380,2.024 15.486,2.022 15.900 C 2.020 16.302,2.036 16.428,2.116 16.672 C 2.525 17.922,3.847 18.676,5.081 18.365 C 5.476 18.265,5.753 18.138,6.022 17.932 L 6.215 17.785 6.068 17.978 C 5.318 18.960,5.425 20.381,6.316 21.260 C 6.779 21.717,7.302 21.951,7.940 21.987 C 9.219 22.060,10.279 21.209,10.687 19.780 C 10.808 19.356,10.816 18.556,10.703 18.160 C 10.595 17.781,10.600 17.242,10.715 16.979 C 10.788 16.809,11.275 16.305,13.791 13.790 C 16.283 11.300,16.813 10.788,16.979 10.715 C 17.247 10.598,17.684 10.599,18.257 10.719 C 19.929 11.069,21.626 10.091,21.946 8.592 C 22.117 7.789,21.857 6.910,21.276 6.332 C 20.960 6.019,20.649 5.826,20.246 5.693 C 19.948 5.596,19.839 5.580,19.460 5.583 C 18.853 5.586,18.408 5.737,17.941 6.097 L 17.782 6.220 17.931 6.025 C 18.960 4.673,18.331 2.677,16.708 2.141 C 16.294 2.004,15.783 1.974,15.380 2.063 " fill="#1C274C" stroke="none" fill-rule="evenodd"></path></svg>