<svg width="24" height="24" viewBox="0 0 24 24" fill="none" xmlns="http://www.w3.org/2000/svg"><path d="M8.440 2.043 C 5.815 2.137,4.484 2.504,3.549 3.393 C 2.551 4.342,2.166 5.587,2.041 8.260 C 1.988 9.399,1.988 14.601,2.041 15.740 C 2.166 18.413,2.551 19.658,3.548 20.606 C 4.305 21.326,5.378 21.717,7.040 21.879 C 7.448 21.919,8.944 21.997,9.332 21.999 L 9.525 22.000 9.512 20.850 C 9.500 19.735,9.497 19.695,9.407 19.526 C 9.262 19.254,9.018 19.017,8.603 18.744 C 7.997 18.346,7.666 17.981,7.365 17.380 C 7.108 16.865,7.022 16.504,7.025 15.940 C 7.027 15.531,7.043 15.417,7.131 15.167 C 7.272 14.767,7.454 14.474,7.743 14.184 C 8.799 13.126,10.512 13.213,11.470 14.374 C 11.696 14.647,11.902 15.076,11.973 15.420 C 12.034 15.716,12.045 15.711,12.117 15.358 C 12.256 14.678,12.815 13.998,13.504 13.673 C 14.426 13.238,15.577 13.436,16.302 14.154 C 17.220 15.064,17.315 16.385,16.553 17.670 C 16.352 18.010,15.913 18.451,15.526 18.704 C 15.064 19.005,14.815 19.249,14.675 19.540 L 14.560 19.780 14.560 20.890 L 14.560 22.000 14.710 21.999 C 15.069 21.997,16.576 21.917,16.960 21.879 C 18.267 21.751,19.230 21.475,19.908 21.032 C 20.997 20.322,21.582 19.237,21.816 17.500 C 21.964 16.400,21.980 15.849,21.980 12.000 C 21.980 9.228,21.966 8.049,21.927 7.580 C 21.743 5.332,21.366 4.263,20.451 3.393 C 19.541 2.527,18.166 2.133,15.799 2.060 C 15.415 2.048,14.969 2.030,14.808 2.020 L 14.517 2.001 14.528 3.170 C 14.540 4.306,14.543 4.345,14.633 4.520 C 14.770 4.783,15.049 5.053,15.482 5.338 C 16.280 5.865,16.822 6.675,16.978 7.575 C 17.056 8.023,17.056 8.207,16.977 8.590 C 16.734 9.765,15.719 10.600,14.534 10.600 C 14.082 10.600,13.843 10.544,13.406 10.334 C 12.806 10.046,12.352 9.529,12.131 8.882 C 12.082 8.738,12.042 8.562,12.041 8.490 C 12.039 8.292,11.974 8.335,11.949 8.550 C 11.915 8.836,11.776 9.169,11.552 9.504 C 11.095 10.187,10.315 10.600,9.480 10.600 C 8.396 10.600,7.448 9.916,7.098 8.882 C 6.692 7.683,7.304 6.125,8.478 5.367 C 8.946 5.065,9.227 4.790,9.366 4.500 L 9.480 4.260 9.480 3.130 L 9.480 2.000 9.390 2.006 C 9.341 2.010,8.913 2.026,8.440 2.043 " fill="#1C274C" stroke="none" fill-rule="evenodd"></path></svg>