<svg width="24" height="24" viewBox="0 0 24 24" fill="none" xmlns="http://www.w3.org/2000/svg"><path d="M13.318 2.052 C 12.945 2.158,12.665 2.407,12.489 2.793 C 12.410 2.964,12.382 3.113,12.356 3.495 C 12.287 4.485,12.123 5.161,11.781 5.864 C 11.445 6.553,11.130 6.815,10.724 6.740 C 10.241 6.652,9.775 6.079,9.617 5.380 C 9.531 4.996,9.429 4.786,9.272 4.666 C 9.032 4.483,8.634 4.454,8.360 4.599 C 8.146 4.713,7.687 5.086,7.417 5.366 C 6.324 6.498,5.883 7.833,6.037 9.540 C 6.185 11.175,6.710 12.401,7.675 13.361 C 8.451 14.133,9.433 14.650,10.561 14.880 C 11.855 15.144,13.440 14.900,14.780 14.232 C 16.724 13.263,17.786 11.649,17.968 9.390 C 18.146 7.167,17.310 5.044,15.560 3.279 C 15.074 2.789,14.378 2.222,14.125 2.109 C 13.902 2.011,13.553 1.986,13.318 2.052 M15.219 9.285 C 15.507 9.364,15.761 9.711,15.759 10.020 C 15.758 10.177,15.564 10.647,15.377 10.948 C 14.726 11.991,13.606 12.647,12.312 12.742 C 11.755 12.783,11.478 12.661,11.315 12.302 C 11.081 11.785,11.471 11.240,12.075 11.240 C 13.053 11.240,13.930 10.664,14.276 9.795 C 14.380 9.533,14.529 9.376,14.745 9.299 C 14.936 9.231,15.016 9.228,15.219 9.285 M3.811 14.278 C 3.418 14.374,3.172 14.799,3.279 15.197 C 3.375 15.551,3.359 15.543,6.200 16.784 C 9.098 18.051,9.029 18.028,9.373 17.826 C 9.577 17.707,9.661 17.593,9.727 17.345 C 9.809 17.039,9.644 16.687,9.345 16.532 C 8.932 16.318,4.213 14.283,4.090 14.267 C 4.007 14.256,3.882 14.261,3.811 14.278 M19.820 14.278 C 19.714 14.306,4.265 21.055,3.727 21.308 C 3.217 21.549,3.094 22.143,3.475 22.525 C 3.641 22.691,3.900 22.780,4.104 22.742 C 4.176 22.728,7.876 21.125,12.327 19.178 C 19.184 16.180,20.439 15.618,20.548 15.503 C 20.773 15.262,20.811 14.890,20.639 14.608 C 20.486 14.356,20.106 14.203,19.820 14.278 M14.163 18.947 C 13.704 19.188,13.616 19.781,13.988 20.130 C 14.112 20.247,19.653 22.696,19.896 22.742 C 20.357 22.828,20.826 22.351,20.740 21.884 C 20.706 21.701,20.585 21.503,20.447 21.406 C 20.247 21.264,14.715 18.870,14.545 18.851 C 14.417 18.837,14.331 18.859,14.163 18.947 " fill="#1C274C" stroke="none" fill-rule="evenodd"></path></svg>