<svg width="24" height="24" viewBox="0 0 24 24" fill="none" xmlns="http://www.w3.org/2000/svg"><path d="M8.710 2.043 C 6.268 2.139,5.092 2.504,4.236 3.433 C 3.556 4.171,3.260 5.050,3.075 6.880 C 3.010 7.522,2.977 17.853,3.037 18.905 C 3.099 20.005,3.227 20.661,3.459 21.061 C 3.684 21.448,4.221 21.820,4.730 21.940 C 5.089 22.024,5.324 22.014,5.669 21.898 C 6.368 21.664,7.087 21.127,9.200 19.260 C 10.351 18.243,10.776 17.908,11.140 17.734 C 11.670 17.481,12.330 17.481,12.860 17.734 C 13.224 17.908,13.649 18.243,14.800 19.260 C 16.906 21.121,17.632 21.664,18.331 21.898 C 18.676 22.014,18.911 22.024,19.270 21.940 C 19.779 21.820,20.316 21.448,20.541 21.061 C 20.773 20.661,20.901 20.005,20.963 18.905 C 21.023 17.853,20.990 7.522,20.925 6.880 C 20.740 5.050,20.444 4.171,19.764 3.433 C 18.887 2.482,17.773 2.146,15.140 2.041 C 14.000 1.995,9.893 1.997,8.710 2.043 M15.388 5.367 C 15.628 5.526,15.733 5.721,15.733 6.007 C 15.733 6.203,15.714 6.271,15.616 6.409 C 15.552 6.501,15.436 6.613,15.359 6.658 C 15.222 6.739,15.173 6.740,12.000 6.740 C 8.827 6.740,8.778 6.739,8.641 6.658 C 8.564 6.613,8.448 6.501,8.384 6.409 C 8.098 6.003,8.330 5.395,8.815 5.278 C 8.884 5.261,10.354 5.250,12.083 5.254 L 15.226 5.260 15.388 5.367 " fill="#1C274C" stroke="none" fill-rule="evenodd"></path></svg>