<svg width="24" height="24" viewBox="0 0 24 24" fill="none" xmlns="http://www.w3.org/2000/svg"><path d="M7.550 2.030 L 7.320 2.044 7.320 8.782 L 7.320 15.520 13.660 15.520 L 20.000 15.520 20.000 10.750 C 19.999 6.226,19.973 4.809,19.878 4.205 C 19.762 3.464,19.580 3.026,19.260 2.724 C 18.787 2.276,18.184 2.114,16.715 2.040 C 16.011 2.005,8.094 1.995,7.550 2.030 M5.480 2.278 C 5.220 2.357,4.883 2.569,4.688 2.775 C 4.366 3.116,4.220 3.503,4.090 4.357 C 4.034 4.727,4.024 5.500,4.011 10.516 L 3.996 16.252 4.108 16.178 C 4.462 15.944,4.820 15.791,5.320 15.658 L 5.660 15.568 5.670 8.904 C 5.678 3.584,5.670 2.241,5.630 2.243 C 5.603 2.245,5.535 2.261,5.480 2.278 M5.820 17.201 C 5.138 17.336,4.479 17.848,4.152 18.496 C 4.032 18.734,4.031 18.743,4.058 19.159 C 4.110 19.938,4.259 20.593,4.465 20.944 C 4.518 21.036,4.650 21.193,4.756 21.292 C 5.215 21.722,5.824 21.884,7.262 21.959 C 8.247 22.011,15.753 22.011,16.738 21.959 C 18.176 21.884,18.785 21.722,19.244 21.292 C 19.576 20.982,19.737 20.620,19.856 19.914 C 19.924 19.515,19.999 18.299,20.000 17.590 L 20.000 17.160 12.990 17.164 C 9.135 17.167,5.908 17.183,5.820 17.201 " fill="#1C274C" stroke="none" fill-rule="evenodd"></path></svg>