<svg width="24" height="24" viewBox="0 0 24 24" fill="none" xmlns="http://www.w3.org/2000/svg"><path d="M7.150 2.043 C 6.476 2.078,5.813 2.172,5.506 2.278 C 4.797 2.522,4.409 2.944,4.220 3.677 C 4.026 4.432,4.027 4.410,4.011 10.515 L 3.996 16.250 4.128 16.162 C 4.300 16.047,4.767 15.827,5.020 15.741 C 5.635 15.532,5.183 15.544,12.872 15.531 L 20.004 15.518 19.989 10.149 C 19.976 5.482,19.965 4.725,19.910 4.357 C 19.776 3.476,19.610 3.055,19.268 2.731 C 18.787 2.276,18.208 2.118,16.738 2.041 C 15.868 1.995,8.041 1.997,7.150 2.043 M16.804 5.893 C 16.901 5.944,17.034 6.062,17.099 6.155 C 17.356 6.520,17.208 7.093,16.804 7.307 L 16.627 7.400 12.000 7.400 L 7.373 7.400 7.196 7.307 C 6.933 7.168,6.780 6.899,6.780 6.577 C 6.780 6.364,6.798 6.302,6.900 6.157 C 6.966 6.063,7.099 5.944,7.196 5.893 L 7.373 5.800 12.000 5.800 L 16.627 5.800 16.804 5.893 M13.316 9.599 C 13.504 9.653,13.690 9.787,13.801 9.950 C 13.927 10.134,13.956 10.493,13.860 10.694 C 13.768 10.887,13.521 11.105,13.333 11.157 C 13.232 11.185,12.217 11.200,10.335 11.200 C 7.876 11.200,7.466 11.192,7.316 11.138 C 6.865 10.979,6.643 10.481,6.835 10.060 C 6.921 9.870,7.157 9.651,7.311 9.617 C 7.371 9.604,7.438 9.587,7.460 9.580 C 7.563 9.545,13.193 9.564,13.316 9.599 M5.820 17.201 C 5.138 17.336,4.479 17.848,4.152 18.496 C 4.032 18.734,4.031 18.743,4.058 19.159 C 4.110 19.938,4.259 20.593,4.465 20.944 C 4.671 21.297,5.082 21.594,5.560 21.737 C 6.317 21.963,7.218 21.999,12.000 21.999 C 16.782 21.999,17.683 21.963,18.440 21.737 C 19.065 21.550,19.490 21.168,19.683 20.621 L 19.754 20.420 13.567 20.400 L 7.380 20.380 7.220 20.294 C 6.654 19.989,6.600 19.279,7.114 18.906 L 7.288 18.780 13.618 18.770 L 19.948 18.759 19.974 18.430 C 19.988 18.248,20.000 17.889,20.000 17.630 L 20.000 17.160 12.990 17.164 C 9.135 17.167,5.908 17.183,5.820 17.201 " fill="#1C274C" stroke="none" fill-rule="evenodd"></path></svg>