<svg width="24" height="24" viewBox="0 0 24 24" fill="none" xmlns="http://www.w3.org/2000/svg"><path d="M8.560 2.039 C 8.153 2.056,7.806 2.072,7.790 2.075 C 7.743 2.083,7.753 10.035,7.801 10.206 C 7.870 10.456,8.244 10.722,8.520 10.719 C 8.664 10.717,8.953 10.534,9.734 9.947 C 10.604 9.294,10.887 9.127,11.320 9.013 C 11.703 8.912,12.333 8.922,12.740 9.035 C 13.154 9.151,13.384 9.282,14.033 9.775 C 15.234 10.688,15.370 10.763,15.674 10.682 C 15.895 10.622,16.147 10.394,16.199 10.206 C 16.225 10.112,16.240 8.645,16.240 6.074 L 16.240 2.089 16.090 2.064 C 15.859 2.026,9.397 2.005,8.560 2.039 M5.800 2.305 C 4.011 2.695,2.945 3.625,2.459 5.221 C 2.103 6.387,2.001 7.900,2.001 12.000 C 2.001 16.100,2.103 17.613,2.459 18.779 C 2.891 20.195,3.805 21.109,5.221 21.541 C 6.387 21.897,7.900 21.999,12.000 21.999 C 16.100 21.999,17.613 21.897,18.779 21.541 C 20.195 21.109,21.109 20.195,21.541 18.779 C 21.897 17.613,21.999 16.101,21.999 11.980 C 21.999 7.887,21.899 6.409,21.538 5.213 C 21.165 3.975,20.372 3.084,19.233 2.620 C 18.909 2.488,18.272 2.310,17.932 2.257 L 17.764 2.230 17.750 6.265 C 17.736 10.698,17.748 10.466,17.492 11.000 C 17.342 11.312,16.853 11.792,16.520 11.953 C 15.840 12.282,15.162 12.284,14.520 11.960 C 14.388 11.893,13.898 11.551,13.432 11.200 C 12.532 10.523,12.376 10.440,12.000 10.440 C 11.624 10.440,11.468 10.523,10.568 11.200 C 10.102 11.551,9.612 11.893,9.480 11.960 C 8.838 12.284,8.160 12.282,7.480 11.953 C 7.147 11.792,6.658 11.312,6.508 11.000 C 6.252 10.466,6.264 10.697,6.250 6.270 L 6.236 2.240 6.148 2.244 C 6.100 2.246,5.943 2.274,5.800 2.305 " fill="#1C274C" stroke="none" fill-rule="evenodd"></path></svg>