<svg width="24" height="24" viewBox="0 0 24 24" fill="none" xmlns="http://www.w3.org/2000/svg"><path d="M8.580 2.040 C 8.184 2.056,7.837 2.072,7.809 2.075 C 7.768 2.079,7.760 3.171,7.769 7.656 L 7.780 13.233 7.903 13.386 C 8.064 13.588,8.252 13.680,8.502 13.680 C 8.751 13.680,8.826 13.635,9.819 12.882 C 10.615 12.278,10.785 12.177,11.241 12.034 C 11.666 11.901,12.334 11.901,12.759 12.034 C 13.215 12.177,13.385 12.278,14.181 12.882 C 15.174 13.635,15.249 13.680,15.498 13.680 C 15.748 13.680,15.936 13.588,16.097 13.386 L 16.220 13.233 16.231 7.661 L 16.242 2.089 16.071 2.064 C 15.804 2.027,9.385 2.005,8.580 2.040 M5.660 2.338 C 4.020 2.718,2.994 3.610,2.504 5.080 C 2.237 5.882,2.110 6.764,2.041 8.280 C 1.989 9.450,1.989 14.605,2.041 15.740 C 2.160 18.285,2.507 19.501,3.379 20.433 C 4.323 21.444,5.571 21.833,8.260 21.959 C 9.399 22.012,14.601 22.012,15.740 21.959 C 18.285 21.840,19.501 21.493,20.433 20.621 C 21.360 19.755,21.742 18.682,21.927 16.420 C 22.002 15.512,22.002 8.488,21.927 7.580 C 21.741 5.312,21.361 4.246,20.426 3.372 C 19.840 2.823,18.902 2.402,17.952 2.260 L 17.764 2.232 17.749 7.726 C 17.736 12.636,17.728 13.249,17.669 13.490 C 17.417 14.536,16.455 15.250,15.380 15.190 C 14.773 15.156,14.508 15.017,13.306 14.105 C 12.441 13.449,12.464 13.460,12.000 13.460 C 11.536 13.460,11.559 13.449,10.694 14.105 C 9.492 15.017,9.227 15.156,8.620 15.190 C 7.545 15.250,6.583 14.536,6.331 13.490 C 6.272 13.249,6.264 12.637,6.251 7.730 L 6.236 2.240 6.148 2.243 C 6.100 2.244,5.880 2.287,5.660 2.338 M17.373 17.355 C 17.615 17.506,17.733 17.718,17.733 18.003 C 17.733 18.203,17.714 18.270,17.616 18.409 C 17.552 18.501,17.436 18.613,17.359 18.658 C 17.221 18.740,17.189 18.740,12.000 18.740 C 6.811 18.740,6.779 18.740,6.641 18.658 C 6.564 18.613,6.448 18.501,6.384 18.409 C 6.098 18.003,6.330 17.395,6.815 17.278 C 6.884 17.261,9.253 17.250,12.080 17.254 L 17.220 17.260 17.373 17.355 " fill="#1C274C" stroke="none" fill-rule="evenodd"></path></svg>