<svg width="24" height="24" viewBox="0 0 24 24" fill="none" xmlns="http://www.w3.org/2000/svg"><path d="M11.120 2.039 C 9.316 2.220,7.707 2.807,6.280 3.806 C 2.696 6.315,1.150 10.849,2.462 15.000 C 2.954 16.557,3.767 17.890,4.938 19.062 C 6.528 20.651,8.440 21.596,10.740 21.928 C 11.213 21.996,12.787 21.996,13.260 21.928 C 15.135 21.657,16.725 20.987,18.200 19.845 C 18.637 19.507,19.507 18.637,19.845 18.200 C 22.092 15.297,22.619 11.564,21.254 8.220 C 20.058 5.287,17.480 3.053,14.430 2.303 C 13.446 2.062,12.028 1.948,11.120 2.039 M14.260 7.097 C 14.957 7.225,15.410 7.536,15.659 8.057 C 15.831 8.418,15.907 8.794,15.958 9.542 C 16.009 10.291,16.010 15.155,15.960 15.716 C 15.893 16.463,15.764 16.727,15.382 16.905 C 14.878 17.140,14.670 17.020,13.352 15.733 C 12.918 15.310,12.486 14.923,12.391 14.874 C 12.159 14.752,11.840 14.753,11.606 14.875 C 11.510 14.925,11.096 15.294,10.686 15.695 C 9.338 17.013,9.121 17.140,8.618 16.905 C 8.236 16.727,8.107 16.463,8.040 15.716 C 7.991 15.171,7.991 10.309,8.040 9.554 C 8.060 9.232,8.107 8.828,8.142 8.656 C 8.316 7.815,8.776 7.316,9.544 7.137 C 9.999 7.031,10.578 7.006,12.280 7.019 C 13.572 7.029,13.973 7.044,14.260 7.097 " fill="#1C274C" stroke="none" fill-rule="evenodd"></path></svg>