<svg width="24" height="24" viewBox="0 0 24 24" fill="none" xmlns="http://www.w3.org/2000/svg"><path d="M8.440 2.043 C 5.465 2.149,4.083 2.619,3.135 3.847 C 2.669 4.451,2.319 5.428,2.179 6.514 L 2.151 6.728 2.386 6.537 C 3.331 5.766,4.205 5.451,5.784 5.312 C 6.644 5.237,17.356 5.237,18.216 5.312 C 19.795 5.451,20.669 5.766,21.614 6.537 L 21.849 6.728 21.821 6.514 C 21.501 4.022,20.349 2.724,18.071 2.284 C 17.428 2.160,16.597 2.084,15.393 2.041 C 14.150 1.996,9.732 1.997,8.440 2.043 M7.768 9.496 L 7.780 12.233 7.903 12.386 C 8.064 12.588,8.252 12.680,8.502 12.680 C 8.751 12.680,8.826 12.635,9.819 11.882 C 10.615 11.278,10.785 11.177,11.241 11.034 C 11.666 10.901,12.334 10.901,12.759 11.034 C 13.215 11.177,13.385 11.278,14.181 11.882 C 15.174 12.635,15.249 12.680,15.498 12.680 C 15.748 12.680,15.936 12.588,16.097 12.386 L 16.220 12.233 16.232 9.496 L 16.243 6.760 12.000 6.760 L 7.757 6.760 7.768 9.496 M5.360 6.865 C 4.803 6.940,4.423 7.047,4.049 7.236 C 3.178 7.674,2.399 8.522,2.085 9.372 C 2.001 9.599,2.000 9.646,2.000 12.232 C 2.001 14.941,2.038 16.223,2.143 17.160 C 2.320 18.731,2.682 19.688,3.379 20.433 C 4.323 21.444,5.571 21.833,8.260 21.959 C 9.399 22.012,14.601 22.012,15.740 21.959 C 18.285 21.840,19.501 21.493,20.433 20.621 C 21.348 19.766,21.730 18.709,21.923 16.500 C 21.950 16.195,21.977 14.670,21.989 12.807 L 22.009 9.634 21.919 9.387 C 21.532 8.316,20.434 7.295,19.351 7.001 C 19.037 6.916,18.225 6.800,17.942 6.800 L 17.767 6.800 17.749 9.510 C 17.733 11.794,17.721 12.262,17.667 12.490 C 17.424 13.530,16.455 14.250,15.380 14.190 C 14.773 14.156,14.508 14.017,13.306 13.105 C 12.441 12.449,12.464 12.460,12.000 12.460 C 11.536 12.460,11.559 12.449,10.694 13.105 C 9.492 14.017,9.227 14.156,8.620 14.190 C 7.545 14.250,6.576 13.530,6.333 12.490 C 6.279 12.262,6.267 11.794,6.251 9.510 L 6.233 6.800 6.006 6.804 C 5.882 6.806,5.591 6.834,5.360 6.865 " fill="#1C274C" stroke="none" fill-rule="evenodd"></path></svg>