<svg width="24" height="24" viewBox="0 0 24 24" fill="none" xmlns="http://www.w3.org/2000/svg"><path d="M10.380 1.281 C 10.072 1.297,9.658 1.341,9.460 1.378 C 8.325 1.592,7.626 2.270,7.395 3.380 C 7.321 3.737,7.242 4.895,7.241 5.644 L 7.240 6.028 6.730 6.055 C 5.184 6.136,4.337 6.345,3.617 6.822 C 2.947 7.265,2.534 7.897,2.303 8.829 C 2.054 9.832,2.020 10.448,2.020 14.000 C 2.020 17.552,2.054 18.168,2.303 19.171 C 2.430 19.683,2.561 19.989,2.822 20.383 C 3.067 20.753,3.286 20.968,3.670 21.216 C 4.297 21.621,4.988 21.804,6.360 21.928 C 7.203 22.004,16.756 22.003,17.640 21.927 C 19.023 21.808,19.720 21.618,20.383 21.178 C 20.753 20.933,20.968 20.714,21.216 20.330 C 21.888 19.290,22.030 17.987,21.987 13.220 C 21.965 10.759,21.939 10.185,21.817 9.425 C 21.684 8.598,21.519 8.132,21.178 7.617 C 20.503 6.598,19.430 6.169,17.270 6.055 L 16.760 6.028 16.759 5.644 C 16.758 4.895,16.679 3.737,16.605 3.380 C 16.376 2.278,15.676 1.594,14.560 1.382 C 13.898 1.256,11.829 1.206,10.380 1.281 M13.960 2.800 C 15.076 2.928,15.236 3.232,15.239 5.230 L 15.240 6.000 12.000 6.000 L 8.760 6.000 8.761 5.230 C 8.764 3.260,8.933 2.925,9.988 2.802 C 10.386 2.756,13.562 2.754,13.960 2.800 M18.267 8.803 C 18.516 8.896,18.758 9.241,18.758 9.500 C 18.758 9.759,18.516 10.104,18.267 10.197 C 18.109 10.257,5.891 10.257,5.733 10.197 C 5.484 10.104,5.242 9.759,5.242 9.500 C 5.242 9.347,5.363 9.078,5.485 8.961 C 5.703 8.753,5.373 8.763,11.987 8.762 C 16.251 8.760,18.190 8.773,18.267 8.803 M8.507 12.282 C 8.939 12.341,9.538 12.552,9.930 12.785 C 10.374 13.047,10.953 13.626,11.215 14.070 C 11.782 15.027,11.902 16.166,11.545 17.209 C 11.349 17.780,11.090 18.190,10.640 18.640 C 10.190 19.090,9.780 19.349,9.209 19.545 C 8.166 19.902,7.027 19.782,6.070 19.215 C 5.626 18.953,5.047 18.374,4.785 17.930 C 4.218 16.973,4.098 15.834,4.455 14.791 C 4.651 14.220,4.910 13.810,5.360 13.360 C 6.215 12.505,7.331 12.123,8.507 12.282 M16.794 12.337 C 17.492 12.488,18.117 12.833,18.642 13.358 C 19.380 14.096,19.733 14.952,19.733 16.000 C 19.733 17.048,19.380 17.904,18.642 18.642 C 17.904 19.380,17.048 19.733,16.000 19.733 C 14.952 19.733,14.096 19.380,13.358 18.642 C 12.619 17.903,12.265 17.048,12.265 16.000 C 12.265 14.952,12.619 14.097,13.358 13.358 C 13.546 13.170,13.835 12.933,14.000 12.831 C 14.480 12.534,14.832 12.409,15.600 12.264 C 15.785 12.230,16.497 12.273,16.794 12.337 M15.480 13.821 C 14.715 14.008,14.138 14.533,13.875 15.280 C 13.800 15.493,13.783 15.623,13.783 16.000 C 13.783 16.377,13.800 16.507,13.875 16.720 C 14.109 17.386,14.615 17.892,15.280 18.126 C 15.653 18.257,16.347 18.257,16.720 18.125 C 17.373 17.895,17.861 17.418,18.105 16.772 C 18.281 16.302,18.276 15.651,18.091 15.188 L 18.028 15.033 17.584 15.475 C 17.330 15.727,17.076 15.943,16.991 15.978 C 16.538 16.166,16.025 15.869,15.971 15.385 C 15.936 15.075,16.013 14.939,16.506 14.437 L 16.962 13.974 16.855 13.925 C 16.508 13.767,15.891 13.720,15.480 13.821 M6.960 14.008 C 6.607 14.187,6.173 14.622,6.008 14.961 C 5.560 15.880,5.718 16.878,6.420 17.580 C 7.309 18.469,8.691 18.469,9.580 17.580 C 10.282 16.878,10.440 15.880,9.992 14.961 C 9.827 14.622,9.393 14.187,9.040 14.008 L 8.780 13.875 8.760 14.554 C 8.740 15.231,8.740 15.234,8.619 15.405 C 8.453 15.641,8.273 15.739,8.000 15.739 C 7.727 15.739,7.547 15.641,7.381 15.405 C 7.260 15.234,7.260 15.231,7.240 14.554 L 7.220 13.875 6.960 14.008 " fill="#1C274C" stroke="none" fill-rule="evenodd"></path></svg>