<svg width="24" height="24" viewBox="0 0 24 24" fill="none" xmlns="http://www.w3.org/2000/svg"><path d="M16.749 1.481 C 16.327 1.587,16.091 1.816,15.724 2.475 L 15.471 2.930 13.859 3.725 C 12.972 4.162,12.078 4.631,11.873 4.767 C 11.368 5.102,10.659 5.816,10.310 6.342 C 9.797 7.113,9.531 7.796,9.319 8.883 C 9.160 9.696,8.987 10.236,8.682 10.868 C 8.200 11.867,7.868 12.282,6.373 13.760 C 5.760 14.365,5.139 15.011,4.991 15.197 C 4.467 15.854,4.263 16.448,4.266 17.300 C 4.268 17.907,4.349 18.269,4.595 18.780 C 4.896 19.406,5.236 19.762,6.040 20.297 C 6.683 20.724,8.998 22.101,9.461 22.332 C 10.291 22.745,10.756 22.829,11.502 22.699 C 12.594 22.508,13.495 21.795,13.914 20.788 C 14.079 20.391,14.225 19.845,14.582 18.282 C 14.919 16.809,15.061 16.352,15.380 15.711 C 15.825 14.818,16.141 14.410,17.199 13.360 C 17.996 12.569,18.219 12.279,18.577 11.566 C 18.930 10.864,19.126 10.147,19.205 9.270 C 19.246 8.823,19.237 8.622,19.105 6.992 C 19.025 6.009,18.960 5.141,18.960 5.064 C 18.960 4.968,19.040 4.778,19.218 4.452 C 19.360 4.192,19.502 3.881,19.533 3.760 C 19.644 3.330,19.479 2.815,19.141 2.540 C 18.938 2.374,17.898 1.745,17.580 1.595 C 17.313 1.470,16.979 1.424,16.749 1.481 M16.708 4.786 C 17.099 5.021,17.427 5.218,17.435 5.225 C 17.443 5.231,17.500 5.872,17.562 6.648 C 17.624 7.425,17.684 8.154,17.694 8.269 L 17.714 8.477 17.087 8.687 C 16.500 8.884,16.434 8.897,16.060 8.899 C 15.571 8.900,15.284 8.817,14.940 8.572 C 14.477 8.243,14.096 8.037,13.720 7.911 C 13.355 7.789,13.313 7.783,12.680 7.782 C 11.979 7.780,11.768 7.817,11.288 8.025 L 11.075 8.118 11.102 8.029 C 11.156 7.853,11.459 7.304,11.634 7.064 C 11.887 6.721,12.252 6.349,12.575 6.107 C 12.752 5.974,13.403 5.626,14.395 5.133 C 15.245 4.711,15.952 4.365,15.968 4.363 C 15.983 4.361,16.316 4.552,16.708 4.786 " fill="#1C274C" stroke="none" fill-rule="evenodd"></path></svg>