<svg width="24" height="24" viewBox="0 0 24 24" fill="none" xmlns="http://www.w3.org/2000/svg"><path d="M11.120 2.039 C 9.316 2.220,7.707 2.807,6.280 3.806 C 2.696 6.315,1.150 10.849,2.462 15.000 C 2.954 16.557,3.767 17.890,4.938 19.062 C 6.528 20.651,8.440 21.596,10.740 21.928 C 11.213 21.996,12.787 21.996,13.260 21.928 C 15.135 21.657,16.725 20.987,18.200 19.845 C 18.637 19.507,19.507 18.637,19.845 18.200 C 22.092 15.297,22.619 11.564,21.254 8.220 C 20.058 5.287,17.480 3.053,14.430 2.303 C 13.446 2.062,12.028 1.948,11.120 2.039 M12.647 5.652 C 12.912 5.782,13.250 6.125,13.372 6.390 C 13.445 6.547,13.460 6.652,13.460 7.000 C 13.460 7.376,13.449 7.443,13.351 7.641 C 13.061 8.232,12.403 8.581,11.772 8.479 C 11.298 8.402,10.863 8.077,10.649 7.641 C 10.551 7.443,10.540 7.376,10.540 7.000 C 10.540 6.501,10.607 6.318,10.903 6.001 C 11.256 5.623,11.522 5.515,12.062 5.532 C 12.361 5.541,12.463 5.562,12.647 5.652 M8.520 8.099 C 8.917 8.239,9.243 8.570,9.402 8.994 C 9.533 9.343,9.503 9.814,9.329 10.169 C 9.175 10.480,8.924 10.722,8.600 10.873 C 8.413 10.961,8.324 10.976,8.000 10.976 C 7.676 10.976,7.587 10.961,7.400 10.873 C 7.076 10.722,6.825 10.480,6.671 10.169 C 6.495 9.811,6.467 9.343,6.600 8.989 C 6.834 8.364,7.429 7.973,8.080 8.018 C 8.223 8.028,8.421 8.064,8.520 8.099 M12.647 10.652 C 12.912 10.782,13.250 11.125,13.372 11.390 C 13.445 11.547,13.460 11.652,13.460 12.000 C 13.460 12.376,13.449 12.443,13.351 12.641 C 12.797 13.770,11.203 13.770,10.649 12.641 C 10.551 12.443,10.540 12.376,10.540 12.000 C 10.540 11.501,10.607 11.318,10.903 11.001 C 11.256 10.623,11.522 10.515,12.062 10.532 C 12.361 10.541,12.463 10.562,12.647 10.652 " fill="#1C274C" stroke="none" fill-rule="evenodd"></path></svg>