<svg width="24" height="24" viewBox="0 0 24 24" fill="none" xmlns="http://www.w3.org/2000/svg"><path d="M11.436 2.062 C 10.942 2.152,10.487 2.338,9.268 2.953 C 8.357 3.412,8.127 3.543,8.168 3.581 C 8.197 3.607,10.200 4.758,12.619 6.140 L 17.018 8.651 19.039 7.640 L 21.060 6.630 20.800 6.394 C 20.473 6.097,19.876 5.688,19.274 5.347 C 18.607 4.969,15.197 3.176,14.312 2.739 C 12.927 2.054,12.298 1.906,11.436 2.062 M6.220 4.535 C 6.088 4.608,5.640 4.852,5.224 5.077 C 4.808 5.302,4.286 5.604,4.064 5.748 C 3.614 6.039,3.000 6.538,3.000 6.612 C 3.000 6.639,5.025 7.673,7.500 8.910 L 12.000 11.160 13.704 10.308 L 15.408 9.456 10.984 6.928 C 8.551 5.538,6.538 4.401,6.510 4.401 C 6.483 4.402,6.352 4.462,6.220 4.535 M2.201 8.190 C 2.070 8.704,2.034 9.317,2.013 11.380 C 1.973 15.151,2.094 16.118,2.716 17.035 C 3.139 17.658,3.830 18.175,5.300 18.970 C 6.135 19.421,9.035 20.938,9.660 21.250 C 10.271 21.554,10.875 21.808,11.110 21.859 L 11.240 21.886 11.240 17.173 L 11.240 12.460 6.780 10.230 C 4.327 9.003,2.304 8.000,2.285 8.000 C 2.265 8.000,2.228 8.085,2.201 8.190 M19.710 8.982 L 17.760 9.960 17.759 11.550 C 17.758 13.010,17.752 13.153,17.684 13.300 C 17.509 13.680,17.097 13.852,16.729 13.698 C 16.532 13.616,16.405 13.494,16.316 13.300 C 16.249 13.156,16.242 13.021,16.241 11.930 L 16.240 10.720 14.500 11.590 L 12.760 12.460 12.760 17.173 L 12.760 21.886 12.890 21.859 C 13.332 21.764,14.334 21.276,17.360 19.680 C 19.469 18.568,20.000 18.255,20.601 17.771 C 21.296 17.210,21.695 16.482,21.860 15.470 C 21.972 14.786,22.010 13.549,21.987 11.380 C 21.971 9.900,21.948 9.167,21.906 8.840 C 21.835 8.286,21.766 7.999,21.705 8.002 C 21.680 8.003,20.782 8.444,19.710 8.982 " fill="#1C274C" stroke="none" fill-rule="evenodd"></path></svg>