<svg width="24" height="24" viewBox="0 0 24 24" fill="none" xmlns="http://www.w3.org/2000/svg"><path d="M11.436 2.062 C 10.788 2.180,10.184 2.457,7.400 3.918 C 4.491 5.445,3.784 5.862,3.200 6.393 L 2.940 6.630 7.470 8.895 L 12.000 11.160 16.530 8.895 L 21.060 6.630 20.800 6.394 C 20.473 6.097,19.876 5.688,19.274 5.347 C 18.607 4.969,15.197 3.176,14.312 2.739 C 12.927 2.054,12.298 1.906,11.436 2.062 M2.201 8.190 C 2.070 8.704,2.034 9.317,2.013 11.380 C 1.973 15.151,2.094 16.118,2.716 17.035 C 3.139 17.658,3.830 18.175,5.300 18.970 C 6.135 19.421,9.035 20.938,9.660 21.250 C 10.271 21.554,10.875 21.808,11.110 21.859 L 11.240 21.886 11.240 17.173 L 11.240 12.460 6.780 10.230 C 4.327 9.003,2.304 8.000,2.285 8.000 C 2.265 8.000,2.228 8.085,2.201 8.190 M17.210 10.232 L 12.760 12.460 12.760 17.173 L 12.760 21.886 12.890 21.859 C 13.332 21.764,14.334 21.276,17.360 19.680 C 19.469 18.568,20.000 18.255,20.601 17.771 C 21.296 17.210,21.695 16.482,21.860 15.470 C 21.972 14.786,22.010 13.549,21.987 11.380 C 21.971 9.900,21.948 9.167,21.906 8.840 C 21.835 8.286,21.766 7.999,21.705 8.002 C 21.680 8.003,19.657 9.007,17.210 10.232 " fill="#1C274C" stroke="none" fill-rule="evenodd"></path></svg>