<svg width="24" height="24" viewBox="0 0 24 24" fill="none" xmlns="http://www.w3.org/2000/svg"><path d="M8.419 2.043 C 5.807 2.139,4.481 2.507,3.549 3.393 C 2.551 4.342,2.166 5.587,2.041 8.260 C 1.988 9.399,1.988 14.601,2.041 15.740 C 2.160 18.285,2.507 19.501,3.379 20.433 C 4.326 21.446,5.580 21.837,8.280 21.959 C 9.445 22.011,14.555 22.011,15.720 21.959 C 18.275 21.843,19.498 21.496,20.433 20.621 C 21.360 19.755,21.742 18.682,21.927 16.420 C 22.002 15.512,22.002 8.488,21.927 7.580 C 21.743 5.332,21.366 4.263,20.451 3.393 C 19.495 2.484,18.240 2.146,15.417 2.041 C 14.194 1.995,9.686 1.997,8.419 2.043 M7.790 5.822 C 7.988 5.904,8.077 5.990,8.165 6.180 C 8.307 6.490,8.237 6.816,7.970 7.090 C 7.847 7.216,7.836 7.240,7.902 7.240 C 8.222 7.242,8.924 7.337,9.239 7.421 C 9.672 7.538,10.224 7.788,10.638 8.056 C 10.980 8.277,11.562 8.829,11.804 9.161 C 11.900 9.292,11.988 9.400,12.000 9.400 C 12.012 9.400,12.100 9.292,12.196 9.161 C 12.438 8.829,13.020 8.277,13.362 8.056 C 13.776 7.788,14.328 7.538,14.761 7.421 C 15.076 7.337,15.778 7.242,16.098 7.240 C 16.164 7.240,16.153 7.216,16.030 7.090 C 15.771 6.824,15.696 6.510,15.822 6.210 C 15.904 6.012,15.990 5.923,16.180 5.835 C 16.384 5.741,16.617 5.742,16.820 5.836 C 16.990 5.916,18.587 7.498,18.682 7.680 C 18.710 7.735,18.733 7.879,18.733 8.000 C 18.733 8.121,18.710 8.265,18.682 8.320 C 18.599 8.481,16.994 10.079,16.832 10.163 C 16.642 10.261,16.359 10.262,16.168 10.164 C 15.687 9.918,15.623 9.333,16.032 8.905 L 16.180 8.750 15.771 8.773 C 14.982 8.818,14.302 9.130,13.716 9.716 C 13.314 10.119,13.084 10.486,12.906 11.009 L 12.780 11.380 12.760 14.807 L 12.740 18.233 12.619 18.405 C 12.453 18.642,12.273 18.739,12.000 18.739 C 11.727 18.739,11.547 18.642,11.381 18.405 L 11.260 18.233 11.240 14.807 L 11.220 11.380 11.094 11.009 C 10.916 10.486,10.686 10.119,10.284 9.716 C 9.698 9.130,9.018 8.818,8.229 8.773 L 7.820 8.750 7.968 8.905 C 8.292 9.244,8.326 9.706,8.048 10.013 C 7.849 10.234,7.439 10.304,7.168 10.163 C 7.006 10.079,5.401 8.481,5.318 8.320 C 5.290 8.265,5.267 8.121,5.267 8.000 C 5.267 7.879,5.290 7.735,5.318 7.680 C 5.413 7.498,7.010 5.916,7.180 5.836 C 7.376 5.745,7.594 5.740,7.790 5.822 " fill="#1C274C" stroke="none" fill-rule="evenodd"></path></svg>