<svg width="24" height="24" viewBox="0 0 24 24" fill="none" xmlns="http://www.w3.org/2000/svg"><path d="M8.419 2.043 C 5.807 2.139,4.481 2.507,3.549 3.393 C 2.551 4.342,2.166 5.587,2.041 8.260 C 1.988 9.399,1.988 14.601,2.041 15.740 C 2.160 18.285,2.507 19.501,3.379 20.433 C 4.326 21.446,5.580 21.837,8.280 21.959 C 9.445 22.011,14.555 22.011,15.720 21.959 C 18.275 21.843,19.498 21.496,20.433 20.621 C 21.360 19.755,21.742 18.682,21.927 16.420 C 22.002 15.512,22.002 8.488,21.927 7.580 C 21.743 5.332,21.366 4.263,20.451 3.393 C 19.495 2.484,18.240 2.146,15.417 2.041 C 14.194 1.995,9.686 1.997,8.419 2.043 M12.267 5.803 C 12.407 5.855,12.586 6.021,12.674 6.180 C 12.734 6.288,12.742 6.631,12.761 9.700 C 12.785 13.520,12.764 13.263,13.098 13.940 C 13.616 14.995,14.614 15.653,15.836 15.747 L 16.176 15.773 16.010 15.577 C 15.818 15.348,15.760 15.214,15.760 15.000 C 15.760 14.716,15.915 14.468,16.179 14.331 C 16.338 14.248,16.668 14.252,16.841 14.339 C 17.022 14.430,18.570 15.978,18.661 16.159 C 18.752 16.339,18.752 16.662,18.660 16.841 C 18.571 17.015,17.162 18.444,16.924 18.602 C 16.603 18.815,16.297 18.798,16.013 18.549 C 15.842 18.398,15.760 18.222,15.760 18.004 C 15.760 17.787,15.817 17.653,16.005 17.430 L 16.165 17.240 15.844 17.240 C 15.044 17.240,14.105 16.937,13.340 16.433 C 12.981 16.197,12.372 15.608,12.160 15.291 C 12.083 15.176,12.011 15.082,12.000 15.082 C 11.989 15.082,11.917 15.176,11.840 15.291 C 11.636 15.596,11.025 16.190,10.680 16.420 C 9.911 16.932,8.962 17.240,8.156 17.240 L 7.835 17.240 7.995 17.430 C 8.183 17.653,8.240 17.787,8.240 18.004 C 8.240 18.222,8.158 18.398,7.987 18.549 C 7.703 18.798,7.397 18.815,7.076 18.602 C 6.838 18.444,5.429 17.015,5.340 16.841 C 5.248 16.662,5.248 16.339,5.339 16.159 C 5.430 15.978,6.978 14.430,7.159 14.339 C 7.332 14.252,7.662 14.248,7.821 14.331 C 8.085 14.468,8.240 14.716,8.240 15.000 C 8.240 15.214,8.182 15.348,7.990 15.577 L 7.824 15.773 8.164 15.747 C 9.386 15.653,10.384 14.995,10.902 13.940 C 11.236 13.263,11.215 13.520,11.239 9.700 C 11.258 6.631,11.266 6.288,11.326 6.180 C 11.411 6.028,11.591 5.856,11.720 5.805 C 11.854 5.751,12.129 5.750,12.267 5.803 " fill="#1C274C" stroke="none" fill-rule="evenodd"></path></svg>