<svg width="24" height="24" viewBox="0 0 24 24" fill="none" xmlns="http://www.w3.org/2000/svg"><path d="M21.020 2.029 C 20.865 2.068,20.691 2.220,19.855 3.050 L 19.011 3.889 18.675 3.688 C 17.783 3.153,16.820 2.930,15.737 3.010 C 14.915 3.070,13.968 3.407,13.399 3.842 L 13.300 3.917 16.691 7.309 L 20.083 10.700 20.158 10.601 C 20.593 10.032,20.930 9.085,20.990 8.263 C 21.070 7.181,20.847 6.217,20.313 5.325 L 20.112 4.990 20.974 4.125 C 21.868 3.227,21.998 3.054,21.998 2.760 C 21.998 2.277,21.504 1.908,21.020 2.029 M10.020 4.025 C 8.528 4.186,7.040 4.563,5.780 5.101 C 5.049 5.412,4.100 5.911,3.770 6.155 C 2.254 7.281,1.637 9.264,2.224 11.127 C 2.361 11.559,2.478 11.787,3.012 12.659 C 4.226 14.641,5.170 15.853,6.658 17.342 C 8.152 18.835,9.356 19.772,11.360 21.000 C 12.216 21.524,12.528 21.679,13.004 21.816 C 14.293 22.185,15.654 21.982,16.762 21.257 C 17.140 21.009,17.732 20.423,17.969 20.060 C 18.198 19.710,18.704 18.699,18.947 18.108 C 19.550 16.641,19.912 15.060,20.036 13.360 L 20.072 12.860 15.626 8.410 L 11.180 3.960 10.860 3.964 C 10.684 3.967,10.306 3.994,10.020 4.025 " fill="#1C274C" stroke="none" fill-rule="evenodd"></path></svg>