<svg width="24" height="24" viewBox="0 0 24 24" fill="none" xmlns="http://www.w3.org/2000/svg"><path d="M6.811 1.278 C 6.645 1.318,6.416 1.493,6.343 1.633 C 6.206 1.899,6.231 2.237,6.406 2.458 C 6.453 2.518,7.033 2.928,7.696 3.369 C 8.358 3.810,8.907 4.177,8.915 4.184 C 8.923 4.191,8.822 4.314,8.690 4.458 C 8.228 4.963,7.856 5.623,7.684 6.243 C 7.559 6.693,7.551 6.678,7.870 6.603 C 8.106 6.548,8.623 6.540,12.000 6.540 C 15.377 6.540,15.894 6.548,16.130 6.603 C 16.449 6.678,16.441 6.693,16.316 6.243 C 16.147 5.628,15.795 5.004,15.319 4.473 C 15.183 4.320,15.078 4.190,15.086 4.183 C 15.093 4.176,15.642 3.810,16.304 3.369 C 16.967 2.928,17.547 2.518,17.594 2.458 C 17.862 2.118,17.773 1.622,17.400 1.375 C 17.268 1.288,17.190 1.267,16.998 1.267 L 16.760 1.267 15.220 2.294 L 13.679 3.321 13.439 3.240 C 12.939 3.071,12.641 3.027,12.000 3.027 C 11.359 3.027,11.061 3.071,10.561 3.240 L 10.321 3.321 8.790 2.303 C 7.185 1.237,7.120 1.203,6.811 1.278 M3.420 7.260 C 3.398 7.267,3.331 7.284,3.271 7.297 C 3.124 7.329,2.881 7.548,2.814 7.708 C 2.693 7.999,2.771 8.336,3.008 8.544 C 3.105 8.629,3.528 8.818,4.384 9.159 C 5.064 9.430,5.635 9.665,5.654 9.682 C 5.673 9.699,5.623 9.824,5.542 9.961 C 5.352 10.286,5.215 10.624,5.113 11.020 C 5.045 11.284,5.027 11.507,5.011 12.290 L 4.991 13.240 3.517 13.240 C 2.592 13.240,1.967 13.256,1.838 13.284 C 1.080 13.447,1.080 14.553,1.838 14.716 C 1.967 14.744,2.594 14.760,3.522 14.760 L 5.000 14.760 5.000 15.042 C 5.000 15.950,5.252 17.073,5.644 17.916 C 5.730 18.100,5.800 18.256,5.800 18.261 C 5.800 18.267,5.203 18.511,4.474 18.802 C 3.611 19.148,3.103 19.373,3.018 19.447 C 2.500 19.902,2.811 20.733,3.499 20.731 C 3.663 20.730,3.959 20.626,5.120 20.160 C 5.901 19.846,6.572 19.581,6.611 19.570 C 6.660 19.556,6.754 19.629,6.922 19.813 C 7.433 20.370,8.162 20.901,8.940 21.283 C 9.606 21.609,10.237 21.802,11.090 21.939 L 11.240 21.964 11.241 18.412 C 11.242 15.044,11.246 14.852,11.316 14.700 C 11.600 14.084,12.436 14.101,12.698 14.729 C 12.752 14.859,12.760 15.313,12.760 18.421 L 12.760 21.964 12.910 21.939 C 14.571 21.672,15.854 21.035,16.956 19.930 C 17.199 19.687,17.354 19.560,17.396 19.572 C 17.431 19.582,18.099 19.846,18.880 20.160 C 20.041 20.626,20.337 20.730,20.501 20.731 C 21.189 20.733,21.500 19.902,20.982 19.447 C 20.897 19.373,20.389 19.148,19.526 18.802 C 18.797 18.511,18.200 18.267,18.200 18.261 C 18.200 18.256,18.270 18.100,18.356 17.916 C 18.751 17.068,19.000 15.945,19.000 15.016 L 19.000 14.760 20.478 14.760 C 21.406 14.760,22.033 14.744,22.162 14.716 C 22.920 14.553,22.920 13.447,22.162 13.284 C 22.033 13.256,21.408 13.240,20.483 13.240 L 19.009 13.240 18.989 12.290 C 18.973 11.507,18.955 11.284,18.887 11.020 C 18.785 10.624,18.648 10.286,18.458 9.961 C 18.377 9.824,18.327 9.699,18.346 9.682 C 18.365 9.665,18.936 9.430,19.616 9.159 C 20.417 8.840,20.898 8.627,20.982 8.553 C 21.500 8.098,21.189 7.267,20.501 7.269 C 20.336 7.270,20.014 7.385,18.687 7.916 L 17.073 8.562 16.947 8.484 C 16.747 8.361,16.249 8.176,15.900 8.095 C 15.600 8.025,15.354 8.020,12.000 8.020 C 8.646 8.020,8.400 8.025,8.100 8.095 C 7.751 8.176,7.253 8.361,7.053 8.484 L 6.927 8.562 5.333 7.926 C 3.866 7.341,3.529 7.224,3.420 7.260 " fill="#1C274C" stroke="none" fill-rule="evenodd"></path></svg>