<svg width="24" height="24" viewBox="0 0 24 24" fill="none" xmlns="http://www.w3.org/2000/svg"><path d="M6.811 1.278 C 6.645 1.318,6.416 1.493,6.343 1.633 C 6.192 1.925,6.238 2.287,6.454 2.500 C 6.523 2.569,7.012 2.884,7.540 3.199 C 8.068 3.515,8.530 3.794,8.567 3.819 C 8.625 3.857,8.589 3.892,8.312 4.057 C 7.341 4.640,6.379 5.658,5.856 6.660 C 5.752 6.858,5.662 7.027,5.656 7.035 C 5.649 7.043,5.215 6.879,4.692 6.670 C 4.168 6.462,3.679 6.280,3.605 6.266 C 3.315 6.211,2.932 6.425,2.814 6.708 C 2.745 6.874,2.745 7.128,2.815 7.291 C 2.924 7.546,3.078 7.636,4.128 8.059 C 4.971 8.399,5.139 8.480,5.135 8.544 C 5.132 8.586,5.101 8.832,5.065 9.092 C 5.016 9.450,5.000 9.888,5.000 10.900 L 5.000 12.236 3.387 12.248 L 1.774 12.260 1.605 12.372 C 1.311 12.566,1.192 12.873,1.281 13.204 C 1.340 13.422,1.569 13.657,1.781 13.715 C 1.884 13.744,2.476 13.760,3.465 13.760 L 4.990 13.760 5.012 14.830 C 5.035 15.972,5.078 16.294,5.298 17.018 C 5.354 17.201,5.400 17.370,5.400 17.392 C 5.400 17.414,4.893 17.635,4.274 17.882 C 3.099 18.353,2.920 18.454,2.814 18.708 C 2.749 18.863,2.744 19.113,2.803 19.267 C 2.896 19.516,3.240 19.758,3.500 19.759 C 3.566 19.759,4.177 19.537,4.858 19.265 L 6.097 18.770 6.254 18.995 C 7.565 20.872,9.721 21.998,12.000 21.998 C 14.256 21.998,16.413 20.880,17.717 19.035 L 17.904 18.771 19.142 19.265 C 19.823 19.537,20.434 19.759,20.500 19.759 C 20.760 19.758,21.104 19.516,21.197 19.267 C 21.256 19.113,21.251 18.863,21.186 18.708 C 21.080 18.454,20.901 18.353,19.726 17.882 C 19.107 17.635,18.600 17.415,18.600 17.396 C 18.600 17.376,18.654 17.175,18.719 16.950 C 18.928 16.235,18.965 15.941,18.988 14.810 L 19.009 13.760 20.535 13.760 C 21.524 13.760,22.116 13.744,22.219 13.715 C 22.431 13.657,22.660 13.422,22.719 13.204 C 22.808 12.873,22.689 12.566,22.395 12.372 L 22.226 12.260 20.613 12.248 L 19.000 12.236 19.000 10.900 C 19.000 9.888,18.984 9.450,18.935 9.092 C 18.899 8.832,18.868 8.586,18.865 8.544 C 18.861 8.480,19.029 8.399,19.872 8.059 C 20.922 7.636,21.076 7.546,21.185 7.291 C 21.255 7.128,21.255 6.874,21.186 6.708 C 21.068 6.425,20.685 6.211,20.395 6.266 C 20.321 6.280,19.832 6.462,19.308 6.670 C 18.785 6.879,18.351 7.043,18.344 7.035 C 18.338 7.027,18.248 6.858,18.144 6.660 C 17.621 5.658,16.659 4.640,15.688 4.057 C 15.411 3.892,15.375 3.857,15.433 3.819 C 15.470 3.794,15.932 3.515,16.460 3.199 C 16.988 2.884,17.477 2.569,17.546 2.500 C 17.868 2.182,17.797 1.638,17.400 1.375 C 17.268 1.288,17.190 1.267,17.000 1.267 L 16.763 1.267 15.176 2.219 L 13.588 3.171 13.124 3.096 C 12.493 2.993,11.507 2.993,10.876 3.096 L 10.412 3.171 8.836 2.229 C 7.205 1.253,7.105 1.206,6.811 1.278 M13.820 9.835 C 14.010 9.923,14.096 10.012,14.178 10.210 C 14.257 10.398,14.257 10.602,14.178 10.790 C 14.099 10.980,14.015 11.071,13.832 11.164 C 13.693 11.235,13.573 11.240,12.000 11.240 C 10.427 11.240,10.307 11.235,10.168 11.164 C 9.985 11.071,9.901 10.980,9.822 10.790 C 9.713 10.530,9.768 10.193,9.952 9.986 C 9.989 9.943,10.092 9.876,10.180 9.835 C 10.327 9.768,10.474 9.762,12.000 9.762 C 13.526 9.762,13.673 9.768,13.820 9.835 M13.820 14.835 C 14.010 14.923,14.096 15.012,14.178 15.210 C 14.257 15.398,14.257 15.602,14.178 15.790 C 14.099 15.980,14.015 16.071,13.832 16.164 C 13.693 16.235,13.573 16.240,12.000 16.240 C 10.427 16.240,10.307 16.235,10.168 16.164 C 9.985 16.071,9.901 15.980,9.822 15.790 C 9.713 15.530,9.768 15.193,9.952 14.986 C 9.989 14.943,10.092 14.876,10.180 14.835 C 10.327 14.768,10.474 14.762,12.000 14.762 C 13.526 14.762,13.673 14.768,13.820 14.835 " fill="#1C274C" stroke="none" fill-rule="evenodd"></path></svg>