<svg width="24" height="24" viewBox="0 0 24 24" fill="none" xmlns="http://www.w3.org/2000/svg"><path d="M8.920 2.040 C 7.649 2.138,7.101 2.543,6.854 3.565 C 6.787 3.842,6.782 4.381,6.771 12.550 L 6.758 21.240 5.999 21.240 L 5.240 21.240 5.240 18.003 L 5.240 14.766 4.650 14.753 C 3.952 14.738,3.816 14.691,3.635 14.405 C 3.405 14.043,3.514 13.581,3.880 13.366 C 4.049 13.267,4.097 13.259,4.650 13.246 L 5.240 13.231 5.240 12.499 L 5.240 11.766 4.650 11.753 C 3.952 11.738,3.816 11.691,3.635 11.405 C 3.404 11.042,3.518 10.569,3.886 10.360 C 4.045 10.270,4.112 10.260,4.650 10.246 L 5.240 10.231 5.240 9.499 L 5.240 8.766 4.650 8.753 C 3.952 8.738,3.816 8.691,3.635 8.405 C 3.404 8.042,3.518 7.569,3.886 7.360 C 4.045 7.270,4.112 7.260,4.650 7.246 L 5.240 7.231 5.240 6.109 L 5.240 4.988 4.670 5.014 C 3.928 5.048,3.636 5.098,3.328 5.241 C 3.009 5.389,2.634 5.756,2.497 6.055 C 2.251 6.594,2.265 6.125,2.251 14.025 L 2.237 21.229 1.887 21.249 C 1.406 21.276,1.201 21.396,1.062 21.729 C 0.897 22.125,1.131 22.599,1.552 22.721 C 1.656 22.751,4.721 22.760,11.820 22.752 L 21.940 22.740 22.100 22.656 C 22.461 22.468,22.597 21.986,22.389 21.631 C 22.238 21.374,22.030 21.274,21.596 21.249 L 21.242 21.229 21.230 13.964 C 21.218 7.198,21.213 6.682,21.148 6.443 C 21.047 6.073,20.898 5.826,20.617 5.563 C 20.188 5.162,19.861 5.061,18.850 5.015 L 18.240 4.988 18.240 6.110 L 18.240 7.231 18.850 7.247 C 19.497 7.264,19.606 7.292,19.788 7.487 C 20.152 7.876,20.011 8.489,19.511 8.698 C 19.401 8.744,19.217 8.760,18.801 8.760 L 18.240 8.760 18.240 9.496 L 18.240 10.231 18.850 10.247 C 19.497 10.264,19.606 10.292,19.788 10.487 C 20.152 10.876,20.011 11.489,19.511 11.698 C 19.401 11.744,19.217 11.760,18.801 11.760 L 18.240 11.760 18.240 12.496 L 18.240 13.231 18.850 13.247 C 19.497 13.264,19.606 13.292,19.788 13.487 C 20.144 13.868,20.020 14.463,19.540 14.684 C 19.409 14.745,19.278 14.758,18.810 14.759 L 18.240 14.760 18.240 18.000 L 18.240 21.240 17.501 21.240 L 16.763 21.240 16.747 12.650 C 16.736 6.398,16.720 3.989,16.686 3.800 C 16.494 2.719,16.080 2.284,15.060 2.092 C 14.800 2.043,14.238 2.029,12.040 2.020 C 10.555 2.013,9.151 2.023,8.920 2.040 M14.027 5.563 C 14.181 5.620,14.358 5.793,14.425 5.949 C 14.541 6.219,14.460 6.621,14.253 6.808 C 14.044 6.998,14.013 7.000,11.771 7.000 C 10.509 7.000,9.603 6.984,9.518 6.960 C 9.255 6.887,8.999 6.526,9.001 6.231 C 9.002 6.075,9.118 5.806,9.224 5.715 C 9.453 5.519,9.395 5.523,11.727 5.522 C 13.179 5.521,13.953 5.534,14.027 5.563 M14.027 8.563 C 14.181 8.620,14.358 8.793,14.425 8.949 C 14.541 9.219,14.460 9.621,14.253 9.808 C 14.044 9.998,14.013 10.000,11.771 10.000 C 10.509 10.000,9.603 9.984,9.518 9.960 C 9.255 9.887,8.999 9.526,9.001 9.231 C 9.002 9.075,9.118 8.806,9.224 8.715 C 9.453 8.519,9.395 8.523,11.727 8.522 C 13.179 8.521,13.953 8.534,14.027 8.563 M14.030 11.062 C 14.220 11.141,14.311 11.225,14.404 11.408 C 14.543 11.680,14.493 12.036,14.287 12.254 C 14.046 12.509,14.139 12.499,11.883 12.512 C 10.523 12.519,9.757 12.509,9.625 12.480 C 8.890 12.323,8.780 11.389,9.460 11.076 C 9.609 11.007,9.765 11.002,11.751 11.001 C 13.580 11.000,13.903 11.009,14.030 11.062 M14.030 14.062 C 14.220 14.141,14.311 14.225,14.404 14.408 C 14.543 14.680,14.493 15.036,14.287 15.254 C 14.046 15.509,14.139 15.499,11.883 15.512 C 10.523 15.519,9.757 15.509,9.625 15.480 C 8.890 15.323,8.780 14.389,9.460 14.076 C 9.609 14.007,9.765 14.002,11.751 14.001 C 13.580 14.000,13.903 14.009,14.030 14.062 M12.134 18.374 C 12.219 18.422,12.331 18.532,12.384 18.623 C 12.480 18.787,12.480 18.791,12.480 20.014 L 12.480 21.240 11.740 21.240 L 11.000 21.240 11.001 20.050 C 11.002 18.982,11.009 18.843,11.075 18.698 C 11.160 18.512,11.358 18.331,11.513 18.296 C 11.572 18.284,11.638 18.267,11.660 18.260 C 11.741 18.233,11.984 18.292,12.134 18.374 " fill="#1C274C" stroke="none" fill-rule="evenodd"></path></svg>