<svg width="24" height="24" viewBox="0 0 24 24" fill="none" xmlns="http://www.w3.org/2000/svg"><path d="M8.920 2.040 C 7.649 2.138,7.101 2.543,6.854 3.565 C 6.787 3.842,6.782 4.381,6.771 12.550 L 6.758 21.240 5.999 21.240 L 5.240 21.240 5.240 18.003 L 5.240 14.766 4.650 14.753 C 3.952 14.738,3.816 14.691,3.635 14.405 C 3.405 14.043,3.514 13.581,3.880 13.366 C 4.049 13.267,4.097 13.259,4.650 13.246 L 5.240 13.231 5.240 12.499 L 5.240 11.766 4.650 11.753 C 3.952 11.738,3.816 11.691,3.635 11.405 C 3.404 11.042,3.518 10.569,3.886 10.360 C 4.045 10.270,4.112 10.260,4.650 10.246 L 5.240 10.231 5.240 9.499 L 5.240 8.766 4.650 8.753 C 3.952 8.738,3.816 8.691,3.635 8.405 C 3.404 8.042,3.518 7.569,3.886 7.360 C 4.045 7.270,4.112 7.260,4.650 7.246 L 5.240 7.231 5.240 6.109 L 5.240 4.988 4.670 5.014 C 3.928 5.048,3.636 5.098,3.328 5.241 C 3.009 5.389,2.634 5.756,2.497 6.055 C 2.251 6.594,2.265 6.125,2.251 14.025 L 2.237 21.229 1.887 21.249 C 1.406 21.276,1.201 21.396,1.062 21.729 C 0.897 22.125,1.131 22.599,1.552 22.721 C 1.656 22.751,4.721 22.760,11.820 22.752 L 21.940 22.740 22.100 22.656 C 22.461 22.468,22.597 21.986,22.389 21.631 C 22.238 21.374,22.030 21.274,21.596 21.249 L 21.242 21.229 21.230 13.964 C 21.218 7.198,21.213 6.682,21.148 6.443 C 21.047 6.073,20.898 5.826,20.617 5.563 C 20.188 5.162,19.861 5.061,18.850 5.015 L 18.240 4.988 18.240 6.110 L 18.240 7.231 18.850 7.247 C 19.497 7.264,19.606 7.292,19.788 7.487 C 20.152 7.876,20.011 8.489,19.511 8.698 C 19.401 8.744,19.217 8.760,18.801 8.760 L 18.240 8.760 18.240 9.496 L 18.240 10.231 18.850 10.247 C 19.497 10.264,19.606 10.292,19.788 10.487 C 20.152 10.876,20.011 11.489,19.511 11.698 C 19.401 11.744,19.217 11.760,18.801 11.760 L 18.240 11.760 18.240 12.496 L 18.240 13.231 18.850 13.247 C 19.497 13.264,19.606 13.292,19.788 13.487 C 20.144 13.868,20.020 14.463,19.540 14.684 C 19.409 14.745,19.278 14.758,18.810 14.759 L 18.240 14.760 18.240 18.000 L 18.240 21.240 17.501 21.240 L 16.763 21.240 16.747 12.650 C 16.736 6.398,16.720 3.989,16.686 3.800 C 16.494 2.719,16.080 2.284,15.060 2.092 C 14.800 2.043,14.238 2.029,12.040 2.020 C 10.555 2.013,9.151 2.023,8.920 2.040 M12.670 4.343 C 13.605 4.552,14.437 5.389,14.665 6.350 C 14.747 6.696,14.747 7.304,14.665 7.650 C 14.437 8.610,13.663 9.395,12.680 9.665 C 12.330 9.760,11.671 9.761,11.320 9.665 C 10.538 9.453,9.896 8.926,9.539 8.204 C 9.352 7.825,9.271 7.460,9.271 7.000 C 9.271 6.541,9.352 6.175,9.538 5.798 C 9.814 5.240,10.237 4.815,10.789 4.543 C 11.376 4.253,11.978 4.189,12.670 4.343 M11.591 5.819 C 11.076 6.014,10.760 6.466,10.760 7.004 C 10.760 8.104,12.099 8.657,12.878 7.878 C 13.481 7.275,13.308 6.255,12.539 5.879 C 12.296 5.760,11.824 5.730,11.591 5.819 M14.120 11.366 C 14.486 11.581,14.595 12.043,14.365 12.405 C 14.146 12.750,14.234 12.738,11.820 12.752 C 10.385 12.760,9.652 12.750,9.552 12.721 C 9.249 12.633,9.002 12.309,9.002 12.000 C 9.002 11.707,9.259 11.352,9.513 11.296 C 9.572 11.284,9.638 11.267,9.660 11.259 C 9.682 11.251,10.654 11.248,11.820 11.252 L 13.940 11.260 14.120 11.366 M14.120 14.366 C 14.486 14.581,14.595 15.043,14.365 15.405 C 14.146 15.750,14.234 15.738,11.820 15.752 C 10.385 15.760,9.652 15.750,9.552 15.721 C 9.249 15.633,9.002 15.309,9.002 15.000 C 9.002 14.707,9.259 14.352,9.513 14.296 C 9.572 14.284,9.638 14.267,9.660 14.259 C 9.682 14.251,10.654 14.248,11.820 14.252 L 13.940 14.260 14.120 14.366 M12.134 18.374 C 12.219 18.422,12.331 18.532,12.384 18.623 C 12.480 18.787,12.480 18.791,12.480 20.014 L 12.480 21.240 11.740 21.240 L 11.000 21.240 11.001 20.050 C 11.002 18.982,11.009 18.843,11.075 18.698 C 11.160 18.512,11.358 18.331,11.513 18.296 C 11.572 18.284,11.638 18.267,11.660 18.260 C 11.741 18.233,11.984 18.292,12.134 18.374 " fill="#1C274C" stroke="none" fill-rule="evenodd"></path></svg>