<svg width="24" height="24" viewBox="0 0 24 24" fill="none" xmlns="http://www.w3.org/2000/svg"><path d="M13.153 2.044 C 12.353 2.106,11.878 2.279,11.556 2.628 C 11.390 2.809,11.176 3.219,11.153 3.400 L 11.140 3.500 12.180 3.526 C 13.484 3.558,14.088 3.661,14.660 3.950 C 15.718 4.483,16.292 5.423,16.436 6.857 C 16.466 7.156,16.480 9.496,16.480 14.267 L 16.480 21.240 15.741 21.240 L 15.003 21.240 14.990 14.090 C 14.977 6.971,14.976 6.938,14.892 6.572 C 14.704 5.758,14.285 5.311,13.549 5.141 C 13.057 5.027,12.205 5.000,9.000 5.000 C 5.795 5.000,4.943 5.027,4.451 5.141 C 3.766 5.300,3.321 5.735,3.145 6.420 C 3.010 6.945,3.000 7.493,3.000 14.386 L 3.000 21.231 2.387 21.246 C 1.795 21.260,1.769 21.264,1.606 21.372 C 1.311 21.566,1.192 21.873,1.281 22.204 C 1.340 22.422,1.569 22.657,1.781 22.715 C 2.007 22.778,21.993 22.778,22.219 22.715 C 22.431 22.657,22.660 22.422,22.719 22.204 C 22.808 21.873,22.689 21.566,22.394 21.372 C 22.232 21.264,22.205 21.260,21.614 21.246 L 21.002 21.232 20.990 12.586 L 20.977 3.940 20.892 3.572 C 20.745 2.935,20.466 2.536,20.004 2.302 C 19.722 2.159,19.388 2.089,18.759 2.041 C 18.132 1.993,13.782 1.996,13.153 2.044 M12.388 7.367 C 12.628 7.526,12.733 7.721,12.733 8.007 C 12.733 8.203,12.714 8.271,12.616 8.409 C 12.552 8.501,12.436 8.613,12.359 8.658 C 12.222 8.739,12.173 8.740,9.000 8.740 C 5.827 8.740,5.778 8.739,5.641 8.658 C 5.564 8.613,5.448 8.501,5.384 8.409 C 5.098 8.003,5.330 7.395,5.815 7.278 C 5.884 7.261,7.354 7.250,9.083 7.254 L 12.226 7.260 12.388 7.367 M12.388 10.367 C 12.628 10.526,12.733 10.721,12.733 11.007 C 12.733 11.203,12.714 11.271,12.616 11.409 C 12.552 11.501,12.436 11.613,12.359 11.658 C 12.222 11.739,12.173 11.740,9.000 11.740 C 5.827 11.740,5.778 11.739,5.641 11.658 C 5.564 11.613,5.448 11.501,5.384 11.409 C 5.098 11.003,5.330 10.395,5.815 10.278 C 5.884 10.261,7.354 10.250,9.083 10.254 L 12.226 10.260 12.388 10.367 M12.388 13.367 C 12.628 13.526,12.733 13.721,12.733 14.007 C 12.733 14.203,12.714 14.271,12.616 14.409 C 12.552 14.501,12.436 14.613,12.359 14.658 C 12.222 14.739,12.173 14.740,9.000 14.740 C 5.827 14.740,5.778 14.739,5.641 14.658 C 5.564 14.613,5.448 14.501,5.384 14.409 C 5.098 14.003,5.330 13.395,5.815 13.278 C 5.884 13.261,7.354 13.250,9.083 13.254 L 12.226 13.260 12.388 13.367 M9.405 18.381 C 9.485 18.432,9.593 18.543,9.645 18.627 C 9.739 18.778,9.740 18.796,9.753 20.010 L 9.765 21.240 9.000 21.240 L 8.235 21.240 8.247 20.010 C 8.260 18.804,8.262 18.777,8.353 18.631 C 8.586 18.256,9.044 18.147,9.405 18.381 " fill="#1C274C" stroke="none" fill-rule="evenodd"></path></svg>