<svg width="24" height="24" viewBox="0 0 24 24" fill="none" xmlns="http://www.w3.org/2000/svg"><path d="M8.952 2.041 C 7.731 2.097,6.870 2.234,6.287 2.466 C 5.085 2.944,4.438 3.835,4.186 5.360 C 4.081 5.992,4.039 6.603,4.012 7.830 L 3.987 9.000 3.440 9.000 C 2.643 9.000,2.369 9.107,2.131 9.511 L 2.020 9.700 2.020 10.500 L 2.020 11.300 2.132 11.491 C 2.223 11.645,2.412 11.808,3.116 12.337 L 3.987 12.992 4.013 14.206 C 4.060 16.402,4.243 17.441,4.727 18.258 C 4.933 18.605,5.420 19.092,5.749 19.280 L 5.994 19.420 6.007 20.360 L 6.020 21.300 6.131 21.489 C 6.192 21.592,6.304 21.725,6.381 21.783 C 6.637 21.979,6.749 21.996,7.760 21.998 C 8.667 21.999,8.707 21.996,8.900 21.905 C 9.010 21.852,9.158 21.749,9.228 21.675 C 9.453 21.437,9.494 21.286,9.512 20.610 L 9.529 20.000 12.000 20.000 L 14.471 20.000 14.487 20.610 C 14.506 21.312,14.557 21.481,14.827 21.724 C 15.121 21.989,15.221 22.007,16.323 21.993 L 17.300 21.980 17.489 21.869 C 17.592 21.808,17.723 21.699,17.778 21.626 C 17.975 21.368,18.000 21.219,18.001 20.285 L 18.002 19.420 18.248 19.280 C 18.383 19.203,18.623 19.014,18.780 18.860 C 19.652 18.005,19.928 16.940,19.987 14.206 L 20.013 12.993 20.895 12.326 C 22.018 11.478,21.975 11.547,21.993 10.569 C 22.008 9.741,21.967 9.565,21.698 9.296 C 21.458 9.056,21.243 9.000,20.559 9.000 L 20.013 9.000 19.987 7.830 C 19.961 6.598,19.918 5.987,19.814 5.360 C 19.500 3.459,18.562 2.513,16.680 2.198 C 16.427 2.156,16.004 2.102,15.740 2.078 C 15.133 2.024,9.950 1.996,8.952 2.041 M17.320 4.077 C 17.785 4.183,18.101 4.406,18.274 4.751 C 18.457 5.114,18.460 5.177,18.460 8.260 C 18.460 11.501,18.461 11.490,18.195 11.880 C 17.920 12.282,17.576 12.421,16.703 12.480 C 15.970 12.530,8.030 12.530,7.297 12.480 C 6.424 12.421,6.080 12.282,5.805 11.880 C 5.539 11.490,5.540 11.498,5.540 8.280 C 5.540 5.098,5.543 5.059,5.776 4.670 C 6.007 4.285,6.357 4.107,7.005 4.042 C 7.189 4.024,9.536 4.013,12.220 4.018 C 15.959 4.025,17.151 4.039,17.320 4.077 M8.820 15.327 C 9.307 15.596,9.389 16.195,8.987 16.549 C 8.759 16.748,8.635 16.768,7.660 16.753 C 6.661 16.738,6.604 16.723,6.384 16.409 C 6.098 16.003,6.328 15.399,6.815 15.276 C 6.884 15.259,7.336 15.248,7.820 15.253 C 8.554 15.259,8.720 15.271,8.820 15.327 M17.388 15.367 C 17.628 15.526,17.733 15.721,17.733 16.007 C 17.733 16.203,17.714 16.271,17.616 16.409 C 17.394 16.725,17.343 16.738,16.306 16.753 C 15.396 16.765,15.391 16.765,15.186 16.664 C 14.547 16.348,14.646 15.452,15.340 15.276 C 15.406 15.259,15.857 15.248,16.343 15.252 L 17.226 15.260 17.388 15.367 " fill="#1C274C" stroke="none" fill-rule="evenodd"></path></svg>