<svg width="24" height="24" viewBox="0 0 24 24" fill="none" xmlns="http://www.w3.org/2000/svg"><path d="M8.797 2.043 C 6.552 2.133,5.388 2.464,4.537 3.253 C 3.553 4.164,3.164 5.447,3.040 8.180 C 2.989 9.320,2.989 14.680,3.040 15.820 C 3.163 18.541,3.551 19.827,4.525 20.742 C 5.264 21.436,6.226 21.764,8.001 21.927 C 8.824 22.002,15.176 22.002,15.999 21.927 C 17.861 21.756,18.868 21.389,19.602 20.615 C 20.492 19.676,20.841 18.442,20.960 15.820 C 21.012 14.667,21.011 9.312,20.958 8.160 C 20.835 5.443,20.444 4.161,19.463 3.253 C 18.591 2.445,17.493 2.142,15.078 2.041 C 14.010 1.996,9.912 1.997,8.797 2.043 M16.089 6.127 C 16.408 6.277,16.694 6.558,16.850 6.875 L 16.980 7.138 16.980 7.999 C 16.980 8.850,16.979 8.863,16.872 9.090 C 16.721 9.412,16.414 9.724,16.109 9.865 L 15.860 9.980 12.000 9.980 L 8.140 9.980 7.891 9.865 C 7.586 9.724,7.279 9.412,7.128 9.090 C 7.021 8.863,7.020 8.850,7.020 8.000 C 7.020 7.151,7.021 7.137,7.127 6.911 C 7.327 6.486,7.760 6.124,8.169 6.042 C 8.263 6.023,10.032 6.010,12.100 6.014 L 15.860 6.020 16.089 6.127 M8.316 12.063 C 8.827 12.214,9.121 12.808,8.939 13.322 C 8.854 13.563,8.709 13.740,8.489 13.869 C 8.328 13.964,8.256 13.980,8.000 13.980 C 7.744 13.980,7.672 13.964,7.511 13.869 C 6.933 13.529,6.832 12.766,7.303 12.295 C 7.573 12.025,7.921 11.945,8.316 12.063 M12.316 12.063 C 12.827 12.214,13.121 12.808,12.939 13.322 C 12.854 13.563,12.709 13.740,12.489 13.869 C 12.328 13.964,12.256 13.980,12.000 13.980 C 11.744 13.980,11.672 13.964,11.511 13.869 C 10.933 13.529,10.832 12.766,11.303 12.295 C 11.573 12.025,11.921 11.945,12.316 12.063 M16.316 12.063 C 16.827 12.214,17.121 12.808,16.939 13.322 C 16.854 13.563,16.709 13.740,16.489 13.869 C 16.328 13.964,16.256 13.980,16.000 13.980 C 15.744 13.980,15.672 13.964,15.511 13.869 C 14.933 13.529,14.832 12.766,15.303 12.295 C 15.573 12.025,15.921 11.945,16.316 12.063 M8.316 16.063 C 8.827 16.214,9.121 16.808,8.939 17.322 C 8.854 17.563,8.709 17.740,8.489 17.869 C 8.328 17.964,8.256 17.980,8.000 17.980 C 7.744 17.980,7.672 17.964,7.511 17.869 C 6.933 17.529,6.832 16.766,7.303 16.295 C 7.573 16.025,7.921 15.945,8.316 16.063 M12.316 16.063 C 12.827 16.214,13.121 16.808,12.939 17.322 C 12.854 17.563,12.709 17.740,12.489 17.869 C 12.328 17.964,12.256 17.980,12.000 17.980 C 11.744 17.980,11.672 17.964,11.511 17.869 C 10.933 17.529,10.832 16.766,11.303 16.295 C 11.573 16.025,11.921 15.945,12.316 16.063 M16.316 16.063 C 16.827 16.214,17.121 16.808,16.939 17.322 C 16.854 17.563,16.709 17.740,16.489 17.869 C 16.328 17.964,16.256 17.980,16.000 17.980 C 15.744 17.980,15.672 17.964,15.511 17.869 C 14.933 17.529,14.832 16.766,15.303 16.295 C 15.573 16.025,15.921 15.945,16.316 16.063 " fill="#1C274C" stroke="none" fill-rule="evenodd"></path></svg>