<svg width="24" height="24" viewBox="0 0 24 24" fill="none" xmlns="http://www.w3.org/2000/svg"><path d="M8.440 2.043 C 5.815 2.137,4.484 2.504,3.549 3.393 C 2.549 4.344,2.163 5.596,2.041 8.280 C 1.989 9.450,1.989 14.605,2.041 15.740 C 2.160 18.285,2.507 19.501,3.379 20.433 C 4.323 21.444,5.571 21.833,8.260 21.959 C 9.399 22.012,14.601 22.012,15.740 21.959 C 18.285 21.840,19.501 21.493,20.433 20.621 C 21.360 19.755,21.742 18.682,21.927 16.420 C 21.966 15.951,21.980 14.772,21.980 12.000 C 21.980 8.151,21.964 7.600,21.816 6.500 C 21.584 4.775,20.991 3.670,19.928 2.982 C 18.975 2.366,17.835 2.129,15.393 2.041 C 14.150 1.996,9.732 1.997,8.440 2.043 M8.267 5.803 C 8.329 5.826,8.431 5.893,8.494 5.953 C 8.720 6.166,8.737 6.239,8.753 7.030 L 8.768 7.760 9.461 7.760 C 10.200 7.760,10.312 7.781,10.494 7.953 C 10.661 8.111,10.731 8.273,10.731 8.500 C 10.731 8.727,10.661 8.889,10.494 9.047 C 10.312 9.219,10.200 9.240,9.461 9.240 L 8.768 9.240 8.753 9.970 C 8.737 10.761,8.720 10.834,8.494 11.047 C 8.353 11.181,8.201 11.240,8.000 11.240 C 7.799 11.240,7.647 11.181,7.506 11.047 C 7.280 10.834,7.263 10.761,7.247 9.970 L 7.232 9.240 6.539 9.240 C 5.800 9.240,5.688 9.219,5.506 9.047 C 5.339 8.889,5.269 8.727,5.269 8.500 C 5.269 8.273,5.339 8.111,5.506 7.953 C 5.688 7.781,5.800 7.760,6.539 7.760 L 7.232 7.760 7.247 7.030 C 7.263 6.239,7.280 6.167,7.506 5.952 C 7.569 5.893,7.665 5.827,7.720 5.805 C 7.854 5.751,8.129 5.750,8.267 5.803 M18.267 7.803 C 18.540 7.905,18.731 8.193,18.731 8.500 C 18.731 8.807,18.540 9.095,18.267 9.197 C 18.193 9.226,17.425 9.240,16.000 9.240 C 14.575 9.240,13.807 9.226,13.733 9.197 C 13.460 9.095,13.269 8.807,13.269 8.500 C 13.269 8.200,13.458 7.909,13.720 7.805 C 13.862 7.748,18.119 7.746,18.267 7.803 M6.791 13.822 C 6.880 13.858,7.154 14.096,7.470 14.411 L 8.000 14.939 8.530 14.411 C 9.079 13.865,9.237 13.759,9.509 13.761 C 9.682 13.762,9.948 13.873,10.048 13.986 C 10.151 14.102,10.240 14.340,10.240 14.500 C 10.240 14.763,10.131 14.926,9.589 15.470 L 9.061 16.000 9.589 16.530 C 10.131 17.074,10.240 17.237,10.240 17.500 C 10.240 17.661,10.151 17.900,10.048 18.013 C 9.857 18.225,9.443 18.303,9.188 18.176 C 9.118 18.141,8.822 17.876,8.530 17.587 L 8.000 17.061 7.470 17.587 C 7.179 17.876,6.882 18.141,6.812 18.176 C 6.557 18.303,6.143 18.225,5.952 18.013 C 5.849 17.900,5.760 17.661,5.760 17.500 C 5.760 17.237,5.869 17.074,6.411 16.530 L 6.939 16.000 6.411 15.470 C 5.869 14.926,5.760 14.763,5.760 14.500 C 5.760 14.340,5.849 14.102,5.952 13.986 C 6.131 13.783,6.517 13.708,6.791 13.822 M18.267 13.803 C 18.540 13.905,18.731 14.193,18.731 14.500 C 18.731 14.807,18.540 15.095,18.267 15.197 C 18.193 15.226,17.425 15.240,16.000 15.240 C 14.575 15.240,13.807 15.226,13.733 15.197 C 13.460 15.095,13.269 14.807,13.269 14.500 C 13.269 14.200,13.458 13.909,13.720 13.805 C 13.862 13.748,18.119 13.746,18.267 13.803 M18.267 16.803 C 18.540 16.905,18.731 17.193,18.731 17.500 C 18.731 17.807,18.540 18.095,18.267 18.197 C 18.193 18.226,17.425 18.240,16.000 18.240 C 14.575 18.240,13.807 18.226,13.733 18.197 C 13.460 18.095,13.269 17.807,13.269 17.500 C 13.269 17.200,13.458 16.909,13.720 16.805 C 13.862 16.748,18.119 16.746,18.267 16.803 " fill="#1C274C" stroke="none" fill-rule="evenodd"></path></svg>