<svg width="24" height="24" viewBox="0 0 24 24" fill="none" xmlns="http://www.w3.org/2000/svg"><path d="M6.700 1.817 C 6.542 1.887,6.379 2.064,6.302 2.249 C 6.253 2.367,6.240 2.568,6.240 3.236 L 6.240 4.075 6.050 4.099 C 4.978 4.231,4.491 4.350,3.990 4.600 C 2.841 5.175,2.292 6.159,2.099 7.990 L 2.072 8.240 12.000 8.240 L 21.928 8.240 21.901 7.990 C 21.707 6.146,21.147 5.156,19.975 4.582 C 19.493 4.346,18.999 4.228,17.950 4.099 L 17.760 4.075 17.759 3.228 C 17.758 2.488,17.749 2.360,17.684 2.220 C 17.398 1.601,16.602 1.601,16.316 2.220 C 16.252 2.359,16.242 2.487,16.241 3.190 L 16.240 4.000 12.000 4.000 L 7.760 4.000 7.759 3.190 C 7.758 2.297,7.732 2.174,7.495 1.953 C 7.288 1.759,6.956 1.702,6.700 1.817 M2.012 13.510 C 2.034 17.711,2.059 18.190,2.302 19.171 C 2.467 19.831,2.737 20.359,3.126 20.782 C 3.332 21.006,3.854 21.356,4.189 21.496 C 4.477 21.617,5.095 21.776,5.500 21.835 C 6.420 21.969,6.934 21.980,12.000 21.980 C 17.732 21.980,18.088 21.966,19.171 21.697 C 19.683 21.570,19.989 21.439,20.383 21.178 C 21.053 20.735,21.466 20.104,21.698 19.171 C 21.941 18.192,21.965 17.712,21.988 13.510 L 22.008 9.760 12.000 9.760 L 1.992 9.760 2.012 13.510 M7.512 12.147 C 8.142 12.534,8.154 13.446,7.535 13.839 C 7.060 14.141,6.442 13.992,6.141 13.503 C 6.034 13.329,6.020 13.271,6.020 13.003 C 6.020 12.744,6.036 12.673,6.131 12.511 C 6.339 12.158,6.660 11.988,7.072 12.015 C 7.261 12.027,7.371 12.060,7.512 12.147 M12.512 12.147 C 13.142 12.534,13.154 13.446,12.535 13.839 C 12.060 14.141,11.442 13.992,11.141 13.503 C 11.034 13.329,11.020 13.271,11.020 13.003 C 11.020 12.744,11.036 12.673,11.131 12.511 C 11.339 12.158,11.660 11.988,12.072 12.015 C 12.261 12.027,12.371 12.060,12.512 12.147 M17.512 12.147 C 18.142 12.534,18.154 13.446,17.535 13.839 C 17.060 14.141,16.442 13.992,16.141 13.503 C 16.034 13.329,16.020 13.271,16.020 13.003 C 16.020 12.744,16.036 12.673,16.131 12.511 C 16.339 12.158,16.660 11.988,17.072 12.015 C 17.261 12.027,17.371 12.060,17.512 12.147 M7.512 16.147 C 8.142 16.534,8.154 17.446,7.535 17.839 C 7.060 18.141,6.442 17.992,6.141 17.503 C 6.034 17.329,6.020 17.271,6.020 17.003 C 6.020 16.744,6.036 16.673,6.131 16.511 C 6.339 16.158,6.660 15.988,7.072 16.015 C 7.261 16.027,7.371 16.060,7.512 16.147 M12.512 16.147 C 13.142 16.534,13.154 17.446,12.535 17.839 C 12.060 18.141,11.442 17.992,11.141 17.503 C 11.034 17.329,11.020 17.271,11.020 17.003 C 11.020 16.744,11.036 16.673,11.131 16.511 C 11.339 16.158,11.660 15.988,12.072 16.015 C 12.261 16.027,12.371 16.060,12.512 16.147 M17.512 16.147 C 18.142 16.534,18.154 17.446,17.535 17.839 C 17.060 18.141,16.442 17.992,16.141 17.503 C 16.034 17.329,16.020 17.271,16.020 17.003 C 16.020 16.744,16.036 16.673,16.131 16.511 C 16.339 16.158,16.660 15.988,17.072 16.015 C 17.261 16.027,17.371 16.060,17.512 16.147 " fill="#1C274C" stroke="none" fill-rule="evenodd"></path></svg>