<svg width="24" height="24" viewBox="0 0 24 24" fill="none" xmlns="http://www.w3.org/2000/svg"><path d="M6.700 1.821 C 6.539 1.908,6.406 2.035,6.326 2.180 C 6.272 2.279,6.258 2.456,6.247 3.188 L 6.233 4.076 6.047 4.099 C 4.803 4.249,4.219 4.422,3.617 4.822 C 2.971 5.250,2.542 5.887,2.322 6.745 C 2.237 7.077,2.142 7.625,2.103 8.010 L 2.079 8.240 12.000 8.240 L 21.921 8.240 21.897 8.010 C 21.787 6.932,21.567 6.202,21.176 5.613 C 20.618 4.773,19.673 4.292,18.280 4.141 C 18.159 4.127,17.994 4.107,17.913 4.095 L 17.767 4.074 17.753 3.187 C 17.738 2.191,17.727 2.148,17.426 1.904 C 17.288 1.792,17.245 1.780,17.000 1.780 C 16.755 1.780,16.712 1.792,16.574 1.904 C 16.275 2.146,16.262 2.195,16.247 3.150 L 16.233 4.000 12.000 4.000 L 7.767 4.000 7.753 3.150 C 7.738 2.197,7.725 2.146,7.429 1.907 C 7.243 1.756,6.896 1.715,6.700 1.821 M2.011 13.590 C 2.025 16.856,2.038 17.505,2.096 17.998 C 2.262 19.417,2.553 20.188,3.155 20.800 C 3.790 21.446,4.568 21.743,6.056 21.908 C 6.643 21.974,7.174 21.980,12.020 21.980 C 16.870 21.980,17.395 21.974,17.957 21.909 C 19.433 21.738,20.195 21.449,20.822 20.822 C 21.291 20.353,21.578 19.779,21.753 18.960 C 21.961 17.987,21.999 17.086,21.999 13.110 L 22.000 9.760 11.997 9.760 L 1.993 9.760 2.011 13.590 " fill="#1C274C" stroke="none" fill-rule="evenodd"></path></svg>