<svg width="24" height="24" viewBox="0 0 24 24" fill="none" xmlns="http://www.w3.org/2000/svg"><path d="M6.700 1.817 C 6.542 1.887,6.379 2.064,6.302 2.249 C 6.253 2.367,6.240 2.568,6.240 3.236 L 6.240 4.075 6.050 4.099 C 4.978 4.231,4.491 4.350,3.990 4.600 C 2.841 5.175,2.292 6.159,2.099 7.990 L 2.072 8.240 12.000 8.240 L 21.928 8.240 21.901 7.990 C 21.707 6.146,21.147 5.156,19.975 4.582 C 19.493 4.346,18.999 4.228,17.950 4.099 L 17.760 4.075 17.759 3.228 C 17.758 2.488,17.749 2.360,17.684 2.220 C 17.398 1.601,16.602 1.601,16.316 2.220 C 16.252 2.359,16.242 2.487,16.241 3.190 L 16.240 4.000 12.000 4.000 L 7.760 4.000 7.759 3.190 C 7.758 2.297,7.732 2.174,7.495 1.953 C 7.288 1.759,6.956 1.702,6.700 1.817 M2.012 13.510 C 2.034 17.711,2.059 18.190,2.302 19.171 C 2.467 19.831,2.737 20.359,3.126 20.782 C 3.332 21.006,3.854 21.356,4.189 21.496 C 4.477 21.617,5.095 21.776,5.500 21.835 C 6.420 21.969,6.934 21.980,12.000 21.980 C 17.732 21.980,18.088 21.966,19.171 21.697 C 19.683 21.570,19.989 21.439,20.383 21.178 C 21.053 20.735,21.466 20.104,21.698 19.171 C 21.941 18.192,21.965 17.712,21.988 13.510 L 22.008 9.760 12.000 9.760 L 1.992 9.760 2.012 13.510 M10.780 12.315 C 10.982 12.406,11.189 12.639,11.220 12.809 C 11.233 12.881,11.238 13.913,11.232 15.103 L 11.220 17.266 11.120 17.414 C 11.006 17.582,10.688 17.760,10.500 17.760 C 10.312 17.760,9.994 17.582,9.880 17.414 L 9.780 17.266 9.768 16.054 L 9.757 14.842 9.539 15.019 C 9.098 15.379,8.576 15.293,8.339 14.822 C 8.116 14.378,8.210 14.206,9.229 13.192 C 10.201 12.225,10.371 12.129,10.780 12.315 M14.322 12.280 C 15.007 12.410,15.593 12.995,15.720 13.675 C 15.742 13.794,15.760 14.390,15.760 15.000 C 15.760 15.610,15.742 16.206,15.720 16.325 C 15.656 16.665,15.470 16.999,15.202 17.255 C 14.507 17.917,13.493 17.917,12.798 17.255 C 12.530 16.999,12.344 16.665,12.280 16.325 C 12.228 16.044,12.228 13.954,12.280 13.678 C 12.343 13.349,12.496 13.060,12.745 12.798 C 13.170 12.353,13.732 12.168,14.322 12.280 M13.826 13.833 C 13.768 13.897,13.760 14.039,13.760 15.007 C 13.760 16.022,13.766 16.113,13.833 16.174 C 13.930 16.261,14.091 16.258,14.174 16.167 C 14.232 16.103,14.240 15.961,14.240 14.993 C 14.240 13.978,14.234 13.887,14.167 13.826 C 14.070 13.739,13.909 13.742,13.826 13.833 " fill="#1C274C" stroke="none" fill-rule="evenodd"></path></svg>