<svg width="24" height="24" viewBox="0 0 24 24" fill="none" xmlns="http://www.w3.org/2000/svg"><path d="M6.700 1.817 C 6.542 1.887,6.379 2.064,6.302 2.249 C 6.253 2.367,6.240 2.568,6.240 3.236 L 6.240 4.075 6.050 4.099 C 4.978 4.231,4.491 4.350,3.990 4.600 C 2.841 5.175,2.292 6.159,2.099 7.990 L 2.072 8.240 12.000 8.240 L 21.928 8.240 21.901 7.990 C 21.707 6.146,21.147 5.156,19.975 4.582 C 19.493 4.346,18.999 4.228,17.950 4.099 L 17.760 4.075 17.759 3.228 C 17.758 2.488,17.749 2.360,17.684 2.220 C 17.398 1.601,16.602 1.601,16.316 2.220 C 16.252 2.359,16.242 2.487,16.241 3.190 L 16.240 4.000 12.000 4.000 L 7.760 4.000 7.759 3.190 C 7.758 2.297,7.732 2.174,7.495 1.953 C 7.288 1.759,6.956 1.702,6.700 1.817 M2.012 13.510 C 2.034 17.711,2.059 18.190,2.302 19.171 C 2.467 19.831,2.737 20.359,3.126 20.782 C 3.332 21.006,3.854 21.356,4.189 21.496 C 4.477 21.617,5.095 21.776,5.500 21.835 C 6.420 21.969,6.934 21.980,12.000 21.980 C 17.732 21.980,18.088 21.966,19.171 21.697 C 19.683 21.570,19.989 21.439,20.383 21.178 C 21.053 20.735,21.466 20.104,21.698 19.171 C 21.941 18.192,21.965 17.712,21.988 13.510 L 22.008 9.760 12.000 9.760 L 1.992 9.760 2.012 13.510 M16.209 13.282 C 16.408 13.337,16.595 13.501,16.685 13.698 C 16.747 13.835,16.758 13.967,16.759 14.550 L 16.760 15.240 17.410 15.240 C 18.125 15.240,18.295 15.271,18.484 15.430 C 18.919 15.796,18.805 16.475,18.271 16.698 C 18.157 16.746,17.966 16.760,17.441 16.760 L 16.760 16.760 16.759 17.450 C 16.758 18.035,16.747 18.164,16.684 18.300 C 16.406 18.904,15.594 18.904,15.316 18.300 C 15.253 18.164,15.242 18.035,15.241 17.450 L 15.240 16.760 14.550 16.759 C 13.802 16.758,13.643 16.723,13.452 16.515 C 13.097 16.129,13.219 15.537,13.700 15.316 C 13.836 15.253,13.965 15.242,14.550 15.241 L 15.240 15.240 15.240 14.559 C 15.240 13.833,15.269 13.684,15.452 13.485 C 15.559 13.369,15.823 13.242,15.960 13.241 C 16.015 13.241,16.127 13.259,16.209 13.282 " fill="#1C274C" stroke="none" fill-rule="evenodd"></path></svg>