<svg width="24" height="24" viewBox="0 0 24 24" fill="none" xmlns="http://www.w3.org/2000/svg"><path d="M14.807 3.287 C 14.558 3.343,14.341 3.571,14.284 3.838 C 14.203 4.215,14.260 6.906,14.360 7.460 C 14.553 8.519,15.102 9.205,15.992 9.495 C 16.455 9.647,16.713 9.683,17.480 9.708 C 17.865 9.721,18.212 9.743,18.252 9.757 C 18.309 9.778,18.233 9.855,17.887 10.131 C 17.647 10.322,17.423 10.521,17.389 10.573 C 17.190 10.875,17.228 11.268,17.480 11.520 C 17.751 11.791,18.156 11.813,18.471 11.576 C 18.875 11.270,20.991 9.559,21.067 9.476 C 21.300 9.221,21.300 8.779,21.067 8.524 C 20.991 8.441,18.875 6.730,18.471 6.424 C 17.790 5.911,16.922 6.715,17.389 7.427 C 17.423 7.479,17.648 7.679,17.890 7.871 L 18.329 8.220 17.934 8.233 C 17.413 8.249,16.727 8.177,16.458 8.076 C 15.860 7.852,15.761 7.455,15.759 5.292 C 15.758 4.564,15.740 3.943,15.717 3.841 C 15.620 3.420,15.241 3.189,14.807 3.287 M7.245 4.045 C 6.923 4.099,6.508 4.254,6.208 4.434 C 5.290 4.983,4.405 6.168,4.113 7.240 C 4.030 7.544,4.020 7.663,4.023 8.360 C 4.026 9.272,4.095 9.812,4.320 10.700 C 4.836 12.732,5.931 14.571,7.659 16.303 C 9.403 18.052,11.260 19.164,13.298 19.680 C 14.189 19.905,14.728 19.974,15.640 19.977 C 16.337 19.980,16.456 19.970,16.760 19.887 C 17.966 19.558,19.263 18.514,19.721 17.503 C 19.912 17.083,19.974 16.784,19.976 16.280 C 19.979 15.592,19.815 15.094,19.420 14.590 C 19.175 14.279,18.918 14.095,18.049 13.613 C 17.190 13.136,16.931 13.042,16.400 13.013 C 15.624 12.970,14.922 13.231,14.254 13.808 C 13.437 14.515,12.357 14.252,11.105 13.042 C 10.432 12.390,9.997 11.730,9.861 11.153 C 9.723 10.570,9.823 10.183,10.236 9.686 C 10.555 9.303,10.753 8.948,10.886 8.520 C 11.022 8.081,11.018 7.340,10.878 6.939 C 10.755 6.588,10.018 5.255,9.777 4.947 C 9.225 4.244,8.215 3.884,7.245 4.045 " stroke="none" fill-rule="evenodd" fill="black"></path></svg>