<svg width="24" height="24" viewBox="0 0 24 24" fill="none" xmlns="http://www.w3.org/2000/svg"><path d="M15.811 3.278 C 15.415 3.375,15.173 3.798,15.280 4.204 C 15.321 4.356,15.438 4.491,16.132 5.190 L 16.937 6.000 16.132 6.810 C 15.441 7.505,15.320 7.645,15.281 7.795 C 15.129 8.365,15.635 8.871,16.205 8.719 C 16.355 8.680,16.495 8.559,17.190 7.868 L 18.000 7.063 18.810 7.868 C 19.505 8.559,19.645 8.680,19.795 8.719 C 20.365 8.871,20.871 8.365,20.719 7.795 C 20.680 7.645,20.559 7.505,19.868 6.810 L 19.063 6.000 19.868 5.190 C 20.559 4.495,20.680 4.355,20.719 4.205 C 20.849 3.716,20.509 3.267,20.008 3.267 C 19.882 3.267,19.735 3.290,19.680 3.318 C 19.625 3.347,19.225 3.723,18.790 4.154 L 18.000 4.937 17.210 4.154 C 16.776 3.723,16.384 3.352,16.340 3.330 C 16.218 3.268,15.955 3.243,15.811 3.278 M7.245 4.045 C 6.923 4.099,6.508 4.254,6.208 4.434 C 5.290 4.983,4.405 6.168,4.113 7.240 C 4.030 7.544,4.020 7.663,4.023 8.360 C 4.026 9.272,4.095 9.812,4.320 10.700 C 4.836 12.732,5.931 14.571,7.659 16.303 C 9.403 18.052,11.260 19.164,13.298 19.680 C 14.189 19.905,14.728 19.974,15.640 19.977 C 16.337 19.980,16.456 19.970,16.760 19.887 C 17.966 19.558,19.263 18.514,19.721 17.503 C 19.912 17.083,19.974 16.784,19.976 16.280 C 19.979 15.592,19.815 15.094,19.420 14.590 C 19.175 14.279,18.918 14.095,18.049 13.613 C 17.190 13.136,16.931 13.042,16.400 13.013 C 15.624 12.970,14.922 13.231,14.254 13.808 C 13.437 14.515,12.357 14.252,11.105 13.042 C 10.432 12.390,9.997 11.730,9.861 11.153 C 9.723 10.570,9.823 10.183,10.236 9.686 C 10.555 9.303,10.753 8.948,10.886 8.520 C 11.022 8.081,11.018 7.340,10.878 6.939 C 10.755 6.588,10.018 5.255,9.777 4.947 C 9.225 4.244,8.215 3.884,7.245 4.045 " fill="#1C274C" stroke="none" fill-rule="evenodd"></path></svg>