<svg width="24" height="24" viewBox="0 0 24 24" fill="none" xmlns="http://www.w3.org/2000/svg"><path d="M6.280 3.044 C 6.007 3.097,5.564 3.332,5.334 3.547 C 4.976 3.881,3.581 5.375,3.453 5.561 C 2.988 6.240,2.921 6.728,3.124 7.979 C 3.587 10.835,5.312 13.900,8.020 16.674 C 10.376 19.089,12.892 20.486,15.640 20.906 C 16.225 20.995,17.552 21.006,17.880 20.925 C 18.310 20.818,18.628 20.615,19.084 20.156 C 20.023 19.209,20.619 18.538,20.751 18.277 C 21.022 17.741,21.060 17.133,20.860 16.537 C 20.697 16.051,20.384 15.640,19.980 15.382 C 19.585 15.130,17.816 14.132,17.640 14.061 C 17.531 14.018,17.308 13.982,17.074 13.970 C 16.756 13.953,16.639 13.965,16.409 14.034 C 16.041 14.146,15.698 14.381,15.369 14.747 C 15.221 14.912,15.033 15.081,14.950 15.124 C 14.475 15.370,13.704 15.183,12.848 14.613 C 12.368 14.294,12.027 14.002,11.367 13.348 C 10.378 12.366,9.793 11.609,9.382 10.780 C 9.078 10.166,8.981 9.807,9.008 9.390 C 9.031 9.035,9.099 8.897,9.416 8.559 C 9.878 8.066,10.061 7.571,10.030 6.900 C 10.007 6.430,9.899 6.102,9.635 5.711 C 9.064 4.864,8.198 3.690,8.038 3.546 C 7.557 3.114,6.895 2.925,6.280 3.044 M15.815 3.277 C 15.640 3.320,15.462 3.456,15.356 3.626 C 15.253 3.793,15.233 4.156,15.318 4.320 C 15.347 4.375,15.723 4.776,16.154 5.210 L 16.937 6.000 16.154 6.790 C 15.723 7.225,15.347 7.625,15.318 7.680 C 15.290 7.735,15.267 7.881,15.267 8.004 C 15.267 8.499,15.683 8.817,16.189 8.711 C 16.366 8.673,16.439 8.611,17.190 7.867 L 18.000 7.064 18.810 7.867 C 19.559 8.609,19.634 8.673,19.810 8.710 C 20.389 8.832,20.832 8.389,20.710 7.810 C 20.673 7.634,20.609 7.559,19.867 6.810 L 19.064 6.000 19.867 5.190 C 20.609 4.441,20.673 4.366,20.710 4.190 C 20.802 3.755,20.571 3.372,20.166 3.285 C 20.054 3.261,19.940 3.249,19.911 3.257 C 19.883 3.266,19.806 3.285,19.741 3.300 C 19.657 3.318,19.380 3.566,18.811 4.131 L 17.999 4.937 17.210 4.153 C 16.775 3.722,16.384 3.352,16.340 3.330 C 16.220 3.269,15.956 3.243,15.815 3.277 " stroke="none" fill-rule="evenodd" fill="black"></path></svg>