<svg width="24" height="24" viewBox="0 0 24 24" fill="none" xmlns="http://www.w3.org/2000/svg"><path d="M6.280 3.044 C 6.007 3.097,5.564 3.332,5.334 3.547 C 4.976 3.881,3.581 5.375,3.453 5.561 C 2.988 6.240,2.921 6.728,3.124 7.979 C 3.587 10.835,5.312 13.900,8.020 16.674 C 10.376 19.089,12.892 20.486,15.640 20.906 C 16.225 20.995,17.552 21.006,17.880 20.925 C 18.310 20.818,18.628 20.615,19.084 20.156 C 20.023 19.209,20.619 18.538,20.751 18.277 C 21.022 17.741,21.060 17.133,20.860 16.537 C 20.697 16.051,20.384 15.640,19.980 15.382 C 19.585 15.130,17.816 14.132,17.640 14.061 C 17.531 14.018,17.308 13.982,17.074 13.970 C 16.756 13.953,16.639 13.965,16.409 14.034 C 16.041 14.146,15.698 14.381,15.369 14.747 C 15.221 14.912,15.033 15.081,14.950 15.124 C 14.475 15.370,13.704 15.183,12.848 14.613 C 12.368 14.294,12.027 14.002,11.367 13.348 C 10.378 12.366,9.793 11.609,9.382 10.780 C 9.078 10.166,8.981 9.807,9.008 9.390 C 9.031 9.035,9.099 8.897,9.416 8.559 C 9.878 8.066,10.061 7.571,10.030 6.900 C 10.007 6.430,9.899 6.102,9.635 5.711 C 9.064 4.864,8.198 3.690,8.038 3.546 C 7.557 3.114,6.895 2.925,6.280 3.044 M14.807 3.287 C 14.558 3.343,14.341 3.571,14.284 3.838 C 14.203 4.215,14.260 6.906,14.360 7.460 C 14.553 8.519,15.102 9.205,15.992 9.495 C 16.455 9.647,16.713 9.683,17.480 9.708 C 17.865 9.721,18.212 9.743,18.252 9.757 C 18.309 9.778,18.233 9.855,17.887 10.131 C 17.647 10.322,17.423 10.521,17.389 10.573 C 17.190 10.875,17.228 11.268,17.480 11.520 C 17.751 11.791,18.156 11.813,18.471 11.576 C 18.875 11.270,20.991 9.559,21.067 9.476 C 21.300 9.221,21.300 8.779,21.067 8.524 C 20.991 8.441,18.875 6.730,18.471 6.424 C 17.790 5.911,16.922 6.715,17.389 7.427 C 17.423 7.479,17.648 7.679,17.890 7.871 L 18.329 8.220 17.934 8.233 C 17.413 8.249,16.727 8.177,16.458 8.076 C 15.860 7.852,15.761 7.455,15.759 5.292 C 15.758 4.564,15.740 3.943,15.717 3.841 C 15.620 3.420,15.241 3.189,14.807 3.287 " stroke="none" fill-rule="evenodd" fill="black"></path></svg>