<svg width="24" height="24" viewBox="0 0 24 24" fill="none" xmlns="http://www.w3.org/2000/svg"><path d="M16.500 2.025 C 15.688 2.113,14.871 2.416,14.160 2.892 C 13.769 3.153,13.148 3.777,12.881 4.176 C 11.906 5.632,11.741 7.451,12.439 9.037 C 12.644 9.503,12.644 9.616,12.440 10.372 C 12.352 10.698,12.280 11.028,12.280 11.107 C 12.280 11.417,12.583 11.720,12.893 11.720 C 12.972 11.720,13.302 11.648,13.628 11.560 C 14.330 11.371,14.514 11.362,14.829 11.504 C 15.585 11.845,16.198 11.977,17.020 11.976 C 18.394 11.974,19.554 11.493,20.524 10.524 C 21.243 9.804,21.685 8.982,21.903 7.958 C 22.003 7.490,22.003 6.510,21.903 6.042 C 21.685 5.018,21.243 4.196,20.524 3.476 C 19.819 2.772,19.024 2.336,18.040 2.117 C 17.705 2.042,16.826 1.990,16.500 2.025 M5.240 4.056 C 4.947 4.121,4.583 4.314,4.352 4.527 C 3.916 4.930,2.472 6.502,2.341 6.719 C 2.072 7.162,2.023 7.354,2.026 7.960 C 2.033 9.242,2.546 11.057,3.360 12.681 C 4.592 15.135,6.832 17.807,9.062 19.483 C 10.776 20.771,12.544 21.557,14.464 21.887 C 14.890 21.960,15.137 21.976,15.880 21.977 C 16.716 21.978,16.799 21.972,17.040 21.887 C 17.493 21.728,17.771 21.501,18.665 20.556 C 19.124 20.071,19.565 19.578,19.645 19.460 C 19.954 19.005,20.073 18.335,19.943 17.783 C 19.836 17.329,19.660 17.017,19.321 16.680 C 19.051 16.412,18.902 16.314,17.920 15.755 C 17.315 15.411,16.730 15.096,16.620 15.055 C 16.465 14.997,16.312 14.980,15.938 14.980 C 15.459 14.980,15.454 14.981,15.138 15.135 C 14.876 15.264,14.749 15.363,14.413 15.704 C 14.049 16.072,13.981 16.123,13.775 16.183 C 13.067 16.389,11.988 15.873,10.780 14.751 C 8.969 13.070,7.932 11.430,8.011 10.376 C 8.038 10.022,8.103 9.893,8.425 9.550 C 8.852 9.095,9.040 8.620,9.040 7.994 C 9.040 7.512,8.908 7.103,8.612 6.668 C 7.923 5.655,7.223 4.712,7.034 4.541 C 6.544 4.099,5.868 3.916,5.240 4.056 M17.474 4.949 C 17.755 5.122,17.883 5.334,17.933 5.709 L 17.975 6.025 18.291 6.067 C 18.670 6.118,18.878 6.245,19.057 6.535 C 19.159 6.700,19.176 6.768,19.176 7.000 C 19.176 7.232,19.159 7.300,19.057 7.465 C 18.878 7.755,18.670 7.882,18.291 7.933 L 17.975 7.975 17.933 8.291 C 17.882 8.671,17.755 8.878,17.462 9.059 C 17.295 9.162,17.227 9.180,17.000 9.180 C 16.773 9.180,16.705 9.162,16.538 9.059 C 16.245 8.878,16.118 8.671,16.067 8.291 L 16.025 7.975 15.709 7.933 C 15.329 7.882,15.122 7.755,14.941 7.462 C 14.838 7.295,14.820 7.227,14.820 7.000 C 14.820 6.773,14.838 6.705,14.941 6.538 C 15.122 6.245,15.329 6.118,15.709 6.067 L 16.025 6.025 16.066 5.718 C 16.091 5.528,16.142 5.354,16.197 5.264 C 16.470 4.824,17.043 4.682,17.474 4.949 " fill="#1C274C" stroke="none" fill-rule="evenodd"></path></svg>