<svg width="24" height="24" viewBox="0 0 24 24" fill="none" xmlns="http://www.w3.org/2000/svg"><path d="M16.340 2.046 C 15.581 2.143,14.647 2.523,14.019 2.992 C 12.384 4.214,11.649 6.301,12.164 8.264 C 12.209 8.436,12.325 8.770,12.423 9.007 C 12.531 9.268,12.600 9.499,12.600 9.596 C 12.600 9.683,12.526 10.030,12.436 10.366 C 12.258 11.029,12.246 11.266,12.381 11.446 C 12.620 11.762,12.825 11.782,13.634 11.564 C 13.970 11.474,14.317 11.400,14.404 11.400 C 14.501 11.400,14.732 11.469,14.993 11.577 C 16.218 12.082,17.408 12.135,18.594 11.737 C 20.079 11.238,21.268 10.035,21.753 8.539 C 21.940 7.961,21.980 7.680,21.978 6.960 C 21.976 6.381,21.963 6.247,21.869 5.869 C 21.678 5.104,21.374 4.473,20.926 3.912 C 19.822 2.527,18.090 1.823,16.340 2.046 M17.380 4.898 C 17.717 5.037,17.889 5.312,17.920 5.760 L 17.940 6.060 18.240 6.080 C 18.603 6.104,18.810 6.202,18.986 6.432 C 19.239 6.761,19.239 7.238,18.986 7.570 C 18.815 7.793,18.569 7.913,18.210 7.945 L 17.920 7.971 17.920 8.227 C 17.920 8.873,17.353 9.321,16.757 9.146 C 16.321 9.019,16.080 8.691,16.080 8.226 L 16.080 7.971 15.790 7.945 C 15.431 7.913,15.185 7.793,15.014 7.570 C 14.761 7.238,14.761 6.761,15.014 6.432 C 15.190 6.202,15.397 6.104,15.760 6.080 L 16.060 6.060 16.080 5.760 C 16.093 5.567,16.129 5.404,16.183 5.302 C 16.399 4.889,16.927 4.712,17.380 4.898 M5.245 6.045 C 4.923 6.099,4.508 6.254,4.208 6.434 C 3.290 6.983,2.405 8.168,2.113 9.240 C 2.030 9.544,2.020 9.663,2.023 10.360 C 2.026 11.272,2.095 11.812,2.320 12.700 C 2.836 14.732,3.931 16.571,5.659 18.303 C 7.403 20.052,9.260 21.164,11.298 21.680 C 12.189 21.905,12.728 21.974,13.640 21.977 C 14.337 21.980,14.456 21.970,14.760 21.887 C 15.966 21.558,17.263 20.514,17.721 19.503 C 17.912 19.083,17.974 18.784,17.976 18.280 C 17.979 17.592,17.815 17.094,17.420 16.590 C 17.175 16.279,16.918 16.095,16.049 15.613 C 15.190 15.136,14.931 15.042,14.400 15.013 C 13.624 14.970,12.922 15.231,12.254 15.808 C 11.437 16.515,10.357 16.252,9.105 15.042 C 8.432 14.390,7.997 13.730,7.861 13.153 C 7.723 12.570,7.823 12.183,8.236 11.686 C 8.555 11.303,8.753 10.948,8.886 10.520 C 9.022 10.081,9.018 9.340,8.878 8.939 C 8.755 8.588,8.018 7.255,7.777 6.947 C 7.225 6.244,6.215 5.884,5.245 6.045 " fill="#1C274C" stroke="none" fill-rule="evenodd"></path></svg>