<svg width="24" height="24" viewBox="0 0 24 24" fill="none" xmlns="http://www.w3.org/2000/svg"><path d="M8.456 2.042 C 5.720 2.141,4.373 2.534,3.435 3.507 C 2.688 4.282,2.317 5.263,2.142 6.927 C 2.046 7.840,2.001 9.469,2.001 12.000 C 2.001 16.100,2.103 17.613,2.459 18.779 C 2.891 20.195,3.805 21.109,5.221 21.541 C 6.387 21.897,7.900 21.999,12.000 21.999 C 16.116 21.999,17.590 21.899,18.787 21.538 C 20.186 21.116,21.116 20.186,21.538 18.787 C 21.899 17.590,21.999 16.116,21.999 11.980 C 21.999 7.887,21.899 6.409,21.538 5.213 C 21.115 3.811,20.192 2.890,18.779 2.459 C 17.994 2.219,17.052 2.102,15.417 2.041 C 14.217 1.996,9.702 1.997,8.456 2.042 M12.940 7.340 C 13.878 7.542,14.597 7.926,15.294 8.599 C 17.230 10.469,17.239 13.505,15.314 15.385 C 13.612 17.046,11.001 17.212,9.120 15.778 C 8.819 15.548,8.253 14.951,8.060 14.660 C 7.715 14.138,7.438 13.461,7.316 12.840 C 7.250 12.505,7.250 11.495,7.316 11.160 C 7.438 10.539,7.715 9.862,8.060 9.340 C 8.253 9.050,8.818 8.453,9.120 8.222 C 9.750 7.739,10.587 7.392,11.380 7.283 C 11.745 7.233,12.585 7.263,12.940 7.340 M11.408 8.802 C 11.068 8.863,10.520 9.087,10.214 9.290 C 9.856 9.529,9.418 9.988,9.201 10.354 C 9.108 10.510,8.976 10.805,8.907 11.009 C 8.788 11.361,8.782 11.411,8.782 12.000 C 8.782 12.589,8.788 12.639,8.907 12.991 C 9.083 13.513,9.313 13.880,9.716 14.284 C 10.120 14.687,10.487 14.917,11.009 15.093 C 11.361 15.212,11.411 15.218,12.000 15.218 C 12.589 15.218,12.639 15.212,12.991 15.093 C 13.513 14.917,13.880 14.687,14.284 14.284 C 14.688 13.879,14.918 13.512,15.092 12.991 C 15.209 12.640,15.216 12.586,15.217 12.000 C 15.219 11.409,15.213 11.363,15.093 11.009 C 14.917 10.487,14.687 10.120,14.284 9.716 C 13.882 9.315,13.527 9.095,12.994 8.916 C 12.670 8.807,12.553 8.788,12.120 8.777 C 11.845 8.770,11.525 8.781,11.408 8.802 " fill="#1C274C" stroke="none" fill-rule="evenodd"></path></svg>