<svg width="24" height="24" viewBox="0 0 24 24" fill="none" xmlns="http://www.w3.org/2000/svg"><path d="M8.625 3.059 C 8.436 3.126,8.223 3.325,8.107 3.540 C 8.042 3.663,8.022 3.770,8.022 4.000 C 8.022 4.340,8.099 4.530,8.326 4.748 C 8.602 5.012,8.424 5.000,12.000 5.000 C 15.576 5.000,15.398 5.012,15.674 4.748 C 15.901 4.530,15.978 4.340,15.978 4.000 C 15.978 3.770,15.958 3.662,15.892 3.537 C 15.778 3.321,15.522 3.095,15.333 3.043 C 15.231 3.015,14.118 3.001,11.980 3.002 C 9.362 3.003,8.752 3.014,8.625 3.059 M6.940 6.041 C 5.069 6.126,4.146 6.438,3.289 7.277 C 2.630 7.922,2.297 8.611,2.143 9.648 C 2.046 10.302,2.001 11.517,2.001 13.500 C 2.001 16.789,2.110 17.866,2.526 18.692 C 3.017 19.667,3.996 20.459,5.031 20.719 C 6.002 20.963,6.883 20.998,12.000 20.998 C 17.123 20.998,18.007 20.963,18.969 20.718 C 20.007 20.454,20.980 19.672,21.464 18.712 C 21.891 17.866,21.999 16.812,21.999 13.500 C 21.999 10.212,21.890 9.133,21.474 8.308 C 21.102 7.568,20.445 6.921,19.700 6.559 C 19.029 6.232,18.360 6.106,16.966 6.040 C 16.027 5.996,7.915 5.997,6.940 6.041 M13.060 9.615 C 14.206 9.909,15.246 10.733,15.737 11.736 C 16.044 12.365,16.160 12.847,16.160 13.500 C 16.160 15.018,15.304 16.369,13.900 17.064 C 13.650 17.188,13.287 17.328,13.060 17.388 C 12.704 17.482,12.587 17.494,12.000 17.494 C 11.413 17.494,11.296 17.482,10.940 17.388 C 9.101 16.901,7.840 15.319,7.840 13.500 C 7.840 11.545,9.250 9.926,11.289 9.537 C 11.740 9.451,12.562 9.488,13.060 9.615 M18.934 9.523 C 19.158 9.585,19.415 9.858,19.475 10.096 C 19.566 10.459,19.379 10.831,19.012 11.016 C 18.915 11.064,18.765 11.080,18.388 11.080 C 17.947 11.080,17.873 11.070,17.716 10.987 C 17.619 10.936,17.486 10.817,17.420 10.723 C 17.315 10.575,17.300 10.519,17.300 10.283 C 17.300 10.051,17.316 9.990,17.415 9.848 C 17.486 9.745,17.605 9.645,17.732 9.581 C 17.911 9.492,17.986 9.480,18.358 9.480 C 18.590 9.480,18.849 9.500,18.934 9.523 M11.680 11.119 C 10.789 11.242,10.075 11.760,9.719 12.540 C 9.448 13.135,9.448 13.865,9.719 14.460 C 10.124 15.349,10.987 15.890,12.000 15.890 C 13.013 15.890,13.876 15.349,14.281 14.460 C 14.636 13.681,14.528 12.778,13.993 12.060 C 13.497 11.393,12.532 11.001,11.680 11.119 " fill="#1C274C" stroke="none" fill-rule="evenodd"></path></svg>