<svg width="24" height="24" viewBox="0 0 24 24" fill="none" xmlns="http://www.w3.org/2000/svg"><path d="M10.040 3.027 C 9.794 3.070,9.426 3.217,9.212 3.357 C 8.777 3.643,8.540 3.977,8.360 4.560 C 8.178 5.151,7.983 5.405,7.546 5.627 C 7.370 5.716,7.253 5.737,6.642 5.784 C 4.996 5.910,4.336 6.129,3.495 6.830 C 3.148 7.120,2.744 7.639,2.539 8.060 C 2.103 8.957,2.001 9.957,2.001 13.360 C 2.001 17.215,2.128 18.121,2.812 19.140 C 3.038 19.477,3.562 19.985,3.939 20.232 C 4.527 20.617,5.253 20.825,6.374 20.928 C 7.188 21.003,16.812 21.003,17.626 20.928 C 18.747 20.825,19.473 20.617,20.061 20.232 C 20.443 19.982,20.963 19.476,21.197 19.128 C 21.869 18.127,21.999 17.193,21.999 13.360 C 21.999 9.957,21.897 8.957,21.461 8.060 C 21.157 7.436,20.637 6.867,20.000 6.460 C 19.357 6.050,18.725 5.888,17.358 5.784 C 16.747 5.737,16.630 5.716,16.454 5.627 C 16.016 5.405,15.822 5.151,15.639 4.557 C 15.408 3.809,15.009 3.379,14.297 3.111 C 14.065 3.024,14.020 3.022,12.100 3.016 C 11.022 3.012,10.095 3.017,10.040 3.027 M12.971 9.115 C 14.173 9.432,15.183 10.289,15.665 11.399 C 15.922 11.994,15.974 12.261,15.974 13.000 C 15.974 13.739,15.922 14.006,15.665 14.601 C 15.277 15.496,14.496 16.277,13.601 16.665 C 13.006 16.922,12.739 16.974,12.000 16.974 C 11.450 16.974,11.288 16.960,11.029 16.888 C 9.573 16.488,8.491 15.404,8.115 13.967 C 8.000 13.530,7.973 12.800,8.055 12.334 C 8.344 10.679,9.629 9.372,11.276 9.060 C 11.703 8.979,12.559 9.007,12.971 9.115 M19.300 9.316 C 19.494 9.405,19.616 9.532,19.698 9.729 C 19.852 10.097,19.680 10.509,19.300 10.684 C 19.082 10.785,17.960 10.795,17.729 10.698 C 17.101 10.436,17.084 9.600,17.700 9.316 C 17.936 9.207,19.064 9.207,19.300 9.316 M11.811 10.278 C 11.639 10.320,11.417 10.493,11.330 10.652 C 11.272 10.758,11.258 10.907,11.247 11.506 L 11.234 12.232 10.504 12.246 C 9.783 12.260,9.772 12.261,9.605 12.372 C 9.311 12.566,9.192 12.873,9.281 13.204 C 9.340 13.422,9.569 13.657,9.781 13.715 C 9.868 13.740,10.232 13.760,10.590 13.760 L 11.240 13.760 11.240 14.410 C 11.240 14.768,11.260 15.132,11.285 15.219 C 11.344 15.432,11.578 15.660,11.798 15.719 C 12.198 15.827,12.610 15.599,12.718 15.209 C 12.741 15.127,12.760 14.768,12.760 14.410 L 12.760 13.760 13.410 13.760 C 13.768 13.760,14.132 13.740,14.219 13.715 C 14.431 13.657,14.660 13.422,14.719 13.204 C 14.808 12.873,14.689 12.566,14.395 12.372 C 14.228 12.261,14.217 12.260,13.496 12.246 L 12.766 12.232 12.753 11.506 C 12.741 10.861,12.731 10.765,12.658 10.641 C 12.494 10.361,12.122 10.202,11.811 10.278 " fill="#1C274C" stroke="none" fill-rule="evenodd"></path></svg>