<svg width="24" height="24" viewBox="0 0 24 24" fill="none" xmlns="http://www.w3.org/2000/svg"><path d="M9.891 3.061 C 9.152 3.221,8.539 3.831,8.340 4.603 C 8.208 5.114,7.954 5.435,7.531 5.629 C 7.349 5.713,7.199 5.738,6.626 5.784 C 5.175 5.900,4.623 6.048,3.920 6.512 C 3.157 7.016,2.572 7.774,2.322 8.580 C 2.048 9.467,1.986 10.536,2.011 13.908 C 2.031 16.507,2.051 16.901,2.203 17.650 C 2.413 18.691,2.889 19.448,3.733 20.085 C 4.473 20.645,5.268 20.869,6.828 20.960 C 7.702 21.011,16.298 21.011,17.172 20.960 C 18.732 20.869,19.527 20.645,20.267 20.085 C 21.111 19.448,21.586 18.692,21.798 17.650 C 21.965 16.822,21.980 16.476,21.980 13.340 C 21.980 10.068,21.959 9.681,21.738 8.809 C 21.500 7.871,20.920 7.067,20.080 6.512 C 19.377 6.048,18.808 5.895,17.379 5.786 C 16.802 5.742,16.663 5.718,16.474 5.631 C 16.045 5.435,15.793 5.116,15.660 4.603 C 15.459 3.821,14.847 3.219,14.091 3.059 C 13.711 2.978,10.262 2.980,9.891 3.061 M12.700 9.339 C 14.680 9.661,16.160 11.381,16.160 13.360 C 16.160 15.218,14.900 16.820,13.040 17.327 C 12.745 17.408,12.608 17.420,12.000 17.420 C 11.392 17.420,11.255 17.408,10.960 17.327 C 9.347 16.887,8.177 15.632,7.899 14.045 C 7.641 12.572,8.255 11.038,9.472 10.117 C 10.366 9.440,11.558 9.153,12.700 9.339 M18.991 9.342 C 19.596 9.595,19.660 10.433,19.100 10.780 L 18.906 10.900 18.123 10.900 C 17.227 10.900,17.127 10.873,16.892 10.567 C 16.580 10.159,16.739 9.573,17.220 9.355 C 17.440 9.254,18.759 9.245,18.991 9.342 M11.460 10.966 C 11.350 10.987,11.091 11.085,10.884 11.185 C 10.026 11.601,9.505 12.431,9.510 13.377 C 9.514 14.023,9.752 14.591,10.220 15.064 C 10.713 15.563,11.291 15.803,12.000 15.803 C 12.456 15.803,12.859 15.702,13.240 15.491 C 13.589 15.298,14.021 14.855,14.207 14.500 C 14.852 13.265,14.366 11.789,13.116 11.186 C 12.909 11.087,12.633 10.986,12.503 10.963 C 12.222 10.912,11.740 10.914,11.460 10.966 " fill="#1C274C" stroke="none" fill-rule="evenodd"></path></svg>