<svg width="24" height="24" viewBox="0 0 24 24" fill="none" xmlns="http://www.w3.org/2000/svg"><path d="M9.891 3.061 C 9.152 3.221,8.539 3.831,8.340 4.603 C 8.208 5.114,7.954 5.435,7.531 5.629 C 7.349 5.713,7.199 5.738,6.626 5.784 C 5.175 5.900,4.623 6.048,3.920 6.512 C 3.157 7.016,2.572 7.774,2.322 8.580 C 2.048 9.467,1.986 10.536,2.011 13.908 C 2.031 16.507,2.051 16.901,2.203 17.650 C 2.413 18.691,2.889 19.448,3.733 20.085 C 4.473 20.645,5.268 20.869,6.828 20.960 C 7.702 21.011,16.298 21.011,17.172 20.960 C 18.732 20.869,19.527 20.645,20.267 20.085 C 21.111 19.448,21.586 18.692,21.798 17.650 C 21.965 16.822,21.980 16.476,21.980 13.340 C 21.980 10.068,21.959 9.681,21.738 8.809 C 21.500 7.871,20.920 7.067,20.080 6.512 C 19.377 6.048,18.808 5.895,17.379 5.786 C 16.802 5.742,16.663 5.718,16.474 5.631 C 16.045 5.435,15.793 5.116,15.660 4.603 C 15.459 3.821,14.847 3.219,14.091 3.059 C 13.711 2.978,10.262 2.980,9.891 3.061 M14.925 8.981 C 15.005 9.032,15.113 9.143,15.165 9.227 C 15.259 9.378,15.260 9.394,15.260 10.443 L 15.260 11.506 15.153 11.668 C 15.094 11.757,14.986 11.867,14.913 11.912 C 14.729 12.025,13.069 12.374,12.880 12.339 C 12.679 12.302,12.490 12.174,12.371 11.993 C 12.171 11.691,12.259 11.201,12.547 11.012 C 12.701 10.911,12.604 10.870,12.163 10.849 C 11.648 10.824,11.347 10.883,10.920 11.091 C 10.446 11.323,10.068 11.701,9.849 12.164 C 9.647 12.589,9.594 12.812,9.594 13.240 C 9.594 13.668,9.647 13.891,9.849 14.316 C 10.233 15.126,11.073 15.644,12.000 15.644 C 13.115 15.644,14.077 14.894,14.337 13.820 C 14.467 13.288,14.483 13.243,14.586 13.120 C 14.909 12.737,15.545 12.795,15.790 13.232 C 15.910 13.444,15.907 13.723,15.781 14.220 C 15.223 16.419,12.890 17.681,10.740 16.947 C 9.492 16.521,8.555 15.505,8.211 14.205 C 8.125 13.877,8.109 13.734,8.109 13.240 C 8.109 12.743,8.124 12.604,8.214 12.265 C 8.715 10.366,10.500 9.134,12.430 9.355 C 12.800 9.397,13.318 9.538,13.686 9.697 C 13.740 9.720,13.757 9.691,13.779 9.524 C 13.810 9.305,13.973 9.039,14.129 8.955 C 14.380 8.820,14.692 8.830,14.925 8.981 " fill="#1C274C" stroke="none" fill-rule="evenodd"></path></svg>