<svg width="24" height="24" viewBox="0 0 24 24" fill="none" xmlns="http://www.w3.org/2000/svg"><path d="M7.320 4.026 C 6.616 4.049,5.743 4.124,5.300 4.200 C 3.429 4.521,2.499 5.464,2.186 7.360 C 2.108 7.833,2.040 8.568,2.040 8.950 L 2.040 9.240 12.000 9.240 L 21.960 9.240 21.960 8.950 C 21.960 8.568,21.892 7.833,21.814 7.360 C 21.496 5.436,20.530 4.481,18.599 4.183 C 17.679 4.041,17.289 4.031,12.480 4.022 C 9.851 4.017,7.529 4.019,7.320 4.026 M2.012 12.990 C 2.038 15.628,2.085 16.295,2.302 17.171 C 2.430 17.683,2.561 17.989,2.822 18.383 C 3.265 19.053,3.896 19.466,4.829 19.698 C 5.746 19.925,6.344 19.962,9.518 19.988 L 12.297 20.010 12.022 19.715 C 11.459 19.110,11.262 18.665,11.262 18.000 C 11.262 17.351,11.482 16.838,11.963 16.368 C 12.211 16.125,12.686 15.869,13.015 15.801 L 13.233 15.756 13.249 14.668 C 13.264 13.684,13.273 13.555,13.352 13.317 C 13.587 12.605,14.221 12.009,14.942 11.821 C 15.243 11.743,15.757 11.743,16.058 11.821 C 16.679 11.983,17.334 12.535,17.564 13.090 L 17.610 13.202 18.156 12.668 C 18.577 12.256,18.762 12.105,18.961 12.008 C 19.310 11.838,19.636 11.760,20.000 11.760 C 20.636 11.760,21.114 11.966,21.641 12.468 L 22.000 12.809 22.000 11.785 L 22.000 10.760 11.994 10.760 L 1.989 10.760 2.012 12.990 M15.420 13.260 C 15.398 13.267,15.331 13.284,15.271 13.297 C 15.124 13.329,14.881 13.548,14.814 13.708 C 14.771 13.811,14.760 14.275,14.760 16.005 L 14.760 18.172 14.367 17.791 C 13.912 17.349,13.778 17.269,13.500 17.269 C 12.897 17.269,12.551 17.936,12.896 18.434 C 13.056 18.666,15.004 20.582,15.159 20.661 C 15.338 20.751,15.661 20.752,15.841 20.662 C 16.048 20.557,18.103 18.490,18.178 18.310 C 18.391 17.802,18.043 17.269,17.500 17.269 C 17.222 17.269,17.088 17.349,16.634 17.790 L 16.242 18.170 16.231 15.949 L 16.220 13.727 16.096 13.574 C 16.027 13.489,15.919 13.391,15.856 13.355 C 15.739 13.288,15.494 13.235,15.420 13.260 M19.800 13.289 C 19.634 13.324,19.533 13.414,18.474 14.473 C 17.369 15.579,17.327 15.627,17.286 15.822 C 17.168 16.390,17.637 16.852,18.190 16.713 C 18.350 16.673,18.448 16.600,18.810 16.246 L 19.240 15.827 19.240 17.892 C 19.240 19.248,19.255 20.027,19.284 20.162 C 19.447 20.920,20.553 20.920,20.716 20.162 C 20.745 20.027,20.760 19.248,20.760 17.892 L 20.760 15.827 21.190 16.246 C 21.552 16.600,21.650 16.673,21.810 16.713 C 22.367 16.853,22.831 16.388,22.711 15.810 C 22.673 15.631,22.605 15.553,21.568 14.511 C 20.962 13.901,20.410 13.377,20.343 13.346 C 20.162 13.264,20.002 13.247,19.800 13.289 M10.209 15.282 C 10.628 15.398,10.864 15.875,10.698 16.271 C 10.616 16.468,10.494 16.595,10.300 16.684 C 10.151 16.753,9.995 16.758,8.009 16.759 C 6.174 16.760,5.857 16.751,5.729 16.698 C 5.101 16.436,5.084 15.600,5.700 15.316 C 5.849 15.247,6.004 15.242,7.960 15.241 C 9.284 15.241,10.115 15.256,10.209 15.282 " fill="#1C274C" stroke="none" fill-rule="evenodd"></path></svg>