<svg width="24" height="24" viewBox="0 0 24 24" fill="none" xmlns="http://www.w3.org/2000/svg"><path d="M8.440 2.043 C 5.815 2.137,4.484 2.504,3.549 3.393 C 2.549 4.344,2.163 5.596,2.041 8.280 C 1.989 9.450,1.989 14.605,2.041 15.740 C 2.160 18.285,2.507 19.501,3.379 20.433 C 4.323 21.444,5.571 21.833,8.260 21.959 C 9.399 22.012,14.601 22.012,15.740 21.959 C 18.285 21.840,19.501 21.493,20.433 20.621 C 21.360 19.755,21.742 18.682,21.927 16.420 C 21.966 15.951,21.980 14.772,21.980 12.000 C 21.980 8.151,21.964 7.600,21.816 6.500 C 21.584 4.775,20.991 3.670,19.928 2.982 C 18.975 2.366,17.835 2.129,15.393 2.041 C 14.150 1.996,9.732 1.997,8.440 2.043 M14.759 6.041 C 15.055 6.064,15.411 6.109,15.549 6.141 C 16.244 6.302,16.698 6.754,16.858 7.445 C 16.942 7.805,17.000 8.652,17.000 9.507 L 17.000 10.234 18.110 10.247 C 19.198 10.260,19.223 10.262,19.373 10.355 C 19.615 10.506,19.733 10.718,19.733 11.003 C 19.733 11.203,19.714 11.270,19.616 11.409 C 19.552 11.501,19.436 11.613,19.359 11.658 C 19.220 11.740,19.204 11.740,12.000 11.740 C 4.796 11.740,4.780 11.740,4.641 11.658 C 4.564 11.613,4.448 11.501,4.384 11.409 C 4.286 11.271,4.267 11.203,4.267 11.007 C 4.267 10.721,4.372 10.526,4.612 10.367 L 4.774 10.260 5.887 10.247 L 7.000 10.234 7.000 9.507 C 7.000 8.176,7.092 7.410,7.302 6.996 C 7.607 6.395,8.136 6.122,9.153 6.044 C 9.782 5.996,14.132 5.993,14.759 6.041 M16.373 15.355 C 16.615 15.506,16.733 15.718,16.733 16.003 C 16.733 16.203,16.714 16.270,16.616 16.409 C 16.552 16.501,16.436 16.613,16.359 16.658 C 16.221 16.739,16.181 16.740,12.000 16.740 C 7.819 16.740,7.779 16.739,7.641 16.658 C 7.564 16.613,7.448 16.501,7.384 16.409 C 7.098 16.003,7.330 15.395,7.815 15.278 C 7.884 15.261,9.803 15.250,12.080 15.254 L 16.220 15.260 16.373 15.355 " fill="#1C274C" stroke="none" fill-rule="evenodd"></path></svg>