<svg width="24" height="24" viewBox="0 0 24 24" fill="none" xmlns="http://www.w3.org/2000/svg"><path d="M7.000 4.042 C 5.261 4.116,4.375 4.320,3.617 4.822 C 2.598 5.497,2.169 6.570,2.055 8.730 L 2.028 9.240 12.000 9.240 L 21.972 9.240 21.945 8.730 C 21.864 7.184,21.655 6.337,21.178 5.617 C 20.933 5.247,20.715 5.033,20.329 4.783 C 19.591 4.306,18.727 4.120,16.869 4.040 C 15.850 3.996,8.052 3.998,7.000 4.042 M2.012 12.990 C 2.038 15.628,2.085 16.295,2.302 17.171 C 2.430 17.683,2.561 17.989,2.822 18.383 C 3.067 18.753,3.286 18.968,3.670 19.216 C 4.280 19.610,4.955 19.794,6.280 19.924 C 6.794 19.975,15.760 20.027,15.760 19.979 C 15.760 19.963,15.617 19.800,15.442 19.615 C 14.956 19.101,14.761 18.639,14.761 18.000 C 14.761 17.367,14.968 16.868,15.417 16.419 C 15.734 16.102,16.041 15.927,16.480 15.814 L 16.760 15.742 16.760 14.733 C 16.760 14.156,16.779 13.633,16.804 13.512 C 16.932 12.893,17.429 12.261,18.003 11.989 C 18.905 11.560,19.888 11.724,20.582 12.418 C 20.897 12.733,21.115 13.122,21.196 13.512 C 21.221 13.633,21.240 14.157,21.240 14.734 L 21.240 15.745 21.490 15.809 C 21.628 15.844,21.778 15.885,21.825 15.900 C 21.905 15.925,21.911 15.910,21.935 15.593 C 21.948 15.410,21.971 14.248,21.986 13.010 L 22.011 10.760 12.000 10.760 L 1.989 10.760 2.012 12.990 M18.811 13.278 C 18.639 13.320,18.417 13.493,18.330 13.652 C 18.266 13.768,18.258 13.983,18.240 15.971 L 18.220 18.162 17.860 17.799 C 17.395 17.330,17.293 17.267,16.997 17.267 C 16.491 17.267,16.151 17.714,16.281 18.205 C 16.321 18.358,16.465 18.520,17.433 19.493 C 18.042 20.105,18.594 20.635,18.660 20.671 C 18.729 20.708,18.873 20.736,19.000 20.736 C 19.127 20.736,19.271 20.708,19.340 20.671 C 19.406 20.635,19.958 20.105,20.567 19.493 C 21.535 18.520,21.679 18.358,21.719 18.205 C 21.849 17.714,21.509 17.267,21.003 17.267 C 20.707 17.267,20.605 17.330,20.140 17.799 L 19.780 18.162 19.760 15.971 C 19.741 13.854,19.737 13.775,19.658 13.641 C 19.494 13.361,19.122 13.202,18.811 13.278 M10.209 15.282 C 10.628 15.398,10.864 15.875,10.698 16.271 C 10.616 16.468,10.494 16.595,10.300 16.684 C 10.151 16.753,9.995 16.758,8.009 16.759 C 6.174 16.760,5.857 16.751,5.729 16.698 C 5.101 16.436,5.084 15.600,5.700 15.316 C 5.849 15.247,6.004 15.242,7.960 15.241 C 9.284 15.241,10.115 15.256,10.209 15.282 M14.209 15.282 C 14.628 15.398,14.864 15.875,14.698 16.271 C 14.616 16.468,14.494 16.595,14.300 16.684 C 14.160 16.749,14.030 16.758,13.258 16.759 C 12.397 16.760,12.371 16.758,12.178 16.661 C 11.602 16.371,11.626 15.584,12.220 15.315 C 12.358 15.252,12.494 15.242,13.220 15.241 C 13.682 15.241,14.127 15.259,14.209 15.282 " fill="#1C274C" stroke="none" fill-rule="evenodd"></path></svg>