<svg width="24" height="24" viewBox="0 0 24 24" fill="none" xmlns="http://www.w3.org/2000/svg"><path d="M7.000 4.042 C 5.261 4.116,4.375 4.320,3.617 4.822 C 2.598 5.497,2.169 6.570,2.055 8.730 L 2.028 9.240 12.000 9.240 L 21.972 9.240 21.945 8.730 C 21.864 7.184,21.655 6.337,21.178 5.617 C 20.933 5.247,20.715 5.033,20.329 4.783 C 19.591 4.306,18.727 4.120,16.869 4.040 C 15.850 3.996,8.052 3.998,7.000 4.042 M2.012 12.990 C 2.038 15.628,2.085 16.295,2.302 17.171 C 2.430 17.683,2.561 17.989,2.822 18.383 C 3.265 19.053,3.896 19.466,4.829 19.698 C 5.791 19.937,6.311 19.965,10.174 19.988 C 13.061 20.005,13.603 20.000,13.574 19.954 C 13.555 19.924,13.457 19.774,13.355 19.620 C 12.493 18.314,12.269 16.624,12.759 15.125 C 13.357 13.293,14.942 11.918,16.850 11.576 C 17.384 11.480,18.226 11.490,18.748 11.597 C 19.493 11.750,20.089 12.000,20.735 12.432 C 21.018 12.621,21.699 13.260,21.894 13.520 L 21.999 13.660 22.000 12.210 L 22.000 10.760 11.994 10.760 L 1.989 10.760 2.012 12.990 M17.182 13.044 C 16.434 13.153,15.661 13.548,15.104 14.104 C 14.052 15.157,13.727 16.679,14.252 18.104 C 14.482 18.730,15.041 19.442,15.611 19.834 C 16.743 20.613,18.234 20.708,19.454 20.081 L 19.820 19.892 20.340 20.402 C 20.917 20.968,21.036 21.034,21.386 20.981 C 21.544 20.958,21.614 20.918,21.766 20.766 C 21.918 20.614,21.958 20.544,21.981 20.386 C 22.034 20.036,21.968 19.917,21.402 19.340 L 20.892 18.820 21.081 18.454 C 21.636 17.376,21.635 16.146,21.080 15.040 C 20.372 13.630,18.774 12.812,17.182 13.044 M18.320 14.579 C 19.356 14.855,20.082 15.877,19.985 16.923 C 19.918 17.647,19.558 18.245,18.949 18.642 C 18.298 19.068,17.457 19.108,16.723 18.749 C 16.208 18.498,15.736 17.908,15.579 17.320 C 15.504 17.035,15.504 16.479,15.580 16.188 C 15.776 15.433,16.417 14.784,17.165 14.583 C 17.446 14.508,18.042 14.506,18.320 14.579 " fill="#1C274C" stroke="none" fill-rule="evenodd"></path></svg>