<svg width="24" height="24" viewBox="0 0 24 24" fill="none" xmlns="http://www.w3.org/2000/svg"><path d="M7.320 4.026 C 6.616 4.049,5.743 4.124,5.300 4.200 C 3.429 4.521,2.499 5.464,2.186 7.360 C 2.108 7.833,2.040 8.568,2.040 8.950 L 2.040 9.240 12.000 9.240 L 21.960 9.240 21.960 8.950 C 21.960 8.568,21.892 7.833,21.814 7.360 C 21.496 5.436,20.530 4.481,18.599 4.183 C 17.679 4.041,17.289 4.031,12.480 4.022 C 9.851 4.017,7.529 4.019,7.320 4.026 M2.012 12.990 C 2.038 15.628,2.085 16.295,2.302 17.171 C 2.430 17.683,2.561 17.989,2.822 18.383 C 3.067 18.753,3.286 18.968,3.670 19.216 C 4.297 19.621,4.988 19.804,6.360 19.928 C 7.194 20.003,16.806 20.003,17.640 19.928 C 19.012 19.804,19.703 19.621,20.330 19.216 C 20.714 18.968,20.933 18.753,21.178 18.383 C 21.439 17.989,21.570 17.683,21.698 17.171 C 21.915 16.296,21.961 15.633,21.988 12.990 L 22.011 10.760 12.000 10.760 L 1.989 10.760 2.012 12.990 M17.451 12.336 C 18.092 12.512,18.491 12.915,18.669 13.564 C 18.772 13.941,18.773 16.059,18.671 16.430 C 18.485 17.102,18.101 17.485,17.429 17.671 C 17.061 17.772,14.939 17.772,14.571 17.671 C 14.068 17.532,13.676 17.236,13.483 16.850 C 13.283 16.450,13.261 16.261,13.261 15.000 C 13.261 13.725,13.283 13.549,13.495 13.130 C 13.606 12.910,13.917 12.603,14.144 12.489 C 14.566 12.277,14.883 12.242,16.200 12.259 C 16.975 12.269,17.276 12.288,17.451 12.336 M8.267 12.803 C 8.516 12.897,8.757 13.239,8.759 13.502 C 8.760 13.687,8.582 14.006,8.414 14.120 L 8.266 14.220 7.000 14.220 L 5.734 14.220 5.586 14.120 C 5.422 14.009,5.240 13.689,5.240 13.511 C 5.240 13.256,5.460 12.924,5.700 12.817 C 5.853 12.748,8.092 12.736,8.267 12.803 M14.942 13.793 C 14.844 13.816,14.818 13.847,14.790 13.980 C 14.734 14.242,14.770 16.106,14.832 16.168 C 14.908 16.244,17.093 16.243,17.168 16.168 C 17.243 16.093,17.244 13.908,17.168 13.832 C 17.129 13.792,16.871 13.778,16.088 13.773 C 15.523 13.770,15.007 13.779,14.942 13.793 M10.267 15.803 C 10.516 15.897,10.757 16.239,10.759 16.502 C 10.760 16.687,10.582 17.006,10.414 17.120 L 10.266 17.220 8.000 17.220 L 5.734 17.220 5.586 17.120 C 5.422 17.009,5.240 16.689,5.240 16.511 C 5.240 16.256,5.460 15.924,5.700 15.817 C 5.855 15.748,10.087 15.734,10.267 15.803 " fill="#1C274C" stroke="none" fill-rule="evenodd"></path></svg>