<svg width="24" height="24" viewBox="0 0 24 24" fill="none" xmlns="http://www.w3.org/2000/svg"><path d="M7.000 4.042 C 5.261 4.116,4.375 4.320,3.617 4.822 C 2.598 5.497,2.169 6.570,2.055 8.730 L 2.028 9.240 12.000 9.240 L 21.972 9.240 21.945 8.730 C 21.864 7.184,21.655 6.337,21.178 5.617 C 20.933 5.247,20.715 5.033,20.329 4.783 C 19.591 4.306,18.727 4.120,16.869 4.040 C 15.850 3.996,8.052 3.998,7.000 4.042 M2.012 12.990 C 2.038 15.628,2.085 16.295,2.302 17.171 C 2.430 17.683,2.561 17.989,2.822 18.383 C 3.067 18.753,3.286 18.968,3.670 19.216 C 4.279 19.610,4.954 19.793,6.280 19.924 C 6.805 19.976,15.678 20.025,16.350 19.980 L 16.760 19.952 16.760 19.103 L 16.760 18.253 16.530 18.203 C 15.668 18.015,14.964 17.294,14.789 16.420 C 14.743 16.190,14.729 16.159,14.707 16.247 C 14.667 16.405,14.485 16.601,14.302 16.685 C 14.161 16.749,14.027 16.758,13.258 16.759 C 12.397 16.760,12.371 16.758,12.178 16.661 C 11.602 16.371,11.626 15.584,12.220 15.315 C 12.358 15.252,12.494 15.242,13.220 15.241 C 13.682 15.241,14.127 15.259,14.209 15.282 C 14.403 15.336,14.595 15.500,14.677 15.684 L 14.743 15.831 14.794 15.566 C 14.821 15.420,14.909 15.165,14.987 15.000 C 15.120 14.722,15.219 14.611,16.335 13.488 C 16.998 12.821,17.632 12.213,17.745 12.135 C 18.221 11.807,18.959 11.674,19.520 11.816 C 20.075 11.956,20.232 12.066,21.123 12.947 C 21.575 13.394,21.958 13.760,21.973 13.760 C 21.988 13.760,22.000 13.085,22.000 12.260 L 22.000 10.760 11.994 10.760 L 1.989 10.760 2.012 12.990 M18.815 13.277 C 18.618 13.325,18.526 13.407,17.393 14.547 C 16.462 15.484,16.321 15.642,16.281 15.795 C 16.130 16.366,16.636 16.872,17.205 16.719 C 17.345 16.681,17.466 16.587,17.810 16.248 L 18.240 15.825 18.240 17.942 C 18.240 19.276,18.256 20.115,18.282 20.209 C 18.390 20.599,18.802 20.827,19.202 20.719 C 19.422 20.660,19.656 20.432,19.715 20.219 C 19.745 20.112,19.760 19.364,19.760 17.942 L 19.760 15.825 20.190 16.248 C 20.534 16.587,20.655 16.681,20.795 16.719 C 21.364 16.872,21.870 16.366,21.719 15.795 C 21.679 15.642,21.536 15.482,20.587 14.528 C 19.989 13.927,19.446 13.403,19.380 13.362 C 19.235 13.273,18.985 13.235,18.815 13.277 M10.209 15.282 C 10.628 15.398,10.864 15.875,10.698 16.271 C 10.616 16.468,10.494 16.595,10.300 16.684 C 10.151 16.753,9.995 16.758,8.009 16.759 C 6.174 16.760,5.857 16.751,5.729 16.698 C 5.101 16.436,5.084 15.600,5.700 15.316 C 5.849 15.247,6.004 15.242,7.960 15.241 C 9.284 15.241,10.115 15.256,10.209 15.282 " fill="#1C274C" stroke="none" fill-rule="evenodd"></path></svg>