<svg width="24" height="24" viewBox="0 0 24 24" fill="none" xmlns="http://www.w3.org/2000/svg"><path d="M7.320 4.026 C 6.616 4.049,5.743 4.124,5.300 4.200 C 3.429 4.521,2.499 5.464,2.186 7.360 C 2.108 7.833,2.040 8.568,2.040 8.950 L 2.040 9.240 12.000 9.240 L 21.960 9.240 21.960 8.950 C 21.960 8.568,21.892 7.833,21.814 7.360 C 21.496 5.436,20.530 4.481,18.599 4.183 C 17.679 4.041,17.289 4.031,12.480 4.022 C 9.851 4.017,7.529 4.019,7.320 4.026 M2.011 13.090 C 2.027 14.880,2.047 15.554,2.098 15.998 C 2.258 17.407,2.552 18.187,3.155 18.800 C 3.790 19.446,4.568 19.743,6.056 19.908 C 6.643 19.974,7.174 19.980,12.020 19.980 C 16.870 19.980,17.395 19.974,17.957 19.909 C 19.433 19.738,20.195 19.449,20.822 18.822 C 21.291 18.353,21.578 17.779,21.753 16.960 C 21.940 16.087,21.999 15.043,21.999 12.610 L 22.000 10.760 11.995 10.760 L 1.991 10.760 2.011 13.090 M10.373 15.355 C 10.615 15.506,10.733 15.718,10.733 16.003 C 10.733 16.203,10.714 16.270,10.616 16.409 C 10.552 16.501,10.436 16.613,10.359 16.658 C 10.223 16.738,10.165 16.740,8.000 16.740 C 5.835 16.740,5.777 16.738,5.641 16.658 C 5.564 16.613,5.448 16.501,5.384 16.409 C 5.098 16.003,5.329 15.396,5.815 15.277 C 5.884 15.260,6.903 15.250,8.080 15.253 L 10.220 15.260 10.373 15.355 M14.388 15.367 C 14.628 15.526,14.733 15.721,14.733 16.007 C 14.733 16.203,14.714 16.271,14.616 16.409 C 14.394 16.725,14.343 16.738,13.306 16.753 C 12.396 16.765,12.391 16.765,12.186 16.664 C 11.547 16.348,11.646 15.452,12.340 15.276 C 12.406 15.259,12.857 15.248,13.343 15.252 L 14.226 15.260 14.388 15.367 " fill="#1C274C" stroke="none" fill-rule="evenodd"></path></svg>