<svg width="24" height="24" viewBox="0 0 24 24" fill="none" xmlns="http://www.w3.org/2000/svg"><path d="M2.700 2.260 C 2.678 2.267,2.612 2.284,2.553 2.296 C 2.299 2.352,2.042 2.707,2.042 3.000 C 2.042 3.174,2.157 3.430,2.291 3.553 C 2.349 3.607,2.733 3.771,3.186 3.937 C 4.575 4.444,4.792 4.600,4.925 5.188 C 4.953 5.312,4.980 6.568,5.000 8.740 C 5.025 11.519,5.042 12.178,5.096 12.549 C 5.226 13.448,5.476 14.000,5.977 14.500 C 6.407 14.929,6.936 15.154,7.800 15.278 C 8.468 15.373,10.369 15.406,14.120 15.388 C 18.223 15.369,18.221 15.369,18.780 15.158 C 18.961 15.090,19.085 15.003,19.283 14.804 C 19.732 14.354,19.815 14.083,20.438 11.040 C 20.941 8.586,21.002 8.241,21.029 7.695 C 21.077 6.710,20.775 6.323,19.811 6.137 C 19.192 6.018,18.270 6.001,12.416 6.001 L 6.492 6.000 6.467 5.550 C 6.415 4.621,6.205 4.083,5.701 3.580 C 5.253 3.133,4.728 2.870,3.380 2.416 C 2.886 2.250,2.793 2.229,2.700 2.260 M9.820 8.329 C 9.963 8.401,10.158 8.611,10.198 8.737 C 10.265 8.949,10.760 11.949,10.760 12.146 C 10.760 12.421,10.615 12.645,10.353 12.776 C 10.122 12.891,10.051 12.899,9.829 12.838 C 9.623 12.780,9.418 12.591,9.343 12.388 C 9.275 12.203,8.760 9.186,8.760 8.971 C 8.760 8.464,9.362 8.099,9.820 8.329 M15.739 8.285 C 15.953 8.344,16.180 8.578,16.241 8.801 C 16.285 8.964,16.264 9.131,16.002 10.680 C 15.785 11.961,15.694 12.412,15.632 12.513 C 15.413 12.867,14.927 12.973,14.596 12.739 C 14.384 12.589,14.264 12.365,14.268 12.123 C 14.274 11.786,14.802 8.794,14.884 8.632 C 14.968 8.467,15.080 8.379,15.310 8.297 C 15.496 8.231,15.540 8.229,15.739 8.285 M7.150 18.041 C 6.727 18.148,6.324 18.488,6.132 18.900 C 6.035 19.107,6.020 19.190,6.020 19.500 C 6.020 19.820,6.034 19.889,6.144 20.120 C 6.301 20.450,6.550 20.699,6.880 20.856 C 7.111 20.966,7.180 20.980,7.500 20.980 C 7.811 20.980,7.894 20.965,8.104 20.867 C 8.413 20.724,8.721 20.415,8.868 20.100 C 8.965 19.893,8.980 19.810,8.980 19.500 C 8.980 19.189,8.965 19.106,8.867 18.896 C 8.725 18.589,8.414 18.278,8.110 18.139 C 7.852 18.022,7.407 17.976,7.150 18.041 M16.150 18.041 C 15.727 18.148,15.324 18.488,15.132 18.900 C 15.035 19.107,15.020 19.190,15.020 19.500 C 15.020 19.820,15.034 19.889,15.144 20.120 C 15.301 20.450,15.550 20.699,15.880 20.856 C 16.111 20.966,16.180 20.980,16.500 20.980 C 16.820 20.980,16.889 20.966,17.120 20.856 C 17.450 20.699,17.699 20.450,17.856 20.120 C 17.966 19.889,17.980 19.820,17.980 19.500 C 17.980 19.189,17.965 19.106,17.867 18.896 C 17.725 18.589,17.414 18.278,17.110 18.139 C 16.852 18.022,16.407 17.976,16.150 18.041 " fill="#1C274C" stroke="none" fill-rule="evenodd"></path></svg>