<svg width="24" height="24" viewBox="0 0 24 24" fill="none" xmlns="http://www.w3.org/2000/svg"><path d="M9.640 2.294 C 9.519 2.321,9.333 2.385,9.227 2.436 C 8.992 2.550,8.604 2.902,8.500 3.094 C 8.425 3.234,8.424 3.234,8.083 3.257 C 6.815 3.341,6.278 3.553,5.600 4.237 C 5.033 4.809,4.939 5.040,4.256 7.540 C 3.711 9.535,3.552 10.031,3.371 10.305 C 2.884 11.039,2.855 12.037,3.265 13.960 C 3.499 15.056,4.234 17.941,4.438 18.560 C 4.970 20.178,5.563 20.714,7.060 20.928 C 7.337 20.968,8.473 20.980,12.000 20.980 C 15.527 20.980,16.663 20.968,16.940 20.928 C 18.156 20.754,18.764 20.350,19.241 19.400 C 19.453 18.978,19.729 18.074,20.114 16.540 C 20.748 14.018,20.920 13.192,21.004 12.275 C 21.076 11.482,20.942 10.778,20.629 10.305 C 20.447 10.030,20.248 9.411,19.723 7.475 C 19.135 5.311,19.018 4.986,18.656 4.515 C 18.235 3.967,17.610 3.548,16.961 3.380 C 16.767 3.330,15.987 3.248,15.639 3.241 C 15.606 3.241,15.544 3.176,15.501 3.097 C 15.392 2.894,15.001 2.545,14.752 2.427 C 14.635 2.372,14.433 2.308,14.303 2.284 C 13.962 2.221,9.935 2.230,9.640 2.294 M8.497 4.900 C 8.597 5.085,8.981 5.449,9.191 5.555 C 9.569 5.748,9.715 5.759,12.000 5.759 C 14.285 5.759,14.431 5.748,14.809 5.555 C 15.019 5.449,15.403 5.085,15.503 4.900 C 15.578 4.760,15.579 4.760,15.859 4.761 C 16.516 4.763,16.904 4.890,17.278 5.226 C 17.629 5.541,17.679 5.678,18.354 8.155 L 18.631 9.170 18.425 9.146 C 17.389 9.025,17.130 9.020,12.000 9.020 C 6.870 9.020,6.611 9.025,5.575 9.146 L 5.370 9.170 5.667 8.075 C 6.302 5.728,6.372 5.541,6.729 5.219 C 7.099 4.887,7.435 4.775,8.101 4.765 L 8.422 4.760 8.497 4.900 " fill="#1C274C" stroke="none" fill-rule="evenodd"></path></svg>