<svg width="24" height="24" viewBox="0 0 24 24" fill="none" xmlns="http://www.w3.org/2000/svg"><path d="M1.811 2.278 C 1.258 2.413,1.069 3.109,1.475 3.515 C 1.606 3.646,1.727 3.700,2.418 3.935 C 3.689 4.367,3.998 4.559,4.145 5.009 C 4.207 5.199,4.217 5.566,4.243 8.660 C 4.271 12.059,4.288 12.495,4.423 13.231 C 4.695 14.721,5.531 15.645,6.931 16.003 C 7.761 16.215,7.728 16.214,13.080 16.230 C 15.819 16.238,18.119 16.234,18.191 16.220 C 18.457 16.171,18.758 15.789,18.758 15.500 C 18.758 15.241,18.516 14.896,18.267 14.803 C 18.190 14.773,16.768 14.760,13.767 14.759 C 8.430 14.758,7.748 14.729,7.023 14.465 C 6.460 14.261,6.052 13.766,5.939 13.151 L 5.911 13.002 11.606 12.991 C 16.933 12.980,17.313 12.975,17.508 12.909 C 17.794 12.812,18.030 12.623,18.221 12.339 C 18.461 11.982,19.631 9.265,19.951 8.320 C 20.119 7.826,20.135 7.746,20.137 7.380 C 20.140 7.009,20.131 6.964,20.022 6.767 C 19.818 6.398,19.523 6.226,18.870 6.093 C 18.572 6.033,17.927 6.025,12.150 6.011 C 6.162 5.997,5.760 5.992,5.760 5.928 C 5.759 5.891,5.741 5.653,5.719 5.400 C 5.641 4.512,5.422 3.983,4.945 3.530 C 4.533 3.139,4.055 2.903,2.820 2.481 C 2.202 2.271,2.004 2.231,1.811 2.278 M11.373 8.355 C 11.615 8.506,11.733 8.718,11.733 9.003 C 11.733 9.203,11.714 9.270,11.616 9.409 C 11.552 9.501,11.436 9.613,11.359 9.658 C 11.225 9.737,11.161 9.740,9.500 9.740 C 7.839 9.740,7.775 9.737,7.641 9.658 C 7.564 9.613,7.448 9.501,7.384 9.409 C 7.098 9.003,7.329 8.397,7.815 8.277 C 7.884 8.260,8.678 8.249,9.580 8.253 L 11.220 8.260 11.373 8.355 M7.117 18.052 C 6.700 18.171,6.319 18.502,6.127 18.913 C 6.037 19.105,6.021 19.195,6.021 19.501 C 6.020 19.828,6.032 19.887,6.150 20.125 C 6.306 20.443,6.592 20.724,6.911 20.872 C 7.105 20.963,7.195 20.979,7.501 20.979 C 7.828 20.980,7.887 20.968,8.125 20.850 C 8.443 20.694,8.724 20.408,8.872 20.089 C 8.963 19.894,8.979 19.806,8.979 19.500 C 8.979 19.194,8.963 19.106,8.872 18.911 C 8.630 18.393,8.140 18.049,7.596 18.017 C 7.420 18.007,7.226 18.021,7.117 18.052 M16.117 18.052 C 15.700 18.171,15.319 18.502,15.127 18.913 C 15.037 19.105,15.021 19.195,15.021 19.501 C 15.020 19.828,15.032 19.887,15.150 20.125 C 15.306 20.443,15.592 20.724,15.911 20.872 C 16.105 20.963,16.195 20.979,16.501 20.979 C 16.828 20.980,16.887 20.968,17.125 20.850 C 17.443 20.694,17.724 20.408,17.872 20.089 C 17.963 19.894,17.979 19.806,17.979 19.500 C 17.979 19.194,17.963 19.106,17.872 18.911 C 17.630 18.393,17.140 18.049,16.596 18.017 C 16.420 18.007,16.226 18.021,16.117 18.052 " fill="#1C274C" stroke="none" fill-rule="evenodd"></path></svg>