<svg width="24" height="24" viewBox="0 0 24 24" fill="none" xmlns="http://www.w3.org/2000/svg"><path d="M8.811 2.277 C 8.482 2.360,8.472 2.377,7.262 4.796 L 6.127 7.065 5.674 7.117 C 4.069 7.299,3.252 7.872,2.932 9.040 C 2.877 9.242,2.861 9.448,2.862 9.960 C 2.863 10.639,2.908 11.034,3.104 12.080 C 3.235 12.784,4.169 17.154,4.326 17.800 C 4.859 19.996,5.436 20.652,7.054 20.909 C 7.461 20.974,7.891 20.980,12.000 20.980 C 16.109 20.980,16.539 20.974,16.946 20.909 C 18.290 20.696,18.907 20.182,19.359 18.900 C 19.550 18.357,19.747 17.531,20.296 14.960 C 21.052 11.426,21.136 10.926,21.138 9.960 C 21.139 9.448,21.123 9.242,21.068 9.040 C 20.750 7.880,19.986 7.333,18.394 7.127 L 17.870 7.058 16.725 4.779 C 15.651 2.641,15.570 2.493,15.412 2.384 C 15.176 2.220,14.844 2.214,14.611 2.368 C 14.375 2.524,14.261 2.731,14.263 3.000 C 14.265 3.206,14.326 3.342,15.213 5.110 L 16.160 7.000 12.000 7.000 L 7.840 7.000 8.787 5.110 C 9.674 3.342,9.735 3.206,9.737 3.000 C 9.741 2.516,9.283 2.159,8.811 2.277 M16.373 11.355 C 16.615 11.506,16.733 11.718,16.733 12.003 C 16.733 12.203,16.714 12.270,16.616 12.409 C 16.552 12.501,16.436 12.613,16.359 12.658 C 16.221 12.739,16.181 12.740,12.000 12.740 C 7.819 12.740,7.779 12.739,7.641 12.658 C 7.564 12.613,7.448 12.501,7.384 12.409 C 7.098 12.003,7.330 11.395,7.815 11.278 C 7.884 11.261,9.803 11.250,12.080 11.254 L 16.220 11.260 16.373 11.355 M14.373 14.355 C 14.615 14.506,14.733 14.718,14.733 15.003 C 14.733 15.203,14.714 15.270,14.616 15.409 C 14.552 15.501,14.436 15.613,14.359 15.658 C 14.223 15.738,14.165 15.740,12.000 15.740 C 9.835 15.740,9.777 15.738,9.641 15.658 C 9.564 15.613,9.448 15.501,9.384 15.409 C 9.098 15.003,9.329 14.396,9.815 14.277 C 9.884 14.260,10.903 14.250,12.080 14.253 L 14.220 14.260 14.373 14.355 " fill="#1C274C" stroke="none" fill-rule="evenodd"></path></svg>