<svg width="24" height="24" viewBox="0 0 24 24" fill="none" xmlns="http://www.w3.org/2000/svg"><path d="M9.640 2.294 C 9.519 2.321,9.333 2.385,9.227 2.436 C 8.992 2.550,8.604 2.902,8.500 3.094 C 8.425 3.234,8.424 3.234,8.083 3.257 C 6.815 3.341,6.278 3.553,5.600 4.237 C 5.200 4.640,5.004 4.984,4.788 5.660 C 4.535 6.454,4.481 6.695,4.223 8.188 L 3.967 9.664 3.670 9.962 C 3.162 10.471,2.986 10.967,2.988 11.880 C 2.990 12.769,3.140 13.560,3.826 16.300 C 4.277 18.100,4.539 18.961,4.780 19.440 C 5.151 20.177,5.650 20.593,6.408 20.798 C 7.069 20.976,7.182 20.980,12.000 20.980 C 15.527 20.980,16.663 20.968,16.940 20.928 C 18.156 20.754,18.764 20.350,19.241 19.400 C 19.466 18.951,19.739 18.039,20.196 16.209 C 20.859 13.550,21.007 12.765,21.011 11.880 C 21.015 10.969,20.839 10.472,20.330 9.962 L 20.032 9.663 19.777 8.191 C 19.331 5.621,19.020 4.773,18.282 4.109 C 17.879 3.747,17.439 3.504,16.961 3.380 C 16.767 3.330,15.987 3.248,15.639 3.241 C 15.606 3.241,15.544 3.176,15.501 3.097 C 15.392 2.894,15.001 2.545,14.752 2.427 C 14.635 2.372,14.433 2.308,14.303 2.284 C 13.962 2.221,9.935 2.230,9.640 2.294 M8.497 4.900 C 8.597 5.085,8.981 5.449,9.191 5.555 C 9.569 5.748,9.715 5.759,12.000 5.759 C 14.285 5.759,14.431 5.748,14.809 5.555 C 15.019 5.449,15.403 5.085,15.503 4.900 C 15.578 4.760,15.579 4.760,15.859 4.761 C 16.516 4.763,16.904 4.890,17.278 5.226 C 17.671 5.579,17.935 6.364,18.224 8.039 C 18.321 8.600,18.400 9.079,18.400 9.103 C 18.400 9.132,18.320 9.135,18.150 9.114 C 17.481 9.031,15.825 9.001,12.000 9.001 C 8.175 9.001,6.519 9.031,5.850 9.114 C 5.661 9.138,5.600 9.133,5.600 9.096 C 5.600 8.877,5.990 6.884,6.122 6.429 C 6.318 5.751,6.466 5.456,6.729 5.219 C 7.099 4.887,7.435 4.775,8.101 4.765 L 8.422 4.760 8.497 4.900 M8.405 12.381 C 8.485 12.432,8.593 12.543,8.645 12.627 L 8.740 12.780 8.740 15.007 L 8.740 17.233 8.619 17.405 C 8.453 17.641,8.273 17.739,8.000 17.739 C 7.727 17.739,7.547 17.641,7.381 17.405 L 7.260 17.233 7.260 15.007 L 7.260 12.780 7.353 12.631 C 7.586 12.256,8.044 12.147,8.405 12.381 M12.405 12.381 C 12.485 12.432,12.593 12.543,12.645 12.627 L 12.740 12.780 12.740 15.007 L 12.740 17.233 12.619 17.405 C 12.453 17.641,12.273 17.739,12.000 17.739 C 11.727 17.739,11.547 17.641,11.381 17.405 L 11.260 17.233 11.260 15.007 L 11.260 12.780 11.353 12.631 C 11.586 12.256,12.044 12.147,12.405 12.381 M16.405 12.381 C 16.485 12.432,16.593 12.543,16.645 12.627 L 16.740 12.780 16.740 15.007 L 16.740 17.233 16.619 17.405 C 16.453 17.641,16.273 17.739,16.000 17.739 C 15.727 17.739,15.547 17.641,15.381 17.405 L 15.260 17.233 15.260 15.007 L 15.260 12.780 15.353 12.631 C 15.586 12.256,16.044 12.147,16.405 12.381 " fill="#1C274C" stroke="none" fill-rule="evenodd"></path></svg>