<svg width="24" height="24" viewBox="0 0 24 24" fill="none" xmlns="http://www.w3.org/2000/svg"><path d="M2.700 2.260 C 2.678 2.267,2.612 2.284,2.553 2.296 C 2.299 2.352,2.042 2.707,2.042 3.000 C 2.042 3.174,2.157 3.430,2.291 3.553 C 2.349 3.607,2.733 3.771,3.186 3.937 C 4.575 4.444,4.792 4.600,4.925 5.188 C 4.953 5.312,4.980 6.568,5.000 8.740 C 5.025 11.519,5.042 12.178,5.096 12.549 C 5.226 13.448,5.476 14.000,5.977 14.500 C 6.407 14.929,6.936 15.154,7.800 15.278 C 8.468 15.373,10.369 15.406,14.120 15.388 C 18.223 15.369,18.221 15.369,18.780 15.158 C 18.961 15.090,19.085 15.003,19.283 14.804 C 19.732 14.354,19.815 14.083,20.438 11.040 C 20.941 8.586,21.002 8.241,21.029 7.695 C 21.077 6.710,20.775 6.323,19.811 6.137 C 19.192 6.018,18.270 6.001,12.416 6.001 L 6.492 6.000 6.467 5.550 C 6.415 4.621,6.205 4.083,5.701 3.580 C 5.253 3.133,4.728 2.870,3.380 2.416 C 2.886 2.250,2.793 2.229,2.700 2.260 M7.117 18.052 C 6.700 18.171,6.319 18.502,6.127 18.913 C 6.037 19.105,6.021 19.195,6.021 19.501 C 6.020 19.828,6.032 19.887,6.150 20.125 C 6.306 20.443,6.592 20.724,6.911 20.872 C 7.105 20.963,7.195 20.979,7.501 20.979 C 7.828 20.980,7.887 20.968,8.125 20.850 C 8.443 20.694,8.724 20.408,8.872 20.089 C 8.963 19.894,8.979 19.806,8.979 19.500 C 8.979 19.194,8.963 19.106,8.872 18.911 C 8.630 18.393,8.140 18.049,7.596 18.017 C 7.420 18.007,7.226 18.021,7.117 18.052 M16.117 18.052 C 15.700 18.171,15.319 18.502,15.127 18.913 C 15.037 19.105,15.021 19.195,15.021 19.501 C 15.020 19.828,15.032 19.887,15.150 20.125 C 15.306 20.443,15.592 20.724,15.911 20.872 C 16.105 20.963,16.195 20.979,16.501 20.979 C 16.828 20.980,16.887 20.968,17.125 20.850 C 17.443 20.694,17.724 20.408,17.872 20.089 C 17.963 19.894,17.979 19.806,17.979 19.500 C 17.979 19.194,17.963 19.106,17.872 18.911 C 17.630 18.393,17.140 18.049,16.596 18.017 C 16.420 18.007,16.226 18.021,16.117 18.052 " fill="#1C274C" stroke="none" fill-rule="evenodd"></path></svg>