<svg width="24" height="24" viewBox="0 0 24 24" fill="none" xmlns="http://www.w3.org/2000/svg"><path d="M2.605 2.280 C 2.214 2.372,1.972 2.799,2.081 3.204 C 2.160 3.498,2.347 3.639,2.920 3.838 C 3.955 4.197,4.414 4.405,4.633 4.613 C 4.798 4.769,4.822 4.814,4.906 5.107 C 4.966 5.313,4.977 5.724,5.001 8.620 C 5.030 12.065,5.050 12.473,5.220 13.143 C 5.435 13.991,5.915 14.610,6.620 14.945 C 7.173 15.209,7.777 15.310,9.012 15.348 L 9.805 15.372 9.782 15.276 C 9.750 15.133,8.160 6.082,8.160 6.038 C 8.160 6.015,7.826 6.000,7.326 6.000 L 6.492 6.000 6.466 5.580 C 6.409 4.639,6.186 4.055,5.704 3.580 C 5.272 3.155,4.856 2.939,3.634 2.507 C 2.954 2.267,2.803 2.234,2.605 2.280 M9.696 6.110 C 9.732 6.284,11.320 15.309,11.320 15.336 C 11.320 15.350,11.962 15.356,12.747 15.351 L 14.174 15.340 14.987 10.740 C 15.433 8.210,15.799 6.109,15.799 6.070 C 15.800 6.004,15.628 6.000,12.737 6.000 L 9.674 6.000 9.696 6.110 M17.341 6.090 C 17.302 6.257,15.720 15.259,15.720 15.314 C 15.720 15.358,15.934 15.365,16.950 15.350 C 18.042 15.335,18.215 15.323,18.488 15.249 C 18.862 15.146,18.997 15.079,19.206 14.890 C 19.527 14.600,19.706 14.248,19.894 13.536 C 20.118 12.687,20.932 8.624,21.003 8.002 C 21.113 7.031,20.902 6.494,20.322 6.277 C 19.868 6.106,18.938 6.002,17.851 6.001 C 17.376 6.000,17.361 6.003,17.341 6.090 M7.150 18.041 C 6.727 18.148,6.324 18.488,6.132 18.900 C 6.035 19.107,6.020 19.190,6.020 19.500 C 6.020 19.820,6.034 19.889,6.144 20.120 C 6.301 20.450,6.550 20.699,6.880 20.856 C 7.111 20.966,7.180 20.980,7.500 20.980 C 7.811 20.980,7.894 20.965,8.104 20.867 C 8.413 20.724,8.721 20.415,8.868 20.100 C 8.965 19.893,8.980 19.810,8.980 19.500 C 8.980 19.189,8.965 19.106,8.867 18.896 C 8.725 18.589,8.414 18.278,8.110 18.139 C 7.852 18.022,7.407 17.976,7.150 18.041 M16.117 18.052 C 15.700 18.171,15.319 18.502,15.127 18.913 C 15.037 19.105,15.021 19.195,15.021 19.501 C 15.020 19.828,15.032 19.887,15.150 20.125 C 15.306 20.443,15.592 20.724,15.911 20.872 C 16.105 20.963,16.195 20.979,16.501 20.979 C 16.828 20.980,16.887 20.968,17.125 20.850 C 17.443 20.694,17.724 20.408,17.872 20.089 C 17.963 19.894,17.979 19.806,17.979 19.500 C 17.979 19.194,17.963 19.106,17.872 18.911 C 17.630 18.393,17.140 18.049,16.596 18.017 C 16.420 18.007,16.226 18.021,16.117 18.052 " fill="#1C274C" stroke="none" fill-rule="evenodd"></path></svg>