<svg width="24" height="24" viewBox="0 0 24 24" fill="none" xmlns="http://www.w3.org/2000/svg"><path d="M9.640 2.294 C 9.519 2.321,9.333 2.385,9.227 2.436 C 8.992 2.550,8.604 2.902,8.500 3.094 C 8.425 3.234,8.424 3.234,8.083 3.257 C 6.815 3.341,6.278 3.553,5.600 4.237 C 5.012 4.830,4.889 5.150,4.117 8.100 C 3.661 9.846,3.616 9.991,3.490 10.140 C 3.145 10.548,2.986 11.098,2.988 11.880 C 2.990 12.481,3.056 12.980,3.266 13.960 C 3.416 14.665,4.021 17.135,4.070 17.247 C 4.093 17.300,4.381 16.978,5.332 15.836 L 6.563 14.357 5.656 13.029 C 5.157 12.298,4.748 11.681,4.748 11.659 C 4.746 11.578,5.221 9.800,5.245 9.800 C 5.258 9.800,5.778 10.547,6.401 11.460 C 7.024 12.373,7.546 13.120,7.563 13.120 C 7.580 13.120,8.362 12.197,9.302 11.070 L 11.010 9.020 9.515 9.008 C 7.987 8.996,6.418 9.045,5.787 9.123 C 5.592 9.147,5.425 9.159,5.415 9.149 C 5.405 9.138,5.524 8.646,5.680 8.055 C 6.276 5.795,6.370 5.542,6.729 5.219 C 7.095 4.890,7.488 4.763,8.141 4.761 C 8.421 4.760,8.422 4.760,8.497 4.900 C 8.597 5.085,8.981 5.449,9.191 5.555 C 9.569 5.748,9.715 5.759,12.000 5.759 C 14.285 5.759,14.431 5.748,14.809 5.555 C 15.019 5.449,15.403 5.085,15.503 4.900 C 15.578 4.760,15.579 4.760,15.859 4.761 C 16.516 4.763,16.904 4.890,17.278 5.226 C 17.532 5.454,17.702 5.800,17.894 6.480 C 18.148 7.375,18.602 9.132,18.584 9.150 C 18.574 9.159,18.408 9.147,18.213 9.123 C 17.582 9.045,16.013 8.996,14.485 9.008 L 12.990 9.020 14.698 11.070 C 15.638 12.197,16.420 13.120,16.437 13.120 C 16.454 13.120,16.976 12.373,17.599 11.460 C 18.222 10.547,18.742 9.800,18.755 9.800 C 18.779 9.800,19.254 11.578,19.252 11.659 C 19.252 11.681,18.843 12.298,18.344 13.029 L 17.437 14.357 18.668 15.835 C 19.375 16.682,19.911 17.293,19.925 17.266 C 19.966 17.190,20.669 14.299,20.777 13.760 C 21.025 12.525,21.082 11.620,20.946 11.064 C 20.862 10.720,20.687 10.349,20.510 10.140 C 20.385 9.992,20.339 9.843,19.882 8.100 C 19.365 6.128,19.124 5.323,18.940 4.959 C 18.563 4.215,17.785 3.594,16.961 3.380 C 16.767 3.330,15.987 3.248,15.639 3.241 C 15.606 3.241,15.544 3.176,15.501 3.097 C 15.392 2.894,15.001 2.545,14.752 2.427 C 14.635 2.372,14.433 2.308,14.303 2.284 C 13.962 2.221,9.935 2.230,9.640 2.294 M10.230 12.300 C 9.268 13.454,8.476 14.415,8.470 14.433 C 8.460 14.469,11.965 19.638,12.000 19.638 C 12.011 19.638,12.623 18.753,13.360 17.670 C 14.097 16.587,14.893 15.419,15.129 15.073 L 15.558 14.445 13.797 12.332 C 12.829 11.171,12.024 10.215,12.009 10.210 C 11.993 10.204,11.192 11.145,10.230 12.300 M6.057 17.306 C 5.311 18.201,4.678 18.964,4.651 19.002 C 4.611 19.058,4.629 19.124,4.756 19.385 C 5.221 20.340,5.840 20.753,7.060 20.921 C 7.236 20.946,8.215 20.976,9.234 20.988 L 11.089 21.010 10.850 20.655 C 9.844 19.161,7.469 15.698,7.445 15.689 C 7.428 15.683,6.804 16.411,6.057 17.306 M15.319 17.469 C 14.649 18.453,13.832 19.652,13.504 20.134 L 12.909 21.010 14.764 20.988 C 15.785 20.976,16.764 20.946,16.940 20.921 C 18.157 20.753,18.782 20.336,19.244 19.385 C 19.371 19.124,19.389 19.058,19.349 19.002 C 19.222 18.825,16.584 15.680,16.563 15.680 C 16.549 15.680,15.989 16.485,15.319 17.469 " fill="#1C274C" stroke="none" fill-rule="evenodd"></path></svg>