<svg width="24" height="24" viewBox="0 0 24 24" fill="none" xmlns="http://www.w3.org/2000/svg"><path d="M8.811 2.277 C 8.482 2.360,8.472 2.377,7.262 4.796 L 6.127 7.065 5.674 7.117 C 4.082 7.298,3.246 7.879,2.939 9.020 C 2.904 9.152,2.864 9.480,2.852 9.750 L 2.828 10.240 12.000 10.240 L 21.172 10.240 21.148 9.750 C 21.104 8.812,20.832 8.206,20.260 7.771 C 19.803 7.423,19.276 7.241,18.394 7.127 L 17.870 7.058 16.725 4.779 C 15.651 2.641,15.570 2.493,15.412 2.384 C 15.176 2.220,14.844 2.214,14.611 2.368 C 14.375 2.524,14.261 2.731,14.263 3.000 C 14.265 3.206,14.326 3.342,15.213 5.110 L 16.160 7.000 12.000 7.000 L 7.840 7.000 8.787 5.110 C 9.674 3.342,9.735 3.206,9.737 3.000 C 9.741 2.516,9.283 2.159,8.811 2.277 M3.063 11.830 C 3.071 11.868,3.125 12.143,3.182 12.440 C 3.379 13.457,4.244 17.460,4.387 18.020 C 4.732 19.369,5.058 19.986,5.643 20.397 C 6.146 20.750,6.689 20.894,7.765 20.959 C 8.616 21.011,15.384 21.011,16.235 20.959 C 17.311 20.894,17.854 20.750,18.357 20.397 C 18.942 19.986,19.269 19.367,19.613 18.020 C 19.757 17.455,20.624 13.440,20.818 12.440 C 20.875 12.143,20.929 11.868,20.937 11.830 C 20.952 11.763,20.505 11.760,12.000 11.760 C 3.495 11.760,3.048 11.763,3.063 11.830 M14.209 13.282 C 14.628 13.398,14.864 13.875,14.698 14.271 C 14.616 14.468,14.494 14.595,14.300 14.684 C 14.151 14.753,13.995 14.758,12.009 14.759 C 10.174 14.760,9.857 14.751,9.729 14.698 C 9.101 14.436,9.084 13.600,9.700 13.316 C 9.849 13.247,10.004 13.242,11.960 13.241 C 13.284 13.241,14.115 13.256,14.209 13.282 " fill="#1C274C" stroke="none" fill-rule="evenodd"></path></svg>