<svg width="24" height="24" viewBox="0 0 24 24" fill="none" xmlns="http://www.w3.org/2000/svg"><path d="M10.160 2.267 C 9.430 2.358,8.722 2.743,8.311 3.273 C 8.065 3.590,7.983 3.734,7.844 4.097 C 7.699 4.473,7.562 4.680,7.338 4.864 L 7.172 5.000 6.636 5.001 C 5.798 5.001,4.741 5.074,4.301 5.162 C 3.348 5.351,2.613 5.941,2.304 6.764 C 2.070 7.388,1.987 8.352,2.007 10.220 C 2.018 11.349,2.029 11.519,2.092 11.660 C 2.190 11.878,2.374 12.059,2.595 12.154 C 2.697 12.198,3.932 12.579,5.340 13.002 C 6.747 13.424,7.922 13.779,7.950 13.789 C 7.988 13.804,8.000 13.699,8.000 13.332 C 8.000 13.069,8.020 12.748,8.043 12.617 C 8.186 11.839,8.856 11.176,9.640 11.041 C 9.818 11.010,10.612 11.000,12.160 11.009 C 14.385 11.022,14.424 11.023,14.657 11.111 C 15.334 11.366,15.834 11.946,15.957 12.617 C 15.980 12.748,16.000 13.069,16.000 13.332 C 16.000 13.699,16.012 13.804,16.050 13.789 C 16.078 13.779,17.253 13.424,18.660 13.002 C 20.068 12.579,21.305 12.197,21.410 12.152 C 21.634 12.056,21.849 11.832,21.925 11.615 C 22.001 11.400,22.002 8.406,21.927 7.805 C 21.824 6.988,21.638 6.479,21.297 6.080 C 20.870 5.582,20.382 5.301,19.699 5.163 C 19.262 5.075,18.210 5.001,17.364 5.001 L 16.828 5.000 16.662 4.864 C 16.438 4.680,16.301 4.473,16.156 4.097 C 15.877 3.371,15.440 2.882,14.770 2.545 C 14.228 2.272,14.189 2.268,12.140 2.258 C 11.128 2.254,10.237 2.258,10.160 2.267 M13.949 3.825 C 14.327 3.952,14.597 4.226,14.751 4.640 C 14.796 4.761,14.846 4.891,14.861 4.930 C 14.887 4.996,14.735 5.000,12.000 5.000 C 9.265 5.000,9.113 4.996,9.139 4.930 C 9.154 4.891,9.204 4.761,9.249 4.640 C 9.401 4.232,9.670 3.955,10.040 3.826 C 10.314 3.731,13.667 3.730,13.949 3.825 M9.684 12.623 C 9.617 12.679,9.544 12.791,9.521 12.873 C 9.469 13.061,9.467 15.095,9.519 15.277 C 9.583 15.499,9.706 15.588,10.241 15.799 C 11.012 16.103,11.356 16.176,12.000 16.176 C 12.644 16.176,12.988 16.103,13.759 15.799 C 14.294 15.588,14.417 15.499,14.481 15.277 C 14.533 15.095,14.531 13.061,14.479 12.873 C 14.456 12.791,14.383 12.679,14.316 12.623 L 14.194 12.520 12.000 12.520 L 9.806 12.520 9.684 12.623 M3.000 14.250 C 3.000 14.454,3.018 15.043,3.041 15.560 C 3.170 18.548,3.534 20.072,4.292 20.788 C 5.002 21.460,5.919 21.762,7.760 21.928 C 8.581 22.002,15.414 22.002,16.240 21.928 C 18.050 21.766,18.966 21.469,19.675 20.815 C 20.518 20.038,20.883 18.370,20.984 14.830 C 20.999 14.308,21.000 13.880,20.985 13.880 C 20.945 13.880,16.153 15.316,16.056 15.357 C 15.994 15.383,15.965 15.442,15.946 15.580 C 15.887 16.010,15.503 16.568,15.079 16.840 C 14.847 16.990,13.938 17.357,13.492 17.482 C 12.543 17.749,11.457 17.749,10.508 17.482 C 10.062 17.357,9.153 16.990,8.921 16.840 C 8.497 16.568,8.113 16.010,8.054 15.580 C 8.035 15.442,8.006 15.383,7.944 15.357 C 7.856 15.320,3.057 13.880,3.021 13.880 C 3.009 13.880,3.000 14.047,3.000 14.250 " fill="#1C274C" stroke="none" fill-rule="evenodd"></path></svg>