<svg width="24" height="24" viewBox="0 0 24 24" fill="none" xmlns="http://www.w3.org/2000/svg"><path d="M11.600 1.281 C 10.270 1.414,9.065 2.304,8.548 3.536 C 8.407 3.872,8.396 4.118,8.514 4.349 C 8.726 4.764,9.282 4.875,9.640 4.574 C 9.710 4.515,9.843 4.306,9.950 4.085 C 10.356 3.249,11.112 2.760,12.000 2.760 C 12.888 2.760,13.644 3.249,14.050 4.085 C 14.157 4.306,14.290 4.515,14.360 4.574 C 14.841 4.979,15.571 4.629,15.566 3.996 C 15.563 3.634,15.202 2.950,14.760 2.467 C 13.969 1.604,12.790 1.161,11.600 1.281 M7.320 6.026 C 6.162 6.064,5.146 6.188,4.580 6.362 C 3.942 6.557,3.356 6.932,2.987 7.381 C 2.746 7.675,2.560 8.004,2.623 8.027 C 2.646 8.035,3.105 8.326,3.643 8.673 C 4.869 9.465,5.655 9.958,6.242 10.301 C 6.711 10.575,7.244 10.855,7.254 10.833 C 7.354 10.621,7.462 10.477,7.594 10.383 C 7.820 10.222,8.161 10.217,8.393 10.371 C 8.645 10.538,8.727 10.709,8.751 11.121 L 8.771 11.475 9.355 11.616 C 10.086 11.792,10.654 11.876,11.410 11.918 C 12.481 11.978,13.562 11.877,14.645 11.616 L 15.229 11.475 15.250 11.117 C 15.266 10.821,15.288 10.732,15.372 10.604 C 15.526 10.372,15.724 10.267,16.007 10.267 C 16.345 10.267,16.556 10.428,16.746 10.833 C 16.756 10.855,17.289 10.575,17.758 10.301 C 18.345 9.958,19.131 9.465,20.357 8.673 C 20.895 8.326,21.354 8.035,21.377 8.027 C 21.440 8.004,21.254 7.675,21.013 7.381 C 20.371 6.599,19.468 6.241,17.720 6.075 C 17.298 6.034,8.338 5.992,7.320 6.026 M2.144 9.630 C 2.042 10.145,2.020 10.912,2.021 14.040 C 2.021 16.935,2.030 17.416,2.092 17.957 C 2.259 19.412,2.547 20.182,3.155 20.800 C 3.790 21.446,4.568 21.743,6.056 21.908 C 6.643 21.974,7.174 21.980,12.020 21.980 C 16.870 21.980,17.395 21.974,17.957 21.909 C 19.433 21.738,20.195 21.449,20.822 20.822 C 21.559 20.085,21.845 19.158,21.960 17.140 C 22.012 16.228,22.011 11.767,21.958 10.843 C 21.916 10.112,21.863 9.570,21.829 9.536 C 21.819 9.526,21.399 9.785,20.896 10.111 C 19.136 11.251,18.055 11.891,17.235 12.280 L 16.770 12.500 16.751 12.873 C 16.733 13.203,16.717 13.265,16.615 13.411 C 16.452 13.643,16.271 13.739,16.000 13.737 C 15.872 13.736,15.726 13.707,15.652 13.668 C 15.491 13.582,15.318 13.358,15.283 13.189 C 15.250 13.031,15.240 13.031,14.560 13.173 C 13.605 13.372,13.142 13.416,12.000 13.416 C 10.858 13.416,10.395 13.372,9.440 13.173 C 8.760 13.031,8.750 13.031,8.717 13.189 C 8.682 13.358,8.509 13.582,8.348 13.668 C 8.274 13.707,8.128 13.736,8.000 13.737 C 7.729 13.739,7.548 13.643,7.385 13.411 C 7.283 13.265,7.267 13.203,7.249 12.873 L 7.230 12.500 6.765 12.280 C 5.945 11.892,4.864 11.251,3.106 10.112 C 2.603 9.786,2.186 9.520,2.179 9.520 C 2.172 9.520,2.156 9.570,2.144 9.630 " fill="#1C274C" stroke="none" fill-rule="evenodd"></path></svg>