<svg width="24" height="24" viewBox="0 0 24 24" fill="none" xmlns="http://www.w3.org/2000/svg"><path d="M10.180 2.265 C 9.872 2.306,9.477 2.421,9.240 2.540 C 8.542 2.891,8.119 3.380,7.813 4.193 C 7.680 4.549,7.632 4.633,7.441 4.850 C 7.277 5.036,7.268 5.040,7.039 5.040 C 6.430 5.040,5.371 5.166,4.800 5.306 C 3.910 5.525,3.166 6.032,2.772 6.687 C 2.588 6.993,2.582 7.019,2.692 7.069 C 2.745 7.093,3.155 7.351,3.604 7.643 C 4.904 8.487,5.973 9.148,6.618 9.507 C 6.947 9.690,7.227 9.840,7.240 9.840 C 7.253 9.840,7.286 9.778,7.314 9.703 C 7.399 9.466,7.734 9.240,8.000 9.240 C 8.137 9.240,8.366 9.330,8.484 9.430 C 8.677 9.592,8.758 9.809,8.759 10.164 L 8.760 10.468 9.270 10.593 C 10.251 10.833,10.973 10.920,11.974 10.920 C 13.018 10.920,13.745 10.834,14.730 10.593 L 15.240 10.468 15.241 10.164 C 15.242 9.703,15.389 9.444,15.729 9.302 C 15.811 9.268,15.919 9.240,15.969 9.240 C 16.266 9.241,16.596 9.454,16.686 9.703 C 16.714 9.778,16.747 9.840,16.760 9.840 C 16.773 9.840,17.053 9.690,17.382 9.507 C 18.027 9.148,19.096 8.487,20.396 7.643 C 20.845 7.351,21.255 7.093,21.308 7.069 C 21.418 7.019,21.412 6.993,21.228 6.687 C 20.856 6.067,20.172 5.579,19.350 5.346 C 18.833 5.199,18.124 5.100,17.280 5.056 C 16.791 5.031,16.777 5.027,16.646 4.905 C 16.459 4.731,16.310 4.501,16.200 4.220 C 15.866 3.365,15.460 2.891,14.760 2.541 C 14.221 2.271,14.178 2.267,12.140 2.257 C 11.128 2.253,10.246 2.256,10.180 2.265 M14.019 3.843 C 14.350 3.967,14.603 4.243,14.758 4.646 C 14.825 4.823,14.880 4.974,14.880 4.983 C 14.880 4.993,13.584 5.000,12.000 5.000 C 10.416 5.000,9.120 4.995,9.120 4.990 C 9.120 4.984,9.172 4.842,9.235 4.673 C 9.402 4.226,9.623 3.981,9.992 3.837 C 10.164 3.770,10.332 3.764,11.988 3.762 C 13.725 3.760,13.806 3.763,14.019 3.843 M2.144 8.630 C 2.042 9.145,2.020 9.912,2.021 13.040 C 2.021 15.935,2.030 16.416,2.092 16.957 C 2.259 18.412,2.547 19.182,3.155 19.800 C 3.790 20.446,4.568 20.743,6.056 20.908 C 6.643 20.974,7.174 20.980,12.020 20.980 C 16.870 20.980,17.395 20.974,17.957 20.909 C 19.433 20.738,20.195 20.449,20.822 19.822 C 21.559 19.085,21.845 18.158,21.960 16.140 C 22.012 15.228,22.011 10.767,21.958 9.843 C 21.916 9.112,21.863 8.570,21.829 8.536 C 21.819 8.526,21.399 8.785,20.896 9.111 C 19.136 10.251,18.055 10.891,17.235 11.280 L 16.770 11.500 16.751 11.873 C 16.733 12.203,16.717 12.265,16.615 12.411 C 16.452 12.643,16.271 12.739,16.000 12.737 C 15.872 12.736,15.726 12.707,15.652 12.668 C 15.491 12.582,15.318 12.358,15.283 12.189 C 15.250 12.031,15.240 12.031,14.560 12.173 C 13.605 12.372,13.142 12.416,12.000 12.416 C 10.858 12.416,10.395 12.372,9.440 12.173 C 8.760 12.031,8.750 12.031,8.717 12.189 C 8.682 12.358,8.509 12.582,8.348 12.668 C 8.274 12.707,8.128 12.736,8.000 12.737 C 7.729 12.739,7.548 12.643,7.385 12.411 C 7.283 12.265,7.267 12.203,7.249 11.873 L 7.230 11.500 6.765 11.280 C 5.945 10.892,4.864 10.251,3.106 9.112 C 2.603 8.786,2.186 8.520,2.179 8.520 C 2.172 8.520,2.156 8.570,2.144 8.630 " fill="#1C274C" stroke="none" fill-rule="evenodd"></path></svg>