<svg width="24" height="24" viewBox="0 0 24 24" fill="none" xmlns="http://www.w3.org/2000/svg"><path d="M11.600 1.281 C 10.270 1.414,9.065 2.304,8.548 3.536 C 8.407 3.872,8.396 4.118,8.514 4.349 C 8.726 4.764,9.282 4.875,9.640 4.574 C 9.710 4.515,9.843 4.306,9.950 4.085 C 10.356 3.249,11.112 2.760,12.000 2.760 C 12.888 2.760,13.644 3.249,14.050 4.085 C 14.157 4.306,14.290 4.515,14.360 4.574 C 14.838 4.976,15.569 4.629,15.569 4.000 C 15.569 3.646,15.201 2.948,14.760 2.467 C 13.969 1.604,12.790 1.161,11.600 1.281 M5.360 5.040 C 3.965 5.124,3.285 5.388,2.715 6.068 C 2.384 6.463,2.199 6.959,2.094 7.735 C 2.042 8.114,2.027 8.574,2.024 9.840 C 2.020 11.319,2.026 11.476,2.093 11.650 C 2.180 11.874,2.403 12.080,2.670 12.182 C 2.773 12.221,4.010 12.599,5.419 13.022 L 7.980 13.790 8.005 13.185 C 8.033 12.497,8.084 12.291,8.312 11.937 C 8.603 11.488,9.088 11.149,9.592 11.044 C 9.884 10.983,14.116 10.983,14.408 11.044 C 14.898 11.146,15.409 11.498,15.678 11.917 C 15.912 12.281,15.971 12.518,15.997 13.185 L 16.020 13.790 18.640 13.002 C 20.081 12.568,21.323 12.186,21.400 12.153 C 21.614 12.060,21.784 11.898,21.887 11.689 C 21.980 11.500,21.980 11.500,21.976 9.860 C 21.973 8.099,21.930 7.540,21.756 6.975 C 21.485 6.096,20.904 5.515,20.026 5.245 C 19.309 5.024,19.407 5.027,12.360 5.018 C 8.785 5.014,5.635 5.024,5.360 5.040 M9.656 12.656 L 9.520 12.792 9.520 14.075 L 9.520 15.359 9.630 15.479 C 9.763 15.624,10.696 15.998,11.182 16.101 C 11.606 16.191,12.394 16.191,12.818 16.101 C 13.304 15.998,14.237 15.624,14.370 15.479 L 14.480 15.359 14.480 14.075 L 14.480 12.792 14.344 12.656 L 14.208 12.520 12.000 12.520 L 9.792 12.520 9.656 12.656 M3.019 14.670 C 3.106 17.450,3.289 18.849,3.697 19.860 C 4.022 20.667,4.574 21.172,5.486 21.498 C 6.605 21.898,7.920 21.999,12.000 21.999 C 16.080 21.999,17.395 21.898,18.514 21.498 C 20.354 20.841,20.831 19.518,20.980 14.670 C 20.994 14.236,20.994 13.880,20.981 13.880 C 20.968 13.880,19.874 14.205,18.549 14.602 C 17.224 14.999,16.110 15.333,16.074 15.343 C 16.031 15.356,15.985 15.458,15.940 15.641 C 15.826 16.104,15.497 16.567,15.085 16.841 C 14.836 17.007,13.774 17.418,13.258 17.549 C 12.850 17.652,12.764 17.659,12.000 17.659 C 11.236 17.659,11.150 17.652,10.742 17.549 C 10.220 17.416,9.164 17.006,8.906 16.836 C 8.490 16.560,8.137 16.047,8.039 15.575 C 8.010 15.437,7.972 15.357,7.928 15.344 C 7.890 15.333,6.776 14.999,5.451 14.602 C 4.126 14.205,3.031 13.880,3.018 13.880 C 3.005 13.880,3.005 14.236,3.019 14.670 " fill="#1C274C" stroke="none" fill-rule="evenodd"></path></svg>