<svg width="24" height="24" viewBox="0 0 24 24" fill="none" xmlns="http://www.w3.org/2000/svg"><path d="M7.395 4.037 L 7.129 4.060 7.638 5.403 C 8.198 6.877,8.373 7.250,8.603 7.458 C 8.857 7.688,9.303 7.758,10.510 7.759 L 11.240 7.760 11.240 5.880 L 11.240 4.000 9.450 4.007 C 8.466 4.011,7.541 4.024,7.395 4.037 M12.760 5.880 L 12.760 7.760 13.330 7.759 C 14.056 7.757,14.899 7.698,15.080 7.637 C 15.404 7.527,15.609 7.280,15.845 6.720 C 15.915 6.555,16.173 5.887,16.420 5.236 L 16.868 4.051 16.484 4.026 C 16.273 4.012,15.348 4.000,14.430 4.000 L 12.760 4.000 12.760 5.880 M5.360 4.186 C 5.045 4.236,4.500 4.384,4.240 4.490 C 3.624 4.742,3.156 5.113,2.825 5.613 C 2.380 6.284,2.200 6.942,2.072 8.360 C 1.999 9.176,1.999 14.824,2.072 15.640 C 2.195 17.011,2.379 17.703,2.784 18.330 C 3.032 18.714,3.247 18.933,3.617 19.178 C 4.284 19.620,4.944 19.800,6.360 19.928 C 7.203 20.004,16.756 20.003,17.640 19.927 C 19.023 19.808,19.720 19.618,20.383 19.178 C 20.753 18.933,20.968 18.714,21.216 18.330 C 21.888 17.290,22.030 15.987,21.987 11.220 C 21.965 8.759,21.939 8.185,21.817 7.425 C 21.684 6.596,21.520 6.132,21.175 5.613 C 20.844 5.112,20.376 4.741,19.760 4.491 C 19.425 4.354,18.873 4.212,18.603 4.193 L 18.425 4.180 17.853 5.700 C 17.538 6.536,17.178 7.427,17.052 7.680 C 16.858 8.072,16.776 8.187,16.502 8.464 C 16.143 8.825,15.873 8.980,15.340 9.129 C 15.021 9.219,15.008 9.219,12.000 9.219 C 8.992 9.219,8.979 9.219,8.660 9.129 C 8.127 8.980,7.857 8.825,7.498 8.464 C 7.224 8.187,7.142 8.072,6.948 7.680 C 6.822 7.427,6.462 6.536,6.148 5.700 C 5.770 4.694,5.557 4.179,5.518 4.175 C 5.486 4.172,5.415 4.177,5.360 4.186 M9.100 10.870 C 9.903 11.127,10.531 11.647,10.893 12.353 C 11.177 12.907,11.219 13.090,11.217 13.760 C 11.216 14.273,11.204 14.375,11.113 14.647 C 10.926 15.207,10.612 15.670,10.152 16.064 C 9.899 16.281,9.321 16.573,8.960 16.668 C 8.604 16.761,7.869 16.760,7.522 16.664 C 6.433 16.366,5.633 15.566,5.336 14.478 C 5.239 14.123,5.237 13.391,5.332 13.043 C 5.645 11.893,6.476 11.085,7.620 10.817 C 7.958 10.738,8.780 10.768,9.100 10.870 M16.647 10.890 C 17.200 11.070,17.668 11.386,18.064 11.848 C 18.281 12.101,18.573 12.679,18.668 13.040 C 18.761 13.396,18.760 14.131,18.664 14.478 C 18.366 15.567,17.567 16.366,16.478 16.664 C 16.131 16.760,15.396 16.761,15.040 16.668 C 14.679 16.573,14.101 16.281,13.848 16.064 C 13.385 15.667,13.069 15.200,12.890 14.647 C 12.759 14.242,12.724 13.551,12.814 13.130 C 13.054 12.003,13.970 11.073,15.091 10.818 C 15.484 10.729,16.261 10.765,16.647 10.890 M7.995 12.281 C 7.532 12.359,7.096 12.696,6.895 13.131 C 6.794 13.350,6.780 13.426,6.780 13.760 C 6.780 14.100,6.793 14.166,6.898 14.379 C 7.047 14.685,7.315 14.953,7.621 15.102 C 7.834 15.207,7.900 15.220,8.240 15.220 C 8.574 15.220,8.650 15.206,8.869 15.105 C 9.477 14.824,9.833 14.150,9.717 13.503 C 9.602 12.867,9.137 12.400,8.503 12.283 C 8.243 12.236,8.259 12.236,7.995 12.281 M15.440 12.294 C 14.502 12.502,14.005 13.495,14.396 14.379 C 14.516 14.651,14.840 14.970,15.131 15.105 C 15.350 15.206,15.426 15.220,15.760 15.220 C 16.100 15.220,16.166 15.207,16.379 15.102 C 16.685 14.953,16.953 14.685,17.102 14.379 C 17.207 14.166,17.220 14.100,17.220 13.760 C 17.220 13.425,17.206 13.350,17.104 13.129 C 16.816 12.506,16.102 12.147,15.440 12.294 " fill="#1C274C" stroke="none" fill-rule="evenodd"></path></svg>