<svg width="24" height="24" viewBox="0 0 24 24" fill="none" xmlns="http://www.w3.org/2000/svg"><path d="M7.395 4.030 L 7.129 4.043 7.578 5.232 C 8.275 7.074,8.376 7.289,8.646 7.489 C 8.853 7.643,9.014 7.681,9.620 7.721 C 10.345 7.769,13.655 7.769,14.380 7.721 C 14.984 7.682,15.147 7.643,15.352 7.491 C 15.619 7.292,15.730 7.059,16.420 5.236 L 16.868 4.051 16.484 4.026 C 16.098 4.000,7.890 4.004,7.395 4.030 M5.360 4.186 C 5.045 4.236,4.500 4.384,4.240 4.490 C 3.624 4.742,3.156 5.113,2.825 5.613 C 2.380 6.284,2.200 6.942,2.072 8.360 C 1.999 9.176,1.999 14.824,2.072 15.640 C 2.195 17.011,2.379 17.703,2.784 18.330 C 3.032 18.714,3.247 18.933,3.617 19.178 C 4.284 19.620,4.944 19.800,6.360 19.928 C 7.203 20.004,16.756 20.003,17.640 19.927 C 19.023 19.808,19.720 19.618,20.383 19.178 C 20.753 18.933,20.968 18.714,21.216 18.330 C 21.888 17.290,22.030 15.987,21.987 11.220 C 21.965 8.759,21.939 8.185,21.817 7.425 C 21.684 6.596,21.520 6.132,21.175 5.613 C 20.844 5.112,20.376 4.741,19.760 4.491 C 19.425 4.354,18.873 4.212,18.603 4.193 L 18.425 4.180 17.853 5.700 C 17.538 6.536,17.178 7.427,17.052 7.680 C 16.858 8.072,16.776 8.187,16.502 8.464 C 16.143 8.825,15.873 8.980,15.340 9.129 C 15.021 9.219,15.008 9.219,12.000 9.219 C 8.992 9.219,8.979 9.219,8.660 9.129 C 8.127 8.980,7.857 8.825,7.498 8.464 C 7.224 8.187,7.142 8.072,6.948 7.680 C 6.822 7.427,6.462 6.536,6.148 5.700 C 5.770 4.694,5.557 4.179,5.518 4.175 C 5.486 4.172,5.415 4.177,5.360 4.186 M16.464 10.841 C 18.296 11.308,19.253 13.281,18.478 14.992 C 18.090 15.847,17.335 16.455,16.379 16.682 C 16.051 16.760,15.929 16.762,11.891 16.750 C 8.032 16.738,7.723 16.732,7.501 16.665 C 6.399 16.333,5.630 15.556,5.336 14.478 C 5.239 14.123,5.237 13.391,5.332 13.043 C 5.646 11.892,6.489 11.073,7.620 10.820 C 7.812 10.777,8.695 10.766,12.004 10.763 C 16.032 10.760,16.156 10.762,16.464 10.841 M7.962 12.282 C 7.521 12.372,7.091 12.707,6.889 13.118 C 6.792 13.315,6.780 13.385,6.780 13.741 C 6.780 14.112,6.790 14.161,6.910 14.406 C 7.064 14.719,7.315 14.965,7.633 15.114 C 7.831 15.207,7.910 15.220,8.260 15.220 C 8.614 15.220,8.685 15.208,8.882 15.111 C 9.334 14.889,9.642 14.466,9.731 13.943 C 9.808 13.492,9.609 12.952,9.248 12.635 C 8.922 12.349,8.374 12.198,7.962 12.282 M10.880 12.273 C 10.880 12.290,10.923 12.394,10.976 12.504 C 11.144 12.851,11.206 13.125,11.229 13.604 C 11.257 14.210,11.196 14.500,10.893 15.190 C 10.876 15.229,11.111 15.240,11.996 15.240 C 12.614 15.240,13.120 15.233,13.120 15.225 C 13.120 15.216,13.075 15.111,13.020 14.991 C 12.680 14.249,12.672 13.325,12.997 12.561 C 13.065 12.402,13.120 12.265,13.120 12.256 C 13.120 12.247,12.616 12.240,12.000 12.240 C 11.384 12.240,10.880 12.255,10.880 12.273 M15.440 12.294 C 14.502 12.502,14.005 13.495,14.396 14.379 C 14.516 14.651,14.840 14.970,15.131 15.105 C 15.350 15.206,15.426 15.220,15.760 15.220 C 16.100 15.220,16.166 15.207,16.379 15.102 C 16.685 14.953,16.953 14.685,17.102 14.379 C 17.207 14.166,17.220 14.100,17.220 13.760 C 17.220 13.425,17.206 13.350,17.104 13.129 C 16.816 12.506,16.102 12.147,15.440 12.294 " fill="#1C274C" stroke="none" fill-rule="evenodd"></path></svg>