<svg width="24" height="24" viewBox="0 0 24 24" fill="none" xmlns="http://www.w3.org/2000/svg"><path d="M5.331 5.058 C 4.753 5.189,4.230 5.595,3.997 6.094 C 3.781 6.556,3.750 6.857,3.770 8.318 C 3.786 9.480,3.797 9.653,3.871 9.927 C 4.026 10.494,4.214 10.741,4.470 10.711 C 4.542 10.703,4.597 10.706,4.591 10.718 C 4.585 10.730,4.494 10.869,4.390 11.027 C 3.991 11.630,3.809 12.286,3.772 13.249 L 3.749 13.877 3.304 14.024 C 2.294 14.357,1.434 14.738,1.224 14.945 C 0.806 15.360,1.013 16.064,1.591 16.193 C 1.809 16.242,1.947 16.209,2.340 16.011 C 2.645 15.857,3.758 15.421,3.777 15.447 C 3.782 15.454,3.818 15.613,3.857 15.800 C 3.918 16.093,3.978 16.283,4.097 16.564 C 4.117 16.612,4.045 16.673,3.792 16.820 C 2.897 17.340,2.695 17.520,2.622 17.867 C 2.561 18.155,2.759 18.509,3.058 18.645 C 3.360 18.782,3.600 18.726,4.069 18.408 C 4.355 18.213,4.954 17.880,5.015 17.881 C 5.040 17.881,5.195 17.990,5.360 18.124 C 6.685 19.194,8.996 19.907,11.400 19.986 C 13.966 20.072,16.792 19.271,18.231 18.051 C 18.391 17.916,18.465 17.877,18.534 17.895 C 18.617 17.916,19.131 18.216,19.676 18.563 C 19.863 18.681,19.927 18.700,20.139 18.700 C 20.340 18.700,20.416 18.680,20.548 18.593 C 20.890 18.366,20.984 17.857,20.743 17.541 C 20.635 17.399,20.271 17.145,19.690 16.806 C 19.530 16.713,19.400 16.626,19.400 16.613 C 19.400 16.600,19.444 16.468,19.497 16.320 C 19.551 16.172,19.621 15.920,19.654 15.761 C 19.687 15.603,19.720 15.467,19.727 15.459 C 19.754 15.432,20.808 15.837,21.186 16.020 C 21.616 16.228,21.846 16.261,22.067 16.147 C 22.227 16.064,22.433 15.826,22.463 15.689 C 22.476 15.629,22.493 15.558,22.501 15.532 C 22.530 15.437,22.410 15.075,22.316 14.976 C 22.114 14.761,21.344 14.408,20.360 14.079 L 19.780 13.885 19.770 13.653 C 19.719 12.399,19.519 11.619,19.086 10.981 L 18.894 10.698 19.027 10.713 C 19.210 10.735,19.338 10.640,19.464 10.391 C 19.676 9.974,19.719 9.597,19.719 8.155 C 19.720 7.438,19.703 6.762,19.683 6.654 C 19.504 5.710,18.827 5.106,17.845 5.015 C 17.348 4.969,16.910 5.140,15.581 5.899 C 15.163 6.138,14.722 6.377,14.601 6.431 C 14.297 6.566,13.991 6.582,13.317 6.497 C 12.517 6.397,11.002 6.397,10.189 6.497 C 9.213 6.617,9.136 6.597,7.960 5.920 C 7.285 5.531,6.625 5.196,6.340 5.099 C 6.072 5.007,5.635 4.989,5.331 5.058 M9.228 12.145 C 9.436 12.273,9.647 12.576,9.727 12.860 C 9.803 13.129,9.779 13.628,9.679 13.900 C 9.560 14.220,9.255 14.527,8.988 14.594 C 8.105 14.816,7.446 13.620,7.908 12.632 C 8.180 12.051,8.741 11.844,9.228 12.145 M15.188 12.145 C 15.396 12.273,15.607 12.576,15.687 12.860 C 15.763 13.129,15.739 13.628,15.639 13.900 C 15.520 14.220,15.215 14.527,14.948 14.594 C 14.065 14.816,13.406 13.620,13.868 12.632 C 14.140 12.051,14.701 11.844,15.188 12.145 M12.500 15.634 C 12.742 15.743,12.873 15.859,12.945 16.029 C 13.024 16.215,13.013 16.351,12.903 16.538 C 12.545 17.150,10.969 17.157,10.599 16.548 C 10.440 16.289,10.531 15.907,10.791 15.737 C 11.039 15.574,11.316 15.519,11.820 15.532 C 12.212 15.543,12.336 15.561,12.500 15.634 " fill="#1C274C" stroke="none" fill-rule="evenodd"></path></svg>