<svg width="24" height="24" viewBox="0 0 24 24" fill="none" xmlns="http://www.w3.org/2000/svg"><path d="M9.932 2.040 C 8.814 2.121,8.184 2.381,7.646 2.985 C 7.163 3.526,6.959 4.170,6.743 5.823 C 6.321 9.058,6.252 10.139,6.428 10.701 C 6.683 11.510,7.235 11.850,8.470 11.958 C 8.728 11.981,9.457 11.999,10.090 12.000 L 11.240 12.000 11.240 12.878 L 11.240 13.757 8.910 13.768 C 6.603 13.780,6.578 13.781,6.361 13.869 C 6.241 13.919,6.131 13.946,6.116 13.929 C 6.102 13.913,6.013 13.666,5.920 13.380 C 5.704 12.719,5.500 12.294,5.232 11.941 C 4.719 11.266,4.035 10.926,2.940 10.802 C 2.471 10.748,1.875 10.749,1.733 10.803 C 1.488 10.895,1.243 11.239,1.241 11.491 C 1.239 11.755,1.497 12.122,1.737 12.197 C 1.805 12.218,2.076 12.247,2.340 12.262 C 3.157 12.307,3.586 12.418,3.868 12.656 C 4.131 12.877,4.267 13.187,4.796 14.767 C 5.371 16.483,5.559 16.892,5.978 17.351 C 6.274 17.674,6.696 17.955,7.109 18.105 L 7.420 18.218 9.330 18.231 L 11.240 18.244 11.240 18.835 L 11.240 19.427 11.070 19.478 C 10.152 19.753,9.210 20.646,8.862 21.571 C 8.660 22.107,8.781 22.481,9.220 22.684 C 9.417 22.775,9.558 22.779,9.751 22.698 C 9.983 22.601,10.109 22.452,10.300 22.049 C 10.435 21.763,10.536 21.616,10.729 21.424 C 10.867 21.285,11.039 21.142,11.110 21.105 L 11.240 21.038 11.240 21.549 C 11.240 22.161,11.282 22.331,11.476 22.525 C 11.878 22.928,12.567 22.752,12.718 22.209 C 12.741 22.127,12.760 21.830,12.760 21.549 L 12.760 21.038 12.890 21.105 C 12.961 21.142,13.133 21.285,13.271 21.424 C 13.464 21.616,13.565 21.763,13.700 22.049 C 13.797 22.254,13.927 22.470,13.988 22.529 C 14.122 22.657,14.356 22.760,14.509 22.759 C 14.761 22.757,15.105 22.512,15.197 22.267 C 15.396 21.741,14.734 20.573,13.900 19.980 C 13.623 19.783,13.176 19.552,12.930 19.478 L 12.760 19.427 12.760 18.835 L 12.760 18.244 14.670 18.231 L 16.580 18.218 16.891 18.105 C 17.577 17.856,18.103 17.384,18.485 16.674 C 18.660 16.349,18.818 15.931,19.217 14.732 C 19.608 13.555,19.761 13.149,19.881 12.964 C 20.199 12.471,20.585 12.320,21.680 12.260 C 21.933 12.246,22.195 12.217,22.263 12.197 C 22.503 12.122,22.761 11.755,22.759 11.491 C 22.757 11.239,22.512 10.895,22.267 10.803 C 22.125 10.749,21.529 10.748,21.060 10.802 C 19.965 10.926,19.281 11.266,18.768 11.941 C 18.500 12.294,18.296 12.719,18.080 13.380 C 17.987 13.666,17.898 13.913,17.884 13.929 C 17.869 13.946,17.759 13.919,17.639 13.869 C 17.422 13.781,17.397 13.780,15.090 13.768 L 12.760 13.757 12.760 12.878 L 12.760 12.000 13.910 12.000 C 14.543 11.999,15.272 11.981,15.530 11.958 C 16.765 11.850,17.317 11.510,17.572 10.701 C 17.710 10.260,17.690 9.390,17.503 7.823 C 17.124 4.629,17.030 4.125,16.692 3.473 C 16.416 2.942,15.854 2.454,15.291 2.258 C 14.720 2.060,14.378 2.032,12.300 2.019 C 11.244 2.013,10.178 2.022,9.932 2.040 " fill="#1C274C" stroke="none" fill-rule="evenodd"></path></svg>