<svg width="24" height="24" viewBox="0 0 24 24" fill="none" xmlns="http://www.w3.org/2000/svg"><path d="M9.979 3.041 C 8.881 3.126,8.280 3.405,7.680 4.108 C 7.296 4.558,7.116 5.066,7.042 5.910 C 7.019 6.168,7.001 7.424,7.000 8.700 L 7.000 11.020 12.003 11.020 L 17.006 11.020 16.988 8.380 C 16.969 5.527,16.960 5.401,16.741 4.820 C 16.487 4.145,15.831 3.502,15.127 3.238 C 14.657 3.063,14.256 3.032,12.280 3.019 C 11.257 3.012,10.222 3.022,9.979 3.041 M6.916 12.041 C 5.825 12.141,5.350 12.512,5.146 13.420 C 5.112 13.574,5.062 13.983,5.035 14.328 C 4.963 15.242,5.020 15.489,5.364 15.768 C 5.495 15.874,5.637 15.915,6.090 15.982 L 6.240 16.004 6.240 18.480 C 6.240 20.137,6.255 21.024,6.284 21.162 C 6.317 21.313,6.369 21.409,6.480 21.520 C 6.889 21.929,7.595 21.725,7.716 21.162 C 7.745 21.024,7.760 20.137,7.760 18.478 L 7.760 16.000 12.000 16.000 L 16.240 16.000 16.240 18.478 C 16.240 20.137,16.255 21.024,16.284 21.162 C 16.447 21.920,17.553 21.920,17.716 21.162 C 17.745 21.024,17.760 20.137,17.760 18.480 L 17.760 16.004 17.890 15.984 C 17.962 15.973,18.098 15.954,18.194 15.941 C 18.593 15.888,18.883 15.628,18.963 15.252 C 19.021 14.977,18.959 13.934,18.856 13.440 C 18.691 12.656,18.305 12.269,17.513 12.092 C 17.251 12.033,16.686 12.025,12.240 12.018 C 9.501 12.013,7.105 12.024,6.916 12.041 " fill="#1C274C" stroke="none" fill-rule="evenodd"></path></svg>