<svg width="24" height="24" viewBox="0 0 24 24" fill="none" xmlns="http://www.w3.org/2000/svg"><path d="M8.811 3.278 C 8.536 3.345,8.316 3.587,8.260 3.885 C 8.197 4.220,8.450 4.624,8.781 4.715 C 8.880 4.743,9.375 4.760,10.091 4.760 L 11.241 4.760 11.231 10.910 L 11.220 17.060 11.126 17.320 C 10.848 18.093,10.383 18.627,9.700 18.961 C 9.291 19.160,8.952 19.239,8.496 19.239 C 7.441 19.241,6.503 18.652,6.036 17.695 C 5.833 17.277,5.761 16.932,5.761 16.360 L 5.761 15.900 5.998 15.826 C 6.387 15.705,6.713 15.488,7.122 15.081 C 7.436 14.767,7.532 14.641,7.669 14.360 C 7.964 13.755,7.971 13.708,7.990 12.160 C 8.001 11.176,7.993 10.734,7.959 10.620 C 7.889 10.382,7.734 10.203,7.505 10.096 L 7.300 10.001 5.000 10.001 L 2.700 10.001 2.495 10.096 C 2.266 10.203,2.111 10.382,2.041 10.620 C 2.007 10.734,1.999 11.176,2.010 12.160 C 2.029 13.707,2.036 13.754,2.330 14.360 C 2.469 14.644,2.562 14.766,2.898 15.102 C 3.232 15.436,3.358 15.533,3.640 15.671 C 3.827 15.763,4.038 15.850,4.110 15.864 L 4.240 15.890 4.241 16.315 C 4.245 18.542,5.596 20.230,7.740 20.686 C 8.048 20.752,8.950 20.752,9.260 20.686 C 10.254 20.477,11.141 19.963,11.732 19.255 C 11.868 19.093,11.988 18.960,12.000 18.960 C 12.012 18.960,12.132 19.093,12.268 19.255 C 12.859 19.963,13.746 20.477,14.740 20.686 C 15.050 20.752,15.952 20.752,16.260 20.686 C 18.034 20.308,19.278 19.086,19.666 17.340 C 19.700 17.186,19.738 16.799,19.749 16.480 L 19.770 15.899 20.003 15.826 C 20.389 15.703,20.716 15.486,21.122 15.081 C 21.436 14.767,21.532 14.641,21.669 14.360 C 21.960 13.764,21.971 13.694,21.989 12.279 C 22.005 11.078,22.002 11.008,21.923 10.796 C 21.811 10.498,21.606 10.268,21.329 10.132 L 21.100 10.020 19.000 10.020 L 16.900 10.020 16.671 10.132 C 16.394 10.268,16.189 10.498,16.077 10.796 C 15.998 11.008,15.995 11.078,16.011 12.279 C 16.029 13.694,16.040 13.763,16.330 14.360 C 16.469 14.644,16.562 14.766,16.898 15.102 C 17.232 15.436,17.358 15.533,17.640 15.671 C 17.827 15.763,18.041 15.850,18.115 15.865 L 18.250 15.892 18.230 16.476 C 18.214 16.936,18.191 17.115,18.121 17.320 C 17.865 18.073,17.386 18.626,16.700 18.961 C 16.291 19.160,15.952 19.239,15.496 19.239 C 14.441 19.241,13.503 18.652,13.036 17.695 C 12.746 17.098,12.761 17.495,12.761 10.790 L 12.760 4.760 13.910 4.760 C 14.626 4.760,15.120 4.743,15.219 4.715 C 15.431 4.657,15.660 4.422,15.719 4.204 C 15.808 3.873,15.689 3.566,15.395 3.372 L 15.226 3.260 12.083 3.254 C 10.354 3.250,8.882 3.261,8.811 3.278 " fill="#1C274C" stroke="none" fill-rule="evenodd"></path></svg>