<svg width="24" height="24" viewBox="0 0 24 24" fill="none" xmlns="http://www.w3.org/2000/svg"><path d="M17.883 2.043 C 17.395 2.107,17.129 2.366,17.043 2.861 C 16.983 3.204,16.983 17.796,17.043 18.139 C 17.119 18.575,17.317 18.815,17.696 18.930 C 17.925 19.000,20.075 19.000,20.304 18.930 C 20.690 18.813,20.884 18.572,20.957 18.120 C 21.016 17.758,21.016 3.242,20.957 2.880 C 20.872 2.352,20.620 2.111,20.079 2.041 C 19.722 1.995,18.247 1.996,17.883 2.043 M10.904 5.042 C 10.421 5.117,10.183 5.317,10.072 5.740 C 10.030 5.901,10.020 7.140,10.020 12.020 C 10.020 17.731,10.024 18.114,10.091 18.330 C 10.184 18.632,10.368 18.816,10.670 18.909 C 10.867 18.970,11.059 18.980,12.000 18.980 C 12.941 18.980,13.133 18.970,13.330 18.909 C 13.632 18.816,13.816 18.632,13.909 18.330 C 13.976 18.114,13.980 17.730,13.980 12.000 C 13.980 6.270,13.976 5.886,13.909 5.670 C 13.819 5.378,13.632 5.186,13.350 5.096 C 13.182 5.042,12.942 5.027,12.140 5.017 C 11.590 5.011,11.034 5.022,10.904 5.042 M3.904 9.042 C 3.421 9.117,3.183 9.317,3.072 9.740 C 3.031 9.898,3.020 10.788,3.020 14.020 C 3.020 17.815,3.025 18.116,3.091 18.330 C 3.184 18.632,3.368 18.816,3.670 18.909 C 3.867 18.970,4.059 18.980,5.000 18.980 C 5.941 18.980,6.133 18.970,6.330 18.909 C 6.632 18.816,6.816 18.632,6.909 18.330 C 6.975 18.116,6.980 17.814,6.980 14.000 C 6.980 10.186,6.975 9.884,6.909 9.670 C 6.819 9.378,6.632 9.186,6.350 9.096 C 6.182 9.042,5.942 9.027,5.140 9.017 C 4.590 9.011,4.034 9.022,3.904 9.042 M2.807 21.287 C 2.568 21.341,2.341 21.572,2.289 21.816 C 2.197 22.246,2.431 22.629,2.838 22.716 C 3.130 22.778,20.870 22.778,21.162 22.716 C 21.920 22.553,21.920 21.447,21.162 21.284 C 20.894 21.227,3.065 21.230,2.807 21.287 " fill="#1C274C" stroke="none" fill-rule="evenodd"></path></svg>