<svg width="24" height="24" viewBox="0 0 24 24" fill="none" xmlns="http://www.w3.org/2000/svg"><path d="M10.306 2.044 C 9.940 2.082,9.720 2.177,9.649 2.327 C 9.507 2.627,9.506 2.674,9.492 11.670 L 9.477 20.520 8.739 20.520 L 8.000 20.520 8.000 14.590 C 8.000 10.822,7.985 8.608,7.960 8.518 C 7.939 8.440,7.862 8.320,7.790 8.250 C 7.532 8.000,7.528 8.000,5.731 8.001 C 4.225 8.002,4.087 8.007,3.935 8.077 C 3.732 8.169,3.578 8.365,3.523 8.601 C 3.496 8.720,3.482 10.760,3.481 14.650 L 3.480 20.520 2.518 20.520 C 1.640 20.520,1.543 20.527,1.402 20.599 C 1.112 20.747,0.967 21.041,1.018 21.380 C 1.053 21.616,1.296 21.898,1.515 21.959 C 1.611 21.986,5.085 21.999,11.780 21.999 C 21.578 21.998,21.905 21.996,22.065 21.923 C 22.439 21.753,22.605 21.260,22.410 20.899 C 22.344 20.778,22.153 20.610,22.027 20.563 C 21.959 20.537,21.537 20.520,20.957 20.520 L 20.000 20.520 20.000 17.090 C 20.000 14.962,19.985 13.606,19.960 13.518 C 19.939 13.440,19.862 13.320,19.790 13.250 C 19.532 13.000,19.528 13.000,17.731 13.001 C 16.225 13.002,16.087 13.007,15.935 13.077 C 15.732 13.169,15.578 13.365,15.523 13.601 C 15.497 13.716,15.482 14.979,15.481 17.150 L 15.480 20.520 14.740 20.520 L 14.000 20.520 13.999 11.790 C 13.998 6.524,13.982 2.944,13.960 2.768 C 13.887 2.210,13.770 2.106,13.147 2.040 C 12.711 1.994,10.753 1.997,10.306 2.044 " fill="#1C274C" stroke="none" fill-rule="evenodd"></path></svg>