<svg width="24" height="24" viewBox="0 0 24 24" fill="none" xmlns="http://www.w3.org/2000/svg"><path d="M11.120 2.039 C 9.316 2.220,7.707 2.807,6.280 3.806 C 3.483 5.764,1.887 8.964,2.013 12.360 C 2.065 13.758,2.352 14.943,2.963 16.285 C 3.186 16.774,3.253 17.097,3.199 17.425 C 3.179 17.548,3.028 18.155,2.864 18.774 C 2.493 20.177,2.505 20.113,2.562 20.389 C 2.624 20.693,2.717 20.867,2.925 21.075 C 3.124 21.275,3.298 21.370,3.591 21.439 C 3.854 21.501,3.859 21.500,5.229 21.136 C 5.850 20.971,6.452 20.821,6.569 20.802 C 6.900 20.750,7.233 20.818,7.711 21.035 C 9.057 21.648,10.240 21.935,11.640 21.987 C 14.016 22.075,16.269 21.340,18.200 19.845 C 18.637 19.507,19.507 18.637,19.845 18.200 C 22.091 15.298,22.618 11.564,21.254 8.220 C 20.058 5.287,17.480 3.053,14.430 2.303 C 13.446 2.062,12.028 1.948,11.120 2.039 M16.267 9.803 C 16.540 9.905,16.731 10.193,16.731 10.500 C 16.731 10.807,16.540 11.095,16.267 11.197 C 16.190 11.227,14.838 11.240,12.000 11.240 C 9.162 11.240,7.810 11.227,7.733 11.197 C 7.460 11.095,7.269 10.807,7.269 10.500 C 7.269 10.200,7.458 9.909,7.720 9.805 C 7.863 9.748,16.117 9.746,16.267 9.803 M13.820 13.326 C 14.308 13.596,14.389 14.195,13.987 14.549 C 13.907 14.619,13.774 14.696,13.691 14.720 C 13.586 14.751,12.668 14.761,10.660 14.752 C 7.841 14.740,7.777 14.738,7.641 14.658 C 7.564 14.613,7.448 14.501,7.384 14.409 C 7.098 14.003,7.329 13.396,7.815 13.277 C 7.884 13.261,9.236 13.250,10.820 13.253 C 13.421 13.259,13.712 13.266,13.820 13.326 " fill="#1C274C" stroke="none" fill-rule="evenodd"></path></svg>