<svg width="24" height="24" viewBox="0 0 24 24" fill="none" xmlns="http://www.w3.org/2000/svg"><path d="M11.120 2.039 C 9.316 2.220,7.707 2.807,6.280 3.806 C 3.483 5.764,1.887 8.964,2.013 12.360 C 2.065 13.758,2.352 14.943,2.963 16.285 C 3.186 16.774,3.253 17.097,3.199 17.425 C 3.179 17.548,3.028 18.155,2.864 18.774 C 2.493 20.177,2.505 20.113,2.562 20.389 C 2.624 20.693,2.717 20.867,2.925 21.075 C 3.124 21.275,3.298 21.370,3.591 21.439 C 3.854 21.501,3.859 21.500,5.229 21.136 C 5.850 20.971,6.452 20.821,6.569 20.802 C 6.900 20.750,7.233 20.818,7.711 21.035 C 9.057 21.648,10.240 21.935,11.640 21.987 C 14.016 22.075,16.269 21.340,18.200 19.845 C 18.637 19.507,19.507 18.637,19.845 18.200 C 22.091 15.298,22.618 11.564,21.254 8.220 C 20.058 5.287,17.480 3.053,14.430 2.303 C 13.446 2.062,12.028 1.948,11.120 2.039 M12.415 7.393 C 12.568 7.499,12.681 7.670,12.746 7.896 C 12.773 7.990,12.820 8.026,12.980 8.081 C 14.028 8.436,14.719 9.293,14.733 10.257 C 14.738 10.589,14.671 10.738,14.426 10.936 C 14.288 11.047,14.245 11.060,14.003 11.060 C 13.769 11.060,13.714 11.045,13.586 10.947 C 13.378 10.788,13.314 10.674,13.252 10.348 C 13.188 10.006,13.062 9.807,12.805 9.645 C 12.562 9.490,12.365 9.440,12.000 9.440 C 11.635 9.440,11.438 9.490,11.195 9.645 C 10.870 9.850,10.715 10.167,10.776 10.495 C 10.814 10.694,11.111 11.009,11.363 11.118 C 11.504 11.178,11.740 11.223,12.114 11.261 C 12.415 11.292,12.759 11.346,12.880 11.382 C 13.751 11.641,14.502 12.374,14.682 13.140 C 14.796 13.623,14.722 14.241,14.500 14.681 C 14.229 15.215,13.583 15.739,12.966 15.923 C 12.791 15.975,12.750 16.026,12.702 16.249 C 12.690 16.309,12.612 16.428,12.530 16.515 C 12.293 16.763,11.945 16.818,11.631 16.655 C 11.491 16.583,11.280 16.298,11.280 16.182 C 11.280 16.055,11.201 15.975,11.020 15.919 C 10.402 15.726,9.769 15.210,9.500 14.681 C 9.278 14.242,9.195 13.592,9.329 13.340 C 9.514 12.991,9.922 12.836,10.271 12.982 C 10.569 13.107,10.684 13.274,10.758 13.694 C 10.807 13.973,10.909 14.152,11.105 14.301 C 11.355 14.492,11.622 14.573,12.000 14.572 C 12.422 14.572,12.722 14.467,12.960 14.235 C 13.339 13.868,13.335 13.444,12.951 13.096 C 12.698 12.868,12.486 12.794,11.967 12.756 C 11.113 12.692,10.520 12.459,10.019 11.991 C 9.498 11.505,9.273 11.016,9.269 10.360 C 9.266 9.953,9.334 9.647,9.499 9.322 C 9.772 8.785,10.361 8.304,11.020 8.081 C 11.180 8.026,11.227 7.989,11.254 7.896 C 11.389 7.439,11.689 7.216,12.100 7.266 C 12.188 7.277,12.330 7.334,12.415 7.393 " fill="#1C274C" stroke="none" fill-rule="evenodd"></path></svg>