<svg width="24" height="24" viewBox="0 0 24 24" fill="none" xmlns="http://www.w3.org/2000/svg"><path d="M7.519 2.042 C 5.865 2.118,5.034 2.321,4.237 2.844 C 3.282 3.471,2.573 4.423,2.301 5.444 C 2.038 6.434,1.988 7.445,2.011 11.320 C 2.030 14.644,2.045 14.884,2.280 15.612 C 2.519 16.352,2.873 16.917,3.478 17.522 C 4.292 18.336,5.135 18.758,6.229 18.900 C 6.488 18.934,7.195 18.978,7.800 19.000 C 8.961 19.040,9.076 19.055,9.354 19.197 C 9.643 19.345,9.833 19.590,10.445 20.607 C 10.933 21.419,11.062 21.605,11.225 21.731 C 11.718 22.112,12.437 22.074,12.878 21.643 C 12.958 21.564,13.273 21.082,13.577 20.572 C 14.152 19.607,14.356 19.345,14.647 19.196 C 14.923 19.055,15.040 19.040,16.200 19.000 C 16.805 18.978,17.512 18.934,17.771 18.900 C 18.865 18.758,19.708 18.336,20.522 17.522 C 21.104 16.940,21.471 16.366,21.700 15.679 C 21.952 14.925,22.008 14.081,21.992 11.333 L 21.980 9.246 21.880 9.138 C 21.666 8.906,21.356 8.860,21.049 9.015 C 20.461 9.313,19.696 9.491,19.000 9.492 C 17.316 9.495,15.791 8.569,15.020 7.075 C 14.661 6.382,14.520 5.794,14.520 5.000 C 14.520 4.262,14.650 3.679,14.955 3.040 C 15.154 2.625,15.101 2.289,14.804 2.091 L 14.668 2.000 11.424 2.006 C 9.640 2.010,7.883 2.026,7.519 2.042 M18.460 2.057 C 17.819 2.184,17.376 2.423,16.897 2.899 C 16.589 3.204,16.505 3.318,16.347 3.640 C 16.088 4.167,16.022 4.443,16.022 5.000 C 16.022 5.557,16.088 5.833,16.347 6.360 C 16.504 6.680,16.590 6.797,16.897 7.103 C 17.203 7.410,17.320 7.496,17.640 7.653 C 18.167 7.912,18.443 7.978,19.000 7.978 C 19.557 7.978,19.833 7.912,20.360 7.653 C 20.680 7.496,20.797 7.410,21.103 7.103 C 21.410 6.797,21.496 6.680,21.653 6.360 C 21.910 5.837,21.976 5.559,21.976 5.000 C 21.976 4.441,21.910 4.163,21.653 3.640 C 21.496 3.320,21.410 3.203,21.103 2.897 C 20.797 2.590,20.680 2.504,20.360 2.347 C 20.151 2.244,19.872 2.133,19.740 2.099 C 19.395 2.010,18.795 1.991,18.460 2.057 " fill="#1C274C" stroke="none" fill-rule="evenodd"></path></svg>