<svg width="24" height="24" viewBox="0 0 24 24" fill="none" xmlns="http://www.w3.org/2000/svg"><path d="M7.519 2.042 C 5.865 2.118,5.034 2.321,4.237 2.844 C 3.282 3.471,2.573 4.423,2.301 5.444 C 2.038 6.434,1.988 7.445,2.011 11.320 C 2.030 14.644,2.045 14.884,2.280 15.612 C 2.519 16.352,2.873 16.917,3.478 17.522 C 4.292 18.336,5.135 18.758,6.229 18.900 C 6.488 18.934,7.195 18.978,7.800 19.000 C 8.961 19.040,9.076 19.055,9.354 19.197 C 9.643 19.345,9.833 19.590,10.445 20.607 C 10.933 21.419,11.062 21.605,11.225 21.731 C 11.718 22.112,12.437 22.074,12.878 21.643 C 12.958 21.564,13.273 21.082,13.577 20.572 C 14.152 19.607,14.356 19.345,14.647 19.196 C 14.923 19.055,15.040 19.040,16.200 19.000 C 17.875 18.941,18.537 18.825,19.245 18.467 C 20.171 17.998,21.052 17.109,21.485 16.208 C 21.946 15.247,21.999 14.692,21.999 10.840 C 21.998 7.283,21.948 6.383,21.698 5.441 C 21.437 4.454,20.735 3.497,19.819 2.880 C 18.985 2.317,18.200 2.126,16.374 2.041 C 15.385 1.995,8.530 1.996,7.519 2.042 M15.405 8.381 C 15.626 8.523,15.733 8.727,15.733 9.000 C 15.733 9.164,15.709 9.267,15.649 9.364 C 15.602 9.439,14.623 10.439,13.472 11.587 C 11.597 13.457,11.362 13.679,11.205 13.720 C 11.021 13.768,10.798 13.747,10.653 13.668 C 10.510 13.589,8.443 11.594,8.352 11.446 C 8.231 11.252,8.234 10.903,8.358 10.703 C 8.504 10.467,8.720 10.347,8.998 10.347 C 9.164 10.347,9.268 10.370,9.360 10.428 C 9.431 10.473,9.826 10.834,10.238 11.231 L 10.987 11.953 12.723 10.214 C 13.679 9.258,14.512 8.437,14.575 8.391 C 14.810 8.220,15.149 8.216,15.405 8.381 " fill="#1C274C" stroke="none" fill-rule="evenodd"></path></svg>