<svg width="24" height="24" viewBox="0 0 24 24" fill="none" xmlns="http://www.w3.org/2000/svg"><path d="M11.120 2.039 C 9.316 2.220,7.707 2.807,6.280 3.806 C 3.483 5.764,1.887 8.964,2.013 12.360 C 2.065 13.758,2.352 14.943,2.963 16.285 C 3.186 16.774,3.253 17.097,3.199 17.425 C 3.179 17.548,3.028 18.155,2.864 18.774 C 2.493 20.177,2.505 20.113,2.562 20.389 C 2.624 20.693,2.717 20.867,2.925 21.075 C 3.124 21.275,3.298 21.370,3.591 21.439 C 3.854 21.501,3.859 21.500,5.229 21.136 C 5.850 20.971,6.452 20.821,6.569 20.802 C 6.900 20.750,7.233 20.818,7.711 21.035 C 9.057 21.648,10.240 21.935,11.640 21.987 C 14.016 22.075,16.269 21.340,18.200 19.845 C 18.637 19.507,19.507 18.637,19.845 18.200 C 22.091 15.298,22.618 11.564,21.254 8.220 C 20.058 5.287,17.480 3.053,14.430 2.303 C 13.446 2.062,12.028 1.948,11.120 2.039 M12.405 7.381 C 12.485 7.432,12.593 7.543,12.645 7.627 L 12.740 7.780 12.740 12.007 L 12.740 16.233 12.619 16.405 C 12.453 16.641,12.273 16.739,12.000 16.739 C 11.727 16.739,11.547 16.641,11.381 16.405 L 11.260 16.233 11.260 12.007 L 11.260 7.780 11.353 7.631 C 11.586 7.256,12.044 7.147,12.405 7.381 M8.405 9.381 C 8.485 9.432,8.593 9.543,8.645 9.627 L 8.740 9.780 8.740 12.007 L 8.740 14.233 8.619 14.405 C 8.453 14.641,8.273 14.739,8.000 14.739 C 7.727 14.739,7.547 14.641,7.381 14.405 L 7.260 14.233 7.260 12.007 L 7.260 9.780 7.353 9.631 C 7.586 9.256,8.044 9.147,8.405 9.381 M16.405 9.381 C 16.485 9.432,16.593 9.543,16.645 9.627 L 16.740 9.780 16.740 12.007 L 16.740 14.233 16.619 14.405 C 16.453 14.641,16.273 14.739,16.000 14.739 C 15.727 14.739,15.547 14.641,15.381 14.405 L 15.260 14.233 15.260 12.007 L 15.260 9.780 15.353 9.631 C 15.586 9.256,16.044 9.147,16.405 9.381 " fill="#1C274C" stroke="none" fill-rule="evenodd"></path></svg>