<svg width="24" height="24" viewBox="0 0 24 24" fill="none" xmlns="http://www.w3.org/2000/svg"><path d="M11.120 2.039 C 9.315 2.220,7.707 2.807,6.280 3.806 C 3.483 5.764,1.887 8.964,2.013 12.360 C 2.065 13.758,2.352 14.943,2.963 16.285 C 3.186 16.774,3.253 17.097,3.199 17.425 C 3.179 17.548,3.028 18.155,2.864 18.774 C 2.493 20.177,2.505 20.113,2.562 20.389 C 2.624 20.693,2.717 20.867,2.925 21.075 C 3.124 21.275,3.298 21.370,3.591 21.439 C 3.854 21.501,3.859 21.500,5.229 21.136 C 5.850 20.971,6.452 20.821,6.569 20.802 C 6.900 20.750,7.233 20.818,7.711 21.035 C 9.057 21.648,10.240 21.935,11.640 21.987 C 14.016 22.075,16.269 21.340,18.200 19.845 C 18.637 19.507,19.507 18.637,19.845 18.200 C 21.745 15.745,22.423 12.710,21.738 9.732 C 21.645 9.330,21.620 9.271,21.496 9.162 C 21.311 9.000,21.107 9.000,20.701 9.162 C 18.509 10.040,16.075 9.136,15.006 7.047 C 14.622 6.295,14.496 5.696,14.531 4.785 C 14.555 4.173,14.626 3.829,14.838 3.299 C 15.032 2.814,14.987 2.538,14.686 2.383 C 14.554 2.315,13.909 2.174,13.380 2.098 C 12.889 2.027,11.581 1.993,11.120 2.039 M18.460 2.057 C 17.819 2.184,17.376 2.423,16.897 2.899 C 16.589 3.204,16.505 3.318,16.347 3.640 C 16.088 4.167,16.022 4.443,16.022 5.000 C 16.022 5.557,16.088 5.833,16.347 6.360 C 16.504 6.680,16.590 6.797,16.897 7.103 C 17.203 7.410,17.320 7.496,17.640 7.653 C 18.167 7.912,18.443 7.978,19.000 7.978 C 19.557 7.978,19.833 7.912,20.360 7.653 C 20.680 7.496,20.797 7.410,21.103 7.103 C 21.410 6.797,21.496 6.680,21.653 6.360 C 21.910 5.837,21.976 5.559,21.976 5.000 C 21.976 4.441,21.910 4.163,21.653 3.640 C 21.496 3.320,21.410 3.203,21.103 2.897 C 20.797 2.590,20.680 2.504,20.360 2.347 C 20.151 2.244,19.872 2.133,19.740 2.099 C 19.395 2.010,18.795 1.991,18.460 2.057 " fill="#1C274C" stroke="none" fill-rule="evenodd"></path></svg>