<svg width="24" height="24" viewBox="0 0 24 24" fill="none" xmlns="http://www.w3.org/2000/svg"><path d="M11.120 2.039 C 9.316 2.220,7.707 2.807,6.280 3.806 C 3.483 5.764,1.887 8.964,2.013 12.360 C 2.065 13.758,2.352 14.943,2.963 16.285 C 3.186 16.774,3.253 17.097,3.199 17.425 C 3.179 17.548,3.028 18.155,2.864 18.774 C 2.493 20.177,2.505 20.113,2.562 20.389 C 2.624 20.693,2.717 20.867,2.925 21.075 C 3.124 21.275,3.298 21.370,3.591 21.439 C 3.854 21.501,3.859 21.500,5.229 21.136 C 5.850 20.971,6.452 20.821,6.569 20.802 C 6.900 20.750,7.233 20.818,7.711 21.035 C 9.057 21.648,10.240 21.935,11.640 21.987 C 14.016 22.075,16.269 21.340,18.200 19.845 C 18.637 19.507,19.507 18.637,19.845 18.200 C 22.091 15.298,22.618 11.564,21.254 8.220 C 20.058 5.287,17.480 3.053,14.430 2.303 C 13.446 2.062,12.028 1.948,11.120 2.039 M10.599 8.062 C 11.080 8.176,12.005 8.683,13.940 9.894 C 15.102 10.621,15.628 11.056,15.860 11.480 C 15.963 11.669,15.980 11.742,15.980 12.000 C 15.980 12.258,15.963 12.331,15.860 12.520 C 15.569 13.052,14.920 13.531,12.585 14.938 C 10.976 15.908,10.403 16.119,9.870 15.937 C 9.624 15.853,9.358 15.566,9.244 15.261 C 9.046 14.733,9.023 14.393,9.023 12.000 C 9.023 9.610,9.046 9.267,9.243 8.742 C 9.410 8.296,9.777 8.013,10.200 8.004 C 10.277 8.002,10.456 8.029,10.599 8.062 " fill="#1C274C" stroke="none" fill-rule="evenodd"></path></svg>