<svg width="24" height="24" viewBox="0 0 24 24" fill="none" xmlns="http://www.w3.org/2000/svg"><path d="M11.120 2.039 C 9.316 2.220,7.707 2.807,6.280 3.806 C 3.483 5.764,1.887 8.964,2.013 12.360 C 2.065 13.758,2.352 14.943,2.963 16.285 C 3.186 16.774,3.253 17.097,3.199 17.425 C 3.179 17.548,3.028 18.155,2.864 18.774 C 2.493 20.177,2.505 20.113,2.562 20.389 C 2.624 20.693,2.717 20.867,2.925 21.075 C 3.124 21.275,3.298 21.370,3.591 21.439 C 3.854 21.501,3.859 21.500,5.229 21.136 C 5.850 20.971,6.452 20.821,6.569 20.802 C 6.900 20.750,7.233 20.818,7.711 21.035 C 9.057 21.648,10.240 21.935,11.640 21.987 C 14.016 22.075,16.269 21.340,18.200 19.845 C 18.637 19.507,19.507 18.637,19.845 18.200 C 22.091 15.298,22.618 11.564,21.254 8.220 C 20.058 5.287,17.480 3.053,14.430 2.303 C 13.446 2.062,12.028 1.948,11.120 2.039 M15.405 9.381 C 15.626 9.523,15.733 9.727,15.733 10.000 C 15.733 10.164,15.709 10.267,15.649 10.364 C 15.602 10.439,14.623 11.439,13.472 12.587 C 11.597 14.457,11.362 14.679,11.205 14.720 C 11.021 14.768,10.798 14.747,10.653 14.668 C 10.510 14.589,8.443 12.594,8.352 12.446 C 8.231 12.252,8.234 11.903,8.358 11.703 C 8.504 11.467,8.720 11.347,8.998 11.347 C 9.164 11.347,9.268 11.370,9.360 11.428 C 9.431 11.473,9.826 11.834,10.238 12.231 L 10.987 12.953 12.723 11.214 C 13.679 10.258,14.512 9.437,14.575 9.391 C 14.810 9.220,15.149 9.216,15.405 9.381 " fill="#1C274C" stroke="none" fill-rule="evenodd"></path></svg>