<svg width="24" height="24" viewBox="0 0 24 24" fill="none" xmlns="http://www.w3.org/2000/svg"><path d="M11.120 2.039 C 9.316 2.220,7.707 2.807,6.280 3.806 C 3.483 5.764,1.887 8.964,2.013 12.360 C 2.065 13.758,2.352 14.943,2.963 16.285 C 3.186 16.774,3.253 17.097,3.199 17.425 C 3.179 17.548,3.028 18.155,2.864 18.774 C 2.493 20.177,2.505 20.113,2.562 20.389 C 2.624 20.693,2.717 20.867,2.925 21.075 C 3.124 21.275,3.298 21.370,3.591 21.439 C 3.854 21.501,3.859 21.500,5.229 21.136 C 5.850 20.971,6.452 20.821,6.569 20.802 C 6.900 20.750,7.233 20.818,7.711 21.035 C 9.057 21.648,10.240 21.935,11.640 21.987 C 14.016 22.075,16.269 21.340,18.200 19.845 C 18.637 19.507,19.507 18.637,19.845 18.200 C 22.091 15.298,22.618 11.564,21.254 8.220 C 20.058 5.287,17.480 3.053,14.430 2.303 C 13.446 2.062,12.028 1.948,11.120 2.039 M10.479 8.521 C 10.951 8.679,11.287 8.877,11.749 9.269 L 12.000 9.482 12.251 9.269 C 12.897 8.721,13.464 8.459,14.100 8.414 C 15.420 8.320,16.400 9.327,16.469 10.849 C 16.501 11.546,16.391 11.988,16.028 12.620 C 15.607 13.353,14.738 14.312,13.762 15.119 C 12.887 15.844,12.615 15.976,12.000 15.976 C 11.386 15.976,11.107 15.840,10.254 15.130 C 8.736 13.866,7.850 12.729,7.594 11.714 C 7.483 11.277,7.504 10.528,7.639 10.100 C 7.862 9.395,8.274 8.873,8.807 8.620 C 8.971 8.542,9.184 8.462,9.282 8.441 C 9.566 8.381,10.184 8.422,10.479 8.521 " fill="#1C274C" stroke="none" fill-rule="evenodd"></path></svg>