<svg width="24" height="24" viewBox="0 0 24 24" fill="none" xmlns="http://www.w3.org/2000/svg"><path d="M7.519 2.042 C 5.865 2.118,5.034 2.321,4.237 2.844 C 3.282 3.471,2.573 4.423,2.301 5.444 C 2.038 6.434,1.988 7.445,2.011 11.320 C 2.030 14.644,2.045 14.884,2.280 15.612 C 2.519 16.352,2.873 16.917,3.478 17.522 C 4.292 18.336,5.135 18.758,6.229 18.900 C 6.488 18.934,7.195 18.978,7.800 19.000 C 8.961 19.040,9.076 19.055,9.354 19.197 C 9.643 19.345,9.833 19.590,10.445 20.607 C 10.933 21.419,11.062 21.605,11.225 21.731 C 11.718 22.112,12.437 22.074,12.878 21.643 C 12.958 21.564,13.273 21.082,13.577 20.572 C 14.152 19.607,14.356 19.345,14.647 19.196 C 14.923 19.055,15.040 19.040,16.200 19.000 C 17.875 18.941,18.537 18.825,19.245 18.467 C 20.171 17.998,21.052 17.109,21.485 16.208 C 21.946 15.247,21.999 14.692,21.999 10.840 C 21.998 7.283,21.948 6.383,21.698 5.441 C 21.437 4.454,20.735 3.497,19.819 2.880 C 18.985 2.317,18.200 2.126,16.374 2.041 C 15.385 1.995,8.530 1.996,7.519 2.042 M12.405 6.381 C 12.485 6.432,12.593 6.543,12.645 6.627 L 12.740 6.780 12.740 11.007 L 12.740 15.233 12.619 15.405 C 12.453 15.641,12.273 15.739,12.000 15.739 C 11.727 15.739,11.547 15.641,11.381 15.405 L 11.260 15.233 11.260 11.007 L 11.260 6.780 11.353 6.631 C 11.586 6.256,12.044 6.147,12.405 6.381 M8.405 8.381 C 8.485 8.432,8.593 8.543,8.645 8.627 L 8.740 8.780 8.740 11.007 L 8.740 13.233 8.619 13.405 C 8.453 13.641,8.273 13.739,8.000 13.739 C 7.727 13.739,7.547 13.641,7.381 13.405 L 7.260 13.233 7.260 11.007 L 7.260 8.780 7.353 8.631 C 7.586 8.256,8.044 8.147,8.405 8.381 M16.405 8.381 C 16.485 8.432,16.593 8.543,16.645 8.627 L 16.740 8.780 16.740 11.007 L 16.740 13.233 16.619 13.405 C 16.453 13.641,16.273 13.739,16.000 13.739 C 15.727 13.739,15.547 13.641,15.381 13.405 L 15.260 13.233 15.260 11.007 L 15.260 8.780 15.353 8.631 C 15.586 8.256,16.044 8.147,16.405 8.381 " fill="#1C274C" stroke="none" fill-rule="evenodd"></path></svg>