<svg width="24" height="24" viewBox="0 0 24 24" fill="none" xmlns="http://www.w3.org/2000/svg"><path d="M12.867 1.058 C 12.684 1.123,12.811 1.015,11.337 2.369 C 10.100 3.505,10.000 3.619,10.000 3.900 C 10.000 4.182,10.098 4.294,11.375 5.468 C 12.060 6.098,12.673 6.646,12.739 6.685 C 13.228 6.983,13.920 6.615,13.920 6.057 C 13.920 5.809,13.807 5.653,13.260 5.148 L 12.731 4.660 13.115 4.647 C 13.630 4.630,15.291 4.710,15.917 4.782 C 17.213 4.932,17.659 5.109,18.312 5.736 C 19.101 6.493,19.317 7.106,19.400 8.829 C 19.421 9.264,19.439 10.027,19.439 10.524 C 19.440 11.392,19.444 11.434,19.533 11.603 C 19.666 11.856,19.976 12.016,20.272 11.987 C 20.526 11.961,20.690 11.872,20.856 11.666 L 20.980 11.513 20.993 10.646 C 21.009 9.614,20.944 8.112,20.858 7.535 C 20.731 6.676,20.535 6.129,20.145 5.542 C 19.641 4.782,18.684 3.995,17.929 3.719 C 17.055 3.399,15.385 3.202,13.520 3.200 C 13.135 3.199,12.799 3.185,12.773 3.169 C 12.743 3.150,12.917 2.964,13.257 2.653 C 13.849 2.110,13.939 1.975,13.911 1.676 C 13.886 1.418,13.747 1.222,13.502 1.099 C 13.282 0.989,13.095 0.977,12.867 1.058 M6.840 4.025 C 5.406 4.096,4.745 4.270,3.981 4.778 C 3.376 5.181,2.731 5.924,2.466 6.524 C 2.078 7.399,2.000 8.306,2.000 11.940 C 2.000 14.475,2.030 15.281,2.144 15.832 C 2.394 17.043,3.234 18.147,4.370 18.760 C 5.038 19.120,5.546 19.224,6.900 19.278 C 8.158 19.329,8.335 19.347,8.571 19.449 C 8.852 19.569,9.062 19.831,9.586 20.714 C 10.120 21.613,10.317 21.840,10.645 21.938 C 10.760 21.972,10.932 22.000,11.026 22.000 C 11.265 22.000,11.603 21.864,11.772 21.700 C 11.850 21.624,12.133 21.197,12.401 20.751 C 12.954 19.831,13.096 19.640,13.332 19.504 C 13.573 19.365,13.839 19.326,14.720 19.300 C 16.236 19.254,16.788 19.164,17.427 18.862 C 17.941 18.618,18.336 18.335,18.729 17.927 C 19.559 17.066,19.942 16.133,19.971 14.908 C 19.980 14.527,19.978 14.520,19.860 14.402 C 19.768 14.310,19.556 14.216,18.960 14.006 C 16.557 13.157,14.660 12.241,13.420 11.332 C 12.947 10.985,11.955 9.983,11.487 9.380 C 11.025 8.785,10.240 7.609,9.791 6.840 C 9.502 6.345,9.030 5.461,8.511 4.444 C 8.307 4.046,8.255 4.021,7.627 4.016 C 7.337 4.014,6.983 4.018,6.840 4.025 " fill="#1C274C" stroke="none" fill-rule="evenodd"></path></svg>