<svg width="24" height="24" viewBox="0 0 24 24" fill="none" xmlns="http://www.w3.org/2000/svg"><path d="M7.519 2.042 C 5.865 2.118,5.034 2.321,4.237 2.844 C 3.282 3.471,2.573 4.423,2.301 5.444 C 2.038 6.434,1.988 7.445,2.011 11.320 C 2.030 14.644,2.045 14.884,2.280 15.612 C 2.519 16.352,2.873 16.917,3.478 17.522 C 4.292 18.336,5.135 18.758,6.229 18.900 C 6.488 18.934,7.195 18.978,7.800 19.000 C 8.961 19.040,9.076 19.055,9.354 19.197 C 9.643 19.345,9.833 19.590,10.445 20.607 C 10.933 21.419,11.062 21.605,11.225 21.731 C 11.718 22.112,12.437 22.074,12.878 21.643 C 12.958 21.564,13.273 21.082,13.577 20.572 C 14.152 19.607,14.356 19.345,14.647 19.196 C 14.923 19.055,15.040 19.040,16.200 19.000 C 17.875 18.941,18.537 18.825,19.245 18.467 C 20.171 17.998,21.052 17.109,21.485 16.208 C 21.946 15.247,21.999 14.692,21.999 10.840 C 21.998 7.283,21.948 6.383,21.698 5.441 C 21.437 4.454,20.735 3.497,19.819 2.880 C 18.985 2.317,18.200 2.126,16.374 2.041 C 15.385 1.995,8.530 1.996,7.519 2.042 M13.491 5.282 C 13.828 5.376,14.075 5.749,14.026 6.090 C 14.013 6.184,13.416 8.447,12.699 11.119 C 11.667 14.967,11.374 16.006,11.295 16.110 C 10.899 16.630,10.044 16.398,9.971 15.750 C 9.956 15.613,10.211 14.608,11.255 10.700 C 11.973 8.016,12.598 5.743,12.645 5.650 C 12.731 5.480,12.904 5.342,13.111 5.280 C 13.263 5.234,13.318 5.234,13.491 5.282 M8.830 7.165 C 9.153 7.321,9.329 7.767,9.196 8.090 C 9.167 8.161,8.829 8.544,8.446 8.940 C 7.320 10.102,7.051 10.487,7.089 10.880 C 7.127 11.277,7.356 11.589,8.370 12.625 C 8.810 13.075,9.145 13.451,9.180 13.535 C 9.385 14.024,9.039 14.560,8.515 14.567 C 8.206 14.572,8.119 14.508,7.294 13.668 C 5.883 12.233,5.568 11.681,5.610 10.720 C 5.647 9.852,5.974 9.329,7.383 7.884 C 7.760 7.496,8.069 7.214,8.172 7.163 C 8.387 7.057,8.608 7.058,8.830 7.165 M15.826 7.163 C 15.935 7.215,16.225 7.480,16.625 7.893 C 17.681 8.980,18.031 9.431,18.252 9.994 C 18.351 10.245,18.376 10.375,18.390 10.720 C 18.432 11.681,18.117 12.233,16.706 13.668 C 15.881 14.508,15.794 14.572,15.485 14.567 C 14.961 14.560,14.615 14.024,14.820 13.535 C 14.854 13.452,15.184 13.082,15.610 12.646 C 16.622 11.614,16.873 11.272,16.911 10.880 C 16.949 10.487,16.687 10.113,15.553 8.940 C 15.170 8.544,14.833 8.161,14.804 8.090 C 14.772 8.012,14.758 7.879,14.769 7.761 C 14.819 7.236,15.353 6.934,15.826 7.163 " fill="#1C274C" stroke="none" fill-rule="evenodd"></path></svg>