<svg width="24" height="24" viewBox="0 0 24 24" fill="none" xmlns="http://www.w3.org/2000/svg"><path d="M11.120 2.039 C 9.316 2.220,7.707 2.807,6.280 3.806 C 3.483 5.764,1.887 8.964,2.013 12.360 C 2.065 13.758,2.352 14.943,2.963 16.285 C 3.186 16.774,3.253 17.097,3.199 17.425 C 3.179 17.548,3.028 18.155,2.864 18.774 C 2.493 20.177,2.505 20.113,2.562 20.389 C 2.624 20.693,2.717 20.867,2.925 21.075 C 3.124 21.275,3.298 21.370,3.591 21.439 C 3.854 21.501,3.859 21.500,5.229 21.136 C 5.850 20.971,6.452 20.821,6.569 20.802 C 6.900 20.750,7.233 20.818,7.711 21.035 C 9.057 21.648,10.240 21.935,11.640 21.987 C 14.016 22.075,16.269 21.340,18.200 19.845 C 18.637 19.507,19.507 18.637,19.845 18.200 C 22.091 15.298,22.618 11.564,21.254 8.220 C 20.058 5.287,17.480 3.053,14.430 2.303 C 13.446 2.062,12.028 1.948,11.120 2.039 M8.040 11.003 C 8.768 11.332,8.909 12.296,8.306 12.826 C 7.609 13.440,6.521 12.937,6.521 12.000 C 6.521 11.379,6.978 10.922,7.600 10.922 C 7.776 10.922,7.918 10.948,8.040 11.003 M12.440 11.003 C 13.168 11.332,13.309 12.296,12.706 12.826 C 12.009 13.440,10.921 12.937,10.921 12.000 C 10.921 11.379,11.378 10.922,12.000 10.922 C 12.176 10.922,12.318 10.948,12.440 11.003 M16.840 11.003 C 17.568 11.332,17.709 12.296,17.106 12.826 C 16.409 13.440,15.321 12.937,15.321 12.000 C 15.321 11.379,15.778 10.922,16.400 10.922 C 16.576 10.922,16.718 10.948,16.840 11.003 " fill="#1C274C" stroke="none" fill-rule="evenodd"></path></svg>