<svg width="24" height="24" viewBox="0 0 24 24" fill="none" xmlns="http://www.w3.org/2000/svg"><path d="M8.419 2.043 C 5.807 2.139,4.481 2.507,3.549 3.393 C 2.551 4.342,2.166 5.587,2.041 8.260 C 1.988 9.399,1.988 14.601,2.041 15.740 C 2.160 18.285,2.507 19.501,3.379 20.433 C 4.326 21.446,5.580 21.837,8.280 21.959 C 9.445 22.011,14.555 22.011,15.720 21.959 C 18.275 21.843,19.498 21.496,20.433 20.621 C 21.360 19.755,21.742 18.682,21.927 16.420 C 22.002 15.512,22.002 8.488,21.927 7.580 C 21.743 5.332,21.366 4.263,20.451 3.393 C 19.495 2.484,18.240 2.146,15.417 2.041 C 14.194 1.995,9.686 1.997,8.419 2.043 M10.405 6.381 C 10.627 6.524,10.733 6.726,10.733 7.003 C 10.733 7.187,10.712 7.268,10.630 7.388 C 10.574 7.472,9.885 8.215,9.100 9.040 C 7.396 10.830,7.313 10.891,6.859 10.685 C 6.692 10.609,5.511 9.417,5.349 9.161 C 5.225 8.965,5.235 8.612,5.371 8.407 C 5.525 8.174,5.723 8.067,6.000 8.067 C 6.297 8.067,6.430 8.149,6.829 8.583 L 7.140 8.920 8.300 7.696 C 8.938 7.023,9.512 6.436,9.575 6.390 C 9.812 6.220,10.150 6.216,10.405 6.381 M18.388 8.367 C 18.628 8.526,18.733 8.721,18.733 9.007 C 18.733 9.203,18.714 9.271,18.616 9.409 C 18.552 9.501,18.436 9.613,18.359 9.658 C 18.223 9.738,18.169 9.740,15.500 9.740 C 12.831 9.740,12.777 9.738,12.641 9.658 C 12.564 9.613,12.448 9.501,12.384 9.409 C 12.098 9.003,12.329 8.396,12.815 8.277 C 12.884 8.261,14.129 8.250,15.583 8.253 L 18.226 8.260 18.388 8.367 M10.405 13.381 C 10.627 13.524,10.733 13.726,10.733 14.003 C 10.733 14.187,10.712 14.268,10.630 14.388 C 10.574 14.472,9.885 15.215,9.100 16.040 C 7.396 17.830,7.313 17.891,6.859 17.685 C 6.692 17.609,5.511 16.417,5.349 16.161 C 5.225 15.965,5.235 15.612,5.371 15.407 C 5.525 15.174,5.723 15.067,6.000 15.067 C 6.297 15.067,6.430 15.149,6.829 15.583 L 7.140 15.920 8.300 14.696 C 8.938 14.023,9.512 13.436,9.575 13.390 C 9.812 13.220,10.150 13.216,10.405 13.381 M18.388 15.367 C 18.628 15.526,18.733 15.721,18.733 16.007 C 18.733 16.203,18.714 16.271,18.616 16.409 C 18.552 16.501,18.436 16.613,18.359 16.658 C 18.223 16.738,18.169 16.740,15.500 16.740 C 12.831 16.740,12.777 16.738,12.641 16.658 C 12.564 16.613,12.448 16.501,12.384 16.409 C 12.098 16.003,12.329 15.396,12.815 15.277 C 12.884 15.261,14.129 15.250,15.583 15.253 L 18.226 15.260 18.388 15.367 " fill="#1C274C" stroke="none" fill-rule="evenodd"></path></svg>