<svg width="24" height="24" viewBox="0 0 24 24" fill="none" xmlns="http://www.w3.org/2000/svg"><path d="M8.419 2.043 C 5.807 2.139,4.481 2.507,3.549 3.393 C 2.551 4.342,2.166 5.587,2.041 8.260 C 1.988 9.399,1.988 14.601,2.041 15.740 C 2.160 18.285,2.507 19.501,3.379 20.433 C 4.326 21.446,5.580 21.837,8.280 21.959 C 9.445 22.011,14.555 22.011,15.720 21.959 C 18.275 21.843,19.498 21.496,20.433 20.621 C 21.360 19.755,21.742 18.682,21.927 16.420 C 22.002 15.512,22.002 8.488,21.927 7.580 C 21.743 5.332,21.366 4.263,20.451 3.393 C 19.495 2.484,18.240 2.146,15.417 2.041 C 14.194 1.995,9.686 1.997,8.419 2.043 M14.416 8.393 C 14.710 8.594,14.820 9.005,14.666 9.320 C 14.546 9.564,8.794 16.568,8.640 16.658 C 8.453 16.766,8.109 16.767,7.926 16.659 C 7.783 16.574,5.475 13.781,5.342 13.532 C 5.174 13.216,5.283 12.801,5.592 12.583 C 5.819 12.423,6.162 12.417,6.388 12.569 C 6.472 12.625,6.927 13.149,7.400 13.733 C 7.873 14.317,8.272 14.792,8.287 14.788 C 8.302 14.783,9.459 13.376,10.858 11.660 C 12.257 9.944,13.463 8.489,13.538 8.426 C 13.787 8.215,14.138 8.202,14.416 8.393 M18.416 8.393 C 18.710 8.594,18.820 9.005,18.666 9.320 C 18.546 9.564,12.794 16.568,12.640 16.658 C 12.546 16.712,12.429 16.739,12.280 16.739 C 11.961 16.739,11.801 16.625,11.521 16.198 C 11.271 15.818,11.217 15.629,11.285 15.378 C 11.382 15.021,11.651 14.827,12.042 14.832 L 12.269 14.835 14.877 11.641 C 16.311 9.884,17.533 8.415,17.592 8.376 C 17.838 8.215,18.166 8.221,18.416 8.393 " fill="#1C274C" stroke="none" fill-rule="evenodd"></path></svg>