<svg width="24" height="24" viewBox="0 0 24 24" fill="none" xmlns="http://www.w3.org/2000/svg"><path d="M17.200 7.343 C 17.088 7.406,15.722 8.742,13.560 10.902 L 10.100 14.360 8.520 12.777 C 7.614 11.870,6.872 11.158,6.780 11.110 C 6.554 10.990,6.122 10.989,5.897 11.108 C 5.497 11.320,5.267 11.778,5.357 12.183 C 5.383 12.298,5.456 12.471,5.520 12.566 C 5.583 12.662,6.505 13.607,7.568 14.667 C 9.022 16.118,9.545 16.615,9.680 16.677 C 9.920 16.785,10.279 16.786,10.520 16.677 C 10.778 16.562,18.397 8.954,18.550 8.660 C 18.672 8.425,18.690 8.067,18.591 7.837 C 18.503 7.630,18.302 7.418,18.106 7.323 C 17.850 7.199,17.438 7.208,17.200 7.343 " fill="#1C274C" stroke="none" fill-rule="evenodd"></path></svg>