<svg width="24" height="24" viewBox="0 0 24 24" fill="none" xmlns="http://www.w3.org/2000/svg"><path d="M11.120 2.039 C 9.316 2.220,7.707 2.807,6.280 3.806 C 2.738 6.286,1.178 10.759,2.422 14.865 C 2.918 16.499,3.728 17.850,4.939 19.061 C 5.928 20.050,7.038 20.788,8.272 21.278 C 11.634 22.610,15.313 22.080,18.200 19.845 C 18.637 19.507,19.507 18.637,19.845 18.200 C 21.255 16.379,22.000 14.234,22.000 12.000 C 22.000 7.432,18.842 3.387,14.430 2.303 C 13.446 2.062,12.028 1.948,11.120 2.039 M15.790 8.822 C 15.988 8.904,16.077 8.990,16.165 9.180 C 16.259 9.385,16.258 9.617,16.163 9.820 C 16.057 10.046,10.997 15.094,10.791 15.179 C 10.602 15.257,10.398 15.257,10.209 15.179 C 10.006 15.095,7.940 13.041,7.837 12.820 C 7.711 12.552,7.759 12.202,7.952 11.986 C 8.052 11.873,8.318 11.762,8.491 11.761 C 8.780 11.759,8.915 11.858,9.720 12.661 L 10.500 13.440 12.760 11.176 C 14.285 9.649,15.072 8.887,15.180 8.837 C 15.375 8.745,15.594 8.740,15.790 8.822 " fill="#1C274C" stroke="none" fill-rule="evenodd"></path></svg>