<svg width="24" height="24" viewBox="0 0 24 24" fill="none" xmlns="http://www.w3.org/2000/svg"><path d="M8.419 2.041 C 5.785 2.145,4.480 2.507,3.549 3.393 C 2.551 4.342,2.166 5.587,2.041 8.260 C 1.988 9.399,1.988 14.601,2.041 15.740 C 2.160 18.285,2.507 19.501,3.379 20.433 C 4.245 21.360,5.318 21.742,7.580 21.927 C 8.488 22.002,15.512 22.002,16.420 21.927 C 18.857 21.727,19.992 21.275,20.860 20.157 C 21.474 19.368,21.771 18.329,21.927 16.420 C 22.002 15.512,22.002 8.488,21.927 7.580 C 21.740 5.297,21.356 4.232,20.407 3.355 C 19.572 2.585,18.492 2.242,16.380 2.078 C 15.684 2.023,9.573 1.995,8.419 2.041 M15.790 8.822 C 15.988 8.904,16.077 8.990,16.165 9.180 C 16.259 9.385,16.258 9.617,16.163 9.820 C 16.057 10.046,10.997 15.094,10.791 15.179 C 10.602 15.257,10.398 15.257,10.209 15.179 C 10.006 15.095,7.940 13.041,7.837 12.820 C 7.711 12.552,7.759 12.202,7.952 11.986 C 8.052 11.873,8.318 11.762,8.491 11.761 C 8.780 11.759,8.915 11.858,9.720 12.661 L 10.500 13.440 12.760 11.176 C 14.285 9.649,15.072 8.887,15.180 8.837 C 15.375 8.745,15.594 8.740,15.790 8.822 " fill="#1C274C" stroke="none" fill-rule="evenodd"></path></svg>