<svg width="24" height="24" viewBox="0 0 24 24" fill="none" xmlns="http://www.w3.org/2000/svg"><path d="M17.460 7.238 C 17.394 7.255,17.286 7.291,17.220 7.317 C 17.150 7.344,15.641 8.822,13.590 10.872 L 10.080 14.380 8.470 12.771 C 7.324 11.627,6.815 11.144,6.704 11.098 C 6.618 11.063,6.442 11.034,6.313 11.035 C 5.597 11.038,5.132 11.810,5.470 12.434 C 5.626 12.723,9.453 16.573,9.691 16.682 C 9.919 16.785,10.284 16.783,10.520 16.677 C 10.778 16.562,18.397 8.954,18.550 8.660 C 18.807 8.165,18.574 7.511,18.063 7.299 C 17.893 7.228,17.604 7.199,17.460 7.238 " fill="#1C274C" stroke="none" fill-rule="evenodd"></path></svg>