<svg width="24" height="24" viewBox="0 0 24 24" fill="none" xmlns="http://www.w3.org/2000/svg"><path d="M7.340 2.277 C 7.274 2.293,7.179 2.328,7.128 2.356 C 7.077 2.383,6.199 3.187,5.176 4.143 C 4.153 5.098,3.303 5.879,3.288 5.878 C 3.273 5.878,3.166 5.756,3.052 5.608 C 2.699 5.154,2.430 4.872,2.293 4.815 C 1.998 4.691,1.665 4.770,1.451 5.014 C 1.227 5.269,1.195 5.578,1.362 5.870 C 1.526 6.155,2.734 7.598,2.858 7.656 C 3.087 7.765,3.292 7.776,3.485 7.691 C 3.605 7.637,4.250 7.062,5.560 5.841 C 7.909 3.652,8.115 3.452,8.184 3.291 C 8.251 3.138,8.256 2.889,8.197 2.733 C 8.076 2.411,7.673 2.197,7.340 2.277 M11.811 4.279 C 11.536 4.345,11.316 4.587,11.260 4.885 C 11.197 5.220,11.450 5.624,11.781 5.715 C 12.006 5.778,21.994 5.778,22.219 5.715 C 22.431 5.657,22.660 5.422,22.719 5.204 C 22.808 4.873,22.689 4.566,22.394 4.372 L 22.226 4.260 17.083 4.254 C 14.254 4.250,11.882 4.261,11.811 4.279 M7.340 9.277 C 7.274 9.293,7.179 9.328,7.128 9.356 C 7.077 9.383,6.199 10.187,5.176 11.143 C 4.153 12.098,3.303 12.879,3.288 12.878 C 3.273 12.878,3.166 12.756,3.052 12.608 C 2.699 12.154,2.430 11.872,2.293 11.815 C 1.998 11.691,1.665 11.770,1.451 12.014 C 1.227 12.269,1.195 12.578,1.362 12.870 C 1.526 13.155,2.734 14.598,2.858 14.656 C 3.087 14.765,3.292 14.776,3.485 14.691 C 3.605 14.637,4.250 14.062,5.560 12.841 C 7.909 10.652,8.115 10.452,8.184 10.291 C 8.251 10.138,8.256 9.889,8.197 9.733 C 8.076 9.411,7.673 9.197,7.340 9.277 M11.811 11.279 C 11.536 11.345,11.316 11.587,11.260 11.885 C 11.197 12.220,11.450 12.624,11.781 12.715 C 12.006 12.778,21.994 12.778,22.219 12.715 C 22.431 12.657,22.660 12.422,22.719 12.204 C 22.808 11.873,22.689 11.566,22.394 11.372 L 22.226 11.260 17.083 11.254 C 14.254 11.250,11.882 11.261,11.811 11.279 M7.340 16.277 C 7.274 16.293,7.179 16.328,7.128 16.356 C 7.077 16.383,6.199 17.187,5.176 18.143 C 4.153 19.098,3.303 19.879,3.288 19.878 C 3.273 19.878,3.166 19.756,3.052 19.608 C 2.699 19.154,2.430 18.872,2.293 18.815 C 1.998 18.691,1.665 18.770,1.451 19.014 C 1.227 19.269,1.195 19.578,1.362 19.870 C 1.526 20.155,2.734 21.598,2.858 21.656 C 3.087 21.765,3.292 21.776,3.485 21.691 C 3.605 21.637,4.250 21.062,5.560 19.841 C 7.909 17.652,8.115 17.452,8.184 17.291 C 8.251 17.138,8.256 16.889,8.197 16.733 C 8.076 16.411,7.673 16.197,7.340 16.277 M11.811 18.279 C 11.536 18.345,11.316 18.587,11.260 18.885 C 11.197 19.220,11.450 19.624,11.781 19.715 C 12.006 19.778,21.994 19.778,22.219 19.715 C 22.431 19.657,22.660 19.422,22.719 19.204 C 22.808 18.873,22.689 18.566,22.394 18.372 L 22.226 18.260 17.083 18.254 C 14.254 18.250,11.882 18.261,11.811 18.279 " fill="#1C274C" stroke="none" fill-rule="evenodd"></path></svg>