<svg width="24" height="24" viewBox="0 0 24 24" fill="none" xmlns="http://www.w3.org/2000/svg"><path d="M11.381 2.045 C 10.465 2.178,9.587 2.604,8.897 3.248 C 8.455 3.662,7.951 4.417,7.801 4.891 L 7.753 5.043 7.306 5.016 C 6.431 4.964,5.612 5.129,4.820 5.517 C 3.568 6.131,2.668 7.162,2.246 8.465 C 2.060 9.039,2.020 9.321,2.022 10.040 C 2.024 10.619,2.037 10.753,2.131 11.131 C 2.317 11.874,2.644 12.552,3.083 13.104 C 3.514 13.645,4.220 14.219,4.762 14.467 L 5.000 14.577 5.000 15.908 L 5.000 17.240 12.000 17.240 L 19.000 17.240 19.000 15.908 L 19.000 14.577 19.238 14.467 C 19.602 14.300,20.047 13.986,20.420 13.633 C 21.153 12.939,21.618 12.136,21.869 11.131 C 21.964 10.747,21.976 10.624,21.977 10.000 C 21.978 9.370,21.967 9.257,21.869 8.869 C 21.676 8.102,21.373 7.472,20.926 6.912 C 19.898 5.624,18.325 4.919,16.694 5.016 L 16.247 5.043 16.199 4.891 C 16.119 4.638,15.818 4.098,15.582 3.785 C 14.623 2.510,12.949 1.816,11.381 2.045 M5.018 19.369 C 5.103 21.153,5.458 21.679,6.740 21.914 C 7.062 21.973,7.619 21.980,12.000 21.980 C 16.381 21.980,16.938 21.973,17.260 21.914 C 17.910 21.795,18.273 21.607,18.545 21.250 C 18.815 20.897,18.934 20.384,18.982 19.369 L 19.011 18.760 12.000 18.760 L 4.989 18.760 5.018 19.369 " fill="#1C274C" stroke="none" fill-rule="evenodd"></path></svg>