<svg width="24" height="24" viewBox="0 0 24 24" fill="none" xmlns="http://www.w3.org/2000/svg"><path d="M11.381 2.045 C 10.465 2.178,9.587 2.604,8.897 3.248 C 8.455 3.662,7.951 4.417,7.801 4.891 L 7.753 5.043 7.306 5.016 C 6.431 4.964,5.612 5.129,4.820 5.517 C 3.568 6.131,2.668 7.162,2.246 8.465 C 2.060 9.039,2.020 9.321,2.022 10.040 C 2.024 10.619,2.037 10.753,2.131 11.131 C 2.317 11.874,2.644 12.552,3.083 13.104 C 3.513 13.644,4.220 14.219,4.759 14.466 L 4.994 14.574 5.011 17.317 C 5.026 19.913,5.031 20.080,5.110 20.428 C 5.307 21.304,5.749 21.725,6.660 21.908 C 6.995 21.975,7.361 21.980,12.000 21.980 C 16.639 21.980,17.005 21.975,17.340 21.908 C 18.251 21.725,18.693 21.304,18.890 20.428 C 18.969 20.080,18.974 19.913,18.989 17.317 L 19.006 14.574 19.241 14.466 C 19.602 14.300,20.048 13.985,20.420 13.633 C 21.153 12.939,21.618 12.136,21.869 11.131 C 21.964 10.747,21.976 10.624,21.977 10.000 C 21.978 9.370,21.967 9.257,21.869 8.869 C 21.676 8.102,21.373 7.472,20.926 6.912 C 19.898 5.624,18.325 4.919,16.694 5.016 L 16.247 5.043 16.199 4.891 C 16.119 4.638,15.818 4.098,15.582 3.785 C 14.623 2.510,12.949 1.816,11.381 2.045 M15.388 17.367 C 15.628 17.526,15.733 17.721,15.733 18.007 C 15.733 18.203,15.714 18.271,15.616 18.409 C 15.552 18.501,15.436 18.613,15.359 18.658 C 15.222 18.739,15.173 18.740,12.000 18.740 C 8.827 18.740,8.778 18.739,8.641 18.658 C 8.564 18.613,8.448 18.501,8.384 18.409 C 8.098 18.003,8.330 17.395,8.815 17.278 C 8.884 17.261,10.354 17.250,12.083 17.254 L 15.226 17.260 15.388 17.367 " fill="#1C274C" stroke="none" fill-rule="evenodd"></path></svg>