<svg width="24" height="24" viewBox="0 0 24 24" fill="none" xmlns="http://www.w3.org/2000/svg"><path d="M14.935 2.077 C 14.845 2.118,14.724 2.212,14.668 2.286 C 14.569 2.416,14.472 2.721,14.500 2.815 C 14.507 2.840,14.524 2.909,14.537 2.969 C 14.567 3.105,14.771 3.342,14.936 3.432 C 15.048 3.493,15.278 3.501,17.238 3.512 L 19.416 3.523 15.992 6.952 C 12.669 10.279,12.567 10.386,12.528 10.571 C 12.489 10.766,12.511 10.954,12.592 11.105 C 12.661 11.234,12.909 11.436,13.031 11.463 C 13.091 11.476,13.160 11.493,13.184 11.500 C 13.208 11.507,13.316 11.495,13.424 11.473 C 13.616 11.433,13.693 11.359,17.048 8.008 L 20.477 4.584 20.488 6.762 C 20.499 8.722,20.507 8.952,20.568 9.064 C 20.658 9.229,20.895 9.433,21.031 9.463 C 21.091 9.476,21.160 9.493,21.185 9.500 C 21.279 9.528,21.584 9.431,21.714 9.332 C 21.788 9.276,21.882 9.155,21.923 9.065 C 21.994 8.908,21.998 8.741,21.999 5.780 C 21.999 3.853,21.984 2.606,21.960 2.518 C 21.939 2.440,21.862 2.320,21.790 2.250 C 21.520 1.989,21.682 2.000,18.231 2.001 C 15.259 2.002,15.092 2.006,14.935 2.077 M10.420 2.785 C 10.332 2.794,10.062 2.829,9.820 2.862 C 7.272 3.216,4.842 4.647,3.301 6.700 C 2.059 8.355,1.403 10.129,1.281 12.159 C 1.023 16.476,3.564 20.455,7.600 22.055 C 9.678 22.878,12.129 22.958,14.274 22.273 C 16.890 21.436,19.006 19.611,20.219 17.145 C 20.679 16.209,20.979 15.245,21.148 14.160 C 21.237 13.589,21.241 11.945,21.155 11.383 L 21.100 11.026 20.800 10.953 C 20.088 10.780,19.531 10.347,19.240 9.740 C 19.049 9.341,19.000 9.105,19.000 8.589 L 19.000 8.182 16.770 10.404 C 14.751 12.415,14.515 12.637,14.278 12.751 C 13.361 13.192,12.366 13.032,11.667 12.333 C 11.107 11.773,10.883 11.000,11.062 10.242 C 11.209 9.618,11.167 9.669,13.596 7.230 L 15.818 5.000 15.411 5.000 C 14.895 5.000,14.659 4.951,14.260 4.760 C 13.653 4.469,13.220 3.912,13.047 3.200 L 12.974 2.900 12.657 2.851 C 12.337 2.801,10.717 2.753,10.420 2.785 " fill="#1C274C" stroke="none" fill-rule="evenodd"></path></svg>