<svg width="24" height="24" viewBox="0 0 24 24" fill="none" xmlns="http://www.w3.org/2000/svg"><path d="M11.300 2.024 C 10.268 2.130,9.297 2.339,8.537 2.620 C 6.161 3.500,4.142 5.321,3.043 7.576 C 2.564 8.557,2.279 9.465,2.113 10.540 C 1.979 11.404,1.997 13.072,2.146 13.670 C 2.162 13.731,2.199 13.760,2.262 13.760 C 2.448 13.760,2.998 13.964,3.231 14.120 C 3.678 14.419,3.980 14.820,4.141 15.332 C 4.221 15.585,4.240 15.728,4.240 16.082 C 4.240 16.323,4.253 16.520,4.269 16.520 C 4.285 16.520,5.288 15.532,6.499 14.325 C 8.483 12.348,8.726 12.118,8.962 12.004 C 9.331 11.825,9.606 11.761,10.008 11.760 C 11.250 11.759,12.240 12.752,12.240 14.000 C 12.240 14.442,12.110 14.887,11.881 15.226 C 11.791 15.360,10.815 16.368,9.602 17.580 C 8.435 18.746,7.480 19.713,7.480 19.730 C 7.480 19.746,7.674 19.760,7.910 19.760 C 8.157 19.761,8.433 19.786,8.558 19.819 C 9.085 19.959,9.572 20.308,9.877 20.764 C 10.035 21.002,10.240 21.551,10.240 21.738 C 10.240 21.801,10.269 21.838,10.330 21.854 C 10.928 22.003,12.596 22.021,13.460 21.887 C 14.940 21.658,16.316 21.130,17.508 20.333 C 19.030 19.315,20.184 18.007,20.959 16.420 C 21.435 15.446,21.720 14.536,21.887 13.460 C 22.011 12.662,22.011 11.338,21.887 10.540 C 21.657 9.058,21.129 7.684,20.333 6.492 C 19.530 5.292,18.683 4.446,17.483 3.649 C 15.928 2.615,14.126 2.060,12.200 2.022 C 11.793 2.014,11.388 2.015,11.300 2.024 M9.720 13.303 C 9.629 13.342,8.378 14.564,6.170 16.771 L 2.760 20.180 2.760 18.029 C 2.760 16.177,2.751 15.857,2.698 15.729 C 2.431 15.089,1.569 15.089,1.302 15.729 C 1.248 15.859,1.240 16.272,1.241 19.009 C 1.242 21.967,1.246 22.149,1.316 22.300 C 1.405 22.494,1.532 22.616,1.729 22.698 C 1.859 22.752,2.272 22.760,5.000 22.760 C 7.728 22.760,8.141 22.752,8.271 22.698 C 8.911 22.431,8.911 21.569,8.271 21.302 C 8.143 21.249,7.823 21.240,5.971 21.240 L 3.820 21.240 7.229 17.830 C 9.627 15.431,10.655 14.376,10.699 14.271 C 10.945 13.674,10.314 13.049,9.720 13.303 " stroke="none" fill-rule="evenodd" fill="black"></path></svg>