<svg width="24" height="24" viewBox="0 0 24 24" fill="none" xmlns="http://www.w3.org/2000/svg"><path d="M11.300 2.024 C 10.268 2.130,9.297 2.339,8.537 2.620 C 7.198 3.116,5.776 4.043,4.820 5.045 C 3.870 6.039,3.083 7.286,2.625 8.525 C 1.627 11.222,1.858 14.325,3.243 16.820 C 3.378 17.062,3.496 17.268,3.505 17.278 C 3.515 17.288,4.206 16.614,5.041 15.779 L 6.559 14.262 6.271 14.213 C 5.640 14.107,4.980 13.637,4.685 13.084 C 4.528 12.789,4.400 12.302,4.400 12.000 C 4.400 11.698,4.528 11.211,4.685 10.916 C 4.860 10.588,5.247 10.208,5.588 10.029 C 6.115 9.752,6.009 9.760,9.306 9.760 C 11.306 9.760,12.345 9.774,12.488 9.804 C 13.294 9.971,14.029 10.706,14.196 11.512 C 14.226 11.655,14.240 12.694,14.240 14.694 C 14.240 17.987,14.247 17.886,13.974 18.406 C 13.797 18.744,13.405 19.144,13.083 19.315 C 12.789 19.472,12.302 19.600,12.000 19.600 C 11.698 19.600,11.211 19.472,10.916 19.315 C 10.363 19.020,9.893 18.360,9.787 17.729 L 9.738 17.441 8.221 18.959 C 7.386 19.794,6.712 20.485,6.722 20.495 C 6.732 20.504,6.938 20.622,7.180 20.757 C 9.394 21.986,12.064 22.314,14.548 21.660 C 16.586 21.124,18.431 19.936,19.759 18.303 C 20.386 17.532,21.032 16.402,21.374 15.477 C 21.579 14.925,21.787 14.106,21.887 13.460 C 22.011 12.662,22.011 11.338,21.887 10.540 C 21.657 9.058,21.129 7.684,20.333 6.492 C 19.530 5.292,18.683 4.446,17.483 3.649 C 15.928 2.615,14.126 2.060,12.200 2.022 C 11.793 2.014,11.388 2.015,11.300 2.024 M6.494 11.278 C 6.010 11.396,5.778 11.918,6.013 12.363 C 6.082 12.495,6.159 12.567,6.317 12.649 L 6.529 12.760 8.354 12.760 L 10.179 12.760 6.253 16.690 C 2.689 20.256,2.322 20.636,2.280 20.795 C 2.131 21.366,2.634 21.869,3.205 21.720 C 3.364 21.678,3.744 21.311,7.310 17.747 L 11.240 13.821 11.240 15.646 L 11.240 17.471 11.351 17.683 C 11.500 17.968,11.723 18.093,12.046 18.071 C 12.342 18.051,12.530 17.925,12.662 17.657 L 12.762 17.455 12.751 14.617 C 12.740 11.840,12.738 11.777,12.658 11.641 C 12.613 11.564,12.499 11.447,12.405 11.381 L 12.233 11.260 9.427 11.253 C 7.883 11.250,6.563 11.261,6.494 11.278 " fill="#1C274C" stroke="none" fill-rule="evenodd"></path></svg>