<svg width="24" height="24" viewBox="0 0 24 24" fill="none" xmlns="http://www.w3.org/2000/svg"><path d="M11.300 2.027 C 10.396 2.103,9.297 2.339,8.537 2.620 C 6.161 3.500,4.142 5.321,3.043 7.576 C 2.706 8.267,2.527 8.743,2.342 9.443 C 2.101 10.351,2.026 10.964,2.026 12.000 C 2.026 12.726,2.043 13.008,2.113 13.460 C 2.441 15.571,3.363 17.437,4.837 18.972 C 5.788 19.962,7.208 20.887,8.523 21.374 C 9.075 21.579,9.894 21.787,10.540 21.887 C 11.338 22.011,12.662 22.011,13.460 21.887 C 14.942 21.657,16.316 21.129,17.508 20.333 C 18.708 19.530,19.554 18.683,20.351 17.483 C 20.934 16.606,21.384 15.596,21.660 14.548 C 22.314 12.064,21.986 9.394,20.757 7.180 C 20.622 6.938,20.504 6.732,20.495 6.722 C 20.485 6.712,19.794 7.386,18.959 8.221 L 17.441 9.738 17.729 9.787 C 18.360 9.893,19.020 10.363,19.315 10.916 C 19.472 11.211,19.600 11.698,19.600 12.000 C 19.600 12.302,19.472 12.789,19.315 13.084 C 19.140 13.412,18.753 13.792,18.412 13.971 C 17.885 14.248,17.991 14.240,14.694 14.240 C 12.694 14.240,11.655 14.226,11.512 14.196 C 10.706 14.029,9.971 13.294,9.804 12.488 C 9.774 12.345,9.760 11.306,9.760 9.306 C 9.760 6.009,9.752 6.115,10.029 5.588 C 10.208 5.247,10.588 4.860,10.916 4.685 C 11.211 4.528,11.698 4.400,12.000 4.400 C 12.302 4.400,12.789 4.528,13.084 4.685 C 13.637 4.980,14.107 5.640,14.213 6.271 L 14.262 6.559 15.779 5.041 C 16.614 4.206,17.288 3.515,17.278 3.505 C 17.268 3.496,17.062 3.378,16.820 3.243 C 15.607 2.570,14.261 2.165,12.820 2.042 C 12.370 2.003,11.663 1.996,11.300 2.027 M20.900 2.259 C 20.878 2.267,20.806 2.285,20.740 2.299 C 20.649 2.319,19.659 3.285,16.690 6.252 L 12.760 10.179 12.760 8.357 L 12.760 6.536 12.661 6.338 C 12.516 6.049,12.335 5.940,12.000 5.940 C 11.665 5.940,11.484 6.049,11.339 6.338 L 11.240 6.536 11.240 9.298 C 11.240 11.190,11.254 12.110,11.285 12.219 C 11.341 12.423,11.577 12.659,11.781 12.715 C 11.890 12.746,12.810 12.760,14.702 12.760 L 17.464 12.760 17.662 12.661 C 17.951 12.516,18.060 12.335,18.060 12.000 C 18.060 11.684,17.958 11.500,17.701 11.352 C 17.540 11.260,17.538 11.260,15.682 11.248 L 13.824 11.236 17.749 7.308 C 21.311 3.744,21.678 3.364,21.720 3.205 C 21.806 2.878,21.687 2.564,21.412 2.385 C 21.271 2.294,20.993 2.226,20.900 2.259 " fill="#1C274C" stroke="none" fill-rule="evenodd"></path></svg>