<svg width="24" height="24" viewBox="0 0 24 24" fill="none" xmlns="http://www.w3.org/2000/svg"><path d="M6.811 2.278 C 6.639 2.320,6.417 2.493,6.330 2.652 C 6.271 2.760,6.258 2.913,6.247 3.646 L 6.234 4.511 5.487 4.527 C 4.663 4.545,4.496 4.586,4.272 4.825 C 4.076 5.034,4.031 5.234,4.010 6.006 L 3.990 6.712 4.225 6.658 C 4.691 6.551,5.318 6.520,7.000 6.520 C 8.682 6.520,9.309 6.551,9.775 6.658 L 10.010 6.712 9.990 6.006 C 9.969 5.234,9.924 5.034,9.728 4.825 C 9.504 4.586,9.337 4.545,8.513 4.527 L 7.766 4.511 7.753 3.646 C 7.741 2.859,7.733 2.767,7.658 2.641 C 7.494 2.361,7.122 2.202,6.811 2.278 M14.524 3.007 C 14.040 3.063,13.595 3.377,13.383 3.810 C 13.259 4.064,13.137 4.541,13.077 5.000 C 13.051 5.200,13.024 6.399,13.012 7.904 L 12.992 10.468 13.946 10.496 C 15.471 10.542,16.079 10.652,16.780 11.012 C 17.024 11.138,17.186 11.263,17.462 11.538 C 17.866 11.943,18.074 12.291,18.255 12.871 C 18.477 13.576,18.488 13.788,18.509 17.670 L 18.528 21.240 17.767 21.240 L 17.006 21.240 16.989 17.630 C 16.974 14.496,16.963 13.977,16.906 13.692 C 16.702 12.669,16.299 12.276,15.260 12.086 C 14.948 12.029,14.517 12.021,12.000 12.021 C 9.483 12.021,9.052 12.029,8.740 12.086 C 7.702 12.276,7.285 12.684,7.091 13.700 C 7.040 13.967,7.027 14.613,7.012 17.630 L 6.994 21.240 6.233 21.240 L 5.472 21.240 5.491 17.670 C 5.512 13.788,5.523 13.576,5.745 12.871 C 5.926 12.291,6.134 11.943,6.538 11.538 C 7.297 10.780,8.043 10.557,10.030 10.497 L 10.960 10.469 10.960 10.260 C 10.960 10.145,10.933 9.896,10.900 9.707 C 10.722 8.688,10.305 8.275,9.260 8.087 C 8.730 7.992,5.270 7.992,4.740 8.087 C 3.704 8.274,3.288 8.681,3.090 9.700 C 3.036 9.977,3.026 10.768,3.012 15.630 L 2.996 21.240 2.520 21.240 C 1.880 21.240,1.672 21.288,1.480 21.480 C 1.071 21.889,1.275 22.595,1.838 22.716 C 2.130 22.779,21.870 22.779,22.162 22.716 C 22.725 22.595,22.929 21.889,22.520 21.480 C 22.328 21.288,22.120 21.240,21.479 21.240 L 21.002 21.240 20.989 13.710 C 20.978 6.816,20.971 6.157,20.909 5.905 C 20.812 5.508,20.695 5.291,20.440 5.034 C 20.141 4.734,19.629 4.488,18.180 3.947 C 15.954 3.115,15.219 2.926,14.524 3.007 M14.300 14.316 C 14.680 14.491,14.852 14.903,14.698 15.271 C 14.616 15.468,14.494 15.595,14.300 15.684 C 14.151 15.753,13.995 15.758,12.009 15.759 C 10.174 15.760,9.857 15.751,9.729 15.698 C 9.101 15.436,9.084 14.600,9.700 14.316 C 9.849 14.247,10.004 14.242,12.000 14.242 C 13.996 14.242,14.151 14.247,14.300 14.316 M14.300 17.316 C 14.680 17.491,14.852 17.903,14.698 18.271 C 14.616 18.468,14.494 18.595,14.300 18.684 C 14.151 18.753,13.995 18.758,12.009 18.759 C 10.174 18.760,9.857 18.751,9.729 18.698 C 9.101 18.436,9.084 17.600,9.700 17.316 C 9.849 17.247,10.004 17.242,12.000 17.242 C 13.996 17.242,14.151 17.247,14.300 17.316 " fill="#1C274C" stroke="none" fill-rule="evenodd"></path></svg>