<svg width="24" height="24" viewBox="0 0 24 24" fill="none" xmlns="http://www.w3.org/2000/svg"><path d="M8.456 2.042 C 6.631 2.108,5.461 2.303,4.619 2.680 C 3.767 3.063,3.061 3.770,2.677 4.627 C 2.430 5.177,2.214 6.107,2.136 6.950 L 2.110 7.240 4.355 7.240 L 6.600 7.240 8.312 4.670 C 9.254 3.257,10.038 2.078,10.055 2.050 C 10.089 1.994,9.826 1.992,8.456 2.042 M10.147 4.620 L 8.400 7.240 10.753 7.240 L 13.107 7.240 14.816 4.676 C 15.756 3.266,16.518 2.105,16.510 2.096 C 16.477 2.064,14.249 2.001,13.097 2.001 L 11.893 2.000 10.147 4.620 M16.620 4.665 C 15.762 5.954,15.027 7.061,14.986 7.124 L 14.912 7.240 18.401 7.240 L 21.890 7.240 21.863 6.950 C 21.788 6.152,21.603 5.314,21.380 4.767 C 21.176 4.265,20.906 3.859,20.523 3.479 C 20.135 3.092,19.725 2.820,19.230 2.621 C 18.919 2.495,18.324 2.318,18.222 2.321 C 18.199 2.322,17.478 3.377,16.620 4.665 M2.026 9.126 C 1.985 9.697,1.996 14.218,2.041 15.417 C 2.102 17.052,2.219 17.994,2.459 18.779 C 2.891 20.195,3.805 21.109,5.221 21.541 C 6.387 21.897,7.900 21.999,12.000 21.999 C 16.116 21.999,17.590 21.899,18.787 21.538 C 20.186 21.116,21.116 20.186,21.538 18.787 C 21.785 17.969,21.899 17.046,21.959 15.393 C 22.004 14.173,22.014 9.755,21.974 9.150 L 21.948 8.760 12.000 8.760 L 2.052 8.760 2.026 9.126 M14.780 13.316 C 15.075 13.453,15.240 13.697,15.240 14.000 C 15.240 14.303,15.075 14.547,14.780 14.684 C 14.628 14.755,14.426 14.758,10.500 14.758 C 6.600 14.758,6.371 14.754,6.220 14.685 C 6.013 14.591,5.811 14.360,5.777 14.178 C 5.708 13.812,5.857 13.500,6.178 13.339 L 6.376 13.240 10.498 13.241 C 14.425 13.242,14.628 13.245,14.780 13.316 M12.267 16.803 C 12.516 16.896,12.758 17.241,12.758 17.500 C 12.758 17.759,12.516 18.104,12.267 18.197 C 12.192 18.226,11.201 18.240,9.236 18.240 C 6.450 18.240,6.310 18.237,6.168 18.164 C 5.999 18.078,5.917 17.994,5.825 17.812 C 5.697 17.559,5.776 17.139,5.986 16.955 C 6.213 16.756,6.094 16.763,9.227 16.762 C 11.202 16.761,12.191 16.774,12.267 16.803 " fill="#1C274C" stroke="none" fill-rule="evenodd"></path></svg>