<svg width="24" height="24" viewBox="0 0 24 24" fill="none" xmlns="http://www.w3.org/2000/svg"><path d="M15.550 2.749 C 15.448 2.764,15.440 2.779,15.439 2.953 C 15.439 3.056,15.306 4.247,15.143 5.600 C 14.981 6.953,14.853 8.065,14.860 8.072 C 14.881 8.095,18.596 7.084,18.712 7.024 C 18.776 6.991,18.887 6.897,18.959 6.815 C 19.275 6.456,19.286 6.171,19.024 5.260 C 18.806 4.504,18.645 4.157,18.340 3.788 C 17.943 3.308,17.309 2.922,16.692 2.784 C 16.426 2.725,15.829 2.706,15.550 2.749 M11.620 3.784 C 10.366 4.121,9.300 4.406,9.250 4.419 C 9.171 4.439,9.160 4.468,9.158 4.651 C 9.157 4.766,9.025 5.958,8.863 7.300 C 8.702 8.642,8.575 9.746,8.581 9.753 C 8.587 9.760,9.656 9.481,10.956 9.133 L 13.320 8.500 13.321 8.300 C 13.322 8.190,13.455 6.993,13.618 5.640 C 13.780 4.287,13.910 3.178,13.906 3.176 C 13.903 3.174,12.874 3.447,11.620 3.784 M6.937 5.040 C 5.036 5.564,4.474 5.839,4.010 6.469 C 3.672 6.926,3.480 7.395,3.422 7.902 C 3.379 8.277,3.492 9.003,3.757 10.049 L 3.995 10.988 4.011 14.844 C 4.022 17.652,4.040 18.809,4.078 19.100 C 4.299 20.836,4.961 21.586,6.515 21.859 C 7.243 21.987,8.154 22.007,12.480 21.989 C 16.791 21.971,16.990 21.965,17.716 21.816 C 18.886 21.576,19.576 20.886,19.816 19.716 C 19.967 18.979,19.980 18.677,19.980 15.820 C 19.980 12.726,19.971 12.592,19.721 12.053 C 19.460 11.489,19.043 11.217,18.220 11.074 C 18.010 11.037,16.203 11.019,11.000 11.002 L 4.060 10.980 5.550 10.581 L 7.040 10.182 7.040 10.001 C 7.041 9.901,7.174 8.704,7.337 7.340 C 7.501 5.977,7.631 4.859,7.627 4.856 C 7.623 4.853,7.313 4.936,6.937 5.040 " fill="#1C274C" stroke="none" fill-rule="evenodd"></path></svg>