<svg width="24" height="24" viewBox="0 0 24 24" fill="none" xmlns="http://www.w3.org/2000/svg"><path d="M8.456 2.042 C 6.631 2.108,5.461 2.303,4.619 2.680 C 3.767 3.063,3.061 3.770,2.677 4.627 C 2.430 5.177,2.214 6.107,2.136 6.950 L 2.110 7.240 4.355 7.240 L 6.600 7.240 8.312 4.670 C 9.254 3.257,10.038 2.078,10.055 2.050 C 10.089 1.994,9.826 1.992,8.456 2.042 M10.147 4.620 L 8.400 7.240 10.753 7.240 L 13.107 7.240 14.816 4.676 C 15.756 3.266,16.518 2.105,16.510 2.096 C 16.477 2.064,14.249 2.001,13.097 2.001 L 11.893 2.000 10.147 4.620 M16.620 4.665 C 15.762 5.954,15.027 7.061,14.986 7.124 L 14.912 7.240 18.401 7.240 L 21.890 7.240 21.863 6.950 C 21.788 6.152,21.603 5.314,21.380 4.767 C 21.176 4.265,20.906 3.859,20.523 3.479 C 20.135 3.092,19.725 2.820,19.230 2.621 C 18.919 2.495,18.324 2.318,18.222 2.321 C 18.199 2.322,17.478 3.377,16.620 4.665 M2.026 9.126 C 1.985 9.697,1.996 14.218,2.041 15.417 C 2.102 17.052,2.219 17.994,2.459 18.779 C 2.891 20.195,3.805 21.109,5.221 21.541 C 6.282 21.865,7.953 21.999,10.948 22.000 L 12.235 22.000 12.060 21.670 C 11.702 20.995,11.579 20.421,11.520 19.155 C 11.445 17.546,11.494 15.407,11.623 14.647 C 11.915 12.935,12.935 11.915,14.647 11.623 C 15.407 11.494,17.546 11.445,19.155 11.520 C 20.410 11.578,21.002 11.706,21.670 12.060 L 22.000 12.235 22.000 10.888 C 22.000 10.146,21.988 9.365,21.974 9.150 L 21.948 8.760 12.000 8.760 L 2.052 8.760 2.026 9.126 M15.532 13.042 C 14.304 13.124,13.680 13.437,13.339 14.140 C 13.075 14.684,13.001 15.420,13.001 17.500 C 13.001 20.072,13.126 20.792,13.667 21.333 C 14.208 21.874,14.928 21.999,17.500 21.999 C 20.072 21.999,20.792 21.874,21.333 21.333 C 21.874 20.792,21.999 20.072,21.999 17.500 C 21.999 14.928,21.874 14.208,21.333 13.667 C 20.946 13.280,20.420 13.110,19.389 13.040 C 18.739 12.996,16.202 12.997,15.532 13.042 M19.420 15.095 C 20.047 15.392,20.191 16.172,19.710 16.670 C 19.545 16.841,19.408 16.839,19.050 16.660 C 18.714 16.492,18.480 16.251,18.317 15.908 C 18.162 15.580,18.165 15.450,18.330 15.290 C 18.630 15.000,19.057 14.924,19.420 15.095 M18.002 16.110 C 18.176 16.466,18.534 16.824,18.890 16.998 C 19.038 17.071,19.160 17.151,19.160 17.176 C 19.160 17.258,16.988 19.387,16.820 19.470 C 16.732 19.514,16.342 19.654,15.953 19.783 C 15.341 19.985,15.233 20.010,15.145 19.969 C 14.966 19.888,14.975 19.775,15.222 19.032 C 15.348 18.651,15.487 18.268,15.530 18.180 C 15.613 18.012,17.741 15.840,17.824 15.840 C 17.849 15.840,17.929 15.962,18.002 16.110 " fill="#1C274C" stroke="none" fill-rule="evenodd"></path></svg>