<svg width="24" height="24" viewBox="0 0 24 24" fill="none" xmlns="http://www.w3.org/2000/svg"><path d="M15.530 2.748 C 15.456 2.762,15.440 2.792,15.440 2.913 C 15.439 2.994,15.305 4.184,15.141 5.558 C 14.977 6.932,14.850 8.063,14.858 8.072 C 14.882 8.095,18.473 7.130,18.651 7.053 C 18.997 6.902,19.282 6.401,19.225 6.045 C 19.167 5.681,18.860 4.669,18.720 4.380 C 18.427 3.774,17.983 3.335,17.340 3.017 C 17.142 2.918,16.854 2.812,16.700 2.780 C 16.442 2.726,15.743 2.707,15.530 2.748 M11.620 3.784 C 10.366 4.121,9.300 4.406,9.250 4.419 C 9.171 4.439,9.160 4.468,9.158 4.651 C 9.157 4.766,9.025 5.958,8.863 7.300 C 8.702 8.642,8.575 9.746,8.581 9.753 C 8.587 9.760,9.656 9.481,10.956 9.133 L 13.320 8.500 13.321 8.300 C 13.322 8.190,13.455 6.993,13.618 5.640 C 13.780 4.287,13.910 3.178,13.906 3.176 C 13.903 3.174,12.874 3.447,11.620 3.784 M6.937 5.040 C 5.036 5.564,4.474 5.839,4.010 6.469 C 3.672 6.926,3.480 7.395,3.422 7.902 C 3.379 8.278,3.493 9.004,3.760 10.059 L 4.000 11.008 4.001 14.334 C 4.001 16.163,4.019 17.971,4.040 18.351 C 4.125 19.881,4.329 20.538,4.896 21.104 C 5.462 21.671,6.119 21.875,7.649 21.960 C 8.547 22.010,15.453 22.010,16.351 21.960 C 17.881 21.875,18.538 21.671,19.104 21.104 C 19.892 20.317,20.026 19.422,19.988 15.220 C 19.972 13.433,19.956 12.959,19.904 12.692 C 19.709 11.688,19.306 11.286,18.300 11.089 C 18.021 11.035,17.098 11.024,11.020 11.004 L 4.060 10.980 5.550 10.581 L 7.040 10.182 7.040 10.001 C 7.041 9.901,7.174 8.704,7.337 7.340 C 7.501 5.977,7.631 4.859,7.627 4.856 C 7.623 4.853,7.313 4.936,6.937 5.040 M11.794 14.566 C 11.922 14.614,12.369 14.905,12.927 15.306 C 13.743 15.891,14.000 16.177,14.000 16.500 C 14.000 16.823,13.743 17.109,12.927 17.694 C 12.240 18.187,11.891 18.405,11.688 18.466 C 11.526 18.514,11.491 18.513,11.363 18.450 C 11.058 18.301,11.002 17.999,11.002 16.500 C 11.002 15.906,11.018 15.307,11.038 15.169 C 11.121 14.595,11.359 14.406,11.794 14.566 " fill="#1C274C" stroke="none" fill-rule="evenodd"></path></svg>