<svg width="24" height="24" viewBox="0 0 24 24" fill="none" xmlns="http://www.w3.org/2000/svg"><path d="M8.456 2.042 C 6.631 2.108,5.461 2.303,4.619 2.680 C 3.767 3.063,3.061 3.770,2.677 4.627 C 2.430 5.177,2.214 6.107,2.136 6.950 L 2.110 7.240 4.355 7.240 L 6.600 7.240 8.312 4.670 C 9.254 3.257,10.038 2.078,10.055 2.050 C 10.089 1.994,9.826 1.992,8.456 2.042 M10.147 4.620 L 8.400 7.240 10.753 7.240 L 13.107 7.240 14.816 4.676 C 15.756 3.266,16.518 2.105,16.510 2.096 C 16.477 2.064,14.249 2.001,13.097 2.001 L 11.893 2.000 10.147 4.620 M16.620 4.665 C 15.762 5.954,15.027 7.061,14.986 7.124 L 14.912 7.240 18.401 7.240 L 21.890 7.240 21.863 6.950 C 21.788 6.152,21.603 5.314,21.380 4.767 C 21.176 4.265,20.906 3.859,20.523 3.479 C 20.135 3.092,19.725 2.820,19.230 2.621 C 18.919 2.495,18.324 2.318,18.222 2.321 C 18.199 2.322,17.478 3.377,16.620 4.665 M2.026 9.126 C 1.985 9.697,1.996 14.218,2.041 15.417 C 2.102 17.052,2.219 17.994,2.459 18.779 C 2.891 20.195,3.805 21.109,5.221 21.541 C 6.387 21.897,7.900 21.999,12.000 21.999 C 16.116 21.999,17.590 21.899,18.787 21.538 C 20.186 21.116,21.116 20.186,21.538 18.787 C 21.785 17.969,21.899 17.046,21.959 15.393 C 22.004 14.173,22.014 9.755,21.974 9.150 L 21.948 8.760 12.000 8.760 L 2.052 8.760 2.026 9.126 M11.404 11.638 C 11.868 11.830,13.696 12.982,14.318 13.475 C 14.818 13.871,15.031 14.219,14.991 14.576 C 14.932 15.097,14.571 15.424,12.809 16.550 C 11.203 17.578,10.772 17.702,10.363 17.259 C 10.059 16.929,10.001 16.488,10.001 14.520 C 10.002 12.510,10.059 12.071,10.364 11.740 C 10.626 11.456,10.901 11.429,11.404 11.638 " fill="#1C274C" stroke="none" fill-rule="evenodd"></path></svg>