<svg width="24" height="24" viewBox="0 0 24 24" fill="none" xmlns="http://www.w3.org/2000/svg"><path d="M9.150 2.043 C 8.733 2.143,8.325 2.487,8.132 2.900 C 8.020 3.139,8.020 3.142,8.020 4.000 L 8.020 4.860 8.144 5.120 C 8.301 5.450,8.550 5.699,8.880 5.856 L 9.140 5.980 12.000 5.980 L 14.860 5.980 15.104 5.867 C 15.413 5.724,15.721 5.415,15.868 5.100 C 15.980 4.861,15.980 4.858,15.980 4.000 C 15.980 3.142,15.980 3.139,15.868 2.900 C 15.721 2.585,15.413 2.276,15.104 2.133 L 14.860 2.020 12.080 2.013 C 10.541 2.010,9.233 2.023,9.150 2.043 M5.928 4.085 C 4.870 4.196,4.164 4.512,3.720 5.071 C 3.294 5.609,3.116 6.285,3.040 7.649 C 2.990 8.548,2.990 17.452,3.040 18.351 C 3.125 19.881,3.329 20.538,3.896 21.104 C 4.465 21.674,5.109 21.873,6.660 21.959 C 7.598 22.011,16.402 22.011,17.340 21.959 C 18.891 21.873,19.535 21.674,20.104 21.104 C 20.671 20.538,20.875 19.881,20.960 18.351 C 21.010 17.452,21.010 8.548,20.960 7.649 C 20.884 6.285,20.706 5.609,20.280 5.071 C 19.988 4.703,19.530 4.406,19.038 4.264 C 18.778 4.190,18.210 4.095,17.816 4.061 L 17.532 4.036 17.505 4.487 C 17.470 5.057,17.398 5.367,17.206 5.776 C 16.916 6.393,16.393 6.916,15.776 7.206 C 15.131 7.509,15.249 7.500,12.000 7.500 C 8.722 7.500,8.856 7.511,8.180 7.182 C 7.571 6.885,7.116 6.430,6.818 5.820 C 6.605 5.383,6.531 5.078,6.495 4.489 L 6.468 4.040 6.364 4.045 C 6.307 4.048,6.111 4.066,5.928 4.085 M15.302 11.315 C 15.692 11.492,15.853 11.944,15.670 12.345 C 15.623 12.448,11.275 16.527,11.080 16.651 C 10.911 16.759,10.611 16.777,10.430 16.691 C 10.254 16.608,8.418 14.912,8.340 14.760 C 8.131 14.356,8.319 13.859,8.740 13.698 C 8.928 13.626,9.182 13.640,9.346 13.732 C 9.393 13.758,9.713 14.041,10.058 14.360 C 10.402 14.679,10.699 14.940,10.717 14.940 C 10.743 14.940,12.314 13.488,14.388 11.547 C 14.709 11.247,14.992 11.175,15.302 11.315 " fill="#1C274C" stroke="none" fill-rule="evenodd"></path></svg>