<svg width="24" height="24" viewBox="0 0 24 24" fill="none" xmlns="http://www.w3.org/2000/svg"><path d="M9.150 2.043 C 8.733 2.143,8.325 2.487,8.132 2.900 C 8.020 3.139,8.020 3.142,8.020 4.000 L 8.020 4.860 8.144 5.120 C 8.301 5.450,8.550 5.699,8.880 5.856 L 9.140 5.980 12.000 5.980 L 14.860 5.980 15.104 5.867 C 15.413 5.724,15.721 5.415,15.868 5.100 C 15.980 4.861,15.980 4.858,15.980 4.000 C 15.980 3.142,15.980 3.139,15.868 2.900 C 15.721 2.585,15.413 2.276,15.104 2.133 L 14.860 2.020 12.080 2.013 C 10.541 2.010,9.233 2.023,9.150 2.043 M5.928 4.085 C 4.870 4.196,4.164 4.512,3.720 5.071 C 3.294 5.609,3.116 6.285,3.040 7.649 C 2.990 8.548,2.990 17.452,3.040 18.351 C 3.125 19.881,3.329 20.538,3.896 21.104 C 4.465 21.674,5.109 21.873,6.660 21.959 C 7.598 22.011,16.402 22.011,17.340 21.959 C 18.891 21.873,19.535 21.674,20.104 21.104 C 20.671 20.538,20.875 19.881,20.960 18.351 C 21.010 17.452,21.010 8.548,20.960 7.649 C 20.884 6.285,20.706 5.609,20.280 5.071 C 19.988 4.703,19.530 4.406,19.038 4.264 C 18.778 4.190,18.210 4.095,17.816 4.061 L 17.532 4.036 17.505 4.487 C 17.470 5.057,17.398 5.367,17.206 5.776 C 16.916 6.393,16.393 6.916,15.776 7.206 C 15.131 7.509,15.249 7.500,12.000 7.500 C 8.722 7.500,8.856 7.511,8.180 7.182 C 7.571 6.885,7.116 6.430,6.818 5.820 C 6.605 5.383,6.531 5.078,6.495 4.489 L 6.468 4.040 6.364 4.045 C 6.307 4.048,6.111 4.066,5.928 4.085 M7.812 9.825 C 8.090 9.965,8.240 10.203,8.240 10.500 C 8.240 10.795,8.094 11.031,7.825 11.167 C 7.692 11.236,7.606 11.245,7.202 11.233 C 6.781 11.221,6.719 11.210,6.586 11.120 C 6.422 11.009,6.240 10.689,6.240 10.511 C 6.240 10.256,6.460 9.924,6.700 9.817 C 6.881 9.736,7.648 9.742,7.812 9.825 M17.267 9.803 C 17.516 9.896,17.758 10.241,17.758 10.500 C 17.758 10.759,17.516 11.104,17.267 11.197 C 17.191 11.226,16.054 11.240,13.736 11.240 C 10.460 11.240,10.311 11.237,10.168 11.164 C 9.999 11.078,9.917 10.994,9.825 10.812 C 9.697 10.559,9.776 10.139,9.986 9.955 C 10.214 9.755,10.052 9.763,13.727 9.762 C 16.056 9.761,17.191 9.774,17.267 9.803 M7.780 13.316 C 8.075 13.453,8.240 13.697,8.240 14.000 C 8.240 14.303,8.075 14.547,7.780 14.684 C 7.571 14.781,6.948 14.789,6.729 14.698 C 6.101 14.436,6.084 13.600,6.700 13.316 C 6.926 13.211,7.555 13.212,7.780 13.316 M17.300 13.316 C 17.494 13.405,17.616 13.532,17.698 13.729 C 17.852 14.097,17.680 14.509,17.300 14.684 C 17.148 14.754,16.961 14.758,13.758 14.759 L 10.376 14.760 10.178 14.661 C 9.602 14.371,9.626 13.584,10.220 13.315 C 10.371 13.246,10.576 13.242,13.760 13.242 C 16.962 13.242,17.148 13.246,17.300 13.316 M7.812 16.825 C 8.090 16.965,8.240 17.203,8.240 17.500 C 8.240 17.795,8.094 18.031,7.825 18.167 C 7.692 18.236,7.606 18.245,7.202 18.233 C 6.781 18.221,6.719 18.210,6.586 18.120 C 6.422 18.009,6.240 17.689,6.240 17.511 C 6.240 17.256,6.460 16.924,6.700 16.817 C 6.881 16.736,7.648 16.742,7.812 16.825 M17.267 16.803 C 17.516 16.896,17.758 17.241,17.758 17.500 C 17.758 17.759,17.516 18.104,17.267 18.197 C 17.191 18.226,16.054 18.240,13.736 18.240 C 10.460 18.240,10.311 18.237,10.168 18.164 C 9.999 18.078,9.917 17.994,9.825 17.812 C 9.697 17.559,9.776 17.139,9.986 16.955 C 10.214 16.755,10.052 16.763,13.727 16.762 C 16.056 16.761,17.191 16.774,17.267 16.803 " fill="#1C274C" stroke="none" fill-rule="evenodd"></path></svg>