<svg width="24" height="24" viewBox="0 0 24 24" fill="none" xmlns="http://www.w3.org/2000/svg"><path d="M9.150 2.043 C 8.733 2.143,8.325 2.487,8.132 2.900 C 8.020 3.139,8.020 3.142,8.020 4.000 L 8.020 4.860 8.144 5.120 C 8.301 5.450,8.550 5.699,8.880 5.856 L 9.140 5.980 12.000 5.980 L 14.860 5.980 15.104 5.867 C 15.413 5.724,15.721 5.415,15.868 5.100 C 15.980 4.861,15.980 4.858,15.980 4.000 C 15.980 3.142,15.980 3.139,15.868 2.900 C 15.721 2.585,15.413 2.276,15.104 2.133 L 14.860 2.020 12.080 2.013 C 10.541 2.010,9.233 2.023,9.150 2.043 M5.928 4.085 C 4.870 4.196,4.164 4.512,3.720 5.071 C 3.294 5.609,3.116 6.285,3.040 7.649 C 2.990 8.548,2.990 17.452,3.040 18.351 C 3.125 19.881,3.329 20.538,3.896 21.104 C 4.465 21.674,5.109 21.873,6.660 21.959 C 7.598 22.011,16.402 22.011,17.340 21.959 C 18.891 21.873,19.535 21.674,20.104 21.104 C 20.671 20.538,20.875 19.881,20.960 18.351 C 21.010 17.452,21.010 8.548,20.960 7.649 C 20.884 6.285,20.706 5.609,20.280 5.071 C 19.988 4.703,19.530 4.406,19.038 4.264 C 18.778 4.190,18.210 4.095,17.816 4.061 L 17.532 4.036 17.505 4.487 C 17.470 5.057,17.398 5.367,17.206 5.776 C 16.916 6.393,16.393 6.916,15.776 7.206 C 15.131 7.509,15.249 7.500,12.000 7.500 C 8.722 7.500,8.856 7.511,8.180 7.182 C 7.571 6.885,7.116 6.430,6.818 5.820 C 6.605 5.383,6.531 5.078,6.495 4.489 L 6.468 4.040 6.364 4.045 C 6.307 4.048,6.111 4.066,5.928 4.085 M17.267 9.803 C 17.516 9.896,17.758 10.241,17.758 10.500 C 17.758 10.789,17.456 11.172,17.191 11.220 C 17.119 11.232,14.737 11.238,11.897 11.231 L 6.734 11.220 6.586 11.120 C 6.422 11.009,6.240 10.689,6.240 10.511 C 6.240 10.256,6.460 9.924,6.700 9.817 C 6.798 9.773,7.759 9.763,11.987 9.762 C 15.545 9.760,17.190 9.773,17.267 9.803 M16.300 13.316 C 16.680 13.491,16.852 13.903,16.698 14.271 C 16.616 14.468,16.494 14.595,16.300 14.684 C 16.148 14.755,15.940 14.758,12.009 14.759 C 8.369 14.760,7.860 14.753,7.729 14.698 C 7.101 14.436,7.084 13.600,7.700 13.316 C 7.852 13.245,8.059 13.242,12.000 13.242 C 15.941 13.242,16.148 13.245,16.300 13.316 M15.267 16.803 C 15.516 16.896,15.758 17.241,15.758 17.500 C 15.758 17.789,15.456 18.172,15.191 18.220 C 15.119 18.233,13.637 18.238,11.897 18.232 L 8.734 18.220 8.586 18.120 C 8.422 18.009,8.240 17.689,8.240 17.511 C 8.240 17.256,8.460 16.924,8.700 16.817 C 8.856 16.747,15.086 16.734,15.267 16.803 " fill="#1C274C" stroke="none" fill-rule="evenodd"></path></svg>