<svg width="24" height="24" viewBox="0 0 24 24" fill="none" xmlns="http://www.w3.org/2000/svg"><path d="M9.150 2.043 C 8.733 2.143,8.325 2.487,8.132 2.900 C 8.020 3.139,8.020 3.142,8.020 4.000 L 8.020 4.860 8.144 5.120 C 8.301 5.450,8.550 5.699,8.880 5.856 L 9.140 5.980 12.000 5.980 L 14.860 5.980 15.104 5.867 C 15.413 5.724,15.721 5.415,15.868 5.100 C 15.980 4.861,15.980 4.858,15.980 4.000 C 15.980 3.142,15.980 3.139,15.868 2.900 C 15.721 2.585,15.413 2.276,15.104 2.133 L 14.860 2.020 12.080 2.013 C 10.541 2.010,9.233 2.023,9.150 2.043 M5.928 4.085 C 4.870 4.196,4.164 4.512,3.720 5.071 C 3.294 5.609,3.116 6.285,3.040 7.649 C 2.990 8.548,2.990 17.452,3.040 18.351 C 3.125 19.881,3.329 20.538,3.896 21.104 C 4.465 21.674,5.109 21.873,6.660 21.959 C 7.598 22.011,16.402 22.011,17.340 21.959 C 18.891 21.873,19.535 21.674,20.104 21.104 C 20.671 20.538,20.875 19.881,20.960 18.351 C 21.010 17.452,21.010 8.548,20.960 7.649 C 20.884 6.285,20.706 5.609,20.280 5.071 C 19.988 4.703,19.530 4.406,19.038 4.264 C 18.778 4.190,18.210 4.095,17.816 4.061 L 17.532 4.036 17.505 4.487 C 17.470 5.057,17.398 5.367,17.206 5.776 C 16.916 6.393,16.393 6.916,15.776 7.206 C 15.131 7.509,15.249 7.500,12.000 7.500 C 8.722 7.500,8.856 7.511,8.180 7.182 C 7.571 6.885,7.116 6.430,6.818 5.820 C 6.605 5.383,6.531 5.078,6.495 4.489 L 6.468 4.040 6.364 4.045 C 6.307 4.048,6.111 4.066,5.928 4.085 M9.800 11.323 C 9.930 11.382,10.263 11.687,10.990 12.411 L 12.000 13.418 13.010 12.411 C 14.222 11.203,14.355 11.121,14.780 11.315 C 15.223 11.516,15.376 12.044,15.104 12.433 C 15.048 12.514,14.570 13.012,14.042 13.539 L 13.081 14.498 14.099 15.521 C 14.753 16.177,15.139 16.596,15.179 16.691 C 15.344 17.087,15.178 17.500,14.780 17.684 C 14.357 17.880,14.222 17.797,13.010 16.589 L 12.000 15.582 10.990 16.589 C 9.778 17.797,9.645 17.879,9.220 17.685 C 8.777 17.484,8.624 16.956,8.896 16.567 C 8.952 16.486,9.430 15.988,9.958 15.461 L 10.919 14.502 9.901 13.479 C 9.247 12.823,8.861 12.404,8.821 12.309 C 8.656 11.913,8.822 11.500,9.220 11.316 C 9.426 11.220,9.577 11.222,9.800 11.323 " fill="#1C274C" stroke="none" fill-rule="evenodd"></path></svg>