<svg width="24" height="24" viewBox="0 0 24 24" fill="none" xmlns="http://www.w3.org/2000/svg"><path d="M9.150 2.043 C 8.733 2.143,8.325 2.487,8.132 2.900 C 8.020 3.139,8.020 3.142,8.020 4.000 L 8.020 4.860 8.144 5.120 C 8.301 5.450,8.550 5.699,8.880 5.856 L 9.140 5.980 12.000 5.980 L 14.860 5.980 15.104 5.867 C 15.413 5.724,15.721 5.415,15.868 5.100 C 15.980 4.861,15.980 4.858,15.980 4.000 C 15.980 3.142,15.980 3.139,15.868 2.900 C 15.721 2.585,15.413 2.276,15.104 2.133 L 14.860 2.020 12.080 2.013 C 10.541 2.010,9.233 2.023,9.150 2.043 M5.928 4.085 C 4.870 4.196,4.164 4.512,3.720 5.071 C 3.294 5.609,3.116 6.285,3.040 7.649 C 2.990 8.548,2.990 17.452,3.040 18.351 C 3.125 19.881,3.329 20.538,3.896 21.104 C 4.465 21.674,5.109 21.873,6.660 21.959 C 7.598 22.011,16.402 22.011,17.340 21.959 C 18.891 21.873,19.535 21.674,20.104 21.104 C 20.671 20.538,20.875 19.881,20.960 18.351 C 21.010 17.452,21.010 8.548,20.960 7.649 C 20.884 6.285,20.706 5.609,20.280 5.071 C 19.988 4.703,19.530 4.406,19.038 4.264 C 18.778 4.190,18.210 4.095,17.816 4.061 L 17.532 4.036 17.505 4.487 C 17.470 5.057,17.398 5.367,17.206 5.776 C 16.916 6.393,16.393 6.916,15.776 7.206 C 15.131 7.509,15.249 7.500,12.000 7.500 C 8.722 7.500,8.856 7.511,8.180 7.182 C 7.571 6.885,7.116 6.430,6.818 5.820 C 6.605 5.383,6.531 5.078,6.495 4.489 L 6.468 4.040 6.364 4.045 C 6.307 4.048,6.111 4.066,5.928 4.085 M12.271 10.302 C 12.468 10.384,12.595 10.506,12.684 10.700 C 12.751 10.844,12.758 10.979,12.759 12.050 L 12.760 13.240 13.950 13.241 C 15.021 13.242,15.156 13.249,15.300 13.316 C 15.904 13.594,15.904 14.406,15.300 14.684 C 15.156 14.751,15.021 14.758,13.950 14.759 L 12.760 14.760 12.759 15.950 C 12.758 17.021,12.751 17.156,12.684 17.300 C 12.406 17.904,11.594 17.904,11.316 17.300 C 11.249 17.156,11.242 17.021,11.241 15.950 L 11.240 14.760 10.059 14.760 C 9.083 14.760,8.852 14.749,8.729 14.698 C 8.101 14.436,8.084 13.600,8.700 13.316 C 8.844 13.249,8.979 13.242,10.050 13.241 L 11.240 13.240 11.240 12.059 C 11.240 10.794,11.252 10.702,11.452 10.485 C 11.568 10.359,11.827 10.242,11.991 10.241 C 12.063 10.240,12.189 10.268,12.271 10.302 " fill="#1C274C" stroke="none" fill-rule="evenodd"></path></svg>