<svg width="24" height="24" viewBox="0 0 24 24" fill="none" xmlns="http://www.w3.org/2000/svg"><path d="M11.120 2.039 C 9.316 2.220,7.707 2.807,6.280 3.806 C 2.696 6.315,1.150 10.849,2.462 15.000 C 2.954 16.557,3.767 17.890,4.938 19.062 C 6.528 20.651,8.440 21.596,10.740 21.928 C 11.213 21.996,12.787 21.996,13.260 21.928 C 15.135 21.657,16.725 20.987,18.200 19.845 C 18.637 19.507,19.507 18.637,19.845 18.200 C 22.092 15.297,22.619 11.564,21.254 8.220 C 20.058 5.287,17.480 3.053,14.430 2.303 C 13.446 2.062,12.028 1.948,11.120 2.039 M12.405 7.381 C 12.485 7.432,12.593 7.543,12.645 7.627 L 12.740 7.780 12.751 9.740 L 12.763 11.700 13.940 12.880 C 15.147 14.090,15.240 14.206,15.240 14.500 C 15.240 14.661,15.151 14.900,15.048 15.013 C 14.849 15.234,14.439 15.304,14.168 15.163 C 13.949 15.049,11.334 12.410,11.293 12.260 C 11.275 12.194,11.260 11.159,11.260 9.960 L 11.260 7.780 11.353 7.631 C 11.586 7.256,12.044 7.147,12.405 7.381 " fill="#1C274C" stroke="none" fill-rule="evenodd"></path></svg>