<svg width="24" height="24" viewBox="0 0 24 24" fill="none" xmlns="http://www.w3.org/2000/svg"><path d="M8.440 2.043 C 5.815 2.137,4.484 2.504,3.549 3.393 C 2.549 4.344,2.163 5.596,2.041 8.280 C 1.989 9.450,1.989 14.605,2.041 15.740 C 2.160 18.285,2.507 19.501,3.379 20.433 C 4.323 21.444,5.571 21.833,8.260 21.959 C 9.399 22.012,14.601 22.012,15.740 21.959 C 18.285 21.840,19.501 21.493,20.433 20.621 C 21.360 19.755,21.742 18.682,21.927 16.420 C 21.966 15.951,21.980 14.772,21.980 12.000 C 21.980 8.151,21.964 7.600,21.816 6.500 C 21.584 4.775,20.991 3.670,19.928 2.982 C 18.975 2.366,17.835 2.129,15.393 2.041 C 14.150 1.996,9.732 1.997,8.440 2.043 M12.405 7.381 C 12.485 7.432,12.593 7.543,12.645 7.627 L 12.740 7.780 12.751 9.740 L 12.763 11.700 13.940 12.880 C 15.147 14.090,15.240 14.206,15.240 14.500 C 15.240 14.661,15.151 14.900,15.048 15.013 C 14.849 15.234,14.439 15.304,14.168 15.163 C 13.949 15.049,11.334 12.410,11.293 12.260 C 11.275 12.194,11.260 11.159,11.260 9.960 L 11.260 7.780 11.353 7.631 C 11.586 7.256,12.044 7.147,12.405 7.381 " fill="#1C274C" stroke="none" fill-rule="evenodd"></path></svg>