<svg width="24" height="24" viewBox="0 0 24 24" fill="none" xmlns="http://www.w3.org/2000/svg"><path d="M7.300 2.027 C 6.631 2.048,5.742 2.124,5.300 2.200 C 3.429 2.521,2.499 3.464,2.186 5.360 C 2.108 5.833,2.040 6.568,2.040 6.950 L 2.040 7.240 6.640 7.240 L 11.240 7.240 11.240 4.620 L 11.240 2.000 9.450 2.008 C 8.466 2.013,7.498 2.021,7.300 2.027 M12.760 8.114 L 12.760 14.240 17.384 14.240 L 22.008 14.240 21.988 10.490 C 21.968 6.768,21.951 6.261,21.817 5.425 C 21.690 4.633,21.522 4.143,21.216 3.670 C 20.968 3.286,20.753 3.067,20.383 2.822 C 19.989 2.561,19.683 2.430,19.171 2.302 C 18.295 2.085,17.628 2.038,14.990 2.012 L 12.760 1.989 12.760 8.114 M15.271 7.302 C 15.468 7.384,15.595 7.506,15.684 7.700 C 15.751 7.843,15.758 7.977,15.759 8.991 C 15.760 9.923,15.749 10.149,15.698 10.271 C 15.431 10.911,14.569 10.911,14.302 10.271 C 14.211 10.052,14.211 7.948,14.302 7.729 C 14.384 7.532,14.506 7.405,14.700 7.316 C 14.897 7.225,15.076 7.221,15.271 7.302 M2.000 11.500 L 2.000 14.240 6.620 14.240 L 11.240 14.240 11.240 11.500 L 11.240 8.760 6.620 8.760 L 2.000 8.760 2.000 11.500 M2.055 16.270 C 2.136 17.819,2.345 18.663,2.825 19.387 C 3.121 19.835,3.480 20.145,4.001 20.403 L 4.240 20.522 4.240 21.239 C 4.240 21.633,4.260 22.049,4.284 22.162 C 4.405 22.725,5.111 22.929,5.520 22.520 C 5.716 22.324,5.760 22.120,5.760 21.413 L 5.760 20.869 6.028 20.896 C 6.625 20.958,8.029 20.998,9.590 20.999 L 11.240 21.000 11.240 18.380 L 11.240 15.760 6.634 15.760 L 2.028 15.760 2.055 16.270 M12.760 18.380 L 12.760 21.000 14.410 20.999 C 15.971 20.998,17.375 20.958,17.972 20.896 L 18.240 20.869 18.240 21.413 C 18.240 22.120,18.284 22.324,18.480 22.520 C 18.889 22.929,19.595 22.725,19.716 22.162 C 19.740 22.049,19.760 21.633,19.760 21.239 L 19.760 20.522 19.999 20.403 C 20.520 20.145,20.879 19.835,21.175 19.387 C 21.655 18.663,21.864 17.819,21.945 16.270 L 21.972 15.760 17.366 15.760 L 12.760 15.760 12.760 18.380 M9.271 17.302 C 9.468 17.384,9.595 17.506,9.684 17.700 C 9.863 18.086,9.680 18.527,9.271 18.698 C 9.052 18.789,6.948 18.789,6.729 18.698 C 6.101 18.436,6.084 17.600,6.700 17.316 C 6.843 17.249,6.977 17.242,7.991 17.241 C 8.923 17.240,9.149 17.251,9.271 17.302 M17.271 17.302 C 17.468 17.384,17.595 17.506,17.684 17.700 C 17.863 18.086,17.680 18.527,17.271 18.698 C 17.052 18.789,14.948 18.789,14.729 18.698 C 14.101 18.436,14.084 17.600,14.700 17.316 C 14.843 17.249,14.977 17.242,15.991 17.241 C 16.923 17.240,17.149 17.251,17.271 17.302 " fill="#1C274C" stroke="none" fill-rule="evenodd"></path></svg>