<svg width="24" height="24" viewBox="0 0 24 24" fill="none" xmlns="http://www.w3.org/2000/svg"><path d="M7.565 7.039 C 7.173 7.134,6.933 7.557,7.040 7.965 C 7.081 8.122,7.290 8.344,9.012 10.070 L 10.938 12.000 9.015 13.930 C 7.220 15.730,7.088 15.873,7.046 16.047 C 6.908 16.616,7.382 17.092,7.951 16.955 C 8.128 16.912,8.260 16.790,10.070 14.985 L 12.000 13.062 13.930 14.988 C 15.656 16.710,15.878 16.919,16.035 16.960 C 16.606 17.110,17.110 16.606,16.960 16.035 C 16.919 15.878,16.710 15.656,14.988 13.930 L 13.062 12.000 14.987 10.070 C 16.877 8.175,16.912 8.136,16.954 7.936 C 17.074 7.362,16.612 6.909,16.047 7.046 C 15.873 7.088,15.730 7.220,13.930 9.015 L 12.000 10.938 10.090 9.034 C 9.039 7.986,8.144 7.111,8.100 7.089 C 7.976 7.027,7.714 7.003,7.565 7.039 " fill="#1C274C" stroke="none" fill-rule="evenodd"></path></svg>