<svg width="24" height="24" viewBox="0 0 24 24" fill="none" xmlns="http://www.w3.org/2000/svg"><path d="M11.120 2.039 C 9.316 2.220,7.707 2.807,6.280 3.806 C 2.738 6.286,1.178 10.759,2.422 14.865 C 2.918 16.499,3.728 17.850,4.939 19.061 C 5.928 20.050,7.038 20.788,8.272 21.278 C 11.634 22.610,15.313 22.080,18.200 19.845 C 18.637 19.507,19.507 18.637,19.845 18.200 C 21.255 16.379,22.000 14.234,22.000 12.000 C 22.000 7.432,18.842 3.387,14.430 2.303 C 13.446 2.062,12.028 1.948,11.120 2.039 M9.791 8.821 C 9.889 8.862,10.292 9.234,10.970 9.911 L 12.000 10.939 13.030 9.911 C 14.093 8.850,14.210 8.759,14.509 8.761 C 14.682 8.762,14.948 8.873,15.048 8.986 C 15.151 9.102,15.240 9.340,15.240 9.500 C 15.240 9.790,15.143 9.914,14.089 10.970 L 13.061 12.000 14.089 13.030 C 15.143 14.086,15.240 14.210,15.240 14.500 C 15.240 14.660,15.151 14.898,15.048 15.014 C 14.948 15.127,14.682 15.238,14.509 15.239 C 14.210 15.241,14.093 15.150,13.030 14.089 L 12.000 13.061 10.970 14.089 C 9.914 15.143,9.790 15.240,9.500 15.240 C 9.340 15.240,9.102 15.151,8.986 15.048 C 8.873 14.948,8.762 14.682,8.761 14.509 C 8.759 14.210,8.850 14.093,9.911 13.030 L 10.939 12.000 9.911 10.970 C 8.857 9.914,8.760 9.790,8.760 9.500 C 8.760 9.340,8.849 9.102,8.952 8.986 C 9.131 8.783,9.516 8.708,9.791 8.821 " fill="#1C274C" stroke="none" fill-rule="evenodd"></path></svg>