<svg width="24" height="24" viewBox="0 0 24 24" fill="none" xmlns="http://www.w3.org/2000/svg"><path d="M7.300 2.027 C 6.631 2.048,5.742 2.124,5.300 2.200 C 3.429 2.521,2.501 3.463,2.186 5.360 C 2.031 6.294,2.020 6.661,2.020 11.060 C 2.020 14.905,2.028 15.403,2.092 15.957 C 2.247 17.303,2.493 18.027,3.003 18.640 C 3.242 18.927,3.647 19.241,3.989 19.404 L 4.240 19.524 4.240 20.792 C 4.240 21.541,4.257 22.121,4.282 22.209 C 4.390 22.599,4.802 22.827,5.202 22.719 C 5.422 22.660,5.656 22.432,5.715 22.219 C 5.743 22.121,5.760 21.641,5.760 20.965 L 5.760 19.871 5.970 19.896 C 6.525 19.963,7.705 19.999,9.390 19.999 L 11.240 20.000 11.240 11.000 L 11.240 2.000 9.450 2.008 C 8.466 2.013,7.498 2.021,7.300 2.027 M12.760 10.994 L 12.760 20.000 14.410 19.999 C 15.971 19.998,17.375 19.958,17.972 19.896 L 18.240 19.869 18.240 20.913 C 18.240 21.524,18.258 22.042,18.284 22.162 C 18.447 22.920,19.553 22.920,19.716 22.162 C 19.743 22.037,19.760 21.477,19.760 20.739 L 19.760 19.522 19.999 19.403 C 20.520 19.145,20.879 18.835,21.175 18.387 C 21.708 17.583,21.878 16.797,21.964 14.740 C 22.019 13.450,21.988 6.950,21.924 6.280 C 21.802 4.996,21.606 4.273,21.216 3.670 C 20.968 3.286,20.753 3.067,20.383 2.822 C 19.989 2.561,19.683 2.430,19.171 2.302 C 18.295 2.085,17.628 2.038,14.990 2.012 L 12.760 1.989 12.760 10.994 M9.405 8.381 C 9.485 8.432,9.593 8.543,9.645 8.627 L 9.740 8.780 9.740 11.007 L 9.740 13.233 9.619 13.405 C 9.453 13.641,9.273 13.739,9.000 13.739 C 8.727 13.739,8.547 13.641,8.381 13.405 L 8.260 13.233 8.260 11.007 L 8.260 8.780 8.353 8.631 C 8.586 8.256,9.044 8.147,9.405 8.381 M15.271 8.302 C 15.468 8.384,15.595 8.506,15.684 8.700 C 15.753 8.849,15.758 9.004,15.758 11.000 C 15.758 12.996,15.753 13.151,15.684 13.300 C 15.406 13.904,14.594 13.904,14.316 13.300 C 14.247 13.151,14.242 12.995,14.241 11.009 C 14.240 9.174,14.249 8.857,14.302 8.729 C 14.384 8.532,14.506 8.405,14.700 8.316 C 14.897 8.225,15.076 8.221,15.271 8.302 " fill="#1C274C" stroke="none" fill-rule="evenodd"></path></svg>