<svg width="24" height="24" viewBox="0 0 24 24" fill="none" xmlns="http://www.w3.org/2000/svg"><path d="M16.020 7.048 C 15.883 7.084,15.588 7.361,13.939 9.005 C 12.883 10.058,12.000 10.920,11.979 10.920 C 11.957 10.920,11.094 10.072,10.060 9.036 C 8.996 7.970,8.124 7.128,8.051 7.096 C 7.455 6.836,6.836 7.455,7.096 8.051 C 7.128 8.124,7.970 8.996,9.036 10.060 C 10.072 11.094,10.920 11.957,10.920 11.979 C 10.920 12.000,10.058 12.883,9.005 13.939 C 7.210 15.741,7.088 15.872,7.045 16.049 C 6.908 16.618,7.384 17.092,7.953 16.954 C 8.127 16.912,8.270 16.780,10.061 14.995 C 11.117 13.942,12.000 13.080,12.021 13.080 C 12.043 13.080,12.906 13.928,13.940 14.964 C 15.004 16.030,15.876 16.872,15.949 16.904 C 16.314 17.063,16.780 16.872,16.917 16.507 C 16.977 16.351,16.971 16.102,16.904 15.949 C 16.872 15.876,16.030 15.004,14.964 13.940 C 13.928 12.906,13.080 12.043,13.080 12.021 C 13.080 12.000,13.942 11.117,14.996 10.061 C 16.877 8.175,16.912 8.136,16.954 7.936 C 17.075 7.356,16.594 6.899,16.020 7.048 " fill="#1C274C" stroke="none" fill-rule="evenodd"></path></svg>