<svg width="24" height="24" viewBox="0 0 24 24" fill="none" xmlns="http://www.w3.org/2000/svg"><path d="M8.419 2.041 C 5.785 2.145,4.480 2.507,3.549 3.393 C 2.551 4.342,2.166 5.587,2.041 8.260 C 1.988 9.399,1.988 14.601,2.041 15.740 C 2.160 18.285,2.507 19.501,3.379 20.433 C 4.245 21.360,5.318 21.742,7.580 21.927 C 8.488 22.002,15.512 22.002,16.420 21.927 C 18.857 21.727,19.992 21.275,20.860 20.157 C 21.474 19.368,21.771 18.329,21.927 16.420 C 22.002 15.512,22.002 8.488,21.927 7.580 C 21.740 5.297,21.356 4.232,20.407 3.355 C 19.572 2.585,18.492 2.242,16.380 2.078 C 15.684 2.023,9.573 1.995,8.419 2.041 M9.791 8.821 C 9.889 8.862,10.292 9.234,10.970 9.911 L 12.000 10.939 13.030 9.911 C 14.093 8.850,14.210 8.759,14.509 8.761 C 14.682 8.762,14.948 8.873,15.048 8.986 C 15.151 9.102,15.240 9.340,15.240 9.500 C 15.240 9.790,15.143 9.914,14.089 10.970 L 13.061 12.000 14.089 13.030 C 15.143 14.086,15.240 14.210,15.240 14.500 C 15.240 14.660,15.151 14.898,15.048 15.014 C 14.948 15.127,14.682 15.238,14.509 15.239 C 14.210 15.241,14.093 15.150,13.030 14.089 L 12.000 13.061 10.970 14.089 C 9.914 15.143,9.790 15.240,9.500 15.240 C 9.340 15.240,9.102 15.151,8.986 15.048 C 8.873 14.948,8.762 14.682,8.761 14.509 C 8.759 14.210,8.850 14.093,9.911 13.030 L 10.939 12.000 9.911 10.970 C 8.857 9.914,8.760 9.790,8.760 9.500 C 8.760 9.340,8.849 9.102,8.952 8.986 C 9.131 8.783,9.516 8.708,9.791 8.821 " fill="#1C274C" stroke="none" fill-rule="evenodd"></path></svg>