<svg width="24" height="24" viewBox="0 0 24 24" fill="none" xmlns="http://www.w3.org/2000/svg"><path d="M11.960 2.024 C 10.509 2.197,9.385 2.728,8.419 3.697 C 7.586 4.533,7.079 5.489,6.857 6.640 C 6.703 7.443,6.781 8.626,7.037 9.372 L 7.117 9.604 6.868 9.572 C 6.483 9.522,5.773 9.546,5.420 9.620 C 3.774 9.964,2.522 11.178,2.112 12.827 C 2.001 13.274,1.990 14.181,2.091 14.621 C 2.493 16.381,3.875 17.674,5.640 17.942 C 5.849 17.974,6.240 18.000,6.510 18.000 L 7.000 18.000 7.000 16.907 C 7.000 16.306,7.020 15.618,7.044 15.378 C 7.208 13.751,8.057 12.825,9.617 12.570 C 10.211 12.473,13.789 12.473,14.383 12.570 C 15.943 12.825,16.792 13.751,16.956 15.378 C 16.980 15.618,17.000 16.297,17.000 16.888 L 17.000 17.962 17.090 17.942 C 17.140 17.932,17.320 17.896,17.491 17.862 C 18.537 17.657,19.533 17.113,20.342 16.303 C 21.159 15.486,21.634 14.608,21.889 13.447 C 22.011 12.889,22.010 11.831,21.887 11.252 C 21.560 9.723,20.701 8.472,19.400 7.630 C 19.025 7.387,18.782 7.261,18.420 7.120 C 18.288 7.069,18.176 7.024,18.171 7.021 C 18.166 7.018,18.127 6.835,18.085 6.614 C 17.814 5.217,17.060 4.010,15.929 3.161 C 14.964 2.436,13.856 2.052,12.641 2.021 C 12.343 2.013,12.037 2.015,11.960 2.024 M10.005 14.041 C 9.193 14.124,8.788 14.417,8.617 15.044 C 8.508 15.442,8.471 16.466,8.493 18.520 C 8.510 20.168,8.525 20.550,8.580 20.798 C 8.727 21.454,9.004 21.750,9.621 21.908 C 9.872 21.973,10.114 21.980,12.000 21.980 C 13.886 21.980,14.128 21.973,14.379 21.908 C 15.009 21.747,15.278 21.452,15.427 20.757 C 15.493 20.452,15.500 20.187,15.500 18.000 C 15.500 15.813,15.493 15.548,15.427 15.243 C 15.275 14.537,14.974 14.221,14.320 14.080 C 14.051 14.022,10.507 13.990,10.005 14.041 M13.388 17.367 C 13.628 17.526,13.733 17.721,13.733 18.007 C 13.733 18.203,13.714 18.271,13.616 18.409 C 13.384 18.740,13.383 18.740,12.000 18.740 C 10.617 18.740,10.616 18.740,10.384 18.409 C 10.098 18.003,10.328 17.398,10.815 17.277 C 10.884 17.260,11.454 17.249,12.083 17.253 L 13.226 17.260 13.388 17.367 " fill="#1C274C" stroke="none" fill-rule="evenodd"></path></svg>