<svg width="24" height="24" viewBox="0 0 24 24" fill="none" xmlns="http://www.w3.org/2000/svg"><path d="M11.960 3.024 C 10.509 3.197,9.385 3.728,8.419 4.697 C 7.586 5.533,7.079 6.489,6.857 7.640 C 6.703 8.443,6.781 9.626,7.037 10.372 L 7.117 10.604 6.868 10.572 C 6.483 10.522,5.773 10.546,5.420 10.620 C 3.774 10.964,2.524 12.176,2.112 13.827 C 1.980 14.354,1.988 15.230,2.130 15.762 C 2.455 16.986,3.183 17.911,4.278 18.495 L 4.616 18.675 5.383 17.922 C 6.076 17.242,6.182 17.153,6.486 17.002 C 6.685 16.904,6.932 16.817,7.093 16.789 L 7.365 16.743 7.509 16.461 C 7.636 16.215,7.810 16.023,8.917 14.912 C 10.167 13.657,10.184 13.642,10.529 13.480 C 11.196 13.168,11.804 13.168,12.467 13.479 C 12.887 13.675,13.284 14.051,13.477 14.434 L 13.605 14.687 14.083 14.222 C 14.346 13.966,14.673 13.685,14.809 13.597 C 15.510 13.144,16.488 13.142,17.182 13.592 C 17.859 14.030,18.240 14.718,18.240 15.500 C 18.240 15.907,18.159 16.220,17.957 16.595 C 17.869 16.758,17.803 16.893,17.809 16.895 C 18.291 17.092,18.791 17.544,18.999 17.970 L 19.131 18.239 19.285 18.153 C 19.842 17.839,20.609 17.110,21.013 16.508 C 21.440 15.873,21.685 15.305,21.863 14.540 C 21.962 14.112,21.974 13.985,21.974 13.360 C 21.974 12.577,21.904 12.140,21.675 11.492 C 21.138 9.970,19.912 8.700,18.420 8.120 C 18.288 8.069,18.176 8.024,18.171 8.021 C 18.166 8.018,18.127 7.835,18.085 7.614 C 17.814 6.217,17.060 5.010,15.929 4.161 C 14.964 3.436,13.856 3.052,12.641 3.021 C 12.343 3.013,12.037 3.015,11.960 3.024 M11.177 14.823 C 11.109 14.856,10.548 15.391,9.930 16.012 C 8.708 17.239,8.724 17.216,8.771 17.625 C 8.794 17.836,8.951 18.054,9.160 18.166 C 9.329 18.256,9.640 18.263,9.817 18.179 C 9.887 18.145,10.451 17.610,11.069 16.989 C 12.292 15.761,12.276 15.784,12.229 15.375 C 12.206 15.164,12.049 14.946,11.840 14.834 C 11.671 14.744,11.348 14.738,11.177 14.823 M15.598 14.875 C 15.500 14.938,14.949 15.465,14.374 16.045 C 13.459 16.969,13.322 17.123,13.280 17.279 C 13.108 17.919,13.744 18.448,14.339 18.160 C 14.445 18.109,14.894 17.689,15.588 16.990 C 16.768 15.803,16.799 15.759,16.742 15.378 C 16.664 14.859,16.044 14.587,15.598 14.875 M7.329 18.279 C 7.257 18.296,7.131 18.357,7.048 18.414 C 6.776 18.603,4.887 20.534,4.821 20.691 C 4.691 21.002,4.765 21.331,5.013 21.549 C 5.297 21.798,5.603 21.815,5.924 21.602 C 6.203 21.417,8.108 19.480,8.179 19.309 C 8.373 18.843,8.096 18.344,7.600 18.270 C 7.523 18.258,7.401 18.262,7.329 18.279 M16.815 18.277 C 16.618 18.325,16.526 18.407,15.393 19.547 C 14.462 20.484,14.321 20.642,14.281 20.795 C 14.130 21.365,14.634 21.870,15.205 21.720 C 15.359 21.679,15.519 21.535,16.527 20.527 C 17.535 19.519,17.679 19.359,17.720 19.205 C 17.806 18.878,17.687 18.564,17.412 18.385 C 17.241 18.275,17.001 18.231,16.815 18.277 M11.815 19.277 C 11.618 19.325,11.526 19.407,10.393 20.547 C 9.462 21.484,9.321 21.642,9.281 21.795 C 9.130 22.365,9.634 22.870,10.205 22.720 C 10.359 22.679,10.519 22.535,11.527 21.527 C 12.535 20.519,12.679 20.359,12.720 20.205 C 12.806 19.878,12.687 19.564,12.412 19.385 C 12.241 19.275,12.001 19.231,11.815 19.277 " fill="#1C274C" stroke="none" fill-rule="evenodd"></path></svg>