<svg width="24" height="24" viewBox="0 0 24 24" fill="none" xmlns="http://www.w3.org/2000/svg"><path d="M11.960 2.027 C 10.587 2.162,9.378 2.732,8.420 3.697 C 7.604 4.518,7.119 5.419,6.876 6.560 C 6.803 6.901,6.787 7.108,6.787 7.660 C 6.787 8.376,6.855 8.842,7.038 9.375 L 7.119 9.610 6.915 9.583 C 6.551 9.535,5.778 9.556,5.453 9.622 C 2.991 10.128,1.512 12.511,2.165 14.920 C 2.479 16.079,3.425 17.156,4.556 17.642 C 5.224 17.929,5.460 17.970,6.580 17.990 L 7.580 18.007 7.649 17.814 C 7.751 17.524,7.950 17.211,8.547 16.397 C 10.251 14.071,10.622 13.622,11.097 13.313 C 12.043 12.698,13.262 13.012,13.760 14.001 C 13.955 14.387,14.040 14.784,14.067 15.444 L 14.092 16.029 14.476 16.053 C 15.120 16.093,15.539 16.260,15.928 16.631 C 16.222 16.911,16.416 17.286,16.483 17.704 L 16.532 18.009 16.816 17.981 C 19.100 17.759,21.015 16.237,21.718 14.086 C 21.919 13.470,21.976 13.092,21.976 12.360 C 21.976 11.647,21.920 11.257,21.733 10.665 C 21.238 9.098,19.998 7.762,18.460 7.138 C 18.306 7.076,18.174 7.020,18.166 7.015 C 18.158 7.009,18.126 6.855,18.095 6.673 C 17.678 4.230,15.623 2.323,13.108 2.043 C 12.745 2.002,12.273 1.996,11.960 2.027 M12.041 14.513 C 11.849 14.542,11.342 15.133,10.320 16.520 C 9.760 17.279,9.244 17.998,9.172 18.117 C 8.936 18.508,8.955 18.750,9.230 18.869 C 9.345 18.919,9.574 18.940,10.220 18.959 C 11.143 18.987,11.271 19.017,11.351 19.228 C 11.375 19.290,11.403 19.795,11.415 20.360 C 11.439 21.501,11.480 21.755,11.663 21.913 C 11.891 22.109,12.145 21.967,12.614 21.385 C 13.001 20.906,14.673 18.638,14.839 18.369 C 15.009 18.092,15.035 17.895,14.922 17.751 C 14.796 17.592,14.623 17.559,13.780 17.535 C 13.362 17.523,12.960 17.495,12.887 17.472 C 12.639 17.397,12.600 17.271,12.599 16.520 C 12.596 14.873,12.478 14.445,12.041 14.513 " fill="#1C274C" stroke="none" fill-rule="evenodd"></path></svg>