<svg width="24" height="24" viewBox="0 0 24 24" fill="none" xmlns="http://www.w3.org/2000/svg"><path d="M7.420 1.260 C 7.398 1.267,7.331 1.284,7.271 1.297 C 7.124 1.329,6.881 1.548,6.814 1.708 C 6.780 1.789,6.760 1.996,6.760 2.260 C 6.760 2.829,6.860 3.032,7.210 3.178 C 7.398 3.257,7.602 3.257,7.790 3.178 C 8.135 3.034,8.238 2.823,8.239 2.253 C 8.240 2.029,8.221 1.795,8.197 1.733 C 8.146 1.597,7.977 1.412,7.840 1.342 C 7.732 1.287,7.485 1.238,7.420 1.260 M3.320 2.925 C 3.191 2.976,3.009 3.150,2.934 3.292 C 2.855 3.444,2.857 3.760,2.939 3.933 C 3.019 4.100,3.390 4.463,3.540 4.520 C 3.690 4.577,3.981 4.569,4.131 4.505 C 4.287 4.438,4.460 4.261,4.517 4.107 C 4.571 3.966,4.572 3.678,4.521 3.542 C 4.464 3.392,4.127 3.045,3.953 2.956 C 3.791 2.874,3.487 2.859,3.320 2.925 M11.039 2.958 C 10.866 3.050,10.534 3.398,10.477 3.548 C 10.337 3.917,10.537 4.383,10.893 4.518 C 11.034 4.571,11.322 4.572,11.460 4.520 C 11.608 4.464,11.981 4.100,12.059 3.936 C 12.237 3.562,12.045 3.065,11.667 2.922 C 11.496 2.858,11.196 2.875,11.039 2.958 M7.260 4.586 C 6.598 4.727,6.047 5.033,5.540 5.540 C 4.802 6.278,4.486 7.097,4.531 8.157 C 4.556 8.735,4.645 9.100,4.873 9.548 C 5.022 9.842,5.317 10.279,5.367 10.280 C 5.382 10.280,5.416 10.177,5.441 10.050 C 5.521 9.659,5.757 9.001,5.982 8.538 C 6.363 7.756,6.836 7.118,7.510 6.477 C 8.046 5.968,8.552 5.614,9.208 5.290 C 9.510 5.142,9.757 5.009,9.758 4.996 C 9.762 4.943,9.117 4.677,8.800 4.602 C 8.388 4.503,7.681 4.496,7.260 4.586 M11.960 6.024 C 10.509 6.197,9.385 6.728,8.419 7.697 C 7.586 8.533,7.079 9.489,6.857 10.640 C 6.703 11.443,6.781 12.626,7.037 13.372 L 7.117 13.604 6.868 13.572 C 6.483 13.522,5.773 13.546,5.420 13.620 C 3.774 13.964,2.522 15.178,2.112 16.827 C 2.001 17.274,1.990 18.181,2.091 18.621 C 2.502 20.420,3.937 21.726,5.760 21.960 C 5.996 21.990,7.767 21.999,11.560 21.990 C 16.927 21.976,17.027 21.974,17.401 21.892 C 18.587 21.631,19.516 21.129,20.342 20.303 C 21.178 19.467,21.677 18.526,21.903 17.360 C 22.011 16.805,22.003 15.803,21.886 15.252 C 21.562 13.726,20.701 12.472,19.400 11.630 C 19.025 11.387,18.782 11.261,18.420 11.120 C 18.288 11.069,18.176 11.024,18.171 11.021 C 18.166 11.018,18.127 10.835,18.085 10.614 C 17.814 9.217,17.060 8.010,15.929 7.161 C 14.964 6.436,13.856 6.052,12.641 6.021 C 12.343 6.013,12.037 6.015,11.960 6.024 M1.700 6.817 C 1.460 6.924,1.239 7.257,1.241 7.509 C 1.243 7.761,1.488 8.105,1.733 8.197 C 1.795 8.221,2.029 8.240,2.253 8.239 C 2.823 8.238,3.034 8.135,3.178 7.790 C 3.287 7.530,3.232 7.193,3.048 6.986 C 2.903 6.822,2.685 6.762,2.240 6.762 C 1.977 6.763,1.775 6.783,1.700 6.817 M3.479 10.518 C 3.306 10.610,2.974 10.958,2.916 11.109 C 2.688 11.707,3.293 12.311,3.893 12.083 C 4.045 12.025,4.419 11.665,4.497 11.501 C 4.570 11.348,4.579 11.057,4.517 10.893 C 4.460 10.739,4.287 10.562,4.131 10.495 C 3.952 10.418,3.647 10.429,3.479 10.518 " fill="#1C274C" stroke="none" fill-rule="evenodd"></path></svg>