<svg width="24" height="24" viewBox="0 0 24 24" fill="none" xmlns="http://www.w3.org/2000/svg"><path d="M11.960 3.024 C 10.509 3.197,9.385 3.728,8.419 4.697 C 7.586 5.533,7.079 6.489,6.857 7.640 C 6.703 8.443,6.781 9.626,7.037 10.372 L 7.117 10.604 6.868 10.572 C 6.483 10.522,5.773 10.546,5.420 10.620 C 3.774 10.964,2.522 12.178,2.112 13.827 C 2.001 14.274,1.990 15.181,2.091 15.621 C 2.391 16.933,3.236 18.000,4.420 18.563 C 5.152 18.911,5.703 19.010,6.800 18.992 L 7.500 18.980 7.529 18.720 C 7.632 17.781,8.311 16.590,9.423 15.399 C 10.042 14.736,10.430 14.464,11.060 14.252 C 11.353 14.153,11.432 14.144,12.000 14.144 C 12.568 14.144,12.647 14.153,12.940 14.252 C 13.570 14.464,13.958 14.736,14.577 15.399 C 15.689 16.589,16.367 17.778,16.472 18.720 L 16.501 18.980 16.740 18.968 C 18.935 18.857,21.021 17.231,21.716 15.090 C 21.915 14.476,21.977 14.051,21.975 13.320 C 21.972 12.580,21.897 12.121,21.675 11.492 C 21.138 9.970,19.912 8.700,18.420 8.120 C 18.288 8.069,18.176 8.024,18.171 8.021 C 18.166 8.018,18.127 7.835,18.085 7.614 C 17.814 6.217,17.060 5.010,15.929 4.161 C 14.964 3.436,13.856 3.052,12.641 3.021 C 12.343 3.013,12.037 3.015,11.960 3.024 M11.704 15.642 C 11.337 15.704,11.045 15.886,10.635 16.309 C 9.793 17.177,9.230 18.025,9.059 18.680 C 8.922 19.202,9.065 19.973,9.405 20.549 C 9.479 20.674,9.684 20.922,9.860 21.099 C 10.322 21.563,10.773 21.807,11.408 21.937 C 12.142 22.087,12.913 21.952,13.591 21.554 C 13.883 21.383,14.420 20.845,14.595 20.549 C 14.935 19.973,15.078 19.202,14.941 18.680 C 14.770 18.025,14.207 17.177,13.365 16.309 C 12.942 15.872,12.668 15.706,12.260 15.640 C 11.992 15.596,11.980 15.596,11.704 15.642 " fill="#1C274C" stroke="none" fill-rule="evenodd"></path></svg>