<svg width="24" height="24" viewBox="0 0 24 24" fill="none" xmlns="http://www.w3.org/2000/svg"><path d="M11.960 2.024 C 10.509 2.197,9.385 2.728,8.419 3.697 C 7.586 4.533,7.079 5.489,6.857 6.640 C 6.703 7.443,6.781 8.626,7.037 9.372 L 7.117 9.604 6.868 9.572 C 6.483 9.522,5.773 9.546,5.420 9.620 C 3.774 9.964,2.522 11.178,2.112 12.827 C 2.001 13.274,1.990 14.181,2.091 14.621 C 2.493 16.381,3.875 17.674,5.640 17.942 C 5.880 17.978,6.332 18.000,6.866 18.000 L 7.711 18.000 7.914 17.584 C 8.395 16.600,9.292 15.808,10.319 15.461 L 10.577 15.373 10.626 14.987 C 10.720 14.241,10.924 13.632,11.278 13.043 C 12.229 11.462,13.906 10.518,15.780 10.510 C 17.109 10.504,18.294 10.936,19.300 11.794 C 19.920 12.322,20.454 13.088,20.721 13.830 C 20.770 13.968,20.823 14.080,20.838 14.080 C 20.853 14.080,21.015 14.179,21.198 14.299 C 21.381 14.419,21.545 14.509,21.561 14.499 C 21.611 14.469,21.833 13.726,21.908 13.340 C 22.011 12.806,22.001 11.793,21.886 11.252 C 21.562 9.726,20.701 8.472,19.400 7.630 C 19.025 7.387,18.782 7.261,18.420 7.120 C 18.288 7.069,18.176 7.024,18.171 7.021 C 18.166 7.018,18.127 6.835,18.085 6.614 C 17.814 5.217,17.060 4.010,15.929 3.161 C 14.964 2.436,13.856 2.052,12.641 2.021 C 12.343 2.013,12.037 2.015,11.960 2.024 M15.153 12.057 C 14.752 12.128,14.489 12.215,14.112 12.401 C 13.663 12.623,13.460 12.772,13.080 13.158 C 12.235 14.018,11.909 15.197,12.202 16.340 C 12.241 16.494,12.284 16.647,12.297 16.681 C 12.318 16.734,12.266 16.740,11.903 16.727 C 10.242 16.665,8.922 17.932,9.013 19.500 C 9.083 20.703,9.969 21.680,11.224 21.940 C 11.661 22.030,18.475 22.030,18.950 21.940 C 19.820 21.775,20.447 21.436,21.045 20.811 C 22.728 19.049,22.104 16.258,19.802 15.254 L 19.503 15.124 19.449 14.852 C 19.318 14.207,18.983 13.594,18.494 13.107 C 18.006 12.620,17.432 12.298,16.727 12.116 C 16.326 12.012,15.567 11.984,15.153 12.057 " fill="#1C274C" stroke="none" fill-rule="evenodd"></path></svg>