<svg width="24" height="24" viewBox="0 0 24 24" fill="none" xmlns="http://www.w3.org/2000/svg"><path d="M11.960 3.024 C 10.509 3.197,9.385 3.728,8.419 4.697 C 7.586 5.533,7.079 6.489,6.857 7.640 C 6.703 8.443,6.781 9.626,7.037 10.372 L 7.117 10.604 6.868 10.572 C 6.483 10.522,5.773 10.546,5.420 10.620 C 3.774 10.964,2.522 12.178,2.112 13.827 C 2.001 14.274,1.990 15.181,2.091 15.621 C 2.493 17.381,3.875 18.674,5.640 18.942 C 5.893 18.980,6.351 19.000,7.013 19.000 L 8.006 19.000 7.814 18.770 C 7.708 18.644,7.511 18.420,7.375 18.274 C 6.966 17.832,6.761 17.321,6.760 16.738 C 6.758 15.289,8.111 14.210,9.516 14.541 C 9.656 14.575,9.774 14.597,9.777 14.591 C 9.781 14.585,9.824 14.450,9.873 14.292 C 10.092 13.592,10.706 13.015,11.442 12.819 C 11.722 12.745,12.278 12.745,12.558 12.819 C 13.176 12.983,13.747 13.449,14.012 14.003 C 14.090 14.167,14.166 14.367,14.182 14.450 C 14.197 14.533,14.220 14.599,14.234 14.599 C 14.249 14.598,14.368 14.571,14.500 14.539 C 15.455 14.309,16.511 14.789,16.969 15.664 C 17.162 16.033,17.240 16.341,17.240 16.738 C 17.239 17.321,17.034 17.832,16.625 18.274 C 16.489 18.420,16.290 18.645,16.183 18.774 L 15.987 19.008 16.484 18.981 C 17.668 18.917,18.569 18.628,19.484 18.019 C 22.066 16.300,22.769 12.804,21.048 10.246 C 20.402 9.286,19.462 8.525,18.420 8.120 C 18.288 8.069,18.176 8.024,18.171 8.021 C 18.166 8.018,18.127 7.835,18.085 7.614 C 17.814 6.217,17.060 5.010,15.929 4.161 C 14.964 3.436,13.856 3.052,12.641 3.021 C 12.343 3.013,12.037 3.015,11.960 3.024 M11.811 14.278 C 11.639 14.320,11.417 14.493,11.330 14.652 C 11.269 14.764,11.258 14.927,11.248 15.972 L 11.236 17.164 11.108 17.085 C 11.038 17.042,10.586 16.780,10.103 16.503 C 9.273 16.026,9.215 16.000,9.007 16.000 C 8.339 16.000,8.004 16.779,8.474 17.241 C 8.554 17.320,9.039 17.625,9.552 17.919 C 10.064 18.212,10.469 18.466,10.452 18.483 C 10.434 18.500,10.006 18.750,9.500 19.040 C 8.994 19.330,8.523 19.627,8.452 19.700 C 8.225 19.938,8.189 20.302,8.366 20.589 C 8.530 20.855,8.873 20.997,9.165 20.919 C 9.256 20.894,9.732 20.641,10.222 20.357 C 10.713 20.072,11.143 19.829,11.177 19.815 C 11.233 19.794,11.240 19.914,11.240 20.926 C 11.240 21.630,11.257 22.120,11.285 22.219 C 11.344 22.432,11.578 22.660,11.798 22.719 C 12.198 22.827,12.610 22.599,12.718 22.209 C 12.742 22.123,12.760 21.583,12.760 20.926 C 12.760 19.943,12.768 19.794,12.819 19.814 C 12.851 19.826,13.285 20.072,13.782 20.359 C 14.765 20.926,14.944 20.997,15.187 20.918 C 15.727 20.743,15.925 20.137,15.578 19.725 C 15.523 19.660,15.051 19.360,14.529 19.059 C 14.007 18.758,13.566 18.498,13.548 18.482 C 13.531 18.466,13.936 18.212,14.448 17.919 C 14.961 17.625,15.446 17.320,15.526 17.241 C 15.997 16.778,15.668 16.000,15.000 16.000 C 14.788 16.000,14.735 16.024,14.018 16.435 C 13.601 16.674,13.152 16.934,13.020 17.012 L 12.780 17.153 12.760 15.967 C 12.741 14.863,12.734 14.770,12.658 14.641 C 12.494 14.361,12.122 14.202,11.811 14.278 " fill="#1C274C" stroke="none" fill-rule="evenodd"></path></svg>