<svg width="24" height="24" viewBox="0 0 24 24" fill="none" xmlns="http://www.w3.org/2000/svg"><path d="M11.960 3.024 C 10.509 3.197,9.385 3.728,8.419 4.697 C 7.586 5.533,7.079 6.489,6.857 7.640 C 6.703 8.443,6.781 9.626,7.037 10.372 L 7.117 10.604 6.868 10.572 C 6.483 10.522,5.773 10.546,5.420 10.620 C 4.008 10.915,2.831 11.896,2.302 13.218 C 2.095 13.735,2.024 14.131,2.026 14.760 C 2.027 15.629,2.209 16.284,2.636 16.964 C 3.460 18.275,4.806 18.999,6.423 19.000 L 6.826 19.000 7.062 18.618 C 7.369 18.122,7.789 17.602,8.052 17.394 C 8.327 17.175,8.668 17.017,9.038 16.936 C 9.204 16.899,9.344 16.866,9.349 16.863 C 9.354 16.859,9.303 16.715,9.236 16.542 C 8.910 15.702,8.929 14.912,9.294 14.109 C 9.663 13.301,10.437 12.386,10.971 12.127 C 11.634 11.806,12.373 11.806,13.026 12.128 C 13.477 12.350,13.972 12.867,14.408 13.569 C 15.056 14.614,15.164 15.513,14.764 16.542 C 14.697 16.715,14.646 16.859,14.651 16.863 C 14.656 16.866,14.796 16.899,14.962 16.936 C 15.735 17.105,16.257 17.542,16.903 18.561 C 17.028 18.759,17.154 18.920,17.183 18.920 C 17.211 18.920,17.357 18.894,17.507 18.862 C 18.581 18.635,19.536 18.110,20.342 17.303 C 21.159 16.486,21.634 15.608,21.889 14.447 C 22.011 13.889,22.010 12.831,21.887 12.252 C 21.560 10.723,20.701 9.472,19.400 8.630 C 19.025 8.387,18.782 8.261,18.420 8.120 C 18.288 8.069,18.176 8.024,18.171 8.021 C 18.166 8.018,18.127 7.835,18.085 7.614 C 17.814 6.217,17.060 5.010,15.929 4.161 C 14.964 3.436,13.856 3.052,12.641 3.021 C 12.343 3.013,12.037 3.015,11.960 3.024 M11.635 13.480 C 11.455 13.575,11.218 13.841,10.939 14.260 C 10.644 14.702,10.554 14.926,10.530 15.272 C 10.470 16.128,11.056 16.891,11.845 16.983 C 12.743 17.089,13.533 16.264,13.470 15.287 C 13.447 14.925,13.362 14.712,13.061 14.260 C 12.776 13.832,12.543 13.573,12.357 13.478 C 12.157 13.376,11.830 13.377,11.635 13.480 M9.125 18.487 C 8.826 18.635,8.257 19.425,8.081 19.937 C 7.886 20.504,8.078 21.167,8.569 21.622 C 8.937 21.963,9.409 22.076,9.879 21.937 C 10.401 21.782,10.788 21.357,10.940 20.773 C 11.022 20.461,11.015 20.217,10.919 19.937 C 10.741 19.421,10.171 18.631,9.871 18.485 C 9.639 18.373,9.353 18.374,9.125 18.487 M14.126 18.486 C 13.870 18.613,13.305 19.370,13.124 19.829 C 12.818 20.605,13.188 21.518,13.951 21.872 C 14.139 21.959,14.238 21.978,14.500 21.978 C 14.762 21.978,14.861 21.959,15.049 21.872 C 15.809 21.519,16.181 20.605,15.878 19.835 C 15.694 19.368,15.126 18.609,14.866 18.483 C 14.640 18.373,14.351 18.375,14.126 18.486 " fill="#1C274C" stroke="none" fill-rule="evenodd"></path></svg>