<svg width="24" height="24" viewBox="0 0 24 24" fill="none" xmlns="http://www.w3.org/2000/svg"><path d="M11.960 2.024 C 10.509 2.197,9.385 2.728,8.419 3.697 C 7.586 4.533,7.079 5.489,6.857 6.640 C 6.703 7.443,6.781 8.626,7.037 9.372 L 7.117 9.604 6.868 9.572 C 6.483 9.522,5.773 9.546,5.420 9.620 C 3.774 9.964,2.522 11.178,2.112 12.827 C 2.001 13.274,1.990 14.181,2.091 14.621 C 2.493 16.381,3.875 17.674,5.640 17.942 C 5.849 17.974,6.121 18.000,6.244 18.000 L 6.469 18.000 6.497 17.050 C 6.542 15.527,6.653 14.921,7.012 14.220 C 7.242 13.772,7.772 13.242,8.220 13.012 C 9.071 12.576,9.598 12.505,12.000 12.505 C 14.402 12.505,14.929 12.576,15.780 13.012 C 16.228 13.242,16.758 13.772,16.988 14.220 C 17.341 14.908,17.455 15.519,17.502 16.970 C 17.527 17.768,17.536 17.840,17.601 17.840 C 17.641 17.840,17.839 17.786,18.042 17.719 C 19.792 17.147,21.161 15.791,21.723 14.072 C 21.918 13.475,21.977 13.061,21.975 12.320 C 21.972 11.580,21.897 11.121,21.675 10.492 C 21.138 8.970,19.912 7.700,18.420 7.120 C 18.288 7.069,18.176 7.024,18.171 7.021 C 18.166 7.018,18.127 6.835,18.085 6.614 C 17.814 5.217,17.060 4.010,15.929 3.161 C 14.964 2.436,13.856 2.052,12.641 2.021 C 12.343 2.013,12.037 2.015,11.960 2.024 M10.153 14.044 C 9.140 14.122,8.606 14.395,8.305 14.989 C 8.040 15.513,7.986 16.134,8.011 18.357 C 8.028 19.877,8.039 20.100,8.112 20.428 C 8.305 21.301,8.748 21.725,9.660 21.908 C 9.978 21.972,10.252 21.980,12.000 21.980 C 13.737 21.980,14.024 21.971,14.340 21.909 C 15.269 21.725,15.721 21.273,15.908 20.340 C 15.972 20.022,15.980 19.748,15.980 18.000 C 15.980 16.252,15.972 15.978,15.908 15.660 C 15.774 14.990,15.501 14.569,15.046 14.326 C 14.739 14.163,14.417 14.091,13.759 14.041 C 13.137 13.994,10.782 13.996,10.153 14.044 M12.351 15.667 C 12.504 15.782,12.601 15.926,12.642 16.103 C 12.662 16.189,12.679 16.682,12.679 17.197 L 12.680 18.134 12.770 18.051 C 13.038 17.805,13.386 17.728,13.640 17.860 C 13.805 17.945,13.964 18.171,13.988 18.354 C 14.030 18.668,13.961 18.768,13.145 19.585 C 12.327 20.402,12.228 20.470,11.912 20.428 C 11.680 20.397,11.521 20.268,10.770 19.507 C 10.048 18.774,9.971 18.657,10.012 18.354 C 10.036 18.171,10.195 17.945,10.360 17.860 C 10.613 17.729,10.962 17.805,11.227 18.048 L 11.314 18.128 11.327 17.094 C 11.338 16.224,11.350 16.041,11.406 15.940 C 11.488 15.792,11.628 15.658,11.760 15.603 C 11.907 15.541,12.229 15.576,12.351 15.667 " fill="#1C274C" stroke="none" fill-rule="evenodd"></path></svg>