<svg width="24" height="24" viewBox="0 0 24 24" fill="none" xmlns="http://www.w3.org/2000/svg"><path d="M11.940 4.025 C 10.556 4.173,9.386 4.729,8.418 5.698 C 7.605 6.510,7.115 7.408,6.875 8.522 C 6.801 8.862,6.784 9.070,6.782 9.640 C 6.780 10.383,6.824 10.695,7.019 11.308 L 7.112 11.603 6.866 11.572 C 6.483 11.522,5.773 11.546,5.420 11.620 C 3.359 12.050,1.919 13.875,2.012 15.940 C 2.105 18.000,3.633 19.663,5.704 19.959 C 5.930 19.991,7.583 20.000,11.540 19.991 L 17.060 19.977 17.448 19.888 C 18.547 19.636,19.446 19.164,20.218 18.434 C 21.065 17.632,21.602 16.694,21.871 15.544 C 21.962 15.156,21.975 15.009,21.977 14.380 C 21.980 13.573,21.935 13.281,21.695 12.560 C 21.263 11.259,20.350 10.161,19.112 9.451 C 18.920 9.341,18.629 9.199,18.465 9.136 L 18.167 9.020 18.101 8.660 C 17.687 6.385,15.891 4.572,13.601 4.116 C 13.229 4.042,12.269 3.989,11.940 4.025 " fill="#1C274C" stroke="none" fill-rule="evenodd"></path></svg>