<svg width="24" height="24" viewBox="0 0 24 24" fill="none" xmlns="http://www.w3.org/2000/svg"><path d="M11.940 2.025 C 10.556 2.173,9.386 2.729,8.418 3.698 C 7.605 4.510,7.115 5.408,6.875 6.522 C 6.801 6.862,6.784 7.070,6.782 7.640 C 6.780 8.383,6.824 8.695,7.019 9.308 L 7.112 9.603 6.866 9.572 C 6.483 9.522,5.773 9.546,5.420 9.620 C 3.027 10.120,1.534 12.483,2.137 14.817 C 2.608 16.646,4.348 18.000,6.225 18.000 L 6.520 18.000 6.520 17.147 C 6.520 15.478,6.690 14.666,7.193 13.933 C 7.740 13.136,8.609 12.689,9.857 12.564 C 10.425 12.507,13.575 12.507,14.143 12.564 C 15.577 12.708,16.517 13.282,17.050 14.340 C 17.339 14.912,17.442 15.516,17.474 16.820 L 17.500 17.860 17.600 17.847 C 17.832 17.817,18.566 17.541,18.958 17.337 C 20.257 16.660,21.301 15.427,21.731 14.060 C 21.934 13.416,21.979 13.106,21.979 12.360 C 21.980 11.575,21.932 11.271,21.695 10.560 C 21.263 9.259,20.350 8.161,19.112 7.451 C 18.920 7.341,18.629 7.199,18.465 7.136 L 18.167 7.020 18.101 6.660 C 17.687 4.385,15.891 2.572,13.601 2.116 C 13.229 2.042,12.269 1.989,11.940 2.025 M10.200 14.039 C 8.799 14.157,8.300 14.559,8.087 15.740 C 8.033 16.039,8.022 16.423,8.022 18.000 C 8.022 19.577,8.033 19.961,8.087 20.260 C 8.276 21.311,8.689 21.724,9.740 21.913 C 10.039 21.967,10.423 21.978,12.000 21.978 C 13.577 21.978,13.961 21.967,14.260 21.913 C 15.312 21.724,15.711 21.325,15.910 20.267 C 16.012 19.721,16.012 16.279,15.910 15.733 C 15.714 14.689,15.310 14.278,14.300 14.094 C 13.928 14.026,10.842 13.985,10.200 14.039 M12.362 15.675 C 12.628 15.847,13.865 17.114,13.938 17.290 C 14.099 17.676,13.894 18.089,13.488 18.197 C 13.241 18.263,13.049 18.199,12.790 17.965 L 12.680 17.865 12.680 18.843 C 12.680 19.380,12.662 19.884,12.640 19.962 C 12.595 20.123,12.395 20.334,12.227 20.398 C 11.943 20.505,11.621 20.396,11.439 20.131 C 11.341 19.988,11.340 19.974,11.320 18.927 C 11.303 18.007,11.293 17.876,11.244 17.936 C 11.145 18.054,10.959 18.169,10.807 18.203 C 10.416 18.293,10.000 17.961,10.000 17.560 C 10.000 17.312,10.121 17.144,10.792 16.466 C 11.561 15.688,11.732 15.560,12.000 15.560 C 12.135 15.560,12.232 15.591,12.362 15.675 " fill="#1C274C" stroke="none" fill-rule="evenodd"></path></svg>