<svg width="24" height="24" viewBox="0 0 24 24" fill="none" xmlns="http://www.w3.org/2000/svg"><path d="M11.960 3.024 C 10.509 3.197,9.385 3.728,8.419 4.697 C 7.586 5.533,7.079 6.489,6.857 7.640 C 6.703 8.443,6.781 9.626,7.037 10.372 L 7.117 10.604 6.868 10.572 C 6.483 10.522,5.773 10.546,5.420 10.620 C 4.008 10.915,2.831 11.896,2.302 13.218 C 2.095 13.735,2.024 14.131,2.026 14.760 C 2.027 15.627,2.210 16.285,2.643 16.983 C 2.855 17.324,3.408 17.936,3.665 18.112 L 3.790 18.198 3.880 17.949 C 4.087 17.378,4.117 17.347,6.600 15.205 C 7.865 14.114,8.987 13.163,9.093 13.091 C 9.515 12.807,10.209 12.688,10.768 12.804 C 11.580 12.972,12.326 13.719,12.484 14.523 L 12.531 14.761 13.044 14.260 C 13.327 13.985,13.670 13.687,13.807 13.598 C 14.510 13.144,15.487 13.141,16.182 13.592 C 16.859 14.030,17.240 14.718,17.240 15.500 C 17.240 15.880,17.167 16.189,17.000 16.520 L 16.879 16.760 17.117 16.760 C 17.841 16.760,18.665 17.293,19.003 17.981 L 19.131 18.239 19.285 18.153 C 19.842 17.839,20.609 17.110,21.013 16.508 C 21.440 15.873,21.685 15.305,21.863 14.540 C 21.962 14.112,21.974 13.985,21.974 13.360 C 21.974 12.577,21.904 12.140,21.675 11.492 C 21.138 9.970,19.912 8.700,18.420 8.120 C 18.288 8.069,18.176 8.024,18.171 8.021 C 18.166 8.018,18.127 7.835,18.085 7.614 C 17.814 6.217,17.060 5.010,15.929 4.161 C 14.964 3.436,13.856 3.052,12.641 3.021 C 12.343 3.013,12.037 3.015,11.960 3.024 M10.074 14.287 C 9.993 14.309,9.849 14.392,9.754 14.473 C 8.484 15.549,5.479 18.152,5.412 18.233 C 5.364 18.292,5.303 18.424,5.275 18.527 C 5.215 18.752,5.267 18.970,5.426 19.160 C 5.641 19.415,5.658 19.418,7.015 19.440 L 8.249 19.460 6.886 20.632 C 6.137 21.277,5.478 21.858,5.423 21.924 C 5.023 22.399,5.371 23.119,6.000 23.120 C 6.151 23.120,6.262 23.094,6.354 23.038 C 6.494 22.952,10.404 19.601,10.730 19.286 C 11.061 18.967,11.123 18.609,10.904 18.278 C 10.710 17.986,10.694 17.982,9.282 17.960 L 8.025 17.940 9.457 16.705 C 10.968 15.401,11.038 15.325,11.038 15.000 C 11.038 14.690,10.790 14.365,10.489 14.282 C 10.316 14.234,10.272 14.234,10.074 14.287 M14.682 14.823 C 14.519 14.894,12.572 16.814,12.398 17.076 C 12.185 17.397,12.202 17.703,12.451 17.987 C 12.669 18.235,12.998 18.309,13.309 18.179 C 13.480 18.108,15.417 16.203,15.602 15.924 C 15.815 15.603,15.798 15.297,15.549 15.013 C 15.331 14.766,14.988 14.690,14.682 14.823 M16.815 18.277 C 16.618 18.325,16.526 18.407,15.393 19.547 C 14.462 20.484,14.321 20.642,14.281 20.795 C 14.130 21.365,14.634 21.870,15.205 21.720 C 15.359 21.679,15.519 21.535,16.527 20.527 C 17.535 19.519,17.679 19.359,17.720 19.205 C 17.806 18.878,17.687 18.564,17.412 18.385 C 17.241 18.275,17.001 18.231,16.815 18.277 M12.815 19.277 C 12.618 19.325,12.526 19.407,11.393 20.547 C 10.462 21.484,10.321 21.642,10.281 21.795 C 10.130 22.365,10.634 22.870,11.205 22.720 C 11.359 22.679,11.519 22.535,12.527 21.527 C 13.535 20.519,13.679 20.359,13.720 20.205 C 13.806 19.878,13.687 19.564,13.412 19.385 C 13.241 19.275,13.001 19.231,12.815 19.277 " fill="#1C274C" stroke="none" fill-rule="evenodd"></path></svg>