<svg width="24" height="24" viewBox="0 0 24 24" fill="none" xmlns="http://www.w3.org/2000/svg"><path d="M11.960 3.024 C 10.509 3.197,9.385 3.728,8.419 4.697 C 7.586 5.533,7.079 6.489,6.857 7.640 C 6.703 8.443,6.781 9.626,7.037 10.372 L 7.117 10.604 6.868 10.572 C 6.483 10.522,5.773 10.546,5.420 10.620 C 3.774 10.964,2.522 12.178,2.112 13.827 C 2.001 14.274,1.990 15.181,2.091 15.621 C 2.493 17.381,3.875 18.674,5.640 18.942 C 5.849 18.974,6.140 19.000,6.287 19.000 L 6.554 19.000 6.582 18.870 C 6.618 18.701,6.812 18.271,6.922 18.117 C 6.999 18.009,7.002 17.989,6.949 17.928 C 6.842 17.807,6.647 17.380,6.578 17.117 C 6.491 16.783,6.491 16.217,6.578 15.883 C 6.696 15.435,6.898 15.093,7.255 14.736 C 7.504 14.488,7.652 14.377,7.887 14.264 C 8.621 13.913,9.379 13.913,10.119 14.267 C 10.511 14.454,11.042 14.976,11.215 15.345 L 11.330 15.591 11.475 15.549 C 11.662 15.495,12.338 15.495,12.525 15.549 L 12.670 15.591 12.785 15.345 C 12.958 14.976,13.489 14.454,13.881 14.267 C 14.621 13.913,15.379 13.913,16.113 14.264 C 16.707 14.549,17.248 15.217,17.421 15.880 C 17.509 16.217,17.510 16.782,17.422 17.117 C 17.353 17.380,17.158 17.807,17.051 17.928 C 16.998 17.989,17.000 18.008,17.075 18.114 C 17.192 18.277,17.400 18.725,17.400 18.812 C 17.400 18.873,17.422 18.880,17.550 18.856 C 17.633 18.841,17.860 18.777,18.055 18.714 C 19.785 18.153,21.163 16.786,21.723 15.072 C 21.918 14.475,21.977 14.061,21.975 13.320 C 21.972 12.580,21.897 12.121,21.675 11.492 C 21.138 9.970,19.912 8.700,18.420 8.120 C 18.288 8.069,18.176 8.024,18.171 8.021 C 18.166 8.018,18.127 7.835,18.085 7.614 C 17.814 6.217,17.060 5.010,15.929 4.161 C 14.964 3.436,13.856 3.052,12.641 3.021 C 12.343 3.013,12.037 3.015,11.960 3.024 M8.780 15.516 C 8.486 15.592,8.229 15.799,8.096 16.067 C 7.994 16.272,7.992 16.724,8.092 16.924 C 8.468 17.679,9.532 17.679,9.908 16.924 C 10.008 16.724,10.006 16.272,9.904 16.067 C 9.701 15.658,9.192 15.409,8.780 15.516 M14.780 15.516 C 14.486 15.592,14.229 15.799,14.096 16.067 C 13.994 16.272,13.992 16.724,14.092 16.924 C 14.468 17.679,15.532 17.679,15.908 16.924 C 16.008 16.724,16.006 16.272,15.904 16.067 C 15.701 15.658,15.192 15.409,14.780 15.516 M11.580 17.095 C 10.811 17.459,10.805 18.516,11.569 18.897 C 12.406 19.314,13.314 18.406,12.897 17.569 C 12.647 17.068,12.074 16.862,11.580 17.095 M8.617 18.577 C 8.434 18.656,8.207 18.871,8.109 19.056 C 7.988 19.285,7.988 19.715,8.109 19.944 C 8.209 20.134,8.437 20.346,8.626 20.425 C 8.795 20.496,9.205 20.496,9.374 20.425 C 9.563 20.346,9.791 20.134,9.891 19.944 C 10.012 19.715,10.012 19.285,9.891 19.056 C 9.791 18.866,9.563 18.654,9.374 18.575 C 9.208 18.505,8.778 18.506,8.617 18.577 M14.617 18.577 C 14.434 18.656,14.207 18.871,14.109 19.056 C 13.988 19.285,13.988 19.715,14.109 19.944 C 14.209 20.134,14.437 20.346,14.626 20.425 C 14.795 20.496,15.205 20.496,15.374 20.425 C 15.563 20.346,15.791 20.134,15.891 19.944 C 15.956 19.821,15.978 19.710,15.978 19.500 C 15.978 19.290,15.956 19.179,15.891 19.056 C 15.791 18.866,15.563 18.654,15.374 18.575 C 15.208 18.505,14.778 18.506,14.617 18.577 M11.667 20.065 C 11.399 20.147,11.145 20.408,11.063 20.684 C 10.984 20.947,10.984 21.052,11.061 21.310 C 11.173 21.688,11.598 22.000,12.000 22.000 C 12.058 22.000,12.198 21.973,12.310 21.939 C 12.688 21.827,13.000 21.402,13.000 21.000 C 13.000 20.598,12.688 20.173,12.310 20.061 C 12.061 19.987,11.919 19.988,11.667 20.065 " fill="#1C274C" stroke="none" fill-rule="evenodd"></path></svg>