<svg width="24" height="24" viewBox="0 0 24 24" fill="none" xmlns="http://www.w3.org/2000/svg"><path d="M11.300 2.027 C 10.396 2.103,9.297 2.339,8.537 2.620 C 6.161 3.500,4.142 5.321,3.043 7.576 C 2.565 8.556,2.280 9.464,2.113 10.540 C 1.989 11.339,1.989 12.662,2.113 13.460 C 2.235 14.246,2.403 14.883,2.685 15.631 L 2.719 15.722 2.889 15.635 C 2.983 15.587,3.176 15.509,3.319 15.461 L 3.577 15.373 3.626 14.987 C 3.720 14.241,3.924 13.632,4.278 13.043 C 5.224 11.470,6.889 10.528,8.763 10.506 L 9.307 10.500 9.217 10.175 C 8.828 8.757,8.976 7.109,9.618 5.740 C 10.134 4.640,11.009 3.648,12.043 2.991 C 12.313 2.820,12.420 2.631,12.387 2.384 C 12.371 2.268,12.329 2.188,12.242 2.110 C 12.127 2.007,12.097 2.000,11.789 2.007 C 11.608 2.010,11.388 2.019,11.300 2.027 M21.286 11.666 C 21.201 11.709,21.079 11.844,20.952 12.037 C 20.272 13.066,19.315 13.897,18.232 14.397 C 17.431 14.767,16.650 14.950,15.712 14.987 L 15.085 15.012 15.309 15.276 C 16.694 16.905,16.887 19.202,15.791 21.000 C 15.690 21.165,15.612 21.305,15.618 21.311 C 15.639 21.332,16.306 21.032,16.680 20.833 C 17.534 20.379,18.328 19.792,19.022 19.100 C 19.600 18.525,19.906 18.152,20.351 17.483 C 21.329 16.011,21.887 14.284,21.983 12.430 L 22.011 11.894 21.894 11.763 C 21.749 11.600,21.495 11.559,21.286 11.666 M8.153 12.057 C 7.752 12.128,7.489 12.215,7.112 12.401 C 6.663 12.623,6.460 12.772,6.080 13.158 C 5.235 14.018,4.909 15.197,5.202 16.340 C 5.241 16.494,5.284 16.647,5.297 16.681 C 5.318 16.734,5.266 16.740,4.903 16.727 C 3.242 16.665,1.922 17.932,2.013 19.500 C 2.083 20.703,2.969 21.680,4.224 21.940 C 4.661 22.030,11.475 22.030,11.950 21.940 C 12.820 21.775,13.447 21.436,14.045 20.811 C 15.728 19.049,15.104 16.258,12.802 15.254 L 12.503 15.124 12.449 14.852 C 12.318 14.207,11.983 13.594,11.494 13.107 C 11.006 12.620,10.432 12.298,9.727 12.116 C 9.326 12.012,8.567 11.984,8.153 12.057 " fill="#1C274C" stroke="none" fill-rule="evenodd"></path></svg>