<svg width="24" height="24" viewBox="0 0 24 24" fill="none" xmlns="http://www.w3.org/2000/svg"><path d="M13.900 4.258 C 13.878 4.266,13.811 4.284,13.751 4.297 C 13.598 4.331,13.386 4.527,13.308 4.708 C 13.175 5.015,9.280 19.661,9.280 19.854 C 9.280 19.959,9.306 20.094,9.338 20.156 C 9.417 20.308,9.657 20.514,9.791 20.543 C 9.851 20.556,9.924 20.574,9.953 20.583 C 9.982 20.592,10.087 20.579,10.187 20.554 C 10.431 20.493,10.650 20.278,10.733 20.020 C 10.768 19.910,11.679 16.523,12.758 12.493 C 14.037 7.716,14.720 5.099,14.720 4.976 C 14.720 4.733,14.580 4.488,14.374 4.373 C 14.223 4.288,13.979 4.229,13.900 4.258 M6.700 7.157 C 6.511 7.245,4.152 9.357,3.460 10.057 C 2.538 10.990,2.180 11.720,2.254 12.519 C 2.315 13.174,2.630 13.738,3.355 14.491 C 3.860 15.016,6.501 17.407,6.675 17.497 C 6.845 17.586,7.141 17.576,7.348 17.476 C 7.679 17.316,7.838 16.825,7.667 16.493 C 7.631 16.424,6.985 15.811,6.231 15.131 C 5.477 14.450,4.659 13.684,4.414 13.428 C 3.593 12.573,3.549 12.248,4.152 11.507 C 4.409 11.191,4.910 10.716,6.440 9.341 C 7.046 8.796,7.583 8.281,7.636 8.193 C 7.749 8.005,7.765 7.683,7.670 7.499 C 7.483 7.140,7.057 6.990,6.700 7.157 M16.720 7.144 C 16.300 7.326,16.134 7.810,16.361 8.188 C 16.418 8.282,16.930 8.775,17.560 9.341 C 19.090 10.716,19.591 11.191,19.848 11.507 C 20.451 12.248,20.407 12.574,19.586 13.427 C 19.341 13.683,18.523 14.449,17.769 15.130 C 17.015 15.811,16.369 16.425,16.333 16.493 C 16.162 16.825,16.321 17.316,16.652 17.476 C 16.859 17.576,17.155 17.586,17.326 17.497 C 17.500 17.407,20.136 15.019,20.645 14.491 C 21.370 13.739,21.685 13.174,21.746 12.519 C 21.820 11.720,21.462 10.990,20.540 10.057 C 19.848 9.357,17.489 7.245,17.300 7.157 C 17.107 7.066,16.909 7.062,16.720 7.144 " fill="#1C274C" stroke="none" fill-rule="evenodd"></path></svg>