<svg width="24" height="24" viewBox="0 0 24 24" fill="none" xmlns="http://www.w3.org/2000/svg"><path d="M7.400 1.282 C 4.758 1.357,3.543 1.717,2.598 2.706 C 1.893 3.442,1.560 4.278,1.379 5.760 C 1.289 6.500,1.212 9.826,1.277 10.134 C 1.395 10.684,2.019 10.919,2.464 10.580 C 2.738 10.371,2.736 10.380,2.764 8.340 C 2.792 6.353,2.840 5.727,3.022 5.007 C 3.168 4.425,3.355 4.077,3.716 3.716 C 4.466 2.965,5.521 2.760,8.627 2.760 C 9.447 2.760,10.035 2.743,10.162 2.716 C 10.920 2.553,10.920 1.447,10.162 1.284 C 9.939 1.236,9.036 1.236,7.400 1.282 M13.811 1.279 C 13.536 1.344,13.316 1.587,13.260 1.885 C 13.197 2.220,13.450 2.624,13.781 2.715 C 13.881 2.743,14.406 2.760,15.200 2.760 C 18.444 2.762,19.531 2.967,20.282 3.718 C 21.033 4.469,21.238 5.556,21.240 8.800 C 21.240 9.594,21.257 10.119,21.285 10.219 C 21.344 10.432,21.578 10.660,21.798 10.719 C 22.198 10.827,22.610 10.599,22.718 10.209 C 22.771 10.019,22.771 8.300,22.719 7.120 C 22.613 4.729,22.282 3.618,21.407 2.708 C 20.664 1.937,19.742 1.551,18.228 1.379 C 17.330 1.277,14.125 1.204,13.811 1.279 M6.909 5.041 C 5.750 5.143,5.276 5.521,5.090 6.491 C 5.005 6.935,4.991 9.736,5.073 10.090 C 5.196 10.625,5.529 10.887,6.180 10.959 C 6.647 11.011,9.353 11.011,9.820 10.959 C 10.452 10.889,10.795 10.631,10.921 10.130 C 10.988 9.864,11.022 6.778,10.964 6.230 C 10.891 5.546,10.645 5.207,10.130 5.079 C 9.894 5.021,7.468 4.992,6.909 5.041 M14.120 5.042 C 13.551 5.112,13.199 5.391,13.079 5.870 C 13.012 6.136,12.978 9.222,13.036 9.770 C 13.109 10.454,13.353 10.791,13.870 10.921 C 14.136 10.988,17.222 11.022,17.770 10.964 C 18.473 10.889,18.800 10.641,18.927 10.090 C 19.009 9.736,18.995 6.935,18.910 6.491 C 18.750 5.659,18.347 5.249,17.537 5.096 C 17.157 5.023,14.598 4.983,14.120 5.042 M6.120 13.045 C 5.535 13.111,5.191 13.396,5.073 13.910 C 4.990 14.269,5.005 17.065,5.091 17.517 C 5.251 18.349,5.651 18.748,6.491 18.910 C 6.934 18.996,9.734 19.009,10.090 18.927 C 10.641 18.800,10.889 18.473,10.964 17.770 C 11.022 17.222,10.988 14.136,10.921 13.870 C 10.795 13.369,10.452 13.111,9.820 13.041 C 9.390 12.993,6.547 12.996,6.120 13.045 M14.120 13.045 C 13.554 13.109,13.200 13.390,13.079 13.870 C 13.012 14.136,12.978 17.222,13.036 17.770 C 13.111 18.473,13.359 18.800,13.910 18.927 C 14.270 19.010,17.066 18.996,17.517 18.909 C 18.350 18.748,18.749 18.348,18.910 17.509 C 18.995 17.065,19.009 14.264,18.927 13.910 C 18.804 13.375,18.471 13.113,17.820 13.041 C 17.390 12.993,14.547 12.996,14.120 13.045 M1.807 13.288 C 1.546 13.345,1.340 13.571,1.278 13.866 C 1.224 14.127,1.253 16.581,1.322 17.560 C 1.461 19.520,1.801 20.481,2.660 21.340 C 3.519 22.199,4.480 22.539,6.440 22.678 C 7.419 22.747,9.873 22.776,10.134 22.722 C 10.826 22.577,10.959 21.646,10.332 21.336 C 10.192 21.267,10.029 21.259,8.340 21.236 C 5.878 21.202,5.070 21.101,4.320 20.734 C 3.907 20.532,3.468 20.093,3.266 19.680 C 2.899 18.930,2.798 18.122,2.764 15.660 C 2.741 13.971,2.733 13.808,2.664 13.668 C 2.549 13.434,2.385 13.327,2.040 13.261 C 2.007 13.255,1.902 13.267,1.807 13.288 M21.807 13.289 C 21.558 13.342,21.342 13.570,21.284 13.838 C 21.257 13.965,21.240 14.553,21.240 15.373 C 21.240 18.479,21.035 19.534,20.284 20.284 C 19.923 20.645,19.575 20.832,18.993 20.978 C 18.273 21.160,17.647 21.208,15.660 21.236 C 13.620 21.264,13.629 21.262,13.420 21.536 C 13.081 21.981,13.316 22.605,13.866 22.723 C 14.174 22.788,17.500 22.711,18.240 22.621 C 19.780 22.433,20.671 22.060,21.402 21.294 C 22.107 20.557,22.442 19.718,22.620 18.240 C 22.707 17.524,22.789 14.242,22.729 13.918 C 22.639 13.432,22.280 13.187,21.807 13.289 " fill="#1C274C" stroke="none" fill-rule="evenodd"></path></svg>