<svg width="24" height="24" viewBox="0 0 24 24" fill="none" xmlns="http://www.w3.org/2000/svg"><path d="M11.120 2.039 C 9.316 2.220,7.707 2.807,6.280 3.806 C 2.738 6.286,1.178 10.759,2.422 14.865 C 2.918 16.500,3.729 17.852,4.938 19.062 C 5.926 20.050,7.036 20.788,8.272 21.278 C 11.634 22.611,15.312 22.080,18.200 19.845 C 18.637 19.507,19.507 18.637,19.845 18.200 C 22.092 15.297,22.619 11.564,21.254 8.220 C 20.058 5.287,17.480 3.053,14.430 2.303 C 13.446 2.062,12.028 1.948,11.120 2.039 M13.739 6.577 C 13.941 6.731,14.057 6.996,14.027 7.237 C 14.007 7.396,11.652 16.254,11.440 16.965 C 11.379 17.170,11.325 17.263,11.201 17.374 C 11.114 17.453,10.992 17.529,10.931 17.542 C 10.870 17.556,10.796 17.574,10.766 17.584 C 10.673 17.613,10.387 17.518,10.246 17.411 C 10.091 17.294,9.962 17.039,9.961 16.849 C 9.960 16.738,12.415 7.476,12.583 6.957 C 12.639 6.783,12.805 6.586,12.980 6.484 C 13.025 6.458,13.174 6.443,13.324 6.450 C 13.543 6.460,13.615 6.482,13.739 6.577 M8.840 8.342 C 8.977 8.412,9.146 8.597,9.197 8.733 C 9.257 8.891,9.250 9.138,9.182 9.302 C 9.148 9.383,8.789 9.783,8.331 10.251 C 6.990 11.620,6.862 11.927,7.333 12.633 C 7.458 12.819,7.851 13.259,8.331 13.749 C 8.789 14.217,9.148 14.617,9.182 14.698 C 9.309 15.002,9.233 15.333,8.987 15.549 C 8.702 15.799,8.398 15.815,8.072 15.600 C 7.860 15.459,6.524 14.063,6.238 13.684 C 5.984 13.345,5.739 12.876,5.661 12.577 C 5.583 12.277,5.583 11.723,5.661 11.423 C 5.736 11.134,5.981 10.660,6.219 10.340 C 6.458 10.019,7.854 8.549,8.046 8.416 C 8.298 8.241,8.589 8.214,8.840 8.342 M15.846 8.344 C 15.987 8.416,16.234 8.653,16.952 9.408 C 17.633 10.122,17.892 10.450,18.119 10.884 C 18.325 11.278,18.400 11.576,18.400 12.000 C 18.400 12.189,18.373 12.449,18.339 12.577 C 18.261 12.876,18.016 13.346,17.760 13.686 C 17.484 14.053,16.136 15.459,15.924 15.602 C 15.606 15.815,15.297 15.798,15.013 15.549 C 14.767 15.333,14.691 15.002,14.818 14.698 C 14.852 14.617,15.211 14.217,15.669 13.749 C 17.010 12.380,17.138 12.073,16.667 11.367 C 16.542 11.181,16.149 10.741,15.669 10.251 C 15.211 9.783,14.852 9.383,14.818 9.302 C 14.745 9.127,14.743 8.877,14.814 8.708 C 14.881 8.548,15.124 8.329,15.271 8.297 C 15.331 8.284,15.398 8.267,15.420 8.260 C 15.486 8.238,15.733 8.287,15.846 8.344 " fill="#1C274C" stroke="none" fill-rule="evenodd"></path></svg>