<svg width="24" height="24" viewBox="0 0 24 24" fill="none" xmlns="http://www.w3.org/2000/svg"><path d="M7.000 2.042 C 5.267 2.116,4.370 2.322,3.617 2.822 C 3.247 3.067,3.032 3.286,2.784 3.670 C 2.379 4.297,2.196 4.988,2.072 6.360 C 1.997 7.194,1.997 16.806,2.072 17.640 C 2.196 19.012,2.379 19.703,2.784 20.330 C 3.032 20.714,3.247 20.933,3.617 21.178 C 4.284 21.620,4.944 21.800,6.360 21.928 C 7.194 22.003,16.806 22.003,17.640 21.928 C 19.012 21.804,19.703 21.621,20.330 21.216 C 20.714 20.968,20.933 20.753,21.178 20.383 C 21.848 19.371,21.998 18.230,21.999 14.116 C 22.000 13.091,21.988 12.088,21.974 11.886 L 21.948 11.520 19.524 11.519 C 16.948 11.519,15.579 11.478,14.960 11.382 C 13.028 11.086,11.914 9.972,11.618 8.040 C 11.520 7.408,11.472 5.884,11.487 3.900 L 11.500 2.020 9.600 2.016 C 8.555 2.014,7.385 2.026,7.000 2.042 M13.011 4.830 C 13.025 6.992,13.038 7.443,13.096 7.794 C 13.317 9.127,13.872 9.682,15.206 9.904 C 15.565 9.964,16.019 9.975,18.595 9.990 C 21.306 10.004,21.569 10.000,21.546 9.942 C 21.480 9.768,21.143 9.337,20.782 8.964 C 20.428 8.597,16.167 4.729,14.660 3.405 C 14.099 2.912,13.475 2.463,13.185 2.344 C 13.100 2.309,13.022 2.280,13.012 2.280 C 13.002 2.280,13.001 3.428,13.011 4.830 M7.271 13.302 C 7.468 13.384,7.595 13.506,7.684 13.700 C 7.843 14.043,7.759 14.296,7.349 14.710 L 7.062 15.000 7.349 15.290 C 7.750 15.694,7.837 15.939,7.698 16.271 C 7.579 16.557,7.290 16.758,7.000 16.758 C 6.744 16.758,6.556 16.625,5.952 16.014 C 4.994 15.047,4.994 14.953,5.952 13.986 C 6.688 13.242,6.884 13.140,7.271 13.302 M10.219 13.285 C 10.545 13.375,10.803 13.779,10.742 14.104 C 10.728 14.176,10.368 15.165,9.942 16.302 C 9.116 18.502,9.100 18.536,8.780 18.684 C 8.563 18.784,8.413 18.779,8.178 18.661 C 7.924 18.533,7.792 18.340,7.769 18.064 C 7.752 17.869,7.808 17.701,8.544 15.737 C 9.397 13.459,9.420 13.413,9.740 13.300 C 9.936 13.231,10.015 13.228,10.219 13.285 M11.825 15.340 C 12.072 15.463,13.092 16.482,13.180 16.695 C 13.256 16.877,13.256 17.123,13.180 17.305 C 13.147 17.384,12.879 17.694,12.574 18.004 C 11.846 18.743,11.607 18.863,11.220 18.684 C 10.923 18.547,10.760 18.303,10.760 17.996 C 10.760 17.757,10.845 17.599,11.141 17.285 L 11.410 17.000 11.141 16.715 C 10.845 16.401,10.760 16.243,10.760 16.004 C 10.760 15.697,10.923 15.453,11.220 15.316 C 11.437 15.215,11.587 15.221,11.825 15.340 " fill="#1C274C" stroke="none" fill-rule="evenodd"></path></svg>