<svg width="24" height="24" viewBox="0 0 24 24" fill="none" xmlns="http://www.w3.org/2000/svg"><path d="M7.300 2.026 C 6.601 2.050,5.735 2.126,5.300 2.200 C 3.429 2.521,2.501 3.463,2.186 5.360 C 2.027 6.313,2.020 6.613,2.020 12.060 C 2.020 16.872,2.026 17.395,2.091 17.957 C 2.262 19.433,2.551 20.195,3.178 20.822 C 3.926 21.570,4.854 21.851,6.940 21.962 C 8.040 22.021,17.239 21.990,17.820 21.926 C 19.212 21.772,19.994 21.522,20.589 21.040 C 21.395 20.387,21.755 19.500,21.929 17.740 C 22.002 16.992,22.002 7.008,21.929 6.260 C 21.786 4.816,21.531 4.008,21.022 3.391 C 20.367 2.598,19.477 2.242,17.720 2.074 C 17.298 2.034,8.271 1.992,7.300 2.026 M10.160 5.346 C 11.216 5.638,12.028 6.784,12.415 8.525 C 12.635 9.516,12.707 10.291,12.759 12.200 C 12.808 14.027,12.919 14.882,13.223 15.796 C 13.606 16.944,14.186 17.453,14.772 17.154 C 15.012 17.031,15.432 16.592,15.659 16.226 C 15.766 16.053,15.922 15.731,16.006 15.509 C 16.166 15.088,16.283 14.926,16.502 14.822 C 16.781 14.690,17.227 14.797,17.398 15.038 C 17.546 15.245,17.579 15.469,17.504 15.760 C 17.416 16.102,17.058 16.842,16.793 17.230 C 16.529 17.617,15.929 18.217,15.628 18.395 C 15.094 18.711,14.563 18.814,14.040 18.704 C 12.851 18.454,11.997 17.330,11.585 15.474 C 11.365 14.484,11.293 13.716,11.240 11.780 C 11.191 10.030,11.103 9.291,10.836 8.394 C 10.526 7.348,10.060 6.764,9.536 6.761 C 9.232 6.759,8.777 7.124,8.414 7.660 C 8.202 7.974,8.138 8.102,7.977 8.533 C 7.904 8.730,7.794 8.945,7.732 9.011 C 7.508 9.249,7.163 9.307,6.853 9.157 C 6.650 9.058,6.541 8.918,6.476 8.676 C 6.412 8.432,6.499 8.110,6.796 7.500 C 7.160 6.752,7.599 6.185,8.117 5.793 C 8.782 5.289,9.437 5.146,10.160 5.346 M9.820 11.326 C 10.308 11.596,10.389 12.195,9.987 12.549 C 9.907 12.619,9.774 12.696,9.691 12.721 C 9.587 12.751,8.950 12.761,7.660 12.752 C 5.849 12.740,5.775 12.737,5.641 12.658 C 5.564 12.613,5.448 12.501,5.384 12.409 C 5.098 12.003,5.329 11.397,5.815 11.277 C 5.884 11.260,6.786 11.249,7.820 11.253 C 9.489 11.259,9.713 11.267,9.820 11.326 M18.373 11.355 C 18.615 11.506,18.733 11.718,18.733 12.003 C 18.733 12.203,18.714 12.270,18.616 12.409 C 18.552 12.501,18.436 12.613,18.359 12.658 C 18.225 12.737,18.151 12.740,16.340 12.752 C 15.050 12.761,14.413 12.751,14.309 12.721 C 14.226 12.696,14.093 12.619,14.013 12.549 C 13.669 12.247,13.670 11.753,14.015 11.450 C 14.095 11.379,14.211 11.310,14.271 11.297 C 14.331 11.284,14.398 11.267,14.420 11.259 C 14.442 11.251,15.306 11.248,16.340 11.252 L 18.220 11.260 18.373 11.355 " fill="#1C274C" stroke="none" fill-rule="evenodd"></path></svg>