<svg width="24" height="24" viewBox="0 0 24 24" fill="none" xmlns="http://www.w3.org/2000/svg"><path d="M4.425 2.064 C 4.062 2.130,3.522 2.368,3.222 2.595 C 2.101 3.445,1.708 4.859,2.234 6.151 C 2.521 6.857,3.143 7.479,3.849 7.766 C 4.380 7.983,4.567 8.000,6.358 8.000 L 8.000 8.000 8.000 11.997 L 8.000 15.995 6.250 16.010 C 4.572 16.024,4.488 16.029,4.201 16.115 C 3.668 16.276,3.300 16.497,2.897 16.898 C 2.589 17.204,2.505 17.318,2.347 17.640 C 2.029 18.287,1.935 18.887,2.052 19.506 C 2.292 20.768,3.219 21.704,4.467 21.943 C 5.745 22.187,7.086 21.517,7.660 20.345 C 7.976 19.702,7.973 19.722,7.990 17.750 L 8.005 16.000 12.000 16.000 L 15.995 16.000 16.010 17.750 C 16.027 19.722,16.024 19.702,16.340 20.345 C 16.742 21.166,17.540 21.765,18.467 21.943 C 19.625 22.164,20.838 21.643,21.497 20.642 C 21.846 20.111,22.028 19.444,21.987 18.840 C 21.956 18.383,21.875 18.093,21.653 17.640 C 21.495 17.318,21.411 17.204,21.103 16.898 C 20.700 16.497,20.332 16.276,19.799 16.115 C 19.512 16.029,19.428 16.024,17.750 16.010 L 16.000 15.995 16.000 11.997 L 16.000 8.000 17.642 8.000 C 18.964 8.000,19.341 7.988,19.581 7.938 C 20.785 7.690,21.690 6.785,21.938 5.581 C 22.271 3.971,21.164 2.344,19.542 2.061 C 19.099 1.984,18.901 1.984,18.458 2.061 C 17.483 2.232,16.566 2.977,16.220 3.882 C 16.016 4.414,16.001 4.575,16.001 6.350 L 16.000 8.000 12.000 8.000 L 8.000 8.000 7.999 6.350 C 7.999 4.575,7.984 4.414,7.780 3.882 C 7.434 2.977,6.517 2.232,5.542 2.061 C 5.118 1.988,4.845 1.988,4.425 2.064 " fill="#1C274C" stroke="none" fill-rule="evenodd"></path></svg>