<svg width="24" height="24" viewBox="0 0 24 24" fill="none" xmlns="http://www.w3.org/2000/svg"><path d="M11.120 2.039 C 9.316 2.220,7.707 2.807,6.280 3.806 C 2.738 6.286,1.178 10.759,2.422 14.865 C 2.918 16.499,3.727 17.848,4.939 19.062 C 5.925 20.049,7.036 20.787,8.272 21.278 C 11.634 22.610,15.313 22.080,18.200 19.845 C 18.637 19.507,19.507 18.637,19.845 18.200 C 22.091 15.298,22.618 11.564,21.254 8.220 C 20.058 5.287,17.480 3.053,14.430 2.303 C 13.446 2.062,12.028 1.948,11.120 2.039 M14.947 8.421 C 15.141 8.501,15.464 8.821,15.567 9.034 C 15.640 9.184,15.657 9.285,15.654 9.560 C 15.650 10.141,15.479 10.704,14.753 12.528 C 14.277 13.726,14.135 13.982,13.829 14.187 C 13.634 14.318,11.779 15.071,10.944 15.357 C 10.307 15.576,9.726 15.694,9.430 15.664 C 9.119 15.633,8.958 15.559,8.723 15.338 C 8.104 14.760,8.188 14.132,9.236 11.494 C 9.700 10.324,9.828 10.079,10.073 9.886 C 10.278 9.725,10.352 9.691,11.363 9.287 C 13.338 8.498,14.019 8.299,14.578 8.346 C 14.709 8.357,14.875 8.390,14.947 8.421 " fill="#1C274C" stroke="none" fill-rule="evenodd"></path></svg>