<svg width="24" height="24" viewBox="0 0 24 24" fill="none" xmlns="http://www.w3.org/2000/svg"><path d="M1.811 6.278 C 1.415 6.375,1.173 6.797,1.280 7.204 C 1.321 7.362,1.526 7.580,3.293 9.354 C 5.542 11.611,6.458 12.486,6.837 12.738 C 7.681 13.299,8.482 13.272,9.354 12.652 C 9.500 12.548,9.989 12.102,10.440 11.661 C 10.891 11.219,11.428 10.700,11.633 10.508 C 12.003 10.161,12.354 9.921,12.491 9.920 C 12.622 9.920,12.937 10.111,13.220 10.364 C 13.374 10.501,15.001 12.104,16.836 13.925 L 20.171 17.236 18.196 17.248 L 16.220 17.260 16.059 17.352 C 15.802 17.500,15.700 17.684,15.700 18.000 C 15.700 18.335,15.809 18.516,16.098 18.661 L 16.296 18.760 19.178 18.760 C 21.157 18.760,22.110 18.746,22.219 18.715 C 22.423 18.659,22.659 18.423,22.715 18.219 C 22.746 18.110,22.760 17.162,22.760 15.195 L 22.760 12.329 22.649 12.117 C 22.381 11.604,21.660 11.580,21.369 12.074 L 21.260 12.260 21.240 14.211 L 21.220 16.161 17.760 12.729 C 15.857 10.841,14.158 9.184,13.985 9.046 C 13.302 8.504,12.679 8.330,12.028 8.500 C 11.459 8.648,11.083 8.937,9.656 10.329 C 8.155 11.791,8.101 11.818,7.535 11.391 C 7.384 11.277,6.171 10.101,4.840 8.777 C 3.509 7.454,2.384 6.353,2.340 6.330 C 2.219 6.268,1.956 6.243,1.811 6.278 " fill="#1C274C" stroke="none" fill-rule="evenodd"></path></svg>