<svg width="24" height="24" viewBox="0 0 24 24" fill="none" xmlns="http://www.w3.org/2000/svg"><path d="M18.200 2.024 C 16.974 2.170,15.546 2.577,13.300 3.421 C 11.661 4.037,8.106 5.465,7.607 5.708 C 6.646 6.176,6.116 6.718,5.654 7.705 C 5.471 8.099,4.356 10.868,3.734 12.475 C 1.935 17.127,1.618 19.008,2.407 20.353 C 2.579 20.646,3.354 21.421,3.647 21.593 C 4.976 22.372,6.798 22.078,11.280 20.359 C 12.811 19.772,15.876 18.541,16.299 18.344 C 17.304 17.874,17.874 17.304,18.344 16.299 C 18.529 15.902,19.642 13.139,20.266 11.525 C 21.885 7.338,22.279 5.468,21.821 4.147 C 21.687 3.762,21.507 3.479,21.160 3.108 C 20.640 2.553,20.166 2.247,19.600 2.103 C 19.346 2.038,18.486 1.990,18.200 2.024 M12.948 8.381 C 13.321 8.476,13.825 8.704,14.158 8.931 C 14.392 9.090,14.910 9.608,15.069 9.842 C 15.296 10.176,15.524 10.679,15.627 11.072 C 15.772 11.627,15.772 12.373,15.627 12.928 C 15.525 13.319,15.298 13.820,15.070 14.158 C 14.863 14.465,14.279 15.005,13.928 15.215 C 13.233 15.631,12.374 15.819,11.592 15.727 C 10.746 15.628,10.003 15.273,9.399 14.680 C 9.012 14.300,8.866 14.102,8.635 13.639 C 8.379 13.127,8.271 12.644,8.271 12.000 C 8.271 11.350,8.378 10.874,8.641 10.354 C 8.871 9.897,9.008 9.707,9.357 9.357 C 9.705 9.009,9.897 8.871,10.345 8.645 C 11.130 8.249,12.054 8.155,12.948 8.381 M11.540 9.798 C 10.501 10.023,9.760 10.940,9.760 12.000 C 9.760 12.615,9.979 13.139,10.420 13.580 C 11.309 14.469,12.691 14.469,13.580 13.580 C 14.744 12.416,14.319 10.482,12.771 9.894 C 12.473 9.781,11.844 9.732,11.540 9.798 " fill="#1C274C" stroke="none" fill-rule="evenodd"></path></svg>