<svg width="24" height="24" viewBox="0 0 24 24" fill="none" xmlns="http://www.w3.org/2000/svg"><path d="M8.419 2.043 C 5.807 2.139,4.481 2.507,3.549 3.393 C 2.551 4.342,2.166 5.587,2.041 8.260 C 1.988 9.399,1.988 14.601,2.041 15.740 C 2.160 18.285,2.507 19.501,3.379 20.433 C 4.326 21.446,5.580 21.837,8.280 21.959 C 9.445 22.011,14.555 22.011,15.720 21.959 C 18.275 21.843,19.498 21.496,20.433 20.621 C 21.360 19.755,21.742 18.682,21.927 16.420 C 22.002 15.512,22.002 8.488,21.927 7.580 C 21.743 5.332,21.366 4.263,20.451 3.393 C 19.495 2.484,18.240 2.146,15.417 2.041 C 14.194 1.995,9.686 1.997,8.419 2.043 M14.949 8.422 C 15.140 8.501,15.464 8.821,15.567 9.034 C 15.640 9.184,15.657 9.285,15.654 9.560 C 15.650 10.141,15.479 10.704,14.753 12.528 C 14.277 13.726,14.135 13.982,13.829 14.187 C 13.634 14.318,11.779 15.071,10.944 15.357 C 10.437 15.532,9.787 15.680,9.531 15.680 C 9.244 15.680,8.979 15.572,8.745 15.358 C 8.101 14.769,8.178 14.157,9.236 11.494 C 9.700 10.324,9.828 10.079,10.073 9.886 C 10.278 9.725,10.352 9.691,11.363 9.287 C 13.345 8.496,14.018 8.299,14.580 8.348 C 14.712 8.359,14.878 8.393,14.949 8.422 " fill="#1C274C" stroke="none" fill-rule="evenodd"></path></svg>