<svg width="24" height="24" viewBox="0 0 24 24" fill="none" xmlns="http://www.w3.org/2000/svg"><path d="M5.560 5.041 C 4.554 5.099,3.963 5.217,3.493 5.454 C 2.825 5.790,2.428 6.315,2.220 7.138 C 2.039 7.851,2.020 8.255,2.021 11.400 C 2.023 13.933,2.032 14.425,2.093 14.957 C 2.259 16.426,2.551 17.195,3.178 17.822 C 3.666 18.310,4.182 18.563,5.125 18.775 L 5.229 18.799 5.257 17.989 C 5.291 17.003,5.337 16.553,5.443 16.162 C 5.681 15.288,6.281 14.686,7.156 14.444 C 7.774 14.272,8.103 14.260,12.000 14.260 C 15.897 14.260,16.226 14.272,16.844 14.444 C 17.713 14.685,18.321 15.294,18.557 16.162 C 18.663 16.551,18.709 17.001,18.742 17.988 L 18.770 18.796 18.895 18.772 C 19.220 18.711,19.730 18.542,20.020 18.399 C 21.013 17.910,21.583 17.034,21.814 15.640 C 21.962 14.751,21.980 14.277,21.980 11.300 C 21.980 8.316,21.968 8.027,21.816 7.284 C 21.593 6.198,20.962 5.511,19.940 5.242 C 19.122 5.027,19.163 5.028,12.380 5.019 C 8.926 5.014,5.857 5.024,5.560 5.041 M18.373 8.355 C 18.615 8.506,18.733 8.718,18.733 9.003 C 18.733 9.203,18.714 9.270,18.616 9.409 C 18.552 9.501,18.436 9.613,18.359 9.658 C 18.221 9.740,18.196 9.740,12.000 9.740 C 5.804 9.740,5.779 9.740,5.641 9.658 C 5.564 9.613,5.448 9.501,5.384 9.409 C 5.098 9.003,5.330 8.395,5.815 8.278 C 5.884 8.261,8.703 8.250,12.080 8.254 L 18.220 8.260 18.373 8.355 M18.267 10.803 C 18.540 10.905,18.731 11.193,18.731 11.500 C 18.731 11.807,18.540 12.095,18.267 12.197 C 18.109 12.257,5.891 12.257,5.733 12.197 C 5.460 12.095,5.269 11.807,5.269 11.500 C 5.269 11.200,5.458 10.909,5.720 10.805 C 5.864 10.748,18.116 10.745,18.267 10.803 M8.220 15.786 C 7.535 15.849,7.176 15.990,7.019 16.258 C 6.846 16.553,6.797 16.893,6.772 17.964 L 6.749 18.947 7.445 18.973 C 7.827 18.988,9.877 19.000,12.000 19.000 C 14.123 19.000,16.173 18.988,16.555 18.973 L 17.251 18.947 17.228 17.964 C 17.190 16.316,17.067 16.038,16.295 15.852 C 16.050 15.793,15.602 15.785,12.200 15.778 C 10.099 15.775,8.308 15.778,8.220 15.786 " fill="#1C274C" stroke="none" fill-rule="evenodd"></path></svg>