<svg width="24" height="24" viewBox="0 0 24 24" fill="none" xmlns="http://www.w3.org/2000/svg"><path d="M4.200 2.041 C 2.822 2.151,2.309 2.555,2.091 3.700 C 2.041 3.964,2.027 4.584,2.012 7.238 C 1.989 11.288,2.036 12.301,2.283 13.077 C 2.623 14.141,3.350 14.692,4.660 14.879 C 4.814 14.901,5.004 14.919,5.083 14.919 L 5.225 14.920 5.271 14.010 C 5.300 13.426,5.339 13.015,5.381 12.863 C 5.588 12.109,6.123 11.576,6.866 11.384 C 7.345 11.259,8.018 11.241,12.000 11.241 C 15.982 11.241,16.655 11.259,17.134 11.384 C 17.877 11.576,18.412 12.109,18.619 12.863 C 18.660 13.015,18.700 13.425,18.729 14.010 L 18.774 14.920 18.917 14.919 C 18.996 14.919,19.186 14.900,19.340 14.878 C 20.650 14.690,21.378 14.139,21.717 13.077 C 21.964 12.302,22.011 11.288,21.988 7.238 C 21.973 4.477,21.961 3.973,21.906 3.692 C 21.706 2.685,21.307 2.286,20.300 2.089 C 20.017 2.034,19.083 2.026,12.280 2.018 C 8.045 2.014,4.409 2.024,4.200 2.041 M18.271 5.302 C 18.911 5.569,18.911 6.431,18.271 6.698 C 18.139 6.753,17.436 6.760,12.000 6.760 C 6.564 6.760,5.861 6.753,5.729 6.698 C 5.101 6.436,5.084 5.600,5.700 5.316 C 5.853 5.245,6.116 5.242,11.991 5.241 C 17.436 5.240,18.139 5.247,18.271 5.302 M18.267 7.803 C 18.516 7.896,18.758 8.241,18.758 8.500 C 18.758 8.759,18.516 9.104,18.267 9.197 C 18.109 9.257,5.891 9.257,5.733 9.197 C 5.484 9.104,5.242 8.759,5.242 8.500 C 5.242 8.347,5.363 8.078,5.485 7.961 C 5.703 7.753,5.373 7.763,11.987 7.762 C 16.251 7.760,18.190 7.773,18.267 7.803 M7.445 12.806 C 7.130 12.851,6.979 12.927,6.901 13.079 C 6.820 13.235,6.762 13.816,6.761 14.470 L 6.760 15.000 12.000 15.000 L 17.240 15.000 17.239 14.470 C 17.238 13.816,17.180 13.235,17.099 13.079 C 17.018 12.921,16.876 12.855,16.505 12.803 C 16.119 12.750,7.823 12.752,7.445 12.806 M6.149 16.843 C 6.066 16.887,5.946 16.995,5.882 17.083 C 5.722 17.305,5.518 17.808,5.481 18.077 C 5.417 18.532,5.562 19.038,5.859 19.400 C 5.959 19.521,6.040 19.640,6.040 19.664 C 6.040 19.689,5.977 19.845,5.900 20.012 C 5.804 20.219,5.760 20.373,5.760 20.499 C 5.760 21.228,6.686 21.513,7.118 20.917 C 7.283 20.689,7.475 20.207,7.514 19.922 C 7.578 19.450,7.442 18.967,7.141 18.600 C 7.041 18.479,6.960 18.360,6.960 18.336 C 6.960 18.311,7.023 18.155,7.100 17.988 C 7.351 17.446,7.252 17.048,6.812 16.825 C 6.638 16.737,6.335 16.745,6.149 16.843 M11.720 16.805 C 11.565 16.867,11.451 16.990,11.188 17.379 C 10.505 18.392,10.581 19.393,11.404 20.207 C 11.869 20.667,11.885 20.809,11.537 21.348 C 11.273 21.755,11.221 21.929,11.285 22.184 C 11.409 22.676,11.996 22.894,12.430 22.610 C 12.551 22.531,12.976 21.903,13.102 21.620 C 13.466 20.797,13.240 19.870,12.513 19.200 C 12.131 18.848,12.126 18.659,12.483 18.116 C 12.762 17.691,12.806 17.452,12.658 17.160 C 12.589 17.023,12.404 16.854,12.267 16.803 C 12.129 16.750,11.854 16.751,11.720 16.805 M17.180 16.835 C 16.965 16.934,16.918 16.995,16.695 17.455 C 16.520 17.817,16.503 17.880,16.487 18.205 C 16.465 18.671,16.566 19.001,16.841 19.363 C 16.949 19.504,17.038 19.650,17.039 19.686 C 17.039 19.722,16.975 19.889,16.895 20.057 C 16.772 20.316,16.753 20.393,16.769 20.560 C 16.818 21.069,17.322 21.374,17.791 21.178 C 18.016 21.084,18.090 20.993,18.302 20.552 C 18.483 20.175,18.498 20.119,18.513 19.783 C 18.535 19.265,18.418 18.931,18.073 18.529 C 18.011 18.456,17.960 18.364,17.960 18.323 C 17.960 18.282,18.025 18.111,18.105 17.943 C 18.228 17.684,18.247 17.607,18.231 17.440 C 18.181 16.923,17.652 16.618,17.180 16.835 " fill="#1C274C" stroke="none" fill-rule="evenodd"></path></svg>