<svg width="24" height="24" viewBox="0 0 24 24" fill="none" xmlns="http://www.w3.org/2000/svg"><path d="M10.351 2.279 C 9.898 2.419,9.599 2.999,9.600 3.738 C 9.601 4.315,9.762 4.722,10.181 5.213 C 10.324 5.382,10.461 5.569,10.484 5.630 C 10.511 5.699,10.517 5.877,10.500 6.110 C 10.475 6.441,10.482 6.498,10.560 6.660 C 10.705 6.960,11.078 7.127,11.405 7.039 C 11.800 6.932,12.012 6.526,12.012 5.880 C 12.012 5.307,11.820 4.812,11.425 4.369 C 11.044 3.943,11.004 3.777,11.180 3.360 C 11.235 3.229,11.280 3.067,11.280 3.000 C 11.280 2.753,11.098 2.453,10.880 2.341 C 10.740 2.269,10.481 2.239,10.351 2.279 M7.014 3.882 C 6.712 4.076,6.715 4.571,7.019 4.760 C 7.309 4.939,7.688 4.807,7.799 4.489 C 7.850 4.340,7.850 4.300,7.799 4.151 C 7.688 3.832,7.300 3.699,7.014 3.882 M13.928 4.082 C 13.877 4.102,13.703 4.253,13.542 4.417 C 13.114 4.850,13.098 5.038,13.453 5.427 C 13.763 5.767,13.938 5.880,14.150 5.880 C 14.320 5.880,14.344 5.864,14.684 5.529 L 15.040 5.178 15.040 4.969 C 15.040 4.765,15.034 4.754,14.752 4.457 C 14.365 4.050,14.198 3.974,13.928 4.082 M17.241 4.783 C 16.940 4.914,16.876 5.029,16.738 5.680 C 16.621 6.235,16.593 6.311,16.413 6.564 C 16.256 6.784,16.081 6.904,15.680 7.066 C 14.962 7.355,14.448 7.833,14.138 8.500 C 14.017 8.760,13.833 9.465,13.774 9.895 C 13.689 10.515,14.375 10.962,14.908 10.635 C 15.108 10.511,15.204 10.312,15.307 9.805 C 15.475 8.970,15.685 8.684,16.324 8.418 C 16.796 8.222,17.052 8.057,17.355 7.755 C 17.641 7.469,17.834 7.177,17.981 6.811 C 18.089 6.543,18.280 5.667,18.279 5.449 C 18.278 5.278,18.167 5.012,18.054 4.912 C 17.848 4.728,17.496 4.673,17.241 4.783 M19.933 7.083 C 19.706 7.195,19.105 7.825,19.041 8.016 C 19.011 8.108,19.002 8.237,19.019 8.349 C 19.043 8.510,19.089 8.575,19.426 8.922 C 19.830 9.339,19.985 9.440,20.217 9.440 C 20.459 9.440,20.634 9.336,20.985 8.985 C 21.336 8.634,21.440 8.459,21.440 8.217 C 21.440 7.985,21.339 7.831,20.926 7.430 C 20.453 6.971,20.281 6.911,19.933 7.083 M7.154 7.390 C 6.872 7.687,6.672 8.040,6.396 8.727 C 6.197 9.222,3.634 16.882,3.379 17.745 C 2.884 19.414,2.886 20.165,3.387 20.648 C 3.912 21.155,4.758 21.104,6.842 20.440 L 7.467 20.242 7.354 19.751 C 7.053 18.448,6.785 16.986,6.634 15.820 C 6.561 15.257,6.546 14.944,6.547 14.000 C 6.547 12.795,6.598 12.052,6.784 10.560 C 6.876 9.814,7.249 7.479,7.303 7.310 C 7.335 7.210,7.314 7.221,7.154 7.390 M8.725 7.930 C 8.327 10.021,8.092 12.013,8.053 13.620 C 8.019 15.036,8.131 16.034,8.563 18.160 C 8.882 19.733,8.890 19.765,8.938 19.747 C 8.961 19.739,9.565 19.538,10.280 19.300 C 10.995 19.063,11.586 18.864,11.593 18.859 C 11.600 18.853,11.541 18.644,11.462 18.394 C 11.114 17.295,10.833 15.989,10.752 15.091 C 10.652 13.980,10.905 12.469,11.507 10.589 L 11.735 9.878 11.478 9.615 C 10.519 8.636,9.007 7.280,8.874 7.280 C 8.860 7.280,8.793 7.572,8.725 7.930 M17.657 9.637 C 17.611 9.656,17.525 9.730,17.467 9.799 C 17.382 9.900,17.360 9.968,17.360 10.128 C 17.360 10.309,17.376 10.345,17.515 10.485 C 17.655 10.625,17.691 10.640,17.876 10.640 C 18.054 10.640,18.101 10.622,18.231 10.503 C 18.372 10.374,18.380 10.353,18.380 10.124 C 18.380 9.905,18.368 9.869,18.254 9.755 C 18.154 9.655,18.087 9.626,17.934 9.615 C 17.827 9.607,17.703 9.617,17.657 9.637 M20.377 11.060 C 20.049 11.149,19.762 11.294,19.407 11.553 C 18.881 11.936,18.573 11.960,18.028 11.660 C 17.651 11.453,17.324 11.471,17.065 11.713 C 16.914 11.854,16.840 12.035,16.840 12.263 C 16.840 12.630,17.022 12.836,17.581 13.105 C 18.442 13.519,19.420 13.414,20.200 12.824 C 20.703 12.444,20.988 12.393,21.493 12.594 C 21.896 12.754,21.974 12.768,22.186 12.714 C 22.726 12.578,22.919 11.879,22.525 11.485 C 22.377 11.337,21.913 11.125,21.556 11.042 C 21.306 10.985,20.617 10.995,20.377 11.060 M12.843 11.340 C 12.704 11.790,12.528 12.469,12.439 12.900 C 12.166 14.231,12.171 14.964,12.462 16.313 C 12.640 17.140,12.986 18.317,13.060 18.346 C 13.119 18.368,15.026 17.719,15.484 17.520 C 16.751 16.971,17.177 16.396,16.927 15.574 C 16.751 14.998,16.359 14.528,14.375 12.522 L 12.929 11.060 12.843 11.340 M19.172 15.238 C 18.838 15.442,18.836 15.972,19.169 16.145 C 19.538 16.335,19.960 16.094,19.960 15.694 C 19.959 15.287,19.514 15.030,19.172 15.238 " fill="#1C274C" stroke="none" fill-rule="evenodd"></path></svg>