<svg width="24" height="24" viewBox="0 0 24 24" fill="none" xmlns="http://www.w3.org/2000/svg"><path d="M13.136 2.074 C 12.891 2.228,12.782 2.466,12.737 2.944 C 12.711 3.228,12.710 3.230,12.511 3.384 C 12.069 3.729,11.923 4.067,12.060 4.425 C 12.140 4.635,12.323 4.785,12.669 4.921 C 12.796 4.971,12.916 5.027,12.936 5.044 C 12.955 5.061,13.020 5.192,13.080 5.334 C 13.230 5.690,13.344 5.836,13.536 5.924 C 13.893 6.086,14.199 5.977,14.552 5.564 L 14.780 5.297 15.153 5.252 C 15.439 5.217,15.564 5.182,15.685 5.102 C 15.934 4.937,16.007 4.788,15.991 4.478 C 15.980 4.254,15.954 4.174,15.810 3.933 L 15.643 3.650 15.727 3.310 C 15.842 2.841,15.811 2.640,15.585 2.415 C 15.360 2.189,15.159 2.158,14.690 2.273 L 14.350 2.357 14.067 2.190 C 13.826 2.046,13.746 2.020,13.522 2.009 C 13.315 1.998,13.234 2.012,13.136 2.074 M9.436 2.133 C 8.996 2.364,8.730 3.269,8.896 3.973 C 8.985 4.353,9.136 4.640,9.422 4.975 C 9.749 5.358,9.775 5.413,9.761 5.699 C 9.737 6.200,9.745 6.304,9.818 6.454 C 9.963 6.751,10.392 6.915,10.733 6.802 C 10.910 6.744,11.140 6.494,11.202 6.293 C 11.228 6.209,11.258 5.969,11.268 5.760 C 11.301 5.129,11.129 4.648,10.687 4.134 C 10.558 3.983,10.431 3.821,10.406 3.773 C 10.336 3.640,10.351 3.335,10.435 3.168 C 10.603 2.837,10.575 2.551,10.349 2.294 C 10.114 2.026,9.759 1.963,9.436 2.133 M7.014 3.882 C 6.712 4.076,6.715 4.571,7.019 4.760 C 7.309 4.939,7.688 4.807,7.799 4.489 C 7.850 4.340,7.850 4.300,7.799 4.151 C 7.688 3.832,7.300 3.699,7.014 3.882 M17.241 4.783 C 16.940 4.914,16.876 5.029,16.738 5.680 C 16.624 6.223,16.593 6.309,16.428 6.546 C 16.279 6.760,16.054 6.916,15.680 7.066 C 15.164 7.273,14.757 7.573,14.463 7.965 C 14.121 8.419,13.992 8.747,13.839 9.547 C 13.728 10.123,13.754 10.284,13.996 10.525 C 14.332 10.861,14.881 10.806,15.124 10.413 C 15.175 10.331,15.253 10.071,15.307 9.805 C 15.473 8.978,15.710 8.653,16.313 8.423 C 16.855 8.216,17.268 7.913,17.594 7.485 C 17.867 7.126,18.022 6.777,18.141 6.257 C 18.320 5.475,18.314 5.236,18.111 4.977 C 17.931 4.749,17.528 4.659,17.241 4.783 M19.636 6.956 C 19.058 7.182,18.712 7.615,18.577 8.282 C 18.455 8.884,18.566 10.266,18.762 10.584 C 18.806 10.654,18.899 10.739,18.971 10.772 C 19.334 10.943,20.749 11.037,21.260 10.925 C 21.842 10.797,22.250 10.480,22.493 9.969 C 22.603 9.736,22.620 9.657,22.619 9.380 C 22.619 9.140,22.598 9.014,22.534 8.875 C 22.370 8.519,22.016 8.215,21.631 8.102 C 21.481 8.058,21.458 8.033,21.397 7.853 C 21.259 7.445,21.003 7.151,20.640 6.983 C 20.366 6.856,19.923 6.844,19.636 6.956 M12.340 7.038 C 12.296 7.057,12.208 7.126,12.145 7.193 C 11.903 7.449,11.992 7.847,12.328 8.012 C 12.750 8.219,13.219 7.750,13.012 7.328 C 12.884 7.067,12.583 6.937,12.340 7.038 M7.154 7.390 C 6.872 7.687,6.672 8.040,6.396 8.727 C 6.197 9.222,3.634 16.882,3.379 17.745 C 2.884 19.414,2.886 20.165,3.387 20.648 C 3.912 21.155,4.758 21.104,6.842 20.440 L 7.467 20.242 7.354 19.751 C 7.053 18.448,6.785 16.986,6.634 15.820 C 6.561 15.257,6.546 14.944,6.547 14.000 C 6.547 12.795,6.598 12.052,6.784 10.560 C 6.876 9.814,7.249 7.479,7.303 7.310 C 7.335 7.210,7.314 7.221,7.154 7.390 M8.725 7.930 C 8.327 10.021,8.092 12.013,8.053 13.620 C 8.019 15.036,8.131 16.034,8.563 18.160 C 8.882 19.733,8.890 19.765,8.938 19.747 C 8.961 19.739,9.565 19.538,10.280 19.300 C 10.995 19.063,11.586 18.864,11.593 18.859 C 11.600 18.853,11.541 18.644,11.462 18.394 C 11.114 17.295,10.833 15.989,10.752 15.091 C 10.652 13.980,10.905 12.469,11.507 10.589 L 11.735 9.878 11.478 9.615 C 10.519 8.636,9.007 7.280,8.874 7.280 C 8.860 7.280,8.793 7.572,8.725 7.930 M17.340 10.038 C 17.179 10.105,17.032 10.307,17.012 10.487 C 16.976 10.816,17.302 11.117,17.628 11.056 C 17.960 10.994,18.156 10.622,18.012 10.328 C 17.884 10.067,17.583 9.937,17.340 10.038 M12.838 11.364 C 12.354 12.978,12.163 14.299,12.278 15.225 C 12.396 16.171,12.928 18.295,13.060 18.345 C 13.084 18.355,13.531 18.217,14.053 18.040 C 16.399 17.242,16.974 16.833,16.977 15.960 C 16.980 15.374,16.650 14.876,15.380 13.548 C 14.933 13.082,14.198 12.333,13.747 11.884 L 12.927 11.068 12.838 11.364 M20.733 12.005 C 20.213 12.052,19.938 12.175,19.240 12.671 C 19.043 12.812,18.719 12.893,18.510 12.854 C 18.438 12.841,18.241 12.760,18.071 12.675 C 17.630 12.454,17.329 12.466,17.065 12.713 C 16.914 12.854,16.840 13.035,16.840 13.263 C 16.840 13.630,17.022 13.836,17.581 14.105 C 18.442 14.519,19.420 14.414,20.200 13.824 C 20.703 13.444,20.988 13.393,21.493 13.594 C 21.896 13.754,21.974 13.768,22.186 13.714 C 22.567 13.618,22.803 13.230,22.716 12.841 C 22.658 12.583,22.517 12.423,22.230 12.289 C 21.696 12.038,21.268 11.957,20.733 12.005 M19.156 15.251 C 18.991 15.363,18.921 15.492,18.921 15.692 C 18.920 15.894,19.013 16.064,19.169 16.145 C 19.538 16.335,19.960 16.094,19.960 15.694 C 19.959 15.277,19.497 15.022,19.156 15.251 " fill="#1C274C" stroke="none" fill-rule="evenodd"></path></svg>