<svg width="24" height="24" viewBox="0 0 24 24" fill="none" xmlns="http://www.w3.org/2000/svg"><path d="M8.419 2.041 C 5.785 2.145,4.480 2.507,3.549 3.393 C 2.551 4.342,2.166 5.587,2.041 8.260 C 1.988 9.399,1.988 14.601,2.041 15.740 C 2.160 18.285,2.507 19.501,3.379 20.433 C 4.245 21.360,5.318 21.742,7.580 21.927 C 8.488 22.002,15.512 22.002,16.420 21.927 C 18.857 21.727,19.992 21.275,20.860 20.157 C 21.474 19.368,21.771 18.329,21.927 16.420 C 22.002 15.512,22.002 8.488,21.927 7.580 C 21.740 5.297,21.356 4.232,20.407 3.355 C 19.572 2.585,18.492 2.242,16.380 2.078 C 15.684 2.023,9.573 1.995,8.419 2.041 M8.420 8.390 C 8.785 8.627,10.472 9.919,10.570 10.036 C 10.664 10.147,10.760 10.382,10.760 10.500 C 10.760 10.618,10.664 10.853,10.570 10.964 C 10.407 11.158,8.402 12.649,8.220 12.712 C 7.821 12.849,7.399 12.608,7.284 12.175 C 7.176 11.771,7.303 11.585,8.085 10.996 C 8.434 10.733,8.720 10.510,8.720 10.500 C 8.720 10.490,8.434 10.267,8.085 10.004 C 7.447 9.523,7.313 9.380,7.266 9.127 C 7.205 8.801,7.458 8.377,7.768 8.284 C 7.961 8.226,8.237 8.271,8.420 8.390 M16.416 8.391 C 16.625 8.536,16.738 8.762,16.734 9.025 C 16.730 9.345,16.627 9.467,15.915 10.004 C 15.566 10.267,15.280 10.490,15.280 10.500 C 15.280 10.510,15.566 10.733,15.915 10.996 C 16.697 11.585,16.824 11.771,16.716 12.175 C 16.601 12.608,16.179 12.849,15.780 12.712 C 15.598 12.649,13.593 11.158,13.430 10.964 C 13.336 10.853,13.240 10.618,13.240 10.500 C 13.240 10.382,13.336 10.147,13.430 10.036 C 13.516 9.933,15.016 8.780,15.555 8.402 C 15.826 8.212,16.154 8.208,16.416 8.391 M10.402 14.600 C 10.480 14.621,10.646 14.701,10.772 14.777 L 11.000 14.914 11.228 14.777 C 11.514 14.604,11.671 14.560,12.000 14.560 C 12.329 14.560,12.486 14.604,12.772 14.777 L 13.000 14.914 13.229 14.776 C 13.536 14.591,13.719 14.548,14.100 14.569 C 14.531 14.592,14.760 14.713,15.213 15.155 C 15.668 15.600,15.733 15.706,15.733 16.003 C 15.733 16.508,15.285 16.851,14.796 16.719 C 14.667 16.684,14.544 16.596,14.314 16.372 L 14.006 16.072 13.833 16.191 C 13.338 16.531,12.663 16.532,12.170 16.193 L 12.000 16.076 11.830 16.193 C 11.337 16.532,10.662 16.531,10.167 16.191 L 9.994 16.072 9.686 16.372 C 9.456 16.596,9.333 16.684,9.204 16.719 C 8.715 16.851,8.267 16.508,8.267 16.003 C 8.267 15.706,8.332 15.600,8.787 15.155 C 9.114 14.836,9.351 14.673,9.600 14.597 C 9.746 14.553,10.238 14.554,10.402 14.600 " fill="#1C274C" stroke="none" fill-rule="evenodd"></path></svg>