<svg width="24" height="24" viewBox="0 0 24 24" fill="none" xmlns="http://www.w3.org/2000/svg"><path d="M8.440 2.042 C 6.558 2.128,5.472 2.418,4.680 3.044 C 3.718 3.804,3.275 4.802,3.076 6.660 C 3.008 7.289,2.976 16.297,3.040 16.736 C 3.100 17.149,3.275 17.656,3.488 18.035 C 3.796 18.582,4.559 19.277,5.101 19.503 L 5.250 19.565 5.221 19.453 C 5.205 19.391,5.183 17.230,5.172 14.651 C 5.149 8.924,5.180 8.110,5.464 7.132 C 5.804 5.958,6.545 5.103,7.611 4.653 C 8.649 4.215,9.759 4.139,14.620 4.172 C 16.446 4.185,17.869 4.212,18.115 4.238 C 18.344 4.262,18.541 4.272,18.553 4.260 C 18.596 4.218,18.330 3.738,18.082 3.410 C 17.635 2.816,16.901 2.326,16.140 2.112 C 15.821 2.022,15.812 2.022,12.480 2.016 C 10.643 2.013,8.825 2.025,8.440 2.042 M10.620 5.641 C 9.176 5.679,8.589 5.775,8.000 6.070 C 7.469 6.336,7.046 6.860,6.863 7.480 C 6.623 8.293,6.591 9.165,6.611 14.360 C 6.629 18.995,6.637 19.224,6.822 19.951 C 6.960 20.494,7.129 20.810,7.460 21.140 C 7.917 21.598,8.491 21.817,9.523 21.927 C 10.236 22.003,17.364 22.003,18.077 21.927 C 19.109 21.817,19.683 21.598,20.140 21.140 C 20.584 20.697,20.806 20.134,20.922 19.160 C 20.990 18.589,21.024 10.309,20.963 9.200 C 20.879 7.668,20.685 7.011,20.160 6.479 C 19.557 5.867,18.879 5.696,16.820 5.639 C 15.378 5.599,12.188 5.600,10.620 5.641 " fill="#1C274C" stroke="none" fill-rule="evenodd"></path></svg>