<svg width="24" height="24" viewBox="0 0 24 24" fill="none" xmlns="http://www.w3.org/2000/svg"><path d="M11.623 2.047 C 11.055 2.155,10.421 2.631,10.146 3.154 C 9.800 3.812,9.793 4.506,10.126 5.200 C 10.238 5.433,10.441 5.651,12.053 7.269 L 13.856 9.078 13.077 9.869 C 12.480 10.476,12.273 10.712,12.191 10.885 C 11.917 11.455,11.936 12.077,12.244 12.630 C 12.308 12.746,12.351 12.840,12.340 12.840 C 12.328 12.840,11.262 12.102,9.969 11.200 C 8.677 10.299,7.539 9.520,7.440 9.470 C 7.179 9.339,6.616 9.341,6.366 9.474 C 6.102 9.613,5.854 9.864,5.731 10.114 C 5.585 10.411,5.576 10.840,5.708 11.130 C 5.773 11.271,9.617 16.834,10.718 18.379 L 10.860 18.579 10.720 18.496 C 10.643 18.450,9.311 17.606,7.760 16.620 C 6.209 15.634,4.850 14.792,4.740 14.749 C 4.460 14.641,4.018 14.667,3.738 14.810 C 3.224 15.073,2.922 15.667,3.035 16.194 C 3.059 16.305,3.313 16.891,3.599 17.498 C 3.886 18.105,4.120 18.649,4.120 18.709 C 4.120 18.797,3.866 19.071,2.723 20.218 C 1.489 21.457,1.321 21.640,1.281 21.795 C 1.130 22.365,1.634 22.870,2.205 22.720 C 2.360 22.679,2.543 22.511,3.792 21.267 C 4.568 20.493,5.256 19.778,5.321 19.677 C 5.467 19.450,5.580 19.131,5.616 18.837 C 5.662 18.473,5.566 18.139,5.182 17.325 C 4.992 16.921,4.843 16.583,4.851 16.575 C 4.860 16.567,6.215 17.417,7.863 18.464 C 9.511 19.511,10.950 20.414,11.060 20.470 C 11.199 20.541,11.345 20.578,11.540 20.590 C 11.938 20.615,12.225 20.502,12.527 20.200 C 12.720 20.007,12.767 19.929,12.842 19.682 C 12.950 19.327,12.931 19.078,12.771 18.759 C 12.710 18.637,11.565 16.967,10.226 15.047 C 8.887 13.126,7.798 11.550,7.806 11.542 C 7.814 11.535,8.837 12.240,10.080 13.108 C 11.323 13.976,12.430 14.734,12.540 14.792 C 12.711 14.883,12.789 14.899,13.080 14.899 C 13.372 14.900,13.452 14.884,13.649 14.788 C 14.201 14.517,14.507 13.868,14.345 13.313 C 14.310 13.191,14.134 12.851,13.953 12.556 C 13.466 11.760,13.464 11.755,13.534 11.594 C 13.566 11.520,13.891 11.163,14.256 10.800 L 14.920 10.141 15.577 10.797 C 16.225 11.445,16.235 11.452,16.261 11.337 C 16.486 10.307,17.044 9.478,17.875 8.941 C 18.294 8.669,18.707 8.512,19.331 8.386 C 19.348 8.382,18.016 7.037,16.371 5.397 C 13.604 2.637,13.358 2.403,13.090 2.265 C 12.629 2.028,12.119 1.952,11.623 2.047 M19.540 9.881 C 18.246 10.054,17.403 11.422,17.822 12.669 C 18.065 13.393,18.601 13.888,19.327 14.059 C 20.790 14.404,22.207 13.104,21.960 11.643 C 21.769 10.508,20.695 9.726,19.540 9.881 " fill="#1C274C" stroke="none" fill-rule="evenodd"></path></svg>