<svg width="24" height="24" viewBox="0 0 24 24" fill="none" xmlns="http://www.w3.org/2000/svg"><path d="M5.700 5.056 C 5.612 5.084,5.066 5.345,4.487 5.637 C 3.316 6.226,3.166 6.337,3.060 6.692 C 3.011 6.859,3.000 7.208,3.000 8.687 L 3.000 10.480 5.000 10.480 L 7.000 10.480 7.000 8.187 C 7.000 5.577,7.002 5.600,6.705 5.303 C 6.433 5.031,6.064 4.941,5.700 5.056 M15.834 5.043 C 13.461 5.337,11.564 7.122,11.095 9.501 C 10.998 9.994,10.998 11.006,11.095 11.499 C 11.317 12.626,11.823 13.581,12.621 14.379 C 13.419 15.177,14.374 15.683,15.501 15.905 C 15.994 16.002,17.006 16.002,17.499 15.905 C 19.207 15.568,20.623 14.506,21.402 12.976 C 21.807 12.180,21.976 11.453,21.976 10.500 C 21.976 9.547,21.807 8.820,21.402 8.024 C 20.627 6.502,19.192 5.422,17.520 5.102 C 17.102 5.022,16.245 4.992,15.834 5.043 M2.252 12.078 C 1.989 12.239,2.000 12.091,2.000 15.340 C 2.000 18.552,2.002 18.581,2.234 19.151 C 2.521 19.857,3.143 20.479,3.849 20.766 C 5.610 21.483,7.554 20.445,7.938 18.581 C 7.991 18.329,8.000 17.833,8.000 15.340 C 8.000 12.091,8.011 12.239,7.748 12.078 C 7.624 12.003,7.528 12.000,5.000 12.000 C 2.472 12.000,2.376 12.003,2.252 12.078 M15.751 18.620 L 15.740 19.500 14.477 19.520 L 13.214 19.540 13.062 19.655 C 12.658 19.964,12.671 20.576,13.088 20.866 L 13.253 20.980 16.500 20.980 L 19.747 20.980 19.912 20.866 C 20.329 20.576,20.342 19.964,19.938 19.655 L 19.786 19.540 18.523 19.520 L 17.260 19.500 17.249 18.620 L 17.239 17.740 16.500 17.740 L 15.761 17.740 15.751 18.620 " fill="#1C274C" stroke="none" fill-rule="evenodd"></path></svg>