<svg width="24" height="24" viewBox="0 0 24 24" fill="none" xmlns="http://www.w3.org/2000/svg"><path d="M16.257 6.277 C 16.067 6.323,15.906 6.434,15.798 6.591 C 15.718 6.708,15.700 6.783,15.700 7.000 C 15.700 7.316,15.802 7.500,16.059 7.648 C 16.220 7.740,16.224 7.740,18.188 7.760 L 20.157 7.780 16.681 11.228 C 14.770 13.124,13.096 14.757,12.961 14.856 C 12.412 15.261,12.388 15.246,10.420 13.320 C 9.556 12.474,9.168 12.169,8.732 11.994 C 8.534 11.914,8.431 11.900,8.020 11.900 C 7.564 11.900,7.527 11.906,7.273 12.027 C 6.638 12.327,6.233 12.695,3.293 15.646 C 1.534 17.411,1.321 17.638,1.280 17.795 C 1.130 18.366,1.636 18.872,2.205 18.719 C 2.362 18.677,2.637 18.416,4.820 16.245 C 6.162 14.910,7.386 13.724,7.540 13.609 C 7.869 13.364,8.028 13.320,8.233 13.418 C 8.470 13.531,8.654 13.694,9.700 14.715 C 11.052 16.035,11.404 16.312,11.954 16.481 C 12.457 16.637,13.104 16.546,13.571 16.254 C 13.980 15.999,14.451 15.550,17.740 12.289 L 21.220 8.839 21.240 10.789 L 21.260 12.740 21.369 12.926 C 21.660 13.421,22.381 13.396,22.650 12.881 L 22.762 12.667 22.751 9.724 C 22.740 6.839,22.738 6.777,22.658 6.641 C 22.613 6.564,22.499 6.447,22.405 6.381 L 22.233 6.260 19.307 6.253 C 17.697 6.250,16.325 6.260,16.257 6.277 " fill="#1C274C" stroke="none" fill-rule="evenodd"></path></svg>