<svg width="24" height="24" viewBox="0 0 24 24" fill="none" xmlns="http://www.w3.org/2000/svg"><path d="M8.984 3.042 C 8.834 3.086,8.645 3.266,8.575 3.429 C 8.532 3.530,8.520 3.876,8.520 5.077 L 8.520 6.596 8.370 6.619 C 7.954 6.682,7.382 6.846,7.098 6.984 C 6.653 7.199,6.199 7.653,5.984 8.098 C 5.846 8.382,5.682 8.954,5.619 9.370 L 5.596 9.520 4.077 9.520 C 2.397 9.520,2.393 9.521,2.172 9.772 C 1.929 10.050,1.969 10.521,2.254 10.738 C 2.465 10.899,2.662 10.918,4.136 10.919 L 5.532 10.920 5.506 11.286 C 5.492 11.488,5.480 11.803,5.480 11.986 L 5.480 12.320 3.994 12.320 L 2.507 12.320 2.337 12.419 C 2.145 12.532,2.000 12.782,2.000 13.000 C 2.000 13.218,2.145 13.468,2.337 13.581 L 2.507 13.680 3.994 13.680 L 5.480 13.680 5.480 14.014 C 5.480 14.197,5.492 14.512,5.506 14.714 L 5.532 15.080 4.136 15.081 C 3.322 15.082,2.665 15.099,2.561 15.123 C 2.042 15.243,1.837 15.815,2.168 16.217 C 2.384 16.480,2.387 16.480,4.077 16.480 L 5.596 16.480 5.619 16.630 C 5.682 17.046,5.846 17.618,5.984 17.902 C 6.199 18.347,6.653 18.801,7.098 19.016 C 7.382 19.154,7.954 19.318,8.370 19.381 L 8.520 19.404 8.520 20.923 C 8.520 22.613,8.520 22.616,8.783 22.832 C 9.185 23.163,9.757 22.958,9.877 22.439 C 9.901 22.335,9.918 21.678,9.919 20.864 L 9.920 19.468 10.310 19.494 C 10.525 19.508,10.840 19.520,11.010 19.520 L 11.320 19.520 11.320 21.006 L 11.320 22.493 11.419 22.663 C 11.532 22.855,11.782 23.000,12.000 23.000 C 12.218 23.000,12.468 22.855,12.581 22.663 L 12.680 22.493 12.680 21.006 L 12.680 19.520 13.014 19.520 C 13.197 19.520,13.512 19.508,13.714 19.494 L 14.080 19.468 14.081 20.864 C 14.082 21.678,14.099 22.335,14.123 22.439 C 14.243 22.958,14.815 23.163,15.217 22.832 C 15.480 22.616,15.480 22.613,15.480 20.923 L 15.480 19.404 15.630 19.381 C 16.048 19.317,16.616 19.154,16.901 19.015 C 17.346 18.798,17.798 18.346,18.015 17.901 C 18.154 17.616,18.317 17.048,18.381 16.630 L 18.404 16.480 19.923 16.480 C 21.613 16.480,21.616 16.480,21.832 16.217 C 22.163 15.815,21.958 15.243,21.439 15.123 C 21.335 15.099,20.678 15.082,19.864 15.081 L 18.468 15.080 18.494 14.690 C 18.508 14.476,18.520 14.160,18.520 13.990 L 18.520 13.680 20.006 13.680 L 21.493 13.680 21.663 13.581 C 21.855 13.468,22.000 13.218,22.000 13.000 C 22.000 12.782,21.855 12.532,21.663 12.419 L 21.493 12.320 20.006 12.320 L 18.520 12.320 18.520 12.010 C 18.520 11.840,18.508 11.525,18.494 11.310 L 18.468 10.920 19.864 10.919 C 20.678 10.918,21.335 10.901,21.439 10.877 C 21.958 10.757,22.163 10.185,21.832 9.783 C 21.616 9.520,21.613 9.520,19.923 9.520 L 18.404 9.520 18.381 9.370 C 18.318 8.954,18.154 8.382,18.016 8.098 C 17.801 7.653,17.347 7.199,16.902 6.984 C 16.618 6.846,16.046 6.682,15.630 6.619 L 15.480 6.596 15.480 5.077 C 15.480 3.387,15.480 3.384,15.217 3.168 C 14.815 2.837,14.243 3.042,14.123 3.561 C 14.099 3.665,14.082 4.322,14.081 5.136 L 14.080 6.532 13.714 6.506 C 13.512 6.492,13.197 6.480,13.014 6.480 L 12.680 6.480 12.680 4.994 L 12.680 3.507 12.581 3.337 C 12.468 3.145,12.218 3.000,12.000 3.000 C 11.782 3.000,11.532 3.145,11.419 3.337 L 11.320 3.507 11.320 4.994 L 11.320 6.480 10.986 6.480 C 10.803 6.480,10.488 6.492,10.286 6.506 L 9.920 6.532 9.919 5.136 C 9.918 4.338,9.901 3.665,9.877 3.564 C 9.779 3.138,9.401 2.917,8.984 3.042 M14.694 8.655 C 15.348 8.780,15.864 9.134,16.114 9.628 C 16.384 10.162,16.437 10.722,16.437 13.000 C 16.437 14.633,16.396 15.511,16.301 15.877 C 16.107 16.625,15.640 17.098,14.897 17.298 C 14.488 17.408,13.342 17.450,11.420 17.426 C 9.407 17.401,9.187 17.378,8.693 17.143 C 8.188 16.903,7.855 16.485,7.699 15.893 C 7.606 15.540,7.562 14.616,7.562 13.000 C 7.562 11.384,7.606 10.460,7.699 10.107 C 7.895 9.365,8.378 8.887,9.128 8.695 C 9.534 8.590,10.216 8.566,12.360 8.581 C 13.940 8.592,14.448 8.608,14.694 8.655 M9.525 10.042 C 9.290 10.090,9.165 10.178,9.094 10.347 C 8.984 10.611,8.952 11.408,8.970 13.380 C 8.990 15.474,9.007 15.647,9.215 15.826 C 9.424 16.006,9.631 16.020,12.000 16.020 C 14.369 16.020,14.576 16.006,14.785 15.826 C 14.993 15.647,15.010 15.474,15.030 13.380 C 15.049 11.320,15.016 10.580,14.892 10.327 C 14.846 10.232,14.763 10.151,14.660 10.100 C 14.506 10.023,14.413 10.020,12.100 10.014 C 10.780 10.010,9.621 10.023,9.525 10.042 " fill="#1C274C" stroke="none" fill-rule="evenodd"></path></svg>