<svg width="24" height="24" viewBox="0 0 24 24" fill="none" xmlns="http://www.w3.org/2000/svg"><path d="M8.984 2.042 C 8.834 2.086,8.645 2.266,8.575 2.429 C 8.532 2.530,8.520 2.876,8.520 4.077 L 8.520 5.596 8.370 5.619 C 7.954 5.682,7.382 5.846,7.098 5.984 C 6.653 6.199,6.199 6.653,5.984 7.098 C 5.846 7.382,5.682 7.954,5.619 8.370 L 5.596 8.520 4.077 8.520 C 2.397 8.520,2.393 8.521,2.172 8.772 C 1.929 9.050,1.969 9.521,2.254 9.738 C 2.465 9.899,2.662 9.918,4.136 9.919 L 5.532 9.920 5.506 10.286 C 5.492 10.488,5.480 10.803,5.480 10.986 L 5.480 11.320 3.994 11.320 L 2.507 11.320 2.337 11.419 C 2.145 11.532,2.000 11.782,2.000 12.000 C 2.000 12.218,2.145 12.468,2.337 12.581 L 2.507 12.680 3.994 12.680 L 5.480 12.680 5.480 13.014 C 5.480 13.197,5.492 13.512,5.506 13.714 L 5.532 14.080 4.136 14.081 C 3.322 14.082,2.665 14.099,2.561 14.123 C 2.042 14.243,1.837 14.815,2.168 15.217 C 2.384 15.480,2.387 15.480,4.077 15.480 L 5.596 15.480 5.619 15.630 C 5.682 16.046,5.846 16.618,5.984 16.902 C 6.199 17.347,6.653 17.801,7.098 18.016 C 7.382 18.154,7.954 18.318,8.370 18.381 L 8.520 18.404 8.520 19.923 C 8.520 21.613,8.520 21.616,8.783 21.832 C 9.185 22.163,9.757 21.958,9.877 21.439 C 9.901 21.335,9.918 20.678,9.919 19.864 L 9.920 18.468 10.310 18.494 C 10.525 18.508,10.840 18.520,11.010 18.520 L 11.320 18.520 11.320 20.006 L 11.320 21.493 11.419 21.663 C 11.532 21.855,11.782 22.000,12.000 22.000 C 12.218 22.000,12.468 21.855,12.581 21.663 L 12.680 21.493 12.680 20.006 L 12.680 18.520 13.014 18.520 C 13.197 18.520,13.512 18.508,13.714 18.494 L 14.080 18.468 14.081 19.864 C 14.082 20.678,14.099 21.335,14.123 21.439 C 14.243 21.958,14.815 22.163,15.217 21.832 C 15.480 21.616,15.480 21.613,15.480 19.923 L 15.480 18.404 15.630 18.381 C 16.048 18.317,16.616 18.154,16.901 18.015 C 17.346 17.798,17.798 17.346,18.015 16.901 C 18.154 16.616,18.317 16.048,18.381 15.630 L 18.404 15.480 19.923 15.480 C 21.613 15.480,21.616 15.480,21.832 15.217 C 22.163 14.815,21.958 14.243,21.439 14.123 C 21.335 14.099,20.678 14.082,19.864 14.081 L 18.468 14.080 18.494 13.690 C 18.508 13.476,18.520 13.160,18.520 12.990 L 18.520 12.680 20.006 12.680 L 21.493 12.680 21.663 12.581 C 21.855 12.468,22.000 12.218,22.000 12.000 C 22.000 11.782,21.855 11.532,21.663 11.419 L 21.493 11.320 20.006 11.320 L 18.520 11.320 18.520 11.010 C 18.520 10.840,18.508 10.525,18.494 10.310 L 18.468 9.920 19.864 9.919 C 20.678 9.918,21.335 9.901,21.439 9.877 C 21.958 9.757,22.163 9.185,21.832 8.783 C 21.616 8.520,21.613 8.520,19.923 8.520 L 18.404 8.520 18.381 8.370 C 18.318 7.954,18.154 7.382,18.016 7.098 C 17.801 6.653,17.347 6.199,16.902 5.984 C 16.618 5.846,16.046 5.682,15.630 5.619 L 15.480 5.596 15.480 4.077 C 15.480 2.387,15.480 2.384,15.217 2.168 C 14.815 1.837,14.243 2.042,14.123 2.561 C 14.099 2.665,14.082 3.322,14.081 4.136 L 14.080 5.532 13.714 5.506 C 13.512 5.492,13.197 5.480,13.014 5.480 L 12.680 5.480 12.680 3.994 L 12.680 2.507 12.581 2.337 C 12.468 2.145,12.218 2.000,12.000 2.000 C 11.782 2.000,11.532 2.145,11.419 2.337 L 11.320 2.507 11.320 3.994 L 11.320 5.480 10.986 5.480 C 10.803 5.480,10.488 5.492,10.286 5.506 L 9.920 5.532 9.919 4.136 C 9.918 3.338,9.901 2.665,9.877 2.564 C 9.779 2.138,9.401 1.917,8.984 2.042 M14.694 7.655 C 15.348 7.780,15.864 8.134,16.114 8.628 C 16.384 9.162,16.437 9.722,16.437 12.000 C 16.437 13.633,16.396 14.511,16.301 14.877 C 16.107 15.625,15.640 16.098,14.897 16.298 C 14.488 16.408,13.342 16.450,11.420 16.426 C 9.407 16.401,9.187 16.378,8.693 16.143 C 8.188 15.903,7.855 15.485,7.699 14.893 C 7.606 14.540,7.562 13.616,7.562 12.000 C 7.562 10.384,7.606 9.460,7.699 9.107 C 7.895 8.365,8.378 7.887,9.128 7.695 C 9.534 7.590,10.216 7.566,12.360 7.581 C 13.940 7.592,14.448 7.608,14.694 7.655 M9.525 9.042 C 9.290 9.090,9.165 9.178,9.094 9.347 C 8.984 9.611,8.952 10.408,8.970 12.380 C 8.990 14.474,9.007 14.647,9.215 14.826 C 9.424 15.006,9.631 15.020,12.000 15.020 C 14.369 15.020,14.576 15.006,14.785 14.826 C 14.993 14.647,15.010 14.474,15.030 12.380 C 15.049 10.320,15.016 9.580,14.892 9.327 C 14.846 9.232,14.763 9.151,14.660 9.100 C 14.506 9.023,14.413 9.020,12.100 9.014 C 10.780 9.010,9.621 9.023,9.525 9.042 M12.777 9.563 C 12.969 9.695,13.080 9.908,13.080 10.145 C 13.080 10.362,13.041 10.438,12.675 10.946 C 12.546 11.126,12.440 11.283,12.440 11.296 C 12.440 11.309,12.594 11.320,12.782 11.320 C 13.163 11.320,13.290 11.365,13.454 11.560 C 13.598 11.732,13.654 11.959,13.601 12.157 C 13.575 12.253,13.266 12.725,12.818 13.355 C 12.158 14.281,12.058 14.404,11.896 14.482 C 11.441 14.702,10.920 14.371,10.920 13.863 C 10.920 13.639,10.970 13.536,11.301 13.079 L 11.553 12.731 11.224 12.710 C 11.041 12.699,10.840 12.662,10.772 12.626 C 10.486 12.478,10.321 12.132,10.399 11.843 C 10.425 11.747,10.734 11.275,11.182 10.646 C 11.810 9.764,11.947 9.595,12.091 9.522 C 12.307 9.412,12.580 9.428,12.777 9.563 " fill="#1C274C" stroke="none" fill-rule="evenodd"></path></svg>