<svg width="24" height="24" viewBox="0 0 24 24" fill="none" xmlns="http://www.w3.org/2000/svg"><path d="M8.419 2.041 C 5.785 2.145,4.480 2.507,3.549 3.393 C 2.551 4.342,2.166 5.587,2.041 8.260 C 1.988 9.399,1.988 14.601,2.041 15.740 C 2.160 18.285,2.507 19.501,3.379 20.433 C 4.245 21.360,5.318 21.742,7.580 21.927 C 8.488 22.002,15.512 22.002,16.420 21.927 C 18.857 21.727,19.992 21.275,20.860 20.157 C 21.474 19.368,21.771 18.329,21.927 16.420 C 22.002 15.512,22.002 8.488,21.927 7.580 C 21.740 5.297,21.356 4.232,20.407 3.355 C 19.572 2.585,18.492 2.242,16.380 2.078 C 15.684 2.023,9.573 1.995,8.419 2.041 M9.780 7.281 C 10.282 7.329,10.944 7.491,11.269 7.645 C 11.469 7.740,11.540 7.800,11.625 7.945 C 11.806 8.253,11.759 8.643,11.514 8.865 C 11.253 9.103,11.024 9.131,10.589 8.979 C 9.252 8.510,7.769 8.799,6.790 9.718 C 6.106 10.359,5.760 11.127,5.760 12.000 C 5.760 13.522,6.903 14.834,8.520 15.169 C 9.067 15.282,9.841 15.253,10.320 15.102 C 11.035 14.875,11.206 14.876,11.480 15.106 C 11.747 15.331,11.814 15.722,11.637 16.036 C 11.521 16.243,11.384 16.330,10.934 16.482 C 10.351 16.679,9.973 16.736,9.260 16.734 C 8.568 16.732,8.269 16.686,7.620 16.478 C 6.194 16.022,5.001 14.878,4.506 13.492 C 4.186 12.595,4.186 11.405,4.506 10.508 C 5.134 8.750,6.793 7.486,8.740 7.284 C 9.189 7.237,9.325 7.237,9.780 7.281 M17.780 7.281 C 18.282 7.329,18.944 7.491,19.269 7.645 C 19.469 7.740,19.540 7.800,19.625 7.945 C 19.806 8.253,19.759 8.643,19.514 8.865 C 19.253 9.103,19.024 9.131,18.589 8.979 C 17.252 8.510,15.769 8.799,14.790 9.718 C 14.106 10.359,13.760 11.127,13.760 12.000 C 13.760 13.522,14.903 14.834,16.520 15.169 C 17.067 15.282,17.841 15.253,18.320 15.102 C 19.035 14.875,19.206 14.876,19.480 15.106 C 19.747 15.331,19.814 15.722,19.637 16.036 C 19.521 16.243,19.384 16.330,18.934 16.482 C 18.351 16.679,17.973 16.736,17.260 16.734 C 16.568 16.732,16.269 16.686,15.620 16.478 C 13.952 15.944,12.655 14.512,12.336 12.852 C 12.197 12.132,12.267 11.179,12.506 10.508 C 13.134 8.750,14.793 7.486,16.740 7.284 C 17.189 7.237,17.325 7.237,17.780 7.281 " fill="#1C274C" stroke="none" fill-rule="evenodd"></path></svg>