<svg width="24" height="24" viewBox="0 0 24 24" fill="none" xmlns="http://www.w3.org/2000/svg"><path d="M4.811 1.278 C 4.639 1.320,4.417 1.493,4.330 1.652 C 4.268 1.764,4.259 1.929,4.248 3.007 L 4.236 4.235 3.005 4.247 L 1.774 4.260 1.605 4.372 C 1.311 4.566,1.192 4.873,1.281 5.204 C 1.340 5.422,1.569 5.657,1.781 5.715 C 1.880 5.743,2.374 5.760,3.090 5.760 L 4.240 5.760 4.241 9.370 C 4.242 14.131,4.293 15.251,4.557 16.294 C 4.789 17.206,5.077 17.757,5.616 18.314 C 6.153 18.870,6.778 19.207,7.706 19.443 C 8.744 19.706,9.898 19.759,14.630 19.759 L 18.240 19.760 18.240 20.910 C 18.240 21.578,18.258 22.122,18.282 22.209 C 18.390 22.599,18.802 22.827,19.202 22.719 C 19.422 22.660,19.656 22.432,19.715 22.219 C 19.743 22.120,19.760 21.626,19.760 20.910 L 19.760 19.760 20.910 19.760 C 21.626 19.760,22.120 19.743,22.219 19.715 C 22.431 19.657,22.660 19.422,22.719 19.204 C 22.808 18.873,22.689 18.566,22.395 18.372 L 22.226 18.260 15.843 18.236 C 9.547 18.212,9.308 18.207,8.487 18.079 C 7.014 17.849,6.270 17.170,5.977 15.789 C 5.790 14.906,5.787 14.783,5.763 8.100 C 5.740 1.823,5.739 1.779,5.658 1.641 C 5.494 1.361,5.122 1.202,4.811 1.278 M7.811 4.279 C 7.292 4.402,7.079 5.067,7.426 5.480 C 7.658 5.755,7.428 5.737,11.100 5.765 C 14.529 5.791,15.009 5.812,15.789 5.977 C 16.993 6.232,17.675 6.847,17.957 7.933 C 18.186 8.819,18.238 9.802,18.239 13.300 C 18.240 15.188,18.254 16.110,18.285 16.219 C 18.344 16.432,18.578 16.660,18.798 16.719 C 19.198 16.827,19.610 16.599,19.718 16.209 C 19.772 16.014,19.773 11.334,19.719 10.120 C 19.651 8.582,19.514 7.734,19.205 6.940 C 18.879 6.100,18.194 5.355,17.365 4.940 C 16.494 4.503,15.549 4.343,13.460 4.279 C 12.028 4.236,7.994 4.235,7.811 4.279 M9.822 8.564 C 9.331 8.636,9.017 8.807,8.808 9.116 C 8.555 9.489,8.546 9.569,8.530 11.778 C 8.510 14.407,8.539 14.627,8.957 15.040 C 9.371 15.449,9.576 15.478,12.000 15.478 C 14.426 15.478,14.632 15.449,15.040 15.040 C 15.449 14.632,15.478 14.426,15.478 12.000 C 15.478 9.575,15.449 9.371,15.040 8.956 C 14.796 8.709,14.614 8.629,14.140 8.561 C 13.799 8.513,10.158 8.515,9.822 8.564 " fill="#1C274C" stroke="none" fill-rule="evenodd"></path></svg>