<svg width="24" height="24" viewBox="0 0 24 24" fill="none" xmlns="http://www.w3.org/2000/svg"><path d="M7.300 2.026 C 6.601 2.050,5.735 2.126,5.300 2.200 C 3.429 2.521,2.501 3.463,2.186 5.360 C 2.027 6.313,2.020 6.613,2.020 12.060 C 2.020 16.872,2.026 17.395,2.091 17.957 C 2.262 19.433,2.551 20.195,3.178 20.822 C 3.926 21.570,4.854 21.851,6.940 21.962 C 8.040 22.021,17.239 21.990,17.820 21.926 C 19.212 21.772,19.994 21.522,20.589 21.040 C 21.395 20.387,21.755 19.500,21.929 17.740 C 22.002 16.992,22.002 7.008,21.929 6.260 C 21.786 4.816,21.531 4.008,21.022 3.391 C 20.367 2.598,19.477 2.242,17.720 2.074 C 17.298 2.034,8.271 1.992,7.300 2.026 M8.405 5.381 C 8.485 5.432,8.593 5.543,8.645 5.627 L 8.740 5.780 8.764 9.920 C 8.789 14.256,8.790 14.289,8.968 14.669 C 9.093 14.935,9.285 15.050,9.820 15.183 C 9.886 15.199,11.803 15.223,14.080 15.236 L 18.220 15.260 18.373 15.355 C 18.615 15.506,18.733 15.718,18.733 16.003 C 18.733 16.203,18.714 16.270,18.616 16.409 C 18.403 16.713,18.320 16.738,17.494 16.753 L 16.768 16.766 16.754 17.500 L 16.740 18.233 16.619 18.405 C 16.453 18.642,16.273 18.739,16.000 18.739 C 15.727 18.739,15.547 18.642,15.381 18.405 L 15.260 18.233 15.246 17.501 L 15.233 16.768 12.606 16.748 C 9.872 16.726,9.704 16.717,9.093 16.540 C 8.272 16.303,7.674 15.686,7.443 14.838 C 7.296 14.297,7.275 13.913,7.252 11.313 L 7.230 8.766 6.505 8.753 C 5.680 8.738,5.597 8.713,5.384 8.409 C 5.286 8.271,5.267 8.203,5.267 8.007 C 5.267 7.721,5.372 7.526,5.612 7.367 C 5.770 7.262,5.790 7.260,6.503 7.246 L 7.232 7.232 7.246 6.506 C 7.259 5.829,7.266 5.770,7.353 5.631 C 7.586 5.256,8.044 5.147,8.405 5.381 M14.180 7.319 C 15.482 7.475,16.256 8.073,16.556 9.156 C 16.698 9.668,16.733 10.215,16.737 11.980 L 16.740 13.660 16.640 13.834 C 16.356 14.331,15.656 14.334,15.366 13.840 L 15.260 13.660 15.234 11.800 C 15.220 10.777,15.196 9.886,15.181 9.820 C 15.127 9.587,15.027 9.299,14.968 9.208 C 14.879 9.071,14.602 8.925,14.295 8.854 C 14.075 8.803,13.653 8.785,12.180 8.765 C 10.084 8.736,10.129 8.744,9.915 8.405 C 9.635 7.965,9.861 7.410,10.374 7.275 C 10.549 7.229,13.740 7.266,14.180 7.319 " fill="#1C274C" stroke="none" fill-rule="evenodd"></path></svg>