<svg width="24" height="24" viewBox="0 0 24 24" fill="none" xmlns="http://www.w3.org/2000/svg"><path d="M11.733 2.056 C 11.557 2.136,11.307 2.396,11.103 2.712 C 10.894 3.036,10.367 4.086,8.811 7.279 C 8.163 8.611,7.563 9.817,7.479 9.960 C 7.211 10.417,6.951 10.600,6.573 10.600 C 6.200 10.600,5.989 10.429,5.066 9.380 C 4.263 8.468,3.601 7.801,3.343 7.645 C 3.050 7.468,2.817 7.462,2.517 7.625 C 2.271 7.759,2.106 7.988,2.042 8.286 C 1.946 8.736,1.973 9.174,2.340 13.060 C 2.782 17.751,2.973 18.857,3.524 19.920 C 4.069 20.970,4.888 21.542,6.207 21.795 C 7.126 21.971,7.396 21.980,12.000 21.980 C 16.604 21.980,16.874 21.971,17.793 21.795 C 19.735 21.423,20.649 20.347,21.098 17.903 C 21.281 16.912,21.374 16.101,21.678 12.860 C 22.028 9.136,22.049 8.793,21.959 8.315 C 21.871 7.850,21.501 7.511,21.080 7.511 C 20.691 7.511,20.306 7.840,19.061 9.240 C 17.968 10.468,17.809 10.600,17.427 10.600 C 17.049 10.600,16.789 10.417,16.521 9.960 C 16.437 9.817,15.825 8.584,15.160 7.220 C 13.034 2.854,12.794 2.413,12.401 2.141 C 12.207 2.006,11.923 1.970,11.733 2.056 M12.310 11.676 C 12.393 11.762,12.595 12.072,12.760 12.366 C 12.925 12.660,13.105 12.947,13.161 13.005 C 13.243 13.089,13.372 13.135,13.821 13.240 C 14.537 13.407,14.772 13.496,14.898 13.645 C 15.098 13.883,15.012 14.093,14.433 14.784 C 13.871 15.456,13.898 15.377,13.960 16.119 C 14.030 16.964,14.009 17.249,13.868 17.390 C 13.682 17.576,13.458 17.531,12.596 17.137 C 12.336 17.018,12.069 16.920,12.002 16.920 C 11.936 16.920,11.625 17.034,11.311 17.174 C 10.469 17.549,10.294 17.576,10.102 17.362 C 9.994 17.243,9.977 16.889,10.040 16.119 C 10.102 15.378,10.130 15.458,9.567 14.785 C 8.988 14.094,8.902 13.882,9.102 13.645 C 9.228 13.496,9.463 13.407,10.179 13.240 C 10.628 13.135,10.757 13.089,10.839 13.005 C 10.895 12.947,11.075 12.660,11.240 12.366 C 11.613 11.701,11.776 11.520,12.000 11.520 C 12.134 11.520,12.185 11.546,12.310 11.676 " fill="#1C274C" stroke="none" fill-rule="evenodd"></path></svg>