<svg width="24" height="24" viewBox="0 0 24 24" fill="none" xmlns="http://www.w3.org/2000/svg"><path d="M11.580 3.047 C 10.859 3.185,10.199 3.848,10.044 4.592 C 9.882 5.371,10.219 6.205,10.875 6.648 C 10.977 6.717,11.065 6.777,11.072 6.782 C 11.078 6.786,11.027 6.886,10.958 7.004 C 10.889 7.121,10.309 8.154,9.670 9.299 C 9.031 10.443,8.439 11.482,8.355 11.606 C 8.178 11.869,8.002 11.990,7.751 12.025 C 7.450 12.066,7.256 11.948,6.642 11.348 C 5.927 10.650,5.495 10.245,5.305 10.096 L 5.149 9.975 5.253 9.817 C 5.594 9.300,5.570 8.593,5.193 8.102 C 4.873 7.685,4.453 7.499,3.899 7.528 C 3.498 7.549,3.226 7.669,2.947 7.947 C 2.365 8.530,2.356 9.456,2.928 10.034 C 3.201 10.311,3.396 10.405,3.884 10.499 L 3.988 10.519 4.012 11.049 C 4.032 11.488,4.419 15.280,4.560 16.419 C 4.582 16.594,4.600 16.743,4.600 16.749 C 4.600 16.755,7.928 16.760,11.996 16.760 L 19.393 16.760 19.417 16.610 C 19.490 16.150,19.968 11.496,19.988 11.049 L 20.012 10.519 20.116 10.499 C 20.604 10.405,20.799 10.311,21.072 10.034 C 21.644 9.456,21.635 8.530,21.053 7.947 C 20.774 7.669,20.502 7.549,20.101 7.528 C 19.547 7.499,19.127 7.685,18.807 8.102 C 18.430 8.593,18.406 9.300,18.747 9.817 L 18.851 9.975 18.695 10.096 C 18.503 10.247,18.109 10.615,17.374 11.330 C 16.736 11.951,16.550 12.066,16.249 12.025 C 15.998 11.990,15.822 11.869,15.644 11.606 C 15.560 11.482,14.967 10.441,14.327 9.294 C 13.687 8.147,13.107 7.114,13.039 6.999 C 12.972 6.884,12.922 6.786,12.928 6.782 C 12.935 6.777,13.023 6.717,13.125 6.648 C 14.159 5.949,14.293 4.486,13.404 3.596 C 12.913 3.106,12.277 2.914,11.580 3.047 M4.897 18.410 C 4.945 18.711,5.207 19.436,5.355 19.682 C 5.654 20.173,6.047 20.470,6.680 20.682 C 7.479 20.950,8.298 20.998,12.000 20.998 C 15.702 20.998,16.521 20.950,17.320 20.682 C 18.210 20.384,18.663 19.894,18.976 18.889 C 19.033 18.707,19.091 18.486,19.105 18.399 L 19.130 18.240 12.000 18.240 L 4.870 18.240 4.897 18.410 " fill="#1C274C" stroke="none" fill-rule="evenodd"></path></svg>