<svg width="24" height="24" viewBox="0 0 24 24" fill="none" xmlns="http://www.w3.org/2000/svg"><path d="M11.733 2.056 C 11.557 2.136,11.307 2.396,11.103 2.712 C 10.894 3.036,10.367 4.086,8.811 7.279 C 8.163 8.611,7.563 9.817,7.479 9.960 C 7.211 10.417,6.951 10.600,6.573 10.600 C 6.200 10.600,5.989 10.429,5.066 9.380 C 4.263 8.468,3.601 7.801,3.343 7.645 C 3.050 7.468,2.817 7.462,2.517 7.625 C 2.271 7.759,2.106 7.988,2.042 8.286 C 1.946 8.736,1.973 9.174,2.340 13.060 C 2.782 17.751,2.973 18.857,3.524 19.920 C 4.069 20.970,4.888 21.542,6.207 21.795 C 7.126 21.971,7.396 21.980,12.000 21.980 C 16.604 21.980,16.874 21.971,17.793 21.795 C 19.735 21.423,20.649 20.347,21.098 17.903 C 21.281 16.912,21.374 16.101,21.678 12.860 C 22.028 9.136,22.049 8.793,21.959 8.315 C 21.871 7.850,21.501 7.511,21.080 7.511 C 20.691 7.511,20.306 7.840,19.061 9.240 C 17.968 10.468,17.809 10.600,17.427 10.600 C 17.049 10.600,16.789 10.417,16.521 9.960 C 16.437 9.817,15.825 8.584,15.160 7.220 C 13.034 2.854,12.794 2.413,12.401 2.141 C 12.207 2.006,11.923 1.970,11.733 2.056 M15.388 17.367 C 15.628 17.526,15.733 17.721,15.733 18.007 C 15.733 18.203,15.714 18.271,15.616 18.409 C 15.552 18.501,15.436 18.613,15.359 18.658 C 15.222 18.739,15.173 18.740,12.000 18.740 C 8.827 18.740,8.778 18.739,8.641 18.658 C 8.564 18.613,8.448 18.501,8.384 18.409 C 8.098 18.003,8.330 17.395,8.815 17.278 C 8.884 17.261,10.354 17.250,12.083 17.254 L 15.226 17.260 15.388 17.367 " fill="#1C274C" stroke="none" fill-rule="evenodd"></path></svg>