<svg width="24" height="24" viewBox="0 0 24 24" fill="none" xmlns="http://www.w3.org/2000/svg"><path d="M5.153 3.044 C 4.140 3.122,3.606 3.395,3.305 3.989 C 3.023 4.546,3.000 4.917,3.000 8.890 L 3.000 12.240 10.000 12.240 L 17.000 12.240 17.000 13.000 L 17.000 13.760 10.006 13.760 L 3.012 13.760 3.028 14.170 C 3.050 14.732,3.145 15.566,3.223 15.880 C 3.310 16.230,3.603 16.826,3.778 17.007 C 4.401 17.653,5.059 17.872,6.649 17.960 C 7.545 18.010,12.455 18.010,13.351 17.960 C 14.854 17.877,15.501 17.680,16.082 17.132 C 16.548 16.693,16.784 16.114,16.902 15.123 C 16.933 14.868,16.958 14.514,16.959 14.335 C 16.959 14.156,16.971 13.954,16.985 13.885 L 17.010 13.760 17.616 13.760 C 18.848 13.760,19.663 13.555,20.515 13.031 C 20.985 12.742,21.742 11.985,22.031 11.515 C 22.986 9.962,22.986 8.021,22.031 6.490 C 21.785 6.096,21.229 5.489,20.847 5.199 C 20.700 5.087,20.364 4.889,20.100 4.759 C 19.302 4.364,18.680 4.243,17.440 4.241 L 16.820 4.240 16.687 3.982 C 16.462 3.548,16.077 3.263,15.549 3.141 C 15.411 3.109,15.055 3.064,14.759 3.041 C 14.118 2.992,5.793 2.995,5.153 3.044 M18.994 5.913 C 19.531 6.097,19.884 6.317,20.284 6.716 C 20.682 7.115,20.902 7.467,21.088 8.006 C 21.212 8.365,21.217 8.405,21.217 9.000 C 21.217 9.595,21.212 9.635,21.088 9.994 C 20.902 10.533,20.682 10.885,20.284 11.284 C 19.879 11.688,19.511 11.918,18.991 12.092 C 18.634 12.211,18.589 12.216,17.810 12.231 L 17.000 12.247 17.000 8.999 L 17.000 5.751 17.810 5.768 C 18.594 5.785,18.632 5.790,18.994 5.913 M1.807 20.287 C 1.568 20.341,1.341 20.572,1.289 20.816 C 1.197 21.246,1.431 21.629,1.838 21.716 C 2.130 21.779,21.870 21.779,22.162 21.716 C 22.920 21.553,22.920 20.447,22.162 20.284 C 21.893 20.227,2.065 20.229,1.807 20.287 " fill="#1C274C" stroke="none" fill-rule="evenodd"></path></svg>