<svg width="24" height="24" viewBox="0 0 24 24" fill="none" xmlns="http://www.w3.org/2000/svg"><path d="M10.820 2.024 C 8.666 2.136,6.605 2.452,5.993 2.764 C 5.585 2.972,5.208 3.463,5.098 3.932 C 4.935 4.621,5.072 7.240,5.361 8.985 C 5.922 12.364,7.203 14.492,9.245 15.435 C 9.764 15.675,10.408 15.855,11.050 15.940 L 11.240 15.965 11.240 17.740 L 11.240 19.516 10.367 19.528 L 9.493 19.540 9.298 19.661 C 9.004 19.843,8.896 20.050,8.765 20.684 L 8.654 21.220 7.237 21.240 C 5.952 21.258,5.806 21.267,5.668 21.336 C 5.057 21.639,5.172 22.573,5.838 22.716 C 6.129 22.778,17.871 22.778,18.162 22.716 C 18.920 22.553,18.920 21.447,18.162 21.284 C 18.035 21.257,17.452 21.240,16.647 21.240 L 15.337 21.240 15.229 20.692 C 15.102 20.045,14.999 19.845,14.702 19.661 L 14.507 19.540 13.633 19.528 L 12.760 19.516 12.760 17.740 L 12.760 15.965 12.950 15.940 C 16.073 15.528,17.929 13.261,18.637 8.996 C 18.928 7.244,19.065 4.625,18.902 3.932 C 18.792 3.463,18.416 2.972,18.007 2.764 C 17.511 2.511,15.867 2.221,14.120 2.079 C 13.600 2.037,11.308 1.999,10.820 2.024 M12.317 5.192 C 12.418 5.297,12.625 5.606,12.778 5.878 C 12.930 6.150,13.096 6.421,13.147 6.481 C 13.242 6.594,13.265 6.602,14.070 6.799 C 15.237 7.084,15.277 7.297,14.366 8.375 C 14.145 8.637,13.953 8.899,13.940 8.958 C 13.927 9.017,13.943 9.370,13.976 9.743 C 14.044 10.526,14.019 10.768,13.858 10.910 C 13.672 11.073,13.439 11.023,12.600 10.637 C 12.323 10.510,12.084 10.426,12.000 10.426 C 11.916 10.426,11.677 10.510,11.400 10.637 C 10.561 11.023,10.328 11.073,10.142 10.910 C 9.981 10.768,9.956 10.526,10.024 9.743 C 10.057 9.370,10.073 9.017,10.060 8.958 C 10.047 8.899,9.855 8.637,9.634 8.375 C 9.030 7.660,8.904 7.395,9.063 7.168 C 9.160 7.030,9.395 6.930,9.930 6.799 C 10.735 6.602,10.758 6.594,10.853 6.481 C 10.904 6.421,11.070 6.150,11.222 5.878 C 11.561 5.275,11.804 5.000,12.000 5.000 C 12.109 5.000,12.170 5.037,12.317 5.192 M3.200 5.615 C 2.863 5.756,2.635 5.879,2.471 6.008 C 2.257 6.176,2.092 6.542,2.041 6.959 C 1.987 7.404,1.988 8.910,2.043 9.304 C 2.143 10.025,2.290 10.158,4.097 11.163 L 4.333 11.295 4.306 11.198 C 3.902 9.738,3.675 8.245,3.560 6.292 C 3.538 5.913,3.520 5.584,3.520 5.562 C 3.520 5.500,3.445 5.513,3.200 5.615 M20.465 5.646 C 20.453 5.720,20.433 6.041,20.420 6.360 C 20.361 7.831,20.094 9.701,19.776 10.874 C 19.721 11.080,19.682 11.255,19.689 11.263 C 19.697 11.271,19.982 11.123,20.322 10.934 C 22.004 10.000,22.023 9.966,21.991 7.924 C 21.975 6.945,21.964 6.792,21.890 6.569 C 21.761 6.175,21.583 5.992,21.107 5.761 C 20.883 5.653,20.652 5.552,20.593 5.538 C 20.495 5.515,20.483 5.525,20.465 5.646 " fill="#1C274C" stroke="none" fill-rule="evenodd"></path></svg>