<svg width="24" height="24" viewBox="0 0 24 24" fill="none" xmlns="http://www.w3.org/2000/svg"><path d="M7.240 2.042 C 6.644 2.086,6.268 2.175,5.900 2.357 C 4.962 2.823,4.642 3.373,3.788 5.980 C 3.353 7.307,3.327 7.526,3.559 7.892 C 3.731 8.163,3.990 8.273,4.564 8.321 C 4.815 8.342,5.128 8.359,5.261 8.359 L 5.502 8.360 5.695 9.690 C 5.801 10.422,5.897 11.070,5.909 11.130 L 5.930 11.240 12.000 11.240 L 18.070 11.240 18.091 11.130 C 18.103 11.070,18.199 10.422,18.305 9.690 L 18.498 8.360 18.739 8.359 C 18.872 8.359,19.185 8.342,19.436 8.321 C 20.006 8.274,20.254 8.169,20.434 7.896 C 20.675 7.533,20.649 7.315,20.212 5.980 C 19.358 3.373,19.038 2.823,18.100 2.357 C 17.721 2.169,17.365 2.089,16.683 2.039 C 16.083 1.995,7.843 1.998,7.240 2.042 M6.170 12.890 C 6.181 12.962,6.296 13.745,6.425 14.630 L 6.660 16.240 12.000 16.240 L 17.340 16.240 17.575 14.630 C 17.704 13.744,17.819 12.962,17.830 12.890 L 17.850 12.760 12.000 12.760 L 6.150 12.760 6.170 12.890 M6.895 17.870 C 6.907 17.930,6.973 18.358,7.041 18.820 C 7.295 20.528,7.433 20.982,7.822 21.398 C 8.151 21.750,8.538 21.893,9.346 21.959 C 9.961 22.010,14.039 22.010,14.654 21.959 C 15.462 21.893,15.849 21.750,16.178 21.398 C 16.567 20.982,16.707 20.522,16.958 18.820 C 17.026 18.358,17.092 17.930,17.104 17.870 L 17.126 17.760 12.000 17.760 L 6.874 17.760 6.895 17.870 " fill="#1C274C" stroke="none" fill-rule="evenodd"></path></svg>