<svg width="24" height="24" viewBox="0 0 24 24" fill="none" xmlns="http://www.w3.org/2000/svg"><path d="M10.820 2.024 C 8.666 2.136,6.605 2.452,5.993 2.764 C 5.585 2.972,5.208 3.463,5.098 3.932 C 4.935 4.621,5.072 7.240,5.361 8.985 C 5.922 12.364,7.203 14.492,9.245 15.435 C 9.764 15.675,10.408 15.855,11.050 15.940 L 11.240 15.965 11.240 17.740 L 11.240 19.516 10.367 19.528 L 9.493 19.540 9.298 19.661 C 9.004 19.843,8.896 20.050,8.765 20.684 L 8.654 21.220 7.237 21.240 C 5.952 21.258,5.806 21.267,5.668 21.336 C 5.057 21.639,5.172 22.573,5.838 22.716 C 6.129 22.778,17.871 22.778,18.162 22.716 C 18.920 22.553,18.920 21.447,18.162 21.284 C 18.035 21.257,17.452 21.240,16.647 21.240 L 15.337 21.240 15.229 20.692 C 15.102 20.045,14.999 19.845,14.702 19.661 L 14.507 19.540 13.633 19.528 L 12.760 19.516 12.760 17.740 L 12.760 15.965 12.950 15.940 C 16.073 15.528,17.929 13.261,18.637 8.996 C 18.928 7.244,19.065 4.625,18.902 3.932 C 18.792 3.463,18.416 2.972,18.007 2.764 C 17.511 2.511,15.867 2.221,14.120 2.079 C 13.600 2.037,11.308 1.999,10.820 2.024 M13.065 4.077 C 13.338 4.201,13.516 4.518,13.519 4.888 C 13.521 5.081,13.679 5.430,13.840 5.596 C 14.058 5.820,14.334 5.950,14.688 5.994 C 15.037 6.037,15.199 6.111,15.336 6.291 C 15.432 6.417,15.528 6.722,15.500 6.815 C 15.493 6.840,15.476 6.909,15.463 6.969 C 15.434 7.101,15.228 7.344,15.084 7.416 C 15.027 7.445,14.921 7.480,14.850 7.493 C 14.668 7.528,14.168 7.458,13.892 7.359 C 13.765 7.314,13.630 7.266,13.593 7.254 C 13.531 7.234,13.525 7.364,13.512 8.926 L 13.498 10.620 13.387 10.940 C 13.139 11.654,12.645 12.147,11.940 12.383 C 11.117 12.659,10.194 12.417,9.600 11.770 C 8.778 10.874,8.807 9.527,9.667 8.667 C 10.269 8.065,11.110 7.856,11.930 8.104 C 11.996 8.124,12.000 8.023,12.000 6.361 C 12.000 4.447,12.000 4.449,12.224 4.224 C 12.454 3.994,12.764 3.940,13.065 4.077 M3.200 5.615 C 2.863 5.756,2.635 5.879,2.471 6.008 C 2.257 6.176,2.092 6.542,2.041 6.959 C 1.987 7.404,1.988 8.910,2.043 9.304 C 2.143 10.025,2.290 10.158,4.097 11.163 L 4.333 11.295 4.306 11.198 C 3.902 9.738,3.675 8.245,3.560 6.292 C 3.538 5.913,3.520 5.584,3.520 5.562 C 3.520 5.500,3.445 5.513,3.200 5.615 M20.480 5.557 C 20.480 5.582,20.462 5.913,20.440 6.292 C 20.325 8.245,20.098 9.738,19.694 11.198 L 19.667 11.295 19.903 11.163 C 21.379 10.343,21.669 10.136,21.833 9.787 C 21.954 9.528,22.000 9.084,22.000 8.167 C 21.999 7.090,21.955 6.694,21.798 6.372 C 21.653 6.076,21.487 5.934,21.032 5.722 C 20.643 5.540,20.480 5.491,20.480 5.557 M10.965 9.335 C 10.754 9.411,10.519 9.634,10.416 9.856 C 10.135 10.458,10.516 11.149,11.189 11.259 C 11.562 11.320,12.016 11.073,12.212 10.703 C 12.331 10.476,12.332 10.044,12.212 9.820 C 11.979 9.380,11.430 9.167,10.965 9.335 " fill="#1C274C" stroke="none" fill-rule="evenodd"></path></svg>