<svg width="24" height="24" viewBox="0 0 24 24" fill="none" xmlns="http://www.w3.org/2000/svg"><path d="M6.183 1.291 C 5.989 1.400,5.481 2.082,5.356 2.400 C 5.165 2.883,5.274 3.487,5.622 3.874 C 5.720 3.983,5.800 4.083,5.800 4.097 C 5.800 4.111,5.696 4.270,5.570 4.451 C 5.342 4.775,5.340 4.782,5.340 5.063 C 5.340 5.312,5.354 5.364,5.452 5.493 C 5.678 5.789,6.053 5.878,6.388 5.716 C 6.524 5.650,6.623 5.546,6.835 5.246 C 7.280 4.618,7.300 4.568,7.300 4.080 C 7.300 3.698,7.290 3.640,7.187 3.440 C 7.125 3.319,7.005 3.148,6.920 3.060 L 6.766 2.900 6.945 2.660 C 7.278 2.215,7.347 1.958,7.218 1.650 C 7.139 1.460,7.055 1.369,6.872 1.276 C 6.668 1.172,6.381 1.178,6.183 1.291 M10.183 1.291 C 9.989 1.400,9.481 2.082,9.356 2.400 C 9.165 2.883,9.274 3.487,9.622 3.874 C 9.720 3.983,9.800 4.083,9.800 4.097 C 9.800 4.111,9.697 4.270,9.570 4.451 C 9.342 4.775,9.340 4.782,9.340 5.063 C 9.340 5.312,9.354 5.364,9.452 5.493 C 9.678 5.789,10.053 5.878,10.388 5.716 C 10.524 5.650,10.623 5.546,10.835 5.246 C 11.280 4.618,11.300 4.568,11.300 4.080 C 11.300 3.715,11.287 3.634,11.202 3.460 C 11.148 3.350,11.028 3.179,10.936 3.080 L 10.768 2.900 10.947 2.660 C 11.278 2.213,11.347 1.958,11.218 1.650 C 11.139 1.460,11.055 1.369,10.872 1.276 C 10.668 1.172,10.381 1.178,10.183 1.291 M14.183 1.291 C 13.989 1.400,13.481 2.082,13.356 2.400 C 13.165 2.883,13.274 3.487,13.622 3.874 C 13.720 3.983,13.800 4.083,13.800 4.097 C 13.800 4.111,13.697 4.270,13.570 4.451 C 13.342 4.775,13.340 4.782,13.340 5.063 C 13.340 5.312,13.354 5.364,13.452 5.493 C 13.678 5.789,14.053 5.878,14.388 5.716 C 14.524 5.650,14.623 5.546,14.835 5.246 C 15.280 4.618,15.300 4.568,15.300 4.080 C 15.300 3.715,15.287 3.634,15.202 3.460 C 15.148 3.350,15.028 3.179,14.936 3.080 L 14.768 2.900 14.947 2.660 C 15.278 2.213,15.347 1.958,15.218 1.650 C 15.139 1.460,15.055 1.369,14.872 1.276 C 14.668 1.172,14.381 1.178,14.183 1.291 M5.380 7.042 C 4.555 7.099,4.032 7.280,3.698 7.624 C 3.336 7.996,3.200 8.495,3.200 9.448 C 3.200 9.938,3.558 15.760,3.662 16.950 L 3.687 17.240 9.998 17.240 L 16.310 17.240 16.336 17.006 L 16.363 16.772 17.011 16.748 C 18.170 16.704,19.069 16.430,19.900 15.866 C 20.272 15.614,20.823 15.057,21.077 14.679 C 21.531 13.999,21.735 13.325,21.735 12.500 C 21.735 11.915,21.653 11.498,21.436 10.976 C 21.078 10.118,20.297 9.304,19.377 8.832 C 18.680 8.474,18.032 8.305,17.168 8.256 L 16.677 8.228 16.576 8.016 C 16.284 7.399,15.701 7.119,14.540 7.039 C 13.917 6.996,6.008 6.999,5.380 7.042 M17.960 9.879 C 18.333 9.974,18.825 10.204,19.115 10.416 C 19.560 10.743,19.946 11.259,20.129 11.773 C 20.256 12.128,20.256 12.872,20.129 13.227 C 19.858 13.987,19.227 14.635,18.429 14.970 C 18.005 15.148,17.502 15.239,16.935 15.239 L 16.450 15.240 16.466 15.070 C 16.483 14.886,16.738 11.001,16.784 10.225 L 16.812 9.749 17.216 9.770 C 17.438 9.782,17.773 9.831,17.960 9.879 M3.840 18.865 C 3.840 19.055,4.038 19.954,4.140 20.224 C 4.289 20.620,4.493 20.928,4.781 21.192 C 5.094 21.478,5.436 21.653,5.929 21.778 C 6.643 21.959,7.062 21.980,10.000 21.980 C 12.938 21.980,13.357 21.959,14.071 21.778 C 14.960 21.553,15.534 21.061,15.846 20.258 C 15.956 19.975,16.160 19.069,16.160 18.865 L 16.160 18.760 10.000 18.760 L 3.840 18.760 3.840 18.865 " fill="#1C274C" stroke="none" fill-rule="evenodd"></path></svg>