<svg width="24" height="24" viewBox="0 0 24 24" fill="none" xmlns="http://www.w3.org/2000/svg"><path d="M8.419 2.041 C 5.785 2.145,4.480 2.507,3.549 3.393 C 2.551 4.342,2.166 5.587,2.041 8.260 C 1.988 9.399,1.988 14.601,2.041 15.740 C 2.160 18.285,2.507 19.501,3.379 20.433 C 4.245 21.360,5.318 21.742,7.580 21.927 C 8.488 22.002,15.512 22.002,16.420 21.927 C 18.857 21.727,19.992 21.275,20.860 20.157 C 21.474 19.368,21.771 18.329,21.927 16.420 C 22.002 15.512,22.002 8.488,21.927 7.580 C 21.740 5.297,21.356 4.232,20.407 3.355 C 19.572 2.585,18.492 2.242,16.380 2.078 C 15.684 2.023,9.573 1.995,8.419 2.041 M12.405 6.381 C 12.485 6.432,12.593 6.543,12.645 6.627 L 12.740 6.780 12.740 10.007 L 12.740 13.233 12.619 13.405 C 12.453 13.641,12.273 13.739,12.000 13.739 C 11.727 13.739,11.547 13.641,11.381 13.405 L 11.260 13.233 11.260 10.007 L 11.260 6.780 11.353 6.631 C 11.586 6.256,12.044 6.147,12.405 6.381 M12.340 15.066 C 12.709 15.192,13.000 15.604,13.000 16.000 C 13.000 16.527,12.527 17.000,12.000 17.000 C 11.758 17.000,11.479 16.881,11.299 16.701 C 10.907 16.309,10.908 15.690,11.300 15.298 C 11.577 15.020,11.957 14.936,12.340 15.066 " fill="#1C274C" stroke="none" fill-rule="evenodd"></path></svg>