<svg width="24" height="24" viewBox="0 0 24 24" fill="none" xmlns="http://www.w3.org/2000/svg"><path d="M11.459 3.058 C 10.800 3.178,10.233 3.521,9.540 4.217 C 8.475 5.288,7.750 6.425,4.859 11.560 C 3.799 13.441,3.299 14.366,2.933 15.120 C 2.108 16.822,1.862 17.849,2.079 18.697 C 2.192 19.136,2.333 19.374,2.699 19.742 C 3.190 20.235,3.753 20.494,4.780 20.699 C 5.991 20.942,7.376 20.999,12.000 20.999 C 16.624 20.999,18.009 20.942,19.220 20.699 C 20.247 20.494,20.810 20.235,21.301 19.742 C 21.667 19.374,21.808 19.136,21.921 18.697 C 22.149 17.806,21.878 16.750,20.944 14.880 C 20.515 14.021,20.157 13.364,18.948 11.220 C 16.558 6.977,15.897 5.906,14.978 4.780 C 13.827 3.370,12.722 2.829,11.459 3.058 M12.405 7.381 C 12.485 7.432,12.593 7.543,12.645 7.627 L 12.740 7.780 12.740 10.507 L 12.740 13.233 12.619 13.405 C 12.453 13.641,12.273 13.739,12.000 13.739 C 11.727 13.739,11.547 13.641,11.381 13.405 L 11.260 13.233 11.260 10.507 L 11.260 7.780 11.353 7.631 C 11.586 7.256,12.044 7.147,12.405 7.381 M12.340 15.066 C 12.709 15.192,13.000 15.604,13.000 16.000 C 13.000 16.527,12.527 17.000,12.000 17.000 C 11.758 17.000,11.479 16.881,11.299 16.701 C 10.907 16.309,10.908 15.690,11.300 15.298 C 11.577 15.020,11.957 14.936,12.340 15.066 " fill="#1C274C" stroke="none" fill-rule="evenodd"></path></svg>