<svg width="24" height="24" viewBox="0 0 24 24" fill="none" xmlns="http://www.w3.org/2000/svg"><path d="M11.600 2.024 C 10.621 2.205,10.200 2.410,7.360 4.090 C 4.638 5.701,3.979 6.210,3.540 7.046 C 3.071 7.938,3.001 8.583,3.001 12.000 C 3.001 14.908,3.052 15.671,3.294 16.383 C 3.610 17.310,4.083 17.844,5.320 18.668 C 5.757 18.959,7.968 20.286,9.034 20.897 C 11.290 22.189,12.161 22.294,13.866 21.480 C 14.952 20.962,18.549 18.811,19.326 18.215 C 20.060 17.652,20.450 17.134,20.706 16.383 C 20.948 15.671,20.999 14.908,20.999 12.000 C 20.999 8.583,20.929 7.938,20.460 7.046 C 20.021 6.209,19.367 5.704,16.626 4.081 C 14.218 2.655,13.647 2.358,12.900 2.140 C 12.549 2.038,11.859 1.976,11.600 2.024 M12.405 6.381 C 12.485 6.432,12.593 6.543,12.645 6.627 L 12.740 6.780 12.740 10.007 L 12.740 13.233 12.619 13.405 C 12.453 13.641,12.273 13.739,12.000 13.739 C 11.727 13.739,11.547 13.641,11.381 13.405 L 11.260 13.233 11.260 10.007 L 11.260 6.780 11.353 6.631 C 11.586 6.256,12.044 6.147,12.405 6.381 M12.340 15.066 C 12.709 15.192,13.000 15.604,13.000 16.000 C 13.000 16.527,12.527 17.000,12.000 17.000 C 11.758 17.000,11.479 16.881,11.299 16.701 C 10.907 16.309,10.908 15.690,11.300 15.298 C 11.577 15.020,11.957 14.936,12.340 15.066 " fill="#1C274C" stroke="none" fill-rule="evenodd"></path></svg>