<svg width="24" height="24" viewBox="0 0 24 24" fill="none" xmlns="http://www.w3.org/2000/svg"><path d="M10.860 2.045 C 8.803 2.188,6.862 2.766,5.585 3.616 C 4.375 4.420,3.745 5.605,4.184 6.248 C 4.366 6.514,4.947 7.082,5.317 7.356 C 6.574 8.286,8.237 8.888,10.260 9.147 C 11.051 9.248,12.949 9.248,13.740 9.147 C 16.166 8.837,18.113 8.015,19.342 6.783 C 19.769 6.354,19.928 6.118,19.951 5.877 C 20.001 5.361,19.644 4.668,19.043 4.111 C 17.448 2.634,14.195 1.813,10.860 2.045 M4.000 10.020 C 4.000 11.834,4.007 12.063,4.067 12.194 C 4.155 12.384,4.662 12.880,5.063 13.167 C 6.673 14.319,8.134 14.875,10.260 15.147 C 11.051 15.248,12.949 15.248,13.740 15.147 C 14.741 15.019,15.546 14.835,16.380 14.545 C 16.993 14.331,17.251 14.203,17.877 13.800 C 19.074 13.028,19.692 12.551,19.883 12.250 L 20.000 12.064 20.000 10.028 L 20.000 7.992 19.750 8.249 C 17.699 10.357,13.052 11.290,8.840 10.440 C 6.850 10.039,5.247 9.273,4.250 8.249 L 4.000 7.992 4.000 10.020 M4.001 16.107 C 4.001 18.488,4.003 18.502,4.290 19.055 C 4.491 19.442,5.042 20.021,5.520 20.346 C 6.657 21.121,8.327 21.673,10.240 21.907 C 11.055 22.007,12.945 22.007,13.760 21.907 C 16.750 21.542,19.019 20.430,19.755 18.970 C 19.993 18.498,19.999 18.431,19.999 16.107 L 20.000 13.993 19.709 14.287 C 19.189 14.811,18.471 15.292,17.683 15.644 C 14.372 17.121,9.628 17.121,6.317 15.644 C 5.529 15.292,4.811 14.811,4.291 14.287 L 4.000 13.993 4.001 16.107 " fill="#1C274C" stroke="none" fill-rule="evenodd"></path></svg>