<svg width="24" height="24" viewBox="0 0 24 24" fill="none" xmlns="http://www.w3.org/2000/svg"><path d="M16.234 3.059 C 15.597 3.163,11.650 4.174,10.760 4.461 C 9.730 4.794,9.274 5.155,9.097 5.779 C 9.007 6.094,9.037 6.622,9.179 7.253 C 9.309 7.832,10.297 11.410,10.498 12.028 C 10.880 13.208,11.326 13.695,12.128 13.811 C 12.561 13.873,13.146 13.775,14.700 13.380 C 18.666 12.372,19.207 12.197,19.679 11.774 C 20.048 11.441,20.200 11.094,20.200 10.583 C 20.199 10.041,20.107 9.641,19.361 6.949 C 18.624 4.289,18.486 3.925,18.041 3.476 C 17.843 3.276,17.723 3.191,17.540 3.123 C 17.234 3.008,16.704 2.982,16.234 3.059 M2.620 4.812 C 2.169 5.068,2.148 5.781,2.584 6.066 C 2.641 6.104,3.033 6.230,3.454 6.347 C 3.875 6.464,4.340 6.596,4.487 6.640 C 4.839 6.746,5.120 6.968,5.254 7.248 C 5.346 7.438,7.480 15.074,7.480 15.211 C 7.480 15.247,7.385 15.294,7.222 15.338 C 6.294 15.589,5.572 16.252,5.235 17.162 C 5.128 17.451,5.107 17.570,5.091 17.980 C 5.069 18.540,5.125 18.845,5.334 19.293 C 5.763 20.211,6.590 20.809,7.646 20.963 C 8.673 21.113,9.820 20.645,10.428 19.828 C 10.762 19.377,10.998 18.754,10.999 18.314 C 11.000 18.175,11.017 18.122,11.070 18.101 C 11.108 18.086,13.183 17.543,15.680 16.894 C 18.177 16.245,20.280 15.686,20.352 15.651 C 20.635 15.518,20.796 15.139,20.712 14.804 C 20.627 14.465,20.208 14.190,19.890 14.264 C 19.651 14.319,10.732 16.638,10.677 16.659 C 10.640 16.673,10.593 16.639,10.550 16.566 C 10.327 16.189,9.860 15.776,9.392 15.542 C 9.198 15.445,9.092 15.366,9.075 15.308 C 9.061 15.260,8.542 13.384,7.921 11.140 C 7.301 8.896,6.760 6.965,6.719 6.848 C 6.500 6.221,5.981 5.672,5.316 5.362 C 4.960 5.197,3.220 4.720,2.975 4.721 C 2.847 4.721,2.725 4.752,2.620 4.812 " fill="#1C274C" stroke="none" fill-rule="evenodd"></path></svg>