<svg width="24" height="24" viewBox="0 0 24 24" fill="none" xmlns="http://www.w3.org/2000/svg"><path d="M11.300 2.025 C 10.221 2.064,9.435 2.152,8.829 2.303 C 8.317 2.430,8.011 2.561,7.617 2.822 C 6.771 3.382,6.327 4.247,6.141 5.700 C 6.068 6.277,6.001 7.701,6.001 8.724 L 6.000 9.468 6.306 9.494 C 6.474 9.508,6.731 9.520,6.876 9.520 C 7.195 9.521,7.818 9.612,8.120 9.703 C 9.147 10.012,10.038 10.930,10.318 11.968 C 10.492 12.614,10.500 12.807,10.500 16.500 C 10.500 20.193,10.492 20.386,10.318 21.032 C 10.275 21.192,10.177 21.447,10.101 21.597 C 9.964 21.870,9.964 21.872,10.052 21.895 C 10.313 21.964,12.578 22.008,14.820 21.987 C 17.245 21.964,17.818 21.938,18.575 21.817 C 19.402 21.684,19.868 21.519,20.383 21.178 C 20.753 20.933,20.968 20.714,21.216 20.330 C 21.708 19.570,21.880 18.742,21.964 16.747 C 22.020 15.404,21.988 6.935,21.925 6.280 C 21.800 4.987,21.605 4.272,21.216 3.670 C 20.968 3.286,20.753 3.067,20.383 2.822 C 19.732 2.390,19.069 2.205,17.720 2.078 C 17.291 2.037,12.128 1.995,11.300 2.025 M3.919 11.039 C 3.316 11.097,2.972 11.233,2.636 11.547 C 2.369 11.798,2.215 12.053,2.110 12.423 L 2.021 12.740 2.021 16.500 L 2.021 20.260 2.110 20.574 C 2.212 20.935,2.306 21.103,2.553 21.368 C 2.798 21.632,3.055 21.785,3.423 21.888 C 3.728 21.974,3.805 21.977,5.500 21.977 C 7.195 21.977,7.272 21.974,7.577 21.888 C 7.956 21.782,8.212 21.626,8.474 21.339 C 8.697 21.095,8.813 20.869,8.911 20.488 C 8.974 20.243,8.980 19.893,8.980 16.480 L 8.979 12.740 8.890 12.423 C 8.692 11.727,8.194 11.255,7.485 11.093 C 7.281 11.046,6.881 11.030,5.740 11.019 C 4.926 11.012,4.107 11.021,3.919 11.039 M17.300 18.316 C 17.680 18.491,17.852 18.903,17.698 19.271 C 17.616 19.468,17.494 19.595,17.300 19.684 C 17.150 19.754,16.981 19.758,14.509 19.759 C 12.223 19.760,11.858 19.752,11.729 19.698 C 11.101 19.436,11.084 18.600,11.700 18.316 C 11.850 18.246,12.018 18.242,14.500 18.242 C 16.982 18.242,17.150 18.246,17.300 18.316 " fill="#1C274C" stroke="none" fill-rule="evenodd"></path></svg>