<svg width="24" height="24" viewBox="0 0 24 24" fill="none" xmlns="http://www.w3.org/2000/svg"><path d="M1.811 1.278 C 1.639 1.320,1.417 1.493,1.330 1.652 C 1.264 1.772,1.260 2.186,1.260 8.680 C 1.260 15.780,1.269 16.247,1.423 17.456 C 1.636 19.122,2.098 20.219,2.939 21.061 C 4.063 22.184,5.508 22.607,8.600 22.720 C 10.139 22.776,22.016 22.772,22.219 22.715 C 22.431 22.657,22.660 22.422,22.719 22.204 C 22.808 21.873,22.689 21.566,22.395 21.372 L 22.226 21.260 15.023 21.236 C 9.989 21.220,7.687 21.199,7.380 21.166 C 5.497 20.968,4.645 20.669,3.969 19.970 C 3.298 19.276,3.000 18.365,2.833 16.500 C 2.801 16.142,2.779 13.763,2.763 8.880 C 2.740 1.818,2.740 1.779,2.658 1.641 C 2.494 1.361,2.122 1.202,1.811 1.278 M5.785 6.288 C 5.568 6.347,5.344 6.583,5.286 6.814 C 5.195 7.173,5.227 7.227,6.369 8.667 C 9.293 12.354,9.368 12.442,9.806 12.654 C 10.433 12.958,11.201 12.958,11.822 12.654 C 12.118 12.509,12.393 12.253,13.038 11.524 C 13.680 10.799,13.780 10.700,13.933 10.643 C 14.223 10.533,14.491 10.617,14.766 10.906 C 14.868 11.012,15.729 12.081,16.678 13.280 C 17.628 14.479,18.460 15.508,18.526 15.566 C 18.924 15.914,19.584 15.703,19.714 15.186 C 19.809 14.812,19.833 14.848,17.887 12.393 C 16.012 10.025,15.570 9.525,15.200 9.348 C 14.562 9.042,13.800 9.042,13.178 9.346 C 12.882 9.491,12.607 9.747,11.962 10.476 C 11.320 11.201,11.220 11.300,11.067 11.357 C 10.785 11.464,10.510 11.383,10.252 11.115 C 10.160 11.019,9.277 9.924,8.291 8.683 C 6.992 7.049,6.459 6.407,6.359 6.356 C 6.172 6.261,5.972 6.237,5.785 6.288 " fill="#1C274C" stroke="none" fill-rule="evenodd"></path></svg>