<svg width="24" height="24" viewBox="0 0 24 24" fill="none" xmlns="http://www.w3.org/2000/svg"><path d="M1.811 1.278 C 1.639 1.320,1.417 1.493,1.330 1.652 C 1.264 1.772,1.260 2.186,1.260 8.680 C 1.260 15.780,1.269 16.247,1.423 17.456 C 1.636 19.122,2.098 20.219,2.939 21.061 C 4.063 22.184,5.508 22.607,8.600 22.720 C 10.139 22.776,22.016 22.772,22.219 22.715 C 22.431 22.657,22.660 22.422,22.719 22.204 C 22.808 21.873,22.689 21.566,22.395 21.372 L 22.226 21.260 15.023 21.236 C 9.989 21.220,7.687 21.199,7.380 21.166 C 5.497 20.968,4.645 20.669,3.969 19.970 C 3.298 19.276,3.000 18.365,2.833 16.500 C 2.801 16.142,2.779 13.763,2.763 8.880 C 2.740 1.818,2.740 1.779,2.658 1.641 C 2.494 1.361,2.122 1.202,1.811 1.278 M18.819 6.276 C 18.753 6.293,18.650 6.338,18.592 6.376 C 18.533 6.414,17.697 7.439,16.734 8.653 C 14.860 11.014,14.651 11.261,14.451 11.346 C 14.297 11.411,14.087 11.416,13.933 11.357 C 13.780 11.300,13.680 11.201,13.038 10.476 C 12.393 9.747,12.118 9.491,11.822 9.346 C 11.201 9.042,10.433 9.042,9.806 9.346 C 9.368 9.558,9.293 9.646,6.369 13.333 C 5.227 14.773,5.195 14.827,5.286 15.186 C 5.416 15.703,6.076 15.914,6.474 15.566 C 6.540 15.508,7.372 14.479,8.322 13.280 C 9.271 12.081,10.132 11.012,10.234 10.906 C 10.509 10.617,10.777 10.533,11.067 10.643 C 11.220 10.700,11.320 10.799,11.962 11.524 C 12.607 12.253,12.882 12.509,13.178 12.654 C 13.799 12.958,14.546 12.958,15.186 12.655 C 15.629 12.446,15.697 12.367,18.631 8.667 C 19.457 7.626,19.681 7.318,19.717 7.176 C 19.850 6.646,19.349 6.143,18.819 6.276 " fill="#1C274C" stroke="none" fill-rule="evenodd"></path></svg>