<svg width="24" height="24" viewBox="0 0 24 24" fill="none" xmlns="http://www.w3.org/2000/svg"><path d="M10.860 2.027 C 10.328 2.049,9.660 2.124,9.314 2.199 C 7.938 2.499,6.763 3.603,6.343 4.987 L 6.316 5.074 10.028 5.092 C 12.457 5.103,13.858 5.125,14.080 5.155 C 15.492 5.342,16.352 5.716,17.204 6.513 C 17.967 7.225,18.417 7.973,18.657 8.923 C 18.869 9.765,18.890 10.088,18.916 12.926 L 18.940 15.553 19.269 15.420 C 20.440 14.947,21.372 13.965,21.754 12.800 C 21.943 12.224,21.969 11.876,21.989 9.615 C 22.017 6.581,21.950 5.589,21.665 4.752 C 21.479 4.209,21.182 3.748,20.717 3.283 C 19.865 2.431,19.084 2.137,17.415 2.040 C 16.826 2.006,11.620 1.996,10.860 2.027 M5.880 6.628 C 5.485 6.651,4.805 6.761,4.530 6.846 C 3.603 7.132,2.703 7.964,2.356 8.856 C 2.062 9.615,2.000 10.403,2.000 13.393 C 2.001 15.701,2.029 16.317,2.158 16.860 C 2.479 18.204,3.693 19.341,5.064 19.580 C 5.256 19.613,5.801 19.659,6.273 19.682 C 7.231 19.727,7.408 19.756,7.695 19.912 C 7.947 20.049,8.106 20.251,8.576 21.032 C 8.783 21.378,8.995 21.698,9.047 21.745 C 9.282 21.961,9.664 22.048,9.979 21.960 C 10.254 21.883,10.481 21.655,10.763 21.170 C 11.255 20.325,11.500 20.014,11.791 19.866 C 11.990 19.764,12.316 19.720,13.192 19.679 C 14.259 19.628,14.716 19.543,15.220 19.304 C 16.299 18.792,17.088 17.798,17.306 16.680 C 17.476 15.803,17.485 10.985,17.318 9.877 C 17.170 8.890,16.909 8.344,16.283 7.715 C 15.594 7.023,14.932 6.752,13.660 6.642 C 13.229 6.605,6.478 6.592,5.880 6.628 M6.650 12.417 C 7.338 12.663,7.510 13.580,6.957 14.053 C 6.593 14.365,6.072 14.359,5.710 14.040 C 5.491 13.848,5.392 13.620,5.392 13.307 C 5.392 12.662,6.044 12.201,6.650 12.417 M10.145 12.473 C 10.478 12.644,10.654 12.935,10.656 13.320 C 10.660 14.036,9.947 14.490,9.300 14.185 C 9.062 14.073,8.953 13.962,8.843 13.720 C 8.609 13.203,8.878 12.590,9.415 12.415 C 9.626 12.345,9.947 12.371,10.145 12.473 M13.492 12.459 C 13.659 12.538,13.863 12.733,13.952 12.898 C 13.996 12.980,14.018 13.120,14.019 13.323 C 14.020 13.591,14.006 13.648,13.899 13.822 C 13.500 14.468,12.556 14.419,12.217 13.735 C 12.115 13.530,12.115 13.115,12.216 12.920 C 12.467 12.438,13.024 12.237,13.492 12.459 " fill="#1C274C" stroke="none" fill-rule="evenodd"></path></svg>