<svg width="24" height="24" viewBox="0 0 24 24" fill="none" xmlns="http://www.w3.org/2000/svg"><path d="M14.723 2.048 C 13.609 2.172,12.341 2.708,11.433 3.438 C 11.127 3.685,10.400 4.415,10.400 4.477 C 10.400 4.491,10.630 4.525,10.910 4.553 C 14.114 4.865,16.903 6.741,18.414 9.600 C 19.077 10.855,19.420 12.161,19.474 13.639 L 19.500 14.338 19.820 14.414 C 20.096 14.479,20.173 14.483,20.378 14.441 C 20.687 14.379,20.865 14.286,21.075 14.075 C 21.288 13.863,21.379 13.688,21.440 13.374 C 21.485 13.148,21.480 13.097,21.375 12.695 C 21.207 12.046,21.216 11.697,21.417 11.202 C 21.861 10.107,21.977 9.553,21.979 8.520 C 21.980 7.673,21.919 7.255,21.691 6.540 C 21.362 5.509,20.866 4.701,20.082 3.918 C 18.651 2.487,16.748 1.823,14.723 2.048 M9.420 6.023 C 9.354 6.032,9.129 6.060,8.920 6.084 C 8.436 6.139,7.604 6.351,7.118 6.542 C 4.741 7.477,2.964 9.440,2.299 11.865 C 2.087 12.640,2.022 13.144,2.023 14.020 C 2.024 15.134,2.205 16.076,2.601 17.020 C 2.903 17.741,2.927 17.817,2.949 18.100 C 2.968 18.349,2.947 18.466,2.762 19.160 C 2.580 19.839,2.555 19.979,2.567 20.240 C 2.584 20.596,2.687 20.838,2.925 21.075 C 3.162 21.313,3.404 21.416,3.760 21.433 C 4.021 21.445,4.161 21.420,4.840 21.238 C 5.534 21.053,5.651 21.032,5.900 21.051 C 6.183 21.073,6.259 21.097,6.980 21.399 C 7.469 21.604,8.203 21.809,8.785 21.905 C 9.379 22.002,10.571 22.004,11.186 21.908 C 14.384 21.410,16.947 19.092,17.739 15.982 C 17.924 15.256,17.978 14.812,17.978 14.000 C 17.978 13.188,17.924 12.744,17.739 12.018 C 16.951 8.922,14.379 6.587,11.220 6.099 C 10.830 6.039,9.659 5.989,9.420 6.023 M6.900 13.094 C 7.010 13.145,7.165 13.260,7.245 13.348 C 7.693 13.845,7.522 14.616,6.900 14.906 C 6.511 15.087,6.057 14.986,5.755 14.652 C 5.419 14.278,5.419 13.722,5.755 13.348 C 5.943 13.139,6.240 13.001,6.500 13.001 C 6.626 13.001,6.774 13.035,6.900 13.094 M10.512 13.147 C 11.142 13.534,11.154 14.446,10.535 14.839 C 10.060 15.141,9.442 14.992,9.141 14.503 C 9.034 14.329,9.020 14.271,9.020 14.003 C 9.020 13.744,9.036 13.673,9.131 13.511 C 9.339 13.158,9.660 12.988,10.072 13.015 C 10.261 13.027,10.371 13.060,10.512 13.147 M13.900 13.094 C 14.010 13.145,14.165 13.260,14.245 13.348 C 14.693 13.845,14.522 14.616,13.900 14.906 C 13.511 15.087,13.057 14.986,12.755 14.652 C 12.419 14.278,12.419 13.722,12.755 13.348 C 12.943 13.139,13.240 13.001,13.500 13.001 C 13.626 13.001,13.774 13.035,13.900 13.094 " fill="#1C274C" stroke="none" fill-rule="evenodd"></path></svg>