<svg width="24" height="24" viewBox="0 0 24 24" fill="none" xmlns="http://www.w3.org/2000/svg"><path d="M5.560 2.041 C 4.182 2.120,3.436 2.349,2.924 2.849 C 2.430 3.332,2.198 3.913,2.072 4.980 C 1.995 5.628,1.997 14.337,2.074 15.020 C 2.227 16.386,2.652 17.139,3.506 17.560 C 3.969 17.788,4.503 17.889,5.724 17.980 L 6.028 18.002 6.053 17.739 C 6.108 17.150,6.293 16.646,6.637 16.148 C 6.815 15.891,6.847 15.813,6.901 15.502 C 7.131 14.183,8.183 13.131,9.502 12.901 C 9.813 12.847,9.891 12.815,10.148 12.637 C 10.756 12.217,11.251 12.064,12.000 12.064 C 12.749 12.064,13.244 12.217,13.852 12.637 C 14.109 12.815,14.187 12.847,14.498 12.901 C 15.817 13.131,16.869 14.183,17.099 15.502 C 17.153 15.813,17.185 15.891,17.363 16.148 C 17.707 16.646,17.892 17.150,17.947 17.737 L 17.972 18.000 18.316 17.978 C 19.997 17.871,20.714 17.620,21.277 16.938 C 21.692 16.437,21.878 15.766,21.962 14.467 C 22.023 13.530,21.991 5.401,21.925 4.924 C 21.775 3.845,21.561 3.324,21.076 2.849 C 20.665 2.448,20.084 2.221,19.140 2.092 C 18.715 2.035,17.934 2.026,12.380 2.019 C 8.926 2.014,5.857 2.024,5.560 2.041 M15.388 5.367 C 15.628 5.526,15.733 5.721,15.733 6.007 C 15.733 6.203,15.714 6.271,15.616 6.409 C 15.552 6.501,15.436 6.613,15.359 6.658 C 15.222 6.739,15.173 6.740,12.000 6.740 C 8.827 6.740,8.778 6.739,8.641 6.658 C 8.564 6.613,8.448 6.501,8.384 6.409 C 8.098 6.003,8.330 5.395,8.815 5.278 C 8.884 5.261,10.354 5.250,12.083 5.254 L 15.226 5.260 15.388 5.367 M17.267 8.803 C 17.540 8.905,17.731 9.193,17.731 9.500 C 17.731 9.807,17.540 10.095,17.267 10.197 C 17.110 10.257,6.890 10.257,6.733 10.197 C 6.460 10.095,6.269 9.807,6.269 9.500 C 6.269 9.200,6.458 8.909,6.720 8.805 C 6.864 8.748,17.116 8.745,17.267 8.803 M11.471 13.624 C 11.368 13.656,11.170 13.762,11.031 13.860 C 10.553 14.199,10.276 14.312,9.757 14.379 C 9.494 14.413,9.112 14.607,8.880 14.824 C 8.648 15.041,8.417 15.469,8.380 15.751 C 8.312 16.277,8.200 16.552,7.861 17.031 C 7.642 17.339,7.560 17.603,7.560 18.000 C 7.560 18.397,7.642 18.661,7.861 18.969 C 8.200 19.448,8.312 19.723,8.380 20.249 C 8.417 20.531,8.648 20.959,8.880 21.176 C 9.112 21.393,9.494 21.587,9.757 21.621 C 10.276 21.688,10.554 21.801,11.031 22.139 C 11.339 22.358,11.603 22.440,12.000 22.440 C 12.397 22.440,12.661 22.358,12.969 22.139 C 13.446 21.801,13.724 21.688,14.243 21.621 C 14.506 21.587,14.888 21.393,15.120 21.176 C 15.352 20.959,15.583 20.531,15.620 20.249 C 15.688 19.723,15.800 19.448,16.139 18.969 C 16.358 18.661,16.440 18.397,16.440 18.000 C 16.440 17.603,16.358 17.339,16.139 17.031 C 15.800 16.552,15.688 16.277,15.620 15.751 C 15.583 15.469,15.352 15.041,15.120 14.824 C 14.888 14.607,14.506 14.413,14.243 14.379 C 13.724 14.312,13.446 14.199,12.969 13.861 C 12.832 13.763,12.626 13.655,12.512 13.621 C 12.255 13.545,11.723 13.546,11.471 13.624 M13.780 16.316 C 14.077 16.453,14.240 16.697,14.240 17.004 C 14.240 17.337,14.215 17.366,12.566 18.900 C 12.141 19.296,11.749 19.643,11.695 19.672 C 11.526 19.762,11.237 19.771,11.071 19.691 C 10.905 19.612,10.024 18.812,9.883 18.612 C 9.624 18.245,9.788 17.711,10.220 17.515 C 10.527 17.375,10.810 17.456,11.161 17.785 L 11.363 17.974 11.572 17.774 C 12.478 16.906,13.064 16.385,13.210 16.319 C 13.423 16.222,13.576 16.221,13.780 16.316 " fill="#1C274C" stroke="none" fill-rule="evenodd"></path></svg>