<svg width="24" height="24" viewBox="0 0 24 24" fill="none" xmlns="http://www.w3.org/2000/svg"><path d="M5.560 2.041 C 4.182 2.120,3.436 2.349,2.924 2.849 C 2.430 3.332,2.198 3.913,2.072 4.980 C 1.995 5.628,1.997 14.337,2.074 15.020 C 2.275 16.814,2.940 17.586,4.518 17.860 L 4.861 17.919 6.209 16.590 C 7.515 15.302,7.559 15.254,7.600 15.060 C 7.924 13.535,9.079 12.246,10.580 11.733 C 11.417 11.447,12.583 11.447,13.420 11.733 C 14.920 12.245,16.077 13.537,16.400 15.060 C 16.441 15.254,16.485 15.302,17.791 16.590 L 19.139 17.919 19.482 17.860 C 20.930 17.608,21.604 16.935,21.859 15.485 C 21.987 14.757,22.007 13.846,21.989 9.520 C 21.971 5.209,21.965 5.010,21.816 4.284 C 21.593 3.199,20.962 2.511,19.940 2.242 C 19.122 2.027,19.163 2.028,12.380 2.019 C 8.926 2.014,5.857 2.024,5.560 2.041 M15.388 5.367 C 15.628 5.526,15.733 5.721,15.733 6.007 C 15.733 6.203,15.714 6.271,15.616 6.409 C 15.552 6.501,15.436 6.613,15.359 6.658 C 15.222 6.739,15.173 6.740,12.000 6.740 C 8.827 6.740,8.778 6.739,8.641 6.658 C 8.564 6.613,8.448 6.501,8.384 6.409 C 8.098 6.003,8.330 5.395,8.815 5.278 C 8.884 5.261,10.354 5.250,12.083 5.254 L 15.226 5.260 15.388 5.367 M17.267 8.803 C 17.540 8.905,17.731 9.193,17.731 9.500 C 17.731 9.807,17.540 10.095,17.267 10.197 C 17.110 10.257,6.890 10.257,6.733 10.197 C 6.460 10.095,6.269 9.807,6.269 9.500 C 6.269 9.200,6.458 8.909,6.720 8.805 C 6.864 8.748,17.116 8.745,17.267 8.803 M11.560 13.025 C 10.340 13.263,9.464 14.028,9.113 15.160 C 8.979 15.594,8.979 16.406,9.113 16.840 C 9.418 17.823,10.177 18.582,11.160 18.887 C 11.594 19.021,12.406 19.021,12.840 18.887 C 13.824 18.582,14.584 17.822,14.886 16.840 C 15.007 16.447,15.017 15.643,14.906 15.240 C 14.629 14.236,13.869 13.442,12.888 13.133 C 12.658 13.060,12.464 13.032,12.120 13.021 C 11.867 13.012,11.615 13.014,11.560 13.025 M6.868 18.047 C 6.223 18.684,6.078 18.849,6.038 18.986 C 5.954 19.275,6.079 19.616,6.315 19.737 C 6.380 19.771,6.673 19.826,6.966 19.860 C 7.587 19.932,7.798 20.017,7.974 20.267 C 8.073 20.408,8.098 20.504,8.162 20.993 C 8.202 21.302,8.263 21.609,8.297 21.675 C 8.448 21.965,8.850 22.078,9.150 21.913 C 9.287 21.838,10.824 20.363,10.790 20.339 C 10.784 20.336,10.681 20.301,10.561 20.262 C 9.741 20.000,8.859 19.350,8.342 18.625 C 8.131 18.329,7.868 17.826,7.776 17.543 C 7.740 17.431,7.697 17.325,7.680 17.307 C 7.664 17.289,7.298 17.622,6.868 18.047 M16.295 17.346 C 15.982 18.248,15.539 18.901,14.852 19.474 C 14.419 19.835,13.721 20.212,13.325 20.299 C 13.254 20.315,13.201 20.339,13.208 20.354 C 13.215 20.368,13.571 20.724,14.000 21.144 C 14.576 21.709,14.820 21.921,14.934 21.959 C 15.229 22.055,15.572 21.928,15.703 21.675 C 15.737 21.609,15.798 21.302,15.838 20.993 C 15.902 20.504,15.927 20.408,16.026 20.267 C 16.202 20.017,16.413 19.932,17.034 19.860 C 17.327 19.826,17.620 19.771,17.685 19.737 C 17.918 19.617,18.047 19.274,17.963 18.995 C 17.911 18.821,17.413 18.279,16.713 17.633 C 16.382 17.329,16.317 17.283,16.295 17.346 " fill="#1C274C" stroke="none" fill-rule="evenodd"></path></svg>