<svg width="24" height="24" viewBox="0 0 24 24" fill="none" xmlns="http://www.w3.org/2000/svg"><path d="M8.419 2.042 C 5.796 2.142,4.481 2.507,3.549 3.393 C 2.551 4.342,2.166 5.587,2.041 8.260 C 1.988 9.399,1.988 14.601,2.041 15.740 C 2.160 18.285,2.507 19.501,3.379 20.433 C 3.958 21.053,4.624 21.412,5.658 21.663 C 6.298 21.818,6.223 21.969,6.253 20.470 C 6.289 18.656,6.358 18.180,6.670 17.586 C 7.055 16.853,7.761 16.445,8.875 16.311 C 9.474 16.239,14.526 16.239,15.125 16.311 C 16.724 16.503,17.501 17.266,17.679 18.820 C 17.702 19.018,17.732 19.761,17.747 20.470 C 17.777 21.969,17.702 21.818,18.342 21.663 C 19.506 21.381,20.260 20.930,20.860 20.157 C 21.338 19.542,21.662 18.641,21.816 17.500 C 21.947 16.521,21.977 15.781,21.978 13.420 C 21.980 11.075,21.979 11.058,21.887 10.721 C 21.836 10.534,21.739 10.247,21.670 10.083 C 21.392 9.415,21.308 9.322,17.933 5.956 C 14.561 2.593,14.589 2.618,13.892 2.322 C 13.733 2.255,13.454 2.160,13.272 2.113 C 12.957 2.030,12.848 2.025,11.100 2.018 C 10.088 2.013,8.882 2.024,8.419 2.042 M13.388 7.367 C 13.628 7.526,13.733 7.721,13.733 8.007 C 13.733 8.203,13.714 8.271,13.616 8.409 C 13.552 8.501,13.436 8.613,13.359 8.658 C 13.222 8.739,13.173 8.740,10.000 8.740 C 6.827 8.740,6.778 8.739,6.641 8.658 C 6.564 8.613,6.448 8.501,6.384 8.409 C 6.098 8.003,6.330 7.395,6.815 7.278 C 6.884 7.261,8.354 7.250,10.083 7.254 L 13.226 7.260 13.388 7.367 M9.220 17.786 C 8.531 17.850,8.176 17.990,8.019 18.258 C 7.823 18.593,7.793 18.857,7.771 20.446 L 7.751 21.913 8.026 21.946 C 8.383 21.990,15.617 21.990,15.974 21.946 L 16.249 21.913 16.229 20.446 C 16.213 19.314,16.195 18.918,16.146 18.709 C 16.023 18.175,15.829 17.980,15.295 17.852 C 15.056 17.795,14.655 17.786,12.200 17.779 C 10.649 17.774,9.308 17.778,9.220 17.786 " fill="#1C274C" stroke="none" fill-rule="evenodd"></path></svg>