<svg width="24" height="24" viewBox="0 0 24 24" fill="none" xmlns="http://www.w3.org/2000/svg"><path d="M3.189 2.041 C 2.885 2.118,2.619 2.308,2.456 2.567 C 2.232 2.921,2.240 2.696,2.241 8.838 C 2.242 12.520,2.256 14.562,2.283 14.676 C 2.364 15.031,2.640 15.249,3.003 15.246 C 3.385 15.243,3.651 15.017,3.724 14.631 C 3.793 14.268,4.726 3.269,4.703 3.089 C 4.650 2.671,4.364 2.285,3.985 2.118 C 3.761 2.019,3.411 1.986,3.189 2.041 M8.185 2.803 C 7.565 2.953,7.057 3.519,6.956 4.170 C 6.909 4.472,6.120 13.619,6.120 13.861 C 6.120 14.097,6.253 14.506,6.405 14.734 C 6.482 14.852,6.916 15.260,7.535 15.797 C 9.122 17.173,9.531 17.629,9.958 18.500 C 10.272 19.139,10.391 19.492,10.740 20.827 C 10.902 21.446,11.064 22.010,11.099 22.079 C 11.272 22.413,11.705 22.694,12.120 22.743 C 12.763 22.817,13.611 22.304,13.835 21.705 C 13.968 21.348,14.049 20.818,14.048 20.300 C 14.047 19.887,13.997 19.514,13.683 17.608 C 13.484 16.391,13.320 15.365,13.320 15.328 C 13.321 15.173,13.412 14.949,13.528 14.817 C 13.786 14.523,13.576 14.542,16.800 14.520 L 19.700 14.500 19.934 14.406 C 20.222 14.289,20.530 14.042,20.706 13.786 C 20.867 13.552,21.000 13.141,21.000 12.880 C 21.000 12.693,20.300 8.568,20.183 8.070 C 20.092 7.676,19.851 7.020,19.656 6.633 C 18.682 4.692,16.822 3.312,14.591 2.872 C 14.153 2.786,14.054 2.783,11.240 2.775 C 9.536 2.770,8.276 2.781,8.185 2.803 " fill="#1C274C" stroke="none" fill-rule="evenodd"></path></svg>