<svg width="24" height="24" viewBox="0 0 24 24" fill="none" xmlns="http://www.w3.org/2000/svg"><path d="M5.520 3.041 C 4.078 3.124,3.414 3.337,2.856 3.896 C 2.403 4.349,2.190 4.886,2.071 5.880 C 1.999 6.474,1.999 12.006,2.071 12.600 C 2.193 13.612,2.402 14.132,2.876 14.601 C 3.427 15.146,4.030 15.345,5.420 15.438 C 5.750 15.461,7.195 15.479,8.631 15.479 L 11.241 15.480 11.231 16.666 L 11.220 17.851 8.500 18.724 C 7.004 19.204,5.747 19.608,5.706 19.622 C 5.546 19.678,5.330 19.920,5.280 20.100 C 5.158 20.537,5.531 21.000,6.006 21.000 C 6.068 21.000,7.443 20.577,9.060 20.059 L 12.000 19.118 14.940 20.059 C 16.557 20.577,17.935 21.000,18.001 21.000 C 18.466 21.000,18.841 20.531,18.720 20.100 C 18.670 19.920,18.454 19.678,18.294 19.622 C 18.253 19.608,16.996 19.204,15.500 18.724 L 12.780 17.851 12.769 16.666 L 12.759 15.480 15.369 15.479 C 16.805 15.479,18.250 15.461,18.580 15.438 C 19.970 15.345,20.573 15.146,21.124 14.601 C 21.598 14.132,21.807 13.612,21.929 12.600 C 22.001 12.006,22.001 6.474,21.929 5.880 C 21.810 4.886,21.597 4.349,21.144 3.896 C 20.682 3.432,20.184 3.229,19.180 3.092 C 18.755 3.035,17.972 3.026,12.380 3.019 C 8.904 3.014,5.817 3.024,5.520 3.041 " fill="#1C274C" stroke="none" fill-rule="evenodd"></path></svg>