<svg width="24" height="24" viewBox="0 0 24 24" fill="none" xmlns="http://www.w3.org/2000/svg"><path d="M14.340 1.277 C 14.142 1.325,14.074 1.377,13.699 1.767 C 11.995 3.540,10.888 5.907,10.637 8.315 C 10.580 8.861,10.612 10.233,10.692 10.694 L 10.747 11.009 10.604 10.987 C 10.525 10.975,10.271 10.934,10.040 10.895 C 9.733 10.844,9.395 10.825,8.780 10.825 C 7.890 10.825,7.468 10.871,6.645 11.057 C 4.898 11.454,3.074 12.444,1.744 13.719 C 1.251 14.192,1.154 14.431,1.316 14.780 C 1.453 15.077,1.697 15.240,2.004 15.240 C 2.249 15.240,2.393 15.159,2.779 14.801 C 2.976 14.619,3.298 14.345,3.495 14.192 L 3.854 13.915 5.457 15.514 C 6.339 16.393,7.118 17.141,7.188 17.176 C 7.443 17.303,7.857 17.225,8.048 17.013 C 8.151 16.900,8.240 16.661,8.240 16.500 C 8.240 16.200,8.156 16.099,6.656 14.597 L 5.194 13.134 5.507 13.002 C 5.679 12.929,5.973 12.818,6.159 12.754 L 6.499 12.639 8.930 15.070 L 11.361 17.502 11.261 17.801 C 11.205 17.965,11.102 18.240,11.032 18.411 L 10.905 18.721 10.321 18.142 C 9.576 17.403,9.403 17.326,8.978 17.539 C 8.741 17.658,8.598 17.854,8.570 18.095 C 8.533 18.431,8.594 18.523,9.392 19.328 L 10.134 20.077 9.851 20.449 C 9.695 20.654,9.410 20.992,9.217 21.201 C 8.840 21.609,8.760 21.749,8.760 21.996 C 8.760 22.303,8.923 22.547,9.220 22.684 C 9.559 22.841,9.805 22.748,10.244 22.294 C 11.704 20.787,12.693 18.850,13.069 16.760 C 13.163 16.240,13.174 16.080,13.174 15.220 C 13.174 14.408,13.160 14.187,13.087 13.786 C 13.039 13.525,13.000 13.299,13.000 13.283 C 13.000 13.267,13.139 13.278,13.310 13.307 C 13.793 13.391,15.069 13.420,15.666 13.361 C 18.065 13.126,20.445 12.013,22.256 10.280 C 22.749 9.809,22.846 9.569,22.684 9.220 C 22.547 8.923,22.303 8.760,21.996 8.760 C 21.748 8.760,21.603 8.843,21.203 9.217 C 20.848 9.549,20.141 10.120,20.086 10.120 C 20.071 10.120,19.313 9.371,18.400 8.456 C 17.298 7.352,16.686 6.767,16.580 6.717 C 16.205 6.541,15.777 6.707,15.596 7.100 C 15.510 7.285,15.503 7.397,15.564 7.620 C 15.601 7.755,15.851 8.024,17.172 9.349 C 18.032 10.212,18.728 10.925,18.718 10.934 C 18.668 10.979,18.312 11.141,17.963 11.277 L 17.570 11.430 15.068 8.925 L 12.567 6.420 12.756 5.960 C 12.927 5.545,13.063 5.250,13.106 5.203 C 13.114 5.193,13.360 5.421,13.651 5.710 C 13.943 5.999,14.232 6.254,14.293 6.277 C 14.437 6.332,14.723 6.332,14.867 6.277 C 15.021 6.220,15.198 6.047,15.265 5.891 C 15.331 5.738,15.337 5.449,15.277 5.293 C 15.254 5.231,14.936 4.880,14.572 4.513 L 13.909 3.846 14.178 3.501 C 14.326 3.312,14.600 2.992,14.789 2.791 C 14.977 2.589,15.155 2.366,15.185 2.294 C 15.251 2.137,15.256 1.888,15.197 1.733 C 15.076 1.411,14.673 1.197,14.340 1.277 M15.710 11.847 C 15.414 11.910,14.561 11.928,14.080 11.883 C 13.554 11.833,12.949 11.722,12.631 11.617 C 12.453 11.558,12.438 11.542,12.380 11.347 C 12.161 10.614,12.053 9.540,12.118 8.741 C 12.141 8.459,12.160 8.209,12.160 8.184 C 12.160 8.160,12.988 8.968,14.000 9.980 L 15.841 11.820 15.710 11.847 M10.174 12.439 C 10.391 12.486,10.723 12.573,10.913 12.633 L 11.257 12.743 11.367 13.087 C 11.572 13.732,11.643 14.170,11.668 14.950 C 11.681 15.352,11.684 15.680,11.675 15.680 C 11.667 15.680,10.904 14.922,9.980 13.996 L 8.300 12.312 9.040 12.334 C 9.570 12.349,9.892 12.379,10.174 12.439 " fill="#1C274C" stroke="none" fill-rule="evenodd"></path></svg>