<svg width="24" height="24" viewBox="0 0 24 24" fill="none" xmlns="http://www.w3.org/2000/svg"><path d="M8.292 2.043 C 7.343 2.095,6.725 2.216,6.272 2.441 C 5.313 2.916,4.922 3.686,4.799 5.340 C 4.735 6.211,4.767 18.737,4.834 19.180 C 5.065 20.690,5.599 21.409,6.735 21.738 C 7.500 21.959,7.701 21.970,11.260 21.989 C 14.614 22.008,15.572 21.982,16.255 21.857 C 16.971 21.725,17.427 21.521,17.808 21.165 C 18.402 20.610,18.634 19.889,18.719 18.340 C 18.771 17.394,18.771 6.606,18.719 5.660 C 18.634 4.120,18.401 3.389,17.819 2.845 C 17.258 2.321,16.589 2.122,15.111 2.040 C 14.306 1.995,9.126 1.997,8.292 2.043 M1.660 4.260 C 1.638 4.267,1.572 4.284,1.513 4.296 C 1.358 4.331,1.160 4.512,1.075 4.698 C 1.005 4.853,1.002 5.159,1.001 11.991 C 1.000 19.744,0.987 19.272,1.212 19.513 C 1.544 19.869,2.187 19.779,2.396 19.348 L 2.480 19.175 2.480 12.000 L 2.480 4.825 2.396 4.652 C 2.340 4.536,2.257 4.447,2.146 4.384 C 1.988 4.293,1.745 4.231,1.660 4.260 M21.660 4.260 C 21.638 4.267,21.572 4.284,21.513 4.296 C 21.358 4.331,21.160 4.512,21.075 4.698 C 21.005 4.853,21.002 5.159,21.001 11.991 C 21.000 19.744,20.987 19.272,21.212 19.513 C 21.544 19.869,22.187 19.779,22.396 19.348 L 22.480 19.175 22.480 12.000 L 22.480 4.825 22.396 4.652 C 22.340 4.536,22.257 4.447,22.146 4.384 C 21.988 4.293,21.745 4.231,21.660 4.260 M15.120 8.366 C 15.486 8.581,15.595 9.043,15.365 9.405 C 15.140 9.760,15.365 9.738,11.820 9.752 C 9.678 9.760,8.654 9.750,8.552 9.721 C 8.249 9.633,8.002 9.309,8.002 9.000 C 8.002 8.707,8.259 8.352,8.513 8.296 C 8.572 8.284,8.638 8.267,8.660 8.259 C 8.682 8.251,10.104 8.248,11.820 8.253 L 14.940 8.260 15.120 8.366 M15.120 12.366 C 15.486 12.581,15.595 13.043,15.365 13.405 C 15.140 13.760,15.365 13.738,11.820 13.752 C 9.678 13.760,8.654 13.750,8.552 13.721 C 8.249 13.633,8.002 13.309,8.002 13.000 C 8.002 12.707,8.259 12.352,8.513 12.296 C 8.572 12.284,8.638 12.267,8.660 12.259 C 8.682 12.251,10.104 12.248,11.820 12.253 L 14.940 12.260 15.120 12.366 M12.120 16.366 C 12.486 16.581,12.595 17.043,12.365 17.405 C 12.152 17.741,12.170 17.738,10.320 17.752 C 9.239 17.760,8.651 17.750,8.552 17.721 C 8.248 17.632,8.002 17.309,8.002 17.000 C 8.002 16.707,8.259 16.352,8.513 16.296 C 8.572 16.284,8.638 16.267,8.660 16.259 C 8.682 16.251,9.429 16.248,10.320 16.252 L 11.940 16.260 12.120 16.366 " fill="#1C274C" stroke="none" fill-rule="evenodd"></path></svg>