<svg width="24" height="24" viewBox="0 0 24 24" fill="none" xmlns="http://www.w3.org/2000/svg"><path d="M8.000 2.042 C 6.261 2.116,5.375 2.320,4.617 2.822 C 4.247 3.067,4.032 3.286,3.784 3.670 C 3.379 4.297,3.196 4.988,3.072 6.360 C 2.997 7.194,2.997 16.806,3.072 17.640 C 3.196 19.012,3.379 19.703,3.784 20.330 C 4.032 20.714,4.247 20.933,4.617 21.178 C 5.284 21.620,5.944 21.800,7.360 21.928 C 8.187 22.002,15.813 22.002,16.640 21.928 C 18.012 21.804,18.703 21.621,19.330 21.216 C 19.714 20.968,19.933 20.753,20.178 20.383 C 20.439 19.989,20.570 19.683,20.698 19.171 C 20.896 18.374,20.954 17.670,20.986 15.700 L 21.010 14.180 19.255 15.923 C 17.404 17.762,17.211 17.927,16.521 18.257 C 16.356 18.336,15.483 18.646,14.581 18.947 C 12.946 19.491,12.939 19.493,12.580 19.490 C 11.404 19.481,10.519 18.596,10.510 17.420 C 10.507 17.062,10.510 17.051,11.039 15.460 C 11.332 14.580,11.641 13.709,11.726 13.525 C 12.078 12.758,12.105 12.728,15.356 9.467 C 17.019 7.799,18.497 6.346,18.640 6.237 C 19.152 5.849,20.018 5.521,20.535 5.519 C 20.842 5.518,20.845 5.514,20.759 5.094 C 20.552 4.084,20.114 3.331,19.473 2.881 C 18.676 2.321,17.835 2.125,15.869 2.040 C 14.853 1.996,9.053 1.998,8.000 2.042 M20.380 7.060 C 19.938 7.158,19.515 7.399,19.230 7.715 C 19.057 7.906,19.021 8.019,19.055 8.266 C 19.200 9.328,20.207 10.464,21.340 10.845 C 21.892 11.030,22.085 10.998,22.382 10.673 C 23.033 9.962,23.171 9.030,22.751 8.191 C 22.314 7.318,21.330 6.848,20.380 7.060 M14.780 8.316 C 15.075 8.453,15.240 8.697,15.240 9.000 C 15.240 9.303,15.075 9.547,14.780 9.684 C 14.628 9.754,14.445 9.758,11.249 9.759 C 8.295 9.760,7.859 9.752,7.729 9.698 C 7.101 9.436,7.084 8.600,7.700 8.316 C 7.852 8.246,8.038 8.242,11.240 8.242 C 14.446 8.242,14.628 8.246,14.780 8.316 M15.815 11.129 C 14.435 12.513,13.468 13.515,13.371 13.660 C 13.102 14.064,13.029 14.247,12.499 15.840 C 11.927 17.561,11.925 17.573,12.176 17.824 C 12.427 18.075,12.439 18.073,14.160 17.501 C 15.767 16.968,16.049 16.849,16.480 16.522 C 16.623 16.414,17.743 15.321,18.969 14.093 C 20.917 12.142,21.195 11.848,21.173 11.767 C 21.160 11.715,21.102 11.654,21.044 11.631 C 20.629 11.461,20.159 11.205,19.890 11.002 C 19.284 10.546,18.777 9.900,18.476 9.201 C 18.235 8.639,18.462 8.474,15.815 11.129 M10.780 12.316 C 11.075 12.453,11.240 12.697,11.240 13.000 C 11.240 13.303,11.075 13.547,10.780 13.684 C 10.634 13.752,10.498 13.758,9.249 13.759 C 8.100 13.760,7.853 13.750,7.729 13.698 C 7.101 13.436,7.084 12.600,7.700 12.316 C 7.846 12.248,7.983 12.242,9.240 12.242 C 10.499 12.242,10.634 12.248,10.780 12.316 M9.780 16.316 C 10.075 16.453,10.240 16.697,10.240 17.000 C 10.240 17.303,10.075 17.547,9.780 17.684 C 9.640 17.749,9.511 17.758,8.749 17.759 C 8.051 17.760,7.848 17.748,7.729 17.698 C 7.101 17.436,7.084 16.600,7.700 16.316 C 7.840 16.251,7.969 16.242,8.740 16.242 C 9.512 16.242,9.640 16.251,9.780 16.316 " fill="#1C274C" stroke="none" fill-rule="evenodd"></path></svg>