<svg width="24" height="24" viewBox="0 0 24 24" fill="none" xmlns="http://www.w3.org/2000/svg"><path d="M10.241 3.107 C 6.167 3.692,4.775 3.906,4.631 3.968 C 4.526 4.013,4.440 4.061,4.440 4.075 C 4.441 4.089,4.505 4.141,4.582 4.192 C 4.764 4.309,4.949 4.602,4.983 4.825 L 5.009 5.000 11.175 5.000 C 16.837 5.000,17.535 5.011,17.890 5.101 L 18.000 5.129 18.000 4.652 C 18.000 3.815,17.863 3.399,17.439 2.945 C 17.047 2.527,16.546 2.316,15.962 2.324 C 15.796 2.327,13.221 2.679,10.241 3.107 M4.003 12.232 C 4.000 19.955,3.988 19.547,4.234 20.151 C 4.521 20.857,5.143 21.479,5.849 21.766 C 6.444 22.008,6.221 22.000,12.000 22.000 C 16.600 22.000,17.322 21.992,17.581 21.938 C 18.785 21.690,19.690 20.785,19.938 19.581 C 20.029 19.143,20.030 8.849,19.940 8.422 C 19.780 7.667,19.396 7.064,18.778 6.595 C 18.544 6.418,17.991 6.152,17.700 6.076 C 17.542 6.035,16.170 6.020,11.100 6.002 L 4.700 5.980 4.511 5.869 C 4.297 5.743,4.146 5.564,4.063 5.336 C 4.013 5.200,4.005 6.063,4.003 12.232 M16.373 11.355 C 16.615 11.506,16.733 11.718,16.733 12.003 C 16.733 12.203,16.714 12.270,16.616 12.409 C 16.552 12.501,16.436 12.613,16.359 12.658 C 16.221 12.739,16.181 12.740,12.000 12.740 C 7.819 12.740,7.779 12.739,7.641 12.658 C 7.564 12.613,7.448 12.501,7.384 12.409 C 7.098 12.003,7.330 11.395,7.815 11.278 C 7.884 11.261,9.803 11.250,12.080 11.254 L 16.220 11.260 16.373 11.355 M13.820 14.835 C 14.010 14.923,14.096 15.012,14.178 15.210 C 14.257 15.398,14.257 15.602,14.178 15.790 C 14.099 15.980,14.015 16.071,13.832 16.164 C 13.690 16.237,13.550 16.240,10.764 16.240 C 8.799 16.240,7.808 16.226,7.733 16.197 C 7.460 16.095,7.269 15.807,7.269 15.500 C 7.269 15.200,7.458 14.909,7.720 14.805 C 7.783 14.780,8.903 14.764,10.740 14.763 C 13.491 14.762,13.669 14.766,13.820 14.835 " fill="#1C274C" stroke="none" fill-rule="evenodd"></path></svg>