<svg width="24" height="24" viewBox="0 0 24 24" fill="none" xmlns="http://www.w3.org/2000/svg"><path d="M8.320 2.025 C 7.610 2.049,6.741 2.125,6.300 2.200 C 4.429 2.521,3.501 3.463,3.186 5.360 C 3.027 6.313,3.020 6.613,3.020 12.060 C 3.020 16.872,3.026 17.395,3.091 17.957 C 3.260 19.415,3.547 20.182,4.155 20.800 C 4.790 21.446,5.568 21.743,7.056 21.908 C 7.635 21.973,8.135 21.980,12.020 21.980 C 15.908 21.980,16.402 21.973,16.957 21.908 C 18.432 21.738,19.195 21.449,19.822 20.822 C 20.570 20.074,20.851 19.146,20.962 17.060 C 21.021 15.960,20.990 6.761,20.926 6.180 C 20.770 4.771,20.518 3.992,20.022 3.391 C 19.367 2.597,18.467 2.239,16.720 2.075 C 16.295 2.036,9.257 1.994,8.320 2.025 M16.373 7.355 C 16.615 7.506,16.733 7.718,16.733 8.003 C 16.733 8.203,16.714 8.270,16.616 8.409 C 16.552 8.501,16.436 8.613,16.359 8.658 C 16.221 8.739,16.181 8.740,12.000 8.740 C 7.819 8.740,7.779 8.739,7.641 8.658 C 7.564 8.613,7.448 8.501,7.384 8.409 C 7.098 8.003,7.330 7.395,7.815 7.278 C 7.884 7.261,9.803 7.250,12.080 7.254 L 16.220 7.260 16.373 7.355 M16.373 11.355 C 16.615 11.506,16.733 11.718,16.733 12.003 C 16.733 12.203,16.714 12.270,16.616 12.409 C 16.552 12.501,16.436 12.613,16.359 12.658 C 16.221 12.739,16.181 12.740,12.000 12.740 C 7.819 12.740,7.779 12.739,7.641 12.658 C 7.564 12.613,7.448 12.501,7.384 12.409 C 7.098 12.003,7.330 11.395,7.815 11.278 C 7.884 11.261,9.803 11.250,12.080 11.254 L 16.220 11.260 16.373 11.355 M13.388 15.367 C 13.628 15.526,13.733 15.721,13.733 16.007 C 13.733 16.203,13.714 16.271,13.616 16.409 C 13.552 16.501,13.436 16.613,13.359 16.658 C 13.223 16.738,13.169 16.740,10.500 16.740 C 7.831 16.740,7.777 16.738,7.641 16.658 C 7.564 16.613,7.448 16.501,7.384 16.409 C 7.098 16.003,7.329 15.396,7.815 15.277 C 7.884 15.261,9.129 15.250,10.583 15.253 L 13.226 15.260 13.388 15.367 " fill="#1C274C" stroke="none" fill-rule="evenodd"></path></svg>