<svg width="24" height="24" viewBox="0 0 24 24" fill="none" xmlns="http://www.w3.org/2000/svg"><path d="M8.320 2.042 C 6.675 2.133,5.881 2.448,5.370 3.213 C 5.032 3.718,4.877 4.324,4.801 5.431 C 4.748 6.218,4.748 17.782,4.801 18.569 C 4.918 20.288,5.310 21.091,6.257 21.553 C 7.041 21.935,7.829 21.998,11.760 21.998 C 15.261 21.998,16.080 21.951,16.866 21.702 C 17.664 21.449,18.191 20.921,18.456 20.110 C 18.726 19.281,18.757 18.433,18.757 12.000 C 18.757 7.106,18.730 5.393,18.639 4.740 C 18.526 3.924,18.302 3.366,17.921 2.951 C 17.377 2.358,16.662 2.128,15.100 2.041 C 14.282 1.996,9.140 1.997,8.320 2.042 M3.179 4.484 C 2.302 4.948,1.918 5.742,1.799 7.340 C 1.736 8.184,1.768 16.732,1.835 17.180 C 1.980 18.142,2.210 18.697,2.638 19.116 C 2.879 19.353,3.329 19.648,3.372 19.599 C 3.381 19.589,3.375 19.472,3.358 19.340 C 3.261 18.602,3.234 16.456,3.252 11.098 C 3.269 5.899,3.289 4.897,3.381 4.490 C 3.406 4.379,3.380 4.378,3.179 4.484 M20.133 4.543 C 20.231 5.137,20.245 6.282,20.230 12.440 C 20.218 17.292,20.202 19.020,20.165 19.255 C 20.139 19.428,20.125 19.578,20.136 19.589 C 20.183 19.636,20.604 19.357,20.842 19.121 C 21.460 18.507,21.651 17.825,21.721 15.980 C 21.768 14.730,21.768 9.255,21.720 8.020 C 21.667 6.630,21.570 6.055,21.293 5.491 C 21.071 5.038,20.584 4.565,20.184 4.415 C 20.114 4.389,20.110 4.401,20.133 4.543 M15.152 8.370 C 15.598 8.665,15.598 9.335,15.152 9.630 L 14.986 9.740 11.843 9.752 C 9.678 9.760,8.654 9.751,8.552 9.721 C 8.131 9.598,7.897 9.125,8.062 8.729 C 8.144 8.532,8.266 8.405,8.460 8.315 C 8.612 8.244,8.773 8.241,11.803 8.250 L 14.986 8.260 15.152 8.370 M15.152 12.370 C 15.598 12.665,15.598 13.335,15.152 13.630 L 14.986 13.740 11.843 13.752 C 9.678 13.760,8.654 13.751,8.552 13.721 C 8.131 13.598,7.897 13.125,8.062 12.729 C 8.144 12.532,8.266 12.405,8.460 12.315 C 8.612 12.244,8.773 12.241,11.803 12.250 L 14.986 12.260 15.152 12.370 M12.152 16.370 C 12.598 16.665,12.598 17.335,12.152 17.630 L 11.986 17.740 10.343 17.752 C 8.587 17.766,8.499 17.758,8.276 17.571 C 7.850 17.212,7.946 16.555,8.460 16.315 C 8.609 16.245,8.731 16.241,10.303 16.250 L 11.986 16.260 12.152 16.370 " fill="#1C274C" stroke="none" fill-rule="evenodd"></path></svg>