<svg width="24" height="24" viewBox="0 0 24 24" fill="none" xmlns="http://www.w3.org/2000/svg"><path d="M8.300 2.025 C 7.595 2.051,6.733 2.126,6.300 2.200 C 4.429 2.521,3.501 3.463,3.186 5.360 C 3.027 6.313,3.020 6.613,3.020 12.060 C 3.020 16.872,3.026 17.395,3.091 17.957 C 3.260 19.415,3.547 20.182,4.155 20.800 C 4.790 21.446,5.568 21.743,7.056 21.908 C 7.635 21.973,8.135 21.980,12.020 21.980 C 15.908 21.980,16.402 21.973,16.957 21.908 C 18.432 21.738,19.195 21.449,19.822 20.822 C 20.570 20.074,20.851 19.146,20.962 17.060 C 21.021 15.960,20.990 6.761,20.926 6.180 C 20.770 4.771,20.518 3.992,20.022 3.391 C 19.367 2.597,18.469 2.239,16.720 2.075 C 16.295 2.035,9.197 1.993,8.300 2.025 M16.373 9.355 C 16.615 9.506,16.733 9.718,16.733 10.003 C 16.733 10.203,16.714 10.270,16.616 10.409 C 16.552 10.501,16.436 10.613,16.359 10.658 C 16.221 10.739,16.181 10.740,12.000 10.740 C 7.819 10.740,7.779 10.739,7.641 10.658 C 7.564 10.613,7.448 10.501,7.384 10.409 C 7.098 10.003,7.330 9.395,7.815 9.278 C 7.884 9.261,9.803 9.250,12.080 9.254 L 16.220 9.260 16.373 9.355 M13.388 13.367 C 13.628 13.526,13.733 13.721,13.733 14.007 C 13.733 14.203,13.714 14.271,13.616 14.409 C 13.552 14.501,13.436 14.613,13.359 14.658 C 13.223 14.738,13.169 14.740,10.500 14.740 C 7.831 14.740,7.777 14.738,7.641 14.658 C 7.564 14.613,7.448 14.501,7.384 14.409 C 7.098 14.003,7.329 13.396,7.815 13.277 C 7.884 13.261,9.129 13.250,10.583 13.253 L 13.226 13.260 13.388 13.367 " fill="#1C274C" stroke="none" fill-rule="evenodd"></path></svg>