<svg width="24" height="24" viewBox="0 0 24 24" fill="none" xmlns="http://www.w3.org/2000/svg"><path d="M8.320 2.025 C 7.610 2.049,6.741 2.125,6.300 2.200 C 4.429 2.521,3.501 3.463,3.186 5.360 C 3.027 6.313,3.020 6.613,3.020 12.060 C 3.020 16.872,3.026 17.395,3.091 17.957 C 3.260 19.415,3.547 20.182,4.155 20.800 C 4.790 21.446,5.568 21.743,7.056 21.908 C 7.635 21.973,8.135 21.980,12.020 21.980 C 15.908 21.980,16.402 21.973,16.957 21.908 C 18.432 21.738,19.195 21.449,19.822 20.822 C 20.570 20.074,20.851 19.146,20.962 17.060 C 21.021 15.960,20.990 6.761,20.926 6.180 C 20.770 4.771,20.518 3.992,20.022 3.391 C 19.367 2.597,18.467 2.239,16.720 2.075 C 16.295 2.036,9.257 1.994,8.320 2.025 M12.405 5.381 C 12.485 5.432,12.593 5.543,12.645 5.627 C 12.734 5.771,12.741 5.824,12.754 6.506 L 12.768 7.232 13.497 7.246 C 14.210 7.260,14.230 7.262,14.388 7.367 C 14.628 7.526,14.733 7.721,14.733 8.007 C 14.733 8.203,14.714 8.271,14.616 8.409 C 14.403 8.713,14.320 8.738,13.494 8.753 L 12.768 8.766 12.754 9.500 L 12.740 10.233 12.619 10.405 C 12.453 10.642,12.273 10.739,12.000 10.739 C 11.727 10.739,11.547 10.642,11.381 10.405 L 11.260 10.233 11.246 9.500 L 11.232 8.766 10.506 8.753 C 9.680 8.738,9.597 8.713,9.384 8.409 C 9.286 8.271,9.267 8.203,9.267 8.007 C 9.267 7.721,9.372 7.526,9.612 7.367 C 9.770 7.262,9.790 7.260,10.503 7.246 L 11.232 7.232 11.246 6.506 C 11.259 5.829,11.266 5.770,11.353 5.631 C 11.586 5.256,12.044 5.147,12.405 5.381 M16.373 13.355 C 16.615 13.506,16.733 13.718,16.733 14.003 C 16.733 14.203,16.714 14.270,16.616 14.409 C 16.552 14.501,16.436 14.613,16.359 14.658 C 16.221 14.739,16.181 14.740,12.000 14.740 C 7.819 14.740,7.779 14.739,7.641 14.658 C 7.564 14.613,7.448 14.501,7.384 14.409 C 7.098 14.003,7.330 13.395,7.815 13.278 C 7.884 13.261,9.803 13.250,12.080 13.254 L 16.220 13.260 16.373 13.355 M15.388 17.367 C 15.628 17.526,15.733 17.721,15.733 18.007 C 15.733 18.203,15.714 18.271,15.616 18.409 C 15.552 18.501,15.436 18.613,15.359 18.658 C 15.222 18.739,15.173 18.740,12.000 18.740 C 8.827 18.740,8.778 18.739,8.641 18.658 C 8.564 18.613,8.448 18.501,8.384 18.409 C 8.098 18.003,8.330 17.395,8.815 17.278 C 8.884 17.261,10.354 17.250,12.083 17.254 L 15.226 17.260 15.388 17.367 " fill="#1C274C" stroke="none" fill-rule="evenodd"></path></svg>