<svg width="24" height="24" viewBox="0 0 24 24" fill="none" xmlns="http://www.w3.org/2000/svg"><path d="M11.120 2.039 C 9.316 2.220,7.707 2.807,6.280 3.806 C 2.696 6.315,1.150 10.849,2.462 15.000 C 2.954 16.557,3.767 17.890,4.938 19.062 C 6.528 20.651,8.440 21.596,10.740 21.928 C 11.213 21.996,12.787 21.996,13.260 21.928 C 15.135 21.657,16.725 20.987,18.200 19.845 C 18.637 19.507,19.507 18.637,19.845 18.200 C 22.092 15.297,22.619 11.564,21.254 8.220 C 20.058 5.287,17.480 3.053,14.430 2.303 C 13.446 2.062,12.028 1.948,11.120 2.039 M12.405 5.381 C 12.622 5.521,12.720 5.710,12.748 6.039 C 12.770 6.302,12.779 6.323,12.876 6.345 C 14.082 6.616,15.047 7.338,15.482 8.297 C 15.714 8.811,15.808 9.563,15.671 9.820 C 15.529 10.086,15.284 10.240,15.000 10.240 C 14.799 10.240,14.647 10.181,14.506 10.047 C 14.341 9.891,14.292 9.774,14.243 9.418 C 14.184 8.995,14.044 8.717,13.735 8.413 C 13.036 7.722,11.783 7.556,10.809 8.024 C 10.437 8.203,10.060 8.565,9.897 8.900 C 9.794 9.111,9.780 9.184,9.780 9.500 C 9.780 9.817,9.794 9.889,9.897 10.100 C 10.062 10.438,10.427 10.790,10.800 10.974 C 11.155 11.148,11.508 11.222,12.240 11.275 C 12.537 11.297,12.921 11.352,13.094 11.397 C 13.443 11.488,14.056 11.765,14.336 11.957 C 14.788 12.269,15.218 12.757,15.455 13.228 C 15.818 13.950,15.828 14.938,15.482 15.703 C 15.230 16.258,14.725 16.813,14.170 17.146 C 13.865 17.328,13.286 17.567,12.976 17.638 L 12.771 17.685 12.747 17.971 C 12.706 18.458,12.433 18.739,12.000 18.739 C 11.567 18.739,11.294 18.458,11.253 17.971 L 11.229 17.685 11.024 17.638 C 10.714 17.567,10.135 17.328,9.830 17.146 C 9.305 16.831,8.811 16.302,8.542 15.766 C 8.303 15.290,8.189 14.443,8.329 14.180 C 8.471 13.914,8.716 13.760,9.000 13.760 C 9.201 13.760,9.353 13.819,9.494 13.953 C 9.659 14.109,9.708 14.226,9.757 14.582 C 9.783 14.765,9.846 14.993,9.908 15.120 C 10.045 15.403,10.431 15.786,10.747 15.952 C 11.480 16.337,12.520 16.337,13.253 15.952 C 13.578 15.781,13.954 15.404,14.103 15.100 C 14.206 14.889,14.220 14.817,14.220 14.500 C 14.220 14.184,14.206 14.111,14.103 13.900 C 13.940 13.565,13.563 13.203,13.192 13.025 C 12.807 12.840,12.651 12.806,11.955 12.760 C 11.041 12.698,10.367 12.495,9.753 12.098 C 9.051 11.644,8.561 10.998,8.354 10.252 C 8.248 9.869,8.239 9.235,8.335 8.831 C 8.622 7.618,9.689 6.667,11.124 6.345 C 11.221 6.323,11.230 6.302,11.252 6.039 C 11.278 5.724,11.371 5.535,11.567 5.395 C 11.813 5.220,12.147 5.214,12.405 5.381 " fill="#1C274C" stroke="none" fill-rule="evenodd"></path></svg>