<svg width="24" height="24" viewBox="0 0 24 24" fill="none" xmlns="http://www.w3.org/2000/svg"><path d="M11.300 2.027 C 10.396 2.103,9.297 2.339,8.537 2.620 C 7.919 2.849,7.069 3.282,6.517 3.649 C 5.317 4.446,4.470 5.292,3.667 6.492 C 2.871 7.684,2.343 9.058,2.113 10.540 C 2.043 10.992,2.026 11.274,2.026 12.000 C 2.026 13.036,2.101 13.649,2.342 14.557 C 3.129 17.531,5.219 19.954,8.054 21.181 C 9.340 21.738,10.537 21.977,12.020 21.975 C 13.035 21.974,13.660 21.895,14.557 21.658 C 17.348 20.920,19.702 18.994,20.959 16.420 C 21.435 15.446,21.720 14.536,21.887 13.460 C 22.011 12.662,22.011 11.338,21.887 10.540 C 21.561 8.440,20.643 6.577,19.180 5.045 C 18.258 4.079,16.919 3.190,15.628 2.685 C 14.326 2.176,12.618 1.916,11.300 2.027 M12.209 5.282 C 12.541 5.374,12.758 5.689,12.759 6.082 L 12.760 6.304 13.139 6.411 C 14.163 6.698,15.007 7.352,15.418 8.175 C 15.623 8.586,15.710 8.887,15.747 9.308 C 15.769 9.566,15.761 9.618,15.667 9.808 C 15.517 10.112,15.341 10.220,15.000 10.220 C 14.782 10.220,14.708 10.202,14.589 10.121 C 14.384 9.980,14.276 9.764,14.237 9.418 C 14.172 8.833,13.775 8.305,13.190 8.024 C 13.026 7.945,12.862 7.880,12.826 7.880 C 12.766 7.880,12.760 8.030,12.760 9.592 L 12.760 11.304 13.139 11.411 C 14.163 11.698,15.007 12.352,15.418 13.175 C 15.668 13.674,15.737 13.964,15.737 14.500 C 15.737 15.036,15.668 15.326,15.418 15.825 C 15.006 16.649,14.166 17.301,13.146 17.588 L 12.760 17.696 12.760 17.909 C 12.760 18.277,12.601 18.546,12.300 18.684 C 11.780 18.925,11.240 18.528,11.240 17.906 L 11.240 17.690 10.970 17.622 C 9.458 17.245,8.383 16.095,8.254 14.716 C 8.225 14.400,8.278 14.210,8.454 14.011 C 8.731 13.695,9.194 13.669,9.494 13.953 C 9.662 14.112,9.727 14.264,9.763 14.586 C 9.838 15.250,10.297 15.790,11.030 16.077 L 11.240 16.159 11.240 14.424 L 11.240 12.690 10.970 12.622 C 9.920 12.360,9.007 11.676,8.586 10.834 C 8.332 10.326,8.263 10.039,8.263 9.500 C 8.263 8.964,8.332 8.674,8.582 8.175 C 8.993 7.352,9.837 6.698,10.861 6.411 L 11.240 6.304 11.240 6.091 C 11.240 5.723,11.399 5.454,11.700 5.316 C 11.883 5.231,11.998 5.223,12.209 5.282 M10.937 7.962 C 10.402 8.188,9.948 8.655,9.814 9.116 C 9.588 9.894,10.106 10.729,11.035 11.082 L 11.240 11.160 11.240 9.500 C 11.240 8.587,11.236 7.841,11.230 7.841 C 11.225 7.842,11.093 7.896,10.937 7.962 M12.760 14.519 L 12.760 16.159 12.970 16.077 C 13.477 15.878,13.901 15.512,14.102 15.100 C 14.205 14.889,14.219 14.816,14.219 14.500 C 14.220 14.180,14.206 14.113,14.100 13.900 C 13.929 13.558,13.558 13.201,13.190 13.024 C 13.026 12.945,12.862 12.880,12.826 12.880 C 12.766 12.880,12.760 13.025,12.760 14.519 " fill="#1C274C" stroke="none" fill-rule="evenodd"></path></svg>