<svg width="24" height="24" viewBox="0 0 24 24" fill="none" xmlns="http://www.w3.org/2000/svg"><path d="M11.340 2.027 C 10.204 2.120,9.273 2.330,8.320 2.706 C 7.864 2.886,7.142 3.244,6.805 3.457 L 6.629 3.568 7.133 4.074 C 7.771 4.715,7.862 4.916,7.684 5.300 C 7.595 5.494,7.468 5.616,7.271 5.698 C 6.889 5.858,6.711 5.768,5.992 5.051 L 5.405 4.466 4.950 4.923 C 3.226 6.656,2.257 8.758,2.037 11.243 C 1.983 11.849,2.009 12.774,2.082 12.862 C 2.165 12.963,2.965 13.446,3.440 13.683 C 4.656 14.290,5.391 14.378,6.400 14.041 C 6.747 13.925,7.620 13.495,8.034 13.237 C 8.354 13.037,8.367 13.023,8.346 12.904 C 8.195 12.043,8.225 11.465,8.455 10.791 C 8.651 10.220,8.910 9.810,9.360 9.360 C 9.810 8.910,10.220 8.651,10.791 8.455 C 11.834 8.098,12.973 8.218,13.930 8.785 C 14.374 9.047,14.953 9.626,15.215 10.070 C 15.631 10.771,15.818 11.627,15.727 12.404 C 15.673 12.865,15.499 13.425,15.299 13.784 L 15.163 14.028 15.267 14.076 C 15.454 14.161,15.854 14.239,16.108 14.239 C 16.698 14.241,16.959 14.101,17.721 13.377 C 18.660 12.482,19.159 12.259,20.200 12.266 C 20.856 12.271,21.198 12.351,21.907 12.665 C 21.986 12.700,22.014 12.348,21.986 11.681 C 21.940 10.587,21.726 9.475,21.382 8.540 C 21.221 8.106,20.757 7.138,20.557 6.824 L 20.433 6.628 19.926 7.133 C 19.285 7.771,19.084 7.862,18.700 7.684 C 18.506 7.595,18.384 7.468,18.302 7.271 C 18.142 6.889,18.232 6.711,18.949 5.992 L 19.534 5.405 19.077 4.950 C 17.363 3.245,15.257 2.266,12.820 2.041 C 12.410 2.003,11.710 1.996,11.340 2.027 M11.300 3.317 C 11.513 3.416,12.617 4.531,12.698 4.729 C 12.851 5.098,12.680 5.509,12.300 5.684 C 12.104 5.775,11.924 5.779,11.729 5.698 C 11.531 5.617,10.416 4.513,10.317 4.300 C 10.141 3.924,10.307 3.497,10.700 3.316 C 10.904 3.222,11.098 3.222,11.300 3.317 M16.219 4.285 C 16.423 4.341,16.659 4.577,16.715 4.781 C 16.771 4.981,16.769 5.064,16.706 5.240 C 16.652 5.391,15.166 7.389,14.975 7.568 C 14.807 7.724,14.539 7.787,14.310 7.723 C 14.111 7.667,13.872 7.453,13.802 7.267 C 13.738 7.098,13.751 6.834,13.831 6.678 C 13.914 6.518,15.434 4.487,15.533 4.405 C 15.615 4.338,15.872 4.244,15.980 4.242 C 16.024 4.241,16.132 4.260,16.219 4.285 M10.743 6.293 C 11.248 6.486,11.407 7.113,11.047 7.494 C 10.886 7.664,10.788 7.703,9.979 7.920 C 9.167 8.138,9.070 8.150,8.850 8.058 C 8.558 7.936,8.400 7.691,8.400 7.360 C 8.400 7.117,8.466 6.976,8.658 6.807 C 8.806 6.678,8.839 6.666,9.800 6.404 C 10.421 6.235,10.551 6.220,10.743 6.293 M6.558 7.199 C 6.643 7.243,6.750 7.330,6.795 7.394 C 6.909 7.554,7.501 8.870,7.534 9.035 C 7.588 9.312,7.393 9.679,7.116 9.822 C 6.847 9.961,6.378 9.851,6.205 9.606 C 6.091 9.446,5.499 8.130,5.466 7.965 C 5.413 7.692,5.580 7.364,5.858 7.195 C 6.023 7.094,6.356 7.096,6.558 7.199 M3.983 8.300 C 4.248 8.455,4.321 8.610,4.365 9.111 C 4.385 9.347,4.406 9.777,4.411 10.066 L 4.420 10.592 4.300 10.762 C 4.064 11.097,3.654 11.189,3.307 10.986 C 2.982 10.796,2.941 10.661,2.881 9.591 C 2.834 8.762,2.851 8.661,3.072 8.425 C 3.303 8.179,3.687 8.126,3.983 8.300 M16.992 8.316 C 17.339 8.493,17.384 8.629,17.437 9.661 L 17.480 10.499 17.377 10.710 C 17.080 11.317,16.177 11.248,16.000 10.605 C 15.962 10.467,15.877 8.986,15.901 8.901 C 15.908 8.878,15.924 8.811,15.937 8.751 C 15.968 8.609,16.186 8.363,16.339 8.296 C 16.517 8.219,16.819 8.228,16.992 8.316 M21.030 9.427 C 21.383 9.595,21.528 10.077,21.336 10.449 C 21.269 10.578,20.051 11.610,19.832 11.723 C 19.569 11.859,19.140 11.787,18.952 11.574 C 18.844 11.454,18.760 11.218,18.760 11.040 C 18.760 10.756,18.877 10.602,19.468 10.112 C 20.252 9.463,20.334 9.401,20.464 9.360 C 20.609 9.314,20.853 9.343,21.030 9.427 M11.480 9.818 C 10.705 10.017,10.137 10.534,9.875 11.280 C 9.743 11.653,9.743 12.347,9.875 12.720 C 10.109 13.386,10.615 13.892,11.280 14.126 C 11.493 14.200,11.624 14.217,12.000 14.217 C 12.376 14.217,12.507 14.200,12.720 14.126 C 13.385 13.892,13.891 13.386,14.125 12.720 C 14.200 12.507,14.217 12.377,14.217 12.000 C 14.217 11.623,14.200 11.493,14.125 11.280 C 13.890 10.612,13.377 10.101,12.720 9.878 C 12.390 9.766,11.795 9.737,11.480 9.818 M6.812 10.825 C 6.994 10.917,7.078 10.999,7.164 11.168 C 7.269 11.374,7.262 11.659,7.147 11.860 C 6.964 12.181,6.164 13.222,6.050 13.289 C 5.561 13.574,4.920 13.209,4.920 12.644 C 4.920 12.557,4.938 12.437,4.961 12.377 C 5.003 12.266,5.779 11.183,5.952 10.993 C 6.160 10.765,6.546 10.690,6.812 10.825 M19.740 13.798 C 19.460 13.866,19.180 14.060,18.691 14.526 C 18.410 14.793,18.057 15.098,17.908 15.203 C 16.952 15.875,15.648 15.927,14.415 15.343 L 14.031 15.161 13.785 15.298 C 13.438 15.493,12.877 15.666,12.406 15.725 C 11.334 15.859,10.227 15.478,9.406 14.693 L 9.063 14.365 8.702 14.589 C 7.656 15.237,6.489 15.667,5.572 15.744 C 4.829 15.806,3.729 15.525,2.710 15.014 C 2.561 14.940,2.440 14.895,2.440 14.916 C 2.440 14.936,2.504 15.138,2.582 15.366 C 2.892 16.264,3.545 17.432,4.200 18.260 C 4.525 18.670,5.328 19.473,5.740 19.800 C 8.429 21.933,11.940 22.557,15.175 21.476 C 18.281 20.439,20.669 17.954,21.601 14.789 C 21.671 14.552,21.719 14.335,21.708 14.306 C 21.673 14.216,21.060 13.922,20.735 13.839 C 20.426 13.760,19.972 13.741,19.740 13.798 " fill="#1C274C" stroke="none" fill-rule="evenodd"></path></svg>