<svg width="24" height="24" viewBox="0 0 24 24" fill="none" xmlns="http://www.w3.org/2000/svg"><path d="M11.340 2.027 C 10.204 2.120,9.273 2.330,8.320 2.706 C 7.864 2.886,7.142 3.244,6.805 3.457 L 6.629 3.568 7.133 4.074 C 7.771 4.715,7.862 4.916,7.684 5.300 C 7.595 5.494,7.468 5.616,7.271 5.698 C 6.889 5.858,6.711 5.768,5.992 5.051 L 5.405 4.466 4.950 4.923 C 3.219 6.663,2.245 8.785,2.036 11.268 C 1.984 11.887,2.010 12.775,2.082 12.863 C 2.164 12.962,2.963 13.445,3.440 13.684 C 4.743 14.339,5.541 14.389,6.940 13.907 C 7.405 13.747,8.343 13.340,8.433 13.259 C 8.441 13.252,8.409 13.097,8.364 12.913 C 8.125 11.952,8.276 10.928,8.785 10.070 C 9.047 9.626,9.626 9.047,10.070 8.785 C 10.772 8.368,11.627 8.182,12.408 8.273 C 13.282 8.376,14.010 8.730,14.640 9.360 C 15.270 9.990,15.624 10.718,15.727 11.592 C 15.814 12.334,15.643 13.182,15.278 13.816 C 15.190 13.968,15.124 14.096,15.129 14.100 C 15.135 14.104,15.464 14.325,15.860 14.591 C 16.256 14.857,16.694 15.174,16.834 15.295 C 17.008 15.446,17.135 15.522,17.239 15.540 C 17.464 15.578,17.849 15.772,18.038 15.943 C 18.129 16.025,18.278 16.199,18.369 16.328 C 18.599 16.656,18.654 16.632,18.684 16.195 C 18.715 15.732,18.865 15.410,19.222 15.041 C 19.633 14.615,20.115 14.400,20.660 14.400 C 20.988 14.400,21.286 14.477,21.489 14.615 L 21.630 14.711 21.716 14.345 C 22.194 12.313,22.048 10.229,21.294 8.320 C 21.114 7.864,20.756 7.142,20.543 6.805 L 20.432 6.629 19.926 7.133 C 19.285 7.771,19.084 7.862,18.700 7.684 C 18.506 7.595,18.384 7.468,18.302 7.271 C 18.142 6.889,18.232 6.711,18.949 5.992 L 19.534 5.405 19.077 4.950 C 17.363 3.245,15.257 2.266,12.820 2.041 C 12.410 2.003,11.710 1.996,11.340 2.027 M11.300 3.317 C 11.513 3.416,12.617 4.531,12.698 4.729 C 12.851 5.098,12.680 5.509,12.300 5.684 C 12.104 5.775,11.924 5.779,11.729 5.698 C 11.531 5.617,10.416 4.513,10.317 4.300 C 10.141 3.924,10.307 3.497,10.700 3.316 C 10.904 3.222,11.098 3.222,11.300 3.317 M16.219 4.285 C 16.423 4.341,16.659 4.577,16.715 4.781 C 16.771 4.981,16.769 5.064,16.706 5.240 C 16.652 5.391,15.166 7.389,14.975 7.568 C 14.807 7.724,14.539 7.787,14.310 7.723 C 14.111 7.667,13.872 7.453,13.802 7.267 C 13.738 7.098,13.751 6.834,13.831 6.678 C 13.914 6.518,15.434 4.487,15.533 4.405 C 15.615 4.338,15.872 4.244,15.980 4.242 C 16.024 4.241,16.132 4.260,16.219 4.285 M10.743 6.293 C 11.248 6.486,11.407 7.113,11.047 7.494 C 10.886 7.664,10.788 7.703,9.979 7.920 C 9.167 8.138,9.070 8.150,8.850 8.058 C 8.558 7.936,8.400 7.691,8.400 7.360 C 8.400 7.117,8.466 6.976,8.658 6.807 C 8.806 6.678,8.839 6.666,9.800 6.404 C 10.421 6.235,10.551 6.220,10.743 6.293 M6.558 7.199 C 6.643 7.243,6.750 7.330,6.795 7.394 C 6.909 7.554,7.501 8.870,7.534 9.035 C 7.588 9.312,7.393 9.679,7.116 9.822 C 6.847 9.961,6.378 9.851,6.205 9.606 C 6.091 9.446,5.499 8.130,5.466 7.965 C 5.413 7.692,5.580 7.364,5.858 7.195 C 6.023 7.094,6.356 7.096,6.558 7.199 M3.983 8.300 C 4.321 8.498,4.388 8.768,4.410 10.029 L 4.420 10.592 4.300 10.762 C 3.918 11.306,3.092 11.145,2.961 10.502 C 2.891 10.160,2.836 8.918,2.883 8.748 C 2.933 8.566,3.135 8.327,3.299 8.256 C 3.500 8.168,3.790 8.187,3.983 8.300 M16.992 8.316 C 17.339 8.493,17.384 8.629,17.437 9.661 L 17.480 10.499 17.377 10.710 C 17.080 11.317,16.177 11.248,16.000 10.605 C 15.962 10.467,15.877 8.986,15.901 8.901 C 15.908 8.878,15.924 8.811,15.937 8.751 C 15.968 8.609,16.186 8.363,16.339 8.296 C 16.517 8.219,16.819 8.228,16.992 8.316 M21.030 9.427 C 21.382 9.594,21.528 10.077,21.337 10.445 C 21.262 10.590,19.478 12.162,19.289 12.249 C 18.660 12.540,18.016 11.827,18.341 11.199 C 18.370 11.142,18.750 10.781,19.186 10.397 C 20.233 9.474,20.319 9.404,20.460 9.361 C 20.609 9.315,20.852 9.343,21.030 9.427 M11.480 9.818 C 10.705 10.017,10.137 10.534,9.875 11.280 C 9.743 11.653,9.743 12.347,9.875 12.720 C 10.109 13.386,10.615 13.892,11.280 14.126 C 11.493 14.200,11.624 14.217,12.000 14.217 C 12.376 14.217,12.507 14.200,12.720 14.126 C 13.385 13.892,13.891 13.386,14.125 12.720 C 14.200 12.507,14.217 12.377,14.217 12.000 C 14.217 11.623,14.200 11.493,14.125 11.280 C 13.890 10.612,13.377 10.101,12.720 9.878 C 12.390 9.766,11.795 9.737,11.480 9.818 M6.812 10.825 C 6.994 10.917,7.078 10.999,7.164 11.168 C 7.269 11.374,7.262 11.659,7.147 11.860 C 6.964 12.181,6.164 13.222,6.050 13.289 C 5.561 13.574,4.920 13.209,4.920 12.644 C 4.920 12.557,4.938 12.437,4.961 12.377 C 5.003 12.266,5.779 11.183,5.952 10.993 C 6.160 10.765,6.546 10.690,6.812 10.825 M8.980 14.669 C 7.932 15.220,6.514 15.670,5.598 15.743 C 4.820 15.804,3.742 15.532,2.705 15.012 L 2.430 14.874 2.458 14.987 C 2.608 15.588,3.181 16.782,3.671 17.520 C 4.979 19.487,6.871 20.891,9.135 21.578 C 9.940 21.822,11.059 22.000,11.785 22.000 C 12.034 22.000,12.092 21.986,12.186 21.905 L 12.297 21.809 12.251 21.446 C 12.146 20.612,12.415 19.979,13.051 19.562 C 13.416 19.322,13.736 19.233,14.200 19.242 C 14.686 19.252,14.670 19.254,14.720 19.160 C 14.755 19.094,14.734 19.032,14.600 18.810 C 14.393 18.467,14.320 18.218,14.321 17.863 C 14.323 17.284,14.528 16.808,14.985 16.322 L 15.278 16.011 14.646 15.590 L 14.014 15.169 13.778 15.303 C 13.446 15.491,12.875 15.667,12.405 15.725 C 11.393 15.852,10.282 15.495,9.505 14.793 C 9.363 14.665,9.232 14.561,9.214 14.562 C 9.195 14.563,9.090 14.611,8.980 14.669 " fill="#1C274C" stroke="none" fill-rule="evenodd"></path></svg>