<svg width="24" height="24" viewBox="0 0 24 24" fill="none" xmlns="http://www.w3.org/2000/svg"><path d="M11.807 6.279 C 11.734 6.296,11.599 6.371,11.507 6.445 C 10.726 7.069,4.403 12.540,4.341 12.645 C 4.288 12.736,4.262 12.854,4.262 13.008 C 4.261 13.426,4.577 13.739,5.001 13.739 C 5.156 13.739,5.262 13.714,5.353 13.656 C 5.424 13.611,6.941 12.324,8.723 10.797 C 10.506 9.270,11.980 8.020,12.000 8.020 C 12.020 8.020,13.494 9.270,15.277 10.797 C 17.059 12.324,18.576 13.611,18.647 13.656 C 18.824 13.768,19.169 13.769,19.360 13.657 C 19.436 13.613,19.553 13.499,19.619 13.406 C 19.774 13.184,19.787 12.858,19.650 12.636 C 19.567 12.502,12.628 6.516,12.372 6.357 C 12.233 6.271,11.982 6.236,11.807 6.279 M11.807 10.279 C 11.734 10.296,11.599 10.371,11.507 10.445 C 11.051 10.809,4.600 16.348,4.475 16.483 C 4.083 16.904,4.267 17.577,4.811 17.714 C 5.075 17.780,18.925 17.780,19.189 17.714 C 19.718 17.580,19.915 16.911,19.546 16.505 C 19.398 16.342,12.443 10.385,12.334 10.328 C 12.219 10.268,11.954 10.243,11.807 10.279 " fill="#1C274C" stroke="none" fill-rule="evenodd"></path></svg>