<svg width="24" height="24" viewBox="0 0 24 24" fill="none" xmlns="http://www.w3.org/2000/svg"><path d="M6.785 4.288 C 6.569 4.347,6.344 4.583,6.286 4.811 C 6.220 5.075,6.220 18.925,6.286 19.189 C 6.416 19.703,7.076 19.913,7.474 19.566 C 7.541 19.508,8.963 17.864,10.633 15.913 C 13.918 12.074,13.795 12.236,13.723 11.851 C 13.705 11.758,13.666 11.650,13.636 11.611 C 13.606 11.572,12.207 9.935,10.528 7.973 C 8.505 5.611,7.431 4.386,7.347 4.346 C 7.164 4.260,6.963 4.240,6.785 4.288 M10.815 4.276 C 10.637 4.321,10.461 4.457,10.353 4.631 C 10.231 4.829,10.226 5.167,10.344 5.353 C 10.389 5.424,11.676 6.941,13.203 8.723 C 14.730 10.506,15.980 11.980,15.980 12.000 C 15.980 12.020,14.730 13.494,13.203 15.277 C 11.676 17.059,10.389 18.576,10.344 18.647 C 10.225 18.834,10.231 19.171,10.356 19.373 C 10.497 19.601,10.724 19.735,10.974 19.738 C 11.087 19.739,11.241 19.714,11.316 19.683 C 11.418 19.640,12.223 18.727,14.491 16.083 C 16.162 14.134,17.576 12.470,17.634 12.384 C 17.770 12.181,17.780 11.843,17.656 11.647 C 17.495 11.392,11.506 4.438,11.382 4.361 C 11.233 4.269,10.989 4.232,10.815 4.276 " fill="#1C274C" stroke="none" fill-rule="evenodd"></path></svg>