<svg width="24" height="24" viewBox="0 0 24 24" fill="none" xmlns="http://www.w3.org/2000/svg"><path d="M4.785 6.289 C 4.698 6.312,4.564 6.396,4.481 6.479 C 4.199 6.761,4.188 7.200,4.454 7.497 C 4.608 7.668,11.399 13.489,11.612 13.631 C 11.731 13.711,11.814 13.733,11.992 13.733 C 12.118 13.733,12.263 13.711,12.314 13.683 C 12.438 13.617,19.383 7.674,19.546 7.495 C 19.915 7.089,19.718 6.420,19.189 6.286 C 18.944 6.225,5.018 6.228,4.785 6.289 M4.768 10.284 C 4.696 10.305,4.567 10.393,4.481 10.479 C 4.202 10.758,4.175 11.142,4.414 11.443 C 4.544 11.607,11.338 17.447,11.616 17.634 C 11.819 17.770,12.157 17.780,12.353 17.656 C 12.633 17.479,19.565 11.502,19.650 11.364 C 19.851 11.038,19.723 10.572,19.373 10.355 C 19.175 10.233,18.828 10.229,18.642 10.347 C 18.573 10.390,17.059 11.676,15.277 13.203 C 13.494 14.730,12.020 15.980,12.000 15.980 C 11.980 15.980,10.506 14.730,8.723 13.203 C 6.941 11.676,5.433 10.395,5.371 10.356 C 5.230 10.268,4.939 10.233,4.768 10.284 " fill="#1C274C" stroke="none" fill-rule="evenodd"></path></svg>