<svg width="24" height="24" viewBox="0 0 24 24" fill="none" xmlns="http://www.w3.org/2000/svg"><path d="M12.778 4.281 C 12.710 4.302,12.590 4.377,12.509 4.449 C 12.332 4.608,6.514 11.396,6.366 11.616 C 6.218 11.836,6.218 12.164,6.366 12.384 C 6.424 12.470,7.838 14.134,9.509 16.083 C 11.777 18.727,12.582 19.640,12.684 19.683 C 13.189 19.895,13.739 19.539,13.739 18.999 C 13.739 18.844,13.714 18.738,13.656 18.647 C 13.611 18.576,12.324 17.059,10.797 15.277 C 9.270 13.494,8.020 12.020,8.020 12.000 C 8.020 11.980,9.270 10.506,10.797 8.723 C 12.324 6.941,13.611 5.424,13.656 5.353 C 13.775 5.166,13.769 4.829,13.644 4.627 C 13.468 4.342,13.083 4.189,12.778 4.281 M16.793 4.286 C 16.712 4.308,16.582 4.384,16.505 4.453 C 16.332 4.608,10.512 11.398,10.369 11.612 C 10.224 11.827,10.224 12.173,10.369 12.388 C 10.511 12.601,16.332 19.392,16.503 19.546 C 16.914 19.914,17.580 19.718,17.714 19.189 C 17.778 18.934,17.780 5.054,17.716 4.820 C 17.604 4.411,17.197 4.175,16.793 4.286 " fill="#1C274C" stroke="none" fill-rule="evenodd"></path></svg>