<svg width="24" height="24" viewBox="0 0 24 24" fill="none" xmlns="http://www.w3.org/2000/svg"><path d="M8.419 2.041 C 5.785 2.145,4.480 2.507,3.549 3.393 C 2.551 4.342,2.166 5.587,2.041 8.260 C 1.988 9.399,1.988 14.601,2.041 15.740 C 2.160 18.285,2.507 19.501,3.379 20.433 C 4.245 21.360,5.318 21.742,7.580 21.927 C 8.488 22.002,15.512 22.002,16.420 21.927 C 18.857 21.727,19.992 21.275,20.860 20.157 C 21.474 19.368,21.771 18.329,21.927 16.420 C 22.002 15.512,22.002 8.488,21.927 7.580 C 21.740 5.297,21.356 4.232,20.407 3.355 C 19.572 2.585,18.492 2.242,16.380 2.078 C 15.684 2.023,9.573 1.995,8.419 2.041 M12.405 6.381 C 12.485 6.432,12.593 6.543,12.645 6.627 L 12.740 6.780 12.751 9.478 L 12.763 12.175 13.671 11.272 C 14.171 10.776,14.625 10.347,14.680 10.318 C 14.735 10.290,14.881 10.267,15.004 10.267 C 15.276 10.267,15.476 10.375,15.629 10.607 C 15.766 10.814,15.775 11.162,15.649 11.364 C 15.602 11.439,14.848 12.214,13.972 13.087 C 12.625 14.429,12.355 14.680,12.220 14.716 C 12.132 14.740,12.033 14.760,12.000 14.760 C 11.967 14.760,11.868 14.740,11.780 14.716 C 11.645 14.680,11.375 14.429,10.028 13.087 C 9.152 12.214,8.398 11.439,8.351 11.364 C 8.231 11.172,8.235 10.823,8.358 10.623 C 8.503 10.389,8.721 10.267,8.992 10.267 C 9.118 10.267,9.265 10.290,9.320 10.318 C 9.375 10.347,9.829 10.776,10.329 11.272 L 11.237 12.175 11.249 9.478 L 11.260 6.780 11.353 6.631 C 11.586 6.256,12.044 6.147,12.405 6.381 M16.373 16.355 C 16.615 16.506,16.733 16.718,16.733 17.003 C 16.733 17.203,16.714 17.270,16.616 17.409 C 16.552 17.501,16.436 17.613,16.359 17.658 C 16.221 17.739,16.181 17.740,12.000 17.740 C 7.819 17.740,7.779 17.739,7.641 17.658 C 7.564 17.613,7.448 17.501,7.384 17.409 C 7.098 17.003,7.330 16.395,7.815 16.278 C 7.884 16.261,9.803 16.250,12.080 16.254 L 16.220 16.260 16.373 16.355 " fill="#1C274C" stroke="none" fill-rule="evenodd"></path></svg>