<svg width="24" height="24" viewBox="0 0 24 24" fill="none" xmlns="http://www.w3.org/2000/svg"><path d="M11.811 1.278 C 11.639 1.320,11.417 1.493,11.330 1.652 C 11.265 1.772,11.259 2.145,11.240 7.358 L 11.220 12.936 10.414 11.998 C 9.971 11.482,9.557 11.012,9.494 10.953 C 9.192 10.668,8.731 10.695,8.451 11.014 C 8.227 11.268,8.195 11.578,8.361 11.868 C 8.401 11.938,9.135 12.812,9.992 13.810 C 11.125 15.131,11.586 15.641,11.685 15.683 C 11.858 15.756,12.142 15.756,12.315 15.683 C 12.414 15.641,12.875 15.131,14.008 13.810 C 14.865 12.812,15.599 11.938,15.639 11.868 C 15.805 11.578,15.773 11.268,15.549 11.014 C 15.269 10.695,14.808 10.668,14.506 10.953 C 14.443 11.012,14.029 11.482,13.586 11.998 L 12.780 12.936 12.760 7.358 C 12.740 1.827,12.739 1.779,12.658 1.641 C 12.494 1.361,12.122 1.202,11.811 1.278 M5.558 9.041 C 4.154 9.117,3.447 9.344,2.896 9.896 C 2.122 10.669,2.002 11.426,2.002 15.500 C 2.002 19.574,2.122 20.331,2.896 21.104 C 3.462 21.671,4.119 21.875,5.649 21.960 C 6.549 22.010,17.451 22.010,18.351 21.960 C 19.881 21.875,20.538 21.671,21.104 21.104 C 21.878 20.331,21.998 19.574,21.998 15.500 C 21.998 11.426,21.878 10.669,21.104 9.896 C 20.354 9.146,19.529 9.002,15.950 9.001 L 14.240 9.000 14.240 9.184 C 14.240 9.365,14.242 9.368,14.349 9.341 C 14.852 9.215,15.238 9.220,15.685 9.358 C 16.379 9.573,16.992 10.223,17.179 10.942 C 17.257 11.244,17.257 11.758,17.178 12.062 C 17.055 12.535,16.880 12.771,15.204 14.724 C 14.315 15.760,13.496 16.681,13.384 16.770 C 12.594 17.399,11.406 17.399,10.616 16.770 C 10.304 16.522,7.211 12.897,7.032 12.570 C 6.548 11.686,6.706 10.627,7.429 9.907 C 7.740 9.598,8.127 9.386,8.540 9.300 C 8.894 9.226,9.108 9.226,9.460 9.301 C 9.614 9.333,9.744 9.360,9.750 9.360 C 9.755 9.360,9.760 9.279,9.760 9.180 L 9.760 9.000 7.930 9.006 C 6.923 9.009,5.856 9.025,5.558 9.041 " fill="#1C274C" stroke="none" fill-rule="evenodd"></path></svg>