<svg width="24" height="24" viewBox="0 0 24 24" fill="none" xmlns="http://www.w3.org/2000/svg"><path d="M11.811 2.278 C 11.639 2.320,11.417 2.493,11.330 2.652 C 11.265 2.772,11.259 3.147,11.240 8.407 L 11.220 14.033 9.851 12.538 C 8.426 10.982,8.312 10.879,8.012 10.881 C 7.408 10.884,7.034 11.604,7.397 12.065 C 7.437 12.117,8.391 13.165,9.515 14.395 C 10.882 15.889,11.602 16.648,11.690 16.685 C 11.857 16.755,12.143 16.755,12.311 16.685 C 12.399 16.648,13.117 15.891,14.491 14.390 C 15.618 13.158,16.580 12.085,16.630 12.005 C 16.749 11.813,16.776 11.648,16.722 11.448 C 16.600 10.995,16.083 10.754,15.677 10.961 C 15.569 11.017,15.082 11.519,14.149 12.538 L 12.780 14.033 12.760 8.407 C 12.740 2.826,12.739 2.779,12.658 2.641 C 12.494 2.361,12.122 2.202,11.811 2.278 M2.807 14.289 C 2.558 14.342,2.342 14.570,2.284 14.838 C 2.231 15.085,2.230 15.728,2.279 17.020 C 2.336 18.487,2.454 19.151,2.779 19.820 C 3.285 20.860,4.152 21.415,5.600 21.624 C 6.310 21.726,7.815 21.757,12.000 21.757 C 18.136 21.757,18.811 21.711,19.820 21.221 C 20.848 20.721,21.405 19.862,21.621 18.440 C 21.709 17.861,21.786 15.163,21.723 14.866 C 21.597 14.276,20.901 14.059,20.480 14.480 C 20.264 14.696,20.240 14.858,20.240 16.120 C 20.240 18.267,20.086 19.079,19.582 19.582 C 19.221 19.944,18.703 20.114,17.708 20.197 C 17.008 20.256,6.992 20.256,6.292 20.197 C 5.297 20.114,4.779 19.944,4.418 19.582 C 3.914 19.079,3.761 18.273,3.759 16.108 C 3.758 15.506,3.740 14.940,3.717 14.841 C 3.620 14.420,3.247 14.194,2.807 14.289 " fill="#1C274C" stroke="none" fill-rule="evenodd"></path></svg>