<svg width="24" height="24" viewBox="0 0 24 24" fill="none" xmlns="http://www.w3.org/2000/svg"><path d="M8.419 2.041 C 5.785 2.145,4.480 2.507,3.549 3.393 C 2.551 4.342,2.166 5.587,2.041 8.260 C 1.988 9.399,1.988 14.601,2.041 15.740 C 2.160 18.285,2.507 19.501,3.379 20.433 C 4.245 21.360,5.318 21.742,7.580 21.927 C 8.488 22.002,15.512 22.002,16.420 21.927 C 18.857 21.727,19.992 21.275,20.860 20.157 C 21.474 19.368,21.771 18.329,21.927 16.420 C 22.002 15.512,22.002 8.488,21.927 7.580 C 21.740 5.297,21.356 4.232,20.407 3.355 C 19.572 2.585,18.492 2.242,16.380 2.078 C 15.684 2.023,9.573 1.995,8.419 2.041 M8.820 6.330 C 8.925 6.382,9.115 6.559,9.173 6.660 C 9.207 6.718,9.226 7.465,9.240 9.331 L 9.260 11.923 9.876 11.181 C 10.215 10.773,10.557 10.399,10.636 10.350 C 10.743 10.284,10.838 10.262,11.005 10.264 C 11.368 10.269,11.620 10.469,11.717 10.829 C 11.813 11.185,11.794 11.214,10.345 12.951 C 9.616 13.825,8.959 14.579,8.886 14.629 C 8.625 14.802,8.307 14.787,8.058 14.592 C 7.997 14.543,7.357 13.797,6.638 12.933 C 5.207 11.215,5.187 11.184,5.283 10.829 C 5.381 10.465,5.634 10.267,6.000 10.267 C 6.165 10.267,6.268 10.291,6.368 10.353 C 6.445 10.400,6.785 10.773,7.124 11.181 L 7.740 11.923 7.760 9.331 C 7.775 7.407,7.792 6.718,7.828 6.655 C 7.905 6.523,8.150 6.324,8.271 6.297 C 8.331 6.284,8.398 6.267,8.420 6.260 C 8.478 6.240,8.727 6.284,8.820 6.330 M15.820 6.330 C 15.925 6.382,16.115 6.559,16.173 6.660 C 16.207 6.718,16.226 7.465,16.240 9.331 L 16.260 11.923 16.876 11.181 C 17.215 10.773,17.557 10.399,17.636 10.350 C 17.743 10.284,17.838 10.262,18.005 10.264 C 18.368 10.269,18.620 10.469,18.717 10.829 C 18.813 11.185,18.794 11.214,17.345 12.951 C 16.616 13.825,15.959 14.579,15.886 14.629 C 15.625 14.802,15.307 14.787,15.058 14.592 C 14.997 14.543,14.357 13.797,13.638 12.933 C 12.207 11.215,12.187 11.184,12.283 10.829 C 12.381 10.465,12.634 10.267,13.000 10.267 C 13.165 10.267,13.268 10.291,13.368 10.353 C 13.445 10.400,13.785 10.773,14.124 11.181 L 14.740 11.923 14.760 9.331 C 14.775 7.407,14.792 6.718,14.828 6.655 C 14.905 6.523,15.150 6.324,15.271 6.297 C 15.331 6.284,15.398 6.267,15.420 6.260 C 15.478 6.240,15.727 6.284,15.820 6.330 M18.373 16.355 C 18.615 16.506,18.733 16.718,18.733 17.003 C 18.733 17.203,18.714 17.270,18.616 17.409 C 18.552 17.501,18.436 17.613,18.359 17.658 C 18.221 17.740,18.196 17.740,12.000 17.740 C 5.804 17.740,5.779 17.740,5.641 17.658 C 5.564 17.613,5.448 17.501,5.384 17.409 C 5.098 17.003,5.330 16.395,5.815 16.278 C 5.884 16.261,8.703 16.250,12.080 16.254 L 18.220 16.260 18.373 16.355 " fill="#1C274C" stroke="none" fill-rule="evenodd"></path></svg>