<svg width="24" height="24" viewBox="0 0 24 24" fill="none" xmlns="http://www.w3.org/2000/svg"><path d="M5.860 1.281 C 5.420 1.298,4.898 1.333,4.700 1.359 C 2.666 1.627,1.670 2.593,1.378 4.580 C 1.259 5.392,1.236 7.187,1.248 14.860 C 1.259 21.843,1.265 22.470,1.326 22.580 C 1.460 22.822,1.745 23.000,2.000 23.000 C 2.255 23.000,2.540 22.822,2.674 22.580 C 2.735 22.470,2.742 21.755,2.764 13.800 C 2.781 7.866,2.802 5.057,2.832 4.876 C 2.961 4.095,3.108 3.727,3.418 3.418 C 3.665 3.170,3.974 3.019,4.432 2.921 C 4.920 2.818,6.897 2.759,9.886 2.760 C 12.190 2.760,12.281 2.763,12.546 2.844 C 12.879 2.945,13.078 3.057,13.511 3.388 C 13.694 3.527,13.964 3.701,14.111 3.775 C 14.411 3.926,14.991 4.120,15.142 4.120 L 15.240 4.120 15.240 5.060 L 15.240 6.000 14.010 6.000 C 12.106 6.000,11.431 6.072,10.954 6.326 C 10.391 6.626,10.134 7.127,10.042 8.100 C 9.984 8.715,9.985 16.624,10.043 16.943 C 10.111 17.312,10.351 17.783,10.621 18.074 C 11.266 18.771,12.470 19.507,13.540 19.859 C 13.957 19.996,14.776 20.181,15.080 20.208 L 15.220 20.220 15.240 20.840 C 15.261 21.497,15.289 21.603,15.487 21.788 C 15.609 21.903,15.845 22.000,16.000 22.000 C 16.155 22.000,16.391 21.903,16.513 21.788 C 16.711 21.603,16.739 21.497,16.760 20.840 L 16.780 20.220 16.920 20.208 C 17.224 20.181,18.043 19.996,18.460 19.859 C 19.829 19.408,21.336 18.366,21.716 17.606 C 22.001 17.036,21.980 17.435,21.980 12.500 C 21.980 8.342,21.975 8.035,21.906 7.667 C 21.742 6.798,21.315 6.318,20.549 6.141 C 20.142 6.046,19.303 6.000,17.989 6.000 L 16.759 6.000 16.769 5.036 L 16.780 4.072 17.095 3.957 C 17.695 3.738,18.105 3.457,18.731 2.835 C 18.946 2.621,19.148 2.383,19.181 2.304 C 19.391 1.802,19.040 1.269,18.500 1.269 C 18.215 1.269,18.091 1.347,17.563 1.859 C 17.308 2.106,17.022 2.348,16.929 2.395 L 16.760 2.482 16.760 2.263 C 16.760 2.142,16.740 1.951,16.716 1.838 C 16.595 1.275,15.889 1.071,15.480 1.480 C 15.304 1.656,15.240 1.882,15.240 2.326 L 15.240 2.609 15.136 2.582 C 14.926 2.530,14.666 2.382,14.267 2.090 C 13.690 1.667,13.316 1.488,12.680 1.332 C 12.456 1.277,12.025 1.267,9.540 1.259 C 7.956 1.254,6.300 1.264,5.860 1.281 M16.439 8.975 C 16.777 9.198,17.511 10.123,17.781 10.667 C 17.976 11.059,18.027 11.356,17.967 11.747 C 17.795 12.851,16.794 13.625,15.730 13.476 C 14.530 13.308,13.696 11.956,14.124 10.871 C 14.379 10.223,15.329 9.034,15.700 8.897 C 15.924 8.815,16.250 8.849,16.439 8.975 M18.373 15.355 C 18.615 15.506,18.733 15.718,18.733 16.003 C 18.733 16.203,18.714 16.270,18.616 16.409 C 18.552 16.501,18.436 16.613,18.359 16.658 C 18.223 16.738,18.165 16.740,16.000 16.740 C 13.835 16.740,13.777 16.738,13.641 16.658 C 13.564 16.613,13.448 16.501,13.384 16.409 C 13.098 16.003,13.329 15.396,13.815 15.277 C 13.884 15.260,14.903 15.250,16.080 15.253 L 18.220 15.260 18.373 15.355 " fill="#1C274C" stroke="none" fill-rule="evenodd"></path></svg>