<svg width="24" height="24" viewBox="0 0 24 24" fill="none" xmlns="http://www.w3.org/2000/svg"><path d="M11.680 2.025 C 11.447 2.070,11.165 2.179,10.956 2.304 C 10.734 2.437,10.413 2.746,10.324 2.912 L 10.277 3.000 12.000 3.000 L 13.723 3.000 13.677 2.914 C 13.519 2.620,13.048 2.254,12.647 2.115 C 12.424 2.038,11.878 1.987,11.680 2.025 M7.153 4.044 C 6.140 4.122,5.606 4.395,5.305 4.989 C 5.010 5.571,5.000 5.788,5.000 11.332 C 5.000 16.635,4.992 16.449,5.258 17.020 C 5.506 17.554,5.923 17.993,6.733 18.574 C 7.999 19.482,9.330 19.990,11.050 20.219 L 11.240 20.245 11.240 20.804 C 11.240 21.218,11.256 21.401,11.302 21.511 C 11.569 22.151,12.431 22.151,12.698 21.511 C 12.744 21.401,12.760 21.218,12.760 20.804 L 12.760 20.245 12.950 20.219 C 14.670 19.990,16.001 19.482,17.267 18.574 C 18.077 17.993,18.494 17.554,18.742 17.020 C 18.940 16.595,19.000 16.230,19.000 15.444 L 19.000 14.765 17.890 14.752 C 16.633 14.738,16.612 14.734,16.384 14.409 C 16.286 14.270,16.267 14.203,16.267 14.003 C 16.267 13.718,16.385 13.506,16.627 13.355 C 16.777 13.262,16.802 13.260,17.890 13.247 L 19.000 13.234 19.000 12.499 L 19.000 11.765 17.890 11.752 C 16.633 11.738,16.612 11.734,16.384 11.409 C 16.286 11.270,16.267 11.203,16.267 11.003 C 16.267 10.718,16.385 10.506,16.627 10.355 C 16.777 10.262,16.802 10.260,17.890 10.247 L 19.000 10.234 19.000 9.499 L 19.000 8.765 17.890 8.752 C 16.633 8.738,16.612 8.734,16.384 8.409 C 16.286 8.270,16.267 8.203,16.267 8.003 C 16.267 7.718,16.385 7.506,16.627 7.355 C 16.777 7.262,16.802 7.260,17.896 7.247 L 19.012 7.234 18.986 6.587 C 18.932 5.262,18.684 4.667,18.046 4.326 C 17.739 4.163,17.417 4.091,16.759 4.041 C 16.118 3.992,7.793 3.995,7.153 4.044 M12.386 9.443 C 12.687 9.589,13.436 10.504,13.745 11.103 C 13.977 11.553,14.027 11.804,13.968 12.215 C 13.796 13.417,12.654 14.228,11.542 13.939 C 10.748 13.732,10.152 13.051,10.032 12.215 C 9.973 11.804,10.023 11.553,10.255 11.103 C 10.561 10.509,11.309 9.593,11.610 9.444 C 11.835 9.333,12.157 9.332,12.386 9.443 " fill="#1C274C" stroke="none" fill-rule="evenodd"></path></svg>