<svg width="24" height="24" viewBox="0 0 24 24" fill="none" xmlns="http://www.w3.org/2000/svg"><path d="M5.860 1.282 C 4.296 1.338,3.458 1.536,2.760 2.014 C 2.006 2.531,1.574 3.312,1.385 4.501 C 1.256 5.311,1.242 6.319,1.242 14.360 C 1.242 22.073,1.245 22.386,1.316 22.540 C 1.405 22.734,1.532 22.856,1.729 22.938 C 2.078 23.084,2.480 22.931,2.674 22.580 C 2.735 22.470,2.742 21.762,2.762 13.860 C 2.782 6.102,2.791 5.217,2.851 4.824 C 3.028 3.666,3.371 3.221,4.286 2.958 C 4.701 2.839,6.812 2.765,9.840 2.763 C 12.400 2.761,12.457 2.765,12.910 2.996 C 13.037 3.061,13.284 3.224,13.460 3.359 C 13.862 3.667,14.483 3.975,14.900 4.073 L 15.220 4.148 15.231 5.069 L 15.241 5.990 13.631 6.013 C 12.487 6.029,11.927 6.053,11.700 6.094 C 10.706 6.274,10.283 6.696,10.090 7.700 C 9.996 8.191,9.966 16.521,10.057 16.961 C 10.192 17.613,10.547 18.104,11.287 18.661 C 12.383 19.487,13.766 20.057,14.986 20.184 L 15.232 20.210 15.247 20.835 C 15.264 21.499,15.290 21.605,15.487 21.788 C 15.609 21.903,15.845 22.000,16.000 22.000 C 16.155 22.000,16.391 21.903,16.513 21.788 C 16.710 21.605,16.736 21.499,16.753 20.835 L 16.768 20.210 17.014 20.184 C 17.917 20.090,19.061 19.698,19.930 19.187 C 20.830 18.657,21.485 18.064,21.737 17.552 C 21.978 17.063,21.999 16.883,21.999 15.230 L 22.000 13.760 20.930 13.759 C 19.975 13.758,19.843 13.750,19.700 13.684 C 19.084 13.400,19.101 12.564,19.729 12.302 C 19.850 12.251,20.071 12.240,20.939 12.240 L 22.000 12.240 22.000 11.500 L 22.000 10.760 20.439 10.760 C 19.120 10.760,18.854 10.750,18.729 10.698 C 18.089 10.431,18.089 9.569,18.729 9.302 C 18.854 9.250,19.121 9.240,20.444 9.240 L 22.011 9.240 21.982 8.631 C 21.966 8.296,21.930 7.877,21.901 7.701 C 21.739 6.719,21.297 6.275,20.300 6.094 C 20.073 6.053,19.513 6.029,18.369 6.013 L 16.759 5.990 16.769 5.029 L 16.780 4.067 17.040 3.980 C 17.397 3.859,17.732 3.684,18.040 3.457 C 18.412 3.183,19.105 2.485,19.178 2.310 C 19.336 1.932,19.186 1.521,18.821 1.331 C 18.663 1.248,18.331 1.252,18.165 1.337 C 18.092 1.375,17.820 1.610,17.559 1.861 C 17.299 2.111,17.015 2.352,16.928 2.396 L 16.770 2.477 16.753 2.126 C 16.733 1.714,16.663 1.562,16.409 1.384 C 16.269 1.285,16.204 1.267,16.000 1.267 C 15.796 1.267,15.731 1.285,15.591 1.384 C 15.324 1.571,15.264 1.713,15.246 2.193 L 15.231 2.606 15.131 2.581 C 14.925 2.530,14.657 2.377,14.304 2.111 C 13.905 1.811,13.276 1.485,12.900 1.385 C 12.768 1.350,12.489 1.303,12.280 1.281 C 11.852 1.236,7.116 1.237,5.860 1.282 M16.387 10.446 C 16.702 10.593,17.496 11.579,17.793 12.191 C 17.941 12.498,17.975 12.613,17.991 12.852 C 18.063 13.971,17.109 15.000,16.000 15.000 C 14.891 15.000,13.937 13.971,14.009 12.852 C 14.041 12.350,14.444 11.649,15.168 10.834 C 15.611 10.336,15.930 10.234,16.387 10.446 " fill="#1C274C" stroke="none" fill-rule="evenodd"></path></svg>