<svg width="24" height="24" viewBox="0 0 24 24" fill="none" xmlns="http://www.w3.org/2000/svg"><path d="M11.997 2.055 C 11.643 2.150,11.429 2.321,10.516 3.235 C 9.537 4.216,9.424 4.370,9.363 4.819 C 9.305 5.250,9.417 5.628,9.713 6.000 C 9.792 6.099,10.253 6.581,10.737 7.071 L 11.617 7.963 9.791 9.789 L 7.964 11.616 7.032 10.697 C 5.775 9.459,5.579 9.335,4.936 9.368 C 4.407 9.396,4.278 9.479,3.324 10.418 C 2.231 11.493,2.059 11.729,2.013 12.220 C 1.981 12.562,2.057 12.871,2.244 13.161 C 2.334 13.300,2.809 13.819,3.337 14.354 L 4.270 15.300 3.723 15.871 C 3.045 16.578,2.900 16.802,2.900 17.138 C 2.900 17.456,3.001 17.625,3.535 18.209 C 4.151 18.881,5.954 20.647,6.239 20.856 C 6.669 21.173,6.978 21.191,7.387 20.924 C 7.515 20.840,7.863 20.537,8.160 20.250 L 8.700 19.729 9.646 20.663 C 10.181 21.191,10.700 21.666,10.839 21.756 C 11.129 21.943,11.438 22.019,11.780 21.987 C 12.270 21.941,12.505 21.770,13.583 20.675 C 14.199 20.049,14.412 19.807,14.496 19.634 C 14.697 19.219,14.699 18.713,14.501 18.322 C 14.377 18.077,14.167 17.843,13.183 16.850 L 12.380 16.040 14.209 14.211 L 16.037 12.383 16.929 13.263 C 17.878 14.200,18.083 14.381,18.346 14.514 C 18.715 14.700,19.280 14.690,19.655 14.491 C 19.903 14.359,21.443 12.860,21.700 12.500 C 22.078 11.971,22.098 11.368,21.756 10.838 C 21.666 10.700,21.188 10.178,20.663 9.646 L 19.730 8.700 20.277 8.129 C 20.955 7.422,21.100 7.198,21.100 6.862 C 21.100 6.539,20.997 6.370,20.424 5.750 C 19.815 5.090,18.062 3.369,17.790 3.164 C 17.348 2.830,17.019 2.807,16.611 3.079 C 16.484 3.164,16.137 3.467,15.840 3.752 L 15.300 4.271 14.360 3.344 C 13.843 2.835,13.308 2.344,13.171 2.252 C 12.808 2.012,12.407 1.944,11.997 2.055 " fill="#1C274C" stroke="none" fill-rule="evenodd"></path></svg>