<svg width="24" height="24" viewBox="0 0 24 24" fill="none" xmlns="http://www.w3.org/2000/svg"><path d="M17.160 2.042 C 16.529 2.173,12.925 3.134,12.746 3.219 C 12.350 3.406,12.057 3.819,12.012 4.253 C 11.989 4.482,12.089 4.951,12.339 5.780 C 12.515 6.363,12.677 6.622,12.989 6.817 C 13.415 7.084,13.687 7.094,14.600 6.877 C 14.889 6.808,15.133 6.759,15.141 6.768 C 15.165 6.792,16.800 12.675,16.800 12.737 C 16.800 12.769,16.695 12.817,16.530 12.858 C 15.947 13.005,15.419 13.199,15.270 13.322 C 14.905 13.623,14.726 14.079,14.798 14.526 C 14.857 14.893,15.184 16.025,15.302 16.266 C 15.425 16.519,15.657 16.735,15.955 16.873 C 16.307 17.037,16.645 17.018,17.556 16.785 C 20.027 16.152,21.067 15.869,21.257 15.780 C 21.375 15.724,21.547 15.596,21.639 15.496 C 22.038 15.064,22.072 14.693,21.805 13.724 C 21.515 12.674,21.412 12.468,21.052 12.212 C 20.640 11.920,20.328 11.902,19.406 12.122 C 19.114 12.191,18.867 12.241,18.858 12.232 C 18.834 12.207,17.200 6.328,17.200 6.265 C 17.200 6.230,17.301 6.184,17.470 6.142 C 18.053 5.995,18.581 5.801,18.730 5.678 C 18.945 5.501,19.110 5.243,19.181 4.973 C 19.232 4.779,19.235 4.693,19.196 4.460 C 19.131 4.064,18.818 2.979,18.698 2.734 C 18.444 2.211,17.780 1.912,17.160 2.042 M4.735 7.035 C 4.487 7.100,4.216 7.260,4.013 7.463 C 3.760 7.715,3.682 7.944,3.557 8.800 C 3.433 9.652,3.435 9.966,3.565 10.245 C 3.845 10.842,4.213 11.025,5.410 11.167 L 5.840 11.217 5.819 11.339 C 5.808 11.405,5.609 12.819,5.377 14.479 C 5.145 16.139,4.951 17.502,4.946 17.507 C 4.941 17.512,4.704 17.490,4.418 17.459 C 3.660 17.374,3.347 17.383,3.073 17.495 C 2.656 17.667,2.371 17.963,2.256 18.345 C 2.178 18.605,2.000 19.843,2.000 20.130 C 2.000 20.738,2.450 21.271,3.090 21.419 C 3.583 21.534,7.671 22.008,8.007 21.990 C 8.614 21.957,9.120 21.582,9.279 21.045 C 9.383 20.697,9.527 19.705,9.532 19.300 C 9.539 18.809,9.348 18.446,8.942 18.176 C 8.707 18.020,8.335 17.928,7.589 17.839 L 7.159 17.788 7.180 17.664 C 7.192 17.596,7.391 16.181,7.623 14.521 C 7.855 12.861,8.048 11.499,8.052 11.495 C 8.057 11.491,8.267 11.513,8.520 11.543 C 9.237 11.628,9.655 11.617,9.927 11.505 C 10.344 11.333,10.629 11.037,10.744 10.655 C 10.822 10.395,11.000 9.157,11.000 8.872 C 11.000 8.398,10.699 7.928,10.252 7.705 C 9.993 7.575,9.770 7.540,7.440 7.259 C 5.518 7.027,4.949 6.980,4.735 7.035 " fill="#1C274C" stroke="none" fill-rule="evenodd"></path></svg>