<svg width="24" height="24" viewBox="0 0 24 24" fill="none" xmlns="http://www.w3.org/2000/svg"><path d="M17.700 1.835 C 17.510 1.923,17.424 2.012,17.342 2.210 C 17.260 2.406,17.265 2.624,17.356 2.820 C 17.406 2.927,17.978 3.524,19.086 4.625 C 20.629 6.159,20.753 6.272,20.929 6.315 C 21.498 6.453,21.972 5.976,21.834 5.407 C 21.792 5.234,21.670 5.100,20.145 3.566 C 19.044 2.458,18.447 1.886,18.340 1.836 C 18.137 1.742,17.905 1.741,17.700 1.835 M13.148 2.055 C 13.042 2.084,12.826 2.196,12.668 2.303 C 12.296 2.554,10.519 4.325,10.288 4.674 C 9.896 5.268,9.906 5.814,10.319 6.421 C 10.394 6.530,10.838 7.008,11.306 7.481 L 12.158 8.343 10.248 10.252 L 8.339 12.160 7.620 11.437 C 6.525 10.337,6.148 10.062,5.669 10.012 C 5.328 9.977,5.037 10.060,4.689 10.291 C 4.299 10.549,2.534 12.302,2.288 12.675 C 1.840 13.354,1.915 13.965,2.535 14.683 C 2.956 15.171,9.363 21.537,9.579 21.682 C 10.192 22.094,10.736 22.103,11.324 21.711 C 11.626 21.509,13.048 20.125,13.471 19.621 C 13.843 19.178,13.967 18.921,13.990 18.542 C 14.012 18.192,13.918 17.915,13.652 17.551 C 13.551 17.413,13.017 16.845,12.465 16.289 L 11.462 15.278 13.370 13.370 L 15.278 11.462 16.329 12.504 C 16.907 13.077,17.470 13.607,17.579 13.681 C 18.188 14.094,18.736 14.104,19.324 13.711 C 19.626 13.509,21.048 12.125,21.471 11.621 C 21.843 11.178,21.967 10.921,21.990 10.542 C 22.012 10.193,21.918 9.916,21.653 9.551 C 21.434 9.249,15.028 2.818,14.600 2.471 C 14.435 2.337,14.203 2.182,14.084 2.128 C 13.823 2.008,13.425 1.977,13.148 2.055 M2.180 17.355 C 1.990 17.443,1.904 17.532,1.822 17.730 C 1.740 17.926,1.745 18.144,1.837 18.340 C 1.917 18.512,5.095 21.707,5.280 21.802 C 5.335 21.830,5.481 21.853,5.604 21.853 C 6.101 21.853,6.434 21.421,6.315 20.929 C 6.272 20.753,6.159 20.629,4.625 19.086 C 3.524 17.978,2.927 17.406,2.820 17.356 C 2.617 17.262,2.385 17.261,2.180 17.355 " fill="#1C274C" stroke="none" fill-rule="evenodd"></path></svg>