<svg width="24" height="24" viewBox="0 0 24 24" fill="none" xmlns="http://www.w3.org/2000/svg"><path d="M3.720 7.039 C 2.951 7.137,2.321 7.671,2.093 8.420 C 2.025 8.644,2.020 8.878,2.020 11.980 C 2.020 15.099,2.025 15.316,2.095 15.571 C 2.267 16.196,2.779 16.711,3.420 16.907 C 3.632 16.971,3.815 16.980,4.980 16.980 C 6.146 16.980,6.332 16.971,6.571 16.905 C 7.223 16.725,7.788 16.137,7.921 15.500 C 7.943 15.390,7.973 14.900,7.987 14.410 L 8.012 13.520 12.000 13.520 L 15.989 13.520 16.013 14.410 C 16.026 14.900,16.056 15.390,16.079 15.500 C 16.213 16.139,16.777 16.726,17.429 16.905 C 17.668 16.971,17.854 16.980,19.020 16.980 C 20.185 16.980,20.368 16.971,20.580 16.907 C 21.221 16.711,21.733 16.196,21.905 15.571 C 21.975 15.316,21.980 15.099,21.980 11.980 C 21.980 8.878,21.975 8.644,21.907 8.420 C 21.718 7.801,21.271 7.341,20.635 7.113 C 20.388 7.024,20.338 7.021,19.000 7.021 C 17.662 7.021,17.612 7.024,17.365 7.113 C 16.702 7.351,16.209 7.883,16.079 8.500 C 16.055 8.610,16.026 9.110,16.013 9.610 L 15.989 10.520 12.000 10.520 L 8.011 10.520 7.987 9.610 C 7.973 9.110,7.944 8.610,7.921 8.500 C 7.792 7.883,7.292 7.344,6.635 7.116 C 6.397 7.032,6.302 7.026,5.180 7.016 C 4.520 7.011,3.863 7.021,3.720 7.039 " fill="#1C274C" stroke="none" fill-rule="evenodd"></path></svg>