<svg width="24" height="24" viewBox="0 0 24 24" fill="none" xmlns="http://www.w3.org/2000/svg"><path d="M3.497 2.295 C 3.096 2.482,2.855 2.777,2.742 3.221 C 2.685 3.443,2.232 7.045,2.175 7.722 C 2.118 8.409,2.513 9.045,3.108 9.224 C 3.417 9.317,4.762 9.491,4.978 9.465 C 5.393 9.416,5.832 9.090,6.004 8.701 C 6.046 8.605,6.115 8.314,6.157 8.054 C 6.199 7.793,6.248 7.489,6.267 7.377 L 6.300 7.174 9.327 7.597 C 10.992 7.830,12.364 8.030,12.376 8.043 C 12.389 8.055,12.370 8.334,12.336 8.663 C 12.259 9.387,12.277 9.616,12.439 9.945 C 12.589 10.248,12.846 10.486,13.144 10.598 C 13.381 10.687,14.616 10.880,14.948 10.880 C 15.367 10.880,15.838 10.603,16.059 10.225 C 16.210 9.968,16.257 9.692,16.521 7.520 C 16.802 5.207,16.813 4.892,16.630 4.536 C 16.439 4.166,16.179 3.938,15.833 3.838 C 15.597 3.769,14.348 3.600,14.076 3.600 C 13.583 3.600,13.102 3.943,12.922 4.425 C 12.877 4.544,12.800 4.920,12.751 5.261 C 12.680 5.749,12.649 5.880,12.601 5.880 C 12.464 5.879,6.594 5.047,6.573 5.026 C 6.560 5.013,6.571 4.809,6.597 4.571 C 6.623 4.334,6.645 3.972,6.646 3.766 C 6.647 3.427,6.636 3.369,6.522 3.139 C 6.349 2.787,6.071 2.543,5.725 2.441 C 5.389 2.341,4.371 2.200,3.990 2.200 C 3.770 2.201,3.651 2.223,3.497 2.295 M19.060 11.505 C 18.426 11.670,17.647 11.912,17.449 12.006 C 17.152 12.147,16.932 12.399,16.799 12.750 C 16.685 13.050,16.709 13.467,16.879 14.157 C 16.947 14.430,16.988 14.666,16.971 14.680 C 16.944 14.703,11.158 16.364,11.067 16.376 C 11.048 16.378,10.961 16.119,10.873 15.800 C 10.785 15.482,10.669 15.128,10.615 15.014 C 10.497 14.763,10.264 14.545,9.971 14.411 C 9.778 14.322,9.713 14.313,9.426 14.330 C 9.069 14.352,7.993 14.645,7.615 14.824 C 7.175 15.032,6.874 15.527,6.875 16.039 C 6.877 16.377,6.911 16.534,7.480 18.797 C 7.989 20.822,8.080 21.086,8.349 21.323 C 8.607 21.549,8.900 21.660,9.220 21.654 C 9.496 21.648,10.406 21.413,10.966 21.202 C 11.280 21.084,11.530 20.852,11.689 20.529 C 11.807 20.287,11.820 20.229,11.817 19.921 C 11.814 19.686,11.773 19.407,11.683 19.027 C 11.612 18.722,11.559 18.468,11.567 18.463 C 11.624 18.417,17.500 16.765,17.520 16.789 C 17.535 16.806,17.603 17.039,17.672 17.306 C 17.741 17.573,17.837 17.896,17.885 18.024 C 18.057 18.483,18.559 18.840,19.032 18.840 C 19.233 18.840,20.041 18.639,20.613 18.447 C 21.056 18.298,21.256 18.159,21.443 17.870 C 21.632 17.579,21.697 17.310,21.669 16.944 C 21.642 16.597,20.634 12.547,20.502 12.255 C 20.294 11.797,19.893 11.519,19.408 11.497 C 19.261 11.490,19.104 11.494,19.060 11.505 " fill="#1C274C" stroke="none" fill-rule="evenodd"></path></svg>