<svg width="24" height="24" viewBox="0 0 24 24" fill="none" xmlns="http://www.w3.org/2000/svg"><path d="M6.169 7.040 C 5.757 7.127,5.326 7.487,5.127 7.911 L 5.020 8.140 5.020 12.000 L 5.020 15.860 5.127 16.089 C 5.277 16.408,5.558 16.694,5.875 16.850 L 6.138 16.980 7.000 16.980 L 7.862 16.980 8.125 16.850 C 8.442 16.694,8.723 16.408,8.873 16.089 L 8.980 15.860 8.993 14.310 L 9.005 12.760 12.000 12.760 L 14.995 12.760 15.007 14.311 L 15.020 15.862 15.150 16.125 C 15.306 16.442,15.592 16.723,15.911 16.873 C 16.137 16.979,16.151 16.980,17.000 16.980 C 17.849 16.980,17.863 16.979,18.089 16.873 C 18.408 16.723,18.694 16.442,18.850 16.125 L 18.980 15.862 18.980 12.000 L 18.980 8.138 18.850 7.875 C 18.694 7.558,18.408 7.277,18.089 7.127 C 17.863 7.021,17.849 7.020,17.000 7.020 C 16.151 7.020,16.137 7.021,15.911 7.127 C 15.592 7.277,15.306 7.558,15.150 7.875 L 15.020 8.138 15.007 9.689 L 14.995 11.240 12.000 11.240 L 9.005 11.240 8.993 9.690 L 8.980 8.140 8.873 7.911 C 8.723 7.592,8.442 7.306,8.125 7.150 L 7.862 7.020 7.101 7.012 C 6.682 7.008,6.263 7.021,6.169 7.040 M3.236 10.156 C 2.522 10.435,2.000 11.214,2.000 12.000 C 2.000 12.735,2.468 13.480,3.126 13.794 C 3.562 14.001,3.520 14.191,3.520 12.000 C 3.520 10.490,3.509 10.080,3.470 10.082 C 3.442 10.083,3.337 10.116,3.236 10.156 M20.520 12.000 L 20.520 13.925 20.610 13.899 C 21.173 13.737,21.698 13.210,21.904 12.600 C 22.010 12.287,22.002 11.664,21.888 11.350 C 21.678 10.773,21.150 10.256,20.610 10.101 L 20.520 10.075 20.520 12.000 " fill="#1C274C" stroke="none" fill-rule="evenodd"></path></svg>