<svg width="24" height="24" viewBox="0 0 24 24" fill="none" xmlns="http://www.w3.org/2000/svg"><path d="M11.100 2.043 C 9.514 2.192,7.923 2.737,6.622 3.577 C 6.244 3.821,5.661 4.253,5.620 4.319 C 5.607 4.341,5.664 4.416,5.748 4.486 C 6.087 4.769,6.689 5.418,7.013 5.850 C 7.922 7.059,8.381 8.109,8.577 9.426 C 8.727 10.432,8.876 10.874,9.268 11.477 C 9.604 11.993,10.056 12.404,10.587 12.674 C 10.860 12.812,11.414 12.955,11.789 12.983 C 12.825 13.061,13.590 12.408,13.503 11.521 C 13.488 11.375,13.451 11.157,13.419 11.037 C 13.254 10.419,13.463 9.826,14.060 9.219 C 14.397 8.876,14.686 8.668,15.423 8.238 C 16.410 7.661,16.997 7.191,17.285 6.746 C 17.639 6.202,17.959 5.113,17.959 4.460 C 17.959 4.262,17.949 4.062,17.936 4.015 C 17.923 3.964,17.743 3.819,17.487 3.649 C 16.260 2.840,14.940 2.336,13.469 2.117 C 12.848 2.025,11.681 1.988,11.100 2.043 M19.319 5.652 C 19.148 6.359,18.865 7.061,18.541 7.580 C 18.335 7.910,17.759 8.485,17.282 8.837 C 17.096 8.974,16.646 9.263,16.282 9.479 C 15.455 9.969,15.163 10.184,15.000 10.420 L 14.872 10.605 14.938 10.938 C 15.022 11.361,15.023 12.024,14.940 12.340 C 14.638 13.488,13.611 14.333,12.343 14.477 C 11.620 14.560,10.703 14.391,9.972 14.042 C 9.430 13.783,9.106 13.551,8.659 13.102 C 7.790 12.230,7.241 11.021,7.079 9.622 C 7.027 9.177,6.897 8.690,6.716 8.264 C 6.342 7.385,5.487 6.225,4.789 5.649 L 4.485 5.398 4.218 5.729 C 1.850 8.662,1.342 12.716,2.913 16.157 C 3.643 17.756,4.851 19.202,6.300 20.209 C 7.767 21.228,9.417 21.813,11.242 21.960 C 11.533 21.984,11.777 21.996,11.785 21.988 C 11.793 21.980,11.773 21.885,11.741 21.777 C 11.276 20.208,11.503 18.458,12.336 17.206 C 12.559 16.870,13.147 16.298,13.508 16.065 C 14.592 15.366,15.856 15.010,17.580 14.919 C 18.467 14.872,18.969 14.780,19.345 14.595 C 19.864 14.339,20.123 13.975,20.381 13.140 C 20.559 12.564,20.649 12.397,20.918 12.146 C 21.158 11.921,21.388 11.810,21.730 11.755 C 21.866 11.733,21.983 11.710,21.990 11.704 C 22.015 11.678,21.910 10.673,21.839 10.260 C 21.541 8.533,20.738 6.833,19.587 5.492 L 19.409 5.283 19.319 5.652 M21.781 13.709 C 21.328 15.168,20.482 15.951,19.000 16.283 C 18.804 16.327,18.347 16.377,17.920 16.401 C 17.042 16.450,16.444 16.528,15.907 16.664 C 14.611 16.991,13.777 17.569,13.376 18.418 C 13.088 19.030,13.021 19.350,13.025 20.120 C 13.028 20.696,13.041 20.828,13.130 21.160 C 13.186 21.369,13.268 21.623,13.312 21.725 L 13.393 21.910 13.706 21.855 C 17.404 21.214,20.420 18.557,21.557 14.940 C 21.676 14.560,21.933 13.400,21.904 13.371 C 21.897 13.363,21.841 13.515,21.781 13.709 " fill="#1C274C" stroke="none" fill-rule="evenodd"></path></svg>