<svg width="24" height="24" viewBox="0 0 24 24" fill="none" xmlns="http://www.w3.org/2000/svg"><path d="M6.560 2.040 C 6.263 2.058,5.872 2.093,5.691 2.118 C 4.226 2.322,3.461 2.981,3.184 4.280 C 3.027 5.013,3.026 5.050,3.012 13.246 L 2.997 21.232 2.386 21.246 C 1.795 21.260,1.768 21.264,1.606 21.372 C 1.311 21.566,1.192 21.873,1.281 22.204 C 1.340 22.422,1.569 22.657,1.781 22.715 C 1.894 22.747,4.149 22.760,9.651 22.760 C 18.037 22.760,17.509 22.774,17.755 22.548 C 17.881 22.432,17.998 22.173,17.999 22.009 C 18.000 21.847,17.905 21.612,17.788 21.487 C 17.598 21.283,17.508 21.263,16.730 21.247 L 16.000 21.232 16.000 19.496 L 16.000 17.760 16.864 17.760 C 17.829 17.760,17.919 17.779,18.108 18.027 C 18.193 18.138,18.217 18.227,18.245 18.531 C 18.330 19.464,18.756 20.137,19.490 20.498 C 19.792 20.647,20.225 20.759,20.500 20.759 C 20.777 20.759,21.209 20.647,21.520 20.494 C 21.925 20.295,22.295 19.925,22.494 19.520 C 22.776 18.945,22.763 19.291,22.750 12.768 L 22.738 6.900 22.649 6.568 C 22.476 5.923,22.186 5.376,21.776 4.923 C 21.602 4.731,20.194 3.568,19.911 3.383 C 19.627 3.198,19.271 3.225,19.014 3.451 C 18.705 3.722,18.669 4.187,18.933 4.475 C 18.981 4.528,19.372 4.854,19.803 5.201 C 20.730 5.947,20.910 6.151,21.119 6.700 C 21.192 6.891,21.215 7.048,21.230 7.465 L 21.250 7.991 20.695 8.007 C 20.192 8.021,20.117 8.033,19.900 8.133 C 19.586 8.278,19.276 8.586,19.133 8.896 L 19.020 9.140 19.008 10.617 C 18.997 12.015,19.001 12.108,19.079 12.367 C 19.179 12.694,19.415 13.004,19.699 13.180 C 19.806 13.246,20.192 13.401,20.557 13.524 L 21.220 13.749 21.232 16.164 C 21.240 17.758,21.229 18.629,21.202 18.725 C 21.078 19.152,20.569 19.369,20.168 19.164 C 19.899 19.027,19.761 18.785,19.759 18.451 C 19.756 17.624,19.261 16.838,18.516 16.481 C 18.095 16.279,17.835 16.243,16.792 16.241 L 16.004 16.240 15.988 10.750 C 15.972 5.150,15.969 5.032,15.816 4.284 C 15.593 3.199,14.962 2.511,13.940 2.242 C 13.227 2.054,12.840 2.033,9.880 2.020 C 8.351 2.013,6.857 2.022,6.560 2.040 M9.693 9.283 C 9.891 9.338,10.143 9.567,10.202 9.747 C 10.302 10.049,10.246 10.212,9.770 11.003 L 9.327 11.740 10.293 11.760 C 10.943 11.773,11.288 11.796,11.345 11.828 C 11.621 11.987,11.798 12.368,11.727 12.650 C 11.677 12.845,10.146 15.409,9.992 15.554 C 9.864 15.675,9.674 15.753,9.500 15.756 C 9.209 15.761,8.829 15.458,8.777 15.178 C 8.723 14.892,8.779 14.746,9.232 13.993 L 9.673 13.260 8.707 13.240 C 8.057 13.227,7.712 13.204,7.655 13.172 C 7.395 13.022,7.212 12.650,7.263 12.376 C 7.296 12.203,8.796 9.675,8.978 9.488 C 9.097 9.365,9.340 9.246,9.480 9.242 C 9.513 9.241,9.609 9.260,9.693 9.283 " fill="#1C274C" stroke="none" fill-rule="evenodd"></path></svg>