<svg width="24" height="24" viewBox="0 0 24 24" fill="none" xmlns="http://www.w3.org/2000/svg"><path d="M14.940 2.025 C 13.807 2.143,12.592 2.413,9.660 3.200 C 6.443 4.062,5.379 4.399,4.420 4.862 C 3.308 5.398,2.611 6.071,2.279 6.931 C 2.052 7.517,2.021 7.710,2.023 8.540 C 2.027 9.776,2.182 10.541,3.226 14.440 C 4.412 18.874,4.876 20.051,5.795 20.962 C 6.482 21.642,7.212 21.943,8.280 21.988 C 9.429 22.035,10.615 21.802,14.440 20.775 C 18.403 19.712,19.577 19.288,20.547 18.567 C 21.714 17.700,22.164 16.436,21.944 14.640 C 21.819 13.618,21.581 12.575,20.839 9.800 C 19.738 5.679,19.319 4.497,18.606 3.504 C 18.088 2.782,17.329 2.281,16.474 2.097 C 16.186 2.036,15.257 1.991,14.940 2.025 M14.663 8.402 C 15.238 8.680,15.649 9.624,15.519 10.370 C 15.365 11.252,14.624 11.519,14.029 10.907 C 13.452 10.314,13.304 9.231,13.716 8.622 C 13.912 8.333,14.323 8.237,14.663 8.402 M8.852 9.946 C 9.207 10.129,9.461 10.451,9.633 10.936 C 9.713 11.163,9.734 11.301,9.737 11.621 C 9.740 11.998,9.732 12.038,9.607 12.292 C 9.455 12.600,9.269 12.753,9.003 12.789 C 8.555 12.849,8.024 12.385,7.798 11.737 C 7.554 11.036,7.725 10.187,8.157 9.959 C 8.338 9.863,8.679 9.857,8.852 9.946 M17.069 13.267 C 17.152 13.334,17.254 13.447,17.296 13.518 C 17.390 13.678,17.396 14.014,17.308 14.185 C 17.206 14.381,16.585 14.943,16.153 15.229 L 16.007 15.326 16.149 15.625 C 16.551 16.471,16.187 17.398,15.326 17.723 C 15.142 17.792,15.036 17.805,14.757 17.792 C 14.158 17.764,13.743 17.484,13.457 16.913 C 13.377 16.752,13.305 16.614,13.298 16.606 C 13.291 16.598,13.010 16.647,12.673 16.714 C 11.327 16.982,10.153 16.977,8.897 16.698 C 8.532 16.617,8.324 16.458,8.217 16.178 C 8.089 15.841,8.244 15.441,8.567 15.277 C 8.757 15.180,8.985 15.185,9.540 15.298 C 9.973 15.387,11.120 15.423,11.623 15.364 C 13.310 15.165,14.767 14.526,15.973 13.454 C 16.296 13.167,16.413 13.114,16.689 13.131 C 16.873 13.142,16.949 13.169,17.069 13.267 " fill="#1C274C" stroke="none" fill-rule="evenodd"></path></svg>