<svg width="24" height="24" viewBox="0 0 24 24" fill="none" xmlns="http://www.w3.org/2000/svg"><path d="M11.120 2.039 C 9.316 2.220,7.707 2.807,6.280 3.806 C 2.738 6.286,1.178 10.759,2.422 14.865 C 2.918 16.499,3.728 17.850,4.939 19.061 C 5.928 20.050,7.038 20.788,8.272 21.278 C 11.634 22.610,15.313 22.080,18.200 19.845 C 18.637 19.507,19.507 18.637,19.845 18.200 C 21.255 16.379,22.000 14.234,22.000 12.000 C 22.000 7.432,18.842 3.387,14.430 2.303 C 13.446 2.062,12.028 1.948,11.120 2.039 M14.663 8.402 C 15.238 8.680,15.649 9.624,15.519 10.370 C 15.365 11.252,14.624 11.519,14.029 10.907 C 13.452 10.314,13.304 9.231,13.716 8.622 C 13.912 8.333,14.323 8.237,14.663 8.402 M8.852 9.946 C 9.207 10.129,9.461 10.451,9.633 10.936 C 9.713 11.163,9.734 11.301,9.737 11.621 C 9.740 11.998,9.732 12.038,9.607 12.292 C 9.455 12.600,9.269 12.753,9.003 12.789 C 8.555 12.849,8.024 12.385,7.798 11.737 C 7.554 11.036,7.725 10.187,8.157 9.959 C 8.338 9.863,8.679 9.857,8.852 9.946 M17.069 13.267 C 17.152 13.334,17.254 13.447,17.296 13.518 C 17.390 13.678,17.396 14.014,17.308 14.185 C 17.206 14.381,16.585 14.943,16.153 15.229 L 16.007 15.326 16.149 15.625 C 16.551 16.471,16.187 17.398,15.326 17.723 C 15.142 17.792,15.036 17.805,14.757 17.792 C 14.158 17.764,13.743 17.484,13.457 16.913 C 13.377 16.752,13.305 16.614,13.298 16.606 C 13.291 16.598,13.010 16.647,12.673 16.714 C 11.327 16.982,10.153 16.977,8.897 16.698 C 8.532 16.617,8.324 16.458,8.217 16.178 C 8.089 15.841,8.244 15.441,8.567 15.277 C 8.757 15.180,8.985 15.185,9.540 15.298 C 9.973 15.387,11.120 15.423,11.623 15.364 C 13.307 15.166,14.769 14.524,15.973 13.454 C 16.296 13.167,16.413 13.114,16.689 13.131 C 16.873 13.142,16.949 13.169,17.069 13.267 " fill="#1C274C" stroke="none" fill-rule="evenodd"></path></svg>