<svg width="24" height="24" viewBox="0 0 24 24" fill="none" xmlns="http://www.w3.org/2000/svg"><path d="M10.852 7.044 C 7.949 7.241,5.360 8.312,3.504 10.083 C 2.658 10.892,2.318 11.513,2.094 12.660 C 1.994 13.171,1.993 14.317,2.093 14.680 C 2.373 15.700,3.113 16.529,4.035 16.855 C 4.349 16.966,4.424 16.977,4.880 16.977 C 5.378 16.976,5.383 16.975,6.285 16.711 C 6.783 16.566,7.278 16.402,7.385 16.348 C 8.322 15.872,8.894 14.954,8.998 13.761 C 9.042 13.258,9.153 13.015,9.485 12.699 C 9.909 12.294,10.517 12.078,11.464 11.994 C 12.769 11.878,13.938 12.148,14.515 12.699 C 14.847 13.015,14.958 13.258,15.002 13.761 C 15.106 14.957,15.676 15.871,16.615 16.348 C 16.722 16.402,17.217 16.566,17.715 16.711 C 18.617 16.975,18.622 16.976,19.120 16.977 C 19.576 16.977,19.651 16.966,19.965 16.855 C 21.006 16.487,21.782 15.516,21.965 14.352 C 22.025 13.969,21.984 13.054,21.884 12.559 C 21.669 11.486,21.321 10.868,20.488 10.078 C 18.135 7.843,14.758 6.780,10.852 7.044 " fill="#1C274C" stroke="none" fill-rule="evenodd"></path></svg>