<svg width="24" height="24" viewBox="0 0 24 24" fill="none" xmlns="http://www.w3.org/2000/svg"><path d="M11.060 7.027 C 10.048 7.080,8.850 7.261,7.940 7.499 C 5.889 8.035,4.004 9.098,2.780 10.409 C 2.404 10.811,2.231 11.064,2.113 11.380 C 2.030 11.606,2.023 11.696,2.009 12.920 C 1.998 13.829,2.007 14.286,2.040 14.440 C 2.246 15.390,3.141 16.056,4.120 15.987 C 4.475 15.962,6.507 15.383,6.920 15.189 C 7.090 15.109,7.263 14.982,7.420 14.823 C 7.855 14.383,7.999 13.990,8.001 13.242 C 8.002 12.678,8.051 12.547,8.376 12.250 C 8.988 11.692,10.228 11.401,12.000 11.401 C 13.772 11.401,15.012 11.692,15.624 12.250 C 15.928 12.529,15.998 12.690,15.999 13.122 C 16.001 13.972,16.406 14.638,17.131 14.982 C 17.401 15.110,17.529 15.138,18.623 15.301 C 19.281 15.399,19.905 15.479,20.008 15.479 C 20.917 15.482,21.775 14.799,21.956 13.928 C 21.983 13.799,22.000 13.210,22.000 12.424 C 22.000 11.277,21.991 11.099,21.922 10.830 C 21.782 10.281,21.586 10.012,20.980 9.540 C 19.598 8.461,17.751 7.700,15.560 7.303 C 14.235 7.064,12.463 6.955,11.060 7.027 " fill="#1C274C" stroke="none" fill-rule="evenodd"></path></svg>