<svg width="24" height="24" viewBox="0 0 24 24" fill="none" xmlns="http://www.w3.org/2000/svg"><path d="M8.440 2.043 C 5.815 2.137,4.484 2.504,3.549 3.393 C 2.549 4.344,2.163 5.596,2.041 8.280 C 1.989 9.450,1.989 14.605,2.041 15.740 C 2.160 18.285,2.507 19.501,3.379 20.433 C 4.323 21.444,5.571 21.833,8.260 21.959 C 9.399 22.012,14.601 22.012,15.740 21.959 C 18.285 21.840,19.501 21.493,20.433 20.621 C 21.360 19.755,21.742 18.682,21.927 16.420 C 21.966 15.951,21.980 14.772,21.980 12.000 C 21.980 8.151,21.964 7.600,21.816 6.500 C 21.584 4.775,20.991 3.670,19.928 2.982 C 18.975 2.366,17.835 2.129,15.393 2.041 C 14.150 1.996,9.732 1.997,8.440 2.043 M14.531 6.138 C 14.915 6.319,15.278 6.631,16.324 7.676 C 17.751 9.104,17.974 9.420,17.978 10.020 C 17.980 10.297,17.964 10.375,17.856 10.600 C 17.652 11.031,17.302 11.421,15.474 13.260 L 13.724 15.020 11.352 12.648 L 8.980 10.276 10.740 8.526 C 12.790 6.488,13.091 6.230,13.620 6.054 C 13.856 5.975,14.268 6.013,14.531 6.138 M10.300 13.723 L 12.660 16.086 12.060 16.667 C 11.318 17.386,10.936 17.697,10.600 17.856 C 10.376 17.963,10.295 17.980,10.020 17.980 C 9.418 17.979,9.139 17.782,7.696 16.342 C 6.249 14.898,6.026 14.583,6.022 13.980 C 6.018 13.420,6.210 13.117,7.263 12.014 C 7.606 11.654,7.899 11.360,7.914 11.360 C 7.928 11.360,9.002 12.423,10.300 13.723 " fill="#1C274C" stroke="none" fill-rule="evenodd"></path></svg>