<svg width="24" height="24" viewBox="0 0 24 24" fill="none" xmlns="http://www.w3.org/2000/svg"><path d="M14.561 3.044 C 14.313 3.092,13.790 3.352,13.489 3.575 C 13.350 3.678,13.071 3.909,12.869 4.089 C 12.370 4.532,7.240 9.644,7.240 9.698 C 7.240 9.754,14.247 16.760,14.303 16.760 C 14.371 16.760,19.742 11.346,20.098 10.920 C 20.709 10.187,20.951 9.708,20.988 9.160 C 21.029 8.560,20.821 8.072,20.184 7.280 C 19.905 6.932,17.827 4.820,17.177 4.223 C 16.042 3.182,15.380 2.883,14.561 3.044 M5.475 11.430 C 3.976 12.942,3.525 13.472,3.237 14.060 C 2.788 14.977,2.973 15.722,3.934 16.858 C 4.284 17.272,6.554 19.550,7.020 19.954 C 7.740 20.579,8.193 20.854,8.672 20.955 C 8.823 20.987,10.636 21.000,15.003 21.000 C 21.650 21.000,21.273 21.012,21.513 20.788 C 21.869 20.456,21.779 19.813,21.348 19.604 C 21.175 19.520,21.166 19.520,16.387 19.520 C 13.754 19.520,11.600 19.512,11.600 19.501 C 11.600 19.491,11.970 19.117,12.422 18.671 L 13.244 17.860 9.692 14.310 L 6.139 10.760 5.475 11.430 " fill="#1C274C" stroke="none" fill-rule="evenodd"></path></svg>