<svg width="24" height="24" viewBox="0 0 24 24" fill="none" xmlns="http://www.w3.org/2000/svg"><path d="M11.120 2.039 C 9.316 2.220,7.707 2.807,6.280 3.806 C 2.696 6.315,1.150 10.849,2.462 15.000 C 2.954 16.557,3.767 17.890,4.938 19.062 C 6.528 20.651,8.440 21.596,10.740 21.928 C 11.213 21.996,12.787 21.996,13.260 21.928 C 15.135 21.657,16.725 20.987,18.200 19.845 C 18.637 19.507,19.507 18.637,19.845 18.200 C 22.092 15.297,22.619 11.564,21.254 8.220 C 20.058 5.287,17.480 3.053,14.430 2.303 C 13.446 2.062,12.028 1.948,11.120 2.039 M14.531 6.138 C 14.915 6.319,15.278 6.631,16.324 7.676 C 17.751 9.104,17.974 9.420,17.978 10.020 C 17.980 10.297,17.964 10.375,17.856 10.600 C 17.652 11.031,17.302 11.421,15.474 13.260 L 13.724 15.020 11.352 12.648 L 8.980 10.276 10.740 8.526 C 12.790 6.488,13.091 6.230,13.620 6.054 C 13.856 5.975,14.268 6.013,14.531 6.138 M10.300 13.723 L 12.660 16.086 12.060 16.667 C 11.318 17.386,10.936 17.697,10.600 17.856 C 10.376 17.963,10.295 17.980,10.020 17.980 C 9.418 17.979,9.139 17.782,7.696 16.342 C 6.249 14.898,6.026 14.583,6.022 13.980 C 6.018 13.420,6.210 13.117,7.263 12.014 C 7.606 11.654,7.899 11.360,7.914 11.360 C 7.928 11.360,9.002 12.423,10.300 13.723 " fill="#1C274C" stroke="none" fill-rule="evenodd"></path></svg>