<svg width="24" height="24" viewBox="0 0 24 24" fill="none" xmlns="http://www.w3.org/2000/svg"><path d="M11.120 2.039 C 9.316 2.220,7.707 2.807,6.280 3.806 C 2.696 6.315,1.150 10.849,2.462 15.000 C 2.954 16.557,3.767 17.890,4.938 19.062 C 6.528 20.651,8.440 21.596,10.740 21.928 C 11.213 21.996,12.787 21.996,13.260 21.928 C 15.135 21.657,16.725 20.987,18.200 19.845 C 18.637 19.507,19.507 18.637,19.845 18.200 C 22.092 15.297,22.619 11.564,21.254 8.220 C 20.058 5.287,17.480 3.053,14.430 2.303 C 13.446 2.062,12.028 1.948,11.120 2.039 M12.940 5.325 C 13.875 5.442,15.322 5.996,15.578 6.335 C 15.873 6.725,15.739 7.286,15.305 7.483 C 15.039 7.604,14.897 7.582,14.413 7.345 C 13.914 7.100,13.501 6.953,13.028 6.851 C 12.561 6.752,11.431 6.754,10.960 6.856 C 9.447 7.183,8.169 8.115,7.423 9.435 C 7.344 9.574,7.280 9.704,7.280 9.724 C 7.280 9.745,7.888 9.760,8.717 9.760 C 9.636 9.760,10.195 9.775,10.267 9.803 C 10.540 9.905,10.731 10.193,10.731 10.500 C 10.731 10.807,10.540 11.095,10.267 11.197 C 10.194 11.225,9.567 11.240,8.483 11.240 L 6.810 11.240 6.786 11.390 C 6.754 11.584,6.754 12.416,6.786 12.610 L 6.810 12.760 8.483 12.760 C 9.567 12.760,10.194 12.775,10.267 12.803 C 10.540 12.905,10.731 13.193,10.731 13.500 C 10.731 13.807,10.540 14.095,10.267 14.197 C 10.195 14.225,9.636 14.240,8.717 14.240 C 7.888 14.240,7.280 14.255,7.280 14.276 C 7.280 14.334,7.550 14.795,7.749 15.079 C 7.998 15.433,8.633 16.054,9.005 16.309 C 9.575 16.700,10.287 17.002,11.020 17.165 C 11.390 17.248,12.617 17.238,13.028 17.149 C 13.519 17.043,13.935 16.896,14.380 16.670 C 14.714 16.501,14.816 16.467,15.000 16.466 C 15.262 16.464,15.434 16.545,15.582 16.739 C 15.792 17.014,15.790 17.385,15.577 17.666 C 15.449 17.835,14.733 18.198,14.132 18.399 C 11.488 19.280,8.559 18.442,6.801 16.300 C 6.378 15.785,5.911 14.992,5.700 14.430 L 5.629 14.240 5.237 14.240 C 4.803 14.240,4.674 14.206,4.506 14.047 C 4.339 13.889,4.269 13.727,4.269 13.500 C 4.269 13.273,4.339 13.111,4.506 12.953 C 4.657 12.810,4.801 12.760,5.057 12.760 L 5.269 12.760 5.269 12.000 L 5.269 11.240 5.057 11.240 C 4.801 11.240,4.657 11.190,4.506 11.047 C 4.339 10.889,4.269 10.727,4.269 10.500 C 4.269 10.273,4.339 10.111,4.506 9.953 C 4.674 9.794,4.803 9.760,5.237 9.760 L 5.629 9.760 5.700 9.570 C 5.820 9.251,6.118 8.678,6.350 8.320 C 7.619 6.359,9.906 5.166,12.200 5.267 C 12.431 5.277,12.764 5.303,12.940 5.325 " fill="#1C274C" stroke="none" fill-rule="evenodd"></path></svg>