<svg width="24" height="24" viewBox="0 0 24 24" fill="none" xmlns="http://www.w3.org/2000/svg"><path d="M10.493 2.041 C 9.837 2.160,9.360 2.632,9.182 3.340 C 9.028 3.950,9.028 3.926,9.011 11.580 C 8.995 19.132,9.005 19.841,9.138 20.468 C 9.301 21.239,9.630 21.668,10.229 21.892 C 10.581 22.023,11.507 22.012,12.408 21.866 C 13.949 21.615,17.460 20.988,17.960 20.874 C 19.283 20.572,19.925 20.244,20.348 19.651 C 20.707 19.148,20.881 18.534,20.958 17.500 C 21.014 16.745,21.014 7.255,20.958 6.500 C 20.789 4.229,20.128 3.558,17.555 3.044 C 16.790 2.891,12.971 2.225,12.240 2.117 C 11.608 2.023,10.787 1.988,10.493 2.041 M5.500 4.566 C 4.665 4.649,4.072 4.885,3.706 5.280 C 3.349 5.666,3.183 6.095,3.071 6.920 C 2.997 7.469,2.997 16.531,3.071 17.080 C 3.183 17.905,3.349 18.334,3.706 18.720 C 4.221 19.275,5.046 19.480,6.780 19.480 L 7.500 19.480 7.500 12.000 L 7.500 4.520 6.680 4.525 C 6.229 4.528,5.698 4.547,5.500 4.566 M12.408 10.300 C 12.491 10.355,12.599 10.477,12.649 10.570 C 12.738 10.736,12.740 10.767,12.740 12.000 C 12.740 13.233,12.738 13.264,12.649 13.430 C 12.599 13.523,12.484 13.649,12.393 13.709 C 12.042 13.942,11.554 13.811,11.351 13.430 C 11.262 13.264,11.260 13.233,11.260 12.000 C 11.260 10.774,11.262 10.736,11.349 10.573 C 11.560 10.179,12.038 10.056,12.408 10.300 " fill="#1C274C" stroke="none" fill-rule="evenodd"></path></svg>