<svg width="24" height="24" viewBox="0 0 24 24" fill="none" xmlns="http://www.w3.org/2000/svg"><path d="M8.419 2.041 C 5.785 2.145,4.480 2.507,3.549 3.393 C 2.551 4.342,2.166 5.587,2.041 8.260 C 1.988 9.399,1.988 14.601,2.041 15.740 C 2.160 18.285,2.507 19.501,3.379 20.433 C 4.245 21.360,5.318 21.742,7.580 21.927 C 8.488 22.002,15.512 22.002,16.420 21.927 C 18.857 21.727,19.992 21.275,20.860 20.157 C 21.474 19.368,21.771 18.329,21.927 16.420 C 22.002 15.512,22.002 8.488,21.927 7.580 C 21.740 5.297,21.356 4.232,20.407 3.355 C 19.572 2.585,18.492 2.242,16.380 2.078 C 15.684 2.023,9.573 1.995,8.419 2.041 M15.388 6.367 C 15.628 6.526,15.733 6.721,15.733 7.007 C 15.733 7.203,15.714 7.271,15.616 7.409 C 15.552 7.501,15.436 7.613,15.359 7.658 C 15.223 7.738,15.158 7.740,12.562 7.751 C 10.173 7.761,9.897 7.769,9.832 7.827 C 9.765 7.888,9.760 8.006,9.760 9.565 L 9.760 11.237 12.493 11.249 L 15.226 11.260 15.388 11.367 C 15.628 11.526,15.733 11.721,15.733 12.007 C 15.733 12.203,15.714 12.271,15.616 12.409 C 15.552 12.501,15.436 12.613,15.359 12.658 C 15.223 12.738,15.159 12.740,12.490 12.751 L 9.760 12.762 9.760 14.435 C 9.760 15.992,9.765 16.112,9.832 16.172 C 9.896 16.231,10.177 16.238,12.565 16.249 L 15.226 16.260 15.388 16.367 C 15.628 16.526,15.733 16.721,15.733 17.007 C 15.733 17.203,15.714 17.271,15.616 17.409 C 15.552 17.501,15.436 17.613,15.359 17.658 C 15.223 17.738,15.158 17.740,12.551 17.751 C 9.632 17.763,9.570 17.759,9.151 17.531 C 8.898 17.394,8.556 17.024,8.426 16.748 C 8.370 16.630,8.305 16.418,8.282 16.277 C 8.225 15.925,8.225 8.075,8.282 7.723 C 8.342 7.353,8.497 7.057,8.777 6.777 C 9.046 6.508,9.356 6.340,9.687 6.284 C 9.804 6.264,11.098 6.251,12.563 6.254 L 15.226 6.260 15.388 6.367 " fill="#1C274C" stroke="none" fill-rule="evenodd"></path></svg>