<svg width="24" height="24" viewBox="0 0 24 24" fill="none" xmlns="http://www.w3.org/2000/svg"><path d="M12.058 3.702 C 11.992 3.735,11.205 4.495,10.311 5.391 C 8.540 7.166,8.603 7.086,8.650 7.502 C 8.701 7.958,9.227 8.244,9.671 8.058 C 9.767 8.018,10.144 7.673,10.729 7.090 L 11.639 6.183 11.649 10.425 L 11.660 14.666 11.776 14.818 C 12.108 15.253,12.801 15.194,13.035 14.710 C 13.120 14.535,13.120 14.533,13.120 10.358 L 13.120 6.181 14.030 7.089 C 14.621 7.679,14.992 8.019,15.089 8.059 C 15.543 8.246,16.055 7.949,16.109 7.465 C 16.151 7.101,16.149 7.098,14.445 5.387 C 13.573 4.511,12.793 3.760,12.712 3.717 C 12.533 3.625,12.229 3.617,12.058 3.702 M4.412 12.929 C 4.494 14.689,5.304 16.543,6.572 17.870 C 8.735 20.132,11.949 20.934,14.916 19.951 C 17.278 19.168,19.165 17.277,19.956 14.900 C 20.198 14.172,20.359 13.276,20.360 12.650 L 20.360 12.400 17.970 12.401 C 15.414 12.401,15.265 12.411,15.000 12.600 C 14.924 12.654,14.828 12.785,14.768 12.915 C 14.674 13.120,14.664 13.198,14.637 13.958 C 14.616 14.541,14.587 14.844,14.540 15.000 C 14.314 15.737,13.721 16.325,12.980 16.544 C 12.634 16.646,12.097 16.640,11.740 16.529 C 11.148 16.346,10.648 15.931,10.383 15.406 C 10.178 14.999,10.156 14.883,10.120 14.000 C 10.074 12.907,10.000 12.707,9.564 12.505 C 9.384 12.422,9.332 12.420,6.884 12.409 L 4.388 12.397 4.412 12.929 " fill="#1C274C" stroke="none" fill-rule="evenodd"></path></svg>