<svg width="24" height="24" viewBox="0 0 24 24" fill="none" xmlns="http://www.w3.org/2000/svg"><path d="M11.120 2.039 C 9.316 2.220,7.707 2.807,6.280 3.806 C 2.738 6.286,1.178 10.759,2.422 14.865 C 2.918 16.499,3.728 17.850,4.939 19.061 C 5.928 20.050,7.038 20.788,8.272 21.278 C 11.634 22.610,15.313 22.080,18.200 19.845 C 18.637 19.507,19.507 18.637,19.845 18.200 C 21.255 16.379,22.000 14.234,22.000 12.000 C 22.000 7.432,18.842 3.387,14.430 2.303 C 13.446 2.062,12.028 1.948,11.120 2.039 M9.306 9.083 C 10.066 9.451,10.235 10.971,9.596 11.698 C 9.252 12.090,8.748 12.090,8.404 11.698 C 7.764 10.970,7.930 9.460,8.691 9.084 C 8.905 8.978,9.088 8.978,9.306 9.083 M15.306 9.083 C 16.066 9.451,16.235 10.971,15.596 11.698 C 15.252 12.090,14.748 12.090,14.404 11.698 C 13.764 10.970,13.930 9.460,14.691 9.084 C 14.905 8.978,15.088 8.978,15.306 9.083 M15.388 15.367 C 15.628 15.526,15.733 15.721,15.733 16.007 C 15.733 16.203,15.714 16.271,15.616 16.409 C 15.552 16.501,15.436 16.613,15.359 16.658 C 15.222 16.739,15.173 16.740,12.000 16.740 C 8.827 16.740,8.778 16.739,8.641 16.658 C 8.564 16.613,8.448 16.501,8.384 16.409 C 8.098 16.003,8.330 15.395,8.815 15.278 C 8.884 15.261,10.354 15.250,12.083 15.254 L 15.226 15.260 15.388 15.367 " fill="#1C274C" stroke="none" fill-rule="evenodd"></path></svg>