<svg width="24" height="24" viewBox="0 0 24 24" fill="none" xmlns="http://www.w3.org/2000/svg"><path d="M8.419 2.041 C 5.785 2.145,4.480 2.507,3.549 3.393 C 2.551 4.342,2.166 5.587,2.041 8.260 C 1.988 9.399,1.988 14.601,2.041 15.740 C 2.160 18.285,2.507 19.501,3.379 20.433 C 4.245 21.360,5.318 21.742,7.580 21.927 C 8.488 22.002,15.512 22.002,16.420 21.927 C 18.857 21.727,19.992 21.275,20.860 20.157 C 21.474 19.368,21.771 18.329,21.927 16.420 C 22.002 15.512,22.002 8.488,21.927 7.580 C 21.740 5.297,21.356 4.232,20.407 3.355 C 19.572 2.585,18.492 2.242,16.380 2.078 C 15.684 2.023,9.573 1.995,8.419 2.041 M9.306 9.083 C 10.066 9.451,10.235 10.971,9.596 11.698 C 9.252 12.090,8.748 12.090,8.404 11.698 C 7.764 10.970,7.930 9.460,8.691 9.084 C 8.905 8.978,9.088 8.978,9.306 9.083 M15.306 9.083 C 16.066 9.451,16.235 10.971,15.596 11.698 C 15.252 12.090,14.748 12.090,14.404 11.698 C 13.764 10.970,13.930 9.460,14.691 9.084 C 14.905 8.978,15.088 8.978,15.306 9.083 M15.388 15.367 C 15.628 15.526,15.733 15.721,15.733 16.007 C 15.733 16.203,15.714 16.271,15.616 16.409 C 15.552 16.501,15.436 16.613,15.359 16.658 C 15.222 16.739,15.173 16.740,12.000 16.740 C 8.827 16.740,8.778 16.739,8.641 16.658 C 8.564 16.613,8.448 16.501,8.384 16.409 C 8.098 16.003,8.330 15.395,8.815 15.278 C 8.884 15.261,10.354 15.250,12.083 15.254 L 15.226 15.260 15.388 15.367 " fill="#1C274C" stroke="none" fill-rule="evenodd"></path></svg>