<svg width="24" height="24" viewBox="0 0 24 24" fill="none" xmlns="http://www.w3.org/2000/svg"><path d="M11.120 4.044 C 9.224 4.209,7.505 4.892,5.807 6.157 C 4.576 7.074,2.847 9.052,2.350 10.111 C 2.099 10.648,2.025 11.074,2.025 12.000 C 2.025 13.446,2.231 13.971,3.360 15.400 C 4.097 16.333,5.030 17.260,5.847 17.871 C 7.415 19.043,8.963 19.686,10.800 19.926 C 11.290 19.991,12.710 19.991,13.200 19.926 C 15.048 19.684,16.577 19.046,18.193 17.843 C 19.424 16.926,21.153 14.948,21.650 13.889 C 21.901 13.352,21.975 12.926,21.975 12.000 C 21.975 10.532,21.773 10.031,20.575 8.520 C 19.677 7.387,18.389 6.216,17.285 5.530 C 15.421 4.371,13.284 3.856,11.120 4.044 M12.507 8.282 C 12.940 8.341,13.538 8.552,13.929 8.785 C 14.371 9.047,14.953 9.629,15.215 10.071 C 15.782 11.024,15.902 12.166,15.545 13.209 C 15.349 13.780,15.090 14.190,14.640 14.640 C 14.190 15.090,13.780 15.349,13.209 15.545 C 12.166 15.902,11.027 15.782,10.070 15.215 C 9.626 14.953,9.047 14.374,8.785 13.930 C 8.218 12.973,8.098 11.834,8.455 10.791 C 8.651 10.220,8.910 9.810,9.360 9.360 C 10.215 8.505,11.331 8.123,12.507 8.282 M11.540 9.798 C 10.501 10.023,9.760 10.940,9.760 12.000 C 9.760 12.615,9.979 13.139,10.420 13.580 C 11.309 14.469,12.691 14.469,13.580 13.580 C 14.744 12.416,14.319 10.482,12.771 9.894 C 12.473 9.781,11.844 9.732,11.540 9.798 " fill="#1C274C" stroke="none" fill-rule="evenodd"></path></svg>