<svg width="24" height="24" viewBox="0 0 24 24" fill="none" xmlns="http://www.w3.org/2000/svg"><path d="M1.643 6.069 C 1.398 6.155,1.147 6.418,1.061 6.678 C 0.948 7.019,0.988 7.209,1.313 7.855 C 1.831 8.888,2.456 9.800,3.447 10.970 L 3.575 11.121 3.133 11.570 C 2.889 11.818,2.662 12.077,2.626 12.146 C 2.309 12.769,2.641 13.464,3.323 13.607 C 3.505 13.645,3.578 13.641,3.777 13.583 C 3.993 13.520,4.059 13.470,4.520 13.017 C 4.798 12.744,5.039 12.520,5.054 12.520 C 5.069 12.520,5.194 12.607,5.331 12.714 C 5.658 12.970,6.224 13.346,6.610 13.565 C 6.780 13.661,6.919 13.751,6.920 13.765 C 6.920 13.779,6.756 14.040,6.555 14.345 C 6.097 15.042,6.001 15.242,6.001 15.500 C 6.001 15.888,6.307 16.323,6.665 16.442 C 7.007 16.557,7.387 16.483,7.641 16.254 C 7.724 16.179,8.021 15.767,8.300 15.339 C 8.580 14.910,8.832 14.560,8.861 14.560 C 8.890 14.560,9.077 14.603,9.275 14.657 C 9.606 14.745,10.344 14.882,10.810 14.941 L 11.000 14.965 11.000 15.832 C 11.001 16.657,11.005 16.710,11.094 16.900 C 11.384 17.522,12.155 17.693,12.652 17.245 C 12.740 17.165,12.855 17.010,12.906 16.900 C 12.995 16.710,12.999 16.657,13.000 15.832 L 13.000 14.965 13.190 14.941 C 13.687 14.877,14.182 14.786,14.624 14.678 C 14.890 14.613,15.127 14.560,15.150 14.560 C 15.173 14.560,15.420 14.910,15.700 15.339 C 15.979 15.767,16.276 16.179,16.359 16.254 C 16.721 16.581,17.283 16.577,17.652 16.245 C 17.971 15.957,18.085 15.491,17.924 15.136 C 17.882 15.045,17.676 14.705,17.464 14.380 C 17.253 14.054,17.080 13.777,17.080 13.764 C 17.081 13.751,17.220 13.661,17.390 13.565 C 17.776 13.346,18.342 12.970,18.669 12.714 C 18.806 12.607,18.931 12.520,18.946 12.520 C 18.961 12.520,19.202 12.744,19.480 13.017 C 19.941 13.470,20.007 13.520,20.223 13.583 C 21.073 13.831,21.785 12.943,21.373 12.147 C 21.338 12.079,21.110 11.819,20.868 11.571 L 20.426 11.119 20.553 10.970 C 21.570 9.768,22.250 8.765,22.764 7.707 C 23.007 7.207,23.044 6.992,22.939 6.678 C 22.850 6.408,22.603 6.156,22.340 6.066 C 22.099 5.984,21.952 5.983,21.687 6.062 C 21.383 6.152,21.208 6.343,20.940 6.880 C 20.016 8.725,18.491 10.473,16.880 11.531 C 16.649 11.683,16.190 11.939,15.860 12.101 C 12.796 13.604,9.216 13.208,6.460 11.060 C 5.124 10.020,3.844 8.445,3.060 6.880 C 2.792 6.343,2.617 6.152,2.313 6.062 C 2.057 5.986,1.873 5.988,1.643 6.069 " fill="#1C274C" stroke="none" fill-rule="evenodd"></path></svg>