<svg width="24" height="24" viewBox="0 0 24 24" fill="none" xmlns="http://www.w3.org/2000/svg"><path d="M7.400 1.282 C 5.519 1.335,4.478 1.517,3.640 1.937 C 3.232 2.142,3.026 2.291,2.667 2.637 C 1.798 3.476,1.447 4.288,1.324 5.740 C 1.254 6.578,1.223 8.868,1.278 9.134 C 1.393 9.683,2.019 9.919,2.464 9.580 C 2.734 9.373,2.736 9.364,2.766 7.480 C 2.799 5.421,2.844 5.063,3.146 4.440 C 3.354 4.013,3.899 3.469,4.320 3.268 C 5.121 2.886,6.189 2.760,8.627 2.760 C 9.447 2.760,10.035 2.743,10.162 2.716 C 10.920 2.553,10.920 1.447,10.162 1.284 C 9.939 1.236,9.036 1.236,7.400 1.282 M13.811 1.279 C 13.536 1.344,13.316 1.587,13.260 1.885 C 13.197 2.220,13.450 2.624,13.781 2.715 C 13.881 2.743,14.406 2.760,15.200 2.760 C 17.722 2.762,18.908 2.897,19.680 3.270 C 20.056 3.451,20.632 4.009,20.828 4.381 C 21.133 4.960,21.202 5.501,21.235 7.600 C 21.264 9.381,21.260 9.355,21.520 9.574 C 21.929 9.918,22.576 9.720,22.718 9.209 C 22.805 8.897,22.748 6.067,22.639 5.271 C 22.493 4.208,22.155 3.489,21.463 2.767 C 20.664 1.934,19.782 1.555,18.228 1.379 C 17.330 1.277,14.125 1.204,13.811 1.279 M11.240 7.044 C 9.210 7.239,7.376 8.240,5.861 9.980 C 5.502 10.392,5.241 10.780,5.147 11.040 C 4.957 11.562,4.957 12.440,5.147 12.960 C 5.423 13.717,6.788 15.114,7.968 15.848 C 10.414 17.369,13.586 17.369,16.032 15.848 C 17.207 15.117,18.580 13.712,18.853 12.960 C 19.043 12.438,19.043 11.562,18.853 11.040 C 18.709 10.641,18.188 9.976,17.481 9.288 C 15.777 7.627,13.540 6.822,11.240 7.044 M12.811 9.375 C 13.658 9.639,14.345 10.324,14.631 11.189 C 14.719 11.456,14.733 11.570,14.733 12.000 C 14.733 12.433,14.719 12.543,14.628 12.820 C 14.482 13.260,14.271 13.601,13.936 13.936 C 13.601 14.271,13.260 14.482,12.820 14.628 C 12.543 14.719,12.433 14.733,12.000 14.733 C 11.567 14.733,11.457 14.719,11.180 14.628 C 10.740 14.482,10.399 14.271,10.064 13.936 C 9.729 13.601,9.518 13.260,9.372 12.820 C 9.281 12.543,9.267 12.433,9.267 12.000 C 9.267 11.567,9.281 11.457,9.372 11.180 C 9.699 10.191,10.518 9.479,11.560 9.279 C 11.862 9.221,12.466 9.267,12.811 9.375 M11.616 10.814 C 10.747 11.099,10.475 12.235,11.120 12.880 C 11.368 13.128,11.606 13.220,12.000 13.220 C 12.394 13.220,12.632 13.128,12.880 12.880 C 13.128 12.632,13.220 12.394,13.220 12.000 C 13.220 11.721,13.203 11.625,13.123 11.463 C 13.000 11.213,12.787 11.000,12.541 10.881 C 12.306 10.767,11.859 10.735,11.616 10.814 M1.807 14.288 C 1.546 14.345,1.340 14.570,1.278 14.866 C 1.223 15.132,1.254 17.422,1.324 18.260 C 1.449 19.737,1.806 20.546,2.715 21.407 C 3.560 22.208,4.546 22.544,6.440 22.678 C 7.419 22.747,9.873 22.776,10.134 22.722 C 10.826 22.577,10.959 21.646,10.332 21.336 C 10.192 21.267,10.029 21.259,8.340 21.236 C 5.879 21.202,5.071 21.101,4.320 20.734 C 3.891 20.525,3.339 19.973,3.142 19.557 C 2.843 18.923,2.799 18.570,2.766 16.520 C 2.741 14.972,2.732 14.806,2.664 14.668 C 2.549 14.434,2.385 14.327,2.040 14.261 C 2.007 14.255,1.902 14.267,1.807 14.288 M21.823 14.287 C 21.616 14.333,21.429 14.479,21.336 14.668 C 21.268 14.806,21.259 14.972,21.234 16.520 C 21.201 18.579,21.156 18.937,20.854 19.560 C 20.649 19.982,20.103 20.528,19.680 20.734 C 18.929 21.101,18.121 21.202,15.660 21.236 C 13.971 21.259,13.808 21.267,13.668 21.336 C 13.226 21.554,13.129 22.169,13.481 22.521 C 13.732 22.772,13.820 22.780,15.920 22.727 C 18.552 22.661,19.409 22.535,20.333 22.075 C 20.763 21.861,20.968 21.715,21.333 21.363 C 22.202 20.524,22.553 19.712,22.676 18.260 C 22.745 17.442,22.778 15.131,22.724 14.882 C 22.627 14.430,22.261 14.188,21.823 14.287 " fill="#1C274C" stroke="none" fill-rule="evenodd"></path></svg>