<svg width="24" height="24" viewBox="0 0 24 24" fill="none" xmlns="http://www.w3.org/2000/svg"><path d="M8.456 2.042 C 5.720 2.141,4.373 2.534,3.435 3.507 C 2.307 4.677,2.002 6.261,2.000 10.950 C 2.000 12.071,2.008 12.240,2.060 12.240 C 2.093 12.240,3.218 12.679,4.560 13.216 L 7.000 14.192 8.541 13.576 C 9.389 13.237,10.239 12.913,10.431 12.857 C 11.423 12.569,12.577 12.569,13.569 12.857 C 13.761 12.913,14.611 13.237,15.459 13.576 L 17.000 14.192 19.440 13.216 C 20.782 12.679,21.907 12.240,21.940 12.240 C 22.059 12.240,21.998 8.259,21.858 6.923 C 21.681 5.232,21.272 4.186,20.493 3.435 C 19.509 2.486,18.278 2.148,15.417 2.041 C 14.217 1.996,9.702 1.997,8.456 2.042 M9.300 9.075 C 9.498 9.164,9.700 9.389,9.824 9.657 C 10.107 10.266,10.037 11.124,9.665 11.611 C 9.174 12.254,8.443 12.066,8.119 11.211 C 8.012 10.929,7.972 10.388,8.036 10.080 C 8.166 9.454,8.570 9.002,9.000 9.002 C 9.077 9.002,9.212 9.035,9.300 9.075 M15.300 9.075 C 15.498 9.164,15.700 9.389,15.824 9.657 C 16.107 10.266,16.037 11.124,15.665 11.611 C 15.174 12.254,14.443 12.066,14.119 11.211 C 14.012 10.929,13.972 10.388,14.036 10.080 C 14.166 9.454,14.570 9.002,15.000 9.002 C 15.077 9.002,15.212 9.035,15.300 9.075 M2.001 14.054 C 2.002 14.724,2.087 16.554,2.142 17.073 C 2.248 18.089,2.436 18.865,2.721 19.460 C 2.959 19.957,2.948 19.948,3.183 19.829 C 3.291 19.775,4.064 19.438,4.900 19.081 C 5.736 18.724,6.435 18.418,6.453 18.401 C 6.491 18.365,6.294 15.556,6.250 15.518 C 6.233 15.504,5.270 15.113,4.110 14.650 L 2.000 13.808 2.001 14.054 M19.860 14.664 L 17.740 15.512 17.712 15.646 C 17.659 15.905,17.509 18.365,17.544 18.400 C 17.587 18.442,20.917 19.882,20.996 19.892 C 21.079 19.904,21.336 19.404,21.496 18.921 C 21.660 18.424,21.778 17.852,21.858 17.154 C 21.927 16.559,22.011 14.697,21.993 14.178 L 21.980 13.816 19.860 14.664 M11.320 14.186 C 10.952 14.255,10.450 14.431,9.210 14.925 C 8.434 15.234,7.799 15.499,7.799 15.514 C 7.794 15.624,8.255 21.944,8.269 21.960 C 8.279 21.971,9.958 21.980,12.000 21.980 C 14.042 21.980,15.721 21.971,15.731 21.960 C 15.745 21.944,16.206 15.624,16.201 15.514 C 16.199 15.475,13.435 14.380,13.080 14.277 C 12.835 14.206,12.655 14.188,12.100 14.178 C 11.726 14.172,11.375 14.175,11.320 14.186 M5.330 20.531 L 4.120 21.054 4.285 21.152 C 4.541 21.305,5.084 21.512,5.516 21.621 C 5.927 21.725,6.682 21.851,6.713 21.821 C 6.750 21.783,6.605 19.998,6.565 20.004 C 6.551 20.006,5.996 20.243,5.330 20.531 M17.385 20.248 C 17.335 20.773,17.271 21.804,17.287 21.821 C 17.318 21.851,18.073 21.725,18.484 21.621 C 18.916 21.512,19.459 21.305,19.716 21.152 L 19.880 21.053 18.675 20.537 C 18.013 20.253,17.457 20.015,17.440 20.008 C 17.423 20.002,17.399 20.110,17.385 20.248 " fill="#1C274C" stroke="none" fill-rule="evenodd"></path></svg>