<svg width="24" height="24" viewBox="0 0 24 24" fill="none" xmlns="http://www.w3.org/2000/svg"><path d="M11.300 2.024 C 10.268 2.130,9.297 2.339,8.537 2.620 C 6.161 3.500,4.142 5.321,3.043 7.576 C 2.389 8.916,2.070 10.200,2.013 11.720 L 1.989 12.380 4.490 13.288 L 6.991 14.196 8.536 13.578 C 9.387 13.237,10.239 12.913,10.431 12.857 C 11.423 12.569,12.577 12.569,13.569 12.857 C 13.761 12.913,14.611 13.237,15.459 13.576 L 17.000 14.192 19.506 13.190 L 22.012 12.187 21.986 11.624 C 21.899 9.745,21.334 7.990,20.333 6.492 C 19.530 5.292,18.683 4.446,17.483 3.649 C 15.928 2.615,14.126 2.060,12.200 2.022 C 11.793 2.014,11.388 2.015,11.300 2.024 M9.300 9.075 C 9.498 9.164,9.700 9.389,9.824 9.657 C 10.107 10.266,10.037 11.124,9.665 11.611 C 9.174 12.254,8.443 12.066,8.119 11.211 C 8.012 10.929,7.972 10.388,8.036 10.080 C 8.166 9.454,8.570 9.002,9.000 9.002 C 9.077 9.002,9.212 9.035,9.300 9.075 M15.300 9.075 C 15.498 9.164,15.700 9.389,15.824 9.657 C 16.107 10.266,16.037 11.124,15.665 11.611 C 15.174 12.254,14.443 12.066,14.119 11.211 C 14.012 10.929,13.972 10.388,14.036 10.080 C 14.166 9.454,14.570 9.002,15.000 9.002 C 15.077 9.002,15.212 9.035,15.300 9.075 M19.772 14.695 C 18.668 15.139,17.751 15.515,17.735 15.531 C 17.707 15.560,17.319 20.406,17.343 20.434 C 17.370 20.466,18.109 19.926,18.512 19.580 C 19.997 18.304,21.073 16.625,21.614 14.740 C 21.741 14.300,21.830 13.875,21.795 13.884 C 21.787 13.886,20.877 14.251,19.772 14.695 M2.240 14.133 C 2.240 14.239,2.518 15.197,2.644 15.525 C 3.383 17.452,4.710 19.130,6.410 20.287 L 6.640 20.443 6.639 20.291 C 6.639 20.099,6.287 15.553,6.271 15.540 C 6.257 15.527,2.276 14.080,2.255 14.080 C 2.247 14.080,2.240 14.104,2.240 14.133 M11.320 14.186 C 10.790 14.286,7.800 15.436,7.800 15.540 C 7.800 15.620,8.194 20.746,8.221 21.026 L 8.246 21.273 8.651 21.418 C 9.207 21.618,9.873 21.783,10.540 21.887 C 11.334 22.011,12.658 22.011,13.460 21.887 C 14.125 21.784,14.791 21.619,15.349 21.418 L 15.754 21.273 15.779 21.026 C 15.800 20.802,16.200 15.577,16.200 15.514 C 16.200 15.476,13.439 14.381,13.080 14.277 C 12.835 14.206,12.655 14.188,12.100 14.178 C 11.726 14.172,11.375 14.175,11.320 14.186 " fill="#1C274C" stroke="none" fill-rule="evenodd"></path></svg>