<svg width="24" height="24" viewBox="0 0 24 24" fill="none" xmlns="http://www.w3.org/2000/svg"><path d="M9.580 2.103 C 6.238 2.924,3.507 5.404,2.382 8.640 C 2.203 9.154,2.001 9.934,2.000 10.111 C 1.999 10.668,2.694 11.003,3.142 10.662 C 3.318 10.527,3.373 10.416,3.459 10.020 C 3.709 8.866,4.364 7.519,5.161 6.520 C 5.505 6.088,6.283 5.330,6.706 5.014 C 7.675 4.289,8.700 3.798,9.880 3.496 C 10.431 3.354,10.555 3.295,10.693 3.111 C 10.777 2.998,10.826 2.669,10.784 2.501 C 10.744 2.341,10.491 2.087,10.326 2.041 C 10.122 1.984,10.035 1.992,9.580 2.103 M13.620 2.076 C 13.236 2.253,13.089 2.666,13.279 3.038 C 13.396 3.268,13.525 3.337,14.120 3.491 C 14.817 3.672,15.339 3.868,15.960 4.183 C 16.875 4.646,17.526 5.129,18.282 5.906 C 19.024 6.668,19.452 7.279,19.903 8.220 C 20.197 8.833,20.357 9.274,20.523 9.933 C 20.658 10.468,20.734 10.605,20.962 10.721 C 21.265 10.876,21.614 10.802,21.832 10.537 C 22.023 10.305,22.031 10.138,21.880 9.533 C 20.971 5.902,18.155 3.069,14.528 2.137 C 13.918 1.980,13.839 1.975,13.620 2.076 M10.880 4.505 C 7.871 4.961,5.398 7.192,4.663 10.113 C 4.437 11.010,4.373 12.187,4.502 13.075 C 4.987 16.410,7.590 19.013,10.925 19.498 C 11.478 19.579,12.522 19.579,13.075 19.498 C 16.403 19.014,19.014 16.403,19.498 13.075 C 19.579 12.522,19.579 11.478,19.498 10.925 C 19.014 7.597,16.403 4.986,13.075 4.502 C 12.543 4.424,11.402 4.426,10.880 4.505 M9.820 9.252 C 9.995 9.351,10.211 9.669,10.287 9.940 C 10.312 10.028,10.332 10.235,10.332 10.400 C 10.332 10.765,10.282 10.953,10.111 11.239 C 9.960 11.492,9.739 11.638,9.508 11.639 C 9.221 11.641,8.996 11.453,8.812 11.060 C 8.712 10.845,8.700 10.777,8.700 10.400 C 8.700 10.023,8.712 9.955,8.812 9.740 C 9.059 9.213,9.431 9.032,9.820 9.252 M14.731 9.215 C 14.911 9.292,15.056 9.459,15.188 9.740 C 15.288 9.955,15.300 10.023,15.300 10.400 C 15.300 10.777,15.288 10.845,15.188 11.060 C 15.005 11.450,14.779 11.640,14.498 11.640 C 14.030 11.640,13.662 11.093,13.665 10.400 C 13.666 10.037,13.717 9.849,13.889 9.561 C 14.099 9.211,14.417 9.080,14.731 9.215 M2.417 13.257 C 2.236 13.335,2.047 13.585,2.017 13.785 C 1.999 13.909,2.026 14.092,2.120 14.467 C 2.885 17.525,5.002 20.035,7.902 21.323 C 8.438 21.560,9.157 21.800,9.707 21.923 C 10.056 22.002,10.136 22.008,10.275 21.966 C 10.720 21.833,10.927 21.366,10.721 20.962 C 10.605 20.734,10.468 20.658,9.933 20.523 C 8.745 20.223,7.643 19.700,6.711 18.995 C 6.292 18.677,5.510 17.917,5.172 17.500 C 4.387 16.528,3.819 15.387,3.491 14.120 C 3.415 13.824,3.316 13.531,3.273 13.470 C 3.104 13.233,2.701 13.133,2.417 13.257 M20.953 13.281 C 20.734 13.397,20.657 13.537,20.523 14.067 C 20.357 14.726,20.197 15.167,19.903 15.780 C 19.452 16.721,19.024 17.332,18.282 18.094 C 17.490 18.908,16.842 19.380,15.860 19.861 C 15.181 20.193,14.762 20.348,14.067 20.523 C 13.532 20.658,13.395 20.734,13.279 20.962 C 13.073 21.366,13.280 21.833,13.725 21.966 C 13.864 22.008,13.944 22.002,14.293 21.923 C 14.843 21.800,15.562 21.560,16.098 21.323 C 18.998 20.035,21.115 17.525,21.880 14.467 C 22.031 13.862,22.023 13.695,21.832 13.463 C 21.614 13.199,21.251 13.124,20.953 13.281 M9.724 14.287 C 9.799 14.313,9.991 14.420,10.152 14.525 C 10.663 14.859,11.399 15.080,12.000 15.080 C 12.607 15.080,13.337 14.859,13.861 14.517 C 14.234 14.273,14.436 14.213,14.665 14.275 C 14.885 14.336,15.035 14.459,15.124 14.657 C 15.223 14.875,15.219 15.066,15.110 15.282 C 14.993 15.514,14.503 15.849,13.917 16.098 C 12.928 16.519,11.891 16.607,10.849 16.360 C 10.050 16.170,9.065 15.628,8.890 15.282 C 8.781 15.066,8.777 14.874,8.875 14.660 C 8.965 14.464,9.068 14.369,9.267 14.298 C 9.459 14.230,9.552 14.228,9.724 14.287 " fill="#1C274C" stroke="none" fill-rule="evenodd"></path></svg>