<svg width="24" height="24" viewBox="0 0 24 24" fill="none" xmlns="http://www.w3.org/2000/svg"><path d="M8.300 2.025 C 7.595 2.051,6.733 2.126,6.300 2.200 C 4.429 2.521,3.501 3.463,3.186 5.360 C 3.027 6.313,3.020 6.613,3.020 12.060 C 3.020 16.872,3.026 17.395,3.091 17.957 C 3.262 19.433,3.551 20.195,4.178 20.822 C 4.926 21.570,5.852 21.851,7.940 21.962 C 9.029 22.020,16.192 21.991,16.800 21.926 C 18.200 21.776,18.990 21.525,19.589 21.040 C 20.395 20.387,20.755 19.500,20.929 17.740 C 21.002 16.992,21.002 7.008,20.929 6.260 C 20.786 4.816,20.531 4.008,20.022 3.391 C 19.367 2.597,18.469 2.239,16.720 2.075 C 16.295 2.035,9.197 1.993,8.300 2.025 M12.388 5.367 C 12.628 5.526,12.733 5.721,12.733 6.007 C 12.733 6.203,12.714 6.271,12.616 6.409 C 12.552 6.501,12.436 6.613,12.359 6.658 C 12.223 6.738,12.169 6.740,9.500 6.740 C 6.831 6.740,6.777 6.738,6.641 6.658 C 6.564 6.613,6.448 6.501,6.384 6.409 C 6.098 6.003,6.329 5.396,6.815 5.277 C 6.884 5.261,8.129 5.250,9.583 5.253 L 12.226 5.260 12.388 5.367 M16.872 9.093 C 17.198 9.180,17.345 9.256,17.533 9.434 C 17.723 9.614,17.820 9.799,17.910 10.149 C 17.974 10.397,17.980 10.725,17.980 13.940 C 17.980 17.662,17.975 17.785,17.793 18.207 C 17.686 18.456,17.392 18.727,17.118 18.830 C 16.998 18.875,16.738 18.931,16.540 18.956 C 16.041 19.017,7.959 19.017,7.460 18.956 C 6.997 18.899,6.710 18.790,6.490 18.586 C 6.280 18.393,6.183 18.216,6.090 17.851 C 6.026 17.603,6.020 17.272,6.020 14.000 C 6.020 10.728,6.026 10.397,6.090 10.149 C 6.240 9.564,6.519 9.262,7.040 9.119 C 7.400 9.020,7.936 9.010,12.240 9.017 C 16.205 9.024,16.644 9.032,16.872 9.093 " fill="#1C274C" stroke="none" fill-rule="evenodd"></path></svg>