<svg width="24" height="24" viewBox="0 0 24 24" fill="none" xmlns="http://www.w3.org/2000/svg"><path d="M11.451 1.843 C 10.982 1.992,10.535 2.422,10.372 2.880 L 10.304 3.072 7.737 4.472 L 5.171 5.871 4.955 5.813 C 4.607 5.719,4.107 5.761,3.783 5.913 C 3.415 6.085,3.112 6.383,2.929 6.755 C 2.784 7.047,2.780 7.068,2.780 7.498 C 2.780 7.912,2.788 7.957,2.908 8.210 C 2.978 8.359,3.126 8.576,3.235 8.691 L 3.435 8.902 3.443 11.754 L 3.451 14.605 3.362 14.667 C 3.313 14.702,3.194 14.837,3.097 14.969 C 2.462 15.831,2.757 17.076,3.710 17.556 C 4.271 17.838,4.953 17.801,5.455 17.461 L 5.596 17.365 6.237 17.713 C 6.590 17.904,6.879 18.072,6.879 18.087 C 6.880 18.102,6.410 18.926,5.836 19.917 C 4.764 21.770,4.719 21.866,4.777 22.178 C 4.829 22.457,5.205 22.758,5.500 22.758 C 5.662 22.758,5.917 22.635,6.046 22.495 C 6.104 22.432,6.615 21.579,7.181 20.600 C 7.746 19.621,8.213 18.816,8.218 18.810 C 8.239 18.786,10.319 19.944,10.320 19.980 C 10.322 20.070,10.534 20.468,10.666 20.630 C 11.326 21.435,12.674 21.435,13.334 20.630 C 13.466 20.468,13.678 20.070,13.680 19.980 C 13.681 19.944,15.761 18.786,15.782 18.810 C 15.787 18.816,16.254 19.621,16.819 20.600 C 17.385 21.579,17.896 22.432,17.954 22.495 C 18.083 22.635,18.338 22.758,18.500 22.758 C 18.795 22.758,19.171 22.457,19.223 22.178 C 19.281 21.866,19.236 21.770,18.164 19.917 C 17.590 18.926,17.120 18.102,17.121 18.087 C 17.121 18.072,17.410 17.904,17.763 17.713 L 18.404 17.365 18.545 17.461 C 19.047 17.801,19.729 17.838,20.290 17.556 C 21.243 17.076,21.538 15.831,20.903 14.969 C 20.806 14.837,20.687 14.701,20.638 14.667 L 20.548 14.604 20.557 11.753 L 20.566 8.902 20.765 8.691 C 20.874 8.575,21.022 8.359,21.092 8.210 C 21.212 7.957,21.220 7.912,21.220 7.498 C 21.220 7.069,21.216 7.048,21.071 6.755 C 20.888 6.383,20.585 6.085,20.217 5.913 C 19.893 5.761,19.393 5.719,19.044 5.813 L 18.829 5.871 16.263 4.473 L 13.697 3.076 13.628 2.882 C 13.327 2.032,12.340 1.562,11.451 1.843 M11.123 5.011 C 11.787 5.395,12.638 5.292,13.218 4.758 L 13.381 4.607 15.580 5.807 L 17.780 7.007 17.780 7.476 C 17.780 7.935,17.783 7.949,17.929 8.245 C 18.112 8.616,18.415 8.915,18.780 9.086 L 19.041 9.208 19.030 11.753 L 19.020 14.298 18.780 14.413 C 18.199 14.691,17.845 15.174,17.768 15.796 L 17.740 16.020 17.060 16.389 C 16.686 16.593,16.370 16.759,16.358 16.760 C 16.332 16.760,13.680 12.187,13.680 12.142 C 13.680 12.125,13.732 12.001,13.796 11.866 C 14.169 11.073,14.021 10.214,13.404 9.596 C 12.614 8.807,11.386 8.807,10.596 9.596 C 9.971 10.222,9.827 11.100,10.218 11.899 C 10.274 12.014,10.320 12.123,10.320 12.140 C 10.320 12.187,7.669 16.760,7.642 16.760 C 7.630 16.759,7.314 16.593,6.940 16.389 L 6.260 16.020 6.232 15.796 C 6.155 15.174,5.801 14.691,5.220 14.413 L 4.980 14.298 4.970 11.755 L 4.959 9.212 5.253 9.068 C 5.617 8.887,5.916 8.583,6.092 8.210 C 6.213 7.954,6.220 7.915,6.220 7.474 L 6.220 7.007 8.420 5.807 L 10.619 4.607 10.782 4.758 C 10.872 4.840,11.025 4.954,11.123 5.011 M13.707 15.223 C 14.418 16.452,14.996 17.473,14.990 17.491 C 14.983 17.510,14.620 17.720,14.182 17.959 L 13.385 18.394 13.209 18.238 C 12.475 17.593,11.448 17.603,10.760 18.262 L 10.620 18.396 9.820 17.959 C 9.307 17.679,9.022 17.500,9.025 17.462 C 9.029 17.416,10.235 15.309,11.464 13.200 L 11.592 12.980 12.003 12.984 L 12.413 12.988 13.707 15.223 " fill="#1C274C" stroke="none" fill-rule="evenodd"></path></svg>