<svg width="24" height="24" viewBox="0 0 24 24" fill="none" xmlns="http://www.w3.org/2000/svg"><path d="M8.088 2.821 C 7.223 3.009,6.487 3.685,6.216 4.540 C 6.006 5.201,6.054 5.836,6.361 6.476 C 6.589 6.952,7.048 7.411,7.524 7.639 C 8.066 7.899,8.226 7.919,9.830 7.919 L 11.240 7.920 11.240 5.340 L 11.240 2.760 9.790 2.763 C 8.724 2.766,8.273 2.781,8.088 2.821 M12.760 5.337 L 12.760 7.920 14.170 7.919 C 15.782 7.919,15.942 7.899,16.480 7.635 C 17.162 7.300,17.705 6.596,17.865 5.840 C 18.084 4.798,17.572 3.657,16.638 3.109 C 16.096 2.791,16.052 2.785,14.310 2.769 L 12.760 2.755 12.760 5.337 M8.040 9.501 C 7.171 9.714,6.493 10.359,6.194 11.260 C 6.060 11.660,6.060 12.340,6.194 12.740 C 6.344 13.191,6.518 13.478,6.840 13.804 C 7.181 14.149,7.515 14.352,7.960 14.484 C 8.241 14.568,8.352 14.574,9.750 14.590 L 11.240 14.607 11.240 12.023 L 11.240 9.440 9.750 9.443 C 8.645 9.446,8.203 9.461,8.040 9.501 M14.680 9.503 C 14.229 9.621,13.884 9.828,13.519 10.196 C 12.990 10.730,12.761 11.275,12.761 12.000 C 12.761 12.686,12.986 13.248,13.462 13.754 C 13.975 14.299,14.574 14.565,15.300 14.571 C 16.050 14.576,16.636 14.334,17.160 13.804 C 17.482 13.478,17.656 13.191,17.806 12.740 C 17.940 12.340,17.940 11.660,17.806 11.260 C 17.503 10.350,16.823 9.708,15.940 9.498 C 15.634 9.426,14.965 9.428,14.680 9.503 M8.205 16.125 C 7.457 16.249,6.693 16.832,6.356 17.534 C 6.053 18.165,6.007 18.803,6.217 19.463 C 6.463 20.240,7.110 20.881,7.900 21.131 C 8.277 21.251,9.066 21.258,9.400 21.145 C 10.234 20.862,10.814 20.294,11.130 19.451 C 11.212 19.231,11.217 19.143,11.231 17.650 L 11.245 16.080 9.833 16.085 C 9.056 16.087,8.323 16.105,8.205 16.125 " fill="#1C274C" stroke="none" fill-rule="evenodd"></path></svg>