<svg width="24" height="24" viewBox="0 0 24 24" fill="none" xmlns="http://www.w3.org/2000/svg"><path d="M7.000 2.042 C 5.267 2.116,4.370 2.322,3.617 2.822 C 3.247 3.067,3.032 3.286,2.784 3.670 C 2.379 4.297,2.196 4.988,2.072 6.360 C 1.997 7.194,1.997 16.806,2.072 17.640 C 2.196 19.012,2.379 19.703,2.784 20.330 C 3.032 20.714,3.247 20.933,3.617 21.178 C 4.284 21.620,4.944 21.800,6.360 21.928 C 7.194 22.003,16.806 22.003,17.640 21.928 C 19.012 21.804,19.703 21.621,20.330 21.216 C 20.714 20.968,20.933 20.753,21.178 20.383 C 21.848 19.371,21.998 18.230,21.999 14.116 C 22.000 13.091,21.988 12.088,21.974 11.886 L 21.948 11.520 19.524 11.519 C 16.948 11.519,15.579 11.478,14.960 11.382 C 13.028 11.086,11.914 9.972,11.618 8.040 C 11.520 7.408,11.472 5.884,11.487 3.900 L 11.500 2.020 9.600 2.016 C 8.555 2.014,7.385 2.026,7.000 2.042 M13.011 4.830 C 13.025 6.992,13.038 7.443,13.096 7.794 C 13.317 9.127,13.872 9.682,15.206 9.904 C 15.565 9.964,16.019 9.975,18.595 9.990 C 21.306 10.004,21.569 10.000,21.546 9.942 C 21.480 9.768,21.143 9.337,20.782 8.964 C 20.428 8.597,16.167 4.729,14.660 3.405 C 14.099 2.912,13.475 2.463,13.185 2.344 C 13.100 2.309,13.022 2.280,13.012 2.280 C 13.002 2.280,13.001 3.428,13.011 4.830 M10.161 9.346 C 10.582 9.505,10.821 9.652,11.084 9.916 C 11.858 10.689,11.967 11.816,11.360 12.756 L 11.202 13.000 11.360 13.244 C 11.969 14.187,11.858 15.310,11.077 16.091 C 10.496 16.672,9.634 16.893,8.855 16.659 C 8.771 16.634,8.769 16.643,8.750 17.287 C 8.735 17.805,8.714 17.986,8.651 18.161 C 8.412 18.818,8.030 19.257,7.467 19.521 C 6.806 19.831,6.195 19.831,5.536 19.523 C 4.658 19.111,4.132 18.146,4.271 17.198 C 4.320 16.861,4.512 16.391,4.701 16.142 L 4.809 16.000 4.701 15.858 C 4.362 15.413,4.187 14.730,4.272 14.181 C 4.323 13.856,4.519 13.381,4.701 13.142 L 4.809 13.000 4.701 12.858 C 4.519 12.619,4.323 12.144,4.272 11.819 C 4.125 10.874,4.654 9.891,5.528 9.481 C 5.711 9.395,5.951 9.307,6.061 9.286 C 6.177 9.263,7.027 9.250,8.100 9.255 C 9.858 9.262,9.950 9.266,10.161 9.346 M6.180 10.835 C 5.990 10.923,5.904 11.012,5.822 11.210 C 5.740 11.405,5.745 11.624,5.835 11.820 C 5.987 12.150,6.192 12.240,6.799 12.240 L 7.240 12.240 7.240 11.500 L 7.240 10.760 6.790 10.761 C 6.439 10.762,6.305 10.778,6.180 10.835 M8.760 11.500 L 8.760 12.240 9.210 12.239 C 9.827 12.238,10.031 12.143,10.178 11.790 C 10.257 11.602,10.257 11.398,10.178 11.210 C 10.031 10.857,9.827 10.762,9.210 10.761 L 8.760 10.760 8.760 11.500 M6.180 13.835 C 5.990 13.923,5.904 14.012,5.822 14.210 C 5.740 14.405,5.745 14.624,5.835 14.820 C 5.987 15.150,6.192 15.240,6.799 15.240 L 7.240 15.240 7.240 14.500 L 7.240 13.760 6.790 13.761 C 6.439 13.762,6.305 13.778,6.180 13.835 M9.180 13.835 C 8.990 13.923,8.904 14.012,8.822 14.210 C 8.740 14.405,8.745 14.624,8.835 14.820 C 8.923 15.010,9.012 15.096,9.210 15.178 C 9.470 15.287,9.807 15.232,10.014 15.048 C 10.130 14.946,10.238 14.680,10.238 14.500 C 10.238 14.320,10.130 14.054,10.014 13.952 C 9.799 13.760,9.450 13.711,9.180 13.835 M6.180 16.835 C 5.990 16.923,5.904 17.012,5.822 17.210 C 5.740 17.405,5.745 17.624,5.835 17.820 C 5.923 18.010,6.012 18.096,6.210 18.178 C 6.470 18.287,6.807 18.232,7.014 18.048 C 7.181 17.901,7.238 17.686,7.239 17.210 L 7.240 16.760 6.790 16.761 C 6.439 16.762,6.305 16.778,6.180 16.835 " fill="#1C274C" stroke="none" fill-rule="evenodd"></path></svg>