<svg width="24" height="24" viewBox="0 0 24 24" fill="none" xmlns="http://www.w3.org/2000/svg"><path d="M7.000 2.042 C 5.267 2.116,4.370 2.322,3.617 2.822 C 3.247 3.067,3.032 3.286,2.784 3.670 C 2.379 4.297,2.196 4.988,2.072 6.360 C 1.997 7.194,1.997 16.806,2.072 17.640 C 2.196 19.012,2.379 19.703,2.784 20.330 C 3.032 20.714,3.247 20.933,3.617 21.178 C 4.284 21.620,4.944 21.800,6.360 21.928 C 7.194 22.003,16.806 22.003,17.640 21.928 C 19.012 21.804,19.703 21.621,20.330 21.216 C 20.714 20.968,20.933 20.753,21.178 20.383 C 21.848 19.371,21.998 18.230,21.999 14.116 C 22.000 13.091,21.988 12.088,21.974 11.886 L 21.948 11.520 19.524 11.519 C 16.948 11.519,15.579 11.478,14.960 11.382 C 13.028 11.086,11.914 9.972,11.618 8.040 C 11.520 7.408,11.472 5.884,11.487 3.900 L 11.500 2.020 9.600 2.016 C 8.555 2.014,7.385 2.026,7.000 2.042 M13.011 4.830 C 13.025 6.992,13.038 7.443,13.096 7.794 C 13.317 9.127,13.872 9.682,15.206 9.904 C 15.565 9.964,16.019 9.975,18.595 9.990 C 21.306 10.004,21.569 10.000,21.546 9.942 C 21.480 9.768,21.143 9.337,20.782 8.964 C 20.428 8.597,16.167 4.729,14.660 3.405 C 14.099 2.912,13.475 2.463,13.185 2.344 C 13.100 2.309,13.022 2.280,13.012 2.280 C 13.002 2.280,13.001 3.428,13.011 4.830 M8.812 12.825 C 8.984 12.912,9.075 12.996,9.154 13.140 C 9.212 13.245,9.223 13.485,9.240 15.007 L 9.260 16.754 9.640 16.395 C 10.052 16.006,10.257 15.882,10.491 15.881 C 10.659 15.880,10.897 15.967,11.013 16.072 C 11.227 16.265,11.303 16.676,11.175 16.946 C 11.101 17.100,9.034 19.058,8.828 19.168 C 8.756 19.207,8.612 19.237,8.500 19.237 C 8.388 19.237,8.244 19.207,8.172 19.168 C 7.966 19.058,5.899 17.100,5.825 16.946 C 5.697 16.676,5.773 16.265,5.987 16.072 C 6.103 15.967,6.341 15.880,6.509 15.881 C 6.743 15.882,6.948 16.006,7.360 16.395 L 7.740 16.754 7.760 15.007 C 7.781 13.141,7.782 13.133,7.986 12.955 C 8.210 12.759,8.569 12.702,8.812 12.825 " fill="#1C274C" stroke="none" fill-rule="evenodd"></path></svg>