<svg width="24" height="24" viewBox="0 0 24 24" fill="none" xmlns="http://www.w3.org/2000/svg"><path d="M7.000 2.042 C 5.267 2.116,4.370 2.322,3.617 2.822 C 2.947 3.266,2.534 3.897,2.303 4.829 C 2.056 5.825,2.023 6.438,2.021 10.040 C 2.020 13.513,2.009 13.381,2.295 13.501 C 2.499 13.586,2.694 13.512,3.329 13.106 C 4.216 12.540,4.460 12.457,5.140 12.490 C 5.606 12.512,5.786 12.572,6.352 12.895 C 6.565 13.016,6.884 13.165,7.060 13.227 C 7.358 13.330,7.423 13.338,8.000 13.337 C 8.570 13.335,8.646 13.326,8.940 13.225 C 9.116 13.165,9.435 13.016,9.648 12.895 C 10.295 12.526,10.378 12.502,11.000 12.502 C 11.621 12.502,11.705 12.526,12.352 12.895 C 12.565 13.016,12.884 13.165,13.060 13.227 C 13.358 13.330,13.423 13.338,14.000 13.337 C 14.570 13.335,14.646 13.326,14.940 13.225 C 15.116 13.165,15.435 13.016,15.648 12.895 C 16.295 12.526,16.378 12.502,17.000 12.502 C 17.621 12.502,17.705 12.526,18.352 12.895 C 18.565 13.016,18.884 13.165,19.060 13.227 C 19.358 13.330,19.423 13.338,20.000 13.337 C 20.571 13.335,20.645 13.327,20.940 13.225 C 21.371 13.077,21.735 12.868,21.869 12.692 C 21.975 12.553,21.981 12.522,21.994 12.033 L 22.008 11.520 19.554 11.519 C 16.950 11.519,15.580 11.478,14.960 11.382 C 13.028 11.086,11.914 9.972,11.618 8.040 C 11.520 7.408,11.472 5.884,11.487 3.900 L 11.500 2.020 9.600 2.016 C 8.555 2.014,7.385 2.026,7.000 2.042 M13.011 4.830 C 13.025 6.992,13.038 7.443,13.096 7.794 C 13.317 9.127,13.872 9.682,15.206 9.904 C 15.565 9.964,16.019 9.975,18.595 9.990 C 21.306 10.004,21.569 10.000,21.546 9.942 C 21.480 9.768,21.143 9.337,20.782 8.964 C 20.428 8.597,16.167 4.729,14.660 3.405 C 14.099 2.912,13.475 2.463,13.185 2.344 C 13.100 2.309,13.022 2.280,13.012 2.280 C 13.002 2.280,13.001 3.428,13.011 4.830 M4.440 16.542 C 4.111 16.634,3.867 16.758,3.380 17.080 C 2.547 17.632,2.379 17.772,2.259 18.019 C 2.161 18.219,2.151 18.274,2.172 18.512 C 2.200 18.833,2.356 19.441,2.502 19.800 C 2.640 20.140,2.988 20.662,3.218 20.874 C 3.904 21.506,4.721 21.780,6.360 21.928 C 7.194 22.003,16.806 22.003,17.640 21.928 C 19.012 21.804,19.703 21.621,20.330 21.216 C 20.714 20.968,20.933 20.753,21.179 20.383 C 21.624 19.713,21.818 18.986,21.925 17.592 C 21.963 17.085,21.963 16.951,21.921 16.902 C 21.848 16.814,21.822 16.820,21.421 17.021 C 20.931 17.266,20.528 17.363,20.000 17.363 C 19.332 17.363,19.081 17.284,18.060 16.747 C 17.654 16.534,17.341 16.466,16.880 16.491 C 16.421 16.516,16.178 16.597,15.650 16.899 C 14.549 17.529,13.451 17.529,12.350 16.899 C 11.738 16.549,11.588 16.505,11.000 16.505 C 10.412 16.505,10.262 16.549,9.650 16.899 C 8.994 17.275,8.368 17.420,7.688 17.354 C 7.252 17.312,6.806 17.160,6.350 16.899 C 6.135 16.776,5.856 16.638,5.730 16.593 C 5.420 16.482,4.748 16.456,4.440 16.542 " fill="#1C274C" stroke="none" fill-rule="evenodd"></path></svg>