<svg width="24" height="24" viewBox="0 0 24 24" fill="none" xmlns="http://www.w3.org/2000/svg"><path d="M7.000 2.042 C 5.267 2.116,4.370 2.322,3.617 2.822 C 3.247 3.067,3.032 3.286,2.784 3.670 C 2.379 4.297,2.196 4.988,2.072 6.360 C 1.997 7.194,1.997 16.806,2.072 17.640 C 2.196 19.012,2.379 19.703,2.784 20.330 C 3.032 20.714,3.247 20.933,3.617 21.178 C 4.284 21.620,4.944 21.800,6.360 21.928 C 7.194 22.003,16.806 22.003,17.640 21.928 C 19.012 21.804,19.703 21.621,20.330 21.216 C 20.714 20.968,20.933 20.753,21.178 20.383 C 21.848 19.371,21.998 18.230,21.999 14.116 C 22.000 13.091,21.988 12.088,21.974 11.886 L 21.948 11.520 19.524 11.519 C 16.948 11.519,15.579 11.478,14.960 11.382 C 13.028 11.086,11.914 9.972,11.618 8.040 C 11.520 7.408,11.472 5.884,11.487 3.900 L 11.500 2.020 9.600 2.016 C 8.555 2.014,7.385 2.026,7.000 2.042 M13.011 4.830 C 13.025 6.992,13.038 7.443,13.096 7.794 C 13.317 9.127,13.872 9.682,15.206 9.904 C 15.565 9.964,16.019 9.975,18.595 9.990 C 21.306 10.004,21.569 10.000,21.546 9.942 C 21.480 9.768,21.143 9.337,20.782 8.964 C 20.428 8.597,16.167 4.729,14.660 3.405 C 14.099 2.912,13.475 2.463,13.185 2.344 C 13.100 2.309,13.022 2.280,13.012 2.280 C 13.002 2.280,13.001 3.428,13.011 4.830 M8.296 13.389 C 8.503 13.535,8.617 13.762,8.617 14.024 C 8.617 14.272,8.560 14.364,8.086 14.878 L 7.751 15.240 9.446 15.241 C 11.007 15.242,11.153 15.248,11.300 15.316 C 11.494 15.405,11.616 15.532,11.698 15.729 C 11.844 16.078,11.691 16.480,11.340 16.674 C 11.235 16.732,11.000 16.743,9.493 16.760 L 7.766 16.780 8.162 17.213 C 8.617 17.710,8.677 17.840,8.598 18.170 C 8.517 18.507,8.189 18.761,7.840 18.759 C 7.586 18.757,7.425 18.619,6.399 17.525 C 5.839 16.927,5.349 16.371,5.311 16.289 C 5.223 16.100,5.223 15.900,5.311 15.711 C 5.416 15.484,7.382 13.405,7.579 13.313 C 7.798 13.210,8.086 13.240,8.296 13.389 " fill="#1C274C" stroke="none" fill-rule="evenodd"></path></svg>