<svg width="24" height="24" viewBox="0 0 24 24" fill="none" xmlns="http://www.w3.org/2000/svg"><path d="M7.000 2.042 C 5.267 2.116,4.370 2.322,3.617 2.822 C 3.247 3.067,3.032 3.286,2.784 3.670 C 2.379 4.297,2.196 4.988,2.072 6.360 C 1.997 7.194,1.997 16.806,2.072 17.640 C 2.196 19.012,2.379 19.703,2.784 20.330 C 3.032 20.714,3.247 20.933,3.617 21.178 C 4.284 21.620,4.944 21.800,6.360 21.928 C 7.194 22.003,16.806 22.003,17.640 21.928 C 19.012 21.804,19.703 21.621,20.330 21.216 C 20.714 20.968,20.933 20.753,21.178 20.383 C 21.848 19.371,21.998 18.230,21.999 14.116 C 22.000 13.091,21.988 12.088,21.974 11.886 L 21.948 11.520 19.524 11.519 C 16.948 11.519,15.579 11.478,14.960 11.382 C 13.028 11.086,11.914 9.972,11.618 8.040 C 11.520 7.408,11.472 5.884,11.487 3.900 L 11.500 2.020 9.600 2.016 C 8.555 2.014,7.385 2.026,7.000 2.042 M13.011 4.830 C 13.025 6.992,13.038 7.443,13.096 7.794 C 13.317 9.127,13.872 9.682,15.206 9.904 C 15.565 9.964,16.019 9.975,18.595 9.990 C 21.306 10.004,21.569 10.000,21.546 9.942 C 21.480 9.768,21.143 9.337,20.782 8.964 C 20.428 8.597,16.167 4.729,14.660 3.405 C 14.099 2.912,13.475 2.463,13.185 2.344 C 13.100 2.309,13.022 2.280,13.012 2.280 C 13.002 2.280,13.001 3.428,13.011 4.830 M6.271 14.302 C 6.360 14.338,6.637 14.579,6.961 14.902 L 7.501 15.440 8.021 14.916 C 8.319 14.614,8.608 14.360,8.700 14.317 C 9.084 14.137,9.527 14.320,9.698 14.729 C 9.856 15.107,9.752 15.317,9.084 15.979 L 8.560 16.499 9.098 17.039 C 9.764 17.708,9.855 17.895,9.698 18.271 C 9.616 18.468,9.494 18.595,9.300 18.684 C 8.910 18.865,8.693 18.763,8.021 18.084 L 7.501 17.560 6.961 18.098 C 6.292 18.764,6.105 18.855,5.729 18.698 C 5.532 18.616,5.405 18.494,5.316 18.300 C 5.135 17.910,5.237 17.693,5.916 17.021 L 6.440 16.501 5.902 15.961 C 5.236 15.292,5.145 15.105,5.302 14.729 C 5.384 14.532,5.506 14.405,5.700 14.316 C 5.896 14.225,6.076 14.221,6.271 14.302 " fill="#1C274C" stroke="none" fill-rule="evenodd"></path></svg>