<svg width="24" height="24" viewBox="0 0 24 24" fill="none" xmlns="http://www.w3.org/2000/svg"><path d="M7.000 2.042 C 5.267 2.116,4.370 2.322,3.617 2.822 C 3.247 3.067,3.032 3.286,2.784 3.670 C 2.379 4.297,2.196 4.988,2.072 6.360 C 1.997 7.194,1.997 16.806,2.072 17.640 C 2.196 19.012,2.379 19.703,2.784 20.330 C 3.032 20.714,3.247 20.933,3.617 21.178 C 4.284 21.620,4.944 21.800,6.360 21.928 C 7.194 22.003,16.806 22.003,17.640 21.928 C 19.012 21.804,19.703 21.621,20.330 21.216 C 20.714 20.968,20.933 20.753,21.178 20.383 C 21.848 19.371,21.998 18.230,21.999 14.116 C 22.000 13.091,21.988 12.088,21.974 11.886 L 21.948 11.520 19.524 11.519 C 16.948 11.519,15.579 11.478,14.960 11.382 C 13.028 11.086,11.914 9.972,11.618 8.040 C 11.520 7.408,11.472 5.884,11.487 3.900 L 11.500 2.020 9.600 2.016 C 8.555 2.014,7.385 2.026,7.000 2.042 M13.011 4.830 C 13.025 6.992,13.038 7.443,13.096 7.794 C 13.317 9.127,13.872 9.682,15.206 9.904 C 15.565 9.964,16.019 9.975,18.595 9.990 C 21.306 10.004,21.569 10.000,21.546 9.942 C 21.480 9.768,21.143 9.337,20.782 8.964 C 20.428 8.597,16.167 4.729,14.660 3.405 C 14.099 2.912,13.475 2.463,13.185 2.344 C 13.100 2.309,13.022 2.280,13.012 2.280 C 13.002 2.280,13.001 3.428,13.011 4.830 M8.828 12.832 C 9.034 12.942,11.101 14.900,11.175 15.054 C 11.303 15.324,11.227 15.735,11.013 15.928 C 10.897 16.033,10.659 16.120,10.491 16.119 C 10.257 16.118,10.052 15.994,9.640 15.605 L 9.260 15.246 9.240 16.993 C 9.223 18.515,9.212 18.755,9.154 18.860 C 8.925 19.277,8.353 19.368,7.986 19.045 C 7.782 18.866,7.781 18.859,7.760 16.993 L 7.740 15.246 7.360 15.605 C 6.948 15.994,6.743 16.118,6.509 16.119 C 6.341 16.120,6.103 16.033,5.987 15.928 C 5.773 15.735,5.697 15.324,5.825 15.054 C 5.899 14.900,7.966 12.942,8.172 12.832 C 8.244 12.793,8.388 12.763,8.500 12.763 C 8.612 12.763,8.756 12.793,8.828 12.832 " fill="#1C274C" stroke="none" fill-rule="evenodd"></path></svg>