<svg width="24" height="24" viewBox="0 0 24 24" fill="none" xmlns="http://www.w3.org/2000/svg"><path d="M7.340 2.027 C 6.674 2.046,5.743 2.126,5.300 2.201 C 3.431 2.519,2.501 3.463,2.186 5.360 C 2.027 6.313,2.020 6.613,2.020 12.060 C 2.020 16.872,2.026 17.395,2.091 17.957 C 2.262 19.433,2.551 20.195,3.178 20.822 C 3.926 21.570,4.854 21.851,6.940 21.962 C 8.040 22.021,17.239 21.990,17.820 21.926 C 19.212 21.772,19.994 21.522,20.589 21.040 C 21.384 20.396,21.746 19.517,21.925 17.800 C 21.975 17.317,22.022 12.259,21.981 11.815 L 21.953 11.520 19.527 11.519 C 15.346 11.518,14.509 11.438,13.528 10.944 C 12.697 10.525,12.028 9.682,11.763 8.719 C 11.560 7.976,11.549 7.800,11.524 4.820 L 11.500 2.020 9.600 2.018 C 8.555 2.017,7.538 2.021,7.340 2.027 M13.000 4.350 C 13.000 7.354,13.067 8.114,13.386 8.759 C 13.776 9.548,14.447 9.864,15.942 9.959 C 16.622 10.002,21.560 10.017,21.560 9.975 C 21.560 9.888,21.120 9.318,20.781 8.966 C 20.424 8.595,15.470 4.100,14.467 3.238 C 14.010 2.845,13.547 2.518,13.253 2.378 C 13.138 2.324,13.035 2.280,13.022 2.280 C 13.010 2.280,13.000 3.212,13.000 4.350 " fill="#1C274C" stroke="none" fill-rule="evenodd"></path></svg>