<svg width="24" height="24" viewBox="0 0 24 24" fill="none" xmlns="http://www.w3.org/2000/svg"><path d="M7.000 2.042 C 5.267 2.116,4.370 2.322,3.617 2.822 C 3.247 3.067,3.032 3.286,2.784 3.670 C 2.379 4.297,2.196 4.988,2.072 6.360 C 1.997 7.194,1.997 16.806,2.072 17.640 C 2.196 19.012,2.379 19.703,2.784 20.330 C 3.032 20.714,3.247 20.933,3.617 21.178 C 4.284 21.620,4.944 21.800,6.360 21.928 C 7.194 22.003,16.806 22.003,17.640 21.928 C 19.012 21.804,19.703 21.621,20.330 21.216 C 20.714 20.968,20.933 20.753,21.178 20.383 C 21.848 19.371,21.998 18.230,21.999 14.116 C 22.000 13.091,21.988 12.088,21.974 11.886 L 21.948 11.520 19.524 11.519 C 16.948 11.519,15.579 11.478,14.960 11.382 C 13.028 11.086,11.914 9.972,11.618 8.040 C 11.520 7.408,11.472 5.884,11.487 3.900 L 11.500 2.020 9.600 2.016 C 8.555 2.014,7.385 2.026,7.000 2.042 M13.011 4.830 C 13.025 6.992,13.038 7.443,13.096 7.794 C 13.317 9.127,13.872 9.682,15.206 9.904 C 15.565 9.964,16.019 9.975,18.595 9.990 C 21.306 10.004,21.569 10.000,21.546 9.942 C 21.480 9.768,21.143 9.337,20.782 8.964 C 20.428 8.597,16.167 4.729,14.660 3.405 C 14.099 2.912,13.475 2.463,13.185 2.344 C 13.100 2.309,13.022 2.280,13.012 2.280 C 13.002 2.280,13.001 3.428,13.011 4.830 M9.317 12.192 C 9.418 12.297,9.625 12.606,9.778 12.878 C 10.116 13.480,10.204 13.588,10.393 13.635 C 10.474 13.655,10.747 13.721,11.000 13.780 C 11.550 13.910,11.816 14.016,11.921 14.151 C 12.103 14.382,11.985 14.643,11.366 15.375 C 11.145 15.637,10.953 15.899,10.940 15.958 C 10.927 16.017,10.943 16.370,10.976 16.743 C 11.044 17.526,11.019 17.768,10.858 17.910 C 10.672 18.073,10.439 18.023,9.600 17.637 C 9.323 17.510,9.084 17.426,9.000 17.426 C 8.916 17.426,8.677 17.510,8.400 17.637 C 7.561 18.023,7.328 18.073,7.142 17.910 C 6.981 17.768,6.956 17.526,7.024 16.743 C 7.057 16.370,7.073 16.017,7.060 15.958 C 7.047 15.899,6.855 15.637,6.634 15.375 C 5.713 14.286,5.763 14.071,7.000 13.780 C 7.253 13.721,7.526 13.655,7.607 13.635 C 7.796 13.588,7.884 13.480,8.222 12.878 C 8.561 12.275,8.804 12.000,9.000 12.000 C 9.109 12.000,9.170 12.037,9.317 12.192 " fill="#1C274C" stroke="none" fill-rule="evenodd"></path></svg>