<svg width="24" height="24" viewBox="0 0 24 24" fill="none" xmlns="http://www.w3.org/2000/svg"><path d="M7.000 2.042 C 5.267 2.116,4.370 2.322,3.617 2.822 C 3.247 3.067,3.032 3.286,2.784 3.670 C 2.379 4.297,2.196 4.988,2.072 6.360 C 1.997 7.194,1.997 16.806,2.072 17.640 C 2.196 19.012,2.379 19.703,2.784 20.330 C 3.032 20.714,3.247 20.933,3.617 21.178 C 4.284 21.620,4.944 21.800,6.360 21.928 C 7.194 22.003,16.806 22.003,17.640 21.928 C 19.012 21.804,19.703 21.621,20.330 21.216 C 20.714 20.968,20.933 20.753,21.178 20.383 C 21.848 19.371,21.998 18.230,21.999 14.116 C 22.000 13.091,21.988 12.088,21.974 11.886 L 21.948 11.520 19.524 11.519 C 16.948 11.519,15.579 11.478,14.960 11.382 C 13.028 11.086,11.914 9.972,11.618 8.040 C 11.520 7.408,11.472 5.884,11.487 3.900 L 11.500 2.020 9.600 2.016 C 8.555 2.014,7.385 2.026,7.000 2.042 M13.011 4.830 C 13.025 6.992,13.038 7.443,13.096 7.794 C 13.317 9.127,13.872 9.682,15.206 9.904 C 15.565 9.964,16.019 9.975,18.595 9.990 C 21.306 10.004,21.569 10.000,21.546 9.942 C 21.480 9.768,21.143 9.337,20.782 8.964 C 20.428 8.597,16.167 4.729,14.660 3.405 C 14.099 2.912,13.475 2.463,13.185 2.344 C 13.100 2.309,13.022 2.280,13.012 2.280 C 13.002 2.280,13.001 3.428,13.011 4.830 M9.420 13.315 C 9.533 13.366,9.877 13.704,10.600 14.477 C 11.161 15.076,11.643 15.611,11.672 15.665 C 11.762 15.834,11.771 16.123,11.691 16.289 C 11.652 16.371,11.157 16.932,10.591 17.536 C 9.735 18.448,9.531 18.644,9.382 18.701 C 8.893 18.888,8.386 18.519,8.384 17.975 C 8.383 17.728,8.439 17.637,8.914 17.122 L 9.249 16.760 7.554 16.759 C 5.993 16.758,5.847 16.752,5.700 16.684 C 5.506 16.595,5.384 16.468,5.302 16.271 C 5.156 15.922,5.309 15.520,5.660 15.326 C 5.765 15.268,6.000 15.257,7.505 15.240 L 9.230 15.220 8.836 14.788 C 8.383 14.291,8.323 14.159,8.402 13.830 C 8.512 13.373,9.002 13.124,9.420 13.315 " fill="#1C274C" stroke="none" fill-rule="evenodd"></path></svg>