<svg width="24" height="24" viewBox="0 0 24 24" fill="none" xmlns="http://www.w3.org/2000/svg"><path d="M7.000 2.042 C 5.267 2.116,4.370 2.322,3.617 2.822 C 3.247 3.067,3.032 3.286,2.784 3.670 C 2.379 4.297,2.196 4.988,2.072 6.360 C 1.997 7.194,1.997 16.806,2.072 17.640 C 2.196 19.012,2.379 19.703,2.784 20.330 C 3.032 20.714,3.247 20.933,3.617 21.178 C 4.284 21.620,4.944 21.800,6.360 21.928 C 7.194 22.003,16.806 22.003,17.640 21.928 C 19.012 21.804,19.703 21.621,20.330 21.216 C 20.714 20.968,20.933 20.753,21.178 20.383 C 21.848 19.371,21.998 18.230,21.999 14.116 C 22.000 13.091,21.988 12.088,21.974 11.886 L 21.948 11.520 19.524 11.519 C 16.948 11.519,15.579 11.478,14.960 11.382 C 13.028 11.086,11.914 9.972,11.618 8.040 C 11.520 7.408,11.472 5.884,11.487 3.900 L 11.500 2.020 9.600 2.016 C 8.555 2.014,7.385 2.026,7.000 2.042 M13.011 4.830 C 13.025 6.992,13.038 7.443,13.096 7.794 C 13.317 9.127,13.872 9.682,15.206 9.904 C 15.565 9.964,16.019 9.975,18.595 9.990 C 21.306 10.004,21.569 10.000,21.546 9.942 C 21.480 9.768,21.143 9.337,20.782 8.964 C 20.428 8.597,16.167 4.729,14.660 3.405 C 14.099 2.912,13.475 2.463,13.185 2.344 C 13.100 2.309,13.022 2.280,13.012 2.280 C 13.002 2.280,13.001 3.428,13.011 4.830 M7.300 13.075 C 7.498 13.164,7.700 13.389,7.824 13.657 C 8.107 14.266,8.037 15.124,7.665 15.611 C 7.174 16.254,6.443 16.066,6.119 15.211 C 6.012 14.929,5.972 14.388,6.036 14.080 C 6.166 13.454,6.570 13.002,7.000 13.002 C 7.077 13.002,7.212 13.035,7.300 13.075 M17.300 13.075 C 17.498 13.164,17.700 13.389,17.824 13.657 C 18.107 14.266,18.037 15.124,17.665 15.611 C 17.174 16.254,16.443 16.066,16.119 15.211 C 16.012 14.929,15.972 14.388,16.036 14.080 C 16.166 13.454,16.570 13.002,17.000 13.002 C 17.077 13.002,17.212 13.035,17.300 13.075 M9.363 16.855 C 9.460 16.907,9.676 17.023,9.841 17.113 C 11.136 17.813,12.864 17.813,14.159 17.113 C 14.324 17.023,14.540 16.907,14.637 16.855 C 15.039 16.639,15.488 16.796,15.684 17.220 C 15.847 17.572,15.711 17.924,15.311 18.186 C 14.723 18.571,13.934 18.889,13.167 19.049 C 12.553 19.177,11.447 19.177,10.833 19.049 C 10.066 18.889,9.277 18.571,8.689 18.186 C 8.300 17.932,8.159 17.590,8.302 17.249 C 8.486 16.808,8.953 16.635,9.363 16.855 " fill="#1C274C" stroke="none" fill-rule="evenodd"></path></svg>