<svg width="24" height="24" viewBox="0 0 24 24" fill="none" xmlns="http://www.w3.org/2000/svg"><path d="M7.000 2.042 C 5.267 2.116,4.370 2.322,3.617 2.822 C 3.247 3.067,3.032 3.286,2.784 3.670 C 2.379 4.297,2.196 4.988,2.072 6.360 C 1.997 7.194,1.997 16.806,2.072 17.640 C 2.196 19.012,2.379 19.703,2.784 20.330 C 3.032 20.714,3.247 20.933,3.617 21.178 C 4.284 21.620,4.944 21.800,6.360 21.928 C 7.194 22.003,16.806 22.003,17.640 21.928 C 19.012 21.804,19.703 21.621,20.330 21.216 C 20.714 20.968,20.933 20.753,21.178 20.383 C 21.848 19.371,21.998 18.230,21.999 14.116 C 22.000 13.091,21.988 12.088,21.974 11.886 L 21.948 11.520 19.524 11.519 C 16.948 11.519,15.579 11.478,14.960 11.382 C 13.028 11.086,11.914 9.972,11.618 8.040 C 11.520 7.408,11.472 5.884,11.487 3.900 L 11.500 2.020 9.600 2.016 C 8.555 2.014,7.385 2.026,7.000 2.042 M13.011 4.830 C 13.025 6.992,13.038 7.443,13.096 7.794 C 13.317 9.127,13.872 9.682,15.206 9.904 C 15.565 9.964,16.019 9.975,18.595 9.990 C 21.306 10.004,21.569 10.000,21.546 9.942 C 21.480 9.768,21.143 9.337,20.782 8.964 C 20.428 8.597,16.167 4.729,14.660 3.405 C 14.099 2.912,13.475 2.463,13.185 2.344 C 13.100 2.309,13.022 2.280,13.012 2.280 C 13.002 2.280,13.001 3.428,13.011 4.830 M10.219 14.285 C 10.653 14.405,10.877 14.954,10.658 15.359 C 10.628 15.414,9.977 16.162,9.212 17.020 C 7.681 18.736,7.627 18.784,7.266 18.744 C 7.159 18.732,7.020 18.690,6.957 18.650 C 6.781 18.539,5.398 16.965,5.315 16.781 C 5.222 16.577,5.222 16.423,5.315 16.220 C 5.464 15.891,5.768 15.724,6.129 15.772 C 6.345 15.801,6.426 15.866,6.896 16.384 C 7.114 16.624,7.306 16.826,7.323 16.832 C 7.340 16.839,7.852 16.286,8.460 15.602 C 9.068 14.919,9.569 14.360,9.573 14.359 C 9.577 14.359,9.652 14.333,9.740 14.301 C 9.936 14.231,10.015 14.228,10.219 14.285 " fill="#1C274C" stroke="none" fill-rule="evenodd"></path></svg>