<svg width="24" height="24" viewBox="0 0 24 24" fill="none" xmlns="http://www.w3.org/2000/svg"><path d="M3.489 3.042 C 2.889 3.101,2.544 3.255,2.308 3.567 C 2.038 3.926,1.990 4.371,2.010 6.326 C 2.027 8.057,2.037 8.135,2.287 8.529 C 2.534 8.917,2.734 9.048,5.320 10.501 C 6.409 11.113,7.453 11.708,7.640 11.823 C 8.229 12.186,8.640 12.695,8.866 13.340 L 8.978 13.660 9.001 16.200 C 9.028 19.075,9.019 18.995,9.339 19.350 C 9.557 19.593,9.841 19.745,10.740 20.100 C 13.285 21.106,13.908 21.206,14.471 20.701 C 14.693 20.500,14.798 20.291,14.902 19.840 C 14.962 19.577,14.974 19.179,14.997 16.600 L 15.022 13.660 15.138 13.324 C 15.362 12.677,15.798 12.156,16.440 11.772 C 16.627 11.660,17.693 11.054,18.809 10.426 C 20.974 9.207,21.238 9.046,21.522 8.762 C 21.962 8.321,22.012 8.018,21.989 5.904 C 21.976 4.655,21.959 4.251,21.913 4.080 C 21.758 3.505,21.478 3.234,20.887 3.089 C 20.644 3.029,19.855 3.023,12.220 3.017 C 7.600 3.013,3.671 3.024,3.489 3.042 " fill="#1C274C" stroke="none" fill-rule="evenodd"></path></svg>