<svg width="24" height="24" viewBox="0 0 24 24" fill="none" xmlns="http://www.w3.org/2000/svg"><path d="M11.200 2.058 C 10.483 2.161,9.933 2.332,9.320 2.640 C 7.658 3.475,6.527 4.951,6.111 6.830 C 5.986 7.395,5.986 8.605,6.111 9.170 C 6.651 11.608,8.393 13.350,10.826 13.887 C 11.397 14.013,12.603 14.013,13.174 13.887 C 15.605 13.351,17.351 11.605,17.887 9.174 C 18.013 8.603,18.013 7.397,17.887 6.826 C 17.341 4.351,15.474 2.529,13.041 2.097 C 12.552 2.010,11.660 1.991,11.200 2.058 M4.656 11.033 C 2.867 12.216,1.839 14.358,2.033 16.500 C 2.265 19.074,4.021 21.154,6.506 21.801 C 8.945 22.435,11.548 21.450,12.960 19.359 C 13.538 18.503,13.868 17.575,13.964 16.534 C 14.023 15.902,13.985 15.222,13.893 15.257 C 13.708 15.328,12.976 15.445,12.499 15.479 C 9.480 15.694,6.624 14.044,5.273 11.302 C 5.144 11.039,5.032 10.818,5.025 10.811 C 5.017 10.804,4.851 10.904,4.656 11.033 M18.743 11.271 C 18.311 12.157,17.705 12.956,16.960 13.622 C 16.606 13.939,15.935 14.410,15.591 14.585 C 15.392 14.685,15.391 14.687,15.416 14.842 C 15.540 15.618,15.516 16.666,15.357 17.460 C 15.102 18.734,14.460 20.024,13.604 20.979 C 13.232 21.396,13.212 21.341,13.820 21.579 C 14.981 22.034,16.292 22.113,17.494 21.801 C 19.624 21.247,21.247 19.623,21.802 17.490 C 22.028 16.618,22.049 15.627,21.860 14.742 C 21.549 13.286,20.618 11.889,19.420 11.081 C 18.936 10.755,19.004 10.736,18.743 11.271 " fill="#1C274C" stroke="none" fill-rule="evenodd"></path></svg>