<svg width="24" height="24" viewBox="0 0 24 24" fill="none" xmlns="http://www.w3.org/2000/svg"><path d="M12.580 2.613 C 12.374 2.708,12.192 2.889,12.095 3.098 C 12.003 3.295,12.001 3.329,12.000 4.426 C 12.000 6.049,11.905 6.776,11.562 7.804 C 11.242 8.762,10.833 9.454,10.243 10.040 C 9.800 10.479,9.537 10.639,9.203 10.669 C 8.655 10.719,8.067 10.213,7.884 9.536 C 7.860 9.447,7.813 9.123,7.779 8.817 C 7.690 8.011,7.638 7.851,7.370 7.555 C 7.187 7.351,6.889 7.199,6.620 7.172 C 6.208 7.129,5.858 7.329,5.174 7.998 C 4.214 8.937,3.632 9.899,3.275 11.132 C 3.058 11.883,3.023 12.176,3.023 13.220 C 3.023 14.186,3.053 14.547,3.203 15.365 C 3.743 18.308,5.544 20.497,8.244 21.495 C 9.076 21.802,10.141 22.003,10.912 21.997 L 11.300 21.994 10.940 21.919 C 9.264 21.566,8.228 20.511,8.037 18.960 C 7.870 17.605,8.385 16.274,9.485 15.218 C 10.048 14.679,10.637 14.280,10.872 14.280 C 10.972 14.280,11.042 14.314,11.138 14.410 L 11.269 14.541 11.289 15.140 C 11.307 15.677,11.322 15.779,11.435 16.114 C 11.643 16.729,11.933 17.129,12.210 17.181 C 12.609 17.256,12.994 16.847,13.102 16.233 C 13.133 16.054,13.243 15.947,13.393 15.947 C 13.553 15.947,13.941 16.224,14.255 16.564 C 14.789 17.140,15.028 17.835,14.985 18.680 C 14.913 20.071,14.350 21.031,13.269 21.604 C 13.110 21.689,12.999 21.758,13.023 21.759 C 13.047 21.760,13.290 21.699,13.563 21.624 C 16.149 20.914,18.086 19.393,19.122 17.260 C 19.660 16.150,19.938 14.943,19.987 13.500 C 20.058 11.389,19.534 9.403,18.418 7.555 C 17.332 5.756,15.597 4.056,13.609 2.842 C 13.243 2.618,13.170 2.589,12.949 2.574 C 12.790 2.564,12.656 2.578,12.580 2.613 " fill="#1C274C" stroke="none" fill-rule="evenodd"></path></svg>