<svg width="24" height="24" viewBox="0 0 24 24" fill="none" xmlns="http://www.w3.org/2000/svg"><path d="M9.172 3.070 C 8.953 3.190,8.094 3.990,7.637 4.498 C 5.628 6.733,4.483 9.133,4.095 11.924 C 4.008 12.553,3.995 14.116,4.073 14.560 C 4.368 16.234,5.120 17.642,6.328 18.782 C 7.511 19.900,8.962 20.604,10.702 20.906 C 11.262 21.004,12.738 21.004,13.298 20.906 C 15.038 20.604,16.489 19.900,17.672 18.782 C 18.878 17.644,19.633 16.230,19.927 14.560 C 20.007 14.105,19.995 12.655,19.906 12.080 C 19.655 10.448,19.100 8.968,18.193 7.504 C 17.783 6.843,17.119 6.000,16.668 5.570 C 16.430 5.342,16.392 5.320,16.233 5.320 C 15.918 5.320,15.841 5.404,15.464 6.148 C 14.566 7.925,13.505 9.110,12.422 9.547 C 12.009 9.714,11.646 9.772,11.146 9.753 C 10.795 9.740,10.705 9.721,10.478 9.615 C 9.691 9.245,9.281 8.342,9.280 6.980 C 9.280 6.148,9.454 5.018,9.737 4.012 C 9.855 3.591,9.865 3.405,9.779 3.239 C 9.712 3.109,9.535 3.000,9.391 3.000 C 9.340 3.000,9.242 3.031,9.172 3.070 " fill="#1C274C" stroke="none" fill-rule="evenodd"></path></svg>