<svg width="24" height="24" viewBox="0 0 24 24" fill="none" xmlns="http://www.w3.org/2000/svg"><path d="M8.419 2.043 C 5.807 2.139,4.481 2.507,3.549 3.393 C 2.551 4.342,2.166 5.587,2.041 8.260 C 1.988 9.399,1.988 14.601,2.041 15.740 C 2.160 18.285,2.507 19.501,3.379 20.433 C 4.323 21.444,5.571 21.833,8.260 21.959 C 9.399 22.012,14.601 22.012,15.740 21.959 C 18.285 21.840,19.501 21.493,20.433 20.621 C 21.360 19.755,21.742 18.682,21.927 16.420 C 22.002 15.512,22.002 8.488,21.927 7.580 C 21.743 5.332,21.366 4.263,20.451 3.393 C 19.495 2.484,18.240 2.146,15.417 2.041 C 14.194 1.995,9.686 1.997,8.419 2.043 M13.805 6.922 C 14.135 7.088,14.861 7.754,15.353 8.340 C 16.564 9.786,17.119 11.467,16.968 13.233 C 16.804 15.139,15.910 16.525,14.320 17.336 C 13.032 17.994,11.652 18.164,10.444 17.814 C 8.663 17.300,7.449 15.895,7.118 13.966 C 6.958 13.035,6.973 12.196,7.163 11.480 C 7.354 10.758,7.907 9.893,8.494 9.395 C 8.948 9.010,9.138 8.913,9.397 8.932 C 9.582 8.945,9.631 8.967,9.739 9.085 C 9.845 9.201,9.872 9.273,9.911 9.545 C 10.021 10.324,10.398 10.840,10.858 10.840 C 11.137 10.840,11.319 10.687,11.616 10.204 C 11.985 9.602,12.217 8.886,12.284 8.145 C 12.333 7.593,12.408 7.379,12.632 7.147 C 12.968 6.799,13.398 6.716,13.805 6.922 " fill="#1C274C" stroke="none" fill-rule="evenodd"></path></svg>