<svg width="24" height="24" viewBox="0 0 24 24" fill="none" xmlns="http://www.w3.org/2000/svg"><path d="M5.460 1.076 C 5.257 1.170,5.089 1.348,5.039 1.523 C 5.014 1.610,5.000 5.285,5.001 11.780 C 5.002 21.578,5.004 21.905,5.077 22.065 C 5.118 22.155,5.212 22.276,5.286 22.332 C 5.416 22.431,5.721 22.528,5.815 22.500 C 5.840 22.493,5.909 22.476,5.969 22.463 C 6.105 22.433,6.342 22.229,6.432 22.064 C 6.495 21.950,6.501 21.606,6.511 17.772 C 6.521 13.864,6.526 13.604,6.591 13.584 C 6.740 13.541,8.520 13.202,8.840 13.156 C 9.027 13.130,9.522 13.108,9.940 13.109 C 11.116 13.109,11.870 13.250,13.139 13.707 C 13.965 14.004,14.619 14.172,15.292 14.259 C 15.834 14.329,16.775 14.338,17.300 14.278 C 17.773 14.225,18.602 14.053,18.866 13.954 C 19.164 13.843,19.450 13.571,19.609 13.248 L 19.740 12.982 19.740 9.021 C 19.740 4.550,19.761 4.853,19.425 4.489 C 19.069 4.102,18.732 4.027,18.016 4.175 C 17.287 4.326,16.742 4.373,16.040 4.347 C 15.018 4.309,14.376 4.170,13.216 3.738 C 12.442 3.450,11.813 3.279,11.140 3.176 C 10.611 3.096,9.346 3.084,8.840 3.156 C 8.518 3.202,6.740 3.541,6.590 3.585 C 6.525 3.604,6.520 3.543,6.519 2.693 C 6.518 2.191,6.499 1.699,6.477 1.601 C 6.367 1.126,5.887 0.878,5.460 1.076 " fill="#1C274C" stroke="none" fill-rule="evenodd"></path></svg>