<svg width="24" height="24" viewBox="0 0 24 24" fill="none" xmlns="http://www.w3.org/2000/svg"><path d="M5.460 1.076 C 5.257 1.170,5.089 1.348,5.039 1.523 C 5.014 1.610,5.000 5.285,5.001 11.780 C 5.002 21.578,5.004 21.905,5.077 22.065 C 5.118 22.155,5.212 22.276,5.286 22.332 C 5.416 22.431,5.721 22.528,5.815 22.500 C 5.840 22.493,5.909 22.476,5.969 22.463 C 6.105 22.433,6.342 22.229,6.432 22.064 C 6.495 21.950,6.501 21.606,6.511 17.772 C 6.521 13.864,6.526 13.604,6.591 13.584 C 6.740 13.541,8.520 13.202,8.840 13.156 C 9.027 13.130,9.522 13.108,9.940 13.109 C 11.116 13.109,11.870 13.250,13.139 13.707 C 14.368 14.149,15.264 14.320,16.352 14.320 C 17.009 14.319,17.468 14.276,18.060 14.157 C 18.670 14.035,18.814 13.978,18.992 13.784 C 19.187 13.573,19.254 13.378,19.232 13.086 C 19.217 12.873,19.158 12.763,18.223 11.204 C 17.677 10.293,17.184 9.447,17.128 9.324 C 17.045 9.142,17.025 9.036,17.023 8.760 C 17.019 8.319,17.047 8.260,18.084 6.533 C 18.528 5.793,18.909 5.119,18.931 5.033 C 19.015 4.702,18.775 4.296,18.436 4.194 C 18.266 4.143,18.261 4.144,17.440 4.299 C 16.651 4.449,15.589 4.416,14.680 4.214 C 14.232 4.114,14.036 4.050,13.003 3.661 C 12.426 3.444,11.764 3.272,11.140 3.176 C 10.611 3.096,9.346 3.084,8.840 3.156 C 8.518 3.202,6.740 3.541,6.590 3.585 C 6.525 3.604,6.520 3.543,6.519 2.693 C 6.518 2.191,6.499 1.699,6.477 1.601 C 6.367 1.126,5.887 0.878,5.460 1.076 " fill="#1C274C" stroke="none" fill-rule="evenodd"></path></svg>