<svg width="24" height="24" viewBox="0 0 24 24" fill="none" xmlns="http://www.w3.org/2000/svg"><path d="M10.800 2.676 C 10.337 2.772,10.119 3.008,9.781 3.780 C 9.272 4.939,8.622 6.063,7.120 8.380 C 5.660 10.632,5.336 11.167,4.861 12.117 C 4.138 13.562,3.906 14.575,4.039 15.709 C 4.264 17.639,5.341 19.277,7.180 20.491 C 7.632 20.789,7.968 20.960,8.101 20.960 C 8.350 20.960,8.560 20.723,8.560 20.443 C 8.560 20.374,8.514 20.227,8.459 20.118 C 8.092 19.393,7.819 18.514,7.766 17.882 C 7.672 16.766,8.011 15.947,9.038 14.809 C 9.440 14.363,9.658 14.200,9.852 14.200 C 10.057 14.200,10.186 14.330,10.738 15.095 C 10.958 15.398,11.186 15.672,11.246 15.703 C 11.560 15.866,11.747 15.703,12.117 14.946 C 12.632 13.891,12.898 12.822,13.002 11.387 C 13.069 10.466,13.071 10.456,13.200 10.326 C 13.457 10.069,13.713 10.137,14.075 10.558 C 15.489 12.200,16.416 13.825,16.706 15.169 C 16.804 15.624,16.803 16.449,16.704 16.980 C 16.482 18.175,15.973 19.357,15.104 20.699 C 14.854 21.085,14.820 21.160,14.820 21.326 C 14.820 21.579,14.980 21.760,15.205 21.760 C 15.701 21.760,17.051 21.044,17.799 20.385 C 19.218 19.133,20.000 17.241,20.000 15.058 C 20.000 12.369,18.348 9.280,15.180 6.045 C 14.784 5.641,14.208 5.080,13.900 4.799 C 12.911 3.897,11.613 2.836,11.380 2.739 C 11.212 2.669,10.965 2.642,10.800 2.676 " fill="#1C274C" stroke="none" fill-rule="evenodd"></path></svg>