<svg width="24" height="24" viewBox="0 0 24 24" fill="none" xmlns="http://www.w3.org/2000/svg"><path d="M11.811 1.278 C 11.639 1.320,11.417 1.493,11.330 1.652 C 11.267 1.767,11.259 1.947,11.248 3.409 C 11.240 4.537,11.251 5.091,11.282 5.208 C 11.434 5.772,12.194 5.932,12.574 5.480 C 12.754 5.266,12.764 5.146,12.752 3.409 C 12.741 1.851,12.736 1.774,12.658 1.641 C 12.494 1.361,12.122 1.202,11.811 1.278 M5.807 2.289 C 5.434 2.369,5.201 2.767,5.286 3.178 C 5.327 3.373,5.369 3.421,6.474 4.526 C 7.556 5.608,7.631 5.674,7.810 5.711 C 8.390 5.831,8.832 5.389,8.711 4.810 C 8.673 4.631,8.605 4.553,7.568 3.511 C 6.962 2.901,6.410 2.377,6.343 2.346 C 6.163 2.264,6.002 2.247,5.807 2.289 M17.800 2.289 C 17.634 2.324,17.533 2.414,16.475 3.473 C 15.446 4.505,15.326 4.638,15.288 4.798 C 15.150 5.367,15.609 5.831,16.190 5.711 C 16.369 5.674,16.444 5.608,17.526 4.526 C 18.611 3.441,18.674 3.370,18.711 3.189 C 18.832 2.604,18.388 2.167,17.800 2.289 M4.904 8.044 C 4.604 8.088,4.344 8.213,4.235 8.366 C 4.079 8.586,4.033 8.828,4.011 9.550 L 3.989 10.240 12.000 10.240 L 20.011 10.240 19.989 9.550 C 19.964 8.749,19.909 8.511,19.699 8.301 C 19.622 8.224,19.467 8.132,19.350 8.092 C 19.152 8.024,18.750 8.020,12.140 8.015 C 8.290 8.011,5.034 8.025,4.904 8.044 M6.504 13.496 L 8.220 15.232 12.000 15.231 L 15.780 15.230 17.497 13.495 L 19.215 11.760 12.001 11.760 L 4.788 11.760 6.504 13.496 M9.009 18.950 C 9.026 21.398,9.029 21.426,9.302 21.699 C 9.576 21.974,9.636 21.980,12.000 21.980 C 14.364 21.980,14.424 21.974,14.698 21.699 C 14.971 21.426,14.974 21.398,14.991 18.950 L 15.005 16.760 12.000 16.760 L 8.995 16.760 9.009 18.950 M12.271 18.302 C 12.468 18.384,12.595 18.506,12.684 18.700 C 12.746 18.834,12.758 18.962,12.758 19.500 C 12.758 20.194,12.720 20.360,12.515 20.548 C 12.129 20.903,11.537 20.781,11.316 20.300 C 11.254 20.166,11.242 20.037,11.241 19.509 C 11.240 18.690,11.316 18.493,11.700 18.316 C 11.897 18.225,12.076 18.221,12.271 18.302 " fill="#1C274C" stroke="none" fill-rule="evenodd"></path></svg>