<svg width="24" height="24" viewBox="0 0 24 24" fill="none" xmlns="http://www.w3.org/2000/svg"><path d="M4.883 2.043 C 4.565 2.085,4.295 2.243,4.173 2.459 C 4.049 2.681,4.000 3.022,4.000 3.673 L 4.000 4.240 12.000 4.240 L 20.000 4.240 20.000 3.690 C 19.999 2.474,19.810 2.136,19.079 2.041 C 18.710 1.993,5.254 1.995,4.883 2.043 M6.504 7.496 L 8.220 9.232 12.000 9.231 L 15.780 9.230 17.498 7.495 L 19.216 5.760 12.002 5.760 L 4.788 5.760 6.504 7.496 M9.011 15.550 C 9.021 19.185,9.036 20.382,9.074 20.515 C 9.268 21.207,9.846 21.769,10.527 21.930 C 10.824 22.000,13.176 22.000,13.473 21.930 C 14.154 21.769,14.732 21.207,14.926 20.515 C 14.964 20.382,14.979 19.185,14.989 15.550 L 15.003 10.760 12.000 10.760 L 8.997 10.760 9.011 15.550 M12.271 12.302 C 12.468 12.384,12.595 12.506,12.684 12.700 C 12.751 12.843,12.758 12.977,12.759 13.991 C 12.760 14.923,12.749 15.149,12.698 15.271 C 12.431 15.911,11.569 15.911,11.302 15.271 C 11.211 15.052,11.211 12.948,11.302 12.729 C 11.384 12.532,11.506 12.405,11.700 12.316 C 11.897 12.225,12.076 12.221,12.271 12.302 " fill="#1C274C" stroke="none" fill-rule="evenodd"></path></svg>