<svg width="24" height="24" viewBox="0 0 24 24" fill="none" xmlns="http://www.w3.org/2000/svg"><path d="M4.226 2.042 C 3.753 2.085,3.520 2.145,3.310 2.278 C 2.838 2.577,2.898 3.142,3.501 4.066 C 3.995 4.824,5.831 7.354,6.039 7.563 C 6.191 7.717,6.336 7.817,6.500 7.883 L 6.740 7.980 12.000 7.980 L 17.260 7.980 17.500 7.883 C 17.664 7.817,17.809 7.717,17.961 7.563 C 18.084 7.441,18.654 6.680,19.230 5.874 C 20.868 3.580,20.980 3.388,20.980 2.880 C 20.980 2.632,20.964 2.558,20.889 2.452 C 20.779 2.298,20.465 2.139,20.140 2.075 C 19.859 2.019,4.826 1.988,4.226 2.042 M1.807 11.287 C 1.568 11.341,1.341 11.572,1.289 11.816 C 1.197 12.246,1.431 12.629,1.838 12.716 C 2.121 12.776,5.879 12.776,6.162 12.716 C 6.920 12.553,6.920 11.447,6.162 11.284 C 5.903 11.229,2.058 11.231,1.807 11.287 M9.807 11.287 C 9.568 11.341,9.341 11.572,9.289 11.816 C 9.197 12.246,9.431 12.629,9.838 12.716 C 10.121 12.776,13.879 12.776,14.162 12.716 C 14.920 12.553,14.920 11.447,14.162 11.284 C 13.903 11.229,10.058 11.231,9.807 11.287 M17.807 11.287 C 17.568 11.341,17.341 11.572,17.289 11.816 C 17.197 12.246,17.431 12.629,17.838 12.716 C 18.121 12.776,21.879 12.776,22.162 12.716 C 22.920 12.553,22.920 11.447,22.162 11.284 C 21.903 11.229,18.058 11.231,17.807 11.287 M6.787 16.044 C 6.484 16.088,6.198 16.248,5.966 16.501 C 5.783 16.702,4.053 19.101,3.563 19.834 C 3.186 20.398,2.988 20.835,2.984 21.113 C 2.979 21.525,3.218 21.764,3.781 21.908 C 4.044 21.976,4.503 21.980,11.980 21.980 C 19.447 21.980,19.917 21.976,20.205 21.908 C 20.773 21.775,21.024 21.521,21.014 21.090 C 21.009 20.839,20.803 20.380,20.478 19.893 C 20.008 19.191,18.207 16.690,18.034 16.501 C 17.792 16.236,17.522 16.091,17.176 16.041 C 16.835 15.992,7.125 15.994,6.787 16.044 " fill="#1C274C" stroke="none" fill-rule="evenodd"></path></svg>