<svg width="24" height="24" viewBox="0 0 24 24" fill="none" xmlns="http://www.w3.org/2000/svg"><path d="M11.807 1.289 C 11.558 1.342,11.342 1.570,11.284 1.838 C 11.224 2.121,11.224 5.879,11.284 6.162 C 11.447 6.920,12.553 6.920,12.716 6.162 C 12.774 5.891,12.775 2.093,12.717 1.841 C 12.620 1.420,12.247 1.194,11.807 1.289 M2.524 3.066 C 2.338 3.162,2.177 3.433,2.092 3.795 C 2.024 4.083,2.020 4.552,2.020 12.000 C 2.020 19.448,2.024 19.917,2.092 20.205 C 2.225 20.773,2.479 21.024,2.910 21.014 C 3.161 21.009,3.620 20.803,4.107 20.478 C 4.809 20.008,7.310 18.207,7.499 18.034 C 7.747 17.807,7.899 17.539,7.957 17.223 C 8.017 16.891,8.017 7.109,7.957 6.777 C 7.899 6.461,7.746 6.191,7.502 5.971 C 7.391 5.871,6.652 5.326,5.860 4.760 C 3.661 3.188,3.410 3.038,2.940 3.012 C 2.729 3.001,2.626 3.014,2.524 3.066 M20.665 3.096 C 20.535 3.151,20.291 3.279,20.122 3.381 C 19.575 3.712,16.667 5.808,16.437 6.038 C 16.284 6.190,16.182 6.337,16.117 6.500 L 16.020 6.740 16.020 12.000 L 16.020 17.260 16.117 17.500 C 16.183 17.664,16.283 17.809,16.437 17.961 C 16.559 18.084,17.320 18.654,18.126 19.230 C 20.420 20.868,20.612 20.980,21.120 20.980 C 21.489 20.980,21.627 20.898,21.776 20.589 C 21.985 20.159,21.980 20.354,21.980 12.000 C 21.980 3.646,21.985 3.841,21.776 3.411 C 21.636 3.122,21.487 3.025,21.161 3.010 C 20.955 3.000,20.851 3.018,20.665 3.096 M11.807 9.289 C 11.558 9.342,11.342 9.570,11.284 9.838 C 11.224 10.121,11.224 13.879,11.284 14.162 C 11.447 14.920,12.553 14.920,12.716 14.162 C 12.774 13.891,12.775 10.093,12.717 9.841 C 12.620 9.420,12.247 9.194,11.807 9.289 M11.807 17.289 C 11.558 17.342,11.342 17.570,11.284 17.838 C 11.224 18.121,11.224 21.879,11.284 22.162 C 11.447 22.920,12.553 22.920,12.716 22.162 C 12.774 21.891,12.775 18.093,12.717 17.841 C 12.620 17.420,12.247 17.194,11.807 17.289 " fill="#1C274C" stroke="none" fill-rule="evenodd"></path></svg>