<svg width="24" height="24" viewBox="0 0 24 24" fill="none" xmlns="http://www.w3.org/2000/svg"><path d="M11.600 2.027 C 11.207 2.089,10.726 2.353,10.435 2.666 C 10.067 3.063,9.914 3.023,11.928 3.054 C 12.899 3.069,13.701 3.072,13.711 3.062 C 13.748 3.026,13.556 2.768,13.341 2.565 C 12.895 2.142,12.208 1.930,11.600 2.027 M9.640 4.074 C 9.341 4.175,9.163 4.327,9.062 4.569 C 8.978 4.771,8.985 4.899,9.097 5.172 C 9.446 6.019,10.170 6.696,11.030 6.978 L 11.240 7.046 11.240 10.228 L 11.240 13.410 11.070 13.255 C 10.977 13.170,9.998 12.456,8.894 11.669 L 6.889 10.238 6.962 10.004 C 7.203 9.228,7.141 8.438,6.779 7.692 C 6.543 7.206,6.411 7.100,6.043 7.100 C 5.579 7.100,5.588 7.091,4.045 9.068 C 2.518 11.024,2.504 11.047,2.598 11.469 C 2.687 11.865,2.964 12.031,3.698 12.129 C 4.443 12.228,5.212 12.014,5.940 11.503 C 6.014 11.451,6.164 11.550,7.984 12.854 C 9.065 13.627,10.019 14.321,10.104 14.396 C 10.416 14.668,10.686 15.024,10.880 15.420 C 11.231 16.137,11.214 15.976,11.230 18.770 L 11.243 21.240 10.144 21.240 C 9.492 21.240,8.960 21.258,8.838 21.284 C 8.080 21.447,8.080 22.553,8.838 22.716 C 9.125 22.777,14.875 22.777,15.162 22.716 C 15.920 22.553,15.920 21.447,15.162 21.284 C 15.040 21.258,14.508 21.240,13.856 21.240 L 12.757 21.240 12.770 18.770 C 12.786 15.976,12.769 16.138,13.120 15.420 C 13.313 15.026,13.617 14.627,13.920 14.370 C 13.997 14.305,14.957 13.610,16.054 12.826 L 18.048 11.401 18.300 11.581 C 18.967 12.057,19.805 12.249,20.595 12.106 C 21.269 11.983,21.535 11.749,21.531 11.280 C 21.529 11.130,21.499 10.996,21.442 10.884 C 21.394 10.791,20.752 9.942,20.013 8.998 C 18.752 7.385,18.658 7.275,18.455 7.176 C 18.278 7.089,18.200 7.073,18.018 7.089 C 17.884 7.100,17.754 7.138,17.688 7.187 C 17.409 7.392,17.116 8.062,17.033 8.684 C 16.979 9.090,17.025 9.625,17.143 9.972 C 17.179 10.078,17.202 10.170,17.194 10.177 C 17.187 10.184,16.253 10.851,15.120 11.659 C 13.987 12.467,12.992 13.193,12.910 13.272 L 12.760 13.417 12.770 10.222 L 12.780 7.028 12.990 6.956 C 13.725 6.706,14.371 6.132,14.715 5.423 C 14.902 5.037,14.935 4.884,14.876 4.665 C 14.821 4.458,14.541 4.179,14.331 4.123 C 14.142 4.073,9.780 4.027,9.640 4.074 M3.720 7.027 C 3.665 7.036,3.512 7.081,3.380 7.127 C 2.475 7.444,1.894 8.385,2.030 9.315 C 2.054 9.483,2.094 9.671,2.117 9.733 C 2.160 9.845,2.179 9.823,3.242 8.463 C 3.837 7.702,4.313 7.061,4.300 7.040 C 4.276 7.002,3.927 6.994,3.720 7.027 M19.816 7.031 C 19.788 7.049,20.147 7.540,20.789 8.360 C 21.349 9.075,21.840 9.705,21.880 9.759 L 21.952 9.858 22.023 9.619 C 22.292 8.708,21.841 7.666,20.990 7.235 C 20.620 7.048,19.962 6.933,19.816 7.031 " fill="#1C274C" stroke="none" fill-rule="evenodd"></path></svg>