<svg width="24" height="24" viewBox="0 0 24 24" fill="none" xmlns="http://www.w3.org/2000/svg"><path d="M11.410 2.040 C 10.745 2.134,10.083 2.406,9.640 2.768 L 9.380 2.980 10.690 2.991 C 11.411 2.996,12.590 2.996,13.310 2.991 L 14.620 2.980 14.360 2.769 C 13.789 2.307,13.032 2.049,12.160 2.021 C 11.885 2.012,11.547 2.020,11.410 2.040 M7.704 4.049 C 7.480 4.109,7.175 4.415,7.137 4.618 C 7.048 5.097,7.613 6.086,8.332 6.709 C 8.976 7.268,9.926 7.715,10.820 7.879 C 10.952 7.903,11.101 7.932,11.150 7.942 L 11.240 7.962 11.240 11.186 L 11.240 14.410 11.070 14.255 C 10.977 14.170,9.998 13.456,8.894 12.669 L 6.889 11.238 6.962 11.004 C 7.203 10.228,7.141 9.438,6.779 8.692 C 6.543 8.206,6.411 8.100,6.043 8.100 C 5.579 8.100,5.588 8.091,4.045 10.068 C 2.518 12.024,2.504 12.047,2.598 12.469 C 2.687 12.865,2.964 13.031,3.698 13.129 C 4.443 13.228,5.212 13.014,5.940 12.503 C 6.014 12.451,6.164 12.550,7.984 13.854 C 9.065 14.627,10.019 15.321,10.104 15.396 C 10.416 15.668,10.686 16.024,10.880 16.420 C 11.223 17.122,11.213 17.039,11.230 19.270 L 11.244 21.240 10.144 21.240 C 9.492 21.240,8.960 21.258,8.838 21.284 C 8.080 21.447,8.080 22.553,8.838 22.716 C 9.125 22.777,14.875 22.777,15.162 22.716 C 15.920 22.553,15.920 21.447,15.162 21.284 C 15.040 21.258,14.509 21.240,13.858 21.240 L 12.760 21.240 12.760 14.601 L 12.760 7.962 12.850 7.942 C 12.900 7.932,13.048 7.903,13.180 7.879 C 14.722 7.594,16.052 6.664,16.642 5.460 C 16.953 4.826,16.953 4.576,16.643 4.276 C 16.513 4.150,16.396 4.079,16.269 4.046 C 16.025 3.985,7.937 3.988,7.704 4.049 M3.720 8.027 C 3.665 8.036,3.512 8.081,3.380 8.127 C 2.475 8.444,1.894 9.385,2.030 10.315 C 2.054 10.483,2.094 10.671,2.117 10.733 C 2.160 10.845,2.179 10.823,3.242 9.463 C 3.837 8.702,4.313 8.061,4.300 8.040 C 4.276 8.002,3.927 7.994,3.720 8.027 " fill="#1C274C" stroke="none" fill-rule="evenodd"></path></svg>