<svg width="24" height="24" viewBox="0 0 24 24" fill="none" xmlns="http://www.w3.org/2000/svg"><path d="M11.940 2.025 C 10.556 2.173,9.386 2.729,8.418 3.698 C 7.605 4.510,7.115 5.408,6.875 6.522 C 6.801 6.862,6.784 7.070,6.782 7.640 C 6.780 8.383,6.824 8.695,7.020 9.310 L 7.114 9.608 6.947 9.586 C 6.064 9.467,5.249 9.578,4.499 9.918 C 2.586 10.785,1.562 13.005,2.178 14.945 L 2.268 15.230 2.007 15.254 C 1.593 15.293,1.321 15.521,1.260 15.882 C 1.201 16.227,1.449 16.623,1.781 16.715 C 2.007 16.778,21.993 16.778,22.219 16.715 C 22.431 16.657,22.660 16.422,22.719 16.204 C 22.808 15.874,22.689 15.566,22.396 15.373 C 22.241 15.270,22.196 15.262,21.719 15.247 L 21.208 15.231 21.360 14.945 C 21.573 14.546,21.779 13.970,21.885 13.478 C 22.006 12.917,22.017 11.835,21.908 11.320 C 21.547 9.631,20.580 8.293,19.112 7.451 C 18.920 7.341,18.629 7.199,18.465 7.136 L 18.167 7.020 18.101 6.660 C 17.687 4.385,15.891 2.572,13.601 2.116 C 13.229 2.042,12.269 1.989,11.940 2.025 M4.807 18.287 C 4.568 18.341,4.341 18.572,4.289 18.816 C 4.197 19.246,4.431 19.629,4.838 19.716 C 5.129 19.778,18.871 19.778,19.162 19.716 C 19.920 19.553,19.920 18.447,19.162 18.284 C 18.894 18.227,5.065 18.230,4.807 18.287 M7.807 21.287 C 7.568 21.341,7.341 21.572,7.289 21.816 C 7.197 22.246,7.431 22.629,7.838 22.716 C 8.127 22.778,15.873 22.778,16.162 22.716 C 16.920 22.553,16.920 21.447,16.162 21.284 C 15.897 21.227,8.063 21.230,7.807 21.287 " fill="#1C274C" stroke="none" fill-rule="evenodd"></path></svg>