<svg width="24" height="24" viewBox="0 0 24 24" fill="none" xmlns="http://www.w3.org/2000/svg"><path d="M5.500 2.041 C 4.496 2.147,3.441 2.752,2.829 3.572 C 2.468 4.056,2.295 4.415,2.111 5.060 L 2.020 5.380 2.020 11.360 C 2.020 16.840,2.026 17.392,2.092 17.957 C 2.262 19.432,2.551 20.195,3.178 20.822 C 3.926 21.570,4.854 21.851,6.940 21.962 C 8.040 22.021,17.239 21.990,17.820 21.926 C 19.212 21.772,19.994 21.522,20.589 21.040 C 21.395 20.387,21.755 19.500,21.929 17.740 C 22.004 16.982,22.002 9.473,21.927 8.883 C 21.804 7.920,21.578 7.353,21.141 6.915 C 20.367 6.139,19.627 6.002,16.168 6.001 C 14.418 6.000,13.956 5.968,13.462 5.812 C 12.679 5.565,12.423 5.376,10.996 3.995 C 10.206 3.230,9.705 2.776,9.504 2.645 C 9.013 2.325,8.485 2.131,7.860 2.042 C 7.543 1.996,5.925 1.996,5.500 2.041 M12.700 10.060 C 13.378 10.202,13.984 10.666,14.264 11.254 C 14.343 11.420,14.416 11.625,14.428 11.708 C 14.448 11.853,14.464 11.867,14.767 12.012 C 15.559 12.391,16.059 13.225,15.985 14.041 C 15.938 14.557,15.711 15.012,15.318 15.376 C 15.027 15.645,14.703 15.817,14.289 15.923 C 14.008 15.995,13.830 16.000,11.742 16.000 C 9.301 16.000,9.243 15.995,8.833 15.772 C 8.573 15.631,8.260 15.292,8.128 15.010 C 8.037 14.814,8.021 14.727,8.021 14.420 C 8.021 14.112,8.037 14.026,8.130 13.827 C 8.279 13.507,8.440 13.314,8.706 13.137 C 9.012 12.934,9.335 12.840,9.724 12.840 C 9.898 12.840,10.040 12.835,10.040 12.830 C 10.039 12.825,10.012 12.732,9.980 12.624 C 9.906 12.380,9.903 11.886,9.974 11.620 C 10.274 10.497,11.484 9.805,12.700 10.060 " fill="#1C274C" stroke="none" fill-rule="evenodd"></path></svg>