<svg width="24" height="24" viewBox="0 0 24 24" fill="none" xmlns="http://www.w3.org/2000/svg"><path d="M5.640 2.024 C 4.661 2.134,3.831 2.523,3.177 3.177 C 2.620 3.734,2.257 4.420,2.073 5.260 C 1.996 5.608,1.996 16.792,2.072 17.640 C 2.196 19.012,2.379 19.703,2.784 20.330 C 3.032 20.714,3.247 20.933,3.617 21.178 C 4.284 21.620,4.944 21.800,6.360 21.928 C 7.203 22.004,16.756 22.003,17.640 21.927 C 19.023 21.808,19.720 21.618,20.383 21.178 C 20.753 20.933,20.968 20.714,21.216 20.330 C 21.696 19.587,21.880 18.734,21.960 16.869 C 22.011 15.694,22.010 10.410,21.959 9.520 C 21.876 8.075,21.674 7.448,21.113 6.887 C 20.369 6.142,19.579 6.002,16.139 6.001 C 14.500 6.000,14.032 5.973,13.580 5.853 C 13.259 5.768,12.642 5.478,12.387 5.291 C 12.273 5.209,11.649 4.627,11.000 3.998 C 10.351 3.370,9.705 2.778,9.565 2.683 C 9.213 2.444,8.780 2.251,8.325 2.130 C 7.963 2.034,7.875 2.027,6.860 2.018 C 6.266 2.013,5.717 2.016,5.640 2.024 M12.821 10.377 C 13.255 10.514,13.598 10.726,13.936 11.064 C 14.272 11.400,14.483 11.741,14.627 12.180 C 14.761 12.589,14.779 13.270,14.668 13.679 C 14.438 14.519,13.840 15.211,13.070 15.528 L 12.760 15.656 12.759 16.638 C 12.758 17.508,12.750 17.638,12.684 17.780 C 12.398 18.399,11.602 18.399,11.316 17.780 C 11.250 17.638,11.242 17.508,11.241 16.638 L 11.240 15.656 10.930 15.528 C 10.160 15.211,9.562 14.519,9.332 13.679 C 9.221 13.270,9.239 12.589,9.373 12.180 C 9.517 11.740,9.728 11.400,10.065 11.064 C 10.486 10.644,10.979 10.381,11.535 10.281 C 11.876 10.219,12.462 10.263,12.821 10.377 M11.591 11.819 C 11.076 12.014,10.760 12.466,10.760 13.004 C 10.760 14.104,12.099 14.657,12.878 13.878 C 13.481 13.275,13.308 12.255,12.539 11.879 C 12.296 11.760,11.824 11.730,11.591 11.819 " fill="#1C274C" stroke="none" fill-rule="evenodd"></path></svg>