<svg width="24" height="24" viewBox="0 0 24 24" fill="none" xmlns="http://www.w3.org/2000/svg"><path d="M5.380 1.803 C 5.248 1.822,4.966 1.893,4.753 1.962 C 3.422 2.392,2.433 3.479,2.092 4.884 C 2.024 5.162,2.020 5.539,2.020 11.080 C 2.020 17.178,2.026 17.437,2.186 18.400 C 2.501 20.296,3.438 21.235,5.339 21.560 C 6.330 21.729,6.743 21.740,12.000 21.740 C 17.257 21.740,17.670 21.729,18.661 21.560 C 20.541 21.239,21.466 20.332,21.797 18.484 C 21.966 17.541,21.980 17.128,21.980 12.960 C 21.980 9.387,21.973 8.930,21.910 8.495 C 21.734 7.267,21.318 6.597,20.476 6.185 C 19.764 5.837,19.043 5.761,16.440 5.760 C 14.173 5.760,13.801 5.722,13.073 5.418 C 12.520 5.187,12.244 4.965,11.060 3.799 C 10.444 3.192,9.823 2.613,9.680 2.511 C 9.189 2.164,8.614 1.920,8.040 1.817 C 7.702 1.756,5.790 1.746,5.380 1.803 M12.271 11.062 C 12.448 11.136,12.584 11.257,12.673 11.420 C 12.725 11.515,12.741 11.691,12.753 12.270 L 12.768 13.000 13.445 13.000 C 14.167 13.000,14.318 13.030,14.513 13.212 C 14.865 13.540,14.787 14.143,14.360 14.394 C 14.187 14.496,14.154 14.501,13.474 14.514 L 12.768 14.528 12.754 15.234 C 12.741 15.914,12.736 15.947,12.634 16.120 C 12.345 16.612,11.655 16.612,11.366 16.120 C 11.264 15.947,11.259 15.914,11.246 15.234 L 11.232 14.528 10.526 14.514 C 9.846 14.501,9.813 14.496,9.640 14.394 C 9.213 14.143,9.135 13.540,9.487 13.212 C 9.682 13.030,9.833 13.000,10.555 13.000 L 11.232 13.000 11.247 12.270 C 11.259 11.691,11.275 11.515,11.327 11.420 C 11.518 11.069,11.922 10.916,12.271 11.062 " fill="#1C274C" stroke="none" fill-rule="evenodd"></path></svg>