<svg width="24" height="24" viewBox="0 0 24 24" fill="none" xmlns="http://www.w3.org/2000/svg"><path d="M5.500 2.041 C 4.496 2.147,3.440 2.753,2.829 3.572 C 2.463 4.065,2.324 4.348,2.128 5.000 L 2.026 5.340 2.010 7.290 L 1.994 9.240 11.979 9.240 L 21.964 9.240 21.938 8.990 C 21.835 7.993,21.590 7.363,21.125 6.898 C 20.366 6.140,19.606 6.002,16.168 6.001 C 14.418 6.000,13.956 5.968,13.462 5.812 C 12.679 5.565,12.423 5.376,10.996 3.995 C 10.206 3.230,9.705 2.776,9.504 2.645 C 9.013 2.325,8.485 2.131,7.860 2.042 C 7.543 1.996,5.925 1.996,5.500 2.041 M2.011 14.090 C 2.030 17.637,2.050 18.054,2.246 18.958 C 2.582 20.513,3.405 21.367,4.912 21.725 C 5.981 21.979,6.887 22.010,12.600 21.988 C 17.440 21.970,17.725 21.961,18.620 21.817 C 20.556 21.503,21.504 20.555,21.816 18.620 C 21.955 17.762,21.970 17.360,21.989 14.070 L 22.007 10.760 12.000 10.760 L 1.993 10.760 2.011 14.090 " fill="#1C274C" stroke="none" fill-rule="evenodd"></path></svg>