<svg width="24" height="24" viewBox="0 0 24 24" fill="none" xmlns="http://www.w3.org/2000/svg"><path d="M5.500 2.041 C 4.496 2.147,3.441 2.752,2.829 3.572 C 2.468 4.056,2.295 4.415,2.111 5.060 L 2.020 5.380 2.020 11.360 C 2.020 16.840,2.026 17.392,2.092 17.957 C 2.262 19.432,2.551 20.195,3.178 20.822 C 3.926 21.570,4.854 21.851,6.940 21.962 C 8.040 22.021,17.239 21.990,17.820 21.926 C 19.212 21.772,19.994 21.522,20.589 21.040 C 21.395 20.387,21.755 19.500,21.929 17.740 C 22.004 16.982,22.002 9.473,21.927 8.883 C 21.804 7.920,21.578 7.353,21.141 6.915 C 20.367 6.139,19.627 6.002,16.168 6.001 C 14.418 6.000,13.956 5.968,13.462 5.812 C 12.679 5.565,12.423 5.376,10.996 3.995 C 10.206 3.230,9.705 2.776,9.504 2.645 C 9.013 2.325,8.485 2.131,7.860 2.042 C 7.543 1.996,5.925 1.996,5.500 2.041 M12.273 10.138 C 12.363 10.219,12.559 10.512,12.752 10.850 C 12.931 11.166,13.122 11.466,13.177 11.517 C 13.250 11.586,13.442 11.650,13.918 11.764 C 14.271 11.849,14.632 11.955,14.719 12.000 C 14.878 12.080,15.001 12.251,14.999 12.388 C 14.997 12.545,14.833 12.805,14.421 13.301 C 14.184 13.586,13.971 13.861,13.948 13.911 C 13.919 13.974,13.921 14.160,13.953 14.531 C 14.041 15.527,14.007 15.849,13.802 15.959 C 13.618 16.057,13.439 16.004,12.320 15.518 L 12.020 15.388 11.800 15.470 C 11.679 15.514,11.370 15.644,11.112 15.758 C 10.434 16.058,10.227 16.072,10.079 15.829 C 9.984 15.674,9.976 15.331,10.047 14.531 C 10.079 14.160,10.081 13.974,10.052 13.911 C 10.029 13.861,9.816 13.586,9.578 13.300 C 9.104 12.729,8.979 12.506,9.017 12.301 C 9.063 12.055,9.237 11.967,10.081 11.765 C 10.558 11.650,10.749 11.586,10.823 11.517 C 10.878 11.466,11.069 11.166,11.248 10.850 C 11.736 9.992,11.948 9.845,12.273 10.138 " fill="#1C274C" stroke="none" fill-rule="evenodd"></path></svg>