<svg width="24" height="24" viewBox="0 0 24 24" fill="none" xmlns="http://www.w3.org/2000/svg"><path d="M5.380 1.804 C 4.399 1.946,3.409 2.540,2.821 3.340 C 2.463 3.827,2.285 4.198,2.111 4.820 L 2.022 5.140 2.008 10.340 C 1.992 16.789,2.026 17.782,2.301 18.920 C 2.428 19.447,2.719 20.053,3.007 20.389 C 3.685 21.183,4.626 21.539,6.420 21.681 C 6.749 21.708,8.605 21.735,10.920 21.747 C 17.091 21.780,18.595 21.704,19.659 21.302 C 20.980 20.804,21.623 19.844,21.860 18.022 C 21.973 17.149,22.008 15.584,21.989 12.265 C 21.970 8.952,21.954 8.593,21.794 7.906 C 21.570 6.943,20.964 6.291,20.026 6.004 C 19.809 5.938,18.982 5.800,18.799 5.800 C 18.777 5.800,18.758 7.001,18.751 8.770 L 18.740 11.740 18.635 11.964 C 18.514 12.222,18.330 12.381,18.054 12.464 C 17.719 12.565,17.534 12.504,16.639 12.000 L 16.000 11.639 15.361 12.000 C 14.466 12.504,14.281 12.565,13.946 12.464 C 13.670 12.381,13.486 12.222,13.365 11.964 L 13.260 11.740 13.249 8.614 L 13.238 5.488 13.022 5.401 C 12.547 5.208,12.208 4.931,11.060 3.800 C 9.915 2.672,9.632 2.433,9.140 2.187 C 8.431 1.832,7.995 1.758,6.645 1.765 C 6.081 1.768,5.512 1.785,5.380 1.804 M14.760 8.180 C 14.760 9.511,14.765 10.600,14.771 10.600 C 14.777 10.600,14.997 10.483,15.261 10.340 C 15.711 10.096,15.756 10.080,16.000 10.080 C 16.244 10.080,16.289 10.096,16.739 10.340 C 17.003 10.483,17.223 10.600,17.229 10.600 C 17.235 10.600,17.240 9.511,17.240 8.180 L 17.240 5.760 16.000 5.760 L 14.760 5.760 14.760 8.180 " fill="#1C274C" stroke="none" fill-rule="evenodd"></path></svg>