<svg width="24" height="24" viewBox="0 0 24 24" fill="none" xmlns="http://www.w3.org/2000/svg"><path d="M5.500 2.041 C 4.496 2.147,3.441 2.752,2.829 3.572 C 2.467 4.058,2.287 4.429,2.111 5.060 L 2.021 5.380 2.009 9.810 L 1.997 14.240 6.325 14.240 C 8.706 14.240,10.640 14.227,10.624 14.210 C 10.608 14.194,10.088 13.811,9.469 13.360 C 8.835 12.898,8.305 12.483,8.255 12.409 C 7.881 11.854,8.409 11.109,9.050 11.286 C 9.316 11.360,13.480 14.381,13.632 14.611 C 13.775 14.827,13.775 15.173,13.632 15.389 C 13.511 15.572,9.336 18.629,9.093 18.713 C 8.687 18.853,8.214 18.560,8.141 18.124 C 8.109 17.938,8.170 17.689,8.281 17.548 C 8.325 17.491,8.874 17.073,9.501 16.618 C 10.127 16.162,10.640 15.783,10.640 15.775 C 10.640 15.767,8.693 15.760,6.314 15.760 L 1.988 15.760 2.016 16.590 C 2.096 18.962,2.390 20.034,3.178 20.822 C 3.926 21.570,4.854 21.851,6.940 21.962 C 8.040 22.021,17.239 21.990,17.820 21.926 C 19.212 21.772,19.994 21.522,20.589 21.040 C 21.395 20.387,21.755 19.500,21.929 17.740 C 22.004 16.982,22.002 9.473,21.927 8.883 C 21.804 7.920,21.578 7.353,21.141 6.915 C 20.367 6.139,19.627 6.002,16.168 6.001 C 14.418 6.000,13.956 5.968,13.462 5.812 C 12.679 5.565,12.423 5.376,10.996 3.995 C 10.206 3.230,9.705 2.776,9.504 2.645 C 9.013 2.325,8.485 2.131,7.860 2.042 C 7.543 1.996,5.925 1.996,5.500 2.041 " fill="#1C274C" stroke="none" fill-rule="evenodd"></path></svg>