<svg width="24" height="24" viewBox="0 0 24 24" fill="none" xmlns="http://www.w3.org/2000/svg"><path d="M7.020 2.043 C 6.171 2.143,5.281 2.564,4.666 3.155 C 4.176 3.627,3.853 4.168,3.673 4.820 C 3.586 5.133,3.584 5.197,3.569 7.875 C 3.558 10.122,3.564 10.606,3.607 10.588 C 3.636 10.576,3.786 10.512,3.940 10.446 C 4.513 10.201,5.227 10.067,6.323 10.001 C 7.193 9.948,17.807 9.948,18.677 10.001 C 19.773 10.067,20.487 10.201,21.060 10.446 C 21.214 10.512,21.365 10.576,21.396 10.589 C 21.444 10.610,21.449 10.418,21.428 9.297 C 21.403 7.913,21.368 7.488,21.238 7.008 C 21.013 6.175,20.452 5.552,19.634 5.227 C 19.004 4.976,18.452 4.923,16.040 4.885 L 14.100 4.854 13.780 4.744 C 13.280 4.573,13.150 4.478,11.942 3.407 C 11.326 2.861,11.081 2.682,10.651 2.466 C 9.929 2.102,9.362 1.998,8.140 2.005 C 7.678 2.008,7.174 2.025,7.020 2.043 M6.400 11.443 C 4.988 11.520,4.338 11.739,3.736 12.340 C 2.957 13.120,2.845 13.879,3.201 15.980 C 3.379 17.029,3.747 18.902,3.875 19.406 C 4.167 20.556,4.507 21.083,5.246 21.530 C 5.548 21.712,5.880 21.821,6.420 21.912 C 6.783 21.974,7.344 21.980,12.500 21.980 C 17.656 21.980,18.217 21.974,18.580 21.912 C 19.120 21.821,19.452 21.712,19.754 21.530 C 20.493 21.083,20.833 20.556,21.125 19.406 C 21.252 18.904,21.620 17.037,21.799 15.980 C 22.155 13.890,22.041 13.123,21.260 12.338 C 20.649 11.723,20.040 11.526,18.500 11.441 C 17.654 11.395,7.264 11.397,6.400 11.443 M14.910 16.551 C 15.386 16.805,15.436 17.457,15.003 17.749 C 14.929 17.799,14.804 17.857,14.725 17.879 C 14.530 17.933,10.470 17.933,10.275 17.879 C 9.915 17.779,9.703 17.518,9.703 17.177 C 9.703 16.835,9.929 16.569,10.300 16.477 C 10.366 16.460,11.392 16.450,12.580 16.453 L 14.740 16.460 14.910 16.551 " fill="#1C274C" stroke="none" fill-rule="evenodd"></path></svg>