<svg width="24" height="24" viewBox="0 0 24 24" fill="none" xmlns="http://www.w3.org/2000/svg"><path d="M5.500 2.041 C 4.496 2.147,3.441 2.752,2.829 3.572 C 2.468 4.056,2.295 4.415,2.111 5.060 L 2.020 5.380 2.020 11.360 C 2.020 16.840,2.026 17.392,2.092 17.957 C 2.262 19.432,2.551 20.195,3.178 20.822 C 3.926 21.570,4.854 21.851,6.940 21.962 C 8.040 22.021,17.239 21.990,17.820 21.926 C 19.212 21.772,19.994 21.522,20.589 21.040 C 21.395 20.387,21.755 19.500,21.929 17.740 C 22.004 16.982,22.002 9.473,21.927 8.883 C 21.804 7.920,21.578 7.353,21.141 6.915 C 20.367 6.139,19.627 6.002,16.168 6.001 C 14.418 6.000,13.956 5.968,13.462 5.812 C 12.679 5.565,12.423 5.376,10.996 3.995 C 10.206 3.230,9.705 2.776,9.504 2.645 C 9.013 2.325,8.485 2.131,7.860 2.042 C 7.543 1.996,5.925 1.996,5.500 2.041 M14.416 11.393 C 14.709 11.593,14.820 12.004,14.667 12.320 C 14.629 12.397,13.974 13.162,13.209 14.020 C 11.704 15.710,11.624 15.782,11.292 15.748 C 11.200 15.738,11.061 15.697,10.983 15.655 C 10.835 15.577,9.441 14.038,9.346 13.848 C 9.197 13.553,9.240 13.248,9.465 13.000 C 9.633 12.814,9.821 12.744,10.083 12.769 C 10.333 12.793,10.462 12.893,10.947 13.438 L 11.332 13.870 12.423 12.645 C 13.023 11.971,13.556 11.394,13.607 11.363 C 13.849 11.215,14.174 11.227,14.416 11.393 " fill="#1C274C" stroke="none" fill-rule="evenodd"></path></svg>