<svg width="24" height="24" viewBox="0 0 24 24" fill="none" xmlns="http://www.w3.org/2000/svg"><path d="M5.500 2.041 C 4.496 2.147,3.441 2.752,2.829 3.572 C 2.468 4.056,2.295 4.415,2.111 5.060 L 2.020 5.380 2.020 11.360 C 2.020 16.840,2.026 17.392,2.092 17.957 C 2.262 19.432,2.551 20.195,3.178 20.822 C 3.926 21.570,4.854 21.851,6.940 21.962 C 8.040 22.021,17.239 21.990,17.820 21.926 C 19.212 21.772,19.994 21.522,20.589 21.040 C 21.395 20.387,21.755 19.500,21.929 17.740 C 22.004 16.982,22.002 9.473,21.927 8.883 C 21.804 7.920,21.578 7.353,21.141 6.915 C 20.367 6.139,19.627 6.002,16.168 6.001 C 14.418 6.000,13.956 5.968,13.462 5.812 C 12.679 5.565,12.423 5.376,10.996 3.995 C 10.206 3.230,9.705 2.776,9.504 2.645 C 9.013 2.325,8.485 2.131,7.860 2.042 C 7.543 1.996,5.925 1.996,5.500 2.041 M10.860 11.351 C 10.926 11.385,11.210 11.638,11.490 11.913 L 12.000 12.414 12.510 11.913 C 12.790 11.638,13.083 11.380,13.159 11.340 C 13.331 11.252,13.660 11.247,13.821 11.331 C 14.184 11.520,14.336 11.932,14.181 12.305 C 14.148 12.383,13.887 12.685,13.602 12.975 L 13.082 13.504 13.542 13.962 C 13.795 14.214,14.048 14.486,14.105 14.567 C 14.376 14.957,14.223 15.485,13.780 15.685 C 13.406 15.856,13.189 15.754,12.517 15.094 L 12.000 14.586 11.483 15.094 C 10.811 15.754,10.594 15.856,10.220 15.685 C 9.777 15.485,9.624 14.957,9.895 14.567 C 9.952 14.486,10.205 14.214,10.458 13.962 L 10.918 13.504 10.398 12.975 C 10.113 12.685,9.852 12.383,9.819 12.305 C 9.745 12.128,9.743 11.878,9.814 11.708 C 9.881 11.548,10.124 11.329,10.271 11.297 C 10.331 11.284,10.398 11.267,10.420 11.260 C 10.489 11.237,10.735 11.288,10.860 11.351 " fill="#1C274C" stroke="none" fill-rule="evenodd"></path></svg>