<svg width="24" height="24" viewBox="0 0 24 24" fill="none" xmlns="http://www.w3.org/2000/svg"><path d="M7.319 2.040 C 6.444 2.177,5.658 2.736,5.281 3.489 C 4.984 4.081,4.994 3.910,5.010 8.302 C 5.024 11.789,5.033 12.265,5.095 12.632 C 5.340 14.089,5.974 14.686,7.507 14.905 C 7.814 14.949,8.422 14.973,9.590 14.988 L 11.240 15.010 11.240 16.575 L 11.239 18.140 10.995 18.280 C 10.715 18.440,10.385 18.777,10.241 19.051 L 10.141 19.238 6.341 19.249 C 2.186 19.261,2.436 19.247,2.212 19.487 C 1.856 19.868,1.980 20.463,2.460 20.684 C 2.612 20.754,2.811 20.758,6.380 20.760 L 10.140 20.762 10.279 21.005 C 10.614 21.591,11.307 21.998,11.968 22.000 C 12.684 22.001,13.375 21.609,13.721 21.005 L 13.860 20.762 17.611 20.761 C 21.673 20.760,21.516 20.768,21.755 20.548 C 21.881 20.432,21.998 20.173,21.999 20.009 C 22.001 19.747,21.826 19.462,21.580 19.326 C 21.471 19.266,21.107 19.259,17.660 19.248 L 13.860 19.236 13.721 18.994 C 13.558 18.711,13.215 18.379,12.948 18.247 L 12.760 18.154 12.760 16.582 L 12.760 15.010 14.410 14.988 C 16.194 14.965,16.663 14.924,17.253 14.742 C 18.245 14.436,18.712 13.829,18.909 12.590 C 18.972 12.189,18.980 11.833,18.980 9.340 C 18.980 6.780,18.974 6.511,18.907 6.201 C 18.782 5.619,18.556 5.254,18.169 5.006 C 17.668 4.684,17.324 4.638,15.140 4.601 C 13.165 4.568,13.128 4.564,12.580 4.305 C 12.260 4.155,11.989 3.940,11.280 3.280 C 10.598 2.645,10.370 2.467,10.031 2.305 C 9.522 2.062,9.353 2.032,8.400 2.018 C 7.927 2.011,7.441 2.021,7.319 2.040 M16.820 6.835 C 17.010 6.923,17.096 7.012,17.178 7.210 C 17.257 7.398,17.257 7.602,17.178 7.790 C 17.096 7.988,17.010 8.077,16.820 8.165 C 16.673 8.232,16.525 8.238,15.009 8.239 C 13.263 8.240,13.194 8.234,12.986 8.048 C 12.783 7.869,12.708 7.483,12.822 7.210 C 12.904 7.012,12.990 6.923,13.180 6.835 C 13.327 6.768,13.474 6.762,15.000 6.762 C 16.526 6.762,16.673 6.768,16.820 6.835 " fill="#1C274C" stroke="none" fill-rule="evenodd"></path></svg>