<svg width="24" height="24" viewBox="0 0 24 24" fill="none" xmlns="http://www.w3.org/2000/svg"><path d="M11.120 2.041 C 10.340 2.115,9.098 2.373,9.147 2.451 C 9.211 2.555,11.177 3.978,11.452 4.119 C 12.097 4.450,12.268 4.381,14.096 3.065 C 14.931 2.463,14.932 2.463,14.816 2.415 C 14.641 2.344,13.818 2.166,13.352 2.099 C 12.838 2.025,11.625 1.993,11.120 2.041 M7.096 3.286 C 6.397 3.687,5.247 4.541,5.108 4.764 C 5.079 4.810,5.177 5.246,5.472 6.384 C 5.944 8.207,6.003 8.482,6.035 9.032 L 6.060 9.445 7.392 10.022 L 8.724 10.599 9.032 10.347 C 9.700 9.800,10.987 8.808,11.110 8.745 L 11.240 8.678 11.240 7.181 L 11.240 5.684 10.907 5.528 C 10.461 5.319,10.155 5.109,8.740 4.041 C 8.080 3.543,7.520 3.124,7.496 3.109 C 7.472 3.095,7.292 3.174,7.096 3.286 M15.480 3.925 C 13.899 5.076,13.267 5.486,12.850 5.631 L 12.720 5.676 12.720 7.174 L 12.720 8.672 12.850 8.750 C 13.020 8.851,14.857 10.289,15.045 10.468 L 15.190 10.606 16.565 10.021 L 17.940 9.436 17.951 9.089 C 17.965 8.625,18.085 8.063,18.542 6.304 L 18.925 4.829 18.792 4.691 C 18.434 4.317,17.452 3.600,16.840 3.267 L 16.580 3.125 15.480 3.925 M3.612 6.565 C 2.787 7.839,2.239 9.352,2.084 10.780 C 2.001 11.541,2.000 11.609,2.065 11.584 C 2.176 11.541,3.712 10.474,3.978 10.254 C 4.493 9.830,4.609 9.543,4.525 8.908 C 4.483 8.593,3.988 6.552,3.889 6.283 C 3.858 6.198,3.833 6.224,3.612 6.565 M20.085 6.370 C 19.952 6.782,19.516 8.598,19.475 8.908 C 19.437 9.198,19.437 9.322,19.475 9.495 C 19.571 9.921,19.810 10.146,21.123 11.045 C 22.075 11.698,22.002 11.716,21.903 10.854 C 21.726 9.323,21.213 7.882,20.391 6.610 C 20.259 6.407,20.146 6.240,20.139 6.240 C 20.132 6.240,20.107 6.299,20.085 6.370 M10.825 10.841 C 10.263 11.281,9.792 11.661,9.778 11.684 C 9.715 11.786,9.775 12.056,10.118 13.200 C 10.319 13.871,10.494 14.452,10.505 14.491 C 10.517 14.531,10.564 14.598,10.611 14.641 C 10.691 14.716,10.758 14.720,11.963 14.720 C 13.112 14.720,13.239 14.713,13.315 14.650 C 13.378 14.598,13.505 14.230,13.800 13.243 C 14.020 12.508,14.200 11.878,14.200 11.842 C 14.200 11.717,14.067 11.595,13.083 10.822 C 12.290 10.200,12.062 10.040,11.966 10.040 C 11.870 10.040,11.638 10.203,10.825 10.841 M5.320 11.049 C 5.040 11.361,4.597 11.697,3.311 12.571 C 2.326 13.241,2.122 13.396,2.121 13.474 C 2.119 13.622,2.273 14.340,2.404 14.800 C 2.550 15.311,2.865 16.107,3.092 16.540 L 3.260 16.860 5.140 16.885 C 6.846 16.908,7.055 16.918,7.400 16.994 C 7.698 17.060,7.789 17.067,7.825 17.029 C 7.851 17.002,8.170 16.588,8.535 16.109 L 9.198 15.239 9.138 15.109 C 9.064 14.948,8.286 12.351,8.255 12.160 L 8.232 12.020 6.893 11.440 C 6.156 11.121,5.541 10.857,5.527 10.854 C 5.512 10.851,5.419 10.939,5.320 11.049 M17.083 11.435 L 15.705 12.024 15.655 12.248 C 15.593 12.518,14.901 14.836,14.817 15.054 C 14.768 15.181,14.767 15.220,14.809 15.274 C 15.091 15.634,16.302 17.051,16.340 17.066 C 16.368 17.076,16.496 17.057,16.625 17.024 C 17.040 16.917,17.705 16.880,19.230 16.880 L 20.720 16.880 20.956 16.390 C 21.409 15.451,21.683 14.577,21.855 13.520 L 21.878 13.380 20.932 12.740 C 19.569 11.818,19.148 11.507,18.784 11.154 C 18.606 10.981,18.460 10.841,18.460 10.843 C 18.460 10.844,17.840 11.110,17.083 11.435 M13.400 16.206 C 13.301 16.223,12.572 16.235,11.780 16.231 L 10.340 16.225 9.727 17.023 C 9.390 17.461,9.088 17.858,9.056 17.905 C 9.002 17.983,9.009 18.010,9.136 18.225 C 9.353 18.592,9.598 19.235,10.043 20.607 L 10.454 21.874 10.577 21.895 C 10.972 21.965,11.807 22.007,12.340 21.984 C 12.899 21.960,13.658 21.878,13.694 21.838 C 13.703 21.828,13.921 21.176,14.179 20.388 C 14.528 19.324,14.710 18.833,14.889 18.475 L 15.129 17.995 15.051 17.907 C 15.008 17.859,14.679 17.469,14.320 17.040 C 13.961 16.611,13.648 16.241,13.624 16.217 C 13.596 16.190,13.516 16.186,13.400 16.206 M4.516 18.636 C 5.451 19.714,6.891 20.727,8.275 21.278 C 8.503 21.369,8.697 21.436,8.706 21.427 C 8.738 21.395,8.085 19.486,7.941 19.191 C 7.591 18.472,7.365 18.400,5.453 18.400 L 4.312 18.400 4.516 18.636 M17.204 18.443 C 16.881 18.485,16.559 18.641,16.421 18.823 C 16.361 18.900,16.250 19.101,16.172 19.269 C 16.032 19.573,15.436 21.326,15.463 21.355 C 15.496 21.390,16.315 21.023,16.803 20.755 C 17.627 20.301,18.401 19.713,19.090 19.015 C 19.326 18.776,19.548 18.540,19.582 18.490 L 19.645 18.400 18.552 18.405 C 17.952 18.408,17.345 18.425,17.204 18.443 " fill="#1C274C" stroke="none" fill-rule="evenodd"></path></svg>