<svg width="24" height="24" viewBox="0 0 24 24" fill="none" xmlns="http://www.w3.org/2000/svg"><path d="M11.300 2.027 C 10.396 2.103,9.297 2.339,8.537 2.620 C 6.161 3.500,4.142 5.321,3.043 7.576 C 2.564 8.557,2.271 9.493,2.119 10.528 C 1.717 13.251,2.417 15.920,4.112 18.133 L 4.413 18.526 11.467 11.473 C 15.346 7.594,18.520 4.417,18.520 4.414 C 18.520 4.389,17.666 3.763,17.380 3.579 C 16.042 2.715,14.455 2.180,12.820 2.042 C 12.369 2.003,11.662 1.996,11.300 2.027 M12.527 12.533 L 5.474 19.586 5.800 19.843 C 8.095 21.650,11.048 22.370,13.897 21.815 C 15.471 21.509,16.890 20.859,18.200 19.845 C 18.637 19.507,19.507 18.637,19.845 18.200 C 22.076 15.317,22.614 11.592,21.277 8.269 C 20.906 7.347,20.285 6.302,19.709 5.630 L 19.580 5.480 12.527 12.533 " fill="#1C274C" stroke="none" fill-rule="evenodd"></path></svg>