<svg width="24" height="24" viewBox="0 0 24 24" fill="none" xmlns="http://www.w3.org/2000/svg"><path d="M9.312 2.040 C 8.675 2.100,8.251 2.273,7.754 2.675 C 7.369 2.988,2.738 7.639,2.547 7.905 C 2.343 8.190,2.171 8.574,2.089 8.924 C 2.028 9.189,2.020 9.510,2.020 12.000 C 2.020 15.093,2.020 15.084,2.293 15.659 C 2.482 16.055,2.788 16.414,3.787 17.410 L 4.660 18.280 11.472 11.468 L 18.283 4.657 17.271 3.657 C 16.274 2.671,16.009 2.451,15.583 2.256 C 15.096 2.033,15.036 2.029,12.240 2.018 C 10.821 2.012,9.504 2.023,9.312 2.040 M12.529 12.530 L 5.718 19.342 6.729 20.344 C 7.823 21.427,8.105 21.648,8.605 21.816 C 9.090 21.979,9.465 21.999,12.000 21.999 C 14.535 21.999,14.910 21.979,15.395 21.816 C 15.973 21.622,16.081 21.527,18.804 18.804 C 21.527 16.081,21.622 15.973,21.816 15.395 C 21.979 14.910,21.999 14.535,21.999 12.000 C 21.999 9.465,21.979 9.090,21.816 8.605 C 21.648 8.104,21.428 7.824,20.342 6.729 L 19.340 5.718 12.529 12.530 " fill="#1C274C" stroke="none" fill-rule="evenodd"></path></svg>