<svg width="24" height="24" viewBox="0 0 24 24" fill="none" xmlns="http://www.w3.org/2000/svg"><path d="M14.420 6.260 C 14.398 6.267,14.331 6.284,14.271 6.297 C 14.124 6.329,13.881 6.548,13.814 6.708 C 13.742 6.880,13.746 7.128,13.822 7.311 C 13.864 7.413,14.483 8.060,15.771 9.350 L 17.658 11.240 13.539 11.241 C 11.202 11.242,9.247 11.259,9.020 11.281 C 6.927 11.483,5.203 12.571,4.374 14.214 C 4.150 14.657,3.943 15.271,3.859 15.740 C 3.783 16.164,3.737 16.966,3.776 17.175 C 3.829 17.456,4.203 17.758,4.500 17.758 C 4.790 17.758,5.174 17.455,5.218 17.191 C 5.230 17.119,5.258 16.835,5.280 16.560 C 5.303 16.285,5.358 15.907,5.403 15.720 C 5.511 15.279,5.815 14.651,6.097 14.291 C 6.527 13.741,7.333 13.212,8.088 12.983 C 8.834 12.757,8.769 12.760,13.394 12.760 L 17.658 12.760 15.771 14.650 C 14.483 15.940,13.864 16.587,13.822 16.689 C 13.691 17.002,13.765 17.330,14.013 17.549 C 14.297 17.798,14.603 17.815,14.924 17.601 C 15.021 17.537,16.236 16.345,17.625 14.952 C 19.657 12.915,20.160 12.390,20.200 12.265 C 20.271 12.043,20.232 11.750,20.107 11.571 C 19.950 11.344,14.999 6.418,14.860 6.350 C 14.734 6.288,14.488 6.237,14.420 6.260 " fill="#1C274C" stroke="none" fill-rule="evenodd"></path></svg>