<svg width="24" height="24" viewBox="0 0 24 24" fill="none" xmlns="http://www.w3.org/2000/svg"><path d="M12.978 4.643 C 12.911 4.662,12.814 4.723,12.763 4.777 C 12.628 4.920,12.605 5.248,12.602 7.025 L 12.600 8.550 12.450 8.574 C 12.367 8.588,12.198 8.599,12.073 8.600 C 11.189 8.601,9.765 8.972,8.780 9.456 C 7.933 9.873,7.395 10.251,6.726 10.899 C 5.187 12.389,4.307 14.266,3.820 17.100 C 3.617 18.280,3.636 18.486,3.964 18.617 C 4.128 18.683,4.135 18.682,4.336 18.582 C 4.448 18.527,4.774 18.310,5.060 18.101 C 6.692 16.907,7.742 16.354,9.160 15.941 C 10.129 15.660,11.502 15.440,12.295 15.440 L 12.592 15.440 12.607 17.210 C 12.623 19.134,12.622 19.126,12.852 19.295 C 13.020 19.420,13.229 19.404,13.436 19.252 C 13.602 19.130,18.777 14.544,19.550 13.834 C 20.383 13.070,20.599 12.692,20.599 12.000 C 20.599 11.325,20.375 10.923,19.600 10.210 C 18.675 9.360,13.456 4.750,13.366 4.704 C 13.200 4.619,13.110 4.605,12.978 4.643 " fill="#1C274C" stroke="none" fill-rule="evenodd"></path></svg>