<svg width="24" height="24" viewBox="0 0 24 24" fill="none" xmlns="http://www.w3.org/2000/svg"><path d="M4.340 6.277 C 4.162 6.320,4.065 6.381,3.927 6.538 C 3.769 6.718,3.744 6.867,3.772 7.436 C 3.913 10.286,5.845 12.309,8.799 12.702 C 9.137 12.747,10.052 12.759,13.439 12.759 L 17.658 12.760 15.771 14.650 C 14.483 15.940,13.864 16.587,13.822 16.689 C 13.691 17.002,13.765 17.330,14.013 17.549 C 14.297 17.798,14.603 17.815,14.924 17.601 C 15.021 17.537,16.236 16.345,17.625 14.952 C 19.657 12.915,20.160 12.390,20.200 12.265 C 20.271 12.043,20.232 11.750,20.107 11.571 C 19.939 11.328,14.994 6.416,14.841 6.339 C 14.668 6.252,14.338 6.248,14.179 6.331 C 13.813 6.522,13.664 6.932,13.822 7.311 C 13.864 7.413,14.483 8.060,15.771 9.350 L 17.658 11.240 13.374 11.240 C 8.684 11.240,8.789 11.245,8.043 11.001 C 6.990 10.657,6.202 10.024,5.744 9.156 C 5.445 8.587,5.320 8.086,5.257 7.200 C 5.226 6.763,5.196 6.663,5.047 6.506 C 4.859 6.307,4.585 6.218,4.340 6.277 " fill="#1C274C" stroke="none" fill-rule="evenodd"></path></svg>