<svg width="24" height="24" viewBox="0 0 24 24" fill="none" xmlns="http://www.w3.org/2000/svg"><path d="M8.419 2.041 C 5.785 2.145,4.480 2.507,3.549 3.393 C 2.551 4.342,2.166 5.587,2.041 8.260 C 1.988 9.399,1.988 14.601,2.041 15.740 C 2.160 18.285,2.507 19.501,3.379 20.433 C 4.245 21.360,5.318 21.742,7.580 21.927 C 8.488 22.002,15.512 22.002,16.420 21.927 C 18.857 21.727,19.992 21.275,20.860 20.157 C 21.474 19.368,21.771 18.329,21.927 16.420 C 22.002 15.512,22.002 8.488,21.927 7.580 C 21.740 5.297,21.356 4.232,20.407 3.355 C 19.572 2.585,18.492 2.242,16.380 2.078 C 15.684 2.023,9.573 1.995,8.419 2.041 M5.820 7.330 C 5.925 7.382,6.115 7.559,6.173 7.660 C 6.205 7.714,6.226 8.153,6.240 9.020 C 6.259 10.220,6.265 10.312,6.345 10.485 C 6.463 10.738,6.695 10.985,6.937 11.113 L 7.140 11.220 8.450 11.232 L 9.760 11.244 9.760 9.545 C 9.760 8.441,9.775 7.806,9.803 7.733 C 9.905 7.460,10.193 7.269,10.500 7.269 C 10.807 7.269,11.095 7.460,11.197 7.733 C 11.227 7.810,11.240 9.162,11.240 12.000 C 11.240 14.838,11.227 16.190,11.197 16.267 C 11.104 16.516,10.759 16.758,10.500 16.758 C 10.241 16.758,9.896 16.516,9.803 16.267 C 9.775 16.194,9.760 15.560,9.760 14.461 L 9.760 12.766 8.390 12.751 C 7.093 12.736,7.005 12.730,6.740 12.644 C 5.718 12.309,4.985 11.500,4.803 10.503 C 4.737 10.139,4.746 7.872,4.814 7.708 C 4.881 7.548,5.124 7.329,5.271 7.297 C 5.331 7.284,5.398 7.267,5.420 7.260 C 5.478 7.240,5.727 7.284,5.820 7.330 M13.840 7.342 C 13.977 7.412,14.146 7.597,14.197 7.733 C 14.225 7.806,14.240 8.458,14.241 9.593 L 14.242 11.340 15.091 10.460 C 17.529 7.932,18.039 7.414,18.158 7.344 C 18.317 7.251,18.654 7.244,18.821 7.331 C 18.976 7.412,19.144 7.591,19.197 7.733 C 19.256 7.889,19.251 8.137,19.184 8.296 C 19.153 8.372,18.537 9.045,17.767 9.845 C 17.018 10.623,16.403 11.275,16.399 11.292 C 16.396 11.310,17.001 12.273,17.745 13.432 C 18.488 14.592,19.129 15.602,19.168 15.678 C 19.249 15.834,19.262 16.097,19.197 16.267 C 19.104 16.516,18.759 16.758,18.500 16.758 C 18.324 16.758,18.076 16.632,17.940 16.474 C 17.874 16.397,17.262 15.459,16.580 14.389 C 15.898 13.318,15.320 12.446,15.295 12.451 C 15.271 12.456,15.023 12.697,14.745 12.986 L 14.240 13.511 14.240 14.833 C 14.240 15.670,14.224 16.196,14.197 16.267 C 14.104 16.516,13.759 16.758,13.500 16.758 C 13.241 16.758,12.896 16.516,12.803 16.267 C 12.773 16.190,12.760 14.837,12.760 11.996 C 12.760 8.594,12.770 7.814,12.814 7.708 C 12.881 7.548,13.124 7.329,13.271 7.297 C 13.331 7.284,13.398 7.267,13.420 7.260 C 13.485 7.238,13.732 7.287,13.840 7.342 " fill="#1C274C" stroke="none" fill-rule="evenodd"></path></svg>