<svg width="24" height="24" viewBox="0 0 24 24" fill="none" xmlns="http://www.w3.org/2000/svg"><path d="M9.300 2.025 C 8.586 2.051,7.731 2.126,7.300 2.200 C 5.421 2.523,4.492 3.471,4.184 5.380 C 4.059 6.153,4.033 6.639,4.012 8.690 L 3.990 10.760 12.000 10.760 L 20.010 10.760 19.988 8.690 C 19.967 6.639,19.941 6.153,19.816 5.380 C 19.588 3.967,19.032 3.111,18.010 2.600 C 17.467 2.329,16.789 2.174,15.720 2.077 C 15.290 2.037,10.092 1.996,9.300 2.025 M17.405 6.381 C 17.485 6.432,17.593 6.543,17.645 6.627 C 17.740 6.779,17.740 6.785,17.740 8.007 L 17.740 9.233 17.619 9.405 C 17.453 9.641,17.273 9.739,17.000 9.739 C 16.727 9.739,16.547 9.641,16.381 9.405 L 16.260 9.233 16.260 8.007 C 16.260 6.793,16.261 6.778,16.353 6.631 C 16.586 6.256,17.044 6.147,17.405 6.381 M4.012 14.230 C 4.040 16.638,4.091 17.318,4.302 18.171 C 4.572 19.255,5.109 19.961,6.001 20.403 L 6.240 20.522 6.240 21.239 C 6.240 22.123,6.276 22.316,6.480 22.520 C 6.671 22.711,6.881 22.760,7.500 22.760 C 8.119 22.760,8.329 22.711,8.520 22.520 C 8.713 22.327,8.760 22.120,8.760 21.468 L 8.760 20.980 12.000 20.980 L 15.240 20.980 15.240 21.468 C 15.240 22.120,15.287 22.327,15.480 22.520 C 15.671 22.711,15.881 22.760,16.500 22.760 C 17.119 22.760,17.329 22.711,17.520 22.520 C 17.724 22.316,17.760 22.123,17.760 21.239 L 17.760 20.522 17.999 20.403 C 18.520 20.145,18.879 19.835,19.175 19.387 C 19.827 18.403,19.998 17.208,19.999 13.610 L 20.000 12.240 11.994 12.240 L 3.988 12.240 4.012 14.230 M17.271 13.302 C 17.468 13.384,17.595 13.506,17.684 13.700 C 17.751 13.843,17.758 13.977,17.759 14.991 C 17.760 15.923,17.749 16.149,17.698 16.271 C 17.431 16.911,16.569 16.911,16.302 16.271 C 16.211 16.052,16.211 13.948,16.302 13.729 C 16.384 13.532,16.506 13.405,16.700 13.316 C 16.897 13.225,17.076 13.221,17.271 13.302 " fill="#1C274C" stroke="none" fill-rule="evenodd"></path></svg>