<svg width="24" height="24" viewBox="0 0 24 24" fill="none" xmlns="http://www.w3.org/2000/svg"><path d="M18.840 3.025 C 17.802 3.156,16.994 3.403,13.386 4.687 C 12.091 5.148,11.028 5.519,11.024 5.512 C 11.019 5.506,10.983 5.392,10.944 5.260 C 10.783 4.725,10.489 4.375,10.009 4.147 L 9.740 4.020 8.120 4.022 C 6.128 4.024,5.967 4.050,5.533 4.451 C 5.105 4.845,5.034 5.132,5.003 6.591 L 4.980 7.682 4.500 7.875 C 2.683 8.606,2.178 9.232,2.043 10.922 C 1.988 11.607,1.987 17.687,2.042 18.500 C 2.133 19.853,2.342 20.515,2.855 21.066 C 3.368 21.619,4.092 21.865,5.480 21.959 C 6.251 22.012,17.749 22.012,18.520 21.959 C 19.906 21.865,20.632 21.619,21.142 21.070 C 21.568 20.611,21.775 20.083,21.907 19.116 C 21.975 18.617,21.980 18.177,21.980 12.780 C 21.980 8.250,21.968 6.857,21.927 6.420 C 21.787 4.956,21.539 4.220,21.001 3.675 C 20.726 3.397,20.381 3.193,20.020 3.093 C 19.813 3.036,19.086 2.994,18.840 3.025 M8.340 9.330 C 8.384 9.352,8.808 9.755,9.283 10.226 L 10.145 11.083 10.583 11.042 C 11.147 10.988,12.853 10.988,13.417 11.042 L 13.855 11.083 14.717 10.226 C 15.192 9.755,15.625 9.347,15.680 9.318 C 15.846 9.232,16.207 9.253,16.377 9.358 C 16.611 9.503,16.733 9.721,16.733 9.992 C 16.733 10.118,16.710 10.265,16.682 10.320 C 16.653 10.375,16.245 10.808,15.774 11.283 L 14.917 12.145 14.958 12.583 C 15.012 13.147,15.012 14.853,14.958 15.417 L 14.917 15.855 15.774 16.717 C 16.245 17.192,16.653 17.625,16.682 17.680 C 16.710 17.735,16.733 17.882,16.733 18.008 C 16.733 18.508,16.284 18.849,15.795 18.719 C 15.644 18.679,15.499 18.553,14.737 17.794 L 13.854 16.916 13.518 16.958 C 13.083 17.012,10.917 17.012,10.482 16.958 L 10.146 16.916 9.263 17.794 C 8.501 18.553,8.356 18.679,8.205 18.719 C 7.716 18.849,7.267 18.508,7.267 18.008 C 7.267 17.882,7.290 17.735,7.318 17.680 C 7.347 17.625,7.755 17.192,8.226 16.717 L 9.083 15.855 9.042 15.417 C 8.988 14.853,8.988 13.147,9.042 12.583 L 9.083 12.145 8.226 11.283 C 7.755 10.808,7.347 10.375,7.318 10.320 C 7.233 10.155,7.253 9.793,7.356 9.626 C 7.462 9.456,7.640 9.320,7.815 9.277 C 7.956 9.243,8.219 9.269,8.340 9.330 " fill="#1C274C" stroke="none" fill-rule="evenodd"></path></svg>