<svg width="24" height="24" viewBox="0 0 24 24" fill="none" xmlns="http://www.w3.org/2000/svg"><path d="M7.340 1.282 C 5.545 1.339,4.525 1.511,3.715 1.894 C 3.021 2.223,2.380 2.819,2.005 3.485 C 1.724 3.983,1.486 4.823,1.381 5.680 C 1.256 6.712,1.188 9.872,1.285 10.219 C 1.344 10.432,1.578 10.660,1.798 10.719 C 2.199 10.828,2.618 10.594,2.715 10.208 C 2.736 10.127,2.762 9.277,2.774 8.320 C 2.800 6.180,2.872 5.423,3.122 4.671 C 3.367 3.935,3.932 3.370,4.671 3.123 C 5.418 2.872,6.178 2.800,8.320 2.774 C 9.279 2.762,10.131 2.735,10.219 2.713 C 10.429 2.659,10.659 2.425,10.719 2.204 C 10.808 1.873,10.689 1.566,10.395 1.372 L 10.226 1.260 9.283 1.255 C 8.764 1.252,7.890 1.264,7.340 1.282 M13.811 1.279 C 13.536 1.344,13.316 1.587,13.260 1.885 C 13.197 2.222,13.453 2.629,13.781 2.713 C 13.869 2.735,14.721 2.762,15.680 2.774 C 18.745 2.811,19.623 2.998,20.345 3.770 C 21.034 4.507,21.237 5.646,21.239 8.800 C 21.240 9.541,21.257 10.121,21.282 10.209 C 21.390 10.599,21.802 10.827,22.202 10.719 C 22.422 10.660,22.656 10.432,22.715 10.219 C 22.771 10.018,22.773 8.338,22.719 7.120 C 22.613 4.729,22.282 3.618,21.407 2.708 C 20.660 1.932,19.737 1.549,18.207 1.377 C 17.285 1.274,14.129 1.203,13.811 1.279 M1.811 13.278 C 1.639 13.320,1.417 13.493,1.330 13.652 C 1.270 13.762,1.258 13.918,1.247 14.760 C 1.232 15.922,1.294 17.568,1.382 18.315 C 1.541 19.674,1.919 20.594,2.616 21.314 C 3.317 22.040,4.300 22.457,5.686 22.617 C 6.799 22.746,9.870 22.812,10.219 22.715 C 10.431 22.657,10.660 22.422,10.719 22.204 C 10.808 21.873,10.689 21.566,10.395 21.372 L 10.226 21.260 8.383 21.234 C 6.289 21.205,5.654 21.154,4.920 20.956 C 4.023 20.714,3.393 20.144,3.122 19.329 C 2.873 18.580,2.799 17.804,2.767 15.580 C 2.741 13.864,2.736 13.774,2.658 13.641 C 2.494 13.361,2.122 13.202,1.811 13.278 M21.811 13.278 C 21.639 13.320,21.417 13.493,21.331 13.652 C 21.269 13.766,21.258 13.977,21.235 15.540 C 21.202 17.748,21.128 18.555,20.894 19.278 C 20.614 20.139,20.000 20.708,19.080 20.956 C 18.346 21.154,17.711 21.205,15.617 21.234 L 13.774 21.260 13.605 21.372 C 13.311 21.566,13.192 21.873,13.281 22.204 C 13.340 22.422,13.569 22.657,13.781 22.715 C 14.130 22.812,17.201 22.746,18.314 22.617 C 19.717 22.455,20.691 22.037,21.404 21.292 C 22.090 20.574,22.461 19.661,22.619 18.300 C 22.704 17.577,22.769 15.841,22.753 14.720 C 22.741 13.858,22.733 13.768,22.658 13.641 C 22.494 13.361,22.122 13.202,21.811 13.278 " fill="#1C274C" stroke="none" fill-rule="evenodd"></path></svg>