<svg width="24" height="24" viewBox="0 0 24 24" fill="none" xmlns="http://www.w3.org/2000/svg"><path d="M11.120 2.039 C 9.316 2.220,7.707 2.807,6.280 3.806 C 2.738 6.286,1.178 10.759,2.422 14.865 C 2.918 16.499,3.728 17.850,4.939 19.061 C 5.928 20.050,7.038 20.788,8.272 21.278 C 11.634 22.610,15.313 22.080,18.200 19.845 C 18.637 19.507,19.507 18.637,19.845 18.200 C 21.255 16.379,22.000 14.234,22.000 12.000 C 22.000 7.432,18.842 3.387,14.430 2.303 C 13.446 2.062,12.028 1.948,11.120 2.039 M10.180 5.284 C 10.742 5.438,10.915 6.105,10.510 6.549 C 10.369 6.703,10.112 6.751,9.300 6.777 C 8.065 6.817,7.629 6.924,7.277 7.277 C 6.913 7.641,6.813 8.052,6.765 9.380 C 6.741 10.033,6.722 10.208,6.662 10.332 C 6.570 10.523,6.392 10.661,6.155 10.725 C 5.766 10.829,5.325 10.526,5.265 10.114 C 5.229 9.870,5.307 8.413,5.378 7.980 C 5.511 7.174,5.739 6.697,6.218 6.218 C 6.852 5.584,7.546 5.352,9.020 5.281 C 9.943 5.237,10.009 5.237,10.180 5.284 M14.881 5.279 C 16.479 5.357,17.134 5.569,17.782 6.218 C 18.251 6.688,18.480 7.169,18.621 7.980 C 18.692 8.390,18.764 9.944,18.721 10.134 C 18.650 10.449,18.482 10.628,18.172 10.721 C 17.868 10.812,17.486 10.642,17.332 10.345 C 17.281 10.248,17.260 10.034,17.236 9.393 C 17.189 8.143,17.084 7.666,16.782 7.331 C 16.436 6.946,15.940 6.818,14.594 6.767 C 13.667 6.732,13.596 6.711,13.384 6.409 C 13.098 6.003,13.330 5.394,13.815 5.278 C 13.985 5.237,14.034 5.237,14.881 5.279 M6.405 13.382 C 6.485 13.433,6.592 13.542,6.642 13.624 C 6.728 13.762,6.737 13.835,6.764 14.597 C 6.813 15.954,6.911 16.357,7.280 16.726 C 7.642 17.088,8.057 17.187,9.411 17.236 L 10.241 17.266 10.407 17.383 C 10.498 17.447,10.608 17.568,10.651 17.651 C 10.807 17.953,10.710 18.409,10.451 18.591 C 10.225 18.750,10.066 18.772,9.364 18.743 C 7.565 18.669,6.818 18.433,6.153 17.728 C 5.738 17.288,5.501 16.766,5.378 16.020 C 5.308 15.596,5.228 14.088,5.264 13.883 C 5.359 13.351,5.951 13.091,6.405 13.382 M18.156 13.283 C 18.466 13.354,18.648 13.542,18.721 13.866 C 18.764 14.056,18.692 15.610,18.621 16.020 C 18.480 16.830,18.252 17.311,17.782 17.785 C 17.513 18.056,17.397 18.139,17.080 18.291 C 16.465 18.587,15.911 18.689,14.650 18.743 C 13.879 18.775,13.701 18.741,13.479 18.519 C 13.121 18.161,13.212 17.565,13.660 17.329 C 13.751 17.281,13.976 17.259,14.600 17.236 C 15.485 17.204,15.808 17.164,16.213 17.039 C 16.523 16.944,16.830 16.689,16.960 16.420 C 17.114 16.102,17.200 15.538,17.235 14.627 C 17.270 13.702,17.289 13.620,17.522 13.425 C 17.590 13.367,17.694 13.309,17.753 13.296 C 17.812 13.284,17.878 13.267,17.900 13.260 C 17.962 13.239,17.969 13.239,18.156 13.283 " fill="#1C274C" stroke="none" fill-rule="evenodd"></path></svg>