<svg width="24" height="24" viewBox="0 0 24 24" fill="none" xmlns="http://www.w3.org/2000/svg"><path d="M8.620 2.043 C 7.673 2.079,6.762 2.169,6.195 2.283 C 3.971 2.729,2.729 3.968,2.285 6.186 C 2.073 7.240,2.001 8.724,2.001 12.000 C 2.001 15.337,2.072 16.738,2.298 17.852 C 2.679 19.734,3.671 20.928,5.318 21.486 C 6.505 21.888,7.954 21.999,12.000 21.999 C 16.723 21.999,18.106 21.845,19.400 21.176 C 20.863 20.420,21.598 19.122,21.857 16.840 C 21.930 16.203,21.999 14.509,22.000 13.378 C 22.000 12.626,21.994 12.566,21.910 12.399 C 21.809 12.200,21.621 12.055,21.412 12.016 C 21.097 11.957,20.726 12.193,20.647 12.502 C 20.625 12.589,20.598 13.371,20.586 14.240 C 20.557 16.413,20.460 17.352,20.177 18.197 C 20.100 18.428,20.029 18.624,20.021 18.633 C 20.012 18.641,19.408 18.111,18.678 17.454 C 17.948 16.797,17.250 16.184,17.126 16.090 C 16.663 15.742,15.945 15.534,15.351 15.576 C 14.751 15.618,14.395 15.753,13.726 16.193 C 12.995 16.675,12.375 16.728,11.660 16.371 C 11.508 16.295,10.928 15.742,9.240 14.062 C 7.574 12.404,6.963 11.820,6.793 11.725 C 6.452 11.534,5.970 11.424,5.601 11.453 C 4.993 11.501,4.644 11.685,3.880 12.356 L 3.420 12.760 3.408 11.030 C 3.379 6.885,3.627 5.486,4.557 4.557 C 5.427 3.687,6.830 3.401,10.240 3.400 C 10.914 3.400,11.401 3.383,11.498 3.356 C 11.810 3.269,12.043 2.902,11.984 2.588 C 11.945 2.379,11.800 2.191,11.601 2.090 C 11.429 2.003,11.387 2.000,10.422 2.006 C 9.871 2.010,9.060 2.026,8.620 2.043 M15.496 2.042 C 14.305 2.122,13.669 2.445,13.334 3.141 C 13.061 3.712,13.001 4.314,13.001 6.500 C 13.001 8.686,13.061 9.288,13.334 9.859 C 13.508 10.221,13.779 10.492,14.141 10.666 C 14.712 10.939,15.314 10.999,17.500 10.999 C 19.686 10.999,20.288 10.939,20.859 10.666 C 21.221 10.492,21.492 10.221,21.666 9.859 C 21.939 9.288,21.999 8.686,21.999 6.500 C 21.999 4.314,21.939 3.712,21.666 3.141 C 21.495 2.786,21.224 2.516,20.860 2.338 C 20.508 2.165,20.137 2.088,19.423 2.040 C 18.779 1.996,16.159 1.997,15.496 2.042 M16.328 4.044 C 16.598 4.101,16.999 4.309,17.277 4.538 L 17.495 4.716 17.597 4.636 C 17.932 4.376,18.043 4.301,18.249 4.196 C 19.209 3.709,20.221 4.208,20.444 5.278 C 20.516 5.625,20.472 6.175,20.349 6.471 C 20.118 7.027,19.490 7.772,18.683 8.446 C 18.148 8.892,17.954 8.980,17.500 8.980 C 17.046 8.980,16.852 8.892,16.317 8.446 C 15.510 7.772,14.882 7.027,14.651 6.471 C 14.528 6.175,14.484 5.625,14.556 5.278 C 14.744 4.375,15.475 3.866,16.328 4.044 " fill="#1C274C" stroke="none" fill-rule="evenodd"></path></svg>