<svg width="24" height="24" viewBox="0 0 24 24" fill="none" xmlns="http://www.w3.org/2000/svg"><path d="M8.880 1.280 C 6.483 1.348,5.258 1.549,4.220 2.043 C 2.802 2.718,1.919 3.935,1.564 5.705 C 1.313 6.957,1.265 7.983,1.265 12.000 C 1.265 15.415,1.291 16.325,1.424 17.400 C 1.634 19.112,2.088 20.207,2.941 21.059 C 3.884 22.003,5.096 22.451,7.220 22.641 C 8.862 22.788,15.138 22.788,16.780 22.641 C 18.904 22.451,20.116 22.003,21.059 21.059 C 22.003 20.116,22.451 18.904,22.641 16.780 C 22.700 16.122,22.757 13.763,22.757 12.000 C 22.757 10.237,22.700 7.878,22.641 7.220 C 22.451 5.096,22.003 3.884,21.059 2.941 C 20.037 1.919,18.712 1.475,16.220 1.320 C 15.334 1.265,10.345 1.238,8.880 1.280 M15.960 2.801 C 17.937 2.911,18.943 3.162,19.710 3.739 C 20.489 4.325,20.911 5.255,21.098 6.800 C 21.203 7.673,21.240 8.758,21.240 11.055 L 21.240 13.289 21.130 13.264 C 20.878 13.207,19.767 13.190,19.361 13.238 C 17.430 13.463,15.657 14.536,14.522 16.168 L 14.252 16.555 14.121 16.248 C 13.644 15.136,12.894 14.023,12.001 13.105 C 10.283 11.339,8.107 10.262,5.685 9.979 C 5.048 9.904,3.924 9.905,3.300 9.980 C 3.036 10.012,2.806 10.039,2.790 10.039 C 2.747 10.040,2.753 8.905,2.801 8.040 C 2.915 5.989,3.188 4.955,3.817 4.192 C 4.539 3.317,5.684 2.931,7.940 2.804 C 8.784 2.756,15.109 2.754,15.960 2.801 M15.580 6.047 C 14.859 6.185,14.199 6.848,14.044 7.592 C 13.905 8.257,14.105 8.912,14.596 9.404 C 15.393 10.200,16.607 10.200,17.404 9.404 C 18.200 8.607,18.200 7.393,17.404 6.596 C 16.913 6.106,16.277 5.914,15.580 6.047 " fill="#1C274C" stroke="none" fill-rule="evenodd"></path></svg>