<svg width="24" height="24" viewBox="0 0 24 24" fill="none" xmlns="http://www.w3.org/2000/svg"><path d="M8.419 2.041 C 5.785 2.145,4.480 2.507,3.549 3.393 C 2.551 4.342,2.166 5.587,2.041 8.260 C 1.988 9.399,1.988 14.601,2.041 15.740 C 2.160 18.285,2.507 19.501,3.379 20.433 C 4.245 21.360,5.318 21.742,7.580 21.927 C 8.488 22.002,15.512 22.002,16.420 21.927 C 18.857 21.727,19.992 21.275,20.860 20.157 C 21.474 19.368,21.771 18.329,21.927 16.420 C 22.002 15.512,22.002 8.488,21.927 7.580 C 21.740 5.297,21.356 4.232,20.407 3.355 C 19.572 2.585,18.492 2.242,16.380 2.078 C 15.684 2.023,9.573 1.995,8.419 2.041 M16.383 6.043 C 17.185 6.190,17.839 6.872,17.967 7.695 C 18.153 8.894,17.209 10.000,16.000 10.000 C 15.032 10.000,14.183 9.268,14.033 8.305 C 13.933 7.663,14.132 7.061,14.596 6.596 C 15.085 6.108,15.698 5.918,16.383 6.043 M7.992 11.263 C 8.550 11.378,9.048 11.638,9.486 12.047 C 9.589 12.142,10.266 12.851,10.990 13.622 C 11.715 14.392,12.360 15.058,12.424 15.101 C 12.511 15.159,12.610 15.179,12.820 15.179 C 13.089 15.180,13.113 15.172,13.420 14.976 C 14.541 14.260,15.803 14.270,16.882 15.002 C 17.161 15.190,19.553 17.470,19.656 17.645 C 19.778 17.851,19.758 18.207,19.614 18.413 C 19.452 18.643,19.270 18.739,19.000 18.737 C 18.873 18.736,18.730 18.708,18.660 18.670 C 18.594 18.633,17.985 18.072,17.307 17.423 C 15.896 16.072,15.784 15.993,15.244 15.966 C 14.817 15.944,14.584 16.009,14.186 16.262 C 13.573 16.651,12.974 16.786,12.401 16.664 C 12.036 16.587,11.599 16.381,11.365 16.178 C 11.269 16.094,10.606 15.403,9.891 14.643 C 9.177 13.882,8.518 13.192,8.426 13.109 C 7.949 12.675,7.242 12.575,6.679 12.861 C 6.574 12.914,6.253 13.173,5.965 13.437 C 5.677 13.701,5.388 13.945,5.322 13.979 C 5.145 14.071,4.822 14.057,4.632 13.950 C 4.315 13.772,4.168 13.293,4.333 12.974 C 4.403 12.837,5.237 12.039,5.570 11.789 C 6.240 11.285,7.143 11.089,7.992 11.263 " fill="#1C274C" stroke="none" fill-rule="evenodd"></path></svg>