<svg width="24" height="24" viewBox="0 0 24 24" fill="none" xmlns="http://www.w3.org/2000/svg"><path d="M8.880 1.280 C 6.483 1.348,5.258 1.549,4.220 2.043 C 2.802 2.718,1.919 3.935,1.564 5.705 C 1.314 6.956,1.265 7.985,1.265 11.980 C 1.265 15.476,1.293 16.344,1.441 17.505 C 1.654 19.173,2.105 20.235,2.960 21.080 C 3.896 22.006,5.113 22.452,7.220 22.641 C 8.862 22.788,15.138 22.788,16.780 22.641 C 19.318 22.414,20.680 21.775,21.611 20.376 C 22.176 19.526,22.473 18.530,22.620 16.980 C 22.786 15.233,22.800 8.990,22.641 7.220 C 22.451 5.096,22.003 3.884,21.059 2.941 C 20.037 1.919,18.712 1.475,16.220 1.320 C 15.334 1.265,10.345 1.238,8.880 1.280 M15.960 2.801 C 17.937 2.911,18.943 3.162,19.710 3.739 C 20.487 4.323,20.908 5.248,21.097 6.788 C 21.221 7.796,21.248 8.984,21.229 12.620 C 21.209 16.466,21.189 16.900,20.979 17.947 C 20.884 18.417,20.661 19.120,20.606 19.120 C 20.591 19.120,19.958 18.560,19.199 17.876 C 17.738 16.558,17.472 16.338,17.120 16.160 C 16.389 15.791,15.482 15.743,14.703 16.032 C 14.550 16.088,14.235 16.260,14.003 16.414 C 13.465 16.769,13.248 16.867,12.878 16.925 C 12.489 16.985,12.107 16.923,11.712 16.734 C 11.435 16.601,11.300 16.475,9.020 14.203 C 6.733 11.923,6.606 11.804,6.320 11.665 C 5.729 11.377,5.101 11.333,4.514 11.537 C 4.144 11.665,3.914 11.822,3.305 12.358 C 3.030 12.601,2.795 12.800,2.782 12.800 C 2.743 12.800,2.759 8.807,2.801 8.040 C 2.915 5.989,3.188 4.955,3.817 4.192 C 4.539 3.317,5.684 2.931,7.940 2.804 C 8.784 2.756,15.109 2.754,15.960 2.801 M15.580 6.047 C 14.859 6.185,14.199 6.848,14.044 7.592 C 13.905 8.257,14.105 8.912,14.596 9.404 C 15.393 10.200,16.607 10.200,17.404 9.404 C 18.200 8.607,18.200 7.393,17.404 6.596 C 16.913 6.106,16.277 5.914,15.580 6.047 " fill="#1C274C" stroke="none" fill-rule="evenodd"></path></svg>