<svg width="24" height="24" viewBox="0 0 24 24" fill="none" xmlns="http://www.w3.org/2000/svg"><path d="M11.560 1.266 C 7.896 1.436,4.651 3.373,2.761 6.520 C 1.391 8.802,0.938 11.606,1.504 14.293 C 2.269 17.926,5.024 20.995,8.589 22.187 C 9.700 22.558,10.770 22.728,12.000 22.728 C 13.986 22.728,15.838 22.224,17.480 21.239 C 20.372 19.502,22.243 16.636,22.662 13.300 C 22.749 12.613,22.749 11.387,22.662 10.700 C 22.140 6.546,19.315 3.102,15.360 1.798 C 14.190 1.412,12.752 1.211,11.560 1.266 M12.992 2.802 C 14.709 2.989,16.425 3.697,17.780 4.778 C 18.164 5.085,18.876 5.794,19.188 6.180 C 20.294 7.552,21.009 9.268,21.198 11.008 C 21.259 11.571,21.250 12.603,21.178 13.146 C 21.045 14.163,20.772 15.092,20.349 15.971 C 20.070 16.549,19.653 17.251,19.599 17.232 C 19.580 17.225,19.147 16.842,18.637 16.380 C 18.126 15.918,17.626 15.480,17.524 15.407 C 16.690 14.803,15.555 14.674,14.600 15.075 C 14.457 15.135,14.171 15.298,13.964 15.437 C 13.481 15.762,13.245 15.868,12.878 15.925 C 12.489 15.985,12.107 15.923,11.712 15.734 C 11.435 15.601,11.300 15.475,9.020 13.203 C 6.733 10.923,6.606 10.804,6.320 10.665 C 5.731 10.378,5.101 10.333,4.519 10.535 C 4.135 10.668,3.933 10.807,3.313 11.360 L 2.780 11.837 2.767 11.668 C 2.747 11.417,2.830 10.684,2.942 10.130 C 3.226 8.717,3.961 7.187,4.876 6.103 C 5.219 5.696,5.855 5.069,6.220 4.778 C 7.539 3.723,9.287 2.993,10.940 2.807 C 11.397 2.755,12.535 2.753,12.992 2.802 M14.580 7.047 C 13.859 7.185,13.199 7.848,13.044 8.592 C 12.789 9.816,13.751 11.000,15.000 11.000 C 16.080 11.000,17.000 10.080,17.000 9.000 C 17.000 8.477,16.790 7.983,16.404 7.596 C 15.913 7.106,15.277 6.914,14.580 7.047 " fill="#1C274C" stroke="none" fill-rule="evenodd"></path></svg>