<svg width="24" height="24" viewBox="0 0 24 24" fill="none" xmlns="http://www.w3.org/2000/svg"><path d="M9.000 2.027 C 8.769 2.033,8.283 2.057,7.920 2.081 C 6.348 2.184,5.476 2.377,4.640 2.805 C 3.371 3.455,2.609 4.539,2.284 6.160 C 2.059 7.282,2.000 8.499,2.000 11.980 C 2.000 15.492,2.060 16.719,2.282 17.809 C 2.693 19.828,3.748 21.037,5.560 21.567 C 6.751 21.915,8.007 22.000,12.000 22.000 C 15.997 22.000,17.246 21.916,18.444 21.566 C 19.725 21.193,20.685 20.409,21.240 19.284 C 21.542 18.674,21.774 17.749,21.879 16.740 C 21.991 15.663,22.045 12.685,21.957 12.453 C 21.869 12.219,21.561 12.000,21.320 12.000 C 21.177 12.000,20.936 12.093,20.826 12.192 C 20.783 12.229,20.716 12.332,20.675 12.420 C 20.611 12.560,20.602 12.693,20.601 13.500 C 20.598 16.009,20.421 17.699,20.079 18.471 L 20.000 18.650 19.630 18.313 C 18.286 17.089,17.266 16.187,17.064 16.046 C 16.599 15.720,15.888 15.527,15.328 15.575 C 14.740 15.624,14.277 15.803,13.716 16.198 C 13.559 16.308,13.329 16.436,13.205 16.483 C 12.894 16.600,12.445 16.627,12.131 16.546 C 11.597 16.409,11.609 16.419,9.240 14.061 C 7.910 12.737,6.947 11.809,6.837 11.746 C 6.205 11.383,5.427 11.352,4.802 11.664 C 4.641 11.745,4.345 11.960,4.080 12.190 C 3.832 12.405,3.576 12.624,3.509 12.677 L 3.389 12.775 3.412 10.537 C 3.445 7.271,3.556 6.301,4.000 5.368 C 4.308 4.722,4.695 4.331,5.340 4.017 C 6.218 3.589,7.219 3.456,9.860 3.415 C 11.596 3.388,11.650 3.380,11.851 3.115 C 12.121 2.759,12.006 2.287,11.597 2.078 C 11.455 2.006,11.366 2.001,10.432 2.008 C 9.875 2.013,9.231 2.022,9.000 2.027 M15.532 2.042 C 14.304 2.124,13.680 2.437,13.339 3.140 C 13.075 3.684,13.001 4.420,13.001 6.500 C 13.001 9.072,13.126 9.792,13.667 10.333 C 14.208 10.874,14.928 10.999,17.500 10.999 C 20.072 10.999,20.792 10.874,21.333 10.333 C 21.874 9.792,21.999 9.072,21.999 6.500 C 21.999 3.928,21.874 3.208,21.333 2.667 C 20.946 2.280,20.420 2.110,19.389 2.040 C 18.739 1.996,16.202 1.997,15.532 2.042 M17.812 3.825 C 17.994 3.917,18.078 3.999,18.164 4.168 C 18.233 4.304,18.240 4.417,18.240 5.478 C 18.240 6.117,18.255 6.640,18.273 6.640 C 18.290 6.640,18.358 6.584,18.423 6.515 C 18.658 6.264,18.984 6.182,19.271 6.302 C 19.468 6.384,19.595 6.506,19.684 6.700 C 19.775 6.896,19.779 7.076,19.699 7.271 C 19.623 7.455,18.048 9.050,17.832 9.163 C 17.748 9.206,17.603 9.240,17.500 9.240 C 17.397 9.240,17.252 9.206,17.168 9.163 C 16.952 9.050,15.377 7.455,15.301 7.271 C 15.145 6.893,15.333 6.468,15.729 6.302 C 16.016 6.182,16.342 6.264,16.577 6.515 C 16.642 6.584,16.710 6.640,16.727 6.640 C 16.745 6.640,16.760 6.117,16.760 5.478 C 16.760 4.417,16.767 4.304,16.836 4.168 C 16.970 3.905,17.198 3.764,17.492 3.762 C 17.598 3.761,17.742 3.789,17.812 3.825 " fill="#1C274C" stroke="none" fill-rule="evenodd"></path></svg>