<svg width="24" height="24" viewBox="0 0 24 24" fill="none" xmlns="http://www.w3.org/2000/svg"><path d="M7.862 2.564 C 7.032 2.629,6.325 2.796,5.839 3.041 C 5.507 3.208,5.071 3.568,4.860 3.849 C 4.678 4.090,4.440 4.515,4.440 4.597 C 4.440 4.619,4.525 4.601,4.629 4.556 C 5.088 4.359,5.928 4.200,6.940 4.117 C 7.228 4.094,9.139 4.065,11.220 4.053 C 16.229 4.024,18.038 4.081,19.080 4.300 C 19.344 4.355,19.800 4.484,19.953 4.547 C 20.027 4.577,19.829 4.195,19.616 3.894 C 19.227 3.345,18.590 2.948,17.763 2.739 C 17.019 2.551,16.902 2.547,12.480 2.538 C 10.181 2.533,8.103 2.545,7.862 2.564 M7.080 5.444 C 6.285 5.483,5.416 5.604,4.934 5.741 C 3.531 6.143,2.626 7.080,2.289 8.482 C 2.075 9.367,2.038 9.902,2.013 12.480 C 1.978 16.049,2.067 17.337,2.417 18.356 C 2.817 19.516,3.719 20.330,4.969 20.659 C 6.067 20.947,6.418 20.966,11.250 20.988 C 15.374 21.007,16.975 20.980,17.860 20.879 C 20.406 20.586,21.578 19.454,21.878 17.000 C 22.041 15.669,22.042 10.732,21.879 9.412 C 21.699 7.945,21.234 7.008,20.368 6.366 C 19.584 5.785,18.595 5.530,16.780 5.441 C 15.803 5.393,8.067 5.396,7.080 5.444 M16.527 6.761 C 18.319 6.838,19.129 7.043,19.697 7.565 C 20.214 8.040,20.465 8.812,20.559 10.220 C 20.611 11.001,20.611 15.365,20.558 16.140 C 20.501 16.992,20.333 17.960,20.243 17.960 C 20.228 17.960,19.652 17.474,18.963 16.880 C 18.273 16.287,17.612 15.736,17.492 15.657 C 16.483 14.987,15.148 14.879,14.022 15.377 C 13.907 15.428,13.641 15.579,13.431 15.713 C 13.001 15.987,12.785 16.057,12.449 16.033 C 12.079 16.006,11.912 15.895,11.156 15.170 C 7.253 11.426,7.377 11.537,6.800 11.309 C 6.456 11.174,6.144 11.120,5.699 11.120 C 4.992 11.120,4.404 11.347,3.764 11.867 L 3.387 12.172 3.412 11.116 C 3.460 9.064,3.668 8.203,4.257 7.619 C 4.813 7.068,5.656 6.834,7.339 6.763 C 8.418 6.717,15.485 6.716,16.527 6.761 M16.640 8.824 C 15.518 9.231,15.402 10.676,16.447 11.243 C 16.687 11.373,16.720 11.380,17.100 11.380 C 17.449 11.380,17.529 11.367,17.726 11.274 C 18.541 10.892,18.759 9.868,18.167 9.194 C 18.099 9.116,17.930 8.992,17.791 8.918 C 17.568 8.799,17.500 8.782,17.180 8.771 C 16.922 8.763,16.769 8.778,16.640 8.824 " fill="#1C274C" stroke="none" fill-rule="evenodd"></path></svg>