<svg width="24" height="24" viewBox="0 0 24 24" fill="none" xmlns="http://www.w3.org/2000/svg"><path d="M9.000 2.027 C 8.769 2.033,8.283 2.057,7.920 2.081 C 6.348 2.184,5.476 2.377,4.640 2.805 C 3.371 3.455,2.609 4.539,2.284 6.160 C 2.059 7.282,2.000 8.499,2.000 11.980 C 2.000 15.492,2.060 16.719,2.282 17.809 C 2.693 19.828,3.748 21.037,5.560 21.567 C 6.751 21.915,8.007 22.000,12.000 22.000 C 15.997 22.000,17.246 21.916,18.444 21.566 C 19.725 21.193,20.685 20.409,21.240 19.284 C 21.542 18.674,21.774 17.749,21.879 16.740 C 21.991 15.663,22.045 12.685,21.957 12.453 C 21.869 12.219,21.561 12.000,21.320 12.000 C 21.177 12.000,20.936 12.093,20.826 12.192 C 20.783 12.229,20.716 12.332,20.675 12.420 C 20.611 12.560,20.602 12.693,20.601 13.500 C 20.598 16.009,20.421 17.699,20.079 18.471 L 20.000 18.650 19.630 18.313 C 18.286 17.089,17.266 16.187,17.064 16.046 C 16.599 15.720,15.888 15.527,15.328 15.575 C 14.740 15.624,14.277 15.803,13.716 16.198 C 13.559 16.308,13.329 16.436,13.205 16.483 C 12.894 16.600,12.445 16.627,12.131 16.546 C 11.597 16.409,11.609 16.419,9.240 14.061 C 7.910 12.737,6.947 11.809,6.837 11.746 C 6.205 11.383,5.427 11.352,4.802 11.664 C 4.641 11.745,4.345 11.960,4.080 12.190 C 3.832 12.405,3.576 12.624,3.509 12.677 L 3.389 12.775 3.412 10.537 C 3.445 7.271,3.556 6.301,4.000 5.368 C 4.308 4.722,4.695 4.331,5.340 4.017 C 6.218 3.589,7.219 3.456,9.860 3.415 C 11.596 3.388,11.650 3.380,11.851 3.115 C 12.121 2.759,12.006 2.287,11.597 2.078 C 11.455 2.006,11.366 2.001,10.432 2.008 C 9.875 2.013,9.231 2.022,9.000 2.027 M15.532 2.042 C 14.304 2.124,13.680 2.437,13.339 3.140 C 13.075 3.684,13.001 4.420,13.001 6.500 C 13.001 9.072,13.126 9.792,13.667 10.333 C 14.208 10.874,14.928 10.999,17.500 10.999 C 20.072 10.999,20.792 10.874,21.333 10.333 C 21.874 9.792,21.999 9.072,21.999 6.500 C 21.999 3.928,21.874 3.208,21.333 2.667 C 20.946 2.280,20.420 2.110,19.389 2.040 C 18.739 1.996,16.202 1.997,15.532 2.042 M19.420 4.095 C 20.047 4.392,20.191 5.172,19.710 5.670 C 19.545 5.841,19.408 5.839,19.050 5.660 C 18.714 5.492,18.480 5.251,18.317 4.908 C 18.162 4.580,18.165 4.450,18.330 4.290 C 18.630 4.000,19.057 3.924,19.420 4.095 M18.002 5.110 C 18.176 5.466,18.534 5.824,18.890 5.998 C 19.038 6.071,19.160 6.151,19.160 6.176 C 19.160 6.258,16.988 8.387,16.820 8.470 C 16.732 8.514,16.342 8.654,15.953 8.783 C 15.341 8.985,15.233 9.010,15.145 8.969 C 14.966 8.888,14.975 8.775,15.222 8.032 C 15.348 7.651,15.487 7.268,15.530 7.180 C 15.613 7.012,17.741 4.840,17.824 4.840 C 17.849 4.840,17.929 4.962,18.002 5.110 " fill="#1C274C" stroke="none" fill-rule="evenodd"></path></svg>