<svg width="24" height="24" viewBox="0 0 24 24" fill="none" xmlns="http://www.w3.org/2000/svg"><path d="M14.811 3.278 C 14.639 3.320,14.417 3.493,14.330 3.652 C 14.274 3.755,14.258 3.907,14.247 4.440 C 14.236 4.970,14.221 5.114,14.170 5.170 C 14.116 5.230,14.030 5.240,13.544 5.240 C 12.589 5.241,12.236 5.342,11.806 5.741 C 11.370 6.145,11.242 6.528,11.241 7.430 L 11.240 8.000 10.210 8.001 C 7.369 8.003,6.465 8.192,5.569 8.972 C 4.844 9.602,4.493 10.341,4.019 12.240 C 3.635 13.776,2.607 18.253,2.579 18.506 C 2.523 19.030,2.725 19.777,3.059 20.279 C 3.407 20.802,3.921 21.193,4.551 21.413 C 4.866 21.523,4.948 21.535,5.400 21.536 C 6.156 21.538,6.706 21.350,7.245 20.905 C 7.577 20.631,7.791 20.347,8.082 19.799 C 8.499 19.014,8.940 18.567,9.626 18.235 C 10.194 17.960,10.489 17.921,12.000 17.921 C 13.511 17.921,13.806 17.960,14.374 18.235 C 15.060 18.567,15.501 19.014,15.918 19.799 C 16.209 20.347,16.423 20.631,16.755 20.905 C 17.294 21.350,17.844 21.538,18.600 21.536 C 19.052 21.535,19.134 21.523,19.449 21.413 C 20.079 21.193,20.593 20.802,20.941 20.279 C 21.275 19.777,21.477 19.030,21.421 18.506 C 21.394 18.253,20.365 13.775,19.981 12.240 C 19.507 10.342,19.147 9.583,18.428 8.967 C 17.522 8.190,16.626 8.003,13.790 8.001 L 12.760 8.000 12.760 7.446 C 12.760 6.721,12.716 6.760,13.523 6.759 C 14.442 6.759,14.774 6.660,15.192 6.266 C 15.655 5.828,15.774 5.438,15.753 4.432 C 15.742 3.862,15.730 3.762,15.658 3.641 C 15.494 3.361,15.122 3.202,14.811 3.278 M15.340 11.066 C 15.709 11.192,16.000 11.604,16.000 12.000 C 16.000 12.527,15.527 13.000,15.000 13.000 C 14.758 13.000,14.479 12.881,14.299 12.701 C 13.907 12.309,13.908 11.690,14.300 11.298 C 14.577 11.020,14.957 10.936,15.340 11.066 M8.840 11.342 C 8.977 11.412,9.146 11.597,9.197 11.733 C 9.221 11.795,9.240 12.051,9.240 12.303 L 9.240 12.760 9.697 12.760 C 10.197 12.760,10.322 12.790,10.494 12.953 C 10.661 13.111,10.731 13.273,10.731 13.500 C 10.731 13.727,10.661 13.889,10.494 14.047 C 10.322 14.210,10.197 14.240,9.697 14.240 L 9.240 14.240 9.240 14.697 C 9.240 14.949,9.221 15.205,9.197 15.267 C 9.104 15.516,8.759 15.758,8.500 15.758 C 8.241 15.758,7.896 15.516,7.803 15.267 C 7.779 15.205,7.760 14.949,7.760 14.697 L 7.760 14.240 7.303 14.240 C 6.803 14.240,6.678 14.210,6.506 14.047 C 6.339 13.889,6.269 13.727,6.269 13.500 C 6.269 13.273,6.339 13.111,6.506 12.953 C 6.678 12.790,6.803 12.760,7.303 12.760 L 7.760 12.760 7.760 12.299 C 7.760 12.002,7.779 11.791,7.814 11.708 C 7.881 11.548,8.124 11.329,8.271 11.297 C 8.331 11.284,8.398 11.267,8.420 11.260 C 8.485 11.238,8.732 11.287,8.840 11.342 M17.374 13.575 C 17.563 13.654,17.791 13.866,17.891 14.056 C 18.012 14.285,18.012 14.715,17.892 14.943 C 17.712 15.283,17.371 15.494,17.000 15.494 C 16.629 15.494,16.288 15.283,16.108 14.943 C 15.988 14.715,15.988 14.285,16.109 14.056 C 16.207 13.871,16.434 13.656,16.617 13.577 C 16.778 13.506,17.208 13.505,17.374 13.575 " fill="#1C274C" stroke="none" fill-rule="evenodd"></path></svg>