<svg width="24" height="24" viewBox="0 0 24 24" fill="none" xmlns="http://www.w3.org/2000/svg"><path d="M6.434 5.042 C 6.111 5.087,5.664 5.241,5.337 5.422 C 3.565 6.400,2.509 8.701,2.143 12.380 C 1.986 13.960,1.963 16.395,2.097 17.180 C 2.316 18.465,2.820 19.278,3.640 19.673 C 4.421 20.049,5.358 20.094,6.105 19.792 C 6.489 19.637,6.879 19.348,7.546 18.724 C 8.634 17.707,8.995 17.453,9.692 17.216 C 10.241 17.029,10.546 17.000,12.000 17.000 C 13.454 17.000,13.759 17.029,14.308 17.216 C 15.002 17.452,15.379 17.719,16.499 18.766 C 17.129 19.354,17.517 19.640,17.895 19.792 C 18.642 20.094,19.579 20.049,20.360 19.673 C 21.186 19.276,21.697 18.443,21.904 17.160 C 22.037 16.336,22.013 13.950,21.857 12.380 C 21.510 8.899,20.546 6.652,18.944 5.596 C 18.583 5.358,18.135 5.160,17.750 5.070 C 17.614 5.038,17.216 5.020,16.620 5.021 C 15.798 5.021,15.662 5.031,15.342 5.112 C 14.742 5.263,14.354 5.447,13.674 5.903 C 12.849 6.455,12.631 6.538,12.000 6.538 C 11.370 6.538,11.151 6.455,10.331 5.907 C 9.644 5.447,9.308 5.285,8.722 5.131 C 8.385 5.042,8.243 5.029,7.520 5.018 C 7.069 5.011,6.580 5.022,6.434 5.042 M17.065 9.077 C 17.441 9.248,17.605 9.737,17.408 10.105 C 17.339 10.234,17.091 10.436,16.969 10.463 C 16.909 10.476,16.838 10.493,16.812 10.501 C 16.717 10.530,16.355 10.410,16.253 10.315 C 16.196 10.263,16.116 10.148,16.076 10.060 C 15.784 9.427,16.427 8.787,17.065 9.077 M7.751 9.302 C 7.909 9.368,8.096 9.527,8.173 9.660 C 8.199 9.704,8.229 9.965,8.240 10.240 L 8.260 10.740 8.760 10.760 C 9.035 10.771,9.296 10.801,9.340 10.827 C 9.555 10.951,9.760 11.279,9.760 11.500 C 9.760 11.721,9.555 12.049,9.340 12.173 C 9.296 12.199,9.035 12.229,8.760 12.240 L 8.260 12.260 8.240 12.760 C 8.229 13.035,8.199 13.296,8.173 13.340 C 8.049 13.555,7.721 13.760,7.500 13.760 C 7.279 13.760,6.951 13.555,6.827 13.340 C 6.801 13.296,6.771 13.035,6.760 12.760 L 6.740 12.260 6.240 12.240 C 5.965 12.229,5.704 12.199,5.660 12.173 C 5.440 12.046,5.240 11.720,5.240 11.489 C 5.240 11.311,5.422 10.991,5.586 10.880 C 5.719 10.790,5.784 10.778,6.237 10.760 L 6.740 10.740 6.760 10.237 C 6.778 9.784,6.790 9.719,6.880 9.586 C 6.991 9.422,7.311 9.240,7.489 9.240 C 7.552 9.240,7.669 9.268,7.751 9.302 M15.543 10.565 C 15.874 10.664,16.090 11.156,15.958 11.507 C 15.900 11.660,15.688 11.877,15.531 11.945 C 15.265 12.059,14.891 11.972,14.685 11.747 C 14.558 11.610,14.477 11.292,14.520 11.102 C 14.585 10.813,14.811 10.585,15.097 10.519 C 15.224 10.489,15.331 10.500,15.543 10.565 M18.543 10.565 C 18.874 10.664,19.090 11.156,18.958 11.507 C 18.900 11.660,18.688 11.877,18.531 11.945 C 18.265 12.059,17.891 11.972,17.685 11.747 C 17.558 11.610,17.477 11.292,17.520 11.102 C 17.585 10.813,17.811 10.585,18.097 10.519 C 18.224 10.489,18.331 10.500,18.543 10.565 M17.065 12.077 C 17.441 12.248,17.605 12.737,17.408 13.105 C 17.339 13.234,17.091 13.436,16.969 13.463 C 16.909 13.476,16.838 13.493,16.812 13.501 C 16.717 13.530,16.355 13.410,16.253 13.315 C 16.196 13.263,16.116 13.148,16.076 13.060 C 15.784 12.427,16.427 11.787,17.065 12.077 M11.389 17.761 C 11.094 17.808,10.771 17.903,10.657 17.978 C 10.607 18.011,10.545 18.104,10.518 18.185 C 10.453 18.383,10.488 19.169,10.571 19.366 C 10.657 19.571,10.889 19.814,11.079 19.899 L 11.240 19.972 11.241 21.676 C 11.242 23.247,11.248 23.392,11.316 23.540 C 11.491 23.920,11.903 24.092,12.271 23.938 C 12.468 23.856,12.595 23.734,12.684 23.540 C 12.752 23.392,12.758 23.247,12.759 21.676 L 12.760 19.972 12.921 19.899 C 13.111 19.814,13.343 19.571,13.429 19.366 C 13.512 19.169,13.547 18.383,13.482 18.185 C 13.421 18.000,13.317 17.931,12.950 17.833 C 12.614 17.743,11.752 17.703,11.389 17.761 " fill="#1C274C" stroke="none" fill-rule="evenodd"></path></svg>