<svg width="24" height="24" viewBox="0 0 24 24" fill="none" xmlns="http://www.w3.org/2000/svg"><path d="M14.811 1.278 C 14.639 1.320,14.417 1.493,14.330 1.652 C 14.274 1.755,14.258 1.907,14.247 2.440 C 14.236 2.970,14.221 3.114,14.170 3.170 C 14.116 3.230,14.030 3.240,13.544 3.240 C 12.589 3.241,12.236 3.342,11.806 3.741 C 11.371 4.144,11.242 4.528,11.241 5.424 L 11.240 5.989 8.990 6.013 C 6.731 6.037,6.177 6.063,5.401 6.183 C 3.470 6.481,2.505 7.434,2.186 9.360 C 2.035 10.265,2.020 10.706,2.021 14.060 C 2.022 17.583,2.041 18.012,2.246 18.957 C 2.582 20.513,3.405 21.367,4.912 21.725 C 5.981 21.979,6.887 22.010,12.600 21.988 C 17.440 21.970,17.725 21.961,18.620 21.817 C 20.548 21.504,21.495 20.563,21.814 18.640 C 21.964 17.738,21.980 17.290,21.980 14.000 C 21.980 10.710,21.964 10.262,21.814 9.360 C 21.495 7.434,20.530 6.481,18.599 6.183 C 17.823 6.063,17.269 6.037,15.010 6.013 L 12.760 5.989 12.760 5.441 C 12.760 4.722,12.717 4.760,13.523 4.759 C 14.442 4.759,14.774 4.660,15.192 4.266 C 15.655 3.828,15.774 3.438,15.753 2.432 C 15.742 1.862,15.730 1.762,15.658 1.641 C 15.494 1.361,15.122 1.202,14.811 1.278 M8.405 11.381 C 8.485 11.432,8.593 11.543,8.645 11.627 C 8.734 11.770,8.741 11.826,8.754 12.468 C 8.763 12.924,8.783 13.170,8.814 13.194 C 8.839 13.215,9.167 13.238,9.543 13.246 C 10.206 13.260,10.231 13.263,10.388 13.367 C 10.628 13.526,10.733 13.721,10.733 14.007 C 10.733 14.203,10.714 14.271,10.616 14.409 C 10.405 14.709,10.315 14.738,9.540 14.753 C 9.166 14.761,8.839 14.784,8.814 14.805 C 8.783 14.830,8.763 15.078,8.754 15.538 L 8.740 16.233 8.619 16.405 C 8.453 16.642,8.273 16.739,8.000 16.739 C 7.727 16.739,7.547 16.642,7.381 16.405 L 7.260 16.233 7.246 15.538 C 7.237 15.078,7.217 14.830,7.186 14.805 C 7.161 14.784,6.834 14.761,6.460 14.753 C 5.685 14.738,5.595 14.709,5.384 14.409 C 5.286 14.271,5.267 14.203,5.267 14.007 C 5.267 13.721,5.372 13.526,5.612 13.367 C 5.769 13.263,5.794 13.260,6.457 13.246 C 6.833 13.238,7.161 13.215,7.186 13.194 C 7.217 13.170,7.237 12.924,7.246 12.468 C 7.259 11.831,7.267 11.769,7.353 11.631 C 7.586 11.256,8.044 11.147,8.405 11.381 M15.374 11.575 C 15.563 11.654,15.791 11.866,15.891 12.056 C 16.012 12.285,16.012 12.715,15.892 12.943 C 15.712 13.283,15.371 13.494,15.000 13.494 C 14.629 13.494,14.288 13.283,14.108 12.943 C 13.988 12.715,13.988 12.285,14.109 12.056 C 14.207 11.871,14.434 11.656,14.617 11.577 C 14.778 11.506,15.208 11.505,15.374 11.575 M17.374 14.575 C 17.563 14.654,17.791 14.866,17.891 15.056 C 18.012 15.285,18.012 15.715,17.892 15.943 C 17.712 16.283,17.371 16.494,17.000 16.494 C 16.629 16.494,16.288 16.283,16.108 15.943 C 15.988 15.715,15.988 15.285,16.109 15.056 C 16.207 14.871,16.434 14.656,16.617 14.577 C 16.778 14.506,17.208 14.505,17.374 14.575 " fill="#1C274C" stroke="none" fill-rule="evenodd"></path></svg>