<svg width="24" height="24" viewBox="0 0 24 24" fill="none" xmlns="http://www.w3.org/2000/svg"><path d="M8.775 2.041 C 6.505 2.141,5.368 2.466,4.525 3.258 C 3.551 4.173,3.163 5.459,3.040 8.180 C 2.989 9.320,2.989 14.680,3.040 15.820 C 3.159 18.442,3.508 19.676,4.398 20.615 C 5.132 21.389,6.139 21.756,8.001 21.927 C 8.824 22.002,15.176 22.002,15.999 21.927 C 17.861 21.756,18.868 21.389,19.602 20.615 C 20.492 19.676,20.841 18.442,20.960 15.820 C 21.012 14.667,21.011 9.312,20.958 8.160 C 20.834 5.436,20.443 4.155,19.456 3.247 C 18.690 2.541,17.748 2.228,15.940 2.077 C 15.292 2.023,9.818 1.995,8.775 2.041 M16.089 6.127 C 16.408 6.277,16.694 6.558,16.850 6.875 L 16.980 7.138 16.980 7.999 C 16.980 8.850,16.979 8.863,16.872 9.090 C 16.721 9.412,16.414 9.724,16.109 9.865 L 15.860 9.980 12.000 9.980 L 8.140 9.980 7.891 9.865 C 7.586 9.724,7.279 9.412,7.128 9.090 C 7.021 8.863,7.020 8.850,7.020 8.000 C 7.020 7.151,7.021 7.137,7.127 6.911 C 7.327 6.486,7.760 6.124,8.169 6.042 C 8.263 6.023,10.032 6.010,12.100 6.014 L 15.860 6.020 16.089 6.127 M15.868 13.101 C 16.532 13.432,16.445 14.417,15.733 14.624 C 15.336 14.739,14.946 14.566,14.753 14.187 C 14.634 13.954,14.662 13.588,14.816 13.366 C 14.954 13.167,15.266 13.000,15.500 13.000 C 15.596 13.000,15.749 13.042,15.868 13.101 M8.840 13.342 C 8.977 13.412,9.146 13.597,9.197 13.733 C 9.221 13.795,9.240 14.051,9.240 14.303 L 9.240 14.760 9.697 14.760 C 10.197 14.760,10.322 14.790,10.494 14.953 C 10.661 15.111,10.731 15.273,10.731 15.500 C 10.731 15.727,10.661 15.889,10.494 16.047 C 10.322 16.210,10.197 16.240,9.697 16.240 L 9.240 16.240 9.240 16.697 C 9.240 16.949,9.221 17.205,9.197 17.267 C 9.104 17.516,8.759 17.758,8.500 17.758 C 8.241 17.758,7.896 17.516,7.803 17.267 C 7.779 17.205,7.760 16.949,7.760 16.697 L 7.760 16.240 7.303 16.240 C 6.803 16.240,6.678 16.210,6.506 16.047 C 6.339 15.889,6.269 15.727,6.269 15.500 C 6.269 15.273,6.339 15.111,6.506 14.953 C 6.678 14.790,6.803 14.760,7.303 14.760 L 7.760 14.760 7.760 14.299 C 7.760 14.002,7.779 13.791,7.814 13.708 C 7.881 13.548,8.124 13.329,8.271 13.297 C 8.331 13.284,8.398 13.267,8.420 13.260 C 8.485 13.238,8.732 13.287,8.840 13.342 M14.198 14.759 C 14.806 15.069,14.801 15.933,14.189 16.245 C 13.960 16.362,13.592 16.338,13.370 16.191 C 13.174 16.061,13.000 15.736,13.001 15.502 C 13.003 15.195,13.220 14.860,13.500 14.736 C 13.681 14.656,14.017 14.667,14.198 14.759 M17.634 14.816 C 17.833 14.954,18.000 15.266,18.000 15.500 C 18.000 15.737,17.826 16.061,17.630 16.191 C 17.408 16.338,17.040 16.362,16.811 16.245 C 16.202 15.935,16.193 15.085,16.794 14.759 C 17.017 14.637,17.415 14.664,17.634 14.816 M15.822 16.402 C 15.965 16.454,16.160 16.644,16.246 16.812 C 16.366 17.046,16.338 17.412,16.184 17.634 C 16.046 17.833,15.734 18.000,15.500 18.000 C 15.266 18.000,14.954 17.833,14.816 17.634 C 14.662 17.411,14.634 17.046,14.755 16.811 C 14.955 16.417,15.402 16.246,15.822 16.402 " fill="#1C274C" stroke="none" fill-rule="evenodd"></path></svg>