<svg width="24" height="24" viewBox="0 0 24 24" fill="none" xmlns="http://www.w3.org/2000/svg"><path d="M6.434 5.044 C 5.056 5.222,3.770 6.446,3.045 8.268 C 2.313 10.108,1.956 12.687,2.011 15.735 C 2.032 16.938,2.078 17.328,2.268 17.940 C 2.592 18.977,3.213 19.607,4.188 19.889 C 4.446 19.964,4.594 19.979,5.040 19.977 C 5.513 19.975,5.620 19.962,5.900 19.869 C 6.468 19.681,6.787 19.449,7.820 18.477 C 8.712 17.637,9.227 17.324,10.068 17.110 C 10.404 17.024,10.494 17.020,12.000 17.020 C 13.506 17.020,13.596 17.024,13.932 17.110 C 14.773 17.324,15.288 17.637,16.180 18.477 C 17.213 19.449,17.532 19.681,18.100 19.869 C 18.380 19.962,18.487 19.975,18.960 19.977 C 19.406 19.979,19.554 19.964,19.812 19.889 C 20.785 19.608,21.409 18.974,21.732 17.940 C 21.923 17.325,21.968 16.940,21.989 15.720 C 22.042 12.680,21.684 10.102,20.955 8.268 C 20.335 6.710,19.357 5.630,18.177 5.203 C 17.762 5.053,17.346 5.000,16.601 5.001 C 15.308 5.003,14.612 5.225,13.573 5.967 C 12.932 6.426,12.474 6.583,11.880 6.548 C 11.408 6.521,11.063 6.396,10.624 6.094 C 9.592 5.384,9.089 5.160,8.260 5.042 C 7.928 4.994,6.811 4.996,6.434 5.044 M17.030 9.062 C 17.220 9.141,17.311 9.225,17.404 9.408 C 17.627 9.844,17.374 10.373,16.891 10.482 C 16.585 10.551,16.210 10.359,16.077 10.065 C 15.902 9.681,16.066 9.257,16.460 9.076 C 16.656 8.985,16.836 8.981,17.030 9.062 M7.840 9.342 C 7.977 9.412,8.146 9.597,8.197 9.733 C 8.221 9.795,8.240 10.051,8.240 10.303 L 8.240 10.760 8.697 10.760 C 9.197 10.760,9.322 10.790,9.494 10.953 C 9.661 11.111,9.731 11.273,9.731 11.500 C 9.731 11.727,9.661 11.889,9.494 12.047 C 9.322 12.210,9.197 12.240,8.697 12.240 L 8.240 12.240 8.240 12.697 C 8.240 12.949,8.221 13.205,8.197 13.267 C 8.104 13.516,7.759 13.758,7.500 13.758 C 7.241 13.758,6.896 13.516,6.803 13.267 C 6.779 13.205,6.760 12.949,6.760 12.697 L 6.760 12.240 6.303 12.240 C 5.803 12.240,5.678 12.210,5.506 12.047 C 5.339 11.889,5.269 11.727,5.269 11.500 C 5.269 11.273,5.339 11.111,5.506 10.953 C 5.678 10.790,5.803 10.760,6.303 10.760 L 6.760 10.760 6.760 10.299 C 6.760 10.002,6.779 9.791,6.814 9.708 C 6.881 9.548,7.124 9.329,7.271 9.297 C 7.331 9.284,7.398 9.267,7.420 9.260 C 7.485 9.238,7.732 9.287,7.840 9.342 M15.592 10.596 C 15.775 10.689,15.859 10.780,15.938 10.970 C 16.019 11.163,16.015 11.343,15.925 11.540 C 15.663 12.117,14.881 12.151,14.599 11.598 C 14.505 11.415,14.494 11.085,14.576 10.928 C 14.638 10.811,14.813 10.637,14.940 10.567 C 15.069 10.495,15.426 10.511,15.592 10.596 M18.592 10.596 C 18.775 10.689,18.859 10.780,18.938 10.970 C 19.019 11.163,19.015 11.343,18.925 11.540 C 18.663 12.117,17.881 12.151,17.599 11.598 C 17.505 11.415,17.494 11.085,17.576 10.928 C 17.638 10.811,17.813 10.637,17.940 10.567 C 18.069 10.495,18.426 10.511,18.592 10.596 M17.030 12.062 C 17.220 12.141,17.311 12.225,17.404 12.408 C 17.627 12.844,17.374 13.373,16.891 13.482 C 16.585 13.551,16.210 13.359,16.077 13.065 C 15.902 12.681,16.066 12.257,16.460 12.076 C 16.656 11.985,16.836 11.981,17.030 12.062 " fill="#1C274C" stroke="none" fill-rule="evenodd"></path></svg>