<svg width="24" height="24" viewBox="0 0 24 24" fill="none" xmlns="http://www.w3.org/2000/svg"><path d="M6.434 4.042 C 6.111 4.087,5.664 4.241,5.337 4.422 C 3.565 5.400,2.509 7.701,2.143 11.380 C 1.986 12.960,1.963 15.395,2.097 16.180 C 2.316 17.465,2.820 18.278,3.640 18.673 C 4.421 19.049,5.358 19.094,6.105 18.792 C 6.489 18.637,6.879 18.348,7.546 17.724 C 8.634 16.707,8.995 16.453,9.692 16.216 C 10.241 16.029,10.546 16.000,12.000 16.000 C 13.454 16.000,13.759 16.029,14.308 16.216 C 15.002 16.452,15.379 16.719,16.499 17.766 C 17.129 18.354,17.517 18.640,17.895 18.792 C 18.642 19.094,19.579 19.049,20.360 18.673 C 21.186 18.276,21.697 17.443,21.904 16.160 C 22.037 15.336,22.013 12.950,21.857 11.380 C 21.510 7.899,20.546 5.652,18.944 4.596 C 18.583 4.358,18.135 4.160,17.750 4.070 C 17.614 4.038,17.216 4.020,16.620 4.021 C 15.798 4.021,15.662 4.031,15.342 4.112 C 14.742 4.263,14.354 4.447,13.674 4.903 C 12.849 5.455,12.631 5.538,12.000 5.538 C 11.370 5.538,11.151 5.455,10.331 4.907 C 9.644 4.447,9.308 4.285,8.722 4.131 C 8.385 4.042,8.243 4.029,7.520 4.018 C 7.069 4.011,6.580 4.022,6.434 4.042 M17.065 8.077 C 17.441 8.248,17.605 8.737,17.408 9.105 C 17.339 9.234,17.091 9.436,16.969 9.463 C 16.909 9.476,16.838 9.493,16.812 9.501 C 16.717 9.530,16.355 9.410,16.253 9.315 C 16.196 9.263,16.116 9.148,16.076 9.060 C 15.784 8.427,16.427 7.787,17.065 8.077 M7.751 8.302 C 7.909 8.368,8.096 8.527,8.173 8.660 C 8.199 8.704,8.229 8.965,8.240 9.240 L 8.260 9.740 8.760 9.760 C 9.035 9.771,9.296 9.801,9.340 9.827 C 9.555 9.951,9.760 10.279,9.760 10.500 C 9.760 10.721,9.555 11.049,9.340 11.173 C 9.296 11.199,9.035 11.229,8.760 11.240 L 8.260 11.260 8.240 11.760 C 8.229 12.035,8.199 12.296,8.173 12.340 C 8.049 12.555,7.721 12.760,7.500 12.760 C 7.279 12.760,6.951 12.555,6.827 12.340 C 6.801 12.296,6.771 12.035,6.760 11.760 L 6.740 11.260 6.240 11.240 C 5.965 11.229,5.704 11.199,5.660 11.173 C 5.440 11.046,5.240 10.720,5.240 10.489 C 5.240 10.311,5.422 9.991,5.586 9.880 C 5.719 9.790,5.784 9.778,6.237 9.760 L 6.740 9.740 6.760 9.237 C 6.778 8.784,6.790 8.719,6.880 8.586 C 6.991 8.422,7.311 8.240,7.489 8.240 C 7.552 8.240,7.669 8.268,7.751 8.302 M15.543 9.565 C 15.874 9.664,16.090 10.156,15.958 10.507 C 15.900 10.660,15.688 10.877,15.531 10.945 C 15.265 11.059,14.891 10.972,14.685 10.747 C 14.558 10.610,14.477 10.292,14.520 10.102 C 14.585 9.813,14.811 9.585,15.097 9.519 C 15.224 9.489,15.331 9.500,15.543 9.565 M18.543 9.565 C 18.874 9.664,19.090 10.156,18.958 10.507 C 18.900 10.660,18.688 10.877,18.531 10.945 C 18.265 11.059,17.891 10.972,17.685 10.747 C 17.558 10.610,17.477 10.292,17.520 10.102 C 17.585 9.813,17.811 9.585,18.097 9.519 C 18.224 9.489,18.331 9.500,18.543 9.565 M17.065 11.077 C 17.441 11.248,17.605 11.737,17.408 12.105 C 17.339 12.234,17.091 12.436,16.969 12.463 C 16.909 12.476,16.838 12.493,16.812 12.501 C 16.717 12.530,16.355 12.410,16.253 12.315 C 16.196 12.263,16.116 12.148,16.076 12.060 C 15.784 11.427,16.427 10.787,17.065 11.077 M10.811 17.278 C 10.415 17.375,10.172 17.799,10.281 18.202 C 10.316 18.334,10.403 18.454,10.631 18.689 L 10.934 19.000 10.631 19.311 C 10.404 19.544,10.316 19.667,10.281 19.796 C 10.128 20.363,10.637 20.872,11.204 20.719 C 11.333 20.684,11.456 20.596,11.689 20.369 L 12.000 20.066 12.311 20.369 C 12.544 20.596,12.667 20.684,12.796 20.719 C 13.363 20.872,13.872 20.363,13.719 19.796 C 13.684 19.667,13.596 19.544,13.369 19.311 L 13.066 19.000 13.369 18.689 C 13.596 18.456,13.684 18.333,13.719 18.204 C 13.850 17.717,13.508 17.267,13.008 17.267 C 12.722 17.267,12.649 17.306,12.290 17.653 L 12.000 17.934 11.710 17.653 C 11.550 17.499,11.384 17.354,11.340 17.331 C 11.220 17.269,10.957 17.242,10.811 17.278 " fill="#1C274C" stroke="none" fill-rule="evenodd"></path></svg>