<svg width="24" height="24" viewBox="0 0 24 24" fill="none" xmlns="http://www.w3.org/2000/svg"><path d="M11.680 3.046 C 11.096 3.097,10.505 3.352,10.030 3.760 C 9.914 3.858,8.461 5.147,6.800 6.624 C 4.826 8.379,3.719 9.390,3.604 9.544 C 3.406 9.811,3.202 10.225,3.095 10.580 C 3.027 10.805,3.022 11.135,3.010 16.026 L 2.998 21.231 2.386 21.246 C 1.795 21.260,1.768 21.264,1.606 21.372 C 1.311 21.566,1.192 21.873,1.281 22.204 C 1.340 22.422,1.569 22.657,1.781 22.715 C 2.007 22.778,21.993 22.778,22.219 22.715 C 22.431 22.657,22.660 22.422,22.719 22.204 C 22.808 21.873,22.689 21.566,22.394 21.372 C 22.232 21.264,22.205 21.260,21.614 21.246 L 21.002 21.231 20.990 16.026 C 20.978 11.135,20.973 10.805,20.905 10.580 C 20.795 10.214,20.592 9.807,20.386 9.534 C 20.262 9.371,19.133 8.340,17.056 6.495 C 15.328 4.958,13.830 3.641,13.727 3.567 C 13.443 3.363,13.196 3.249,12.811 3.142 C 12.416 3.033,12.119 3.007,11.680 3.046 M14.373 8.355 C 14.615 8.506,14.733 8.718,14.733 9.003 C 14.733 9.203,14.714 9.270,14.616 9.409 C 14.552 9.501,14.436 9.613,14.359 9.658 C 14.223 9.738,14.165 9.740,12.000 9.740 C 9.835 9.740,9.777 9.738,9.641 9.658 C 9.564 9.613,9.448 9.501,9.384 9.409 C 9.098 9.003,9.329 8.396,9.815 8.277 C 9.884 8.260,10.903 8.250,12.080 8.253 L 14.220 8.260 14.373 8.355 M16.200 11.317 C 16.990 11.421,17.518 11.649,17.935 12.065 C 18.351 12.482,18.579 13.009,18.683 13.800 C 18.712 14.018,18.735 15.411,18.748 17.690 L 18.768 21.240 18.004 21.240 L 17.240 21.240 17.240 17.809 C 17.240 14.357,17.225 13.910,17.093 13.500 C 17.001 13.214,16.906 13.099,16.669 12.984 C 16.251 12.783,16.190 12.780,11.960 12.780 C 8.355 12.780,7.995 12.786,7.721 12.850 C 7.327 12.942,7.091 13.090,6.976 13.320 C 6.787 13.694,6.784 13.763,6.770 17.610 L 6.757 21.240 5.995 21.240 L 5.232 21.240 5.252 17.690 C 5.272 14.034,5.284 13.744,5.443 13.162 C 5.682 12.285,6.291 11.677,7.162 11.445 C 7.574 11.335,7.734 11.314,8.400 11.279 C 9.293 11.232,15.796 11.264,16.200 11.317 M15.267 14.803 C 15.540 14.905,15.731 15.193,15.731 15.500 C 15.731 15.807,15.540 16.095,15.267 16.197 C 15.191 16.226,14.132 16.240,12.000 16.240 C 9.868 16.240,8.809 16.226,8.733 16.197 C 8.460 16.095,8.269 15.807,8.269 15.500 C 8.269 15.200,8.458 14.909,8.720 14.805 C 8.863 14.748,15.117 14.746,15.267 14.803 M15.267 17.803 C 15.540 17.905,15.731 18.193,15.731 18.500 C 15.731 18.807,15.540 19.095,15.267 19.197 C 15.191 19.226,14.132 19.240,12.000 19.240 C 9.868 19.240,8.809 19.226,8.733 19.197 C 8.460 19.095,8.269 18.807,8.269 18.500 C 8.269 18.200,8.458 17.909,8.720 17.805 C 8.863 17.748,15.117 17.746,15.267 17.803 " fill="#1C274C" stroke="none" fill-rule="evenodd"></path></svg>