<svg width="24" height="24" viewBox="0 0 24 24" fill="none" xmlns="http://www.w3.org/2000/svg"><path d="M6.292 2.043 C 5.343 2.095,4.725 2.216,4.272 2.441 C 3.326 2.910,2.928 3.678,2.802 5.278 C 2.775 5.630,2.760 8.481,2.760 13.524 L 2.760 21.231 2.150 21.247 C 1.503 21.264,1.394 21.292,1.212 21.487 C 0.856 21.868,0.980 22.463,1.460 22.684 C 1.614 22.755,1.918 22.758,9.275 22.759 C 15.206 22.760,16.968 22.749,17.094 22.711 C 17.458 22.602,17.694 22.188,17.597 21.829 C 17.535 21.598,17.423 21.454,17.227 21.351 C 17.080 21.273,16.984 21.261,16.410 21.247 L 15.760 21.232 15.760 19.496 L 15.760 17.760 16.630 17.761 C 17.456 17.761,17.508 17.766,17.657 17.851 C 17.872 17.973,18.000 18.223,18.000 18.520 C 18.000 18.809,18.126 19.306,18.268 19.573 C 18.431 19.881,18.925 20.353,19.249 20.512 C 19.727 20.747,20.192 20.807,20.700 20.700 C 21.550 20.521,22.236 19.854,22.446 19.000 C 22.490 18.820,22.500 17.708,22.500 12.900 C 22.500 7.490,22.495 6.995,22.431 6.712 C 22.289 6.073,22.013 5.506,21.607 5.017 C 21.358 4.717,19.668 3.340,19.491 3.292 C 18.848 3.121,18.310 3.721,18.576 4.312 C 18.639 4.450,18.808 4.606,19.504 5.165 C 19.999 5.561,20.423 5.935,20.516 6.055 C 20.843 6.478,20.998 6.984,20.999 7.625 L 21.000 7.991 20.450 8.006 C 19.933 8.021,19.884 8.030,19.632 8.148 C 19.304 8.302,19.051 8.547,18.897 8.862 L 18.780 9.100 18.780 10.700 L 18.780 12.300 18.885 12.525 C 19.007 12.785,19.234 13.050,19.451 13.187 C 19.535 13.240,19.913 13.388,20.292 13.516 L 20.980 13.749 20.990 16.201 C 21.001 18.632,21.000 18.655,20.915 18.829 C 20.712 19.249,20.122 19.375,19.778 19.073 C 19.578 18.897,19.555 18.838,19.498 18.343 C 19.438 17.832,19.340 17.539,19.114 17.201 C 18.848 16.802,18.461 16.518,17.960 16.354 C 17.732 16.279,17.581 16.266,16.730 16.250 L 15.760 16.231 15.759 11.305 C 15.759 8.587,15.741 6.057,15.719 5.660 C 15.634 4.120,15.401 3.389,14.819 2.845 C 14.258 2.321,13.589 2.122,12.111 2.040 C 11.308 1.995,7.127 1.997,6.292 2.043 M12.076 6.041 C 12.634 6.113,12.887 6.366,12.959 6.924 C 13.009 7.308,13.009 8.694,12.959 9.079 C 12.890 9.612,12.650 9.868,12.139 9.957 C 11.805 10.015,7.195 10.015,6.861 9.957 C 6.350 9.868,6.110 9.612,6.041 9.079 C 5.991 8.694,5.991 7.308,6.041 6.924 C 6.111 6.382,6.373 6.110,6.887 6.043 C 7.246 5.996,11.719 5.995,12.076 6.041 M12.388 16.367 C 12.628 16.526,12.733 16.721,12.733 17.007 C 12.733 17.203,12.714 17.271,12.616 17.409 C 12.552 17.501,12.436 17.613,12.359 17.658 C 12.223 17.738,12.169 17.740,9.500 17.740 C 6.831 17.740,6.777 17.738,6.641 17.658 C 6.564 17.613,6.448 17.501,6.384 17.409 C 6.098 17.003,6.329 16.396,6.815 16.277 C 6.884 16.261,8.129 16.250,9.583 16.253 L 12.226 16.260 12.388 16.367 " fill="#1C274C" stroke="none" fill-rule="evenodd"></path></svg>