<svg width="24" height="24" viewBox="0 0 24 24" fill="none" xmlns="http://www.w3.org/2000/svg"><path d="M11.120 2.039 C 10.299 2.121,9.443 2.304,8.751 2.545 C 5.024 3.842,2.403 7.177,2.043 11.080 C 1.975 11.809,1.986 19.363,2.054 19.620 C 2.322 20.621,3.365 21.175,4.308 20.817 C 4.988 20.559,5.156 20.510,5.497 20.470 C 6.181 20.390,6.722 20.540,7.620 21.057 C 8.222 21.404,9.084 21.501,9.778 21.299 C 10.184 21.182,10.353 21.100,10.755 20.830 C 11.300 20.462,11.428 20.420,12.000 20.420 C 12.572 20.420,12.700 20.462,13.245 20.830 C 13.647 21.100,13.816 21.182,14.222 21.299 C 14.916 21.501,15.778 21.404,16.380 21.057 C 16.512 20.981,16.783 20.839,16.982 20.741 C 17.738 20.368,18.613 20.356,19.393 20.706 C 19.758 20.869,19.962 20.919,20.266 20.920 C 21.072 20.921,21.735 20.408,21.946 19.620 C 22.014 19.363,22.025 11.809,21.957 11.080 C 21.569 6.872,18.510 3.305,14.430 2.303 C 13.446 2.062,12.028 1.948,11.120 2.039 M9.306 8.083 C 10.066 8.451,10.235 9.971,9.596 10.698 C 9.252 11.090,8.748 11.090,8.404 10.698 C 7.764 9.970,7.930 8.460,8.691 8.084 C 8.905 7.978,9.088 7.978,9.306 8.083 M15.306 8.083 C 16.066 8.451,16.235 9.971,15.596 10.698 C 15.252 11.090,14.748 11.090,14.404 10.698 C 13.764 9.970,13.930 8.460,14.691 8.084 C 14.905 7.978,15.088 7.978,15.306 8.083 M9.525 14.460 C 10.333 14.992,11.121 15.240,12.000 15.240 C 12.885 15.240,13.677 14.989,14.486 14.451 C 14.732 14.287,14.786 14.267,14.998 14.264 C 15.199 14.261,15.260 14.279,15.404 14.380 C 15.741 14.619,15.841 15.074,15.626 15.398 C 15.421 15.709,14.462 16.253,13.720 16.480 C 13.076 16.678,12.682 16.736,12.000 16.736 C 11.318 16.736,10.924 16.678,10.280 16.480 C 9.586 16.267,8.601 15.722,8.399 15.438 C 8.186 15.139,8.221 14.739,8.485 14.475 C 8.774 14.186,9.101 14.181,9.525 14.460 " fill="#1C274C" stroke="none" fill-rule="evenodd"></path></svg>