<svg width="24" height="24" viewBox="0 0 24 24" fill="none" xmlns="http://www.w3.org/2000/svg"><path d="M11.120 2.039 C 10.299 2.121,9.443 2.304,8.751 2.545 C 5.024 3.842,2.403 7.177,2.043 11.080 C 1.975 11.809,1.986 19.363,2.054 19.620 C 2.322 20.621,3.365 21.175,4.308 20.817 C 4.988 20.559,5.156 20.510,5.497 20.470 C 6.181 20.390,6.722 20.540,7.620 21.057 C 8.222 21.404,9.084 21.501,9.778 21.299 C 10.184 21.182,10.353 21.100,10.755 20.830 C 11.300 20.462,11.428 20.420,12.000 20.420 C 12.572 20.420,12.700 20.462,13.245 20.830 C 13.647 21.100,13.816 21.182,14.222 21.299 C 14.916 21.501,15.778 21.404,16.380 21.057 C 16.512 20.981,16.783 20.839,16.982 20.741 C 17.738 20.368,18.613 20.356,19.393 20.706 C 19.758 20.869,19.962 20.919,20.266 20.920 C 21.072 20.921,21.735 20.408,21.946 19.620 C 22.014 19.363,22.025 11.809,21.957 11.080 C 21.569 6.872,18.510 3.305,14.430 2.303 C 13.446 2.062,12.028 1.948,11.120 2.039 M9.306 9.083 C 10.066 9.451,10.235 10.971,9.596 11.698 C 9.252 12.090,8.748 12.090,8.404 11.698 C 7.764 10.970,7.930 9.460,8.691 9.084 C 8.905 8.978,9.088 8.978,9.306 9.083 M15.306 9.083 C 16.066 9.451,16.235 10.971,15.596 11.698 C 15.252 12.090,14.748 12.090,14.404 11.698 C 13.764 10.970,13.930 9.460,14.691 9.084 C 14.905 8.978,15.088 8.978,15.306 9.083 " fill="#1C274C" stroke="none" fill-rule="evenodd"></path></svg>