<svg width="24" height="24" viewBox="0 0 24 24" fill="none" xmlns="http://www.w3.org/2000/svg"><path d="M8.419 2.043 C 5.807 2.139,4.481 2.507,3.549 3.393 C 2.375 4.510,2.001 6.150,2.000 10.190 L 2.000 11.240 4.440 11.240 C 5.782 11.240,6.880 11.231,6.880 11.220 C 6.880 11.209,6.817 11.112,6.740 11.005 C 6.557 10.751,6.265 10.129,6.174 9.800 C 6.120 9.606,6.102 9.399,6.102 8.980 C 6.103 8.473,6.114 8.390,6.214 8.100 C 6.524 7.204,7.204 6.524,8.100 6.214 C 8.390 6.114,8.473 6.103,8.980 6.102 C 9.399 6.102,9.606 6.120,9.800 6.174 C 10.129 6.265,10.751 6.557,11.005 6.740 C 11.112 6.817,11.209 6.880,11.220 6.880 C 11.231 6.880,11.240 5.782,11.240 4.440 L 11.240 2.000 10.250 2.006 C 9.705 2.010,8.882 2.026,8.419 2.043 M12.760 4.445 L 12.760 6.890 12.850 6.825 C 13.057 6.677,13.476 6.442,13.700 6.349 C 14.225 6.131,14.384 6.101,15.020 6.102 C 15.590 6.103,15.637 6.109,15.947 6.224 C 16.422 6.401,16.698 6.579,17.059 6.941 C 17.631 7.513,17.876 8.066,17.909 8.860 C 17.926 9.258,17.915 9.400,17.844 9.693 C 17.743 10.116,17.570 10.526,17.343 10.880 C 17.251 11.023,17.162 11.162,17.146 11.190 C 17.121 11.230,17.614 11.240,19.558 11.240 L 22.000 11.240 21.999 10.470 C 21.999 9.352,21.929 7.604,21.858 6.931 C 21.683 5.263,21.313 4.283,20.565 3.507 C 19.811 2.725,18.778 2.321,17.073 2.142 C 16.390 2.070,14.664 2.001,13.550 2.000 L 12.760 2.000 12.760 4.445 M8.725 7.603 C 8.158 7.715,7.712 8.173,7.599 8.761 C 7.483 9.366,7.891 10.251,8.495 10.705 C 9.077 11.142,9.440 11.240,10.486 11.240 L 11.240 11.240 11.240 10.486 C 11.240 9.440,11.142 9.077,10.705 8.495 C 10.391 8.078,9.839 7.726,9.325 7.618 C 9.030 7.555,8.976 7.554,8.725 7.603 M14.656 7.618 C 14.156 7.730,13.602 8.087,13.295 8.495 C 12.858 9.077,12.760 9.440,12.760 10.486 L 12.760 11.240 13.514 11.240 C 14.559 11.240,14.927 11.141,15.501 10.707 C 15.942 10.373,16.310 9.774,16.398 9.248 C 16.568 8.226,15.675 7.389,14.656 7.618 M2.000 13.550 C 2.001 14.664,2.070 16.390,2.142 17.073 C 2.321 18.778,2.725 19.811,3.507 20.565 C 4.283 21.313,5.263 21.683,6.931 21.858 C 7.604 21.929,9.352 21.999,10.470 21.999 L 11.240 22.000 11.238 18.090 C 11.236 15.049,11.225 14.197,11.188 14.255 C 10.814 14.846,10.702 14.989,10.303 15.380 C 9.468 16.199,8.591 16.609,7.414 16.730 C 6.907 16.782,6.730 16.750,6.516 16.571 C 6.362 16.441,6.242 16.191,6.242 16.000 C 6.242 15.700,6.483 15.374,6.769 15.287 C 6.841 15.265,7.053 15.237,7.240 15.225 C 7.824 15.187,8.355 14.998,8.868 14.647 C 9.416 14.270,9.906 13.600,10.093 12.970 L 10.156 12.760 6.078 12.760 L 2.000 12.760 2.000 13.550 M13.840 12.774 C 13.840 12.831,14.013 13.268,14.119 13.478 C 14.446 14.126,14.957 14.614,15.650 14.941 C 16.025 15.118,16.338 15.198,16.760 15.225 C 17.173 15.252,17.324 15.295,17.487 15.432 C 17.625 15.548,17.758 15.806,17.759 15.960 C 17.761 16.299,17.515 16.634,17.199 16.722 C 17.061 16.760,16.919 16.761,16.580 16.728 C 15.415 16.612,14.531 16.199,13.697 15.380 C 13.298 14.989,13.186 14.846,12.812 14.255 C 12.775 14.197,12.764 15.049,12.762 18.090 L 12.760 22.000 13.530 21.999 C 14.648 21.999,16.396 21.929,17.069 21.858 C 18.737 21.683,19.717 21.313,20.493 20.565 C 21.276 19.810,21.679 18.778,21.858 17.069 C 21.929 16.396,21.999 14.648,21.999 13.530 L 22.000 12.760 17.920 12.760 C 15.676 12.760,13.840 12.766,13.840 12.774 " fill="#1C274C" stroke="none" fill-rule="evenodd"></path></svg>