<svg width="24" height="24" viewBox="0 0 24 24" fill="none" xmlns="http://www.w3.org/2000/svg"><path d="M5.800 3.281 C 5.578 3.335,4.374 3.754,4.000 3.907 C 2.819 4.389,2.331 5.031,2.141 6.350 C 2.107 6.586,1.918 8.562,1.720 10.740 C 1.523 12.918,1.331 14.985,1.294 15.333 C 1.236 15.867,1.233 16.036,1.273 16.413 C 1.389 17.517,1.814 18.461,2.548 19.240 C 4.111 20.902,6.575 21.229,8.513 20.031 C 8.958 19.756,9.678 19.054,9.958 18.621 C 10.301 18.092,10.577 17.425,10.659 16.931 L 10.687 16.761 11.013 16.652 C 11.316 16.551,11.388 16.543,12.000 16.543 C 12.609 16.543,12.685 16.552,12.980 16.650 L 13.300 16.757 13.385 17.111 C 13.497 17.582,13.711 18.096,13.969 18.515 C 14.258 18.985,15.015 19.742,15.485 20.031 C 17.427 21.226,19.890 20.902,21.445 19.248 C 22.184 18.462,22.611 17.517,22.727 16.413 C 22.767 16.036,22.764 15.867,22.706 15.333 C 22.669 14.985,22.477 12.918,22.280 10.740 C 22.083 8.562,21.893 6.591,21.859 6.360 C 21.660 5.018,21.185 4.391,20.000 3.906 C 19.215 3.585,18.225 3.271,17.992 3.269 C 17.324 3.262,16.998 4.066,17.481 4.526 C 17.611 4.649,17.750 4.710,18.387 4.922 C 19.251 5.209,19.709 5.394,19.921 5.541 C 20.125 5.682,20.266 5.962,20.336 6.363 C 20.406 6.761,20.902 12.151,20.872 12.181 C 20.861 12.193,20.754 12.136,20.636 12.055 C 19.420 11.228,17.670 11.028,16.312 11.563 C 15.611 11.839,15.065 12.212,14.533 12.777 C 13.964 13.381,13.586 14.070,13.392 14.856 L 13.310 15.187 13.005 15.108 C 12.564 14.995,11.434 14.995,10.992 15.109 L 10.683 15.188 10.638 14.971 C 10.355 13.608,9.364 12.365,8.060 11.735 C 7.033 11.240,5.914 11.131,4.783 11.418 C 4.366 11.524,3.716 11.816,3.364 12.055 C 3.246 12.136,3.139 12.193,3.128 12.181 C 3.098 12.151,3.594 6.761,3.664 6.363 C 3.734 5.962,3.875 5.682,4.079 5.541 C 4.291 5.394,4.749 5.209,5.615 4.921 C 6.279 4.700,6.388 4.652,6.523 4.517 C 7.061 3.979,6.545 3.098,5.800 3.281 " fill="#1C274C" stroke="none" fill-rule="evenodd"></path></svg>