<svg width="24" height="24" viewBox="0 0 24 24" fill="none" xmlns="http://www.w3.org/2000/svg"><path d="M11.320 2.026 C 10.355 2.120,9.687 2.246,9.003 2.463 C 5.495 3.573,2.886 6.497,2.185 10.103 C 2.130 10.387,2.072 10.760,2.057 10.930 L 2.029 11.241 4.524 11.230 L 7.020 11.220 7.047 10.731 C 7.130 9.225,7.405 7.699,7.828 6.382 C 8.601 3.982,9.854 2.449,11.342 2.084 C 11.643 2.010,11.638 1.995,11.320 2.026 M12.433 2.027 C 12.461 2.039,12.496 2.037,12.509 2.024 C 12.522 2.011,12.499 2.001,12.457 2.003 C 12.410 2.005,12.401 2.015,12.433 2.027 M12.906 2.155 C 13.967 2.524,14.864 3.437,15.563 4.860 C 16.291 6.341,16.822 8.489,16.938 10.420 C 16.951 10.640,16.972 10.915,16.984 11.030 L 17.006 11.240 19.483 11.240 L 21.960 11.240 21.960 11.150 C 21.959 10.910,21.787 9.936,21.660 9.452 C 20.932 6.686,19.074 4.391,16.500 3.080 C 15.883 2.765,15.146 2.487,14.480 2.318 C 13.961 2.187,13.053 2.040,12.760 2.041 C 12.581 2.041,12.581 2.042,12.906 2.155 M11.640 3.464 C 11.042 3.681,10.405 4.390,9.899 5.400 C 9.208 6.782,8.760 8.681,8.618 10.830 L 8.591 11.240 12.000 11.240 L 15.409 11.240 15.382 10.830 C 15.213 8.270,14.622 6.120,13.690 4.680 C 13.404 4.237,12.858 3.698,12.542 3.545 C 12.245 3.401,11.899 3.370,11.640 3.464 M2.040 12.882 C 2.040 13.221,2.242 14.267,2.424 14.868 C 2.797 16.102,3.397 17.250,4.188 18.240 C 5.921 20.409,8.595 21.809,11.320 21.974 C 11.507 21.985,11.624 21.986,11.580 21.976 C 11.023 21.848,10.660 21.698,10.284 21.443 C 8.694 20.363,7.519 17.705,7.138 14.329 C 7.103 14.015,7.062 13.538,7.047 13.269 L 7.020 12.780 4.530 12.770 L 2.040 12.759 2.040 12.882 M8.618 13.170 C 8.787 15.730,9.378 17.880,10.310 19.320 C 10.593 19.759,11.141 20.301,11.460 20.459 C 11.662 20.559,11.748 20.578,12.000 20.578 C 12.416 20.578,12.671 20.447,13.125 20.000 C 14.340 18.804,15.178 16.267,15.382 13.170 L 15.409 12.760 12.000 12.760 L 8.591 12.760 8.618 13.170 M16.984 12.970 C 16.972 13.085,16.951 13.360,16.938 13.580 C 16.900 14.209,16.770 15.159,16.621 15.900 C 16.120 18.390,15.165 20.308,13.947 21.274 C 13.619 21.534,13.303 21.707,12.906 21.845 C 12.581 21.958,12.581 21.959,12.760 21.959 C 12.859 21.959,13.178 21.925,13.469 21.882 C 16.701 21.406,19.532 19.342,20.959 16.420 C 21.296 15.731,21.475 15.253,21.660 14.548 C 21.787 14.064,21.959 13.090,21.960 12.850 L 21.960 12.760 19.483 12.760 L 17.006 12.760 16.984 12.970 M12.430 21.986 C 12.457 21.998,12.502 21.998,12.530 21.986 C 12.558 21.975,12.535 21.966,12.480 21.966 C 12.425 21.966,12.402 21.975,12.430 21.986 " fill="#1C274C" stroke="none" fill-rule="evenodd"></path></svg>