<svg width="24" height="24" viewBox="0 0 24 24" fill="none" xmlns="http://www.w3.org/2000/svg"><path d="M18.420 1.278 C 17.980 1.384,17.759 1.741,17.851 2.196 C 17.882 2.348,17.948 2.434,18.329 2.816 C 19.574 4.065,20.352 5.332,20.836 6.900 C 21.336 8.517,21.374 10.475,20.938 12.120 C 20.697 13.024,20.206 14.137,19.719 14.880 C 18.409 16.879,16.407 18.330,14.120 18.938 C 13.129 19.201,11.771 19.308,10.755 19.204 C 8.478 18.970,6.496 18.018,4.860 16.372 C 4.410 15.920,4.268 15.831,3.999 15.831 C 3.382 15.831,3.039 16.524,3.413 17.015 C 3.595 17.253,4.250 17.884,4.691 18.245 C 6.428 19.667,8.688 20.573,10.830 20.707 L 11.240 20.732 11.240 20.986 L 11.240 21.240 10.642 21.240 C 9.879 21.240,9.679 21.281,9.480 21.480 C 9.071 21.889,9.275 22.595,9.838 22.716 C 10.121 22.776,13.879 22.776,14.162 22.716 C 14.725 22.595,14.929 21.889,14.520 21.480 C 14.321 21.281,14.121 21.240,13.358 21.240 L 12.760 21.240 12.760 20.965 L 12.760 20.689 13.030 20.662 C 13.696 20.593,14.767 20.336,15.500 20.069 C 17.155 19.467,18.740 18.394,19.904 17.089 C 21.894 14.858,22.884 12.033,22.716 9.063 C 22.630 7.539,22.287 6.220,21.621 4.860 C 21.104 3.804,20.569 3.015,19.832 2.217 C 19.438 1.790,19.018 1.393,18.894 1.329 C 18.780 1.270,18.553 1.245,18.420 1.278 M11.260 3.044 C 10.205 3.155,9.105 3.542,8.206 4.118 L 7.881 4.327 8.055 4.574 C 8.787 5.610,9.232 6.708,9.380 7.838 C 9.462 8.465,9.530 8.716,9.727 9.120 C 10.007 9.692,10.455 10.071,11.028 10.220 C 11.339 10.301,11.554 10.295,11.709 10.201 C 11.879 10.098,11.900 9.989,11.824 9.619 C 11.701 9.024,11.754 8.528,11.990 8.060 C 12.366 7.316,12.812 6.908,14.128 6.105 C 14.620 5.805,15.064 5.425,15.199 5.189 C 15.342 4.939,15.620 4.111,15.589 4.029 C 15.577 3.997,15.390 3.880,15.173 3.770 C 13.978 3.159,12.600 2.904,11.260 3.044 M17.017 5.220 C 16.774 5.884,16.559 6.246,16.183 6.624 C 15.794 7.013,15.441 7.276,14.706 7.723 C 14.070 8.110,13.706 8.422,13.545 8.718 C 13.423 8.943,13.423 8.924,13.524 9.630 C 13.624 10.334,13.443 10.879,12.958 11.336 C 12.367 11.894,11.646 12.072,10.740 11.884 C 10.044 11.740,9.493 11.442,8.986 10.934 C 8.328 10.276,7.900 9.386,7.760 8.380 C 7.667 7.713,7.633 7.543,7.533 7.227 C 7.477 7.047,7.364 6.757,7.282 6.580 C 7.120 6.229,6.693 5.520,6.645 5.520 C 6.628 5.520,6.523 5.642,6.412 5.791 C 5.025 7.651,4.643 10.039,5.377 12.260 C 5.616 12.982,6.127 13.880,6.666 14.528 C 7.942 16.058,9.981 17.000,12.014 17.000 L 12.300 17.000 12.304 16.390 C 12.309 15.664,12.380 15.342,12.662 14.768 C 13.235 13.604,14.516 12.960,16.499 12.838 C 16.852 12.816,17.275 12.770,17.440 12.735 C 18.291 12.557,18.746 12.066,18.897 11.165 C 19.169 9.535,18.851 7.835,18.008 6.420 C 17.846 6.147,17.401 5.539,17.189 5.300 C 17.059 5.153,17.044 5.147,17.017 5.220 M16.520 14.523 C 15.582 14.582,14.847 14.810,14.412 15.176 C 14.248 15.314,14.086 15.633,14.019 15.949 C 13.957 16.243,13.941 16.664,13.991 16.695 C 14.034 16.721,14.757 16.444,15.111 16.265 C 15.915 15.859,16.825 15.163,17.242 14.637 L 17.367 14.480 17.193 14.486 C 17.098 14.489,16.795 14.506,16.520 14.523 " fill="#1C274C" stroke="none" fill-rule="evenodd"></path></svg>