<svg width="24" height="24" viewBox="0 0 24 24" fill="none" xmlns="http://www.w3.org/2000/svg"><path d="M11.700 1.316 C 11.506 1.405,11.384 1.532,11.302 1.729 C 11.247 1.861,11.240 2.759,11.240 10.000 C 11.240 17.241,11.247 18.139,11.302 18.271 C 11.569 18.911,12.431 18.911,12.698 18.271 C 12.752 18.142,12.760 17.781,12.760 15.542 L 12.760 12.961 15.910 11.384 C 19.544 9.565,19.904 9.353,20.253 8.827 C 20.601 8.303,20.601 7.697,20.253 7.173 C 19.904 6.647,19.544 6.435,15.910 4.616 L 12.760 3.039 12.759 2.449 C 12.758 1.962,12.745 1.832,12.684 1.700 C 12.503 1.308,12.077 1.142,11.700 1.316 M9.160 15.148 C 7.937 15.272,6.499 15.546,5.520 15.842 C 3.699 16.393,2.552 17.099,2.148 17.919 C 1.963 18.293,1.963 18.707,2.148 19.081 C 3.254 21.323,10.072 22.612,16.001 21.701 C 19.091 21.226,21.277 20.247,21.852 19.081 C 21.964 18.854,21.980 18.781,21.980 18.500 C 21.980 18.215,21.964 18.147,21.845 17.904 C 21.203 16.601,18.434 15.516,14.800 15.145 C 14.525 15.117,14.287 15.101,14.270 15.109 C 14.253 15.118,14.240 15.834,14.240 16.700 C 14.240 17.688,14.224 18.355,14.196 18.488 C 14.034 19.271,13.361 19.967,12.558 20.181 C 12.278 20.255,11.722 20.255,11.442 20.181 C 10.639 19.967,9.966 19.271,9.804 18.488 C 9.776 18.355,9.760 17.688,9.760 16.700 C 9.760 15.834,9.746 15.118,9.730 15.109 C 9.713 15.101,9.457 15.118,9.160 15.148 " fill="#1C274C" stroke="none" fill-rule="evenodd"></path></svg>