<svg width="24" height="24" viewBox="0 0 24 24" fill="none" xmlns="http://www.w3.org/2000/svg"><path d="M11.690 2.084 C 11.485 2.185,11.377 2.327,11.323 2.564 C 11.300 2.661,11.282 3.156,11.281 3.664 L 11.280 4.589 10.832 4.658 C 8.215 5.059,5.960 6.902,5.028 9.400 C 4.856 9.862,4.741 10.305,4.645 10.872 L 4.573 11.300 3.517 11.320 C 2.503 11.339,2.454 11.344,2.313 11.432 C 1.999 11.627,1.916 12.069,2.132 12.394 C 2.320 12.680,2.405 12.698,3.570 12.713 L 4.600 12.726 4.600 12.828 C 4.600 13.028,4.806 13.947,4.944 14.360 C 5.675 16.554,7.446 18.325,9.640 19.056 C 10.053 19.194,10.972 19.400,11.172 19.400 L 11.274 19.400 11.287 20.430 C 11.302 21.595,11.320 21.680,11.606 21.868 C 11.952 22.098,12.382 22.000,12.591 21.646 L 12.700 21.460 12.713 20.430 L 12.726 19.400 12.828 19.400 C 13.028 19.400,13.947 19.194,14.360 19.056 C 16.560 18.323,18.341 16.537,19.059 14.345 C 19.201 13.913,19.400 13.024,19.400 12.825 L 19.400 12.720 20.330 12.719 C 21.314 12.718,21.534 12.692,21.723 12.552 C 21.867 12.445,22.000 12.181,22.000 12.000 C 22.000 11.798,21.856 11.536,21.687 11.432 C 21.546 11.344,21.497 11.339,20.483 11.320 L 19.427 11.300 19.353 10.860 C 19.219 10.065,18.983 9.321,18.660 8.681 C 17.581 6.536,15.507 5.017,13.171 4.658 L 12.726 4.590 12.713 3.565 L 12.700 2.540 12.591 2.354 C 12.399 2.027,12.029 1.917,11.690 2.084 M12.972 8.657 C 14.134 9.000,14.988 9.853,15.347 11.028 C 15.443 11.345,15.454 11.441,15.454 12.000 C 15.454 12.561,15.444 12.654,15.345 12.979 C 14.886 14.485,13.555 15.480,12.000 15.480 C 9.979 15.480,8.414 13.812,8.532 11.783 C 8.626 10.163,9.801 8.855,11.426 8.559 C 11.533 8.540,11.845 8.531,12.120 8.539 C 12.510 8.550,12.697 8.576,12.972 8.657 M11.494 9.977 C 10.761 10.155,10.117 10.817,9.964 11.552 C 9.815 12.269,10.017 12.944,10.536 13.464 C 11.056 13.983,11.731 14.185,12.448 14.036 C 13.204 13.878,13.878 13.204,14.036 12.448 C 14.185 11.731,13.983 11.056,13.464 10.536 C 12.934 10.007,12.214 9.802,11.494 9.977 " fill="#1C274C" stroke="none" fill-rule="evenodd"></path></svg>