<svg width="24" height="24" viewBox="0 0 24 24" fill="none" xmlns="http://www.w3.org/2000/svg"><path d="M8.456 2.042 C 5.720 2.141,4.373 2.534,3.435 3.507 C 2.688 4.282,2.317 5.263,2.142 6.927 C 2.046 7.840,2.001 9.469,2.001 12.000 C 2.001 16.100,2.103 17.613,2.459 18.779 C 2.891 20.195,3.805 21.109,5.221 21.541 C 6.387 21.897,7.900 21.999,12.000 21.999 C 16.116 21.999,17.590 21.899,18.787 21.538 C 20.186 21.116,21.116 20.186,21.538 18.787 C 21.785 17.969,21.899 17.046,21.959 15.393 C 22.004 14.160,22.014 10.077,21.974 9.073 L 21.948 8.413 21.664 8.627 C 20.918 9.190,19.992 9.490,19.000 9.490 C 17.759 9.490,16.699 9.051,15.824 8.176 C 14.949 7.301,14.510 6.241,14.510 5.000 C 14.510 4.008,14.810 3.082,15.373 2.336 L 15.587 2.052 14.964 2.026 C 14.159 1.993,9.502 2.004,8.456 2.042 M18.503 2.040 C 17.828 2.162,17.156 2.550,16.703 3.080 C 15.987 3.917,15.806 5.100,16.234 6.151 C 16.521 6.857,17.143 7.479,17.849 7.766 C 18.989 8.230,20.251 7.978,21.115 7.115 C 22.238 5.992,22.295 4.212,21.246 3.020 C 20.897 2.624,20.276 2.239,19.756 2.097 C 19.491 2.024,18.770 1.991,18.503 2.040 M17.209 9.282 C 17.596 9.389,17.827 9.802,17.721 10.196 C 17.685 10.328,17.410 10.685,16.469 11.813 C 15.806 12.609,15.122 13.399,14.950 13.568 C 14.452 14.058,13.935 14.262,13.429 14.167 C 12.851 14.060,12.499 13.764,11.421 12.480 C 10.763 11.697,10.407 11.320,10.324 11.320 C 10.240 11.320,9.846 11.762,8.689 13.149 C 8.024 13.946,7.430 14.624,7.369 14.655 C 6.774 14.963,6.107 14.442,6.279 13.804 C 6.314 13.673,6.593 13.313,7.530 12.188 C 8.193 11.392,8.874 10.604,9.043 10.438 C 9.697 9.796,10.346 9.649,11.037 9.987 C 11.345 10.137,11.786 10.576,12.579 11.520 C 13.237 12.303,13.593 12.680,13.676 12.680 C 13.760 12.680,14.155 12.238,15.315 10.846 C 16.306 9.659,16.558 9.379,16.694 9.317 C 16.884 9.231,16.998 9.223,17.209 9.282 " fill="#1C274C" stroke="none" fill-rule="evenodd"></path></svg>