<svg width="24" height="24" viewBox="0 0 24 24" fill="none" xmlns="http://www.w3.org/2000/svg"><path d="M8.419 2.041 C 5.785 2.145,4.480 2.507,3.549 3.393 C 2.551 4.342,2.166 5.587,2.041 8.260 C 1.988 9.399,1.988 14.601,2.041 15.740 C 2.160 18.285,2.507 19.501,3.379 20.433 C 4.245 21.360,5.318 21.742,7.580 21.927 C 8.488 22.002,15.512 22.002,16.420 21.927 C 18.857 21.727,19.992 21.275,20.860 20.157 C 21.474 19.368,21.771 18.329,21.927 16.420 C 22.002 15.512,22.002 8.488,21.927 7.580 C 21.740 5.297,21.356 4.232,20.407 3.355 C 19.572 2.585,18.492 2.242,16.380 2.078 C 15.684 2.023,9.573 1.995,8.419 2.041 M7.340 9.330 C 7.384 9.352,7.979 9.926,8.662 10.605 C 9.589 11.526,9.928 11.840,9.999 11.840 C 10.068 11.840,10.341 11.595,11.037 10.906 C 11.858 10.093,12.016 9.955,12.259 9.836 C 12.528 9.705,12.556 9.700,13.000 9.700 C 13.443 9.700,13.473 9.705,13.741 9.836 C 13.989 9.956,14.145 10.095,15.125 11.069 L 16.229 12.166 16.248 11.733 C 16.268 11.267,16.310 11.138,16.506 10.953 C 16.711 10.759,17.027 10.703,17.292 10.814 C 17.447 10.879,17.667 11.119,17.709 11.271 C 17.726 11.331,17.740 12.022,17.740 12.807 L 17.740 14.233 17.619 14.405 C 17.382 14.743,17.404 14.738,15.840 14.753 C 14.332 14.766,14.251 14.757,14.013 14.549 C 13.695 14.269,13.668 13.807,13.953 13.506 C 14.135 13.314,14.268 13.269,14.731 13.244 L 15.163 13.220 14.130 12.190 C 13.361 11.424,13.072 11.160,13.002 11.160 C 12.931 11.160,12.661 11.404,11.960 12.099 C 11.124 12.928,10.981 13.053,10.737 13.169 C 10.474 13.293,10.437 13.300,10.000 13.300 C 9.562 13.300,9.526 13.294,9.260 13.167 C 9.005 13.047,8.866 12.921,7.708 11.767 C 7.008 11.070,6.397 10.439,6.351 10.364 C 6.167 10.069,6.270 9.606,6.567 9.395 C 6.779 9.244,7.114 9.216,7.340 9.330 " fill="#1C274C" stroke="none" fill-rule="evenodd"></path></svg>