<svg width="24" height="24" viewBox="0 0 24 24" fill="none" xmlns="http://www.w3.org/2000/svg"><path d="M8.419 2.041 C 5.785 2.145,4.480 2.507,3.549 3.393 C 2.551 4.342,2.166 5.587,2.041 8.260 C 1.988 9.399,1.988 14.601,2.041 15.740 C 2.160 18.285,2.507 19.501,3.379 20.433 C 4.245 21.360,5.318 21.742,7.580 21.927 C 8.488 22.002,15.512 22.002,16.420 21.927 C 18.857 21.727,19.992 21.275,20.860 20.157 C 21.474 19.368,21.771 18.329,21.927 16.420 C 22.002 15.512,22.002 8.488,21.927 7.580 C 21.740 5.297,21.356 4.232,20.407 3.355 C 19.572 2.585,18.492 2.242,16.380 2.078 C 15.684 2.023,9.573 1.995,8.419 2.041 M17.388 9.367 C 17.477 9.426,17.593 9.543,17.645 9.627 L 17.740 9.780 17.740 11.200 C 17.740 11.981,17.726 12.669,17.709 12.729 C 17.667 12.881,17.447 13.121,17.292 13.186 C 17.027 13.297,16.711 13.241,16.506 13.047 C 16.310 12.862,16.268 12.733,16.248 12.267 L 16.229 11.834 15.124 12.935 C 14.129 13.926,13.991 14.049,13.739 14.168 C 13.474 14.294,13.438 14.300,13.000 14.300 C 12.563 14.300,12.526 14.293,12.263 14.169 C 12.019 14.053,11.876 13.928,11.040 13.099 C 10.341 12.405,10.068 12.160,9.999 12.160 C 9.928 12.160,9.585 12.478,8.642 13.417 C 7.532 14.522,7.359 14.679,7.205 14.719 C 6.714 14.850,6.267 14.509,6.267 14.003 C 6.267 13.837,6.290 13.733,6.351 13.636 C 6.397 13.561,7.008 12.931,7.708 12.236 C 8.849 11.101,9.009 10.957,9.259 10.836 C 9.527 10.705,9.557 10.700,10.000 10.700 C 10.444 10.700,10.472 10.705,10.741 10.836 C 10.984 10.955,11.142 11.093,11.963 11.906 C 12.662 12.598,12.931 12.840,13.002 12.840 C 13.073 12.840,13.361 12.576,14.138 11.800 L 15.180 10.760 14.780 10.759 C 14.333 10.758,14.141 10.697,13.953 10.495 C 13.759 10.288,13.703 9.973,13.814 9.708 C 13.881 9.548,14.124 9.329,14.271 9.297 C 14.331 9.284,14.398 9.266,14.420 9.258 C 14.442 9.250,15.082 9.248,15.843 9.252 L 17.226 9.260 17.388 9.367 " fill="#1C274C" stroke="none" fill-rule="evenodd"></path></svg>