<svg width="24" height="24" viewBox="0 0 24 24" fill="none" xmlns="http://www.w3.org/2000/svg"><path d="M8.456 2.042 C 5.720 2.141,4.373 2.534,3.435 3.507 C 2.688 4.282,2.317 5.263,2.142 6.927 C 2.046 7.840,2.001 9.469,2.001 12.000 C 2.001 16.100,2.103 17.613,2.459 18.779 C 2.891 20.195,3.805 21.109,5.221 21.541 C 6.387 21.897,7.900 21.999,12.000 21.999 C 16.116 21.999,17.590 21.899,18.787 21.538 C 20.186 21.116,21.116 20.186,21.538 18.787 C 21.785 17.969,21.899 17.046,21.959 15.393 C 22.004 14.160,22.014 10.077,21.974 9.073 L 21.948 8.413 21.664 8.627 C 20.918 9.190,19.992 9.490,19.000 9.490 C 17.759 9.490,16.699 9.051,15.824 8.176 C 14.949 7.301,14.510 6.241,14.510 5.000 C 14.510 4.008,14.810 3.082,15.373 2.336 L 15.587 2.052 14.964 2.026 C 14.159 1.993,9.502 2.004,8.456 2.042 M18.503 2.040 C 17.828 2.162,17.156 2.550,16.703 3.080 C 15.987 3.917,15.806 5.100,16.234 6.151 C 16.521 6.857,17.143 7.479,17.849 7.766 C 18.989 8.230,20.251 7.978,21.115 7.115 C 22.238 5.992,22.295 4.212,21.246 3.020 C 20.897 2.624,20.276 2.239,19.756 2.097 C 19.491 2.024,18.770 1.991,18.503 2.040 M7.271 9.302 C 7.370 9.343,7.834 9.776,8.661 10.602 C 9.594 11.531,9.927 11.840,9.998 11.840 C 10.069 11.840,10.342 11.594,11.057 10.888 C 12.235 9.723,12.272 9.700,13.000 9.700 C 13.743 9.700,13.745 9.701,15.110 11.056 L 16.240 12.177 16.240 11.776 C 16.240 11.430,16.253 11.349,16.339 11.178 C 16.629 10.602,17.416 10.626,17.685 11.220 C 17.751 11.365,17.758 11.511,17.758 12.760 C 17.758 14.017,17.752 14.154,17.684 14.300 C 17.595 14.494,17.468 14.616,17.271 14.698 C 17.147 14.750,16.900 14.760,15.751 14.759 C 14.511 14.758,14.365 14.751,14.220 14.685 C 14.013 14.591,13.811 14.360,13.777 14.178 C 13.708 13.812,13.857 13.500,14.178 13.339 C 14.349 13.253,14.430 13.240,14.778 13.240 L 15.180 13.240 14.138 12.200 C 13.361 11.424,13.073 11.160,13.002 11.160 C 12.931 11.160,12.662 11.403,11.960 12.099 C 11.124 12.928,10.981 13.053,10.737 13.169 C 10.474 13.293,10.437 13.300,10.000 13.300 C 9.246 13.300,9.279 13.322,7.705 11.763 C 6.836 10.901,6.366 10.406,6.316 10.300 C 6.141 9.924,6.308 9.497,6.700 9.316 C 6.896 9.225,7.076 9.221,7.271 9.302 " fill="#1C274C" stroke="none" fill-rule="evenodd"></path></svg>