<svg width="24" height="24" viewBox="0 0 24 24" fill="none" xmlns="http://www.w3.org/2000/svg"><path d="M8.456 2.042 C 5.720 2.141,4.373 2.534,3.435 3.507 C 2.688 4.282,2.317 5.263,2.142 6.927 C 2.046 7.840,2.001 9.469,2.001 12.000 C 2.001 16.100,2.103 17.613,2.459 18.779 C 2.891 20.195,3.805 21.109,5.221 21.541 C 6.387 21.897,7.900 21.999,12.000 21.999 C 16.116 21.999,17.590 21.899,18.787 21.538 C 20.186 21.116,21.116 20.186,21.538 18.787 C 21.785 17.969,21.899 17.046,21.959 15.393 C 22.004 14.160,22.014 10.077,21.974 9.073 L 21.948 8.413 21.664 8.627 C 20.918 9.190,19.992 9.490,19.000 9.490 C 17.759 9.490,16.699 9.051,15.824 8.176 C 14.949 7.301,14.510 6.241,14.510 5.000 C 14.510 4.008,14.810 3.082,15.373 2.336 L 15.587 2.052 14.964 2.026 C 14.159 1.993,9.502 2.004,8.456 2.042 M18.503 2.040 C 17.828 2.162,17.156 2.550,16.703 3.080 C 15.987 3.917,15.806 5.100,16.234 6.151 C 16.521 6.857,17.143 7.479,17.849 7.766 C 18.989 8.230,20.251 7.978,21.115 7.115 C 22.238 5.992,22.295 4.212,21.246 3.020 C 20.897 2.624,20.276 2.239,19.756 2.097 C 19.491 2.024,18.770 1.991,18.503 2.040 M17.271 9.302 C 17.468 9.384,17.595 9.506,17.684 9.700 C 17.752 9.846,17.758 9.983,17.758 11.240 C 17.758 12.763,17.752 12.808,17.495 13.047 C 17.120 13.398,16.541 13.267,16.316 12.780 C 16.260 12.659,16.242 12.524,16.241 12.222 L 16.240 11.823 15.129 12.929 C 14.129 13.926,13.991 14.049,13.739 14.168 C 13.474 14.294,13.438 14.300,13.000 14.300 C 12.272 14.300,12.235 14.277,11.057 13.112 C 10.342 12.406,10.069 12.160,9.998 12.160 C 9.927 12.160,9.594 12.469,8.661 13.398 C 7.397 14.660,7.273 14.761,6.991 14.759 C 6.827 14.758,6.568 14.641,6.452 14.515 C 6.334 14.387,6.240 14.153,6.241 13.991 C 6.243 13.713,6.368 13.563,7.705 12.237 C 9.279 10.678,9.246 10.700,10.000 10.700 C 10.728 10.700,10.765 10.723,11.943 11.888 C 12.657 12.594,12.931 12.840,13.002 12.840 C 13.073 12.840,13.361 12.576,14.138 11.800 L 15.180 10.760 14.780 10.759 C 14.315 10.758,14.132 10.695,13.932 10.467 C 13.790 10.306,13.739 10.117,13.772 9.875 C 13.802 9.647,13.949 9.454,14.178 9.339 L 14.376 9.240 15.749 9.240 C 16.898 9.240,17.147 9.250,17.271 9.302 " fill="#1C274C" stroke="none" fill-rule="evenodd"></path></svg>