<svg width="24" height="24" viewBox="0 0 24 24" fill="none" xmlns="http://www.w3.org/2000/svg"><path d="M8.419 2.041 C 5.785 2.145,4.480 2.507,3.549 3.393 C 2.551 4.342,2.166 5.587,2.041 8.260 C 1.988 9.399,1.988 14.601,2.041 15.740 C 2.160 18.285,2.507 19.501,3.379 20.433 C 4.245 21.360,5.318 21.742,7.580 21.927 C 8.488 22.002,15.512 22.002,16.420 21.927 C 18.857 21.727,19.992 21.275,20.860 20.157 C 21.474 19.368,21.771 18.329,21.927 16.420 C 22.002 15.512,22.002 8.488,21.927 7.580 C 21.740 5.297,21.356 4.232,20.407 3.355 C 19.572 2.585,18.492 2.242,16.380 2.078 C 15.684 2.023,9.573 1.995,8.419 2.041 M17.389 9.366 C 17.660 9.533,17.795 9.867,17.716 10.179 C 17.678 10.332,17.468 10.605,16.447 11.831 C 15.774 12.639,15.104 13.417,14.958 13.560 C 14.123 14.378,13.281 14.398,12.447 13.621 C 12.282 13.466,11.876 13.016,11.545 12.620 C 10.872 11.813,10.412 11.320,10.334 11.320 C 10.238 11.320,9.863 11.737,8.653 13.186 C 7.993 13.975,7.407 14.642,7.350 14.668 C 6.758 14.938,6.129 14.437,6.284 13.819 C 6.322 13.671,6.513 13.418,7.351 12.409 C 8.793 10.675,9.014 10.426,9.314 10.200 C 9.681 9.924,9.938 9.833,10.351 9.832 C 10.646 9.832,10.713 9.847,10.975 9.971 C 11.362 10.155,11.698 10.475,12.454 11.380 C 13.129 12.188,13.588 12.680,13.666 12.680 C 13.761 12.680,14.139 12.262,15.332 10.834 C 15.982 10.056,16.555 9.395,16.606 9.364 C 16.838 9.223,17.157 9.224,17.389 9.366 " fill="#1C274C" stroke="none" fill-rule="evenodd"></path></svg>