<svg width="24" height="24" viewBox="0 0 24 24" fill="none" xmlns="http://www.w3.org/2000/svg"><path d="M8.419 2.041 C 5.785 2.145,4.480 2.507,3.549 3.393 C 2.551 4.342,2.166 5.587,2.041 8.260 C 1.988 9.399,1.988 14.601,2.041 15.740 C 2.160 18.285,2.507 19.501,3.379 20.433 C 4.245 21.360,5.318 21.742,7.580 21.927 C 8.488 22.002,15.512 22.002,16.420 21.927 C 18.857 21.727,19.992 21.275,20.860 20.157 C 21.474 19.368,21.771 18.329,21.927 16.420 C 22.002 15.512,22.002 8.488,21.927 7.580 C 21.740 5.297,21.356 4.232,20.407 3.355 C 19.572 2.585,18.492 2.242,16.380 2.078 C 15.684 2.023,9.573 1.995,8.419 2.041 M18.373 7.355 C 18.615 7.506,18.733 7.718,18.733 8.003 C 18.733 8.203,18.714 8.270,18.616 8.409 C 18.552 8.501,18.436 8.613,18.359 8.658 C 18.221 8.740,18.196 8.740,12.000 8.740 C 5.804 8.740,5.779 8.740,5.641 8.658 C 5.564 8.613,5.448 8.501,5.384 8.409 C 5.098 8.003,5.330 7.395,5.815 7.278 C 5.884 7.261,8.703 7.250,12.080 7.254 L 18.220 7.260 18.373 7.355 M18.373 11.355 C 18.615 11.506,18.733 11.718,18.733 12.003 C 18.733 12.203,18.714 12.270,18.616 12.409 C 18.552 12.501,18.436 12.613,18.359 12.658 C 18.221 12.740,18.196 12.740,12.000 12.740 C 5.804 12.740,5.779 12.740,5.641 12.658 C 5.564 12.613,5.448 12.501,5.384 12.409 C 5.098 12.003,5.330 11.395,5.815 11.278 C 5.884 11.261,8.703 11.250,12.080 11.254 L 18.220 11.260 18.373 11.355 M18.373 15.355 C 18.615 15.506,18.733 15.718,18.733 16.003 C 18.733 16.203,18.714 16.270,18.616 16.409 C 18.552 16.501,18.436 16.613,18.359 16.658 C 18.221 16.740,18.196 16.740,12.000 16.740 C 5.804 16.740,5.779 16.740,5.641 16.658 C 5.564 16.613,5.448 16.501,5.384 16.409 C 5.098 16.003,5.330 15.395,5.815 15.278 C 5.884 15.261,8.703 15.250,12.080 15.254 L 18.220 15.260 18.373 15.355 " fill="#1C274C" stroke="none" fill-rule="evenodd"></path></svg>