<svg width="24" height="24" viewBox="0 0 24 24" fill="none" xmlns="http://www.w3.org/2000/svg"><path d="M15.660 1.281 C 15.187 1.323,14.702 1.425,14.487 1.527 C 13.957 1.780,13.954 2.572,14.482 2.841 C 14.678 2.941,14.829 2.940,15.334 2.836 C 15.855 2.729,16.653 2.746,17.124 2.875 C 17.721 3.038,18.292 3.353,18.740 3.767 C 19.041 4.045,19.204 4.129,19.439 4.129 C 20.056 4.129,20.400 3.435,20.026 2.944 C 19.888 2.763,19.481 2.413,19.143 2.182 C 18.135 1.497,16.879 1.172,15.660 1.281 M9.894 3.003 C 9.664 3.092,9.367 3.334,9.244 3.534 C 9.122 3.731,9.066 4.040,9.118 4.231 C 9.141 4.319,9.711 5.333,10.384 6.485 C 11.057 7.637,11.651 8.665,11.704 8.769 C 11.910 9.172,11.775 9.623,11.389 9.825 C 11.149 9.950,10.735 9.883,10.549 9.689 C 10.492 9.629,9.663 8.239,8.707 6.600 C 7.032 3.726,6.963 3.616,6.778 3.500 C 6.601 3.389,6.558 3.380,6.223 3.381 C 5.905 3.381,5.834 3.395,5.649 3.492 C 5.196 3.729,4.980 4.055,4.980 4.500 L 4.981 4.780 6.874 8.020 C 7.916 9.802,8.802 11.327,8.844 11.408 C 8.935 11.587,8.944 11.917,8.862 12.076 C 8.669 12.449,8.202 12.606,7.840 12.419 C 7.653 12.322,7.533 12.142,6.699 10.700 C 5.777 9.109,5.667 8.963,5.320 8.880 C 4.793 8.754,4.175 9.028,3.888 9.515 C 3.798 9.669,3.780 9.748,3.780 9.980 L 3.780 10.260 5.694 13.540 C 6.747 15.344,7.709 16.973,7.832 17.160 C 8.123 17.602,8.800 18.280,9.240 18.567 C 10.439 19.351,11.815 19.699,13.305 19.595 C 16.009 19.407,18.519 17.727,19.635 15.359 C 20.050 14.477,20.219 13.720,20.218 12.740 C 20.218 11.995,20.166 11.655,19.959 11.032 C 19.793 10.534,19.672 10.310,18.229 7.840 C 16.985 5.711,16.924 5.615,16.739 5.500 C 16.564 5.391,16.515 5.380,16.203 5.380 C 15.910 5.380,15.827 5.396,15.637 5.489 C 15.073 5.767,14.786 6.349,14.990 6.803 C 15.033 6.900,15.441 7.617,15.896 8.395 C 16.351 9.174,16.743 9.886,16.768 9.977 C 16.866 10.346,16.735 10.583,16.243 10.920 C 15.314 11.556,14.800 12.439,14.800 13.398 C 14.800 13.796,14.871 14.105,15.052 14.499 C 15.258 14.948,15.192 15.294,14.853 15.533 C 14.540 15.754,14.133 15.702,13.876 15.409 C 13.716 15.227,13.506 14.771,13.396 14.368 C 13.269 13.901,13.249 13.132,13.352 12.635 C 13.496 11.940,13.826 11.249,14.287 10.680 C 14.614 10.276,14.725 10.031,14.725 9.710 C 14.725 9.572,14.705 9.405,14.680 9.339 C 14.615 9.168,11.208 3.336,11.094 3.200 C 10.860 2.922,10.330 2.836,9.894 3.003 M4.500 17.817 C 4.348 17.885,4.148 18.102,4.081 18.271 C 3.960 18.577,4.107 18.921,4.699 19.716 C 5.293 20.514,6.150 21.313,7.043 21.902 C 7.530 22.223,8.458 22.705,8.663 22.743 C 8.833 22.775,9.085 22.708,9.246 22.589 C 9.485 22.413,9.587 21.998,9.464 21.704 C 9.384 21.512,9.265 21.416,8.860 21.211 C 7.414 20.483,6.412 19.617,5.628 18.419 C 5.483 18.198,5.332 17.987,5.291 17.950 C 5.096 17.774,4.733 17.712,4.500 17.817 " fill="#1C274C" stroke="none" fill-rule="evenodd"></path></svg>