<svg width="24" height="24" viewBox="0 0 24 24" fill="none" xmlns="http://www.w3.org/2000/svg"><path d="M10.271 2.039 C 9.239 2.227,8.423 2.954,8.114 3.960 C 7.983 4.386,7.983 5.054,8.114 5.480 C 8.291 6.057,8.547 6.414,9.373 7.235 L 9.871 7.730 10.101 7.625 C 11.421 7.021,12.893 5.570,13.570 4.208 L 13.735 3.876 13.237 3.376 C 12.421 2.554,12.056 2.291,11.500 2.121 C 11.185 2.025,10.570 1.984,10.271 2.039 M14.339 4.906 C 13.580 6.271,12.271 7.580,10.906 8.339 L 10.633 8.491 10.946 8.808 C 11.830 9.701,12.383 9.978,13.280 9.978 C 13.647 9.978,13.800 9.960,14.040 9.886 C 14.934 9.610,15.610 8.934,15.886 8.040 C 15.960 7.800,15.978 7.647,15.978 7.280 C 15.978 6.383,15.701 5.830,14.808 4.946 L 14.491 4.633 14.339 4.906 M9.840 15.043 C 8.949 15.128,7.821 15.391,6.933 15.721 C 5.911 16.101,4.578 16.793,4.269 17.104 C 4.005 17.369,3.992 17.474,4.009 19.131 C 4.027 20.754,4.038 20.824,4.310 21.096 C 4.555 21.342,4.691 21.364,6.200 21.401 C 7.610 21.435,8.268 21.498,9.280 21.697 C 12.247 22.280,15.262 22.008,17.340 20.969 C 18.166 20.557,18.928 20.041,19.363 19.601 C 19.932 19.025,20.874 17.677,20.961 17.315 C 21.129 16.614,20.664 15.915,19.866 15.673 C 19.495 15.560,18.925 15.583,18.600 15.723 C 18.474 15.777,17.866 16.203,17.173 16.724 C 15.437 18.029,14.971 18.290,14.079 18.457 C 13.802 18.508,13.787 18.508,13.880 18.449 C 14.067 18.329,14.382 17.980,14.468 17.798 C 14.746 17.204,14.622 16.544,14.141 16.063 C 13.782 15.704,12.893 15.304,12.100 15.144 C 11.416 15.007,10.605 14.971,9.840 15.043 " fill="#1C274C" stroke="none" fill-rule="evenodd"></path></svg>