<svg width="24" height="24" viewBox="0 0 24 24" fill="none" xmlns="http://www.w3.org/2000/svg"><path d="M9.727 2.408 C 9.624 3.284,9.269 4.012,8.638 4.640 C 8.004 5.272,7.281 5.624,6.408 5.727 L 6.000 5.775 6.000 6.000 L 6.000 6.225 6.408 6.273 C 7.282 6.376,8.010 6.730,8.640 7.360 C 9.270 7.990,9.624 8.718,9.727 9.592 L 9.775 10.000 12.000 10.000 L 14.225 10.000 14.273 9.592 C 14.376 8.718,14.730 7.990,15.360 7.360 C 15.990 6.730,16.718 6.376,17.592 6.273 L 18.000 6.225 18.000 6.000 L 18.000 5.775 17.592 5.727 C 16.718 5.624,15.990 5.270,15.360 4.640 C 14.730 4.010,14.376 3.282,14.273 2.408 L 14.225 2.000 12.000 2.000 L 9.775 2.000 9.727 2.408 M7.680 2.100 C 6.706 2.267,6.260 2.724,6.096 3.720 C 6.006 4.272,6.000 4.256,6.264 4.225 C 7.289 4.104,8.104 3.289,8.225 2.264 L 8.251 2.040 8.116 2.044 C 8.041 2.046,7.845 2.071,7.680 2.100 M15.775 2.264 C 15.896 3.289,16.711 4.104,17.736 4.225 C 18.000 4.256,17.994 4.272,17.904 3.720 C 17.737 2.708,17.292 2.263,16.280 2.096 C 15.728 2.006,15.744 2.000,15.775 2.264 M12.512 5.147 C 13.142 5.534,13.154 6.446,12.535 6.839 C 12.060 7.141,11.442 6.992,11.141 6.503 C 11.034 6.329,11.020 6.271,11.020 6.003 C 11.020 5.744,11.036 5.673,11.131 5.511 C 11.339 5.158,11.660 4.988,12.072 5.015 C 12.261 5.027,12.371 5.060,12.512 5.147 M6.040 7.844 C 6.040 7.897,6.065 8.093,6.096 8.280 C 6.263 9.292,6.708 9.737,7.720 9.904 C 8.272 9.994,8.256 10.000,8.225 9.736 C 8.104 8.711,7.289 7.896,6.264 7.775 C 6.047 7.750,6.040 7.752,6.040 7.844 M17.480 7.821 C 16.554 8.048,15.885 8.799,15.775 9.736 C 15.744 10.000,15.728 9.994,16.280 9.904 C 17.292 9.737,17.737 9.292,17.904 8.280 C 17.987 7.775,17.984 7.759,17.830 7.763 C 17.758 7.765,17.601 7.791,17.480 7.821 M9.840 15.043 C 8.949 15.128,7.821 15.391,6.933 15.721 C 5.911 16.101,4.578 16.793,4.269 17.104 C 4.005 17.369,3.992 17.474,4.009 19.131 C 4.027 20.754,4.038 20.824,4.310 21.096 C 4.555 21.342,4.691 21.364,6.200 21.401 C 7.610 21.435,8.268 21.498,9.280 21.697 C 12.247 22.280,15.262 22.008,17.340 20.969 C 18.166 20.557,18.928 20.041,19.363 19.601 C 19.932 19.025,20.874 17.677,20.961 17.315 C 21.129 16.614,20.664 15.915,19.866 15.673 C 19.495 15.560,18.925 15.583,18.600 15.723 C 18.474 15.777,17.866 16.203,17.173 16.724 C 15.437 18.029,14.971 18.290,14.079 18.457 C 13.802 18.508,13.787 18.508,13.880 18.449 C 14.067 18.329,14.382 17.980,14.468 17.798 C 14.746 17.204,14.622 16.544,14.141 16.063 C 13.782 15.704,12.893 15.304,12.100 15.144 C 11.416 15.007,10.605 14.971,9.840 15.043 " fill="#1C274C" stroke="none" fill-rule="evenodd"></path></svg>