<svg width="24" height="24" viewBox="0 0 24 24" fill="none" xmlns="http://www.w3.org/2000/svg"><path d="M9.009 2.042 C 8.520 2.130,7.942 2.470,7.640 2.849 C 7.113 3.509,6.876 4.563,7.074 5.360 C 7.362 6.522,8.448 7.808,10.345 9.235 C 11.142 9.834,11.497 9.998,12.000 9.998 C 12.503 9.998,12.858 9.834,13.655 9.235 C 15.552 7.808,16.638 6.522,16.926 5.360 C 16.996 5.081,17.007 4.949,16.987 4.620 C 16.910 3.314,16.288 2.442,15.180 2.088 C 14.898 1.998,14.144 2.002,13.800 2.096 C 13.278 2.238,12.488 2.679,12.181 2.999 C 12.117 3.066,12.036 3.120,12.000 3.120 C 11.964 3.120,11.883 3.066,11.819 2.999 C 11.516 2.683,10.718 2.235,10.220 2.103 C 9.922 2.023,9.290 1.991,9.009 2.042 M10.040 15.023 C 9.963 15.032,9.729 15.059,9.520 15.083 C 8.742 15.172,7.713 15.432,6.820 15.764 C 5.954 16.087,4.573 16.806,4.294 17.078 C 4.018 17.348,4.020 17.336,4.020 19.000 C 4.020 20.643,4.040 20.815,4.260 21.050 C 4.519 21.327,4.706 21.359,6.294 21.401 C 7.726 21.439,8.136 21.478,9.220 21.681 C 10.698 21.957,11.847 22.043,13.053 21.968 C 15.279 21.829,16.727 21.406,18.254 20.448 C 19.119 19.905,19.544 19.492,20.249 18.507 C 20.920 17.570,21.071 17.204,20.963 16.774 C 20.773 16.019,20.086 15.562,19.213 15.609 C 18.642 15.640,18.539 15.697,17.160 16.735 C 16.484 17.244,15.780 17.749,15.595 17.859 C 15.029 18.194,14.508 18.388,13.881 18.497 L 13.742 18.522 13.921 18.408 C 14.156 18.258,14.348 18.035,14.476 17.762 C 14.566 17.569,14.580 17.488,14.580 17.140 C 14.579 16.782,14.567 16.715,14.466 16.508 C 14.251 16.069,13.798 15.723,13.060 15.435 C 12.344 15.156,11.737 15.044,10.820 15.022 C 10.468 15.014,10.117 15.014,10.040 15.023 " fill="#1C274C" stroke="none" fill-rule="evenodd"></path></svg>