<svg width="24" height="24" viewBox="0 0 24 24" fill="none" xmlns="http://www.w3.org/2000/svg"><path d="M11.820 2.047 C 11.573 2.183,11.367 2.464,10.901 3.300 C 10.729 3.608,10.533 3.919,10.466 3.991 C 10.326 4.139,10.233 4.171,9.274 4.398 C 8.541 4.572,8.310 4.662,8.136 4.844 C 8.037 4.948,8.020 4.997,8.022 5.178 C 8.025 5.461,8.152 5.666,8.810 6.446 C 9.095 6.784,9.357 7.119,9.392 7.191 C 9.449 7.308,9.450 7.385,9.405 7.911 C 9.281 9.321,9.298 9.647,9.505 9.854 C 9.742 10.091,10.061 10.029,11.143 9.534 C 11.668 9.293,11.860 9.224,12.000 9.224 C 12.140 9.224,12.332 9.293,12.857 9.534 C 13.939 10.029,14.258 10.091,14.495 9.854 C 14.695 9.654,14.724 9.282,14.620 8.240 C 14.535 7.388,14.540 7.286,14.670 7.091 C 14.730 7.001,14.987 6.681,15.240 6.381 C 15.854 5.654,15.975 5.456,15.978 5.180 C 15.982 4.784,15.752 4.641,14.726 4.398 C 13.767 4.171,13.674 4.139,13.534 3.991 C 13.466 3.919,13.280 3.626,13.120 3.340 C 12.959 3.054,12.766 2.721,12.690 2.600 C 12.374 2.098,12.073 1.907,11.820 2.047 M3.848 7.063 C 3.798 7.098,3.649 7.312,3.517 7.538 C 3.385 7.765,3.246 7.978,3.208 8.011 C 3.171 8.045,2.925 8.128,2.662 8.197 C 1.843 8.410,1.820 8.505,2.418 9.237 L 2.721 9.608 2.694 10.218 C 2.669 10.815,2.670 10.830,2.759 10.919 C 2.878 11.038,2.998 11.017,3.536 10.783 C 3.767 10.682,3.976 10.600,4.000 10.600 C 4.024 10.600,4.233 10.682,4.464 10.783 C 5.002 11.017,5.122 11.038,5.241 10.919 C 5.330 10.830,5.331 10.815,5.306 10.218 L 5.279 9.608 5.582 9.237 C 6.180 8.505,6.157 8.410,5.338 8.197 C 5.075 8.128,4.829 8.045,4.792 8.011 C 4.754 7.978,4.615 7.765,4.483 7.538 C 4.248 7.136,4.126 7.000,4.000 7.000 C 3.966 7.000,3.897 7.028,3.848 7.063 M19.848 7.063 C 19.798 7.098,19.649 7.312,19.517 7.538 C 19.385 7.765,19.246 7.978,19.208 8.011 C 19.171 8.045,18.925 8.128,18.662 8.197 C 17.843 8.410,17.820 8.505,18.418 9.237 L 18.721 9.608 18.694 10.218 C 18.669 10.815,18.670 10.830,18.759 10.919 C 18.878 11.038,18.998 11.017,19.536 10.783 C 19.767 10.682,19.976 10.600,20.000 10.600 C 20.024 10.600,20.233 10.682,20.464 10.783 C 21.002 11.017,21.122 11.038,21.241 10.919 C 21.330 10.830,21.331 10.815,21.306 10.218 L 21.279 9.608 21.582 9.237 C 22.180 8.505,22.157 8.410,21.338 8.197 C 21.075 8.128,20.829 8.045,20.792 8.011 C 20.754 7.978,20.615 7.765,20.483 7.538 C 20.248 7.136,20.126 7.000,20.000 7.000 C 19.966 7.000,19.897 7.028,19.848 7.063 M9.840 15.043 C 8.949 15.128,7.821 15.391,6.933 15.721 C 5.911 16.101,4.578 16.793,4.269 17.104 C 4.005 17.369,3.992 17.474,4.009 19.131 C 4.027 20.754,4.038 20.824,4.310 21.096 C 4.555 21.342,4.691 21.364,6.200 21.401 C 7.610 21.435,8.268 21.498,9.280 21.697 C 12.247 22.280,15.262 22.008,17.340 20.969 C 18.166 20.557,18.928 20.041,19.363 19.601 C 19.932 19.025,20.874 17.677,20.961 17.315 C 21.129 16.614,20.664 15.915,19.866 15.673 C 19.495 15.560,18.925 15.583,18.600 15.723 C 18.474 15.777,17.866 16.203,17.173 16.724 C 15.437 18.029,14.971 18.290,14.079 18.457 C 13.802 18.508,13.787 18.508,13.880 18.449 C 14.067 18.329,14.382 17.980,14.468 17.798 C 14.746 17.204,14.622 16.544,14.141 16.063 C 13.782 15.704,12.893 15.304,12.100 15.144 C 11.416 15.007,10.605 14.971,9.840 15.043 " fill="#1C274C" stroke="none" fill-rule="evenodd"></path></svg>