<svg width="24" height="24" viewBox="0 0 24 24" fill="none" xmlns="http://www.w3.org/2000/svg"><path d="M11.280 4.281 C 9.897 4.452,8.800 5.574,8.800 6.817 C 8.800 7.141,8.863 7.301,9.055 7.470 C 9.400 7.773,9.978 7.671,10.185 7.270 C 10.219 7.204,10.264 7.031,10.285 6.887 C 10.353 6.406,10.584 6.097,11.035 5.885 C 11.231 5.794,11.311 5.780,11.660 5.780 C 12.007 5.780,12.089 5.794,12.282 5.884 C 12.773 6.114,13.019 6.468,13.016 6.940 C 13.014 7.329,12.923 7.484,12.363 8.060 C 11.581 8.864,11.304 9.244,11.159 9.713 L 11.090 9.935 10.755 10.023 C 10.337 10.131,10.170 10.194,9.818 10.371 C 9.568 10.497,2.422 15.490,2.010 15.826 C 1.917 15.903,1.757 16.081,1.656 16.224 C 1.055 17.066,1.135 18.178,1.853 18.948 C 2.163 19.281,2.483 19.490,2.897 19.630 L 3.220 19.740 12.000 19.740 L 20.780 19.740 21.103 19.630 C 22.134 19.281,22.831 18.292,22.743 17.303 C 22.694 16.752,22.388 16.152,21.989 15.826 C 21.896 15.749,20.119 14.538,18.040 13.135 C 14.109 10.481,13.651 10.198,13.051 10.047 C 12.891 10.007,12.749 9.963,12.735 9.948 C 12.693 9.907,12.896 9.665,13.462 9.082 C 14.054 8.473,14.229 8.226,14.389 7.773 C 14.488 7.493,14.500 7.405,14.500 6.940 C 14.500 6.498,14.486 6.376,14.403 6.125 C 14.194 5.486,13.672 4.900,13.013 4.566 C 12.565 4.339,11.812 4.215,11.280 4.281 M12.582 11.480 C 12.755 11.525,13.010 11.619,13.149 11.690 C 13.549 11.895,21.034 16.959,21.124 17.086 C 21.307 17.342,21.271 17.685,21.035 17.941 C 20.735 18.267,21.541 18.240,12.000 18.240 C 2.459 18.240,3.265 18.267,2.965 17.941 C 2.730 17.686,2.693 17.342,2.873 17.090 C 2.972 16.951,10.209 11.857,10.555 11.682 C 11.124 11.395,11.934 11.315,12.582 11.480 " fill="#1C274C" stroke="none" fill-rule="evenodd"></path></svg>