<svg width="24" height="24" viewBox="0 0 24 24" fill="none" xmlns="http://www.w3.org/2000/svg"><path d="M11.280 1.281 C 9.897 1.452,8.800 2.574,8.800 3.817 C 8.800 4.141,8.863 4.301,9.055 4.470 C 9.400 4.773,9.978 4.671,10.185 4.270 C 10.219 4.204,10.264 4.031,10.285 3.887 C 10.353 3.406,10.584 3.097,11.035 2.885 C 11.231 2.794,11.311 2.780,11.660 2.780 C 12.007 2.780,12.089 2.794,12.282 2.884 C 12.773 3.114,13.019 3.468,13.016 3.940 C 13.014 4.329,12.923 4.484,12.363 5.060 C 11.581 5.864,11.304 6.244,11.159 6.713 L 11.090 6.935 10.755 7.023 C 10.337 7.131,10.170 7.194,9.818 7.371 C 9.568 7.497,2.422 12.490,2.010 12.826 C 1.917 12.903,1.757 13.081,1.656 13.224 C 1.055 14.066,1.135 15.178,1.853 15.948 C 2.164 16.283,2.485 16.491,2.897 16.629 C 3.218 16.736,3.227 16.736,4.606 16.751 L 5.991 16.766 6.011 18.413 C 6.028 19.874,6.040 20.102,6.112 20.428 C 6.304 21.301,6.748 21.725,7.660 21.908 C 7.992 21.974,8.325 21.980,12.000 21.980 C 15.675 21.980,16.008 21.974,16.340 21.908 C 17.252 21.725,17.696 21.301,17.888 20.428 C 17.960 20.102,17.972 19.874,17.989 18.413 L 18.009 16.766 19.394 16.751 C 20.773 16.736,20.782 16.736,21.103 16.629 C 22.130 16.287,22.831 15.292,22.743 14.303 C 22.694 13.752,22.388 13.152,21.989 12.826 C 21.896 12.749,20.119 11.538,18.040 10.135 C 14.109 7.481,13.651 7.198,13.051 7.047 C 12.891 7.007,12.749 6.963,12.735 6.948 C 12.693 6.907,12.896 6.665,13.462 6.082 C 14.054 5.473,14.229 5.226,14.389 4.773 C 14.488 4.493,14.500 4.405,14.500 3.940 C 14.500 3.498,14.486 3.376,14.403 3.125 C 14.194 2.486,13.672 1.900,13.013 1.566 C 12.565 1.339,11.812 1.215,11.280 1.281 M12.582 8.480 C 12.755 8.525,13.010 8.619,13.149 8.690 C 13.549 8.895,21.034 13.959,21.124 14.086 C 21.307 14.342,21.271 14.685,21.035 14.941 C 20.768 15.230,20.705 15.240,19.163 15.240 L 17.820 15.240 17.687 14.982 C 17.462 14.548,17.077 14.263,16.549 14.141 C 16.057 14.027,15.205 14.000,12.000 14.000 C 8.795 14.000,7.943 14.027,7.451 14.141 C 6.923 14.263,6.538 14.548,6.313 14.982 L 6.180 15.240 4.837 15.240 C 3.295 15.240,3.232 15.230,2.965 14.941 C 2.730 14.686,2.693 14.342,2.873 14.090 C 2.972 13.951,10.209 8.857,10.555 8.682 C 11.124 8.395,11.934 8.315,12.582 8.480 " fill="#1C274C" stroke="none" fill-rule="evenodd"></path></svg>