<svg width="24" height="24" viewBox="0 0 24 24" fill="none" xmlns="http://www.w3.org/2000/svg"><path d="M9.785 2.288 C 9.555 2.351,9.352 2.575,9.267 2.861 C 9.227 2.992,8.876 4.252,8.485 5.660 L 7.774 8.220 5.797 8.240 C 3.962 8.259,3.809 8.265,3.668 8.336 C 3.057 8.639,3.172 9.573,3.838 9.716 C 3.969 9.744,4.640 9.760,5.695 9.760 L 7.347 9.760 6.586 12.500 L 5.825 15.240 3.934 15.240 C 2.705 15.240,1.972 15.255,1.838 15.284 C 1.080 15.447,1.080 16.553,1.838 16.716 C 1.970 16.744,2.648 16.760,3.725 16.760 C 5.307 16.760,5.404 16.764,5.384 16.830 C 5.338 16.979,4.288 20.786,4.264 20.890 C 4.221 21.075,4.318 21.358,4.480 21.520 C 4.772 21.812,5.227 21.813,5.517 21.523 C 5.687 21.353,5.627 21.539,6.376 18.840 L 6.948 16.780 8.064 16.760 C 9.053 16.742,9.197 16.731,9.332 16.664 C 9.943 16.361,9.828 15.427,9.162 15.284 C 9.049 15.260,8.604 15.240,8.173 15.240 L 7.391 15.240 7.408 15.150 C 7.418 15.101,7.757 13.867,8.161 12.410 L 8.897 9.760 12.699 9.760 L 16.500 9.761 16.589 9.916 C 16.842 10.359,17.574 10.334,17.835 9.874 L 17.900 9.761 19.928 9.760 C 21.257 9.760,22.027 9.745,22.162 9.716 C 22.920 9.553,22.920 8.447,22.162 8.284 C 22.029 8.256,21.314 8.240,20.135 8.240 C 18.420 8.240,18.316 8.236,18.337 8.170 C 18.375 8.049,19.600 3.635,19.681 3.327 C 19.745 3.083,19.751 3.000,19.715 2.833 C 19.595 2.273,18.891 2.069,18.483 2.477 C 18.311 2.649,18.393 2.387,17.485 5.660 L 16.774 8.220 13.044 8.230 C 9.503 8.240,9.316 8.237,9.337 8.170 C 9.375 8.049,10.600 3.635,10.681 3.326 C 10.771 2.983,10.741 2.747,10.580 2.537 C 10.411 2.316,10.073 2.210,9.785 2.288 M14.480 12.039 C 13.741 12.099,13.377 12.219,12.961 12.539 C 12.504 12.891,12.222 13.352,12.093 13.960 C 12.028 14.263,12.020 14.522,12.020 16.340 C 12.020 18.602,12.022 18.620,12.290 19.160 C 12.480 19.541,12.971 20.025,13.360 20.215 C 13.750 20.405,14.077 20.467,14.860 20.500 C 15.681 20.534,15.747 20.562,16.026 20.990 C 16.137 21.160,16.285 21.403,16.356 21.528 C 16.508 21.800,16.672 21.947,16.861 21.983 C 17.194 22.045,17.432 21.907,17.644 21.528 C 17.715 21.403,17.863 21.160,17.974 20.990 C 18.253 20.562,18.319 20.534,19.140 20.500 C 19.923 20.467,20.250 20.405,20.640 20.215 C 21.029 20.025,21.520 19.541,21.710 19.160 C 21.978 18.620,21.980 18.602,21.980 16.340 C 21.980 14.119,21.962 13.900,21.740 13.410 C 21.526 12.939,21.049 12.466,20.579 12.258 C 20.102 12.047,19.901 12.032,17.280 12.020 C 15.949 12.013,14.689 12.022,14.480 12.039 " fill="#1C274C" stroke="none" fill-rule="evenodd"></path></svg>