<svg width="24" height="24" viewBox="0 0 24 24" fill="none" xmlns="http://www.w3.org/2000/svg"><path d="M9.811 2.278 C 9.656 2.316,9.420 2.488,9.353 2.612 C 9.326 2.660,8.959 3.942,8.537 5.460 L 7.770 8.220 5.772 8.240 L 3.774 8.260 3.605 8.372 C 3.311 8.566,3.192 8.873,3.281 9.204 C 3.340 9.422,3.569 9.657,3.781 9.715 C 3.885 9.744,4.520 9.760,5.630 9.760 C 6.560 9.760,7.321 9.774,7.321 9.790 C 7.322 9.806,6.985 11.039,6.572 12.528 L 5.821 15.237 3.798 15.248 L 1.774 15.260 1.605 15.372 C 1.311 15.566,1.192 15.873,1.281 16.204 C 1.340 16.422,1.569 16.657,1.781 16.715 C 1.886 16.744,2.532 16.760,3.674 16.760 C 5.127 16.760,5.405 16.769,5.388 16.815 C 5.376 16.845,5.111 17.791,4.799 18.916 C 4.184 21.134,4.188 21.111,4.380 21.405 C 4.711 21.912,5.491 21.831,5.696 21.268 C 5.730 21.176,5.993 20.245,6.281 19.200 C 6.570 18.155,6.841 17.179,6.884 17.030 L 6.963 16.760 10.686 16.760 C 13.822 16.760,14.405 16.769,14.388 16.815 C 14.376 16.845,14.111 17.791,13.799 18.916 C 13.189 21.116,13.191 21.105,13.368 21.393 C 13.468 21.555,13.691 21.706,13.884 21.741 C 14.209 21.799,14.581 21.583,14.696 21.268 C 14.730 21.176,14.993 20.245,15.281 19.200 C 15.570 18.155,15.841 17.179,15.884 17.030 L 15.963 16.760 18.012 16.760 C 19.383 16.760,20.113 16.745,20.219 16.715 C 20.431 16.657,20.660 16.422,20.719 16.204 C 20.808 15.873,20.689 15.566,20.395 15.372 L 20.226 15.260 18.313 15.248 C 17.261 15.242,16.400 15.224,16.399 15.208 C 16.399 15.193,16.736 13.961,17.149 12.470 L 17.900 9.760 19.980 9.760 C 21.374 9.760,22.113 9.745,22.219 9.715 C 22.431 9.657,22.660 9.422,22.719 9.204 C 22.808 8.873,22.689 8.566,22.395 8.372 L 22.226 8.260 20.278 8.240 L 18.331 8.220 19.047 5.640 C 19.834 2.808,19.822 2.873,19.603 2.570 C 19.376 2.257,18.915 2.167,18.601 2.374 C 18.514 2.432,18.412 2.526,18.375 2.582 C 18.338 2.639,17.962 3.930,17.539 5.453 L 16.770 8.220 13.048 8.230 L 9.325 8.240 9.401 7.966 C 9.443 7.815,9.767 6.649,10.121 5.376 C 10.828 2.832,10.821 2.871,10.603 2.570 C 10.429 2.330,10.096 2.207,9.811 2.278 M16.321 9.790 C 16.322 9.806,15.985 11.040,15.571 12.530 L 14.820 15.240 11.110 15.240 C 9.070 15.240,7.400 15.227,7.399 15.210 C 7.399 15.194,7.736 13.961,8.149 12.470 L 8.900 9.760 12.610 9.760 C 14.651 9.760,16.321 9.774,16.321 9.790 " fill="#1C274C" stroke="none" fill-rule="evenodd"></path></svg>