<svg width="24" height="24" viewBox="0 0 24 24" fill="none" xmlns="http://www.w3.org/2000/svg"><path d="M11.300 2.024 C 10.268 2.130,9.297 2.339,8.537 2.620 C 7.919 2.849,7.069 3.282,6.517 3.649 C 5.317 4.446,4.470 5.292,3.667 6.492 C 2.871 7.684,2.343 9.058,2.113 10.540 C 2.043 10.992,2.026 11.274,2.026 12.000 C 2.026 12.726,2.043 13.008,2.113 13.460 C 2.439 15.562,3.355 17.422,4.820 18.955 C 5.772 19.952,7.199 20.884,8.523 21.374 C 9.075 21.579,9.894 21.787,10.540 21.887 C 11.338 22.011,12.662 22.011,13.460 21.887 C 14.942 21.657,16.316 21.129,17.508 20.333 C 19.030 19.315,20.184 18.007,20.959 16.420 C 21.435 15.446,21.720 14.536,21.887 13.460 C 22.011 12.662,22.011 11.338,21.887 10.540 C 21.657 9.058,21.129 7.684,20.333 6.492 C 19.530 5.292,18.683 4.446,17.483 3.649 C 15.928 2.615,14.126 2.060,12.200 2.022 C 11.793 2.014,11.388 2.015,11.300 2.024 M11.219 6.285 C 11.545 6.375,11.803 6.779,11.742 7.105 C 11.723 7.205,11.297 8.658,11.137 9.170 C 11.116 9.236,11.215 9.240,12.828 9.240 L 14.542 9.240 14.921 7.971 C 15.129 7.274,15.336 6.649,15.381 6.582 C 15.643 6.193,16.191 6.141,16.525 6.475 C 16.691 6.641,16.780 6.900,16.742 7.105 C 16.723 7.205,16.297 8.658,16.137 9.170 C 16.116 9.235,16.181 9.240,17.127 9.241 C 18.228 9.242,18.342 9.262,18.548 9.485 C 18.903 9.871,18.781 10.463,18.300 10.684 C 18.155 10.751,18.020 10.758,16.899 10.759 L 15.658 10.760 15.303 11.950 C 15.108 12.605,14.940 13.162,14.930 13.190 C 14.915 13.229,15.149 13.240,16.017 13.240 C 16.924 13.240,17.149 13.251,17.271 13.302 C 17.911 13.569,17.911 14.431,17.271 14.698 C 17.147 14.750,16.902 14.760,15.790 14.760 L 14.458 14.760 14.079 16.029 C 13.871 16.726,13.664 17.351,13.619 17.418 C 13.357 17.807,12.809 17.859,12.475 17.525 C 12.309 17.359,12.220 17.100,12.258 16.895 C 12.277 16.795,12.703 15.342,12.863 14.830 C 12.884 14.764,12.785 14.760,11.172 14.760 L 9.458 14.760 9.079 16.029 C 8.871 16.726,8.664 17.351,8.619 17.418 C 8.357 17.807,7.809 17.859,7.475 17.525 C 7.309 17.359,7.220 17.100,7.258 16.895 C 7.277 16.795,7.703 15.342,7.863 14.830 C 7.884 14.765,7.819 14.760,6.881 14.760 C 6.066 14.760,5.850 14.748,5.729 14.698 C 5.089 14.431,5.089 13.569,5.729 13.302 C 5.852 13.251,6.088 13.240,7.110 13.240 L 8.342 13.240 8.697 12.050 C 8.892 11.396,9.060 10.838,9.070 10.810 C 9.085 10.771,8.851 10.760,7.983 10.760 C 7.076 10.760,6.851 10.749,6.729 10.698 C 6.101 10.436,6.084 9.600,6.700 9.316 C 6.845 9.249,6.983 9.242,8.201 9.241 L 9.541 9.240 9.877 8.110 C 10.062 7.489,10.246 6.889,10.287 6.777 C 10.373 6.539,10.530 6.375,10.745 6.299 C 10.936 6.231,11.016 6.228,11.219 6.285 M10.301 11.950 C 10.106 12.605,9.938 13.162,9.929 13.190 C 9.915 13.229,10.272 13.240,11.628 13.240 L 13.345 13.240 13.699 12.050 C 13.894 11.396,14.062 10.838,14.071 10.810 C 14.085 10.771,13.728 10.760,12.372 10.760 L 10.655 10.760 10.301 11.950 " fill="#1C274C" stroke="none" fill-rule="evenodd"></path></svg>