<svg width="24" height="24" viewBox="0 0 24 24" fill="none" xmlns="http://www.w3.org/2000/svg"><path d="M8.604 2.043 C 6.851 2.111,5.697 2.313,4.858 2.698 C 3.817 3.176,3.034 4.002,2.618 5.063 C 2.355 5.731,2.182 6.592,2.076 7.760 C 2.010 8.472,1.978 18.162,2.038 18.680 C 2.157 19.686,2.728 20.614,3.578 21.180 C 4.107 21.532,4.492 21.651,5.780 21.860 C 6.615 21.996,7.049 22.025,7.324 21.961 C 8.114 21.777,8.747 21.137,8.926 20.340 C 9.005 19.987,9.005 14.440,8.925 14.120 C 8.722 13.304,8.059 12.665,7.260 12.516 C 6.892 12.447,5.216 12.576,4.611 12.720 C 4.303 12.793,3.832 13.003,3.525 13.206 L 3.389 13.295 3.412 10.837 C 3.444 7.257,3.549 6.330,4.037 5.340 C 4.573 4.250,5.505 3.743,7.340 3.541 C 8.303 3.436,11.682 3.382,14.050 3.435 C 16.235 3.483,16.908 3.533,17.672 3.704 C 18.487 3.886,18.964 4.128,19.443 4.602 C 19.957 5.110,20.260 5.839,20.418 6.949 C 20.539 7.796,20.566 8.414,20.588 10.837 L 20.611 13.295 20.475 13.206 C 20.167 13.003,19.697 12.793,19.389 12.720 C 18.784 12.576,17.108 12.447,16.740 12.516 C 15.941 12.665,15.278 13.304,15.075 14.120 C 14.995 14.440,14.995 19.987,15.074 20.340 C 15.253 21.137,15.886 21.777,16.676 21.961 C 16.951 22.025,17.385 21.996,18.220 21.860 C 19.509 21.651,19.893 21.532,20.424 21.179 C 21.269 20.616,21.844 19.683,21.962 18.680 C 22.023 18.162,21.990 8.472,21.924 7.760 C 21.687 5.171,21.075 3.877,19.664 2.980 C 18.725 2.383,17.550 2.132,15.280 2.042 C 14.131 1.996,9.788 1.997,8.604 2.043 M11.699 5.816 C 11.550 5.881,11.332 6.124,11.291 6.271 C 11.274 6.331,11.260 7.577,11.260 9.040 C 11.260 12.002,11.243 11.814,11.537 12.072 C 11.877 12.371,12.411 12.258,12.660 11.836 C 12.738 11.704,12.740 11.628,12.740 9.040 C 12.740 7.577,12.726 6.331,12.709 6.271 C 12.667 6.119,12.447 5.879,12.292 5.814 C 12.130 5.746,11.857 5.747,11.699 5.816 M8.807 7.289 C 8.558 7.342,8.342 7.570,8.284 7.838 C 8.259 7.956,8.240 8.453,8.240 9.000 C 8.240 9.547,8.259 10.044,8.284 10.162 C 8.447 10.920,9.553 10.920,9.716 10.162 C 9.772 9.901,9.773 8.083,9.717 7.841 C 9.620 7.420,9.247 7.194,8.807 7.289 M14.807 7.289 C 14.558 7.342,14.342 7.570,14.284 7.838 C 14.259 7.956,14.240 8.453,14.240 9.000 C 14.240 9.547,14.259 10.044,14.284 10.162 C 14.447 10.920,15.553 10.920,15.716 10.162 C 15.772 9.901,15.773 8.083,15.717 7.841 C 15.620 7.420,15.247 7.194,14.807 7.289 " fill="#1C274C" stroke="none" fill-rule="evenodd"></path></svg>