<svg width="24" height="24" viewBox="0 0 24 24" fill="none" xmlns="http://www.w3.org/2000/svg"><path d="M11.300 2.024 C 9.530 2.205,8.197 2.635,6.820 3.469 C 5.572 4.225,4.326 5.467,3.519 6.760 C 2.724 8.033,2.201 9.605,2.042 11.194 C 1.985 11.756,1.986 18.267,2.042 18.721 C 2.163 19.695,2.744 20.625,3.578 21.180 C 4.107 21.532,4.492 21.651,5.780 21.860 C 6.615 21.996,7.049 22.025,7.324 21.961 C 8.114 21.777,8.747 21.137,8.926 20.340 C 9.005 19.987,9.005 14.440,8.925 14.120 C 8.722 13.304,8.059 12.665,7.260 12.516 C 6.892 12.447,5.216 12.576,4.611 12.720 C 4.304 12.793,3.832 13.004,3.530 13.202 L 3.400 13.288 3.400 12.514 C 3.400 10.743,3.635 9.634,4.300 8.260 C 4.992 6.830,6.146 5.545,7.484 4.715 C 8.502 4.084,9.624 3.675,10.820 3.499 C 11.408 3.413,12.592 3.413,13.180 3.499 C 14.984 3.764,16.584 4.541,17.876 5.780 C 19.285 7.132,20.144 8.750,20.486 10.700 C 20.543 11.025,20.569 11.423,20.587 12.218 L 20.611 13.295 20.476 13.206 C 20.167 13.003,19.698 12.793,19.389 12.720 C 18.784 12.576,17.108 12.447,16.740 12.516 C 15.941 12.665,15.278 13.304,15.075 14.120 C 14.995 14.440,14.995 19.987,15.074 20.340 C 15.253 21.137,15.886 21.777,16.676 21.961 C 16.951 22.025,17.385 21.996,18.220 21.860 C 19.509 21.651,19.893 21.532,20.424 21.179 C 21.254 20.626,21.838 19.691,21.958 18.721 C 22.014 18.270,22.015 11.817,21.959 11.220 C 21.841 9.963,21.537 8.854,21.003 7.740 C 20.471 6.630,19.884 5.800,19.022 4.938 C 17.484 3.400,15.585 2.435,13.472 2.117 C 12.963 2.040,11.678 1.985,11.300 2.024 M11.699 5.816 C 11.550 5.881,11.332 6.124,11.291 6.271 C 11.274 6.331,11.260 7.577,11.260 9.040 C 11.260 12.002,11.243 11.814,11.537 12.072 C 11.877 12.371,12.411 12.258,12.660 11.836 C 12.738 11.704,12.740 11.628,12.740 9.040 C 12.740 7.577,12.726 6.331,12.709 6.271 C 12.667 6.119,12.447 5.879,12.292 5.814 C 12.130 5.746,11.857 5.747,11.699 5.816 M8.807 7.289 C 8.558 7.342,8.342 7.570,8.284 7.838 C 8.259 7.956,8.240 8.453,8.240 9.000 C 8.240 9.547,8.259 10.044,8.284 10.162 C 8.447 10.920,9.553 10.920,9.716 10.162 C 9.772 9.901,9.773 8.083,9.717 7.841 C 9.620 7.420,9.247 7.194,8.807 7.289 M14.807 7.289 C 14.558 7.342,14.342 7.570,14.284 7.838 C 14.259 7.956,14.240 8.453,14.240 9.000 C 14.240 9.547,14.259 10.044,14.284 10.162 C 14.447 10.920,15.553 10.920,15.716 10.162 C 15.772 9.901,15.773 8.083,15.717 7.841 C 15.620 7.420,15.247 7.194,14.807 7.289 " fill="#1C274C" stroke="none" fill-rule="evenodd"></path></svg>