<svg width="24" height="24" viewBox="0 0 24 24" fill="none" xmlns="http://www.w3.org/2000/svg"><path d="M6.440 3.025 C 4.508 3.271,3.056 4.509,2.387 6.480 C 2.010 7.589,1.900 9.032,2.116 10.020 C 2.685 12.623,5.154 15.604,9.360 18.766 C 10.650 19.736,11.212 19.999,12.000 19.999 C 12.594 19.999,13.177 19.794,13.827 19.358 C 14.321 19.027,15.489 18.130,16.218 17.523 C 19.478 14.807,21.392 12.273,21.884 10.020 C 22.095 9.058,21.991 7.607,21.635 6.540 C 21.019 4.691,19.728 3.468,18.000 3.096 C 17.503 2.988,16.523 2.997,15.972 3.114 C 14.708 3.382,13.539 4.023,12.330 5.113 L 12.000 5.410 11.695 5.135 C 10.473 4.032,9.272 3.371,8.031 3.118 C 7.640 3.038,6.746 2.986,6.440 3.025 M16.840 6.342 C 16.977 6.412,17.146 6.597,17.197 6.733 C 17.222 6.796,17.240 7.146,17.240 7.539 L 17.240 8.232 17.970 8.247 C 18.551 8.259,18.725 8.275,18.820 8.327 C 19.402 8.645,19.379 9.407,18.780 9.684 C 18.644 9.747,18.516 9.758,17.930 9.759 L 17.240 9.760 17.240 10.457 C 17.240 10.853,17.222 11.204,17.197 11.267 C 17.104 11.516,16.759 11.758,16.500 11.758 C 16.241 11.758,15.896 11.516,15.803 11.267 C 15.778 11.204,15.760 10.853,15.760 10.457 L 15.760 9.760 15.070 9.759 C 14.484 9.758,14.356 9.747,14.220 9.684 C 13.925 9.547,13.760 9.303,13.760 9.000 C 13.760 8.799,13.819 8.647,13.953 8.506 C 14.166 8.280,14.239 8.263,15.030 8.247 L 15.760 8.232 15.760 7.535 C 15.760 7.040,15.776 6.800,15.814 6.708 C 15.881 6.548,16.124 6.329,16.271 6.297 C 16.331 6.284,16.398 6.267,16.420 6.260 C 16.485 6.238,16.732 6.287,16.840 6.342 " fill="#1C274C" stroke="none" fill-rule="evenodd"></path></svg>