<svg width="24" height="24" viewBox="0 0 24 24" fill="none" xmlns="http://www.w3.org/2000/svg"><path d="M6.940 3.305 C 5.087 3.506,3.505 4.644,2.636 6.400 C 2.246 7.187,2.050 7.975,2.014 8.900 C 1.930 11.018,2.658 12.954,4.242 14.822 C 4.629 15.279,5.689 16.304,6.300 16.814 C 7.094 17.476,9.604 19.419,10.100 19.755 C 10.484 20.016,11.125 20.360,11.226 20.360 C 11.245 20.360,11.464 19.547,11.712 18.553 L 12.163 16.747 11.287 15.863 C 10.805 15.378,10.378 14.917,10.338 14.840 C 10.248 14.667,10.245 14.343,10.333 14.174 C 10.368 14.105,10.957 13.397,11.641 12.599 C 12.415 11.696,12.870 11.134,12.847 11.111 C 12.826 11.090,12.164 10.611,11.375 10.047 C 10.220 9.219,9.924 8.989,9.851 8.860 C 9.675 8.546,9.686 8.507,10.508 6.585 L 11.258 4.829 11.099 4.691 C 10.824 4.451,10.237 4.081,9.780 3.860 C 9.026 3.495,8.367 3.330,7.561 3.303 C 7.308 3.295,7.028 3.296,6.940 3.305 M16.000 3.322 C 15.072 3.438,14.034 3.858,13.227 4.445 L 12.980 4.624 12.204 6.437 C 11.584 7.884,11.439 8.256,11.484 8.283 C 11.515 8.301,12.215 8.799,13.039 9.389 C 13.931 10.028,14.574 10.515,14.626 10.592 C 14.674 10.663,14.725 10.791,14.739 10.876 C 14.796 11.213,14.762 11.264,13.354 12.907 L 12.032 14.449 12.813 15.235 C 13.588 16.012,13.757 16.234,13.759 16.470 C 13.760 16.520,13.551 17.398,13.295 18.422 C 13.039 19.445,12.840 20.293,12.852 20.305 C 12.893 20.346,13.450 20.053,13.880 19.765 C 14.368 19.438,17.052 17.359,17.794 16.733 C 18.419 16.205,19.612 15.017,19.976 14.560 C 20.867 13.440,21.469 12.267,21.756 11.090 C 21.926 10.392,21.978 9.938,21.977 9.160 C 21.975 8.335,21.907 7.891,21.676 7.185 C 21.125 5.502,19.849 4.146,18.289 3.586 C 17.634 3.350,16.666 3.239,16.000 3.322 " fill="#1C274C" stroke="none" fill-rule="evenodd"></path></svg>