<svg width="24" height="24" viewBox="0 0 24 24" fill="none" xmlns="http://www.w3.org/2000/svg"><path d="M11.322 1.283 C 9.279 1.440,7.664 2.449,6.878 4.060 C 6.466 4.905,6.240 5.951,6.240 7.010 C 6.240 7.237,6.226 7.320,6.188 7.320 C 6.091 7.320,5.421 7.687,5.109 7.911 C 4.477 8.365,3.816 9.161,3.507 9.843 C 3.188 10.546,3.047 11.127,3.013 11.881 C 2.976 12.718,3.081 13.445,3.362 14.291 C 3.852 15.770,4.908 17.153,6.660 18.614 C 7.322 19.166,9.739 20.989,10.271 21.338 C 11.608 22.214,12.392 22.214,13.729 21.338 C 14.255 20.993,16.671 19.172,17.340 18.615 C 17.940 18.116,18.914 17.158,19.270 16.716 C 20.482 15.212,21.059 13.593,20.986 11.900 C 20.952 11.124,20.815 10.553,20.493 9.843 C 20.184 9.162,19.524 8.366,18.891 7.911 C 18.593 7.696,17.902 7.320,17.806 7.320 C 17.775 7.320,17.760 7.215,17.760 7.004 C 17.760 5.695,17.404 4.395,16.799 3.499 C 15.911 2.182,14.472 1.424,12.587 1.280 C 12.009 1.236,11.934 1.236,11.322 1.283 M13.328 2.895 C 15.114 3.313,16.114 4.576,16.227 6.558 L 16.252 6.987 15.864 7.015 C 14.607 7.103,13.376 7.667,12.310 8.642 L 12.000 8.925 11.690 8.642 C 11.223 8.215,10.716 7.865,10.160 7.587 C 9.428 7.222,8.883 7.067,8.142 7.015 L 7.760 6.988 7.760 6.763 C 7.760 6.163,7.938 5.337,8.178 4.815 C 8.626 3.847,9.469 3.182,10.586 2.916 C 11.143 2.784,11.375 2.764,12.160 2.780 C 12.773 2.792,12.974 2.812,13.328 2.895 M12.405 11.381 C 12.485 11.432,12.593 11.543,12.645 11.627 L 12.740 11.780 12.740 13.200 C 12.740 13.981,12.726 14.669,12.709 14.729 C 12.667 14.881,12.447 15.121,12.292 15.186 C 11.998 15.309,11.664 15.229,11.450 14.985 C 11.379 14.905,11.307 14.789,11.291 14.729 C 11.274 14.669,11.260 13.981,11.260 13.200 C 11.260 11.784,11.260 11.780,11.353 11.631 C 11.586 11.256,12.044 11.147,12.405 11.381 " fill="#1C274C" stroke="none" fill-rule="evenodd"></path></svg>