<svg width="24" height="24" viewBox="0 0 24 24" fill="none" xmlns="http://www.w3.org/2000/svg"><path d="M6.940 3.305 C 5.087 3.506,3.505 4.644,2.636 6.400 C 2.246 7.187,2.050 7.975,2.014 8.900 C 1.930 11.018,2.658 12.954,4.242 14.822 C 4.628 15.277,5.688 16.303,6.294 16.809 C 7.094 17.475,9.611 19.424,10.100 19.756 C 11.546 20.735,12.454 20.735,13.900 19.756 C 14.392 19.422,16.913 17.470,17.705 16.809 C 19.087 15.655,20.175 14.445,20.845 13.314 C 21.998 11.368,22.311 9.049,21.675 7.152 C 21.097 5.427,19.772 4.072,18.143 3.541 C 17.577 3.356,17.224 3.303,16.580 3.304 C 15.711 3.307,15.037 3.465,14.220 3.860 C 13.777 4.073,13.160 4.452,13.160 4.509 C 13.160 4.527,13.603 4.981,14.144 5.520 C 15.151 6.523,15.278 6.684,15.278 6.960 C 15.278 7.301,14.983 7.654,14.658 7.702 C 14.271 7.760,14.264 7.755,12.780 6.283 C 12.032 5.542,11.266 4.816,11.078 4.671 C 10.192 3.985,9.293 3.559,8.358 3.382 C 8.015 3.317,7.226 3.274,6.940 3.305 " fill="#1C274C" stroke="none" fill-rule="evenodd"></path></svg>