<svg width="24" height="24" viewBox="0 0 24 24" fill="none" xmlns="http://www.w3.org/2000/svg"><path d="M6.460 3.042 C 5.742 3.139,4.908 3.482,4.331 3.917 C 3.737 4.364,3.110 5.111,2.774 5.772 C 2.485 6.341,2.224 7.173,2.099 7.920 C 2.064 8.129,2.026 8.597,2.014 8.960 C 1.990 9.697,2.042 10.162,2.226 10.846 L 2.331 11.240 4.218 11.240 L 6.104 11.240 6.282 11.124 C 6.380 11.060,6.973 10.519,7.600 9.921 C 8.227 9.323,8.821 8.781,8.919 8.716 C 9.411 8.390,9.948 8.420,10.409 8.801 C 10.491 8.869,11.443 9.999,12.525 11.312 C 13.606 12.625,14.522 13.733,14.560 13.773 C 14.626 13.843,14.666 13.805,15.501 12.879 C 16.391 11.892,16.628 11.668,16.967 11.496 C 17.407 11.274,17.459 11.269,19.645 11.250 L 21.671 11.233 21.775 10.843 C 21.958 10.162,22.010 9.696,21.986 8.960 C 21.926 7.118,21.346 5.574,20.311 4.496 C 19.112 3.247,17.580 2.774,15.862 3.124 C 14.664 3.368,13.462 4.063,12.350 5.155 L 12.000 5.498 11.650 5.155 C 10.531 4.056,9.338 3.368,8.118 3.120 C 7.640 3.022,6.875 2.986,6.460 3.042 M8.710 10.928 C 7.148 12.423,7.087 12.471,6.560 12.648 C 6.313 12.731,6.217 12.736,4.670 12.751 C 3.773 12.759,3.040 12.779,3.040 12.795 C 3.040 12.851,3.629 13.786,3.938 14.218 C 5.052 15.782,6.710 17.497,8.720 19.163 C 10.613 20.733,11.054 20.977,12.000 20.977 C 12.946 20.977,13.387 20.733,15.280 19.163 C 17.290 17.497,18.948 15.782,20.062 14.218 C 20.383 13.768,20.960 12.851,20.960 12.790 C 20.960 12.772,20.227 12.762,19.330 12.768 C 17.807 12.779,17.693 12.785,17.588 12.856 C 17.527 12.897,17.159 13.284,16.772 13.716 C 15.679 14.933,15.377 15.231,15.100 15.364 C 14.635 15.589,14.196 15.503,13.771 15.106 C 13.628 14.972,12.638 13.804,11.572 12.511 C 10.505 11.218,9.616 10.150,9.596 10.138 C 9.576 10.125,9.177 10.481,8.710 10.928 " fill="#1C274C" stroke="none" fill-rule="evenodd"></path></svg>