<svg width="24" height="24" viewBox="0 0 24 24" fill="none" xmlns="http://www.w3.org/2000/svg"><path d="M11.811 1.278 C 11.639 1.320,11.417 1.493,11.330 1.652 C 11.269 1.764,11.258 1.924,11.248 2.907 C 11.240 3.630,11.251 4.092,11.279 4.195 C 11.428 4.751,12.117 4.933,12.525 4.525 C 12.750 4.299,12.766 4.184,12.752 2.907 C 12.741 1.856,12.735 1.771,12.658 1.641 C 12.494 1.361,12.122 1.202,11.811 1.278 M5.811 5.278 C 5.416 5.374,5.172 5.799,5.280 6.201 C 5.335 6.404,5.767 6.880,6.008 7.004 C 6.292 7.149,6.673 7.084,6.887 6.855 C 7.094 6.634,7.143 6.279,7.004 6.008 C 6.927 5.858,6.486 5.408,6.340 5.331 C 6.221 5.269,5.957 5.242,5.811 5.278 M17.900 5.259 C 17.878 5.267,17.810 5.284,17.750 5.297 C 17.608 5.328,17.097 5.810,16.997 6.006 C 16.857 6.279,16.906 6.634,17.113 6.855 C 17.327 7.084,17.708 7.149,17.992 7.004 C 18.232 6.881,18.665 6.404,18.719 6.203 C 18.806 5.880,18.687 5.564,18.412 5.385 C 18.271 5.294,17.993 5.226,17.900 5.259 M9.200 8.062 C 9.057 8.093,8.787 8.193,8.600 8.285 C 8.141 8.510,7.660 8.989,7.405 9.474 C 6.865 10.504,6.880 11.805,7.446 12.992 C 7.834 13.806,8.678 14.716,10.129 15.884 C 11.318 16.842,11.682 17.044,12.113 16.984 C 12.516 16.929,12.779 16.764,13.920 15.843 C 14.773 15.155,15.745 14.230,16.039 13.825 C 16.472 13.229,16.779 12.569,16.906 11.960 C 17.015 11.436,17.004 10.636,16.883 10.200 C 16.640 9.327,16.098 8.630,15.391 8.282 C 14.845 8.013,14.393 7.949,13.815 8.060 C 13.301 8.158,12.824 8.414,12.274 8.888 L 12.000 9.124 11.726 8.888 C 10.860 8.143,10.053 7.879,9.200 8.062 M1.811 11.278 C 1.535 11.346,1.316 11.587,1.260 11.885 C 1.197 12.220,1.450 12.624,1.781 12.715 C 1.995 12.775,4.005 12.775,4.219 12.715 C 4.431 12.657,4.660 12.422,4.719 12.204 C 4.808 11.873,4.689 11.566,4.395 11.372 L 4.226 11.260 3.083 11.253 C 2.454 11.249,1.882 11.260,1.811 11.278 M19.811 11.278 C 19.535 11.346,19.316 11.587,19.260 11.885 C 19.197 12.220,19.450 12.624,19.781 12.715 C 19.995 12.775,22.005 12.775,22.219 12.715 C 22.431 12.657,22.660 12.422,22.719 12.204 C 22.808 11.873,22.689 11.566,22.395 11.372 L 22.226 11.260 21.083 11.253 C 20.454 11.249,19.882 11.260,19.811 11.278 M6.000 16.998 C 5.763 17.124,5.334 17.601,5.281 17.797 C 5.128 18.363,5.637 18.872,6.203 18.719 C 6.407 18.664,6.882 18.231,7.008 17.983 C 7.123 17.758,7.095 17.420,6.945 17.224 C 6.727 16.937,6.305 16.836,6.000 16.998 M17.340 16.986 C 17.051 17.139,16.920 17.348,16.920 17.660 C 16.920 17.912,17.025 18.094,17.348 18.406 C 17.547 18.598,17.673 18.686,17.797 18.719 C 18.363 18.872,18.872 18.363,18.719 17.797 C 18.665 17.596,18.232 17.119,17.992 16.996 C 17.811 16.904,17.506 16.899,17.340 16.986 M11.811 19.278 C 11.639 19.320,11.417 19.493,11.330 19.652 C 11.269 19.764,11.258 19.924,11.248 20.907 C 11.240 21.630,11.251 22.092,11.279 22.195 C 11.428 22.751,12.117 22.933,12.525 22.525 C 12.750 22.299,12.766 22.184,12.752 20.907 C 12.741 19.856,12.735 19.771,12.658 19.641 C 12.494 19.361,12.122 19.202,11.811 19.278 " fill="#1C274C" stroke="none" fill-rule="evenodd"></path></svg>