<svg width="24" height="24" viewBox="0 0 24 24" fill="none" xmlns="http://www.w3.org/2000/svg"><path d="M6.940 3.305 C 5.087 3.506,3.505 4.644,2.636 6.400 C 2.246 7.187,2.050 7.975,2.014 8.900 C 1.930 11.018,2.658 12.954,4.242 14.822 C 4.628 15.277,5.688 16.303,6.294 16.809 C 7.094 17.475,9.611 19.424,10.100 19.756 C 11.546 20.735,12.454 20.735,13.900 19.756 C 14.389 19.424,16.906 17.475,17.706 16.809 C 18.352 16.270,19.391 15.258,19.809 14.760 C 21.354 12.921,22.074 10.978,21.989 8.880 C 21.889 6.403,20.343 4.258,18.143 3.541 C 17.577 3.356,17.224 3.303,16.580 3.304 C 15.062 3.308,13.674 3.924,12.310 5.198 L 12.000 5.488 11.690 5.198 C 10.629 4.208,9.519 3.602,8.358 3.382 C 8.015 3.317,7.226 3.274,6.940 3.305 " fill="#1C274C" stroke="none" fill-rule="evenodd"></path></svg>