<svg width="24" height="24" viewBox="0 0 24 24" fill="none" xmlns="http://www.w3.org/2000/svg"><path d="M6.460 3.042 C 5.742 3.139,4.908 3.482,4.331 3.917 C 3.737 4.364,3.110 5.111,2.774 5.772 C 2.484 6.342,2.228 7.159,2.093 7.940 C 1.985 8.567,1.996 9.849,2.114 10.394 C 2.461 12.000,3.317 13.558,4.897 15.460 C 6.014 16.805,8.896 19.449,10.257 20.377 C 11.475 21.208,12.525 21.208,13.743 20.377 C 15.104 19.449,17.986 16.805,19.103 15.460 C 20.683 13.558,21.539 12.000,21.886 10.394 C 22.004 9.848,22.015 8.565,21.906 7.940 C 21.651 6.470,21.133 5.351,20.311 4.496 C 19.112 3.247,17.580 2.774,15.862 3.124 C 14.664 3.368,13.462 4.063,12.350 5.155 L 12.000 5.498 11.650 5.155 C 10.531 4.056,9.338 3.368,8.118 3.120 C 7.640 3.022,6.875 2.986,6.460 3.042 M10.724 8.766 C 10.960 8.847,11.191 9.034,11.374 9.291 C 11.471 9.428,12.031 10.413,12.618 11.480 C 13.205 12.547,13.698 13.433,13.714 13.450 C 13.730 13.466,13.841 13.313,13.961 13.110 C 14.674 11.900,15.036 11.544,15.743 11.356 C 16.025 11.281,16.180 11.271,17.140 11.266 C 18.212 11.260,18.221 11.261,18.373 11.355 C 18.615 11.506,18.733 11.718,18.733 12.003 C 18.733 12.203,18.714 12.270,18.616 12.409 C 18.391 12.730,18.360 12.737,17.160 12.761 C 16.432 12.775,16.073 12.796,16.014 12.830 C 15.869 12.912,15.675 13.167,15.363 13.686 C 14.719 14.755,14.462 15.053,14.073 15.182 C 13.817 15.267,13.442 15.244,13.219 15.129 C 12.989 15.010,12.712 14.707,12.492 14.335 C 12.386 14.157,11.859 13.208,11.320 12.226 C 10.781 11.244,10.331 10.441,10.320 10.442 C 10.309 10.443,10.084 10.753,9.820 11.131 C 9.081 12.191,8.742 12.490,8.080 12.668 C 7.865 12.725,7.642 12.738,6.800 12.739 C 5.642 12.740,5.611 12.733,5.384 12.409 C 5.286 12.270,5.267 12.203,5.267 12.003 C 5.267 11.718,5.385 11.506,5.627 11.355 C 5.775 11.263,5.815 11.259,6.780 11.240 C 7.330 11.229,7.807 11.204,7.840 11.184 C 7.992 11.093,8.129 10.925,8.673 10.160 C 9.342 9.219,9.567 8.963,9.852 8.821 C 10.080 8.708,10.479 8.683,10.724 8.766 " fill="#1C274C" stroke="none" fill-rule="evenodd"></path></svg>