<svg width="24" height="24" viewBox="0 0 24 24" fill="none" xmlns="http://www.w3.org/2000/svg"><path d="M11.228 1.284 C 8.562 1.504,6.799 3.093,6.358 5.673 C 6.314 5.927,6.267 6.402,6.253 6.727 C 6.236 7.129,6.213 7.320,6.182 7.320 C 6.090 7.320,5.411 7.694,5.109 7.911 C 4.477 8.365,3.816 9.161,3.507 9.843 C 3.188 10.546,3.047 11.127,3.013 11.881 C 2.976 12.718,3.081 13.445,3.362 14.291 C 3.852 15.770,4.908 17.153,6.660 18.614 C 7.322 19.166,9.739 20.989,10.271 21.338 C 11.608 22.214,12.392 22.214,13.729 21.338 C 14.255 20.993,16.671 19.172,17.340 18.615 C 17.940 18.116,18.914 17.158,19.270 16.716 C 20.484 15.210,21.063 13.579,20.987 11.881 C 20.927 10.557,20.452 9.431,19.562 8.507 C 18.867 7.784,18.110 7.346,17.160 7.117 C 16.656 6.996,15.714 6.985,15.202 7.096 C 14.183 7.315,13.165 7.859,12.310 8.642 L 12.000 8.925 11.690 8.642 C 11.223 8.215,10.716 7.865,10.160 7.587 C 9.427 7.221,8.883 7.067,8.136 7.015 L 7.748 6.987 7.773 6.555 C 7.899 4.353,9.045 3.074,11.140 2.797 C 11.626 2.733,12.633 2.773,13.080 2.875 C 13.724 3.022,14.213 3.247,14.661 3.602 C 14.885 3.779,15.028 3.940,15.369 4.398 C 15.553 4.646,15.727 4.739,16.007 4.739 C 16.593 4.739,16.933 4.111,16.629 3.591 C 16.568 3.488,16.396 3.254,16.245 3.072 C 15.369 2.009,14.067 1.400,12.418 1.281 C 11.806 1.237,11.794 1.237,11.228 1.284 M12.405 11.381 C 12.485 11.432,12.593 11.543,12.645 11.627 L 12.740 11.780 12.740 13.200 C 12.740 13.981,12.726 14.669,12.709 14.729 C 12.667 14.881,12.447 15.121,12.292 15.186 C 11.998 15.309,11.664 15.229,11.450 14.985 C 11.379 14.905,11.307 14.789,11.291 14.729 C 11.274 14.669,11.260 13.981,11.260 13.200 C 11.260 11.784,11.260 11.780,11.353 11.631 C 11.586 11.256,12.044 11.147,12.405 11.381 " fill="#1C274C" stroke="none" fill-rule="evenodd"></path></svg>