<svg width="24" height="24" viewBox="0 0 24 24" fill="none" xmlns="http://www.w3.org/2000/svg"><path d="M6.960 3.308 C 5.730 3.439,4.629 3.966,3.760 4.839 C 2.270 6.335,1.714 8.400,2.165 10.756 C 2.405 12.006,3.071 13.368,4.026 14.560 C 4.439 15.075,5.387 16.026,6.074 16.614 C 6.852 17.281,9.566 19.394,10.120 19.765 C 10.715 20.164,11.207 20.389,11.636 20.460 L 11.812 20.489 11.475 20.115 C 10.818 19.386,10.475 18.890,10.137 18.180 C 9.760 17.388,9.587 16.740,9.521 15.871 C 9.358 13.726,10.401 11.780,12.174 10.921 C 13.109 10.467,14.117 10.379,15.109 10.662 C 15.469 10.765,15.999 10.999,16.322 11.198 C 16.500 11.307,16.507 11.308,16.602 11.239 C 16.744 11.137,17.304 10.860,17.560 10.765 C 18.837 10.296,20.285 10.479,21.405 11.250 L 21.670 11.432 21.713 11.286 C 21.987 10.356,22.064 9.021,21.900 8.060 C 21.501 5.726,19.762 3.838,17.609 3.402 C 15.793 3.034,13.970 3.648,12.330 5.179 L 12.000 5.487 11.670 5.179 C 10.227 3.832,8.494 3.143,6.960 3.308 M13.424 12.063 C 12.227 12.331,11.319 13.360,11.057 14.745 C 10.934 15.398,11.034 16.399,11.291 17.080 C 11.643 18.013,12.327 18.940,13.285 19.786 C 13.983 20.401,15.202 21.392,15.545 21.623 C 16.280 22.116,16.720 22.116,17.455 21.623 C 17.798 21.392,19.017 20.401,19.715 19.786 C 21.177 18.496,21.910 17.164,21.988 15.657 C 22.051 14.451,21.613 13.371,20.777 12.666 C 20.476 12.413,19.989 12.159,19.640 12.075 C 19.356 12.006,18.682 12.007,18.400 12.076 C 17.883 12.202,17.233 12.578,16.766 13.020 L 16.501 13.272 16.233 13.019 C 15.776 12.588,15.176 12.233,14.674 12.097 C 14.342 12.006,13.747 11.990,13.424 12.063 " fill="#1C274C" stroke="none" fill-rule="evenodd"></path></svg>