<svg width="24" height="24" viewBox="0 0 24 24" fill="none" xmlns="http://www.w3.org/2000/svg"><path d="M11.100 2.046 C 9.219 2.209,7.334 2.958,5.828 4.139 L 5.476 4.416 7.611 6.551 L 9.746 8.686 9.983 8.547 C 10.301 8.361,10.642 8.222,11.045 8.112 C 11.526 7.981,12.467 7.982,12.955 8.113 C 13.357 8.221,13.697 8.360,14.017 8.547 L 14.254 8.686 16.390 6.550 L 18.526 4.413 18.133 4.112 C 16.082 2.541,13.645 1.825,11.100 2.046 M4.139 5.828 C 2.172 8.335,1.527 11.589,2.381 14.700 C 2.718 15.930,3.285 17.053,4.112 18.133 L 4.413 18.526 6.550 16.390 L 8.686 14.254 8.547 14.017 C 8.361 13.698,8.222 13.358,8.112 12.955 C 7.981 12.470,7.981 11.530,8.112 11.045 C 8.222 10.642,8.361 10.302,8.547 9.983 L 8.686 9.746 6.551 7.611 L 4.416 5.476 4.139 5.828 M17.451 7.610 L 15.322 9.740 15.557 10.209 C 15.886 10.863,15.975 11.246,15.975 12.000 C 15.975 12.754,15.886 13.137,15.557 13.791 L 15.322 14.260 17.454 16.393 L 19.586 18.526 19.843 18.200 C 22.066 15.378,22.613 11.590,21.277 8.269 C 20.906 7.347,20.285 6.302,19.709 5.630 L 19.580 5.480 17.451 7.610 M7.607 17.453 L 5.474 19.587 5.867 19.888 C 7.509 21.146,9.278 21.817,11.348 21.968 C 12.416 22.045,13.449 21.945,14.555 21.657 C 15.850 21.319,17.018 20.743,18.124 19.895 L 18.526 19.587 16.390 17.450 L 14.254 15.314 14.017 15.453 C 13.697 15.640,13.357 15.779,12.955 15.887 C 12.471 16.018,11.529 16.018,11.045 15.887 C 10.645 15.779,10.303 15.640,9.988 15.456 C 9.860 15.381,9.752 15.320,9.748 15.320 C 9.743 15.320,8.780 16.280,7.607 17.453 " fill="#1C274C" stroke="none" fill-rule="evenodd"></path></svg>