<svg width="24" height="24" viewBox="0 0 24 24" fill="none" xmlns="http://www.w3.org/2000/svg"><path d="M8.419 2.041 C 5.785 2.145,4.480 2.507,3.549 3.393 C 2.551 4.342,2.166 5.587,2.041 8.260 C 1.988 9.399,1.988 14.601,2.041 15.740 C 2.160 18.285,2.507 19.501,3.379 20.433 C 4.245 21.360,5.318 21.742,7.580 21.927 C 8.488 22.002,15.512 22.002,16.420 21.927 C 18.857 21.727,19.992 21.275,20.860 20.157 C 21.474 19.368,21.771 18.329,21.927 16.420 C 22.002 15.512,22.002 8.488,21.927 7.580 C 21.740 5.297,21.356 4.232,20.407 3.355 C 19.572 2.585,18.492 2.242,16.380 2.078 C 15.684 2.023,9.573 1.995,8.419 2.041 M5.840 7.342 C 5.977 7.412,6.146 7.597,6.197 7.733 C 6.225 7.806,6.240 8.441,6.240 9.543 L 6.240 11.240 7.900 11.240 L 9.560 11.240 9.560 9.590 C 9.560 8.578,9.576 7.882,9.602 7.791 C 9.690 7.473,9.965 7.269,10.304 7.269 C 10.576 7.269,10.827 7.405,10.948 7.620 L 11.039 7.780 11.039 11.992 C 11.040 16.109,11.038 16.207,10.961 16.358 C 10.810 16.653,10.448 16.810,10.121 16.721 C 9.898 16.660,9.664 16.433,9.605 16.219 C 9.576 16.115,9.560 15.490,9.560 14.410 L 9.560 12.760 7.900 12.760 L 6.240 12.760 6.240 14.457 C 6.240 15.559,6.225 16.194,6.197 16.267 C 6.104 16.516,5.759 16.758,5.500 16.758 C 5.241 16.758,4.896 16.516,4.803 16.267 C 4.773 16.190,4.760 14.837,4.760 11.996 C 4.760 8.594,4.770 7.814,4.814 7.708 C 4.881 7.548,5.124 7.329,5.271 7.297 C 5.331 7.284,5.398 7.267,5.420 7.260 C 5.485 7.238,5.732 7.287,5.840 7.342 M14.200 7.281 C 15.026 7.352,15.688 7.527,16.386 7.858 C 17.799 8.527,18.770 9.639,19.125 10.993 C 19.230 11.392,19.267 12.159,19.203 12.604 C 18.995 14.047,17.989 15.344,16.497 16.092 C 15.510 16.587,14.023 16.873,13.310 16.705 C 12.589 16.535,12.104 16.066,12.003 15.439 C 11.945 15.086,11.945 8.914,12.003 8.561 C 12.026 8.419,12.092 8.216,12.149 8.110 C 12.366 7.712,12.875 7.366,13.360 7.286 C 13.663 7.236,13.681 7.236,14.200 7.281 M13.530 8.793 C 13.490 8.818,13.482 9.491,13.490 12.023 L 13.500 15.220 13.800 15.233 C 14.585 15.265,15.569 14.974,16.277 14.499 C 16.616 14.272,17.066 13.824,17.281 13.500 C 17.638 12.964,17.810 12.264,17.727 11.682 C 17.638 11.050,17.349 10.491,16.850 9.987 C 16.225 9.353,15.366 8.942,14.380 8.801 C 14.043 8.753,13.599 8.749,13.530 8.793 " fill="#1C274C" stroke="none" fill-rule="evenodd"></path></svg>