<svg width="24" height="24" viewBox="0 0 24 24" fill="none" xmlns="http://www.w3.org/2000/svg"><path d="M8.419 2.041 C 5.785 2.145,4.480 2.507,3.549 3.393 C 2.551 4.342,2.166 5.587,2.041 8.260 C 1.988 9.399,1.988 14.601,2.041 15.740 C 2.160 18.285,2.507 19.501,3.379 20.433 C 4.245 21.360,5.318 21.742,7.580 21.927 C 8.488 22.002,15.512 22.002,16.420 21.927 C 18.857 21.727,19.992 21.275,20.860 20.157 C 21.474 19.368,21.771 18.329,21.927 16.420 C 22.002 15.512,22.002 8.488,21.927 7.580 C 21.740 5.297,21.356 4.232,20.407 3.355 C 19.572 2.585,18.492 2.242,16.380 2.078 C 15.684 2.023,9.573 1.995,8.419 2.041 M6.405 7.381 C 6.485 7.432,6.593 7.543,6.645 7.627 L 6.740 7.780 6.752 9.510 L 6.764 11.240 8.422 11.240 L 10.080 11.240 10.080 9.533 C 10.080 7.881,10.083 7.820,10.164 7.652 C 10.278 7.417,10.530 7.269,10.814 7.269 C 11.155 7.269,11.428 7.471,11.521 7.792 C 11.551 7.894,11.560 9.164,11.552 11.903 L 11.540 15.866 11.427 16.036 C 11.176 16.415,10.567 16.467,10.275 16.134 C 10.082 15.914,10.080 15.896,10.080 14.282 L 10.080 12.760 8.422 12.760 L 6.764 12.760 6.752 14.290 C 6.739 15.963,6.743 15.931,6.494 16.167 C 6.289 16.361,5.973 16.417,5.708 16.306 C 5.553 16.241,5.333 16.001,5.291 15.849 C 5.274 15.789,5.260 13.949,5.260 11.760 L 5.260 7.780 5.353 7.631 C 5.586 7.256,6.044 7.147,6.405 7.381 M17.371 7.356 C 18.242 7.584,18.921 8.174,19.169 8.917 C 19.254 9.173,19.257 9.240,19.271 11.511 C 19.287 14.015,19.264 14.495,19.116 14.841 L 19.024 15.053 19.202 15.196 C 19.531 15.460,19.666 15.623,19.715 15.816 C 19.846 16.336,19.397 16.827,18.870 16.738 C 18.756 16.719,18.590 16.621,18.296 16.397 L 17.882 16.082 17.707 16.157 C 17.296 16.333,16.980 16.368,15.971 16.351 C 15.082 16.336,15.000 16.328,14.713 16.233 C 13.808 15.931,13.142 15.251,13.000 14.485 C 12.942 14.172,12.947 9.386,13.005 9.112 C 13.148 8.441,13.637 7.864,14.340 7.538 C 14.879 7.287,15.219 7.239,16.300 7.260 C 16.903 7.271,17.124 7.291,17.371 7.356 M15.180 8.814 C 14.838 8.926,14.570 9.140,14.482 9.373 C 14.454 9.447,14.440 10.272,14.440 11.824 C 14.440 14.081,14.443 14.169,14.520 14.319 C 14.616 14.509,14.804 14.658,15.088 14.770 C 15.257 14.837,15.415 14.857,15.867 14.871 L 16.434 14.889 16.379 14.734 C 16.311 14.544,16.308 14.464,16.365 14.261 C 16.423 14.049,16.658 13.820,16.876 13.761 C 17.113 13.697,17.319 13.741,17.547 13.903 L 17.740 14.040 17.751 11.730 C 17.758 10.075,17.748 9.389,17.716 9.310 C 17.656 9.165,17.433 8.973,17.204 8.868 C 17.039 8.792,16.935 8.783,16.180 8.773 C 15.570 8.765,15.296 8.776,15.180 8.814 " fill="#1C274C" stroke="none" fill-rule="evenodd"></path></svg>