<svg width="24" height="24" viewBox="0 0 24 24" fill="none" xmlns="http://www.w3.org/2000/svg"><path d="M10.965 2.059 C 10.449 2.176,9.869 2.534,9.559 2.926 C 8.420 4.367,9.127 6.467,10.904 6.921 C 12.010 7.204,13.214 6.654,13.715 5.638 C 14.090 4.876,14.090 4.124,13.716 3.363 C 13.434 2.793,12.868 2.314,12.240 2.116 C 11.899 2.008,11.305 1.982,10.965 2.059 M18.807 7.289 C 18.558 7.342,18.342 7.570,18.284 7.838 C 18.258 7.959,18.240 8.480,18.240 9.100 L 18.240 10.156 18.015 10.339 C 17.303 10.919,16.449 11.232,15.480 11.269 C 14.637 11.301,14.145 11.199,13.320 10.821 C 12.747 10.558,12.520 10.502,12.040 10.503 C 11.044 10.505,10.157 11.055,9.727 11.939 C 9.515 12.373,9.400 13.046,9.400 13.855 C 9.400 14.507,9.616 15.132,10.032 15.681 C 10.266 15.990,10.431 16.130,11.040 16.531 C 11.293 16.697,11.622 16.939,11.771 17.067 C 12.469 17.668,13.013 18.497,13.292 19.385 C 13.444 19.866,13.475 20.062,13.577 21.167 C 13.679 22.275,13.714 22.411,13.936 22.579 C 14.244 22.812,14.653 22.787,14.920 22.520 C 15.159 22.281,15.168 22.182,15.058 20.999 C 15.006 20.431,14.926 19.787,14.882 19.567 C 14.607 18.219,13.836 16.886,12.811 15.987 C 12.640 15.837,12.244 15.543,11.931 15.334 C 11.329 14.931,11.182 14.785,11.015 14.421 C 10.885 14.135,10.859 13.848,10.916 13.321 C 10.975 12.777,11.015 12.639,11.172 12.433 C 11.381 12.159,11.637 12.024,11.979 12.006 C 12.254 11.993,12.288 12.001,12.763 12.211 C 13.036 12.331,13.350 12.458,13.460 12.494 C 14.921 12.965,16.549 12.848,17.890 12.175 L 18.240 11.999 18.240 16.978 C 18.240 20.462,18.253 22.018,18.284 22.162 C 18.447 22.920,19.553 22.920,19.716 22.162 C 19.776 21.883,19.777 8.101,19.717 7.841 C 19.620 7.420,19.247 7.194,18.807 7.289 M7.680 9.326 C 7.009 9.368,6.329 9.430,6.170 9.464 C 5.310 9.647,4.562 10.372,4.334 11.245 C 4.248 11.575,4.248 12.145,4.334 12.475 C 4.416 12.786,4.635 13.213,4.833 13.444 C 5.033 13.678,7.186 15.591,7.337 15.669 C 7.492 15.749,7.828 15.749,7.981 15.669 C 8.136 15.588,8.304 15.409,8.357 15.267 C 8.450 15.023,8.394 14.707,8.227 14.525 C 8.179 14.472,7.663 14.002,7.080 13.480 C 6.497 12.959,5.989 12.497,5.952 12.455 C 5.763 12.242,5.701 11.778,5.822 11.489 C 5.941 11.204,6.257 10.954,6.562 10.904 C 6.638 10.891,7.204 10.854,7.820 10.820 C 9.193 10.745,9.317 10.723,9.519 10.521 C 9.866 10.174,9.776 9.547,9.352 9.350 C 9.134 9.248,8.954 9.246,7.680 9.326 M8.690 16.824 C 8.464 16.939,8.334 17.129,8.222 17.508 C 7.919 18.530,7.554 19.366,7.225 19.794 C 6.972 20.123,6.352 20.734,5.834 21.167 C 5.565 21.391,5.382 21.577,5.337 21.671 C 5.106 22.153,5.447 22.728,5.967 22.733 C 6.257 22.736,6.384 22.666,6.932 22.199 C 7.905 21.368,8.514 20.667,8.876 19.960 C 9.269 19.193,9.726 17.874,9.729 17.493 C 9.732 17.249,9.647 17.082,9.429 16.907 C 9.242 16.755,8.899 16.717,8.690 16.824 " fill="#1C274C" stroke="none" fill-rule="evenodd"></path></svg>