<svg width="24" height="24" viewBox="0 0 24 24" fill="none" xmlns="http://www.w3.org/2000/svg"><path d="M10.965 3.059 C 10.449 3.176,9.869 3.534,9.559 3.926 C 8.420 5.367,9.127 7.467,10.904 7.921 C 12.010 8.204,13.214 7.654,13.715 6.638 C 14.090 5.876,14.090 5.124,13.716 4.363 C 13.434 3.793,12.868 3.314,12.240 3.116 C 11.899 3.008,11.305 2.982,10.965 3.059 M18.807 6.289 C 18.558 6.342,18.342 6.570,18.284 6.838 C 18.258 6.959,18.240 7.480,18.240 8.100 L 18.240 9.156 18.015 9.339 C 17.303 9.919,16.449 10.232,15.480 10.269 C 14.637 10.301,14.145 10.199,13.320 9.821 C 12.747 9.558,12.520 9.502,12.040 9.503 C 11.044 9.505,10.157 10.055,9.727 10.939 C 9.515 11.373,9.400 12.046,9.400 12.855 C 9.400 13.507,9.616 14.132,10.032 14.681 C 10.266 14.990,10.431 15.130,11.040 15.531 C 11.293 15.697,11.622 15.939,11.771 16.067 C 12.469 16.668,13.013 17.497,13.292 18.385 C 13.444 18.866,13.475 19.062,13.577 20.167 C 13.679 21.275,13.714 21.411,13.936 21.579 C 14.244 21.812,14.653 21.787,14.920 21.520 C 15.159 21.281,15.168 21.182,15.058 19.999 C 15.006 19.431,14.926 18.787,14.882 18.567 C 14.607 17.219,13.836 15.886,12.811 14.987 C 12.640 14.837,12.244 14.543,11.931 14.334 C 11.329 13.931,11.182 13.785,11.015 13.421 C 10.885 13.135,10.859 12.848,10.916 12.321 C 10.975 11.777,11.015 11.639,11.172 11.433 C 11.381 11.159,11.637 11.024,11.979 11.006 C 12.254 10.993,12.288 11.001,12.763 11.211 C 13.036 11.331,13.350 11.458,13.460 11.494 C 14.921 11.965,16.549 11.848,17.890 11.175 L 18.240 10.999 18.240 15.978 C 18.240 19.462,18.253 21.018,18.284 21.162 C 18.447 21.920,19.553 21.920,19.716 21.162 C 19.776 20.883,19.777 7.101,19.717 6.841 C 19.620 6.420,19.247 6.194,18.807 6.289 M8.690 15.824 C 8.464 15.939,8.334 16.129,8.222 16.508 C 7.919 17.530,7.554 18.366,7.225 18.794 C 6.972 19.123,6.352 19.734,5.834 20.167 C 5.565 20.391,5.382 20.577,5.337 20.671 C 5.106 21.153,5.447 21.728,5.967 21.733 C 6.257 21.736,6.384 21.666,6.932 21.199 C 7.905 20.368,8.514 19.667,8.876 18.960 C 9.269 18.193,9.726 16.874,9.729 16.493 C 9.732 16.249,9.647 16.082,9.429 15.907 C 9.242 15.755,8.899 15.717,8.690 15.824 " fill="#1C274C" stroke="none" fill-rule="evenodd"></path></svg>