<svg width="24" height="24" viewBox="0 0 24 24" fill="none" xmlns="http://www.w3.org/2000/svg"><path d="M10.965 2.059 C 10.449 2.176,9.869 2.534,9.559 2.926 C 8.420 4.367,9.127 6.467,10.904 6.921 C 12.010 7.204,13.214 6.654,13.715 5.638 C 14.090 4.876,14.090 4.124,13.716 3.363 C 13.434 2.793,12.868 2.314,12.240 2.116 C 11.899 2.008,11.305 1.982,10.965 2.059 M18.807 7.289 C 18.558 7.342,18.342 7.570,18.284 7.838 C 18.258 7.959,18.240 8.480,18.240 9.102 L 18.240 10.160 17.470 10.801 C 17.047 11.153,16.619 11.482,16.520 11.531 C 16.376 11.602,16.271 11.620,16.000 11.620 C 15.556 11.620,15.452 11.567,14.740 10.975 C 13.984 10.347,13.705 10.156,13.140 9.882 C 12.434 9.538,11.829 9.360,11.365 9.360 C 10.666 9.360,9.919 9.934,9.723 10.620 C 9.698 10.708,9.614 11.401,9.536 12.160 C 9.326 14.201,9.359 14.695,9.749 15.356 C 10.043 15.854,10.269 16.034,11.960 17.115 C 12.763 17.628,13.060 17.938,13.241 18.452 C 13.350 18.764,13.385 19.028,13.536 20.704 C 13.681 22.307,13.701 22.401,13.936 22.579 C 14.244 22.812,14.653 22.787,14.920 22.520 C 15.164 22.276,15.168 22.210,15.037 20.728 C 14.849 18.607,14.802 18.303,14.581 17.787 C 14.396 17.356,14.220 17.076,13.949 16.779 C 13.650 16.451,13.319 16.205,12.340 15.583 C 11.240 14.883,11.153 14.814,11.004 14.515 C 10.900 14.308,10.880 14.221,10.880 13.984 C 10.880 13.638,11.118 11.175,11.164 11.052 C 11.182 11.004,11.239 10.936,11.291 10.902 C 11.540 10.739,12.691 11.238,13.400 11.817 C 14.800 12.960,15.124 13.123,16.000 13.123 C 16.712 13.123,17.124 12.969,17.811 12.447 L 18.240 12.121 18.240 17.038 C 18.240 20.479,18.253 22.018,18.284 22.162 C 18.447 22.920,19.553 22.920,19.716 22.162 C 19.776 21.883,19.777 8.101,19.717 7.841 C 19.620 7.420,19.247 7.194,18.807 7.289 M7.740 9.299 C 7.105 9.477,5.828 9.944,5.580 10.090 C 4.868 10.508,4.385 11.250,4.282 12.088 C 4.229 12.517,4.277 12.816,4.460 13.187 C 4.693 13.659,4.824 13.751,6.409 14.543 C 7.581 15.130,7.830 15.240,7.978 15.240 C 8.415 15.240,8.731 14.929,8.731 14.500 C 8.731 14.275,8.661 14.110,8.501 13.960 C 8.442 13.905,7.806 13.563,7.087 13.200 L 5.780 12.540 5.767 12.382 C 5.740 12.044,5.928 11.671,6.241 11.444 C 6.345 11.369,6.753 11.210,7.388 10.996 C 8.262 10.703,8.391 10.649,8.521 10.519 C 9.080 9.960,8.517 9.081,7.740 9.299 M8.720 16.805 C 8.665 16.827,8.577 16.884,8.525 16.932 C 8.472 16.981,7.730 18.068,6.875 19.349 C 5.766 21.011,5.310 21.727,5.282 21.849 C 5.141 22.479,5.834 22.965,6.394 22.629 C 6.566 22.526,9.716 17.819,9.727 17.649 C 9.740 17.450,9.715 17.267,9.661 17.163 C 9.588 17.022,9.404 16.854,9.267 16.803 C 9.129 16.750,8.854 16.751,8.720 16.805 " fill="#1C274C" stroke="none" fill-rule="evenodd"></path></svg>