<svg width="24" height="24" viewBox="0 0 24 24" fill="none" xmlns="http://www.w3.org/2000/svg"><path d="M11.811 1.278 C 11.291 1.405,11.079 2.067,11.426 2.480 C 11.604 2.692,11.728 2.730,12.360 2.766 C 13.137 2.809,13.711 2.895,14.360 3.064 C 17.548 3.892,20.108 6.452,20.936 9.640 C 21.163 10.512,21.218 10.974,21.218 12.000 C 21.218 13.026,21.163 13.488,20.936 14.360 C 20.521 15.958,19.686 17.392,18.474 18.589 C 17.729 19.324,17.013 19.835,16.100 20.281 C 15.184 20.729,14.406 20.980,13.407 21.148 C 12.800 21.250,11.200 21.250,10.593 21.148 C 9.594 20.980,8.816 20.729,7.900 20.281 C 6.159 19.430,4.708 18.008,3.801 16.267 C 3.169 15.056,2.846 13.834,2.765 12.361 C 2.728 11.688,2.689 11.581,2.409 11.384 C 2.269 11.285,2.204 11.267,2.000 11.267 C 1.796 11.267,1.731 11.285,1.591 11.384 C 1.295 11.592,1.259 11.696,1.266 12.340 C 1.284 14.194,1.942 16.280,3.019 17.900 C 4.774 20.540,7.425 22.202,10.620 22.666 C 11.284 22.762,12.716 22.762,13.380 22.666 C 15.974 22.289,18.195 21.134,19.908 19.272 C 21.413 17.636,22.334 15.668,22.666 13.380 C 22.762 12.716,22.762 11.284,22.666 10.620 C 22.252 7.772,20.908 5.390,18.708 3.606 C 17.306 2.470,15.463 1.659,13.660 1.385 C 13.042 1.291,12.004 1.231,11.811 1.278 M7.923 2.058 C 7.508 2.226,7.408 2.299,7.292 2.519 C 7.051 2.974,7.345 3.532,7.855 3.589 C 8.055 3.612,8.218 3.567,8.629 3.373 C 8.870 3.260,8.936 3.207,9.025 3.055 C 9.266 2.644,9.107 2.164,8.671 1.982 C 8.452 1.890,8.298 1.906,7.923 2.058 M4.931 4.038 C 4.754 4.081,4.637 4.164,4.377 4.428 C 4.096 4.714,4.025 4.849,4.024 5.102 C 4.021 5.632,4.564 5.990,5.058 5.783 C 5.248 5.704,5.743 5.193,5.802 5.015 C 5.869 4.812,5.831 4.510,5.717 4.343 C 5.550 4.100,5.212 3.968,4.931 4.038 M2.520 7.290 C 2.302 7.406,2.201 7.548,2.041 7.962 C 1.904 8.318,1.893 8.457,1.982 8.671 C 2.160 9.098,2.634 9.264,3.032 9.040 C 3.232 8.927,3.307 8.817,3.481 8.380 C 3.580 8.131,3.604 8.018,3.590 7.871 C 3.541 7.355,2.974 7.047,2.520 7.290 M11.811 8.278 C 11.639 8.320,11.417 8.493,11.330 8.652 C 11.266 8.769,11.259 8.970,11.249 10.911 C 11.241 12.402,11.251 13.092,11.283 13.209 C 11.340 13.422,11.572 13.657,11.781 13.715 C 12.001 13.777,15.999 13.777,16.219 13.715 C 16.431 13.657,16.660 13.422,16.719 13.204 C 16.808 12.873,16.689 12.566,16.395 12.372 L 16.226 12.260 14.495 12.248 L 12.763 12.236 12.752 10.508 C 12.740 8.850,12.737 8.774,12.658 8.641 C 12.494 8.361,12.122 8.202,11.811 8.278 " fill="#1C274C" stroke="none" fill-rule="evenodd"></path></svg>