<svg width="24" height="24" viewBox="0 0 24 24" fill="none" xmlns="http://www.w3.org/2000/svg"><path d="M11.260 2.281 C 9.791 2.376,8.390 2.796,7.127 3.519 C 6.469 3.896,5.988 4.247,5.322 4.834 L 5.080 5.048 5.080 4.623 C 5.080 4.042,4.993 3.840,4.672 3.676 C 4.322 3.497,3.873 3.628,3.680 3.966 L 3.580 4.140 3.583 5.520 C 3.585 6.279,3.599 6.969,3.615 7.052 C 3.632 7.141,3.704 7.271,3.787 7.362 C 4.024 7.624,4.131 7.640,5.677 7.639 C 6.897 7.638,7.035 7.631,7.180 7.564 C 7.847 7.257,7.754 6.328,7.039 6.163 C 6.941 6.141,6.698 6.121,6.500 6.119 L 6.140 6.117 6.320 5.956 C 6.938 5.402,7.453 5.038,8.090 4.701 C 9.972 3.706,12.202 3.491,14.292 4.104 C 15.309 4.402,16.373 4.972,17.198 5.661 C 19.244 7.371,20.327 9.778,20.227 12.400 C 20.179 13.685,19.882 14.808,19.299 15.910 C 17.530 19.255,13.720 20.929,10.027 19.982 C 7.610 19.363,5.619 17.708,4.538 15.420 C 3.907 14.084,3.635 12.456,3.804 11.024 C 3.859 10.554,3.813 10.359,3.600 10.156 C 3.350 9.917,3.026 9.880,2.693 10.053 C 2.418 10.196,2.341 10.409,2.277 11.200 C 2.092 13.499,2.815 15.937,4.239 17.820 C 5.856 19.958,8.187 21.307,10.920 21.686 C 11.475 21.763,12.830 21.752,13.400 21.666 C 15.571 21.339,17.421 20.419,18.920 18.920 C 22.342 15.498,22.701 10.069,19.762 6.180 C 17.756 3.527,14.573 2.067,11.260 2.281 M11.811 7.278 C 11.639 7.320,11.417 7.493,11.330 7.652 C 11.266 7.769,11.259 7.976,11.249 10.039 L 11.237 12.297 12.629 13.691 C 13.394 14.458,14.087 15.120,14.168 15.163 C 14.439 15.304,14.849 15.234,15.048 15.013 C 15.151 14.900,15.240 14.661,15.240 14.500 C 15.240 14.206,15.147 14.090,13.940 12.880 L 12.762 11.700 12.751 9.740 C 12.740 7.847,12.737 7.775,12.658 7.641 C 12.494 7.361,12.122 7.202,11.811 7.278 " fill="#1C274C" stroke="none" fill-rule="evenodd"></path></svg>