<svg width="24" height="24" viewBox="0 0 24 24" fill="none" xmlns="http://www.w3.org/2000/svg"><path d="M11.807 1.288 C 11.276 1.405,11.085 2.125,11.480 2.520 C 11.656 2.696,11.882 2.760,12.324 2.760 C 14.091 2.760,16.265 3.564,17.780 4.778 C 18.163 5.085,18.873 5.792,19.187 6.180 C 20.097 7.304,20.781 8.748,21.057 10.129 C 21.172 10.699,21.240 11.280,21.240 11.676 C 21.240 12.118,21.304 12.344,21.480 12.520 C 21.884 12.924,22.596 12.724,22.713 12.174 C 22.761 11.945,22.715 11.020,22.624 10.415 C 21.959 5.964,18.557 2.367,14.180 1.486 C 13.303 1.309,12.147 1.213,11.807 1.288 M7.923 2.058 C 7.500 2.229,7.402 2.301,7.290 2.521 C 7.045 3.000,7.354 3.548,7.892 3.590 C 8.065 3.604,8.160 3.581,8.453 3.458 C 8.849 3.291,9.042 3.124,9.114 2.886 C 9.170 2.697,9.171 2.660,9.118 2.471 C 9.035 2.170,8.710 1.922,8.400 1.922 C 8.323 1.921,8.108 1.983,7.923 2.058 M4.876 4.053 C 4.567 4.168,4.123 4.629,4.033 4.929 C 3.976 5.117,4.033 5.387,4.164 5.555 C 4.368 5.817,4.747 5.914,5.057 5.784 C 5.230 5.712,5.712 5.230,5.784 5.057 C 5.864 4.865,5.853 4.612,5.756 4.412 C 5.610 4.111,5.187 3.938,4.876 4.053 M2.535 7.277 C 2.340 7.365,2.212 7.528,2.065 7.876 C 1.858 8.366,1.895 8.704,2.182 8.956 C 2.559 9.288,3.109 9.178,3.336 8.726 C 3.522 8.357,3.612 8.051,3.590 7.860 C 3.533 7.356,3.004 7.064,2.535 7.277 M11.807 8.289 C 11.558 8.342,11.342 8.570,11.284 8.838 C 11.224 9.121,11.224 12.879,11.284 13.162 C 11.345 13.446,11.554 13.655,11.838 13.716 C 12.121 13.776,15.879 13.776,16.162 13.716 C 16.920 13.553,16.920 12.447,16.162 12.284 C 16.031 12.256,15.374 12.240,14.358 12.240 L 12.760 12.240 12.759 10.630 C 12.758 9.669,12.741 8.948,12.717 8.841 C 12.620 8.420,12.247 8.194,11.807 8.289 M1.745 11.059 C 1.399 11.182,1.240 11.479,1.240 12.002 C 1.240 12.504,1.375 12.774,1.700 12.924 C 2.077 13.098,2.503 12.932,2.684 12.540 C 2.788 12.315,2.788 11.686,2.685 11.458 C 2.595 11.261,2.408 11.097,2.209 11.042 C 2.017 10.988,1.934 10.991,1.745 11.059 M2.580 14.858 C 2.558 14.866,2.491 14.884,2.431 14.897 C 2.141 14.961,1.888 15.365,1.933 15.694 C 1.962 15.906,2.138 16.332,2.272 16.515 C 2.584 16.939,3.286 16.863,3.520 16.380 C 3.640 16.131,3.616 15.917,3.416 15.461 C 3.278 15.146,3.237 15.089,3.079 14.994 C 2.911 14.891,2.669 14.826,2.580 14.858 M21.151 14.879 C 20.932 14.946,20.757 15.089,20.664 15.274 C 20.478 15.643,20.388 15.950,20.410 16.140 C 20.467 16.644,20.996 16.936,21.465 16.723 C 21.660 16.635,21.788 16.472,21.935 16.124 C 22.127 15.669,22.115 15.382,21.892 15.118 C 21.718 14.910,21.390 14.805,21.151 14.879 M4.417 18.241 C 4.111 18.392,3.941 18.765,4.034 19.076 C 4.136 19.416,4.671 19.925,4.990 19.984 C 5.151 20.015,5.416 19.944,5.559 19.833 C 5.815 19.633,5.913 19.251,5.786 18.948 C 5.715 18.778,5.225 18.287,5.056 18.216 C 4.867 18.137,4.607 18.147,4.417 18.241 M18.935 18.218 C 18.766 18.291,18.286 18.776,18.216 18.943 C 18.086 19.253,18.183 19.632,18.445 19.836 C 18.613 19.967,18.883 20.024,19.071 19.967 C 19.391 19.872,19.872 19.389,19.968 19.069 C 20.024 18.882,19.968 18.622,19.832 18.438 C 19.653 18.195,19.226 18.091,18.935 18.218 M7.607 20.486 C 7.274 20.650,7.120 21.059,7.256 21.414 C 7.292 21.510,7.362 21.626,7.412 21.672 C 7.555 21.807,8.111 22.045,8.337 22.068 C 8.832 22.119,9.249 21.641,9.124 21.165 C 9.041 20.850,8.917 20.738,8.426 20.536 C 8.046 20.379,7.847 20.367,7.607 20.486 M15.574 20.536 C 15.083 20.738,14.959 20.850,14.876 21.165 C 14.751 21.641,15.168 22.119,15.663 22.068 C 15.889 22.045,16.445 21.807,16.588 21.672 C 16.724 21.545,16.814 21.272,16.790 21.060 C 16.749 20.694,16.420 20.399,16.057 20.401 C 15.971 20.401,15.753 20.462,15.574 20.536 M11.660 21.257 C 11.638 21.266,11.572 21.284,11.513 21.296 C 11.259 21.352,11.002 21.707,11.002 22.000 C 11.002 22.172,11.117 22.430,11.246 22.549 C 11.396 22.686,11.658 22.760,12.000 22.760 C 12.504 22.760,12.774 22.626,12.924 22.300 C 13.090 21.941,12.939 21.517,12.580 21.330 C 12.468 21.272,11.764 21.216,11.660 21.257 " fill="#1C274C" stroke="none" fill-rule="evenodd"></path></svg>