<svg width="24" height="24" viewBox="0 0 24 24" fill="none" xmlns="http://www.w3.org/2000/svg"><path d="M11.414 2.059 C 10.717 2.186,10.011 2.514,8.420 3.451 C 7.029 4.270,4.855 5.577,4.464 5.830 C 2.983 6.788,2.403 7.447,2.113 8.500 C 2.036 8.779,2.025 8.923,2.023 9.620 C 2.021 10.532,2.020 10.525,2.424 13.380 C 3.108 18.216,3.287 19.078,3.801 20.031 C 4.501 21.328,5.557 21.825,7.900 21.960 C 8.783 22.011,15.217 22.011,16.100 21.960 C 18.443 21.825,19.499 21.328,20.199 20.031 C 20.714 19.077,20.897 18.187,21.596 13.240 C 21.978 10.540,21.979 10.526,21.977 9.620 C 21.975 8.924,21.964 8.778,21.887 8.500 C 21.611 7.494,21.045 6.833,19.700 5.943 C 18.921 5.427,15.362 3.301,14.460 2.812 C 13.125 2.088,12.333 1.892,11.414 2.059 M15.388 17.367 C 15.628 17.526,15.733 17.721,15.733 18.007 C 15.733 18.203,15.714 18.271,15.616 18.409 C 15.552 18.501,15.436 18.613,15.359 18.658 C 15.222 18.739,15.173 18.740,12.000 18.740 C 8.827 18.740,8.778 18.739,8.641 18.658 C 8.564 18.613,8.448 18.501,8.384 18.409 C 8.098 18.003,8.330 17.395,8.815 17.278 C 8.884 17.261,10.354 17.250,12.083 17.254 L 15.226 17.260 15.388 17.367 " fill="#1C274C" stroke="none" fill-rule="evenodd"></path></svg>