<svg width="24" height="24" viewBox="0 0 24 24" fill="none" xmlns="http://www.w3.org/2000/svg"><path d="M11.414 2.059 C 10.717 2.186,10.011 2.514,8.420 3.451 C 7.029 4.270,4.855 5.577,4.464 5.830 C 2.983 6.788,2.403 7.447,2.113 8.500 C 2.036 8.779,2.025 8.923,2.023 9.620 C 2.021 10.532,2.020 10.525,2.424 13.380 C 3.108 18.216,3.287 19.078,3.801 20.031 C 4.501 21.328,5.557 21.825,7.900 21.960 C 8.783 22.011,15.217 22.011,16.100 21.960 C 18.443 21.825,19.499 21.328,20.199 20.031 C 20.714 19.077,20.897 18.187,21.596 13.240 C 21.978 10.540,21.979 10.526,21.977 9.620 C 21.975 8.924,21.964 8.778,21.887 8.500 C 21.611 7.494,21.045 6.833,19.700 5.943 C 18.921 5.427,15.362 3.301,14.460 2.812 C 13.125 2.088,12.333 1.892,11.414 2.059 M13.060 8.325 C 15.004 8.552,16.953 9.523,18.325 10.949 C 18.622 11.257,18.677 11.335,18.713 11.505 C 18.812 11.964,18.549 12.350,18.088 12.423 C 17.813 12.467,17.657 12.383,17.195 11.937 C 16.031 10.815,14.724 10.131,13.220 9.856 C 12.917 9.800,12.622 9.783,12.000 9.783 C 11.378 9.783,11.083 9.800,10.780 9.856 C 9.276 10.131,7.969 10.815,6.805 11.937 C 6.341 12.384,6.190 12.466,5.906 12.423 C 5.522 12.365,5.267 12.070,5.267 11.683 C 5.267 11.384,5.332 11.280,5.807 10.817 C 7.388 9.276,9.348 8.406,11.560 8.265 C 11.873 8.245,12.638 8.275,13.060 8.325 M13.320 11.453 C 14.434 11.718,15.431 12.257,16.257 13.043 C 16.658 13.423,16.733 13.550,16.733 13.843 C 16.733 14.347,16.285 14.691,15.798 14.560 C 15.673 14.526,15.541 14.431,15.304 14.206 C 14.755 13.685,14.358 13.420,13.720 13.151 C 13.141 12.907,12.715 12.827,12.000 12.827 C 11.285 12.827,10.859 12.907,10.280 13.151 C 9.642 13.420,9.245 13.685,8.696 14.206 C 8.459 14.431,8.327 14.526,8.202 14.560 C 7.715 14.691,7.267 14.347,7.267 13.843 C 7.267 13.550,7.342 13.423,7.743 13.043 C 8.587 12.240,9.661 11.669,10.745 11.444 C 11.317 11.325,11.310 11.326,12.140 11.340 C 12.782 11.351,12.965 11.369,13.320 11.453 M12.520 14.402 C 13.208 14.510,13.866 14.839,14.392 15.337 C 14.648 15.579,14.731 15.733,14.733 15.974 C 14.739 16.488,14.286 16.851,13.803 16.721 C 13.696 16.692,13.545 16.593,13.375 16.439 C 13.228 16.306,12.979 16.135,12.809 16.050 C 12.505 15.901,12.502 15.900,12.000 15.900 C 11.498 15.900,11.495 15.901,11.191 16.050 C 11.021 16.135,10.772 16.306,10.625 16.439 C 10.453 16.594,10.305 16.692,10.195 16.721 C 9.881 16.806,9.559 16.678,9.371 16.393 C 9.234 16.186,9.225 15.838,9.351 15.636 C 9.587 15.255,10.322 14.735,10.900 14.539 C 11.382 14.376,12.015 14.322,12.520 14.402 " fill="#1C274C" stroke="none" fill-rule="evenodd"></path></svg>