<svg width="24" height="24" viewBox="0 0 24 24" fill="none" xmlns="http://www.w3.org/2000/svg"><path d="M11.414 2.059 C 10.717 2.186,10.011 2.514,8.420 3.451 C 7.029 4.270,4.855 5.577,4.464 5.830 C 2.983 6.788,2.403 7.447,2.113 8.500 C 2.036 8.779,2.025 8.923,2.023 9.620 C 2.021 10.532,2.020 10.525,2.424 13.380 C 3.108 18.216,3.287 19.078,3.801 20.031 C 4.501 21.328,5.557 21.825,7.900 21.960 C 8.783 22.011,15.217 22.011,16.100 21.960 C 18.443 21.825,19.499 21.328,20.199 20.031 C 20.714 19.077,20.897 18.187,21.596 13.240 C 21.978 10.540,21.979 10.526,21.977 9.620 C 21.975 8.924,21.964 8.778,21.887 8.500 C 21.611 7.494,21.045 6.833,19.700 5.943 C 18.921 5.427,15.362 3.301,14.460 2.812 C 13.125 2.088,12.333 1.892,11.414 2.059 M12.405 9.381 C 12.485 9.432,12.593 9.543,12.645 9.627 C 12.739 9.778,12.740 9.796,12.753 11.007 L 12.765 12.235 13.993 12.247 C 15.204 12.260,15.222 12.261,15.373 12.355 C 15.615 12.506,15.733 12.718,15.733 13.003 C 15.733 13.203,15.714 13.270,15.616 13.409 C 15.385 13.738,15.382 13.738,13.993 13.752 L 12.765 13.764 12.753 14.999 L 12.740 16.233 12.619 16.405 C 12.453 16.642,12.273 16.739,12.000 16.739 C 11.727 16.739,11.547 16.642,11.381 16.405 L 11.260 16.233 11.247 14.999 L 11.235 13.764 10.007 13.752 C 8.618 13.738,8.615 13.738,8.384 13.409 C 8.286 13.271,8.267 13.203,8.267 13.007 C 8.267 12.721,8.372 12.526,8.612 12.367 L 8.774 12.260 10.004 12.247 L 11.235 12.235 11.247 11.007 C 11.260 9.804,11.262 9.777,11.353 9.631 C 11.586 9.256,12.044 9.147,12.405 9.381 " fill="#1C274C" stroke="none" fill-rule="evenodd"></path></svg>