<svg width="24" height="24" viewBox="0 0 24 24" fill="none" xmlns="http://www.w3.org/2000/svg"><path d="M15.768 3.067 C 15.635 3.132,15.552 3.252,15.507 3.443 C 15.484 3.539,15.601 3.641,17.241 4.953 L 19.000 6.360 19.000 4.878 C 19.000 3.241,18.999 3.231,18.748 3.078 C 18.628 3.005,18.539 3.000,17.260 3.001 C 16.086 3.002,15.882 3.011,15.768 3.067 M11.640 3.121 C 11.058 3.177,10.474 3.377,9.981 3.691 C 9.681 3.882,1.428 10.496,1.373 10.589 C 1.115 11.030,1.336 11.594,1.814 11.714 C 2.117 11.791,2.290 11.722,2.777 11.336 C 3.010 11.151,3.209 11.000,3.220 11.000 C 3.231 11.000,3.240 13.304,3.240 16.120 L 3.240 21.240 2.642 21.240 C 1.879 21.240,1.679 21.281,1.480 21.480 C 1.071 21.889,1.275 22.595,1.838 22.716 C 2.130 22.779,21.870 22.779,22.162 22.716 C 22.725 22.595,22.929 21.889,22.520 21.480 C 22.321 21.281,22.121 21.240,21.358 21.240 L 20.760 21.240 20.760 16.120 C 20.760 13.304,20.769 11.000,20.780 11.000 C 20.791 11.000,20.990 11.151,21.223 11.336 C 21.710 11.722,21.883 11.791,22.186 11.714 C 22.664 11.594,22.885 11.029,22.627 10.589 C 22.578 10.505,14.556 4.066,14.140 3.777 C 13.407 3.267,12.530 3.037,11.640 3.121 M12.872 6.895 C 13.322 7.052,13.590 7.224,13.947 7.582 C 14.215 7.851,14.305 7.976,14.454 8.285 C 14.856 9.117,14.856 9.883,14.454 10.715 C 14.306 11.023,14.215 11.149,13.947 11.419 C 13.593 11.775,13.284 11.969,12.820 12.125 C 12.580 12.206,12.462 12.220,12.000 12.220 C 11.538 12.220,11.420 12.206,11.180 12.125 C 10.716 11.969,10.407 11.775,10.053 11.419 C 9.785 11.149,9.694 11.023,9.546 10.715 C 9.144 9.883,9.144 9.117,9.546 8.285 C 9.861 7.631,10.467 7.106,11.160 6.887 C 11.533 6.769,11.569 6.764,12.100 6.779 C 12.489 6.790,12.635 6.812,12.872 6.895 M11.660 8.294 C 11.388 8.384,11.257 8.469,11.069 8.679 C 10.853 8.919,10.760 9.166,10.760 9.500 C 10.760 9.833,10.853 10.081,11.066 10.318 C 11.326 10.607,11.620 10.740,12.000 10.740 C 12.380 10.740,12.674 10.607,12.934 10.318 C 13.147 10.081,13.240 9.833,13.240 9.500 C 13.240 9.167,13.147 8.919,12.934 8.682 C 12.612 8.324,12.069 8.158,11.660 8.294 M13.437 13.281 C 13.689 13.303,14.003 13.350,14.134 13.384 C 14.880 13.577,15.423 14.120,15.616 14.866 C 15.733 15.314,15.759 16.018,15.760 18.630 L 15.760 21.240 15.000 21.240 L 14.240 21.240 14.240 18.523 C 14.240 15.275,14.221 15.056,13.928 14.904 C 13.724 14.799,13.205 14.760,12.000 14.760 C 10.795 14.760,10.276 14.799,10.072 14.904 C 9.779 15.056,9.760 15.275,9.760 18.523 L 9.760 21.240 9.000 21.240 L 8.240 21.240 8.240 18.610 C 8.240 15.979,8.265 15.324,8.384 14.863 C 8.578 14.117,9.121 13.577,9.876 13.381 C 10.013 13.346,10.290 13.302,10.492 13.284 C 11.030 13.236,12.907 13.234,13.437 13.281 " fill="#1C274C" stroke="none" fill-rule="evenodd"></path></svg>