<svg width="24" height="24" viewBox="0 0 24 24" fill="none" xmlns="http://www.w3.org/2000/svg"><path d="M11.414 2.059 C 10.717 2.186,10.011 2.514,8.420 3.451 C 7.029 4.270,4.855 5.577,4.464 5.830 C 2.983 6.788,2.403 7.447,2.113 8.500 C 2.036 8.779,2.025 8.923,2.023 9.620 C 2.021 10.532,2.020 10.525,2.424 13.380 C 3.108 18.216,3.287 19.078,3.801 20.031 C 4.501 21.328,5.557 21.825,7.900 21.960 C 8.783 22.011,15.217 22.011,16.100 21.960 C 18.443 21.825,19.499 21.328,20.199 20.031 C 20.714 19.077,20.897 18.187,21.596 13.240 C 21.978 10.540,21.979 10.526,21.977 9.620 C 21.975 8.924,21.964 8.778,21.887 8.500 C 21.611 7.494,21.045 6.833,19.700 5.943 C 18.921 5.427,15.362 3.301,14.460 2.812 C 13.125 2.088,12.333 1.892,11.414 2.059 M12.405 14.381 C 12.485 14.432,12.593 14.543,12.645 14.627 L 12.740 14.780 12.740 16.507 L 12.740 18.233 12.619 18.405 C 12.453 18.641,12.273 18.739,12.000 18.739 C 11.727 18.739,11.547 18.641,11.381 18.405 L 11.260 18.233 11.260 16.507 L 11.260 14.780 11.353 14.631 C 11.586 14.256,12.044 14.147,12.405 14.381 " fill="#1C274C" stroke="none" fill-rule="evenodd"></path></svg>