<svg width="24" height="24" viewBox="0 0 24 24" fill="none" xmlns="http://www.w3.org/2000/svg"><path d="M11.429 2.063 C 10.872 2.164,10.178 2.479,9.140 3.101 C 8.207 3.660,4.952 5.686,4.460 6.013 C 2.784 7.131,2.331 7.743,2.092 9.220 C 2.038 9.557,2.025 10.121,2.011 12.820 C 1.989 16.906,2.041 18.040,2.297 19.082 C 2.484 19.844,2.775 20.388,3.240 20.845 C 3.964 21.557,4.925 21.853,6.860 21.958 C 7.859 22.013,16.141 22.013,17.140 21.958 C 19.075 21.853,20.036 21.557,20.760 20.845 C 21.538 20.079,21.849 19.081,21.959 16.996 C 22.011 15.995,22.012 10.550,21.959 9.824 C 21.825 7.963,21.370 7.236,19.594 6.048 C 19.147 5.750,15.738 3.627,14.854 3.097 C 13.795 2.462,13.127 2.163,12.538 2.061 C 12.120 1.988,11.844 1.988,11.429 2.063 M15.388 17.367 C 15.628 17.526,15.733 17.721,15.733 18.007 C 15.733 18.203,15.714 18.271,15.616 18.409 C 15.552 18.501,15.436 18.613,15.359 18.658 C 15.222 18.739,15.173 18.740,12.000 18.740 C 8.827 18.740,8.778 18.739,8.641 18.658 C 8.564 18.613,8.448 18.501,8.384 18.409 C 8.098 18.003,8.330 17.395,8.815 17.278 C 8.884 17.261,10.354 17.250,12.083 17.254 L 15.226 17.260 15.388 17.367 " fill="#1C274C" stroke="none" fill-rule="evenodd"></path></svg>