<svg width="24" height="24" viewBox="0 0 24 24" fill="none" xmlns="http://www.w3.org/2000/svg"><path d="M9.153 2.044 C 8.358 2.105,7.878 2.280,7.562 2.622 C 7.253 2.957,7.112 3.359,7.042 4.100 C 7.014 4.388,7.000 7.419,7.000 12.890 L 7.000 21.240 6.260 21.240 L 5.520 21.240 5.520 18.000 L 5.520 14.760 4.950 14.759 C 4.320 14.758,4.158 14.715,3.953 14.495 C 3.691 14.215,3.691 13.783,3.953 13.506 C 4.158 13.290,4.251 13.264,4.910 13.247 L 5.520 13.231 5.520 12.496 L 5.520 11.760 4.950 11.759 C 4.320 11.758,4.158 11.715,3.953 11.495 C 3.691 11.215,3.691 10.783,3.953 10.506 C 4.158 10.290,4.251 10.264,4.910 10.247 L 5.520 10.231 5.520 9.496 L 5.520 8.760 4.950 8.759 C 4.481 8.758,4.352 8.745,4.220 8.684 C 3.925 8.547,3.760 8.303,3.760 8.000 C 3.760 7.799,3.819 7.647,3.953 7.506 C 4.158 7.290,4.251 7.264,4.910 7.247 L 5.520 7.231 5.520 6.110 L 5.520 4.988 4.910 5.015 C 3.888 5.060,3.503 5.184,3.084 5.602 C 2.687 5.999,2.579 6.311,2.520 7.220 C 2.499 7.562,2.482 10.698,2.481 14.524 L 2.480 21.229 2.120 21.249 C 1.816 21.267,1.733 21.287,1.598 21.377 C 1.311 21.566,1.193 21.876,1.281 22.204 C 1.340 22.422,1.569 22.657,1.781 22.715 C 2.007 22.778,21.993 22.778,22.219 22.715 C 22.431 22.657,22.660 22.422,22.719 22.204 C 22.807 21.876,22.689 21.566,22.402 21.377 C 22.267 21.287,22.184 21.267,21.880 21.249 L 21.520 21.229 21.519 14.524 C 21.518 10.698,21.501 7.562,21.480 7.220 C 21.421 6.311,21.313 5.999,20.916 5.602 C 20.497 5.184,20.112 5.060,19.090 5.015 L 18.480 4.988 18.480 6.110 L 18.480 7.231 19.090 7.247 C 19.553 7.259,19.729 7.279,19.820 7.328 C 20.402 7.642,20.379 8.407,19.780 8.684 C 19.648 8.745,19.519 8.758,19.050 8.759 L 18.480 8.760 18.480 9.496 L 18.480 10.231 19.090 10.247 C 19.553 10.259,19.729 10.279,19.820 10.328 C 20.402 10.642,20.379 11.407,19.780 11.684 C 19.648 11.745,19.519 11.758,19.050 11.759 L 18.480 11.760 18.480 12.496 L 18.480 13.231 19.090 13.247 C 19.553 13.259,19.729 13.279,19.820 13.328 C 20.402 13.642,20.379 14.407,19.780 14.684 C 19.648 14.745,19.519 14.758,19.050 14.759 L 18.480 14.760 18.480 18.000 L 18.480 21.240 17.741 21.240 L 17.002 21.240 16.990 12.590 L 16.977 3.940 16.892 3.572 C 16.745 2.935,16.466 2.536,16.004 2.302 C 15.722 2.159,15.388 2.089,14.759 2.041 C 14.132 1.993,9.782 1.996,9.153 2.044 M12.405 4.381 C 12.485 4.432,12.593 4.543,12.645 4.627 C 12.734 4.771,12.741 4.824,12.754 5.506 L 12.768 6.232 13.497 6.246 C 14.210 6.260,14.230 6.262,14.388 6.367 C 14.628 6.526,14.733 6.721,14.733 7.007 C 14.733 7.203,14.714 7.271,14.616 7.409 C 14.403 7.713,14.320 7.738,13.494 7.753 L 12.768 7.766 12.754 8.500 L 12.740 9.233 12.619 9.405 C 12.453 9.642,12.273 9.739,12.000 9.739 C 11.727 9.739,11.547 9.642,11.381 9.405 L 11.260 9.233 11.246 8.500 L 11.232 7.766 10.506 7.753 C 9.680 7.738,9.597 7.713,9.384 7.409 C 9.286 7.271,9.267 7.203,9.267 7.007 C 9.267 6.721,9.372 6.526,9.612 6.367 C 9.770 6.262,9.790 6.260,10.503 6.246 L 11.232 6.232 11.246 5.506 C 11.259 4.829,11.266 4.770,11.353 4.631 C 11.586 4.256,12.044 4.147,12.405 4.381 M14.373 11.355 C 14.615 11.506,14.733 11.718,14.733 12.003 C 14.733 12.203,14.714 12.270,14.616 12.409 C 14.552 12.501,14.436 12.613,14.359 12.658 C 14.223 12.738,14.165 12.740,12.000 12.740 C 9.835 12.740,9.777 12.738,9.641 12.658 C 9.564 12.613,9.448 12.501,9.384 12.409 C 9.098 12.003,9.329 11.396,9.815 11.277 C 9.884 11.260,10.903 11.250,12.080 11.253 L 14.220 11.260 14.373 11.355 M14.373 14.355 C 14.615 14.506,14.733 14.718,14.733 15.003 C 14.733 15.203,14.714 15.270,14.616 15.409 C 14.552 15.501,14.436 15.613,14.359 15.658 C 14.223 15.738,14.165 15.740,12.000 15.740 C 9.835 15.740,9.777 15.738,9.641 15.658 C 9.564 15.613,9.448 15.501,9.384 15.409 C 9.098 15.003,9.329 14.396,9.815 14.277 C 9.884 14.260,10.903 14.250,12.080 14.253 L 14.220 14.260 14.373 14.355 M12.405 18.381 C 12.485 18.432,12.593 18.543,12.645 18.627 C 12.739 18.778,12.740 18.796,12.753 20.010 L 12.765 21.240 12.000 21.240 L 11.235 21.240 11.247 20.010 C 11.260 18.804,11.262 18.777,11.353 18.631 C 11.586 18.256,12.044 18.147,12.405 18.381 " fill="#1C274C" stroke="none" fill-rule="evenodd"></path></svg>