<svg width="24" height="24" viewBox="0 0 24 24" fill="none" xmlns="http://www.w3.org/2000/svg"><path d="M8.786 2.043 C 7.017 2.114,6.072 2.345,5.552 2.832 C 5.306 3.061,5.192 3.255,5.078 3.635 C 4.859 4.363,5.136 5.165,6.014 6.349 C 6.617 7.163,7.426 8.091,9.711 10.589 L 11.002 12.001 9.950 13.150 C 8.598 14.628,7.515 15.830,7.057 16.360 C 5.316 18.376,4.796 19.428,5.078 20.365 C 5.192 20.745,5.306 20.939,5.552 21.168 C 5.998 21.586,6.676 21.795,8.020 21.928 C 8.758 22.002,15.242 22.002,15.980 21.928 C 17.324 21.795,18.002 21.586,18.448 21.168 C 18.694 20.939,18.808 20.745,18.922 20.365 C 19.143 19.631,18.858 18.816,17.966 17.626 C 17.320 16.764,16.495 15.821,14.050 13.150 L 12.998 12.001 14.306 10.570 C 17.698 6.860,18.440 5.931,18.836 4.900 C 18.958 4.584,18.975 4.494,18.977 4.160 C 18.981 3.640,18.843 3.254,18.535 2.922 C 18.006 2.351,17.122 2.125,15.080 2.041 C 14.004 1.996,9.910 1.998,8.786 2.043 M14.267 4.803 C 14.540 4.905,14.731 5.193,14.731 5.500 C 14.731 5.807,14.540 6.095,14.267 6.197 C 14.193 6.226,13.425 6.240,12.000 6.240 C 10.575 6.240,9.807 6.226,9.733 6.197 C 9.460 6.095,9.269 5.807,9.269 5.500 C 9.269 5.200,9.458 4.909,9.720 4.805 C 9.862 4.748,14.119 4.746,14.267 4.803 M14.267 17.803 C 14.540 17.905,14.731 18.193,14.731 18.500 C 14.731 18.807,14.540 19.095,14.267 19.197 C 14.193 19.226,13.425 19.240,12.000 19.240 C 10.575 19.240,9.807 19.226,9.733 19.197 C 9.460 19.095,9.269 18.807,9.269 18.500 C 9.269 18.200,9.458 17.909,9.720 17.805 C 9.862 17.748,14.119 17.746,14.267 17.803 " fill="#1C274C" stroke="none" fill-rule="evenodd"></path></svg>