<svg width="24" height="24" viewBox="0 0 24 24" fill="none" xmlns="http://www.w3.org/2000/svg"><path d="M11.811 3.278 C 11.639 3.320,11.417 3.493,11.330 3.652 C 11.265 3.771,11.259 4.078,11.240 7.970 L 11.220 12.161 10.360 11.298 C 9.887 10.824,9.439 10.398,9.364 10.351 C 9.267 10.290,9.164 10.267,8.997 10.267 C 8.492 10.267,8.151 10.713,8.280 11.205 C 8.321 11.361,8.505 11.559,9.933 12.993 C 10.817 13.880,11.594 14.635,11.660 14.671 C 11.730 14.709,11.872 14.736,12.000 14.736 C 12.128 14.736,12.270 14.709,12.340 14.671 C 12.406 14.635,13.183 13.880,14.067 12.993 C 15.495 11.559,15.679 11.361,15.720 11.205 C 15.849 10.713,15.508 10.267,15.003 10.267 C 14.836 10.267,14.733 10.290,14.636 10.351 C 14.561 10.398,14.113 10.824,13.640 11.298 L 12.780 12.161 12.760 7.970 C 12.740 3.838,12.739 3.778,12.658 3.641 C 12.494 3.361,12.122 3.202,11.811 3.278 M4.016 12.408 C 4.158 14.542,4.991 16.351,6.489 17.783 C 7.683 18.924,9.166 19.653,10.814 19.907 C 11.362 19.992,12.534 20.001,13.080 19.925 C 15.352 19.609,17.391 18.327,18.659 16.417 C 19.452 15.223,19.882 13.926,19.982 12.426 L 20.011 11.996 18.735 12.008 L 17.458 12.020 17.179 12.156 C 16.924 12.280,16.748 12.443,15.140 14.042 C 14.172 15.004,13.290 15.848,13.180 15.917 C 12.501 16.344,11.499 16.344,10.820 15.917 C 10.710 15.848,9.828 15.004,8.860 14.042 C 7.254 12.446,7.076 12.280,6.821 12.156 L 6.542 12.020 5.265 12.008 L 3.988 11.996 4.016 12.408 " fill="#1C274C" stroke="none" fill-rule="evenodd"></path></svg>