<svg width="24" height="24" viewBox="0 0 24 24" fill="none" xmlns="http://www.w3.org/2000/svg"><path d="M11.815 1.277 C 11.746 1.294,11.638 1.345,11.575 1.391 C 11.512 1.437,10.755 2.182,9.893 3.047 C 8.502 4.444,8.321 4.640,8.280 4.795 C 8.130 5.366,8.635 5.870,9.205 5.719 C 9.357 5.679,9.504 5.549,10.310 4.748 L 11.240 3.822 11.240 6.941 C 11.240 9.093,11.254 10.109,11.285 10.219 C 11.344 10.432,11.578 10.660,11.798 10.719 C 12.198 10.827,12.610 10.599,12.718 10.209 C 12.745 10.112,12.760 8.963,12.760 6.941 L 12.760 3.822 13.690 4.748 C 14.496 5.549,14.643 5.679,14.795 5.719 C 15.365 5.870,15.870 5.366,15.720 4.795 C 15.679 4.639,15.497 4.443,14.087 3.028 C 13.214 2.152,12.446 1.403,12.380 1.362 C 12.235 1.273,11.985 1.235,11.815 1.277 M7.840 2.066 C 5.520 2.226,4.448 2.559,3.543 3.405 C 2.736 4.158,2.324 5.195,2.142 6.927 C 2.060 7.710,2.001 9.386,2.000 10.950 L 2.000 12.240 3.990 12.240 C 5.085 12.241,6.142 12.258,6.340 12.280 C 7.016 12.355,7.471 12.561,7.951 13.012 C 8.072 13.126,8.546 13.654,9.003 14.185 C 9.966 15.303,10.174 15.519,10.381 15.618 C 10.780 15.807,13.220 15.807,13.619 15.618 C 13.825 15.520,14.013 15.325,14.988 14.195 C 15.450 13.659,15.928 13.126,16.050 13.012 C 16.529 12.562,16.984 12.355,17.660 12.280 C 17.858 12.258,18.916 12.241,20.010 12.240 L 22.000 12.240 22.000 10.950 C 21.999 7.407,21.818 5.730,21.317 4.613 C 20.940 3.773,20.224 3.059,19.379 2.679 C 18.587 2.324,17.443 2.122,15.860 2.057 L 15.220 2.030 16.006 2.825 C 16.438 3.262,16.848 3.710,16.917 3.820 C 17.119 4.141,17.240 4.584,17.240 5.000 C 17.240 6.248,16.250 7.241,15.008 7.240 C 14.817 7.239,14.566 7.214,14.450 7.183 L 14.240 7.127 14.240 8.702 C 14.240 9.689,14.224 10.355,14.196 10.488 C 14.029 11.294,13.294 12.029,12.488 12.196 C 12.217 12.252,11.783 12.252,11.512 12.196 C 10.706 12.029,9.971 11.294,9.804 10.488 C 9.776 10.355,9.760 9.689,9.760 8.702 L 9.760 7.127 9.550 7.183 C 9.434 7.214,9.183 7.239,8.992 7.240 C 7.485 7.242,6.405 5.769,6.859 4.332 C 6.913 4.160,7.014 3.930,7.083 3.820 C 7.152 3.710,7.561 3.264,7.993 2.830 L 8.777 2.040 8.399 2.047 C 8.190 2.051,7.939 2.060,7.840 2.066 M2.000 14.048 C 2.001 14.731,2.086 16.538,2.142 17.073 C 2.356 19.108,2.927 20.277,4.069 21.016 C 5.314 21.821,6.750 21.999,12.000 21.999 C 17.310 21.999,18.722 21.819,19.979 20.981 C 21.091 20.241,21.647 19.085,21.858 17.073 C 21.914 16.538,21.999 14.731,22.000 14.048 L 22.000 13.756 19.790 13.768 C 17.327 13.781,17.449 13.768,17.118 14.066 C 17.025 14.151,16.569 14.661,16.105 15.200 C 15.141 16.321,14.956 16.514,14.609 16.771 C 14.058 17.176,13.702 17.240,12.004 17.240 C 10.668 17.240,10.416 17.220,9.972 17.075 C 9.419 16.896,9.114 16.620,7.894 15.200 C 7.431 14.661,6.975 14.151,6.882 14.066 C 6.551 13.768,6.673 13.781,4.210 13.768 L 2.000 13.756 2.000 14.048 " fill="#1C274C" stroke="none" fill-rule="evenodd"></path></svg>