<svg width="24" height="24" viewBox="0 0 24 24" fill="none" xmlns="http://www.w3.org/2000/svg"><path d="M8.456 2.042 C 5.720 2.141,4.373 2.534,3.435 3.507 C 2.307 4.677,2.002 6.261,2.000 10.950 L 2.000 12.240 3.990 12.240 C 5.085 12.241,6.142 12.258,6.340 12.280 C 7.016 12.355,7.471 12.561,7.951 13.012 C 8.072 13.126,8.546 13.654,9.003 14.185 C 9.966 15.303,10.174 15.519,10.381 15.618 C 10.780 15.807,13.220 15.807,13.619 15.618 C 13.825 15.520,14.013 15.325,14.988 14.195 C 15.450 13.659,15.928 13.126,16.050 13.012 C 16.529 12.562,16.984 12.355,17.660 12.280 C 17.858 12.258,18.916 12.241,20.010 12.240 L 22.000 12.240 22.000 10.826 C 22.000 10.048,21.989 9.328,21.975 9.227 L 21.950 9.043 21.771 9.166 C 21.321 9.476,20.514 9.803,19.900 9.925 C 19.533 9.997,18.469 9.997,18.100 9.925 C 17.380 9.784,16.657 9.473,16.077 9.055 C 15.709 8.790,15.169 8.245,14.907 7.874 C 14.520 7.327,14.211 6.593,14.075 5.900 C 14.003 5.531,14.003 4.467,14.075 4.100 C 14.197 3.486,14.524 2.679,14.834 2.229 L 14.957 2.050 14.808 2.025 C 14.607 1.992,9.461 2.005,8.456 2.042 M18.400 2.066 C 17.802 2.183,17.123 2.589,16.703 3.080 C 15.987 3.917,15.806 5.100,16.234 6.151 C 16.521 6.857,17.143 7.479,17.849 7.766 C 19.611 8.483,21.553 7.446,21.938 5.581 C 22.366 3.511,20.498 1.656,18.400 2.066 M2.000 14.048 C 2.001 14.731,2.086 16.538,2.142 17.073 C 2.356 19.108,2.927 20.277,4.069 21.016 C 5.314 21.821,6.750 21.999,12.000 21.999 C 17.310 21.999,18.722 21.819,19.979 20.981 C 21.091 20.241,21.647 19.085,21.858 17.073 C 21.914 16.538,21.999 14.731,22.000 14.048 L 22.000 13.756 19.790 13.768 C 17.327 13.781,17.449 13.768,17.118 14.066 C 17.025 14.151,16.569 14.661,16.105 15.200 C 15.141 16.321,14.956 16.514,14.609 16.771 C 14.058 17.176,13.702 17.240,12.004 17.240 C 10.668 17.240,10.416 17.220,9.972 17.075 C 9.419 16.896,9.114 16.620,7.894 15.200 C 7.431 14.661,6.975 14.151,6.882 14.066 C 6.551 13.768,6.673 13.781,4.210 13.768 L 2.000 13.756 2.000 14.048 " fill="#1C274C" stroke="none" fill-rule="evenodd"></path></svg>