<svg width="24" height="24" viewBox="0 0 24 24" fill="none" xmlns="http://www.w3.org/2000/svg"><path d="M8.419 2.043 C 5.807 2.139,4.481 2.507,3.549 3.393 C 2.551 4.342,2.166 5.587,2.041 8.260 C 1.988 9.399,1.988 14.601,2.041 15.740 C 2.160 18.285,2.507 19.501,3.379 20.433 C 4.326 21.446,5.580 21.837,8.280 21.959 C 9.445 22.011,14.555 22.011,15.720 21.959 C 18.275 21.843,19.498 21.496,20.433 20.621 C 21.360 19.755,21.742 18.682,21.927 16.420 C 22.002 15.512,22.002 8.488,21.927 7.580 C 21.743 5.332,21.366 4.263,20.451 3.393 C 19.495 2.484,18.240 2.146,15.417 2.041 C 14.194 1.995,9.686 1.997,8.419 2.043 M18.100 6.132 C 18.416 6.279,18.725 6.587,18.866 6.896 C 18.972 7.126,18.979 7.178,18.993 7.810 C 19.003 8.258,18.994 8.480,18.966 8.480 C 18.943 8.480,18.913 8.462,18.899 8.439 C 18.860 8.375,18.441 8.175,18.178 8.093 C 17.952 8.024,17.649 8.020,12.000 8.020 C 5.323 8.020,5.902 7.994,5.286 8.324 L 4.992 8.481 5.007 7.811 C 5.020 7.177,5.027 7.127,5.133 6.900 C 5.324 6.487,5.734 6.142,6.150 6.043 C 6.235 6.023,8.802 6.010,12.080 6.014 L 17.860 6.020 18.100 6.132 M18.100 9.132 C 18.416 9.279,18.725 9.587,18.866 9.896 C 18.972 10.126,18.979 10.178,18.993 10.810 C 19.003 11.258,18.994 11.480,18.966 11.480 C 18.943 11.480,18.913 11.462,18.899 11.439 C 18.860 11.375,18.441 11.175,18.178 11.093 C 17.952 11.024,17.649 11.020,12.000 11.020 C 5.323 11.020,5.902 10.994,5.286 11.324 L 4.992 11.481 5.007 10.811 C 5.020 10.177,5.027 10.127,5.133 9.900 C 5.324 9.487,5.734 9.142,6.150 9.043 C 6.235 9.023,8.802 9.010,12.080 9.014 L 17.860 9.020 18.100 9.132 M18.089 12.127 C 18.396 12.271,18.692 12.557,18.839 12.851 C 18.957 13.086,18.960 13.109,18.960 13.662 L 18.960 14.232 19.590 14.246 C 20.170 14.259,20.232 14.268,20.373 14.355 C 20.615 14.506,20.733 14.718,20.733 15.003 C 20.733 15.203,20.714 15.270,20.616 15.409 C 20.376 15.751,20.463 15.737,18.360 15.760 L 16.500 15.780 16.301 15.878 C 16.164 15.945,15.846 16.226,15.281 16.779 C 14.362 17.677,14.241 17.780,13.900 17.952 C 13.409 18.199,13.321 18.213,12.094 18.230 C 10.759 18.249,10.492 18.215,9.960 17.957 C 9.636 17.799,9.577 17.748,8.700 16.857 C 8.085 16.233,7.727 15.899,7.620 15.852 C 7.476 15.787,7.275 15.778,5.620 15.760 C 3.540 15.737,3.624 15.751,3.384 15.409 C 3.286 15.271,3.267 15.203,3.267 15.007 C 3.267 14.721,3.372 14.526,3.612 14.367 C 3.768 14.264,3.799 14.259,4.407 14.246 L 5.040 14.232 5.040 13.666 C 5.040 13.126,5.045 13.089,5.154 12.860 C 5.335 12.479,5.751 12.138,6.149 12.043 C 6.235 12.023,8.790 12.010,12.080 12.014 L 17.860 12.020 18.089 12.127 " fill="#1C274C" stroke="none" fill-rule="evenodd"></path></svg>