<svg width="24" height="24" viewBox="0 0 24 24" fill="none" xmlns="http://www.w3.org/2000/svg"><path d="M11.811 1.278 C 11.639 1.320,11.417 1.493,11.330 1.652 C 11.265 1.770,11.258 2.031,11.240 4.970 L 11.220 8.161 10.360 7.298 C 9.887 6.824,9.439 6.398,9.364 6.351 C 9.267 6.290,9.164 6.267,8.997 6.267 C 8.492 6.267,8.151 6.713,8.280 7.205 C 8.321 7.361,8.505 7.559,9.933 8.993 C 10.817 9.880,11.594 10.635,11.660 10.671 C 11.730 10.709,11.872 10.736,12.000 10.736 C 12.128 10.736,12.270 10.709,12.340 10.671 C 12.406 10.635,13.183 9.880,14.067 8.993 C 15.495 7.559,15.679 7.361,15.720 7.205 C 15.849 6.713,15.508 6.267,15.003 6.267 C 14.836 6.267,14.733 6.290,14.636 6.351 C 14.561 6.398,14.113 6.824,13.640 7.298 L 12.780 8.161 12.760 4.970 C 12.740 1.846,12.738 1.777,12.658 1.641 C 12.494 1.361,12.122 1.202,11.811 1.278 M8.440 2.042 C 5.785 2.139,4.501 2.500,3.523 3.422 C 2.898 4.012,2.498 4.826,2.280 5.952 C 2.097 6.895,2.001 8.608,2.000 10.950 L 2.000 12.240 3.990 12.240 C 5.085 12.241,6.142 12.258,6.340 12.280 C 7.016 12.355,7.471 12.561,7.951 13.012 C 8.072 13.126,8.546 13.654,9.003 14.185 C 9.966 15.303,10.174 15.519,10.381 15.618 C 10.780 15.807,13.220 15.807,13.619 15.618 C 13.825 15.520,14.013 15.325,14.988 14.195 C 15.450 13.659,15.928 13.126,16.050 13.012 C 16.529 12.562,16.984 12.355,17.660 12.280 C 17.858 12.258,18.916 12.241,20.010 12.240 L 22.000 12.240 22.000 10.950 C 21.998 6.788,21.764 5.197,20.979 4.017 C 20.247 2.917,19.068 2.352,17.067 2.141 C 16.453 2.077,14.333 1.987,14.274 2.024 C 14.255 2.035,14.240 2.681,14.240 3.459 L 14.240 4.873 14.450 4.817 C 14.566 4.786,14.817 4.761,15.008 4.760 C 15.991 4.759,16.842 5.384,17.139 6.326 C 17.339 6.957,17.239 7.694,16.882 8.226 C 16.793 8.359,15.988 9.194,15.013 10.164 C 13.487 11.682,13.272 11.882,13.040 11.994 C 12.278 12.360,11.390 12.310,10.745 11.865 C 10.632 11.787,9.773 10.953,8.836 10.012 C 7.320 8.489,7.117 8.271,7.004 8.038 C 6.825 7.670,6.761 7.394,6.760 6.992 C 6.759 5.753,7.753 4.759,8.992 4.760 C 9.183 4.761,9.435 4.786,9.551 4.817 L 9.761 4.873 9.751 3.447 L 9.740 2.020 9.520 2.015 C 9.399 2.013,8.913 2.025,8.440 2.042 M2.000 14.048 C 2.001 14.731,2.086 16.538,2.142 17.073 C 2.356 19.108,2.927 20.277,4.069 21.016 C 5.314 21.821,6.750 21.999,12.000 21.999 C 17.310 21.999,18.722 21.819,19.979 20.981 C 21.091 20.241,21.647 19.085,21.858 17.073 C 21.914 16.538,21.999 14.731,22.000 14.048 L 22.000 13.756 19.790 13.768 C 17.327 13.781,17.449 13.768,17.118 14.066 C 17.025 14.151,16.569 14.661,16.105 15.200 C 15.141 16.321,14.956 16.514,14.609 16.771 C 14.058 17.176,13.702 17.240,12.004 17.240 C 10.668 17.240,10.416 17.220,9.972 17.075 C 9.419 16.896,9.114 16.620,7.894 15.200 C 7.431 14.661,6.975 14.151,6.882 14.066 C 6.551 13.768,6.673 13.781,4.210 13.768 L 2.000 13.756 2.000 14.048 " fill="#1C274C" stroke="none" fill-rule="evenodd"></path></svg>