<svg width="24" height="24" viewBox="0 0 24 24" fill="none" xmlns="http://www.w3.org/2000/svg"><path d="M8.456 2.042 C 5.720 2.141,4.373 2.534,3.435 3.507 C 2.307 4.677,2.002 6.261,2.000 10.950 L 2.000 12.240 3.990 12.240 C 5.085 12.241,6.142 12.258,6.340 12.280 C 7.016 12.355,7.471 12.561,7.951 13.012 C 8.072 13.126,8.546 13.654,9.003 14.185 C 9.966 15.303,10.174 15.519,10.381 15.618 C 10.780 15.807,13.220 15.807,13.619 15.618 C 13.825 15.520,14.013 15.325,14.988 14.195 C 15.450 13.659,15.928 13.126,16.050 13.012 C 16.529 12.562,16.984 12.355,17.660 12.280 C 17.858 12.258,18.916 12.241,20.010 12.240 L 22.000 12.240 22.000 10.950 C 21.999 7.940,21.867 6.305,21.538 5.213 C 21.116 3.814,20.186 2.884,18.787 2.462 C 17.973 2.217,17.058 2.102,15.417 2.041 C 14.217 1.996,9.702 1.997,8.456 2.042 M14.267 9.803 C 14.516 9.896,14.758 10.241,14.758 10.500 C 14.758 10.789,14.457 11.172,14.191 11.220 C 14.119 11.233,13.087 11.238,11.897 11.232 L 9.734 11.220 9.586 11.120 C 9.422 11.009,9.240 10.689,9.240 10.511 C 9.240 10.256,9.460 9.924,9.700 9.817 C 9.855 9.748,14.087 9.734,14.267 9.803 M2.000 14.308 C 2.001 15.100,2.072 16.531,2.143 17.160 C 2.333 18.848,2.748 19.856,3.567 20.621 C 4.502 21.496,5.725 21.843,8.280 21.959 C 9.445 22.011,14.555 22.011,15.720 21.959 C 18.275 21.843,19.498 21.496,20.433 20.621 C 21.540 19.586,21.901 18.246,21.985 14.864 L 22.013 13.756 19.796 13.768 C 17.326 13.781,17.449 13.768,17.118 14.066 C 17.025 14.151,16.572 14.656,16.112 15.190 C 14.902 16.595,14.664 16.818,14.156 17.025 C 13.707 17.208,13.413 17.237,12.000 17.237 C 10.587 17.237,10.293 17.208,9.844 17.025 C 9.336 16.818,9.098 16.595,7.888 15.190 C 7.428 14.656,6.975 14.151,6.882 14.066 C 6.551 13.768,6.673 13.781,4.210 13.768 L 2.000 13.756 2.000 14.308 " fill="#1C274C" stroke="none" fill-rule="evenodd"></path></svg>