<svg width="24" height="24" viewBox="0 0 24 24" fill="none" xmlns="http://www.w3.org/2000/svg"><path d="M8.275 4.044 C 6.949 4.129,6.235 4.458,5.725 5.220 C 5.361 5.764,5.122 6.497,4.522 8.907 L 4.192 10.235 2.983 10.247 L 1.774 10.260 1.605 10.372 C 1.311 10.566,1.192 10.873,1.281 11.204 C 1.340 11.422,1.569 11.657,1.781 11.715 C 2.007 11.778,21.993 11.778,22.219 11.715 C 22.431 11.657,22.660 11.422,22.719 11.204 C 22.808 10.873,22.689 10.566,22.395 10.372 L 22.226 10.260 21.017 10.247 L 19.808 10.235 19.478 8.907 C 18.878 6.497,18.639 5.764,18.275 5.220 C 17.749 4.434,17.072 4.134,15.618 4.041 C 14.876 3.994,9.024 3.996,8.275 4.044 M5.875 14.060 C 4.554 14.311,3.533 15.238,3.133 16.548 C 3.038 16.863,3.026 16.963,3.026 17.500 C 3.026 18.037,3.038 18.137,3.133 18.452 C 3.500 19.656,4.341 20.496,5.548 20.867 C 5.865 20.965,5.960 20.975,6.500 20.974 C 7.034 20.973,7.138 20.962,7.452 20.866 C 8.054 20.683,8.476 20.440,8.915 20.022 C 9.325 19.632,9.649 19.125,9.818 18.608 L 9.888 18.397 10.480 18.100 C 11.319 17.680,11.488 17.627,12.000 17.627 C 12.512 17.627,12.681 17.680,13.520 18.100 L 14.112 18.397 14.182 18.608 C 14.535 19.686,15.408 20.520,16.548 20.866 C 16.862 20.962,16.966 20.973,17.500 20.974 C 18.040 20.975,18.135 20.965,18.452 20.867 C 19.659 20.496,20.500 19.656,20.867 18.452 C 20.962 18.137,20.974 18.037,20.974 17.500 C 20.974 16.963,20.962 16.863,20.867 16.548 C 20.663 15.882,20.356 15.387,19.862 14.932 C 18.136 13.341,15.359 13.879,14.342 16.001 C 14.267 16.157,14.183 16.375,14.155 16.485 C 14.095 16.717,14.137 16.719,13.572 16.461 C 13.061 16.228,12.568 16.121,12.000 16.121 C 11.432 16.121,10.939 16.228,10.428 16.461 C 9.863 16.719,9.905 16.717,9.845 16.485 C 9.621 15.611,8.842 14.726,7.934 14.314 C 7.335 14.043,6.504 13.940,5.875 14.060 " fill="#1C274C" stroke="none" fill-rule="evenodd"></path></svg>