<svg width="24" height="24" viewBox="0 0 24 24" fill="none" xmlns="http://www.w3.org/2000/svg"><path d="M7.245 4.045 C 6.923 4.099,6.508 4.254,6.208 4.434 C 5.290 4.983,4.405 6.168,4.113 7.240 C 4.030 7.544,4.020 7.663,4.023 8.360 C 4.026 9.272,4.095 9.812,4.320 10.700 C 4.836 12.732,5.931 14.571,7.659 16.303 C 9.403 18.052,11.260 19.164,13.298 19.680 C 14.189 19.905,14.728 19.974,15.640 19.977 C 16.337 19.980,16.456 19.970,16.760 19.887 C 17.966 19.558,19.263 18.514,19.721 17.503 C 19.912 17.083,19.974 16.784,19.976 16.280 C 19.979 15.592,19.815 15.094,19.420 14.590 C 19.175 14.279,18.918 14.095,18.049 13.613 C 17.190 13.136,16.931 13.042,16.400 13.013 C 15.624 12.970,14.922 13.231,14.254 13.808 C 13.437 14.515,12.357 14.252,11.105 13.042 C 10.432 12.390,9.997 11.730,9.861 11.153 C 9.723 10.570,9.823 10.183,10.236 9.686 C 10.555 9.303,10.753 8.948,10.886 8.520 C 11.022 8.081,11.018 7.340,10.878 6.939 C 10.755 6.588,10.018 5.255,9.777 4.947 C 9.225 4.244,8.215 3.884,7.245 4.045 M18.900 4.259 C 18.878 4.267,18.806 4.285,18.740 4.299 C 18.652 4.319,18.238 4.707,17.190 5.752 L 15.760 7.177 15.760 6.611 C 15.760 5.882,15.717 5.677,15.522 5.482 C 15.173 5.133,14.619 5.203,14.353 5.631 L 14.260 5.780 14.260 7.507 L 14.260 9.233 14.380 9.403 C 14.446 9.496,14.572 9.610,14.660 9.656 C 14.813 9.736,14.888 9.741,16.373 9.752 C 18.166 9.766,18.287 9.753,18.519 9.521 C 18.918 9.122,18.731 8.423,18.189 8.286 C 18.087 8.261,17.739 8.240,17.414 8.240 L 16.823 8.240 18.247 6.810 C 19.603 5.449,19.673 5.371,19.711 5.189 C 19.782 4.847,19.658 4.530,19.389 4.367 C 19.265 4.292,18.983 4.229,18.900 4.259 " stroke="none" fill-rule="evenodd" fill="black"></path></svg>