<svg width="24" height="24" viewBox="0 0 24 24" fill="none" xmlns="http://www.w3.org/2000/svg"><path d="M6.280 3.044 C 6.007 3.097,5.564 3.332,5.334 3.547 C 4.976 3.881,3.581 5.375,3.453 5.561 C 2.988 6.240,2.921 6.728,3.124 7.979 C 3.587 10.835,5.312 13.900,8.020 16.674 C 10.376 19.089,12.892 20.486,15.640 20.906 C 16.225 20.995,17.552 21.006,17.880 20.925 C 18.310 20.818,18.628 20.615,19.084 20.156 C 20.023 19.209,20.619 18.538,20.751 18.277 C 21.022 17.741,21.060 17.133,20.860 16.537 C 20.697 16.051,20.384 15.640,19.980 15.382 C 19.585 15.130,17.816 14.132,17.640 14.061 C 17.531 14.018,17.308 13.982,17.074 13.970 C 16.756 13.953,16.639 13.965,16.409 14.034 C 16.041 14.146,15.698 14.381,15.369 14.747 C 15.221 14.912,15.033 15.081,14.950 15.124 C 14.475 15.370,13.704 15.183,12.848 14.613 C 12.368 14.294,12.027 14.002,11.367 13.348 C 10.378 12.366,9.793 11.609,9.382 10.780 C 9.078 10.166,8.981 9.807,9.008 9.390 C 9.031 9.035,9.099 8.897,9.416 8.559 C 9.878 8.066,10.061 7.571,10.030 6.900 C 10.007 6.430,9.899 6.102,9.635 5.711 C 9.064 4.864,8.198 3.690,8.038 3.546 C 7.557 3.114,6.895 2.925,6.280 3.044 M18.900 4.259 C 18.878 4.267,18.806 4.285,18.740 4.299 C 18.652 4.319,18.238 4.707,17.190 5.752 L 15.760 7.177 15.760 6.611 C 15.760 5.882,15.717 5.677,15.522 5.482 C 15.173 5.133,14.619 5.203,14.353 5.631 L 14.260 5.780 14.260 7.507 L 14.260 9.233 14.380 9.403 C 14.446 9.496,14.572 9.610,14.660 9.656 C 14.813 9.736,14.888 9.741,16.373 9.752 C 18.166 9.766,18.287 9.753,18.519 9.521 C 18.918 9.122,18.731 8.423,18.189 8.286 C 18.087 8.261,17.739 8.240,17.414 8.240 L 16.823 8.240 18.247 6.810 C 19.603 5.449,19.673 5.371,19.711 5.189 C 19.782 4.847,19.658 4.530,19.389 4.367 C 19.265 4.292,18.983 4.229,18.900 4.259 " stroke="none" fill-rule="evenodd" fill="black"></path></svg>