<svg width="24" height="24" viewBox="0 0 24 24" fill="none" xmlns="http://www.w3.org/2000/svg"><path d="M6.473 6.280 C 3.892 6.526,1.802 8.445,1.334 11.000 C 1.239 11.515,1.239 12.485,1.334 13.000 C 1.769 15.371,3.636 17.239,6.000 17.665 C 6.473 17.751,7.459 17.761,7.880 17.685 C 9.155 17.455,10.086 16.816,10.914 15.605 C 11.306 15.030,11.553 14.572,12.738 12.209 C 13.881 9.931,14.214 9.337,14.627 8.831 C 15.016 8.356,15.534 8.006,16.063 7.861 C 16.395 7.770,17.190 7.738,17.603 7.798 C 19.687 8.103,21.240 9.897,21.240 12.000 C 21.240 14.028,19.827 15.751,17.826 16.164 C 17.488 16.233,17.326 16.244,16.860 16.228 C 15.988 16.198,15.363 15.999,14.614 15.514 C 14.262 15.286,14.215 15.267,13.999 15.264 C 13.801 15.261,13.740 15.279,13.595 15.381 C 13.357 15.548,13.261 15.727,13.261 16.004 C 13.261 16.326,13.391 16.503,13.848 16.803 C 14.489 17.224,15.247 17.528,16.000 17.666 C 16.510 17.760,17.481 17.760,18.000 17.666 C 20.366 17.236,22.235 15.367,22.666 13.000 C 22.759 12.486,22.759 11.514,22.666 11.000 C 22.233 8.621,20.351 6.750,17.980 6.339 C 17.498 6.256,16.596 6.245,16.140 6.317 C 15.181 6.469,14.247 6.980,13.629 7.690 C 12.980 8.437,12.756 8.823,11.319 11.680 C 9.851 14.599,9.517 15.147,8.907 15.641 C 8.408 16.045,7.946 16.198,7.140 16.227 C 6.470 16.252,5.989 16.170,5.394 15.929 C 4.057 15.389,3.070 14.161,2.819 12.725 C 2.417 10.433,3.976 8.221,6.275 7.819 C 7.364 7.628,8.515 7.888,9.468 8.541 C 9.606 8.636,9.789 8.725,9.875 8.739 C 10.363 8.822,10.827 8.363,10.741 7.884 C 10.680 7.547,10.322 7.241,9.523 6.841 C 8.639 6.398,7.476 6.184,6.473 6.280 " fill="#1C274C" stroke="none" fill-rule="evenodd"></path></svg>