<svg width="24" height="24" viewBox="0 0 24 24" fill="none" xmlns="http://www.w3.org/2000/svg"><path d="M11.120 2.039 C 9.316 2.220,7.707 2.807,6.280 3.806 C 2.738 6.286,1.178 10.759,2.422 14.865 C 2.918 16.499,3.728 17.850,4.939 19.061 C 5.928 20.050,7.038 20.788,8.272 21.278 C 11.634 22.610,15.313 22.080,18.200 19.845 C 18.637 19.507,19.507 18.637,19.845 18.200 C 21.255 16.379,22.000 14.234,22.000 12.000 C 22.000 7.432,18.842 3.387,14.430 2.303 C 13.446 2.062,12.028 1.948,11.120 2.039 M12.340 7.066 C 12.709 7.192,13.000 7.604,13.000 8.000 C 13.000 8.527,12.527 9.000,12.000 9.000 C 11.758 9.000,11.479 8.881,11.299 8.701 C 10.907 8.309,10.908 7.690,11.300 7.298 C 11.577 7.020,11.957 6.936,12.340 7.066 M12.405 10.381 C 12.485 10.432,12.593 10.543,12.645 10.627 L 12.740 10.780 12.740 14.007 L 12.740 17.233 12.619 17.405 C 12.453 17.641,12.273 17.739,12.000 17.739 C 11.727 17.739,11.547 17.641,11.381 17.405 L 11.260 17.233 11.260 14.007 L 11.260 10.780 11.353 10.631 C 11.586 10.256,12.044 10.147,12.405 10.381 " fill="#1C274C" stroke="none" fill-rule="evenodd"></path></svg>