<svg width="24" height="24" viewBox="0 0 24 24" fill="none" xmlns="http://www.w3.org/2000/svg"><path d="M6.377 2.112 C 5.148 2.547,4.449 3.494,4.186 5.080 C 4.027 6.034,4.020 6.331,4.020 11.820 C 4.020 17.424,4.028 17.706,4.206 18.700 C 4.300 19.229,4.472 19.760,4.673 20.140 C 4.890 20.553,5.477 21.130,5.902 21.349 C 6.507 21.662,7.162 21.822,8.260 21.927 C 9.055 22.002,14.945 22.002,15.740 21.927 C 16.839 21.822,17.495 21.661,18.098 21.349 C 18.479 21.152,19.057 20.602,19.277 20.227 C 19.560 19.743,19.772 19.015,19.878 18.160 C 19.985 17.299,20.006 15.979,19.988 11.200 C 19.969 6.279,19.961 5.994,19.817 5.100 C 19.559 3.508,18.872 2.567,17.639 2.117 C 17.288 1.989,17.162 1.976,16.956 2.046 C 16.706 2.131,16.598 2.245,16.192 2.854 C 15.490 3.907,15.250 4.151,14.636 4.438 C 14.116 4.681,13.926 4.700,12.000 4.700 C 10.074 4.700,9.884 4.681,9.364 4.438 C 8.749 4.151,8.506 3.903,7.803 2.850 C 7.480 2.367,7.360 2.220,7.225 2.141 C 6.958 1.984,6.755 1.977,6.377 2.112 M15.267 18.283 C 15.329 18.306,15.431 18.373,15.494 18.433 C 15.865 18.784,15.799 19.376,15.360 19.634 L 15.180 19.740 12.000 19.740 L 8.820 19.740 8.646 19.640 C 8.316 19.451,8.164 18.978,8.331 18.659 C 8.408 18.510,8.589 18.337,8.720 18.285 C 8.863 18.228,15.117 18.226,15.267 18.283 " fill="#1C274C" stroke="none" fill-rule="evenodd"></path></svg>