<svg width="24" height="24" viewBox="0 0 24 24" fill="none" xmlns="http://www.w3.org/2000/svg"><path d="M6.715 2.055 C 6.467 2.122,6.227 2.320,6.113 2.551 C 6.026 2.729,6.020 2.785,6.020 3.501 C 6.020 4.239,6.023 4.268,6.122 4.461 C 6.252 4.714,6.496 4.901,6.769 4.958 C 6.917 4.988,8.515 4.998,12.120 4.991 C 17.880 4.979,17.400 5.005,17.714 4.681 C 17.955 4.433,17.980 4.323,17.980 3.500 C 17.980 2.677,17.955 2.567,17.714 2.319 C 17.399 1.994,17.886 2.021,12.080 2.012 C 8.032 2.006,6.860 2.016,6.715 2.055 M6.460 7.031 C 5.412 7.874,5.133 8.120,4.915 8.391 C 4.688 8.675,4.400 9.136,4.400 9.216 C 4.400 9.229,7.830 9.240,12.023 9.240 L 19.646 9.240 19.517 9.010 C 19.335 8.687,19.039 8.293,18.813 8.072 C 18.707 7.969,18.098 7.461,17.460 6.944 L 16.300 6.003 12.020 6.002 L 7.740 6.002 6.460 7.031 M4.000 14.000 L 4.000 17.240 8.596 17.240 L 13.191 17.240 14.546 15.876 C 15.291 15.126,16.009 14.425,16.143 14.318 C 16.586 13.965,17.135 13.708,17.740 13.574 C 18.318 13.445,19.260 13.511,19.808 13.720 L 20.000 13.792 20.000 12.276 L 20.000 10.760 12.000 10.760 L 4.000 10.760 4.000 14.000 M12.271 11.302 C 12.468 11.384,12.595 11.506,12.684 11.700 C 12.747 11.836,12.758 11.965,12.759 12.550 L 12.760 13.240 13.441 13.240 C 13.966 13.240,14.157 13.254,14.271 13.302 C 14.911 13.569,14.911 14.431,14.271 14.698 C 14.157 14.746,13.966 14.760,13.441 14.760 L 12.760 14.760 12.759 15.450 C 12.758 16.035,12.747 16.164,12.684 16.300 C 12.406 16.904,11.594 16.904,11.316 16.300 C 11.253 16.164,11.242 16.035,11.241 15.450 L 11.240 14.760 10.550 14.759 C 9.802 14.758,9.643 14.723,9.452 14.515 C 9.097 14.129,9.219 13.537,9.700 13.316 C 9.836 13.253,9.965 13.242,10.550 13.241 L 11.240 13.240 11.240 12.559 C 11.240 11.833,11.269 11.684,11.452 11.485 C 11.568 11.359,11.827 11.242,11.991 11.241 C 12.063 11.240,12.189 11.268,12.271 11.302 M18.000 15.060 C 17.552 15.161,17.199 15.366,16.778 15.768 C 16.570 15.967,16.400 16.141,16.400 16.155 C 16.400 16.169,16.567 16.265,16.771 16.369 C 17.930 16.958,19.042 18.070,19.631 19.229 C 19.735 19.433,19.831 19.600,19.845 19.600 C 19.859 19.600,20.033 19.430,20.231 19.223 C 20.644 18.790,20.836 18.455,20.943 17.974 C 21.208 16.783,20.439 15.493,19.240 15.116 C 18.897 15.008,18.340 14.983,18.000 15.060 M14.833 17.710 C 14.221 18.339,14.017 18.801,14.025 19.540 C 14.028 19.902,14.047 20.032,14.132 20.273 C 14.587 21.574,15.932 22.275,17.214 21.879 C 17.546 21.776,17.983 21.484,18.328 21.133 L 18.596 20.860 18.518 20.529 C 18.372 19.906,17.999 19.312,17.344 18.656 C 16.710 18.022,16.086 17.624,15.530 17.498 C 15.382 17.464,15.232 17.428,15.197 17.418 C 15.158 17.406,15.024 17.513,14.833 17.710 M4.220 18.850 C 4.273 19.043,4.606 19.680,4.772 19.904 C 5.012 20.231,5.538 20.830,5.736 21.003 C 6.187 21.396,6.769 21.701,7.395 21.872 L 7.780 21.977 10.576 21.991 L 13.372 22.004 13.306 21.912 C 12.962 21.435,12.692 20.836,12.580 20.300 C 12.507 19.956,12.484 19.259,12.534 18.950 L 12.565 18.760 8.380 18.760 L 4.195 18.760 4.220 18.850 " fill="#1C274C" stroke="none" fill-rule="evenodd"></path></svg>