<svg width="24" height="24" viewBox="0 0 24 24" fill="none" xmlns="http://www.w3.org/2000/svg"><path d="M6.709 2.057 C 6.459 2.124,6.245 2.301,6.120 2.543 C 6.027 2.724,6.019 2.785,6.007 3.407 C 5.990 4.235,6.036 4.438,6.298 4.700 C 6.617 5.020,6.246 5.000,12.000 5.000 C 17.754 5.000,17.383 5.020,17.702 4.700 C 17.964 4.438,18.010 4.235,17.993 3.407 C 17.981 2.781,17.973 2.724,17.878 2.539 C 17.750 2.291,17.505 2.101,17.240 2.044 C 16.923 1.976,6.964 1.988,6.709 2.057 M6.460 7.031 C 5.412 7.874,5.133 8.120,4.915 8.391 C 4.688 8.675,4.400 9.136,4.400 9.216 C 4.400 9.229,7.830 9.240,12.023 9.240 L 19.646 9.240 19.517 9.010 C 19.335 8.687,19.039 8.293,18.813 8.072 C 18.707 7.969,18.098 7.461,17.460 6.944 L 16.300 6.003 12.020 6.002 L 7.740 6.002 6.460 7.031 M4.000 14.000 L 4.000 17.240 12.000 17.240 L 20.000 17.240 20.000 14.000 L 20.000 10.760 12.000 10.760 L 4.000 10.760 4.000 14.000 M12.271 11.302 C 12.468 11.384,12.595 11.506,12.684 11.700 C 12.747 11.836,12.758 11.965,12.759 12.550 L 12.760 13.240 13.441 13.240 C 13.966 13.240,14.157 13.254,14.271 13.302 C 14.911 13.569,14.911 14.431,14.271 14.698 C 14.157 14.746,13.966 14.760,13.441 14.760 L 12.760 14.760 12.759 15.450 C 12.758 16.035,12.747 16.164,12.684 16.300 C 12.406 16.904,11.594 16.904,11.316 16.300 C 11.253 16.164,11.242 16.035,11.241 15.450 L 11.240 14.760 10.550 14.759 C 9.802 14.758,9.643 14.723,9.452 14.515 C 9.097 14.129,9.219 13.537,9.700 13.316 C 9.836 13.253,9.965 13.242,10.550 13.241 L 11.240 13.240 11.240 12.559 C 11.240 11.833,11.269 11.684,11.452 11.485 C 11.568 11.359,11.827 11.242,11.991 11.241 C 12.063 11.240,12.189 11.268,12.271 11.302 M4.220 18.850 C 4.273 19.043,4.606 19.680,4.772 19.904 C 5.012 20.231,5.538 20.830,5.736 21.003 C 6.186 21.396,6.767 21.700,7.395 21.873 L 7.780 21.979 11.760 21.992 C 14.400 22.000,15.864 21.990,16.109 21.962 C 16.905 21.870,17.716 21.504,18.332 20.960 C 18.574 20.745,19.133 20.067,19.370 19.700 C 19.533 19.447,19.704 19.090,19.778 18.850 L 19.805 18.760 12.000 18.760 L 4.195 18.760 4.220 18.850 " fill="#1C274C" stroke="none" fill-rule="evenodd"></path></svg>