<svg width="24" height="24" viewBox="0 0 24 24" fill="none" xmlns="http://www.w3.org/2000/svg"><path d="M14.960 2.044 C 14.220 2.126,13.472 2.358,12.760 2.724 C 9.808 4.245,8.545 7.828,9.929 10.756 L 10.088 11.092 6.230 14.924 C 4.103 17.036,2.316 18.842,2.249 18.948 C 2.075 19.221,1.985 19.561,2.012 19.849 C 2.048 20.256,2.171 20.437,2.889 21.145 C 3.461 21.710,3.569 21.799,3.780 21.879 C 4.140 22.015,4.485 22.028,4.780 21.918 C 4.990 21.839,5.097 21.752,5.648 21.209 L 6.275 20.590 6.446 20.736 C 6.852 21.084,7.352 21.214,7.850 21.103 C 8.388 20.984,8.830 20.652,9.052 20.201 C 9.171 19.960,9.180 19.911,9.180 19.534 C 9.180 19.128,9.180 19.127,8.990 18.754 L 8.800 18.381 8.938 18.244 L 9.075 18.106 9.236 18.252 C 9.803 18.764,10.505 18.983,11.060 18.822 C 11.424 18.716,11.675 18.572,11.943 18.314 C 12.663 17.623,12.646 16.578,11.902 15.700 C 11.527 15.258,11.540 15.217,12.304 14.441 C 12.812 13.925,12.884 13.866,12.948 13.910 C 13.468 14.268,14.375 14.516,15.400 14.581 C 16.393 14.643,17.520 14.402,18.500 13.916 C 20.255 13.047,21.493 11.422,21.889 9.469 C 22.017 8.835,22.016 7.695,21.887 7.090 C 21.610 5.804,21.054 4.768,20.162 3.880 C 19.631 3.351,19.178 3.018,18.569 2.707 C 17.444 2.133,16.203 1.905,14.960 2.044 M16.258 6.181 C 16.748 6.309,17.225 6.648,17.504 7.069 C 18.290 8.252,17.768 9.859,16.440 10.349 C 16.172 10.448,16.088 10.460,15.660 10.458 C 15.237 10.456,15.148 10.444,14.910 10.350 C 13.417 9.762,13.002 7.876,14.120 6.760 C 14.401 6.479,14.742 6.275,15.084 6.183 C 15.372 6.106,15.965 6.105,16.258 6.181 " fill="#1C274C" stroke="none" fill-rule="evenodd"></path></svg>