<svg width="24" height="24" viewBox="0 0 24 24" fill="none" xmlns="http://www.w3.org/2000/svg"><path d="M8.419 2.043 C 5.807 2.139,4.481 2.507,3.549 3.393 C 2.549 4.344,2.163 5.596,2.041 8.280 C 1.989 9.450,1.989 14.605,2.041 15.740 C 2.160 18.285,2.507 19.501,3.379 20.433 C 4.323 21.444,5.571 21.833,8.260 21.959 C 9.399 22.012,14.601 22.012,15.740 21.959 C 18.285 21.840,19.501 21.493,20.433 20.621 C 21.351 19.763,21.748 18.659,21.920 16.480 C 21.944 16.183,21.974 15.270,21.988 14.450 L 22.013 12.960 21.707 13.257 C 20.367 14.558,18.783 15.295,16.920 15.483 C 16.437 15.532,15.615 15.510,15.163 15.437 L 14.905 15.396 13.423 16.872 C 12.607 17.684,11.883 18.387,11.813 18.435 C 11.585 18.590,11.133 18.796,10.833 18.881 C 10.337 19.022,9.945 19.022,8.735 18.885 C 7.148 18.705,6.818 18.578,6.120 17.880 C 5.419 17.179,5.299 16.864,5.118 15.253 C 4.944 13.703,4.984 13.295,5.389 12.502 C 5.569 12.149,5.611 12.102,7.092 10.613 C 8.594 9.103,8.610 9.085,8.585 8.951 C 8.513 8.567,8.481 7.729,8.520 7.219 C 8.664 5.325,9.399 3.691,10.729 2.310 L 11.027 2.000 10.144 2.006 C 9.658 2.010,8.882 2.026,8.419 2.043 M15.103 2.121 C 13.357 2.489,11.924 3.578,11.126 5.144 C 10.518 6.337,10.352 7.673,10.642 9.058 C 10.788 9.758,10.910 9.578,8.939 11.560 C 7.170 13.340,7.080 13.447,7.021 13.841 C 6.993 14.028,7.169 15.767,7.246 16.060 C 7.304 16.281,7.719 16.696,7.940 16.754 C 8.233 16.831,9.972 17.007,10.158 16.979 C 10.256 16.965,10.418 16.914,10.518 16.867 C 10.703 16.780,11.320 16.225,11.320 16.146 C 11.320 16.122,10.961 15.742,10.523 15.301 C 9.842 14.617,9.722 14.478,9.698 14.347 C 9.607 13.854,9.944 13.423,10.420 13.423 C 10.723 13.423,10.890 13.544,11.680 14.337 C 12.064 14.724,12.398 15.040,12.420 15.040 C 12.442 15.040,12.812 14.688,13.240 14.257 C 13.669 13.827,14.083 13.442,14.160 13.403 C 14.394 13.283,14.544 13.275,14.954 13.361 C 16.051 13.590,17.081 13.537,18.092 13.198 C 19.638 12.680,20.942 11.459,21.558 9.951 C 21.718 9.559,21.899 8.895,21.942 8.540 C 21.971 8.304,21.905 7.268,21.816 6.560 C 21.627 5.060,20.492 3.522,18.960 2.688 C 18.228 2.289,17.751 2.178,16.360 2.081 C 15.608 2.029,15.528 2.031,15.103 2.121 M16.749 6.272 C 17.041 6.383,17.334 6.609,17.519 6.868 C 17.746 7.185,17.820 7.430,17.819 7.860 C 17.818 8.184,17.805 8.249,17.684 8.509 C 17.171 9.609,15.742 9.837,14.937 8.948 C 14.092 8.012,14.547 6.536,15.780 6.214 C 16.042 6.146,16.487 6.172,16.749 6.272 " fill="#1C274C" stroke="none" fill-rule="evenodd"></path></svg>