<svg width="24" height="24" viewBox="0 0 24 24" fill="none" xmlns="http://www.w3.org/2000/svg"><path d="M8.440 2.043 C 7.012 2.094,5.996 2.226,5.213 2.462 C 3.811 2.885,2.890 3.808,2.459 5.221 C 2.103 6.387,2.001 7.900,2.001 12.000 C 2.001 16.100,2.103 17.613,2.459 18.779 C 2.891 20.195,3.805 21.109,5.221 21.541 C 6.387 21.897,7.900 21.999,12.000 21.999 C 16.100 21.999,17.613 21.897,18.779 21.541 C 20.195 21.109,21.109 20.195,21.541 18.779 C 21.897 17.613,21.999 16.101,21.999 11.980 C 21.999 7.887,21.899 6.409,21.538 5.213 C 21.116 3.814,20.186 2.884,18.787 2.462 C 17.969 2.215,17.046 2.101,15.393 2.041 C 14.150 1.996,9.732 1.997,8.440 2.043 M14.132 6.060 C 16.935 6.549,18.636 9.331,17.775 12.020 C 17.301 13.502,16.061 14.665,14.527 15.068 C 13.943 15.221,13.166 15.241,12.501 15.119 C 11.793 14.989,11.811 14.981,11.051 15.732 L 10.440 16.335 10.310 16.217 C 10.238 16.153,9.936 15.863,9.638 15.573 C 9.052 15.004,8.987 14.969,8.618 15.010 C 8.281 15.048,8.003 15.376,8.001 15.737 C 7.999 16.014,8.132 16.202,8.766 16.821 L 9.369 17.409 9.174 17.609 C 8.955 17.835,8.648 17.999,8.440 18.000 C 8.363 18.000,7.958 17.963,7.540 17.917 C 6.669 17.822,6.518 17.763,6.296 17.434 C 6.165 17.238,6.154 17.176,6.031 15.955 C 5.959 15.233,5.882 15.351,7.501 13.720 C 8.670 12.544,8.879 12.315,8.923 12.169 C 8.967 12.020,8.962 11.935,8.887 11.529 C 8.600 9.985,9.019 8.535,10.066 7.439 C 10.459 7.027,10.801 6.770,11.280 6.525 C 12.185 6.061,13.196 5.897,14.132 6.060 M13.109 9.365 C 12.691 9.428,12.312 9.717,12.126 10.114 C 11.978 10.430,11.975 10.924,12.120 11.220 C 12.245 11.476,12.524 11.755,12.780 11.880 C 13.076 12.025,13.570 12.022,13.887 11.873 C 14.698 11.493,14.916 10.439,14.318 9.786 C 14.007 9.445,13.573 9.294,13.109 9.365 " fill="#1C274C" stroke="none" fill-rule="evenodd"></path></svg>