<svg width="24" height="24" viewBox="0 0 24 24" fill="none" xmlns="http://www.w3.org/2000/svg"><path d="M13.360 3.045 C 11.791 3.225,10.369 3.894,9.279 4.964 C 8.263 5.961,7.620 7.145,7.314 8.580 C 7.231 8.969,7.220 9.125,7.221 9.920 C 7.222 10.748,7.231 10.860,7.331 11.320 C 7.458 11.901,7.462 11.991,7.376 12.283 C 7.315 12.491,7.231 12.582,5.263 14.560 C 3.031 16.803,3.067 16.760,3.016 17.268 C 2.986 17.569,3.217 19.674,3.308 19.920 C 3.396 20.160,3.790 20.569,4.033 20.672 C 4.264 20.771,6.423 21.021,6.749 20.988 C 7.127 20.949,7.371 20.801,7.868 20.310 L 8.322 19.863 7.402 18.941 C 6.804 18.342,6.461 17.968,6.421 17.871 C 6.154 17.223,6.899 16.596,7.500 16.963 C 7.566 17.003,8.016 17.433,8.499 17.917 L 9.378 18.799 10.439 17.743 C 11.433 16.754,11.514 16.684,11.717 16.624 C 12.009 16.538,12.099 16.542,12.680 16.669 C 13.144 16.770,13.247 16.778,14.100 16.778 C 14.907 16.777,15.072 16.766,15.440 16.686 C 18.632 15.995,20.863 13.369,20.986 10.160 C 21.114 6.786,18.788 3.824,15.474 3.145 C 14.818 3.010,13.999 2.971,13.360 3.045 M14.662 8.124 C 15.258 8.346,15.647 8.734,15.881 9.340 C 16.004 9.660,16.015 10.272,15.904 10.600 C 15.417 12.039,13.654 12.468,12.599 11.404 C 11.556 10.352,11.949 8.615,13.340 8.127 C 13.666 8.012,13.731 8.003,14.102 8.020 C 14.304 8.029,14.512 8.068,14.662 8.124 " fill="#1C274C" stroke="none" fill-rule="evenodd"></path></svg>