<svg width="24" height="24" viewBox="0 0 24 24" fill="none" xmlns="http://www.w3.org/2000/svg"><path d="M8.440 2.043 C 7.012 2.094,5.996 2.226,5.213 2.462 C 3.811 2.885,2.890 3.808,2.459 5.221 C 2.103 6.387,2.001 7.900,2.001 12.000 C 2.001 16.100,2.103 17.613,2.459 18.779 C 2.891 20.195,3.805 21.109,5.221 21.541 C 6.387 21.897,7.900 21.999,12.000 21.999 C 16.100 21.999,17.613 21.897,18.779 21.541 C 20.195 21.109,21.109 20.195,21.541 18.779 C 21.897 17.613,21.999 16.101,21.999 11.980 C 21.999 7.887,21.899 6.409,21.538 5.213 C 21.116 3.814,20.186 2.884,18.787 2.462 C 17.969 2.215,17.046 2.101,15.393 2.041 C 14.150 1.996,9.732 1.997,8.440 2.043 M9.340 8.855 C 9.704 8.954,10.269 9.249,10.565 9.495 C 11.038 9.886,11.467 10.526,11.606 11.050 L 11.657 11.240 14.383 11.240 C 16.047 11.240,17.192 11.256,17.322 11.280 C 18.007 11.410,18.593 11.995,18.720 12.675 C 18.742 12.794,18.760 13.172,18.759 13.515 C 18.758 14.037,18.746 14.166,18.684 14.300 C 18.400 14.916,17.564 14.899,17.302 14.271 C 17.255 14.159,17.240 13.973,17.240 13.514 C 17.240 12.733,17.260 12.760,16.674 12.760 L 16.240 12.760 16.240 13.222 C 16.240 13.821,16.160 13.999,15.812 14.175 C 15.569 14.298,15.209 14.241,14.986 14.045 C 14.811 13.892,14.760 13.706,14.760 13.222 L 14.760 12.760 13.208 12.760 L 11.657 12.760 11.606 12.950 C 11.467 13.474,11.038 14.114,10.565 14.505 C 10.262 14.757,9.700 15.048,9.320 15.150 C 9.129 15.202,8.907 15.220,8.480 15.220 C 7.984 15.220,7.857 15.206,7.600 15.126 C 6.480 14.777,5.671 13.946,5.353 12.820 C 5.281 12.565,5.263 12.398,5.263 12.000 C 5.263 11.416,5.346 11.059,5.601 10.540 C 6.031 9.668,6.898 9.007,7.883 8.801 C 8.150 8.746,9.060 8.779,9.340 8.855 M8.214 10.280 C 7.390 10.402,6.760 11.148,6.760 12.000 C 6.760 12.873,7.372 13.580,8.259 13.732 C 8.884 13.839,9.600 13.511,9.961 12.954 C 10.355 12.345,10.325 11.514,9.889 10.941 C 9.515 10.448,8.849 10.185,8.214 10.280 " fill="#1C274C" stroke="none" fill-rule="evenodd"></path></svg>