<svg width="24" height="24" viewBox="0 0 24 24" fill="none" xmlns="http://www.w3.org/2000/svg"><path d="M14.440 2.024 C 13.146 2.177,12.292 2.458,11.329 3.046 C 9.000 4.471,7.705 7.183,8.060 9.894 C 8.224 11.143,8.640 12.142,9.500 13.344 C 9.531 13.388,8.788 14.153,6.214 16.730 C 4.384 18.562,2.859 20.118,2.824 20.188 C 2.697 20.442,2.776 20.861,2.986 21.045 C 3.218 21.249,3.571 21.298,3.832 21.163 C 3.913 21.121,4.096 20.968,4.239 20.823 L 4.497 20.561 5.059 21.116 C 5.524 21.578,5.650 21.680,5.795 21.719 C 6.365 21.871,6.871 21.365,6.719 20.795 C 6.680 20.650,6.578 20.524,6.117 20.059 L 5.561 19.498 6.030 19.030 L 6.498 18.561 7.059 19.117 C 7.524 19.578,7.650 19.680,7.795 19.719 C 8.365 19.871,8.871 19.365,8.719 18.795 C 8.680 18.650,8.578 18.524,8.117 18.059 L 7.562 17.498 9.081 15.979 C 10.253 14.807,10.613 14.469,10.656 14.500 C 12.034 15.485,13.256 15.933,14.720 15.989 C 18.352 16.128,21.468 13.498,21.940 9.894 C 22.429 6.164,19.860 2.722,16.120 2.095 C 15.780 2.038,14.704 1.992,14.440 2.024 M15.657 7.118 C 16.562 7.432,17.115 8.355,16.967 9.305 C 16.899 9.740,16.723 10.084,16.404 10.404 C 15.607 11.200,14.393 11.200,13.596 10.404 C 12.989 9.796,12.836 8.904,13.207 8.125 C 13.451 7.611,14.029 7.157,14.580 7.044 C 14.864 6.986,15.379 7.022,15.657 7.118 " fill="#1C274C" stroke="none" fill-rule="evenodd"></path></svg>