<svg width="24" height="24" viewBox="0 0 24 24" fill="none" xmlns="http://www.w3.org/2000/svg"><path d="M8.440 2.043 C 7.012 2.094,5.996 2.226,5.213 2.462 C 3.811 2.885,2.890 3.808,2.459 5.221 C 2.103 6.387,2.001 7.900,2.001 12.000 C 2.001 16.100,2.103 17.613,2.459 18.779 C 2.891 20.195,3.805 21.109,5.221 21.541 C 6.387 21.897,7.900 21.999,12.000 21.999 C 16.100 21.999,17.613 21.897,18.779 21.541 C 20.195 21.109,21.109 20.195,21.541 18.779 C 21.881 17.664,21.998 16.071,21.999 12.543 L 22.000 10.785 21.630 11.145 C 20.843 11.911,20.010 12.401,19.000 12.693 C 18.276 12.902,17.222 12.995,16.560 12.906 L 16.340 12.877 16.337 13.368 C 16.335 13.796,16.320 13.902,16.224 14.180 C 15.886 15.162,15.076 15.871,14.030 16.100 L 13.720 16.168 13.590 16.413 C 13.432 16.711,13.023 17.154,12.711 17.366 C 12.141 17.753,11.438 17.926,10.789 17.838 L 10.478 17.796 10.315 17.935 C 10.092 18.126,9.661 18.346,9.355 18.425 C 9.029 18.510,8.493 18.510,8.160 18.426 C 8.017 18.389,7.747 18.285,7.560 18.195 C 7.250 18.045,7.164 17.974,6.578 17.385 C 6.061 16.865,5.908 16.686,5.791 16.460 C 5.592 16.075,5.509 15.732,5.509 15.300 C 5.509 14.859,5.592 14.528,5.810 14.100 C 5.967 13.793,6.078 13.675,8.631 11.115 L 11.288 8.450 11.226 8.234 C 10.951 7.290,10.965 6.045,11.261 5.020 C 11.562 3.978,12.037 3.167,12.814 2.370 L 13.175 2.000 11.237 2.006 C 10.172 2.010,8.913 2.026,8.440 2.043 M16.620 2.045 C 16.170 2.101,15.653 2.264,15.172 2.501 C 13.777 3.187,12.842 4.440,12.581 5.975 C 12.437 6.818,12.540 7.598,12.910 8.474 L 13.051 8.809 10.129 11.734 C 8.101 13.766,7.179 14.715,7.115 14.840 C 6.994 15.074,6.985 15.510,7.096 15.720 C 7.214 15.941,8.034 16.754,8.253 16.866 C 8.500 16.992,8.784 17.026,9.029 16.958 C 9.189 16.914,9.298 16.829,9.705 16.431 L 10.191 15.956 10.417 16.114 C 10.932 16.475,11.549 16.429,12.023 15.994 C 12.270 15.767,12.399 15.491,12.400 15.189 C 12.400 14.939,12.295 14.590,12.166 14.408 L 12.084 14.294 12.188 14.190 L 12.291 14.087 12.493 14.247 C 13.000 14.648,13.474 14.746,13.984 14.555 C 14.311 14.433,14.678 14.067,14.781 13.760 C 14.923 13.334,14.839 12.837,14.560 12.460 C 14.245 12.033,14.230 12.005,14.259 11.891 C 14.275 11.827,14.468 11.597,14.722 11.340 C 15.140 10.918,15.162 10.902,15.249 10.957 C 15.796 11.297,16.623 11.470,17.500 11.427 C 18.298 11.389,19.104 11.137,19.793 10.711 C 20.257 10.424,20.920 9.771,21.224 9.301 C 22.420 7.455,22.211 5.075,20.715 3.500 C 19.657 2.387,18.156 1.853,16.620 2.045 M17.937 5.233 C 18.976 5.719,19.231 7.011,18.452 7.844 C 18.137 8.182,17.724 8.360,17.260 8.360 C 16.447 8.360,15.779 7.786,15.634 6.963 C 15.520 6.316,15.877 5.605,16.475 5.286 C 16.792 5.117,16.961 5.080,17.348 5.097 C 17.612 5.108,17.728 5.135,17.937 5.233 " fill="#1C274C" stroke="none" fill-rule="evenodd"></path></svg>