<svg width="24" height="24" viewBox="0 0 24 24" fill="none" xmlns="http://www.w3.org/2000/svg"><path d="M8.440 2.043 C 7.012 2.094,5.996 2.226,5.213 2.462 C 3.811 2.885,2.890 3.808,2.459 5.221 C 2.103 6.387,2.001 7.900,2.001 12.000 C 2.001 16.100,2.103 17.613,2.459 18.779 C 2.891 20.195,3.805 21.109,5.221 21.541 C 6.387 21.897,7.900 21.999,12.000 21.999 C 16.100 21.999,17.613 21.897,18.779 21.541 C 20.195 21.109,21.109 20.195,21.541 18.779 C 21.897 17.613,21.999 16.101,21.999 11.980 C 21.999 7.887,21.899 6.409,21.538 5.213 C 21.116 3.814,20.186 2.884,18.787 2.462 C 17.969 2.215,17.046 2.101,15.393 2.041 C 14.150 1.996,9.732 1.997,8.440 2.043 M14.940 6.076 C 15.919 6.279,16.775 6.835,17.318 7.621 C 18.644 9.538,17.953 12.162,15.860 13.165 C 15.274 13.446,14.865 13.537,14.200 13.536 C 13.581 13.534,13.091 13.437,12.735 13.244 L 12.525 13.130 12.162 13.500 C 11.926 13.741,11.800 13.900,11.800 13.958 C 11.800 14.007,11.862 14.122,11.938 14.215 C 12.504 14.906,12.356 15.694,11.594 16.039 C 11.245 16.197,10.823 16.123,10.445 15.836 C 10.236 15.678,10.227 15.675,10.156 15.747 C 10.084 15.818,10.086 15.827,10.201 16.056 C 10.468 16.585,10.280 17.129,9.740 17.385 C 9.390 17.550,8.920 17.484,8.650 17.230 L 8.559 17.146 8.167 17.531 C 7.951 17.743,7.725 17.935,7.665 17.958 C 7.495 18.023,7.238 18.006,7.044 17.918 C 6.821 17.817,6.186 17.199,6.080 16.980 C 5.984 16.783,5.977 16.533,6.061 16.329 C 6.104 16.225,6.843 15.459,8.483 13.818 L 10.843 11.457 10.746 11.237 C 10.372 10.391,10.318 9.521,10.587 8.662 C 11.008 7.319,12.150 6.310,13.534 6.059 C 13.956 5.983,14.523 5.989,14.940 6.076 M13.740 8.548 C 13.415 8.678,13.161 8.917,13.006 9.240 C 12.866 9.530,12.859 10.000,12.988 10.287 C 13.102 10.538,13.372 10.824,13.618 10.953 C 13.795 11.046,13.867 11.059,14.200 11.059 C 14.523 11.060,14.610 11.045,14.779 10.962 C 15.393 10.660,15.678 9.941,15.437 9.301 C 15.317 8.982,15.022 8.684,14.707 8.566 C 14.427 8.461,13.978 8.453,13.740 8.548 " fill="#1C274C" stroke="none" fill-rule="evenodd"></path></svg>