<svg width="24" height="24" viewBox="0 0 24 24" fill="none" xmlns="http://www.w3.org/2000/svg"><path d="M14.300 3.257 C 14.278 3.266,14.211 3.284,14.151 3.297 C 14.004 3.329,13.761 3.548,13.694 3.708 C 13.583 3.973,13.639 4.289,13.833 4.494 C 14.065 4.739,14.057 4.738,15.540 4.760 C 16.864 4.779,16.905 4.782,17.090 4.873 C 17.387 5.020,17.577 5.266,17.674 5.631 C 17.747 5.907,18.720 11.575,18.720 11.726 C 18.720 11.771,18.631 11.805,18.387 11.853 C 17.264 12.073,16.247 12.629,15.376 13.498 C 14.498 14.373,13.958 15.377,13.735 16.550 L 13.664 16.920 10.549 16.910 L 7.434 16.900 7.306 16.560 C 6.921 15.539,5.982 14.770,4.911 14.599 C 4.535 14.539,3.873 14.567,3.540 14.658 C 3.181 14.755,2.687 15.014,2.388 15.261 C 1.206 16.235,0.909 17.908,1.683 19.227 C 1.874 19.552,2.440 20.112,2.780 20.311 C 3.995 21.024,5.504 20.853,6.528 19.887 C 6.938 19.500,7.291 18.938,7.378 18.531 L 7.406 18.402 11.016 18.391 L 14.626 18.380 14.788 18.273 C 15.029 18.114,15.105 17.916,15.156 17.317 C 15.246 16.255,15.633 15.385,16.346 14.638 C 16.762 14.204,17.093 13.959,17.620 13.698 C 18.165 13.429,18.694 13.288,19.345 13.242 C 19.861 13.205,19.988 13.163,20.167 12.974 C 20.299 12.835,20.360 12.681,20.360 12.490 C 20.360 12.273,19.251 5.735,19.140 5.298 C 18.996 4.727,18.835 4.435,18.460 4.057 C 18.223 3.818,18.057 3.692,17.820 3.571 C 17.313 3.311,17.088 3.279,15.620 3.258 C 14.916 3.248,14.322 3.248,14.300 3.257 M18.934 14.620 C 18.348 14.754,17.838 15.038,17.398 15.478 C 17.051 15.826,16.842 16.150,16.682 16.590 C 16.377 17.426,16.425 18.212,16.830 19.040 C 16.986 19.359,17.075 19.479,17.378 19.784 C 17.940 20.349,18.512 20.634,19.285 20.731 C 19.908 20.810,20.640 20.651,21.220 20.311 C 21.560 20.112,22.126 19.552,22.317 19.227 C 23.091 17.908,22.794 16.235,21.612 15.261 C 21.314 15.015,20.821 14.756,20.460 14.657 C 20.133 14.566,19.261 14.545,18.934 14.620 " fill="#1C274C" stroke="none" fill-rule="evenodd"></path></svg>