<svg width="24" height="24" viewBox="0 0 24 24" fill="none" xmlns="http://www.w3.org/2000/svg"><path d="M5.196 1.283 C 4.189 1.390,3.143 1.914,2.440 2.666 C 1.958 3.181,1.580 3.867,1.398 4.555 C 1.279 5.004,1.218 5.659,1.276 5.868 C 1.397 6.307,1.866 6.547,2.271 6.378 C 2.607 6.238,2.714 6.049,2.765 5.506 C 2.810 5.025,2.882 4.757,3.068 4.380 C 3.365 3.776,3.777 3.364,4.385 3.065 C 4.869 2.828,5.076 2.783,5.700 2.784 C 6.196 2.784,6.296 2.796,6.571 2.888 C 7.021 3.038,7.415 3.287,7.760 3.637 C 8.106 3.989,8.317 4.327,8.471 4.780 L 8.580 5.100 8.591 8.970 C 8.597 11.098,8.609 12.840,8.617 12.840 C 8.626 12.840,8.735 12.741,8.859 12.619 C 9.111 12.373,9.541 12.060,9.890 11.868 L 10.120 11.742 10.120 8.538 C 10.120 5.768,10.111 5.283,10.055 4.957 C 9.717 2.984,8.143 1.506,6.140 1.281 C 5.739 1.236,5.635 1.236,5.196 1.283 M15.220 12.026 C 13.821 12.139,12.776 12.339,11.770 12.685 C 8.765 13.718,8.765 15.282,11.770 16.315 C 13.607 16.947,15.895 17.151,17.853 16.858 C 20.380 16.480,22.111 15.446,21.986 14.389 C 21.852 13.255,19.687 12.252,16.918 12.041 C 16.419 12.003,15.596 11.996,15.220 12.026 M8.661 16.417 C 8.966 19.185,10.827 21.505,13.440 22.376 C 14.857 22.848,16.417 22.857,17.860 22.401 C 18.395 22.232,19.292 21.783,19.760 21.451 C 20.248 21.105,21.105 20.248,21.451 19.760 C 21.600 19.551,21.846 19.128,21.998 18.820 C 22.370 18.069,22.524 17.560,22.700 16.509 C 22.717 16.404,22.701 16.413,22.431 16.645 C 21.349 17.576,19.524 18.221,17.340 18.443 C 16.669 18.511,15.228 18.502,14.493 18.424 C 12.031 18.163,9.960 17.424,8.907 16.431 L 8.634 16.173 8.661 16.417 " fill="#1C274C" stroke="none" fill-rule="evenodd"></path></svg>