<svg width="24" height="24" viewBox="0 0 24 24" fill="none" xmlns="http://www.w3.org/2000/svg"><path d="M9.860 2.027 C 8.436 2.085,7.636 2.332,6.916 2.935 C 6.092 3.626,5.809 4.251,5.095 6.960 C 4.278 10.057,4.048 11.132,4.013 12.000 C 3.977 12.918,4.159 13.466,4.686 14.021 C 5.432 14.807,6.430 14.999,9.750 15.000 L 11.240 15.000 11.240 18.117 L 11.240 21.235 10.030 21.247 C 8.868 21.259,8.813 21.264,8.653 21.349 C 8.456 21.454,8.345 21.599,8.283 21.829 C 8.186 22.188,8.422 22.602,8.786 22.711 C 8.999 22.775,14.981 22.782,15.209 22.718 C 15.506 22.636,15.757 22.312,15.759 22.009 C 15.760 21.847,15.665 21.612,15.548 21.487 C 15.341 21.265,15.316 21.261,13.990 21.247 L 12.760 21.235 12.760 18.117 L 12.760 15.000 14.190 15.000 C 14.977 15.000,15.876 14.988,16.188 14.974 L 16.756 14.948 16.768 16.110 L 16.780 17.273 16.902 17.426 C 17.072 17.640,17.334 17.770,17.548 17.748 C 17.809 17.721,18.056 17.554,18.166 17.331 C 18.257 17.146,18.261 17.099,18.280 15.906 L 18.300 14.673 18.529 14.579 C 19.219 14.299,19.764 13.655,19.938 12.916 C 20.017 12.581,20.017 11.829,19.938 11.285 C 19.844 10.642,19.604 9.598,19.121 7.740 C 18.262 4.433,18.043 3.875,17.324 3.157 C 16.555 2.390,15.853 2.131,14.307 2.041 C 13.702 2.006,10.615 1.996,9.860 2.027 " fill="#1C274C" stroke="none" fill-rule="evenodd"></path></svg>