<svg width="24" height="24" viewBox="0 0 24 24" fill="none" xmlns="http://www.w3.org/2000/svg"><path d="M11.388 3.285 C 10.410 3.379,9.706 3.615,6.134 5.045 C 3.306 6.176,2.658 6.453,2.187 6.727 C 0.941 7.455,0.941 8.536,2.189 9.276 C 2.634 9.541,3.249 9.802,6.140 10.959 C 10.222 12.591,10.704 12.737,12.000 12.737 C 13.296 12.737,13.778 12.591,17.864 10.957 C 21.526 9.492,21.953 9.292,22.376 8.840 C 22.890 8.290,22.865 7.617,22.310 7.093 C 21.860 6.668,21.444 6.476,17.866 5.045 C 14.218 3.584,13.606 3.382,12.540 3.281 C 12.049 3.235,11.897 3.236,11.388 3.285 M1.807 11.287 C 1.573 11.340,1.348 11.567,1.286 11.814 C 1.183 12.221,1.345 12.480,1.980 12.926 C 2.994 13.638,3.695 13.973,6.564 15.121 C 9.838 16.431,10.450 16.629,11.519 16.721 C 12.415 16.799,13.249 16.677,14.380 16.301 C 15.405 15.960,19.777 14.194,20.480 13.837 C 21.418 13.361,22.408 12.710,22.595 12.447 C 22.903 12.014,22.678 11.395,22.173 11.286 C 21.900 11.228,21.715 11.280,21.446 11.492 C 21.023 11.825,20.344 12.241,19.740 12.539 C 19.175 12.817,15.350 14.370,14.226 14.777 C 13.943 14.880,13.502 15.020,13.246 15.090 C 12.798 15.211,12.750 15.216,12.000 15.216 C 11.250 15.216,11.202 15.211,10.754 15.090 C 10.498 15.020,10.057 14.880,9.774 14.778 C 8.668 14.377,4.828 12.818,4.260 12.539 C 3.665 12.246,2.987 11.831,2.561 11.499 C 2.379 11.358,2.090 11.226,2.000 11.245 C 1.989 11.247,1.902 11.266,1.807 11.287 M1.807 15.287 C 1.573 15.340,1.348 15.567,1.286 15.814 C 1.183 16.221,1.345 16.480,1.980 16.926 C 2.994 17.638,3.695 17.973,6.564 19.121 C 9.838 20.431,10.450 20.629,11.519 20.721 C 12.415 20.799,13.249 20.677,14.380 20.301 C 15.405 19.960,19.777 18.194,20.480 17.837 C 21.418 17.361,22.408 16.710,22.595 16.447 C 22.903 16.014,22.678 15.395,22.173 15.286 C 21.900 15.228,21.715 15.280,21.446 15.492 C 21.023 15.825,20.344 16.241,19.740 16.539 C 19.175 16.817,15.350 18.370,14.226 18.777 C 13.943 18.880,13.502 19.020,13.246 19.090 C 12.798 19.211,12.750 19.216,12.000 19.216 C 11.250 19.216,11.202 19.211,10.754 19.090 C 10.498 19.020,10.057 18.880,9.774 18.778 C 8.668 18.377,4.828 16.818,4.260 16.539 C 3.665 16.246,2.987 15.831,2.561 15.499 C 2.379 15.358,2.090 15.226,2.000 15.245 C 1.989 15.247,1.902 15.266,1.807 15.287 " fill="#1C274C" stroke="none" fill-rule="evenodd"></path></svg>