<svg width="24" height="24" viewBox="0 0 24 24" fill="none" xmlns="http://www.w3.org/2000/svg"><path d="M11.380 4.024 C 10.760 4.116,10.240 4.257,9.391 4.564 C 8.807 4.775,4.895 6.331,3.820 6.780 C 2.068 7.511,1.696 7.884,2.216 8.383 C 2.545 8.697,3.079 8.936,6.651 10.363 C 10.454 11.882,10.777 11.980,12.000 11.980 C 13.223 11.980,13.540 11.884,17.342 10.365 C 20.930 8.932,21.455 8.697,21.784 8.383 C 22.304 7.884,21.932 7.511,20.180 6.780 C 19.182 6.363,15.197 4.775,14.640 4.573 C 13.463 4.145,12.988 4.040,12.140 4.021 C 11.788 4.013,11.446 4.015,11.380 4.024 M3.840 10.777 C 3.067 11.103,2.805 11.229,2.490 11.425 C 2.186 11.615,2.000 11.831,2.000 11.995 C 2.000 12.258,2.371 12.562,3.106 12.904 C 3.550 13.110,8.653 15.159,9.420 15.439 C 10.559 15.855,11.140 15.976,12.000 15.976 C 12.860 15.976,13.441 15.855,14.580 15.439 C 15.347 15.159,20.450 13.110,20.894 12.904 C 21.633 12.561,22.000 12.258,22.000 11.991 C 22.000 11.821,21.791 11.592,21.453 11.389 C 21.174 11.222,20.134 10.749,19.716 10.600 C 19.576 10.550,19.528 10.566,17.356 11.432 C 15.047 12.352,14.326 12.616,13.667 12.783 C 12.542 13.069,11.458 13.069,10.333 12.783 C 9.675 12.616,8.954 12.352,6.658 11.437 C 5.447 10.955,4.430 10.561,4.398 10.563 C 4.366 10.564,4.115 10.661,3.840 10.777 M3.840 14.777 C 3.067 15.103,2.805 15.229,2.490 15.425 C 2.186 15.615,2.000 15.831,2.000 15.995 C 2.000 16.258,2.371 16.562,3.106 16.904 C 3.550 17.110,8.653 19.159,9.420 19.439 C 10.559 19.855,11.140 19.976,12.000 19.976 C 12.860 19.976,13.441 19.855,14.580 19.439 C 15.347 19.159,20.450 17.110,20.894 16.904 C 21.633 16.561,22.000 16.258,22.000 15.991 C 22.000 15.821,21.791 15.592,21.453 15.389 C 21.172 15.220,20.118 14.741,19.716 14.599 C 19.576 14.550,19.523 14.568,17.356 15.432 C 15.047 16.352,14.326 16.616,13.667 16.783 C 12.542 17.069,11.458 17.069,10.333 16.783 C 9.675 16.616,8.954 16.352,6.658 15.437 C 5.447 14.955,4.430 14.561,4.398 14.563 C 4.366 14.564,4.115 14.661,3.840 14.777 " fill="#1C274C" stroke="none" fill-rule="evenodd"></path></svg>