<svg width="24" height="24" viewBox="0 0 24 24" fill="none" xmlns="http://www.w3.org/2000/svg"><path d="M10.940 2.177 C 10.355 2.363,9.455 2.891,8.740 3.468 C 8.245 3.867,7.395 4.734,7.003 5.240 C 5.467 7.219,4.479 9.617,4.093 12.300 C 3.987 13.040,3.996 14.624,4.111 15.240 C 4.718 18.503,6.998 20.978,10.133 21.778 C 10.444 21.857,11.195 21.978,11.220 21.953 C 11.231 21.942,11.236 17.468,11.230 12.010 L 11.220 2.088 10.940 2.177 M12.760 4.632 L 12.760 7.180 14.329 5.611 L 15.897 4.043 15.779 3.918 C 15.582 3.711,14.966 3.225,14.540 2.940 C 14.091 2.640,13.288 2.233,12.970 2.143 L 12.760 2.084 12.760 4.632 M14.830 7.230 L 12.760 9.300 12.760 10.980 L 12.760 12.660 15.506 9.914 L 18.251 7.169 18.045 6.809 C 17.728 6.255,16.985 5.168,16.920 5.162 C 16.909 5.161,15.968 6.092,14.830 7.230 M15.848 11.732 L 12.760 14.820 12.760 16.240 L 12.760 17.660 16.193 14.227 L 19.627 10.793 19.491 10.294 C 19.370 9.845,19.107 9.048,18.983 8.754 C 18.937 8.643,18.930 8.649,15.848 11.732 M16.329 16.251 L 12.760 19.820 12.760 20.891 L 12.760 21.963 12.970 21.937 C 13.386 21.886,14.130 21.714,14.531 21.576 C 17.567 20.532,19.670 17.808,19.963 14.540 C 20.010 14.019,19.985 12.770,19.927 12.711 C 19.911 12.695,18.292 14.288,16.329 16.251 " fill="#1C274C" stroke="none" fill-rule="evenodd"></path></svg>