<svg width="24" height="24" viewBox="0 0 24 24" fill="none" xmlns="http://www.w3.org/2000/svg"><path d="M8.835 2.044 C 7.237 2.146,6.501 2.616,6.205 3.721 C 6.038 4.342,6.020 4.697,6.020 7.301 L 6.020 9.782 6.121 9.981 C 6.208 10.152,6.433 10.356,7.721 11.431 C 9.691 13.074,10.399 13.603,10.960 13.851 C 11.486 14.083,12.084 14.140,12.583 14.005 C 13.362 13.795,13.865 13.444,16.299 11.414 C 17.568 10.355,17.792 10.152,17.879 9.981 L 17.980 9.782 17.993 7.761 C 18.011 4.773,17.938 3.895,17.614 3.241 C 17.224 2.452,16.553 2.136,15.058 2.041 C 14.319 1.994,9.583 1.996,8.835 2.044 M14.300 5.316 C 14.680 5.491,14.852 5.903,14.698 6.271 C 14.616 6.468,14.494 6.595,14.300 6.684 C 14.151 6.753,13.995 6.758,12.009 6.759 C 10.174 6.760,9.857 6.751,9.729 6.698 C 9.101 6.436,9.084 5.600,9.700 5.316 C 9.849 5.247,10.004 5.242,12.000 5.242 C 13.996 5.242,14.151 5.247,14.300 5.316 M4.195 6.500 C 3.052 6.992,2.432 7.874,2.186 9.360 C 2.035 10.265,2.020 10.706,2.021 14.060 C 2.021 16.933,2.030 17.417,2.092 17.957 C 2.259 19.411,2.547 20.182,3.155 20.800 C 3.790 21.446,4.568 21.743,6.056 21.908 C 6.643 21.974,7.174 21.980,12.020 21.980 C 16.870 21.980,17.395 21.974,17.957 21.909 C 19.433 21.738,20.195 21.449,20.822 20.822 C 21.570 20.074,21.850 19.150,21.963 17.058 C 22.019 16.022,21.990 10.821,21.925 10.200 C 21.741 8.444,21.350 7.525,20.527 6.919 C 20.256 6.719,19.785 6.468,19.588 6.419 L 19.480 6.391 19.479 8.106 C 19.479 9.992,19.461 10.177,19.242 10.620 C 19.015 11.076,18.801 11.286,17.207 12.612 C 14.756 14.650,14.191 15.048,13.305 15.357 C 11.998 15.814,10.788 15.610,9.440 14.707 C 8.898 14.344,8.374 13.929,6.799 12.618 C 5.199 11.286,4.984 11.076,4.758 10.620 C 4.539 10.177,4.521 9.992,4.521 8.110 C 4.520 6.768,4.509 6.400,4.470 6.402 C 4.442 6.403,4.319 6.447,4.195 6.500 M13.271 8.302 C 13.468 8.384,13.595 8.506,13.684 8.700 C 13.863 9.086,13.680 9.527,13.271 9.698 C 13.052 9.789,10.948 9.789,10.729 9.698 C 10.101 9.436,10.084 8.600,10.700 8.316 C 10.843 8.249,10.977 8.242,11.991 8.241 C 12.923 8.240,13.149 8.251,13.271 8.302 " fill="#1C274C" stroke="none" fill-rule="evenodd"></path></svg>