<svg width="24" height="24" viewBox="0 0 24 24" fill="none" xmlns="http://www.w3.org/2000/svg"><path d="M18.400 3.066 C 17.802 3.183,17.123 3.589,16.703 4.080 C 15.987 4.917,15.806 6.100,16.234 7.151 C 16.521 7.857,17.143 8.479,17.849 8.766 C 19.611 9.483,21.553 8.446,21.938 6.581 C 22.366 4.511,20.498 2.656,18.400 3.066 M7.300 5.027 C 6.803 5.042,5.837 5.116,5.500 5.165 C 5.094 5.224,4.477 5.384,4.189 5.504 C 3.854 5.644,3.332 5.994,3.126 6.218 C 2.494 6.904,2.219 7.722,2.072 9.360 C 1.999 10.176,1.999 15.824,2.072 16.640 C 2.195 18.011,2.379 18.703,2.784 19.330 C 3.032 19.714,3.247 19.933,3.617 20.178 C 4.011 20.439,4.317 20.570,4.829 20.697 C 5.912 20.966,6.268 20.980,12.000 20.980 C 17.732 20.980,18.088 20.966,19.171 20.697 C 19.683 20.570,19.989 20.439,20.383 20.178 C 20.753 19.933,20.968 19.714,21.216 19.330 C 21.888 18.291,22.030 16.967,21.986 12.180 C 21.973 10.794,21.951 9.612,21.937 9.553 L 21.912 9.446 21.669 9.625 C 20.601 10.411,19.195 10.689,17.921 10.366 L 17.630 10.292 16.405 11.309 C 15.731 11.869,14.960 12.492,14.692 12.694 C 13.583 13.525,12.846 13.839,12.000 13.839 C 11.154 13.839,10.419 13.526,9.308 12.694 C 8.523 12.106,5.410 9.495,5.346 9.371 C 5.199 9.087,5.232 8.751,5.429 8.516 C 5.548 8.375,5.805 8.242,5.960 8.241 C 6.244 8.239,6.362 8.324,8.061 9.737 C 10.868 12.073,11.245 12.320,12.006 12.320 C 12.698 12.320,13.191 12.017,15.170 10.377 C 15.714 9.925,16.160 9.545,16.160 9.531 C 16.160 9.517,16.038 9.388,15.889 9.243 C 15.081 8.459,14.625 7.510,14.520 6.395 C 14.482 5.999,14.513 5.381,14.584 5.097 L 14.609 5.000 11.134 5.008 C 9.223 5.013,7.498 5.021,7.300 5.027 " fill="#1C274C" stroke="none" fill-rule="evenodd"></path></svg>