<svg width="24" height="24" viewBox="0 0 24 24" fill="none" xmlns="http://www.w3.org/2000/svg"><path d="M8.083 2.062 C 7.521 2.184,6.909 2.571,6.573 3.017 C 6.414 3.229,6.200 3.597,6.200 3.659 C 6.200 3.670,8.810 3.680,12.000 3.680 C 15.190 3.680,17.800 3.669,17.800 3.656 C 17.800 3.584,17.532 3.145,17.368 2.948 C 17.002 2.509,16.454 2.178,15.894 2.059 C 15.497 1.975,8.472 1.978,8.083 2.062 M6.380 4.779 C 5.437 4.952,4.620 5.653,4.297 6.567 C 4.268 6.651,4.257 6.720,4.273 6.720 C 4.289 6.720,4.476 6.676,4.690 6.622 C 4.903 6.567,5.335 6.491,5.649 6.452 C 6.174 6.386,6.689 6.380,12.080 6.380 C 17.471 6.380,17.986 6.386,18.511 6.452 C 18.825 6.491,19.256 6.567,19.468 6.621 C 19.681 6.675,19.862 6.711,19.871 6.702 C 19.913 6.660,19.737 6.255,19.562 5.990 C 19.124 5.328,18.506 4.912,17.760 4.777 C 17.332 4.700,6.803 4.701,6.380 4.779 M6.360 7.585 C 4.931 7.691,4.285 7.890,3.756 8.389 C 3.431 8.696,3.200 9.116,3.091 9.600 C 2.991 10.042,3.004 11.277,3.117 12.240 C 3.268 13.523,3.878 18.115,3.978 18.722 C 4.247 20.345,4.560 21.005,5.292 21.483 C 5.724 21.765,6.261 21.893,7.284 21.958 C 8.152 22.013,15.848 22.013,16.716 21.958 C 17.739 21.893,18.276 21.765,18.708 21.483 C 19.440 21.005,19.753 20.345,20.022 18.722 C 20.122 18.115,20.732 13.523,20.883 12.240 C 20.996 11.277,21.009 10.042,20.909 9.600 C 20.700 8.673,20.104 8.062,19.153 7.801 C 18.358 7.583,18.444 7.586,12.260 7.579 C 9.114 7.575,6.459 7.578,6.360 7.585 M15.300 17.316 C 15.904 17.594,15.904 18.406,15.300 18.684 C 15.149 18.754,14.967 18.758,12.009 18.759 C 9.272 18.760,8.859 18.752,8.729 18.698 C 8.101 18.436,8.084 17.600,8.700 17.316 C 8.851 17.246,9.032 17.242,12.000 17.242 C 14.968 17.242,15.149 17.246,15.300 17.316 " fill="#1C274C" stroke="none" fill-rule="evenodd"></path></svg>