<svg width="24" height="24" viewBox="0 0 24 24" fill="none" xmlns="http://www.w3.org/2000/svg"><path d="M10.428 2.040 C 9.692 2.110,9.205 2.363,8.885 2.841 C 8.558 3.331,8.522 3.600,8.521 5.520 L 8.520 7.020 12.003 7.020 L 15.486 7.020 15.470 5.340 C 15.453 3.512,15.442 3.415,15.210 2.989 C 15.065 2.723,14.721 2.386,14.467 2.261 C 14.053 2.059,13.820 2.034,12.240 2.020 C 11.437 2.012,10.621 2.022,10.428 2.040 M13.267 3.803 C 13.516 3.896,13.758 4.241,13.758 4.500 C 13.758 4.759,13.516 5.104,13.267 5.197 C 13.197 5.224,12.719 5.240,12.000 5.240 C 11.281 5.240,10.803 5.224,10.733 5.197 C 10.484 5.104,10.242 4.759,10.242 4.500 C 10.242 4.242,10.452 3.928,10.700 3.817 C 10.853 3.748,13.091 3.736,13.267 3.803 M8.545 8.042 C 7.816 8.105,7.343 8.235,6.970 8.477 C 6.397 8.847,6.135 9.443,6.040 10.591 C 5.990 11.201,5.990 16.799,6.040 17.409 C 6.094 18.055,6.181 18.447,6.348 18.798 C 6.658 19.446,7.178 19.765,8.180 19.922 C 8.334 19.947,9.085 19.976,9.850 19.988 L 11.240 20.010 11.240 20.983 C 11.240 21.543,11.259 22.044,11.284 22.162 C 11.447 22.920,12.553 22.920,12.716 22.162 C 12.741 22.044,12.760 21.543,12.760 20.983 L 12.760 20.010 14.150 19.988 C 15.509 19.967,15.852 19.940,16.340 19.819 C 16.952 19.666,17.406 19.313,17.651 18.799 C 17.965 18.143,17.999 17.674,17.999 14.000 C 17.999 10.328,17.965 9.857,17.652 9.202 C 17.345 8.560,16.846 8.250,15.840 8.076 C 15.521 8.021,9.137 7.991,8.545 8.042 M12.180 11.285 C 12.480 11.368,12.650 11.552,12.722 11.870 C 12.777 12.114,12.693 12.315,12.340 12.786 L 12.004 13.233 12.852 13.247 C 13.546 13.258,13.722 13.273,13.820 13.327 C 14.196 13.533,14.345 13.995,14.147 14.341 C 13.974 14.643,12.494 16.580,12.397 16.631 C 12.011 16.832,11.547 16.722,11.373 16.387 C 11.173 16.002,11.223 15.799,11.662 15.213 L 11.996 14.767 11.148 14.753 C 10.454 14.742,10.278 14.727,10.180 14.673 C 9.837 14.485,9.667 14.055,9.809 13.732 C 9.836 13.670,10.230 13.124,10.685 12.517 C 11.507 11.419,11.586 11.335,11.860 11.269 C 11.990 11.237,12.012 11.238,12.180 11.285 " fill="#1C274C" stroke="none" fill-rule="evenodd"></path></svg>