<svg width="24" height="24" viewBox="0 0 24 24" fill="none" xmlns="http://www.w3.org/2000/svg"><path d="M11.400 2.024 C 10.235 2.162,9.559 2.346,8.700 2.761 C 7.079 3.543,5.830 4.911,5.306 6.480 C 4.783 8.041,4.958 9.931,5.776 11.580 C 6.280 12.597,6.744 13.188,7.935 14.332 C 8.860 15.221,8.933 15.333,9.000 15.977 C 9.059 16.553,9.249 16.860,9.673 17.068 L 9.900 17.180 12.000 17.180 L 14.100 17.180 14.327 17.068 C 14.748 16.862,14.942 16.542,15.003 15.954 C 15.067 15.337,15.147 15.214,16.065 14.332 C 17.256 13.188,17.720 12.597,18.224 11.580 C 19.041 9.933,19.216 8.039,18.694 6.480 C 18.354 5.462,17.592 4.371,16.732 3.671 C 15.722 2.848,14.541 2.323,13.200 2.100 C 12.831 2.039,11.683 1.990,11.400 2.024 M9.699 18.016 C 9.533 18.088,9.333 18.326,9.274 18.523 C 9.181 18.836,9.362 19.232,9.668 19.384 C 9.811 19.456,9.942 19.460,12.000 19.460 C 14.058 19.460,14.189 19.456,14.332 19.384 C 14.638 19.232,14.819 18.836,14.726 18.523 C 14.665 18.321,14.465 18.086,14.292 18.014 C 14.105 17.936,9.878 17.938,9.699 18.016 M10.380 20.556 C 9.864 20.795,9.758 21.402,10.165 21.788 C 10.239 21.858,10.351 21.934,10.413 21.958 C 10.561 22.013,13.365 22.015,13.565 21.959 C 13.756 21.906,14.026 21.614,14.062 21.423 C 14.132 21.051,13.957 20.708,13.620 20.555 C 13.475 20.488,13.327 20.482,12.000 20.482 C 10.663 20.482,10.527 20.488,10.380 20.556 " fill="#1C274C" stroke="none" fill-rule="evenodd"></path></svg>