<svg width="24" height="24" viewBox="0 0 24 24" fill="none" xmlns="http://www.w3.org/2000/svg"><path d="M10.900 2.024 C 9.019 2.222,7.465 2.962,6.197 4.266 C 5.582 4.899,5.213 5.415,4.821 6.198 C 3.576 8.680,3.766 11.691,5.313 14.004 C 5.720 14.612,6.084 15.008,7.107 15.953 C 8.055 16.829,8.333 17.136,8.431 17.415 C 8.495 17.600,8.555 18.571,8.559 19.500 C 8.563 20.485,8.707 20.934,9.166 21.394 C 9.671 21.898,10.054 21.997,11.500 21.997 C 12.946 21.997,13.329 21.898,13.834 21.394 C 14.305 20.922,14.438 20.491,14.440 19.420 C 14.443 18.509,14.501 17.617,14.570 17.415 C 14.666 17.137,14.944 16.830,15.893 15.953 C 16.396 15.489,16.942 14.954,17.107 14.765 C 18.697 12.946,19.343 10.389,18.815 8.006 C 18.138 4.954,15.756 2.637,12.760 2.116 C 12.317 2.039,11.258 1.987,10.900 2.024 M12.586 8.170 C 12.878 8.370,12.968 8.787,12.786 9.100 C 12.735 9.188,12.448 9.611,12.148 10.040 L 11.602 10.820 12.418 10.840 C 13.166 10.858,13.244 10.867,13.347 10.944 C 13.616 11.143,13.727 11.448,13.633 11.731 C 13.569 11.923,11.602 14.761,11.449 14.881 C 10.978 15.252,10.287 14.827,10.378 14.221 C 10.398 14.085,10.533 13.863,11.022 13.161 C 11.362 12.673,11.640 12.266,11.640 12.257 C 11.640 12.248,11.304 12.240,10.893 12.240 C 10.216 12.240,10.129 12.232,9.972 12.156 C 9.637 11.994,9.499 11.549,9.678 11.208 C 9.721 11.127,10.202 10.421,10.748 9.640 C 11.636 8.371,11.760 8.210,11.921 8.127 C 12.137 8.016,12.385 8.032,12.586 8.170 M13.066 19.926 C 13.035 20.222,12.945 20.389,12.759 20.499 C 12.628 20.575,12.554 20.580,11.500 20.580 C 10.446 20.580,10.372 20.575,10.241 20.499 C 10.055 20.389,9.965 20.222,9.934 19.926 L 9.909 19.680 11.500 19.680 L 13.091 19.680 13.066 19.926 " fill="#1C274C" stroke="none" fill-rule="evenodd"></path></svg>