<svg width="24" height="24" viewBox="0 0 24 24" fill="none" xmlns="http://www.w3.org/2000/svg"><path d="M10.900 2.024 C 9.019 2.222,7.465 2.962,6.197 4.266 C 5.582 4.899,5.213 5.415,4.821 6.198 C 3.576 8.680,3.766 11.691,5.313 14.004 C 5.720 14.612,6.084 15.008,7.107 15.953 C 8.055 16.829,8.333 17.136,8.431 17.415 C 8.495 17.600,8.555 18.571,8.559 19.500 C 8.563 20.485,8.707 20.934,9.166 21.394 C 9.671 21.898,10.054 21.997,11.500 21.997 C 12.946 21.997,13.329 21.898,13.834 21.394 C 14.305 20.922,14.438 20.491,14.440 19.420 C 14.443 18.509,14.501 17.617,14.570 17.415 C 14.666 17.137,14.944 16.830,15.893 15.953 C 16.396 15.489,16.942 14.954,17.107 14.765 C 18.697 12.946,19.343 10.389,18.815 8.006 C 18.138 4.954,15.756 2.637,12.760 2.116 C 12.317 2.039,11.258 1.987,10.900 2.024 M10.017 13.353 C 10.081 13.390,10.217 13.529,10.319 13.660 C 10.651 14.090,11.006 14.264,11.480 14.230 C 11.816 14.206,12.103 14.062,12.306 13.815 C 12.617 13.438,12.741 13.328,12.912 13.282 C 13.461 13.134,13.981 13.633,13.838 14.170 C 13.700 14.682,12.925 15.389,12.272 15.597 L 12.125 15.645 12.112 16.455 C 12.100 17.244,12.097 17.270,12.000 17.414 C 11.886 17.582,11.567 17.760,11.382 17.759 C 11.119 17.757,10.777 17.516,10.683 17.267 C 10.658 17.202,10.640 16.836,10.640 16.400 L 10.640 15.646 10.490 15.598 C 10.127 15.482,9.776 15.258,9.460 14.941 C 8.935 14.415,8.793 14.030,8.985 13.660 C 9.176 13.292,9.664 13.147,10.017 13.353 M13.066 19.926 C 13.035 20.222,12.945 20.389,12.759 20.499 C 12.628 20.575,12.554 20.580,11.500 20.580 C 10.446 20.580,10.372 20.575,10.241 20.499 C 10.055 20.389,9.965 20.222,9.934 19.926 L 9.909 19.680 11.500 19.680 L 13.091 19.680 13.066 19.926 " fill="#1C274C" stroke="none" fill-rule="evenodd"></path></svg>