<svg width="24" height="24" viewBox="0 0 24 24" fill="none" xmlns="http://www.w3.org/2000/svg"><path d="M11.891 2.058 C 11.506 2.178,11.218 2.420,11.077 2.740 C 11.038 2.828,10.880 3.386,10.725 3.980 C 10.570 4.574,10.400 5.186,10.347 5.340 C 10.168 5.858,9.879 6.454,9.614 6.852 C 9.252 7.396,8.751 7.905,7.596 8.903 C 7.055 9.371,6.562 9.813,6.500 9.887 C 6.317 10.103,6.161 10.480,6.136 10.764 C 6.121 10.932,6.252 12.629,6.516 15.680 C 6.737 18.243,6.929 20.421,6.943 20.520 C 7.034 21.190,7.480 21.724,8.114 21.921 C 8.357 21.996,8.492 22.000,11.042 22.000 C 13.974 22.000,14.228 21.985,15.089 21.762 C 17.568 21.121,19.502 19.233,20.140 16.832 C 20.194 16.627,20.412 15.461,20.623 14.240 C 21.065 11.694,21.066 11.670,20.823 11.177 C 20.649 10.827,20.376 10.561,20.009 10.387 L 19.740 10.260 16.820 10.240 C 13.968 10.220,13.897 10.218,13.761 10.138 C 13.562 10.021,13.370 9.752,13.340 9.550 C 13.323 9.429,13.415 8.769,13.660 7.280 C 14.052 4.884,14.084 4.612,14.036 4.059 C 13.935 2.895,13.568 2.350,12.706 2.084 C 12.396 1.989,12.139 1.981,11.891 2.058 M2.740 9.538 C 2.519 9.618,2.334 9.842,2.280 10.095 C 2.248 10.241,2.239 11.956,2.248 16.040 L 2.260 21.780 2.364 22.000 C 2.513 22.317,2.651 22.461,2.946 22.606 C 3.256 22.758,3.578 22.779,3.907 22.666 C 4.308 22.529,4.647 22.109,4.702 21.680 C 4.726 21.491,3.795 10.501,3.723 10.125 C 3.631 9.641,3.185 9.375,2.740 9.538 " fill="#1C274C" stroke="none" fill-rule="evenodd"></path></svg>