<svg width="24" height="24" viewBox="0 0 24 24" fill="none" xmlns="http://www.w3.org/2000/svg"><path d="M9.343 3.283 C 8.003 3.397,6.755 3.898,5.660 4.759 C 5.188 5.130,2.031 8.306,1.684 8.758 C 0.283 10.584,-0.119 12.934,0.601 15.090 C 1.283 17.132,2.897 18.740,4.940 19.413 C 5.681 19.657,6.643 19.808,6.923 19.724 C 7.355 19.594,7.586 19.130,7.418 18.729 C 7.282 18.402,7.105 18.297,6.597 18.240 C 4.973 18.056,3.625 17.276,2.723 15.998 C 1.767 14.644,1.504 12.855,2.027 11.260 C 2.159 10.856,2.431 10.309,2.693 9.921 C 3.059 9.378,6.155 6.249,6.778 5.792 C 7.361 5.364,8.145 5.015,8.880 4.857 C 9.328 4.760,10.215 4.739,10.700 4.814 C 12.561 5.101,14.073 6.265,14.818 7.985 C 15.467 9.481,15.353 11.333,14.527 12.748 C 14.238 13.242,13.999 13.524,13.074 14.461 C 12.497 15.044,12.141 15.436,12.102 15.529 C 11.933 15.933,12.174 16.405,12.609 16.522 C 13.000 16.628,13.133 16.538,14.228 15.426 C 15.431 14.205,15.853 13.624,16.234 12.666 C 16.603 11.737,16.733 11.070,16.735 10.100 C 16.736 9.351,16.693 9.002,16.519 8.336 C 15.678 5.133,12.648 2.999,9.343 3.283 M17.085 4.281 C 16.916 4.320,16.766 4.429,16.651 4.598 C 16.331 5.068,16.641 5.676,17.232 5.739 C 18.352 5.857,19.233 6.166,19.991 6.706 C 20.367 6.973,20.926 7.522,21.204 7.895 C 21.677 8.530,22.051 9.421,22.184 10.231 C 22.278 10.805,22.241 11.758,22.103 12.312 C 21.922 13.036,21.630 13.657,21.187 14.255 C 20.937 14.592,18.460 17.120,17.720 17.792 C 16.640 18.774,15.468 19.240,14.083 19.240 C 13.466 19.240,12.947 19.159,12.414 18.981 C 11.578 18.701,10.942 18.307,10.317 17.683 C 9.693 17.058,9.299 16.422,9.019 15.586 C 8.676 14.560,8.670 13.331,9.004 12.310 C 9.336 11.292,9.664 10.816,10.887 9.577 C 11.484 8.973,11.861 8.561,11.899 8.469 C 12.174 7.809,11.415 7.208,10.792 7.592 C 10.618 7.700,9.038 9.301,8.753 9.660 C 7.677 11.009,7.142 12.746,7.279 14.434 C 7.481 16.898,8.910 19.002,11.100 20.060 C 13.490 21.214,16.269 20.888,18.380 19.207 C 18.718 18.938,21.139 16.547,21.809 15.821 C 22.765 14.785,23.347 13.689,23.598 12.452 C 23.908 10.921,23.712 9.423,23.017 8.020 C 22.214 6.401,20.800 5.171,19.084 4.599 C 18.405 4.372,17.390 4.211,17.085 4.281 " fill="#1C274C" stroke="none" fill-rule="evenodd"></path></svg>