<svg width="24" height="24" viewBox="0 0 24 24" fill="none" xmlns="http://www.w3.org/2000/svg"><path d="M16.570 1.282 C 15.827 1.374,15.134 1.645,14.590 2.053 C 14.297 2.274,10.411 6.066,10.340 6.201 C 10.014 6.824,10.661 7.538,11.290 7.249 C 11.382 7.207,12.195 6.441,13.398 5.265 C 14.475 4.211,15.452 3.285,15.568 3.207 C 16.207 2.776,17.175 2.648,18.060 2.878 C 18.454 2.980,19.029 3.253,19.421 3.523 C 19.762 3.759,20.312 4.314,20.546 4.660 C 21.384 5.895,21.464 7.394,20.741 8.348 C 20.661 8.454,19.926 9.196,19.108 9.997 C 18.290 10.798,17.576 11.514,17.523 11.587 C 17.382 11.782,17.363 12.099,17.479 12.338 C 17.580 12.547,17.824 12.715,18.074 12.748 C 18.385 12.790,18.484 12.710,20.169 11.061 C 21.039 10.208,21.840 9.392,21.950 9.246 C 22.723 8.211,22.942 6.935,22.582 5.551 C 22.042 3.473,20.188 1.750,18.057 1.346 C 17.641 1.267,16.933 1.236,16.570 1.282 M5.785 3.288 C 5.433 3.384,5.187 3.814,5.282 4.166 C 5.349 4.416,7.439 7.528,7.607 7.629 C 8.037 7.888,8.610 7.657,8.711 7.184 C 8.784 6.841,8.745 6.767,7.587 5.042 C 6.434 3.326,6.424 3.314,6.080 3.266 C 6.003 3.255,5.870 3.265,5.785 3.288 M1.785 7.288 C 1.699 7.311,1.563 7.397,1.481 7.479 C 1.187 7.773,1.186 8.226,1.481 8.521 C 1.621 8.661,1.790 8.722,4.704 9.691 C 6.396 10.253,7.829 10.724,7.890 10.737 C 8.077 10.778,8.359 10.681,8.520 10.520 C 8.813 10.227,8.813 9.773,8.519 9.479 C 8.379 9.339,8.209 9.277,5.296 8.308 C 3.604 7.744,2.157 7.275,2.080 7.265 C 2.003 7.254,1.870 7.265,1.785 7.288 M6.007 11.280 C 5.934 11.297,5.816 11.354,5.744 11.405 C 5.521 11.567,4.204 13.042,3.973 13.389 C 3.427 14.209,3.175 15.293,3.280 16.374 C 3.547 19.142,5.636 21.404,8.220 21.722 C 9.288 21.853,10.465 21.489,11.226 20.791 C 11.542 20.502,15.534 16.121,15.636 15.953 C 15.749 15.765,15.765 15.443,15.670 15.259 C 15.544 15.018,15.254 14.839,14.991 14.841 C 14.673 14.843,14.624 14.890,12.427 17.292 C 11.270 18.557,10.244 19.657,10.147 19.736 C 9.935 19.911,9.456 20.135,9.168 20.195 C 8.439 20.349,7.530 20.143,6.793 19.657 C 6.427 19.416,5.799 18.789,5.555 18.420 C 4.747 17.199,4.535 15.776,4.994 14.649 C 5.151 14.262,5.272 14.102,6.065 13.233 C 6.775 12.455,6.918 12.251,6.919 12.009 C 6.921 11.754,6.741 11.454,6.520 11.342 C 6.378 11.269,6.162 11.243,6.007 11.280 " fill="#1C274C" stroke="none" fill-rule="evenodd"></path></svg>