<svg width="24" height="24" viewBox="0 0 24 24" fill="none" xmlns="http://www.w3.org/2000/svg"><path d="M8.440 2.043 C 5.815 2.137,4.484 2.504,3.549 3.393 C 2.549 4.344,2.163 5.596,2.041 8.280 C 1.989 9.450,1.989 14.605,2.041 15.740 C 2.160 18.285,2.507 19.501,3.379 20.433 C 4.323 21.444,5.571 21.833,8.260 21.959 C 9.399 22.012,14.601 22.012,15.740 21.959 C 18.285 21.840,19.501 21.493,20.433 20.621 C 21.360 19.755,21.742 18.682,21.927 16.420 C 21.966 15.951,21.980 14.772,21.980 12.000 C 21.980 8.151,21.964 7.600,21.816 6.500 C 21.584 4.775,20.991 3.670,19.928 2.982 C 18.975 2.366,17.835 2.129,15.393 2.041 C 14.150 1.996,9.732 1.997,8.440 2.043 M11.440 7.320 C 12.826 7.494,13.606 8.154,13.856 9.367 C 13.941 9.780,13.999 10.632,13.999 11.460 C 13.998 12.034,13.987 12.165,13.925 12.302 C 13.673 12.857,12.920 12.905,12.623 12.384 C 12.534 12.228,12.528 12.170,12.503 11.220 C 12.463 9.742,12.383 9.324,12.093 9.085 C 11.767 8.816,11.290 8.762,9.240 8.762 C 7.123 8.761,6.692 8.817,6.375 9.135 C 6.059 9.451,6.002 9.886,6.002 12.000 C 6.002 14.023,6.060 14.517,6.331 14.826 C 6.608 15.142,6.902 15.202,8.340 15.236 C 9.538 15.265,9.589 15.274,9.788 15.487 C 9.905 15.612,10.000 15.847,9.999 16.009 C 9.998 16.191,9.875 16.443,9.727 16.568 C 9.498 16.760,9.388 16.774,8.301 16.747 C 6.517 16.703,5.929 16.541,5.318 15.924 C 4.856 15.458,4.652 14.959,4.561 14.075 C 4.508 13.552,4.508 10.448,4.561 9.925 C 4.647 9.091,4.857 8.553,5.266 8.120 C 5.799 7.557,6.396 7.346,7.660 7.277 C 8.402 7.237,11.010 7.266,11.440 7.320 M16.920 7.323 C 17.762 7.422,18.233 7.624,18.682 8.076 C 19.144 8.542,19.348 9.040,19.439 9.925 C 19.492 10.448,19.492 13.552,19.439 14.075 C 19.353 14.909,19.143 15.447,18.734 15.880 C 18.449 16.181,18.163 16.365,17.765 16.504 C 17.245 16.684,16.816 16.725,15.200 16.748 C 13.641 16.770,12.685 16.730,12.172 16.623 C 11.302 16.439,10.716 16.020,10.386 15.345 C 10.118 14.794,10.044 14.323,10.012 12.939 C 9.986 11.856,10.001 11.741,10.188 11.518 C 10.504 11.143,11.138 11.197,11.379 11.620 C 11.466 11.771,11.472 11.837,11.497 12.780 C 11.538 14.310,11.618 14.693,11.948 14.945 C 12.269 15.189,12.446 15.209,14.476 15.229 C 16.902 15.253,17.329 15.201,17.655 14.840 C 17.941 14.524,17.998 14.052,17.998 12.000 C 17.998 9.886,17.941 9.451,17.625 9.135 C 17.338 8.848,16.838 8.762,15.449 8.761 C 14.584 8.760,14.450 8.736,14.245 8.548 C 14.116 8.430,14.002 8.172,14.002 8.000 C 14.002 7.707,14.259 7.352,14.513 7.296 C 14.572 7.284,14.638 7.266,14.660 7.257 C 14.731 7.228,16.569 7.281,16.920 7.323 " fill="#1C274C" stroke="none" fill-rule="evenodd"></path></svg>