<svg width="24" height="24" viewBox="0 0 24 24" fill="none" xmlns="http://www.w3.org/2000/svg"><path d="M14.290 2.284 C 12.994 2.394,11.749 2.875,10.708 3.667 C 10.571 3.771,10.177 4.134,9.831 4.474 C 9.134 5.159,9.049 5.292,9.097 5.615 C 9.171 6.107,9.731 6.405,10.160 6.181 C 10.237 6.141,10.579 5.836,10.920 5.504 C 11.755 4.690,12.337 4.313,13.200 4.026 C 13.935 3.781,14.905 3.698,15.660 3.814 C 17.455 4.091,18.966 5.214,19.737 6.844 C 20.307 8.048,20.396 9.534,19.974 10.800 C 19.687 11.663,19.310 12.245,18.496 13.080 C 18.164 13.421,17.859 13.763,17.819 13.840 C 17.528 14.397,18.106 15.073,18.707 14.879 C 18.878 14.824,19.738 14.005,20.178 13.480 C 21.890 11.436,22.233 8.464,21.035 6.068 C 20.401 4.801,19.373 3.742,18.120 3.068 C 16.973 2.450,15.607 2.171,14.290 2.284 M5.340 9.116 C 5.134 9.168,5.076 9.216,4.439 9.866 C 3.549 10.774,3.068 11.486,2.722 12.405 C 2.390 13.286,2.266 13.983,2.271 14.940 C 2.280 17.025,3.206 18.931,4.860 20.268 C 5.679 20.930,6.848 21.450,7.953 21.644 C 8.502 21.741,9.505 21.760,10.040 21.684 C 11.155 21.525,12.236 21.090,13.160 20.427 C 13.540 20.154,14.734 19.006,14.830 18.821 C 14.916 18.655,14.911 18.333,14.821 18.145 C 14.711 17.918,14.445 17.760,14.170 17.760 C 14.050 17.760,13.900 17.789,13.828 17.826 C 13.758 17.862,13.430 18.156,13.100 18.478 C 12.444 19.120,12.087 19.393,11.546 19.666 C 10.296 20.297,8.811 20.417,7.490 19.995 C 6.698 19.742,6.042 19.349,5.428 18.762 C 4.942 18.296,4.628 17.880,4.345 17.325 C 3.942 16.534,3.760 15.774,3.760 14.877 C 3.760 14.018,3.950 13.214,4.334 12.454 C 4.607 11.913,4.880 11.556,5.522 10.900 C 5.844 10.570,6.138 10.242,6.174 10.172 C 6.275 9.975,6.260 9.661,6.138 9.453 C 5.985 9.193,5.631 9.043,5.340 9.116 M13.940 9.128 C 13.802 9.164,13.470 9.479,11.528 11.415 C 10.289 12.650,9.238 13.721,9.191 13.796 C 9.130 13.893,9.107 13.996,9.107 14.163 C 9.107 14.440,9.227 14.656,9.463 14.802 C 9.663 14.925,10.012 14.929,10.204 14.809 C 10.279 14.762,11.350 13.711,12.585 12.472 C 14.698 10.352,14.832 10.209,14.875 10.031 C 15.014 9.456,14.519 8.978,13.940 9.128 " fill="#1C274C" stroke="none" fill-rule="evenodd"></path></svg>