<svg width="24" height="24" viewBox="0 0 24 24" fill="none" xmlns="http://www.w3.org/2000/svg"><path d="M8.440 2.043 C 5.815 2.137,4.484 2.504,3.549 3.393 C 2.549 4.344,2.163 5.596,2.041 8.280 C 1.989 9.450,1.989 14.605,2.041 15.740 C 2.160 18.285,2.507 19.501,3.379 20.433 C 4.323 21.444,5.571 21.833,8.260 21.959 C 9.399 22.012,14.601 22.012,15.740 21.959 C 18.285 21.840,19.501 21.493,20.433 20.621 C 21.360 19.755,21.742 18.682,21.927 16.420 C 21.966 15.951,21.980 14.772,21.980 12.000 C 21.980 8.151,21.964 7.600,21.816 6.500 C 21.584 4.775,20.991 3.670,19.928 2.982 C 18.975 2.366,17.835 2.129,15.393 2.041 C 14.150 1.996,9.732 1.997,8.440 2.043 M9.836 7.339 C 9.977 7.412,10.146 7.596,10.197 7.733 C 10.294 7.989,10.234 8.297,10.047 8.494 C 9.875 8.676,9.726 8.731,9.318 8.763 C 8.814 8.803,8.496 8.888,8.060 9.099 C 7.222 9.505,6.604 10.260,6.355 11.180 C 6.233 11.630,6.233 12.370,6.355 12.820 C 6.655 13.927,7.482 14.777,8.600 15.126 C 8.859 15.207,8.983 15.220,9.500 15.220 C 10.017 15.220,10.141 15.207,10.400 15.126 C 11.703 14.719,12.574 13.673,12.723 12.334 C 12.793 11.703,12.798 11.685,12.928 11.537 C 13.096 11.345,13.260 11.269,13.500 11.269 C 13.807 11.269,14.095 11.460,14.197 11.733 C 14.301 12.008,14.211 12.856,14.015 13.460 C 13.481 15.094,12.141 16.289,10.420 16.664 C 9.980 16.759,9.020 16.759,8.580 16.664 C 7.371 16.401,6.361 15.751,5.652 14.782 C 5.425 14.471,5.066 13.757,4.963 13.410 C 4.611 12.221,4.717 10.959,5.261 9.880 C 5.898 8.617,6.991 7.742,8.369 7.393 C 8.960 7.243,9.608 7.219,9.836 7.339 M15.391 7.344 C 16.284 7.503,17.149 7.956,17.818 8.615 C 19.291 10.065,19.663 12.286,18.739 14.120 C 17.964 15.657,16.519 16.613,14.772 16.744 C 14.427 16.769,14.391 16.765,14.192 16.667 C 13.857 16.501,13.707 16.196,13.777 15.822 C 13.808 15.659,13.996 15.425,14.167 15.336 C 14.231 15.303,14.478 15.260,14.716 15.239 C 15.224 15.194,15.583 15.093,16.004 14.875 C 16.804 14.461,17.404 13.709,17.645 12.820 C 17.712 12.572,17.732 12.388,17.732 12.000 C 17.732 11.612,17.712 11.428,17.645 11.180 C 17.394 10.254,16.764 9.495,15.900 9.079 C 15.393 8.835,15.143 8.782,14.500 8.782 C 13.844 8.782,13.605 8.835,13.060 9.099 C 12.053 9.587,11.404 10.522,11.277 11.666 C 11.253 11.883,11.225 12.119,11.215 12.191 C 11.178 12.452,10.793 12.757,10.498 12.759 C 10.313 12.760,9.994 12.582,9.880 12.414 C 9.748 12.218,9.726 11.792,9.819 11.234 C 10.008 10.102,10.610 9.052,11.475 8.344 C 12.580 7.440,13.960 7.088,15.391 7.344 " fill="#1C274C" stroke="none" fill-rule="evenodd"></path></svg>