<svg width="24" height="24" viewBox="0 0 24 24" fill="none" xmlns="http://www.w3.org/2000/svg"><path d="M7.420 2.283 C 5.119 2.462,3.018 3.887,1.970 5.980 C 0.769 8.377,1.091 11.205,2.804 13.305 C 3.117 13.689,3.383 13.811,3.711 13.722 C 3.925 13.665,4.112 13.505,4.205 13.302 C 4.358 12.965,4.289 12.755,3.839 12.180 C 3.376 11.588,3.020 10.814,2.851 10.028 C 2.752 9.569,2.752 8.431,2.851 7.972 C 3.252 6.110,4.571 4.615,6.332 4.026 C 7.073 3.778,7.047 3.780,10.000 3.780 C 12.432 3.780,12.733 3.787,13.028 3.851 C 15.130 4.305,16.697 5.871,17.149 7.972 C 17.248 8.431,17.248 9.569,17.149 10.028 C 16.849 11.422,16.050 12.603,14.881 13.381 C 14.399 13.702,13.883 13.931,13.280 14.091 L 12.820 14.213 11.297 14.237 L 9.774 14.260 9.605 14.372 C 9.311 14.566,9.192 14.873,9.281 15.204 C 9.340 15.422,9.569 15.657,9.781 15.715 C 9.988 15.773,12.089 15.774,12.646 15.718 C 15.564 15.420,17.930 13.333,18.583 10.480 C 19.207 7.752,18.038 4.879,15.680 3.350 C 14.716 2.724,13.664 2.370,12.508 2.280 C 11.934 2.235,8.000 2.237,7.420 2.283 M11.420 8.281 C 9.108 8.469,7.018 9.887,5.970 11.980 C 5.270 13.377,5.073 14.978,5.417 16.480 C 6.070 19.334,8.435 21.420,11.354 21.718 C 11.899 21.773,16.101 21.773,16.646 21.718 C 18.975 21.480,20.990 20.096,22.030 18.020 C 23.228 15.629,22.912 12.818,21.208 10.709 C 20.947 10.386,20.747 10.269,20.459 10.269 C 20.142 10.269,19.908 10.427,19.782 10.729 C 19.648 11.049,19.720 11.256,20.155 11.812 C 20.622 12.410,20.973 13.171,21.145 13.962 C 21.247 14.431,21.250 15.561,21.149 16.028 C 20.849 17.422,20.050 18.603,18.881 19.381 C 18.404 19.699,17.890 19.928,17.280 20.094 L 16.820 20.220 14.000 20.220 L 11.180 20.220 10.720 20.094 C 9.817 19.848,9.050 19.424,8.402 18.815 C 7.540 18.004,6.951 16.847,6.796 15.660 C 6.740 15.225,6.771 14.338,6.858 13.940 C 7.258 12.102,8.594 10.600,10.340 10.024 C 11.010 9.804,11.120 9.792,12.720 9.765 C 14.369 9.738,14.355 9.740,14.574 9.480 C 14.866 9.133,14.784 8.630,14.395 8.372 L 14.226 8.260 13.023 8.254 C 12.361 8.251,11.640 8.263,11.420 8.281 " fill="#1C274C" stroke="none" fill-rule="evenodd"></path></svg>