<svg width="24" height="24" viewBox="0 0 24 24" fill="none" xmlns="http://www.w3.org/2000/svg"><path d="M7.420 5.281 C 5.103 5.472,3.018 6.887,1.970 8.980 C 1.270 10.377,1.073 11.978,1.417 13.480 C 2.070 16.334,4.435 18.420,7.354 18.718 C 7.896 18.773,9.017 18.772,9.219 18.715 C 9.431 18.657,9.660 18.422,9.719 18.204 C 9.808 17.873,9.689 17.566,9.395 17.372 L 9.226 17.260 8.203 17.235 C 7.236 17.211,7.155 17.204,6.720 17.089 C 5.833 16.857,5.055 16.429,4.402 15.815 C 3.540 15.004,2.951 13.847,2.796 12.660 C 2.740 12.225,2.771 11.338,2.858 10.940 C 3.257 9.106,4.584 7.610,6.329 7.027 C 6.920 6.829,7.203 6.790,8.240 6.763 C 9.313 6.735,9.369 6.723,9.574 6.480 C 9.866 6.133,9.784 5.630,9.395 5.372 C 9.227 5.261,9.221 5.260,8.523 5.254 C 8.136 5.250,7.640 5.263,7.420 5.281 M14.807 5.287 C 14.276 5.406,14.085 6.125,14.480 6.520 C 14.685 6.725,14.876 6.760,15.777 6.760 C 16.542 6.760,16.979 6.812,17.489 6.963 C 19.174 7.463,20.537 8.826,21.037 10.511 C 21.309 11.428,21.309 12.573,21.036 13.491 C 20.537 15.176,19.176 16.537,17.491 17.036 C 16.979 17.188,16.543 17.240,15.777 17.240 C 15.374 17.240,14.951 17.260,14.838 17.284 C 14.080 17.447,14.080 18.553,14.838 18.716 C 15.276 18.810,16.671 18.746,17.385 18.599 C 18.229 18.425,19.205 17.998,19.920 17.490 C 20.409 17.142,21.146 16.405,21.488 15.920 C 22.959 13.838,23.145 11.141,21.974 8.880 C 21.659 8.271,21.283 7.763,20.760 7.240 C 19.594 6.074,18.161 5.415,16.504 5.281 C 15.882 5.231,15.044 5.234,14.807 5.287 M8.807 11.287 C 8.568 11.341,8.341 11.572,8.289 11.816 C 8.197 12.246,8.431 12.629,8.838 12.716 C 9.125 12.777,14.875 12.777,15.162 12.716 C 15.920 12.553,15.920 11.447,15.162 11.284 C 14.899 11.228,9.061 11.230,8.807 11.287 " fill="#1C274C" stroke="none" fill-rule="evenodd"></path></svg>