<svg width="24" height="24" viewBox="0 0 24 24" fill="none" xmlns="http://www.w3.org/2000/svg"><path d="M6.500 2.260 C 6.478 2.267,6.411 2.284,6.351 2.297 C 6.072 2.358,5.809 2.765,5.850 3.070 C 5.873 3.246,6.768 5.439,6.894 5.631 C 6.994 5.783,7.320 5.960,7.500 5.960 C 7.685 5.960,8.006 5.782,8.117 5.618 C 8.178 5.528,8.220 5.398,8.231 5.267 C 8.247 5.076,8.212 4.972,7.761 3.880 C 7.492 3.231,7.239 2.645,7.198 2.578 C 7.084 2.392,6.670 2.203,6.500 2.260 M14.460 2.269 C 13.046 2.328,11.683 2.790,10.575 3.585 C 10.082 3.939,9.442 4.522,9.350 4.700 C 9.251 4.894,9.243 5.212,9.333 5.386 C 9.457 5.627,9.756 5.801,10.040 5.799 C 10.219 5.797,10.427 5.666,10.854 5.286 C 11.783 4.457,12.649 4.033,13.820 3.833 C 14.431 3.729,15.413 3.747,15.980 3.874 C 18.510 4.439,20.240 6.448,20.240 8.820 C 20.240 9.886,19.907 10.864,19.246 11.742 C 19.057 11.993,18.617 12.435,17.720 13.274 C 17.027 13.923,16.416 14.514,16.363 14.587 C 16.130 14.910,16.240 15.423,16.587 15.626 C 16.797 15.750,17.110 15.768,17.302 15.669 C 17.522 15.556,20.016 13.185,20.304 12.816 C 21.054 11.856,21.482 10.904,21.664 9.791 C 21.743 9.312,21.744 8.331,21.666 7.860 C 21.234 5.248,19.262 3.170,16.563 2.481 C 15.975 2.331,15.094 2.242,14.460 2.269 M3.200 5.403 C 2.956 5.505,2.760 5.810,2.760 6.086 C 2.760 6.317,2.892 6.571,3.071 6.688 C 3.153 6.741,4.484 7.400,6.029 8.153 C 8.954 9.580,8.983 9.592,9.283 9.500 C 9.560 9.416,9.798 9.092,9.798 8.800 C 9.798 8.628,9.683 8.370,9.554 8.251 C 9.500 8.202,8.179 7.537,6.618 6.774 C 3.977 5.483,3.763 5.386,3.540 5.374 C 3.408 5.367,3.255 5.380,3.200 5.403 M5.441 9.289 C 5.283 9.324,5.184 9.404,4.608 9.974 C 3.670 10.901,3.321 11.356,2.921 12.180 C 2.470 13.106,2.278 13.946,2.275 15.000 C 2.270 16.847,2.976 18.495,4.323 19.775 C 6.396 21.746,9.437 22.287,12.102 21.158 C 12.909 20.816,13.553 20.381,14.312 19.662 C 14.662 19.331,14.731 19.210,14.731 18.934 C 14.731 18.514,14.419 18.200,14.003 18.200 C 13.732 18.200,13.622 18.262,13.207 18.649 C 12.342 19.456,11.471 19.914,10.360 20.148 C 9.878 20.250,8.638 20.250,8.165 20.148 C 7.037 19.905,6.143 19.444,5.374 18.708 C 4.904 18.259,4.596 17.854,4.328 17.331 C 3.613 15.940,3.564 14.381,4.190 12.980 C 4.494 12.301,4.737 11.978,5.623 11.080 C 6.206 10.489,6.320 10.353,6.359 10.205 C 6.446 9.879,6.328 9.563,6.052 9.386 C 5.866 9.266,5.676 9.236,5.441 9.289 " stroke="none" fill-rule="evenodd" fill="black"></path></svg>