<svg width="24" height="24" viewBox="0 0 24 24" fill="none" xmlns="http://www.w3.org/2000/svg"><path d="M2.811 5.279 C 2.536 5.344,2.316 5.587,2.260 5.885 C 2.197 6.220,2.450 6.624,2.781 6.715 C 3.007 6.778,19.993 6.778,20.219 6.715 C 20.431 6.657,20.660 6.422,20.719 6.204 C 20.808 5.873,20.689 5.566,20.394 5.372 L 20.226 5.260 11.583 5.254 C 6.829 5.250,2.882 5.262,2.811 5.279 M2.811 10.279 C 2.536 10.344,2.316 10.587,2.260 10.885 C 2.197 11.220,2.450 11.624,2.781 11.715 C 3.007 11.778,19.993 11.778,20.219 11.715 C 20.431 11.657,20.660 11.422,20.719 11.204 C 20.808 10.873,20.689 10.566,20.394 10.372 L 20.226 10.260 11.583 10.254 C 6.829 10.250,2.882 10.262,2.811 10.279 M13.785 14.288 C 13.433 14.384,13.187 14.814,13.282 15.167 C 13.306 15.257,13.347 15.366,13.373 15.409 C 13.434 15.511,16.962 18.540,17.146 18.649 C 17.335 18.761,17.665 18.761,17.854 18.649 C 18.038 18.540,21.566 15.511,21.627 15.409 C 21.808 15.107,21.764 14.724,21.520 14.480 C 21.298 14.258,20.931 14.193,20.666 14.329 C 20.626 14.350,19.901 14.959,19.057 15.683 C 18.212 16.408,17.511 17.000,17.500 17.000 C 17.489 17.000,16.788 16.408,15.943 15.683 C 15.099 14.959,14.374 14.349,14.334 14.328 C 14.210 14.263,13.949 14.244,13.785 14.288 M2.811 15.278 C 2.536 15.345,2.316 15.587,2.260 15.885 C 2.197 16.220,2.450 16.624,2.781 16.715 C 3.004 16.777,9.996 16.777,10.219 16.715 C 10.431 16.657,10.660 16.422,10.719 16.204 C 10.808 15.873,10.689 15.566,10.395 15.372 L 10.226 15.260 6.583 15.254 C 4.579 15.250,2.882 15.261,2.811 15.278 " fill="#1C274C" stroke="none" fill-rule="evenodd"></path></svg>