<svg width="24" height="24" viewBox="0 0 24 24" fill="none" xmlns="http://www.w3.org/2000/svg"><path d="M2.811 5.279 C 2.536 5.344,2.316 5.587,2.260 5.885 C 2.197 6.220,2.450 6.624,2.781 6.715 C 3.007 6.778,19.993 6.778,20.219 6.715 C 20.431 6.657,20.660 6.422,20.719 6.204 C 20.808 5.873,20.689 5.566,20.394 5.372 L 20.226 5.260 11.583 5.254 C 6.829 5.250,2.882 5.262,2.811 5.279 M14.749 9.063 C 14.136 9.211,13.613 9.645,13.330 10.240 C 12.827 11.294,12.912 12.370,13.580 13.405 C 14.192 14.354,15.074 15.237,16.420 16.250 C 16.993 16.681,17.225 16.799,17.500 16.799 C 17.775 16.799,18.007 16.681,18.580 16.250 C 19.926 15.237,20.808 14.354,21.420 13.405 C 22.088 12.370,22.173 11.294,21.670 10.240 C 21.317 9.497,20.566 9.003,19.788 9.001 C 19.140 8.999,18.346 9.344,17.734 9.895 C 17.621 9.997,17.516 10.080,17.500 10.080 C 17.484 10.080,17.379 9.997,17.266 9.895 C 16.481 9.189,15.528 8.874,14.749 9.063 M2.811 10.278 C 2.536 10.345,2.316 10.587,2.260 10.885 C 2.197 11.220,2.450 11.624,2.781 11.715 C 3.004 11.777,8.996 11.777,9.219 11.715 C 9.431 11.657,9.660 11.422,9.719 11.204 C 9.808 10.873,9.689 10.566,9.395 10.372 L 9.226 10.260 6.083 10.254 C 4.354 10.250,2.882 10.261,2.811 10.278 M2.811 15.278 C 2.536 15.345,2.316 15.587,2.260 15.885 C 2.197 16.220,2.450 16.624,2.781 16.715 C 3.004 16.777,9.996 16.777,10.219 16.715 C 10.431 16.657,10.660 16.422,10.719 16.204 C 10.808 15.873,10.689 15.566,10.395 15.372 L 10.226 15.260 6.583 15.254 C 4.579 15.250,2.882 15.261,2.811 15.278 " fill="#1C274C" stroke="none" fill-rule="evenodd"></path></svg>