<svg width="24" height="24" viewBox="0 0 24 24" fill="none" xmlns="http://www.w3.org/2000/svg"><path d="M2.811 5.279 C 2.536 5.344,2.316 5.587,2.260 5.885 C 2.197 6.220,2.450 6.624,2.781 6.715 C 3.007 6.778,19.993 6.778,20.219 6.715 C 20.431 6.657,20.660 6.422,20.719 6.204 C 20.808 5.873,20.689 5.566,20.394 5.372 L 20.226 5.260 11.583 5.254 C 6.829 5.250,2.882 5.262,2.811 5.279 M2.811 10.278 C 2.536 10.345,2.316 10.587,2.260 10.885 C 2.197 11.220,2.450 11.624,2.781 11.715 C 3.005 11.778,10.995 11.778,11.219 11.715 C 11.431 11.657,11.660 11.422,11.719 11.204 C 11.808 10.873,11.689 10.566,11.395 10.372 L 11.226 10.260 7.083 10.254 C 4.804 10.250,2.882 10.261,2.811 10.278 M14.811 10.278 C 14.638 10.320,14.416 10.494,14.332 10.652 C 14.244 10.817,14.243 11.181,14.329 11.340 C 14.365 11.406,14.855 11.919,15.417 12.479 L 16.439 13.499 15.383 14.559 C 14.461 15.485,14.321 15.642,14.281 15.795 C 14.130 16.366,14.634 16.870,15.205 16.719 C 15.358 16.679,15.515 16.539,16.440 15.617 L 17.500 14.562 18.560 15.618 C 19.486 16.540,19.642 16.679,19.795 16.719 C 20.366 16.870,20.870 16.366,20.719 15.795 C 20.679 15.642,20.539 15.485,19.617 14.560 L 18.562 13.500 19.618 12.440 C 20.540 11.514,20.679 11.358,20.719 11.205 C 20.849 10.716,20.508 10.267,20.008 10.267 C 19.882 10.267,19.735 10.290,19.680 10.318 C 19.625 10.346,19.112 10.835,18.539 11.404 L 17.499 12.439 16.499 11.438 C 15.950 10.887,15.446 10.403,15.380 10.362 C 15.234 10.272,14.985 10.235,14.811 10.278 M2.811 15.278 C 2.536 15.345,2.316 15.587,2.260 15.885 C 2.197 16.220,2.450 16.624,2.781 16.715 C 3.005 16.778,10.995 16.778,11.219 16.715 C 11.431 16.657,11.660 16.422,11.719 16.204 C 11.808 15.873,11.689 15.566,11.395 15.372 L 11.226 15.260 7.083 15.254 C 4.804 15.250,2.882 15.261,2.811 15.278 " fill="#1C274C" stroke="none" fill-rule="evenodd"></path></svg>