<svg width="24" height="24" viewBox="0 0 24 24" fill="none" xmlns="http://www.w3.org/2000/svg"><path d="M16.797 3.277 C 16.740 3.295,16.642 3.343,16.580 3.383 C 16.423 3.486,13.357 7.581,13.289 7.780 C 13.181 8.093,13.349 8.507,13.649 8.667 C 13.833 8.764,14.183 8.760,14.360 8.658 C 14.455 8.604,14.779 8.208,15.370 7.423 L 16.240 6.268 16.240 12.001 L 16.240 17.733 15.384 16.592 C 14.426 15.316,14.367 15.259,13.992 15.264 C 13.503 15.271,13.152 15.724,13.277 16.187 C 13.338 16.415,16.446 20.548,16.640 20.659 C 16.733 20.712,16.853 20.739,17.000 20.739 C 17.147 20.739,17.267 20.712,17.360 20.659 C 17.554 20.548,20.662 16.415,20.723 16.187 C 20.848 15.723,20.496 15.271,20.005 15.264 C 19.634 15.259,19.572 15.318,18.616 16.592 L 17.760 17.733 17.760 12.001 L 17.760 6.268 18.630 7.423 C 19.221 8.208,19.545 8.604,19.640 8.658 C 19.817 8.760,20.167 8.764,20.351 8.667 C 20.638 8.514,20.808 8.126,20.724 7.813 C 20.666 7.600,17.584 3.486,17.395 3.370 C 17.239 3.274,16.947 3.229,16.797 3.277 M3.811 6.278 C 3.536 6.345,3.316 6.587,3.260 6.885 C 3.197 7.220,3.450 7.624,3.781 7.715 C 4.004 7.777,10.996 7.777,11.219 7.715 C 11.431 7.657,11.660 7.422,11.719 7.204 C 11.808 6.873,11.689 6.566,11.395 6.372 L 11.226 6.260 7.583 6.254 C 5.579 6.250,3.882 6.261,3.811 6.278 M3.811 11.278 C 3.536 11.345,3.316 11.587,3.260 11.885 C 3.197 12.220,3.450 12.624,3.781 12.715 C 4.004 12.777,10.996 12.777,11.219 12.715 C 11.431 12.657,11.660 12.422,11.719 12.204 C 11.808 11.873,11.689 11.566,11.395 11.372 L 11.226 11.260 7.583 11.254 C 5.579 11.250,3.882 11.261,3.811 11.278 M3.811 16.278 C 3.536 16.345,3.316 16.587,3.260 16.885 C 3.197 17.220,3.450 17.624,3.781 17.715 C 4.004 17.777,10.996 17.777,11.219 17.715 C 11.431 17.657,11.660 17.422,11.719 17.204 C 11.808 16.873,11.689 16.566,11.395 16.372 L 11.226 16.260 7.583 16.254 C 5.579 16.250,3.882 16.261,3.811 16.278 " fill="#1C274C" stroke="none" fill-rule="evenodd"></path></svg>