<svg width="24" height="24" viewBox="0 0 24 24" fill="none" xmlns="http://www.w3.org/2000/svg"><path d="M2.807 5.287 C 2.568 5.341,2.341 5.572,2.289 5.816 C 2.197 6.246,2.431 6.629,2.838 6.716 C 3.130 6.778,20.870 6.778,21.162 6.716 C 21.920 6.553,21.920 5.447,21.162 5.284 C 20.894 5.227,3.065 5.230,2.807 5.287 M2.807 9.287 C 2.568 9.341,2.341 9.572,2.289 9.816 C 2.197 10.246,2.431 10.629,2.838 10.716 C 3.130 10.778,20.870 10.778,21.162 10.716 C 21.920 10.553,21.920 9.447,21.162 9.284 C 20.894 9.227,3.065 9.230,2.807 9.287 M15.375 13.042 C 14.924 13.131,14.436 13.527,14.225 13.974 C 13.971 14.510,13.938 15.174,14.137 15.700 C 14.435 16.483,15.214 17.353,16.451 18.285 C 17.016 18.710,17.217 18.811,17.500 18.811 C 17.783 18.811,17.984 18.710,18.549 18.285 C 19.767 17.368,20.539 16.511,20.855 15.726 C 20.965 15.450,20.978 15.377,20.978 14.980 C 20.980 14.327,20.830 13.914,20.444 13.505 C 19.953 12.986,19.150 12.866,18.411 13.201 C 18.142 13.323,17.715 13.609,17.584 13.755 L 17.509 13.839 17.363 13.707 C 16.758 13.161,16.020 12.914,15.375 13.042 M2.807 13.287 C 2.568 13.341,2.341 13.572,2.289 13.816 C 2.197 14.246,2.431 14.629,2.838 14.716 C 3.126 14.778,9.874 14.778,10.162 14.716 C 10.920 14.553,10.920 13.447,10.162 13.284 C 9.898 13.227,3.062 13.230,2.807 13.287 M2.807 17.287 C 2.568 17.341,2.341 17.572,2.289 17.816 C 2.197 18.246,2.431 18.629,2.838 18.716 C 3.126 18.778,9.874 18.778,10.162 18.716 C 10.920 18.553,10.920 17.447,10.162 17.284 C 9.898 17.227,3.062 17.230,2.807 17.287 " fill="#1C274C" stroke="none" fill-rule="evenodd"></path></svg>