<svg width="24" height="24" viewBox="0 0 24 24" fill="none" xmlns="http://www.w3.org/2000/svg"><path d="M2.811 5.279 C 2.536 5.344,2.316 5.587,2.260 5.885 C 2.197 6.220,2.450 6.624,2.781 6.715 C 3.007 6.778,20.993 6.778,21.219 6.715 C 21.431 6.657,21.660 6.422,21.719 6.204 C 21.808 5.873,21.689 5.566,21.394 5.372 L 21.226 5.260 12.083 5.254 C 7.054 5.251,2.882 5.262,2.811 5.279 M2.811 9.279 C 2.536 9.344,2.316 9.587,2.260 9.885 C 2.197 10.220,2.450 10.624,2.781 10.715 C 3.007 10.778,20.993 10.778,21.219 10.715 C 21.431 10.657,21.660 10.422,21.719 10.204 C 21.808 9.873,21.689 9.566,21.394 9.372 L 21.226 9.260 12.083 9.254 C 7.054 9.251,2.882 9.262,2.811 9.279 M2.811 13.278 C 2.536 13.345,2.316 13.587,2.260 13.885 C 2.197 14.220,2.450 14.624,2.781 14.715 C 3.005 14.778,10.995 14.778,11.219 14.715 C 11.431 14.657,11.660 14.422,11.719 14.204 C 11.808 13.873,11.689 13.566,11.395 13.372 L 11.226 13.260 7.083 13.254 C 4.804 13.250,2.882 13.261,2.811 13.278 M17.420 13.260 C 17.398 13.267,17.331 13.284,17.271 13.297 C 17.124 13.329,16.881 13.548,16.814 13.708 C 16.771 13.811,16.760 14.275,16.760 16.006 L 16.760 18.175 16.105 17.528 C 15.721 17.148,15.391 16.855,15.306 16.820 C 14.998 16.691,14.668 16.766,14.451 17.013 C 14.202 17.297,14.185 17.603,14.398 17.924 C 14.463 18.021,15.079 18.661,15.768 19.348 C 17.051 20.626,17.214 20.758,17.500 20.758 C 17.786 20.758,17.949 20.626,19.232 19.348 C 19.921 18.661,20.537 18.021,20.602 17.924 C 20.815 17.603,20.798 17.297,20.549 17.013 C 20.332 16.766,20.002 16.691,19.694 16.820 C 19.609 16.855,19.279 17.148,18.895 17.528 L 18.240 18.175 18.240 16.010 C 18.240 14.578,18.226 13.807,18.197 13.733 C 18.146 13.597,17.977 13.412,17.840 13.342 C 17.732 13.287,17.485 13.238,17.420 13.260 M2.811 17.278 C 2.536 17.345,2.316 17.587,2.260 17.885 C 2.197 18.220,2.450 18.624,2.781 18.715 C 3.005 18.778,10.995 18.778,11.219 18.715 C 11.431 18.657,11.660 18.422,11.719 18.204 C 11.808 17.873,11.689 17.566,11.395 17.372 L 11.226 17.260 7.083 17.254 C 4.804 17.250,2.882 17.261,2.811 17.278 " fill="#1C274C" stroke="none" fill-rule="evenodd"></path></svg>