<svg width="24" height="24" viewBox="0 0 24 24" fill="none" xmlns="http://www.w3.org/2000/svg"><path d="M2.811 5.279 C 2.536 5.344,2.316 5.587,2.260 5.885 C 2.197 6.220,2.450 6.624,2.781 6.715 C 3.007 6.778,19.993 6.778,20.219 6.715 C 20.431 6.657,20.660 6.422,20.719 6.204 C 20.808 5.873,20.689 5.566,20.394 5.372 L 20.226 5.260 11.583 5.254 C 6.829 5.250,2.882 5.262,2.811 5.279 M2.811 10.279 C 2.536 10.344,2.316 10.587,2.260 10.885 C 2.197 11.220,2.450 11.624,2.781 11.715 C 3.007 11.778,19.993 11.778,20.219 11.715 C 20.431 11.657,20.660 11.422,20.719 11.204 C 20.808 10.873,20.689 10.566,20.394 10.372 L 20.226 10.260 11.583 10.254 C 6.829 10.250,2.882 10.262,2.811 10.279 M17.331 14.279 C 17.260 14.296,17.153 14.341,17.094 14.380 C 16.822 14.558,13.411 17.526,13.341 17.646 C 13.288 17.736,13.262 17.854,13.262 18.008 C 13.261 18.196,13.282 18.264,13.381 18.406 C 13.548 18.643,13.727 18.739,14.004 18.739 C 14.179 18.739,14.262 18.716,14.384 18.634 C 14.470 18.576,15.203 17.960,16.013 17.265 C 16.824 16.569,17.493 16.000,17.500 16.000 C 17.507 16.000,18.176 16.569,18.987 17.265 C 19.797 17.960,20.530 18.576,20.616 18.634 C 20.738 18.716,20.821 18.739,20.996 18.739 C 21.273 18.739,21.452 18.643,21.619 18.406 C 21.718 18.264,21.739 18.196,21.738 18.008 C 21.738 17.854,21.712 17.736,21.659 17.646 C 21.578 17.508,18.096 14.492,17.867 14.361 C 17.709 14.271,17.500 14.239,17.331 14.279 M2.811 15.278 C 2.536 15.345,2.316 15.587,2.260 15.885 C 2.197 16.220,2.450 16.624,2.781 16.715 C 3.005 16.778,10.995 16.778,11.219 16.715 C 11.431 16.657,11.660 16.422,11.719 16.204 C 11.808 15.873,11.689 15.566,11.395 15.372 L 11.226 15.260 7.083 15.254 C 4.804 15.250,2.882 15.261,2.811 15.278 " fill="#1C274C" stroke="none" fill-rule="evenodd"></path></svg>