<svg width="24" height="24" viewBox="0 0 24 24" fill="none" xmlns="http://www.w3.org/2000/svg"><path d="M2.811 5.279 C 2.536 5.344,2.316 5.587,2.260 5.885 C 2.197 6.220,2.450 6.624,2.781 6.715 C 3.007 6.778,19.993 6.778,20.219 6.715 C 20.431 6.657,20.660 6.422,20.719 6.204 C 20.808 5.873,20.689 5.566,20.394 5.372 L 20.226 5.260 11.583 5.254 C 6.829 5.250,2.882 5.262,2.811 5.279 M17.420 8.260 C 17.398 8.267,17.331 8.284,17.271 8.297 C 17.124 8.329,16.881 8.548,16.814 8.708 C 16.770 8.813,16.760 9.435,16.760 12.005 L 16.760 15.173 16.102 14.525 C 15.729 14.159,15.382 13.852,15.303 13.819 C 14.932 13.664,14.520 13.817,14.331 14.179 C 14.248 14.338,14.252 14.668,14.339 14.841 C 14.430 15.022,16.978 17.570,17.159 17.661 C 17.338 17.751,17.662 17.751,17.841 17.661 C 18.022 17.570,20.570 15.022,20.661 14.841 C 20.748 14.668,20.752 14.338,20.669 14.179 C 20.480 13.817,20.068 13.664,19.697 13.819 C 19.618 13.852,19.271 14.158,18.899 14.524 L 18.241 15.172 18.231 11.950 L 18.220 8.727 18.096 8.574 C 18.027 8.489,17.919 8.391,17.856 8.355 C 17.739 8.288,17.494 8.235,17.420 8.260 M2.811 10.279 C 2.536 10.345,2.316 10.587,2.260 10.885 C 2.197 11.220,2.450 11.624,2.781 11.715 C 3.005 11.778,11.995 11.778,12.219 11.715 C 12.431 11.657,12.660 11.422,12.719 11.204 C 12.808 10.873,12.689 10.566,12.394 10.372 L 12.226 10.260 7.583 10.254 C 5.029 10.250,2.882 10.261,2.811 10.279 M2.811 15.278 C 2.536 15.345,2.316 15.587,2.260 15.885 C 2.197 16.220,2.450 16.624,2.781 16.715 C 3.005 16.778,10.995 16.778,11.219 16.715 C 11.431 16.657,11.660 16.422,11.719 16.204 C 11.808 15.873,11.689 15.566,11.395 15.372 L 11.226 15.260 7.083 15.254 C 4.804 15.250,2.882 15.261,2.811 15.278 " fill="#1C274C" stroke="none" fill-rule="evenodd"></path></svg>