<svg width="24" height="24" viewBox="0 0 24 24" fill="none" xmlns="http://www.w3.org/2000/svg"><path d="M2.811 5.279 C 2.536 5.344,2.316 5.587,2.260 5.885 C 2.197 6.220,2.450 6.624,2.781 6.715 C 3.007 6.778,19.993 6.778,20.219 6.715 C 20.431 6.657,20.660 6.422,20.719 6.204 C 20.808 5.873,20.689 5.566,20.394 5.372 L 20.226 5.260 11.583 5.254 C 6.829 5.250,2.882 5.262,2.811 5.279 M17.329 8.279 C 17.257 8.296,17.131 8.357,17.049 8.414 C 16.967 8.471,16.339 9.080,15.652 9.769 C 14.374 11.052,14.242 11.214,14.242 11.500 C 14.242 11.759,14.484 12.104,14.733 12.197 C 14.892 12.258,15.138 12.250,15.306 12.180 C 15.391 12.145,15.721 11.852,16.105 11.472 L 16.760 10.825 16.760 13.990 C 16.760 16.129,16.774 17.191,16.803 17.267 C 16.896 17.516,17.241 17.758,17.500 17.758 C 17.759 17.758,18.104 17.516,18.197 17.267 C 18.226 17.191,18.240 16.129,18.240 13.990 L 18.240 10.825 18.895 11.472 C 19.279 11.852,19.609 12.145,19.694 12.180 C 20.002 12.309,20.332 12.234,20.549 11.987 C 20.798 11.703,20.815 11.397,20.602 11.076 C 20.449 10.846,18.016 8.427,17.860 8.350 C 17.698 8.270,17.488 8.242,17.329 8.279 M2.811 10.278 C 2.536 10.345,2.316 10.587,2.260 10.885 C 2.197 11.220,2.450 11.624,2.781 11.715 C 3.005 11.778,10.995 11.778,11.219 11.715 C 11.431 11.657,11.660 11.422,11.719 11.204 C 11.808 10.873,11.689 10.566,11.395 10.372 L 11.226 10.260 7.083 10.254 C 4.804 10.250,2.882 10.261,2.811 10.278 M2.811 15.279 C 2.536 15.345,2.316 15.587,2.260 15.885 C 2.197 16.220,2.450 16.624,2.781 16.715 C 3.005 16.778,11.995 16.778,12.219 16.715 C 12.431 16.657,12.660 16.422,12.719 16.204 C 12.808 15.873,12.689 15.566,12.394 15.372 L 12.226 15.260 7.583 15.254 C 5.029 15.250,2.882 15.261,2.811 15.279 " fill="#1C274C" stroke="none" fill-rule="evenodd"></path></svg>