<svg width="24" height="24" viewBox="0 0 24 24" fill="none" xmlns="http://www.w3.org/2000/svg"><path d="M2.811 5.279 C 2.536 5.344,2.316 5.587,2.260 5.885 C 2.197 6.220,2.450 6.624,2.781 6.715 C 3.007 6.778,20.993 6.778,21.219 6.715 C 21.431 6.657,21.660 6.422,21.719 6.204 C 21.808 5.873,21.689 5.566,21.394 5.372 L 21.226 5.260 12.083 5.254 C 7.054 5.251,2.882 5.262,2.811 5.279 M2.811 9.279 C 2.536 9.344,2.316 9.587,2.260 9.885 C 2.197 10.220,2.450 10.624,2.781 10.715 C 3.007 10.778,20.993 10.778,21.219 10.715 C 21.431 10.657,21.660 10.422,21.719 10.204 C 21.808 9.873,21.689 9.566,21.394 9.372 L 21.226 9.260 12.083 9.254 C 7.054 9.251,2.882 9.262,2.811 9.279 M2.811 13.278 C 2.536 13.345,2.316 13.587,2.260 13.885 C 2.197 14.220,2.450 14.624,2.781 14.715 C 3.005 14.778,10.995 14.778,11.219 14.715 C 11.431 14.657,11.660 14.422,11.719 14.204 C 11.808 13.873,11.689 13.566,11.395 13.372 L 11.226 13.260 7.083 13.254 C 4.804 13.250,2.882 13.261,2.811 13.278 M17.331 14.279 C 17.260 14.296,17.153 14.341,17.094 14.380 C 16.822 14.558,13.411 17.526,13.341 17.646 C 13.288 17.736,13.262 17.854,13.262 18.008 C 13.261 18.196,13.282 18.264,13.381 18.406 C 13.548 18.643,13.727 18.739,14.004 18.739 C 14.179 18.739,14.262 18.716,14.384 18.634 C 14.470 18.576,15.203 17.960,16.013 17.265 C 16.824 16.569,17.493 16.000,17.500 16.000 C 17.507 16.000,18.176 16.569,18.987 17.265 C 19.797 17.960,20.530 18.576,20.616 18.634 C 20.738 18.716,20.821 18.739,20.996 18.739 C 21.273 18.739,21.452 18.643,21.619 18.406 C 21.718 18.264,21.739 18.196,21.738 18.008 C 21.738 17.854,21.712 17.736,21.659 17.646 C 21.578 17.508,18.096 14.492,17.867 14.361 C 17.709 14.271,17.500 14.239,17.331 14.279 M2.811 17.278 C 2.536 17.345,2.316 17.587,2.260 17.885 C 2.197 18.220,2.450 18.624,2.781 18.715 C 3.005 18.778,10.995 18.778,11.219 18.715 C 11.431 18.657,11.660 18.422,11.719 18.204 C 11.808 17.873,11.689 17.566,11.395 17.372 L 11.226 17.260 7.083 17.254 C 4.804 17.250,2.882 17.261,2.811 17.278 " fill="#1C274C" stroke="none" fill-rule="evenodd"></path></svg>