<svg width="24" height="24" viewBox="0 0 24 24" fill="none" xmlns="http://www.w3.org/2000/svg"><path d="M2.811 5.279 C 2.536 5.344,2.316 5.587,2.260 5.885 C 2.197 6.220,2.450 6.624,2.781 6.715 C 3.007 6.778,20.993 6.778,21.219 6.715 C 21.431 6.657,21.660 6.422,21.719 6.204 C 21.808 5.873,21.689 5.566,21.394 5.372 L 21.226 5.260 12.083 5.254 C 7.054 5.251,2.882 5.262,2.811 5.279 M2.811 9.279 C 2.536 9.344,2.316 9.587,2.260 9.885 C 2.197 10.220,2.450 10.624,2.781 10.715 C 3.007 10.778,20.993 10.778,21.219 10.715 C 21.431 10.657,21.660 10.422,21.719 10.204 C 21.808 9.873,21.689 9.566,21.394 9.372 L 21.226 9.260 12.083 9.254 C 7.054 9.251,2.882 9.262,2.811 9.279 M2.811 13.278 C 2.536 13.345,2.316 13.587,2.260 13.885 C 2.197 14.220,2.450 14.624,2.781 14.715 C 3.005 14.778,10.995 14.778,11.219 14.715 C 11.431 14.657,11.660 14.422,11.719 14.204 C 11.808 13.873,11.689 13.566,11.395 13.372 L 11.226 13.260 7.083 13.254 C 4.804 13.250,2.882 13.261,2.811 13.278 M17.329 13.279 C 17.257 13.296,17.131 13.357,17.049 13.414 C 16.967 13.471,16.339 14.080,15.652 14.769 C 14.374 16.052,14.242 16.214,14.242 16.500 C 14.242 16.759,14.484 17.104,14.733 17.197 C 14.892 17.258,15.138 17.250,15.306 17.180 C 15.391 17.145,15.721 16.852,16.105 16.472 L 16.760 15.825 16.760 17.990 C 16.760 19.422,16.774 20.193,16.803 20.267 C 16.896 20.516,17.241 20.758,17.500 20.758 C 17.759 20.758,18.104 20.516,18.197 20.267 C 18.226 20.193,18.240 19.422,18.240 17.990 L 18.240 15.825 18.895 16.472 C 19.279 16.852,19.609 17.145,19.694 17.180 C 20.002 17.309,20.332 17.234,20.549 16.987 C 20.798 16.703,20.815 16.397,20.602 16.076 C 20.449 15.846,18.016 13.427,17.860 13.350 C 17.698 13.270,17.488 13.242,17.329 13.279 M2.811 17.278 C 2.536 17.345,2.316 17.587,2.260 17.885 C 2.197 18.220,2.450 18.624,2.781 18.715 C 3.005 18.778,10.995 18.778,11.219 18.715 C 11.431 18.657,11.660 18.422,11.719 18.204 C 11.808 17.873,11.689 17.566,11.395 17.372 L 11.226 17.260 7.083 17.254 C 4.804 17.250,2.882 17.261,2.811 17.278 " fill="#1C274C" stroke="none" fill-rule="evenodd"></path></svg>