<svg width="24" height="24" viewBox="0 0 24 24" fill="none" xmlns="http://www.w3.org/2000/svg"><path d="M2.811 5.279 C 2.536 5.344,2.316 5.587,2.260 5.885 C 2.197 6.220,2.450 6.624,2.781 6.715 C 3.007 6.778,20.993 6.778,21.219 6.715 C 21.431 6.657,21.660 6.422,21.719 6.204 C 21.808 5.873,21.689 5.566,21.394 5.372 L 21.226 5.260 12.083 5.254 C 7.054 5.251,2.882 5.262,2.811 5.279 M2.811 9.279 C 2.536 9.344,2.316 9.587,2.260 9.885 C 2.197 10.220,2.450 10.624,2.781 10.715 C 3.007 10.778,20.993 10.778,21.219 10.715 C 21.431 10.657,21.660 10.422,21.719 10.204 C 21.808 9.873,21.689 9.566,21.394 9.372 L 21.226 9.260 12.083 9.254 C 7.054 9.251,2.882 9.262,2.811 9.279 M2.811 13.278 C 2.536 13.345,2.316 13.587,2.260 13.885 C 2.197 14.220,2.450 14.624,2.781 14.715 C 3.004 14.777,9.996 14.777,10.219 14.715 C 10.431 14.657,10.660 14.422,10.719 14.204 C 10.808 13.873,10.689 13.566,10.395 13.372 L 10.226 13.260 6.583 13.254 C 4.579 13.250,2.882 13.261,2.811 13.278 M13.815 14.277 C 13.382 14.383,13.138 14.892,13.317 15.315 C 13.359 15.414,13.871 15.878,15.197 17.015 C 16.200 17.876,17.100 18.620,17.197 18.670 C 17.420 18.784,17.580 18.784,17.803 18.670 C 18.043 18.548,21.560 15.524,21.659 15.354 C 21.780 15.149,21.768 14.816,21.632 14.611 C 21.474 14.373,21.278 14.267,20.997 14.267 C 20.814 14.267,20.732 14.288,20.612 14.369 C 20.528 14.425,19.797 15.040,18.987 15.735 C 18.176 16.431,17.507 17.000,17.500 17.000 C 17.493 17.000,16.824 16.431,16.013 15.735 C 15.203 15.040,14.477 14.429,14.400 14.379 C 14.240 14.274,13.998 14.232,13.815 14.277 M2.811 17.278 C 2.536 17.345,2.316 17.587,2.260 17.885 C 2.197 18.220,2.450 18.624,2.781 18.715 C 3.004 18.777,9.996 18.777,10.219 18.715 C 10.431 18.657,10.660 18.422,10.719 18.204 C 10.808 17.873,10.689 17.566,10.395 17.372 L 10.226 17.260 6.583 17.254 C 4.579 17.250,2.882 17.261,2.811 17.278 " fill="#1C274C" stroke="none" fill-rule="evenodd"></path></svg>