<svg width="24" height="24" viewBox="0 0 24 24" fill="none" xmlns="http://www.w3.org/2000/svg"><path d="M2.811 5.279 C 2.536 5.344,2.316 5.587,2.260 5.885 C 2.197 6.220,2.450 6.624,2.781 6.715 C 3.007 6.778,20.993 6.778,21.219 6.715 C 21.431 6.657,21.660 6.422,21.719 6.204 C 21.808 5.873,21.689 5.566,21.394 5.372 L 21.226 5.260 12.083 5.254 C 7.054 5.251,2.882 5.262,2.811 5.279 M2.811 9.279 C 2.536 9.344,2.316 9.587,2.260 9.885 C 2.197 10.220,2.450 10.624,2.781 10.715 C 3.007 10.778,20.993 10.778,21.219 10.715 C 21.431 10.657,21.660 10.422,21.719 10.204 C 21.808 9.873,21.689 9.566,21.394 9.372 L 21.226 9.260 12.083 9.254 C 7.054 9.251,2.882 9.262,2.811 9.279 M14.700 12.817 C 14.460 12.924,14.239 13.257,14.241 13.509 C 14.243 13.777,14.390 13.964,15.410 14.989 L 16.417 16.000 15.410 17.011 C 14.203 18.224,14.122 18.356,14.315 18.780 C 14.516 19.223,15.044 19.376,15.433 19.104 C 15.514 19.048,16.012 18.570,16.539 18.042 L 17.498 17.081 18.521 18.099 C 19.177 18.753,19.596 19.139,19.691 19.179 C 20.087 19.344,20.500 19.178,20.684 18.780 C 20.880 18.358,20.797 18.225,19.590 17.011 L 18.583 16.000 19.590 14.989 C 20.797 13.776,20.878 13.644,20.685 13.220 C 20.484 12.777,19.956 12.624,19.567 12.896 C 19.486 12.952,18.988 13.430,18.461 13.958 L 17.502 14.919 16.479 13.901 C 15.823 13.247,15.404 12.861,15.309 12.821 C 15.130 12.747,14.862 12.745,14.700 12.817 M2.811 13.278 C 2.536 13.345,2.316 13.587,2.260 13.885 C 2.197 14.220,2.450 14.624,2.781 14.715 C 3.005 14.778,10.995 14.778,11.219 14.715 C 11.431 14.657,11.660 14.422,11.719 14.204 C 11.808 13.873,11.689 13.566,11.395 13.372 L 11.226 13.260 7.083 13.254 C 4.804 13.250,2.882 13.261,2.811 13.278 M2.811 17.278 C 2.536 17.345,2.316 17.587,2.260 17.885 C 2.197 18.220,2.450 18.624,2.781 18.715 C 3.005 18.778,10.995 18.778,11.219 18.715 C 11.431 18.657,11.660 18.422,11.719 18.204 C 11.808 17.873,11.689 17.566,11.395 17.372 L 11.226 17.260 7.083 17.254 C 4.804 17.250,2.882 17.261,2.811 17.278 " fill="#1C274C" stroke="none" fill-rule="evenodd"></path></svg>