<svg width="24" height="24" viewBox="0 0 24 24" fill="none" xmlns="http://www.w3.org/2000/svg"><path d="M3.460 6.075 C 2.791 6.379,2.891 7.329,3.608 7.477 C 3.759 7.509,6.297 7.518,12.380 7.511 C 20.347 7.501,20.949 7.495,21.064 7.432 C 21.229 7.342,21.433 7.105,21.463 6.969 C 21.476 6.909,21.493 6.840,21.500 6.815 C 21.528 6.721,21.431 6.416,21.332 6.286 C 21.276 6.212,21.155 6.118,21.065 6.077 C 20.905 6.004,20.613 6.002,12.260 6.002 C 3.988 6.002,3.613 6.005,3.460 6.075 M3.460 11.075 C 2.790 11.379,2.891 12.329,3.610 12.478 C 3.758 12.509,4.897 12.519,7.381 12.511 C 10.642 12.501,10.950 12.494,11.064 12.432 C 11.229 12.342,11.433 12.105,11.463 11.969 C 11.476 11.909,11.493 11.840,11.500 11.815 C 11.528 11.721,11.431 11.416,11.332 11.286 C 11.276 11.212,11.155 11.118,11.065 11.077 C 10.908 11.005,10.730 11.002,7.260 11.002 C 3.825 11.002,3.611 11.006,3.460 11.075 M20.420 11.098 C 20.239 11.191,20.061 11.406,18.523 13.381 C 17.589 14.580,16.813 15.547,16.799 15.531 C 16.785 15.514,16.489 15.158,16.141 14.740 C 15.152 13.551,15.116 13.520,14.752 13.521 C 14.249 13.522,13.908 13.958,14.036 14.437 C 14.089 14.636,14.048 14.583,15.394 16.187 C 16.313 17.281,16.469 17.434,16.730 17.496 C 16.897 17.535,17.181 17.446,17.336 17.306 C 17.484 17.172,21.276 12.320,21.410 12.092 C 21.586 11.795,21.475 11.361,21.169 11.144 C 20.935 10.979,20.681 10.963,20.420 11.098 M3.460 16.075 C 2.790 16.379,2.891 17.329,3.610 17.478 C 3.758 17.509,4.897 17.519,7.381 17.511 C 10.642 17.501,10.950 17.494,11.064 17.432 C 11.229 17.342,11.433 17.105,11.463 16.969 C 11.476 16.909,11.493 16.840,11.500 16.815 C 11.528 16.721,11.431 16.416,11.332 16.286 C 11.276 16.212,11.155 16.118,11.065 16.077 C 10.908 16.005,10.730 16.002,7.260 16.002 C 3.825 16.002,3.611 16.006,3.460 16.075 " fill="#1C274C" stroke="none" fill-rule="evenodd"></path></svg>