<svg width="24" height="24" viewBox="0 0 24 24" fill="none" xmlns="http://www.w3.org/2000/svg"><path d="M2.460 5.075 C 1.791 5.379,1.891 6.329,2.608 6.477 C 2.759 6.509,5.437 6.518,11.880 6.511 C 20.318 6.501,20.949 6.495,21.064 6.432 C 21.229 6.342,21.433 6.105,21.463 5.969 C 21.476 5.909,21.493 5.840,21.500 5.815 C 21.528 5.721,21.431 5.416,21.332 5.286 C 21.276 5.212,21.155 5.118,21.065 5.077 C 20.905 5.004,20.601 5.002,11.760 5.002 C 3.005 5.002,2.613 5.005,2.460 5.075 M2.460 9.075 C 1.791 9.379,1.891 10.329,2.608 10.477 C 2.759 10.509,5.437 10.518,11.880 10.511 C 20.318 10.501,20.949 10.495,21.064 10.432 C 21.229 10.342,21.433 10.105,21.463 9.969 C 21.476 9.909,21.493 9.840,21.500 9.815 C 21.528 9.721,21.431 9.416,21.332 9.286 C 21.276 9.212,21.155 9.118,21.065 9.077 C 20.905 9.004,20.601 9.002,11.760 9.002 C 3.005 9.002,2.613 9.005,2.460 9.075 M19.409 12.586 C 19.247 12.666,19.288 12.617,17.481 14.940 C 16.660 15.996,15.950 16.901,15.902 16.951 L 15.816 17.043 15.020 16.096 C 14.401 15.359,14.189 15.133,14.063 15.076 C 13.863 14.985,13.684 14.981,13.489 15.062 C 13.077 15.234,12.893 15.667,13.071 16.047 C 13.109 16.129,13.643 16.792,14.257 17.523 C 15.445 18.934,15.513 18.997,15.851 18.999 C 16.069 19.000,16.238 18.917,16.420 18.716 C 16.686 18.424,20.334 13.729,20.418 13.572 C 20.506 13.406,20.516 13.105,20.440 12.956 C 20.369 12.819,20.198 12.642,20.072 12.576 C 19.928 12.501,19.571 12.506,19.409 12.586 M2.460 13.075 C 1.790 13.379,1.891 14.329,2.610 14.478 C 2.758 14.509,3.897 14.519,6.381 14.511 C 9.642 14.501,9.950 14.494,10.064 14.432 C 10.229 14.342,10.433 14.105,10.463 13.969 C 10.476 13.909,10.493 13.840,10.500 13.815 C 10.528 13.721,10.431 13.416,10.332 13.286 C 10.276 13.212,10.155 13.118,10.065 13.077 C 9.908 13.005,9.730 13.002,6.260 13.002 C 2.825 13.002,2.611 13.006,2.460 13.075 M2.460 17.075 C 1.790 17.379,1.891 18.329,2.610 18.478 C 2.758 18.509,3.897 18.519,6.381 18.511 C 9.642 18.501,9.950 18.494,10.064 18.432 C 10.229 18.342,10.433 18.105,10.463 17.969 C 10.476 17.909,10.493 17.840,10.500 17.815 C 10.528 17.721,10.431 17.416,10.332 17.286 C 10.276 17.212,10.155 17.118,10.065 17.077 C 9.908 17.005,9.730 17.002,6.260 17.002 C 2.825 17.002,2.611 17.006,2.460 17.075 " fill="#1C274C" stroke="none" fill-rule="evenodd"></path></svg>