<svg width="24" height="24" viewBox="0 0 24 24" fill="none" xmlns="http://www.w3.org/2000/svg"><path d="M11.420 1.283 C 8.808 1.486,6.498 3.282,5.626 5.788 C 5.317 6.675,5.240 7.302,5.240 8.918 L 5.240 10.068 4.910 10.095 C 4.413 10.135,3.897 10.262,3.540 10.434 C 2.645 10.864,2.231 11.584,2.074 12.980 C 1.998 13.660,1.998 18.340,2.074 19.020 C 2.291 20.958,3.042 21.709,4.980 21.926 C 5.363 21.969,6.782 21.980,12.000 21.980 C 18.998 21.980,19.084 21.978,19.862 21.780 C 20.680 21.573,21.235 21.154,21.552 20.504 C 21.940 19.708,22.018 18.820,21.988 15.520 C 21.968 13.300,21.948 12.930,21.816 12.284 C 21.539 10.935,20.649 10.220,19.090 10.095 L 18.760 10.068 18.760 8.918 C 18.760 8.286,18.741 7.582,18.718 7.354 C 18.382 4.067,15.794 1.535,12.508 1.280 C 11.972 1.238,11.991 1.238,11.420 1.283 M13.060 2.857 C 15.130 3.314,16.658 4.841,17.146 6.940 C 17.197 7.160,17.215 7.517,17.229 8.610 L 17.247 10.000 12.000 10.000 L 6.753 10.000 6.771 8.610 C 6.785 7.517,6.803 7.160,6.854 6.940 C 7.228 5.331,8.199 4.059,9.600 3.344 C 10.183 3.046,10.693 2.886,11.380 2.784 C 11.633 2.747,12.788 2.797,13.060 2.857 M12.405 13.381 C 12.485 13.432,12.593 13.543,12.645 13.627 L 12.740 13.780 12.740 16.007 L 12.740 18.233 12.619 18.405 C 12.453 18.641,12.273 18.739,12.000 18.739 C 11.727 18.739,11.547 18.641,11.381 18.405 L 11.260 18.233 11.260 16.007 L 11.260 13.780 11.353 13.631 C 11.586 13.256,12.044 13.147,12.405 13.381 " fill="#1C274C" stroke="none" fill-rule="evenodd"></path></svg>