<svg width="24" height="24" viewBox="0 0 24 24" fill="none" xmlns="http://www.w3.org/2000/svg"><path d="M11.420 1.283 C 8.808 1.486,6.498 3.282,5.626 5.788 C 5.317 6.675,5.240 7.302,5.240 8.918 L 5.240 10.068 4.910 10.095 C 4.413 10.135,3.897 10.262,3.540 10.434 C 2.645 10.864,2.231 11.584,2.074 12.980 C 1.998 13.660,1.998 18.340,2.074 19.020 C 2.291 20.958,3.042 21.709,4.980 21.926 C 5.363 21.969,6.782 21.980,12.000 21.980 C 18.998 21.980,19.084 21.978,19.862 21.780 C 20.680 21.573,21.235 21.154,21.552 20.504 C 21.940 19.708,22.018 18.820,21.988 15.520 C 21.968 13.300,21.948 12.930,21.816 12.284 C 21.593 11.199,20.962 10.511,19.940 10.242 C 19.131 10.029,19.124 10.029,12.706 10.011 L 6.753 9.995 6.771 8.608 C 6.785 7.517,6.803 7.160,6.854 6.940 C 7.231 5.318,8.217 4.037,9.640 3.321 C 10.455 2.912,11.029 2.780,12.000 2.781 C 12.972 2.781,13.549 2.914,14.360 3.321 C 15.635 3.963,16.553 5.049,17.019 6.468 C 17.140 6.838,17.190 6.938,17.307 7.041 C 17.483 7.195,17.598 7.240,17.813 7.239 C 18.200 7.237,18.513 6.952,18.550 6.567 C 18.565 6.416,18.534 6.272,18.408 5.894 C 17.824 4.147,16.630 2.777,14.980 1.962 C 14.155 1.554,13.444 1.356,12.529 1.280 C 12.014 1.237,11.998 1.238,11.420 1.283 M12.657 14.118 C 13.562 14.432,14.115 15.355,13.967 16.305 C 13.899 16.740,13.723 17.084,13.404 17.404 C 12.607 18.200,11.393 18.200,10.596 17.404 C 9.989 16.796,9.836 15.904,10.207 15.125 C 10.451 14.611,11.029 14.157,11.580 14.044 C 11.864 13.986,12.379 14.022,12.657 14.118 " fill="#1C274C" stroke="none" fill-rule="evenodd"></path></svg>