<svg width="24" height="24" viewBox="0 0 24 24" fill="none" xmlns="http://www.w3.org/2000/svg"><path d="M11.913 3.043 C 10.113 3.146,9.543 3.531,9.301 4.804 C 9.218 5.242,9.160 6.279,9.160 7.337 C 9.160 8.190,9.154 8.267,9.075 8.430 C 8.856 8.883,8.242 8.973,7.907 8.602 C 7.712 8.386,7.680 8.235,7.682 7.520 C 7.683 6.814,7.742 5.346,7.784 4.964 L 7.813 4.708 6.876 4.732 C 5.291 4.772,4.714 4.929,4.186 5.465 C 3.844 5.812,3.654 6.325,3.552 7.180 C 3.477 7.816,3.477 16.184,3.552 16.820 C 3.659 17.714,3.841 18.187,4.227 18.572 C 4.744 19.088,5.400 19.249,7.175 19.294 L 7.811 19.311 7.784 19.045 C 7.694 18.159,7.654 15.957,7.722 15.709 C 7.817 15.370,8.191 15.123,8.529 15.177 C 8.769 15.214,8.975 15.363,9.075 15.570 C 9.154 15.733,9.160 15.810,9.160 16.663 C 9.161 20.001,9.467 20.632,11.219 20.908 C 11.745 20.991,16.687 21.032,17.740 20.963 C 19.620 20.839,20.157 20.461,20.382 19.100 C 20.488 18.463,20.517 16.921,20.517 12.000 C 20.517 7.097,20.488 5.537,20.384 4.909 C 20.196 3.778,19.765 3.327,18.695 3.140 C 18.507 3.108,18.045 3.063,17.667 3.041 C 16.875 2.995,12.725 2.997,11.913 3.043 M13.145 8.900 C 13.307 8.967,15.804 11.404,15.950 11.637 C 16.015 11.740,16.040 11.841,16.040 12.000 C 16.040 12.159,16.015 12.260,15.950 12.363 C 15.804 12.596,13.307 15.033,13.145 15.100 C 12.711 15.282,12.211 15.001,12.137 14.534 C 12.088 14.221,12.157 14.113,12.874 13.390 L 13.537 12.720 9.898 12.719 L 6.260 12.719 6.101 12.629 C 6.014 12.579,5.902 12.479,5.852 12.405 C 5.612 12.049,5.724 11.585,6.101 11.371 L 6.260 11.281 9.898 11.281 L 13.537 11.280 12.874 10.610 C 12.157 9.887,12.088 9.779,12.137 9.466 C 12.211 8.999,12.711 8.718,13.145 8.900 " fill="#1C274C" stroke="none" fill-rule="evenodd"></path></svg>