<svg width="24" height="24" viewBox="0 0 24 24" fill="none" xmlns="http://www.w3.org/2000/svg"><path d="M12.408 4.930 L 12.420 6.220 12.536 6.460 C 12.636 6.665,12.916 6.965,14.438 8.500 C 15.896 9.971,16.246 10.344,16.348 10.540 C 16.709 11.235,16.718 11.935,16.375 12.640 C 16.238 12.922,16.124 13.046,14.501 14.680 C 13.550 15.637,12.714 16.505,12.644 16.610 C 12.407 16.963,12.400 17.011,12.400 18.371 L 12.400 19.612 12.930 19.587 C 14.699 19.502,16.543 18.696,17.870 17.428 C 20.417 14.993,21.091 11.213,19.536 8.084 C 18.577 6.156,16.929 4.719,14.900 4.044 C 14.172 3.802,13.276 3.641,12.648 3.640 L 12.397 3.640 12.408 4.930 M11.055 7.957 C 10.739 8.100,10.586 8.436,10.658 8.828 C 10.682 8.959,10.816 9.110,11.632 9.930 L 12.578 10.880 8.399 10.881 C 4.404 10.882,4.213 10.885,4.055 10.957 C 3.624 11.152,3.498 11.749,3.811 12.107 C 4.067 12.398,3.756 12.379,8.378 12.391 L 12.536 12.402 11.630 13.311 C 11.132 13.811,10.706 14.271,10.683 14.333 C 10.577 14.611,10.656 14.972,10.865 15.167 C 11.086 15.374,11.442 15.423,11.712 15.283 C 11.933 15.168,14.983 12.096,15.059 11.911 C 15.137 11.722,15.137 11.518,15.058 11.329 C 14.974 11.126,11.926 8.070,11.697 7.959 C 11.494 7.860,11.269 7.860,11.055 7.957 " fill="#1C274C" stroke="none" fill-rule="evenodd"></path></svg>