<svg width="24" height="24" viewBox="0 0 24 24" fill="none" xmlns="http://www.w3.org/2000/svg"><path d="M12.927 2.042 C 11.926 2.099,11.260 2.239,10.781 2.492 C 10.500 2.642,10.062 3.060,9.908 3.326 C 9.745 3.610,9.573 4.171,9.499 4.660 C 9.421 5.172,9.370 7.164,9.393 8.750 L 9.408 9.760 9.569 9.760 C 9.724 9.760,9.728 9.756,9.703 9.650 C 9.647 9.417,9.631 8.735,9.677 8.515 C 9.845 7.704,10.579 6.972,11.392 6.804 C 11.951 6.688,12.645 6.807,13.067 7.092 C 13.297 7.246,16.836 10.282,17.046 10.505 C 17.127 10.590,17.249 10.755,17.317 10.872 C 17.803 11.707,17.689 12.814,17.046 13.495 C 16.836 13.718,13.297 16.754,13.067 16.908 C 12.645 17.193,11.951 17.312,11.392 17.196 C 10.579 17.028,9.845 16.296,9.677 15.485 C 9.631 15.265,9.647 14.583,9.703 14.350 C 9.729 14.243,9.724 14.240,9.561 14.240 L 9.393 14.240 9.411 16.590 C 9.430 19.197,9.449 19.439,9.693 20.160 C 9.965 20.959,10.459 21.447,11.254 21.701 C 12.003 21.940,12.911 21.998,15.880 21.998 C 18.145 21.998,19.218 21.960,19.840 21.856 C 21.412 21.593,22.068 20.850,22.288 19.080 C 22.364 18.467,22.364 5.533,22.288 4.920 C 22.068 3.150,21.412 2.407,19.840 2.144 C 19.631 2.109,19.136 2.063,18.740 2.041 C 17.917 1.996,13.728 1.997,12.927 2.042 M11.626 8.297 C 11.337 8.403,11.122 8.703,11.122 9.000 C 11.122 9.315,11.217 9.425,12.291 10.346 L 13.310 11.220 7.745 11.240 L 2.180 11.260 1.994 11.369 C 1.522 11.647,1.522 12.353,1.994 12.631 L 2.180 12.740 7.745 12.760 L 13.310 12.780 12.291 13.654 C 11.494 14.338,11.256 14.563,11.197 14.694 C 10.891 15.369,11.666 16.033,12.280 15.621 C 12.511 15.466,15.929 12.509,16.018 12.387 C 16.135 12.226,16.135 11.774,16.018 11.613 C 15.906 11.460,12.372 8.420,12.217 8.344 C 12.030 8.251,11.799 8.233,11.626 8.297 " fill="#1C274C" stroke="none" fill-rule="evenodd"></path></svg>