<svg width="24" height="24" viewBox="0 0 24 24" fill="none" xmlns="http://www.w3.org/2000/svg"><path d="M12.927 2.042 C 11.926 2.099,11.260 2.239,10.781 2.492 C 10.500 2.642,10.062 3.060,9.908 3.326 C 9.745 3.610,9.573 4.171,9.499 4.660 C 9.420 5.184,9.358 7.492,9.399 8.440 C 9.428 9.143,9.470 9.276,9.724 9.494 C 10.008 9.737,9.924 9.731,13.020 9.759 C 15.189 9.779,15.898 9.797,16.020 9.837 C 16.377 9.954,16.665 10.136,16.963 10.435 C 17.272 10.746,17.419 10.991,17.551 11.416 C 17.628 11.665,17.635 12.306,17.563 12.557 C 17.353 13.297,16.750 13.925,16.020 14.163 C 15.898 14.203,15.193 14.221,13.020 14.241 C 10.742 14.262,10.148 14.278,10.020 14.322 C 9.779 14.407,9.505 14.700,9.445 14.938 C 9.384 15.180,9.381 18.099,9.441 18.797 C 9.612 20.787,10.267 21.592,11.934 21.860 C 12.556 21.960,13.653 21.998,15.880 21.998 C 18.145 21.998,19.218 21.960,19.840 21.856 C 21.412 21.593,22.068 20.850,22.288 19.080 C 22.364 18.467,22.364 5.533,22.288 4.920 C 22.068 3.150,21.412 2.407,19.840 2.144 C 19.631 2.109,19.136 2.063,18.740 2.041 C 17.917 1.996,13.728 1.997,12.927 2.042 M5.691 8.278 C 5.620 8.295,5.521 8.337,5.471 8.370 C 5.182 8.564,1.806 11.508,1.730 11.632 C 1.607 11.835,1.607 12.165,1.730 12.368 C 1.822 12.519,5.317 15.548,5.540 15.670 C 5.610 15.709,5.754 15.736,5.888 15.737 C 6.077 15.738,6.143 15.719,6.284 15.619 C 6.593 15.401,6.702 15.003,6.544 14.672 C 6.494 14.568,6.169 14.264,5.454 13.652 L 4.435 12.780 10.007 12.760 C 15.103 12.742,15.590 12.734,15.700 12.674 C 16.156 12.421,16.264 11.863,15.927 11.506 C 15.676 11.240,16.155 11.262,10.007 11.240 L 4.435 11.220 5.447 10.353 C 6.004 9.875,6.481 9.450,6.507 9.408 C 6.669 9.142,6.649 8.787,6.459 8.536 C 6.300 8.326,5.959 8.212,5.691 8.278 " fill="#1C274C" stroke="none" fill-rule="evenodd"></path></svg>