<svg width="24" height="24" viewBox="0 0 24 24" fill="none" xmlns="http://www.w3.org/2000/svg"><path d="M12.180 3.027 C 10.863 3.081,10.132 3.287,9.759 3.711 C 9.358 4.167,9.227 4.790,9.168 6.523 C 9.140 7.353,9.135 7.393,9.040 7.531 C 8.854 7.803,8.541 7.915,8.225 7.823 C 7.926 7.736,7.754 7.537,7.704 7.220 C 7.678 7.055,7.739 5.362,7.786 4.944 L 7.812 4.708 6.876 4.732 C 5.291 4.772,4.714 4.929,4.186 5.465 C 3.844 5.812,3.654 6.325,3.552 7.180 C 3.477 7.816,3.477 16.184,3.552 16.820 C 3.659 17.714,3.841 18.187,4.227 18.572 C 4.744 19.088,5.400 19.249,7.175 19.294 L 7.810 19.311 7.785 19.065 C 7.738 18.599,7.679 16.939,7.704 16.780 C 7.765 16.398,7.993 16.192,8.381 16.167 C 8.683 16.148,8.884 16.240,9.041 16.469 C 9.128 16.596,9.141 16.663,9.150 17.017 C 9.172 17.851,9.244 18.893,9.301 19.191 C 9.516 20.317,9.954 20.708,11.219 20.908 C 11.745 20.991,16.687 21.032,17.740 20.963 C 19.620 20.839,20.157 20.461,20.382 19.100 C 20.488 18.463,20.517 16.921,20.517 12.000 C 20.517 7.097,20.488 5.537,20.384 4.909 C 20.196 3.778,19.765 3.327,18.695 3.140 C 18.097 3.036,17.041 3.001,14.720 3.008 C 13.477 3.012,12.334 3.021,12.180 3.027 M8.841 9.456 C 9.111 9.635,9.232 10.036,9.104 10.331 C 9.074 10.402,8.876 10.631,8.664 10.839 C 8.453 11.048,8.280 11.232,8.280 11.249 C 8.280 11.265,9.924 11.284,11.933 11.289 L 15.586 11.300 15.731 11.399 C 16.148 11.685,16.148 12.315,15.731 12.601 L 15.586 12.700 11.933 12.711 C 9.924 12.716,8.280 12.735,8.280 12.751 C 8.280 12.768,8.453 12.952,8.664 13.161 C 8.876 13.369,9.074 13.598,9.104 13.669 C 9.289 14.096,8.991 14.599,8.515 14.664 C 8.181 14.710,8.068 14.627,6.918 13.494 C 5.840 12.432,5.722 12.284,5.722 12.000 C 5.722 11.923,5.755 11.788,5.795 11.700 C 5.895 11.482,7.903 9.503,8.133 9.395 C 8.348 9.295,8.634 9.319,8.841 9.456 " fill="#1C274C" stroke="none" fill-rule="evenodd"></path></svg>