<svg width="24" height="24" viewBox="0 0 24 24" fill="none" xmlns="http://www.w3.org/2000/svg"><path d="M16.811 8.278 C 16.415 8.375,16.173 8.797,16.280 9.204 C 16.321 9.357,16.446 9.500,17.251 10.309 L 18.176 11.238 13.975 11.249 L 9.774 11.260 9.605 11.372 C 9.311 11.566,9.192 11.873,9.281 12.204 C 9.340 12.422,9.569 12.657,9.781 12.715 C 9.892 12.746,11.177 12.760,14.059 12.760 L 18.178 12.760 17.252 13.690 C 16.451 14.496,16.321 14.643,16.281 14.795 C 16.130 15.365,16.634 15.870,17.205 15.720 C 17.361 15.679,17.559 15.495,18.993 14.067 C 19.880 13.183,20.630 12.414,20.659 12.359 C 20.747 12.193,20.770 11.984,20.720 11.796 C 20.679 11.639,20.504 11.450,19.087 10.028 C 18.214 9.152,17.446 8.403,17.380 8.362 C 17.234 8.272,16.985 8.236,16.811 8.278 M4.016 12.409 C 4.158 14.542,4.991 16.351,6.489 17.783 C 7.882 19.114,9.589 19.850,11.592 19.984 L 12.005 20.012 11.991 17.556 C 11.978 15.384,11.969 15.077,11.909 14.900 C 11.773 14.495,11.513 14.334,10.908 14.279 C 10.684 14.259,10.379 14.242,10.230 14.241 C 9.977 14.240,9.790 14.176,7.090 13.163 C 5.512 12.571,4.168 12.067,4.104 12.042 L 3.988 11.998 4.016 12.409 " fill="#1C274C" stroke="none" fill-rule="evenodd"></path></svg>