<svg width="24" height="24" viewBox="0 0 24 24" fill="none" xmlns="http://www.w3.org/2000/svg"><path d="M15.740 2.062 C 15.207 2.196,14.473 2.601,12.600 3.792 C 11.267 4.641,11.019 4.766,10.626 4.790 C 10.368 4.806,10.221 4.777,9.140 4.498 C 6.732 3.878,6.156 3.760,5.529 3.760 C 5.030 3.760,4.722 3.872,4.437 4.157 C 4.132 4.462,4.040 4.740,4.040 5.361 C 4.040 5.936,4.158 6.607,4.566 8.360 C 4.872 9.674,4.897 9.813,4.898 10.220 C 4.900 10.787,4.909 10.770,3.801 12.435 C 2.515 14.365,2.182 14.956,2.040 15.555 C 1.935 16.000,2.075 16.487,2.386 16.760 C 2.838 17.156,3.583 17.302,5.760 17.420 C 8.025 17.543,8.152 17.560,8.512 17.808 C 8.687 17.928,8.867 18.143,10.163 19.780 C 11.074 20.930,11.771 21.643,12.179 21.843 C 12.422 21.962,12.498 21.980,12.759 21.980 C 13.162 21.980,13.430 21.851,13.748 21.503 C 14.176 21.035,14.489 20.420,15.341 18.380 C 15.940 16.943,16.091 16.635,16.300 16.426 C 16.542 16.184,16.799 16.060,18.166 15.523 C 20.108 14.761,20.695 14.499,21.186 14.176 C 22.030 13.619,22.223 12.883,21.720 12.130 C 21.382 11.623,20.945 11.211,19.117 9.673 C 18.127 8.840,18.000 8.714,17.849 8.418 C 17.714 8.152,17.686 7.857,17.641 6.220 C 17.584 4.157,17.531 3.558,17.355 3.002 C 17.253 2.678,17.191 2.558,17.033 2.378 C 16.754 2.060,16.243 1.935,15.740 2.062 M18.807 18.289 C 18.434 18.369,18.201 18.767,18.286 19.178 C 18.327 19.373,18.369 19.421,19.474 20.526 C 20.556 21.608,20.631 21.674,20.810 21.711 C 21.390 21.831,21.832 21.389,21.711 20.810 C 21.673 20.631,21.605 20.553,20.568 19.511 C 19.962 18.901,19.410 18.377,19.343 18.346 C 19.163 18.264,19.002 18.247,18.807 18.289 " fill="#1C274C" stroke="none" fill-rule="evenodd"></path></svg>