<svg width="24" height="24" viewBox="0 0 24 24" fill="none" xmlns="http://www.w3.org/2000/svg"><path d="M16.333 2.059 C 16.182 2.124,16.155 2.174,15.879 2.880 C 15.763 3.177,15.635 3.468,15.594 3.527 C 15.537 3.608,15.365 3.693,14.879 3.883 C 14.515 4.025,14.197 4.174,14.142 4.229 C 13.963 4.407,13.962 4.711,14.139 4.888 C 14.191 4.940,14.520 5.094,14.871 5.231 C 15.221 5.368,15.536 5.512,15.571 5.550 C 15.605 5.589,15.751 5.916,15.895 6.278 C 16.169 6.970,16.230 7.057,16.474 7.104 C 16.635 7.136,16.848 7.047,16.936 6.912 C 16.968 6.861,17.096 6.559,17.219 6.240 C 17.374 5.837,17.477 5.628,17.556 5.555 C 17.619 5.497,17.935 5.346,18.265 5.217 C 18.977 4.938,19.080 4.854,19.080 4.553 C 19.080 4.261,18.979 4.180,18.266 3.902 C 17.939 3.774,17.625 3.629,17.567 3.579 C 17.495 3.517,17.378 3.278,17.201 2.835 C 16.975 2.268,16.922 2.169,16.804 2.091 C 16.650 1.988,16.517 1.979,16.333 2.059 M5.302 3.063 C 4.271 3.294,3.463 4.023,3.132 5.020 C 3.040 5.298,3.025 5.409,3.023 5.860 C 3.020 6.298,3.035 6.427,3.114 6.680 C 3.314 7.323,3.411 7.454,4.467 8.520 L 5.438 9.500 7.469 7.469 L 9.500 5.438 8.520 4.467 C 7.601 3.557,7.519 3.485,7.200 3.328 C 7.013 3.236,6.752 3.132,6.620 3.097 C 6.265 3.005,5.637 2.988,5.302 3.063 M8.520 8.540 L 6.500 10.560 11.460 15.512 C 16.785 20.828,16.599 20.655,17.200 20.844 C 18.280 21.182,19.362 20.924,20.143 20.143 C 20.924 19.362,21.182 18.280,20.844 17.200 C 20.655 16.599,20.827 16.784,15.522 11.470 C 12.804 8.748,10.572 6.520,10.560 6.520 C 10.549 6.520,9.631 7.429,8.520 8.540 M20.127 8.940 C 20.057 8.999,19.964 9.151,19.901 9.310 C 19.765 9.653,19.652 9.770,19.353 9.879 C 19.017 10.002,18.877 10.137,18.854 10.361 C 18.826 10.638,18.926 10.762,19.306 10.919 C 19.479 10.990,19.651 11.076,19.688 11.109 C 19.726 11.142,19.812 11.307,19.881 11.475 C 20.065 11.925,20.249 12.058,20.562 11.964 C 20.742 11.910,20.832 11.794,20.957 11.454 C 21.069 11.148,21.141 11.081,21.532 10.920 C 21.871 10.780,21.955 10.693,21.987 10.452 C 22.018 10.211,21.882 10.049,21.526 9.900 C 21.155 9.745,21.072 9.663,20.936 9.316 C 20.798 8.965,20.662 8.840,20.420 8.840 C 20.293 8.840,20.214 8.867,20.127 8.940 M5.378 15.056 C 5.232 15.120,5.164 15.219,5.044 15.546 C 4.931 15.852,4.859 15.919,4.468 16.080 C 4.129 16.220,4.045 16.307,4.013 16.548 C 3.982 16.789,4.118 16.951,4.474 17.100 C 4.845 17.255,4.928 17.337,5.064 17.684 C 5.202 18.035,5.338 18.160,5.580 18.160 C 5.820 18.160,5.964 18.030,6.099 17.690 C 6.235 17.347,6.348 17.230,6.647 17.121 C 6.983 16.998,7.123 16.863,7.146 16.639 C 7.173 16.371,7.073 16.239,6.734 16.099 C 6.312 15.923,6.263 15.877,6.110 15.510 C 5.917 15.045,5.705 14.914,5.378 15.056 " fill="#1C274C" stroke="none" fill-rule="evenodd"></path></svg>