<svg width="24" height="24" viewBox="0 0 24 24" fill="none" xmlns="http://www.w3.org/2000/svg"><path d="M10.400 2.025 C 8.254 2.222,6.371 3.058,4.865 4.484 C 3.491 5.784,2.555 7.485,2.182 9.360 C 1.669 11.942,2.276 14.556,3.890 16.720 C 4.232 17.179,5.099 18.054,5.542 18.388 C 6.835 19.364,8.204 19.948,9.760 20.187 C 10.403 20.286,11.769 20.285,12.380 20.185 C 13.953 19.927,15.256 19.381,16.480 18.465 C 16.944 18.117,17.720 17.372,18.067 16.940 C 19.098 15.656,19.776 14.113,20.027 12.480 C 20.126 11.836,20.126 10.438,20.026 9.801 C 19.396 5.769,16.350 2.709,12.360 2.102 C 11.948 2.039,10.754 1.992,10.400 2.025 M19.009 17.876 C 18.592 18.019,18.193 18.375,17.984 18.788 C 17.868 19.018,17.791 19.441,17.819 19.692 C 17.848 19.956,18.084 20.765,18.210 21.032 C 18.324 21.274,18.671 21.641,18.910 21.771 C 19.471 22.076,20.143 22.067,20.673 21.748 C 20.953 21.580,21.645 20.867,21.771 20.617 C 22.153 19.864,22.044 19.080,21.481 18.515 C 21.200 18.234,20.968 18.115,20.356 17.939 C 19.786 17.775,19.359 17.755,19.009 17.876 " fill="#1C274C" stroke="none" fill-rule="evenodd"></path></svg>