<svg width="24" height="24" viewBox="0 0 24 24" fill="none" xmlns="http://www.w3.org/2000/svg"><path d="M10.320 2.041 C 8.054 2.278,6.126 3.207,4.580 4.805 C 3.239 6.192,2.411 7.862,2.093 9.820 C 1.993 10.436,1.993 11.840,2.092 12.480 C 2.719 16.521,5.840 19.631,9.860 20.220 C 12.248 20.570,14.737 19.925,16.680 18.455 L 17.110 18.129 18.965 19.989 C 20.204 21.231,20.873 21.873,20.980 21.923 C 21.176 22.015,21.355 22.020,21.550 21.938 C 21.748 21.856,21.837 21.770,21.925 21.580 C 22.019 21.376,22.018 21.182,21.923 20.980 C 21.873 20.873,21.231 20.204,19.989 18.965 L 18.129 17.110 18.455 16.680 C 20.113 14.490,20.701 11.662,20.053 9.000 C 19.173 5.382,16.172 2.648,12.480 2.100 C 11.970 2.024,10.786 1.992,10.320 2.041 M11.427 8.083 C 11.588 8.143,11.719 8.275,11.804 8.460 C 11.869 8.600,11.878 8.731,11.879 9.530 L 11.880 10.440 12.811 10.440 C 13.854 10.440,13.907 10.452,14.136 10.734 C 14.351 11.000,14.311 11.455,14.053 11.688 C 13.865 11.859,13.722 11.880,12.781 11.880 L 11.880 11.880 11.879 12.790 C 11.878 13.592,11.869 13.720,11.803 13.865 C 11.692 14.110,11.482 14.252,11.206 14.270 C 10.932 14.287,10.761 14.210,10.583 13.986 L 10.460 13.833 10.448 12.859 L 10.436 11.885 9.462 11.873 L 8.487 11.860 8.334 11.737 C 7.980 11.454,7.935 10.983,8.233 10.665 C 8.429 10.455,8.516 10.440,9.519 10.440 L 10.440 10.440 10.440 9.523 C 10.440 8.549,10.454 8.456,10.633 8.265 C 10.828 8.057,11.158 7.981,11.427 8.083 " fill="#1C274C" stroke="none" fill-rule="evenodd"></path></svg>