<svg width="24" height="24" viewBox="0 0 24 24" fill="none" xmlns="http://www.w3.org/2000/svg"><path d="M10.320 2.041 C 8.054 2.278,6.126 3.207,4.580 4.805 C 3.239 6.192,2.411 7.862,2.093 9.820 C 1.993 10.436,1.993 11.840,2.092 12.480 C 2.515 15.205,4.053 17.523,6.408 18.983 C 7.391 19.593,8.616 20.032,9.880 20.227 C 10.510 20.324,11.801 20.324,12.440 20.226 C 14.472 19.916,16.193 19.051,17.622 17.622 C 19.049 16.194,19.915 14.472,20.226 12.440 C 20.324 11.801,20.324 10.510,20.227 9.880 C 19.597 5.804,16.503 2.697,12.480 2.100 C 11.970 2.024,10.786 1.992,10.320 2.041 M19.060 18.697 C 18.695 18.860,18.534 19.319,18.717 19.672 C 18.831 19.890,20.825 21.863,21.009 21.939 C 21.562 22.167,22.143 21.628,21.960 21.055 C 21.922 20.935,21.674 20.662,20.865 19.847 C 20.290 19.268,19.753 18.759,19.672 18.717 C 19.500 18.628,19.233 18.619,19.060 18.697 " fill="#1C274C" stroke="none" fill-rule="evenodd"></path></svg>