<svg width="24" height="24" viewBox="0 0 24 24" fill="none" xmlns="http://www.w3.org/2000/svg"><path d="M10.320 2.041 C 8.054 2.278,6.126 3.207,4.580 4.805 C 3.239 6.192,2.411 7.862,2.093 9.820 C 1.993 10.436,1.993 11.840,2.092 12.480 C 2.719 16.521,5.840 19.631,9.860 20.220 C 12.248 20.570,14.737 19.925,16.680 18.455 L 17.110 18.129 18.965 19.989 C 20.204 21.231,20.873 21.873,20.980 21.923 C 21.176 22.015,21.355 22.020,21.550 21.938 C 21.748 21.856,21.837 21.770,21.925 21.580 C 22.019 21.376,22.018 21.182,21.923 20.980 C 21.873 20.873,21.231 20.204,19.989 18.965 L 18.129 17.110 18.455 16.680 C 20.113 14.490,20.701 11.662,20.053 9.000 C 19.173 5.382,16.172 2.648,12.480 2.100 C 11.970 2.024,10.786 1.992,10.320 2.041 " fill="#1C274C" stroke="none" fill-rule="evenodd"></path></svg>