<svg width="24" height="24" viewBox="0 0 24 24" fill="none" xmlns="http://www.w3.org/2000/svg"><path d="M10.400 2.025 C 8.254 2.222,6.371 3.058,4.865 4.484 C 3.491 5.784,2.555 7.485,2.182 9.360 C 1.669 11.942,2.276 14.556,3.890 16.720 C 4.232 17.179,5.099 18.054,5.542 18.388 C 6.835 19.364,8.204 19.948,9.760 20.187 C 10.403 20.286,11.769 20.285,12.380 20.185 C 13.953 19.927,15.256 19.381,16.480 18.465 C 16.944 18.117,17.720 17.372,18.067 16.940 C 19.098 15.656,19.776 14.113,20.027 12.480 C 20.126 11.836,20.126 10.438,20.026 9.801 C 19.396 5.769,16.350 2.709,12.360 2.102 C 11.948 2.039,10.754 1.992,10.400 2.025 M11.838 6.604 C 12.478 6.752,13.134 7.131,13.597 7.621 L 13.812 7.848 14.236 7.644 C 14.689 7.426,14.830 7.401,15.070 7.502 C 15.260 7.581,15.351 7.665,15.444 7.848 C 15.542 8.040,15.541 8.283,15.441 8.478 C 15.341 8.674,15.255 8.740,14.814 8.954 L 14.455 9.129 14.507 9.374 C 14.535 9.510,14.559 9.767,14.559 9.947 L 14.560 10.273 15.033 10.287 C 15.474 10.299,15.518 10.308,15.676 10.413 C 16.098 10.692,16.098 11.308,15.676 11.587 C 15.518 11.692,15.474 11.701,15.033 11.713 L 14.560 11.727 14.559 12.053 C 14.559 12.233,14.535 12.490,14.507 12.626 L 14.455 12.871 14.814 13.046 C 15.255 13.260,15.341 13.326,15.441 13.522 C 15.541 13.717,15.542 13.960,15.444 14.152 C 15.351 14.335,15.260 14.419,15.070 14.498 C 14.830 14.599,14.689 14.574,14.237 14.356 L 13.813 14.152 13.577 14.401 C 12.191 15.857,9.809 15.857,8.423 14.401 L 8.187 14.152 7.763 14.356 C 7.311 14.574,7.170 14.599,6.930 14.498 C 6.740 14.419,6.649 14.335,6.556 14.152 C 6.458 13.960,6.459 13.717,6.559 13.522 C 6.659 13.326,6.745 13.260,7.186 13.046 L 7.545 12.871 7.493 12.626 C 7.465 12.490,7.441 12.232,7.441 12.050 L 7.440 11.720 7.008 11.720 C 6.640 11.720,6.551 11.707,6.399 11.630 C 5.874 11.365,5.873 10.649,6.396 10.373 C 6.549 10.292,6.630 10.280,7.006 10.280 L 7.440 10.280 7.441 9.950 C 7.441 9.769,7.465 9.510,7.493 9.374 L 7.545 9.129 7.186 8.954 C 6.745 8.740,6.659 8.674,6.559 8.478 C 6.459 8.283,6.458 8.040,6.556 7.848 C 6.649 7.665,6.740 7.581,6.930 7.502 C 7.170 7.401,7.311 7.426,7.763 7.644 L 8.187 7.848 8.423 7.599 C 9.294 6.684,10.573 6.312,11.838 6.604 M10.531 7.980 C 9.968 8.103,9.393 8.533,9.128 9.031 C 9.058 9.163,9.000 9.282,9.000 9.296 C 9.000 9.309,9.900 9.320,11.000 9.320 C 12.100 9.320,13.000 9.309,13.000 9.296 C 13.000 9.199,12.703 8.750,12.515 8.562 C 11.997 8.044,11.249 7.824,10.531 7.980 M8.880 11.533 C 8.880 12.123,8.895 12.357,8.944 12.523 C 9.108 13.083,9.485 13.547,9.990 13.812 L 10.280 13.964 10.280 12.362 L 10.280 10.760 9.580 10.760 L 8.880 10.760 8.880 11.533 M11.720 12.362 L 11.720 13.964 12.010 13.812 C 12.515 13.547,12.892 13.083,13.056 12.523 C 13.105 12.357,13.120 12.123,13.120 11.533 L 13.120 10.760 12.420 10.760 L 11.720 10.760 11.720 12.362 M19.009 17.876 C 18.592 18.019,18.193 18.375,17.984 18.788 C 17.868 19.018,17.791 19.441,17.819 19.692 C 17.848 19.956,18.084 20.765,18.210 21.032 C 18.324 21.274,18.671 21.641,18.910 21.771 C 19.471 22.076,20.143 22.067,20.673 21.748 C 20.953 21.580,21.645 20.867,21.771 20.617 C 22.153 19.864,22.044 19.080,21.481 18.515 C 21.200 18.234,20.968 18.115,20.356 17.939 C 19.786 17.775,19.359 17.755,19.009 17.876 " fill="#1C274C" stroke="none" fill-rule="evenodd"></path></svg>