<svg width="24" height="24" viewBox="0 0 24 24" fill="none" xmlns="http://www.w3.org/2000/svg"><path d="M10.500 2.024 C 9.193 2.154,8.205 2.423,7.140 2.939 C 5.681 3.645,4.428 4.750,3.508 6.140 C 2.784 7.234,2.305 8.498,2.096 9.864 C 1.997 10.515,1.996 11.799,2.094 12.440 C 2.519 15.218,4.049 17.529,6.430 18.989 C 9.039 20.589,12.442 20.738,15.180 19.372 C 15.775 19.075,16.180 18.825,16.680 18.445 L 17.100 18.126 18.980 20.001 C 20.271 21.289,20.907 21.896,21.009 21.939 C 21.562 22.167,22.142 21.628,21.960 21.055 C 21.921 20.931,21.530 20.518,20.019 19.000 L 18.126 17.100 18.444 16.680 C 19.898 14.757,20.532 12.402,20.235 10.020 C 19.729 5.952,16.561 2.717,12.480 2.101 C 12.074 2.040,10.826 1.991,10.500 2.024 M11.838 6.604 C 12.478 6.752,13.134 7.131,13.597 7.621 L 13.812 7.848 14.236 7.644 C 14.689 7.426,14.830 7.401,15.070 7.502 C 15.260 7.581,15.351 7.665,15.444 7.848 C 15.542 8.040,15.541 8.283,15.441 8.478 C 15.341 8.674,15.255 8.740,14.814 8.954 L 14.455 9.129 14.507 9.374 C 14.535 9.510,14.559 9.767,14.559 9.947 L 14.560 10.273 15.033 10.287 C 15.474 10.299,15.518 10.308,15.676 10.413 C 16.098 10.692,16.098 11.308,15.676 11.587 C 15.518 11.692,15.474 11.701,15.033 11.713 L 14.560 11.727 14.559 12.053 C 14.559 12.233,14.535 12.490,14.507 12.626 L 14.455 12.871 14.814 13.046 C 15.255 13.260,15.341 13.326,15.441 13.522 C 15.541 13.717,15.542 13.960,15.444 14.152 C 15.351 14.335,15.260 14.419,15.070 14.498 C 14.830 14.599,14.689 14.574,14.237 14.356 L 13.813 14.152 13.577 14.401 C 12.191 15.857,9.809 15.857,8.423 14.401 L 8.187 14.152 7.763 14.356 C 7.311 14.574,7.170 14.599,6.930 14.498 C 6.740 14.419,6.649 14.335,6.556 14.152 C 6.458 13.960,6.459 13.717,6.559 13.522 C 6.659 13.326,6.745 13.260,7.186 13.046 L 7.545 12.871 7.493 12.626 C 7.465 12.490,7.441 12.232,7.441 12.050 L 7.440 11.720 7.008 11.720 C 6.640 11.720,6.551 11.707,6.399 11.630 C 5.874 11.365,5.873 10.649,6.396 10.373 C 6.549 10.292,6.630 10.280,7.006 10.280 L 7.440 10.280 7.441 9.950 C 7.441 9.769,7.465 9.510,7.493 9.374 L 7.545 9.129 7.186 8.954 C 6.745 8.740,6.659 8.674,6.559 8.478 C 6.459 8.283,6.458 8.040,6.556 7.848 C 6.649 7.665,6.740 7.581,6.930 7.502 C 7.170 7.401,7.311 7.426,7.763 7.644 L 8.187 7.848 8.423 7.599 C 9.294 6.684,10.573 6.312,11.838 6.604 M10.531 7.980 C 10.071 8.081,9.584 8.384,9.322 8.736 C 9.165 8.945,9.000 9.244,9.000 9.318 C 9.000 9.347,9.642 9.360,11.000 9.360 C 12.439 9.360,13.000 9.348,13.000 9.316 C 13.000 9.202,12.718 8.759,12.520 8.561 C 12.008 8.048,11.246 7.825,10.531 7.980 M8.841 11.410 C 8.842 12.174,8.897 12.495,9.102 12.911 C 9.313 13.339,9.721 13.727,10.147 13.906 L 10.280 13.961 10.280 12.361 L 10.280 10.760 9.560 10.760 L 8.840 10.760 8.841 11.410 M11.720 12.361 L 11.720 13.961 11.865 13.901 C 12.113 13.797,12.514 13.485,12.679 13.266 C 13.047 12.778,13.158 12.349,13.159 11.410 L 13.160 10.760 12.440 10.760 L 11.720 10.760 11.720 12.361 " fill="#1C274C" stroke="none" fill-rule="evenodd"></path></svg>