<svg width="24" height="24" viewBox="0 0 24 24" fill="none" xmlns="http://www.w3.org/2000/svg"><path d="M10.320 2.041 C 8.054 2.278,6.126 3.207,4.580 4.805 C 3.239 6.192,2.411 7.862,2.093 9.820 C 1.993 10.436,1.993 11.840,2.092 12.480 C 2.515 15.205,4.053 17.523,6.408 18.983 C 7.391 19.593,8.616 20.032,9.880 20.227 C 10.510 20.324,11.801 20.324,12.440 20.226 C 14.472 19.916,16.193 19.051,17.622 17.622 C 19.049 16.194,19.915 14.472,20.226 12.440 C 20.324 11.801,20.324 10.510,20.227 9.880 C 19.597 5.804,16.503 2.697,12.480 2.100 C 11.970 2.024,10.786 1.992,10.320 2.041 M11.590 8.144 C 11.650 8.188,11.740 8.304,11.790 8.401 C 11.876 8.569,11.880 8.621,11.880 9.508 L 11.880 10.440 12.811 10.440 C 13.854 10.440,13.907 10.452,14.136 10.734 C 14.351 11.000,14.311 11.455,14.053 11.688 C 13.865 11.859,13.722 11.880,12.781 11.880 L 11.880 11.880 11.879 12.790 C 11.878 13.592,11.869 13.720,11.803 13.865 C 11.692 14.110,11.482 14.252,11.206 14.270 C 10.932 14.287,10.761 14.210,10.583 13.986 L 10.460 13.833 10.448 12.859 L 10.436 11.885 9.462 11.873 L 8.487 11.860 8.334 11.737 C 7.980 11.454,7.935 10.983,8.233 10.665 C 8.429 10.455,8.516 10.440,9.519 10.440 L 10.440 10.440 10.440 9.523 C 10.440 8.972,10.457 8.560,10.483 8.493 C 10.538 8.345,10.710 8.164,10.860 8.095 C 11.034 8.014,11.449 8.042,11.590 8.144 M19.060 18.697 C 18.717 18.851,18.548 19.267,18.682 19.627 C 18.744 19.793,20.784 21.831,20.980 21.923 C 21.176 22.015,21.355 22.020,21.550 21.938 C 21.748 21.856,21.837 21.770,21.925 21.580 C 22.015 21.384,22.019 21.204,21.939 21.009 C 21.863 20.825,19.890 18.831,19.672 18.717 C 19.500 18.628,19.233 18.619,19.060 18.697 " fill="#1C274C" stroke="none" fill-rule="evenodd"></path></svg>