<svg width="24" height="24" viewBox="0 0 24 24" fill="none" xmlns="http://www.w3.org/2000/svg"><path d="M12.120 2.042 C 7.665 2.449,4.034 5.725,3.185 10.103 C 2.631 12.962,3.333 15.846,5.155 18.200 C 5.493 18.637,6.363 19.507,6.800 19.845 C 8.110 20.859,9.532 21.510,11.103 21.815 C 11.914 21.972,12.410 22.000,14.390 22.000 L 16.240 22.000 16.240 19.503 L 16.240 17.005 14.250 16.989 C 12.579 16.975,12.216 16.961,11.987 16.906 C 10.930 16.651,10.092 16.180,9.395 15.450 C 8.185 14.184,7.726 12.382,8.180 10.680 C 8.309 10.196,8.683 9.433,8.994 9.016 C 9.801 7.936,11.061 7.206,12.399 7.042 C 12.586 7.019,13.522 7.000,14.489 7.000 L 16.240 7.000 16.240 4.500 L 16.240 2.000 14.350 2.006 C 13.310 2.009,12.307 2.025,12.120 2.042 M17.760 4.500 L 17.760 7.006 18.810 6.993 C 19.853 6.980,19.862 6.979,20.089 6.873 C 20.408 6.723,20.694 6.442,20.850 6.125 L 20.980 5.862 20.980 4.500 L 20.980 3.138 20.850 2.875 C 20.694 2.558,20.408 2.277,20.089 2.127 C 19.862 2.021,19.853 2.020,18.810 2.007 L 17.760 1.994 17.760 4.500 M17.760 19.500 L 17.760 22.006 18.810 21.993 C 19.853 21.980,19.862 21.979,20.089 21.873 C 20.408 21.723,20.694 21.442,20.850 21.125 L 20.980 20.862 20.980 19.500 L 20.980 18.138 20.850 17.875 C 20.694 17.558,20.408 17.277,20.089 17.127 C 19.862 17.021,19.853 17.020,18.810 17.007 L 17.760 16.994 17.760 19.500 " fill="#1C274C" stroke="none" fill-rule="evenodd"></path></svg>