<svg width="24" height="24" viewBox="0 0 24 24" fill="none" xmlns="http://www.w3.org/2000/svg"><path d="M10.500 2.024 C 9.193 2.154,8.205 2.423,7.140 2.939 C 5.681 3.645,4.428 4.750,3.508 6.140 C 2.784 7.234,2.305 8.498,2.096 9.864 C 1.997 10.515,1.996 11.799,2.094 12.440 C 2.519 15.218,4.049 17.529,6.430 18.989 C 7.442 19.610,8.645 20.038,9.900 20.223 C 10.550 20.318,11.762 20.318,12.420 20.222 C 14.430 19.928,16.202 19.043,17.622 17.622 C 19.026 16.218,19.889 14.514,20.204 12.520 C 20.314 11.824,20.324 10.566,20.224 9.900 C 20.038 8.666,19.644 7.537,19.045 6.526 C 17.619 4.121,15.241 2.518,12.480 2.101 C 12.074 2.040,10.826 1.991,10.500 2.024 M19.009 17.876 C 18.221 18.148,17.695 19.010,17.834 19.803 C 17.918 20.281,18.189 21.044,18.351 21.258 C 18.889 21.969,19.752 22.187,20.553 21.814 C 20.844 21.678,21.622 20.915,21.771 20.620 C 22.153 19.860,22.045 19.081,21.481 18.515 C 21.200 18.234,20.968 18.115,20.356 17.939 C 19.786 17.775,19.359 17.755,19.009 17.876 " fill="#1C274C" stroke="none" fill-rule="evenodd"></path></svg>