<svg width="24" height="24" viewBox="0 0 24 24" fill="none" xmlns="http://www.w3.org/2000/svg"><path d="M17.660 2.027 C 17.594 2.036,17.360 2.079,17.140 2.122 C 16.679 2.213,16.448 2.336,16.252 2.593 C 15.992 2.934,16.000 2.797,16.001 6.797 C 16.002 10.227,16.006 10.429,16.075 10.580 C 16.116 10.668,16.183 10.771,16.226 10.808 C 16.332 10.903,16.576 11.000,16.706 11.000 C 16.884 11.000,17.149 10.847,17.248 10.687 C 17.340 10.540,17.340 10.537,17.360 8.560 L 17.380 6.581 17.660 6.528 C 18.031 6.458,18.392 6.492,18.862 6.643 C 19.428 6.824,19.734 6.879,20.192 6.879 C 20.935 6.881,21.391 6.737,21.688 6.408 C 21.969 6.098,21.980 6.023,21.980 4.520 C 21.980 3.238,21.976 3.172,21.895 2.996 C 21.800 2.791,21.580 2.553,21.399 2.459 C 21.181 2.347,20.938 2.326,20.547 2.385 C 20.104 2.453,19.814 2.418,19.329 2.241 C 18.791 2.044,18.157 1.963,17.660 2.027 M5.940 6.044 C 5.607 6.092,5.072 6.262,4.748 6.424 C 3.254 7.171,2.229 8.767,2.041 10.640 C 2.009 10.960,1.999 12.132,2.009 14.500 C 2.024 18.309,2.005 18.062,2.325 18.716 C 2.635 19.349,3.249 19.841,3.875 19.959 C 4.008 19.984,5.129 20.000,6.783 20.000 L 9.474 20.000 9.487 21.090 L 9.500 22.180 9.608 22.364 C 9.733 22.577,9.845 22.660,10.095 22.727 C 10.420 22.814,10.775 22.632,10.925 22.302 C 10.995 22.147,10.998 21.887,10.999 16.572 C 11.000 12.788,10.986 10.871,10.956 10.592 C 10.784 8.987,9.961 7.535,8.763 6.722 C 7.921 6.151,6.903 5.906,5.940 6.044 M10.681 6.410 C 11.743 7.607,12.359 9.090,12.480 10.742 C 12.501 11.027,12.518 13.227,12.519 15.630 L 12.520 20.000 13.020 20.000 L 13.520 20.000 13.520 21.106 C 13.520 22.203,13.521 22.215,13.616 22.377 C 13.856 22.787,14.466 22.858,14.788 22.513 C 14.984 22.303,15.000 22.196,15.000 21.063 L 15.000 20.003 17.590 19.991 C 20.164 19.980,20.181 19.979,20.418 19.890 C 21.232 19.583,21.803 18.838,21.957 17.880 C 22.014 17.532,22.014 11.112,21.958 10.622 C 21.873 9.880,21.716 9.316,21.418 8.686 L 21.241 8.311 21.090 8.335 C 21.008 8.348,20.697 8.370,20.400 8.383 C 19.898 8.406,19.318 8.354,18.970 8.256 L 18.880 8.231 18.880 9.400 C 18.880 10.713,18.860 10.856,18.607 11.340 C 18.230 12.060,17.492 12.496,16.657 12.490 C 15.692 12.484,14.904 11.874,14.577 10.880 C 14.511 10.680,14.503 10.447,14.489 8.330 L 14.475 6.000 12.396 6.000 L 10.317 6.000 10.681 6.410 M8.300 15.316 C 8.904 15.594,8.904 16.406,8.300 16.684 C 8.153 16.752,8.009 16.758,6.509 16.759 C 5.125 16.760,4.855 16.751,4.729 16.698 C 4.101 16.436,4.084 15.600,4.700 15.316 C 4.847 15.248,4.990 15.242,6.500 15.242 C 8.010 15.242,8.153 15.248,8.300 15.316 " fill="#1C274C" stroke="none" fill-rule="evenodd"></path></svg>