<svg width="24" height="24" viewBox="0 0 24 24" fill="none" xmlns="http://www.w3.org/2000/svg"><path d="M16.375 2.196 C 16.307 2.238,16.230 2.331,16.205 2.402 C 16.172 2.497,16.160 4.593,16.160 10.170 C 16.160 17.184,16.165 17.819,16.226 17.947 C 16.262 18.023,16.330 18.110,16.376 18.139 C 16.476 18.202,19.234 19.125,19.698 19.251 C 19.932 19.314,20.135 19.339,20.440 19.339 C 20.810 19.340,20.883 19.328,21.056 19.240 C 21.525 19.001,21.783 18.630,21.907 18.020 C 21.976 17.680,21.980 17.303,21.980 11.340 C 21.980 4.602,21.985 4.776,21.784 4.338 C 21.550 3.826,21.156 3.618,19.040 2.887 C 16.655 2.063,16.613 2.052,16.375 2.196 M13.832 2.674 C 13.753 2.714,12.907 3.287,11.954 3.946 C 11.000 4.606,10.106 5.215,9.967 5.300 C 9.829 5.385,9.671 5.507,9.617 5.570 L 9.520 5.686 9.520 13.398 C 9.520 21.004,9.521 21.111,9.599 21.209 C 9.720 21.363,9.894 21.421,10.072 21.366 C 10.153 21.340,11.012 20.770,11.980 20.099 C 12.948 19.428,13.862 18.805,14.011 18.714 C 14.159 18.624,14.326 18.497,14.381 18.432 L 14.480 18.314 14.480 10.606 C 14.480 2.119,14.500 2.795,14.240 2.660 C 14.088 2.582,14.008 2.584,13.832 2.674 M3.100 4.689 C 2.720 4.825,2.334 5.191,2.205 5.537 C 2.018 6.041,2.020 5.953,2.020 12.700 C 2.020 18.656,2.024 19.076,2.091 19.316 C 2.243 19.867,2.489 20.148,3.053 20.415 C 3.646 20.696,7.144 21.879,7.381 21.880 C 7.470 21.880,7.584 21.851,7.635 21.815 C 7.851 21.664,7.840 22.086,7.840 13.840 C 7.840 5.580,7.851 6.006,7.633 5.867 C 7.491 5.776,4.463 4.776,4.112 4.704 C 3.764 4.632,3.280 4.625,3.100 4.689 " fill="#1C274C" stroke="none" fill-rule="evenodd"></path></svg>