<svg width="24" height="24" viewBox="0 0 24 24" fill="none" xmlns="http://www.w3.org/2000/svg"><path d="M19.900 3.041 C 19.812 3.059,19.694 3.091,19.638 3.113 C 19.103 3.319,2.848 10.604,2.691 10.708 C 2.440 10.874,2.277 11.072,2.130 11.387 C 2.035 11.589,2.021 11.670,2.021 12.000 C 2.021 12.330,2.035 12.411,2.130 12.613 C 2.276 12.926,2.435 13.120,2.689 13.292 C 2.944 13.466,19.507 20.857,19.830 20.941 C 20.451 21.103,21.083 20.916,21.542 20.435 C 21.940 20.018,22.088 19.483,21.944 18.988 C 21.907 18.862,21.132 17.363,20.220 15.654 C 18.992 13.351,18.551 12.490,18.517 12.324 C 18.451 12.008,18.495 11.637,18.633 11.344 C 18.696 11.210,19.452 9.783,20.312 8.173 C 21.186 6.538,21.905 5.145,21.943 5.015 C 22.088 4.516,21.941 3.983,21.542 3.565 C 21.104 3.106,20.512 2.917,19.900 3.041 " fill="#1C274C" stroke="none" fill-rule="evenodd"></path></svg>