<svg width="24" height="24" viewBox="0 0 24 24" fill="none" xmlns="http://www.w3.org/2000/svg"><path d="M3.284 3.061 C 2.958 3.152,2.704 3.308,2.458 3.565 C 2.047 3.996,1.904 4.548,2.071 5.060 C 2.114 5.192,2.889 6.685,3.793 8.377 C 5.008 10.650,5.449 11.513,5.484 11.677 C 5.549 11.992,5.505 12.364,5.367 12.656 C 5.304 12.790,4.548 14.217,3.688 15.827 C 2.814 17.462,2.095 18.855,2.057 18.985 C 1.912 19.484,2.059 20.017,2.458 20.435 C 2.917 20.915,3.550 21.103,4.169 20.941 C 4.490 20.858,21.056 13.466,21.311 13.292 C 21.565 13.120,21.724 12.926,21.870 12.613 C 21.965 12.411,21.979 12.330,21.979 12.000 C 21.979 11.670,21.965 11.589,21.870 11.387 C 21.723 11.072,21.560 10.874,21.309 10.708 C 21.128 10.588,4.728 3.245,4.300 3.093 C 4.055 3.005,3.539 2.989,3.284 3.061 " fill="#1C274C" stroke="none" fill-rule="evenodd"></path></svg>