<svg width="24" height="24" viewBox="0 0 24 24" fill="none" xmlns="http://www.w3.org/2000/svg"><path d="M4.291 2.036 C 3.885 2.141,3.397 2.534,3.205 2.911 C 3.003 3.306,2.948 3.811,3.064 4.203 C 3.170 4.559,10.551 21.082,10.708 21.311 C 10.880 21.565,11.074 21.724,11.387 21.870 C 11.589 21.965,11.670 21.979,12.000 21.979 C 12.330 21.979,12.411 21.965,12.613 21.870 C 12.926 21.724,13.120 21.565,13.293 21.311 C 13.448 21.082,20.829 4.561,20.935 4.203 C 21.057 3.793,20.993 3.279,20.771 2.870 C 20.618 2.590,20.216 2.228,19.933 2.116 C 19.756 2.045,19.618 2.023,19.359 2.022 C 18.932 2.020,19.131 1.925,15.440 3.896 C 13.889 4.725,12.531 5.429,12.423 5.461 C 12.171 5.536,11.829 5.536,11.577 5.461 C 11.469 5.429,10.111 4.725,8.560 3.896 C 4.995 1.992,5.091 2.039,4.716 2.019 C 4.553 2.010,4.362 2.018,4.291 2.036 " fill="#1C274C" stroke="none" fill-rule="evenodd"></path></svg>