<svg width="24" height="24" viewBox="0 0 24 24" fill="none" xmlns="http://www.w3.org/2000/svg"><path d="M11.200 2.045 C 9.737 2.195,8.242 2.803,7.100 3.712 C 5.492 4.993,4.455 6.768,4.093 8.860 C 3.996 9.421,3.996 11.024,4.093 11.700 C 4.479 14.382,5.466 16.779,7.002 18.760 C 7.368 19.231,8.273 20.163,8.700 20.508 C 9.419 21.087,10.360 21.639,10.960 21.832 C 11.894 22.133,12.703 22.047,13.723 21.537 C 14.582 21.109,15.341 20.535,16.161 19.695 C 16.768 19.073,17.137 18.615,17.623 17.880 C 19.487 15.059,20.390 11.231,19.836 8.500 C 19.644 7.554,19.179 6.423,18.650 5.618 C 17.020 3.137,14.121 1.747,11.200 2.045 M12.267 6.803 C 12.407 6.855,12.586 7.021,12.674 7.180 C 12.729 7.280,12.742 7.458,12.753 8.267 L 12.766 9.234 13.733 9.247 C 14.542 9.258,14.720 9.271,14.820 9.326 C 15.402 9.649,15.380 10.407,14.780 10.684 C 14.639 10.749,14.510 10.758,13.693 10.759 L 12.766 10.760 12.753 11.730 C 12.739 12.785,12.732 12.822,12.494 13.047 C 12.353 13.181,12.201 13.240,12.000 13.240 C 11.799 13.240,11.647 13.181,11.506 13.047 C 11.268 12.822,11.261 12.785,11.247 11.730 L 11.234 10.760 10.307 10.759 C 9.490 10.758,9.361 10.749,9.220 10.684 C 8.734 10.459,8.601 9.877,8.953 9.506 C 9.178 9.269,9.215 9.261,10.267 9.247 L 11.234 9.234 11.247 8.267 C 11.258 7.458,11.271 7.280,11.326 7.180 C 11.411 7.028,11.591 6.856,11.720 6.805 C 11.854 6.751,12.129 6.750,12.267 6.803 " fill="#1C274C" stroke="none" fill-rule="evenodd"></path></svg>