<svg width="24" height="24" viewBox="0 0 24 24" fill="none" xmlns="http://www.w3.org/2000/svg"><path d="M8.419 2.043 C 5.807 2.139,4.481 2.507,3.549 3.393 C 2.551 4.342,2.166 5.587,2.041 8.260 C 1.988 9.399,1.988 14.601,2.041 15.740 C 2.160 18.285,2.507 19.501,3.379 20.433 C 4.326 21.446,5.580 21.837,8.280 21.959 C 9.445 22.011,14.555 22.011,15.720 21.959 C 18.275 21.843,19.498 21.496,20.433 20.621 C 21.360 19.755,21.742 18.682,21.927 16.420 C 22.002 15.512,22.002 8.488,21.927 7.580 C 21.743 5.332,21.366 4.263,20.451 3.393 C 19.495 2.484,18.240 2.146,15.417 2.041 C 14.194 1.995,9.686 1.997,8.419 2.043 M16.415 7.049 C 16.766 7.154,17.040 7.583,16.990 7.950 C 16.971 8.097,13.502 17.201,13.358 17.484 C 13.059 18.072,12.191 18.170,11.830 17.656 C 11.752 17.545,11.566 16.991,11.182 15.720 C 10.886 14.741,10.607 13.864,10.563 13.771 C 10.516 13.673,10.417 13.559,10.325 13.498 C 10.222 13.430,9.531 13.201,8.352 12.842 C 7.354 12.539,6.483 12.263,6.418 12.229 C 6.257 12.146,6.179 12.052,6.077 11.822 C 5.888 11.396,6.101 10.849,6.540 10.629 C 6.639 10.579,15.135 7.313,15.780 7.076 C 16.017 6.989,16.191 6.982,16.415 7.049 " fill="#1C274C" stroke="none" fill-rule="evenodd"></path></svg>