<svg width="24" height="24" viewBox="0 0 24 24" fill="none" xmlns="http://www.w3.org/2000/svg"><path d="M11.240 2.044 C 9.172 2.242,7.207 3.381,6.102 5.020 C 5.146 6.439,4.831 7.960,5.104 9.840 C 5.435 12.111,6.547 14.348,8.139 15.942 C 9.066 16.871,10.156 17.577,11.104 17.865 C 11.415 17.959,11.528 17.973,12.000 17.973 C 12.472 17.973,12.585 17.959,12.896 17.865 C 14.483 17.383,16.288 15.827,17.387 13.992 C 18.432 12.247,18.976 10.394,18.976 8.580 C 18.976 7.344,18.727 6.397,18.140 5.404 C 16.764 3.074,14.085 1.770,11.240 2.044 M12.478 7.062 C 13.150 7.215,13.750 7.801,13.927 8.477 C 14.103 9.153,13.932 9.844,13.462 10.350 C 12.686 11.185,11.413 11.215,10.598 10.417 C 9.814 9.649,9.807 8.391,10.583 7.598 C 11.073 7.098,11.769 6.901,12.478 7.062 M4.500 14.532 C 3.931 14.830,3.887 14.857,3.414 15.208 C 2.773 15.683,2.351 16.203,2.127 16.790 C 2.039 17.021,2.024 17.124,2.024 17.500 C 2.024 17.876,2.039 17.979,2.127 18.210 C 2.295 18.650,2.477 18.917,2.900 19.343 C 4.199 20.650,6.711 21.570,9.900 21.906 C 10.861 22.008,13.139 22.008,14.100 21.906 C 16.697 21.633,18.831 20.976,20.321 19.993 C 20.771 19.696,21.440 19.043,21.635 18.710 C 21.900 18.257,21.976 17.989,21.976 17.500 C 21.976 17.124,21.961 17.021,21.873 16.790 C 21.534 15.900,20.706 15.131,19.371 14.464 C 19.168 14.363,18.994 14.280,18.984 14.280 C 18.975 14.280,18.872 14.438,18.757 14.630 C 17.598 16.563,16.096 18.018,14.380 18.874 C 13.469 19.328,12.838 19.492,12.000 19.492 C 11.165 19.492,10.512 19.323,9.629 18.879 C 8.686 18.405,7.934 17.855,7.115 17.041 C 6.363 16.294,5.732 15.476,5.205 14.570 C 5.112 14.410,5.024 14.280,5.008 14.281 C 4.993 14.282,4.764 14.395,4.500 14.532 " fill="#1C274C" stroke="none" fill-rule="evenodd"></path></svg>