<svg width="24" height="24" viewBox="0 0 24 24" fill="none" xmlns="http://www.w3.org/2000/svg"><path d="M11.200 2.045 C 8.106 2.363,5.441 4.518,4.439 7.512 C 4.031 8.735,3.915 10.016,4.081 11.500 C 4.572 15.904,7.160 20.029,10.419 21.606 C 11.018 21.896,11.348 21.972,12.000 21.972 C 12.652 21.972,12.982 21.896,13.580 21.606 C 15.053 20.894,16.500 19.570,17.569 17.959 C 19.032 15.752,19.874 13.168,19.985 10.543 C 20.171 6.165,17.012 2.466,12.726 2.041 C 12.249 1.994,11.688 1.995,11.200 2.045 M12.971 6.115 C 14.173 6.432,15.183 7.289,15.665 8.399 C 15.922 8.994,15.974 9.261,15.974 10.000 C 15.974 10.739,15.922 11.006,15.665 11.601 C 15.277 12.496,14.496 13.277,13.601 13.665 C 13.006 13.922,12.739 13.974,12.000 13.974 C 11.274 13.974,11.016 13.926,10.430 13.681 C 9.540 13.311,8.689 12.460,8.319 11.570 C 7.927 10.630,7.899 9.574,8.241 8.631 C 8.715 7.319,9.897 6.323,11.294 6.057 C 11.702 5.979,12.568 6.009,12.971 6.115 M11.654 7.842 C 11.562 7.888,11.437 7.998,11.374 8.089 C 11.266 8.244,11.259 8.281,11.246 8.743 L 11.232 9.232 10.743 9.246 C 10.285 9.259,10.243 9.267,10.094 9.371 C 9.875 9.522,9.760 9.739,9.760 10.000 C 9.760 10.261,9.875 10.478,10.094 10.629 C 10.243 10.733,10.285 10.741,10.743 10.754 L 11.232 10.768 11.246 11.257 C 11.259 11.715,11.267 11.757,11.371 11.906 C 11.677 12.348,12.321 12.351,12.626 11.912 C 12.734 11.756,12.741 11.720,12.754 11.257 L 12.768 10.768 13.257 10.754 C 13.720 10.741,13.756 10.734,13.912 10.626 C 14.344 10.326,14.344 9.674,13.912 9.374 C 13.756 9.266,13.720 9.259,13.257 9.246 L 12.768 9.232 12.754 8.743 C 12.741 8.280,12.734 8.244,12.626 8.088 C 12.412 7.780,11.993 7.674,11.654 7.842 " fill="#1C274C" stroke="none" fill-rule="evenodd"></path></svg>