<svg width="24" height="24" viewBox="0 0 24 24" fill="none" xmlns="http://www.w3.org/2000/svg"><path d="M11.240 2.044 C 8.574 2.344,6.211 4.059,4.929 6.625 C 4.034 8.414,3.795 10.324,4.183 12.588 C 4.649 15.316,5.920 17.836,7.760 19.682 C 8.561 20.485,9.393 21.101,10.263 21.532 C 11.542 22.167,12.462 22.167,13.734 21.532 C 16.788 20.008,19.185 16.451,19.836 12.480 C 20.198 10.275,19.950 8.383,19.071 6.625 C 18.215 4.910,16.870 3.560,15.220 2.757 C 13.974 2.151,12.552 1.897,11.240 2.044 M12.383 8.043 C 13.185 8.190,13.839 8.872,13.967 9.695 C 14.153 10.894,13.209 12.000,12.000 12.000 C 11.032 12.000,10.183 11.268,10.033 10.305 C 9.933 9.663,10.132 9.061,10.596 8.596 C 11.085 8.108,11.698 7.918,12.383 8.043 " fill="#1C274C" stroke="none" fill-rule="evenodd"></path></svg>