<svg width="24" height="24" viewBox="0 0 24 24" fill="none" xmlns="http://www.w3.org/2000/svg"><path d="M11.200 2.045 C 9.737 2.195,8.242 2.803,7.100 3.712 C 5.492 4.993,4.455 6.768,4.093 8.860 C 3.996 9.421,3.996 11.024,4.093 11.700 C 4.479 14.382,5.466 16.779,7.002 18.760 C 7.368 19.231,8.273 20.163,8.700 20.508 C 9.419 21.087,10.360 21.639,10.960 21.832 C 11.894 22.133,12.703 22.047,13.723 21.537 C 14.582 21.109,15.341 20.535,16.161 19.695 C 16.768 19.073,17.137 18.615,17.623 17.880 C 19.487 15.059,20.390 11.231,19.836 8.500 C 19.644 7.554,19.179 6.423,18.650 5.618 C 17.020 3.137,14.121 1.747,11.200 2.045 M15.388 9.367 C 15.628 9.526,15.733 9.721,15.733 10.007 C 15.733 10.203,15.714 10.271,15.616 10.409 C 15.552 10.501,15.436 10.613,15.359 10.658 C 15.222 10.739,15.173 10.740,12.000 10.740 C 8.827 10.740,8.778 10.739,8.641 10.658 C 8.564 10.613,8.448 10.501,8.384 10.409 C 8.098 10.003,8.330 9.395,8.815 9.278 C 8.884 9.261,10.354 9.250,12.083 9.254 L 15.226 9.260 15.388 9.367 " fill="#1C274C" stroke="none" fill-rule="evenodd"></path></svg>