<svg width="24" height="24" viewBox="0 0 24 24" fill="none" xmlns="http://www.w3.org/2000/svg"><path d="M11.200 2.045 C 9.737 2.195,8.242 2.803,7.100 3.712 C 5.492 4.993,4.455 6.768,4.093 8.860 C 3.996 9.421,3.996 11.024,4.093 11.700 C 4.479 14.382,5.466 16.779,7.002 18.760 C 7.368 19.231,8.273 20.163,8.700 20.508 C 9.419 21.087,10.360 21.639,10.960 21.832 C 11.894 22.133,12.703 22.047,13.723 21.537 C 14.582 21.109,15.341 20.535,16.161 19.695 C 16.768 19.073,17.137 18.615,17.623 17.880 C 19.487 15.059,20.390 11.231,19.836 8.500 C 19.644 7.554,19.179 6.423,18.650 5.618 C 17.020 3.137,14.121 1.747,11.200 2.045 M10.898 7.061 C 11.194 7.138,11.552 7.328,11.778 7.527 C 11.874 7.611,11.974 7.680,12.000 7.680 C 12.026 7.680,12.126 7.611,12.222 7.527 C 12.619 7.177,13.187 6.972,13.640 7.015 C 13.969 7.045,14.339 7.222,14.540 7.445 C 14.876 7.817,15.062 8.497,14.969 9.007 C 14.832 9.751,14.086 10.671,12.880 11.583 C 12.151 12.134,11.849 12.134,11.120 11.583 C 9.914 10.671,9.168 9.751,9.031 9.007 C 8.940 8.511,9.120 7.830,9.440 7.467 C 9.783 7.075,10.349 6.918,10.898 7.061 " fill="#1C274C" stroke="none" fill-rule="evenodd"></path></svg>