<svg width="24" height="24" viewBox="0 0 24 24" fill="none" xmlns="http://www.w3.org/2000/svg"><path d="M11.200 2.045 C 9.737 2.195,8.242 2.803,7.100 3.712 C 5.492 4.993,4.455 6.768,4.093 8.860 C 3.996 9.421,3.996 11.024,4.093 11.700 C 4.479 14.382,5.466 16.779,7.002 18.760 C 7.368 19.231,8.273 20.163,8.700 20.508 C 9.419 21.087,10.360 21.639,10.960 21.832 C 11.894 22.133,12.703 22.047,13.723 21.537 C 14.582 21.109,15.341 20.535,16.161 19.695 C 16.768 19.073,17.137 18.615,17.623 17.880 C 19.487 15.059,20.390 11.231,19.836 8.500 C 19.644 7.554,19.179 6.423,18.650 5.618 C 17.020 3.137,14.121 1.747,11.200 2.045 M12.604 5.817 C 12.888 5.878,15.279 6.737,15.556 6.878 C 16.063 7.137,16.341 7.751,16.203 8.308 C 16.107 8.698,15.774 9.065,15.392 9.202 L 15.244 9.254 15.232 10.697 L 15.220 12.140 15.094 12.405 C 14.854 12.913,14.548 13.158,13.886 13.376 C 12.377 13.873,11.623 13.873,10.114 13.376 C 9.452 13.158,9.146 12.913,8.906 12.405 L 8.780 12.140 8.768 10.697 L 8.756 9.254 8.608 9.202 C 8.226 9.065,7.893 8.698,7.797 8.308 C 7.659 7.751,7.937 7.137,8.444 6.878 C 8.704 6.745,11.107 5.878,11.378 5.819 C 11.700 5.749,12.278 5.748,12.604 5.817 M11.730 7.282 C 11.579 7.312,10.204 7.796,9.840 7.948 L 9.700 8.006 10.620 8.342 C 11.126 8.527,11.643 8.698,11.770 8.721 C 12.099 8.782,12.316 8.731,13.380 8.342 L 14.300 8.006 14.160 7.948 C 13.741 7.773,12.423 7.315,12.241 7.280 C 12.003 7.235,11.969 7.235,11.730 7.282 M10.240 10.792 C 10.240 11.494,10.253 11.761,10.290 11.808 C 10.318 11.842,10.484 11.917,10.660 11.974 C 11.328 12.188,11.482 12.216,12.000 12.216 C 12.518 12.216,12.672 12.188,13.340 11.974 C 13.516 11.917,13.683 11.842,13.710 11.808 C 13.747 11.761,13.760 11.494,13.760 10.792 C 13.760 10.057,13.749 9.840,13.710 9.840 C 13.683 9.840,13.516 9.895,13.340 9.962 C 12.828 10.155,12.423 10.239,12.000 10.239 C 11.577 10.239,11.172 10.155,10.660 9.962 C 10.484 9.895,10.318 9.840,10.290 9.840 C 10.251 9.840,10.240 10.057,10.240 10.792 " fill="#1C274C" stroke="none" fill-rule="evenodd"></path></svg>