<svg width="24" height="24" viewBox="0 0 24 24" fill="none" xmlns="http://www.w3.org/2000/svg"><path d="M11.200 2.045 C 9.737 2.195,8.242 2.803,7.100 3.712 C 5.492 4.993,4.455 6.768,4.093 8.860 C 3.996 9.421,3.996 11.024,4.093 11.700 C 4.479 14.382,5.466 16.779,7.002 18.760 C 7.368 19.231,8.273 20.163,8.700 20.508 C 9.419 21.087,10.360 21.639,10.960 21.832 C 11.894 22.133,12.703 22.047,13.723 21.537 C 14.582 21.109,15.341 20.535,16.161 19.695 C 16.768 19.073,17.137 18.615,17.623 17.880 C 19.487 15.059,20.390 11.231,19.836 8.500 C 19.644 7.554,19.179 6.423,18.650 5.618 C 17.020 3.137,14.121 1.747,11.200 2.045 M12.948 6.381 C 13.321 6.476,13.825 6.704,14.158 6.931 C 14.392 7.090,14.910 7.608,15.069 7.842 C 15.296 8.176,15.524 8.679,15.627 9.072 C 15.712 9.396,15.728 9.549,15.728 10.000 C 15.727 10.675,15.619 11.136,15.330 11.697 L 15.134 12.076 15.611 12.548 C 16.109 13.040,16.238 13.234,16.239 13.491 C 16.240 13.659,16.153 13.897,16.048 14.013 C 15.849 14.234,15.439 14.304,15.168 14.163 C 15.087 14.120,14.806 13.870,14.544 13.606 L 14.068 13.127 13.914 13.224 C 13.291 13.617,12.367 13.818,11.595 13.727 C 10.746 13.628,10.004 13.274,9.399 12.680 C 9.012 12.300,8.866 12.102,8.635 11.639 C 8.379 11.127,8.271 10.644,8.271 10.000 C 8.271 9.350,8.378 8.874,8.641 8.354 C 8.871 7.897,9.008 7.707,9.357 7.357 C 9.705 7.009,9.897 6.871,10.345 6.645 C 11.130 6.249,12.054 6.155,12.948 6.381 M11.540 7.798 C 10.501 8.023,9.760 8.940,9.760 10.000 C 9.760 10.615,9.979 11.139,10.420 11.580 C 11.309 12.469,12.691 12.469,13.580 11.580 C 14.744 10.416,14.319 8.482,12.771 7.894 C 12.473 7.781,11.844 7.732,11.540 7.798 " fill="#1C274C" stroke="none" fill-rule="evenodd"></path></svg>