<svg width="24" height="24" viewBox="0 0 24 24" fill="none" xmlns="http://www.w3.org/2000/svg"><path d="M11.514 2.090 C 11.172 2.210,10.947 2.368,10.754 2.624 C 10.645 2.767,9.508 5.273,6.915 11.084 C 4.888 15.625,3.178 19.484,3.115 19.660 C 2.877 20.328,3.016 20.969,3.513 21.490 C 3.923 21.920,4.498 22.094,5.015 21.943 C 5.143 21.906,6.622 21.142,8.358 20.215 C 11.812 18.372,11.714 18.415,12.265 18.509 C 12.498 18.549,12.904 18.754,15.642 20.215 C 17.378 21.142,18.857 21.906,18.985 21.943 C 19.309 22.037,19.682 22.001,20.012 21.844 C 20.296 21.708,20.657 21.361,20.795 21.089 C 20.997 20.694,21.052 20.189,20.936 19.797 C 20.831 19.445,13.449 2.920,13.295 2.693 C 12.907 2.122,12.153 1.867,11.514 2.090 " fill="#1C274C" stroke="none" fill-rule="evenodd"></path></svg>