<svg width="24" height="24" viewBox="0 0 24 24" fill="none" xmlns="http://www.w3.org/2000/svg"><path d="M11.460 2.025 C 10.197 2.163,9.121 2.620,8.144 3.434 C 7.113 4.292,6.358 5.615,6.095 7.020 C 5.992 7.569,5.993 8.783,6.096 9.460 C 6.593 12.718,8.463 15.577,10.842 16.718 C 11.677 17.118,12.395 17.096,13.300 16.643 C 14.075 16.254,14.820 15.656,15.468 14.902 C 16.727 13.439,17.590 11.510,17.904 9.460 C 18.007 8.784,18.008 7.570,17.905 7.020 C 17.484 4.768,15.919 2.967,13.790 2.285 C 13.576 2.217,13.243 2.133,13.050 2.099 C 12.698 2.036,11.757 1.993,11.460 2.025 M12.383 6.043 C 13.185 6.190,13.839 6.872,13.967 7.695 C 14.153 8.894,13.209 10.000,12.000 10.000 C 11.032 10.000,10.183 9.268,10.033 8.305 C 9.933 7.663,10.132 7.061,10.596 6.596 C 11.085 6.108,11.698 5.918,12.383 6.043 M2.840 14.286 C 2.534 14.375,2.012 14.873,1.672 15.400 C 1.203 16.127,1.135 16.975,1.485 17.754 C 2.248 19.456,5.099 20.787,8.960 21.246 C 9.345 21.292,9.683 21.335,9.710 21.343 C 9.746 21.353,9.760 21.472,9.760 21.760 C 9.760 22.226,9.805 22.366,10.014 22.549 C 10.282 22.785,10.653 22.803,10.936 22.595 C 11.257 22.359,12.589 21.154,12.656 21.039 C 12.752 20.872,12.758 20.547,12.667 20.358 C 12.595 20.209,11.065 18.841,10.827 18.712 C 10.574 18.575,10.147 18.652,9.952 18.867 C 9.823 19.009,9.760 19.230,9.760 19.539 C 9.760 19.705,9.743 19.840,9.722 19.840 C 9.578 19.840,8.325 19.661,7.880 19.577 C 5.753 19.175,4.136 18.518,3.300 17.715 C 2.910 17.341,2.760 17.073,2.760 16.753 C 2.761 16.415,2.902 16.168,3.337 15.738 C 3.668 15.411,3.717 15.345,3.754 15.170 C 3.874 14.611,3.375 14.129,2.840 14.286 M20.745 14.288 C 20.384 14.387,20.150 14.807,20.246 15.186 C 20.285 15.342,20.354 15.433,20.665 15.740 C 21.252 16.319,21.366 16.676,21.125 17.180 C 21.012 17.417,20.668 17.795,20.360 18.021 C 19.278 18.816,17.247 19.464,14.902 19.765 C 14.551 19.810,14.218 19.870,14.162 19.899 C 13.656 20.163,13.631 20.924,14.119 21.194 C 14.348 21.320,14.469 21.326,15.120 21.242 C 18.144 20.854,20.508 19.977,21.755 18.781 C 22.443 18.122,22.729 17.516,22.730 16.720 C 22.731 16.022,22.428 15.382,21.802 14.759 C 21.345 14.305,21.094 14.193,20.745 14.288 " fill="#1C274C" stroke="none" fill-rule="evenodd"></path></svg>