<svg width="24" height="24" viewBox="0 0 24 24" fill="none" xmlns="http://www.w3.org/2000/svg"><path d="M4.496 2.041 C 3.886 2.151,3.448 2.535,3.240 3.140 C 3.020 3.779,3.020 3.777,3.020 8.520 C 3.020 13.362,3.013 13.201,3.284 14.311 C 3.457 15.022,3.645 15.539,3.979 16.220 C 4.969 18.245,6.717 19.924,9.096 21.138 C 10.390 21.798,10.896 21.958,11.786 21.989 C 12.777 22.024,13.222 21.925,14.306 21.429 C 16.514 20.419,18.299 18.965,19.443 17.244 C 20.274 15.995,20.778 14.558,20.945 12.968 C 21.033 12.119,21.003 4.227,20.909 3.730 C 20.771 3.003,20.552 2.583,20.171 2.317 C 19.825 2.075,19.588 2.020,18.920 2.023 C 18.258 2.026,18.076 2.051,15.680 2.462 C 13.022 2.917,12.897 2.933,12.000 2.933 C 11.106 2.933,10.950 2.913,8.440 2.481 C 7.549 2.327,6.577 2.165,6.280 2.121 C 5.651 2.026,4.788 1.988,4.496 2.041 M9.232 7.063 C 10.086 7.239,10.804 7.742,11.126 8.389 C 11.231 8.601,11.247 8.671,11.232 8.857 C 11.198 9.268,10.894 9.560,10.500 9.560 C 10.231 9.560,10.023 9.437,9.859 9.181 C 9.783 9.062,9.662 8.920,9.590 8.865 C 9.038 8.444,7.962 8.444,7.410 8.865 C 7.338 8.920,7.217 9.062,7.141 9.181 C 6.977 9.437,6.769 9.560,6.500 9.560 C 6.106 9.560,5.802 9.268,5.768 8.857 C 5.753 8.671,5.769 8.601,5.874 8.389 C 6.191 7.752,6.907 7.245,7.740 7.066 C 8.118 6.986,8.846 6.984,9.232 7.063 M16.232 7.063 C 17.086 7.239,17.804 7.742,18.126 8.389 C 18.231 8.601,18.247 8.671,18.232 8.857 C 18.198 9.268,17.894 9.560,17.500 9.560 C 17.231 9.560,17.023 9.437,16.859 9.181 C 16.783 9.062,16.662 8.920,16.590 8.865 C 16.038 8.444,14.962 8.444,14.410 8.865 C 14.338 8.920,14.217 9.062,14.141 9.181 C 13.977 9.437,13.769 9.560,13.500 9.560 C 13.106 9.560,12.802 9.268,12.768 8.857 C 12.753 8.671,12.769 8.601,12.874 8.389 C 13.191 7.752,13.907 7.245,14.740 7.066 C 15.118 6.986,15.846 6.984,16.232 7.063 M8.746 13.260 C 8.824 13.293,8.972 13.380,9.074 13.455 C 9.776 13.966,10.734 14.216,12.000 14.216 C 13.294 14.216,14.268 13.953,14.996 13.404 C 15.115 13.315,15.274 13.230,15.349 13.216 C 15.780 13.135,16.189 13.441,16.231 13.877 C 16.269 14.272,16.090 14.538,15.556 14.880 C 14.966 15.258,14.216 15.530,13.331 15.685 C 12.600 15.813,11.400 15.813,10.669 15.685 C 9.801 15.533,9.029 15.256,8.469 14.897 C 8.098 14.659,7.928 14.499,7.836 14.300 C 7.550 13.683,8.140 13.007,8.746 13.260 " fill="#1C274C" stroke="none" fill-rule="evenodd"></path></svg>