<svg width="24" height="24" viewBox="0 0 24 24" fill="none" xmlns="http://www.w3.org/2000/svg"><path d="M10.025 2.042 C 9.773 2.105,9.398 2.325,9.193 2.531 C 8.968 2.755,8.745 3.195,8.563 3.770 C 8.430 4.194,7.796 6.610,7.814 6.628 C 7.834 6.647,8.334 6.493,8.680 6.359 C 8.867 6.287,9.578 5.969,10.260 5.652 C 12.327 4.691,12.702 4.562,13.523 4.530 C 14.124 4.507,14.499 4.584,15.016 4.838 C 15.729 5.187,16.171 5.648,16.556 6.441 L 16.780 6.901 16.980 6.850 C 17.257 6.778,17.889 6.783,18.176 6.860 C 18.998 7.077,19.696 7.788,19.881 8.593 C 19.986 9.053,19.838 9.452,19.507 9.602 C 19.072 9.800,18.594 9.588,18.476 9.145 C 18.341 8.640,18.214 8.473,17.865 8.340 C 17.677 8.268,17.313 8.271,17.239 8.345 C 17.218 8.366,17.409 9.178,17.702 10.320 C 18.259 12.491,18.373 12.993,18.443 13.600 C 18.497 14.071,18.470 15.529,18.401 15.857 C 18.379 15.965,18.368 16.061,18.378 16.071 C 18.414 16.107,18.977 15.571,19.272 15.220 C 20.009 14.343,20.393 13.552,20.761 12.155 C 21.220 10.414,21.918 7.595,21.977 7.243 C 22.054 6.784,22.057 6.406,21.986 6.140 C 21.849 5.630,21.494 5.176,21.069 4.968 C 20.616 4.746,20.227 4.675,18.300 4.460 C 15.727 4.174,15.521 4.116,13.106 2.994 C 11.840 2.406,11.464 2.246,11.060 2.122 C 10.737 2.023,10.250 1.985,10.025 2.042 M13.220 6.059 C 12.860 6.139,12.459 6.294,11.640 6.670 C 11.233 6.856,10.576 7.158,10.180 7.339 C 9.305 7.741,8.805 7.931,8.222 8.082 C 7.633 8.236,7.278 8.289,5.595 8.479 C 3.667 8.696,3.246 8.783,2.829 9.048 C 2.338 9.361,2.000 9.987,2.000 10.587 C 2.000 11.091,2.307 12.431,3.240 15.996 C 3.571 17.264,3.850 17.943,4.332 18.660 C 5.501 20.396,7.538 21.553,10.108 21.940 C 10.323 21.973,10.582 22.000,10.683 22.000 C 11.171 22.000,12.285 21.717,12.817 21.457 C 13.663 21.044,15.025 19.686,15.785 18.500 C 16.861 16.819,17.233 14.900,16.838 13.065 C 16.731 12.569,15.714 8.604,15.544 8.020 C 15.263 7.055,15.006 6.598,14.589 6.319 C 14.155 6.029,13.725 5.948,13.220 6.059 M13.220 9.647 C 13.732 9.755,14.407 10.226,14.610 10.617 C 14.805 10.992,14.660 11.438,14.281 11.630 C 13.949 11.798,13.683 11.729,13.319 11.382 C 13.065 11.140,12.848 11.057,12.570 11.095 C 12.199 11.146,11.871 11.433,11.818 11.755 C 11.764 12.085,11.637 12.279,11.398 12.401 C 11.121 12.543,10.768 12.495,10.545 12.287 C 10.386 12.139,10.320 11.963,10.321 11.691 C 10.323 11.217,10.608 10.633,11.032 10.235 C 11.624 9.680,12.395 9.473,13.220 9.647 M7.628 11.262 C 8.104 11.421,8.498 11.706,8.751 12.074 C 8.879 12.260,8.899 12.318,8.899 12.518 C 8.899 13.023,8.445 13.370,7.956 13.239 C 7.838 13.207,7.719 13.128,7.581 12.991 C 7.471 12.880,7.308 12.756,7.220 12.716 C 6.740 12.494,6.104 12.820,6.018 13.331 C 5.963 13.662,5.815 13.868,5.550 13.978 C 5.178 14.134,4.778 13.989,4.596 13.632 C 4.382 13.214,4.642 12.391,5.152 11.868 C 5.800 11.204,6.758 10.969,7.628 11.262 M12.558 15.159 C 13.016 15.272,13.586 15.547,13.748 15.732 C 14.002 16.022,14.014 16.397,13.780 16.704 C 13.547 17.009,13.167 17.054,12.729 16.828 C 12.302 16.606,11.998 16.548,11.400 16.572 C 11.071 16.585,10.790 16.622,10.580 16.678 C 9.887 16.865,9.143 17.335,8.896 17.744 C 8.603 18.226,8.283 18.420,7.934 18.327 C 7.399 18.184,7.205 17.682,7.482 17.161 C 8.047 16.102,9.382 15.302,10.980 15.064 C 11.275 15.021,12.228 15.078,12.558 15.159 " fill="#1C274C" stroke="none" fill-rule="evenodd"></path></svg>