<svg width="24" height="24" viewBox="0 0 24 24" fill="none" xmlns="http://www.w3.org/2000/svg"><path d="M4.480 2.042 C 3.975 2.131,3.501 2.489,3.296 2.938 C 3.027 3.525,3.001 3.999,3.000 8.266 C 3.000 12.015,3.012 12.372,3.166 13.180 C 3.759 16.291,6.031 18.843,9.615 20.423 C 10.775 20.934,11.199 21.025,12.240 20.989 C 12.945 20.964,13.235 20.902,13.886 20.637 C 17.770 19.058,20.210 16.439,20.834 13.180 C 20.986 12.389,21.000 11.967,21.000 8.240 C 20.999 4.621,20.980 3.986,20.855 3.425 C 20.674 2.611,20.211 2.157,19.440 2.037 C 18.858 1.946,18.302 2.008,15.320 2.495 C 13.105 2.857,12.812 2.892,12.000 2.892 C 11.188 2.892,10.895 2.857,8.680 2.495 C 7.811 2.353,6.803 2.193,6.440 2.139 C 5.698 2.028,4.810 1.984,4.480 2.042 M8.900 6.761 C 9.658 6.845,10.285 7.123,10.744 7.578 C 11.222 8.052,11.346 8.427,11.147 8.803 C 11.025 9.034,10.701 9.216,10.458 9.189 C 10.189 9.160,10.005 9.047,9.851 8.815 C 9.588 8.418,9.144 8.223,8.500 8.223 C 7.871 8.223,7.405 8.422,7.162 8.793 C 7.021 9.008,6.922 9.087,6.706 9.158 C 6.393 9.261,5.989 9.088,5.844 8.788 C 5.661 8.410,5.785 8.044,6.256 7.578 C 6.699 7.139,7.344 6.844,8.040 6.765 C 8.464 6.716,8.498 6.716,8.900 6.761 M15.900 6.761 C 16.658 6.845,17.285 7.123,17.744 7.578 C 18.222 8.052,18.346 8.427,18.147 8.803 C 18.025 9.034,17.701 9.216,17.458 9.189 C 17.189 9.160,17.005 9.047,16.851 8.815 C 16.588 8.418,16.144 8.223,15.500 8.223 C 14.871 8.223,14.405 8.422,14.162 8.793 C 14.021 9.008,13.922 9.087,13.706 9.158 C 13.393 9.261,12.989 9.088,12.844 8.788 C 12.661 8.410,12.785 8.044,13.256 7.578 C 13.699 7.139,14.344 6.844,15.040 6.765 C 15.464 6.716,15.498 6.716,15.900 6.761 M12.846 12.681 C 14.264 12.821,15.661 13.361,16.103 13.940 C 16.403 14.334,16.183 14.936,15.693 15.060 C 15.440 15.124,15.236 15.075,14.960 14.883 C 14.501 14.564,13.917 14.340,13.220 14.215 C 12.659 14.115,11.341 14.115,10.780 14.215 C 10.083 14.340,9.499 14.564,9.040 14.883 C 8.764 15.075,8.560 15.124,8.307 15.060 C 8.083 15.003,7.937 14.879,7.836 14.660 C 7.742 14.457,7.742 14.263,7.836 14.060 C 7.923 13.872,8.058 13.740,8.360 13.550 C 9.475 12.846,11.177 12.516,12.846 12.681 " fill="#1C274C" stroke="none" fill-rule="evenodd"></path></svg>