<svg width="24" height="24" viewBox="0 0 24 24" fill="none" xmlns="http://www.w3.org/2000/svg"><path d="M16.060 1.259 C 16.038 1.267,15.971 1.284,15.911 1.297 C 15.851 1.310,15.735 1.379,15.655 1.450 C 15.235 1.818,15.339 2.443,15.860 2.684 C 16.009 2.753,16.161 2.758,18.100 2.759 L 20.179 2.760 17.253 5.690 C 14.609 8.336,14.322 8.637,14.280 8.795 C 14.130 9.366,14.634 9.870,15.205 9.720 C 15.363 9.678,15.664 9.391,18.310 6.747 L 21.240 3.821 21.241 5.900 C 21.242 7.839,21.247 7.991,21.316 8.140 C 21.557 8.660,22.182 8.765,22.549 8.347 C 22.619 8.267,22.696 8.134,22.720 8.051 C 22.751 7.945,22.761 6.977,22.752 4.840 C 22.740 1.839,22.738 1.777,22.658 1.641 C 22.613 1.564,22.499 1.447,22.405 1.381 L 22.233 1.260 19.167 1.253 C 17.480 1.248,16.082 1.251,16.060 1.259 M8.800 14.289 C 8.630 14.324,8.459 14.487,5.692 17.251 L 2.763 20.175 2.752 18.058 C 2.739 15.675,2.756 15.811,2.426 15.544 C 2.288 15.432,2.245 15.420,2.000 15.420 C 1.755 15.420,1.712 15.432,1.574 15.544 C 1.489 15.613,1.384 15.730,1.340 15.804 C 1.262 15.936,1.260 16.023,1.249 18.938 C 1.241 21.036,1.251 22.000,1.282 22.151 C 1.344 22.450,1.550 22.656,1.849 22.718 C 2.000 22.749,2.964 22.759,5.062 22.751 C 7.977 22.740,8.064 22.738,8.196 22.660 C 8.270 22.616,8.387 22.511,8.456 22.426 C 8.568 22.288,8.580 22.245,8.580 22.000 C 8.580 21.755,8.568 21.712,8.456 21.574 C 8.189 21.244,8.325 21.261,5.942 21.248 L 3.825 21.237 6.748 18.308 C 9.579 15.473,9.673 15.374,9.712 15.189 C 9.832 14.604,9.389 14.167,8.800 14.289 " fill="#1C274C" stroke="none" fill-rule="evenodd"></path></svg>