<svg width="24" height="24" viewBox="0 0 24 24" fill="none" xmlns="http://www.w3.org/2000/svg"><path d="M8.456 2.042 C 6.631 2.108,5.461 2.303,4.619 2.680 C 3.970 2.972,3.358 3.492,2.984 4.069 C 2.208 5.269,2.001 6.806,2.000 11.387 L 2.000 13.115 2.370 12.941 C 3.168 12.566,3.691 12.504,6.020 12.505 C 8.401 12.505,8.932 12.577,9.780 13.012 C 10.228 13.242,10.758 13.772,10.988 14.220 C 11.211 14.655,11.347 15.109,11.427 15.691 C 11.526 16.404,11.526 19.596,11.427 20.309 C 11.351 20.862,11.213 21.335,11.015 21.730 L 10.879 22.000 12.609 22.000 C 16.083 21.999,17.646 21.882,18.787 21.538 C 20.186 21.116,21.116 20.186,21.538 18.787 C 21.899 17.590,21.999 16.116,21.999 11.980 C 21.999 7.887,21.899 6.409,21.538 5.213 C 21.115 3.811,20.192 2.890,18.779 2.459 C 17.994 2.219,17.052 2.102,15.417 2.041 C 14.217 1.996,9.702 1.997,8.456 2.042 M17.302 6.315 C 17.497 6.404,17.663 6.592,17.721 6.792 C 17.751 6.892,17.761 7.591,17.752 8.963 L 17.740 10.986 17.630 11.152 C 17.335 11.598,16.665 11.598,16.370 11.152 L 16.260 10.986 16.248 9.906 L 16.235 8.825 14.328 10.731 C 13.015 12.043,12.374 12.656,12.271 12.699 C 11.902 12.851,11.491 12.680,11.316 12.300 C 11.225 12.104,11.221 11.924,11.301 11.729 C 11.344 11.626,11.957 10.985,13.269 9.672 L 15.175 7.765 14.094 7.752 L 13.014 7.740 12.848 7.630 C 12.327 7.285,12.440 6.458,13.032 6.280 C 13.091 6.262,14.040 6.246,15.140 6.244 C 16.998 6.242,17.151 6.247,17.302 6.315 M4.153 14.044 C 3.140 14.122,2.606 14.395,2.305 14.989 C 2.040 15.513,1.986 16.134,2.011 18.357 C 2.028 19.877,2.039 20.100,2.112 20.428 C 2.305 21.301,2.748 21.725,3.660 21.908 C 3.978 21.972,4.252 21.980,6.000 21.980 C 7.737 21.980,8.024 21.971,8.340 21.909 C 9.269 21.725,9.721 21.273,9.908 20.340 C 9.972 20.022,9.980 19.748,9.980 18.000 C 9.980 16.252,9.972 15.978,9.908 15.660 C 9.774 14.990,9.501 14.569,9.046 14.326 C 8.739 14.163,8.417 14.091,7.759 14.041 C 7.137 13.994,4.782 13.996,4.153 14.044 " fill="#1C274C" stroke="none" fill-rule="evenodd"></path></svg>