<svg width="24" height="24" viewBox="0 0 24 24" fill="none" xmlns="http://www.w3.org/2000/svg"><path d="M8.419 2.041 C 5.785 2.145,4.480 2.507,3.549 3.393 C 2.551 4.342,2.166 5.587,2.041 8.260 C 1.988 9.399,1.988 14.601,2.041 15.740 C 2.160 18.285,2.507 19.501,3.379 20.433 C 4.245 21.360,5.318 21.742,7.580 21.927 C 8.488 22.002,15.512 22.002,16.420 21.927 C 18.857 21.727,19.992 21.275,20.860 20.157 C 21.474 19.368,21.771 18.329,21.927 16.420 C 22.002 15.512,22.002 8.488,21.927 7.580 C 21.740 5.297,21.356 4.232,20.407 3.355 C 19.572 2.585,18.492 2.242,16.380 2.078 C 15.684 2.023,9.573 1.995,8.419 2.041 M17.373 6.355 C 17.457 6.407,17.574 6.523,17.633 6.612 L 17.740 6.774 17.740 8.857 L 17.740 10.940 17.634 11.120 C 17.345 11.612,16.655 11.612,16.366 11.120 C 16.260 10.940,16.260 10.938,16.240 9.890 L 16.220 8.840 12.523 12.537 L 8.826 16.234 9.883 16.247 C 10.925 16.260,10.943 16.261,11.114 16.360 C 11.482 16.570,11.595 17.042,11.365 17.405 C 11.146 17.751,11.231 17.740,8.860 17.740 C 6.836 17.740,6.776 17.738,6.641 17.658 C 6.564 17.613,6.447 17.499,6.381 17.405 L 6.260 17.233 6.260 15.147 L 6.260 13.060 6.360 12.886 C 6.640 12.396,7.347 12.392,7.634 12.880 L 7.740 13.060 7.753 14.117 L 7.766 15.174 11.463 11.477 L 15.160 7.780 14.110 7.760 C 12.901 7.737,12.835 7.721,12.635 7.405 C 12.355 6.965,12.585 6.402,13.094 6.277 C 13.163 6.260,14.120 6.249,15.220 6.253 L 17.220 6.260 17.373 6.355 " fill="#1C274C" stroke="none" fill-rule="evenodd"></path></svg>