<svg width="24" height="24" viewBox="0 0 24 24" fill="none" xmlns="http://www.w3.org/2000/svg"><path d="M8.419 2.041 C 5.785 2.145,4.480 2.507,3.549 3.393 C 2.551 4.342,2.166 5.587,2.041 8.260 C 1.988 9.399,1.988 14.601,2.041 15.740 C 2.160 18.285,2.507 19.501,3.379 20.433 C 4.245 21.360,5.318 21.742,7.580 21.927 C 8.488 22.002,15.512 22.002,16.420 21.927 C 18.857 21.727,19.992 21.275,20.860 20.157 C 21.474 19.368,21.771 18.329,21.927 16.420 C 22.002 15.512,22.002 8.488,21.927 7.580 C 21.740 5.297,21.356 4.232,20.407 3.355 C 19.572 2.585,18.492 2.242,16.380 2.078 C 15.684 2.023,9.573 1.995,8.419 2.041 M17.373 6.355 C 17.457 6.407,17.574 6.523,17.633 6.612 L 17.740 6.774 17.740 8.504 L 17.740 10.233 17.619 10.405 C 17.453 10.641,17.273 10.739,17.000 10.739 C 16.727 10.739,16.547 10.642,16.381 10.405 L 16.260 10.233 16.246 9.531 L 16.232 8.829 15.086 9.973 C 13.911 11.147,13.794 11.240,13.500 11.240 C 13.340 11.240,13.102 11.151,12.986 11.048 C 12.873 10.948,12.762 10.682,12.761 10.509 C 12.759 10.206,12.846 10.097,14.028 8.913 L 15.173 7.767 14.476 7.753 C 13.683 7.738,13.596 7.711,13.384 7.409 C 13.098 7.003,13.329 6.397,13.815 6.277 C 13.884 6.260,14.678 6.249,15.580 6.253 L 17.220 6.260 17.373 6.355 M10.790 12.822 C 10.988 12.904,11.077 12.990,11.165 13.180 C 11.255 13.376,11.260 13.595,11.179 13.791 C 11.138 13.890,10.734 14.324,9.973 15.086 L 8.829 16.232 9.524 16.246 C 10.174 16.259,10.230 16.266,10.373 16.355 C 10.615 16.506,10.733 16.718,10.733 17.003 C 10.733 17.203,10.714 17.270,10.616 17.409 C 10.552 17.501,10.436 17.613,10.359 17.658 C 10.225 17.737,10.161 17.740,8.500 17.740 C 6.839 17.740,6.775 17.737,6.641 17.658 C 6.564 17.613,6.447 17.499,6.381 17.405 L 6.260 17.233 6.260 15.504 L 6.260 13.774 6.367 13.612 C 6.526 13.373,6.721 13.267,7.003 13.267 C 7.281 13.267,7.496 13.387,7.645 13.627 C 7.734 13.770,7.741 13.826,7.754 14.476 L 7.768 15.171 8.914 14.027 C 9.610 13.332,10.115 12.860,10.200 12.823 C 10.382 12.745,10.606 12.745,10.790 12.822 " fill="#1C274C" stroke="none" fill-rule="evenodd"></path></svg>