<svg width="24" height="24" viewBox="0 0 24 24" fill="none" xmlns="http://www.w3.org/2000/svg"><path d="M9.180 2.041 C 7.815 2.152,7.292 2.574,7.095 3.720 C 7.040 4.042,6.965 6.000,7.007 6.000 C 7.018 6.000,7.674 5.646,8.464 5.214 C 10.068 4.337,10.356 4.199,10.913 4.050 C 11.260 3.956,11.372 3.946,12.000 3.946 C 12.628 3.946,12.740 3.956,13.087 4.050 C 13.644 4.199,13.932 4.337,15.536 5.214 C 16.326 5.646,16.982 6.000,16.993 6.000 C 17.038 6.000,16.961 4.042,16.902 3.712 C 16.722 2.698,16.324 2.295,15.308 2.095 C 15.030 2.040,14.569 2.029,12.280 2.019 C 10.795 2.013,9.400 2.023,9.180 2.041 M11.380 5.482 C 11.292 5.503,11.112 5.558,10.980 5.605 C 10.737 5.692,5.913 8.297,5.534 8.547 C 5.003 8.896,4.568 9.473,4.350 10.114 L 4.220 10.500 4.220 13.500 L 4.220 16.500 4.350 16.886 C 4.559 17.503,4.996 18.096,5.489 18.431 C 5.862 18.685,10.720 21.304,11.008 21.407 C 11.662 21.640,12.338 21.640,12.992 21.407 C 13.278 21.305,18.136 18.686,18.505 18.435 C 18.998 18.100,19.425 17.518,19.648 16.880 L 19.780 16.500 19.780 13.500 L 19.780 10.500 19.648 10.120 C 19.440 9.526,19.137 9.077,18.705 8.727 C 18.372 8.457,13.367 5.723,12.928 5.572 C 12.665 5.481,12.542 5.464,12.080 5.455 C 11.783 5.449,11.468 5.461,11.380 5.482 M12.310 10.676 C 12.393 10.762,12.595 11.072,12.760 11.366 C 12.925 11.660,13.105 11.947,13.161 12.005 C 13.243 12.089,13.372 12.135,13.821 12.240 C 14.537 12.407,14.772 12.496,14.898 12.645 C 15.098 12.883,15.012 13.093,14.433 13.784 C 13.871 14.456,13.898 14.377,13.960 15.119 C 14.030 15.966,14.009 16.249,13.867 16.391 C 13.677 16.581,13.481 16.541,12.562 16.121 C 12.320 16.010,12.067 15.920,12.000 15.920 C 11.933 15.920,11.680 16.010,11.438 16.121 C 10.519 16.541,10.323 16.581,10.133 16.391 C 9.991 16.249,9.970 15.966,10.040 15.119 C 10.102 14.378,10.130 14.458,9.567 13.785 C 8.988 13.094,8.902 12.882,9.102 12.645 C 9.228 12.496,9.463 12.407,10.179 12.240 C 10.628 12.135,10.757 12.089,10.839 12.005 C 10.895 11.947,11.075 11.660,11.240 11.366 C 11.613 10.701,11.776 10.520,12.000 10.520 C 12.134 10.520,12.185 10.546,12.310 10.676 " fill="#1C274C" stroke="none" fill-rule="evenodd"></path></svg>