<svg width="24" height="24" viewBox="0 0 24 24" fill="none" xmlns="http://www.w3.org/2000/svg"><path d="M9.180 2.041 C 8.034 2.134,7.486 2.459,7.218 3.201 C 7.098 3.535,7.038 4.058,7.012 4.994 L 6.987 5.927 7.188 5.803 C 7.575 5.566,8.465 5.164,9.004 4.984 C 10.000 4.652,10.897 4.510,12.000 4.510 C 13.103 4.510,14.000 4.652,14.996 4.984 C 15.535 5.164,16.425 5.566,16.812 5.804 L 17.013 5.927 16.988 4.994 C 16.953 3.695,16.844 3.141,16.545 2.750 C 16.280 2.401,15.933 2.218,15.308 2.095 C 15.030 2.040,14.569 2.029,12.280 2.019 C 10.795 2.013,9.400 2.023,9.180 2.041 M11.200 6.045 C 8.442 6.322,6.007 8.027,4.800 10.529 C 3.453 13.316,3.838 16.626,5.789 19.040 C 6.075 19.394,6.761 20.067,7.100 20.326 C 8.517 21.408,10.256 22.001,12.008 22.000 C 15.062 21.997,17.868 20.230,19.200 17.471 C 20.264 15.270,20.264 12.730,19.200 10.529 C 17.741 7.507,14.534 5.710,11.200 6.045 M12.273 11.138 C 12.363 11.219,12.559 11.512,12.752 11.850 C 12.931 12.166,13.122 12.466,13.177 12.517 C 13.250 12.586,13.442 12.650,13.918 12.764 C 14.271 12.849,14.632 12.955,14.719 13.000 C 14.878 13.080,15.001 13.251,14.999 13.388 C 14.997 13.545,14.833 13.805,14.421 14.301 C 14.184 14.586,13.971 14.861,13.948 14.911 C 13.919 14.974,13.921 15.160,13.953 15.531 C 14.060 16.735,13.994 17.001,13.593 17.000 C 13.472 16.999,13.248 16.915,12.310 16.516 L 12.000 16.384 11.690 16.516 C 10.752 16.915,10.528 16.999,10.407 17.000 C 10.006 17.001,9.940 16.735,10.047 15.531 C 10.079 15.160,10.081 14.974,10.052 14.911 C 10.029 14.861,9.816 14.586,9.579 14.301 C 9.167 13.805,9.003 13.545,9.001 13.388 C 8.999 13.251,9.122 13.080,9.281 13.000 C 9.368 12.955,9.729 12.849,10.082 12.764 C 10.558 12.650,10.750 12.586,10.823 12.517 C 10.878 12.466,11.069 12.166,11.248 11.850 C 11.605 11.223,11.802 11.000,12.000 11.000 C 12.080 11.000,12.170 11.045,12.273 11.138 " fill="#1C274C" stroke="none" fill-rule="evenodd"></path></svg>