<svg width="24" height="24" viewBox="0 0 24 24" fill="none" xmlns="http://www.w3.org/2000/svg"><path d="M11.260 2.041 C 8.863 2.315,6.812 3.739,5.742 5.875 C 4.582 8.190,4.799 10.943,6.311 13.080 C 6.656 13.567,7.433 14.344,7.920 14.689 C 10.057 16.201,12.808 16.418,15.125 15.258 C 18.584 13.527,19.987 9.325,18.258 5.875 C 17.246 3.856,15.364 2.471,13.120 2.095 C 12.690 2.023,11.678 1.994,11.260 2.041 M6.968 16.410 C 6.215 19.102,6.029 19.917,6.024 20.560 C 6.020 21.111,6.093 21.318,6.392 21.610 C 6.683 21.894,6.882 21.980,7.240 21.978 C 7.759 21.975,8.393 21.721,10.107 20.828 C 11.423 20.143,11.528 20.103,12.000 20.103 C 12.472 20.103,12.577 20.143,13.893 20.828 C 15.626 21.731,16.208 21.965,16.740 21.975 C 17.119 21.981,17.309 21.901,17.608 21.610 C 18.061 21.169,18.102 20.599,17.781 19.228 C 17.653 18.683,16.928 15.995,16.902 15.969 C 16.895 15.962,16.739 16.054,16.555 16.173 C 15.589 16.800,14.407 17.238,13.180 17.422 C 12.588 17.511,11.412 17.511,10.820 17.422 C 10.241 17.335,9.543 17.160,9.055 16.978 C 8.583 16.802,7.767 16.394,7.384 16.142 C 7.232 16.042,7.105 15.960,7.101 15.960 C 7.097 15.960,7.037 16.163,6.968 16.410 " fill="#1C274C" stroke="none" fill-rule="evenodd"></path></svg>