<svg width="24" height="24" viewBox="0 0 24 24" fill="none" xmlns="http://www.w3.org/2000/svg"><path d="M9.180 2.041 C 7.690 2.163,7.136 2.707,7.053 4.132 L 7.028 4.563 7.464 4.532 C 8.029 4.491,15.966 4.490,16.530 4.531 L 16.960 4.563 16.960 4.311 C 16.960 3.971,16.867 3.430,16.761 3.149 C 16.599 2.720,16.281 2.401,15.859 2.243 C 15.318 2.041,15.169 2.031,12.280 2.019 C 10.795 2.013,9.400 2.023,9.180 2.041 M7.560 6.041 C 6.524 6.101,5.938 6.223,5.437 6.484 C 4.639 6.899,4.248 7.599,4.075 8.920 C 4.010 9.418,3.980 14.608,4.038 15.420 C 4.182 17.466,4.699 18.231,6.666 19.313 C 7.432 19.735,9.978 20.985,10.428 21.161 C 11.657 21.642,12.361 21.640,13.586 21.154 C 14.050 20.971,16.454 19.790,17.281 19.340 C 18.966 18.424,19.576 17.736,19.836 16.458 C 19.980 15.752,20.008 14.922,19.988 11.999 C 19.969 9.278,19.954 8.959,19.816 8.284 C 19.593 7.199,18.962 6.511,17.940 6.242 C 17.164 6.037,16.973 6.030,12.380 6.019 C 10.026 6.014,7.857 6.023,7.560 6.041 M12.273 10.138 C 12.363 10.219,12.559 10.512,12.752 10.850 C 12.931 11.166,13.122 11.466,13.177 11.517 C 13.250 11.586,13.442 11.650,13.918 11.764 C 14.271 11.849,14.632 11.955,14.719 12.000 C 14.878 12.080,15.001 12.251,14.999 12.388 C 14.997 12.545,14.833 12.805,14.421 13.301 C 14.184 13.586,13.971 13.861,13.948 13.911 C 13.919 13.974,13.921 14.160,13.953 14.531 C 14.060 15.735,13.994 16.001,13.593 16.000 C 13.472 15.999,13.248 15.915,12.310 15.516 L 12.000 15.384 11.690 15.516 C 10.752 15.915,10.528 15.999,10.407 16.000 C 10.006 16.001,9.940 15.735,10.047 14.531 C 10.079 14.160,10.081 13.974,10.052 13.911 C 10.029 13.861,9.816 13.586,9.579 13.301 C 9.167 12.805,9.003 12.545,9.001 12.388 C 8.999 12.251,9.122 12.080,9.281 12.000 C 9.368 11.955,9.729 11.849,10.082 11.764 C 10.558 11.650,10.750 11.586,10.823 11.517 C 10.878 11.466,11.069 11.166,11.248 10.850 C 11.736 9.992,11.948 9.845,12.273 10.138 " fill="#1C274C" stroke="none" fill-rule="evenodd"></path></svg>