<svg width="24" height="24" viewBox="0 0 24 24" fill="none" xmlns="http://www.w3.org/2000/svg"><path d="M11.260 2.041 C 8.863 2.315,6.812 3.739,5.742 5.875 C 4.582 8.190,4.799 10.943,6.311 13.080 C 6.656 13.567,7.433 14.344,7.920 14.689 C 10.057 16.201,12.808 16.418,15.125 15.258 C 18.584 13.527,19.987 9.325,18.258 5.875 C 17.246 3.856,15.364 2.471,13.120 2.095 C 12.690 2.023,11.678 1.994,11.260 2.041 M12.273 6.138 C 12.363 6.219,12.559 6.512,12.752 6.850 C 12.931 7.166,13.122 7.466,13.177 7.517 C 13.250 7.586,13.442 7.650,13.918 7.764 C 14.271 7.849,14.632 7.955,14.719 8.000 C 14.878 8.080,15.001 8.251,14.999 8.388 C 14.997 8.545,14.833 8.805,14.421 9.301 C 14.184 9.586,13.971 9.861,13.948 9.911 C 13.919 9.974,13.921 10.160,13.953 10.531 C 14.060 11.735,13.994 12.001,13.593 12.000 C 13.472 11.999,13.248 11.915,12.310 11.516 L 12.000 11.384 11.690 11.516 C 10.752 11.915,10.528 11.999,10.407 12.000 C 10.006 12.001,9.940 11.735,10.047 10.531 C 10.079 10.160,10.081 9.974,10.052 9.911 C 10.029 9.861,9.816 9.586,9.579 9.301 C 9.167 8.805,9.003 8.545,9.001 8.388 C 8.999 8.251,9.122 8.080,9.281 8.000 C 9.368 7.955,9.729 7.849,10.082 7.764 C 10.558 7.650,10.750 7.586,10.823 7.517 C 10.878 7.466,11.069 7.166,11.248 6.850 C 11.605 6.223,11.802 6.000,12.000 6.000 C 12.080 6.000,12.170 6.045,12.273 6.138 M3.464 14.064 C 2.333 15.236,2.141 15.465,2.057 15.744 C 1.862 16.391,2.224 17.026,2.861 17.158 C 2.970 17.181,3.369 17.235,3.747 17.279 C 4.125 17.323,4.509 17.384,4.600 17.415 C 5.076 17.580,5.429 18.021,5.517 18.564 C 5.540 18.705,5.587 19.090,5.621 19.420 C 5.655 19.750,5.709 20.111,5.740 20.223 C 5.820 20.503,5.989 20.720,6.232 20.852 C 6.676 21.093,7.093 21.029,7.535 20.651 C 7.803 20.422,10.695 17.442,10.672 17.419 C 10.665 17.412,10.444 17.358,10.180 17.299 C 7.856 16.780,5.897 15.362,4.681 13.318 L 4.491 12.999 3.464 14.064 M19.384 13.207 C 19.203 13.539,18.776 14.147,18.459 14.520 C 17.281 15.911,15.643 16.892,13.820 17.299 C 13.556 17.358,13.335 17.412,13.328 17.419 C 13.300 17.446,16.385 20.605,16.582 20.751 C 17.217 21.222,18.050 20.959,18.260 20.223 C 18.291 20.111,18.345 19.750,18.379 19.420 C 18.413 19.090,18.460 18.705,18.483 18.564 C 18.571 18.021,18.924 17.580,19.400 17.415 C 19.491 17.384,19.875 17.323,20.253 17.279 C 21.114 17.179,21.297 17.141,21.505 17.019 C 21.944 16.762,22.122 16.079,21.880 15.580 C 21.784 15.383,21.311 14.856,20.252 13.767 L 19.500 12.993 19.384 13.207 " fill="#1C274C" stroke="none" fill-rule="evenodd"></path></svg>