<svg width="24" height="24" viewBox="0 0 24 24" fill="none" xmlns="http://www.w3.org/2000/svg"><path d="M10.400 1.281 C 10.081 1.297,9.658 1.341,9.460 1.378 C 8.325 1.593,7.626 2.270,7.395 3.380 C 7.321 3.737,7.242 4.895,7.241 5.644 L 7.240 6.028 6.730 6.055 C 5.231 6.134,4.351 6.343,3.670 6.784 C 3.286 7.032,3.067 7.247,2.822 7.617 C 2.380 8.284,2.199 8.945,2.072 10.360 C 1.999 11.176,1.999 16.824,2.072 17.640 C 2.195 19.011,2.379 19.703,2.784 20.330 C 3.032 20.714,3.247 20.933,3.617 21.178 C 4.011 21.439,4.317 21.570,4.829 21.697 C 5.912 21.966,6.268 21.980,12.000 21.980 C 17.732 21.980,18.088 21.966,19.171 21.697 C 19.683 21.570,19.989 21.439,20.383 21.178 C 20.753 20.933,20.968 20.714,21.216 20.330 C 21.886 19.294,22.029 17.969,21.987 13.220 C 21.965 10.759,21.939 10.185,21.817 9.425 C 21.684 8.598,21.519 8.132,21.178 7.617 C 20.504 6.599,19.429 6.168,17.276 6.055 L 16.772 6.028 16.744 5.104 C 16.715 4.105,16.673 3.647,16.573 3.240 C 16.327 2.233,15.625 1.585,14.560 1.382 C 13.906 1.257,11.876 1.208,10.400 1.281 M13.960 2.800 C 15.072 2.928,15.239 3.239,15.240 5.190 L 15.240 6.000 12.000 6.000 L 8.760 6.000 8.760 5.190 C 8.761 3.267,8.937 2.924,9.988 2.802 C 10.386 2.756,13.562 2.754,13.960 2.800 M12.971 10.115 C 14.173 10.432,15.183 11.289,15.665 12.399 C 15.922 12.994,15.974 13.261,15.974 14.000 C 15.974 14.739,15.922 15.006,15.665 15.601 C 15.277 16.496,14.496 17.277,13.601 17.665 C 13.006 17.922,12.739 17.974,12.000 17.974 C 11.274 17.974,11.016 17.926,10.430 17.681 C 9.540 17.311,8.689 16.460,8.319 15.570 C 7.927 14.630,7.899 13.574,8.241 12.631 C 8.715 11.319,9.897 10.323,11.294 10.057 C 11.702 9.979,12.568 10.009,12.971 10.115 M11.700 11.817 C 11.634 11.846,11.531 11.922,11.472 11.985 C 11.289 12.180,11.240 12.356,11.240 12.814 L 11.240 13.230 10.770 13.248 C 10.446 13.260,10.263 13.285,10.180 13.329 C 9.599 13.638,9.621 14.407,10.220 14.684 C 10.344 14.742,10.477 14.758,10.810 14.759 L 11.240 14.760 11.241 15.190 C 11.242 15.669,11.299 15.855,11.505 16.047 C 11.880 16.398,12.459 16.267,12.684 15.780 C 12.742 15.656,12.758 15.523,12.759 15.190 L 12.760 14.760 13.190 14.759 C 13.523 14.758,13.656 14.742,13.780 14.684 C 14.075 14.547,14.240 14.303,14.240 14.000 C 14.240 13.799,14.181 13.647,14.047 13.506 C 13.857 13.305,13.737 13.267,13.230 13.248 L 12.760 13.230 12.759 12.805 C 12.758 12.332,12.700 12.144,12.495 11.953 C 12.288 11.759,11.956 11.702,11.700 11.817 " fill="#1C274C" stroke="none" fill-rule="evenodd"></path></svg>