<svg width="24" height="24" viewBox="0 0 24 24" fill="none" xmlns="http://www.w3.org/2000/svg"><path d="M11.496 2.057 C 10.721 2.234,10.090 2.727,9.765 3.411 C 9.571 3.819,9.508 4.084,9.508 4.500 C 9.508 4.917,9.570 5.180,9.769 5.600 C 10.078 6.252,10.760 6.791,11.465 6.940 C 12.319 7.121,13.114 6.884,13.745 6.261 C 14.248 5.764,14.492 5.189,14.492 4.500 C 14.492 4.083,14.430 3.820,14.231 3.400 C 14.100 3.123,14.009 3.001,13.745 2.740 C 13.407 2.407,13.122 2.236,12.680 2.102 C 12.376 2.010,11.799 1.988,11.496 2.057 M11.200 8.304 C 10.792 8.352,9.772 8.539,9.444 8.626 C 7.725 9.082,6.274 10.405,5.638 12.095 C 5.419 12.677,5.326 13.125,5.262 13.918 C 5.224 14.380,5.184 14.644,5.127 14.793 C 4.972 15.198,4.614 15.575,4.180 15.789 C 4.092 15.832,3.706 15.973,3.322 16.102 C 2.728 16.301,2.602 16.358,2.478 16.482 C 2.077 16.883,2.266 17.576,2.814 17.714 C 3.041 17.772,3.053 17.769,3.900 17.479 C 4.753 17.188,4.837 17.152,5.180 16.930 C 5.592 16.664,5.806 16.473,6.054 16.150 C 6.488 15.582,6.704 14.959,6.743 14.163 C 6.805 12.911,7.154 12.036,7.913 11.232 C 8.381 10.736,8.956 10.362,9.592 10.140 C 10.119 9.956,11.359 9.761,12.000 9.761 C 12.641 9.761,13.881 9.956,14.408 10.140 C 15.838 10.640,16.916 11.897,17.175 13.368 C 17.207 13.550,17.244 13.908,17.257 14.163 C 17.321 15.460,17.878 16.381,18.998 17.040 C 19.222 17.172,20.550 17.661,20.890 17.737 C 21.076 17.779,21.359 17.681,21.520 17.520 C 21.812 17.228,21.813 16.773,21.522 16.482 C 21.398 16.358,21.272 16.301,20.678 16.102 C 20.294 15.973,19.908 15.833,19.820 15.789 C 19.556 15.660,19.260 15.418,19.101 15.202 C 18.859 14.871,18.798 14.657,18.738 13.918 C 18.674 13.125,18.581 12.677,18.362 12.095 C 17.823 10.661,16.702 9.488,15.290 8.880 C 14.828 8.681,14.465 8.583,13.653 8.435 C 13.074 8.330,12.865 8.311,12.160 8.300 C 11.709 8.293,11.277 8.295,11.200 8.304 M9.267 15.297 C 9.049 15.376,9.011 15.417,8.361 16.280 C 7.739 17.105,7.596 17.258,7.340 17.369 C 7.252 17.407,6.670 17.565,6.047 17.720 C 4.853 18.017,4.555 18.126,4.204 18.392 C 3.601 18.849,3.274 19.525,3.271 20.320 C 3.269 20.977,3.466 21.484,3.909 21.962 C 4.192 22.269,4.503 22.470,4.908 22.609 C 5.326 22.754,6.016 22.793,6.917 22.723 C 8.173 22.626,9.194 22.349,10.249 21.819 C 10.486 21.700,10.773 21.543,10.888 21.470 L 11.096 21.337 12.316 21.792 C 13.582 22.264,14.411 22.505,15.160 22.617 C 16.250 22.780,18.496 22.806,18.960 22.660 C 19.415 22.517,19.688 22.353,20.020 22.020 C 20.522 21.518,20.731 21.012,20.728 20.303 C 20.726 19.598,20.481 19.037,19.964 18.550 C 19.549 18.158,19.301 18.055,17.962 17.720 C 17.337 17.564,16.739 17.399,16.633 17.353 C 16.392 17.250,16.265 17.111,15.592 16.215 C 15.292 15.817,14.998 15.453,14.938 15.406 C 14.470 15.038,13.760 15.396,13.760 16.000 C 13.760 16.085,13.777 16.198,13.797 16.252 C 13.839 16.362,14.961 17.872,15.187 18.122 C 15.407 18.366,15.805 18.635,16.135 18.763 C 16.294 18.825,16.901 18.994,17.482 19.139 C 18.064 19.283,18.606 19.430,18.686 19.465 C 18.872 19.546,19.098 19.777,19.178 19.969 C 19.261 20.168,19.255 20.503,19.165 20.700 C 19.072 20.905,18.809 21.142,18.609 21.202 C 18.497 21.235,18.068 21.243,17.097 21.229 C 15.637 21.207,15.444 21.187,14.526 20.958 C 14.074 20.845,12.660 20.354,12.590 20.286 C 12.574 20.270,12.784 20.091,13.057 19.887 C 13.593 19.487,13.658 19.415,13.717 19.153 C 13.835 18.627,13.343 18.145,12.828 18.283 C 12.711 18.314,12.311 18.588,11.520 19.179 C 10.893 19.647,10.259 20.104,10.111 20.194 C 9.476 20.581,8.819 20.853,8.080 21.035 C 7.410 21.200,7.037 21.240,6.181 21.239 C 5.374 21.238,5.253 21.209,5.012 20.955 C 4.575 20.495,4.730 19.719,5.308 19.468 C 5.392 19.432,5.967 19.275,6.586 19.120 C 7.958 18.777,8.221 18.669,8.685 18.252 C 8.870 18.085,10.144 16.408,10.203 16.252 C 10.253 16.122,10.250 15.871,10.197 15.733 C 10.065 15.382,9.615 15.171,9.267 15.297 " fill="#1C274C" stroke="none" fill-rule="evenodd"></path></svg>