<svg width="24" height="24" viewBox="0 0 24 24" fill="none" xmlns="http://www.w3.org/2000/svg"><path d="M11.496 2.057 C 10.721 2.234,10.090 2.727,9.765 3.411 C 9.571 3.819,9.508 4.084,9.508 4.500 C 9.508 4.917,9.570 5.180,9.769 5.600 C 9.900 5.876,9.991 6.000,10.255 6.261 C 10.886 6.884,11.681 7.121,12.535 6.940 C 13.240 6.791,13.922 6.252,14.231 5.600 C 14.431 5.177,14.488 4.934,14.488 4.500 C 14.488 4.066,14.431 3.823,14.231 3.400 C 14.100 3.123,14.009 3.001,13.745 2.740 C 13.407 2.407,13.122 2.236,12.680 2.102 C 12.376 2.010,11.799 1.988,11.496 2.057 M11.400 8.282 C 10.284 8.387,9.224 8.761,8.301 9.377 C 6.995 10.249,6.097 11.423,5.600 12.911 C 5.440 13.389,5.280 14.183,5.280 14.498 C 5.280 14.592,5.268 14.753,5.254 14.857 L 5.229 15.044 3.876 15.723 C 2.425 16.450,2.374 16.486,2.283 16.828 C 2.151 17.322,2.622 17.828,3.127 17.735 C 3.200 17.721,3.913 17.377,4.710 16.971 C 6.002 16.312,6.179 16.210,6.337 16.035 C 6.434 15.927,6.550 15.762,6.595 15.669 C 6.688 15.476,6.759 15.082,6.760 14.760 C 6.761 14.159,7.008 13.247,7.348 12.589 C 7.697 11.912,8.265 11.246,8.900 10.769 C 9.334 10.442,10.134 10.061,10.700 9.911 C 11.165 9.788,11.206 9.784,12.000 9.784 C 12.794 9.784,12.835 9.788,13.300 9.911 C 13.866 10.061,14.666 10.442,15.100 10.769 C 15.952 11.409,16.607 12.300,16.954 13.287 C 17.122 13.766,17.198 14.163,17.244 14.811 C 17.291 15.480,17.363 15.698,17.639 16.008 C 17.827 16.218,17.925 16.276,19.289 16.971 C 20.087 17.377,20.800 17.721,20.873 17.735 C 21.376 17.828,21.829 17.346,21.716 16.841 C 21.637 16.491,21.587 16.456,20.122 15.721 L 18.767 15.042 18.744 14.771 C 18.696 14.188,18.595 13.552,18.498 13.214 C 17.920 11.204,16.494 9.581,14.607 8.785 C 13.635 8.374,12.429 8.185,11.400 8.282 M9.267 15.297 C 9.048 15.376,9.011 15.417,8.360 16.282 C 8.036 16.712,7.710 17.116,7.635 17.178 C 7.427 17.354,7.251 17.417,6.286 17.659 C 5.794 17.782,5.285 17.926,5.155 17.979 C 4.378 18.295,3.693 19.036,3.419 19.856 C 3.032 21.019,3.388 22.078,4.321 22.532 C 4.489 22.614,4.734 22.696,4.880 22.719 C 5.218 22.772,7.125 22.772,7.774 22.719 C 8.879 22.629,9.816 22.282,10.740 21.619 C 10.915 21.493,11.078 21.383,11.102 21.374 C 11.127 21.364,11.795 21.599,12.587 21.895 C 14.896 22.757,14.702 22.720,17.021 22.748 C 19.030 22.772,19.221 22.756,19.679 22.533 C 20.430 22.166,20.815 21.416,20.720 20.504 C 20.628 19.611,20.112 18.760,19.357 18.258 C 18.970 18.001,18.800 17.939,17.714 17.660 C 17.172 17.520,16.674 17.379,16.609 17.345 C 16.377 17.225,16.223 17.056,15.638 16.278 C 15.313 15.845,14.998 15.453,14.938 15.406 C 14.470 15.038,13.760 15.396,13.760 16.000 C 13.760 16.085,13.777 16.198,13.797 16.252 C 13.854 16.403,15.127 18.083,15.305 18.242 C 15.776 18.665,16.038 18.779,17.245 19.081 C 17.774 19.214,18.291 19.366,18.394 19.418 C 18.496 19.471,18.674 19.609,18.788 19.727 C 19.062 20.008,19.207 20.328,19.232 20.706 C 19.250 20.987,19.246 21.000,19.128 21.118 L 19.006 21.240 17.213 21.239 C 15.612 21.239,15.381 21.231,15.060 21.164 C 14.739 21.096,12.665 20.359,12.590 20.286 C 12.574 20.270,12.784 20.091,13.057 19.887 C 13.593 19.487,13.658 19.415,13.717 19.153 C 13.835 18.627,13.343 18.145,12.828 18.283 C 12.709 18.315,12.219 18.658,11.140 19.465 C 9.630 20.594,9.282 20.818,8.734 21.013 C 8.170 21.215,7.907 21.240,6.393 21.240 L 4.994 21.240 4.872 21.118 C 4.754 21.000,4.750 20.987,4.768 20.706 C 4.793 20.328,4.938 20.008,5.212 19.727 C 5.326 19.609,5.503 19.471,5.604 19.419 C 5.704 19.368,6.225 19.214,6.760 19.079 C 7.978 18.771,8.225 18.664,8.695 18.242 C 8.873 18.083,10.146 16.403,10.203 16.252 C 10.253 16.122,10.250 15.871,10.197 15.733 C 10.065 15.382,9.615 15.171,9.267 15.297 " fill="#1C274C" stroke="none" fill-rule="evenodd"></path></svg>