<svg width="24" height="24" viewBox="0 0 24 24" fill="none" xmlns="http://www.w3.org/2000/svg"><path d="M16.811 1.278 C 16.535 1.345,16.316 1.587,16.260 1.885 C 16.197 2.220,16.450 2.624,16.781 2.715 C 16.885 2.744,17.501 2.760,18.560 2.760 L 20.180 2.760 17.641 5.299 L 15.103 7.837 14.982 7.738 C 14.661 7.477,13.969 7.047,13.500 6.818 C 11.908 6.039,10.092 5.813,8.352 6.177 C 5.939 6.682,3.876 8.299,2.800 10.529 C 0.880 14.503,2.549 19.278,6.529 21.200 C 8.730 22.264,11.270 22.264,13.471 21.200 C 16.775 19.605,18.568 15.980,17.833 12.380 C 17.604 11.255,17.046 10.039,16.337 9.117 L 16.166 8.894 18.703 6.357 L 21.240 3.820 21.240 5.440 C 21.240 6.499,21.256 7.115,21.285 7.219 C 21.309 7.307,21.395 7.444,21.476 7.525 C 21.882 7.931,22.572 7.750,22.720 7.200 C 22.748 7.095,22.759 6.165,22.751 4.412 C 22.740 1.842,22.738 1.777,22.658 1.641 C 22.613 1.564,22.499 1.447,22.405 1.381 L 22.233 1.260 19.587 1.253 C 18.131 1.250,16.882 1.261,16.811 1.278 " fill="#1C274C" stroke="none" fill-rule="evenodd"></path></svg>