<svg width="24" height="24" viewBox="0 0 24 24" fill="none" xmlns="http://www.w3.org/2000/svg"><path d="M11.300 2.024 C 10.268 2.130,9.297 2.339,8.537 2.620 C 6.161 3.500,4.142 5.321,3.043 7.576 C 2.706 8.267,2.527 8.743,2.342 9.443 C 2.101 10.351,2.026 10.964,2.026 12.000 C 2.026 12.726,2.043 13.008,2.113 13.460 C 2.441 15.571,3.363 17.437,4.837 18.972 C 5.788 19.962,7.208 20.887,8.523 21.374 C 9.075 21.579,9.894 21.787,10.540 21.887 C 11.338 22.011,12.662 22.011,13.460 21.887 C 14.942 21.657,16.316 21.129,17.508 20.333 C 19.030 19.315,20.184 18.007,20.959 16.420 C 21.435 15.446,21.720 14.536,21.887 13.460 C 22.011 12.662,22.011 11.338,21.887 10.540 C 21.657 9.058,21.129 7.684,20.333 6.492 C 19.530 5.292,18.683 4.446,17.483 3.649 C 15.928 2.615,14.126 2.060,12.200 2.022 C 11.793 2.014,11.388 2.015,11.300 2.024 M12.672 5.283 C 13.531 5.377,14.311 5.609,15.079 6.001 C 15.749 6.343,16.182 6.662,16.760 7.240 C 17.338 7.818,17.657 8.251,17.999 8.921 C 18.582 10.064,18.837 11.329,18.728 12.530 C 18.654 13.344,18.420 14.255,18.179 14.665 C 17.904 15.134,17.329 15.594,16.778 15.785 C 16.505 15.880,16.398 15.896,16.020 15.895 C 15.651 15.894,15.533 15.877,15.291 15.791 C 14.747 15.598,14.332 15.275,14.034 14.816 C 13.943 14.675,13.863 14.560,13.856 14.560 C 13.849 14.560,13.759 14.613,13.656 14.679 C 12.972 15.112,12.071 15.254,11.240 15.058 C 10.885 14.975,10.312 14.687,10.011 14.441 C 9.246 13.816,8.795 12.803,8.855 11.840 C 8.885 11.356,8.961 11.069,9.180 10.620 C 9.497 9.968,9.968 9.497,10.620 9.180 C 11.292 8.853,11.920 8.769,12.613 8.913 C 13.591 9.116,14.386 9.731,14.821 10.620 C 15.102 11.193,15.126 11.341,15.155 12.660 C 15.179 13.785,15.183 13.825,15.274 13.971 C 15.606 14.505,16.345 14.537,16.774 14.037 C 16.908 13.880,17.052 13.479,17.167 12.940 C 17.249 12.560,17.235 11.376,17.145 10.960 C 16.919 9.924,16.436 9.033,15.701 8.299 C 15.124 7.721,14.488 7.320,13.720 7.049 C 13.109 6.834,12.773 6.781,12.000 6.781 C 11.227 6.781,10.891 6.834,10.280 7.049 C 9.512 7.320,8.876 7.721,8.299 8.299 C 7.564 9.033,7.081 9.924,6.855 10.960 C 6.751 11.439,6.751 12.561,6.855 13.040 C 7.081 14.076,7.564 14.967,8.299 15.701 C 9.219 16.622,10.397 17.155,11.660 17.224 C 12.170 17.251,12.315 17.287,12.487 17.432 C 12.910 17.788,12.811 18.448,12.300 18.684 C 12.115 18.770,11.878 18.778,11.328 18.717 C 10.469 18.623,9.689 18.391,8.921 17.999 C 8.251 17.657,7.818 17.338,7.240 16.760 C 6.662 16.182,6.343 15.749,6.001 15.079 C 5.418 13.935,5.162 12.669,5.273 11.470 C 5.300 11.178,5.349 10.805,5.383 10.640 C 5.551 9.828,6.005 8.784,6.492 8.092 C 6.810 7.640,7.640 6.810,8.092 6.492 C 9.412 5.563,11.119 5.113,12.672 5.283 M11.590 10.401 C 11.139 10.515,10.716 10.870,10.508 11.310 C 10.389 11.560,10.380 11.611,10.380 12.000 C 10.380 12.389,10.389 12.440,10.508 12.690 C 10.673 13.039,10.961 13.327,11.310 13.492 C 11.560 13.611,11.611 13.620,12.000 13.620 C 12.389 13.620,12.440 13.611,12.690 13.492 C 13.039 13.327,13.327 13.039,13.492 12.690 C 13.611 12.440,13.620 12.389,13.620 12.000 C 13.620 11.611,13.611 11.560,13.492 11.310 C 13.331 10.969,13.056 10.692,12.710 10.522 C 12.481 10.409,12.391 10.388,12.091 10.377 C 11.898 10.369,11.672 10.380,11.590 10.401 " fill="#1C274C" stroke="none" fill-rule="evenodd"></path></svg>