<svg width="24" height="24" viewBox="0 0 24 24" fill="none" xmlns="http://www.w3.org/2000/svg"><path d="M11.580 3.047 C 10.859 3.185,10.199 3.848,10.044 4.592 C 9.789 5.816,10.751 7.000,12.000 7.000 C 13.080 7.000,14.000 6.080,14.000 5.000 C 14.000 4.477,13.790 3.983,13.404 3.596 C 12.913 3.106,12.277 2.914,11.580 3.047 M11.620 10.039 C 10.906 10.197,10.359 10.674,10.110 11.356 C 9.993 11.675,9.994 12.327,10.112 12.650 C 10.323 13.228,10.774 13.678,11.356 13.890 C 11.673 14.006,12.327 14.006,12.644 13.890 C 13.226 13.678,13.677 13.228,13.888 12.650 C 13.954 12.471,13.972 12.327,13.972 12.000 C 13.972 11.673,13.954 11.529,13.888 11.350 C 13.677 10.770,13.216 10.312,12.644 10.114 C 12.389 10.025,11.858 9.986,11.620 10.039 M11.620 17.039 C 10.906 17.197,10.359 17.674,10.110 18.356 C 9.993 18.675,9.994 19.327,10.112 19.650 C 10.323 20.228,10.774 20.678,11.356 20.890 C 11.529 20.953,11.676 20.972,12.000 20.972 C 12.324 20.972,12.471 20.953,12.644 20.890 C 13.226 20.678,13.677 20.228,13.888 19.650 C 13.954 19.471,13.972 19.327,13.972 19.000 C 13.972 18.673,13.954 18.529,13.888 18.350 C 13.677 17.770,13.216 17.312,12.644 17.114 C 12.389 17.025,11.858 16.986,11.620 17.039 " fill="#1C274C" stroke="none" fill-rule="evenodd"></path></svg>