<svg width="24" height="24" viewBox="0 0 24 24" fill="none" xmlns="http://www.w3.org/2000/svg"><path d="M11.120 2.039 C 9.316 2.220,7.707 2.807,6.280 3.806 C 2.738 6.286,1.178 10.759,2.422 14.865 C 2.918 16.499,3.728 17.850,4.939 19.061 C 5.928 20.050,7.038 20.788,8.272 21.278 C 11.634 22.610,15.313 22.080,18.200 19.845 C 18.637 19.507,19.507 18.637,19.845 18.200 C 21.255 16.379,22.000 14.234,22.000 12.000 C 22.000 7.432,18.842 3.387,14.430 2.303 C 13.446 2.062,12.028 1.948,11.120 2.039 M12.340 7.066 C 12.709 7.192,13.000 7.604,13.000 8.000 C 13.000 8.527,12.527 9.000,12.000 9.000 C 11.758 9.000,11.479 8.881,11.299 8.701 C 10.907 8.309,10.908 7.690,11.300 7.298 C 11.577 7.020,11.957 6.936,12.340 7.066 M12.340 11.066 C 12.709 11.192,13.000 11.604,13.000 12.000 C 13.000 12.527,12.527 13.000,12.000 13.000 C 11.758 13.000,11.479 12.881,11.299 12.701 C 10.907 12.309,10.908 11.690,11.300 11.298 C 11.577 11.020,11.957 10.936,12.340 11.066 M12.340 15.066 C 12.709 15.192,13.000 15.604,13.000 16.000 C 13.000 16.527,12.527 17.000,12.000 17.000 C 11.758 17.000,11.479 16.881,11.299 16.701 C 10.907 16.309,10.908 15.690,11.300 15.298 C 11.577 15.020,11.957 14.936,12.340 15.066 " fill="#1C274C" stroke="none" fill-rule="evenodd"></path></svg>