<svg width="24" height="24" viewBox="0 0 24 24" fill="none" xmlns="http://www.w3.org/2000/svg"><path d="M4.580 10.047 C 4.236 10.113,3.883 10.310,3.596 10.596 C 2.800 11.393,2.800 12.607,3.596 13.404 C 4.393 14.200,5.607 14.200,6.404 13.404 C 7.200 12.607,7.200 11.393,6.404 10.596 C 5.913 10.106,5.277 9.914,4.580 10.047 M11.620 10.039 C 10.906 10.197,10.359 10.674,10.110 11.356 C 9.993 11.675,9.994 12.327,10.112 12.650 C 10.323 13.228,10.774 13.678,11.356 13.890 C 11.673 14.006,12.327 14.006,12.644 13.890 C 13.226 13.678,13.677 13.228,13.888 12.650 C 13.954 12.471,13.972 12.327,13.972 12.000 C 13.972 11.673,13.954 11.529,13.888 11.350 C 13.677 10.770,13.216 10.312,12.644 10.114 C 12.389 10.025,11.858 9.986,11.620 10.039 M18.620 10.039 C 17.906 10.197,17.359 10.674,17.110 11.356 C 16.993 11.675,16.994 12.327,17.112 12.650 C 17.323 13.228,17.774 13.678,18.356 13.890 C 18.673 14.006,19.327 14.006,19.644 13.890 C 20.226 13.678,20.677 13.228,20.888 12.650 C 20.954 12.471,20.972 12.327,20.972 12.000 C 20.972 11.673,20.954 11.529,20.888 11.350 C 20.677 10.770,20.216 10.312,19.644 10.114 C 19.389 10.025,18.858 9.986,18.620 10.039 " fill="#1C274C" stroke="none" fill-rule="evenodd"></path></svg>