<svg width="24" height="24" viewBox="0 0 24 24" fill="none" xmlns="http://www.w3.org/2000/svg"><path d="M11.320 2.042 C 9.906 2.218,8.615 2.836,7.643 3.801 C 6.700 4.738,6.108 5.880,5.851 7.257 C 5.773 7.674,5.729 12.568,5.796 13.368 C 5.872 14.276,6.088 15.060,6.465 15.797 C 7.350 17.526,8.988 18.748,10.900 19.105 C 11.456 19.209,12.544 19.209,13.100 19.105 C 14.349 18.872,15.477 18.278,16.379 17.380 C 17.241 16.520,17.849 15.392,18.097 14.189 C 18.224 13.571,18.247 12.911,18.230 10.240 C 18.216 8.041,18.203 7.562,18.148 7.259 C 17.780 5.225,16.589 3.600,14.797 2.685 C 14.265 2.413,13.626 2.196,13.080 2.102 C 12.614 2.022,11.725 1.992,11.320 2.042 M13.168 5.835 C 13.785 5.978,14.313 6.277,14.464 6.568 C 14.543 6.721,14.544 7.038,14.465 7.190 C 14.380 7.354,14.187 7.510,14.008 7.557 C 13.815 7.609,13.609 7.560,13.380 7.409 C 13.083 7.212,12.715 7.140,12.000 7.140 C 11.285 7.140,10.917 7.212,10.620 7.409 C 10.286 7.629,9.978 7.631,9.720 7.414 C 9.551 7.272,9.471 7.100,9.471 6.880 C 9.471 6.535,9.688 6.283,10.179 6.057 C 10.748 5.795,11.229 5.717,12.140 5.739 C 12.630 5.751,12.917 5.778,13.168 5.835 M12.907 8.580 C 13.681 8.705,14.275 9.009,14.468 9.377 C 14.596 9.622,14.527 9.989,14.314 10.187 C 14.073 10.412,13.775 10.418,13.385 10.205 C 12.972 9.980,12.764 9.940,12.000 9.940 C 11.236 9.940,11.028 9.980,10.615 10.205 C 10.225 10.418,9.927 10.412,9.686 10.187 C 9.473 9.989,9.404 9.622,9.532 9.377 C 9.720 9.018,10.317 8.707,11.057 8.582 C 11.500 8.508,12.455 8.507,12.907 8.580 M3.525 10.402 C 3.331 10.445,3.193 10.559,3.090 10.761 C 3.002 10.932,3.000 10.970,3.000 12.164 C 3.000 12.839,3.018 13.578,3.041 13.806 C 3.467 18.120,6.866 21.542,11.137 21.958 C 15.747 22.406,19.949 19.235,20.837 14.640 C 20.967 13.966,21.000 13.469,21.000 12.174 C 21.000 10.896,20.987 10.784,20.809 10.587 C 20.556 10.308,20.062 10.327,19.784 10.627 C 19.622 10.802,19.600 10.996,19.600 12.276 C 19.600 14.212,19.425 15.115,18.811 16.340 C 17.488 18.984,14.905 20.598,12.000 20.598 C 8.513 20.598,5.481 18.217,4.619 14.800 C 4.447 14.119,4.400 13.578,4.400 12.276 C 4.400 11.549,4.383 11.008,4.357 10.904 C 4.266 10.545,3.893 10.319,3.525 10.402 " fill="#1C274C" stroke="none" fill-rule="evenodd"></path></svg>