<svg width="24" height="24" viewBox="0 0 24 24" fill="none" xmlns="http://www.w3.org/2000/svg"><path d="M11.480 2.024 C 10.339 2.160,9.398 2.525,8.553 3.159 C 7.392 4.031,6.635 5.251,6.333 6.740 C 6.268 7.062,6.260 7.325,6.260 9.220 C 6.260 11.121,6.268 11.381,6.335 11.740 C 6.729 13.848,8.185 15.535,10.180 16.195 C 11.905 16.766,13.716 16.515,15.250 15.492 C 15.631 15.237,16.307 14.584,16.621 14.165 C 17.078 13.557,17.463 12.707,17.619 11.964 C 17.653 11.805,17.680 11.641,17.680 11.599 C 17.680 11.525,17.606 11.523,15.250 11.511 L 12.820 11.500 12.646 11.400 C 12.216 11.154,12.134 10.542,12.487 10.212 C 12.716 9.998,12.684 10.000,15.319 10.000 L 17.760 10.000 17.760 9.261 L 17.760 8.523 15.290 8.511 L 12.820 8.500 12.640 8.394 C 12.213 8.143,12.135 7.540,12.487 7.212 C 12.716 6.998,12.687 7.000,15.294 7.000 L 17.710 7.000 17.652 6.690 C 17.213 4.364,15.373 2.533,13.040 2.099 C 12.705 2.037,11.754 1.991,11.480 2.024 M3.720 9.064 C 3.550 9.138,3.414 9.260,3.326 9.420 C 3.233 9.589,3.240 11.248,3.337 11.934 C 3.872 15.720,6.741 18.701,10.481 19.356 C 10.733 19.401,11.003 19.442,11.080 19.448 L 11.220 19.460 11.240 20.700 L 11.260 21.940 11.369 22.126 C 11.647 22.598,12.353 22.598,12.631 22.126 L 12.740 21.940 12.760 20.700 L 12.780 19.460 12.920 19.448 C 13.662 19.387,14.811 19.077,15.560 18.736 C 18.351 17.466,20.237 14.952,20.663 11.934 C 20.760 11.248,20.767 9.589,20.674 9.420 C 20.540 9.178,20.255 9.000,20.000 9.000 C 19.845 9.000,19.609 9.097,19.487 9.212 C 19.275 9.409,19.266 9.465,19.235 10.640 C 19.210 11.596,19.193 11.801,19.106 12.206 C 18.632 14.402,17.222 16.241,15.260 17.218 C 10.973 19.355,5.908 16.906,4.894 12.206 C 4.807 11.801,4.790 11.596,4.765 10.640 C 4.742 9.745,4.724 9.518,4.672 9.420 C 4.484 9.070,4.067 8.914,3.720 9.064 " fill="#1C274C" stroke="none" fill-rule="evenodd"></path></svg>