<svg width="24" height="24" viewBox="0 0 24 24" fill="none" xmlns="http://www.w3.org/2000/svg"><path d="M11.324 2.045 C 10.005 2.198,8.676 2.875,7.779 3.851 C 7.454 4.206,7.016 4.851,6.819 5.266 C 6.620 5.685,6.424 6.296,6.334 6.780 C 6.268 7.137,6.260 7.403,6.260 9.240 C 6.260 11.430,6.267 11.526,6.466 12.276 C 7.013 14.332,8.724 15.927,10.880 16.387 C 11.363 16.491,12.637 16.491,13.120 16.387 C 15.276 15.927,16.987 14.332,17.534 12.276 C 17.734 11.526,17.740 11.430,17.740 9.240 C 17.739 6.942,17.726 6.793,17.455 5.963 C 16.608 3.370,14.040 1.730,11.324 2.045 M13.302 7.075 C 13.871 7.334,13.899 8.116,13.350 8.409 C 13.184 8.498,13.150 8.500,12.000 8.500 C 10.850 8.500,10.816 8.498,10.650 8.409 C 10.101 8.116,10.129 7.334,10.698 7.075 C 10.843 7.009,10.979 7.002,12.000 7.002 C 13.021 7.002,13.157 7.009,13.302 7.075 M3.700 9.076 C 3.506 9.165,3.384 9.292,3.302 9.489 C 3.254 9.604,3.240 9.797,3.240 10.349 C 3.240 11.626,3.370 12.513,3.704 13.516 C 4.721 16.575,7.401 18.869,10.540 19.367 C 10.826 19.412,11.100 19.456,11.148 19.465 L 11.237 19.481 11.248 20.710 C 11.262 22.125,11.270 22.162,11.612 22.375 C 11.975 22.600,12.462 22.473,12.656 22.100 C 12.735 21.949,12.741 21.868,12.752 20.710 L 12.763 19.481 12.852 19.465 C 12.900 19.456,13.174 19.412,13.460 19.367 C 16.598 18.869,19.279 16.574,20.296 13.516 C 20.631 12.509,20.760 11.622,20.759 10.340 C 20.758 9.725,20.747 9.597,20.684 9.460 C 20.406 8.856,19.594 8.856,19.316 9.460 C 19.252 9.599,19.242 9.728,19.241 10.428 C 19.240 10.909,19.216 11.420,19.180 11.692 C 18.708 15.296,15.630 17.999,12.000 17.999 C 8.690 17.999,5.793 15.741,4.975 12.524 C 4.823 11.926,4.760 11.314,4.759 10.428 C 4.758 9.728,4.748 9.599,4.684 9.460 C 4.503 9.068,4.077 8.902,3.700 9.076 M14.302 10.075 C 14.871 10.334,14.899 11.116,14.350 11.409 L 14.180 11.500 12.000 11.500 L 9.820 11.500 9.650 11.409 C 9.101 11.116,9.129 10.334,9.698 10.075 C 9.849 10.007,10.009 10.002,12.000 10.002 C 13.991 10.002,14.151 10.007,14.302 10.075 " fill="#1C274C" stroke="none" fill-rule="evenodd"></path></svg>