<svg width="24" height="24" viewBox="0 0 24 24" fill="none" xmlns="http://www.w3.org/2000/svg"><path d="M11.460 2.025 C 9.669 2.220,8.124 3.160,7.162 4.640 C 6.799 5.199,6.476 6.012,6.348 6.690 L 6.290 7.000 7.706 7.000 C 9.226 7.000,9.295 7.008,9.513 7.212 C 9.866 7.542,9.784 8.154,9.354 8.400 L 9.180 8.500 7.710 8.512 L 6.240 8.525 6.240 9.262 L 6.240 10.000 7.681 10.000 C 9.228 10.000,9.295 10.008,9.513 10.212 C 9.866 10.542,9.784 11.154,9.354 11.400 L 9.180 11.500 7.750 11.512 C 6.111 11.526,6.277 11.472,6.381 11.964 C 6.792 13.920,8.266 15.561,10.180 16.195 C 11.907 16.766,13.715 16.516,15.250 15.492 C 15.631 15.237,16.307 14.584,16.621 14.165 C 17.078 13.557,17.463 12.707,17.619 11.964 C 17.653 11.805,17.680 11.640,17.680 11.597 C 17.680 11.522,17.630 11.520,15.622 11.520 C 13.429 11.520,13.245 11.507,13.037 11.331 C 12.623 10.983,12.695 10.315,13.170 10.085 C 13.342 10.002,13.385 10.000,15.553 10.000 L 17.760 10.000 17.760 9.260 L 17.760 8.520 15.662 8.520 C 13.427 8.520,13.246 8.507,13.037 8.331 C 12.623 7.983,12.695 7.315,13.170 7.085 C 13.342 7.002,13.385 7.000,15.528 7.000 L 17.710 7.000 17.652 6.690 C 17.213 4.364,15.373 2.533,13.040 2.099 C 12.700 2.036,11.762 1.992,11.460 2.025 M3.720 9.064 C 3.550 9.138,3.414 9.260,3.326 9.420 C 3.233 9.589,3.240 11.248,3.337 11.934 C 3.872 15.720,6.741 18.701,10.481 19.356 C 10.733 19.401,11.003 19.442,11.080 19.448 L 11.220 19.460 11.240 20.700 L 11.260 21.940 11.369 22.126 C 11.647 22.598,12.353 22.598,12.631 22.126 L 12.740 21.940 12.760 20.700 L 12.780 19.460 12.920 19.448 C 13.662 19.387,14.811 19.077,15.560 18.736 C 18.351 17.466,20.237 14.952,20.663 11.934 C 20.760 11.248,20.767 9.589,20.674 9.420 C 20.540 9.178,20.255 9.000,20.000 9.000 C 19.845 9.000,19.609 9.097,19.487 9.212 C 19.275 9.409,19.266 9.465,19.235 10.640 C 19.210 11.596,19.193 11.801,19.106 12.206 C 18.632 14.402,17.222 16.241,15.260 17.218 C 10.973 19.355,5.908 16.906,4.894 12.206 C 4.807 11.801,4.790 11.596,4.765 10.640 C 4.742 9.745,4.724 9.518,4.672 9.420 C 4.484 9.070,4.067 8.914,3.720 9.064 " fill="#1C274C" stroke="none" fill-rule="evenodd"></path></svg>