<svg width="24" height="24" viewBox="0 0 24 24" fill="none" xmlns="http://www.w3.org/2000/svg"><path d="M8.456 2.042 C 6.631 2.108,5.461 2.303,4.619 2.680 C 3.970 2.972,3.358 3.492,2.984 4.069 C 2.208 5.269,2.001 6.806,2.000 11.387 L 2.000 13.115 2.370 12.941 C 3.168 12.566,3.691 12.504,6.020 12.505 C 8.401 12.505,8.932 12.577,9.780 13.012 C 10.228 13.242,10.758 13.772,10.988 14.220 C 11.211 14.655,11.347 15.109,11.427 15.691 C 11.526 16.404,11.526 19.596,11.427 20.309 C 11.351 20.862,11.213 21.335,11.015 21.730 L 10.879 22.000 12.609 22.000 C 16.083 21.999,17.646 21.882,18.787 21.538 C 20.186 21.116,21.116 20.186,21.538 18.787 C 21.899 17.590,21.999 16.116,21.999 11.980 C 21.999 7.887,21.899 6.409,21.538 5.213 C 21.115 3.811,20.192 2.890,18.779 2.459 C 17.994 2.219,17.052 2.102,15.417 2.041 C 14.217 1.996,9.702 1.997,8.456 2.042 M17.271 6.302 C 17.553 6.420,17.757 6.708,17.759 6.991 C 17.761 7.284,17.679 7.379,15.731 9.328 L 13.825 11.235 14.906 11.248 L 15.986 11.260 16.152 11.370 C 16.598 11.665,16.598 12.335,16.152 12.630 L 15.986 12.740 13.963 12.752 C 12.571 12.761,11.893 12.751,11.789 12.721 C 11.583 12.660,11.378 12.470,11.301 12.268 C 11.245 12.120,11.238 11.853,11.248 10.057 L 11.260 8.014 11.370 7.848 C 11.665 7.402,12.335 7.402,12.630 7.848 L 12.740 8.014 12.760 9.087 L 12.780 10.161 14.660 8.276 C 15.917 7.016,16.593 6.367,16.700 6.317 C 16.896 6.225,17.075 6.220,17.271 6.302 M4.153 14.044 C 3.140 14.122,2.606 14.395,2.305 14.989 C 2.040 15.513,1.986 16.134,2.011 18.357 C 2.028 19.877,2.039 20.100,2.112 20.428 C 2.305 21.301,2.748 21.725,3.660 21.908 C 3.978 21.972,4.252 21.980,6.000 21.980 C 7.737 21.980,8.024 21.971,8.340 21.909 C 9.269 21.725,9.721 21.273,9.908 20.340 C 9.972 20.022,9.980 19.748,9.980 18.000 C 9.980 16.252,9.972 15.978,9.908 15.660 C 9.774 14.990,9.501 14.569,9.046 14.326 C 8.739 14.163,8.417 14.091,7.759 14.041 C 7.137 13.994,4.782 13.996,4.153 14.044 " fill="#1C274C" stroke="none" fill-rule="evenodd"></path></svg>