<svg width="24" height="24" viewBox="0 0 24 24" fill="none" xmlns="http://www.w3.org/2000/svg"><path d="M8.419 2.041 C 5.785 2.145,4.480 2.507,3.549 3.393 C 2.551 4.342,2.166 5.587,2.041 8.260 C 1.988 9.399,1.988 14.601,2.041 15.740 C 2.160 18.285,2.507 19.501,3.379 20.433 C 4.245 21.360,5.318 21.742,7.580 21.927 C 8.488 22.002,15.512 22.002,16.420 21.927 C 18.857 21.727,19.992 21.275,20.860 20.157 C 21.474 19.368,21.771 18.329,21.927 16.420 C 22.002 15.512,22.002 8.488,21.927 7.580 C 21.740 5.297,21.356 4.232,20.407 3.355 C 19.572 2.585,18.492 2.242,16.380 2.078 C 15.684 2.023,9.573 1.995,8.419 2.041 M7.340 6.329 C 7.384 6.351,7.947 6.893,8.590 7.534 L 9.760 8.698 9.761 8.019 C 9.762 7.150,9.825 6.983,10.210 6.822 C 10.483 6.708,10.869 6.783,11.048 6.986 C 11.233 7.194,11.240 7.264,11.240 9.000 C 11.240 10.388,11.230 10.665,11.178 10.790 C 11.096 10.988,11.010 11.077,10.820 11.165 C 10.673 11.232,10.525 11.238,9.009 11.239 C 7.263 11.240,7.194 11.234,6.986 11.048 C 6.783 10.869,6.708 10.483,6.822 10.210 C 6.983 9.825,7.150 9.762,8.019 9.761 L 8.698 9.760 7.534 8.590 C 6.893 7.947,6.346 7.375,6.318 7.320 C 6.233 7.155,6.253 6.793,6.356 6.626 C 6.462 6.456,6.640 6.320,6.815 6.277 C 6.956 6.243,7.219 6.269,7.340 6.329 M17.405 6.381 C 17.624 6.522,17.733 6.727,17.733 6.996 C 17.733 7.119,17.710 7.265,17.682 7.320 C 17.654 7.375,17.107 7.947,16.466 8.590 L 15.302 9.760 15.981 9.761 C 16.850 9.762,17.017 9.825,17.178 10.210 C 17.292 10.483,17.217 10.869,17.014 11.048 C 16.806 11.233,16.736 11.240,15.000 11.240 C 13.612 11.240,13.335 11.230,13.210 11.178 C 13.012 11.096,12.923 11.010,12.835 10.820 C 12.768 10.673,12.762 10.525,12.761 9.009 C 12.760 7.263,12.766 7.194,12.952 6.986 C 13.131 6.783,13.517 6.708,13.790 6.822 C 14.175 6.983,14.238 7.150,14.239 8.019 L 14.240 8.697 15.430 7.512 C 16.293 6.652,16.653 6.319,16.740 6.300 C 16.806 6.285,16.878 6.267,16.900 6.259 C 16.991 6.226,17.270 6.294,17.405 6.381 M10.820 12.835 C 11.010 12.923,11.096 13.012,11.178 13.210 C 11.230 13.335,11.240 13.612,11.240 15.000 C 11.240 16.736,11.233 16.806,11.048 17.014 C 10.869 17.217,10.483 17.292,10.210 17.178 C 9.825 17.017,9.762 16.850,9.761 15.981 L 9.760 15.302 8.570 16.488 C 7.525 17.529,7.359 17.679,7.205 17.719 C 6.716 17.849,6.267 17.508,6.267 17.008 C 6.267 16.882,6.290 16.735,6.318 16.680 C 6.346 16.625,6.893 16.053,7.534 15.410 L 8.698 14.240 8.028 14.240 C 7.170 14.240,7.001 14.180,6.835 13.820 C 6.745 13.624,6.740 13.405,6.822 13.210 C 6.904 13.012,6.990 12.923,7.180 12.835 C 7.327 12.768,7.474 12.762,9.000 12.762 C 10.526 12.762,10.673 12.768,10.820 12.835 M16.820 12.835 C 17.010 12.923,17.096 13.012,17.178 13.210 C 17.257 13.398,17.257 13.602,17.178 13.790 C 17.017 14.175,16.850 14.238,15.981 14.239 L 15.302 14.240 16.466 15.410 C 17.107 16.053,17.654 16.625,17.682 16.680 C 17.710 16.735,17.733 16.882,17.733 17.008 C 17.733 17.508,17.284 17.849,16.795 17.719 C 16.641 17.679,16.475 17.529,15.430 16.488 L 14.240 15.302 14.239 15.981 C 14.238 16.850,14.175 17.017,13.790 17.178 C 13.602 17.257,13.398 17.257,13.210 17.178 C 13.012 17.096,12.923 17.010,12.835 16.820 C 12.768 16.673,12.762 16.525,12.761 15.009 C 12.760 13.612,12.769 13.335,12.822 13.210 C 12.904 13.012,12.990 12.923,13.180 12.835 C 13.327 12.768,13.474 12.762,15.000 12.762 C 16.526 12.762,16.673 12.768,16.820 12.835 " fill="#1C274C" stroke="none" fill-rule="evenodd"></path></svg>