<svg width="24" height="24" viewBox="0 0 24 24" fill="none" xmlns="http://www.w3.org/2000/svg"><path d="M8.419 2.043 C 5.807 2.139,4.481 2.507,3.549 3.393 C 3.057 3.861,2.739 4.374,2.504 5.080 C 2.091 6.323,2.001 7.559,2.001 12.000 C 2.001 15.701,2.060 16.982,2.284 18.100 C 2.418 18.764,2.718 19.577,2.935 19.860 C 2.994 19.937,3.106 19.830,5.578 17.360 L 8.160 14.780 7.110 14.760 C 5.901 14.737,5.835 14.721,5.635 14.405 C 5.405 14.043,5.514 13.581,5.880 13.366 L 6.060 13.260 8.143 13.260 L 10.226 13.260 10.388 13.367 C 10.477 13.426,10.593 13.543,10.645 13.627 L 10.740 13.780 10.740 15.860 L 10.740 17.940 10.640 18.114 C 10.355 18.612,9.645 18.612,9.360 18.114 C 9.262 17.944,9.260 17.918,9.240 16.890 L 9.220 15.840 6.640 18.422 C 4.170 20.894,4.063 21.006,4.140 21.065 C 4.423 21.282,5.236 21.582,5.900 21.716 C 7.102 21.957,8.527 22.014,12.715 21.989 C 15.922 21.969,16.473 21.950,17.480 21.817 C 18.581 21.673,19.531 21.343,20.100 20.909 C 21.081 20.160,21.602 19.120,21.817 17.480 C 21.950 16.473,21.969 15.922,21.989 12.715 C 22.014 8.527,21.957 7.102,21.716 5.900 C 21.582 5.236,21.282 4.423,21.065 4.140 C 21.006 4.063,20.894 4.170,18.422 6.640 L 15.840 9.220 16.890 9.240 C 17.938 9.260,17.940 9.260,18.120 9.366 C 18.486 9.581,18.595 10.043,18.365 10.405 C 18.146 10.751,18.231 10.740,15.860 10.740 C 13.836 10.740,13.776 10.738,13.641 10.658 C 13.564 10.613,13.447 10.499,13.381 10.405 L 13.260 10.233 13.260 8.147 L 13.260 6.060 13.360 5.886 C 13.641 5.394,14.359 5.394,14.640 5.886 C 14.739 6.057,14.740 6.075,14.753 7.117 L 14.766 8.174 17.343 5.597 C 18.760 4.180,19.920 3.008,19.920 2.992 C 19.920 2.937,19.392 2.670,19.017 2.536 C 18.214 2.249,17.181 2.107,15.417 2.041 C 14.194 1.995,9.686 1.997,8.419 2.043 " fill="#1C274C" stroke="none" fill-rule="evenodd"></path></svg>