<svg width="24" height="24" viewBox="0 0 24 24" fill="none" xmlns="http://www.w3.org/2000/svg"><path d="M21.900 1.259 C 21.878 1.267,21.806 1.285,21.740 1.299 C 21.650 1.319,20.891 2.054,18.690 4.252 L 15.760 7.179 15.760 5.098 C 15.760 3.019,15.760 3.017,15.670 2.841 C 15.620 2.744,15.511 2.610,15.426 2.542 C 15.289 2.433,15.244 2.420,15.000 2.420 C 14.756 2.420,14.711 2.433,14.574 2.542 C 14.489 2.610,14.380 2.744,14.330 2.841 L 14.240 3.017 14.240 6.038 C 14.240 8.120,14.254 9.110,14.285 9.219 C 14.341 9.423,14.577 9.659,14.781 9.715 C 14.891 9.746,15.877 9.759,17.960 9.759 C 20.814 9.758,20.989 9.754,21.140 9.684 C 21.435 9.547,21.600 9.303,21.600 9.000 C 21.600 8.799,21.541 8.647,21.407 8.506 C 21.165 8.251,21.266 8.261,18.942 8.248 L 16.824 8.237 19.749 5.308 C 22.391 2.664,22.678 2.363,22.720 2.205 C 22.806 1.878,22.687 1.564,22.412 1.385 C 22.271 1.294,21.993 1.226,21.900 1.259 M2.971 14.279 C 2.795 14.321,2.666 14.411,2.533 14.586 C 2.435 14.714,2.420 14.769,2.420 15.003 C 2.420 15.245,2.433 15.288,2.544 15.426 C 2.811 15.756,2.675 15.739,5.058 15.752 L 7.175 15.763 4.253 18.692 C 1.555 21.395,1.327 21.634,1.287 21.798 C 1.150 22.367,1.609 22.831,2.190 22.711 C 2.373 22.673,2.481 22.572,5.308 19.748 L 8.237 16.825 8.248 18.942 C 8.261 21.325,8.244 21.189,8.574 21.456 C 8.712 21.568,8.755 21.580,9.000 21.580 C 9.245 21.580,9.288 21.568,9.426 21.456 C 9.511 21.387,9.616 21.270,9.660 21.196 C 9.738 21.064,9.740 20.977,9.751 18.062 C 9.759 15.964,9.749 15.000,9.718 14.849 C 9.657 14.555,9.451 14.346,9.162 14.284 C 8.924 14.233,3.184 14.228,2.971 14.279 " fill="#1C274C" stroke="none" fill-rule="evenodd"></path></svg>