<svg width="24" height="24" viewBox="0 0 24 24" fill="none" xmlns="http://www.w3.org/2000/svg"><path d="M8.419 2.041 C 5.785 2.145,4.480 2.507,3.549 3.393 C 2.551 4.342,2.166 5.587,2.041 8.260 C 1.988 9.399,1.988 14.601,2.041 15.740 C 2.160 18.285,2.507 19.501,3.379 20.433 C 4.245 21.360,5.318 21.742,7.580 21.927 C 8.488 22.002,15.512 22.002,16.420 21.927 C 18.857 21.727,19.992 21.275,20.860 20.157 C 21.474 19.368,21.771 18.329,21.927 16.420 C 22.002 15.512,22.002 8.488,21.927 7.580 C 21.740 5.297,21.356 4.232,20.407 3.355 C 19.572 2.585,18.492 2.242,16.380 2.078 C 15.684 2.023,9.573 1.995,8.419 2.041 M15.388 11.367 C 15.628 11.526,15.733 11.721,15.733 12.007 C 15.733 12.203,15.714 12.271,15.616 12.409 C 15.552 12.501,15.436 12.613,15.359 12.658 C 15.222 12.739,15.173 12.740,12.000 12.740 C 8.827 12.740,8.778 12.739,8.641 12.658 C 8.564 12.613,8.448 12.501,8.384 12.409 C 8.098 12.003,8.330 11.395,8.815 11.278 C 8.884 11.261,10.354 11.250,12.083 11.254 L 15.226 11.260 15.388 11.367 " fill="#1C274C" stroke="none" fill-rule="evenodd"></path></svg>