<svg width="24" height="24" viewBox="0 0 24 24" fill="none" xmlns="http://www.w3.org/2000/svg"><path d="M11.120 2.039 C 9.316 2.220,7.707 2.807,6.280 3.806 C 2.738 6.286,1.178 10.759,2.422 14.865 C 2.918 16.499,3.728 17.850,4.939 19.061 C 5.928 20.050,7.038 20.788,8.272 21.278 C 11.634 22.610,15.313 22.080,18.200 19.845 C 18.637 19.507,19.507 18.637,19.845 18.200 C 21.255 16.379,22.000 14.234,22.000 12.000 C 22.000 7.432,18.842 3.387,14.430 2.303 C 13.446 2.062,12.028 1.948,11.120 2.039 M15.388 11.367 C 15.628 11.526,15.733 11.721,15.733 12.007 C 15.733 12.203,15.714 12.271,15.616 12.409 C 15.552 12.501,15.436 12.613,15.359 12.658 C 15.222 12.739,15.173 12.740,12.000 12.740 C 8.827 12.740,8.778 12.739,8.641 12.658 C 8.564 12.613,8.448 12.501,8.384 12.409 C 8.098 12.003,8.330 11.395,8.815 11.278 C 8.884 11.261,10.354 11.250,12.083 11.254 L 15.226 11.260 15.388 11.367 " fill="#1C274C" stroke="none" fill-rule="evenodd"></path></svg>