<svg width="24" height="24" viewBox="0 0 24 24" fill="none" xmlns="http://www.w3.org/2000/svg"><path d="M11.140 3.042 C 10.276 3.131,9.289 3.382,8.518 3.709 C 5.589 4.951,3.587 7.540,3.094 10.721 C 2.996 11.355,2.996 12.645,3.094 13.279 C 3.183 13.850,3.391 14.670,3.564 15.127 L 3.695 15.474 5.658 15.491 C 7.743 15.509,7.848 15.518,8.395 15.722 C 8.952 15.929,9.297 16.179,10.086 16.948 L 10.631 17.480 12.000 17.480 L 13.369 17.480 13.914 16.948 C 14.701 16.181,15.050 15.927,15.600 15.724 C 16.171 15.513,16.211 15.510,18.322 15.491 L 20.305 15.473 20.436 15.127 C 20.609 14.670,20.817 13.849,20.906 13.279 C 21.004 12.645,21.004 11.355,20.906 10.721 C 20.289 6.740,17.269 3.706,13.320 3.102 C 12.809 3.024,11.632 2.991,11.140 3.042 M2.992 17.055 C 2.632 17.154,2.292 17.446,2.128 17.798 C 1.870 18.352,2.039 19.417,2.512 20.220 C 2.765 20.650,3.350 21.235,3.780 21.488 C 4.132 21.696,4.678 21.893,5.080 21.957 C 5.441 22.016,18.559 22.016,18.920 21.957 C 19.322 21.893,19.868 21.696,20.220 21.488 C 20.650 21.235,21.235 20.650,21.488 20.220 C 21.952 19.431,22.125 18.374,21.882 17.812 C 21.774 17.562,21.441 17.233,21.170 17.108 C 20.981 17.021,20.962 17.020,18.720 17.020 C 16.179 17.020,16.238 17.014,15.767 17.319 C 15.630 17.407,15.243 17.748,14.908 18.074 C 13.962 18.999,13.961 18.999,12.000 18.999 C 10.039 18.999,10.038 18.999,9.092 18.074 C 8.757 17.748,8.371 17.408,8.234 17.319 C 7.763 17.015,7.844 17.024,5.380 17.013 C 3.684 17.006,3.137 17.015,2.992 17.055 " fill="#1C274C" stroke="none" fill-rule="evenodd"></path></svg>