<svg width="24" height="24" viewBox="0 0 24 24" fill="none" xmlns="http://www.w3.org/2000/svg"><path d="M11.440 2.024 C 10.596 2.127,10.062 2.263,9.398 2.543 C 8.021 3.123,6.779 4.262,5.979 5.679 C 5.558 6.424,5.200 7.499,5.076 8.390 C 5.029 8.731,5.018 8.760,4.935 8.760 C 4.699 8.760,4.440 8.952,4.316 9.220 C 4.245 9.373,4.242 9.598,4.241 14.342 C 4.240 19.772,4.251 19.510,4.006 20.001 C 3.945 20.123,3.672 20.519,3.399 20.881 C 3.126 21.243,2.870 21.602,2.831 21.678 C 2.751 21.834,2.739 22.098,2.803 22.267 C 2.895 22.512,3.239 22.757,3.491 22.759 C 3.635 22.760,3.873 22.660,3.995 22.548 C 4.113 22.439,4.984 21.289,5.179 20.984 L 5.322 20.760 12.000 20.760 L 18.678 20.760 18.821 20.984 C 19.016 21.289,19.887 22.439,20.005 22.548 C 20.127 22.660,20.365 22.760,20.509 22.759 C 20.761 22.757,21.105 22.512,21.197 22.267 C 21.261 22.098,21.249 21.834,21.169 21.678 C 21.130 21.602,20.874 21.243,20.601 20.881 C 20.328 20.519,20.055 20.123,19.994 20.001 C 19.749 19.510,19.760 19.772,19.759 14.342 C 19.758 9.598,19.755 9.373,19.684 9.220 C 19.560 8.951,19.301 8.760,19.063 8.760 C 18.978 8.760,18.968 8.735,18.921 8.390 C 18.791 7.421,18.429 6.369,17.943 5.544 C 16.857 3.697,15.070 2.426,13.101 2.097 C 12.742 2.037,11.706 1.992,11.440 2.024 M13.605 4.614 C 13.938 4.751,14.379 5.059,14.745 5.410 C 15.470 6.104,16.009 7.108,16.224 8.160 C 16.314 8.602,16.286 8.751,16.068 8.977 C 15.882 9.170,15.699 9.240,15.380 9.239 C 14.997 9.238,14.646 8.976,14.562 8.631 C 14.379 7.875,14.198 7.409,13.922 6.986 C 13.599 6.492,13.350 6.269,12.647 5.845 C 12.560 5.792,12.447 5.676,12.397 5.586 C 12.021 4.918,12.807 4.286,13.605 4.614 M6.319 13.880 C 6.611 14.313,6.928 14.680,7.398 15.131 C 8.336 16.030,9.422 16.596,10.765 16.886 C 11.119 16.963,11.300 16.976,12.000 16.976 C 12.700 16.976,12.881 16.963,13.240 16.886 C 14.560 16.602,15.673 16.021,16.603 15.130 C 17.251 14.509,17.630 14.024,18.048 13.280 L 18.239 12.940 18.239 16.090 L 18.240 19.240 12.000 19.240 L 5.760 19.240 5.761 16.090 L 5.761 12.940 5.952 13.280 C 6.057 13.467,6.222 13.737,6.319 13.880 " fill="#1C274C" stroke="none" fill-rule="evenodd"></path></svg>