<svg width="24" height="24" viewBox="0 0 24 24" fill="none" xmlns="http://www.w3.org/2000/svg"><path d="M11.698 2.075 C 11.533 2.150,11.341 2.344,11.306 2.470 C 11.296 2.508,11.277 2.587,11.265 2.644 L 11.242 2.748 9.791 2.772 C 6.803 2.823,5.454 3.046,4.546 3.638 C 3.672 4.210,3.245 5.193,3.077 7.020 C 3.013 7.718,2.981 14.249,3.035 15.520 C 3.109 17.231,3.248 18.024,3.599 18.740 C 3.984 19.527,4.446 19.925,5.330 20.235 C 6.251 20.558,7.269 20.665,10.258 20.751 L 11.257 20.780 11.283 20.906 C 11.413 21.546,12.298 21.691,12.631 21.126 L 12.740 20.940 12.740 11.780 C 12.740 6.742,12.727 2.572,12.710 2.513 C 12.637 2.251,12.290 2.002,12.000 2.002 C 11.923 2.002,11.787 2.035,11.698 2.075 M13.775 2.077 C 13.214 2.331,13.217 3.122,13.780 3.434 C 13.882 3.490,14.068 3.502,15.020 3.513 C 16.249 3.528,16.479 3.503,16.686 3.329 C 16.838 3.201,16.958 2.950,16.958 2.760 C 16.958 2.450,16.710 2.125,16.409 2.042 C 16.322 2.018,15.777 2.001,15.100 2.001 C 14.053 2.002,13.924 2.009,13.775 2.077 M18.800 2.341 C 18.135 2.641,18.203 3.497,18.913 3.761 C 19.452 3.961,19.754 4.248,19.957 4.753 C 20.090 5.082,20.254 5.283,20.453 5.358 C 20.737 5.465,21.141 5.354,21.312 5.122 C 21.360 5.057,21.421 4.922,21.448 4.822 C 21.492 4.657,21.486 4.609,21.389 4.310 C 21.248 3.878,21.040 3.529,20.720 3.185 C 20.132 2.555,19.217 2.153,18.800 2.341 M20.700 6.855 C 20.529 6.935,20.402 7.067,20.316 7.256 C 20.248 7.406,20.242 7.540,20.241 8.795 C 20.240 10.326,20.251 10.411,20.483 10.643 C 20.772 10.932,21.228 10.932,21.519 10.641 C 21.755 10.405,21.766 10.314,21.752 8.740 C 21.739 7.169,21.744 7.201,21.429 6.947 C 21.308 6.849,21.234 6.822,21.049 6.812 C 20.910 6.804,20.773 6.821,20.700 6.855 M20.700 12.716 C 20.506 12.805,20.384 12.932,20.302 13.129 C 20.250 13.254,20.240 13.504,20.241 14.689 C 20.242 16.258,20.249 16.306,20.516 16.531 C 20.880 16.837,21.453 16.718,21.664 16.292 C 21.733 16.153,21.741 16.018,21.753 14.740 C 21.766 13.240,21.756 13.136,21.571 12.916 C 21.354 12.659,20.999 12.577,20.700 12.716 M20.500 18.122 C 20.274 18.189,20.094 18.380,19.981 18.676 C 19.781 19.202,19.541 19.468,19.093 19.663 C 18.553 19.898,18.447 19.991,18.363 20.309 C 18.258 20.702,18.547 21.127,18.982 21.217 C 19.058 21.233,19.207 21.211,19.382 21.157 C 20.214 20.902,20.869 20.333,21.246 19.535 C 21.537 18.918,21.537 18.608,21.245 18.316 C 21.040 18.111,20.775 18.042,20.500 18.122 M13.775 20.076 C 13.214 20.333,13.217 21.122,13.780 21.434 C 13.885 21.491,14.059 21.500,15.140 21.500 C 16.353 21.500,16.384 21.498,16.550 21.409 C 16.807 21.272,16.940 21.043,16.939 20.739 C 16.939 20.454,16.845 20.281,16.605 20.118 L 16.460 20.020 15.200 20.010 C 14.037 20.001,13.927 20.006,13.775 20.076 " fill="#1C274C" stroke="none" fill-rule="evenodd"></path></svg>