<svg width="24" height="24" viewBox="0 0 24 24" fill="none" xmlns="http://www.w3.org/2000/svg"><path d="M8.540 2.060 C 8.313 2.139,8.091 2.400,8.057 2.627 C 7.999 3.013,8.215 3.356,8.584 3.463 C 8.904 3.556,11.042 3.532,11.220 3.434 C 11.783 3.122,11.786 2.331,11.225 2.077 C 11.076 2.009,10.948 2.002,9.880 2.003 C 8.972 2.003,8.663 2.016,8.540 2.060 M12.698 2.075 C 12.517 2.158,12.335 2.353,12.290 2.513 C 12.273 2.572,12.260 6.742,12.260 11.780 L 12.260 20.940 12.369 21.126 C 12.702 21.691,13.587 21.546,13.717 20.906 L 13.743 20.780 14.742 20.751 C 17.731 20.665,18.749 20.558,19.670 20.235 C 20.554 19.925,21.016 19.527,21.402 18.740 C 21.751 18.027,21.894 17.206,21.965 15.502 C 22.019 14.204,21.987 7.713,21.923 7.020 C 21.699 4.579,21.025 3.600,19.256 3.140 C 18.367 2.909,17.249 2.807,15.209 2.772 L 13.758 2.747 13.736 2.644 C 13.671 2.346,13.532 2.171,13.271 2.062 C 13.076 1.981,12.897 1.985,12.698 2.075 M5.520 2.374 C 5.013 2.554,4.649 2.792,4.280 3.187 C 3.960 3.528,3.752 3.878,3.611 4.310 C 3.513 4.611,3.508 4.656,3.553 4.826 C 3.580 4.928,3.638 5.061,3.682 5.122 C 3.843 5.349,4.266 5.464,4.547 5.358 C 4.746 5.283,4.910 5.082,5.043 4.753 C 5.246 4.248,5.548 3.961,6.087 3.761 C 6.357 3.660,6.576 3.439,6.640 3.200 C 6.731 2.864,6.532 2.485,6.191 2.342 C 5.989 2.257,5.827 2.265,5.520 2.374 M3.690 6.864 C 3.511 6.955,3.333 7.167,3.282 7.349 C 3.220 7.572,3.226 10.124,3.289 10.334 C 3.357 10.561,3.583 10.776,3.814 10.834 C 4.195 10.930,4.600 10.705,4.711 10.334 C 4.746 10.219,4.760 9.765,4.760 8.793 L 4.760 7.416 4.661 7.218 C 4.528 6.954,4.339 6.829,4.046 6.811 C 3.891 6.802,3.779 6.818,3.690 6.864 M3.698 12.715 C 3.503 12.804,3.337 12.992,3.279 13.192 C 3.250 13.290,3.239 13.814,3.248 14.740 C 3.259 16.018,3.267 16.153,3.336 16.292 C 3.547 16.718,4.120 16.837,4.484 16.531 C 4.751 16.305,4.758 16.260,4.758 14.680 C 4.758 13.384,4.752 13.246,4.684 13.100 C 4.503 12.708,4.079 12.542,3.698 12.715 M4.020 18.138 C 3.812 18.214,3.617 18.429,3.558 18.647 C 3.495 18.881,3.558 19.149,3.781 19.593 C 4.170 20.368,4.800 20.904,5.618 21.157 C 5.925 21.251,6.048 21.242,6.294 21.106 C 6.450 21.020,6.609 20.793,6.656 20.590 C 6.670 20.530,6.660 20.397,6.634 20.294 C 6.571 20.044,6.364 19.841,6.056 19.729 C 5.572 19.553,5.288 19.293,5.098 18.853 C 4.912 18.424,4.861 18.344,4.700 18.232 C 4.502 18.094,4.239 18.058,4.020 18.138 M8.490 20.066 C 7.922 20.346,7.899 21.115,8.450 21.409 C 8.616 21.498,8.647 21.500,9.860 21.500 C 10.941 21.500,11.115 21.491,11.220 21.434 C 11.783 21.122,11.786 20.331,11.225 20.077 C 11.075 20.009,10.946 20.002,9.840 20.002 C 8.801 20.002,8.601 20.011,8.490 20.066 " fill="#1C274C" stroke="none" fill-rule="evenodd"></path></svg>