<svg width="24" height="24" viewBox="0 0 24 24" fill="none" xmlns="http://www.w3.org/2000/svg"><path d="M10.380 1.283 C 9.223 1.341,8.563 1.562,8.069 2.056 C 7.656 2.469,7.420 3.014,7.323 3.780 C 7.301 3.956,7.271 4.537,7.256 5.070 L 7.229 6.040 7.004 6.040 C 6.670 6.041,5.876 6.112,5.401 6.184 C 3.476 6.476,2.505 7.434,2.186 9.360 C 2.035 10.265,2.020 10.706,2.021 14.060 C 2.021 16.933,2.030 17.417,2.092 17.957 C 2.259 19.411,2.547 20.182,3.155 20.800 C 3.790 21.446,4.568 21.743,6.056 21.908 C 6.643 21.974,7.174 21.980,12.020 21.980 C 16.870 21.980,17.395 21.974,17.957 21.909 C 19.433 21.738,20.195 21.449,20.822 20.822 C 21.270 20.374,21.545 19.845,21.725 19.088 C 21.959 18.103,22.013 16.937,21.989 13.418 C 21.969 10.663,21.950 10.205,21.816 9.380 C 21.503 7.442,20.532 6.477,18.599 6.184 C 18.124 6.112,17.330 6.041,16.996 6.040 L 16.772 6.040 16.744 5.090 C 16.713 4.010,16.672 3.588,16.557 3.162 C 16.301 2.220,15.632 1.604,14.640 1.399 C 13.961 1.258,11.951 1.203,10.380 1.283 M14.291 2.853 C 15.067 3.034,15.183 3.300,15.227 4.990 L 15.253 6.000 12.000 6.000 L 8.747 6.000 8.773 4.990 C 8.801 3.892,8.850 3.547,9.019 3.258 C 9.176 2.990,9.525 2.852,10.220 2.785 C 10.308 2.777,11.199 2.774,12.200 2.780 C 13.696 2.788,14.068 2.801,14.291 2.853 M12.415 9.393 C 12.568 9.499,12.681 9.670,12.746 9.896 C 12.773 9.990,12.820 10.026,12.980 10.081 C 14.028 10.436,14.719 11.293,14.733 12.257 C 14.738 12.589,14.671 12.738,14.426 12.936 C 14.288 13.047,14.245 13.060,14.003 13.060 C 13.769 13.060,13.714 13.045,13.586 12.947 C 13.378 12.788,13.314 12.674,13.252 12.348 C 13.188 12.006,13.062 11.807,12.805 11.645 C 12.562 11.490,12.365 11.440,12.000 11.440 C 11.635 11.440,11.438 11.490,11.195 11.645 C 10.870 11.850,10.715 12.167,10.776 12.495 C 10.814 12.694,11.111 13.009,11.363 13.118 C 11.504 13.178,11.740 13.223,12.114 13.261 C 12.415 13.292,12.759 13.346,12.880 13.382 C 13.751 13.641,14.502 14.374,14.682 15.140 C 14.796 15.623,14.722 16.241,14.500 16.681 C 14.229 17.215,13.583 17.739,12.966 17.923 C 12.791 17.975,12.750 18.026,12.702 18.249 C 12.690 18.309,12.612 18.428,12.530 18.515 C 12.293 18.763,11.945 18.818,11.631 18.655 C 11.491 18.583,11.280 18.298,11.280 18.182 C 11.280 18.055,11.201 17.975,11.020 17.919 C 10.402 17.726,9.769 17.210,9.500 16.681 C 9.278 16.242,9.195 15.592,9.329 15.340 C 9.514 14.991,9.922 14.836,10.271 14.982 C 10.569 15.107,10.684 15.274,10.758 15.694 C 10.827 16.091,11.033 16.326,11.455 16.492 C 11.748 16.607,12.259 16.603,12.570 16.483 C 12.840 16.379,13.132 16.107,13.202 15.895 C 13.389 15.326,12.806 14.763,12.023 14.759 C 11.517 14.756,10.877 14.583,10.452 14.333 C 10.179 14.173,9.742 13.746,9.583 13.485 C 9.188 12.833,9.156 11.998,9.499 11.322 C 9.772 10.785,10.361 10.304,11.020 10.081 C 11.180 10.026,11.227 9.989,11.254 9.896 C 11.389 9.439,11.689 9.216,12.100 9.266 C 12.188 9.277,12.330 9.334,12.415 9.393 " fill="#1C274C" stroke="none" fill-rule="evenodd"></path></svg>