<svg width="24" height="24" viewBox="0 0 24 24" fill="none" xmlns="http://www.w3.org/2000/svg"><path d="M7.300 2.026 C 6.601 2.050,5.735 2.126,5.300 2.200 C 3.429 2.521,2.501 3.463,2.186 5.360 C 2.042 6.226,2.022 6.735,2.021 9.640 L 2.020 12.500 7.305 12.510 L 12.590 12.520 12.676 12.150 C 12.830 11.492,13.050 11.058,13.456 10.613 C 14.010 10.007,14.774 9.673,15.857 9.564 C 16.425 9.507,19.575 9.507,20.143 9.564 C 20.710 9.621,21.264 9.763,21.640 9.948 C 21.805 10.030,21.956 10.104,21.975 10.113 C 22.023 10.136,21.977 6.744,21.923 6.200 C 21.721 4.172,21.203 3.197,20.010 2.600 C 19.470 2.330,18.810 2.179,17.720 2.074 C 17.298 2.034,8.271 1.992,7.300 2.026 M16.200 11.039 C 14.799 11.157,14.303 11.557,14.086 12.740 C 14.028 13.056,14.020 13.514,14.020 16.500 C 14.020 19.486,14.028 19.944,14.086 20.260 C 14.279 21.314,14.689 21.724,15.740 21.913 C 16.270 22.008,19.730 22.008,20.260 21.913 C 21.311 21.724,21.710 21.326,21.910 20.267 C 21.973 19.937,21.980 19.562,21.980 16.500 C 21.980 13.438,21.973 13.063,21.910 12.733 C 21.713 11.688,21.310 11.278,20.300 11.094 C 19.928 11.026,16.842 10.985,16.200 11.039 M2.040 13.570 C 2.040 13.775,2.173 14.679,2.242 14.940 C 2.482 15.850,3.032 16.432,3.923 16.717 C 4.635 16.944,5.574 16.998,8.790 16.999 L 11.240 17.000 11.240 19.000 L 11.240 21.000 9.559 21.000 C 7.751 21.000,7.709 21.004,7.487 21.212 C 7.131 21.544,7.221 22.187,7.652 22.396 C 7.823 22.479,7.863 22.480,10.676 22.480 L 13.526 22.480 13.342 22.270 C 12.960 21.833,12.689 21.144,12.572 20.309 C 12.512 19.882,12.503 19.423,12.502 16.670 L 12.500 13.520 7.270 13.520 C 3.099 13.520,2.040 13.530,2.040 13.570 M19.271 19.302 C 19.468 19.384,19.595 19.506,19.684 19.700 C 19.863 20.086,19.680 20.527,19.271 20.698 C 19.052 20.789,16.948 20.789,16.729 20.698 C 16.101 20.436,16.084 19.600,16.700 19.316 C 16.843 19.249,16.977 19.242,17.991 19.241 C 18.923 19.240,19.149 19.251,19.271 19.302 " fill="#1C274C" stroke="none" fill-rule="evenodd"></path></svg>