<svg width="24" height="24" viewBox="0 0 24 24" fill="none" xmlns="http://www.w3.org/2000/svg"><path d="M7.300 2.027 C 6.282 2.057,5.440 2.151,4.829 2.303 C 4.317 2.430,4.011 2.561,3.617 2.822 C 2.947 3.265,2.534 3.896,2.302 4.829 C 2.073 5.752,2.037 6.345,2.012 9.610 L 1.990 12.480 11.995 12.480 L 22.000 12.480 22.000 10.590 L 22.000 8.699 21.676 8.714 C 21.256 8.733,20.966 8.674,20.392 8.451 L 19.923 8.270 19.812 8.405 C 19.411 8.888,18.938 9.179,18.284 9.345 C 17.803 9.467,16.974 9.519,15.500 9.519 C 14.018 9.519,13.198 9.467,12.710 9.343 C 11.636 9.071,10.932 8.368,10.655 7.290 C 10.429 6.412,10.428 3.592,10.654 2.716 C 10.708 2.505,10.791 2.257,10.837 2.166 L 10.922 2.000 9.291 2.008 C 8.394 2.013,7.498 2.021,7.300 2.027 M13.540 2.038 C 12.631 2.127,12.234 2.447,12.070 3.224 C 12.000 3.554,12.000 6.446,12.070 6.776 C 12.207 7.429,12.547 7.779,13.184 7.925 C 13.471 7.991,16.983 8.020,17.496 7.960 C 18.004 7.901,18.287 7.794,18.524 7.573 C 18.746 7.364,18.863 7.114,18.924 6.714 C 18.948 6.552,18.975 6.382,18.984 6.334 C 18.998 6.254,19.060 6.274,20.043 6.684 C 21.488 7.287,21.632 7.321,21.833 7.108 C 21.980 6.951,21.998 6.723,21.998 5.000 C 21.998 3.277,21.980 3.049,21.833 2.892 C 21.636 2.683,21.458 2.725,20.050 3.313 C 19.060 3.726,18.998 3.746,18.984 3.666 C 18.975 3.618,18.948 3.447,18.923 3.284 C 18.820 2.604,18.517 2.261,17.871 2.095 C 17.661 2.041,17.315 2.028,15.740 2.019 C 14.706 2.013,13.716 2.021,13.540 2.038 M2.040 13.570 C 2.040 13.775,2.173 14.679,2.242 14.940 C 2.482 15.850,3.032 16.432,3.923 16.717 C 4.635 16.944,5.574 16.998,8.790 16.999 L 11.240 17.000 11.240 19.000 L 11.240 21.000 9.559 21.000 C 7.751 21.000,7.709 21.004,7.487 21.212 C 7.131 21.544,7.221 22.187,7.652 22.396 C 7.825 22.480,7.843 22.480,12.000 22.480 C 16.157 22.480,16.175 22.480,16.348 22.396 C 16.779 22.187,16.869 21.544,16.513 21.212 C 16.291 21.004,16.249 21.000,14.441 21.000 L 12.760 21.000 12.760 19.000 L 12.760 17.000 15.210 16.999 C 18.426 16.998,19.365 16.944,20.077 16.717 C 20.985 16.427,21.543 15.819,21.779 14.863 C 21.838 14.623,21.955 13.795,21.959 13.590 C 21.960 13.524,21.460 13.520,12.000 13.520 C 4.033 13.520,2.040 13.530,2.040 13.570 " fill="#1C274C" stroke="none" fill-rule="evenodd"></path></svg>