<svg width="24" height="24" viewBox="0 0 24 24" fill="none" xmlns="http://www.w3.org/2000/svg"><path d="M11.120 2.042 C 6.665 2.449,3.034 5.725,2.185 10.103 C 1.886 11.649,1.953 13.235,2.379 14.718 C 2.457 14.987,2.520 15.212,2.520 15.218 C 2.520 15.224,2.349 15.238,2.140 15.249 C 1.815 15.266,1.738 15.284,1.599 15.376 C 1.311 15.566,1.193 15.876,1.281 16.204 C 1.340 16.422,1.569 16.657,1.781 16.715 C 2.007 16.778,21.993 16.778,22.219 16.715 C 22.431 16.657,22.660 16.422,22.719 16.204 C 22.807 15.876,22.689 15.566,22.401 15.376 C 22.262 15.284,22.185 15.266,21.860 15.249 C 21.651 15.238,21.480 15.222,21.480 15.213 C 21.480 15.205,21.533 15.018,21.599 14.798 C 21.830 14.021,22.000 12.915,22.000 12.194 C 22.000 11.909,21.990 11.870,21.890 11.758 C 21.754 11.606,21.524 11.564,21.315 11.651 C 21.205 11.697,21.101 11.814,20.860 12.165 C 20.652 12.468,20.385 12.781,20.064 13.102 C 19.126 14.036,18.068 14.601,16.720 14.886 C 16.148 15.007,14.977 15.017,14.380 14.906 C 13.032 14.655,11.888 14.053,10.918 13.082 C 10.158 12.322,9.670 11.539,9.343 10.554 C 9.161 10.006,9.089 9.649,9.032 9.007 C 8.903 7.565,9.288 6.115,10.136 4.840 C 10.514 4.272,11.264 3.523,11.854 3.124 C 12.192 2.895,12.301 2.799,12.348 2.687 C 12.436 2.475,12.394 2.246,12.242 2.110 C 12.127 2.008,12.096 2.000,11.789 2.006 C 11.608 2.009,11.307 2.025,11.120 2.042 M19.196 2.091 C 19.078 2.169,19.025 2.268,18.799 2.835 C 18.622 3.278,18.505 3.517,18.433 3.579 C 18.375 3.629,18.061 3.774,17.734 3.902 C 17.021 4.180,16.920 4.261,16.920 4.553 C 16.920 4.854,17.023 4.938,17.735 5.217 C 18.068 5.348,18.380 5.496,18.443 5.555 C 18.521 5.628,18.631 5.853,18.800 6.289 C 19.091 7.036,19.208 7.166,19.533 7.103 C 19.769 7.057,19.833 6.965,20.105 6.278 C 20.249 5.916,20.395 5.589,20.429 5.550 C 20.464 5.512,20.779 5.368,21.129 5.231 C 21.480 5.094,21.809 4.940,21.861 4.888 C 22.038 4.711,22.037 4.407,21.858 4.229 C 21.803 4.174,21.485 4.025,21.121 3.883 C 20.635 3.693,20.463 3.608,20.406 3.527 C 20.365 3.468,20.237 3.177,20.121 2.880 C 19.843 2.168,19.818 2.123,19.659 2.057 C 19.468 1.977,19.353 1.986,19.196 2.091 M15.290 7.937 C 15.222 7.995,15.130 8.149,15.064 8.316 C 14.928 8.663,14.845 8.745,14.474 8.900 C 14.118 9.049,13.982 9.211,14.013 9.452 C 14.045 9.693,14.129 9.780,14.468 9.920 C 14.859 10.081,14.931 10.148,15.043 10.454 C 15.168 10.794,15.258 10.910,15.438 10.964 C 15.751 11.058,15.935 10.925,16.119 10.475 C 16.188 10.307,16.274 10.142,16.312 10.109 C 16.349 10.076,16.521 9.990,16.694 9.919 C 17.074 9.762,17.174 9.638,17.146 9.361 C 17.123 9.137,16.983 9.002,16.647 8.879 C 16.348 8.770,16.235 8.653,16.099 8.310 C 15.964 7.970,15.820 7.840,15.580 7.840 C 15.454 7.840,15.374 7.867,15.290 7.937 M4.807 18.287 C 4.568 18.341,4.341 18.572,4.289 18.816 C 4.197 19.246,4.431 19.629,4.838 19.716 C 5.129 19.778,18.871 19.778,19.162 19.716 C 19.920 19.553,19.920 18.447,19.162 18.284 C 18.894 18.227,5.065 18.230,4.807 18.287 M7.807 21.287 C 7.568 21.341,7.341 21.572,7.289 21.816 C 7.197 22.246,7.431 22.629,7.838 22.716 C 8.127 22.778,15.873 22.778,16.162 22.716 C 16.920 22.553,16.920 21.447,16.162 21.284 C 15.897 21.227,8.063 21.230,7.807 21.287 " fill="#1C274C" stroke="none" fill-rule="evenodd"></path></svg>