<svg width="24" height="24" viewBox="0 0 24 24" fill="none" xmlns="http://www.w3.org/2000/svg"><path d="M11.120 2.042 C 6.665 2.449,3.034 5.725,2.185 10.103 C 1.631 12.962,2.333 15.846,4.155 18.200 C 4.493 18.637,5.363 19.507,5.800 19.845 C 8.427 21.878,11.768 22.517,14.865 21.578 C 16.499 21.082,17.850 20.272,19.061 19.061 C 20.266 17.856,21.084 16.495,21.574 14.877 C 21.825 14.047,21.999 12.941,22.000 12.171 C 22.000 11.911,21.989 11.868,21.890 11.758 C 21.754 11.606,21.524 11.564,21.315 11.651 C 21.205 11.697,21.101 11.814,20.860 12.165 C 20.652 12.468,20.385 12.781,20.064 13.102 C 19.126 14.036,18.068 14.601,16.720 14.886 C 16.148 15.007,14.977 15.017,14.380 14.906 C 13.032 14.655,11.888 14.053,10.918 13.082 C 10.158 12.322,9.670 11.539,9.343 10.554 C 9.161 10.006,9.089 9.649,9.032 9.007 C 8.903 7.565,9.288 6.115,10.136 4.840 C 10.514 4.272,11.264 3.523,11.854 3.124 C 12.192 2.895,12.301 2.799,12.348 2.687 C 12.436 2.475,12.394 2.246,12.242 2.110 C 12.127 2.008,12.096 2.000,11.789 2.006 C 11.608 2.009,11.307 2.025,11.120 2.042 " fill="#1C274C" stroke="none" fill-rule="evenodd"></path></svg>