<svg width="24" height="24" viewBox="0 0 24 24" fill="none" xmlns="http://www.w3.org/2000/svg"><path d="M11.300 2.027 C 10.396 2.103,9.297 2.339,8.537 2.620 C 6.161 3.500,4.142 5.321,3.043 7.576 C 2.706 8.267,2.527 8.743,2.342 9.443 C 2.101 10.351,2.026 10.964,2.026 12.000 C 2.026 12.726,2.043 13.008,2.113 13.460 C 2.441 15.571,3.363 17.437,4.837 18.972 C 5.788 19.962,7.208 20.887,8.523 21.374 C 9.075 21.579,9.894 21.787,10.540 21.887 C 10.992 21.957,11.274 21.974,12.000 21.974 C 13.036 21.974,13.649 21.899,14.557 21.658 C 16.592 21.120,18.433 19.932,19.759 18.303 C 20.386 17.532,21.032 16.402,21.375 15.475 C 21.708 14.576,21.934 13.445,21.985 12.419 L 22.011 11.894 21.896 11.765 C 21.813 11.671,21.734 11.629,21.616 11.613 C 21.350 11.577,21.186 11.682,20.952 12.036 C 19.959 13.539,18.481 14.532,16.702 14.889 C 16.128 15.005,14.943 15.015,14.380 14.909 C 12.996 14.648,11.818 14.021,10.857 13.033 C 9.914 12.065,9.344 10.961,9.091 9.620 C 8.985 9.057,8.995 7.872,9.111 7.298 C 9.268 6.517,9.569 5.734,9.959 5.100 C 10.444 4.308,11.245 3.498,12.043 2.991 C 12.313 2.820,12.420 2.631,12.387 2.384 C 12.371 2.268,12.329 2.188,12.242 2.110 C 12.127 2.007,12.097 2.000,11.789 2.007 C 11.608 2.010,11.388 2.019,11.300 2.027 M19.212 2.078 C 19.060 2.171,19.031 2.224,18.763 2.907 C 18.649 3.197,18.521 3.479,18.479 3.533 C 18.427 3.598,18.194 3.714,17.781 3.880 C 17.439 4.017,17.115 4.164,17.061 4.206 C 16.863 4.362,16.857 4.733,17.050 4.907 C 17.099 4.951,17.424 5.101,17.771 5.239 C 18.184 5.403,18.427 5.522,18.476 5.584 C 18.518 5.637,18.662 5.957,18.798 6.295 C 18.936 6.639,19.086 6.949,19.138 6.999 C 19.265 7.117,19.512 7.147,19.673 7.064 C 19.821 6.987,19.865 6.909,20.107 6.288 C 20.207 6.030,20.322 5.755,20.363 5.675 C 20.445 5.514,20.506 5.480,21.273 5.178 C 21.543 5.071,21.808 4.941,21.860 4.889 C 21.971 4.778,22.017 4.608,21.981 4.443 C 21.938 4.251,21.791 4.146,21.273 3.942 C 20.506 3.640,20.445 3.606,20.363 3.445 C 20.322 3.365,20.207 3.090,20.107 2.832 C 19.867 2.216,19.820 2.133,19.681 2.061 C 19.523 1.979,19.366 1.985,19.212 2.078 M15.290 7.937 C 15.222 7.995,15.130 8.149,15.064 8.316 C 14.928 8.663,14.845 8.745,14.474 8.900 C 14.118 9.049,13.982 9.211,14.013 9.452 C 14.045 9.693,14.129 9.780,14.468 9.920 C 14.859 10.081,14.931 10.148,15.043 10.454 C 15.168 10.794,15.258 10.910,15.438 10.964 C 15.751 11.058,15.935 10.925,16.119 10.475 C 16.188 10.307,16.274 10.142,16.312 10.109 C 16.349 10.076,16.521 9.990,16.694 9.919 C 17.074 9.762,17.174 9.638,17.146 9.361 C 17.123 9.137,16.983 9.002,16.647 8.879 C 16.348 8.770,16.235 8.653,16.099 8.310 C 15.964 7.970,15.820 7.840,15.580 7.840 C 15.454 7.840,15.374 7.867,15.290 7.937 " fill="#1C274C" stroke="none" fill-rule="evenodd"></path></svg>