<svg width="24" height="24" viewBox="0 0 24 24" fill="none" xmlns="http://www.w3.org/2000/svg"><path d="M17.811 1.278 C 17.535 1.345,17.316 1.587,17.260 1.885 C 17.197 2.220,17.450 2.624,17.781 2.715 C 17.879 2.743,18.366 2.760,19.059 2.760 L 20.179 2.760 18.752 4.190 C 17.484 5.462,17.321 5.639,17.280 5.796 C 17.174 6.200,17.401 6.610,17.791 6.718 C 18.002 6.777,22.007 6.774,22.219 6.715 C 22.431 6.657,22.660 6.422,22.719 6.204 C 22.808 5.873,22.689 5.566,22.395 5.372 L 22.226 5.260 21.026 5.247 L 19.827 5.235 21.250 3.807 C 22.510 2.544,22.679 2.360,22.720 2.205 C 22.808 1.871,22.689 1.566,22.395 1.372 L 22.226 1.260 20.083 1.253 C 18.904 1.250,17.882 1.261,17.811 1.278 M11.300 2.027 C 10.396 2.103,9.297 2.339,8.537 2.620 C 6.161 3.500,4.142 5.321,3.043 7.576 C 2.706 8.267,2.527 8.743,2.342 9.443 C 2.101 10.351,2.026 10.964,2.026 12.000 C 2.026 12.726,2.043 13.008,2.113 13.460 C 2.441 15.571,3.363 17.437,4.837 18.972 C 5.788 19.962,7.208 20.887,8.523 21.374 C 9.075 21.579,9.894 21.787,10.540 21.887 C 10.992 21.957,11.274 21.974,12.000 21.974 C 13.036 21.974,13.649 21.899,14.557 21.658 C 16.592 21.120,18.433 19.932,19.759 18.303 C 20.386 17.532,21.032 16.402,21.375 15.475 C 21.708 14.576,21.934 13.445,21.985 12.419 L 22.011 11.894 21.896 11.765 C 21.813 11.671,21.734 11.629,21.616 11.613 C 21.350 11.577,21.186 11.682,20.952 12.036 C 19.959 13.539,18.481 14.532,16.702 14.889 C 16.128 15.005,14.943 15.015,14.380 14.909 C 12.996 14.648,11.818 14.021,10.857 13.033 C 9.914 12.065,9.344 10.961,9.091 9.620 C 8.985 9.057,8.995 7.872,9.111 7.298 C 9.268 6.517,9.569 5.734,9.959 5.100 C 10.444 4.308,11.245 3.498,12.043 2.991 C 12.313 2.820,12.420 2.631,12.387 2.384 C 12.371 2.268,12.329 2.188,12.242 2.110 C 12.127 2.007,12.097 2.000,11.789 2.007 C 11.608 2.010,11.388 2.019,11.300 2.027 M13.420 7.260 C 13.398 7.267,13.331 7.284,13.271 7.297 C 13.211 7.310,13.095 7.379,13.015 7.450 C 12.595 7.818,12.699 8.443,13.220 8.684 C 13.354 8.746,13.483 8.758,14.018 8.759 L 14.656 8.760 13.769 9.653 C 13.212 10.213,12.859 10.600,12.821 10.691 C 12.656 11.087,12.822 11.500,13.220 11.684 C 13.367 11.752,13.507 11.758,15.000 11.758 C 16.493 11.758,16.633 11.752,16.780 11.684 C 17.075 11.547,17.240 11.303,17.240 11.000 C 17.240 10.799,17.181 10.647,17.047 10.506 C 16.837 10.284,16.755 10.264,16.026 10.247 L 15.352 10.232 16.235 9.343 C 16.789 8.786,17.141 8.400,17.179 8.309 C 17.254 8.128,17.257 7.879,17.186 7.708 C 17.115 7.537,16.879 7.335,16.691 7.282 C 16.555 7.245,13.528 7.224,13.420 7.260 " fill="#1C274C" stroke="none" fill-rule="evenodd"></path></svg>