<svg width="24" height="24" viewBox="0 0 24 24" fill="none" xmlns="http://www.w3.org/2000/svg"><path d="M11.260 2.044 C 8.944 2.287,6.873 3.698,5.804 5.761 C 5.400 6.540,5.171 7.262,5.060 8.106 C 4.972 8.781,4.972 15.219,5.060 15.894 C 5.474 19.055,7.945 21.526,11.106 21.940 C 14.599 22.398,17.889 20.163,18.783 16.726 C 18.990 15.928,19.000 15.709,19.000 12.000 C 19.000 9.176,18.989 8.483,18.940 8.106 C 18.445 4.333,15.043 1.647,11.260 2.044 M12.405 4.381 C 12.485 4.432,12.593 4.543,12.645 4.627 L 12.740 4.780 12.740 6.507 L 12.740 8.233 12.619 8.405 C 12.453 8.641,12.273 8.739,12.000 8.739 C 11.727 8.739,11.547 8.641,11.381 8.405 L 11.260 8.233 11.260 6.507 L 11.260 4.780 11.353 4.631 C 11.586 4.256,12.044 4.147,12.405 4.381 " fill="#1C274C" stroke="none" fill-rule="evenodd"></path></svg>