<svg width="24" height="24" viewBox="0 0 24 24" fill="none" xmlns="http://www.w3.org/2000/svg"><path d="M9.960 1.025 C 5.948 1.807,2.715 4.710,1.501 8.620 C 0.939 10.429,0.851 12.557,1.264 14.340 C 1.861 16.920,3.241 19.094,5.300 20.700 C 8.071 22.861,11.728 23.546,15.125 22.540 C 18.064 21.670,20.585 19.513,21.904 16.740 C 22.397 15.704,22.703 14.700,22.885 13.520 C 23.014 12.688,23.016 11.119,22.888 10.300 C 22.787 9.651,22.585 8.831,22.385 8.260 C 21.454 5.592,19.533 3.364,17.053 2.074 C 16.531 1.803,16.260 1.805,15.944 2.082 C 15.645 2.344,15.622 2.833,15.894 3.137 C 15.963 3.214,16.209 3.378,16.440 3.503 C 18.861 4.806,20.624 7.118,21.216 9.767 C 21.377 10.489,21.440 11.093,21.440 11.920 C 21.440 13.060,21.311 13.897,20.981 14.900 C 20.086 17.621,18.027 19.798,15.380 20.821 C 14.287 21.243,13.213 21.440,12.000 21.440 C 9.893 21.440,8.026 20.813,6.300 19.525 C 5.781 19.138,4.860 18.213,4.464 17.680 C 3.457 16.327,2.839 14.803,2.621 13.139 C 2.549 12.591,2.537 11.311,2.599 10.820 C 2.876 8.633,3.760 6.780,5.257 5.246 C 6.140 4.341,7.045 3.704,8.160 3.202 C 8.871 2.882,9.945 2.560,10.302 2.560 C 10.539 2.560,10.858 2.733,10.993 2.934 C 11.219 3.274,11.217 3.256,11.232 4.530 L 11.246 5.720 12.003 5.720 L 12.760 5.720 12.760 4.526 C 12.760 3.468,12.751 3.297,12.681 3.016 C 12.557 2.525,12.312 2.078,11.982 1.740 C 11.516 1.264,11.037 1.043,10.420 1.019 C 10.222 1.012,10.015 1.014,9.960 1.025 M10.800 5.854 C 9.729 6.236,8.789 7.171,8.284 8.356 C 8.170 8.624,8.000 9.173,8.000 9.273 C 8.000 9.308,8.397 9.320,9.620 9.320 L 11.240 9.320 11.240 7.540 L 11.240 5.760 11.150 5.761 C 11.101 5.761,10.943 5.803,10.800 5.854 M12.760 7.535 L 12.760 9.320 14.380 9.320 C 15.652 9.320,16.000 9.309,16.000 9.270 C 16.000 9.242,15.966 9.103,15.926 8.960 C 15.608 7.852,14.918 6.874,14.038 6.283 C 13.669 6.036,13.193 5.819,12.926 5.776 L 12.760 5.750 12.760 7.535 M7.920 12.475 C 7.920 14.560,7.939 14.774,8.173 15.400 C 8.685 16.760,9.808 17.729,11.208 18.017 C 11.611 18.099,12.389 18.099,12.792 18.017 C 14.192 17.729,15.315 16.760,15.827 15.400 C 16.061 14.774,16.080 14.560,16.080 12.475 L 16.080 10.600 12.000 10.600 L 7.920 10.600 7.920 12.475 " fill="#1C274C" stroke="none" fill-rule="evenodd"></path></svg>