<svg width="24" height="24" viewBox="0 0 24 24" fill="none" xmlns="http://www.w3.org/2000/svg"><path d="M10.840 2.059 C 7.998 2.538,5.725 4.736,5.145 7.566 C 5.111 7.728,5.065 8.013,5.042 8.199 C 4.985 8.658,4.985 15.300,5.042 15.761 C 5.149 16.622,5.352 17.313,5.718 18.060 C 7.184 21.053,10.500 22.596,13.718 21.783 C 16.182 21.160,18.165 19.182,18.773 16.740 C 18.985 15.890,18.980 16.001,18.980 11.960 C 18.980 8.523,18.974 8.147,18.910 7.817 C 18.616 6.293,17.983 5.065,16.960 4.038 C 15.860 2.932,14.495 2.250,12.930 2.024 L 12.760 1.999 12.760 3.696 L 12.760 5.392 12.932 5.493 C 13.325 5.724,13.645 6.220,13.723 6.721 C 13.793 7.173,13.752 9.244,13.667 9.503 C 13.561 9.830,13.311 10.177,13.038 10.379 C 12.078 11.085,10.703 10.640,10.333 9.503 C 10.248 9.244,10.207 7.173,10.277 6.721 C 10.355 6.220,10.675 5.724,11.068 5.493 L 11.240 5.392 11.240 3.696 C 11.240 2.364,11.229 2.001,11.190 2.004 C 11.162 2.006,11.005 2.031,10.840 2.059 " fill="#1C274C" stroke="none" fill-rule="evenodd"></path></svg>