<svg width="24" height="24" viewBox="0 0 24 24" fill="none" xmlns="http://www.w3.org/2000/svg"><path d="M15.220 3.835 C 15.132 3.876,15.029 3.943,14.992 3.986 C 14.889 4.101,14.800 4.339,14.800 4.498 C 14.800 4.839,14.783 4.821,17.633 7.469 C 19.122 8.852,20.424 10.081,20.526 10.202 C 20.762 10.478,21.007 10.934,21.127 11.320 C 21.208 11.580,21.220 11.700,21.218 12.220 C 21.216 12.762,21.205 12.851,21.108 13.140 C 20.962 13.575,20.725 13.987,20.450 14.284 C 20.324 14.420,19.032 15.543,17.580 16.780 C 15.611 18.457,14.922 19.065,14.870 19.175 C 14.784 19.357,14.780 19.595,14.862 19.790 C 14.944 19.988,15.030 20.077,15.220 20.165 C 15.438 20.265,15.672 20.259,15.873 20.150 C 16.117 20.018,21.201 15.675,21.535 15.314 C 23.130 13.590,23.137 10.833,21.551 9.102 C 21.131 8.644,16.056 3.949,15.874 3.850 C 15.672 3.741,15.438 3.735,15.220 3.835 M11.401 4.630 C 11.235 4.660,11.085 4.794,11.042 4.952 C 11.016 5.043,11.000 5.766,11.000 6.827 L 11.000 8.554 10.790 8.576 C 10.675 8.587,10.413 8.607,10.208 8.620 C 9.455 8.667,8.531 8.880,7.760 9.186 C 5.164 10.213,3.387 12.349,2.542 15.456 C 2.316 16.287,2.014 18.066,2.058 18.304 C 2.086 18.453,2.222 18.589,2.393 18.638 C 2.568 18.688,2.841 18.544,3.520 18.043 C 4.614 17.235,5.219 16.864,6.029 16.502 C 7.433 15.875,8.911 15.524,10.450 15.453 L 11.000 15.428 11.000 17.164 C 11.000 18.231,11.016 18.957,11.042 19.048 C 11.129 19.361,11.491 19.471,11.784 19.274 C 12.044 19.099,17.914 13.867,18.309 13.457 C 18.733 13.017,18.894 12.732,18.965 12.290 C 19.001 12.069,19.001 11.931,18.965 11.710 C 18.894 11.268,18.733 10.983,18.309 10.543 C 17.930 10.150,12.056 4.916,11.802 4.744 C 11.637 4.633,11.539 4.605,11.401 4.630 " fill="#1C274C" stroke="none" fill-rule="evenodd"></path></svg>