<svg width="24" height="24" viewBox="0 0 24 24" fill="none" xmlns="http://www.w3.org/2000/svg"><path d="M8.928 3.850 C 8.668 3.992,3.364 8.944,3.057 9.332 C 2.724 9.751,2.354 10.491,2.212 11.020 C 2.112 11.390,2.104 11.479,2.104 12.200 C 2.104 12.919,2.112 13.011,2.210 13.371 C 2.399 14.069,2.792 14.793,3.263 15.313 C 3.543 15.622,8.699 20.024,8.929 20.150 C 9.245 20.324,9.640 20.233,9.868 19.933 C 9.966 19.804,9.980 19.752,9.980 19.503 C 9.980 19.290,9.961 19.192,9.903 19.106 C 9.861 19.044,8.637 17.979,7.183 16.741 C 5.729 15.502,4.474 14.420,4.394 14.335 C 3.502 13.390,3.307 11.921,3.916 10.728 C 4.119 10.330,4.461 9.988,7.113 7.524 C 8.876 5.886,9.893 4.914,9.935 4.826 C 10.063 4.556,9.987 4.145,9.773 3.952 C 9.552 3.752,9.187 3.708,8.928 3.850 M13.212 4.638 C 13.164 4.650,13.047 4.716,12.952 4.784 C 12.783 4.906,7.609 9.493,6.811 10.229 C 6.067 10.915,5.823 11.352,5.823 12.000 C 5.823 12.653,6.064 13.081,6.829 13.788 C 7.418 14.331,12.605 18.938,12.887 19.168 C 13.166 19.395,13.307 19.432,13.510 19.333 C 13.802 19.191,13.800 19.204,13.800 17.204 L 13.800 15.428 14.350 15.453 C 15.987 15.527,17.566 15.921,19.020 16.617 C 19.710 16.947,20.147 17.218,21.065 17.884 C 21.998 18.561,22.227 18.690,22.406 18.638 C 22.582 18.588,22.714 18.452,22.744 18.291 C 22.799 17.999,22.471 16.188,22.185 15.200 C 21.281 12.084,19.356 9.945,16.636 9.036 C 15.862 8.777,15.320 8.680,14.050 8.574 L 13.800 8.554 13.800 6.796 C 13.800 4.908,13.794 4.843,13.595 4.714 C 13.478 4.638,13.329 4.608,13.212 4.638 " fill="#1C274C" stroke="none" fill-rule="evenodd"></path></svg>