<svg width="24" height="24" viewBox="0 0 24 24" fill="none" xmlns="http://www.w3.org/2000/svg"><path d="M17.053 3.039 C 16.962 3.059,16.746 3.131,16.573 3.200 C 16.210 3.345,12.757 5.109,12.460 5.301 C 12.024 5.583,11.643 6.084,11.451 6.627 L 11.340 6.940 11.320 10.607 L 11.300 14.274 11.160 14.156 C 10.248 13.382,9.125 13.021,7.949 13.123 C 5.459 13.339,3.649 15.731,4.059 18.261 C 4.214 19.217,4.637 20.047,5.315 20.725 C 6.501 21.911,8.183 22.303,9.745 21.757 C 11.002 21.318,12.011 20.292,12.436 19.020 C 12.679 18.291,12.680 18.280,12.680 14.570 C 12.680 11.368,12.684 11.193,12.750 11.220 C 13.216 11.413,13.695 11.502,14.035 11.461 C 14.454 11.410,14.856 11.237,16.500 10.400 C 18.573 9.345,18.866 9.184,19.135 8.950 C 19.429 8.696,19.732 8.232,19.869 7.829 L 19.980 7.500 19.980 6.340 C 19.980 5.044,19.966 4.937,19.719 4.420 C 19.329 3.600,18.499 3.055,17.582 3.018 C 17.383 3.010,17.145 3.019,17.053 3.039 " fill="#1C274C" stroke="none" fill-rule="evenodd"></path></svg>