<svg width="24" height="24" viewBox="0 0 24 24" fill="none" xmlns="http://www.w3.org/2000/svg"><path d="M9.960 2.025 C 8.912 2.080,8.302 2.202,7.826 2.450 C 7.090 2.832,6.706 3.471,6.539 4.588 C 6.428 5.336,6.402 6.711,6.403 12.040 C 6.403 18.440,6.433 19.285,6.686 20.112 C 6.964 21.022,7.558 21.580,8.480 21.797 C 9.196 21.966,9.473 21.980,12.000 21.980 C 14.527 21.980,14.804 21.966,15.520 21.797 C 16.442 21.580,17.036 21.022,17.314 20.112 C 17.566 19.289,17.598 18.372,17.598 12.000 C 17.598 6.743,17.572 5.340,17.460 4.585 C 17.219 2.961,16.502 2.285,14.800 2.078 C 14.443 2.034,10.576 1.992,9.960 2.025 M4.320 3.862 C 3.345 4.072,2.452 4.955,2.164 5.995 C 2.004 6.571,1.994 7.021,2.011 12.340 C 2.028 17.712,2.024 17.601,2.221 18.186 C 2.422 18.786,2.922 19.430,3.458 19.780 C 3.880 20.055,4.661 20.264,4.975 20.185 C 5.153 20.140,5.212 19.964,5.162 19.627 C 5.054 18.893,5.040 18.011,5.040 12.000 C 5.040 5.989,5.054 5.107,5.162 4.373 C 5.208 4.064,5.159 3.879,5.018 3.825 C 4.915 3.785,4.601 3.802,4.320 3.862 M18.969 3.827 C 18.941 3.838,18.891 3.901,18.857 3.966 C 18.806 4.065,18.802 4.133,18.838 4.373 C 18.946 5.107,18.960 5.989,18.960 12.000 C 18.960 18.011,18.946 18.893,18.838 19.627 C 18.788 19.964,18.847 20.140,19.025 20.185 C 19.340 20.264,20.123 20.054,20.542 19.778 C 21.086 19.420,21.577 18.788,21.779 18.186 C 21.976 17.601,21.972 17.712,21.989 12.340 C 22.006 7.021,21.996 6.571,21.836 5.995 C 21.605 5.162,21.023 4.454,20.260 4.077 C 19.827 3.863,19.188 3.739,18.969 3.827 M15.526 6.959 C 16.201 7.169,16.637 7.711,16.721 8.447 C 16.841 9.492,16.692 10.154,16.230 10.615 C 16.046 10.799,15.861 10.907,14.895 11.392 C 13.624 12.030,13.392 12.120,13.025 12.120 L 12.767 12.120 12.749 13.770 C 12.730 15.597,12.720 15.679,12.462 16.202 C 12.103 16.928,11.468 17.449,10.680 17.665 C 10.330 17.760,9.671 17.761,9.320 17.665 C 8.342 17.399,7.562 16.608,7.335 15.650 C 7.253 15.304,7.253 14.696,7.335 14.350 C 7.517 13.581,8.065 12.900,8.789 12.543 C 9.116 12.381,9.290 12.332,9.720 12.278 C 10.178 12.220,10.617 12.288,11.170 12.502 C 11.236 12.527,11.240 12.443,11.241 11.074 C 11.241 10.274,11.258 9.506,11.278 9.368 C 11.330 9.009,11.516 8.639,11.773 8.382 C 11.961 8.193,12.137 8.092,13.157 7.583 C 13.800 7.263,14.410 6.975,14.513 6.943 C 14.787 6.859,15.225 6.866,15.526 6.959 M13.872 8.910 L 12.780 9.460 12.769 9.969 C 12.758 10.442,12.764 10.484,12.842 10.562 C 12.904 10.624,12.955 10.640,13.029 10.621 C 13.085 10.607,13.601 10.358,14.176 10.068 L 15.220 9.540 15.231 9.031 C 15.241 8.565,15.236 8.516,15.161 8.441 C 15.117 8.397,15.054 8.360,15.022 8.360 C 14.989 8.360,14.472 8.607,13.872 8.910 M9.591 13.819 C 9.076 14.014,8.760 14.466,8.760 15.004 C 8.760 16.104,10.099 16.657,10.878 15.878 C 11.481 15.275,11.308 14.255,10.539 13.879 C 10.296 13.760,9.824 13.730,9.591 13.819 " fill="#1C274C" stroke="none" fill-rule="evenodd"></path></svg>