<svg width="24" height="24" viewBox="0 0 24 24" fill="none" xmlns="http://www.w3.org/2000/svg"><path d="M9.697 2.043 C 8.221 2.133,7.490 2.447,7.002 3.202 C 6.713 3.648,6.561 4.226,6.483 5.172 C 6.424 5.875,6.424 18.125,6.483 18.828 C 6.561 19.774,6.713 20.352,7.002 20.798 C 7.506 21.578,8.205 21.866,9.824 21.960 C 10.696 22.010,13.304 22.010,14.176 21.960 C 15.697 21.871,16.392 21.615,16.884 20.960 C 17.252 20.471,17.436 19.845,17.518 18.802 C 17.576 18.066,17.576 5.934,17.518 5.198 C 17.381 3.458,16.908 2.668,15.767 2.275 C 15.434 2.161,14.927 2.085,14.200 2.041 C 13.441 1.995,10.473 1.996,9.697 2.043 M4.320 3.864 C 3.761 3.983,3.084 4.422,2.727 4.894 C 2.289 5.476,2.110 5.982,2.041 6.829 C 1.986 7.502,1.986 16.498,2.041 17.171 C 2.092 17.805,2.196 18.211,2.404 18.596 C 2.850 19.424,3.567 19.986,4.375 20.140 C 5.049 20.269,5.233 20.166,5.160 19.699 C 5.032 18.891,5.020 18.237,5.020 12.000 C 5.020 5.763,5.032 5.109,5.160 4.301 C 5.194 4.085,5.157 3.937,5.048 3.855 C 4.961 3.788,4.654 3.792,4.320 3.864 M18.952 3.855 C 18.822 3.953,18.805 4.084,18.865 4.522 C 18.961 5.228,18.997 7.305,18.997 12.000 C 18.997 16.636,18.960 18.749,18.866 19.480 C 18.774 20.194,18.876 20.284,19.625 20.140 C 20.637 19.947,21.569 19.038,21.839 17.983 C 21.984 17.418,22.000 16.813,22.000 12.000 C 22.000 7.187,21.984 6.582,21.839 6.017 C 21.629 5.195,20.991 4.422,20.220 4.055 C 19.765 3.839,19.109 3.735,18.952 3.855 M13.271 7.302 C 13.584 7.433,13.715 7.637,13.764 8.073 C 13.803 8.419,13.916 8.676,14.120 8.880 C 14.324 9.084,14.581 9.197,14.927 9.236 C 15.363 9.285,15.567 9.416,15.698 9.729 C 15.779 9.924,15.775 10.103,15.684 10.300 C 15.554 10.583,15.277 10.760,14.965 10.760 C 14.740 10.760,14.258 10.662,14.000 10.564 C 13.879 10.518,13.777 10.480,13.772 10.480 C 13.768 10.480,13.759 11.385,13.752 12.490 L 13.738 14.500 13.633 14.811 C 13.339 15.679,12.671 16.346,11.811 16.631 C 11.544 16.719,11.430 16.733,11.000 16.733 C 10.567 16.733,10.457 16.719,10.180 16.628 C 9.740 16.482,9.399 16.271,9.064 15.936 C 8.729 15.601,8.518 15.260,8.372 14.820 C 8.281 14.543,8.267 14.433,8.267 14.000 C 8.267 13.567,8.281 13.457,8.372 13.180 C 8.518 12.740,8.729 12.399,9.064 12.064 C 9.399 11.729,9.740 11.518,10.180 11.372 C 10.457 11.281,10.567 11.267,11.000 11.267 C 11.489 11.267,11.729 11.314,12.170 11.499 C 12.236 11.527,12.240 11.426,12.240 9.703 C 12.240 8.146,12.249 7.856,12.302 7.729 C 12.384 7.532,12.506 7.405,12.700 7.316 C 12.897 7.225,13.076 7.221,13.271 7.302 M10.591 12.819 C 10.076 13.014,9.760 13.466,9.760 14.004 C 9.760 15.104,11.099 15.657,11.878 14.878 C 12.481 14.275,12.308 13.255,11.539 12.879 C 11.296 12.760,10.824 12.730,10.591 12.819 " fill="#1C274C" stroke="none" fill-rule="evenodd"></path></svg>