<svg width="24" height="24" viewBox="0 0 24 24" fill="none" xmlns="http://www.w3.org/2000/svg"><path d="M8.083 2.062 C 7.521 2.184,6.909 2.571,6.573 3.017 C 6.414 3.229,6.200 3.597,6.200 3.659 C 6.200 3.670,8.810 3.680,12.000 3.680 C 15.190 3.680,17.800 3.669,17.800 3.656 C 17.800 3.584,17.532 3.145,17.368 2.948 C 17.002 2.509,16.454 2.178,15.894 2.059 C 15.497 1.975,8.472 1.978,8.083 2.062 M6.380 4.779 C 5.437 4.952,4.620 5.653,4.297 6.567 C 4.268 6.651,4.257 6.720,4.273 6.720 C 4.289 6.720,4.476 6.676,4.690 6.622 C 4.903 6.567,5.335 6.491,5.649 6.452 C 6.174 6.386,6.689 6.380,12.080 6.380 C 17.471 6.380,17.986 6.386,18.511 6.452 C 18.825 6.491,19.256 6.567,19.468 6.621 C 19.681 6.675,19.862 6.711,19.871 6.702 C 19.913 6.660,19.737 6.255,19.562 5.990 C 19.124 5.328,18.506 4.912,17.760 4.777 C 17.332 4.700,6.803 4.701,6.380 4.779 M6.360 7.585 C 4.931 7.691,4.285 7.890,3.756 8.389 C 3.431 8.696,3.200 9.116,3.091 9.600 C 2.991 10.042,3.004 11.277,3.117 12.240 C 3.268 13.523,3.878 18.115,3.978 18.722 C 4.247 20.345,4.560 21.005,5.292 21.483 C 5.724 21.765,6.261 21.893,7.284 21.958 C 8.152 22.013,15.848 22.013,16.716 21.958 C 17.739 21.893,18.276 21.765,18.708 21.483 C 19.440 21.005,19.753 20.345,20.022 18.722 C 20.122 18.115,20.732 13.523,20.883 12.240 C 20.996 11.277,21.009 10.042,20.909 9.600 C 20.700 8.673,20.104 8.062,19.153 7.801 C 18.358 7.583,18.444 7.586,12.260 7.579 C 9.114 7.575,6.459 7.578,6.360 7.585 M12.267 9.803 C 12.534 9.903,12.758 10.241,12.759 10.546 C 12.764 11.451,13.906 12.599,14.942 12.740 C 15.051 12.754,15.195 12.783,15.263 12.804 C 15.503 12.877,15.761 13.245,15.759 13.509 C 15.757 13.798,15.452 14.172,15.176 14.223 C 14.989 14.258,14.513 14.217,14.280 14.145 C 13.829 14.006,13.288 13.732,12.954 13.473 C 12.874 13.411,12.798 13.360,12.786 13.360 C 12.774 13.360,12.758 14.273,12.751 15.390 C 12.739 17.361,12.736 17.428,12.650 17.683 C 12.409 18.399,11.778 18.991,11.058 19.179 C 10.757 19.257,10.243 19.257,9.942 19.179 C 9.210 18.988,8.574 18.383,8.349 17.662 C 8.228 17.273,8.228 16.727,8.349 16.338 C 8.574 15.617,9.210 15.012,9.942 14.821 C 10.233 14.745,10.754 14.742,11.031 14.814 L 11.240 14.868 11.241 12.624 C 11.242 10.521,11.246 10.370,11.316 10.216 C 11.487 9.839,11.895 9.662,12.267 9.803 M10.420 16.260 C 10.398 16.267,10.331 16.284,10.271 16.297 C 10.211 16.310,10.095 16.379,10.015 16.450 C 9.495 16.906,9.811 17.731,10.506 17.731 C 10.752 17.731,10.919 17.645,11.096 17.426 C 11.208 17.288,11.220 17.245,11.220 17.000 C 11.220 16.755,11.208 16.712,11.096 16.574 C 11.027 16.489,10.919 16.391,10.856 16.355 C 10.739 16.288,10.494 16.235,10.420 16.260 " fill="#1C274C" stroke="none" fill-rule="evenodd"></path></svg>