<svg width="24" height="24" viewBox="0 0 24 24" fill="none" xmlns="http://www.w3.org/2000/svg"><path d="M12.811 1.278 C 12.639 1.320,12.417 1.493,12.330 1.652 C 12.264 1.772,12.259 2.172,12.250 8.150 L 12.239 14.520 12.025 14.346 C 11.673 14.059,11.457 13.923,11.027 13.718 C 9.710 13.089,8.227 13.104,6.900 13.759 C 6.315 14.048,5.995 14.286,5.533 14.777 C 4.248 16.142,3.899 18.066,4.618 19.829 C 4.855 20.410,5.129 20.807,5.661 21.339 C 6.193 21.871,6.590 22.145,7.171 22.382 C 8.618 22.972,10.192 22.845,11.515 22.031 C 11.985 21.742,12.742 20.985,13.031 20.515 C 13.394 19.924,13.632 19.246,13.719 18.548 C 13.745 18.339,13.760 16.078,13.760 12.255 L 13.760 6.287 14.250 6.776 C 15.361 7.883,16.748 8.544,18.328 8.717 C 19.057 8.797,19.289 8.760,19.525 8.524 C 19.866 8.183,19.810 7.647,19.405 7.378 C 19.264 7.285,19.188 7.270,18.713 7.237 C 16.780 7.106,15.174 6.051,14.316 4.350 C 13.974 3.672,13.823 3.101,13.765 2.263 C 13.725 1.696,13.674 1.568,13.418 1.393 C 13.243 1.274,13.009 1.230,12.811 1.278 " fill="#1C274C" stroke="none" fill-rule="evenodd"></path></svg>