<svg width="24" height="24" viewBox="0 0 24 24" fill="none" xmlns="http://www.w3.org/2000/svg"><path d="M13.500 2.536 C 12.930 2.647,12.446 2.908,12.040 3.322 C 11.584 3.787,11.352 4.290,11.281 4.966 C 11.257 5.188,11.241 7.200,11.241 9.930 L 11.240 14.521 11.025 14.346 C 10.673 14.059,10.457 13.923,10.027 13.718 C 8.710 13.089,7.227 13.104,5.900 13.759 C 5.315 14.048,4.995 14.286,4.533 14.777 C 3.060 16.341,2.831 18.666,3.969 20.515 C 4.258 20.985,5.015 21.742,5.485 22.031 C 7.039 22.987,8.961 22.987,10.515 22.031 C 10.985 21.742,11.742 20.985,12.031 20.515 C 12.394 19.924,12.632 19.246,12.719 18.548 C 12.745 18.343,12.760 16.550,12.760 13.731 C 12.760 11.261,12.768 9.240,12.778 9.240 C 12.788 9.240,13.716 9.699,14.840 10.259 C 15.965 10.819,17.032 11.327,17.212 11.387 C 17.499 11.483,17.600 11.496,18.020 11.494 C 18.426 11.492,18.549 11.476,18.820 11.387 C 19.262 11.242,19.606 11.030,19.938 10.697 C 20.627 10.006,20.787 9.405,20.749 7.660 C 20.727 6.687,20.695 6.505,20.457 6.019 C 20.278 5.653,19.987 5.297,19.672 5.060 C 19.356 4.822,15.277 2.781,14.810 2.628 C 14.403 2.494,13.899 2.459,13.500 2.536 " fill="#1C274C" stroke="none" fill-rule="evenodd"></path></svg>