<svg width="24" height="24" viewBox="0 0 24 24" fill="none" xmlns="http://www.w3.org/2000/svg"><path d="M17.693 2.042 C 17.322 2.091,16.666 2.257,16.030 2.464 C 15.114 2.762,10.702 4.428,10.207 4.663 C 9.241 5.121,8.783 5.606,8.583 6.386 C 8.460 6.865,8.441 7.585,8.441 11.847 L 8.440 16.115 8.150 15.981 C 7.621 15.736,7.260 15.664,6.560 15.662 C 6.077 15.660,5.874 15.677,5.640 15.736 C 3.105 16.380,2.160 19.102,3.855 20.873 C 4.496 21.542,5.363 21.934,6.323 21.988 C 8.070 22.085,9.606 21.047,9.999 19.504 C 10.077 19.198,10.080 19.065,10.080 15.578 L 10.080 11.968 10.190 11.929 C 10.491 11.821,19.267 8.667,19.310 8.650 C 19.350 8.635,19.360 9.200,19.360 11.391 L 19.360 14.151 19.046 14.016 C 18.455 13.760,18.177 13.706,17.440 13.706 C 16.667 13.706,16.373 13.769,15.778 14.058 C 15.071 14.402,14.540 14.920,14.218 15.580 C 13.998 16.033,13.921 16.357,13.921 16.844 C 13.918 18.695,15.625 20.142,17.677 20.028 C 18.192 19.999,18.630 19.889,19.077 19.677 C 19.872 19.300,20.484 18.681,20.777 17.959 C 21.013 17.378,21.005 17.655,20.989 11.059 C 20.973 4.738,20.975 4.802,20.794 4.025 C 20.457 2.580,19.290 1.834,17.693 2.042 " fill="#1C274C" stroke="none" fill-rule="evenodd"></path></svg>