<svg width="24" height="24" viewBox="0 0 24 24" fill="none" xmlns="http://www.w3.org/2000/svg"><path d="M6.807 1.289 C 6.558 1.342,6.342 1.570,6.284 1.838 C 6.254 1.977,6.240 2.964,6.240 4.894 L 6.240 7.745 5.930 7.592 C 5.459 7.360,5.070 7.273,4.500 7.272 C 3.960 7.272,3.567 7.354,3.124 7.561 C 2.459 7.873,1.872 8.461,1.558 9.131 C 1.166 9.970,1.167 11.033,1.561 11.876 C 1.873 12.541,2.461 13.128,3.131 13.442 C 3.967 13.833,5.033 13.833,5.869 13.442 C 6.740 13.034,7.378 12.266,7.648 11.300 C 7.736 10.984,7.737 10.942,7.751 7.990 L 7.764 4.999 7.945 5.124 C 8.543 5.535,9.641 5.825,10.174 5.712 C 10.724 5.597,10.924 4.884,10.520 4.480 C 10.365 4.325,10.120 4.240,9.826 4.240 C 9.610 4.240,9.245 4.127,8.922 3.959 C 8.307 3.639,7.893 3.078,7.799 2.439 C 7.694 1.724,7.681 1.669,7.584 1.542 C 7.415 1.321,7.115 1.223,6.807 1.289 M19.431 2.439 C 18.723 2.588,17.983 2.868,15.153 4.054 C 12.634 5.109,12.403 5.230,11.931 5.734 C 11.526 6.167,11.354 6.620,11.281 7.443 C 11.257 7.717,11.241 9.670,11.240 12.322 L 11.240 16.745 10.930 16.592 C 10.459 16.360,10.070 16.273,9.500 16.272 C 8.542 16.271,7.784 16.601,7.113 17.312 C 6.481 17.982,6.154 18.981,6.273 19.875 C 6.374 20.637,6.672 21.239,7.216 21.784 C 8.353 22.920,10.016 23.071,11.360 22.160 C 11.819 21.848,12.287 21.262,12.503 20.729 C 12.751 20.113,12.737 20.373,12.751 16.260 L 12.763 12.500 16.965 10.820 C 19.276 9.896,21.183 9.134,21.203 9.127 C 21.225 9.119,21.240 10.231,21.240 11.929 L 21.240 14.745 20.930 14.592 C 20.459 14.360,20.070 14.273,19.500 14.272 C 18.542 14.271,17.784 14.601,17.113 15.312 C 16.481 15.982,16.154 16.981,16.273 17.875 C 16.374 18.637,16.672 19.239,17.216 19.784 C 18.353 20.920,20.016 21.071,21.360 20.160 C 21.819 19.848,22.287 19.262,22.503 18.729 C 22.757 18.100,22.738 18.583,22.752 12.360 C 22.768 5.518,22.745 4.898,22.453 4.001 C 22.314 3.577,22.146 3.301,21.842 2.999 C 21.551 2.709,21.225 2.519,20.854 2.423 C 20.524 2.338,19.876 2.345,19.431 2.439 " fill="#1C274C" stroke="none" fill-rule="evenodd"></path></svg>