<svg width="24" height="24" viewBox="0 0 24 24" fill="none" xmlns="http://www.w3.org/2000/svg"><path d="M8.083 2.062 C 7.521 2.184,6.909 2.571,6.573 3.017 C 6.414 3.229,6.200 3.597,6.200 3.659 C 6.200 3.670,8.810 3.680,12.000 3.680 C 15.190 3.680,17.800 3.669,17.800 3.656 C 17.800 3.584,17.532 3.145,17.368 2.948 C 17.002 2.509,16.454 2.178,15.894 2.059 C 15.497 1.975,8.472 1.978,8.083 2.062 M6.380 4.779 C 5.437 4.952,4.620 5.653,4.297 6.567 C 4.268 6.651,4.257 6.720,4.273 6.720 C 4.289 6.720,4.476 6.676,4.690 6.622 C 4.903 6.567,5.335 6.491,5.649 6.452 C 6.174 6.386,6.689 6.380,12.080 6.380 C 17.471 6.380,17.986 6.386,18.511 6.452 C 18.825 6.491,19.256 6.567,19.468 6.621 C 19.681 6.675,19.862 6.711,19.871 6.702 C 19.913 6.660,19.737 6.255,19.562 5.990 C 19.124 5.328,18.506 4.912,17.760 4.777 C 17.332 4.700,6.803 4.701,6.380 4.779 M6.360 7.585 C 4.931 7.691,4.285 7.890,3.756 8.389 C 3.431 8.696,3.200 9.116,3.091 9.600 C 2.991 10.042,3.004 11.277,3.117 12.240 C 3.268 13.523,3.878 18.115,3.978 18.722 C 4.247 20.345,4.560 21.005,5.292 21.483 C 5.724 21.765,6.261 21.893,7.284 21.958 C 8.152 22.013,15.848 22.013,16.716 21.958 C 17.739 21.893,18.276 21.765,18.708 21.483 C 19.440 21.005,19.753 20.345,20.022 18.722 C 20.122 18.115,20.732 13.523,20.883 12.240 C 20.996 11.277,21.009 10.042,20.909 9.600 C 20.700 8.673,20.104 8.062,19.153 7.801 C 18.358 7.583,18.444 7.586,12.260 7.579 C 9.114 7.575,6.459 7.578,6.360 7.585 M14.223 10.047 C 14.571 10.117,16.122 10.897,16.388 11.137 C 16.838 11.541,17.023 12.000,16.991 12.634 C 16.975 12.955,16.951 13.066,16.848 13.291 C 16.468 14.122,15.487 14.575,14.578 14.338 C 14.447 14.304,14.081 14.151,13.765 13.998 C 13.448 13.845,13.184 13.720,13.177 13.720 C 13.170 13.720,13.159 14.678,13.151 15.850 C 13.137 17.767,13.129 18.002,13.064 18.200 C 12.686 19.356,11.625 20.070,10.402 19.988 C 9.725 19.943,9.184 19.703,8.718 19.240 C 7.958 18.485,7.789 17.470,8.269 16.544 C 8.455 16.186,8.886 15.745,9.240 15.550 C 9.973 15.147,10.918 15.094,11.623 15.416 L 11.840 15.516 11.840 13.623 C 11.840 12.503,11.857 11.643,11.881 11.516 C 12.076 10.485,13.125 9.827,14.223 10.047 M13.491 11.284 C 13.253 11.401,13.160 11.569,13.160 11.880 C 13.160 12.303,13.201 12.342,14.135 12.807 C 14.905 13.190,14.949 13.207,15.137 13.185 C 15.720 13.117,15.938 12.342,15.474 11.988 C 15.263 11.827,13.915 11.200,13.780 11.200 C 13.714 11.200,13.584 11.238,13.491 11.284 M10.172 16.470 C 9.560 16.676,9.190 17.256,9.315 17.815 C 9.491 18.600,10.381 19.013,11.143 18.664 C 11.897 18.319,12.078 17.360,11.498 16.781 C 11.176 16.459,10.604 16.324,10.172 16.470 " fill="#1C274C" stroke="none" fill-rule="evenodd"></path></svg>