<svg width="24" height="24" viewBox="0 0 24 24" fill="none" xmlns="http://www.w3.org/2000/svg"><path d="M14.020 4.077 C 13.321 4.255,12.554 4.673,10.650 5.912 C 9.450 6.694,9.220 6.828,8.872 6.946 C 8.494 7.074,7.889 7.117,6.417 7.119 C 4.406 7.121,3.763 7.252,3.095 7.796 C 2.597 8.202,2.278 8.763,2.144 9.473 C 2.039 10.024,1.988 11.237,2.014 12.540 C 2.047 14.200,2.124 14.762,2.396 15.332 C 2.649 15.859,3.233 16.405,3.755 16.603 C 4.356 16.831,5.323 16.918,7.252 16.919 C 8.851 16.920,8.855 16.922,10.586 18.048 C 12.870 19.534,13.657 19.934,14.402 19.988 C 15.112 20.040,15.824 19.626,16.156 18.968 C 16.524 18.239,16.653 17.071,16.801 13.130 C 16.867 11.341,16.700 7.532,16.498 6.240 C 16.329 5.163,16.000 4.563,15.406 4.246 C 14.942 3.999,14.526 3.948,14.020 4.077 M17.950 9.403 C 17.662 9.555,17.512 9.915,17.601 10.244 C 17.642 10.395,17.760 10.533,18.432 11.210 L 19.216 12.000 18.432 12.790 C 17.760 13.467,17.642 13.605,17.601 13.756 C 17.475 14.226,17.816 14.680,18.296 14.680 C 18.394 14.680,18.522 14.662,18.580 14.640 C 18.638 14.618,19.047 14.247,19.489 13.817 L 20.293 13.034 21.056 13.793 C 21.476 14.210,21.878 14.581,21.948 14.616 C 22.203 14.743,22.617 14.665,22.808 14.453 C 22.906 14.345,23.000 14.103,23.000 13.960 C 23.000 13.702,22.883 13.546,22.109 12.770 L 21.341 12.000 22.109 11.230 C 22.883 10.454,23.000 10.298,23.000 10.040 C 23.000 9.897,22.906 9.655,22.808 9.547 C 22.617 9.335,22.203 9.257,21.948 9.384 C 21.878 9.419,21.476 9.790,21.056 10.208 L 20.291 10.968 19.489 10.184 C 19.048 9.753,18.640 9.383,18.581 9.360 C 18.412 9.296,18.114 9.316,17.950 9.403 " fill="#1C274C" stroke="none" fill-rule="evenodd"></path></svg>