<svg width="24" height="24" viewBox="0 0 24 24" fill="none" xmlns="http://www.w3.org/2000/svg"><path d="M19.752 5.526 L 19.740 8.020 19.646 8.210 C 19.517 8.472,19.281 8.665,19.014 8.725 C 18.722 8.790,18.506 8.726,17.666 8.324 L 17.000 8.005 16.334 8.324 C 15.492 8.727,15.279 8.790,14.984 8.724 C 14.717 8.665,14.443 8.439,14.335 8.191 C 14.268 8.035,14.260 7.867,14.248 6.256 L 14.235 4.493 13.767 4.747 C 13.510 4.886,13.178 5.040,13.030 5.088 L 12.760 5.176 12.760 12.786 L 12.760 20.396 12.970 20.336 C 13.085 20.303,13.657 20.044,14.240 19.761 C 15.363 19.216,15.746 19.049,16.384 18.828 C 17.186 18.550,18.114 18.381,19.500 18.262 C 19.896 18.228,20.313 18.175,20.428 18.144 C 21.156 17.949,21.749 17.349,21.940 16.612 C 22.032 16.262,22.030 4.812,21.939 4.462 C 21.793 3.904,21.435 3.461,20.926 3.209 C 20.646 3.071,20.597 3.060,20.195 3.046 L 19.764 3.031 19.752 5.526 M3.420 3.136 C 2.825 3.284,2.369 3.705,2.116 4.340 L 2.020 4.580 2.009 10.450 C 1.997 16.933,1.985 16.591,2.250 17.096 C 2.495 17.565,3.023 17.983,3.560 18.135 C 3.681 18.169,4.014 18.216,4.300 18.239 C 6.079 18.381,7.054 18.582,8.220 19.048 C 8.440 19.136,9.115 19.448,9.720 19.742 C 10.325 20.035,10.915 20.302,11.030 20.336 L 11.240 20.396 11.240 12.807 L 11.240 5.218 10.959 5.145 C 10.804 5.105,10.380 4.923,10.016 4.740 C 7.820 3.634,6.848 3.338,4.763 3.142 C 3.993 3.070,3.695 3.068,3.420 3.136 M17.754 3.222 C 17.209 3.307,16.573 3.461,16.160 3.609 L 15.780 3.745 15.770 5.332 C 15.764 6.206,15.766 6.920,15.774 6.920 C 15.782 6.920,16.002 6.817,16.264 6.691 C 16.693 6.485,16.766 6.463,17.000 6.463 C 17.234 6.463,17.307 6.485,17.736 6.691 C 17.998 6.817,18.218 6.920,18.226 6.920 C 18.234 6.920,18.240 6.074,18.240 5.040 C 18.240 3.275,18.236 3.160,18.170 3.164 C 18.132 3.166,17.944 3.192,17.754 3.222 M7.161 8.761 C 8.308 9.047,9.297 9.307,9.358 9.339 C 9.519 9.422,9.671 9.618,9.722 9.806 C 9.805 10.116,9.680 10.443,9.408 10.626 C 9.134 10.811,9.123 10.809,6.837 10.239 C 5.419 9.885,4.675 9.682,4.590 9.624 C 4.205 9.365,4.140 8.834,4.452 8.495 C 4.578 8.358,4.817 8.245,4.988 8.242 C 5.036 8.241,6.014 8.474,7.161 8.761 M7.161 12.761 C 8.308 13.047,9.297 13.307,9.358 13.339 C 9.519 13.422,9.671 13.618,9.722 13.806 C 9.805 14.116,9.680 14.443,9.408 14.626 C 9.134 14.811,9.123 14.809,6.837 14.239 C 5.419 13.885,4.675 13.682,4.590 13.624 C 4.205 13.365,4.140 12.834,4.452 12.495 C 4.578 12.358,4.817 12.245,4.988 12.242 C 5.036 12.241,6.014 12.474,7.161 12.761 M19.405 12.381 C 19.743 12.599,19.844 13.068,19.625 13.400 C 19.566 13.490,19.466 13.594,19.404 13.632 C 19.341 13.669,18.321 13.941,17.135 14.236 C 15.109 14.739,14.970 14.768,14.812 14.725 C 14.466 14.629,14.267 14.362,14.267 13.996 C 14.267 13.739,14.368 13.537,14.567 13.395 C 14.650 13.336,15.350 13.143,16.814 12.775 C 19.108 12.199,19.120 12.197,19.405 12.381 " fill="#1C274C" stroke="none" fill-rule="evenodd"></path></svg>