<svg width="24" height="24" viewBox="0 0 24 24" fill="none" xmlns="http://www.w3.org/2000/svg"><path d="M7.320 1.026 C 6.616 1.049,5.743 1.124,5.300 1.200 C 3.429 1.521,2.501 2.463,2.186 4.360 C 2.027 5.313,2.020 5.613,2.020 11.060 C 2.020 15.872,2.026 16.395,2.091 16.957 C 2.260 18.415,2.547 19.182,3.155 19.800 C 3.790 20.446,4.568 20.743,6.056 20.908 C 6.643 20.974,7.174 20.980,12.020 20.980 C 16.870 20.980,17.395 20.974,17.957 20.909 C 19.433 20.738,20.195 20.449,20.822 19.822 C 21.570 19.074,21.851 18.146,21.962 16.060 C 22.021 14.960,21.990 5.761,21.926 5.180 C 21.770 3.771,21.518 2.992,21.022 2.391 C 20.367 1.597,19.476 1.242,17.720 1.075 C 17.298 1.034,8.338 0.992,7.320 1.026 M17.180 6.155 C 17.479 6.299,17.722 6.548,17.868 6.860 L 17.980 7.100 17.980 10.182 L 17.980 13.264 17.829 13.569 C 17.624 13.984,17.279 14.283,16.861 14.407 C 16.795 14.426,16.430 14.478,16.052 14.522 C 14.952 14.649,14.339 14.836,13.170 15.401 L 12.520 15.715 12.520 11.502 C 12.520 7.891,12.528 7.283,12.577 7.242 C 12.701 7.140,13.959 6.527,14.292 6.407 C 14.906 6.186,15.708 6.055,16.500 6.045 C 16.908 6.040,16.957 6.048,17.180 6.155 M8.600 6.196 C 9.289 6.317,9.906 6.538,10.930 7.030 L 11.480 7.294 11.480 11.504 L 11.480 15.715 10.830 15.401 C 9.690 14.850,9.032 14.645,8.071 14.542 C 7.757 14.508,7.401 14.460,7.280 14.435 C 6.785 14.334,6.401 14.035,6.171 13.569 L 6.020 13.264 6.020 10.202 L 6.020 7.140 6.132 6.900 C 6.277 6.590,6.519 6.341,6.820 6.192 C 7.058 6.075,7.064 6.074,7.600 6.094 C 7.897 6.106,8.347 6.151,8.600 6.196 " fill="#1C274C" stroke="none" fill-rule="evenodd"></path></svg>