<svg width="24" height="24" viewBox="0 0 24 24" fill="none" xmlns="http://www.w3.org/2000/svg"><path d="M7.071 2.042 C 5.647 2.119,4.919 2.350,4.380 2.897 C 3.975 3.308,3.756 3.821,3.611 4.700 C 3.553 5.053,3.544 5.682,3.531 10.048 L 3.516 14.996 5.728 15.009 L 7.940 15.022 8.299 15.133 C 8.806 15.291,9.130 15.473,9.853 16.010 L 10.487 16.480 12.000 16.480 L 13.513 16.480 14.147 16.010 C 14.870 15.473,15.194 15.291,15.701 15.133 L 16.060 15.022 18.272 15.009 L 20.484 14.996 20.469 10.048 C 20.456 5.682,20.447 5.053,20.389 4.700 C 20.244 3.821,20.025 3.308,19.620 2.897 C 19.072 2.341,18.373 2.124,16.860 2.041 C 16.039 1.996,7.909 1.997,7.071 2.042 M2.617 16.577 C 2.415 16.665,2.193 16.886,2.094 17.100 C 2.004 17.292,2.001 17.337,2.000 18.292 C 2.000 19.380,2.036 19.665,2.234 20.151 C 2.521 20.857,3.143 21.479,3.849 21.766 C 4.453 22.012,4.024 22.000,12.000 22.000 C 19.974 22.000,19.547 22.012,20.150 21.767 C 20.850 21.482,21.482 20.850,21.767 20.150 C 21.964 19.665,22.000 19.379,22.000 18.292 C 21.999 17.337,21.996 17.292,21.906 17.100 C 21.804 16.882,21.581 16.662,21.374 16.575 C 21.267 16.530,20.780 16.520,18.789 16.520 C 15.758 16.520,16.061 16.462,14.995 17.253 C 13.955 18.026,14.058 18.000,11.993 18.000 C 9.938 18.000,10.047 18.027,9.005 17.253 C 7.938 16.461,8.243 16.520,5.203 16.522 C 3.235 16.523,2.715 16.534,2.617 16.577 " fill="#1C274C" stroke="none" fill-rule="evenodd"></path></svg>