<svg width="24" height="24" viewBox="0 0 24 24" fill="none" xmlns="http://www.w3.org/2000/svg"><path d="M6.532 2.043 C 4.895 2.132,4.089 2.469,3.560 3.286 C 3.187 3.862,3.001 4.967,3.000 6.626 L 3.000 7.231 2.387 7.246 C 1.795 7.260,1.769 7.264,1.606 7.372 C 1.190 7.647,1.130 8.179,1.475 8.524 C 1.670 8.720,1.839 8.760,2.470 8.760 L 3.000 8.760 3.000 9.996 L 3.000 11.231 2.387 11.246 C 1.795 11.260,1.769 11.264,1.606 11.372 C 1.190 11.647,1.130 12.179,1.475 12.524 C 1.670 12.720,1.839 12.760,2.470 12.760 L 3.000 12.760 3.000 13.996 L 3.000 15.231 2.387 15.246 C 1.795 15.260,1.769 15.264,1.606 15.372 C 1.190 15.647,1.130 16.179,1.475 16.524 C 1.670 16.719,1.839 16.760,2.464 16.760 L 2.988 16.760 3.011 17.710 C 3.024 18.233,3.056 18.849,3.082 19.080 C 3.174 19.906,3.392 20.542,3.716 20.932 C 4.296 21.628,5.056 21.891,6.750 21.981 L 7.240 22.007 7.240 12.004 C 7.240 2.501,7.236 2.000,7.170 2.006 C 7.131 2.009,6.845 2.026,6.532 2.043 M8.760 11.999 L 8.760 22.004 13.230 21.989 C 16.559 21.978,17.802 21.961,18.100 21.923 C 19.838 21.699,20.586 21.039,20.859 19.485 C 20.992 18.729,21.006 17.870,20.990 11.520 C 20.973 5.116,20.971 5.040,20.816 4.284 C 20.593 3.199,19.962 2.511,18.940 2.242 C 18.164 2.038,17.981 2.030,13.210 2.011 L 8.760 1.994 8.760 11.999 M16.820 5.835 C 17.010 5.923,17.096 6.012,17.178 6.210 C 17.257 6.398,17.257 6.602,17.178 6.790 C 17.099 6.980,17.015 7.071,16.832 7.164 C 16.690 7.236,16.554 7.240,14.000 7.240 C 11.446 7.240,11.310 7.236,11.168 7.164 C 10.985 7.071,10.901 6.980,10.822 6.790 C 10.713 6.530,10.768 6.193,10.952 5.986 C 10.989 5.943,11.092 5.876,11.180 5.835 C 11.330 5.766,11.504 5.762,14.000 5.762 C 16.496 5.762,16.670 5.766,16.820 5.835 M4.388 7.367 C 4.628 7.526,4.733 7.721,4.733 8.007 C 4.733 8.203,4.714 8.271,4.616 8.409 C 4.410 8.703,4.307 8.738,3.610 8.754 L 3.000 8.767 3.000 7.999 L 3.000 7.231 3.613 7.246 C 4.199 7.259,4.233 7.265,4.388 7.367 M16.820 9.326 C 17.402 9.649,17.380 10.407,16.780 10.684 C 16.629 10.754,16.465 10.758,13.998 10.759 L 11.376 10.760 11.178 10.661 C 10.547 10.344,10.653 9.446,11.340 9.276 C 11.406 9.260,12.639 9.250,14.080 9.253 C 16.439 9.259,16.712 9.267,16.820 9.326 M4.388 11.367 C 4.628 11.526,4.733 11.721,4.733 12.007 C 4.733 12.203,4.714 12.271,4.616 12.409 C 4.410 12.703,4.307 12.738,3.610 12.754 L 3.000 12.767 3.000 11.999 L 3.000 11.231 3.613 11.246 C 4.199 11.259,4.233 11.265,4.388 11.367 M4.388 15.367 C 4.628 15.526,4.733 15.721,4.733 16.007 C 4.733 16.203,4.714 16.271,4.616 16.409 C 4.410 16.703,4.307 16.738,3.610 16.754 L 3.000 16.767 3.000 15.999 L 3.000 15.231 3.613 15.246 C 4.199 15.259,4.233 15.265,4.388 15.367 " fill="#1C274C" stroke="none" fill-rule="evenodd"></path></svg>