<svg width="24" height="24" viewBox="0 0 24 24" fill="none" xmlns="http://www.w3.org/2000/svg"><path d="M19.180 3.065 C 16.759 3.289,16.047 3.510,13.780 4.739 C 13.516 4.883,13.178 5.039,13.030 5.088 L 12.760 5.176 12.760 12.786 L 12.760 20.396 12.970 20.336 C 13.085 20.302,13.675 20.035,14.280 19.742 C 14.885 19.448,15.560 19.136,15.780 19.048 C 16.946 18.582,17.921 18.381,19.700 18.239 C 19.986 18.216,20.319 18.169,20.440 18.135 C 21.176 17.927,21.768 17.319,21.938 16.596 C 22.030 16.210,22.030 4.870,21.938 4.484 C 21.806 3.921,21.444 3.466,20.922 3.208 L 20.625 3.060 19.982 3.055 C 19.629 3.052,19.268 3.057,19.180 3.065 M3.400 3.137 C 2.724 3.326,2.188 3.900,2.044 4.592 C 2.013 4.741,2.000 6.521,2.000 10.594 C 2.000 16.955,1.986 16.576,2.245 17.089 C 2.391 17.380,2.772 17.776,3.058 17.934 C 3.414 18.131,3.685 18.193,4.472 18.260 C 6.222 18.409,7.138 18.608,8.356 19.106 C 8.545 19.183,9.177 19.478,9.760 19.761 C 10.343 20.044,10.915 20.303,11.030 20.336 L 11.240 20.396 11.240 12.806 L 11.240 5.217 10.970 5.146 C 10.822 5.108,10.304 4.881,9.820 4.642 C 7.992 3.741,7.166 3.459,5.788 3.262 C 4.546 3.085,3.738 3.043,3.400 3.137 " fill="#1C274C" stroke="none" fill-rule="evenodd"></path></svg>