<svg width="24" height="24" viewBox="0 0 24 24" fill="none" xmlns="http://www.w3.org/2000/svg"><path d="M7.047 2.042 C 4.776 2.171,3.940 2.787,3.637 4.556 C 3.523 5.222,3.482 6.573,3.482 9.640 C 3.482 13.823,3.537 14.316,4.063 14.879 C 4.432 15.274,4.913 15.421,6.029 15.480 C 6.951 15.529,17.044 15.530,17.965 15.481 C 19.075 15.422,19.571 15.271,19.936 14.880 C 20.462 14.318,20.518 13.811,20.518 9.640 C 20.517 5.611,20.462 4.651,20.187 3.840 C 19.974 3.213,19.637 2.797,19.104 2.502 C 18.615 2.231,18.012 2.107,16.880 2.041 C 16.076 1.995,7.863 1.996,7.047 2.042 M2.667 17.065 C 2.390 17.150,2.143 17.408,2.058 17.701 C 2.003 17.890,1.995 18.063,2.010 18.714 C 2.032 19.618,2.066 19.788,2.347 20.360 C 2.504 20.680,2.590 20.797,2.897 21.103 C 3.203 21.410,3.320 21.496,3.640 21.653 C 4.368 22.011,3.577 21.980,12.000 21.980 C 20.423 21.980,19.632 22.011,20.360 21.653 C 20.680 21.496,20.797 21.410,21.103 21.103 C 21.410 20.797,21.496 20.680,21.653 20.360 C 21.931 19.793,21.967 19.619,21.989 18.716 C 22.014 17.756,21.978 17.584,21.697 17.304 C 21.389 16.995,21.432 17.000,18.820 17.000 C 17.351 17.000,16.450 17.015,16.297 17.043 C 15.939 17.109,15.639 17.273,14.992 17.757 C 13.956 18.531,14.081 18.500,12.000 18.500 C 9.919 18.500,10.044 18.531,9.008 17.757 C 8.361 17.273,8.061 17.109,7.703 17.043 C 7.549 17.015,6.656 17.001,5.163 17.003 C 3.246 17.005,2.828 17.016,2.667 17.065 " fill="#1C274C" stroke="none" fill-rule="evenodd"></path></svg>