<svg width="24" height="24" viewBox="0 0 24 24" fill="none" xmlns="http://www.w3.org/2000/svg"><path d="M19.180 3.065 C 16.759 3.289,16.047 3.510,13.780 4.739 C 13.516 4.883,13.178 5.039,13.030 5.088 L 12.760 5.176 12.760 12.786 L 12.760 20.396 12.970 20.336 C 13.085 20.302,13.675 20.035,14.280 19.742 C 14.885 19.448,15.560 19.136,15.780 19.048 C 16.946 18.582,17.921 18.381,19.700 18.239 C 19.986 18.216,20.319 18.169,20.440 18.135 C 21.176 17.927,21.768 17.319,21.938 16.596 C 22.030 16.210,22.030 4.870,21.938 4.484 C 21.806 3.921,21.444 3.466,20.922 3.208 L 20.625 3.060 19.982 3.055 C 19.629 3.052,19.268 3.057,19.180 3.065 M3.400 3.137 C 2.724 3.326,2.188 3.900,2.044 4.592 C 2.013 4.741,2.000 6.521,2.000 10.594 C 2.000 16.955,1.986 16.576,2.245 17.089 C 2.391 17.380,2.772 17.776,3.058 17.934 C 3.414 18.131,3.685 18.193,4.472 18.260 C 6.222 18.409,7.138 18.608,8.356 19.106 C 8.545 19.183,9.177 19.478,9.760 19.761 C 10.343 20.044,10.915 20.303,11.030 20.336 L 11.240 20.396 11.240 12.806 L 11.240 5.217 10.970 5.146 C 10.822 5.108,10.304 4.881,9.820 4.642 C 7.992 3.741,7.166 3.459,5.788 3.262 C 4.546 3.085,3.738 3.043,3.400 3.137 M7.175 8.775 C 8.651 9.144,9.350 9.336,9.433 9.395 C 9.632 9.537,9.733 9.739,9.733 9.996 C 9.733 10.362,9.534 10.629,9.188 10.725 C 9.030 10.768,8.891 10.739,6.865 10.236 C 5.679 9.941,4.659 9.669,4.596 9.632 C 4.167 9.372,4.151 8.691,4.567 8.395 C 4.676 8.317,4.848 8.256,4.989 8.244 C 5.016 8.242,6.000 8.481,7.175 8.775 M19.219 8.285 C 19.307 8.309,19.444 8.395,19.525 8.476 C 19.862 8.812,19.807 9.357,19.410 9.624 C 19.279 9.713,15.162 10.763,14.960 10.760 C 14.804 10.757,14.547 10.624,14.429 10.484 C 14.148 10.149,14.213 9.651,14.573 9.384 C 14.650 9.326,15.346 9.134,16.793 8.771 C 17.952 8.481,18.936 8.242,18.980 8.242 C 19.024 8.241,19.132 8.260,19.219 8.285 M7.175 12.775 C 8.651 13.144,9.350 13.336,9.433 13.395 C 9.632 13.537,9.733 13.739,9.733 13.996 C 9.733 14.362,9.534 14.629,9.188 14.725 C 9.030 14.768,8.891 14.739,6.865 14.236 C 5.679 13.941,4.659 13.669,4.596 13.632 C 4.167 13.372,4.151 12.691,4.567 12.395 C 4.676 12.317,4.848 12.256,4.989 12.244 C 5.016 12.242,6.000 12.481,7.175 12.775 M19.219 12.285 C 19.307 12.309,19.444 12.395,19.525 12.476 C 19.862 12.812,19.807 13.357,19.410 13.624 C 19.279 13.713,15.162 14.763,14.960 14.760 C 14.804 14.757,14.547 14.624,14.429 14.484 C 14.148 14.149,14.213 13.651,14.573 13.384 C 14.650 13.326,15.346 13.134,16.793 12.771 C 17.952 12.481,18.936 12.242,18.980 12.242 C 19.024 12.241,19.132 12.260,19.219 12.285 " fill="#1C274C" stroke="none" fill-rule="evenodd"></path></svg>