<svg width="24" height="24" viewBox="0 0 24 24" fill="none" xmlns="http://www.w3.org/2000/svg"><path d="M6.513 3.044 C 5.298 3.138,4.737 3.524,4.504 4.426 C 4.379 4.909,4.361 5.579,4.360 9.790 L 4.360 14.000 12.000 14.000 L 19.640 14.000 19.640 9.790 C 19.639 7.281,19.623 5.395,19.599 5.123 C 19.532 4.365,19.403 3.985,19.098 3.646 C 18.762 3.272,18.305 3.110,17.400 3.041 C 16.754 2.992,7.152 2.995,6.513 3.044 M12.302 5.075 C 12.869 5.333,12.899 6.125,12.353 6.404 C 11.891 6.639,11.337 6.361,11.257 5.854 C 11.191 5.432,11.565 5.002,12.000 5.002 C 12.077 5.002,12.213 5.035,12.302 5.075 M3.115 15.815 C 2.298 16.671,2.183 16.834,2.060 17.305 C 1.984 17.597,1.983 18.193,2.058 18.475 C 2.255 19.215,2.865 19.804,3.592 19.956 C 3.892 20.018,20.108 20.018,20.408 19.956 C 21.158 19.799,21.799 19.158,21.956 18.408 C 22.018 18.108,22.011 17.577,21.940 17.305 C 21.817 16.834,21.702 16.671,20.885 15.815 L 20.108 15.000 12.000 15.000 L 3.892 15.000 3.115 15.815 M14.820 17.326 C 15.402 17.649,15.380 18.407,14.780 18.684 C 14.629 18.754,14.466 18.758,12.000 18.758 C 9.534 18.758,9.371 18.754,9.220 18.684 C 8.699 18.443,8.595 17.818,9.015 17.450 C 9.095 17.379,9.211 17.310,9.271 17.297 C 9.331 17.284,9.398 17.267,9.420 17.259 C 9.442 17.251,10.639 17.248,12.080 17.252 C 14.438 17.259,14.712 17.267,14.820 17.326 " fill="#1C274C" stroke="none" fill-rule="evenodd"></path></svg>