<svg width="24" height="24" viewBox="0 0 24 24" fill="none" xmlns="http://www.w3.org/2000/svg"><path d="M6.440 3.041 C 5.382 3.102,4.879 3.204,4.326 3.467 C 3.447 3.887,3.031 4.618,2.874 6.020 C 2.797 6.708,2.795 15.903,2.872 16.390 C 3.043 17.470,3.481 17.917,4.556 18.111 C 4.910 18.175,5.485 18.180,12.000 18.180 C 18.538 18.180,19.089 18.175,19.448 18.110 C 20.482 17.924,20.902 17.523,21.111 16.520 C 21.165 16.261,21.176 15.607,21.190 11.760 C 21.209 6.382,21.184 5.786,20.898 4.880 C 20.779 4.503,20.484 4.039,20.216 3.807 C 19.975 3.597,19.393 3.311,19.030 3.224 C 18.230 3.032,18.119 3.028,12.380 3.019 C 9.410 3.014,6.737 3.024,6.440 3.041 M15.380 14.476 C 15.574 14.565,15.696 14.692,15.778 14.889 C 15.932 15.257,15.760 15.669,15.380 15.844 C 15.229 15.914,15.045 15.918,12.009 15.919 C 9.199 15.920,8.779 15.912,8.649 15.858 C 8.021 15.596,8.004 14.760,8.620 14.476 C 8.771 14.406,8.954 14.402,12.000 14.402 C 15.046 14.402,15.229 14.406,15.380 14.476 M1.460 19.556 C 0.844 19.840,0.861 20.676,1.489 20.938 C 1.622 20.993,2.737 21.000,12.009 20.999 C 22.006 20.998,22.386 20.996,22.540 20.924 C 23.144 20.646,23.144 19.834,22.540 19.556 C 22.386 19.484,22.007 19.482,12.000 19.482 C 1.993 19.482,1.614 19.484,1.460 19.556 " fill="#1C274C" stroke="none" fill-rule="evenodd"></path></svg>