<svg width="24" height="24" viewBox="0 0 24 24" fill="none" xmlns="http://www.w3.org/2000/svg"><path d="M12.066 2.039 C 11.481 2.146,10.893 2.407,10.379 2.789 C 9.597 3.369,9.218 4.038,8.740 5.679 C 8.205 7.520,7.250 11.175,7.114 11.903 C 6.989 12.578,6.988 13.339,7.112 13.780 C 7.244 14.248,7.558 14.853,7.869 15.240 C 8.547 16.084,9.219 16.395,11.980 17.140 C 14.589 17.845,15.213 17.974,16.000 17.973 C 16.467 17.973,16.586 17.959,16.886 17.868 C 17.578 17.657,18.135 17.333,18.609 16.863 C 19.273 16.206,19.520 15.578,20.402 12.300 C 21.419 8.523,21.560 7.887,21.560 7.086 C 21.559 6.508,21.465 6.085,21.224 5.582 C 20.683 4.452,19.993 3.896,18.541 3.418 C 17.507 3.078,14.446 2.268,13.639 2.121 C 13.120 2.026,12.356 1.986,12.066 2.039 M5.942 7.143 C 4.687 7.504,4.047 7.758,3.569 8.088 C 2.703 8.683,2.070 9.827,2.012 10.900 C 1.971 11.658,2.113 12.332,3.061 15.862 C 3.888 18.945,4.094 19.585,4.455 20.201 C 4.900 20.961,5.716 21.576,6.662 21.865 C 6.980 21.963,7.084 21.975,7.600 21.976 C 8.405 21.978,8.868 21.882,11.640 21.135 C 13.142 20.730,14.067 20.427,14.553 20.183 C 14.893 20.013,15.572 19.516,15.496 19.493 C 15.476 19.487,15.272 19.455,15.042 19.421 C 14.474 19.338,13.642 19.141,11.960 18.692 C 9.186 17.952,8.366 17.643,7.553 17.030 C 6.585 16.300,5.792 14.991,5.579 13.767 C 5.546 13.581,5.520 13.202,5.521 12.925 C 5.522 12.002,5.647 11.371,6.359 8.702 C 6.623 7.714,6.834 6.902,6.829 6.898 C 6.824 6.894,6.425 7.005,5.942 7.143 M14.336 9.905 C 15.702 10.271,16.887 10.604,16.970 10.646 C 17.052 10.688,17.169 10.796,17.230 10.888 C 17.320 11.025,17.340 11.098,17.339 11.301 C 17.339 11.582,17.244 11.761,17.012 11.920 C 16.738 12.107,16.697 12.100,14.160 11.422 C 11.520 10.715,11.458 10.697,11.320 10.591 C 10.858 10.235,10.984 9.487,11.540 9.289 C 11.606 9.266,11.703 9.245,11.756 9.243 C 11.808 9.241,12.969 9.539,14.336 9.905 M12.510 12.521 C 13.253 12.719,13.951 12.910,14.063 12.944 C 14.666 13.130,14.842 13.829,14.386 14.229 C 14.217 14.378,13.967 14.456,13.787 14.418 C 13.490 14.354,10.709 13.597,10.643 13.562 C 10.513 13.492,10.325 13.244,10.274 13.077 C 10.145 12.645,10.512 12.160,10.968 12.160 C 11.084 12.160,11.698 12.304,12.510 12.521 " fill="#1C274C" stroke="none" fill-rule="evenodd"></path></svg>