<svg width="24" height="24" viewBox="0 0 24 24" fill="none" xmlns="http://www.w3.org/2000/svg"><path d="M11.826 2.039 C 11.010 2.188,10.311 2.562,9.700 3.178 C 9.418 3.462,9.300 3.618,9.152 3.900 C 8.782 4.611,8.606 5.166,7.819 8.100 C 6.830 11.790,6.739 12.221,6.771 13.060 C 6.788 13.504,6.809 13.635,6.916 13.955 C 7.142 14.631,7.482 15.168,7.980 15.634 C 8.627 16.239,9.311 16.502,12.363 17.315 C 15.181 18.066,15.828 18.139,16.795 17.818 C 17.357 17.631,17.838 17.349,18.245 16.967 C 18.620 16.615,18.787 16.394,19.000 15.970 C 19.330 15.310,19.505 14.735,20.435 11.253 C 21.180 8.467,21.279 8.010,21.308 7.239 C 21.327 6.737,21.319 6.614,21.248 6.334 C 21.060 5.589,20.670 4.909,20.147 4.412 C 19.484 3.782,18.889 3.541,16.209 2.817 C 14.629 2.390,13.943 2.221,13.380 2.118 C 12.878 2.026,12.112 1.987,11.826 2.039 M6.060 7.037 C 4.253 7.540,3.543 7.844,2.998 8.349 C 2.225 9.064,1.760 10.087,1.760 11.068 C 1.761 11.813,1.891 12.411,2.762 15.660 C 3.585 18.729,3.776 19.351,4.090 19.980 C 4.532 20.866,5.380 21.549,6.428 21.865 C 6.732 21.957,6.854 21.972,7.320 21.973 C 7.672 21.974,7.999 21.950,8.260 21.903 C 9.235 21.728,12.726 20.797,13.594 20.480 C 14.293 20.225,14.827 19.925,15.115 19.626 L 15.250 19.486 15.055 19.461 C 14.287 19.363,12.527 18.937,10.420 18.341 C 8.479 17.792,7.669 17.411,6.918 16.693 C 6.160 15.969,5.631 15.050,5.369 14.000 C 5.278 13.634,5.264 13.498,5.265 12.940 C 5.265 11.969,5.388 11.364,6.197 8.350 C 6.397 7.608,6.560 6.982,6.560 6.960 C 6.560 6.904,6.513 6.911,6.060 7.037 " fill="#1C274C" stroke="none" fill-rule="evenodd"></path></svg>