<svg width="24" height="24" viewBox="0 0 24 24" fill="none" xmlns="http://www.w3.org/2000/svg"><path d="M8.419 2.043 C 5.807 2.139,4.481 2.507,3.549 3.393 C 2.551 4.342,2.166 5.587,2.041 8.260 C 1.988 9.399,1.988 14.601,2.041 15.740 C 2.160 18.285,2.507 19.501,3.379 20.433 C 4.323 21.444,5.571 21.833,8.260 21.959 C 9.399 22.012,14.601 22.012,15.740 21.959 C 18.285 21.840,19.501 21.493,20.433 20.621 C 21.348 19.766,21.729 18.712,21.924 16.500 C 21.976 15.900,22.024 9.545,21.980 8.853 L 21.952 8.406 21.645 8.634 C 20.494 9.487,18.933 9.727,17.560 9.260 C 16.239 8.811,15.189 7.758,14.735 6.427 C 14.446 5.579,14.446 4.421,14.735 3.573 C 14.868 3.183,15.165 2.618,15.400 2.308 L 15.593 2.052 14.967 2.026 C 14.139 1.992,9.489 2.004,8.419 2.043 M18.460 2.057 C 17.819 2.184,17.376 2.423,16.897 2.899 C 16.589 3.204,16.505 3.318,16.347 3.640 C 16.088 4.167,16.022 4.443,16.022 5.000 C 16.022 5.557,16.088 5.833,16.347 6.360 C 16.504 6.680,16.590 6.797,16.897 7.103 C 17.203 7.410,17.320 7.496,17.640 7.653 C 18.167 7.912,18.443 7.978,19.000 7.978 C 19.557 7.978,19.833 7.912,20.360 7.653 C 20.680 7.496,20.797 7.410,21.103 7.103 C 21.410 6.797,21.496 6.680,21.653 6.360 C 21.910 5.837,21.976 5.559,21.976 5.000 C 21.976 4.441,21.910 4.163,21.653 3.640 C 21.496 3.320,21.410 3.203,21.103 2.897 C 20.797 2.590,20.680 2.504,20.360 2.347 C 20.151 2.244,19.872 2.133,19.740 2.099 C 19.395 2.010,18.795 1.991,18.460 2.057 " fill="#1C274C" stroke="none" fill-rule="evenodd"></path></svg>