<svg width="24" height="24" viewBox="0 0 24 24" fill="none" xmlns="http://www.w3.org/2000/svg"><path d="M8.440 2.043 C 7.012 2.094,5.996 2.226,5.213 2.462 C 3.811 2.885,2.890 3.808,2.459 5.221 C 2.103 6.387,2.001 7.900,2.001 12.000 C 2.001 16.100,2.103 17.613,2.459 18.779 C 2.891 20.195,3.805 21.109,5.221 21.541 C 6.387 21.897,7.900 21.999,12.000 21.999 C 16.100 21.999,17.613 21.897,18.779 21.541 C 20.192 21.110,21.115 20.189,21.538 18.787 C 21.785 17.969,21.899 17.046,21.959 15.393 C 22.004 14.160,22.014 10.077,21.974 9.073 L 21.948 8.412 21.696 8.603 C 19.921 9.946,17.412 9.764,15.824 8.176 C 14.949 7.301,14.510 6.241,14.510 5.000 C 14.510 4.008,14.810 3.082,15.373 2.336 L 15.587 2.052 14.927 2.026 C 14.064 1.992,9.542 2.004,8.440 2.043 M18.400 2.066 C 17.802 2.183,17.123 2.589,16.703 3.080 C 15.861 4.065,15.772 5.561,16.491 6.644 C 17.288 7.845,18.810 8.312,20.151 7.766 C 21.057 7.398,21.734 6.570,21.938 5.581 C 22.366 3.511,20.498 1.656,18.400 2.066 M13.267 16.803 C 13.516 16.896,13.758 17.241,13.758 17.500 C 13.758 17.789,13.456 18.172,13.191 18.220 C 13.119 18.233,11.637 18.238,9.897 18.232 L 6.734 18.220 6.586 18.120 C 6.422 18.009,6.240 17.689,6.240 17.511 C 6.240 17.256,6.460 16.924,6.700 16.817 C 6.856 16.747,13.086 16.734,13.267 16.803 " fill="#1C274C" stroke="none" fill-rule="evenodd"></path></svg>