<svg width="24" height="24" viewBox="0 0 24 24" fill="none" xmlns="http://www.w3.org/2000/svg"><path d="M8.440 2.043 C 7.012 2.094,5.996 2.226,5.213 2.462 C 3.811 2.885,2.890 3.808,2.459 5.221 C 2.103 6.387,2.001 7.900,2.001 12.000 C 2.001 16.100,2.103 17.613,2.459 18.779 C 2.891 20.195,3.805 21.109,5.221 21.541 C 6.387 21.897,7.900 21.999,12.000 21.999 C 16.100 21.999,17.613 21.897,18.779 21.541 C 20.192 21.110,21.115 20.189,21.538 18.787 C 21.867 17.695,21.998 16.061,21.999 13.032 L 22.000 11.765 21.670 11.940 C 21.256 12.159,20.849 12.295,20.355 12.378 C 19.586 12.506,17.463 12.555,15.840 12.480 C 14.623 12.425,14.064 12.309,13.412 11.980 C 12.442 11.490,11.835 10.599,11.623 9.353 C 11.494 8.593,11.445 6.454,11.520 4.845 C 11.578 3.590,11.706 2.998,12.060 2.330 L 12.235 2.000 10.768 2.006 C 9.960 2.010,8.913 2.026,8.440 2.043 M15.507 2.044 C 14.294 2.125,13.671 2.440,13.334 3.141 C 13.061 3.712,13.001 4.314,13.001 6.500 C 13.001 8.686,13.061 9.288,13.334 9.859 C 13.508 10.221,13.779 10.492,14.141 10.666 C 14.712 10.939,15.314 10.999,17.500 10.999 C 19.686 10.999,20.288 10.939,20.859 10.666 C 21.221 10.492,21.492 10.221,21.666 9.859 C 21.939 9.288,21.999 8.686,21.999 6.500 C 21.999 4.314,21.939 3.712,21.666 3.141 C 21.322 2.426,20.716 2.129,19.420 2.042 C 18.729 1.995,16.207 1.996,15.507 2.044 M15.820 3.837 C 15.918 3.883,16.272 4.205,16.740 4.676 L 17.499 5.440 18.280 4.661 C 19.085 3.858,19.220 3.759,19.509 3.761 C 19.682 3.762,19.948 3.873,20.048 3.986 C 20.154 4.104,20.240 4.341,20.239 4.509 C 20.237 4.788,20.114 4.955,19.324 5.740 L 18.560 6.499 19.339 7.280 C 20.136 8.079,20.240 8.220,20.240 8.500 C 20.240 8.661,20.151 8.900,20.048 9.013 C 19.849 9.234,19.439 9.304,19.168 9.163 C 19.087 9.120,18.678 8.742,18.260 8.323 L 17.501 7.560 16.720 8.336 C 16.291 8.763,15.882 9.141,15.812 9.176 C 15.557 9.303,15.143 9.225,14.952 9.013 C 14.849 8.900,14.760 8.661,14.760 8.500 C 14.760 8.220,14.864 8.079,15.661 7.280 L 16.440 6.499 15.676 5.740 C 15.205 5.272,14.883 4.918,14.837 4.820 C 14.745 4.625,14.740 4.406,14.822 4.210 C 14.904 4.012,14.990 3.923,15.180 3.835 C 15.385 3.741,15.617 3.742,15.820 3.837 " fill="#1C274C" stroke="none" fill-rule="evenodd"></path></svg>