<svg width="24" height="24" viewBox="0 0 24 24" fill="none" xmlns="http://www.w3.org/2000/svg"><path d="M8.419 2.043 C 5.807 2.139,4.481 2.507,3.549 3.393 C 2.551 4.342,2.166 5.587,2.041 8.260 C 1.988 9.399,1.988 14.601,2.041 15.740 C 2.160 18.285,2.507 19.501,3.379 20.433 C 4.323 21.444,5.571 21.833,8.260 21.959 C 9.399 22.012,14.601 22.012,15.740 21.959 C 18.285 21.840,19.501 21.493,20.433 20.621 C 21.348 19.766,21.738 18.686,21.921 16.500 C 21.945 16.214,21.975 15.032,21.988 13.873 L 22.011 11.767 21.586 11.980 C 21.101 12.223,20.548 12.372,19.880 12.439 C 18.696 12.558,15.491 12.522,14.660 12.380 C 13.034 12.103,12.015 11.162,11.685 9.633 C 11.538 8.951,11.511 8.347,11.533 6.139 C 11.545 4.919,11.571 3.953,11.597 3.800 C 11.711 3.125,11.931 2.481,12.158 2.163 C 12.203 2.100,12.240 2.037,12.240 2.024 C 12.240 1.991,9.453 2.005,8.419 2.043 M15.532 2.042 C 14.304 2.124,13.680 2.437,13.339 3.140 C 13.075 3.684,13.001 4.420,13.001 6.500 C 13.001 9.072,13.126 9.792,13.667 10.333 C 14.208 10.874,14.928 10.999,17.500 10.999 C 20.072 10.999,20.792 10.874,21.333 10.333 C 21.874 9.792,21.999 9.072,21.999 6.500 C 21.999 3.881,21.873 3.185,21.302 2.645 C 20.896 2.262,20.418 2.110,19.389 2.040 C 18.739 1.996,16.202 1.997,15.532 2.042 M15.812 3.824 C 15.882 3.859,16.291 4.237,16.720 4.664 L 17.501 5.440 18.260 4.677 C 18.678 4.258,19.087 3.880,19.168 3.837 C 19.438 3.697,19.853 3.767,20.045 3.986 C 20.241 4.209,20.298 4.568,20.176 4.812 C 20.141 4.882,19.763 5.291,19.336 5.720 L 18.560 6.501 19.323 7.260 C 19.742 7.678,20.120 8.087,20.163 8.168 C 20.298 8.429,20.249 8.782,20.045 9.014 C 19.853 9.233,19.438 9.303,19.168 9.163 C 19.087 9.120,18.678 8.742,18.260 8.323 L 17.501 7.560 16.720 8.336 C 16.291 8.763,15.882 9.141,15.812 9.176 C 15.568 9.298,15.209 9.241,14.986 9.045 C 14.767 8.853,14.697 8.438,14.837 8.168 C 14.880 8.087,15.258 7.678,15.677 7.260 L 16.440 6.501 15.664 5.720 C 15.237 5.291,14.859 4.882,14.824 4.812 C 14.697 4.558,14.776 4.138,14.986 3.955 C 15.210 3.759,15.568 3.702,15.812 3.824 M11.373 13.355 C 11.615 13.506,11.733 13.718,11.733 14.003 C 11.733 14.203,11.714 14.270,11.616 14.409 C 11.552 14.501,11.436 14.613,11.359 14.658 C 11.223 14.738,11.165 14.740,9.000 14.740 C 6.835 14.740,6.777 14.738,6.641 14.658 C 6.564 14.613,6.448 14.501,6.384 14.409 C 6.098 14.003,6.329 13.396,6.815 13.277 C 6.884 13.260,7.903 13.250,9.080 13.253 L 11.220 13.260 11.373 13.355 M13.267 16.803 C 13.540 16.905,13.731 17.193,13.731 17.500 C 13.731 17.807,13.540 18.095,13.267 18.197 C 13.191 18.226,12.132 18.240,10.000 18.240 C 7.868 18.240,6.809 18.226,6.733 18.197 C 6.460 18.095,6.269 17.807,6.269 17.500 C 6.269 17.200,6.458 16.909,6.720 16.805 C 6.863 16.748,13.117 16.746,13.267 16.803 " fill="#1C274C" stroke="none" fill-rule="evenodd"></path></svg>