<svg width="24" height="24" viewBox="0 0 24 24" fill="none" xmlns="http://www.w3.org/2000/svg"><path d="M7.400 1.282 C 4.758 1.357,3.543 1.717,2.598 2.706 C 1.893 3.442,1.560 4.278,1.379 5.760 C 1.289 6.500,1.212 9.826,1.277 10.134 C 1.395 10.684,2.019 10.919,2.464 10.580 C 2.738 10.371,2.736 10.380,2.764 8.340 C 2.792 6.353,2.840 5.727,3.022 5.007 C 3.168 4.425,3.355 4.077,3.716 3.716 C 4.466 2.965,5.521 2.760,8.627 2.760 C 9.447 2.760,10.035 2.743,10.162 2.716 C 10.920 2.553,10.920 1.447,10.162 1.284 C 9.939 1.236,9.036 1.236,7.400 1.282 M13.807 1.287 C 13.276 1.406,13.085 2.125,13.480 2.520 C 13.703 2.743,13.840 2.760,15.373 2.760 C 18.479 2.760,19.534 2.965,20.284 3.716 C 21.035 4.466,21.240 5.521,21.240 8.627 C 21.240 10.160,21.257 10.297,21.480 10.520 C 21.901 10.941,22.597 10.724,22.723 10.134 C 22.788 9.827,22.710 6.502,22.620 5.760 C 22.435 4.226,22.058 3.328,21.294 2.598 C 20.555 1.890,19.703 1.553,18.220 1.379 C 17.296 1.271,14.170 1.206,13.807 1.287 M8.200 4.785 C 7.027 4.903,6.565 5.075,6.060 5.580 C 5.745 5.894,5.574 6.201,5.444 6.680 C 5.323 7.127,5.286 7.523,5.255 8.692 L 5.228 9.750 4.873 10.000 C 4.413 10.325,4.109 10.652,4.041 10.896 C 3.889 11.441,4.268 11.998,4.791 12.000 C 4.952 12.000,5.152 11.891,5.450 11.639 C 6.527 10.729,8.212 10.085,10.231 9.812 C 10.955 9.714,13.046 9.714,13.770 9.812 C 15.806 10.087,17.466 10.727,18.590 11.670 C 18.920 11.947,19.095 12.021,19.334 11.983 C 19.795 11.909,20.081 11.423,19.960 10.919 C 19.897 10.656,19.614 10.344,19.127 10.000 L 18.772 9.750 18.745 8.692 C 18.714 7.523,18.677 7.127,18.556 6.680 C 18.431 6.217,18.253 5.893,17.960 5.596 C 17.552 5.183,17.140 4.983,16.428 4.852 C 16.101 4.792,15.633 4.784,12.200 4.778 C 10.077 4.774,8.277 4.777,8.200 4.785 M10.520 11.583 C 9.500 11.694,8.442 11.961,7.620 12.313 C 6.940 12.604,5.787 13.226,5.624 13.390 C 5.544 13.469,5.430 13.635,5.369 13.757 L 5.260 13.980 5.265 15.120 C 5.271 16.330,5.312 16.835,5.444 17.320 C 5.696 18.252,6.310 18.846,7.260 19.079 C 7.841 19.221,8.396 19.240,12.000 19.240 C 15.604 19.240,16.159 19.221,16.740 19.079 C 17.690 18.846,18.304 18.252,18.556 17.320 C 18.688 16.835,18.729 16.330,18.735 15.120 L 18.740 13.980 18.631 13.757 C 18.570 13.635,18.456 13.469,18.376 13.390 C 18.213 13.226,17.060 12.604,16.380 12.313 C 15.530 11.949,14.498 11.693,13.431 11.581 C 12.708 11.506,11.221 11.507,10.520 11.583 M1.807 13.288 C 1.546 13.345,1.340 13.571,1.278 13.866 C 1.224 14.127,1.253 16.581,1.322 17.560 C 1.461 19.520,1.801 20.481,2.660 21.340 C 3.519 22.199,4.480 22.539,6.440 22.678 C 7.419 22.747,9.873 22.776,10.134 22.722 C 10.826 22.577,10.959 21.646,10.332 21.336 C 10.192 21.267,10.029 21.259,8.340 21.236 C 5.878 21.202,5.070 21.101,4.320 20.734 C 3.907 20.532,3.468 20.093,3.266 19.680 C 2.899 18.930,2.798 18.122,2.764 15.660 C 2.741 13.971,2.733 13.808,2.664 13.668 C 2.549 13.434,2.385 13.327,2.040 13.261 C 2.007 13.255,1.902 13.267,1.807 13.288 M21.811 13.278 C 21.639 13.320,21.417 13.493,21.331 13.652 C 21.269 13.766,21.258 13.977,21.235 15.540 C 21.220 16.508,21.188 17.507,21.163 17.760 C 21.028 19.142,20.790 19.812,20.254 20.323 C 19.860 20.698,19.441 20.894,18.732 21.036 C 18.047 21.173,17.506 21.208,15.617 21.234 L 13.774 21.260 13.605 21.372 C 13.311 21.566,13.192 21.873,13.281 22.204 C 13.340 22.422,13.569 22.657,13.781 22.715 C 14.132 22.813,17.290 22.744,18.340 22.616 C 19.746 22.445,20.694 22.034,21.406 21.290 C 22.090 20.574,22.461 19.660,22.619 18.300 C 22.704 17.577,22.769 15.841,22.753 14.720 C 22.741 13.858,22.733 13.768,22.658 13.641 C 22.494 13.361,22.122 13.202,21.811 13.278 " fill="#1C274C" stroke="none" fill-rule="evenodd"></path></svg>