<svg width="24" height="24" viewBox="0 0 24 24" fill="none" xmlns="http://www.w3.org/2000/svg"><path d="M6.280 3.044 C 6.007 3.097,5.564 3.332,5.334 3.547 C 4.976 3.881,3.581 5.375,3.453 5.561 C 2.988 6.240,2.921 6.728,3.124 7.979 C 3.587 10.835,5.312 13.900,8.020 16.674 C 10.376 19.089,12.892 20.486,15.640 20.906 C 16.225 20.995,17.552 21.006,17.880 20.925 C 18.310 20.818,18.628 20.615,19.084 20.156 C 20.023 19.209,20.619 18.538,20.751 18.277 C 21.022 17.741,21.060 17.133,20.860 16.537 C 20.697 16.051,20.384 15.640,19.980 15.382 C 19.585 15.130,17.816 14.132,17.640 14.061 C 17.531 14.018,17.308 13.982,17.074 13.970 C 16.756 13.953,16.639 13.965,16.409 14.034 C 16.041 14.146,15.698 14.381,15.369 14.747 C 15.221 14.912,15.033 15.081,14.950 15.124 C 14.475 15.370,13.704 15.183,12.848 14.613 C 12.368 14.294,12.027 14.002,11.367 13.348 C 10.378 12.366,9.793 11.609,9.382 10.780 C 9.078 10.166,8.981 9.807,9.008 9.390 C 9.031 9.035,9.099 8.897,9.416 8.559 C 9.878 8.066,10.061 7.571,10.030 6.900 C 10.007 6.430,9.899 6.102,9.635 5.711 C 9.064 4.864,8.198 3.690,8.038 3.546 C 7.557 3.114,6.895 2.925,6.280 3.044 M15.815 4.277 C 15.330 4.397,15.098 5.004,15.383 5.408 C 15.588 5.697,15.719 5.738,16.495 5.754 L 17.170 5.768 15.770 7.174 C 14.999 7.947,14.346 8.625,14.318 8.680 C 14.290 8.735,14.267 8.881,14.267 9.004 C 14.267 9.498,14.682 9.816,15.189 9.711 C 15.371 9.673,15.449 9.603,16.806 8.251 L 18.232 6.831 18.246 7.525 C 18.259 8.169,18.267 8.231,18.353 8.369 C 18.715 8.952,19.581 8.810,19.719 8.147 C 19.750 7.997,19.760 7.429,19.752 6.373 C 19.741 4.888,19.736 4.813,19.656 4.660 C 19.610 4.572,19.496 4.446,19.403 4.380 L 19.233 4.260 17.587 4.253 C 16.681 4.249,15.884 4.260,15.815 4.277 " stroke="none" fill-rule="evenodd" fill="black"></path></svg>