<svg width="24" height="24" viewBox="0 0 24 24" fill="none" xmlns="http://www.w3.org/2000/svg"><path d="M7.245 4.045 C 6.923 4.099,6.508 4.254,6.208 4.434 C 5.290 4.983,4.405 6.168,4.113 7.240 C 4.030 7.544,4.020 7.663,4.023 8.360 C 4.026 9.272,4.095 9.812,4.320 10.700 C 4.836 12.732,5.931 14.571,7.659 16.303 C 9.403 18.052,11.260 19.164,13.298 19.680 C 14.189 19.905,14.728 19.974,15.640 19.977 C 16.337 19.980,16.456 19.970,16.760 19.887 C 17.966 19.558,19.263 18.514,19.721 17.503 C 19.912 17.083,19.974 16.784,19.976 16.280 C 19.979 15.592,19.815 15.094,19.420 14.590 C 19.175 14.279,18.918 14.095,18.049 13.613 C 17.190 13.136,16.931 13.042,16.400 13.013 C 15.624 12.970,14.922 13.231,14.254 13.808 C 13.437 14.515,12.357 14.252,11.105 13.042 C 10.432 12.390,9.997 11.730,9.861 11.153 C 9.723 10.570,9.823 10.183,10.236 9.686 C 10.555 9.303,10.753 8.948,10.886 8.520 C 11.022 8.081,11.018 7.340,10.878 6.939 C 10.755 6.588,10.018 5.255,9.777 4.947 C 9.225 4.244,8.215 3.884,7.245 4.045 M15.815 4.277 C 15.330 4.397,15.098 5.004,15.383 5.408 C 15.588 5.697,15.719 5.738,16.495 5.754 L 17.170 5.768 15.770 7.174 C 14.999 7.947,14.346 8.625,14.318 8.680 C 14.290 8.735,14.267 8.881,14.267 9.004 C 14.267 9.498,14.682 9.816,15.189 9.711 C 15.371 9.673,15.449 9.603,16.806 8.251 L 18.232 6.831 18.246 7.525 C 18.259 8.169,18.267 8.231,18.353 8.369 C 18.715 8.952,19.581 8.810,19.719 8.147 C 19.750 7.997,19.760 7.429,19.752 6.373 C 19.741 4.888,19.736 4.813,19.656 4.660 C 19.610 4.572,19.496 4.446,19.403 4.380 L 19.233 4.260 17.587 4.253 C 16.681 4.249,15.884 4.260,15.815 4.277 " stroke="none" fill-rule="evenodd" fill="black"></path></svg>