<svg width="24" height="24" viewBox="0 0 24 24" fill="none" xmlns="http://www.w3.org/2000/svg"><path d="M6.704 2.063 C 5.413 2.353,4.392 3.573,4.141 5.128 C 4.061 5.624,4.006 9.700,4.077 9.872 C 4.105 9.940,5.769 11.604,7.930 13.726 C 13.597 19.288,13.530 19.224,13.695 19.278 C 13.994 19.377,13.731 19.615,18.594 14.843 C 20.593 12.881,20.852 12.584,21.273 11.765 C 21.681 10.970,21.884 10.276,21.967 9.388 C 22.142 7.517,21.407 5.606,19.996 4.264 C 19.070 3.383,17.876 2.782,16.601 2.553 C 15.981 2.442,14.997 2.434,14.380 2.535 C 13.433 2.691,12.543 3.043,11.736 3.580 C 11.345 3.840,11.120 4.028,10.475 4.631 L 10.329 4.767 10.241 4.494 C 9.877 3.359,9.029 2.444,8.053 2.134 C 7.650 2.006,7.089 1.977,6.704 2.063 M3.072 11.910 C 2.711 12.254,2.334 12.742,2.168 13.080 C 2.033 13.357,2.022 13.408,2.021 13.740 C 2.020 14.072,2.031 14.124,2.164 14.400 C 2.441 14.979,2.732 15.290,5.660 18.146 C 9.077 21.478,9.150 21.544,9.760 21.836 C 10.035 21.968,10.089 21.980,10.420 21.980 C 10.969 21.980,11.358 21.793,12.067 21.190 C 12.574 20.758,12.641 20.540,12.370 20.209 C 12.183 19.979,3.867 11.834,3.740 11.755 C 3.674 11.714,3.551 11.680,3.467 11.680 C 3.335 11.680,3.280 11.712,3.072 11.910 " fill="#1C274C" stroke="none" fill-rule="evenodd"></path></svg>