<svg width="24" height="24" viewBox="0 0 24 24" fill="none" xmlns="http://www.w3.org/2000/svg"><path d="M6.702 2.060 C 5.742 2.260,4.831 3.094,4.403 4.165 C 4.095 4.938,4.045 5.476,4.040 8.080 C 4.037 9.770,4.010 10.388,3.924 10.706 C 3.858 10.949,3.626 11.274,3.097 11.860 C 2.517 12.503,2.303 12.786,2.146 13.120 C 2.039 13.348,2.024 13.425,2.022 13.740 C 2.020 14.073,2.031 14.123,2.164 14.400 C 2.441 14.979,2.732 15.290,5.660 18.146 C 9.077 21.478,9.150 21.544,9.760 21.836 C 10.039 21.970,10.086 21.980,10.440 21.980 C 10.784 21.980,10.846 21.968,11.087 21.853 C 11.456 21.679,11.752 21.469,12.220 21.050 C 12.829 20.505,20.287 13.196,20.525 12.910 C 21.200 12.101,21.688 11.065,21.906 9.980 C 22.016 9.431,22.006 8.201,21.887 7.660 C 21.609 6.394,21.071 5.369,20.225 4.490 C 19.633 3.875,19.024 3.436,18.278 3.086 C 16.473 2.237,14.387 2.242,12.578 3.098 C 11.874 3.431,11.440 3.739,10.642 4.472 L 10.324 4.765 10.279 4.594 C 10.052 3.752,9.396 2.860,8.680 2.421 C 8.095 2.063,7.346 1.926,6.702 2.060 M6.890 12.755 C 7.083 12.877,11.395 17.115,11.466 17.252 C 11.561 17.435,11.550 17.755,11.444 17.945 C 11.250 18.290,10.793 18.423,10.454 18.233 C 10.263 18.126,5.913 13.883,5.848 13.741 C 5.600 13.197,6.018 12.593,6.596 12.660 C 6.693 12.671,6.826 12.714,6.890 12.755 " fill="#1C274C" stroke="none" fill-rule="evenodd"></path></svg>