<svg width="24" height="24" viewBox="0 0 24 24" fill="none" xmlns="http://www.w3.org/2000/svg"><path d="M7.284 2.043 C 6.769 2.110,6.308 2.464,6.116 2.941 C 6.021 3.177,6.020 3.198,6.020 4.500 C 6.021 5.795,6.023 5.825,6.116 6.060 C 6.246 6.389,6.610 6.753,6.940 6.885 L 7.180 6.980 12.000 6.980 L 16.820 6.980 17.060 6.883 C 17.363 6.762,17.721 6.429,17.835 6.163 C 17.979 5.828,18.009 5.462,17.991 4.284 C 17.971 2.992,17.943 2.867,17.588 2.491 C 17.338 2.227,17.065 2.091,16.680 2.041 C 16.313 1.994,7.653 1.996,7.284 2.043 M19.000 4.489 L 19.000 5.229 19.651 5.249 C 20.190 5.265,20.334 5.282,20.486 5.350 C 20.735 5.460,20.984 5.693,21.113 5.937 L 21.220 6.140 21.233 7.322 C 21.245 8.445,21.241 8.514,21.160 8.730 C 21.069 8.974,20.817 9.268,20.607 9.377 C 20.413 9.477,20.113 9.529,17.240 9.959 C 13.508 10.517,13.250 10.569,12.620 10.892 C 11.924 11.248,11.456 11.943,11.341 12.790 L 11.312 13.000 12.076 13.000 C 12.788 13.000,12.840 12.995,12.840 12.927 C 12.840 12.756,12.974 12.477,13.118 12.347 C 13.444 12.052,13.726 11.993,17.560 11.419 C 19.111 11.186,20.524 10.959,20.700 10.915 C 21.659 10.671,22.396 9.934,22.642 8.972 C 22.809 8.320,22.785 6.223,22.603 5.640 C 22.395 4.972,21.872 4.370,21.216 4.045 C 20.808 3.842,20.564 3.797,19.750 3.772 L 19.000 3.749 19.000 4.489 M4.926 4.013 C 4.757 4.217,4.719 4.565,4.837 4.825 C 4.976 5.131,5.000 5.084,5.000 4.502 C 5.000 4.204,4.993 3.960,4.985 3.960 C 4.977 3.960,4.950 3.984,4.926 4.013 M10.904 14.042 C 10.582 14.092,10.334 14.220,10.220 14.395 C 10.022 14.697,10.020 14.727,10.020 18.020 C 10.020 21.477,10.015 21.412,10.301 21.699 C 10.551 21.949,10.741 21.980,12.000 21.980 C 13.259 21.980,13.449 21.949,13.699 21.699 C 13.985 21.412,13.980 21.479,13.980 18.000 C 13.980 14.522,13.985 14.588,13.699 14.302 C 13.462 14.064,13.276 14.031,12.140 14.017 C 11.590 14.011,11.034 14.022,10.904 14.042 " fill="#1C274C" stroke="none" fill-rule="evenodd"></path></svg>