<svg width="24" height="24" viewBox="0 0 24 24" fill="none" xmlns="http://www.w3.org/2000/svg"><path d="M4.335 2.039 C 3.632 2.101,3.189 2.296,2.739 2.740 C 2.408 3.067,2.204 3.436,2.093 3.910 C 2.024 4.204,2.020 4.618,2.020 12.000 C 2.020 19.382,2.024 19.796,2.093 20.090 C 2.310 21.017,2.983 21.690,3.910 21.907 C 4.185 21.972,4.419 21.980,6.000 21.980 C 7.581 21.980,7.815 21.972,8.090 21.907 C 9.017 21.690,9.690 21.017,9.907 20.090 C 9.976 19.796,9.980 19.382,9.980 12.000 C 9.980 4.618,9.976 4.204,9.907 3.910 C 9.692 2.991,9.002 2.299,8.100 2.096 C 7.878 2.046,7.498 2.030,6.260 2.020 C 5.402 2.012,4.536 2.021,4.335 2.039 M15.679 3.393 C 15.312 3.489,14.916 3.728,14.071 4.363 C 13.487 4.803,13.199 5.057,12.637 5.627 C 12.027 6.245,11.914 6.380,11.787 6.640 C 11.504 7.221,11.520 6.891,11.520 12.266 C 11.520 15.689,11.533 17.177,11.565 17.325 C 11.653 17.736,11.925 17.835,12.294 17.590 C 12.512 17.445,19.836 9.835,20.209 9.365 C 20.338 9.202,20.499 8.962,20.565 8.830 C 20.873 8.220,20.873 7.380,20.565 6.770 C 20.383 6.409,20.046 6.015,19.171 5.139 C 17.851 3.817,17.463 3.520,16.876 3.381 C 16.541 3.302,16.005 3.308,15.679 3.393 M14.715 16.946 C 12.745 18.922,11.732 19.966,11.655 20.100 C 11.550 20.282,11.540 20.335,11.540 20.680 C 11.540 21.001,11.555 21.090,11.637 21.257 C 11.766 21.520,11.999 21.745,12.274 21.874 L 12.500 21.980 16.040 21.980 C 19.704 21.980,19.838 21.975,20.312 21.814 C 20.778 21.656,21.341 21.160,21.593 20.687 C 21.850 20.204,21.860 20.107,21.860 18.000 C 21.860 15.893,21.850 15.796,21.593 15.313 C 21.359 14.873,20.821 14.383,20.380 14.207 C 20.059 14.079,19.676 14.036,18.680 14.014 L 17.660 13.992 14.715 16.946 M7.388 18.367 C 7.628 18.526,7.733 18.721,7.733 19.007 C 7.733 19.203,7.714 19.271,7.616 19.409 C 7.384 19.740,7.383 19.740,6.000 19.740 C 4.617 19.740,4.616 19.740,4.384 19.409 C 4.098 19.003,4.328 18.398,4.815 18.277 C 4.884 18.260,5.454 18.249,6.083 18.253 L 7.226 18.260 7.388 18.367 " fill="#1C274C" stroke="none" fill-rule="evenodd"></path></svg>