<svg width="24" height="24" viewBox="0 0 24 24" fill="none" xmlns="http://www.w3.org/2000/svg"><path d="M5.420 2.044 C 5.083 2.092,4.552 2.263,4.221 2.430 C 3.035 3.026,2.224 4.153,2.043 5.455 C 1.983 5.889,1.983 18.111,2.043 18.545 C 2.161 19.391,2.572 20.215,3.178 20.822 C 4.733 22.377,7.267 22.377,8.822 20.822 C 9.438 20.205,9.852 19.366,9.958 18.514 C 10.016 18.057,10.016 5.943,9.958 5.486 C 9.852 4.634,9.438 3.795,8.822 3.178 C 7.936 2.292,6.660 1.867,5.420 2.044 M15.325 3.860 C 14.924 3.950,14.687 4.036,14.312 4.228 C 13.807 4.486,13.550 4.699,12.697 5.565 C 12.028 6.244,11.915 6.377,11.787 6.640 C 11.504 7.221,11.520 6.891,11.520 12.266 C 11.520 15.689,11.533 17.177,11.565 17.325 C 11.653 17.736,11.925 17.835,12.294 17.590 C 12.522 17.439,19.076 10.629,19.368 10.240 C 19.620 9.904,19.935 9.266,20.048 8.860 C 20.125 8.581,20.137 8.444,20.136 7.800 C 20.136 7.110,20.128 7.036,20.028 6.709 C 19.913 6.335,19.668 5.816,19.467 5.520 C 19.288 5.256,18.776 4.737,18.496 4.536 C 18.157 4.293,17.686 4.065,17.260 3.937 C 16.945 3.842,16.818 3.827,16.240 3.815 C 15.767 3.806,15.508 3.818,15.325 3.860 M14.691 16.970 C 12.040 19.624,11.713 19.965,11.616 20.176 C 11.332 20.798,11.623 21.568,12.260 21.881 L 12.460 21.980 15.300 21.992 C 17.273 22.000,18.237 21.990,18.459 21.959 C 19.599 21.796,20.647 21.119,21.277 20.137 C 22.084 18.881,22.098 17.195,21.311 15.917 C 20.951 15.333,20.298 14.730,19.700 14.430 C 19.184 14.171,18.469 14.001,17.899 14.000 L 17.658 14.000 14.691 16.970 M6.512 17.147 C 7.142 17.534,7.154 18.446,6.535 18.839 C 6.060 19.141,5.442 18.992,5.141 18.503 C 5.034 18.329,5.020 18.271,5.020 18.003 C 5.020 17.744,5.036 17.673,5.131 17.511 C 5.339 17.158,5.660 16.988,6.072 17.015 C 6.261 17.027,6.371 17.060,6.512 17.147 " fill="#1C274C" stroke="none" fill-rule="evenodd"></path></svg>