<svg width="24" height="24" viewBox="0 0 24 24" fill="none" xmlns="http://www.w3.org/2000/svg"><path d="M5.620 3.059 C 4.953 3.240,3.945 3.688,3.389 4.051 C 2.762 4.460,2.307 4.975,2.110 5.500 L 2.020 5.740 2.008 11.960 C 2.000 16.443,2.009 18.247,2.041 18.420 C 2.186 19.195,2.846 19.907,3.965 20.496 C 5.259 21.178,7.336 21.683,9.760 21.906 C 10.672 21.990,13.082 22.002,13.980 21.927 C 17.121 21.665,19.538 20.982,20.871 19.981 C 21.444 19.550,21.859 18.954,21.959 18.420 C 21.991 18.248,22.001 16.428,21.992 11.960 L 21.980 5.740 21.890 5.500 C 21.693 4.977,21.262 4.486,20.627 4.063 C 19.963 3.622,18.612 3.060,18.101 3.013 C 17.487 2.957,16.884 3.318,16.588 3.919 L 16.460 4.178 16.449 6.207 C 16.438 8.083,16.432 8.237,16.369 8.255 C 16.226 8.297,15.280 8.439,14.760 8.497 C 13.037 8.690,10.963 8.690,9.240 8.497 C 8.720 8.439,7.774 8.297,7.631 8.255 C 7.568 8.237,7.562 8.083,7.551 6.207 L 7.540 4.178 7.412 3.919 C 7.067 3.218,6.333 2.866,5.620 3.059 M4.904 8.956 C 6.169 9.438,7.871 9.787,9.840 9.967 C 10.618 10.038,13.382 10.038,14.160 9.967 C 16.711 9.734,18.672 9.251,20.106 8.502 L 20.600 8.244 20.600 13.232 L 20.600 18.220 20.507 18.373 L 20.414 18.526 19.382 17.628 C 18.814 17.135,18.254 16.672,18.136 16.601 C 17.506 16.219,16.771 16.082,16.074 16.216 C 15.655 16.297,15.378 16.411,14.974 16.668 C 14.665 16.864,14.589 16.895,14.377 16.911 C 14.185 16.925,14.100 16.911,13.977 16.846 C 13.891 16.801,13.078 16.047,12.172 15.170 C 11.007 14.044,10.450 13.533,10.272 13.428 C 9.563 13.007,8.702 12.974,7.969 13.341 C 7.580 13.535,6.528 14.433,5.020 15.856 C 4.316 16.520,3.664 17.132,3.570 17.216 L 3.400 17.369 3.400 12.807 L 3.400 8.244 3.894 8.502 C 4.165 8.644,4.619 8.848,4.904 8.956 M17.372 11.512 C 16.790 11.720,16.435 12.212,16.426 12.821 C 16.408 14.094,17.951 14.725,18.818 13.798 C 19.106 13.490,19.180 13.295,19.180 12.840 C 19.180 12.534,19.163 12.423,19.093 12.271 C 18.971 12.008,18.671 11.701,18.411 11.574 C 18.118 11.431,17.674 11.404,17.372 11.512 " fill="#1C274C" stroke="none" fill-rule="evenodd"></path></svg>