<svg width="24" height="24" viewBox="0 0 24 24" fill="none" xmlns="http://www.w3.org/2000/svg"><path d="M8.419 2.043 C 5.807 2.139,4.481 2.507,3.549 3.393 C 2.551 4.342,2.166 5.587,2.041 8.260 C 1.988 9.399,1.988 14.601,2.041 15.740 C 2.160 18.285,2.507 19.501,3.379 20.433 C 4.326 21.446,5.580 21.837,8.280 21.959 C 9.445 22.011,14.555 22.011,15.720 21.959 C 18.275 21.843,19.498 21.496,20.433 20.621 C 21.360 19.755,21.742 18.682,21.927 16.420 C 22.002 15.512,22.002 8.488,21.927 7.580 C 21.743 5.332,21.366 4.263,20.451 3.393 C 19.495 2.484,18.240 2.146,15.417 2.041 C 14.194 1.995,9.686 1.997,8.419 2.043 M13.520 5.281 C 14.884 5.401,16.081 5.942,17.055 6.879 C 18.153 7.936,18.730 9.278,18.731 10.780 C 18.732 12.088,18.327 13.223,17.494 14.247 C 17.278 14.511,15.004 16.719,14.620 17.036 C 14.343 17.265,13.882 17.497,13.460 17.619 C 12.292 17.957,11.026 17.611,10.189 16.724 C 9.147 15.620,9.048 14.037,9.942 12.777 C 10.156 12.474,12.093 10.608,12.269 10.534 C 12.595 10.397,12.998 10.517,13.190 10.808 C 13.341 11.037,13.345 11.391,13.199 11.604 C 13.145 11.683,12.679 12.151,12.164 12.644 C 11.181 13.584,10.965 13.847,10.879 14.204 C 10.805 14.513,10.845 14.977,10.970 15.250 C 11.092 15.517,11.386 15.845,11.630 15.988 C 12.225 16.337,13.014 16.320,13.565 15.947 C 13.842 15.759,16.217 13.462,16.446 13.160 C 16.704 12.820,17.013 12.187,17.128 11.760 C 17.206 11.472,17.220 11.322,17.220 10.780 C 17.220 10.232,17.207 10.094,17.129 9.825 C 16.905 9.052,16.563 8.482,16.004 7.950 C 15.115 7.104,14.045 6.713,12.784 6.771 C 11.924 6.812,11.062 7.115,10.410 7.608 C 9.924 7.976,7.591 10.249,7.369 10.572 C 6.964 11.159,6.801 11.636,6.770 12.322 C 6.728 13.262,7.020 14.063,7.655 14.755 C 7.939 15.064,8.011 15.207,8.009 15.464 C 8.006 15.787,7.853 16.012,7.551 16.138 C 7.211 16.280,6.938 16.178,6.546 15.761 C 6.098 15.285,5.752 14.712,5.526 14.071 C 5.066 12.767,5.208 11.272,5.903 10.078 C 6.250 9.485,6.453 9.266,8.286 7.512 C 9.341 6.503,9.722 6.206,10.380 5.882 C 11.107 5.523,11.712 5.350,12.475 5.282 C 12.980 5.237,13.017 5.237,13.520 5.281 " fill="#1C274C" stroke="none" fill-rule="evenodd"></path></svg>