<svg width="24" height="24" viewBox="0 0 24 24" fill="none" xmlns="http://www.w3.org/2000/svg"><path d="M6.295 2.042 C 4.680 2.122,3.931 2.349,3.336 2.938 C 2.866 3.403,2.659 3.933,2.612 4.790 L 2.588 5.240 12.000 5.240 L 21.412 5.240 21.388 4.790 C 21.341 3.933,21.134 3.403,20.664 2.938 C 20.055 2.335,19.355 2.129,17.620 2.041 C 16.706 1.995,7.229 1.996,6.295 2.042 M2.769 7.030 C 2.830 7.498,3.164 9.737,3.174 9.747 C 3.179 9.753,3.579 9.362,4.061 8.879 L 4.939 8.000 4.320 7.380 L 3.701 6.760 3.217 6.760 L 2.734 6.760 2.769 7.030 M7.680 7.380 L 7.061 8.000 8.030 8.970 L 9.000 9.940 9.970 8.970 L 10.939 8.000 10.320 7.380 L 9.701 6.760 9.000 6.760 L 8.299 6.760 7.680 7.380 M13.680 7.380 L 13.061 8.000 14.030 8.970 L 15.000 9.940 15.970 8.970 L 16.939 8.000 16.320 7.380 L 15.701 6.760 15.000 6.760 L 14.299 6.760 13.680 7.380 M19.680 7.380 L 19.061 8.000 19.939 8.879 C 20.421 9.362,20.821 9.753,20.826 9.747 C 20.836 9.737,21.170 7.498,21.231 7.030 L 21.266 6.760 20.783 6.760 L 20.299 6.760 19.680 7.380 M5.020 10.040 L 4.060 11.000 5.030 11.970 L 6.000 12.940 6.970 11.970 L 7.940 11.000 6.980 10.040 C 6.452 9.512,6.011 9.080,6.000 9.080 C 5.989 9.080,5.548 9.512,5.020 10.040 M11.020 10.040 L 10.060 11.000 11.030 11.970 L 12.000 12.940 12.970 11.970 L 13.940 11.000 12.980 10.040 C 12.452 9.512,12.011 9.080,12.000 9.080 C 11.989 9.080,11.548 9.512,11.020 10.040 M17.020 10.040 L 16.060 11.000 17.030 11.970 L 18.000 12.940 18.970 11.970 L 19.940 11.000 18.980 10.040 C 18.452 9.512,18.011 9.080,18.000 9.080 C 17.989 9.080,17.548 9.512,17.020 10.040 M8.020 13.040 L 7.060 14.000 8.030 14.970 L 9.000 15.940 9.970 14.970 L 10.940 14.000 9.980 13.040 C 9.452 12.512,9.011 12.080,9.000 12.080 C 8.989 12.080,8.548 12.512,8.020 13.040 M14.020 13.040 L 13.060 14.000 14.030 14.970 L 15.000 15.940 15.970 14.970 L 16.940 14.000 15.980 13.040 C 15.452 12.512,15.011 12.080,15.000 12.080 C 14.989 12.080,14.548 12.512,14.020 13.040 M3.613 12.740 C 3.624 12.784,3.701 13.288,3.783 13.860 C 3.866 14.432,3.944 14.913,3.958 14.929 C 3.972 14.945,4.198 14.743,4.461 14.479 L 4.939 14.000 4.266 13.330 C 3.895 12.961,3.601 12.696,3.613 12.740 M19.719 13.341 L 19.061 14.000 19.539 14.479 C 19.801 14.742,20.026 14.947,20.038 14.935 C 20.059 14.914,20.399 12.709,20.384 12.691 C 20.380 12.687,20.080 12.979,19.719 13.341 M5.104 15.956 L 4.228 16.833 4.296 17.286 C 4.333 17.536,4.383 17.852,4.406 17.990 L 4.448 18.240 5.575 18.240 L 6.701 18.240 7.320 17.620 L 7.939 17.000 6.980 16.040 C 6.452 15.512,6.011 15.080,6.000 15.080 C 5.989 15.080,5.585 15.474,5.104 15.956 M11.020 16.040 L 10.061 17.000 10.680 17.620 L 11.299 18.240 12.000 18.240 L 12.701 18.240 13.320 17.620 L 13.939 17.000 12.980 16.040 C 12.452 15.512,12.011 15.080,12.000 15.080 C 11.989 15.080,11.548 15.512,11.020 16.040 M17.020 16.040 L 16.061 17.000 16.680 17.620 L 17.299 18.240 18.425 18.240 L 19.552 18.240 19.594 17.990 C 19.617 17.852,19.667 17.536,19.704 17.286 L 19.772 16.833 18.896 15.956 C 18.415 15.474,18.011 15.080,18.000 15.080 C 17.989 15.080,17.548 15.512,17.020 16.040 M4.799 19.870 C 5.011 20.567,5.331 21.061,5.776 21.379 C 6.279 21.738,6.861 21.891,7.980 21.958 C 8.354 21.981,10.163 21.999,12.000 21.999 C 15.505 21.999,16.444 21.969,17.095 21.837 C 18.188 21.614,18.782 21.090,19.143 20.030 L 19.235 19.760 12.000 19.760 L 4.766 19.760 4.799 19.870 " fill="#1C274C" stroke="none" fill-rule="evenodd"></path></svg>