<svg width="24" height="24" viewBox="0 0 24 24" fill="none" xmlns="http://www.w3.org/2000/svg"><path d="M8.419 2.043 C 5.807 2.139,4.481 2.507,3.549 3.393 C 2.551 4.342,2.166 5.587,2.041 8.260 C 1.988 9.399,1.988 14.601,2.041 15.740 C 2.160 18.285,2.507 19.501,3.379 20.433 C 4.326 21.446,5.580 21.837,8.280 21.959 C 9.445 22.011,14.555 22.011,15.720 21.959 C 18.275 21.843,19.498 21.496,20.433 20.621 C 21.360 19.755,21.742 18.682,21.927 16.420 C 22.002 15.512,22.002 8.488,21.927 7.580 C 21.743 5.332,21.366 4.263,20.451 3.393 C 19.495 2.484,18.240 2.146,15.417 2.041 C 14.194 1.995,9.686 1.997,8.419 2.043 M13.347 5.283 C 14.138 5.371,14.822 5.656,15.440 6.156 C 15.918 6.543,17.590 8.185,17.901 8.573 C 18.470 9.284,18.735 10.047,18.731 10.960 C 18.726 12.024,18.408 12.789,17.614 13.640 C 17.171 14.116,14.499 16.734,14.117 17.067 C 13.596 17.521,13.022 17.734,12.320 17.734 C 11.480 17.734,10.974 17.505,10.193 16.768 C 9.824 16.420,9.590 16.112,9.416 15.745 C 9.275 15.449,9.164 14.972,9.161 14.654 C 9.159 14.320,9.275 13.866,9.463 13.480 C 9.648 13.102,9.653 13.095,10.754 12.009 C 11.362 11.409,11.940 10.869,12.038 10.810 C 12.656 10.438,13.383 11.085,13.085 11.741 C 13.035 11.851,12.679 12.225,11.963 12.921 C 11.386 13.481,10.866 14.021,10.807 14.120 C 10.714 14.277,10.700 14.343,10.700 14.640 C 10.700 15.095,10.789 15.267,11.253 15.703 C 11.668 16.094,11.883 16.211,12.232 16.233 C 12.543 16.253,12.787 16.188,13.022 16.020 C 13.304 15.820,16.686 12.475,16.855 12.229 C 17.293 11.593,17.362 10.661,17.023 9.958 C 16.861 9.622,16.634 9.362,15.744 8.492 C 14.701 7.471,14.372 7.188,14.040 7.022 C 13.641 6.823,13.435 6.780,12.900 6.781 C 12.223 6.783,11.863 6.906,11.360 7.308 C 11.017 7.581,7.599 10.894,7.308 11.235 C 6.834 11.790,6.641 12.608,6.821 13.299 C 6.947 13.782,7.102 14.028,7.602 14.540 C 8.121 15.072,8.200 15.193,8.200 15.455 C 8.200 15.680,8.145 15.828,8.007 15.974 C 7.796 16.197,7.543 16.266,7.252 16.180 C 7.087 16.131,6.983 16.046,6.556 15.611 C 6.017 15.064,5.890 14.898,5.670 14.460 C 5.173 13.470,5.128 12.257,5.550 11.271 C 5.720 10.874,5.956 10.497,6.219 10.200 C 6.505 9.879,9.720 6.745,10.182 6.338 C 10.358 6.183,10.583 6.001,10.681 5.933 C 11.157 5.607,11.847 5.353,12.440 5.285 C 12.870 5.235,12.921 5.235,13.347 5.283 " fill="#1C274C" stroke="none" fill-rule="evenodd"></path></svg>