<svg width="24" height="24" viewBox="0 0 24 24" fill="none" xmlns="http://www.w3.org/2000/svg"><path d="M3.811 2.279 C 3.536 2.344,3.316 2.587,3.260 2.885 C 3.197 3.220,3.450 3.624,3.781 3.715 C 4.007 3.778,19.993 3.778,20.219 3.715 C 20.431 3.657,20.660 3.422,20.719 3.204 C 20.808 2.873,20.689 2.566,20.394 2.372 L 20.226 2.260 12.083 2.254 C 7.604 2.250,3.882 2.262,3.811 2.279 M11.680 4.824 C 11.505 4.899,8.438 7.961,8.338 8.159 C 8.252 8.332,8.248 8.662,8.331 8.821 C 8.521 9.186,8.932 9.336,9.309 9.179 C 9.400 9.141,9.787 8.788,10.347 8.231 L 11.240 7.344 11.240 11.999 L 11.240 16.655 10.345 15.767 C 9.795 15.223,9.394 14.857,9.306 14.820 C 8.932 14.664,8.521 14.815,8.331 15.179 C 8.248 15.338,8.252 15.668,8.339 15.841 C 8.417 15.995,11.332 18.942,11.571 19.107 C 11.751 19.232,12.043 19.271,12.265 19.199 C 12.388 19.160,12.751 18.819,14.006 17.565 C 14.878 16.693,15.624 15.917,15.662 15.841 C 15.748 15.668,15.752 15.338,15.669 15.179 C 15.479 14.815,15.068 14.664,14.694 14.820 C 14.606 14.857,14.205 15.223,13.655 15.767 L 12.760 16.655 12.760 11.999 L 12.760 7.344 13.653 8.231 C 14.213 8.788,14.600 9.141,14.691 9.179 C 15.068 9.336,15.479 9.186,15.669 8.821 C 15.752 8.662,15.748 8.332,15.662 8.159 C 15.556 7.949,12.493 4.898,12.311 4.822 C 12.125 4.744,11.862 4.745,11.680 4.824 M3.807 20.287 C 3.568 20.341,3.341 20.572,3.289 20.816 C 3.197 21.246,3.431 21.629,3.838 21.716 C 4.130 21.778,19.870 21.778,20.162 21.716 C 20.920 21.553,20.920 20.447,20.162 20.284 C 19.894 20.227,4.065 20.230,3.807 20.287 " fill="#1C274C" stroke="none" fill-rule="evenodd"></path></svg>