<svg width="24" height="24" viewBox="0 0 24 24" fill="none" xmlns="http://www.w3.org/2000/svg"><path d="M7.320 4.026 C 6.616 4.049,5.743 4.124,5.300 4.200 C 3.429 4.521,2.501 5.463,2.186 7.360 C 2.035 8.265,2.020 8.706,2.021 12.060 C 2.021 14.933,2.030 15.417,2.092 15.957 C 2.259 17.411,2.547 18.182,3.155 18.800 C 3.790 19.446,4.568 19.743,6.056 19.908 C 6.643 19.974,7.174 19.980,12.020 19.980 C 16.870 19.980,17.395 19.974,17.957 19.909 C 19.433 19.738,20.195 19.449,20.822 18.822 C 21.570 18.074,21.850 17.150,21.963 15.058 C 22.019 14.022,21.990 8.821,21.925 8.200 C 21.778 6.795,21.521 5.996,21.022 5.391 C 20.367 4.597,19.476 4.242,17.720 4.075 C 17.298 4.034,8.338 3.992,7.320 4.026 M8.316 11.063 C 8.827 11.214,9.121 11.808,8.939 12.322 C 8.854 12.563,8.709 12.740,8.489 12.869 C 8.328 12.964,8.256 12.980,8.000 12.980 C 7.744 12.980,7.672 12.964,7.511 12.869 C 6.933 12.529,6.832 11.766,7.303 11.295 C 7.573 11.025,7.921 10.945,8.316 11.063 M12.316 11.063 C 12.827 11.214,13.121 11.808,12.939 12.322 C 12.854 12.563,12.709 12.740,12.489 12.869 C 12.328 12.964,12.256 12.980,12.000 12.980 C 11.744 12.980,11.672 12.964,11.511 12.869 C 10.933 12.529,10.832 11.766,11.303 11.295 C 11.573 11.025,11.921 10.945,12.316 11.063 M16.316 11.063 C 16.827 11.214,17.121 11.808,16.939 12.322 C 16.854 12.563,16.709 12.740,16.489 12.869 C 16.328 12.964,16.256 12.980,16.000 12.980 C 15.744 12.980,15.672 12.964,15.511 12.869 C 14.933 12.529,14.832 11.766,15.303 11.295 C 15.573 11.025,15.921 10.945,16.316 11.063 " fill="#1C274C" stroke="none" fill-rule="evenodd"></path></svg>