<svg width="24" height="24" viewBox="0 0 24 24" fill="none" xmlns="http://www.w3.org/2000/svg"><path d="M10.241 3.107 C 6.167 3.692,4.775 3.906,4.631 3.968 C 4.526 4.013,4.440 4.061,4.440 4.075 C 4.441 4.089,4.504 4.140,4.580 4.190 C 4.762 4.308,4.908 4.534,4.970 4.792 L 5.019 5.000 11.139 5.001 C 16.836 5.002,17.536 5.012,17.905 5.105 L 18.000 5.129 17.999 4.614 C 17.998 3.785,17.845 3.337,17.417 2.913 C 17.010 2.511,16.540 2.317,15.986 2.324 C 15.797 2.327,13.374 2.657,10.241 3.107 M4.012 12.340 C 4.021 20.417,3.988 19.629,4.347 20.360 C 4.504 20.680,4.590 20.797,4.897 21.103 C 5.203 21.410,5.320 21.496,5.640 21.653 C 6.361 22.007,5.833 21.980,12.000 21.980 C 18.167 21.980,17.639 22.007,18.360 21.653 C 18.680 21.496,18.797 21.410,19.103 21.103 C 19.410 20.797,19.496 20.680,19.653 20.360 C 20.007 19.639,19.980 20.167,19.980 14.000 C 19.980 7.881,20.003 8.363,19.685 7.700 C 19.395 7.094,18.938 6.630,18.340 6.337 C 17.639 5.993,18.298 6.024,11.100 6.001 L 4.700 5.980 4.511 5.869 C 4.299 5.744,4.136 5.552,4.057 5.330 C 4.011 5.203,4.004 6.296,4.012 12.340 M12.507 9.282 C 12.940 9.341,13.538 9.552,13.929 9.785 C 14.371 10.047,14.953 10.629,15.215 11.071 C 15.782 12.024,15.902 13.166,15.545 14.209 C 15.349 14.780,15.090 15.190,14.640 15.640 C 14.190 16.090,13.780 16.349,13.209 16.545 C 12.166 16.902,11.027 16.782,10.070 16.215 C 9.626 15.953,9.047 15.374,8.785 14.930 C 8.218 13.973,8.098 12.834,8.455 11.791 C 8.651 11.220,8.910 10.810,9.360 10.360 C 10.215 9.505,11.331 9.123,12.507 9.282 M11.480 10.821 C 10.715 11.008,10.138 11.533,9.875 12.280 C 9.743 12.653,9.743 13.347,9.875 13.720 C 10.109 14.386,10.615 14.892,11.280 15.126 C 11.493 15.200,11.624 15.217,12.000 15.217 C 12.376 15.217,12.507 15.200,12.720 15.126 C 13.385 14.892,13.891 14.386,14.125 13.720 C 14.200 13.507,14.217 13.377,14.217 13.000 C 14.217 12.623,14.200 12.493,14.125 12.280 C 13.797 11.348,12.948 10.751,11.968 10.763 C 11.821 10.765,11.601 10.791,11.480 10.821 M14.209 18.282 C 14.628 18.398,14.864 18.875,14.698 19.271 C 14.616 19.468,14.494 19.595,14.300 19.684 C 14.151 19.753,13.995 19.758,12.009 19.759 C 10.174 19.760,9.857 19.751,9.729 19.698 C 9.101 19.436,9.084 18.600,9.700 18.316 C 9.849 18.247,10.004 18.242,11.960 18.241 C 13.284 18.241,14.115 18.256,14.209 18.282 " fill="#1C274C" stroke="none" fill-rule="evenodd"></path></svg>