<svg width="24" height="24" viewBox="0 0 24 24" fill="none" xmlns="http://www.w3.org/2000/svg"><path d="M10.241 3.107 C 6.167 3.692,4.775 3.906,4.631 3.968 C 4.526 4.013,4.440 4.061,4.440 4.075 C 4.441 4.089,4.504 4.140,4.580 4.190 C 4.762 4.308,4.908 4.534,4.970 4.792 L 5.019 5.000 11.139 5.001 C 16.836 5.002,17.536 5.012,17.905 5.105 L 18.000 5.129 17.999 4.614 C 17.998 3.785,17.845 3.337,17.417 2.913 C 17.010 2.511,16.540 2.317,15.986 2.324 C 15.797 2.327,13.374 2.657,10.241 3.107 M4.012 12.340 C 4.021 20.417,3.988 19.629,4.347 20.360 C 4.504 20.680,4.590 20.797,4.897 21.103 C 5.203 21.410,5.320 21.496,5.640 21.653 C 6.361 22.007,5.833 21.980,12.000 21.980 C 18.167 21.980,17.639 22.007,18.360 21.653 C 18.680 21.496,18.797 21.410,19.103 21.103 C 19.410 20.797,19.496 20.680,19.653 20.360 C 20.007 19.639,19.980 20.167,19.980 14.000 C 19.980 7.881,20.003 8.363,19.685 7.700 C 19.395 7.094,18.938 6.630,18.340 6.337 C 17.639 5.993,18.298 6.024,11.100 6.001 L 4.700 5.980 4.511 5.869 C 4.299 5.744,4.136 5.552,4.057 5.330 C 4.011 5.203,4.004 6.296,4.012 12.340 M12.507 10.282 C 12.940 10.341,13.538 10.552,13.929 10.785 C 14.371 11.047,14.953 11.629,15.215 12.071 C 15.782 13.024,15.902 14.166,15.545 15.209 C 15.349 15.780,15.090 16.190,14.640 16.640 C 14.190 17.090,13.780 17.349,13.209 17.545 C 12.166 17.902,11.027 17.782,10.070 17.215 C 9.626 16.953,9.047 16.374,8.785 15.930 C 8.218 14.973,8.098 13.834,8.455 12.791 C 8.651 12.220,8.910 11.810,9.360 11.360 C 10.215 10.505,11.331 10.123,12.507 10.282 M11.480 11.821 C 10.715 12.008,10.138 12.533,9.875 13.280 C 9.743 13.653,9.743 14.347,9.875 14.720 C 10.109 15.386,10.615 15.892,11.280 16.126 C 11.493 16.200,11.624 16.217,12.000 16.217 C 12.376 16.217,12.507 16.200,12.720 16.126 C 13.385 15.892,13.891 15.386,14.125 14.720 C 14.200 14.507,14.217 14.377,14.217 14.000 C 14.217 13.623,14.200 13.493,14.125 13.280 C 13.797 12.348,12.948 11.751,11.968 11.763 C 11.821 11.765,11.601 11.791,11.480 11.821 " fill="#1C274C" stroke="none" fill-rule="evenodd"></path></svg>