<svg width="24" height="24" viewBox="0 0 24 24" fill="none" xmlns="http://www.w3.org/2000/svg"><path d="M7.320 4.026 C 6.616 4.049,5.743 4.124,5.300 4.200 C 3.429 4.521,2.501 5.463,2.186 7.360 C 2.035 8.265,2.020 8.706,2.021 12.060 C 2.021 14.933,2.030 15.417,2.092 15.957 C 2.259 17.411,2.547 18.182,3.155 18.800 C 3.790 19.446,4.568 19.743,6.056 19.908 C 6.643 19.974,7.174 19.980,12.020 19.980 C 16.870 19.980,17.395 19.974,17.957 19.909 C 19.433 19.738,20.195 19.449,20.822 18.822 C 21.570 18.074,21.850 17.150,21.963 15.058 C 22.019 14.022,21.990 8.821,21.925 8.200 C 21.778 6.795,21.521 5.996,21.022 5.391 C 20.367 4.597,19.476 4.242,17.720 4.075 C 17.298 4.034,8.338 3.992,7.320 4.026 M7.080 9.342 C 7.370 9.489,7.480 9.746,7.480 10.279 C 7.480 10.499,7.489 10.680,7.500 10.680 C 7.511 10.680,7.686 10.586,7.887 10.471 C 8.197 10.295,8.286 10.263,8.457 10.263 C 8.845 10.263,9.154 10.539,9.191 10.917 C 9.228 11.303,9.081 11.516,8.579 11.803 C 8.415 11.897,8.280 11.987,8.280 12.003 C 8.280 12.018,8.438 12.123,8.630 12.236 C 8.845 12.363,9.017 12.496,9.076 12.582 C 9.191 12.750,9.229 13.051,9.161 13.257 C 9.060 13.563,8.662 13.803,8.352 13.745 C 8.279 13.731,8.060 13.630,7.864 13.520 C 7.668 13.410,7.501 13.320,7.494 13.320 C 7.486 13.320,7.480 13.505,7.479 13.730 C 7.478 14.199,7.414 14.394,7.204 14.571 C 6.844 14.873,6.344 14.782,6.090 14.367 C 6.011 14.238,6.000 14.166,6.000 13.770 C 6.000 13.523,5.989 13.320,5.975 13.320 C 5.961 13.320,5.794 13.409,5.605 13.517 C 5.415 13.625,5.195 13.725,5.116 13.740 C 4.617 13.832,4.151 13.323,4.283 12.828 C 4.351 12.573,4.477 12.439,4.855 12.221 C 5.045 12.112,5.200 12.013,5.199 12.001 C 5.199 11.990,5.043 11.890,4.854 11.780 C 4.664 11.670,4.468 11.526,4.418 11.460 C 4.280 11.277,4.228 11.035,4.283 10.830 C 4.381 10.465,4.633 10.267,4.999 10.267 C 5.200 10.267,5.268 10.291,5.585 10.473 C 5.782 10.587,5.956 10.680,5.971 10.680 C 5.987 10.680,6.000 10.480,6.000 10.235 C 6.000 9.851,6.012 9.770,6.088 9.633 C 6.277 9.299,6.732 9.165,7.080 9.342 M12.405 9.381 C 12.667 9.550,12.733 9.712,12.753 10.229 C 12.762 10.479,12.781 10.678,12.795 10.672 C 12.809 10.665,12.982 10.571,13.180 10.461 C 13.482 10.294,13.572 10.263,13.741 10.266 C 14.284 10.274,14.628 10.810,14.405 11.302 C 14.315 11.498,14.166 11.629,13.799 11.828 C 13.646 11.912,13.520 11.989,13.520 12.000 C 13.520 12.011,13.649 12.092,13.807 12.180 C 14.187 12.392,14.316 12.504,14.405 12.698 C 14.594 13.116,14.360 13.600,13.908 13.724 C 13.686 13.785,13.507 13.736,13.099 13.503 L 12.780 13.321 12.756 13.782 C 12.735 14.208,12.724 14.256,12.616 14.410 C 12.453 14.642,12.271 14.739,12.000 14.739 C 11.729 14.739,11.547 14.642,11.384 14.410 C 11.276 14.256,11.265 14.208,11.244 13.782 L 11.220 13.321 10.901 13.503 C 10.488 13.739,10.299 13.790,10.085 13.726 C 9.636 13.592,9.407 13.112,9.595 12.698 C 9.684 12.504,9.813 12.392,10.193 12.180 C 10.351 12.092,10.480 12.011,10.480 12.000 C 10.480 11.989,10.354 11.912,10.201 11.828 C 9.834 11.629,9.685 11.498,9.595 11.302 C 9.505 11.103,9.501 10.924,9.582 10.729 C 9.707 10.429,9.939 10.270,10.259 10.266 C 10.428 10.263,10.518 10.294,10.820 10.461 C 11.018 10.571,11.191 10.665,11.205 10.672 C 11.219 10.678,11.238 10.479,11.247 10.229 C 11.262 9.845,11.279 9.751,11.355 9.628 C 11.585 9.256,12.045 9.148,12.405 9.381 M17.654 9.374 C 17.739 9.422,17.851 9.532,17.904 9.623 C 17.990 9.770,18.000 9.834,18.000 10.234 C 18.000 10.479,18.013 10.680,18.029 10.680 C 18.044 10.680,18.218 10.587,18.415 10.473 C 18.732 10.291,18.800 10.267,19.001 10.267 C 19.374 10.267,19.634 10.477,19.717 10.847 C 19.803 11.233,19.645 11.491,19.146 11.780 C 18.957 11.890,18.801 11.990,18.801 12.001 C 18.800 12.013,18.955 12.112,19.145 12.221 C 19.523 12.439,19.649 12.573,19.717 12.828 C 19.849 13.322,19.385 13.830,18.884 13.741 C 18.805 13.727,18.585 13.626,18.395 13.518 C 18.205 13.409,18.039 13.320,18.025 13.320 C 18.011 13.320,18.000 13.523,18.000 13.770 C 18.000 14.166,17.989 14.238,17.910 14.367 C 17.656 14.782,17.156 14.873,16.796 14.571 C 16.586 14.394,16.522 14.199,16.521 13.730 C 16.520 13.505,16.514 13.320,16.506 13.320 C 16.499 13.320,16.332 13.410,16.136 13.520 C 15.940 13.630,15.721 13.731,15.648 13.745 C 15.338 13.803,14.940 13.563,14.839 13.257 C 14.771 13.051,14.809 12.750,14.924 12.582 C 14.983 12.496,15.157 12.361,15.370 12.234 C 15.563 12.120,15.720 12.015,15.720 12.001 C 15.720 11.986,15.586 11.898,15.422 11.804 C 14.948 11.533,14.800 11.340,14.800 10.994 C 14.800 10.586,15.128 10.263,15.541 10.263 C 15.714 10.263,15.802 10.295,16.113 10.471 C 16.314 10.586,16.489 10.680,16.500 10.680 C 16.511 10.680,16.520 10.495,16.521 10.270 C 16.522 9.959,16.539 9.821,16.595 9.698 C 16.680 9.512,16.878 9.331,17.033 9.296 C 17.092 9.284,17.158 9.267,17.180 9.260 C 17.261 9.233,17.504 9.292,17.654 9.374 " fill="#1C274C" stroke="none" fill-rule="evenodd"></path></svg>