<svg width="24" height="24" viewBox="0 0 24 24" fill="none" xmlns="http://www.w3.org/2000/svg"><path d="M14.811 1.278 C 14.639 1.320,14.417 1.493,14.330 1.652 C 14.264 1.773,14.259 2.352,14.250 11.915 C 14.242 19.210,14.252 22.095,14.284 22.213 C 14.342 22.431,14.574 22.659,14.798 22.719 C 15.198 22.827,15.610 22.599,15.718 22.209 C 15.742 22.124,15.760 21.617,15.760 21.036 L 15.760 20.012 16.590 19.984 C 18.962 19.904,20.034 19.610,20.822 18.822 C 21.559 18.085,21.845 17.158,21.960 15.140 C 22.010 14.259,22.010 9.741,21.960 8.860 C 21.828 6.540,21.428 5.514,20.388 4.825 C 19.553 4.272,18.758 4.112,16.352 4.016 L 15.765 3.992 15.752 2.886 C 15.741 1.856,15.734 1.770,15.658 1.641 C 15.494 1.361,15.122 1.202,14.811 1.278 M7.000 4.042 C 5.261 4.116,4.375 4.320,3.617 4.822 C 2.947 5.265,2.534 5.897,2.303 6.829 C 2.054 7.832,2.020 8.448,2.020 12.000 C 2.020 15.552,2.054 16.168,2.303 17.171 C 2.423 17.655,2.558 17.981,2.784 18.330 C 3.032 18.714,3.247 18.933,3.617 19.178 C 4.011 19.439,4.317 19.570,4.829 19.698 C 5.771 19.932,6.332 19.964,9.870 19.988 L 13.000 20.009 12.998 16.095 C 12.997 12.775,12.988 12.203,12.943 12.330 C 12.864 12.551,12.702 12.744,12.489 12.869 C 12.327 12.964,12.256 12.980,11.997 12.980 C 11.729 12.980,11.671 12.966,11.497 12.859 C 11.387 12.791,11.244 12.654,11.172 12.548 C 10.856 12.077,11.001 11.446,11.497 11.141 C 11.671 11.034,11.729 11.020,11.997 11.020 C 12.256 11.020,12.327 11.036,12.489 11.131 C 12.702 11.256,12.864 11.449,12.943 11.670 C 12.988 11.797,12.997 11.226,12.998 7.910 L 13.000 4.000 10.350 4.006 C 8.893 4.010,7.385 4.026,7.000 4.042 M8.512 11.147 C 9.142 11.534,9.154 12.446,8.535 12.839 C 8.060 13.141,7.442 12.992,7.141 12.503 C 7.034 12.329,7.020 12.271,7.020 12.003 C 7.020 11.744,7.036 11.673,7.131 11.511 C 7.339 11.158,7.660 10.988,8.072 11.015 C 8.261 11.027,8.371 11.060,8.512 11.147 " fill="#1C274C" stroke="none" fill-rule="evenodd"></path></svg>