<svg width="24" height="24" viewBox="0 0 24 24" fill="none" xmlns="http://www.w3.org/2000/svg"><path d="M11.120 2.039 C 9.316 2.220,7.707 2.807,6.280 3.806 C 2.738 6.286,1.178 10.759,2.422 14.865 C 2.918 16.499,3.728 17.850,4.939 19.061 C 5.928 20.050,7.038 20.788,8.272 21.278 C 11.634 22.610,15.313 22.080,18.200 19.845 C 18.637 19.507,19.507 18.637,19.845 18.200 C 21.255 16.379,22.000 14.234,22.000 12.000 C 22.000 7.432,18.842 3.387,14.430 2.303 C 13.446 2.062,12.028 1.948,11.120 2.039 M10.461 8.122 C 10.709 8.250,10.899 8.495,10.956 8.760 C 10.986 8.897,11.000 9.956,11.000 12.000 C 11.000 14.044,10.986 15.103,10.956 15.240 C 10.899 15.505,10.709 15.750,10.461 15.878 C 10.268 15.977,10.239 15.980,9.500 15.980 C 8.761 15.980,8.732 15.977,8.539 15.878 C 8.286 15.747,8.099 15.504,8.042 15.229 C 8.011 15.081,8.001 14.054,8.009 11.877 L 8.020 8.738 8.120 8.543 C 8.175 8.436,8.287 8.294,8.369 8.228 C 8.604 8.038,8.813 8.000,9.581 8.011 C 10.224 8.019,10.274 8.026,10.461 8.122 M15.461 8.122 C 15.709 8.250,15.899 8.495,15.956 8.760 C 15.986 8.897,16.000 9.956,16.000 12.000 C 16.000 14.044,15.986 15.103,15.956 15.240 C 15.899 15.505,15.709 15.750,15.461 15.878 C 15.268 15.977,15.239 15.980,14.500 15.980 C 13.761 15.980,13.732 15.977,13.539 15.878 C 13.286 15.747,13.099 15.504,13.042 15.229 C 13.011 15.081,13.001 14.054,13.009 11.877 L 13.020 8.738 13.120 8.543 C 13.175 8.436,13.287 8.294,13.369 8.228 C 13.604 8.038,13.813 8.000,14.581 8.011 C 15.224 8.019,15.274 8.026,15.461 8.122 " fill="#1C274C" stroke="none" fill-rule="evenodd"></path></svg>