<svg width="24" height="24" viewBox="0 0 24 24" fill="none" xmlns="http://www.w3.org/2000/svg"><path d="M4.153 2.044 C 3.603 2.086,3.247 2.170,2.954 2.326 C 2.550 2.541,2.277 2.913,2.144 3.425 C 2.004 3.965,1.996 4.493,2.010 12.340 C 2.023 20.041,2.023 20.061,2.108 20.428 C 2.311 21.307,2.750 21.725,3.660 21.908 C 3.978 21.972,4.252 21.980,6.000 21.980 C 7.748 21.980,8.022 21.972,8.340 21.908 C 9.282 21.719,9.729 21.270,9.906 20.333 C 9.977 19.958,9.980 19.568,9.980 12.000 C 9.980 4.432,9.977 4.042,9.906 3.667 C 9.742 2.798,9.315 2.318,8.549 2.141 C 8.411 2.109,8.055 2.064,7.759 2.041 C 7.137 1.994,4.782 1.996,4.153 2.044 M16.200 2.039 C 14.799 2.157,14.303 2.556,14.086 3.740 C 14.026 4.067,14.020 4.831,14.020 12.000 C 14.020 19.169,14.026 19.933,14.086 20.260 C 14.279 21.314,14.689 21.724,15.740 21.913 C 16.270 22.008,19.730 22.008,20.260 21.913 C 21.311 21.724,21.710 21.326,21.910 20.267 C 21.975 19.926,21.980 19.335,21.980 12.000 C 21.980 4.665,21.975 4.074,21.910 3.733 C 21.713 2.688,21.310 2.278,20.300 2.094 C 19.928 2.026,16.842 1.985,16.200 2.039 " fill="#1C274C" stroke="none" fill-rule="evenodd"></path></svg>