<svg width="24" height="24" viewBox="0 0 24 24" fill="none" xmlns="http://www.w3.org/2000/svg"><path d="M7.212 2.072 C 6.680 2.262,6.315 2.727,6.111 3.474 C 6.000 3.883,5.993 4.824,6.097 5.300 C 6.313 6.288,6.799 7.152,7.391 7.598 C 7.759 7.875,8.025 7.975,8.400 7.977 C 8.939 7.981,9.352 7.700,9.655 7.125 C 9.899 6.660,9.972 6.316,9.972 5.620 C 9.973 4.802,9.861 4.298,9.516 3.573 C 8.980 2.446,7.983 1.797,7.212 2.072 M15.986 2.077 C 14.400 2.600,13.470 5.460,14.345 7.125 C 14.648 7.700,15.061 7.981,15.600 7.977 C 16.151 7.974,16.678 7.661,17.119 7.075 C 17.696 6.309,17.974 5.433,17.972 4.380 C 17.972 3.684,17.899 3.340,17.655 2.875 C 17.283 2.168,16.641 1.861,15.986 2.077 M2.807 9.643 C 1.851 10.121,1.735 11.739,2.568 12.984 C 3.378 14.195,4.761 14.332,5.283 13.253 C 5.590 12.620,5.538 11.667,5.156 10.893 C 4.619 9.805,3.584 9.255,2.807 9.643 M20.170 9.598 C 19.468 9.851,18.814 10.669,18.602 11.560 C 18.358 12.583,18.646 13.542,19.293 13.859 C 20.345 14.373,21.687 13.269,21.948 11.676 C 22.102 10.739,21.809 9.951,21.193 9.643 C 20.986 9.540,20.902 9.520,20.664 9.521 C 20.490 9.522,20.299 9.552,20.170 9.598 M11.640 10.024 C 10.908 10.159,10.540 10.368,10.066 10.916 C 9.542 11.522,9.052 12.383,7.854 14.800 C 6.570 17.392,6.129 18.320,6.061 18.581 C 5.893 19.226,6.091 19.927,6.580 20.420 C 6.851 20.692,7.116 20.849,7.461 20.939 C 7.910 21.056,7.987 21.043,9.959 20.519 C 11.141 20.206,12.370 20.159,13.477 20.385 C 13.640 20.419,14.207 20.563,14.737 20.705 C 15.267 20.847,15.817 20.974,15.960 20.987 C 16.491 21.034,17.019 20.829,17.420 20.422 C 17.982 19.850,18.145 19.053,17.849 18.317 C 17.697 17.938,15.771 14.015,15.262 13.045 C 14.229 11.080,13.607 10.349,12.769 10.113 C 12.507 10.039,11.841 9.987,11.640 10.024 " fill="#1C274C" stroke="none" fill-rule="evenodd"></path></svg>