<svg width="24" height="24" viewBox="0 0 24 24" fill="none" xmlns="http://www.w3.org/2000/svg"><path d="M17.600 2.025 C 17.021 2.100,16.255 2.400,15.783 2.736 C 15.647 2.834,15.278 3.162,14.964 3.467 L 14.393 4.020 14.518 4.364 C 14.880 5.359,15.599 6.490,16.412 7.348 C 17.251 8.231,18.577 9.105,19.680 9.499 L 19.980 9.606 20.481 9.092 C 21.082 8.475,21.308 8.188,21.539 7.750 C 22.472 5.981,21.898 3.749,20.232 2.664 C 19.793 2.378,19.520 2.257,19.040 2.134 C 18.665 2.038,17.932 1.982,17.600 2.025 M9.115 9.310 C 6.860 11.571,4.914 13.546,4.792 13.700 C 4.494 14.075,4.250 14.461,4.020 14.920 C 3.772 15.415,2.000 20.697,2.000 20.941 C 2.000 21.505,2.495 22.000,3.059 22.000 C 3.313 22.000,8.588 20.227,9.102 19.969 C 10.129 19.453,10.201 19.388,15.232 14.351 L 18.804 10.776 18.402 10.591 C 17.060 9.973,15.721 8.927,14.777 7.760 C 14.224 7.076,13.905 6.579,13.500 5.770 L 13.216 5.200 9.115 9.310 " fill="#1C274C" stroke="none" fill-rule="evenodd"></path></svg>