<svg width="24" height="24" viewBox="0 0 24 24" fill="none" xmlns="http://www.w3.org/2000/svg"><path d="M16.295 2.059 C 15.548 2.195,15.017 2.514,14.249 3.290 L 13.918 3.624 13.976 3.788 C 14.642 5.676,16.324 7.358,18.212 8.024 L 18.376 8.082 18.710 7.751 C 19.545 6.925,19.859 6.363,19.968 5.504 C 20.050 4.850,19.898 4.131,19.551 3.540 C 19.340 3.180,18.820 2.660,18.460 2.449 C 17.805 2.064,17.032 1.925,16.295 2.059 M9.617 7.930 C 6.067 11.491,5.989 11.576,5.616 12.343 C 5.411 12.762,4.000 16.956,4.000 17.144 C 4.000 17.314,4.072 17.514,4.191 17.674 C 4.308 17.832,4.641 17.999,4.840 17.999 C 5.039 18.000,9.215 16.599,9.657 16.384 C 10.424 16.011,10.509 15.933,14.070 12.383 C 15.902 10.557,17.400 9.051,17.400 9.037 C 17.400 9.023,17.198 8.910,16.950 8.787 C 16.127 8.377,15.447 7.885,14.781 7.219 C 14.115 6.553,13.623 5.873,13.213 5.050 C 13.090 4.803,12.977 4.600,12.963 4.600 C 12.949 4.600,11.443 6.099,9.617 7.930 M3.811 21.279 C 3.536 21.344,3.316 21.587,3.260 21.885 C 3.197 22.220,3.450 22.624,3.781 22.715 C 4.007 22.778,19.993 22.778,20.219 22.715 C 20.431 22.657,20.660 22.422,20.719 22.204 C 20.808 21.873,20.689 21.566,20.394 21.372 L 20.226 21.260 12.083 21.254 C 7.604 21.250,3.882 21.262,3.811 21.279 " fill="#1C274C" stroke="none" fill-rule="evenodd"></path></svg>