<svg width="24" height="24" viewBox="0 0 24 24" fill="none" xmlns="http://www.w3.org/2000/svg"><path d="M11.300 2.024 C 10.267 2.130,9.297 2.339,8.537 2.620 C 7.919 2.849,7.069 3.282,6.517 3.649 C 5.317 4.446,4.470 5.292,3.667 6.492 C 2.871 7.684,2.343 9.058,2.113 10.540 C 2.043 10.992,2.026 11.274,2.026 12.000 C 2.026 12.726,2.043 13.008,2.113 13.460 C 2.441 15.571,3.363 17.437,4.837 18.972 C 5.788 19.962,7.208 20.887,8.523 21.374 C 9.075 21.579,9.894 21.787,10.540 21.887 C 11.338 22.011,12.662 22.011,13.460 21.887 C 14.942 21.657,16.316 21.129,17.508 20.333 C 19.030 19.315,20.184 18.007,20.959 16.420 C 21.435 15.446,21.720 14.535,21.887 13.460 C 22.001 12.724,22.010 11.383,21.906 10.660 C 21.815 10.027,21.499 8.729,21.415 8.642 C 21.406 8.633,19.918 10.100,18.109 11.904 C 14.522 15.481,14.522 15.481,13.620 15.924 C 13.058 16.200,9.506 17.405,9.043 17.477 C 8.132 17.618,7.158 17.103,6.741 16.259 C 6.543 15.859,6.460 15.390,6.517 14.990 C 6.582 14.522,7.824 10.862,8.101 10.321 C 8.544 9.455,8.562 9.435,12.096 5.891 C 13.900 4.082,15.367 2.593,15.356 2.582 C 15.318 2.545,14.352 2.280,13.968 2.202 C 13.755 2.159,13.427 2.104,13.240 2.080 C 12.881 2.034,11.571 1.996,11.300 2.024 M18.780 2.043 C 18.207 2.140,17.711 2.415,17.176 2.934 L 16.797 3.300 16.880 3.600 C 16.995 4.018,17.387 4.801,17.672 5.186 C 17.976 5.596,18.404 6.024,18.814 6.328 C 19.198 6.613,19.982 7.004,20.400 7.120 L 20.700 7.203 21.080 6.808 C 21.514 6.356,21.718 6.036,21.864 5.580 C 22.086 4.887,22.029 4.202,21.694 3.521 C 21.542 3.212,21.447 3.082,21.183 2.817 C 20.917 2.551,20.790 2.459,20.479 2.307 C 19.915 2.032,19.359 1.945,18.780 2.043 M12.777 7.330 C 9.867 10.249,9.754 10.374,9.420 11.039 C 9.338 11.203,8.983 12.193,8.633 13.239 C 8.062 14.940,7.998 15.161,8.016 15.336 C 8.054 15.684,8.319 15.947,8.673 15.985 C 8.837 16.002,9.097 15.925,10.761 15.367 C 11.815 15.014,12.804 14.658,12.981 14.569 C 13.637 14.237,13.799 14.091,16.695 11.201 L 19.490 8.412 19.015 8.184 C 17.597 7.502,16.499 6.405,15.819 4.990 C 15.694 4.731,15.589 4.520,15.585 4.520 C 15.581 4.520,14.317 5.785,12.777 7.330 " fill="#1C274C" stroke="none" fill-rule="evenodd"></path></svg>