<svg width="24" height="24" viewBox="0 0 24 24" fill="none" xmlns="http://www.w3.org/2000/svg"><path d="M8.456 2.042 C 5.720 2.141,4.373 2.534,3.435 3.507 C 2.688 4.282,2.317 5.263,2.142 6.927 C 2.046 7.840,2.001 9.469,2.001 12.000 C 2.001 16.100,2.103 17.613,2.459 18.779 C 2.891 20.195,3.805 21.109,5.221 21.541 C 6.387 21.897,7.900 21.999,12.000 21.999 C 16.100 21.999,17.613 21.897,18.779 21.541 C 20.192 21.110,21.115 20.189,21.538 18.787 C 21.785 17.969,21.899 17.046,21.959 15.393 C 22.005 14.147,22.013 10.340,21.974 8.984 L 21.947 8.075 18.384 11.629 C 14.498 15.505,14.528 15.478,13.620 15.924 C 13.058 16.200,9.506 17.405,9.043 17.477 C 8.132 17.618,7.158 17.103,6.741 16.259 C 6.543 15.859,6.460 15.390,6.517 14.990 C 6.582 14.522,7.824 10.862,8.101 10.321 C 8.547 9.449,8.540 9.457,12.371 5.616 L 15.925 2.053 15.016 2.026 C 13.869 1.993,9.522 2.003,8.456 2.042 M18.780 2.043 C 18.207 2.140,17.711 2.415,17.176 2.934 L 16.797 3.300 16.880 3.600 C 16.995 4.018,17.387 4.801,17.672 5.186 C 17.976 5.596,18.404 6.024,18.814 6.328 C 19.198 6.613,19.982 7.004,20.400 7.120 L 20.700 7.203 21.080 6.808 C 21.514 6.356,21.718 6.036,21.864 5.580 C 22.086 4.887,22.029 4.202,21.694 3.521 C 21.542 3.212,21.447 3.082,21.183 2.817 C 20.917 2.551,20.790 2.459,20.479 2.307 C 19.915 2.032,19.359 1.945,18.780 2.043 M12.777 7.330 C 9.867 10.249,9.754 10.374,9.420 11.039 C 9.338 11.203,8.983 12.193,8.633 13.239 C 8.062 14.940,7.998 15.161,8.016 15.336 C 8.054 15.684,8.319 15.947,8.673 15.985 C 8.837 16.002,9.097 15.925,10.761 15.367 C 11.815 15.014,12.804 14.658,12.981 14.569 C 13.637 14.237,13.799 14.091,16.695 11.201 L 19.490 8.412 19.015 8.184 C 17.597 7.502,16.499 6.405,15.819 4.990 C 15.694 4.731,15.589 4.520,15.585 4.520 C 15.581 4.520,14.317 5.785,12.777 7.330 " fill="#1C274C" stroke="none" fill-rule="evenodd"></path></svg>