<svg width="24" height="24" viewBox="0 0 24 24" fill="none" xmlns="http://www.w3.org/2000/svg"><path d="M11.656 1.281 C 10.735 1.405,9.941 1.968,9.544 2.777 C 9.335 3.203,9.264 3.514,9.264 4.000 C 9.264 4.485,9.335 4.797,9.543 5.221 C 9.885 5.918,10.544 6.455,11.320 6.665 C 11.671 6.761,12.330 6.760,12.680 6.665 C 13.464 6.450,14.141 5.892,14.478 5.183 C 14.666 4.787,14.736 4.467,14.736 4.000 C 14.736 3.343,14.561 2.831,14.161 2.312 C 13.585 1.567,12.586 1.156,11.656 1.281 M6.033 7.957 C 5.603 8.125,5.266 8.447,5.115 8.832 C 4.991 9.149,4.991 9.650,5.114 9.966 C 5.218 10.230,5.466 10.528,5.715 10.685 C 5.813 10.748,6.506 11.002,7.280 11.260 C 8.471 11.657,8.693 11.743,8.836 11.866 C 9.077 12.072,9.176 12.284,9.178 12.600 C 9.179 12.843,9.132 12.982,8.445 14.760 C 7.630 16.866,7.605 16.961,7.739 17.422 C 7.883 17.918,8.295 18.329,8.762 18.440 C 9.263 18.561,9.836 18.408,10.178 18.063 C 10.281 17.959,10.636 17.380,11.156 16.470 C 11.604 15.683,11.984 15.040,12.000 15.040 C 12.016 15.040,12.396 15.683,12.844 16.470 C 13.364 17.380,13.719 17.959,13.822 18.063 C 14.164 18.408,14.737 18.561,15.238 18.440 C 15.705 18.329,16.117 17.918,16.261 17.422 C 16.395 16.961,16.370 16.866,15.555 14.760 C 14.868 12.982,14.821 12.843,14.822 12.600 C 14.824 12.290,14.917 12.084,15.151 11.872 C 15.289 11.749,15.482 11.673,16.664 11.280 C 18.140 10.789,18.248 10.745,18.479 10.536 C 19.286 9.807,19.104 8.512,18.128 8.031 C 17.694 7.817,17.484 7.826,16.140 8.114 C 15.524 8.246,14.875 8.381,14.698 8.415 C 13.040 8.726,10.960 8.726,9.302 8.415 C 9.125 8.381,8.480 8.248,7.869 8.117 C 6.653 7.858,6.354 7.831,6.033 7.957 M6.780 13.664 C 5.082 14.129,3.717 14.834,2.880 15.678 C 2.435 16.127,2.201 16.508,2.081 16.977 C 1.979 17.375,1.979 17.625,2.081 18.023 C 2.312 18.926,3.181 19.797,4.540 20.487 C 7.614 22.048,12.720 22.444,16.800 21.438 C 18.741 20.960,20.210 20.240,21.120 19.322 C 21.907 18.528,22.157 17.719,21.885 16.846 C 21.579 15.863,20.409 14.870,18.749 14.183 C 18.116 13.921,16.791 13.516,16.738 13.569 C 16.728 13.579,16.947 14.178,17.225 14.901 C 17.780 16.347,17.860 16.651,17.825 17.185 C 17.784 17.828,17.571 18.380,17.165 18.891 C 16.633 19.560,15.873 19.945,15.000 19.988 C 13.856 20.043,12.846 19.480,12.243 18.450 C 12.124 18.247,12.015 18.080,12.000 18.080 C 11.985 18.080,11.876 18.247,11.757 18.450 C 11.392 19.072,10.871 19.531,10.238 19.787 C 9.465 20.099,8.552 20.059,7.800 19.680 C 6.655 19.103,5.979 17.762,6.212 16.534 C 6.251 16.331,6.457 15.730,6.755 14.954 C 7.019 14.264,7.248 13.668,7.262 13.630 C 7.297 13.537,7.228 13.542,6.780 13.664 " fill="#1C274C" stroke="none" fill-rule="evenodd"></path></svg>