<svg width="24" height="24" viewBox="0 0 24 24" fill="none" xmlns="http://www.w3.org/2000/svg"><path d="M8.536 2.040 C 7.958 2.100,7.683 2.207,7.432 2.467 C 7.282 2.622,7.149 2.878,7.102 3.104 L 7.076 3.228 7.428 3.251 C 8.136 3.297,8.535 3.569,8.696 4.117 C 8.830 4.574,8.737 5.008,8.432 5.342 C 8.177 5.620,7.924 5.719,7.390 5.750 L 7.000 5.772 7.000 6.130 C 7.000 6.417,7.011 6.484,7.055 6.467 C 7.361 6.350,8.011 6.195,8.620 6.094 C 9.243 5.991,10.757 5.991,11.380 6.094 C 11.989 6.195,12.639 6.350,12.945 6.467 C 12.989 6.484,13.000 6.416,13.000 6.120 L 13.000 5.752 14.030 5.771 C 15.336 5.795,15.533 5.844,16.703 6.431 L 17.106 6.634 17.157 6.921 C 17.218 7.261,17.444 7.732,17.688 8.027 C 18.059 8.475,18.692 8.872,19.280 9.026 C 19.606 9.112,20.266 9.121,20.540 9.044 C 21.539 8.763,22.052 7.913,21.819 6.924 C 21.653 6.223,21.064 5.536,20.292 5.146 C 19.534 4.762,18.523 4.767,17.909 5.158 L 17.718 5.280 17.198 5.019 C 15.946 4.392,15.266 4.242,13.655 4.241 L 13.010 4.240 12.982 3.850 C 12.928 3.064,12.830 2.738,12.568 2.467 C 12.201 2.086,11.938 2.036,10.220 2.019 C 9.472 2.012,8.714 2.021,8.536 2.040 M9.174 7.044 C 6.465 7.285,3.950 8.946,2.788 11.260 C 2.607 11.620,2.391 12.125,2.410 12.143 C 2.416 12.149,2.609 12.234,2.840 12.333 C 3.071 12.431,3.683 12.715,4.200 12.962 C 5.972 13.809,6.872 14.112,7.997 14.240 C 8.612 14.309,9.342 14.203,10.090 13.934 C 10.249 13.877,10.785 13.650,11.280 13.430 C 12.884 12.716,13.397 12.569,14.400 12.533 C 14.865 12.516,15.131 12.526,15.464 12.576 C 16.028 12.659,16.900 12.873,17.435 13.060 C 17.663 13.139,17.857 13.196,17.868 13.186 C 17.898 13.155,17.648 12.263,17.516 11.929 C 16.895 10.364,15.779 9.067,14.275 8.166 C 12.797 7.280,10.988 6.882,9.174 7.044 M2.018 14.069 C 1.922 15.445,2.321 17.023,3.070 18.229 C 3.510 18.937,4.204 19.737,4.658 20.059 C 5.180 20.429,6.031 20.785,6.696 20.911 C 7.020 20.972,7.385 20.980,10.000 20.980 C 12.615 20.980,12.980 20.972,13.304 20.911 C 13.969 20.785,14.820 20.429,15.342 20.059 C 15.796 19.737,16.490 18.937,16.930 18.229 C 17.473 17.354,17.871 16.192,17.945 15.260 L 17.970 14.939 17.535 14.732 C 16.603 14.288,15.174 13.961,14.412 14.016 C 13.704 14.068,13.174 14.231,11.946 14.777 C 10.623 15.366,10.271 15.494,9.560 15.646 C 7.985 15.983,6.009 15.550,3.599 14.340 C 3.159 14.118,2.259 13.704,2.134 13.664 C 2.051 13.638,2.047 13.651,2.018 14.069 " fill="#1C274C" stroke="none" fill-rule="evenodd"></path></svg>