<svg width="24" height="24" viewBox="0 0 24 24" fill="none" xmlns="http://www.w3.org/2000/svg"><path d="M7.340 4.026 C 6.621 4.142,6.015 4.464,5.457 5.027 C 4.833 5.657,4.348 6.435,4.138 7.143 C 3.857 8.089,4.020 9.906,4.520 11.403 C 5.041 12.964,5.901 14.405,7.109 15.740 C 9.067 17.904,11.358 19.303,13.752 19.797 C 14.853 20.024,16.175 20.061,16.800 19.881 C 17.952 19.551,19.232 18.530,19.686 17.580 C 19.919 17.092,19.980 16.816,19.980 16.260 C 19.979 15.713,19.894 15.362,19.660 14.939 C 19.368 14.413,19.087 14.183,18.000 13.584 C 17.179 13.131,16.920 13.039,16.400 13.012 C 15.622 12.972,14.920 13.232,14.258 13.805 C 14.109 13.934,13.909 14.064,13.805 14.100 C 13.012 14.373,12.122 14.025,11.106 13.042 C 10.242 12.206,9.825 11.451,9.824 10.720 C 9.824 10.434,9.841 10.342,9.933 10.144 C 9.992 10.014,10.109 9.834,10.192 9.744 C 10.971 8.898,11.215 7.677,10.797 6.723 C 10.606 6.286,9.897 5.070,9.714 4.865 C 9.258 4.353,8.585 4.046,7.863 4.021 C 7.642 4.013,7.406 4.015,7.340 4.026 " fill="#1C274C" stroke="none" fill-rule="evenodd"></path></svg>