<svg width="24" height="24" viewBox="0 0 24 24" fill="none" xmlns="http://www.w3.org/2000/svg"><path d="M13.826 1.284 C 13.489 1.364,13.276 1.626,13.270 1.970 C 13.263 2.353,13.471 2.619,13.860 2.725 C 15.092 3.059,16.311 3.699,17.440 4.602 C 17.979 5.033,18.967 6.021,19.398 6.560 C 20.270 7.649,20.956 8.927,21.219 9.953 C 21.327 10.373,21.441 10.553,21.668 10.662 C 22.158 10.896,22.730 10.541,22.726 10.006 C 22.724 9.738,22.587 9.227,22.372 8.680 C 21.781 7.184,20.840 5.796,19.522 4.478 C 18.203 3.159,16.816 2.219,15.316 1.627 C 14.602 1.345,14.077 1.224,13.826 1.284 M7.340 4.026 C 6.621 4.142,6.015 4.464,5.457 5.027 C 4.833 5.657,4.348 6.435,4.138 7.143 C 3.857 8.089,4.020 9.906,4.520 11.403 C 5.041 12.964,5.901 14.405,7.109 15.740 C 9.067 17.904,11.358 19.303,13.752 19.797 C 14.853 20.024,16.175 20.061,16.800 19.881 C 17.952 19.551,19.232 18.530,19.686 17.580 C 19.919 17.092,19.980 16.816,19.980 16.260 C 19.979 15.713,19.894 15.362,19.660 14.939 C 19.368 14.413,19.087 14.183,18.000 13.584 C 17.179 13.131,16.920 13.039,16.400 13.012 C 15.622 12.972,14.920 13.232,14.258 13.805 C 14.109 13.934,13.909 14.064,13.805 14.100 C 13.012 14.373,12.122 14.025,11.106 13.042 C 10.242 12.206,9.825 11.451,9.824 10.720 C 9.824 10.434,9.841 10.342,9.933 10.144 C 9.992 10.014,10.109 9.834,10.192 9.744 C 10.971 8.898,11.215 7.677,10.797 6.723 C 10.606 6.286,9.897 5.070,9.714 4.865 C 9.258 4.353,8.585 4.046,7.863 4.021 C 7.642 4.013,7.406 4.015,7.340 4.026 M13.899 4.856 C 13.752 4.920,13.530 5.165,13.496 5.303 C 13.482 5.358,13.478 5.501,13.488 5.619 C 13.515 5.937,13.649 6.091,14.069 6.284 C 14.774 6.608,15.449 7.127,16.281 7.984 C 16.985 8.709,17.513 9.428,17.703 9.920 C 17.852 10.306,18.117 10.517,18.457 10.519 C 18.894 10.522,19.252 10.102,19.183 9.668 C 19.124 9.302,18.673 8.505,18.126 7.800 C 17.766 7.337,16.867 6.421,16.380 6.022 C 15.203 5.058,14.353 4.658,13.899 4.856 " fill="#1C274C" stroke="none" fill-rule="evenodd"></path></svg>