<svg width="24" height="24" viewBox="0 0 24 24" fill="none" xmlns="http://www.w3.org/2000/svg"><path d="M13.826 1.284 C 13.489 1.364,13.276 1.626,13.270 1.970 C 13.263 2.353,13.471 2.619,13.860 2.725 C 15.092 3.059,16.311 3.699,17.440 4.602 C 17.979 5.033,18.967 6.021,19.398 6.560 C 20.270 7.649,20.956 8.927,21.219 9.953 C 21.327 10.373,21.441 10.553,21.668 10.662 C 22.166 10.900,22.733 10.540,22.725 9.989 C 22.717 9.414,22.230 8.177,21.583 7.089 C 21.029 6.157,20.384 5.340,19.522 4.478 C 18.203 3.159,16.816 2.219,15.316 1.627 C 14.602 1.345,14.077 1.224,13.826 1.284 M6.240 3.056 C 5.947 3.121,5.583 3.314,5.352 3.527 C 4.916 3.930,3.472 5.502,3.341 5.719 C 3.072 6.162,3.023 6.354,3.026 6.960 C 3.033 8.242,3.546 10.057,4.360 11.681 C 5.592 14.135,7.832 16.807,10.062 18.483 C 11.776 19.771,13.544 20.557,15.464 20.887 C 15.890 20.960,16.137 20.976,16.880 20.977 C 17.716 20.978,17.799 20.972,18.040 20.887 C 18.493 20.728,18.771 20.501,19.665 19.556 C 20.124 19.071,20.565 18.578,20.645 18.460 C 20.954 18.005,21.073 17.335,20.943 16.783 C 20.836 16.329,20.660 16.017,20.321 15.680 C 20.051 15.412,19.902 15.314,18.920 14.755 C 18.315 14.411,17.730 14.096,17.620 14.055 C 17.465 13.997,17.312 13.980,16.938 13.980 C 16.459 13.980,16.454 13.981,16.138 14.135 C 15.876 14.264,15.749 14.363,15.413 14.704 C 15.049 15.072,14.981 15.123,14.775 15.183 C 14.067 15.389,12.988 14.873,11.780 13.751 C 9.969 12.070,8.932 10.430,9.011 9.376 C 9.038 9.022,9.103 8.893,9.425 8.550 C 9.852 8.095,10.040 7.620,10.040 6.994 C 10.040 6.512,9.908 6.103,9.612 5.668 C 8.923 4.655,8.223 3.712,8.034 3.541 C 7.544 3.099,6.868 2.916,6.240 3.056 M13.899 4.856 C 13.752 4.920,13.530 5.165,13.496 5.303 C 13.482 5.358,13.478 5.501,13.488 5.619 C 13.515 5.937,13.649 6.091,14.069 6.284 C 14.774 6.608,15.449 7.127,16.281 7.984 C 16.985 8.709,17.513 9.428,17.703 9.920 C 17.852 10.306,18.117 10.517,18.457 10.519 C 18.894 10.522,19.252 10.102,19.183 9.668 C 19.147 9.444,18.892 8.912,18.618 8.490 C 17.807 7.244,16.371 5.857,15.180 5.170 C 14.585 4.827,14.189 4.730,13.899 4.856 " fill="#1C274C" stroke="none" fill-rule="evenodd"></path></svg>