<svg width="24" height="24" viewBox="0 0 24 24" fill="none" xmlns="http://www.w3.org/2000/svg"><path d="M7.185 2.061 C 6.702 2.183,6.523 2.318,5.510 3.316 C 4.962 3.856,4.484 4.364,4.380 4.516 C 4.042 5.013,3.954 5.434,4.038 6.164 C 4.213 7.687,4.823 9.350,5.796 10.955 C 6.606 12.290,7.620 13.543,8.925 14.822 C 10.286 16.155,11.508 17.038,13.020 17.782 C 14.787 18.650,16.480 19.048,18.160 18.989 C 19.268 18.949,19.398 18.879,20.630 17.664 C 21.142 17.159,21.616 16.661,21.682 16.557 C 22.196 15.757,22.064 14.696,21.364 14.004 C 21.127 13.770,20.971 13.672,19.979 13.137 C 18.707 12.451,18.613 12.409,18.235 12.362 C 17.540 12.275,17.011 12.473,16.422 13.041 C 15.957 13.489,15.867 13.536,15.460 13.538 C 14.610 13.543,13.515 12.898,12.205 11.620 C 11.274 10.712,10.685 9.970,10.331 9.260 C 10.082 8.761,10.023 8.547,10.021 8.140 C 10.020 7.701,10.058 7.619,10.458 7.198 C 10.885 6.749,11.039 6.374,11.040 5.774 C 11.040 5.420,10.948 5.057,10.788 4.779 C 10.625 4.496,9.259 2.705,9.091 2.555 C 8.594 2.106,7.808 1.903,7.185 2.061 " fill="#1C274C" stroke="none" fill-rule="evenodd"></path></svg>