<svg width="24" height="24" viewBox="0 0 24 24" fill="none" xmlns="http://www.w3.org/2000/svg"><path d="M14.178 1.659 C 13.824 1.837,13.676 2.209,13.815 2.574 C 13.928 2.869,14.038 2.938,14.779 3.179 C 17.697 4.129,19.871 6.303,20.821 9.220 C 20.953 9.627,21.076 9.933,21.130 9.992 C 21.292 10.165,21.511 10.251,21.744 10.231 C 22.027 10.208,22.214 10.076,22.346 9.810 C 22.476 9.546,22.462 9.430,22.202 8.640 C 21.213 5.636,18.914 3.185,16.000 2.028 C 15.457 1.812,14.641 1.560,14.486 1.560 C 14.425 1.560,14.287 1.605,14.178 1.659 M9.790 2.203 C 9.340 2.269,8.115 2.747,7.320 3.166 C 3.445 5.211,1.353 9.583,2.186 13.897 C 2.958 17.898,6.098 21.039,10.103 21.815 C 14.428 22.653,18.796 20.550,20.854 16.640 C 21.122 16.129,21.569 15.063,21.708 14.600 C 21.846 14.142,21.853 13.638,21.727 13.316 C 21.535 12.828,21.130 12.404,20.702 12.244 C 20.160 12.042,19.980 12.030,16.860 11.999 C 14.129 11.972,13.916 11.965,13.572 11.889 C 12.940 11.748,12.537 11.468,12.302 11.004 C 12.046 10.500,12.000 9.880,12.000 6.960 C 12.000 4.129,11.966 3.725,11.678 3.133 C 11.465 2.695,10.921 2.297,10.405 2.200 C 10.164 2.155,10.117 2.156,9.790 2.203 " fill="#1C274C" stroke="none" fill-rule="evenodd"></path></svg>