<svg width="24" height="24" viewBox="0 0 24 24" fill="none" xmlns="http://www.w3.org/2000/svg"><path d="M12.944 2.061 C 12.519 2.169,12.206 2.353,11.860 2.700 C 11.503 3.057,11.319 3.341,11.182 3.748 C 10.999 4.287,10.994 4.408,11.008 8.220 L 11.020 11.820 11.147 12.088 C 11.309 12.429,11.571 12.691,11.912 12.853 L 12.180 12.980 15.817 12.991 C 19.013 13.001,19.497 12.994,19.797 12.938 C 20.606 12.787,21.298 12.325,21.680 11.680 C 21.905 11.301,21.979 11.016,21.975 10.540 C 21.973 10.196,21.951 10.073,21.823 9.660 C 20.714 6.092,17.875 3.255,14.340 2.180 C 13.769 2.007,13.313 1.968,12.944 2.061 M8.180 3.299 C 8.070 3.329,7.773 3.437,7.520 3.539 C 4.538 4.739,2.321 7.280,1.545 10.386 C 0.950 12.767,1.259 15.270,2.422 17.471 C 2.878 18.335,3.432 19.076,4.178 19.822 C 4.724 20.369,5.131 20.704,5.749 21.116 C 7.787 22.473,10.386 23.023,12.840 22.617 C 15.962 22.099,18.695 20.085,20.112 17.255 C 20.345 16.790,20.664 15.997,20.725 15.729 C 20.864 15.126,20.257 14.621,19.698 14.875 C 19.465 14.981,19.350 15.141,19.204 15.565 C 19.133 15.771,18.952 16.192,18.802 16.500 C 17.380 19.416,14.462 21.240,11.220 21.240 C 7.965 21.240,5.044 19.419,3.618 16.500 C 2.737 14.699,2.527 12.627,3.025 10.661 C 3.321 9.491,3.964 8.257,4.776 7.300 C 5.714 6.194,7.057 5.276,8.435 4.797 C 8.859 4.649,9.019 4.535,9.125 4.302 C 9.215 4.103,9.219 3.924,9.138 3.729 C 8.978 3.345,8.610 3.180,8.180 3.299 " fill="#1C274C" stroke="none" fill-rule="evenodd"></path></svg>