<svg width="24" height="24" viewBox="0 0 24 24" fill="none" xmlns="http://www.w3.org/2000/svg"><path d="M15.880 2.444 C 15.261 2.550,14.651 3.037,14.330 3.680 C 14.016 4.309,14.025 4.220,14.010 6.792 C 13.994 9.425,13.989 9.383,14.303 9.697 C 14.617 10.011,14.575 10.006,17.208 9.990 C 19.774 9.975,19.684 9.984,20.316 9.675 C 20.970 9.354,21.448 8.744,21.559 8.087 C 21.640 7.607,21.526 7.165,21.113 6.353 C 20.328 4.812,19.004 3.530,17.420 2.777 C 16.746 2.456,16.331 2.366,15.880 2.444 M8.937 3.298 C 8.333 3.480,7.089 4.059,6.465 4.448 C 5.418 5.102,4.327 6.148,3.649 7.147 C 2.863 8.306,2.336 9.660,2.093 11.140 C 1.992 11.762,1.992 13.241,2.094 13.860 C 2.367 15.516,2.949 16.914,3.903 18.200 C 4.303 18.739,5.261 19.697,5.800 20.097 C 7.094 21.057,8.531 21.653,10.160 21.906 C 10.802 22.006,12.199 22.006,12.840 21.906 C 14.554 21.639,16.083 20.983,17.385 19.955 C 18.294 19.238,19.150 18.245,19.735 17.228 C 20.101 16.592,20.606 15.441,20.740 14.940 C 20.973 14.063,20.572 13.165,19.781 12.795 C 19.277 12.559,19.217 12.554,16.360 12.519 C 13.786 12.488,13.369 12.466,12.869 12.338 C 12.193 12.163,11.792 11.722,11.619 10.960 C 11.561 10.703,11.547 10.283,11.520 8.020 C 11.500 6.372,11.471 5.262,11.441 5.065 C 11.305 4.154,11.001 3.693,10.320 3.364 C 10.048 3.234,9.984 3.219,9.640 3.210 C 9.333 3.203,9.198 3.219,8.937 3.298 " fill="#1C274C" stroke="none" fill-rule="evenodd"></path></svg>