<svg width="24" height="24" viewBox="0 0 24 24" fill="none" xmlns="http://www.w3.org/2000/svg"><path d="M8.041 2.046 C 6.952 2.160,5.775 2.610,4.840 3.272 C 4.356 3.615,3.617 4.353,3.271 4.840 C 2.393 6.076,1.955 7.549,2.014 9.060 C 2.069 10.484,2.516 11.732,3.394 12.920 C 3.516 13.085,4.274 13.882,5.078 14.692 L 6.539 16.164 6.700 16.139 C 7.038 16.087,7.619 15.914,8.050 15.738 C 10.245 14.842,12.486 13.031,14.149 10.810 C 15.187 9.422,15.960 7.825,16.138 6.700 L 16.164 6.539 14.712 5.096 C 12.961 3.355,12.549 3.029,11.533 2.582 C 10.442 2.102,9.254 1.919,8.041 2.046 M17.375 7.950 C 17.327 8.147,16.936 9.091,16.748 9.464 C 15.036 12.868,11.622 16.017,8.311 17.246 C 8.052 17.342,7.841 17.430,7.841 17.443 C 7.840 17.455,8.511 18.130,9.330 18.943 C 10.835 20.435,11.090 20.655,11.807 21.082 C 13.691 22.204,16.162 22.289,18.180 21.302 C 19.555 20.629,20.629 19.555,21.302 18.180 C 22.268 16.206,22.213 13.844,21.157 11.940 C 20.734 11.177,20.491 10.891,18.943 9.330 C 18.131 8.511,17.451 7.840,17.434 7.840 C 17.416 7.840,17.389 7.890,17.375 7.950 " fill="#1C274C" stroke="none" fill-rule="evenodd"></path></svg>