<svg width="24" height="24" viewBox="0 0 24 24" fill="none" xmlns="http://www.w3.org/2000/svg"><path d="M10.780 2.040 C 9.022 2.262,7.426 3.363,6.631 4.903 C 6.224 5.692,6.047 6.359,6.013 7.240 C 5.978 8.150,6.141 8.941,6.538 9.785 C 6.884 10.519,7.198 10.904,8.531 12.234 L 9.508 13.208 9.844 13.139 C 10.985 12.907,12.385 12.135,13.660 11.038 C 14.051 10.701,14.822 9.923,15.146 9.540 C 16.161 8.336,16.917 6.934,17.139 5.844 L 17.208 5.508 16.254 4.552 C 14.954 3.248,14.556 2.920,13.847 2.563 C 13.527 2.402,12.876 2.185,12.460 2.100 C 12.081 2.023,11.174 1.990,10.780 2.040 M13.340 4.330 C 13.505 4.413,15.089 6.020,15.164 6.180 C 15.289 6.448,15.240 6.801,15.048 7.013 C 14.849 7.234,14.439 7.304,14.168 7.163 C 14.006 7.079,12.401 5.481,12.318 5.320 C 12.233 5.155,12.253 4.793,12.356 4.626 C 12.462 4.456,12.640 4.320,12.815 4.277 C 12.956 4.243,13.219 4.269,13.340 4.330 M18.323 7.150 C 18.013 7.978,17.423 9.029,16.807 9.852 C 15.393 11.740,13.414 13.360,11.546 14.158 C 11.301 14.263,11.033 14.371,10.950 14.397 C 10.867 14.424,10.800 14.460,10.800 14.476 C 10.800 14.553,13.088 16.760,13.387 16.972 C 15.329 18.349,17.866 18.328,19.809 16.920 C 20.128 16.689,20.689 16.128,20.920 15.809 C 21.188 15.440,21.466 14.941,21.606 14.580 C 22.304 12.772,22.043 10.840,20.889 9.280 C 20.690 9.011,18.541 6.800,18.479 6.800 C 18.465 6.800,18.395 6.958,18.323 7.150 M4.979 10.822 C 3.971 11.429,3.186 12.264,2.665 13.283 C 1.677 15.215,1.815 17.529,3.025 19.340 C 4.703 21.852,8.022 22.713,10.717 21.335 C 11.736 20.814,12.571 20.029,13.178 19.021 C 13.256 18.891,13.320 18.766,13.320 18.742 C 13.319 18.719,13.189 18.625,13.030 18.534 C 12.369 18.156,12.098 17.905,9.096 14.904 C 6.095 11.902,5.844 11.631,5.466 10.970 C 5.375 10.811,5.281 10.681,5.258 10.680 C 5.234 10.680,5.109 10.744,4.979 10.822 " fill="#1C274C" stroke="none" fill-rule="evenodd"></path></svg>