<svg width="24" height="24" viewBox="0 0 24 24" fill="none" xmlns="http://www.w3.org/2000/svg"><path d="M7.500 2.028 C 6.643 2.139,5.888 2.409,5.252 2.830 L 5.035 2.975 8.527 6.467 L 12.020 9.960 12.091 9.870 C 12.349 9.544,12.701 8.788,12.836 8.266 C 13.229 6.757,12.886 5.115,11.926 3.912 C 11.102 2.879,9.895 2.200,8.601 2.042 C 8.275 2.002,7.751 1.995,7.500 2.028 M3.829 4.255 C 2.721 5.923,2.742 8.123,3.881 9.824 C 4.148 10.223,4.769 10.847,5.160 11.108 C 6.062 11.712,6.916 11.974,7.980 11.976 C 9.032 11.977,9.922 11.718,10.748 11.170 L 10.965 11.025 7.473 7.533 C 5.552 5.612,3.978 4.040,3.976 4.040 C 3.973 4.040,3.907 4.137,3.829 4.255 M16.500 12.025 C 14.522 12.240,12.848 13.600,12.249 15.480 C 12.182 15.689,12.115 15.945,12.099 16.050 L 12.071 16.240 17.000 16.240 L 21.929 16.240 21.901 16.050 C 21.856 15.745,21.644 15.128,21.459 14.760 C 20.779 13.408,19.542 12.452,18.040 12.117 C 17.705 12.042,16.826 11.990,16.500 12.025 M12.099 17.950 C 12.144 18.255,12.356 18.872,12.541 19.240 C 13.232 20.615,14.491 21.573,16.042 21.903 C 16.510 22.003,17.490 22.003,17.958 21.903 C 19.509 21.573,20.768 20.615,21.459 19.240 C 21.644 18.872,21.856 18.255,21.901 17.950 L 21.929 17.760 17.000 17.760 L 12.071 17.760 12.099 17.950 " fill="#1C274C" stroke="none" fill-rule="evenodd"></path></svg>