<svg width="24" height="24" viewBox="0 0 24 24" fill="none" xmlns="http://www.w3.org/2000/svg"><path d="M16.316 2.057 C 15.187 2.294,14.347 3.070,13.995 4.200 C 13.861 4.630,13.860 5.370,13.994 5.798 C 14.391 7.069,15.424 7.904,16.700 7.987 C 18.093 8.076,19.376 7.152,19.766 5.778 C 19.893 5.331,19.893 4.669,19.766 4.222 C 19.531 3.395,18.956 2.692,18.211 2.323 C 17.667 2.052,16.871 1.941,16.316 2.057 M5.900 5.045 C 4.753 5.188,3.619 5.856,2.896 6.814 C 2.533 7.295,2.189 8.065,2.101 8.590 L 2.073 8.760 6.496 8.760 C 10.120 8.760,10.920 8.751,10.920 8.708 C 10.920 8.593,10.747 8.004,10.634 7.731 C 10.472 7.343,10.025 6.678,9.714 6.363 C 8.702 5.341,7.329 4.867,5.900 5.045 M2.080 10.316 C 2.080 10.357,2.126 10.550,2.183 10.745 C 2.965 13.444,6.021 14.782,8.520 13.519 C 9.123 13.215,9.704 12.721,10.142 12.140 C 10.468 11.709,10.920 10.649,10.920 10.316 C 10.920 10.242,10.806 10.240,6.500 10.240 C 2.194 10.240,2.080 10.242,2.080 10.316 M17.753 11.040 C 16.779 11.195,16.210 11.520,15.227 12.479 L 14.589 13.102 14.690 13.583 C 14.912 14.637,15.444 15.529,16.458 16.542 C 17.471 17.556,18.363 18.088,19.417 18.310 L 19.898 18.411 20.521 17.773 C 21.376 16.897,21.694 16.394,21.888 15.612 C 22.010 15.116,22.010 14.363,21.886 13.860 C 21.699 13.099,21.203 12.318,20.600 11.835 C 20.226 11.535,19.606 11.228,19.160 11.121 C 18.769 11.027,18.084 10.988,17.753 11.040 M12.596 15.109 C 11.825 15.894,11.596 16.187,11.360 16.691 C 11.110 17.224,11.023 17.639,11.026 18.280 C 11.028 18.729,11.045 18.886,11.131 19.208 C 11.474 20.495,12.504 21.526,13.792 21.869 C 14.116 21.956,14.268 21.973,14.720 21.974 C 15.552 21.976,16.158 21.793,16.852 21.332 C 17.166 21.123,18.622 19.724,18.571 19.680 C 18.554 19.665,18.423 19.612,18.280 19.561 C 17.941 19.442,17.395 19.167,16.964 18.900 C 15.961 18.277,14.715 17.028,14.087 16.016 C 13.833 15.605,13.556 15.052,13.439 14.720 C 13.388 14.577,13.335 14.446,13.321 14.429 C 13.306 14.412,12.980 14.718,12.596 15.109 " fill="#1C274C" stroke="none" fill-rule="evenodd"></path></svg>