<svg width="24" height="24" viewBox="0 0 24 24" fill="none" xmlns="http://www.w3.org/2000/svg"><path d="M11.967 2.060 C 11.379 2.225,10.919 2.722,10.406 3.748 C 10.135 4.289,9.884 4.880,8.922 7.241 C 7.922 9.697,7.838 9.873,7.500 10.197 C 7.163 10.521,6.982 10.598,5.583 11.018 C 3.526 11.635,3.120 11.846,2.845 12.440 C 2.764 12.616,2.743 12.724,2.742 12.980 C 2.738 13.611,2.957 13.912,4.728 15.702 L 5.956 16.944 4.038 18.862 C 1.970 20.929,1.968 20.931,2.009 21.296 C 2.066 21.795,2.590 22.122,3.050 21.946 C 3.185 21.894,3.617 21.483,5.138 19.962 L 7.056 18.044 8.298 19.272 C 9.641 20.600,10.038 20.945,10.440 21.137 C 10.666 21.244,10.742 21.260,11.020 21.258 C 11.261 21.256,11.389 21.233,11.538 21.166 C 12.154 20.890,12.361 20.496,12.981 18.420 C 13.171 17.782,13.389 17.133,13.464 16.978 C 13.632 16.633,13.956 16.303,14.320 16.106 C 14.463 16.029,15.516 15.584,16.660 15.118 C 19.876 13.808,20.357 13.592,20.984 13.177 C 22.152 12.405,22.305 11.423,21.438 10.260 C 20.985 9.652,20.434 9.074,17.720 6.359 C 14.876 3.513,14.320 2.986,13.687 2.531 C 13.051 2.074,12.477 1.917,11.967 2.060 " fill="#1C274C" stroke="none" fill-rule="evenodd"></path></svg>