<svg width="24" height="24" viewBox="0 0 24 24" fill="none" xmlns="http://www.w3.org/2000/svg"><path d="M11.120 2.039 C 9.316 2.220,7.707 2.807,6.280 3.806 C 2.738 6.286,1.178 10.759,2.422 14.865 C 2.918 16.499,3.728 17.850,4.939 19.061 C 5.928 20.050,7.038 20.788,8.272 21.278 C 11.634 22.610,15.313 22.080,18.200 19.845 C 18.637 19.507,19.507 18.637,19.845 18.200 C 21.255 16.379,22.000 14.234,22.000 12.000 C 22.000 7.432,18.842 3.387,14.430 2.303 C 13.446 2.062,12.028 1.948,11.120 2.039 M13.000 6.125 C 13.121 6.182,13.337 6.315,13.480 6.422 C 13.819 6.673,17.327 10.181,17.578 10.520 C 17.856 10.893,17.974 11.169,17.993 11.487 C 18.017 11.897,17.925 12.122,17.604 12.442 C 17.258 12.786,16.945 12.943,15.340 13.579 C 14.636 13.858,13.984 14.131,13.891 14.184 C 13.619 14.342,13.529 14.500,13.336 15.161 C 13.239 15.493,13.122 15.838,13.076 15.928 C 12.949 16.176,12.669 16.453,12.411 16.583 C 12.201 16.689,12.143 16.700,11.780 16.700 C 11.193 16.700,11.080 16.635,10.233 15.808 L 9.556 15.146 8.648 16.049 C 7.673 17.018,7.615 17.058,7.354 16.948 C 7.190 16.878,7.085 16.766,7.044 16.614 C 6.973 16.349,7.028 16.272,7.965 15.335 L 8.855 14.445 8.193 13.767 C 7.371 12.926,7.300 12.805,7.300 12.240 C 7.300 11.908,7.314 11.830,7.412 11.620 C 7.547 11.332,7.792 11.068,8.048 10.937 C 8.152 10.884,8.476 10.770,8.768 10.684 C 9.437 10.487,9.476 10.472,9.634 10.339 C 9.806 10.194,9.828 10.147,10.440 8.620 C 10.730 7.894,11.042 7.156,11.132 6.980 C 11.336 6.583,11.734 6.164,12.000 6.068 C 12.272 5.969,12.722 5.995,13.000 6.125 " fill="#1C274C" stroke="none" fill-rule="evenodd"></path></svg>