<svg width="24" height="24" viewBox="0 0 24 24" fill="none" xmlns="http://www.w3.org/2000/svg"><path d="M9.031 6.060 C 8.677 6.149,8.434 6.292,8.193 6.553 C 7.813 6.963,7.537 7.503,6.891 9.100 C 6.397 10.318,6.303 10.503,6.041 10.765 C 5.730 11.076,5.466 11.197,4.475 11.481 C 3.460 11.772,3.162 11.902,3.001 12.125 C 2.776 12.436,2.768 12.847,2.981 13.170 C 3.043 13.264,3.494 13.738,3.984 14.223 L 4.874 15.107 3.496 16.483 C 2.005 17.974,1.962 18.028,2.017 18.369 C 2.087 18.812,2.514 19.080,2.957 18.961 C 3.107 18.920,3.314 18.735,4.534 17.543 L 5.938 16.171 6.886 17.081 C 8.050 18.197,8.209 18.292,8.696 18.156 C 9.168 18.025,9.292 17.805,9.719 16.340 C 9.925 15.636,10.066 15.344,10.332 15.074 C 10.610 14.791,10.806 14.693,12.200 14.140 C 14.252 13.326,14.767 13.015,15.045 12.422 C 15.182 12.129,15.241 11.724,15.192 11.413 C 15.096 10.798,14.629 10.231,12.569 8.223 C 11.036 6.730,10.540 6.317,10.033 6.117 C 9.760 6.009,9.329 5.984,9.031 6.060 M16.095 7.678 C 15.647 7.786,15.430 8.301,15.653 8.723 C 15.722 8.855,15.799 8.927,15.957 9.009 L 16.169 9.120 18.735 9.120 C 20.420 9.120,21.352 9.105,21.453 9.077 C 21.651 9.022,21.903 8.793,21.962 8.613 C 22.069 8.290,21.925 7.926,21.621 7.752 L 21.460 7.660 18.840 7.654 C 17.399 7.650,16.164 7.661,16.095 7.678 M16.980 12.116 C 16.522 12.327,16.410 12.888,16.753 13.255 C 16.966 13.483,16.930 13.480,19.280 13.480 C 21.354 13.480,21.450 13.477,21.598 13.401 C 22.125 13.132,22.121 12.382,21.590 12.125 C 21.418 12.042,21.375 12.040,19.277 12.041 C 17.285 12.042,17.129 12.047,16.980 12.116 M12.040 16.485 C 11.912 16.536,11.729 16.709,11.656 16.848 C 11.590 16.976,11.583 17.269,11.643 17.427 C 11.703 17.588,11.835 17.719,12.020 17.804 C 12.173 17.875,12.394 17.878,16.797 17.879 L 21.415 17.880 21.590 17.795 C 22.121 17.538,22.125 16.788,21.598 16.519 C 21.446 16.442,21.345 16.440,16.792 16.443 C 13.809 16.444,12.104 16.459,12.040 16.485 " fill="#1C274C" stroke="none" fill-rule="evenodd"></path></svg>