<svg width="24" height="24" viewBox="0 0 24 24" fill="none" xmlns="http://www.w3.org/2000/svg"><path d="M7.300 3.027 C 6.803 3.042,5.837 3.116,5.500 3.165 C 5.094 3.224,4.477 3.384,4.189 3.504 C 3.854 3.644,3.332 3.994,3.126 4.218 C 2.494 4.904,2.220 5.721,2.072 7.360 C 1.998 8.187,1.998 15.813,2.072 16.640 C 2.196 18.012,2.379 18.703,2.784 19.330 C 3.032 19.714,3.247 19.933,3.617 20.178 C 4.011 20.439,4.317 20.570,4.829 20.697 C 5.720 20.918,6.512 20.973,8.860 20.977 C 10.769 20.980,10.781 20.979,10.946 20.891 C 11.153 20.781,11.388 20.510,11.440 20.323 C 11.463 20.238,11.480 19.420,11.481 18.320 C 11.484 15.319,11.552 14.146,11.766 13.448 C 12.072 12.448,12.763 11.868,13.896 11.661 C 14.592 11.534,15.157 11.511,18.180 11.484 C 21.594 11.455,21.422 11.469,21.711 11.189 C 21.983 10.926,22.034 10.408,21.964 8.638 C 21.885 6.618,21.719 5.658,21.316 4.880 C 20.771 3.828,19.829 3.306,18.144 3.122 C 17.280 3.027,15.845 3.001,11.840 3.009 C 9.541 3.013,7.498 3.021,7.300 3.027 M15.153 13.044 C 14.140 13.122,13.606 13.395,13.305 13.989 C 13.040 14.513,12.986 15.134,13.011 17.357 C 13.028 18.877,13.039 19.100,13.112 19.428 C 13.305 20.301,13.748 20.725,14.660 20.908 C 14.984 20.973,15.269 20.980,17.480 20.980 C 19.709 20.980,19.977 20.973,20.333 20.906 C 21.270 20.729,21.719 20.282,21.908 19.340 C 21.972 19.022,21.980 18.748,21.980 17.000 C 21.980 15.252,21.972 14.978,21.908 14.660 C 21.774 13.990,21.501 13.569,21.046 13.326 C 20.739 13.163,20.417 13.091,19.759 13.041 C 19.134 12.994,15.782 12.996,15.153 13.044 " fill="#1C274C" stroke="none" fill-rule="evenodd"></path></svg>