<svg width="24" height="24" viewBox="0 0 24 24" fill="none" xmlns="http://www.w3.org/2000/svg"><path d="M17.303 2.042 C 16.696 2.137,16.053 2.387,15.555 2.721 C 15.415 2.816,14.899 3.289,14.410 3.775 L 13.520 4.656 12.889 4.031 C 12.364 3.509,12.215 3.384,11.993 3.280 C 11.202 2.910,10.299 3.239,9.926 4.033 C 9.833 4.231,9.820 4.310,9.820 4.661 C 9.820 5.376,9.468 4.973,14.288 9.784 C 19.068 14.555,18.636 14.179,19.340 14.180 C 19.691 14.180,19.768 14.167,19.969 14.073 C 20.659 13.749,21.026 12.967,20.822 12.258 C 20.718 11.899,20.639 11.793,19.965 11.110 L 19.344 10.480 20.225 9.590 C 20.711 9.101,21.180 8.592,21.268 8.460 C 22.153 7.140,22.240 5.560,21.503 4.176 C 20.936 3.109,19.934 2.355,18.740 2.095 C 18.396 2.020,17.622 1.991,17.303 2.042 M7.135 11.050 C 4.195 13.995,4.003 14.197,3.870 14.467 C 3.651 14.910,3.619 15.193,3.700 15.950 C 3.896 17.767,3.847 17.941,2.859 18.960 C 2.233 19.605,2.120 19.771,2.034 20.168 C 1.936 20.628,2.110 21.192,2.459 21.541 C 2.808 21.890,3.372 22.064,3.832 21.966 C 4.229 21.880,4.395 21.767,5.040 21.141 C 6.060 20.152,6.232 20.104,8.050 20.299 C 8.810 20.381,9.091 20.349,9.533 20.129 C 9.786 20.003,9.945 19.862,10.891 18.925 L 11.962 17.864 11.005 16.902 C 10.479 16.373,10.017 15.877,9.977 15.800 C 9.889 15.628,9.885 15.303,9.971 15.139 C 10.149 14.796,10.592 14.628,10.931 14.776 C 11.002 14.807,11.492 15.266,12.020 15.796 C 12.548 16.326,12.998 16.760,13.020 16.760 C 13.043 16.760,13.263 16.557,13.511 16.310 L 13.960 15.859 13.037 14.940 C 12.530 14.434,12.067 13.940,12.009 13.842 C 11.886 13.635,11.869 13.334,11.971 13.139 C 12.149 12.796,12.592 12.628,12.931 12.776 C 13.002 12.807,13.492 13.266,14.020 13.796 C 14.548 14.326,14.998 14.760,15.020 14.760 C 15.043 14.760,15.295 14.526,15.580 14.240 L 16.099 13.720 13.200 10.820 C 11.605 9.225,10.291 7.920,10.279 7.920 C 10.267 7.920,8.852 9.329,7.135 11.050 " fill="#1C274C" stroke="none" fill-rule="evenodd"></path></svg>