<svg width="24" height="24" viewBox="0 0 24 24" fill="none" xmlns="http://www.w3.org/2000/svg"><path d="M19.300 2.024 C 18.361 2.158,17.721 2.306,16.500 2.670 C 15.455 2.981,6.029 6.127,5.140 6.461 C 3.263 7.166,2.578 7.602,2.261 8.292 C 1.971 8.924,1.927 9.615,2.135 10.263 C 2.475 11.320,3.201 11.753,6.580 12.912 C 8.470 13.561,8.516 13.574,8.832 13.551 C 9.010 13.538,9.168 13.497,9.302 13.429 C 9.457 13.351,10.184 12.654,12.353 10.504 C 13.919 8.952,15.251 7.656,15.312 7.624 C 15.628 7.461,15.967 7.517,16.225 7.775 C 16.479 8.029,16.536 8.369,16.377 8.684 C 16.348 8.741,15.048 10.055,13.489 11.604 C 10.340 14.731,10.481 14.567,10.450 15.140 C 10.429 15.506,10.433 15.520,11.128 17.540 C 12.055 20.234,12.538 21.195,13.170 21.604 C 13.902 22.077,14.902 22.121,15.744 21.718 C 16.426 21.392,16.825 20.760,17.525 18.900 C 17.842 18.058,21.011 8.567,21.339 7.480 C 21.917 5.561,22.102 4.385,21.945 3.640 C 21.778 2.851,21.275 2.297,20.540 2.092 C 20.340 2.036,19.525 1.991,19.300 2.024 " fill="#1C274C" stroke="none" fill-rule="evenodd"></path></svg>