<svg width="24" height="24" viewBox="0 0 24 24" fill="none" xmlns="http://www.w3.org/2000/svg"><path d="M19.300 2.024 C 18.361 2.158,17.721 2.306,16.500 2.670 C 15.455 2.981,6.029 6.127,5.140 6.461 C 3.263 7.166,2.578 7.602,2.261 8.292 C 1.971 8.924,1.927 9.615,2.135 10.263 C 2.501 11.401,3.152 11.757,7.649 13.275 C 8.436 13.541,9.174 13.806,9.289 13.865 C 9.560 14.002,9.999 14.441,10.136 14.713 C 10.196 14.830,10.458 15.559,10.718 16.333 C 11.803 19.552,12.217 20.554,12.726 21.193 C 13.372 22.006,14.670 22.232,15.744 21.718 C 16.426 21.392,16.825 20.760,17.525 18.900 C 17.842 18.058,21.011 8.567,21.339 7.480 C 21.917 5.561,22.102 4.385,21.945 3.640 C 21.778 2.851,21.275 2.297,20.540 2.092 C 20.340 2.036,19.525 1.991,19.300 2.024 M18.091 5.535 C 18.247 5.602,18.420 5.779,18.477 5.933 C 18.543 6.106,18.528 6.388,18.444 6.552 C 18.338 6.760,14.046 10.985,13.863 11.061 C 13.610 11.167,13.271 11.110,13.066 10.928 C 12.852 10.739,12.781 10.313,12.918 10.044 C 13.009 9.866,17.259 5.656,17.453 5.552 C 17.608 5.468,17.917 5.460,18.091 5.535 " fill="#1C274C" stroke="none" fill-rule="evenodd"></path></svg>