<svg width="24" height="24" viewBox="0 0 24 24" fill="none" xmlns="http://www.w3.org/2000/svg"><path d="M19.440 2.066 C 18.948 2.140,18.226 2.318,17.400 2.566 C 16.606 2.805,5.363 6.542,4.340 6.907 C 2.534 7.551,2.029 7.990,2.024 8.920 C 2.022 9.207,2.038 9.296,2.128 9.489 C 2.368 10.006,2.719 10.425,4.044 11.780 C 5.468 13.236,5.453 13.197,5.218 14.826 C 5.119 15.516,5.068 16.020,5.065 16.340 C 5.058 17.056,5.150 17.240,5.518 17.240 L 5.699 17.240 12.992 9.950 C 17.003 5.940,20.311 2.611,20.343 2.552 C 20.432 2.384,20.413 2.247,20.283 2.117 C 20.146 1.980,20.043 1.974,19.440 2.066 M21.460 3.646 C 21.335 3.713,6.842 18.206,6.777 18.328 C 6.626 18.614,6.783 18.875,7.154 18.955 C 7.555 19.041,7.987 19.013,9.597 18.798 C 10.157 18.723,10.294 18.717,10.529 18.756 C 11.043 18.841,11.195 18.950,12.298 20.031 C 13.726 21.432,14.178 21.791,14.697 21.941 C 14.990 22.026,15.324 22.004,15.660 21.880 C 15.845 21.811,15.960 21.729,16.160 21.525 C 16.445 21.235,16.648 20.867,16.924 20.144 C 17.200 19.418,21.311 7.041,21.538 6.249 C 21.790 5.374,21.952 4.622,21.987 4.161 C 22.011 3.848,22.010 3.844,21.889 3.723 C 21.759 3.593,21.607 3.566,21.460 3.646 " fill="#1C274C" stroke="none" fill-rule="evenodd"></path></svg>