<svg width="24" height="24" viewBox="0 0 24 24" fill="none" xmlns="http://www.w3.org/2000/svg"><path d="M11.200 4.044 C 8.467 4.307,6.006 6.031,4.800 8.529 C 4.236 9.695,3.967 10.959,4.008 12.242 L 4.025 12.800 3.863 12.801 C 3.773 12.801,3.628 12.835,3.540 12.875 C 3.358 12.957,2.654 13.678,2.414 14.027 C 2.281 14.220,2.261 14.277,2.261 14.478 C 2.261 15.145,3.063 15.481,3.519 15.005 C 3.596 14.923,3.801 14.699,3.974 14.507 L 4.288 14.157 4.426 14.568 C 4.688 15.352,5.185 16.276,5.688 16.909 L 5.885 17.158 5.757 17.318 C 5.420 17.737,5.666 18.406,6.192 18.505 C 6.341 18.533,7.065 18.417,7.100 18.360 C 7.110 18.343,7.025 18.256,6.910 18.166 C 6.794 18.077,6.521 17.824,6.303 17.604 C 5.970 17.269,5.914 17.195,5.956 17.145 C 5.983 17.112,6.180 17.047,6.393 16.999 C 7.267 16.805,8.051 16.576,9.199 16.178 C 9.647 16.023,9.769 15.996,9.918 16.016 C 10.543 16.102,10.776 16.876,10.309 17.312 C 10.152 17.459,8.785 17.936,7.705 18.221 C 7.422 18.296,7.183 18.363,7.175 18.371 C 7.139 18.408,8.073 18.980,8.521 19.197 C 10.731 20.264,13.266 20.265,15.471 19.200 C 17.967 17.995,19.648 15.606,19.959 12.820 C 20.001 12.442,20.015 11.680,19.979 11.680 C 19.968 11.680,19.734 11.868,19.460 12.098 C 18.817 12.636,17.917 13.309,17.740 13.382 C 17.100 13.650,16.477 12.892,16.844 12.293 C 16.887 12.224,17.160 11.990,17.450 11.773 C 18.135 11.264,18.811 10.702,19.288 10.245 C 19.498 10.044,19.680 9.880,19.692 9.880 C 19.751 9.880,19.959 11.020,19.961 11.353 C 19.962 11.661,20.008 11.649,20.423 11.240 C 20.635 11.031,20.834 10.802,20.864 10.731 C 21.001 10.416,20.879 10.010,20.589 9.816 C 20.383 9.679,20.060 9.659,19.844 9.770 C 19.768 9.809,19.705 9.836,19.703 9.830 C 19.701 9.825,19.637 9.633,19.562 9.405 C 19.318 8.665,18.771 7.659,18.272 7.031 C 18.224 6.971,18.193 6.913,18.203 6.903 C 18.213 6.893,18.432 6.858,18.691 6.824 C 19.212 6.755,19.331 6.709,19.512 6.503 C 19.807 6.167,19.704 5.623,19.301 5.392 C 19.097 5.276,18.799 5.278,18.040 5.401 C 17.439 5.498,17.307 5.542,17.157 5.693 L 17.055 5.796 16.757 5.575 C 15.181 4.402,13.186 3.853,11.200 4.044 M20.458 5.435 C 20.193 5.556,20.001 5.852,20.000 6.142 C 20.000 6.316,20.202 6.638,20.377 6.741 C 20.471 6.795,20.574 6.840,20.607 6.840 C 20.640 6.840,20.776 6.894,20.909 6.961 C 21.195 7.104,21.263 7.222,21.228 7.518 C 21.215 7.626,21.149 7.843,21.082 8.001 C 21.015 8.159,20.960 8.347,20.960 8.418 C 20.960 8.873,21.380 9.251,21.809 9.183 C 22.108 9.136,22.269 8.994,22.441 8.627 C 22.659 8.159,22.735 7.845,22.737 7.400 C 22.738 6.928,22.637 6.604,22.380 6.261 C 22.082 5.865,21.710 5.619,21.146 5.445 C 20.812 5.342,20.669 5.340,20.458 5.435 M15.723 13.413 C 15.965 13.541,16.138 13.860,16.103 14.117 C 16.060 14.442,15.931 14.596,15.470 14.870 C 14.418 15.497,12.568 16.436,12.319 16.469 C 11.980 16.515,11.655 16.342,11.534 16.052 C 11.464 15.884,11.465 15.545,11.536 15.408 C 11.635 15.218,11.760 15.139,12.800 14.610 C 13.361 14.325,14.099 13.930,14.440 13.732 C 14.781 13.534,15.087 13.362,15.120 13.349 C 15.266 13.293,15.553 13.323,15.723 13.413 M1.760 15.367 C 1.462 15.521,1.353 15.743,1.272 16.360 C 1.150 17.285,1.668 18.110,2.600 18.473 C 3.118 18.674,3.751 18.769,4.011 18.683 C 4.303 18.587,4.562 18.159,4.504 17.869 C 4.426 17.481,4.217 17.307,3.718 17.220 C 3.247 17.137,3.019 17.053,2.876 16.909 C 2.757 16.791,2.753 16.774,2.776 16.553 C 2.789 16.425,2.811 16.215,2.824 16.087 C 2.844 15.896,2.833 15.824,2.764 15.687 C 2.581 15.330,2.119 15.183,1.760 15.367 " fill="#1C274C" stroke="none" fill-rule="evenodd"></path></svg>