<svg width="24" height="24" viewBox="0 0 24 24" fill="none" xmlns="http://www.w3.org/2000/svg"><path d="M11.340 2.024 C 10.697 2.089,10.368 2.133,10.020 2.203 C 7.264 2.759,4.800 4.509,3.400 6.906 L 3.240 7.178 3.450 7.392 C 4.405 8.365,6.154 9.380,7.660 9.832 C 8.624 10.122,9.315 10.219,10.400 10.218 C 11.182 10.217,11.355 10.205,11.720 10.126 C 12.665 9.922,13.448 9.587,14.682 8.859 C 15.076 8.626,15.583 8.348,15.809 8.240 C 16.881 7.730,19.200 7.243,20.569 7.240 L 20.799 7.240 20.616 6.930 C 19.058 4.295,16.447 2.552,13.382 2.101 C 12.961 2.039,11.673 1.990,11.340 2.024 M2.549 8.711 C 2.538 8.749,2.465 8.997,2.387 9.262 C 2.095 10.262,1.976 11.247,2.015 12.340 C 2.029 12.736,2.051 13.109,2.064 13.168 L 2.088 13.276 2.554 13.253 C 3.867 13.187,6.187 13.483,7.652 13.903 C 8.351 14.103,8.573 14.195,9.380 14.622 C 11.337 15.656,12.015 15.928,13.180 16.147 C 13.622 16.230,14.883 16.262,15.403 16.203 C 16.695 16.056,17.806 15.722,19.791 14.882 C 20.357 14.642,21.038 14.372,21.303 14.281 L 21.787 14.115 21.856 13.682 C 22.004 12.755,22.038 11.884,21.958 11.057 C 21.907 10.533,21.721 9.585,21.580 9.133 L 21.479 8.806 21.209 8.777 C 20.818 8.735,19.780 8.786,19.179 8.876 C 18.109 9.036,16.919 9.359,16.357 9.642 C 16.184 9.728,15.750 9.973,15.392 10.186 C 14.638 10.633,13.697 11.098,13.180 11.279 C 12.718 11.441,12.004 11.616,11.520 11.685 C 10.926 11.771,9.631 11.750,8.920 11.643 C 6.690 11.310,4.480 10.300,2.815 8.854 C 2.613 8.679,2.565 8.653,2.549 8.711 M2.400 14.796 C 2.400 14.816,2.464 15.015,2.541 15.239 C 3.417 17.754,5.223 19.805,7.580 20.960 C 8.555 21.438,9.451 21.718,10.540 21.887 C 11.337 22.010,12.662 22.010,13.460 21.887 C 15.633 21.551,17.530 20.594,19.061 19.061 C 19.919 18.202,20.658 17.146,21.097 16.151 L 21.198 15.923 21.096 15.961 C 21.040 15.983,20.694 16.128,20.327 16.285 C 18.476 17.077,17.307 17.443,15.980 17.647 C 15.244 17.760,13.893 17.770,13.198 17.667 C 11.836 17.467,10.811 17.090,9.075 16.151 C 8.605 15.897,8.112 15.644,7.980 15.589 C 7.236 15.279,5.645 14.947,4.304 14.820 C 3.604 14.754,2.400 14.739,2.400 14.796 " fill="#1C274C" stroke="none" fill-rule="evenodd"></path></svg>