<svg width="24" height="24" viewBox="0 0 24 24" fill="none" xmlns="http://www.w3.org/2000/svg"><path d="M18.340 2.804 C 17.965 2.858,17.495 3.110,17.224 3.403 C 17.099 3.537,16.953 3.735,16.899 3.843 C 16.656 4.321,16.612 4.922,16.782 5.432 C 16.793 5.465,16.888 5.408,17.049 5.271 C 17.749 4.679,18.949 3.979,19.848 3.639 C 20.177 3.515,20.193 3.503,20.141 3.429 C 20.046 3.294,19.629 3.003,19.411 2.921 C 19.212 2.846,18.766 2.756,18.640 2.765 C 18.607 2.768,18.472 2.785,18.340 2.804 M20.420 3.467 C 20.245 3.506,20.229 3.518,20.276 3.576 C 20.301 3.606,20.373 3.724,20.436 3.839 L 20.550 4.048 20.695 3.858 C 20.775 3.754,20.840 3.636,20.840 3.596 C 20.840 3.470,20.659 3.414,20.420 3.467 M20.260 4.284 C 19.613 4.830,18.121 5.685,17.380 5.936 L 17.100 6.031 17.289 6.209 C 17.776 6.670,18.505 6.864,19.132 6.700 C 20.055 6.460,20.640 5.713,20.640 4.773 C 20.640 4.450,20.579 4.079,20.525 4.081 C 20.511 4.082,20.392 4.173,20.260 4.284 M16.660 5.647 C 16.389 5.970,16.437 6.102,16.812 6.068 C 16.941 6.057,17.054 6.039,17.064 6.029 C 17.078 6.015,16.838 5.585,16.786 5.533 C 16.777 5.524,16.721 5.575,16.660 5.647 M9.420 6.023 C 9.354 6.032,9.129 6.060,8.920 6.084 C 8.438 6.139,7.606 6.350,7.118 6.542 C 5.507 7.173,4.101 8.336,3.219 9.766 L 3.044 10.050 3.346 10.306 C 4.742 11.492,6.819 12.240,8.720 12.240 C 9.919 12.240,10.634 12.037,12.265 11.230 C 12.821 10.955,13.156 10.817,13.485 10.726 C 14.459 10.456,15.462 10.296,16.452 10.253 C 16.902 10.234,17.039 10.215,17.024 10.177 C 17.014 10.150,16.914 9.980,16.803 9.801 C 15.571 7.814,13.521 6.455,11.220 6.099 C 10.830 6.039,9.659 5.989,9.420 6.023 M2.321 11.757 C 2.198 12.169,2.090 12.727,2.037 13.220 C 1.990 13.662,2.009 14.783,2.070 15.092 L 2.100 15.245 3.000 15.259 C 4.283 15.280,5.533 15.431,6.621 15.697 C 7.151 15.826,7.358 15.905,8.260 16.321 C 9.933 17.093,10.696 17.273,12.118 17.229 C 13.766 17.178,15.607 16.659,17.239 15.788 C 17.535 15.630,17.798 15.505,17.824 15.511 C 17.906 15.529,17.980 14.786,17.979 13.960 C 17.977 13.173,17.948 12.897,17.794 12.195 L 17.709 11.811 17.409 11.785 C 16.425 11.702,15.165 11.835,14.000 12.144 C 13.737 12.214,13.330 12.385,12.675 12.703 C 11.686 13.181,10.936 13.461,10.276 13.598 C 8.596 13.947,6.571 13.688,4.707 12.885 C 3.975 12.570,3.129 12.074,2.631 11.668 L 2.403 11.481 2.321 11.757 M2.620 17.079 C 3.600 19.370,5.511 21.055,7.856 21.698 C 8.666 21.920,9.113 21.977,10.020 21.975 C 10.891 21.973,11.287 21.924,12.060 21.723 C 14.139 21.181,15.977 19.739,17.021 17.828 C 17.103 17.679,17.162 17.549,17.153 17.539 C 17.143 17.530,16.939 17.604,16.698 17.704 C 14.548 18.596,12.232 18.942,10.451 18.639 C 9.513 18.479,8.897 18.271,7.640 17.689 C 6.781 17.291,6.555 17.213,5.838 17.061 C 5.065 16.898,4.205 16.800,3.309 16.773 L 2.478 16.748 2.620 17.079 " fill="#1C274C" stroke="none" fill-rule="evenodd"></path></svg>