<svg width="24" height="24" viewBox="0 0 24 24" fill="none" xmlns="http://www.w3.org/2000/svg"><path d="M11.200 4.044 C 8.467 4.307,6.006 6.031,4.800 8.529 C 4.291 9.581,4.000 10.813,4.000 11.912 L 4.000 12.266 3.772 12.523 C 3.646 12.664,3.351 12.981,3.115 13.226 C 2.377 13.995,1.918 14.622,1.597 15.296 C 1.342 15.834,1.265 16.133,1.263 16.600 C 1.261 17.305,1.543 17.840,2.115 18.214 C 2.896 18.725,4.003 18.868,5.576 18.660 C 6.099 18.591,7.047 18.405,7.092 18.363 C 7.109 18.346,7.026 18.258,6.908 18.166 C 6.674 17.986,5.880 17.186,5.880 17.132 C 5.880 17.113,6.091 17.056,6.350 17.004 C 8.796 16.512,12.121 15.126,15.020 13.390 C 16.706 12.380,18.586 10.980,19.458 10.084 C 19.568 9.972,19.670 9.880,19.685 9.880 C 19.750 9.880,19.959 10.999,19.961 11.353 C 19.962 11.671,20.003 11.655,20.541 11.120 C 21.484 10.183,21.986 9.537,22.360 8.780 C 22.664 8.163,22.737 7.890,22.734 7.380 C 22.731 6.942,22.660 6.676,22.459 6.358 C 22.153 5.874,21.556 5.514,20.800 5.357 C 20.019 5.195,18.842 5.246,17.467 5.501 C 17.177 5.555,16.912 5.599,16.878 5.600 C 16.844 5.600,16.637 5.481,16.418 5.336 C 14.893 4.326,13.038 3.867,11.200 4.044 M20.448 6.818 C 20.793 6.879,21.125 7.040,21.201 7.182 C 21.401 7.555,20.864 8.597,19.980 9.551 L 19.711 9.842 19.574 9.431 C 19.321 8.674,18.767 7.652,18.272 7.031 C 18.225 6.971,18.195 6.912,18.207 6.900 C 18.252 6.854,19.167 6.768,19.640 6.766 C 19.915 6.764,20.278 6.787,20.448 6.818 M19.520 12.047 C 16.618 14.544,11.647 17.161,7.900 18.164 C 7.570 18.252,7.269 18.337,7.230 18.352 C 7.176 18.374,7.244 18.436,7.532 18.629 C 8.526 19.294,9.629 19.723,10.820 19.908 C 11.361 19.992,12.536 20.001,13.080 19.925 C 16.580 19.438,19.370 16.695,19.900 13.220 C 19.975 12.731,20.027 11.679,19.976 11.683 C 19.956 11.685,19.751 11.849,19.520 12.047 M4.804 15.480 C 5.020 15.929,5.469 16.650,5.741 16.985 L 5.843 17.110 5.306 17.180 C 4.580 17.274,3.660 17.249,3.272 17.124 C 3.103 17.070,2.957 16.991,2.877 16.911 C 2.755 16.789,2.751 16.775,2.771 16.527 C 2.809 16.050,3.321 15.198,4.018 14.449 L 4.289 14.158 4.426 14.569 C 4.502 14.795,4.672 15.205,4.804 15.480 " fill="#1C274C" stroke="none" fill-rule="evenodd"></path></svg>