<svg width="24" height="24" viewBox="0 0 24 24" fill="none" xmlns="http://www.w3.org/2000/svg"><path d="M11.811 2.278 C 11.639 2.320,11.417 2.493,11.330 2.652 C 11.269 2.764,11.258 2.924,11.248 3.907 C 11.240 4.630,11.251 5.092,11.279 5.195 C 11.428 5.751,12.117 5.933,12.525 5.525 C 12.750 5.299,12.766 5.184,12.752 3.907 C 12.741 2.856,12.735 2.771,12.658 2.641 C 12.494 2.361,12.122 2.202,11.811 2.278 M7.360 3.280 C 4.726 3.365,3.634 3.686,2.660 4.660 C 1.872 5.448,1.529 6.312,1.359 7.940 C 1.201 9.444,1.214 14.815,1.379 16.220 C 1.561 17.767,1.935 18.666,2.706 19.402 C 3.158 19.835,3.672 20.135,4.300 20.331 C 5.436 20.687,6.718 20.758,12.000 20.758 C 16.514 20.758,18.032 20.702,19.060 20.496 C 20.058 20.296,20.818 19.906,21.402 19.294 C 22.112 18.553,22.447 17.707,22.621 16.220 C 22.745 15.154,22.793 11.953,22.720 9.560 C 22.656 7.464,22.500 6.520,22.075 5.667 C 21.868 5.251,21.717 5.035,21.402 4.706 C 20.666 3.935,19.767 3.561,18.220 3.379 C 17.507 3.296,15.293 3.230,15.038 3.284 C 14.675 3.362,14.367 3.670,14.283 4.040 C 14.260 4.139,14.242 4.458,14.241 4.748 C 14.240 5.038,14.220 5.371,14.196 5.488 C 14.068 6.107,13.571 6.739,12.997 7.011 C 12.109 7.433,11.120 7.276,10.443 6.607 C 10.148 6.315,10.001 6.091,9.872 5.733 C 9.803 5.543,9.783 5.365,9.760 4.760 C 9.731 3.954,9.704 3.842,9.483 3.590 C 9.192 3.258,8.981 3.227,7.360 3.280 M16.267 9.803 C 16.516 9.896,16.758 10.241,16.758 10.500 C 16.758 10.759,16.516 11.104,16.267 11.197 C 16.190 11.227,14.838 11.240,12.000 11.240 C 9.162 11.240,7.810 11.227,7.733 11.197 C 7.484 11.104,7.242 10.759,7.242 10.500 C 7.242 10.347,7.363 10.078,7.485 9.961 C 7.700 9.755,7.525 9.763,11.987 9.762 C 14.838 9.760,16.190 9.773,16.267 9.803 M13.780 13.316 C 14.399 13.602,14.399 14.398,13.780 14.684 C 13.629 14.754,13.458 14.758,10.749 14.759 C 8.246 14.760,7.858 14.752,7.729 14.698 C 7.101 14.436,7.084 13.600,7.700 13.316 C 7.851 13.246,8.024 13.242,10.740 13.242 C 13.459 13.242,13.629 13.246,13.780 13.316 " fill="#1C274C" stroke="none" fill-rule="evenodd"></path></svg>