<svg width="24" height="24" viewBox="0 0 24 24" fill="none" xmlns="http://www.w3.org/2000/svg"><path d="M5.725 2.062 C 5.189 2.178,4.623 2.539,4.297 2.972 C 3.631 3.858,3.398 4.957,3.161 8.320 C 2.945 11.390,2.945 12.610,3.161 15.680 C 3.363 18.549,3.552 19.665,3.981 20.520 C 4.478 21.511,5.384 22.053,6.437 21.987 C 7.261 21.936,8.174 21.599,10.187 20.603 C 12.894 19.264,14.173 18.521,16.480 16.949 C 19.700 14.754,20.516 13.986,20.886 12.800 C 21.021 12.369,21.021 11.631,20.886 11.200 C 20.500 9.962,19.587 9.132,15.920 6.684 C 13.882 5.323,13.084 4.861,10.660 3.640 C 8.503 2.553,7.658 2.204,6.843 2.065 C 6.394 1.988,6.070 1.987,5.725 2.062 " fill="#1C274C" stroke="none" fill-rule="evenodd"></path></svg>