<svg width="24" height="24" viewBox="0 0 24 24" fill="none" xmlns="http://www.w3.org/2000/svg"><path d="M2.811 3.279 C 2.536 3.344,2.316 3.587,2.260 3.885 C 2.197 4.220,2.450 4.624,2.781 4.715 C 3.007 4.778,19.993 4.778,20.219 4.715 C 20.431 4.657,20.660 4.422,20.719 4.204 C 20.808 3.873,20.689 3.566,20.394 3.372 L 20.226 3.260 11.583 3.254 C 6.829 3.250,2.882 3.262,2.811 3.279 M19.698 6.897 C 19.358 6.974,18.967 7.143,17.491 7.854 C 15.925 8.608,15.744 8.725,15.497 9.143 C 15.264 9.538,15.267 9.490,15.250 12.152 C 15.242 13.501,15.222 14.599,15.207 14.592 C 15.192 14.586,15.045 14.514,14.880 14.433 C 14.468 14.231,14.176 14.159,13.658 14.132 C 12.683 14.082,11.852 14.417,11.170 15.135 C 9.526 16.866,10.216 19.795,12.450 20.563 C 14.244 21.180,16.124 20.148,16.647 18.258 C 16.733 17.950,16.736 17.865,16.750 15.555 L 16.766 13.171 17.041 13.145 C 17.192 13.131,17.447 13.073,17.608 13.016 C 18.083 12.847,20.801 11.531,21.040 11.354 C 21.536 10.987,21.710 10.595,21.745 9.766 C 21.775 9.061,21.713 8.250,21.604 7.943 C 21.340 7.190,20.481 6.719,19.698 6.897 M2.811 8.279 C 2.536 8.345,2.316 8.587,2.260 8.885 C 2.197 9.220,2.450 9.624,2.781 9.715 C 3.005 9.778,11.995 9.778,12.219 9.715 C 12.431 9.657,12.660 9.422,12.719 9.204 C 12.808 8.873,12.689 8.566,12.394 8.372 L 12.226 8.260 7.583 8.254 C 5.029 8.250,2.882 8.261,2.811 8.279 M2.811 13.278 C 2.535 13.345,2.316 13.587,2.260 13.885 C 2.197 14.220,2.450 14.624,2.781 14.715 C 3.003 14.777,7.997 14.777,8.219 14.715 C 8.431 14.657,8.660 14.422,8.719 14.204 C 8.808 13.873,8.689 13.566,8.395 13.372 L 8.226 13.260 5.583 13.253 C 4.129 13.250,2.882 13.261,2.811 13.278 " fill="#1C274C" stroke="none" fill-rule="evenodd"></path></svg>