<svg width="24" height="24" viewBox="0 0 24 24" fill="none" xmlns="http://www.w3.org/2000/svg"><path d="M4.767 4.200 C 4.582 4.243,4.422 4.370,4.081 4.740 C 2.591 6.357,1.665 8.340,1.334 10.620 C 1.238 11.284,1.238 12.716,1.334 13.380 C 1.680 15.758,2.670 17.810,4.264 19.447 C 4.636 19.830,4.773 19.900,5.083 19.871 C 5.342 19.846,5.538 19.707,5.661 19.462 C 5.848 19.090,5.773 18.872,5.276 18.340 C 3.965 16.935,3.145 15.251,2.852 13.360 C 2.753 12.718,2.753 11.282,2.852 10.640 C 3.141 8.773,3.938 7.118,5.221 5.720 C 5.599 5.308,5.680 5.168,5.680 4.924 C 5.680 4.445,5.232 4.090,4.767 4.200 M19.060 4.260 C 19.038 4.267,18.971 4.284,18.911 4.297 C 18.764 4.329,18.521 4.548,18.454 4.708 C 18.385 4.874,18.385 5.127,18.454 5.291 C 18.484 5.362,18.648 5.573,18.818 5.760 C 20.069 7.135,20.862 8.797,21.148 10.640 C 21.247 11.282,21.247 12.718,21.148 13.360 C 20.861 15.215,20.061 16.883,18.798 18.260 C 18.346 18.753,18.257 18.965,18.367 19.284 C 18.487 19.633,18.776 19.822,19.142 19.792 C 19.407 19.769,19.523 19.691,19.919 19.260 C 21.407 17.645,22.334 15.661,22.666 13.380 C 22.771 12.659,22.762 11.244,22.647 10.500 C 22.363 8.654,21.655 6.949,20.591 5.542 C 20.177 4.995,19.654 4.429,19.483 4.343 C 19.372 4.287,19.125 4.238,19.060 4.260 M7.660 7.259 C 7.638 7.267,7.571 7.284,7.512 7.297 C 7.303 7.343,6.691 7.988,6.293 8.580 C 5.523 9.727,5.150 11.154,5.274 12.476 C 5.413 13.968,6.014 15.258,7.056 16.306 C 7.346 16.596,7.457 16.681,7.597 16.719 C 7.787 16.770,7.991 16.747,8.169 16.655 C 8.323 16.576,8.508 16.309,8.539 16.123 C 8.587 15.840,8.503 15.661,8.144 15.282 C 7.213 14.300,6.760 13.219,6.760 11.980 C 6.760 10.748,7.223 9.643,8.144 8.676 C 8.354 8.456,8.447 8.324,8.480 8.201 C 8.566 7.880,8.447 7.563,8.172 7.385 C 8.031 7.294,7.753 7.226,7.660 7.259 M16.134 7.320 C 15.708 7.416,15.463 7.797,15.562 8.210 C 15.603 8.378,15.662 8.470,15.879 8.699 C 17.151 10.043,17.558 11.777,16.996 13.460 C 16.779 14.108,16.441 14.655,15.885 15.254 C 15.643 15.516,15.561 15.635,15.525 15.777 C 15.390 16.314,15.906 16.820,16.447 16.680 C 16.792 16.591,17.691 15.531,18.087 14.747 C 18.594 13.741,18.829 12.532,18.724 11.457 C 18.600 10.177,18.145 9.076,17.318 8.060 C 16.804 7.427,16.500 7.237,16.134 7.320 M10.609 9.085 C 10.210 9.282,10.091 9.780,10.016 11.560 C 9.990 12.172,10.042 13.303,10.124 13.936 C 10.231 14.751,10.552 15.086,11.110 14.962 C 11.374 14.903,12.270 14.453,12.869 14.080 C 13.401 13.747,14.368 13.027,14.612 12.783 C 14.889 12.505,14.977 12.315,14.977 12.000 C 14.977 11.534,14.785 11.296,13.849 10.600 C 12.665 9.721,11.328 9.000,10.883 9.000 C 10.826 9.000,10.703 9.038,10.609 9.085 " fill="#1C274C" stroke="none" fill-rule="evenodd"></path></svg>