<svg width="24" height="24" viewBox="0 0 24 24" fill="none" xmlns="http://www.w3.org/2000/svg"><path d="M11.560 1.267 C 10.862 1.298,9.749 1.456,9.475 1.564 C 9.340 1.617,9.137 1.829,9.082 1.973 C 8.962 2.292,9.086 2.684,9.368 2.870 C 9.581 3.011,9.799 3.014,10.500 2.882 C 10.956 2.796,11.136 2.784,11.960 2.782 C 13.028 2.780,13.465 2.831,14.360 3.064 C 17.549 3.893,20.107 6.451,20.936 9.640 C 21.163 10.512,21.218 10.974,21.218 12.000 C 21.218 13.026,21.163 13.488,20.936 14.360 C 20.271 16.917,18.471 19.121,16.100 20.281 C 15.429 20.610,14.912 20.804,14.294 20.960 C 13.416 21.181,13.071 21.220,11.980 21.219 C 11.088 21.218,10.924 21.207,10.460 21.119 C 9.766 20.988,9.580 20.990,9.368 21.130 C 8.975 21.390,8.919 21.927,9.249 22.269 C 9.401 22.426,9.601 22.495,10.200 22.597 C 13.488 23.153,16.876 22.145,19.280 19.897 C 21.172 18.128,22.288 15.979,22.666 13.380 C 22.762 12.716,22.762 11.284,22.666 10.620 C 22.292 8.045,21.166 5.865,19.320 4.139 C 17.758 2.679,15.766 1.710,13.657 1.383 C 13.292 1.326,12.025 1.230,11.880 1.248 C 11.847 1.252,11.703 1.261,11.560 1.267 M6.034 3.073 C 4.899 3.822,3.846 4.871,3.089 6.007 C 2.864 6.345,2.824 6.433,2.808 6.619 C 2.771 7.070,3.086 7.411,3.540 7.411 C 3.679 7.411,3.799 7.384,3.886 7.334 C 4.022 7.255,4.050 7.221,4.545 6.535 C 5.066 5.815,5.811 5.070,6.535 4.546 C 6.752 4.389,7.004 4.206,7.095 4.139 C 7.690 3.704,7.402 2.800,6.668 2.800 C 6.463 2.800,6.419 2.819,6.034 3.073 M10.281 8.087 C 10.060 8.201,9.863 8.455,9.779 8.732 C 9.441 9.845,9.441 14.155,9.779 15.268 C 9.918 15.728,10.282 16.023,10.665 15.986 C 11.009 15.954,11.741 15.570,12.800 14.868 C 13.528 14.385,14.777 13.360,15.076 13.001 C 15.392 12.621,15.460 12.444,15.460 12.000 C 15.460 11.556,15.392 11.379,15.076 10.999 C 14.902 10.790,14.151 10.139,13.480 9.614 C 12.922 9.178,11.711 8.421,11.175 8.174 C 10.773 7.988,10.520 7.963,10.281 8.087 M1.939 9.096 C 1.729 9.187,1.574 9.406,1.505 9.709 C 1.187 11.109,1.187 12.891,1.505 14.291 C 1.605 14.730,1.863 14.961,2.249 14.959 C 2.659 14.957,2.971 14.660,2.977 14.268 C 2.978 14.153,2.935 13.826,2.881 13.540 C 2.792 13.072,2.782 12.918,2.782 12.000 C 2.782 11.082,2.792 10.928,2.881 10.460 C 3.010 9.782,3.007 9.574,2.864 9.359 C 2.680 9.081,2.253 8.959,1.939 9.096 M3.374 16.598 C 3.001 16.687,2.777 16.998,2.808 17.381 C 2.824 17.567,2.864 17.655,3.088 17.991 C 3.845 19.128,4.900 20.179,6.034 20.927 C 6.420 21.182,6.462 21.200,6.670 21.200 C 7.402 21.200,7.689 20.295,7.095 19.861 C 7.004 19.794,6.752 19.612,6.535 19.455 C 5.815 18.934,5.070 18.189,4.546 17.465 C 4.050 16.780,4.021 16.745,3.899 16.676 C 3.749 16.591,3.536 16.560,3.374 16.598 " fill="#1C274C" stroke="none" fill-rule="evenodd"></path></svg>