<svg width="24" height="24" viewBox="0 0 24 24" fill="none" xmlns="http://www.w3.org/2000/svg"><path d="M2.811 5.279 C 2.536 5.344,2.316 5.587,2.260 5.885 C 2.197 6.220,2.450 6.624,2.781 6.715 C 3.006 6.778,14.994 6.778,15.219 6.715 C 15.431 6.657,15.660 6.422,15.719 6.204 C 15.808 5.873,15.689 5.566,15.394 5.372 L 15.226 5.260 9.083 5.254 C 5.704 5.250,2.882 5.262,2.811 5.279 M16.807 7.289 C 16.558 7.342,16.342 7.570,16.284 7.838 C 16.254 7.977,16.240 8.964,16.240 10.894 L 16.240 13.743 15.928 13.592 C 15.447 13.359,15.065 13.273,14.500 13.272 C 13.960 13.272,13.567 13.354,13.124 13.561 C 12.459 13.873,11.872 14.461,11.558 15.131 C 11.166 15.970,11.167 17.033,11.561 17.876 C 11.873 18.541,12.461 19.128,13.131 19.442 C 13.967 19.833,15.033 19.833,15.869 19.442 C 16.740 19.034,17.378 18.265,17.647 17.300 C 17.735 16.986,17.737 16.931,17.751 14.231 L 17.765 11.483 17.992 11.668 C 18.718 12.260,19.604 12.623,20.550 12.718 C 21.092 12.772,21.313 12.727,21.520 12.520 C 21.929 12.111,21.725 11.405,21.162 11.284 C 21.049 11.260,20.871 11.240,20.768 11.240 C 20.511 11.239,19.976 11.106,19.663 10.964 C 18.983 10.656,18.345 10.020,18.038 9.343 C 17.893 9.021,17.761 8.492,17.759 8.220 C 17.755 7.532,17.380 7.166,16.807 7.289 M2.807 9.287 C 2.568 9.341,2.341 9.572,2.289 9.816 C 2.197 10.246,2.431 10.629,2.838 10.716 C 3.128 10.778,12.872 10.778,13.162 10.716 C 13.920 10.553,13.920 9.447,13.162 9.284 C 12.896 9.227,3.064 9.230,2.807 9.287 M2.807 13.287 C 2.568 13.341,2.341 13.572,2.289 13.816 C 2.197 14.246,2.431 14.629,2.838 14.716 C 3.125 14.777,8.875 14.777,9.162 14.716 C 9.920 14.553,9.920 13.447,9.162 13.284 C 8.899 13.228,3.061 13.230,2.807 13.287 M2.807 17.287 C 2.568 17.341,2.341 17.572,2.289 17.816 C 2.197 18.246,2.431 18.629,2.838 18.716 C 3.123 18.777,7.877 18.777,8.162 18.716 C 8.920 18.553,8.920 17.447,8.162 17.284 C 7.900 17.228,3.060 17.231,2.807 17.287 " fill="#1C274C" stroke="none" fill-rule="evenodd"></path></svg>