<svg width="24" height="24" viewBox="0 0 24 24" fill="none" xmlns="http://www.w3.org/2000/svg"><path d="M2.811 5.279 C 2.536 5.344,2.316 5.587,2.260 5.885 C 2.197 6.220,2.450 6.624,2.781 6.715 C 3.007 6.778,20.993 6.778,21.219 6.715 C 21.431 6.657,21.660 6.422,21.719 6.204 C 21.808 5.873,21.689 5.566,21.394 5.372 L 21.226 5.260 12.083 5.254 C 7.054 5.251,2.882 5.262,2.811 5.279 M2.811 9.279 C 2.536 9.344,2.316 9.587,2.260 9.885 C 2.197 10.220,2.450 10.624,2.781 10.715 C 3.007 10.778,20.993 10.778,21.219 10.715 C 21.431 10.657,21.660 10.422,21.719 10.204 C 21.808 9.873,21.689 9.566,21.394 9.372 L 21.226 9.260 12.083 9.254 C 7.054 9.251,2.882 9.262,2.811 9.279 M15.711 12.941 C 15.341 13.076,15.073 13.353,14.944 13.733 C 14.814 14.118,14.793 14.405,14.773 16.134 C 14.741 18.754,14.817 19.337,15.242 19.762 C 15.459 19.979,15.731 20.096,16.061 20.113 C 16.569 20.140,17.001 19.952,18.780 18.930 C 20.550 17.913,21.095 17.521,21.354 17.080 C 21.450 16.918,21.460 16.861,21.460 16.500 C 21.460 16.139,21.450 16.082,21.354 15.920 C 21.095 15.479,20.550 15.087,18.780 14.070 C 17.529 13.352,17.077 13.119,16.664 12.980 C 16.327 12.867,15.953 12.852,15.711 12.941 M2.811 13.278 C 2.536 13.345,2.316 13.587,2.260 13.885 C 2.197 14.220,2.450 14.624,2.781 14.715 C 3.005 14.778,10.995 14.778,11.219 14.715 C 11.431 14.657,11.660 14.422,11.719 14.204 C 11.808 13.873,11.689 13.566,11.395 13.372 L 11.226 13.260 7.083 13.254 C 4.804 13.250,2.882 13.261,2.811 13.278 M2.811 17.278 C 2.536 17.345,2.316 17.587,2.260 17.885 C 2.197 18.220,2.450 18.624,2.781 18.715 C 3.005 18.778,10.995 18.778,11.219 18.715 C 11.431 18.657,11.660 18.422,11.719 18.204 C 11.808 17.873,11.689 17.566,11.395 17.372 L 11.226 17.260 7.083 17.254 C 4.804 17.250,2.882 17.261,2.811 17.278 " fill="#1C274C" stroke="none" fill-rule="evenodd"></path></svg>