<svg width="24" height="24" viewBox="0 0 24 24" fill="none" xmlns="http://www.w3.org/2000/svg"><path d="M2.811 5.279 C 2.536 5.344,2.316 5.587,2.260 5.885 C 2.197 6.220,2.450 6.624,2.781 6.715 C 3.007 6.778,19.993 6.778,20.219 6.715 C 20.431 6.657,20.660 6.422,20.719 6.204 C 20.808 5.873,20.689 5.566,20.394 5.372 L 20.226 5.260 11.583 5.254 C 6.829 5.250,2.882 5.262,2.811 5.279 M15.596 9.455 C 15.292 9.562,15.053 9.717,14.808 9.965 C 14.596 10.180,14.458 10.455,14.379 10.821 C 14.202 11.637,14.202 15.363,14.379 16.179 C 14.458 16.545,14.596 16.820,14.808 17.035 C 15.201 17.433,15.656 17.638,16.153 17.639 C 16.690 17.641,17.207 17.412,19.020 16.369 C 20.709 15.399,21.250 15.041,21.565 14.686 C 22.133 14.049,22.133 12.951,21.565 12.314 C 21.250 11.959,20.709 11.601,19.020 10.631 C 17.207 9.588,16.690 9.359,16.153 9.361 C 15.950 9.361,15.779 9.390,15.596 9.455 M2.811 10.278 C 2.536 10.345,2.316 10.587,2.260 10.885 C 2.197 11.220,2.450 11.624,2.781 11.715 C 3.004 11.777,9.996 11.777,10.219 11.715 C 10.431 11.657,10.660 11.422,10.719 11.204 C 10.808 10.873,10.689 10.566,10.395 10.372 L 10.226 10.260 6.583 10.254 C 4.579 10.250,2.882 10.261,2.811 10.278 M2.811 15.278 C 2.536 15.345,2.316 15.587,2.260 15.885 C 2.197 16.220,2.450 16.624,2.781 16.715 C 3.004 16.777,9.996 16.777,10.219 16.715 C 10.431 16.657,10.660 16.422,10.719 16.204 C 10.808 15.873,10.689 15.566,10.395 15.372 L 10.226 15.260 6.583 15.254 C 4.579 15.250,2.882 15.261,2.811 15.278 " fill="#1C274C" stroke="none" fill-rule="evenodd"></path></svg>