<svg width="24" height="24" viewBox="0 0 24 24" fill="none" xmlns="http://www.w3.org/2000/svg"><path d="M11.120 2.039 C 9.316 2.220,7.707 2.807,6.280 3.806 C 2.738 6.286,1.178 10.759,2.422 14.865 C 2.918 16.499,3.728 17.850,4.939 19.061 C 5.928 20.050,7.038 20.788,8.272 21.278 C 11.634 22.610,15.313 22.080,18.200 19.845 C 18.637 19.507,19.507 18.637,19.845 18.200 C 21.255 16.379,22.000 14.234,22.000 12.000 C 22.000 7.432,18.842 3.387,14.430 2.303 C 13.446 2.062,12.028 1.948,11.120 2.039 M11.300 8.235 C 12.215 8.691,13.196 9.357,14.252 10.240 C 15.265 11.086,15.500 11.435,15.473 12.060 C 15.448 12.672,15.147 13.054,13.904 14.050 C 13.188 14.624,12.795 14.900,12.100 15.320 C 10.871 16.063,10.493 16.149,10.082 15.777 C 9.672 15.407,9.541 14.493,9.541 12.000 C 9.541 9.181,9.700 8.361,10.300 8.073 C 10.552 7.953,10.820 7.996,11.300 8.235 " fill="#1C274C" stroke="none" fill-rule="evenodd"></path></svg>