<svg width="24" height="24" viewBox="0 0 24 24" fill="none" xmlns="http://www.w3.org/2000/svg"><path d="M2.807 4.287 C 2.568 4.341,2.341 4.572,2.289 4.816 C 2.197 5.246,2.431 5.629,2.838 5.716 C 3.129 5.778,14.871 5.778,15.162 5.716 C 15.920 5.553,15.920 4.447,15.162 4.284 C 14.895 4.227,3.064 4.230,2.807 4.287 M19.800 5.865 C 19.448 5.933,17.682 6.723,16.313 7.426 C 15.923 7.627,15.631 7.892,15.465 8.197 C 15.252 8.589,15.241 8.732,15.241 11.273 C 15.240 12.557,15.227 13.600,15.210 13.591 C 14.564 13.259,14.252 13.165,13.691 13.132 C 12.716 13.076,11.862 13.408,11.195 14.105 C 10.190 15.154,9.969 16.627,10.617 17.940 C 11.024 18.765,11.722 19.352,12.620 19.624 C 12.932 19.718,13.049 19.733,13.500 19.733 C 13.951 19.733,14.068 19.718,14.380 19.624 C 15.503 19.284,16.328 18.424,16.649 17.260 C 16.734 16.950,16.738 16.868,16.751 14.556 L 16.764 12.171 17.032 12.148 C 17.497 12.107,17.847 11.961,20.020 10.900 C 20.886 10.477,21.048 10.383,21.231 10.199 C 21.486 9.942,21.661 9.595,21.724 9.222 C 21.797 8.790,21.748 7.417,21.647 7.067 C 21.501 6.557,21.120 6.150,20.607 5.959 C 20.385 5.875,19.987 5.829,19.800 5.865 M2.807 8.287 C 2.568 8.341,2.341 8.572,2.289 8.816 C 2.197 9.246,2.431 9.629,2.838 9.716 C 3.128 9.778,12.872 9.778,13.162 9.716 C 13.920 9.553,13.920 8.447,13.162 8.284 C 12.896 8.227,3.064 8.230,2.807 8.287 M2.807 12.287 C 2.568 12.341,2.341 12.572,2.289 12.816 C 2.197 13.246,2.431 13.629,2.838 13.716 C 3.125 13.777,8.875 13.777,9.162 13.716 C 9.920 13.553,9.920 12.447,9.162 12.284 C 8.899 12.228,3.061 12.230,2.807 12.287 M2.807 16.287 C 2.568 16.341,2.341 16.572,2.289 16.816 C 2.197 17.246,2.431 17.629,2.838 17.716 C 3.123 17.777,7.877 17.777,8.162 17.716 C 8.920 17.553,8.920 16.447,8.162 16.284 C 7.900 16.228,3.060 16.231,2.807 16.287 " fill="#1C274C" stroke="none" fill-rule="evenodd"></path></svg>