<svg width="24" height="24" viewBox="0 0 24 24" fill="none" xmlns="http://www.w3.org/2000/svg"><path d="M11.280 2.024 C 9.466 2.184,7.857 2.742,6.427 3.707 C 4.775 4.823,3.484 6.406,2.746 8.220 C 2.228 9.495,2.021 10.582,2.021 12.020 C 2.022 13.029,2.072 13.481,2.278 14.340 C 3.237 18.330,6.505 21.325,10.548 21.918 C 10.851 21.963,11.132 22.000,11.170 22.000 C 11.236 22.000,11.240 21.829,11.240 18.965 L 11.240 15.930 11.118 15.906 C 10.887 15.859,10.393 15.639,10.110 15.457 C 9.551 15.094,9.140 14.622,8.843 13.997 C 8.594 13.475,8.552 13.271,8.530 12.477 C 8.512 11.784,8.513 11.771,8.614 11.572 C 8.792 11.221,9.043 11.062,9.495 11.016 L 9.760 10.989 9.760 9.913 C 9.760 8.934,9.767 8.823,9.836 8.688 C 9.981 8.406,10.186 8.280,10.500 8.280 C 10.814 8.280,11.019 8.406,11.164 8.688 C 11.233 8.823,11.240 8.934,11.240 9.918 L 11.240 11.000 12.000 11.000 L 12.760 11.000 12.760 9.918 C 12.760 8.934,12.767 8.823,12.836 8.688 C 12.981 8.406,13.186 8.280,13.500 8.280 C 13.814 8.280,14.019 8.406,14.164 8.688 C 14.233 8.823,14.240 8.934,14.240 9.913 L 14.240 10.989 14.505 11.016 C 14.651 11.031,14.828 11.067,14.898 11.097 C 15.106 11.183,15.304 11.385,15.399 11.607 C 15.483 11.803,15.488 11.856,15.469 12.498 C 15.448 13.270,15.404 13.479,15.157 13.997 C 14.860 14.622,14.449 15.094,13.890 15.457 C 13.607 15.639,13.113 15.859,12.882 15.906 L 12.760 15.930 12.760 18.965 C 12.760 21.829,12.764 22.000,12.830 22.000 C 12.868 22.000,13.149 21.963,13.452 21.918 C 17.147 21.376,20.266 18.779,21.459 15.254 C 21.836 14.139,21.977 13.267,21.979 12.040 C 21.980 10.626,21.784 9.560,21.294 8.320 C 20.341 5.907,18.429 3.917,16.052 2.863 C 14.810 2.313,13.615 2.051,12.220 2.023 C 11.802 2.015,11.379 2.015,11.280 2.024 " fill="#1C274C" stroke="none" fill-rule="evenodd"></path></svg>