<svg width="24" height="24" viewBox="0 0 24 24" fill="none" xmlns="http://www.w3.org/2000/svg"><path d="M8.440 2.043 C 7.012 2.094,5.996 2.226,5.213 2.462 C 3.811 2.885,2.890 3.808,2.459 5.221 C 2.103 6.387,2.001 7.900,2.001 12.000 C 2.001 16.166,2.103 17.637,2.478 18.838 C 2.599 19.226,2.907 19.882,2.980 19.907 C 3.002 19.914,6.827 16.112,11.480 11.458 C 19.562 3.374,19.936 2.994,19.860 2.935 C 19.709 2.820,19.139 2.568,18.800 2.466 C 17.966 2.215,17.054 2.101,15.393 2.041 C 14.150 1.996,9.732 1.997,8.440 2.043 M12.520 12.542 C 4.428 20.636,4.063 21.006,4.140 21.065 C 4.298 21.186,4.693 21.367,5.093 21.500 C 5.875 21.760,6.762 21.889,8.260 21.959 C 9.399 22.012,14.601 22.012,15.740 21.959 C 18.285 21.840,19.501 21.493,20.433 20.621 C 21.360 19.755,21.742 18.682,21.927 16.420 C 22.002 15.517,22.002 8.490,21.928 7.580 C 21.825 6.317,21.671 5.506,21.401 4.812 C 21.273 4.481,21.058 4.080,21.009 4.080 C 20.993 4.080,17.173 7.888,12.520 12.542 M8.267 4.803 C 8.427 4.863,8.598 5.034,8.684 5.220 C 8.749 5.361,8.758 5.490,8.759 6.310 L 8.760 7.240 9.690 7.241 C 10.715 7.242,10.821 7.262,11.047 7.505 C 11.398 7.880,11.267 8.459,10.780 8.684 C 10.639 8.749,10.510 8.758,9.690 8.759 L 8.760 8.760 8.759 9.690 C 8.758 10.503,8.749 10.640,8.685 10.780 C 8.591 10.987,8.360 11.189,8.178 11.223 C 7.812 11.292,7.500 11.143,7.339 10.822 C 7.242 10.628,7.240 10.605,7.240 9.692 L 7.240 8.760 6.308 8.760 C 5.395 8.760,5.372 8.758,5.178 8.661 C 4.602 8.371,4.626 7.584,5.220 7.315 C 5.360 7.251,5.497 7.242,6.310 7.241 L 7.240 7.240 7.240 6.319 C 7.240 5.316,7.258 5.213,7.472 4.985 C 7.668 4.777,7.998 4.701,8.267 4.803 M18.388 16.367 C 18.628 16.526,18.733 16.721,18.733 17.007 C 18.733 17.203,18.714 17.271,18.616 17.409 C 18.552 17.501,18.436 17.613,18.359 17.658 C 18.223 17.738,18.169 17.740,15.500 17.740 C 12.831 17.740,12.777 17.738,12.641 17.658 C 12.564 17.613,12.448 17.501,12.384 17.409 C 12.098 17.003,12.329 16.396,12.815 16.277 C 12.884 16.261,14.129 16.250,15.583 16.253 L 18.226 16.260 18.388 16.367 " fill="#1C274C" stroke="none" fill-rule="evenodd"></path></svg>