<svg width="24" height="24" viewBox="0 0 24 24" fill="none" xmlns="http://www.w3.org/2000/svg"><path d="M11.300 4.046 C 9.246 4.276,7.391 5.607,6.427 7.544 C 6.096 8.208,5.839 9.080,5.779 9.740 C 5.742 10.142,5.747 10.135,5.568 10.044 C 5.174 9.843,4.476 9.781,3.965 9.901 C 3.132 10.098,2.431 10.769,2.130 11.660 L 2.021 11.980 2.021 13.420 C 2.020 15.032,2.030 15.108,2.311 15.680 C 2.498 16.060,2.980 16.562,3.364 16.774 C 4.066 17.162,5.031 17.185,5.758 16.829 C 6.118 16.653,6.614 16.158,6.809 15.780 C 7.099 15.216,7.091 15.311,7.121 12.400 C 7.150 9.576,7.150 9.582,7.379 8.900 C 7.715 7.898,8.344 7.020,9.170 6.397 C 10.075 5.715,11.331 5.360,12.430 5.475 C 14.370 5.679,15.985 6.993,16.615 8.883 C 16.853 9.599,16.851 9.565,16.880 12.400 C 16.909 15.303,16.902 15.223,17.183 15.760 C 17.630 16.613,18.406 17.079,19.380 17.079 C 20.129 17.079,20.669 16.854,21.201 16.321 C 21.460 16.063,21.579 15.907,21.690 15.680 C 21.970 15.107,21.980 15.032,21.979 13.420 L 21.979 11.980 21.870 11.660 C 21.569 10.769,20.868 10.098,20.035 9.901 C 19.524 9.781,18.826 9.843,18.432 10.044 C 18.253 10.135,18.258 10.142,18.221 9.740 C 18.161 9.080,17.904 8.208,17.573 7.544 C 16.374 5.138,13.896 3.756,11.300 4.046 M11.433 6.958 C 10.441 7.140,9.551 7.764,9.029 8.646 C 8.854 8.942,8.654 9.440,8.616 9.676 L 8.590 9.840 9.457 9.840 C 10.405 9.840,10.461 9.851,10.652 10.078 C 10.959 10.443,10.850 10.992,10.430 11.195 C 10.268 11.274,10.190 11.280,9.387 11.280 L 8.520 11.280 8.520 11.997 L 8.520 12.715 9.430 12.727 C 10.299 12.739,10.347 12.744,10.488 12.832 C 10.675 12.948,10.793 13.138,10.825 13.374 C 10.861 13.637,10.707 13.947,10.471 14.082 C 10.307 14.176,10.267 14.180,9.446 14.193 L 8.592 14.206 8.620 14.353 C 8.699 14.777,9.013 15.395,9.380 15.848 C 9.764 16.323,10.463 16.786,11.034 16.945 L 11.274 17.011 11.287 18.236 C 11.301 19.594,11.301 19.589,11.577 19.832 C 11.848 20.070,12.199 20.052,12.463 19.787 C 12.698 19.551,12.720 19.407,12.720 18.105 L 12.720 17.013 12.963 16.946 C 13.537 16.786,14.235 16.324,14.620 15.848 C 14.987 15.395,15.301 14.777,15.381 14.352 L 15.408 14.204 14.094 14.192 C 12.612 14.178,12.567 14.170,12.372 13.874 C 12.098 13.461,12.293 12.889,12.751 12.762 C 12.839 12.737,13.426 12.720,14.190 12.720 L 15.480 12.720 15.480 12.000 L 15.480 11.280 14.150 11.279 C 12.942 11.278,12.805 11.271,12.657 11.204 C 12.256 11.022,12.120 10.506,12.372 10.126 C 12.557 9.845,12.587 9.840,14.081 9.840 L 15.410 9.840 15.384 9.676 C 15.279 9.017,14.697 8.102,14.092 7.643 C 13.774 7.402,13.201 7.112,12.860 7.020 C 12.582 6.946,11.709 6.908,11.433 6.958 " fill="#1C274C" stroke="none" fill-rule="evenodd"></path></svg>