<svg width="24" height="24" viewBox="0 0 24 24" fill="none" xmlns="http://www.w3.org/2000/svg"><path d="M11.334 2.038 C 9.910 2.203,8.628 2.810,7.663 3.777 C 6.850 4.592,6.316 5.590,6.093 6.709 C 6.000 7.178,5.999 8.293,6.092 8.884 C 6.504 11.525,7.949 13.926,9.900 15.211 C 10.362 15.515,10.865 15.768,11.242 15.886 C 11.665 16.017,12.335 16.017,12.758 15.886 C 13.834 15.551,15.119 14.569,16.011 13.400 C 16.977 12.134,17.652 10.528,17.908 8.884 C 18.001 8.293,18.000 7.178,17.907 6.709 C 17.438 4.347,15.544 2.536,13.090 2.101 C 12.669 2.026,11.729 1.992,11.334 2.038 M12.478 6.062 C 13.150 6.215,13.750 6.801,13.927 7.477 C 14.103 8.153,13.932 8.844,13.462 9.350 C 12.686 10.185,11.413 10.215,10.598 9.417 C 9.814 8.649,9.807 7.391,10.583 6.598 C 11.073 6.098,11.769 5.901,12.478 6.062 M19.424 8.826 C 19.380 9.330,19.179 10.254,18.977 10.880 C 18.089 13.640,16.268 15.884,14.028 16.979 C 13.413 17.280,12.967 17.418,12.404 17.480 C 11.611 17.567,10.869 17.415,9.980 16.985 C 7.548 15.808,5.593 13.227,4.824 10.180 L 4.693 9.660 4.336 9.662 C 3.947 9.664,3.830 9.705,3.539 9.940 C 3.330 10.109,3.186 10.381,3.094 10.780 C 3.025 11.080,3.020 11.349,3.020 15.120 L 3.020 19.140 3.110 19.428 C 3.229 19.804,3.461 20.050,3.886 20.252 C 4.052 20.331,4.708 20.569,5.344 20.781 C 7.542 21.514,8.041 21.628,8.858 21.587 C 9.752 21.542,10.236 21.373,12.046 20.475 C 14.043 19.483,14.331 19.368,15.092 19.256 C 15.769 19.157,15.912 19.171,18.660 19.604 C 19.355 19.714,19.897 19.698,20.180 19.561 C 20.468 19.421,20.731 19.141,20.834 18.867 C 20.994 18.438,21.005 18.090,20.992 13.860 C 20.980 9.846,20.979 9.818,20.894 9.569 C 20.758 9.173,20.582 8.991,20.107 8.760 C 19.883 8.651,19.644 8.550,19.576 8.537 L 19.452 8.512 19.424 8.826 " fill="#1C274C" stroke="none" fill-rule="evenodd"></path></svg>