<svg width="24" height="24" viewBox="0 0 24 24" fill="none" xmlns="http://www.w3.org/2000/svg"><path d="M16.400 2.066 C 16.235 2.099,15.938 2.202,15.740 2.296 C 14.598 2.837,13.932 3.950,14.013 5.178 C 14.044 5.639,14.123 5.934,14.330 6.360 C 14.469 6.644,14.562 6.766,14.898 7.102 C 15.232 7.436,15.358 7.533,15.640 7.671 C 15.827 7.763,16.038 7.850,16.110 7.864 L 16.240 7.890 16.240 10.475 C 16.240 12.238,16.254 13.111,16.285 13.219 C 16.344 13.432,16.578 13.660,16.798 13.719 C 17.198 13.827,17.610 13.599,17.718 13.209 C 17.745 13.114,17.760 12.130,17.760 10.480 L 17.761 7.900 17.998 7.826 C 18.387 7.705,18.713 7.488,19.122 7.081 C 19.436 6.767,19.532 6.641,19.669 6.360 C 19.880 5.928,19.957 5.636,19.987 5.159 C 20.107 3.224,18.327 1.689,16.400 2.066 M5.560 10.042 C 4.806 10.084,4.009 10.208,3.814 10.315 C 3.771 10.339,21.580 20.160,21.666 20.160 C 21.689 20.160,21.739 20.030,21.777 19.870 C 21.931 19.237,21.964 18.716,21.987 16.620 C 22.031 12.617,21.886 11.677,21.104 10.896 C 20.680 10.472,20.240 10.274,19.420 10.139 C 19.222 10.107,19.047 10.080,19.030 10.080 C 19.014 10.080,19.000 10.781,19.000 11.638 C 19.000 12.621,18.984 13.274,18.956 13.408 C 18.807 14.120,18.217 14.746,17.523 14.927 C 16.647 15.155,15.750 14.790,15.279 14.013 C 15.020 13.585,15.005 13.454,15.002 11.630 L 15.000 10.000 10.550 10.006 C 8.103 10.009,5.857 10.026,5.560 10.042 M2.409 11.580 C 2.279 11.846,2.166 12.315,2.090 12.900 C 2.033 13.340,2.023 13.815,2.023 16.000 C 2.023 18.709,2.047 19.177,2.224 19.880 C 2.294 20.158,2.546 20.722,2.667 20.869 L 2.740 20.958 6.713 18.449 C 8.897 17.069,10.688 15.924,10.693 15.905 C 10.700 15.868,2.613 11.402,2.538 11.401 C 2.515 11.400,2.457 11.481,2.409 11.580 M8.268 19.250 C 6.072 20.637,4.291 21.787,4.309 21.805 C 4.328 21.824,4.585 21.871,4.881 21.909 C 5.377 21.974,5.944 21.980,12.000 21.980 C 17.996 21.980,18.626 21.974,19.100 21.911 C 19.386 21.873,19.747 21.809,19.903 21.768 C 20.241 21.678,20.776 21.439,20.731 21.397 C 20.714 21.381,18.810 20.328,16.500 19.059 C 14.190 17.789,12.291 16.745,12.280 16.739 C 12.269 16.733,10.463 17.863,8.268 19.250 " fill="#1C274C" stroke="none" fill-rule="evenodd"></path></svg>