<svg width="24" height="24" viewBox="0 0 24 24" fill="none" xmlns="http://www.w3.org/2000/svg"><path d="M2.252 5.075 C 1.980 5.247,2.000 4.704,2.000 12.008 C 2.000 18.495,2.002 18.622,2.078 18.748 C 2.207 18.959,2.363 19.015,2.744 18.985 C 4.181 18.875,5.311 17.762,5.479 16.290 C 5.533 15.821,5.533 8.179,5.479 7.710 C 5.308 6.216,4.177 5.120,2.700 5.017 C 2.423 4.997,2.363 5.005,2.252 5.075 M9.660 5.044 C 8.630 5.120,8.105 5.394,7.800 6.015 C 7.533 6.558,7.540 6.392,7.540 12.000 C 7.540 16.650,7.546 17.088,7.610 17.400 C 7.693 17.809,7.865 18.174,8.076 18.391 C 8.580 18.910,9.158 19.000,12.000 19.000 C 13.753 19.000,14.592 18.961,15.031 18.859 C 15.799 18.681,16.221 18.227,16.390 17.400 C 16.454 17.088,16.460 16.650,16.460 12.000 C 16.460 6.392,16.467 6.558,16.200 6.015 C 15.885 5.374,15.378 5.122,14.241 5.040 C 13.605 4.994,10.296 4.997,9.660 5.044 M21.005 5.045 C 20.477 5.133,19.874 5.429,19.470 5.798 C 19.213 6.033,18.899 6.480,18.746 6.829 C 18.517 7.351,18.521 7.239,18.521 12.000 C 18.521 16.916,18.508 16.677,18.817 17.300 C 19.307 18.290,20.191 18.893,21.289 18.985 C 21.635 19.015,21.796 18.954,21.922 18.748 C 21.998 18.622,22.000 18.495,22.000 12.008 C 22.000 4.704,22.020 5.244,21.748 5.078 C 21.609 4.993,21.378 4.983,21.005 5.045 " fill="#1C274C" stroke="none" fill-rule="evenodd"></path></svg>