<svg width="24" height="24" viewBox="0 0 24 24" fill="none" xmlns="http://www.w3.org/2000/svg"><path d="M5.252 2.078 C 5.041 2.207,4.985 2.363,5.015 2.744 C 5.125 4.181,6.238 5.311,7.710 5.479 C 8.179 5.533,15.821 5.533,16.290 5.479 C 17.762 5.311,18.875 4.181,18.985 2.744 C 19.015 2.363,18.959 2.207,18.748 2.078 C 18.622 2.002,18.495 2.000,12.000 2.000 C 5.505 2.000,5.378 2.002,5.252 2.078 M6.922 7.564 C 5.882 7.687,5.371 8.075,5.159 8.902 C 5.039 9.374,5.001 10.117,5.001 12.000 C 5.001 14.856,5.088 15.418,5.609 15.924 C 5.826 16.135,6.191 16.307,6.600 16.390 C 6.912 16.454,7.350 16.460,12.000 16.460 C 16.650 16.460,17.088 16.454,17.400 16.390 C 18.227 16.221,18.681 15.799,18.859 15.031 C 18.961 14.592,19.000 13.753,19.000 12.000 C 19.000 9.158,18.910 8.580,18.391 8.076 C 18.184 7.875,17.818 7.697,17.440 7.612 C 17.169 7.552,16.653 7.545,12.180 7.537 C 9.452 7.533,7.086 7.545,6.922 7.564 M7.320 18.582 C 6.984 18.654,6.405 18.943,6.101 19.188 C 5.482 19.689,5.085 20.458,5.015 21.289 C 4.985 21.635,5.046 21.796,5.252 21.922 C 5.378 21.998,5.505 22.000,12.000 22.000 C 18.495 22.000,18.622 21.998,18.748 21.922 C 18.954 21.796,19.015 21.635,18.985 21.289 C 18.915 20.460,18.516 19.686,17.904 19.193 C 17.632 18.974,17.211 18.744,16.863 18.625 C 16.623 18.543,16.566 18.542,12.100 18.534 C 8.346 18.527,7.536 18.535,7.320 18.582 " fill="#1C274C" stroke="none" fill-rule="evenodd"></path></svg>