<svg width="24" height="24" viewBox="0 0 24 24" fill="none" xmlns="http://www.w3.org/2000/svg"><path d="M11.815 1.277 C 11.638 1.321,11.461 1.456,11.353 1.631 L 11.260 1.780 11.260 4.360 L 11.260 6.940 11.369 7.126 C 11.647 7.598,12.353 7.598,12.631 7.126 L 12.740 6.940 12.751 4.501 C 12.764 1.921,12.755 1.765,12.581 1.538 C 12.421 1.327,12.079 1.211,11.815 1.277 M8.193 3.780 C 7.902 3.887,7.062 4.337,6.666 4.598 C 4.389 6.099,2.855 8.440,2.399 11.108 C 2.020 13.323,2.440 15.703,3.544 17.590 C 4.575 19.355,5.950 20.633,7.775 21.525 C 8.719 21.986,9.911 22.327,10.968 22.439 C 11.467 22.492,12.533 22.492,13.032 22.439 C 15.688 22.157,18.177 20.748,19.780 18.618 C 21.394 16.474,22.053 13.747,21.599 11.092 C 21.077 8.040,19.125 5.421,16.335 4.030 C 15.899 3.813,15.716 3.743,15.550 3.729 C 14.930 3.678,14.546 4.352,14.895 4.879 C 14.981 5.009,15.079 5.075,15.456 5.255 C 16.380 5.698,16.994 6.123,17.715 6.820 C 18.244 7.332,18.548 7.697,18.929 8.280 C 19.600 9.305,20.041 10.530,20.198 11.799 C 20.257 12.276,20.249 13.303,20.182 13.800 C 20.056 14.738,19.826 15.506,19.421 16.340 C 17.611 20.071,13.359 21.875,9.420 20.581 C 8.165 20.169,7.106 19.514,6.159 18.563 C 4.830 17.230,4.030 15.572,3.801 13.681 C 3.748 13.242,3.748 12.232,3.802 11.799 C 3.959 10.530,4.400 9.305,5.071 8.280 C 5.452 7.697,5.756 7.332,6.285 6.820 C 7.006 6.123,7.620 5.698,8.544 5.255 C 9.057 5.010,9.193 4.869,9.229 4.545 C 9.295 3.968,8.759 3.572,8.193 3.780 " stroke="none" fill-rule="evenodd" fill="black"></path></svg>