<svg width="24" height="24" viewBox="0 0 24 24" fill="none" xmlns="http://www.w3.org/2000/svg"><path d="M1.811 1.279 C 1.536 1.344,1.316 1.587,1.260 1.885 C 1.197 2.220,1.450 2.624,1.781 2.715 C 1.878 2.742,2.342 2.760,2.970 2.760 L 4.000 2.760 4.001 7.650 C 4.002 12.296,4.022 13.350,4.122 14.040 C 4.291 15.200,4.708 15.931,5.462 16.393 C 5.748 16.569,6.428 16.785,6.923 16.857 C 7.581 16.954,8.545 16.999,9.950 17.000 L 11.240 17.000 11.240 18.770 L 11.240 20.540 10.378 20.972 C 9.442 21.442,9.317 21.544,9.261 21.877 C 9.179 22.362,9.640 22.829,10.113 22.740 C 10.190 22.726,10.646 22.517,11.126 22.277 L 12.000 21.840 12.874 22.277 C 13.354 22.517,13.810 22.726,13.887 22.740 C 14.224 22.804,14.587 22.579,14.701 22.238 C 14.784 21.986,14.752 21.777,14.598 21.564 C 14.500 21.428,14.357 21.342,13.622 20.972 L 12.760 20.540 12.760 18.770 L 12.760 17.000 14.050 17.000 C 16.644 16.999,17.758 16.847,18.542 16.387 C 19.135 16.040,19.559 15.435,19.755 14.656 C 19.979 13.764,19.998 13.203,19.999 7.650 L 20.000 2.760 21.030 2.760 C 21.658 2.760,22.122 2.742,22.219 2.715 C 22.431 2.657,22.660 2.422,22.719 2.204 C 22.808 1.873,22.689 1.566,22.394 1.372 L 22.226 1.260 12.083 1.254 C 6.504 1.251,1.882 1.262,1.811 1.279 M15.267 7.803 C 15.409 7.856,15.588 8.024,15.669 8.179 C 15.752 8.337,15.748 8.668,15.663 8.841 C 15.625 8.917,15.182 9.388,14.677 9.887 C 13.609 10.944,13.496 11.020,13.000 11.020 C 12.544 11.020,12.380 10.922,11.626 10.195 L 10.996 9.589 10.224 10.354 C 9.754 10.821,9.396 11.142,9.308 11.179 C 8.932 11.336,8.521 11.185,8.331 10.821 C 8.248 10.663,8.252 10.332,8.338 10.159 C 8.431 9.974,10.040 8.373,10.322 8.186 C 10.754 7.900,11.240 7.896,11.658 8.174 C 11.769 8.248,12.117 8.557,12.432 8.860 L 13.004 9.412 13.775 8.647 C 14.200 8.226,14.608 7.855,14.683 7.822 C 14.845 7.752,15.110 7.743,15.267 7.803 " fill="#1C274C" stroke="none" fill-rule="evenodd"></path></svg>