<svg width="24" height="24" viewBox="0 0 24 24" fill="none" xmlns="http://www.w3.org/2000/svg"><path d="M9.558 2.041 C 8.154 2.117,7.447 2.344,6.896 2.896 C 6.565 3.226,6.366 3.585,6.245 4.065 C 6.181 4.321,6.080 4.880,6.080 4.978 C 6.080 4.990,8.744 5.000,12.000 5.000 C 15.256 5.000,17.920 4.986,17.920 4.970 C 17.919 4.840,17.786 4.162,17.716 3.938 C 17.576 3.483,17.412 3.203,17.104 2.896 C 16.538 2.329,15.881 2.125,14.351 2.040 C 13.565 1.996,10.375 1.997,9.558 2.041 M5.558 6.041 C 4.154 6.117,3.447 6.344,2.896 6.896 C 2.148 7.643,2.002 8.480,2.002 12.000 C 2.002 15.520,2.148 16.357,2.896 17.104 C 3.203 17.412,3.483 17.576,3.938 17.716 C 4.162 17.786,4.840 17.919,4.970 17.920 C 4.986 17.920,5.000 16.822,5.000 15.479 L 5.000 13.038 4.870 13.107 C 4.789 13.150,4.648 13.177,4.497 13.178 C 4.190 13.180,3.971 13.050,3.845 12.790 C 3.643 12.373,3.796 11.966,4.240 11.741 C 4.829 11.443,6.276 10.970,7.291 10.743 C 10.232 10.085,13.768 10.085,16.709 10.743 C 17.442 10.906,18.343 11.176,18.990 11.424 C 19.744 11.713,19.919 11.802,20.072 11.977 C 20.366 12.312,20.252 12.906,19.854 13.104 C 19.660 13.200,19.309 13.201,19.130 13.107 L 19.000 13.038 19.000 15.479 C 19.000 16.822,19.014 17.920,19.030 17.920 C 19.160 17.919,19.838 17.786,20.062 17.716 C 20.517 17.576,20.797 17.412,21.104 17.104 C 21.852 16.357,21.998 15.520,21.998 12.000 C 21.998 8.480,21.852 7.643,21.104 6.896 C 20.538 6.329,19.881 6.125,18.351 6.040 C 17.555 5.996,6.380 5.997,5.558 6.041 M10.460 11.805 C 9.071 11.901,7.729 12.139,6.487 12.507 L 5.994 12.654 6.011 15.677 C 6.029 18.858,6.044 19.165,6.220 19.862 C 6.426 20.679,6.846 21.235,7.496 21.552 C 8.292 21.940,9.180 22.018,12.480 21.988 C 14.700 21.968,15.070 21.948,15.716 21.816 C 16.886 21.576,17.576 20.886,17.816 19.716 C 17.957 19.026,17.970 18.736,17.988 15.697 L 18.006 12.654 17.513 12.507 C 16.232 12.127,14.942 11.903,13.440 11.800 C 12.765 11.754,11.152 11.757,10.460 11.805 " fill="#1C274C" stroke="none" fill-rule="evenodd"></path></svg>