<svg width="24" height="24" viewBox="0 0 24 24" fill="none" xmlns="http://www.w3.org/2000/svg"><path d="M9.558 2.041 C 8.154 2.117,7.447 2.344,6.896 2.896 C 6.565 3.226,6.366 3.585,6.245 4.065 C 6.181 4.321,6.080 4.880,6.080 4.978 C 6.080 4.990,8.744 5.000,12.000 5.000 C 15.256 5.000,17.920 4.986,17.920 4.970 C 17.919 4.840,17.786 4.162,17.716 3.938 C 17.576 3.483,17.412 3.203,17.104 2.896 C 16.538 2.329,15.881 2.125,14.351 2.040 C 13.565 1.996,10.375 1.997,9.558 2.041 M5.560 6.041 C 4.554 6.099,3.963 6.217,3.493 6.454 C 2.635 6.886,2.227 7.611,2.074 8.980 C 1.999 9.648,1.997 14.387,2.072 15.020 C 2.196 16.070,2.431 16.669,2.903 17.133 C 3.297 17.521,3.804 17.744,4.576 17.868 C 4.808 17.905,5.004 17.928,5.012 17.918 C 5.020 17.908,5.016 17.361,5.003 16.702 L 4.980 15.505 4.853 15.472 C 4.651 15.420,4.520 15.232,4.520 14.993 C 4.520 14.818,4.537 14.775,4.656 14.656 L 4.792 14.520 12.000 14.520 L 19.208 14.520 19.344 14.656 C 19.463 14.775,19.480 14.818,19.480 14.993 C 19.480 15.232,19.349 15.420,19.147 15.472 L 19.020 15.505 18.997 16.702 C 18.984 17.361,18.980 17.908,18.988 17.918 C 19.018 17.955,19.860 17.795,20.153 17.697 C 21.052 17.395,21.607 16.734,21.816 15.716 C 21.966 14.984,21.980 14.670,21.980 12.000 C 21.980 9.330,21.966 9.016,21.816 8.284 C 21.593 7.199,20.949 6.499,19.931 6.237 C 19.112 6.027,19.143 6.028,12.380 6.019 C 8.926 6.014,5.857 6.024,5.560 6.041 M17.340 9.066 C 17.709 9.192,18.000 9.604,18.000 10.000 C 18.000 10.527,17.527 11.000,17.000 11.000 C 16.758 11.000,16.479 10.881,16.299 10.701 C 15.907 10.309,15.908 9.690,16.300 9.298 C 16.577 9.020,16.957 8.936,17.340 9.066 M9.373 9.355 C 9.615 9.506,9.733 9.718,9.733 10.003 C 9.733 10.203,9.714 10.270,9.616 10.409 C 9.552 10.501,9.436 10.613,9.359 10.658 C 9.225 10.737,9.161 10.740,7.500 10.740 C 5.839 10.740,5.775 10.737,5.641 10.658 C 5.564 10.613,5.448 10.501,5.384 10.409 C 5.098 10.003,5.329 9.397,5.815 9.277 C 5.884 9.260,6.678 9.249,7.580 9.253 L 9.220 9.260 9.373 9.355 M6.013 16.910 C 6.063 19.598,6.266 20.524,6.948 21.162 C 7.689 21.855,8.555 21.998,12.000 21.998 C 15.447 21.998,16.310 21.855,17.053 21.160 C 17.738 20.519,17.936 19.610,17.987 16.870 L 18.013 15.520 12.000 15.520 L 5.987 15.520 6.013 16.910 " fill="#1C274C" stroke="none" fill-rule="evenodd"></path></svg>