<svg width="24" height="24" viewBox="0 0 24 24" fill="none" xmlns="http://www.w3.org/2000/svg"><path d="M9.558 2.041 C 8.154 2.117,7.447 2.344,6.896 2.896 C 6.565 3.226,6.366 3.585,6.245 4.065 C 6.181 4.321,6.080 4.880,6.080 4.978 C 6.080 4.990,8.744 5.000,12.000 5.000 C 15.256 5.000,17.920 4.986,17.920 4.970 C 17.919 4.840,17.786 4.162,17.716 3.938 C 17.576 3.483,17.412 3.203,17.104 2.896 C 16.538 2.329,15.881 2.125,14.351 2.040 C 13.565 1.996,10.375 1.997,9.558 2.041 M5.560 6.041 C 4.554 6.099,3.963 6.217,3.493 6.454 C 2.635 6.886,2.227 7.611,2.074 8.980 C 1.999 9.648,1.997 14.387,2.072 15.020 C 2.196 16.070,2.431 16.669,2.903 17.133 C 3.297 17.521,3.804 17.744,4.576 17.868 C 4.808 17.905,5.004 17.928,5.011 17.918 C 5.019 17.908,5.015 17.136,5.002 16.202 L 4.980 14.505 4.853 14.472 C 4.651 14.420,4.520 14.232,4.520 13.993 C 4.520 13.818,4.537 13.775,4.656 13.656 L 4.792 13.520 12.000 13.520 L 19.208 13.520 19.344 13.656 C 19.463 13.775,19.480 13.818,19.480 13.993 C 19.480 14.232,19.349 14.420,19.147 14.472 L 19.020 14.505 18.997 16.202 C 18.985 17.136,18.981 17.908,18.988 17.918 C 19.017 17.955,19.860 17.795,20.153 17.697 C 21.052 17.395,21.607 16.734,21.816 15.716 C 21.966 14.984,21.980 14.670,21.980 12.000 C 21.980 9.330,21.966 9.016,21.816 8.284 C 21.593 7.199,20.949 6.499,19.931 6.237 C 19.112 6.027,19.143 6.028,12.380 6.019 C 8.926 6.014,5.857 6.024,5.560 6.041 M17.340 9.066 C 17.709 9.192,18.000 9.604,18.000 10.000 C 18.000 10.527,17.527 11.000,17.000 11.000 C 16.758 11.000,16.479 10.881,16.299 10.701 C 15.907 10.309,15.908 9.690,16.300 9.298 C 16.577 9.020,16.957 8.936,17.340 9.066 M9.373 9.355 C 9.615 9.506,9.733 9.718,9.733 10.003 C 9.733 10.203,9.714 10.270,9.616 10.409 C 9.552 10.501,9.436 10.613,9.359 10.658 C 9.225 10.737,9.161 10.740,7.500 10.740 C 5.839 10.740,5.775 10.737,5.641 10.658 C 5.564 10.613,5.448 10.501,5.384 10.409 C 5.098 10.003,5.329 9.397,5.815 9.277 C 5.884 9.260,6.678 9.249,7.580 9.253 L 9.220 9.260 9.373 9.355 M6.001 15.430 C 6.002 17.066,6.086 18.564,6.222 19.380 C 6.380 20.332,6.583 20.825,6.963 21.176 C 7.696 21.855,8.574 21.998,12.000 21.998 C 15.426 21.998,16.304 21.855,17.037 21.176 C 17.417 20.825,17.620 20.332,17.778 19.380 C 17.912 18.575,17.998 17.035,17.999 15.410 L 18.000 14.520 12.000 14.520 L 6.000 14.520 6.001 15.430 M15.302 16.075 C 15.871 16.334,15.899 17.116,15.350 17.409 L 15.180 17.500 12.000 17.500 L 8.820 17.500 8.650 17.409 C 8.101 17.116,8.129 16.334,8.698 16.075 C 8.851 16.006,9.039 16.002,12.000 16.002 C 14.961 16.002,15.149 16.006,15.302 16.075 M13.302 19.075 C 13.871 19.334,13.899 20.116,13.350 20.409 L 13.180 20.500 11.000 20.500 L 8.820 20.500 8.650 20.409 C 8.101 20.116,8.129 19.334,8.698 19.075 C 8.849 19.007,9.009 19.002,11.000 19.002 C 12.991 19.002,13.151 19.007,13.302 19.075 " fill="#1C274C" stroke="none" fill-rule="evenodd"></path></svg>