<svg width="24" height="24" viewBox="0 0 24 24" fill="none" xmlns="http://www.w3.org/2000/svg"><path d="M8.419 2.043 C 5.807 2.139,4.481 2.507,3.549 3.393 C 2.551 4.342,2.166 5.587,2.041 8.260 C 1.988 9.399,1.988 14.601,2.041 15.740 C 2.160 18.285,2.507 19.501,3.379 20.433 C 4.323 21.444,5.571 21.833,8.260 21.959 C 9.399 22.012,14.601 22.012,15.740 21.959 C 18.285 21.840,19.501 21.493,20.433 20.621 C 21.360 19.755,21.742 18.682,21.927 16.420 C 22.002 15.512,22.002 8.488,21.927 7.580 C 21.743 5.332,21.366 4.263,20.451 3.393 C 19.495 2.484,18.240 2.146,15.417 2.041 C 14.194 1.995,9.686 1.997,8.419 2.043 M7.332 9.327 C 7.489 9.410,8.642 10.398,9.002 10.758 C 9.651 11.408,9.886 11.871,9.886 12.500 C 9.886 13.302,9.521 13.845,8.254 14.927 C 7.479 15.589,7.314 15.707,7.122 15.740 C 6.503 15.844,6.041 15.137,6.373 14.592 C 6.399 14.550,6.687 14.289,7.013 14.013 C 8.096 13.099,8.400 12.767,8.400 12.500 C 8.400 12.231,8.092 11.897,7.016 10.993 C 6.364 10.446,6.266 10.316,6.266 10.000 C 6.266 9.665,6.500 9.354,6.811 9.278 C 6.953 9.243,7.220 9.268,7.332 9.327 M17.388 14.367 C 17.628 14.526,17.733 14.721,17.733 15.007 C 17.733 15.203,17.714 15.271,17.616 15.409 C 17.552 15.501,17.436 15.613,17.359 15.658 C 17.223 15.738,17.169 15.740,14.500 15.740 C 11.831 15.740,11.777 15.738,11.641 15.658 C 11.564 15.613,11.448 15.501,11.384 15.409 C 11.098 15.003,11.329 14.396,11.815 14.277 C 11.884 14.261,13.129 14.250,14.583 14.253 L 17.226 14.260 17.388 14.367 " fill="#1C274C" stroke="none" fill-rule="evenodd"></path></svg>