<svg width="24" height="24" viewBox="0 0 24 24" fill="none" xmlns="http://www.w3.org/2000/svg"><path d="M13.500 4.025 C 12.351 4.150,11.297 4.655,10.476 5.476 C 8.771 7.181,8.526 9.800,9.881 11.824 C 10.148 12.223,10.769 12.847,11.160 13.108 C 11.747 13.501,12.350 13.756,13.042 13.903 C 13.510 14.003,14.490 14.003,14.958 13.903 C 15.982 13.685,16.804 13.243,17.524 12.524 C 18.243 11.804,18.685 10.982,18.903 9.958 C 19.003 9.490,19.003 8.510,18.903 8.042 C 18.685 7.018,18.243 6.196,17.524 5.476 C 16.819 4.772,16.024 4.336,15.040 4.117 C 14.705 4.042,13.826 3.990,13.500 4.025 M5.560 6.042 C 4.560 6.097,3.964 6.216,3.493 6.454 C 2.635 6.886,2.227 7.611,2.074 8.980 C 1.998 9.660,1.998 14.340,2.074 15.020 C 2.287 16.916,3.001 17.666,4.820 17.904 C 5.084 17.938,5.306 17.973,5.314 17.980 C 5.321 17.988,5.088 18.394,4.794 18.883 C 4.278 19.745,4.261 19.780,4.263 19.996 C 4.264 20.272,4.350 20.443,4.563 20.598 C 4.850 20.805,5.234 20.793,5.483 20.568 C 5.548 20.509,5.931 19.911,6.333 19.240 L 7.064 18.020 12.000 18.020 L 16.936 18.020 17.667 19.240 C 18.069 19.911,18.452 20.509,18.517 20.568 C 18.890 20.905,19.513 20.741,19.693 20.258 C 19.812 19.939,19.774 19.835,19.195 18.867 C 18.908 18.387,18.679 17.988,18.686 17.980 C 18.694 17.973,18.916 17.938,19.180 17.904 C 20.231 17.766,20.815 17.497,21.277 16.938 C 21.691 16.437,21.877 15.769,21.963 14.467 C 22.019 13.617,21.989 9.419,21.923 8.924 C 21.782 7.863,21.562 7.323,21.077 6.847 C 20.855 6.630,20.270 6.304,20.014 6.255 L 19.888 6.232 20.022 6.566 C 20.380 7.461,20.500 8.173,20.468 9.220 C 20.443 10.031,20.370 10.455,20.137 11.123 C 19.485 12.996,17.996 14.488,16.136 15.133 C 12.741 16.310,9.045 14.518,7.863 11.122 C 7.593 10.348,7.543 10.013,7.543 9.000 C 7.543 8.220,7.554 8.046,7.631 7.694 C 7.734 7.223,7.955 6.566,8.124 6.233 L 8.241 6.000 7.171 6.006 C 6.582 6.009,5.857 6.026,5.560 6.042 M14.828 6.379 C 15.255 6.514,15.599 6.727,15.936 7.064 C 16.271 7.399,16.482 7.740,16.628 8.180 C 16.719 8.457,16.733 8.567,16.733 9.000 C 16.733 9.430,16.719 9.544,16.631 9.811 C 16.346 10.673,15.673 11.346,14.811 11.631 C 14.544 11.719,14.430 11.733,14.000 11.733 C 13.567 11.733,13.457 11.719,13.180 11.628 C 13.004 11.570,12.745 11.454,12.604 11.371 C 12.276 11.178,11.822 10.724,11.629 10.396 C 11.341 9.908,11.169 9.117,11.278 8.785 C 11.418 8.361,11.878 8.138,12.271 8.302 C 12.584 8.433,12.715 8.637,12.764 9.073 C 12.820 9.572,13.052 9.921,13.463 10.123 C 13.625 10.203,13.721 10.220,14.000 10.220 C 14.394 10.220,14.632 10.128,14.880 9.880 C 15.128 9.632,15.220 9.394,15.220 9.000 C 15.220 8.721,15.203 8.625,15.123 8.463 C 14.921 8.052,14.572 7.820,14.073 7.764 C 13.637 7.715,13.433 7.584,13.302 7.271 C 13.148 6.903,13.318 6.496,13.700 6.313 C 13.910 6.212,14.391 6.240,14.828 6.379 M5.790 8.822 C 5.988 8.904,6.077 8.990,6.165 9.180 C 6.229 9.320,6.238 9.453,6.239 10.247 C 6.240 10.794,6.223 11.200,6.197 11.267 C 6.104 11.516,5.759 11.758,5.500 11.758 C 5.241 11.758,4.896 11.516,4.803 11.267 C 4.777 11.200,4.760 10.794,4.760 10.256 C 4.760 9.318,4.781 9.178,4.952 8.986 C 5.131 8.783,5.517 8.708,5.790 8.822 " fill="#1C274C" stroke="none" fill-rule="evenodd"></path></svg>