<svg width="24" height="24" viewBox="0 0 24 24" fill="none" xmlns="http://www.w3.org/2000/svg"><path d="M11.120 2.039 C 10.299 2.121,9.443 2.304,8.751 2.545 C 6.322 3.391,4.310 5.122,3.137 7.377 C 1.515 10.496,1.641 14.233,3.470 17.216 C 5.026 19.754,7.598 21.443,10.607 21.902 C 11.278 22.004,11.824 21.896,12.343 21.558 C 13.211 20.993,13.522 20.122,13.148 19.307 C 13.096 19.193,12.915 18.938,12.746 18.740 C 12.576 18.542,12.371 18.246,12.289 18.082 C 12.152 17.807,12.140 17.757,12.140 17.439 C 12.140 17.125,12.151 17.076,12.261 16.898 C 12.581 16.380,13.222 16.166,14.300 16.214 C 14.586 16.227,15.333 16.302,15.960 16.381 C 18.131 16.655,19.208 16.612,20.067 16.219 C 20.954 15.814,21.496 15.101,21.785 13.963 C 22.204 12.314,22.008 10.114,21.278 8.272 C 20.116 5.343,17.492 3.056,14.430 2.303 C 13.446 2.062,12.028 1.948,11.120 2.039 M10.270 5.677 C 10.573 5.840,10.811 6.089,10.953 6.393 C 11.044 6.589,11.059 6.673,11.059 7.000 C 11.059 7.327,11.044 7.411,10.953 7.607 C 10.670 8.214,10.004 8.581,9.372 8.479 C 9.060 8.428,8.681 8.235,8.500 8.035 C 8.418 7.944,8.295 7.751,8.226 7.605 C 8.116 7.372,8.101 7.298,8.100 6.995 C 8.100 6.671,8.110 6.631,8.260 6.338 C 8.446 5.977,8.668 5.766,9.025 5.616 C 9.230 5.530,9.308 5.519,9.640 5.530 C 9.982 5.542,10.045 5.557,10.270 5.677 M15.169 5.671 C 16.239 6.199,16.265 7.750,15.213 8.310 C 13.992 8.959,12.644 7.792,13.100 6.480 C 13.233 6.096,13.536 5.788,13.949 5.615 C 14.146 5.533,14.234 5.520,14.541 5.529 C 14.856 5.539,14.936 5.557,15.169 5.671 M7.110 10.139 C 7.415 10.278,7.725 10.589,7.866 10.896 C 7.962 11.105,7.978 11.191,7.978 11.500 C 7.979 11.810,7.963 11.893,7.867 12.100 C 7.722 12.415,7.413 12.724,7.104 12.867 C 6.894 12.965,6.811 12.980,6.500 12.980 C 6.190 12.980,6.107 12.965,5.900 12.868 C 5.584 12.721,5.275 12.413,5.134 12.104 C 5.038 11.895,5.022 11.809,5.022 11.500 C 5.021 11.190,5.037 11.107,5.133 10.900 C 5.324 10.489,5.727 10.148,6.150 10.041 C 6.407 9.976,6.852 10.022,7.110 10.139 M18.110 10.139 C 18.415 10.278,18.725 10.589,18.866 10.896 C 18.962 11.105,18.978 11.191,18.978 11.500 C 18.979 11.810,18.963 11.893,18.867 12.100 C 18.722 12.415,18.413 12.724,18.104 12.867 C 17.894 12.965,17.811 12.980,17.500 12.980 C 17.190 12.980,17.107 12.965,16.900 12.868 C 16.584 12.721,16.275 12.413,16.134 12.104 C 16.038 11.895,16.022 11.809,16.022 11.500 C 16.021 11.190,16.037 11.107,16.133 10.900 C 16.324 10.489,16.727 10.148,17.150 10.041 C 17.407 9.976,17.852 10.022,18.110 10.139 " fill="#1C274C" stroke="none" fill-rule="evenodd"></path></svg>