<svg width="24" height="24" viewBox="0 0 24 24" fill="none" xmlns="http://www.w3.org/2000/svg"><path d="M8.419 2.043 C 5.807 2.139,4.481 2.507,3.549 3.393 C 2.551 4.342,2.166 5.587,2.041 8.260 C 1.988 9.399,1.988 14.601,2.041 15.740 C 2.160 18.285,2.507 19.501,3.379 20.433 C 4.326 21.446,5.580 21.837,8.280 21.959 C 9.445 22.011,14.555 22.011,15.720 21.959 C 18.275 21.843,19.498 21.496,20.433 20.621 C 21.360 19.755,21.742 18.682,21.927 16.420 C 22.002 15.512,22.002 8.488,21.927 7.580 C 21.743 5.332,21.366 4.263,20.451 3.393 C 19.495 2.484,18.240 2.146,15.417 2.041 C 14.194 1.995,9.686 1.997,8.419 2.043 M14.086 10.903 C 14.441 11.085,14.611 11.305,15.439 12.651 C 15.794 13.228,16.146 13.785,16.222 13.889 C 16.471 14.231,16.405 14.217,17.901 14.240 L 19.226 14.260 19.388 14.367 C 19.628 14.526,19.733 14.721,19.733 15.007 C 19.733 15.203,19.714 15.271,19.616 15.409 C 19.381 15.743,19.399 15.740,17.880 15.739 C 15.581 15.738,15.550 15.718,14.060 13.268 C 13.822 12.877,13.614 12.571,13.597 12.588 C 13.581 12.606,13.023 13.691,12.359 15.000 C 11.694 16.309,11.091 17.470,11.020 17.580 C 10.728 18.029,10.363 18.255,9.937 18.252 C 9.414 18.248,9.126 18.010,8.455 17.026 C 7.831 16.111,7.697 15.933,7.571 15.850 C 7.476 15.788,7.312 15.778,6.122 15.760 C 4.605 15.737,4.616 15.740,4.384 15.409 C 4.286 15.270,4.267 15.203,4.267 15.003 C 4.267 14.718,4.385 14.506,4.627 14.355 L 4.780 14.260 6.120 14.263 C 7.604 14.266,7.779 14.287,8.249 14.524 C 8.605 14.704,8.916 15.041,9.435 15.810 C 9.684 16.178,9.899 16.480,9.914 16.479 C 9.928 16.479,10.460 15.448,11.096 14.189 C 12.352 11.699,12.499 11.428,12.711 11.193 C 13.070 10.796,13.643 10.675,14.086 10.903 " fill="#1C274C" stroke="none" fill-rule="evenodd"></path></svg>