<svg width="24" height="24" viewBox="0 0 24 24" fill="none" xmlns="http://www.w3.org/2000/svg"><path d="M8.419 2.043 C 7.007 2.095,5.908 2.239,5.193 2.465 C 3.824 2.897,2.947 3.750,2.504 5.080 C 2.099 6.299,2.001 7.581,2.000 11.687 L 2.000 14.233 3.990 14.251 C 6.148 14.270,6.214 14.276,6.659 14.501 C 6.950 14.648,7.170 14.851,8.180 15.904 C 8.642 16.386,9.038 16.784,9.060 16.788 C 9.082 16.793,10.018 15.527,11.140 13.974 C 12.262 12.421,13.264 11.065,13.368 10.960 C 13.649 10.674,13.871 10.580,14.260 10.581 C 14.629 10.582,14.808 10.656,15.111 10.933 C 15.211 11.025,15.855 11.739,16.541 12.520 C 17.895 14.061,17.965 14.134,18.133 14.197 C 18.206 14.225,18.895 14.240,20.127 14.240 L 22.009 14.240 21.989 11.130 C 21.969 8.085,21.948 7.513,21.817 6.520 C 21.589 4.783,20.996 3.673,19.928 2.982 C 18.978 2.368,17.845 2.132,15.417 2.041 C 14.194 1.995,9.686 1.997,8.419 2.043 M12.357 14.850 C 11.318 16.285,10.352 17.609,10.210 17.792 C 9.694 18.457,9.169 18.629,8.561 18.332 C 8.394 18.251,8.193 18.070,7.702 17.563 C 6.304 16.116,5.987 15.813,5.845 15.786 C 5.771 15.772,4.883 15.760,3.873 15.760 L 2.037 15.760 2.060 16.070 C 2.165 17.459,2.257 18.096,2.441 18.717 C 2.876 20.181,3.783 21.103,5.221 21.541 C 6.387 21.897,7.900 21.999,12.000 21.999 C 16.100 21.999,17.613 21.897,18.779 21.541 C 20.237 21.097,21.148 20.155,21.580 18.645 C 21.751 18.047,21.836 17.442,21.940 16.073 L 21.963 15.765 19.991 15.750 C 17.840 15.734,17.790 15.729,17.344 15.489 C 17.029 15.319,16.690 14.973,15.452 13.557 C 14.819 12.832,14.289 12.240,14.274 12.240 C 14.258 12.240,13.396 13.415,12.357 14.850 " fill="#1C274C" stroke="none" fill-rule="evenodd"></path></svg>