<svg width="24" height="24" viewBox="0 0 24 24" fill="none" xmlns="http://www.w3.org/2000/svg"><path d="M5.480 2.040 C 4.314 2.130,3.739 2.356,3.085 2.978 C 2.627 3.414,2.322 3.923,2.187 4.480 C 2.042 5.076,2.020 5.430,2.022 7.220 C 2.023 8.709,2.033 9.028,2.090 9.291 C 2.215 9.873,2.501 10.356,2.928 10.707 C 3.201 10.930,3.440 11.056,3.800 11.165 C 4.092 11.253,4.155 11.256,6.240 11.271 C 8.960 11.291,9.335 11.257,10.000 10.933 C 10.401 10.737,10.737 10.401,10.933 10.000 C 11.257 9.335,11.291 8.960,11.271 6.240 C 11.256 4.155,11.253 4.092,11.165 3.800 C 10.958 3.115,10.535 2.612,9.900 2.298 C 9.416 2.058,9.207 2.034,7.460 2.020 C 6.602 2.013,5.711 2.022,5.480 2.040 M15.072 2.042 C 14.283 2.112,13.673 2.426,13.251 2.980 C 12.734 3.658,12.657 4.218,12.693 7.000 C 12.719 9.041,12.763 9.392,13.074 10.040 C 13.213 10.329,13.671 10.787,13.960 10.926 C 14.610 11.238,14.957 11.281,17.020 11.308 C 19.755 11.343,20.358 11.262,20.993 10.773 C 21.448 10.422,21.729 9.996,21.886 9.420 C 21.966 9.124,21.974 8.983,21.990 7.561 C 22.009 5.900,21.970 5.113,21.839 4.567 C 21.690 3.944,21.403 3.445,20.935 2.998 C 20.256 2.349,19.691 2.129,18.480 2.042 C 17.824 1.995,15.599 1.995,15.072 2.042 M7.476 5.580 C 7.761 5.748,7.779 5.804,7.793 6.601 C 7.807 7.403,7.779 7.524,7.545 7.691 C 7.426 7.776,7.382 7.780,6.653 7.780 C 5.936 7.780,5.879 7.775,5.773 7.696 C 5.526 7.512,5.500 7.410,5.500 6.640 C 5.500 5.989,5.506 5.930,5.588 5.800 C 5.763 5.521,5.907 5.482,6.720 5.492 C 7.259 5.499,7.358 5.510,7.476 5.580 M17.939 5.520 C 18.424 5.599,18.551 5.898,18.509 6.869 C 18.487 7.402,18.441 7.536,18.227 7.696 C 18.124 7.773,18.052 7.781,17.419 7.793 C 16.800 7.804,16.704 7.797,16.547 7.727 C 16.412 7.668,16.352 7.609,16.286 7.472 C 16.209 7.313,16.200 7.228,16.200 6.637 C 16.200 6.091,16.212 5.957,16.270 5.843 C 16.362 5.663,16.518 5.552,16.729 5.518 C 16.992 5.475,17.673 5.476,17.939 5.520 M4.173 12.760 C 3.426 12.869,2.832 13.243,2.435 13.854 C 2.056 14.437,2.020 14.696,2.020 16.820 C 2.021 18.564,2.044 18.932,2.187 19.520 C 2.402 20.404,3.119 21.255,3.973 21.639 C 4.617 21.929,5.109 21.980,7.220 21.978 C 8.720 21.977,9.027 21.967,9.297 21.909 C 10.221 21.711,10.894 21.095,11.165 20.200 C 11.253 19.908,11.256 19.845,11.271 17.760 C 11.291 15.040,11.257 14.665,10.933 14.000 C 10.580 13.277,9.916 12.880,8.860 12.761 C 8.448 12.715,4.490 12.714,4.173 12.760 M14.900 12.764 C 14.142 12.874,13.547 13.229,13.165 13.802 C 12.828 14.306,12.721 14.821,12.720 15.930 L 12.720 16.640 13.394 16.640 L 14.067 16.640 14.093 15.890 C 14.129 14.842,14.211 14.568,14.565 14.316 C 14.824 14.132,15.029 14.112,16.830 14.091 L 18.520 14.072 18.520 13.396 L 18.520 12.720 16.830 12.725 C 15.900 12.728,15.032 12.745,14.900 12.764 M20.959 12.804 C 20.881 12.849,20.773 12.950,20.719 13.030 L 20.620 13.174 20.608 14.907 L 20.597 16.640 21.298 16.640 L 22.000 16.640 22.000 14.946 L 22.000 13.253 21.907 13.076 C 21.732 12.744,21.283 12.615,20.959 12.804 M16.740 16.044 C 16.532 16.095,16.312 16.249,16.185 16.433 C 16.031 16.655,15.990 16.931,16.006 17.635 C 16.019 18.214,16.028 18.277,16.122 18.461 C 16.256 18.720,16.496 18.901,16.785 18.961 C 16.924 18.990,17.254 19.002,17.636 18.994 C 18.192 18.981,18.281 18.969,18.451 18.885 C 18.704 18.762,18.902 18.500,18.962 18.211 C 19.029 17.888,18.995 16.784,18.912 16.596 C 18.831 16.411,18.589 16.169,18.404 16.087 C 18.232 16.011,17.002 15.979,16.740 16.044 M7.465 16.265 C 7.540 16.301,7.642 16.386,7.691 16.455 C 7.776 16.574,7.780 16.618,7.780 17.347 C 7.780 18.064,7.775 18.121,7.696 18.227 C 7.512 18.474,7.410 18.500,6.640 18.500 C 6.011 18.500,5.927 18.492,5.807 18.420 C 5.558 18.270,5.504 18.125,5.486 17.552 C 5.460 16.694,5.534 16.424,5.841 16.270 C 6.039 16.171,7.258 16.167,7.465 16.265 M12.720 20.002 C 12.720 21.396,12.725 21.492,12.799 21.638 C 12.992 22.016,13.505 22.111,13.827 21.829 C 14.079 21.607,14.080 21.598,14.080 19.981 L 14.080 18.520 13.400 18.520 L 12.720 18.520 12.720 20.002 M20.594 19.150 C 20.579 19.759,20.575 19.787,20.461 19.993 C 20.333 20.226,20.198 20.356,19.945 20.492 C 19.785 20.577,19.732 20.581,18.220 20.600 L 16.660 20.620 16.649 21.314 L 16.638 22.008 18.249 21.990 C 20.007 21.971,20.087 21.961,20.580 21.721 C 21.247 21.396,21.776 20.718,21.923 20.001 C 21.943 19.901,21.972 19.527,21.986 19.170 L 22.012 18.520 21.310 18.520 L 20.608 18.520 20.594 19.150 " fill="#1C274C" stroke="none" fill-rule="evenodd"></path></svg>