<svg width="24" height="24" viewBox="0 0 24 24" fill="none" xmlns="http://www.w3.org/2000/svg"><path d="M11.120 2.039 C 9.316 2.220,7.707 2.807,6.280 3.806 C 2.738 6.286,1.178 10.759,2.422 14.865 C 2.918 16.499,3.728 17.850,4.939 19.061 C 5.928 20.050,7.038 20.788,8.272 21.278 C 11.634 22.610,15.313 22.080,18.200 19.845 C 18.637 19.507,19.507 18.637,19.845 18.200 C 21.255 16.379,22.000 14.234,22.000 12.000 C 22.000 7.432,18.842 3.387,14.430 2.303 C 13.446 2.062,12.028 1.948,11.120 2.039 M12.660 6.343 C 13.098 6.447,13.466 6.664,13.841 7.039 C 14.378 7.575,14.601 8.111,14.599 8.866 C 14.598 9.690,14.382 10.168,13.680 10.899 C 12.791 11.825,12.774 11.856,12.754 12.647 C 12.739 13.224,12.737 13.237,12.619 13.405 C 12.453 13.642,12.273 13.739,12.000 13.739 C 11.727 13.739,11.547 13.641,11.381 13.404 L 11.260 13.233 11.262 12.566 C 11.264 11.815,11.308 11.600,11.546 11.163 C 11.740 10.807,11.952 10.541,12.511 9.953 C 13.064 9.370,13.145 9.213,13.110 8.783 C 13.087 8.496,13.008 8.320,12.806 8.107 C 12.562 7.850,12.391 7.781,12.000 7.781 C 11.617 7.781,11.482 7.832,11.227 8.074 C 11.015 8.276,10.924 8.470,10.880 8.821 C 10.821 9.285,10.679 9.483,10.335 9.583 C 9.999 9.681,9.670 9.554,9.498 9.260 C 9.408 9.107,9.393 9.036,9.396 8.778 C 9.402 8.123,9.650 7.550,10.139 7.056 C 10.833 6.355,11.691 6.113,12.660 6.343 M12.340 15.066 C 12.709 15.192,13.000 15.604,13.000 16.000 C 13.000 16.527,12.527 17.000,12.000 17.000 C 11.758 17.000,11.479 16.881,11.299 16.701 C 10.907 16.309,10.908 15.690,11.300 15.298 C 11.577 15.020,11.957 14.936,12.340 15.066 " fill="#1C274C" stroke="none" fill-rule="evenodd"></path></svg>