<svg width="24" height="24" viewBox="0 0 24 24" fill="none" xmlns="http://www.w3.org/2000/svg"><path d="M7.300 3.026 C 6.601 3.050,5.735 3.126,5.300 3.200 C 3.429 3.521,2.501 4.463,2.186 6.360 C 2.031 7.294,2.020 7.661,2.020 12.060 C 2.020 15.905,2.028 16.403,2.092 16.957 C 2.262 18.432,2.551 19.195,3.178 19.822 C 4.123 20.767,5.470 21.026,9.280 20.993 C 10.729 20.980,10.785 20.977,10.940 20.894 C 11.148 20.781,11.338 20.580,11.427 20.380 C 11.491 20.234,11.500 19.977,11.524 17.400 C 11.551 14.463,11.563 14.250,11.742 13.549 C 11.977 12.631,12.631 11.977,13.549 11.742 C 14.264 11.559,14.432 11.550,17.820 11.520 C 21.517 11.486,21.445 11.493,21.752 11.143 C 21.966 10.899,21.980 10.786,21.976 9.400 C 21.965 6.164,21.594 4.735,20.554 3.935 C 19.920 3.448,19.138 3.210,17.720 3.074 C 17.298 3.034,8.271 2.992,7.300 3.026 M10.820 6.835 C 11.010 6.923,11.096 7.012,11.178 7.210 C 11.257 7.398,11.257 7.602,11.178 7.790 C 11.017 8.175,10.850 8.238,9.980 8.239 L 9.300 8.240 10.709 9.650 C 12.155 11.097,12.240 11.201,12.240 11.500 C 12.240 11.660,12.151 11.898,12.048 12.014 C 11.948 12.127,11.682 12.238,11.509 12.239 C 11.201 12.241,11.106 12.163,9.650 10.709 L 8.240 9.300 8.239 9.980 C 8.238 10.850,8.175 11.017,7.790 11.178 C 7.602 11.257,7.398 11.257,7.210 11.178 C 7.012 11.096,6.923 11.010,6.835 10.820 C 6.768 10.673,6.762 10.525,6.761 9.009 C 6.760 7.612,6.769 7.335,6.822 7.210 C 6.904 7.012,6.990 6.923,7.180 6.835 C 7.327 6.768,7.474 6.762,9.000 6.762 C 10.526 6.762,10.673 6.768,10.820 6.835 M15.200 13.039 C 13.801 13.156,13.300 13.559,13.087 14.740 C 13.033 15.039,13.022 15.423,13.022 17.000 C 13.022 18.577,13.033 18.961,13.087 19.260 C 13.276 20.311,13.688 20.722,14.740 20.913 C 15.047 20.969,15.453 20.979,17.500 20.979 C 19.547 20.979,19.953 20.969,20.260 20.913 C 21.313 20.722,21.711 20.324,21.910 19.267 C 22.012 18.721,22.012 15.279,21.910 14.733 C 21.714 13.690,21.313 13.281,20.300 13.092 C 20.048 13.046,19.513 13.030,17.780 13.020 C 16.570 13.013,15.409 13.022,15.200 13.039 " fill="#1C274C" stroke="none" fill-rule="evenodd"></path></svg>