<svg width="24" height="24" viewBox="0 0 24 24" fill="none" xmlns="http://www.w3.org/2000/svg"><path d="M11.120 2.039 C 9.316 2.220,7.707 2.807,6.280 3.806 C 2.738 6.286,1.178 10.759,2.422 14.865 C 2.918 16.499,3.728 17.850,4.939 19.061 C 5.928 20.050,7.038 20.788,8.272 21.278 C 11.634 22.610,15.313 22.080,18.200 19.845 C 18.637 19.507,19.507 18.637,19.845 18.200 C 21.255 16.379,22.000 14.234,22.000 12.000 C 22.000 7.432,18.842 3.387,14.430 2.303 C 13.446 2.062,12.028 1.948,11.120 2.039 M10.218 5.299 C 10.466 5.355,10.653 5.565,10.721 5.866 C 10.764 6.056,10.692 7.610,10.621 8.020 C 10.480 8.830,10.252 9.311,9.782 9.785 C 9.109 10.463,8.263 10.710,6.540 10.731 C 5.708 10.741,5.591 10.709,5.384 10.411 C 5.287 10.272,5.267 10.202,5.267 10.011 C 5.267 9.770,5.312 9.644,5.455 9.486 C 5.633 9.289,5.731 9.268,6.600 9.236 C 7.868 9.190,8.329 9.088,8.672 8.780 C 9.056 8.434,9.185 7.941,9.235 6.627 C 9.270 5.702,9.289 5.620,9.522 5.425 C 9.590 5.367,9.685 5.312,9.733 5.302 C 10.004 5.244,9.974 5.244,10.218 5.299 M14.352 5.351 C 14.526 5.430,14.664 5.617,14.715 5.840 C 14.737 5.939,14.765 6.344,14.776 6.740 C 14.810 7.942,14.917 8.363,15.280 8.726 C 15.642 9.088,16.057 9.187,17.411 9.236 L 18.241 9.266 18.407 9.383 C 18.498 9.447,18.608 9.568,18.651 9.651 C 18.807 9.953,18.710 10.409,18.451 10.591 C 18.224 10.750,18.069 10.771,17.345 10.742 C 15.607 10.671,14.899 10.457,14.237 9.800 C 13.737 9.304,13.514 8.840,13.378 8.020 C 13.308 7.596,13.228 6.088,13.264 5.883 C 13.354 5.378,13.865 5.128,14.352 5.351 M7.560 13.324 C 8.220 13.388,8.655 13.497,9.080 13.705 C 9.392 13.858,9.518 13.950,9.782 14.216 C 10.252 14.689,10.480 15.170,10.621 15.980 C 10.692 16.390,10.764 17.944,10.721 18.134 C 10.650 18.449,10.482 18.628,10.172 18.721 C 9.868 18.812,9.486 18.642,9.332 18.345 C 9.281 18.248,9.260 18.034,9.236 17.393 C 9.189 16.143,9.084 15.666,8.782 15.331 C 8.436 14.946,7.940 14.818,6.594 14.767 C 5.667 14.732,5.596 14.711,5.384 14.409 C 5.098 14.003,5.329 13.396,5.815 13.277 C 5.964 13.241,6.971 13.268,7.560 13.324 M18.180 13.285 C 18.404 13.347,18.548 13.460,18.646 13.651 C 18.860 14.071,18.638 14.608,18.205 14.716 C 18.125 14.736,17.718 14.763,17.300 14.777 C 16.064 14.817,15.629 14.925,15.277 15.277 C 14.912 15.641,14.811 16.059,14.764 17.380 C 14.741 18.035,14.723 18.208,14.662 18.332 C 14.570 18.523,14.392 18.661,14.155 18.725 C 13.766 18.829,13.325 18.526,13.265 18.114 C 13.229 17.870,13.307 16.413,13.378 15.980 C 13.511 15.174,13.739 14.697,14.218 14.218 C 14.852 13.584,15.546 13.352,17.020 13.281 C 17.944 13.237,18.009 13.237,18.180 13.285 " fill="#1C274C" stroke="none" fill-rule="evenodd"></path></svg>