<svg width="24" height="24" viewBox="0 0 24 24" fill="none" xmlns="http://www.w3.org/2000/svg"><path d="M9.811 1.278 C 9.639 1.320,9.417 1.493,9.331 1.652 C 9.269 1.766,9.258 1.977,9.235 3.540 C 9.202 5.748,9.128 6.555,8.894 7.278 C 8.614 8.139,8.000 8.708,7.080 8.956 C 6.346 9.154,5.711 9.205,3.617 9.234 L 1.774 9.260 1.605 9.372 C 1.311 9.566,1.192 9.873,1.281 10.204 C 1.340 10.422,1.569 10.657,1.781 10.715 C 2.130 10.812,5.201 10.746,6.314 10.617 C 7.717 10.455,8.691 10.037,9.404 9.292 C 10.090 8.574,10.461 7.661,10.619 6.300 C 10.704 5.577,10.769 3.841,10.753 2.720 C 10.741 1.858,10.733 1.768,10.658 1.641 C 10.494 1.361,10.122 1.202,9.811 1.278 M13.811 1.278 C 13.639 1.320,13.417 1.493,13.330 1.652 C 13.270 1.762,13.258 1.918,13.247 2.740 C 13.231 3.903,13.297 5.631,13.384 6.340 C 13.550 7.695,13.924 8.599,14.616 9.314 C 15.317 10.040,16.300 10.457,17.686 10.617 C 18.799 10.746,21.870 10.812,22.219 10.715 C 22.431 10.657,22.660 10.422,22.719 10.204 C 22.808 9.873,22.689 9.566,22.395 9.372 L 22.226 9.260 20.383 9.234 C 18.289 9.205,17.654 9.154,16.920 8.956 C 16.023 8.714,15.393 8.144,15.122 7.329 C 14.873 6.580,14.799 5.804,14.767 3.580 C 14.741 1.864,14.736 1.774,14.658 1.641 C 14.494 1.361,14.122 1.202,13.811 1.278 M1.811 13.279 C 1.536 13.344,1.316 13.587,1.260 13.885 C 1.197 14.222,1.453 14.629,1.781 14.713 C 1.869 14.735,2.721 14.762,3.680 14.774 C 6.745 14.811,7.623 14.998,8.345 15.770 C 9.034 16.507,9.237 17.646,9.239 20.800 C 9.240 21.541,9.257 22.121,9.282 22.209 C 9.390 22.599,9.802 22.827,10.202 22.719 C 10.422 22.660,10.656 22.432,10.715 22.219 C 10.771 22.018,10.773 20.338,10.719 19.120 C 10.613 16.729,10.282 15.618,9.407 14.708 C 8.660 13.932,7.737 13.549,6.207 13.377 C 5.285 13.274,2.129 13.203,1.811 13.279 M19.340 13.282 C 17.545 13.339,16.525 13.511,15.715 13.894 C 15.021 14.223,14.380 14.819,14.005 15.485 C 13.724 15.983,13.486 16.823,13.381 17.680 C 13.256 18.712,13.188 21.872,13.285 22.219 C 13.344 22.432,13.578 22.660,13.798 22.719 C 14.199 22.828,14.618 22.594,14.715 22.208 C 14.736 22.127,14.762 21.277,14.774 20.320 C 14.800 18.180,14.872 17.423,15.122 16.671 C 15.367 15.935,15.932 15.370,16.671 15.123 C 17.418 14.872,18.178 14.800,20.320 14.774 C 21.279 14.762,22.131 14.735,22.219 14.713 C 22.429 14.659,22.659 14.425,22.719 14.204 C 22.808 13.873,22.689 13.566,22.395 13.372 L 22.226 13.260 21.283 13.255 C 20.764 13.252,19.890 13.264,19.340 13.282 " fill="#1C274C" stroke="none" fill-rule="evenodd"></path></svg>