<svg width="24" height="24" viewBox="0 0 24 24" fill="none" xmlns="http://www.w3.org/2000/svg"><path d="M11.120 2.039 C 9.316 2.220,7.707 2.807,6.280 3.806 C 2.738 6.286,1.178 10.759,2.422 14.865 C 2.918 16.499,3.727 17.848,4.939 19.062 C 5.925 20.049,7.036 20.787,8.272 21.278 C 11.634 22.610,15.313 22.080,18.200 19.845 C 18.637 19.507,19.507 18.637,19.845 18.200 C 22.091 15.298,22.618 11.564,21.254 8.220 C 20.058 5.287,17.480 3.053,14.430 2.303 C 13.446 2.062,12.028 1.948,11.120 2.039 M13.040 5.345 C 14.096 5.507,15.022 5.883,15.930 6.519 C 16.400 6.847,17.144 7.592,17.480 8.070 C 18.607 9.673,18.997 11.592,18.577 13.471 C 17.780 17.043,14.264 19.336,10.684 18.617 C 8.446 18.168,6.559 16.587,5.723 14.460 C 5.127 12.944,5.107 11.197,5.668 9.680 C 5.839 9.216,6.191 8.527,6.393 8.258 C 6.793 7.727,7.442 7.581,8.031 7.889 C 8.298 8.029,12.510 11.417,12.614 11.576 C 12.970 12.119,12.507 12.846,11.875 12.739 C 11.689 12.708,11.549 12.606,10.341 11.626 C 9.836 11.216,9.411 10.880,9.397 10.880 C 9.383 10.880,9.328 11.011,9.276 11.170 C 9.194 11.418,9.180 11.539,9.180 12.000 C 9.180 12.607,9.240 12.855,9.512 13.380 C 9.711 13.762,10.238 14.289,10.620 14.488 C 11.145 14.760,11.393 14.820,12.000 14.820 C 12.607 14.820,12.855 14.760,13.380 14.488 C 13.762 14.289,14.289 13.762,14.488 13.380 C 14.760 12.855,14.820 12.607,14.820 12.000 C 14.820 11.541,14.806 11.418,14.727 11.180 C 14.558 10.675,14.369 10.366,14.001 9.998 C 13.715 9.711,13.599 9.626,13.280 9.472 C 12.844 9.261,12.662 9.211,12.136 9.162 C 11.698 9.120,11.555 9.053,11.384 8.809 C 11.164 8.497,11.246 8.024,11.557 7.802 C 11.739 7.673,11.977 7.640,12.428 7.683 C 14.482 7.877,16.123 9.522,16.318 11.582 C 16.511 13.615,15.271 15.510,13.340 16.132 C 12.825 16.298,12.573 16.336,12.000 16.336 C 11.427 16.336,11.175 16.298,10.660 16.132 C 9.030 15.607,7.858 14.152,7.681 12.435 C 7.604 11.682,7.741 10.862,8.059 10.175 L 8.194 9.881 7.853 9.611 C 7.665 9.462,7.502 9.340,7.490 9.340 C 7.440 9.340,7.150 9.976,7.021 10.368 C 6.808 11.018,6.748 11.463,6.774 12.200 C 6.786 12.551,6.823 12.933,6.859 13.080 C 7.326 15.002,8.616 16.424,10.410 16.995 C 13.164 17.873,16.119 16.345,16.996 13.590 C 17.417 12.266,17.297 10.852,16.657 9.600 C 15.646 7.623,13.530 6.527,11.261 6.806 C 10.900 6.850,10.881 6.849,10.694 6.756 C 10.422 6.621,10.270 6.392,10.266 6.112 C 10.260 5.735,10.474 5.459,10.849 5.358 C 11.289 5.239,12.314 5.233,13.040 5.345 " fill="#1C274C" stroke="none" fill-rule="evenodd"></path></svg>