<svg width="24" height="24" viewBox="0 0 24 24" fill="none" xmlns="http://www.w3.org/2000/svg"><path d="M14.780 2.296 C 14.692 2.325,12.857 3.180,10.701 4.195 L 6.783 6.041 6.321 6.081 C 4.999 6.194,4.293 6.381,3.671 6.783 C 3.285 7.033,3.067 7.247,2.822 7.617 C 2.380 8.284,2.199 8.945,2.072 10.360 C 1.999 11.176,1.999 16.824,2.072 17.640 C 2.163 18.654,2.293 19.306,2.504 19.811 C 2.644 20.146,2.994 20.668,3.218 20.874 C 3.904 21.506,4.721 21.780,6.360 21.928 C 7.203 22.004,16.756 22.003,17.640 21.927 C 19.023 21.808,19.720 21.618,20.383 21.178 C 20.753 20.933,20.968 20.714,21.216 20.330 C 21.888 19.290,22.030 17.987,21.987 13.220 C 21.965 10.759,21.939 10.185,21.817 9.425 C 21.684 8.598,21.519 8.132,21.178 7.617 C 20.735 6.947,20.104 6.534,19.171 6.302 C 18.210 6.064,17.635 6.032,13.801 6.004 L 10.423 5.980 12.841 4.844 C 14.172 4.219,15.318 3.674,15.389 3.631 C 15.758 3.412,15.848 2.892,15.579 2.536 C 15.407 2.309,15.057 2.204,14.780 2.296 M17.820 8.369 C 18.265 8.520,18.603 8.731,18.936 9.064 C 19.271 9.399,19.482 9.740,19.628 10.180 C 19.719 10.457,19.733 10.567,19.733 11.000 C 19.733 11.430,19.719 11.544,19.631 11.811 C 19.346 12.671,18.682 13.337,17.811 13.634 L 17.500 13.740 12.000 13.740 L 6.500 13.740 6.180 13.631 C 5.735 13.480,5.397 13.269,5.064 12.936 C 4.729 12.601,4.518 12.260,4.372 11.820 C 4.281 11.543,4.267 11.433,4.267 11.000 C 4.267 10.567,4.281 10.457,4.372 10.180 C 4.518 9.739,4.729 9.399,5.065 9.064 C 5.488 8.642,5.989 8.376,6.535 8.283 C 6.648 8.264,9.161 8.251,12.120 8.254 L 17.500 8.260 17.820 8.369 M6.591 9.820 C 5.920 10.068,5.592 10.788,5.843 11.460 C 5.955 11.758,6.242 12.045,6.540 12.157 C 6.760 12.239,6.809 12.240,10.497 12.240 L 14.230 12.240 14.248 11.770 C 14.267 11.263,14.305 11.143,14.506 10.953 C 14.647 10.819,14.799 10.760,15.000 10.760 C 15.201 10.760,15.353 10.819,15.494 10.953 C 15.695 11.143,15.733 11.263,15.752 11.770 L 15.770 12.240 16.503 12.240 C 17.386 12.240,17.563 12.193,17.878 11.878 C 18.481 11.275,18.309 10.257,17.539 9.878 L 17.340 9.780 12.040 9.773 C 7.622 9.766,6.715 9.774,6.591 9.820 M8.058 14.821 C 8.594 14.961,9.090 15.327,9.408 15.818 C 9.856 16.509,9.856 17.491,9.408 18.182 C 8.970 18.859,8.282 19.240,7.500 19.240 C 6.718 19.240,6.030 18.859,5.592 18.182 C 5.144 17.491,5.144 16.509,5.592 15.818 C 5.904 15.335,6.402 14.964,6.925 14.823 C 7.211 14.746,7.767 14.745,8.058 14.821 M7.420 16.260 C 7.398 16.267,7.331 16.284,7.271 16.297 C 7.211 16.310,7.095 16.379,7.015 16.450 C 6.495 16.906,6.811 17.731,7.506 17.731 C 7.752 17.731,7.919 17.645,8.096 17.426 C 8.208 17.288,8.220 17.245,8.220 17.000 C 8.220 16.755,8.208 16.712,8.096 16.574 C 8.027 16.489,7.919 16.391,7.856 16.355 C 7.739 16.288,7.494 16.235,7.420 16.260 M18.300 16.316 C 18.494 16.405,18.616 16.532,18.698 16.729 C 18.852 17.097,18.680 17.509,18.300 17.684 C 18.150 17.754,17.981 17.758,15.509 17.759 C 13.223 17.760,12.858 17.752,12.729 17.698 C 12.101 17.436,12.084 16.600,12.700 16.316 C 12.850 16.246,13.018 16.242,15.500 16.242 C 17.982 16.242,18.150 16.246,18.300 16.316 " fill="#1C274C" stroke="none" fill-rule="evenodd"></path></svg>