<svg width="24" height="24" viewBox="0 0 24 24" fill="none" xmlns="http://www.w3.org/2000/svg"><path d="M11.280 2.023 C 11.203 2.032,10.969 2.059,10.760 2.083 C 7.595 2.444,4.656 4.474,3.159 7.333 C 2.424 8.737,2.060 10.138,2.013 11.740 C 1.932 14.501,2.967 17.091,4.938 19.062 C 6.148 20.272,7.499 21.082,9.135 21.578 C 12.707 22.660,16.638 21.618,19.233 18.900 C 20.701 17.362,21.587 15.506,21.926 13.260 C 21.996 12.796,21.996 11.179,21.927 10.740 C 21.653 9.008,21.177 7.752,20.299 6.440 C 19.311 4.963,18.010 3.823,16.420 3.042 C 15.040 2.364,13.746 2.051,12.200 2.022 C 11.771 2.014,11.357 2.014,11.280 2.023 M10.030 5.062 C 10.220 5.141,10.311 5.225,10.404 5.408 C 10.627 5.844,10.374 6.373,9.891 6.482 C 9.585 6.551,9.210 6.359,9.077 6.065 C 8.902 5.681,9.066 5.257,9.460 5.076 C 9.656 4.985,9.836 4.981,10.030 5.062 M14.511 5.062 C 14.708 5.144,14.835 5.266,14.924 5.460 C 15.121 5.886,14.873 6.369,14.404 6.475 C 14.309 6.496,14.210 6.508,14.185 6.500 C 14.160 6.493,14.091 6.476,14.031 6.463 C 13.897 6.434,13.657 6.228,13.578 6.076 C 13.546 6.014,13.520 5.872,13.520 5.760 C 13.520 5.214,14.024 4.858,14.511 5.062 M10.280 8.618 C 10.541 8.754,10.707 8.916,10.842 9.168 C 10.963 9.393,10.978 9.454,10.979 9.740 C 10.980 10.011,10.963 10.095,10.868 10.289 C 10.490 11.057,9.474 11.234,8.875 10.635 C 8.637 10.397,8.549 10.189,8.528 9.814 C 8.512 9.524,8.522 9.462,8.617 9.254 C 8.756 8.950,8.923 8.778,9.220 8.633 C 9.440 8.525,9.489 8.516,9.800 8.530 C 10.026 8.540,10.187 8.570,10.280 8.618 M14.780 8.635 C 15.076 8.777,15.243 8.949,15.383 9.254 C 15.478 9.462,15.488 9.524,15.472 9.814 C 15.451 10.189,15.363 10.397,15.125 10.635 C 14.526 11.234,13.510 11.057,13.132 10.289 C 12.981 9.981,12.974 9.516,13.117 9.240 C 13.259 8.966,13.341 8.864,13.516 8.743 C 13.748 8.582,13.944 8.524,14.260 8.522 C 14.488 8.520,14.584 8.541,14.780 8.635 M6.030 9.062 C 6.220 9.141,6.311 9.225,6.404 9.408 C 6.627 9.844,6.374 10.373,5.891 10.482 C 5.585 10.551,5.210 10.359,5.077 10.065 C 4.902 9.681,5.066 9.257,5.460 9.076 C 5.656 8.985,5.836 8.981,6.030 9.062 M18.511 9.062 C 18.708 9.144,18.835 9.266,18.924 9.460 C 19.121 9.886,18.873 10.369,18.404 10.475 C 18.309 10.496,18.210 10.508,18.185 10.500 C 18.160 10.493,18.091 10.476,18.031 10.463 C 17.897 10.434,17.657 10.228,17.578 10.076 C 17.546 10.014,17.520 9.872,17.520 9.760 C 17.520 9.214,18.024 8.858,18.511 9.062 M10.297 13.137 C 10.548 13.260,10.773 13.493,10.894 13.755 C 10.959 13.896,10.979 14.017,10.978 14.260 C 10.978 14.546,10.963 14.607,10.842 14.832 C 10.349 15.749,9.047 15.705,8.622 14.756 C 8.522 14.535,8.512 14.475,8.528 14.184 C 8.547 13.843,8.602 13.693,8.803 13.438 C 8.918 13.291,9.244 13.090,9.458 13.035 C 9.682 12.977,10.065 13.024,10.297 13.137 M14.842 13.164 C 15.252 13.383,15.445 13.695,15.472 14.184 C 15.488 14.475,15.478 14.535,15.378 14.756 C 14.956 15.697,13.648 15.749,13.166 14.846 C 12.580 13.746,13.743 12.579,14.842 13.164 M6.051 13.575 C 6.320 13.690,6.480 13.947,6.480 14.264 C 6.480 15.060,5.407 15.271,5.075 14.540 C 4.854 14.054,5.194 13.526,5.731 13.522 C 5.836 13.521,5.980 13.545,6.051 13.575 M18.592 13.596 C 18.775 13.689,18.859 13.780,18.938 13.970 C 19.019 14.163,19.015 14.343,18.925 14.540 C 18.663 15.117,17.881 15.151,17.599 14.598 C 17.505 14.415,17.494 14.085,17.576 13.928 C 17.638 13.811,17.813 13.637,17.940 13.567 C 18.069 13.495,18.426 13.511,18.592 13.596 M10.051 17.575 C 10.320 17.690,10.480 17.947,10.480 18.264 C 10.480 19.060,9.407 19.271,9.075 18.540 C 8.854 18.054,9.194 17.526,9.731 17.522 C 9.836 17.521,9.980 17.545,10.051 17.575 M14.592 17.596 C 14.775 17.689,14.859 17.780,14.938 17.970 C 15.019 18.163,15.015 18.343,14.925 18.540 C 14.663 19.117,13.881 19.151,13.599 18.598 C 13.505 18.415,13.494 18.085,13.576 17.928 C 13.638 17.811,13.813 17.637,13.940 17.567 C 14.069 17.495,14.426 17.511,14.592 17.596 " fill="#1C274C" stroke="none" fill-rule="evenodd"></path></svg>