<svg width="24" height="24" viewBox="0 0 24 24" fill="none" xmlns="http://www.w3.org/2000/svg"><path d="M14.780 2.296 C 14.692 2.325,12.857 3.180,10.701 4.195 L 6.783 6.041 6.321 6.081 C 4.999 6.194,4.293 6.381,3.671 6.783 C 3.285 7.033,3.067 7.247,2.822 7.617 C 2.380 8.284,2.199 8.945,2.072 10.360 C 1.999 11.176,1.999 16.824,2.072 17.640 C 2.163 18.654,2.293 19.306,2.504 19.811 C 2.644 20.146,2.994 20.668,3.218 20.874 C 3.904 21.506,4.721 21.780,6.360 21.928 C 7.203 22.004,16.756 22.003,17.640 21.927 C 19.023 21.808,19.720 21.618,20.383 21.178 C 20.753 20.933,20.968 20.714,21.216 20.330 C 21.888 19.290,22.030 17.987,21.987 13.220 C 21.965 10.759,21.939 10.185,21.817 9.425 C 21.684 8.598,21.519 8.132,21.178 7.617 C 20.735 6.947,20.104 6.534,19.171 6.302 C 18.210 6.064,17.635 6.032,13.801 6.004 L 10.423 5.980 12.841 4.844 C 14.172 4.219,15.318 3.674,15.389 3.631 C 15.758 3.412,15.848 2.892,15.579 2.536 C 15.407 2.309,15.057 2.204,14.780 2.296 M8.507 10.282 C 8.939 10.341,9.538 10.552,9.930 10.785 C 10.374 11.047,10.953 11.626,11.215 12.070 C 11.782 13.027,11.902 14.166,11.545 15.209 C 11.349 15.780,11.090 16.190,10.640 16.640 C 10.190 17.090,9.780 17.349,9.209 17.545 C 8.166 17.902,7.027 17.782,6.070 17.215 C 5.626 16.953,5.047 16.374,4.785 15.930 C 4.218 14.973,4.098 13.834,4.455 12.791 C 4.651 12.220,4.910 11.810,5.360 11.360 C 6.215 10.505,7.331 10.123,8.507 10.282 M19.300 10.316 C 19.494 10.405,19.616 10.532,19.698 10.729 C 19.852 11.097,19.680 11.509,19.300 11.684 C 19.149 11.754,18.976 11.758,16.260 11.758 C 13.560 11.758,13.370 11.754,13.220 11.685 C 13.013 11.591,12.811 11.360,12.777 11.178 C 12.708 10.812,12.857 10.500,13.178 10.339 L 13.376 10.240 16.258 10.241 C 18.974 10.242,19.149 10.246,19.300 10.316 M7.540 11.798 C 6.501 12.023,5.760 12.940,5.760 14.000 C 5.760 14.615,5.979 15.139,6.420 15.580 C 7.309 16.469,8.691 16.469,9.580 15.580 C 10.744 14.416,10.319 12.482,8.771 11.894 C 8.473 11.781,7.844 11.732,7.540 11.798 M19.300 13.316 C 19.494 13.405,19.616 13.532,19.698 13.729 C 19.852 14.097,19.680 14.509,19.300 14.684 C 19.149 14.754,18.976 14.758,16.260 14.758 C 13.560 14.758,13.370 14.754,13.220 14.685 C 13.013 14.591,12.811 14.360,12.777 14.178 C 12.708 13.812,12.857 13.500,13.178 13.339 L 13.376 13.240 16.258 13.241 C 18.974 13.242,19.149 13.246,19.300 13.316 M19.300 16.316 C 19.494 16.405,19.616 16.532,19.698 16.729 C 19.852 17.097,19.680 17.509,19.300 17.684 C 19.149 17.754,18.976 17.758,16.260 17.758 C 13.560 17.758,13.370 17.754,13.220 17.685 C 13.013 17.591,12.811 17.360,12.777 17.178 C 12.708 16.812,12.857 16.500,13.178 16.339 L 13.376 16.240 16.258 16.241 C 18.974 16.242,19.149 16.246,19.300 16.316 " fill="#1C274C" stroke="none" fill-rule="evenodd"></path></svg>