<svg width="24" height="24" viewBox="0 0 24 24" fill="none" xmlns="http://www.w3.org/2000/svg"><path d="M11.855 2.038 C 11.721 2.094,11.511 2.380,11.203 2.928 C 11.045 3.207,10.864 3.480,10.801 3.533 C 10.727 3.596,10.572 3.655,10.372 3.698 C 9.862 3.806,9.352 3.958,9.216 4.042 C 9.041 4.151,8.975 4.320,9.034 4.516 C 9.086 4.688,9.229 4.888,9.707 5.451 C 9.890 5.666,10.051 5.891,10.066 5.950 C 10.081 6.009,10.072 6.283,10.046 6.559 C 9.952 7.576,9.991 7.857,10.241 7.961 C 10.419 8.034,10.640 7.974,11.339 7.661 C 11.660 7.518,11.957 7.400,12.000 7.400 C 12.043 7.400,12.340 7.518,12.661 7.661 C 13.360 7.974,13.581 8.034,13.759 7.961 C 14.009 7.857,14.048 7.576,13.954 6.559 C 13.928 6.283,13.919 6.009,13.934 5.950 C 13.949 5.891,14.112 5.665,14.296 5.449 C 14.942 4.692,15.069 4.449,14.945 4.209 C 14.846 4.018,14.509 3.888,13.628 3.698 C 13.428 3.655,13.273 3.596,13.198 3.532 C 13.134 3.478,12.979 3.251,12.854 3.027 C 12.593 2.559,12.364 2.211,12.252 2.110 C 12.157 2.025,11.968 1.990,11.855 2.038 M9.536 10.041 C 8.941 10.101,8.673 10.209,8.414 10.490 C 8.210 10.710,8.101 10.997,8.044 11.460 C 8.015 11.700,7.998 13.299,7.995 16.260 C 7.991 19.175,7.977 20.599,7.953 20.406 C 7.878 19.810,7.611 19.381,7.207 19.207 C 6.830 19.045,6.537 19.020,5.000 19.020 C 3.105 19.020,2.804 19.073,2.427 19.476 C 2.111 19.815,2.000 20.314,2.000 21.410 L 2.000 22.000 12.000 22.000 L 22.000 22.000 22.000 19.910 C 22.000 17.194,21.962 16.893,21.573 16.476 C 21.196 16.073,20.895 16.020,19.000 16.020 C 17.463 16.020,17.170 16.045,16.793 16.207 C 16.389 16.381,16.122 16.810,16.047 17.406 C 16.022 17.606,16.009 16.760,16.005 14.760 C 16.000 11.703,15.981 11.285,15.830 10.883 C 15.736 10.631,15.490 10.347,15.268 10.234 C 14.887 10.040,14.735 10.029,12.220 10.018 C 10.922 10.012,9.714 10.023,9.536 10.041 " fill="#1C274C" stroke="none" fill-rule="evenodd"></path></svg>