<svg width="24" height="24" viewBox="0 0 24 24" fill="none" xmlns="http://www.w3.org/2000/svg"><path d="M8.419 2.041 C 5.785 2.145,4.480 2.507,3.549 3.393 C 2.551 4.342,2.166 5.587,2.041 8.260 C 1.988 9.399,1.988 14.601,2.041 15.740 C 2.160 18.285,2.507 19.501,3.379 20.433 C 4.245 21.360,5.318 21.742,7.580 21.927 C 8.488 22.002,15.512 22.002,16.420 21.927 C 18.857 21.727,19.992 21.275,20.860 20.157 C 21.474 19.368,21.771 18.329,21.927 16.420 C 22.002 15.512,22.002 8.488,21.927 7.580 C 21.740 5.297,21.356 4.232,20.407 3.355 C 19.572 2.585,18.492 2.242,16.380 2.078 C 15.684 2.023,9.573 1.995,8.419 2.041 M11.380 5.362 C 11.628 5.518,14.542 7.985,14.625 8.109 C 14.801 8.374,14.779 8.716,14.569 8.966 C 14.461 9.095,11.772 11.355,11.447 11.590 C 11.354 11.658,11.208 11.725,11.123 11.739 C 10.493 11.846,10.031 11.118,10.385 10.578 C 10.417 10.528,10.777 10.212,11.183 9.874 L 11.923 9.260 9.331 9.240 C 7.465 9.226,6.718 9.207,6.660 9.173 C 6.554 9.112,6.382 8.925,6.319 8.802 C 6.254 8.676,6.254 8.324,6.319 8.198 C 6.382 8.075,6.554 7.888,6.660 7.827 C 6.718 7.793,7.464 7.774,9.327 7.760 L 11.914 7.740 11.194 7.142 C 10.798 6.812,10.441 6.497,10.401 6.441 C 10.187 6.141,10.223 5.737,10.485 5.475 C 10.568 5.392,10.696 5.305,10.768 5.284 C 10.942 5.231,11.231 5.269,11.380 5.362 M17.405 5.381 C 17.485 5.432,17.593 5.543,17.645 5.627 L 17.740 5.780 17.740 12.007 L 17.740 18.233 17.619 18.405 C 17.453 18.641,17.273 18.739,17.000 18.739 C 16.727 18.739,16.547 18.641,16.381 18.405 L 16.260 18.233 16.260 12.007 L 16.260 5.780 16.353 5.631 C 16.586 5.256,17.044 5.147,17.405 5.381 M11.380 12.362 C 11.628 12.518,14.542 14.985,14.625 15.109 C 14.801 15.374,14.779 15.716,14.569 15.966 C 14.461 16.095,11.772 18.355,11.447 18.590 C 11.354 18.658,11.208 18.725,11.123 18.739 C 10.493 18.846,10.031 18.118,10.385 17.578 C 10.417 17.528,10.777 17.212,11.183 16.874 L 11.923 16.260 9.331 16.240 C 7.465 16.226,6.718 16.207,6.660 16.173 C 6.554 16.112,6.382 15.925,6.319 15.802 C 6.254 15.676,6.254 15.324,6.319 15.198 C 6.382 15.075,6.554 14.888,6.660 14.827 C 6.718 14.793,7.464 14.774,9.327 14.760 L 11.914 14.740 11.194 14.142 C 10.798 13.812,10.441 13.497,10.401 13.441 C 10.187 13.141,10.223 12.737,10.485 12.475 C 10.568 12.392,10.696 12.305,10.768 12.284 C 10.942 12.231,11.231 12.269,11.380 12.362 " fill="#1C274C" stroke="none" fill-rule="evenodd"></path></svg>