<svg width="24" height="24" viewBox="0 0 24 24" fill="none" xmlns="http://www.w3.org/2000/svg"><path d="M8.419 2.041 C 5.785 2.145,4.480 2.507,3.549 3.393 C 2.551 4.342,2.166 5.587,2.041 8.260 C 1.988 9.399,1.988 14.601,2.041 15.740 C 2.160 18.285,2.507 19.501,3.379 20.433 C 4.245 21.360,5.318 21.742,7.580 21.927 C 8.488 22.002,15.512 22.002,16.420 21.927 C 18.857 21.727,19.992 21.275,20.860 20.157 C 21.474 19.368,21.771 18.329,21.927 16.420 C 22.002 15.512,22.002 8.488,21.927 7.580 C 21.740 5.297,21.356 4.232,20.407 3.355 C 19.572 2.585,18.492 2.242,16.380 2.078 C 15.684 2.023,9.573 1.995,8.419 2.041 M17.405 7.381 C 17.485 7.432,17.593 7.543,17.645 7.627 L 17.740 7.780 17.740 12.007 L 17.740 16.233 17.619 16.405 C 17.453 16.641,17.273 16.739,17.000 16.739 C 16.727 16.739,16.547 16.641,16.381 16.405 L 16.260 16.233 16.260 12.007 L 16.260 7.780 16.353 7.631 C 16.586 7.256,17.044 7.147,17.405 7.381 M11.380 8.362 C 11.539 8.460,14.616 11.552,14.682 11.680 C 14.765 11.841,14.747 12.207,14.649 12.364 C 14.602 12.439,13.848 13.214,12.972 14.087 C 11.557 15.497,11.361 15.679,11.205 15.720 C 10.713 15.849,10.267 15.508,10.267 15.003 C 10.267 14.836,10.290 14.733,10.351 14.636 C 10.398 14.561,10.824 14.113,11.299 13.640 L 12.161 12.780 9.470 12.760 C 6.850 12.741,6.776 12.738,6.641 12.658 C 6.564 12.613,6.448 12.501,6.384 12.409 C 6.286 12.270,6.267 12.203,6.267 12.003 C 6.267 11.718,6.385 11.506,6.627 11.355 L 6.780 11.260 9.478 11.249 L 12.175 11.237 11.272 10.329 C 10.776 9.829,10.347 9.375,10.318 9.320 C 10.233 9.155,10.253 8.793,10.356 8.626 C 10.577 8.269,11.036 8.151,11.380 8.362 " fill="#1C274C" stroke="none" fill-rule="evenodd"></path></svg>