<svg width="24" height="24" viewBox="0 0 24 24" fill="none" xmlns="http://www.w3.org/2000/svg"><path d="M11.300 2.024 C 10.268 2.130,9.297 2.339,8.537 2.620 C 6.161 3.500,4.142 5.321,3.043 7.576 C 2.706 8.267,2.527 8.743,2.342 9.443 C 2.101 10.351,2.026 10.964,2.026 12.000 C 2.026 12.726,2.043 13.008,2.113 13.460 C 2.441 15.571,3.363 17.437,4.837 18.972 C 5.788 19.962,7.208 20.887,8.523 21.374 C 9.075 21.579,9.894 21.787,10.540 21.887 C 11.338 22.011,12.662 22.011,13.460 21.887 C 14.942 21.657,16.316 21.129,17.508 20.333 C 19.030 19.315,20.184 18.007,20.959 16.420 C 21.435 15.446,21.720 14.536,21.887 13.460 C 22.011 12.662,22.011 11.338,21.887 10.540 C 21.657 9.058,21.129 7.684,20.333 6.492 C 19.530 5.292,18.683 4.446,17.483 3.649 C 15.928 2.615,14.126 2.060,12.200 2.022 C 11.793 2.014,11.388 2.015,11.300 2.024 M14.901 3.422 C 17.193 4.268,19.118 6.005,20.178 8.180 C 20.455 8.750,20.705 9.391,20.744 9.635 C 20.776 9.836,20.705 10.048,20.546 10.229 C 20.269 10.545,19.806 10.571,19.506 10.287 C 19.363 10.152,19.307 10.044,19.155 9.609 C 18.628 8.113,17.479 6.644,16.120 5.733 C 15.749 5.483,15.112 5.120,15.048 5.120 C 15.011 5.120,15.000 6.006,15.000 8.970 C 14.999 12.663,14.996 12.833,14.921 13.149 C 14.586 14.543,13.433 15.558,11.991 15.729 C 11.015 15.844,10.049 15.511,9.312 14.808 C 8.749 14.269,8.428 13.672,8.296 12.912 C 8.036 11.423,8.854 9.915,10.268 9.273 C 10.736 9.061,11.148 8.989,11.760 9.011 C 12.369 9.033,12.648 9.103,13.169 9.365 C 13.339 9.450,13.488 9.520,13.499 9.520 C 13.511 9.520,13.520 8.243,13.520 6.683 C 13.520 4.775,13.534 3.808,13.563 3.733 C 13.623 3.574,13.793 3.403,13.980 3.313 C 14.193 3.212,14.399 3.236,14.901 3.422 M11.285 10.525 C 10.607 10.638,10.000 11.205,9.814 11.900 C 9.504 13.062,10.412 14.242,11.617 14.240 C 12.538 14.238,13.295 13.613,13.481 12.701 C 13.641 11.915,13.210 11.070,12.460 10.697 C 12.062 10.500,11.730 10.451,11.285 10.525 " fill="#1C274C" stroke="none" fill-rule="evenodd"></path></svg>