<svg width="24" height="24" viewBox="0 0 24 24" fill="none" xmlns="http://www.w3.org/2000/svg"><path d="M5.353 8.040 C 4.386 8.194,3.480 8.716,2.894 9.457 C 1.701 10.966,1.703 13.037,2.900 14.550 C 3.384 15.162,4.173 15.675,4.960 15.888 L 5.300 15.980 12.000 15.980 L 18.700 15.980 19.040 15.888 C 21.829 15.133,22.917 11.747,21.106 9.457 C 20.614 8.834,19.788 8.302,19.020 8.113 C 18.517 7.989,17.646 7.990,17.180 8.115 C 15.305 8.617,14.061 10.420,14.244 12.367 C 14.302 12.978,14.569 13.779,14.842 14.163 L 14.925 14.280 12.000 14.280 L 9.075 14.280 9.152 14.170 C 9.377 13.852,9.626 13.198,9.720 12.682 C 9.779 12.355,9.780 11.653,9.722 11.320 C 9.543 10.295,8.974 9.363,8.159 8.759 C 7.817 8.506,7.223 8.222,6.820 8.118 C 6.454 8.025,5.702 7.985,5.353 8.040 " fill="#1C274C" stroke="none" fill-rule="evenodd"></path></svg>