<svg width="24" height="24" viewBox="0 0 24 24" fill="none" xmlns="http://www.w3.org/2000/svg"><path d="M11.300 2.024 C 10.268 2.130,9.297 2.339,8.537 2.620 C 6.159 3.501,4.146 5.318,3.041 7.580 C 2.706 8.266,2.527 8.743,2.342 9.443 C 2.101 10.351,2.026 10.964,2.026 12.000 C 2.026 12.726,2.043 13.008,2.113 13.460 C 2.441 15.571,3.363 17.437,4.837 18.972 C 5.788 19.962,7.208 20.887,8.523 21.374 C 9.075 21.579,9.894 21.787,10.540 21.887 C 11.338 22.011,12.662 22.011,13.460 21.887 C 14.942 21.657,16.316 21.129,17.508 20.333 C 19.030 19.315,20.184 18.007,20.959 16.420 C 21.435 15.446,21.720 14.536,21.887 13.460 C 22.011 12.662,22.011 11.338,21.887 10.540 C 21.657 9.058,21.129 7.684,20.333 6.492 C 19.530 5.292,18.683 4.446,17.483 3.649 C 15.928 2.615,14.126 2.060,12.200 2.022 C 11.793 2.014,11.388 2.015,11.300 2.024 M8.749 8.839 C 9.519 9.024,10.189 9.481,10.665 10.146 C 11.324 11.066,11.430 12.382,10.928 13.399 C 10.847 13.565,10.774 13.713,10.767 13.730 C 10.759 13.747,11.314 13.760,12.000 13.760 C 12.686 13.760,13.240 13.747,13.231 13.730 C 12.877 13.041,12.761 12.612,12.761 12.000 C 12.761 10.921,13.252 9.974,14.146 9.335 C 15.192 8.586,16.733 8.565,17.787 9.284 C 18.068 9.475,18.463 9.863,18.665 10.146 C 19.436 11.222,19.436 12.778,18.665 13.854 C 18.189 14.519,17.519 14.976,16.749 15.161 C 16.432 15.237,16.261 15.239,12.000 15.239 C 7.739 15.239,7.568 15.237,7.251 15.161 C 6.481 14.976,5.811 14.519,5.335 13.854 C 4.586 12.808,4.565 11.267,5.284 10.213 C 5.611 9.734,6.161 9.263,6.658 9.038 C 7.274 8.758,8.089 8.681,8.749 8.839 M7.687 10.283 C 7.188 10.370,6.646 10.784,6.429 11.244 C 6.208 11.714,6.208 12.286,6.429 12.756 C 6.566 13.047,6.953 13.434,7.244 13.571 C 7.714 13.792,8.286 13.792,8.756 13.571 C 9.047 13.434,9.434 13.047,9.571 12.756 C 10.174 11.475,9.083 10.042,7.687 10.283 M15.687 10.283 C 15.377 10.337,15.068 10.498,14.800 10.746 C 14.070 11.422,14.069 12.559,14.798 13.255 C 15.491 13.916,16.509 13.916,17.202 13.255 C 18.016 12.478,17.905 11.197,16.968 10.551 C 16.625 10.316,16.116 10.209,15.687 10.283 " fill="#1C274C" stroke="none" fill-rule="evenodd"></path></svg>