<svg width="24" height="24" viewBox="0 0 24 24" fill="none" xmlns="http://www.w3.org/2000/svg"><path d="M8.456 2.042 C 5.720 2.141,4.373 2.534,3.435 3.507 C 2.688 4.282,2.317 5.263,2.142 6.927 C 2.046 7.840,2.001 9.469,2.001 12.000 C 2.001 16.100,2.103 17.613,2.459 18.779 C 2.891 20.195,3.805 21.109,5.221 21.541 C 6.387 21.897,7.900 21.999,12.000 21.999 C 16.116 21.999,17.590 21.899,18.787 21.538 C 20.186 21.116,21.116 20.186,21.538 18.787 C 21.899 17.590,21.999 16.116,21.999 11.980 C 21.999 7.887,21.899 6.409,21.538 5.213 C 21.115 3.811,20.192 2.890,18.779 2.459 C 17.994 2.219,17.052 2.102,15.417 2.041 C 14.217 1.996,9.702 1.997,8.456 2.042 M8.749 8.839 C 9.519 9.024,10.189 9.481,10.665 10.146 C 11.324 11.066,11.430 12.382,10.928 13.399 C 10.847 13.565,10.774 13.713,10.767 13.730 C 10.759 13.747,11.314 13.760,12.000 13.760 C 12.686 13.760,13.240 13.747,13.231 13.730 C 12.877 13.041,12.761 12.612,12.761 12.000 C 12.761 10.921,13.252 9.974,14.146 9.335 C 15.192 8.586,16.733 8.565,17.787 9.284 C 18.068 9.475,18.463 9.863,18.665 10.146 C 19.436 11.222,19.436 12.778,18.665 13.854 C 18.189 14.519,17.519 14.976,16.749 15.161 C 16.432 15.237,16.261 15.239,12.000 15.239 C 7.739 15.239,7.568 15.237,7.251 15.161 C 6.481 14.976,5.811 14.519,5.335 13.854 C 4.586 12.808,4.565 11.267,5.284 10.213 C 5.611 9.734,6.161 9.263,6.658 9.038 C 7.274 8.758,8.089 8.681,8.749 8.839 M7.687 10.283 C 7.188 10.370,6.646 10.784,6.429 11.244 C 6.208 11.714,6.208 12.286,6.429 12.756 C 6.566 13.047,6.953 13.434,7.244 13.571 C 7.714 13.792,8.286 13.792,8.756 13.571 C 9.047 13.434,9.434 13.047,9.571 12.756 C 10.174 11.475,9.083 10.042,7.687 10.283 M15.687 10.283 C 15.377 10.337,15.068 10.498,14.800 10.746 C 14.070 11.422,14.069 12.559,14.798 13.255 C 15.491 13.916,16.509 13.916,17.202 13.255 C 18.016 12.478,17.905 11.197,16.968 10.551 C 16.625 10.316,16.116 10.209,15.687 10.283 " fill="#1C274C" stroke="none" fill-rule="evenodd"></path></svg>