<svg width="24" height="24" viewBox="0 0 24 24" fill="none" xmlns="http://www.w3.org/2000/svg"><path d="M11.120 2.039 C 9.316 2.220,7.707 2.807,6.280 3.806 C 2.738 6.286,1.178 10.759,2.422 14.865 C 2.918 16.499,3.728 17.850,4.939 19.061 C 5.928 20.050,7.038 20.788,8.272 21.278 C 11.634 22.610,15.313 22.080,18.200 19.845 C 18.637 19.507,19.507 18.637,19.845 18.200 C 21.255 16.379,22.000 14.234,22.000 12.000 C 22.000 7.432,18.842 3.387,14.430 2.303 C 13.446 2.062,12.028 1.948,11.120 2.039 M13.759 8.041 C 14.055 8.064,14.414 8.109,14.555 8.142 C 15.246 8.302,15.698 8.756,15.859 9.451 C 15.954 9.857,16.000 10.697,16.000 12.000 C 16.000 13.893,15.927 14.570,15.674 15.046 C 15.431 15.501,15.010 15.774,14.340 15.908 C 14.022 15.972,13.748 15.980,12.000 15.980 C 10.252 15.980,9.978 15.972,9.660 15.908 C 8.990 15.774,8.569 15.501,8.326 15.046 C 8.073 14.570,8.000 13.893,8.000 12.000 C 8.000 10.164,8.072 9.450,8.302 8.996 C 8.607 8.395,9.136 8.122,10.153 8.044 C 10.782 7.996,13.137 7.994,13.759 8.041 " fill="#1C274C" stroke="none" fill-rule="evenodd"></path></svg>