<svg width="24" height="24" viewBox="0 0 24 24" fill="none" xmlns="http://www.w3.org/2000/svg"><path d="M11.300 2.024 C 10.268 2.130,9.297 2.339,8.537 2.620 C 6.161 3.500,4.142 5.321,3.043 7.576 C 2.706 8.267,2.527 8.743,2.342 9.443 C 2.101 10.351,2.026 10.964,2.026 12.000 C 2.026 12.726,2.043 13.008,2.113 13.460 C 2.441 15.571,3.363 17.437,4.837 18.972 C 5.789 19.963,7.208 20.887,8.525 21.375 C 9.054 21.571,9.891 21.786,10.528 21.890 C 11.050 21.975,11.152 21.977,16.180 21.991 C 19.840 22.001,21.343 21.992,21.451 21.961 C 21.930 21.820,22.138 21.253,21.864 20.838 C 21.660 20.530,21.756 20.542,19.388 20.520 L 17.275 20.500 17.688 20.215 C 19.652 18.855,21.077 16.821,21.663 14.540 C 22.102 12.827,22.102 11.131,21.660 9.452 C 21.124 7.414,19.936 5.569,18.303 4.241 C 17.532 3.614,16.402 2.968,15.475 2.625 C 14.927 2.422,14.091 2.210,13.472 2.117 C 12.963 2.040,11.678 1.985,11.300 2.024 M12.400 4.587 C 12.729 4.722,12.999 5.134,12.999 5.500 C 12.999 5.760,12.861 6.057,12.652 6.245 C 12.155 6.693,11.384 6.522,11.094 5.900 C 10.913 5.511,11.014 5.057,11.348 4.755 C 11.493 4.624,11.619 4.563,11.860 4.506 C 11.973 4.480,12.235 4.519,12.400 4.587 M12.507 8.282 C 12.939 8.341,13.538 8.552,13.930 8.785 C 14.374 9.047,14.953 9.626,15.215 10.070 C 15.782 11.027,15.902 12.166,15.545 13.209 C 15.349 13.780,15.090 14.190,14.640 14.640 C 14.190 15.090,13.780 15.349,13.209 15.545 C 12.166 15.902,11.027 15.782,10.070 15.215 C 9.626 14.953,9.047 14.374,8.785 13.930 C 8.218 12.973,8.098 11.834,8.455 10.791 C 8.651 10.220,8.910 9.810,9.360 9.360 C 10.215 8.505,11.331 8.123,12.507 8.282 M11.540 9.798 C 10.501 10.023,9.760 10.940,9.760 12.000 C 9.760 12.615,9.979 13.139,10.420 13.580 C 11.309 14.469,12.691 14.469,13.580 13.580 C 14.744 12.416,14.319 10.482,12.771 9.894 C 12.473 9.781,11.844 9.732,11.540 9.798 M5.900 11.094 C 6.010 11.145,6.165 11.260,6.245 11.348 C 6.693 11.845,6.522 12.616,5.900 12.906 C 5.511 13.087,5.057 12.986,4.755 12.652 C 4.419 12.278,4.419 11.722,4.755 11.348 C 4.943 11.139,5.240 11.001,5.500 11.001 C 5.626 11.001,5.774 11.035,5.900 11.094 M18.900 11.094 C 19.010 11.145,19.165 11.260,19.245 11.348 C 19.693 11.845,19.522 12.616,18.900 12.906 C 18.511 13.087,18.057 12.986,17.755 12.652 C 17.419 12.278,17.419 11.722,17.755 11.348 C 17.943 11.139,18.240 11.001,18.500 11.001 C 18.626 11.001,18.774 11.035,18.900 11.094 M12.400 17.587 C 12.729 17.722,12.999 18.134,12.999 18.500 C 12.999 18.760,12.861 19.057,12.652 19.245 C 12.155 19.693,11.384 19.522,11.094 18.900 C 10.913 18.511,11.014 18.057,11.348 17.755 C 11.493 17.624,11.619 17.563,11.860 17.506 C 11.973 17.480,12.235 17.519,12.400 17.587 " fill="#1C274C" stroke="none" fill-rule="evenodd"></path></svg>