<svg width="24" height="24" viewBox="0 0 24 24" fill="none" xmlns="http://www.w3.org/2000/svg"><path d="M11.120 2.039 C 9.316 2.220,7.707 2.807,6.280 3.806 C 3.032 6.080,1.434 10.018,2.185 13.897 C 2.490 15.468,3.141 16.890,4.155 18.200 C 4.493 18.637,5.363 19.507,5.800 19.845 C 7.369 21.060,9.173 21.781,11.080 21.957 C 11.696 22.014,21.281 22.016,21.485 21.959 C 21.704 21.898,21.947 21.616,21.982 21.380 C 22.033 21.041,21.888 20.747,21.598 20.599 C 21.450 20.523,21.355 20.520,19.382 20.520 C 18.248 20.520,17.321 20.507,17.321 20.490 C 17.322 20.473,17.452 20.375,17.611 20.272 C 18.087 19.962,18.552 19.573,19.080 19.042 C 19.908 18.210,20.452 17.452,20.959 16.420 C 21.938 14.431,22.233 12.250,21.815 10.103 C 21.073 6.292,18.165 3.221,14.430 2.303 C 13.446 2.062,12.028 1.948,11.120 2.039 M12.520 6.099 C 12.917 6.239,13.243 6.570,13.402 6.994 C 13.533 7.343,13.503 7.814,13.329 8.169 C 13.175 8.480,12.924 8.722,12.600 8.873 C 12.413 8.961,12.324 8.976,12.000 8.976 C 11.676 8.976,11.587 8.961,11.400 8.873 C 11.076 8.722,10.825 8.480,10.671 8.169 C 10.495 7.811,10.467 7.343,10.600 6.989 C 10.834 6.364,11.429 5.973,12.080 6.018 C 12.223 6.028,12.421 6.064,12.520 6.099 M8.169 10.671 C 9.239 11.199,9.265 12.750,8.213 13.310 C 6.992 13.959,5.644 12.792,6.100 11.480 C 6.233 11.096,6.536 10.788,6.949 10.615 C 7.146 10.533,7.234 10.520,7.541 10.529 C 7.856 10.539,7.936 10.557,8.169 10.671 M17.169 10.671 C 18.239 11.199,18.265 12.750,17.213 13.310 C 15.992 13.959,14.644 12.792,15.100 11.480 C 15.233 11.096,15.536 10.788,15.949 10.615 C 16.146 10.533,16.234 10.520,16.541 10.529 C 16.856 10.539,16.936 10.557,17.169 10.671 M12.520 15.099 C 12.917 15.239,13.243 15.570,13.402 15.994 C 13.533 16.343,13.503 16.814,13.329 17.169 C 13.175 17.480,12.924 17.722,12.600 17.873 C 12.413 17.961,12.324 17.976,12.000 17.976 C 11.676 17.976,11.587 17.961,11.400 17.873 C 11.076 17.722,10.825 17.480,10.671 17.169 C 10.495 16.811,10.467 16.343,10.600 15.989 C 10.834 15.364,11.429 14.973,12.080 15.018 C 12.223 15.028,12.421 15.064,12.520 15.099 " fill="#1C274C" stroke="none" fill-rule="evenodd"></path></svg>