<svg width="24" height="24" viewBox="0 0 24 24" fill="none" xmlns="http://www.w3.org/2000/svg"><path d="M11.120 2.039 C 9.316 2.220,7.707 2.807,6.280 3.806 C 2.738 6.286,1.178 10.759,2.422 14.865 C 2.918 16.499,3.728 17.850,4.939 19.061 C 5.928 20.050,7.038 20.788,8.272 21.278 C 11.634 22.610,15.313 22.080,18.200 19.845 C 18.637 19.507,19.507 18.637,19.845 18.200 C 21.255 16.379,22.000 14.234,22.000 12.000 C 22.000 7.432,18.842 3.387,14.430 2.303 C 13.446 2.062,12.028 1.948,11.120 2.039 M16.099 5.696 C 16.394 5.921,16.398 5.950,16.398 7.640 C 16.398 9.309,16.393 9.344,16.124 9.571 C 15.903 9.756,15.803 9.766,14.240 9.753 C 12.588 9.738,12.619 9.744,12.384 9.409 C 12.286 9.271,12.267 9.203,12.267 9.007 C 12.267 8.705,12.327 8.608,12.818 8.121 C 13.028 7.912,13.200 7.729,13.200 7.714 C 13.200 7.698,13.060 7.653,12.890 7.613 C 12.425 7.504,11.500 7.513,11.025 7.632 C 10.286 7.817,9.578 8.217,9.043 8.752 C 8.210 9.586,7.760 10.682,7.760 11.880 C 7.760 14.307,9.639 16.239,12.000 16.239 C 13.983 16.239,15.668 14.867,16.128 12.880 C 16.171 12.693,16.225 12.464,16.248 12.372 C 16.295 12.182,16.510 11.908,16.682 11.819 C 16.862 11.726,17.242 11.742,17.400 11.850 C 17.642 12.015,17.700 12.133,17.697 12.453 C 17.684 13.602,16.989 15.097,16.021 16.060 C 15.173 16.903,14.266 17.391,13.080 17.644 C 12.483 17.771,11.518 17.771,10.920 17.644 C 10.141 17.479,9.489 17.213,8.904 16.824 C 6.871 15.468,5.890 13.064,6.384 10.642 C 6.856 8.329,8.770 6.472,11.071 6.096 C 11.571 6.015,12.428 6.014,12.926 6.096 C 13.325 6.161,13.833 6.306,14.176 6.452 L 14.373 6.535 14.748 6.146 C 15.273 5.599,15.354 5.549,15.684 5.567 C 15.900 5.579,15.976 5.603,16.099 5.696 " fill="#1C274C" stroke="none" fill-rule="evenodd"></path></svg>