<svg width="24" height="24" viewBox="0 0 24 24" fill="none" xmlns="http://www.w3.org/2000/svg"><path d="M8.419 2.041 C 5.785 2.145,4.480 2.507,3.549 3.393 C 2.551 4.342,2.166 5.587,2.041 8.260 C 1.988 9.399,1.988 14.601,2.041 15.740 C 2.160 18.285,2.507 19.501,3.379 20.433 C 4.245 21.360,5.318 21.742,7.580 21.927 C 8.488 22.002,15.512 22.002,16.420 21.927 C 18.857 21.727,19.992 21.275,20.860 20.157 C 21.474 19.368,21.771 18.329,21.927 16.420 C 22.002 15.512,22.002 8.488,21.927 7.580 C 21.740 5.297,21.356 4.232,20.407 3.355 C 19.572 2.585,18.492 2.242,16.380 2.078 C 15.684 2.023,9.573 1.995,8.419 2.041 M16.099 5.696 C 16.394 5.921,16.398 5.950,16.398 7.640 C 16.398 9.309,16.393 9.344,16.124 9.571 C 15.903 9.756,15.803 9.766,14.240 9.753 C 12.588 9.738,12.619 9.744,12.384 9.409 C 12.286 9.271,12.267 9.203,12.267 9.007 C 12.267 8.705,12.327 8.608,12.818 8.121 C 13.028 7.912,13.200 7.729,13.200 7.714 C 13.200 7.698,13.060 7.653,12.890 7.613 C 12.425 7.504,11.500 7.513,11.025 7.632 C 10.286 7.817,9.578 8.217,9.043 8.752 C 8.210 9.586,7.760 10.682,7.760 11.880 C 7.760 14.307,9.639 16.239,12.000 16.239 C 13.983 16.239,15.668 14.867,16.128 12.880 C 16.171 12.693,16.225 12.464,16.248 12.372 C 16.295 12.182,16.510 11.908,16.682 11.819 C 16.862 11.726,17.242 11.742,17.400 11.850 C 17.642 12.015,17.700 12.133,17.697 12.453 C 17.684 13.602,16.989 15.097,16.021 16.060 C 15.173 16.903,14.266 17.391,13.080 17.644 C 12.483 17.771,11.518 17.771,10.920 17.644 C 10.141 17.479,9.489 17.213,8.904 16.824 C 6.871 15.468,5.890 13.064,6.384 10.642 C 6.856 8.329,8.770 6.472,11.071 6.096 C 11.571 6.015,12.428 6.014,12.926 6.096 C 13.325 6.161,13.833 6.306,14.176 6.452 L 14.373 6.535 14.748 6.146 C 15.273 5.599,15.354 5.549,15.684 5.567 C 15.900 5.579,15.976 5.603,16.099 5.696 " fill="#1C274C" stroke="none" fill-rule="evenodd"></path></svg>