<svg width="24" height="24" viewBox="0 0 24 24" fill="none" xmlns="http://www.w3.org/2000/svg"><path d="M11.400 2.283 C 7.694 2.535,4.472 5.077,3.344 8.639 C 3.199 9.095,3.030 9.890,2.980 10.350 L 2.952 10.600 2.364 10.600 C 1.785 10.600,1.773 10.602,1.595 10.715 C 1.303 10.900,1.176 11.261,1.295 11.571 C 1.345 11.702,1.584 11.965,2.330 12.707 C 3.131 13.504,3.328 13.680,3.460 13.716 C 3.659 13.770,3.701 13.770,3.900 13.716 C 4.032 13.680,4.229 13.504,5.030 12.707 C 5.776 11.965,6.015 11.702,6.065 11.571 C 6.184 11.261,6.057 10.900,5.765 10.715 C 5.588 10.603,5.572 10.600,5.027 10.600 L 4.469 10.600 4.496 10.371 C 4.646 9.095,5.220 7.733,6.061 6.660 C 6.348 6.293,7.028 5.620,7.380 5.353 C 8.854 4.236,10.531 3.704,12.360 3.773 C 13.014 3.798,13.283 3.832,13.847 3.961 C 15.713 4.390,17.403 5.570,18.497 7.209 C 18.745 7.580,18.834 7.657,19.093 7.727 C 19.319 7.787,19.542 7.729,19.736 7.558 C 20.081 7.255,20.086 6.897,19.752 6.387 C 18.889 5.066,17.561 3.895,16.140 3.201 C 15.029 2.658,13.981 2.376,12.720 2.281 C 12.132 2.237,12.080 2.237,11.400 2.283 M20.136 10.278 C 19.953 10.322,19.927 10.344,18.906 11.342 C 18.076 12.155,17.963 12.281,17.920 12.439 C 17.824 12.797,17.973 13.163,18.278 13.319 C 18.414 13.389,18.514 13.400,18.984 13.400 L 19.531 13.400 19.504 13.630 C 19.329 15.126,18.590 16.674,17.496 17.837 C 16.339 19.066,14.855 19.849,13.080 20.166 C 12.628 20.247,11.045 20.236,10.577 20.148 C 8.406 19.741,6.636 18.580,5.411 16.757 C 5.188 16.426,5.097 16.349,4.848 16.282 C 4.352 16.149,3.862 16.613,3.947 17.136 C 3.962 17.226,4.078 17.445,4.236 17.680 C 5.705 19.869,7.993 21.288,10.660 21.664 C 11.291 21.753,12.449 21.753,13.100 21.663 C 15.921 21.274,18.363 19.666,19.801 17.253 C 20.387 16.268,20.823 15.030,20.959 13.958 C 20.986 13.750,21.015 13.540,21.024 13.490 C 21.041 13.402,21.052 13.400,21.608 13.400 C 22.102 13.400,22.197 13.389,22.348 13.316 C 22.681 13.155,22.841 12.666,22.669 12.339 C 22.585 12.180,20.813 10.425,20.660 10.350 C 20.500 10.271,20.288 10.242,20.136 10.278 " fill="#1C274C" stroke="none" fill-rule="evenodd"></path></svg>