<svg width="24" height="24" viewBox="0 0 24 24" fill="none" xmlns="http://www.w3.org/2000/svg"><path d="M8.419 2.041 C 5.785 2.145,4.480 2.507,3.549 3.393 C 2.551 4.342,2.166 5.587,2.041 8.260 C 1.988 9.399,1.988 14.601,2.041 15.740 C 2.160 18.285,2.507 19.501,3.379 20.433 C 4.245 21.360,5.318 21.742,7.580 21.927 C 8.488 22.002,15.512 22.002,16.420 21.927 C 18.857 21.727,19.992 21.275,20.860 20.157 C 21.474 19.368,21.771 18.329,21.927 16.420 C 22.002 15.512,22.002 8.488,21.927 7.580 C 21.740 5.297,21.356 4.232,20.407 3.355 C 19.572 2.585,18.492 2.242,16.380 2.078 C 15.684 2.023,9.573 1.995,8.419 2.041 M12.511 5.280 C 13.932 5.391,15.209 5.918,16.313 6.852 C 17.066 7.489,17.270 7.858,17.098 8.271 C 17.016 8.468,16.894 8.595,16.700 8.684 C 16.346 8.848,16.140 8.768,15.637 8.275 C 14.656 7.313,13.551 6.827,12.216 6.771 C 11.100 6.724,10.071 7.015,9.136 7.641 C 8.737 7.908,8.074 8.569,7.812 8.960 C 7.431 9.530,7.116 10.277,7.009 10.870 L 6.971 11.080 7.218 11.080 C 7.680 11.080,8.026 11.348,8.070 11.740 C 8.108 12.075,8.026 12.197,7.250 12.967 C 6.501 13.708,6.377 13.793,6.098 13.747 C 5.835 13.705,5.682 13.587,5.011 12.908 C 4.382 12.271,4.328 12.205,4.283 12.015 C 4.223 11.763,4.272 11.543,4.429 11.356 C 4.593 11.162,4.808 11.082,5.170 11.081 C 5.470 11.080,5.480 11.077,5.480 10.984 C 5.480 10.810,5.638 10.119,5.762 9.746 C 6.416 7.791,8.037 6.194,10.001 5.567 C 10.444 5.426,10.954 5.325,11.438 5.282 C 11.929 5.238,11.968 5.238,12.511 5.280 M18.200 10.362 C 18.277 10.401,18.639 10.736,19.004 11.106 C 19.617 11.728,19.672 11.796,19.717 11.985 C 19.777 12.237,19.728 12.457,19.571 12.644 C 19.407 12.838,19.192 12.918,18.830 12.919 C 18.522 12.920,18.520 12.921,18.520 13.025 C 18.520 13.220,18.314 14.057,18.171 14.440 C 17.857 15.285,17.384 16.039,16.753 16.700 C 14.196 19.378,9.983 19.438,7.350 16.834 C 6.865 16.355,6.755 16.082,6.902 15.729 C 7.028 15.428,7.260 15.270,7.579 15.267 C 7.848 15.264,7.986 15.344,8.354 15.714 C 9.067 16.432,9.848 16.872,10.860 17.126 C 11.334 17.245,12.265 17.271,12.803 17.181 C 14.429 16.910,15.812 15.890,16.550 14.420 C 16.722 14.076,16.929 13.471,16.991 13.130 L 17.029 12.920 16.785 12.917 C 16.485 12.913,16.319 12.856,16.154 12.701 C 15.916 12.476,15.852 12.129,15.997 11.848 C 16.113 11.623,17.433 10.332,17.580 10.300 C 17.646 10.285,17.718 10.267,17.740 10.260 C 17.813 10.236,18.058 10.290,18.200 10.362 " fill="#1C274C" stroke="none" fill-rule="evenodd"></path></svg>