<svg width="24" height="24" viewBox="0 0 24 24" fill="none" xmlns="http://www.w3.org/2000/svg"><path d="M11.120 2.039 C 9.316 2.220,7.707 2.807,6.280 3.806 C 2.738 6.286,1.178 10.759,2.422 14.865 C 2.918 16.499,3.728 17.850,4.939 19.061 C 5.928 20.050,7.038 20.788,8.272 21.278 C 11.634 22.610,15.313 22.080,18.200 19.845 C 18.637 19.507,19.507 18.637,19.845 18.200 C 21.255 16.379,22.000 14.234,22.000 12.000 C 22.000 7.432,18.842 3.387,14.430 2.303 C 13.446 2.062,12.028 1.948,11.120 2.039 M13.060 5.344 C 14.311 5.547,15.403 6.064,16.394 6.922 C 16.783 7.259,17.294 7.861,17.360 8.061 C 17.518 8.540,17.157 9.037,16.648 9.039 C 16.392 9.040,16.196 8.917,15.915 8.577 C 15.206 7.720,14.169 7.100,13.040 6.857 C 12.627 6.769,11.771 6.738,11.356 6.797 C 10.554 6.910,9.798 7.198,9.136 7.641 C 8.737 7.908,8.074 8.569,7.812 8.960 C 7.431 9.530,7.116 10.277,7.009 10.870 L 6.971 11.080 7.218 11.080 C 7.680 11.080,8.026 11.348,8.070 11.740 C 8.108 12.075,8.026 12.197,7.250 12.967 C 6.501 13.708,6.377 13.793,6.098 13.747 C 5.835 13.705,5.682 13.587,5.011 12.908 C 4.382 12.271,4.328 12.205,4.283 12.015 C 4.223 11.763,4.272 11.543,4.429 11.356 C 4.593 11.162,4.808 11.082,5.170 11.081 C 5.470 11.080,5.480 11.077,5.480 10.984 C 5.480 10.810,5.638 10.119,5.762 9.746 C 6.416 7.791,8.037 6.194,10.001 5.567 C 10.966 5.260,12.056 5.180,13.060 5.344 M18.200 10.362 C 18.277 10.401,18.639 10.736,19.004 11.106 C 19.617 11.728,19.672 11.796,19.717 11.985 C 19.777 12.237,19.728 12.457,19.571 12.644 C 19.407 12.838,19.192 12.918,18.830 12.919 C 18.522 12.920,18.520 12.921,18.520 13.025 C 18.520 13.220,18.314 14.057,18.171 14.440 C 17.857 15.285,17.384 16.039,16.753 16.700 C 14.198 19.375,9.983 19.438,7.357 16.840 C 6.912 16.399,6.659 16.054,6.625 15.841 C 6.540 15.311,7.030 14.876,7.562 15.009 C 7.702 15.044,7.787 15.106,7.960 15.296 C 8.792 16.214,9.446 16.670,10.373 16.980 C 10.922 17.164,11.394 17.240,11.980 17.240 C 13.929 17.240,15.675 16.163,16.550 14.420 C 16.722 14.076,16.929 13.471,16.991 13.130 L 17.029 12.920 16.785 12.917 C 16.485 12.913,16.319 12.856,16.154 12.701 C 15.916 12.476,15.852 12.129,15.997 11.848 C 16.113 11.623,17.433 10.332,17.580 10.300 C 17.646 10.285,17.718 10.267,17.740 10.260 C 17.813 10.236,18.058 10.290,18.200 10.362 " fill="#1C274C" stroke="none" fill-rule="evenodd"></path></svg>