<svg width="24" height="24" viewBox="0 0 24 24" fill="none" xmlns="http://www.w3.org/2000/svg"><path d="M9.374 2.042 C 7.645 2.127,6.756 2.480,5.984 3.386 C 5.340 4.140,5.123 4.852,5.041 6.472 C 4.989 7.497,4.989 16.503,5.041 17.528 C 5.123 19.148,5.340 19.860,5.984 20.614 C 6.420 21.126,6.954 21.490,7.539 21.677 C 8.327 21.929,9.302 21.999,12.000 21.999 C 15.977 21.999,16.814 21.830,17.822 20.822 C 18.600 20.044,18.872 19.256,18.959 17.528 C 19.011 16.503,19.011 7.497,18.959 6.472 C 18.872 4.748,18.600 3.955,17.829 3.185 C 17.027 2.383,16.293 2.130,14.512 2.040 C 13.634 1.996,10.287 1.997,9.374 2.042 M10.512 5.147 C 11.142 5.534,11.154 6.446,10.535 6.839 C 10.060 7.141,9.442 6.992,9.141 6.503 C 9.034 6.329,9.020 6.271,9.020 6.003 C 9.020 5.744,9.036 5.673,9.131 5.511 C 9.339 5.158,9.660 4.988,10.072 5.015 C 10.261 5.027,10.371 5.060,10.512 5.147 M14.512 5.147 C 15.142 5.534,15.154 6.446,14.535 6.839 C 14.060 7.141,13.442 6.992,13.141 6.503 C 13.034 6.329,13.020 6.271,13.020 6.003 C 13.020 5.744,13.036 5.673,13.131 5.511 C 13.339 5.158,13.660 4.988,14.072 5.015 C 14.261 5.027,14.371 5.060,14.512 5.147 M10.400 8.587 C 10.729 8.722,10.999 9.134,10.999 9.500 C 10.999 9.760,10.861 10.057,10.652 10.245 C 10.155 10.693,9.384 10.522,9.094 9.900 C 8.913 9.511,9.014 9.057,9.348 8.755 C 9.493 8.624,9.619 8.563,9.860 8.506 C 9.973 8.480,10.235 8.519,10.400 8.587 M14.400 8.587 C 14.729 8.722,14.999 9.134,14.999 9.500 C 14.999 9.760,14.861 10.057,14.652 10.245 C 14.155 10.693,13.384 10.522,13.094 9.900 C 12.913 9.511,13.014 9.057,13.348 8.755 C 13.493 8.624,13.619 8.563,13.860 8.506 C 13.973 8.480,14.235 8.519,14.400 8.587 M12.981 11.873 C 14.314 12.263,15.320 13.301,15.647 14.625 C 15.771 15.128,15.771 15.881,15.648 16.375 C 15.314 17.712,14.312 18.740,12.960 19.133 C 12.706 19.207,12.560 19.220,12.000 19.220 C 11.440 19.220,11.294 19.207,11.040 19.133 C 9.688 18.740,8.685 17.711,8.352 16.375 C 8.228 15.876,8.228 15.124,8.352 14.625 C 8.702 13.223,9.816 12.135,11.220 11.824 C 11.626 11.734,12.598 11.761,12.981 11.873 M11.660 13.282 C 11.006 13.367,10.337 13.840,10.024 14.439 C 9.471 15.493,9.802 16.745,10.807 17.400 C 11.509 17.858,12.491 17.858,13.193 17.400 C 14.198 16.745,14.529 15.493,13.976 14.439 C 13.657 13.830,12.994 13.369,12.310 13.280 C 11.986 13.238,11.992 13.238,11.660 13.282 " fill="#1C274C" stroke="none" fill-rule="evenodd"></path></svg>