<svg width="24" height="24" viewBox="0 0 24 24" fill="none" xmlns="http://www.w3.org/2000/svg"><path d="M9.374 2.042 C 7.645 2.127,6.756 2.480,5.984 3.386 C 5.340 4.140,5.123 4.852,5.041 6.472 C 4.989 7.497,4.989 16.503,5.041 17.528 C 5.123 19.148,5.340 19.860,5.984 20.614 C 6.420 21.126,6.954 21.490,7.539 21.677 C 8.327 21.929,9.302 21.999,12.000 21.999 C 15.977 21.999,16.814 21.830,17.822 20.822 C 18.600 20.044,18.872 19.256,18.959 17.528 C 19.011 16.503,19.011 7.497,18.959 6.472 C 18.872 4.748,18.600 3.955,17.829 3.185 C 17.027 2.383,16.293 2.130,14.512 2.040 C 13.634 1.996,10.287 1.997,9.374 2.042 M12.512 4.147 C 13.142 4.534,13.154 5.446,12.535 5.839 C 12.060 6.141,11.442 5.992,11.141 5.503 C 11.034 5.329,11.020 5.271,11.020 5.003 C 11.020 4.744,11.036 4.673,11.131 4.511 C 11.339 4.158,11.660 3.988,12.072 4.015 C 12.261 4.027,12.371 4.060,12.512 4.147 M12.507 7.282 C 12.939 7.341,13.538 7.552,13.930 7.785 C 14.374 8.047,14.953 8.626,15.215 9.070 C 15.782 10.027,15.902 11.166,15.545 12.209 C 15.349 12.780,15.090 13.190,14.640 13.640 C 14.190 14.090,13.780 14.349,13.209 14.545 C 12.166 14.902,11.027 14.782,10.070 14.215 C 9.626 13.953,9.047 13.374,8.785 12.930 C 8.218 11.973,8.098 10.834,8.455 9.791 C 8.651 9.220,8.910 8.810,9.360 8.360 C 10.215 7.505,11.331 7.123,12.507 7.282 M11.540 8.798 C 10.501 9.023,9.760 9.940,9.760 11.000 C 9.760 11.615,9.979 12.139,10.420 12.580 C 11.309 13.469,12.691 13.469,13.580 12.580 C 14.744 11.416,14.319 9.482,12.771 8.894 C 12.473 8.781,11.844 8.732,11.540 8.798 M12.512 16.147 C 13.142 16.534,13.154 17.446,12.535 17.839 C 12.060 18.141,11.442 17.992,11.141 17.503 C 11.034 17.329,11.020 17.271,11.020 17.003 C 11.020 16.744,11.036 16.673,11.131 16.511 C 11.339 16.158,11.660 15.988,12.072 16.015 C 12.261 16.027,12.371 16.060,12.512 16.147 " fill="#1C274C" stroke="none" fill-rule="evenodd"></path></svg>