<svg width="24" height="24" viewBox="0 0 24 24" fill="none" xmlns="http://www.w3.org/2000/svg"><path d="M9.374 2.042 C 7.645 2.127,6.756 2.480,5.984 3.386 C 5.340 4.140,5.123 4.852,5.041 6.472 C 4.989 7.497,4.989 16.503,5.041 17.528 C 5.123 19.148,5.340 19.860,5.984 20.614 C 6.420 21.126,6.954 21.490,7.539 21.677 C 8.327 21.929,9.302 21.999,12.000 21.999 C 15.977 21.999,16.814 21.830,17.822 20.822 C 18.600 20.044,18.872 19.256,18.959 17.528 C 19.011 16.503,19.011 7.497,18.959 6.472 C 18.872 4.748,18.600 3.955,17.829 3.185 C 17.027 2.383,16.293 2.130,14.512 2.040 C 13.634 1.996,10.287 1.997,9.374 2.042 M15.267 4.803 C 15.516 4.896,15.758 5.241,15.758 5.500 C 15.758 5.759,15.516 6.104,15.267 6.197 C 15.191 6.226,14.132 6.240,12.000 6.240 C 9.868 6.240,8.809 6.226,8.733 6.197 C 8.484 6.104,8.242 5.759,8.242 5.500 C 8.242 5.347,8.363 5.078,8.485 4.961 C 8.698 4.758,8.601 4.763,11.987 4.762 C 14.132 4.761,15.191 4.774,15.267 4.803 M9.512 8.147 C 10.142 8.534,10.154 9.446,9.535 9.839 C 9.060 10.141,8.442 9.992,8.141 9.503 C 8.034 9.329,8.020 9.271,8.020 9.003 C 8.020 8.744,8.036 8.673,8.131 8.511 C 8.339 8.158,8.660 7.988,9.072 8.015 C 9.261 8.027,9.371 8.060,9.512 8.147 M12.512 8.147 C 13.142 8.534,13.154 9.446,12.535 9.839 C 12.060 10.141,11.442 9.992,11.141 9.503 C 11.034 9.329,11.020 9.271,11.020 9.003 C 11.020 8.744,11.036 8.673,11.131 8.511 C 11.339 8.158,11.660 7.988,12.072 8.015 C 12.261 8.027,12.371 8.060,12.512 8.147 M15.512 8.147 C 16.142 8.534,16.154 9.446,15.535 9.839 C 15.060 10.141,14.442 9.992,14.141 9.503 C 14.034 9.329,14.020 9.271,14.020 9.003 C 14.020 8.744,14.036 8.673,14.131 8.511 C 14.339 8.158,14.660 7.988,15.072 8.015 C 15.261 8.027,15.371 8.060,15.512 8.147 M12.981 11.873 C 14.314 12.263,15.320 13.301,15.647 14.625 C 15.771 15.128,15.771 15.881,15.648 16.375 C 15.314 17.712,14.312 18.740,12.960 19.133 C 12.706 19.207,12.560 19.220,12.000 19.220 C 11.440 19.220,11.294 19.207,11.040 19.133 C 9.688 18.740,8.685 17.711,8.352 16.375 C 8.228 15.876,8.228 15.124,8.352 14.625 C 8.702 13.223,9.816 12.135,11.220 11.824 C 11.626 11.734,12.598 11.761,12.981 11.873 M11.660 13.282 C 11.006 13.367,10.337 13.840,10.024 14.439 C 9.471 15.493,9.802 16.745,10.807 17.400 C 11.509 17.858,12.491 17.858,13.193 17.400 C 14.198 16.745,14.529 15.493,13.976 14.439 C 13.657 13.830,12.994 13.369,12.310 13.280 C 11.986 13.238,11.992 13.238,11.660 13.282 " fill="#1C274C" stroke="none" fill-rule="evenodd"></path></svg>