<svg width="24" height="24" viewBox="0 0 24 24" fill="none" xmlns="http://www.w3.org/2000/svg"><path d="M5.500 2.041 C 4.496 2.147,3.441 2.752,2.829 3.572 C 2.468 4.056,2.295 4.415,2.111 5.060 L 2.020 5.380 2.020 11.360 C 2.020 16.840,2.026 17.392,2.092 17.957 C 2.262 19.432,2.551 20.195,3.178 20.822 C 3.926 21.570,4.854 21.851,6.940 21.962 C 8.040 22.021,17.239 21.990,17.820 21.926 C 19.212 21.772,19.994 21.522,20.589 21.040 C 21.395 20.387,21.755 19.500,21.929 17.740 C 22.004 16.982,22.002 9.473,21.927 8.883 C 21.804 7.920,21.578 7.353,21.141 6.915 C 20.367 6.139,19.627 6.002,16.168 6.001 C 14.418 6.000,13.956 5.968,13.462 5.812 C 12.679 5.565,12.423 5.376,10.996 3.995 C 10.206 3.230,9.705 2.776,9.504 2.645 C 9.013 2.325,8.485 2.131,7.860 2.042 C 7.543 1.996,5.925 1.996,5.500 2.041 M14.373 12.355 C 14.615 12.506,14.733 12.718,14.733 13.003 C 14.733 13.203,14.714 13.270,14.616 13.409 C 14.552 13.501,14.436 13.613,14.359 13.658 C 14.223 13.738,14.165 13.740,12.000 13.740 C 9.835 13.740,9.777 13.738,9.641 13.658 C 9.564 13.613,9.448 13.501,9.384 13.409 C 9.098 13.003,9.329 12.396,9.815 12.277 C 9.884 12.260,10.903 12.250,12.080 12.253 L 14.220 12.260 14.373 12.355 " fill="#1C274C" stroke="none" fill-rule="evenodd"></path></svg>