<svg width="24" height="24" viewBox="0 0 24 24" fill="none" xmlns="http://www.w3.org/2000/svg"><path d="M7.580 3.282 C 6.076 3.347,5.300 3.604,4.677 4.242 C 4.260 4.669,4.027 5.172,3.871 5.980 C 3.789 6.408,3.786 6.539,3.771 10.707 L 3.756 14.994 3.488 15.021 C 3.128 15.056,2.931 15.108,2.739 15.220 C 2.493 15.362,2.224 15.675,2.116 15.942 C 2.021 16.176,2.020 16.200,2.020 17.500 C 2.021 18.795,2.023 18.825,2.116 19.060 C 2.246 19.389,2.610 19.754,2.940 19.884 C 3.176 19.978,3.204 19.979,4.500 19.979 C 5.801 19.979,5.823 19.978,6.060 19.883 C 6.363 19.762,6.720 19.429,6.835 19.163 C 6.979 18.828,7.009 18.462,6.991 17.284 C 6.975 16.245,6.969 16.166,6.881 15.942 C 6.777 15.675,6.510 15.364,6.261 15.220 C 6.068 15.108,5.872 15.056,5.510 15.020 L 5.240 14.994 5.241 11.527 C 5.242 6.773,5.280 6.094,5.571 5.547 C 5.779 5.154,6.053 4.990,6.732 4.853 C 7.022 4.795,7.578 4.785,11.580 4.771 C 16.315 4.753,16.950 4.769,17.543 4.920 C 18.119 5.067,18.398 5.330,18.559 5.875 C 18.685 6.301,18.720 6.800,18.747 8.540 L 18.771 10.180 18.373 9.795 C 17.911 9.348,17.778 9.269,17.500 9.269 C 16.897 9.269,16.551 9.936,16.896 10.434 C 16.952 10.515,17.454 11.035,18.010 11.589 C 19.045 12.618,19.223 12.758,19.500 12.758 C 19.777 12.758,19.955 12.618,20.990 11.589 C 21.546 11.035,22.048 10.515,22.104 10.434 C 22.363 10.060,22.232 9.543,21.825 9.332 C 21.661 9.248,21.332 9.251,21.162 9.339 C 21.087 9.378,20.851 9.579,20.637 9.787 L 20.248 10.164 20.228 8.292 C 20.210 6.626,20.199 6.372,20.126 5.980 C 20.081 5.738,20.008 5.436,19.964 5.310 C 19.664 4.444,19.046 3.826,18.197 3.544 C 17.745 3.393,17.235 3.322,16.300 3.280 C 15.332 3.237,8.594 3.238,7.580 3.282 M10.790 15.045 C 10.143 15.128,9.677 15.558,9.563 16.177 C 9.539 16.311,9.520 16.891,9.520 17.500 C 9.520 18.109,9.539 18.689,9.563 18.823 C 9.620 19.129,9.773 19.410,9.990 19.600 C 10.367 19.933,10.706 20.000,12.000 20.000 C 13.294 20.000,13.633 19.933,14.010 19.600 C 14.227 19.410,14.380 19.129,14.437 18.823 C 14.493 18.513,14.493 16.487,14.437 16.177 C 14.355 15.732,14.067 15.356,13.663 15.166 C 13.567 15.120,13.339 15.065,13.155 15.042 C 12.764 14.993,11.179 14.995,10.790 15.045 M18.284 15.043 C 17.945 15.087,17.652 15.236,17.422 15.482 C 17.060 15.868,17.002 16.148,17.002 17.500 C 17.002 18.852,17.060 19.132,17.422 19.518 C 17.800 19.922,18.133 19.999,19.500 19.999 C 20.828 19.999,21.136 19.935,21.518 19.578 C 21.922 19.200,21.999 18.867,21.999 17.500 C 21.999 16.133,21.922 15.800,21.518 15.422 C 21.269 15.189,21.048 15.089,20.672 15.040 C 20.321 14.995,18.643 14.997,18.284 15.043 " fill="#1C274C" stroke="none" fill-rule="evenodd"></path></svg>