<svg width="24" height="24" viewBox="0 0 24 24" fill="none" xmlns="http://www.w3.org/2000/svg"><path d="M8.811 2.278 C 8.415 2.375,8.172 2.799,8.281 3.204 C 8.319 3.346,8.411 3.464,8.752 3.810 C 9.055 4.118,9.153 4.240,9.098 4.240 C 8.764 4.242,7.848 4.335,7.495 4.403 C 6.403 4.614,5.290 5.108,4.360 5.797 C 3.990 6.071,3.309 6.724,2.997 7.104 C 1.758 8.616,1.111 10.667,1.274 12.570 C 1.337 13.306,1.441 13.812,1.664 14.475 C 2.043 15.599,2.590 16.496,3.419 17.355 C 4.094 18.053,4.682 18.491,5.516 18.916 C 6.602 19.469,7.871 19.762,9.177 19.759 C 9.670 19.758,9.854 19.702,10.047 19.495 C 10.309 19.215,10.309 18.783,10.047 18.506 C 9.840 18.287,9.760 18.268,8.920 18.238 C 8.289 18.215,8.049 18.189,7.663 18.101 C 6.387 17.812,5.393 17.247,4.475 16.290 C 3.670 15.450,3.130 14.419,2.871 13.223 C 2.744 12.637,2.744 11.363,2.871 10.777 C 3.148 9.499,3.686 8.508,4.597 7.597 C 5.509 6.685,6.505 6.145,7.777 5.872 C 8.135 5.795,8.348 5.783,9.700 5.763 C 11.032 5.743,11.235 5.732,11.345 5.671 C 11.515 5.578,11.668 5.388,11.718 5.209 C 11.770 5.022,11.770 4.978,11.716 4.780 C 11.680 4.647,11.489 4.435,10.586 3.528 C 9.989 2.927,9.446 2.403,9.380 2.362 C 9.234 2.272,8.985 2.236,8.811 2.278 M14.420 4.260 C 14.398 4.267,14.331 4.284,14.271 4.297 C 14.124 4.329,13.881 4.548,13.814 4.708 C 13.692 5.000,13.771 5.336,14.011 5.546 C 14.216 5.727,14.337 5.751,15.140 5.775 C 16.173 5.805,16.820 5.955,17.679 6.364 C 18.354 6.686,18.836 7.030,19.403 7.597 C 20.314 8.508,20.852 9.499,21.129 10.777 C 21.256 11.363,21.256 12.637,21.129 13.223 C 20.852 14.502,20.313 15.494,19.403 16.402 C 18.496 17.306,17.582 17.814,16.337 18.104 C 15.871 18.213,15.824 18.216,14.317 18.238 L 12.774 18.260 12.605 18.372 C 12.312 18.566,12.193 18.871,12.280 19.205 C 12.321 19.359,12.465 19.519,13.473 20.527 C 14.481 21.535,14.641 21.679,14.795 21.720 C 15.366 21.870,15.872 21.364,15.719 20.795 C 15.681 20.655,15.587 20.534,15.248 20.190 L 14.825 19.760 15.045 19.760 C 16.356 19.760,17.890 19.316,19.069 18.594 C 19.707 18.204,20.503 17.505,21.003 16.896 C 22.242 15.384,22.889 13.333,22.726 11.430 C 22.663 10.693,22.560 10.188,22.334 9.520 C 21.929 8.316,21.302 7.334,20.355 6.419 C 19.027 5.137,17.398 4.415,15.527 4.280 C 14.995 4.242,14.501 4.233,14.420 4.260 " fill="#1C274C" stroke="none" fill-rule="evenodd"></path></svg>