<svg width="24" height="24" viewBox="0 0 24 24" fill="none" xmlns="http://www.w3.org/2000/svg"><path d="M8.940 3.057 C 8.607 3.205,8.436 3.609,8.562 3.947 C 8.585 4.009,8.775 4.232,8.983 4.442 L 9.362 4.824 8.731 4.872 C 6.980 5.006,5.482 5.659,4.238 6.829 C 2.588 8.381,1.768 10.665,2.060 12.892 C 2.534 16.511,5.599 19.162,9.308 19.160 C 9.830 19.160,9.985 19.121,10.149 18.950 C 10.491 18.596,10.412 18.078,9.980 17.848 C 9.889 17.800,9.678 17.778,9.120 17.756 C 8.708 17.740,8.247 17.699,8.080 17.663 C 5.718 17.159,3.960 15.392,3.494 13.055 C 3.395 12.561,3.395 11.439,3.494 10.945 C 3.991 8.453,5.984 6.589,8.479 6.282 C 8.665 6.259,9.349 6.240,9.999 6.239 C 11.062 6.238,11.196 6.231,11.340 6.164 C 11.692 6.002,11.848 5.642,11.718 5.293 C 11.657 5.127,9.696 3.169,9.500 3.077 C 9.313 2.989,9.108 2.982,8.940 3.057 M14.106 4.898 C 13.525 5.105,13.473 5.863,14.020 6.151 C 14.109 6.198,14.329 6.221,14.880 6.243 C 15.674 6.274,16.047 6.335,16.619 6.525 C 17.511 6.822,18.232 7.268,18.902 7.938 C 19.735 8.772,20.256 9.738,20.507 10.920 C 20.610 11.400,20.610 12.600,20.507 13.080 C 20.258 14.251,19.734 15.229,18.921 16.041 C 18.690 16.272,18.388 16.542,18.251 16.641 C 17.613 17.099,16.861 17.442,16.084 17.629 C 15.683 17.725,15.580 17.732,14.200 17.755 C 12.581 17.783,12.590 17.781,12.380 18.056 C 12.260 18.213,12.218 18.410,12.258 18.628 C 12.282 18.760,12.426 18.920,13.332 19.830 C 14.136 20.637,14.418 20.895,14.548 20.945 C 15.111 21.160,15.681 20.558,15.416 20.028 C 15.381 19.958,15.191 19.737,14.995 19.538 L 14.638 19.176 15.249 19.128 C 16.251 19.050,17.064 18.842,17.880 18.456 C 21.173 16.896,22.770 13.169,21.619 9.729 C 20.819 7.338,18.739 5.504,16.260 5.004 C 15.475 4.845,14.402 4.793,14.106 4.898 M8.586 8.361 C 7.297 8.583,6.170 9.511,5.724 10.720 C 5.426 11.528,5.426 12.472,5.724 13.280 C 6.122 14.359,7.016 15.182,8.189 15.550 L 8.540 15.660 12.000 15.660 L 15.460 15.660 15.811 15.550 C 17.308 15.080,18.311 13.893,18.481 12.389 C 18.602 11.321,18.241 10.264,17.482 9.466 C 17.037 8.997,16.482 8.660,15.811 8.451 L 15.460 8.341 12.120 8.334 C 10.283 8.331,8.693 8.343,8.586 8.361 " fill="#1C274C" stroke="none" fill-rule="evenodd"></path></svg>