<svg width="24" height="24" viewBox="0 0 24 24" fill="none" xmlns="http://www.w3.org/2000/svg"><path d="M9.329 6.279 C 9.257 6.296,9.131 6.357,9.049 6.414 C 8.967 6.471,7.771 7.648,6.392 9.029 C 4.655 10.768,3.865 11.586,3.822 11.689 C 3.743 11.878,3.743 12.122,3.822 12.311 C 3.893 12.483,8.782 17.405,9.076 17.601 C 9.397 17.815,9.703 17.798,9.987 17.549 C 10.235 17.330,10.309 17.002,10.178 16.689 C 10.136 16.587,9.517 15.940,8.229 14.650 L 6.342 12.760 10.561 12.759 C 15.045 12.758,15.206 12.753,15.948 12.563 C 18.021 12.034,19.442 10.731,19.996 8.850 C 20.203 8.147,20.310 7.029,20.197 6.733 C 20.095 6.460,19.807 6.269,19.500 6.269 C 19.273 6.269,19.111 6.339,18.953 6.506 C 18.804 6.663,18.774 6.763,18.743 7.200 C 18.680 8.086,18.555 8.587,18.256 9.156 C 17.799 10.022,17.006 10.658,15.957 11.001 C 15.211 11.245,15.316 11.240,10.626 11.240 L 6.342 11.240 8.229 9.350 C 9.517 8.060,10.136 7.413,10.178 7.311 C 10.373 6.843,10.097 6.345,9.600 6.270 C 9.523 6.258,9.401 6.262,9.329 6.279 " fill="#1C274C" stroke="none" fill-rule="evenodd"></path></svg>