<svg width="24" height="24" viewBox="0 0 24 24" fill="none" xmlns="http://www.w3.org/2000/svg"><path d="M9.329 6.279 C 9.257 6.296,9.131 6.357,9.049 6.414 C 8.967 6.471,7.771 7.648,6.392 9.029 C 4.655 10.768,3.865 11.586,3.822 11.689 C 3.743 11.878,3.743 12.122,3.822 12.311 C 3.893 12.483,8.782 17.405,9.076 17.601 C 9.397 17.815,9.703 17.798,9.987 17.549 C 10.235 17.330,10.309 17.002,10.178 16.689 C 10.136 16.587,9.517 15.940,8.229 14.650 L 6.342 12.760 10.606 12.760 C 15.231 12.760,15.166 12.757,15.912 12.983 C 16.646 13.206,17.441 13.720,17.869 14.250 C 18.406 14.913,18.664 15.663,18.740 16.780 C 18.754 16.978,18.782 17.195,18.803 17.263 C 18.878 17.503,19.245 17.761,19.509 17.759 C 19.799 17.757,20.172 17.452,20.224 17.175 C 20.263 16.966,20.217 16.164,20.141 15.740 C 20.059 15.281,19.851 14.661,19.637 14.234 C 18.810 12.582,17.077 11.483,14.980 11.281 C 14.753 11.259,12.798 11.242,10.461 11.241 L 6.342 11.240 8.229 9.350 C 9.517 8.060,10.136 7.413,10.178 7.311 C 10.373 6.843,10.097 6.345,9.600 6.270 C 9.523 6.258,9.401 6.262,9.329 6.279 " fill="#1C274C" stroke="none" fill-rule="evenodd"></path></svg>