<svg width="24" height="24" viewBox="0 0 24 24" fill="none" xmlns="http://www.w3.org/2000/svg"><path d="M17.820 3.477 C 17.595 3.531,17.500 3.610,16.714 4.390 L 15.928 5.169 15.454 4.968 C 14.310 4.480,13.252 4.268,11.980 4.270 C 10.944 4.272,10.203 4.390,9.240 4.705 C 5.900 5.798,3.555 8.819,3.273 12.390 C 3.059 15.110,4.258 17.940,6.367 19.689 C 8.143 21.162,10.405 21.901,12.610 21.727 C 15.353 21.511,17.772 20.104,19.283 17.846 C 20.321 16.295,20.869 14.242,20.729 12.429 C 20.680 11.801,20.647 11.675,20.487 11.506 C 20.195 11.197,19.769 11.174,19.454 11.451 C 19.210 11.665,19.196 11.738,19.224 12.630 C 19.244 13.246,19.235 13.528,19.185 13.908 C 19.029 15.076,18.649 16.086,18.005 17.044 C 16.995 18.546,15.540 19.571,13.780 20.020 C 13.132 20.185,12.691 20.240,12.000 20.240 C 11.309 20.240,10.868 20.185,10.220 20.020 C 7.910 19.430,6.071 17.790,5.219 15.559 C 4.614 13.973,4.614 12.027,5.219 10.441 C 6.423 7.288,9.602 5.388,12.948 5.821 C 13.594 5.905,14.760 6.223,14.760 6.316 C 14.760 6.330,14.399 6.701,13.957 7.140 C 13.516 7.580,13.117 8.012,13.070 8.100 C 12.895 8.433,12.998 8.835,13.317 9.060 L 13.487 9.180 15.753 9.192 C 17.298 9.201,18.067 9.191,18.168 9.161 C 18.368 9.103,18.556 8.937,18.645 8.742 C 18.713 8.591,18.718 8.426,18.719 6.329 C 18.720 3.901,18.721 3.915,18.508 3.687 C 18.341 3.507,18.056 3.421,17.820 3.477 " fill="#1C274C" stroke="none" fill-rule="evenodd"></path></svg>