<svg width="24" height="24" viewBox="0 0 24 24" fill="none" xmlns="http://www.w3.org/2000/svg"><path d="M9.980 0.277 C 9.914 0.293,9.824 0.326,9.780 0.350 C 9.736 0.374,9.274 0.823,8.752 1.347 C 7.784 2.321,7.642 2.504,7.642 2.780 C 7.642 3.046,7.783 3.227,8.766 4.222 C 9.665 5.131,9.750 5.206,9.943 5.263 C 10.062 5.297,10.202 5.312,10.266 5.297 C 10.482 5.247,10.699 5.091,10.800 4.914 C 10.892 4.753,10.900 4.693,10.914 4.105 L 10.929 3.469 13.234 3.492 C 14.502 3.504,15.774 3.535,16.060 3.559 C 17.189 3.655,17.946 3.827,18.500 4.112 C 18.858 4.296,19.370 4.797,19.571 5.160 C 19.876 5.710,20.065 6.519,20.170 7.720 C 20.243 8.559,20.240 15.237,20.167 16.039 C 20.026 17.570,19.785 18.377,19.288 18.971 C 18.636 19.751,17.654 20.080,15.626 20.198 C 14.699 20.252,9.301 20.252,8.374 20.198 C 6.343 20.080,5.368 19.753,4.708 18.968 C 4.215 18.382,3.980 17.596,3.831 16.040 C 3.759 15.279,3.758 8.449,3.831 7.680 C 3.977 6.131,4.226 5.322,4.743 4.720 C 4.940 4.491,5.078 4.237,5.079 4.100 C 5.083 3.556,4.477 3.157,4.008 3.396 C 3.700 3.553,3.211 4.180,2.953 4.749 C 2.380 6.012,2.241 7.404,2.241 11.880 C 2.241 15.102,2.308 16.474,2.521 17.575 C 2.947 19.784,4.183 21.032,6.385 21.476 C 7.404 21.682,8.112 21.722,11.160 21.747 C 15.569 21.784,17.115 21.683,18.395 21.273 C 19.849 20.809,20.847 19.789,21.299 18.308 C 21.683 17.047,21.784 15.411,21.747 11.000 C 21.724 8.232,21.696 7.586,21.558 6.632 C 21.349 5.185,20.963 4.317,20.183 3.537 C 19.295 2.649,18.345 2.286,16.360 2.075 C 16.124 2.050,14.841 2.022,13.434 2.012 L 10.929 1.992 10.914 1.406 C 10.900 0.871,10.890 0.804,10.799 0.641 C 10.646 0.366,10.282 0.205,9.980 0.277 M15.180 8.837 C 15.072 8.887,14.285 9.649,12.760 11.176 L 10.500 13.440 9.720 12.661 C 8.915 11.858,8.780 11.759,8.491 11.761 C 8.318 11.762,8.052 11.873,7.952 11.986 C 7.759 12.202,7.711 12.552,7.837 12.820 C 7.940 13.041,10.006 15.095,10.209 15.179 C 10.398 15.257,10.602 15.257,10.791 15.179 C 10.997 15.094,16.057 10.046,16.163 9.820 C 16.258 9.617,16.259 9.385,16.165 9.180 C 16.077 8.990,15.988 8.904,15.790 8.822 C 15.594 8.740,15.375 8.745,15.180 8.837 " fill="#1C274C" stroke="none" fill-rule="evenodd"></path></svg>