<svg width="24" height="24" viewBox="0 0 24 24" fill="none" xmlns="http://www.w3.org/2000/svg"><path d="M11.785 1.290 C 11.568 1.347,11.344 1.582,11.286 1.814 C 11.194 2.176,11.226 2.230,12.377 3.670 C 12.953 4.390,13.482 5.029,13.553 5.088 C 13.887 5.369,14.417 5.248,14.660 4.836 C 14.731 4.715,14.742 4.613,14.754 3.932 L 14.767 3.165 15.114 3.285 C 15.987 3.589,17.180 4.271,17.897 4.876 C 18.266 5.187,18.897 5.823,19.198 6.187 C 20.022 7.184,20.755 8.706,21.034 10.002 C 21.231 10.916,21.296 12.090,21.198 12.992 C 21.011 14.709,20.301 16.431,19.221 17.780 C 18.916 18.162,18.208 18.872,17.820 19.187 C 16.457 20.290,14.733 21.009,12.992 21.198 C 12.493 21.252,11.507 21.252,11.008 21.198 C 9.268 21.009,7.552 20.294,6.180 19.188 C 5.794 18.876,5.085 18.164,4.778 17.780 C 3.697 16.425,2.989 14.709,2.802 12.992 C 2.704 12.090,2.769 10.916,2.966 10.002 C 3.255 8.659,3.977 7.178,4.848 6.140 C 5.751 5.063,6.648 4.352,7.929 3.696 C 8.401 3.454,8.534 3.367,8.603 3.255 C 8.884 2.801,8.684 2.250,8.192 2.118 C 7.958 2.055,7.834 2.083,7.355 2.309 C 6.201 2.854,4.935 3.794,4.073 4.746 C 2.534 6.446,1.572 8.573,1.317 10.840 C 1.249 11.436,1.260 12.678,1.337 13.293 C 1.757 16.634,3.628 19.502,6.520 21.239 C 8.162 22.224,10.014 22.728,12.000 22.728 C 12.881 22.728,13.540 22.658,14.349 22.481 C 18.018 21.676,21.057 18.910,22.219 15.320 C 22.571 14.234,22.729 13.188,22.727 11.960 C 22.726 11.080,22.670 10.533,22.498 9.716 C 21.632 5.615,18.275 2.296,14.171 1.483 C 13.272 1.305,12.091 1.209,11.785 1.290 M9.724 7.803 C 9.671 7.825,9.018 8.330,8.272 8.926 C 6.814 10.093,6.760 10.149,6.760 10.500 C 6.760 10.916,7.084 11.240,7.500 11.240 C 7.752 11.240,7.885 11.161,8.600 10.586 L 9.220 10.088 9.240 12.894 C 9.258 15.410,9.267 15.712,9.326 15.820 C 9.649 16.402,10.407 16.380,10.684 15.780 C 10.755 15.628,10.758 15.439,10.758 12.000 C 10.758 8.561,10.755 8.372,10.684 8.220 C 10.598 8.034,10.427 7.863,10.267 7.803 C 10.130 7.751,9.855 7.751,9.724 7.803 M13.605 7.839 C 13.178 7.955,12.827 8.166,12.479 8.517 C 12.132 8.865,11.954 9.174,11.839 9.624 C 11.765 9.912,11.760 10.072,11.760 12.000 C 11.760 13.928,11.765 14.088,11.839 14.376 C 11.882 14.546,11.976 14.796,12.048 14.933 C 12.219 15.260,12.740 15.781,13.067 15.952 C 13.555 16.208,14.240 16.306,14.768 16.196 C 15.061 16.135,15.578 15.886,15.832 15.684 C 16.250 15.351,16.580 14.796,16.697 14.230 C 16.789 13.781,16.790 10.226,16.698 9.768 C 16.518 8.882,15.902 8.190,15.011 7.875 C 14.663 7.751,13.991 7.734,13.605 7.839 M14.734 9.392 C 14.842 9.450,14.972 9.553,15.024 9.621 C 15.242 9.908,15.240 9.881,15.240 12.011 L 15.240 13.984 15.136 14.192 C 15.006 14.453,14.802 14.625,14.524 14.706 C 14.060 14.842,13.591 14.632,13.346 14.180 C 13.261 14.022,13.260 13.995,13.260 12.000 C 13.260 9.756,13.247 9.872,13.534 9.567 C 13.852 9.229,14.312 9.162,14.734 9.392 " fill="#1C274C" stroke="none" fill-rule="evenodd"></path></svg>