<svg width="24" height="24" viewBox="0 0 24 24" fill="none" xmlns="http://www.w3.org/2000/svg"><path d="M11.785 1.290 C 11.568 1.347,11.344 1.582,11.286 1.814 C 11.194 2.176,11.226 2.230,12.377 3.670 C 12.953 4.390,13.482 5.029,13.553 5.088 C 13.887 5.369,14.417 5.248,14.660 4.836 C 14.731 4.715,14.742 4.613,14.754 3.932 L 14.767 3.165 15.114 3.285 C 15.987 3.589,17.180 4.271,17.897 4.876 C 18.266 5.187,18.897 5.823,19.198 6.187 C 20.022 7.184,20.755 8.706,21.034 10.002 C 21.231 10.916,21.296 12.090,21.198 12.992 C 21.011 14.709,20.301 16.431,19.221 17.780 C 18.916 18.162,18.208 18.872,17.820 19.187 C 16.457 20.290,14.733 21.009,12.992 21.198 C 12.493 21.252,11.507 21.252,11.008 21.198 C 9.268 21.009,7.552 20.294,6.180 19.188 C 5.794 18.876,5.085 18.164,4.778 17.780 C 3.697 16.425,2.989 14.709,2.802 12.992 C 2.704 12.090,2.769 10.916,2.966 10.002 C 3.255 8.659,3.977 7.178,4.848 6.140 C 5.751 5.063,6.648 4.352,7.929 3.696 C 8.401 3.454,8.534 3.367,8.603 3.255 C 8.884 2.801,8.684 2.250,8.192 2.118 C 7.958 2.055,7.834 2.083,7.355 2.309 C 6.201 2.854,4.935 3.794,4.073 4.746 C 2.534 6.446,1.572 8.573,1.317 10.840 C 1.249 11.436,1.260 12.678,1.337 13.293 C 1.757 16.634,3.628 19.502,6.520 21.239 C 8.162 22.224,10.014 22.728,12.000 22.728 C 12.881 22.728,13.540 22.658,14.349 22.481 C 18.018 21.676,21.057 18.910,22.219 15.320 C 22.571 14.234,22.729 13.188,22.727 11.960 C 22.726 11.080,22.670 10.533,22.498 9.716 C 21.632 5.615,18.275 2.296,14.171 1.483 C 13.272 1.305,12.091 1.209,11.785 1.290 M10.972 7.818 C 10.759 7.884,10.510 8.067,10.359 8.266 C 10.277 8.374,10.120 8.784,9.836 9.638 C 9.466 10.749,9.432 10.876,9.451 11.080 C 9.480 11.403,9.616 11.687,9.845 11.901 C 10.172 12.207,10.209 12.215,11.320 12.239 C 12.291 12.260,12.302 12.261,12.526 12.371 C 12.775 12.493,12.987 12.704,13.128 12.968 C 13.260 13.217,13.260 13.783,13.128 14.032 C 12.987 14.296,12.775 14.507,12.526 14.629 L 12.300 14.740 11.020 14.760 C 10.153 14.774,9.714 14.795,9.660 14.827 C 9.440 14.955,9.239 15.281,9.241 15.509 C 9.243 15.791,9.547 16.171,9.809 16.221 C 9.881 16.234,10.525 16.239,11.240 16.231 C 12.535 16.218,12.541 16.217,12.869 16.108 C 13.711 15.825,14.370 15.132,14.645 14.240 C 14.776 13.816,14.776 13.184,14.645 12.760 C 14.383 11.910,13.792 11.259,13.000 10.949 C 12.620 10.799,12.338 10.760,11.653 10.760 C 11.316 10.760,11.041 10.747,11.043 10.730 C 11.044 10.713,11.157 10.376,11.293 9.980 L 11.540 9.260 12.900 9.240 C 13.828 9.226,14.285 9.205,14.340 9.173 C 14.560 9.045,14.761 8.719,14.759 8.491 C 14.757 8.239,14.512 7.895,14.267 7.803 C 14.093 7.737,11.188 7.750,10.972 7.818 " fill="#1C274C" stroke="none" fill-rule="evenodd"></path></svg>