<svg width="24" height="24" viewBox="0 0 24 24" fill="none" xmlns="http://www.w3.org/2000/svg"><path d="M11.560 1.267 C 7.078 1.463,3.196 4.394,1.799 8.636 C 1.429 9.761,1.274 10.735,1.273 11.960 C 1.271 13.228,1.426 14.233,1.798 15.360 C 2.980 18.946,5.993 21.678,9.651 22.481 C 10.460 22.658,11.119 22.728,12.000 22.728 C 13.986 22.728,15.838 22.224,17.480 21.239 C 20.372 19.502,22.244 16.635,22.662 13.300 C 22.740 12.678,22.751 11.439,22.683 10.840 C 22.306 7.492,20.421 4.545,17.537 2.795 C 17.003 2.471,16.295 2.124,16.103 2.093 C 15.919 2.063,15.659 2.146,15.499 2.286 C 15.326 2.439,15.225 2.746,15.276 2.968 C 15.351 3.289,15.443 3.374,16.071 3.696 C 17.165 4.256,17.842 4.756,18.680 5.624 C 19.403 6.372,19.874 7.049,20.342 8.010 C 20.933 9.224,21.240 10.577,21.240 11.964 C 21.240 13.460,20.945 14.753,20.304 16.060 C 19.838 17.012,19.332 17.722,18.569 18.494 C 17.790 19.282,17.034 19.827,16.060 20.304 C 14.765 20.939,13.457 21.240,12.000 21.240 C 10.543 21.240,9.235 20.939,7.940 20.304 C 6.966 19.827,6.203 19.277,5.431 18.495 C 4.669 17.724,4.162 17.011,3.696 16.060 C 2.779 14.189,2.522 12.057,2.966 10.002 C 3.245 8.706,3.977 7.185,4.802 6.187 C 5.106 5.819,5.733 5.187,6.101 4.877 C 6.823 4.269,8.013 3.589,8.886 3.285 L 9.233 3.165 9.247 3.932 C 9.263 4.765,9.278 4.831,9.506 5.047 C 9.712 5.242,10.030 5.297,10.291 5.185 C 10.471 5.107,10.581 4.982,11.690 3.590 C 12.769 2.236,12.805 2.173,12.714 1.814 C 12.630 1.481,12.259 1.219,11.912 1.248 C 11.862 1.252,11.703 1.261,11.560 1.267 M9.724 7.803 C 9.671 7.825,9.018 8.330,8.272 8.926 C 6.814 10.093,6.760 10.149,6.760 10.500 C 6.760 10.916,7.084 11.240,7.500 11.240 C 7.752 11.240,7.885 11.161,8.600 10.586 L 9.220 10.088 9.240 12.894 C 9.258 15.410,9.267 15.712,9.326 15.820 C 9.649 16.402,10.407 16.380,10.684 15.780 C 10.755 15.628,10.758 15.439,10.758 12.000 C 10.758 8.561,10.755 8.372,10.684 8.220 C 10.598 8.034,10.427 7.863,10.267 7.803 C 10.130 7.751,9.855 7.751,9.724 7.803 M13.495 7.804 C 13.303 7.859,12.997 8.081,12.857 8.266 C 12.764 8.389,12.628 8.740,12.343 9.596 C 12.011 10.592,11.955 10.797,11.955 11.021 C 11.955 11.486,12.215 11.903,12.633 12.108 C 12.858 12.219,12.870 12.220,13.820 12.241 C 14.747 12.261,14.788 12.266,15.003 12.366 C 15.768 12.721,15.974 13.646,15.439 14.322 C 15.362 14.418,15.214 14.527,15.049 14.609 L 14.782 14.740 13.521 14.760 C 12.184 14.781,12.127 14.789,11.955 14.986 C 11.689 15.289,11.704 15.792,11.987 16.048 C 12.185 16.227,12.293 16.240,13.609 16.239 C 15.024 16.239,15.170 16.219,15.700 15.961 C 16.268 15.684,16.684 15.268,16.961 14.700 C 17.160 14.291,17.239 13.952,17.239 13.496 C 17.241 12.441,16.652 11.503,15.695 11.036 C 15.244 10.817,14.942 10.762,14.190 10.761 C 13.843 10.760,13.560 10.747,13.560 10.730 C 13.560 10.714,13.669 10.372,13.803 9.970 L 14.047 9.240 15.345 9.240 C 16.710 9.240,16.812 9.228,17.014 9.048 C 17.130 8.946,17.238 8.680,17.238 8.500 C 17.238 8.320,17.130 8.054,17.014 7.952 C 16.807 7.768,16.728 7.760,15.131 7.764 C 14.300 7.766,13.564 7.784,13.495 7.804 " fill="#1C274C" stroke="none" fill-rule="evenodd"></path></svg>