<svg width="24" height="24" viewBox="0 0 24 24" fill="none" xmlns="http://www.w3.org/2000/svg"><path d="M11.120 2.039 C 9.316 2.220,7.707 2.807,6.280 3.806 C 2.738 6.286,1.178 10.759,2.422 14.865 C 2.918 16.499,3.728 17.850,4.939 19.061 C 5.928 20.050,7.038 20.788,8.272 21.278 C 11.634 22.610,15.313 22.080,18.200 19.845 C 18.637 19.507,19.507 18.637,19.845 18.200 C 21.255 16.379,22.000 14.234,22.000 12.000 C 22.000 7.432,18.842 3.387,14.430 2.303 C 13.446 2.062,12.028 1.948,11.120 2.039 M13.260 7.378 C 13.502 7.479,16.847 9.896,17.062 10.125 C 17.326 10.407,17.528 10.746,17.666 11.140 C 17.766 11.429,17.777 11.512,17.777 12.000 C 17.777 12.487,17.766 12.571,17.666 12.860 C 17.521 13.277,17.262 13.689,16.972 13.964 C 16.716 14.207,13.604 16.446,13.323 16.590 C 13.116 16.695,12.935 16.704,12.729 16.618 C 12.427 16.492,12.269 16.258,12.269 15.941 C 12.269 15.529,12.261 15.536,14.156 14.183 C 15.102 13.507,15.934 12.889,16.004 12.809 C 16.213 12.571,16.296 12.341,16.296 12.000 C 16.296 11.668,16.216 11.439,16.021 11.208 C 15.960 11.135,15.129 10.518,14.175 9.836 C 12.669 8.760,12.429 8.574,12.354 8.429 C 12.252 8.228,12.241 7.911,12.330 7.739 C 12.509 7.397,12.922 7.236,13.260 7.378 M8.840 7.934 C 8.917 7.962,10.087 8.724,11.441 9.627 C 13.328 10.886,13.927 11.306,14.009 11.425 C 14.246 11.766,14.245 12.235,14.008 12.577 C 13.925 12.698,13.333 13.111,11.393 14.404 C 9.724 15.516,8.837 16.084,8.741 16.102 C 8.300 16.185,7.878 16.013,7.661 15.662 L 7.540 15.466 7.529 12.045 L 7.519 8.624 7.620 8.416 C 7.724 8.203,7.899 8.040,8.130 7.940 C 8.291 7.870,8.653 7.867,8.840 7.934 " fill="#1C274C" stroke="none" fill-rule="evenodd"></path></svg>