<svg width="24" height="24" viewBox="0 0 24 24" fill="none" xmlns="http://www.w3.org/2000/svg"><path d="M11.120 2.039 C 9.316 2.220,7.707 2.807,6.280 3.806 C 2.738 6.286,1.178 10.759,2.422 14.865 C 2.918 16.499,3.728 17.850,4.939 19.061 C 5.928 20.050,7.038 20.788,8.272 21.278 C 11.634 22.610,15.313 22.080,18.200 19.845 C 18.637 19.507,19.507 18.637,19.845 18.200 C 21.255 16.379,22.000 14.234,22.000 12.000 C 22.000 7.432,18.842 3.387,14.430 2.303 C 13.446 2.062,12.028 1.948,11.120 2.039 M11.271 7.382 C 11.574 7.509,11.731 7.742,11.731 8.063 C 11.731 8.468,11.723 8.476,9.833 9.825 C 8.893 10.496,8.066 11.111,7.996 11.191 C 7.787 11.429,7.704 11.659,7.704 12.000 C 7.704 12.341,7.787 12.571,7.995 12.808 C 8.065 12.888,8.896 13.506,9.843 14.183 C 11.740 15.538,11.731 15.530,11.731 15.941 C 11.731 16.258,11.573 16.492,11.271 16.618 C 11.065 16.704,10.884 16.695,10.677 16.590 C 10.415 16.456,7.295 14.217,7.044 13.982 C 6.740 13.698,6.474 13.274,6.336 12.854 C 6.233 12.540,6.220 12.444,6.220 12.000 C 6.220 11.557,6.233 11.460,6.335 11.148 C 6.465 10.752,6.678 10.393,6.954 10.106 C 7.151 9.901,10.511 7.475,10.731 7.379 C 10.902 7.305,11.089 7.306,11.271 7.382 M15.861 7.938 C 16.095 8.036,16.271 8.197,16.378 8.411 L 16.480 8.616 16.480 12.000 L 16.480 15.384 16.378 15.589 C 16.271 15.803,16.095 15.964,15.861 16.062 C 15.686 16.135,15.318 16.137,15.146 16.065 C 15.074 16.035,13.909 15.273,12.557 14.372 C 10.662 13.108,10.075 12.697,9.991 12.576 C 9.755 12.235,9.754 11.766,9.991 11.425 C 10.073 11.306,10.672 10.886,12.559 9.627 C 13.913 8.724,15.083 7.962,15.160 7.934 C 15.350 7.865,15.692 7.867,15.861 7.938 " fill="#1C274C" stroke="none" fill-rule="evenodd"></path></svg>