<svg width="24" height="24" viewBox="0 0 24 24" fill="none" xmlns="http://www.w3.org/2000/svg"><path d="M18.424 5.064 C 18.250 5.096,18.007 5.150,17.884 5.185 C 17.021 5.431,14.181 6.731,12.882 7.476 C 12.609 7.632,12.381 7.760,12.376 7.760 C 12.371 7.760,12.327 7.639,12.278 7.490 C 12.015 6.683,11.459 6.121,10.765 5.960 C 10.429 5.881,9.848 5.927,9.440 6.063 C 8.821 6.271,7.086 7.167,6.013 7.833 C 5.392 8.219,3.963 9.231,3.403 9.681 C 2.702 10.245,2.309 10.735,2.111 11.293 C 1.985 11.647,1.985 12.353,2.111 12.707 C 2.395 13.505,2.994 14.089,4.903 15.426 C 5.278 15.689,5.773 16.022,6.003 16.166 C 7.020 16.803,8.792 17.721,9.385 17.918 C 10.344 18.237,11.101 18.101,11.696 17.505 C 11.961 17.239,12.140 16.932,12.278 16.510 C 12.327 16.361,12.379 16.246,12.393 16.255 C 14.145 17.270,16.956 18.564,18.060 18.864 C 18.398 18.956,18.543 18.973,19.000 18.975 C 19.488 18.978,19.568 18.968,19.833 18.872 C 20.225 18.730,20.522 18.546,20.791 18.280 C 21.539 17.539,21.756 16.606,21.964 13.260 C 22.055 11.782,21.922 9.215,21.676 7.726 C 21.539 6.896,21.311 6.315,20.960 5.900 C 20.347 5.175,19.450 4.879,18.424 5.064 " fill="#1C274C" stroke="none" fill-rule="evenodd"></path></svg>