<svg width="24" height="24" viewBox="0 0 24 24" fill="none" xmlns="http://www.w3.org/2000/svg"><path d="M4.420 5.066 C 3.485 5.266,2.785 5.958,2.487 6.980 C 2.154 8.118,1.920 11.382,2.036 13.260 C 2.244 16.611,2.460 17.537,3.209 18.280 C 3.478 18.546,3.775 18.730,4.167 18.872 C 4.432 18.968,4.512 18.978,5.000 18.975 C 5.638 18.972,6.007 18.887,6.880 18.542 C 8.020 18.092,10.196 17.060,11.082 16.550 C 11.290 16.430,11.499 16.312,11.547 16.286 C 11.629 16.243,11.638 16.255,11.722 16.510 C 11.860 16.932,12.039 17.239,12.304 17.505 C 12.899 18.102,13.658 18.237,14.615 17.917 C 15.211 17.718,16.988 16.798,17.997 16.166 C 18.227 16.022,18.722 15.689,19.097 15.426 C 21.006 14.089,21.605 13.505,21.889 12.707 C 22.015 12.353,22.015 11.647,21.889 11.293 C 21.694 10.744,21.308 10.258,20.629 9.707 C 20.109 9.284,18.598 8.213,17.980 7.829 C 16.914 7.167,15.177 6.270,14.560 6.063 C 14.152 5.927,13.571 5.881,13.235 5.960 C 12.541 6.121,11.985 6.683,11.722 7.490 C 11.673 7.639,11.629 7.760,11.624 7.760 C 11.619 7.760,11.391 7.632,11.118 7.476 C 9.821 6.733,6.977 5.430,6.120 5.186 C 5.480 5.004,4.902 4.963,4.420 5.066 " fill="#1C274C" stroke="none" fill-rule="evenodd"></path></svg>