<svg width="24" height="24" viewBox="0 0 24 24" fill="none" xmlns="http://www.w3.org/2000/svg"><path d="M11.560 1.267 C 7.078 1.463,3.196 4.394,1.799 8.636 C 1.429 9.761,1.274 10.735,1.273 11.960 C 1.271 13.228,1.426 14.233,1.798 15.360 C 2.980 18.946,5.993 21.678,9.651 22.481 C 10.460 22.658,11.119 22.728,12.000 22.728 C 13.986 22.728,15.838 22.224,17.480 21.239 C 20.372 19.502,22.244 16.635,22.662 13.300 C 22.740 12.678,22.751 11.439,22.683 10.840 C 22.306 7.492,20.421 4.545,17.537 2.795 C 17.003 2.471,16.295 2.124,16.103 2.093 C 15.919 2.063,15.659 2.146,15.499 2.286 C 15.326 2.439,15.225 2.746,15.276 2.968 C 15.351 3.289,15.443 3.374,16.071 3.696 C 17.165 4.256,17.842 4.756,18.680 5.624 C 19.403 6.372,19.874 7.049,20.342 8.010 C 20.933 9.224,21.240 10.577,21.240 11.964 C 21.240 13.460,20.945 14.753,20.304 16.060 C 19.838 17.012,19.332 17.722,18.569 18.494 C 17.790 19.282,17.034 19.827,16.060 20.304 C 14.765 20.939,13.457 21.240,12.000 21.240 C 10.543 21.240,9.235 20.939,7.940 20.304 C 6.966 19.827,6.203 19.277,5.431 18.495 C 4.669 17.724,4.162 17.011,3.696 16.060 C 2.779 14.189,2.522 12.057,2.966 10.002 C 3.245 8.706,3.977 7.185,4.802 6.187 C 5.106 5.819,5.733 5.187,6.101 4.877 C 6.823 4.269,8.013 3.589,8.886 3.285 L 9.233 3.165 9.247 3.932 C 9.263 4.765,9.278 4.831,9.506 5.047 C 9.712 5.242,10.030 5.297,10.291 5.185 C 10.471 5.107,10.581 4.982,11.690 3.590 C 12.769 2.236,12.805 2.173,12.714 1.814 C 12.630 1.481,12.259 1.219,11.912 1.248 C 11.862 1.252,11.703 1.261,11.560 1.267 M10.972 7.818 C 10.759 7.884,10.510 8.067,10.359 8.266 C 10.277 8.374,10.120 8.784,9.836 9.638 C 9.466 10.749,9.432 10.876,9.451 11.080 C 9.480 11.403,9.616 11.687,9.845 11.901 C 10.172 12.207,10.209 12.215,11.320 12.239 C 12.291 12.260,12.302 12.261,12.526 12.371 C 12.775 12.493,12.987 12.704,13.128 12.968 C 13.260 13.217,13.260 13.783,13.128 14.032 C 12.987 14.296,12.775 14.507,12.526 14.629 L 12.300 14.740 11.020 14.760 C 10.153 14.774,9.714 14.795,9.660 14.827 C 9.440 14.955,9.239 15.281,9.241 15.509 C 9.243 15.791,9.547 16.171,9.809 16.221 C 9.881 16.234,10.525 16.239,11.240 16.231 C 12.535 16.218,12.541 16.217,12.869 16.108 C 13.711 15.825,14.370 15.132,14.645 14.240 C 14.776 13.816,14.776 13.184,14.645 12.760 C 14.383 11.910,13.792 11.259,13.000 10.949 C 12.620 10.799,12.338 10.760,11.653 10.760 C 11.316 10.760,11.041 10.747,11.043 10.730 C 11.044 10.713,11.157 10.376,11.293 9.980 L 11.540 9.260 12.900 9.240 C 13.828 9.226,14.285 9.205,14.340 9.173 C 14.560 9.045,14.761 8.719,14.759 8.491 C 14.757 8.239,14.512 7.895,14.267 7.803 C 14.093 7.737,11.188 7.750,10.972 7.818 " fill="#1C274C" stroke="none" fill-rule="evenodd"></path></svg>