<svg width="24" height="24" viewBox="0 0 24 24" fill="none" xmlns="http://www.w3.org/2000/svg"><path d="M11.785 1.290 C 11.568 1.347,11.344 1.582,11.286 1.814 C 11.194 2.176,11.226 2.230,12.377 3.670 C 12.953 4.390,13.482 5.029,13.553 5.088 C 13.887 5.369,14.417 5.248,14.660 4.836 C 14.731 4.715,14.742 4.613,14.754 3.932 L 14.767 3.165 15.114 3.285 C 15.987 3.589,17.180 4.271,17.897 4.876 C 18.266 5.187,18.897 5.823,19.198 6.187 C 20.022 7.184,20.755 8.706,21.034 10.002 C 21.231 10.916,21.296 12.090,21.198 12.992 C 21.011 14.709,20.301 16.431,19.221 17.780 C 18.916 18.162,18.208 18.872,17.820 19.187 C 16.457 20.290,14.733 21.009,12.992 21.198 C 12.493 21.252,11.507 21.252,11.008 21.198 C 9.268 21.009,7.552 20.294,6.180 19.188 C 5.794 18.876,5.085 18.164,4.778 17.780 C 3.697 16.425,2.989 14.709,2.802 12.992 C 2.704 12.090,2.769 10.916,2.966 10.002 C 3.255 8.659,3.977 7.178,4.848 6.140 C 5.751 5.063,6.648 4.352,7.929 3.696 C 8.401 3.454,8.534 3.367,8.603 3.255 C 8.884 2.801,8.684 2.250,8.192 2.118 C 7.958 2.055,7.834 2.083,7.355 2.309 C 6.201 2.854,4.935 3.794,4.073 4.746 C 2.534 6.446,1.572 8.573,1.317 10.840 C 1.249 11.436,1.260 12.678,1.337 13.293 C 1.757 16.634,3.628 19.502,6.520 21.239 C 8.162 22.224,10.014 22.728,12.000 22.728 C 12.881 22.728,13.540 22.658,14.349 22.481 C 18.018 21.676,21.057 18.910,22.219 15.320 C 22.571 14.234,22.729 13.188,22.727 11.960 C 22.726 11.080,22.670 10.533,22.498 9.716 C 21.632 5.615,18.275 2.296,14.171 1.483 C 13.272 1.305,12.091 1.209,11.785 1.290 M9.724 7.803 C 9.671 7.825,9.018 8.330,8.272 8.926 C 6.814 10.093,6.760 10.149,6.760 10.500 C 6.760 10.916,7.084 11.240,7.500 11.240 C 7.752 11.240,7.885 11.161,8.600 10.586 L 9.220 10.088 9.240 12.894 C 9.258 15.410,9.267 15.712,9.326 15.820 C 9.649 16.402,10.407 16.380,10.684 15.780 C 10.755 15.628,10.758 15.439,10.758 12.000 C 10.758 8.561,10.755 8.372,10.684 8.220 C 10.598 8.034,10.427 7.863,10.267 7.803 C 10.130 7.751,9.855 7.751,9.724 7.803 M13.495 7.804 C 13.303 7.859,12.997 8.081,12.857 8.266 C 12.764 8.389,12.628 8.740,12.343 9.596 C 12.011 10.592,11.955 10.797,11.955 11.021 C 11.955 11.486,12.215 11.903,12.633 12.108 C 12.858 12.219,12.870 12.220,13.820 12.241 C 14.747 12.261,14.788 12.266,15.003 12.366 C 15.768 12.721,15.974 13.646,15.439 14.322 C 15.362 14.418,15.214 14.527,15.049 14.609 L 14.782 14.740 13.521 14.760 C 12.184 14.781,12.127 14.789,11.955 14.986 C 11.689 15.289,11.704 15.792,11.987 16.048 C 12.185 16.227,12.293 16.240,13.609 16.239 C 15.024 16.239,15.170 16.219,15.700 15.961 C 16.268 15.684,16.684 15.268,16.961 14.700 C 17.160 14.291,17.239 13.952,17.239 13.496 C 17.241 12.441,16.652 11.503,15.695 11.036 C 15.244 10.817,14.942 10.762,14.190 10.761 C 13.843 10.760,13.560 10.747,13.560 10.730 C 13.560 10.714,13.669 10.372,13.803 9.970 L 14.047 9.240 15.345 9.240 C 16.710 9.240,16.812 9.228,17.014 9.048 C 17.130 8.946,17.238 8.680,17.238 8.500 C 17.238 8.320,17.130 8.054,17.014 7.952 C 16.807 7.768,16.728 7.760,15.131 7.764 C 14.300 7.766,13.564 7.784,13.495 7.804 " fill="#1C274C" stroke="none" fill-rule="evenodd"></path></svg>