<svg width="24" height="24" viewBox="0 0 24 24" fill="none" xmlns="http://www.w3.org/2000/svg"><path d="M16.049 2.041 C 15.491 2.098,15.084 2.249,14.660 2.554 C 14.413 2.732,7.374 9.696,6.690 10.440 C 5.858 11.344,5.601 11.827,5.653 12.387 C 5.706 12.946,6.037 13.436,7.065 14.477 L 7.760 15.180 8.830 14.090 C 9.926 12.974,10.043 12.879,10.329 12.881 C 10.493 12.882,10.752 12.999,10.868 13.125 C 10.983 13.250,11.080 13.486,11.080 13.640 C 11.080 13.898,10.959 14.052,9.890 15.150 L 8.821 16.250 9.487 16.900 C 10.199 17.594,10.693 17.994,11.027 18.148 C 11.473 18.353,11.928 18.353,12.376 18.147 C 12.845 17.931,13.271 17.532,16.959 13.862 C 18.994 11.837,20.824 10.004,21.026 9.790 C 21.437 9.352,21.655 9.046,21.786 8.720 C 21.965 8.276,21.980 8.060,21.979 5.980 C 21.978 3.752,21.954 3.495,21.700 2.975 C 21.536 2.639,21.329 2.437,20.985 2.277 C 20.520 2.060,20.244 2.035,18.220 2.020 C 17.208 2.012,16.231 2.022,16.049 2.041 M6.096 5.081 C 5.722 5.148,5.263 5.317,5.030 5.472 C 4.604 5.757,3.967 6.318,3.055 7.211 C 2.137 8.110,2.003 8.280,2.001 8.540 C 1.999 8.913,2.206 9.168,2.651 9.340 C 3.374 9.621,3.970 9.977,4.406 10.391 L 4.633 10.605 4.763 10.413 C 5.062 9.971,5.547 9.448,7.238 7.747 C 8.645 6.332,9.007 5.947,8.960 5.917 C 8.454 5.602,7.820 5.271,7.555 5.182 C 7.282 5.091,7.134 5.068,6.760 5.057 C 6.507 5.050,6.208 5.061,6.096 5.081 M16.363 6.304 C 17.180 6.544,17.759 7.313,17.759 8.160 C 17.759 9.231,16.899 10.086,15.820 10.086 C 14.406 10.086,13.477 8.651,14.054 7.360 C 14.193 7.049,14.538 6.663,14.832 6.491 C 15.247 6.247,15.899 6.168,16.363 6.304 M16.120 16.814 C 14.501 18.426,13.781 19.090,13.448 19.276 C 13.398 19.304,13.434 19.363,13.643 19.597 C 14.005 19.999,14.315 20.510,14.559 21.107 C 14.674 21.389,14.811 21.677,14.864 21.746 C 14.994 21.920,15.261 22.017,15.508 21.983 C 15.696 21.956,15.724 21.931,16.741 20.908 C 18.626 19.010,18.927 18.517,18.934 17.320 C 18.938 16.717,18.863 16.430,18.544 15.820 C 18.311 15.374,18.053 14.960,18.009 14.961 C 17.993 14.961,17.143 15.795,16.120 16.814 " fill="#1C274C" stroke="none" fill-rule="evenodd"></path></svg>