<svg width="24" height="24" viewBox="0 0 24 24" fill="none" xmlns="http://www.w3.org/2000/svg"><path d="M16.832 2.039 C 16.685 2.058,16.469 2.101,16.352 2.135 C 15.845 2.284,15.795 2.329,12.441 5.646 C 8.547 9.498,8.277 9.785,8.042 10.320 C 7.891 10.662,7.901 11.063,8.069 11.402 C 8.240 11.748,8.607 12.194,9.231 12.814 L 9.749 13.328 10.657 12.407 C 11.157 11.901,11.626 11.458,11.699 11.423 C 11.772 11.388,11.884 11.360,11.948 11.360 C 12.103 11.360,12.397 11.515,12.493 11.647 C 12.604 11.799,12.627 12.112,12.540 12.283 C 12.502 12.359,12.063 12.830,11.565 13.332 L 10.660 14.244 11.240 14.813 C 12.089 15.646,12.456 15.908,12.908 16.002 C 13.314 16.086,13.708 15.956,14.212 15.573 C 14.445 15.396,18.286 11.616,20.422 9.462 C 21.730 8.143,21.878 7.911,21.965 7.049 C 22.019 6.512,21.988 3.765,21.923 3.409 C 21.818 2.829,21.564 2.444,21.155 2.247 C 20.767 2.060,20.494 2.034,18.740 2.020 C 17.838 2.012,16.980 2.021,16.832 2.039 M8.440 4.642 C 8.105 4.683,7.713 4.808,7.460 4.956 C 7.350 5.020,7.080 5.222,6.861 5.406 C 6.279 5.893,4.917 7.238,4.854 7.389 C 4.778 7.569,4.787 7.757,4.878 7.937 C 4.975 8.126,5.059 8.187,5.439 8.344 C 6.055 8.597,6.465 8.844,6.843 9.192 L 7.055 9.387 7.293 9.063 C 7.434 8.871,8.204 8.064,9.190 7.074 L 10.849 5.408 10.439 5.165 C 9.898 4.846,9.528 4.696,9.147 4.643 C 8.807 4.596,8.818 4.596,8.440 4.642 M17.369 5.789 C 18.057 6.111,18.452 6.836,18.330 7.549 C 18.233 8.117,17.892 8.565,17.369 8.813 C 17.120 8.931,17.069 8.940,16.680 8.940 C 16.290 8.940,16.240 8.931,15.989 8.812 C 14.932 8.311,14.684 6.952,15.501 6.134 C 15.862 5.773,16.214 5.636,16.740 5.652 C 17.046 5.661,17.140 5.682,17.369 5.789 M1.876 12.360 C 1.687 12.459,1.341 12.840,1.218 13.085 C 0.829 13.851,0.973 14.698,1.591 15.288 C 1.847 15.532,2.028 15.638,2.357 15.736 C 2.797 15.866,3.427 15.786,3.806 15.551 C 3.886 15.501,4.403 15.019,4.954 14.480 C 6.181 13.279,6.252 13.161,6.021 12.698 C 5.887 12.427,5.658 12.280,5.375 12.280 C 5.259 12.280,5.115 12.299,5.053 12.323 C 4.991 12.346,4.507 12.796,3.977 13.323 C 3.066 14.229,3.007 14.280,2.866 14.280 C 2.760 14.280,2.687 14.251,2.618 14.182 C 2.462 14.026,2.488 13.884,2.720 13.613 C 3.021 13.263,3.072 12.931,2.875 12.611 C 2.687 12.308,2.205 12.186,1.876 12.360 M16.960 14.734 C 15.986 15.700,15.194 16.452,14.973 16.619 L 14.606 16.896 14.797 17.118 C 15.179 17.562,15.442 18.010,15.680 18.620 C 15.804 18.938,15.891 19.057,16.055 19.135 C 16.430 19.313,16.589 19.212,17.607 18.146 C 18.898 16.794,19.155 16.443,19.298 15.836 C 19.377 15.502,19.377 14.844,19.299 14.538 C 19.228 14.265,18.996 13.782,18.749 13.394 L 18.579 13.127 16.960 14.734 M6.820 13.354 C 6.718 13.403,6.235 13.859,5.494 14.605 C 4.284 15.824,4.239 15.882,4.241 16.200 C 4.243 16.442,4.493 16.787,4.733 16.877 C 4.906 16.943,5.158 16.928,5.337 16.841 C 5.440 16.791,5.915 16.346,6.628 15.631 C 7.784 14.472,7.917 14.305,7.919 14.018 C 7.920 13.845,7.765 13.564,7.589 13.425 C 7.393 13.269,7.062 13.238,6.820 13.354 M9.641 16.141 C 9.491 16.209,7.387 18.278,7.213 18.530 C 7.090 18.708,7.049 19.003,7.117 19.212 C 7.189 19.430,7.472 19.668,7.700 19.702 C 8.087 19.760,8.109 19.744,9.410 18.447 C 10.707 17.155,10.755 17.092,10.706 16.737 C 10.677 16.526,10.575 16.366,10.373 16.212 C 10.198 16.078,9.855 16.045,9.641 16.141 M6.450 16.540 C 6.270 16.618,4.482 18.360,4.370 18.567 C 4.193 18.892,4.295 19.328,4.595 19.537 C 4.792 19.673,5.087 19.711,5.290 19.627 C 5.451 19.559,7.270 17.828,7.401 17.618 C 7.506 17.449,7.539 17.199,7.480 17.021 C 7.418 16.831,7.217 16.603,7.052 16.534 C 6.886 16.465,6.616 16.467,6.450 16.540 M10.580 17.996 C 10.370 18.128,8.453 20.091,8.369 20.260 C 8.092 20.815,8.092 21.473,8.369 22.018 C 8.483 22.241,8.857 22.621,9.097 22.758 C 9.499 22.987,10.009 23.056,10.452 22.940 C 10.813 22.846,11.078 22.690,11.363 22.404 C 11.571 22.195,11.636 22.100,11.674 21.950 C 11.822 21.356,11.223 20.827,10.676 21.069 C 10.579 21.112,10.413 21.222,10.308 21.313 C 10.079 21.511,9.927 21.531,9.778 21.382 C 9.709 21.312,9.680 21.240,9.680 21.134 C 9.680 20.991,9.729 20.935,10.642 20.019 C 11.485 19.173,11.611 19.031,11.660 18.865 C 11.767 18.510,11.602 18.144,11.253 17.965 C 11.110 17.891,10.717 17.909,10.580 17.996 " fill="#1C274C" stroke="none" fill-rule="evenodd"></path></svg>