<svg width="24" height="24" viewBox="0 0 24 24" fill="none" xmlns="http://www.w3.org/2000/svg"><path d="M19.200 2.043 C 18.829 2.115,18.379 2.342,18.106 2.594 C 18.016 2.677,16.820 4.312,16.708 4.504 C 16.674 4.563,19.437 7.326,19.495 7.292 C 19.730 7.155,21.334 5.974,21.424 5.872 C 22.035 5.174,22.161 4.218,21.750 3.392 C 21.574 3.037,20.954 2.420,20.600 2.247 C 20.163 2.033,19.645 1.958,19.200 2.043 M13.600 4.843 C 13.317 4.898,12.812 5.173,12.420 5.487 C 11.969 5.847,5.866 11.945,5.521 12.380 C 4.980 13.062,4.828 13.397,4.823 13.920 C 4.816 14.710,5.171 15.206,7.127 17.142 C 7.706 17.715,8.297 18.284,8.440 18.406 C 9.625 19.419,10.406 19.446,11.580 18.512 C 12.045 18.142,18.135 12.054,18.513 11.580 C 19.389 10.485,19.409 9.739,18.593 8.673 C 18.209 8.171,15.770 5.737,15.300 5.386 C 14.633 4.889,14.155 4.736,13.600 4.843 M3.656 17.304 C 2.662 18.012,2.578 18.085,2.362 18.419 C 1.938 19.075,1.896 19.895,2.250 20.608 C 2.426 20.963,3.046 21.580,3.400 21.753 C 4.229 22.159,5.232 22.019,5.894 21.406 C 5.984 21.323,7.180 19.688,7.292 19.496 C 7.306 19.471,6.715 18.849,5.932 18.066 C 5.170 17.304,4.543 16.680,4.539 16.680 C 4.535 16.680,4.138 16.961,3.656 17.304 " fill="#1C274C" stroke="none" fill-rule="evenodd"></path></svg>