<svg width="24" height="24" viewBox="0 0 24 24" fill="none" xmlns="http://www.w3.org/2000/svg"><path d="M11.120 2.039 C 9.316 2.220,7.707 2.807,6.280 3.806 C 2.738 6.286,1.178 10.759,2.422 14.865 C 2.918 16.499,3.728 17.850,4.939 19.061 C 5.928 20.050,7.038 20.788,8.272 21.278 C 11.634 22.610,15.313 22.080,18.200 19.845 C 18.637 19.507,19.507 18.637,19.845 18.200 C 21.255 16.379,22.000 14.234,22.000 12.000 C 22.000 7.432,18.842 3.387,14.430 2.303 C 13.446 2.062,12.028 1.948,11.120 2.039 M13.840 8.342 C 13.977 8.412,14.146 8.597,14.197 8.733 C 14.258 8.893,14.250 9.139,14.178 9.310 C 14.137 9.408,13.686 9.890,12.850 10.729 L 11.583 12.000 12.850 13.271 C 13.686 14.110,14.137 14.592,14.178 14.690 C 14.309 15.002,14.235 15.331,13.987 15.549 C 13.703 15.798,13.397 15.815,13.076 15.601 C 12.788 15.410,9.894 12.483,9.822 12.311 C 9.788 12.229,9.760 12.089,9.760 12.000 C 9.760 11.911,9.788 11.771,9.822 11.689 C 9.888 11.531,12.766 8.610,13.049 8.414 C 13.298 8.241,13.590 8.214,13.840 8.342 " fill="#1C274C" stroke="none" fill-rule="evenodd"></path></svg>