<svg width="24" height="24" viewBox="0 0 24 24" fill="none" xmlns="http://www.w3.org/2000/svg"><path d="M11.120 2.039 C 9.316 2.220,7.707 2.807,6.280 3.806 C 2.738 6.286,1.178 10.759,2.422 14.865 C 2.918 16.499,3.728 17.850,4.939 19.061 C 5.928 20.050,7.038 20.788,8.272 21.278 C 11.634 22.610,15.313 22.080,18.200 19.845 C 18.637 19.507,19.507 18.637,19.845 18.200 C 21.255 16.379,22.000 14.234,22.000 12.000 C 22.000 7.432,18.842 3.387,14.430 2.303 C 13.446 2.062,12.028 1.948,11.120 2.039 M12.405 7.381 C 12.485 7.432,12.593 7.543,12.645 7.627 L 12.740 7.780 12.751 10.978 L 12.762 14.175 13.671 13.273 C 14.171 12.776,14.625 12.347,14.680 12.318 C 14.735 12.290,14.881 12.267,15.004 12.267 C 15.276 12.267,15.476 12.375,15.629 12.607 C 15.766 12.814,15.775 13.162,15.649 13.364 C 15.602 13.439,14.848 14.214,13.972 15.087 C 12.625 16.429,12.355 16.680,12.220 16.716 C 12.021 16.770,11.979 16.770,11.780 16.716 C 11.645 16.680,11.375 16.429,10.028 15.087 C 9.152 14.214,8.398 13.439,8.351 13.364 C 8.231 13.172,8.235 12.823,8.358 12.623 C 8.503 12.389,8.721 12.267,8.992 12.267 C 9.118 12.267,9.265 12.290,9.320 12.318 C 9.375 12.347,9.829 12.776,10.329 13.273 L 11.238 14.175 11.249 10.978 L 11.260 7.780 11.353 7.631 C 11.586 7.256,12.044 7.147,12.405 7.381 " fill="#1C274C" stroke="none" fill-rule="evenodd"></path></svg>