<svg width="24" height="24" viewBox="0 0 24 24" fill="none" xmlns="http://www.w3.org/2000/svg"><path d="M11.120 2.039 C 9.316 2.220,7.707 2.807,6.280 3.806 C 2.738 6.286,1.178 10.759,2.422 14.865 C 2.918 16.499,3.728 17.850,4.939 19.061 C 5.928 20.050,7.038 20.788,8.272 21.278 C 11.634 22.610,15.313 22.080,18.200 19.845 C 18.637 19.507,19.507 18.637,19.845 18.200 C 21.255 16.379,22.000 14.234,22.000 12.000 C 22.000 7.432,18.842 3.387,14.430 2.303 C 13.446 2.062,12.028 1.948,11.120 2.039 M10.860 8.350 C 11.000 8.419,13.952 11.347,14.107 11.571 C 14.232 11.751,14.271 12.043,14.199 12.265 C 14.160 12.387,13.826 12.745,12.625 13.952 C 11.786 14.795,11.021 15.537,10.924 15.602 C 10.603 15.815,10.297 15.798,10.013 15.549 C 9.765 15.331,9.691 15.002,9.822 14.690 C 9.863 14.592,10.314 14.110,11.150 13.271 L 12.417 12.000 11.150 10.729 C 10.314 9.890,9.863 9.408,9.822 9.310 C 9.746 9.128,9.742 8.880,9.814 8.708 C 9.881 8.548,10.124 8.329,10.271 8.297 C 10.331 8.284,10.398 8.267,10.420 8.260 C 10.488 8.237,10.734 8.288,10.860 8.350 " fill="#1C274C" stroke="none" fill-rule="evenodd"></path></svg>