<svg width="24" height="24" viewBox="0 0 24 24" fill="none" xmlns="http://www.w3.org/2000/svg"><path d="M11.120 2.039 C 9.316 2.220,7.707 2.807,6.280 3.806 C 2.738 6.286,1.178 10.759,2.422 14.865 C 2.918 16.499,3.728 17.850,4.939 19.061 C 5.928 20.050,7.038 20.788,8.272 21.278 C 11.634 22.610,15.313 22.080,18.200 19.845 C 18.637 19.507,19.507 18.637,19.845 18.200 C 21.255 16.379,22.000 14.234,22.000 12.000 C 22.000 7.432,18.842 3.387,14.430 2.303 C 13.446 2.062,12.028 1.948,11.120 2.039 M10.405 6.381 C 10.485 6.432,10.593 6.543,10.645 6.627 L 10.740 6.780 10.740 12.007 L 10.740 17.233 10.619 17.405 C 10.553 17.499,10.437 17.612,10.362 17.656 C 10.198 17.752,9.879 17.765,9.687 17.684 C 9.593 17.644,9.113 17.123,8.066 15.924 C 7.248 14.987,6.519 14.145,6.446 14.054 C 5.910 13.384,6.631 12.526,7.393 12.928 C 7.444 12.955,7.876 13.425,8.353 13.973 L 9.220 14.969 9.240 10.875 L 9.260 6.780 9.353 6.631 C 9.586 6.256,10.044 6.147,10.405 6.381 M14.380 6.360 C 14.506 6.438,17.504 9.847,17.652 10.079 C 17.761 10.252,17.762 10.573,17.655 10.781 C 17.610 10.868,17.497 10.994,17.404 11.059 C 17.264 11.158,17.196 11.179,17.008 11.178 C 16.854 11.178,16.737 11.152,16.646 11.099 C 16.573 11.055,16.123 10.572,15.646 10.025 L 14.780 9.031 14.760 13.132 L 14.740 17.233 14.619 17.405 C 14.453 17.642,14.273 17.739,14.000 17.739 C 13.727 17.739,13.547 17.641,13.381 17.405 L 13.260 17.233 13.260 12.007 L 13.260 6.780 13.353 6.631 C 13.578 6.268,14.036 6.147,14.380 6.360 " fill="#1C274C" stroke="none" fill-rule="evenodd"></path></svg>