<svg width="24" height="24" viewBox="0 0 24 24" fill="none" xmlns="http://www.w3.org/2000/svg"><path d="M11.120 2.039 C 9.316 2.220,7.707 2.807,6.280 3.806 C 2.738 6.286,1.178 10.759,2.422 14.865 C 2.918 16.499,3.728 17.850,4.939 19.061 C 5.928 20.050,7.038 20.788,8.272 21.278 C 11.634 22.610,15.313 22.080,18.200 19.845 C 18.637 19.507,19.507 18.637,19.845 18.200 C 21.255 16.379,22.000 14.234,22.000 12.000 C 22.000 7.432,18.842 3.387,14.430 2.303 C 13.446 2.062,12.028 1.948,11.120 2.039 M12.427 7.891 C 12.667 8.057,15.582 11.004,15.661 11.159 C 15.748 11.332,15.752 11.662,15.669 11.821 C 15.478 12.186,15.068 12.336,14.690 12.178 C 14.592 12.137,14.110 11.686,13.271 10.850 L 12.000 9.583 10.729 10.850 C 9.890 11.686,9.408 12.137,9.310 12.178 C 8.932 12.336,8.522 12.186,8.331 11.821 C 8.248 11.662,8.252 11.332,8.338 11.159 C 8.437 10.964,11.504 7.900,11.680 7.821 C 11.892 7.727,12.236 7.759,12.427 7.891 M12.427 11.891 C 12.667 12.057,15.582 15.004,15.661 15.159 C 15.748 15.332,15.752 15.662,15.669 15.821 C 15.478 16.186,15.068 16.336,14.690 16.178 C 14.592 16.137,14.110 15.686,13.271 14.850 L 12.000 13.583 10.729 14.850 C 9.890 15.686,9.408 16.137,9.310 16.178 C 8.932 16.336,8.522 16.186,8.331 15.821 C 8.248 15.662,8.252 15.332,8.338 15.159 C 8.437 14.964,11.504 11.900,11.680 11.821 C 11.892 11.727,12.236 11.759,12.427 11.891 " fill="#1C274C" stroke="none" fill-rule="evenodd"></path></svg>