<svg width="24" height="24" viewBox="0 0 24 24" fill="none" xmlns="http://www.w3.org/2000/svg"><path d="M11.120 2.039 C 9.316 2.220,7.707 2.807,6.280 3.806 C 2.738 6.286,1.178 10.759,2.422 14.865 C 2.918 16.499,3.728 17.850,4.939 19.061 C 5.928 20.050,7.038 20.788,8.272 21.278 C 11.634 22.610,15.313 22.080,18.200 19.845 C 18.637 19.507,19.507 18.637,19.845 18.200 C 21.255 16.379,22.000 14.234,22.000 12.000 C 22.000 7.432,18.842 3.387,14.430 2.303 C 13.446 2.062,12.028 1.948,11.120 2.039 M13.132 4.344 C 14.377 4.515,15.577 5.012,16.640 5.797 C 17.008 6.069,17.690 6.723,17.999 7.100 C 19.893 9.412,20.277 12.702,18.964 15.380 C 18.536 16.252,18.068 16.892,17.355 17.581 C 16.496 18.410,15.599 18.957,14.475 19.336 C 12.829 19.891,11.170 19.890,9.520 19.334 C 8.316 18.929,7.334 18.302,6.419 17.355 C 5.136 16.026,4.412 14.392,4.281 12.527 C 4.260 12.220,4.257 11.916,4.276 11.833 C 4.356 11.487,4.638 11.267,5.000 11.267 C 5.275 11.267,5.475 11.374,5.626 11.602 C 5.716 11.739,5.731 11.816,5.763 12.318 C 5.862 13.903,6.434 15.212,7.518 16.334 C 8.400 17.248,9.390 17.805,10.663 18.105 C 11.108 18.210,11.197 18.218,12.000 18.218 C 12.803 18.218,12.892 18.210,13.337 18.105 C 14.589 17.810,15.499 17.304,16.402 16.402 C 17.304 15.499,17.810 14.589,18.105 13.337 C 18.210 12.892,18.218 12.803,18.218 12.000 C 18.218 11.197,18.210 11.108,18.105 10.663 C 17.811 9.413,17.305 8.503,16.402 7.597 C 15.267 6.460,13.958 5.874,12.311 5.766 C 11.690 5.726,11.575 5.682,11.384 5.409 C 11.098 5.003,11.330 4.394,11.815 4.278 C 11.978 4.239,12.588 4.270,13.132 4.344 M12.920 7.347 C 13.573 7.475,14.328 7.809,14.841 8.196 C 15.175 8.448,15.696 8.990,15.917 9.316 C 16.172 9.691,16.463 10.329,16.577 10.760 C 16.879 11.905,16.765 13.040,16.241 14.100 C 15.952 14.685,15.714 15.005,15.223 15.467 C 14.453 16.193,13.558 16.603,12.474 16.726 C 11.850 16.798,11.587 16.719,11.375 16.400 C 11.230 16.181,11.223 15.842,11.358 15.623 C 11.521 15.359,11.690 15.281,12.186 15.241 C 13.044 15.171,13.691 14.876,14.284 14.284 C 14.688 13.879,14.918 13.512,15.092 12.991 C 15.209 12.640,15.216 12.586,15.217 12.000 C 15.219 11.409,15.213 11.363,15.093 11.009 C 14.917 10.487,14.687 10.120,14.284 9.716 C 13.698 9.131,13.060 8.839,12.210 8.766 C 11.695 8.722,11.564 8.665,11.384 8.409 C 11.098 8.003,11.329 7.396,11.815 7.277 C 11.979 7.237,12.543 7.273,12.920 7.347 " fill="#1C274C" stroke="none" fill-rule="evenodd"></path></svg>