<svg width="24" height="24" viewBox="0 0 24 24" fill="none" xmlns="http://www.w3.org/2000/svg"><path d="M11.120 2.039 C 9.316 2.220,7.707 2.807,6.280 3.806 C 2.738 6.286,1.178 10.759,2.422 14.865 C 2.918 16.499,3.728 17.850,4.939 19.061 C 5.928 20.050,7.038 20.788,8.272 21.278 C 11.634 22.610,15.313 22.080,18.200 19.845 C 18.637 19.507,19.507 18.637,19.845 18.200 C 21.255 16.379,22.000 14.234,22.000 12.000 C 22.000 7.432,18.842 3.387,14.430 2.303 C 13.446 2.062,12.028 1.948,11.120 2.039 M15.388 8.367 C 15.477 8.426,15.593 8.543,15.645 8.627 L 15.740 8.780 15.740 11.200 C 15.740 12.531,15.726 13.669,15.709 13.729 C 15.667 13.881,15.447 14.121,15.292 14.186 C 15.027 14.297,14.711 14.241,14.506 14.047 C 14.258 13.812,14.261 13.834,14.248 12.263 L 14.235 10.826 11.808 13.250 C 9.624 15.431,9.362 15.679,9.205 15.720 C 8.715 15.848,8.267 15.508,8.267 15.008 C 8.267 14.882,8.290 14.735,8.318 14.680 C 8.346 14.625,9.451 13.495,10.774 12.170 L 13.179 9.760 11.780 9.759 C 10.503 9.758,10.366 9.752,10.220 9.684 C 9.699 9.443,9.595 8.818,10.015 8.450 C 10.095 8.379,10.211 8.310,10.271 8.297 C 10.331 8.284,10.398 8.267,10.420 8.259 C 10.442 8.251,11.532 8.248,12.843 8.252 L 15.226 8.260 15.388 8.367 " fill="#1C274C" stroke="none" fill-rule="evenodd"></path></svg>