<svg width="24" height="24" viewBox="0 0 24 24" fill="none" xmlns="http://www.w3.org/2000/svg"><path d="M11.120 2.039 C 9.316 2.220,7.707 2.807,6.280 3.806 C 2.738 6.286,1.178 10.759,2.422 14.865 C 2.918 16.499,3.728 17.850,4.939 19.061 C 5.928 20.050,7.038 20.788,8.272 21.278 C 11.634 22.610,15.313 22.080,18.200 19.845 C 18.637 19.507,19.507 18.637,19.845 18.200 C 21.255 16.379,22.000 14.234,22.000 12.000 C 22.000 7.432,18.842 3.387,14.430 2.303 C 13.446 2.062,12.028 1.948,11.120 2.039 M13.380 8.362 C 13.539 8.460,16.616 11.552,16.682 11.680 C 16.765 11.841,16.747 12.207,16.649 12.364 C 16.602 12.439,15.848 13.214,14.972 14.087 C 13.557 15.497,13.361 15.679,13.205 15.720 C 12.713 15.849,12.267 15.508,12.267 15.003 C 12.267 14.836,12.290 14.733,12.351 14.636 C 12.398 14.561,12.824 14.113,13.298 13.640 L 14.161 12.780 10.970 12.760 C 7.846 12.740,7.777 12.738,7.641 12.658 C 7.564 12.613,7.448 12.501,7.384 12.409 C 7.286 12.271,7.267 12.203,7.267 12.007 C 7.267 11.721,7.372 11.526,7.612 11.367 L 7.774 11.260 10.975 11.249 L 14.175 11.238 13.273 10.329 C 12.776 9.829,12.347 9.375,12.318 9.320 C 12.233 9.155,12.253 8.793,12.356 8.626 C 12.577 8.269,13.036 8.151,13.380 8.362 " fill="#1C274C" stroke="none" fill-rule="evenodd"></path></svg>