<svg width="24" height="24" viewBox="0 0 24 24" fill="none" xmlns="http://www.w3.org/2000/svg"><path d="M11.120 2.039 C 9.316 2.220,7.707 2.807,6.280 3.806 C 2.738 6.286,1.178 10.759,2.422 14.865 C 2.918 16.499,3.728 17.850,4.939 19.061 C 5.928 20.050,7.038 20.788,8.272 21.278 C 11.634 22.610,15.313 22.080,18.200 19.845 C 18.637 19.507,19.507 18.637,19.845 18.200 C 21.255 16.379,22.000 14.234,22.000 12.000 C 22.000 7.432,18.842 3.387,14.430 2.303 C 13.446 2.062,12.028 1.948,11.120 2.039 M11.840 8.342 C 11.977 8.412,12.146 8.597,12.197 8.733 C 12.258 8.893,12.250 9.139,12.178 9.310 C 12.137 9.408,11.686 9.890,10.850 10.729 L 9.583 12.000 10.850 13.271 C 11.686 14.110,12.137 14.592,12.178 14.690 C 12.309 15.002,12.235 15.331,11.987 15.549 C 11.703 15.798,11.397 15.815,11.076 15.601 C 10.788 15.410,7.894 12.483,7.822 12.311 C 7.743 12.122,7.743 11.878,7.822 11.689 C 7.888 11.531,10.766 8.610,11.049 8.414 C 11.298 8.241,11.590 8.214,11.840 8.342 M15.840 8.342 C 15.977 8.412,16.146 8.597,16.197 8.733 C 16.258 8.893,16.250 9.139,16.178 9.310 C 16.137 9.408,15.686 9.890,14.850 10.729 L 13.583 12.000 14.850 13.271 C 15.686 14.110,16.137 14.592,16.178 14.690 C 16.309 15.002,16.235 15.331,15.987 15.549 C 15.703 15.798,15.397 15.815,15.076 15.601 C 14.788 15.410,11.894 12.483,11.822 12.311 C 11.743 12.122,11.743 11.878,11.822 11.689 C 11.888 11.531,14.766 8.610,15.049 8.414 C 15.298 8.241,15.590 8.214,15.840 8.342 " fill="#1C274C" stroke="none" fill-rule="evenodd"></path></svg>