<svg width="24" height="24" viewBox="0 0 24 24" fill="none" xmlns="http://www.w3.org/2000/svg"><path d="M11.120 2.039 C 9.316 2.220,7.707 2.807,6.280 3.806 C 2.738 6.286,1.178 10.759,2.422 14.865 C 2.918 16.499,3.727 17.848,4.939 19.062 C 5.925 20.049,7.036 20.787,8.272 21.278 C 11.634 22.610,15.313 22.080,18.200 19.845 C 18.637 19.507,19.507 18.637,19.845 18.200 C 22.091 15.298,22.618 11.564,21.254 8.220 C 20.058 5.287,17.480 3.053,14.430 2.303 C 13.446 2.062,12.028 1.948,11.120 2.039 M12.380 7.362 C 12.539 7.460,15.616 10.552,15.682 10.680 C 15.710 10.735,15.733 10.882,15.733 11.008 C 15.733 11.508,15.284 11.849,14.795 11.719 C 14.643 11.679,14.496 11.549,13.691 10.749 L 12.762 9.825 12.751 13.029 L 12.740 16.233 12.619 16.405 C 12.453 16.642,12.273 16.739,12.000 16.739 C 11.727 16.739,11.547 16.642,11.381 16.405 L 11.260 16.233 11.249 13.029 L 11.238 9.825 10.309 10.749 C 9.504 11.549,9.357 11.679,9.205 11.719 C 8.714 11.849,8.267 11.509,8.267 11.003 C 8.267 10.836,8.290 10.733,8.351 10.636 C 8.398 10.561,9.152 9.786,10.028 8.913 C 11.200 7.745,11.652 7.319,11.740 7.299 C 11.806 7.285,11.878 7.267,11.900 7.259 C 11.981 7.230,12.264 7.291,12.380 7.362 " fill="#1C274C" stroke="none" fill-rule="evenodd"></path></svg>