<svg width="24" height="24" viewBox="0 0 24 24" fill="none" xmlns="http://www.w3.org/2000/svg"><path d="M11.120 2.039 C 9.316 2.220,7.707 2.807,6.280 3.806 C 2.738 6.286,1.178 10.759,2.422 14.865 C 2.918 16.499,3.728 17.850,4.939 19.061 C 5.928 20.050,7.038 20.788,8.272 21.278 C 11.634 22.610,15.313 22.080,18.200 19.845 C 18.637 19.507,19.507 18.637,19.845 18.200 C 21.255 16.379,22.000 14.234,22.000 12.000 C 22.000 7.432,18.842 3.387,14.430 2.303 C 13.446 2.062,12.028 1.948,11.120 2.039 M9.310 7.822 C 9.408 7.863,9.890 8.314,10.729 9.150 L 12.000 10.417 13.271 9.150 C 14.110 8.314,14.592 7.863,14.690 7.822 C 15.068 7.664,15.478 7.814,15.669 8.179 C 15.752 8.338,15.748 8.668,15.661 8.841 C 15.582 8.998,12.666 11.943,12.423 12.111 C 12.291 12.203,12.225 12.220,12.000 12.220 C 11.775 12.220,11.709 12.203,11.577 12.111 C 11.334 11.943,8.418 8.998,8.339 8.841 C 8.252 8.668,8.248 8.338,8.331 8.179 C 8.408 8.030,8.589 7.857,8.720 7.805 C 8.871 7.745,9.145 7.753,9.310 7.822 M9.310 11.822 C 9.408 11.863,9.890 12.314,10.729 13.150 L 12.000 14.417 13.271 13.150 C 14.110 12.314,14.592 11.863,14.690 11.822 C 15.068 11.664,15.478 11.814,15.669 12.179 C 15.752 12.338,15.748 12.668,15.661 12.841 C 15.582 12.998,12.666 15.943,12.423 16.111 C 12.291 16.203,12.225 16.220,12.000 16.220 C 11.775 16.220,11.709 16.203,11.577 16.111 C 11.334 15.943,8.418 12.998,8.339 12.841 C 8.252 12.668,8.248 12.338,8.331 12.179 C 8.408 12.030,8.589 11.857,8.720 11.805 C 8.871 11.745,9.145 11.753,9.310 11.822 " fill="#1C274C" stroke="none" fill-rule="evenodd"></path></svg>