<svg width="24" height="24" viewBox="0 0 24 24" fill="none" xmlns="http://www.w3.org/2000/svg"><path d="M11.120 2.039 C 9.316 2.220,7.707 2.807,6.280 3.806 C 2.738 6.286,1.178 10.759,2.422 14.865 C 2.918 16.499,3.728 17.850,4.939 19.061 C 5.928 20.050,7.038 20.788,8.272 21.278 C 11.634 22.610,15.313 22.080,18.200 19.845 C 18.637 19.507,19.507 18.637,19.845 18.200 C 21.255 16.379,22.000 14.234,22.000 12.000 C 22.000 7.432,18.842 3.387,14.430 2.303 C 13.446 2.062,12.028 1.948,11.120 2.039 M11.405 8.381 C 11.624 8.522,11.733 8.727,11.733 8.996 C 11.733 9.119,11.710 9.265,11.682 9.320 C 11.653 9.375,11.224 9.829,10.727 10.329 L 9.825 11.238 13.025 11.249 L 16.226 11.260 16.388 11.367 C 16.628 11.526,16.733 11.721,16.733 12.007 C 16.733 12.203,16.714 12.271,16.616 12.409 C 16.552 12.501,16.436 12.613,16.359 12.658 C 16.223 12.738,16.154 12.740,13.030 12.760 L 9.839 12.780 10.702 13.640 C 11.176 14.113,11.602 14.561,11.649 14.636 C 11.710 14.733,11.733 14.836,11.733 15.003 C 11.733 15.508,11.287 15.849,10.795 15.720 C 10.639 15.679,10.443 15.497,9.028 14.087 C 8.152 13.214,7.398 12.439,7.351 12.364 C 7.235 12.178,7.235 11.822,7.351 11.636 C 7.398 11.561,8.152 10.786,9.028 9.913 C 10.200 8.745,10.652 8.319,10.740 8.299 C 10.806 8.285,10.878 8.267,10.900 8.259 C 10.991 8.226,11.270 8.294,11.405 8.381 " fill="#1C274C" stroke="none" fill-rule="evenodd"></path></svg>