<svg width="24" height="24" viewBox="0 0 24 24" fill="none" xmlns="http://www.w3.org/2000/svg"><path d="M11.080 2.042 C 9.801 2.165,8.485 2.556,7.353 3.150 C 6.931 3.371,6.926 3.375,6.993 3.459 C 7.030 3.505,8.419 5.009,10.080 6.800 L 13.100 10.056 13.120 8.678 C 13.142 7.175,13.140 7.186,13.386 6.953 C 13.591 6.759,13.907 6.703,14.172 6.814 C 14.327 6.879,14.547 7.119,14.589 7.271 C 14.606 7.331,14.620 8.460,14.620 9.780 C 14.620 12.136,14.618 12.183,14.536 12.340 C 14.411 12.581,14.168 12.735,13.910 12.738 C 13.794 12.739,13.641 12.715,13.570 12.685 C 13.461 12.639,10.567 9.547,5.836 4.422 C 5.695 4.270,5.686 4.267,5.595 4.327 C 5.396 4.459,4.770 5.078,4.408 5.500 C 2.430 7.806,1.606 10.920,2.185 13.897 C 2.491 15.471,3.141 16.890,4.155 18.200 C 4.493 18.637,5.363 19.507,5.800 19.845 C 7.730 21.339,9.981 22.074,12.360 21.987 C 13.827 21.933,15.087 21.614,16.433 20.954 L 17.087 20.633 16.832 20.367 C 16.692 20.220,15.246 18.706,13.618 17.003 L 10.660 13.905 10.640 15.303 C 10.618 16.827,10.620 16.814,10.374 17.047 C 10.169 17.241,9.853 17.297,9.588 17.186 C 9.414 17.113,9.213 16.876,9.160 16.682 C 9.132 16.574,9.121 15.748,9.129 14.151 C 9.140 11.844,9.142 11.776,9.222 11.641 C 9.267 11.564,9.379 11.448,9.471 11.384 C 9.609 11.287,9.677 11.267,9.871 11.267 C 10.028 11.267,10.147 11.291,10.232 11.342 C 10.302 11.383,12.144 13.285,14.325 15.569 C 16.506 17.852,18.306 19.720,18.325 19.720 C 18.372 19.720,18.927 19.223,19.204 18.934 C 20.067 18.034,20.781 16.935,21.254 15.779 C 21.987 13.989,22.184 11.998,21.815 10.103 C 21.073 6.292,18.165 3.221,14.430 2.303 C 13.432 2.058,12.039 1.949,11.080 2.042 " fill="#1C274C" stroke="none" fill-rule="evenodd"></path></svg>