<svg width="24" height="24" viewBox="0 0 24 24" fill="none" xmlns="http://www.w3.org/2000/svg"><path d="M11.120 2.039 C 9.316 2.220,7.707 2.807,6.280 3.806 C 2.738 6.286,1.178 10.759,2.422 14.865 C 2.918 16.499,3.728 17.850,4.939 19.061 C 5.928 20.050,7.038 20.788,8.272 21.278 C 11.634 22.610,15.313 22.080,18.200 19.845 C 18.637 19.507,19.507 18.637,19.845 18.200 C 21.255 16.379,22.000 14.234,22.000 12.000 C 22.000 7.432,18.842 3.387,14.430 2.303 C 13.446 2.062,12.028 1.948,11.120 2.039 M15.405 8.381 C 15.624 8.522,15.733 8.727,15.733 8.996 C 15.733 9.119,15.710 9.265,15.682 9.320 C 15.654 9.375,14.550 10.503,13.228 11.828 L 10.826 14.235 12.263 14.248 C 13.834 14.261,13.812 14.258,14.047 14.506 C 14.241 14.711,14.297 15.027,14.186 15.292 C 14.115 15.461,13.880 15.665,13.691 15.720 C 13.586 15.751,12.809 15.761,11.160 15.752 C 8.845 15.740,8.776 15.738,8.641 15.658 C 8.564 15.613,8.447 15.499,8.381 15.405 L 8.260 15.233 8.260 12.807 C 8.260 11.472,8.274 10.331,8.291 10.271 C 8.333 10.119,8.553 9.879,8.708 9.814 C 8.973 9.703,9.289 9.759,9.494 9.953 C 9.742 10.188,9.739 10.166,9.752 11.737 L 9.765 13.174 12.192 10.750 C 14.007 8.937,14.650 8.319,14.740 8.299 C 14.806 8.285,14.878 8.267,14.900 8.259 C 14.991 8.226,15.270 8.294,15.405 8.381 " fill="#1C274C" stroke="none" fill-rule="evenodd"></path></svg>