<svg width="24" height="24" viewBox="0 0 24 24" fill="none" xmlns="http://www.w3.org/2000/svg"><path d="M11.120 2.039 C 9.316 2.220,7.707 2.807,6.280 3.806 C 2.738 6.286,1.178 10.759,2.422 14.865 C 2.918 16.499,3.728 17.850,4.939 19.061 C 5.928 20.050,7.038 20.788,8.272 21.278 C 11.634 22.610,15.313 22.080,18.200 19.845 C 18.637 19.507,19.507 18.637,19.845 18.200 C 21.255 16.379,22.000 14.234,22.000 12.000 C 22.000 7.432,18.842 3.387,14.430 2.303 C 13.446 2.062,12.028 1.948,11.120 2.039 M10.856 6.393 C 11.053 6.527,11.163 6.737,11.169 6.987 C 11.177 7.331,11.108 7.413,10.031 8.350 L 9.031 9.220 13.126 9.240 L 17.220 9.260 17.373 9.355 C 17.615 9.506,17.733 9.718,17.733 10.003 C 17.733 10.203,17.714 10.270,17.616 10.409 C 17.552 10.501,17.436 10.613,17.359 10.658 C 17.221 10.740,17.189 10.740,12.000 10.740 C 6.811 10.740,6.779 10.740,6.641 10.658 C 6.564 10.613,6.448 10.501,6.384 10.409 C 6.287 10.271,6.267 10.203,6.267 10.009 C 6.267 9.851,6.291 9.732,6.343 9.644 C 6.408 9.533,9.421 6.859,9.947 6.445 C 10.240 6.215,10.569 6.196,10.856 6.393 M17.373 13.355 C 17.612 13.504,17.733 13.719,17.733 13.995 C 17.733 14.149,17.708 14.268,17.657 14.357 C 17.584 14.482,14.088 17.568,13.907 17.668 C 13.667 17.799,13.301 17.760,13.087 17.579 C 12.843 17.375,12.758 16.965,12.898 16.671 C 12.947 16.566,13.271 16.258,13.969 15.651 L 14.969 14.780 10.875 14.760 C 6.838 14.740,6.778 14.739,6.641 14.658 C 6.564 14.613,6.448 14.501,6.384 14.409 C 6.098 14.003,6.330 13.395,6.815 13.278 C 6.884 13.261,9.253 13.250,12.080 13.254 L 17.220 13.260 17.373 13.355 " fill="#1C274C" stroke="none" fill-rule="evenodd"></path></svg>