<svg width="24" height="24" viewBox="0 0 24 24" fill="none" xmlns="http://www.w3.org/2000/svg"><path d="M11.120 2.039 C 9.316 2.220,7.707 2.807,6.280 3.806 C 2.738 6.286,1.178 10.759,2.422 14.865 C 2.918 16.499,3.728 17.850,4.939 19.061 C 5.928 20.050,7.038 20.788,8.272 21.278 C 11.634 22.610,15.313 22.080,18.200 19.845 C 18.637 19.507,19.507 18.637,19.845 18.200 C 21.255 16.379,22.000 14.234,22.000 12.000 C 22.000 7.432,18.842 3.387,14.430 2.303 C 13.446 2.062,12.028 1.948,11.120 2.039 M9.340 8.329 C 9.384 8.351,10.503 9.450,11.828 10.772 L 14.235 13.174 14.248 11.737 C 14.261 10.166,14.258 10.188,14.506 9.953 C 14.711 9.759,15.027 9.703,15.292 9.814 C 15.447 9.879,15.667 10.119,15.709 10.271 C 15.726 10.331,15.740 11.472,15.740 12.807 L 15.740 15.233 15.619 15.405 C 15.553 15.499,15.436 15.613,15.359 15.658 C 15.224 15.738,15.155 15.740,12.840 15.752 C 11.191 15.761,10.414 15.751,10.309 15.720 C 10.120 15.665,9.885 15.461,9.814 15.292 C 9.703 15.027,9.759 14.711,9.953 14.506 C 10.188 14.258,10.166 14.261,11.737 14.248 L 13.174 14.235 10.772 11.828 C 9.450 10.503,8.346 9.375,8.318 9.320 C 8.233 9.155,8.253 8.793,8.356 8.626 C 8.462 8.456,8.640 8.320,8.815 8.277 C 8.955 8.243,9.219 8.269,9.340 8.329 " fill="#1C274C" stroke="none" fill-rule="evenodd"></path></svg>