<svg width="24" height="24" viewBox="0 0 24 24" fill="none" xmlns="http://www.w3.org/2000/svg"><path d="M11.120 2.039 C 9.316 2.220,7.707 2.807,6.280 3.806 C 2.738 6.286,1.178 10.759,2.422 14.865 C 2.918 16.499,3.728 17.850,4.939 19.061 C 5.928 20.050,7.038 20.788,8.272 21.278 C 11.634 22.610,15.313 22.080,18.200 19.845 C 18.637 19.507,19.507 18.637,19.845 18.200 C 21.255 16.379,22.000 14.234,22.000 12.000 C 22.000 7.432,18.842 3.387,14.430 2.303 C 13.446 2.062,12.028 1.948,11.120 2.039 M12.427 9.891 C 12.667 10.057,15.582 13.004,15.661 13.159 C 15.748 13.332,15.752 13.662,15.669 13.821 C 15.478 14.186,15.068 14.336,14.690 14.178 C 14.592 14.137,14.110 13.686,13.271 12.850 L 12.000 11.583 10.729 12.850 C 9.890 13.686,9.408 14.137,9.310 14.178 C 8.932 14.336,8.522 14.186,8.331 13.821 C 8.248 13.662,8.252 13.332,8.338 13.159 C 8.437 12.964,11.504 9.900,11.680 9.821 C 11.892 9.727,12.236 9.759,12.427 9.891 " fill="#1C274C" stroke="none" fill-rule="evenodd"></path></svg>