<svg width="24" height="24" viewBox="0 0 24 24" fill="none" xmlns="http://www.w3.org/2000/svg"><path d="M11.120 2.039 C 9.316 2.220,7.707 2.807,6.280 3.806 C 2.738 6.286,1.178 10.759,2.422 14.865 C 2.918 16.499,3.728 17.850,4.939 19.061 C 5.928 20.050,7.038 20.788,8.272 21.278 C 11.634 22.610,15.313 22.080,18.200 19.845 C 18.637 19.507,19.507 18.637,19.845 18.200 C 21.255 16.379,22.000 14.234,22.000 12.000 C 22.000 7.432,18.842 3.387,14.430 2.303 C 13.446 2.062,12.028 1.948,11.120 2.039 M13.820 8.326 C 14.402 8.649,14.380 9.407,13.780 9.684 C 13.634 9.752,13.497 9.758,12.220 9.759 L 10.821 9.760 13.226 12.170 C 14.549 13.495,15.654 14.625,15.682 14.680 C 15.710 14.735,15.733 14.882,15.733 15.008 C 15.733 15.508,15.285 15.848,14.795 15.720 C 14.638 15.679,14.376 15.431,12.192 13.250 L 9.765 10.826 9.752 12.263 C 9.739 13.834,9.742 13.812,9.494 14.047 C 9.289 14.241,8.973 14.297,8.708 14.186 C 8.553 14.121,8.333 13.881,8.291 13.729 C 8.274 13.669,8.260 12.531,8.260 11.200 L 8.260 8.780 8.353 8.631 C 8.462 8.456,8.638 8.320,8.815 8.277 C 8.884 8.260,10.011 8.250,11.320 8.253 C 13.455 8.259,13.712 8.267,13.820 8.326 " fill="#1C274C" stroke="none" fill-rule="evenodd"></path></svg>