<svg width="24" height="24" viewBox="0 0 24 24" fill="none" xmlns="http://www.w3.org/2000/svg"><path d="M11.513 2.038 C 10.719 2.184,10.037 2.558,8.993 3.420 C 8.416 3.896,4.767 7.492,3.950 8.390 C 2.561 9.916,2.075 10.781,2.013 11.840 C 1.951 12.886,2.372 13.791,3.572 15.193 C 4.016 15.712,7.653 19.378,8.390 20.049 C 9.896 21.421,10.769 21.916,11.808 21.988 C 12.846 22.059,13.781 21.633,15.160 20.458 C 15.740 19.964,19.940 15.767,20.434 15.188 C 21.561 13.866,22.000 12.973,22.000 12.000 C 22.000 11.026,21.557 10.125,20.432 8.812 C 20.003 8.311,16.646 4.917,15.820 4.149 C 14.495 2.917,13.669 2.355,12.836 2.120 C 12.504 2.026,11.812 1.983,11.513 2.038 M13.682 8.342 C 13.798 8.401,16.492 10.923,16.610 11.083 C 16.775 11.309,16.775 11.691,16.610 11.917 C 16.568 11.974,15.908 12.609,15.143 13.328 C 13.667 14.716,13.560 14.796,13.257 14.747 C 13.018 14.708,12.777 14.541,12.684 14.348 C 12.570 14.114,12.573 13.824,12.690 13.635 C 12.740 13.555,13.075 13.213,13.436 12.875 L 14.093 12.260 12.357 12.250 C 10.424 12.238,10.156 12.261,9.699 12.475 C 9.556 12.542,9.343 12.687,9.225 12.799 C 8.934 13.074,8.812 13.353,8.760 13.864 C 8.726 14.192,8.701 14.287,8.609 14.418 C 8.453 14.642,8.269 14.739,8.000 14.739 C 7.727 14.739,7.547 14.641,7.381 14.405 C 7.267 14.243,7.260 14.213,7.266 13.878 C 7.273 13.393,7.373 12.968,7.580 12.540 C 7.985 11.702,8.675 11.171,9.750 10.870 C 10.044 10.788,10.167 10.782,12.076 10.762 L 14.093 10.740 13.436 10.125 C 13.075 9.787,12.740 9.445,12.690 9.365 C 12.573 9.176,12.570 8.886,12.683 8.654 C 12.851 8.306,13.321 8.160,13.682 8.342 " fill="#1C274C" stroke="none" fill-rule="evenodd"></path></svg>