<svg width="24" height="24" viewBox="0 0 24 24" fill="none" xmlns="http://www.w3.org/2000/svg"><path d="M4.940 2.042 C 4.083 2.175,3.230 2.656,2.708 3.301 C 2.480 3.584,2.185 4.164,2.101 4.497 C 1.854 5.472,2.121 6.825,2.780 7.940 C 3.248 8.732,3.913 9.383,4.620 9.742 C 5.281 10.077,5.716 10.077,6.380 9.741 C 7.722 9.063,8.752 7.469,8.964 5.746 C 9.140 4.319,8.442 3.038,7.140 2.396 C 6.920 2.288,6.596 2.162,6.420 2.118 C 6.050 2.024,5.301 1.985,4.940 2.042 M11.807 4.287 C 11.568 4.341,11.341 4.572,11.289 4.816 C 11.197 5.246,11.431 5.629,11.838 5.716 C 11.974 5.745,12.780 5.760,14.215 5.760 C 16.730 5.760,16.633 5.748,17.004 6.117 C 17.272 6.386,17.378 6.649,17.377 7.044 C 17.375 7.363,17.237 7.682,17.009 7.887 C 16.927 7.961,14.462 9.548,11.530 11.413 C 8.356 13.434,6.110 14.888,5.977 15.010 C 4.888 16.005,4.837 17.766,5.864 18.875 C 6.319 19.367,6.845 19.633,7.529 19.719 C 7.710 19.741,8.380 19.760,9.017 19.760 L 10.176 19.760 10.030 19.910 C 9.708 20.240,9.675 20.703,9.952 21.014 C 10.054 21.130,10.320 21.238,10.500 21.238 C 10.795 21.238,10.945 21.125,11.825 20.235 C 12.608 19.443,12.673 19.366,12.710 19.190 C 12.737 19.063,12.737 18.937,12.710 18.810 C 12.673 18.634,12.608 18.557,11.825 17.765 C 10.945 16.875,10.795 16.762,10.500 16.762 C 10.320 16.762,10.054 16.870,9.952 16.986 C 9.675 17.297,9.708 17.760,10.030 18.090 L 10.176 18.240 8.895 18.240 C 7.381 18.240,7.348 18.234,6.996 17.883 C 6.728 17.614,6.622 17.351,6.623 16.956 C 6.625 16.637,6.763 16.318,6.991 16.113 C 7.073 16.039,9.538 14.452,12.470 12.587 C 15.644 10.566,17.890 9.112,18.023 8.990 C 19.112 7.995,19.163 6.234,18.136 5.125 C 17.675 4.626,17.142 4.360,16.446 4.280 C 16.004 4.230,12.038 4.236,11.807 4.287 M5.939 4.608 C 6.164 4.721,6.272 4.829,6.391 5.060 C 6.726 5.713,6.239 6.497,5.500 6.492 C 5.227 6.490,5.024 6.414,4.826 6.240 C 4.325 5.800,4.429 4.935,5.020 4.630 C 5.343 4.463,5.635 4.456,5.939 4.608 M17.940 14.042 C 16.907 14.203,15.939 14.836,15.438 15.680 C 15.354 15.823,15.225 16.111,15.153 16.320 C 15.029 16.681,15.022 16.729,15.022 17.280 C 15.022 17.692,15.044 17.958,15.096 18.199 C 15.421 19.705,16.308 21.001,17.467 21.663 C 18.238 22.104,18.762 22.104,19.533 21.663 C 20.693 21.000,21.578 19.705,21.906 18.191 C 21.956 17.959,21.978 17.687,21.978 17.280 C 21.978 16.729,21.971 16.681,21.847 16.320 C 21.541 15.432,20.968 14.794,20.100 14.375 C 19.902 14.279,19.596 14.164,19.420 14.118 C 19.050 14.024,18.303 13.985,17.940 14.042 M19.023 16.662 C 19.296 16.831,19.452 17.093,19.473 17.420 C 19.500 17.856,19.328 18.176,18.958 18.378 C 18.299 18.735,17.520 18.260,17.520 17.500 C 17.520 17.106,17.708 16.794,18.049 16.622 C 18.230 16.530,18.300 16.517,18.544 16.528 C 18.776 16.539,18.863 16.563,19.023 16.662 " fill="#1C274C" stroke="none" fill-rule="evenodd"></path></svg>