<svg width="24" height="24" viewBox="0 0 24 24" fill="none" xmlns="http://www.w3.org/2000/svg"><path d="M4.460 2.057 C 3.819 2.184,3.376 2.423,2.897 2.899 C 2.589 3.204,2.505 3.318,2.347 3.640 C 2.088 4.167,2.022 4.443,2.022 5.000 C 2.022 5.557,2.088 5.833,2.347 6.360 C 2.504 6.680,2.590 6.797,2.897 7.103 C 3.203 7.410,3.320 7.496,3.640 7.653 C 4.167 7.912,4.443 7.978,5.000 7.978 C 5.557 7.978,5.833 7.912,6.360 7.653 C 6.680 7.496,6.797 7.410,7.103 7.103 C 7.410 6.797,7.496 6.680,7.653 6.360 C 7.910 5.837,7.976 5.559,7.976 5.000 C 7.976 4.441,7.910 4.163,7.653 3.640 C 7.496 3.320,7.410 3.203,7.103 2.897 C 6.797 2.590,6.680 2.504,6.360 2.347 C 6.151 2.244,5.872 2.133,5.740 2.099 C 5.395 2.010,4.795 1.991,4.460 2.057 M10.811 4.278 C 10.290 4.406,10.079 5.067,10.426 5.480 C 10.656 5.753,10.478 5.738,13.640 5.760 L 16.500 5.780 16.700 5.886 C 17.123 6.111,17.359 6.504,17.360 6.983 C 17.360 7.366,17.270 7.610,17.044 7.840 C 16.918 7.968,15.179 9.095,11.520 11.421 C 6.624 14.532,6.155 14.839,5.880 15.117 C 5.376 15.625,5.119 16.247,5.121 16.956 C 5.122 17.435,5.207 17.797,5.425 18.240 C 5.670 18.740,6.140 19.224,6.600 19.449 C 7.184 19.736,7.168 19.734,9.276 19.750 L 11.171 19.765 11.030 19.913 C 10.837 20.114,10.760 20.282,10.760 20.500 C 10.760 20.693,10.860 20.935,10.986 21.045 C 11.218 21.249,11.571 21.298,11.832 21.163 C 11.913 21.121,12.361 20.702,12.826 20.233 C 13.518 19.536,13.680 19.351,13.716 19.220 C 13.770 19.021,13.770 18.979,13.716 18.780 C 13.680 18.649,13.517 18.463,12.826 17.766 C 11.952 16.883,11.794 16.763,11.509 16.761 C 11.341 16.760,11.103 16.847,10.987 16.952 C 10.775 17.143,10.697 17.558,10.824 17.812 C 10.860 17.882,10.953 18.008,11.033 18.090 L 11.176 18.240 9.415 18.240 C 7.417 18.240,7.383 18.236,7.060 17.952 C 6.786 17.710,6.640 17.386,6.640 17.017 C 6.640 16.671,6.721 16.420,6.901 16.209 C 6.999 16.095,8.571 15.075,12.408 12.635 C 17.375 9.476,17.802 9.196,18.104 8.898 C 18.365 8.640,18.463 8.508,18.593 8.238 C 18.798 7.815,18.879 7.475,18.879 7.040 C 18.879 6.566,18.793 6.203,18.575 5.760 C 18.330 5.259,17.859 4.775,17.400 4.552 C 16.790 4.254,16.944 4.267,13.780 4.256 C 12.218 4.250,10.882 4.260,10.811 4.278 M18.460 16.057 C 17.819 16.184,17.376 16.423,16.897 16.899 C 16.589 17.204,16.505 17.318,16.347 17.640 C 16.088 18.167,16.022 18.443,16.022 19.000 C 16.022 19.557,16.088 19.833,16.347 20.360 C 16.504 20.680,16.590 20.797,16.897 21.103 C 17.203 21.410,17.320 21.496,17.640 21.653 C 18.167 21.912,18.443 21.978,19.000 21.978 C 19.557 21.978,19.833 21.912,20.360 21.653 C 20.680 21.496,20.797 21.410,21.103 21.103 C 21.410 20.797,21.496 20.680,21.653 20.360 C 21.910 19.837,21.976 19.559,21.976 19.000 C 21.976 18.441,21.910 18.163,21.653 17.640 C 21.496 17.320,21.410 17.203,21.103 16.897 C 20.797 16.590,20.680 16.504,20.360 16.347 C 20.151 16.244,19.872 16.133,19.740 16.099 C 19.395 16.010,18.795 15.991,18.460 16.057 " fill="#1C274C" stroke="none" fill-rule="evenodd"></path></svg>