<svg width="24" height="24" viewBox="0 0 24 24" fill="none" xmlns="http://www.w3.org/2000/svg"><path d="M11.300 2.027 C 10.396 2.103,9.297 2.339,8.537 2.620 C 7.919 2.849,7.069 3.282,6.517 3.649 C 5.317 4.446,4.470 5.292,3.667 6.492 C 2.871 7.684,2.343 9.058,2.113 10.540 C 2.043 10.992,2.026 11.274,2.026 12.000 C 2.026 13.036,2.101 13.649,2.342 14.557 C 3.129 17.531,5.219 19.954,8.054 21.181 C 9.340 21.738,10.537 21.977,12.020 21.975 C 13.035 21.974,13.660 21.895,14.557 21.658 C 17.348 20.920,19.702 18.994,20.959 16.420 C 21.435 15.446,21.720 14.536,21.887 13.460 C 22.011 12.662,22.011 11.338,21.887 10.540 C 21.561 8.440,20.643 6.577,19.180 5.045 C 18.258 4.079,16.919 3.190,15.628 2.685 C 14.326 2.176,12.618 1.916,11.300 2.027 M14.280 6.335 C 14.423 6.372,14.729 6.494,14.960 6.607 C 15.335 6.789,15.422 6.853,15.784 7.216 C 16.147 7.578,16.211 7.665,16.393 8.040 C 16.664 8.596,16.735 8.899,16.735 9.500 C 16.735 10.101,16.664 10.404,16.393 10.960 C 16.211 11.335,16.147 11.422,15.784 11.784 C 15.422 12.147,15.335 12.211,14.960 12.393 C 14.271 12.728,14.254 12.731,12.390 12.749 L 10.760 12.766 10.760 13.003 L 10.760 13.240 11.410 13.240 C 12.125 13.240,12.295 13.271,12.484 13.430 C 12.910 13.788,12.813 14.448,12.300 14.684 C 12.164 14.747,12.035 14.758,11.450 14.759 L 10.760 14.760 10.760 15.941 C 10.760 16.917,10.749 17.148,10.698 17.271 C 10.431 17.911,9.569 17.911,9.302 17.271 C 9.251 17.148,9.240 16.917,9.240 15.941 L 9.240 14.760 9.059 14.760 C 8.723 14.760,8.450 14.591,8.316 14.300 C 8.082 13.795,8.471 13.240,9.059 13.240 L 9.240 13.240 9.240 13.000 L 9.240 12.760 9.059 12.760 C 8.723 12.760,8.450 12.591,8.316 12.300 C 8.084 11.798,8.468 11.244,9.050 11.241 L 9.240 11.240 9.240 9.565 C 9.240 8.608,9.257 7.800,9.280 7.678 C 9.407 7.011,9.988 6.415,10.640 6.283 C 10.739 6.262,11.540 6.251,12.420 6.256 C 13.771 6.265,14.060 6.277,14.280 6.335 M10.828 7.831 C 10.766 7.899,10.760 8.059,10.760 9.575 L 10.760 11.243 12.352 11.232 L 13.944 11.220 14.245 11.071 C 14.618 10.887,14.914 10.586,15.092 10.210 C 15.212 9.957,15.220 9.912,15.220 9.500 C 15.220 9.088,15.212 9.043,15.092 8.790 C 14.914 8.414,14.618 8.113,14.245 7.929 L 13.944 7.780 12.420 7.768 C 10.970 7.756,10.893 7.759,10.828 7.831 " fill="#1C274C" stroke="none" fill-rule="evenodd"></path></svg>