<svg width="24" height="24" viewBox="0 0 24 24" fill="none" xmlns="http://www.w3.org/2000/svg"><path d="M14.730 2.034 L 14.479 2.060 18.216 5.796 L 21.952 9.532 21.982 9.256 C 22.019 8.911,21.975 6.567,21.921 5.998 C 21.796 4.681,21.232 3.631,20.263 2.911 C 19.595 2.414,18.878 2.161,17.916 2.081 C 17.282 2.029,15.088 1.996,14.730 2.034 M11.780 2.343 C 9.603 2.749,7.869 3.448,6.400 4.511 C 5.846 4.913,4.909 5.851,4.503 6.411 C 3.408 7.924,2.691 9.748,2.311 11.991 L 2.221 12.521 6.850 17.150 L 11.479 21.779 12.009 21.689 C 14.252 21.309,16.076 20.592,17.589 19.497 C 18.154 19.087,19.087 18.154,19.497 17.589 C 20.592 16.076,21.309 14.252,21.689 12.009 L 21.779 11.479 17.159 6.859 C 13.023 2.723,12.528 2.240,12.420 2.243 C 12.354 2.245,12.066 2.290,11.780 2.343 M12.860 8.062 C 12.948 8.113,13.217 8.353,13.459 8.597 L 13.897 9.039 14.419 8.524 C 14.891 8.058,14.958 8.005,15.136 7.968 C 15.244 7.946,15.352 7.933,15.376 7.940 C 15.400 7.947,15.469 7.964,15.529 7.977 C 15.651 8.004,15.899 8.206,15.968 8.335 C 16.049 8.487,16.071 8.675,16.031 8.869 C 15.995 9.040,15.938 9.113,15.476 9.581 L 14.961 10.103 15.403 10.541 C 16.016 11.151,16.112 11.327,16.032 11.701 C 15.952 12.075,15.576 12.321,15.176 12.262 C 14.998 12.235,14.949 12.198,14.459 11.716 C 14.170 11.432,13.917 11.200,13.896 11.200 C 13.876 11.200,13.679 11.380,13.460 11.600 L 13.061 12.000 13.547 12.490 C 13.814 12.760,14.061 13.038,14.096 13.108 C 14.223 13.362,14.144 13.781,13.934 13.965 C 13.711 14.161,13.352 14.218,13.108 14.096 C 13.038 14.061,12.760 13.814,12.490 13.547 L 12.000 13.061 11.600 13.460 C 11.380 13.679,11.200 13.876,11.200 13.896 C 11.200 13.917,11.432 14.170,11.716 14.459 C 12.198 14.949,12.235 14.998,12.262 15.176 C 12.360 15.834,11.678 16.280,11.112 15.927 C 11.040 15.881,10.783 15.645,10.541 15.403 L 10.103 14.961 9.581 15.476 C 9.109 15.942,9.042 15.995,8.864 16.032 C 8.756 16.054,8.648 16.067,8.624 16.060 C 8.600 16.053,8.531 16.036,8.471 16.023 C 8.349 15.996,8.101 15.794,8.032 15.665 C 7.951 15.513,7.929 15.325,7.969 15.131 C 8.005 14.960,8.062 14.887,8.524 14.419 L 9.039 13.897 8.597 13.459 C 7.984 12.849,7.888 12.673,7.968 12.299 C 8.048 11.925,8.424 11.679,8.824 11.738 C 9.002 11.765,9.051 11.802,9.541 12.284 C 9.830 12.568,10.083 12.800,10.104 12.800 C 10.124 12.800,10.321 12.620,10.540 12.400 L 10.939 12.000 10.453 11.510 C 10.186 11.240,9.939 10.962,9.904 10.892 C 9.782 10.648,9.839 10.289,10.035 10.066 C 10.219 9.856,10.638 9.777,10.892 9.904 C 10.962 9.939,11.240 10.186,11.510 10.453 L 12.000 10.939 12.400 10.540 C 12.620 10.321,12.800 10.124,12.800 10.104 C 12.800 10.083,12.568 9.830,12.284 9.541 C 11.802 9.051,11.765 9.002,11.738 8.824 C 11.699 8.558,11.774 8.333,11.963 8.153 C 12.215 7.912,12.543 7.879,12.860 8.062 M2.019 14.944 C 1.984 15.487,2.018 17.127,2.080 17.900 C 2.165 18.963,2.458 19.727,3.057 20.450 C 3.782 21.323,4.791 21.814,6.080 21.919 C 6.782 21.976,8.794 22.011,9.190 21.972 L 9.521 21.940 5.785 18.204 L 2.049 14.469 2.019 14.944 " fill="#1C274C" stroke="none" fill-rule="evenodd"></path></svg>