<svg width="24" height="24" viewBox="0 0 24 24" fill="none" xmlns="http://www.w3.org/2000/svg"><path d="M4.153 2.044 C 3.140 2.122,2.606 2.395,2.305 2.989 C 2.048 3.497,2.000 4.031,2.000 6.388 L 2.000 8.236 3.610 8.248 L 5.220 8.260 5.373 8.355 C 5.615 8.506,5.733 8.718,5.733 9.003 C 5.733 9.203,5.714 9.270,5.616 9.409 C 5.378 9.748,5.432 9.738,3.610 9.752 L 2.000 9.763 2.000 10.499 L 2.000 11.234 3.113 11.247 L 4.226 11.260 4.388 11.367 C 4.628 11.526,4.733 11.721,4.733 12.007 C 4.733 12.203,4.714 12.271,4.616 12.409 C 4.388 12.734,4.367 12.738,3.110 12.752 L 2.000 12.765 2.000 13.500 L 2.000 14.236 3.610 14.248 L 5.220 14.260 5.373 14.355 C 5.615 14.506,5.733 14.718,5.733 15.003 C 5.733 15.203,5.714 15.270,5.616 15.409 C 5.378 15.748,5.432 15.738,3.610 15.752 L 2.000 15.763 2.000 16.499 L 2.000 17.234 3.113 17.247 L 4.226 17.260 4.388 17.367 C 4.628 17.526,4.733 17.721,4.733 18.007 C 4.733 18.203,4.714 18.271,4.616 18.409 C 4.388 18.734,4.368 18.738,3.104 18.752 L 1.988 18.765 2.011 19.512 C 2.044 20.590,2.143 20.928,2.553 21.368 C 2.798 21.632,3.055 21.785,3.423 21.888 C 3.728 21.974,3.805 21.977,5.500 21.977 C 7.195 21.977,7.272 21.974,7.577 21.888 C 7.956 21.782,8.212 21.626,8.474 21.339 C 8.692 21.101,8.810 20.875,8.908 20.509 C 8.968 20.285,8.977 19.743,8.999 15.040 C 9.017 11.267,9.036 9.784,9.069 9.689 C 9.181 9.369,9.369 9.181,9.689 9.069 C 9.784 9.036,11.264 9.017,15.040 9.000 L 20.260 8.977 20.577 8.889 C 20.956 8.782,21.212 8.626,21.474 8.339 C 21.697 8.095,21.813 7.869,21.911 7.488 C 21.971 7.254,21.980 7.000,21.978 5.480 C 21.977 3.810,21.973 3.727,21.888 3.423 C 21.694 2.727,21.186 2.247,20.485 2.097 C 20.339 2.066,19.893 2.029,19.493 2.014 L 18.766 1.988 18.753 3.110 L 18.740 4.233 18.619 4.405 C 18.453 4.642,18.273 4.739,18.000 4.739 C 17.727 4.739,17.547 4.642,17.381 4.405 L 17.260 4.233 17.247 3.117 L 17.234 2.000 16.499 2.000 L 15.764 2.000 15.752 3.617 L 15.740 5.233 15.619 5.405 C 15.453 5.642,15.273 5.739,15.000 5.739 C 14.727 5.739,14.547 5.642,14.381 5.405 L 14.260 5.233 14.248 3.617 L 14.236 2.000 13.501 2.000 L 12.766 2.000 12.753 3.117 L 12.740 4.233 12.619 4.405 C 12.453 4.642,12.273 4.739,12.000 4.739 C 11.727 4.739,11.547 4.642,11.381 4.405 L 11.260 4.233 11.247 3.117 L 11.234 2.000 10.499 2.000 L 9.764 2.000 9.752 3.617 L 9.740 5.233 9.619 5.405 C 9.453 5.642,9.273 5.739,9.000 5.739 C 8.727 5.739,8.547 5.642,8.381 5.405 L 8.260 5.233 8.248 3.617 L 8.236 2.000 6.408 2.006 C 5.403 2.009,4.388 2.026,4.153 2.044 " fill="#1C274C" stroke="none" fill-rule="evenodd"></path></svg>