<svg width="24" height="24" viewBox="0 0 24 24" fill="none" xmlns="http://www.w3.org/2000/svg"><path d="M15.204 2.063 C 14.771 2.180,14.343 2.478,13.624 3.165 L 13.154 3.613 13.953 4.417 C 14.392 4.859,14.774 5.265,14.802 5.320 C 14.887 5.485,14.867 5.847,14.764 6.014 C 14.585 6.304,14.262 6.436,13.932 6.355 C 13.758 6.312,13.664 6.233,12.919 5.495 L 12.097 4.681 11.569 5.211 L 11.040 5.741 12.163 6.860 C 12.784 7.479,13.322 8.050,13.367 8.137 C 13.488 8.369,13.456 8.707,13.295 8.909 C 13.228 8.992,13.113 9.091,13.037 9.130 C 12.855 9.223,12.554 9.220,12.368 9.123 C 12.287 9.080,11.716 8.540,11.100 7.923 L 9.981 6.800 9.451 7.329 L 8.921 7.857 9.736 8.679 C 10.491 9.441,10.553 9.514,10.591 9.691 C 10.712 10.270,10.232 10.747,9.676 10.600 C 9.524 10.559,9.388 10.441,8.679 9.737 L 7.858 8.921 7.329 9.451 L 6.800 9.981 7.923 11.100 C 8.544 11.719,9.082 12.290,9.127 12.377 C 9.190 12.497,9.205 12.587,9.192 12.763 C 9.157 13.246,8.740 13.540,8.263 13.419 C 8.085 13.374,7.982 13.281,6.905 12.205 L 5.739 11.040 5.210 11.570 L 4.680 12.101 5.443 12.860 C 5.862 13.278,6.242 13.691,6.287 13.777 C 6.521 14.226,6.237 14.783,5.734 14.863 C 5.412 14.914,5.323 14.853,4.437 13.974 L 3.615 13.157 3.237 13.549 C 2.522 14.290,2.214 14.716,2.079 15.151 C 1.891 15.761,2.036 16.264,2.611 16.994 C 2.884 17.340,5.948 20.439,6.620 21.049 C 7.999 22.299,8.746 22.313,10.080 21.111 C 10.574 20.666,21.136 10.082,21.348 9.820 C 21.625 9.478,21.838 9.116,21.921 8.849 C 22.137 8.148,21.912 7.573,21.049 6.620 C 20.405 5.909,17.247 2.798,16.920 2.552 C 16.254 2.051,15.766 1.912,15.204 2.063 " fill="#1C274C" stroke="none" fill-rule="evenodd"></path></svg>