<svg width="24" height="24" viewBox="0 0 24 24" fill="none" xmlns="http://www.w3.org/2000/svg"><path d="M8.024 2.045 C 7.788 2.100,7.415 2.301,7.080 2.552 C 6.753 2.798,3.595 5.909,2.951 6.620 C 2.087 7.573,1.863 8.147,2.080 8.851 C 2.227 9.327,2.693 9.927,3.646 10.870 L 4.061 11.279 7.673 7.668 L 11.284 4.056 10.630 3.415 C 9.733 2.535,9.254 2.185,8.782 2.062 C 8.520 1.994,8.265 1.988,8.024 2.045 M17.600 2.025 C 17.017 2.100,16.255 2.400,15.776 2.741 C 15.635 2.842,15.266 3.171,14.957 3.472 L 14.393 4.020 14.519 4.360 C 14.824 5.191,15.407 6.177,16.030 6.920 C 16.948 8.014,18.165 8.892,19.498 9.422 L 19.977 9.612 20.479 9.094 C 21.082 8.474,21.308 8.188,21.539 7.750 C 22.207 6.482,22.127 4.965,21.328 3.761 C 20.615 2.687,19.492 2.063,18.200 2.022 C 17.947 2.014,17.677 2.015,17.600 2.025 M9.113 9.312 C 6.622 11.809,4.913 13.553,4.754 13.760 C 4.421 14.195,4.168 14.607,3.957 15.057 C 3.865 15.254,3.386 16.622,2.892 18.097 C 2.055 20.602,1.997 20.795,2.014 21.007 C 2.059 21.565,2.530 22.000,3.088 22.000 C 3.267 22.000,8.501 20.250,8.947 20.041 C 9.393 19.832,9.807 19.578,10.240 19.245 C 10.446 19.088,12.205 17.364,14.688 14.887 L 18.796 10.788 18.188 10.483 C 17.099 9.935,16.355 9.396,15.480 8.520 C 14.604 7.645,14.056 6.889,13.516 5.812 L 13.212 5.204 9.113 9.312 M16.329 16.330 L 12.717 19.943 13.329 20.544 C 14.269 21.469,14.742 21.816,15.243 21.944 C 15.905 22.113,16.474 21.869,17.420 21.009 C 17.959 20.519,20.941 17.519,21.246 17.160 C 21.850 16.449,22.064 15.922,21.971 15.376 C 21.878 14.831,21.538 14.340,20.587 13.373 L 19.940 12.716 16.329 16.330 " fill="#1C274C" stroke="none" fill-rule="evenodd"></path></svg>