<svg width="24" height="24" viewBox="0 0 24 24" fill="none" xmlns="http://www.w3.org/2000/svg"><path d="M4.440 2.058 C 3.799 2.196,3.368 2.430,2.897 2.899 C 2.589 3.204,2.505 3.318,2.347 3.640 C 2.063 4.218,2.023 4.417,2.021 5.259 L 2.020 5.977 2.451 6.152 C 3.368 6.523,4.216 6.665,5.280 6.627 C 6.189 6.595,6.988 6.414,7.775 6.062 L 8.010 5.957 7.989 5.228 C 7.966 4.386,7.926 4.196,7.653 3.640 C 7.496 3.320,7.410 3.203,7.103 2.897 C 6.797 2.590,6.680 2.504,6.360 2.347 C 6.151 2.244,5.872 2.132,5.740 2.098 C 5.403 2.009,4.759 1.990,4.440 2.058 M14.153 2.044 C 13.358 2.105,12.878 2.280,12.562 2.622 C 12.205 3.010,12.057 3.541,12.014 4.587 L 11.988 5.234 13.104 5.247 C 14.198 5.260,14.223 5.262,14.373 5.355 C 14.615 5.506,14.733 5.718,14.733 6.003 C 14.733 6.203,14.714 6.270,14.616 6.409 C 14.388 6.734,14.367 6.738,13.110 6.752 L 12.000 6.765 12.000 7.500 L 12.000 8.236 13.610 8.248 L 15.220 8.260 15.373 8.355 C 15.615 8.506,15.733 8.718,15.733 9.003 C 15.733 9.203,15.714 9.270,15.616 9.409 C 15.378 9.748,15.432 9.738,13.610 9.752 L 12.000 9.763 12.000 10.499 L 12.000 11.234 13.113 11.247 L 14.226 11.260 14.388 11.367 C 14.628 11.526,14.733 11.721,14.733 12.007 C 14.733 12.203,14.714 12.271,14.616 12.409 C 14.388 12.734,14.367 12.738,13.110 12.752 L 12.000 12.765 12.000 13.500 L 12.000 14.236 13.610 14.248 L 15.220 14.260 15.373 14.355 C 15.615 14.506,15.733 14.718,15.733 15.003 C 15.733 15.203,15.714 15.270,15.616 15.409 C 15.378 15.748,15.432 15.738,13.610 15.752 L 12.000 15.763 12.000 16.499 L 12.000 17.234 13.113 17.247 L 14.226 17.260 14.388 17.367 C 14.628 17.526,14.733 17.721,14.733 18.007 C 14.733 18.203,14.714 18.271,14.616 18.409 C 14.388 18.734,14.368 18.738,13.104 18.752 L 11.988 18.765 12.014 19.412 C 12.082 21.077,12.473 21.670,13.660 21.908 C 13.988 21.974,14.288 21.980,17.000 21.980 C 19.712 21.980,20.012 21.974,20.340 21.908 C 21.282 21.719,21.729 21.270,21.906 20.333 C 21.977 19.958,21.980 19.568,21.980 12.000 C 21.980 4.432,21.977 4.042,21.906 3.667 C 21.742 2.798,21.315 2.318,20.549 2.141 C 20.411 2.109,20.055 2.064,19.759 2.041 C 19.132 1.993,14.782 1.996,14.153 2.044 M2.011 11.870 C 2.026 16.952,2.009 16.598,2.266 17.413 C 2.321 17.586,2.814 18.624,3.361 19.720 C 4.415 21.830,4.423 21.843,4.756 21.954 C 4.831 21.980,4.948 22.000,5.016 22.000 C 5.194 21.999,5.534 21.829,5.631 21.693 C 5.799 21.457,7.642 17.704,7.736 17.406 C 7.990 16.599,7.975 16.948,7.989 11.870 C 7.997 9.324,7.992 7.240,7.978 7.240 C 7.965 7.240,7.798 7.295,7.607 7.363 C 6.812 7.644,5.882 7.800,5.000 7.800 C 4.118 7.800,3.188 7.644,2.393 7.363 C 2.202 7.295,2.035 7.240,2.022 7.240 C 2.008 7.240,2.003 9.324,2.011 11.870 " fill="#1C274C" stroke="none" fill-rule="evenodd"></path></svg>