<svg width="24" height="24" viewBox="0 0 24 24" fill="none" xmlns="http://www.w3.org/2000/svg"><path d="M17.720 2.059 C 17.021 2.217,16.331 2.748,16.031 3.360 C 15.845 3.739,15.761 4.092,15.761 4.500 C 15.761 5.196,15.997 5.760,16.499 6.261 C 16.866 6.628,17.163 6.794,17.687 6.927 C 18.285 7.078,18.969 6.975,19.511 6.653 C 20.030 6.345,20.439 5.836,20.627 5.263 C 20.780 4.800,20.780 4.200,20.627 3.737 C 20.377 2.978,19.796 2.393,19.033 2.135 C 18.659 2.008,18.092 1.976,17.720 2.059 M9.861 5.923 C 9.064 6.033,8.266 6.320,7.100 6.917 C 6.211 7.372,3.384 8.968,3.245 9.094 C 3.129 9.198,3.002 9.463,3.001 9.600 C 2.998 10.079,3.451 10.461,3.902 10.360 C 3.978 10.342,4.693 9.959,5.490 9.509 C 7.762 8.224,8.403 7.894,9.140 7.630 C 10.157 7.265,11.063 7.329,12.081 7.839 C 12.475 8.037,12.888 8.322,12.865 8.381 C 12.854 8.409,12.273 9.150,11.573 10.026 C 10.164 11.790,9.990 12.023,9.763 12.448 C 9.530 12.881,9.464 13.148,9.464 13.640 C 9.465 14.519,9.762 15.131,10.495 15.766 C 10.674 15.921,11.187 16.327,11.635 16.669 C 12.733 17.507,12.963 17.728,13.161 18.137 C 13.261 18.344,13.332 18.562,13.358 18.740 C 13.380 18.894,13.399 19.718,13.399 20.571 C 13.400 22.237,13.406 22.293,13.612 22.513 C 13.947 22.872,14.587 22.779,14.799 22.342 C 14.885 22.165,14.886 22.145,14.869 20.331 C 14.855 18.746,14.843 18.463,14.782 18.225 C 14.606 17.542,14.237 16.912,13.741 16.448 C 13.576 16.294,13.067 15.883,12.610 15.534 C 11.119 14.396,10.955 14.211,10.955 13.665 C 10.955 13.364,11.043 13.155,11.349 12.726 C 11.649 12.304,13.964 9.420,14.001 9.420 C 14.050 9.420,14.525 10.025,14.877 10.535 C 15.238 11.059,15.584 11.438,15.971 11.734 C 16.571 12.194,17.204 12.486,17.960 12.651 C 18.300 12.726,18.478 12.735,19.640 12.737 L 20.940 12.740 21.126 12.631 C 21.255 12.555,21.338 12.468,21.396 12.348 C 21.573 11.984,21.457 11.564,21.126 11.369 L 20.940 11.260 19.600 11.237 C 18.350 11.215,18.241 11.208,17.980 11.123 C 17.229 10.879,16.642 10.445,16.183 9.795 C 15.552 8.900,15.225 8.502,14.662 7.939 C 13.809 7.088,13.067 6.586,12.159 6.243 C 11.413 5.962,10.500 5.835,9.861 5.923 M8.571 16.279 C 8.500 16.296,8.397 16.339,8.342 16.375 C 8.288 16.411,7.840 16.921,7.348 17.510 C 6.324 18.733,6.063 18.994,5.731 19.124 C 5.510 19.211,5.437 19.216,4.020 19.238 C 2.424 19.262,2.421 19.263,2.212 19.487 C 2.097 19.609,2.000 19.845,2.000 20.000 C 2.000 20.155,2.097 20.391,2.212 20.513 C 2.412 20.728,2.472 20.739,3.477 20.753 C 4.636 20.770,5.595 20.711,5.993 20.600 C 6.547 20.445,7.018 20.145,7.486 19.649 C 7.860 19.252,9.344 17.467,9.417 17.325 C 9.514 17.139,9.498 16.818,9.384 16.623 C 9.230 16.360,8.871 16.208,8.571 16.279 " fill="#1C274C" stroke="none" fill-rule="evenodd"></path></svg>