<svg width="24" height="24" viewBox="0 0 24 24" fill="none" xmlns="http://www.w3.org/2000/svg"><path d="M17.965 2.059 C 17.449 2.176,16.869 2.534,16.559 2.926 C 15.420 4.367,16.127 6.467,17.904 6.921 C 19.010 7.204,20.214 6.654,20.715 5.638 C 21.090 4.876,21.090 4.124,20.716 3.363 C 20.434 2.793,19.868 2.314,19.240 2.116 C 18.899 2.008,18.305 1.982,17.965 2.059 M10.099 5.528 C 9.633 5.564,9.265 5.682,8.320 6.102 C 6.843 6.758,6.393 7.022,4.686 8.233 C 3.341 9.187,3.270 9.256,3.267 9.610 C 3.264 9.989,3.481 10.275,3.834 10.354 C 4.150 10.425,4.260 10.369,5.436 9.530 C 7.118 8.331,7.576 8.063,9.062 7.407 C 9.811 7.076,10.073 7.000,10.458 7.001 C 11.058 7.002,11.574 7.211,12.006 7.629 C 12.801 8.396,12.906 9.647,12.249 10.509 C 12.145 10.645,11.742 11.045,11.354 11.398 C 10.568 12.110,10.361 12.373,10.149 12.929 C 10.027 13.247,10.022 13.283,10.022 13.860 C 10.022 14.434,10.027 14.474,10.145 14.781 C 10.357 15.335,10.599 15.665,11.072 16.046 C 12.226 16.977,12.923 17.928,13.319 19.111 C 13.555 19.815,13.603 20.135,13.635 21.200 C 13.667 22.283,13.691 22.393,13.936 22.580 C 14.381 22.919,15.006 22.683,15.122 22.134 C 15.182 21.846,15.147 20.616,15.061 20.013 C 14.780 18.042,13.774 16.305,12.165 15.009 C 11.625 14.575,11.452 14.257,11.487 13.768 C 11.519 13.330,11.642 13.156,12.413 12.458 C 13.373 11.589,13.729 11.128,13.964 10.450 C 14.168 9.862,14.222 9.055,14.096 8.448 C 13.817 7.091,12.746 5.968,11.402 5.620 C 11.055 5.531,10.538 5.494,10.099 5.528 M15.785 11.289 C 15.572 11.346,15.344 11.583,15.289 11.804 C 15.203 12.151,15.360 12.515,15.656 12.655 C 15.824 12.735,16.399 12.858,16.920 12.926 C 17.959 13.060,19.796 12.915,20.344 12.655 C 20.777 12.450,20.869 11.829,20.520 11.480 C 20.284 11.244,20.117 11.222,19.496 11.343 C 18.533 11.533,17.464 11.532,16.500 11.343 C 16.214 11.286,15.971 11.242,15.960 11.244 C 15.949 11.246,15.870 11.267,15.785 11.289 M8.780 16.289 C 8.664 16.320,8.559 16.399,8.400 16.573 C 7.393 17.676,6.894 18.085,6.020 18.520 C 5.113 18.973,4.365 19.174,3.362 19.237 C 2.748 19.276,2.578 19.330,2.420 19.536 C 2.095 19.963,2.316 20.604,2.827 20.713 C 3.055 20.762,3.865 20.715,4.420 20.620 C 6.067 20.339,7.667 19.497,8.845 18.293 C 9.388 17.737,9.665 17.383,9.716 17.177 C 9.856 16.624,9.343 16.137,8.780 16.289 " fill="#1C274C" stroke="none" fill-rule="evenodd"></path></svg>