<svg width="24" height="24" viewBox="0 0 24 24" fill="none" xmlns="http://www.w3.org/2000/svg"><path d="M17.720 2.059 C 17.021 2.217,16.331 2.748,16.031 3.360 C 15.845 3.739,15.761 4.092,15.761 4.500 C 15.761 5.196,15.997 5.760,16.499 6.261 C 16.866 6.628,17.163 6.794,17.687 6.927 C 18.285 7.078,18.969 6.975,19.511 6.653 C 20.030 6.345,20.439 5.836,20.627 5.263 C 20.780 4.800,20.780 4.200,20.627 3.737 C 20.377 2.978,19.796 2.393,19.033 2.135 C 18.659 2.008,18.092 1.976,17.720 2.059 M9.820 5.935 C 8.989 6.057,8.242 6.328,7.060 6.936 C 6.187 7.385,3.378 8.974,3.245 9.094 C 3.129 9.198,3.002 9.463,3.001 9.600 C 2.998 10.079,3.451 10.461,3.902 10.360 C 3.978 10.342,4.693 9.959,5.490 9.509 C 7.762 8.224,8.403 7.894,9.140 7.630 C 9.859 7.372,10.697 7.313,11.320 7.476 C 11.744 7.587,12.959 8.068,13.303 8.260 C 13.968 8.632,14.444 9.134,14.875 9.917 C 15.695 11.408,17.011 12.379,18.602 12.665 C 18.886 12.716,19.223 12.734,19.960 12.737 L 20.940 12.740 21.126 12.631 C 21.598 12.353,21.598 11.647,21.126 11.369 L 20.940 11.260 19.880 11.235 C 18.724 11.208,18.544 11.178,17.974 10.920 C 17.286 10.608,16.615 9.979,16.242 9.298 C 15.694 8.294,15.187 7.716,14.380 7.172 C 13.833 6.804,12.498 6.240,11.685 6.034 C 11.121 5.891,10.386 5.853,9.820 5.935 M12.571 10.279 C 12.389 10.322,12.339 10.360,11.600 11.022 C 10.788 11.749,10.296 12.248,10.103 12.539 C 9.609 13.282,9.618 14.424,10.125 15.263 C 10.321 15.588,10.829 16.055,11.762 16.768 C 12.661 17.455,12.974 17.753,13.139 18.078 C 13.375 18.543,13.372 18.518,13.397 20.440 C 13.421 22.322,13.419 22.297,13.615 22.514 C 13.940 22.872,14.588 22.779,14.799 22.343 C 14.884 22.166,14.885 22.143,14.870 20.312 C 14.856 18.537,14.852 18.447,14.766 18.145 C 14.576 17.479,14.241 16.921,13.755 16.460 C 13.593 16.306,13.120 15.920,12.704 15.604 C 11.743 14.872,11.388 14.539,11.303 14.291 C 11.225 14.063,11.221 13.642,11.295 13.466 C 11.366 13.296,11.814 12.842,12.640 12.104 C 13.003 11.779,13.340 11.448,13.390 11.367 C 13.516 11.161,13.513 10.844,13.384 10.623 C 13.230 10.360,12.871 10.208,12.571 10.279 M8.571 16.279 C 8.500 16.296,8.397 16.339,8.342 16.375 C 8.288 16.411,7.840 16.921,7.348 17.510 C 6.324 18.733,6.063 18.994,5.731 19.124 C 5.510 19.211,5.437 19.216,4.020 19.238 C 2.424 19.262,2.421 19.263,2.212 19.487 C 2.097 19.609,2.000 19.845,2.000 20.000 C 2.000 20.155,2.097 20.391,2.212 20.513 C 2.412 20.728,2.472 20.739,3.477 20.753 C 4.636 20.770,5.595 20.711,5.993 20.600 C 6.547 20.445,7.018 20.145,7.486 19.649 C 7.860 19.252,9.344 17.467,9.417 17.325 C 9.514 17.139,9.498 16.818,9.384 16.623 C 9.230 16.360,8.871 16.208,8.571 16.279 " fill="#1C274C" stroke="none" fill-rule="evenodd"></path></svg>