<svg width="24" height="24" viewBox="0 0 24 24" fill="none" xmlns="http://www.w3.org/2000/svg"><path d="M11.120 2.039 C 9.316 2.220,7.707 2.807,6.280 3.806 C 2.738 6.286,1.178 10.759,2.422 14.865 C 2.918 16.499,3.728 17.850,4.939 19.061 C 5.928 20.050,7.038 20.788,8.272 21.278 C 11.634 22.610,15.313 22.080,18.200 19.845 C 18.637 19.507,19.507 18.637,19.845 18.200 C 21.255 16.379,22.000 14.234,22.000 12.000 C 22.000 7.432,18.842 3.387,14.430 2.303 C 13.446 2.062,12.028 1.948,11.120 2.039 M9.306 9.083 C 10.066 9.451,10.235 10.971,9.596 11.698 C 9.252 12.090,8.748 12.090,8.404 11.698 C 7.764 10.970,7.930 9.460,8.691 9.084 C 8.905 8.978,9.088 8.978,9.306 9.083 M15.306 9.083 C 16.066 9.451,16.235 10.971,15.596 11.698 C 15.252 12.090,14.748 12.090,14.404 11.698 C 13.764 10.970,13.930 9.460,14.691 9.084 C 14.905 8.978,15.088 8.978,15.306 9.083 M12.981 15.342 C 13.480 15.428,13.983 15.587,14.430 15.800 C 14.949 16.047,15.480 16.392,15.599 16.558 C 15.981 17.095,15.521 17.848,14.876 17.739 C 14.790 17.725,14.590 17.627,14.430 17.522 C 13.909 17.178,13.455 16.982,12.840 16.833 C 12.547 16.763,11.453 16.763,11.160 16.833 C 10.545 16.982,10.091 17.178,9.570 17.522 C 9.410 17.627,9.210 17.725,9.124 17.739 C 8.479 17.848,8.019 17.095,8.401 16.558 C 8.507 16.409,9.001 16.079,9.460 15.850 C 10.526 15.318,11.785 15.136,12.981 15.342 " fill="#1C274C" stroke="none" fill-rule="evenodd"></path></svg>