<svg width="24" height="24" viewBox="0 0 24 24" fill="none" xmlns="http://www.w3.org/2000/svg"><path d="M8.419 2.041 C 5.785 2.145,4.480 2.507,3.549 3.393 C 2.551 4.342,2.166 5.587,2.041 8.260 C 1.988 9.399,1.988 14.601,2.041 15.740 C 2.160 18.285,2.507 19.501,3.379 20.433 C 4.245 21.360,5.318 21.742,7.580 21.927 C 8.488 22.002,15.512 22.002,16.420 21.927 C 18.857 21.727,19.992 21.275,20.860 20.157 C 21.474 19.368,21.771 18.329,21.927 16.420 C 22.002 15.512,22.002 8.488,21.927 7.580 C 21.740 5.297,21.356 4.232,20.407 3.355 C 19.572 2.585,18.492 2.242,16.380 2.078 C 15.684 2.023,9.573 1.995,8.419 2.041 M9.306 9.083 C 10.066 9.451,10.235 10.971,9.596 11.698 C 9.252 12.090,8.748 12.090,8.404 11.698 C 7.764 10.970,7.930 9.460,8.691 9.084 C 8.905 8.978,9.088 8.978,9.306 9.083 M15.306 9.083 C 16.066 9.451,16.235 10.971,15.596 11.698 C 15.252 12.090,14.748 12.090,14.404 11.698 C 13.764 10.970,13.930 9.460,14.691 9.084 C 14.905 8.978,15.088 8.978,15.306 9.083 M12.981 15.342 C 13.480 15.428,13.983 15.587,14.430 15.800 C 14.949 16.047,15.480 16.392,15.599 16.558 C 15.981 17.095,15.521 17.848,14.876 17.739 C 14.790 17.725,14.590 17.627,14.430 17.522 C 13.909 17.178,13.455 16.982,12.840 16.833 C 12.547 16.763,11.453 16.763,11.160 16.833 C 10.545 16.982,10.091 17.178,9.570 17.522 C 9.410 17.627,9.210 17.725,9.124 17.739 C 8.479 17.848,8.019 17.095,8.401 16.558 C 8.507 16.409,9.001 16.079,9.460 15.850 C 10.526 15.318,11.785 15.136,12.981 15.342 " fill="#1C274C" stroke="none" fill-rule="evenodd"></path></svg>