<svg width="24" height="24" viewBox="0 0 24 24" fill="none" xmlns="http://www.w3.org/2000/svg"><path d="M8.440 2.043 C 7.012 2.094,5.996 2.226,5.213 2.462 C 3.811 2.885,2.890 3.808,2.459 5.221 C 2.103 6.387,2.001 7.900,2.001 12.000 C 2.001 16.100,2.103 17.613,2.459 18.779 C 2.891 20.195,3.805 21.109,5.221 21.541 C 6.387 21.897,7.900 21.999,12.000 21.999 C 16.100 21.999,17.613 21.897,18.779 21.541 C 20.195 21.109,21.109 20.195,21.541 18.779 C 21.897 17.613,21.999 16.101,21.999 11.980 C 21.999 7.887,21.899 6.409,21.538 5.213 C 21.116 3.814,20.186 2.884,18.787 2.462 C 17.969 2.215,17.046 2.101,15.393 2.041 C 14.150 1.996,9.732 1.997,8.440 2.043 M15.360 4.280 C 16.182 4.326,16.582 4.375,17.020 4.486 C 18.388 4.830,19.184 5.628,19.519 6.990 C 19.715 7.788,19.758 8.694,19.758 12.000 C 19.758 14.577,19.727 15.714,19.638 16.380 C 19.403 18.135,18.564 19.137,17.010 19.519 C 16.212 19.715,15.306 19.758,12.000 19.758 C 8.098 19.758,7.317 19.698,6.380 19.323 C 5.694 19.048,5.130 18.544,4.822 17.931 C 4.721 17.730,4.718 17.728,4.561 17.749 C 4.345 17.778,4.017 17.616,3.880 17.414 L 3.780 17.266 3.769 15.533 C 3.759 14.078,3.767 13.783,3.816 13.688 C 3.889 13.547,4.118 13.320,4.188 13.320 C 4.263 13.320,4.265 10.681,4.190 10.679 C 4.116 10.677,3.979 10.552,3.863 10.380 L 3.760 10.229 3.760 8.533 C 3.760 7.199,3.772 6.810,3.814 6.708 C 3.929 6.434,4.310 6.208,4.584 6.253 C 4.716 6.274,4.721 6.270,4.865 5.996 C 5.048 5.647,5.443 5.217,5.795 4.983 C 6.436 4.557,7.242 4.353,8.556 4.282 C 9.379 4.237,14.563 4.236,15.360 4.280 M8.348 5.805 C 7.433 5.871,6.798 6.062,6.451 6.375 C 6.137 6.659,5.931 7.198,5.832 8.000 C 5.757 8.602,5.757 15.398,5.832 16.000 C 6.019 17.516,6.484 17.981,8.000 18.168 C 8.602 18.243,15.398 18.243,16.000 18.168 C 17.477 17.985,17.936 17.557,18.148 16.160 C 18.201 15.810,18.215 15.198,18.230 12.480 C 18.253 8.223,18.207 7.514,17.861 6.815 C 17.539 6.162,16.945 5.900,15.560 5.802 C 14.872 5.753,9.039 5.756,8.348 5.805 M12.580 7.284 C 13.608 7.410,14.548 7.868,15.314 8.615 C 17.036 10.296,17.234 12.970,15.778 14.880 C 15.548 15.181,14.951 15.747,14.660 15.940 C 14.138 16.285,13.461 16.562,12.840 16.684 C 12.505 16.750,11.495 16.750,11.160 16.684 C 10.542 16.563,9.872 16.289,9.340 15.942 C 9.031 15.739,8.261 14.969,8.058 14.660 C 7.711 14.128,7.437 13.458,7.316 12.840 C 7.250 12.505,7.250 11.495,7.316 11.160 C 7.438 10.539,7.714 9.864,8.060 9.340 C 8.319 8.948,8.936 8.341,9.365 8.055 C 10.333 7.410,11.441 7.145,12.580 7.284 M10.972 8.920 C 10.479 9.095,10.110 9.328,9.736 9.699 C 9.311 10.120,9.099 10.457,8.916 11.000 C 8.807 11.325,8.786 11.453,8.770 11.880 C 8.761 12.155,8.768 12.418,8.786 12.464 C 8.819 12.546,8.831 12.543,9.290 12.348 L 9.760 12.148 9.760 11.922 C 9.760 11.174,10.279 10.352,10.970 10.004 L 11.240 9.868 11.240 9.354 C 11.240 9.071,11.227 8.841,11.210 8.843 C 11.193 8.845,11.087 8.879,10.972 8.920 M12.760 9.357 L 12.760 9.869 13.029 10.001 C 13.717 10.340,14.238 11.158,14.240 11.901 L 14.240 12.142 14.718 12.346 L 15.197 12.551 15.224 12.369 C 15.262 12.114,15.217 11.465,15.141 11.180 C 14.862 10.127,13.984 9.208,12.970 8.907 L 12.760 8.844 12.760 9.357 M9.881 13.728 C 9.629 13.836,9.414 13.933,9.403 13.943 C 9.364 13.983,10.071 14.629,10.305 14.766 C 11.647 15.556,13.276 15.341,14.343 14.234 L 14.620 13.946 14.450 13.871 C 14.356 13.830,14.140 13.737,13.969 13.664 L 13.659 13.531 13.459 13.708 C 13.227 13.914,12.790 14.134,12.488 14.196 C 11.994 14.298,11.474 14.235,11.020 14.018 C 10.866 13.945,10.650 13.805,10.540 13.708 L 10.340 13.532 9.881 13.728 " fill="#1C274C" stroke="none" fill-rule="evenodd"></path></svg>