<svg width="24" height="24" viewBox="0 0 24 24" fill="none" xmlns="http://www.w3.org/2000/svg"><path d="M11.300 2.027 C 10.396 2.103,9.297 2.339,8.537 2.620 C 7.919 2.849,7.069 3.282,6.517 3.649 C 5.317 4.446,4.470 5.292,3.667 6.492 C 2.871 7.684,2.343 9.058,2.113 10.540 C 2.043 10.992,2.026 11.274,2.026 12.000 C 2.026 13.036,2.101 13.649,2.342 14.557 C 3.129 17.531,5.219 19.954,8.054 21.181 C 9.340 21.738,10.537 21.977,12.020 21.975 C 13.035 21.974,13.660 21.895,14.557 21.658 C 17.348 20.920,19.702 18.994,20.959 16.420 C 21.435 15.446,21.720 14.536,21.887 13.460 C 22.011 12.662,22.011 11.338,21.887 10.540 C 21.561 8.440,20.643 6.577,19.180 5.045 C 18.258 4.079,16.919 3.190,15.628 2.685 C 14.326 2.176,12.618 1.916,11.300 2.027 M7.209 7.282 C 7.408 7.337,7.595 7.501,7.685 7.698 C 7.755 7.852,7.758 8.069,7.758 12.000 C 7.758 15.941,7.755 16.148,7.684 16.300 C 7.406 16.904,6.594 16.904,6.316 16.300 C 6.245 16.148,6.242 15.940,6.241 12.009 C 6.240 8.369,6.247 7.860,6.302 7.729 C 6.384 7.532,6.506 7.405,6.700 7.316 C 6.883 7.231,6.998 7.223,7.209 7.282 M11.300 8.317 C 11.395 8.361,11.704 8.637,12.057 8.993 L 12.654 9.595 12.797 9.521 C 13.487 9.169,14.513 9.169,15.203 9.521 L 15.346 9.595 15.943 8.993 C 16.296 8.637,16.605 8.361,16.700 8.317 C 17.084 8.137,17.527 8.320,17.698 8.729 C 17.860 9.116,17.758 9.311,17.007 10.057 L 16.405 10.654 16.479 10.797 C 16.831 11.487,16.831 12.513,16.479 13.203 L 16.405 13.346 17.007 13.943 C 17.758 14.689,17.860 14.884,17.698 15.271 C 17.579 15.557,17.290 15.758,17.000 15.758 C 16.744 15.758,16.556 15.625,15.943 15.007 L 15.346 14.405 15.203 14.479 C 14.513 14.831,13.487 14.831,12.797 14.479 L 12.654 14.405 12.057 15.007 C 11.311 15.758,11.116 15.860,10.729 15.698 C 10.443 15.579,10.242 15.290,10.242 15.000 C 10.242 14.744,10.375 14.556,10.993 13.943 L 11.595 13.346 11.521 13.203 C 11.169 12.513,11.169 11.487,11.521 10.797 L 11.595 10.654 10.993 10.057 C 10.637 9.704,10.361 9.395,10.317 9.300 C 10.141 8.924,10.307 8.497,10.700 8.316 C 10.904 8.222,11.098 8.222,11.300 8.317 M13.591 10.819 C 13.076 11.014,12.760 11.466,12.760 12.004 C 12.760 13.104,14.099 13.657,14.878 12.878 C 15.481 12.275,15.308 11.255,14.539 10.879 C 14.296 10.760,13.824 10.730,13.591 10.819 " fill="#1C274C" stroke="none" fill-rule="evenodd"></path></svg>