<svg width="24" height="24" viewBox="0 0 24 24" fill="none" xmlns="http://www.w3.org/2000/svg"><path d="M8.440 2.043 C 7.012 2.094,5.996 2.226,5.213 2.462 C 3.811 2.885,2.890 3.808,2.459 5.221 C 2.103 6.387,2.001 7.900,2.001 12.000 C 2.001 16.100,2.103 17.613,2.459 18.779 C 2.891 20.195,3.805 21.109,5.221 21.541 C 6.387 21.897,7.900 21.999,12.000 21.999 C 16.100 21.999,17.613 21.897,18.779 21.541 C 20.195 21.109,21.109 20.195,21.541 18.779 C 21.897 17.613,21.999 16.101,21.999 11.980 C 21.999 7.887,21.899 6.409,21.538 5.213 C 21.116 3.814,20.186 2.884,18.787 2.462 C 17.969 2.215,17.046 2.101,15.393 2.041 C 14.150 1.996,9.732 1.997,8.440 2.043 M6.209 6.282 C 6.408 6.337,6.595 6.501,6.685 6.698 C 6.755 6.852,6.758 7.099,6.759 11.991 C 6.760 16.534,6.753 17.140,6.698 17.271 C 6.431 17.911,5.569 17.911,5.302 17.271 C 5.247 17.140,5.240 16.533,5.240 12.000 C 5.240 7.467,5.247 6.860,5.302 6.729 C 5.384 6.532,5.506 6.405,5.700 6.316 C 5.883 6.231,5.998 6.223,6.209 6.282 M10.271 7.301 C 10.366 7.340,10.694 7.637,11.169 8.110 L 11.918 8.858 12.189 8.711 C 12.852 8.353,13.680 8.188,14.391 8.271 C 14.887 8.329,15.243 8.437,15.712 8.670 L 16.085 8.855 16.832 8.109 C 17.306 7.636,17.634 7.340,17.729 7.301 C 18.107 7.145,18.532 7.333,18.698 7.729 C 18.864 8.127,18.781 8.275,17.891 9.168 L 17.145 9.915 17.330 10.288 C 17.563 10.757,17.671 11.113,17.729 11.609 C 17.812 12.320,17.647 13.148,17.289 13.811 L 17.142 14.082 17.890 14.831 C 18.781 15.725,18.864 15.873,18.698 16.271 C 18.580 16.553,18.292 16.757,18.009 16.759 C 17.743 16.761,17.592 16.649,16.831 15.890 L 16.082 15.142 15.811 15.289 C 15.142 15.650,14.321 15.812,13.596 15.727 C 13.133 15.673,12.584 15.502,12.189 15.289 L 11.918 15.142 11.169 15.890 C 10.275 16.781,10.127 16.864,9.729 16.698 C 9.447 16.580,9.243 16.292,9.241 16.009 C 9.239 15.743,9.351 15.592,10.110 14.831 L 10.858 14.082 10.711 13.811 C 10.350 13.142,10.188 12.321,10.273 11.596 C 10.327 11.133,10.498 10.584,10.711 10.189 L 10.858 9.918 10.110 9.169 C 9.637 8.694,9.340 8.366,9.301 8.271 C 9.149 7.902,9.320 7.491,9.700 7.316 C 9.896 7.225,10.076 7.221,10.271 7.301 M13.540 9.798 C 12.501 10.023,11.760 10.940,11.760 12.000 C 11.760 12.615,11.979 13.139,12.420 13.580 C 13.309 14.469,14.691 14.469,15.580 13.580 C 16.744 12.416,16.319 10.482,14.771 9.894 C 14.473 9.781,13.844 9.732,13.540 9.798 " fill="#1C274C" stroke="none" fill-rule="evenodd"></path></svg>