<svg width="24" height="24" viewBox="0 0 24 24" fill="none" xmlns="http://www.w3.org/2000/svg"><path d="M8.440 2.043 C 5.815 2.137,4.484 2.504,3.549 3.393 C 2.549 4.344,2.163 5.596,2.041 8.280 C 1.989 9.450,1.989 14.605,2.041 15.740 C 2.160 18.285,2.507 19.501,3.379 20.433 C 4.323 21.444,5.571 21.833,8.260 21.959 C 9.399 22.012,14.601 22.012,15.740 21.959 C 18.285 21.840,19.501 21.493,20.433 20.621 C 21.360 19.755,21.742 18.682,21.927 16.420 C 21.966 15.951,21.980 14.772,21.980 12.000 C 21.980 8.151,21.964 7.600,21.816 6.500 C 21.584 4.775,20.991 3.670,19.928 2.982 C 18.975 2.366,17.835 2.129,15.393 2.041 C 14.150 1.996,9.732 1.997,8.440 2.043 M15.405 8.381 C 15.626 8.523,15.733 8.727,15.733 9.000 C 15.733 9.164,15.709 9.267,15.649 9.364 C 15.602 9.439,14.172 10.889,12.472 12.587 C 9.677 15.377,9.363 15.678,9.205 15.720 C 8.713 15.849,8.267 15.508,8.267 15.003 C 8.267 14.836,8.290 14.733,8.351 14.636 C 8.398 14.561,9.827 13.111,11.528 11.413 C 13.852 9.091,14.650 8.319,14.740 8.299 C 14.806 8.285,14.878 8.267,14.900 8.259 C 14.991 8.226,15.270 8.294,15.405 8.381 M10.023 8.662 C 10.296 8.831,10.452 9.093,10.473 9.420 C 10.501 9.858,10.316 10.199,9.950 10.386 C 9.285 10.726,8.520 10.253,8.520 9.500 C 8.520 9.106,8.708 8.794,9.049 8.622 C 9.230 8.530,9.300 8.517,9.544 8.528 C 9.776 8.539,9.863 8.563,10.023 8.662 M15.023 13.662 C 15.296 13.831,15.452 14.093,15.473 14.420 C 15.501 14.858,15.316 15.199,14.950 15.386 C 14.285 15.726,13.520 15.253,13.520 14.500 C 13.520 14.106,13.708 13.794,14.049 13.622 C 14.230 13.530,14.300 13.517,14.544 13.528 C 14.776 13.539,14.863 13.563,15.023 13.662 " fill="#1C274C" stroke="none" fill-rule="evenodd"></path></svg>