<svg width="24" height="24" viewBox="0 0 24 24" fill="none" xmlns="http://www.w3.org/2000/svg"><path d="M11.529 2.042 C 10.957 2.145,10.511 2.408,9.640 3.161 C 9.173 3.564,8.913 3.736,8.577 3.863 C 8.202 4.004,8.062 4.028,7.240 4.100 C 6.089 4.199,5.782 4.286,5.259 4.659 C 4.753 5.020,4.392 5.545,4.240 6.140 C 4.197 6.307,4.134 6.772,4.100 7.172 C 3.984 8.521,3.887 8.764,3.069 9.744 C 2.436 10.505,2.273 10.754,2.132 11.180 C 2.039 11.458,2.025 11.566,2.025 12.000 C 2.025 12.434,2.039 12.542,2.132 12.820 C 2.273 13.246,2.436 13.495,3.069 14.256 C 3.887 15.236,3.984 15.479,4.100 16.828 C 4.204 18.047,4.373 18.495,4.939 19.061 C 5.505 19.627,5.953 19.796,7.172 19.900 C 8.521 20.016,8.764 20.113,9.744 20.931 C 10.505 21.564,10.754 21.727,11.180 21.868 C 11.458 21.961,11.566 21.975,12.000 21.975 C 12.434 21.975,12.542 21.961,12.820 21.868 C 13.246 21.727,13.495 21.564,14.256 20.931 C 15.236 20.113,15.479 20.016,16.828 19.900 C 18.047 19.796,18.495 19.627,19.061 19.061 C 19.661 18.461,19.805 18.050,19.922 16.600 C 20.010 15.514,20.147 15.196,20.937 14.248 C 21.564 13.496,21.727 13.246,21.868 12.820 C 21.961 12.542,21.975 12.434,21.975 12.000 C 21.975 11.566,21.961 11.458,21.868 11.180 C 21.727 10.754,21.564 10.504,20.937 9.752 C 20.149 8.806,20.003 8.469,19.920 7.400 C 19.837 6.326,19.770 6.006,19.535 5.556 C 19.192 4.901,18.490 4.369,17.773 4.220 C 17.623 4.189,17.167 4.135,16.760 4.100 C 15.939 4.029,15.798 4.004,15.426 3.864 C 15.069 3.729,14.905 3.618,14.224 3.049 C 13.488 2.433,13.257 2.283,12.840 2.145 C 12.470 2.022,11.890 1.977,11.529 2.042 M15.620 8.030 C 15.956 8.197,16.115 8.546,16.034 8.939 C 15.993 9.137,15.948 9.184,12.606 12.533 C 10.744 14.399,9.172 15.951,9.114 15.982 C 8.733 16.184,8.234 16.020,8.034 15.628 C 7.930 15.424,7.922 15.113,8.014 14.917 C 8.053 14.837,9.501 13.360,11.470 11.393 C 14.667 8.199,14.870 8.004,15.040 7.968 C 15.247 7.923,15.448 7.945,15.620 8.030 M9.807 8.348 C 10.577 8.767,10.537 9.887,9.740 10.265 C 9.235 10.504,8.630 10.308,8.353 9.814 C 7.825 8.875,8.859 7.832,9.807 8.348 M15.079 13.700 C 15.791 13.951,16.021 14.872,15.510 15.426 C 15.200 15.762,14.819 15.869,14.383 15.743 C 13.642 15.527,13.390 14.533,13.932 13.967 C 14.220 13.666,14.680 13.559,15.079 13.700 " fill="#1C274C" stroke="none" fill-rule="evenodd"></path></svg>