<svg width="24" height="24" viewBox="0 0 24 24" fill="none" xmlns="http://www.w3.org/2000/svg"><path d="M16.284 1.042 C 15.901 1.090,15.247 1.248,14.918 1.372 C 14.413 1.562,13.440 2.101,13.440 2.191 C 13.440 2.313,13.906 3.578,14.063 3.882 C 14.303 4.346,14.937 5.301,15.328 5.787 C 16.754 7.560,18.618 9.170,20.157 9.955 C 20.453 10.106,21.697 10.560,21.815 10.560 C 21.861 10.560,22.174 10.058,22.361 9.686 C 22.590 9.228,22.769 8.714,22.888 8.170 C 23.006 7.633,23.014 6.524,22.905 5.940 C 22.449 3.498,20.594 1.612,18.165 1.120 C 17.686 1.023,16.743 0.984,16.284 1.042 M6.984 6.055 C 3.107 8.212,1.482 9.137,1.417 9.221 C 1.117 9.609,1.254 10.163,1.698 10.365 C 1.935 10.473,2.106 10.458,2.421 10.303 C 2.575 10.228,4.608 9.105,6.940 7.807 C 9.272 6.510,11.183 5.451,11.187 5.454 C 11.191 5.458,11.156 5.631,11.110 5.840 C 10.987 6.398,10.987 7.613,11.111 8.170 C 11.291 8.983,11.629 9.781,12.050 10.390 L 12.254 10.686 8.290 14.653 C 4.692 18.253,4.322 18.636,4.280 18.795 C 4.131 19.366,4.634 19.869,5.205 19.720 C 5.364 19.678,5.747 19.308,9.346 15.712 L 13.311 11.749 13.650 11.974 C 14.339 12.433,15.127 12.753,15.940 12.905 C 16.524 13.014,17.594 13.006,18.138 12.889 C 18.357 12.842,18.540 12.807,18.544 12.812 C 18.548 12.816,17.438 14.825,16.077 17.275 C 14.716 19.725,13.590 21.791,13.576 21.865 C 13.477 22.395,14.000 22.871,14.515 22.717 C 14.604 22.690,14.732 22.621,14.798 22.564 C 14.878 22.495,15.951 20.602,17.960 16.984 C 19.632 13.972,21.000 11.501,21.000 11.492 C 21.000 11.484,20.878 11.574,20.730 11.693 C 20.397 11.961,20.116 12.140,19.700 12.352 C 19.333 12.539,18.731 12.769,18.654 12.752 C 18.620 12.744,18.742 12.485,19.006 12.008 C 19.228 11.606,19.403 11.272,19.395 11.266 C 19.387 11.259,19.173 11.132,18.920 10.982 C 18.152 10.528,17.134 9.772,16.474 9.165 C 16.327 9.030,16.193 8.920,16.174 8.920 C 16.156 8.920,15.507 9.553,14.733 10.327 L 13.326 11.734 13.192 11.632 C 13.019 11.500,12.500 10.981,12.368 10.808 L 12.266 10.674 13.683 9.257 C 14.771 8.168,15.090 7.827,15.060 7.785 C 15.038 7.755,14.870 7.561,14.687 7.355 C 14.058 6.645,13.293 5.584,12.911 4.888 C 12.799 4.684,12.733 4.602,12.692 4.617 C 12.661 4.630,12.327 4.811,11.951 5.020 C 11.575 5.230,11.257 5.391,11.244 5.378 C 11.208 5.341,11.433 4.736,11.631 4.340 C 11.855 3.891,12.029 3.616,12.307 3.270 C 12.426 3.121,12.509 3.002,12.492 3.004 C 12.474 3.006,9.996 4.379,6.984 6.055 " fill="#1C274C" stroke="none" fill-rule="evenodd"></path></svg>