<svg width="24" height="24" viewBox="0 0 24 24" fill="none" xmlns="http://www.w3.org/2000/svg"><path d="M16.494 1.278 C 16.010 1.396,15.778 1.918,16.013 2.363 C 16.082 2.495,16.159 2.567,16.317 2.649 L 16.529 2.760 18.354 2.760 L 20.180 2.760 16.480 6.460 L 12.780 10.160 12.760 8.970 C 12.737 7.624,12.735 7.613,12.409 7.384 C 12.269 7.285,12.204 7.267,12.000 7.267 C 11.796 7.267,11.731 7.285,11.591 7.384 C 11.499 7.448,11.387 7.564,11.342 7.641 C 11.263 7.776,11.260 7.846,11.249 9.911 C 11.241 11.402,11.251 12.092,11.283 12.209 C 11.340 12.422,11.572 12.657,11.781 12.715 C 12.001 12.777,15.999 12.777,16.219 12.715 C 16.431 12.657,16.660 12.422,16.719 12.204 C 16.808 11.873,16.689 11.566,16.395 11.372 L 16.226 11.260 15.033 11.240 L 13.840 11.220 17.540 7.520 L 21.240 3.820 21.240 5.642 L 21.240 7.464 21.339 7.662 C 21.484 7.951,21.665 8.060,22.000 8.060 C 22.338 8.060,22.517 7.951,22.662 7.657 L 22.762 7.455 22.751 4.617 C 22.740 1.840,22.738 1.777,22.658 1.641 C 22.613 1.564,22.499 1.447,22.405 1.381 L 22.233 1.260 19.427 1.253 C 17.883 1.250,16.563 1.261,16.494 1.278 M8.456 2.042 C 5.720 2.141,4.373 2.534,3.435 3.507 C 2.688 4.282,2.317 5.263,2.142 6.927 C 2.046 7.840,2.001 9.469,2.001 12.000 C 2.001 16.100,2.103 17.613,2.459 18.779 C 2.891 20.195,3.805 21.109,5.221 21.541 C 6.387 21.897,7.900 21.999,12.000 21.999 C 16.116 21.999,17.590 21.899,18.787 21.538 C 20.186 21.116,21.116 20.186,21.538 18.787 C 21.900 17.588,21.999 16.122,21.999 11.950 L 22.000 9.600 21.886 9.600 C 21.686 9.600,21.162 9.446,20.916 9.315 C 20.363 9.020,19.893 8.360,19.787 7.729 L 19.738 7.441 18.439 8.743 L 17.140 10.044 17.260 10.128 C 17.681 10.425,18.051 10.953,18.181 11.442 C 18.250 11.701,18.257 12.193,18.196 12.488 C 18.029 13.294,17.294 14.029,16.488 14.196 C 16.196 14.257,11.804 14.257,11.512 14.196 C 10.706 14.029,9.971 13.294,9.804 12.488 C 9.743 12.196,9.743 7.804,9.804 7.512 C 9.932 6.893,10.429 6.261,11.003 5.989 C 11.882 5.572,12.868 5.721,13.535 6.373 C 13.673 6.509,13.825 6.674,13.872 6.740 L 13.956 6.860 15.257 5.561 L 16.559 4.262 16.271 4.213 C 15.640 4.107,14.980 3.637,14.685 3.084 C 14.554 2.838,14.400 2.314,14.400 2.114 L 14.400 2.000 11.830 2.006 C 10.417 2.010,8.898 2.026,8.456 2.042 " fill="#1C274C" stroke="none" fill-rule="evenodd"></path></svg>