<svg width="24" height="24" viewBox="0 0 24 24" fill="none" xmlns="http://www.w3.org/2000/svg"><path d="M8.440 2.043 C 5.815 2.137,4.484 2.504,3.549 3.393 C 2.549 4.344,2.163 5.596,2.041 8.280 C 1.989 9.450,1.989 14.605,2.041 15.740 C 2.160 18.285,2.507 19.501,3.379 20.433 C 4.323 21.444,5.571 21.833,8.260 21.959 C 9.399 22.012,14.601 22.012,15.740 21.959 C 18.285 21.840,19.501 21.493,20.433 20.621 C 21.360 19.755,21.742 18.682,21.927 16.420 C 21.966 15.951,21.980 14.772,21.980 12.000 C 21.980 8.151,21.964 7.600,21.816 6.500 C 21.584 4.775,20.991 3.670,19.928 2.982 C 18.975 2.366,17.835 2.129,15.393 2.041 C 14.150 1.996,9.732 1.997,8.440 2.043 M10.388 4.367 C 10.628 4.526,10.733 4.721,10.733 5.007 C 10.733 5.203,10.714 5.271,10.616 5.409 C 10.386 5.737,10.386 5.737,8.940 5.766 C 7.728 5.791,7.266 5.827,6.901 5.925 C 6.430 6.052,6.092 6.362,5.960 6.789 C 5.819 7.246,5.794 7.518,5.767 8.887 L 5.740 10.233 5.619 10.405 C 5.453 10.642,5.273 10.739,5.000 10.739 C 4.728 10.739,4.547 10.642,4.383 10.408 C 4.271 10.249,4.263 10.213,4.248 9.770 C 4.225 9.111,4.306 7.411,4.380 6.980 C 4.519 6.171,4.749 5.689,5.219 5.219 C 5.989 4.449,6.949 4.234,9.523 4.254 C 10.214 4.260,10.229 4.262,10.388 4.367 M16.560 4.323 C 17.649 4.436,18.233 4.671,18.781 5.219 C 19.241 5.679,19.477 6.168,19.619 6.960 C 19.692 7.363,19.786 9.712,19.744 10.048 C 19.690 10.474,19.408 10.735,19.000 10.737 C 18.727 10.739,18.548 10.643,18.381 10.405 L 18.260 10.233 18.233 8.867 C 18.204 7.448,18.159 7.040,17.983 6.629 C 17.892 6.416,17.657 6.170,17.442 6.061 C 17.023 5.849,16.615 5.798,15.060 5.766 C 13.614 5.737,13.614 5.737,13.384 5.409 C 13.098 5.003,13.326 4.403,13.815 4.275 C 13.972 4.234,16.048 4.271,16.560 4.323 M13.020 10.344 C 13.941 10.494,14.700 10.814,15.443 11.365 C 16.046 11.812,16.622 12.474,16.717 12.828 C 16.848 13.319,16.380 13.833,15.885 13.740 C 15.645 13.695,15.541 13.616,15.268 13.271 C 14.711 12.569,13.972 12.102,13.052 11.871 C 12.756 11.797,12.589 11.783,12.000 11.783 C 11.411 11.783,11.244 11.797,10.948 11.871 C 10.028 12.102,9.289 12.569,8.732 13.271 C 8.424 13.660,8.304 13.735,7.992 13.737 C 7.803 13.738,7.737 13.719,7.596 13.619 C 7.377 13.464,7.262 13.242,7.266 12.979 C 7.269 12.746,7.303 12.671,7.555 12.340 C 8.146 11.564,9.157 10.857,10.122 10.546 C 11.017 10.257,12.047 10.185,13.020 10.344 M5.405 13.381 C 5.485 13.432,5.593 13.543,5.645 13.627 C 5.738 13.778,5.740 13.802,5.767 15.120 C 5.794 16.491,5.819 16.753,5.964 17.224 C 6.033 17.447,6.087 17.534,6.277 17.723 C 6.466 17.913,6.553 17.967,6.776 18.036 C 7.247 18.181,7.509 18.206,8.883 18.233 L 10.226 18.260 10.388 18.367 C 10.628 18.526,10.733 18.721,10.733 19.007 C 10.733 19.203,10.714 19.271,10.616 19.409 C 10.384 19.739,10.379 19.740,9.040 19.737 C 7.293 19.732,6.645 19.639,5.920 19.291 C 5.603 19.139,5.487 19.056,5.218 18.785 C 4.543 18.104,4.351 17.466,4.274 15.640 C 4.217 14.286,4.236 13.820,4.356 13.627 C 4.585 13.256,5.045 13.148,5.405 13.381 M19.405 13.381 C 19.657 13.544,19.731 13.714,19.751 14.176 C 19.776 14.771,19.692 16.604,19.620 17.020 C 19.481 17.829,19.252 18.311,18.782 18.785 C 18.513 19.056,18.397 19.139,18.080 19.291 C 17.355 19.639,16.707 19.732,14.960 19.737 C 13.621 19.740,13.616 19.739,13.384 19.409 C 13.286 19.271,13.267 19.203,13.267 19.007 C 13.267 18.721,13.372 18.526,13.612 18.367 L 13.774 18.260 15.117 18.233 C 16.483 18.206,16.754 18.181,17.213 18.039 C 17.529 17.942,17.829 17.689,17.960 17.410 C 18.156 16.994,18.204 16.601,18.233 15.140 C 18.259 13.810,18.262 13.777,18.353 13.631 C 18.586 13.256,19.044 13.147,19.405 13.381 " fill="#1C274C" stroke="none" fill-rule="evenodd"></path></svg>