<svg width="24" height="24" viewBox="0 0 24 24" fill="none" xmlns="http://www.w3.org/2000/svg"><path d="M8.440 2.043 C 5.815 2.137,4.484 2.504,3.549 3.393 C 2.549 4.344,2.163 5.596,2.041 8.280 C 1.989 9.450,1.989 14.605,2.041 15.740 C 2.160 18.285,2.507 19.501,3.379 20.433 C 4.323 21.444,5.571 21.833,8.260 21.959 C 9.399 22.012,14.601 22.012,15.740 21.959 C 18.285 21.840,19.501 21.493,20.433 20.621 C 21.360 19.755,21.742 18.682,21.927 16.420 C 21.966 15.951,21.980 14.772,21.980 12.000 C 21.980 8.151,21.964 7.600,21.816 6.500 C 21.584 4.775,20.991 3.670,19.928 2.982 C 18.975 2.366,17.835 2.129,15.393 2.041 C 14.150 1.996,9.732 1.997,8.440 2.043 M10.162 4.284 C 10.889 4.440,10.940 5.497,10.231 5.713 C 10.159 5.735,9.686 5.763,9.180 5.775 C 7.395 5.817,6.774 5.975,6.268 6.516 C 5.897 6.912,5.808 7.248,5.764 8.420 C 5.731 9.293,5.709 9.381,5.480 9.574 C 5.162 9.841,4.671 9.793,4.424 9.469 C 4.264 9.259,4.242 9.065,4.281 8.204 C 4.345 6.772,4.545 6.165,5.173 5.493 C 5.960 4.651,6.869 4.350,8.840 4.282 C 9.291 4.266,9.727 4.250,9.808 4.247 C 9.889 4.243,10.049 4.260,10.162 4.284 M15.555 4.301 C 17.155 4.367,18.099 4.710,18.817 5.485 C 19.465 6.185,19.654 6.758,19.718 8.208 C 19.756 9.071,19.734 9.261,19.576 9.469 C 19.329 9.793,18.838 9.841,18.520 9.574 C 18.291 9.381,18.269 9.293,18.236 8.420 C 18.192 7.248,18.103 6.912,17.732 6.516 C 17.228 5.977,16.600 5.817,14.820 5.775 C 14.314 5.763,13.841 5.735,13.769 5.713 C 13.697 5.691,13.584 5.628,13.518 5.572 C 13.159 5.270,13.180 4.670,13.559 4.401 C 13.782 4.242,13.933 4.235,15.555 4.301 M19.388 11.367 C 19.628 11.526,19.733 11.721,19.733 12.007 C 19.733 12.203,19.714 12.271,19.616 12.409 C 19.552 12.501,19.436 12.613,19.359 12.658 C 19.220 12.740,19.204 12.740,12.000 12.740 C 4.796 12.740,4.780 12.740,4.641 12.658 C 4.564 12.613,4.448 12.501,4.384 12.409 C 4.098 12.003,4.330 11.394,4.815 11.278 C 4.884 11.261,8.154 11.250,12.083 11.254 L 19.226 11.260 19.388 11.367 M5.360 14.341 C 5.478 14.402,5.609 14.540,5.682 14.680 C 5.716 14.746,5.744 15.056,5.764 15.580 C 5.809 16.773,5.896 17.090,6.294 17.511 C 6.788 18.034,7.395 18.185,9.205 18.235 L 10.231 18.263 10.394 18.371 C 10.590 18.501,10.676 18.623,10.724 18.840 C 10.807 19.209,10.561 19.622,10.200 19.721 C 10.069 19.756,9.796 19.763,9.200 19.744 C 6.927 19.671,6.021 19.398,5.210 18.546 C 4.745 18.056,4.512 17.595,4.379 16.906 C 4.294 16.467,4.233 15.081,4.287 14.826 C 4.384 14.368,4.932 14.121,5.360 14.341 M19.180 14.285 C 19.480 14.368,19.650 14.552,19.723 14.872 C 19.772 15.090,19.689 16.579,19.605 16.982 C 19.460 17.678,19.180 18.180,18.666 18.670 C 18.136 19.172,17.554 19.439,16.634 19.599 C 16.126 19.688,14.216 19.791,13.919 19.745 C 13.523 19.685,13.267 19.395,13.267 19.008 C 13.267 18.770,13.312 18.644,13.455 18.486 C 13.642 18.280,13.713 18.267,14.800 18.236 C 16.607 18.184,17.213 18.033,17.706 17.511 C 18.104 17.090,18.191 16.773,18.236 15.580 C 18.269 14.706,18.291 14.619,18.522 14.425 C 18.590 14.367,18.694 14.309,18.753 14.296 C 18.812 14.284,18.878 14.267,18.900 14.260 C 18.972 14.236,19.018 14.240,19.180 14.285 " fill="#1C274C" stroke="none" fill-rule="evenodd"></path></svg>