<svg width="24" height="24" viewBox="0 0 24 24" fill="none" xmlns="http://www.w3.org/2000/svg"><path d="M5.815 1.277 C 5.490 1.357,5.261 1.655,5.261 2.000 C 5.261 2.218,5.296 2.282,8.193 7.435 C 10.103 10.832,11.116 12.673,11.100 12.715 C 11.056 12.831,8.461 17.439,8.440 17.438 C 8.429 17.437,8.332 17.286,8.225 17.101 C 7.736 16.260,6.889 15.623,5.928 15.374 C 5.370 15.229,4.625 15.228,4.072 15.373 C 3.681 15.475,3.180 15.702,2.842 15.930 C 2.535 16.137,1.995 16.721,1.785 17.072 C 1.526 17.505,1.334 18.077,1.273 18.592 C 1.181 19.373,1.369 20.229,1.785 20.929 C 2.047 21.371,2.629 21.953,3.071 22.215 C 3.625 22.545,4.394 22.760,5.016 22.760 C 5.337 22.760,5.943 22.644,6.305 22.514 C 6.975 22.271,7.737 21.672,8.108 21.094 C 8.195 20.959,9.102 19.362,10.123 17.544 C 11.144 15.727,11.989 14.240,12.000 14.240 C 12.011 14.240,12.856 15.728,13.878 17.547 C 14.900 19.365,15.807 20.962,15.893 21.096 C 16.116 21.444,16.684 21.983,17.072 22.215 C 17.761 22.626,18.613 22.815,19.392 22.728 C 20.273 22.630,21.002 22.276,21.639 21.639 C 22.091 21.187,22.350 20.778,22.545 20.209 C 23.006 18.862,22.677 17.415,21.680 16.399 C 21.298 16.010,21.121 15.880,20.646 15.641 C 20.125 15.378,19.649 15.271,19.000 15.272 C 18.553 15.273,18.393 15.290,18.072 15.374 C 17.111 15.623,16.264 16.260,15.775 17.101 C 15.668 17.286,15.571 17.437,15.560 17.438 C 15.540 17.439,12.945 12.832,12.900 12.715 C 12.884 12.672,13.895 10.836,15.807 7.435 C 18.719 2.255,18.739 2.218,18.739 1.996 C 18.739 1.571,18.428 1.267,17.993 1.267 C 17.521 1.267,17.754 0.907,14.720 6.309 C 13.235 8.953,12.011 11.117,12.000 11.117 C 11.989 11.117,10.765 8.953,9.280 6.309 C 6.853 1.989,6.564 1.491,6.420 1.394 C 6.244 1.275,6.009 1.230,5.815 1.277 " fill="#1C274C" stroke="none" fill-rule="evenodd"></path></svg>