<svg width="24" height="24" viewBox="0 0 24 24" fill="none" xmlns="http://www.w3.org/2000/svg"><path d="M8.419 2.041 C 5.785 2.145,4.480 2.507,3.549 3.393 C 2.551 4.342,2.166 5.587,2.041 8.260 C 1.988 9.399,1.988 14.601,2.041 15.740 C 2.160 18.285,2.507 19.501,3.379 20.433 C 4.245 21.360,5.318 21.742,7.580 21.927 C 8.488 22.002,15.512 22.002,16.420 21.927 C 18.857 21.727,19.992 21.275,20.860 20.157 C 21.474 19.368,21.771 18.329,21.927 16.420 C 22.002 15.512,22.002 8.488,21.927 7.580 C 21.740 5.297,21.356 4.232,20.407 3.355 C 19.572 2.585,18.492 2.242,16.380 2.078 C 15.684 2.023,9.573 1.995,8.419 2.041 M8.408 5.383 C 8.574 5.490,8.504 5.375,10.641 9.030 C 11.377 10.289,11.989 11.319,12.000 11.319 C 12.011 11.319,12.622 10.289,13.359 9.030 C 15.505 5.359,15.424 5.492,15.604 5.373 C 15.913 5.168,16.382 5.254,16.595 5.553 C 16.720 5.729,16.770 5.974,16.719 6.164 C 16.694 6.255,15.846 7.744,14.833 9.474 C 13.820 11.204,12.964 12.668,12.930 12.726 C 12.869 12.829,12.878 12.849,13.418 13.771 L 13.967 14.710 14.235 14.445 C 14.755 13.929,15.363 13.674,16.080 13.669 C 16.602 13.666,16.838 13.719,17.316 13.948 C 17.828 14.193,18.228 14.586,18.468 15.080 C 18.671 15.500,18.733 15.762,18.733 16.200 C 18.733 16.635,18.671 16.901,18.474 17.305 C 17.929 18.427,16.578 19.007,15.375 18.636 C 14.816 18.463,14.321 18.131,14.031 17.734 C 13.953 17.627,13.471 16.825,12.960 15.950 C 12.448 15.075,12.016 14.360,12.000 14.360 C 11.984 14.360,11.532 15.111,10.996 16.030 C 10.119 17.530,9.991 17.728,9.738 17.981 C 8.672 19.043,6.917 18.991,5.898 17.868 C 5.651 17.596,5.399 17.115,5.318 16.760 C 5.290 16.639,5.267 16.387,5.267 16.200 C 5.267 15.766,5.329 15.503,5.529 15.083 C 5.761 14.595,6.168 14.195,6.684 13.948 C 7.162 13.719,7.398 13.666,7.920 13.669 C 8.637 13.674,9.245 13.929,9.765 14.445 L 10.033 14.710 10.582 13.771 C 11.122 12.849,11.131 12.829,11.070 12.726 C 11.036 12.668,10.180 11.204,9.167 9.474 C 8.154 7.744,7.306 6.255,7.281 6.164 C 7.206 5.884,7.340 5.541,7.588 5.378 C 7.832 5.219,8.157 5.221,8.408 5.383 " fill="#1C274C" stroke="none" fill-rule="evenodd"></path></svg>