<svg width="24" height="24" viewBox="0 0 24 24" fill="none" xmlns="http://www.w3.org/2000/svg"><path d="M11.811 4.279 C 11.292 4.402,11.079 5.067,11.426 5.480 C 11.635 5.729,11.673 5.736,12.900 5.764 C 14.208 5.795,14.337 5.820,14.589 6.092 C 14.676 6.187,14.820 6.390,14.909 6.542 C 15.254 7.135,17.878 12.440,17.827 12.440 C 17.721 12.440,16.975 12.833,16.730 13.018 C 16.059 13.525,15.554 14.312,15.335 15.190 C 15.325 15.229,14.933 15.240,13.541 15.240 L 11.760 15.240 11.760 14.270 C 11.759 12.317,11.633 11.525,11.225 10.911 C 10.783 10.244,10.087 9.903,8.960 9.802 C 8.353 9.747,5.732 9.748,5.337 9.803 C 4.656 9.898,3.907 10.190,3.313 10.592 C 1.998 11.482,1.241 12.970,1.240 14.665 C 1.240 15.425,1.358 15.793,1.727 16.184 C 1.986 16.458,2.221 16.600,2.554 16.684 L 2.809 16.748 2.955 17.186 C 3.402 18.523,4.497 19.453,5.915 19.701 C 7.079 19.905,8.311 19.495,9.173 18.617 C 9.613 18.169,9.975 17.533,10.122 16.950 L 10.170 16.759 12.749 16.770 L 15.329 16.780 15.418 17.080 C 15.604 17.704,15.888 18.177,16.355 18.645 C 17.577 19.866,19.442 20.099,20.929 19.215 C 21.371 18.953,21.953 18.371,22.215 17.929 C 22.474 17.494,22.667 16.922,22.727 16.408 C 22.876 15.135,22.301 13.796,21.270 13.018 C 20.903 12.741,20.303 12.460,19.856 12.357 L 19.475 12.269 19.235 11.789 C 19.102 11.526,19.009 11.297,19.027 11.281 C 19.045 11.266,19.197 11.151,19.365 11.026 C 20.107 10.476,20.239 10.174,20.240 9.018 C 20.240 8.001,20.135 7.655,19.700 7.244 C 19.262 6.829,18.980 6.762,17.674 6.761 L 16.727 6.760 16.459 6.250 C 16.091 5.548,15.883 5.248,15.563 4.951 C 15.075 4.499,14.616 4.335,13.682 4.278 C 12.988 4.235,11.992 4.236,11.811 4.279 " fill="#1C274C" stroke="none" fill-rule="evenodd"></path></svg>