<svg width="24" height="24" viewBox="0 0 24 24" fill="none" xmlns="http://www.w3.org/2000/svg"><path d="M5.353 4.058 C 4.710 4.170,4.105 4.434,3.569 4.838 C 2.574 5.588,2.000 6.768,2.000 8.067 C 2.000 8.504,2.048 8.649,2.253 8.829 C 2.420 8.975,2.479 8.987,3.160 9.020 C 4.632 9.092,5.891 9.415,7.220 10.062 C 9.266 11.059,10.941 12.734,11.938 14.780 C 12.585 16.109,12.908 17.368,12.980 18.840 C 13.013 19.521,13.025 19.580,13.171 19.747 C 13.384 19.989,13.443 20.000,14.569 19.999 C 17.840 19.997,19.620 19.718,20.535 19.065 C 21.331 18.497,21.724 17.604,21.908 15.944 C 21.971 15.378,21.980 14.906,21.980 12.040 C 21.980 8.708,21.964 8.263,21.814 7.360 C 21.495 5.434,20.530 4.481,18.599 4.183 C 17.653 4.037,17.323 4.029,11.460 4.017 C 6.777 4.008,5.601 4.016,5.353 4.058 M1.807 10.288 C 1.276 10.405,1.085 11.125,1.480 11.520 C 1.655 11.695,1.882 11.760,2.320 11.760 C 3.001 11.760,4.102 11.978,4.865 12.263 C 5.995 12.685,6.950 13.302,7.824 14.176 C 8.698 15.050,9.315 16.005,9.737 17.135 C 10.022 17.898,10.240 18.999,10.240 19.680 C 10.240 20.118,10.305 20.345,10.480 20.520 C 10.884 20.924,11.596 20.724,11.713 20.174 C 11.762 19.942,11.713 19.032,11.620 18.450 C 11.087 15.132,8.849 12.296,5.742 11.003 C 4.679 10.560,3.595 10.326,2.340 10.267 C 2.142 10.257,1.902 10.267,1.807 10.288 M1.807 13.287 C 1.276 13.406,1.085 14.125,1.480 14.520 C 1.650 14.690,1.882 14.760,2.277 14.760 C 2.559 14.760,3.123 14.854,3.489 14.963 C 5.174 15.463,6.537 16.826,7.037 18.511 C 7.146 18.877,7.240 19.441,7.240 19.723 C 7.240 19.851,7.260 20.049,7.284 20.162 C 7.405 20.725,8.111 20.929,8.520 20.520 C 8.730 20.310,8.768 20.110,8.717 19.476 C 8.586 17.841,7.920 16.400,6.760 15.240 C 5.594 14.074,4.161 13.415,2.504 13.281 C 2.220 13.259,1.986 13.242,1.984 13.244 C 1.982 13.247,1.902 13.266,1.807 13.287 M1.807 16.287 C 1.568 16.341,1.341 16.573,1.289 16.816 C 1.174 17.356,1.546 17.760,2.160 17.760 C 2.620 17.760,3.186 18.022,3.582 18.418 C 3.978 18.814,4.240 19.380,4.240 19.840 C 4.240 19.904,4.260 20.049,4.284 20.162 C 4.448 20.926,5.560 20.919,5.716 20.154 C 5.806 19.717,5.662 18.999,5.361 18.380 C 4.953 17.539,4.404 17.001,3.543 16.597 C 2.998 16.342,2.195 16.198,1.807 16.287 " fill="#1C274C" stroke="none" fill-rule="evenodd"></path></svg>