<svg width="24" height="24" viewBox="0 0 24 24" fill="none" xmlns="http://www.w3.org/2000/svg"><path d="M11.558 2.041 C 10.154 2.117,9.447 2.344,8.896 2.896 C 8.329 3.462,8.125 4.119,8.040 5.649 C 7.990 6.549,7.990 17.451,8.040 18.351 C 8.125 19.881,8.329 20.538,8.896 21.104 C 9.669 21.878,10.426 21.998,14.500 21.998 C 18.574 21.998,19.331 21.878,20.104 21.104 C 20.671 20.538,20.875 19.881,20.960 18.351 C 21.010 17.451,21.010 6.549,20.960 5.649 C 20.875 4.119,20.671 3.462,20.104 2.896 C 19.538 2.329,18.881 2.125,17.351 2.040 C 16.563 1.996,12.375 1.997,11.558 2.041 M5.506 4.565 C 4.185 4.692,3.475 5.197,3.204 6.201 C 3.023 6.872,3.020 6.962,3.020 12.000 C 3.020 17.038,3.023 17.128,3.204 17.799 C 3.248 17.963,3.340 18.202,3.408 18.330 C 3.562 18.618,3.946 18.983,4.254 19.133 C 4.693 19.346,5.464 19.480,6.251 19.480 L 6.626 19.480 6.583 19.190 C 6.523 18.786,6.523 5.214,6.583 4.810 L 6.626 4.520 6.243 4.525 C 6.032 4.528,5.701 4.546,5.506 4.565 M14.822 7.339 C 15.103 7.479,17.561 9.942,17.677 10.200 C 17.778 10.423,17.780 10.574,17.684 10.780 C 17.500 11.177,17.087 11.344,16.694 11.180 C 16.609 11.145,16.279 10.852,15.895 10.472 L 15.240 9.825 15.240 12.990 C 15.240 15.129,15.226 16.191,15.197 16.267 C 15.104 16.516,14.759 16.758,14.500 16.758 C 14.241 16.758,13.896 16.516,13.803 16.267 C 13.774 16.191,13.760 15.129,13.760 12.990 L 13.760 9.825 13.105 10.472 C 12.721 10.852,12.391 11.145,12.306 11.180 C 12.138 11.250,11.892 11.258,11.733 11.197 C 11.484 11.104,11.242 10.759,11.242 10.500 C 11.242 10.211,11.371 10.054,12.692 8.729 C 14.019 7.399,14.212 7.240,14.500 7.240 C 14.568 7.240,14.713 7.284,14.822 7.339 " fill="#1C274C" stroke="none" fill-rule="evenodd"></path></svg>