<svg width="24" height="24" viewBox="0 0 24 24" fill="none" xmlns="http://www.w3.org/2000/svg"><path d="M7.000 3.042 C 5.261 3.116,4.375 3.320,3.617 3.822 C 2.947 4.265,2.534 4.897,2.303 5.829 C 2.054 6.832,2.020 7.448,2.020 11.000 C 2.020 14.552,2.054 15.168,2.303 16.171 C 2.466 16.831,2.736 17.359,3.126 17.782 C 3.331 18.005,3.854 18.356,4.185 18.495 C 4.553 18.648,5.699 18.914,5.754 18.859 C 5.762 18.851,5.827 18.712,5.897 18.550 C 6.189 17.879,6.572 17.385,7.810 16.086 C 8.797 15.051,9.876 14.011,10.252 13.735 C 11.318 12.950,12.529 12.921,13.633 13.655 C 14.002 13.900,14.905 14.755,16.047 15.940 C 17.373 17.315,17.804 17.862,18.103 18.550 C 18.173 18.712,18.238 18.851,18.246 18.859 C 18.301 18.914,19.447 18.648,19.815 18.495 C 20.146 18.356,20.669 18.005,20.874 17.782 C 21.506 17.096,21.781 16.276,21.927 14.640 C 22.001 13.813,22.001 8.220,21.927 7.360 C 21.808 5.977,21.618 5.280,21.178 4.617 C 20.933 4.247,20.714 4.032,20.330 3.784 C 19.587 3.304,18.734 3.120,16.869 3.040 C 15.850 2.996,8.052 2.998,7.000 3.042 M11.500 14.735 C 11.143 14.902,10.841 15.172,9.517 16.507 C 7.863 18.175,7.450 18.668,7.241 19.226 C 7.012 19.838,7.286 20.450,7.899 20.695 C 8.515 20.942,9.289 20.999,12.000 20.999 C 14.711 20.999,15.485 20.942,16.101 20.695 C 16.714 20.450,16.988 19.838,16.759 19.226 C 16.553 18.675,16.136 18.176,14.521 16.546 C 12.773 14.782,12.586 14.641,12.000 14.641 C 11.769 14.641,11.654 14.662,11.500 14.735 " fill="#1C274C" stroke="none" fill-rule="evenodd"></path></svg>