<svg width="24" height="24" viewBox="0 0 24 24" fill="none" xmlns="http://www.w3.org/2000/svg"><path d="M8.419 2.042 C 5.796 2.142,4.481 2.507,3.549 3.393 C 2.551 4.342,2.166 5.587,2.041 8.260 C 1.988 9.399,1.988 14.601,2.041 15.740 C 2.160 18.285,2.507 19.501,3.379 20.433 C 4.245 21.360,5.318 21.742,7.580 21.927 C 8.488 22.002,15.512 22.002,16.420 21.927 C 18.857 21.727,19.992 21.275,20.860 20.157 C 21.338 19.542,21.662 18.641,21.816 17.500 C 21.947 16.521,21.977 15.781,21.978 13.420 C 21.980 11.075,21.979 11.058,21.887 10.721 C 21.836 10.534,21.739 10.247,21.670 10.083 C 21.392 9.415,21.308 9.322,17.933 5.956 C 14.561 2.593,14.589 2.618,13.892 2.322 C 13.733 2.255,13.454 2.160,13.272 2.113 C 12.957 2.030,12.848 2.025,11.100 2.018 C 10.088 2.013,8.882 2.024,8.419 2.042 M7.405 5.381 C 7.485 5.432,7.593 5.543,7.645 5.627 L 7.740 5.780 7.740 7.507 L 7.740 9.233 7.619 9.405 C 7.453 9.641,7.273 9.739,7.000 9.739 C 6.727 9.739,6.547 9.641,6.381 9.405 L 6.260 9.233 6.260 7.507 L 6.260 5.780 6.353 5.631 C 6.586 5.256,7.044 5.147,7.405 5.381 M10.405 5.381 C 10.485 5.432,10.593 5.543,10.645 5.627 L 10.740 5.780 10.740 7.507 L 10.740 9.233 10.619 9.405 C 10.453 9.641,10.273 9.739,10.000 9.739 C 9.727 9.739,9.547 9.641,9.381 9.405 L 9.260 9.233 9.260 7.507 L 9.260 5.780 9.353 5.631 C 9.586 5.256,10.044 5.147,10.405 5.381 M13.405 5.381 C 13.485 5.432,13.593 5.543,13.645 5.627 L 13.740 5.780 13.740 7.507 L 13.740 9.233 13.619 9.405 C 13.453 9.641,13.273 9.739,13.000 9.739 C 12.727 9.739,12.547 9.641,12.381 9.405 L 12.260 9.233 12.260 7.507 L 12.260 5.780 12.353 5.631 C 12.586 5.256,13.044 5.147,13.405 5.381 " fill="#1C274C" stroke="none" fill-rule="evenodd"></path></svg>