<svg width="24" height="24" viewBox="0 0 24 24" fill="none" xmlns="http://www.w3.org/2000/svg"><path d="M8.419 2.041 C 5.785 2.145,4.480 2.507,3.549 3.393 C 2.551 4.342,2.166 5.587,2.041 8.260 C 1.988 9.399,1.988 14.601,2.041 15.740 C 2.160 18.285,2.507 19.501,3.379 20.433 C 4.245 21.360,5.318 21.742,7.580 21.927 C 8.488 22.002,15.512 22.002,16.420 21.927 C 18.857 21.727,19.992 21.275,20.860 20.157 C 21.474 19.368,21.771 18.329,21.927 16.420 C 22.002 15.512,22.002 8.488,21.927 7.580 C 21.740 5.297,21.356 4.232,20.407 3.355 C 19.572 2.585,18.492 2.242,16.380 2.078 C 15.684 2.023,9.573 1.995,8.419 2.041 M7.405 5.381 C 7.485 5.432,7.593 5.543,7.645 5.627 L 7.740 5.780 7.740 12.007 L 7.740 18.233 7.619 18.405 C 7.453 18.641,7.273 18.739,7.000 18.739 C 6.727 18.739,6.547 18.641,6.381 18.405 L 6.260 18.233 6.260 12.007 L 6.260 5.780 6.353 5.631 C 6.586 5.256,7.044 5.147,7.405 5.381 M13.416 5.391 C 13.614 5.529,13.736 5.760,13.735 5.997 C 13.734 6.331,13.645 6.441,12.837 7.115 L 12.088 7.740 14.674 7.760 C 16.536 7.774,17.282 7.793,17.340 7.827 C 17.446 7.888,17.618 8.075,17.681 8.198 C 17.709 8.252,17.731 8.388,17.731 8.500 C 17.731 8.612,17.709 8.748,17.681 8.802 C 17.618 8.925,17.446 9.112,17.340 9.173 C 17.282 9.207,16.535 9.226,14.669 9.240 L 12.077 9.260 12.817 9.874 C 13.223 10.212,13.583 10.528,13.615 10.578 C 13.969 11.118,13.507 11.846,12.877 11.739 C 12.792 11.725,12.646 11.658,12.553 11.590 C 12.228 11.355,9.539 9.095,9.431 8.966 C 9.221 8.716,9.199 8.374,9.375 8.109 C 9.448 8.000,11.804 5.994,12.470 5.474 C 12.806 5.212,13.120 5.184,13.416 5.391 M13.416 12.393 C 13.614 12.528,13.736 12.759,13.735 12.997 C 13.734 13.331,13.645 13.441,12.837 14.115 L 12.088 14.740 14.674 14.760 C 16.536 14.774,17.282 14.793,17.340 14.827 C 17.446 14.888,17.618 15.075,17.681 15.198 C 17.709 15.252,17.731 15.388,17.731 15.500 C 17.731 15.612,17.709 15.748,17.681 15.802 C 17.618 15.925,17.446 16.112,17.340 16.173 C 17.282 16.207,16.535 16.226,14.669 16.240 L 12.077 16.260 12.817 16.874 C 13.223 17.212,13.583 17.528,13.615 17.578 C 13.969 18.118,13.507 18.846,12.877 18.739 C 12.792 18.725,12.646 18.658,12.553 18.590 C 12.228 18.355,9.539 16.095,9.431 15.966 C 9.221 15.716,9.199 15.374,9.375 15.109 C 9.448 15.000,11.804 12.994,12.470 12.474 C 12.804 12.214,13.116 12.187,13.416 12.393 " fill="#1C274C" stroke="none" fill-rule="evenodd"></path></svg>