<svg width="24" height="24" viewBox="0 0 24 24" fill="none" xmlns="http://www.w3.org/2000/svg"><path d="M7.300 3.025 C 6.242 3.062,5.437 3.152,4.829 3.303 C 4.317 3.430,4.011 3.561,3.617 3.822 C 2.947 4.265,2.534 4.896,2.302 5.829 C 2.098 6.652,2.043 7.346,2.012 9.510 L 1.988 11.240 12.000 11.240 L 22.012 11.240 21.988 9.510 C 21.951 6.965,21.844 6.021,21.494 5.183 C 21.356 4.854,21.004 4.331,20.782 4.126 C 20.110 3.507,19.313 3.234,17.720 3.076 C 17.299 3.034,8.317 2.991,7.300 3.025 M6.267 5.803 C 6.427 5.863,6.598 6.034,6.684 6.220 C 6.751 6.364,6.758 6.494,6.758 7.500 C 6.758 8.735,6.745 8.814,6.495 9.047 C 6.120 9.398,5.541 9.267,5.316 8.780 C 5.249 8.636,5.242 8.506,5.242 7.500 C 5.242 6.493,5.249 6.363,5.316 6.216 C 5.487 5.839,5.895 5.662,6.267 5.803 M9.267 5.803 C 9.427 5.863,9.598 6.034,9.684 6.220 C 9.751 6.364,9.758 6.494,9.758 7.500 C 9.758 8.735,9.745 8.814,9.495 9.047 C 9.120 9.398,8.541 9.267,8.316 8.780 C 8.249 8.636,8.242 8.506,8.242 7.500 C 8.242 6.493,8.249 6.363,8.316 6.216 C 8.487 5.839,8.895 5.662,9.267 5.803 M18.267 6.803 C 18.516 6.896,18.758 7.241,18.758 7.500 C 18.758 7.759,18.516 8.104,18.267 8.197 C 18.192 8.226,17.348 8.240,15.736 8.240 C 13.441 8.240,13.309 8.236,13.168 8.164 C 12.999 8.078,12.917 7.994,12.825 7.812 C 12.697 7.559,12.776 7.139,12.986 6.955 C 13.211 6.758,13.136 6.763,15.727 6.762 C 17.349 6.761,18.192 6.774,18.267 6.803 M2.012 14.590 C 2.041 16.959,2.130 17.795,2.444 18.658 C 2.774 19.563,3.437 20.226,4.342 20.556 C 5.381 20.934,6.307 20.999,10.726 20.999 L 13.911 21.000 13.774 20.683 C 13.566 20.203,13.509 19.870,13.532 19.280 C 13.559 18.566,13.745 18.036,14.160 17.489 C 14.248 17.373,14.320 17.270,14.320 17.259 C 14.320 17.249,14.103 17.240,13.839 17.240 C 13.189 17.240,12.990 17.157,12.835 16.820 C 12.706 16.538,12.775 16.139,12.986 15.952 C 13.182 15.777,13.309 15.760,14.389 15.760 L 15.420 15.760 15.594 15.418 C 15.951 14.721,16.496 14.183,17.180 13.854 C 17.744 13.584,17.957 13.540,18.700 13.542 C 19.309 13.544,19.358 13.550,19.720 13.671 C 20.634 13.976,21.402 14.669,21.817 15.565 C 21.947 15.846,21.949 15.847,21.974 15.719 C 21.988 15.648,22.000 14.953,22.000 14.175 L 22.000 12.760 11.995 12.760 L 1.989 12.760 2.012 14.590 M6.292 14.814 C 6.447 14.879,6.667 15.119,6.709 15.271 C 6.749 15.413,6.749 17.587,6.709 17.729 C 6.667 17.881,6.447 18.121,6.292 18.186 C 5.998 18.309,5.664 18.229,5.450 17.985 C 5.379 17.905,5.307 17.789,5.291 17.729 C 5.251 17.587,5.251 15.413,5.291 15.271 C 5.332 15.124,5.550 14.881,5.699 14.816 C 5.857 14.747,6.130 14.746,6.292 14.814 M9.292 14.814 C 9.447 14.879,9.667 15.119,9.709 15.271 C 9.749 15.413,9.749 17.587,9.709 17.729 C 9.667 17.881,9.447 18.121,9.292 18.186 C 8.998 18.309,8.664 18.229,8.450 17.985 C 8.379 17.905,8.307 17.789,8.291 17.729 C 8.251 17.587,8.251 15.413,8.291 15.271 C 8.332 15.124,8.550 14.881,8.699 14.816 C 8.857 14.747,9.130 14.746,9.292 14.814 M18.164 15.063 C 17.504 15.241,16.947 15.817,16.739 16.537 C 16.685 16.722,16.675 16.869,16.692 17.217 C 16.703 17.461,16.725 17.699,16.741 17.747 C 16.767 17.831,16.757 17.835,16.508 17.835 C 16.162 17.835,15.971 17.891,15.704 18.071 C 14.700 18.745,14.797 20.320,15.874 20.850 L 16.138 20.980 18.139 20.992 C 20.351 21.006,20.459 20.997,20.886 20.774 C 22.156 20.109,22.384 18.307,21.324 17.310 C 21.178 17.173,20.968 17.018,20.858 16.967 C 20.660 16.876,20.657 16.871,20.611 16.631 C 20.507 16.086,20.050 15.468,19.570 15.225 C 19.134 15.004,18.609 14.944,18.164 15.063 " fill="#1C274C" stroke="none" fill-rule="evenodd"></path></svg>