<svg width="24" height="24" viewBox="0 0 24 24" fill="none" xmlns="http://www.w3.org/2000/svg"><path d="M7.300 3.025 C 6.242 3.062,5.437 3.152,4.829 3.303 C 4.317 3.430,4.011 3.561,3.617 3.822 C 2.947 4.265,2.534 4.896,2.302 5.829 C 2.098 6.652,2.043 7.346,2.012 9.510 L 1.988 11.240 12.000 11.240 L 22.012 11.240 21.988 9.510 C 21.951 6.965,21.844 6.021,21.494 5.183 C 21.356 4.854,21.004 4.331,20.782 4.126 C 20.110 3.507,19.313 3.234,17.720 3.076 C 17.299 3.034,8.317 2.991,7.300 3.025 M6.267 5.803 C 6.427 5.863,6.598 6.034,6.684 6.220 C 6.751 6.364,6.758 6.494,6.758 7.500 C 6.758 8.735,6.745 8.814,6.495 9.047 C 6.120 9.398,5.541 9.267,5.316 8.780 C 5.249 8.636,5.242 8.506,5.242 7.500 C 5.242 6.493,5.249 6.363,5.316 6.216 C 5.487 5.839,5.895 5.662,6.267 5.803 M9.267 5.803 C 9.427 5.863,9.598 6.034,9.684 6.220 C 9.751 6.364,9.758 6.494,9.758 7.500 C 9.758 8.735,9.745 8.814,9.495 9.047 C 9.120 9.398,8.541 9.267,8.316 8.780 C 8.249 8.636,8.242 8.506,8.242 7.500 C 8.242 6.493,8.249 6.363,8.316 6.216 C 8.487 5.839,8.895 5.662,9.267 5.803 M18.267 6.803 C 18.516 6.896,18.758 7.241,18.758 7.500 C 18.758 7.759,18.516 8.104,18.267 8.197 C 18.192 8.226,17.348 8.240,15.736 8.240 C 13.441 8.240,13.309 8.236,13.168 8.164 C 12.999 8.078,12.917 7.994,12.825 7.812 C 12.697 7.559,12.776 7.139,12.986 6.955 C 13.211 6.758,13.136 6.763,15.727 6.762 C 17.349 6.761,18.192 6.774,18.267 6.803 M2.012 14.590 C 2.041 16.959,2.130 17.795,2.444 18.658 C 2.774 19.563,3.437 20.226,4.342 20.556 C 5.380 20.934,6.308 20.999,10.708 20.999 L 13.877 21.000 13.641 20.550 C 13.372 20.037,13.225 19.626,13.114 19.080 C 13.018 18.609,12.981 17.884,13.032 17.460 C 13.068 17.156,13.065 17.135,12.980 17.040 C 12.703 16.734,12.691 16.276,12.952 15.987 C 13.040 15.889,13.294 15.760,13.398 15.760 C 13.457 15.760,13.512 15.693,13.604 15.510 C 14.169 14.380,15.213 13.415,16.411 12.916 L 16.780 12.762 9.385 12.761 L 1.989 12.760 2.012 14.590 M18.060 14.283 C 16.669 14.422,15.404 15.352,15.004 16.530 C 14.943 16.709,14.913 16.745,14.799 16.778 C 14.601 16.834,14.337 17.107,14.282 17.311 C 14.188 17.665,14.290 17.866,14.786 18.299 C 15.214 18.673,15.320 18.731,15.580 18.731 C 15.838 18.731,15.950 18.671,16.385 18.300 C 16.745 17.994,16.918 17.742,16.919 17.525 C 16.921 17.333,16.822 17.112,16.668 16.957 L 16.510 16.799 16.623 16.636 C 16.877 16.269,17.392 15.938,17.890 15.820 C 18.213 15.744,18.790 15.745,19.118 15.822 C 19.567 15.928,19.866 16.101,20.224 16.463 C 20.402 16.643,20.591 16.817,20.644 16.850 C 21.036 17.095,21.614 16.836,21.714 16.370 C 21.791 16.014,21.639 15.710,21.166 15.272 C 20.552 14.704,19.802 14.375,18.900 14.280 C 18.503 14.238,18.514 14.237,18.060 14.283 M6.292 14.814 C 6.447 14.879,6.667 15.119,6.709 15.271 C 6.749 15.413,6.749 17.587,6.709 17.729 C 6.667 17.881,6.447 18.121,6.292 18.186 C 5.998 18.309,5.664 18.229,5.450 17.985 C 5.379 17.905,5.307 17.789,5.291 17.729 C 5.251 17.587,5.251 15.413,5.291 15.271 C 5.332 15.124,5.550 14.881,5.699 14.816 C 5.857 14.747,6.130 14.746,6.292 14.814 M9.292 14.814 C 9.447 14.879,9.667 15.119,9.709 15.271 C 9.749 15.413,9.749 17.587,9.709 17.729 C 9.667 17.881,9.447 18.121,9.292 18.186 C 8.998 18.309,8.664 18.229,8.450 17.985 C 8.379 17.905,8.307 17.789,8.291 17.729 C 8.251 17.587,8.251 15.413,8.291 15.271 C 8.332 15.124,8.550 14.881,8.699 14.816 C 8.857 14.747,9.130 14.746,9.292 14.814 M21.260 17.277 C 21.077 17.321,20.997 17.374,20.614 17.700 C 20.255 18.006,20.082 18.258,20.081 18.475 C 20.079 18.667,20.178 18.888,20.332 19.043 L 20.490 19.201 20.377 19.364 C 20.123 19.731,19.608 20.062,19.110 20.180 C 18.787 20.256,18.210 20.255,17.882 20.178 C 17.433 20.072,17.134 19.899,16.776 19.537 C 16.412 19.169,16.317 19.100,16.127 19.065 C 15.618 18.972,15.149 19.484,15.286 19.984 C 15.406 20.422,16.094 21.048,16.824 21.386 C 18.802 22.300,21.356 21.353,21.996 19.470 C 22.057 19.291,22.087 19.255,22.201 19.222 C 22.398 19.166,22.663 18.893,22.717 18.693 C 22.767 18.505,22.729 18.260,22.624 18.101 C 22.545 17.979,21.898 17.411,21.761 17.342 C 21.621 17.271,21.403 17.243,21.260 17.277 " fill="#1C274C" stroke="none" fill-rule="evenodd"></path></svg>