<svg width="24" height="24" viewBox="0 0 24 24" fill="none" xmlns="http://www.w3.org/2000/svg"><path d="M4.153 3.044 C 3.140 3.122,2.606 3.395,2.305 3.989 C 2.040 4.513,1.986 5.134,2.011 7.357 C 2.028 8.868,2.039 9.101,2.110 9.422 C 2.307 10.309,2.751 10.733,3.667 10.906 C 4.042 10.977,4.432 10.980,12.000 10.980 C 19.568 10.980,19.958 10.977,20.333 10.906 C 21.270 10.729,21.719 10.282,21.908 9.340 C 21.972 9.022,21.980 8.748,21.980 7.000 C 21.980 5.252,21.972 4.978,21.908 4.660 C 21.774 3.990,21.501 3.569,21.046 3.326 C 20.739 3.163,20.417 3.091,19.759 3.041 C 19.110 2.992,4.799 2.994,4.153 3.044 M6.405 5.381 C 6.485 5.432,6.593 5.543,6.645 5.627 C 6.740 5.779,6.740 5.785,6.740 7.007 L 6.740 8.233 6.619 8.405 C 6.453 8.641,6.273 8.739,6.000 8.739 C 5.727 8.739,5.547 8.641,5.381 8.405 L 5.260 8.233 5.260 7.007 C 5.260 5.793,5.261 5.778,5.353 5.631 C 5.586 5.256,6.044 5.147,6.405 5.381 M9.405 5.381 C 9.485 5.432,9.593 5.543,9.645 5.627 C 9.740 5.779,9.740 5.785,9.740 7.007 L 9.740 8.233 9.619 8.405 C 9.453 8.641,9.273 8.739,9.000 8.739 C 8.727 8.739,8.547 8.641,8.381 8.405 L 8.260 8.233 8.260 7.007 C 8.260 5.793,8.261 5.778,8.353 5.631 C 8.586 5.256,9.044 5.147,9.405 5.381 M18.388 6.367 C 18.628 6.526,18.733 6.721,18.733 7.007 C 18.733 7.203,18.714 7.271,18.616 7.409 C 18.552 7.501,18.436 7.613,18.359 7.658 C 18.224 7.738,18.155 7.740,15.840 7.752 C 14.191 7.761,13.414 7.751,13.309 7.720 C 13.226 7.696,13.093 7.619,13.013 7.549 C 12.669 7.247,12.670 6.753,13.015 6.450 C 13.095 6.379,13.211 6.310,13.271 6.297 C 13.331 6.284,13.398 6.267,13.420 6.259 C 13.442 6.251,14.532 6.248,15.843 6.252 L 18.226 6.260 18.388 6.367 M4.200 13.041 C 2.806 13.152,2.300 13.559,2.087 14.740 C 1.992 15.270,1.992 18.730,2.087 19.260 C 2.276 20.311,2.686 20.721,3.740 20.914 C 4.067 20.974,4.831 20.980,12.000 20.980 C 19.169 20.980,19.933 20.974,20.260 20.914 C 21.314 20.721,21.712 20.324,21.910 19.267 C 22.012 18.721,22.012 15.279,21.910 14.733 C 21.714 13.690,21.321 13.289,20.300 13.089 C 20.017 13.034,19.083 13.026,12.280 13.018 C 8.045 13.014,4.409 13.024,4.200 13.041 M6.271 15.302 C 6.468 15.384,6.595 15.506,6.684 15.700 C 6.751 15.843,6.758 15.977,6.759 16.991 C 6.760 17.923,6.749 18.149,6.698 18.271 C 6.431 18.911,5.569 18.911,5.302 18.271 C 5.211 18.052,5.211 15.948,5.302 15.729 C 5.384 15.532,5.506 15.405,5.700 15.316 C 5.897 15.225,6.076 15.221,6.271 15.302 M9.271 15.302 C 9.468 15.384,9.595 15.506,9.684 15.700 C 9.751 15.843,9.758 15.977,9.759 16.991 C 9.760 17.923,9.749 18.149,9.698 18.271 C 9.431 18.911,8.569 18.911,8.302 18.271 C 8.211 18.052,8.211 15.948,8.302 15.729 C 8.384 15.532,8.506 15.405,8.700 15.316 C 8.897 15.225,9.076 15.221,9.271 15.302 M18.300 16.316 C 18.494 16.405,18.616 16.532,18.698 16.729 C 18.852 17.097,18.680 17.509,18.300 17.684 C 18.150 17.754,17.989 17.758,15.760 17.758 C 13.543 17.758,13.369 17.753,13.220 17.685 C 13.013 17.591,12.811 17.360,12.777 17.178 C 12.708 16.812,12.857 16.500,13.178 16.339 L 13.376 16.240 15.758 16.241 C 17.988 16.242,18.150 16.246,18.300 16.316 " fill="#1C274C" stroke="none" fill-rule="evenodd"></path></svg>