<svg width="24" height="24" viewBox="0 0 24 24" fill="none" xmlns="http://www.w3.org/2000/svg"><path d="M4.153 3.044 C 3.140 3.122,2.606 3.395,2.305 3.989 C 2.040 4.513,1.986 5.134,2.011 7.357 C 2.028 8.868,2.039 9.101,2.110 9.422 C 2.307 10.309,2.751 10.733,3.667 10.906 C 4.042 10.977,4.432 10.980,12.000 10.980 C 19.568 10.980,19.958 10.977,20.333 10.906 C 21.270 10.729,21.719 10.282,21.908 9.340 C 21.972 9.022,21.980 8.748,21.980 7.000 C 21.980 5.252,21.972 4.978,21.908 4.660 C 21.774 3.990,21.501 3.569,21.046 3.326 C 20.739 3.163,20.417 3.091,19.759 3.041 C 19.110 2.992,4.799 2.994,4.153 3.044 M8.388 6.367 C 8.628 6.526,8.733 6.721,8.733 7.007 C 8.733 7.203,8.714 7.271,8.616 7.409 C 8.384 7.740,8.383 7.740,7.000 7.740 C 5.617 7.740,5.616 7.740,5.384 7.409 C 5.098 7.003,5.328 6.398,5.815 6.277 C 5.884 6.260,6.454 6.249,7.083 6.253 L 8.226 6.260 8.388 6.367 M18.373 6.355 C 18.615 6.506,18.733 6.718,18.733 7.003 C 18.733 7.203,18.714 7.270,18.616 7.409 C 18.552 7.501,18.436 7.613,18.359 7.658 C 18.222 7.739,18.177 7.740,14.500 7.740 C 10.823 7.740,10.778 7.739,10.641 7.658 C 10.564 7.613,10.448 7.501,10.384 7.409 C 10.098 7.003,10.330 6.395,10.815 6.278 C 10.884 6.261,12.578 6.250,14.580 6.254 L 18.220 6.260 18.373 6.355 M4.200 13.041 C 2.806 13.152,2.300 13.559,2.087 14.740 C 1.992 15.270,1.992 18.730,2.087 19.260 C 2.276 20.311,2.686 20.721,3.740 20.914 C 4.067 20.974,4.831 20.980,12.000 20.980 C 19.169 20.980,19.933 20.974,20.260 20.914 C 21.314 20.721,21.712 20.324,21.910 19.267 C 22.012 18.721,22.012 15.279,21.910 14.733 C 21.714 13.690,21.321 13.289,20.300 13.089 C 20.017 13.034,19.083 13.026,12.280 13.018 C 8.045 13.014,4.409 13.024,4.200 13.041 M8.271 16.302 C 8.468 16.384,8.595 16.506,8.684 16.700 C 8.863 17.086,8.680 17.527,8.271 17.698 C 8.052 17.789,5.948 17.789,5.729 17.698 C 5.101 17.436,5.084 16.600,5.700 16.316 C 5.843 16.249,5.977 16.242,6.991 16.241 C 7.923 16.240,8.149 16.251,8.271 16.302 M18.300 16.316 C 18.904 16.594,18.904 17.406,18.300 17.684 C 18.148 17.754,17.954 17.758,14.509 17.759 C 11.320 17.760,10.859 17.752,10.729 17.698 C 10.101 17.436,10.084 16.600,10.700 16.316 C 10.852 16.246,11.046 16.242,14.500 16.242 C 17.954 16.242,18.148 16.246,18.300 16.316 " fill="#1C274C" stroke="none" fill-rule="evenodd"></path></svg>