<svg width="24" height="24" viewBox="0 0 24 24" fill="none" xmlns="http://www.w3.org/2000/svg"><path d="M4.902 3.066 C 3.502 3.366,2.550 4.639,2.720 5.982 C 2.869 7.154,3.740 8.062,4.960 8.315 C 5.245 8.375,5.300 8.395,5.179 8.397 C 4.940 8.401,4.457 8.547,4.156 8.705 C 3.441 9.081,2.942 9.725,2.755 10.513 C 2.688 10.795,2.699 11.382,2.777 11.680 C 3.005 12.548,3.703 13.292,4.553 13.573 C 4.732 13.632,5.046 13.698,5.249 13.720 C 5.453 13.741,6.893 13.759,8.450 13.759 L 11.280 13.760 11.280 15.156 L 11.280 16.552 11.053 16.680 C 10.779 16.835,10.493 17.121,10.359 17.373 L 10.260 17.560 6.386 17.560 C 2.094 17.560,2.347 17.545,2.138 17.819 C 1.947 18.069,1.960 18.387,2.171 18.627 C 2.406 18.894,2.171 18.880,6.409 18.881 L 10.260 18.882 10.380 19.084 C 10.793 19.782,11.673 20.143,12.458 19.939 C 12.953 19.810,13.470 19.416,13.655 19.025 L 13.724 18.880 17.583 18.880 C 21.831 18.880,21.594 18.894,21.829 18.627 C 22.040 18.387,22.053 18.069,21.862 17.819 C 21.653 17.545,21.906 17.560,17.614 17.560 L 13.740 17.560 13.641 17.373 C 13.507 17.121,13.221 16.835,12.947 16.680 L 12.720 16.552 12.720 15.156 L 12.720 13.760 15.550 13.759 C 17.107 13.759,18.547 13.741,18.751 13.720 C 19.969 13.591,20.933 12.795,21.222 11.680 C 21.299 11.381,21.311 10.791,21.245 10.513 C 21.058 9.725,20.559 9.081,19.844 8.705 C 19.543 8.547,19.060 8.401,18.821 8.397 C 18.700 8.395,18.755 8.375,19.040 8.315 C 19.286 8.264,19.553 8.172,19.797 8.054 C 20.109 7.903,20.231 7.815,20.499 7.546 C 21.031 7.011,21.287 6.414,21.291 5.700 C 21.294 5.241,21.235 4.989,21.017 4.534 C 20.657 3.782,19.946 3.244,19.072 3.064 C 18.796 3.007,18.035 3.000,11.972 3.003 C 6.117 3.006,5.142 3.015,4.902 3.066 M6.723 4.846 C 7.079 4.952,7.333 5.299,7.333 5.680 C 7.333 6.511,6.280 6.887,5.723 6.254 C 5.116 5.564,5.819 4.575,6.723 4.846 M18.657 5.038 C 18.962 5.109,19.161 5.331,19.190 5.633 C 19.214 5.877,19.108 6.092,18.891 6.241 L 18.746 6.340 15.863 6.352 C 14.277 6.359,12.903 6.353,12.808 6.339 C 12.473 6.291,12.218 5.967,12.250 5.630 C 12.278 5.340,12.481 5.107,12.765 5.040 C 12.954 4.995,18.465 4.994,18.657 5.038 M6.901 10.298 C 7.602 10.709,7.426 11.721,6.619 11.924 C 5.985 12.084,5.352 11.465,5.518 10.848 C 5.677 10.257,6.364 9.984,6.901 10.298 M18.905 10.502 C 19.094 10.644,19.172 10.783,19.188 11.008 C 19.208 11.286,19.091 11.497,18.844 11.627 L 18.667 11.720 15.720 11.720 L 12.773 11.720 12.596 11.627 C 12.234 11.436,12.132 10.982,12.378 10.659 C 12.583 10.390,12.424 10.401,15.767 10.411 C 18.755 10.420,18.796 10.421,18.905 10.502 " fill="#1C274C" stroke="none" fill-rule="evenodd"></path></svg>