<svg width="24" height="24" viewBox="0 0 24 24" fill="none" xmlns="http://www.w3.org/2000/svg"><path d="M7.300 3.026 C 6.601 3.050,5.735 3.126,5.300 3.200 C 3.421 3.523,2.492 4.471,2.184 6.380 C 2.063 7.129,2.035 7.619,2.012 9.430 L 1.989 11.240 12.000 11.240 L 22.011 11.240 21.988 9.430 C 21.965 7.619,21.937 7.129,21.816 6.380 C 21.503 4.442,20.537 3.482,18.599 3.183 C 17.675 3.041,17.292 3.030,12.460 3.022 C 9.820 3.017,7.498 3.019,7.300 3.026 M6.292 5.814 C 6.447 5.879,6.667 6.119,6.709 6.271 C 6.749 6.413,6.749 8.587,6.709 8.729 C 6.667 8.881,6.447 9.121,6.292 9.186 C 5.998 9.309,5.664 9.229,5.450 8.985 C 5.379 8.905,5.307 8.789,5.291 8.729 C 5.251 8.587,5.251 6.413,5.291 6.271 C 5.332 6.124,5.550 5.881,5.699 5.816 C 5.857 5.747,6.130 5.746,6.292 5.814 M9.292 5.814 C 9.447 5.879,9.667 6.119,9.709 6.271 C 9.749 6.413,9.749 8.587,9.709 8.729 C 9.667 8.881,9.447 9.121,9.292 9.186 C 8.998 9.309,8.664 9.229,8.450 8.985 C 8.379 8.905,8.307 8.789,8.291 8.729 C 8.251 8.587,8.251 6.413,8.291 6.271 C 8.332 6.124,8.550 5.881,8.699 5.816 C 8.857 5.747,9.130 5.746,9.292 5.814 M18.267 6.803 C 18.540 6.905,18.731 7.193,18.731 7.500 C 18.731 7.807,18.540 8.095,18.267 8.197 C 18.192 8.226,17.354 8.240,15.756 8.240 C 13.205 8.240,13.201 8.240,12.986 8.048 C 12.783 7.869,12.708 7.483,12.822 7.210 C 12.904 7.012,12.990 6.923,13.180 6.835 C 13.330 6.767,13.497 6.762,15.747 6.761 C 17.353 6.760,18.192 6.774,18.267 6.803 M2.012 14.590 C 2.035 16.514,2.084 17.208,2.246 17.958 C 2.582 19.513,3.405 20.367,4.912 20.725 C 5.981 20.979,6.887 21.010,12.600 20.988 C 17.440 20.970,17.725 20.961,18.620 20.817 C 20.556 20.503,21.504 19.555,21.816 17.620 C 21.937 16.871,21.965 16.381,21.988 14.570 L 22.011 12.760 12.000 12.760 L 1.989 12.760 2.012 14.590 M6.292 14.814 C 6.447 14.879,6.667 15.119,6.709 15.271 C 6.749 15.413,6.749 17.587,6.709 17.729 C 6.667 17.881,6.447 18.121,6.292 18.186 C 5.998 18.309,5.664 18.229,5.450 17.985 C 5.379 17.905,5.307 17.789,5.291 17.729 C 5.251 17.587,5.251 15.413,5.291 15.271 C 5.332 15.124,5.550 14.881,5.699 14.816 C 5.857 14.747,6.130 14.746,6.292 14.814 M9.292 14.814 C 9.447 14.879,9.667 15.119,9.709 15.271 C 9.749 15.413,9.749 17.587,9.709 17.729 C 9.667 17.881,9.447 18.121,9.292 18.186 C 8.998 18.309,8.664 18.229,8.450 17.985 C 8.379 17.905,8.307 17.789,8.291 17.729 C 8.251 17.587,8.251 15.413,8.291 15.271 C 8.332 15.124,8.550 14.881,8.699 14.816 C 8.857 14.747,9.130 14.746,9.292 14.814 M18.267 15.803 C 18.540 15.905,18.731 16.193,18.731 16.500 C 18.731 16.807,18.540 17.095,18.267 17.197 C 18.192 17.226,17.354 17.240,15.756 17.240 C 13.205 17.240,13.201 17.240,12.986 17.048 C 12.783 16.869,12.708 16.483,12.822 16.210 C 12.904 16.012,12.990 15.923,13.180 15.835 C 13.330 15.767,13.497 15.762,15.747 15.761 C 17.353 15.760,18.192 15.774,18.267 15.803 " fill="#1C274C" stroke="none" fill-rule="evenodd"></path></svg>