<svg width="24" height="24" viewBox="0 0 24 24" fill="none" xmlns="http://www.w3.org/2000/svg"><path d="M11.860 2.059 C 11.324 2.158,10.624 2.452,9.740 2.949 C 9.063 3.329,6.545 4.825,6.023 5.156 C 4.292 6.255,3.770 6.945,3.532 8.446 C 3.467 8.855,3.460 9.210,3.460 12.000 C 3.460 14.790,3.467 15.145,3.532 15.554 C 3.762 17.008,4.276 17.714,5.840 18.729 C 6.859 19.390,9.652 21.027,10.406 21.404 C 12.103 22.255,13.027 22.204,14.939 21.151 C 15.573 20.803,17.791 19.493,18.632 18.972 C 20.633 17.732,21.166 16.997,21.368 15.200 C 21.440 14.554,21.441 9.451,21.368 8.800 C 21.175 7.068,20.639 6.295,18.845 5.163 C 18.373 4.865,16.463 3.726,15.520 3.180 C 14.833 2.782,13.984 2.358,13.606 2.224 C 13.018 2.014,12.411 1.957,11.860 2.059 M13.315 8.363 C 14.607 8.664,15.666 9.694,16.048 11.020 C 16.127 11.296,16.140 11.431,16.140 12.000 C 16.140 12.769,16.078 13.054,15.780 13.660 C 15.194 14.847,14.010 15.639,12.660 15.745 C 12.005 15.797,11.187 15.604,10.563 15.251 C 10.174 15.031,9.642 14.550,9.376 14.176 C 9.149 13.858,8.901 13.329,8.793 12.931 C 8.671 12.485,8.671 11.517,8.792 11.072 C 8.972 10.410,9.330 9.797,9.807 9.336 C 10.759 8.413,12.025 8.062,13.315 8.363 " fill="#1C274C" stroke="none" fill-rule="evenodd"></path></svg>