<svg width="24" height="24" viewBox="0 0 24 24" fill="none" xmlns="http://www.w3.org/2000/svg"><path d="M11.180 2.046 C 10.652 2.113,10.090 2.468,9.803 2.916 C 9.611 3.215,9.529 3.499,9.484 4.018 C 9.434 4.587,9.312 4.892,9.012 5.192 C 8.511 5.692,7.823 5.782,7.086 5.443 C 6.540 5.191,6.413 5.157,6.033 5.156 C 5.633 5.156,5.437 5.200,5.108 5.366 C 4.647 5.599,4.425 5.872,3.761 7.020 C 3.300 7.818,3.147 8.121,3.064 8.397 C 2.937 8.828,3.005 9.353,3.248 9.809 C 3.405 10.103,3.591 10.296,3.966 10.555 C 4.342 10.814,4.396 10.862,4.572 11.093 C 4.741 11.313,4.880 11.724,4.880 12.000 C 4.880 12.276,4.741 12.687,4.572 12.907 C 4.396 13.138,4.342 13.186,3.966 13.445 C 3.591 13.704,3.405 13.897,3.248 14.191 C 2.911 14.823,2.918 15.400,3.270 16.100 C 3.461 16.481,4.089 17.556,4.323 17.903 C 4.676 18.428,5.070 18.703,5.641 18.824 C 6.124 18.926,6.464 18.860,7.140 18.534 C 7.452 18.384,7.471 18.380,7.900 18.380 C 8.306 18.380,8.359 18.389,8.579 18.498 C 8.893 18.652,9.176 18.939,9.323 19.255 C 9.419 19.460,9.450 19.596,9.482 19.964 C 9.531 20.531,9.595 20.759,9.792 21.062 C 10.065 21.481,10.438 21.766,10.900 21.907 C 11.112 21.972,11.297 21.980,12.500 21.980 C 13.703 21.980,13.888 21.972,14.100 21.907 C 14.704 21.723,15.193 21.257,15.399 20.671 C 15.441 20.552,15.494 20.242,15.516 19.982 C 15.550 19.596,15.579 19.463,15.677 19.255 C 15.824 18.939,16.106 18.652,16.421 18.498 C 16.641 18.389,16.694 18.380,17.100 18.380 C 17.529 18.380,17.548 18.384,17.860 18.534 C 18.536 18.860,18.876 18.926,19.359 18.824 C 19.930 18.703,20.325 18.428,20.677 17.903 C 20.894 17.580,21.571 16.419,21.751 16.060 C 22.081 15.401,22.081 14.809,21.752 14.191 C 21.600 13.906,21.390 13.690,21.020 13.439 C 20.636 13.179,20.418 12.947,20.268 12.640 C 20.153 12.404,20.141 12.345,20.141 12.000 C 20.141 11.655,20.153 11.596,20.268 11.360 C 20.420 11.050,20.637 10.820,21.034 10.552 C 21.406 10.299,21.594 10.105,21.752 9.809 C 21.995 9.353,22.063 8.828,21.936 8.397 C 21.853 8.118,21.718 7.852,21.249 7.040 C 20.570 5.866,20.355 5.600,19.892 5.366 C 19.563 5.200,19.367 5.156,18.967 5.156 C 18.588 5.157,18.460 5.192,17.917 5.441 C 17.177 5.782,16.489 5.693,15.988 5.192 C 15.689 4.893,15.567 4.589,15.515 4.016 C 15.492 3.754,15.439 3.444,15.398 3.326 C 15.156 2.632,14.523 2.135,13.761 2.042 C 13.358 1.992,11.579 1.995,11.180 2.046 M13.320 9.121 C 13.830 9.264,14.213 9.494,14.625 9.902 C 14.948 10.222,15.014 10.311,15.192 10.682 C 15.448 11.216,15.499 11.434,15.499 12.000 C 15.499 12.566,15.448 12.784,15.192 13.318 C 15.014 13.688,14.947 13.779,14.625 14.100 C 14.222 14.501,13.864 14.717,13.320 14.886 C 12.887 15.020,12.112 15.020,11.680 14.886 C 10.756 14.597,10.074 13.992,9.714 13.140 C 9.549 12.752,9.501 12.492,9.501 12.000 C 9.501 11.740,9.525 11.444,9.556 11.320 C 9.854 10.142,10.808 9.261,12.026 9.039 C 12.326 8.985,12.982 9.026,13.320 9.121 " fill="#1C274C" stroke="none" fill-rule="evenodd"></path></svg>