<svg width="24" height="24" viewBox="0 0 24 24" fill="none" xmlns="http://www.w3.org/2000/svg"><path d="M11.503 3.040 C 10.828 3.162,10.156 3.550,9.703 4.080 C 8.987 4.917,8.806 6.100,9.234 7.151 C 9.521 7.857,10.143 8.479,10.849 8.766 C 11.989 9.230,13.251 8.978,14.115 8.115 C 15.238 6.992,15.295 5.212,14.246 4.020 C 13.897 3.624,13.276 3.239,12.756 3.097 C 12.491 3.024,11.770 2.991,11.503 3.040 M6.531 6.279 C 6.340 6.324,6.218 6.416,5.818 6.817 C 4.537 8.099,3.698 9.726,3.381 11.540 C 3.287 12.077,3.237 12.942,3.287 13.174 C 3.396 13.684,4.037 13.905,4.464 13.580 C 4.672 13.421,4.724 13.253,4.764 12.617 C 4.832 11.529,5.058 10.692,5.546 9.720 C 5.901 9.014,6.333 8.420,6.912 7.842 C 7.142 7.612,7.355 7.366,7.385 7.294 C 7.464 7.105,7.453 6.851,7.356 6.652 C 7.222 6.374,6.846 6.204,6.531 6.279 M17.134 6.278 C 16.782 6.362,16.560 6.643,16.560 7.005 C 16.560 7.283,16.618 7.374,17.107 7.864 C 17.741 8.499,18.150 9.076,18.537 9.882 C 18.958 10.759,19.172 11.595,19.236 12.617 C 19.261 13.018,19.293 13.235,19.341 13.337 C 19.548 13.773,20.171 13.869,20.520 13.520 C 20.729 13.311,20.764 13.121,20.718 12.440 C 20.598 10.651,20.015 9.105,18.907 7.640 C 18.589 7.219,17.831 6.438,17.654 6.348 C 17.501 6.271,17.287 6.242,17.134 6.278 M5.005 15.042 C 4.216 15.184,3.491 15.646,3.054 16.288 C 2.672 16.848,2.521 17.334,2.521 18.000 C 2.521 18.510,2.603 18.868,2.817 19.300 C 3.135 19.943,3.563 20.376,4.177 20.677 C 4.656 20.912,4.937 20.975,5.500 20.975 C 6.063 20.975,6.344 20.912,6.823 20.677 C 7.413 20.388,7.847 19.959,8.155 19.363 C 8.414 18.861,8.458 18.660,8.458 18.000 C 8.458 17.340,8.414 17.139,8.155 16.637 C 7.764 15.880,7.066 15.314,6.260 15.102 C 5.961 15.023,5.291 14.991,5.005 15.042 M18.005 15.042 C 17.216 15.184,16.491 15.646,16.054 16.288 C 15.672 16.848,15.521 17.334,15.521 18.000 C 15.521 18.510,15.603 18.868,15.817 19.300 C 16.135 19.943,16.563 20.376,17.177 20.677 C 17.656 20.912,17.937 20.975,18.500 20.975 C 19.063 20.975,19.344 20.912,19.823 20.677 C 20.413 20.388,20.847 19.959,21.155 19.363 C 21.414 18.861,21.458 18.660,21.458 18.000 C 21.458 17.340,21.414 17.139,21.155 16.637 C 20.764 15.880,20.066 15.314,19.260 15.102 C 18.961 15.023,18.291 14.991,18.005 15.042 M9.720 20.064 C 9.423 20.193,9.269 20.426,9.269 20.746 C 9.269 21.030,9.418 21.283,9.649 21.393 C 10.049 21.583,11.074 21.729,12.000 21.729 C 12.680 21.729,13.217 21.677,13.800 21.554 C 14.319 21.445,14.496 21.354,14.626 21.133 C 14.880 20.700,14.675 20.178,14.195 20.034 C 14.054 19.991,13.962 20.000,13.467 20.103 C 12.934 20.213,12.846 20.220,11.980 20.218 C 11.133 20.217,11.020 20.208,10.560 20.108 C 9.989 19.984,9.913 19.980,9.720 20.064 " fill="#1C274C" stroke="none" fill-rule="evenodd"></path></svg>