<svg width="24" height="24" viewBox="0 0 24 24" fill="none" xmlns="http://www.w3.org/2000/svg"><path d="M16.653 2.040 C 15.906 2.149,15.253 2.500,14.700 3.087 C 14.293 3.520,14.062 3.942,13.891 4.565 C 13.797 4.909,13.797 5.760,13.891 6.100 C 13.943 6.288,13.947 6.350,13.909 6.386 C 13.842 6.449,9.554 9.365,9.495 9.388 C 9.468 9.398,9.405 9.349,9.353 9.279 C 9.092 8.923,8.257 8.409,7.700 8.261 C 7.362 8.172,6.676 8.139,6.338 8.196 C 5.376 8.359,4.574 8.880,4.042 9.687 C 3.183 10.990,3.365 12.719,4.478 13.832 C 5.114 14.468,5.928 14.807,6.820 14.808 C 7.644 14.808,8.251 14.599,8.980 14.064 C 9.055 14.009,9.225 14.113,11.571 15.652 C 13.371 16.834,14.076 17.317,14.062 17.360 C 14.052 17.393,13.995 17.573,13.936 17.760 C 13.842 18.055,13.828 18.171,13.824 18.640 C 13.820 19.212,13.862 19.446,14.056 19.926 C 14.224 20.341,14.410 20.610,14.800 21.000 C 15.297 21.497,15.685 21.722,16.365 21.909 C 16.752 22.015,17.601 22.005,18.006 21.890 C 18.399 21.778,18.702 21.643,18.987 21.454 C 20.394 20.520,20.889 18.731,20.160 17.217 C 19.659 16.177,18.664 15.482,17.510 15.365 C 16.692 15.283,15.863 15.494,15.227 15.947 L 15.034 16.084 14.587 15.793 C 13.474 15.068,10.017 12.791,9.993 12.767 C 9.978 12.752,10.011 12.587,10.067 12.400 C 10.149 12.126,10.170 11.967,10.174 11.580 C 10.177 11.316,10.171 11.039,10.160 10.963 L 10.140 10.827 12.453 9.251 L 14.765 7.675 14.914 7.810 C 15.284 8.144,15.811 8.423,16.340 8.564 C 16.789 8.685,17.531 8.685,17.978 8.565 C 20.020 8.016,21.069 5.804,20.178 3.924 C 19.547 2.590,18.116 1.826,16.653 2.040 " fill="#1C274C" stroke="none" fill-rule="evenodd"></path></svg>