<svg width="24" height="24" viewBox="0 0 24 24" fill="none" xmlns="http://www.w3.org/2000/svg"><path d="M11.380 2.059 C 10.764 2.158,10.290 2.303,7.800 3.160 C 4.668 4.237,3.817 4.601,3.449 5.019 C 3.060 5.461,2.986 6.382,3.010 10.420 C 3.028 13.310,3.031 13.361,3.287 14.400 C 3.982 17.232,5.990 19.567,9.080 21.137 C 9.749 21.477,10.343 21.731,10.780 21.865 C 11.125 21.971,11.175 21.975,12.000 21.975 C 12.816 21.975,12.878 21.970,13.203 21.870 C 13.894 21.658,14.939 21.166,15.800 20.649 C 18.311 19.142,19.960 17.112,20.633 14.700 C 20.967 13.504,20.999 13.092,20.999 10.060 C 20.998 6.235,20.928 5.448,20.551 5.019 C 20.179 4.596,19.334 4.238,16.080 3.120 C 12.790 1.989,12.386 1.898,11.380 2.059 M9.791 8.821 C 9.889 8.862,10.292 9.234,10.970 9.911 L 12.000 10.939 13.030 9.911 C 14.093 8.850,14.210 8.759,14.509 8.761 C 14.682 8.762,14.948 8.873,15.048 8.986 C 15.151 9.102,15.240 9.340,15.240 9.500 C 15.240 9.790,15.143 9.914,14.089 10.970 L 13.061 12.000 14.089 13.030 C 15.143 14.086,15.240 14.210,15.240 14.500 C 15.240 14.661,15.151 14.900,15.048 15.013 C 14.857 15.225,14.443 15.303,14.188 15.176 C 14.118 15.141,13.597 14.651,13.030 14.086 L 12.000 13.061 10.970 14.086 C 10.403 14.651,9.882 15.141,9.812 15.176 C 9.557 15.303,9.143 15.225,8.952 15.013 C 8.849 14.900,8.760 14.661,8.760 14.500 C 8.760 14.210,8.857 14.086,9.911 13.030 L 10.939 12.000 9.911 10.970 C 8.857 9.914,8.760 9.790,8.760 9.500 C 8.760 9.340,8.849 9.102,8.952 8.986 C 9.131 8.783,9.516 8.708,9.791 8.821 " fill="#1C274C" stroke="none" fill-rule="evenodd"></path></svg>