<svg width="24" height="24" viewBox="0 0 24 24" fill="none" xmlns="http://www.w3.org/2000/svg"><path d="M11.380 2.059 C 10.764 2.158,10.290 2.303,7.800 3.160 C 4.668 4.237,3.817 4.601,3.449 5.019 C 3.060 5.461,2.986 6.382,3.010 10.420 C 3.028 13.310,3.031 13.361,3.287 14.400 C 3.982 17.232,5.990 19.567,9.080 21.137 C 9.749 21.477,10.343 21.731,10.780 21.865 C 11.125 21.971,11.175 21.975,12.000 21.975 C 12.816 21.975,12.878 21.970,13.203 21.870 C 13.894 21.658,14.939 21.166,15.800 20.649 C 18.311 19.142,19.960 17.112,20.633 14.700 C 20.967 13.504,20.999 13.092,20.999 10.060 C 20.998 6.235,20.928 5.448,20.551 5.019 C 20.179 4.596,19.334 4.238,16.080 3.120 C 12.790 1.989,12.386 1.898,11.380 2.059 M12.192 7.057 C 12.430 7.181,12.625 7.450,13.118 8.329 C 13.300 8.654,13.507 8.971,13.581 9.035 C 13.691 9.132,13.822 9.177,14.347 9.299 C 15.319 9.525,15.613 9.626,15.810 9.800 C 15.970 9.942,15.980 9.963,15.980 10.167 C 15.980 10.456,15.854 10.659,15.174 11.466 C 14.841 11.861,14.622 12.157,14.593 12.251 C 14.557 12.370,14.562 12.574,14.619 13.221 C 14.725 14.434,14.679 14.796,14.401 14.939 C 14.143 15.073,13.868 15.001,12.840 14.531 C 12.330 14.298,12.139 14.229,12.000 14.229 C 11.861 14.229,11.670 14.298,11.160 14.531 C 10.132 15.001,9.857 15.073,9.599 14.939 C 9.321 14.795,9.272 14.404,9.381 13.197 C 9.438 12.572,9.444 12.370,9.407 12.251 C 9.379 12.158,9.192 11.902,8.917 11.580 C 7.942 10.440,7.815 10.119,8.204 9.786 C 8.392 9.625,8.714 9.517,9.653 9.299 C 10.178 9.177,10.309 9.132,10.419 9.035 C 10.493 8.971,10.701 8.654,10.882 8.329 C 11.561 7.118,11.823 6.863,12.192 7.057 " fill="#1C274C" stroke="none" fill-rule="evenodd"></path></svg>