<svg width="24" height="24" viewBox="0 0 24 24" fill="none" xmlns="http://www.w3.org/2000/svg"><path d="M11.380 2.059 C 10.764 2.158,10.290 2.303,7.800 3.160 C 4.668 4.237,3.817 4.601,3.449 5.019 C 3.060 5.461,2.986 6.382,3.010 10.420 C 3.028 13.310,3.031 13.361,3.287 14.400 C 3.982 17.232,5.990 19.567,9.080 21.137 C 9.749 21.477,10.343 21.731,10.780 21.865 C 11.125 21.971,11.175 21.975,12.000 21.975 C 12.816 21.975,12.878 21.970,13.203 21.870 C 13.894 21.658,14.939 21.166,15.800 20.649 C 18.311 19.142,19.960 17.112,20.633 14.700 C 20.967 13.504,20.999 13.092,20.999 10.060 C 20.998 6.235,20.928 5.448,20.551 5.019 C 20.179 4.596,19.334 4.238,16.080 3.120 C 12.790 1.989,12.386 1.898,11.380 2.059 M14.840 9.342 C 14.977 9.412,15.146 9.597,15.197 9.733 C 15.256 9.887,15.251 10.137,15.186 10.291 C 15.156 10.362,14.290 11.363,13.261 12.515 C 11.210 14.810,11.225 14.796,10.847 14.744 C 10.748 14.731,10.614 14.686,10.549 14.645 C 10.383 14.540,8.880 12.847,8.814 12.691 C 8.608 12.203,8.967 11.669,9.500 11.669 C 9.611 11.669,9.760 11.699,9.831 11.735 C 9.902 11.772,10.178 12.043,10.444 12.337 L 10.929 12.872 11.952 11.726 C 13.610 9.869,14.003 9.440,14.105 9.373 C 14.308 9.240,14.616 9.227,14.840 9.342 " fill="#1C274C" stroke="none" fill-rule="evenodd"></path></svg>