<svg width="24" height="24" viewBox="0 0 24 24" fill="none" xmlns="http://www.w3.org/2000/svg"><path d="M11.460 2.042 C 10.987 2.116,10.371 2.293,9.099 2.722 C 5.541 3.922,4.368 4.368,3.804 4.736 C 3.484 4.945,3.388 5.046,3.283 5.283 C 3.062 5.784,2.985 7.283,3.010 10.640 C 3.029 13.188,3.049 13.449,3.296 14.423 C 3.804 16.428,4.975 18.216,6.680 19.589 C 7.781 20.476,9.458 21.422,10.598 21.800 C 11.397 22.065,12.603 22.065,13.402 21.800 C 14.212 21.532,15.391 20.930,16.340 20.299 C 18.935 18.576,20.438 16.331,20.890 13.500 C 20.965 13.029,20.974 12.762,20.990 10.660 C 21.008 8.196,20.961 6.474,20.859 5.843 C 20.793 5.438,20.689 5.159,20.548 5.005 C 20.318 4.754,19.700 4.431,18.760 4.072 C 17.356 3.535,13.609 2.273,13.020 2.139 C 12.525 2.026,11.835 1.983,11.460 2.042 M12.686 6.817 C 14.145 7.098,15.291 8.184,15.647 9.625 C 15.770 10.123,15.770 10.877,15.647 11.375 C 15.440 12.211,14.921 12.994,14.225 13.519 C 13.936 13.738,13.356 14.024,13.030 14.108 L 12.760 14.178 12.760 15.401 C 12.760 16.624,12.760 16.624,12.661 16.822 C 12.516 17.111,12.335 17.220,12.000 17.220 C 11.665 17.220,11.484 17.111,11.339 16.822 C 11.240 16.624,11.240 16.624,11.240 15.400 L 11.240 14.175 11.030 14.123 C 10.915 14.094,10.680 14.011,10.510 13.938 C 9.463 13.491,8.660 12.545,8.356 11.400 C 8.229 10.922,8.227 10.132,8.353 9.625 C 8.707 8.196,9.839 7.112,11.280 6.820 C 11.631 6.749,12.327 6.747,12.686 6.817 M11.574 8.297 C 11.162 8.375,10.791 8.572,10.455 8.891 C 9.393 9.898,9.564 11.598,10.808 12.402 C 11.511 12.856,12.490 12.858,13.182 12.407 C 13.856 11.968,14.239 11.276,14.239 10.500 C 14.239 9.873,14.002 9.323,13.544 8.890 C 12.999 8.374,12.293 8.161,11.574 8.297 " fill="#1C274C" stroke="none" fill-rule="evenodd"></path></svg>