<svg width="24" height="24" viewBox="0 0 24 24" fill="none" xmlns="http://www.w3.org/2000/svg"><path d="M11.380 2.059 C 10.764 2.158,10.290 2.303,7.800 3.160 C 4.668 4.237,3.817 4.601,3.449 5.019 C 3.060 5.461,2.986 6.382,3.010 10.420 C 3.028 13.310,3.031 13.361,3.287 14.400 C 3.982 17.232,5.990 19.567,9.080 21.137 C 9.749 21.477,10.343 21.731,10.780 21.865 C 11.125 21.971,11.175 21.975,12.000 21.975 C 12.816 21.975,12.878 21.970,13.203 21.870 C 13.894 21.658,14.939 21.166,15.800 20.649 C 18.311 19.142,19.960 17.112,20.633 14.700 C 20.967 13.504,20.999 13.092,20.999 10.060 C 20.998 6.235,20.928 5.448,20.551 5.019 C 20.179 4.596,19.334 4.238,16.080 3.120 C 12.790 1.989,12.386 1.898,11.380 2.059 M12.566 8.062 C 12.794 8.105,13.032 8.188,13.318 8.327 C 13.685 8.505,13.782 8.575,14.104 8.896 C 14.425 9.218,14.495 9.315,14.673 9.682 C 15.254 10.880,15.032 12.209,14.096 13.133 C 13.966 13.262,13.775 13.422,13.670 13.490 L 13.480 13.613 13.480 14.428 C 13.480 15.029,13.466 15.277,13.425 15.374 C 13.338 15.581,13.118 15.804,12.900 15.906 C 12.715 15.992,12.649 15.999,12.000 15.999 C 11.351 15.999,11.285 15.992,11.100 15.906 C 10.882 15.804,10.662 15.581,10.575 15.374 C 10.534 15.277,10.520 15.029,10.520 14.428 L 10.520 13.613 10.330 13.490 C 9.753 13.115,9.253 12.394,9.076 11.680 C 9.005 11.397,9.005 10.605,9.075 10.320 C 9.158 9.981,9.445 9.407,9.670 9.127 C 10.363 8.268,11.473 7.859,12.566 8.062 " fill="#1C274C" stroke="none" fill-rule="evenodd"></path></svg>