<svg width="24" height="24" viewBox="0 0 24 24" fill="none" xmlns="http://www.w3.org/2000/svg"><path d="M11.380 2.059 C 10.764 2.158,10.290 2.303,7.800 3.160 C 4.668 4.237,3.817 4.601,3.449 5.019 C 3.060 5.461,2.986 6.382,3.010 10.420 C 3.028 13.310,3.031 13.361,3.287 14.400 C 3.982 17.232,5.990 19.567,9.080 21.137 C 9.749 21.477,10.343 21.731,10.780 21.865 C 11.125 21.971,11.175 21.975,12.000 21.975 C 12.816 21.975,12.878 21.970,13.203 21.870 C 13.894 21.658,14.939 21.166,15.800 20.649 C 18.311 19.142,19.960 17.112,20.633 14.700 C 20.967 13.504,20.999 13.092,20.999 10.060 C 20.998 6.235,20.928 5.448,20.551 5.019 C 20.179 4.596,19.334 4.238,16.080 3.120 C 12.790 1.989,12.386 1.898,11.380 2.059 M12.405 8.381 C 12.485 8.432,12.593 8.543,12.645 8.627 C 12.739 8.778,12.740 8.796,12.753 10.007 L 12.765 11.235 13.993 11.247 C 15.204 11.260,15.222 11.261,15.373 11.355 C 15.615 11.506,15.733 11.718,15.733 12.003 C 15.733 12.203,15.714 12.270,15.616 12.409 C 15.385 12.738,15.382 12.738,13.993 12.752 L 12.765 12.764 12.753 13.999 L 12.740 15.233 12.619 15.405 C 12.453 15.642,12.273 15.739,12.000 15.739 C 11.727 15.739,11.547 15.642,11.381 15.405 L 11.260 15.233 11.247 13.999 L 11.235 12.764 10.007 12.752 C 8.618 12.738,8.615 12.738,8.384 12.409 C 8.286 12.271,8.267 12.203,8.267 12.007 C 8.267 11.721,8.372 11.526,8.612 11.367 L 8.774 11.260 10.004 11.247 L 11.235 11.235 11.247 10.007 C 11.260 8.804,11.262 8.777,11.353 8.631 C 11.586 8.256,12.044 8.147,12.405 8.381 " fill="#1C274C" stroke="none" fill-rule="evenodd"></path></svg>