<svg width="24" height="24" viewBox="0 0 24 24" fill="none" xmlns="http://www.w3.org/2000/svg"><path d="M11.380 2.059 C 10.764 2.158,10.290 2.303,7.800 3.160 C 4.668 4.237,3.817 4.601,3.449 5.019 C 3.060 5.461,2.986 6.382,3.010 10.420 C 3.028 13.310,3.031 13.361,3.287 14.400 C 3.982 17.232,5.990 19.567,9.080 21.137 C 9.749 21.477,10.343 21.731,10.780 21.865 C 11.125 21.971,11.175 21.975,12.000 21.975 C 12.816 21.975,12.878 21.970,13.203 21.870 C 13.894 21.658,14.939 21.166,15.800 20.649 C 18.311 19.142,19.960 17.112,20.633 14.700 C 20.967 13.504,20.999 13.092,20.999 10.060 C 20.998 6.235,20.928 5.448,20.551 5.019 C 20.179 4.596,19.334 4.238,16.080 3.120 C 12.790 1.989,12.386 1.898,11.380 2.059 M12.405 7.381 C 12.485 7.432,12.593 7.543,12.645 7.627 L 12.740 7.780 12.740 10.007 L 12.740 12.233 12.619 12.405 C 12.453 12.641,12.273 12.739,12.000 12.739 C 11.727 12.739,11.547 12.641,11.381 12.405 L 11.260 12.233 11.260 10.007 L 11.260 7.780 11.353 7.631 C 11.586 7.256,12.044 7.147,12.405 7.381 M12.316 14.063 C 12.827 14.214,13.121 14.808,12.939 15.322 C 12.854 15.563,12.709 15.740,12.489 15.869 C 12.328 15.964,12.256 15.980,12.000 15.980 C 11.744 15.980,11.672 15.964,11.511 15.869 C 10.933 15.529,10.832 14.766,11.303 14.295 C 11.573 14.025,11.921 13.945,12.316 14.063 " fill="#1C274C" stroke="none" fill-rule="evenodd"></path></svg>