<svg width="24" height="24" viewBox="0 0 24 24" fill="none" xmlns="http://www.w3.org/2000/svg"><path d="M11.380 2.059 C 10.764 2.158,10.290 2.303,7.800 3.160 C 4.668 4.237,3.817 4.601,3.449 5.019 C 3.060 5.461,2.986 6.382,3.010 10.420 C 3.028 13.310,3.031 13.361,3.287 14.400 C 3.982 17.232,5.990 19.567,9.080 21.137 C 9.749 21.477,10.343 21.731,10.780 21.865 C 11.125 21.971,11.175 21.975,12.000 21.975 C 12.816 21.975,12.878 21.970,13.203 21.870 C 13.894 21.658,14.939 21.166,15.800 20.649 C 18.311 19.142,19.960 17.112,20.633 14.700 C 20.967 13.504,20.999 13.092,20.999 10.060 C 20.998 6.235,20.928 5.448,20.551 5.019 C 20.179 4.596,19.334 4.238,16.080 3.120 C 12.790 1.989,12.386 1.898,11.380 2.059 M12.657 7.118 C 13.562 7.432,14.115 8.355,13.967 9.305 C 13.899 9.740,13.723 10.084,13.404 10.404 C 12.607 11.200,11.393 11.200,10.596 10.404 C 9.989 9.796,9.836 8.904,10.207 8.125 C 10.451 7.611,11.029 7.157,11.580 7.044 C 11.864 6.986,12.379 7.022,12.657 7.118 M13.220 13.100 C 14.531 13.328,15.503 13.838,15.861 14.485 C 15.975 14.690,15.980 14.722,15.980 15.180 C 15.979 15.977,15.815 16.276,15.226 16.557 C 14.542 16.884,13.806 16.980,12.000 16.980 C 10.194 16.980,9.458 16.884,8.774 16.557 C 8.185 16.276,8.021 15.977,8.020 15.180 C 8.020 14.722,8.025 14.690,8.139 14.485 C 8.371 14.067,8.945 13.648,9.648 13.383 C 9.981 13.258,10.749 13.088,11.188 13.042 C 11.668 12.992,12.781 13.023,13.220 13.100 " fill="#1C274C" stroke="none" fill-rule="evenodd"></path></svg>