<svg width="24" height="24" viewBox="0 0 24 24" fill="none" xmlns="http://www.w3.org/2000/svg"><path d="M11.380 2.059 C 10.764 2.158,10.290 2.303,7.800 3.160 C 4.668 4.237,3.817 4.601,3.449 5.019 C 3.060 5.461,2.986 6.382,3.010 10.420 C 3.028 13.310,3.031 13.361,3.287 14.400 C 3.982 17.232,5.990 19.567,9.080 21.137 C 9.749 21.477,10.343 21.731,10.780 21.865 C 11.125 21.971,11.175 21.975,12.000 21.975 C 12.816 21.975,12.878 21.970,13.203 21.870 C 13.894 21.658,14.939 21.166,15.800 20.649 C 18.311 19.142,19.960 17.112,20.633 14.700 C 20.967 13.504,20.999 13.092,20.999 10.060 C 20.998 6.235,20.928 5.448,20.551 5.019 C 20.179 4.596,19.334 4.238,16.080 3.120 C 12.790 1.989,12.386 1.898,11.380 2.059 M15.388 11.367 C 15.628 11.526,15.733 11.721,15.733 12.007 C 15.733 12.203,15.714 12.271,15.616 12.409 C 15.552 12.501,15.436 12.613,15.359 12.658 C 15.222 12.739,15.173 12.740,12.000 12.740 C 8.827 12.740,8.778 12.739,8.641 12.658 C 8.564 12.613,8.448 12.501,8.384 12.409 C 8.098 12.003,8.330 11.395,8.815 11.278 C 8.884 11.261,10.354 11.250,12.083 11.254 L 15.226 11.260 15.388 11.367 " fill="#1C274C" stroke="none" fill-rule="evenodd"></path></svg>