<svg width="24" height="24" viewBox="0 0 24 24" fill="none" xmlns="http://www.w3.org/2000/svg"><path d="M11.380 2.059 C 10.764 2.158,10.290 2.303,7.800 3.160 C 4.668 4.237,3.817 4.601,3.449 5.019 C 3.060 5.461,2.986 6.382,3.010 10.420 C 3.028 13.310,3.031 13.361,3.287 14.400 C 3.982 17.232,5.990 19.567,9.080 21.137 C 9.749 21.477,10.343 21.731,10.780 21.865 C 11.125 21.971,11.175 21.975,12.000 21.975 C 12.816 21.975,12.878 21.970,13.203 21.870 C 13.894 21.658,14.939 21.166,15.800 20.649 C 18.311 19.142,19.960 17.112,20.633 14.700 C 20.967 13.504,20.999 13.092,20.999 10.060 C 20.998 6.235,20.928 5.448,20.551 5.019 C 20.179 4.596,19.334 4.238,16.080 3.120 C 12.790 1.989,12.386 1.898,11.380 2.059 M12.588 8.160 C 12.703 8.200,12.928 8.324,13.088 8.436 C 13.749 8.898,16.542 11.028,16.611 11.123 C 16.861 11.469,16.726 12.016,16.343 12.214 C 16.151 12.313,15.866 12.316,15.682 12.221 C 15.609 12.183,14.772 11.569,13.822 10.856 C 12.706 10.019,12.060 9.560,12.000 9.560 C 11.940 9.560,11.294 10.019,10.178 10.856 C 9.228 11.569,8.391 12.183,8.318 12.221 C 8.134 12.316,7.849 12.313,7.657 12.214 C 7.274 12.016,7.139 11.469,7.389 11.123 C 7.496 10.974,11.019 8.336,11.267 8.218 C 11.660 8.032,12.156 8.011,12.588 8.160 M12.271 11.862 C 12.353 11.896,12.898 12.283,13.483 12.723 C 14.661 13.608,14.731 13.683,14.731 14.057 C 14.731 14.378,14.574 14.611,14.271 14.738 C 13.918 14.886,13.790 14.830,12.833 14.114 C 12.397 13.787,12.022 13.520,12.000 13.520 C 11.978 13.520,11.603 13.787,11.167 14.114 C 10.210 14.830,10.082 14.886,9.729 14.738 C 9.429 14.613,9.270 14.381,9.266 14.061 C 9.261 13.691,9.337 13.610,10.517 12.723 C 11.102 12.284,11.643 11.897,11.720 11.864 C 11.901 11.785,12.086 11.785,12.271 11.862 " fill="#1C274C" stroke="none" fill-rule="evenodd"></path></svg>