<svg width="24" height="24" viewBox="0 0 24 24" fill="none" xmlns="http://www.w3.org/2000/svg"><path d="M10.720 2.199 C 9.728 2.466,5.484 3.946,4.562 4.346 C 3.465 4.823,3.259 5.049,3.121 5.932 C 3.003 6.681,2.944 10.229,3.050 10.190 C 3.078 10.180,4.931 9.562,7.170 8.816 L 11.240 7.460 11.240 4.770 C 11.240 2.643,11.230 2.081,11.190 2.083 C 11.162 2.085,10.951 2.137,10.720 2.199 M12.760 4.769 L 12.760 7.460 16.830 8.816 C 19.069 9.562,20.922 10.180,20.950 10.190 C 21.060 10.231,20.985 6.628,20.859 5.844 C 20.793 5.440,20.690 5.160,20.548 5.005 C 20.318 4.754,19.700 4.432,18.760 4.072 C 17.168 3.463,13.554 2.255,12.870 2.103 L 12.760 2.078 12.760 4.769 M7.120 10.417 L 3.020 11.788 3.028 12.354 C 3.066 15.135,4.380 17.736,6.680 19.589 C 7.189 19.999,8.062 20.583,8.664 20.917 C 9.520 21.392,10.663 21.870,11.090 21.933 L 11.240 21.955 11.240 15.497 C 11.240 11.946,11.236 9.041,11.230 9.043 C 11.225 9.045,9.375 9.663,7.120 10.417 M12.760 15.501 L 12.760 21.955 12.910 21.933 C 13.337 21.870,14.480 21.392,15.336 20.917 C 15.941 20.582,16.813 19.998,17.320 19.588 C 19.624 17.728,20.934 15.135,20.972 12.354 L 20.980 11.788 16.870 10.417 L 12.760 9.047 12.760 15.501 " fill="#1C274C" stroke="none" fill-rule="evenodd"></path></svg>