<svg width="24" height="24" viewBox="0 0 24 24" fill="none" xmlns="http://www.w3.org/2000/svg"><path d="M11.460 2.042 C 10.987 2.116,10.371 2.293,9.099 2.722 C 5.541 3.922,4.368 4.368,3.804 4.736 C 3.484 4.945,3.388 5.046,3.283 5.283 C 3.062 5.784,2.985 7.283,3.010 10.640 C 3.029 13.188,3.049 13.449,3.296 14.423 C 3.804 16.428,4.975 18.216,6.680 19.589 C 7.781 20.476,9.458 21.422,10.598 21.800 C 11.397 22.065,12.603 22.065,13.402 21.800 C 14.212 21.532,15.391 20.930,16.340 20.299 C 18.935 18.576,20.438 16.331,20.890 13.500 C 20.965 13.029,20.974 12.762,20.990 10.660 C 21.008 8.196,20.961 6.474,20.859 5.843 C 20.793 5.438,20.689 5.159,20.548 5.005 C 20.318 4.754,19.700 4.431,18.760 4.072 C 17.356 3.535,13.609 2.273,13.020 2.139 C 12.525 2.026,11.835 1.983,11.460 2.042 M13.020 6.340 C 14.770 6.651,16.330 7.824,17.137 9.434 C 17.558 10.272,17.736 11.037,17.736 12.000 C 17.736 12.718,17.666 13.172,17.461 13.786 C 16.797 15.771,15.182 17.203,13.108 17.647 C 12.525 17.771,11.475 17.771,10.892 17.647 C 8.571 17.150,6.850 15.429,6.353 13.108 C 6.229 12.525,6.229 11.475,6.353 10.892 C 6.877 8.444,8.782 6.652,11.240 6.297 C 11.703 6.231,12.517 6.250,13.020 6.340 M11.764 7.920 C 11.353 8.344,10.919 9.641,10.820 10.740 C 10.806 10.894,10.786 11.070,10.774 11.130 L 10.754 11.240 12.000 11.240 L 13.246 11.240 13.226 11.130 C 13.214 11.070,13.194 10.894,13.180 10.740 C 13.143 10.330,12.977 9.535,12.835 9.089 C 12.613 8.391,12.217 7.760,12.000 7.760 C 11.956 7.760,11.850 7.832,11.764 7.920 M9.478 8.586 C 8.784 9.087,8.217 9.889,7.945 10.752 C 7.777 11.283,7.722 11.240,8.560 11.240 L 9.280 11.240 9.280 11.082 C 9.280 10.523,9.569 9.024,9.786 8.460 C 9.824 8.360,9.748 8.391,9.478 8.586 M14.219 8.470 C 14.426 9.006,14.720 10.537,14.720 11.082 L 14.720 11.240 15.440 11.240 C 16.028 11.240,16.160 11.230,16.160 11.184 C 16.160 11.154,16.115 10.973,16.060 10.783 C 15.813 9.932,15.228 9.096,14.522 8.586 C 14.245 8.386,14.176 8.360,14.219 8.470 M7.840 12.838 C 7.840 13.000,8.055 13.595,8.250 13.969 C 8.481 14.414,8.855 14.902,9.167 15.165 C 9.448 15.402,9.755 15.618,9.778 15.595 C 9.788 15.585,9.751 15.433,9.696 15.258 C 9.504 14.656,9.280 13.393,9.280 12.916 L 9.280 12.760 8.560 12.760 C 7.873 12.760,7.840 12.764,7.840 12.838 M10.800 12.945 C 10.800 13.426,11.021 14.526,11.235 15.114 C 11.454 15.714,11.812 16.240,12.000 16.240 C 12.188 16.240,12.546 15.714,12.765 15.114 C 12.979 14.526,13.200 13.426,13.200 12.945 L 13.200 12.760 12.000 12.760 L 10.800 12.760 10.800 12.945 M14.704 13.118 C 14.653 13.805,14.443 14.880,14.261 15.396 C 14.227 15.493,14.208 15.581,14.219 15.592 C 14.258 15.631,14.705 15.291,14.998 14.999 C 15.489 14.509,15.871 13.868,16.060 13.217 C 16.115 13.027,16.160 12.846,16.160 12.816 C 16.160 12.770,16.028 12.760,15.446 12.760 L 14.731 12.760 14.704 13.118 " fill="#1C274C" stroke="none" fill-rule="evenodd"></path></svg>