<svg width="24" height="24" viewBox="0 0 24 24" fill="none" xmlns="http://www.w3.org/2000/svg"><path d="M6.883 2.043 C 6.386 2.108,6.126 2.367,6.039 2.889 C 5.980 3.234,6.008 5.118,6.074 5.325 C 6.191 5.687,6.434 5.883,6.861 5.957 C 6.996 5.981,7.587 6.000,8.173 6.000 L 9.240 6.000 9.240 6.760 C 9.240 7.210,9.225 7.520,9.202 7.520 C 9.182 7.520,8.907 7.457,8.592 7.379 C 8.073 7.251,8.002 7.242,7.825 7.284 C 7.315 7.405,7.093 8.035,7.412 8.453 C 7.550 8.634,7.676 8.688,8.360 8.859 C 8.679 8.939,9.008 9.022,9.090 9.044 L 9.240 9.083 9.240 10.064 C 9.240 10.980,9.235 11.044,9.170 11.025 C 8.673 10.876,8.072 10.755,7.908 10.771 C 7.692 10.791,7.470 10.943,7.344 11.158 C 7.250 11.319,7.244 11.655,7.333 11.827 C 7.476 12.102,7.632 12.179,8.465 12.386 L 9.240 12.578 9.240 13.941 L 9.240 15.304 9.076 15.462 C 8.495 16.024,8.346 16.792,8.680 17.511 C 8.972 18.139,9.639 18.518,10.453 18.520 L 10.647 18.520 10.482 18.707 C 9.802 19.480,9.852 20.659,10.596 21.404 C 11.393 22.200,12.607 22.200,13.404 21.404 C 14.148 20.659,14.198 19.480,13.518 18.707 L 13.353 18.520 13.547 18.520 C 14.361 18.518,15.028 18.139,15.320 17.511 C 15.653 16.794,15.504 16.023,14.924 15.462 L 14.760 15.304 14.760 14.629 C 14.760 14.005,14.765 13.956,14.830 13.975 C 15.163 14.075,15.903 14.240,16.015 14.240 C 16.415 14.240,16.731 13.913,16.731 13.500 C 16.731 13.256,16.650 13.087,16.455 12.927 C 16.334 12.827,16.177 12.773,15.535 12.614 L 14.760 12.422 14.760 11.451 C 14.760 10.869,14.775 10.480,14.798 10.480 C 14.818 10.480,15.093 10.543,15.408 10.621 C 15.927 10.749,15.998 10.758,16.175 10.716 C 16.685 10.595,16.907 9.965,16.588 9.547 C 16.450 9.366,16.324 9.312,15.640 9.141 C 15.321 9.061,14.992 8.978,14.910 8.956 L 14.760 8.917 14.760 7.458 L 14.760 6.000 15.827 6.000 C 16.413 6.000,17.004 5.981,17.139 5.957 C 17.566 5.883,17.810 5.686,17.925 5.325 C 17.991 5.116,18.020 3.286,17.962 2.917 C 17.875 2.354,17.632 2.113,17.079 2.041 C 16.712 1.994,7.253 1.996,6.883 2.043 M13.240 7.260 C 13.240 8.097,13.226 8.520,13.199 8.520 C 13.164 8.520,11.393 8.084,10.910 7.956 L 10.760 7.917 10.760 6.958 L 10.760 6.000 12.000 6.000 L 13.240 6.000 13.240 7.260 M4.051 7.279 C 3.658 7.372,3.419 7.763,3.498 8.184 C 3.537 8.391,4.406 9.285,4.665 9.384 C 4.999 9.512,5.353 9.395,5.564 9.087 C 5.640 8.976,5.660 8.895,5.660 8.703 C 5.659 8.497,5.640 8.433,5.534 8.280 C 5.380 8.058,4.732 7.429,4.575 7.349 C 4.420 7.270,4.207 7.242,4.051 7.279 M19.611 7.279 C 19.425 7.323,19.302 7.413,18.926 7.776 C 18.438 8.249,18.341 8.402,18.340 8.703 C 18.340 8.895,18.360 8.976,18.436 9.087 C 18.647 9.395,19.001 9.512,19.335 9.384 C 19.592 9.286,20.463 8.391,20.501 8.186 C 20.586 7.737,20.313 7.335,19.880 7.270 C 19.803 7.258,19.682 7.262,19.611 7.279 M11.891 9.742 C 12.468 9.886,13.008 10.022,13.090 10.044 L 13.240 10.083 13.240 11.066 C 13.240 11.835,13.229 12.045,13.190 12.030 C 13.162 12.020,12.605 11.879,11.950 11.717 L 10.760 11.421 10.760 10.451 C 10.760 9.812,10.774 9.480,10.801 9.480 C 10.824 9.480,11.314 9.598,11.891 9.742 M1.700 10.822 C 1.411 10.975,1.269 11.198,1.269 11.500 C 1.269 11.807,1.460 12.095,1.733 12.197 C 1.803 12.224,2.281 12.240,3.000 12.240 C 3.719 12.240,4.197 12.224,4.267 12.197 C 4.542 12.094,4.731 11.806,4.731 11.494 C 4.731 11.248,4.645 11.081,4.426 10.904 L 4.273 10.780 3.046 10.769 C 1.991 10.760,1.803 10.768,1.700 10.822 M19.720 10.805 C 19.589 10.857,19.408 11.030,19.331 11.179 C 19.250 11.333,19.251 11.668,19.332 11.825 C 19.422 11.999,19.655 12.192,19.809 12.220 C 19.881 12.233,20.465 12.239,21.106 12.232 L 22.273 12.220 22.426 12.096 C 22.645 11.919,22.731 11.752,22.731 11.506 C 22.731 11.194,22.542 10.906,22.267 10.803 C 22.122 10.748,19.859 10.750,19.720 10.805 M12.050 13.283 L 13.240 13.579 13.240 14.289 L 13.240 15.000 12.000 15.000 L 10.760 15.000 10.760 13.976 C 10.760 13.173,10.771 12.955,10.810 12.970 C 10.838 12.980,11.396 13.121,12.050 13.283 M4.620 13.633 C 4.529 13.676,4.258 13.917,3.993 14.188 C 3.619 14.572,3.520 14.697,3.498 14.816 C 3.406 15.306,3.739 15.731,4.214 15.731 C 4.494 15.731,4.626 15.655,5.050 15.246 C 5.561 14.754,5.659 14.601,5.658 14.300 C 5.657 14.025,5.556 13.834,5.330 13.678 C 5.145 13.552,4.833 13.532,4.620 13.633 M18.780 13.616 C 18.600 13.694,18.404 13.916,18.356 14.095 C 18.255 14.469,18.382 14.708,18.991 15.287 C 19.377 15.655,19.513 15.731,19.780 15.731 C 20.260 15.731,20.594 15.307,20.501 14.814 C 20.480 14.697,20.378 14.568,20.007 14.188 C 19.733 13.907,19.474 13.679,19.380 13.636 C 19.193 13.549,18.950 13.541,18.780 13.616 " fill="#1C274C" stroke="none" fill-rule="evenodd"></path></svg>