<svg width="24" height="24" viewBox="0 0 24 24" fill="none" xmlns="http://www.w3.org/2000/svg"><path d="M6.049 2.044 C 5.249 2.137,4.432 2.640,3.982 3.317 C 3.640 3.831,3.585 4.035,3.042 6.763 C 2.739 8.289,2.680 8.649,2.680 8.967 C 2.680 10.109,3.352 11.182,4.380 11.680 C 4.869 11.917,5.140 11.977,5.720 11.978 C 6.321 11.978,6.581 11.918,7.120 11.653 C 7.446 11.494,7.554 11.412,7.881 11.084 C 8.420 10.542,8.664 10.047,8.778 9.263 C 8.813 9.028,8.833 8.956,8.836 9.060 C 8.843 9.305,8.985 9.848,9.118 10.143 C 9.284 10.508,9.545 10.862,9.873 11.164 C 10.227 11.492,10.565 11.690,11.040 11.849 C 11.397 11.969,11.455 11.976,12.000 11.976 C 12.545 11.976,12.603 11.969,12.960 11.849 C 13.435 11.690,13.773 11.492,14.127 11.164 C 14.455 10.862,14.716 10.508,14.882 10.143 C 15.015 9.848,15.157 9.305,15.164 9.060 C 15.167 8.956,15.187 9.028,15.222 9.263 C 15.336 10.047,15.580 10.542,16.119 11.084 C 16.446 11.412,16.554 11.494,16.880 11.653 C 17.419 11.918,17.679 11.978,18.280 11.978 C 18.862 11.977,19.136 11.916,19.620 11.678 C 20.376 11.307,20.942 10.641,21.200 9.820 C 21.260 9.628,21.294 9.395,21.308 9.080 C 21.328 8.624,21.325 8.602,20.962 6.780 C 20.414 4.029,20.360 3.831,20.018 3.317 C 19.553 2.618,18.759 2.140,17.898 2.042 C 17.461 1.992,6.481 1.994,6.049 2.044 M8.720 12.379 C 8.669 12.434,8.499 12.567,8.343 12.674 C 7.022 13.585,5.400 13.753,3.940 13.131 C 3.764 13.056,3.596 12.984,3.566 12.971 C 3.482 12.936,3.526 17.416,3.616 18.120 C 3.787 19.455,4.047 20.143,4.611 20.746 C 5.410 21.600,6.373 21.872,8.970 21.978 L 9.480 21.998 9.481 19.989 C 9.481 17.684,9.510 17.177,9.654 16.861 C 9.861 16.409,10.248 16.123,10.760 16.042 C 11.097 15.988,12.903 15.988,13.240 16.042 C 13.752 16.123,14.139 16.409,14.346 16.861 C 14.490 17.177,14.519 17.684,14.519 19.989 L 14.520 21.998 15.030 21.978 C 17.627 21.872,18.590 21.600,19.389 20.746 C 19.970 20.124,20.238 19.384,20.404 17.940 C 20.430 17.708,20.458 16.575,20.469 15.244 C 20.485 13.325,20.479 12.952,20.434 12.971 C 20.404 12.984,20.236 13.056,20.060 13.131 C 19.163 13.513,18.166 13.601,17.218 13.381 C 16.567 13.230,15.775 12.826,15.316 12.411 L 15.163 12.274 14.892 12.492 C 13.662 13.478,11.962 13.763,10.449 13.235 C 10.004 13.080,9.456 12.778,9.110 12.499 C 8.961 12.378,8.834 12.280,8.827 12.280 C 8.820 12.280,8.772 12.325,8.720 12.379 " fill="#1C274C" stroke="none" fill-rule="evenodd"></path></svg>