<svg width="24" height="24" viewBox="0 0 24 24" fill="none" xmlns="http://www.w3.org/2000/svg"><path d="M6.063 2.044 C 4.862 2.171,4.509 2.659,3.167 6.060 C 2.153 8.626,2.147 8.645,2.145 9.260 C 2.144 9.579,2.162 9.705,2.231 9.880 C 2.395 10.294,2.825 10.683,3.340 10.881 C 3.670 11.009,4.310 11.012,4.650 10.888 C 5.081 10.731,5.455 10.428,5.703 10.036 C 5.824 9.844,5.960 9.472,5.960 9.334 C 5.960 9.282,5.978 9.240,6.000 9.240 C 6.022 9.240,6.040 9.282,6.040 9.334 C 6.040 9.472,6.176 9.844,6.297 10.036 C 6.545 10.428,6.919 10.731,7.350 10.888 C 7.676 11.007,8.324 11.007,8.650 10.888 C 9.081 10.731,9.455 10.428,9.703 10.036 C 9.824 9.844,9.960 9.472,9.960 9.334 C 9.960 9.282,9.978 9.240,10.000 9.240 C 10.022 9.240,10.040 9.282,10.040 9.334 C 10.040 9.472,10.176 9.844,10.297 10.036 C 10.545 10.428,10.919 10.731,11.350 10.888 C 11.673 11.006,12.325 11.007,12.644 10.890 C 13.068 10.735,13.418 10.462,13.660 10.097 C 13.812 9.868,13.960 9.492,13.960 9.334 C 13.960 9.282,13.978 9.240,14.000 9.240 C 14.022 9.240,14.040 9.282,14.040 9.334 C 14.040 9.492,14.188 9.868,14.340 10.097 C 14.582 10.462,14.932 10.735,15.356 10.890 C 15.675 11.007,16.327 11.006,16.650 10.888 C 17.081 10.731,17.455 10.428,17.703 10.036 C 17.824 9.844,17.960 9.472,17.960 9.334 C 17.960 9.282,17.978 9.240,18.000 9.240 C 18.022 9.240,18.040 9.282,18.040 9.334 C 18.040 9.472,18.176 9.844,18.297 10.036 C 18.545 10.428,18.919 10.731,19.350 10.888 C 19.690 11.012,20.330 11.009,20.660 10.881 C 21.175 10.683,21.605 10.294,21.769 9.880 C 21.838 9.705,21.856 9.579,21.855 9.260 C 21.853 8.646,21.849 8.633,20.833 6.060 C 19.472 2.611,19.149 2.172,17.873 2.041 C 17.387 1.991,6.539 1.994,6.063 2.044 M4.811 14.278 C 4.639 14.320,4.417 14.493,4.330 14.652 C 4.265 14.770,4.259 15.022,4.249 18.006 L 4.238 21.232 3.506 21.246 C 2.782 21.260,2.772 21.261,2.605 21.372 C 2.311 21.566,2.192 21.873,2.281 22.204 C 2.340 22.422,2.569 22.657,2.781 22.715 C 3.007 22.778,20.993 22.778,21.219 22.715 C 21.431 22.657,21.660 22.422,21.719 22.204 C 21.808 21.873,21.689 21.566,21.395 21.372 C 21.228 21.261,21.218 21.260,20.494 21.246 L 19.762 21.232 19.751 18.006 C 19.740 14.837,19.739 14.778,19.658 14.641 C 19.613 14.564,19.501 14.448,19.409 14.384 C 19.269 14.285,19.204 14.267,19.000 14.267 C 18.796 14.267,18.731 14.285,18.591 14.384 C 18.499 14.448,18.387 14.564,18.342 14.641 C 18.261 14.778,18.260 14.837,18.249 18.010 L 18.238 21.240 12.000 21.240 L 5.762 21.240 5.751 18.010 C 5.740 14.837,5.739 14.778,5.658 14.641 C 5.494 14.361,5.122 14.202,4.811 14.278 " fill="#1C274C" stroke="none" fill-rule="evenodd"></path></svg>