<svg width="24" height="24" viewBox="0 0 24 24" fill="none" xmlns="http://www.w3.org/2000/svg"><path d="M6.062 2.044 C 4.865 2.170,4.501 2.668,3.200 5.960 C 2.821 6.917,2.451 7.865,2.378 8.067 C 1.970 9.183,2.050 9.907,2.641 10.454 C 3.445 11.199,4.630 11.177,5.404 10.404 C 5.685 10.122,5.895 9.751,5.943 9.448 C 5.978 9.234,6.022 9.234,6.057 9.448 C 6.136 9.943,6.621 10.555,7.120 10.789 C 7.715 11.069,8.285 11.069,8.880 10.789 C 9.379 10.555,9.864 9.943,9.943 9.448 C 9.978 9.234,10.022 9.234,10.057 9.448 C 10.105 9.751,10.315 10.122,10.596 10.404 C 11.393 11.200,12.607 11.200,13.404 10.404 C 13.685 10.122,13.895 9.751,13.943 9.448 C 13.978 9.234,14.022 9.234,14.057 9.448 C 14.136 9.943,14.621 10.555,15.120 10.789 C 15.715 11.069,16.285 11.069,16.880 10.789 C 17.379 10.555,17.864 9.943,17.943 9.448 C 17.978 9.234,18.022 9.234,18.057 9.448 C 18.105 9.751,18.315 10.122,18.596 10.404 C 19.367 11.174,20.555 11.199,21.352 10.461 C 21.754 10.089,21.910 9.679,21.867 9.104 C 21.831 8.617,21.742 8.352,20.893 6.200 C 19.473 2.598,19.166 2.174,17.880 2.041 C 17.414 1.992,6.523 1.996,6.062 2.044 M5.800 12.001 C 5.437 12.236,4.701 12.477,4.340 12.480 C 4.252 12.481,4.139 12.492,4.090 12.505 L 4.000 12.529 4.000 16.885 L 4.000 21.240 3.022 21.240 C 2.459 21.240,1.956 21.259,1.838 21.284 C 1.080 21.447,1.080 22.553,1.838 22.716 C 2.130 22.779,21.870 22.779,22.162 22.716 C 22.920 22.553,22.920 21.447,22.162 21.284 C 22.044 21.259,21.541 21.240,20.978 21.240 L 20.000 21.240 20.000 16.885 L 20.000 12.529 19.910 12.505 C 19.860 12.492,19.752 12.481,19.668 12.481 C 19.304 12.479,18.600 12.250,18.194 12.000 L 18.000 11.881 17.806 12.000 C 17.280 12.323,16.671 12.488,16.000 12.488 C 15.329 12.488,14.720 12.323,14.194 12.000 L 14.000 11.881 13.806 12.000 C 13.280 12.323,12.671 12.488,12.000 12.488 C 11.329 12.488,10.720 12.323,10.194 12.000 L 10.000 11.881 9.806 12.000 C 9.280 12.323,8.671 12.488,8.000 12.488 C 7.328 12.488,6.720 12.323,6.194 12.000 C 6.086 11.934,5.995 11.881,5.989 11.883 C 5.984 11.884,5.899 11.937,5.800 12.001 M13.240 16.042 C 13.752 16.123,14.139 16.409,14.346 16.861 C 14.486 17.168,14.519 17.682,14.519 19.610 L 14.520 21.240 12.000 21.240 L 9.480 21.240 9.481 19.610 C 9.481 17.682,9.514 17.168,9.654 16.861 C 9.854 16.424,10.248 16.123,10.720 16.045 C 11.029 15.995,12.926 15.992,13.240 16.042 " fill="#1C274C" stroke="none" fill-rule="evenodd"></path></svg>