<svg width="24" height="24" viewBox="0 0 24 24" fill="none" xmlns="http://www.w3.org/2000/svg"><path d="M8.419 2.041 C 5.785 2.145,4.480 2.507,3.549 3.393 C 2.551 4.342,2.166 5.587,2.041 8.260 C 1.988 9.399,1.988 14.601,2.041 15.740 C 2.160 18.285,2.507 19.501,3.379 20.433 C 4.245 21.360,5.318 21.742,7.580 21.927 C 8.488 22.002,15.512 22.002,16.420 21.927 C 18.857 21.727,19.992 21.275,20.860 20.157 C 21.474 19.368,21.771 18.329,21.927 16.420 C 22.002 15.512,22.002 8.488,21.927 7.580 C 21.740 5.297,21.356 4.232,20.407 3.355 C 19.572 2.585,18.492 2.242,16.380 2.078 C 15.684 2.023,9.573 1.995,8.419 2.041 M17.160 7.351 C 17.373 7.485,18.571 8.667,18.649 8.820 C 18.749 9.013,18.758 9.332,18.668 9.501 C 18.607 9.618,17.803 10.427,17.351 10.829 C 16.985 11.154,16.613 11.167,16.300 10.866 C 16.039 10.614,15.991 10.349,16.141 9.985 C 16.171 9.912,16.143 9.910,15.354 9.927 C 14.583 9.943,14.524 9.950,14.340 10.042 C 14.216 10.105,14.085 10.219,13.976 10.360 C 13.883 10.481,13.290 11.417,12.659 12.440 C 12.028 13.463,11.429 14.417,11.328 14.560 C 11.042 14.967,10.688 15.292,10.354 15.456 C 9.809 15.725,9.685 15.737,7.620 15.739 C 5.837 15.740,5.776 15.737,5.641 15.658 C 5.564 15.613,5.448 15.501,5.384 15.409 C 5.286 15.270,5.267 15.203,5.267 15.003 C 5.267 14.718,5.385 14.506,5.627 14.355 L 5.780 14.260 7.640 14.240 L 9.500 14.220 9.678 14.120 C 9.776 14.065,9.932 13.921,10.026 13.800 C 10.119 13.679,10.729 12.717,11.381 11.663 C 12.033 10.608,12.665 9.615,12.785 9.455 C 13.137 8.988,13.499 8.724,14.020 8.557 C 14.268 8.478,14.406 8.465,15.233 8.449 C 16.078 8.433,16.163 8.425,16.138 8.366 C 15.981 7.987,16.071 7.606,16.367 7.395 C 16.594 7.233,16.943 7.214,17.160 7.351 M9.840 8.333 C 10.579 8.551,11.190 9.072,11.560 9.800 C 11.668 10.012,11.681 10.324,11.590 10.501 C 11.409 10.847,10.998 11.004,10.650 10.858 C 10.455 10.777,10.378 10.703,10.211 10.440 C 10.028 10.151,9.857 9.973,9.660 9.866 C 9.504 9.782,9.451 9.779,7.640 9.760 C 5.537 9.737,5.624 9.751,5.384 9.409 C 5.098 9.003,5.328 8.399,5.815 8.276 C 5.884 8.259,6.768 8.250,7.780 8.256 C 9.337 8.266,9.654 8.278,9.840 8.333 M13.350 12.982 C 13.546 13.064,13.626 13.139,13.791 13.400 C 13.975 13.691,14.145 13.868,14.340 13.974 C 14.487 14.053,14.569 14.061,15.335 14.073 C 16.131 14.085,16.169 14.082,16.141 14.013 C 16.055 13.805,16.035 13.645,16.078 13.488 C 16.198 13.042,16.686 12.806,17.100 12.995 C 17.287 13.080,18.572 14.310,18.668 14.495 C 18.757 14.668,18.749 14.987,18.650 15.180 C 18.602 15.273,18.275 15.619,17.867 16.007 C 17.300 16.548,17.135 16.684,16.999 16.720 C 16.517 16.850,16.067 16.506,16.067 16.008 C 16.067 15.882,16.087 15.742,16.112 15.695 L 16.157 15.610 15.269 15.590 C 14.450 15.572,14.355 15.562,14.060 15.466 C 13.884 15.409,13.625 15.294,13.485 15.211 C 13.161 15.019,12.750 14.580,12.524 14.184 C 12.378 13.928,12.349 13.840,12.349 13.667 C 12.349 13.346,12.503 13.113,12.800 12.984 C 12.981 12.905,13.166 12.905,13.350 12.982 " fill="#1C274C" stroke="none" fill-rule="evenodd"></path></svg>