<svg width="24" height="24" viewBox="0 0 24 24" fill="none" xmlns="http://www.w3.org/2000/svg"><path d="M7.300 3.027 C 6.631 3.048,5.742 3.124,5.300 3.200 C 3.429 3.521,2.501 4.463,2.186 6.360 C 2.031 7.294,2.020 7.661,2.020 12.060 C 2.020 15.905,2.028 16.403,2.092 16.957 C 2.260 18.414,2.547 19.182,3.155 19.800 C 3.780 20.436,4.556 20.737,6.000 20.905 C 6.493 20.962,7.153 20.975,10.410 20.989 L 14.240 21.007 14.240 12.003 L 14.240 3.000 10.950 3.008 C 9.140 3.013,7.498 3.021,7.300 3.027 M15.760 12.006 L 15.760 21.012 16.550 20.985 C 17.480 20.953,18.115 20.901,18.640 20.814 C 20.562 20.496,21.505 19.548,21.816 17.620 C 21.959 16.739,21.971 16.381,21.989 12.580 C 22.007 8.737,21.983 7.596,21.861 6.675 C 21.672 5.236,21.231 4.383,20.388 3.825 C 19.609 3.309,18.773 3.121,16.896 3.041 C 16.370 3.019,15.900 3.000,15.850 3.000 L 15.760 3.000 15.760 12.006 " fill="#1C274C" stroke="none" fill-rule="evenodd"></path></svg>