<svg width="24" height="24" viewBox="0 0 24 24" fill="none" xmlns="http://www.w3.org/2000/svg"><path d="M7.000 3.042 C 5.261 3.116,4.375 3.320,3.617 3.822 C 3.247 4.067,3.032 4.286,2.784 4.670 C 2.379 5.297,2.196 5.988,2.072 7.360 C 1.998 8.187,1.998 15.813,2.072 16.640 C 2.196 18.012,2.379 18.703,2.784 19.330 C 3.032 19.714,3.247 19.933,3.617 20.178 C 4.011 20.439,4.317 20.570,4.829 20.698 C 5.810 20.941,6.289 20.966,10.490 20.988 L 14.240 21.008 14.240 12.004 L 14.240 3.000 10.970 3.006 C 9.171 3.010,7.385 3.026,7.000 3.042 M15.760 12.006 L 15.760 21.012 16.550 20.985 C 17.480 20.953,18.115 20.901,18.640 20.814 C 20.562 20.496,21.505 19.548,21.816 17.620 C 21.959 16.739,21.971 16.381,21.989 12.580 C 22.007 8.737,21.983 7.596,21.861 6.675 C 21.672 5.236,21.231 4.383,20.388 3.825 C 19.609 3.309,18.773 3.121,16.896 3.041 C 16.370 3.019,15.900 3.000,15.850 3.000 L 15.760 3.000 15.760 12.006 M11.780 9.316 C 12.075 9.453,12.240 9.697,12.240 10.000 C 12.240 10.303,12.075 10.547,11.780 10.684 C 11.629 10.754,11.451 10.758,8.498 10.759 L 5.376 10.760 5.178 10.661 C 4.602 10.371,4.626 9.584,5.220 9.315 C 5.370 9.246,5.568 9.242,8.500 9.242 C 11.453 9.242,11.629 9.246,11.780 9.316 M10.780 13.316 C 11.399 13.602,11.399 14.398,10.780 14.684 C 10.631 14.753,10.478 14.758,8.498 14.759 L 6.376 14.760 6.178 14.661 C 5.602 14.371,5.626 13.584,6.220 13.315 C 6.368 13.247,6.535 13.242,8.500 13.242 C 10.479 13.242,10.631 13.247,10.780 13.316 " fill="#1C274C" stroke="none" fill-rule="evenodd"></path></svg>