<svg width="24" height="24" viewBox="0 0 24 24" fill="none" xmlns="http://www.w3.org/2000/svg"><path d="M7.300 3.027 C 6.631 3.048,5.742 3.124,5.300 3.200 C 3.429 3.521,2.501 4.463,2.186 6.360 C 2.031 7.294,2.020 7.661,2.020 12.060 C 2.020 15.905,2.028 16.403,2.092 16.957 C 2.260 18.414,2.547 19.182,3.155 19.800 C 3.780 20.436,4.556 20.737,6.000 20.905 C 6.493 20.962,7.153 20.975,10.410 20.989 L 14.240 21.007 14.240 12.003 L 14.240 3.000 10.950 3.008 C 9.140 3.013,7.498 3.021,7.300 3.027 M15.760 12.006 L 15.760 21.012 16.550 20.985 C 17.480 20.953,18.115 20.901,18.640 20.814 C 20.562 20.496,21.505 19.548,21.816 17.620 C 21.959 16.739,21.971 16.381,21.989 12.580 C 22.007 8.737,21.983 7.596,21.861 6.675 C 21.672 5.236,21.231 4.383,20.388 3.825 C 19.609 3.309,18.773 3.121,16.896 3.041 C 16.370 3.019,15.900 3.000,15.850 3.000 L 15.760 3.000 15.760 12.006 M6.405 13.381 C 6.624 13.522,6.733 13.727,6.733 13.996 C 6.733 14.278,6.693 14.352,6.347 14.710 L 6.066 15.000 6.347 15.290 C 6.694 15.649,6.733 15.722,6.733 16.008 C 6.733 16.509,6.283 16.849,5.795 16.719 C 5.649 16.680,5.522 16.575,5.028 16.086 C 4.702 15.764,4.397 15.439,4.351 15.364 C 4.235 15.178,4.235 14.822,4.350 14.636 C 4.496 14.400,5.613 13.328,5.743 13.299 C 5.807 13.285,5.878 13.267,5.900 13.259 C 5.991 13.226,6.270 13.294,6.405 13.381 M9.416 13.393 C 9.626 13.536,9.738 13.760,9.729 14.018 C 9.720 14.300,8.210 18.323,8.049 18.494 C 7.916 18.636,7.662 18.758,7.500 18.758 C 7.241 18.758,6.896 18.516,6.803 18.267 C 6.707 18.014,6.749 17.870,7.543 15.753 C 7.973 14.604,8.360 13.617,8.402 13.558 C 8.629 13.238,9.083 13.164,9.416 13.393 M10.860 15.350 C 11.047 15.443,12.108 16.521,12.178 16.690 C 12.212 16.771,12.240 16.911,12.240 17.000 C 12.240 17.286,12.141 17.434,11.548 18.026 C 10.796 18.778,10.596 18.871,10.178 18.661 C 9.933 18.538,9.794 18.342,9.769 18.083 C 9.742 17.795,9.815 17.635,10.127 17.301 L 10.409 16.999 10.140 16.714 C 9.992 16.558,9.846 16.369,9.816 16.296 C 9.745 16.127,9.744 15.875,9.814 15.708 C 9.881 15.548,10.124 15.329,10.271 15.297 C 10.331 15.284,10.398 15.267,10.420 15.260 C 10.488 15.237,10.734 15.288,10.860 15.350 " fill="#1C274C" stroke="none" fill-rule="evenodd"></path></svg>