<svg width="24" height="24" viewBox="0 0 24 24" fill="none" xmlns="http://www.w3.org/2000/svg"><path d="M8.419 2.042 C 5.796 2.142,4.481 2.507,3.549 3.393 C 2.551 4.342,2.166 5.587,2.041 8.260 C 1.988 9.399,1.988 14.601,2.041 15.740 C 2.160 18.285,2.507 19.501,3.379 20.433 C 4.245 21.360,5.318 21.742,7.580 21.927 C 8.488 22.002,15.512 22.002,16.420 21.927 C 18.857 21.727,19.992 21.275,20.860 20.157 C 21.338 19.542,21.662 18.641,21.816 17.500 C 21.947 16.521,21.977 15.781,21.978 13.420 C 21.980 11.075,21.979 11.058,21.887 10.721 C 21.836 10.534,21.739 10.247,21.670 10.083 C 21.392 9.415,21.308 9.322,17.933 5.956 C 14.561 2.593,14.589 2.618,13.892 2.322 C 13.733 2.255,13.454 2.160,13.272 2.113 C 12.957 2.030,12.848 2.025,11.100 2.018 C 10.088 2.013,8.882 2.024,8.419 2.042 M11.480 15.506 L 11.480 19.011 10.610 18.989 C 9.905 18.971,9.680 18.951,9.423 18.884 C 8.706 18.694,8.214 18.148,8.073 17.386 C 7.997 16.978,7.998 14.018,8.074 13.607 C 8.209 12.874,8.718 12.304,9.400 12.120 C 9.653 12.052,10.164 12.012,10.870 12.006 L 11.480 12.000 11.480 15.506 M14.491 12.097 C 15.215 12.255,15.750 12.792,15.902 13.515 C 15.932 13.661,15.970 14.055,15.985 14.390 L 16.012 15.000 14.266 15.000 L 12.520 15.000 12.520 13.494 L 12.520 11.988 13.370 12.013 C 13.869 12.028,14.332 12.063,14.491 12.097 M15.985 16.610 C 15.941 17.582,15.825 17.966,15.453 18.364 C 15.001 18.846,14.633 18.958,13.390 18.989 L 12.520 19.011 12.520 17.506 L 12.520 16.000 14.266 16.000 L 16.012 16.000 15.985 16.610 " fill="#1C274C" stroke="none" fill-rule="evenodd"></path></svg>