<svg width="24" height="24" viewBox="0 0 24 24" fill="none" xmlns="http://www.w3.org/2000/svg"><path d="M10.928 2.044 C 8.923 2.132,7.923 2.435,7.177 3.179 C 6.868 3.488,6.618 3.876,6.466 4.280 L 6.368 4.540 8.554 4.540 C 10.517 4.540,10.775 4.547,11.080 4.613 C 11.801 4.767,12.518 5.084,13.120 5.515 C 13.586 5.848,18.173 10.439,18.501 10.900 C 18.917 11.485,19.235 12.210,19.387 12.920 C 19.453 13.225,19.460 13.483,19.460 15.446 L 19.460 17.632 19.720 17.534 C 20.574 17.214,21.235 16.538,21.556 15.658 C 21.883 14.760,21.998 13.569,21.999 11.055 C 22.000 9.542,21.971 9.256,21.758 8.668 C 21.491 7.929,21.455 7.887,18.865 5.287 C 17.564 3.981,16.392 2.836,16.260 2.741 C 15.984 2.543,15.472 2.279,15.180 2.186 C 14.694 2.031,14.314 2.000,12.965 2.006 C 12.247 2.009,11.331 2.027,10.928 2.044 M7.300 6.025 C 6.783 6.043,5.827 6.117,5.500 6.165 C 5.094 6.224,4.477 6.384,4.189 6.504 C 3.854 6.644,3.332 6.994,3.126 7.218 C 2.494 7.904,2.219 8.722,2.072 10.360 C 1.999 11.176,1.999 16.824,2.072 17.640 C 2.195 19.011,2.379 19.703,2.784 20.330 C 3.032 20.714,3.247 20.933,3.617 21.178 C 4.284 21.620,4.946 21.801,6.360 21.928 C 7.186 22.002,12.777 22.001,13.640 21.927 C 15.023 21.808,15.720 21.618,16.383 21.178 C 17.261 20.596,17.694 19.718,17.878 18.140 C 17.953 17.500,18.008 15.729,17.989 14.560 C 17.973 13.560,17.960 13.378,17.884 13.082 C 17.790 12.715,17.525 12.121,17.318 11.813 C 17.156 11.571,12.626 7.021,12.300 6.771 C 11.983 6.529,11.343 6.225,10.920 6.116 C 10.603 6.034,10.481 6.027,9.120 6.020 C 8.317 6.016,7.498 6.019,7.300 6.025 M9.520 16.504 L 9.520 19.008 8.670 18.989 C 8.197 18.979,7.756 18.951,7.675 18.925 C 7.308 18.808,7.115 18.563,7.039 18.117 C 6.978 17.755,7.007 14.877,7.073 14.675 C 7.144 14.461,7.282 14.275,7.439 14.183 C 7.669 14.049,7.980 14.007,8.770 14.003 L 9.520 14.000 9.520 16.504 M12.139 14.043 C 12.567 14.117,12.813 14.316,12.924 14.675 C 12.948 14.755,12.977 15.085,12.989 15.410 L 13.010 16.000 11.745 16.000 L 10.480 16.000 10.480 15.000 L 10.480 14.000 11.187 14.000 C 11.575 14.000,12.004 14.019,12.139 14.043 M12.989 17.590 C 12.967 18.218,12.933 18.390,12.788 18.604 C 12.580 18.914,12.230 19.000,11.187 19.000 L 10.480 19.000 10.480 18.000 L 10.480 17.000 11.745 17.000 L 13.010 17.000 12.989 17.590 " fill="#1C274C" stroke="none" fill-rule="evenodd"></path></svg>