<svg width="24" height="24" viewBox="0 0 24 24" fill="none" xmlns="http://www.w3.org/2000/svg"><path d="M8.419 2.042 C 5.796 2.142,4.481 2.507,3.549 3.393 C 2.551 4.342,2.166 5.587,2.041 8.260 C 1.988 9.399,1.988 14.601,2.041 15.740 C 2.160 18.285,2.507 19.501,3.379 20.433 C 4.245 21.360,5.318 21.742,7.580 21.927 C 8.488 22.002,15.512 22.002,16.420 21.927 C 18.857 21.727,19.992 21.275,20.860 20.157 C 21.338 19.542,21.662 18.641,21.816 17.500 C 21.947 16.521,21.977 15.781,21.978 13.420 C 21.980 11.075,21.979 11.058,21.887 10.721 C 21.836 10.534,21.739 10.247,21.670 10.083 C 21.392 9.415,21.308 9.322,17.933 5.956 C 14.561 2.593,14.589 2.618,13.892 2.322 C 13.733 2.255,13.454 2.160,13.272 2.113 C 12.957 2.030,12.848 2.025,11.100 2.018 C 10.088 2.013,8.882 2.024,8.419 2.042 M15.383 13.043 C 16.054 13.166,16.635 13.667,16.888 14.343 C 16.971 14.563,16.977 14.647,16.977 15.500 C 16.977 16.353,16.971 16.437,16.888 16.657 C 16.640 17.320,16.073 17.817,15.408 17.956 C 15.113 18.017,8.887 18.017,8.592 17.956 C 7.830 17.797,7.181 17.138,7.043 16.383 C 7.020 16.252,7.000 15.855,7.000 15.500 C 7.000 15.145,7.020 14.748,7.043 14.617 C 7.180 13.868,7.847 13.187,8.580 13.047 C 8.871 12.992,15.081 12.988,15.383 13.043 " fill="#1C274C" stroke="none" fill-rule="evenodd"></path></svg>