<svg width="24" height="24" viewBox="0 0 24 24" fill="none" xmlns="http://www.w3.org/2000/svg"><path d="M11.811 1.278 C 11.639 1.320,11.417 1.493,11.330 1.652 C 11.267 1.767,11.259 1.947,11.248 3.409 C 11.240 4.537,11.251 5.091,11.282 5.208 C 11.434 5.772,12.194 5.932,12.574 5.480 C 12.754 5.266,12.764 5.146,12.752 3.409 C 12.741 1.851,12.736 1.774,12.658 1.641 C 12.494 1.361,12.122 1.202,11.811 1.278 M2.807 5.288 C 2.429 5.371,2.188 5.796,2.288 6.202 C 2.327 6.358,2.434 6.483,3.176 7.235 C 4.055 8.125,4.204 8.238,4.500 8.238 C 4.680 8.238,4.946 8.130,5.048 8.014 C 5.154 7.896,5.240 7.659,5.239 7.491 C 5.237 7.204,5.119 7.049,4.235 6.175 C 3.545 5.493,3.353 5.324,3.240 5.302 C 3.163 5.287,3.073 5.268,3.040 5.262 C 3.007 5.255,2.902 5.267,2.807 5.288 M20.800 5.290 C 20.637 5.325,20.539 5.409,19.765 6.174 C 18.882 7.048,18.763 7.205,18.761 7.491 C 18.760 7.659,18.846 7.896,18.952 8.014 C 19.054 8.130,19.320 8.238,19.500 8.238 C 19.795 8.238,19.945 8.125,20.825 7.235 C 21.610 6.441,21.673 6.366,21.711 6.189 C 21.833 5.605,21.387 5.165,20.800 5.290 M11.420 8.023 C 11.354 8.032,11.129 8.060,10.920 8.084 C 10.438 8.139,9.606 8.350,9.118 8.542 C 6.731 9.477,4.936 11.475,4.282 13.926 C 4.029 14.873,4.030 14.853,4.012 18.190 L 3.995 21.240 3.019 21.240 C 2.458 21.240,1.956 21.259,1.838 21.284 C 1.080 21.447,1.080 22.553,1.838 22.716 C 2.130 22.779,21.870 22.779,22.162 22.716 C 22.920 22.553,22.920 21.447,22.162 21.284 C 22.044 21.259,21.542 21.240,20.981 21.240 L 20.005 21.240 19.988 18.190 C 19.970 14.853,19.971 14.873,19.718 13.926 C 18.905 10.880,16.341 8.582,13.220 8.099 C 12.830 8.039,11.659 7.989,11.420 8.023 M14.819 10.914 C 15.756 11.352,16.646 12.241,17.082 13.172 C 17.293 13.623,17.290 13.935,17.072 14.183 C 16.904 14.375,16.740 14.451,16.500 14.451 C 16.165 14.451,15.917 14.268,15.763 13.908 C 15.633 13.604,15.333 13.167,15.083 12.917 C 14.833 12.667,14.396 12.367,14.092 12.237 C 13.732 12.083,13.549 11.835,13.549 11.500 C 13.549 11.201,13.734 10.914,14.000 10.803 C 14.179 10.728,14.520 10.774,14.819 10.914 M12.615 16.132 C 13.052 16.332,13.387 16.767,13.475 17.248 C 13.564 17.737,13.364 18.291,12.973 18.635 L 12.761 18.820 12.761 20.030 L 12.760 21.240 12.000 21.240 L 11.240 21.240 11.239 20.030 L 11.239 18.820 11.027 18.635 C 10.636 18.292,10.435 17.737,10.525 17.249 C 10.631 16.675,11.050 16.207,11.597 16.052 C 11.875 15.973,12.349 16.011,12.615 16.132 " fill="#1C274C" stroke="none" fill-rule="evenodd"></path></svg>