<svg width="24" height="24" viewBox="0 0 24 24" fill="none" xmlns="http://www.w3.org/2000/svg"><path d="M11.807 1.289 C 11.558 1.342,11.342 1.570,11.284 1.838 C 11.224 2.117,11.224 4.883,11.284 5.162 C 11.317 5.313,11.369 5.409,11.480 5.520 C 11.889 5.929,12.595 5.725,12.716 5.162 C 12.773 4.894,12.774 2.090,12.717 1.841 C 12.620 1.420,12.247 1.194,11.807 1.289 M2.807 4.288 C 2.429 4.371,2.188 4.796,2.288 5.202 C 2.327 5.358,2.434 5.483,3.176 6.235 C 4.055 7.125,4.204 7.238,4.500 7.238 C 4.680 7.238,4.946 7.130,5.048 7.014 C 5.154 6.896,5.240 6.659,5.239 6.491 C 5.237 6.204,5.119 6.049,4.235 5.175 C 3.545 4.493,3.353 4.324,3.240 4.302 C 3.163 4.287,3.073 4.268,3.040 4.262 C 3.007 4.255,2.902 4.267,2.807 4.288 M20.800 4.290 C 20.637 4.325,20.539 4.409,19.765 5.174 C 18.882 6.048,18.763 6.205,18.761 6.491 C 18.760 6.659,18.846 6.896,18.952 7.014 C 19.054 7.130,19.320 7.238,19.500 7.238 C 19.795 7.238,19.945 7.125,20.825 6.235 C 21.610 5.441,21.673 5.366,21.711 5.189 C 21.833 4.605,21.387 4.165,20.800 4.290 M9.240 8.042 C 7.407 8.128,6.463 8.488,5.478 9.476 C 4.705 10.251,4.310 11.019,4.144 12.063 C 4.026 12.810,4.001 13.768,4.000 17.507 L 4.000 21.234 2.887 21.247 L 1.774 21.260 1.605 21.372 C 1.311 21.566,1.192 21.873,1.281 22.204 C 1.340 22.422,1.569 22.657,1.781 22.715 C 2.007 22.778,21.993 22.778,22.219 22.715 C 22.431 22.657,22.660 22.422,22.719 22.204 C 22.808 21.873,22.689 21.566,22.395 21.372 L 22.226 21.260 21.113 21.247 L 20.000 21.234 20.000 17.507 C 19.999 12.953,19.962 12.203,19.692 11.340 C 19.260 9.961,17.982 8.696,16.624 8.302 C 16.139 8.162,15.551 8.084,14.648 8.040 C 13.753 7.996,10.175 7.997,9.240 8.042 M15.632 10.143 C 16.983 10.419,17.967 11.627,17.913 12.943 C 17.897 13.341,17.799 13.512,17.502 13.661 C 17.283 13.771,17.210 13.779,16.991 13.718 C 16.674 13.630,16.443 13.311,16.441 12.957 C 16.437 12.232,15.906 11.664,15.153 11.580 C 14.738 11.534,14.677 11.515,14.537 11.392 C 14.345 11.224,14.269 11.060,14.269 10.820 C 14.269 10.513,14.429 10.258,14.700 10.137 C 14.863 10.064,15.258 10.067,15.632 10.143 M12.520 16.099 C 12.917 16.239,13.243 16.570,13.402 16.994 C 13.470 17.175,13.484 17.288,13.473 17.561 C 13.456 18.009,13.298 18.349,12.978 18.629 L 12.761 18.820 12.761 20.030 L 12.760 21.240 12.000 21.240 L 11.240 21.240 11.239 20.030 L 11.239 18.820 11.022 18.629 C 10.702 18.349,10.544 18.009,10.527 17.561 C 10.516 17.286,10.530 17.175,10.600 16.989 C 10.834 16.364,11.429 15.973,12.080 16.018 C 12.223 16.028,12.421 16.064,12.520 16.099 " fill="#1C274C" stroke="none" fill-rule="evenodd"></path></svg>