<svg width="24" height="24" viewBox="0 0 24 24" fill="none" xmlns="http://www.w3.org/2000/svg"><path d="M1.811 6.278 C 1.543 6.343,1.324 6.578,1.262 6.867 C 1.207 7.123,1.280 7.280,1.855 8.139 C 2.287 8.785,2.502 9.064,2.779 9.341 C 3.461 10.024,4.267 10.457,5.249 10.669 C 5.559 10.735,5.990 10.740,12.000 10.740 C 18.010 10.740,18.441 10.735,18.751 10.669 C 19.733 10.457,20.539 10.024,21.221 9.341 C 21.668 8.894,22.692 7.402,22.738 7.131 C 22.817 6.664,22.477 6.267,21.997 6.267 C 21.621 6.267,21.524 6.356,20.925 7.250 C 20.642 7.674,20.335 8.104,20.244 8.208 C 19.863 8.637,19.266 8.987,18.648 9.144 L 18.270 9.240 12.000 9.240 L 5.730 9.240 5.352 9.144 C 4.734 8.987,4.137 8.637,3.756 8.208 C 3.665 8.104,3.358 7.674,3.075 7.250 C 2.526 6.430,2.402 6.305,2.100 6.267 C 2.012 6.256,1.882 6.261,1.811 6.278 M6.680 13.024 C 6.462 13.065,6.089 13.217,5.893 13.347 C 5.539 13.581,5.263 13.936,5.110 14.356 C 4.993 14.675,4.994 15.327,5.112 15.650 C 5.323 16.228,5.774 16.678,6.356 16.890 C 6.673 17.006,7.327 17.006,7.644 16.890 C 8.226 16.678,8.677 16.228,8.888 15.650 C 9.012 15.310,9.009 14.670,8.881 14.340 C 8.575 13.548,7.914 13.057,7.102 13.020 C 6.925 13.012,6.735 13.014,6.680 13.024 M16.680 13.024 C 16.462 13.065,16.089 13.217,15.893 13.347 C 15.539 13.581,15.263 13.936,15.110 14.356 C 14.993 14.675,14.994 15.327,15.112 15.650 C 15.323 16.228,15.774 16.678,16.356 16.890 C 16.673 17.006,17.327 17.006,17.644 16.890 C 18.226 16.678,18.677 16.228,18.888 15.650 C 19.012 15.310,19.009 14.670,18.881 14.340 C 18.575 13.548,17.914 13.057,17.102 13.020 C 16.925 13.012,16.735 13.014,16.680 13.024 " fill="#1C274C" stroke="none" fill-rule="evenodd"></path></svg>