<svg width="24" height="24" viewBox="0 0 24 24" fill="none" xmlns="http://www.w3.org/2000/svg"><path d="M18.580 2.044 C 17.697 2.224,17.000 3.087,17.000 4.000 C 17.000 5.080,17.920 6.000,19.000 6.000 C 19.920 6.000,20.768 5.310,20.956 4.408 C 21.159 3.434,20.597 2.445,19.657 2.118 C 19.379 2.022,18.864 1.986,18.580 2.044 M12.295 4.998 C 11.813 5.073,11.594 5.189,9.800 6.311 C 8.576 7.077,7.990 7.466,7.908 7.568 C 7.769 7.741,7.723 8.027,7.798 8.253 C 7.895 8.548,8.320 8.801,8.613 8.738 C 8.797 8.698,8.794 8.700,10.520 7.619 C 11.389 7.074,12.172 6.596,12.260 6.555 C 12.471 6.458,12.848 6.458,13.060 6.555 C 13.418 6.718,13.669 7.150,13.629 7.535 C 13.595 7.862,13.478 8.049,13.129 8.328 C 12.959 8.464,12.673 8.724,12.492 8.905 C 11.964 9.437,11.721 10.033,11.721 10.800 C 11.721 11.794,12.163 12.567,13.080 13.180 C 13.649 13.560,13.935 13.901,14.129 14.432 C 14.203 14.632,14.216 14.784,14.238 15.680 C 14.264 16.786,14.272 16.826,14.506 17.047 C 14.783 17.309,15.217 17.309,15.494 17.047 C 15.719 16.835,15.737 16.760,15.753 15.983 C 15.777 14.825,15.682 14.202,15.383 13.574 C 15.084 12.943,14.635 12.423,14.060 12.042 C 13.646 11.767,13.458 11.587,13.327 11.340 C 13.236 11.169,13.221 11.091,13.221 10.800 C 13.221 10.258,13.308 10.132,14.200 9.391 C 14.814 8.881,15.120 8.238,15.120 7.460 C 15.120 7.026,15.049 6.724,14.853 6.320 C 14.575 5.747,13.929 5.225,13.300 5.066 C 12.989 4.987,12.554 4.957,12.295 4.998 M16.420 9.260 C 16.398 9.267,16.331 9.284,16.271 9.297 C 16.124 9.329,15.881 9.548,15.814 9.708 C 15.703 9.973,15.759 10.289,15.953 10.494 C 16.106 10.655,16.211 10.701,16.640 10.792 C 17.281 10.929,17.749 10.975,18.500 10.975 C 19.251 10.975,19.719 10.929,20.360 10.792 C 20.789 10.701,20.894 10.655,21.047 10.494 C 21.181 10.353,21.240 10.201,21.240 10.000 C 21.240 9.799,21.181 9.647,21.047 9.507 C 20.813 9.259,20.617 9.220,20.120 9.320 C 18.990 9.549,17.893 9.542,16.780 9.302 C 16.487 9.239,16.484 9.238,16.420 9.260 M10.813 13.288 C 10.698 13.312,10.571 13.391,10.403 13.541 C 9.475 14.368,8.651 14.696,7.356 14.754 C 6.728 14.782,6.724 14.783,6.572 14.905 C 6.355 15.081,6.269 15.248,6.269 15.494 C 6.269 15.740,6.344 15.903,6.537 16.072 C 6.723 16.235,6.857 16.256,7.576 16.228 C 8.961 16.174,10.128 15.723,11.206 14.826 C 11.538 14.550,11.665 14.386,11.713 14.169 C 11.837 13.618,11.376 13.167,10.813 13.288 M2.807 16.289 C 2.436 16.368,2.187 16.792,2.284 17.180 C 2.333 17.373,2.367 17.416,3.175 18.312 C 3.840 19.049,4.069 19.250,4.460 19.442 C 5.116 19.765,4.484 19.740,12.000 19.740 C 19.516 19.740,18.884 19.765,19.540 19.442 C 19.931 19.250,20.160 19.049,20.825 18.312 C 21.659 17.388,21.671 17.373,21.716 17.163 C 21.818 16.684,21.487 16.271,21.000 16.271 C 20.685 16.271,20.567 16.360,19.899 17.103 C 19.556 17.485,19.194 17.869,19.095 17.956 C 18.747 18.262,19.305 18.240,12.000 18.240 C 4.695 18.240,5.253 18.262,4.905 17.956 C 4.806 17.869,4.444 17.485,4.101 17.103 C 3.368 16.288,3.227 16.199,2.807 16.289 M6.673 20.063 C 6.402 20.146,6.139 20.422,6.056 20.709 C 5.840 21.452,6.470 22.131,7.221 21.963 C 7.980 21.793,8.249 20.856,7.697 20.304 C 7.418 20.024,7.067 19.942,6.673 20.063 M16.673 20.063 C 16.402 20.146,16.139 20.422,16.056 20.709 C 15.840 21.452,16.470 22.131,17.221 21.963 C 17.980 21.793,18.249 20.856,17.697 20.304 C 17.418 20.024,17.067 19.942,16.673 20.063 " fill="#1C274C" stroke="none" fill-rule="evenodd"></path></svg>