<svg width="24" height="24" viewBox="0 0 24 24" fill="none" xmlns="http://www.w3.org/2000/svg"><path d="M18.580 2.044 C 17.697 2.224,17.000 3.087,17.000 4.000 C 17.000 5.080,17.920 6.000,19.000 6.000 C 19.920 6.000,20.768 5.310,20.956 4.408 C 21.159 3.434,20.597 2.445,19.657 2.118 C 19.379 2.022,18.864 1.986,18.580 2.044 M12.460 5.303 C 11.894 5.382,11.690 5.424,11.360 5.529 C 10.822 5.700,10.454 5.897,9.164 6.707 C 8.417 7.175,7.987 7.471,7.908 7.568 C 7.769 7.741,7.723 8.027,7.798 8.253 C 7.880 8.503,8.254 8.765,8.520 8.758 C 8.673 8.754,8.944 8.605,10.041 7.919 C 11.256 7.160,11.646 6.964,12.165 6.856 C 12.735 6.737,13.570 6.802,14.096 7.004 C 14.340 7.099,14.440 7.206,14.440 7.372 C 14.440 7.479,14.316 7.620,13.485 8.457 C 12.224 9.728,12.085 9.952,12.050 10.780 C 12.029 11.280,12.089 11.584,12.281 11.957 C 12.464 12.311,12.657 12.518,13.349 13.098 C 13.799 13.475,14.032 13.700,14.109 13.831 L 14.220 14.020 14.240 15.360 C 14.262 16.821,14.261 16.815,14.506 17.047 C 14.711 17.241,15.027 17.297,15.292 17.186 C 15.447 17.121,15.667 16.881,15.709 16.729 C 15.726 16.669,15.739 16.035,15.738 15.320 C 15.737 13.879,15.715 13.705,15.475 13.230 C 15.263 12.809,15.027 12.548,14.341 11.978 C 13.620 11.378,13.520 11.247,13.520 10.906 C 13.520 10.802,13.548 10.651,13.582 10.569 C 13.622 10.472,13.994 10.067,14.637 9.420 C 15.498 8.552,15.645 8.385,15.753 8.158 C 16.152 7.312,15.861 6.292,15.088 5.826 C 14.606 5.536,13.786 5.327,13.025 5.301 C 12.780 5.293,12.526 5.294,12.460 5.303 M16.420 9.259 C 16.398 9.267,16.331 9.284,16.271 9.297 C 16.124 9.329,15.881 9.548,15.814 9.708 C 15.691 10.002,15.771 10.336,16.015 10.550 C 16.095 10.621,16.211 10.693,16.271 10.709 C 16.331 10.726,17.127 10.740,18.040 10.740 C 19.886 10.740,19.821 10.749,20.072 10.463 C 20.371 10.123,20.258 9.589,19.836 9.340 C 19.707 9.264,19.620 9.260,18.080 9.252 C 17.189 9.248,16.442 9.251,16.420 9.259 M10.802 13.290 C 10.644 13.323,10.547 13.404,9.962 13.978 C 9.598 14.336,9.255 14.653,9.200 14.684 C 9.123 14.727,8.826 14.745,7.914 14.760 L 6.727 14.780 6.574 14.904 C 6.355 15.081,6.269 15.248,6.269 15.494 C 6.269 15.806,6.458 16.094,6.733 16.197 C 6.880 16.253,8.932 16.253,9.280 16.198 C 9.847 16.108,10.219 15.854,11.105 14.954 C 11.613 14.436,11.673 14.361,11.710 14.188 C 11.834 13.607,11.387 13.165,10.802 13.290 M2.807 16.289 C 2.573 16.339,2.348 16.565,2.286 16.814 C 2.209 17.120,2.279 17.303,2.632 17.711 C 3.481 18.691,4.119 19.164,5.009 19.475 C 5.811 19.755,5.407 19.740,12.000 19.740 C 18.631 19.740,18.196 19.757,19.032 19.459 C 19.902 19.148,20.525 18.681,21.369 17.709 C 21.612 17.429,21.682 17.318,21.715 17.164 C 21.818 16.684,21.488 16.271,21.000 16.271 C 20.701 16.271,20.559 16.368,20.080 16.902 C 19.446 17.608,19.016 17.907,18.318 18.126 L 18.020 18.220 12.000 18.220 L 5.980 18.220 5.682 18.126 C 4.984 17.907,4.554 17.608,3.920 16.902 C 3.381 16.301,3.204 16.204,2.807 16.289 M6.673 20.063 C 6.312 20.174,6.000 20.609,6.000 21.000 C 6.000 21.524,6.476 22.000,7.000 22.000 C 7.520 22.000,8.000 21.520,8.000 21.000 C 8.000 20.598,7.688 20.173,7.310 20.061 C 7.062 19.987,6.919 19.988,6.673 20.063 M16.673 20.063 C 16.312 20.174,16.000 20.609,16.000 21.000 C 16.000 21.524,16.476 22.000,17.000 22.000 C 17.520 22.000,18.000 21.520,18.000 21.000 C 18.000 20.598,17.688 20.173,17.310 20.061 C 17.062 19.987,16.919 19.988,16.673 20.063 " fill="#1C274C" stroke="none" fill-rule="evenodd"></path></svg>