<svg width="24" height="24" viewBox="0 0 24 24" fill="none" xmlns="http://www.w3.org/2000/svg"><path d="M18.647 2.045 C 17.981 2.156,16.845 2.687,14.920 3.790 C 13.269 4.735,12.582 5.170,11.440 5.992 C 10.727 6.506,9.383 7.532,8.580 8.176 C 7.802 8.801,6.840 9.757,6.567 10.177 C 5.808 11.346,5.809 12.655,6.568 13.823 C 6.870 14.289,7.823 15.220,8.760 15.968 C 11.196 17.910,12.737 18.972,14.960 20.239 C 17.260 21.550,18.136 21.933,18.960 21.988 C 20.068 22.061,20.940 21.310,21.341 19.936 C 21.613 19.003,21.811 17.057,21.960 13.840 C 22.039 12.139,22.008 10.650,21.839 8.060 C 21.701 5.927,21.563 4.828,21.341 4.064 C 20.902 2.561,19.929 1.832,18.647 2.045 M1.807 4.289 C 1.558 4.342,1.342 4.570,1.284 4.838 C 1.222 5.130,1.222 19.870,1.284 20.162 C 1.447 20.920,2.553 20.920,2.716 20.162 C 2.776 19.883,2.777 5.101,2.717 4.841 C 2.620 4.420,2.247 4.194,1.807 4.289 " fill="#1C274C" stroke="none" fill-rule="evenodd"></path></svg>