<svg width="24" height="24" viewBox="0 0 24 24" fill="none" xmlns="http://www.w3.org/2000/svg"><path d="M4.480 2.044 C 3.885 2.159,3.268 2.675,2.948 3.325 C 2.479 4.276,2.342 5.191,2.092 9.040 C 1.997 10.505,1.997 13.495,2.092 14.960 C 2.342 18.809,2.479 19.724,2.948 20.675 C 3.275 21.340,3.868 21.829,4.509 21.962 C 5.013 22.067,5.707 21.929,6.560 21.553 C 7.283 21.235,9.039 20.269,10.440 19.420 C 12.329 18.275,15.451 15.913,16.623 14.742 C 17.612 13.754,17.929 13.153,17.987 12.159 C 18.028 11.445,17.851 10.821,17.421 10.160 C 17.145 9.736,16.159 8.767,15.340 8.114 C 12.712 6.020,11.441 5.142,9.080 3.790 C 6.396 2.253,5.384 1.868,4.480 2.044 M21.807 4.289 C 21.558 4.342,21.342 4.570,21.284 4.838 C 21.222 5.130,21.222 19.870,21.284 20.162 C 21.447 20.920,22.553 20.920,22.716 20.162 C 22.776 19.883,22.777 5.101,22.717 4.841 C 22.620 4.420,22.247 4.194,21.807 4.289 " fill="#1C274C" stroke="none" fill-rule="evenodd"></path></svg>