<svg width="24" height="24" viewBox="0 0 24 24" fill="none" xmlns="http://www.w3.org/2000/svg"><path d="M11.120 2.039 C 9.316 2.220,7.707 2.807,6.280 3.806 C 2.738 6.286,1.178 10.759,2.422 14.865 C 2.918 16.500,3.729 17.852,4.938 19.062 C 6.293 20.416,7.879 21.301,9.740 21.740 C 11.388 22.129,13.240 22.070,14.865 21.578 C 16.499 21.082,17.850 20.272,19.061 19.061 C 19.836 18.287,20.383 17.547,20.863 16.623 C 23.186 12.157,21.847 6.695,17.720 3.806 C 16.452 2.918,15.069 2.366,13.493 2.119 C 12.909 2.027,11.660 1.985,11.120 2.039 M13.739 6.577 C 13.941 6.731,14.057 6.996,14.027 7.237 C 14.007 7.396,11.652 16.254,11.440 16.965 C 11.379 17.170,11.325 17.263,11.201 17.374 C 11.114 17.453,10.992 17.529,10.931 17.542 C 10.870 17.556,10.796 17.574,10.766 17.584 C 10.673 17.613,10.387 17.518,10.246 17.411 C 10.091 17.294,9.962 17.039,9.961 16.849 C 9.960 16.738,12.415 7.476,12.583 6.957 C 12.639 6.783,12.805 6.586,12.980 6.484 C 13.025 6.458,13.174 6.443,13.324 6.450 C 13.543 6.460,13.615 6.482,13.739 6.577 " fill="#1C274C" stroke="none" fill-rule="evenodd"></path></svg>