<svg width="24" height="24" viewBox="0 0 24 24" fill="none" xmlns="http://www.w3.org/2000/svg"><path d="M8.419 2.043 C 5.807 2.139,4.481 2.507,3.549 3.393 C 2.551 4.342,2.166 5.587,2.041 8.260 C 1.988 9.399,1.988 14.601,2.041 15.740 C 2.160 18.285,2.507 19.501,3.379 20.433 C 4.323 21.444,5.571 21.833,8.260 21.959 C 9.399 22.012,14.601 22.012,15.740 21.959 C 18.285 21.840,19.501 21.493,20.433 20.621 C 21.360 19.755,21.742 18.682,21.927 16.420 C 22.002 15.512,22.002 8.488,21.927 7.580 C 21.743 5.332,21.366 4.263,20.451 3.393 C 19.495 2.484,18.240 2.146,15.417 2.041 C 14.194 1.995,9.686 1.997,8.419 2.043 M13.739 6.577 C 13.941 6.731,14.057 6.996,14.027 7.237 C 14.007 7.396,11.652 16.254,11.440 16.965 C 11.379 17.170,11.325 17.263,11.201 17.374 C 11.114 17.453,10.992 17.529,10.931 17.542 C 10.870 17.556,10.796 17.574,10.766 17.584 C 10.673 17.613,10.387 17.518,10.246 17.411 C 10.091 17.294,9.962 17.039,9.961 16.849 C 9.960 16.738,12.415 7.476,12.583 6.957 C 12.639 6.783,12.805 6.586,12.980 6.484 C 13.025 6.458,13.174 6.443,13.324 6.450 C 13.543 6.460,13.615 6.482,13.739 6.577 " fill="#1C274C" stroke="none" fill-rule="evenodd"></path></svg>