<svg width="24" height="24" viewBox="0 0 24 24" fill="none" xmlns="http://www.w3.org/2000/svg"><path d="M10.894 2.039 C 10.502 2.123,9.995 2.406,9.440 2.852 C 9.021 3.189,6.113 6.107,5.784 6.520 C 4.955 7.564,4.803 8.317,5.241 9.220 C 5.468 9.689,5.815 10.121,6.752 11.103 C 8.054 12.467,13.206 17.578,13.720 18.016 C 15.044 19.144,15.893 19.274,17.030 18.523 C 17.548 18.181,17.963 17.804,19.383 16.383 C 20.808 14.957,21.184 14.544,21.523 14.030 C 22.274 12.893,22.145 12.048,21.018 10.720 C 20.510 10.122,13.879 3.491,13.282 2.984 C 12.479 2.303,11.977 2.048,11.381 2.019 C 11.204 2.011,10.985 2.019,10.894 2.039 M17.148 4.204 C 16.764 4.294,16.689 4.189,18.242 5.742 C 19.019 6.519,19.668 7.148,19.683 7.138 C 19.759 7.091,19.850 6.590,19.831 6.326 C 19.799 5.872,19.646 5.602,19.111 5.054 C 18.863 4.800,18.579 4.533,18.480 4.460 C 18.128 4.202,17.594 4.099,17.148 4.204 M4.756 16.310 C 2.418 18.655,2.246 18.837,2.138 19.080 C 2.038 19.304,2.022 19.391,2.021 19.702 C 2.020 20.040,2.030 20.084,2.168 20.362 C 2.291 20.612,2.402 20.746,2.849 21.188 C 3.288 21.622,3.432 21.740,3.661 21.848 C 3.912 21.966,3.976 21.980,4.300 21.980 C 4.624 21.980,4.688 21.966,4.940 21.848 C 5.204 21.723,5.362 21.574,7.720 19.218 L 10.220 16.721 8.760 15.260 C 7.957 14.457,7.291 13.800,7.279 13.800 C 7.268 13.800,6.132 14.930,4.756 16.310 " fill="#1C274C" stroke="none" fill-rule="evenodd"></path></svg>