<svg width="24" height="24" viewBox="0 0 24 24" fill="none" xmlns="http://www.w3.org/2000/svg"><path d="M19.240 1.292 C 19.075 1.354,15.720 3.284,15.530 3.427 C 15.183 3.686,15.157 4.207,15.475 4.525 C 15.644 4.694,15.900 4.780,16.116 4.740 C 16.195 4.726,16.701 4.461,17.240 4.152 C 17.779 3.843,18.232 3.583,18.246 3.575 C 18.261 3.567,18.232 3.708,18.182 3.890 C 18.132 4.071,17.896 4.947,17.659 5.835 C 17.244 7.385,17.228 7.458,17.274 7.631 C 17.397 8.087,17.866 8.325,18.291 8.146 C 18.494 8.060,21.764 6.165,21.916 6.045 C 22.102 5.898,22.200 5.700,22.200 5.469 C 22.200 5.011,21.830 4.679,21.377 4.730 C 21.247 4.745,20.955 4.893,20.219 5.319 C 19.678 5.632,19.229 5.882,19.221 5.874 C 19.213 5.866,19.430 5.026,19.704 4.007 C 19.998 2.908,20.200 2.080,20.200 1.971 C 20.200 1.502,19.673 1.130,19.240 1.292 M7.456 3.042 C 4.720 3.141,3.373 3.534,2.435 4.507 C 1.688 5.282,1.317 6.263,1.142 7.927 C 1.046 8.840,1.001 10.469,1.001 13.000 C 1.001 17.100,1.103 18.613,1.459 19.779 C 1.891 21.195,2.805 22.109,4.221 22.541 C 5.387 22.897,6.900 22.999,11.000 22.999 C 15.116 22.999,16.590 22.899,17.787 22.538 C 19.186 22.116,20.116 21.186,20.538 19.787 C 20.898 18.593,20.999 17.117,20.999 13.020 C 21.000 11.095,20.944 8.451,20.903 8.410 C 20.896 8.403,20.453 8.650,19.917 8.958 C 18.744 9.634,18.575 9.699,18.000 9.699 C 17.541 9.699,17.319 9.644,16.913 9.431 C 16.663 9.300,16.296 8.963,16.131 8.713 L 16.025 8.553 15.959 8.793 C 15.847 9.200,15.682 9.479,15.361 9.803 C 14.873 10.295,14.331 10.507,13.660 10.470 C 13.155 10.441,12.941 10.351,11.742 9.658 C 10.913 9.179,10.658 9.011,10.461 8.816 C 9.547 7.905,9.593 6.405,10.561 5.552 C 10.752 5.385,10.796 5.321,10.817 5.185 C 10.961 4.251,11.681 3.492,12.610 3.294 C 12.933 3.225,13.339 3.241,13.648 3.334 L 13.836 3.391 13.894 3.220 L 13.952 3.049 13.806 3.025 C 13.607 2.992,8.454 3.006,7.456 3.042 M12.740 4.820 C 12.426 4.989,12.299 5.224,12.328 5.582 C 12.348 5.819,12.477 6.027,12.681 6.147 C 12.746 6.186,12.800 6.227,12.800 6.240 C 12.800 6.252,12.565 6.323,12.277 6.398 C 11.521 6.593,11.320 6.771,11.320 7.243 C 11.320 7.637,11.397 7.714,12.346 8.266 C 13.604 8.998,13.540 8.969,13.825 8.952 C 14.019 8.940,14.102 8.913,14.220 8.823 C 14.630 8.510,14.608 7.892,14.176 7.605 L 13.996 7.487 14.208 7.427 C 14.325 7.394,14.569 7.327,14.751 7.279 C 14.933 7.230,15.140 7.152,15.211 7.105 C 15.375 6.996,15.520 6.711,15.519 6.502 C 15.518 6.319,15.409 6.052,15.296 5.955 C 15.254 5.919,14.788 5.641,14.261 5.337 C 13.393 4.836,13.281 4.782,13.081 4.770 C 12.931 4.760,12.821 4.777,12.740 4.820 M5.746 11.300 C 5.824 11.333,5.997 11.460,6.129 11.582 C 6.776 12.181,7.336 12.357,7.966 12.161 C 8.265 12.067,8.470 11.937,8.844 11.602 C 9.254 11.235,9.465 11.170,9.780 11.316 C 10.159 11.492,10.338 11.897,10.198 12.266 C 10.022 12.729,8.993 13.464,8.240 13.665 C 7.883 13.760,7.114 13.759,6.760 13.664 C 6.036 13.468,5.062 12.799,4.843 12.346 C 4.646 11.940,4.805 11.508,5.220 11.316 C 5.415 11.225,5.557 11.221,5.746 11.300 M12.746 11.300 C 12.824 11.333,12.997 11.460,13.129 11.582 C 13.776 12.181,14.336 12.357,14.966 12.161 C 15.265 12.067,15.470 11.937,15.844 11.602 C 16.254 11.235,16.465 11.170,16.780 11.316 C 17.159 11.492,17.338 11.897,17.198 12.266 C 17.022 12.729,15.993 13.464,15.240 13.665 C 14.883 13.760,14.114 13.759,13.760 13.664 C 13.036 13.468,12.062 12.799,11.843 12.346 C 11.646 11.940,11.805 11.508,12.220 11.316 C 12.415 11.225,12.557 11.221,12.746 11.300 M11.512 16.147 C 12.142 16.534,12.154 17.446,11.535 17.839 C 11.060 18.141,10.442 17.992,10.141 17.503 C 10.034 17.329,10.020 17.271,10.020 17.003 C 10.020 16.744,10.036 16.673,10.131 16.511 C 10.339 16.158,10.660 15.988,11.072 16.015 C 11.261 16.027,11.371 16.060,11.512 16.147 " fill="#1C274C" stroke="none" fill-rule="evenodd"></path></svg>