<svg width="24" height="24" viewBox="0 0 24 24" fill="none" xmlns="http://www.w3.org/2000/svg"><path d="M19.240 1.292 C 19.075 1.354,15.720 3.284,15.530 3.427 C 15.183 3.686,15.157 4.207,15.475 4.525 C 15.644 4.694,15.900 4.780,16.116 4.740 C 16.195 4.726,16.701 4.461,17.240 4.152 C 17.779 3.843,18.232 3.583,18.246 3.575 C 18.261 3.567,18.232 3.708,18.182 3.890 C 18.132 4.071,17.896 4.947,17.659 5.835 C 17.244 7.385,17.228 7.458,17.274 7.631 C 17.397 8.087,17.866 8.325,18.291 8.146 C 18.494 8.060,21.764 6.165,21.916 6.045 C 22.102 5.898,22.200 5.700,22.200 5.469 C 22.200 5.011,21.830 4.679,21.377 4.730 C 21.247 4.745,20.955 4.893,20.219 5.319 C 19.678 5.632,19.229 5.882,19.221 5.874 C 19.213 5.866,19.430 5.026,19.704 4.007 C 19.998 2.908,20.200 2.080,20.200 1.971 C 20.200 1.502,19.673 1.130,19.240 1.292 M10.300 3.027 C 9.396 3.103,8.297 3.339,7.537 3.620 C 6.919 3.849,6.069 4.282,5.517 4.649 C 4.317 5.446,3.470 6.292,2.667 7.492 C 1.871 8.684,1.343 10.058,1.113 11.540 C 0.989 12.338,0.989 13.662,1.113 14.460 C 1.441 16.571,2.363 18.437,3.837 19.972 C 4.788 20.962,6.208 21.887,7.523 22.374 C 8.075 22.579,8.894 22.787,9.540 22.887 C 10.338 23.011,11.662 23.011,12.460 22.887 C 13.942 22.657,15.316 22.129,16.508 21.333 C 17.708 20.530,18.554 19.683,19.351 18.483 C 20.345 16.987,20.908 15.216,20.985 13.340 C 21.043 11.947,20.750 10.368,20.195 9.078 C 20.149 8.969,20.097 8.880,20.082 8.880 C 20.067 8.880,19.804 9.024,19.498 9.200 C 18.758 9.625,18.537 9.699,18.000 9.699 C 17.541 9.699,17.319 9.644,16.913 9.431 C 16.663 9.300,16.296 8.963,16.131 8.713 L 16.025 8.553 15.959 8.793 C 15.847 9.200,15.682 9.479,15.361 9.803 C 14.873 10.295,14.331 10.507,13.660 10.470 C 13.155 10.441,12.941 10.351,11.742 9.658 C 10.571 8.982,10.327 8.782,10.069 8.291 C 9.862 7.899,9.787 7.546,9.812 7.100 C 9.847 6.483,10.095 5.971,10.562 5.547 C 10.753 5.374,10.795 5.311,10.820 5.162 C 10.896 4.708,11.097 4.305,11.417 3.965 C 11.797 3.563,12.194 3.358,12.771 3.267 L 13.100 3.215 12.660 3.146 C 11.845 3.019,10.936 2.973,10.300 3.027 M12.740 4.820 C 12.426 4.989,12.299 5.224,12.328 5.582 C 12.348 5.819,12.477 6.027,12.681 6.147 C 12.746 6.186,12.800 6.227,12.800 6.240 C 12.800 6.252,12.565 6.323,12.277 6.398 C 11.521 6.593,11.320 6.771,11.320 7.243 C 11.320 7.637,11.397 7.714,12.346 8.266 C 13.604 8.998,13.540 8.969,13.825 8.952 C 14.019 8.940,14.102 8.913,14.220 8.823 C 14.630 8.510,14.608 7.892,14.176 7.605 L 13.996 7.487 14.208 7.427 C 14.325 7.394,14.569 7.327,14.751 7.279 C 14.933 7.230,15.140 7.152,15.211 7.105 C 15.375 6.996,15.520 6.711,15.519 6.502 C 15.518 6.319,15.409 6.052,15.296 5.955 C 15.254 5.919,14.788 5.641,14.261 5.337 C 13.393 4.836,13.281 4.782,13.081 4.770 C 12.931 4.760,12.821 4.777,12.740 4.820 M5.742 11.298 C 5.819 11.331,6.005 11.467,6.156 11.602 C 6.530 11.937,6.735 12.067,7.034 12.161 C 7.664 12.357,8.224 12.181,8.871 11.582 C 9.241 11.239,9.470 11.172,9.780 11.316 C 10.195 11.508,10.354 11.940,10.157 12.346 C 9.938 12.799,8.964 13.468,8.240 13.664 C 7.884 13.760,7.116 13.760,6.760 13.664 C 6.036 13.468,5.062 12.799,4.843 12.346 C 4.646 11.940,4.805 11.508,5.220 11.316 C 5.414 11.226,5.557 11.221,5.742 11.298 M12.742 11.298 C 12.819 11.331,13.005 11.467,13.156 11.602 C 13.307 11.737,13.509 11.900,13.605 11.965 C 13.833 12.117,14.234 12.240,14.500 12.240 C 14.766 12.240,15.167 12.117,15.395 11.965 C 15.491 11.900,15.693 11.737,15.844 11.602 C 16.254 11.235,16.465 11.170,16.780 11.316 C 17.195 11.508,17.354 11.940,17.157 12.346 C 16.938 12.799,15.964 13.468,15.240 13.664 C 14.884 13.760,14.116 13.760,13.760 13.664 C 13.036 13.468,12.062 12.799,11.843 12.346 C 11.646 11.940,11.805 11.508,12.220 11.316 C 12.414 11.226,12.557 11.221,12.742 11.298 M11.512 16.147 C 12.142 16.534,12.154 17.446,11.535 17.839 C 11.060 18.141,10.442 17.992,10.141 17.503 C 10.034 17.329,10.020 17.271,10.020 17.003 C 10.020 16.744,10.036 16.673,10.131 16.511 C 10.339 16.158,10.660 15.988,11.072 16.015 C 11.261 16.027,11.371 16.060,11.512 16.147 " fill="#1C274C" stroke="none" fill-rule="evenodd"></path></svg>