<svg width="24" height="24" viewBox="0 0 24 24" fill="none" xmlns="http://www.w3.org/2000/svg"><path d="M9.520 2.038 C 8.050 2.121,7.286 2.358,6.738 2.900 C 6.190 3.441,5.969 4.139,5.881 5.600 C 5.828 6.474,5.828 17.526,5.881 18.400 C 5.991 20.239,6.370 21.051,7.340 21.533 C 8.108 21.915,8.943 21.999,12.000 21.999 C 14.085 21.999,14.948 21.964,15.594 21.856 C 17.067 21.608,17.770 20.902,18.019 19.420 C 18.141 18.699,18.159 17.713,18.159 12.000 C 18.159 6.287,18.141 5.301,18.019 4.580 C 17.799 3.270,17.237 2.591,16.104 2.262 C 15.429 2.067,14.904 2.033,12.380 2.020 C 11.104 2.013,9.817 2.022,9.520 2.038 M2.460 3.819 C 2.303 3.893,2.238 3.951,2.119 4.120 L 2.020 4.260 2.020 12.000 L 2.020 19.740 2.118 19.885 C 2.256 20.089,2.449 20.209,2.677 20.231 C 3.019 20.264,3.297 20.121,3.441 19.838 C 3.519 19.686,3.520 19.568,3.520 12.000 C 3.520 4.540,3.518 4.313,3.444 4.168 C 3.403 4.087,3.334 3.989,3.293 3.952 C 3.093 3.771,2.697 3.708,2.460 3.819 M20.921 3.821 C 20.737 3.904,20.647 3.989,20.556 4.168 C 20.482 4.313,20.480 4.540,20.480 12.000 C 20.480 19.568,20.481 19.686,20.559 19.838 C 20.703 20.121,20.981 20.264,21.323 20.231 C 21.582 20.206,21.778 20.067,21.901 19.822 L 22.000 19.624 22.000 12.000 L 22.000 4.376 21.901 4.178 C 21.768 3.913,21.579 3.788,21.286 3.772 C 21.142 3.763,21.010 3.781,20.921 3.821 " fill="#1C274C" stroke="none" fill-rule="evenodd"></path></svg>