<svg width="24" height="24" viewBox="0 0 24 24" fill="none" xmlns="http://www.w3.org/2000/svg"><path d="M9.960 2.025 C 8.912 2.080,8.302 2.202,7.826 2.450 C 7.090 2.832,6.706 3.471,6.539 4.588 C 6.428 5.336,6.402 6.711,6.403 12.040 C 6.403 18.440,6.433 19.285,6.686 20.112 C 6.964 21.022,7.558 21.580,8.480 21.797 C 9.196 21.966,9.473 21.980,12.000 21.980 C 14.527 21.980,14.804 21.966,15.520 21.797 C 16.442 21.580,17.036 21.022,17.314 20.112 C 17.566 19.289,17.598 18.372,17.598 12.000 C 17.598 6.743,17.572 5.340,17.460 4.585 C 17.219 2.961,16.502 2.285,14.800 2.078 C 14.443 2.034,10.576 1.992,9.960 2.025 M4.320 3.864 C 3.761 3.983,3.084 4.422,2.727 4.894 C 2.289 5.476,2.110 5.982,2.041 6.829 C 1.986 7.502,1.986 16.498,2.041 17.171 C 2.092 17.805,2.196 18.211,2.404 18.596 C 2.850 19.424,3.567 19.986,4.375 20.140 C 5.049 20.269,5.233 20.166,5.160 19.699 C 5.032 18.891,5.020 18.237,5.020 12.000 C 5.020 5.763,5.032 5.109,5.160 4.301 C 5.194 4.085,5.157 3.937,5.048 3.855 C 4.961 3.788,4.654 3.792,4.320 3.864 M18.952 3.855 C 18.822 3.953,18.805 4.084,18.865 4.522 C 18.961 5.228,18.997 7.305,18.997 12.000 C 18.997 16.636,18.960 18.749,18.866 19.480 C 18.774 20.194,18.876 20.284,19.625 20.140 C 20.637 19.947,21.569 19.038,21.839 17.983 C 21.984 17.418,22.000 16.813,22.000 12.000 C 22.000 7.187,21.984 6.582,21.839 6.017 C 21.629 5.195,20.991 4.422,20.220 4.055 C 19.765 3.839,19.109 3.735,18.952 3.855 " fill="#1C274C" stroke="none" fill-rule="evenodd"></path></svg>