<svg width="24" height="24" viewBox="0 0 24 24" fill="none" xmlns="http://www.w3.org/2000/svg"><path d="M4.300 2.034 C 4.005 2.130,3.798 2.381,3.769 2.677 C 3.736 3.019,3.879 3.297,4.162 3.441 C 4.314 3.519,4.432 3.520,12.000 3.520 C 19.568 3.520,19.686 3.519,19.838 3.441 C 20.121 3.297,20.264 3.019,20.231 2.677 C 20.206 2.418,20.067 2.222,19.822 2.099 L 19.624 2.000 12.002 2.004 C 7.810 2.006,4.344 2.020,4.300 2.034 M5.720 5.883 C 4.650 5.929,4.025 6.048,3.518 6.302 C 2.543 6.790,2.161 7.586,2.041 9.380 C 1.989 10.156,1.989 13.842,2.041 14.620 C 2.119 15.793,2.268 16.378,2.629 16.929 C 3.137 17.706,3.916 18.018,5.600 18.119 C 6.472 18.172,17.525 18.172,18.400 18.120 C 19.594 18.048,20.250 17.887,20.760 17.540 C 21.537 17.012,21.850 16.249,21.959 14.620 C 22.011 13.843,22.011 10.157,21.959 9.380 C 21.839 7.586,21.457 6.790,20.482 6.302 C 19.958 6.039,19.367 5.932,18.143 5.879 C 17.148 5.836,6.736 5.839,5.720 5.883 M4.180 20.546 C 3.881 20.704,3.736 20.977,3.769 21.318 C 3.794 21.582,3.931 21.777,4.178 21.901 L 4.376 22.000 12.000 22.000 L 19.624 22.000 19.822 21.901 C 20.067 21.778,20.206 21.582,20.231 21.323 C 20.264 20.981,20.121 20.703,19.838 20.559 C 19.685 20.481,19.570 20.480,11.992 20.482 C 5.058 20.483,4.288 20.489,4.180 20.546 " fill="#1C274C" stroke="none" fill-rule="evenodd"></path></svg>