<svg width="24" height="24" viewBox="0 0 24 24" fill="none" xmlns="http://www.w3.org/2000/svg"><path d="M6.746 2.044 C 5.999 2.105,5.452 2.307,4.894 2.727 C 4.274 3.195,3.796 4.107,3.801 4.813 C 3.803 5.104,3.978 5.224,4.310 5.162 C 4.999 5.034,5.743 5.020,12.000 5.020 C 18.257 5.020,19.001 5.034,19.690 5.162 C 20.013 5.223,20.196 5.104,20.199 4.834 C 20.201 4.562,20.081 4.064,19.946 3.781 C 19.667 3.198,19.217 2.738,18.596 2.404 C 18.211 2.196,17.805 2.092,17.171 2.041 C 16.573 1.992,7.339 1.995,6.746 2.044 M5.320 6.466 C 4.044 6.560,3.322 6.802,2.821 7.303 C 2.410 7.714,2.201 8.244,2.071 9.200 C 1.999 9.737,1.999 14.263,2.071 14.800 C 2.201 15.756,2.410 16.286,2.821 16.697 C 3.410 17.285,4.142 17.488,5.937 17.561 C 7.137 17.609,16.863 17.609,18.063 17.561 C 19.054 17.521,19.685 17.445,20.112 17.314 C 21.022 17.036,21.580 16.442,21.797 15.520 C 21.966 14.804,21.980 14.527,21.980 12.000 C 21.980 9.473,21.966 9.196,21.797 8.480 C 21.576 7.543,20.993 6.933,20.078 6.682 C 19.259 6.458,19.596 6.467,12.260 6.460 C 8.542 6.456,5.419 6.458,5.320 6.466 M4.004 18.843 C 3.788 18.930,3.753 19.129,3.861 19.647 C 4.028 20.450,4.587 21.156,5.404 21.596 C 5.789 21.804,6.195 21.908,6.829 21.959 C 7.133 21.984,9.181 22.000,12.000 22.000 C 16.813 22.000,17.418 21.984,17.983 21.839 C 19.038 21.569,19.947 20.637,20.140 19.625 C 20.284 18.875,20.191 18.768,19.478 18.865 C 18.765 18.961,16.755 18.997,12.000 18.997 C 6.600 18.997,5.017 18.961,4.200 18.821 C 4.145 18.812,4.057 18.822,4.004 18.843 " fill="#1C274C" stroke="none" fill-rule="evenodd"></path></svg>