<svg width="24" height="24" viewBox="0 0 24 24" fill="none" xmlns="http://www.w3.org/2000/svg"><path d="M10.960 2.026 C 9.359 2.110,7.597 2.344,6.773 2.583 C 5.254 3.023,4.012 4.224,3.528 5.720 C 3.350 6.269,3.240 7.132,3.093 9.120 C 2.994 10.449,2.994 13.830,3.093 15.160 C 3.173 16.254,3.265 17.223,3.324 17.620 C 3.597 19.439,4.905 20.944,6.664 21.462 C 7.026 21.568,8.810 21.816,10.000 21.926 C 10.761 21.996,13.231 21.997,13.980 21.927 C 14.891 21.843,16.761 21.602,17.020 21.535 C 17.637 21.376,18.304 21.067,18.740 20.741 C 19.131 20.448,19.631 19.925,19.887 19.543 C 20.440 18.718,20.623 18.132,20.759 16.760 C 21.081 13.506,21.075 10.264,20.741 7.124 C 20.657 6.334,20.615 6.090,20.497 5.719 C 20.040 4.270,18.930 3.135,17.510 2.661 C 16.213 2.229,13.016 1.919,10.960 2.026 M7.602 5.520 C 8.585 6.191,9.913 6.617,11.370 6.727 C 13.189 6.864,15.128 6.396,16.405 5.512 C 16.741 5.280,16.772 5.267,16.994 5.267 C 17.367 5.267,17.618 5.462,17.717 5.829 C 17.853 6.332,17.482 6.718,16.300 7.302 C 14.453 8.216,12.010 8.485,9.795 8.018 C 8.516 7.748,7.050 7.091,6.497 6.538 C 5.977 6.020,6.378 5.176,7.100 5.266 C 7.208 5.280,7.371 5.362,7.602 5.520 " fill="#1C274C" stroke="none" fill-rule="evenodd"></path></svg>