<svg width="24" height="24" viewBox="0 0 24 24" fill="none" xmlns="http://www.w3.org/2000/svg"><path d="M8.560 2.040 C 7.549 2.100,6.962 2.217,6.493 2.454 C 5.825 2.790,5.428 3.315,5.220 4.138 C 5.022 4.917,5.020 5.000,5.020 12.040 C 5.020 18.861,5.021 18.922,5.184 19.716 C 5.424 20.886,6.114 21.576,7.284 21.816 C 8.044 21.972,8.283 21.980,12.000 21.980 C 15.717 21.980,15.956 21.972,16.716 21.816 C 17.886 21.576,18.576 20.886,18.816 19.716 C 18.979 18.922,18.980 18.862,18.980 12.020 C 18.980 5.066,18.978 4.973,18.798 4.208 C 18.550 3.149,17.943 2.506,16.940 2.242 C 16.201 2.047,15.883 2.032,12.380 2.020 C 10.576 2.013,8.857 2.023,8.560 2.040 M1.811 5.279 C 1.498 5.353,1.266 5.664,1.265 6.010 C 1.265 6.172,1.328 6.329,1.692 7.062 C 1.928 7.536,2.120 7.957,2.120 7.998 C 2.120 8.039,1.967 8.385,1.781 8.766 C 1.234 9.887,1.234 10.113,1.781 11.234 C 1.967 11.615,2.120 11.960,2.120 12.000 C 2.120 12.040,1.967 12.385,1.781 12.766 C 1.234 13.887,1.234 14.113,1.781 15.234 C 1.967 15.615,2.120 15.961,2.120 16.002 C 2.120 16.043,1.928 16.464,1.692 16.938 C 1.328 17.671,1.265 17.828,1.265 17.990 C 1.267 18.627,1.958 18.961,2.472 18.573 C 2.573 18.496,2.712 18.253,3.081 17.507 C 3.786 16.082,3.793 15.941,3.219 14.766 C 3.033 14.385,2.880 14.040,2.880 14.000 C 2.880 13.960,3.033 13.615,3.219 13.234 C 3.766 12.113,3.766 11.887,3.219 10.766 C 3.033 10.385,2.880 10.040,2.880 10.000 C 2.880 9.960,3.033 9.615,3.219 9.234 C 3.793 8.059,3.786 7.918,3.081 6.493 C 2.570 5.459,2.506 5.373,2.180 5.284 C 2.002 5.236,1.994 5.235,1.811 5.279 M21.800 5.286 C 21.495 5.375,21.424 5.472,20.919 6.493 C 20.214 7.918,20.207 8.059,20.781 9.234 C 20.967 9.615,21.120 9.960,21.120 10.000 C 21.120 10.040,20.967 10.385,20.781 10.766 C 20.234 11.887,20.234 12.113,20.781 13.234 C 20.967 13.615,21.120 13.960,21.120 14.000 C 21.120 14.040,20.967 14.385,20.781 14.766 C 20.207 15.941,20.214 16.082,20.919 17.507 C 21.288 18.253,21.427 18.496,21.528 18.573 C 22.042 18.961,22.733 18.627,22.735 17.990 C 22.735 17.828,22.672 17.671,22.308 16.938 C 22.072 16.464,21.880 16.043,21.880 16.002 C 21.880 15.961,22.033 15.615,22.219 15.234 C 22.766 14.113,22.766 13.887,22.219 12.766 C 22.033 12.385,21.880 12.040,21.880 12.000 C 21.880 11.960,22.033 11.615,22.219 11.234 C 22.607 10.439,22.671 10.189,22.600 9.730 C 22.568 9.525,22.476 9.293,22.219 8.766 C 22.033 8.385,21.880 8.039,21.880 7.998 C 21.880 7.957,22.072 7.536,22.308 7.062 C 22.673 6.326,22.735 6.172,22.735 6.008 C 22.735 5.516,22.263 5.152,21.800 5.286 M14.820 18.326 C 15.402 18.649,15.380 19.407,14.780 19.684 C 14.629 19.754,14.466 19.758,12.000 19.758 C 9.534 19.758,9.371 19.754,9.220 19.684 C 8.699 19.443,8.595 18.818,9.015 18.450 C 9.095 18.379,9.211 18.310,9.271 18.297 C 9.331 18.284,9.398 18.267,9.420 18.259 C 9.442 18.251,10.639 18.248,12.080 18.252 C 14.438 18.259,14.712 18.267,14.820 18.326 " fill="#1C274C" stroke="none" fill-rule="evenodd"></path></svg>