<svg width="24" height="24" viewBox="0 0 24 24" fill="none" xmlns="http://www.w3.org/2000/svg"><path d="M9.380 2.039 C 8.405 2.092,7.694 2.222,7.226 2.434 C 6.267 2.869,5.492 3.787,5.245 4.780 C 5.025 5.668,5.001 6.270,5.001 11.002 C 5.000 15.525,4.993 15.372,5.231 15.816 C 5.435 16.194,5.719 16.429,6.380 16.767 C 7.079 17.123,7.477 17.292,8.140 17.513 C 9.598 17.999,11.241 18.220,12.669 18.123 C 14.479 18.000,15.880 17.625,17.474 16.836 C 18.093 16.529,18.243 16.437,18.434 16.245 C 18.558 16.120,18.709 15.927,18.769 15.816 C 19.007 15.372,19.000 15.525,18.999 11.002 C 18.999 6.270,18.975 5.668,18.755 4.780 C 18.545 3.936,17.974 3.167,17.171 2.650 C 16.703 2.348,16.137 2.182,15.220 2.078 C 14.734 2.023,10.242 1.993,9.380 2.039 M15.388 4.367 C 15.628 4.526,15.733 4.721,15.733 5.007 C 15.733 5.203,15.714 5.271,15.616 5.409 C 15.552 5.501,15.436 5.613,15.359 5.658 C 15.222 5.739,15.173 5.740,12.000 5.740 C 8.827 5.740,8.778 5.739,8.641 5.658 C 8.564 5.613,8.448 5.501,8.384 5.409 C 8.098 5.003,8.330 4.395,8.815 4.278 C 8.884 4.261,10.354 4.250,12.083 4.254 L 15.226 4.260 15.388 4.367 M2.840 14.286 C 2.366 14.425,1.597 15.335,1.375 16.020 C 1.192 16.583,1.245 17.294,1.508 17.817 C 2.393 19.581,5.308 20.861,9.460 21.310 L 9.740 21.340 9.761 21.800 C 9.783 22.300,9.806 22.367,10.018 22.553 C 10.282 22.785,10.655 22.802,10.936 22.595 C 11.257 22.359,12.589 21.154,12.656 21.039 C 12.752 20.872,12.758 20.547,12.667 20.358 C 12.595 20.209,11.065 18.841,10.827 18.712 C 10.574 18.575,10.147 18.652,9.952 18.867 C 9.823 19.009,9.760 19.230,9.760 19.539 C 9.760 19.705,9.743 19.840,9.722 19.840 C 9.700 19.840,9.408 19.805,9.072 19.761 C 6.418 19.420,4.290 18.666,3.300 17.715 C 2.910 17.341,2.760 17.073,2.760 16.753 C 2.761 16.415,2.902 16.168,3.337 15.738 C 3.668 15.411,3.717 15.345,3.754 15.170 C 3.874 14.611,3.375 14.129,2.840 14.286 M20.745 14.288 C 20.384 14.387,20.150 14.807,20.246 15.186 C 20.285 15.342,20.354 15.433,20.665 15.740 C 20.921 15.992,21.070 16.176,21.139 16.324 C 21.359 16.797,21.225 17.217,20.692 17.724 C 19.693 18.677,17.576 19.422,14.902 19.765 C 14.551 19.810,14.218 19.870,14.162 19.899 C 13.656 20.163,13.631 20.924,14.119 21.194 C 14.349 21.321,14.469 21.326,15.137 21.239 C 18.168 20.845,20.507 19.976,21.755 18.781 C 22.443 18.122,22.729 17.516,22.730 16.720 C 22.731 16.022,22.428 15.382,21.802 14.759 C 21.345 14.305,21.094 14.193,20.745 14.288 " fill="#1C274C" stroke="none" fill-rule="evenodd"></path></svg>