<svg width="24" height="24" viewBox="0 0 24 24" fill="none" xmlns="http://www.w3.org/2000/svg"><path d="M11.423 2.062 C 10.819 2.176,10.111 2.507,8.907 3.237 C 8.019 3.775,5.030 5.633,4.542 5.950 C 3.641 6.534,3.089 6.996,2.767 7.432 C 2.289 8.081,2.100 8.718,2.020 9.951 L 1.993 10.362 2.229 10.242 C 2.694 10.006,3.244 9.950,4.220 10.041 C 6.449 10.247,8.531 11.083,10.280 12.474 C 10.773 12.867,11.625 13.718,12.006 14.200 C 13.295 15.829,14.081 17.631,14.383 19.648 C 14.474 20.255,14.501 21.524,14.429 21.790 L 14.372 22.000 15.176 21.999 C 16.124 21.999,17.545 21.940,18.104 21.878 C 19.842 21.685,20.807 21.125,21.380 19.978 C 21.736 19.267,21.891 18.369,21.964 16.593 C 22.020 15.218,21.990 9.936,21.923 9.400 C 21.725 7.815,21.215 7.107,19.440 5.950 C 18.852 5.567,15.333 3.384,14.695 3.007 C 14.029 2.613,13.290 2.264,12.860 2.140 C 12.403 2.008,11.862 1.979,11.423 2.062 M2.870 11.603 C 2.430 11.835,2.363 12.464,2.742 12.796 C 2.922 12.954,3.062 12.986,3.800 13.036 C 5.294 13.136,6.609 13.586,7.866 14.426 C 9.985 15.843,11.345 18.252,11.465 20.800 C 11.477 21.075,11.505 21.367,11.525 21.448 C 11.599 21.745,11.928 21.998,12.240 21.998 C 12.429 21.998,12.681 21.878,12.808 21.727 C 12.984 21.518,13.014 21.359,12.985 20.802 C 12.794 17.214,10.738 14.084,7.540 12.518 C 6.903 12.206,6.371 12.000,5.800 11.845 C 4.694 11.545,3.212 11.422,2.870 11.603 M2.870 14.603 C 2.787 14.646,2.673 14.752,2.616 14.838 C 2.276 15.353,2.655 15.996,3.300 15.999 C 4.192 16.004,5.239 16.314,6.023 16.806 C 7.501 17.733,8.475 19.441,8.481 21.113 C 8.482 21.534,8.640 21.801,8.969 21.938 C 9.370 22.106,9.836 21.871,9.966 21.435 C 10.026 21.235,9.958 20.358,9.842 19.833 C 9.309 17.428,7.561 15.529,5.212 14.802 C 4.339 14.532,3.189 14.434,2.870 14.603 M2.870 17.600 C 2.683 17.702,2.520 17.942,2.491 18.157 C 2.448 18.483,2.689 18.855,3.007 18.952 C 3.080 18.975,3.267 19.003,3.423 19.016 C 4.543 19.108,5.472 20.085,5.480 21.180 C 5.485 21.773,6.031 22.157,6.542 21.925 C 6.882 21.770,7.027 21.459,6.982 20.980 C 6.853 19.614,6.065 18.459,4.867 17.882 C 4.380 17.648,4.015 17.556,3.480 17.536 C 3.071 17.520,3.003 17.527,2.870 17.600 " fill="#1C274C" stroke="none" fill-rule="evenodd"></path></svg>