<svg width="24" height="24" viewBox="0 0 24 24" fill="none" xmlns="http://www.w3.org/2000/svg"><path d="M11.200 1.784 C 11.123 1.793,10.907 1.820,10.720 1.843 C 7.522 2.234,4.641 4.246,3.137 7.137 C 2.601 8.168,2.288 9.147,2.095 10.400 C 1.997 11.035,1.997 12.432,2.095 13.100 C 2.359 14.914,3.065 16.568,4.166 17.955 C 4.295 18.117,4.400 18.262,4.400 18.275 C 4.400 18.289,3.724 18.975,2.897 19.800 C 2.071 20.625,1.366 21.354,1.332 21.419 C 1.297 21.485,1.269 21.632,1.269 21.746 C 1.269 22.288,1.800 22.631,2.311 22.418 C 2.412 22.376,2.950 21.867,3.970 20.849 C 5.114 19.706,5.494 19.350,5.534 19.380 C 5.563 19.402,5.769 19.558,5.991 19.726 C 8.390 21.544,11.460 22.169,14.420 21.443 C 15.706 21.127,16.936 20.539,18.009 19.726 C 18.231 19.558,18.437 19.402,18.466 19.380 C 18.506 19.350,18.886 19.706,20.030 20.846 C 20.860 21.674,21.598 22.380,21.668 22.416 C 21.847 22.505,22.140 22.497,22.348 22.396 C 22.677 22.237,22.839 21.742,22.668 21.419 C 22.634 21.354,21.929 20.625,21.103 19.800 C 20.276 18.975,19.600 18.289,19.600 18.275 C 19.600 18.262,19.705 18.117,19.834 17.955 C 20.935 16.568,21.641 14.914,21.905 13.100 C 22.003 12.432,22.003 11.035,21.905 10.400 C 21.563 8.180,20.678 6.360,19.186 4.811 C 17.649 3.215,15.684 2.209,13.420 1.857 C 13.038 1.797,11.508 1.747,11.200 1.784 M12.748 5.077 C 13.137 5.157,13.615 5.345,13.993 5.567 C 14.359 5.782,15.026 6.478,15.251 6.880 C 16.014 8.243,15.890 9.869,14.932 11.081 C 14.147 12.073,12.836 12.625,11.610 12.479 C 9.830 12.266,8.479 10.919,8.271 9.151 C 8.184 8.412,8.361 7.574,8.749 6.880 C 8.974 6.478,9.641 5.782,10.007 5.567 C 10.874 5.058,11.830 4.888,12.748 5.077 M11.404 6.583 C 10.829 6.738,10.244 7.224,9.989 7.760 C 9.806 8.145,9.744 8.471,9.770 8.911 C 9.819 9.732,10.302 10.432,11.060 10.782 C 11.697 11.076,12.303 11.076,12.940 10.782 C 13.698 10.432,14.181 9.732,14.230 8.911 C 14.272 8.214,14.063 7.653,13.584 7.179 C 13.274 6.872,12.946 6.677,12.578 6.581 C 12.285 6.505,11.692 6.506,11.404 6.583 M12.302 15.075 C 12.497 15.164,12.662 15.351,12.722 15.552 C 12.751 15.649,12.761 16.093,12.753 16.843 L 12.740 17.986 12.630 18.152 C 12.335 18.598,11.665 18.598,11.370 18.152 L 11.260 17.986 11.247 16.843 C 11.239 16.093,11.249 15.649,11.278 15.552 C 11.368 15.248,11.691 15.002,12.000 15.002 C 12.077 15.002,12.213 15.035,12.302 15.075 " fill="#1C274C" stroke="none" fill-rule="evenodd"></path></svg>