<svg width="24" height="24" viewBox="0 0 24 24" fill="none" xmlns="http://www.w3.org/2000/svg"><path d="M16.815 1.277 C 16.499 1.355,16.276 1.637,16.270 1.970 C 16.261 2.388,16.477 2.636,16.944 2.743 C 18.630 3.130,19.901 4.084,20.637 5.517 C 20.831 5.896,21.017 6.356,20.987 6.386 C 20.980 6.393,20.904 6.363,20.819 6.319 C 20.376 6.093,19.827 6.397,19.770 6.900 C 19.746 7.112,19.837 7.386,19.971 7.509 C 20.192 7.711,21.675 8.676,21.828 8.717 C 22.204 8.818,22.618 8.570,22.715 8.185 C 22.774 7.950,22.718 7.178,22.600 6.598 C 22.084 4.070,20.113 1.992,17.651 1.383 C 17.162 1.262,16.974 1.238,16.815 1.277 M9.280 2.028 C 8.900 2.091,8.383 2.339,7.939 2.670 C 7.386 3.081,6.866 3.569,5.160 5.277 C 3.029 7.411,2.572 7.939,2.243 8.646 C 1.764 9.678,1.961 10.476,3.005 11.740 C 3.360 12.171,10.614 19.470,11.640 20.429 C 12.664 21.387,13.267 21.793,13.881 21.938 C 14.393 22.058,14.815 22.007,15.354 21.757 C 16.067 21.425,16.593 20.969,18.781 18.781 C 20.967 16.595,21.424 16.069,21.757 15.354 C 21.949 14.942,22.018 14.607,21.989 14.224 C 21.932 13.469,21.546 12.833,20.407 11.616 C 19.492 10.638,12.171 3.361,11.760 3.020 C 10.763 2.193,10.033 1.902,9.280 2.028 M9.359 4.944 C 9.651 5.138,9.761 5.529,9.618 5.871 C 9.542 6.053,6.187 9.434,5.933 9.585 C 5.598 9.784,5.148 9.681,4.934 9.358 C 4.805 9.163,4.784 8.813,4.889 8.620 C 4.925 8.554,5.762 7.694,6.750 6.708 C 8.126 5.333,8.581 4.902,8.702 4.858 C 8.906 4.783,9.168 4.818,9.359 4.944 M16.270 14.408 C 16.548 14.511,16.873 14.812,17.022 15.107 C 17.128 15.316,17.140 15.379,17.140 15.720 C 17.140 16.048,17.126 16.130,17.035 16.320 C 16.879 16.646,16.674 16.858,16.369 17.008 C 16.123 17.129,16.070 17.140,15.721 17.140 C 15.386 17.140,15.313 17.127,15.115 17.030 C 14.866 16.907,14.571 16.617,14.445 16.371 C 14.256 15.999,14.261 15.473,14.457 15.086 C 14.605 14.794,14.763 14.631,15.044 14.481 C 15.434 14.273,15.837 14.249,16.270 14.408 M1.785 15.289 C 1.568 15.347,1.344 15.582,1.285 15.815 C 1.188 16.202,1.351 17.404,1.604 18.170 C 1.968 19.268,2.719 20.410,3.560 21.143 C 4.434 21.905,5.524 22.453,6.619 22.682 C 7.053 22.772,7.239 22.751,7.455 22.586 C 7.820 22.308,7.822 21.694,7.460 21.418 C 7.390 21.364,7.208 21.291,7.056 21.257 C 5.366 20.869,4.101 19.919,3.363 18.483 C 3.169 18.104,2.983 17.644,3.013 17.614 C 3.020 17.607,3.096 17.637,3.181 17.681 C 3.624 17.907,4.173 17.603,4.230 17.100 C 4.254 16.888,4.163 16.614,4.029 16.491 C 3.819 16.299,2.326 15.325,2.180 15.285 C 1.997 15.234,1.993 15.234,1.785 15.289 " fill="#1C274C" stroke="none" fill-rule="evenodd"></path></svg>