<svg width="24" height="24" viewBox="0 0 24 24" fill="none" xmlns="http://www.w3.org/2000/svg"><path d="M11.620 2.024 C 10.910 2.129,10.180 2.436,8.922 3.159 C 7.786 3.812,4.762 5.635,4.253 5.975 C 3.220 6.663,2.682 7.196,2.361 7.852 C 2.174 8.235,2.096 8.518,2.035 9.032 C 1.994 9.375,1.999 10.132,2.042 10.175 C 2.052 10.186,2.169 10.157,2.300 10.111 C 2.755 9.954,3.821 9.976,4.917 10.164 C 8.840 10.836,12.140 13.575,13.541 17.320 C 13.981 18.495,14.191 19.570,14.225 20.820 C 14.241 21.407,14.233 21.628,14.189 21.790 L 14.132 22.000 14.556 21.999 C 15.282 21.999,16.680 21.925,17.156 21.862 C 19.109 21.606,20.057 20.821,20.606 19.005 C 20.852 18.192,21.015 17.257,21.496 13.900 C 21.950 10.731,21.974 10.519,21.973 9.620 C 21.973 8.926,21.964 8.826,21.868 8.466 C 21.609 7.499,21.053 6.845,19.748 5.976 C 19.234 5.633,16.210 3.810,15.078 3.159 C 14.044 2.565,13.386 2.260,12.826 2.117 C 12.521 2.039,11.864 1.988,11.620 2.024 M2.595 11.635 C 2.181 11.897,2.135 12.474,2.502 12.796 C 2.682 12.954,2.821 12.986,3.560 13.036 C 4.674 13.112,5.580 13.345,6.540 13.803 C 8.279 14.633,9.720 16.099,10.509 17.840 C 10.959 18.834,11.240 20.082,11.240 21.086 C 11.240 21.519,11.382 21.777,11.700 21.924 C 12.103 22.110,12.578 21.892,12.722 21.454 C 12.775 21.295,12.753 20.614,12.677 20.041 C 12.300 17.195,10.765 14.720,8.397 13.138 C 6.865 12.114,4.959 11.520,3.209 11.520 C 2.801 11.520,2.765 11.527,2.595 11.635 M2.619 14.617 C 2.403 14.747,2.269 14.991,2.269 15.257 C 2.269 15.724,2.596 16.000,3.149 16.000 C 4.078 16.001,5.280 16.412,6.082 17.002 C 7.377 17.957,8.131 19.341,8.238 20.959 C 8.282 21.612,8.370 21.788,8.729 21.938 C 9.078 22.084,9.482 21.930,9.673 21.580 C 9.723 21.488,9.736 21.364,9.731 21.047 C 9.687 18.707,8.390 16.568,6.276 15.354 C 5.402 14.852,4.170 14.520,3.180 14.521 C 2.829 14.521,2.760 14.532,2.619 14.617 M2.619 17.614 C 2.212 17.866,2.144 18.468,2.487 18.788 C 2.625 18.917,2.851 19.000,3.069 19.001 C 3.565 19.002,4.181 19.265,4.562 19.640 C 4.974 20.043,5.176 20.478,5.240 21.104 C 5.294 21.621,5.399 21.800,5.729 21.938 C 5.917 22.017,6.083 22.017,6.271 21.938 C 6.677 21.768,6.795 21.476,6.717 20.833 C 6.560 19.532,5.786 18.440,4.627 17.882 C 4.143 17.649,3.775 17.557,3.240 17.534 C 2.803 17.516,2.772 17.520,2.619 17.614 " fill="#1C274C" stroke="none" fill-rule="evenodd"></path></svg>