<svg width="24" height="24" viewBox="0 0 24 24" fill="none" xmlns="http://www.w3.org/2000/svg"><path d="M13.680 2.805 C 12.863 2.889,11.816 3.108,11.020 3.361 C 9.580 3.820,8.143 4.586,7.355 5.315 C 6.852 5.780,6.542 6.323,6.614 6.609 C 6.765 7.214,8.260 7.613,9.880 7.481 C 11.057 7.386,11.949 7.203,13.100 6.821 C 14.651 6.306,15.889 5.622,16.684 4.840 C 17.150 4.381,17.396 3.906,17.315 3.623 C 17.205 3.238,16.500 2.912,15.539 2.802 C 15.120 2.754,14.167 2.756,13.680 2.805 M18.020 5.609 C 17.843 5.830,17.390 6.246,17.020 6.527 C 15.367 7.781,12.668 8.745,10.200 8.963 C 9.553 9.020,8.412 8.991,7.899 8.904 C 7.094 8.767,6.360 8.481,5.940 8.139 C 5.819 8.040,5.720 7.973,5.720 7.990 C 5.720 8.006,5.639 8.929,5.540 10.040 C 5.441 11.151,5.360 12.134,5.360 12.225 C 5.360 12.378,5.381 12.410,5.645 12.659 C 6.172 13.157,6.786 13.482,7.684 13.741 C 8.859 14.080,10.242 14.239,12.000 14.239 C 14.632 14.239,16.688 13.837,17.785 13.107 C 18.089 12.905,18.113 12.885,18.468 12.517 L 18.717 12.260 18.463 8.848 C 18.324 6.972,18.203 5.430,18.195 5.423 C 18.187 5.415,18.108 5.499,18.020 5.609 M5.160 14.308 C 5.160 14.347,5.130 14.776,5.095 15.260 C 5.001 16.525,5.000 18.194,5.092 18.652 C 5.266 19.513,5.650 20.212,6.286 20.823 C 7.354 21.849,8.090 22.000,12.040 21.999 C 15.463 21.998,16.266 21.885,17.167 21.276 C 17.714 20.906,18.258 20.281,18.568 19.664 C 18.904 18.997,19.027 18.133,18.985 16.740 C 18.960 15.873,18.878 14.270,18.858 14.247 C 18.852 14.239,18.695 14.325,18.510 14.436 C 17.297 15.166,15.584 15.589,13.320 15.719 C 10.035 15.907,7.014 15.408,5.460 14.422 C 5.350 14.353,5.237 14.282,5.210 14.265 C 5.177 14.246,5.160 14.260,5.160 14.308 " fill="#1C274C" stroke="none" fill-rule="evenodd"></path></svg>