<svg width="24" height="24" viewBox="0 0 24 24" fill="none" xmlns="http://www.w3.org/2000/svg"><path d="M10.960 2.026 C 9.359 2.110,7.597 2.344,6.773 2.583 C 5.049 3.083,3.738 4.513,3.384 6.280 C 3.193 7.234,3.000 10.115,3.000 12.020 L 3.000 13.060 3.330 13.344 C 4.231 14.121,4.916 14.509,6.118 14.925 C 6.501 15.058,7.775 15.400,7.886 15.400 C 7.903 15.400,7.981 15.263,8.059 15.095 C 8.675 13.761,9.747 12.985,11.220 12.804 C 11.933 12.717,12.810 12.764,13.431 12.923 C 13.783 13.013,14.304 13.252,14.628 13.472 C 15.133 13.815,15.639 14.440,15.941 15.095 C 16.019 15.263,16.095 15.400,16.111 15.400 C 16.127 15.399,16.370 15.346,16.652 15.281 C 17.809 15.014,19.089 14.491,19.808 13.993 C 19.977 13.876,20.314 13.603,20.558 13.386 L 21.000 12.992 21.000 11.926 C 21.000 9.651,20.775 6.714,20.537 5.862 C 20.113 4.348,18.981 3.152,17.510 2.661 C 16.213 2.229,13.016 1.919,10.960 2.026 M8.368 3.770 C 8.795 4.009,8.862 4.623,8.500 4.960 C 8.336 5.113,8.230 5.345,8.261 5.486 C 8.369 5.976,9.411 6.431,10.820 6.603 C 11.335 6.666,12.665 6.666,13.180 6.603 C 14.541 6.437,15.566 6.006,15.722 5.535 C 15.774 5.375,15.739 5.295,15.498 5.035 C 15.352 4.877,15.240 4.646,15.240 4.500 C 15.240 4.371,15.341 4.138,15.452 4.013 C 15.603 3.841,15.778 3.760,16.000 3.760 C 16.240 3.760,16.419 3.852,16.658 4.096 C 17.162 4.613,17.347 5.252,17.179 5.899 C 16.890 7.007,15.640 7.760,13.580 8.066 C 12.898 8.168,11.102 8.168,10.420 8.066 C 9.233 7.890,8.380 7.595,7.734 7.136 C 6.649 6.367,6.447 5.123,7.244 4.124 C 7.589 3.691,7.999 3.562,8.368 3.770 M11.469 14.285 C 10.830 14.346,10.285 14.589,9.912 14.978 C 9.741 15.157,9.453 15.587,9.484 15.617 C 9.536 15.666,10.996 15.733,12.000 15.733 C 13.004 15.733,14.464 15.666,14.516 15.617 C 14.547 15.587,14.259 15.157,14.088 14.978 C 13.697 14.570,13.182 14.350,12.457 14.282 C 11.977 14.236,11.973 14.236,11.469 14.285 M20.580 15.282 C 20.254 15.511,19.440 15.938,18.980 16.122 C 16.925 16.944,14.674 17.278,11.525 17.228 C 10.133 17.206,9.784 17.184,8.760 17.056 C 6.688 16.798,4.625 16.117,3.380 15.281 C 3.084 15.083,3.105 15.059,3.135 15.564 C 3.191 16.483,3.326 17.670,3.417 18.042 C 3.847 19.792,5.174 21.118,6.897 21.520 C 7.247 21.602,9.185 21.847,10.120 21.927 C 10.870 21.992,13.129 21.991,13.900 21.925 C 14.716 21.855,16.681 21.611,16.979 21.542 C 18.796 21.120,20.254 19.624,20.616 17.812 C 20.709 17.348,20.925 15.074,20.876 15.083 C 20.867 15.085,20.734 15.174,20.580 15.282 " fill="#1C274C" stroke="none" fill-rule="evenodd"></path></svg>