<svg width="24" height="24" viewBox="0 0 24 24" fill="none" xmlns="http://www.w3.org/2000/svg"><path d="M16.220 2.048 C 16.075 2.099,15.893 2.261,15.816 2.408 C 15.732 2.570,15.745 2.902,15.842 3.075 C 15.957 3.280,16.134 3.387,16.474 3.459 C 18.181 3.818,19.560 4.995,20.217 6.654 C 20.277 6.804,20.318 6.935,20.309 6.944 C 20.300 6.953,20.207 6.923,20.102 6.877 C 19.874 6.776,19.637 6.796,19.434 6.933 C 19.086 7.168,19.015 7.696,19.293 7.994 C 19.454 8.167,20.941 9.152,21.111 9.198 C 21.388 9.272,21.707 9.145,21.881 8.890 C 21.973 8.755,21.980 8.713,21.976 8.283 C 21.960 6.468,21.048 4.595,19.600 3.400 C 18.838 2.772,17.853 2.292,16.884 2.078 C 16.498 1.993,16.393 1.988,16.220 2.048 M5.480 2.759 C 3.106 2.887,2.331 3.524,2.073 5.560 C 2.031 5.894,2.020 7.297,2.020 12.400 C 2.020 18.311,2.026 18.859,2.090 19.309 C 2.332 20.991,3.009 21.668,4.689 21.909 C 5.123 21.972,5.530 21.980,8.220 21.980 C 11.406 21.980,11.710 21.967,12.438 21.797 C 12.960 21.675,13.330 21.478,13.664 21.144 C 14.096 20.713,14.289 20.270,14.429 19.390 C 14.495 18.971,14.500 18.483,14.500 12.360 C 14.500 6.237,14.495 5.749,14.429 5.330 C 14.300 4.516,14.112 4.053,13.752 3.659 C 13.502 3.385,13.215 3.192,12.857 3.057 C 12.139 2.787,11.727 2.756,8.680 2.741 C 7.239 2.734,5.799 2.742,5.480 2.759 M11.020 4.992 C 11.603 5.327,11.463 6.174,10.801 6.316 C 10.520 6.376,6.002 6.377,5.721 6.316 C 5.496 6.268,5.310 6.133,5.215 5.951 C 5.134 5.794,5.133 5.448,5.213 5.293 C 5.294 5.137,5.494 4.967,5.633 4.936 C 5.692 4.924,5.758 4.907,5.780 4.899 C 5.802 4.891,6.954 4.888,8.340 4.892 L 10.860 4.900 11.020 4.992 M16.260 10.504 C 15.903 10.597,15.728 10.730,15.615 10.994 C 15.579 11.080,15.539 11.354,15.518 11.660 C 15.473 12.331,15.473 20.095,15.518 20.789 C 15.559 21.432,15.635 21.628,15.910 21.802 C 16.157 21.959,16.413 21.982,17.257 21.924 C 19.066 21.799,20.105 21.522,20.518 21.053 C 20.877 20.644,21.099 20.011,21.200 19.100 C 21.268 18.494,21.298 15.172,21.245 14.140 C 21.181 12.894,21.088 12.382,20.830 11.852 C 20.446 11.065,19.819 10.783,18.001 10.582 C 17.415 10.517,16.388 10.471,16.260 10.504 M18.602 13.600 C 18.680 13.621,18.800 13.698,18.870 13.770 C 19.124 14.033,19.120 13.991,19.119 16.229 C 19.118 18.113,19.113 18.272,19.045 18.422 C 18.816 18.925,18.179 19.020,17.828 18.602 C 17.649 18.389,17.635 18.195,17.648 16.074 C 17.661 13.931,17.655 13.988,17.886 13.772 C 18.086 13.586,18.335 13.526,18.602 13.600 M8.911 16.374 C 9.203 16.524,9.425 16.759,9.572 17.073 C 9.678 17.301,9.696 17.383,9.696 17.659 C 9.696 17.924,9.676 18.022,9.586 18.218 C 9.526 18.349,9.431 18.517,9.375 18.590 C 9.124 18.919,8.551 19.153,8.121 19.103 C 7.643 19.048,7.184 18.721,6.968 18.280 C 6.882 18.105,6.857 17.991,6.847 17.720 C 6.828 17.245,6.928 16.985,7.256 16.656 C 7.594 16.319,7.814 16.235,8.320 16.252 C 8.640 16.263,8.733 16.282,8.911 16.374 " fill="#1C274C" stroke="none" fill-rule="evenodd"></path></svg>