<svg width="24" height="24" viewBox="0 0 24 24" fill="none" xmlns="http://www.w3.org/2000/svg"><path d="M11.300 2.024 C 10.268 2.130,9.297 2.339,8.537 2.620 C 6.159 3.501,4.146 5.318,3.041 7.580 C 2.706 8.266,2.527 8.743,2.342 9.443 C 2.101 10.351,2.026 10.964,2.026 12.000 C 2.026 12.726,2.043 13.008,2.113 13.460 C 2.216 14.124,2.425 14.940,2.636 15.498 L 2.788 15.900 2.639 16.080 C 2.281 16.514,2.011 17.038,1.869 17.575 C 1.743 18.054,1.745 18.964,1.873 19.437 C 2.231 20.758,3.239 21.772,4.541 22.119 C 4.943 22.227,5.640 22.266,6.037 22.204 C 6.692 22.101,7.419 21.778,7.910 21.370 L 8.100 21.212 8.502 21.364 C 9.060 21.575,9.876 21.784,10.540 21.887 C 11.338 22.011,12.662 22.011,13.460 21.887 C 14.124 21.784,14.940 21.575,15.498 21.364 L 15.900 21.212 16.090 21.370 C 16.581 21.778,17.308 22.101,17.963 22.204 C 18.360 22.266,19.057 22.227,19.459 22.119 C 20.753 21.774,21.774 20.753,22.119 19.459 C 22.227 19.057,22.266 18.360,22.204 17.963 C 22.101 17.308,21.778 16.581,21.370 16.090 L 21.212 15.900 21.364 15.498 C 21.575 14.940,21.784 14.124,21.887 13.460 C 22.011 12.662,22.011 11.338,21.887 10.540 C 21.657 9.058,21.129 7.684,20.333 6.492 C 19.530 5.292,18.683 4.446,17.483 3.649 C 15.928 2.615,14.126 2.060,12.200 2.022 C 11.793 2.014,11.388 2.015,11.300 2.024 M12.507 5.282 C 12.939 5.341,13.538 5.552,13.930 5.785 C 14.374 6.047,14.953 6.626,15.215 7.070 C 15.782 8.027,15.902 9.166,15.545 10.209 C 15.349 10.780,15.090 11.190,14.640 11.640 C 14.190 12.090,13.780 12.349,13.209 12.545 C 12.166 12.902,11.027 12.782,10.070 12.215 C 9.626 11.953,9.047 11.374,8.785 10.930 C 8.218 9.973,8.098 8.834,8.455 7.791 C 8.651 7.220,8.910 6.810,9.360 6.360 C 10.215 5.505,11.331 5.123,12.507 5.282 M11.540 6.798 C 10.501 7.023,9.760 7.940,9.760 9.000 C 9.760 9.615,9.979 10.139,10.420 10.580 C 11.309 11.469,12.691 11.469,13.580 10.580 C 14.744 9.416,14.319 7.482,12.771 6.894 C 12.473 6.781,11.844 6.732,11.540 6.798 M12.271 15.302 C 12.468 15.384,12.595 15.506,12.684 15.700 C 12.751 15.843,12.758 15.977,12.759 16.991 C 12.760 17.923,12.749 18.149,12.698 18.271 C 12.431 18.911,11.569 18.911,11.302 18.271 C 11.211 18.052,11.211 15.948,11.302 15.729 C 11.384 15.532,11.506 15.405,11.700 15.316 C 11.897 15.225,12.076 15.221,12.271 15.302 M3.832 17.755 C 4.530 18.744,5.434 19.633,6.390 20.271 C 6.505 20.348,6.600 20.423,6.600 20.438 C 6.600 20.453,6.532 20.498,6.450 20.537 C 5.353 21.064,3.998 20.576,3.479 19.467 C 3.270 19.022,3.207 18.634,3.271 18.194 C 3.313 17.904,3.494 17.400,3.556 17.400 C 3.570 17.400,3.694 17.560,3.832 17.755 M20.572 17.630 C 20.935 18.441,20.738 19.430,20.084 20.084 C 19.567 20.601,18.830 20.843,18.136 20.723 C 17.865 20.676,17.400 20.497,17.400 20.440 C 17.400 20.424,17.495 20.348,17.610 20.271 C 18.566 19.633,19.470 18.744,20.168 17.755 C 20.306 17.560,20.430 17.400,20.444 17.400 C 20.458 17.400,20.515 17.503,20.572 17.630 " fill="#1C274C" stroke="none" fill-rule="evenodd"></path></svg>