<svg width="24" height="24" viewBox="0 0 24 24" fill="none" xmlns="http://www.w3.org/2000/svg"><path d="M6.538 1.055 C 5.174 1.279,3.977 2.174,3.307 3.470 C 3.107 3.859,2.917 4.395,2.838 4.794 C 2.811 4.929,2.769 5.040,2.745 5.040 C 2.491 5.041,2.189 5.248,2.075 5.498 C 1.990 5.686,1.982 5.831,2.046 6.044 C 2.103 6.235,2.973 7.199,3.174 7.295 C 3.350 7.378,3.649 7.378,3.825 7.295 C 3.999 7.212,4.830 6.311,4.925 6.100 C 4.966 6.012,4.998 5.877,4.998 5.800 C 4.998 5.501,4.734 5.145,4.474 5.093 C 4.403 5.079,4.360 5.045,4.360 5.002 C 4.360 4.863,4.493 4.490,4.653 4.182 C 5.377 2.782,6.864 2.178,8.227 2.729 C 8.578 2.870,8.886 3.092,9.273 3.482 C 9.652 3.863,9.751 3.909,10.105 3.869 C 10.576 3.816,10.880 3.228,10.659 2.797 C 10.562 2.608,9.913 1.969,9.612 1.767 C 9.126 1.440,8.602 1.213,8.060 1.095 C 7.671 1.010,6.930 0.991,6.538 1.055 M14.500 3.895 C 14.260 4.009,14.113 4.158,14.003 4.400 C 13.929 4.565,13.922 4.662,13.920 5.540 C 13.916 7.315,13.843 7.998,13.572 8.779 C 12.914 10.673,11.377 12.122,9.460 12.653 C 8.847 12.823,8.559 12.850,7.020 12.875 C 5.576 12.899,5.535 12.902,5.351 12.993 C 5.133 13.100,4.980 13.266,4.870 13.515 C 4.794 13.684,4.793 13.781,4.812 16.575 C 4.833 19.547,4.853 19.960,5.020 20.829 C 5.136 21.438,5.392 22.082,5.658 22.440 C 6.004 22.906,6.537 23.308,7.089 23.521 C 8.063 23.897,9.302 23.999,12.900 23.999 C 15.938 23.999,17.153 23.929,18.100 23.701 C 19.544 23.354,20.354 22.543,20.701 21.100 C 20.972 19.977,21.012 18.862,20.989 13.140 C 20.971 8.502,20.959 8.116,20.801 7.160 C 20.514 5.420,19.700 4.479,18.140 4.085 C 17.489 3.921,16.228 3.800,15.181 3.800 C 14.759 3.801,14.675 3.812,14.500 3.895 M10.820 4.315 C 10.626 4.403,9.826 5.263,9.716 5.500 C 9.537 5.886,9.720 6.327,10.131 6.499 C 10.300 6.570,10.304 6.585,10.216 6.882 C 9.987 7.652,9.344 8.447,8.681 8.779 C 8.228 9.005,8.009 9.055,7.460 9.058 C 7.019 9.060,6.898 9.046,6.663 8.967 C 6.166 8.801,5.894 8.634,5.454 8.226 C 5.086 7.886,4.843 7.811,4.529 7.942 C 4.332 8.024,4.205 8.146,4.116 8.340 C 3.951 8.696,4.051 8.970,4.504 9.401 C 5.063 9.932,5.668 10.275,6.395 10.471 C 6.735 10.563,6.858 10.575,7.440 10.577 C 8.040 10.578,8.136 10.569,8.495 10.469 C 9.242 10.261,9.810 9.940,10.373 9.404 C 11.091 8.721,11.618 7.765,11.802 6.810 C 11.841 6.608,11.865 6.560,11.926 6.560 C 12.039 6.560,12.285 6.449,12.395 6.348 C 12.524 6.230,12.638 5.971,12.638 5.800 C 12.638 5.570,12.523 5.385,12.061 4.874 C 11.593 4.356,11.426 4.242,11.140 4.242 C 11.052 4.242,10.908 4.275,10.820 4.315 M16.220 20.276 C 16.406 20.362,16.577 20.533,16.637 20.693 C 16.738 20.958,16.651 21.349,16.453 21.528 C 16.237 21.723,16.300 21.720,12.880 21.720 C 9.780 21.720,9.672 21.717,9.523 21.642 C 9.324 21.540,9.173 21.358,9.118 21.151 C 9.017 20.778,9.256 20.352,9.627 20.241 C 9.689 20.222,11.162 20.206,12.900 20.204 C 15.895 20.202,16.068 20.206,16.220 20.276 " fill="#1C274C" stroke="none" fill-rule="evenodd"></path></svg>