<svg width="24" height="24" viewBox="0 0 24 24" fill="none" xmlns="http://www.w3.org/2000/svg"><path d="M9.132 2.041 C 7.449 2.124,6.431 2.389,5.700 2.934 C 4.787 3.615,4.320 4.552,4.122 6.100 C 4.026 6.847,4.001 8.052,4.001 12.000 C 4.001 17.347,4.040 18.066,4.389 19.180 C 4.599 19.851,4.907 20.350,5.393 20.809 C 6.075 21.451,6.989 21.782,8.480 21.927 C 9.243 22.002,14.757 22.002,15.520 21.927 C 17.026 21.781,17.931 21.449,18.625 20.790 C 19.386 20.068,19.738 19.187,19.924 17.540 C 19.989 16.963,20.021 8.331,19.962 7.222 C 19.849 5.089,19.506 4.047,18.654 3.236 C 17.930 2.548,17.074 2.232,15.520 2.080 C 14.948 2.024,10.085 1.994,9.132 2.041 M15.088 17.912 C 15.300 18.044,15.406 18.236,15.408 18.492 C 15.411 18.806,15.252 19.057,14.987 19.157 C 14.911 19.186,13.939 19.200,12.000 19.200 C 10.061 19.200,9.089 19.186,9.013 19.157 C 8.750 19.058,8.589 18.805,8.589 18.495 C 8.589 18.158,8.795 17.902,9.120 17.836 C 9.197 17.820,10.538 17.810,12.100 17.814 L 14.940 17.820 15.088 17.912 " fill="#1C274C" stroke="none" fill-rule="evenodd"></path></svg>