<svg width="24" height="24" viewBox="0 0 24 24" fill="none" xmlns="http://www.w3.org/2000/svg"><path d="M11.120 2.039 C 9.316 2.220,7.707 2.807,6.280 3.806 C 2.738 6.286,1.178 10.759,2.422 14.865 C 2.918 16.499,3.728 17.850,4.939 19.061 C 5.928 20.050,7.038 20.788,8.272 21.278 C 11.634 22.610,15.313 22.080,18.200 19.845 C 18.637 19.507,19.507 18.637,19.845 18.200 C 21.255 16.379,22.000 14.234,22.000 12.000 C 22.000 7.432,18.842 3.387,14.430 2.303 C 13.446 2.062,12.028 1.948,11.120 2.039 M9.306 9.083 C 10.066 9.451,10.235 10.971,9.596 11.698 C 9.252 12.090,8.748 12.090,8.404 11.698 C 7.764 10.970,7.930 9.460,8.691 9.084 C 8.905 8.978,9.088 8.978,9.306 9.083 M15.306 9.083 C 16.066 9.451,16.235 10.971,15.596 11.698 C 15.252 12.090,14.748 12.090,14.404 11.698 C 13.764 10.970,13.930 9.460,14.691 9.084 C 14.905 8.978,15.088 8.978,15.306 9.083 M9.525 15.460 C 10.333 15.992,11.121 16.240,12.000 16.240 C 12.885 16.240,13.677 15.989,14.486 15.451 C 14.732 15.287,14.786 15.267,14.998 15.264 C 15.199 15.261,15.260 15.279,15.404 15.380 C 15.741 15.619,15.841 16.074,15.626 16.398 C 15.421 16.709,14.462 17.253,13.720 17.480 C 13.076 17.678,12.682 17.736,12.000 17.736 C 11.318 17.736,10.924 17.678,10.280 17.480 C 9.586 17.267,8.601 16.722,8.399 16.438 C 8.186 16.139,8.221 15.739,8.485 15.475 C 8.774 15.186,9.101 15.181,9.525 15.460 " fill="#1C274C" stroke="none" fill-rule="evenodd"></path></svg>