<svg width="24" height="24" viewBox="0 0 24 24" fill="none" xmlns="http://www.w3.org/2000/svg"><path d="M11.811 1.278 C 11.639 1.320,11.417 1.493,11.330 1.652 C 11.269 1.764,11.258 1.928,11.248 2.977 L 11.236 4.173 10.328 3.272 C 9.828 2.776,9.375 2.347,9.320 2.318 C 9.265 2.290,9.118 2.267,8.992 2.267 C 8.492 2.267,8.151 2.715,8.280 3.205 C 8.321 3.360,8.492 3.546,9.783 4.841 L 11.240 6.301 11.240 8.491 C 11.240 9.695,11.233 10.680,11.224 10.680 C 11.210 10.680,7.472 8.526,7.455 8.508 C 7.451 8.503,7.211 7.619,6.922 6.542 C 6.351 4.414,6.338 4.379,6.025 4.237 C 5.559 4.025,5.027 4.316,4.971 4.812 C 4.956 4.946,5.026 5.264,5.276 6.199 C 5.455 6.866,5.597 7.417,5.591 7.422 C 5.585 7.428,5.472 7.369,5.340 7.292 C 4.341 6.703,3.578 6.285,3.460 6.263 C 3.265 6.226,3.025 6.301,2.854 6.451 C 2.514 6.749,2.510 7.236,2.845 7.544 C 2.919 7.612,3.399 7.907,3.911 8.200 C 4.422 8.493,4.835 8.738,4.828 8.745 C 4.822 8.752,4.304 8.893,3.678 9.060 C 3.052 9.226,2.471 9.392,2.387 9.428 C 1.680 9.736,1.924 10.840,2.700 10.838 C 2.788 10.838,3.723 10.605,4.777 10.322 L 6.695 9.806 8.586 10.893 C 9.626 11.491,10.477 11.989,10.477 12.000 C 10.478 12.011,9.627 12.510,8.588 13.108 L 6.698 14.197 4.765 13.678 C 3.702 13.393,2.768 13.160,2.689 13.160 C 2.081 13.160,1.743 13.921,2.141 14.394 C 2.277 14.556,2.416 14.605,3.680 14.943 C 4.307 15.110,4.825 15.252,4.831 15.258 C 4.837 15.264,4.423 15.510,3.911 15.804 C 3.400 16.099,2.914 16.400,2.833 16.473 C 2.654 16.633,2.584 16.823,2.609 17.083 C 2.634 17.342,2.773 17.538,3.018 17.661 C 3.379 17.842,3.410 17.831,4.730 17.067 C 5.208 16.790,5.600 16.570,5.600 16.578 C 5.600 16.586,5.455 17.130,5.278 17.786 C 4.918 19.117,4.906 19.234,5.097 19.522 C 5.366 19.928,5.996 19.942,6.296 19.548 C 6.374 19.446,6.519 18.964,6.922 17.458 C 7.211 16.381,7.450 15.497,7.453 15.494 C 7.457 15.490,8.306 15.000,9.340 14.404 L 11.220 13.319 11.230 15.509 L 11.241 17.698 9.784 19.159 C 8.492 20.454,8.321 20.640,8.280 20.795 C 8.130 21.366,8.635 21.870,9.205 21.719 C 9.357 21.679,9.504 21.549,10.310 20.748 L 11.240 19.822 11.240 20.941 C 11.240 21.634,11.257 22.121,11.285 22.219 C 11.344 22.432,11.578 22.660,11.798 22.719 C 12.198 22.827,12.610 22.599,12.718 22.209 C 12.742 22.123,12.760 21.587,12.760 20.941 L 12.760 19.822 13.690 20.748 C 14.496 21.549,14.643 21.679,14.795 21.719 C 15.365 21.870,15.870 21.366,15.720 20.795 C 15.679 20.640,15.508 20.454,14.216 19.159 L 12.759 17.698 12.770 15.508 L 12.780 13.319 14.660 14.404 C 15.694 15.000,16.543 15.491,16.546 15.494 C 16.550 15.497,16.789 16.381,17.078 17.458 C 17.481 18.959,17.627 19.448,17.704 19.549 C 18.003 19.941,18.635 19.928,18.902 19.524 C 19.092 19.236,19.082 19.139,18.724 17.804 C 18.546 17.139,18.400 16.588,18.400 16.580 C 18.400 16.572,18.852 16.824,19.404 17.141 C 19.956 17.458,20.471 17.730,20.548 17.744 C 20.737 17.780,20.971 17.703,21.147 17.549 C 21.486 17.251,21.490 16.752,21.155 16.459 C 21.080 16.394,20.600 16.099,20.088 15.804 C 19.576 15.510,19.163 15.264,19.169 15.258 C 19.175 15.252,19.693 15.110,20.320 14.942 C 21.586 14.604,21.723 14.555,21.859 14.394 C 22.257 13.921,21.919 13.160,21.311 13.160 C 21.232 13.160,20.298 13.393,19.235 13.678 L 17.302 14.197 15.412 13.108 C 14.373 12.510,13.522 12.011,13.523 12.000 C 13.523 11.989,14.374 11.491,15.414 10.893 L 17.305 9.806 19.223 10.322 C 20.277 10.605,21.212 10.838,21.300 10.838 C 22.076 10.840,22.320 9.736,21.613 9.428 C 21.529 9.392,20.948 9.226,20.322 9.060 C 19.696 8.893,19.178 8.752,19.172 8.745 C 19.165 8.738,19.578 8.493,20.089 8.200 C 20.601 7.907,21.081 7.612,21.155 7.544 C 21.490 7.236,21.486 6.749,21.146 6.451 C 20.975 6.301,20.735 6.226,20.540 6.263 C 20.422 6.285,19.659 6.703,18.660 7.292 C 18.528 7.369,18.415 7.428,18.409 7.422 C 18.403 7.417,18.545 6.866,18.724 6.199 C 18.974 5.264,19.044 4.946,19.029 4.812 C 18.973 4.316,18.441 4.025,17.975 4.237 C 17.661 4.379,17.648 4.414,17.077 6.542 C 16.788 7.619,16.550 8.503,16.546 8.507 C 16.530 8.524,12.790 10.680,12.776 10.680 C 12.767 10.680,12.760 9.695,12.760 8.491 L 12.760 6.301 14.217 4.841 C 15.508 3.546,15.679 3.360,15.720 3.205 C 15.849 2.715,15.508 2.267,15.008 2.267 C 14.882 2.267,14.735 2.290,14.680 2.318 C 14.625 2.347,14.172 2.776,13.672 3.272 L 12.764 4.173 12.752 2.977 C 12.741 1.855,12.735 1.771,12.658 1.641 C 12.494 1.361,12.122 1.202,11.811 1.278 " fill="#1C274C" stroke="none" fill-rule="evenodd"></path></svg>