<svg width="24" height="24" viewBox="0 0 24 24" fill="none" xmlns="http://www.w3.org/2000/svg"><path d="M8.456 2.042 C 5.720 2.141,4.373 2.534,3.435 3.507 C 2.688 4.282,2.317 5.263,2.142 6.927 C 2.046 7.840,2.001 9.469,2.001 12.000 C 2.001 16.100,2.103 17.613,2.459 18.779 C 2.891 20.195,3.805 21.109,5.221 21.541 C 6.387 21.897,7.900 21.999,12.000 21.999 C 16.116 21.999,17.590 21.899,18.787 21.538 C 20.186 21.116,21.116 20.186,21.538 18.787 C 21.899 17.590,21.999 16.116,21.999 11.980 C 21.999 7.887,21.899 6.409,21.538 5.213 C 21.115 3.811,20.192 2.890,18.779 2.459 C 17.994 2.219,17.052 2.102,15.417 2.041 C 14.217 1.996,9.702 1.997,8.456 2.042 M12.672 5.283 C 13.531 5.377,14.311 5.609,15.079 6.001 C 15.749 6.343,16.182 6.662,16.760 7.240 C 17.338 7.818,17.657 8.251,17.999 8.921 C 18.582 10.065,18.838 11.331,18.727 12.530 C 18.700 12.822,18.651 13.195,18.617 13.360 C 18.449 14.172,17.995 15.216,17.508 15.908 C 17.190 16.360,16.360 17.190,15.908 17.508 C 15.216 17.995,14.172 18.449,13.360 18.617 C 13.195 18.651,12.822 18.700,12.530 18.727 C 11.952 18.780,11.228 18.738,10.640 18.617 C 9.828 18.449,8.784 17.995,8.092 17.508 C 7.640 17.190,6.810 16.360,6.492 15.908 C 6.005 15.216,5.551 14.172,5.383 13.360 C 5.349 13.195,5.300 12.822,5.273 12.530 C 5.220 11.952,5.262 11.228,5.383 10.640 C 5.551 9.828,6.005 8.784,6.492 8.092 C 6.810 7.640,7.640 6.810,8.092 6.492 C 9.412 5.563,11.119 5.113,12.672 5.283 M10.860 6.880 C 9.700 7.143,8.639 7.802,7.919 8.706 C 7.416 9.336,7.108 9.961,6.893 10.785 C 6.788 11.191,6.780 11.273,6.780 12.000 C 6.780 12.726,6.788 12.810,6.892 13.211 C 7.411 15.198,8.812 16.605,10.764 17.097 C 10.988 17.154,11.185 17.200,11.201 17.200 C 11.217 17.200,11.238 16.997,11.248 16.750 C 11.267 16.265,11.308 16.141,11.506 15.953 C 11.647 15.819,11.799 15.760,12.000 15.760 C 12.201 15.760,12.353 15.819,12.494 15.953 C 12.692 16.141,12.733 16.265,12.752 16.750 C 12.762 16.997,12.783 17.200,12.799 17.200 C 12.910 17.200,13.705 16.970,13.987 16.856 C 15.266 16.341,16.341 15.265,16.857 13.985 C 16.933 13.796,17.046 13.447,17.108 13.211 C 17.212 12.810,17.220 12.726,17.220 12.000 C 17.220 11.274,17.212 11.190,17.108 10.789 C 16.901 9.998,16.630 9.431,16.162 8.808 C 15.449 7.863,14.259 7.104,13.140 6.882 C 13.008 6.856,12.871 6.826,12.835 6.816 C 12.779 6.800,12.768 6.857,12.752 7.249 C 12.733 7.735,12.693 7.859,12.494 8.047 C 12.353 8.181,12.201 8.240,12.000 8.240 C 11.799 8.240,11.647 8.181,11.506 8.047 C 11.308 7.859,11.267 7.735,11.248 7.250 C 11.238 7.003,11.219 6.802,11.205 6.803 C 11.191 6.805,11.036 6.839,10.860 6.880 M10.340 11.066 C 10.709 11.192,11.000 11.604,11.000 12.000 C 11.000 12.527,10.527 13.000,10.000 13.000 C 9.758 13.000,9.479 12.881,9.299 12.701 C 8.907 12.309,8.908 11.690,9.300 11.298 C 9.577 11.020,9.957 10.936,10.340 11.066 M14.340 11.066 C 14.709 11.192,15.000 11.604,15.000 12.000 C 15.000 12.527,14.527 13.000,14.000 13.000 C 13.758 13.000,13.479 12.881,13.299 12.701 C 12.907 12.309,12.908 11.690,13.300 11.298 C 13.577 11.020,13.957 10.936,14.340 11.066 " fill="#1C274C" stroke="none" fill-rule="evenodd"></path></svg>