<svg width="24" height="24" viewBox="0 0 24 24" fill="none" xmlns="http://www.w3.org/2000/svg"><path d="M7.500 5.040 C 6.936 5.101,6.244 5.364,5.731 5.712 C 4.756 6.375,4.123 7.468,4.018 8.673 L 3.990 9.000 4.110 9.000 C 4.428 9.000,4.914 9.131,5.300 9.320 C 5.958 9.642,6.391 10.081,6.704 10.740 C 6.931 11.219,7.000 11.604,7.000 12.384 L 7.000 13.000 12.000 13.000 L 17.000 13.000 17.000 12.390 C 17.001 11.751,17.040 11.402,17.146 11.088 C 17.418 10.285,17.975 9.659,18.740 9.296 C 19.084 9.133,19.602 9.000,19.890 9.000 L 20.010 9.000 19.982 8.673 C 19.877 7.468,19.244 6.375,18.269 5.712 C 17.936 5.486,17.363 5.225,16.960 5.115 L 16.620 5.023 12.200 5.016 C 9.769 5.012,7.654 5.023,7.500 5.040 M3.620 10.039 C 2.907 10.197,2.366 10.668,2.108 11.356 C 2.029 11.566,2.023 11.673,2.009 13.078 C 2.000 14.040,2.011 14.699,2.040 14.918 C 2.133 15.632,2.458 16.317,2.950 16.842 L 3.240 17.151 3.240 18.054 C 3.240 18.562,3.259 19.046,3.284 19.162 C 3.405 19.725,4.111 19.929,4.520 19.520 C 4.714 19.326,4.760 19.120,4.760 18.438 L 4.760 17.919 4.990 17.950 C 5.290 17.989,18.710 17.989,19.010 17.950 L 19.240 17.919 19.240 18.438 C 19.240 19.120,19.286 19.326,19.480 19.520 C 19.889 19.929,20.595 19.725,20.716 19.162 C 20.741 19.046,20.760 18.562,20.760 18.054 L 20.760 17.151 21.050 16.842 C 21.542 16.317,21.867 15.632,21.960 14.918 C 21.989 14.699,22.000 14.040,21.991 13.078 C 21.977 11.673,21.971 11.566,21.892 11.356 C 21.672 10.769,21.226 10.322,20.650 10.112 C 20.324 9.993,19.676 9.993,19.350 10.112 C 18.772 10.323,18.322 10.774,18.110 11.356 C 18.040 11.549,18.025 11.712,18.004 12.527 L 17.980 13.473 17.860 13.644 C 17.794 13.737,17.661 13.856,17.564 13.907 L 17.387 14.000 12.000 14.000 L 6.613 14.000 6.436 13.907 C 6.339 13.856,6.206 13.737,6.140 13.644 L 6.020 13.473 5.996 12.527 C 5.975 11.704,5.961 11.550,5.888 11.350 C 5.677 10.770,5.216 10.313,4.644 10.114 C 4.389 10.025,3.858 9.986,3.620 10.039 " fill="#1C274C" stroke="none" fill-rule="evenodd"></path></svg>