<svg width="24" height="24" viewBox="0 0 24 24" fill="none" xmlns="http://www.w3.org/2000/svg"><path d="M8.320 3.802 C 5.935 3.915,4.773 4.303,4.012 5.241 C 3.628 5.714,3.436 6.160,3.338 6.800 C 3.182 7.825,3.356 9.086,4.041 11.910 L 4.247 12.760 12.000 12.760 L 19.753 12.760 19.958 11.910 C 20.704 8.832,20.856 7.541,20.599 6.480 C 20.385 5.594,19.811 4.863,19.003 4.445 C 18.263 4.062,17.316 3.884,15.580 3.800 C 14.669 3.756,9.257 3.757,8.320 3.802 M3.484 13.823 C 2.968 13.962,2.435 14.405,2.207 14.885 C 1.759 15.825,2.115 16.973,3.011 17.478 L 3.235 17.605 3.247 18.772 L 3.260 19.940 3.366 20.120 C 3.648 20.600,4.350 20.604,4.631 20.126 L 4.740 19.940 4.753 18.850 L 4.766 17.760 12.000 17.760 L 19.234 17.760 19.247 18.850 C 19.260 19.927,19.261 19.942,19.360 20.114 C 19.637 20.598,20.349 20.605,20.631 20.126 L 20.740 19.940 20.753 18.772 L 20.765 17.605 20.989 17.478 C 21.493 17.194,21.880 16.630,21.970 16.047 C 22.028 15.669,21.964 15.243,21.793 14.885 C 21.644 14.572,21.245 14.155,20.937 13.991 C 20.476 13.745,21.050 13.760,11.982 13.763 C 4.876 13.765,3.669 13.774,3.484 13.823 " fill="#1C274C" stroke="none" fill-rule="evenodd"></path></svg>