<svg width="24" height="24" viewBox="0 0 24 24" fill="none" xmlns="http://www.w3.org/2000/svg"><path d="M9.980 3.277 C 9.914 3.293,9.812 3.332,9.754 3.363 C 9.569 3.462,5.410 7.519,5.338 7.671 C 5.252 7.851,5.252 8.149,5.338 8.329 C 5.420 8.504,9.584 12.548,9.793 12.656 C 10.022 12.775,10.327 12.758,10.531 12.615 C 10.622 12.551,10.733 12.436,10.778 12.359 C 10.857 12.226,10.860 12.150,10.872 10.490 L 10.883 8.760 14.420 8.760 C 16.851 8.760,18.020 8.746,18.162 8.716 C 18.920 8.553,18.920 7.447,18.162 7.284 C 18.020 7.254,16.851 7.240,14.420 7.240 L 10.883 7.240 10.872 5.510 C 10.860 3.850,10.857 3.774,10.778 3.641 C 10.619 3.370,10.264 3.209,9.980 3.277 M13.780 11.258 C 13.758 11.266,13.692 11.284,13.633 11.296 C 13.478 11.331,13.280 11.512,13.195 11.698 C 13.128 11.847,13.122 11.997,13.121 13.549 L 13.120 15.238 9.447 15.249 L 5.774 15.260 5.605 15.372 C 5.311 15.566,5.192 15.873,5.281 16.204 C 5.340 16.422,5.569 16.657,5.781 16.715 C 5.892 16.746,7.034 16.760,9.530 16.760 L 13.120 16.760 13.121 18.450 C 13.122 20.003,13.128 20.153,13.195 20.302 C 13.378 20.704,13.901 20.876,14.249 20.647 C 14.472 20.501,18.635 16.430,18.686 16.307 C 18.755 16.144,18.755 15.856,18.686 15.693 C 18.623 15.544,14.420 11.455,14.225 11.353 C 14.093 11.285,13.850 11.233,13.780 11.258 " fill="#1C274C" stroke="none" fill-rule="evenodd"></path></svg>