<svg width="24" height="24" viewBox="0 0 24 24" fill="none" xmlns="http://www.w3.org/2000/svg"><path d="M7.811 5.278 C 7.639 5.320,7.417 5.493,7.330 5.652 C 7.265 5.771,7.259 6.043,7.249 9.450 L 7.238 13.120 5.589 13.120 C 4.509 13.120,3.885 13.136,3.781 13.165 C 3.342 13.287,3.109 13.877,3.353 14.249 C 3.499 14.472,7.570 18.635,7.693 18.686 C 7.856 18.755,8.144 18.755,8.307 18.686 C 8.430 18.635,12.501 14.472,12.647 14.249 C 12.891 13.877,12.658 13.287,12.219 13.165 C 12.115 13.136,11.491 13.120,10.411 13.120 L 8.762 13.120 8.751 9.450 C 8.740 5.833,8.739 5.778,8.658 5.641 C 8.494 5.361,8.122 5.202,7.811 5.278 M15.845 5.282 C 15.770 5.298,15.668 5.335,15.616 5.362 C 15.470 5.441,11.430 9.626,11.341 9.791 C 11.221 10.016,11.239 10.323,11.385 10.531 C 11.449 10.622,11.564 10.733,11.641 10.778 C 11.774 10.857,11.850 10.860,13.510 10.872 L 15.240 10.883 15.240 14.420 C 15.240 16.851,15.254 18.020,15.284 18.162 C 15.447 18.920,16.553 18.920,16.716 18.162 C 16.746 18.020,16.760 16.851,16.760 14.418 L 16.760 10.880 18.410 10.880 C 19.491 10.880,20.115 10.864,20.220 10.835 C 20.662 10.713,20.887 10.089,20.624 9.714 C 20.480 9.509,16.448 5.394,16.344 5.347 C 16.171 5.268,16.003 5.246,15.845 5.282 " fill="#1C274C" stroke="none" fill-rule="evenodd"></path></svg>