<svg width="24" height="24" viewBox="0 0 24 24" fill="none" xmlns="http://www.w3.org/2000/svg"><path d="M16.811 3.277 C 16.639 3.320,16.417 3.494,16.330 3.652 C 16.264 3.773,16.259 4.256,16.250 11.914 C 16.242 17.760,16.252 20.095,16.283 20.213 C 16.342 20.431,16.574 20.659,16.798 20.719 C 17.198 20.827,17.610 20.599,17.718 20.209 C 17.746 20.109,17.760 17.784,17.760 13.164 L 17.760 6.268 18.630 7.423 C 19.221 8.208,19.545 8.604,19.640 8.658 C 19.817 8.760,20.167 8.764,20.351 8.667 C 20.638 8.514,20.808 8.126,20.724 7.813 C 20.666 7.599,17.584 3.486,17.393 3.368 C 17.233 3.269,16.993 3.232,16.811 3.277 M3.811 7.279 C 3.536 7.345,3.316 7.587,3.260 7.885 C 3.197 8.220,3.450 8.624,3.781 8.715 C 4.005 8.778,12.995 8.778,13.219 8.715 C 13.431 8.657,13.660 8.422,13.719 8.204 C 13.808 7.873,13.689 7.566,13.394 7.372 L 13.226 7.260 8.583 7.254 C 6.029 7.250,3.882 7.261,3.811 7.279 M5.811 12.278 C 5.536 12.345,5.316 12.587,5.260 12.885 C 5.197 13.220,5.450 13.624,5.781 13.715 C 6.004 13.777,12.996 13.777,13.219 13.715 C 13.431 13.657,13.660 13.422,13.719 13.204 C 13.808 12.873,13.689 12.566,13.395 12.372 L 13.226 12.260 9.583 12.254 C 7.579 12.250,5.882 12.261,5.811 12.278 M7.811 17.278 C 7.535 17.345,7.316 17.587,7.260 17.885 C 7.197 18.220,7.450 18.624,7.781 18.715 C 8.003 18.777,12.997 18.777,13.219 18.715 C 13.431 18.657,13.660 18.422,13.719 18.204 C 13.808 17.873,13.689 17.566,13.395 17.372 L 13.226 17.260 10.583 17.253 C 9.129 17.250,7.882 17.261,7.811 17.278 " fill="#1C274C" stroke="none" fill-rule="evenodd"></path></svg>