<svg width="24" height="24" viewBox="0 0 24 24" fill="none" xmlns="http://www.w3.org/2000/svg"><path d="M2.811 6.279 C 2.536 6.345,2.316 6.587,2.260 6.885 C 2.197 7.220,2.450 7.624,2.781 7.715 C 3.006 7.778,12.994 7.778,13.219 7.715 C 13.431 7.657,13.660 7.422,13.719 7.204 C 13.808 6.873,13.689 6.566,13.394 6.372 L 13.226 6.260 8.083 6.254 C 5.254 6.250,2.882 6.261,2.811 6.279 M16.263 6.298 C 16.177 6.329,16.047 6.415,15.975 6.488 C 15.875 6.590,15.324 7.778,13.582 11.651 C 12.337 14.418,11.299 16.758,11.275 16.851 C 11.212 17.088,11.286 17.335,11.475 17.525 C 11.776 17.825,12.262 17.820,12.547 17.514 C 12.596 17.462,12.967 16.682,13.373 15.780 L 14.111 14.140 16.500 14.140 L 18.889 14.140 19.625 15.780 C 20.422 17.554,20.468 17.631,20.803 17.721 C 21.112 17.804,21.409 17.698,21.598 17.437 C 21.740 17.241,21.783 17.013,21.718 16.811 C 21.591 16.419,17.145 6.610,17.047 6.506 C 16.833 6.279,16.531 6.199,16.263 6.298 M17.396 10.820 L 18.187 12.580 17.356 12.591 C 16.899 12.597,16.140 12.597,15.669 12.591 L 14.813 12.580 15.656 10.707 C 16.472 8.891,16.500 8.837,16.551 8.947 C 16.580 9.009,16.960 9.852,17.396 10.820 M2.811 11.278 C 2.536 11.345,2.316 11.587,2.260 11.885 C 2.197 12.220,2.450 12.624,2.781 12.715 C 3.004 12.777,9.996 12.777,10.219 12.715 C 10.431 12.657,10.660 12.422,10.719 12.204 C 10.808 11.873,10.689 11.566,10.395 11.372 L 10.226 11.260 6.583 11.254 C 4.579 11.250,2.882 11.261,2.811 11.278 M2.811 16.278 C 2.535 16.345,2.316 16.587,2.260 16.885 C 2.197 17.220,2.450 17.624,2.781 17.715 C 3.003 17.777,7.997 17.777,8.219 17.715 C 8.431 17.657,8.660 17.422,8.719 17.204 C 8.808 16.873,8.689 16.566,8.395 16.372 L 8.226 16.260 5.583 16.253 C 4.129 16.250,2.882 16.261,2.811 16.278 " fill="#1C274C" stroke="none" fill-rule="evenodd"></path></svg>