<svg width="24" height="24" viewBox="0 0 24 24" fill="none" xmlns="http://www.w3.org/2000/svg"><path d="M3.811 6.279 C 3.536 6.344,3.316 6.587,3.260 6.885 C 3.197 7.220,3.450 7.624,3.781 7.715 C 4.007 7.778,19.993 7.778,20.219 7.715 C 20.431 7.657,20.660 7.422,20.719 7.204 C 20.808 6.873,20.689 6.566,20.394 6.372 L 20.226 6.260 12.083 6.254 C 7.604 6.250,3.882 6.262,3.811 6.279 M3.811 11.279 C 3.536 11.345,3.316 11.587,3.260 11.885 C 3.197 12.220,3.450 12.624,3.781 12.715 C 4.006 12.778,14.994 12.778,15.219 12.715 C 15.431 12.657,15.660 12.422,15.719 12.204 C 15.808 11.873,15.689 11.566,15.394 11.372 L 15.226 11.260 9.583 11.254 C 6.479 11.250,3.882 11.261,3.811 11.279 M3.811 16.278 C 3.535 16.345,3.316 16.587,3.260 16.885 C 3.197 17.220,3.450 17.624,3.781 17.715 C 4.003 17.777,8.997 17.777,9.219 17.715 C 9.431 17.657,9.660 17.422,9.719 17.204 C 9.808 16.873,9.689 16.566,9.395 16.372 L 9.226 16.260 6.583 16.253 C 5.129 16.250,3.882 16.261,3.811 16.278 " fill="#1C274C" stroke="none" fill-rule="evenodd"></path></svg>