<svg width="24" height="24" viewBox="0 0 24 24" fill="none" xmlns="http://www.w3.org/2000/svg"><path d="M1.811 6.278 C 1.536 6.345,1.316 6.587,1.260 6.885 C 1.197 7.220,1.450 7.624,1.781 7.715 C 2.005 7.778,9.995 7.778,10.219 7.715 C 10.431 7.657,10.660 7.422,10.719 7.204 C 10.808 6.873,10.689 6.566,10.395 6.372 L 10.226 6.260 6.083 6.254 C 3.804 6.250,1.882 6.261,1.811 6.278 M16.500 7.025 C 15.351 7.150,14.297 7.655,13.476 8.476 C 11.769 10.184,11.524 12.797,12.881 14.824 C 13.148 15.223,13.769 15.847,14.160 16.108 C 14.747 16.501,15.350 16.756,16.042 16.903 C 16.510 17.003,17.490 17.003,17.958 16.903 C 18.982 16.685,19.804 16.243,20.524 15.524 C 21.243 14.804,21.685 13.982,21.903 12.958 C 22.003 12.490,22.003 11.510,21.903 11.042 C 21.685 10.018,21.243 9.196,20.524 8.476 C 19.819 7.772,19.024 7.336,18.040 7.117 C 17.705 7.042,16.826 6.990,16.500 7.025 M17.271 9.302 C 17.468 9.384,17.595 9.506,17.684 9.700 C 17.749 9.839,17.758 9.971,17.760 10.720 L 17.762 11.580 18.219 12.109 C 18.549 12.490,18.689 12.684,18.721 12.803 C 18.880 13.396,18.287 13.927,17.726 13.694 C 17.575 13.632,17.437 13.498,16.966 12.959 C 16.650 12.597,16.358 12.228,16.317 12.140 C 16.250 11.997,16.242 11.871,16.241 10.929 C 16.240 9.804,16.255 9.699,16.452 9.485 C 16.568 9.359,16.827 9.242,16.991 9.241 C 17.063 9.240,17.189 9.268,17.271 9.302 M1.811 11.278 C 1.536 11.345,1.316 11.587,1.260 11.885 C 1.197 12.220,1.450 12.624,1.781 12.715 C 2.004 12.777,7.996 12.777,8.219 12.715 C 8.431 12.657,8.660 12.422,8.719 12.204 C 8.808 11.873,8.689 11.566,8.395 11.372 L 8.226 11.260 5.083 11.254 C 3.354 11.250,1.882 11.261,1.811 11.278 M1.811 16.278 C 1.536 16.345,1.316 16.587,1.260 16.885 C 1.197 17.220,1.450 17.624,1.781 17.715 C 2.005 17.778,9.995 17.778,10.219 17.715 C 10.431 17.657,10.660 17.422,10.719 17.204 C 10.808 16.873,10.689 16.566,10.395 16.372 L 10.226 16.260 6.083 16.254 C 3.804 16.250,1.882 16.261,1.811 16.278 " fill="#1C274C" stroke="none" fill-rule="evenodd"></path></svg>