<svg width="24" height="24" viewBox="0 0 24 24" fill="none" xmlns="http://www.w3.org/2000/svg"><path d="M16.811 3.278 C 16.639 3.320,16.417 3.493,16.330 3.652 C 16.264 3.773,16.259 4.256,16.250 11.914 C 16.242 17.760,16.252 20.095,16.283 20.213 C 16.406 20.667,16.982 20.889,17.392 20.639 C 17.555 20.540,20.636 16.439,20.711 16.220 C 20.871 15.759,20.511 15.271,20.005 15.264 C 19.634 15.259,19.572 15.318,18.617 16.592 L 17.761 17.732 17.750 10.756 C 17.740 3.807,17.740 3.779,17.658 3.641 C 17.494 3.361,17.122 3.202,16.811 3.278 M7.811 5.278 C 7.535 5.345,7.316 5.587,7.260 5.885 C 7.197 6.220,7.450 6.624,7.781 6.715 C 8.003 6.777,12.997 6.777,13.219 6.715 C 13.431 6.657,13.660 6.422,13.719 6.204 C 13.808 5.873,13.689 5.566,13.395 5.372 L 13.226 5.260 10.583 5.253 C 9.129 5.250,7.882 5.261,7.811 5.278 M5.811 10.278 C 5.536 10.345,5.316 10.587,5.260 10.885 C 5.197 11.220,5.450 11.624,5.781 11.715 C 6.004 11.777,12.996 11.777,13.219 11.715 C 13.431 11.657,13.660 11.422,13.719 11.204 C 13.808 10.873,13.689 10.566,13.395 10.372 L 13.226 10.260 9.583 10.254 C 7.579 10.250,5.882 10.261,5.811 10.278 M3.811 15.279 C 3.536 15.345,3.316 15.587,3.260 15.885 C 3.197 16.220,3.450 16.624,3.781 16.715 C 4.005 16.778,12.995 16.778,13.219 16.715 C 13.431 16.657,13.660 16.422,13.719 16.204 C 13.808 15.873,13.689 15.566,13.394 15.372 L 13.226 15.260 8.583 15.254 C 6.029 15.250,3.882 15.261,3.811 15.279 " fill="#1C274C" stroke="none" fill-rule="evenodd"></path></svg>