<svg width="24" height="24" viewBox="0 0 24 24" fill="none" xmlns="http://www.w3.org/2000/svg"><path d="M8.419 2.041 C 5.785 2.145,4.480 2.507,3.549 3.393 C 2.551 4.342,2.166 5.587,2.041 8.260 C 1.988 9.399,1.988 14.601,2.041 15.740 C 2.160 18.285,2.507 19.501,3.379 20.433 C 4.245 21.360,5.318 21.742,7.580 21.927 C 8.488 22.002,15.512 22.002,16.420 21.927 C 18.857 21.727,19.992 21.275,20.860 20.157 C 21.474 19.368,21.771 18.329,21.927 16.420 C 22.002 15.512,22.002 8.488,21.927 7.580 C 21.740 5.297,21.356 4.232,20.407 3.355 C 19.572 2.585,18.492 2.242,16.380 2.078 C 15.684 2.023,9.573 1.995,8.419 2.041 M12.405 6.381 C 12.485 6.432,12.593 6.543,12.645 6.627 L 12.740 6.780 12.740 12.007 L 12.740 17.233 12.619 17.405 C 12.453 17.641,12.273 17.739,12.000 17.739 C 11.727 17.739,11.547 17.641,11.381 17.405 L 11.260 17.233 11.260 12.007 L 11.260 6.780 11.353 6.631 C 11.586 6.256,12.044 6.147,12.405 6.381 M7.405 8.381 C 7.485 8.432,7.593 8.543,7.645 8.627 L 7.740 8.780 7.740 12.007 L 7.740 15.233 7.619 15.405 C 7.453 15.641,7.273 15.739,7.000 15.739 C 6.727 15.739,6.547 15.641,6.381 15.405 L 6.260 15.233 6.260 12.007 L 6.260 8.780 6.353 8.631 C 6.586 8.256,7.044 8.147,7.405 8.381 M17.405 9.381 C 17.485 9.432,17.593 9.543,17.645 9.627 L 17.740 9.780 17.740 12.007 L 17.740 14.233 17.619 14.405 C 17.453 14.641,17.273 14.739,17.000 14.739 C 16.727 14.739,16.547 14.641,16.381 14.405 L 16.260 14.233 16.260 12.007 L 16.260 9.780 16.353 9.631 C 16.586 9.256,17.044 9.147,17.405 9.381 " fill="#1C274C" stroke="none" fill-rule="evenodd"></path></svg>