<svg width="24" height="24" viewBox="0 0 24 24" fill="none" xmlns="http://www.w3.org/2000/svg"><path d="M11.811 3.278 C 11.639 3.320,11.417 3.493,11.330 3.652 C 11.264 3.773,11.259 4.256,11.250 11.914 C 11.242 17.760,11.252 20.095,11.283 20.213 C 11.342 20.431,11.574 20.659,11.798 20.719 C 12.201 20.828,12.613 20.597,12.719 20.202 C 12.747 20.098,12.757 17.431,12.750 11.914 C 12.740 3.798,12.740 3.780,12.658 3.641 C 12.494 3.361,12.122 3.202,11.811 3.278 M7.811 6.278 C 7.639 6.320,7.417 6.493,7.330 6.652 C 7.265 6.772,7.259 7.113,7.249 11.914 C 7.242 15.583,7.251 17.094,7.283 17.212 C 7.342 17.431,7.574 17.659,7.798 17.719 C 8.202 17.828,8.613 17.597,8.720 17.202 C 8.748 17.097,8.758 15.378,8.751 11.914 C 8.740 6.822,8.739 6.779,8.658 6.641 C 8.494 6.361,8.122 6.202,7.811 6.278 M15.811 6.278 C 15.639 6.320,15.417 6.493,15.330 6.652 C 15.265 6.772,15.259 7.113,15.249 11.914 C 15.242 15.583,15.251 17.094,15.283 17.212 C 15.342 17.431,15.574 17.659,15.798 17.719 C 16.202 17.828,16.613 17.597,16.720 17.202 C 16.748 17.097,16.758 15.378,16.751 11.914 C 16.740 6.822,16.739 6.779,16.658 6.641 C 16.494 6.361,16.122 6.202,15.811 6.278 M3.811 10.278 C 3.639 10.320,3.417 10.493,3.330 10.652 C 3.269 10.764,3.258 10.924,3.248 11.907 C 3.240 12.630,3.251 13.092,3.279 13.195 C 3.428 13.751,4.117 13.933,4.525 13.525 C 4.750 13.299,4.766 13.184,4.752 11.907 C 4.741 10.856,4.735 10.771,4.658 10.641 C 4.494 10.361,4.122 10.202,3.811 10.278 M19.811 10.278 C 19.639 10.320,19.417 10.493,19.330 10.652 C 19.269 10.764,19.258 10.924,19.248 11.907 C 19.240 12.630,19.251 13.092,19.279 13.195 C 19.428 13.751,20.117 13.933,20.525 13.525 C 20.750 13.299,20.766 13.184,20.752 11.907 C 20.741 10.856,20.735 10.771,20.658 10.641 C 20.494 10.361,20.122 10.202,19.811 10.278 " fill="#1C274C" stroke="none" fill-rule="evenodd"></path></svg>