<svg width="24" height="24" viewBox="0 0 24 24" fill="none" xmlns="http://www.w3.org/2000/svg"><path d="M9.300 2.025 C 8.773 2.044,7.822 2.118,7.500 2.165 C 7.094 2.224,6.477 2.384,6.189 2.504 C 5.854 2.644,5.332 2.994,5.126 3.218 C 4.494 3.904,4.220 4.721,4.072 6.360 C 3.997 7.194,3.997 16.806,4.072 17.640 C 4.196 19.012,4.379 19.703,4.784 20.330 C 5.032 20.714,5.247 20.933,5.617 21.178 C 6.284 21.620,6.946 21.801,8.360 21.928 C 9.186 22.002,14.777 22.001,15.640 21.927 C 17.023 21.808,17.720 21.618,18.383 21.178 C 18.753 20.933,18.968 20.714,19.216 20.330 C 19.708 19.570,19.880 18.742,19.964 16.747 C 20.020 15.404,19.988 6.935,19.925 6.280 C 19.800 4.987,19.605 4.272,19.216 3.670 C 18.968 3.286,18.753 3.067,18.383 2.822 C 17.732 2.390,17.069 2.205,15.720 2.078 C 15.291 2.037,10.128 1.995,9.300 2.025 M14.300 5.316 C 14.680 5.491,14.852 5.903,14.698 6.271 C 14.616 6.468,14.494 6.595,14.300 6.684 C 14.151 6.753,13.995 6.758,12.009 6.759 C 10.174 6.760,9.857 6.751,9.729 6.698 C 9.101 6.436,9.084 5.600,9.700 5.316 C 9.849 5.247,10.004 5.242,12.000 5.242 C 13.996 5.242,14.151 5.247,14.300 5.316 M12.940 9.340 C 13.878 9.542,14.597 9.926,15.294 10.599 C 16.962 12.209,17.228 14.710,15.940 16.660 C 15.681 17.052,15.064 17.659,14.635 17.945 C 12.937 19.076,10.735 19.009,9.120 17.778 C 8.819 17.548,8.253 16.951,8.060 16.660 C 7.715 16.138,7.438 15.461,7.316 14.840 C 7.250 14.505,7.250 13.495,7.316 13.160 C 7.438 12.539,7.715 11.862,8.060 11.340 C 8.253 11.050,8.818 10.453,9.120 10.222 C 9.750 9.739,10.587 9.392,11.380 9.283 C 11.745 9.233,12.585 9.263,12.940 9.340 M11.408 10.802 C 11.068 10.863,10.520 11.087,10.214 11.290 C 9.856 11.529,9.418 11.988,9.201 12.354 C 9.108 12.510,8.976 12.805,8.907 13.009 C 8.788 13.361,8.782 13.411,8.782 14.000 C 8.782 14.589,8.788 14.639,8.907 14.991 C 9.083 15.513,9.313 15.880,9.716 16.284 C 10.120 16.687,10.487 16.917,11.009 17.093 C 11.361 17.212,11.411 17.218,12.000 17.218 C 12.589 17.218,12.639 17.212,12.991 17.093 C 13.513 16.917,13.880 16.687,14.284 16.284 C 14.688 15.879,14.918 15.512,15.092 14.991 C 15.209 14.640,15.216 14.586,15.217 14.000 C 15.219 13.409,15.213 13.363,15.093 13.009 C 14.917 12.487,14.687 12.120,14.284 11.716 C 13.882 11.315,13.527 11.095,12.994 10.916 C 12.670 10.807,12.553 10.788,12.120 10.777 C 11.845 10.770,11.525 10.781,11.408 10.802 " fill="#1C274C" stroke="none" fill-rule="evenodd"></path></svg>