<svg width="24" height="24" viewBox="0 0 24 24" fill="none" xmlns="http://www.w3.org/2000/svg"><path d="M9.300 2.025 C 8.773 2.044,7.822 2.118,7.500 2.165 C 7.094 2.224,6.477 2.384,6.189 2.504 C 5.854 2.644,5.332 2.994,5.126 3.218 C 4.494 3.904,4.220 4.721,4.072 6.360 C 3.997 7.194,3.997 16.806,4.072 17.640 C 4.196 19.012,4.379 19.703,4.784 20.330 C 5.032 20.714,5.247 20.933,5.617 21.178 C 6.284 21.620,6.946 21.801,8.360 21.928 C 9.186 22.002,14.777 22.001,15.640 21.927 C 17.023 21.808,17.720 21.618,18.383 21.178 C 18.753 20.933,18.968 20.714,19.216 20.330 C 19.708 19.570,19.880 18.742,19.964 16.747 C 20.020 15.404,19.988 6.935,19.925 6.280 C 19.800 4.987,19.605 4.272,19.216 3.670 C 18.968 3.286,18.753 3.067,18.383 2.822 C 17.732 2.390,17.069 2.205,15.720 2.078 C 15.291 2.037,10.128 1.995,9.300 2.025 M12.872 4.895 C 13.322 5.052,13.590 5.224,13.947 5.582 C 14.215 5.851,14.305 5.976,14.454 6.285 C 14.856 7.117,14.856 7.883,14.454 8.715 C 14.306 9.023,14.215 9.149,13.947 9.419 C 13.593 9.775,13.284 9.969,12.820 10.125 C 12.580 10.206,12.462 10.220,12.000 10.220 C 11.538 10.220,11.420 10.206,11.180 10.125 C 10.716 9.969,10.407 9.775,10.053 9.419 C 9.785 9.149,9.694 9.023,9.546 8.715 C 9.144 7.883,9.144 7.117,9.546 6.285 C 9.861 5.631,10.467 5.106,11.160 4.887 C 11.533 4.769,11.569 4.764,12.100 4.779 C 12.489 4.790,12.635 4.812,12.872 4.895 M11.733 6.280 C 11.387 6.352,11.063 6.604,10.887 6.937 C 10.795 7.113,10.781 7.187,10.781 7.500 C 10.781 7.813,10.795 7.887,10.887 8.063 C 11.115 8.495,11.513 8.736,12.000 8.736 C 12.487 8.736,12.885 8.495,13.113 8.063 C 13.205 7.887,13.219 7.813,13.219 7.500 C 13.219 7.187,13.205 7.113,13.113 6.937 C 12.987 6.699,12.736 6.460,12.505 6.359 C 12.301 6.270,11.954 6.234,11.733 6.280 M12.981 11.873 C 14.314 12.263,15.320 13.301,15.647 14.625 C 15.771 15.128,15.771 15.881,15.648 16.375 C 15.314 17.712,14.312 18.740,12.960 19.133 C 12.706 19.207,12.560 19.220,12.000 19.220 C 11.440 19.220,11.294 19.207,11.040 19.133 C 9.688 18.740,8.685 17.711,8.352 16.375 C 8.228 15.876,8.228 15.124,8.352 14.625 C 8.702 13.223,9.816 12.135,11.220 11.824 C 11.626 11.734,12.598 11.761,12.981 11.873 M11.678 13.281 C 11.388 13.325,11.030 13.460,10.780 13.619 C 10.330 13.906,9.912 14.511,9.804 15.032 C 9.658 15.735,9.864 16.479,10.351 17.005 C 10.637 17.315,10.905 17.488,11.307 17.625 C 11.920 17.832,12.662 17.739,13.213 17.386 C 13.517 17.191,13.857 16.803,14.015 16.469 C 14.321 15.825,14.321 15.175,14.015 14.531 C 13.857 14.197,13.517 13.809,13.213 13.614 C 12.796 13.347,12.159 13.208,11.678 13.281 " fill="#1C274C" stroke="none" fill-rule="evenodd"></path></svg>