<svg width="24" height="24" viewBox="0 0 24 24" fill="none" xmlns="http://www.w3.org/2000/svg"><path d="M8.419 2.041 C 5.785 2.145,4.480 2.507,3.549 3.393 C 2.551 4.342,2.166 5.587,2.041 8.260 C 1.988 9.399,1.988 14.601,2.041 15.740 C 2.160 18.285,2.507 19.501,3.379 20.433 C 4.245 21.360,5.318 21.742,7.580 21.927 C 8.488 22.002,15.512 22.002,16.420 21.927 C 18.857 21.727,19.992 21.275,20.860 20.157 C 21.474 19.368,21.771 18.329,21.927 16.420 C 22.002 15.512,22.002 8.488,21.927 7.580 C 21.740 5.297,21.356 4.232,20.407 3.355 C 19.572 2.585,18.492 2.242,16.380 2.078 C 15.684 2.023,9.573 1.995,8.419 2.041 M10.373 7.355 C 10.615 7.506,10.733 7.718,10.733 8.003 C 10.733 8.203,10.714 8.270,10.616 8.409 C 10.552 8.501,10.436 8.613,10.359 8.658 C 10.226 8.737,10.150 8.740,8.490 8.752 L 6.760 8.763 6.760 10.000 L 6.760 11.236 8.490 11.248 L 10.220 11.260 10.373 11.355 C 10.615 11.506,10.733 11.718,10.733 12.003 C 10.733 12.203,10.714 12.270,10.616 12.409 C 10.552 12.501,10.436 12.613,10.359 12.658 C 10.226 12.737,10.150 12.740,8.492 12.752 L 6.764 12.763 6.752 14.498 L 6.740 16.233 6.619 16.405 C 6.453 16.642,6.273 16.739,6.000 16.739 C 5.727 16.739,5.547 16.641,5.381 16.405 L 5.260 16.233 5.260 12.007 L 5.260 7.780 5.353 7.631 C 5.462 7.456,5.638 7.320,5.815 7.277 C 5.884 7.260,6.903 7.250,8.080 7.253 L 10.220 7.260 10.373 7.355 M12.392 7.368 C 12.480 7.422,12.962 8.030,13.747 9.076 C 14.417 9.969,14.981 10.700,15.000 10.700 C 15.019 10.700,15.583 9.969,16.253 9.076 C 17.129 7.908,17.515 7.425,17.626 7.356 C 17.743 7.284,17.834 7.262,18.005 7.264 C 18.369 7.269,18.646 7.492,18.725 7.844 C 18.799 8.173,18.761 8.236,17.316 10.165 C 16.570 11.160,15.960 11.986,15.960 12.000 C 15.960 12.014,16.570 12.840,17.316 13.835 C 18.358 15.226,18.682 15.686,18.716 15.822 C 18.877 16.461,18.171 16.981,17.608 16.639 C 17.533 16.593,16.994 15.911,16.259 14.931 C 15.586 14.034,15.019 13.300,15.000 13.300 C 14.981 13.300,14.411 14.038,13.733 14.939 C 12.870 16.087,12.458 16.602,12.360 16.659 C 12.184 16.759,11.833 16.764,11.652 16.668 C 11.482 16.578,11.320 16.360,11.276 16.160 C 11.201 15.826,11.235 15.769,12.684 13.835 C 13.430 12.840,14.040 12.014,14.040 12.000 C 14.040 11.986,13.430 11.160,12.684 10.165 C 11.268 8.275,11.208 8.179,11.266 7.873 C 11.362 7.356,11.948 7.093,12.392 7.368 " fill="#1C274C" stroke="none" fill-rule="evenodd"></path></svg>