<svg width="24" height="24" viewBox="0 0 24 24" fill="none" xmlns="http://www.w3.org/2000/svg"><path d="M10.700 2.061 C 9.216 2.255,7.633 2.846,6.440 3.653 C 6.156 3.844,5.480 4.366,5.480 4.393 C 5.480 4.407,5.856 4.796,6.317 5.259 C 7.036 5.983,7.159 6.124,7.199 6.275 C 7.351 6.846,6.844 7.352,6.275 7.199 C 6.125 7.158,5.979 7.032,5.248 6.306 L 4.396 5.460 4.248 5.636 C 3.311 6.748,2.553 8.299,2.220 9.783 C 2.126 10.205,2.003 10.980,2.001 11.170 C 2.000 11.235,2.077 11.240,3.067 11.240 C 4.073 11.240,4.145 11.245,4.310 11.325 C 4.785 11.555,4.857 12.223,4.443 12.571 C 4.257 12.728,4.002 12.760,2.958 12.760 C 2.143 12.760,2.000 12.769,2.000 12.819 C 2.000 12.957,2.131 13.808,2.201 14.120 C 2.447 15.226,2.915 16.372,3.494 17.291 C 3.735 17.672,4.237 18.354,4.339 18.439 C 4.395 18.486,4.505 18.391,5.215 17.687 C 5.715 17.190,6.082 16.858,6.172 16.821 C 6.808 16.555,7.434 17.163,7.164 17.784 C 7.098 17.937,6.903 18.153,6.274 18.770 C 5.575 19.456,5.477 19.568,5.522 19.623 C 5.551 19.657,5.748 19.816,5.959 19.975 C 7.298 20.984,8.867 21.637,10.600 21.907 C 11.246 22.007,12.754 22.007,13.400 21.907 C 15.133 21.637,16.702 20.984,18.041 19.975 C 18.252 19.816,18.448 19.659,18.475 19.625 C 18.518 19.574,18.403 19.444,17.724 18.773 C 17.103 18.159,16.903 17.936,16.836 17.784 C 16.566 17.163,17.192 16.555,17.828 16.821 C 17.918 16.858,18.285 17.190,18.785 17.687 C 19.495 18.391,19.605 18.486,19.661 18.439 C 19.763 18.354,20.265 17.672,20.506 17.291 C 21.282 16.061,21.813 14.519,21.980 13.010 L 22.008 12.760 21.046 12.760 C 19.998 12.760,19.743 12.728,19.557 12.571 C 19.143 12.223,19.215 11.555,19.690 11.325 C 19.855 11.245,19.927 11.240,20.933 11.240 C 21.923 11.240,22.000 11.235,21.999 11.170 C 21.997 10.980,21.874 10.205,21.780 9.783 C 21.447 8.299,20.689 6.748,19.752 5.636 L 19.604 5.460 18.752 6.306 C 18.021 7.032,17.875 7.158,17.725 7.199 C 17.281 7.318,16.846 7.032,16.777 6.575 C 16.728 6.244,16.801 6.138,17.700 5.240 C 18.151 4.790,18.520 4.409,18.520 4.395 C 18.520 4.366,17.852 3.850,17.560 3.653 C 16.377 2.853,14.640 2.207,13.280 2.060 C 13.159 2.047,12.994 2.027,12.913 2.015 L 12.766 1.994 12.753 3.087 C 12.739 4.278,12.735 4.299,12.494 4.527 C 12.289 4.721,11.973 4.777,11.708 4.666 C 11.537 4.595,11.335 4.359,11.282 4.171 C 11.258 4.084,11.240 3.591,11.240 3.010 C 11.240 2.073,11.235 2.000,11.170 2.004 C 11.132 2.007,10.920 2.033,10.700 2.061 M12.400 9.345 C 13.256 9.532,14.121 10.278,14.466 11.126 C 15.027 12.508,14.447 14.179,13.195 14.790 C 12.659 15.051,12.030 15.238,10.860 15.484 C 10.115 15.641,9.577 15.674,9.262 15.582 C 8.541 15.373,8.221 14.798,8.322 13.899 C 8.373 13.447,8.525 12.693,8.700 12.020 C 9.024 10.774,9.354 10.211,10.019 9.766 C 10.712 9.303,11.538 9.157,12.400 9.345 " fill="#1C274C" stroke="none" fill-rule="evenodd"></path></svg>