<svg width="24" height="24" viewBox="0 0 24 24" fill="none" xmlns="http://www.w3.org/2000/svg"><path d="M8.419 2.041 C 5.785 2.145,4.480 2.507,3.549 3.393 C 2.551 4.342,2.166 5.587,2.041 8.260 C 1.988 9.399,1.988 14.601,2.041 15.740 C 2.160 18.285,2.507 19.501,3.379 20.433 C 4.245 21.360,5.318 21.742,7.580 21.927 C 8.488 22.002,15.512 22.002,16.420 21.927 C 18.857 21.727,19.992 21.275,20.860 20.157 C 21.474 19.368,21.771 18.329,21.927 16.420 C 22.002 15.512,22.002 8.488,21.927 7.580 C 21.740 5.297,21.356 4.232,20.407 3.355 C 19.572 2.585,18.492 2.242,16.380 2.078 C 15.684 2.023,9.573 1.995,8.419 2.041 M12.380 7.362 C 12.539 7.460,15.616 10.552,15.682 10.680 C 15.710 10.735,15.733 10.882,15.733 11.008 C 15.733 11.508,15.284 11.849,14.795 11.719 C 14.643 11.679,14.496 11.549,13.691 10.749 L 12.762 9.825 12.751 13.029 L 12.740 16.233 12.619 16.405 C 12.453 16.642,12.273 16.739,12.000 16.739 C 11.727 16.739,11.547 16.642,11.381 16.405 L 11.260 16.233 11.249 13.029 L 11.238 9.825 10.309 10.749 C 9.504 11.549,9.357 11.679,9.205 11.719 C 8.714 11.849,8.267 11.509,8.267 11.003 C 8.267 10.836,8.290 10.733,8.351 10.636 C 8.398 10.561,9.152 9.786,10.028 8.913 C 11.200 7.745,11.652 7.319,11.740 7.299 C 11.806 7.285,11.878 7.267,11.900 7.259 C 11.981 7.230,12.264 7.291,12.380 7.362 " fill="#1C274C" stroke="none" fill-rule="evenodd"></path></svg>