<svg width="24" height="24" viewBox="0 0 24 24" fill="none" xmlns="http://www.w3.org/2000/svg"><path d="M8.456 2.042 C 5.720 2.141,4.373 2.534,3.435 3.507 C 2.688 4.282,2.317 5.263,2.142 6.927 C 2.046 7.840,2.001 9.469,2.001 12.000 C 2.001 16.100,2.103 17.613,2.459 18.779 C 2.891 20.195,3.805 21.109,5.221 21.541 C 6.387 21.897,7.900 21.999,12.000 21.999 C 16.116 21.999,17.590 21.899,18.787 21.538 C 20.186 21.116,21.116 20.186,21.538 18.787 C 21.785 17.969,21.899 17.046,21.959 15.393 C 21.996 14.375,22.017 11.040,21.986 11.040 C 21.979 11.040,21.866 11.078,21.736 11.124 C 21.436 11.230,20.884 11.267,20.551 11.202 C 19.904 11.077,19.269 10.587,18.989 9.997 C 18.810 9.620,18.760 9.376,18.760 8.878 C 18.760 8.659,18.746 8.480,18.730 8.480 C 18.713 8.480,17.746 9.435,16.580 10.602 C 15.368 11.815,14.360 12.791,14.226 12.881 C 13.696 13.239,12.958 13.339,12.326 13.139 C 11.384 12.842,10.759 11.991,10.760 11.008 C 10.761 10.606,10.825 10.331,11.004 9.962 C 11.118 9.726,11.348 9.483,13.325 7.499 C 14.532 6.288,15.520 5.285,15.520 5.269 C 15.520 5.253,15.341 5.240,15.122 5.240 C 14.624 5.240,14.380 5.190,14.003 5.011 C 13.413 4.731,12.923 4.096,12.798 3.449 C 12.733 3.116,12.770 2.564,12.876 2.264 C 12.922 2.134,12.960 2.021,12.960 2.014 C 12.960 1.989,9.280 2.012,8.456 2.042 M14.811 2.278 C 14.536 2.345,14.316 2.587,14.260 2.885 C 14.197 3.220,14.450 3.624,14.781 3.715 C 14.888 3.745,15.637 3.760,17.060 3.760 L 19.179 3.760 15.753 7.190 C 12.649 10.296,12.322 10.636,12.280 10.795 C 12.130 11.366,12.634 11.870,13.205 11.720 C 13.364 11.678,13.704 11.351,16.810 8.247 L 20.240 4.821 20.240 6.940 C 20.240 8.363,20.255 9.112,20.285 9.219 C 20.309 9.307,20.395 9.444,20.476 9.525 C 20.881 9.931,21.572 9.750,21.720 9.200 C 21.748 9.096,21.758 8.008,21.751 5.912 C 21.740 2.838,21.738 2.777,21.658 2.641 C 21.613 2.564,21.499 2.447,21.405 2.381 L 21.233 2.260 18.087 2.254 C 16.356 2.250,14.882 2.261,14.811 2.278 " fill="#1C274C" stroke="none" fill-rule="evenodd"></path></svg>