<svg width="24" height="24" viewBox="0 0 24 24" fill="none" xmlns="http://www.w3.org/2000/svg"><path d="M8.419 2.043 C 5.807 2.139,4.481 2.507,3.549 3.393 C 2.551 4.342,2.166 5.587,2.041 8.260 C 1.988 9.399,1.988 14.601,2.041 15.740 C 2.160 18.285,2.507 19.501,3.379 20.433 C 4.245 21.360,5.318 21.742,7.580 21.927 C 8.488 22.002,15.512 22.002,16.420 21.927 C 18.857 21.727,19.992 21.275,20.860 20.157 C 21.342 19.537,21.666 18.632,21.817 17.480 C 21.950 16.473,21.969 15.922,21.989 12.714 C 22.008 9.543,21.979 8.042,21.879 7.037 C 21.832 6.558,21.690 5.692,21.647 5.614 C 21.627 5.578,21.116 6.064,20.024 7.156 L 18.431 8.749 18.966 8.769 C 19.414 8.786,19.543 8.806,19.771 8.893 C 20.419 9.142,20.852 9.576,21.112 10.235 C 21.204 10.470,21.216 10.556,21.216 11.000 C 21.216 11.447,21.204 11.529,21.109 11.771 C 20.827 12.489,20.264 12.995,19.542 13.179 C 19.185 13.270,12.815 13.270,12.458 13.179 C 11.737 12.996,11.178 12.494,10.889 11.771 L 10.780 11.500 10.780 8.000 L 10.780 4.500 10.886 4.235 C 11.152 3.572,11.577 3.147,12.229 2.891 C 12.471 2.796,12.553 2.784,13.000 2.784 C 13.447 2.784,13.529 2.796,13.771 2.891 C 14.426 3.148,14.859 3.583,15.109 4.235 C 15.194 4.456,15.214 4.589,15.231 5.034 L 15.251 5.569 16.844 3.976 C 17.865 2.956,18.421 2.372,18.389 2.355 C 18.313 2.313,17.391 2.168,16.900 2.122 C 15.710 2.009,10.638 1.962,8.419 2.043 M20.800 2.289 C 20.629 2.324,20.439 2.507,17.190 5.753 L 13.760 9.179 13.760 7.111 C 13.760 5.753,13.745 4.973,13.716 4.838 C 13.553 4.080,12.447 4.080,12.284 4.838 C 12.223 5.125,12.223 10.875,12.284 11.162 C 12.345 11.446,12.554 11.655,12.838 11.716 C 13.125 11.777,18.875 11.777,19.162 11.716 C 19.920 11.553,19.920 10.447,19.162 10.284 C 19.027 10.255,18.247 10.240,16.889 10.240 L 14.821 10.240 18.247 6.810 C 21.571 3.481,21.673 3.374,21.712 3.189 C 21.832 2.604,21.389 2.167,20.800 2.289 " fill="#1C274C" stroke="none" fill-rule="evenodd"></path></svg>