<svg width="24" height="24" viewBox="0 0 24 24" fill="none" xmlns="http://www.w3.org/2000/svg"><path d="M8.419 2.041 C 5.785 2.145,4.480 2.507,3.549 3.393 C 2.551 4.342,2.166 5.587,2.041 8.260 C 1.988 9.399,1.988 14.601,2.041 15.740 C 2.160 18.285,2.507 19.501,3.379 20.433 C 4.245 21.360,5.318 21.742,7.580 21.927 C 8.488 22.002,15.512 22.002,16.420 21.927 C 18.857 21.727,19.992 21.275,20.860 20.157 C 21.474 19.368,21.771 18.329,21.927 16.420 C 22.002 15.512,22.002 8.488,21.927 7.580 C 21.740 5.297,21.356 4.232,20.407 3.355 C 19.572 2.585,18.492 2.242,16.380 2.078 C 15.684 2.023,9.573 1.995,8.419 2.041 M13.840 8.342 C 13.977 8.412,14.146 8.597,14.197 8.733 C 14.258 8.893,14.250 9.139,14.178 9.310 C 14.137 9.408,13.686 9.890,12.850 10.729 L 11.583 12.000 12.850 13.271 C 13.686 14.110,14.137 14.592,14.178 14.690 C 14.309 15.002,14.235 15.331,13.987 15.549 C 13.703 15.798,13.397 15.815,13.076 15.601 C 12.788 15.410,9.894 12.483,9.822 12.311 C 9.788 12.229,9.760 12.089,9.760 12.000 C 9.760 11.911,9.788 11.771,9.822 11.689 C 9.888 11.531,12.766 8.610,13.049 8.414 C 13.298 8.241,13.590 8.214,13.840 8.342 " fill="#1C274C" stroke="none" fill-rule="evenodd"></path></svg>