<svg width="24" height="24" viewBox="0 0 24 24" fill="none" xmlns="http://www.w3.org/2000/svg"><path d="M8.419 2.041 C 5.785 2.145,4.480 2.507,3.549 3.393 C 2.551 4.342,2.166 5.587,2.041 8.260 C 1.988 9.399,1.988 14.601,2.041 15.740 C 2.160 18.285,2.507 19.501,3.379 20.433 C 4.245 21.360,5.318 21.742,7.580 21.927 C 8.488 22.002,15.512 22.002,16.420 21.927 C 18.857 21.727,19.992 21.275,20.860 20.157 C 21.474 19.368,21.771 18.329,21.927 16.420 C 22.002 15.512,22.002 8.488,21.927 7.580 C 21.740 5.297,21.356 4.232,20.407 3.355 C 19.572 2.585,18.492 2.242,16.380 2.078 C 15.684 2.023,9.573 1.995,8.419 2.041 M11.134 6.374 C 11.476 6.563,11.591 7.056,11.370 7.390 C 11.309 7.482,10.965 7.823,10.604 8.149 L 9.949 8.740 13.104 8.760 C 15.400 8.775,16.282 8.793,16.340 8.827 C 16.446 8.888,16.618 9.075,16.681 9.198 C 16.746 9.324,16.746 9.676,16.681 9.802 C 16.618 9.925,16.446 10.112,16.340 10.173 C 16.282 10.207,15.400 10.225,13.104 10.240 L 9.949 10.260 10.604 10.851 C 11.379 11.550,11.480 11.683,11.480 12.000 C 11.480 12.393,11.224 12.682,10.818 12.748 C 10.532 12.795,10.409 12.704,8.901 11.330 C 8.110 10.610,7.423 9.962,7.376 9.891 C 7.206 9.638,7.219 9.299,7.408 9.059 C 7.507 8.933,10.210 6.463,10.351 6.370 C 10.568 6.226,10.868 6.228,11.134 6.374 M13.600 11.342 C 13.746 11.417,16.522 13.957,16.624 14.109 C 16.794 14.362,16.781 14.701,16.592 14.941 C 16.455 15.116,13.714 17.599,13.580 17.671 C 13.413 17.760,13.094 17.756,12.905 17.662 C 12.538 17.482,12.401 16.956,12.630 16.610 C 12.691 16.518,13.035 16.177,13.396 15.851 L 14.051 15.260 10.896 15.240 C 8.600 15.225,7.718 15.207,7.660 15.173 C 7.554 15.112,7.382 14.925,7.319 14.802 C 7.254 14.676,7.254 14.324,7.319 14.198 C 7.382 14.075,7.554 13.888,7.660 13.827 C 7.718 13.793,8.600 13.775,10.896 13.760 L 14.051 13.740 13.396 13.149 C 12.626 12.454,12.520 12.316,12.520 12.007 C 12.520 11.444,13.101 11.086,13.600 11.342 " fill="#1C274C" stroke="none" fill-rule="evenodd"></path></svg>