<svg width="24" height="24" viewBox="0 0 24 24" fill="none" xmlns="http://www.w3.org/2000/svg"><path d="M8.419 2.041 C 5.785 2.145,4.480 2.507,3.549 3.393 C 2.551 4.342,2.166 5.587,2.041 8.260 C 1.988 9.399,1.988 14.601,2.041 15.740 C 2.160 18.285,2.507 19.501,3.379 20.433 C 4.245 21.360,5.318 21.742,7.580 21.927 C 8.488 22.002,15.512 22.002,16.420 21.927 C 18.857 21.727,19.992 21.275,20.860 20.157 C 21.474 19.368,21.771 18.329,21.927 16.420 C 22.002 15.512,22.002 8.488,21.927 7.580 C 21.740 5.297,21.356 4.232,20.407 3.355 C 19.572 2.585,18.492 2.242,16.380 2.078 C 15.684 2.023,9.573 1.995,8.419 2.041 M10.860 8.350 C 11.000 8.419,13.952 11.347,14.107 11.571 C 14.232 11.751,14.271 12.043,14.199 12.265 C 14.160 12.387,13.826 12.745,12.625 13.952 C 11.786 14.795,11.021 15.537,10.924 15.602 C 10.603 15.815,10.297 15.798,10.013 15.549 C 9.765 15.331,9.691 15.002,9.822 14.690 C 9.863 14.592,10.314 14.110,11.150 13.271 L 12.417 12.000 11.150 10.729 C 10.314 9.890,9.863 9.408,9.822 9.310 C 9.746 9.128,9.742 8.880,9.814 8.708 C 9.881 8.548,10.124 8.329,10.271 8.297 C 10.331 8.284,10.398 8.267,10.420 8.260 C 10.488 8.237,10.734 8.288,10.860 8.350 " fill="#1C274C" stroke="none" fill-rule="evenodd"></path></svg>