<svg width="24" height="24" viewBox="0 0 24 24" fill="none" xmlns="http://www.w3.org/2000/svg"><path d="M8.419 2.041 C 5.785 2.145,4.480 2.507,3.549 3.393 C 2.551 4.342,2.166 5.587,2.041 8.260 C 1.988 9.399,1.988 14.601,2.041 15.740 C 2.160 18.285,2.507 19.501,3.379 20.433 C 4.245 21.360,5.318 21.742,7.580 21.927 C 8.488 22.002,15.512 22.002,16.420 21.927 C 18.857 21.727,19.992 21.275,20.860 20.157 C 21.474 19.368,21.771 18.329,21.927 16.420 C 22.002 15.512,22.002 8.488,21.927 7.580 C 21.740 5.297,21.356 4.232,20.407 3.355 C 19.572 2.585,18.492 2.242,16.380 2.078 C 15.684 2.023,9.573 1.995,8.419 2.041 M12.405 7.381 C 12.485 7.432,12.593 7.543,12.645 7.627 L 12.740 7.780 12.751 10.978 L 12.762 14.175 13.671 13.273 C 14.171 12.776,14.625 12.347,14.680 12.318 C 14.735 12.290,14.881 12.267,15.004 12.267 C 15.276 12.267,15.476 12.375,15.629 12.607 C 15.766 12.814,15.775 13.162,15.649 13.364 C 15.602 13.439,14.848 14.214,13.972 15.087 C 12.625 16.429,12.355 16.680,12.220 16.716 C 12.021 16.770,11.979 16.770,11.780 16.716 C 11.645 16.680,11.375 16.429,10.028 15.087 C 9.152 14.214,8.398 13.439,8.351 13.364 C 8.231 13.172,8.235 12.823,8.358 12.623 C 8.503 12.389,8.721 12.267,8.992 12.267 C 9.118 12.267,9.265 12.290,9.320 12.318 C 9.375 12.347,9.829 12.776,10.329 13.273 L 11.238 14.175 11.249 10.978 L 11.260 7.780 11.353 7.631 C 11.586 7.256,12.044 7.147,12.405 7.381 " fill="#1C274C" stroke="none" fill-rule="evenodd"></path></svg>