<svg width="24" height="24" viewBox="0 0 24 24" fill="none" xmlns="http://www.w3.org/2000/svg"><path d="M8.419 2.041 C 5.785 2.145,4.480 2.507,3.549 3.393 C 2.551 4.342,2.166 5.587,2.041 8.260 C 1.988 9.399,1.988 14.601,2.041 15.740 C 2.160 18.285,2.507 19.501,3.379 20.433 C 4.245 21.360,5.318 21.742,7.580 21.927 C 8.488 22.002,15.512 22.002,16.420 21.927 C 18.857 21.727,19.992 21.275,20.860 20.157 C 21.474 19.368,21.771 18.329,21.927 16.420 C 22.002 15.512,22.002 8.488,21.927 7.580 C 21.740 5.297,21.356 4.232,20.407 3.355 C 19.572 2.585,18.492 2.242,16.380 2.078 C 15.684 2.023,9.573 1.995,8.419 2.041 M11.405 8.381 C 11.624 8.522,11.733 8.727,11.733 8.996 C 11.733 9.119,11.710 9.265,11.682 9.320 C 11.653 9.375,11.224 9.829,10.727 10.329 L 9.825 11.238 13.025 11.249 L 16.226 11.260 16.388 11.367 C 16.628 11.526,16.733 11.721,16.733 12.007 C 16.733 12.203,16.714 12.271,16.616 12.409 C 16.552 12.501,16.436 12.613,16.359 12.658 C 16.223 12.738,16.154 12.740,13.030 12.760 L 9.839 12.780 10.702 13.640 C 11.176 14.113,11.602 14.561,11.649 14.636 C 11.710 14.733,11.733 14.836,11.733 15.003 C 11.733 15.508,11.287 15.849,10.795 15.720 C 10.639 15.679,10.443 15.497,9.028 14.087 C 8.152 13.214,7.398 12.439,7.351 12.364 C 7.235 12.178,7.235 11.822,7.351 11.636 C 7.398 11.561,8.152 10.786,9.028 9.913 C 10.200 8.745,10.652 8.319,10.740 8.299 C 10.806 8.285,10.878 8.267,10.900 8.259 C 10.991 8.226,11.270 8.294,11.405 8.381 " fill="#1C274C" stroke="none" fill-rule="evenodd"></path></svg>