<svg width="24" height="24" viewBox="0 0 24 24" fill="none" xmlns="http://www.w3.org/2000/svg"><path d="M8.419 2.041 C 5.785 2.145,4.480 2.507,3.549 3.393 C 2.551 4.342,2.166 5.587,2.041 8.260 C 1.988 9.399,1.988 14.601,2.041 15.740 C 2.160 18.285,2.507 19.501,3.379 20.433 C 4.245 21.360,5.318 21.742,7.580 21.927 C 8.488 22.002,15.512 22.002,16.420 21.927 C 18.857 21.727,19.992 21.275,20.860 20.157 C 21.474 19.368,21.771 18.329,21.927 16.420 C 22.002 15.512,22.002 8.488,21.927 7.580 C 21.740 5.297,21.356 4.232,20.407 3.355 C 19.572 2.585,18.492 2.242,16.380 2.078 C 15.684 2.023,9.573 1.995,8.419 2.041 M12.427 7.891 C 12.667 8.057,15.582 11.004,15.661 11.159 C 15.748 11.332,15.752 11.662,15.669 11.821 C 15.478 12.186,15.068 12.336,14.690 12.178 C 14.592 12.137,14.110 11.686,13.271 10.850 L 12.000 9.583 10.729 10.850 C 9.890 11.686,9.408 12.137,9.310 12.178 C 8.932 12.336,8.522 12.186,8.331 11.821 C 8.248 11.662,8.252 11.332,8.338 11.159 C 8.437 10.964,11.504 7.900,11.680 7.821 C 11.892 7.727,12.236 7.759,12.427 7.891 M12.427 11.891 C 12.667 12.057,15.582 15.004,15.661 15.159 C 15.748 15.332,15.752 15.662,15.669 15.821 C 15.478 16.186,15.068 16.336,14.690 16.178 C 14.592 16.137,14.110 15.686,13.271 14.850 L 12.000 13.583 10.729 14.850 C 9.890 15.686,9.408 16.137,9.310 16.178 C 8.932 16.336,8.522 16.186,8.331 15.821 C 8.248 15.662,8.252 15.332,8.338 15.159 C 8.437 14.964,11.504 11.900,11.680 11.821 C 11.892 11.727,12.236 11.759,12.427 11.891 " fill="#1C274C" stroke="none" fill-rule="evenodd"></path></svg>