<svg width="24" height="24" viewBox="0 0 24 24" fill="none" xmlns="http://www.w3.org/2000/svg"><path d="M8.419 2.041 C 5.785 2.145,4.480 2.507,3.549 3.393 C 2.551 4.342,2.166 5.587,2.041 8.260 C 1.988 9.399,1.988 14.601,2.041 15.740 C 2.160 18.285,2.507 19.501,3.379 20.433 C 4.245 21.360,5.318 21.742,7.580 21.927 C 8.488 22.002,15.512 22.002,16.420 21.927 C 18.857 21.727,19.992 21.275,20.860 20.157 C 21.474 19.368,21.771 18.329,21.927 16.420 C 22.002 15.512,22.002 8.488,21.927 7.580 C 21.740 5.297,21.356 4.232,20.407 3.355 C 19.572 2.585,18.492 2.242,16.380 2.078 C 15.684 2.023,9.573 1.995,8.419 2.041 M10.856 6.393 C 11.053 6.527,11.163 6.737,11.169 6.987 C 11.177 7.331,11.108 7.413,10.031 8.350 L 9.031 9.220 13.126 9.240 L 17.220 9.260 17.373 9.355 C 17.615 9.506,17.733 9.718,17.733 10.003 C 17.733 10.203,17.714 10.270,17.616 10.409 C 17.552 10.501,17.436 10.613,17.359 10.658 C 17.221 10.740,17.189 10.740,12.000 10.740 C 6.811 10.740,6.779 10.740,6.641 10.658 C 6.564 10.613,6.448 10.501,6.384 10.409 C 6.287 10.271,6.267 10.203,6.267 10.009 C 6.267 9.851,6.291 9.732,6.343 9.644 C 6.408 9.533,9.421 6.859,9.947 6.445 C 10.240 6.215,10.569 6.196,10.856 6.393 M17.373 13.355 C 17.612 13.504,17.733 13.719,17.733 13.995 C 17.733 14.149,17.708 14.268,17.657 14.357 C 17.584 14.482,14.088 17.568,13.907 17.668 C 13.667 17.799,13.301 17.760,13.087 17.579 C 12.843 17.375,12.758 16.965,12.898 16.671 C 12.947 16.566,13.271 16.258,13.969 15.651 L 14.969 14.780 10.875 14.760 C 6.838 14.740,6.778 14.739,6.641 14.658 C 6.564 14.613,6.448 14.501,6.384 14.409 C 6.098 14.003,6.330 13.395,6.815 13.278 C 6.884 13.261,9.253 13.250,12.080 13.254 L 17.220 13.260 17.373 13.355 " fill="#1C274C" stroke="none" fill-rule="evenodd"></path></svg>