<svg width="24" height="24" viewBox="0 0 24 24" fill="none" xmlns="http://www.w3.org/2000/svg"><path d="M16.807 1.289 C 16.431 1.370,16.189 1.795,16.288 2.202 C 16.327 2.365,16.496 2.545,18.252 4.307 L 20.172 6.234 16.736 6.251 C 13.417 6.268,13.286 6.271,12.902 6.353 C 12.132 6.518,11.478 6.786,10.868 7.185 C 10.490 7.433,9.433 8.490,9.185 8.868 C 8.783 9.481,8.514 10.143,8.356 10.902 C 8.282 11.259,8.271 11.486,8.252 13.101 C 8.227 15.175,8.237 15.277,8.479 15.519 C 8.889 15.929,9.595 15.725,9.716 15.162 C 9.744 15.030,9.760 14.343,9.760 13.242 C 9.760 11.406,9.777 11.196,9.975 10.616 C 10.184 9.999,10.387 9.690,10.977 9.086 C 11.599 8.449,11.979 8.191,12.616 7.975 C 13.243 7.761,13.270 7.760,16.853 7.760 L 20.178 7.760 18.253 9.690 C 16.371 11.577,16.327 11.624,16.286 11.822 C 16.168 12.391,16.613 12.829,17.190 12.711 C 17.373 12.674,17.472 12.580,20.026 10.026 C 22.580 7.472,22.674 7.373,22.711 7.190 C 22.737 7.067,22.737 6.933,22.711 6.810 C 22.673 6.627,22.578 6.526,20.067 4.010 C 18.634 2.575,17.408 1.376,17.341 1.345 C 17.163 1.264,17.002 1.247,16.807 1.289 M8.419 2.043 C 5.807 2.139,4.481 2.507,3.549 3.393 C 2.551 4.342,2.166 5.587,2.041 8.260 C 1.988 9.399,1.988 14.601,2.041 15.740 C 2.160 18.285,2.507 19.501,3.379 20.433 C 4.326 21.446,5.580 21.837,8.280 21.959 C 9.445 22.011,14.555 22.011,15.720 21.959 C 18.275 21.843,19.498 21.496,20.433 20.621 C 21.348 19.766,21.731 18.705,21.923 16.500 C 21.948 16.206,21.977 14.717,21.988 13.080 L 22.007 10.180 20.154 12.022 C 18.511 13.654,18.270 13.879,18.040 13.991 C 16.793 14.601,15.397 14.060,14.891 12.771 C 14.796 12.529,14.784 12.447,14.784 12.000 C 14.784 11.556,14.796 11.470,14.888 11.235 C 15.056 10.810,15.172 10.659,15.895 9.927 L 16.580 9.234 15.060 9.251 C 13.392 9.269,13.313 9.279,12.800 9.528 C 12.611 9.620,12.424 9.767,12.115 10.069 C 11.659 10.513,11.517 10.728,11.356 11.220 C 11.267 11.492,11.264 11.557,11.241 13.500 L 11.218 15.500 11.110 15.771 C 10.749 16.682,9.947 17.240,9.000 17.240 C 8.053 17.240,7.254 16.684,6.889 15.771 L 6.780 15.500 6.767 13.580 C 6.759 12.348,6.770 11.502,6.799 11.220 C 6.987 9.388,7.835 7.798,9.318 6.500 C 10.269 5.668,11.398 5.117,12.649 4.874 C 13.059 4.794,13.257 4.785,14.835 4.770 L 16.570 4.753 15.890 4.067 C 15.516 3.689,15.161 3.301,15.101 3.205 C 14.939 2.944,14.806 2.559,14.776 2.263 L 14.749 2.000 12.004 2.006 C 10.495 2.010,8.882 2.026,8.419 2.043 " fill="#1C274C" stroke="none" fill-rule="evenodd"></path></svg>