<svg width="24" height="24" viewBox="0 0 24 24" fill="none" xmlns="http://www.w3.org/2000/svg"><path d="M8.419 2.041 C 5.785 2.145,4.480 2.507,3.549 3.393 C 2.551 4.342,2.166 5.587,2.041 8.260 C 1.988 9.399,1.988 14.601,2.041 15.740 C 2.160 18.285,2.507 19.501,3.379 20.433 C 4.245 21.360,5.318 21.742,7.580 21.927 C 8.488 22.002,15.512 22.002,16.420 21.927 C 18.857 21.727,19.992 21.275,20.860 20.157 C 21.474 19.368,21.771 18.329,21.927 16.420 C 22.002 15.512,22.002 8.488,21.927 7.580 C 21.740 5.297,21.356 4.232,20.407 3.355 C 19.572 2.585,18.492 2.242,16.380 2.078 C 15.684 2.023,9.573 1.995,8.419 2.041 M8.860 8.350 C 9.000 8.419,11.952 11.347,12.107 11.571 C 12.232 11.751,12.271 12.043,12.199 12.265 C 12.160 12.387,11.826 12.745,10.625 13.952 C 9.786 14.795,9.021 15.537,8.924 15.602 C 8.603 15.815,8.297 15.798,8.013 15.549 C 7.765 15.331,7.691 15.002,7.822 14.690 C 7.863 14.592,8.314 14.110,9.150 13.271 L 10.417 12.000 9.150 10.729 C 8.314 9.890,7.863 9.408,7.822 9.310 C 7.746 9.128,7.742 8.880,7.814 8.708 C 7.881 8.548,8.124 8.329,8.271 8.297 C 8.331 8.284,8.398 8.267,8.420 8.260 C 8.488 8.237,8.734 8.288,8.860 8.350 M12.860 8.350 C 13.000 8.419,15.952 11.347,16.107 11.571 C 16.232 11.751,16.271 12.043,16.199 12.265 C 16.160 12.387,15.826 12.745,14.625 13.952 C 13.786 14.795,13.021 15.537,12.924 15.602 C 12.603 15.815,12.297 15.798,12.013 15.549 C 11.765 15.331,11.691 15.002,11.822 14.690 C 11.863 14.592,12.314 14.110,13.150 13.271 L 14.417 12.000 13.150 10.729 C 12.314 9.890,11.863 9.408,11.822 9.310 C 11.746 9.128,11.742 8.880,11.814 8.708 C 11.881 8.548,12.124 8.329,12.271 8.297 C 12.331 8.284,12.398 8.267,12.420 8.260 C 12.488 8.237,12.734 8.288,12.860 8.350 " fill="#1C274C" stroke="none" fill-rule="evenodd"></path></svg>