<svg width="24" height="24" viewBox="0 0 24 24" fill="none" xmlns="http://www.w3.org/2000/svg"><path d="M8.419 2.041 C 5.785 2.145,4.480 2.507,3.549 3.393 C 2.551 4.342,2.166 5.587,2.041 8.260 C 1.988 9.399,1.988 14.601,2.041 15.740 C 2.160 18.285,2.507 19.501,3.379 20.433 C 4.245 21.360,5.318 21.742,7.580 21.927 C 8.488 22.002,15.512 22.002,16.420 21.927 C 18.857 21.727,19.992 21.275,20.860 20.157 C 21.474 19.368,21.771 18.329,21.927 16.420 C 22.002 15.512,22.002 8.488,21.927 7.580 C 21.740 5.297,21.356 4.232,20.407 3.355 C 19.572 2.585,18.492 2.242,16.380 2.078 C 15.684 2.023,9.573 1.995,8.419 2.041 M9.512 8.517 C 9.593 8.560,10.650 9.586,11.860 10.798 L 14.060 13.000 14.080 11.667 C 14.100 10.339,14.100 10.333,14.196 10.193 C 14.530 9.707,15.221 9.733,15.481 10.242 C 15.557 10.391,15.560 10.487,15.560 12.700 C 15.560 14.543,15.549 15.028,15.506 15.132 C 15.424 15.329,15.197 15.505,14.961 15.556 C 14.690 15.614,10.693 15.615,10.441 15.557 C 9.780 15.405,9.631 14.582,10.193 14.196 C 10.333 14.100,10.339 14.100,11.667 14.080 L 13.000 14.060 10.798 11.860 C 9.586 10.650,8.560 9.593,8.517 9.512 C 8.377 9.243,8.426 8.886,8.633 8.665 C 8.849 8.434,9.229 8.370,9.512 8.517 " fill="#1C274C" stroke="none" fill-rule="evenodd"></path></svg>