<svg width="24" height="24" viewBox="0 0 24 24" fill="none" xmlns="http://www.w3.org/2000/svg"><path d="M8.419 2.041 C 5.785 2.145,4.480 2.507,3.549 3.393 C 2.551 4.342,2.166 5.587,2.041 8.260 C 1.988 9.399,1.988 14.601,2.041 15.740 C 2.160 18.285,2.507 19.501,3.379 20.433 C 4.245 21.360,5.318 21.742,7.580 21.927 C 8.488 22.002,15.512 22.002,16.420 21.927 C 18.857 21.727,19.992 21.275,20.860 20.157 C 21.474 19.368,21.771 18.329,21.927 16.420 C 22.002 15.512,22.002 8.488,21.927 7.580 C 21.740 5.297,21.356 4.232,20.407 3.355 C 19.572 2.585,18.492 2.242,16.380 2.078 C 15.684 2.023,9.573 1.995,8.419 2.041 M12.427 9.891 C 12.667 10.057,15.582 13.004,15.661 13.159 C 15.748 13.332,15.752 13.662,15.669 13.821 C 15.478 14.186,15.068 14.336,14.690 14.178 C 14.592 14.137,14.110 13.686,13.271 12.850 L 12.000 11.583 10.729 12.850 C 9.890 13.686,9.408 14.137,9.310 14.178 C 8.932 14.336,8.522 14.186,8.331 13.821 C 8.248 13.662,8.252 13.332,8.338 13.159 C 8.437 12.964,11.504 9.900,11.680 9.821 C 11.892 9.727,12.236 9.759,12.427 9.891 " fill="#1C274C" stroke="none" fill-rule="evenodd"></path></svg>