<svg width="24" height="24" viewBox="0 0 24 24" fill="none" xmlns="http://www.w3.org/2000/svg"><path d="M8.419 2.041 C 5.785 2.145,4.480 2.507,3.549 3.393 C 2.551 4.342,2.166 5.587,2.041 8.260 C 1.988 9.399,1.988 14.601,2.041 15.740 C 2.160 18.285,2.507 19.501,3.379 20.433 C 4.245 21.360,5.318 21.742,7.580 21.927 C 8.488 22.002,15.512 22.002,16.420 21.927 C 18.857 21.727,19.992 21.275,20.860 20.157 C 21.474 19.368,21.771 18.329,21.927 16.420 C 22.002 15.512,22.002 8.488,21.927 7.580 C 21.740 5.297,21.356 4.232,20.407 3.355 C 19.572 2.585,18.492 2.242,16.380 2.078 C 15.684 2.023,9.573 1.995,8.419 2.041 M13.758 8.519 C 14.267 8.779,14.293 9.470,13.807 9.804 C 13.667 9.900,13.661 9.900,12.333 9.920 L 11.000 9.940 13.202 12.140 C 14.414 13.350,15.440 14.407,15.483 14.488 C 15.573 14.662,15.583 14.947,15.506 15.132 C 15.426 15.324,15.188 15.515,14.989 15.546 C 14.896 15.561,14.820 15.573,14.820 15.573 C 14.820 15.573,14.739 15.561,14.640 15.545 C 14.466 15.517,14.380 15.436,12.192 13.250 L 9.923 10.985 9.912 12.322 L 9.900 13.660 9.802 13.805 C 9.471 14.293,8.779 14.268,8.519 13.758 C 8.443 13.609,8.440 13.513,8.440 11.304 C 8.440 9.777,8.454 8.967,8.483 8.893 C 8.539 8.744,8.711 8.563,8.860 8.497 C 8.956 8.454,9.449 8.443,11.292 8.442 C 13.515 8.440,13.609 8.443,13.758 8.519 " fill="#1C274C" stroke="none" fill-rule="evenodd"></path></svg>