<svg width="24" height="24" viewBox="0 0 24 24" fill="none" xmlns="http://www.w3.org/2000/svg"><path d="M8.419 2.041 C 5.785 2.145,4.480 2.507,3.549 3.393 C 2.551 4.342,2.166 5.587,2.041 8.260 C 1.988 9.399,1.988 14.601,2.041 15.740 C 2.160 18.285,2.507 19.501,3.379 20.433 C 4.245 21.360,5.318 21.742,7.580 21.927 C 8.488 22.002,15.512 22.002,16.420 21.927 C 18.857 21.727,19.992 21.275,20.860 20.157 C 21.474 19.368,21.771 18.329,21.927 16.420 C 22.002 15.512,22.002 8.488,21.927 7.580 C 21.740 5.297,21.356 4.232,20.407 3.355 C 19.572 2.585,18.492 2.242,16.380 2.078 C 15.684 2.023,9.573 1.995,8.419 2.041 M9.820 7.330 C 9.925 7.382,10.115 7.559,10.173 7.660 C 10.207 7.718,10.225 8.600,10.240 10.896 L 10.260 14.051 10.851 13.396 C 11.177 13.035,11.518 12.691,11.610 12.630 C 11.954 12.402,12.460 12.530,12.647 12.892 C 12.751 13.092,12.761 13.405,12.669 13.581 C 12.599 13.714,10.117 16.454,9.941 16.592 C 9.692 16.788,9.373 16.802,9.114 16.628 C 8.949 16.517,6.417 13.746,6.331 13.581 C 6.239 13.405,6.249 13.092,6.353 12.892 C 6.540 12.530,7.046 12.402,7.390 12.630 C 7.482 12.691,7.823 13.035,8.149 13.396 L 8.740 14.051 8.760 10.896 C 8.775 8.529,8.792 7.719,8.828 7.655 C 8.905 7.523,9.150 7.324,9.271 7.297 C 9.331 7.284,9.398 7.267,9.420 7.260 C 9.478 7.240,9.727 7.284,9.820 7.330 M14.839 7.340 C 14.959 7.402,15.286 7.746,16.698 9.300 C 17.197 9.850,17.634 10.354,17.669 10.419 C 17.761 10.595,17.751 10.908,17.647 11.108 C 17.468 11.454,16.994 11.594,16.653 11.403 C 16.568 11.355,16.220 11.008,15.879 10.632 L 15.260 9.947 15.240 13.104 C 15.225 15.400,15.207 16.282,15.173 16.340 C 15.048 16.556,14.720 16.760,14.500 16.760 C 14.280 16.760,13.952 16.556,13.827 16.340 C 13.793 16.282,13.775 15.400,13.760 13.104 L 13.740 9.947 13.121 10.632 C 12.780 11.008,12.432 11.355,12.347 11.403 C 12.006 11.594,11.532 11.454,11.353 11.108 C 11.249 10.908,11.239 10.595,11.331 10.419 C 11.388 10.311,13.833 7.601,14.031 7.426 C 14.237 7.245,14.584 7.208,14.839 7.340 " fill="#1C274C" stroke="none" fill-rule="evenodd"></path></svg>