<svg width="24" height="24" viewBox="0 0 24 24" fill="none" xmlns="http://www.w3.org/2000/svg"><path d="M11.345 3.043 C 11.001 3.090,10.506 3.216,10.185 3.337 C 9.979 3.414,5.567 5.464,5.527 5.501 C 5.520 5.508,5.615 5.534,5.739 5.560 C 6.516 5.721,7.214 6.395,7.419 7.182 C 7.496 7.478,7.497 8.033,7.421 8.320 C 7.286 8.826,6.925 9.338,6.511 9.609 C 6.395 9.685,5.850 9.941,5.300 10.178 C 4.750 10.415,4.229 10.645,4.142 10.690 L 3.983 10.770 4.202 10.880 C 4.322 10.941,5.689 11.585,7.240 12.311 C 10.699 13.930,10.841 13.980,12.000 13.980 C 12.677 13.980,12.966 13.937,13.560 13.751 C 13.956 13.626,20.781 10.454,21.131 10.232 C 21.362 10.085,21.616 9.804,21.739 9.560 C 21.930 9.179,21.979 8.961,21.979 8.500 C 21.979 8.174,21.960 8.003,21.904 7.840 C 21.741 7.361,21.507 7.025,21.186 6.805 C 20.939 6.636,14.042 3.412,13.643 3.280 C 13.454 3.217,13.157 3.136,12.981 3.101 C 12.593 3.022,11.720 2.991,11.345 3.043 M4.140 7.415 C 2.812 7.988,2.741 8.020,2.380 8.230 C 1.958 8.474,1.503 8.930,1.333 9.280 C 1.035 9.892,0.993 10.374,1.008 12.983 L 1.020 14.986 1.130 15.152 C 1.453 15.640,2.234 15.565,2.437 15.027 C 2.465 14.954,2.480 14.272,2.481 13.067 C 2.482 11.228,2.516 10.399,2.601 10.106 C 2.712 9.723,3.076 9.492,4.560 8.860 C 5.011 8.667,5.465 8.467,5.570 8.414 C 6.141 8.127,6.124 7.340,5.542 7.075 C 5.263 6.949,5.163 6.973,4.140 7.415 M5.000 14.871 C 5.000 16.039,5.017 16.924,5.043 17.080 C 5.169 17.863,5.585 18.531,6.200 18.940 C 6.521 19.153,7.665 19.741,8.280 20.008 C 9.489 20.533,10.645 20.875,11.510 20.964 C 12.607 21.077,13.974 20.766,15.720 20.008 C 16.321 19.747,17.490 19.146,17.807 18.935 C 18.422 18.527,18.838 17.848,18.959 17.059 C 18.986 16.882,18.998 16.076,18.991 14.854 L 18.980 12.927 16.760 13.968 C 14.400 15.075,13.919 15.265,13.123 15.405 C 12.476 15.520,11.519 15.519,10.863 15.403 C 10.096 15.268,9.591 15.071,7.520 14.099 C 6.453 13.598,5.450 13.128,5.290 13.055 L 5.000 12.922 5.000 14.871 " fill="#1C274C" stroke="none" fill-rule="evenodd"></path></svg>