<svg width="24" height="24" viewBox="0 0 24 24" fill="none" xmlns="http://www.w3.org/2000/svg"><path d="M8.419 2.041 C 5.785 2.145,4.480 2.507,3.549 3.393 C 2.551 4.342,2.166 5.587,2.041 8.260 C 1.988 9.399,1.988 14.601,2.041 15.740 C 2.160 18.285,2.507 19.501,3.379 20.433 C 4.245 21.360,5.318 21.742,7.580 21.927 C 8.488 22.002,15.512 22.002,16.420 21.927 C 18.857 21.727,19.992 21.275,20.860 20.157 C 21.474 19.368,21.771 18.329,21.927 16.420 C 22.002 15.512,22.002 8.488,21.927 7.580 C 21.740 5.297,21.356 4.232,20.407 3.355 C 19.572 2.585,18.492 2.242,16.380 2.078 C 15.684 2.023,9.573 1.995,8.419 2.041 M15.131 8.495 C 15.287 8.562,15.460 8.739,15.517 8.893 C 15.584 9.068,15.568 9.348,15.483 9.512 C 15.440 9.593,14.414 10.650,13.202 11.860 L 11.000 14.060 12.333 14.080 C 13.661 14.100,13.667 14.100,13.807 14.196 C 14.369 14.582,14.220 15.405,13.559 15.557 C 13.307 15.615,9.310 15.614,9.039 15.556 C 8.803 15.505,8.576 15.329,8.494 15.132 C 8.451 15.028,8.440 14.543,8.440 12.700 C 8.440 10.487,8.443 10.391,8.519 10.242 C 8.779 9.733,9.470 9.707,9.804 10.193 L 9.900 10.334 9.912 11.675 L 9.923 13.017 12.152 10.792 C 13.377 9.569,14.434 8.540,14.500 8.506 C 14.650 8.428,14.962 8.422,15.131 8.495 " fill="#1C274C" stroke="none" fill-rule="evenodd"></path></svg>