<svg width="24" height="24" viewBox="0 0 24 24" fill="none" xmlns="http://www.w3.org/2000/svg"><path d="M15.820 1.639 C 15.553 1.745,15.522 1.932,15.521 3.431 C 15.520 4.397,15.509 4.686,15.470 4.697 C 15.443 4.705,15.177 4.731,14.880 4.756 C 13.112 4.903,11.620 5.572,10.460 6.738 C 9.154 8.050,8.439 9.679,8.102 12.111 C 7.933 13.338,8.057 13.365,9.339 12.381 C 10.161 11.748,10.753 11.399,11.568 11.065 C 12.675 10.612,13.946 10.334,15.021 10.310 L 15.500 10.300 15.521 11.660 C 15.534 12.525,15.558 13.056,15.586 13.120 C 15.641 13.242,15.750 13.341,15.870 13.378 C 15.997 13.417,16.323 13.256,16.640 12.997 C 17.412 12.367,20.529 9.634,20.946 9.221 C 21.677 8.497,21.924 8.062,21.924 7.500 C 21.924 6.938,21.677 6.503,20.946 5.779 C 20.523 5.360,17.363 2.590,16.640 2.004 C 16.253 1.691,15.987 1.572,15.820 1.639 M8.419 2.043 C 5.807 2.139,4.481 2.507,3.549 3.393 C 2.551 4.342,2.166 5.587,2.041 8.260 C 1.988 9.399,1.988 14.601,2.041 15.740 C 2.160 18.285,2.507 19.501,3.379 20.433 C 4.326 21.446,5.580 21.837,8.280 21.959 C 9.445 22.011,14.555 22.011,15.720 21.959 C 18.275 21.843,19.498 21.496,20.433 20.621 C 21.348 19.766,21.732 18.703,21.923 16.500 C 21.948 16.212,21.977 14.715,21.989 13.143 L 22.009 10.307 21.595 10.684 C 21.367 10.892,20.775 11.413,20.280 11.844 C 17.266 14.463,17.101 14.593,16.553 14.777 C 15.651 15.080,14.742 14.716,14.300 13.874 C 14.114 13.520,14.046 13.191,14.014 12.490 C 13.999 12.176,13.982 11.920,13.976 11.920 C 13.801 11.920,12.650 12.250,12.222 12.423 C 11.437 12.739,11.039 12.977,10.106 13.685 C 9.117 14.435,8.661 14.637,8.063 14.587 C 7.282 14.521,6.655 13.882,6.562 13.058 C 6.490 12.418,6.733 10.835,7.086 9.646 C 7.721 7.507,8.930 5.801,10.620 4.661 C 11.429 4.116,12.590 3.629,13.554 3.432 L 14.000 3.341 14.000 2.881 C 14.001 2.627,14.012 2.326,14.026 2.210 L 14.051 2.000 11.656 2.006 C 10.338 2.010,8.882 2.026,8.419 2.043 " fill="#1C274C" stroke="none" fill-rule="evenodd"></path></svg>