<svg width="24" height="24" viewBox="0 0 24 24" fill="none" xmlns="http://www.w3.org/2000/svg"><path d="M8.419 2.041 C 5.785 2.145,4.480 2.507,3.549 3.393 C 2.551 4.342,2.166 5.587,2.041 8.260 C 1.988 9.399,1.988 14.601,2.041 15.740 C 2.160 18.285,2.507 19.501,3.379 20.433 C 4.245 21.360,5.318 21.742,7.580 21.927 C 8.488 22.002,15.512 22.002,16.420 21.927 C 18.857 21.727,19.992 21.275,20.860 20.157 C 21.474 19.368,21.771 18.329,21.927 16.420 C 22.002 15.512,22.002 8.488,21.927 7.580 C 21.740 5.297,21.356 4.232,20.407 3.355 C 19.572 2.585,18.492 2.242,16.380 2.078 C 15.684 2.023,9.573 1.995,8.419 2.041 M15.107 8.483 C 15.261 8.540,15.438 8.713,15.505 8.869 C 15.550 8.973,15.560 9.434,15.560 11.300 C 15.560 13.481,15.556 13.611,15.484 13.752 C 15.391 13.935,15.300 14.019,15.110 14.098 C 14.787 14.233,14.416 14.123,14.214 13.832 L 14.100 13.667 14.088 12.326 L 14.077 10.985 11.808 13.250 C 9.620 15.436,9.534 15.517,9.360 15.545 C 9.261 15.561,9.171 15.572,9.160 15.570 C 9.149 15.568,9.073 15.556,8.991 15.543 C 8.813 15.515,8.570 15.314,8.494 15.132 C 8.417 14.947,8.427 14.662,8.517 14.488 C 8.560 14.407,9.586 13.350,10.798 12.140 L 13.000 9.940 11.667 9.920 C 10.339 9.900,10.333 9.900,10.193 9.804 C 9.886 9.593,9.768 9.239,9.896 8.906 C 9.967 8.719,10.069 8.607,10.260 8.506 C 10.365 8.451,10.663 8.443,12.687 8.442 C 14.224 8.441,15.032 8.454,15.107 8.483 " fill="#1C274C" stroke="none" fill-rule="evenodd"></path></svg>