<svg width="24" height="24" viewBox="0 0 24 24" fill="none" xmlns="http://www.w3.org/2000/svg"><path d="M8.419 2.041 C 5.785 2.145,4.480 2.507,3.549 3.393 C 2.551 4.342,2.166 5.587,2.041 8.260 C 1.988 9.399,1.988 14.601,2.041 15.740 C 2.160 18.285,2.507 19.501,3.379 20.433 C 4.245 21.360,5.318 21.742,7.580 21.927 C 8.488 22.002,15.512 22.002,16.420 21.927 C 18.857 21.727,19.992 21.275,20.860 20.157 C 21.474 19.368,21.771 18.329,21.927 16.420 C 22.002 15.512,22.002 8.488,21.927 7.580 C 21.740 5.297,21.356 4.232,20.407 3.355 C 19.572 2.585,18.492 2.242,16.380 2.078 C 15.684 2.023,9.573 1.995,8.419 2.041 M9.310 9.822 C 9.408 9.863,9.890 10.314,10.729 11.150 L 12.000 12.417 13.271 11.150 C 14.110 10.314,14.592 9.863,14.690 9.822 C 15.068 9.664,15.478 9.814,15.669 10.179 C 15.752 10.338,15.748 10.668,15.661 10.841 C 15.582 10.998,12.666 13.943,12.423 14.111 C 12.291 14.203,12.225 14.220,12.000 14.220 C 11.775 14.220,11.709 14.203,11.577 14.111 C 11.334 13.943,8.418 10.998,8.339 10.841 C 8.252 10.668,8.248 10.338,8.331 10.179 C 8.408 10.030,8.589 9.857,8.720 9.805 C 8.871 9.745,9.145 9.753,9.310 9.822 " fill="#1C274C" stroke="none" fill-rule="evenodd"></path></svg>