<svg width="24" height="24" viewBox="0 0 24 24" fill="none" xmlns="http://www.w3.org/2000/svg"><path d="M8.419 2.041 C 5.785 2.145,4.480 2.507,3.549 3.393 C 2.551 4.342,2.166 5.587,2.041 8.260 C 1.988 9.399,1.988 14.601,2.041 15.740 C 2.160 18.285,2.507 19.501,3.379 20.433 C 4.245 21.360,5.318 21.742,7.580 21.927 C 8.488 22.002,15.512 22.002,16.420 21.927 C 18.857 21.727,19.992 21.275,20.860 20.157 C 21.474 19.368,21.771 18.329,21.927 16.420 C 22.002 15.512,22.002 8.488,21.927 7.580 C 21.740 5.297,21.356 4.232,20.407 3.355 C 19.572 2.585,18.492 2.242,16.380 2.078 C 15.684 2.023,9.573 1.995,8.419 2.041 M11.840 8.342 C 11.977 8.412,12.146 8.597,12.197 8.733 C 12.258 8.893,12.250 9.139,12.178 9.310 C 12.137 9.408,11.686 9.890,10.850 10.729 L 9.583 12.000 10.850 13.271 C 11.686 14.110,12.137 14.592,12.178 14.690 C 12.309 15.002,12.235 15.331,11.987 15.549 C 11.703 15.798,11.397 15.815,11.076 15.601 C 10.788 15.410,7.894 12.483,7.822 12.311 C 7.743 12.122,7.743 11.878,7.822 11.689 C 7.888 11.531,10.766 8.610,11.049 8.414 C 11.298 8.241,11.590 8.214,11.840 8.342 M15.840 8.342 C 15.977 8.412,16.146 8.597,16.197 8.733 C 16.258 8.893,16.250 9.139,16.178 9.310 C 16.137 9.408,15.686 9.890,14.850 10.729 L 13.583 12.000 14.850 13.271 C 15.686 14.110,16.137 14.592,16.178 14.690 C 16.309 15.002,16.235 15.331,15.987 15.549 C 15.703 15.798,15.397 15.815,15.076 15.601 C 14.788 15.410,11.894 12.483,11.822 12.311 C 11.743 12.122,11.743 11.878,11.822 11.689 C 11.888 11.531,14.766 8.610,15.049 8.414 C 15.298 8.241,15.590 8.214,15.840 8.342 " fill="#1C274C" stroke="none" fill-rule="evenodd"></path></svg>