<svg width="24" height="24" viewBox="0 0 24 24" fill="none" xmlns="http://www.w3.org/2000/svg"><path d="M8.419 2.041 C 5.785 2.145,4.480 2.507,3.549 3.393 C 2.535 4.357,2.162 5.590,2.037 8.388 C 1.981 9.644,2.010 15.741,2.076 16.500 C 2.130 17.116,2.262 18.076,2.323 18.296 L 2.367 18.452 3.964 16.856 L 5.561 15.260 5.030 15.235 C 4.646 15.217,4.437 15.187,4.272 15.128 C 3.621 14.893,3.150 14.430,2.891 13.771 C 2.796 13.529,2.784 13.447,2.784 13.000 C 2.784 12.556,2.796 12.470,2.888 12.235 C 3.147 11.579,3.571 11.152,4.229 10.889 L 4.500 10.780 8.000 10.780 L 11.500 10.780 11.771 10.889 C 12.428 11.152,12.848 11.573,13.114 12.235 L 13.220 12.500 13.220 16.000 L 13.220 19.500 13.111 19.771 C 12.745 20.685,11.947 21.240,11.000 21.240 C 10.052 21.240,9.240 20.674,8.893 19.771 C 8.806 19.543,8.786 19.414,8.769 18.966 L 8.749 18.431 7.156 20.024 C 6.064 21.116,5.578 21.627,5.614 21.647 C 5.692 21.690,6.558 21.832,7.037 21.879 C 8.042 21.979,9.543 22.008,12.714 21.989 C 14.657 21.977,16.191 21.951,16.500 21.923 C 18.885 21.714,20.002 21.261,20.860 20.157 C 21.474 19.368,21.771 18.329,21.927 16.420 C 22.002 15.512,22.002 8.488,21.927 7.580 C 21.740 5.297,21.356 4.232,20.407 3.355 C 19.572 2.585,18.492 2.242,16.380 2.078 C 15.684 2.023,9.573 1.995,8.419 2.041 M4.807 12.287 C 4.568 12.341,4.341 12.572,4.289 12.816 C 4.197 13.246,4.431 13.629,4.838 13.716 C 4.973 13.745,5.753 13.760,7.111 13.760 L 9.179 13.760 5.755 17.190 C 2.585 20.364,2.327 20.633,2.287 20.798 C 2.150 21.367,2.609 21.831,3.190 21.711 C 3.374 21.674,3.490 21.562,6.810 18.247 L 10.240 14.821 10.240 16.889 C 10.240 18.247,10.255 19.027,10.284 19.162 C 10.447 19.920,11.553 19.920,11.716 19.162 C 11.777 18.875,11.777 13.125,11.716 12.838 C 11.655 12.554,11.446 12.345,11.162 12.284 C 10.899 12.228,5.061 12.230,4.807 12.287 " fill="#1C274C" stroke="none" fill-rule="evenodd"></path></svg>