<svg width="24" height="24" viewBox="0 0 24 24" fill="none" xmlns="http://www.w3.org/2000/svg"><path d="M11.345 3.043 C 11.000 3.090,10.506 3.216,10.184 3.337 C 9.787 3.486,3.081 6.638,2.858 6.780 C 2.508 7.003,2.269 7.336,2.096 7.840 C 2.038 8.009,2.021 8.167,2.023 8.520 C 2.026 8.916,2.041 9.019,2.133 9.265 L 2.240 9.550 2.240 12.087 L 2.240 14.624 2.339 14.822 C 2.619 15.378,3.368 15.380,3.672 14.824 C 3.733 14.713,3.742 14.482,3.760 12.694 L 3.780 10.688 6.880 12.144 C 10.694 13.934,10.821 13.980,12.000 13.980 C 12.677 13.980,12.966 13.938,13.560 13.751 C 13.956 13.626,20.781 10.454,21.131 10.232 C 21.693 9.875,22.035 9.136,21.988 8.380 C 21.945 7.699,21.653 7.125,21.186 6.805 C 20.939 6.635,14.044 3.413,13.644 3.280 C 13.455 3.217,13.157 3.136,12.981 3.101 C 12.593 3.022,11.720 2.991,11.345 3.043 M5.000 14.872 C 5.000 16.039,5.017 16.924,5.043 17.080 C 5.169 17.863,5.585 18.531,6.200 18.940 C 6.521 19.153,7.665 19.741,8.280 20.008 C 9.489 20.533,10.645 20.875,11.510 20.964 C 12.607 21.077,13.974 20.766,15.720 20.008 C 16.335 19.741,17.479 19.153,17.800 18.940 C 18.422 18.526,18.838 17.852,18.959 17.059 C 18.986 16.882,18.998 16.076,18.991 14.854 L 18.980 12.927 16.760 13.968 C 14.400 15.075,13.919 15.265,13.123 15.405 C 12.476 15.520,11.519 15.519,10.863 15.403 C 10.094 15.267,9.593 15.071,7.480 14.079 C 6.391 13.568,5.388 13.099,5.250 13.037 L 5.000 12.923 5.000 14.872 " fill="#1C274C" stroke="none" fill-rule="evenodd"></path></svg>