<svg width="24" height="24" viewBox="0 0 24 24" fill="none" xmlns="http://www.w3.org/2000/svg"><path d="M8.419 2.041 C 5.785 2.145,4.480 2.507,3.549 3.393 C 2.551 4.342,2.166 5.587,2.041 8.260 C 1.988 9.399,1.988 14.601,2.041 15.740 C 2.160 18.285,2.507 19.501,3.379 20.433 C 4.245 21.360,5.318 21.742,7.580 21.927 C 8.488 22.002,15.512 22.002,16.420 21.927 C 18.857 21.727,19.992 21.275,20.860 20.157 C 21.474 19.368,21.771 18.329,21.927 16.420 C 22.002 15.512,22.002 8.488,21.927 7.580 C 21.740 5.297,21.356 4.232,20.407 3.355 C 19.572 2.585,18.492 2.242,16.380 2.078 C 15.684 2.023,9.573 1.995,8.419 2.041 M9.310 7.822 C 9.408 7.863,9.890 8.314,10.729 9.150 L 12.000 10.417 13.271 9.150 C 14.110 8.314,14.592 7.863,14.690 7.822 C 15.068 7.664,15.478 7.814,15.669 8.179 C 15.752 8.338,15.748 8.668,15.661 8.841 C 15.582 8.998,12.666 11.943,12.423 12.111 C 12.291 12.203,12.225 12.220,12.000 12.220 C 11.775 12.220,11.709 12.203,11.577 12.111 C 11.334 11.943,8.418 8.998,8.339 8.841 C 8.252 8.668,8.248 8.338,8.331 8.179 C 8.408 8.030,8.589 7.857,8.720 7.805 C 8.871 7.745,9.145 7.753,9.310 7.822 M9.310 11.822 C 9.408 11.863,9.890 12.314,10.729 13.150 L 12.000 14.417 13.271 13.150 C 14.110 12.314,14.592 11.863,14.690 11.822 C 15.068 11.664,15.478 11.814,15.669 12.179 C 15.752 12.338,15.748 12.668,15.661 12.841 C 15.582 12.998,12.666 15.943,12.423 16.111 C 12.291 16.203,12.225 16.220,12.000 16.220 C 11.775 16.220,11.709 16.203,11.577 16.111 C 11.334 15.943,8.418 12.998,8.339 12.841 C 8.252 12.668,8.248 12.338,8.331 12.179 C 8.408 12.030,8.589 11.857,8.720 11.805 C 8.871 11.745,9.145 11.753,9.310 11.822 " fill="#1C274C" stroke="none" fill-rule="evenodd"></path></svg>