<svg width="24" height="24" viewBox="0 0 24 24" fill="none" xmlns="http://www.w3.org/2000/svg"><path d="M8.419 2.041 C 5.785 2.145,4.480 2.507,3.549 3.393 C 2.551 4.342,2.166 5.587,2.041 8.260 C 1.988 9.399,1.988 14.601,2.041 15.740 C 2.160 18.285,2.507 19.501,3.379 20.433 C 4.245 21.360,5.318 21.742,7.580 21.927 C 8.488 22.002,15.512 22.002,16.420 21.927 C 18.857 21.727,19.992 21.275,20.860 20.157 C 21.474 19.368,21.771 18.329,21.927 16.420 C 22.002 15.512,22.002 8.488,21.927 7.580 C 21.740 5.297,21.356 4.232,20.407 3.355 C 19.572 2.585,18.492 2.242,16.380 2.078 C 15.684 2.023,9.573 1.995,8.419 2.041 M13.380 8.362 C 13.539 8.460,16.616 11.552,16.682 11.680 C 16.765 11.841,16.747 12.207,16.649 12.364 C 16.602 12.439,15.848 13.214,14.972 14.087 C 13.557 15.497,13.361 15.679,13.205 15.720 C 12.713 15.849,12.267 15.508,12.267 15.003 C 12.267 14.836,12.290 14.733,12.351 14.636 C 12.398 14.561,12.824 14.113,13.298 13.640 L 14.161 12.780 10.970 12.760 C 7.846 12.740,7.777 12.738,7.641 12.658 C 7.564 12.613,7.448 12.501,7.384 12.409 C 7.286 12.271,7.267 12.203,7.267 12.007 C 7.267 11.721,7.372 11.526,7.612 11.367 L 7.774 11.260 10.975 11.249 L 14.175 11.238 13.273 10.329 C 12.776 9.829,12.347 9.375,12.318 9.320 C 12.233 9.155,12.253 8.793,12.356 8.626 C 12.577 8.269,13.036 8.151,13.380 8.362 " fill="#1C274C" stroke="none" fill-rule="evenodd"></path></svg>