<svg width="24" height="24" viewBox="0 0 24 24" fill="none" xmlns="http://www.w3.org/2000/svg"><path d="M8.456 2.042 C 5.720 2.141,4.373 2.534,3.435 3.507 C 2.486 4.491,2.148 5.722,2.041 8.583 C 2.004 9.581,1.983 12.960,2.014 12.960 C 2.021 12.960,2.134 12.922,2.264 12.876 C 2.564 12.770,3.116 12.733,3.449 12.798 C 4.096 12.923,4.731 13.413,5.011 14.003 C 5.190 14.380,5.240 14.624,5.240 15.122 C 5.240 15.341,5.253 15.520,5.269 15.520 C 5.285 15.520,6.288 14.532,7.499 13.325 C 9.483 11.348,9.726 11.118,9.962 11.004 C 10.331 10.825,10.606 10.761,11.008 10.760 C 12.250 10.759,13.240 11.752,13.240 13.000 C 13.240 13.442,13.110 13.887,12.881 14.226 C 12.791 14.360,11.815 15.368,10.602 16.580 C 9.435 17.746,8.480 18.713,8.480 18.730 C 8.480 18.746,8.659 18.760,8.878 18.760 C 9.376 18.760,9.620 18.810,9.997 18.989 C 10.587 19.269,11.077 19.904,11.202 20.551 C 11.267 20.884,11.230 21.436,11.124 21.736 C 11.078 21.866,11.040 21.979,11.040 21.986 C 11.040 22.017,14.419 21.996,15.417 21.959 C 18.274 21.852,19.510 21.513,20.493 20.565 C 21.488 19.606,21.853 18.317,21.959 15.393 C 22.011 13.976,22.011 9.963,21.959 8.583 C 21.850 5.675,21.485 4.392,20.493 3.435 C 19.509 2.486,18.278 2.148,15.417 2.041 C 14.217 1.996,9.702 1.997,8.456 2.042 M10.900 12.259 C 10.878 12.267,10.806 12.285,10.740 12.299 C 10.650 12.319,9.775 13.169,7.191 15.751 L 3.763 19.176 3.751 16.978 C 3.740 14.846,3.738 14.776,3.658 14.641 C 3.613 14.564,3.501 14.448,3.409 14.384 C 3.269 14.285,3.204 14.267,3.000 14.267 C 2.796 14.267,2.731 14.285,2.591 14.384 C 2.499 14.448,2.387 14.564,2.342 14.641 C 2.262 14.777,2.260 14.838,2.249 17.912 C 2.241 20.130,2.251 21.093,2.283 21.211 C 2.340 21.422,2.572 21.657,2.781 21.715 C 3.004 21.777,8.996 21.777,9.219 21.715 C 9.431 21.657,9.660 21.422,9.719 21.204 C 9.808 20.873,9.689 20.566,9.395 20.372 L 9.226 20.260 7.025 20.248 L 4.824 20.237 8.249 16.808 C 11.351 13.704,11.678 13.364,11.720 13.205 C 11.806 12.878,11.687 12.564,11.412 12.385 C 11.271 12.294,10.993 12.226,10.900 12.259 " fill="#1C274C" stroke="none" fill-rule="evenodd"></path></svg>