<svg width="24" height="24" viewBox="0 0 24 24" fill="none" xmlns="http://www.w3.org/2000/svg"><path d="M7.014 3.043 C 6.144 3.191,5.481 3.809,5.106 4.820 C 5.023 5.046,2.760 12.798,2.760 12.858 C 2.760 12.868,2.855 12.843,2.972 12.803 C 3.517 12.615,3.276 12.620,12.000 12.620 C 20.724 12.620,20.483 12.615,21.028 12.803 C 21.145 12.843,21.240 12.868,21.240 12.859 C 21.240 12.787,18.970 5.029,18.877 4.780 C 18.546 3.902,18.012 3.352,17.240 3.094 C 17.032 3.025,16.760 3.020,12.120 3.014 C 9.425 3.011,7.127 3.024,7.014 3.043 M3.808 13.643 C 3.415 13.694,3.151 13.785,2.887 13.962 C 2.602 14.152,2.321 14.505,2.203 14.821 C 2.040 15.258,2.020 15.534,2.023 17.340 C 2.025 19.225,2.048 19.470,2.267 19.919 C 2.399 20.190,2.832 20.633,3.085 20.754 C 3.187 20.802,3.403 20.873,3.565 20.911 C 3.839 20.975,4.437 20.980,12.000 20.980 C 19.563 20.980,20.161 20.975,20.435 20.911 C 20.597 20.873,20.813 20.802,20.915 20.754 C 21.168 20.633,21.601 20.190,21.733 19.919 C 21.952 19.469,21.975 19.226,21.978 17.340 C 21.980 15.534,21.960 15.258,21.797 14.821 C 21.616 14.338,21.132 13.875,20.665 13.740 C 20.552 13.707,20.325 13.663,20.160 13.641 C 19.792 13.594,4.176 13.595,3.808 13.643 M11.780 16.316 C 11.966 16.402,12.137 16.573,12.197 16.733 C 12.221 16.795,12.240 17.135,12.240 17.500 C 12.240 17.865,12.221 18.205,12.197 18.267 C 12.104 18.516,11.759 18.758,11.500 18.758 C 11.211 18.758,10.829 18.457,10.779 18.190 C 10.766 18.117,10.760 17.760,10.767 17.396 C 10.779 16.766,10.785 16.727,10.880 16.586 C 10.994 16.418,11.313 16.240,11.498 16.241 C 11.565 16.241,11.692 16.275,11.780 16.316 M14.271 16.302 C 14.468 16.384,14.595 16.506,14.684 16.700 C 14.746 16.834,14.758 16.962,14.758 17.500 C 14.758 18.194,14.720 18.360,14.515 18.548 C 14.129 18.903,13.537 18.781,13.316 18.300 C 13.254 18.166,13.242 18.037,13.241 17.509 C 13.240 16.690,13.316 16.493,13.700 16.316 C 13.897 16.225,14.076 16.221,14.271 16.302 M16.780 16.316 C 16.966 16.402,17.137 16.573,17.197 16.733 C 17.221 16.795,17.240 17.135,17.240 17.500 C 17.240 17.865,17.221 18.205,17.197 18.267 C 17.104 18.516,16.759 18.758,16.500 18.758 C 16.211 18.758,15.829 18.457,15.779 18.190 C 15.766 18.117,15.760 17.760,15.767 17.396 C 15.779 16.766,15.785 16.727,15.880 16.586 C 15.994 16.418,16.313 16.240,16.498 16.241 C 16.565 16.241,16.692 16.275,16.780 16.316 M19.271 16.302 C 19.468 16.384,19.595 16.506,19.684 16.700 C 19.746 16.834,19.758 16.962,19.758 17.500 C 19.758 18.194,19.720 18.360,19.515 18.548 C 19.129 18.903,18.537 18.781,18.316 18.300 C 18.254 18.166,18.242 18.037,18.241 17.509 C 18.240 16.690,18.316 16.493,18.700 16.316 C 18.897 16.225,19.076 16.221,19.271 16.302 " fill="#1C274C" stroke="none" fill-rule="evenodd"></path></svg>