<svg width="24" height="24" viewBox="0 0 24 24" fill="none" xmlns="http://www.w3.org/2000/svg"><path d="M6.776 3.039 C 5.838 3.179,5.145 3.814,4.723 4.920 C 4.677 5.041,4.117 7.210,3.479 9.740 C 2.842 12.270,2.308 14.383,2.294 14.435 C 2.273 14.513,2.329 14.483,2.623 14.259 C 3.045 13.937,3.650 13.634,4.120 13.510 L 4.460 13.420 12.000 13.420 L 19.540 13.420 19.880 13.510 C 20.349 13.634,20.955 13.937,21.375 14.257 C 21.597 14.427,21.719 14.499,21.706 14.453 C 21.694 14.413,21.162 12.301,20.523 9.760 C 19.884 7.219,19.323 5.041,19.277 4.920 C 18.972 4.122,18.527 3.568,17.960 3.280 C 17.407 3.001,17.867 3.021,12.140 3.015 C 9.302 3.012,6.888 3.023,6.776 3.039 M4.708 14.444 C 4.072 14.537,3.337 14.930,2.893 15.416 C 1.852 16.555,1.714 18.289,2.563 19.569 C 3.048 20.300,3.758 20.771,4.634 20.943 C 5.073 21.028,18.927 21.028,19.366 20.943 C 20.603 20.701,21.552 19.811,21.885 18.580 C 22.002 18.152,22.010 17.315,21.903 16.900 C 21.565 15.588,20.528 14.625,19.254 14.441 C 18.914 14.392,5.045 14.394,4.708 14.444 M10.792 16.726 C 10.910 16.783,11.008 16.873,11.085 16.994 L 11.200 17.176 11.200 17.885 C 11.200 18.640,11.180 18.751,11.007 18.935 C 10.677 19.289,10.136 19.277,9.812 18.907 C 9.646 18.718,9.632 18.629,9.647 17.816 C 9.660 17.154,9.663 17.129,9.767 16.973 C 9.975 16.658,10.427 16.549,10.792 16.726 M13.371 16.695 C 13.528 16.763,13.740 16.980,13.798 17.133 C 13.821 17.196,13.840 17.543,13.840 17.924 C 13.840 18.513,13.830 18.623,13.764 18.752 C 13.516 19.235,12.916 19.348,12.527 18.985 C 12.274 18.748,12.260 18.693,12.260 17.920 C 12.260 17.281,12.267 17.206,12.346 17.060 C 12.441 16.882,12.523 16.800,12.700 16.707 C 12.849 16.628,13.200 16.622,13.371 16.695 M16.032 16.716 C 16.412 16.911,16.480 17.095,16.479 17.929 C 16.478 18.474,16.466 18.606,16.405 18.742 C 16.139 19.326,15.281 19.349,14.984 18.780 C 14.911 18.642,14.898 18.536,14.887 17.994 C 14.873 17.305,14.906 17.111,15.066 16.920 C 15.295 16.648,15.723 16.558,16.032 16.716 M18.677 16.718 C 18.875 16.819,19.027 17.002,19.082 17.206 C 19.108 17.302,19.120 17.624,19.113 17.994 C 19.102 18.536,19.089 18.642,19.016 18.780 C 18.719 19.349,17.861 19.326,17.595 18.742 C 17.487 18.503,17.487 17.335,17.596 17.100 C 17.785 16.690,18.279 16.515,18.677 16.718 " fill="#1C274C" stroke="none" fill-rule="evenodd"></path></svg>