<svg width="24" height="24" viewBox="0 0 24 24" fill="none" xmlns="http://www.w3.org/2000/svg"><path d="M11.120 2.039 C 9.316 2.220,7.707 2.807,6.280 3.806 C 2.738 6.286,1.178 10.759,2.422 14.865 C 2.918 16.499,3.728 17.850,4.939 19.061 C 5.928 20.050,7.038 20.788,8.272 21.278 C 11.634 22.610,15.313 22.080,18.200 19.845 C 18.637 19.507,19.507 18.637,19.845 18.200 C 21.255 16.379,22.000 14.234,22.000 12.000 C 22.000 7.432,18.842 3.387,14.430 2.303 C 13.446 2.062,12.028 1.948,11.120 2.039 M12.235 8.082 C 12.430 8.192,12.647 8.495,13.083 9.269 C 13.288 9.634,13.507 9.970,13.581 10.036 C 13.689 10.131,13.818 10.177,14.267 10.280 C 15.406 10.543,15.662 10.633,15.864 10.844 C 15.962 10.946,15.980 10.998,15.980 11.174 C 15.980 11.455,15.849 11.665,15.174 12.466 C 14.844 12.857,14.622 13.157,14.594 13.250 C 14.557 13.367,14.563 13.575,14.619 14.217 C 14.726 15.429,14.679 15.796,14.401 15.939 C 14.143 16.073,13.868 16.001,12.840 15.531 C 12.330 15.298,12.139 15.229,12.000 15.229 C 11.861 15.229,11.670 15.298,11.160 15.531 C 10.132 16.001,9.857 16.073,9.599 15.939 C 9.321 15.795,9.272 15.404,9.381 14.197 C 9.438 13.568,9.444 13.371,9.407 13.251 C 9.378 13.157,9.159 12.861,8.826 12.466 C 8.151 11.665,8.020 11.455,8.020 11.174 C 8.020 10.998,8.038 10.946,8.136 10.844 C 8.338 10.633,8.594 10.543,9.733 10.280 C 10.182 10.177,10.311 10.131,10.419 10.036 C 10.493 9.970,10.712 9.634,10.917 9.269 C 11.348 8.505,11.568 8.194,11.760 8.083 C 11.938 7.980,12.053 7.979,12.235 8.082 " fill="#1C274C" stroke="none" fill-rule="evenodd"></path></svg>