<svg width="24" height="24" viewBox="0 0 24 24" fill="none" xmlns="http://www.w3.org/2000/svg"><path d="M17.200 3.280 C 16.185 3.404,15.013 4.012,13.600 5.146 C 12.948 5.669,11.700 6.886,11.012 7.668 L 10.510 8.240 9.825 8.240 C 8.331 8.241,6.555 8.440,5.344 8.743 C 3.932 9.095,2.712 9.705,2.209 10.310 C 1.812 10.788,1.668 11.150,1.664 11.680 C 1.661 12.122,1.751 12.439,1.992 12.835 C 2.564 13.777,3.898 14.659,5.743 15.317 L 6.106 15.446 5.929 15.931 C 5.024 18.428,5.027 20.213,5.939 21.143 C 6.309 21.521,6.887 21.757,7.445 21.759 C 7.964 21.761,8.754 21.529,9.460 21.166 C 9.879 20.951,10.769 20.365,11.200 20.020 C 12.273 19.161,12.592 18.897,12.685 18.793 L 12.790 18.675 12.976 19.058 C 13.083 19.279,13.235 19.517,13.334 19.620 C 13.479 19.772,13.530 19.800,13.658 19.800 C 13.944 19.800,14.102 19.646,14.748 18.743 C 14.919 18.503,15.106 18.272,15.162 18.231 C 15.242 18.172,15.428 18.139,16.005 18.080 C 16.830 17.997,16.916 17.981,17.129 17.874 C 17.309 17.784,17.360 17.697,17.360 17.478 C 17.360 17.269,17.224 17.011,16.792 16.400 C 16.207 15.572,16.223 15.635,16.381 14.796 C 16.568 13.800,16.557 13.458,16.332 13.281 C 16.179 13.161,15.822 13.173,15.335 13.316 C 15.118 13.379,14.779 13.479,14.581 13.537 C 14.365 13.600,14.179 13.633,14.114 13.619 C 14.054 13.606,13.793 13.468,13.533 13.313 C 12.793 12.873,12.527 12.747,12.289 12.727 C 12.122 12.714,12.060 12.726,11.993 12.785 C 11.810 12.948,11.785 13.085,11.762 14.092 L 11.740 15.044 11.097 15.672 C 10.586 16.170,10.439 16.339,10.383 16.487 C 10.293 16.723,10.345 16.914,10.540 17.063 C 10.686 17.174,11.145 17.376,11.571 17.517 L 11.841 17.607 11.691 17.708 C 11.609 17.764,11.262 18.038,10.921 18.316 C 10.109 18.977,9.896 19.139,9.440 19.439 C 8.460 20.082,7.516 20.385,7.122 20.181 C 6.560 19.890,6.670 18.204,7.374 16.340 L 7.510 15.980 7.658 15.992 C 8.229 16.039,8.669 15.476,8.458 14.969 C 8.424 14.887,8.341 14.763,8.273 14.693 L 8.150 14.566 8.453 13.985 C 9.042 12.853,9.875 11.547,10.770 10.350 L 11.212 9.760 11.416 9.760 C 11.953 9.761,13.402 9.897,14.420 10.044 C 15.640 10.219,17.140 10.561,18.187 10.901 C 18.836 11.113,20.090 11.656,20.534 11.919 C 21.363 12.408,21.840 12.911,21.840 13.294 C 21.840 13.896,20.530 14.578,18.683 14.938 C 18.123 15.047,17.993 15.095,17.852 15.247 C 17.440 15.688,17.679 16.386,18.280 16.495 C 18.547 16.543,19.952 16.218,20.800 15.912 C 23.040 15.104,23.889 13.643,22.995 12.132 C 22.806 11.814,22.208 11.224,21.780 10.934 C 21.085 10.465,20.270 10.056,19.359 9.722 C 19.107 9.629,18.894 9.547,18.887 9.540 C 18.880 9.533,18.909 9.459,18.952 9.374 C 19.057 9.163,19.375 8.188,19.497 7.698 C 19.677 6.977,19.734 6.539,19.733 5.880 C 19.732 5.184,19.661 4.820,19.439 4.379 C 19.031 3.570,18.193 3.159,17.200 3.280 M17.876 4.818 C 18.421 5.100,18.344 6.637,17.694 8.473 C 17.599 8.744,17.520 9.000,17.520 9.043 C 17.520 9.140,17.540 9.142,16.954 9.003 C 15.697 8.704,14.310 8.485,12.750 8.339 C 12.602 8.325,12.480 8.301,12.480 8.285 C 12.480 8.245,13.889 6.859,14.200 6.593 C 14.605 6.247,15.652 5.495,16.035 5.276 C 16.382 5.077,16.874 4.869,17.151 4.803 C 17.389 4.747,17.753 4.754,17.876 4.818 M9.275 9.838 C 8.261 11.274,7.501 12.510,6.885 13.726 L 6.709 14.073 6.330 13.935 C 6.122 13.860,5.799 13.735,5.613 13.658 C 4.202 13.074,3.160 12.249,3.160 11.715 C 3.160 11.185,4.172 10.580,5.680 10.207 C 6.651 9.967,7.994 9.789,8.995 9.767 C 9.319 9.760,9.328 9.762,9.275 9.838 " fill="#1C274C" stroke="none" fill-rule="evenodd"></path></svg>