<svg width="24" height="24" viewBox="0 0 24 24" fill="none" xmlns="http://www.w3.org/2000/svg"><path d="M18.720 2.062 C 18.430 2.143,17.747 2.447,16.869 2.886 C 16.055 3.293,15.812 3.372,15.556 3.315 C 15.461 3.293,14.928 3.105,14.370 2.896 C 12.934 2.357,12.531 2.271,12.169 2.422 C 11.628 2.648,11.543 3.135,11.739 4.900 C 11.870 6.077,11.876 6.332,11.776 6.542 C 11.735 6.629,11.476 6.969,11.201 7.299 C 10.065 8.656,9.820 9.005,9.720 9.404 C 9.686 9.538,9.685 9.631,9.717 9.749 C 9.848 10.236,10.234 10.394,12.046 10.700 C 12.648 10.802,13.213 10.917,13.301 10.957 C 13.512 11.050,13.597 11.155,14.063 11.908 C 15.098 13.580,15.406 13.922,15.869 13.919 C 16.101 13.918,16.318 13.796,16.565 13.529 C 16.821 13.253,16.981 12.999,17.626 11.846 C 17.877 11.398,18.128 10.971,18.185 10.897 C 18.333 10.703,18.602 10.589,19.460 10.359 C 21.382 9.843,21.823 9.633,21.963 9.165 C 22.105 8.693,21.856 8.306,20.483 6.865 C 20.171 6.537,19.879 6.196,19.833 6.106 C 19.758 5.959,19.752 5.895,19.771 5.442 C 19.782 5.166,19.823 4.546,19.862 4.064 C 19.962 2.821,19.899 2.423,19.554 2.149 C 19.372 2.004,19.048 1.970,18.720 2.062 M8.709 11.549 C 6.615 12.977,4.657 15.145,3.238 17.606 C 2.679 18.576,2.122 19.822,2.034 20.303 C 1.910 20.974,2.333 21.620,3.071 21.888 C 3.262 21.958,3.421 21.975,4.030 21.990 L 4.760 22.009 4.760 21.821 C 4.760 20.955,5.591 18.642,6.603 16.688 C 7.573 14.817,8.615 13.311,9.714 12.191 C 9.902 11.999,10.048 11.836,10.038 11.829 C 10.028 11.822,9.894 11.767,9.739 11.708 C 9.585 11.649,9.364 11.538,9.249 11.462 L 9.039 11.324 8.709 11.549 M11.800 12.366 C 10.463 13.284,8.950 15.312,7.700 17.860 C 6.962 19.365,6.383 20.964,6.263 21.830 L 6.239 22.000 7.660 22.000 L 9.080 22.000 9.080 21.810 C 9.080 21.523,9.185 20.689,9.299 20.060 C 9.798 17.328,10.910 14.383,12.124 12.575 C 12.230 12.418,12.305 12.278,12.291 12.265 C 12.224 12.198,11.969 12.250,11.800 12.366 M13.045 13.939 C 12.550 14.769,11.992 16.032,11.587 17.240 C 11.079 18.751,10.679 20.540,10.613 21.590 L 10.588 22.000 11.308 22.000 C 11.705 22.000,12.118 21.983,12.226 21.963 C 13.053 21.806,13.727 21.158,13.914 20.340 C 13.940 20.230,13.987 19.825,14.020 19.440 C 14.132 18.120,14.330 16.820,14.583 15.732 C 14.713 15.169,14.721 15.104,14.663 15.071 C 14.361 14.902,13.898 14.405,13.490 13.812 L 13.292 13.523 13.045 13.939 " fill="#1C274C" stroke="none" fill-rule="evenodd"></path></svg>