<svg width="24" height="24" viewBox="0 0 24 24" fill="none" xmlns="http://www.w3.org/2000/svg"><path d="M8.797 4.657 C 8.542 4.843,8.187 5.205,7.398 6.081 C 6.332 7.265,6.336 7.263,5.220 7.237 C 4.802 7.228,4.109 7.221,3.680 7.221 C 2.774 7.223,2.640 7.256,2.537 7.501 C 2.421 7.778,2.549 8.190,3.246 9.793 C 3.508 10.394,3.742 10.978,3.766 11.091 C 3.854 11.502,3.798 11.767,3.325 13.180 C 2.620 15.286,2.607 15.549,3.201 15.592 C 3.482 15.613,3.800 15.570,4.980 15.355 C 5.497 15.260,5.988 15.193,6.171 15.192 C 6.607 15.189,6.838 15.312,7.500 15.899 C 7.786 16.153,8.182 16.477,8.380 16.620 C 8.726 16.870,9.556 17.320,9.669 17.320 C 9.822 17.320,9.971 16.723,10.240 15.037 C 10.456 13.684,10.522 13.463,10.798 13.149 C 10.869 13.067,11.353 12.682,11.874 12.292 C 12.911 11.515,13.453 11.021,13.498 10.810 C 13.589 10.389,13.343 10.189,11.300 9.018 C 11.036 8.867,10.734 8.663,10.630 8.566 C 10.346 8.301,10.229 8.018,10.000 7.040 C 9.606 5.361,9.432 4.790,9.252 4.591 C 9.155 4.484,9.001 4.506,8.797 4.657 M10.520 4.953 C 10.520 4.971,10.546 5.075,10.579 5.184 C 10.611 5.293,10.755 5.876,10.899 6.481 C 11.042 7.085,11.181 7.630,11.206 7.692 C 11.255 7.814,11.427 7.942,11.856 8.180 C 12.087 8.309,12.614 8.467,15.116 9.161 C 16.757 9.617,18.105 9.985,18.110 9.981 C 18.126 9.968,17.658 8.010,17.559 7.674 C 17.437 7.261,17.251 6.883,17.147 6.838 C 17.060 6.801,10.582 4.920,10.541 4.920 C 10.530 4.920,10.520 4.935,10.520 4.953 M14.447 10.230 C 14.510 10.408,14.524 10.526,14.510 10.750 C 14.466 11.449,14.008 11.970,12.410 13.140 C 12.230 13.272,12.082 13.389,12.081 13.400 C 12.081 13.411,13.595 13.859,15.446 14.396 C 18.495 15.280,18.819 15.367,18.898 15.316 C 18.946 15.285,19.385 14.957,19.873 14.587 C 21.150 13.620,21.480 13.297,21.480 13.012 C 21.480 12.671,21.221 12.453,19.920 11.701 L 19.380 11.389 16.880 10.695 C 15.505 10.313,14.377 10.001,14.373 10.000 C 14.369 10.000,14.403 10.104,14.447 10.230 M11.303 14.730 C 11.068 16.293,10.920 17.035,10.762 17.435 L 10.686 17.627 13.833 18.541 C 15.868 19.132,17.065 19.461,17.220 19.472 C 17.440 19.487,17.471 19.478,17.569 19.380 C 17.694 19.255,17.792 19.011,17.983 18.350 C 18.113 17.897,18.396 16.343,18.356 16.302 C 18.335 16.281,11.454 14.280,11.402 14.280 C 11.385 14.280,11.341 14.482,11.303 14.730 " fill="#1C274C" stroke="none" fill-rule="evenodd"></path></svg>