<svg width="24" height="24" viewBox="0 0 24 24" fill="none" xmlns="http://www.w3.org/2000/svg"><path d="M4.785 2.768 C 4.598 3.341,4.343 3.817,4.088 4.072 C 3.828 4.332,3.380 4.583,2.820 4.783 C 2.512 4.892,2.458 4.925,2.448 5.007 C 2.437 5.096,2.467 5.114,2.828 5.236 C 3.943 5.611,4.378 6.043,4.783 7.180 C 4.894 7.491,4.924 7.542,5.010 7.552 C 5.102 7.563,5.117 7.540,5.215 7.226 C 5.380 6.697,5.652 6.190,5.914 5.926 C 6.170 5.666,6.609 5.421,7.180 5.217 C 7.489 5.107,7.542 5.075,7.552 4.992 C 7.563 4.902,7.536 4.885,7.232 4.785 C 6.663 4.599,6.187 4.345,5.928 4.089 C 5.666 3.830,5.422 3.394,5.217 2.820 C 5.107 2.511,5.075 2.458,4.992 2.448 C 4.902 2.437,4.885 2.464,4.785 2.768 M18.807 3.289 C 18.479 3.359,18.240 3.714,18.240 4.133 C 18.240 4.213,18.210 4.227,17.960 4.266 C 17.506 4.338,17.271 4.589,17.271 5.000 C 17.271 5.409,17.507 5.662,17.952 5.732 L 18.225 5.775 18.268 6.048 C 18.338 6.493,18.591 6.729,19.000 6.729 C 19.409 6.729,19.662 6.493,19.732 6.048 L 19.775 5.775 20.048 5.732 C 20.493 5.662,20.729 5.409,20.729 5.000 C 20.729 4.591,20.493 4.338,20.048 4.268 L 19.775 4.225 19.732 3.952 C 19.652 3.439,19.296 3.184,18.807 3.289 M12.240 5.035 C 11.889 5.150,11.541 5.480,11.151 6.068 C 10.913 6.426,10.735 6.731,9.719 8.533 C 9.319 9.241,9.106 9.465,8.711 9.595 C 8.573 9.641,8.091 9.760,7.640 9.861 C 5.877 10.256,5.264 10.429,4.787 10.668 C 4.221 10.950,3.972 11.324,4.011 11.831 C 4.052 12.356,4.471 13.001,5.722 14.460 C 7.014 15.968,7.039 16.009,7.040 16.610 C 7.040 16.825,6.995 17.464,6.940 18.030 C 6.693 20.579,6.737 21.260,7.179 21.701 C 7.524 22.046,8.000 22.084,8.764 21.828 C 9.248 21.666,9.748 21.453,11.020 20.870 C 11.961 20.438,12.279 20.320,12.500 20.320 C 12.721 20.320,13.039 20.438,13.980 20.870 C 15.252 21.453,15.752 21.666,16.236 21.828 C 17.000 22.084,17.476 22.046,17.821 21.701 C 18.258 21.264,18.304 20.554,18.061 18.047 C 18.006 17.471,17.960 16.825,17.960 16.610 C 17.961 16.010,17.984 15.972,19.278 14.460 C 20.528 12.999,20.948 12.354,20.988 11.835 C 21.028 11.323,20.781 10.951,20.213 10.668 C 19.736 10.429,19.123 10.256,17.360 9.861 C 16.909 9.760,16.427 9.641,16.289 9.595 C 15.894 9.465,15.681 9.241,15.281 8.533 C 14.278 6.755,14.087 6.426,13.845 6.063 C 13.538 5.604,13.196 5.241,12.955 5.117 C 12.773 5.024,12.402 4.982,12.240 5.035 " fill="#1C274C" stroke="none" fill-rule="evenodd"></path></svg>