<svg width="24" height="24" viewBox="0 0 24 24" fill="none" xmlns="http://www.w3.org/2000/svg"><path d="M13.190 2.055 C 12.676 2.246,12.400 2.701,11.658 4.580 C 11.423 5.174,11.195 5.732,11.151 5.820 C 10.938 6.245,10.798 6.332,9.620 6.773 C 7.484 7.572,6.964 7.845,6.745 8.286 C 6.604 8.569,6.604 8.831,6.747 9.122 C 6.909 9.453,7.564 10.079,8.680 10.967 C 9.808 11.865,9.971 12.026,10.057 12.327 C 10.090 12.444,10.145 12.953,10.179 13.460 C 10.298 15.238,10.385 15.892,10.556 16.291 C 10.704 16.635,10.993 16.877,11.331 16.941 C 11.575 16.987,12.034 16.858,12.531 16.605 C 12.778 16.479,13.438 16.091,13.998 15.742 C 14.558 15.393,15.116 15.061,15.238 15.004 C 15.572 14.848,15.850 14.868,16.800 15.118 C 18.830 15.651,19.532 15.776,19.971 15.683 C 20.270 15.620,20.510 15.439,20.640 15.180 C 20.726 15.008,20.740 14.927,20.738 14.600 C 20.736 14.138,20.664 13.794,20.238 12.233 C 19.885 10.939,19.854 10.690,20.000 10.367 C 20.043 10.272,20.330 9.810,20.638 9.339 C 21.686 7.736,21.946 7.239,21.990 6.751 C 22.008 6.559,21.994 6.489,21.904 6.305 C 21.626 5.737,21.121 5.604,18.700 5.460 C 17.299 5.377,17.202 5.361,16.904 5.165 C 16.819 5.108,16.406 4.656,15.988 4.161 C 15.034 3.032,14.307 2.296,13.995 2.145 C 13.723 2.013,13.399 1.977,13.190 2.055 M5.053 9.851 C 4.210 10.719,3.454 11.873,2.978 13.020 C 2.001 15.377,1.761 18.246,2.265 21.539 C 2.322 21.908,2.339 21.963,2.372 21.879 C 2.784 20.850,3.389 19.941,4.259 19.045 C 5.401 17.869,6.849 16.873,8.482 16.140 L 8.904 15.950 8.854 15.585 C 8.826 15.384,8.776 14.833,8.742 14.360 C 8.708 13.887,8.669 13.352,8.656 13.172 L 8.631 12.844 7.677 12.083 C 6.297 10.981,5.766 10.453,5.432 9.851 L 5.295 9.603 5.053 9.851 " fill="#1C274C" stroke="none" fill-rule="evenodd"></path></svg>