<svg width="24" height="24" viewBox="0 0 24 24" fill="none" xmlns="http://www.w3.org/2000/svg"><path d="M9.180 1.835 C 8.990 1.923,8.904 2.012,8.822 2.210 C 8.743 2.397,8.743 2.602,8.821 2.791 C 8.905 2.994,10.959 5.060,11.180 5.163 C 11.448 5.289,11.798 5.241,12.014 5.048 C 12.217 4.869,12.292 4.484,12.179 4.209 C 12.095 4.006,10.041 1.940,9.820 1.837 C 9.617 1.742,9.385 1.741,9.180 1.835 M3.807 3.288 C 3.433 3.370,3.201 3.768,3.287 4.178 C 3.327 4.373,3.373 4.425,4.674 5.735 C 5.563 6.629,6.074 7.114,6.180 7.164 C 6.448 7.289,6.798 7.241,7.014 7.048 C 7.130 6.946,7.238 6.680,7.238 6.500 C 7.238 6.190,7.140 6.071,5.735 4.674 C 4.613 3.560,4.356 3.324,4.240 3.301 C 4.163 3.286,4.073 3.268,4.040 3.262 C 4.007 3.255,3.902 3.267,3.807 3.288 M12.807 5.288 C 12.434 5.370,12.200 5.769,12.287 6.174 C 12.323 6.344,12.378 6.423,12.675 6.732 C 13.147 7.223,13.420 7.333,13.790 7.178 C 13.988 7.096,14.077 7.010,14.165 6.820 C 14.258 6.616,14.258 6.384,14.165 6.180 C 14.060 5.951,13.410 5.337,13.236 5.302 C 13.161 5.286,13.073 5.268,13.040 5.262 C 13.007 5.255,12.902 5.267,12.807 5.288 M16.840 7.063 C 16.520 7.147,15.866 7.484,14.820 8.103 C 13.843 8.681,13.666 8.772,13.434 8.815 C 13.243 8.850,13.088 8.814,11.920 8.458 C 10.313 7.969,9.671 7.863,9.289 8.022 C 9.065 8.115,8.851 8.346,8.774 8.577 C 8.638 8.983,8.680 9.471,8.988 11.120 C 9.214 12.325,9.229 12.649,9.072 12.952 C 9.012 13.067,8.695 13.534,8.367 13.991 C 7.628 15.017,7.359 15.429,7.177 15.813 C 6.824 16.557,7.023 17.065,7.758 17.297 C 8.158 17.423,8.683 17.500,9.960 17.621 C 10.543 17.676,11.102 17.748,11.202 17.781 C 11.453 17.864,11.655 18.084,12.281 18.960 C 13.225 20.280,13.644 20.755,14.007 20.920 C 14.332 21.067,14.660 21.003,14.961 20.731 C 15.282 20.443,15.554 19.956,16.296 18.345 C 16.920 16.991,16.805 17.092,18.320 16.561 C 19.976 15.982,20.436 15.767,20.751 15.425 C 21.037 15.114,21.071 14.793,20.862 14.375 C 20.684 14.020,20.348 13.657,19.300 12.689 C 18.838 12.262,18.397 11.823,18.320 11.713 L 18.180 11.512 18.155 9.786 C 18.126 7.748,18.095 7.537,17.774 7.232 C 17.534 7.005,17.254 6.954,16.840 7.063 M1.807 7.288 C 1.434 7.370,1.200 7.769,1.287 8.174 C 1.323 8.344,1.378 8.423,1.675 8.732 C 2.147 9.223,2.420 9.333,2.790 9.178 C 2.988 9.096,3.077 9.010,3.165 8.820 C 3.258 8.616,3.258 8.384,3.165 8.180 C 3.060 7.951,2.410 7.337,2.236 7.302 C 2.161 7.286,2.073 7.268,2.040 7.262 C 2.007 7.255,1.902 7.267,1.807 7.288 M4.180 9.835 C 3.990 9.923,3.904 10.012,3.822 10.210 C 3.740 10.406,3.745 10.624,3.836 10.820 C 3.883 10.922,4.222 11.288,4.765 11.825 C 5.557 12.608,5.634 12.673,5.810 12.710 C 6.389 12.832,6.832 12.389,6.710 11.810 C 6.673 11.634,6.608 11.557,5.825 10.765 C 5.288 10.222,4.922 9.883,4.820 9.836 C 4.617 9.742,4.384 9.741,4.180 9.835 " fill="#1C274C" stroke="none" fill-rule="evenodd"></path></svg>