<svg width="24" height="24" viewBox="0 0 24 24" fill="none" xmlns="http://www.w3.org/2000/svg"><path d="M19.005 2.285 C 18.803 2.345,18.703 2.422,18.513 2.670 C 18.330 2.907,17.834 3.301,17.511 3.465 C 17.189 3.628,16.580 3.772,16.247 3.765 C 15.699 3.753,15.409 3.915,15.301 4.294 C 15.233 4.531,15.261 4.715,15.399 4.939 C 15.503 5.107,15.659 5.196,15.955 5.256 C 16.164 5.299,16.173 5.307,16.338 5.580 C 16.561 5.948,16.715 6.343,16.791 6.739 C 16.900 7.306,16.919 7.359,17.076 7.516 C 17.435 7.875,18.048 7.781,18.260 7.335 C 18.409 7.021,18.264 6.166,17.935 5.420 C 17.751 5.004,17.739 4.960,17.805 4.960 C 17.835 4.960,17.985 4.897,18.137 4.820 C 18.289 4.743,18.417 4.685,18.420 4.690 C 18.423 4.696,18.526 4.908,18.649 5.162 C 18.864 5.604,19.216 6.129,19.464 6.376 C 19.942 6.851,20.731 6.530,20.731 5.860 C 20.731 5.629,20.673 5.501,20.440 5.222 C 20.117 4.836,19.826 4.254,19.720 3.780 C 19.683 3.614,19.689 3.590,19.806 3.423 C 20.050 3.078,19.959 2.610,19.605 2.381 C 19.432 2.269,19.191 2.231,19.005 2.285 M3.771 4.280 C 2.482 4.414,1.621 5.077,1.332 6.160 C 1.224 6.563,1.242 7.313,1.370 7.800 C 1.850 9.618,3.125 11.539,5.369 13.823 L 6.039 14.506 5.459 14.994 C 4.437 15.855,4.239 16.253,4.623 16.678 C 4.812 16.888,5.161 17.060,6.118 17.418 C 7.051 17.767,7.214 17.849,7.318 18.018 C 7.359 18.085,7.532 18.509,7.701 18.960 C 7.871 19.411,8.071 19.902,8.146 20.051 C 8.485 20.727,8.861 20.865,9.363 20.498 C 9.597 20.326,9.768 20.141,10.507 19.256 C 10.895 18.793,11.160 18.510,11.246 18.470 C 11.425 18.385,11.532 18.370,12.420 18.299 C 13.738 18.194,14.203 18.076,14.404 17.795 C 14.483 17.684,14.500 17.613,14.498 17.400 C 14.495 17.079,14.392 16.844,13.919 16.080 C 13.174 14.876,13.200 14.924,13.200 14.703 C 13.200 14.575,13.295 14.156,13.456 13.577 C 13.859 12.128,13.879 11.788,13.578 11.524 C 13.298 11.277,12.922 11.310,11.508 11.702 C 10.998 11.844,10.521 11.960,10.449 11.960 C 10.257 11.960,10.137 11.899,9.340 11.399 C 8.417 10.819,8.101 10.668,7.770 10.647 C 7.180 10.609,6.989 10.989,6.864 12.452 C 6.835 12.799,6.801 13.092,6.791 13.103 C 6.762 13.132,5.779 12.104,5.287 11.529 C 3.691 9.667,2.761 7.955,2.761 6.880 C 2.760 6.540,2.817 6.349,2.968 6.177 C 3.304 5.794,4.049 5.672,5.128 5.823 C 7.818 6.198,11.980 8.400,15.410 11.263 C 18.872 14.153,21.239 17.343,21.239 19.120 C 21.240 19.507,21.180 19.673,20.966 19.880 C 20.705 20.132,20.440 20.212,19.793 20.232 C 18.962 20.258,18.016 20.069,16.742 19.623 C 16.392 19.500,16.050 19.400,15.982 19.401 C 15.535 19.404,15.163 19.884,15.276 20.312 C 15.375 20.689,15.561 20.812,16.529 21.137 C 18.341 21.745,19.793 21.898,20.881 21.597 C 21.740 21.359,22.364 20.782,22.627 19.983 C 22.720 19.702,22.734 19.593,22.735 19.140 C 22.736 18.698,22.719 18.554,22.624 18.180 C 21.947 15.531,19.057 12.070,14.961 9.004 C 10.769 5.866,6.375 4.011,3.771 4.280 " fill="#1C274C" stroke="none" fill-rule="evenodd"></path></svg>