<svg width="24" height="24" viewBox="0 0 24 24" fill="none" xmlns="http://www.w3.org/2000/svg"><path d="M12.337 2.076 C 11.997 2.230,11.793 2.602,11.248 4.064 C 11.050 4.595,10.860 5.083,10.826 5.149 C 10.704 5.384,10.513 5.496,9.619 5.857 C 7.898 6.551,7.536 6.793,7.489 7.277 C 7.447 7.715,7.727 8.065,8.980 9.141 C 9.420 9.520,9.820 9.872,9.868 9.925 C 10.050 10.124,10.079 10.278,10.163 11.492 C 10.208 12.140,10.277 12.825,10.319 13.032 C 10.473 13.793,10.799 14.062,11.375 13.903 C 11.704 13.812,11.990 13.651,12.960 13.010 C 13.895 12.392,14.029 12.322,14.283 12.321 C 14.383 12.320,14.833 12.420,15.283 12.542 C 17.098 13.036,17.473 13.070,17.801 12.774 C 17.990 12.604,18.050 12.433,18.047 12.077 C 18.043 11.701,17.995 11.453,17.695 10.280 C 17.551 9.719,17.433 9.169,17.432 9.058 C 17.429 8.790,17.492 8.658,18.093 7.672 C 18.661 6.740,18.842 6.398,18.936 6.083 C 19.139 5.397,18.793 5.013,17.854 4.881 C 17.696 4.859,17.165 4.814,16.674 4.781 C 16.182 4.748,15.699 4.710,15.600 4.697 C 15.260 4.653,15.130 4.536,14.383 3.602 C 13.573 2.591,13.250 2.252,12.955 2.105 C 12.707 1.982,12.560 1.975,12.337 2.076 M5.871 8.791 C 4.290 10.889,3.714 13.700,4.143 17.215 C 4.245 18.050,4.227 18.023,4.399 17.613 C 5.052 16.052,6.533 14.551,8.415 13.542 L 8.825 13.322 8.775 12.951 C 8.747 12.747,8.697 12.177,8.664 11.684 L 8.603 10.787 8.452 10.664 C 7.412 9.815,6.564 8.987,6.355 8.617 C 6.288 8.498,6.217 8.400,6.199 8.400 C 6.180 8.400,6.033 8.576,5.871 8.791 M18.109 15.650 C 17.722 16.192,17.414 16.384,16.780 16.480 C 16.311 16.551,16.285 16.631,16.650 16.891 C 17.192 17.278,17.384 17.586,17.480 18.220 C 17.551 18.689,17.631 18.715,17.891 18.350 C 18.278 17.808,18.586 17.616,19.220 17.520 C 19.689 17.449,19.715 17.369,19.350 17.109 C 18.808 16.722,18.616 16.414,18.520 15.780 C 18.449 15.311,18.369 15.285,18.109 15.650 M10.336 16.431 C 10.311 16.447,10.269 16.667,10.241 16.920 C 10.114 18.093,9.812 18.607,8.903 19.202 C 8.361 19.556,8.386 19.534,8.415 19.626 C 8.438 19.698,8.496 19.713,8.909 19.758 C 10.090 19.884,10.599 20.181,11.196 21.093 C 11.548 21.631,11.533 21.614,11.626 21.585 C 11.698 21.562,11.713 21.504,11.758 21.091 C 11.884 19.910,12.181 19.401,13.093 18.804 C 13.641 18.445,13.627 18.458,13.576 18.374 C 13.541 18.317,13.441 18.290,13.116 18.252 C 11.775 18.095,11.347 17.805,10.546 16.510 C 10.478 16.399,10.417 16.376,10.336 16.431 " fill="#1C274C" stroke="none" fill-rule="evenodd"></path></svg>