<svg width="24" height="24" viewBox="0 0 24 24" fill="none" xmlns="http://www.w3.org/2000/svg"><path d="M11.811 3.278 C 11.639 3.320,11.417 3.493,11.330 3.652 C 11.268 3.765,11.259 3.933,11.248 5.108 C 11.240 5.969,11.251 6.493,11.279 6.597 C 11.428 7.151,12.117 7.332,12.525 6.925 C 12.754 6.696,12.765 6.601,12.752 5.108 C 12.741 3.854,12.735 3.772,12.658 3.641 C 12.494 3.361,12.122 3.202,11.811 3.278 M6.007 5.686 C 5.675 5.850,5.520 6.259,5.655 6.611 C 5.705 6.742,5.944 7.005,6.690 7.748 C 7.532 8.586,7.683 8.719,7.835 8.759 C 8.405 8.910,8.910 8.405,8.759 7.835 C 8.719 7.683,8.586 7.532,7.767 6.706 C 7.162 6.096,6.762 5.724,6.660 5.676 C 6.448 5.578,6.219 5.581,6.007 5.686 M17.340 5.676 C 17.238 5.724,16.838 6.096,16.233 6.706 C 15.414 7.532,15.281 7.683,15.241 7.835 C 15.090 8.405,15.595 8.910,16.165 8.759 C 16.317 8.719,16.468 8.586,17.310 7.748 C 18.364 6.698,18.429 6.609,18.390 6.260 C 18.334 5.758,17.800 5.462,17.340 5.676 M3.811 11.278 C 3.535 11.346,3.316 11.587,3.260 11.885 C 3.197 12.220,3.450 12.624,3.781 12.715 C 3.997 12.775,6.403 12.775,6.619 12.715 C 6.831 12.657,7.060 12.422,7.119 12.204 C 7.208 11.873,7.089 11.566,6.795 11.372 L 6.626 11.260 5.283 11.253 C 4.544 11.249,3.882 11.260,3.811 11.278 M17.411 11.278 C 17.135 11.346,16.916 11.587,16.860 11.885 C 16.797 12.220,17.050 12.624,17.381 12.715 C 17.597 12.775,20.003 12.775,20.219 12.715 C 20.431 12.657,20.660 12.422,20.719 12.204 C 20.808 11.873,20.689 11.566,20.395 11.372 L 20.226 11.260 18.883 11.253 C 18.144 11.249,17.482 11.260,17.411 11.278 M7.940 15.219 C 7.918 15.227,7.846 15.245,7.780 15.260 C 7.597 15.301,5.743 17.157,5.655 17.387 C 5.417 18.011,6.055 18.606,6.660 18.324 C 6.762 18.276,7.162 17.904,7.767 17.294 C 8.586 16.468,8.719 16.317,8.759 16.165 C 8.846 15.839,8.728 15.524,8.452 15.345 C 8.311 15.254,8.033 15.186,7.940 15.219 M15.765 15.239 C 15.372 15.334,15.133 15.758,15.241 16.165 C 15.281 16.317,15.414 16.468,16.233 17.294 C 16.838 17.904,17.238 18.276,17.340 18.324 C 17.798 18.537,18.333 18.242,18.389 17.745 C 18.429 17.399,18.380 17.330,17.385 16.328 C 16.876 15.815,16.406 15.363,16.340 15.322 C 16.192 15.231,15.944 15.196,15.765 15.239 M11.811 16.878 C 11.639 16.920,11.417 17.093,11.330 17.252 C 11.268 17.365,11.259 17.533,11.248 18.708 C 11.240 19.569,11.251 20.093,11.279 20.197 C 11.428 20.751,12.117 20.932,12.525 20.525 C 12.754 20.296,12.765 20.201,12.752 18.708 C 12.741 17.454,12.735 17.372,12.658 17.241 C 12.494 16.961,12.122 16.802,11.811 16.878 " fill="#1C274C" stroke="none" fill-rule="evenodd"></path></svg>