<svg width="24" height="24" viewBox="0 0 24 24" fill="none" xmlns="http://www.w3.org/2000/svg"><path d="M11.807 1.289 C 11.558 1.342,11.342 1.570,11.284 1.838 C 11.259 1.956,11.240 2.453,11.240 3.000 C 11.240 3.547,11.259 4.044,11.284 4.162 C 11.447 4.920,12.553 4.920,12.716 4.162 C 12.772 3.901,12.773 2.083,12.717 1.841 C 12.620 1.420,12.247 1.194,11.807 1.289 M5.807 5.288 C 5.430 5.371,5.187 5.798,5.289 6.198 C 5.343 6.413,5.781 6.896,6.020 7.005 C 6.311 7.138,6.690 7.072,6.888 6.853 C 7.079 6.642,7.129 6.290,7.005 6.020 C 6.905 5.801,6.405 5.336,6.233 5.301 C 6.160 5.286,6.073 5.268,6.040 5.262 C 6.007 5.255,5.902 5.267,5.807 5.288 M17.808 5.289 C 17.676 5.317,17.568 5.389,17.352 5.593 C 17.196 5.740,17.035 5.932,16.995 6.020 C 16.766 6.522,17.111 7.082,17.648 7.079 C 17.907 7.078,18.112 6.962,18.406 6.650 C 18.617 6.426,18.680 6.328,18.711 6.182 C 18.833 5.610,18.383 5.165,17.808 5.289 M11.801 7.042 C 11.494 7.171,11.261 7.483,10.623 8.620 C 10.194 9.383,10.065 9.563,9.880 9.659 C 9.825 9.688,9.411 9.796,8.960 9.900 C 7.924 10.139,7.577 10.248,7.334 10.411 C 7.090 10.574,6.990 10.757,7.011 11.004 C 7.042 11.356,7.285 11.721,8.194 12.780 C 8.440 13.066,8.677 13.373,8.721 13.463 C 8.818 13.663,8.818 13.739,8.720 14.760 C 8.567 16.332,8.630 16.731,9.067 16.955 C 9.317 17.084,9.796 16.944,11.033 16.382 C 11.664 16.095,11.842 16.031,12.000 16.031 C 12.158 16.031,12.336 16.095,12.967 16.382 C 14.204 16.944,14.683 17.084,14.933 16.955 C 15.375 16.728,15.430 16.364,15.275 14.696 C 15.228 14.188,15.201 13.708,15.215 13.631 C 15.247 13.461,15.381 13.278,16.068 12.461 C 16.857 11.524,17.035 11.219,16.988 10.875 C 16.928 10.423,16.604 10.261,15.040 9.900 C 14.589 9.796,14.175 9.688,14.120 9.659 C 13.934 9.563,13.806 9.383,13.372 8.612 C 12.663 7.352,12.418 7.056,12.053 7.017 C 11.969 7.008,11.856 7.020,11.801 7.042 M1.807 11.287 C 1.568 11.341,1.341 11.572,1.289 11.816 C 1.197 12.246,1.431 12.629,1.838 12.716 C 2.109 12.774,3.891 12.774,4.162 12.716 C 4.920 12.553,4.920 11.447,4.162 11.284 C 3.909 11.230,2.053 11.232,1.807 11.287 M19.807 11.287 C 19.568 11.341,19.341 11.572,19.289 11.816 C 19.197 12.246,19.431 12.629,19.838 12.716 C 20.109 12.774,21.891 12.774,22.162 12.716 C 22.920 12.553,22.920 11.447,22.162 11.284 C 21.909 11.230,20.053 11.232,19.807 11.287 M6.020 16.995 C 5.932 17.035,5.740 17.195,5.594 17.350 C 5.384 17.573,5.320 17.672,5.289 17.817 C 5.168 18.385,5.615 18.832,6.183 18.711 C 6.328 18.680,6.427 18.616,6.650 18.406 C 6.958 18.115,7.078 17.907,7.078 17.660 C 7.078 17.480,6.970 17.214,6.854 17.112 C 6.639 16.920,6.290 16.871,6.020 16.995 M17.361 16.983 C 17.178 17.063,17.088 17.148,16.996 17.328 C 16.901 17.515,16.900 17.773,16.995 17.980 C 17.108 18.227,17.587 18.657,17.814 18.714 C 18.364 18.853,18.832 18.384,18.711 17.817 C 18.680 17.672,18.616 17.573,18.406 17.350 C 18.021 16.941,17.710 16.832,17.361 16.983 M11.807 19.289 C 11.558 19.342,11.342 19.570,11.284 19.838 C 11.259 19.956,11.240 20.453,11.240 21.000 C 11.240 21.547,11.259 22.044,11.284 22.162 C 11.447 22.920,12.553 22.920,12.716 22.162 C 12.772 21.901,12.773 20.083,12.717 19.841 C 12.620 19.420,12.247 19.194,11.807 19.289 " fill="#1C274C" stroke="none" fill-rule="evenodd"></path></svg>