<svg width="24" height="24" viewBox="0 0 24 24" fill="none" xmlns="http://www.w3.org/2000/svg"><path d="M11.252 2.065 C 11.065 2.157,10.789 2.468,10.332 3.100 C 9.912 3.681,9.756 3.855,9.620 3.894 C 9.576 3.907,9.234 3.954,8.860 3.998 C 7.730 4.132,7.504 4.195,7.324 4.424 C 7.116 4.688,7.255 5.048,7.911 5.945 C 8.418 6.640,8.480 6.746,8.480 6.928 C 8.480 7.001,8.425 7.339,8.358 7.680 C 8.199 8.487,8.166 9.047,8.267 9.237 C 8.307 9.312,8.403 9.407,8.480 9.449 C 8.719 9.579,8.962 9.535,10.220 9.133 C 10.616 9.006,10.820 8.960,10.915 8.975 C 10.990 8.987,11.341 9.158,11.695 9.356 C 12.589 9.854,12.771 9.932,13.053 9.937 C 13.267 9.940,13.296 9.929,13.401 9.812 C 13.584 9.608,13.608 9.455,13.635 8.360 C 13.657 7.482,13.670 7.326,13.729 7.242 C 13.768 7.188,14.033 6.927,14.319 6.662 C 14.898 6.126,15.178 5.806,15.244 5.607 C 15.340 5.318,15.183 5.068,14.780 4.870 C 14.670 4.816,14.243 4.659,13.832 4.523 C 13.421 4.386,13.037 4.237,12.979 4.192 C 12.912 4.139,12.724 3.801,12.464 3.264 C 12.239 2.800,11.995 2.352,11.922 2.268 C 11.690 2.004,11.495 1.945,11.252 2.065 M21.619 8.863 C 21.343 9.009,20.330 9.679,19.946 9.968 C 16.545 12.530,14.393 16.211,13.860 20.376 C 13.785 20.958,13.738 21.971,13.776 22.173 C 13.808 22.343,13.994 22.574,14.175 22.668 C 14.346 22.756,14.681 22.750,14.842 22.656 C 14.913 22.614,15.026 22.512,15.094 22.429 C 15.213 22.282,15.216 22.263,15.246 21.709 C 15.324 20.252,15.554 19.040,15.990 17.780 C 16.702 15.725,17.789 14.010,19.366 12.453 C 20.193 11.636,21.012 10.987,21.923 10.426 C 22.616 9.999,22.731 9.867,22.731 9.500 C 22.731 8.917,22.146 8.582,21.619 8.863 M10.785 11.288 C 10.520 11.360,10.346 11.577,10.241 11.964 C 9.905 13.208,9.754 15.212,9.836 17.332 C 9.925 19.608,10.185 22.097,10.365 22.388 C 10.616 22.794,11.182 22.858,11.520 22.520 C 11.753 22.287,11.767 22.159,11.657 21.324 C 11.430 19.601,11.320 17.948,11.320 16.250 C 11.320 14.512,11.405 13.530,11.643 12.509 C 11.747 12.066,11.757 11.976,11.718 11.829 C 11.606 11.409,11.202 11.174,10.785 11.288 M5.188 13.658 C 5.144 13.702,5.138 13.757,5.163 13.888 C 5.182 13.983,5.197 14.213,5.198 14.400 C 5.200 14.694,5.184 14.773,5.085 14.980 C 5.022 15.112,4.887 15.327,4.785 15.457 C 4.579 15.720,4.576 15.730,4.658 15.812 C 4.702 15.856,4.757 15.862,4.888 15.837 C 4.983 15.818,5.213 15.803,5.400 15.802 C 5.694 15.800,5.773 15.816,5.980 15.915 C 6.112 15.978,6.327 16.113,6.457 16.215 C 6.720 16.421,6.730 16.424,6.812 16.342 C 6.856 16.298,6.862 16.243,6.837 16.112 C 6.818 16.017,6.803 15.787,6.802 15.600 C 6.800 15.306,6.816 15.227,6.915 15.020 C 6.978 14.888,7.113 14.673,7.215 14.543 C 7.421 14.280,7.424 14.270,7.342 14.188 C 7.298 14.144,7.243 14.138,7.112 14.163 C 7.017 14.182,6.787 14.197,6.600 14.198 C 6.306 14.200,6.227 14.184,6.020 14.085 C 5.888 14.022,5.673 13.887,5.543 13.785 C 5.280 13.579,5.270 13.576,5.188 13.658 " fill="#1C274C" stroke="none" fill-rule="evenodd"></path></svg>