<svg width="24" height="24" viewBox="0 0 24 24" fill="none" xmlns="http://www.w3.org/2000/svg"><path d="M8.139 2.070 C 7.879 2.163,7.719 2.279,7.590 2.468 C 7.533 2.551,7.215 3.309,6.884 4.150 C 6.553 4.992,6.256 5.731,6.224 5.792 C 6.192 5.854,6.087 5.977,5.990 6.066 C 5.839 6.206,5.623 6.304,4.417 6.779 C 2.310 7.609,2.347 7.590,2.138 7.967 C 2.035 8.153,2.020 8.220,2.020 8.500 C 2.020 8.780,2.035 8.847,2.138 9.033 C 2.203 9.150,2.325 9.300,2.409 9.367 C 2.500 9.439,2.964 9.647,3.571 9.886 C 4.126 10.105,4.858 10.394,5.198 10.529 C 5.838 10.782,6.090 10.948,6.223 11.207 C 6.255 11.267,6.557 12.019,6.896 12.877 C 7.294 13.886,7.554 14.491,7.633 14.591 C 7.699 14.675,7.850 14.797,7.967 14.862 C 8.153 14.965,8.220 14.980,8.500 14.980 C 8.780 14.980,8.847 14.965,9.033 14.862 C 9.150 14.797,9.301 14.675,9.367 14.591 C 9.446 14.491,9.706 13.886,10.104 12.877 C 10.443 12.019,10.745 11.267,10.777 11.207 C 10.910 10.948,11.162 10.782,11.802 10.529 C 12.142 10.394,12.874 10.105,13.429 9.886 C 14.036 9.647,14.500 9.439,14.591 9.367 C 14.675 9.300,14.797 9.150,14.862 9.033 C 14.965 8.847,14.980 8.780,14.980 8.500 C 14.980 8.220,14.965 8.153,14.862 7.967 C 14.653 7.590,14.690 7.609,12.583 6.779 C 11.377 6.304,11.161 6.206,11.010 6.066 C 10.913 5.977,10.808 5.854,10.777 5.793 C 10.745 5.733,10.443 4.981,10.104 4.123 C 9.692 3.079,9.447 2.510,9.363 2.403 C 9.103 2.075,8.547 1.923,8.139 2.070 M17.260 13.056 C 17.194 13.086,17.101 13.153,17.053 13.205 C 17.004 13.257,16.745 13.858,16.475 14.540 C 16.151 15.360,15.950 15.815,15.883 15.883 C 15.814 15.951,15.360 16.151,14.528 16.480 C 13.475 16.896,13.257 16.995,13.160 17.106 C 12.948 17.347,12.961 17.712,13.189 17.929 C 13.262 17.999,13.723 18.202,14.540 18.525 C 15.361 18.849,15.815 19.050,15.883 19.117 C 15.951 19.186,16.151 19.640,16.480 20.472 C 16.896 21.525,16.995 21.743,17.106 21.840 C 17.347 22.052,17.712 22.039,17.929 21.811 C 17.999 21.738,18.202 21.277,18.525 20.460 C 18.850 19.636,19.049 19.185,19.117 19.117 C 19.185 19.049,19.636 18.850,20.460 18.525 C 21.277 18.202,21.738 17.999,21.811 17.929 C 22.039 17.712,22.052 17.347,21.840 17.106 C 21.743 16.995,21.525 16.896,20.472 16.480 C 19.642 16.152,19.185 15.951,19.117 15.883 C 19.049 15.814,18.850 15.365,18.525 14.540 C 18.255 13.858,17.995 13.257,17.947 13.205 C 17.772 13.014,17.492 12.953,17.260 13.056 " fill="#1C274C" stroke="none" fill-rule="evenodd"></path></svg>