<svg width="24" height="24" viewBox="0 0 24 24" fill="none" xmlns="http://www.w3.org/2000/svg"><path d="M12.614 2.055 C 12.144 2.209,11.705 2.657,10.359 4.360 C 9.629 5.283,9.353 5.585,9.136 5.693 C 8.944 5.790,8.586 5.833,7.420 5.901 C 5.614 6.006,5.009 6.098,4.580 6.334 C 4.180 6.553,3.967 6.955,4.014 7.400 C 4.067 7.907,4.339 8.486,5.242 10.023 C 5.925 11.184,6.053 11.425,6.121 11.680 C 6.186 11.925,6.152 12.188,5.961 12.920 C 5.348 15.267,5.240 15.775,5.240 16.323 C 5.240 16.721,5.309 16.959,5.485 17.173 C 5.686 17.417,5.879 17.493,6.340 17.511 C 6.767 17.528,7.185 17.462,7.976 17.251 L 8.371 17.146 8.253 17.043 C 8.187 16.986,7.991 16.817,7.817 16.666 C 6.909 15.883,6.517 15.210,6.509 14.420 C 6.502 13.818,6.702 13.313,7.124 12.862 C 7.561 12.394,8.020 12.141,9.447 11.578 L 10.226 11.270 10.338 10.965 C 10.997 9.173,11.305 8.567,11.786 8.117 C 12.285 7.650,12.982 7.421,13.608 7.518 C 14.441 7.648,15.008 8.076,16.183 9.464 L 16.801 10.194 17.050 10.216 C 17.188 10.228,17.633 10.258,18.040 10.282 C 18.447 10.306,18.978 10.360,19.220 10.401 C 19.724 10.488,19.694 10.500,19.864 10.137 C 19.998 9.851,20.022 9.617,19.945 9.353 C 19.776 8.769,19.242 8.425,17.161 7.559 C 15.718 6.959,15.623 6.904,15.413 6.553 C 15.343 6.436,15.112 5.845,14.899 5.240 C 14.262 3.425,14.069 2.968,13.750 2.511 C 13.458 2.093,13.027 1.920,12.614 2.055 M13.017 9.076 C 12.674 9.232,12.427 9.674,11.900 11.080 C 11.512 12.115,11.425 12.297,11.262 12.421 C 11.189 12.477,10.638 12.720,10.037 12.962 C 8.569 13.553,8.235 13.747,8.075 14.100 C 7.936 14.405,8.004 14.687,8.304 15.047 C 8.504 15.286,8.852 15.593,9.705 16.282 C 10.494 16.920,10.656 17.092,10.716 17.354 C 10.740 17.456,10.787 17.918,10.821 18.380 C 10.966 20.344,11.080 20.733,11.569 20.938 C 11.987 21.112,12.356 20.957,13.936 19.940 C 14.373 19.659,14.813 19.404,14.915 19.373 C 15.146 19.303,15.216 19.314,16.263 19.581 C 17.399 19.870,17.858 19.960,18.204 19.960 C 18.934 19.960,19.198 19.521,19.024 18.596 C 18.989 18.407,18.841 17.831,18.697 17.316 C 18.403 16.271,18.355 15.946,18.456 15.702 C 18.493 15.616,18.756 15.172,19.041 14.715 C 19.995 13.190,20.145 12.764,19.881 12.331 C 19.657 11.964,19.176 11.847,17.520 11.760 C 16.514 11.707,16.224 11.664,16.033 11.539 C 15.953 11.487,15.612 11.114,15.275 10.712 C 13.966 9.145,13.542 8.838,13.017 9.076 " fill="#1C274C" stroke="none" fill-rule="evenodd"></path></svg>