<svg width="24" height="24" viewBox="0 0 24 24" fill="none" xmlns="http://www.w3.org/2000/svg"><path d="M5.920 3.467 C 4.511 3.607,2.874 4.179,1.628 4.969 C 1.387 5.122,1.265 5.343,1.267 5.621 C 1.270 5.952,1.464 6.216,1.783 6.321 C 2.014 6.397,2.214 6.338,2.796 6.020 C 4.747 4.954,6.671 4.668,8.581 5.160 C 9.097 5.293,9.261 5.306,9.452 5.226 C 9.680 5.131,9.920 4.780,9.920 4.540 C 9.920 4.304,9.720 4.003,9.485 3.883 C 9.272 3.774,8.409 3.570,7.868 3.501 C 7.444 3.446,6.323 3.427,5.920 3.467 M13.831 4.040 C 13.528 4.131,13.153 4.495,12.782 5.059 C 12.658 5.247,12.276 5.901,11.933 6.511 C 11.156 7.891,11.069 8.023,10.842 8.167 C 10.609 8.316,10.364 8.387,9.140 8.663 C 6.892 9.170,6.334 9.428,6.136 10.055 C 5.948 10.652,6.272 11.224,7.840 13.059 C 8.644 13.999,8.855 14.285,8.918 14.512 C 8.982 14.741,8.969 15.093,8.854 16.220 C 8.775 16.993,8.747 17.496,8.744 18.180 C 8.740 19.049,8.745 19.112,8.831 19.325 C 9.068 19.910,9.548 20.110,10.276 19.926 C 10.706 19.817,11.308 19.575,12.387 19.075 C 13.640 18.496,13.789 18.440,14.076 18.440 C 14.374 18.440,14.523 18.495,15.800 19.080 C 17.437 19.831,18.026 20.030,18.479 19.989 C 19.220 19.922,19.525 19.322,19.465 18.050 C 19.452 17.758,19.386 16.939,19.318 16.230 C 19.180 14.771,19.185 14.602,19.373 14.267 C 19.443 14.143,19.869 13.607,20.320 13.078 C 21.337 11.883,21.677 11.434,21.892 11.003 C 22.048 10.689,22.060 10.643,22.059 10.343 C 22.058 9.829,21.868 9.581,21.263 9.299 C 20.824 9.095,20.375 8.968,18.860 8.619 C 18.222 8.473,17.619 8.317,17.520 8.274 C 17.164 8.119,17.102 8.034,16.265 6.546 C 15.535 5.249,15.199 4.725,14.901 4.419 C 14.560 4.070,14.179 3.935,13.831 4.040 M3.600 9.285 C 2.506 9.376,1.461 9.853,1.378 10.299 C 1.307 10.675,1.453 11.003,1.761 11.160 C 1.997 11.281,2.200 11.262,2.598 11.083 C 3.079 10.867,3.305 10.809,3.856 10.762 C 4.261 10.728,4.356 10.707,4.488 10.620 C 4.864 10.370,4.941 9.862,4.654 9.520 C 4.449 9.276,4.245 9.231,3.600 9.285 M4.460 14.281 C 3.534 14.380,2.720 14.672,1.953 15.183 C 1.484 15.495,1.360 15.666,1.360 16.000 C 1.360 16.432,1.672 16.737,2.110 16.733 C 2.298 16.731,2.358 16.706,2.690 16.487 C 3.441 15.993,3.995 15.807,4.823 15.771 C 5.226 15.754,5.439 15.766,5.752 15.820 C 6.136 15.888,6.167 15.888,6.337 15.823 C 6.668 15.697,6.877 15.338,6.819 14.997 C 6.786 14.797,6.605 14.551,6.432 14.468 C 6.114 14.318,5.058 14.217,4.460 14.281 " fill="#1C274C" stroke="none" fill-rule="evenodd"></path></svg>