<svg width="24" height="24" viewBox="0 0 24 24" fill="none" xmlns="http://www.w3.org/2000/svg"><path d="M11.720 2.035 C 11.071 2.249,10.586 2.860,9.417 4.940 C 8.475 6.615,8.364 6.799,8.165 7.012 C 7.850 7.348,7.729 7.392,6.100 7.759 C 4.149 8.199,3.509 8.382,2.934 8.664 C 2.170 9.039,1.859 9.631,2.064 10.323 C 2.257 10.970,2.686 11.569,4.339 13.500 C 5.156 14.454,5.385 14.754,5.500 15.022 C 5.622 15.308,5.615 15.735,5.461 17.300 C 5.299 18.952,5.244 20.218,5.315 20.669 C 5.390 21.147,5.501 21.391,5.755 21.641 C 5.918 21.801,6.039 21.881,6.195 21.931 C 6.826 22.134,7.522 21.924,10.010 20.783 C 11.469 20.114,11.667 20.040,12.000 20.040 C 12.333 20.040,12.531 20.114,13.990 20.783 C 16.478 21.924,17.174 22.134,17.805 21.931 C 17.961 21.881,18.082 21.801,18.245 21.641 C 18.499 21.391,18.610 21.147,18.685 20.669 C 18.756 20.218,18.701 18.952,18.539 17.300 C 18.385 15.735,18.378 15.308,18.500 15.022 C 18.615 14.754,18.844 14.454,19.661 13.500 C 21.330 11.551,21.749 10.963,21.941 10.301 C 22.078 9.832,21.944 9.348,21.583 9.007 C 21.120 8.569,20.384 8.319,17.900 7.759 C 16.643 7.476,16.444 7.422,16.196 7.297 C 15.902 7.149,15.653 6.834,15.204 6.037 C 14.975 5.632,14.588 4.949,14.346 4.520 C 13.290 2.654,12.742 2.054,12.061 2.016 C 11.928 2.008,11.775 2.017,11.720 2.035 " fill="#1C274C" stroke="none" fill-rule="evenodd"></path></svg>