<svg width="24" height="24" viewBox="0 0 24 24" fill="none" xmlns="http://www.w3.org/2000/svg"><path d="M4.773 1.279 C 4.579 1.325,4.440 1.430,4.114 1.781 C 2.611 3.397,1.667 5.405,1.334 7.700 C 1.238 8.364,1.238 9.796,1.334 10.460 C 1.679 12.834,2.670 14.890,4.253 16.516 C 4.603 16.875,4.745 16.960,4.996 16.960 C 5.303 16.960,5.547 16.797,5.684 16.500 C 5.844 16.155,5.756 15.934,5.241 15.379 C 3.955 13.994,3.142 12.314,2.852 10.440 C 2.753 9.798,2.753 8.362,2.852 7.720 C 3.141 5.855,3.945 4.185,5.222 2.796 C 5.599 2.387,5.680 2.246,5.680 2.004 C 5.680 1.799,5.621 1.648,5.487 1.506 C 5.297 1.305,5.026 1.218,4.773 1.279 M18.980 1.357 C 18.802 1.400,18.705 1.461,18.567 1.618 C 18.427 1.777,18.378 1.969,18.417 2.208 C 18.447 2.399,18.525 2.516,18.886 2.912 C 20.153 4.302,20.990 6.177,21.198 8.088 C 21.221 8.302,21.240 8.748,21.240 9.080 C 21.240 9.412,21.221 9.858,21.198 10.072 C 20.986 12.024,20.130 13.907,18.806 15.334 C 18.459 15.708,18.387 15.818,18.346 16.035 C 18.290 16.325,18.505 16.708,18.788 16.826 C 18.953 16.895,19.207 16.895,19.372 16.826 C 19.648 16.711,20.587 15.603,21.107 14.780 C 21.932 13.475,22.462 11.975,22.662 10.380 C 22.748 9.695,22.749 8.467,22.663 7.787 C 22.427 5.914,21.741 4.187,20.642 2.698 C 20.202 2.102,19.671 1.518,19.483 1.423 C 19.341 1.351,19.123 1.323,18.980 1.357 M7.575 4.357 C 7.401 4.400,7.254 4.512,6.960 4.826 C 5.748 6.122,5.141 7.818,5.280 9.522 C 5.400 10.991,5.979 12.265,7.022 13.357 C 7.362 13.712,7.528 13.809,7.798 13.809 C 8.290 13.809,8.633 13.366,8.512 12.887 C 8.479 12.754,8.385 12.624,8.109 12.327 C 7.186 11.333,6.760 10.303,6.760 9.060 C 6.760 7.824,7.181 6.799,8.099 5.803 C 8.469 5.402,8.551 5.215,8.484 4.920 C 8.395 4.522,7.970 4.259,7.575 4.357 M16.134 4.400 C 15.788 4.478,15.560 4.763,15.560 5.117 C 15.560 5.381,15.631 5.516,15.944 5.849 C 16.798 6.757,17.240 7.853,17.240 9.060 C 17.240 10.271,16.804 11.352,15.949 12.263 C 15.590 12.646,15.520 12.773,15.520 13.044 C 15.520 13.460,15.822 13.760,16.239 13.760 C 16.528 13.760,16.673 13.679,17.000 13.335 C 19.312 10.900,19.322 7.246,17.022 4.808 C 16.679 4.445,16.434 4.332,16.134 4.400 M11.620 7.039 C 10.906 7.197,10.359 7.674,10.110 8.356 C 9.988 8.690,9.992 9.332,10.119 9.660 C 10.240 9.975,10.446 10.284,10.662 10.473 L 10.835 10.626 9.063 16.203 C 8.088 19.270,7.278 21.829,7.264 21.890 C 7.221 22.075,7.318 22.358,7.480 22.520 C 7.737 22.777,8.148 22.811,8.440 22.599 C 8.495 22.558,9.314 21.607,10.260 20.485 C 11.206 19.363,11.989 18.444,12.000 18.444 C 12.011 18.444,12.794 19.363,13.740 20.485 C 14.686 21.607,15.505 22.558,15.560 22.599 C 15.852 22.811,16.263 22.777,16.520 22.520 C 16.682 22.358,16.779 22.075,16.736 21.890 C 16.722 21.829,15.912 19.270,14.937 16.203 L 13.165 10.626 13.338 10.473 C 13.554 10.284,13.760 9.975,13.881 9.660 C 14.009 9.330,14.012 8.690,13.888 8.350 C 13.604 7.572,12.915 7.059,12.102 7.019 C 11.925 7.011,11.708 7.019,11.620 7.039 M12.494 13.444 C 12.753 14.260,12.957 14.949,12.947 14.974 C 12.915 15.051,12.034 16.080,12.000 16.080 C 11.966 16.080,11.085 15.051,11.053 14.974 C 11.033 14.923,11.963 11.960,12.000 11.960 C 12.013 11.960,12.235 12.628,12.494 13.444 M10.758 16.964 C 10.893 17.121,10.998 17.264,10.992 17.283 C 10.972 17.340,9.904 18.598,9.889 18.582 C 9.881 18.574,10.002 18.166,10.159 17.674 C 10.494 16.618,10.473 16.680,10.495 16.680 C 10.505 16.680,10.623 16.808,10.758 16.964 M13.836 17.654 C 13.995 18.157,14.119 18.575,14.111 18.582 C 14.096 18.598,13.028 17.340,13.008 17.283 C 12.990 17.231,13.487 16.671,13.519 16.708 C 13.535 16.725,13.677 17.151,13.836 17.654 " fill="#1C274C" stroke="none" fill-rule="evenodd"></path></svg>