<svg width="24" height="24" viewBox="0 0 24 24" fill="none" xmlns="http://www.w3.org/2000/svg"><path d="M11.387 1.283 C 8.365 1.499,5.689 3.579,4.685 6.490 C 3.778 9.121,4.313 11.973,6.117 14.128 C 6.487 14.570,6.595 14.657,6.851 14.726 C 7.403 14.874,7.924 14.270,7.702 13.739 C 7.670 13.663,7.508 13.443,7.341 13.250 C 6.582 12.374,6.061 11.306,5.853 10.200 C 5.744 9.620,5.754 8.363,5.873 7.810 C 6.421 5.262,8.336 3.360,10.861 2.854 C 11.133 2.799,11.409 2.782,12.000 2.782 C 12.591 2.782,12.867 2.799,13.139 2.854 C 15.671 3.361,17.576 5.254,18.127 7.810 C 18.257 8.413,18.258 9.628,18.129 10.269 C 17.907 11.369,17.440 12.327,16.700 13.200 C 16.322 13.646,16.267 13.758,16.289 14.024 C 16.320 14.402,16.585 14.669,16.966 14.706 C 17.283 14.737,17.465 14.623,17.874 14.137 C 19.213 12.548,19.892 10.483,19.728 8.498 C 19.403 4.567,16.408 1.560,12.539 1.281 C 12.232 1.259,11.944 1.243,11.900 1.246 C 11.856 1.249,11.625 1.266,11.387 1.283 M11.301 4.125 C 9.174 4.434,7.454 6.135,7.117 8.260 C 7.089 8.436,7.067 8.814,7.068 9.100 C 7.073 10.173,7.419 11.206,8.056 12.053 C 8.502 12.646,8.778 12.812,9.162 12.719 C 9.527 12.632,9.748 12.307,9.710 11.913 C 9.691 11.709,9.661 11.660,9.270 11.175 C 9.037 10.887,8.795 10.404,8.672 9.978 C 8.592 9.703,8.580 9.573,8.582 9.020 C 8.584 8.431,8.593 8.353,8.696 8.040 C 9.092 6.830,9.969 5.994,11.180 5.670 C 11.426 5.604,11.615 5.584,12.000 5.584 C 12.732 5.584,13.272 5.744,13.887 6.142 C 14.543 6.566,15.033 7.222,15.303 8.040 C 15.407 8.354,15.416 8.429,15.418 9.020 C 15.420 9.573,15.408 9.703,15.328 9.978 C 15.201 10.415,14.957 10.899,14.721 11.183 C 14.404 11.562,14.316 11.729,14.314 11.947 C 14.313 12.289,14.447 12.509,14.740 12.644 C 15.184 12.849,15.560 12.629,16.080 11.860 C 16.966 10.548,17.180 8.923,16.664 7.412 C 16.068 5.662,14.514 4.385,12.660 4.121 C 12.328 4.074,11.636 4.076,11.301 4.125 M11.595 7.573 C 11.046 7.778,10.728 8.264,10.769 8.835 C 10.791 9.147,10.901 9.391,11.124 9.621 L 11.279 9.782 9.299 15.721 C 8.209 18.988,7.300 21.737,7.279 21.831 C 7.113 22.550,7.999 23.041,8.520 22.520 C 8.658 22.382,8.714 22.233,9.358 20.306 L 10.047 18.240 12.000 18.240 L 13.953 18.240 14.642 20.306 C 15.286 22.233,15.342 22.382,15.480 22.520 C 16.001 23.041,16.887 22.550,16.721 21.831 C 16.700 21.737,15.791 18.988,14.701 15.721 L 12.721 9.782 12.876 9.621 C 13.326 9.155,13.362 8.473,12.963 7.969 C 12.738 7.684,12.457 7.548,12.060 7.532 C 11.859 7.524,11.686 7.539,11.595 7.573 M12.730 14.570 C 13.121 15.742,13.440 16.714,13.440 16.730 C 13.440 16.747,12.792 16.760,12.000 16.760 C 11.208 16.760,10.560 16.747,10.560 16.730 C 10.560 16.671,11.980 12.440,12.000 12.440 C 12.011 12.440,12.340 13.399,12.730 14.570 " fill="#1C274C" stroke="none" fill-rule="evenodd"></path></svg>