<svg width="24" height="24" viewBox="0 0 24 24" fill="none" xmlns="http://www.w3.org/2000/svg"><path d="M5.811 1.278 C 5.639 1.320,5.415 1.494,5.336 1.649 C 5.300 1.717,5.262 1.875,5.251 1.999 L 5.230 2.226 4.745 2.273 C 4.122 2.333,3.871 2.400,3.380 2.639 C 2.497 3.067,1.858 3.751,1.505 4.647 C 1.309 5.144,1.273 5.395,1.252 6.418 C 1.221 7.871,1.318 8.672,1.645 9.660 C 2.195 11.326,3.291 12.749,4.780 13.731 C 5.648 14.304,6.757 14.733,7.742 14.879 C 7.917 14.904,8.099 14.933,8.146 14.942 C 8.232 14.959,8.232 14.967,8.252 16.330 C 8.273 17.843,8.300 18.071,8.539 18.786 C 8.968 20.068,9.766 21.101,10.899 21.837 C 11.496 22.226,12.266 22.530,13.000 22.668 C 13.560 22.773,15.315 22.771,15.800 22.666 C 17.040 22.396,18.060 21.753,18.792 20.780 C 19.090 20.384,19.415 19.720,19.500 19.337 C 19.538 19.163,19.575 19.000,19.582 18.975 C 19.588 18.950,19.663 18.917,19.747 18.902 C 20.162 18.825,20.733 18.496,21.115 18.115 C 21.654 17.576,21.941 16.933,21.988 16.159 C 22.061 14.940,21.393 13.833,20.260 13.296 C 19.441 12.908,18.559 12.908,17.740 13.296 C 15.588 14.315,15.393 17.210,17.388 18.521 C 17.546 18.625,17.766 18.743,17.877 18.783 C 18.117 18.869,18.117 18.887,17.875 19.390 C 17.458 20.255,16.658 20.898,15.692 21.143 C 15.345 21.231,15.229 21.240,14.431 21.240 C 13.710 21.240,13.482 21.226,13.160 21.160 C 11.672 20.857,10.469 19.794,9.975 18.347 C 9.792 17.811,9.760 17.484,9.760 16.176 L 9.760 14.962 9.850 14.945 C 9.900 14.936,10.153 14.890,10.413 14.842 C 11.079 14.721,11.687 14.512,12.360 14.173 C 13.150 13.775,13.592 13.451,14.260 12.781 C 14.893 12.148,15.243 11.680,15.596 11.000 C 15.993 10.233,16.212 9.587,16.365 8.730 C 16.472 8.129,16.519 6.229,16.441 5.611 C 16.270 4.246,15.487 3.163,14.265 2.601 C 13.901 2.433,13.567 2.335,13.240 2.300 C 12.738 2.246,12.774 2.267,12.749 1.999 C 12.723 1.708,12.629 1.538,12.409 1.384 C 12.269 1.285,12.204 1.267,12.000 1.267 C 11.796 1.267,11.731 1.285,11.591 1.384 C 11.266 1.612,11.262 1.631,11.248 2.907 C 11.234 4.184,11.250 4.299,11.475 4.525 C 11.977 5.026,12.759 4.652,12.760 3.910 C 12.760 3.773,12.769 3.760,12.870 3.761 C 13.086 3.762,13.496 3.884,13.776 4.031 C 14.170 4.237,14.506 4.583,14.710 4.990 C 14.948 5.465,14.972 5.677,14.948 7.094 C 14.932 8.096,14.915 8.365,14.847 8.684 C 14.584 9.936,14.007 10.969,13.074 11.860 C 12.282 12.616,11.334 13.112,10.195 13.367 C 9.834 13.448,9.676 13.460,8.980 13.458 C 8.076 13.456,7.703 13.397,6.958 13.137 C 6.024 12.812,5.320 12.367,4.598 11.643 C 3.689 10.731,3.149 9.738,2.871 8.466 C 2.790 8.095,2.782 7.951,2.781 6.780 L 2.780 5.500 2.886 5.235 C 3.242 4.347,3.949 3.826,4.870 3.770 L 5.240 3.748 5.240 3.904 C 5.241 4.652,6.021 5.029,6.525 4.525 C 6.750 4.299,6.766 4.184,6.752 2.907 C 6.741 1.856,6.735 1.771,6.658 1.641 C 6.494 1.361,6.122 1.202,5.811 1.278 " fill="#1C274C" stroke="none" fill-rule="evenodd"></path></svg>