<svg width="24" height="24" viewBox="0 0 24 24" fill="none" xmlns="http://www.w3.org/2000/svg"><path d="M11.560 1.266 C 7.059 1.474,3.199 4.390,1.798 8.640 C 1.220 10.393,1.108 12.389,1.486 14.220 C 2.298 18.160,5.381 21.386,9.300 22.399 C 9.744 22.514,10.529 22.653,10.990 22.699 L 11.240 22.724 11.241 21.292 C 11.242 19.171,11.322 17.839,11.493 17.120 L 11.545 16.900 10.762 16.897 C 9.980 16.893,9.539 16.847,8.877 16.697 C 8.618 16.638,8.556 16.606,8.394 16.445 C 8.242 16.293,8.202 16.224,8.179 16.066 C 8.139 15.799,8.214 15.574,8.402 15.394 C 8.609 15.197,8.829 15.150,9.190 15.227 C 9.963 15.392,10.935 15.444,11.641 15.359 C 12.208 15.291,12.178 15.307,12.383 14.967 C 12.671 14.489,12.979 14.098,13.438 13.626 C 14.164 12.879,14.758 12.449,15.660 12.017 C 16.995 11.378,17.975 11.243,21.312 11.241 L 22.724 11.240 22.699 10.990 C 22.263 6.614,19.269 2.966,15.080 1.707 C 14.021 1.388,12.645 1.216,11.560 1.266 M14.718 8.419 C 14.888 8.507,15.208 8.880,15.333 9.136 C 15.584 9.650,15.619 10.276,15.420 10.711 C 15.295 10.985,15.226 11.065,15.032 11.164 C 14.583 11.393,14.007 11.074,13.695 10.425 C 13.523 10.064,13.467 9.780,13.488 9.362 C 13.508 8.962,13.599 8.723,13.814 8.509 C 14.037 8.285,14.392 8.250,14.718 8.419 M8.692 9.882 C 9.391 10.059,9.920 11.186,9.704 12.040 C 9.503 12.837,8.865 13.035,8.272 12.486 C 7.865 12.109,7.654 11.541,7.687 10.911 C 7.715 10.377,7.949 9.988,8.307 9.881 C 8.463 9.834,8.501 9.834,8.692 9.882 M18.780 12.802 C 17.608 12.870,17.035 13.008,16.198 13.423 C 15.593 13.723,15.136 14.059,14.598 14.597 C 13.558 15.640,13.014 16.741,12.837 18.160 C 12.809 18.386,12.782 19.389,12.771 20.636 L 12.752 22.732 12.946 22.706 C 13.442 22.639,13.255 22.812,18.032 18.003 C 22.083 13.925,22.453 13.542,22.559 13.311 C 22.623 13.173,22.687 12.992,22.702 12.910 L 22.729 12.760 21.014 12.766 C 20.072 12.769,19.066 12.786,18.780 12.802 " fill="#1C274C" stroke="none" fill-rule="evenodd"></path></svg>