<svg width="24" height="24" viewBox="0 0 24 24" fill="none" xmlns="http://www.w3.org/2000/svg"><path d="M11.120 2.042 C 6.665 2.449,3.038 5.721,2.185 10.103 C 1.921 11.458,1.948 12.935,2.260 14.260 C 3.156 18.071,6.168 21.008,9.988 21.796 C 10.212 21.842,10.421 21.880,10.453 21.880 C 10.502 21.880,10.514 21.614,10.532 20.130 C 10.560 17.899,10.643 17.175,10.986 16.186 C 11.713 14.094,13.254 12.360,15.260 11.380 C 16.645 10.703,17.435 10.565,20.130 10.532 C 21.614 10.514,21.880 10.502,21.880 10.453 C 21.880 10.164,21.540 8.933,21.280 8.281 C 19.659 4.212,15.478 1.644,11.120 2.042 M18.940 12.044 C 17.272 12.124,16.304 12.408,15.180 13.149 C 13.928 13.974,13.058 15.040,12.496 16.432 C 12.126 17.350,12.003 18.474,12.001 20.955 L 12.000 22.009 12.230 21.981 C 12.543 21.943,12.892 21.821,13.180 21.651 C 13.512 21.454,21.317 13.671,21.587 13.267 C 21.793 12.960,21.940 12.572,21.981 12.230 L 22.009 12.000 20.815 12.006 C 20.158 12.009,19.314 12.027,18.940 12.044 " fill="#1C274C" stroke="none" fill-rule="evenodd"></path></svg>