<svg width="24" height="24" viewBox="0 0 24 24" fill="none" xmlns="http://www.w3.org/2000/svg"><path d="M8.456 2.042 C 5.720 2.141,4.373 2.534,3.435 3.507 C 2.688 4.282,2.317 5.263,2.142 6.927 C 2.046 7.840,2.001 9.469,2.001 12.000 C 2.001 16.100,2.103 17.613,2.459 18.779 C 2.891 20.195,3.805 21.109,5.221 21.541 C 6.348 21.885,7.922 21.999,11.570 22.000 L 13.480 22.000 13.481 21.430 C 13.483 19.839,13.601 18.648,13.821 17.980 C 13.978 17.507,14.329 16.795,14.630 16.340 C 14.991 15.795,15.795 14.991,16.340 14.630 C 16.795 14.329,17.507 13.978,17.980 13.821 C 18.648 13.601,19.839 13.483,21.430 13.481 L 22.000 13.480 22.000 11.570 C 21.999 7.907,21.887 6.371,21.538 5.213 C 21.115 3.811,20.192 2.890,18.779 2.459 C 17.994 2.219,17.052 2.102,15.417 2.041 C 14.217 1.996,9.702 1.997,8.456 2.042 M19.739 15.042 C 18.901 15.096,18.395 15.224,17.760 15.542 C 16.413 16.216,15.365 17.581,15.122 18.980 C 15.054 19.373,15.001 20.326,15.001 21.190 L 15.000 22.000 15.136 22.000 C 15.410 22.000,16.110 21.913,16.479 21.834 C 17.845 21.539,19.178 20.787,20.098 19.793 C 20.974 18.847,21.567 17.715,21.834 16.479 C 21.913 16.110,22.000 15.410,22.000 15.136 L 22.000 15.000 21.110 15.006 C 20.621 15.009,20.004 15.026,19.739 15.042 " fill="#1C274C" stroke="none" fill-rule="evenodd"></path></svg>