<svg width="24" height="24" viewBox="0 0 24 24" fill="none" xmlns="http://www.w3.org/2000/svg"><path d="M11.300 2.024 C 10.264 2.130,9.297 2.339,8.537 2.620 C 7.198 3.116,5.776 4.043,4.820 5.045 C 3.870 6.039,3.083 7.286,2.625 8.525 C 2.025 10.146,1.856 12.061,2.162 13.760 C 2.830 17.461,5.513 20.479,9.100 21.563 C 9.386 21.649,9.697 21.720,9.792 21.720 C 10.035 21.720,10.257 21.594,10.374 21.390 C 10.469 21.223,10.471 21.197,10.496 19.970 C 10.510 19.283,10.541 18.527,10.566 18.290 C 10.590 18.054,10.612 17.801,10.615 17.729 L 10.620 17.599 10.214 17.462 C 9.470 17.211,8.565 16.693,8.375 16.409 C 8.113 16.020,8.294 15.468,8.740 15.298 C 9.001 15.198,9.215 15.245,9.568 15.477 C 9.728 15.583,9.972 15.725,10.108 15.794 C 10.428 15.956,10.963 16.135,10.997 16.093 C 11.012 16.075,11.066 15.952,11.118 15.820 C 11.393 15.122,11.947 14.184,12.421 13.616 C 12.935 12.999,13.588 12.399,14.179 12.001 L 14.478 11.799 14.343 11.621 C 14.098 11.300,14.026 11.045,14.024 10.500 C 14.023 10.091,14.036 9.986,14.115 9.789 C 14.529 8.746,15.470 8.746,15.885 9.789 C 15.964 9.987,15.978 10.093,15.979 10.532 C 15.980 10.969,15.989 11.041,16.040 11.024 C 17.271 10.611,17.826 10.535,19.880 10.495 C 21.364 10.466,21.417 10.457,21.604 10.195 C 21.756 9.981,21.751 9.731,21.581 9.158 C 21.105 7.551,20.262 6.140,19.061 4.940 C 17.781 3.661,16.278 2.795,14.548 2.340 C 13.770 2.135,13.070 2.041,12.200 2.023 C 11.793 2.014,11.388 2.015,11.300 2.024 M9.300 9.075 C 9.498 9.164,9.700 9.389,9.824 9.657 C 10.107 10.266,10.037 11.124,9.665 11.611 C 9.174 12.254,8.443 12.066,8.119 11.211 C 8.012 10.929,7.972 10.388,8.036 10.080 C 8.166 9.454,8.570 9.002,9.000 9.002 C 9.077 9.002,9.212 9.035,9.300 9.075 M18.980 12.041 C 17.576 12.105,16.787 12.283,15.872 12.744 C 14.847 13.260,13.968 14.012,13.290 14.952 C 12.985 15.375,12.523 16.288,12.364 16.783 C 12.100 17.603,12.001 18.683,12.000 20.755 L 12.000 22.010 12.239 21.983 C 12.534 21.950,12.855 21.842,13.153 21.676 C 13.483 21.492,21.492 13.483,21.676 13.153 C 21.842 12.855,21.950 12.534,21.983 12.239 L 22.010 12.000 20.815 12.006 C 20.158 12.010,19.332 12.026,18.980 12.041 " fill="#1C274C" stroke="none" fill-rule="evenodd"></path></svg>