<svg width="24" height="24" viewBox="0 0 24 24" fill="none" xmlns="http://www.w3.org/2000/svg"><path d="M8.456 2.042 C 5.720 2.141,4.373 2.534,3.435 3.507 C 2.688 4.282,2.317 5.263,2.142 6.927 C 2.046 7.840,2.001 9.469,2.001 12.000 C 2.001 16.100,2.103 17.613,2.459 18.779 C 2.891 20.195,3.805 21.109,5.221 21.541 C 6.348 21.885,7.922 21.999,11.570 22.000 L 13.480 22.000 13.481 21.430 C 13.482 20.546,13.550 19.289,13.621 18.844 C 13.692 18.402,13.777 18.083,13.934 17.670 C 13.990 17.521,14.022 17.400,14.004 17.400 C 13.987 17.400,13.866 17.437,13.736 17.481 C 13.196 17.667,12.738 17.734,12.000 17.734 C 11.217 17.734,10.781 17.664,10.132 17.435 C 9.423 17.185,8.556 16.679,8.375 16.409 C 8.019 15.880,8.494 15.154,9.125 15.261 C 9.211 15.275,9.420 15.378,9.590 15.490 C 10.018 15.770,10.493 15.986,10.952 16.110 C 11.296 16.202,11.415 16.214,12.000 16.214 C 12.585 16.214,12.704 16.202,13.048 16.110 C 13.508 15.986,13.982 15.770,14.412 15.489 C 14.780 15.247,14.971 15.204,15.251 15.299 L 15.443 15.364 15.711 15.119 C 16.262 14.618,17.209 14.076,17.980 13.821 C 18.648 13.601,19.839 13.483,21.430 13.481 L 22.000 13.480 22.000 11.570 C 21.999 7.907,21.887 6.371,21.538 5.213 C 21.115 3.811,20.192 2.890,18.779 2.459 C 17.994 2.219,17.052 2.102,15.417 2.041 C 14.217 1.996,9.702 1.997,8.456 2.042 M9.300 9.075 C 9.498 9.164,9.700 9.389,9.824 9.657 C 10.107 10.266,10.037 11.124,9.665 11.611 C 9.174 12.254,8.443 12.066,8.119 11.211 C 8.012 10.929,7.972 10.388,8.036 10.080 C 8.166 9.454,8.570 9.002,9.000 9.002 C 9.077 9.002,9.212 9.035,9.300 9.075 M15.300 9.075 C 15.498 9.164,15.700 9.389,15.824 9.657 C 16.107 10.266,16.037 11.124,15.665 11.611 C 15.174 12.254,14.443 12.066,14.119 11.211 C 14.012 10.929,13.972 10.388,14.036 10.080 C 14.166 9.454,14.570 9.002,15.000 9.002 C 15.077 9.002,15.212 9.035,15.300 9.075 M19.739 15.042 C 18.901 15.096,18.395 15.224,17.760 15.542 C 16.413 16.216,15.365 17.581,15.122 18.980 C 15.054 19.373,15.001 20.326,15.001 21.190 L 15.000 22.000 15.136 22.000 C 15.410 22.000,16.110 21.913,16.479 21.834 C 17.845 21.539,19.178 20.787,20.098 19.793 C 20.974 18.847,21.567 17.715,21.834 16.479 C 21.913 16.110,22.000 15.410,22.000 15.136 L 22.000 15.000 21.110 15.006 C 20.621 15.009,20.004 15.026,19.739 15.042 " fill="#1C274C" stroke="none" fill-rule="evenodd"></path></svg>