<svg width="24" height="24" viewBox="0 0 24 24" fill="none" xmlns="http://www.w3.org/2000/svg"><path d="M9.807 1.287 C 9.568 1.341,9.341 1.572,9.289 1.816 C 9.197 2.246,9.431 2.629,9.838 2.716 C 10.121 2.776,13.879 2.776,14.162 2.716 C 14.920 2.553,14.920 1.447,14.162 1.284 C 13.903 1.229,10.058 1.231,9.807 1.287 M11.320 4.025 C 9.104 4.228,7.155 5.127,5.634 6.648 C 4.435 7.847,3.556 9.454,3.203 11.092 C 2.559 14.080,3.478 17.197,5.641 19.359 C 7.578 21.296,10.315 22.256,13.008 21.941 C 16.089 21.580,18.721 19.720,20.083 16.940 C 21.614 13.817,21.198 10.096,19.013 7.369 C 17.610 5.617,15.558 4.440,13.320 4.101 C 12.909 4.039,11.677 3.992,11.320 4.025 M12.405 8.381 C 12.485 8.432,12.593 8.543,12.645 8.627 L 12.740 8.780 12.740 11.007 L 12.740 13.233 12.619 13.405 C 12.453 13.641,12.273 13.739,12.000 13.739 C 11.727 13.739,11.547 13.641,11.381 13.405 L 11.260 13.233 11.260 11.007 L 11.260 8.780 11.353 8.631 C 11.586 8.256,12.044 8.147,12.405 8.381 " fill="#1C274C" stroke="none" fill-rule="evenodd"></path></svg>