<svg width="24" height="24" viewBox="0 0 24 24" fill="none" xmlns="http://www.w3.org/2000/svg"><path d="M9.720 2.064 C 9.423 2.193,9.269 2.426,9.269 2.746 C 9.269 3.013,9.411 3.267,9.632 3.390 L 9.791 3.480 12.000 3.480 L 14.209 3.480 14.368 3.390 C 14.784 3.157,14.860 2.536,14.513 2.212 C 14.286 2.000,14.289 2.000,11.991 2.002 C 10.178 2.003,9.839 2.012,9.720 2.064 M11.060 4.804 C 9.018 5.013,7.115 5.925,5.640 7.400 C 2.484 10.556,2.115 15.506,4.769 19.105 C 5.161 19.636,6.080 20.560,6.600 20.945 C 7.857 21.876,9.187 22.426,10.760 22.666 C 11.390 22.762,12.610 22.762,13.240 22.666 C 15.214 22.364,16.853 21.559,18.255 20.200 C 18.787 19.684,19.127 19.280,19.498 18.720 C 21.446 15.780,21.500 11.995,19.638 8.992 C 18.947 7.879,17.880 6.812,16.765 6.121 C 15.284 5.202,13.664 4.748,11.926 4.765 C 11.626 4.768,11.236 4.785,11.060 4.804 M10.465 9.868 C 10.639 9.961,10.798 10.127,10.911 10.335 C 10.974 10.449,10.981 10.722,10.992 13.560 C 10.999 15.265,10.994 16.753,10.980 16.866 C 10.943 17.176,10.751 17.464,10.480 17.616 L 10.260 17.740 9.500 17.740 L 8.740 17.740 8.520 17.616 C 8.274 17.478,8.069 17.194,8.026 16.931 C 7.988 16.702,7.999 10.725,8.037 10.526 C 8.074 10.335,8.242 10.070,8.402 9.952 C 8.628 9.784,8.783 9.760,9.560 9.770 C 10.236 9.779,10.314 9.788,10.465 9.868 M15.465 9.868 C 15.639 9.961,15.798 10.127,15.911 10.335 C 15.974 10.449,15.981 10.722,15.992 13.560 C 15.999 15.265,15.994 16.753,15.980 16.866 C 15.943 17.176,15.751 17.464,15.480 17.616 L 15.260 17.740 14.500 17.740 L 13.740 17.740 13.520 17.616 C 13.274 17.478,13.069 17.194,13.026 16.931 C 12.988 16.702,12.999 10.725,13.037 10.526 C 13.074 10.335,13.242 10.070,13.402 9.952 C 13.628 9.784,13.783 9.760,14.560 9.770 C 15.236 9.779,15.314 9.788,15.465 9.868 " fill="#1C274C" stroke="none" fill-rule="evenodd"></path></svg>