<svg width="24" height="24" viewBox="0 0 24 24" fill="none" xmlns="http://www.w3.org/2000/svg"><path d="M11.300 2.024 C 10.268 2.130,9.297 2.339,8.537 2.620 C 6.161 3.500,4.142 5.321,3.043 7.576 C 2.706 8.267,2.527 8.743,2.342 9.443 C 2.101 10.351,2.026 10.964,2.026 12.000 C 2.026 12.726,2.043 13.008,2.113 13.460 C 2.441 15.571,3.363 17.437,4.837 18.972 C 5.788 19.962,7.208 20.887,8.523 21.374 C 9.075 21.579,9.894 21.787,10.540 21.887 C 11.338 22.011,12.662 22.011,13.460 21.887 C 14.942 21.657,16.316 21.129,17.508 20.333 C 19.030 19.315,20.184 18.007,20.959 16.420 C 21.435 15.446,21.720 14.536,21.887 13.460 C 22.011 12.662,22.011 11.338,21.887 10.540 C 21.657 9.058,21.129 7.684,20.333 6.492 C 19.530 5.292,18.683 4.446,17.483 3.649 C 15.928 2.615,14.126 2.060,12.200 2.022 C 11.793 2.014,11.388 2.015,11.300 2.024 M12.940 7.340 C 13.878 7.542,14.597 7.926,15.294 8.599 C 17.230 10.469,17.239 13.505,15.314 15.385 C 13.612 17.046,11.001 17.212,9.120 15.778 C 8.819 15.548,8.253 14.951,8.060 14.660 C 7.715 14.138,7.438 13.461,7.316 12.840 C 7.250 12.505,7.250 11.495,7.316 11.160 C 7.438 10.539,7.715 9.862,8.060 9.340 C 8.253 9.050,8.818 8.453,9.120 8.222 C 9.750 7.739,10.587 7.392,11.380 7.283 C 11.745 7.233,12.585 7.263,12.940 7.340 M11.408 8.802 C 11.068 8.863,10.520 9.087,10.214 9.290 C 9.856 9.529,9.418 9.988,9.201 10.354 C 9.108 10.510,8.976 10.805,8.907 11.009 C 8.788 11.361,8.782 11.411,8.782 12.000 C 8.782 12.589,8.788 12.639,8.907 12.991 C 9.083 13.513,9.313 13.880,9.716 14.284 C 10.120 14.687,10.487 14.917,11.009 15.093 C 11.361 15.212,11.411 15.218,12.000 15.218 C 12.589 15.218,12.639 15.212,12.991 15.093 C 13.513 14.917,13.880 14.687,14.284 14.284 C 14.688 13.879,14.918 13.512,15.092 12.991 C 15.209 12.640,15.216 12.586,15.217 12.000 C 15.219 11.409,15.213 11.363,15.093 11.009 C 14.917 10.487,14.687 10.120,14.284 9.716 C 13.882 9.315,13.527 9.095,12.994 8.916 C 12.670 8.807,12.553 8.788,12.120 8.777 C 11.845 8.770,11.525 8.781,11.408 8.802 " fill="#1C274C" stroke="none" fill-rule="evenodd"></path></svg>