<svg width="24" height="24" viewBox="0 0 24 24" fill="none" xmlns="http://www.w3.org/2000/svg"><path d="M9.698 2.075 C 9.368 2.225,9.186 2.580,9.273 2.905 C 9.340 3.155,9.423 3.267,9.636 3.392 L 9.820 3.500 12.000 3.500 L 14.180 3.500 14.364 3.392 C 14.577 3.267,14.660 3.155,14.727 2.905 C 14.814 2.580,14.632 2.225,14.302 2.075 C 14.151 2.007,13.991 2.002,12.000 2.002 C 10.009 2.002,9.849 2.007,9.698 2.075 M11.060 4.804 C 8.709 5.046,6.459 6.272,4.996 8.108 C 3.984 9.376,3.343 10.850,3.094 12.480 C 2.996 13.118,2.997 14.407,3.096 15.040 C 3.305 16.380,3.758 17.573,4.471 18.660 C 4.847 19.234,5.090 19.535,5.576 20.033 C 6.790 21.276,8.351 22.154,9.991 22.517 C 11.302 22.808,12.698 22.808,14.009 22.517 C 15.649 22.154,17.210 21.276,18.424 20.033 C 18.910 19.535,19.153 19.234,19.529 18.660 C 20.242 17.573,20.695 16.380,20.904 15.040 C 21.003 14.407,21.004 13.118,20.906 12.480 C 20.657 10.850,20.016 9.376,19.004 8.108 C 17.696 6.466,15.720 5.289,13.624 4.903 C 12.880 4.766,11.824 4.725,11.060 4.804 M11.336 9.995 C 12.220 10.443,13.164 11.085,14.201 11.943 C 15.205 12.774,15.495 13.176,15.492 13.736 C 15.488 14.416,15.127 14.853,13.565 16.071 C 12.537 16.872,11.148 17.685,10.701 17.746 C 10.322 17.798,9.970 17.544,9.803 17.098 C 9.424 16.086,9.410 11.557,9.783 10.458 C 9.871 10.198,10.022 9.990,10.220 9.859 C 10.364 9.764,10.408 9.755,10.656 9.772 C 10.889 9.787,10.996 9.822,11.336 9.995 " fill="#1C274C" stroke="none" fill-rule="evenodd"></path></svg>