<svg width="24" height="24" viewBox="0 0 24 24" fill="none" xmlns="http://www.w3.org/2000/svg"><path d="M11.300 2.024 C 10.268 2.130,9.297 2.339,8.537 2.620 C 6.161 3.500,4.142 5.321,3.043 7.576 C 2.706 8.267,2.527 8.743,2.342 9.443 C 2.101 10.351,2.026 10.964,2.026 12.000 C 2.026 12.726,2.043 13.008,2.113 13.460 C 2.441 15.571,3.363 17.437,4.837 18.972 C 5.788 19.962,7.208 20.887,8.523 21.374 C 9.075 21.579,9.894 21.787,10.540 21.887 C 11.338 22.011,12.662 22.011,13.460 21.887 C 14.942 21.657,16.316 21.129,17.508 20.333 C 19.030 19.315,20.184 18.007,20.959 16.420 C 21.435 15.446,21.720 14.536,21.887 13.460 C 22.011 12.662,22.011 11.338,21.887 10.540 C 21.657 9.058,21.129 7.684,20.333 6.492 C 19.530 5.292,18.683 4.446,17.483 3.649 C 15.928 2.615,14.126 2.060,12.200 2.022 C 11.793 2.014,11.388 2.015,11.300 2.024 " stroke="none" fill="black" fill-rule="evenodd"></path></svg>