<svg width="24" height="24" viewBox="0 0 24 24" fill="none" xmlns="http://www.w3.org/2000/svg"><path d="M8.456 2.042 C 5.720 2.141,4.373 2.534,3.435 3.507 C 2.688 4.282,2.317 5.263,2.142 6.927 C 2.046 7.840,2.001 9.469,2.001 12.000 C 2.001 16.100,2.103 17.613,2.459 18.779 C 2.839 20.028,3.622 20.910,4.766 21.381 C 4.950 21.457,5.161 21.530,5.235 21.545 C 5.369 21.571,5.376 21.564,13.465 13.475 C 18.322 8.618,21.560 5.351,21.560 5.307 C 21.560 5.267,21.488 5.051,21.400 4.827 C 20.938 3.647,20.049 2.843,18.787 2.462 C 17.973 2.217,17.058 2.102,15.417 2.041 C 14.217 1.996,9.702 1.997,8.456 2.042 M9.420 5.524 C 10.680 5.678,11.724 6.410,12.216 7.486 C 12.424 7.940,12.493 8.271,12.490 8.800 C 12.478 10.648,11.294 12.603,9.752 13.319 C 9.092 13.626,8.494 13.537,7.715 13.014 C 6.439 12.158,5.519 10.398,5.511 8.800 C 5.508 8.262,5.576 7.933,5.779 7.494 C 6.190 6.604,6.935 5.967,7.921 5.664 C 8.465 5.496,8.877 5.458,9.420 5.524 M18.459 10.601 L 15.060 14.000 18.020 16.960 C 19.648 18.588,20.997 19.914,21.018 19.907 C 21.094 19.882,21.359 19.335,21.496 18.921 C 21.909 17.674,21.999 16.439,22.000 12.020 C 22.000 9.415,21.951 7.368,21.886 7.252 C 21.868 7.219,20.661 8.399,18.459 10.601 M8.540 7.573 C 8.174 7.694,7.840 7.988,7.654 8.354 C 7.550 8.560,7.540 8.617,7.540 9.000 C 7.540 9.384,7.550 9.440,7.656 9.648 C 7.803 9.939,8.061 10.197,8.352 10.344 C 8.560 10.450,8.616 10.460,9.000 10.460 C 9.365 10.460,9.446 10.447,9.620 10.362 C 9.898 10.226,10.204 9.924,10.343 9.651 C 10.450 9.439,10.460 9.385,10.460 9.000 C 10.460 8.635,10.447 8.554,10.362 8.380 C 10.226 8.103,9.925 7.796,9.653 7.658 C 9.460 7.561,9.370 7.541,9.063 7.532 C 8.841 7.525,8.638 7.541,8.540 7.573 M10.584 18.476 L 7.189 21.871 7.345 21.896 C 7.696 21.953,9.803 21.999,12.000 21.999 C 16.113 21.999,17.609 21.898,18.792 21.538 C 19.139 21.432,19.708 21.180,19.860 21.065 C 19.936 21.006,19.810 20.874,16.980 18.042 C 15.352 16.413,14.011 15.080,14.000 15.080 C 13.989 15.080,12.452 16.608,10.584 18.476 " fill="#1C274C" stroke="none" fill-rule="evenodd"></path></svg>