<svg width="24" height="24" viewBox="0 0 24 24" fill="none" xmlns="http://www.w3.org/2000/svg"><path d="M13.965 2.059 C 13.449 2.176,12.869 2.534,12.559 2.926 C 11.420 4.367,12.127 6.467,13.904 6.921 C 15.010 7.204,16.214 6.654,16.715 5.638 C 17.090 4.876,17.090 4.124,16.716 3.363 C 16.434 2.793,15.868 2.314,15.240 2.116 C 14.899 2.008,14.305 1.982,13.965 2.059 M10.120 8.880 C 9.564 8.934,8.929 9.113,8.475 9.343 C 7.757 9.706,7.042 10.626,6.792 11.509 C 6.670 11.942,6.669 12.551,6.790 12.940 C 6.943 13.432,7.318 13.954,7.623 14.099 C 7.785 14.176,8.130 14.178,8.272 14.104 C 8.734 13.862,8.816 13.297,8.451 12.877 C 8.197 12.587,8.141 12.367,8.220 11.985 C 8.421 11.027,9.212 10.430,10.360 10.371 C 11.058 10.336,11.486 10.475,11.862 10.860 C 12.747 11.766,12.850 14.193,12.091 16.240 C 11.495 17.848,10.449 19.148,8.989 20.098 C 8.604 20.349,7.988 20.650,7.520 20.818 C 6.854 21.057,5.914 21.238,5.332 21.239 C 4.880 21.240,4.656 21.304,4.480 21.480 C 4.076 21.884,4.276 22.596,4.826 22.713 C 5.175 22.787,6.218 22.694,7.009 22.518 C 10.606 21.718,13.400 18.657,13.981 14.880 C 14.072 14.288,14.102 13.125,14.042 12.539 C 13.849 10.664,13.001 9.441,11.591 9.006 C 11.362 8.935,10.609 8.828,10.466 8.846 C 10.441 8.849,10.285 8.864,10.120 8.880 M15.440 14.487 C 14.995 14.613,14.767 15.091,14.956 15.500 C 15.122 15.860,15.358 15.963,15.940 15.932 C 16.236 15.915,16.405 15.926,16.589 15.974 C 17.298 16.156,17.877 16.671,18.132 17.346 C 18.218 17.575,18.220 17.630,18.240 19.880 L 18.260 22.180 18.360 22.359 C 18.634 22.847,19.366 22.847,19.640 22.359 L 19.740 22.180 19.740 19.900 C 19.740 17.881,19.732 17.584,19.670 17.308 C 19.521 16.639,19.227 16.084,18.752 15.580 C 18.210 15.005,17.601 14.663,16.827 14.498 C 16.518 14.432,15.657 14.425,15.440 14.487 " fill="#1C274C" stroke="none" fill-rule="evenodd"></path></svg>