<svg width="24" height="24" viewBox="0 0 24 24" fill="none" xmlns="http://www.w3.org/2000/svg"><path d="M6.960 2.026 C 6.403 2.046,5.604 2.119,5.226 2.183 C 4.894 2.240,4.240 2.424,4.240 2.460 C 4.240 2.496,13.882 9.486,13.914 9.473 C 13.963 9.454,20.240 2.752,20.240 2.719 C 20.240 2.666,19.779 2.448,19.454 2.346 C 19.084 2.230,18.620 2.145,17.980 2.076 C 17.669 2.043,16.043 2.027,12.420 2.021 C 9.604 2.017,7.147 2.019,6.960 2.026 M2.846 3.553 C 2.541 3.938,2.299 4.550,2.184 5.226 C 2.040 6.070,2.021 6.575,2.021 9.500 C 2.021 12.425,2.040 12.930,2.184 13.774 C 2.354 14.773,2.758 15.513,3.431 16.055 C 4.240 16.706,5.090 16.909,7.326 16.983 L 8.153 17.010 8.814 15.695 C 9.178 14.972,9.603 14.185,9.759 13.947 C 10.394 12.973,11.119 12.508,12.000 12.508 C 12.881 12.508,13.606 12.973,14.241 13.947 C 14.397 14.185,14.821 14.969,15.183 15.690 L 15.842 17.000 16.111 17.000 C 16.749 16.999,18.102 16.913,18.581 16.842 C 18.866 16.800,19.253 16.717,19.440 16.658 C 19.801 16.544,20.160 16.379,20.160 16.328 C 20.160 16.311,18.679 15.133,16.868 13.711 C 13.776 11.282,13.254 10.890,8.269 7.265 L 2.963 3.405 2.846 3.553 M18.206 7.109 C 15.682 9.802,15.123 10.419,15.166 10.459 C 15.299 10.581,21.211 15.207,21.255 15.224 C 21.373 15.269,21.671 14.522,21.795 13.873 C 21.958 13.023,21.980 12.484,21.979 9.460 C 21.977 6.537,21.961 6.113,21.815 5.240 C 21.720 4.672,21.456 3.902,21.331 3.827 C 21.314 3.817,19.908 5.294,18.206 7.109 M11.694 14.077 C 11.474 14.177,11.265 14.391,11.007 14.781 C 10.714 15.224,8.186 20.281,8.076 20.644 C 7.998 20.900,7.993 20.964,8.031 21.148 C 8.115 21.547,8.414 21.861,8.808 21.966 C 9.066 22.034,9.399 21.951,10.220 21.614 C 11.385 21.136,11.569 21.081,12.000 21.081 C 12.431 21.081,12.615 21.136,13.780 21.614 C 14.601 21.951,14.934 22.034,15.192 21.966 C 15.586 21.861,15.885 21.547,15.969 21.148 C 16.007 20.964,16.002 20.900,15.924 20.646 C 15.793 20.212,13.309 15.268,12.963 14.751 C 12.506 14.067,12.142 13.874,11.694 14.077 " fill="#1C274C" stroke="none" fill-rule="evenodd"></path></svg>