<svg width="24" height="24" viewBox="0 0 24 24" fill="none" xmlns="http://www.w3.org/2000/svg"><path d="M8.419 2.043 C 7.007 2.095,5.908 2.239,5.193 2.465 C 3.824 2.897,2.947 3.750,2.504 5.080 C 2.091 6.323,2.001 7.559,2.001 12.000 C 2.001 15.701,2.060 16.982,2.284 18.100 C 2.418 18.765,2.718 19.577,2.935 19.860 C 2.994 19.937,3.364 19.572,11.458 11.480 C 16.112 6.827,19.920 3.007,19.920 2.992 C 19.920 2.937,19.391 2.670,19.017 2.536 C 18.214 2.249,17.181 2.107,15.417 2.041 C 14.194 1.995,9.686 1.997,8.419 2.043 M17.020 8.040 L 13.060 12.000 17.020 15.960 C 19.198 18.138,20.998 19.914,21.020 19.907 C 21.093 19.882,21.401 19.226,21.522 18.838 C 21.897 17.637,21.999 16.166,21.999 12.000 C 21.999 7.834,21.897 6.363,21.522 5.162 C 21.401 4.774,21.093 4.118,21.020 4.093 C 20.998 4.086,19.198 5.862,17.020 8.040 M8.020 17.042 C 4.235 20.829,4.064 21.006,4.140 21.065 C 4.291 21.180,4.861 21.432,5.208 21.538 C 6.391 21.898,7.887 21.999,12.000 21.999 C 16.113 21.999,17.609 21.898,18.792 21.538 C 19.139 21.432,19.709 21.180,19.860 21.065 C 19.936 21.006,19.765 20.829,15.980 17.042 C 13.802 14.863,12.011 13.080,12.000 13.080 C 11.989 13.080,10.198 14.863,8.020 17.042 " fill="#1C274C" stroke="none" fill-rule="evenodd"></path></svg>