<svg width="24" height="24" viewBox="0 0 24 24" fill="none" xmlns="http://www.w3.org/2000/svg"><path d="M13.960 2.059 C 13.055 2.262,12.313 2.990,12.079 3.904 C 11.741 5.224,12.560 6.577,13.904 6.921 C 15.010 7.204,16.214 6.654,16.715 5.638 C 17.090 4.876,17.090 4.124,16.716 3.363 C 16.434 2.793,15.868 2.314,15.240 2.116 C 14.898 2.008,14.306 1.982,13.960 2.059 M10.860 9.096 C 10.750 9.122,10.021 9.418,9.240 9.752 C 7.692 10.415,7.466 10.546,7.154 10.960 C 6.867 11.341,6.681 11.876,6.681 12.320 C 6.681 12.616,6.790 13.041,6.946 13.360 C 7.066 13.604,7.180 13.747,7.557 14.125 C 7.812 14.381,8.083 14.622,8.159 14.661 C 8.331 14.748,8.662 14.752,8.821 14.669 C 9.085 14.532,9.240 14.284,9.240 14.000 C 9.240 13.747,9.181 13.654,8.704 13.162 C 8.307 12.753,8.244 12.670,8.209 12.505 C 8.138 12.172,8.275 11.844,8.548 11.693 C 8.632 11.647,9.258 11.369,9.940 11.075 C 11.040 10.602,11.206 10.542,11.407 10.541 C 11.595 10.540,11.662 10.560,11.803 10.660 C 11.896 10.726,12.010 10.852,12.056 10.940 C 12.137 11.094,12.140 11.156,12.140 12.600 C 12.140 13.773,12.128 14.135,12.085 14.260 C 12.028 14.424,9.458 19.055,9.217 19.427 C 9.143 19.541,9.005 19.688,8.909 19.754 C 8.798 19.830,7.999 20.136,6.697 20.601 C 5.577 21.001,4.604 21.371,4.536 21.422 C 4.363 21.552,4.264 21.776,4.267 22.033 C 4.271 22.421,4.600 22.737,4.997 22.734 C 5.131 22.733,5.725 22.538,7.219 22.003 C 8.340 21.601,9.330 21.236,9.419 21.191 C 9.823 20.986,10.200 20.650,10.447 20.276 C 10.635 19.990,13.219 15.371,13.370 15.051 C 13.610 14.540,13.612 14.519,13.629 12.760 C 13.647 10.929,13.631 10.763,13.376 10.244 C 13.112 9.708,12.548 9.260,11.938 9.101 C 11.662 9.029,11.143 9.027,10.860 9.096 M16.027 14.141 C 15.723 14.191,15.423 14.254,15.362 14.279 C 15.129 14.376,14.920 14.698,14.920 14.960 C 14.920 15.208,15.103 15.508,15.320 15.618 C 15.513 15.715,15.677 15.716,16.246 15.619 C 16.928 15.502,17.120 15.497,17.405 15.588 C 17.567 15.640,17.680 15.716,17.863 15.898 C 18.262 16.294,18.240 16.103,18.240 19.245 C 18.240 21.074,18.254 22.023,18.284 22.162 C 18.449 22.932,19.558 22.919,19.719 22.145 C 19.752 21.986,19.761 21.134,19.750 19.132 C 19.734 16.004,19.748 16.164,19.433 15.520 C 19.299 15.246,19.200 15.114,18.923 14.840 C 18.166 14.090,17.418 13.909,16.027 14.141 " fill="#1C274C" stroke="none" fill-rule="evenodd"></path></svg>