<svg width="24" height="24" viewBox="0 0 24 24" fill="none" xmlns="http://www.w3.org/2000/svg"><path d="M4.400 2.064 C 3.829 2.180,3.142 2.580,2.754 3.020 C 2.228 3.618,1.964 4.377,2.013 5.159 C 2.043 5.636,2.120 5.927,2.330 6.360 C 2.469 6.644,2.562 6.766,2.898 7.102 C 3.232 7.436,3.358 7.533,3.640 7.671 C 3.827 7.763,4.038 7.850,4.110 7.864 L 4.240 7.890 4.240 11.999 L 4.240 16.107 4.070 16.158 C 3.401 16.355,2.642 17.003,2.331 17.640 C 2.120 18.072,2.043 18.364,2.013 18.841 C 1.960 19.694,2.268 20.495,2.886 21.114 C 3.505 21.732,4.306 22.040,5.159 21.987 C 5.636 21.957,5.928 21.880,6.360 21.669 C 6.641 21.532,6.767 21.436,7.081 21.122 C 7.488 20.713,7.705 20.387,7.826 19.998 L 7.900 19.761 12.005 19.760 L 16.110 19.760 16.136 19.890 C 16.150 19.961,16.237 20.173,16.329 20.360 C 16.467 20.642,16.564 20.768,16.898 21.102 C 17.234 21.438,17.356 21.531,17.640 21.670 C 18.073 21.880,18.364 21.957,18.841 21.987 C 20.317 22.079,21.634 21.056,21.938 19.581 C 22.093 18.832,21.938 18.022,21.516 17.374 C 21.173 16.847,20.490 16.323,19.930 16.158 L 19.760 16.107 19.760 12.004 L 19.761 7.900 19.998 7.826 C 20.387 7.705,20.713 7.488,21.122 7.081 C 21.436 6.767,21.532 6.641,21.669 6.360 C 21.880 5.928,21.957 5.636,21.987 5.159 C 22.040 4.312,21.719 3.479,21.115 2.891 C 20.805 2.589,20.664 2.491,20.260 2.298 C 19.407 1.889,18.474 1.911,17.600 2.360 C 16.989 2.675,16.363 3.395,16.174 4.002 L 16.100 4.239 12.000 4.239 L 7.900 4.239 7.826 4.002 C 7.708 3.623,7.487 3.287,7.100 2.896 C 6.793 2.585,6.684 2.504,6.360 2.346 C 6.151 2.244,5.872 2.132,5.740 2.098 C 5.390 2.006,4.761 1.990,4.400 2.064 M16.136 5.890 C 16.180 6.113,16.471 6.650,16.678 6.891 C 16.788 7.019,16.981 7.212,17.109 7.322 C 17.350 7.529,17.887 7.820,18.110 7.864 L 18.240 7.890 18.240 12.005 C 18.240 15.399,18.231 16.120,18.187 16.120 C 18.080 16.120,17.614 16.333,17.361 16.498 C 17.051 16.699,16.691 17.054,16.491 17.356 C 16.335 17.592,16.123 18.058,16.121 18.170 C 16.120 18.236,15.897 18.240,12.000 18.240 C 8.103 18.240,7.880 18.236,7.879 18.170 C 7.877 18.058,7.665 17.592,7.509 17.356 C 7.309 17.054,6.949 16.699,6.639 16.498 C 6.386 16.333,5.920 16.120,5.813 16.120 C 5.769 16.120,5.760 15.399,5.760 12.005 L 5.760 7.890 5.890 7.864 C 6.113 7.820,6.650 7.529,6.891 7.322 C 7.019 7.212,7.212 7.019,7.322 6.891 C 7.529 6.650,7.820 6.113,7.864 5.890 L 7.890 5.760 12.000 5.760 L 16.110 5.760 16.136 5.890 " fill="#1C274C" stroke="none" fill-rule="evenodd"></path></svg>