<svg width="24" height="24" viewBox="0 0 24 24" fill="none" xmlns="http://www.w3.org/2000/svg"><path d="M7.300 4.026 C 6.601 4.050,5.735 4.126,5.300 4.200 C 3.429 4.521,2.501 5.463,2.186 7.360 C 2.035 8.265,2.020 8.706,2.021 12.060 C 2.022 15.583,2.041 16.012,2.246 16.957 C 2.582 18.513,3.405 19.367,4.912 19.725 C 5.981 19.979,6.887 20.010,12.600 19.988 C 17.440 19.970,17.725 19.961,18.620 19.817 C 20.548 19.504,21.495 18.563,21.814 16.640 C 21.964 15.738,21.980 15.290,21.980 12.000 C 21.980 8.710,21.964 8.262,21.814 7.360 C 21.495 5.434,20.530 4.481,18.599 4.183 C 17.675 4.041,17.292 4.030,12.460 4.022 C 9.820 4.017,7.498 4.019,7.300 4.026 M7.388 12.367 C 7.628 12.526,7.733 12.721,7.733 13.007 C 7.733 13.203,7.714 13.271,7.616 13.409 C 7.400 13.717,7.321 13.740,6.500 13.740 C 5.679 13.740,5.600 13.717,5.384 13.409 C 5.098 13.003,5.328 12.400,5.815 12.276 C 5.884 12.259,6.229 12.248,6.583 12.252 C 7.207 12.260,7.231 12.263,7.388 12.367 M11.820 12.326 C 12.402 12.649,12.380 13.407,11.780 13.684 C 11.636 13.751,11.506 13.758,10.500 13.758 C 9.494 13.758,9.364 13.751,9.220 13.684 C 8.699 13.443,8.595 12.818,9.015 12.450 C 9.095 12.379,9.211 12.310,9.271 12.297 C 9.331 12.284,9.398 12.266,9.420 12.258 C 9.442 12.250,9.964 12.247,10.580 12.252 C 11.538 12.259,11.717 12.270,11.820 12.326 M18.373 12.355 C 18.615 12.506,18.733 12.718,18.733 13.003 C 18.733 13.203,18.714 13.270,18.616 13.409 C 18.552 13.501,18.436 13.613,18.359 13.658 C 18.223 13.738,18.165 13.740,16.000 13.740 C 13.835 13.740,13.777 13.738,13.641 13.658 C 13.564 13.613,13.448 13.501,13.384 13.409 C 13.098 13.003,13.329 12.396,13.815 12.277 C 13.884 12.260,14.903 12.250,16.080 12.253 L 18.220 12.260 18.373 12.355 M10.373 15.355 C 10.615 15.506,10.733 15.718,10.733 16.003 C 10.733 16.203,10.714 16.270,10.616 16.409 C 10.552 16.501,10.436 16.613,10.359 16.658 C 10.223 16.738,10.165 16.740,8.000 16.740 C 5.835 16.740,5.777 16.738,5.641 16.658 C 5.564 16.613,5.448 16.501,5.384 16.409 C 5.098 16.003,5.329 15.396,5.815 15.277 C 5.884 15.260,6.903 15.250,8.080 15.253 L 10.220 15.260 10.373 15.355 M14.388 15.367 C 14.628 15.526,14.733 15.721,14.733 16.007 C 14.733 16.203,14.714 16.271,14.616 16.409 C 14.396 16.723,14.339 16.738,13.340 16.753 C 12.365 16.768,12.241 16.748,12.013 16.549 C 11.669 16.247,11.670 15.753,12.015 15.450 C 12.095 15.379,12.211 15.310,12.271 15.297 C 12.331 15.284,12.398 15.266,12.420 15.258 C 12.442 15.250,12.857 15.247,13.343 15.251 L 14.226 15.260 14.388 15.367 M18.388 15.367 C 18.628 15.526,18.733 15.721,18.733 16.007 C 18.733 16.203,18.714 16.271,18.616 16.409 C 18.396 16.723,18.339 16.738,17.340 16.753 C 16.365 16.768,16.241 16.748,16.013 16.549 C 15.669 16.247,15.670 15.753,16.015 15.450 C 16.095 15.379,16.211 15.310,16.271 15.297 C 16.331 15.284,16.398 15.266,16.420 15.258 C 16.442 15.250,16.857 15.247,17.343 15.251 L 18.226 15.260 18.388 15.367 " fill="#1C274C" stroke="none" fill-rule="evenodd"></path></svg>