<svg width="24" height="24" viewBox="0 0 24 24" fill="none" xmlns="http://www.w3.org/2000/svg"><path d="M10.400 1.281 C 9.737 1.313,9.576 1.335,9.162 1.445 C 8.507 1.619,7.956 2.040,7.672 2.584 C 7.375 3.152,7.286 3.670,7.252 5.030 L 7.227 6.040 6.994 6.040 L 6.760 6.040 6.760 10.137 L 6.760 14.234 8.730 14.249 C 10.412 14.263,10.728 14.274,10.894 14.330 C 11.149 14.415,11.369 14.571,11.500 14.759 C 11.698 15.045,11.728 15.225,11.749 16.240 C 11.771 17.263,11.730 17.775,11.605 18.058 C 11.499 18.298,11.238 18.539,10.967 18.648 C 10.743 18.738,10.714 18.739,8.750 18.752 L 6.760 18.765 6.760 20.356 L 6.760 21.948 7.150 21.974 C 7.658 22.007,16.342 22.007,16.850 21.974 L 17.240 21.948 17.240 13.994 L 17.240 6.040 17.006 6.040 L 16.773 6.040 16.747 5.030 C 16.713 3.668,16.624 3.151,16.328 2.585 C 16.018 1.991,15.413 1.564,14.649 1.399 C 14.001 1.259,11.987 1.203,10.400 1.281 M14.291 2.853 C 15.069 3.035,15.190 3.311,15.228 4.990 L 15.251 6.000 12.000 6.000 L 8.749 6.000 8.772 4.990 C 8.797 3.891,8.844 3.556,9.019 3.258 C 9.176 2.990,9.525 2.852,10.220 2.785 C 10.308 2.777,11.199 2.774,12.200 2.780 C 13.696 2.788,14.068 2.801,14.291 2.853 M4.857 6.298 C 3.923 6.522,3.265 6.948,2.825 7.612 C 2.561 8.011,2.430 8.316,2.303 8.829 C 2.054 9.832,2.020 10.448,2.020 14.000 C 2.020 17.552,2.054 18.168,2.303 19.171 C 2.519 20.041,2.918 20.687,3.498 21.100 C 3.942 21.416,4.452 21.631,5.050 21.752 L 5.241 21.791 5.230 20.248 L 5.220 18.705 5.095 18.673 C 4.705 18.572,4.364 18.164,4.284 17.705 C 4.227 17.379,4.227 15.621,4.284 15.295 C 4.363 14.838,4.727 14.405,5.092 14.332 C 5.155 14.319,5.214 14.289,5.224 14.264 C 5.233 14.240,5.236 12.418,5.230 10.215 L 5.220 6.211 4.857 6.298 M18.760 13.999 L 18.760 21.790 18.950 21.752 C 19.548 21.631,20.058 21.416,20.502 21.100 C 21.081 20.687,21.481 20.042,21.698 19.171 C 21.920 18.275,21.960 17.661,21.987 14.760 C 22.026 10.415,21.909 9.036,21.415 8.019 C 20.964 7.091,20.209 6.540,19.010 6.265 L 18.760 6.207 18.760 13.999 M5.760 16.500 L 5.760 17.240 8.000 17.240 L 10.240 17.240 10.240 16.500 L 10.240 15.760 8.000 15.760 L 5.760 15.760 5.760 16.500 " fill="#1C274C" stroke="none" fill-rule="evenodd"></path></svg>