<svg width="24" height="24" viewBox="0 0 24 24" fill="none" xmlns="http://www.w3.org/2000/svg"><path d="M10.400 1.281 C 9.737 1.313,9.576 1.335,9.162 1.445 C 8.507 1.619,7.956 2.040,7.672 2.584 C 7.375 3.152,7.286 3.670,7.252 5.030 L 7.227 6.040 7.004 6.040 C 6.670 6.041,5.876 6.112,5.401 6.184 C 3.476 6.476,2.505 7.434,2.186 9.360 C 2.035 10.265,2.020 10.706,2.021 14.060 C 2.021 16.933,2.030 17.417,2.092 17.957 C 2.259 19.411,2.547 20.182,3.155 20.800 C 3.790 21.446,4.568 21.743,6.056 21.908 C 6.643 21.974,7.174 21.980,12.020 21.980 C 16.870 21.980,17.395 21.974,17.957 21.909 C 19.433 21.738,20.195 21.449,20.822 20.822 C 21.270 20.374,21.545 19.845,21.725 19.088 C 21.959 18.103,22.013 16.937,21.989 13.418 C 21.969 10.663,21.950 10.205,21.816 9.380 C 21.503 7.442,20.532 6.477,18.599 6.184 C 18.124 6.112,17.330 6.041,16.996 6.040 L 16.773 6.040 16.747 5.030 C 16.713 3.668,16.624 3.151,16.328 2.585 C 16.018 1.991,15.413 1.564,14.649 1.399 C 14.001 1.259,11.987 1.203,10.400 1.281 M14.291 2.853 C 15.069 3.035,15.190 3.311,15.228 4.990 L 15.251 6.000 12.000 6.000 L 8.749 6.000 8.772 4.990 C 8.797 3.891,8.844 3.556,9.019 3.258 C 9.176 2.990,9.525 2.852,10.220 2.785 C 10.308 2.777,11.199 2.774,12.200 2.780 C 13.696 2.788,14.068 2.801,14.291 2.853 M8.316 8.063 C 8.461 8.106,8.581 8.179,8.697 8.295 C 9.168 8.766,9.067 9.529,8.489 9.869 C 8.328 9.964,8.256 9.980,8.000 9.980 C 7.744 9.980,7.672 9.964,7.511 9.869 C 6.933 9.529,6.832 8.766,7.303 8.295 C 7.573 8.025,7.921 7.945,8.316 8.063 M16.316 8.063 C 16.461 8.106,16.581 8.179,16.697 8.295 C 17.168 8.766,17.067 9.529,16.489 9.869 C 16.328 9.964,16.256 9.980,16.000 9.980 C 15.744 9.980,15.672 9.964,15.511 9.869 C 14.933 9.529,14.832 8.766,15.303 8.295 C 15.573 8.025,15.921 7.945,16.316 8.063 " fill="#1C274C" stroke="none" fill-rule="evenodd"></path></svg>