<svg width="24" height="24" viewBox="0 0 24 24" fill="none" xmlns="http://www.w3.org/2000/svg"><path d="M10.400 1.281 C 9.737 1.313,9.576 1.335,9.162 1.445 C 8.507 1.619,7.956 2.040,7.672 2.584 C 7.375 3.152,7.286 3.670,7.252 5.030 L 7.227 6.040 7.004 6.040 C 6.670 6.041,5.876 6.112,5.401 6.184 C 3.476 6.476,2.500 7.441,2.187 9.360 C 2.153 9.569,2.113 9.853,2.099 9.990 L 2.072 10.240 12.000 10.240 L 21.928 10.240 21.901 9.990 C 21.887 9.853,21.847 9.569,21.813 9.360 C 21.500 7.441,20.524 6.476,18.599 6.184 C 18.124 6.112,17.330 6.041,16.996 6.040 L 16.773 6.040 16.747 5.030 C 16.713 3.668,16.624 3.151,16.328 2.585 C 16.018 1.991,15.413 1.564,14.649 1.399 C 14.001 1.259,11.987 1.203,10.400 1.281 M14.291 2.853 C 15.069 3.035,15.190 3.311,15.228 4.990 L 15.251 6.000 12.000 6.000 L 8.749 6.000 8.772 4.990 C 8.797 3.891,8.844 3.556,9.019 3.258 C 9.176 2.990,9.525 2.852,10.220 2.785 C 10.308 2.777,11.199 2.774,12.200 2.780 C 13.696 2.788,14.068 2.801,14.291 2.853 M2.000 14.000 L 2.000 16.240 12.000 16.240 L 22.000 16.240 22.000 14.000 L 22.000 11.760 12.000 11.760 L 2.000 11.760 2.000 14.000 M2.103 17.990 C 2.210 19.037,2.424 19.774,2.784 20.330 C 3.032 20.714,3.247 20.933,3.617 21.178 C 4.284 21.620,4.944 21.800,6.360 21.928 C 7.194 22.003,16.806 22.003,17.640 21.928 C 19.012 21.804,19.703 21.621,20.330 21.216 C 20.714 20.968,20.933 20.753,21.179 20.383 C 21.567 19.798,21.787 19.065,21.897 17.990 L 21.921 17.760 12.000 17.760 L 2.079 17.760 2.103 17.990 " fill="#1C274C" stroke="none" fill-rule="evenodd"></path></svg>