<svg width="24" height="24" viewBox="0 0 24 24" fill="none" xmlns="http://www.w3.org/2000/svg"><path d="M11.807 1.289 C 11.691 1.314,11.584 1.376,11.481 1.479 C 11.289 1.671,11.240 1.880,11.240 2.500 C 11.240 3.119,11.289 3.329,11.480 3.520 C 11.889 3.929,12.595 3.725,12.716 3.162 C 12.771 2.904,12.772 2.080,12.717 1.841 C 12.620 1.420,12.247 1.194,11.807 1.289 M4.620 4.257 C 4.358 4.374,4.200 4.632,4.200 4.944 C 4.200 5.197,4.309 5.381,4.650 5.705 C 4.879 5.923,4.989 5.998,5.133 6.034 C 5.694 6.175,6.175 5.692,6.033 5.130 C 5.998 4.990,5.921 4.877,5.705 4.650 C 5.550 4.487,5.356 4.319,5.273 4.277 C 5.098 4.187,4.796 4.178,4.620 4.257 M18.718 4.279 C 18.640 4.320,18.450 4.487,18.295 4.650 C 18.077 4.879,18.002 4.989,17.966 5.133 C 17.825 5.694,18.308 6.175,18.870 6.033 C 19.010 5.998,19.123 5.921,19.350 5.705 C 19.691 5.381,19.800 5.197,19.800 4.944 C 19.800 4.498,19.497 4.198,19.051 4.202 C 18.945 4.203,18.797 4.237,18.718 4.279 M11.200 6.058 C 10.483 6.161,9.933 6.332,9.320 6.640 C 7.658 7.475,6.527 8.951,6.111 10.830 C 5.986 11.395,5.986 12.605,6.111 13.170 C 6.651 15.608,8.393 17.350,10.826 17.887 C 11.397 18.013,12.603 18.013,13.174 17.887 C 15.605 17.351,17.351 15.605,17.887 13.174 C 18.013 12.603,18.013 11.397,17.887 10.826 C 17.341 8.351,15.474 6.529,13.041 6.097 C 12.552 6.010,11.660 5.991,11.200 6.058 M1.807 11.287 C 1.276 11.406,1.085 12.125,1.480 12.520 C 1.671 12.711,1.881 12.760,2.500 12.760 C 3.119 12.760,3.329 12.711,3.520 12.520 C 3.929 12.111,3.725 11.405,3.162 11.284 C 2.915 11.231,2.049 11.233,1.807 11.287 M20.807 11.287 C 20.276 11.406,20.085 12.125,20.480 12.520 C 20.671 12.711,20.881 12.760,21.500 12.760 C 22.119 12.760,22.329 12.711,22.520 12.520 C 22.929 12.111,22.725 11.405,22.162 11.284 C 21.915 11.231,21.049 11.233,20.807 11.287 M5.105 17.969 C 4.918 18.019,4.392 18.500,4.277 18.727 C 4.192 18.892,4.177 19.173,4.243 19.347 C 4.345 19.619,4.625 19.800,4.940 19.800 C 5.197 19.800,5.380 19.693,5.705 19.350 C 5.923 19.121,5.998 19.011,6.034 18.867 C 6.177 18.301,5.674 17.815,5.105 17.969 M18.495 17.958 C 18.229 18.022,17.998 18.271,17.946 18.553 C 17.897 18.816,17.990 19.030,18.295 19.350 C 18.620 19.693,18.803 19.800,19.060 19.800 C 19.499 19.800,19.800 19.498,19.800 19.056 C 19.800 18.803,19.691 18.619,19.350 18.295 C 19.122 18.078,19.011 18.002,18.869 17.966 C 18.666 17.915,18.673 17.916,18.495 17.958 M11.807 20.289 C 11.691 20.314,11.584 20.376,11.481 20.479 C 11.289 20.671,11.240 20.880,11.240 21.500 C 11.240 22.119,11.289 22.329,11.480 22.520 C 11.889 22.929,12.595 22.725,12.716 22.162 C 12.771 21.904,12.772 21.080,12.717 20.841 C 12.620 20.420,12.247 20.194,11.807 20.289 " fill="#1C274C" stroke="none" fill-rule="evenodd"></path></svg>