<svg width="24" height="24" viewBox="0 0 24 24" fill="none" xmlns="http://www.w3.org/2000/svg"><path d="M11.807 1.289 C 11.558 1.342,11.342 1.570,11.284 1.838 C 11.259 1.956,11.240 2.453,11.240 3.000 C 11.240 3.547,11.259 4.044,11.284 4.162 C 11.447 4.920,12.553 4.920,12.716 4.162 C 12.772 3.901,12.773 2.083,12.717 1.841 C 12.620 1.420,12.247 1.194,11.807 1.289 M3.887 3.566 C 3.553 3.731,3.400 4.139,3.537 4.497 C 3.593 4.645,3.794 4.847,4.801 5.767 C 5.459 6.368,6.065 6.891,6.149 6.929 C 6.552 7.113,7.043 6.874,7.161 6.438 C 7.213 6.245,7.182 6.057,7.066 5.868 C 6.949 5.676,4.741 3.661,4.537 3.560 C 4.327 3.457,4.104 3.458,3.887 3.566 M19.447 3.570 C 19.218 3.695,16.982 5.745,16.910 5.897 C 16.814 6.097,16.792 6.263,16.839 6.435 C 16.957 6.874,17.447 7.113,17.851 6.929 C 17.935 6.891,18.541 6.368,19.199 5.767 C 20.206 4.847,20.407 4.645,20.463 4.497 C 20.706 3.860,20.037 3.249,19.447 3.570 M11.340 7.046 C 10.849 7.108,10.317 7.273,9.820 7.517 C 8.374 8.226,7.390 9.510,7.075 11.100 C 7.002 11.468,7.002 12.532,7.075 12.900 C 7.482 14.953,9.047 16.518,11.100 16.925 C 11.468 16.998,12.532 16.998,12.900 16.925 C 13.854 16.735,14.719 16.295,15.408 15.648 C 16.148 14.953,16.613 14.152,16.869 13.131 C 16.966 12.744,16.977 12.628,16.977 12.000 C 16.977 11.372,16.966 11.256,16.869 10.869 C 16.677 10.102,16.373 9.473,15.926 8.912 C 14.822 7.527,13.090 6.823,11.340 7.046 M1.807 11.287 C 1.568 11.341,1.341 11.572,1.289 11.816 C 1.197 12.246,1.431 12.629,1.838 12.716 C 2.109 12.774,3.891 12.774,4.162 12.716 C 4.920 12.553,4.920 11.447,4.162 11.284 C 3.909 11.230,2.053 11.232,1.807 11.287 M19.807 11.287 C 19.568 11.341,19.341 11.572,19.289 11.816 C 19.197 12.246,19.431 12.629,19.838 12.716 C 20.109 12.774,21.891 12.774,22.162 12.716 C 22.920 12.553,22.920 11.447,22.162 11.284 C 21.909 11.230,20.053 11.232,19.807 11.287 M6.340 16.820 C 6.318 16.827,6.246 16.845,6.180 16.860 C 6.018 16.896,3.664 19.228,3.556 19.460 C 3.343 19.918,3.638 20.454,4.135 20.509 C 4.490 20.550,4.532 20.519,5.812 19.245 C 6.468 18.593,7.037 18.006,7.077 17.940 C 7.255 17.649,7.209 17.279,6.965 17.036 C 6.794 16.864,6.505 16.765,6.340 16.820 M17.300 16.860 C 16.872 17.012,16.684 17.548,16.923 17.940 C 16.963 18.006,17.532 18.593,18.188 19.245 C 19.468 20.519,19.510 20.550,19.865 20.509 C 20.362 20.454,20.657 19.918,20.444 19.460 C 20.395 19.355,19.951 18.884,19.155 18.094 C 18.143 17.090,17.913 16.881,17.780 16.844 C 17.575 16.788,17.496 16.791,17.300 16.860 M11.807 19.289 C 11.558 19.342,11.342 19.570,11.284 19.838 C 11.259 19.956,11.240 20.453,11.240 21.000 C 11.240 21.547,11.259 22.044,11.284 22.162 C 11.447 22.920,12.553 22.920,12.716 22.162 C 12.772 21.901,12.773 20.083,12.717 19.841 C 12.620 19.420,12.247 19.194,11.807 19.289 " fill="#1C274C" stroke="none" fill-rule="evenodd"></path></svg>