<svg width="24" height="24" viewBox="0 0 24 24" fill="none" xmlns="http://www.w3.org/2000/svg"><path d="M11.807 1.289 C 11.691 1.314,11.584 1.376,11.481 1.479 C 11.289 1.671,11.240 1.880,11.240 2.500 C 11.240 3.119,11.289 3.329,11.480 3.520 C 11.889 3.929,12.595 3.725,12.716 3.162 C 12.771 2.904,12.772 2.080,12.717 1.841 C 12.620 1.420,12.247 1.194,11.807 1.289 M4.620 4.257 C 4.358 4.374,4.200 4.632,4.200 4.944 C 4.200 5.197,4.309 5.381,4.650 5.705 C 4.879 5.923,4.989 5.998,5.133 6.034 C 5.694 6.175,6.175 5.692,6.033 5.130 C 5.998 4.990,5.921 4.877,5.705 4.650 C 5.550 4.487,5.356 4.319,5.273 4.277 C 5.098 4.187,4.796 4.178,4.620 4.257 M18.718 4.279 C 18.640 4.320,18.450 4.487,18.295 4.650 C 18.077 4.879,18.002 4.989,17.966 5.133 C 17.825 5.694,18.308 6.175,18.870 6.033 C 19.010 5.998,19.123 5.921,19.350 5.705 C 19.691 5.381,19.800 5.197,19.800 4.944 C 19.800 4.498,19.497 4.198,19.051 4.202 C 18.945 4.203,18.797 4.237,18.718 4.279 M10.900 5.344 C 9.452 5.602,8.260 6.220,7.240 7.240 C 6.183 8.296,5.524 9.612,5.317 11.080 C 5.255 11.523,5.255 12.444,5.318 12.900 C 5.416 13.614,5.654 14.394,5.956 14.992 L 6.081 15.240 4.063 15.240 C 2.739 15.240,1.973 15.255,1.838 15.284 C 1.080 15.447,1.080 16.553,1.838 16.716 C 2.130 16.779,21.870 16.779,22.162 16.716 C 22.920 16.553,22.920 15.447,22.162 15.284 C 22.027 15.255,21.261 15.240,19.937 15.240 L 17.919 15.240 18.039 15.002 C 18.337 14.412,18.589 13.588,18.683 12.900 C 18.745 12.447,18.744 11.525,18.682 11.080 C 18.479 9.618,17.817 8.296,16.760 7.240 C 16.199 6.679,15.706 6.322,15.020 5.981 C 14.312 5.628,13.748 5.447,12.980 5.327 L 12.760 5.292 12.760 7.235 L 12.760 9.179 13.170 8.771 C 13.708 8.236,13.932 8.146,14.300 8.316 C 14.680 8.491,14.851 8.902,14.699 9.271 C 14.615 9.474,12.521 11.580,12.300 11.683 C 12.104 11.775,11.925 11.780,11.729 11.699 C 11.526 11.615,9.420 9.521,9.317 9.300 C 9.141 8.925,9.307 8.497,9.700 8.316 C 10.068 8.146,10.292 8.236,10.830 8.771 L 11.240 9.179 11.240 7.229 C 11.240 6.157,11.236 5.282,11.230 5.284 C 11.225 5.286,11.076 5.313,10.900 5.344 M1.807 11.287 C 1.276 11.406,1.085 12.125,1.480 12.520 C 1.671 12.711,1.881 12.760,2.500 12.760 C 3.119 12.760,3.329 12.711,3.520 12.520 C 3.929 12.111,3.725 11.405,3.162 11.284 C 2.915 11.231,2.049 11.233,1.807 11.287 M20.807 11.287 C 20.276 11.406,20.085 12.125,20.480 12.520 C 20.671 12.711,20.881 12.760,21.500 12.760 C 22.119 12.760,22.329 12.711,22.520 12.520 C 22.929 12.111,22.725 11.405,22.162 11.284 C 21.915 11.231,21.049 11.233,20.807 11.287 M4.811 18.279 C 4.536 18.344,4.316 18.587,4.260 18.885 C 4.197 19.220,4.450 19.624,4.781 19.715 C 5.006 19.778,18.994 19.778,19.219 19.715 C 19.431 19.657,19.660 19.422,19.719 19.204 C 19.808 18.873,19.689 18.566,19.394 18.372 L 19.226 18.260 12.083 18.254 C 8.154 18.250,4.882 18.262,4.811 18.279 M7.811 21.278 C 7.536 21.345,7.316 21.587,7.260 21.885 C 7.197 22.220,7.450 22.624,7.781 22.715 C 8.005 22.778,15.995 22.778,16.219 22.715 C 16.431 22.657,16.660 22.422,16.719 22.204 C 16.808 21.873,16.689 21.566,16.395 21.372 L 16.226 21.260 12.083 21.254 C 9.804 21.250,7.882 21.261,7.811 21.278 " fill="#1C274C" stroke="none" fill-rule="evenodd"></path></svg>