<svg width="24" height="24" viewBox="0 0 24 24" fill="none" xmlns="http://www.w3.org/2000/svg"><path d="M4.620 2.040 C 3.820 2.213,3.205 2.819,3.044 3.592 C 2.984 3.881,2.984 7.119,3.044 7.408 C 3.201 8.158,3.842 8.799,4.592 8.956 C 4.866 9.013,6.134 9.013,6.408 8.956 C 7.158 8.799,7.799 8.158,7.956 7.408 C 7.980 7.291,8.000 6.981,8.000 6.718 L 8.000 6.240 12.000 6.240 L 16.000 6.240 16.000 6.718 C 16.000 6.981,16.020 7.291,16.044 7.408 C 16.201 8.158,16.842 8.799,17.592 8.956 C 17.866 9.013,19.134 9.013,19.408 8.956 C 20.158 8.799,20.799 8.158,20.956 7.408 C 21.016 7.119,21.016 3.881,20.956 3.592 C 20.814 2.910,20.288 2.330,19.600 2.095 C 19.410 2.030,19.258 2.020,18.480 2.022 C 17.652 2.023,17.561 2.030,17.343 2.112 C 16.681 2.360,16.183 2.927,16.044 3.592 C 16.020 3.709,16.000 4.019,16.000 4.282 L 16.000 4.760 12.000 4.760 L 8.000 4.760 8.000 4.282 C 8.000 4.019,7.980 3.709,7.956 3.592 C 7.817 2.925,7.312 2.354,6.647 2.110 C 6.450 2.038,6.313 2.026,5.600 2.016 C 5.149 2.010,4.708 2.020,4.620 2.040 M11.720 8.805 C 11.665 8.827,11.569 8.893,11.507 8.952 C 11.319 9.130,9.795 11.703,9.771 11.881 C 9.739 12.115,9.791 12.307,9.928 12.463 C 10.161 12.729,10.201 12.738,11.229 12.760 L 12.158 12.780 11.719 13.516 C 11.289 14.238,11.256 14.319,11.275 14.597 C 11.301 14.953,11.624 15.240,12.000 15.240 C 12.201 15.240,12.353 15.181,12.493 15.047 C 12.680 14.870,14.205 12.298,14.229 12.119 C 14.261 11.885,14.209 11.693,14.072 11.537 C 13.839 11.272,13.799 11.263,12.771 11.240 L 11.842 11.220 12.281 10.484 C 12.711 9.762,12.744 9.681,12.725 9.403 C 12.707 9.157,12.506 8.893,12.267 8.803 C 12.129 8.750,11.854 8.751,11.720 8.805 M4.640 15.039 C 3.914 15.177,3.340 15.683,3.095 16.400 C 3.026 16.603,3.020 16.766,3.020 18.500 C 3.020 20.232,3.026 20.397,3.095 20.600 C 3.307 21.223,3.776 21.692,4.400 21.905 C 4.589 21.969,4.744 21.980,5.500 21.980 C 6.256 21.980,6.411 21.969,6.600 21.905 C 7.212 21.696,7.672 21.246,7.889 20.644 C 7.951 20.472,7.974 20.283,7.990 19.830 L 8.010 19.240 12.000 19.240 L 15.990 19.240 16.010 19.830 C 16.026 20.283,16.049 20.472,16.111 20.644 C 16.328 21.246,16.788 21.696,17.400 21.905 C 17.589 21.969,17.744 21.980,18.500 21.980 C 19.256 21.980,19.411 21.969,19.600 21.905 C 20.224 21.692,20.693 21.223,20.905 20.600 C 20.974 20.397,20.980 20.232,20.980 18.500 C 20.980 16.768,20.974 16.603,20.905 16.400 C 20.693 15.777,20.224 15.308,19.600 15.095 C 19.411 15.031,19.256 15.020,18.500 15.020 C 17.744 15.020,17.589 15.031,17.400 15.095 C 16.788 15.304,16.328 15.754,16.111 16.356 C 16.049 16.528,16.026 16.717,16.010 17.170 L 15.990 17.760 12.000 17.760 L 8.010 17.760 7.990 17.170 C 7.974 16.717,7.951 16.528,7.889 16.356 C 7.677 15.767,7.235 15.325,6.647 15.111 C 6.452 15.040,6.308 15.027,5.620 15.017 C 5.180 15.010,4.739 15.020,4.640 15.039 " fill="#1C274C" stroke="none" fill-rule="evenodd"></path></svg>