<svg width="24" height="24" viewBox="0 0 24 24" fill="none" xmlns="http://www.w3.org/2000/svg"><path d="M4.620 2.040 C 3.820 2.213,3.205 2.819,3.044 3.592 C 2.984 3.881,2.984 7.119,3.044 7.408 C 3.201 8.158,3.842 8.799,4.592 8.956 C 4.866 9.013,6.134 9.013,6.408 8.956 C 7.158 8.799,7.799 8.158,7.956 7.408 C 7.980 7.291,8.000 6.981,8.000 6.718 L 8.000 6.240 9.620 6.240 L 11.240 6.240 11.240 7.098 C 11.240 7.574,11.260 8.048,11.284 8.162 C 11.447 8.920,12.553 8.920,12.716 8.162 C 12.740 8.048,12.760 7.574,12.760 7.098 L 12.760 6.240 14.375 6.240 L 15.990 6.240 16.010 6.830 C 16.026 7.283,16.049 7.472,16.111 7.644 C 16.328 8.246,16.788 8.696,17.400 8.905 C 17.589 8.969,17.744 8.980,18.500 8.980 C 19.256 8.980,19.411 8.969,19.600 8.905 C 20.224 8.692,20.693 8.223,20.905 7.600 C 20.974 7.397,20.980 7.232,20.980 5.500 C 20.980 3.768,20.974 3.603,20.905 3.400 C 20.693 2.777,20.224 2.308,19.600 2.095 C 19.411 2.031,19.256 2.020,18.500 2.020 C 17.744 2.020,17.589 2.031,17.400 2.095 C 16.788 2.304,16.328 2.754,16.111 3.356 C 16.049 3.528,16.026 3.717,16.010 4.170 L 15.990 4.760 11.995 4.760 L 8.000 4.760 8.000 4.282 C 8.000 4.019,7.980 3.709,7.956 3.592 C 7.817 2.925,7.312 2.354,6.647 2.110 C 6.450 2.038,6.313 2.026,5.600 2.016 C 5.149 2.010,4.708 2.020,4.620 2.040 M9.807 9.288 C 9.429 9.371,9.188 9.796,9.288 10.202 C 9.327 10.358,9.431 10.480,10.134 11.190 L 10.936 12.000 10.133 12.810 C 9.374 13.575,9.328 13.631,9.287 13.822 C 9.167 14.388,9.635 14.851,10.190 14.714 C 10.362 14.672,10.459 14.590,11.190 13.866 L 12.000 13.064 12.810 13.866 C 13.541 14.590,13.638 14.672,13.810 14.714 C 14.369 14.852,14.832 14.387,14.710 13.810 C 14.673 13.634,14.609 13.559,13.867 12.810 L 13.064 12.000 13.867 11.190 C 14.609 10.441,14.673 10.366,14.710 10.190 C 14.832 9.611,14.389 9.168,13.810 9.290 C 13.634 9.327,13.559 9.391,12.810 10.133 L 12.000 10.936 11.190 10.133 C 10.538 9.487,10.353 9.324,10.240 9.302 C 10.163 9.287,10.073 9.268,10.040 9.262 C 10.007 9.255,9.902 9.267,9.807 9.288 M4.640 15.039 C 3.914 15.177,3.340 15.683,3.095 16.400 C 3.026 16.603,3.020 16.766,3.020 18.500 C 3.020 20.232,3.026 20.397,3.095 20.600 C 3.307 21.223,3.776 21.692,4.400 21.905 C 4.589 21.969,4.744 21.980,5.500 21.980 C 6.256 21.980,6.411 21.969,6.600 21.905 C 7.212 21.696,7.672 21.246,7.889 20.644 C 7.951 20.472,7.974 20.283,7.990 19.830 L 8.010 19.240 12.000 19.240 L 15.990 19.240 16.010 19.830 C 16.026 20.283,16.049 20.472,16.111 20.644 C 16.328 21.246,16.788 21.696,17.400 21.905 C 17.589 21.969,17.744 21.980,18.500 21.980 C 19.256 21.980,19.411 21.969,19.600 21.905 C 20.224 21.692,20.693 21.223,20.905 20.600 C 20.974 20.397,20.980 20.232,20.980 18.500 C 20.980 16.768,20.974 16.603,20.905 16.400 C 20.693 15.777,20.224 15.308,19.600 15.095 C 19.411 15.031,19.256 15.020,18.500 15.020 C 17.744 15.020,17.589 15.031,17.400 15.095 C 16.788 15.304,16.328 15.754,16.111 16.356 C 16.049 16.528,16.026 16.717,16.010 17.170 L 15.990 17.760 14.375 17.760 L 12.760 17.760 12.760 16.902 C 12.760 16.426,12.740 15.952,12.716 15.838 C 12.553 15.080,11.447 15.080,11.284 15.838 C 11.260 15.952,11.240 16.426,11.240 16.902 L 11.240 17.760 9.625 17.760 L 8.010 17.760 7.990 17.170 C 7.974 16.717,7.951 16.528,7.889 16.356 C 7.677 15.767,7.235 15.325,6.647 15.111 C 6.452 15.040,6.308 15.027,5.620 15.017 C 5.180 15.010,4.739 15.020,4.640 15.039 " fill="#1C274C" stroke="none" fill-rule="evenodd"></path></svg>