<svg width="24" height="24" viewBox="0 0 24 24" fill="none" xmlns="http://www.w3.org/2000/svg"><path d="M4.620 2.040 C 3.820 2.213,3.205 2.819,3.044 3.592 C 2.984 3.881,2.984 7.119,3.044 7.408 C 3.201 8.158,3.842 8.799,4.592 8.956 C 4.866 9.013,6.134 9.013,6.408 8.956 C 7.158 8.799,7.799 8.158,7.956 7.408 C 7.980 7.291,8.000 6.981,8.000 6.718 L 8.000 6.240 9.620 6.240 L 11.240 6.240 11.240 12.000 L 11.240 17.760 9.620 17.760 L 8.000 17.760 8.000 17.282 C 8.000 17.019,7.980 16.709,7.956 16.592 C 7.814 15.910,7.288 15.330,6.600 15.095 C 6.410 15.030,6.258 15.020,5.480 15.022 C 4.652 15.023,4.561 15.030,4.343 15.112 C 3.681 15.360,3.183 15.927,3.044 16.592 C 2.984 16.881,2.984 20.119,3.044 20.408 C 3.201 21.158,3.842 21.799,4.592 21.956 C 4.866 22.013,6.134 22.013,6.408 21.956 C 7.158 21.799,7.799 21.158,7.956 20.408 C 7.980 20.291,8.000 19.981,8.000 19.718 L 8.000 19.240 12.000 19.240 L 16.000 19.240 16.000 19.718 C 16.000 19.981,16.020 20.291,16.044 20.408 C 16.201 21.158,16.842 21.799,17.592 21.956 C 17.866 22.013,19.134 22.013,19.408 21.956 C 20.158 21.799,20.799 21.158,20.956 20.408 C 20.984 20.273,21.000 19.584,21.000 18.500 C 21.000 17.416,20.984 16.727,20.956 16.592 C 20.817 15.927,20.320 15.360,19.657 15.112 C 19.437 15.029,19.353 15.023,18.500 15.023 C 17.647 15.023,17.563 15.029,17.343 15.112 C 16.680 15.360,16.183 15.927,16.044 16.592 C 16.020 16.709,16.000 17.019,16.000 17.282 L 16.000 17.760 14.380 17.760 L 12.760 17.760 12.760 12.000 L 12.760 6.240 14.380 6.240 L 16.000 6.240 16.000 6.718 C 16.000 6.981,16.020 7.291,16.044 7.408 C 16.201 8.158,16.842 8.799,17.592 8.956 C 17.866 9.013,19.134 9.013,19.408 8.956 C 20.158 8.799,20.799 8.158,20.956 7.408 C 21.016 7.119,21.016 3.881,20.956 3.592 C 20.814 2.910,20.288 2.330,19.600 2.095 C 19.410 2.030,19.258 2.020,18.480 2.022 C 17.652 2.023,17.561 2.030,17.343 2.112 C 16.681 2.360,16.183 2.927,16.044 3.592 C 16.020 3.709,16.000 4.019,16.000 4.282 L 16.000 4.760 12.000 4.760 L 8.000 4.760 8.000 4.282 C 8.000 4.019,7.980 3.709,7.956 3.592 C 7.817 2.925,7.312 2.354,6.647 2.110 C 6.450 2.038,6.313 2.026,5.600 2.016 C 5.149 2.010,4.708 2.020,4.620 2.040 " fill="#1C274C" stroke="none" fill-rule="evenodd"></path></svg>