<svg width="24" height="24" viewBox="0 0 24 24" fill="none" xmlns="http://www.w3.org/2000/svg"><path d="M16.496 3.059 C 15.563 3.262,14.814 3.982,14.581 4.898 C 14.547 5.030,14.520 5.300,14.520 5.500 C 14.520 6.145,14.735 6.706,15.158 7.169 C 15.465 7.503,15.770 7.705,16.183 7.848 C 17.568 8.325,19.059 7.521,19.419 6.102 C 19.497 5.796,19.497 5.205,19.420 4.898 C 19.095 3.614,17.771 2.782,16.496 3.059 M7.712 3.687 C 7.004 3.778,6.472 4.455,6.531 5.189 C 6.562 5.581,6.721 5.847,7.380 6.615 C 7.761 7.059,7.973 7.340,7.999 7.435 C 8.103 7.807,7.995 8.367,7.703 8.984 C 7.545 9.318,7.396 9.516,6.357 10.770 C 5.714 11.545,5.068 12.306,4.920 12.460 C 4.773 12.614,4.602 12.821,4.540 12.920 C 4.328 13.259,3.986 13.700,3.723 13.974 C 3.261 14.457,2.729 14.778,2.059 14.980 C 1.607 15.117,1.481 15.194,1.363 15.404 C 1.187 15.716,1.253 16.109,1.518 16.332 C 1.795 16.566,2.030 16.567,2.713 16.338 C 3.800 15.975,4.729 15.260,5.445 14.235 C 5.941 13.526,5.911 13.560,6.038 13.560 C 6.138 13.560,6.209 13.622,6.505 13.970 C 8.120 15.866,9.829 16.727,11.980 16.729 C 14.265 16.732,16.058 15.913,17.452 14.230 C 17.798 13.812,17.898 13.737,18.093 13.750 C 18.201 13.758,18.250 13.809,18.545 14.225 C 19.093 14.999,19.788 15.630,20.513 16.012 C 20.891 16.211,21.601 16.465,21.891 16.505 C 22.345 16.567,22.731 16.234,22.731 15.780 C 22.731 15.368,22.539 15.167,21.980 14.994 C 20.995 14.690,20.357 14.203,19.668 13.231 C 19.519 13.020,19.320 12.777,19.227 12.691 C 18.852 12.345,18.284 12.184,17.766 12.276 C 17.454 12.332,17.065 12.502,16.839 12.681 C 16.756 12.746,16.679 12.800,16.666 12.800 C 16.654 12.800,14.905 10.829,12.780 8.421 C 10.655 6.012,8.858 3.996,8.786 3.942 C 8.503 3.726,8.118 3.635,7.712 3.687 M5.540 17.134 C 5.054 17.295,4.836 17.484,4.397 18.125 C 4.021 18.673,3.628 19.112,3.267 19.385 C 2.967 19.613,2.402 19.887,2.011 19.995 C 1.536 20.126,1.365 20.268,1.276 20.608 C 1.159 21.049,1.536 21.516,2.009 21.519 C 2.209 21.520,3.027 21.248,3.421 21.049 C 4.127 20.692,4.788 20.117,5.339 19.380 C 5.520 19.138,5.716 18.865,5.773 18.773 C 5.972 18.455,6.102 18.487,6.490 18.953 C 8.184 20.983,10.225 21.915,12.570 21.730 C 14.509 21.577,16.074 20.815,17.270 19.440 C 17.906 18.709,17.849 18.760,18.029 18.760 C 18.193 18.760,18.194 18.761,18.591 19.290 C 19.214 20.119,19.847 20.678,20.579 21.049 C 20.973 21.248,21.791 21.520,21.991 21.519 C 22.464 21.516,22.841 21.049,22.724 20.608 C 22.635 20.268,22.465 20.126,21.989 19.994 C 21.610 19.889,21.094 19.645,20.786 19.426 C 20.456 19.190,20.035 18.740,19.692 18.257 C 19.537 18.039,19.326 17.782,19.222 17.686 C 18.713 17.217,17.934 17.119,17.253 17.437 C 16.893 17.606,16.726 17.749,16.362 18.197 C 15.645 19.083,14.814 19.671,13.851 19.974 C 13.177 20.186,12.917 20.220,12.020 20.218 C 11.207 20.215,11.165 20.211,10.701 20.088 C 9.588 19.793,8.669 19.175,7.738 18.096 C 7.202 17.475,7.102 17.386,6.763 17.227 C 6.541 17.122,6.453 17.105,6.103 17.093 C 5.841 17.085,5.644 17.099,5.540 17.134 " fill="#1C274C" stroke="none" fill-rule="evenodd"></path></svg>