<svg width="24" height="24" viewBox="0 0 24 24" fill="none" xmlns="http://www.w3.org/2000/svg"><path d="M16.898 3.099 C 16.785 3.156,16.658 3.261,16.602 3.343 C 16.475 3.531,16.443 3.890,16.536 4.085 C 16.571 4.160,16.834 4.455,17.120 4.740 L 17.640 5.259 16.792 6.108 L 15.943 6.958 15.082 6.106 C 14.608 5.638,14.120 5.180,13.999 5.089 C 13.522 4.733,12.988 4.592,12.436 4.678 C 11.900 4.761,11.609 4.947,10.780 5.739 L 10.300 6.197 14.050 9.948 L 17.799 13.699 18.308 13.164 C 19.068 12.366,19.200 12.169,19.302 11.686 C 19.379 11.323,19.374 11.108,19.280 10.736 C 19.161 10.270,18.949 9.991,17.932 8.958 L 17.043 8.056 17.892 7.208 L 18.741 6.360 19.260 6.880 C 19.545 7.166,19.840 7.429,19.915 7.464 C 20.107 7.556,20.470 7.525,20.650 7.401 C 20.840 7.271,20.955 7.089,20.984 6.873 C 21.035 6.504,21.040 6.509,19.305 4.766 C 18.236 3.690,17.647 3.126,17.540 3.077 C 17.322 2.975,17.133 2.981,16.898 3.099 M7.476 9.030 C 5.813 10.705,5.502 11.054,5.168 11.620 C 4.207 13.252,4.258 15.474,5.296 17.078 C 5.397 17.234,5.480 17.376,5.480 17.392 C 5.480 17.407,4.984 17.915,4.377 18.520 C 3.770 19.125,3.221 19.696,3.157 19.788 C 2.662 20.495,3.505 21.338,4.212 20.843 C 4.304 20.779,4.882 20.222,5.496 19.607 L 6.611 18.488 6.796 18.618 C 7.291 18.969,7.962 19.255,8.640 19.406 C 9.196 19.530,10.271 19.540,10.800 19.425 C 11.130 19.354,11.615 19.199,11.940 19.060 C 12.076 19.001,12.623 18.700,12.678 18.653 C 12.688 18.644,12.306 18.246,11.830 17.769 C 10.948 16.885,10.839 16.742,10.841 16.471 C 10.843 16.200,11.080 15.858,11.333 15.763 C 11.477 15.708,11.763 15.708,11.907 15.763 C 11.969 15.786,12.426 16.209,12.921 16.703 C 13.417 17.196,13.840 17.600,13.862 17.600 C 13.884 17.600,14.027 17.474,14.180 17.320 L 14.458 17.040 12.893 15.470 C 11.568 14.142,11.320 13.875,11.284 13.740 C 11.230 13.542,11.230 13.498,11.282 13.311 C 11.400 12.886,11.923 12.639,12.331 12.816 C 12.403 12.847,13.132 13.546,13.980 14.396 C 14.816 15.234,15.518 15.920,15.540 15.920 C 15.563 15.920,15.833 15.668,16.140 15.360 L 16.699 14.800 12.960 11.060 C 10.903 9.003,9.210 7.320,9.197 7.320 C 9.184 7.320,8.410 8.090,7.476 9.030 " fill="#1C274C" stroke="none" fill-rule="evenodd"></path></svg>