<svg width="24" height="24" viewBox="0 0 24 24" fill="none" xmlns="http://www.w3.org/2000/svg"><path d="M7.082 2.041 C 6.823 2.096,6.397 2.309,5.835 2.665 C 5.059 3.156,4.598 3.525,3.919 4.197 C 3.387 4.725,3.270 4.863,3.155 5.099 C 3.036 5.345,3.020 5.416,3.020 5.700 C 3.020 6.310,3.267 6.642,4.643 7.883 C 5.417 8.582,5.643 8.860,5.717 9.201 C 5.746 9.341,5.760 10.901,5.761 14.192 C 5.761 16.825,5.779 19.196,5.799 19.460 C 5.845 20.047,5.949 20.400,6.173 20.728 C 6.390 21.044,6.730 21.282,7.161 21.418 C 7.713 21.592,8.967 21.806,10.160 21.928 C 10.822 21.996,13.178 21.996,13.840 21.928 C 15.030 21.806,16.287 21.592,16.835 21.419 C 17.554 21.192,17.964 20.740,18.149 19.969 C 18.207 19.731,18.217 19.096,18.237 14.440 C 18.258 9.587,18.265 9.168,18.329 9.029 C 18.462 8.734,18.664 8.509,19.366 7.875 C 20.316 7.019,20.682 6.626,20.848 6.291 C 20.964 6.053,20.980 5.983,20.980 5.700 C 20.980 5.416,20.964 5.345,20.845 5.099 C 20.730 4.863,20.613 4.725,20.081 4.197 C 19.402 3.525,18.941 3.156,18.165 2.665 C 17.061 1.965,16.659 1.880,15.696 2.142 C 15.042 2.319,14.870 2.439,14.457 3.001 C 14.168 3.395,13.903 3.655,13.583 3.860 C 12.628 4.471,11.372 4.471,10.417 3.860 C 10.097 3.655,9.832 3.395,9.543 3.001 C 9.130 2.438,8.948 2.315,8.260 2.131 C 7.858 2.023,7.351 1.985,7.082 2.041 " fill="#1C274C" stroke="none" fill-rule="evenodd"></path></svg>