<svg width="24" height="24" viewBox="0 0 24 24" fill="none" xmlns="http://www.w3.org/2000/svg"><path d="M7.300 4.026 C 6.601 4.050,5.735 4.126,5.300 4.200 C 3.429 4.521,2.501 5.463,2.186 7.360 C 2.035 8.265,2.020 8.706,2.021 12.060 C 2.022 15.583,2.041 16.012,2.246 16.957 C 2.582 18.513,3.405 19.367,4.912 19.725 C 5.981 19.979,6.887 20.010,12.600 19.988 C 17.440 19.970,17.725 19.961,18.620 19.817 C 20.548 19.504,21.495 18.563,21.814 16.640 C 21.964 15.738,21.980 15.290,21.980 12.000 C 21.980 8.710,21.964 8.262,21.814 7.360 C 21.495 5.434,20.530 4.481,18.599 4.183 C 17.675 4.041,17.292 4.030,12.460 4.022 C 9.820 4.017,7.498 4.019,7.300 4.026 M15.388 16.367 C 15.628 16.526,15.733 16.721,15.733 17.007 C 15.733 17.203,15.714 17.271,15.616 17.409 C 15.552 17.501,15.436 17.613,15.359 17.658 C 15.222 17.739,15.173 17.740,12.000 17.740 C 8.827 17.740,8.778 17.739,8.641 17.658 C 8.564 17.613,8.448 17.501,8.384 17.409 C 8.098 17.003,8.330 16.395,8.815 16.278 C 8.884 16.261,10.354 16.250,12.083 16.254 L 15.226 16.260 15.388 16.367 " fill="#1C274C" stroke="none" fill-rule="evenodd"></path></svg>