<svg width="24" height="24" viewBox="0 0 24 24" fill="none" xmlns="http://www.w3.org/2000/svg"><path d="M11.245 2.042 C 11.083 2.062,10.750 2.116,10.505 2.162 C 9.777 2.298,6.103 3.154,5.603 3.305 C 4.337 3.684,3.797 4.174,3.403 5.297 C 3.248 5.737,3.063 6.471,2.625 8.380 C 2.072 10.791,1.972 11.397,2.012 12.098 C 2.069 13.108,2.422 13.735,3.691 15.082 C 4.494 15.934,8.077 19.494,8.740 20.098 C 10.326 21.543,11.290 22.041,12.400 21.988 C 13.419 21.939,14.279 21.462,15.756 20.125 C 16.358 19.580,19.580 16.358,20.125 15.756 C 21.462 14.279,21.939 13.419,21.988 12.400 C 22.041 11.279,21.536 10.309,20.058 8.700 C 19.384 7.965,15.709 4.273,14.957 3.574 C 14.611 3.254,14.187 2.885,14.014 2.755 C 13.633 2.468,13.072 2.184,12.720 2.100 C 12.399 2.022,11.640 1.992,11.245 2.042 M9.156 6.742 C 9.936 6.925,10.548 7.577,10.681 8.366 C 10.859 9.419,10.143 10.458,9.088 10.676 C 7.683 10.967,6.410 9.652,6.740 8.250 C 6.997 7.158,8.074 6.487,9.156 6.742 M18.925 10.902 C 19.202 11.079,19.320 11.422,19.227 11.780 C 19.188 11.929,12.100 19.044,11.872 19.163 C 11.693 19.256,11.450 19.262,11.250 19.178 C 11.052 19.096,10.963 19.010,10.875 18.820 C 10.781 18.615,10.782 18.383,10.877 18.180 C 10.928 18.070,12.073 16.901,14.546 14.433 C 17.957 11.029,18.149 10.844,18.320 10.810 C 18.560 10.761,18.749 10.789,18.925 10.902 " fill="#1C274C" stroke="none" fill-rule="evenodd"></path></svg>