<svg width="24" height="24" viewBox="0 0 24 24" fill="none" xmlns="http://www.w3.org/2000/svg"><path d="M11.245 2.042 C 11.083 2.062,10.750 2.116,10.505 2.162 C 9.777 2.298,6.103 3.154,5.603 3.305 C 4.337 3.684,3.797 4.174,3.403 5.297 C 3.248 5.737,3.063 6.471,2.625 8.380 C 2.072 10.791,1.972 11.397,2.012 12.098 C 2.069 13.108,2.422 13.735,3.691 15.082 C 4.494 15.934,8.077 19.494,8.740 20.098 C 10.326 21.543,11.290 22.041,12.400 21.988 C 13.419 21.939,14.279 21.462,15.756 20.125 C 16.358 19.580,19.580 16.358,20.125 15.756 C 21.462 14.279,21.939 13.419,21.988 12.400 C 22.041 11.279,21.536 10.309,20.058 8.700 C 19.384 7.965,15.709 4.273,14.957 3.574 C 14.611 3.254,14.187 2.885,14.014 2.755 C 13.633 2.468,13.072 2.184,12.720 2.100 C 12.399 2.022,11.640 1.992,11.245 2.042 M9.051 6.939 C 9.421 7.017,9.691 7.171,10.003 7.479 C 11.265 8.729,10.369 10.880,8.586 10.880 C 7.412 10.880,6.456 9.763,6.635 8.600 C 6.750 7.855,7.246 7.249,7.940 7.007 C 8.338 6.868,8.631 6.850,9.051 6.939 M13.356 10.698 C 13.787 10.922,13.872 11.528,13.523 11.877 C 13.378 12.022,13.144 12.120,12.944 12.120 C 12.786 12.120,12.558 12.227,12.406 12.372 C 11.987 12.774,12.030 13.360,12.479 13.360 C 12.707 13.360,12.865 13.284,13.141 13.042 C 13.566 12.670,13.997 12.467,14.493 12.406 C 15.132 12.328,15.666 12.501,16.091 12.925 C 16.639 13.472,16.781 14.301,16.462 15.090 C 16.373 15.311,16.369 15.342,16.422 15.444 C 16.563 15.717,16.449 16.138,16.176 16.345 C 15.997 16.482,15.635 16.523,15.445 16.429 C 15.332 16.372,15.307 16.375,15.084 16.464 C 14.118 16.855,13.269 16.572,13.269 15.860 C 13.269 15.633,13.339 15.471,13.506 15.313 C 13.667 15.161,13.802 15.120,14.144 15.120 C 14.499 15.120,14.673 15.046,14.895 14.801 C 15.073 14.603,15.120 14.491,15.120 14.262 C 15.120 14.034,15.026 13.921,14.814 13.893 C 14.574 13.861,14.406 13.933,14.096 14.201 C 13.755 14.497,13.379 14.698,12.976 14.801 C 12.609 14.895,12.387 14.899,12.049 14.820 C 11.690 14.735,11.417 14.583,11.159 14.325 C 10.607 13.772,10.460 12.939,10.779 12.156 C 10.870 11.931,10.873 11.903,10.819 11.798 C 10.696 11.560,10.779 11.139,10.987 10.952 C 11.187 10.770,11.530 10.713,11.782 10.818 C 11.910 10.872,11.937 10.870,12.111 10.794 C 12.523 10.614,13.108 10.569,13.356 10.698 " fill="#1C274C" stroke="none" fill-rule="evenodd"></path></svg>