<svg width="24" height="24" viewBox="0 0 24 24" fill="none" xmlns="http://www.w3.org/2000/svg"><path d="M7.109 4.041 C 5.254 4.122,4.319 4.347,3.540 4.900 C 2.565 5.592,2.160 6.662,2.041 8.860 C 1.988 9.844,1.988 14.156,2.041 15.140 C 2.126 16.720,2.359 17.696,2.806 18.349 C 3.464 19.311,4.436 19.745,6.340 19.927 C 7.135 20.002,15.034 20.004,15.626 19.928 C 17.032 19.749,17.750 19.280,18.734 17.900 C 19.075 17.421,20.912 14.571,21.299 13.920 C 22.226 12.361,22.229 11.655,21.319 10.115 C 20.919 9.438,19.143 6.681,18.759 6.140 C 18.096 5.205,17.642 4.766,17.022 4.462 C 16.615 4.262,16.337 4.183,15.723 4.091 C 15.366 4.038,14.720 4.027,11.560 4.019 C 9.503 4.014,7.500 4.023,7.109 4.041 M7.429 7.185 C 7.604 7.315,7.713 7.506,7.739 7.732 C 7.753 7.846,7.759 9.848,7.752 12.180 C 7.741 16.036,7.734 16.431,7.674 16.540 C 7.568 16.732,7.418 16.847,7.202 16.903 C 6.844 16.996,6.499 16.853,6.326 16.540 C 6.266 16.431,6.259 16.031,6.249 12.087 C 6.242 9.159,6.252 7.705,6.280 7.599 C 6.331 7.409,6.494 7.208,6.658 7.134 C 6.841 7.051,7.288 7.081,7.429 7.185 " fill="#1C274C" stroke="none" fill-rule="evenodd"></path></svg>