<svg width="24" height="24" viewBox="0 0 24 24" fill="none" xmlns="http://www.w3.org/2000/svg"><path d="M9.805 1.289 C 9.336 1.390,8.840 2.269,8.840 3.000 C 8.840 3.302,8.971 3.799,9.117 4.054 C 9.182 4.167,9.317 4.355,9.417 4.472 C 9.728 4.836,9.741 5.126,9.463 5.483 C 8.989 6.091,9.447 6.868,10.187 6.711 C 10.666 6.608,11.160 5.740,11.160 5.000 C 11.160 4.698,11.029 4.201,10.883 3.946 C 10.818 3.833,10.683 3.645,10.583 3.528 C 10.272 3.164,10.259 2.874,10.537 2.517 C 11.015 1.904,10.552 1.129,9.805 1.289 M5.179 2.835 C 4.994 2.919,4.683 3.249,4.515 3.539 C 4.141 4.187,4.134 5.113,4.499 5.700 C 4.864 6.287,4.878 6.497,4.574 6.850 C 4.328 7.136,4.269 7.263,4.269 7.500 C 4.269 7.727,4.339 7.889,4.506 8.047 C 4.711 8.241,5.027 8.297,5.293 8.185 C 5.469 8.112,5.786 7.778,5.972 7.471 C 6.195 7.102,6.260 6.852,6.260 6.360 C 6.260 5.863,6.180 5.589,5.899 5.122 C 5.636 4.684,5.650 4.441,5.958 4.106 C 6.241 3.800,6.309 3.494,6.165 3.180 C 6.077 2.990,5.988 2.904,5.790 2.822 C 5.595 2.740,5.377 2.745,5.179 2.835 M14.725 2.803 C 14.500 2.893,14.142 3.287,13.957 3.650 C 13.782 3.990,13.708 4.356,13.731 4.760 C 13.754 5.165,13.850 5.454,14.098 5.872 C 14.364 6.318,14.350 6.559,14.042 6.894 C 13.759 7.200,13.691 7.506,13.835 7.820 C 13.923 8.010,14.012 8.096,14.210 8.178 C 14.544 8.318,14.870 8.216,15.175 7.877 C 15.587 7.419,15.766 6.959,15.766 6.360 C 15.766 5.941,15.677 5.583,15.501 5.300 C 15.136 4.713,15.122 4.503,15.426 4.150 C 15.672 3.864,15.731 3.737,15.731 3.500 C 15.731 3.073,15.411 2.756,14.987 2.763 C 14.895 2.764,14.777 2.782,14.725 2.803 M3.842 10.043 C 3.580 10.095,3.126 10.326,2.914 10.514 C 2.548 10.840,2.299 11.339,2.258 11.831 C 2.227 12.200,2.715 16.300,2.854 16.843 C 3.418 19.047,5.268 20.675,7.528 20.959 C 7.963 21.013,12.037 21.013,12.472 20.959 C 14.239 20.737,15.807 19.666,16.662 18.098 L 16.846 17.760 18.020 17.760 C 19.353 17.760,19.660 17.730,20.210 17.543 C 20.776 17.351,21.187 17.091,21.639 16.639 C 22.091 16.187,22.350 15.778,22.545 15.209 C 23.006 13.862,22.677 12.415,21.680 11.399 C 21.493 11.208,21.258 10.997,21.158 10.930 C 20.822 10.704,20.320 10.476,19.928 10.371 C 19.553 10.271,19.492 10.267,18.120 10.251 L 16.700 10.234 16.440 10.127 L 16.180 10.020 10.100 10.014 C 6.728 10.011,3.941 10.024,3.842 10.043 M19.765 11.889 C 20.422 12.146,20.853 12.576,21.109 13.229 C 21.204 13.471,21.216 13.553,21.216 14.000 C 21.216 14.447,21.204 14.529,21.109 14.771 C 20.894 15.319,20.511 15.753,20.027 15.995 C 19.588 16.215,19.408 16.240,18.292 16.240 C 17.735 16.240,17.280 16.226,17.280 16.210 C 17.280 16.193,17.388 15.262,17.520 14.140 C 17.651 13.018,17.759 12.022,17.760 11.926 L 17.760 11.752 18.630 11.769 C 19.452 11.784,19.515 11.791,19.765 11.889 " fill="#1C274C" stroke="none" fill-rule="evenodd"></path></svg>