<svg width="24" height="24" viewBox="0 0 24 24" fill="none" xmlns="http://www.w3.org/2000/svg"><path d="M19.039 2.058 C 18.798 2.146,18.536 2.289,16.001 3.710 C 13.388 5.176,13.203 5.285,13.030 5.460 C 12.795 5.698,12.841 5.800,14.235 8.131 C 15.177 9.705,15.418 10.041,15.603 10.039 C 15.791 10.037,16.247 9.799,18.780 8.381 C 21.487 6.865,21.614 6.791,21.850 6.566 C 22.139 6.292,22.190 6.404,20.438 3.460 C 19.762 2.324,19.507 1.998,19.298 2.003 C 19.233 2.004,19.116 2.029,19.039 2.058 M10.540 7.383 C 7.991 8.818,7.798 8.931,7.628 9.082 C 7.327 9.349,7.353 9.417,8.475 11.291 C 8.854 11.923,9.234 12.515,9.321 12.605 C 9.471 12.764,9.486 12.770,9.669 12.749 C 9.792 12.735,10.014 12.647,10.294 12.501 C 10.533 12.377,10.733 12.281,10.737 12.288 C 10.742 12.294,9.909 14.253,8.887 16.640 C 7.153 20.688,7.028 20.996,7.024 21.220 C 7.021 21.407,7.041 21.493,7.115 21.613 C 7.377 22.035,7.944 22.115,8.313 21.781 C 8.447 21.660,8.642 21.226,10.221 17.523 C 11.188 15.255,11.988 13.400,12.000 13.400 C 12.012 13.400,12.813 15.256,13.780 17.524 C 15.356 21.220,15.554 21.661,15.687 21.782 C 16.056 22.115,16.623 22.034,16.885 21.613 C 16.959 21.494,16.979 21.407,16.976 21.220 C 16.972 20.996,16.836 20.662,14.901 16.140 C 13.763 13.478,12.816 11.261,12.797 11.212 C 12.766 11.131,12.819 11.094,13.492 10.718 C 13.892 10.494,14.236 10.296,14.256 10.278 C 14.277 10.258,14.223 10.138,14.129 9.992 C 13.950 9.714,12.435 7.167,12.213 6.770 C 12.136 6.633,12.070 6.522,12.067 6.524 C 12.063 6.526,11.376 6.913,10.540 7.383 M4.758 11.246 C 2.430 12.549,2.302 12.626,2.131 12.815 C 2.011 12.948,1.994 12.990,2.014 13.109 C 2.043 13.292,2.231 13.657,2.679 14.400 C 3.137 15.161,3.301 15.382,3.467 15.461 C 3.591 15.519,3.616 15.517,3.873 15.428 C 4.024 15.375,5.073 14.815,6.204 14.182 C 7.335 13.549,8.264 13.028,8.270 13.023 C 8.275 13.018,8.052 12.637,7.774 12.177 C 7.496 11.717,7.121 11.085,6.941 10.773 L 6.614 10.206 4.758 11.246 " fill="#1C274C" stroke="none" fill-rule="evenodd"></path></svg>