<svg width="24" height="24" viewBox="0 0 24 24" fill="none" xmlns="http://www.w3.org/2000/svg"><path d="M11.503 2.040 C 10.493 2.223,9.544 2.989,9.216 3.885 C 9.014 4.437,9.025 4.218,9.002 8.040 L 8.980 11.620 8.884 11.800 C 8.830 11.902,8.582 12.178,8.311 12.438 C 8.048 12.690,7.720 13.047,7.581 13.232 C 6.526 14.638,6.225 16.525,6.784 18.235 C 7.058 19.071,7.526 19.806,8.205 20.462 C 8.946 21.178,9.775 21.626,10.811 21.871 C 11.212 21.966,11.339 21.977,12.000 21.977 C 12.661 21.977,12.788 21.966,13.189 21.871 C 14.225 21.626,15.054 21.178,15.795 20.462 C 16.001 20.263,16.282 19.950,16.420 19.766 C 17.483 18.351,17.781 16.416,17.198 14.713 C 16.900 13.843,16.540 13.292,15.776 12.534 C 15.462 12.223,15.164 11.890,15.113 11.794 L 15.020 11.620 14.998 8.040 C 14.975 4.190,14.987 4.414,14.768 3.849 C 14.463 3.058,13.635 2.338,12.756 2.097 C 12.491 2.024,11.770 1.991,11.503 2.040 M12.405 4.381 C 12.485 4.432,12.593 4.543,12.645 4.627 L 12.740 4.780 12.760 9.240 L 12.780 13.700 12.890 13.887 C 12.951 13.990,13.112 14.170,13.249 14.287 C 13.829 14.784,14.064 15.051,14.231 15.402 C 14.424 15.806,14.480 16.052,14.480 16.500 C 14.480 16.946,14.424 17.194,14.235 17.589 C 13.953 18.182,13.421 18.650,12.781 18.870 C 12.504 18.965,12.397 18.980,12.000 18.980 C 11.256 18.980,10.774 18.778,10.236 18.243 C 9.995 18.004,9.897 17.869,9.769 17.600 C 9.575 17.193,9.520 16.949,9.520 16.500 C 9.520 16.052,9.576 15.806,9.769 15.402 C 9.937 15.050,10.151 14.807,10.769 14.270 C 10.930 14.130,11.069 13.967,11.126 13.850 L 11.220 13.660 11.240 9.220 L 11.260 4.780 11.353 4.631 C 11.586 4.256,12.044 4.147,12.405 4.381 " fill="#1C274C" stroke="none" fill-rule="evenodd"></path></svg>