<svg width="24" height="24" viewBox="0 0 24 24" fill="none" xmlns="http://www.w3.org/2000/svg"><path d="M11.320 2.026 C 10.294 2.126,9.645 2.252,8.909 2.495 C 7.061 3.105,5.377 4.266,4.202 5.740 C 3.750 6.307,3.063 7.400,3.159 7.400 C 3.267 7.400,4.052 7.735,4.162 7.828 C 4.622 8.215,4.437 8.977,3.850 9.118 C 3.665 9.162,3.625 9.157,3.354 9.060 C 2.757 8.845,2.562 8.785,2.536 8.811 C 2.496 8.850,2.287 9.606,2.200 10.024 C 1.922 11.357,1.944 12.919,2.260 14.260 C 3.004 17.424,5.222 20.026,8.221 21.254 C 8.752 21.471,9.845 21.800,10.037 21.800 C 10.067 21.800,10.156 21.392,10.222 20.960 C 10.264 20.684,10.378 20.496,10.573 20.382 C 11.024 20.118,11.609 20.377,11.700 20.880 C 11.722 21.002,11.645 21.627,11.573 21.915 L 11.548 22.012 12.284 21.988 C 13.323 21.954,14.121 21.819,15.053 21.520 C 16.886 20.933,18.615 19.745,19.802 18.256 C 20.250 17.693,20.936 16.600,20.841 16.600 C 20.733 16.600,19.948 16.265,19.838 16.172 C 19.444 15.841,19.511 15.189,19.962 14.959 C 20.165 14.855,20.461 14.857,20.729 14.965 C 20.845 15.011,21.060 15.091,21.206 15.141 L 21.473 15.233 21.596 14.786 C 21.973 13.422,22.079 12.252,21.942 10.960 C 21.500 6.796,18.496 3.324,14.467 2.320 C 14.185 2.249,13.945 2.201,13.934 2.213 C 13.922 2.224,13.873 2.465,13.824 2.747 C 13.775 3.029,13.705 3.318,13.667 3.388 C 13.598 3.521,13.344 3.691,13.150 3.736 C 12.963 3.779,12.682 3.682,12.516 3.516 C 12.291 3.291,12.257 3.117,12.337 2.601 C 12.372 2.369,12.412 2.139,12.425 2.090 L 12.449 2.000 11.955 2.006 C 11.683 2.010,11.397 2.019,11.320 2.026 M13.220 4.779 C 13.378 4.815,13.585 4.975,13.661 5.121 C 13.694 5.185,13.757 5.504,13.802 5.829 C 13.846 6.154,13.924 6.616,13.974 6.855 C 14.081 7.366,14.066 7.566,13.901 7.782 C 13.775 7.948,13.524 8.078,13.329 8.079 C 13.068 8.081,12.776 7.902,12.654 7.667 C 12.530 7.428,12.282 6.006,12.281 5.524 C 12.280 5.111,12.477 4.850,12.860 4.758 C 12.981 4.729,12.999 4.730,13.220 4.779 M6.172 8.946 C 6.451 9.090,7.499 9.934,7.808 10.265 C 8.191 10.674,8.083 11.251,7.580 11.484 C 7.245 11.639,7.027 11.569,6.574 11.157 C 6.379 10.980,6.008 10.673,5.750 10.475 C 5.190 10.047,5.102 9.916,5.128 9.554 C 5.157 9.158,5.455 8.880,5.852 8.880 C 5.958 8.880,6.102 8.910,6.172 8.946 M14.460 8.996 C 14.676 9.095,14.750 9.188,15.014 9.692 C 15.138 9.929,15.358 10.312,15.502 10.541 C 15.813 11.037,15.856 11.148,15.830 11.384 C 15.756 12.036,14.900 12.268,14.501 11.745 C 14.336 11.528,13.776 10.584,13.588 10.206 C 13.405 9.835,13.374 9.563,13.491 9.339 C 13.677 8.981,14.102 8.830,14.460 8.996 M9.228 12.038 C 9.326 12.083,9.447 12.185,9.521 12.287 C 9.706 12.542,10.121 13.242,10.364 13.710 C 10.549 14.067,10.576 14.148,10.571 14.336 C 10.564 14.670,10.414 14.891,10.111 15.018 C 9.916 15.099,9.737 15.095,9.540 15.004 C 9.324 14.905,9.250 14.812,8.986 14.308 C 8.862 14.071,8.644 13.690,8.501 13.463 C 8.206 12.993,8.160 12.890,8.160 12.696 C 8.160 12.161,8.728 11.811,9.228 12.038 M17.101 12.587 C 17.196 12.649,17.432 12.841,17.625 13.013 C 17.818 13.185,18.143 13.451,18.348 13.604 C 18.802 13.943,18.897 14.097,18.872 14.446 C 18.859 14.629,18.829 14.711,18.735 14.829 C 18.513 15.107,18.133 15.206,17.832 15.063 C 17.454 14.884,16.172 13.779,16.039 13.518 C 15.839 13.127,16.036 12.655,16.465 12.497 C 16.674 12.419,16.893 12.450,17.101 12.587 M10.951 15.982 C 11.128 16.056,11.266 16.179,11.346 16.333 C 11.470 16.572,11.718 17.994,11.719 18.476 C 11.720 18.894,11.534 19.145,11.150 19.242 C 10.838 19.320,10.486 19.162,10.338 18.876 C 10.306 18.814,10.244 18.505,10.202 18.191 C 10.159 17.877,10.080 17.411,10.027 17.155 C 9.914 16.619,9.928 16.442,10.100 16.217 C 10.301 15.954,10.651 15.857,10.951 15.982 " fill="#1C274C" stroke="none" fill-rule="evenodd"></path></svg>