<svg width="24" height="24" viewBox="0 0 24 24" fill="none" xmlns="http://www.w3.org/2000/svg"><path d="M11.340 2.027 C 10.431 2.101,9.644 2.254,8.900 2.499 C 6.498 3.289,4.477 4.956,3.244 7.164 L 3.120 7.387 3.530 7.629 C 4.874 8.422,6.406 9.803,7.580 11.280 C 8.431 12.350,9.082 13.375,9.716 14.640 C 10.847 16.899,11.457 19.143,11.547 21.376 L 11.573 22.011 12.316 21.987 C 13.417 21.952,14.227 21.804,15.260 21.451 C 16.678 20.967,17.947 20.172,19.044 19.081 C 19.761 18.368,20.224 17.773,20.674 16.983 L 20.878 16.627 20.559 16.434 C 16.759 14.150,13.630 9.531,12.723 4.865 C 12.564 4.042,12.485 3.393,12.454 2.636 L 12.427 2.000 11.964 2.007 C 11.709 2.010,11.428 2.019,11.340 2.027 M13.960 2.569 C 13.960 2.774,13.987 3.174,14.020 3.460 C 14.511 7.721,17.073 12.114,20.520 14.604 C 21.154 15.062,21.439 15.227,21.480 15.160 C 21.539 15.065,21.768 14.156,21.843 13.719 C 22.279 11.187,21.753 8.660,20.341 6.500 C 18.919 4.324,16.693 2.805,14.070 2.223 L 13.960 2.198 13.960 2.569 M2.426 9.150 C 1.396 12.530,2.298 16.289,4.765 18.897 C 5.757 19.946,7.157 20.869,8.523 21.374 C 8.847 21.494,9.914 21.799,10.010 21.800 C 10.053 21.800,10.046 21.083,9.999 20.660 C 9.492 16.121,6.688 11.471,3.015 9.080 C 2.778 8.926,2.573 8.800,2.558 8.800 C 2.544 8.800,2.485 8.957,2.426 9.150 " fill="#1C274C" stroke="none" fill-rule="evenodd"></path></svg>