<svg width="24" height="24" viewBox="0 0 24 24" fill="none" xmlns="http://www.w3.org/2000/svg"><path d="M11.120 2.039 C 9.316 2.220,7.707 2.807,6.280 3.806 C 2.696 6.315,1.150 10.849,2.462 15.000 C 2.954 16.557,3.767 17.890,4.938 19.062 C 6.528 20.651,8.440 21.596,10.740 21.928 C 11.213 21.996,12.787 21.996,13.260 21.928 C 15.135 21.657,16.725 20.987,18.200 19.845 C 18.637 19.507,19.507 18.637,19.845 18.200 C 22.092 15.297,22.619 11.564,21.254 8.220 C 20.058 5.287,17.480 3.053,14.430 2.303 C 13.446 2.062,12.028 1.948,11.120 2.039 M16.388 6.367 C 16.628 6.526,16.733 6.721,16.733 7.007 C 16.733 7.203,16.714 7.271,16.616 7.409 C 16.388 7.734,16.372 7.737,15.061 7.760 L 13.901 7.780 12.776 12.000 L 11.651 16.220 12.595 16.240 C 13.606 16.262,13.670 16.274,13.868 16.487 C 13.985 16.612,14.080 16.847,14.079 17.009 C 14.077 17.311,13.827 17.634,13.528 17.721 C 13.426 17.751,12.502 17.760,10.580 17.752 C 7.842 17.740,7.777 17.738,7.641 17.658 C 7.564 17.613,7.448 17.501,7.384 17.409 C 7.286 17.271,7.267 17.203,7.267 17.007 C 7.267 16.721,7.372 16.526,7.612 16.367 L 7.774 16.260 8.936 16.240 L 10.099 16.220 11.224 12.000 L 12.349 7.780 11.405 7.760 C 10.394 7.739,10.331 7.726,10.132 7.513 C 10.015 7.388,9.920 7.153,9.921 6.991 C 9.923 6.705,10.183 6.351,10.433 6.296 C 10.492 6.284,10.558 6.267,10.580 6.259 C 10.602 6.251,11.881 6.248,13.423 6.252 L 16.226 6.260 16.388 6.367 " fill="#1C274C" stroke="none" fill-rule="evenodd"></path></svg>