<svg width="64" height="284" viewBox="0 0 64 284" fill="none" xmlns="http://www.w3.org/2000/svg"><path d="M4.126 0.117 C 3.231 0.248,2.251 0.770,1.510 1.510 C 0.376 2.644,0.007 3.758,0.002 6.053 L 0.000 7.147 0.480 7.147 L 0.960 7.147 0.960 5.925 C 0.960 4.587,1.089 3.793,1.407 3.163 C 1.693 2.598,2.400 1.853,2.965 1.523 C 3.867 0.994,4.240 0.963,9.787 0.962 L 14.933 0.960 14.933 0.480 L 14.933 0.000 9.840 0.013 C 7.039 0.020,4.467 0.067,4.126 0.117 M20.053 0.480 L 20.053 0.960 25.013 0.960 L 29.973 0.960 29.973 0.480 L 29.973 0.000 25.013 0.000 L 20.053 0.000 20.053 0.480 M35.093 0.480 L 35.093 0.960 40.053 0.960 L 45.013 0.960 45.013 0.480 L 45.013 0.000 40.053 0.000 L 35.093 0.000 35.093 0.480 M50.027 0.472 L 50.027 0.960 54.765 0.960 C 57.370 0.960,59.576 0.988,59.665 1.022 C 59.785 1.068,59.858 0.968,59.947 0.638 C 60.013 0.393,60.036 0.161,59.998 0.123 C 59.960 0.084,57.701 0.038,54.978 0.019 L 50.027 -0.015 50.027 0.472 M63.163 4.023 C 62.966 4.061,62.926 4.120,62.975 4.302 C 63.009 4.429,63.038 6.633,63.039 9.200 L 63.040 13.867 63.520 13.867 L 64.000 13.867 64.000 9.562 C 64.000 7.195,63.969 4.963,63.931 4.602 C 63.858 3.899,63.849 3.893,63.163 4.023 M0.000 17.227 L 0.000 22.187 0.480 22.187 L 0.960 22.187 0.960 17.227 L 0.960 12.267 0.480 12.267 L 0.000 12.267 0.000 17.227 M63.040 23.947 L 63.040 28.907 63.520 28.907 L 64.000 28.907 64.000 23.947 L 64.000 18.987 63.520 18.987 L 63.040 18.987 63.040 23.947 M26.879 21.371 C 26.172 21.524,25.644 21.834,25.136 22.396 C 24.225 23.404,24.200 23.636,24.237 30.576 C 24.265 35.977,24.276 36.255,24.470 36.469 C 24.728 36.754,25.214 36.759,25.493 36.480 C 25.689 36.284,25.707 36.124,25.707 34.507 L 25.707 32.747 30.021 32.747 C 34.551 32.747,35.075 32.789,35.947 33.228 C 36.597 33.556,37.486 34.467,37.819 35.148 C 38.173 35.872,38.309 36.839,38.176 37.687 C 37.904 39.420,36.516 40.846,34.785 41.172 C 34.467 41.232,32.573 41.280,30.542 41.280 C 26.093 41.280,26.047 41.269,25.758 40.131 C 25.411 38.765,24.076 39.119,24.336 40.508 C 24.540 41.599,25.355 42.421,26.469 42.660 C 27.154 42.807,34.061 42.809,34.987 42.662 C 36.971 42.347,38.867 40.685,39.474 38.728 C 39.892 37.378,39.737 35.617,39.087 34.334 C 38.576 33.325,37.210 32.087,36.160 31.681 C 35.955 31.602,35.769 31.523,35.747 31.506 C 35.725 31.490,35.948 31.207,36.242 30.877 C 37.167 29.839,37.756 28.325,37.756 26.987 C 37.756 24.234,35.560 21.723,32.819 21.343 C 31.713 21.189,27.633 21.209,26.879 21.371 M32.688 22.825 C 33.561 22.968,34.321 23.365,34.988 24.027 C 36.893 25.919,36.574 29.042,34.323 30.536 C 33.303 31.212,33.008 31.253,29.154 31.253 L 25.707 31.253 25.707 27.867 C 25.708 25.948,25.754 24.314,25.814 24.098 C 25.943 23.632,26.588 22.963,27.033 22.834 C 27.481 22.704,31.905 22.697,32.688 22.825 M0.000 32.160 L 0.000 37.120 0.480 37.120 L 0.960 37.120 0.960 32.160 L 0.960 27.200 0.480 27.200 L 0.000 27.200 0.000 32.160 M63.040 38.987 L 63.040 43.947 63.520 43.947 L 64.000 43.947 64.000 38.987 L 64.000 34.027 63.520 34.027 L 63.040 34.027 63.040 38.987 M0.000 47.200 L 0.000 52.160 0.480 52.160 L 0.960 52.160 0.960 47.200 L 0.960 42.240 0.480 42.240 L 0.000 42.240 0.000 47.200 M63.040 53.920 L 63.040 58.880 63.520 58.880 L 64.000 58.880 64.000 53.920 L 64.000 48.960 63.520 48.960 L 63.040 48.960 63.040 53.920 M0.000 62.187 L 0.000 67.200 0.480 67.200 L 0.960 67.200 0.960 62.187 L 0.960 57.173 0.480 57.173 L 0.000 57.173 0.000 62.187 M63.040 68.960 L 63.040 73.920 63.520 73.920 L 64.000 73.920 64.000 68.960 L 64.000 64.000 63.520 64.000 L 63.040 64.000 63.040 68.960 M26.598 65.433 C 26.018 65.614,25.248 66.173,24.916 66.655 C 24.261 67.604,24.273 67.499,24.233 72.347 L 24.197 76.800 28.285 76.799 C 30.623 76.799,32.670 76.750,33.067 76.686 C 34.194 76.504,35.150 75.976,36.032 75.047 C 37.507 73.495,38.016 71.795,37.599 69.813 C 37.156 67.706,35.441 65.931,33.377 65.444 C 32.469 65.230,27.273 65.221,26.598 65.433 M33.227 66.937 C 35.318 67.571,36.654 69.897,36.121 71.976 C 36.028 72.341,35.859 72.820,35.747 73.040 C 35.445 73.631,34.548 74.477,33.844 74.834 L 33.227 75.147 29.467 75.178 L 25.707 75.210 25.707 71.872 C 25.708 69.904,25.753 68.370,25.818 68.137 C 25.955 67.642,26.340 67.176,26.797 66.950 C 27.296 66.704,32.423 66.694,33.227 66.937 M0.000 77.173 L 0.000 82.133 0.480 82.133 L 0.960 82.133 0.960 77.173 L 0.960 72.213 0.480 72.213 L 0.000 72.213 0.000 77.173 M63.040 84.000 L 63.040 88.960 63.520 88.960 L 64.000 88.960 64.000 84.000 L 64.000 79.040 63.520 79.040 L 63.040 79.040 63.040 84.000 M0.000 92.213 L 0.000 97.173 0.480 97.173 L 0.960 97.173 0.960 92.213 L 0.960 87.253 0.480 87.253 L 0.000 87.253 0.000 92.213 M63.040 98.933 L 63.040 103.893 63.520 103.893 L 64.000 103.893 64.000 98.933 L 64.000 93.973 63.520 93.973 L 63.040 93.973 63.040 98.933 M0.000 107.147 L 0.000 112.107 0.480 112.107 L 0.960 112.107 0.960 107.147 L 0.960 102.187 0.480 102.187 L 0.000 102.187 0.000 107.147 M63.040 113.973 L 63.040 118.933 63.520 118.933 L 64.000 118.933 64.000 113.973 L 64.000 109.013 63.520 109.013 L 63.040 109.013 63.040 113.973 M26.507 109.475 C 25.244 109.970,24.521 110.877,24.310 112.232 C 24.245 112.650,24.216 115.932,24.235 120.749 C 24.266 128.438,24.271 128.596,24.489 129.068 C 24.758 129.648,25.256 130.165,25.852 130.484 C 26.282 130.714,26.398 130.721,30.358 130.751 C 33.646 130.777,34.568 130.752,35.187 130.623 C 37.260 130.191,38.919 128.643,39.519 126.581 C 39.772 125.709,39.751 124.194,39.474 123.299 C 39.035 121.883,37.864 120.534,36.504 119.878 C 36.109 119.688,35.769 119.520,35.747 119.504 C 35.725 119.489,35.956 119.198,36.260 118.858 C 37.176 117.832,37.756 116.330,37.756 114.987 C 37.756 112.608,36.011 110.250,33.730 109.545 C 33.109 109.353,32.749 109.334,29.935 109.341 C 27.823 109.347,26.724 109.390,26.507 109.475 M32.640 110.834 C 34.955 111.207,36.561 113.399,36.185 115.671 C 35.921 117.265,34.826 118.556,33.317 119.054 C 32.777 119.232,32.344 119.253,29.210 119.253 L 25.707 119.253 25.707 115.920 C 25.708 113.886,25.752 112.427,25.822 112.177 C 25.971 111.639,26.507 111.069,27.040 110.880 C 27.564 110.695,31.575 110.662,32.640 110.834 M0.000 122.187 L 0.000 127.147 0.480 127.147 L 0.960 127.147 0.960 122.187 L 0.960 117.227 0.480 117.227 L 0.000 117.227 0.000 122.187 M35.554 121.052 C 36.348 121.370,37.404 122.344,37.788 123.112 C 38.356 124.247,38.368 125.756,37.818 126.880 C 37.488 127.554,36.632 128.451,36.019 128.765 C 35.084 129.243,34.719 129.277,30.613 129.278 C 26.895 129.279,26.704 129.270,26.367 129.064 C 25.731 128.676,25.707 128.506,25.707 124.501 C 25.707 122.514,25.741 120.854,25.784 120.812 C 25.826 120.769,27.902 120.750,30.397 120.769 C 34.862 120.802,34.943 120.807,35.554 121.052 M63.040 129.013 L 63.040 133.973 63.520 133.973 L 64.000 133.973 64.000 129.013 L 64.000 124.053 63.520 124.053 L 63.040 124.053 63.040 129.013 M0.000 137.227 L 0.000 142.187 0.480 142.187 L 0.960 142.187 0.960 137.227 L 0.960 132.267 0.480 132.267 L 0.000 132.267 0.000 137.227 M63.040 143.947 L 63.040 148.907 63.520 148.907 L 64.000 148.907 64.000 143.947 L 64.000 138.987 63.520 138.987 L 63.040 138.987 63.040 143.947 M0.000 152.160 L 0.000 157.120 0.480 157.120 L 0.960 157.120 0.960 152.160 L 0.960 147.200 0.480 147.200 L 0.000 147.200 0.000 152.160 M26.820 153.380 C 26.257 153.515,25.384 154.053,25.057 154.466 C 24.884 154.684,24.635 155.095,24.504 155.378 L 24.267 155.893 24.267 164.267 L 24.267 172.640 24.516 173.145 C 24.820 173.764,25.550 174.426,26.113 174.595 C 26.403 174.682,27.823 174.720,30.740 174.720 C 34.300 174.720,35.037 174.694,35.527 174.548 C 38.084 173.789,39.692 171.658,39.688 169.033 C 39.685 166.479,38.250 164.473,35.787 163.581 C 35.582 163.507,35.584 163.495,35.847 163.272 C 36.246 162.934,36.846 162.150,37.116 161.613 C 38.832 158.209,36.776 154.085,33.020 153.396 C 32.320 153.268,27.344 153.255,26.820 153.380 M63.040 158.987 L 63.040 163.947 63.520 163.947 L 64.000 163.947 64.000 158.987 L 64.000 154.027 63.520 154.027 L 63.040 154.027 63.040 158.987 M33.831 155.225 C 37.182 156.882,36.993 161.607,33.520 163.005 C 32.922 163.246,32.820 163.252,29.333 163.252 L 25.760 163.253 25.760 159.672 L 25.760 156.091 26.060 155.637 C 26.610 154.807,26.812 154.766,30.139 154.798 L 33.025 154.827 33.831 155.225 M0.000 167.200 L 0.000 172.160 0.480 172.160 L 0.960 172.160 0.960 167.200 L 0.960 162.240 0.480 162.240 L 0.000 162.240 0.000 167.200 M35.787 165.167 C 37.504 166.008,38.535 167.970,38.190 169.740 C 37.840 171.533,36.453 172.896,34.636 173.231 C 34.279 173.297,32.573 173.329,30.362 173.311 C 26.833 173.281,26.670 173.271,26.381 173.059 C 25.722 172.575,25.707 172.475,25.707 168.449 L 25.707 164.792 30.427 164.822 L 35.147 164.853 35.787 165.167 M63.040 174.027 L 63.040 178.987 63.520 178.987 L 64.000 178.987 64.000 174.027 L 64.000 169.067 63.520 169.067 L 63.040 169.067 63.040 174.027 M0.000 182.240 L 0.000 187.200 0.480 187.200 L 0.960 187.200 0.960 182.240 L 0.960 177.280 0.480 177.280 L 0.000 177.280 0.000 182.240 M63.040 188.960 L 63.040 193.920 63.520 193.920 L 64.000 193.920 64.000 188.960 L 64.000 184.000 63.520 184.000 L 63.040 184.000 63.040 188.960 M0.000 197.173 L 0.000 202.133 0.480 202.133 L 0.960 202.133 0.960 197.173 L 0.960 192.213 0.480 192.213 L 0.000 192.213 0.000 197.173 M26.901 197.121 C 25.819 197.348,24.771 198.193,24.290 199.226 L 24.053 199.733 24.053 208.267 L 24.053 216.800 24.340 217.343 C 24.640 217.912,25.152 218.426,25.735 218.745 C 26.046 218.914,26.506 218.937,30.347 218.967 C 33.214 218.989,34.823 218.960,35.253 218.879 C 36.708 218.604,38.354 217.444,39.094 216.173 C 40.496 213.762,40.203 210.943,38.347 208.976 C 37.794 208.390,36.692 207.591,36.220 207.433 C 36.160 207.413,36.316 207.162,36.569 206.875 C 36.821 206.588,37.189 206.016,37.386 205.604 C 38.941 202.344,37.291 198.523,33.813 197.329 C 33.175 197.110,32.892 197.088,30.240 197.058 C 28.656 197.040,27.153 197.068,26.901 197.121 M33.619 199.377 C 35.265 200.149,36.246 201.968,35.938 203.676 C 35.701 204.996,34.826 206.137,33.619 206.703 L 33.013 206.987 29.520 207.020 L 26.027 207.053 26.027 203.596 C 26.027 198.752,25.785 199.018,30.133 199.063 C 33.000 199.093,33.016 199.095,33.619 199.377 M63.040 204.000 L 63.040 208.960 63.520 208.960 L 64.000 208.960 64.000 204.000 L 64.000 199.040 63.520 199.040 L 63.040 199.040 63.040 204.000 M0.000 212.213 L 0.000 217.173 0.480 217.173 L 0.960 217.173 0.960 212.213 L 0.960 207.253 0.480 207.253 L 0.000 207.253 0.000 212.213 M35.749 209.467 C 36.583 209.878,37.239 210.547,37.636 211.395 C 37.884 211.924,37.920 212.135,37.920 213.067 C 37.920 214.011,37.887 214.201,37.630 214.724 C 37.237 215.524,36.465 216.278,35.627 216.681 L 34.933 217.013 30.943 217.046 C 28.027 217.070,26.870 217.044,26.646 216.951 C 26.024 216.694,26.027 216.713,26.027 212.720 L 26.027 209.060 30.536 209.090 L 35.045 209.120 35.749 209.467 M63.040 218.933 L 63.040 223.893 63.520 223.893 L 64.000 223.893 64.000 218.933 L 64.000 213.973 63.520 213.973 L 63.040 213.973 63.040 218.933 M0.000 227.253 L 0.000 232.213 0.480 232.213 L 0.960 232.213 0.960 227.253 L 0.960 222.293 0.480 222.293 L 0.000 222.293 0.000 227.253 M63.040 233.973 L 63.040 238.933 63.520 238.933 L 64.000 238.933 64.000 233.973 L 64.000 229.013 63.520 229.013 L 63.040 229.013 63.040 233.973 M0.000 242.187 L 0.000 247.147 0.480 247.147 L 0.960 247.147 0.960 242.187 L 0.960 237.227 0.480 237.227 L 0.000 237.227 0.000 242.187 M63.040 249.013 L 63.040 253.973 63.520 253.973 L 64.000 253.973 64.000 249.013 L 64.000 244.053 63.520 244.053 L 63.040 244.053 63.040 249.013 M0.000 257.227 L 0.000 262.187 0.480 262.187 L 0.960 262.187 0.960 257.227 L 0.960 252.267 0.480 252.267 L 0.000 252.267 0.000 257.227 M63.040 263.947 L 63.040 268.907 63.520 268.907 L 64.000 268.907 64.000 263.947 L 64.000 258.987 63.520 258.987 L 63.040 258.987 63.040 263.947 M0.000 272.267 L 0.000 277.227 0.480 277.227 L 0.960 277.227 0.960 272.267 L 0.960 267.307 0.480 267.307 L 0.000 267.307 0.000 272.267 M63.021 277.040 L 62.987 280.053 62.643 280.756 C 62.325 281.405,61.606 282.209,61.073 282.511 C 60.864 282.629,60.896 282.878,61.167 283.234 C 61.301 283.411,61.342 283.414,61.617 283.272 C 62.166 282.988,63.039 281.997,63.418 281.227 C 63.906 280.235,63.995 279.509,63.998 276.507 L 64.000 274.027 63.527 274.027 L 63.055 274.027 63.021 277.040 M1.592 282.002 L 1.249 282.309 1.718 282.761 C 1.976 283.009,2.499 283.366,2.880 283.553 L 3.573 283.893 7.333 283.925 L 11.093 283.957 11.093 283.532 L 11.093 283.106 7.547 283.073 L 4.000 283.040 3.401 282.759 C 3.071 282.604,2.606 282.302,2.368 282.087 L 1.935 281.696 1.592 282.002 M16.107 283.520 L 16.107 283.947 21.067 283.947 L 26.027 283.947 26.027 283.520 L 26.027 283.093 21.067 283.093 L 16.107 283.093 16.107 283.520 M31.147 283.520 L 31.147 283.947 36.107 283.947 L 41.067 283.947 41.067 283.520 L 41.067 283.093 36.107 283.093 L 31.147 283.093 31.147 283.520 M46.187 283.520 L 46.187 283.947 51.147 283.947 L 56.107 283.947 56.107 283.520 L 56.107 283.093 51.147 283.093 L 46.187 283.093 46.187 283.520 " stroke="none" fill-rule="evenodd" fill="black"></path></svg>