<svg width="24" height="24" viewBox="0 0 24 24" fill="none" xmlns="http://www.w3.org/2000/svg"><path d="M8.440 2.043 C 5.815 2.137,4.484 2.504,3.549 3.393 C 2.549 4.344,2.163 5.596,2.041 8.280 C 1.989 9.450,1.989 14.605,2.041 15.740 C 2.160 18.285,2.507 19.501,3.379 20.433 C 4.323 21.444,5.571 21.833,8.260 21.959 C 9.399 22.012,14.601 22.012,15.740 21.959 C 18.285 21.840,19.501 21.493,20.433 20.621 C 21.360 19.755,21.742 18.682,21.927 16.420 C 21.966 15.951,21.980 14.772,21.980 12.000 C 21.980 8.151,21.964 7.600,21.816 6.500 C 21.584 4.775,20.991 3.670,19.928 2.982 C 18.975 2.366,17.835 2.129,15.393 2.041 C 14.150 1.996,9.732 1.997,8.440 2.043 M15.397 6.335 C 15.905 6.468,16.283 6.755,16.490 7.164 C 16.683 7.545,16.728 7.875,16.734 8.960 C 16.740 9.936,16.740 9.941,16.640 10.114 C 16.355 10.612,15.644 10.612,15.360 10.114 C 15.263 9.945,15.260 9.913,15.240 8.931 C 15.222 8.033,15.212 7.915,15.149 7.851 C 15.084 7.787,14.967 7.779,13.919 7.767 L 12.760 7.755 12.760 11.995 L 12.760 16.235 13.993 16.247 L 15.226 16.260 15.388 16.367 C 15.628 16.526,15.733 16.721,15.733 17.007 C 15.733 17.203,15.714 17.271,15.616 17.409 C 15.552 17.501,15.436 17.613,15.359 17.658 C 15.223 17.738,15.160 17.740,12.302 17.751 L 9.385 17.762 9.182 17.662 C 8.622 17.385,8.618 16.634,9.176 16.328 C 9.281 16.270,9.449 16.258,10.270 16.247 L 11.240 16.234 11.240 11.994 L 11.240 7.755 10.081 7.767 C 9.033 7.779,8.916 7.787,8.851 7.851 C 8.788 7.915,8.778 8.033,8.760 8.931 C 8.740 9.913,8.737 9.945,8.640 10.114 C 8.357 10.611,7.656 10.614,7.366 10.120 C 7.268 9.953,7.260 9.900,7.246 9.380 C 7.228 8.639,7.295 7.768,7.396 7.443 C 7.557 6.926,7.963 6.524,8.475 6.373 C 8.853 6.262,9.312 6.248,12.280 6.258 C 14.804 6.267,15.170 6.276,15.397 6.335 " fill="#1C274C" stroke="none" fill-rule="evenodd"></path></svg>