<svg width="24" height="24" viewBox="0 0 24 24" fill="none" xmlns="http://www.w3.org/2000/svg"><path d="M3.680 2.024 C 3.462 2.065,3.089 2.217,2.893 2.347 C 2.538 2.581,2.263 2.937,2.110 3.356 C 1.998 3.664,1.991 4.290,2.096 4.600 C 2.258 5.079,2.575 5.472,3.010 5.733 L 3.241 5.871 3.241 12.003 L 3.241 18.135 3.046 18.248 C 2.614 18.497,2.278 18.893,2.112 19.350 C 1.994 19.673,1.993 20.325,2.110 20.644 C 2.322 21.226,2.772 21.677,3.350 21.888 C 3.676 22.007,4.324 22.007,4.650 21.888 C 5.107 21.722,5.503 21.386,5.752 20.954 L 5.865 20.759 11.997 20.759 L 18.129 20.759 18.267 20.990 C 18.524 21.419,18.884 21.719,19.343 21.886 C 19.676 22.007,20.321 22.008,20.650 21.888 C 21.228 21.677,21.678 21.226,21.890 20.644 C 22.007 20.325,22.006 19.673,21.888 19.350 C 21.722 18.893,21.386 18.497,20.954 18.248 L 20.759 18.135 20.759 12.001 L 20.759 5.867 20.950 5.758 C 21.377 5.513,21.722 5.106,21.888 4.650 C 22.013 4.309,22.009 3.670,21.881 3.340 C 21.649 2.743,21.254 2.348,20.660 2.119 C 20.330 1.991,19.690 1.988,19.350 2.112 C 18.893 2.278,18.497 2.614,18.248 3.046 L 18.135 3.241 12.000 3.241 L 5.865 3.241 5.752 3.046 C 5.394 2.426,4.792 2.052,4.102 2.020 C 3.925 2.012,3.735 2.014,3.680 2.024 M18.240 4.947 C 18.369 5.191,18.809 5.631,19.053 5.760 L 19.243 5.860 19.243 12.000 L 19.243 18.140 19.053 18.240 C 18.809 18.369,18.369 18.809,18.240 19.053 L 18.140 19.243 12.000 19.243 L 5.860 19.243 5.760 19.053 C 5.631 18.809,5.191 18.369,4.947 18.240 L 4.757 18.140 4.757 12.000 L 4.757 5.860 4.947 5.760 C 5.183 5.636,5.634 5.190,5.738 4.978 C 5.781 4.891,5.829 4.802,5.845 4.780 C 5.864 4.754,7.953 4.743,12.007 4.749 L 18.140 4.757 18.240 4.947 M8.811 8.278 C 8.536 8.345,8.316 8.587,8.260 8.885 C 8.197 9.220,8.450 9.624,8.781 9.715 C 8.880 9.743,9.374 9.760,10.090 9.760 L 11.240 9.760 11.240 12.410 C 11.240 14.220,11.254 15.110,11.285 15.219 C 11.344 15.432,11.578 15.660,11.798 15.719 C 12.198 15.827,12.610 15.599,12.718 15.209 C 12.745 15.113,12.760 14.109,12.760 12.410 L 12.760 9.760 13.910 9.760 C 14.626 9.760,15.120 9.743,15.219 9.715 C 15.431 9.657,15.660 9.422,15.719 9.204 C 15.808 8.873,15.689 8.566,15.395 8.372 L 15.226 8.260 12.083 8.254 C 10.354 8.250,8.882 8.261,8.811 8.278 " fill="#1C274C" stroke="none" fill-rule="evenodd"></path></svg>