<svg width="24" height="24" viewBox="0 0 24 24" fill="none" xmlns="http://www.w3.org/2000/svg"><path d="M7.940 2.046 C 6.042 2.152,4.881 2.478,3.961 3.162 C 2.633 4.150,2.050 5.807,2.027 8.660 L 2.020 9.500 3.140 9.521 C 4.089 9.539,4.290 9.553,4.460 9.615 C 5.034 9.825,5.487 10.222,5.749 10.746 C 6.358 11.966,5.768 13.412,4.469 13.884 C 4.238 13.968,4.140 13.975,3.110 13.990 L 2.000 14.007 2.000 14.473 C 2.001 16.155,2.238 17.716,2.631 18.628 C 3.025 19.542,3.743 20.309,4.614 20.747 C 5.497 21.190,6.542 21.397,8.303 21.477 C 9.398 21.526,15.243 21.501,15.900 21.444 C 17.763 21.283,18.847 20.932,19.699 20.213 C 20.770 19.310,21.280 18.045,21.437 15.900 C 21.475 15.381,21.498 14.607,21.486 14.210 L 21.480 14.000 20.490 13.999 C 19.746 13.999,19.436 13.984,19.242 13.938 C 18.444 13.750,17.791 13.114,17.579 12.320 C 17.503 12.033,17.504 11.478,17.581 11.182 C 17.779 10.421,18.424 9.779,19.188 9.580 C 19.362 9.534,19.663 9.520,20.445 9.520 L 21.473 9.520 21.489 9.290 C 21.513 8.950,21.447 7.575,21.380 6.990 C 21.230 5.695,20.896 4.695,20.387 4.017 C 20.144 3.695,19.617 3.195,19.309 2.995 C 18.409 2.413,17.319 2.146,15.420 2.041 C 14.562 1.994,8.796 1.997,7.940 2.046 M16.030 7.062 C 16.220 7.141,16.311 7.225,16.404 7.408 C 16.543 7.680,16.493 8.036,16.287 8.254 C 16.049 8.506,16.104 8.499,14.210 8.512 L 12.480 8.524 12.480 12.219 C 12.480 14.733,12.466 15.951,12.437 16.027 C 12.390 16.153,12.222 16.344,12.101 16.410 C 11.740 16.605,11.247 16.439,11.077 16.065 C 11.005 15.908,11.002 15.727,11.001 12.210 L 11.000 8.520 9.390 8.519 C 8.429 8.518,7.708 8.501,7.601 8.477 C 6.886 8.312,6.793 7.383,7.460 7.076 C 7.612 7.005,7.820 7.002,11.751 7.001 C 15.380 7.000,15.900 7.007,16.030 7.062 M1.458 11.074 C 0.894 11.334,0.858 12.124,1.398 12.399 C 1.547 12.475,1.632 12.480,2.740 12.480 C 4.026 12.480,4.085 12.471,4.287 12.255 C 4.596 11.925,4.530 11.380,4.152 11.130 L 3.986 11.020 2.803 11.010 C 1.720 11.000,1.606 11.006,1.458 11.074 M19.458 11.074 C 18.894 11.334,18.858 12.124,19.398 12.399 C 19.547 12.475,19.632 12.480,20.740 12.480 C 22.026 12.480,22.085 12.471,22.287 12.255 C 22.596 11.925,22.530 11.380,22.152 11.130 L 21.986 11.020 20.803 11.010 C 19.720 11.000,19.606 11.006,19.458 11.074 " fill="#1C274C" stroke="none" fill-rule="evenodd"></path></svg>