<svg width="24" height="24" viewBox="0 0 24 24" fill="none" xmlns="http://www.w3.org/2000/svg"><path d="M3.689 2.059 C 3.454 2.132,3.263 2.287,3.131 2.511 L 3.020 2.700 3.008 6.040 C 3.000 8.289,3.010 9.530,3.040 9.840 C 3.453 14.090,6.745 17.444,10.992 17.941 C 14.021 18.295,17.092 17.029,19.010 14.635 C 20.112 13.260,20.790 11.592,20.960 9.840 C 20.990 9.531,21.000 8.288,20.992 6.059 L 20.980 2.738 20.878 2.539 C 20.524 1.852,19.529 1.834,19.133 2.508 L 19.020 2.700 18.997 6.240 C 18.973 10.036,18.976 9.993,18.758 10.819 C 18.260 12.713,16.908 14.364,15.125 15.258 C 11.650 16.999,7.429 15.568,5.720 12.067 C 5.333 11.273,5.131 10.565,5.042 9.686 C 5.016 9.434,5.000 8.012,5.000 6.063 C 5.000 2.443,5.014 2.611,4.697 2.295 C 4.433 2.031,4.059 1.943,3.689 2.059 M3.673 20.063 C 3.312 20.174,3.000 20.609,3.000 21.000 C 3.000 21.235,3.124 21.526,3.299 21.701 C 3.623 22.025,2.894 22.000,12.000 22.000 C 21.126 22.000,20.381 22.026,20.704 21.694 C 20.879 21.513,21.000 21.231,21.000 21.000 C 21.000 20.598,20.688 20.173,20.310 20.061 C 20.130 20.007,19.144 20.000,11.983 20.003 C 5.030 20.005,3.833 20.014,3.673 20.063 " fill="#1C274C" stroke="none" fill-rule="evenodd"></path></svg>