<svg width="24" height="24" viewBox="0 0 24 24" fill="none" xmlns="http://www.w3.org/2000/svg"><path d="M8.689 1.059 C 8.454 1.132,8.263 1.287,8.131 1.511 C 8.036 1.672,8.020 1.744,8.020 2.000 C 8.020 2.256,8.036 2.328,8.131 2.489 C 8.256 2.702,8.449 2.864,8.670 2.943 C 8.789 2.985,9.322 2.997,11.235 2.998 L 13.649 3.000 13.627 3.085 C 13.615 3.132,12.402 7.182,10.932 12.085 L 8.260 20.999 5.576 21.000 C 2.670 21.000,2.664 21.000,2.379 21.218 C 2.304 21.276,2.192 21.408,2.131 21.511 C 2.036 21.672,2.020 21.744,2.020 22.000 C 2.020 22.256,2.036 22.328,2.131 22.489 C 2.256 22.702,2.449 22.864,2.670 22.943 C 2.793 22.987,3.938 22.997,8.980 22.998 C 13.105 22.999,15.189 22.986,15.289 22.958 C 15.509 22.897,15.762 22.685,15.874 22.469 C 16.081 22.066,16.013 21.610,15.698 21.296 C 15.399 20.997,15.434 21.000,12.728 21.000 L 10.351 21.000 10.373 20.915 C 10.385 20.868,11.598 16.818,13.068 11.915 L 15.740 3.001 18.440 3.000 C 20.175 3.000,21.193 2.985,21.289 2.958 C 21.509 2.897,21.762 2.685,21.874 2.469 C 22.081 2.066,22.013 1.610,21.698 1.296 C 21.380 0.978,21.867 1.000,14.983 1.003 C 9.992 1.005,8.828 1.015,8.689 1.059 " fill="#1C274C" stroke="none" fill-rule="evenodd"></path></svg>