<svg width="24" height="24" viewBox="0 0 24 24" fill="none" xmlns="http://www.w3.org/2000/svg"><path d="M7.320 4.026 C 6.616 4.049,5.743 4.124,5.300 4.200 C 3.429 4.521,2.501 5.463,2.186 7.360 C 2.035 8.265,2.020 8.706,2.021 12.060 C 2.021 14.933,2.030 15.417,2.092 15.957 C 2.259 17.411,2.547 18.182,3.155 18.800 C 3.790 19.446,4.568 19.743,6.056 19.908 C 6.643 19.974,7.174 19.980,12.020 19.980 C 16.870 19.980,17.395 19.974,17.957 19.909 C 19.433 19.738,20.195 19.449,20.822 18.822 C 21.570 18.074,21.850 17.150,21.963 15.058 C 22.019 14.022,21.990 8.821,21.925 8.200 C 21.778 6.795,21.521 5.996,21.022 5.391 C 20.367 4.597,19.476 4.242,17.720 4.075 C 17.298 4.034,8.338 3.992,7.320 4.026 M11.227 7.802 C 12.004 7.907,12.526 8.387,12.680 9.137 C 12.707 9.268,12.731 9.655,12.734 9.997 C 12.740 10.609,12.738 10.623,12.631 10.806 C 12.354 11.276,11.646 11.278,11.371 10.809 C 11.271 10.638,11.262 10.583,11.242 10.033 C 11.213 9.242,11.257 9.283,10.407 9.252 L 9.760 9.228 9.760 11.994 L 9.760 14.760 10.457 14.760 C 11.200 14.760,11.312 14.781,11.494 14.953 C 11.661 15.111,11.731 15.273,11.731 15.500 C 11.731 15.807,11.540 16.095,11.267 16.197 C 11.193 16.226,10.425 16.240,9.000 16.240 C 7.575 16.240,6.807 16.226,6.733 16.197 C 6.460 16.095,6.269 15.807,6.269 15.500 C 6.269 15.273,6.339 15.111,6.506 14.953 C 6.688 14.781,6.800 14.760,7.543 14.760 L 8.240 14.760 8.240 11.994 L 8.240 9.228 7.593 9.252 C 6.743 9.283,6.787 9.242,6.758 10.033 C 6.738 10.583,6.729 10.638,6.629 10.809 C 6.354 11.278,5.646 11.276,5.369 10.806 C 5.262 10.623,5.260 10.609,5.266 9.997 C 5.272 9.305,5.319 9.006,5.472 8.681 C 5.684 8.229,6.179 7.883,6.720 7.806 C 7.093 7.754,10.844 7.750,11.227 7.802 " fill="#1C274C" stroke="none" fill-rule="evenodd"></path></svg>