<svg width="24" height="24" viewBox="0 0 24 24" fill="none" xmlns="http://www.w3.org/2000/svg"><path d="M11.120 2.039 C 9.316 2.220,7.707 2.807,6.280 3.806 C 2.696 6.315,1.150 10.849,2.462 15.000 C 2.954 16.557,3.767 17.890,4.938 19.062 C 6.528 20.651,8.440 21.596,10.740 21.928 C 11.213 21.996,12.787 21.996,13.260 21.928 C 15.135 21.657,16.725 20.987,18.200 19.845 C 18.637 19.507,19.507 18.637,19.845 18.200 C 22.092 15.297,22.619 11.564,21.254 8.220 C 20.058 5.287,17.480 3.053,14.430 2.303 C 13.446 2.062,12.028 1.948,11.120 2.039 M8.405 6.381 C 8.485 6.432,8.593 6.543,8.645 6.627 L 8.740 6.780 8.761 8.700 L 8.782 10.620 8.907 10.991 C 9.083 11.513,9.313 11.880,9.716 12.284 C 10.120 12.687,10.487 12.917,11.009 13.093 C 11.361 13.212,11.411 13.218,12.000 13.218 C 12.589 13.218,12.639 13.212,12.991 13.093 C 13.513 12.917,13.880 12.687,14.284 12.284 C 14.687 11.880,14.917 11.513,15.093 10.991 L 15.218 10.620 15.239 8.697 L 15.260 6.774 15.367 6.612 C 15.525 6.374,15.722 6.267,16.000 6.267 C 16.278 6.267,16.475 6.374,16.633 6.612 L 16.740 6.774 16.752 8.357 C 16.771 10.678,16.705 11.162,16.241 12.100 C 15.952 12.685,15.714 13.005,15.223 13.467 C 14.439 14.205,13.541 14.611,12.430 14.729 C 11.452 14.833,10.360 14.574,9.490 14.031 C 9.096 13.785,8.489 13.229,8.199 12.847 C 7.921 12.481,7.544 11.702,7.421 11.240 C 7.265 10.652,7.233 10.135,7.247 8.380 C 7.260 6.786,7.260 6.779,7.353 6.631 C 7.586 6.256,8.044 6.147,8.405 6.381 M16.373 16.355 C 16.615 16.506,16.733 16.718,16.733 17.003 C 16.733 17.203,16.714 17.270,16.616 17.409 C 16.552 17.501,16.436 17.613,16.359 17.658 C 16.221 17.739,16.181 17.740,12.000 17.740 C 7.819 17.740,7.779 17.739,7.641 17.658 C 7.564 17.613,7.448 17.501,7.384 17.409 C 7.098 17.003,7.330 16.395,7.815 16.278 C 7.884 16.261,9.803 16.250,12.080 16.254 L 16.220 16.260 16.373 16.355 " fill="#1C274C" stroke="none" fill-rule="evenodd"></path></svg>