<svg width="24" height="24" viewBox="0 0 24 24" fill="none" xmlns="http://www.w3.org/2000/svg"><path d="M8.440 2.043 C 5.815 2.137,4.484 2.504,3.549 3.393 C 2.549 4.344,2.163 5.596,2.041 8.280 C 1.989 9.450,1.989 14.605,2.041 15.740 C 2.160 18.285,2.507 19.501,3.379 20.433 C 4.323 21.444,5.571 21.833,8.260 21.959 C 9.399 22.012,14.601 22.012,15.740 21.959 C 18.285 21.840,19.501 21.493,20.433 20.621 C 21.360 19.755,21.742 18.682,21.927 16.420 C 21.966 15.951,21.980 14.772,21.980 12.000 C 21.980 8.151,21.964 7.600,21.816 6.500 C 21.584 4.775,20.991 3.670,19.928 2.982 C 18.975 2.366,17.835 2.129,15.393 2.041 C 14.150 1.996,9.732 1.997,8.440 2.043 M8.405 6.381 C 8.485 6.432,8.593 6.543,8.645 6.627 L 8.740 6.780 8.761 8.700 L 8.782 10.620 8.907 10.991 C 9.083 11.513,9.313 11.880,9.716 12.284 C 10.120 12.687,10.487 12.917,11.009 13.093 C 11.361 13.212,11.411 13.218,12.000 13.218 C 12.589 13.218,12.639 13.212,12.991 13.093 C 13.513 12.917,13.880 12.687,14.284 12.284 C 14.687 11.880,14.917 11.513,15.093 10.991 L 15.218 10.620 15.239 8.697 L 15.260 6.774 15.367 6.612 C 15.525 6.374,15.722 6.267,16.000 6.267 C 16.278 6.267,16.475 6.374,16.633 6.612 L 16.740 6.774 16.752 8.357 C 16.771 10.678,16.705 11.162,16.241 12.100 C 15.952 12.685,15.714 13.005,15.223 13.467 C 14.439 14.205,13.541 14.611,12.430 14.729 C 11.452 14.833,10.360 14.574,9.490 14.031 C 9.096 13.785,8.489 13.229,8.199 12.847 C 7.921 12.481,7.544 11.702,7.421 11.240 C 7.265 10.652,7.233 10.135,7.247 8.380 C 7.260 6.786,7.260 6.779,7.353 6.631 C 7.586 6.256,8.044 6.147,8.405 6.381 M16.373 16.355 C 16.615 16.506,16.733 16.718,16.733 17.003 C 16.733 17.203,16.714 17.270,16.616 17.409 C 16.552 17.501,16.436 17.613,16.359 17.658 C 16.221 17.739,16.181 17.740,12.000 17.740 C 7.819 17.740,7.779 17.739,7.641 17.658 C 7.564 17.613,7.448 17.501,7.384 17.409 C 7.098 17.003,7.330 16.395,7.815 16.278 C 7.884 16.261,9.803 16.250,12.080 16.254 L 16.220 16.260 16.373 16.355 " fill="#1C274C" stroke="none" fill-rule="evenodd"></path></svg>