<svg width="24" height="24" viewBox="0 0 24 24" fill="none" xmlns="http://www.w3.org/2000/svg"><path d="M11.120 2.039 C 9.316 2.220,7.707 2.807,6.280 3.806 C 2.696 6.315,1.150 10.849,2.462 15.000 C 2.954 16.557,3.767 17.890,4.938 19.062 C 6.528 20.651,8.440 21.596,10.740 21.928 C 11.213 21.996,12.787 21.996,13.260 21.928 C 15.135 21.657,16.725 20.987,18.200 19.845 C 18.637 19.507,19.507 18.637,19.845 18.200 C 22.092 15.297,22.619 11.564,21.254 8.220 C 20.058 5.287,17.480 3.053,14.430 2.303 C 13.446 2.062,12.028 1.948,11.120 2.039 M15.397 6.335 C 15.905 6.468,16.283 6.755,16.490 7.164 C 16.683 7.545,16.728 7.875,16.734 8.960 C 16.740 9.936,16.740 9.941,16.640 10.114 C 16.355 10.612,15.644 10.612,15.360 10.114 C 15.263 9.945,15.260 9.913,15.240 8.931 C 15.222 8.033,15.212 7.915,15.149 7.851 C 15.084 7.787,14.967 7.779,13.919 7.767 L 12.760 7.755 12.760 11.995 L 12.760 16.235 13.993 16.247 L 15.226 16.260 15.388 16.367 C 15.628 16.526,15.733 16.721,15.733 17.007 C 15.733 17.203,15.714 17.271,15.616 17.409 C 15.552 17.501,15.436 17.613,15.359 17.658 C 15.223 17.738,15.160 17.740,12.302 17.751 L 9.385 17.762 9.182 17.662 C 8.622 17.385,8.618 16.634,9.176 16.328 C 9.281 16.270,9.449 16.258,10.270 16.247 L 11.240 16.234 11.240 11.994 L 11.240 7.755 10.081 7.767 C 9.033 7.779,8.916 7.787,8.851 7.851 C 8.788 7.915,8.778 8.033,8.760 8.931 C 8.740 9.913,8.737 9.945,8.640 10.114 C 8.357 10.611,7.656 10.614,7.366 10.120 C 7.268 9.953,7.260 9.900,7.246 9.380 C 7.228 8.639,7.295 7.768,7.396 7.443 C 7.557 6.926,7.963 6.524,8.475 6.373 C 8.853 6.262,9.312 6.248,12.280 6.258 C 14.804 6.267,15.170 6.276,15.397 6.335 " fill="#1C274C" stroke="none" fill-rule="evenodd"></path></svg>