<svg width="64" height="284" viewBox="0 0 64 284" fill="none" xmlns="http://www.w3.org/2000/svg"><path d="M4.126 0.117 C 3.231 0.248,2.251 0.770,1.510 1.510 C 0.376 2.644,0.007 3.758,0.002 6.053 L 0.000 7.147 0.480 7.147 L 0.960 7.147 0.960 5.925 C 0.960 4.587,1.089 3.793,1.407 3.163 C 1.693 2.598,2.400 1.853,2.965 1.523 C 3.867 0.994,4.240 0.963,9.787 0.962 L 14.933 0.960 14.933 0.480 L 14.933 0.000 9.840 0.013 C 7.039 0.020,4.467 0.067,4.126 0.117 M20.053 0.480 L 20.053 0.960 25.013 0.960 L 29.973 0.960 29.973 0.480 L 29.973 0.000 25.013 0.000 L 20.053 0.000 20.053 0.480 M35.093 0.480 L 35.093 0.960 40.053 0.960 L 45.013 0.960 45.013 0.480 L 45.013 0.000 40.053 0.000 L 35.093 0.000 35.093 0.480 M50.027 0.472 L 50.027 0.960 54.765 0.960 C 57.370 0.960,59.576 0.988,59.665 1.022 C 59.785 1.068,59.858 0.968,59.947 0.638 C 60.013 0.393,60.036 0.161,59.998 0.123 C 59.960 0.084,57.701 0.038,54.978 0.019 L 50.027 -0.015 50.027 0.472 M63.163 4.023 C 62.966 4.061,62.926 4.120,62.975 4.302 C 63.009 4.429,63.038 6.633,63.039 9.200 L 63.040 13.867 63.520 13.867 L 64.000 13.867 64.000 9.562 C 64.000 7.195,63.969 4.963,63.931 4.602 C 63.858 3.899,63.849 3.893,63.163 4.023 M0.000 17.227 L 0.000 22.187 0.480 22.187 L 0.960 22.187 0.960 17.227 L 0.960 12.267 0.480 12.267 L 0.000 12.267 0.000 17.227 M63.040 23.947 L 63.040 28.907 63.520 28.907 L 64.000 28.907 64.000 23.947 L 64.000 18.987 63.520 18.987 L 63.040 18.987 63.040 23.947 M28.267 21.339 C 25.502 21.462,24.132 21.869,23.040 22.890 C 22.397 23.491,21.829 24.578,21.594 25.653 C 21.128 27.793,21.160 36.674,21.640 38.523 C 22.195 40.656,23.345 41.809,25.460 42.353 C 27.604 42.905,36.396 42.905,38.540 42.353 C 40.693 41.799,41.927 40.517,42.406 38.337 C 42.502 37.901,42.616 36.466,42.685 34.818 C 42.815 31.748,42.783 31.516,42.213 31.315 C 41.977 31.232,41.862 31.255,41.626 31.431 L 41.333 31.649 41.253 34.251 C 41.209 35.712,41.105 37.219,41.018 37.687 C 40.633 39.749,39.796 40.591,37.690 41.037 C 36.448 41.299,27.552 41.299,26.310 41.037 C 24.211 40.593,23.404 39.785,22.965 37.690 C 22.705 36.450,22.705 27.550,22.965 26.310 C 23.408 24.193,24.247 23.369,26.376 22.960 C 27.663 22.713,36.337 22.713,37.624 22.960 C 39.248 23.272,40.114 23.844,40.614 24.936 C 40.890 25.540,41.164 26.853,41.170 27.607 C 41.173 28.070,41.318 28.466,41.536 28.612 C 41.601 28.655,41.808 28.691,41.998 28.692 C 42.568 28.694,42.712 28.351,42.625 27.199 C 42.377 23.924,41.032 22.182,38.293 21.595 C 36.841 21.284,32.194 21.165,28.267 21.339 M28.856 25.358 C 28.318 25.495,27.632 26.146,27.407 26.734 C 27.328 26.941,27.291 28.709,27.291 32.186 L 27.292 37.332 27.538 37.770 C 27.681 38.023,27.973 38.318,28.231 38.469 C 28.676 38.730,28.680 38.730,31.325 38.699 C 33.922 38.667,33.985 38.661,34.560 38.390 C 35.274 38.053,35.978 37.367,36.348 36.645 C 36.745 35.871,36.807 34.539,36.484 33.685 C 36.238 33.032,35.472 32.091,34.980 31.836 L 34.680 31.681 35.045 31.139 C 35.918 29.843,35.955 28.305,35.144 27.040 C 34.621 26.224,33.887 25.664,33.001 25.407 C 32.571 25.283,29.307 25.244,28.856 25.358 M32.907 26.976 C 33.141 27.084,33.463 27.311,33.621 27.480 C 34.677 28.606,34.318 30.398,32.907 31.051 C 32.543 31.220,32.201 31.249,30.578 31.251 L 28.677 31.253 28.712 29.217 C 28.756 26.610,28.613 26.772,30.865 26.776 C 32.209 26.778,32.552 26.811,32.907 26.976 M0.000 32.160 L 0.000 37.120 0.480 37.120 L 0.960 37.120 0.960 32.160 L 0.960 27.200 0.480 27.200 L 0.000 27.200 0.000 32.160 M33.867 32.947 C 35.503 33.698,35.716 35.824,34.258 36.849 L 33.796 37.173 31.381 37.206 C 29.183 37.235,28.953 37.222,28.830 37.052 C 28.730 36.916,28.693 36.309,28.693 34.806 L 28.693 32.747 31.067 32.749 C 33.139 32.751,33.494 32.776,33.867 32.947 M63.040 38.987 L 63.040 43.947 63.520 43.947 L 64.000 43.947 64.000 38.987 L 64.000 34.027 63.520 34.027 L 63.040 34.027 63.040 38.987 M0.000 47.200 L 0.000 52.160 0.480 52.160 L 0.960 52.160 0.960 47.200 L 0.960 42.240 0.480 42.240 L 0.000 42.240 0.000 47.200 M63.040 53.920 L 63.040 58.880 63.520 58.880 L 64.000 58.880 64.000 53.920 L 64.000 48.960 63.520 48.960 L 63.040 48.960 63.040 53.920 M0.000 62.187 L 0.000 67.200 0.480 67.200 L 0.960 67.200 0.960 62.187 L 0.960 57.173 0.480 57.173 L 0.000 57.173 0.000 62.187 M63.040 68.960 L 63.040 73.920 63.520 73.920 L 64.000 73.920 64.000 68.960 L 64.000 64.000 63.520 64.000 L 63.040 64.000 63.040 68.960 M29.120 69.327 C 28.325 69.487,27.764 69.939,27.462 70.661 C 27.309 71.029,27.288 71.697,27.290 76.224 C 27.292 81.874,27.274 81.711,27.948 82.278 C 28.504 82.746,28.887 82.798,31.472 82.755 C 33.848 82.716,33.872 82.714,34.538 82.408 C 35.389 82.018,36.161 81.198,36.483 80.346 C 36.806 79.489,36.746 78.157,36.350 77.387 C 36.051 76.806,35.453 76.139,34.965 75.843 L 34.657 75.655 34.930 75.330 C 35.471 74.687,35.674 74.058,35.675 73.013 C 35.676 72.202,35.634 71.962,35.402 71.467 C 34.860 70.312,33.775 69.526,32.457 69.336 C 31.641 69.218,29.686 69.212,29.120 69.327 M33.096 71.073 C 33.812 71.493,34.168 72.071,34.217 72.892 C 34.269 73.748,33.961 74.363,33.235 74.853 L 32.723 75.200 30.708 75.200 L 28.693 75.200 28.695 73.360 C 28.697 70.689,28.692 70.695,31.040 70.743 C 32.514 70.773,32.611 70.788,33.096 71.073 M0.000 77.173 L 0.000 82.133 0.480 82.133 L 0.960 82.133 0.960 77.173 L 0.960 72.213 0.480 72.213 L 0.000 72.213 0.000 77.173 M33.895 76.965 C 35.685 77.713,35.668 80.242,33.867 81.077 C 33.494 81.250,33.154 81.276,31.171 81.278 L 28.901 81.280 28.797 81.006 C 28.740 80.856,28.693 79.848,28.693 78.766 L 28.693 76.800 31.097 76.800 C 33.025 76.800,33.578 76.833,33.895 76.965 M63.040 84.000 L 63.040 88.960 63.520 88.960 L 64.000 88.960 64.000 84.000 L 64.000 79.040 63.520 79.040 L 63.040 79.040 63.040 84.000 M0.000 92.213 L 0.000 97.173 0.480 97.173 L 0.960 97.173 0.960 92.213 L 0.960 87.253 0.480 87.253 L 0.000 87.253 0.000 92.213 M63.040 98.933 L 63.040 103.893 63.520 103.893 L 64.000 103.893 64.000 98.933 L 64.000 93.973 63.520 93.973 L 63.040 93.973 63.040 98.933 M0.000 107.147 L 0.000 112.107 0.480 112.107 L 0.960 112.107 0.960 107.147 L 0.960 102.187 0.480 102.187 L 0.000 102.187 0.000 107.147 M63.040 113.973 L 63.040 118.933 63.520 118.933 L 64.000 118.933 64.000 113.973 L 64.000 109.013 63.520 109.013 L 63.040 109.013 63.040 113.973 M26.613 109.454 C 23.730 109.818,22.164 111.131,21.601 113.655 C 21.129 115.772,21.156 124.661,21.640 126.522 C 22.277 128.971,23.620 130.114,26.400 130.573 C 27.573 130.767,36.399 130.774,37.547 130.582 C 40.386 130.107,41.721 128.981,42.360 126.522 C 42.842 124.667,42.869 115.768,42.399 113.655 C 41.827 111.087,40.281 109.817,37.280 109.451 C 36.141 109.312,27.722 109.315,26.613 109.454 M37.265 110.937 C 39.657 111.272,40.610 112.144,41.044 114.396 C 41.271 115.574,41.298 124.223,41.079 125.440 C 40.772 127.141,40.283 127.976,39.282 128.510 C 38.027 129.178,37.535 129.227,32.000 129.227 C 26.465 129.227,25.973 129.178,24.718 128.510 C 23.717 127.976,23.227 127.139,22.922 125.440 C 22.720 124.314,22.719 115.828,22.921 114.614 C 23.291 112.388,24.077 111.504,26.114 111.027 C 27.344 110.739,35.383 110.674,37.265 110.937 M28.640 113.475 C 28.405 113.586,28.075 113.815,27.905 113.985 C 27.284 114.606,27.289 114.557,27.291 120.173 C 27.292 125.920,27.278 125.804,28.033 126.379 L 28.410 126.667 31.245 126.667 C 34.057 126.667,34.084 126.665,34.607 126.400 C 35.283 126.057,36.036 125.302,36.368 124.633 C 36.746 123.871,36.801 122.524,36.487 121.691 C 36.237 121.029,35.607 120.243,35.047 119.898 L 34.686 119.675 35.090 119.064 C 36.340 117.169,35.662 114.688,33.618 113.681 L 32.912 113.333 30.989 113.304 C 29.289 113.278,29.017 113.297,28.640 113.475 M32.907 114.976 C 33.141 115.084,33.463 115.311,33.621 115.480 C 34.677 116.606,34.318 118.398,32.907 119.051 C 32.543 119.220,32.202 119.249,30.587 119.251 L 28.693 119.253 28.693 117.447 C 28.693 116.453,28.743 115.505,28.805 115.340 C 29.001 114.811,29.141 114.773,30.874 114.776 C 32.209 114.778,32.552 114.811,32.907 114.976 M0.000 122.187 L 0.000 127.147 0.480 127.147 L 0.960 127.147 0.960 122.187 L 0.960 117.227 0.480 117.227 L 0.000 117.227 0.000 122.187 M33.638 120.862 C 34.171 121.010,34.940 121.723,35.105 122.222 C 35.386 123.071,35.147 124.106,34.544 124.654 C 33.916 125.225,33.691 125.271,31.344 125.314 C 28.462 125.367,28.693 125.578,28.693 122.898 C 28.693 121.793,28.725 120.857,28.764 120.818 C 28.883 120.700,33.194 120.739,33.638 120.862 M63.040 129.013 L 63.040 133.973 63.520 133.973 L 64.000 133.973 64.000 129.013 L 64.000 124.053 63.520 124.053 L 63.040 124.053 63.040 129.013 M0.000 137.227 L 0.000 142.187 0.480 142.187 L 0.960 142.187 0.960 137.227 L 0.960 132.267 0.480 132.267 L 0.000 132.267 0.000 137.227 M63.040 143.947 L 63.040 148.907 63.520 148.907 L 64.000 148.907 64.000 143.947 L 64.000 138.987 63.520 138.987 L 63.040 138.987 63.040 143.947 M0.000 152.160 L 0.000 157.120 0.480 157.120 L 0.960 157.120 0.960 152.160 L 0.960 147.200 0.480 147.200 L 0.000 147.200 0.000 152.160 M27.301 153.394 C 23.873 153.678,22.151 154.962,21.593 157.650 C 21.086 160.089,21.122 168.546,21.647 170.593 C 22.210 172.785,23.462 173.967,25.760 174.477 C 26.516 174.645,27.231 174.667,32.000 174.667 C 36.769 174.667,37.484 174.645,38.240 174.477 C 40.538 173.967,41.790 172.785,42.353 170.593 C 42.911 168.417,42.907 159.769,42.346 157.450 C 41.702 154.791,40.107 153.681,36.509 153.389 C 34.977 153.264,28.824 153.268,27.301 153.394 M63.040 158.987 L 63.040 163.947 63.520 163.947 L 64.000 163.947 64.000 158.987 L 64.000 154.027 63.520 154.027 L 63.040 154.027 63.040 158.987 M36.714 154.882 C 38.670 155.067,39.767 155.544,40.386 156.480 C 41.115 157.582,41.334 159.784,41.248 165.173 C 41.169 170.113,41.010 170.960,39.958 172.012 C 38.847 173.123,37.932 173.267,32.000 173.267 C 26.068 173.267,25.153 173.123,24.042 172.012 C 22.990 170.960,22.831 170.113,22.752 165.173 C 22.666 159.784,22.885 157.582,23.614 156.480 C 24.207 155.584,25.364 155.057,27.105 154.889 C 28.425 154.761,35.392 154.756,36.714 154.882 M28.533 157.535 C 28.017 157.773,27.692 158.111,27.472 158.638 C 27.330 158.976,27.307 159.781,27.307 164.237 C 27.308 170.079,27.267 169.766,28.116 170.414 L 28.516 170.720 30.967 170.752 C 33.218 170.782,33.479 170.766,34.167 170.557 C 34.811 170.361,35.010 170.236,35.575 169.671 C 36.397 168.848,36.695 168.139,36.691 167.009 C 36.687 165.752,36.129 164.652,35.166 164.003 L 34.695 163.686 35.055 163.163 C 36.128 161.604,35.897 159.583,34.502 158.307 C 33.570 157.456,33.107 157.333,30.849 157.336 C 29.241 157.338,28.897 157.367,28.533 157.535 M33.017 159.047 C 34.429 159.773,34.671 161.687,33.480 162.706 C 32.865 163.233,32.409 163.320,30.453 163.285 L 28.747 163.253 28.720 161.387 C 28.682 158.697,28.685 158.693,30.991 158.743 C 32.352 158.772,32.538 158.800,33.017 159.047 M0.000 167.200 L 0.000 172.160 0.480 172.160 L 0.960 172.160 0.960 167.200 L 0.960 162.240 0.480 162.240 L 0.000 162.240 0.000 167.200 M34.216 165.144 C 35.586 166.052,35.572 168.050,34.190 168.906 L 33.671 169.227 31.288 169.259 L 28.906 169.291 28.800 169.012 C 28.741 168.858,28.693 167.845,28.693 166.761 L 28.693 164.789 31.235 164.821 L 33.776 164.853 34.216 165.144 M63.040 174.027 L 63.040 178.987 63.520 178.987 L 64.000 178.987 64.000 174.027 L 64.000 169.067 63.520 169.067 L 63.040 169.067 63.040 174.027 M0.000 182.240 L 0.000 187.200 0.480 187.200 L 0.960 187.200 0.960 182.240 L 0.960 177.280 0.480 177.280 L 0.000 177.280 0.000 182.240 M63.040 188.960 L 63.040 193.920 63.520 193.920 L 64.000 193.920 64.000 188.960 L 64.000 184.000 63.520 184.000 L 63.040 184.000 63.040 188.960 M0.000 197.173 L 0.000 202.133 0.480 202.133 L 0.960 202.133 0.960 197.173 L 0.960 192.213 0.480 192.213 L 0.000 192.213 0.000 197.173 M26.773 198.199 C 23.900 198.528,22.580 199.799,22.188 202.613 C 21.869 204.909,21.976 212.839,22.348 214.390 C 22.817 216.344,23.912 217.337,26.084 217.779 C 26.928 217.950,27.623 217.973,32.000 217.973 C 36.377 217.973,37.072 217.950,37.916 217.779 C 40.081 217.339,41.186 216.333,41.655 214.375 C 42.024 212.838,42.130 204.897,41.812 202.613 C 41.412 199.740,40.111 198.528,37.067 198.189 C 35.918 198.061,27.911 198.069,26.773 198.199 M63.040 204.000 L 63.040 208.960 63.520 208.960 L 64.000 208.960 64.000 204.000 L 64.000 199.040 63.520 199.040 L 63.040 199.040 63.040 204.000 M33.506 201.614 C 34.320 201.996,34.886 202.534,35.308 203.326 C 35.957 204.543,35.849 206.134,35.044 207.187 L 34.677 207.669 35.042 207.895 C 35.606 208.243,36.236 209.026,36.487 209.691 C 37.180 211.528,36.369 213.543,34.582 214.423 L 33.872 214.773 31.518 214.810 C 28.959 214.850,28.489 214.787,27.948 214.331 C 27.238 213.734,27.257 213.888,27.219 208.533 C 27.179 203.051,27.204 202.793,27.823 202.106 C 28.512 201.342,28.789 201.272,30.987 201.305 C 32.807 201.332,32.938 201.348,33.506 201.614 M29.081 202.994 L 28.800 203.215 28.800 205.234 L 28.800 207.253 30.640 207.251 C 32.203 207.249,32.544 207.219,32.907 207.051 C 34.356 206.380,34.682 204.596,33.559 203.474 C 32.977 202.892,32.501 202.773,30.740 202.773 C 29.508 202.773,29.332 202.797,29.081 202.994 M0.000 212.213 L 0.000 217.173 0.480 217.173 L 0.960 217.173 0.960 212.213 L 0.960 207.253 0.480 207.253 L 0.000 207.253 0.000 212.213 M28.824 211.013 L 28.853 213.173 31.227 213.202 C 33.392 213.228,33.636 213.213,34.000 213.026 C 34.770 212.631,35.200 211.919,35.200 211.040 C 35.200 210.162,34.770 209.449,34.004 209.056 C 33.650 208.874,33.358 208.853,31.202 208.853 L 28.796 208.853 28.824 211.013 M63.040 218.933 L 63.040 223.893 63.520 223.893 L 64.000 223.893 64.000 218.933 L 64.000 213.973 63.520 213.973 L 63.040 213.973 63.040 218.933 M0.000 227.253 L 0.000 232.213 0.480 232.213 L 0.960 232.213 0.960 227.253 L 0.960 222.293 0.480 222.293 L 0.000 222.293 0.000 227.253 M63.040 233.973 L 63.040 238.933 63.520 238.933 L 64.000 238.933 64.000 233.973 L 64.000 229.013 63.520 229.013 L 63.040 229.013 63.040 233.973 M0.000 242.187 L 0.000 247.147 0.480 247.147 L 0.960 247.147 0.960 242.187 L 0.960 237.227 0.480 237.227 L 0.000 237.227 0.000 242.187 M63.040 249.013 L 63.040 253.973 63.520 253.973 L 64.000 253.973 64.000 249.013 L 64.000 244.053 63.520 244.053 L 63.040 244.053 63.040 249.013 M0.000 257.227 L 0.000 262.187 0.480 262.187 L 0.960 262.187 0.960 257.227 L 0.960 252.267 0.480 252.267 L 0.000 252.267 0.000 257.227 M63.040 263.947 L 63.040 268.907 63.520 268.907 L 64.000 268.907 64.000 263.947 L 64.000 258.987 63.520 258.987 L 63.040 258.987 63.040 263.947 M0.000 272.267 L 0.000 277.227 0.480 277.227 L 0.960 277.227 0.960 272.267 L 0.960 267.307 0.480 267.307 L 0.000 267.307 0.000 272.267 M63.021 277.040 L 62.987 280.053 62.643 280.756 C 62.325 281.405,61.606 282.209,61.073 282.511 C 60.864 282.629,60.896 282.878,61.167 283.234 C 61.301 283.411,61.342 283.414,61.617 283.272 C 62.166 282.988,63.039 281.997,63.418 281.227 C 63.906 280.235,63.995 279.509,63.998 276.507 L 64.000 274.027 63.527 274.027 L 63.055 274.027 63.021 277.040 M1.592 282.002 L 1.249 282.309 1.718 282.761 C 1.976 283.009,2.499 283.366,2.880 283.553 L 3.573 283.893 7.333 283.925 L 11.093 283.957 11.093 283.532 L 11.093 283.106 7.547 283.073 L 4.000 283.040 3.401 282.759 C 3.071 282.604,2.606 282.302,2.368 282.087 L 1.935 281.696 1.592 282.002 M16.107 283.520 L 16.107 283.947 21.067 283.947 L 26.027 283.947 26.027 283.520 L 26.027 283.093 21.067 283.093 L 16.107 283.093 16.107 283.520 M31.147 283.520 L 31.147 283.947 36.107 283.947 L 41.067 283.947 41.067 283.520 L 41.067 283.093 36.107 283.093 L 31.147 283.093 31.147 283.520 M46.187 283.520 L 46.187 283.947 51.147 283.947 L 56.107 283.947 56.107 283.520 L 56.107 283.093 51.147 283.093 L 46.187 283.093 46.187 283.520 " stroke="none" fill-rule="evenodd" fill="black"></path></svg>