<svg width="24" height="24" viewBox="0 0 24 24" fill="none" xmlns="http://www.w3.org/2000/svg"><path d="M6.137 2.041 C 4.957 2.123,4.230 2.438,3.693 3.099 C 3.396 3.464,3.208 3.927,3.096 4.567 C 2.998 5.125,2.964 7.998,3.053 8.257 C 3.141 8.515,3.288 8.690,3.530 8.823 C 4.066 9.119,4.752 8.850,4.940 8.269 C 4.981 8.143,5.000 7.719,5.013 6.600 C 5.024 5.739,5.051 4.992,5.078 4.845 C 5.137 4.512,5.250 4.298,5.410 4.214 C 5.728 4.047,5.955 4.032,8.530 4.012 L 11.000 3.992 11.000 11.996 L 11.000 20.000 8.947 20.000 C 6.595 20.000,6.608 19.998,6.303 20.303 C 6.120 20.486,6.000 20.763,6.000 21.000 C 6.000 21.402,6.312 21.827,6.690 21.939 C 6.868 21.992,7.546 22.000,12.000 22.000 C 16.454 22.000,17.132 21.992,17.310 21.939 C 17.688 21.827,18.000 21.402,18.000 21.000 C 18.000 20.763,17.880 20.486,17.697 20.303 C 17.392 19.998,17.405 20.000,15.053 20.000 L 13.000 20.000 13.000 11.996 L 13.000 3.992 15.470 4.012 C 17.405 4.027,17.996 4.044,18.200 4.088 C 18.919 4.246,18.956 4.363,18.985 6.580 C 19.000 7.710,19.019 8.143,19.060 8.269 C 19.248 8.849,19.934 9.119,20.470 8.823 C 20.712 8.690,20.859 8.515,20.947 8.257 C 21.036 7.998,21.002 5.125,20.904 4.567 C 20.642 3.075,19.894 2.354,18.320 2.075 C 18.015 2.022,6.868 1.990,6.137 2.041 " fill="#1C274C" stroke="none" fill-rule="evenodd"></path></svg>