<svg width="24" height="24" viewBox="0 0 24 24" fill="none" xmlns="http://www.w3.org/2000/svg"><path d="M14.811 1.278 C 14.639 1.320,14.417 1.493,14.330 1.652 C 14.264 1.773,14.259 2.352,14.250 11.915 C 14.242 19.210,14.252 22.095,14.284 22.213 C 14.342 22.431,14.574 22.659,14.798 22.719 C 15.198 22.827,15.610 22.599,15.718 22.209 C 15.742 22.124,15.760 21.617,15.760 21.036 L 15.760 20.012 16.590 19.984 C 18.962 19.904,20.034 19.610,20.822 18.822 C 21.559 18.085,21.845 17.158,21.960 15.140 C 22.010 14.259,22.010 9.741,21.960 8.860 C 21.828 6.540,21.428 5.514,20.388 4.825 C 19.553 4.272,18.758 4.112,16.352 4.016 L 15.765 3.992 15.752 2.886 C 15.741 1.856,15.734 1.770,15.658 1.641 C 15.494 1.361,15.122 1.202,14.811 1.278 M7.000 4.042 C 5.261 4.116,4.375 4.320,3.617 4.822 C 2.947 5.265,2.534 5.897,2.303 6.829 C 2.054 7.832,2.020 8.448,2.020 12.000 C 2.020 15.552,2.054 16.168,2.303 17.171 C 2.423 17.655,2.558 17.981,2.784 18.330 C 3.032 18.714,3.247 18.933,3.617 19.178 C 4.011 19.439,4.317 19.570,4.829 19.698 C 5.771 19.932,6.332 19.964,9.870 19.988 L 13.000 20.009 13.000 12.005 L 13.000 4.000 10.350 4.006 C 8.893 4.010,7.385 4.026,7.000 4.042 M11.371 7.819 C 11.726 7.894,12.087 8.090,12.287 8.317 C 12.620 8.694,12.714 9.015,12.748 9.887 C 12.772 10.512,12.772 10.515,12.663 10.737 C 12.403 11.269,11.711 11.318,11.371 10.827 C 11.266 10.675,11.260 10.643,11.240 10.055 C 11.213 9.239,11.260 9.283,10.407 9.252 L 9.760 9.228 9.760 11.994 L 9.760 14.760 10.457 14.760 C 10.853 14.760,11.204 14.778,11.267 14.803 C 11.516 14.897,11.757 15.239,11.759 15.502 C 11.760 15.687,11.582 16.006,11.414 16.120 L 11.266 16.220 9.000 16.220 L 6.734 16.220 6.586 16.120 C 6.418 16.006,6.240 15.687,6.241 15.502 C 6.243 15.239,6.484 14.897,6.733 14.803 C 6.796 14.778,7.147 14.760,7.543 14.760 L 8.240 14.760 8.240 11.994 L 8.240 9.228 7.593 9.252 C 6.744 9.283,6.788 9.243,6.757 10.031 C 6.745 10.355,6.714 10.665,6.689 10.720 C 6.443 11.261,5.712 11.320,5.371 10.826 C 5.260 10.666,5.260 10.666,5.263 9.983 C 5.265 9.268,5.313 8.966,5.475 8.650 C 5.681 8.248,6.120 7.927,6.611 7.821 C 6.984 7.739,10.989 7.738,11.371 7.819 " fill="#1C274C" stroke="none" fill-rule="evenodd"></path></svg>