<svg width="64" height="284" viewBox="0 0 64 284" fill="none" xmlns="http://www.w3.org/2000/svg"><path d="M4.126 0.117 C 3.231 0.248,2.251 0.770,1.510 1.510 C 0.376 2.644,0.007 3.758,0.002 6.053 L 0.000 7.147 0.480 7.147 L 0.960 7.147 0.960 5.925 C 0.960 4.587,1.089 3.793,1.407 3.163 C 1.693 2.598,2.400 1.853,2.965 1.523 C 3.867 0.994,4.240 0.963,9.787 0.962 L 14.933 0.960 14.933 0.480 L 14.933 0.000 9.840 0.013 C 7.039 0.020,4.467 0.067,4.126 0.117 M20.053 0.480 L 20.053 0.960 25.013 0.960 L 29.973 0.960 29.973 0.480 L 29.973 0.000 25.013 0.000 L 20.053 0.000 20.053 0.480 M35.093 0.480 L 35.093 0.960 40.053 0.960 L 45.013 0.960 45.013 0.480 L 45.013 0.000 40.053 0.000 L 35.093 0.000 35.093 0.480 M50.027 0.472 L 50.027 0.960 54.765 0.960 C 57.370 0.960,59.576 0.988,59.665 1.022 C 59.785 1.068,59.858 0.968,59.947 0.638 C 60.013 0.393,60.036 0.161,59.998 0.123 C 59.960 0.084,57.701 0.038,54.978 0.019 L 50.027 -0.015 50.027 0.472 M63.163 4.023 C 62.966 4.061,62.926 4.120,62.975 4.302 C 63.009 4.429,63.038 6.633,63.039 9.200 L 63.040 13.867 63.520 13.867 L 64.000 13.867 64.000 9.562 C 64.000 7.195,63.969 4.963,63.931 4.602 C 63.858 3.899,63.849 3.893,63.163 4.023 M0.000 17.227 L 0.000 22.187 0.480 22.187 L 0.960 22.187 0.960 17.227 L 0.960 12.267 0.480 12.267 L 0.000 12.267 0.000 17.227 M63.040 23.947 L 63.040 28.907 63.520 28.907 L 64.000 28.907 64.000 23.947 L 64.000 18.987 63.520 18.987 L 63.040 18.987 63.040 23.947 M31.307 21.298 C 29.465 21.416,26.822 22.328,26.384 22.995 C 26.155 23.345,26.284 23.767,26.690 23.995 C 26.958 24.145,27.018 24.136,27.595 23.853 C 29.155 23.087,30.414 22.788,32.053 22.791 C 36.271 22.799,39.876 25.595,40.949 29.692 C 42.065 33.952,39.944 38.470,35.937 40.369 C 34.595 41.005,33.648 41.206,32.000 41.206 C 30.856 41.206,30.384 41.158,29.707 40.975 C 25.246 39.765,22.315 35.555,22.818 31.080 C 22.967 29.760,23.139 29.145,23.701 27.930 C 24.096 27.077,24.117 26.984,23.984 26.706 C 23.904 26.540,23.711 26.360,23.555 26.305 C 22.988 26.106,22.516 26.697,21.922 28.350 C 20.327 32.789,21.806 37.774,25.547 40.569 C 29.392 43.441,34.587 43.437,38.462 40.559 C 42.312 37.699,43.757 32.444,41.930 27.955 C 40.762 25.083,38.369 22.836,35.408 21.829 C 34.274 21.444,32.535 21.218,31.307 21.298 M28.856 25.358 C 28.318 25.495,27.632 26.146,27.407 26.734 C 27.328 26.941,27.291 28.709,27.291 32.186 L 27.292 37.332 27.538 37.770 C 27.681 38.023,27.973 38.318,28.231 38.469 C 28.676 38.730,28.680 38.730,31.325 38.699 C 33.922 38.667,33.985 38.661,34.560 38.390 C 35.274 38.053,35.978 37.367,36.348 36.645 C 36.745 35.871,36.807 34.539,36.484 33.685 C 36.238 33.032,35.472 32.091,34.980 31.836 L 34.680 31.681 35.045 31.139 C 35.918 29.843,35.955 28.305,35.144 27.040 C 34.621 26.224,33.887 25.664,33.001 25.407 C 32.571 25.283,29.307 25.244,28.856 25.358 M32.907 26.976 C 33.141 27.084,33.463 27.311,33.621 27.480 C 34.677 28.606,34.318 30.398,32.907 31.051 C 32.543 31.220,32.201 31.249,30.578 31.251 L 28.677 31.253 28.712 29.217 C 28.756 26.610,28.613 26.772,30.865 26.776 C 32.209 26.778,32.552 26.811,32.907 26.976 M0.000 32.160 L 0.000 37.120 0.480 37.120 L 0.960 37.120 0.960 32.160 L 0.960 27.200 0.480 27.200 L 0.000 27.200 0.000 32.160 M33.867 32.947 C 35.503 33.698,35.716 35.824,34.258 36.849 L 33.796 37.173 31.381 37.206 C 29.183 37.235,28.953 37.222,28.830 37.052 C 28.730 36.916,28.693 36.309,28.693 34.806 L 28.693 32.747 31.067 32.749 C 33.139 32.751,33.494 32.776,33.867 32.947 M63.040 38.987 L 63.040 43.947 63.520 43.947 L 64.000 43.947 64.000 38.987 L 64.000 34.027 63.520 34.027 L 63.040 34.027 63.040 38.987 M0.000 47.200 L 0.000 52.160 0.480 52.160 L 0.960 52.160 0.960 47.200 L 0.960 42.240 0.480 42.240 L 0.000 42.240 0.000 47.200 M63.040 53.920 L 63.040 58.880 63.520 58.880 L 64.000 58.880 64.000 53.920 L 64.000 48.960 63.520 48.960 L 63.040 48.960 63.040 53.920 M0.000 62.187 L 0.000 67.200 0.480 67.200 L 0.960 67.200 0.960 62.187 L 0.960 57.173 0.480 57.173 L 0.000 57.173 0.000 62.187 M63.040 68.960 L 63.040 73.920 63.520 73.920 L 64.000 73.920 64.000 68.960 L 64.000 64.000 63.520 64.000 L 63.040 64.000 63.040 68.960 M29.120 69.327 C 28.325 69.487,27.764 69.939,27.462 70.661 C 27.309 71.029,27.288 71.697,27.290 76.224 C 27.292 81.874,27.274 81.711,27.948 82.278 C 28.504 82.746,28.887 82.798,31.472 82.755 C 33.848 82.716,33.872 82.714,34.538 82.408 C 35.389 82.018,36.161 81.198,36.483 80.346 C 36.806 79.489,36.746 78.157,36.350 77.387 C 36.051 76.806,35.453 76.139,34.965 75.843 L 34.657 75.655 34.930 75.330 C 35.471 74.687,35.674 74.058,35.675 73.013 C 35.676 72.202,35.634 71.962,35.402 71.467 C 34.860 70.312,33.775 69.526,32.457 69.336 C 31.641 69.218,29.686 69.212,29.120 69.327 M33.096 71.073 C 33.812 71.493,34.168 72.071,34.217 72.892 C 34.269 73.748,33.961 74.363,33.235 74.853 L 32.723 75.200 30.708 75.200 L 28.693 75.200 28.695 73.360 C 28.697 70.689,28.692 70.695,31.040 70.743 C 32.514 70.773,32.611 70.788,33.096 71.073 M0.000 77.173 L 0.000 82.133 0.480 82.133 L 0.960 82.133 0.960 77.173 L 0.960 72.213 0.480 72.213 L 0.000 72.213 0.000 77.173 M33.895 76.965 C 35.685 77.713,35.668 80.242,33.867 81.077 C 33.494 81.250,33.154 81.276,31.171 81.278 L 28.901 81.280 28.797 81.006 C 28.740 80.856,28.693 79.848,28.693 78.766 L 28.693 76.800 31.097 76.800 C 33.025 76.800,33.578 76.833,33.895 76.965 M63.040 84.000 L 63.040 88.960 63.520 88.960 L 64.000 88.960 64.000 84.000 L 64.000 79.040 63.520 79.040 L 63.040 79.040 63.040 84.000 M0.000 92.213 L 0.000 97.173 0.480 97.173 L 0.960 97.173 0.960 92.213 L 0.960 87.253 0.480 87.253 L 0.000 87.253 0.000 92.213 M63.040 98.933 L 63.040 103.893 63.520 103.893 L 64.000 103.893 64.000 98.933 L 64.000 93.973 63.520 93.973 L 63.040 93.973 63.040 98.933 M0.000 107.147 L 0.000 112.107 0.480 112.107 L 0.960 112.107 0.960 107.147 L 0.960 102.187 0.480 102.187 L 0.000 102.187 0.000 107.147 M63.040 113.973 L 63.040 118.933 63.520 118.933 L 64.000 118.933 64.000 113.973 L 64.000 109.013 63.520 109.013 L 63.040 109.013 63.040 113.973 M30.098 109.453 C 27.769 109.840,25.236 111.331,23.748 113.191 C 22.244 115.070,21.577 116.677,21.343 118.988 C 20.769 124.639,24.759 129.769,30.387 130.617 C 30.952 130.702,31.677 130.772,32.000 130.772 C 32.857 130.772,34.536 130.498,35.319 130.230 C 38.214 129.240,40.439 127.263,41.708 124.556 C 42.972 121.858,43.046 118.733,41.910 115.913 C 40.583 112.616,37.328 110.017,33.813 109.447 C 32.997 109.315,30.908 109.318,30.098 109.453 M32.907 110.830 C 34.005 110.953,34.765 111.151,35.680 111.549 C 41.735 114.187,43.156 122.132,38.386 126.673 C 36.464 128.502,34.050 129.403,31.489 129.248 C 30.211 129.170,29.326 128.949,28.195 128.425 C 27.104 127.920,26.479 127.495,25.614 126.673 C 24.367 125.485,23.482 123.987,23.028 122.293 C 22.725 121.162,22.697 119.001,22.973 117.973 C 23.409 116.349,23.886 115.373,24.806 114.227 C 26.318 112.344,28.538 111.118,30.936 110.840 C 31.374 110.789,31.781 110.742,31.840 110.735 C 31.899 110.728,32.379 110.770,32.907 110.830 M28.640 113.475 C 28.405 113.586,28.075 113.815,27.905 113.985 C 27.284 114.606,27.289 114.557,27.291 120.173 C 27.292 125.920,27.278 125.804,28.033 126.379 L 28.410 126.667 31.245 126.667 C 34.057 126.667,34.084 126.665,34.607 126.400 C 35.283 126.057,36.036 125.302,36.368 124.633 C 36.746 123.871,36.801 122.524,36.487 121.691 C 36.237 121.029,35.607 120.243,35.047 119.898 L 34.686 119.675 35.090 119.064 C 36.340 117.169,35.662 114.688,33.618 113.681 L 32.912 113.333 30.989 113.304 C 29.289 113.278,29.017 113.297,28.640 113.475 M32.907 114.976 C 33.141 115.084,33.463 115.311,33.621 115.480 C 34.677 116.606,34.318 118.398,32.907 119.051 C 32.543 119.220,32.202 119.249,30.587 119.251 L 28.693 119.253 28.693 117.447 C 28.693 116.453,28.743 115.505,28.805 115.340 C 29.001 114.811,29.141 114.773,30.874 114.776 C 32.209 114.778,32.552 114.811,32.907 114.976 M0.000 122.187 L 0.000 127.147 0.480 127.147 L 0.960 127.147 0.960 122.187 L 0.960 117.227 0.480 117.227 L 0.000 117.227 0.000 122.187 M33.638 120.862 C 34.171 121.010,34.940 121.723,35.105 122.222 C 35.386 123.071,35.147 124.106,34.544 124.654 C 33.916 125.225,33.691 125.271,31.344 125.314 C 28.462 125.367,28.693 125.578,28.693 122.898 C 28.693 121.793,28.725 120.857,28.764 120.818 C 28.883 120.700,33.194 120.739,33.638 120.862 M63.040 129.013 L 63.040 133.973 63.520 133.973 L 64.000 133.973 64.000 129.013 L 64.000 124.053 63.520 124.053 L 63.040 124.053 63.040 129.013 M0.000 137.227 L 0.000 142.187 0.480 142.187 L 0.960 142.187 0.960 137.227 L 0.960 132.267 0.480 132.267 L 0.000 132.267 0.000 137.227 M63.040 143.947 L 63.040 148.907 63.520 148.907 L 64.000 148.907 64.000 143.947 L 64.000 138.987 63.520 138.987 L 63.040 138.987 63.040 143.947 M0.000 152.160 L 0.000 157.120 0.480 157.120 L 0.960 157.120 0.960 152.160 L 0.960 147.200 0.480 147.200 L 0.000 147.200 0.000 152.160 M30.773 153.344 C 25.564 154.116,21.878 157.887,21.320 163.015 C 21.109 164.951,21.479 166.932,22.400 168.800 C 23.864 171.770,26.604 173.872,29.901 174.553 C 30.961 174.772,33.041 174.771,34.111 174.551 C 38.044 173.743,41.283 170.746,42.338 166.939 C 43.962 161.078,40.424 155.047,34.507 153.590 C 33.677 153.386,31.472 153.241,30.773 153.344 M63.040 158.987 L 63.040 163.947 63.520 163.947 L 64.000 163.947 64.000 158.987 L 64.000 154.027 63.520 154.027 L 63.040 154.027 63.040 158.987 M33.867 154.979 C 35.581 155.342,36.990 156.067,38.210 157.215 C 39.617 158.538,40.492 159.976,40.974 161.760 C 41.308 162.995,41.309 165.037,40.976 166.293 C 39.976 170.060,36.868 172.758,32.987 173.229 C 28.557 173.767,24.220 170.767,23.027 166.341 C 22.700 165.127,22.699 162.961,23.025 161.760 C 24.336 156.931,29.077 153.966,33.867 154.979 M28.533 157.535 C 28.017 157.773,27.692 158.111,27.472 158.638 C 27.330 158.976,27.307 159.781,27.307 164.237 C 27.308 170.079,27.267 169.766,28.116 170.414 L 28.516 170.720 30.967 170.752 C 33.218 170.782,33.479 170.766,34.167 170.557 C 34.811 170.361,35.010 170.236,35.575 169.671 C 36.397 168.848,36.695 168.139,36.691 167.009 C 36.687 165.752,36.129 164.652,35.166 164.003 L 34.695 163.686 35.055 163.163 C 36.128 161.604,35.897 159.583,34.502 158.307 C 33.570 157.456,33.107 157.333,30.849 157.336 C 29.241 157.338,28.897 157.367,28.533 157.535 M33.017 159.047 C 34.429 159.773,34.671 161.687,33.480 162.706 C 32.865 163.233,32.409 163.320,30.453 163.285 L 28.747 163.253 28.720 161.387 C 28.682 158.697,28.685 158.693,30.991 158.743 C 32.352 158.772,32.538 158.800,33.017 159.047 M0.000 167.200 L 0.000 172.160 0.480 172.160 L 0.960 172.160 0.960 167.200 L 0.960 162.240 0.480 162.240 L 0.000 162.240 0.000 167.200 M34.216 165.144 C 35.586 166.052,35.572 168.050,34.190 168.906 L 33.671 169.227 31.288 169.259 L 28.906 169.291 28.800 169.012 C 28.741 168.858,28.693 167.845,28.693 166.761 L 28.693 164.789 31.235 164.821 L 33.776 164.853 34.216 165.144 M63.040 174.027 L 63.040 178.987 63.520 178.987 L 64.000 178.987 64.000 174.027 L 64.000 169.067 63.520 169.067 L 63.040 169.067 63.040 174.027 M0.000 182.240 L 0.000 187.200 0.480 187.200 L 0.960 187.200 0.960 182.240 L 0.960 177.280 0.480 177.280 L 0.000 177.280 0.000 182.240 M63.040 188.960 L 63.040 193.920 63.520 193.920 L 64.000 193.920 64.000 188.960 L 64.000 184.000 63.520 184.000 L 63.040 184.000 63.040 188.960 M0.000 197.173 L 0.000 202.133 0.480 202.133 L 0.960 202.133 0.960 197.173 L 0.960 192.213 0.480 192.213 L 0.000 192.213 0.000 197.173 M30.072 198.233 C 23.911 199.518,20.460 205.856,22.724 211.728 C 23.346 213.341,24.747 215.131,26.203 216.174 C 27.041 216.774,28.453 217.436,29.516 217.728 C 30.713 218.056,33.287 218.056,34.484 217.728 C 40.041 216.204,43.221 210.487,41.525 205.067 C 40.505 201.805,37.899 199.297,34.587 198.390 C 33.526 198.099,31.117 198.016,30.072 198.233 M63.040 204.000 L 63.040 208.960 63.520 208.960 L 64.000 208.960 64.000 204.000 L 64.000 199.040 63.520 199.040 L 63.040 199.040 63.040 204.000 M33.506 201.614 C 34.320 201.996,34.886 202.534,35.308 203.326 C 35.957 204.543,35.849 206.134,35.044 207.187 L 34.677 207.669 35.042 207.895 C 35.606 208.243,36.236 209.026,36.487 209.691 C 37.180 211.528,36.369 213.543,34.582 214.423 L 33.872 214.773 31.518 214.810 C 28.959 214.850,28.489 214.787,27.948 214.331 C 27.238 213.734,27.257 213.888,27.219 208.533 C 27.179 203.051,27.204 202.793,27.823 202.106 C 28.512 201.342,28.789 201.272,30.987 201.305 C 32.807 201.332,32.938 201.348,33.506 201.614 M29.081 202.994 L 28.800 203.215 28.800 205.234 L 28.800 207.253 30.640 207.251 C 32.203 207.249,32.544 207.219,32.907 207.051 C 34.356 206.380,34.682 204.596,33.559 203.474 C 32.977 202.892,32.501 202.773,30.740 202.773 C 29.508 202.773,29.332 202.797,29.081 202.994 M0.000 212.213 L 0.000 217.173 0.480 217.173 L 0.960 217.173 0.960 212.213 L 0.960 207.253 0.480 207.253 L 0.000 207.253 0.000 212.213 M28.824 211.013 L 28.853 213.173 31.227 213.202 C 33.392 213.228,33.636 213.213,34.000 213.026 C 34.770 212.631,35.200 211.919,35.200 211.040 C 35.200 210.162,34.770 209.449,34.004 209.056 C 33.650 208.874,33.358 208.853,31.202 208.853 L 28.796 208.853 28.824 211.013 M63.040 218.933 L 63.040 223.893 63.520 223.893 L 64.000 223.893 64.000 218.933 L 64.000 213.973 63.520 213.973 L 63.040 213.973 63.040 218.933 M0.000 227.253 L 0.000 232.213 0.480 232.213 L 0.960 232.213 0.960 227.253 L 0.960 222.293 0.480 222.293 L 0.000 222.293 0.000 227.253 M63.040 233.973 L 63.040 238.933 63.520 238.933 L 64.000 238.933 64.000 233.973 L 64.000 229.013 63.520 229.013 L 63.040 229.013 63.040 233.973 M0.000 242.187 L 0.000 247.147 0.480 247.147 L 0.960 247.147 0.960 242.187 L 0.960 237.227 0.480 237.227 L 0.000 237.227 0.000 242.187 M63.040 249.013 L 63.040 253.973 63.520 253.973 L 64.000 253.973 64.000 249.013 L 64.000 244.053 63.520 244.053 L 63.040 244.053 63.040 249.013 M0.000 257.227 L 0.000 262.187 0.480 262.187 L 0.960 262.187 0.960 257.227 L 0.960 252.267 0.480 252.267 L 0.000 252.267 0.000 257.227 M63.040 263.947 L 63.040 268.907 63.520 268.907 L 64.000 268.907 64.000 263.947 L 64.000 258.987 63.520 258.987 L 63.040 258.987 63.040 263.947 M0.000 272.267 L 0.000 277.227 0.480 277.227 L 0.960 277.227 0.960 272.267 L 0.960 267.307 0.480 267.307 L 0.000 267.307 0.000 272.267 M63.021 277.040 L 62.987 280.053 62.643 280.756 C 62.325 281.405,61.606 282.209,61.073 282.511 C 60.864 282.629,60.896 282.878,61.167 283.234 C 61.301 283.411,61.342 283.414,61.617 283.272 C 62.166 282.988,63.039 281.997,63.418 281.227 C 63.906 280.235,63.995 279.509,63.998 276.507 L 64.000 274.027 63.527 274.027 L 63.055 274.027 63.021 277.040 M1.592 282.002 L 1.249 282.309 1.718 282.761 C 1.976 283.009,2.499 283.366,2.880 283.553 L 3.573 283.893 7.333 283.925 L 11.093 283.957 11.093 283.532 L 11.093 283.106 7.547 283.073 L 4.000 283.040 3.401 282.759 C 3.071 282.604,2.606 282.302,2.368 282.087 L 1.935 281.696 1.592 282.002 M16.107 283.520 L 16.107 283.947 21.067 283.947 L 26.027 283.947 26.027 283.520 L 26.027 283.093 21.067 283.093 L 16.107 283.093 16.107 283.520 M31.147 283.520 L 31.147 283.947 36.107 283.947 L 41.067 283.947 41.067 283.520 L 41.067 283.093 36.107 283.093 L 31.147 283.093 31.147 283.520 M46.187 283.520 L 46.187 283.947 51.147 283.947 L 56.107 283.947 56.107 283.520 L 56.107 283.093 51.147 283.093 L 46.187 283.093 46.187 283.520 " stroke="none" fill-rule="evenodd" fill="black"></path></svg>