<svg width="24" height="24" viewBox="0 0 24 24" fill="none" xmlns="http://www.w3.org/2000/svg"><path d="M8.440 2.043 C 5.815 2.137,4.484 2.504,3.549 3.393 C 2.549 4.344,2.163 5.596,2.041 8.280 C 1.989 9.450,1.989 14.605,2.041 15.740 C 2.160 18.285,2.507 19.501,3.379 20.433 C 4.323 21.444,5.571 21.833,8.260 21.959 C 9.399 22.012,14.601 22.012,15.740 21.959 C 18.285 21.840,19.501 21.493,20.433 20.621 C 21.360 19.755,21.742 18.682,21.927 16.420 C 21.966 15.951,21.980 14.772,21.980 12.000 C 21.980 8.151,21.964 7.600,21.816 6.500 C 21.584 4.775,20.991 3.670,19.928 2.982 C 18.975 2.366,17.835 2.129,15.393 2.041 C 14.150 1.996,9.732 1.997,8.440 2.043 M15.397 6.335 C 15.905 6.468,16.283 6.755,16.490 7.164 C 16.664 7.508,16.724 7.890,16.733 8.700 C 16.741 9.504,16.727 9.560,16.463 9.792 C 16.127 10.087,15.580 9.983,15.354 9.581 C 15.272 9.435,15.261 9.350,15.240 8.669 C 15.220 8.031,15.206 7.908,15.147 7.849 C 15.085 7.787,14.955 7.779,13.922 7.767 L 12.766 7.755 12.753 8.727 C 12.739 9.786,12.732 9.822,12.494 10.047 C 12.217 10.309,11.783 10.309,11.506 10.047 C 11.268 9.822,11.261 9.786,11.247 8.727 L 11.234 7.755 10.078 7.767 C 9.045 7.779,8.915 7.787,8.853 7.849 C 8.794 7.908,8.780 8.032,8.759 8.669 C 8.732 9.499,8.713 9.573,8.463 9.792 C 8.130 10.085,7.580 9.983,7.358 9.588 C 7.245 9.387,7.219 8.982,7.274 8.260 C 7.323 7.609,7.412 7.279,7.623 6.974 C 7.798 6.719,8.156 6.467,8.475 6.373 C 8.853 6.262,9.312 6.248,12.280 6.258 C 14.804 6.267,15.170 6.276,15.397 6.335 M16.373 11.355 C 16.615 11.506,16.733 11.718,16.733 12.003 C 16.733 12.203,16.714 12.270,16.616 12.409 C 16.552 12.501,16.436 12.613,16.359 12.658 C 16.221 12.739,16.181 12.740,12.000 12.740 C 7.819 12.740,7.779 12.739,7.641 12.658 C 7.564 12.613,7.448 12.501,7.384 12.409 C 7.098 12.003,7.330 11.395,7.815 11.278 C 7.884 11.261,9.803 11.250,12.080 11.254 L 16.220 11.260 16.373 11.355 M12.267 13.803 C 12.407 13.855,12.586 14.021,12.674 14.180 C 12.729 14.280,12.742 14.458,12.753 15.267 L 12.766 16.234 13.733 16.247 C 14.542 16.258,14.720 16.271,14.820 16.326 C 15.402 16.649,15.380 17.407,14.780 17.684 C 14.629 17.754,14.465 17.758,11.998 17.759 L 9.376 17.760 9.178 17.661 C 8.622 17.381,8.620 16.632,9.176 16.328 C 9.281 16.270,9.449 16.258,10.267 16.247 L 11.234 16.234 11.247 15.267 C 11.258 14.458,11.271 14.280,11.326 14.180 C 11.411 14.028,11.591 13.856,11.720 13.805 C 11.854 13.751,12.129 13.750,12.267 13.803 " fill="#1C274C" stroke="none" fill-rule="evenodd"></path></svg>