<svg width="24" height="24" viewBox="0 0 24 24" fill="none" xmlns="http://www.w3.org/2000/svg"><path d="M8.440 2.043 C 5.815 2.137,4.484 2.504,3.549 3.393 C 2.549 4.344,2.163 5.596,2.041 8.280 C 1.989 9.450,1.989 14.605,2.041 15.740 C 2.160 18.285,2.507 19.501,3.379 20.433 C 4.323 21.444,5.571 21.833,8.260 21.959 C 9.399 22.012,14.601 22.012,15.740 21.959 C 18.285 21.840,19.501 21.493,20.433 20.621 C 21.360 19.755,21.742 18.682,21.927 16.420 C 21.966 15.951,21.980 14.772,21.980 12.000 C 21.980 8.151,21.964 7.600,21.816 6.500 C 21.584 4.775,20.991 3.670,19.928 2.982 C 18.975 2.366,17.835 2.129,15.393 2.041 C 14.150 1.996,9.732 1.997,8.440 2.043 M16.388 6.367 C 16.628 6.526,16.733 6.721,16.733 7.007 C 16.733 7.203,16.714 7.271,16.616 7.409 C 16.388 7.734,16.372 7.737,15.061 7.760 L 13.901 7.780 12.776 12.000 L 11.651 16.220 12.595 16.240 C 13.606 16.262,13.670 16.274,13.868 16.487 C 13.985 16.612,14.080 16.847,14.079 17.009 C 14.077 17.311,13.827 17.634,13.528 17.721 C 13.426 17.751,12.502 17.760,10.580 17.752 C 7.842 17.740,7.777 17.738,7.641 17.658 C 7.564 17.613,7.448 17.501,7.384 17.409 C 7.286 17.271,7.267 17.203,7.267 17.007 C 7.267 16.721,7.372 16.526,7.612 16.367 L 7.774 16.260 8.936 16.240 L 10.099 16.220 11.224 12.000 L 12.349 7.780 11.405 7.760 C 10.394 7.739,10.331 7.726,10.132 7.513 C 10.015 7.388,9.920 7.153,9.921 6.991 C 9.923 6.705,10.183 6.351,10.433 6.296 C 10.492 6.284,10.558 6.267,10.580 6.259 C 10.602 6.251,11.881 6.248,13.423 6.252 L 16.226 6.260 16.388 6.367 " fill="#1C274C" stroke="none" fill-rule="evenodd"></path></svg>