<svg width="24" height="24" viewBox="0 0 24 24" fill="none" xmlns="http://www.w3.org/2000/svg"><path d="M16.480 3.025 C 15.917 3.098,15.188 3.379,14.675 3.720 C 14.502 3.835,12.890 5.420,9.655 8.655 C 4.472 13.838,4.691 13.600,4.462 14.289 C 4.292 14.797,4.264 15.138,4.337 15.798 C 4.479 17.091,4.381 17.447,3.684 18.176 C 3.241 18.638,3.154 18.767,3.059 19.097 C 2.743 20.190,3.810 21.257,4.903 20.941 C 5.232 20.846,5.362 20.759,5.820 20.322 C 6.560 19.616,6.909 19.519,8.186 19.662 C 9.433 19.801,10.199 19.517,11.139 18.564 L 11.458 18.241 10.752 17.530 C 10.363 17.140,10.026 16.769,10.003 16.707 C 9.979 16.645,9.960 16.504,9.960 16.393 C 9.960 15.987,10.266 15.680,10.670 15.680 C 10.788 15.680,10.942 15.709,11.012 15.744 C 11.082 15.779,11.451 16.117,11.830 16.494 L 12.520 17.179 13.588 16.111 L 14.657 15.043 13.955 14.332 C 13.194 13.560,13.135 13.470,13.169 13.117 C 13.206 12.738,13.509 12.469,13.898 12.469 C 14.011 12.469,14.148 12.491,14.202 12.519 C 14.256 12.546,14.620 12.886,15.010 13.274 L 15.720 13.979 16.788 12.911 L 17.857 11.843 17.155 11.132 C 16.394 10.360,16.335 10.270,16.369 9.917 C 16.406 9.538,16.709 9.269,17.098 9.269 C 17.211 9.269,17.348 9.291,17.402 9.319 C 17.456 9.346,17.820 9.686,18.211 10.074 L 18.923 10.780 19.516 10.180 C 20.349 9.337,20.662 8.836,20.878 7.994 C 21.421 5.881,20.102 3.681,17.965 3.134 C 17.585 3.037,16.823 2.981,16.480 3.025 M15.790 7.822 C 15.988 7.904,16.077 7.990,16.165 8.180 C 16.259 8.385,16.258 8.617,16.163 8.820 C 16.112 8.930,15.035 10.031,12.734 12.327 C 9.699 15.356,9.363 15.678,9.205 15.720 C 8.715 15.848,8.267 15.508,8.267 15.008 C 8.267 14.882,8.290 14.735,8.318 14.680 C 8.346 14.625,9.865 13.080,11.694 11.246 C 13.976 8.958,15.070 7.888,15.180 7.837 C 15.375 7.745,15.594 7.740,15.790 7.822 " fill="#1C274C" stroke="none" fill-rule="evenodd"></path></svg>