<svg width="24" height="24" viewBox="0 0 24 24" fill="none" xmlns="http://www.w3.org/2000/svg"><path d="M14.153 2.044 C 13.140 2.122,12.606 2.395,12.305 2.989 C 12.023 3.547,11.990 4.023,12.011 7.344 C 12.026 9.912,12.032 10.080,12.110 10.428 C 12.307 11.304,12.749 11.725,13.660 11.908 C 13.988 11.974,14.288 11.980,17.000 11.980 C 19.712 11.980,20.012 11.974,20.340 11.908 C 21.282 11.719,21.729 11.270,21.906 10.333 C 21.974 9.972,21.980 9.696,21.980 6.980 C 21.980 4.287,21.973 3.987,21.908 3.660 C 21.774 2.990,21.501 2.569,21.046 2.326 C 20.739 2.163,20.417 2.091,19.759 2.041 C 19.132 1.993,14.782 1.996,14.153 2.044 M9.147 7.045 C 8.033 7.130,7.487 7.457,7.218 8.201 C 7.048 8.671,7.033 8.918,7.012 11.551 C 6.987 14.798,7.031 15.463,7.307 16.011 C 7.569 16.533,8.010 16.799,8.820 16.924 C 9.342 17.005,14.658 17.005,15.180 16.924 C 16.187 16.769,16.641 16.394,16.858 15.540 C 16.925 15.273,17.000 14.404,17.000 13.876 L 17.000 13.533 15.570 13.508 C 13.563 13.473,12.993 13.385,12.220 12.988 C 11.772 12.758,11.242 12.228,11.012 11.780 C 10.615 11.007,10.527 10.437,10.492 8.430 L 10.467 7.000 10.024 7.006 C 9.780 7.009,9.385 7.026,9.147 7.045 M4.147 12.045 C 3.011 12.132,2.474 12.463,2.206 13.243 C 2.034 13.742,2.020 14.031,2.021 17.040 C 2.021 19.513,2.030 19.949,2.087 20.260 C 2.278 21.312,2.688 21.722,3.740 21.913 C 4.051 21.970,4.487 21.979,6.960 21.979 C 9.969 21.980,10.258 21.966,10.757 21.794 C 11.361 21.586,11.686 21.217,11.858 20.540 C 11.925 20.273,12.000 19.404,12.000 18.876 L 12.000 18.533 10.570 18.508 C 8.563 18.473,7.993 18.385,7.220 17.988 C 6.772 17.758,6.242 17.228,6.012 16.780 C 5.615 16.007,5.527 15.437,5.492 13.430 L 5.467 12.000 5.024 12.006 C 4.780 12.009,4.385 12.026,4.147 12.045 " fill="#1C274C" stroke="none" fill-rule="evenodd"></path></svg>