<svg width="24" height="24" viewBox="0 0 24 24" fill="none" xmlns="http://www.w3.org/2000/svg"><path d="M6.940 4.044 C 5.387 4.111,4.430 4.314,3.729 4.726 C 3.410 4.913,2.887 5.443,2.688 5.780 C 2.339 6.375,2.124 7.296,2.037 8.572 C 1.973 9.507,1.990 9.684,2.160 9.860 C 2.238 9.940,2.379 10.026,2.497 10.065 C 3.430 10.370,3.960 11.071,3.960 12.000 C 3.960 12.932,3.433 13.629,2.497 13.935 C 2.379 13.974,2.238 14.060,2.160 14.140 C 1.990 14.316,1.973 14.493,2.037 15.428 C 2.123 16.703,2.338 17.624,2.688 18.220 C 2.784 18.383,2.996 18.643,3.198 18.844 C 3.485 19.129,3.610 19.221,3.922 19.374 C 4.630 19.721,5.442 19.885,6.820 19.959 C 7.815 20.012,16.185 20.012,17.180 19.959 C 19.038 19.859,20.044 19.563,20.743 18.910 C 21.421 18.276,21.739 17.510,21.903 16.109 C 21.938 15.818,21.969 15.289,21.973 14.933 L 21.980 14.285 21.843 14.144 C 21.762 14.060,21.623 13.975,21.503 13.935 C 20.571 13.630,20.035 12.924,20.035 12.000 C 20.035 11.079,20.574 10.369,21.503 10.065 C 21.623 10.025,21.762 9.940,21.843 9.856 L 21.980 9.715 21.973 9.067 C 21.969 8.711,21.938 8.182,21.903 7.891 C 21.741 6.507,21.421 5.726,20.770 5.117 C 19.998 4.397,19.062 4.135,16.920 4.041 C 15.877 3.995,8.007 3.997,6.940 4.044 M12.272 9.137 C 12.360 9.217,12.562 9.517,12.755 9.853 C 12.937 10.171,13.128 10.471,13.181 10.521 C 13.250 10.585,13.454 10.653,13.918 10.764 C 14.596 10.927,14.835 11.022,14.937 11.168 C 15.096 11.395,14.970 11.660,14.364 12.377 C 14.092 12.699,13.953 12.898,13.936 12.988 C 13.922 13.062,13.931 13.315,13.955 13.551 C 14.049 14.443,14.004 14.851,13.802 14.959 C 13.617 15.058,13.510 15.026,12.310 14.516 L 12.000 14.384 11.690 14.516 C 10.490 15.026,10.383 15.058,10.198 14.959 C 9.996 14.851,9.952 14.449,10.043 13.542 C 10.067 13.304,10.076 13.052,10.063 12.982 C 10.047 12.899,9.897 12.686,9.636 12.377 C 9.030 11.660,8.904 11.395,9.063 11.168 C 9.165 11.022,9.404 10.927,10.082 10.764 C 10.546 10.653,10.750 10.585,10.819 10.521 C 10.872 10.471,11.063 10.171,11.245 9.853 C 11.738 8.992,11.948 8.845,12.272 9.137 " fill="#1C274C" stroke="none" fill-rule="evenodd"></path></svg>