<svg width="24" height="24" viewBox="0 0 24 24" fill="none" xmlns="http://www.w3.org/2000/svg"><path d="M7.300 4.027 C 6.093 4.064,5.111 4.193,4.476 4.398 C 3.899 4.585,3.557 4.794,3.138 5.215 C 2.834 5.522,2.747 5.641,2.591 5.960 C 2.370 6.412,2.268 6.745,2.164 7.362 C 2.070 7.914,1.984 9.016,2.007 9.377 C 2.028 9.709,2.065 9.748,2.684 10.103 C 3.393 10.510,3.669 10.803,3.866 11.360 C 3.980 11.681,3.994 12.231,3.896 12.563 C 3.731 13.126,3.423 13.467,2.694 13.895 C 2.406 14.064,2.138 14.238,2.097 14.283 C 1.996 14.395,1.980 14.738,2.038 15.532 C 2.125 16.709,2.275 17.394,2.590 18.040 C 2.749 18.365,2.831 18.476,3.159 18.805 C 3.499 19.146,3.589 19.213,3.961 19.394 C 4.379 19.597,4.896 19.750,5.460 19.837 C 6.220 19.955,6.714 19.971,10.040 19.988 C 13.801 20.007,13.730 20.011,13.896 19.787 C 13.977 19.679,13.981 19.617,14.001 18.227 C 14.024 16.628,14.028 16.602,14.292 16.326 C 14.505 16.104,14.701 16.022,15.020 16.022 C 15.349 16.022,15.554 16.112,15.759 16.345 C 15.997 16.616,16.000 16.638,16.000 18.009 C 16.000 19.403,16.028 19.686,16.177 19.835 C 16.308 19.966,16.516 19.989,17.260 19.953 C 18.590 19.889,19.420 19.714,20.140 19.347 C 20.389 19.220,20.545 19.098,20.842 18.802 C 21.169 18.476,21.252 18.364,21.411 18.040 C 21.715 17.421,21.876 16.691,21.963 15.528 C 22.021 14.755,22.004 14.395,21.904 14.284 C 21.863 14.239,21.594 14.064,21.306 13.895 C 20.741 13.564,20.481 13.333,20.287 12.991 C 20.112 12.682,20.040 12.394,20.040 12.000 C 20.040 11.154,20.391 10.632,21.315 10.103 C 21.942 9.744,21.973 9.710,21.993 9.360 C 22.028 8.736,21.881 7.416,21.701 6.733 C 21.414 5.650,20.761 4.882,19.796 4.492 C 19.171 4.240,18.253 4.091,17.080 4.053 L 16.340 4.028 16.211 4.137 C 16.140 4.197,16.064 4.311,16.041 4.393 C 16.017 4.480,16.000 5.093,16.000 5.891 C 16.000 6.947,15.988 7.271,15.945 7.374 C 15.858 7.581,15.638 7.804,15.420 7.906 C 15.054 8.076,14.673 8.014,14.360 7.733 C 14.027 7.433,14.026 7.427,14.001 5.754 C 13.981 4.361,13.976 4.284,13.900 4.200 C 13.713 3.993,13.822 3.999,10.632 4.008 C 8.997 4.013,7.498 4.021,7.300 4.027 M15.467 10.113 C 15.653 10.208,15.866 10.436,15.945 10.626 C 16.025 10.817,16.025 13.183,15.945 13.374 C 15.858 13.581,15.638 13.804,15.420 13.906 C 15.054 14.077,14.673 14.014,14.359 13.731 C 14.033 13.438,14.020 13.373,14.020 12.000 C 14.020 10.689,14.031 10.619,14.272 10.352 C 14.412 10.197,14.562 10.100,14.760 10.035 C 14.919 9.983,15.291 10.024,15.467 10.113 " fill="#1C274C" stroke="none" fill-rule="evenodd"></path></svg>