<svg width="24" height="24" viewBox="0 0 24 24" fill="none" xmlns="http://www.w3.org/2000/svg"><path d="M7.300 4.026 C 6.051 4.069,5.109 4.193,4.476 4.398 C 3.899 4.585,3.557 4.794,3.138 5.215 C 2.834 5.522,2.747 5.641,2.591 5.960 C 2.370 6.412,2.268 6.745,2.164 7.362 C 2.070 7.914,1.984 9.016,2.007 9.377 C 2.028 9.709,2.065 9.748,2.684 10.103 C 3.393 10.510,3.669 10.803,3.866 11.360 C 3.980 11.681,3.994 12.231,3.896 12.563 C 3.731 13.126,3.423 13.467,2.694 13.895 C 2.406 14.064,2.138 14.238,2.097 14.283 C 1.996 14.395,1.980 14.738,2.038 15.532 C 2.125 16.709,2.275 17.394,2.590 18.040 C 2.749 18.365,2.831 18.476,3.159 18.805 C 3.499 19.147,3.589 19.212,3.961 19.393 C 4.560 19.684,5.141 19.821,6.220 19.928 C 6.969 20.003,17.031 20.003,17.780 19.928 C 18.859 19.821,19.440 19.684,20.039 19.393 C 20.411 19.212,20.501 19.147,20.841 18.805 C 21.167 18.477,21.252 18.363,21.411 18.040 C 21.715 17.421,21.876 16.691,21.963 15.528 C 22.021 14.755,22.004 14.395,21.904 14.284 C 21.863 14.239,21.594 14.064,21.306 13.895 C 20.741 13.564,20.481 13.333,20.287 12.991 C 20.112 12.682,20.040 12.394,20.040 12.000 C 20.040 11.154,20.391 10.632,21.315 10.103 C 21.581 9.951,21.839 9.783,21.888 9.731 C 22.005 9.607,22.024 9.288,21.963 8.472 C 21.830 6.693,21.520 5.822,20.767 5.112 C 20.130 4.512,19.282 4.221,17.740 4.076 C 17.300 4.034,8.295 3.991,7.300 4.026 M15.376 8.355 C 15.555 8.456,15.724 8.691,15.748 8.873 C 15.802 9.278,15.995 9.059,12.587 12.473 C 10.867 14.196,9.414 15.630,9.359 15.659 C 8.994 15.853,8.520 15.708,8.332 15.345 C 8.237 15.161,8.246 14.804,8.351 14.636 C 8.460 14.463,14.506 8.426,14.640 8.357 C 14.883 8.233,15.158 8.231,15.376 8.355 M9.869 8.581 C 10.270 8.749,10.480 9.065,10.480 9.500 C 10.480 10.080,10.078 10.487,9.499 10.493 C 8.951 10.498,8.520 10.062,8.520 9.500 C 8.520 9.106,8.709 8.793,9.047 8.624 C 9.292 8.502,9.636 8.484,9.869 8.581 M14.894 13.575 C 15.083 13.654,15.311 13.866,15.411 14.056 C 15.531 14.284,15.532 14.715,15.412 14.940 C 15.226 15.290,14.901 15.491,14.520 15.492 C 13.859 15.494,13.381 14.860,13.560 14.219 C 13.623 13.995,13.884 13.693,14.098 13.595 C 14.294 13.507,14.705 13.496,14.894 13.575 " fill="#1C274C" stroke="none" fill-rule="evenodd"></path></svg>