<svg width="24" height="24" viewBox="0 0 24 24" fill="none" xmlns="http://www.w3.org/2000/svg"><path d="M10.780 4.265 C 8.613 4.316,6.364 4.525,4.980 4.803 C 3.053 5.190,2.263 5.683,2.263 6.500 C 2.263 7.442,3.377 7.997,6.031 8.379 C 9.518 8.880,14.482 8.880,17.969 8.379 C 20.623 7.997,21.737 7.442,21.737 6.500 C 21.737 5.523,20.541 4.963,17.636 4.579 C 16.962 4.491,16.809 4.499,16.595 4.635 C 16.217 4.874,16.140 5.380,16.430 5.724 C 16.578 5.900,16.794 5.984,17.240 6.039 C 18.153 6.152,19.440 6.392,19.598 6.480 C 19.664 6.516,19.536 6.557,18.965 6.681 C 17.256 7.051,14.913 7.240,12.000 7.240 C 9.007 7.240,6.697 7.049,4.920 6.654 C 4.338 6.525,4.293 6.501,4.516 6.441 C 5.866 6.078,8.278 5.824,10.840 5.775 C 11.511 5.762,12.131 5.734,12.219 5.712 C 12.429 5.659,12.659 5.426,12.719 5.204 C 12.808 4.874,12.689 4.566,12.398 4.374 C 12.243 4.271,12.202 4.264,11.766 4.258 C 11.510 4.255,11.066 4.258,10.780 4.265 M3.785 9.289 C 3.428 9.384,3.203 9.783,3.286 10.172 C 3.357 10.502,3.536 10.642,4.140 10.838 C 7.121 11.808,12.810 12.032,17.300 11.357 C 18.294 11.207,19.437 10.960,20.096 10.752 C 20.588 10.597,20.808 10.267,20.714 9.828 C 20.658 9.570,20.445 9.351,20.186 9.286 C 19.981 9.234,19.959 9.237,19.382 9.406 C 18.812 9.572,17.542 9.822,16.680 9.937 C 15.034 10.157,13.679 10.240,11.726 10.240 C 8.620 10.239,6.340 9.973,4.548 9.403 C 3.994 9.226,4.012 9.229,3.785 9.289 M5.819 12.276 C 5.427 12.373,5.184 12.783,5.284 13.179 C 5.408 13.673,6.056 14.060,7.238 14.348 C 7.723 14.467,8.047 14.480,8.220 14.390 C 8.568 14.209,8.724 13.798,8.578 13.449 C 8.450 13.142,8.294 13.040,7.800 12.940 C 7.225 12.825,6.743 12.653,6.557 12.497 C 6.464 12.420,6.359 12.341,6.324 12.323 C 6.221 12.269,5.950 12.244,5.819 12.276 M17.900 12.259 C 17.878 12.267,17.815 12.283,17.760 12.295 C 17.705 12.307,17.573 12.390,17.467 12.478 C 16.956 12.902,15.338 13.174,12.960 13.235 C 11.975 13.260,11.799 13.274,11.668 13.338 C 11.051 13.636,11.174 14.578,11.848 14.717 C 12.236 14.798,14.543 14.690,15.680 14.538 C 17.461 14.299,18.557 13.812,18.714 13.188 C 18.795 12.866,18.663 12.534,18.389 12.367 C 18.265 12.292,17.983 12.229,17.900 12.259 M7.785 15.289 C 7.698 15.312,7.564 15.396,7.479 15.481 C 7.142 15.818,7.209 16.386,7.617 16.638 C 7.893 16.809,9.008 17.041,10.160 17.168 C 10.773 17.235,13.227 17.235,13.840 17.168 C 14.992 17.041,16.107 16.809,16.383 16.638 C 16.934 16.297,16.810 15.443,16.186 15.286 C 16.019 15.244,15.954 15.251,15.550 15.359 C 14.497 15.639,13.539 15.739,11.940 15.736 C 10.371 15.733,9.410 15.626,8.380 15.341 C 7.981 15.230,8.001 15.232,7.785 15.289 M15.660 17.825 C 15.334 17.946,14.584 18.121,14.137 18.180 C 13.282 18.292,11.643 18.250,10.600 18.090 C 9.980 17.996,9.800 18.003,9.606 18.131 C 9.385 18.277,9.275 18.473,9.269 18.731 C 9.262 19.012,9.399 19.265,9.625 19.390 C 9.961 19.575,11.405 19.728,12.840 19.732 C 14.119 19.735,14.931 19.622,15.945 19.301 C 16.535 19.114,16.731 18.915,16.731 18.501 C 16.731 18.273,16.661 18.111,16.494 17.953 C 16.283 17.754,15.978 17.707,15.660 17.825 " fill="#1C274C" stroke="none" fill-rule="evenodd"></path></svg>