<svg width="24" height="24" viewBox="0 0 24 24" fill="none" xmlns="http://www.w3.org/2000/svg"><path d="M10.780 2.265 C 8.613 2.316,6.364 2.525,4.980 2.803 C 3.053 3.190,2.263 3.683,2.263 4.500 C 2.263 5.442,3.377 5.997,6.031 6.379 C 9.518 6.880,14.482 6.880,17.969 6.379 C 20.623 5.997,21.737 5.442,21.737 4.500 C 21.737 3.523,20.541 2.963,17.636 2.579 C 16.962 2.491,16.809 2.499,16.595 2.635 C 16.217 2.874,16.140 3.380,16.430 3.724 C 16.578 3.900,16.794 3.984,17.240 4.039 C 18.153 4.152,19.440 4.392,19.598 4.480 C 19.664 4.516,19.536 4.557,18.965 4.681 C 17.256 5.051,14.913 5.240,12.000 5.240 C 9.007 5.240,6.697 5.049,4.920 4.654 C 4.338 4.525,4.293 4.501,4.516 4.441 C 5.866 4.078,8.278 3.824,10.840 3.775 C 11.511 3.762,12.131 3.734,12.219 3.712 C 12.429 3.659,12.659 3.426,12.719 3.204 C 12.808 2.874,12.689 2.566,12.398 2.374 C 12.243 2.271,12.202 2.264,11.766 2.258 C 11.510 2.255,11.066 2.258,10.780 2.265 M3.785 7.289 C 3.428 7.384,3.203 7.783,3.286 8.172 C 3.357 8.502,3.536 8.642,4.140 8.838 C 7.719 10.003,15.045 10.051,19.429 8.939 C 20.157 8.754,20.367 8.673,20.522 8.518 C 20.874 8.166,20.775 7.550,20.332 7.338 C 20.119 7.236,19.883 7.250,19.416 7.391 C 18.323 7.722,16.497 8.009,14.480 8.168 C 13.456 8.249,9.757 8.236,8.771 8.148 C 6.940 7.985,5.680 7.763,4.548 7.403 C 3.994 7.226,4.012 7.229,3.785 7.289 M5.768 10.285 C 5.581 10.339,5.333 10.602,5.279 10.804 C 5.194 11.118,5.290 11.373,5.594 11.647 C 5.948 11.966,6.628 12.237,7.493 12.406 C 7.932 12.491,7.957 12.492,8.128 12.427 C 8.716 12.202,8.809 11.445,8.292 11.097 C 8.223 11.050,8.007 10.981,7.813 10.942 C 7.206 10.822,6.749 10.657,6.533 10.478 C 6.264 10.255,6.055 10.203,5.768 10.285 M17.780 10.280 C 17.714 10.301,17.573 10.390,17.467 10.478 C 16.946 10.910,15.350 11.175,12.915 11.234 L 11.771 11.262 11.604 11.373 C 11.190 11.647,11.130 12.180,11.475 12.525 C 11.704 12.753,11.839 12.774,12.900 12.744 C 15.398 12.672,16.991 12.422,17.958 11.949 C 18.311 11.776,18.658 11.437,18.720 11.204 C 18.868 10.643,18.326 10.111,17.780 10.280 M7.785 13.289 C 7.698 13.312,7.564 13.396,7.479 13.481 C 7.143 13.817,7.209 14.386,7.614 14.636 C 7.894 14.809,9.075 15.056,10.160 15.168 C 10.824 15.237,13.176 15.237,13.840 15.168 C 14.925 15.056,16.106 14.809,16.386 14.636 C 16.934 14.297,16.808 13.442,16.186 13.286 C 16.019 13.244,15.954 13.251,15.550 13.359 C 14.497 13.639,13.539 13.739,11.940 13.736 C 10.371 13.733,9.410 13.626,8.380 13.341 C 7.981 13.230,8.001 13.232,7.785 13.289 M15.660 15.825 C 15.334 15.946,14.584 16.121,14.137 16.180 C 13.282 16.292,11.643 16.250,10.600 16.090 C 9.980 15.996,9.800 16.003,9.606 16.131 C 9.381 16.280,9.274 16.474,9.271 16.736 C 9.269 17.022,9.401 17.266,9.625 17.390 C 9.961 17.575,11.405 17.728,12.840 17.732 C 14.119 17.735,14.931 17.622,15.945 17.301 C 16.535 17.114,16.731 16.915,16.731 16.501 C 16.731 16.273,16.661 16.111,16.494 15.953 C 16.283 15.754,15.978 15.707,15.660 15.825 M14.140 18.688 C 14.030 18.709,13.400 18.731,12.740 18.737 C 12.080 18.743,11.509 18.751,11.471 18.754 C 11.381 18.762,11.130 18.984,11.063 19.116 C 10.914 19.406,10.958 19.709,11.185 19.960 C 11.410 20.209,11.476 20.220,12.800 20.220 C 14.389 20.220,14.847 20.147,15.074 19.859 C 15.365 19.489,15.243 18.925,14.830 18.725 C 14.645 18.635,14.471 18.626,14.140 18.688 M12.807 21.285 C 12.274 21.412,12.085 22.125,12.481 22.521 C 12.670 22.710,12.955 22.780,13.410 22.749 C 13.764 22.725,13.910 22.656,14.096 22.426 C 14.208 22.288,14.220 22.245,14.220 22.000 C 14.220 21.755,14.208 21.712,14.096 21.574 C 13.896 21.326,13.764 21.270,13.346 21.256 C 13.145 21.249,12.902 21.262,12.807 21.285 " fill="#1C274C" stroke="none" fill-rule="evenodd"></path></svg>