<svg width="24" height="24" viewBox="0 0 24 24" fill="none" xmlns="http://www.w3.org/2000/svg"><path d="M8.419 2.041 C 5.785 2.145,4.480 2.507,3.549 3.393 C 2.551 4.342,2.166 5.587,2.041 8.260 C 1.988 9.399,1.988 14.601,2.041 15.740 C 2.160 18.285,2.507 19.501,3.379 20.433 C 4.245 21.360,5.318 21.742,7.580 21.927 C 8.488 22.002,15.512 22.002,16.420 21.927 C 18.857 21.727,19.992 21.275,20.860 20.157 C 21.474 19.368,21.771 18.329,21.927 16.420 C 22.002 15.512,22.002 8.488,21.927 7.580 C 21.740 5.297,21.356 4.232,20.407 3.355 C 19.572 2.585,18.492 2.242,16.380 2.078 C 15.684 2.023,9.573 1.995,8.419 2.041 M12.386 5.364 C 12.743 5.584,12.851 6.075,12.616 6.409 C 12.431 6.673,12.307 6.724,11.748 6.765 C 10.680 6.843,9.903 7.103,9.040 7.673 C 8.627 7.946,7.972 8.592,7.692 9.002 C 7.097 9.876,6.810 10.749,6.773 11.800 C 6.739 12.788,6.912 13.566,7.359 14.434 C 8.654 16.946,11.794 17.962,14.338 16.692 C 14.868 16.428,15.252 16.148,15.700 15.700 C 16.652 14.748,17.140 13.656,17.239 12.251 C 17.279 11.691,17.338 11.548,17.607 11.371 C 17.731 11.289,17.813 11.267,17.997 11.267 C 18.274 11.267,18.476 11.373,18.619 11.595 C 18.749 11.796,18.769 11.985,18.721 12.534 C 18.639 13.463,18.445 14.158,18.038 14.980 C 17.371 16.329,16.347 17.364,15.019 18.030 C 13.114 18.986,10.888 18.986,8.980 18.030 C 6.526 16.800,5.052 14.183,5.284 11.464 C 5.364 10.527,5.561 9.822,5.980 8.980 C 7.018 6.896,9.054 5.503,11.388 5.280 C 11.889 5.232,12.218 5.260,12.386 5.364 M14.665 5.835 C 16.215 6.602,17.398 7.785,18.165 9.335 C 18.411 9.833,18.450 10.023,18.357 10.267 C 18.265 10.512,17.921 10.757,17.669 10.759 C 17.515 10.760,17.282 10.657,17.147 10.528 C 17.085 10.469,16.956 10.258,16.861 10.060 C 16.261 8.813,15.260 7.807,13.980 7.166 C 13.544 6.947,13.435 6.864,13.335 6.670 C 13.251 6.509,13.249 6.175,13.331 6.019 C 13.408 5.870,13.589 5.697,13.720 5.645 C 13.962 5.549,14.169 5.590,14.665 5.835 M12.267 9.803 C 12.329 9.826,12.431 9.893,12.494 9.953 C 12.695 10.143,12.733 10.264,12.752 10.765 L 12.770 11.230 13.235 11.248 C 13.555 11.260,13.737 11.285,13.820 11.329 C 14.401 11.638,14.379 12.407,13.780 12.684 C 13.657 12.741,13.523 12.758,13.195 12.759 L 12.770 12.760 12.752 13.230 C 12.733 13.737,12.695 13.857,12.494 14.047 C 12.353 14.181,12.201 14.240,12.000 14.240 C 11.799 14.240,11.647 14.181,11.506 14.047 C 11.305 13.857,11.267 13.737,11.248 13.230 L 11.230 12.760 10.805 12.759 C 10.477 12.758,10.343 12.741,10.220 12.684 C 9.925 12.547,9.760 12.303,9.760 12.000 C 9.760 11.799,9.819 11.647,9.953 11.506 C 10.143 11.305,10.264 11.267,10.765 11.248 L 11.230 11.230 11.248 10.765 C 11.267 10.264,11.305 10.143,11.506 9.952 C 11.569 9.893,11.665 9.827,11.720 9.805 C 11.854 9.751,12.129 9.750,12.267 9.803 " fill="#1C274C" stroke="none" fill-rule="evenodd"></path></svg>