<svg width="24" height="24" viewBox="0 0 24 24" fill="none" xmlns="http://www.w3.org/2000/svg"><path d="M8.220 2.084 C 7.017 2.185,6.269 2.398,5.617 2.824 C 4.950 3.261,4.535 3.894,4.302 4.829 C 4.075 5.744,4.038 6.344,4.012 9.490 L 3.990 12.240 11.995 12.240 L 20.000 12.240 19.999 10.110 C 19.999 6.802,19.923 5.609,19.652 4.640 C 19.507 4.123,19.214 3.587,18.874 3.218 C 18.531 2.846,17.813 2.455,17.200 2.306 C 16.546 2.146,15.562 2.040,14.742 2.040 C 14.299 2.040,14.286 2.043,14.167 2.153 C 14.094 2.222,14.039 2.320,14.027 2.403 C 13.945 2.981,13.911 3.117,13.789 3.374 C 13.461 4.065,12.782 4.489,12.000 4.489 C 11.203 4.489,10.533 4.063,10.196 3.345 C 10.087 3.112,10.054 2.971,9.973 2.403 C 9.961 2.320,9.906 2.222,9.833 2.153 L 9.712 2.040 9.166 2.045 C 8.866 2.049,8.440 2.066,8.220 2.084 M4.016 14.590 C 4.092 16.860,4.366 17.931,5.075 18.728 C 5.307 18.987,5.675 19.256,6.035 19.427 C 6.203 19.507,6.345 19.576,6.352 19.581 C 6.358 19.586,6.115 20.089,5.812 20.699 C 5.310 21.706,5.260 21.826,5.262 22.016 C 5.268 22.643,6.021 22.978,6.491 22.562 C 6.583 22.480,6.805 22.076,7.260 21.163 C 7.872 19.935,7.904 19.879,8.000 19.898 C 8.669 20.035,15.331 20.035,16.000 19.898 C 16.096 19.879,16.128 19.935,16.740 21.163 C 17.195 22.076,17.417 22.480,17.509 22.562 C 17.979 22.978,18.732 22.643,18.738 22.016 C 18.740 21.826,18.690 21.706,18.188 20.699 C 17.885 20.089,17.642 19.586,17.648 19.582 C 17.655 19.578,17.813 19.499,18.000 19.408 C 19.013 18.912,19.582 18.044,19.814 16.640 C 19.901 16.115,19.953 15.480,19.985 14.550 L 20.012 13.760 12.000 13.760 L 3.988 13.760 4.016 14.590 M8.820 15.327 C 9.307 15.596,9.389 16.195,8.987 16.549 C 8.759 16.748,8.635 16.768,7.660 16.753 C 6.661 16.738,6.604 16.723,6.384 16.409 C 6.098 16.003,6.328 15.399,6.815 15.276 C 6.884 15.259,7.336 15.248,7.820 15.253 C 8.554 15.259,8.720 15.271,8.820 15.327 M17.388 15.367 C 17.628 15.526,17.733 15.721,17.733 16.007 C 17.733 16.203,17.714 16.271,17.616 16.409 C 17.394 16.725,17.343 16.738,16.306 16.753 C 15.396 16.765,15.391 16.765,15.186 16.664 C 14.547 16.348,14.646 15.452,15.340 15.276 C 15.406 15.259,15.857 15.248,16.343 15.252 L 17.226 15.260 17.388 15.367 " fill="#1C274C" stroke="none" fill-rule="evenodd"></path></svg>