<svg width="24" height="24" viewBox="0 0 24 24" fill="none" xmlns="http://www.w3.org/2000/svg"><path d="M9.811 3.278 C 9.639 3.320,9.417 3.493,9.330 3.652 C 9.265 3.772,9.259 4.106,9.249 8.770 L 9.239 13.760 6.538 13.760 C 3.563 13.760,3.682 13.750,3.451 14.013 C 3.215 14.283,3.185 14.606,3.372 14.886 C 3.471 15.033,9.427 20.517,9.620 20.638 C 10.020 20.889,10.594 20.666,10.717 20.213 C 10.748 20.095,10.758 17.760,10.750 11.914 C 10.740 3.798,10.740 3.780,10.658 3.641 C 10.494 3.361,10.122 3.202,9.811 3.278 M13.785 3.288 C 13.569 3.347,13.344 3.583,13.286 3.811 C 13.222 4.068,13.220 19.861,13.284 20.162 C 13.405 20.725,14.111 20.929,14.520 20.520 C 14.631 20.409,14.683 20.313,14.716 20.162 C 14.747 20.018,14.760 18.495,14.760 15.098 L 14.760 10.240 17.457 10.240 C 19.266 10.240,20.192 10.226,20.267 10.197 C 20.404 10.146,20.589 9.977,20.658 9.840 C 20.803 9.555,20.758 9.246,20.536 9.000 C 20.273 8.710,14.479 3.420,14.349 3.353 C 14.173 3.261,13.970 3.238,13.785 3.288 " fill="#1C274C" stroke="none" fill-rule="evenodd"></path></svg>