<svg width="24" height="24" viewBox="0 0 24 24" fill="none" xmlns="http://www.w3.org/2000/svg"><path d="M3.580 2.044 C 2.850 2.193,2.199 2.849,2.044 3.592 C 1.871 4.424,2.263 5.302,2.995 5.721 L 3.238 5.860 3.238 12.000 L 3.238 18.140 2.995 18.279 C 2.409 18.614,2.002 19.307,2.000 19.968 C 1.998 21.079,2.905 22.000,4.000 22.000 C 5.080 22.000,6.000 21.080,6.000 20.000 C 6.000 19.315,5.598 18.620,5.005 18.280 L 4.761 18.140 4.760 15.450 L 4.760 12.760 8.000 12.760 L 11.240 12.760 11.239 15.450 L 11.238 18.140 10.995 18.279 C 10.409 18.614,10.002 19.307,10.000 19.968 C 9.998 21.079,10.905 22.000,12.000 22.000 C 13.080 22.000,14.000 21.080,14.000 20.000 C 14.000 19.315,13.598 18.620,13.005 18.280 L 12.761 18.140 12.760 15.454 L 12.760 12.768 15.390 12.748 C 18.130 12.727,18.294 12.717,18.907 12.540 C 19.700 12.311,20.311 11.700,20.540 10.907 C 20.708 10.327,20.725 10.083,20.748 7.940 L 20.770 5.860 21.009 5.721 C 21.593 5.381,21.998 4.691,22.000 4.032 C 22.001 3.170,21.459 2.395,20.662 2.121 C 19.350 1.669,17.998 2.641,18.000 4.032 C 18.002 4.695,18.411 5.389,18.997 5.721 L 19.243 5.860 19.227 7.940 C 19.214 9.688,19.201 10.065,19.146 10.299 C 19.058 10.675,18.906 10.911,18.680 11.024 C 18.320 11.205,18.168 11.215,15.390 11.230 L 12.760 11.244 12.761 8.552 L 12.762 5.860 13.005 5.721 C 13.591 5.386,13.998 4.693,14.000 4.032 C 14.001 3.170,13.459 2.395,12.662 2.121 C 11.350 1.669,9.998 2.641,10.000 4.032 C 10.002 4.693,10.409 5.386,10.995 5.721 L 11.238 5.860 11.239 8.550 L 11.240 11.240 8.000 11.240 L 4.760 11.240 4.761 8.550 L 4.762 5.860 5.005 5.721 C 5.591 5.386,5.998 4.693,6.000 4.032 C 6.001 3.168,5.461 2.397,4.657 2.118 C 4.379 2.022,3.864 1.986,3.580 2.044 M17.807 14.285 C 17.557 14.344,17.341 14.573,17.284 14.838 C 17.222 15.126,17.222 21.874,17.284 22.162 C 17.447 22.920,18.553 22.920,18.716 22.162 C 18.743 22.035,18.760 21.438,18.760 20.596 L 18.760 19.237 19.103 19.248 L 19.446 19.260 20.424 20.860 C 20.962 21.740,21.457 22.508,21.525 22.566 C 22.033 23.005,22.832 22.551,22.732 21.880 C 22.719 21.794,22.405 21.238,21.911 20.428 C 21.471 19.706,21.117 19.112,21.125 19.108 C 21.133 19.104,21.266 19.037,21.420 18.960 C 21.834 18.753,22.255 18.319,22.468 17.880 C 22.675 17.453,22.734 17.195,22.731 16.740 C 22.725 15.623,22.047 14.701,20.980 14.358 C 20.716 14.273,20.624 14.267,19.340 14.256 C 18.513 14.249,17.912 14.260,17.807 14.285 M20.709 15.862 C 21.049 16.032,21.241 16.352,21.239 16.749 C 21.238 17.138,21.040 17.470,20.700 17.654 C 20.552 17.733,20.472 17.741,19.650 17.753 L 18.760 17.765 18.760 16.763 L 18.760 15.760 19.632 15.760 C 20.487 15.760,20.508 15.762,20.709 15.862 " fill="#1C274C" stroke="none" fill-rule="evenodd"></path></svg>