<svg width="24" height="24" viewBox="0 0 24 24" fill="none" xmlns="http://www.w3.org/2000/svg"><path d="M11.120 2.039 C 9.316 2.220,7.707 2.807,6.280 3.806 C 2.696 6.315,1.150 10.849,2.462 15.000 C 2.954 16.557,3.767 17.890,4.938 19.062 C 6.528 20.651,8.440 21.596,10.740 21.928 C 11.213 21.996,12.787 21.996,13.260 21.928 C 15.135 21.657,16.725 20.987,18.200 19.845 C 18.637 19.507,19.507 18.637,19.845 18.200 C 22.092 15.297,22.619 11.564,21.254 8.220 C 20.058 5.287,17.480 3.053,14.430 2.303 C 13.446 2.062,12.028 1.948,11.120 2.039 M8.405 8.381 C 8.485 8.432,8.593 8.543,8.645 8.627 C 8.739 8.778,8.740 8.796,8.753 10.010 L 8.765 11.240 10.000 11.240 L 11.235 11.240 11.247 10.010 C 11.260 8.796,11.261 8.778,11.355 8.627 C 11.504 8.387,11.719 8.267,11.997 8.267 C 12.279 8.267,12.474 8.373,12.633 8.612 L 12.740 8.774 12.753 10.011 L 12.765 11.247 13.553 11.233 C 14.452 11.217,14.576 11.184,14.880 10.880 C 15.176 10.584,15.212 10.451,15.239 9.555 C 15.262 8.792,15.266 8.766,15.369 8.610 C 15.525 8.374,15.722 8.267,16.000 8.267 C 16.276 8.267,16.475 8.374,16.627 8.603 C 16.709 8.727,16.732 8.821,16.748 9.089 C 16.775 9.534,16.699 10.528,16.617 10.800 C 16.342 11.720,15.559 12.462,14.650 12.664 C 14.489 12.700,14.055 12.734,13.573 12.748 L 12.765 12.771 12.753 14.002 L 12.740 15.233 12.619 15.405 C 12.453 15.642,12.273 15.739,12.000 15.739 C 11.727 15.739,11.547 15.642,11.381 15.405 L 11.260 15.233 11.247 13.997 L 11.235 12.760 10.000 12.760 L 8.765 12.760 8.753 13.997 L 8.740 15.233 8.619 15.405 C 8.453 15.642,8.273 15.739,8.000 15.739 C 7.727 15.739,7.547 15.641,7.381 15.405 L 7.260 15.233 7.260 12.007 L 7.260 8.780 7.353 8.631 C 7.586 8.256,8.044 8.147,8.405 8.381 " fill="#1C274C" stroke="none" fill-rule="evenodd"></path></svg>