<svg width="24" height="24" viewBox="0 0 24 24" fill="none" xmlns="http://www.w3.org/2000/svg"><path d="M9.325 3.280 C 9.251 3.298,9.143 3.346,9.085 3.388 C 8.951 3.486,3.458 9.461,3.359 9.617 C 3.111 10.008,3.335 10.592,3.781 10.715 C 4.007 10.778,19.993 10.778,20.219 10.715 C 20.431 10.657,20.660 10.422,20.719 10.204 C 20.808 9.873,20.689 9.566,20.394 9.372 L 20.226 9.260 15.233 9.249 L 10.240 9.238 10.240 6.542 C 10.240 4.734,10.226 3.808,10.197 3.733 C 10.074 3.405,9.674 3.198,9.325 3.280 M3.807 13.287 C 3.568 13.341,3.341 13.572,3.289 13.816 C 3.197 14.246,3.431 14.629,3.838 14.716 C 3.982 14.747,5.505 14.760,8.902 14.760 L 13.760 14.760 13.760 17.457 C 13.760 19.266,13.774 20.192,13.803 20.267 C 13.856 20.409,14.024 20.588,14.179 20.669 C 14.333 20.749,14.668 20.749,14.821 20.669 C 14.987 20.581,15.157 20.400,17.884 17.419 C 20.920 14.102,20.661 14.397,20.715 14.181 C 20.814 13.791,20.574 13.383,20.189 13.286 C 19.952 13.227,4.074 13.228,3.807 13.287 " fill="#1C274C" stroke="none" fill-rule="evenodd"></path></svg>