<svg width="24" height="24" viewBox="0 0 24 24" fill="none" xmlns="http://www.w3.org/2000/svg"><path d="M4.770 4.199 C 4.574 4.245,4.415 4.374,4.031 4.796 C 2.566 6.409,1.662 8.359,1.334 10.620 C 1.238 11.284,1.238 12.716,1.334 13.380 C 1.680 15.758,2.670 17.810,4.264 19.447 C 4.636 19.830,4.773 19.900,5.083 19.871 C 5.342 19.846,5.538 19.707,5.661 19.462 C 5.850 19.085,5.775 18.875,5.250 18.312 C 3.961 16.927,3.143 15.239,2.852 13.360 C 2.753 12.718,2.753 11.282,2.852 10.640 C 3.141 8.773,3.938 7.118,5.221 5.720 C 5.599 5.308,5.680 5.168,5.680 4.924 C 5.680 4.446,5.232 4.090,4.770 4.199 M18.971 4.279 C 18.559 4.377,18.302 4.840,18.435 5.245 C 18.460 5.320,18.627 5.542,18.806 5.740 C 19.707 6.733,20.362 7.845,20.776 9.084 C 21.095 10.041,21.240 10.952,21.240 12.000 C 21.240 13.459,20.938 14.769,20.303 16.060 C 19.875 16.932,19.457 17.544,18.802 18.260 C 18.410 18.688,18.350 18.794,18.346 19.059 C 18.343 19.307,18.464 19.540,18.669 19.681 C 18.788 19.762,18.862 19.780,19.080 19.780 C 19.410 19.780,19.493 19.727,19.951 19.224 C 21.437 17.593,22.382 15.526,22.662 13.300 C 22.749 12.613,22.749 11.387,22.662 10.700 C 22.424 8.801,21.720 7.057,20.581 5.541 C 20.197 5.029,19.641 4.423,19.483 4.343 C 19.339 4.270,19.123 4.243,18.971 4.279 M7.570 7.288 C 7.171 7.374,6.349 8.359,5.876 9.320 C 5.467 10.150,5.271 11.011,5.270 11.980 C 5.270 12.855,5.399 13.519,5.724 14.315 C 6.135 15.322,7.132 16.593,7.605 16.712 C 8.031 16.819,8.445 16.564,8.524 16.145 C 8.582 15.836,8.505 15.671,8.103 15.241 C 7.186 14.260,6.760 13.226,6.760 11.980 C 6.760 10.742,7.188 9.706,8.111 8.710 C 8.356 8.445,8.439 8.325,8.475 8.184 C 8.614 7.630,8.145 7.165,7.570 7.288 M15.904 7.415 C 15.683 7.548,15.560 7.769,15.560 8.032 C 15.560 8.300,15.629 8.434,15.939 8.764 C 17.676 10.612,17.683 13.347,15.956 15.178 C 15.590 15.565,15.520 15.691,15.520 15.964 C 15.520 16.371,15.827 16.683,16.230 16.686 C 16.334 16.686,16.471 16.667,16.533 16.643 C 16.816 16.534,17.503 15.737,17.910 15.045 C 18.467 14.098,18.730 13.116,18.730 11.980 C 18.729 10.614,18.319 9.387,17.495 8.289 C 17.189 7.882,16.783 7.460,16.623 7.384 C 16.419 7.287,16.092 7.301,15.904 7.415 M11.620 10.039 C 10.906 10.197,10.359 10.674,10.110 11.356 C 9.993 11.675,9.994 12.327,10.112 12.650 C 10.323 13.228,10.774 13.678,11.356 13.890 C 11.673 14.006,12.327 14.006,12.644 13.890 C 13.226 13.678,13.677 13.228,13.888 12.650 C 13.954 12.471,13.972 12.327,13.972 12.000 C 13.972 11.673,13.954 11.529,13.888 11.350 C 13.677 10.770,13.216 10.312,12.644 10.114 C 12.389 10.025,11.858 9.986,11.620 10.039 " fill="#1C274C" stroke="none" fill-rule="evenodd"></path></svg>