<svg width="24" height="24" viewBox="0 0 24 24" fill="none" xmlns="http://www.w3.org/2000/svg"><path d="M8.440 2.043 C 5.815 2.137,4.484 2.504,3.549 3.393 C 2.549 4.344,2.163 5.596,2.041 8.280 C 1.989 9.450,1.989 14.605,2.041 15.740 C 2.160 18.285,2.507 19.501,3.379 20.433 C 4.323 21.444,5.571 21.833,8.260 21.959 C 9.399 22.012,14.601 22.012,15.740 21.959 C 18.285 21.840,19.501 21.493,20.433 20.621 C 21.360 19.755,21.742 18.682,21.927 16.420 C 21.966 15.951,21.980 14.772,21.980 12.000 C 21.980 8.151,21.964 7.600,21.816 6.500 C 21.584 4.775,20.991 3.670,19.928 2.982 C 18.975 2.366,17.835 2.129,15.393 2.041 C 14.150 1.996,9.732 1.997,8.440 2.043 M8.405 8.381 C 8.485 8.432,8.593 8.543,8.645 8.627 C 8.739 8.778,8.740 8.796,8.753 10.010 L 8.765 11.240 10.000 11.240 L 11.235 11.240 11.247 10.010 C 11.260 8.796,11.261 8.778,11.355 8.627 C 11.504 8.387,11.719 8.267,11.997 8.267 C 12.279 8.267,12.474 8.373,12.633 8.612 L 12.740 8.774 12.753 10.011 L 12.765 11.247 13.553 11.233 C 14.452 11.217,14.576 11.184,14.880 10.880 C 15.176 10.584,15.212 10.451,15.239 9.555 C 15.262 8.792,15.266 8.766,15.369 8.610 C 15.525 8.374,15.722 8.267,16.000 8.267 C 16.276 8.267,16.475 8.374,16.627 8.603 C 16.709 8.727,16.732 8.821,16.748 9.089 C 16.775 9.534,16.699 10.528,16.617 10.800 C 16.342 11.720,15.559 12.462,14.650 12.664 C 14.489 12.700,14.055 12.734,13.573 12.748 L 12.765 12.771 12.753 14.002 L 12.740 15.233 12.619 15.405 C 12.453 15.642,12.273 15.739,12.000 15.739 C 11.727 15.739,11.547 15.642,11.381 15.405 L 11.260 15.233 11.247 13.997 L 11.235 12.760 10.000 12.760 L 8.765 12.760 8.753 13.997 L 8.740 15.233 8.619 15.405 C 8.453 15.642,8.273 15.739,8.000 15.739 C 7.727 15.739,7.547 15.641,7.381 15.405 L 7.260 15.233 7.260 12.007 L 7.260 8.780 7.353 8.631 C 7.586 8.256,8.044 8.147,8.405 8.381 " fill="#1C274C" stroke="none" fill-rule="evenodd"></path></svg>