<svg width="24" height="24" viewBox="0 0 24 24" fill="none" xmlns="http://www.w3.org/2000/svg"><path d="M11.320 3.023 C 11.243 3.032,11.009 3.059,10.800 3.082 C 9.044 3.280,7.348 3.967,5.849 5.088 C 5.352 5.459,4.427 6.384,4.035 6.900 C 2.999 8.265,2.351 9.801,2.097 11.500 C 2.009 12.089,1.995 13.480,2.073 14.020 C 2.382 16.182,3.240 18.003,4.664 19.516 C 5.108 19.989,5.351 20.084,5.705 19.923 C 6.031 19.775,6.198 19.384,6.068 19.073 C 6.035 18.993,5.883 18.796,5.731 18.634 C 4.983 17.838,4.470 17.063,4.068 16.119 C 2.471 12.366,3.790 8.069,7.240 5.788 C 8.262 5.113,9.499 4.649,10.800 4.453 C 11.423 4.360,12.577 4.360,13.200 4.453 C 14.501 4.649,15.738 5.113,16.760 5.788 C 20.210 8.069,21.529 12.366,19.932 16.119 C 19.534 17.052,19.035 17.810,18.285 18.617 C 18.123 18.791,17.963 18.998,17.931 19.076 C 17.802 19.384,17.971 19.776,18.295 19.923 C 18.653 20.086,18.893 19.990,19.352 19.499 C 20.486 18.286,21.296 16.804,21.695 15.207 C 21.916 14.320,21.976 13.818,21.976 12.840 C 21.976 11.862,21.916 11.360,21.695 10.473 C 20.904 7.310,18.513 4.691,15.420 3.603 C 14.326 3.218,13.370 3.046,12.200 3.022 C 11.793 3.014,11.397 3.014,11.320 3.023 M11.200 6.706 C 11.123 6.716,10.854 6.770,10.603 6.826 C 8.493 7.294,6.765 8.820,6.063 10.837 C 5.805 11.579,5.744 11.957,5.744 12.840 C 5.744 13.493,5.759 13.686,5.832 14.026 C 6.063 15.094,6.511 16.005,7.215 16.837 C 7.559 17.244,7.785 17.400,8.029 17.400 C 8.508 17.400,8.859 16.962,8.719 16.538 C 8.693 16.459,8.564 16.275,8.433 16.127 C 7.208 14.759,6.810 12.995,7.358 11.359 C 7.908 9.719,9.247 8.535,11.006 8.133 C 11.417 8.040,12.583 8.040,12.994 8.133 C 14.922 8.574,16.363 9.978,16.764 11.810 C 17.100 13.344,16.675 14.893,15.586 16.107 C 15.444 16.265,15.307 16.459,15.281 16.538 C 15.088 17.122,15.789 17.626,16.322 17.287 C 16.657 17.074,17.317 16.206,17.652 15.537 C 17.850 15.142,18.057 14.528,18.166 14.015 C 18.289 13.435,18.298 12.383,18.185 11.780 C 17.824 9.842,16.625 8.244,14.865 7.354 C 14.344 7.091,13.956 6.951,13.377 6.817 C 12.957 6.720,12.807 6.706,12.120 6.698 C 11.691 6.693,11.277 6.696,11.200 6.706 M11.496 10.059 C 10.563 10.262,9.814 10.982,9.581 11.898 C 9.503 12.204,9.503 12.796,9.581 13.102 C 9.787 13.913,10.418 14.594,11.208 14.858 C 12.584 15.317,14.062 14.509,14.419 13.102 C 14.497 12.796,14.497 12.204,14.419 11.898 C 14.092 10.611,12.773 9.782,11.496 10.059 M11.713 16.054 C 11.366 16.183,11.093 16.445,10.028 17.668 C 8.226 19.737,7.858 20.371,8.059 21.063 C 8.150 21.374,8.402 21.632,8.737 21.756 C 9.271 21.954,9.608 21.977,12.000 21.977 C 14.392 21.977,14.729 21.954,15.263 21.756 C 15.598 21.632,15.850 21.374,15.941 21.063 C 16.146 20.356,15.771 19.722,13.838 17.520 C 12.983 16.545,12.741 16.303,12.452 16.133 C 12.246 16.012,11.918 15.977,11.713 16.054 " fill="#1C274C" stroke="none" fill-rule="evenodd"></path></svg>