<svg width="24" height="24" viewBox="0 0 24 24" fill="none" xmlns="http://www.w3.org/2000/svg"><path d="M9.340 2.047 C 8.989 2.112,8.513 2.372,8.233 2.651 C 7.896 2.986,7.720 3.302,7.518 3.934 C 7.306 4.595,7.213 4.781,6.986 4.990 C 6.646 5.303,6.693 5.296,4.920 5.319 L 3.340 5.340 3.153 5.450 C 2.759 5.682,2.638 6.272,2.907 6.653 C 2.969 6.742,3.099 6.856,3.196 6.907 L 3.373 7.000 11.728 7.000 C 19.185 7.000,20.099 6.993,20.231 6.938 C 20.845 6.682,20.921 5.851,20.366 5.462 L 20.193 5.340 18.627 5.320 C 17.091 5.300,17.056 5.298,16.875 5.208 C 16.622 5.082,16.379 4.867,16.261 4.665 C 16.206 4.572,16.088 4.263,15.997 3.978 C 15.906 3.693,15.776 3.352,15.707 3.220 C 15.528 2.880,15.051 2.413,14.711 2.248 C 14.222 2.008,14.130 2.001,11.720 2.005 C 10.521 2.007,9.450 2.026,9.340 2.047 M6.500 8.025 C 5.681 8.096,5.290 8.255,5.043 8.618 C 4.697 9.126,4.690 9.529,4.957 13.780 C 5.068 15.562,5.187 17.335,5.221 17.720 C 5.386 19.597,5.659 20.466,6.276 21.079 C 6.626 21.427,6.911 21.591,7.416 21.738 C 8.147 21.950,8.443 21.969,11.277 21.989 C 13.945 22.008,14.862 21.980,15.564 21.859 C 16.669 21.668,17.343 21.197,17.746 20.332 C 18.018 19.750,18.184 18.887,18.299 17.460 C 18.368 16.619,18.702 11.275,18.744 10.360 C 18.811 8.890,18.516 8.321,17.565 8.089 C 17.329 8.032,16.725 8.024,11.980 8.018 C 9.054 8.015,6.588 8.018,6.500 8.025 " fill="#1C274C" stroke="none" fill-rule="evenodd"></path></svg>