<svg width="24" height="24" viewBox="0 0 24 24" fill="none" xmlns="http://www.w3.org/2000/svg"><path d="M9.551 2.062 C 9.073 2.178,8.597 2.494,8.295 2.895 C 8.035 3.241,7.948 3.431,7.744 4.098 C 7.645 4.421,7.520 4.761,7.465 4.853 C 7.327 5.087,7.095 5.300,6.860 5.408 C 6.665 5.498,6.622 5.500,5.100 5.520 C 3.619 5.539,3.533 5.544,3.401 5.622 C 3.097 5.800,2.933 6.278,3.042 6.666 C 3.109 6.908,3.363 7.176,3.580 7.236 C 3.807 7.298,20.193 7.298,20.420 7.236 C 20.637 7.176,20.891 6.908,20.958 6.666 C 21.071 6.264,20.909 5.811,20.585 5.621 L 20.413 5.520 18.990 5.520 C 17.386 5.520,17.266 5.503,16.886 5.224 C 16.595 5.011,16.456 4.761,16.254 4.095 C 16.054 3.435,15.966 3.242,15.705 2.895 C 15.397 2.486,14.926 2.177,14.431 2.060 C 14.075 1.976,9.898 1.978,9.551 2.062 M6.505 8.364 C 5.684 8.451,5.284 8.732,5.088 9.360 C 4.979 9.713,5.009 10.815,5.215 14.000 C 5.487 18.189,5.538 18.736,5.743 19.600 C 6.004 20.700,6.607 21.408,7.534 21.702 C 8.284 21.940,9.170 21.998,12.000 21.998 C 14.830 21.998,15.716 21.940,16.466 21.702 C 17.393 21.408,17.987 20.710,18.256 19.600 C 18.460 18.756,18.511 18.216,18.784 14.000 C 18.991 10.815,19.021 9.713,18.912 9.360 C 18.764 8.887,18.471 8.590,18.019 8.458 C 17.909 8.426,17.639 8.382,17.419 8.361 C 16.931 8.313,6.958 8.316,6.505 8.364 M9.781 11.538 C 9.948 11.608,10.111 11.773,10.185 11.948 C 10.254 12.111,10.772 17.515,10.737 17.704 C 10.677 18.024,10.324 18.318,10.000 18.318 C 9.679 18.318,9.375 18.073,9.284 17.740 C 9.237 17.570,8.760 12.590,8.760 12.273 C 8.760 12.032,8.814 11.893,8.972 11.725 C 9.199 11.486,9.494 11.418,9.781 11.538 M14.823 11.561 C 15.062 11.677,15.211 11.909,15.231 12.193 C 15.248 12.453,14.786 17.448,14.719 17.719 C 14.601 18.199,14.129 18.440,13.695 18.243 C 13.605 18.202,13.485 18.108,13.429 18.034 C 13.213 17.748,13.211 17.822,13.498 14.827 C 13.655 13.189,13.783 12.023,13.815 11.947 C 13.987 11.544,14.434 11.373,14.823 11.561 " fill="#1C274C" stroke="none" fill-rule="evenodd"></path></svg>