<svg width="24" height="24" viewBox="0 0 24 24" fill="none" xmlns="http://www.w3.org/2000/svg"><path d="M11.344 2.062 C 10.249 2.268,9.326 2.917,8.905 3.775 C 8.680 4.233,8.524 4.952,8.521 5.549 L 8.520 5.798 6.030 5.809 L 3.540 5.820 3.354 5.929 C 2.904 6.194,2.888 6.819,3.324 7.107 L 3.494 7.220 12.000 7.220 L 20.506 7.220 20.676 7.107 C 21.112 6.819,21.096 6.194,20.646 5.929 L 20.460 5.820 17.976 5.809 L 15.492 5.798 15.468 5.369 C 15.379 3.822,14.733 2.843,13.442 2.298 C 12.816 2.035,11.984 1.941,11.344 2.062 M6.564 8.723 C 6.005 8.796,5.615 9.004,5.421 9.334 C 5.236 9.650,5.189 10.003,5.214 10.880 C 5.239 11.761,5.566 16.942,5.662 17.979 C 5.824 19.733,6.073 20.512,6.660 21.102 C 7.425 21.871,8.189 21.999,12.000 21.999 C 15.811 21.999,16.575 21.871,17.340 21.102 C 17.927 20.512,18.176 19.733,18.338 17.979 C 18.434 16.944,18.763 11.720,18.787 10.860 C 18.804 10.258,18.795 10.039,18.745 9.806 C 18.601 9.129,18.227 8.827,17.400 8.721 C 17.031 8.674,6.931 8.676,6.564 8.723 " fill="#1C274C" stroke="none" fill-rule="evenodd"></path></svg>