<svg width="24" height="24" viewBox="0 0 24 24" fill="none" xmlns="http://www.w3.org/2000/svg"><path d="M11.344 2.062 C 10.249 2.268,9.326 2.917,8.905 3.775 C 8.680 4.233,8.524 4.952,8.521 5.549 L 8.520 5.798 6.030 5.809 L 3.540 5.820 3.354 5.929 C 2.904 6.194,2.888 6.819,3.324 7.107 L 3.494 7.220 12.000 7.220 L 20.506 7.220 20.676 7.107 C 21.112 6.819,21.096 6.194,20.646 5.929 L 20.460 5.820 17.976 5.809 L 15.492 5.798 15.468 5.369 C 15.379 3.822,14.733 2.843,13.442 2.298 C 12.816 2.035,11.984 1.941,11.344 2.062 M6.505 8.364 C 5.684 8.451,5.284 8.732,5.088 9.360 C 4.979 9.713,5.009 10.815,5.215 14.000 C 5.487 18.189,5.538 18.736,5.743 19.600 C 6.004 20.700,6.607 21.408,7.534 21.702 C 8.284 21.940,9.170 21.998,12.000 21.998 C 14.830 21.998,15.716 21.940,16.466 21.702 C 17.393 21.408,17.987 20.710,18.256 19.600 C 18.460 18.756,18.511 18.216,18.784 14.000 C 18.991 10.815,19.021 9.713,18.912 9.360 C 18.764 8.887,18.471 8.590,18.019 8.458 C 17.909 8.426,17.639 8.382,17.419 8.361 C 16.931 8.313,6.958 8.316,6.505 8.364 M9.781 11.538 C 9.948 11.608,10.111 11.773,10.185 11.948 C 10.254 12.111,10.772 17.515,10.737 17.704 C 10.677 18.024,10.324 18.318,10.000 18.318 C 9.679 18.318,9.375 18.073,9.284 17.740 C 9.237 17.570,8.760 12.590,8.760 12.273 C 8.760 12.032,8.814 11.893,8.972 11.725 C 9.199 11.486,9.494 11.418,9.781 11.538 M14.823 11.561 C 15.062 11.677,15.211 11.909,15.231 12.193 C 15.248 12.453,14.786 17.448,14.719 17.719 C 14.601 18.199,14.129 18.440,13.695 18.243 C 13.605 18.202,13.485 18.108,13.429 18.034 C 13.213 17.748,13.211 17.822,13.498 14.827 C 13.655 13.189,13.783 12.023,13.815 11.947 C 13.987 11.544,14.434 11.373,14.823 11.561 " fill="#1C274C" stroke="none" fill-rule="evenodd"></path></svg>