<svg width="24" height="24" viewBox="0 0 24 24" fill="none" xmlns="http://www.w3.org/2000/svg"><path d="M14.580 2.044 C 13.697 2.224,13.000 3.087,13.000 4.000 C 13.000 5.080,13.920 6.000,15.000 6.000 C 16.080 6.000,17.000 5.080,17.000 4.000 C 17.000 3.167,16.447 2.392,15.657 2.118 C 15.379 2.022,14.864 1.986,14.580 2.044 M8.015 5.077 C 7.608 5.187,7.444 5.279,5.644 6.407 C 4.539 7.100,3.990 7.467,3.908 7.568 C 3.769 7.741,3.723 8.027,3.798 8.253 C 3.880 8.503,4.254 8.765,4.520 8.758 C 4.679 8.754,4.986 8.579,6.517 7.622 C 7.424 7.054,8.251 6.564,8.354 6.532 C 9.060 6.313,9.812 6.884,9.812 7.641 C 9.812 8.032,9.716 8.206,9.205 8.738 C 8.495 9.479,8.281 9.923,8.249 10.726 C 8.226 11.307,8.300 11.674,8.532 12.134 C 8.676 12.419,8.771 12.534,9.284 13.040 C 10.140 13.885,10.240 14.118,10.240 15.274 C 10.240 15.649,10.260 16.049,10.284 16.162 C 10.405 16.725,11.111 16.929,11.521 16.519 C 11.740 16.300,11.776 16.084,11.748 15.140 C 11.730 14.510,11.709 14.315,11.628 14.000 C 11.421 13.204,11.103 12.696,10.403 12.040 C 10.011 11.672,9.910 11.553,9.820 11.352 C 9.723 11.138,9.713 11.072,9.729 10.804 C 9.753 10.391,9.843 10.233,10.357 9.701 C 10.591 9.459,10.848 9.152,10.928 9.020 C 11.261 8.471,11.386 7.779,11.264 7.158 C 11.180 6.725,10.913 6.176,10.640 5.870 C 10.368 5.566,9.898 5.263,9.500 5.133 C 9.060 4.990,8.423 4.966,8.015 5.077 M21.576 6.340 C 20.261 6.688,19.142 7.687,18.639 8.961 C 18.474 9.382,18.387 9.876,17.838 13.540 C 17.529 15.608,17.263 17.310,17.248 17.323 C 17.232 17.336,13.989 17.910,10.040 18.599 C 6.091 19.289,2.787 19.877,2.698 19.907 C 2.469 19.985,2.277 20.156,2.139 20.406 C 2.039 20.587,2.021 20.664,2.021 20.900 C 2.023 21.359,2.238 21.705,2.640 21.895 L 2.820 21.980 11.240 21.991 C 20.592 22.003,20.007 22.019,20.580 21.738 C 21.437 21.317,22.002 20.415,21.999 19.472 C 21.996 18.365,21.173 17.329,20.080 17.055 C 19.883 17.006,19.701 16.995,19.330 17.009 C 18.964 17.023,18.840 17.016,18.840 16.979 C 18.840 16.870,19.886 9.967,19.925 9.820 C 20.047 9.358,20.346 8.858,20.710 8.506 C 21.103 8.125,21.413 7.949,22.004 7.772 C 22.302 7.683,22.410 7.630,22.526 7.514 C 22.863 7.177,22.768 6.542,22.352 6.350 C 22.115 6.241,21.958 6.239,21.576 6.340 M12.420 9.260 C 12.398 9.267,12.331 9.284,12.271 9.297 C 12.124 9.329,11.881 9.548,11.814 9.708 C 11.692 10.001,11.775 10.340,12.024 10.558 C 12.413 10.899,13.983 11.086,14.940 10.904 C 15.612 10.776,15.842 10.690,16.028 10.497 C 16.284 10.231,16.314 9.857,16.101 9.578 C 15.853 9.252,15.643 9.206,15.080 9.350 C 14.707 9.446,14.587 9.459,14.000 9.459 C 13.410 9.459,13.295 9.447,12.920 9.349 C 12.689 9.289,12.491 9.241,12.480 9.243 C 12.469 9.245,12.442 9.252,12.420 9.260 M6.813 13.288 C 6.698 13.312,6.571 13.391,6.403 13.541 C 5.475 14.368,4.651 14.696,3.356 14.754 C 2.728 14.782,2.724 14.783,2.572 14.905 C 2.355 15.081,2.269 15.248,2.269 15.494 C 2.269 15.740,2.344 15.903,2.537 16.072 C 2.723 16.235,2.857 16.256,3.576 16.228 C 4.961 16.174,6.128 15.723,7.206 14.826 C 7.538 14.550,7.665 14.386,7.713 14.169 C 7.837 13.618,7.376 13.167,6.813 13.288 " fill="#1C274C" stroke="none" fill-rule="evenodd"></path></svg>