<svg width="24" height="24" viewBox="0 0 24 24" fill="none" xmlns="http://www.w3.org/2000/svg"><path d="M14.580 2.044 C 13.697 2.224,13.000 3.087,13.000 4.000 C 13.000 5.080,13.920 6.000,15.000 6.000 C 16.080 6.000,17.000 5.080,17.000 4.000 C 17.000 3.167,16.447 2.392,15.657 2.118 C 15.379 2.022,14.864 1.986,14.580 2.044 M8.460 5.303 C 7.894 5.382,7.690 5.424,7.360 5.529 C 6.822 5.700,6.454 5.897,5.164 6.707 C 4.417 7.175,3.987 7.471,3.908 7.568 C 3.769 7.741,3.723 8.027,3.798 8.253 C 3.880 8.503,4.254 8.765,4.520 8.758 C 4.673 8.754,4.944 8.605,6.041 7.919 C 7.256 7.160,7.646 6.964,8.165 6.856 C 8.735 6.737,9.570 6.802,10.096 7.004 C 10.340 7.099,10.440 7.206,10.440 7.372 C 10.440 7.479,10.316 7.620,9.485 8.457 C 8.224 9.728,8.085 9.952,8.050 10.780 C 8.029 11.280,8.089 11.584,8.281 11.957 C 8.464 12.311,8.657 12.518,9.349 13.098 C 9.799 13.475,10.032 13.700,10.109 13.831 L 10.220 14.020 10.241 15.100 C 10.263 16.296,10.281 16.385,10.536 16.580 C 10.981 16.919,11.607 16.683,11.721 16.134 C 11.791 15.799,11.750 14.068,11.664 13.730 C 11.503 13.093,11.202 12.694,10.341 11.978 C 9.620 11.378,9.520 11.247,9.520 10.906 C 9.520 10.802,9.548 10.651,9.582 10.569 C 9.622 10.472,9.994 10.067,10.637 9.420 C 11.498 8.552,11.645 8.385,11.753 8.158 C 12.152 7.312,11.861 6.292,11.088 5.826 C 10.606 5.536,9.786 5.327,9.025 5.301 C 8.780 5.293,8.526 5.294,8.460 5.303 M21.000 6.439 C 19.882 6.672,19.807 6.692,19.510 6.850 C 19.078 7.078,18.787 7.512,18.667 8.106 C 18.635 8.264,18.325 10.397,17.978 12.846 C 17.632 15.296,17.344 17.305,17.339 17.311 C 17.335 17.317,14.093 17.888,10.136 18.579 C 6.178 19.270,2.850 19.863,2.740 19.897 C 2.479 19.977,2.285 20.141,2.139 20.406 C 2.039 20.587,2.021 20.664,2.021 20.900 C 2.023 21.360,2.241 21.712,2.640 21.896 L 2.820 21.980 11.240 21.991 C 20.500 22.003,19.986 22.016,20.536 21.763 C 21.403 21.366,22.002 20.428,21.999 19.472 C 21.996 18.365,21.173 17.329,20.081 17.056 C 19.890 17.008,19.699 16.995,19.352 17.008 C 18.895 17.024,18.883 17.022,18.901 16.942 C 18.911 16.897,19.172 15.069,19.480 12.880 C 20.096 8.520,20.142 8.225,20.223 8.158 C 20.253 8.133,20.712 8.024,21.242 7.916 C 21.773 7.809,22.269 7.691,22.346 7.655 C 22.851 7.415,22.855 6.582,22.352 6.350 C 22.092 6.230,21.966 6.239,21.000 6.439 M12.420 9.259 C 12.398 9.267,12.331 9.284,12.271 9.297 C 12.124 9.329,11.881 9.548,11.814 9.708 C 11.691 10.002,11.771 10.336,12.015 10.550 C 12.095 10.621,12.211 10.693,12.271 10.709 C 12.331 10.726,13.127 10.740,14.040 10.740 C 15.886 10.740,15.821 10.749,16.072 10.463 C 16.371 10.123,16.258 9.589,15.836 9.340 C 15.707 9.264,15.620 9.260,14.080 9.252 C 13.189 9.248,12.442 9.251,12.420 9.259 M6.806 13.289 C 6.655 13.321,6.547 13.408,6.000 13.938 C 5.594 14.330,5.299 14.582,5.174 14.643 C 4.988 14.734,4.934 14.739,3.854 14.759 L 2.727 14.780 2.574 14.904 C 2.355 15.081,2.269 15.248,2.269 15.494 C 2.269 15.806,2.458 16.094,2.733 16.197 C 2.915 16.266,4.758 16.252,5.185 16.179 C 5.861 16.062,6.304 15.773,7.185 14.873 C 7.614 14.434,7.674 14.356,7.710 14.187 C 7.834 13.609,7.386 13.165,6.806 13.289 " fill="#1C274C" stroke="none" fill-rule="evenodd"></path></svg>