<svg width="24" height="24" viewBox="0 0 24 24" fill="none" xmlns="http://www.w3.org/2000/svg"><path d="M11.500 2.062 C 11.346 2.096,10.851 2.250,10.400 2.406 C 9.949 2.561,9.222 2.811,8.783 2.962 C 8.039 3.218,7.137 3.462,6.580 3.558 C 6.448 3.581,6.079 3.626,5.760 3.659 C 5.041 3.733,4.848 3.776,4.522 3.934 C 4.058 4.158,3.747 4.548,3.569 5.125 C 3.510 5.318,3.502 5.782,3.490 9.670 L 3.477 14.000 12.000 14.000 L 20.523 14.000 20.510 9.670 C 20.498 5.782,20.490 5.318,20.431 5.125 C 20.253 4.547,19.941 4.158,19.478 3.934 C 19.142 3.772,18.984 3.737,18.244 3.660 C 16.966 3.527,16.310 3.358,14.323 2.653 C 13.676 2.423,12.983 2.190,12.783 2.136 C 12.315 2.009,11.864 1.983,11.500 2.062 M10.840 6.342 C 10.977 6.412,11.146 6.597,11.197 6.733 C 11.257 6.891,11.250 7.138,11.181 7.304 C 11.111 7.471,10.181 8.432,9.925 8.601 C 9.602 8.815,9.297 8.798,9.013 8.549 C 8.767 8.332,8.691 8.002,8.819 7.696 C 8.884 7.541,9.795 6.590,10.044 6.417 C 10.299 6.241,10.589 6.213,10.840 6.342 M13.840 7.342 C 13.977 7.412,14.146 7.597,14.197 7.733 C 14.258 7.894,14.250 8.139,14.178 8.311 C 14.106 8.483,11.212 11.410,10.924 11.601 C 10.603 11.815,10.297 11.798,10.013 11.549 C 9.765 11.330,9.691 11.002,9.822 10.689 C 9.888 10.531,12.766 7.610,13.049 7.414 C 13.298 7.241,13.590 7.214,13.840 7.342 M14.840 10.342 C 14.977 10.412,15.146 10.597,15.197 10.733 C 15.257 10.891,15.250 11.138,15.181 11.304 C 15.111 11.471,14.181 12.432,13.925 12.601 C 13.602 12.815,13.297 12.798,13.013 12.549 C 12.767 12.332,12.691 12.002,12.819 11.696 C 12.884 11.541,13.795 10.590,14.044 10.417 C 14.299 10.241,14.589 10.213,14.840 10.342 M2.667 15.065 C 2.542 15.103,2.412 15.186,2.299 15.298 C 1.993 15.605,1.958 15.880,2.040 17.351 C 2.123 18.857,2.318 19.499,2.865 20.079 C 3.153 20.385,3.550 20.617,4.001 20.744 L 4.240 20.811 4.240 21.383 C 4.240 21.698,4.260 22.049,4.284 22.162 C 4.405 22.725,5.111 22.929,5.520 22.520 C 5.713 22.327,5.760 22.120,5.760 21.468 L 5.760 20.980 8.500 20.992 L 11.240 21.005 11.240 18.002 L 11.240 15.000 7.050 15.003 C 3.465 15.005,2.832 15.014,2.667 15.065 M12.760 18.002 L 12.760 21.005 15.500 20.992 L 18.240 20.980 18.240 21.468 C 18.240 22.120,18.287 22.327,18.480 22.520 C 18.889 22.929,19.595 22.725,19.716 22.162 C 19.740 22.049,19.760 21.698,19.760 21.383 L 19.760 20.811 19.999 20.744 C 20.450 20.617,20.847 20.385,21.135 20.079 C 21.682 19.499,21.877 18.857,21.960 17.351 C 22.042 15.881,22.007 15.605,21.701 15.299 C 21.386 14.984,21.644 15.000,16.933 15.000 L 12.760 15.000 12.760 18.002 M9.271 17.302 C 9.468 17.384,9.595 17.506,9.684 17.700 C 9.863 18.086,9.680 18.527,9.271 18.698 C 9.052 18.789,6.948 18.789,6.729 18.698 C 6.101 18.436,6.084 17.600,6.700 17.316 C 6.843 17.249,6.977 17.242,7.991 17.241 C 8.923 17.240,9.149 17.251,9.271 17.302 M17.271 17.302 C 17.468 17.384,17.595 17.506,17.684 17.700 C 17.863 18.086,17.680 18.527,17.271 18.698 C 17.052 18.789,14.948 18.789,14.729 18.698 C 14.101 18.436,14.084 17.600,14.700 17.316 C 14.843 17.249,14.977 17.242,15.991 17.241 C 16.923 17.240,17.149 17.251,17.271 17.302 " fill="#1C274C" stroke="none" fill-rule="evenodd"></path></svg>