<svg width="24" height="24" viewBox="0 0 24 24" fill="none" xmlns="http://www.w3.org/2000/svg"><path d="M3.807 4.289 C 3.691 4.314,3.584 4.376,3.481 4.479 C 3.289 4.671,3.240 4.880,3.240 5.500 C 3.240 6.119,3.289 6.329,3.480 6.520 C 3.889 6.929,4.595 6.725,4.716 6.162 C 4.771 5.904,4.772 5.080,4.717 4.841 C 4.620 4.420,4.247 4.194,3.807 4.289 M11.811 4.278 C 11.639 4.320,11.417 4.493,11.330 4.652 C 11.267 4.767,11.259 4.947,11.248 6.409 C 11.240 7.537,11.251 8.091,11.282 8.208 C 11.434 8.772,12.194 8.932,12.574 8.480 C 12.754 8.266,12.764 8.146,12.752 6.409 C 12.741 4.851,12.736 4.774,12.658 4.641 C 12.494 4.361,12.122 4.202,11.811 4.278 M19.807 4.289 C 19.558 4.342,19.342 4.570,19.284 4.838 C 19.223 5.123,19.223 9.877,19.284 10.162 C 19.447 10.920,20.553 10.920,20.716 10.162 C 20.775 9.888,20.775 5.095,20.717 4.841 C 20.620 4.420,20.247 4.194,19.807 4.289 M3.680 8.024 C 3.462 8.065,3.089 8.217,2.893 8.347 C 2.539 8.581,2.263 8.936,2.110 9.356 C 1.993 9.675,1.994 10.327,2.112 10.650 C 2.323 11.228,2.774 11.678,3.356 11.890 C 3.673 12.006,4.327 12.006,4.644 11.890 C 5.226 11.678,5.677 11.228,5.888 10.650 C 6.012 10.310,6.009 9.670,5.881 9.340 C 5.575 8.548,4.914 8.057,4.102 8.020 C 3.925 8.012,3.735 8.014,3.680 8.024 M11.680 10.024 C 11.462 10.065,11.089 10.217,10.893 10.347 C 10.539 10.581,10.263 10.936,10.110 11.356 C 9.993 11.675,9.994 12.327,10.112 12.650 C 10.323 13.228,10.774 13.678,11.356 13.890 C 11.673 14.006,12.327 14.006,12.644 13.890 C 13.226 13.678,13.677 13.228,13.888 12.650 C 14.012 12.310,14.009 11.670,13.881 11.340 C 13.575 10.548,12.914 10.057,12.102 10.020 C 11.925 10.012,11.735 10.014,11.680 10.024 M19.680 12.024 C 19.462 12.065,19.089 12.217,18.893 12.347 C 18.539 12.581,18.263 12.936,18.110 13.356 C 17.993 13.675,17.994 14.327,18.112 14.650 C 18.323 15.228,18.774 15.678,19.356 15.890 C 19.673 16.006,20.327 16.006,20.644 15.890 C 21.226 15.678,21.677 15.228,21.888 14.650 C 22.012 14.310,22.009 13.670,21.881 13.340 C 21.575 12.548,20.914 12.057,20.102 12.020 C 19.925 12.012,19.735 12.014,19.680 12.024 M3.807 13.289 C 3.558 13.342,3.342 13.570,3.284 13.838 C 3.223 14.123,3.223 18.877,3.284 19.162 C 3.447 19.920,4.553 19.920,4.716 19.162 C 4.775 18.888,4.775 14.095,4.717 13.841 C 4.620 13.420,4.247 13.194,3.807 13.289 M11.807 15.289 C 11.558 15.342,11.342 15.570,11.284 15.838 C 11.224 16.117,11.224 18.883,11.284 19.162 C 11.317 19.313,11.369 19.409,11.480 19.520 C 11.889 19.929,12.595 19.725,12.716 19.162 C 12.773 18.894,12.774 16.090,12.717 15.841 C 12.620 15.420,12.247 15.194,11.807 15.289 M19.807 17.289 C 19.691 17.314,19.584 17.376,19.481 17.479 C 19.289 17.671,19.240 17.880,19.240 18.500 C 19.240 19.119,19.289 19.329,19.480 19.520 C 19.889 19.929,20.595 19.725,20.716 19.162 C 20.771 18.904,20.772 18.080,20.717 17.841 C 20.620 17.420,20.247 17.194,19.807 17.289 " fill="#1C274C" stroke="none" fill-rule="evenodd"></path></svg>