<svg width="24" height="24" viewBox="0 0 24 24" fill="none" xmlns="http://www.w3.org/2000/svg"><path d="M13.580 2.044 C 12.697 2.224,12.000 3.087,12.000 4.000 C 12.000 5.080,12.920 6.000,14.000 6.000 C 15.080 6.000,16.000 5.080,16.000 4.000 C 16.000 3.167,15.447 2.392,14.657 2.118 C 14.379 2.022,13.864 1.986,13.580 2.044 M4.807 3.287 C 4.568 3.341,4.341 3.572,4.289 3.816 C 4.197 4.246,4.431 4.629,4.838 4.716 C 5.123 4.777,9.877 4.777,10.162 4.716 C 10.920 4.553,10.920 3.447,10.162 3.284 C 9.900 3.228,5.060 3.231,4.807 3.287 M17.807 3.287 C 17.568 3.341,17.341 3.572,17.289 3.816 C 17.197 4.246,17.431 4.629,17.838 4.716 C 18.104 4.773,18.896 4.773,19.162 4.716 C 19.920 4.553,19.920 3.447,19.162 3.284 C 18.915 3.231,18.049 3.233,17.807 3.287 M11.680 10.024 C 11.462 10.065,11.089 10.217,10.893 10.347 C 10.539 10.581,10.263 10.936,10.110 11.356 C 9.993 11.675,9.994 12.327,10.112 12.650 C 10.323 13.228,10.774 13.678,11.356 13.890 C 11.673 14.006,12.327 14.006,12.644 13.890 C 13.226 13.678,13.677 13.228,13.888 12.650 C 14.012 12.310,14.009 11.670,13.881 11.340 C 13.575 10.548,12.914 10.057,12.102 10.020 C 11.925 10.012,11.735 10.014,11.680 10.024 M4.807 11.287 C 4.568 11.341,4.341 11.572,4.289 11.816 C 4.197 12.246,4.431 12.629,4.838 12.716 C 5.117 12.776,7.883 12.776,8.162 12.716 C 8.920 12.553,8.920 11.447,8.162 11.284 C 7.905 11.229,5.056 11.232,4.807 11.287 M15.807 11.287 C 15.568 11.341,15.341 11.572,15.289 11.816 C 15.197 12.246,15.431 12.629,15.838 12.716 C 16.117 12.776,18.883 12.776,19.162 12.716 C 19.920 12.553,19.920 11.447,19.162 11.284 C 18.905 11.229,16.056 11.232,15.807 11.287 M9.680 18.024 C 9.462 18.065,9.089 18.217,8.893 18.347 C 8.539 18.581,8.263 18.936,8.110 19.356 C 7.993 19.675,7.994 20.327,8.112 20.650 C 8.323 21.228,8.774 21.678,9.356 21.890 C 9.529 21.953,9.676 21.972,10.000 21.972 C 10.324 21.972,10.471 21.953,10.644 21.890 C 11.226 21.678,11.677 21.228,11.888 20.650 C 12.012 20.310,12.009 19.670,11.881 19.340 C 11.575 18.548,10.914 18.057,10.102 18.020 C 9.925 18.012,9.735 18.014,9.680 18.024 M4.807 19.287 C 4.276 19.406,4.085 20.125,4.480 20.520 C 4.671 20.711,4.881 20.760,5.500 20.760 C 6.119 20.760,6.329 20.711,6.520 20.520 C 6.929 20.111,6.725 19.405,6.162 19.284 C 5.915 19.231,5.049 19.233,4.807 19.287 M13.807 19.287 C 13.568 19.341,13.341 19.572,13.289 19.816 C 13.197 20.246,13.431 20.629,13.838 20.716 C 14.123 20.777,18.877 20.777,19.162 20.716 C 19.920 20.553,19.920 19.447,19.162 19.284 C 18.900 19.228,14.060 19.231,13.807 19.287 " fill="#1C274C" stroke="none" fill-rule="evenodd"></path></svg>