<svg width="24" height="24" viewBox="0 0 24 24" fill="none" xmlns="http://www.w3.org/2000/svg"><path d="M8.440 2.043 C 7.012 2.094,5.996 2.226,5.213 2.462 C 3.811 2.885,2.890 3.808,2.459 5.221 C 2.103 6.387,2.001 7.900,2.001 12.000 C 2.001 16.100,2.103 17.613,2.459 18.779 C 2.891 20.195,3.805 21.109,5.221 21.541 C 6.387 21.897,7.900 21.999,12.000 21.999 C 16.100 21.999,17.613 21.897,18.779 21.541 C 20.195 21.109,21.109 20.195,21.541 18.779 C 21.897 17.613,21.999 16.101,21.999 11.980 C 21.999 7.887,21.899 6.409,21.538 5.213 C 21.116 3.814,20.186 2.884,18.787 2.462 C 17.969 2.215,17.046 2.101,15.393 2.041 C 14.150 1.996,9.732 1.997,8.440 2.043 M8.209 4.282 C 8.408 4.337,8.595 4.501,8.685 4.698 C 8.746 4.834,8.758 4.964,8.758 5.500 C 8.758 6.194,8.720 6.360,8.515 6.548 C 8.129 6.903,7.537 6.781,7.316 6.300 C 7.254 6.166,7.242 6.037,7.241 5.509 C 7.240 4.690,7.316 4.493,7.700 4.316 C 7.883 4.231,7.998 4.223,8.209 4.282 M16.209 4.282 C 16.408 4.337,16.595 4.501,16.685 4.698 C 16.754 4.850,16.758 5.024,16.758 7.500 C 16.758 9.982,16.754 10.150,16.684 10.300 C 16.406 10.904,15.594 10.904,15.316 10.300 C 15.246 10.150,15.242 9.981,15.241 7.509 C 15.240 5.223,15.248 4.858,15.302 4.729 C 15.384 4.532,15.506 4.405,15.700 4.316 C 15.883 4.231,15.998 4.223,16.209 4.282 M8.811 7.375 C 9.658 7.639,10.345 8.324,10.631 9.189 C 10.719 9.456,10.733 9.570,10.733 10.000 C 10.733 10.433,10.719 10.543,10.628 10.820 C 10.482 11.260,10.271 11.601,9.936 11.936 C 9.601 12.271,9.260 12.482,8.820 12.628 C 8.543 12.719,8.433 12.733,8.000 12.733 C 7.567 12.733,7.457 12.719,7.180 12.628 C 6.740 12.482,6.399 12.271,6.064 11.936 C 5.729 11.601,5.518 11.260,5.372 10.820 C 5.281 10.543,5.267 10.433,5.267 10.000 C 5.267 9.567,5.281 9.457,5.372 9.180 C 5.699 8.191,6.518 7.479,7.560 7.279 C 7.862 7.221,8.466 7.267,8.811 7.375 M7.616 8.814 C 6.747 9.099,6.475 10.235,7.120 10.880 C 7.368 11.128,7.606 11.220,8.000 11.220 C 8.279 11.220,8.375 11.203,8.537 11.123 C 8.788 11.000,9.000 10.788,9.123 10.537 C 9.262 10.254,9.262 9.746,9.123 9.463 C 9.000 9.213,8.787 9.000,8.541 8.881 C 8.306 8.767,7.859 8.735,7.616 8.814 M16.811 11.375 C 17.658 11.639,18.345 12.324,18.631 13.189 C 18.719 13.456,18.733 13.570,18.733 14.000 C 18.733 14.433,18.719 14.543,18.628 14.820 C 18.482 15.260,18.271 15.601,17.936 15.936 C 17.601 16.271,17.260 16.482,16.820 16.628 C 16.543 16.719,16.433 16.733,16.000 16.733 C 15.567 16.733,15.457 16.719,15.180 16.628 C 14.740 16.482,14.399 16.271,14.064 15.936 C 13.729 15.601,13.518 15.260,13.372 14.820 C 13.281 14.543,13.267 14.433,13.267 14.000 C 13.267 13.567,13.281 13.457,13.372 13.180 C 13.699 12.191,14.518 11.479,15.560 11.279 C 15.862 11.221,16.466 11.267,16.811 11.375 M15.591 12.819 C 15.076 13.014,14.760 13.466,14.760 14.004 C 14.760 15.104,16.099 15.657,16.878 14.878 C 17.481 14.275,17.308 13.255,16.539 12.879 C 16.296 12.760,15.824 12.730,15.591 12.819 M8.209 13.282 C 8.408 13.337,8.595 13.501,8.685 13.698 C 8.754 13.850,8.758 14.024,8.758 16.500 C 8.758 18.982,8.754 19.150,8.684 19.300 C 8.406 19.904,7.594 19.904,7.316 19.300 C 7.246 19.150,7.242 18.981,7.241 16.509 C 7.240 14.223,7.248 13.858,7.302 13.729 C 7.384 13.532,7.506 13.405,7.700 13.316 C 7.883 13.231,7.998 13.223,8.209 13.282 M16.209 17.282 C 16.408 17.337,16.595 17.501,16.685 17.698 C 16.746 17.834,16.758 17.964,16.758 18.500 C 16.758 19.194,16.720 19.360,16.515 19.548 C 16.129 19.903,15.537 19.781,15.316 19.300 C 15.254 19.166,15.242 19.037,15.241 18.509 C 15.240 17.690,15.316 17.493,15.700 17.316 C 15.883 17.231,15.998 17.223,16.209 17.282 " fill="#1C274C" stroke="none" fill-rule="evenodd"></path></svg>