<svg width="24" height="24" viewBox="0 0 24 24" fill="none" xmlns="http://www.w3.org/2000/svg"><path d="M6.767 1.289 C 6.534 1.339,6.308 1.565,6.246 1.811 C 6.217 1.927,6.200 2.371,6.200 3.000 C 6.200 4.154,6.224 4.304,6.440 4.520 C 6.851 4.931,7.555 4.727,7.676 4.162 C 7.732 3.901,7.733 2.083,7.677 1.841 C 7.580 1.420,7.207 1.194,6.767 1.289 M16.771 1.279 C 16.600 1.319,16.377 1.492,16.290 1.652 C 16.225 1.771,16.219 2.041,16.209 5.413 C 16.201 7.993,16.211 9.093,16.243 9.211 C 16.302 9.431,16.533 9.659,16.758 9.719 C 17.158 9.827,17.570 9.599,17.678 9.209 C 17.705 9.112,17.720 7.824,17.720 5.495 C 17.720 1.653,17.723 1.716,17.514 1.493 C 17.349 1.318,17.014 1.221,16.771 1.279 M6.500 6.543 C 5.929 6.680,5.626 6.812,5.215 7.103 C 4.378 7.697,3.892 8.825,4.030 9.855 C 4.175 10.936,4.837 11.819,5.829 12.254 C 6.518 12.557,7.482 12.557,8.171 12.254 C 9.845 11.519,10.493 9.526,9.566 7.965 C 9.192 7.336,8.591 6.865,7.860 6.630 C 7.626 6.555,6.700 6.496,6.500 6.543 M16.500 11.543 C 15.929 11.680,15.626 11.812,15.215 12.103 C 14.378 12.697,13.892 13.825,14.030 14.855 C 14.175 15.936,14.837 16.819,15.829 17.254 C 16.518 17.557,17.482 17.557,18.171 17.254 C 19.845 16.519,20.493 14.526,19.566 12.965 C 19.192 12.336,18.591 11.865,17.860 11.630 C 17.626 11.555,16.700 11.496,16.500 11.543 M6.767 14.289 C 6.534 14.339,6.308 14.565,6.246 14.811 C 6.181 15.073,6.181 21.927,6.246 22.189 C 6.432 22.925,7.516 22.905,7.676 22.162 C 7.735 21.886,7.736 15.098,7.677 14.841 C 7.580 14.420,7.207 14.194,6.767 14.289 M16.767 19.289 C 16.534 19.339,16.308 19.565,16.246 19.811 C 16.184 20.060,16.184 21.940,16.246 22.189 C 16.432 22.925,17.516 22.905,17.676 22.162 C 17.732 21.901,17.733 20.083,17.677 19.841 C 17.580 19.420,17.207 19.194,16.767 19.289 " fill="#1C274C" stroke="none" fill-rule="evenodd"></path></svg>