<svg width="24" height="24" viewBox="0 0 24 24" fill="none" xmlns="http://www.w3.org/2000/svg"><path d="M8.440 2.043 C 7.012 2.094,5.996 2.226,5.213 2.462 C 3.811 2.885,2.890 3.808,2.459 5.221 C 2.103 6.387,2.001 7.900,2.001 12.000 C 2.001 16.100,2.103 17.613,2.459 18.779 C 2.891 20.195,3.805 21.109,5.221 21.541 C 6.387 21.897,7.900 21.999,12.000 21.999 C 16.100 21.999,17.613 21.897,18.779 21.541 C 20.195 21.109,21.109 20.195,21.541 18.779 C 21.897 17.613,21.999 16.101,21.999 11.980 C 21.999 7.887,21.899 6.409,21.538 5.213 C 21.116 3.814,20.186 2.884,18.787 2.462 C 17.969 2.215,17.046 2.101,15.393 2.041 C 14.150 1.996,9.732 1.997,8.440 2.043 M14.811 5.375 C 15.658 5.639,16.345 6.324,16.631 7.189 C 16.719 7.456,16.733 7.570,16.733 8.000 C 16.733 8.433,16.719 8.543,16.628 8.820 C 16.482 9.260,16.271 9.601,15.936 9.936 C 15.601 10.271,15.260 10.482,14.820 10.628 C 14.543 10.719,14.433 10.733,14.000 10.733 C 13.567 10.733,13.457 10.719,13.180 10.628 C 12.740 10.482,12.399 10.271,12.064 9.936 C 11.729 9.601,11.518 9.260,11.372 8.820 C 11.281 8.543,11.267 8.433,11.267 8.000 C 11.267 7.567,11.281 7.457,11.372 7.180 C 11.699 6.191,12.518 5.479,13.560 5.279 C 13.862 5.221,14.466 5.267,14.811 5.375 M13.616 6.814 C 12.747 7.099,12.475 8.235,13.120 8.880 C 13.368 9.128,13.606 9.220,14.000 9.220 C 14.394 9.220,14.632 9.128,14.880 8.880 C 15.128 8.632,15.220 8.394,15.220 8.000 C 15.220 7.721,15.203 7.625,15.123 7.463 C 15.000 7.213,14.787 7.000,14.541 6.881 C 14.306 6.767,13.859 6.735,13.616 6.814 M10.209 7.282 C 10.628 7.398,10.864 7.875,10.698 8.271 C 10.616 8.468,10.494 8.595,10.300 8.684 C 10.150 8.754,9.981 8.758,7.509 8.759 C 5.223 8.760,4.858 8.752,4.729 8.698 C 4.101 8.436,4.084 7.600,4.700 7.316 C 4.850 7.246,5.017 7.242,7.460 7.241 C 9.128 7.241,10.113 7.255,10.209 7.282 M19.209 7.282 C 19.628 7.398,19.864 7.875,19.698 8.271 C 19.616 8.468,19.494 8.595,19.300 8.684 C 19.082 8.785,17.960 8.795,17.729 8.698 C 17.101 8.436,17.084 7.600,17.700 7.316 C 17.833 7.254,17.962 7.242,18.460 7.241 C 18.790 7.241,19.127 7.259,19.209 7.282 M10.811 13.375 C 11.658 13.639,12.345 14.324,12.631 15.189 C 12.719 15.456,12.733 15.570,12.733 16.000 C 12.733 16.433,12.719 16.543,12.628 16.820 C 12.482 17.260,12.271 17.601,11.936 17.936 C 11.601 18.271,11.260 18.482,10.820 18.628 C 10.543 18.719,10.433 18.733,10.000 18.733 C 9.567 18.733,9.457 18.719,9.180 18.628 C 8.740 18.482,8.399 18.271,8.064 17.936 C 7.729 17.601,7.518 17.260,7.372 16.820 C 7.281 16.543,7.267 16.433,7.267 16.000 C 7.267 15.567,7.281 15.457,7.372 15.180 C 7.699 14.191,8.518 13.479,9.560 13.279 C 9.862 13.221,10.466 13.267,10.811 13.375 M9.591 14.819 C 9.076 15.014,8.760 15.466,8.760 16.004 C 8.760 17.104,10.099 17.657,10.878 16.878 C 11.481 16.275,11.308 15.255,10.539 14.879 C 10.296 14.760,9.824 14.730,9.591 14.819 M6.209 15.282 C 6.628 15.398,6.864 15.875,6.698 16.271 C 6.616 16.468,6.494 16.595,6.300 16.684 C 6.082 16.785,4.960 16.795,4.729 16.698 C 4.101 16.436,4.084 15.600,4.700 15.316 C 4.833 15.254,4.962 15.242,5.460 15.241 C 5.790 15.241,6.127 15.259,6.209 15.282 M19.209 15.282 C 19.628 15.398,19.864 15.875,19.698 16.271 C 19.616 16.468,19.494 16.595,19.300 16.684 C 19.150 16.754,18.981 16.758,16.509 16.759 C 14.223 16.760,13.858 16.752,13.729 16.698 C 13.101 16.436,13.084 15.600,13.700 15.316 C 13.850 15.246,14.017 15.242,16.460 15.241 C 18.128 15.241,19.113 15.255,19.209 15.282 " fill="#1C274C" stroke="none" fill-rule="evenodd"></path></svg>