<svg width="24" height="24" viewBox="0 0 24 24" fill="none" xmlns="http://www.w3.org/2000/svg"><path d="M13.793 4.041 C 12.688 4.227,11.801 4.966,11.433 6.006 C 10.856 7.636,11.782 9.417,13.446 9.879 C 15.026 10.318,16.636 9.426,17.127 7.840 C 17.260 7.410,17.259 6.596,17.125 6.160 C 16.854 5.276,16.190 4.545,15.362 4.221 C 14.874 4.029,14.271 3.960,13.793 4.041 M1.660 6.219 C 1.638 6.227,1.572 6.244,1.513 6.256 C 1.259 6.312,1.002 6.667,1.002 6.960 C 1.002 7.150,1.122 7.401,1.274 7.529 C 1.344 7.588,1.492 7.653,1.611 7.678 C 1.758 7.709,2.909 7.719,5.381 7.711 L 8.940 7.700 9.126 7.591 C 9.604 7.310,9.600 6.608,9.120 6.326 L 8.940 6.220 5.320 6.213 C 3.329 6.209,1.682 6.211,1.660 6.219 M19.660 6.218 C 19.638 6.226,19.572 6.244,19.513 6.256 C 19.259 6.312,19.002 6.667,19.002 6.960 C 19.002 7.150,19.122 7.401,19.274 7.529 C 19.476 7.698,19.729 7.727,20.891 7.713 L 21.940 7.700 22.126 7.591 C 22.605 7.309,22.598 6.597,22.114 6.320 C 21.941 6.221,21.933 6.220,20.820 6.212 C 20.204 6.207,19.682 6.210,19.660 6.218 M8.700 14.056 C 8.077 14.178,7.587 14.444,7.118 14.916 C 6.836 15.200,6.744 15.326,6.590 15.640 C 6.330 16.170,6.265 16.444,6.265 17.000 C 6.265 17.555,6.330 17.829,6.590 18.360 C 6.747 18.681,6.832 18.796,7.138 19.102 C 7.538 19.501,7.895 19.716,8.440 19.886 C 8.829 20.008,9.594 20.017,10.000 19.906 C 10.820 19.680,11.550 19.092,11.921 18.359 C 12.152 17.901,12.220 17.591,12.220 17.000 C 12.220 16.391,12.148 16.081,11.897 15.600 C 11.524 14.888,10.799 14.309,10.020 14.102 C 9.681 14.012,9.041 13.990,8.700 14.056 M1.660 16.218 C 1.638 16.226,1.572 16.244,1.513 16.256 C 1.259 16.312,1.002 16.667,1.002 16.960 C 1.002 17.150,1.122 17.401,1.274 17.529 C 1.476 17.698,1.729 17.727,2.891 17.713 L 3.940 17.700 4.126 17.591 C 4.605 17.309,4.598 16.597,4.114 16.320 C 3.941 16.221,3.933 16.220,2.820 16.212 C 2.204 16.207,1.682 16.210,1.660 16.218 M14.660 16.219 C 14.638 16.227,14.572 16.244,14.513 16.256 C 14.259 16.312,14.002 16.667,14.002 16.960 C 14.002 17.150,14.122 17.401,14.274 17.529 C 14.344 17.588,14.492 17.653,14.611 17.678 C 14.758 17.709,15.909 17.719,18.381 17.711 L 21.940 17.700 22.126 17.591 C 22.604 17.310,22.600 16.608,22.120 16.326 L 21.940 16.220 18.320 16.213 C 16.329 16.209,14.682 16.211,14.660 16.219 " fill="#1C274C" stroke="none" fill-rule="evenodd"></path></svg>