<svg width="24" height="24" viewBox="0 0 24 24" fill="none" xmlns="http://www.w3.org/2000/svg"><path d="M7.159 2.042 C 5.121 2.135,4.104 2.468,3.333 3.295 C 2.564 4.120,2.235 5.210,2.072 7.465 C 2.000 8.466,2.000 15.529,2.072 16.535 C 2.234 18.788,2.564 19.880,3.333 20.705 C 4.121 21.551,5.086 21.858,7.266 21.959 C 8.400 22.011,15.600 22.011,16.734 21.959 C 18.914 21.858,19.879 21.551,20.667 20.705 C 21.436 19.880,21.766 18.789,21.928 16.535 C 22.000 15.532,22.000 8.468,21.928 7.465 C 21.766 5.211,21.436 4.120,20.667 3.295 C 19.879 2.449,18.914 2.142,16.734 2.041 C 15.744 1.995,8.170 1.996,7.159 2.042 M17.488 6.804 C 18.294 6.971,19.029 7.706,19.196 8.512 C 19.257 8.807,19.250 9.299,19.181 9.558 C 19.022 10.156,18.556 10.739,18.031 10.998 L 17.765 11.129 17.751 13.194 L 17.738 15.260 17.631 15.580 C 17.443 16.137,17.108 16.612,16.668 16.943 C 16.384 17.157,15.322 17.701,15.113 17.740 C 14.601 17.836,14.139 17.322,14.278 16.808 C 14.352 16.532,14.486 16.420,15.130 16.094 C 15.780 15.764,15.967 15.615,16.123 15.297 L 16.220 15.100 16.231 13.116 L 16.243 11.132 15.973 10.999 C 15.443 10.739,14.979 10.158,14.819 9.558 C 14.750 9.299,14.743 8.807,14.804 8.512 C 14.966 7.727,15.665 7.008,16.451 6.817 C 16.715 6.753,17.213 6.747,17.488 6.804 M10.940 7.340 C 11.878 7.542,12.597 7.926,13.294 8.599 C 14.962 10.209,15.228 12.710,13.940 14.660 C 13.681 15.052,13.064 15.659,12.635 15.945 C 10.937 17.076,8.735 17.009,7.120 15.778 C 6.819 15.548,6.253 14.951,6.060 14.660 C 5.715 14.138,5.438 13.461,5.316 12.840 C 5.250 12.505,5.250 11.495,5.316 11.160 C 5.438 10.539,5.715 9.862,6.060 9.340 C 6.253 9.050,6.818 8.453,7.120 8.222 C 7.750 7.739,8.587 7.392,9.380 7.283 C 9.745 7.233,10.585 7.263,10.940 7.340 M16.811 8.278 C 16.258 8.413,16.068 9.118,16.475 9.525 C 16.884 9.933,17.572 9.751,17.722 9.194 C 17.868 8.650,17.363 8.143,16.811 8.278 M9.356 8.820 C 8.735 8.944,8.198 9.238,7.718 9.718 C 7.083 10.354,6.760 11.122,6.760 12.000 C 6.760 12.881,7.080 13.644,7.718 14.282 C 8.210 14.773,8.738 15.058,9.387 15.183 C 11.378 15.563,13.240 14.025,13.240 12.000 C 13.240 9.966,11.354 8.422,9.356 8.820 " fill="#1C274C" stroke="none" fill-rule="evenodd"></path></svg>