<svg width="24" height="24" viewBox="0 0 24 24" fill="none" xmlns="http://www.w3.org/2000/svg"><path d="M7.159 2.042 C 5.121 2.135,4.104 2.468,3.333 3.295 C 2.564 4.120,2.235 5.210,2.072 7.465 C 2.000 8.466,2.000 15.529,2.072 16.535 C 2.234 18.788,2.564 19.880,3.333 20.705 C 4.121 21.551,5.086 21.858,7.266 21.959 C 8.598 22.020,13.372 22.013,13.346 21.950 C 13.335 21.922,13.272 21.738,13.206 21.540 C 13.042 21.043,12.984 20.601,13.012 20.043 C 13.113 17.993,14.629 16.337,16.683 16.037 L 17.000 15.991 17.000 13.997 C 17.000 12.715,17.016 11.928,17.044 11.792 C 17.214 10.963,17.963 10.214,18.792 10.044 C 19.864 9.823,20.975 10.441,21.361 11.471 C 21.407 11.594,21.468 11.889,21.497 12.127 C 21.556 12.603,21.629 12.749,21.881 12.896 L 22.012 12.972 21.988 10.476 C 21.964 7.991,21.933 7.232,21.818 6.280 C 21.533 3.927,20.625 2.712,18.829 2.279 C 18.323 2.157,17.691 2.085,16.734 2.041 C 15.744 1.995,8.170 1.996,7.159 2.042 M12.507 8.282 C 12.939 8.341,13.538 8.552,13.930 8.785 C 14.374 9.047,14.953 9.626,15.215 10.070 C 15.782 11.027,15.902 12.166,15.545 13.209 C 15.349 13.780,15.090 14.190,14.640 14.640 C 14.190 15.090,13.780 15.349,13.209 15.545 C 12.166 15.902,11.027 15.782,10.070 15.215 C 9.626 14.953,9.047 14.374,8.785 13.930 C 8.218 12.973,8.098 11.834,8.455 10.791 C 8.651 10.220,8.910 9.810,9.360 9.360 C 10.215 8.505,11.331 8.123,12.507 8.282 M11.480 9.818 C 10.705 10.017,10.137 10.534,9.875 11.280 C 9.743 11.653,9.743 12.347,9.875 12.720 C 10.109 13.386,10.615 13.892,11.280 14.126 C 11.493 14.200,11.624 14.217,12.000 14.217 C 12.376 14.217,12.507 14.200,12.720 14.126 C 13.385 13.892,13.891 13.386,14.125 12.720 C 14.200 12.507,14.217 12.377,14.217 12.000 C 14.217 11.623,14.200 11.493,14.125 11.280 C 13.890 10.612,13.377 10.101,12.720 9.878 C 12.390 9.766,11.795 9.737,11.480 9.818 M18.940 11.567 C 18.811 11.638,18.638 11.811,18.566 11.940 C 18.507 12.048,18.499 12.343,18.489 14.925 L 18.477 17.790 18.240 17.694 C 17.889 17.552,17.592 17.509,17.100 17.529 C 16.359 17.559,15.854 17.787,15.299 18.340 C 14.773 18.864,14.510 19.504,14.513 20.260 C 14.514 20.668,14.559 20.902,14.708 21.278 C 15.003 22.023,15.632 22.607,16.420 22.868 C 16.696 22.959,16.809 22.974,17.240 22.976 C 17.616 22.978,17.799 22.960,17.980 22.904 C 18.891 22.625,19.579 21.949,19.894 21.023 C 19.974 20.788,19.977 20.687,19.990 18.030 C 19.997 16.518,20.013 15.280,20.024 15.280 C 20.036 15.280,20.126 15.335,20.224 15.402 C 20.654 15.699,21.391 15.946,21.958 15.986 C 22.413 16.017,22.587 15.967,22.792 15.744 C 22.979 15.541,23.040 15.293,22.965 15.041 C 22.864 14.704,22.627 14.545,22.160 14.502 C 21.995 14.487,21.761 14.447,21.640 14.414 C 20.805 14.183,20.144 13.419,20.036 12.560 C 20.012 12.373,19.985 12.164,19.975 12.094 C 19.951 11.915,19.803 11.716,19.619 11.611 C 19.444 11.512,19.082 11.488,18.940 11.567 M17.842 19.164 C 18.252 19.383,18.445 19.695,18.472 20.184 C 18.488 20.475,18.478 20.535,18.378 20.756 C 17.956 21.697,16.648 21.749,16.166 20.846 C 15.580 19.746,16.743 18.579,17.842 19.164 " fill="#1C274C" stroke="none" fill-rule="evenodd"></path></svg>