<svg width="24" height="24" viewBox="0 0 24 24" fill="none" xmlns="http://www.w3.org/2000/svg"><path d="M8.419 2.041 C 5.784 2.146,4.480 2.508,3.549 3.393 C 2.551 4.342,2.166 5.587,2.041 8.260 C 1.988 9.399,1.988 14.601,2.041 15.740 C 2.160 18.285,2.507 19.501,3.379 20.433 C 4.245 21.360,5.318 21.742,7.580 21.927 C 8.488 22.002,15.512 22.002,16.420 21.927 C 18.857 21.727,19.992 21.275,20.860 20.157 C 21.474 19.368,21.771 18.329,21.927 16.420 C 22.002 15.512,22.002 8.488,21.927 7.580 C 21.741 5.312,21.361 4.246,20.426 3.372 C 19.839 2.823,18.903 2.402,17.950 2.259 L 17.760 2.231 17.759 5.085 C 17.759 6.747,17.742 8.054,17.719 8.213 C 17.668 8.566,17.513 8.889,17.273 9.143 C 16.985 9.448,14.343 11.199,14.127 11.228 C 13.786 11.274,13.485 11.121,13.332 10.825 C 13.251 10.668,13.250 10.333,13.331 10.179 C 13.431 9.987,13.558 9.891,14.840 9.040 C 15.511 8.594,16.101 8.193,16.150 8.148 L 16.240 8.066 16.240 5.077 L 16.240 2.089 16.090 2.064 C 15.848 2.024,9.338 2.004,8.419 2.041 M12.460 6.281 C 13.038 6.329,13.726 6.488,13.925 6.619 C 14.208 6.806,14.321 7.246,14.164 7.552 C 14.053 7.767,13.910 7.884,13.684 7.943 C 13.503 7.989,13.448 7.985,13.092 7.896 C 12.049 7.633,10.997 7.753,10.040 8.243 C 7.817 9.380,7.072 12.256,8.459 14.341 C 10.148 16.879,13.875 16.868,15.554 14.320 C 15.963 13.699,16.178 13.036,16.241 12.205 C 16.270 11.823,16.291 11.727,16.375 11.600 C 16.526 11.373,16.725 11.267,17.003 11.267 C 17.281 11.267,17.496 11.387,17.645 11.627 C 17.731 11.765,17.739 11.820,17.731 12.192 C 17.676 14.863,15.674 17.179,13.000 17.666 C 12.486 17.759,11.514 17.759,11.000 17.666 C 8.621 17.233,6.755 15.357,6.339 12.980 C 6.245 12.446,6.245 11.554,6.339 11.020 C 6.787 8.462,8.901 6.511,11.473 6.282 C 11.664 6.265,11.856 6.249,11.900 6.246 C 11.944 6.243,12.196 6.259,12.460 6.281 M10.405 11.381 C 10.616 11.517,10.710 11.697,10.753 12.045 C 10.800 12.426,10.906 12.666,11.120 12.880 C 11.334 13.094,11.575 13.200,11.956 13.247 C 12.476 13.310,12.733 13.562,12.733 14.007 C 12.733 14.203,12.714 14.271,12.616 14.409 C 12.433 14.670,12.279 14.741,11.900 14.737 C 10.491 14.722,9.296 13.515,9.268 12.080 C 9.263 11.829,9.277 11.754,9.354 11.630 C 9.585 11.256,10.044 11.147,10.405 11.381 " fill="#1C274C" stroke="none" fill-rule="evenodd"></path></svg>