<svg width="24" height="24" viewBox="0 0 24 24" fill="none" xmlns="http://www.w3.org/2000/svg"><path d="M11.127 4.040 C 9.292 4.298,7.796 5.543,7.236 7.280 C 7.168 7.489,7.103 7.752,7.092 7.864 C 7.071 8.060,7.076 8.073,7.205 8.170 C 7.753 8.581,8.979 8.858,10.700 8.959 C 13.411 9.119,15.972 8.787,16.795 8.170 C 16.924 8.073,16.929 8.060,16.908 7.864 C 16.857 7.382,16.499 6.526,16.129 6.000 C 16.029 5.857,15.783 5.577,15.583 5.379 C 14.915 4.714,14.173 4.312,13.220 4.099 C 12.889 4.025,11.513 3.986,11.127 4.040 M5.140 8.795 C 2.720 9.772,1.623 11.105,2.122 12.460 C 2.431 13.298,3.379 14.103,4.762 14.705 L 5.190 14.891 4.552 15.954 C 3.767 17.260,3.760 17.274,3.760 17.500 C 3.760 17.916,4.084 18.240,4.500 18.240 C 4.692 18.240,4.934 18.140,5.046 18.014 C 5.083 17.973,5.458 17.364,5.880 16.660 C 6.302 15.956,6.653 15.374,6.660 15.368 C 6.666 15.361,6.781 15.384,6.916 15.419 C 7.968 15.691,9.057 15.844,10.950 15.985 L 11.240 16.007 11.240 17.533 C 11.240 18.524,11.256 19.116,11.285 19.219 C 11.344 19.432,11.578 19.660,11.798 19.719 C 12.198 19.827,12.610 19.599,12.718 19.209 C 12.743 19.118,12.760 18.460,12.760 17.533 L 12.760 16.007 13.050 15.985 C 14.943 15.844,16.032 15.691,17.084 15.419 C 17.219 15.384,17.334 15.361,17.340 15.368 C 17.347 15.374,17.698 15.956,18.120 16.660 C 18.542 17.364,18.917 17.973,18.954 18.014 C 19.066 18.140,19.308 18.240,19.500 18.240 C 19.916 18.240,20.240 17.916,20.240 17.500 C 20.240 17.274,20.233 17.260,19.448 15.953 L 18.808 14.888 19.114 14.760 C 20.234 14.294,21.243 13.562,21.649 12.920 C 22.603 11.412,21.542 9.855,18.831 8.785 C 18.574 8.683,18.355 8.600,18.345 8.600 C 18.336 8.600,18.274 8.695,18.208 8.812 C 17.764 9.598,16.443 10.147,14.433 10.378 C 13.048 10.538,10.952 10.538,9.567 10.378 C 7.557 10.147,6.236 9.598,5.792 8.812 C 5.726 8.695,5.661 8.600,5.646 8.600 C 5.632 8.601,5.404 8.688,5.140 8.795 M7.340 11.066 C 7.709 11.192,8.000 11.604,8.000 12.000 C 8.000 12.527,7.527 13.000,7.000 13.000 C 6.758 13.000,6.479 12.881,6.299 12.701 C 5.907 12.309,5.908 11.690,6.300 11.298 C 6.577 11.020,6.957 10.936,7.340 11.066 M17.340 11.066 C 17.709 11.192,18.000 11.604,18.000 12.000 C 18.000 12.527,17.527 13.000,17.000 13.000 C 16.758 13.000,16.479 12.881,16.299 12.701 C 15.907 12.309,15.908 11.690,16.300 11.298 C 16.577 11.020,16.957 10.936,17.340 11.066 M12.340 12.066 C 12.709 12.192,13.000 12.604,13.000 13.000 C 13.000 13.527,12.527 14.000,12.000 14.000 C 11.758 14.000,11.479 13.881,11.299 13.701 C 10.907 13.309,10.908 12.690,11.300 12.298 C 11.577 12.020,11.957 11.936,12.340 12.066 " fill="#1C274C" stroke="none" fill-rule="evenodd"></path></svg>