<svg width="24" height="24" viewBox="0 0 24 24" fill="none" xmlns="http://www.w3.org/2000/svg"><path d="M11.127 3.040 C 9.292 3.298,7.796 4.543,7.236 6.280 C 7.168 6.489,7.103 6.752,7.092 6.864 C 7.071 7.060,7.076 7.073,7.205 7.170 C 7.753 7.581,8.979 7.858,10.700 7.959 C 13.411 8.119,15.972 7.787,16.795 7.170 C 16.924 7.073,16.929 7.060,16.908 6.864 C 16.857 6.382,16.499 5.526,16.129 5.000 C 16.029 4.857,15.783 4.577,15.583 4.379 C 14.915 3.714,14.173 3.312,13.220 3.099 C 12.889 3.025,11.513 2.986,11.127 3.040 M5.140 7.795 C 2.720 8.772,1.623 10.105,2.122 11.460 C 2.871 13.492,7.077 14.999,12.000 14.999 C 15.478 14.999,18.740 14.232,20.558 12.987 C 20.936 12.728,21.466 12.210,21.649 11.920 C 22.603 10.412,21.542 8.855,18.831 7.785 C 18.574 7.683,18.355 7.600,18.345 7.600 C 18.336 7.600,18.274 7.695,18.208 7.812 C 17.764 8.598,16.443 9.147,14.433 9.378 C 12.583 9.591,10.087 9.522,8.502 9.215 C 7.118 8.946,6.149 8.444,5.792 7.812 C 5.726 7.695,5.661 7.600,5.646 7.600 C 5.632 7.601,5.404 7.688,5.140 7.795 M7.340 10.066 C 7.709 10.192,8.000 10.604,8.000 11.000 C 8.000 11.527,7.527 12.000,7.000 12.000 C 6.758 12.000,6.479 11.881,6.299 11.701 C 5.907 11.309,5.908 10.690,6.300 10.298 C 6.577 10.020,6.957 9.936,7.340 10.066 M17.340 10.066 C 17.709 10.192,18.000 10.604,18.000 11.000 C 18.000 11.527,17.527 12.000,17.000 12.000 C 16.758 12.000,16.479 11.881,16.299 11.701 C 15.907 11.309,15.908 10.690,16.300 10.298 C 16.577 10.020,16.957 9.936,17.340 10.066 M12.340 11.066 C 12.709 11.192,13.000 11.604,13.000 12.000 C 13.000 12.527,12.527 13.000,12.000 13.000 C 11.758 13.000,11.479 12.881,11.299 12.701 C 10.907 12.309,10.908 11.690,11.300 11.298 C 11.577 11.020,11.957 10.936,12.340 11.066 M5.807 16.289 C 5.558 16.342,5.342 16.570,5.284 16.838 C 5.224 17.117,5.224 19.883,5.284 20.162 C 5.317 20.313,5.369 20.409,5.480 20.520 C 5.889 20.929,6.595 20.725,6.716 20.162 C 6.773 19.894,6.774 17.090,6.717 16.841 C 6.620 16.420,6.247 16.194,5.807 16.289 M17.807 16.289 C 17.558 16.342,17.342 16.570,17.284 16.838 C 17.224 17.117,17.224 19.883,17.284 20.162 C 17.317 20.313,17.369 20.409,17.480 20.520 C 17.889 20.929,18.595 20.725,18.716 20.162 C 18.773 19.894,18.774 17.090,18.717 16.841 C 18.620 16.420,18.247 16.194,17.807 16.289 M11.807 17.289 C 11.558 17.342,11.342 17.570,11.284 17.838 C 11.224 18.117,11.224 20.883,11.284 21.162 C 11.317 21.313,11.369 21.409,11.480 21.520 C 11.889 21.929,12.595 21.725,12.716 21.162 C 12.773 20.894,12.774 18.090,12.717 17.841 C 12.620 17.420,12.247 17.194,11.807 17.289 " fill="#1C274C" stroke="none" fill-rule="evenodd"></path></svg>