<svg width="24" height="24" viewBox="0 0 24 24" fill="none" xmlns="http://www.w3.org/2000/svg"><path d="M6.760 3.583 C 6.241 3.695,5.776 4.002,5.520 4.400 C 4.270 6.347,6.460 10.925,10.420 14.641 C 13.970 17.974,17.857 19.599,19.600 18.480 C 20.752 17.741,20.775 15.839,19.662 13.515 L 19.516 13.211 19.128 13.190 C 18.460 13.154,17.746 12.870,16.854 12.285 C 15.893 11.654,15.103 10.978,13.899 9.754 C 12.257 8.086,11.357 6.825,10.953 5.628 C 10.857 5.342,10.826 5.175,10.816 4.880 L 10.803 4.500 10.371 4.294 C 9.592 3.923,8.764 3.656,8.100 3.561 C 7.708 3.506,7.068 3.516,6.760 3.583 M13.984 4.144 C 13.554 4.222,13.003 4.411,12.630 4.610 C 12.275 4.799,12.265 4.826,12.399 5.217 C 12.708 6.115,13.526 7.233,14.899 8.635 C 16.514 10.284,17.792 11.260,18.783 11.601 C 19.195 11.743,19.204 11.738,19.435 11.270 C 19.810 10.511,19.944 9.848,19.908 8.945 C 19.877 8.175,19.748 7.683,19.396 7.000 C 19.134 6.490,18.872 6.149,18.321 5.600 C 17.485 4.767,16.662 4.316,15.662 4.141 C 15.227 4.066,14.412 4.067,13.984 4.144 M9.621 6.871 C 10.094 7.114,10.292 7.696,10.065 8.182 C 9.788 8.778,9.029 8.942,8.540 8.512 C 8.283 8.285,8.188 8.082,8.188 7.756 C 8.188 7.320,8.439 6.965,8.860 6.807 C 9.034 6.741,9.435 6.775,9.621 6.871 M3.886 10.625 C 3.740 10.700,3.659 10.794,2.271 12.490 C 1.512 13.417,1.321 13.676,1.284 13.820 C 1.120 14.472,1.856 14.986,2.422 14.615 C 2.544 14.535,4.758 11.838,4.870 11.632 C 5.043 11.316,4.953 10.920,4.656 10.694 C 4.470 10.553,4.095 10.519,3.886 10.625 M12.340 11.066 C 12.709 11.192,13.000 11.604,13.000 12.000 C 13.000 12.527,12.527 13.000,12.000 13.000 C 11.758 13.000,11.479 12.881,11.299 12.701 C 10.907 12.309,10.908 11.690,11.300 11.298 C 11.577 11.020,11.957 10.936,12.340 11.066 M16.640 13.923 C 17.398 14.266,17.441 15.300,16.714 15.701 C 16.216 15.976,15.617 15.776,15.335 15.240 C 15.239 15.057,15.237 14.594,15.331 14.415 C 15.594 13.917,16.158 13.705,16.640 13.923 M7.560 15.529 C 7.391 15.565,7.249 15.697,5.228 17.713 C 4.044 18.894,3.043 19.914,3.003 19.980 C 2.605 20.633,3.367 21.395,4.020 20.997 C 4.086 20.957,5.106 19.956,6.286 18.772 C 8.352 16.700,8.433 16.613,8.471 16.429 C 8.541 16.090,8.405 15.763,8.132 15.614 C 7.934 15.506,7.782 15.483,7.560 15.529 M12.395 19.111 C 12.208 19.208,9.465 21.457,9.386 21.576 C 9.014 22.144,9.527 22.880,10.180 22.716 C 10.326 22.679,10.625 22.453,11.810 21.482 C 12.825 20.650,13.287 20.247,13.349 20.137 C 13.530 19.820,13.445 19.426,13.145 19.184 C 12.953 19.028,12.615 18.996,12.395 19.111 " fill="#1C274C" stroke="none" fill-rule="evenodd"></path></svg>