<svg width="24" height="24" viewBox="0 0 24 24" fill="none" xmlns="http://www.w3.org/2000/svg"><path d="M11.704 2.281 C 10.465 2.497,9.301 4.454,8.565 7.560 C 8.303 8.663,8.053 10.116,7.901 11.420 C 7.868 11.706,7.841 11.954,7.840 11.970 C 7.840 11.987,8.605 12.000,9.540 12.000 L 11.240 12.000 11.240 16.118 C 11.240 20.196,11.239 20.239,11.157 20.460 C 10.850 21.279,9.749 21.505,9.122 20.878 C 8.820 20.576,8.760 20.371,8.760 19.640 C 8.760 18.879,8.719 18.679,8.520 18.480 C 8.099 18.059,7.402 18.276,7.278 18.866 C 7.222 19.134,7.250 20.303,7.319 20.600 C 7.474 21.267,7.903 21.891,8.462 22.265 C 9.235 22.783,10.224 22.883,11.057 22.528 C 11.863 22.185,12.449 21.492,12.687 20.600 C 12.723 20.467,12.739 19.324,12.749 16.210 L 12.763 12.000 14.462 12.000 C 15.396 12.000,16.160 11.985,16.160 11.967 C 16.160 11.948,16.115 11.566,16.059 11.117 C 15.640 7.736,14.880 5.078,13.901 3.576 C 13.260 2.592,12.497 2.143,11.704 2.281 M8.620 2.456 C 6.834 3.050,5.391 4.027,4.181 5.460 C 3.497 6.271,2.834 7.474,2.485 8.540 C 2.099 9.718,1.883 11.361,2.063 11.741 C 2.187 12.001,2.175 12.000,4.355 12.000 L 6.318 12.000 6.335 11.910 C 6.345 11.861,6.400 11.415,6.458 10.920 C 6.878 7.350,7.739 4.412,8.857 2.740 C 9.002 2.524,9.120 2.341,9.120 2.333 C 9.120 2.301,8.992 2.332,8.620 2.456 M14.906 2.370 C 14.923 2.397,15.012 2.528,15.103 2.660 C 16.236 4.299,17.155 7.438,17.579 11.120 C 17.613 11.417,17.651 11.737,17.663 11.831 L 17.685 12.002 19.700 11.991 L 21.715 11.980 21.837 11.863 C 21.907 11.796,21.971 11.685,21.986 11.603 C 22.023 11.409,21.940 10.406,21.840 9.831 C 21.240 6.381,18.644 3.451,15.278 2.424 C 14.887 2.305,14.864 2.302,14.906 2.370 " fill="#1C274C" stroke="none" fill-rule="evenodd"></path></svg>