<svg width="24" height="24" viewBox="0 0 24 24" fill="none" xmlns="http://www.w3.org/2000/svg"><path d="M16.811 3.278 C 16.415 3.375,16.173 3.797,16.280 4.204 C 16.321 4.357,16.446 4.500,17.250 5.308 L 18.174 6.236 13.257 6.251 C 8.838 6.265,8.306 6.273,8.000 6.334 C 5.575 6.817,3.770 8.622,3.334 11.000 C 3.239 11.515,3.239 12.485,3.334 13.000 C 3.716 15.084,5.191 16.784,7.200 17.456 C 8.058 17.743,7.873 17.732,12.169 17.749 C 14.986 17.760,16.084 17.751,16.207 17.718 C 16.430 17.658,16.658 17.429,16.719 17.204 C 16.808 16.873,16.689 16.566,16.395 16.372 L 16.226 16.260 12.263 16.238 C 8.685 16.218,8.275 16.209,8.040 16.147 C 6.791 15.816,5.805 15.051,5.256 13.988 C 4.914 13.325,4.760 12.709,4.760 12.000 C 4.760 10.181,5.920 8.566,7.653 7.975 C 8.292 7.757,8.222 7.760,13.394 7.760 L 18.178 7.760 17.252 8.690 C 16.451 9.496,16.321 9.643,16.281 9.795 C 16.130 10.365,16.634 10.870,17.205 10.720 C 17.361 10.679,17.559 10.495,18.993 9.067 C 19.880 8.183,20.630 7.414,20.659 7.359 C 20.747 7.193,20.770 6.984,20.720 6.796 C 20.679 6.639,20.504 6.450,19.087 5.028 C 18.214 4.152,17.446 3.403,17.380 3.362 C 17.234 3.272,16.985 3.236,16.811 3.278 " fill="#1C274C" stroke="none" fill-rule="evenodd"></path></svg>