<svg width="24" height="24" viewBox="0 0 24 24" fill="none" xmlns="http://www.w3.org/2000/svg"><path d="M6.815 3.277 C 6.746 3.294,6.638 3.345,6.575 3.391 C 6.512 3.437,5.755 4.182,4.893 5.047 C 3.495 6.451,3.321 6.639,3.280 6.796 C 3.230 6.984,3.253 7.193,3.341 7.359 C 3.370 7.414,4.120 8.183,5.007 9.067 C 6.441 10.495,6.639 10.679,6.795 10.720 C 7.366 10.870,7.870 10.365,7.719 9.795 C 7.679 9.643,7.549 9.496,6.748 8.690 L 5.822 7.760 10.606 7.760 C 15.778 7.760,15.708 7.757,16.347 7.975 C 18.332 8.652,19.540 10.677,19.181 12.725 C 18.929 14.165,17.907 15.430,16.584 15.938 C 15.817 16.233,16.133 16.214,11.737 16.238 L 7.774 16.260 7.605 16.372 C 7.311 16.566,7.192 16.873,7.281 17.204 C 7.342 17.429,7.570 17.658,7.793 17.718 C 7.916 17.751,9.014 17.760,11.831 17.749 C 16.127 17.732,15.942 17.743,16.800 17.456 C 18.809 16.784,20.287 15.080,20.666 13.000 C 20.759 12.486,20.759 11.514,20.666 11.000 C 20.283 8.897,18.739 7.143,16.720 6.519 C 15.865 6.255,16.153 6.268,10.743 6.251 L 5.826 6.236 6.750 5.308 C 7.747 4.306,7.799 4.231,7.740 3.882 C 7.669 3.462,7.230 3.175,6.815 3.277 " fill="#1C274C" stroke="none" fill-rule="evenodd"></path></svg>