<svg width="24" height="24" viewBox="0 0 24 24" fill="none" xmlns="http://www.w3.org/2000/svg"><path d="M6.815 3.277 C 6.746 3.294,6.638 3.345,6.575 3.391 C 6.512 3.437,5.755 4.182,4.893 5.047 C 3.495 6.451,3.321 6.639,3.280 6.796 C 3.230 6.984,3.253 7.193,3.341 7.359 C 3.370 7.414,4.120 8.183,5.007 9.067 C 6.441 10.495,6.639 10.679,6.795 10.720 C 7.366 10.870,7.870 10.365,7.719 9.795 C 7.679 9.643,7.549 9.495,6.747 8.689 L 5.820 7.757 11.540 7.771 C 17.820 7.787,17.549 7.777,18.067 8.028 C 18.375 8.176,18.824 8.625,18.972 8.932 C 19.206 9.415,19.217 9.561,19.217 12.000 C 19.217 14.439,19.206 14.585,18.972 15.068 C 18.827 15.369,18.372 15.829,18.079 15.973 C 17.569 16.222,17.761 16.213,12.537 16.238 L 7.774 16.260 7.605 16.372 C 7.311 16.566,7.192 16.873,7.281 17.204 C 7.342 17.430,7.570 17.658,7.795 17.719 C 8.040 17.785,17.005 17.753,17.460 17.684 C 18.462 17.534,19.052 17.246,19.680 16.603 C 20.148 16.123,20.422 15.640,20.577 15.020 C 20.717 14.456,20.739 14.048,20.739 12.000 C 20.739 9.951,20.717 9.543,20.576 8.980 C 20.251 7.679,19.197 6.668,17.887 6.401 C 17.218 6.265,16.196 6.242,10.841 6.241 L 5.822 6.240 6.748 5.310 C 7.747 4.305,7.799 4.231,7.740 3.882 C 7.669 3.462,7.230 3.175,6.815 3.277 " fill="#1C274C" stroke="none" fill-rule="evenodd"></path></svg>