<svg width="24" height="24" viewBox="0 0 24 24" fill="none" xmlns="http://www.w3.org/2000/svg"><path d="M8.419 2.041 C 5.785 2.145,4.480 2.507,3.549 3.393 C 2.551 4.342,2.166 5.587,2.041 8.260 C 1.988 9.399,1.988 14.601,2.041 15.740 C 2.160 18.285,2.507 19.501,3.379 20.433 C 4.245 21.360,5.318 21.742,7.580 21.927 C 8.488 22.002,15.512 22.002,16.420 21.927 C 18.857 21.727,19.992 21.275,20.860 20.157 C 21.474 19.368,21.771 18.329,21.927 16.420 C 22.002 15.512,22.002 8.488,21.927 7.580 C 21.740 5.297,21.356 4.232,20.407 3.355 C 19.572 2.585,18.492 2.242,16.380 2.078 C 15.684 2.023,9.573 1.995,8.419 2.041 M9.065 6.757 C 9.380 6.900,9.532 7.232,9.463 7.628 C 9.441 7.757,9.359 7.855,8.928 8.270 L 8.420 8.760 11.866 8.760 C 15.514 8.760,15.913 8.776,16.437 8.941 C 17.181 9.177,17.823 9.819,18.059 10.563 C 18.201 11.013,18.240 11.532,18.240 12.960 C 18.240 15.006,18.159 15.448,17.662 16.109 C 17.452 16.389,17.081 16.698,16.770 16.856 C 16.654 16.914,16.402 17.002,16.210 17.051 C 15.862 17.140,15.843 17.140,12.537 17.140 L 9.214 17.140 9.067 17.028 C 8.632 16.696,8.671 16.023,9.140 15.766 C 9.248 15.707,9.590 15.698,12.460 15.678 C 15.942 15.653,15.890 15.657,16.241 15.424 C 16.447 15.288,16.621 15.015,16.688 14.725 C 16.760 14.412,16.761 11.562,16.689 11.220 C 16.588 10.736,16.269 10.415,15.792 10.318 C 15.601 10.279,14.675 10.263,11.980 10.252 L 8.420 10.238 8.910 10.709 C 9.180 10.968,9.418 11.231,9.440 11.293 C 9.503 11.471,9.487 11.768,9.406 11.920 C 9.228 12.250,8.808 12.408,8.474 12.268 C 8.391 12.234,7.807 11.727,7.108 11.081 C 5.829 9.901,5.760 9.821,5.760 9.500 C 5.760 9.181,5.830 9.098,7.088 7.936 C 7.750 7.325,8.355 6.793,8.434 6.753 C 8.616 6.660,8.855 6.661,9.065 6.757 " fill="#1C274C" stroke="none" fill-rule="evenodd"></path></svg>