<svg width="24" height="24" viewBox="0 0 24 24" fill="none" xmlns="http://www.w3.org/2000/svg"><path d="M8.419 2.041 C 5.785 2.145,4.480 2.507,3.549 3.393 C 2.551 4.342,2.166 5.587,2.041 8.260 C 1.988 9.399,1.988 14.601,2.041 15.740 C 2.160 18.285,2.507 19.501,3.379 20.433 C 4.245 21.360,5.318 21.742,7.580 21.927 C 8.488 22.002,15.512 22.002,16.420 21.927 C 18.857 21.727,19.992 21.275,20.860 20.157 C 21.474 19.368,21.771 18.329,21.927 16.420 C 22.002 15.512,22.002 8.488,21.927 7.580 C 21.740 5.297,21.356 4.232,20.407 3.355 C 19.572 2.585,18.492 2.242,16.380 2.078 C 15.684 2.023,9.573 1.995,8.419 2.041 M15.566 6.753 C 15.645 6.793,16.250 7.325,16.912 7.936 C 18.170 9.098,18.240 9.181,18.240 9.500 C 18.240 9.822,18.168 9.907,16.933 11.049 C 16.285 11.649,15.679 12.182,15.587 12.233 C 15.240 12.427,14.775 12.280,14.590 11.917 C 14.513 11.765,14.498 11.466,14.560 11.293 C 14.582 11.231,14.820 10.968,15.090 10.709 L 15.580 10.239 12.560 10.253 C 10.328 10.263,9.488 10.280,9.340 10.317 C 9.230 10.344,8.970 10.448,8.763 10.548 C 8.449 10.698,8.330 10.785,8.057 11.057 C 7.786 11.329,7.697 11.451,7.547 11.763 C 7.147 12.589,7.149 13.368,7.553 14.200 C 7.663 14.427,7.781 14.583,8.039 14.843 C 8.415 15.222,8.660 15.379,9.140 15.546 L 9.460 15.658 12.100 15.679 C 14.451 15.698,14.753 15.707,14.860 15.766 C 15.329 16.023,15.368 16.696,14.933 17.028 L 14.786 17.140 12.043 17.140 C 9.009 17.140,9.103 17.147,8.400 16.871 C 7.489 16.513,6.653 15.742,6.199 14.840 C 5.612 13.673,5.612 12.244,6.200 11.080 C 6.697 10.095,7.576 9.329,8.620 8.973 C 9.226 8.766,9.341 8.760,12.575 8.759 L 15.580 8.759 15.093 8.299 C 14.556 7.792,14.499 7.694,14.528 7.338 C 14.570 6.842,15.126 6.528,15.566 6.753 " fill="#1C274C" stroke="none" fill-rule="evenodd"></path></svg>