<svg width="24" height="24" viewBox="0 0 24 24" fill="none" xmlns="http://www.w3.org/2000/svg"><path d="M8.419 2.041 C 5.785 2.145,4.480 2.507,3.549 3.393 C 2.551 4.342,2.166 5.587,2.041 8.260 C 1.988 9.399,1.988 14.601,2.041 15.740 C 2.160 18.285,2.507 19.501,3.379 20.433 C 4.245 21.360,5.318 21.742,7.580 21.927 C 8.488 22.002,15.512 22.002,16.420 21.927 C 18.857 21.727,19.992 21.275,20.860 20.157 C 21.474 19.368,21.771 18.329,21.927 16.420 C 22.002 15.512,22.002 8.488,21.927 7.580 C 21.740 5.297,21.356 4.232,20.407 3.355 C 19.572 2.585,18.492 2.242,16.380 2.078 C 15.684 2.023,9.573 1.995,8.419 2.041 M9.065 6.757 C 9.380 6.900,9.532 7.232,9.463 7.628 C 9.441 7.757,9.359 7.855,8.928 8.270 L 8.420 8.760 11.425 8.760 C 13.887 8.760,14.490 8.771,14.765 8.819 C 16.502 9.123,17.877 10.498,18.181 12.235 C 18.522 14.178,17.443 16.125,15.620 16.858 C 14.899 17.148,15.007 17.140,11.957 17.140 L 9.214 17.140 9.067 17.028 C 8.632 16.696,8.671 16.023,9.140 15.766 C 9.247 15.707,9.549 15.698,11.900 15.679 L 14.540 15.658 14.860 15.546 C 15.290 15.396,15.558 15.237,15.869 14.946 C 16.316 14.527,16.574 14.066,16.700 13.456 C 16.818 12.880,16.743 12.364,16.453 11.763 C 16.303 11.450,16.214 11.329,15.943 11.057 C 15.670 10.785,15.551 10.698,15.237 10.548 C 15.030 10.448,14.770 10.344,14.660 10.317 C 14.512 10.280,13.681 10.263,11.440 10.253 L 8.420 10.239 8.910 10.709 C 9.180 10.968,9.418 11.231,9.440 11.293 C 9.503 11.471,9.487 11.768,9.406 11.920 C 9.228 12.250,8.808 12.408,8.474 12.268 C 8.391 12.234,7.807 11.727,7.108 11.081 C 5.829 9.901,5.760 9.821,5.760 9.500 C 5.760 9.181,5.830 9.098,7.088 7.936 C 7.750 7.325,8.355 6.793,8.434 6.753 C 8.616 6.660,8.855 6.661,9.065 6.757 " fill="#1C274C" stroke="none" fill-rule="evenodd"></path></svg>