<svg width="24" height="24" viewBox="0 0 24 24" fill="none" xmlns="http://www.w3.org/2000/svg"><path d="M16.811 3.278 C 16.415 3.375,16.173 3.797,16.280 4.204 C 16.321 4.357,16.447 4.500,17.252 5.310 L 18.178 6.240 13.159 6.241 C 7.804 6.242,6.782 6.265,6.113 6.401 C 4.803 6.668,3.749 7.679,3.424 8.980 C 3.282 9.547,3.260 9.949,3.261 12.000 C 3.261 14.048,3.283 14.458,3.424 15.020 C 3.582 15.654,3.874 16.163,4.355 16.645 C 4.962 17.251,5.564 17.537,6.540 17.684 C 6.995 17.753,15.960 17.785,16.205 17.719 C 16.430 17.658,16.658 17.430,16.719 17.204 C 16.808 16.873,16.689 16.566,16.395 16.372 L 16.226 16.260 11.463 16.238 C 6.239 16.213,6.431 16.222,5.921 15.973 C 5.628 15.829,5.173 15.369,5.028 15.068 C 4.794 14.585,4.783 14.439,4.783 12.000 C 4.783 9.561,4.794 9.415,5.028 8.932 C 5.176 8.625,5.625 8.176,5.933 8.028 C 6.451 7.777,6.180 7.787,12.460 7.771 L 18.180 7.757 17.253 8.689 C 16.451 9.495,16.321 9.643,16.281 9.795 C 16.130 10.365,16.634 10.870,17.205 10.720 C 17.361 10.679,17.559 10.495,18.993 9.067 C 19.880 8.183,20.630 7.414,20.659 7.359 C 20.747 7.193,20.770 6.984,20.720 6.796 C 20.679 6.639,20.504 6.450,19.087 5.028 C 18.214 4.152,17.446 3.403,17.380 3.362 C 17.234 3.272,16.985 3.236,16.811 3.278 " fill="#1C274C" stroke="none" fill-rule="evenodd"></path></svg>