<svg width="24" height="24" viewBox="0 0 24 24" fill="none" xmlns="http://www.w3.org/2000/svg"><path d="M8.419 2.043 C 5.807 2.139,4.481 2.507,3.549 3.393 C 2.551 4.342,2.166 5.587,2.041 8.260 C 1.988 9.399,1.988 14.601,2.041 15.740 C 2.160 18.285,2.507 19.501,3.379 20.433 C 4.326 21.446,5.580 21.837,8.280 21.959 C 9.445 22.011,14.555 22.011,15.720 21.959 C 18.275 21.843,19.498 21.496,20.433 20.621 C 21.360 19.755,21.742 18.682,21.927 16.420 C 22.002 15.512,22.002 8.488,21.927 7.580 C 21.743 5.332,21.366 4.263,20.451 3.393 C 19.495 2.484,18.240 2.146,15.417 2.041 C 14.194 1.995,9.686 1.997,8.419 2.043 M17.267 6.803 C 17.409 6.856,17.588 7.024,17.669 7.179 C 17.761 7.356,17.754 7.676,17.654 7.845 C 17.477 8.145,10.665 17.045,10.550 17.127 C 10.379 17.249,10.045 17.273,9.836 17.178 C 9.711 17.122,9.326 16.705,8.068 15.267 C 7.184 14.255,6.421 13.365,6.374 13.289 C 6.193 13.000,6.222 12.674,6.451 12.414 C 6.665 12.170,7.002 12.091,7.291 12.216 C 7.457 12.287,7.565 12.402,8.941 13.980 C 9.574 14.706,10.103 15.293,10.116 15.284 C 10.129 15.275,11.533 13.439,13.235 11.204 C 14.937 8.969,16.386 7.079,16.455 7.005 C 16.524 6.931,16.634 6.846,16.700 6.817 C 16.846 6.752,17.115 6.745,17.267 6.803 " fill="#1C274C" stroke="none" fill-rule="evenodd"></path></svg>