<svg width="24" height="24" viewBox="0 0 24 24" fill="none" xmlns="http://www.w3.org/2000/svg"><path d="M8.419 2.041 C 5.785 2.145,4.480 2.507,3.549 3.393 C 2.551 4.342,2.166 5.587,2.041 8.260 C 1.988 9.399,1.988 14.601,2.041 15.740 C 2.160 18.285,2.507 19.501,3.379 20.433 C 4.245 21.360,5.318 21.742,7.580 21.927 C 8.488 22.002,15.512 22.002,16.420 21.927 C 18.857 21.727,19.992 21.275,20.860 20.157 C 21.474 19.368,21.771 18.329,21.927 16.420 C 22.002 15.512,22.002 8.488,21.927 7.580 C 21.740 5.297,21.356 4.232,20.407 3.355 C 19.572 2.585,18.492 2.242,16.380 2.078 C 15.684 2.023,9.573 1.995,8.419 2.041 M16.373 6.355 C 16.615 6.506,16.733 6.718,16.733 7.003 C 16.733 7.203,16.714 7.270,16.616 7.409 C 16.552 7.501,16.436 7.613,16.359 7.658 C 16.221 7.739,16.181 7.740,12.000 7.740 C 7.819 7.740,7.779 7.739,7.641 7.658 C 7.564 7.613,7.448 7.501,7.384 7.409 C 7.098 7.003,7.330 6.395,7.815 6.278 C 7.884 6.261,9.803 6.250,12.080 6.254 L 16.220 6.260 16.373 6.355 M12.380 9.362 C 12.539 9.460,15.616 12.552,15.682 12.680 C 15.710 12.735,15.733 12.882,15.733 13.008 C 15.733 13.508,15.284 13.849,14.795 13.719 C 14.643 13.679,14.496 13.549,13.691 12.749 L 12.763 11.825 12.751 14.529 L 12.740 17.233 12.619 17.405 C 12.453 17.642,12.273 17.739,12.000 17.739 C 11.727 17.739,11.547 17.642,11.381 17.405 L 11.260 17.233 11.249 14.529 L 11.237 11.825 10.309 12.749 C 9.504 13.549,9.357 13.679,9.205 13.719 C 8.714 13.849,8.267 13.509,8.267 13.003 C 8.267 12.836,8.290 12.733,8.351 12.636 C 8.398 12.561,9.152 11.786,10.028 10.913 C 11.200 9.745,11.652 9.319,11.740 9.299 C 11.806 9.285,11.878 9.267,11.900 9.259 C 11.981 9.230,12.264 9.291,12.380 9.362 " fill="#1C274C" stroke="none" fill-rule="evenodd"></path></svg>