<svg width="24" height="24" viewBox="0 0 24 24" fill="none" xmlns="http://www.w3.org/2000/svg"><path d="M11.300 2.024 C 10.268 2.130,9.297 2.339,8.537 2.620 C 6.161 3.500,4.142 5.321,3.043 7.576 C 2.706 8.267,2.527 8.743,2.342 9.443 C 2.101 10.351,2.026 10.964,2.026 12.000 C 2.026 12.726,2.043 13.008,2.113 13.460 C 2.441 15.571,3.363 17.437,4.837 18.972 C 5.788 19.962,7.208 20.887,8.523 21.374 C 9.075 21.579,9.894 21.787,10.540 21.887 C 11.334 22.011,12.658 22.011,13.460 21.887 C 14.126 21.784,14.791 21.619,15.351 21.417 L 15.760 21.271 15.760 20.515 L 15.760 19.760 15.547 19.760 C 14.663 19.760,13.845 19.248,13.477 18.464 C 13.168 17.803,13.169 17.195,13.482 16.526 C 13.643 16.181,13.648 16.175,15.172 14.655 C 16.526 13.304,16.730 13.116,16.962 13.004 C 17.331 12.825,17.607 12.761,18.008 12.760 C 18.415 12.760,18.860 12.882,19.180 13.083 C 19.290 13.151,19.843 13.669,20.409 14.232 C 20.975 14.795,21.445 15.248,21.453 15.238 C 21.534 15.147,21.817 13.958,21.906 13.340 C 22.010 12.616,22.001 11.275,21.887 10.540 C 21.657 9.059,21.129 7.684,20.333 6.492 C 19.530 5.292,18.683 4.446,17.483 3.649 C 15.928 2.615,14.126 2.060,12.200 2.022 C 11.793 2.014,11.388 2.015,11.300 2.024 M13.571 6.975 C 13.710 7.028,14.317 7.318,14.920 7.621 C 15.850 8.088,16.048 8.203,16.224 8.379 C 16.615 8.770,16.760 9.193,16.760 9.938 C 16.759 10.582,16.706 10.878,16.532 11.210 C 16.358 11.542,16.076 11.807,15.720 11.975 C 15.503 12.077,15.399 12.100,15.089 12.113 C 14.630 12.133,14.508 12.093,13.510 11.595 C 13.120 11.400,12.793 11.240,12.783 11.240 C 12.773 11.240,12.759 12.198,12.751 13.370 L 12.738 15.500 12.630 15.820 C 12.480 16.263,12.269 16.603,11.936 16.936 C 11.601 17.271,11.260 17.482,10.820 17.628 C 10.543 17.719,10.433 17.733,10.000 17.733 C 9.567 17.733,9.457 17.719,9.180 17.628 C 8.740 17.482,8.399 17.271,8.064 16.936 C 7.729 16.601,7.518 16.260,7.372 15.820 C 7.281 15.543,7.267 15.433,7.267 15.000 C 7.267 14.567,7.281 14.457,7.372 14.180 C 7.518 13.740,7.729 13.399,8.064 13.064 C 8.896 12.232,10.010 12.030,11.170 12.500 C 11.236 12.527,11.240 12.419,11.240 10.554 C 11.240 9.370,11.257 8.477,11.283 8.322 C 11.386 7.685,11.867 7.137,12.500 6.936 C 12.778 6.848,13.282 6.866,13.571 6.975 M12.920 8.388 C 12.786 8.435,12.760 8.532,12.760 8.984 C 12.760 9.231,12.771 9.463,12.786 9.500 C 12.800 9.537,13.297 9.809,13.890 10.104 C 14.995 10.655,15.071 10.680,15.190 10.528 C 15.243 10.461,15.263 9.626,15.215 9.501 C 15.192 9.442,13.255 8.442,13.060 8.389 C 13.016 8.377,12.953 8.377,12.920 8.388 M9.616 13.814 C 8.747 14.099,8.475 15.235,9.120 15.880 C 9.368 16.128,9.606 16.220,10.000 16.220 C 10.394 16.220,10.632 16.128,10.880 15.880 C 11.128 15.632,11.220 15.394,11.220 15.000 C 11.220 14.721,11.203 14.625,11.123 14.463 C 11.000 14.213,10.787 14.000,10.541 13.881 C 10.306 13.767,9.859 13.735,9.616 13.814 M17.900 14.259 C 17.878 14.267,17.806 14.285,17.740 14.299 C 17.652 14.319,17.254 14.690,16.267 15.673 C 15.523 16.414,14.879 17.087,14.837 17.168 C 14.696 17.439,14.766 17.849,14.987 18.048 C 15.100 18.151,15.339 18.240,15.500 18.240 C 15.773 18.240,15.924 18.133,16.590 17.469 L 17.240 16.821 17.240 19.440 C 17.240 21.228,17.254 22.111,17.285 22.219 C 17.344 22.432,17.578 22.660,17.798 22.719 C 18.198 22.827,18.610 22.599,18.718 22.209 C 18.745 22.113,18.760 21.119,18.760 19.440 L 18.760 16.821 19.410 17.469 C 20.076 18.133,20.227 18.240,20.500 18.240 C 20.660 18.240,20.898 18.151,21.014 18.048 C 21.130 17.946,21.238 17.680,21.238 17.500 C 21.238 17.191,21.139 17.070,19.754 15.695 C 19.020 14.966,18.384 14.351,18.340 14.329 C 18.249 14.284,17.960 14.237,17.900 14.259 " fill="#1C274C" stroke="none" fill-rule="evenodd"></path></svg>