<svg width="24" height="24" viewBox="0 0 24 24" fill="none" xmlns="http://www.w3.org/2000/svg"><path d="M11.799 1.276 C 11.743 1.294,11.656 1.334,11.605 1.364 C 11.495 1.430,8.467 4.949,8.361 5.133 C 8.195 5.422,8.228 5.732,8.451 5.986 C 8.731 6.305,9.192 6.332,9.494 6.047 C 9.557 5.988,9.971 5.518,10.414 5.002 L 11.220 4.064 11.240 9.642 C 11.259 14.812,11.265 15.229,11.329 15.345 C 11.454 15.574,11.755 15.760,12.000 15.760 C 12.245 15.760,12.546 15.574,12.671 15.345 C 12.735 15.229,12.741 14.812,12.760 9.642 L 12.780 4.064 13.586 5.002 C 14.029 5.518,14.443 5.988,14.506 6.047 C 14.808 6.332,15.269 6.305,15.549 5.986 C 15.772 5.732,15.805 5.422,15.639 5.133 C 15.514 4.914,12.495 1.424,12.368 1.350 C 12.224 1.266,11.941 1.230,11.799 1.276 M5.558 9.040 C 4.145 9.120,3.446 9.345,2.896 9.896 C 2.122 10.669,2.002 11.426,2.002 15.500 C 2.002 19.574,2.122 20.331,2.896 21.104 C 3.462 21.671,4.119 21.875,5.649 21.960 C 6.549 22.010,17.451 22.010,18.351 21.960 C 19.881 21.875,20.538 21.671,21.104 21.104 C 21.878 20.331,21.998 19.574,21.998 15.500 C 21.998 11.426,21.878 10.669,21.104 9.896 C 20.685 9.477,20.222 9.266,19.440 9.141 C 18.848 9.045,17.556 8.992,16.230 9.007 C 15.103 9.020,15.008 9.027,14.840 9.105 C 14.640 9.198,14.463 9.360,14.373 9.533 C 14.265 9.742,14.241 10.323,14.241 12.808 C 14.240 14.441,14.225 15.348,14.196 15.488 C 14.029 16.294,13.294 17.029,12.488 17.196 C 12.217 17.252,11.783 17.252,11.512 17.196 C 10.706 17.029,9.971 16.294,9.804 15.488 C 9.775 15.348,9.760 14.441,9.759 12.808 C 9.759 10.323,9.735 9.742,9.627 9.533 C 9.537 9.360,9.361 9.198,9.160 9.104 C 8.988 9.024,8.914 9.020,7.540 9.015 C 6.748 9.012,5.856 9.023,5.558 9.040 " fill="#1C274C" stroke="none" fill-rule="evenodd"></path></svg>