<svg width="24" height="24" viewBox="0 0 24 24" fill="none" xmlns="http://www.w3.org/2000/svg"><path d="M11.300 2.024 C 10.268 2.130,9.297 2.339,8.537 2.620 C 6.161 3.500,4.142 5.321,3.043 7.576 C 2.706 8.267,2.527 8.743,2.342 9.443 C 2.101 10.351,2.026 10.964,2.026 12.000 C 2.026 12.726,2.043 13.008,2.113 13.460 C 2.441 15.571,3.363 17.437,4.837 18.972 C 5.788 19.962,7.208 20.887,8.523 21.374 C 9.075 21.579,9.894 21.787,10.540 21.887 C 11.334 22.011,12.658 22.011,13.460 21.887 C 14.126 21.784,14.791 21.619,15.351 21.417 L 15.760 21.271 15.760 20.515 L 15.760 19.760 15.547 19.760 C 14.663 19.760,13.845 19.248,13.477 18.464 C 13.168 17.803,13.169 17.195,13.482 16.526 C 13.643 16.181,13.648 16.175,15.172 14.655 C 16.526 13.304,16.730 13.116,16.962 13.004 C 17.331 12.825,17.607 12.761,18.008 12.760 C 18.415 12.760,18.860 12.882,19.180 13.083 C 19.290 13.151,19.843 13.669,20.409 14.232 C 20.975 14.795,21.445 15.248,21.453 15.238 C 21.534 15.147,21.817 13.958,21.906 13.340 C 22.010 12.616,22.001 11.275,21.887 10.540 C 21.657 9.059,21.129 7.684,20.333 6.492 C 19.530 5.292,18.683 4.446,17.483 3.649 C 15.928 2.615,14.126 2.060,12.200 2.022 C 11.793 2.014,11.388 2.015,11.300 2.024 M13.271 6.302 C 13.598 6.439,13.720 6.642,13.765 7.126 C 13.876 8.325,14.675 9.124,15.874 9.235 C 16.358 9.280,16.561 9.402,16.698 9.729 C 16.866 10.131,16.631 10.596,16.194 10.727 C 15.782 10.850,14.714 10.597,14.109 10.233 C 13.932 10.127,13.782 10.040,13.775 10.040 C 13.769 10.040,13.758 11.268,13.752 12.770 L 13.740 15.500 13.634 15.811 C 13.338 16.681,12.671 17.346,11.811 17.631 C 11.544 17.719,11.430 17.733,11.000 17.733 C 10.567 17.733,10.457 17.719,10.180 17.628 C 9.740 17.482,9.399 17.271,9.064 16.936 C 8.729 16.601,8.518 16.260,8.372 15.820 C 8.281 15.543,8.267 15.433,8.267 15.000 C 8.267 14.567,8.281 14.457,8.372 14.180 C 8.518 13.740,8.729 13.399,9.064 13.064 C 9.399 12.729,9.740 12.518,10.180 12.372 C 10.457 12.281,10.567 12.267,11.000 12.267 C 11.489 12.267,11.729 12.314,12.170 12.499 C 12.236 12.527,12.240 12.379,12.240 9.703 C 12.240 7.243,12.248 6.858,12.302 6.729 C 12.384 6.532,12.506 6.405,12.700 6.316 C 12.897 6.225,13.076 6.221,13.271 6.302 M10.616 13.814 C 9.747 14.099,9.475 15.235,10.120 15.880 C 10.368 16.128,10.606 16.220,11.000 16.220 C 11.394 16.220,11.632 16.128,11.880 15.880 C 12.128 15.632,12.220 15.394,12.220 15.000 C 12.220 14.721,12.203 14.625,12.123 14.463 C 12.000 14.213,11.787 14.000,11.541 13.881 C 11.306 13.767,10.859 13.735,10.616 13.814 M17.900 14.259 C 17.878 14.267,17.806 14.285,17.740 14.299 C 17.652 14.319,17.254 14.690,16.267 15.673 C 15.523 16.414,14.879 17.087,14.837 17.168 C 14.696 17.439,14.766 17.849,14.987 18.048 C 15.100 18.151,15.339 18.240,15.500 18.240 C 15.773 18.240,15.924 18.133,16.590 17.469 L 17.240 16.821 17.240 19.440 C 17.240 21.228,17.254 22.111,17.285 22.219 C 17.344 22.432,17.578 22.660,17.798 22.719 C 18.198 22.827,18.610 22.599,18.718 22.209 C 18.745 22.113,18.760 21.119,18.760 19.440 L 18.760 16.821 19.410 17.469 C 20.076 18.133,20.227 18.240,20.500 18.240 C 20.660 18.240,20.898 18.151,21.014 18.048 C 21.130 17.946,21.238 17.680,21.238 17.500 C 21.238 17.191,21.139 17.070,19.754 15.695 C 19.020 14.966,18.384 14.351,18.340 14.329 C 18.249 14.284,17.960 14.237,17.900 14.259 " fill="#1C274C" stroke="none" fill-rule="evenodd"></path></svg>