<svg width="24" height="24" viewBox="0 0 24 24" fill="none" xmlns="http://www.w3.org/2000/svg"><path d="M11.820 2.276 C 11.754 2.293,11.658 2.332,11.608 2.363 C 11.528 2.412,7.598 6.679,7.396 6.936 C 7.273 7.092,7.223 7.353,7.277 7.552 C 7.336 7.768,7.561 8.021,7.747 8.082 C 7.961 8.153,8.252 8.111,8.416 7.986 C 8.492 7.927,9.155 7.223,9.888 6.421 L 11.220 4.963 11.240 10.591 C 11.259 15.809,11.265 16.229,11.329 16.345 C 11.454 16.574,11.755 16.760,12.000 16.760 C 12.245 16.760,12.546 16.574,12.671 16.345 C 12.735 16.229,12.741 15.809,12.760 10.593 L 12.780 4.966 14.113 6.423 C 14.846 7.224,15.508 7.928,15.584 7.986 C 15.748 8.111,16.039 8.153,16.253 8.082 C 16.546 7.986,16.800 7.562,16.743 7.264 C 16.730 7.196,16.679 7.075,16.630 6.995 C 16.499 6.784,12.506 2.432,12.373 2.355 C 12.232 2.273,11.978 2.237,11.820 2.276 M2.807 14.289 C 2.558 14.342,2.342 14.570,2.284 14.838 C 2.231 15.085,2.230 15.728,2.279 17.020 C 2.336 18.487,2.454 19.151,2.779 19.820 C 3.285 20.860,4.152 21.415,5.600 21.624 C 6.310 21.726,7.815 21.757,12.000 21.757 C 18.136 21.757,18.811 21.711,19.820 21.221 C 20.848 20.721,21.405 19.862,21.621 18.440 C 21.709 17.861,21.786 15.163,21.723 14.866 C 21.597 14.276,20.901 14.059,20.480 14.480 C 20.264 14.696,20.240 14.858,20.240 16.120 C 20.240 18.267,20.086 19.079,19.582 19.582 C 19.221 19.944,18.703 20.114,17.708 20.197 C 17.008 20.256,6.992 20.256,6.292 20.197 C 5.297 20.114,4.779 19.944,4.418 19.582 C 3.914 19.079,3.761 18.273,3.759 16.108 C 3.758 15.506,3.740 14.940,3.717 14.841 C 3.620 14.420,3.247 14.194,2.807 14.289 " fill="#1C274C" stroke="none" fill-rule="evenodd"></path></svg>