<svg width="24" height="24" viewBox="0 0 24 24" fill="none" xmlns="http://www.w3.org/2000/svg"><path d="M8.419 2.041 C 5.785 2.145,4.480 2.507,3.549 3.393 C 2.551 4.342,2.166 5.587,2.041 8.260 C 1.988 9.399,1.988 14.601,2.041 15.740 C 2.160 18.285,2.507 19.501,3.379 20.433 C 4.245 21.360,5.318 21.742,7.580 21.927 C 8.488 22.002,15.512 22.002,16.420 21.927 C 18.857 21.727,19.992 21.275,20.860 20.157 C 21.474 19.368,21.771 18.329,21.927 16.420 C 22.002 15.512,22.002 8.488,21.927 7.580 C 21.740 5.297,21.356 4.232,20.407 3.355 C 19.572 2.585,18.492 2.242,16.380 2.078 C 15.684 2.023,9.573 1.995,8.419 2.041 M18.373 6.355 C 18.615 6.506,18.733 6.718,18.733 7.003 C 18.733 7.203,18.714 7.270,18.616 7.409 C 18.552 7.501,18.436 7.613,18.359 7.658 C 18.221 7.740,18.196 7.740,12.000 7.740 C 5.804 7.740,5.779 7.740,5.641 7.658 C 5.564 7.613,5.448 7.501,5.384 7.409 C 5.098 7.003,5.330 6.395,5.815 6.278 C 5.884 6.261,8.703 6.250,12.080 6.254 L 18.220 6.260 18.373 6.355 M8.733 9.298 C 8.817 9.328,8.923 9.386,8.969 9.426 C 9.015 9.467,9.642 10.206,10.361 11.069 C 11.452 12.376,11.677 12.668,11.716 12.819 C 11.873 13.444,11.213 13.956,10.635 13.657 C 10.576 13.627,10.242 13.259,9.894 12.840 L 9.260 12.078 9.240 14.669 C 9.226 16.535,9.207 17.282,9.173 17.340 C 9.048 17.556,8.720 17.760,8.500 17.760 C 8.280 17.760,7.952 17.556,7.827 17.340 C 7.793 17.282,7.774 16.535,7.760 14.669 L 7.740 12.078 7.106 12.840 C 6.758 13.259,6.424 13.627,6.365 13.657 C 5.787 13.956,5.127 13.444,5.284 12.819 C 5.323 12.668,5.548 12.376,6.639 11.069 C 7.358 10.206,7.985 9.467,8.031 9.426 C 8.126 9.343,8.380 9.244,8.500 9.244 C 8.544 9.244,8.649 9.268,8.733 9.298 M15.733 9.298 C 15.817 9.328,15.923 9.386,15.969 9.426 C 16.015 9.467,16.642 10.206,17.361 11.069 C 18.452 12.376,18.677 12.668,18.716 12.819 C 18.873 13.444,18.213 13.956,17.635 13.657 C 17.576 13.627,17.242 13.259,16.894 12.840 L 16.260 12.078 16.240 14.669 C 16.226 16.535,16.207 17.282,16.173 17.340 C 16.048 17.556,15.720 17.760,15.500 17.760 C 15.280 17.760,14.952 17.556,14.827 17.340 C 14.793 17.282,14.774 16.535,14.760 14.669 L 14.740 12.078 14.106 12.840 C 13.758 13.259,13.424 13.627,13.365 13.657 C 12.787 13.956,12.127 13.444,12.284 12.819 C 12.323 12.668,12.548 12.376,13.639 11.069 C 14.358 10.206,14.985 9.467,15.031 9.426 C 15.126 9.343,15.380 9.244,15.500 9.244 C 15.544 9.244,15.649 9.268,15.733 9.298 " fill="#1C274C" stroke="none" fill-rule="evenodd"></path></svg>