<svg width="24" height="24" viewBox="0 0 24 24" fill="none" xmlns="http://www.w3.org/2000/svg"><path d="M16.378 2.056 C 15.781 2.201,15.120 2.723,13.640 4.218 C 13.161 4.702,13.071 4.810,13.125 4.841 C 13.279 4.929,13.934 5.457,14.340 5.821 C 14.910 6.330,17.670 9.090,18.179 9.660 C 18.543 10.066,19.071 10.721,19.159 10.875 C 19.190 10.929,19.298 10.839,19.782 10.360 C 21.093 9.063,21.700 8.329,21.890 7.812 C 22.007 7.492,22.007 6.988,21.890 6.668 C 21.764 6.324,21.423 5.842,20.909 5.280 C 20.298 4.611,18.656 3.001,18.269 2.691 C 17.519 2.090,16.981 1.909,16.378 2.056 M17.371 4.279 C 17.660 4.478,17.783 4.824,17.679 5.145 C 17.615 5.343,16.810 6.177,16.580 6.284 C 16.311 6.409,15.962 6.360,15.746 6.168 C 15.533 5.980,15.461 5.551,15.597 5.288 C 15.699 5.092,16.502 4.300,16.680 4.221 C 16.876 4.134,17.198 4.161,17.371 4.279 M10.095 5.580 C 9.586 5.690,9.001 6.025,8.300 6.606 C 7.759 7.054,6.336 8.427,4.918 9.870 C 3.144 11.674,2.605 12.317,2.276 13.020 C 1.906 13.809,1.912 14.514,2.295 15.300 C 2.670 16.070,3.187 16.670,5.259 18.741 C 7.330 20.813,7.930 21.330,8.700 21.705 C 9.501 22.095,10.215 22.095,11.020 21.703 C 11.804 21.322,12.415 20.787,14.842 18.361 C 17.250 15.954,17.819 15.303,18.197 14.522 C 18.724 13.432,18.524 12.455,17.515 11.191 C 17.125 10.703,16.079 9.605,14.816 8.360 C 13.103 6.671,12.535 6.193,11.820 5.837 C 11.213 5.535,10.672 5.454,10.095 5.580 M19.491 6.399 C 19.780 6.598,19.903 6.944,19.799 7.265 C 19.739 7.451,18.942 8.285,18.712 8.404 C 18.461 8.533,18.083 8.481,17.866 8.288 C 17.653 8.100,17.581 7.671,17.717 7.408 C 17.819 7.212,18.622 6.420,18.800 6.341 C 18.996 6.254,19.318 6.281,19.491 6.399 M5.551 13.462 C 5.755 13.546,10.409 18.192,10.521 18.423 C 10.736 18.865,10.452 19.417,9.982 19.470 C 9.558 19.518,9.722 19.656,7.087 17.027 C 5.755 15.698,4.640 14.554,4.597 14.472 C 4.456 14.201,4.526 13.791,4.747 13.592 C 4.950 13.408,5.289 13.353,5.551 13.462 " fill="#1C274C" stroke="none" fill-rule="evenodd"></path></svg>