<svg width="24" height="24" viewBox="0 0 24 24" fill="none" xmlns="http://www.w3.org/2000/svg"><path d="M11.815 1.277 C 11.746 1.294,11.631 1.349,11.561 1.399 C 11.366 1.538,9.297 4.662,9.262 4.870 C 9.154 5.506,9.876 5.981,10.409 5.626 C 10.482 5.578,10.695 5.309,10.890 5.021 L 11.240 4.503 11.240 8.253 L 11.240 12.002 11.113 11.936 C 11.043 11.900,10.187 11.604,9.211 11.278 C 7.332 10.649,7.228 10.603,6.992 10.282 C 6.780 9.993,6.760 9.855,6.760 8.663 L 6.760 7.578 6.900 7.503 C 7.107 7.391,7.468 6.994,7.578 6.755 C 7.902 6.058,7.750 5.256,7.200 4.746 C 6.916 4.483,6.625 4.338,6.266 4.281 C 5.112 4.097,4.073 5.137,4.276 6.273 C 4.303 6.424,4.368 6.641,4.422 6.755 C 4.532 6.994,4.893 7.391,5.100 7.503 L 5.240 7.578 5.240 8.639 C 5.240 9.223,5.259 9.816,5.282 9.957 C 5.381 10.563,5.640 11.076,6.062 11.498 C 6.503 11.938,6.667 12.013,8.714 12.698 C 10.663 13.350,10.774 13.400,10.999 13.707 C 11.238 14.034,11.240 14.057,11.239 16.191 L 11.238 18.140 10.995 18.279 C 10.409 18.614,10.002 19.307,10.000 19.968 C 9.998 21.079,10.905 22.000,12.000 22.000 C 13.080 22.000,14.000 21.080,14.000 20.000 C 14.000 19.315,13.597 18.618,13.005 18.279 L 12.762 18.140 12.761 17.696 C 12.760 17.190,12.814 16.960,12.992 16.718 C 13.228 16.398,13.326 16.354,15.286 15.698 C 16.636 15.246,17.212 15.034,17.406 14.919 C 17.871 14.643,18.313 14.143,18.521 13.657 C 18.711 13.213,18.735 13.030,18.758 11.845 L 18.780 10.711 18.997 10.630 C 19.275 10.527,19.526 10.270,19.646 9.969 C 19.729 9.760,19.737 9.676,19.737 9.000 C 19.737 8.326,19.729 8.240,19.647 8.033 C 19.538 7.759,19.298 7.501,19.049 7.391 C 18.622 7.202,17.378 7.202,16.951 7.391 C 16.702 7.501,16.462 7.759,16.353 8.033 C 16.271 8.240,16.263 8.326,16.263 9.000 C 16.263 9.682,16.270 9.758,16.357 9.976 C 16.477 10.279,16.720 10.524,17.004 10.630 L 17.220 10.711 17.231 11.726 C 17.243 12.843,17.221 12.991,16.999 13.293 C 16.772 13.603,16.656 13.654,14.791 14.277 C 13.817 14.601,12.962 14.898,12.890 14.935 L 12.760 15.002 12.760 9.753 L 12.760 4.503 13.110 5.021 C 13.305 5.309,13.518 5.578,13.591 5.626 C 14.124 5.981,14.846 5.506,14.738 4.870 C 14.698 4.630,12.622 1.521,12.411 1.385 C 12.241 1.275,12.001 1.231,11.815 1.277 " fill="#1C274C" stroke="none" fill-rule="evenodd"></path></svg>