<svg width="24" height="24" viewBox="0 0 24 24" fill="none" xmlns="http://www.w3.org/2000/svg"><path d="M11.120 2.039 C 9.316 2.220,7.707 2.807,6.280 3.806 C 2.738 6.286,1.178 10.759,2.422 14.865 C 2.918 16.500,3.729 17.852,4.938 19.062 C 6.293 20.416,7.879 21.301,9.740 21.740 C 11.388 22.129,13.240 22.070,14.865 21.578 C 16.499 21.082,17.850 20.272,19.061 19.061 C 19.836 18.287,20.383 17.547,20.863 16.623 C 23.186 12.157,21.847 6.695,17.720 3.806 C 16.452 2.918,15.069 2.366,13.493 2.119 C 12.909 2.027,11.660 1.985,11.120 2.039 M12.340 5.330 C 12.461 5.391,13.553 6.480,13.649 6.636 C 13.782 6.849,13.767 7.195,13.616 7.409 C 13.451 7.645,13.272 7.739,12.990 7.739 L 12.760 7.739 12.760 10.732 C 12.760 13.564,12.764 13.724,12.830 13.704 C 13.782 13.413,14.470 13.186,14.593 13.123 C 14.812 13.012,15.102 12.675,15.179 12.443 C 15.220 12.319,15.239 12.150,15.232 11.979 L 15.220 11.711 15.003 11.630 C 14.725 11.526,14.472 11.269,14.363 10.979 C 14.197 10.534,14.215 9.350,14.394 8.944 C 14.492 8.722,14.726 8.491,14.954 8.390 C 15.377 8.203,16.623 8.203,17.046 8.390 C 17.277 8.492,17.508 8.723,17.610 8.954 C 17.798 9.378,17.797 10.623,17.609 11.049 C 17.497 11.302,17.251 11.535,16.995 11.631 L 16.781 11.711 16.735 12.170 C 16.655 12.977,16.447 13.437,15.922 13.962 C 15.485 14.399,15.247 14.522,14.220 14.842 C 13.331 15.119,13.191 15.179,13.026 15.352 L 12.913 15.472 13.190 15.746 C 13.514 16.066,13.661 16.347,13.719 16.750 C 13.884 17.917,12.860 18.927,11.719 18.723 C 11.323 18.652,11.008 18.483,10.746 18.200 C 10.238 17.651,10.115 16.908,10.425 16.252 C 10.546 15.996,10.823 15.683,11.061 15.533 L 11.240 15.420 11.239 15.100 C 11.238 14.741,11.166 14.534,10.976 14.346 C 10.806 14.178,10.661 14.117,9.780 13.842 C 8.756 13.523,8.516 13.400,8.075 12.962 C 7.783 12.672,7.703 12.563,7.549 12.240 C 7.338 11.800,7.286 11.583,7.253 10.997 L 7.228 10.572 7.091 10.498 C 6.894 10.392,6.544 9.999,6.427 9.752 C 6.108 9.076,6.243 8.311,6.777 7.777 C 7.187 7.367,7.712 7.192,8.266 7.281 C 8.646 7.342,8.940 7.494,9.223 7.777 C 9.757 8.311,9.892 9.076,9.573 9.752 C 9.455 10.001,9.105 10.392,8.903 10.501 L 8.760 10.578 8.760 10.922 C 8.760 11.131,8.785 11.339,8.824 11.453 C 8.900 11.678,9.193 12.014,9.407 12.123 C 9.530 12.186,10.218 12.413,11.170 12.704 C 11.236 12.724,11.240 12.588,11.240 10.232 L 11.240 7.739 11.010 7.739 C 10.728 7.739,10.549 7.645,10.384 7.409 C 10.233 7.195,10.218 6.849,10.350 6.636 C 10.496 6.400,11.613 5.328,11.743 5.299 C 11.807 5.285,11.878 5.267,11.900 5.259 C 11.961 5.237,12.249 5.284,12.340 5.330 " fill="#1C274C" stroke="none" fill-rule="evenodd"></path></svg>