<svg width="24" height="24" viewBox="0 0 24 24" fill="none" xmlns="http://www.w3.org/2000/svg"><path d="M9.433 2.040 C 8.843 2.134,8.221 2.380,7.731 2.712 C 6.955 3.240,6.394 4.037,6.130 4.989 C 6.034 5.337,6.022 5.449,6.022 6.000 C 6.022 6.551,6.034 6.663,6.130 7.011 C 6.526 8.439,7.561 9.474,8.989 9.870 C 9.337 9.966,9.449 9.978,10.000 9.978 C 10.553 9.978,10.663 9.966,11.017 9.868 C 12.256 9.525,13.252 8.643,13.715 7.480 C 14.235 6.174,14.012 4.630,13.144 3.534 C 12.601 2.849,11.788 2.323,10.958 2.120 C 10.572 2.026,9.783 1.984,9.433 2.040 M17.339 7.882 C 17.080 7.958,16.840 8.294,16.840 8.580 C 16.840 8.839,16.950 9.007,17.450 9.509 L 17.936 9.997 17.434 10.509 C 16.892 11.062,16.815 11.192,16.850 11.505 C 16.887 11.832,17.168 12.113,17.495 12.150 C 17.811 12.185,17.938 12.110,18.490 11.567 L 19.000 11.064 19.510 11.567 C 20.062 12.110,20.189 12.185,20.505 12.150 C 20.832 12.113,21.113 11.832,21.150 11.505 C 21.185 11.192,21.108 11.061,20.566 10.509 L 20.065 9.999 20.567 9.489 C 21.110 8.938,21.185 8.811,21.150 8.495 C 21.113 8.168,20.847 7.901,20.513 7.856 C 20.195 7.812,20.069 7.885,19.509 8.434 L 18.999 8.935 18.507 8.448 C 17.906 7.854,17.730 7.769,17.339 7.882 M9.160 13.025 C 6.491 13.218,4.326 14.023,3.057 15.296 C 2.836 15.518,2.579 15.817,2.487 15.960 C 2.281 16.279,2.098 16.742,2.042 17.084 C 1.951 17.643,2.013 18.814,2.162 19.356 C 2.595 20.935,4.100 21.643,7.620 21.926 C 8.010 21.958,8.940 21.978,10.000 21.978 C 11.060 21.978,11.990 21.958,12.380 21.926 C 15.898 21.644,17.411 20.932,17.836 19.358 C 17.987 18.802,18.049 17.644,17.958 17.084 C 17.902 16.742,17.719 16.279,17.513 15.960 C 17.277 15.594,16.608 14.938,16.179 14.651 C 14.962 13.838,13.427 13.316,11.619 13.099 C 11.114 13.039,9.602 12.993,9.160 13.025 " fill="#1C274C" stroke="none" fill-rule="evenodd"></path></svg>