<svg width="24" height="24" viewBox="0 0 24 24" fill="none" xmlns="http://www.w3.org/2000/svg"><path d="M11.460 4.045 C 10.362 4.204,9.356 4.952,8.858 5.978 C 7.964 7.820,8.853 10.058,10.764 10.776 C 13.047 11.633,15.492 9.939,15.492 7.500 C 15.492 5.359,13.596 3.734,11.460 4.045 M6.580 5.064 C 6.240 5.135,5.728 5.379,5.468 5.596 C 4.305 6.566,4.271 8.276,5.395 9.285 C 5.664 9.525,6.244 9.817,6.580 9.880 C 6.864 9.933,7.584 9.919,7.572 9.860 C 7.567 9.838,7.493 9.658,7.408 9.460 C 6.843 8.156,6.869 6.680,7.478 5.375 L 7.630 5.050 7.450 5.025 C 7.176 4.987,6.890 5.000,6.580 5.064 M16.494 5.029 L 16.367 5.045 16.520 5.372 C 16.817 6.007,16.950 6.545,16.986 7.260 C 17.026 8.040,16.899 8.752,16.592 9.460 C 16.507 9.658,16.433 9.838,16.428 9.860 C 16.416 9.919,17.136 9.933,17.420 9.880 C 17.756 9.817,18.336 9.525,18.605 9.285 C 19.248 8.708,19.555 7.808,19.384 7.000 C 19.113 5.713,17.858 4.857,16.494 5.029 M11.100 13.044 C 8.948 13.244,7.170 14.085,6.399 15.266 C 5.884 16.054,5.884 16.946,6.399 17.734 C 7.111 18.825,8.627 19.602,10.640 19.907 C 10.974 19.957,11.347 19.977,12.000 19.977 C 12.653 19.977,13.026 19.957,13.360 19.907 C 15.373 19.602,16.889 18.825,17.601 17.734 C 18.114 16.948,18.114 16.052,17.601 15.266 C 16.597 13.728,13.849 12.789,11.100 13.044 M4.940 14.138 C 3.671 14.338,2.589 14.983,2.201 15.771 C 1.884 16.415,1.965 17.042,2.444 17.665 C 2.876 18.225,3.809 18.712,4.815 18.900 C 5.005 18.936,5.214 18.959,5.280 18.953 L 5.399 18.940 5.216 18.680 C 4.280 17.349,4.268 15.686,5.185 14.368 C 5.281 14.230,5.360 14.108,5.360 14.098 C 5.360 14.075,5.322 14.078,4.940 14.138 M18.640 14.095 C 18.640 14.107,18.722 14.233,18.822 14.376 C 19.729 15.675,19.715 17.356,18.784 18.680 L 18.601 18.940 18.720 18.953 C 18.786 18.959,18.995 18.936,19.185 18.900 C 20.191 18.712,21.124 18.225,21.556 17.665 C 22.424 16.538,21.955 15.278,20.394 14.543 C 20.014 14.363,19.422 14.185,19.060 14.140 C 18.950 14.126,18.811 14.106,18.750 14.094 C 18.690 14.083,18.640 14.083,18.640 14.095 " fill="#1C274C" stroke="none" fill-rule="evenodd"></path></svg>