<svg width="24" height="24" viewBox="0 0 24 24" fill="none" xmlns="http://www.w3.org/2000/svg"><path d="M11.440 2.044 C 10.641 2.146,9.776 2.581,9.178 3.178 C 7.253 5.103,7.781 8.344,10.220 9.570 C 11.747 10.337,13.610 10.034,14.822 8.822 C 16.377 7.267,16.377 4.733,14.822 3.178 C 13.938 2.294,12.705 1.881,11.440 2.044 M11.029 13.044 C 8.614 13.230,6.414 14.210,5.525 15.497 C 5.255 15.888,5.137 16.159,5.053 16.585 C 4.887 17.431,5.189 18.236,5.958 19.000 C 7.041 20.076,8.846 20.767,11.080 20.960 C 12.199 21.056,13.549 20.957,14.640 20.698 C 15.087 20.592,15.799 20.372,15.851 20.323 C 15.868 20.307,15.852 20.179,15.816 20.037 C 15.726 19.685,15.756 19.073,15.881 18.737 L 15.971 18.494 15.880 18.257 C 15.769 17.964,15.728 17.365,15.798 17.028 C 15.869 16.687,16.122 16.214,16.368 15.963 C 16.820 15.500,17.347 15.267,17.950 15.263 C 18.131 15.261,18.280 15.248,18.280 15.234 C 18.280 15.219,18.151 15.088,17.992 14.941 C 16.510 13.569,13.802 12.831,11.029 13.044 M17.700 16.817 C 17.460 16.924,17.240 17.256,17.240 17.511 C 17.240 17.695,17.420 18.003,17.677 18.257 L 17.916 18.494 17.654 18.772 C 17.234 19.218,17.160 19.464,17.339 19.822 C 17.462 20.067,17.658 20.206,17.917 20.231 C 18.205 20.258,18.365 20.185,18.699 19.873 L 19.001 19.591 19.286 19.860 C 19.599 20.155,19.757 20.240,19.996 20.240 C 20.303 20.240,20.547 20.077,20.684 19.780 C 20.836 19.452,20.757 19.222,20.351 18.812 L 20.066 18.524 20.337 18.237 C 20.749 17.801,20.835 17.547,20.684 17.220 C 20.547 16.923,20.303 16.760,19.996 16.760 C 19.757 16.760,19.599 16.845,19.285 17.141 L 19.000 17.410 18.715 17.141 C 18.558 16.993,18.369 16.846,18.296 16.816 C 18.129 16.746,17.857 16.746,17.700 16.817 " fill="#1C274C" stroke="none" fill-rule="evenodd"></path></svg>