<svg width="24" height="24" viewBox="0 0 24 24" fill="none" xmlns="http://www.w3.org/2000/svg"><path d="M11.440 2.044 C 10.641 2.146,9.776 2.581,9.178 3.178 C 7.253 5.103,7.781 8.344,10.220 9.570 C 11.747 10.337,13.610 10.034,14.822 8.822 C 16.377 7.267,16.377 4.733,14.822 3.178 C 13.938 2.294,12.705 1.881,11.440 2.044 M11.029 13.044 C 8.269 13.257,5.905 14.467,5.219 16.019 C 4.877 16.792,4.964 17.661,5.461 18.423 C 5.678 18.756,6.237 19.298,6.644 19.570 C 8.705 20.945,11.995 21.374,14.860 20.640 C 15.411 20.499,16.048 20.282,16.303 20.149 L 16.406 20.095 16.260 19.920 C 15.937 19.534,15.760 19.030,15.760 18.500 C 15.760 17.718,16.141 17.030,16.818 16.592 C 17.259 16.306,17.865 16.196,18.464 16.293 C 18.656 16.324,18.671 16.320,18.737 16.219 C 18.829 16.079,18.804 15.998,18.556 15.616 C 17.413 13.861,14.291 12.794,11.029 13.044 M20.819 16.276 C 20.753 16.293,20.649 16.338,20.589 16.378 C 20.529 16.417,20.136 16.879,19.716 17.405 L 18.951 18.361 18.689 18.116 C 18.397 17.842,18.238 17.760,18.004 17.760 C 17.697 17.760,17.453 17.923,17.316 18.220 C 17.135 18.610,17.257 18.848,18.013 19.589 C 18.416 19.984,18.629 20.163,18.737 20.199 C 18.944 20.267,19.248 20.232,19.409 20.121 C 19.601 19.988,21.649 17.406,21.713 17.217 C 21.891 16.690,21.368 16.141,20.819 16.276 " fill="#1C274C" stroke="none" fill-rule="evenodd"></path></svg>