<svg width="24" height="24" viewBox="0 0 24 24" fill="none" xmlns="http://www.w3.org/2000/svg"><path d="M9.433 2.040 C 8.843 2.134,8.221 2.380,7.731 2.712 C 6.955 3.240,6.394 4.037,6.130 4.989 C 6.034 5.337,6.022 5.449,6.022 6.000 C 6.022 6.551,6.034 6.663,6.130 7.011 C 6.526 8.439,7.561 9.474,8.989 9.870 C 9.337 9.966,9.449 9.978,10.000 9.978 C 10.553 9.978,10.663 9.966,11.017 9.868 C 12.256 9.525,13.252 8.643,13.715 7.480 C 14.235 6.174,14.012 4.630,13.144 3.534 C 12.601 2.849,11.788 2.323,10.958 2.120 C 10.572 2.026,9.783 1.984,9.433 2.040 M16.807 9.287 C 16.568 9.341,16.341 9.572,16.289 9.816 C 16.197 10.246,16.431 10.629,16.838 10.716 C 17.121 10.776,20.879 10.776,21.162 10.716 C 21.920 10.553,21.920 9.447,21.162 9.284 C 20.903 9.229,17.058 9.231,16.807 9.287 M9.160 13.025 C 6.491 13.218,4.326 14.023,3.057 15.296 C 2.836 15.518,2.579 15.817,2.487 15.960 C 2.281 16.279,2.098 16.742,2.042 17.084 C 1.951 17.643,2.013 18.814,2.162 19.356 C 2.595 20.935,4.100 21.643,7.620 21.926 C 8.010 21.958,8.940 21.978,10.000 21.978 C 11.060 21.978,11.990 21.958,12.380 21.926 C 15.898 21.644,17.411 20.932,17.836 19.358 C 17.987 18.802,18.049 17.644,17.958 17.084 C 17.902 16.742,17.719 16.279,17.513 15.960 C 17.277 15.594,16.608 14.938,16.179 14.651 C 14.962 13.838,13.427 13.316,11.619 13.099 C 11.114 13.039,9.602 12.993,9.160 13.025 " fill="#1C274C" stroke="none" fill-rule="evenodd"></path></svg>