<svg width="24" height="24" viewBox="0 0 24 24" fill="none" xmlns="http://www.w3.org/2000/svg"><path d="M9.440 2.044 C 8.641 2.146,7.776 2.581,7.178 3.178 C 5.622 4.734,5.622 7.266,7.178 8.822 C 8.734 10.378,11.266 10.378,12.822 8.822 C 14.377 7.267,14.377 4.733,12.822 3.178 C 11.938 2.294,10.705 1.881,9.440 2.044 M18.826 7.286 C 18.625 7.331,18.468 7.445,18.353 7.631 C 18.266 7.770,18.259 7.829,18.246 8.510 L 18.232 9.240 17.638 9.240 C 16.881 9.240,16.678 9.282,16.482 9.478 C 16.133 9.827,16.203 10.381,16.631 10.647 C 16.770 10.734,16.829 10.741,17.506 10.754 L 18.232 10.768 18.246 11.497 C 18.260 12.210,18.262 12.230,18.367 12.388 C 18.526 12.628,18.721 12.733,19.007 12.733 C 19.203 12.733,19.270 12.714,19.408 12.617 C 19.700 12.410,19.738 12.284,19.754 11.474 L 19.768 10.768 20.494 10.754 C 21.171 10.741,21.230 10.734,21.369 10.647 C 21.943 10.290,21.812 9.424,21.162 9.284 C 21.049 9.260,20.687 9.240,20.358 9.240 L 19.760 9.240 19.759 8.630 C 19.758 8.295,19.739 7.939,19.717 7.841 C 19.622 7.428,19.243 7.192,18.826 7.286 M9.180 13.023 C 6.498 13.226,4.428 13.977,3.127 15.219 C 2.282 16.026,2.000 16.672,2.000 17.796 C 2.001 18.795,2.092 19.334,2.348 19.867 C 3.058 21.340,5.426 22.000,10.000 22.000 C 13.404 22.000,15.582 21.631,16.743 20.859 C 17.680 20.236,18.000 19.454,18.000 17.788 C 18.000 16.672,17.715 16.023,16.873 15.219 C 15.741 14.138,13.964 13.408,11.760 13.116 C 11.205 13.043,9.657 12.987,9.180 13.023 " fill="#1C274C" stroke="none" fill-rule="evenodd"></path></svg>