<svg width="24" height="24" viewBox="0 0 24 24" fill="none" xmlns="http://www.w3.org/2000/svg"><path d="M11.433 2.040 C 10.843 2.134,10.221 2.380,9.731 2.712 C 8.955 3.240,8.394 4.037,8.130 4.989 C 8.034 5.337,8.022 5.449,8.022 6.000 C 8.022 6.551,8.034 6.663,8.130 7.011 C 8.526 8.439,9.561 9.474,10.989 9.870 C 11.337 9.966,11.449 9.978,12.000 9.978 C 12.553 9.978,12.663 9.966,13.017 9.868 C 14.256 9.525,15.252 8.643,15.715 7.480 C 16.235 6.174,16.012 4.630,15.144 3.534 C 14.601 2.849,13.788 2.323,12.958 2.120 C 12.572 2.026,11.783 1.984,11.433 2.040 M7.522 12.285 C 5.833 12.481,4.409 13.731,4.018 15.361 C 3.867 15.990,3.229 21.496,3.284 21.695 C 3.335 21.879,3.538 22.115,3.708 22.186 C 3.863 22.251,4.113 22.256,4.267 22.197 C 4.407 22.145,4.588 21.977,4.666 21.827 C 4.704 21.754,4.844 20.698,5.061 18.847 C 5.247 17.270,5.427 15.863,5.462 15.721 C 5.630 15.035,6.155 14.377,6.794 14.050 C 6.977 13.957,7.152 13.880,7.183 13.880 C 7.232 13.880,7.240 14.236,7.241 16.310 C 7.241 19.812,7.297 20.603,7.589 21.240 C 7.929 21.982,8.558 22.450,9.440 22.618 C 10.404 22.802,13.596 22.802,14.560 22.618 C 15.442 22.450,16.071 21.982,16.411 21.240 C 16.703 20.603,16.759 19.812,16.759 16.310 C 16.760 14.236,16.768 13.880,16.817 13.880 C 16.848 13.880,17.023 13.957,17.206 14.050 C 17.845 14.377,18.370 15.035,18.538 15.721 C 18.573 15.863,18.753 17.270,18.939 18.847 C 19.156 20.698,19.296 21.754,19.334 21.827 C 19.583 22.305,20.198 22.386,20.548 21.987 C 20.785 21.718,20.789 21.823,20.420 18.664 C 20.199 16.772,20.049 15.638,19.984 15.366 C 19.585 13.705,18.168 12.479,16.420 12.281 C 15.978 12.231,7.956 12.235,7.522 12.285 " fill="#1C274C" stroke="none" fill-rule="evenodd"></path></svg>