<svg width="24" height="24" viewBox="0 0 24 24" fill="none" xmlns="http://www.w3.org/2000/svg"><path d="M10.433 2.040 C 9.843 2.134,9.221 2.380,8.731 2.712 C 7.955 3.240,7.394 4.037,7.130 4.989 C 7.034 5.337,7.022 5.449,7.022 6.000 C 7.022 6.551,7.034 6.663,7.130 7.011 C 7.526 8.439,8.561 9.474,9.989 9.870 C 10.337 9.966,10.449 9.978,11.000 9.978 C 11.553 9.978,11.663 9.966,12.017 9.868 C 13.256 9.525,14.252 8.643,14.715 7.480 C 15.235 6.174,15.012 4.630,14.144 3.534 C 13.601 2.849,12.788 2.323,11.958 2.120 C 11.572 2.026,10.783 1.984,10.433 2.040 M20.760 7.789 C 20.600 7.849,20.392 8.062,19.373 9.206 L 18.274 10.441 17.847 10.054 C 17.357 9.611,17.231 9.544,16.931 9.569 C 16.554 9.600,16.269 9.913,16.269 10.294 C 16.269 10.641,16.296 10.673,17.540 11.798 C 17.902 12.126,18.106 12.238,18.344 12.239 C 18.660 12.241,18.764 12.145,20.224 10.500 C 20.985 9.643,21.636 8.887,21.670 8.821 C 21.749 8.668,21.749 8.332,21.669 8.179 C 21.588 8.024,21.409 7.856,21.267 7.803 C 21.149 7.758,20.863 7.750,20.760 7.789 M10.160 13.025 C 7.491 13.218,5.326 14.023,4.057 15.296 C 3.836 15.518,3.579 15.817,3.487 15.960 C 3.281 16.279,3.098 16.742,3.042 17.084 C 2.951 17.643,3.013 18.814,3.162 19.356 C 3.595 20.935,5.100 21.643,8.620 21.926 C 9.010 21.958,9.940 21.978,11.000 21.978 C 12.060 21.978,12.990 21.958,13.380 21.926 C 16.898 21.644,18.411 20.932,18.836 19.358 C 18.987 18.802,19.049 17.644,18.958 17.084 C 18.902 16.742,18.719 16.279,18.513 15.960 C 18.277 15.594,17.608 14.938,17.179 14.651 C 15.962 13.838,14.427 13.316,12.619 13.099 C 12.114 13.039,10.602 12.993,10.160 13.025 " fill="#1C274C" stroke="none" fill-rule="evenodd"></path></svg>