<svg width="24" height="24" viewBox="0 0 24 24" fill="none" xmlns="http://www.w3.org/2000/svg"><path d="M18.811 1.278 C 18.638 1.320,18.416 1.494,18.332 1.652 C 18.244 1.818,18.243 2.180,18.330 2.344 C 18.366 2.413,18.546 2.587,18.729 2.732 C 19.431 3.289,19.897 4.026,20.129 4.948 C 20.258 5.460,20.258 6.540,20.129 7.052 C 19.897 7.974,19.431 8.711,18.729 9.268 C 18.546 9.413,18.372 9.579,18.342 9.637 C 18.056 10.190,18.520 10.841,19.126 10.739 C 19.557 10.666,20.450 9.812,20.932 9.010 C 21.368 8.286,21.641 7.433,21.726 6.524 C 21.840 5.307,21.550 4.015,20.932 2.990 C 20.691 2.589,20.200 2.000,19.894 1.744 C 19.384 1.318,19.117 1.203,18.811 1.278 M9.440 2.044 C 8.641 2.146,7.776 2.581,7.178 3.178 C 5.622 4.734,5.622 7.266,7.178 8.822 C 8.734 10.378,11.266 10.378,12.822 8.822 C 14.377 7.267,14.377 4.733,12.822 3.178 C 11.938 2.294,10.705 1.881,9.440 2.044 M16.801 3.286 C 16.637 3.334,16.455 3.458,16.402 3.556 C 16.376 3.604,16.401 3.778,16.483 4.118 C 16.597 4.598,16.606 4.615,16.817 4.843 C 17.136 5.189,17.218 5.424,17.218 6.000 C 17.218 6.647,17.144 6.824,16.680 7.286 C 16.395 7.569,16.323 7.666,16.285 7.815 C 16.130 8.432,16.758 8.936,17.337 8.659 C 17.550 8.557,17.974 8.154,18.168 7.868 C 18.562 7.288,18.726 6.740,18.726 6.000 C 18.726 5.041,18.404 4.267,17.751 3.657 C 17.378 3.308,17.098 3.198,16.801 3.286 M9.160 13.025 C 6.491 13.218,4.326 14.023,3.057 15.296 C 2.836 15.518,2.579 15.817,2.487 15.960 C 2.281 16.279,2.098 16.742,2.042 17.084 C 1.951 17.643,2.013 18.814,2.162 19.356 C 2.595 20.935,4.100 21.643,7.620 21.926 C 8.010 21.958,8.940 21.978,10.000 21.978 C 11.060 21.978,11.990 21.958,12.380 21.926 C 15.898 21.644,17.411 20.932,17.836 19.358 C 17.987 18.802,18.049 17.644,17.958 17.084 C 17.902 16.742,17.719 16.279,17.513 15.960 C 17.277 15.594,16.608 14.938,16.179 14.651 C 14.962 13.838,13.427 13.316,11.619 13.099 C 11.114 13.039,9.602 12.993,9.160 13.025 " fill="#1C274C" stroke="none" fill-rule="evenodd"></path></svg>