<svg width="24" height="24" viewBox="0 0 24 24" fill="none" xmlns="http://www.w3.org/2000/svg"><path d="M9.440 2.044 C 8.641 2.146,7.776 2.581,7.178 3.178 C 5.622 4.734,5.622 7.266,7.178 8.822 C 8.734 10.378,11.266 10.378,12.822 8.822 C 14.377 7.267,14.377 4.733,12.822 3.178 C 11.938 2.294,10.705 1.881,9.440 2.044 M17.150 8.043 C 16.309 8.242,15.801 9.229,16.079 10.126 C 16.283 10.788,16.929 11.531,17.991 12.326 C 18.514 12.718,18.721 12.819,19.000 12.819 C 19.279 12.819,19.486 12.718,20.007 12.328 C 21.328 11.339,22.000 10.434,22.000 9.644 C 22.000 8.773,21.425 8.088,20.632 8.014 C 20.195 7.973,19.655 8.164,19.208 8.518 L 19.000 8.682 18.792 8.518 C 18.268 8.104,17.651 7.925,17.150 8.043 M9.002 13.045 C 6.563 13.246,4.416 14.207,3.523 15.500 C 3.264 15.874,3.142 16.147,3.063 16.534 C 2.985 16.910,2.984 17.071,3.059 17.459 C 3.363 19.048,5.364 20.396,8.080 20.840 C 10.362 21.213,12.904 20.880,14.654 19.980 C 15.950 19.313,16.758 18.420,16.944 17.447 C 17.016 17.071,17.015 16.907,16.937 16.534 C 16.744 15.596,16.021 14.770,14.800 14.093 C 13.341 13.284,11.079 12.875,9.002 13.045 " fill="#1C274C" stroke="none" fill-rule="evenodd"></path></svg>