<svg width="24" height="24" viewBox="0 0 24 24" fill="none" xmlns="http://www.w3.org/2000/svg"><path d="M11.120 2.039 C 9.316 2.220,7.707 2.807,6.280 3.806 C 2.696 6.315,1.150 10.849,2.462 15.000 C 2.954 16.557,3.767 17.890,4.938 19.062 C 6.528 20.651,8.440 21.596,10.740 21.928 C 11.213 21.996,12.787 21.996,13.260 21.928 C 15.135 21.657,16.725 20.987,18.200 19.845 C 18.637 19.507,19.507 18.637,19.845 18.200 C 22.092 15.297,22.619 11.564,21.254 8.220 C 20.058 5.287,17.480 3.053,14.430 2.303 C 13.446 2.062,12.028 1.948,11.120 2.039 M12.566 6.062 C 12.794 6.105,13.032 6.188,13.318 6.327 C 13.685 6.505,13.782 6.575,14.104 6.896 C 14.425 7.218,14.495 7.315,14.673 7.682 C 15.094 8.551,15.105 9.413,14.704 10.260 C 14.005 11.737,12.357 12.380,10.849 11.766 C 9.995 11.419,9.313 10.616,9.076 9.680 C 9.005 9.398,9.004 8.607,9.075 8.320 C 9.158 7.981,9.445 7.407,9.670 7.127 C 10.363 6.268,11.473 5.859,12.566 6.062 M13.620 15.099 C 15.027 15.286,15.964 15.664,16.663 16.328 C 16.951 16.602,17.266 17.027,17.389 17.308 C 17.432 17.406,17.456 17.573,17.457 17.780 C 17.458 18.056,17.442 18.136,17.335 18.362 C 17.267 18.506,17.155 18.689,17.085 18.769 C 16.787 19.107,15.559 19.774,14.720 20.053 C 13.800 20.358,12.977 20.491,12.000 20.491 C 10.673 20.491,9.519 20.229,8.331 19.660 C 7.824 19.417,7.206 19.047,7.005 18.866 C 6.833 18.712,6.638 18.364,6.571 18.093 C 6.440 17.564,6.639 17.056,7.212 16.453 C 7.987 15.637,9.164 15.187,10.901 15.042 C 11.516 14.991,13.045 15.023,13.620 15.099 " fill="#1C274C" stroke="none" fill-rule="evenodd"></path></svg>