<svg width="24" height="24" viewBox="0 0 24 24" fill="none" xmlns="http://www.w3.org/2000/svg"><path d="M18.698 2.075 C 18.495 2.168,18.335 2.355,18.278 2.569 C 18.187 2.905,18.309 3.159,18.704 3.462 C 19.303 3.920,19.768 4.579,20.023 5.329 C 20.354 6.300,20.295 7.625,19.881 8.539 C 19.613 9.133,19.318 9.494,18.528 10.200 C 18.214 10.481,18.161 10.830,18.383 11.169 C 18.596 11.496,19.018 11.583,19.400 11.378 C 19.702 11.216,20.528 10.389,20.796 9.980 C 21.214 9.341,21.527 8.556,21.668 7.789 C 21.772 7.228,21.759 6.150,21.644 5.600 C 21.363 4.265,20.700 3.135,19.760 2.387 C 19.272 1.998,19.027 1.926,18.698 2.075 M9.268 2.821 C 7.204 3.212,5.771 5.172,6.039 7.240 C 6.392 9.964,9.284 11.537,11.740 10.341 C 12.234 10.100,12.756 9.692,13.078 9.294 C 14.935 7.000,13.826 3.629,10.967 2.874 C 10.556 2.766,9.702 2.739,9.268 2.821 M16.720 4.064 C 16.289 4.251,16.135 4.725,16.373 5.132 C 16.434 5.235,16.498 5.320,16.516 5.320 C 16.534 5.320,16.633 5.394,16.735 5.484 C 17.087 5.794,17.239 6.178,17.240 6.763 C 17.240 7.359,17.049 7.792,16.658 8.081 C 16.380 8.287,16.270 8.471,16.266 8.736 C 16.257 9.343,16.880 9.674,17.435 9.356 C 17.859 9.113,18.284 8.591,18.507 8.038 C 18.814 7.278,18.807 6.182,18.491 5.420 C 18.265 4.875,17.785 4.319,17.356 4.105 C 17.118 3.987,16.926 3.974,16.720 4.064 M9.080 13.785 C 6.883 13.990,5.099 14.660,4.018 15.687 C 1.897 17.702,3.258 20.330,6.949 21.342 C 7.972 21.622,8.831 21.732,10.000 21.732 C 11.169 21.732,12.028 21.622,13.052 21.341 C 16.039 20.523,17.617 18.559,16.760 16.728 C 16.098 15.312,14.110 14.207,11.600 13.859 C 11.156 13.798,9.475 13.749,9.080 13.785 " fill="#1C274C" stroke="none" fill-rule="evenodd"></path></svg>