<svg width="24" height="24" viewBox="0 0 24 24" fill="none" xmlns="http://www.w3.org/2000/svg"><path d="M11.433 2.040 C 10.843 2.134,10.221 2.380,9.731 2.712 C 8.955 3.240,8.394 4.037,8.130 4.989 C 8.034 5.337,8.022 5.449,8.022 6.000 C 8.022 6.551,8.034 6.663,8.130 7.011 C 8.526 8.439,9.561 9.474,10.989 9.870 C 11.337 9.966,11.449 9.978,12.000 9.978 C 12.553 9.978,12.663 9.966,13.017 9.868 C 14.256 9.525,15.252 8.643,15.715 7.480 C 16.235 6.174,16.012 4.630,15.144 3.534 C 14.601 2.849,13.788 2.323,12.958 2.120 C 12.572 2.026,11.783 1.984,11.433 2.040 M1.801 5.286 C 1.510 5.372,1.312 5.599,1.267 5.896 C 1.233 6.118,1.730 8.077,1.980 8.707 C 2.864 10.938,4.675 12.686,6.910 13.465 L 7.240 13.580 7.240 16.160 C 7.241 18.971,7.279 20.063,7.395 20.620 C 7.624 21.722,8.324 22.406,9.440 22.618 C 10.404 22.802,13.596 22.802,14.560 22.618 C 15.442 22.450,16.071 21.982,16.411 21.240 C 16.703 20.603,16.759 19.812,16.759 16.310 C 16.760 14.236,16.768 13.880,16.817 13.880 C 16.848 13.880,17.023 13.957,17.206 14.050 C 17.845 14.377,18.370 15.035,18.538 15.721 C 18.573 15.863,18.753 17.270,18.939 18.847 C 19.156 20.698,19.296 21.754,19.334 21.827 C 19.583 22.305,20.198 22.386,20.548 21.987 C 20.785 21.718,20.789 21.823,20.420 18.664 C 20.043 15.437,19.995 15.170,19.682 14.541 C 19.120 13.411,18.127 12.642,16.836 12.336 C 16.567 12.272,16.149 12.263,12.200 12.243 L 7.860 12.220 7.440 12.067 C 5.520 11.367,4.136 10.040,3.375 8.168 C 3.297 7.976,3.110 7.336,2.958 6.745 C 2.755 5.955,2.656 5.636,2.583 5.541 C 2.414 5.319,2.069 5.207,1.801 5.286 " fill="#1C274C" stroke="none" fill-rule="evenodd"></path></svg>