<svg width="24" height="24" viewBox="0 0 24 24" fill="none" xmlns="http://www.w3.org/2000/svg"><path d="M11.440 2.044 C 10.641 2.146,9.776 2.581,9.178 3.178 C 7.253 5.103,7.781 8.344,10.220 9.570 C 11.747 10.337,13.610 10.034,14.822 8.822 C 16.377 7.267,16.377 4.733,14.822 3.178 C 13.938 2.294,12.705 1.881,11.440 2.044 M11.029 13.044 C 8.614 13.230,6.414 14.210,5.525 15.497 C 5.255 15.888,5.137 16.159,5.053 16.585 C 4.887 17.431,5.189 18.236,5.958 19.000 C 6.701 19.738,7.776 20.292,9.140 20.640 C 11.355 21.205,13.797 21.093,15.850 20.333 L 16.121 20.233 15.936 20.027 C 15.277 19.294,15.153 18.294,15.614 17.420 C 15.797 17.073,16.200 16.684,16.563 16.505 C 16.997 16.292,17.297 16.242,18.149 16.241 L 18.879 16.240 18.781 16.019 C 17.914 14.058,14.564 12.773,11.029 13.044 M17.247 17.846 C 16.708 18.112,16.714 18.918,17.257 19.164 C 17.407 19.232,17.547 19.238,19.000 19.238 C 20.453 19.238,20.593 19.232,20.743 19.164 C 21.287 18.917,21.292 18.107,20.750 17.845 C 20.580 17.763,20.523 17.760,18.997 17.760 C 17.465 17.760,17.415 17.763,17.247 17.846 " fill="#1C274C" stroke="none" fill-rule="evenodd"></path></svg>