<svg width="24" height="24" viewBox="0 0 24 24" fill="none" xmlns="http://www.w3.org/2000/svg"><path d="M11.440 2.044 C 10.641 2.146,9.776 2.581,9.178 3.178 C 7.253 5.103,7.781 8.344,10.220 9.570 C 11.747 10.337,13.610 10.034,14.822 8.822 C 16.377 7.267,16.377 4.733,14.822 3.178 C 13.938 2.294,12.705 1.881,11.440 2.044 M11.002 13.045 C 8.563 13.246,6.416 14.207,5.523 15.500 C 5.264 15.874,5.142 16.147,5.063 16.534 C 4.985 16.910,4.984 17.071,5.059 17.459 C 5.363 19.048,7.364 20.396,10.080 20.840 C 12.362 21.213,14.904 20.880,16.654 19.980 C 17.950 19.313,18.758 18.420,18.944 17.447 C 19.016 17.071,19.015 16.907,18.937 16.534 C 18.744 15.596,18.021 14.770,16.800 14.093 C 15.341 13.284,13.079 12.875,11.002 13.045 " stroke="none" fill="black" fill-rule="evenodd"></path></svg>