<svg width="24" height="24" viewBox="0 0 24 24" fill="none" xmlns="http://www.w3.org/2000/svg"><path d="M11.440 2.044 C 10.641 2.146,9.776 2.581,9.178 3.178 C 7.253 5.103,7.781 8.344,10.220 9.570 C 11.747 10.337,13.610 10.034,14.822 8.822 C 16.377 7.267,16.377 4.733,14.822 3.178 C 13.938 2.294,12.705 1.881,11.440 2.044 M11.180 13.023 C 8.498 13.226,6.428 13.977,5.127 15.219 C 4.282 16.026,4.000 16.672,4.000 17.796 C 4.001 18.795,4.092 19.334,4.348 19.867 C 5.058 21.340,7.426 22.000,12.000 22.000 C 15.404 22.000,17.582 21.631,18.743 20.859 C 19.680 20.236,20.000 19.454,20.000 17.788 C 20.000 16.672,19.715 16.023,18.873 15.219 C 17.741 14.138,15.964 13.408,13.760 13.116 C 13.205 13.043,11.657 12.987,11.180 13.023 " fill="#1C274C" stroke="none" fill-rule="evenodd"></path></svg>