<svg width="24" height="24" viewBox="0 0 24 24" fill="none" xmlns="http://www.w3.org/2000/svg"><path d="M11.433 2.040 C 10.843 2.134,10.221 2.380,9.731 2.712 C 8.955 3.240,8.394 4.037,8.130 4.989 C 8.034 5.337,8.022 5.449,8.022 6.000 C 8.022 6.551,8.034 6.663,8.130 7.011 C 8.526 8.439,9.561 9.474,10.989 9.870 C 11.337 9.966,11.449 9.978,12.000 9.978 C 12.553 9.978,12.663 9.966,13.017 9.868 C 14.256 9.525,15.252 8.643,15.715 7.480 C 16.235 6.174,16.012 4.630,15.144 3.534 C 14.601 2.849,13.788 2.323,12.958 2.120 C 12.572 2.026,11.783 1.984,11.433 2.040 M11.160 13.025 C 8.489 13.218,6.327 14.023,5.057 15.296 C 4.836 15.518,4.579 15.817,4.487 15.960 C 4.281 16.279,4.098 16.742,4.042 17.084 C 3.951 17.643,4.013 18.814,4.162 19.356 C 4.595 20.935,6.105 21.646,9.620 21.926 C 10.352 21.984,13.371 21.998,14.086 21.946 L 14.551 21.913 14.333 21.608 C 13.783 20.842,13.510 19.977,13.510 19.000 C 13.510 18.274,13.621 17.763,13.925 17.084 C 14.326 16.192,15.239 15.294,16.147 14.901 C 16.606 14.702,17.135 14.559,17.511 14.532 C 17.694 14.519,17.851 14.494,17.862 14.476 C 17.891 14.430,17.265 14.100,16.729 13.879 C 15.827 13.507,14.725 13.231,13.619 13.100 C 13.111 13.039,11.596 12.993,11.160 13.025 M17.356 15.820 C 15.868 16.117,14.760 17.474,14.760 19.000 C 14.760 19.882,15.081 20.648,15.716 21.284 C 16.352 21.919,17.118 22.240,18.000 22.240 C 18.883 22.240,19.651 21.918,20.282 21.284 C 20.918 20.644,21.240 19.877,21.240 19.000 C 21.240 16.966,19.354 15.422,17.356 15.820 M18.470 17.305 C 18.520 17.318,18.560 17.341,18.560 17.355 C 18.560 17.402,16.363 19.577,16.339 19.553 C 16.326 19.540,16.296 19.410,16.272 19.265 C 16.184 18.735,16.354 18.208,16.745 17.798 C 16.989 17.542,17.328 17.347,17.640 17.281 C 17.819 17.244,18.299 17.257,18.470 17.305 M19.694 18.532 C 19.854 19.167,19.670 19.808,19.202 20.255 C 18.792 20.646,18.265 20.816,17.735 20.728 C 17.590 20.704,17.460 20.674,17.447 20.661 C 17.423 20.637,19.598 18.440,19.645 18.440 C 19.660 18.440,19.682 18.481,19.694 18.532 " fill="#1C274C" stroke="none" fill-rule="evenodd"></path></svg>