<svg width="24" height="24" viewBox="0 0 24 24" fill="none" xmlns="http://www.w3.org/2000/svg"><path d="M11.440 2.044 C 10.641 2.146,9.776 2.581,9.178 3.178 C 7.253 5.103,7.781 8.344,10.220 9.570 C 11.747 10.337,13.610 10.034,14.822 8.822 C 16.377 7.267,16.377 4.733,14.822 3.178 C 13.938 2.294,12.705 1.881,11.440 2.044 M11.029 13.044 C 8.614 13.230,6.414 14.210,5.525 15.497 C 5.255 15.888,5.137 16.159,5.053 16.585 C 4.887 17.431,5.189 18.236,5.958 19.000 C 7.371 20.404,10.125 21.176,12.938 20.956 C 13.247 20.932,13.521 20.900,13.546 20.886 C 13.576 20.869,13.539 20.768,13.432 20.580 C 13.201 20.175,13.014 19.704,12.891 19.211 C 12.792 18.817,12.782 18.713,12.781 18.000 C 12.781 17.281,12.789 17.187,12.890 16.789 C 13.068 16.085,13.365 15.444,13.773 14.880 C 14.007 14.557,14.657 13.928,14.989 13.703 C 15.147 13.596,15.269 13.494,15.258 13.477 C 15.230 13.432,14.288 13.216,13.800 13.143 C 12.892 13.007,11.952 12.973,11.029 13.044 M17.555 14.279 C 16.982 14.351,16.339 14.595,15.842 14.930 C 15.742 14.997,15.507 15.208,15.320 15.399 C 14.323 16.415,13.994 17.862,14.455 19.209 C 14.650 19.778,14.909 20.187,15.361 20.639 C 15.813 21.091,16.222 21.350,16.791 21.545 C 17.834 21.902,18.976 21.782,19.929 21.215 C 20.371 20.953,20.953 20.371,21.215 19.929 C 22.657 17.504,21.016 14.422,18.200 14.267 C 17.991 14.256,17.701 14.261,17.555 14.279 M18.735 15.881 L 18.970 15.970 17.475 17.466 L 15.980 18.962 15.909 18.802 C 15.658 18.237,15.741 17.369,16.100 16.801 C 16.414 16.303,16.957 15.924,17.540 15.798 C 17.823 15.737,18.473 15.782,18.735 15.881 M20.206 17.589 C 20.230 17.716,20.240 17.973,20.228 18.161 C 20.133 19.679,18.595 20.635,17.142 20.081 L 17.024 20.036 18.522 18.537 L 20.020 17.038 20.091 17.198 C 20.130 17.287,20.182 17.463,20.206 17.589 " fill="#1C274C" stroke="none" fill-rule="evenodd"></path></svg>