<svg width="24" height="24" viewBox="0 0 24 24" fill="none" xmlns="http://www.w3.org/2000/svg"><path d="M7.320 4.026 C 6.616 4.049,5.743 4.124,5.300 4.200 C 3.429 4.521,2.501 5.463,2.186 7.360 C 2.035 8.265,2.020 8.706,2.021 12.060 C 2.021 14.933,2.030 15.417,2.092 15.957 C 2.259 17.411,2.547 18.182,3.155 18.800 C 3.790 19.446,4.568 19.743,6.056 19.908 C 6.643 19.974,7.174 19.980,12.020 19.980 C 16.870 19.980,17.395 19.974,17.957 19.909 C 19.433 19.738,20.195 19.449,20.822 18.822 C 21.570 18.074,21.850 17.150,21.963 15.058 C 22.019 14.022,21.990 8.821,21.925 8.200 C 21.778 6.795,21.521 5.996,21.022 5.391 C 20.367 4.597,19.476 4.242,17.720 4.075 C 17.298 4.034,8.338 3.992,7.320 4.026 M9.657 7.118 C 10.562 7.432,11.115 8.355,10.967 9.305 C 10.899 9.740,10.723 10.084,10.404 10.404 C 9.607 11.200,8.393 11.200,7.596 10.404 C 6.989 9.796,6.836 8.904,7.207 8.125 C 7.451 7.611,8.029 7.157,8.580 7.044 C 8.864 6.986,9.379 7.022,9.657 7.118 M19.388 8.367 C 19.628 8.526,19.733 8.721,19.733 9.007 C 19.733 9.203,19.714 9.271,19.616 9.409 C 19.552 9.501,19.436 9.613,19.359 9.658 C 19.223 9.738,19.169 9.740,16.500 9.740 C 13.831 9.740,13.777 9.738,13.641 9.658 C 13.564 9.613,13.448 9.501,13.384 9.409 C 13.098 9.003,13.329 8.396,13.815 8.277 C 13.884 8.261,15.129 8.250,16.583 8.253 L 19.226 8.260 19.388 8.367 M19.373 11.355 C 19.615 11.506,19.733 11.718,19.733 12.003 C 19.733 12.203,19.714 12.270,19.616 12.409 C 19.552 12.501,19.436 12.613,19.359 12.658 C 19.223 12.738,19.165 12.740,17.000 12.740 C 14.835 12.740,14.777 12.738,14.641 12.658 C 14.564 12.613,14.448 12.501,14.384 12.409 C 14.098 12.003,14.329 11.396,14.815 11.277 C 14.884 11.260,15.903 11.250,17.080 11.253 L 19.220 11.260 19.373 11.355 M10.220 13.100 C 11.531 13.328,12.503 13.838,12.861 14.485 C 12.975 14.690,12.980 14.722,12.980 15.180 C 12.979 15.977,12.815 16.276,12.226 16.557 C 11.542 16.884,10.806 16.980,9.000 16.980 C 7.194 16.980,6.458 16.884,5.774 16.557 C 5.185 16.276,5.021 15.977,5.020 15.180 C 5.020 14.722,5.025 14.690,5.139 14.485 C 5.371 14.067,5.945 13.648,6.648 13.383 C 6.981 13.258,7.749 13.088,8.188 13.042 C 8.668 12.992,9.781 13.023,10.220 13.100 M19.373 14.355 C 19.615 14.506,19.733 14.718,19.733 15.003 C 19.733 15.203,19.714 15.270,19.616 15.409 C 19.552 15.501,19.436 15.613,19.359 15.658 C 19.225 15.737,19.161 15.740,17.500 15.740 C 15.839 15.740,15.775 15.737,15.641 15.658 C 15.564 15.613,15.448 15.501,15.384 15.409 C 15.098 15.003,15.329 14.397,15.815 14.277 C 15.884 14.260,16.678 14.249,17.580 14.253 L 19.220 14.260 19.373 14.355 " fill="#1C274C" stroke="none" fill-rule="evenodd"></path></svg>