<svg width="24" height="24" viewBox="0 0 24 24" fill="none" xmlns="http://www.w3.org/2000/svg"><path d="M11.440 2.044 C 10.641 2.146,9.776 2.581,9.178 3.178 C 7.253 5.103,7.781 8.344,10.220 9.570 C 11.747 10.337,13.610 10.034,14.822 8.822 C 16.377 7.267,16.377 4.733,14.822 3.178 C 13.938 2.294,12.705 1.881,11.440 2.044 M11.029 13.044 C 8.614 13.230,6.414 14.210,5.525 15.497 C 5.255 15.888,5.137 16.159,5.053 16.585 C 4.887 17.431,5.189 18.236,5.958 19.000 C 6.701 19.738,7.776 20.292,9.140 20.640 C 11.355 21.205,13.797 21.093,15.850 20.333 L 16.121 20.233 15.936 20.027 C 15.277 19.294,15.153 18.294,15.614 17.420 C 15.794 17.077,16.198 16.687,16.558 16.507 C 16.841 16.365,16.857 16.349,16.993 16.077 C 17.165 15.731,17.531 15.341,17.857 15.158 L 18.094 15.025 17.897 14.851 C 16.414 13.539,13.740 12.836,11.029 13.044 M18.633 16.441 C 18.346 16.593,18.240 16.848,18.240 17.383 L 18.240 17.753 17.787 17.767 C 17.368 17.779,17.321 17.789,17.164 17.893 C 16.876 18.084,16.765 18.463,16.902 18.790 C 17.046 19.136,17.257 19.238,17.830 19.239 L 18.240 19.240 18.240 19.605 C 18.240 20.059,18.297 20.257,18.483 20.443 C 18.871 20.831,19.553 20.660,19.711 20.134 C 19.738 20.044,19.760 19.806,19.760 19.605 L 19.760 19.240 20.170 19.239 C 20.675 19.238,20.861 19.168,21.027 18.916 C 21.186 18.677,21.188 18.327,21.033 18.092 C 20.865 17.839,20.660 17.760,20.167 17.760 L 19.760 17.760 19.760 17.386 C 19.760 16.842,19.653 16.590,19.358 16.439 C 19.156 16.336,18.830 16.337,18.633 16.441 " fill="#1C274C" stroke="none" fill-rule="evenodd"></path></svg>