<svg width="24" height="24" viewBox="0 0 24 24" fill="none" xmlns="http://www.w3.org/2000/svg"><path d="M9.440 2.044 C 8.641 2.146,7.776 2.581,7.178 3.178 C 5.622 4.734,5.622 7.266,7.178 8.822 C 8.734 10.378,11.266 10.378,12.822 8.822 C 14.377 7.267,14.377 4.733,12.822 3.178 C 11.938 2.294,10.705 1.881,9.440 2.044 M17.150 8.043 C 16.742 8.140,16.358 8.460,16.177 8.855 C 16.036 9.163,15.975 9.619,16.032 9.930 C 16.164 10.644,16.862 11.488,18.038 12.357 C 18.517 12.711,18.724 12.808,19.000 12.808 C 19.276 12.808,19.482 12.711,19.962 12.357 C 20.951 11.628,21.653 10.857,21.880 10.249 C 22.184 9.438,21.833 8.463,21.121 8.144 C 20.539 7.882,19.839 8.019,19.210 8.516 L 19.003 8.679 18.752 8.489 C 18.224 8.091,17.639 7.928,17.150 8.043 M9.180 13.023 C 6.498 13.226,4.428 13.977,3.127 15.219 C 2.282 16.026,2.000 16.672,2.000 17.796 C 2.001 18.795,2.092 19.334,2.348 19.867 C 3.058 21.340,5.426 22.000,10.000 22.000 C 13.404 22.000,15.582 21.631,16.743 20.859 C 17.680 20.236,18.000 19.454,18.000 17.788 C 18.000 16.672,17.715 16.023,16.873 15.219 C 15.741 14.138,13.964 13.408,11.760 13.116 C 11.205 13.043,9.657 12.987,9.180 13.023 " fill="#1C274C" stroke="none" fill-rule="evenodd"></path></svg>