<svg width="24" height="24" viewBox="0 0 24 24" fill="none" xmlns="http://www.w3.org/2000/svg"><path d="M8.440 2.044 C 7.641 2.146,6.776 2.581,6.178 3.178 C 4.254 5.102,4.783 8.345,7.220 9.570 C 9.077 10.503,11.363 9.837,12.423 8.054 C 12.821 7.385,12.979 6.799,12.978 6.000 C 12.977 5.289,12.869 4.814,12.576 4.228 C 11.803 2.682,10.172 1.821,8.440 2.044 M14.540 3.040 C 14.258 3.090,14.000 3.166,14.000 3.197 C 14.000 3.212,14.070 3.367,14.155 3.542 C 14.351 3.944,14.497 4.380,14.608 4.896 C 14.733 5.476,14.732 6.526,14.607 7.108 C 14.499 7.613,14.339 8.085,14.141 8.491 C 14.057 8.662,13.997 8.810,14.006 8.819 C 14.056 8.869,14.542 8.967,14.840 8.987 C 15.987 9.064,17.148 8.389,17.661 7.345 C 17.910 6.837,17.976 6.555,17.976 6.000 C 17.977 5.148,17.710 4.507,17.102 3.898 C 16.695 3.492,16.318 3.267,15.799 3.121 C 15.460 3.026,14.840 2.986,14.540 3.040 M8.044 13.043 C 5.622 13.229,3.414 14.210,2.525 15.497 C 2.264 15.874,2.143 16.146,2.063 16.534 C 1.984 16.914,1.984 17.086,2.063 17.466 C 2.440 19.294,4.862 20.696,8.100 20.960 C 9.349 21.061,10.636 20.952,11.865 20.640 C 14.550 19.957,16.194 18.380,15.969 16.701 C 15.662 14.408,12.042 12.737,8.044 13.043 M16.648 14.204 C 17.752 15.496,18.015 17.265,17.323 18.743 C 17.156 19.099,16.832 19.600,16.605 19.851 L 16.460 20.013 16.884 19.987 C 19.437 19.832,21.303 18.277,20.956 16.592 C 20.873 16.188,20.628 15.752,20.290 15.408 C 19.490 14.594,18.318 14.118,16.862 14.016 L 16.463 13.988 16.648 14.204 " fill="#1C274C" stroke="none" fill-rule="evenodd"></path></svg>