<svg width="24" height="24" viewBox="0 0 24 24" fill="none" xmlns="http://www.w3.org/2000/svg"><path d="M11.529 2.042 C 10.957 2.145,10.511 2.408,9.640 3.161 C 9.173 3.564,8.913 3.736,8.577 3.863 C 8.202 4.004,8.062 4.028,7.240 4.100 C 6.089 4.199,5.782 4.286,5.259 4.659 C 4.753 5.020,4.392 5.545,4.240 6.140 C 4.197 6.307,4.134 6.772,4.100 7.172 C 3.984 8.521,3.887 8.764,3.069 9.744 C 2.436 10.505,2.273 10.754,2.132 11.180 C 2.039 11.458,2.025 11.566,2.025 12.000 C 2.025 12.434,2.039 12.542,2.132 12.820 C 2.273 13.246,2.436 13.495,3.069 14.256 C 3.887 15.236,3.984 15.479,4.100 16.828 C 4.204 18.047,4.373 18.495,4.939 19.061 C 5.505 19.627,5.953 19.796,7.172 19.900 C 8.521 20.016,8.764 20.113,9.744 20.931 C 10.505 21.564,10.754 21.727,11.180 21.868 C 11.458 21.961,11.566 21.975,12.000 21.975 C 12.434 21.975,12.542 21.961,12.820 21.868 C 13.246 21.727,13.495 21.564,14.256 20.931 C 15.236 20.113,15.479 20.016,16.828 19.900 C 18.047 19.796,18.495 19.627,19.061 19.061 C 19.661 18.461,19.805 18.050,19.922 16.600 C 20.010 15.514,20.147 15.196,20.937 14.248 C 21.564 13.496,21.727 13.246,21.868 12.820 C 21.961 12.542,21.975 12.434,21.975 12.000 C 21.975 11.566,21.961 11.458,21.868 11.180 C 21.727 10.754,21.564 10.504,20.937 9.752 C 20.149 8.806,20.003 8.469,19.920 7.400 C 19.837 6.326,19.770 6.006,19.535 5.556 C 19.192 4.901,18.490 4.369,17.773 4.220 C 17.623 4.189,17.167 4.135,16.760 4.100 C 15.939 4.029,15.798 4.004,15.426 3.864 C 15.069 3.729,14.905 3.618,14.224 3.049 C 13.488 2.433,13.257 2.283,12.840 2.145 C 12.470 2.022,11.890 1.977,11.529 2.042 M16.250 8.623 C 16.559 8.838,16.681 9.247,16.539 9.591 C 16.454 9.797,10.927 15.337,10.700 15.443 C 10.492 15.541,10.226 15.540,10.023 15.441 C 9.797 15.332,7.546 13.072,7.462 12.871 C 7.295 12.471,7.467 12.014,7.859 11.810 C 8.023 11.725,8.385 11.729,8.560 11.818 C 8.637 11.857,9.078 12.265,9.541 12.724 L 10.381 13.559 12.841 11.095 C 14.462 9.471,15.355 8.606,15.460 8.555 C 15.697 8.440,16.028 8.469,16.250 8.623 " fill="#1C274C" stroke="none" fill-rule="evenodd"></path></svg>