<svg width="24" height="24" viewBox="0 0 24 24" fill="none" xmlns="http://www.w3.org/2000/svg"><path d="M4.153 2.044 C 3.358 2.105,2.878 2.280,2.562 2.622 C 2.204 3.010,2.057 3.540,2.014 4.590 L 1.987 5.240 3.614 5.240 L 5.240 5.240 5.240 3.620 L 5.240 2.000 4.910 2.006 C 4.729 2.009,4.388 2.026,4.153 2.044 M6.760 6.000 L 6.760 10.000 8.500 10.000 L 10.240 10.000 10.240 6.000 L 10.240 2.000 8.500 2.000 L 6.760 2.000 6.760 6.000 M11.760 3.614 L 11.760 5.240 13.386 5.240 L 15.011 5.240 14.982 4.631 C 14.921 3.355,14.746 2.832,14.250 2.455 C 13.897 2.185,13.384 2.066,12.369 2.018 L 11.760 1.989 11.760 3.614 M17.807 5.284 C 17.274 5.412,17.085 6.125,17.480 6.520 C 17.677 6.717,17.879 6.760,18.616 6.760 C 19.400 6.760,19.707 6.865,19.986 7.231 C 20.174 7.478,20.206 7.642,20.230 8.496 L 20.252 9.292 20.136 9.269 C 19.922 9.227,19.644 9.316,19.482 9.478 C 19.292 9.668,19.228 9.897,19.287 10.178 C 19.326 10.367,19.370 10.421,19.974 11.026 C 20.566 11.617,20.636 11.675,20.810 11.711 C 20.935 11.737,21.065 11.737,21.190 11.711 C 21.364 11.675,21.434 11.617,22.026 11.026 C 22.617 10.434,22.675 10.364,22.711 10.190 C 22.801 9.759,22.570 9.371,22.174 9.287 C 22.067 9.265,21.932 9.256,21.874 9.267 C 21.769 9.288,21.767 9.283,21.745 9.034 C 21.733 8.894,21.714 8.501,21.702 8.160 C 21.677 7.421,21.613 7.092,21.422 6.730 C 21.052 6.025,20.361 5.492,19.620 5.341 C 19.259 5.268,18.037 5.229,17.807 5.284 M2.018 7.369 C 2.066 8.384,2.185 8.897,2.455 9.250 C 2.832 9.746,3.355 9.921,4.631 9.982 L 5.240 10.011 5.240 8.386 L 5.240 6.760 3.614 6.760 L 1.989 6.760 2.018 7.369 M11.760 8.386 L 11.760 10.011 12.369 9.982 C 13.645 9.921,14.168 9.746,14.545 9.250 C 14.815 8.897,14.934 8.384,14.982 7.369 L 15.011 6.760 13.386 6.760 L 11.760 6.760 11.760 8.386 M2.800 12.290 C 2.639 12.323,2.553 12.395,1.976 12.974 C 1.252 13.699,1.203 13.785,1.286 14.172 C 1.364 14.534,1.767 14.803,2.126 14.733 C 2.232 14.712,2.233 14.713,2.255 15.006 C 2.267 15.168,2.287 15.561,2.298 15.880 C 2.324 16.583,2.391 16.915,2.578 17.270 C 2.948 17.976,3.641 18.509,4.380 18.658 C 4.799 18.742,5.849 18.780,6.134 18.721 C 6.723 18.599,6.941 17.901,6.520 17.480 C 6.324 17.284,6.120 17.240,5.407 17.240 C 4.612 17.240,4.291 17.131,4.014 16.769 C 3.826 16.522,3.794 16.358,3.770 15.504 L 3.748 14.708 3.864 14.731 C 3.928 14.744,4.067 14.735,4.174 14.713 C 4.571 14.629,4.801 14.240,4.710 13.810 C 4.673 13.638,4.612 13.562,4.070 13.012 C 3.350 12.283,3.210 12.203,2.800 12.290 M12.147 14.044 C 10.925 14.140,10.380 14.525,10.142 15.460 C 10.081 15.701,10.000 16.582,10.000 17.010 L 10.000 17.240 11.380 17.240 L 12.761 17.240 12.750 15.630 C 12.740 14.052,12.738 14.020,12.660 14.015 C 12.616 14.012,12.385 14.025,12.147 14.044 M14.240 18.000 L 14.240 22.000 15.500 22.000 L 16.760 22.000 16.760 18.000 L 16.760 14.000 15.500 14.000 L 14.240 14.000 14.240 18.000 M18.264 14.029 C 18.251 14.043,18.240 14.770,18.240 15.647 L 18.240 17.240 19.626 17.240 L 21.012 17.240 20.984 16.650 C 20.930 15.501,20.804 15.026,20.452 14.636 C 20.183 14.339,19.752 14.151,19.187 14.083 C 18.708 14.026,18.291 14.002,18.264 14.029 M10.018 19.369 C 10.097 21.039,10.418 21.593,11.460 21.858 C 11.702 21.919,12.674 22.008,12.730 21.974 C 12.746 21.964,12.760 21.236,12.760 20.358 L 12.760 18.760 11.374 18.760 L 9.989 18.760 10.018 19.369 M18.250 20.370 L 18.260 21.980 18.620 21.966 C 20.101 21.907,20.710 21.462,20.901 20.299 C 20.930 20.123,20.966 19.704,20.982 19.369 L 21.011 18.760 19.625 18.760 L 18.239 18.760 18.250 20.370 " fill="#1C274C" stroke="none" fill-rule="evenodd"></path></svg>