<svg width="24" height="24" viewBox="0 0 24 24" fill="none" xmlns="http://www.w3.org/2000/svg"><path d="M6.620 4.044 C 5.417 4.101,4.661 4.248,4.060 4.539 C 3.187 4.963,2.524 5.788,2.281 6.752 C 2.046 7.684,2.001 8.535,2.001 12.000 C 2.001 15.465,2.046 16.316,2.281 17.248 C 2.587 18.462,3.538 19.413,4.752 19.719 C 5.653 19.946,6.555 19.999,9.500 19.999 C 12.442 19.999,13.261 19.953,14.160 19.736 C 15.443 19.426,16.341 18.568,16.697 17.312 C 16.836 16.824,16.911 16.267,16.964 15.340 C 16.988 14.900,17.013 14.535,17.019 14.529 C 17.024 14.523,17.503 14.753,18.084 15.039 C 19.932 15.954,20.526 16.130,21.101 15.933 C 21.370 15.842,21.644 15.562,21.755 15.265 C 21.964 14.704,21.980 14.479,21.980 12.000 C 21.980 9.521,21.964 9.296,21.755 8.735 C 21.644 8.438,21.370 8.158,21.101 8.067 C 20.518 7.868,19.854 8.073,17.866 9.067 C 17.407 9.297,17.026 9.479,17.020 9.472 C 17.014 9.466,16.988 9.100,16.964 8.660 C 16.868 6.966,16.631 6.118,16.062 5.430 C 15.271 4.475,14.351 4.140,12.240 4.040 C 11.282 3.995,7.606 3.998,6.620 4.044 " fill="#1C274C" stroke="none" fill-rule="evenodd"></path></svg>