<svg width="24" height="24" viewBox="0 0 24 24" fill="none" xmlns="http://www.w3.org/2000/svg"><path d="M8.540 2.040 C 8.144 2.056,7.806 2.072,7.790 2.075 C 7.774 2.078,7.760 4.141,7.760 6.660 L 7.760 11.240 12.000 11.240 L 16.240 11.240 16.240 6.664 L 16.240 2.089 16.090 2.064 C 15.860 2.026,9.357 2.005,8.540 2.040 M5.660 2.338 C 4.083 2.704,3.054 3.561,2.556 4.924 C 2.426 5.280,2.240 6.002,2.240 6.150 L 2.240 6.240 4.240 6.240 L 6.240 6.240 6.240 4.240 L 6.240 2.240 6.150 2.243 C 6.100 2.244,5.880 2.287,5.660 2.338 M17.760 4.235 L 17.760 6.240 19.765 6.240 L 21.769 6.240 21.741 6.050 C 21.647 5.421,21.363 4.627,21.055 4.127 C 20.812 3.734,20.266 3.188,19.873 2.945 C 19.373 2.637,18.579 2.353,17.950 2.259 L 17.760 2.231 17.760 4.235 M2.066 7.939 C 2.053 8.038,2.029 8.821,2.014 9.679 L 1.987 11.240 4.114 11.240 L 6.240 11.240 6.240 9.500 L 6.240 7.760 4.165 7.760 L 2.091 7.760 2.066 7.939 M17.760 9.500 L 17.760 11.240 19.886 11.240 L 22.013 11.240 21.985 9.675 C 21.970 8.815,21.946 8.032,21.933 7.935 L 21.909 7.760 19.835 7.760 L 17.760 7.760 17.760 9.500 M2.014 14.321 C 2.029 15.179,2.053 15.962,2.066 16.061 L 2.091 16.240 4.165 16.240 L 6.240 16.240 6.240 14.500 L 6.240 12.760 4.114 12.760 L 1.987 12.760 2.014 14.321 M7.760 17.337 L 7.760 21.914 8.030 21.947 C 8.382 21.990,15.618 21.990,15.970 21.947 L 16.240 21.914 16.240 17.337 L 16.240 12.760 12.000 12.760 L 7.760 12.760 7.760 17.337 M17.760 14.500 L 17.760 16.240 19.835 16.240 L 21.909 16.240 21.933 16.065 C 21.946 15.968,21.970 15.185,21.985 14.325 L 22.013 12.760 19.886 12.760 L 17.760 12.760 17.760 14.500 M2.259 17.950 C 2.353 18.579,2.637 19.373,2.945 19.873 C 3.188 20.266,3.734 20.812,4.127 21.055 C 4.627 21.363,5.421 21.647,6.050 21.741 L 6.240 21.769 6.240 19.765 L 6.240 17.760 4.235 17.760 L 2.231 17.760 2.259 17.950 M17.760 19.765 L 17.760 21.769 17.950 21.741 C 18.579 21.647,19.373 21.363,19.873 21.055 C 20.266 20.812,20.812 20.266,21.055 19.873 C 21.363 19.373,21.647 18.579,21.741 17.950 L 21.769 17.760 19.765 17.760 L 17.760 17.760 17.760 19.765 " fill="#1C274C" stroke="none" fill-rule="evenodd"></path></svg>