<svg width="24" height="24" viewBox="0 0 24 24" fill="none" xmlns="http://www.w3.org/2000/svg"><path d="M10.612 2.078 C 10.464 2.169,10.360 2.347,10.360 2.510 C 10.360 2.581,10.505 2.879,10.740 3.293 C 10.949 3.660,11.120 3.970,11.120 3.981 C 11.120 3.991,10.364 4.000,9.440 4.000 L 7.760 4.000 7.760 12.000 L 7.760 20.000 9.440 20.000 C 10.364 20.000,11.120 20.009,11.120 20.019 C 11.120 20.030,10.949 20.340,10.740 20.707 C 10.326 21.436,10.298 21.537,10.451 21.764 C 10.608 21.997,10.622 21.999,11.992 21.999 C 13.376 22.000,13.411 21.994,13.562 21.748 C 13.697 21.526,13.667 21.424,13.260 20.707 C 13.051 20.340,12.880 20.030,12.880 20.019 C 12.880 20.009,13.636 20.000,14.560 20.000 L 16.240 20.000 16.240 12.000 L 16.240 4.000 14.560 4.000 C 13.636 4.000,12.880 3.991,12.880 3.981 C 12.880 3.970,13.051 3.660,13.260 3.293 C 13.495 2.879,13.640 2.581,13.640 2.510 C 13.640 2.347,13.536 2.169,13.388 2.078 C 13.268 2.005,13.179 2.000,12.000 2.000 C 10.821 2.000,10.732 2.005,10.612 2.078 M5.532 4.043 C 4.527 4.098,3.946 4.219,3.444 4.480 C 2.729 4.852,2.317 5.489,2.142 6.494 C 2.089 6.796,2.002 7.802,2.001 8.130 L 2.000 8.240 4.120 8.240 L 6.240 8.240 6.240 6.120 C 6.240 4.125,6.236 4.000,6.170 4.006 C 6.131 4.009,5.845 4.026,5.532 4.043 M12.840 4.017 C 12.840 4.075,12.414 4.761,12.317 4.860 C 12.217 4.961,12.168 4.980,12.000 4.980 C 11.832 4.980,11.783 4.961,11.683 4.860 C 11.586 4.761,11.160 4.075,11.160 4.017 C 11.160 4.008,11.538 4.000,12.000 4.000 C 12.462 4.000,12.840 4.008,12.840 4.017 M17.760 6.125 L 17.760 8.240 19.880 8.240 L 22.000 8.240 22.000 8.130 C 21.998 7.822,21.911 6.817,21.858 6.504 C 21.682 5.464,21.264 4.833,20.500 4.456 C 19.968 4.194,19.343 4.080,18.130 4.027 L 17.760 4.010 17.760 6.125 M12.292 6.814 C 12.447 6.879,12.667 7.119,12.709 7.271 C 12.726 7.331,12.740 7.659,12.740 8.000 C 12.740 8.341,12.726 8.669,12.709 8.729 C 12.667 8.881,12.447 9.121,12.292 9.186 C 11.998 9.309,11.664 9.229,11.450 8.985 C 11.379 8.905,11.307 8.789,11.291 8.729 C 11.274 8.669,11.260 8.341,11.260 8.000 C 11.260 7.659,11.274 7.331,11.291 7.271 C 11.332 7.124,11.550 6.881,11.699 6.816 C 11.857 6.747,12.130 6.746,12.292 6.814 M2.000 12.000 L 2.000 14.240 4.120 14.240 L 6.240 14.240 6.240 12.000 L 6.240 9.760 4.120 9.760 L 2.000 9.760 2.000 12.000 M17.760 12.000 L 17.760 14.240 19.880 14.240 L 22.000 14.240 22.000 12.000 L 22.000 9.760 19.880 9.760 L 17.760 9.760 17.760 12.000 M12.292 10.814 C 12.447 10.879,12.667 11.119,12.709 11.271 C 12.726 11.331,12.740 11.659,12.740 12.000 C 12.740 12.341,12.726 12.669,12.709 12.729 C 12.667 12.881,12.447 13.121,12.292 13.186 C 12.127 13.255,11.873 13.255,11.708 13.186 C 11.553 13.121,11.333 12.881,11.291 12.729 C 11.274 12.669,11.260 12.341,11.260 12.000 C 11.260 11.659,11.274 11.331,11.291 11.271 C 11.332 11.124,11.550 10.881,11.699 10.816 C 11.857 10.747,12.130 10.746,12.292 10.814 M12.292 14.814 C 12.447 14.879,12.667 15.119,12.709 15.271 C 12.726 15.331,12.740 15.659,12.740 16.000 C 12.740 16.341,12.726 16.669,12.709 16.729 C 12.667 16.881,12.447 17.121,12.292 17.186 C 12.127 17.255,11.873 17.255,11.708 17.186 C 11.553 17.121,11.333 16.881,11.291 16.729 C 11.274 16.669,11.260 16.341,11.260 16.000 C 11.260 15.659,11.274 15.331,11.291 15.271 C 11.332 15.124,11.550 14.881,11.699 14.816 C 11.857 14.747,12.130 14.746,12.292 14.814 M2.019 16.250 C 2.109 17.942,2.374 18.709,3.065 19.280 C 3.580 19.705,4.350 19.907,5.750 19.981 L 6.240 20.007 6.240 17.884 L 6.240 15.760 4.116 15.760 L 1.993 15.760 2.019 16.250 M17.760 17.885 L 17.760 20.010 18.190 19.984 C 19.714 19.892,20.411 19.713,20.935 19.280 C 21.637 18.700,21.874 18.000,21.984 16.190 L 22.010 15.760 19.885 15.760 L 17.760 15.760 17.760 17.885 M12.171 19.054 C 12.242 19.084,12.330 19.143,12.367 19.184 C 12.430 19.257,12.840 19.948,12.840 19.983 C 12.840 19.992,12.462 20.000,12.000 20.000 C 11.538 20.000,11.160 19.992,11.160 19.983 C 11.160 19.948,11.570 19.257,11.633 19.185 C 11.702 19.106,11.902 19.004,11.991 19.002 C 12.019 19.001,12.100 19.025,12.171 19.054 " fill="#1C274C" stroke="none" fill-rule="evenodd"></path></svg>