<svg width="24" height="24" viewBox="0 0 24 24" fill="none" xmlns="http://www.w3.org/2000/svg"><path d="M8.083 2.062 C 7.521 2.184,6.909 2.571,6.573 3.017 C 6.414 3.229,6.200 3.597,6.200 3.659 C 6.200 3.670,8.810 3.680,12.000 3.680 C 15.190 3.680,17.800 3.669,17.800 3.656 C 17.800 3.584,17.532 3.145,17.368 2.948 C 17.002 2.509,16.454 2.178,15.894 2.059 C 15.497 1.975,8.472 1.978,8.083 2.062 M6.380 4.779 C 5.437 4.952,4.620 5.653,4.297 6.567 C 4.268 6.651,4.257 6.720,4.273 6.720 C 4.289 6.720,4.476 6.676,4.690 6.622 C 4.903 6.567,5.335 6.491,5.649 6.452 C 6.174 6.386,6.689 6.380,12.080 6.380 C 17.471 6.380,17.986 6.386,18.511 6.452 C 18.825 6.491,19.256 6.567,19.468 6.621 C 19.681 6.675,19.862 6.711,19.871 6.702 C 19.913 6.660,19.737 6.255,19.562 5.990 C 19.124 5.328,18.506 4.912,17.760 4.777 C 17.332 4.700,6.803 4.701,6.380 4.779 M6.360 7.585 C 4.931 7.691,4.285 7.890,3.756 8.389 C 3.431 8.696,3.200 9.116,3.091 9.600 C 2.991 10.042,3.004 11.277,3.117 12.240 C 3.268 13.523,3.878 18.115,3.978 18.722 C 4.247 20.345,4.560 21.005,5.292 21.483 C 5.724 21.765,6.261 21.893,7.284 21.958 C 8.152 22.013,15.848 22.013,16.716 21.958 C 17.739 21.893,18.276 21.765,18.708 21.483 C 19.440 21.005,19.753 20.345,20.022 18.722 C 20.122 18.115,20.732 13.523,20.883 12.240 C 20.996 11.277,21.009 10.042,20.909 9.600 C 20.700 8.673,20.104 8.062,19.153 7.801 C 18.358 7.583,18.444 7.586,12.260 7.579 C 9.114 7.575,6.459 7.578,6.360 7.585 M11.150 10.747 C 11.442 10.820,12.446 11.316,13.144 11.731 C 13.621 12.016,14.612 12.710,15.051 13.069 C 15.705 13.604,15.993 14.071,16.030 14.655 C 16.078 15.423,15.748 15.954,14.761 16.698 C 13.785 17.433,13.197 17.810,12.234 18.316 C 11.023 18.952,10.462 19.021,9.846 18.609 C 9.126 18.128,8.939 17.331,8.941 14.740 C 8.943 12.500,9.083 11.703,9.567 11.177 C 9.987 10.720,10.495 10.582,11.150 10.747 M10.611 12.167 C 10.323 12.519,10.266 16.281,10.535 17.214 C 10.602 17.447,10.707 17.449,11.170 17.229 C 12.255 16.714,13.839 15.679,14.410 15.112 C 14.762 14.763,14.673 14.585,13.820 13.947 C 12.922 13.274,11.904 12.648,11.115 12.282 C 10.782 12.128,10.665 12.102,10.611 12.167 " fill="#1C274C" stroke="none" fill-rule="evenodd"></path></svg>