<svg width="24" height="24" viewBox="0 0 24 24" fill="none" xmlns="http://www.w3.org/2000/svg"><path d="M8.540 2.042 C 8.144 2.057,7.806 2.072,7.790 2.075 C 7.774 2.078,7.760 3.016,7.760 4.160 L 7.760 6.240 9.500 6.240 L 11.240 6.240 11.240 4.120 L 11.240 2.000 10.250 2.007 C 9.705 2.011,8.936 2.027,8.540 2.042 M12.760 4.114 L 12.760 6.240 14.500 6.240 L 16.240 6.240 16.240 4.165 L 16.240 2.091 16.061 2.066 C 15.962 2.053,15.179 2.029,14.321 2.014 L 12.760 1.987 12.760 4.114 M5.800 2.305 C 5.409 2.390,4.891 2.554,4.604 2.684 C 3.713 3.088,2.952 3.894,2.600 4.807 C 2.471 5.142,2.304 5.749,2.259 6.050 L 2.231 6.240 4.235 6.240 L 6.240 6.240 6.240 4.240 L 6.240 2.240 6.150 2.244 C 6.100 2.246,5.943 2.274,5.800 2.305 M17.760 4.235 L 17.760 6.240 19.765 6.240 L 21.769 6.240 21.741 6.050 C 21.647 5.421,21.363 4.627,21.055 4.127 C 20.812 3.734,20.266 3.188,19.873 2.945 C 19.373 2.637,18.579 2.353,17.950 2.259 L 17.760 2.231 17.760 4.235 M2.053 8.030 C 2.010 8.382,2.010 15.618,2.053 15.970 L 2.086 16.240 12.000 16.240 L 21.914 16.240 21.947 15.970 C 21.990 15.618,21.990 8.382,21.947 8.030 L 21.914 7.760 12.000 7.760 L 2.086 7.760 2.053 8.030 M11.146 9.622 C 11.539 9.794,13.156 10.873,13.572 11.241 C 13.832 11.470,13.999 11.768,13.999 12.000 C 13.999 12.232,13.832 12.530,13.572 12.759 C 13.152 13.130,11.538 14.205,11.126 14.388 C 10.591 14.626,10.253 14.466,10.095 13.900 C 10.040 13.703,10.025 13.409,10.010 12.266 C 9.987 10.432,10.046 9.922,10.316 9.664 C 10.525 9.463,10.758 9.451,11.146 9.622 M2.259 17.950 C 2.353 18.579,2.637 19.373,2.945 19.873 C 3.188 20.266,3.734 20.812,4.127 21.055 C 4.627 21.363,5.405 21.639,6.070 21.744 L 6.240 21.770 6.240 19.765 L 6.240 17.760 4.235 17.760 L 2.231 17.760 2.259 17.950 M7.760 19.835 L 7.760 21.909 7.935 21.933 C 8.032 21.946,8.815 21.970,9.675 21.985 L 11.240 22.013 11.240 19.886 L 11.240 17.760 9.500 17.760 L 7.760 17.760 7.760 19.835 M12.760 19.886 L 12.760 22.013 14.325 21.985 C 15.185 21.970,15.968 21.946,16.065 21.933 L 16.240 21.909 16.240 19.835 L 16.240 17.760 14.500 17.760 L 12.760 17.760 12.760 19.886 M17.760 19.765 L 17.760 21.770 17.930 21.744 C 18.272 21.690,18.908 21.512,19.233 21.380 C 19.731 21.177,20.140 20.905,20.523 20.523 C 20.905 20.140,21.178 19.731,21.380 19.233 C 21.521 18.888,21.691 18.280,21.741 17.950 L 21.769 17.760 19.765 17.760 L 17.760 17.760 17.760 19.765 " fill="#1C274C" stroke="none" fill-rule="evenodd"></path></svg>