<svg width="24" height="24" viewBox="0 0 24 24" fill="none" xmlns="http://www.w3.org/2000/svg"><path d="M6.620 4.044 C 5.417 4.101,4.661 4.248,4.060 4.539 C 3.187 4.963,2.524 5.788,2.281 6.752 C 2.046 7.684,2.001 8.535,2.001 12.000 C 2.001 15.465,2.046 16.316,2.281 17.248 C 2.587 18.462,3.538 19.413,4.752 19.719 C 5.653 19.946,6.555 19.999,9.500 19.999 C 12.442 19.999,13.261 19.953,14.160 19.736 C 15.443 19.426,16.341 18.568,16.697 17.312 C 16.836 16.824,16.911 16.267,16.964 15.340 C 16.988 14.900,17.013 14.535,17.019 14.529 C 17.024 14.523,17.503 14.753,18.084 15.039 C 19.932 15.954,20.526 16.130,21.101 15.933 C 21.370 15.842,21.644 15.562,21.755 15.265 C 21.964 14.704,21.980 14.479,21.980 12.000 C 21.980 9.521,21.964 9.296,21.755 8.735 C 21.644 8.438,21.370 8.158,21.101 8.067 C 20.518 7.868,19.854 8.073,17.866 9.067 C 17.407 9.297,17.026 9.479,17.020 9.472 C 17.014 9.466,16.988 9.100,16.964 8.660 C 16.868 6.966,16.631 6.118,16.062 5.430 C 15.271 4.475,14.351 4.140,12.240 4.040 C 11.282 3.995,7.606 3.998,6.620 4.044 M9.790 8.822 C 9.988 8.904,10.077 8.990,10.165 9.180 C 10.229 9.321,10.238 9.454,10.239 10.287 L 10.240 11.234 11.230 11.247 C 12.191 11.260,12.224 11.263,12.373 11.355 C 12.615 11.506,12.733 11.718,12.733 12.003 C 12.733 12.203,12.714 12.270,12.616 12.409 C 12.392 12.729,12.352 12.738,11.230 12.753 L 10.240 12.765 10.239 13.713 C 10.238 14.546,10.229 14.679,10.165 14.820 C 10.077 15.010,9.988 15.096,9.790 15.178 C 9.602 15.257,9.398 15.257,9.210 15.178 C 9.012 15.096,8.923 15.010,8.835 14.820 C 8.771 14.679,8.762 14.546,8.761 13.713 L 8.760 12.765 7.770 12.753 C 6.648 12.738,6.608 12.729,6.384 12.409 C 6.286 12.271,6.267 12.203,6.267 12.007 C 6.267 11.721,6.372 11.526,6.612 11.367 L 6.774 11.260 7.767 11.247 L 8.760 11.234 8.760 10.296 C 8.760 9.315,8.780 9.179,8.952 8.986 C 9.131 8.783,9.517 8.708,9.790 8.822 " fill="#1C274C" stroke="none" fill-rule="evenodd"></path></svg>