<svg width="24" height="24" viewBox="0 0 24 24" fill="none" xmlns="http://www.w3.org/2000/svg"><path d="M11.811 1.278 C 11.639 1.320,11.417 1.493,11.330 1.652 C 11.275 1.754,11.258 1.906,11.247 2.390 L 11.233 3.000 10.126 3.000 C 9.518 3.000,8.736 3.012,8.390 3.026 L 7.760 3.053 7.760 12.000 L 7.760 20.948 8.186 20.974 C 8.421 20.988,9.204 21.000,9.926 21.000 L 11.240 21.000 11.240 21.530 C 11.240 22.161,11.280 22.330,11.476 22.525 C 11.878 22.928,12.567 22.752,12.718 22.209 C 12.741 22.127,12.760 21.822,12.760 21.530 L 12.760 21.000 14.074 21.000 C 14.796 21.000,15.579 20.988,15.814 20.974 L 16.240 20.948 16.240 12.000 L 16.240 3.053 15.610 3.026 C 15.263 3.012,14.482 3.000,13.874 3.000 L 12.767 3.000 12.754 2.390 C 12.742 1.863,12.729 1.761,12.658 1.641 C 12.494 1.361,12.122 1.202,11.811 1.278 M12.752 3.431 C 12.738 3.793,12.719 3.891,12.638 4.035 C 12.364 4.522,11.652 4.527,11.369 4.045 C 11.279 3.892,11.263 3.810,11.248 3.434 L 11.230 3.000 12.000 3.000 L 12.770 3.000 12.752 3.431 M5.820 3.297 C 5.329 3.424,5.000 3.568,4.612 3.825 C 3.899 4.297,3.474 4.987,3.246 6.042 C 3.174 6.372,3.040 7.441,3.040 7.679 C 3.040 7.759,3.059 7.760,4.640 7.760 L 6.240 7.760 6.240 5.480 C 6.240 4.226,6.226 3.201,6.210 3.202 C 6.194 3.203,6.018 3.246,5.820 3.297 M17.760 5.481 L 17.760 7.760 19.364 7.760 L 20.968 7.760 20.942 7.470 C 20.790 5.765,20.539 4.967,19.939 4.289 C 19.503 3.796,18.701 3.380,17.890 3.227 L 17.760 3.202 17.760 5.481 M12.405 6.381 C 12.485 6.432,12.593 6.543,12.645 6.627 L 12.740 6.780 12.740 8.660 C 12.740 10.468,12.737 10.545,12.660 10.676 C 12.616 10.750,12.511 10.867,12.426 10.936 C 12.288 11.048,12.245 11.060,12.000 11.060 C 11.755 11.060,11.712 11.048,11.574 10.936 C 11.489 10.867,11.384 10.750,11.340 10.676 C 11.263 10.545,11.260 10.468,11.260 8.660 L 11.260 6.780 11.353 6.631 C 11.586 6.256,12.044 6.147,12.405 6.381 M3.000 12.000 L 3.000 14.760 4.620 14.760 L 6.240 14.760 6.240 12.000 L 6.240 9.240 4.620 9.240 L 3.000 9.240 3.000 12.000 M17.760 12.000 L 17.760 14.760 19.380 14.760 L 21.000 14.760 21.000 12.000 L 21.000 9.240 19.380 9.240 L 17.760 9.240 17.760 12.000 M12.302 12.995 C 12.483 13.078,12.665 13.273,12.710 13.433 C 12.727 13.492,12.740 14.371,12.740 15.387 L 12.740 17.233 12.619 17.405 C 12.453 17.642,12.273 17.739,12.000 17.739 C 11.727 17.739,11.547 17.642,11.381 17.405 L 11.260 17.233 11.260 15.387 C 11.260 14.371,11.273 13.492,11.290 13.433 C 11.363 13.171,11.710 12.922,12.000 12.922 C 12.077 12.922,12.213 12.955,12.302 12.995 M3.040 16.321 C 3.040 16.559,3.174 17.628,3.246 17.958 C 3.511 19.182,4.078 19.968,5.020 20.421 C 5.280 20.546,5.806 20.716,6.110 20.773 L 6.240 20.798 6.240 18.519 L 6.240 16.240 4.640 16.240 C 3.059 16.240,3.040 16.241,3.040 16.321 M17.760 18.519 L 17.760 20.798 17.890 20.773 C 19.012 20.561,19.870 19.991,20.334 19.151 C 20.665 18.551,20.823 17.872,20.942 16.530 L 20.968 16.240 19.364 16.240 L 17.760 16.240 17.760 18.519 M12.348 19.684 C 12.467 19.742,12.554 19.824,12.628 19.950 C 12.721 20.109,12.737 20.186,12.752 20.566 L 12.770 21.000 12.000 21.000 L 11.230 21.000 11.248 20.566 C 11.263 20.187,11.279 20.109,11.372 19.951 C 11.564 19.623,11.985 19.508,12.348 19.684 " fill="#1C274C" stroke="none" fill-rule="evenodd"></path></svg>