<svg width="24" height="24" viewBox="0 0 24 24" fill="none" xmlns="http://www.w3.org/2000/svg"><path d="M7.760 4.120 L 7.760 6.240 9.500 6.240 L 11.240 6.240 11.240 4.144 C 11.240 2.270,11.233 2.046,11.177 2.024 C 11.142 2.011,10.359 2.000,9.437 2.000 L 7.760 2.000 7.760 4.120 M5.260 2.084 C 3.581 2.241,2.666 2.824,2.299 3.973 C 2.167 4.387,2.084 4.912,2.058 5.500 C 2.046 5.764,2.030 6.038,2.021 6.110 L 2.005 6.240 4.123 6.240 L 6.240 6.240 6.240 4.140 L 6.240 2.040 5.930 2.045 C 5.760 2.048,5.458 2.066,5.260 2.084 M12.760 6.120 L 12.760 8.240 14.500 8.240 L 16.240 8.240 16.240 6.120 L 16.240 4.000 14.500 4.000 L 12.760 4.000 12.760 6.120 M17.760 6.134 L 17.760 8.240 19.877 8.240 L 21.995 8.240 21.979 8.110 C 21.970 8.039,21.954 7.764,21.942 7.500 C 21.904 6.651,21.758 5.979,21.506 5.500 C 21.437 5.368,21.254 5.132,21.100 4.975 C 20.535 4.401,19.706 4.131,18.275 4.055 L 17.760 4.028 17.760 6.134 M2.000 11.500 L 2.000 15.240 6.620 15.240 L 11.240 15.240 11.240 11.500 L 11.240 7.760 6.620 7.760 L 2.000 7.760 2.000 11.500 M12.760 13.500 L 12.760 17.240 17.380 17.240 L 22.000 17.240 22.000 13.500 L 22.000 9.760 17.380 9.760 L 12.760 9.760 12.760 13.500 M2.080 16.870 C 2.080 17.082,2.200 17.717,2.299 18.027 C 2.515 18.710,2.928 19.187,3.571 19.497 C 4.128 19.766,4.735 19.892,5.733 19.945 L 6.240 19.972 6.240 18.366 L 6.240 16.760 4.160 16.760 L 2.080 16.760 2.080 16.870 M7.760 18.380 L 7.760 20.000 9.500 20.000 L 11.240 20.000 11.240 18.380 L 11.240 16.760 9.500 16.760 L 7.760 16.760 7.760 18.380 M12.760 20.356 C 12.760 21.774,12.767 21.954,12.823 21.976 C 12.858 21.989,13.641 22.000,14.563 22.000 L 16.240 22.000 16.240 20.380 L 16.240 18.760 14.500 18.760 L 12.760 18.760 12.760 20.356 M17.760 20.366 L 17.760 21.972 18.267 21.945 C 19.265 21.892,19.872 21.766,20.429 21.497 C 21.072 21.187,21.485 20.710,21.701 20.027 C 21.800 19.717,21.920 19.082,21.920 18.870 L 21.920 18.760 19.840 18.760 L 17.760 18.760 17.760 20.366 " fill="#1C274C" stroke="none" fill-rule="evenodd"></path></svg>