<svg width="24" height="24" viewBox="0 0 24 24" fill="none" xmlns="http://www.w3.org/2000/svg"><path d="M8.540 2.040 C 8.144 2.056,7.806 2.072,7.790 2.075 C 7.774 2.078,7.760 6.544,7.760 11.999 L 7.760 21.918 7.870 21.949 C 8.014 21.989,15.986 21.989,16.130 21.949 L 16.240 21.918 16.240 12.004 L 16.240 2.089 16.090 2.064 C 15.860 2.026,9.357 2.005,8.540 2.040 M5.800 2.305 C 5.409 2.390,4.891 2.554,4.604 2.684 C 3.713 3.088,2.952 3.894,2.600 4.807 C 2.471 5.142,2.304 5.749,2.259 6.050 L 2.231 6.240 4.235 6.240 L 6.240 6.240 6.240 4.240 L 6.240 2.240 6.150 2.244 C 6.100 2.246,5.943 2.274,5.800 2.305 M17.760 4.235 L 17.760 6.240 19.765 6.240 L 21.770 6.240 21.744 6.070 C 21.639 5.405,21.363 4.627,21.055 4.127 C 20.812 3.734,20.266 3.188,19.873 2.945 C 19.373 2.637,18.579 2.353,17.950 2.259 L 17.760 2.231 17.760 4.235 M2.066 7.939 C 2.053 8.038,2.029 8.821,2.014 9.679 L 1.987 11.240 4.114 11.240 L 6.240 11.240 6.240 9.500 L 6.240 7.760 4.165 7.760 L 2.091 7.760 2.066 7.939 M17.760 9.500 L 17.760 11.240 19.886 11.240 L 22.013 11.240 21.985 9.675 C 21.970 8.815,21.946 8.032,21.933 7.935 L 21.909 7.760 19.835 7.760 L 17.760 7.760 17.760 9.500 M11.224 9.675 C 11.606 9.859,13.105 10.856,13.498 11.187 C 14.159 11.742,14.155 12.270,13.488 12.824 C 13.202 13.062,11.726 14.064,11.360 14.269 C 10.871 14.543,10.533 14.563,10.310 14.330 C 10.068 14.078,10.000 13.554,10.001 11.980 C 10.003 10.356,10.072 9.880,10.344 9.642 C 10.550 9.461,10.801 9.470,11.224 9.675 M2.014 14.321 C 2.029 15.179,2.053 15.962,2.066 16.061 L 2.091 16.240 4.165 16.240 L 6.240 16.240 6.240 14.500 L 6.240 12.760 4.114 12.760 L 1.987 12.760 2.014 14.321 M17.760 14.500 L 17.760 16.240 19.835 16.240 L 21.909 16.240 21.933 16.065 C 21.946 15.968,21.970 15.185,21.985 14.325 L 22.013 12.760 19.886 12.760 L 17.760 12.760 17.760 14.500 M2.259 17.950 C 2.353 18.579,2.637 19.373,2.945 19.873 C 3.188 20.266,3.734 20.812,4.127 21.055 C 4.627 21.363,5.421 21.647,6.050 21.741 L 6.240 21.769 6.240 19.765 L 6.240 17.760 4.235 17.760 L 2.231 17.760 2.259 17.950 M17.760 19.765 L 17.760 21.769 17.950 21.741 C 18.579 21.647,19.373 21.363,19.873 21.055 C 20.266 20.812,20.812 20.266,21.055 19.873 C 21.363 19.373,21.639 18.595,21.744 17.930 L 21.770 17.760 19.765 17.760 L 17.760 17.760 17.760 19.765 " fill="#1C274C" stroke="none" fill-rule="evenodd"></path></svg>