<svg width="24" height="24" viewBox="0 0 24 24" fill="none" xmlns="http://www.w3.org/2000/svg"><path d="M11.320 2.024 C 11.243 2.033,11.009 2.059,10.800 2.081 C 9.291 2.246,7.767 2.812,6.440 3.700 C 4.362 5.092,2.918 7.144,2.302 9.580 C 2.078 10.465,2.023 10.942,2.023 12.000 C 2.023 13.058,2.078 13.535,2.302 14.420 C 2.492 15.172,2.732 15.817,3.078 16.500 C 3.592 17.520,4.127 18.253,4.958 19.080 C 5.790 19.908,6.548 20.452,7.580 20.959 C 8.555 21.439,9.515 21.740,10.600 21.907 C 11.244 22.006,12.756 22.006,13.400 21.907 C 15.180 21.633,16.797 20.938,18.207 19.840 C 18.635 19.507,19.507 18.635,19.840 18.207 C 20.505 17.353,21.110 16.256,21.434 15.315 C 21.836 14.149,21.978 13.287,21.978 12.000 C 21.978 10.961,21.928 10.517,21.715 9.645 C 21.536 8.909,21.311 8.295,20.959 7.580 C 19.476 4.565,16.601 2.516,13.240 2.080 C 12.886 2.034,11.563 1.995,11.320 2.024 M7.620 6.699 C 7.986 6.781,8.225 7.210,8.121 7.598 C 8.092 7.704,7.972 7.877,7.763 8.114 C 6.873 9.124,6.404 10.193,6.273 11.510 C 6.140 12.847,6.557 14.318,7.384 15.423 C 7.480 15.552,7.670 15.781,7.806 15.932 C 7.941 16.084,8.077 16.280,8.108 16.369 C 8.234 16.735,8.030 17.154,7.658 17.293 C 7.489 17.357,7.431 17.361,7.262 17.323 C 7.004 17.264,6.873 17.159,6.497 16.711 C 5.353 15.348,4.762 13.743,4.762 12.000 C 4.762 10.224,5.401 8.532,6.580 7.189 C 6.885 6.841,7.028 6.733,7.260 6.678 C 7.381 6.649,7.399 6.650,7.620 6.699 M16.987 6.785 C 17.323 6.976,18.094 7.992,18.467 8.734 C 19.631 11.051,19.472 13.821,18.051 15.980 C 17.778 16.396,17.249 17.038,17.066 17.178 C 16.997 17.231,16.856 17.295,16.753 17.321 C 16.259 17.445,15.774 16.989,15.860 16.482 C 15.891 16.299,15.947 16.212,16.295 15.814 C 17.140 14.846,17.601 13.776,17.726 12.490 C 17.856 11.149,17.441 9.680,16.623 8.586 C 16.529 8.461,16.334 8.224,16.188 8.059 C 16.014 7.862,15.907 7.701,15.878 7.593 C 15.769 7.187,16.015 6.778,16.423 6.687 C 16.627 6.641,16.781 6.667,16.987 6.785 M12.360 8.281 C 12.875 8.335,13.267 8.449,13.685 8.665 C 14.494 9.082,15.014 9.624,15.400 10.452 C 15.675 11.040,15.785 11.707,15.717 12.365 C 15.668 12.846,15.586 13.150,15.400 13.548 C 14.901 14.618,14.051 15.331,12.922 15.630 C 12.399 15.768,11.663 15.775,11.149 15.648 C 10.284 15.434,9.543 14.957,9.038 14.289 C 7.929 12.825,8.021 10.802,9.255 9.451 C 9.831 8.821,10.722 8.375,11.587 8.284 C 11.759 8.266,11.918 8.249,11.940 8.246 C 11.962 8.243,12.151 8.259,12.360 8.281 M11.540 9.798 C 10.501 10.023,9.760 10.940,9.760 12.000 C 9.760 12.615,9.979 13.139,10.420 13.580 C 11.309 14.469,12.691 14.469,13.580 13.580 C 14.744 12.416,14.319 10.482,12.771 9.894 C 12.473 9.781,11.844 9.732,11.540 9.798 " fill="#1C274C" stroke="none" fill-rule="evenodd"></path></svg>