<svg width="24" height="24" viewBox="0 0 24 24" fill="none" xmlns="http://www.w3.org/2000/svg"><path d="M11.601 2.064 C 10.461 2.370,10.128 3.846,11.022 4.629 C 11.181 4.769,11.239 4.848,11.239 4.925 C 11.240 5.024,11.225 5.033,11.010 5.058 C 9.886 5.194,8.680 5.675,7.795 6.342 L 7.570 6.512 7.206 6.146 L 6.842 5.780 6.904 5.600 C 6.938 5.501,6.976 5.300,6.989 5.152 C 7.074 4.130,6.330 3.192,5.305 3.033 C 4.106 2.847,3.000 3.791,3.000 5.000 C 3.000 5.939,3.701 6.781,4.632 6.962 C 4.924 7.019,5.341 6.994,5.600 6.904 L 5.780 6.842 6.140 7.201 C 6.416 7.477,6.490 7.573,6.460 7.617 C 5.903 8.413,5.575 9.027,5.373 9.650 L 5.260 9.999 5.057 10.000 C 4.481 10.001,3.993 10.200,3.596 10.596 C 2.834 11.359,2.801 12.546,3.522 13.334 C 3.904 13.752,4.338 13.953,4.953 13.995 L 5.326 14.020 5.482 14.436 C 5.759 15.170,6.153 15.825,6.727 16.508 L 7.044 16.885 6.645 17.313 C 6.426 17.548,6.148 17.836,6.028 17.953 L 5.811 18.167 5.628 18.105 C 4.927 17.867,4.134 18.059,3.596 18.596 C 2.800 19.393,2.800 20.607,3.596 21.404 C 4.393 22.200,5.607 22.200,6.404 21.404 C 6.917 20.890,7.101 20.240,6.937 19.518 L 6.874 19.240 7.546 18.540 C 7.916 18.155,8.222 17.840,8.225 17.840 C 8.229 17.840,8.355 17.915,8.506 18.007 C 8.743 18.151,9.171 18.363,9.524 18.509 C 9.607 18.544,9.653 18.625,9.760 18.926 C 10.028 19.686,10.305 20.073,10.818 20.407 C 11.506 20.856,12.494 20.856,13.182 20.407 C 13.687 20.078,13.982 19.670,14.220 18.973 L 14.332 18.645 14.656 18.517 C 15.046 18.363,15.302 18.238,15.614 18.050 L 15.848 17.909 16.466 18.525 L 17.084 19.140 17.058 19.367 C 17.028 19.637,17.094 19.990,17.221 20.240 C 17.346 20.486,17.652 20.780,17.918 20.911 C 18.115 21.008,18.186 21.020,18.540 21.020 C 18.890 21.020,18.969 21.007,19.167 20.914 C 19.689 20.669,20.002 20.204,20.032 19.626 C 20.059 19.101,19.866 18.681,19.454 18.365 C 19.170 18.146,18.912 18.067,18.496 18.070 L 18.131 18.073 17.580 17.520 L 17.029 16.968 17.318 16.634 C 18.006 15.840,18.515 14.875,18.764 13.895 L 18.856 13.530 19.150 13.489 C 19.518 13.437,19.808 13.297,20.053 13.053 C 20.644 12.461,20.644 11.539,20.053 10.947 C 19.779 10.674,19.503 10.550,19.116 10.528 C 18.859 10.513,18.800 10.498,18.799 10.445 C 18.798 10.312,18.472 9.413,18.281 9.019 C 18.124 8.692,17.794 8.161,17.460 7.696 C 17.430 7.653,17.499 7.561,17.749 7.312 L 18.077 6.984 18.468 6.982 C 18.811 6.980,18.890 6.966,19.100 6.868 C 19.415 6.721,19.724 6.413,19.867 6.104 C 19.965 5.894,19.980 5.811,19.980 5.500 C 19.980 5.189,19.965 5.106,19.867 4.896 C 19.724 4.587,19.415 4.278,19.100 4.133 C 18.894 4.037,18.809 4.021,18.500 4.021 C 18.179 4.020,18.112 4.034,17.880 4.145 C 17.548 4.304,17.302 4.551,17.144 4.880 C 17.032 5.115,17.020 5.178,17.018 5.531 L 17.016 5.922 16.684 6.256 L 16.351 6.590 16.094 6.395 C 15.291 5.788,14.177 5.302,13.189 5.128 C 12.791 5.058,12.780 5.053,12.767 4.944 C 12.756 4.850,12.792 4.798,12.975 4.634 C 13.878 3.829,13.540 2.364,12.381 2.062 C 12.091 1.986,11.888 1.987,11.601 2.064 M11.100 7.135 C 11.412 7.278,11.725 7.588,11.864 7.891 C 11.962 8.106,11.978 8.190,11.978 8.500 C 11.979 8.810,11.963 8.893,11.867 9.100 C 11.722 9.415,11.413 9.724,11.104 9.867 C 10.894 9.965,10.811 9.980,10.500 9.980 C 10.180 9.980,10.111 9.966,9.880 9.856 C 9.551 9.698,9.304 9.452,9.145 9.120 C 9.034 8.888,9.020 8.821,9.021 8.500 C 9.021 8.191,9.037 8.106,9.133 7.900 C 9.324 7.489,9.727 7.148,10.150 7.041 C 10.402 6.977,10.852 7.022,11.100 7.135 M15.180 10.343 C 15.779 10.484,16.423 10.940,16.773 11.472 C 17.808 13.044,17.059 15.084,15.240 15.645 C 15.003 15.718,14.847 15.738,14.500 15.738 C 13.997 15.738,13.648 15.651,13.191 15.412 C 12.666 15.137,12.176 14.581,11.949 14.000 C 11.379 12.549,12.141 10.911,13.624 10.398 C 14.074 10.243,14.663 10.222,15.180 10.343 M14.115 11.813 C 13.585 12.011,13.264 12.459,13.264 13.000 C 13.264 13.465,13.507 13.870,13.926 14.101 C 14.119 14.208,14.176 14.220,14.500 14.220 C 14.824 14.220,14.881 14.208,15.074 14.101 C 15.957 13.612,15.958 12.382,15.076 11.902 C 14.823 11.764,14.360 11.721,14.115 11.813 M9.340 12.066 C 9.709 12.192,10.000 12.604,10.000 13.000 C 10.000 13.407,9.708 13.811,9.321 13.940 C 8.923 14.072,8.461 13.940,8.222 13.626 C 7.610 12.824,8.386 11.741,9.340 12.066 " fill="#1C274C" stroke="none" fill-rule="evenodd"></path></svg>