<svg width="24" height="24" viewBox="0 0 24 24" fill="none" xmlns="http://www.w3.org/2000/svg"><path d="M11.771 2.665 C 11.293 3.806,11.125 4.349,10.954 5.309 C 10.877 5.745,10.863 5.962,10.862 6.780 C 10.861 7.747,10.885 8.003,11.040 8.740 C 11.201 9.502,11.505 10.373,11.842 11.040 C 12.077 11.505,12.026 11.474,12.640 11.522 C 13.756 11.608,14.923 11.854,15.940 12.218 C 16.631 12.465,17.865 13.079,18.460 13.471 C 19.363 14.066,20.286 14.854,20.880 15.535 C 21.045 15.724,21.190 15.880,21.202 15.880 C 21.245 15.880,21.521 15.075,21.662 14.542 C 21.843 13.854,21.954 13.098,21.986 12.340 L 22.012 11.740 21.490 11.237 C 19.484 9.304,17.065 7.969,14.324 7.281 C 13.964 7.190,13.622 7.092,13.564 7.062 C 13.089 6.814,13.053 6.112,13.500 5.806 C 13.736 5.644,13.891 5.633,14.380 5.743 C 16.832 6.294,19.393 7.520,21.260 9.036 C 21.414 9.161,21.561 9.277,21.587 9.292 C 21.651 9.331,21.474 8.763,21.254 8.220 C 20.758 7.001,20.029 5.910,19.060 4.939 C 17.299 3.175,15.048 2.173,12.497 2.018 L 12.055 1.991 11.771 2.665 M9.540 2.317 C 8.754 2.520,8.236 2.714,7.502 3.080 L 6.900 3.380 6.733 3.880 C 5.917 6.328,5.729 9.116,6.198 11.820 C 6.297 12.392,6.227 12.662,5.929 12.858 C 5.630 13.055,5.287 13.029,5.015 12.790 C 4.824 12.622,4.781 12.499,4.665 11.773 C 4.482 10.635,4.460 10.327,4.461 8.880 C 4.461 7.408,4.498 6.938,4.699 5.829 C 4.752 5.538,4.806 5.237,4.820 5.160 L 4.845 5.020 4.620 5.260 C 4.496 5.392,4.229 5.719,4.027 5.987 C 2.998 7.351,2.381 8.819,2.113 10.540 C 2.043 10.988,2.026 11.276,2.025 11.980 C 2.025 12.977,2.081 13.475,2.299 14.380 C 2.525 15.320,2.983 16.480,3.128 16.480 C 3.344 16.480,4.169 16.333,4.700 16.199 C 6.965 15.631,9.030 14.309,10.496 12.489 L 10.731 12.197 10.469 11.649 C 10.153 10.989,10.015 10.644,9.828 10.054 C 9.067 7.650,9.173 5.104,10.136 2.690 L 10.347 2.160 10.243 2.161 C 10.187 2.162,9.870 2.232,9.540 2.317 M11.638 13.468 C 10.190 15.262,8.154 16.670,5.947 17.403 C 5.451 17.568,4.494 17.812,4.150 17.862 C 4.045 17.877,3.960 17.904,3.960 17.922 C 3.960 17.998,4.490 18.614,4.958 19.082 C 5.439 19.563,6.157 20.160,6.254 20.160 C 6.279 20.160,6.583 20.115,6.928 20.061 C 9.456 19.665,11.900 18.713,14.132 17.254 C 14.834 16.796,14.851 16.788,15.123 16.808 C 15.658 16.847,15.957 17.392,15.710 17.882 C 15.636 18.028,15.537 18.116,15.160 18.372 C 14.137 19.065,12.831 19.770,11.660 20.262 C 10.917 20.574,9.586 21.021,8.911 21.186 C 8.653 21.249,8.441 21.312,8.441 21.327 C 8.440 21.367,9.247 21.626,9.720 21.737 C 10.554 21.932,10.995 21.978,12.000 21.978 C 13.038 21.978,13.479 21.929,14.355 21.715 C 15.741 21.377,17.030 20.750,18.200 19.846 C 18.876 19.324,19.764 18.368,20.278 17.609 L 20.448 17.358 20.134 16.970 C 18.334 14.749,15.631 13.309,12.760 13.043 C 11.970 12.970,12.071 12.932,11.638 13.468 " fill="#1C274C" stroke="none" fill-rule="evenodd"></path></svg>