<svg width="24" height="24" viewBox="0 0 24 24" fill="none" xmlns="http://www.w3.org/2000/svg"><path d="M11.771 2.665 C 11.427 3.485,11.279 3.901,11.146 4.423 C 11.044 4.820,10.960 5.210,10.960 5.282 C 10.960 5.303,11.082 5.320,11.230 5.321 C 11.562 5.322,12.510 5.413,13.100 5.500 C 15.731 5.890,18.363 6.951,20.539 8.500 C 20.826 8.703,21.183 8.971,21.333 9.095 C 21.484 9.219,21.613 9.320,21.620 9.320 C 21.650 9.320,21.421 8.632,21.254 8.220 C 20.758 7.001,20.029 5.910,19.060 4.939 C 17.299 3.175,15.048 2.173,12.497 2.018 L 12.055 1.991 11.771 2.665 M9.540 2.317 C 8.753 2.520,8.235 2.714,7.503 3.080 L 6.902 3.380 6.827 3.580 C 6.544 4.340,6.181 5.918,6.062 6.909 C 5.890 8.334,5.913 10.006,6.123 11.360 C 6.303 12.526,6.631 13.756,7.046 14.828 L 7.204 15.235 7.452 15.091 C 8.555 14.452,9.660 13.516,10.430 12.569 L 10.732 12.198 10.469 11.649 C 10.153 10.989,10.015 10.644,9.828 10.054 C 9.067 7.650,9.173 5.104,10.136 2.690 L 10.347 2.160 10.243 2.161 C 10.187 2.162,9.870 2.232,9.540 2.317 M4.551 5.332 C 3.182 6.901,2.397 8.605,2.094 10.660 C 1.998 11.316,1.998 12.673,2.095 13.340 C 2.234 14.303,2.498 15.227,2.879 16.090 C 3.080 16.545,3.011 16.521,3.757 16.399 C 4.610 16.260,5.800 15.925,5.800 15.824 C 5.800 15.795,5.746 15.639,5.679 15.478 C 5.467 14.963,5.135 13.921,4.966 13.240 C 4.621 11.847,4.482 10.777,4.452 9.280 C 4.423 7.855,4.506 6.813,4.745 5.586 C 4.800 5.303,4.837 5.063,4.827 5.054 C 4.817 5.044,4.693 5.169,4.551 5.332 M10.853 7.317 C 10.913 8.521,11.232 9.768,11.759 10.860 C 11.886 11.124,12.015 11.372,12.045 11.410 C 12.089 11.466,12.206 11.488,12.640 11.522 C 13.756 11.608,14.923 11.854,15.940 12.218 C 16.631 12.465,17.865 13.079,18.460 13.471 C 19.363 14.066,20.286 14.854,20.880 15.535 C 21.045 15.724,21.190 15.880,21.202 15.880 C 21.245 15.880,21.521 15.075,21.662 14.542 C 21.843 13.854,21.954 13.098,21.986 12.340 L 22.011 11.740 21.511 11.257 C 18.725 8.566,15.068 6.998,11.184 6.829 L 10.828 6.814 10.853 7.317 M11.638 13.468 C 10.190 15.262,8.154 16.670,5.947 17.403 C 5.451 17.568,4.494 17.812,4.150 17.862 C 4.045 17.877,3.960 17.904,3.960 17.922 C 3.960 17.998,4.490 18.614,4.958 19.082 C 5.439 19.563,6.157 20.160,6.254 20.160 C 6.401 20.160,7.640 19.944,8.108 19.837 C 10.616 19.265,13.089 18.104,15.194 16.510 C 15.753 16.088,16.571 15.376,17.015 14.927 L 17.371 14.568 17.212 14.467 C 16.929 14.289,16.154 13.915,15.694 13.735 C 14.797 13.384,13.731 13.133,12.760 13.043 C 11.970 12.970,12.071 12.932,11.638 13.468 M17.979 16.074 C 16.385 17.634,14.707 18.811,12.662 19.804 C 11.446 20.394,10.038 20.913,8.911 21.186 C 8.652 21.249,8.441 21.311,8.441 21.323 C 8.440 21.359,9.131 21.586,9.580 21.696 C 11.408 22.148,13.348 22.079,15.100 21.501 C 17.197 20.810,18.953 19.502,20.214 17.693 L 20.443 17.366 20.111 16.954 C 19.765 16.523,19.161 15.897,18.819 15.614 L 18.619 15.448 17.979 16.074 " fill="#1C274C" stroke="none" fill-rule="evenodd"></path></svg>