<svg width="24" height="24" viewBox="0 0 24 24" fill="none" xmlns="http://www.w3.org/2000/svg"><path d="M13.171 4.077 C 12.560 4.243,11.778 4.704,10.000 5.947 C 9.417 6.355,8.818 6.750,8.670 6.825 C 8.193 7.066,8.035 7.084,6.200 7.121 C 4.779 7.149,4.487 7.165,4.173 7.233 C 3.183 7.447,2.457 8.161,2.202 9.170 C 2.054 9.755,2.021 10.264,2.021 12.000 C 2.021 14.175,2.089 14.748,2.426 15.440 C 2.623 15.844,3.144 16.373,3.520 16.551 C 4.096 16.823,4.541 16.878,6.360 16.904 C 7.141 16.915,7.905 16.944,8.058 16.967 C 8.450 17.027,8.829 17.235,9.841 17.944 C 12.303 19.669,13.036 20.050,13.785 19.990 C 14.294 19.949,14.858 19.565,15.113 19.088 C 15.456 18.443,15.573 17.619,15.707 14.880 C 15.820 12.556,15.776 9.440,15.599 7.240 C 15.471 5.652,15.256 4.934,14.775 4.478 C 14.333 4.060,13.761 3.918,13.171 4.077 M19.610 5.480 C 19.514 5.538,19.480 5.588,19.479 5.669 C 19.478 5.730,19.461 5.954,19.440 6.166 L 19.403 6.552 19.617 6.966 C 20.184 8.059,20.503 9.436,20.601 11.210 C 20.735 13.636,20.268 16.057,19.404 17.420 C 19.261 17.646,19.220 17.857,19.278 18.074 C 19.363 18.388,19.622 18.600,19.922 18.600 C 20.305 18.600,20.496 18.401,20.899 17.580 C 21.312 16.739,21.590 15.830,21.776 14.720 C 21.933 13.785,21.978 13.174,21.978 12.000 C 21.978 10.826,21.933 10.215,21.776 9.280 C 21.590 8.170,21.312 7.261,20.899 6.420 C 20.599 5.811,20.422 5.559,20.228 5.467 C 20.038 5.376,19.770 5.382,19.610 5.480 M17.807 8.406 C 17.603 8.507,17.454 8.714,17.417 8.947 C 17.397 9.076,17.418 9.192,17.512 9.467 C 17.760 10.185,17.854 10.882,17.854 12.000 C 17.854 13.118,17.760 13.815,17.512 14.533 C 17.418 14.808,17.397 14.924,17.417 15.053 C 17.505 15.611,18.120 15.856,18.521 15.494 C 18.782 15.258,19.002 14.566,19.146 13.520 C 19.243 12.823,19.243 11.177,19.146 10.480 C 18.961 9.144,18.688 8.477,18.278 8.359 C 18.079 8.302,18.000 8.310,17.807 8.406 " fill="#1C274C" stroke="none" fill-rule="evenodd"></path></svg>