<svg width="24" height="24" viewBox="0 0 24 24" fill="none" xmlns="http://www.w3.org/2000/svg"><path d="M14.740 4.057 C 14.060 4.214,13.452 4.551,11.448 5.885 C 10.759 6.343,10.083 6.772,9.944 6.838 C 9.467 7.066,9.299 7.084,7.400 7.122 C 5.590 7.157,5.309 7.183,4.823 7.355 C 4.238 7.562,3.680 8.071,3.407 8.647 C 3.079 9.338,3.021 9.843,3.021 12.000 C 3.021 14.161,3.079 14.660,3.410 15.360 C 3.542 15.639,3.633 15.762,3.915 16.044 C 4.506 16.635,5.010 16.807,6.360 16.879 C 6.767 16.901,7.546 16.919,8.092 16.920 C 9.227 16.920,9.532 16.963,9.974 17.185 C 10.125 17.260,10.827 17.706,11.534 18.176 C 12.938 19.108,13.409 19.395,13.978 19.664 C 14.837 20.071,15.424 20.097,16.028 19.755 C 16.735 19.353,17.018 18.660,17.178 16.940 C 17.436 14.158,17.436 9.842,17.178 7.060 C 17.009 5.241,16.726 4.605,15.904 4.197 C 15.631 4.062,15.527 4.032,15.278 4.018 C 15.104 4.008,14.881 4.024,14.740 4.057 M19.570 8.363 C 19.319 8.439,19.080 8.781,19.080 9.063 C 19.080 9.104,19.143 9.319,19.219 9.541 C 19.475 10.280,19.534 10.746,19.534 12.000 C 19.534 13.259,19.475 13.719,19.215 14.472 C 19.101 14.803,19.077 14.922,19.097 15.052 C 19.191 15.638,19.883 15.874,20.295 15.462 C 20.768 14.989,21.098 12.853,20.962 11.140 C 20.879 10.081,20.665 9.125,20.417 8.693 C 20.252 8.407,19.890 8.265,19.570 8.363 " fill="#1C274C" stroke="none" fill-rule="evenodd"></path></svg>