<svg width="24" height="24" viewBox="0 0 24 24" fill="none" xmlns="http://www.w3.org/2000/svg"><path d="M16.326 4.081 C 15.724 4.239,14.965 4.681,13.120 5.946 C 11.378 7.142,11.603 7.073,9.280 7.120 C 7.353 7.158,7.071 7.194,6.520 7.466 C 6.109 7.669,5.637 8.142,5.429 8.560 C 5.090 9.240,5.022 9.817,5.022 12.000 C 5.022 14.183,5.090 14.760,5.429 15.440 C 5.616 15.815,6.104 16.320,6.461 16.508 C 7.035 16.811,7.543 16.878,9.460 16.906 C 11.077 16.930,11.312 16.956,11.733 17.156 C 11.872 17.223,12.318 17.506,12.723 17.785 C 14.999 19.350,15.638 19.728,16.338 19.922 C 16.836 20.060,17.294 19.994,17.717 19.722 C 18.505 19.216,18.738 18.369,18.879 15.500 C 19.036 12.295,19.036 11.705,18.879 8.500 C 18.777 6.429,18.632 5.512,18.311 4.909 C 18.032 4.386,17.386 3.999,16.800 4.003 C 16.701 4.004,16.488 4.039,16.326 4.081 " fill="#1C274C" stroke="none" fill-rule="evenodd"></path></svg>