<svg width="24" height="24" viewBox="0 0 24 24" fill="none" xmlns="http://www.w3.org/2000/svg"><path d="M11.617 2.577 C 11.434 2.656,11.207 2.871,11.109 3.056 C 10.988 3.285,10.988 3.715,11.109 3.944 C 11.209 4.134,11.437 4.346,11.626 4.425 C 11.795 4.496,12.205 4.496,12.374 4.425 C 12.563 4.346,12.791 4.134,12.891 3.944 C 12.956 3.821,12.978 3.710,12.978 3.500 C 12.978 3.290,12.956 3.179,12.891 3.056 C 12.791 2.866,12.563 2.654,12.374 2.575 C 12.208 2.505,11.778 2.506,11.617 2.577 M5.640 5.050 C 5.424 5.122,5.106 5.463,5.042 5.691 C 4.917 6.140,5.090 6.596,5.471 6.825 C 5.724 6.976,5.930 7.014,6.196 6.957 C 6.693 6.851,7.054 6.333,6.975 5.839 C 6.935 5.590,6.728 5.280,6.511 5.146 C 6.361 5.054,6.266 5.027,6.051 5.016 C 5.902 5.009,5.717 5.024,5.640 5.050 M17.675 5.055 C 17.215 5.220,16.942 5.706,17.041 6.183 C 17.120 6.567,17.424 6.873,17.811 6.958 C 18.368 7.082,18.929 6.676,18.988 6.107 C 19.023 5.765,18.943 5.539,18.702 5.299 C 18.416 5.013,18.041 4.924,17.675 5.055 M10.660 7.184 C 10.462 7.237,10.084 7.387,9.820 7.517 C 8.568 8.131,7.668 9.162,7.246 10.465 C 7.064 11.027,7.020 11.325,7.020 12.000 C 7.020 12.675,7.064 12.973,7.246 13.535 C 7.739 15.057,8.941 16.260,10.461 16.753 C 11.027 16.936,11.324 16.980,12.000 16.980 C 12.675 16.980,12.973 16.936,13.535 16.754 C 15.273 16.191,16.563 14.725,16.925 12.900 C 16.998 12.532,16.998 11.468,16.925 11.100 C 16.723 10.084,16.267 9.225,15.542 8.496 C 15.086 8.037,14.688 7.755,14.104 7.476 C 13.723 7.295,13.046 7.080,12.852 7.080 L 12.763 7.080 12.752 9.157 L 12.740 11.233 12.619 11.405 C 12.453 11.642,12.273 11.739,12.000 11.739 C 11.727 11.739,11.547 11.642,11.381 11.405 L 11.260 11.233 11.248 9.157 L 11.237 7.080 11.128 7.083 C 11.069 7.085,10.858 7.130,10.660 7.184 M3.240 11.035 C 2.944 11.132,2.685 11.362,2.575 11.626 C 2.504 11.795,2.504 12.205,2.575 12.374 C 2.654 12.563,2.866 12.791,3.056 12.891 C 3.179 12.956,3.290 12.978,3.500 12.978 C 3.710 12.978,3.821 12.956,3.944 12.891 C 4.134 12.791,4.346 12.563,4.425 12.374 C 4.496 12.205,4.496 11.795,4.425 11.626 C 4.346 11.436,4.133 11.208,3.947 11.113 C 3.771 11.024,3.399 10.983,3.240 11.035 M20.240 11.035 C 19.944 11.132,19.685 11.362,19.575 11.626 C 19.504 11.795,19.504 12.205,19.575 12.374 C 19.654 12.563,19.866 12.791,20.056 12.891 C 20.179 12.956,20.290 12.978,20.500 12.978 C 20.829 12.978,21.034 12.888,21.239 12.655 C 21.419 12.450,21.480 12.285,21.480 12.000 C 21.480 11.867,21.455 11.698,21.425 11.626 C 21.346 11.436,21.133 11.208,20.947 11.113 C 20.771 11.024,20.399 10.983,20.240 11.035 M5.795 17.027 C 5.595 17.060,5.268 17.292,5.149 17.484 C 5.009 17.712,4.966 18.037,5.042 18.309 C 5.111 18.554,5.427 18.881,5.665 18.951 C 6.157 19.097,6.621 18.912,6.859 18.476 C 7.131 17.974,6.904 17.316,6.383 17.099 C 6.237 17.038,5.942 17.002,5.795 17.027 M17.753 17.054 C 17.398 17.153,17.123 17.446,17.042 17.811 C 16.918 18.368,17.324 18.929,17.893 18.988 C 18.235 19.023,18.461 18.943,18.701 18.702 C 18.988 18.414,19.076 18.042,18.943 17.670 C 18.775 17.199,18.236 16.920,17.753 17.054 " fill="#1C274C" stroke="none" fill-rule="evenodd"></path></svg>