<svg width="24" height="24" viewBox="0 0 24 24" fill="none" xmlns="http://www.w3.org/2000/svg"><path d="M21.100 2.277 C 21.034 2.293,20.935 2.329,20.880 2.357 C 20.825 2.386,19.768 3.418,18.532 4.652 C 17.117 6.064,16.277 6.874,16.266 6.838 C 16.257 6.806,16.221 6.546,16.186 6.260 C 16.038 5.047,15.740 4.323,15.170 3.795 C 14.940 3.583,14.452 3.298,14.160 3.206 C 13.866 3.113,13.454 3.080,13.114 3.123 C 12.218 3.235,11.372 3.670,8.909 5.288 C 7.455 6.243,7.468 6.238,6.300 6.241 C 4.268 6.245,3.560 6.372,2.812 6.866 C 2.477 7.088,1.959 7.598,1.743 7.920 C 1.259 8.641,1.136 9.193,1.034 11.090 C 0.961 12.449,1.064 14.207,1.263 14.993 C 1.423 15.627,1.676 16.080,2.135 16.554 C 2.868 17.311,3.634 17.657,4.680 17.704 C 4.933 17.715,5.201 17.734,5.276 17.745 L 5.413 17.766 4.031 19.153 C 3.270 19.916,2.620 20.598,2.584 20.668 C 2.487 20.862,2.501 21.181,2.616 21.377 C 2.799 21.689,3.273 21.832,3.581 21.668 C 3.646 21.634,7.790 17.513,12.789 12.513 C 19.291 6.007,21.895 3.378,21.939 3.271 C 22.017 3.082,22.016 2.917,21.938 2.729 C 21.794 2.384,21.443 2.195,21.100 2.277 M20.585 6.297 C 20.395 6.367,20.208 6.538,20.135 6.709 C 20.047 6.915,20.069 7.133,20.216 7.490 C 20.951 9.279,21.184 11.772,20.839 14.160 C 20.651 15.460,20.242 16.654,19.702 17.480 C 19.534 17.736,19.467 17.951,19.505 18.109 C 19.616 18.571,20.014 18.835,20.432 18.722 C 20.748 18.637,20.984 18.350,21.370 17.580 C 22.118 16.084,22.491 14.227,22.490 12.000 C 22.490 10.561,22.366 9.490,22.062 8.306 C 21.912 7.721,21.646 6.962,21.488 6.667 C 21.312 6.340,20.913 6.176,20.585 6.297 M18.400 9.276 C 18.178 9.346,18.038 9.449,17.942 9.614 C 17.819 9.823,17.813 10.005,17.908 10.550 C 17.962 10.856,17.977 11.174,17.975 12.020 C 17.974 13.238,17.910 13.741,17.676 14.394 C 17.501 14.879,17.484 15.151,17.613 15.371 C 17.858 15.789,18.467 15.863,18.785 15.514 C 19.050 15.223,19.299 14.364,19.421 13.328 C 19.565 12.093,19.440 10.005,19.198 9.607 C 19.049 9.361,18.653 9.197,18.400 9.276 M15.620 11.267 C 15.576 11.277,15.490 11.304,15.428 11.328 C 15.254 11.396,9.128 17.818,9.030 18.037 C 8.930 18.260,8.956 18.549,9.095 18.760 C 9.235 18.972,10.736 19.927,11.646 20.383 C 12.840 20.982,13.702 21.052,14.559 20.621 C 15.460 20.167,15.911 19.452,16.135 18.120 C 16.277 17.280,16.417 15.084,16.467 12.936 C 16.492 11.867,16.491 11.848,16.402 11.665 C 16.272 11.395,15.899 11.206,15.620 11.267 " fill="#1C274C" stroke="none" fill-rule="evenodd"></path></svg>