<svg width="24" height="24" viewBox="0 0 24 24" fill="none" xmlns="http://www.w3.org/2000/svg"><path d="M6.380 5.042 C 5.416 5.090,4.698 5.220,4.226 5.434 C 3.267 5.869,2.492 6.787,2.245 7.780 C 2.045 8.586,2.001 9.348,2.001 12.000 C 2.001 15.268,2.081 16.049,2.502 16.900 C 2.944 17.794,3.839 18.523,4.780 18.755 C 5.431 18.915,6.370 18.998,7.550 18.999 L 8.240 19.000 8.240 16.945 L 8.240 14.890 8.110 14.864 C 7.817 14.806,7.318 14.512,6.995 14.208 C 6.637 13.872,6.495 13.683,6.304 13.289 C 6.083 12.835,6.023 12.561,6.023 12.000 C 6.023 11.408,6.084 11.155,6.353 10.620 C 6.682 9.968,7.401 9.356,8.070 9.158 L 8.240 9.107 8.240 7.054 L 8.240 5.000 7.610 5.006 C 7.264 5.009,6.710 5.026,6.380 5.042 M9.760 12.000 L 9.760 19.000 12.000 19.000 L 14.240 19.000 14.240 12.000 L 14.240 5.000 12.000 5.000 L 9.760 5.000 9.760 12.000 M15.760 7.055 L 15.760 9.110 15.890 9.136 C 15.962 9.150,16.173 9.237,16.360 9.329 C 16.642 9.467,16.768 9.564,17.102 9.898 C 17.438 10.234,17.531 10.356,17.670 10.640 C 17.917 11.147,17.977 11.414,17.978 12.000 C 17.978 12.588,17.918 12.858,17.673 13.354 C 17.553 13.596,17.421 13.779,17.192 14.021 C 16.822 14.412,16.541 14.610,16.100 14.788 L 15.780 14.917 15.770 16.959 L 15.759 19.000 16.250 18.999 C 17.022 18.999,18.246 18.927,18.692 18.857 C 19.712 18.696,20.415 18.320,21.016 17.614 C 21.891 16.589,22.030 15.688,21.988 11.340 C 21.962 8.622,21.902 8.049,21.562 7.231 C 21.320 6.650,20.685 5.951,20.064 5.583 C 19.742 5.392,19.200 5.221,18.659 5.141 C 18.171 5.068,17.051 5.003,16.270 5.001 L 15.760 5.000 15.760 7.055 " fill="#1C274C" stroke="none" fill-rule="evenodd"></path></svg>