<svg width="24" height="24" viewBox="0 0 24 24" fill="none" xmlns="http://www.w3.org/2000/svg"><path d="M10.960 2.059 C 10.055 2.262,9.313 2.990,9.079 3.904 C 8.741 5.224,9.560 6.577,10.904 6.921 C 12.010 7.204,13.214 6.654,13.715 5.638 C 14.090 4.876,14.090 4.124,13.716 3.363 C 13.434 2.793,12.868 2.314,12.240 2.116 C 11.898 2.008,11.306 1.982,10.960 2.059 M8.820 9.280 C 8.534 9.296,8.192 9.330,8.060 9.355 C 6.914 9.572,6.280 10.232,5.906 11.600 C 5.682 12.421,5.267 14.326,5.269 14.528 C 5.274 15.123,6.018 15.462,6.463 15.072 C 6.541 15.004,6.628 14.901,6.658 14.844 C 6.687 14.787,6.813 14.281,6.937 13.720 C 7.382 11.714,7.507 11.330,7.799 11.066 C 8.032 10.855,8.277 10.797,9.033 10.771 L 9.687 10.749 9.663 10.924 C 9.468 12.368,9.390 14.186,9.497 14.798 C 9.624 15.525,9.905 16.194,10.500 17.180 C 11.352 18.594,13.820 22.475,13.925 22.566 C 14.447 23.018,15.269 22.524,15.118 21.850 C 15.092 21.736,14.546 20.830,13.463 19.107 C 11.254 15.591,11.116 15.341,10.971 14.581 C 10.891 14.163,10.922 13.220,11.059 11.880 C 11.114 11.341,11.159 10.868,11.160 10.830 C 11.160 10.766,11.223 10.760,11.920 10.760 C 12.563 10.760,12.709 10.771,12.874 10.834 C 13.324 11.005,13.538 11.289,13.720 11.958 C 13.920 12.695,14.242 13.213,14.731 13.584 C 15.219 13.953,15.830 14.161,16.428 14.159 C 16.808 14.159,17.091 14.096,17.819 13.851 C 18.276 13.697,18.404 13.636,18.522 13.518 C 18.923 13.117,18.733 12.424,18.186 12.286 C 17.964 12.230,17.953 12.232,17.160 12.488 C 16.613 12.665,16.513 12.686,16.311 12.665 C 16.018 12.635,15.743 12.505,15.539 12.301 C 15.340 12.102,15.259 11.933,15.136 11.465 C 14.953 10.770,14.591 10.190,14.120 9.834 C 13.865 9.642,13.349 9.390,13.060 9.319 C 12.825 9.260,9.659 9.231,8.820 9.280 M8.720 16.805 C 8.665 16.827,8.577 16.884,8.525 16.932 C 8.472 16.981,7.730 18.068,6.875 19.349 C 5.766 21.011,5.310 21.727,5.282 21.849 C 5.141 22.479,5.834 22.965,6.394 22.629 C 6.566 22.526,9.716 17.819,9.727 17.649 C 9.740 17.450,9.715 17.267,9.661 17.163 C 9.588 17.022,9.404 16.854,9.267 16.803 C 9.129 16.750,8.854 16.751,8.720 16.805 " fill="#1C274C" stroke="none" fill-rule="evenodd"></path></svg>