<svg width="24" height="24" viewBox="0 0 24 24" fill="none" xmlns="http://www.w3.org/2000/svg"><path d="M11.965 2.059 C 11.449 2.176,10.869 2.534,10.559 2.926 C 9.420 4.367,10.127 6.467,11.904 6.921 C 13.010 7.204,14.214 6.654,14.715 5.638 C 15.090 4.876,15.090 4.124,14.716 3.363 C 14.434 2.793,13.868 2.314,13.240 2.116 C 12.899 2.008,12.305 1.982,11.965 2.059 M10.840 9.282 C 8.843 9.444,7.210 10.771,6.539 12.774 C 6.290 13.520,6.183 14.554,6.327 14.820 C 6.474 15.088,6.717 15.240,7.000 15.240 C 7.201 15.240,7.353 15.181,7.494 15.047 C 7.679 14.872,7.723 14.742,7.763 14.239 C 7.878 12.821,8.615 11.673,9.788 11.085 C 10.015 10.972,10.630 10.775,10.659 10.807 C 10.666 10.814,10.600 11.513,10.514 12.360 C 10.425 13.219,10.355 14.121,10.353 14.400 C 10.351 15.066,10.452 15.395,10.832 15.960 C 11.306 16.663,15.878 22.553,16.014 22.634 C 16.575 22.970,17.276 22.456,17.117 21.825 C 17.082 21.687,16.625 21.070,14.931 18.875 C 12.270 15.429,11.992 15.057,11.908 14.847 C 11.808 14.599,11.821 14.278,12.000 12.485 C 12.088 11.604,12.160 10.864,12.160 10.841 C 12.160 10.789,12.390 10.789,12.787 10.842 C 13.428 10.928,13.845 11.127,14.266 11.548 C 14.501 11.783,14.589 11.908,14.740 12.228 C 15.149 13.089,15.208 13.194,15.381 13.375 C 15.798 13.809,16.336 14.045,16.920 14.049 C 17.315 14.051,19.136 13.754,19.350 13.653 C 19.822 13.429,19.866 12.676,19.424 12.386 C 19.195 12.236,19.043 12.238,18.066 12.403 C 16.966 12.588,16.844 12.593,16.621 12.463 C 16.446 12.360,16.404 12.294,16.183 11.767 C 15.881 11.047,15.326 10.382,14.675 9.961 C 14.021 9.538,13.350 9.363,12.077 9.282 C 11.716 9.259,11.375 9.243,11.320 9.246 C 11.265 9.249,11.049 9.265,10.840 9.282 M9.700 16.820 C 9.534 16.910,9.374 17.069,9.324 17.195 C 9.302 17.253,9.246 17.448,9.201 17.630 C 8.919 18.761,8.293 19.846,7.475 20.622 C 7.335 20.755,7.038 21.010,6.816 21.189 C 6.372 21.547,6.266 21.703,6.266 22.000 C 6.266 22.487,6.708 22.835,7.178 22.716 C 7.539 22.625,8.744 21.554,9.267 20.860 C 9.817 20.129,10.204 19.399,10.476 18.580 C 10.829 17.515,10.818 17.201,10.417 16.895 C 10.235 16.756,9.886 16.720,9.700 16.820 " fill="#1C274C" stroke="none" fill-rule="evenodd"></path></svg>