<svg width="24" height="24" viewBox="0 0 24 24" fill="none" xmlns="http://www.w3.org/2000/svg"><path d="M8.100 3.025 C 5.553 3.114,4.321 3.474,3.397 4.397 C 2.597 5.198,2.232 6.215,2.072 8.100 C 2.001 8.933,2.001 14.586,2.072 15.400 C 2.238 17.306,2.570 18.242,3.376 19.073 C 4.207 19.931,5.286 20.303,7.340 20.439 C 8.123 20.491,15.311 20.492,16.140 20.440 C 17.625 20.347,18.591 20.126,19.314 19.712 C 19.934 19.357,20.504 18.746,20.817 18.100 C 21.101 17.513,21.189 17.173,21.083 17.067 C 21.049 17.033,20.555 17.013,19.328 16.996 C 17.675 16.973,17.607 16.969,17.200 16.870 C 16.020 16.583,15.025 15.977,14.286 15.095 C 13.240 13.846,12.846 12.307,13.164 10.711 C 13.525 8.892,14.877 7.387,16.694 6.779 C 17.427 6.534,17.611 6.515,19.412 6.492 L 21.044 6.471 21.103 6.381 C 21.156 6.300,21.151 6.259,21.044 5.945 C 20.589 4.606,19.601 3.710,18.173 3.339 C 17.761 3.232,17.168 3.140,16.480 3.076 C 16.057 3.036,8.997 2.993,8.100 3.025 M7.302 8.075 C 7.498 8.164,7.663 8.352,7.721 8.552 C 7.751 8.654,7.760 9.678,7.752 11.843 L 7.740 14.986 7.630 15.152 C 7.335 15.598,6.665 15.598,6.370 15.152 L 6.260 14.986 6.248 11.843 C 6.240 9.678,6.249 8.654,6.279 8.552 C 6.367 8.249,6.691 8.002,7.000 8.002 C 7.077 8.002,7.213 8.035,7.302 8.075 M17.820 8.044 C 17.688 8.063,17.427 8.126,17.240 8.183 C 15.187 8.819,14.080 10.948,14.761 12.951 C 15.168 14.145,16.159 15.040,17.460 15.386 C 17.853 15.491,17.886 15.493,19.408 15.510 C 20.483 15.522,21.042 15.513,21.234 15.481 C 21.984 15.354,22.564 14.810,22.715 14.088 C 22.773 13.813,22.777 9.742,22.720 9.435 C 22.593 8.756,22.004 8.167,21.325 8.040 C 21.065 7.992,18.164 7.995,17.820 8.044 M18.665 10.903 C 19.177 11.220,19.277 11.962,18.869 12.427 C 18.443 12.912,17.682 12.831,17.359 12.265 C 17.118 11.844,17.177 11.379,17.512 11.044 C 17.736 10.821,17.896 10.761,18.226 10.774 C 18.418 10.781,18.514 10.809,18.665 10.903 " fill="#1C274C" stroke="none" fill-rule="evenodd"></path></svg>