<svg width="24" height="24" viewBox="0 0 24 24" fill="none" xmlns="http://www.w3.org/2000/svg"><path d="M11.020 2.043 C 10.694 2.097,10.291 2.242,10.038 2.396 C 9.908 2.475,9.359 2.864,8.820 3.260 L 7.838 3.980 11.509 4.000 C 13.528 4.011,15.185 4.018,15.190 4.016 C 15.203 4.012,13.370 2.663,13.109 2.485 C 12.550 2.104,11.714 1.927,11.020 2.043 M7.520 5.042 C 5.454 5.129,4.314 5.467,3.462 6.245 C 2.628 7.007,2.232 8.054,2.071 9.920 C 2.001 10.726,2.001 16.274,2.071 17.080 C 2.176 18.299,2.370 19.122,2.701 19.750 C 3.319 20.923,4.341 21.576,5.934 21.818 C 6.800 21.949,7.314 21.968,10.640 21.988 C 14.149 22.009,15.599 21.977,16.580 21.857 C 18.247 21.652,19.316 21.054,19.981 19.955 C 20.188 19.611,20.437 19.003,20.439 18.833 C 20.442 18.598,20.452 18.600,18.847 18.600 C 17.787 18.600,17.285 18.584,17.038 18.544 C 14.975 18.209,13.330 16.743,12.823 14.788 C 12.138 12.145,13.624 9.485,16.257 8.643 C 16.917 8.432,17.252 8.400,18.867 8.400 C 20.450 8.400,20.442 8.401,20.439 8.167 C 20.437 7.997,20.188 7.389,19.981 7.045 C 19.426 6.127,18.603 5.567,17.386 5.279 C 16.893 5.163,16.144 5.083,15.154 5.040 C 14.136 4.996,8.578 4.997,7.520 5.042 M9.847 8.996 C 10.034 9.125,10.150 9.303,10.183 9.511 C 10.237 9.849,9.990 10.223,9.651 10.318 C 9.447 10.374,5.635 10.375,5.431 10.318 C 5.139 10.237,4.882 9.911,4.882 9.620 C 4.882 9.355,5.140 8.995,5.384 8.921 C 5.448 8.902,6.446 8.889,7.603 8.893 L 9.706 8.900 9.847 8.996 M17.040 9.940 C 14.812 10.403,13.544 12.717,14.359 14.831 C 14.829 16.049,16.019 16.950,17.380 17.116 C 17.852 17.173,20.271 17.174,20.583 17.116 C 21.233 16.996,21.725 16.556,21.925 15.915 C 21.995 15.690,22.000 15.516,22.000 13.500 C 22.000 11.484,21.995 11.310,21.925 11.085 C 21.769 10.586,21.478 10.250,21.007 10.027 L 20.740 9.900 19.020 9.893 C 17.710 9.888,17.238 9.899,17.040 9.940 M17.990 12.636 C 18.326 12.808,18.495 13.098,18.495 13.500 C 18.495 13.836,18.403 14.043,18.160 14.251 C 17.549 14.773,16.678 14.326,16.681 13.492 C 16.682 13.272,16.703 13.182,16.791 13.021 C 17.034 12.580,17.555 12.412,17.990 12.636 " fill="#1C274C" stroke="none" fill-rule="evenodd"></path></svg>