<svg width="24" height="24" viewBox="0 0 24 24" fill="none" xmlns="http://www.w3.org/2000/svg"><path d="M8.720 2.043 C 6.964 2.145,6.043 2.559,5.427 3.526 C 5.154 3.953,5.004 4.428,4.889 5.220 C 4.826 5.659,4.820 6.234,4.820 12.000 C 4.820 17.766,4.826 18.341,4.889 18.780 C 4.927 19.044,4.986 19.368,5.020 19.500 C 5.257 20.422,5.757 21.082,6.516 21.475 C 7.385 21.924,8.163 21.999,12.000 21.999 C 14.573 21.999,15.567 21.966,16.235 21.859 C 17.890 21.593,18.775 20.730,19.058 19.104 C 19.191 18.344,19.205 17.505,19.190 11.520 C 19.174 5.242,19.175 5.286,18.981 4.517 C 18.745 3.580,18.251 2.922,17.484 2.525 C 16.923 2.235,16.311 2.106,15.175 2.040 C 14.393 1.995,9.518 1.997,8.720 2.043 M15.418 3.441 C 16.351 3.517,16.797 3.653,17.140 3.967 C 17.504 4.300,17.670 4.757,17.760 5.674 C 17.785 5.932,17.800 8.275,17.799 11.874 L 17.799 17.660 17.129 16.980 C 16.702 16.545,16.378 16.251,16.233 16.167 C 15.674 15.840,15.009 15.728,14.417 15.859 C 14.007 15.951,13.768 16.061,13.405 16.325 C 12.942 16.663,12.910 16.680,12.733 16.680 C 12.610 16.680,12.533 16.652,12.439 16.573 C 12.369 16.514,11.682 15.726,10.912 14.823 C 10.142 13.919,9.393 13.057,9.247 12.907 C 8.831 12.481,8.272 12.239,7.705 12.241 C 7.254 12.242,6.715 12.446,6.362 12.748 L 6.200 12.886 6.200 9.487 C 6.200 7.499,6.217 5.917,6.240 5.674 C 6.399 4.045,6.873 3.578,8.505 3.444 C 9.099 3.395,14.820 3.393,15.418 3.441 M3.220 4.925 C 2.676 5.331,2.283 5.925,2.095 6.620 C 2.023 6.887,2.020 7.129,2.020 12.000 C 2.020 16.871,2.023 17.113,2.095 17.380 C 2.285 18.084,2.705 18.713,3.219 19.064 C 3.501 19.256,3.535 19.212,3.470 18.739 C 3.398 18.222,3.398 5.780,3.469 5.263 C 3.506 5.002,3.507 4.892,3.474 4.853 C 3.416 4.783,3.407 4.786,3.220 4.925 M20.526 4.853 C 20.494 4.891,20.496 5.009,20.531 5.283 C 20.602 5.827,20.601 18.175,20.531 18.720 C 20.464 19.234,20.498 19.269,20.823 19.027 C 21.366 18.622,21.701 18.104,21.913 17.340 C 21.974 17.122,21.980 16.639,21.980 12.000 C 21.980 7.361,21.974 6.878,21.913 6.660 C 21.703 5.903,21.351 5.359,20.812 4.956 C 20.575 4.779,20.585 4.782,20.526 4.853 M13.520 5.523 C 13.017 5.609,12.452 6.023,12.224 6.471 C 11.834 7.243,11.969 8.091,12.577 8.674 C 12.958 9.040,13.349 9.200,13.860 9.200 C 14.371 9.200,14.762 9.040,15.143 8.674 C 15.745 8.096,15.887 7.238,15.504 6.489 C 15.144 5.785,14.323 5.386,13.520 5.523 " fill="#1C274C" stroke="none" fill-rule="evenodd"></path></svg>