<svg width="24" height="24" viewBox="0 0 24 24" fill="none" xmlns="http://www.w3.org/2000/svg"><path d="M8.300 2.025 C 7.135 2.067,6.140 2.190,5.580 2.362 C 4.953 2.554,4.363 2.928,4.001 3.363 C 3.347 4.149,3.090 5.204,3.016 7.410 L 2.988 8.240 12.000 8.240 L 21.012 8.240 20.985 7.450 C 20.908 5.209,20.660 4.164,20.022 3.391 C 19.367 2.597,18.469 2.239,16.720 2.075 C 16.295 2.035,9.197 1.993,8.300 2.025 M15.023 4.662 C 15.143 4.736,15.264 4.857,15.339 4.978 C 15.448 5.154,15.460 5.207,15.460 5.500 C 15.460 5.793,15.448 5.846,15.339 6.023 C 15.258 6.153,15.146 6.262,15.009 6.345 C 14.651 6.560,14.349 6.560,13.991 6.345 C 13.704 6.173,13.549 5.916,13.527 5.580 C 13.499 5.141,13.680 4.808,14.046 4.623 C 14.230 4.530,14.299 4.517,14.544 4.528 C 14.776 4.539,14.863 4.563,15.023 4.662 M18.023 4.662 C 18.143 4.736,18.264 4.857,18.339 4.978 C 18.448 5.154,18.460 5.207,18.460 5.500 C 18.460 5.793,18.448 5.846,18.339 6.023 C 18.258 6.153,18.146 6.262,18.009 6.345 C 17.651 6.560,17.349 6.560,16.991 6.345 C 16.704 6.173,16.549 5.916,16.527 5.580 C 16.499 5.141,16.680 4.808,17.046 4.623 C 17.230 4.530,17.299 4.517,17.544 4.528 C 17.776 4.539,17.863 4.563,18.023 4.662 M9.820 4.835 C 10.010 4.923,10.096 5.012,10.178 5.210 C 10.257 5.398,10.257 5.602,10.178 5.790 C 10.096 5.988,10.010 6.077,9.820 6.165 C 9.673 6.232,9.525 6.238,8.009 6.239 C 6.263 6.240,6.194 6.234,5.986 6.048 C 5.783 5.869,5.708 5.483,5.822 5.210 C 5.904 5.012,5.990 4.923,6.180 4.835 C 6.327 4.768,6.474 4.762,8.000 4.762 C 9.526 4.762,9.673 4.768,9.820 4.835 M3.012 13.010 C 3.036 16.676,3.066 17.221,3.302 18.171 C 3.572 19.255,4.109 19.961,5.001 20.403 L 5.240 20.522 5.240 21.239 C 5.240 21.633,5.260 22.049,5.284 22.162 C 5.405 22.725,6.111 22.929,6.520 22.520 C 6.716 22.324,6.760 22.120,6.760 21.413 L 6.760 20.869 7.028 20.896 C 8.410 21.038,15.590 21.038,16.972 20.896 L 17.240 20.869 17.240 21.413 C 17.240 22.120,17.284 22.324,17.480 22.520 C 17.889 22.929,18.595 22.725,18.716 22.162 C 18.740 22.049,18.760 21.633,18.760 21.239 L 18.760 20.522 18.999 20.403 C 19.828 19.992,20.390 19.298,20.652 18.360 C 20.933 17.356,20.998 16.226,20.999 12.370 L 21.000 9.760 11.996 9.760 L 2.991 9.760 3.012 13.010 M12.507 11.282 C 12.939 11.341,13.538 11.552,13.930 11.785 C 14.374 12.047,14.953 12.626,15.215 13.070 C 15.782 14.027,15.902 15.166,15.545 16.209 C 15.349 16.780,15.090 17.190,14.640 17.640 C 14.190 18.090,13.780 18.349,13.209 18.545 C 12.166 18.902,11.027 18.782,10.070 18.215 C 9.626 17.953,9.047 17.374,8.785 16.930 C 8.218 15.973,8.098 14.834,8.455 13.791 C 8.651 13.220,8.910 12.810,9.360 12.360 C 10.215 11.505,11.331 11.123,12.507 11.282 M11.480 12.818 C 10.705 13.017,10.137 13.534,9.875 14.280 C 9.743 14.653,9.743 15.347,9.875 15.720 C 10.109 16.386,10.615 16.892,11.280 17.126 C 11.493 17.200,11.624 17.217,12.000 17.217 C 12.376 17.217,12.507 17.200,12.720 17.126 C 13.385 16.892,13.891 16.386,14.125 15.720 C 14.200 15.507,14.217 15.377,14.217 15.000 C 14.217 14.623,14.200 14.493,14.125 14.280 C 13.890 13.612,13.377 13.101,12.720 12.878 C 12.390 12.766,11.795 12.737,11.480 12.818 " fill="#1C274C" stroke="none" fill-rule="evenodd"></path></svg>