<svg width="24" height="24" viewBox="0 0 24 24" fill="none" xmlns="http://www.w3.org/2000/svg"><path d="M8.300 2.025 C 7.779 2.043,6.825 2.117,6.500 2.165 C 6.094 2.224,5.477 2.384,5.189 2.504 C 4.854 2.644,4.332 2.994,4.126 3.218 C 3.494 3.904,3.220 4.721,3.072 6.360 C 2.997 7.194,2.997 16.806,3.072 17.640 C 3.196 19.012,3.379 19.703,3.784 20.330 C 4.032 20.714,4.247 20.933,4.617 21.178 C 5.284 21.620,5.944 21.800,7.360 21.928 C 8.196 22.003,15.763 22.002,16.640 21.927 C 17.978 21.811,18.707 21.619,19.330 21.216 C 19.714 20.968,19.933 20.753,20.178 20.383 C 20.707 19.585,20.878 18.792,20.964 16.747 C 21.020 15.404,20.988 6.935,20.925 6.280 C 20.835 5.358,20.691 4.656,20.494 4.183 C 20.356 3.854,20.004 3.331,19.782 3.126 C 19.110 2.507,18.305 2.231,16.720 2.076 C 16.296 2.035,9.239 1.992,8.300 2.025 M16.300 5.316 C 16.680 5.491,16.852 5.903,16.698 6.271 C 16.616 6.468,16.494 6.595,16.300 6.684 C 16.148 6.755,15.940 6.758,12.009 6.759 C 8.369 6.760,7.860 6.753,7.729 6.698 C 7.101 6.436,7.084 5.600,7.700 5.316 C 7.852 5.245,8.059 5.242,12.000 5.242 C 15.941 5.242,16.148 5.245,16.300 5.316 M13.040 8.342 C 15.132 8.743,16.843 10.248,17.472 12.240 C 17.691 12.932,17.736 13.235,17.735 14.000 C 17.734 14.565,17.717 14.779,17.647 15.108 C 17.148 17.440,15.440 19.148,13.108 19.647 C 12.525 19.771,11.475 19.771,10.892 19.647 C 8.526 19.141,6.803 17.392,6.335 15.019 C 6.237 14.524,6.237 13.476,6.335 12.981 C 6.843 10.409,8.866 8.547,11.460 8.265 C 11.768 8.232,12.703 8.277,13.040 8.342 M10.760 12.937 C 10.025 13.092,9.343 13.418,8.152 14.186 L 7.764 14.436 7.786 14.588 C 7.953 15.759,8.660 16.876,9.653 17.537 C 10.341 17.994,10.983 18.197,11.840 18.227 C 12.329 18.245,12.484 18.235,12.826 18.164 C 14.517 17.815,15.818 16.517,16.160 14.840 C 16.204 14.624,16.240 14.345,16.240 14.221 C 16.240 13.994,16.240 13.994,16.130 14.016 C 14.405 14.363,13.644 14.238,12.574 13.435 C 11.960 12.974,11.819 12.911,11.380 12.895 C 11.176 12.888,10.907 12.906,10.760 12.937 " fill="#1C274C" stroke="none" fill-rule="evenodd"></path></svg>