<svg width="24" height="24" viewBox="0 0 24 24" fill="none" xmlns="http://www.w3.org/2000/svg"><path d="M9.960 2.040 C 9.508 2.084,9.276 2.141,9.029 2.265 C 8.768 2.398,8.398 2.767,8.271 3.022 C 8.172 3.221,8.062 3.595,8.093 3.627 C 8.103 3.636,8.269 3.624,8.464 3.599 C 9.654 3.452,14.346 3.452,15.536 3.599 C 15.731 3.624,15.897 3.636,15.907 3.627 C 15.938 3.595,15.828 3.221,15.729 3.022 C 15.601 2.764,15.231 2.397,14.964 2.262 C 14.546 2.050,14.351 2.033,12.240 2.019 C 11.173 2.013,10.147 2.022,9.960 2.040 M9.393 5.043 C 8.246 5.102,7.426 5.286,6.897 5.604 C 6.585 5.792,6.135 6.183,5.920 6.454 C 5.136 7.439,5.001 8.255,5.001 12.000 C 5.001 15.814,5.144 16.630,5.984 17.614 C 6.420 18.126,6.954 18.490,7.539 18.677 C 8.327 18.929,9.302 18.999,12.000 18.999 C 14.698 18.999,15.673 18.929,16.461 18.677 C 17.046 18.490,17.580 18.126,18.016 17.614 C 18.891 16.589,19.030 15.688,18.988 11.340 C 18.962 8.622,18.902 8.049,18.562 7.231 C 18.326 6.663,17.700 5.967,17.097 5.602 C 16.785 5.413,16.173 5.215,15.675 5.142 C 15.442 5.108,14.911 5.062,14.495 5.040 C 13.637 4.995,10.278 4.997,9.393 5.043 M12.209 8.282 C 12.408 8.337,12.595 8.501,12.685 8.698 C 12.752 8.845,12.758 8.992,12.761 10.320 L 12.763 11.780 13.686 12.660 C 14.193 13.144,14.632 13.586,14.661 13.641 C 14.984 14.266,14.338 14.980,13.712 14.689 C 13.630 14.651,13.069 14.146,12.465 13.567 C 11.651 12.787,11.350 12.473,11.303 12.356 C 11.210 12.123,11.209 8.953,11.302 8.729 C 11.384 8.532,11.506 8.405,11.700 8.316 C 11.883 8.231,11.998 8.223,12.209 8.282 M8.080 20.417 C 8.080 20.544,8.247 20.975,8.358 21.138 C 8.491 21.331,8.761 21.586,8.966 21.711 C 9.046 21.761,9.253 21.841,9.426 21.889 C 9.733 21.976,9.789 21.978,12.000 21.978 C 14.215 21.978,14.266 21.976,14.577 21.889 C 15.239 21.703,15.723 21.219,15.884 20.582 C 15.909 20.480,15.921 20.388,15.910 20.377 C 15.899 20.365,15.739 20.375,15.555 20.399 C 14.297 20.559,9.398 20.543,8.250 20.376 C 8.109 20.355,8.080 20.362,8.080 20.417 " fill="#1C274C" stroke="none" fill-rule="evenodd"></path></svg>