<svg width="24" height="24" viewBox="0 0 24 24" fill="none" xmlns="http://www.w3.org/2000/svg"><path d="M10.229 2.044 C 8.541 2.174,7.774 2.910,7.617 4.550 C 7.602 4.709,7.600 4.840,7.613 4.840 C 7.625 4.840,7.798 4.752,7.995 4.645 C 9.249 3.963,10.523 3.643,11.981 3.641 C 13.383 3.639,14.523 3.906,15.759 4.525 C 16.100 4.695,16.386 4.827,16.396 4.818 C 16.430 4.783,16.311 3.979,16.233 3.725 C 15.979 2.894,15.410 2.364,14.555 2.162 C 14.371 2.118,13.977 2.064,13.680 2.041 C 13.055 1.994,10.861 1.996,10.229 2.044 M11.100 5.084 C 9.062 5.375,7.304 6.461,6.194 8.116 C 4.262 10.997,4.723 14.829,7.282 17.146 C 9.203 18.886,11.878 19.428,14.331 18.574 C 16.512 17.815,18.217 15.955,18.783 13.718 C 19.799 9.697,17.119 5.708,12.995 5.102 C 12.537 5.035,11.512 5.025,11.100 5.084 M12.308 8.524 C 12.423 8.580,12.514 8.664,12.581 8.777 L 12.680 8.947 12.680 10.309 L 12.680 11.672 13.190 12.167 C 13.470 12.440,13.859 12.815,14.054 13.001 C 14.248 13.188,14.442 13.407,14.484 13.488 C 14.701 13.912,14.412 14.424,13.928 14.470 C 13.810 14.482,13.685 14.466,13.599 14.429 C 13.437 14.360,11.465 12.484,11.378 12.316 C 11.330 12.223,11.320 11.923,11.321 10.572 C 11.321 8.957,11.322 8.938,11.411 8.783 C 11.516 8.598,11.785 8.440,11.994 8.440 C 12.071 8.440,12.213 8.478,12.308 8.524 M7.617 19.450 C 7.722 20.547,8.105 21.232,8.825 21.610 C 9.410 21.917,10.077 21.998,12.000 21.998 C 13.923 21.998,14.590 21.917,15.175 21.610 C 15.895 21.232,16.278 20.547,16.383 19.450 C 16.398 19.291,16.399 19.160,16.386 19.160 C 16.372 19.160,16.212 19.243,16.031 19.344 C 14.804 20.024,13.477 20.359,12.000 20.359 C 10.525 20.359,9.189 20.022,7.956 19.340 C 7.777 19.241,7.621 19.160,7.610 19.160 C 7.599 19.160,7.602 19.291,7.617 19.450 " fill="#1C274C" stroke="none" fill-rule="evenodd"></path></svg>