<svg width="24" height="24" viewBox="0 0 24 24" fill="none" xmlns="http://www.w3.org/2000/svg"><path d="M6.807 1.287 C 6.568 1.341,6.341 1.572,6.289 1.816 C 6.197 2.246,6.431 2.629,6.838 2.716 C 7.128 2.778,16.872 2.778,17.162 2.716 C 17.920 2.553,17.920 1.447,17.162 1.284 C 16.896 1.227,7.064 1.230,6.807 1.287 M9.380 5.039 C 8.405 5.092,7.694 5.222,7.226 5.434 C 6.267 5.869,5.492 6.787,5.245 7.780 C 5.045 8.586,5.001 9.348,5.001 12.000 C 5.001 14.650,5.045 15.410,5.245 16.220 C 5.477 17.161,6.206 18.056,7.100 18.498 C 7.951 18.919,8.732 18.999,12.000 18.999 C 15.268 18.999,16.049 18.919,16.900 18.498 C 17.794 18.056,18.523 17.161,18.755 16.220 C 18.955 15.410,18.999 14.650,18.999 12.000 C 18.999 9.348,18.955 8.586,18.755 7.780 C 18.545 6.936,17.974 6.167,17.171 5.650 C 16.703 5.348,16.137 5.182,15.220 5.078 C 14.734 5.023,10.242 4.993,9.380 5.039 M13.216 8.355 C 13.558 8.548,13.694 8.978,13.522 9.317 C 13.474 9.411,13.057 9.881,12.596 10.361 L 11.758 11.235 12.989 11.247 C 14.204 11.260,14.222 11.261,14.373 11.355 C 14.614 11.505,14.733 11.719,14.733 12.000 C 14.733 12.187,14.712 12.267,14.630 12.388 C 14.574 12.472,13.885 13.215,13.100 14.040 C 11.623 15.591,11.431 15.760,11.144 15.760 C 10.965 15.760,10.686 15.606,10.546 15.430 C 10.384 15.227,10.355 14.924,10.476 14.688 C 10.523 14.596,10.939 14.126,11.402 13.643 L 12.243 12.764 11.011 12.752 C 9.615 12.738,9.615 12.738,9.381 12.405 C 9.279 12.261,9.261 12.199,9.264 12.001 C 9.266 11.842,9.292 11.728,9.346 11.643 C 9.450 11.479,12.256 8.528,12.425 8.405 C 12.659 8.235,12.969 8.215,13.216 8.355 M6.807 21.287 C 6.568 21.341,6.341 21.572,6.289 21.816 C 6.197 22.246,6.431 22.629,6.838 22.716 C 7.128 22.778,16.872 22.778,17.162 22.716 C 17.920 22.553,17.920 21.447,17.162 21.284 C 16.896 21.227,7.064 21.230,6.807 21.287 " fill="#1C274C" stroke="none" fill-rule="evenodd"></path></svg>