<svg width="24" height="24" viewBox="0 0 24 24" fill="none" xmlns="http://www.w3.org/2000/svg"><path d="M6.807 1.287 C 6.568 1.341,6.341 1.572,6.289 1.816 C 6.197 2.246,6.431 2.629,6.838 2.716 C 7.128 2.778,16.872 2.778,17.162 2.716 C 17.920 2.553,17.920 1.447,17.162 1.284 C 16.896 1.227,7.064 1.230,6.807 1.287 M9.380 5.039 C 8.405 5.092,7.694 5.222,7.226 5.434 C 6.267 5.869,5.492 6.787,5.245 7.780 C 5.045 8.586,5.001 9.348,5.001 12.000 C 5.001 14.650,5.045 15.410,5.245 16.220 C 5.477 17.161,6.206 18.056,7.100 18.498 C 7.951 18.919,8.732 18.999,12.000 18.999 C 15.268 18.999,16.049 18.919,16.900 18.498 C 17.794 18.056,18.523 17.161,18.755 16.220 C 18.955 15.410,18.999 14.650,18.999 12.000 C 18.999 9.348,18.955 8.586,18.755 7.780 C 18.545 6.936,17.974 6.167,17.171 5.650 C 16.703 5.348,16.137 5.182,15.220 5.078 C 14.734 5.023,10.242 4.993,9.380 5.039 M12.405 8.381 C 12.485 8.432,12.593 8.543,12.645 8.627 C 12.740 8.779,12.740 8.787,12.760 10.284 L 12.780 11.788 13.673 12.644 C 14.164 13.115,14.603 13.561,14.650 13.636 C 14.782 13.849,14.767 14.195,14.616 14.409 C 14.452 14.642,14.271 14.739,14.000 14.737 C 13.879 14.737,13.732 14.710,13.673 14.678 C 13.486 14.577,11.409 12.560,11.333 12.406 C 11.266 12.272,11.260 12.120,11.260 10.520 L 11.260 8.780 11.353 8.631 C 11.586 8.256,12.044 8.147,12.405 8.381 M6.807 21.287 C 6.568 21.341,6.341 21.572,6.289 21.816 C 6.197 22.246,6.431 22.629,6.838 22.716 C 7.128 22.778,16.872 22.778,17.162 22.716 C 17.920 22.553,17.920 21.447,17.162 21.284 C 16.896 21.227,7.064 21.230,6.807 21.287 " fill="#1C274C" stroke="none" fill-rule="evenodd"></path></svg>