<svg width="24" height="24" viewBox="0 0 24 24" fill="none" xmlns="http://www.w3.org/2000/svg"><path d="M11.330 2.041 C 9.657 2.252,7.398 3.594,5.935 5.244 C 4.372 7.010,3.447 9.018,3.094 11.420 C 2.993 12.101,2.991 13.876,3.090 14.500 C 3.722 18.481,6.757 21.473,10.640 21.942 C 11.240 22.014,12.760 22.014,13.360 21.942 C 16.478 21.565,19.134 19.522,20.336 16.576 C 20.838 15.345,21.032 14.176,20.988 12.643 C 20.907 9.838,19.921 7.342,18.065 5.245 C 16.713 3.718,14.664 2.441,13.019 2.101 C 12.638 2.022,11.734 1.990,11.330 2.041 M11.738 5.622 C 12.126 5.806,12.245 6.409,11.958 6.737 C 11.893 6.811,11.655 6.972,11.430 7.096 C 10.863 7.406,10.412 7.755,9.920 8.266 C 9.195 9.017,8.769 9.726,8.341 10.894 C 8.102 11.548,7.348 11.675,6.991 11.123 C 6.884 10.956,6.875 10.917,6.893 10.680 C 6.938 10.084,7.642 8.670,8.336 7.780 C 8.797 7.189,9.568 6.490,10.220 6.070 C 10.511 5.883,11.027 5.612,11.200 5.556 C 11.339 5.510,11.561 5.538,11.738 5.622 " fill="#1C274C" stroke="none" fill-rule="evenodd"></path></svg>