<svg width="24" height="24" viewBox="0 0 24 24" fill="none" xmlns="http://www.w3.org/2000/svg"><path d="M11.811 1.278 C 11.639 1.320,11.417 1.493,11.330 1.652 C 11.275 1.754,11.258 1.906,11.247 2.403 C 11.239 2.780,11.251 3.091,11.278 3.191 C 11.428 3.751,12.115 3.934,12.525 3.525 C 12.734 3.316,12.769 3.141,12.753 2.403 C 12.742 1.862,12.729 1.762,12.658 1.641 C 12.494 1.361,12.122 1.202,11.811 1.278 M4.620 4.247 C 4.352 4.394,4.191 4.648,4.191 4.921 C 4.191 5.189,4.283 5.351,4.633 5.691 C 5.027 6.074,5.263 6.155,5.591 6.018 C 5.788 5.936,5.915 5.814,6.004 5.620 C 6.159 5.285,6.083 5.037,5.706 4.647 C 5.549 4.485,5.353 4.318,5.272 4.276 C 5.106 4.191,4.750 4.175,4.620 4.247 M18.740 4.266 C 18.551 4.365,18.079 4.844,17.996 5.020 C 17.817 5.405,18.000 5.847,18.409 6.018 C 18.737 6.155,18.973 6.074,19.367 5.691 C 19.717 5.350,19.809 5.189,19.809 4.920 C 19.809 4.648,19.647 4.390,19.392 4.256 C 19.249 4.182,18.891 4.187,18.740 4.266 M11.300 6.046 C 10.891 6.091,10.222 6.256,9.849 6.404 C 7.210 7.452,5.679 10.077,6.065 12.893 L 6.089 13.068 5.827 13.089 C 5.341 13.128,4.871 13.422,4.577 13.870 C 3.761 15.110,3.097 15.667,2.059 15.980 C 1.607 16.117,1.481 16.194,1.363 16.404 C 1.187 16.716,1.253 17.109,1.518 17.332 C 1.795 17.566,2.030 17.567,2.713 17.338 C 3.800 16.975,4.729 16.260,5.445 15.235 C 5.941 14.526,5.911 14.560,6.038 14.560 C 6.138 14.560,6.209 14.622,6.505 14.970 C 8.120 16.866,9.829 17.727,11.980 17.729 C 14.265 17.732,16.058 16.913,17.452 15.230 C 17.798 14.812,17.898 14.737,18.093 14.750 C 18.201 14.758,18.250 14.809,18.545 15.225 C 19.093 15.999,19.788 16.630,20.513 17.012 C 20.891 17.211,21.601 17.465,21.891 17.505 C 22.345 17.567,22.731 17.234,22.731 16.780 C 22.731 16.368,22.539 16.167,21.980 15.994 C 20.995 15.690,20.357 15.203,19.668 14.231 C 19.519 14.020,19.320 13.777,19.227 13.691 C 18.928 13.415,18.462 13.240,18.030 13.240 C 17.877 13.240,17.872 13.235,17.893 13.130 C 17.980 12.710,18.012 11.972,17.966 11.476 C 17.649 8.091,14.680 5.672,11.300 6.046 M1.811 11.277 C 1.257 11.417,1.068 12.118,1.475 12.524 C 1.672 12.721,1.839 12.760,2.500 12.760 C 3.161 12.760,3.328 12.721,3.525 12.524 C 3.870 12.179,3.810 11.647,3.395 11.372 C 3.229 11.262,3.214 11.260,2.583 11.252 C 2.229 11.248,1.882 11.259,1.811 11.277 M20.811 11.277 C 20.257 11.417,20.068 12.118,20.475 12.524 C 20.672 12.721,20.839 12.760,21.500 12.760 C 22.161 12.760,22.328 12.721,22.525 12.524 C 22.870 12.179,22.810 11.647,22.395 11.372 C 22.229 11.262,22.214 11.260,21.583 11.252 C 21.229 11.248,20.882 11.259,20.811 11.277 M5.540 18.134 C 5.054 18.295,4.836 18.484,4.397 19.125 C 4.021 19.673,3.628 20.112,3.267 20.385 C 2.967 20.613,2.402 20.887,2.011 20.995 C 1.536 21.126,1.365 21.268,1.276 21.608 C 1.159 22.049,1.536 22.516,2.009 22.519 C 2.209 22.520,3.027 22.248,3.421 22.049 C 4.127 21.692,4.788 21.117,5.339 20.380 C 5.520 20.138,5.716 19.865,5.773 19.773 C 5.972 19.455,6.102 19.487,6.490 19.953 C 8.184 21.983,10.225 22.915,12.570 22.730 C 14.509 22.577,16.074 21.815,17.270 20.440 C 17.906 19.709,17.849 19.760,18.029 19.760 C 18.193 19.760,18.194 19.761,18.591 20.290 C 19.214 21.119,19.847 21.678,20.579 22.049 C 20.973 22.248,21.791 22.520,21.991 22.519 C 22.464 22.516,22.841 22.049,22.724 21.608 C 22.635 21.268,22.465 21.126,21.989 20.994 C 21.610 20.889,21.094 20.645,20.786 20.426 C 20.456 20.190,20.035 19.740,19.692 19.257 C 19.537 19.039,19.326 18.782,19.222 18.686 C 18.713 18.217,17.934 18.119,17.253 18.437 C 16.893 18.606,16.726 18.749,16.362 19.197 C 15.645 20.083,14.814 20.671,13.851 20.974 C 13.177 21.186,12.917 21.220,12.020 21.218 C 11.207 21.215,11.165 21.211,10.701 21.088 C 9.588 20.793,8.669 20.175,7.738 19.096 C 7.202 18.475,7.102 18.386,6.763 18.227 C 6.541 18.122,6.453 18.105,6.103 18.093 C 5.841 18.085,5.644 18.099,5.540 18.134 " fill="#1C274C" stroke="none" fill-rule="evenodd"></path></svg>