<svg width="24" height="24" viewBox="0 0 24 24" fill="none" xmlns="http://www.w3.org/2000/svg"><path d="M5.734 5.280 C 5.494 5.315,5.143 5.468,4.935 5.627 C 4.854 5.688,4.613 5.973,4.400 6.259 C 3.645 7.272,3.128 7.660,2.108 7.978 C 1.572 8.146,1.404 8.262,1.297 8.541 C 1.176 8.859,1.300 9.217,1.597 9.409 C 1.765 9.517,1.803 9.525,2.060 9.509 C 2.373 9.490,3.038 9.283,3.447 9.077 C 4.210 8.694,5.064 7.938,5.601 7.168 C 5.985 6.618,6.065 6.620,6.579 7.197 C 7.177 7.867,7.882 8.450,8.584 8.856 C 10.277 9.836,12.491 10.025,14.487 9.360 C 15.619 8.983,16.633 8.307,17.422 7.402 C 17.818 6.948,17.961 6.861,18.177 6.944 C 18.212 6.958,18.382 7.151,18.555 7.374 C 19.326 8.370,20.166 8.989,21.233 9.348 C 21.794 9.536,22.131 9.564,22.352 9.440 C 22.800 9.188,22.883 8.632,22.526 8.277 C 22.407 8.159,22.292 8.105,21.901 7.982 C 20.919 7.674,20.370 7.280,19.701 6.400 C 19.340 5.925,19.142 5.745,18.805 5.586 C 18.556 5.467,18.513 5.460,18.080 5.460 C 17.324 5.460,16.966 5.641,16.378 6.320 C 15.199 7.682,13.744 8.291,11.820 8.227 C 11.093 8.203,10.708 8.136,10.160 7.938 C 9.238 7.605,8.426 7.018,7.582 6.073 C 7.392 5.860,7.149 5.630,7.042 5.561 C 6.667 5.321,6.174 5.214,5.734 5.280 M5.734 10.280 C 5.494 10.315,5.143 10.468,4.935 10.627 C 4.854 10.688,4.613 10.973,4.400 11.259 C 3.645 12.272,3.128 12.660,2.108 12.978 C 1.572 13.146,1.404 13.262,1.297 13.541 C 1.176 13.859,1.300 14.217,1.597 14.409 C 1.765 14.517,1.803 14.525,2.060 14.509 C 2.373 14.490,3.038 14.283,3.447 14.077 C 4.210 13.694,5.064 12.938,5.601 12.168 C 5.983 11.621,6.070 11.622,6.562 12.181 C 7.139 12.834,7.881 13.450,8.584 13.856 C 10.277 14.836,12.491 15.025,14.487 14.360 C 15.619 13.983,16.633 13.307,17.422 12.402 C 17.818 11.948,17.961 11.861,18.177 11.944 C 18.212 11.958,18.382 12.151,18.555 12.374 C 19.326 13.370,20.166 13.989,21.233 14.348 C 21.794 14.536,22.131 14.564,22.352 14.440 C 22.800 14.188,22.883 13.632,22.526 13.277 C 22.407 13.159,22.292 13.105,21.901 12.982 C 20.919 12.674,20.370 12.280,19.701 11.400 C 19.340 10.925,19.142 10.745,18.805 10.586 C 18.556 10.467,18.513 10.460,18.080 10.460 C 17.324 10.460,16.966 10.641,16.378 11.320 C 15.199 12.682,13.744 13.291,11.820 13.227 C 11.093 13.203,10.708 13.136,10.160 12.938 C 9.238 12.605,8.426 12.018,7.582 11.073 C 7.392 10.860,7.149 10.630,7.042 10.561 C 6.667 10.321,6.174 10.214,5.734 10.280 M5.734 15.280 C 5.494 15.315,5.143 15.468,4.935 15.627 C 4.854 15.688,4.613 15.973,4.400 16.259 C 3.645 17.272,3.128 17.660,2.108 17.978 C 1.572 18.146,1.404 18.262,1.297 18.541 C 1.176 18.859,1.300 19.217,1.597 19.409 C 1.765 19.517,1.803 19.525,2.060 19.509 C 2.373 19.490,3.038 19.283,3.447 19.077 C 4.210 18.694,5.064 17.938,5.601 17.168 C 5.983 16.621,6.070 16.622,6.562 17.181 C 7.139 17.834,7.881 18.450,8.584 18.856 C 10.277 19.836,12.491 20.025,14.487 19.360 C 15.619 18.983,16.633 18.307,17.422 17.402 C 17.818 16.948,17.961 16.861,18.177 16.944 C 18.212 16.958,18.382 17.151,18.555 17.374 C 19.326 18.370,20.166 18.989,21.233 19.348 C 21.794 19.536,22.131 19.564,22.352 19.440 C 22.800 19.188,22.883 18.632,22.526 18.277 C 22.407 18.159,22.292 18.105,21.901 17.982 C 20.919 17.674,20.370 17.280,19.701 16.400 C 19.340 15.925,19.142 15.745,18.805 15.586 C 18.556 15.467,18.513 15.460,18.080 15.460 C 17.324 15.460,16.966 15.641,16.378 16.320 C 15.199 17.682,13.744 18.291,11.820 18.227 C 11.093 18.203,10.708 18.136,10.160 17.938 C 9.238 17.605,8.426 17.018,7.582 16.073 C 7.392 15.860,7.149 15.630,7.042 15.561 C 6.667 15.321,6.174 15.214,5.734 15.280 " fill="#1C274C" stroke="none" fill-rule="evenodd"></path></svg>