<svg width="24" height="24" viewBox="0 0 24 24" fill="none" xmlns="http://www.w3.org/2000/svg"><path d="M11.618 2.733 C 11.120 2.861,10.864 3.062,10.146 3.894 C 8.854 5.389,8.174 6.563,8.033 7.543 C 7.946 8.143,8.092 8.971,8.400 9.630 C 8.941 10.785,9.906 11.590,11.109 11.888 C 11.603 12.011,12.397 12.011,12.891 11.888 C 14.091 11.591,15.060 10.783,15.600 9.630 C 15.902 8.984,16.052 8.131,15.967 7.544 C 15.876 6.909,15.568 6.220,14.996 5.367 C 14.441 4.537,13.376 3.286,12.992 3.010 C 12.619 2.743,12.039 2.626,11.618 2.733 M5.582 12.744 C 5.140 12.851,4.896 13.039,4.243 13.777 C 3.166 14.995,2.457 16.086,2.150 17.000 C 2.029 17.358,2.022 17.412,2.025 17.940 C 2.029 18.639,2.138 19.092,2.457 19.740 C 3.937 22.743,8.063 22.743,9.543 19.740 C 9.862 19.092,9.971 18.639,9.975 17.940 C 9.978 17.412,9.971 17.358,9.850 17.000 C 9.543 16.086,8.834 14.995,7.757 13.777 C 7.095 13.029,6.861 12.851,6.399 12.742 C 6.085 12.668,5.895 12.669,5.582 12.744 M17.618 12.733 C 17.120 12.861,16.864 13.062,16.146 13.894 C 14.854 15.389,14.174 16.563,14.033 17.543 C 13.946 18.143,14.092 18.971,14.400 19.630 C 14.941 20.785,15.906 21.590,17.109 21.888 C 17.603 22.011,18.397 22.011,18.891 21.888 C 20.091 21.591,21.060 20.783,21.600 19.630 C 21.902 18.984,22.052 18.131,21.967 17.544 C 21.876 16.909,21.568 16.220,20.996 15.367 C 20.441 14.537,19.376 13.286,18.992 13.010 C 18.619 12.743,18.039 12.626,17.618 12.733 " fill="#1C274C" stroke="none" fill-rule="evenodd"></path></svg>