<svg width="24" height="24" viewBox="0 0 24 24" fill="none" xmlns="http://www.w3.org/2000/svg"><path d="M8.300 2.025 C 7.595 2.051,6.733 2.126,6.300 2.200 C 4.429 2.521,3.501 3.463,3.186 5.360 C 3.027 6.313,3.020 6.613,3.020 12.060 C 3.020 16.872,3.026 17.395,3.091 17.957 C 3.262 19.433,3.551 20.195,4.178 20.822 C 4.926 21.570,5.852 21.851,7.940 21.962 C 9.029 22.020,16.192 21.991,16.800 21.926 C 18.200 21.776,18.990 21.525,19.589 21.040 C 20.395 20.387,20.755 19.500,20.929 17.740 C 21.002 16.992,21.002 7.008,20.929 6.260 C 20.786 4.816,20.531 4.008,20.022 3.391 C 19.367 2.597,18.469 2.239,16.720 2.075 C 16.295 2.035,9.197 1.993,8.300 2.025 M13.061 6.041 C 14.311 6.121,15.847 6.358,16.175 6.522 C 16.738 6.803,17.084 7.534,16.968 8.197 C 16.943 8.341,16.740 8.964,16.518 9.580 C 15.969 11.105,15.978 11.097,15.092 10.887 C 13.848 10.592,13.433 10.545,11.980 10.538 L 10.741 10.532 10.352 9.320 C 10.138 8.653,9.918 8.041,9.864 7.959 C 9.747 7.782,9.410 7.600,9.202 7.601 C 9.003 7.602,8.762 7.722,8.611 7.894 C 8.453 8.074,8.342 8.430,8.376 8.646 C 8.390 8.732,8.547 9.254,8.724 9.806 C 8.902 10.357,9.032 10.823,9.014 10.839 C 8.945 10.902,8.396 11.008,8.267 10.984 C 7.998 10.933,7.916 10.788,7.481 9.580 C 7.259 8.964,7.057 8.341,7.032 8.197 C 6.922 7.569,7.205 6.912,7.731 6.575 C 7.917 6.455,8.168 6.391,8.940 6.264 C 10.374 6.029,11.729 5.956,13.061 6.041 M16.373 17.355 C 16.615 17.506,16.733 17.718,16.733 18.003 C 16.733 18.203,16.714 18.270,16.616 18.409 C 16.552 18.501,16.436 18.613,16.359 18.658 C 16.221 18.739,16.181 18.740,12.000 18.740 C 7.819 18.740,7.779 18.739,7.641 18.658 C 7.564 18.613,7.448 18.501,7.384 18.409 C 7.098 18.003,7.330 17.395,7.815 17.278 C 7.884 17.261,9.803 17.250,12.080 17.254 L 16.220 17.260 16.373 17.355 " fill="#1C274C" stroke="none" fill-rule="evenodd"></path></svg>