<svg width="24" height="24" viewBox="0 0 24 24" fill="none" xmlns="http://www.w3.org/2000/svg"><path d="M11.120 2.039 C 9.316 2.220,7.707 2.807,6.280 3.806 C 2.696 6.315,1.150 10.849,2.462 15.000 C 2.954 16.557,3.767 17.890,4.938 19.062 C 6.528 20.651,8.440 21.596,10.740 21.928 C 11.213 21.996,12.787 21.996,13.260 21.928 C 15.135 21.657,16.725 20.987,18.200 19.845 C 18.637 19.507,19.507 18.637,19.845 18.200 C 22.092 15.297,22.619 11.564,21.254 8.220 C 20.058 5.287,17.480 3.053,14.430 2.303 C 13.446 2.062,12.028 1.948,11.120 2.039 M12.632 6.042 C 13.292 6.114,14.345 6.402,14.304 6.500 C 14.295 6.522,13.954 7.116,13.545 7.820 C 13.093 8.600,12.783 9.095,12.752 9.087 C 12.723 9.079,12.543 9.054,12.350 9.030 C 12.040 8.992,11.509 9.019,11.248 9.087 C 11.217 9.095,10.907 8.600,10.455 7.820 C 10.046 7.116,9.704 6.520,9.694 6.496 C 9.683 6.470,9.828 6.402,10.048 6.329 C 10.932 6.040,11.759 5.948,12.632 6.042 M9.135 8.542 C 9.804 9.700,9.881 9.852,9.834 9.917 C 9.804 9.957,9.703 10.084,9.609 10.199 C 9.427 10.423,9.177 10.906,9.135 11.114 L 9.110 11.240 7.576 11.240 L 6.042 11.240 6.065 11.110 C 6.281 9.897,6.738 8.917,7.494 8.045 C 7.722 7.783,8.306 7.241,8.361 7.240 C 8.373 7.240,8.721 7.826,9.135 8.542 M15.955 7.495 C 16.988 8.389,17.680 9.652,17.935 11.110 L 17.958 11.240 16.424 11.240 L 14.890 11.240 14.865 11.114 C 14.823 10.906,14.573 10.423,14.391 10.199 C 14.297 10.084,14.196 9.957,14.166 9.916 C 14.118 9.851,14.194 9.702,14.865 8.542 C 15.279 7.826,15.627 7.240,15.639 7.240 C 15.650 7.240,15.793 7.355,15.955 7.495 M9.136 12.890 C 9.181 13.114,9.472 13.650,9.682 13.896 C 9.793 14.025,9.876 14.153,9.866 14.180 C 9.845 14.234,8.402 16.731,8.378 16.756 C 8.351 16.783,7.992 16.476,7.706 16.182 C 7.157 15.618,6.651 14.823,6.377 14.097 C 6.285 13.851,6.125 13.233,6.065 12.890 L 6.042 12.760 7.576 12.760 L 9.110 12.760 9.136 12.890 M17.935 12.890 C 17.718 14.113,17.283 15.043,16.503 15.957 C 16.267 16.232,15.746 16.715,15.646 16.751 C 15.630 16.757,15.278 16.175,14.864 15.459 C 14.196 14.300,14.119 14.148,14.166 14.083 C 14.196 14.043,14.297 13.916,14.391 13.801 C 14.573 13.577,14.823 13.094,14.865 12.886 L 14.890 12.760 16.424 12.760 L 17.958 12.760 17.935 12.890 M12.000 14.998 C 12.165 14.998,12.413 14.975,12.550 14.946 L 12.801 14.893 13.563 16.211 C 13.982 16.936,14.319 17.535,14.311 17.542 C 14.271 17.582,13.507 17.814,13.170 17.889 C 12.605 18.014,11.395 18.014,10.830 17.889 C 10.493 17.814,9.729 17.582,9.689 17.542 C 9.679 17.532,10.368 16.321,11.183 14.916 C 11.191 14.903,11.310 14.917,11.448 14.946 C 11.587 14.975,11.835 14.998,12.000 14.998 " fill="#1C274C" stroke="none" fill-rule="evenodd"></path></svg>