<svg width="24" height="24" viewBox="0 0 24 24" fill="none" xmlns="http://www.w3.org/2000/svg"><path d="M8.924 2.195 C 9.255 2.448,9.768 2.980,10.047 3.360 C 11.148 4.862,11.863 7.099,12.167 10.000 C 12.238 10.675,12.238 13.325,12.167 14.000 C 11.857 16.954,11.132 19.192,9.997 20.700 C 9.710 21.082,9.188 21.616,8.867 21.856 L 8.674 22.000 12.647 21.999 C 16.997 21.999,16.866 22.005,17.378 21.761 C 17.901 21.511,18.539 20.915,18.974 20.267 C 21.187 16.975,21.663 10.433,20.021 5.860 C 19.785 5.203,19.321 4.253,18.994 3.760 C 18.695 3.308,18.004 2.601,17.671 2.406 C 17.374 2.232,17.018 2.089,16.757 2.039 C 16.629 2.015,15.032 2.000,12.609 2.000 L 8.668 2.000 8.924 2.195 M6.550 2.614 C 5.804 2.868,5.066 3.655,4.464 4.838 C 2.952 7.806,2.570 12.714,3.545 16.620 C 4.179 19.161,5.327 20.977,6.563 21.395 C 7.987 21.875,9.467 20.423,10.387 17.642 C 11.470 14.370,11.497 9.913,10.454 6.560 C 9.797 4.446,8.726 2.935,7.646 2.599 C 7.297 2.491,6.896 2.496,6.550 2.614 M7.316 6.058 C 7.646 6.229,7.969 6.844,8.202 7.747 C 8.410 8.555,8.569 9.676,8.625 10.723 L 8.651 11.231 8.036 11.246 C 7.469 11.260,7.406 11.269,7.246 11.360 C 6.754 11.640,6.754 12.360,7.246 12.640 C 7.406 12.731,7.469 12.740,8.036 12.754 L 8.651 12.769 8.625 13.277 C 8.529 15.089,8.171 16.776,7.728 17.500 C 6.897 18.861,5.988 17.327,5.655 14.000 C 5.557 13.028,5.557 10.972,5.655 10.000 C 5.928 7.268,6.595 5.685,7.316 6.058 " fill="#1C274C" stroke="none" fill-rule="evenodd"></path></svg>