<svg width="24" height="24" viewBox="0 0 24 24" fill="none" xmlns="http://www.w3.org/2000/svg"><path d="M16.258 1.279 C 14.448 1.440,12.676 2.265,11.325 3.577 C 9.771 5.087,8.625 7.360,8.300 9.580 C 8.215 10.161,8.184 10.982,8.232 11.380 L 8.271 11.700 5.404 14.580 C 2.302 17.696,2.350 17.641,2.132 18.300 C 2.040 18.576,2.026 18.689,2.024 19.120 C 2.023 19.483,2.042 19.691,2.094 19.880 C 2.367 20.862,3.137 21.632,4.120 21.905 C 4.309 21.958,4.516 21.977,4.880 21.976 C 5.311 21.974,5.424 21.960,5.700 21.868 C 6.359 21.650,6.304 21.698,9.420 18.596 L 12.300 15.730 12.580 15.763 C 14.053 15.937,16.256 15.430,17.920 14.533 C 19.796 13.522,21.127 12.189,21.942 10.508 C 22.945 8.440,23.017 6.217,22.141 4.420 C 21.563 3.235,20.537 2.261,19.316 1.738 C 18.432 1.360,17.284 1.187,16.258 1.279 M17.507 2.802 C 17.679 2.825,17.846 2.853,17.879 2.864 C 17.913 2.876,17.765 2.975,17.519 3.105 C 16.714 3.530,15.649 4.289,14.640 5.158 C 12.982 6.584,11.089 8.832,9.992 10.677 L 9.720 11.134 9.720 10.702 C 9.720 9.123,10.385 7.231,11.486 5.675 C 11.841 5.174,12.689 4.313,13.140 3.994 C 14.043 3.358,15.096 2.929,16.061 2.806 C 16.458 2.755,17.141 2.753,17.507 2.802 M20.007 3.986 C 20.108 4.077,20.104 4.473,20.000 4.811 C 19.628 6.016,18.310 7.857,16.655 9.486 C 14.616 11.492,12.179 13.175,10.994 13.394 C 10.646 13.458,10.600 13.433,10.600 13.172 C 10.600 12.112,12.573 9.243,14.805 7.059 C 16.330 5.566,18.023 4.376,19.133 4.017 C 19.486 3.902,19.898 3.888,20.007 3.986 M21.195 6.473 C 21.426 8.276,20.751 10.172,19.366 11.610 C 17.899 13.134,15.552 14.197,13.500 14.267 L 12.860 14.288 13.320 14.012 C 14.819 13.113,16.532 11.750,17.924 10.349 C 19.102 9.163,20.261 7.660,20.900 6.489 C 21.010 6.287,21.111 6.121,21.125 6.121 C 21.138 6.120,21.170 6.279,21.195 6.473 " fill="#1C274C" stroke="none" fill-rule="evenodd"></path></svg>