<svg width="24" height="24" viewBox="0 0 24 24" fill="none" xmlns="http://www.w3.org/2000/svg"><path d="M11.387 2.042 C 9.455 2.267,7.725 3.376,6.735 5.025 C 6.475 5.458,6.241 5.978,6.240 6.124 C 6.238 6.716,6.905 7.082,7.407 6.764 C 7.561 6.666,7.615 6.595,7.758 6.294 C 8.248 5.266,9.007 4.483,9.979 4.004 C 10.673 3.662,11.290 3.520,12.080 3.520 C 13.906 3.520,15.487 4.491,16.317 6.122 C 16.631 6.739,16.788 6.880,17.160 6.880 C 17.590 6.880,17.900 6.579,17.900 6.162 C 17.900 5.706,17.290 4.666,16.605 3.951 C 15.239 2.526,13.306 1.819,11.387 2.042 M2.695 4.077 C 2.383 4.218,2.194 4.601,2.279 4.917 C 2.302 5.001,3.175 6.566,4.220 8.395 C 5.265 10.224,6.120 11.729,6.120 11.740 C 6.120 11.751,5.765 11.760,5.330 11.760 C 3.670 11.760,3.010 11.905,2.582 12.362 C 2.102 12.876,2.000 13.468,2.000 15.760 C 2.000 17.688,2.085 18.397,2.371 18.874 C 2.717 19.450,3.241 19.657,4.520 19.722 C 5.432 19.768,18.568 19.768,19.480 19.722 C 20.759 19.657,21.283 19.450,21.629 18.874 C 21.915 18.398,21.999 17.686,22.000 15.740 C 22.000 13.471,21.897 12.874,21.418 12.362 C 20.990 11.905,20.330 11.760,18.670 11.760 C 18.235 11.760,17.880 11.751,17.880 11.740 C 17.880 11.729,18.735 10.224,19.780 8.395 C 20.825 6.566,21.699 4.999,21.721 4.914 C 21.836 4.488,21.452 4.002,21.000 4.002 C 20.830 4.002,20.569 4.116,20.460 4.238 C 20.416 4.287,19.426 5.995,18.260 8.034 L 16.140 11.740 12.014 11.750 L 7.887 11.760 7.731 11.510 C 7.645 11.373,6.686 9.703,5.601 7.800 C 4.516 5.897,3.590 4.297,3.544 4.245 C 3.432 4.118,3.173 4.002,3.000 4.002 C 2.923 4.002,2.786 4.035,2.695 4.077 M11.360 4.580 C 10.797 4.693,10.313 4.907,9.847 5.248 C 8.946 5.909,8.279 7.184,8.542 7.739 C 8.696 8.063,9.120 8.232,9.455 8.104 C 9.690 8.014,9.815 7.871,9.952 7.533 C 10.122 7.115,10.260 6.899,10.521 6.642 C 11.664 5.517,13.610 5.946,14.183 7.449 C 14.368 7.933,14.522 8.087,14.876 8.144 C 15.215 8.198,15.587 7.945,15.681 7.598 C 15.713 7.478,15.712 7.376,15.679 7.214 C 15.619 6.926,15.297 6.292,15.035 5.946 C 14.512 5.255,13.585 4.701,12.720 4.562 C 12.372 4.506,11.681 4.515,11.360 4.580 M11.745 6.819 C 11.347 6.961,11.098 7.325,11.103 7.759 C 11.108 8.212,11.384 8.575,11.820 8.702 C 12.639 8.940,13.359 8.057,12.967 7.295 C 12.744 6.861,12.211 6.653,11.745 6.819 M6.400 14.843 C 6.642 14.953,6.791 15.100,6.905 15.340 C 7.129 15.814,6.943 16.362,6.470 16.623 C 6.299 16.717,6.212 16.739,6.000 16.739 C 4.936 16.739,4.617 15.311,5.580 14.855 C 5.835 14.735,6.150 14.730,6.400 14.843 M9.400 14.843 C 9.642 14.953,9.791 15.100,9.905 15.340 C 10.129 15.814,9.943 16.362,9.470 16.623 C 9.299 16.717,9.212 16.739,9.000 16.739 C 7.936 16.739,7.617 15.311,8.580 14.855 C 8.835 14.735,9.150 14.730,9.400 14.843 M18.302 15.075 C 18.871 15.334,18.899 16.116,18.350 16.409 L 18.180 16.500 16.000 16.500 L 13.820 16.500 13.650 16.409 C 13.101 16.116,13.129 15.334,13.698 15.075 C 13.849 15.007,14.009 15.002,16.000 15.002 C 17.991 15.002,18.151 15.007,18.302 15.075 " fill="#1C274C" stroke="none" fill-rule="evenodd"></path></svg>