<svg width="24" height="24" viewBox="0 0 24 24" fill="none" xmlns="http://www.w3.org/2000/svg"><path d="M15.800 3.042 C 14.214 3.239,12.744 4.015,11.773 5.167 C 11.180 5.871,10.680 6.768,10.680 7.128 C 10.680 7.382,10.754 7.551,10.935 7.710 C 11.113 7.866,11.307 7.912,11.598 7.865 C 11.840 7.826,11.979 7.675,12.240 7.166 C 12.746 6.179,13.425 5.492,14.360 5.021 C 15.060 4.669,15.697 4.520,16.500 4.520 C 17.303 4.520,17.940 4.669,18.640 5.021 C 19.572 5.491,20.245 6.172,20.760 7.167 C 20.896 7.429,21.056 7.680,21.124 7.737 C 21.370 7.945,21.813 7.932,22.065 7.710 C 22.246 7.551,22.320 7.382,22.320 7.128 C 22.320 6.772,21.795 5.833,21.220 5.159 C 20.338 4.124,18.942 3.331,17.600 3.101 C 17.136 3.022,16.207 2.991,15.800 3.042 M15.760 5.581 C 14.547 5.830,13.518 6.679,13.041 7.824 C 12.867 8.243,12.843 8.499,12.958 8.736 C 13.062 8.950,13.198 9.058,13.449 9.125 C 13.840 9.230,14.195 9.007,14.357 8.555 C 14.605 7.868,15.106 7.361,15.783 7.114 C 16.136 6.985,16.837 6.985,17.208 7.112 C 17.551 7.231,17.887 7.451,18.143 7.724 C 18.381 7.979,18.518 8.205,18.643 8.555 C 18.805 9.007,19.160 9.230,19.551 9.125 C 19.799 9.059,19.938 8.950,20.037 8.747 C 20.147 8.519,20.142 8.300,20.018 7.971 C 19.543 6.707,18.453 5.794,17.143 5.562 C 16.822 5.505,16.079 5.515,15.760 5.581 M16.275 8.036 C 16.097 8.094,15.924 8.247,15.840 8.420 C 15.764 8.577,15.760 8.668,15.760 10.173 L 15.760 11.760 10.150 11.760 C 4.538 11.760,3.937 11.773,3.420 11.902 C 2.737 12.073,2.301 12.518,2.141 13.211 C 2.046 13.617,2.000 14.457,2.000 15.760 C 2.000 17.688,2.085 18.397,2.371 18.874 C 2.717 19.450,3.241 19.657,4.520 19.722 C 5.432 19.768,18.568 19.768,19.480 19.722 C 20.759 19.657,21.283 19.450,21.629 18.874 C 21.915 18.398,21.999 17.686,22.000 15.740 C 22.000 13.471,21.897 12.874,21.418 12.362 C 20.968 11.880,20.354 11.760,18.350 11.760 L 17.240 11.760 17.240 10.173 C 17.240 8.658,17.236 8.578,17.159 8.417 C 17.011 8.112,16.594 7.933,16.275 8.036 M6.400 14.843 C 6.642 14.953,6.791 15.100,6.905 15.340 C 7.129 15.814,6.943 16.362,6.470 16.623 C 6.299 16.717,6.212 16.739,6.000 16.739 C 4.936 16.739,4.617 15.311,5.580 14.855 C 5.835 14.735,6.150 14.730,6.400 14.843 M9.400 14.843 C 9.642 14.953,9.791 15.100,9.905 15.340 C 10.129 15.814,9.943 16.362,9.470 16.623 C 9.299 16.717,9.212 16.739,9.000 16.739 C 7.936 16.739,7.617 15.311,8.580 14.855 C 8.835 14.735,9.150 14.730,9.400 14.843 " fill="#1C274C" stroke="none" fill-rule="evenodd"></path></svg>