<svg width="24" height="24" viewBox="0 0 24 24" fill="none" xmlns="http://www.w3.org/2000/svg"><path d="M15.800 2.042 C 14.214 2.239,12.744 3.015,11.773 4.167 C 11.180 4.871,10.680 5.768,10.680 6.128 C 10.680 6.382,10.754 6.551,10.935 6.710 C 11.113 6.866,11.307 6.912,11.598 6.865 C 11.840 6.826,11.979 6.675,12.240 6.166 C 12.746 5.179,13.425 4.492,14.360 4.021 C 15.060 3.669,15.697 3.520,16.500 3.520 C 17.303 3.520,17.940 3.669,18.640 4.021 C 19.572 4.491,20.245 5.172,20.760 6.167 C 20.896 6.429,21.056 6.680,21.124 6.737 C 21.370 6.945,21.813 6.932,22.065 6.710 C 22.246 6.551,22.320 6.382,22.320 6.128 C 22.320 5.772,21.795 4.833,21.220 4.159 C 20.338 3.124,18.942 2.331,17.600 2.101 C 17.136 2.022,16.207 1.991,15.800 2.042 M15.760 4.581 C 14.547 4.830,13.518 5.679,13.041 6.824 C 12.867 7.243,12.843 7.499,12.958 7.736 C 13.062 7.950,13.198 8.058,13.449 8.125 C 13.840 8.230,14.195 8.007,14.357 7.555 C 14.605 6.868,15.106 6.361,15.783 6.114 C 16.136 5.985,16.837 5.985,17.208 6.112 C 17.551 6.231,17.887 6.451,18.143 6.724 C 18.381 6.979,18.518 7.205,18.643 7.555 C 18.805 8.007,19.160 8.230,19.551 8.125 C 19.799 8.059,19.938 7.950,20.037 7.747 C 20.147 7.519,20.142 7.300,20.018 6.971 C 19.543 5.707,18.453 4.794,17.143 4.562 C 16.822 4.505,16.079 4.515,15.760 4.581 M16.180 6.807 C 15.597 7.026,15.351 7.652,15.630 8.203 C 15.995 8.922,17.005 8.922,17.370 8.203 C 17.627 7.696,17.432 7.099,16.933 6.858 C 16.752 6.771,16.349 6.744,16.180 6.807 M6.177 9.822 C 4.137 10.165,2.519 11.735,2.101 13.777 C 1.723 15.626,2.494 17.633,4.015 18.756 C 4.324 18.985,4.863 19.285,5.172 19.400 C 5.319 19.455,5.440 19.515,5.440 19.533 C 5.440 19.551,5.177 20.006,4.854 20.543 C 4.302 21.464,4.269 21.532,4.267 21.730 C 4.260 22.489,5.209 22.770,5.634 22.135 C 5.692 22.048,6.037 21.479,6.400 20.870 L 7.060 19.762 12.000 19.762 L 16.940 19.762 17.680 21.007 C 18.338 22.112,18.440 22.264,18.598 22.365 C 19.099 22.688,19.742 22.329,19.734 21.730 C 19.731 21.533,19.696 21.461,19.146 20.543 C 18.823 20.006,18.560 19.551,18.560 19.532 C 18.560 19.514,18.695 19.447,18.860 19.384 C 19.465 19.153,20.050 18.760,20.564 18.239 C 21.248 17.546,21.714 16.661,21.907 15.691 C 22.003 15.205,22.003 14.259,21.906 13.800 C 21.684 12.744,21.219 11.898,20.455 11.160 C 19.706 10.435,18.812 9.986,17.787 9.820 C 17.267 9.736,6.680 9.738,6.177 9.822 M7.598 12.587 C 8.152 12.739,8.726 13.199,8.988 13.700 C 9.440 14.565,9.282 15.630,8.601 16.318 C 7.183 17.749,4.760 16.758,4.760 14.747 C 4.760 14.125,4.966 13.633,5.419 13.176 C 6.009 12.579,6.796 12.366,7.598 12.587 M6.720 14.064 C 6.423 14.193,6.269 14.426,6.269 14.746 C 6.269 15.320,6.883 15.673,7.377 15.384 C 7.787 15.144,7.858 14.534,7.513 14.212 C 7.298 14.011,6.979 13.951,6.720 14.064 M18.830 14.085 C 19.250 14.288,19.375 14.878,19.072 15.223 C 18.811 15.521,19.093 15.500,15.260 15.500 L 11.820 15.500 11.650 15.409 C 11.101 15.116,11.129 14.334,11.698 14.075 C 11.851 14.006,12.048 14.002,15.257 14.001 C 18.639 14.000,18.656 14.000,18.830 14.085 " fill="#1C274C" stroke="none" fill-rule="evenodd"></path></svg>