<svg width="24" height="24" viewBox="0 0 24 24" fill="none" xmlns="http://www.w3.org/2000/svg"><path d="M5.709 1.820 C 4.003 2.107,2.552 3.346,2.003 4.983 C 1.609 6.160,1.699 7.523,2.244 8.609 C 2.678 9.475,3.455 10.267,4.305 10.710 C 5.903 11.541,7.885 11.386,9.319 10.317 C 10.538 9.408,11.240 8.013,11.240 6.500 C 11.240 4.683,10.224 3.056,8.569 2.224 C 7.784 1.829,6.628 1.666,5.709 1.820 M16.700 1.825 C 15.692 2.007,14.877 2.433,14.155 3.155 C 13.242 4.068,12.760 5.223,12.760 6.495 C 12.761 7.783,13.237 8.927,14.155 9.845 C 14.887 10.577,15.742 11.019,16.736 11.181 C 17.664 11.331,18.783 11.172,19.567 10.777 C 20.735 10.190,21.683 9.083,22.035 7.894 C 22.544 6.179,22.100 4.410,20.845 3.155 C 19.924 2.234,18.756 1.753,17.465 1.764 C 17.220 1.766,16.876 1.793,16.700 1.825 M5.700 12.825 C 4.692 13.007,3.877 13.433,3.155 14.155 C 2.242 15.068,1.760 16.223,1.760 17.495 C 1.761 18.783,2.237 19.927,3.155 20.845 C 3.887 21.577,4.742 22.019,5.736 22.181 C 6.664 22.331,7.783 22.172,8.567 21.777 C 9.735 21.190,10.683 20.083,11.035 18.894 C 11.544 17.179,11.100 15.410,9.845 14.155 C 8.924 13.234,7.756 12.753,6.465 12.764 C 6.220 12.766,5.876 12.793,5.700 12.825 M16.700 12.825 C 15.692 13.007,14.877 13.433,14.155 14.155 C 13.242 15.068,12.760 16.223,12.760 17.495 C 12.761 18.783,13.237 19.927,14.155 20.845 C 14.887 21.577,15.742 22.019,16.736 22.181 C 17.664 22.331,18.783 22.172,19.567 21.777 C 20.735 21.190,21.683 20.083,22.035 18.894 C 22.544 17.179,22.100 15.410,20.845 14.155 C 19.924 13.234,18.756 12.753,17.465 12.764 C 17.220 12.766,16.876 12.793,16.700 12.825 " fill="#1C274C" stroke="none" fill-rule="evenodd"></path></svg>