<svg width="24" height="24" viewBox="0 0 24 24" fill="none" xmlns="http://www.w3.org/2000/svg"><path d="M4.467 2.044 C 3.832 2.086,3.438 2.172,3.093 2.341 C 2.547 2.608,2.280 2.985,2.109 3.728 L 2.023 4.100 2.009 11.620 C 2.000 16.705,2.009 19.309,2.038 19.662 C 2.169 21.270,2.725 21.815,4.375 21.956 C 5.034 22.013,7.966 22.013,8.625 21.956 C 10.074 21.833,10.635 21.411,10.893 20.252 L 10.980 19.860 10.980 12.000 L 10.980 4.140 10.893 3.748 C 10.726 2.997,10.454 2.609,9.908 2.342 C 9.545 2.164,9.197 2.092,8.451 2.041 C 7.769 1.995,5.165 1.996,4.467 2.044 M15.140 2.025 C 14.363 2.097,13.813 2.408,13.419 3.001 C 13.059 3.543,13.001 3.888,13.001 5.500 C 13.001 7.115,13.063 7.480,13.425 8.011 C 13.739 8.471,14.226 8.810,14.740 8.926 C 15.089 9.005,19.911 9.005,20.260 8.926 C 20.780 8.809,21.272 8.464,21.581 7.999 C 21.960 7.428,22.019 7.022,21.988 5.180 C 21.966 3.848,21.944 3.678,21.745 3.282 C 21.507 2.810,21.182 2.475,20.742 2.250 C 20.311 2.029,20.295 2.028,17.700 2.019 C 16.380 2.014,15.228 2.017,15.140 2.025 M15.500 11.041 C 14.716 11.097,14.287 11.211,13.889 11.471 C 13.349 11.824,13.119 12.384,13.039 13.540 C 12.992 14.215,12.992 18.785,13.039 19.460 C 13.156 21.151,13.626 21.710,15.115 21.929 C 15.598 22.000,19.402 22.000,19.885 21.929 C 20.617 21.821,21.011 21.662,21.341 21.340 C 21.721 20.970,21.893 20.449,21.961 19.460 C 22.008 18.785,22.008 14.215,21.961 13.540 C 21.845 11.869,21.382 11.304,19.940 11.078 C 19.589 11.022,16.158 10.994,15.500 11.041 " fill="#1C274C" stroke="none" fill-rule="evenodd"></path></svg>