<svg width="24" height="24" viewBox="0 0 24 24" fill="none" xmlns="http://www.w3.org/2000/svg"><path d="M4.488 2.045 C 3.300 2.125,2.668 2.447,2.334 3.141 C 2.061 3.712,2.001 4.314,2.001 6.500 C 2.001 8.686,2.061 9.288,2.334 9.859 C 2.508 10.221,2.779 10.492,3.141 10.666 C 3.712 10.939,4.314 10.999,6.500 10.999 C 8.686 10.999,9.288 10.939,9.859 10.666 C 10.221 10.492,10.492 10.221,10.666 9.859 C 10.939 9.288,10.999 8.686,10.999 6.500 C 10.999 4.314,10.939 3.712,10.666 3.141 C 10.322 2.426,9.716 2.129,8.420 2.042 C 7.721 1.995,5.203 1.996,4.488 2.045 M15.532 2.042 C 14.304 2.124,13.680 2.437,13.339 3.140 C 13.075 3.684,13.001 4.420,13.001 6.500 C 13.001 9.072,13.126 9.792,13.667 10.333 C 14.209 10.874,14.927 10.999,17.500 10.999 C 20.073 10.999,20.791 10.874,21.333 10.333 C 21.874 9.792,21.999 9.072,21.999 6.500 C 21.999 3.881,21.873 3.185,21.302 2.645 C 20.896 2.262,20.418 2.110,19.389 2.040 C 18.739 1.996,16.202 1.997,15.532 2.042 M4.532 13.042 C 3.304 13.124,2.680 13.437,2.339 14.140 C 2.075 14.684,2.001 15.420,2.001 17.500 C 2.001 20.072,2.126 20.792,2.667 21.333 C 3.209 21.874,3.927 21.999,6.500 21.999 C 9.073 21.999,9.791 21.874,10.333 21.333 C 10.874 20.792,10.999 20.072,10.999 17.500 C 10.999 14.881,10.873 14.185,10.302 13.645 C 9.896 13.262,9.418 13.110,8.389 13.040 C 7.739 12.996,5.202 12.997,4.532 13.042 M15.532 13.042 C 14.304 13.124,13.680 13.437,13.339 14.140 C 13.075 14.684,13.001 15.420,13.001 17.500 C 13.001 20.072,13.126 20.792,13.667 21.333 C 14.209 21.874,14.927 21.999,17.500 21.999 C 20.073 21.999,20.791 21.874,21.333 21.333 C 21.874 20.792,21.999 20.072,21.999 17.500 C 21.999 14.881,21.873 14.185,21.302 13.645 C 20.896 13.262,20.418 13.110,19.389 13.040 C 18.739 12.996,16.202 12.997,15.532 13.042 " fill="#1C274C" stroke="none" fill-rule="evenodd"></path></svg>