<svg width="24" height="24" viewBox="0 0 24 24" fill="none" xmlns="http://www.w3.org/2000/svg"><path d="M4.500 2.041 C 3.716 2.097,3.287 2.211,2.889 2.471 C 2.349 2.824,2.119 3.384,2.039 4.540 C 1.992 5.215,1.992 9.785,2.039 10.460 C 2.156 12.151,2.626 12.710,4.115 12.929 C 4.598 13.000,8.402 13.000,8.885 12.929 C 9.617 12.821,10.011 12.662,10.341 12.340 C 10.721 11.970,10.893 11.449,10.961 10.460 C 11.008 9.785,11.008 5.215,10.961 4.540 C 10.845 2.869,10.382 2.304,8.940 2.078 C 8.589 2.022,5.158 1.994,4.500 2.041 M15.140 2.025 C 14.363 2.097,13.813 2.408,13.419 3.001 C 13.059 3.543,13.001 3.888,13.001 5.500 C 13.001 7.115,13.063 7.480,13.425 8.011 C 13.739 8.471,14.226 8.810,14.740 8.926 C 15.089 9.005,19.911 9.005,20.260 8.926 C 20.780 8.809,21.272 8.464,21.581 7.999 C 21.960 7.428,22.019 7.022,21.988 5.180 C 21.966 3.848,21.944 3.678,21.745 3.282 C 21.507 2.810,21.182 2.475,20.742 2.250 C 20.311 2.029,20.295 2.028,17.700 2.019 C 16.380 2.014,15.228 2.017,15.140 2.025 M15.520 11.039 C 14.250 11.128,13.633 11.441,13.303 12.163 C 13.038 12.741,13.001 13.275,13.000 16.488 C 13.000 19.207,13.028 19.906,13.161 20.424 C 13.416 21.419,14.032 21.838,15.415 21.956 C 16.074 22.013,18.926 22.013,19.585 21.956 C 20.755 21.856,21.369 21.538,21.682 20.867 C 21.976 20.241,22.010 19.699,21.988 16.120 C 21.969 13.131,21.962 12.981,21.798 12.420 C 21.580 11.675,21.020 11.252,20.043 11.094 C 19.601 11.023,16.321 10.983,15.520 11.039 M4.140 15.025 C 3.363 15.097,2.813 15.408,2.419 16.001 C 2.059 16.543,2.001 16.888,2.001 18.500 C 2.001 20.115,2.063 20.480,2.425 21.011 C 2.739 21.471,3.226 21.810,3.740 21.926 C 4.089 22.005,8.911 22.005,9.260 21.926 C 9.780 21.809,10.272 21.464,10.581 20.999 C 10.960 20.428,11.019 20.022,10.988 18.180 C 10.966 16.848,10.944 16.678,10.745 16.282 C 10.507 15.810,10.182 15.475,9.742 15.250 C 9.311 15.029,9.295 15.028,6.700 15.019 C 5.380 15.014,4.228 15.017,4.140 15.025 " fill="#1C274C" stroke="none" fill-rule="evenodd"></path></svg>