<svg width="24" height="24" viewBox="0 0 24 24" fill="none" xmlns="http://www.w3.org/2000/svg"><path d="M5.791 2.062 C 3.901 2.356,2.391 3.853,2.065 5.757 C 1.692 7.929,2.997 10.086,5.100 10.773 C 5.741 10.983,5.965 11.000,8.078 11.000 C 10.348 11.000,10.323 11.003,10.657 10.667 C 11.004 10.318,11.000 10.347,11.000 8.082 C 11.000 6.470,10.989 6.069,10.935 5.757 C 10.517 3.321,8.235 1.682,5.791 2.062 M16.900 2.045 C 14.899 2.295,13.273 3.954,13.040 5.984 C 13.011 6.242,12.999 7.041,13.008 8.280 L 13.020 10.180 13.138 10.393 C 13.267 10.626,13.402 10.757,13.655 10.892 C 13.817 10.979,13.850 10.980,15.740 10.993 C 17.040 11.001,17.783 10.990,18.040 10.959 C 20.472 10.658,22.228 8.460,21.966 6.045 C 21.690 3.505,19.440 1.728,16.900 2.045 M5.900 13.044 C 4.444 13.232,3.105 14.202,2.460 15.537 C 1.142 18.260,2.842 21.490,5.828 21.940 C 6.324 22.015,6.676 22.015,7.172 21.940 C 9.176 21.638,10.727 20.031,10.960 18.016 C 10.990 17.756,11.001 16.976,10.993 15.740 L 10.980 13.860 10.868 13.632 C 10.743 13.378,10.588 13.228,10.320 13.104 C 10.146 13.023,10.078 13.020,8.160 13.014 C 7.071 13.011,6.054 13.024,5.900 13.044 M13.768 13.076 C 13.487 13.173,13.295 13.334,13.144 13.601 L 13.020 13.820 13.008 15.720 C 12.999 16.959,13.011 17.758,13.040 18.016 C 13.272 20.030,14.824 21.638,16.828 21.940 C 17.324 22.015,17.676 22.015,18.172 21.940 C 20.207 21.634,21.751 20.006,21.967 17.940 C 22.217 15.538,20.463 13.339,18.060 13.044 C 17.843 13.018,16.959 13.001,15.840 13.001 C 14.144 13.003,13.961 13.009,13.768 13.076 " fill="#1C274C" stroke="none" fill-rule="evenodd"></path></svg>