<svg width="24" height="24" viewBox="0 0 24 24" fill="none" xmlns="http://www.w3.org/2000/svg"><path d="M4.532 2.042 C 3.304 2.124,2.680 2.437,2.339 3.140 C 2.075 3.684,2.001 4.420,2.001 6.500 C 2.001 9.072,2.126 9.792,2.667 10.333 C 3.209 10.874,3.927 10.999,6.500 10.999 C 9.073 10.999,9.791 10.874,10.333 10.333 C 10.874 9.792,10.999 9.072,10.999 6.500 C 10.999 3.881,10.873 3.185,10.302 2.645 C 9.896 2.262,9.418 2.110,8.389 2.040 C 7.739 1.996,5.202 1.997,4.532 2.042 M17.201 2.823 C 17.018 2.903,16.928 2.988,16.836 3.168 C 16.766 3.304,16.760 3.419,16.760 4.538 L 16.760 5.760 15.559 5.760 C 14.297 5.760,14.184 5.774,13.987 5.952 C 13.695 6.216,13.694 6.789,13.986 7.045 C 14.201 7.234,14.249 7.240,15.538 7.240 L 16.760 7.240 16.760 8.462 C 16.760 9.751,16.766 9.799,16.955 10.014 C 17.211 10.306,17.784 10.305,18.048 10.013 C 18.226 9.816,18.240 9.703,18.240 8.441 L 18.240 7.240 19.462 7.240 C 20.581 7.240,20.696 7.234,20.832 7.164 C 21.015 7.071,21.099 6.980,21.178 6.790 C 21.257 6.602,21.257 6.398,21.178 6.210 C 21.096 6.012,21.010 5.923,20.820 5.835 C 20.676 5.769,20.538 5.762,19.450 5.761 L 18.240 5.760 18.239 4.550 C 18.238 3.462,18.231 3.324,18.165 3.180 C 18.077 2.990,17.988 2.904,17.790 2.822 C 17.605 2.744,17.381 2.745,17.201 2.823 M4.532 13.042 C 3.304 13.124,2.680 13.437,2.339 14.140 C 2.075 14.684,2.001 15.420,2.001 17.500 C 2.001 20.072,2.126 20.792,2.667 21.333 C 3.209 21.874,3.927 21.999,6.500 21.999 C 9.073 21.999,9.791 21.874,10.333 21.333 C 10.874 20.792,10.999 20.072,10.999 17.500 C 10.999 14.881,10.873 14.185,10.302 13.645 C 9.896 13.262,9.418 13.110,8.389 13.040 C 7.739 12.996,5.202 12.997,4.532 13.042 M15.532 13.042 C 14.304 13.124,13.680 13.437,13.339 14.140 C 13.075 14.684,13.001 15.420,13.001 17.500 C 13.001 20.072,13.126 20.792,13.667 21.333 C 14.209 21.874,14.927 21.999,17.500 21.999 C 20.073 21.999,20.791 21.874,21.333 21.333 C 21.874 20.792,21.999 20.072,21.999 17.500 C 21.999 14.881,21.873 14.185,21.302 13.645 C 20.896 13.262,20.418 13.110,19.389 13.040 C 18.739 12.996,16.202 12.997,15.532 13.042 " fill="#1C274C" stroke="none" fill-rule="evenodd"></path></svg>