<svg width="24" height="24" viewBox="0 0 24 24" fill="none" xmlns="http://www.w3.org/2000/svg"><path d="M6.020 2.045 C 5.603 2.097,5.067 2.260,4.647 2.461 C 2.285 3.593,1.328 6.391,2.504 8.728 C 2.948 9.611,3.714 10.362,4.617 10.802 C 5.376 11.171,6.275 11.333,7.079 11.245 C 8.187 11.125,9.128 10.677,9.902 9.902 C 11.757 8.045,11.719 5.087,9.816 3.279 C 8.797 2.312,7.434 1.868,6.020 2.045 M15.532 2.042 C 14.304 2.124,13.680 2.437,13.339 3.140 C 13.075 3.684,13.001 4.420,13.001 6.500 C 13.001 9.072,13.126 9.792,13.667 10.333 C 14.209 10.874,14.927 10.999,17.500 10.999 C 20.073 10.999,20.791 10.874,21.333 10.333 C 21.874 9.792,21.999 9.072,21.999 6.500 C 21.999 3.881,21.873 3.185,21.302 2.645 C 20.896 2.262,20.418 2.110,19.389 2.040 C 18.739 1.996,16.202 1.997,15.532 2.042 M16.916 12.762 C 15.692 12.870,14.434 13.567,13.700 14.542 C 13.159 15.261,12.845 16.065,12.761 16.947 C 12.566 19.008,13.801 20.970,15.759 21.709 C 16.387 21.946,17.191 22.042,17.877 21.962 C 21.343 21.559,23.141 17.657,21.190 14.766 C 20.253 13.376,18.622 12.611,16.916 12.762 M4.532 13.042 C 3.304 13.124,2.680 13.437,2.339 14.140 C 2.075 14.684,2.001 15.420,2.001 17.500 C 2.001 20.072,2.126 20.792,2.667 21.333 C 3.209 21.874,3.927 21.999,6.500 21.999 C 9.073 21.999,9.791 21.874,10.333 21.333 C 10.874 20.792,10.999 20.072,10.999 17.500 C 10.999 14.881,10.873 14.185,10.302 13.645 C 9.896 13.262,9.418 13.110,8.389 13.040 C 7.739 12.996,5.202 12.997,4.532 13.042 " fill="#1C274C" stroke="none" fill-rule="evenodd"></path></svg>