<svg width="24" height="24" viewBox="0 0 24 24" fill="none" xmlns="http://www.w3.org/2000/svg"><path d="M8.419 2.043 C 5.714 2.143,4.370 2.537,3.435 3.507 C 2.538 4.437,2.143 5.750,2.053 8.110 L 2.027 8.760 12.000 8.760 L 21.973 8.760 21.947 8.110 C 21.890 6.610,21.701 5.526,21.354 4.691 C 21.084 4.044,20.559 3.405,19.979 3.019 C 19.011 2.373,17.891 2.133,15.417 2.041 C 14.194 1.995,9.686 1.997,8.419 2.043 M6.316 5.063 C 6.461 5.106,6.581 5.179,6.697 5.295 C 7.168 5.766,7.067 6.529,6.489 6.869 C 6.328 6.964,6.256 6.980,6.000 6.980 C 5.744 6.980,5.672 6.964,5.511 6.869 C 4.933 6.529,4.832 5.766,5.303 5.295 C 5.573 5.025,5.921 4.945,6.316 5.063 M9.316 5.063 C 9.461 5.106,9.581 5.179,9.697 5.295 C 10.168 5.766,10.067 6.529,9.489 6.869 C 9.328 6.964,9.256 6.980,9.000 6.980 C 8.744 6.980,8.672 6.964,8.511 6.869 C 7.933 6.529,7.832 5.766,8.303 5.295 C 8.573 5.025,8.921 4.945,9.316 5.063 M12.316 5.063 C 12.461 5.106,12.581 5.179,12.697 5.295 C 13.168 5.766,13.067 6.529,12.489 6.869 C 12.328 6.964,12.256 6.980,12.000 6.980 C 11.744 6.980,11.672 6.964,11.511 6.869 C 10.933 6.529,10.832 5.766,11.303 5.295 C 11.573 5.025,11.921 4.945,12.316 5.063 M2.000 12.550 C 2.001 14.960,2.040 16.248,2.143 17.160 C 2.320 18.731,2.682 19.688,3.379 20.433 C 4.237 21.351,5.358 21.754,7.518 21.919 C 7.814 21.941,8.097 21.960,8.148 21.960 L 8.240 21.960 8.240 16.100 L 8.240 10.240 5.120 10.240 L 2.000 10.240 2.000 12.550 M9.760 16.120 L 9.760 22.000 12.050 22.000 C 16.100 21.999,17.618 21.896,18.779 21.541 C 20.192 21.110,21.115 20.189,21.538 18.787 C 21.891 17.615,21.999 16.102,21.999 12.270 L 22.000 10.240 15.880 10.240 L 9.760 10.240 9.760 16.120 " fill="#1C274C" stroke="none" fill-rule="evenodd"></path></svg>