<svg width="24" height="24" viewBox="0 0 24 24" fill="none" xmlns="http://www.w3.org/2000/svg"><path d="M9.082 2.282 C 7.666 2.475,6.555 3.545,6.297 4.960 C 6.216 5.406,6.225 5.943,6.316 6.140 C 6.453 6.435,6.697 6.600,7.000 6.600 C 7.201 6.600,7.353 6.541,7.494 6.407 C 7.697 6.215,7.734 6.097,7.762 5.549 C 7.787 5.069,7.798 5.020,7.933 4.746 C 8.113 4.383,8.418 4.084,8.790 3.908 C 9.043 3.788,9.088 3.780,9.500 3.780 C 9.912 3.780,9.957 3.788,10.210 3.908 C 10.586 4.086,10.887 4.382,11.071 4.755 C 11.216 5.048,11.220 5.068,11.220 5.500 C 11.220 5.932,11.216 5.952,11.071 6.245 C 10.887 6.618,10.586 6.914,10.210 7.092 L 9.940 7.220 6.357 7.240 L 2.774 7.260 2.605 7.372 C 2.311 7.566,2.192 7.873,2.281 8.204 C 2.341 8.428,2.570 8.658,2.791 8.718 C 2.912 8.750,3.951 8.759,6.490 8.750 C 9.722 8.739,10.040 8.732,10.258 8.668 C 10.891 8.480,11.289 8.259,11.713 7.860 C 12.144 7.454,12.395 7.065,12.587 6.501 C 13.177 4.768,12.111 2.823,10.320 2.365 C 9.949 2.270,9.423 2.235,9.082 2.282 M18.010 3.284 C 16.184 3.497,14.733 4.827,14.335 6.654 C 14.250 7.045,14.216 7.968,14.279 8.199 C 14.435 8.772,15.190 8.936,15.574 8.480 C 15.720 8.307,15.759 8.123,15.760 7.620 C 15.762 7.067,15.835 6.718,16.037 6.305 C 16.318 5.730,16.730 5.318,17.305 5.037 C 18.065 4.665,18.935 4.665,19.695 5.037 C 20.395 5.379,20.870 5.931,21.127 6.700 C 21.205 6.936,21.220 7.062,21.220 7.500 C 21.220 7.938,21.205 8.064,21.127 8.300 C 20.828 9.196,20.231 9.799,19.320 10.127 L 19.060 10.220 10.417 10.240 L 1.774 10.260 1.606 10.372 C 1.311 10.566,1.192 10.873,1.281 11.204 C 1.341 11.427,1.570 11.658,1.788 11.717 C 1.908 11.749,4.316 11.758,10.527 11.749 C 19.936 11.735,19.180 11.755,19.912 11.504 C 21.142 11.081,22.129 10.071,22.532 8.820 C 22.698 8.305,22.737 8.052,22.737 7.500 C 22.737 7.214,22.714 6.872,22.686 6.740 C 22.279 4.827,20.837 3.493,18.947 3.283 C 18.521 3.235,18.429 3.235,18.010 3.284 M3.811 13.279 C 3.536 13.344,3.316 13.587,3.260 13.885 C 3.197 14.220,3.450 14.624,3.781 14.715 C 3.894 14.747,6.077 14.760,11.380 14.760 C 19.649 14.761,19.094 14.743,19.695 15.037 C 20.395 15.379,20.870 15.931,21.127 16.700 C 21.205 16.936,21.220 17.062,21.220 17.500 C 21.220 17.938,21.205 18.064,21.127 18.300 C 20.871 19.067,20.394 19.622,19.700 19.961 C 19.291 20.160,18.952 20.239,18.496 20.239 C 17.297 20.241,16.277 19.494,15.878 18.320 C 15.809 18.115,15.784 17.924,15.763 17.418 C 15.733 16.687,15.699 16.587,15.409 16.384 C 15.269 16.285,15.204 16.267,15.000 16.267 C 14.796 16.267,14.731 16.285,14.591 16.384 C 14.321 16.573,14.263 16.712,14.246 17.207 C 14.169 19.437,15.562 21.222,17.740 21.686 C 17.872 21.714,18.214 21.737,18.500 21.737 C 18.786 21.737,19.128 21.714,19.260 21.686 C 20.856 21.346,22.057 20.294,22.532 18.820 C 22.698 18.305,22.737 18.052,22.737 17.500 C 22.737 17.214,22.714 16.872,22.686 16.740 C 22.279 14.827,20.837 13.493,18.947 13.283 C 18.499 13.233,4.020 13.229,3.811 13.279 " fill="#1C274C" stroke="none" fill-rule="evenodd"></path></svg>