<svg width="24" height="24" viewBox="0 0 24 24" fill="none" xmlns="http://www.w3.org/2000/svg"><path d="M4.322 3.043 C 3.722 3.162,3.187 3.698,3.042 4.324 C 2.958 4.692,3.012 5.114,3.190 5.460 C 3.235 5.548,3.935 6.379,4.746 7.308 L 6.220 8.995 12.000 8.995 L 17.780 8.995 19.254 7.308 C 20.065 6.379,20.769 5.539,20.819 5.440 C 21.258 4.564,20.840 3.487,19.913 3.107 L 19.700 3.020 12.100 3.014 C 7.852 3.011,4.421 3.024,4.322 3.043 M7.600 10.537 C 7.600 10.547,8.419 11.487,9.420 12.627 L 11.239 14.700 11.240 17.468 L 11.240 20.236 9.410 20.248 C 7.644 20.260,7.574 20.263,7.420 20.344 C 7.332 20.390,7.208 20.501,7.143 20.592 C 7.045 20.731,7.027 20.796,7.027 21.000 C 7.027 21.204,7.045 21.269,7.143 21.408 C 7.208 21.499,7.332 21.610,7.420 21.656 C 7.579 21.740,7.595 21.740,12.000 21.740 C 16.405 21.740,16.421 21.740,16.580 21.656 C 16.668 21.610,16.793 21.499,16.857 21.408 C 16.955 21.269,16.973 21.204,16.973 21.000 C 16.973 20.796,16.955 20.731,16.857 20.592 C 16.793 20.501,16.668 20.390,16.580 20.344 C 16.426 20.263,16.356 20.260,14.590 20.248 L 12.760 20.236 12.760 17.468 L 12.761 14.700 14.580 12.627 C 15.581 11.487,16.400 10.547,16.400 10.537 C 16.400 10.528,14.420 10.520,12.000 10.520 C 9.580 10.520,7.600 10.528,7.600 10.537 " fill="#1C274C" stroke="none" fill-rule="evenodd"></path></svg>