<svg width="24" height="24" viewBox="0 0 24 24" fill="none" xmlns="http://www.w3.org/2000/svg"><path d="M6.453 3.057 C 5.786 3.219,5.257 3.731,5.073 4.394 C 5.007 4.632,5.000 4.836,5.000 6.426 L 5.000 8.194 5.510 8.014 C 7.122 7.445,8.524 7.185,9.465 7.280 C 10.429 7.378,10.995 7.591,12.540 8.443 C 13.632 9.044,14.234 9.240,14.993 9.240 C 15.765 9.240,16.870 8.977,18.360 8.440 C 18.591 8.357,18.829 8.278,18.890 8.264 L 19.000 8.238 19.000 6.449 C 18.999 4.515,18.993 4.452,18.776 4.009 C 18.559 3.565,18.008 3.152,17.488 3.044 C 17.165 2.977,6.733 2.989,6.453 3.057 M8.300 8.816 C 7.748 8.907,6.974 9.113,6.171 9.380 C 5.191 9.707,5.225 9.689,5.260 9.873 C 5.304 10.113,5.555 10.752,5.767 11.168 C 6.487 12.577,7.574 13.632,9.020 14.325 C 9.623 14.613,10.283 14.809,11.090 14.939 L 11.240 14.964 11.240 17.602 L 11.240 20.240 9.642 20.240 C 8.626 20.240,7.969 20.256,7.838 20.284 C 7.080 20.447,7.080 21.553,7.838 21.716 C 8.127 21.778,15.873 21.778,16.162 21.716 C 16.920 21.553,16.920 20.447,16.162 20.284 C 16.031 20.256,15.374 20.240,14.358 20.240 L 12.760 20.240 12.760 17.602 L 12.760 14.964 12.910 14.939 C 13.763 14.802,14.394 14.609,15.060 14.283 C 16.533 13.560,17.614 12.466,18.324 10.980 C 18.507 10.596,18.740 9.967,18.710 9.937 C 18.703 9.929,18.427 10.011,18.098 10.119 C 17.769 10.227,17.248 10.379,16.940 10.456 C 14.853 10.980,13.769 10.834,11.837 9.769 C 10.385 8.968,9.926 8.800,9.120 8.777 C 8.822 8.769,8.491 8.784,8.300 8.816 " fill="#1C274C" stroke="none" fill-rule="evenodd"></path></svg>