<svg width="24" height="24" viewBox="0 0 24 24" fill="none" xmlns="http://www.w3.org/2000/svg"><path d="M13.740 2.037 C 13.419 2.077,13.225 2.143,12.956 2.304 C 12.549 2.548,12.235 2.954,12.093 3.420 C 12.023 3.649,12.020 4.034,12.020 11.980 C 12.020 19.982,12.023 20.310,12.095 20.571 C 12.267 21.196,12.779 21.711,13.420 21.907 C 13.632 21.971,13.816 21.980,15.000 21.980 C 16.184 21.980,16.368 21.971,16.580 21.907 C 17.221 21.711,17.733 21.196,17.905 20.571 C 17.977 20.310,17.980 19.982,17.980 11.980 C 17.980 4.034,17.977 3.649,17.907 3.420 C 17.716 2.795,17.220 2.294,16.600 2.099 C 16.416 2.041,16.183 2.028,15.180 2.018 C 14.520 2.012,13.872 2.020,13.740 2.037 M3.720 3.044 C 2.911 3.148,2.257 3.736,2.070 4.527 C 2.000 4.824,2.000 7.176,2.070 7.473 C 2.154 7.828,2.322 8.122,2.600 8.400 C 2.957 8.757,3.388 8.956,3.810 8.959 C 3.893 8.960,3.960 8.978,3.960 9.000 C 3.960 9.022,3.893 9.040,3.810 9.041 C 3.044 9.046,2.262 9.714,2.070 10.527 C 2.035 10.674,2.020 11.129,2.020 12.000 C 2.020 12.871,2.035 13.326,2.070 13.473 C 2.154 13.828,2.322 14.122,2.600 14.400 C 2.957 14.757,3.388 14.956,3.810 14.959 C 3.893 14.960,3.960 14.978,3.960 15.000 C 3.960 15.022,3.893 15.040,3.810 15.041 C 3.044 15.046,2.262 15.714,2.070 16.527 C 2.000 16.824,2.000 19.176,2.070 19.473 C 2.231 20.155,2.795 20.734,3.485 20.926 C 3.614 20.962,4.569 20.978,7.155 20.989 L 10.650 21.004 10.625 20.912 C 10.503 20.468,10.500 20.231,10.500 12.000 C 10.500 3.775,10.503 3.531,10.625 3.090 L 10.649 3.000 7.315 3.005 C 5.481 3.008,3.863 3.025,3.720 3.044 M19.374 3.084 C 19.497 3.533,19.500 3.754,19.500 12.000 C 19.500 20.246,19.497 20.467,19.374 20.916 L 19.347 21.013 19.844 20.986 C 20.117 20.971,20.419 20.941,20.515 20.918 C 21.175 20.764,21.768 20.157,21.930 19.473 C 22.000 19.176,22.000 16.824,21.930 16.527 C 21.846 16.172,21.678 15.878,21.400 15.600 C 21.043 15.243,20.612 15.044,20.190 15.041 C 20.108 15.040,20.040 15.022,20.040 15.000 C 20.040 14.978,20.108 14.960,20.190 14.959 C 20.956 14.954,21.738 14.286,21.930 13.473 C 22.000 13.176,22.000 10.824,21.930 10.527 C 21.846 10.172,21.678 9.878,21.400 9.600 C 21.043 9.243,20.612 9.044,20.190 9.041 C 20.108 9.040,20.040 9.022,20.040 9.000 C 20.040 8.978,20.108 8.960,20.190 8.959 C 20.956 8.954,21.738 8.286,21.930 7.473 C 22.000 7.176,22.000 4.824,21.930 4.527 C 21.768 3.843,21.175 3.236,20.515 3.082 C 20.419 3.059,20.117 3.029,19.844 3.014 L 19.347 2.987 19.374 3.084 M15.405 10.381 C 15.485 10.432,15.593 10.543,15.645 10.627 C 15.740 10.779,15.740 10.785,15.740 12.007 L 15.740 13.233 15.619 13.405 C 15.453 13.641,15.273 13.739,15.000 13.739 C 14.727 13.739,14.547 13.641,14.381 13.405 L 14.260 13.233 14.260 12.007 C 14.260 10.793,14.261 10.778,14.353 10.631 C 14.586 10.256,15.044 10.147,15.405 10.381 " fill="#1C274C" stroke="none" fill-rule="evenodd"></path></svg>