<svg width="24" height="24" viewBox="0 0 24 24" fill="none" xmlns="http://www.w3.org/2000/svg"><path d="M11.087 2.040 C 7.977 2.367,5.354 4.463,4.405 7.380 C 3.746 9.403,3.903 11.567,4.844 13.450 C 6.033 15.828,8.200 17.435,10.840 17.898 C 11.362 17.990,12.359 18.021,12.900 17.963 C 15.659 17.667,17.974 16.067,19.182 13.620 C 21.133 9.670,19.469 4.858,15.458 2.849 C 14.721 2.480,13.920 2.226,13.087 2.097 C 12.611 2.024,11.536 1.993,11.087 2.040 M13.216 6.355 C 13.555 6.547,13.694 6.978,13.524 7.312 C 13.477 7.404,13.061 7.874,12.599 8.357 L 11.758 9.235 12.989 9.247 C 14.204 9.260,14.222 9.261,14.373 9.355 C 14.613 9.504,14.733 9.719,14.733 9.998 C 14.733 10.162,14.710 10.269,14.654 10.356 C 14.580 10.474,12.999 12.157,12.024 13.155 C 11.428 13.767,11.213 13.860,10.841 13.670 C 10.468 13.479,10.304 13.070,10.457 12.710 C 10.495 12.621,10.866 12.201,11.381 11.663 L 12.242 10.764 11.011 10.752 C 9.615 10.738,9.615 10.738,9.381 10.405 C 9.219 10.175,9.214 9.841,9.370 9.612 C 9.500 9.419,12.251 6.532,12.425 6.405 C 12.659 6.235,12.969 6.215,13.216 6.355 M10.520 19.530 C 10.520 19.887,10.539 20.245,10.561 20.325 C 10.614 20.518,10.875 20.807,11.077 20.899 L 11.240 20.972 11.240 21.464 C 11.240 22.120,11.287 22.327,11.480 22.520 C 11.889 22.929,12.595 22.725,12.716 22.162 C 12.740 22.049,12.760 21.735,12.760 21.464 L 12.760 20.972 12.923 20.899 C 13.125 20.807,13.386 20.518,13.439 20.325 C 13.461 20.245,13.480 19.894,13.480 19.545 L 13.480 18.910 13.290 18.936 C 12.792 19.004,11.691 19.009,11.144 18.945 C 10.839 18.909,10.573 18.880,10.554 18.880 C 10.535 18.880,10.520 19.172,10.520 19.530 " fill="#1C274C" stroke="none" fill-rule="evenodd"></path></svg>