<svg width="24" height="24" viewBox="0 0 24 24" fill="none" xmlns="http://www.w3.org/2000/svg"><path d="M11.260 2.044 C 9.587 2.220,7.957 3.043,6.834 4.281 C 5.591 5.651,4.938 7.436,5.012 9.260 C 5.049 10.166,5.221 10.940,5.567 11.747 C 6.539 14.016,8.565 15.560,11.070 15.941 L 11.240 15.967 11.240 16.864 L 11.240 17.760 10.299 17.760 C 9.315 17.760,9.177 17.780,8.987 17.952 C 8.694 18.217,8.694 18.783,8.987 19.048 C 9.177 19.220,9.315 19.240,10.299 19.240 L 11.240 19.240 11.240 20.650 C 11.240 21.496,11.257 22.119,11.282 22.209 C 11.390 22.599,11.802 22.827,12.202 22.719 C 12.422 22.660,12.656 22.432,12.715 22.219 C 12.744 22.117,12.760 21.555,12.760 20.650 L 12.760 19.240 13.710 19.239 C 14.546 19.238,14.679 19.229,14.820 19.165 C 15.010 19.077,15.096 18.988,15.178 18.790 C 15.257 18.602,15.257 18.398,15.178 18.210 C 15.096 18.012,15.010 17.923,14.820 17.835 C 14.679 17.771,14.546 17.762,13.710 17.761 L 12.760 17.760 12.760 16.864 L 12.760 15.967 12.930 15.941 C 14.299 15.733,15.477 15.209,16.500 14.353 C 18.978 12.281,19.706 8.765,18.258 5.875 C 16.949 3.262,14.166 1.739,11.260 2.044 " fill="#1C274C" stroke="none" fill-rule="evenodd"></path></svg>