<svg width="24" height="24" viewBox="0 0 24 24" fill="none" xmlns="http://www.w3.org/2000/svg"><path d="M8.419 2.041 C 5.785 2.145,4.480 2.507,3.549 3.393 C 2.551 4.342,2.166 5.587,2.041 8.260 C 1.988 9.399,1.988 14.601,2.041 15.740 C 2.160 18.285,2.507 19.501,3.379 20.433 C 4.245 21.360,5.318 21.742,7.580 21.927 C 8.488 22.002,15.512 22.002,16.420 21.927 C 18.857 21.727,19.992 21.275,20.860 20.157 C 21.474 19.368,21.771 18.329,21.927 16.420 C 22.002 15.512,22.002 8.488,21.927 7.580 C 21.740 5.297,21.356 4.232,20.407 3.355 C 19.572 2.585,18.492 2.242,16.380 2.078 C 15.684 2.023,9.573 1.995,8.419 2.041 M4.691 8.282 C 4.774 8.305,4.901 8.376,4.973 8.439 C 5.045 8.502,5.416 9.024,5.799 9.598 C 6.181 10.172,6.506 10.628,6.522 10.611 C 6.537 10.594,6.856 10.120,7.231 9.557 C 7.605 8.995,7.968 8.487,8.037 8.428 C 8.434 8.095,9.030 8.273,9.216 8.781 C 9.264 8.913,9.275 8.923,9.277 8.839 C 9.281 8.699,9.449 8.466,9.624 8.358 C 9.729 8.293,9.835 8.266,9.999 8.264 C 10.382 8.259,10.441 8.319,11.260 9.553 C 11.656 10.150,11.989 10.638,12.000 10.638 C 12.011 10.638,12.344 10.150,12.740 9.553 C 13.559 8.319,13.618 8.259,14.001 8.264 C 14.165 8.266,14.271 8.293,14.376 8.358 C 14.551 8.466,14.719 8.699,14.723 8.839 C 14.725 8.923,14.736 8.913,14.784 8.781 C 14.972 8.267,15.578 8.092,15.972 8.439 C 16.045 8.502,16.416 9.024,16.799 9.598 C 17.181 10.172,17.506 10.628,17.522 10.611 C 17.537 10.594,17.856 10.120,18.231 9.557 C 18.605 8.995,18.968 8.487,19.037 8.428 C 19.266 8.236,19.571 8.203,19.844 8.343 C 20.005 8.425,20.193 8.663,20.223 8.822 C 20.285 9.155,20.252 9.222,19.303 10.645 L 18.400 12.000 19.303 13.355 C 20.252 14.778,20.285 14.845,20.223 15.178 C 20.172 15.452,19.797 15.757,19.509 15.759 C 19.358 15.760,19.123 15.657,18.993 15.533 C 18.934 15.477,18.576 14.965,18.196 14.394 C 17.817 13.824,17.494 13.372,17.478 13.389 C 17.463 13.406,17.144 13.879,16.770 14.440 C 16.396 15.001,16.047 15.500,15.995 15.548 C 15.873 15.660,15.635 15.760,15.491 15.759 C 15.217 15.757,14.889 15.506,14.784 15.219 C 14.734 15.083,14.725 15.075,14.723 15.164 C 14.719 15.303,14.514 15.580,14.351 15.667 C 14.167 15.764,13.817 15.760,13.640 15.659 C 13.534 15.598,13.320 15.310,12.760 14.471 C 12.353 13.861,12.011 13.362,12.000 13.362 C 11.989 13.362,11.647 13.861,11.240 14.471 C 10.680 15.310,10.466 15.598,10.360 15.659 C 10.183 15.760,9.833 15.764,9.649 15.667 C 9.486 15.580,9.281 15.303,9.277 15.164 C 9.275 15.075,9.266 15.083,9.216 15.219 C 9.111 15.506,8.783 15.757,8.509 15.759 C 8.365 15.760,8.127 15.660,8.005 15.548 C 7.953 15.500,7.604 15.001,7.230 14.440 C 6.856 13.879,6.537 13.406,6.522 13.389 C 6.506 13.372,6.183 13.824,5.804 14.394 C 5.424 14.965,5.066 15.477,5.007 15.533 C 4.877 15.657,4.642 15.760,4.491 15.759 C 4.203 15.757,3.828 15.452,3.777 15.178 C 3.715 14.845,3.748 14.778,4.697 13.355 L 5.600 12.000 4.694 10.641 C 3.880 9.419,3.787 9.262,3.770 9.086 C 3.759 8.978,3.771 8.827,3.796 8.752 C 3.854 8.575,4.067 8.369,4.265 8.299 C 4.455 8.231,4.500 8.229,4.691 8.282 M9.243 9.169 C 9.242 9.207,8.826 9.859,8.320 10.619 L 7.400 12.001 8.285 13.327 C 8.771 14.056,9.194 14.709,9.223 14.777 C 9.269 14.881,9.277 14.886,9.278 14.812 C 9.279 14.763,9.688 14.110,10.186 13.361 L 11.092 12.000 10.205 10.667 C 9.716 9.934,9.301 9.281,9.282 9.217 C 9.263 9.153,9.245 9.131,9.243 9.169 M14.722 9.188 C 14.721 9.237,14.312 9.889,13.814 10.638 L 12.908 12.000 13.814 13.362 C 14.312 14.111,14.721 14.763,14.722 14.812 C 14.723 14.886,14.731 14.881,14.777 14.777 C 14.806 14.709,15.229 14.056,15.716 13.327 L 16.601 12.000 15.716 10.673 C 15.229 9.944,14.806 9.291,14.777 9.223 C 14.731 9.119,14.723 9.114,14.722 9.188 " fill="#1C274C" stroke="none" fill-rule="evenodd"></path></svg>