<svg width="24" height="24" viewBox="0 0 24 24" fill="none" xmlns="http://www.w3.org/2000/svg"><path d="M8.000 2.042 C 6.508 2.106,5.672 2.262,4.988 2.602 C 3.979 3.104,3.418 3.963,3.186 5.360 C 3.027 6.313,3.020 6.613,3.020 12.060 C 3.020 16.872,3.026 17.395,3.091 17.957 C 3.262 19.433,3.551 20.195,4.178 20.822 C 4.754 21.398,5.492 21.705,6.675 21.861 C 7.596 21.983,8.737 22.007,12.580 21.989 C 16.381 21.971,16.739 21.959,17.620 21.816 C 19.548 21.505,20.495 20.563,20.814 18.640 C 20.972 17.688,20.980 17.384,20.980 12.000 C 20.980 6.616,20.972 6.312,20.814 5.360 C 20.495 3.434,19.530 2.481,17.599 2.183 C 16.834 2.065,16.278 2.038,14.130 2.013 L 12.000 1.988 12.000 2.994 L 12.000 4.000 10.981 4.000 C 10.126 4.000,9.935 3.989,9.796 3.934 C 9.542 3.832,9.520 3.743,9.520 2.801 L 9.520 2.000 9.110 2.006 C 8.885 2.010,8.385 2.026,8.000 2.042 M14.248 4.076 C 14.442 4.175,14.480 4.328,14.480 5.000 C 14.480 6.013,14.500 6.000,13.019 6.000 L 12.000 6.000 12.000 6.998 L 12.000 7.995 13.070 8.008 C 13.883 8.017,14.166 8.034,14.248 8.076 C 14.442 8.175,14.480 8.328,14.480 9.000 C 14.480 9.989,14.465 10.001,13.249 9.998 C 12.385 9.995,12.238 9.968,12.104 9.787 C 12.026 9.683,12.019 9.612,12.007 8.837 L 11.993 8.000 10.977 8.000 C 9.498 8.000,9.520 8.015,9.520 7.007 C 9.520 6.675,9.540 6.356,9.564 6.285 C 9.650 6.039,9.737 6.021,10.930 6.008 L 12.000 5.995 12.000 4.995 L 12.000 3.995 13.070 4.008 C 13.883 4.017,14.166 4.034,14.248 4.076 M13.883 12.046 C 14.084 12.106,14.303 12.291,14.401 12.482 C 14.499 12.674,14.508 13.215,14.420 13.590 C 14.212 14.473,13.517 15.180,12.620 15.421 C 12.307 15.505,11.693 15.505,11.380 15.421 C 10.483 15.180,9.788 14.473,9.580 13.590 C 9.492 13.215,9.501 12.674,9.599 12.482 C 9.691 12.302,9.929 12.093,10.100 12.042 C 10.286 11.988,13.699 11.991,13.883 12.046 " fill="#1C274C" stroke="none" fill-rule="evenodd"></path></svg>