<svg width="24" height="24" viewBox="0 0 24 24" fill="none" xmlns="http://www.w3.org/2000/svg"><path d="M11.320 1.281 C 7.041 1.525,3.252 4.409,1.843 8.497 C 1.180 10.418,1.082 12.560,1.564 14.550 C 2.505 18.428,5.572 21.495,9.450 22.436 C 11.106 22.837,12.894 22.837,14.550 22.436 C 18.428 21.495,21.495 18.428,22.436 14.550 C 22.837 12.894,22.837 11.106,22.436 9.450 C 21.425 5.282,17.985 2.095,13.742 1.398 C 13.334 1.331,12.074 1.229,11.880 1.247 C 11.847 1.250,11.595 1.265,11.320 1.281 M13.146 2.822 C 14.201 2.960,15.125 3.237,16.060 3.696 C 18.877 5.079,20.768 7.722,21.178 10.854 C 21.301 11.786,21.244 13.026,21.034 13.998 C 20.745 15.343,20.003 16.855,19.121 17.900 C 18.247 18.935,17.240 19.726,16.060 20.304 C 14.761 20.940,13.462 21.240,12.000 21.240 C 10.538 21.240,9.236 20.940,7.940 20.304 C 5.123 18.921,3.232 16.278,2.822 13.146 C 2.699 12.214,2.756 10.974,2.966 10.002 C 3.177 9.020,3.703 7.775,4.268 6.920 C 5.750 4.677,8.131 3.188,10.820 2.823 C 11.380 2.746,12.569 2.746,13.146 2.822 M11.660 4.278 C 10.776 4.385,10.027 4.901,9.568 5.720 C 9.168 6.434,9.168 7.566,9.568 8.280 C 10.094 9.219,10.953 9.731,12.000 9.731 C 13.047 9.731,13.906 9.219,14.432 8.280 C 14.832 7.566,14.832 6.434,14.432 5.720 C 13.857 4.694,12.796 4.142,11.660 4.278 M12.454 5.841 C 12.744 5.950,13.050 6.256,13.159 6.546 C 13.467 7.369,12.871 8.240,12.000 8.240 C 11.492 8.240,11.014 7.913,10.837 7.445 C 10.728 7.157,10.743 6.704,10.870 6.458 C 11.019 6.169,11.349 5.886,11.640 5.797 C 11.838 5.737,12.232 5.758,12.454 5.841 M5.785 9.288 C 5.424 9.387,5.190 9.807,5.286 10.186 C 5.367 10.507,5.531 10.629,6.263 10.907 C 7.934 11.544,9.815 12.050,10.990 12.180 L 11.240 12.208 11.240 12.994 C 11.239 13.813,11.213 13.998,11.046 14.375 C 10.999 14.481,10.364 15.497,9.635 16.631 C 8.805 17.921,8.295 18.751,8.274 18.849 C 8.208 19.140,8.364 19.498,8.613 19.627 C 8.905 19.778,9.205 19.767,9.445 19.596 C 9.503 19.555,10.095 18.675,10.760 17.640 C 11.424 16.606,11.983 15.760,12.000 15.760 C 12.017 15.760,12.576 16.606,13.240 17.640 C 13.905 18.675,14.497 19.555,14.555 19.596 C 14.795 19.767,15.095 19.778,15.387 19.627 C 15.645 19.493,15.798 19.129,15.719 18.836 C 15.693 18.741,15.121 17.811,14.371 16.646 C 13.655 15.532,13.024 14.524,12.969 14.406 C 12.788 14.014,12.761 13.830,12.760 12.994 L 12.760 12.208 13.010 12.180 C 14.185 12.050,16.066 11.544,17.737 10.907 C 18.242 10.715,18.406 10.634,18.522 10.518 C 18.923 10.117,18.734 9.424,18.186 9.286 C 17.959 9.229,17.932 9.235,17.180 9.522 C 15.880 10.017,14.444 10.430,13.337 10.626 C 12.835 10.715,12.623 10.732,12.000 10.732 C 11.377 10.732,11.165 10.715,10.663 10.626 C 9.551 10.429,8.115 10.016,6.808 9.517 C 6.119 9.254,6.005 9.228,5.785 9.288 " stroke="none" fill-rule="evenodd" fill="black"></path></svg>