<svg width="24" height="24" viewBox="0 0 24 24" fill="none" xmlns="http://www.w3.org/2000/svg"><path d="M4.100 3.280 C 3.431 3.329,3.056 3.471,2.756 3.788 C 2.545 4.011,2.449 4.194,2.357 4.546 C 2.285 4.820,2.272 5.026,2.252 6.160 L 2.229 7.460 2.033 7.720 C 1.769 8.071,1.536 8.552,1.443 8.940 C 1.274 9.641,1.262 9.917,1.264 13.140 C 1.267 16.334,1.292 17.008,1.437 17.751 C 1.750 19.356,2.644 20.250,4.251 20.564 C 5.103 20.730,5.534 20.740,12.000 20.740 C 18.466 20.740,18.897 20.730,19.749 20.564 C 21.352 20.251,22.232 19.376,22.557 17.772 C 22.706 17.035,22.735 16.294,22.736 13.100 C 22.738 9.918,22.725 9.630,22.556 8.940 C 22.438 8.455,22.198 7.986,21.879 7.616 L 21.773 7.492 21.749 6.176 C 21.728 5.036,21.714 4.818,21.644 4.550 C 21.471 3.886,21.120 3.533,20.454 3.355 C 20.170 3.279,20.033 3.271,19.000 3.271 C 17.967 3.271,17.830 3.279,17.546 3.355 C 17.068 3.483,16.747 3.710,16.536 4.070 C 16.405 4.294,16.280 4.793,16.280 5.096 C 16.279 5.230,16.268 5.435,16.254 5.551 L 16.229 5.762 16.070 5.519 C 15.688 4.934,15.110 4.520,14.420 4.335 C 14.163 4.266,13.965 4.260,12.000 4.260 C 10.035 4.260,9.837 4.266,9.580 4.335 C 8.891 4.519,8.310 4.935,7.935 5.511 L 7.771 5.762 7.746 5.576 C 7.732 5.473,7.720 5.268,7.720 5.121 C 7.720 4.807,7.598 4.293,7.474 4.086 C 7.250 3.710,6.930 3.480,6.464 3.361 C 6.113 3.271,4.811 3.226,4.100 3.280 M6.168 4.832 C 6.205 4.869,6.224 5.072,6.233 5.556 L 6.245 6.229 6.118 6.254 C 6.047 6.269,5.762 6.280,5.484 6.280 C 4.860 6.280,4.264 6.347,3.830 6.466 C 3.765 6.484,3.760 6.431,3.760 5.745 C 3.760 5.338,3.777 4.960,3.798 4.906 C 3.819 4.851,3.877 4.798,3.928 4.787 C 3.979 4.777,4.492 4.771,5.068 4.774 C 5.867 4.779,6.128 4.792,6.168 4.832 M20.168 4.832 C 20.206 4.870,20.223 5.095,20.232 5.685 C 20.244 6.443,20.241 6.486,20.172 6.467 C 19.739 6.347,19.142 6.280,18.516 6.280 C 18.238 6.280,17.954 6.269,17.885 6.255 L 17.760 6.230 17.760 5.618 C 17.760 4.952,17.787 4.816,17.928 4.787 C 17.979 4.777,18.492 4.771,19.068 4.774 C 19.868 4.779,20.128 4.792,20.168 4.832 M14.312 5.872 C 14.572 6.011,14.781 6.245,14.955 6.591 C 15.247 7.171,15.558 7.476,16.031 7.648 C 16.241 7.724,16.384 7.733,17.760 7.760 C 19.385 7.792,19.635 7.821,20.072 8.027 C 20.374 8.170,20.830 8.627,20.973 8.930 C 21.221 9.453,21.220 9.437,21.220 13.240 C 21.220 16.785,21.209 17.077,21.059 17.660 C 20.971 18.001,20.793 18.363,20.620 18.555 C 20.351 18.853,19.806 19.068,19.060 19.170 C 18.539 19.242,5.461 19.242,4.940 19.170 C 4.236 19.073,3.748 18.894,3.445 18.620 C 3.257 18.450,3.032 18.023,2.940 17.660 C 2.790 17.071,2.780 16.781,2.780 13.220 C 2.780 9.398,2.777 9.458,3.024 8.935 C 3.170 8.627,3.624 8.171,3.928 8.027 C 4.365 7.821,4.615 7.792,6.240 7.760 C 7.616 7.733,7.759 7.724,7.969 7.648 C 8.434 7.480,8.753 7.171,9.029 6.622 C 9.208 6.266,9.322 6.117,9.519 5.981 C 9.839 5.759,9.810 5.761,12.060 5.771 L 14.140 5.780 14.312 5.872 M16.420 11.260 C 16.398 11.267,16.331 11.284,16.271 11.297 C 16.124 11.329,15.881 11.548,15.814 11.708 C 15.779 11.791,15.760 12.002,15.760 12.299 L 15.760 12.760 15.303 12.760 C 14.803 12.760,14.678 12.790,14.506 12.953 C 14.339 13.111,14.269 13.273,14.269 13.500 C 14.269 13.727,14.339 13.889,14.506 14.047 C 14.678 14.210,14.803 14.240,15.303 14.240 L 15.760 14.240 15.760 14.697 C 15.760 15.197,15.790 15.322,15.953 15.494 C 16.111 15.661,16.273 15.731,16.500 15.731 C 16.727 15.731,16.889 15.661,17.047 15.494 C 17.210 15.322,17.240 15.197,17.240 14.697 L 17.240 14.240 17.697 14.240 C 18.197 14.240,18.322 14.210,18.494 14.047 C 18.661 13.889,18.731 13.727,18.731 13.500 C 18.731 13.273,18.661 13.111,18.494 12.953 C 18.322 12.790,18.197 12.760,17.697 12.760 L 17.240 12.760 17.240 12.303 C 17.240 12.051,17.221 11.795,17.197 11.733 C 17.146 11.597,16.977 11.412,16.840 11.342 C 16.732 11.287,16.485 11.238,16.420 11.260 M5.720 12.805 C 5.458 12.909,5.269 13.200,5.269 13.500 C 5.269 13.807,5.460 14.095,5.733 14.197 C 5.806 14.225,6.428 14.240,7.500 14.240 C 8.572 14.240,9.194 14.225,9.267 14.197 C 9.540 14.095,9.731 13.807,9.731 13.500 C 9.731 13.193,9.540 12.905,9.267 12.803 C 9.120 12.747,5.861 12.749,5.720 12.805 " stroke="none" fill-rule="evenodd" fill="black"></path></svg>