<svg width="24" height="24" viewBox="0 0 24 24" fill="none" xmlns="http://www.w3.org/2000/svg"><path d="M11.815 5.277 C 11.638 5.321,11.461 5.456,11.353 5.631 L 11.260 5.780 11.249 8.509 L 11.237 11.237 8.506 11.249 L 5.774 11.260 5.612 11.367 C 5.372 11.526,5.267 11.721,5.267 12.007 C 5.267 12.203,5.286 12.270,5.383 12.408 C 5.447 12.499,5.572 12.610,5.660 12.656 C 5.817 12.738,5.870 12.740,8.529 12.751 L 11.237 12.763 11.249 15.491 L 11.260 18.220 11.353 18.369 C 11.710 18.943,12.576 18.812,12.716 18.162 C 12.746 18.024,12.760 17.104,12.760 15.358 L 12.760 12.760 15.358 12.760 C 17.104 12.760,18.024 12.746,18.162 12.716 C 18.904 12.557,18.924 11.471,18.189 11.286 C 18.058 11.254,17.237 11.240,15.382 11.240 L 12.760 11.240 12.759 8.630 C 12.758 6.982,12.743 5.954,12.717 5.841 C 12.623 5.432,12.215 5.177,11.815 5.277 " stroke="none" fill-rule="evenodd" fill="black"></path></svg>