<svg width="24" height="24" viewBox="0 0 24 24" fill="none" xmlns="http://www.w3.org/2000/svg"><path d="M11.320 1.281 C 7.041 1.525,3.252 4.409,1.843 8.497 C 1.180 10.418,1.082 12.560,1.564 14.550 C 2.505 18.428,5.572 21.495,9.450 22.436 C 11.106 22.837,12.894 22.837,14.550 22.436 C 18.428 21.495,21.495 18.428,22.436 14.550 C 22.837 12.894,22.837 11.106,22.436 9.450 C 21.425 5.282,17.985 2.095,13.742 1.398 C 13.334 1.331,12.074 1.229,11.880 1.247 C 11.847 1.250,11.595 1.265,11.320 1.281 M13.146 2.822 C 14.201 2.960,15.125 3.237,16.060 3.696 C 18.877 5.079,20.768 7.722,21.178 10.854 C 21.301 11.786,21.244 13.026,21.034 13.998 C 20.745 15.343,20.003 16.855,19.121 17.900 C 18.247 18.935,17.240 19.726,16.060 20.304 C 14.761 20.940,13.462 21.240,12.000 21.240 C 10.538 21.240,9.236 20.940,7.940 20.304 C 5.123 18.921,3.232 16.278,2.822 13.146 C 2.699 12.214,2.756 10.974,2.966 10.002 C 3.177 9.020,3.703 7.775,4.268 6.920 C 5.750 4.677,8.131 3.188,10.820 2.823 C 11.380 2.746,12.569 2.746,13.146 2.822 M11.815 8.277 C 11.638 8.321,11.461 8.456,11.353 8.631 C 11.262 8.777,11.260 8.804,11.247 10.007 L 11.235 11.235 10.004 11.247 L 8.774 11.260 8.612 11.367 C 8.372 11.526,8.267 11.721,8.267 12.007 C 8.267 12.203,8.286 12.270,8.383 12.408 C 8.610 12.729,8.656 12.738,10.027 12.753 L 11.235 12.765 11.247 13.993 C 11.260 15.196,11.262 15.223,11.353 15.369 C 11.710 15.943,12.576 15.812,12.716 15.162 C 12.742 15.040,12.760 14.509,12.760 13.858 L 12.760 12.760 13.858 12.760 C 15.144 12.760,15.303 12.737,15.520 12.520 C 15.918 12.122,15.730 11.423,15.189 11.286 C 15.071 11.257,14.600 11.240,13.882 11.240 L 12.760 11.240 12.759 10.130 C 12.758 8.954,12.734 8.738,12.580 8.536 C 12.421 8.327,12.078 8.211,11.815 8.277 " stroke="none" fill-rule="evenodd" fill="black"></path></svg>