<svg width="24" height="24" viewBox="0 0 24 24" fill="none" xmlns="http://www.w3.org/2000/svg"><path d="M5.705 1.283 C 4.541 1.384,3.540 1.855,2.697 2.697 C 1.743 3.652,1.275 4.784,1.275 6.140 C 1.275 6.939,1.413 7.565,1.743 8.260 C 2.044 8.896,2.231 9.118,3.695 10.590 L 5.097 12.000 3.695 13.410 C 2.231 14.882,2.044 15.104,1.743 15.740 C 1.413 16.435,1.275 17.061,1.275 17.860 C 1.275 19.216,1.743 20.348,2.697 21.303 C 3.652 22.257,4.784 22.725,6.140 22.725 C 6.939 22.725,7.565 22.587,8.260 22.257 C 8.896 21.956,9.118 21.769,10.590 20.305 L 12.000 18.903 13.410 20.305 C 14.882 21.769,15.104 21.956,15.740 22.257 C 16.435 22.587,17.061 22.725,17.860 22.725 C 19.216 22.725,20.348 22.257,21.303 21.303 C 22.257 20.348,22.725 19.216,22.725 17.860 C 22.725 17.061,22.587 16.435,22.257 15.740 C 21.956 15.104,21.769 14.882,20.305 13.410 L 18.903 12.000 20.305 10.590 C 21.769 9.118,21.956 8.896,22.257 8.260 C 22.587 7.565,22.725 6.939,22.725 6.140 C 22.725 4.783,22.260 3.659,21.301 2.697 C 20.351 1.744,19.217 1.275,17.860 1.275 C 17.061 1.275,16.435 1.413,15.740 1.743 C 15.104 2.044,14.882 2.231,13.410 3.695 L 12.000 5.097 10.590 3.695 C 9.118 2.231,8.896 2.044,8.260 1.743 C 7.466 1.366,6.582 1.207,5.705 1.283 M7.040 2.861 C 7.377 2.964,7.713 3.113,7.958 3.267 C 8.276 3.468,20.462 15.646,20.698 16.000 C 20.883 16.277,21.027 16.591,21.146 16.980 C 21.204 17.170,21.219 17.353,21.220 17.860 C 21.220 18.576,21.166 18.827,20.894 19.379 C 20.589 19.995,19.995 20.589,19.380 20.893 C 18.889 21.135,18.599 21.206,18.000 21.228 C 17.200 21.258,16.596 21.098,16.003 20.701 C 15.638 20.456,3.468 8.276,3.262 7.950 C 2.891 7.360,2.743 6.774,2.772 6.000 C 2.794 5.401,2.865 5.111,3.107 4.620 C 3.411 4.004,4.007 3.409,4.620 3.108 C 4.939 2.952,5.236 2.849,5.511 2.799 C 5.815 2.743,6.786 2.782,7.040 2.861 M18.820 2.880 C 19.952 3.239,20.795 4.102,21.147 5.260 C 21.251 5.606,21.251 6.677,21.146 7.020 C 20.891 7.852,20.759 8.026,19.192 9.590 L 17.860 10.920 15.470 8.530 L 13.079 6.139 14.450 4.774 C 15.288 3.938,15.909 3.352,16.050 3.263 C 16.326 3.088,16.802 2.893,17.136 2.817 C 17.515 2.730,18.460 2.766,18.820 2.880 M8.528 8.045 C 8.456 8.066,8.327 8.153,8.241 8.239 C 7.850 8.630,7.954 9.230,8.457 9.488 C 8.577 9.550,8.668 9.565,8.843 9.552 C 9.251 9.522,9.522 9.251,9.552 8.843 C 9.593 8.275,9.090 7.883,8.528 8.045 M11.360 8.966 C 10.524 9.209,10.680 10.480,11.545 10.480 C 11.904 10.480,12.139 10.334,12.284 10.020 C 12.386 9.799,12.378 9.612,12.256 9.367 C 12.093 9.040,11.705 8.866,11.360 8.966 M9.375 10.877 C 8.803 11.137,8.798 11.972,9.367 12.256 C 9.612 12.378,9.799 12.386,10.020 12.284 C 10.334 12.139,10.480 11.904,10.480 11.545 C 10.480 10.994,9.896 10.640,9.375 10.877 M12.180 11.796 C 11.559 12.082,11.577 12.954,12.209 13.218 C 12.593 13.378,13.027 13.205,13.204 12.820 C 13.503 12.174,12.826 11.497,12.180 11.796 M14.980 12.716 C 14.666 12.861,14.520 13.096,14.520 13.455 C 14.520 13.866,14.863 14.201,15.283 14.199 C 16.097 14.195,16.359 13.106,15.633 12.744 C 15.388 12.622,15.201 12.614,14.980 12.716 M9.590 19.192 C 8.187 20.598,7.962 20.786,7.423 21.001 C 6.921 21.202,6.617 21.251,6.000 21.228 C 5.401 21.206,5.111 21.135,4.620 20.893 C 4.005 20.589,3.411 19.995,3.107 19.380 C 2.865 18.889,2.794 18.599,2.772 18.000 C 2.743 17.226,2.891 16.638,3.263 16.050 C 3.352 15.909,3.938 15.288,4.774 14.450 L 6.139 13.079 8.530 15.470 L 10.920 17.860 9.590 19.192 M13.100 14.577 C 12.852 14.688,12.640 15.016,12.640 15.291 C 12.640 15.364,12.687 15.518,12.744 15.633 C 12.964 16.074,13.512 16.195,13.914 15.891 C 13.988 15.835,14.082 15.715,14.123 15.625 C 14.363 15.097,14.005 14.518,13.442 14.522 C 13.320 14.522,13.166 14.547,13.100 14.577 M15.900 15.496 C 15.834 15.525,15.728 15.601,15.664 15.664 C 15.145 16.183,15.588 17.084,16.314 16.984 C 16.924 16.901,17.204 16.183,16.808 15.713 C 16.605 15.472,16.184 15.371,15.900 15.496 " stroke="none" fill-rule="evenodd" fill="black"></path></svg>