<svg width="24" height="24" viewBox="0 0 24 24" fill="none" xmlns="http://www.w3.org/2000/svg"><path d="M6.920 1.282 C 4.485 1.464,2.352 3.131,1.580 5.454 C 1.406 5.980,1.325 6.386,1.283 6.946 C 1.171 8.440,1.574 9.839,2.472 11.080 C 2.706 11.403,12.207 20.950,12.680 21.337 C 13.675 22.152,14.852 22.621,16.146 22.717 C 17.933 22.851,19.668 22.206,20.937 20.937 C 22.208 19.666,22.847 17.942,22.716 16.139 C 22.631 14.963,22.237 13.895,21.529 12.920 C 21.294 12.597,11.790 3.047,11.320 2.663 C 10.391 1.902,9.172 1.393,8.060 1.301 C 7.498 1.254,7.332 1.251,6.920 1.282 M8.216 2.820 C 8.785 2.920,9.330 3.131,9.894 3.470 L 10.129 3.611 6.874 6.866 C 3.630 10.110,3.620 10.120,3.552 10.030 C 3.415 9.849,3.114 9.237,2.999 8.903 C 2.808 8.353,2.748 7.910,2.772 7.240 C 2.787 6.798,2.816 6.567,2.894 6.268 C 3.360 4.482,4.796 3.149,6.609 2.820 C 7.010 2.747,7.798 2.748,8.216 2.820 M15.310 8.730 L 19.360 12.780 16.070 16.070 L 12.780 19.360 8.720 15.300 L 4.660 11.240 7.940 7.960 C 9.744 6.156,11.229 4.680,11.240 4.680 C 11.251 4.680,13.083 6.503,15.310 8.730 M11.752 8.215 C 11.269 8.347,10.956 8.802,11.014 9.288 C 11.113 10.133,12.215 10.468,12.753 9.816 C 13.367 9.071,12.674 7.962,11.752 8.215 M8.869 11.055 C 8.505 11.191,8.276 11.451,8.201 11.815 C 8.123 12.193,8.296 12.609,8.618 12.818 C 9.146 13.160,9.806 12.980,10.065 12.422 C 10.297 11.924,10.093 11.355,9.589 11.094 C 9.419 11.006,9.053 10.986,8.869 11.055 M14.505 11.056 C 14.115 11.202,13.840 11.591,13.840 12.000 C 13.840 12.581,14.361 13.053,14.927 12.987 C 15.913 12.870,16.147 11.562,15.263 11.112 C 15.059 11.007,14.706 10.982,14.505 11.056 M11.557 13.950 C 11.182 14.140,10.966 14.528,11.013 14.927 C 11.129 15.909,12.438 16.147,12.886 15.268 C 13.314 14.429,12.400 13.523,11.557 13.950 M20.695 14.400 C 20.901 14.789,21.044 15.169,21.148 15.600 C 21.204 15.836,21.219 16.055,21.217 16.620 C 21.214 17.265,21.203 17.381,21.109 17.732 C 20.735 19.125,19.760 20.282,18.481 20.846 C 17.906 21.100,17.434 21.205,16.760 21.228 C 15.747 21.264,14.999 21.068,14.106 20.530 L 13.871 20.389 17.126 17.134 C 20.370 13.890,20.380 13.880,20.448 13.970 C 20.485 14.020,20.597 14.213,20.695 14.400 " stroke="none" fill-rule="evenodd" fill="black"></path></svg>