<svg width="24" height="24" viewBox="0 0 24 24" fill="none" xmlns="http://www.w3.org/2000/svg"><path d="M7.260 1.266 C 5.291 1.381,3.568 2.336,2.412 3.953 C 1.843 4.748,1.484 5.654,1.314 6.720 C 1.270 6.996,1.260 8.278,1.260 13.480 C 1.260 19.426,1.265 19.923,1.329 20.211 C 1.593 21.394,2.605 22.412,3.767 22.663 C 4.146 22.745,4.854 22.745,5.233 22.663 C 6.173 22.460,7.034 21.750,7.461 20.826 C 7.744 20.213,7.732 20.424,7.749 15.941 C 7.762 12.371,7.771 11.894,7.826 11.834 C 7.866 11.789,7.978 11.757,8.154 11.741 C 8.857 11.676,9.271 11.559,9.792 11.279 C 10.751 10.761,11.410 9.881,11.666 8.775 C 11.749 8.415,11.790 5.775,11.724 5.053 C 11.653 4.274,11.454 3.693,11.048 3.080 C 10.508 2.266,9.672 1.664,8.713 1.401 C 8.440 1.326,7.730 1.234,7.540 1.248 C 7.496 1.252,7.370 1.260,7.260 1.266 M8.275 2.821 C 8.697 2.921,9.138 3.176,9.486 3.522 C 9.735 3.771,9.825 3.897,9.973 4.204 C 10.072 4.411,10.173 4.675,10.197 4.792 C 10.224 4.924,10.240 5.631,10.240 6.674 C 10.240 8.515,10.231 8.600,9.990 9.054 C 9.740 9.521,9.269 9.933,8.771 10.120 C 8.649 10.166,8.362 10.220,8.125 10.242 C 7.578 10.293,7.390 10.342,7.120 10.503 C 6.756 10.721,6.469 11.073,6.329 11.474 C 6.272 11.638,6.262 12.031,6.250 14.790 L 6.236 17.920 4.498 17.920 L 2.760 17.920 2.760 12.525 C 2.760 7.923,2.769 7.080,2.820 6.788 C 3.037 5.541,3.733 4.416,4.748 3.671 C 5.280 3.281,6.072 2.946,6.757 2.822 C 7.173 2.747,7.957 2.746,8.275 2.821 M7.727 4.206 C 7.538 4.260,7.255 4.557,7.201 4.757 C 7.171 4.868,7.160 5.463,7.168 6.590 L 7.180 8.260 7.274 8.411 C 7.398 8.611,7.579 8.744,7.811 8.806 C 8.163 8.900,8.559 8.717,8.737 8.378 C 8.816 8.227,8.821 8.149,8.832 6.580 C 8.845 4.724,8.840 4.678,8.582 4.421 C 8.348 4.187,8.051 4.112,7.727 4.206 M13.700 4.424 C 13.403 4.587,13.269 4.798,13.269 5.100 C 13.269 5.524,13.473 5.726,14.063 5.886 C 14.837 6.097,15.411 6.422,15.958 6.960 C 16.582 7.572,16.960 8.237,17.143 9.042 C 17.297 9.717,17.926 9.963,18.400 9.535 C 18.677 9.285,18.700 9.021,18.502 8.347 C 17.968 6.526,16.479 5.036,14.653 4.497 C 14.194 4.362,13.860 4.336,13.700 4.424 M15.200 10.267 C 12.877 10.377,10.778 11.799,9.824 13.910 C 9.431 14.782,9.275 15.517,9.275 16.500 C 9.275 17.483,9.431 18.218,9.824 19.090 C 10.589 20.783,12.127 22.074,13.939 22.545 C 14.879 22.789,16.121 22.789,17.061 22.545 C 19.246 21.978,20.978 20.246,21.545 18.061 C 21.789 17.121,21.789 15.879,21.545 14.939 C 20.914 12.507,18.834 10.650,16.380 10.326 C 16.010 10.277,15.516 10.252,15.200 10.267 M16.305 11.822 C 18.017 12.121,19.448 13.346,19.997 14.983 C 20.391 16.160,20.301 17.523,19.756 18.609 C 19.322 19.475,18.545 20.267,17.695 20.710 C 16.097 21.541,14.115 21.386,12.681 20.317 C 11.462 19.408,10.760 18.013,10.760 16.500 C 10.760 15.255,11.205 14.139,12.059 13.244 C 12.778 12.490,13.670 12.004,14.664 11.824 C 15.092 11.747,15.869 11.746,16.305 11.822 M13.815 13.277 C 13.638 13.321,13.461 13.456,13.353 13.631 L 13.260 13.780 13.260 16.507 L 13.260 19.233 13.380 19.403 C 13.446 19.496,13.572 19.610,13.660 19.656 C 13.813 19.736,13.888 19.741,15.373 19.752 C 17.166 19.766,17.287 19.753,17.519 19.521 C 17.918 19.122,17.731 18.423,17.189 18.286 C 17.071 18.257,16.600 18.240,15.882 18.240 L 14.760 18.240 14.759 16.130 C 14.758 14.825,14.742 13.952,14.717 13.841 C 14.623 13.432,14.215 13.177,13.815 13.277 M6.231 19.682 C 6.189 20.258,5.782 20.821,5.210 21.092 C 4.957 21.212,4.912 21.220,4.500 21.220 C 4.088 21.220,4.043 21.212,3.790 21.092 C 3.218 20.821,2.811 20.258,2.769 19.682 L 2.749 19.400 4.500 19.400 L 6.251 19.400 6.231 19.682 " stroke="none" fill-rule="evenodd" fill="black"></path></svg>