<svg width="24" height="24" viewBox="0 0 24 24" fill="none" xmlns="http://www.w3.org/2000/svg"><path d="M18.140 1.264 C 17.431 1.335,16.953 1.444,16.381 1.665 C 15.363 2.058,14.370 2.854,13.760 3.766 C 13.326 4.415,13.086 4.964,12.889 5.760 L 12.784 6.180 12.770 9.880 C 12.759 12.421,12.768 13.625,12.797 13.725 C 12.922 14.149,13.404 14.356,13.820 14.165 C 14.010 14.077,14.096 13.988,14.178 13.790 C 14.232 13.661,14.240 13.207,14.241 10.211 C 14.242 8.235,14.259 6.653,14.281 6.480 C 14.375 5.756,14.671 5.010,15.075 4.478 C 15.341 4.129,15.835 3.662,16.180 3.436 C 16.940 2.936,17.595 2.760,18.694 2.760 C 19.407 2.760,19.669 2.808,20.060 3.012 C 20.367 3.172,20.822 3.627,20.987 3.940 C 21.234 4.410,21.246 4.516,21.231 6.254 C 21.218 7.763,21.214 7.829,21.128 8.060 C 20.927 8.596,20.492 9.072,19.972 9.325 C 19.705 9.455,19.576 9.492,19.272 9.525 C 18.372 9.621,18.145 9.705,17.769 10.079 C 17.492 10.355,17.336 10.678,17.278 11.095 C 17.212 11.570,17.274 11.828,17.506 12.047 C 17.783 12.309,18.217 12.309,18.494 12.047 C 18.663 11.887,18.723 11.744,18.749 11.434 C 18.778 11.087,18.816 11.058,19.280 11.027 C 20.584 10.939,21.789 10.123,22.361 8.940 C 22.710 8.219,22.776 7.678,22.750 5.788 C 22.732 4.516,22.727 4.444,22.628 4.068 C 22.383 3.147,21.842 2.393,21.044 1.863 C 20.421 1.448,19.836 1.283,18.920 1.262 C 18.579 1.254,18.228 1.255,18.140 1.264 M4.555 3.279 C 3.445 3.420,2.486 4.018,1.863 4.956 C 1.625 5.313,1.495 5.609,1.370 6.080 C 1.273 6.442,1.267 6.524,1.250 7.788 C 1.224 9.678,1.290 10.219,1.639 10.940 C 2.211 12.123,3.416 12.939,4.720 13.027 C 4.907 13.039,5.100 13.074,5.148 13.104 L 5.236 13.159 5.249 16.690 C 5.263 20.159,5.264 20.225,5.349 20.526 C 5.825 22.222,7.586 23.144,9.253 22.569 C 9.763 22.393,10.315 21.985,10.674 21.519 C 10.825 21.323,11.035 20.896,11.127 20.600 L 11.220 20.300 11.220 14.280 L 11.220 8.260 11.127 7.845 C 10.597 5.476,8.810 3.751,6.460 3.340 C 6.035 3.266,4.932 3.230,4.555 3.279 M19.420 4.260 C 19.398 4.267,19.331 4.284,19.271 4.297 C 19.124 4.329,18.881 4.548,18.814 4.708 C 18.772 4.809,18.760 5.152,18.761 6.249 C 18.762 7.532,18.768 7.674,18.835 7.820 C 18.923 8.010,19.012 8.096,19.210 8.178 C 19.470 8.287,19.807 8.232,20.014 8.048 C 20.057 8.011,20.124 7.908,20.165 7.820 C 20.232 7.675,20.238 7.532,20.239 6.253 C 20.240 5.353,20.225 4.805,20.197 4.733 C 20.146 4.597,19.977 4.412,19.840 4.342 C 19.732 4.287,19.485 4.238,19.420 4.260 M6.268 4.818 C 7.159 4.975,7.926 5.396,8.585 6.090 C 9.235 6.774,9.597 7.537,9.719 8.480 C 9.742 8.659,9.758 10.694,9.759 13.510 L 9.760 18.240 8.260 18.240 L 6.760 18.240 6.759 15.790 C 6.759 14.361,6.742 13.223,6.718 13.060 C 6.663 12.677,6.499 12.346,6.231 12.079 C 5.855 11.705,5.628 11.621,4.728 11.525 C 4.424 11.492,4.295 11.455,4.028 11.325 C 3.471 11.054,3.041 10.562,2.859 9.988 C 2.761 9.679,2.760 9.661,2.760 8.174 C 2.760 6.516,2.773 6.397,3.012 5.940 C 3.168 5.641,3.626 5.178,3.920 5.021 C 4.313 4.811,4.552 4.766,5.280 4.763 C 5.690 4.761,6.064 4.782,6.268 4.818 M4.420 6.260 C 4.398 6.267,4.331 6.284,4.271 6.297 C 4.124 6.329,3.881 6.548,3.814 6.708 C 3.772 6.809,3.760 7.152,3.761 8.249 C 3.762 9.532,3.768 9.674,3.835 9.820 C 3.923 10.010,4.012 10.096,4.210 10.178 C 4.470 10.287,4.807 10.232,5.014 10.048 C 5.057 10.011,5.124 9.908,5.165 9.820 C 5.232 9.675,5.238 9.532,5.239 8.253 C 5.240 7.353,5.225 6.805,5.197 6.733 C 5.146 6.597,4.977 6.412,4.840 6.342 C 4.732 6.287,4.485 6.238,4.420 6.260 M17.579 13.280 C 15.750 13.440,14.200 14.632,13.540 16.384 C 13.182 17.335,13.182 18.665,13.540 19.616 C 14.042 20.949,15.049 21.958,16.376 22.457 C 17.340 22.820,18.660 22.820,19.624 22.457 C 20.951 21.958,21.958 20.949,22.460 19.616 C 22.819 18.661,22.818 17.336,22.457 16.376 C 21.695 14.348,19.716 13.092,17.579 13.280 M18.980 14.894 C 19.508 15.068,19.854 15.286,20.284 15.716 C 20.712 16.143,20.928 16.485,21.108 17.020 C 21.209 17.316,21.217 17.389,21.217 18.000 C 21.217 18.611,21.209 18.684,21.108 18.980 C 20.928 19.515,20.712 19.857,20.284 20.284 C 19.857 20.712,19.515 20.928,18.980 21.108 C 18.684 21.209,18.611 21.217,18.000 21.217 C 17.389 21.217,17.316 21.209,17.020 21.108 C 16.485 20.928,16.143 20.712,15.716 20.284 C 15.288 19.857,15.072 19.515,14.892 18.980 C 14.791 18.684,14.783 18.611,14.783 18.000 C 14.783 17.389,14.791 17.316,14.892 17.020 C 15.072 16.485,15.288 16.143,15.716 15.716 C 16.433 14.999,17.066 14.750,18.100 14.775 C 18.572 14.787,18.710 14.806,18.980 14.894 M19.331 16.279 C 19.260 16.296,19.152 16.342,19.091 16.382 C 18.998 16.443,18.245 17.134,17.553 17.793 L 17.365 17.972 17.155 17.783 C 16.877 17.533,16.742 17.469,16.500 17.469 C 16.273 17.469,16.111 17.539,15.953 17.706 C 15.759 17.911,15.703 18.227,15.814 18.492 C 15.871 18.629,16.714 19.458,16.971 19.630 C 17.152 19.752,17.469 19.768,17.682 19.665 C 17.821 19.597,19.987 17.590,20.130 17.397 C 20.296 17.170,20.269 16.761,20.072 16.537 C 19.872 16.309,19.602 16.215,19.331 16.279 M9.760 19.798 C 9.760 19.921,9.657 20.286,9.579 20.440 C 9.454 20.685,9.164 20.965,8.888 21.104 C 8.682 21.209,8.622 21.220,8.260 21.220 C 7.909 21.220,7.832 21.207,7.631 21.112 C 7.184 20.903,6.811 20.401,6.768 19.952 L 6.750 19.760 8.255 19.760 C 9.180 19.760,9.760 19.775,9.760 19.798 " stroke="none" fill-rule="evenodd" fill="black"></path></svg>