<svg width="24" height="24" viewBox="0 0 24 24" fill="none" xmlns="http://www.w3.org/2000/svg"><path d="M5.721 1.285 C 4.366 1.442,3.262 2.396,2.870 3.748 C 2.785 4.042,2.780 4.132,2.780 5.280 C 2.780 6.436,2.785 6.517,2.873 6.820 C 3.123 7.686,3.765 8.445,4.580 8.840 C 4.964 9.026,5.268 9.107,5.710 9.144 L 6.040 9.172 6.040 9.700 L 6.040 10.228 4.930 10.253 C 4.319 10.267,3.730 10.297,3.620 10.319 C 2.949 10.457,2.458 10.960,2.310 11.664 C 2.248 11.957,2.255 15.423,2.320 16.600 C 2.396 17.978,2.565 18.827,2.925 19.631 C 3.179 20.198,3.715 20.895,4.233 21.331 C 5.298 22.228,6.331 22.562,8.420 22.684 C 9.478 22.746,14.522 22.746,15.580 22.684 C 17.640 22.563,18.720 22.216,19.762 21.336 C 20.345 20.844,20.897 20.093,21.154 19.442 C 21.458 18.673,21.612 17.843,21.680 16.600 C 21.745 15.419,21.752 11.957,21.690 11.660 C 21.545 10.962,21.053 10.460,20.376 10.319 C 20.268 10.297,19.680 10.267,19.070 10.253 L 17.960 10.228 17.960 9.700 L 17.960 9.172 18.290 9.144 C 18.894 9.094,19.395 8.915,19.854 8.584 C 20.494 8.124,20.923 7.530,21.128 6.820 C 21.215 6.517,21.220 6.435,21.220 5.280 C 21.220 4.132,21.215 4.042,21.130 3.748 C 20.832 2.722,20.154 1.945,19.193 1.530 C 18.752 1.339,18.383 1.270,17.820 1.273 C 15.636 1.285,13.717 2.680,13.024 4.760 C 12.776 5.506,12.760 5.706,12.760 8.100 L 12.760 10.240 12.000 10.240 L 11.240 10.240 11.240 8.120 C 11.240 5.744,11.222 5.517,10.980 4.776 C 10.394 2.987,8.833 1.639,7.005 1.342 C 6.525 1.264,6.073 1.244,5.721 1.285 M7.132 2.896 C 8.378 3.267,9.288 4.212,9.650 5.511 C 9.733 5.807,9.737 5.913,9.751 8.030 L 9.765 10.240 8.645 10.240 L 7.525 10.240 7.513 9.530 C 7.501 8.849,7.495 8.810,7.387 8.576 C 7.245 8.268,6.934 7.958,6.628 7.818 C 6.464 7.743,6.261 7.697,5.935 7.659 C 5.588 7.618,5.414 7.577,5.227 7.488 C 4.757 7.267,4.381 6.772,4.281 6.244 C 4.228 5.965,4.228 4.555,4.281 4.276 C 4.404 3.624,4.914 3.046,5.550 2.835 C 5.890 2.723,6.648 2.752,7.132 2.896 M18.436 2.836 C 19.077 3.035,19.594 3.615,19.719 4.276 C 19.771 4.548,19.772 5.903,19.721 6.215 C 19.633 6.753,19.255 7.261,18.773 7.488 C 18.586 7.577,18.412 7.618,18.065 7.659 C 17.739 7.697,17.536 7.743,17.372 7.818 C 17.066 7.958,16.755 8.268,16.613 8.576 C 16.505 8.810,16.499 8.849,16.487 9.530 L 16.475 10.240 15.355 10.240 L 14.235 10.240 14.249 8.030 C 14.263 5.913,14.267 5.807,14.350 5.511 C 14.546 4.809,14.874 4.249,15.365 3.777 C 15.914 3.251,16.417 2.984,17.165 2.822 C 17.550 2.738,18.143 2.745,18.436 2.836 M7.401 11.910 C 7.427 11.992,7.503 12.159,7.570 12.280 C 7.943 12.957,8.540 13.440,9.260 13.648 C 9.578 13.740,9.592 13.740,12.000 13.740 C 14.408 13.740,14.422 13.740,14.740 13.648 C 15.460 13.440,16.057 12.957,16.430 12.280 C 16.497 12.159,16.573 11.992,16.599 11.910 L 16.646 11.760 18.363 11.760 C 20.060 11.760,20.081 11.761,20.165 11.845 L 20.250 11.930 20.228 14.295 C 20.206 16.699,20.181 17.171,20.040 17.922 C 19.842 18.975,19.439 19.680,18.694 20.280 C 18.049 20.798,17.339 21.034,16.020 21.167 C 15.279 21.242,8.721 21.242,7.980 21.167 C 6.313 20.999,5.460 20.613,4.720 19.694 C 4.320 19.197,4.106 18.697,3.960 17.922 C 3.819 17.171,3.794 16.699,3.772 14.295 L 3.750 11.930 3.835 11.845 C 3.919 11.761,3.940 11.760,5.637 11.760 L 7.354 11.760 7.401 11.910 M14.932 11.815 C 14.869 11.924,14.635 12.090,14.439 12.164 C 14.251 12.235,14.102 12.240,12.000 12.240 C 9.898 12.240,9.749 12.235,9.561 12.164 C 9.365 12.090,9.131 11.924,9.068 11.815 C 9.041 11.769,9.495 11.760,12.000 11.760 C 14.505 11.760,14.959 11.769,14.932 11.815 " stroke="none" fill-rule="evenodd" fill="black"></path></svg>