<svg width="24" height="24" viewBox="0 0 24 24" fill="none" xmlns="http://www.w3.org/2000/svg"><path d="M9.580 1.278 C 7.585 1.328,6.829 1.417,5.940 1.708 C 5.047 2.000,4.264 2.526,3.669 3.233 C 2.773 4.297,2.441 5.321,2.314 7.420 C 2.248 8.516,2.248 15.484,2.314 16.580 C 2.441 18.679,2.773 19.703,3.669 20.767 C 4.245 21.451,5.003 21.970,5.860 22.267 C 6.973 22.652,8.016 22.731,12.000 22.731 C 15.648 22.731,16.604 22.675,17.664 22.401 C 18.532 22.177,19.119 21.878,19.762 21.336 C 20.345 20.844,20.897 20.093,21.154 19.442 C 21.457 18.676,21.608 17.862,21.686 16.580 C 21.752 15.484,21.752 8.516,21.686 7.420 C 21.559 5.325,21.226 4.296,20.331 3.233 C 19.902 2.724,19.193 2.175,18.649 1.932 C 17.834 1.569,16.978 1.395,15.640 1.323 C 14.612 1.267,11.072 1.241,9.580 1.278 M16.080 2.836 C 17.697 3.008,18.552 3.401,19.280 4.306 C 19.899 5.076,20.145 6.018,20.211 7.870 L 20.225 8.240 18.935 8.240 L 17.646 8.240 17.599 8.090 C 17.573 8.008,17.497 7.841,17.430 7.720 C 17.057 7.043,16.460 6.560,15.740 6.352 L 15.420 6.260 12.000 6.260 L 8.580 6.260 8.260 6.352 C 7.540 6.560,6.943 7.043,6.570 7.720 C 6.503 7.841,6.427 8.008,6.401 8.090 L 6.354 8.240 5.065 8.240 L 3.775 8.240 3.789 7.870 C 3.855 6.018,4.101 5.076,4.720 4.306 C 5.564 3.258,6.592 2.876,8.820 2.785 C 9.631 2.752,15.690 2.794,16.080 2.836 M15.454 7.841 C 15.912 8.013,16.240 8.496,16.240 9.000 C 16.240 9.504,15.912 9.987,15.454 10.159 C 15.243 10.238,15.155 10.240,12.000 10.240 C 8.845 10.240,8.757 10.238,8.546 10.159 C 8.253 10.049,7.950 9.745,7.837 9.445 C 7.728 9.157,7.743 8.704,7.870 8.458 C 8.019 8.169,8.349 7.886,8.640 7.797 C 8.695 7.781,10.202 7.765,11.988 7.763 C 15.159 7.760,15.242 7.762,15.454 7.841 M6.401 9.910 C 6.427 9.992,6.503 10.159,6.570 10.280 C 6.943 10.957,7.540 11.440,8.260 11.648 L 8.580 11.740 12.000 11.740 L 15.420 11.740 15.740 11.648 C 16.460 11.440,17.057 10.957,17.430 10.280 C 17.497 10.159,17.573 9.992,17.599 9.910 L 17.646 9.760 18.947 9.760 L 20.248 9.760 20.229 13.210 C 20.209 16.731,20.194 17.103,20.040 17.922 C 19.842 18.975,19.439 19.680,18.694 20.280 C 18.049 20.798,17.339 21.034,16.020 21.167 C 15.279 21.242,8.721 21.242,7.980 21.167 C 6.661 21.034,5.951 20.798,5.306 20.280 C 4.561 19.680,4.158 18.975,3.960 17.922 C 3.806 17.103,3.791 16.731,3.771 13.210 L 3.752 9.760 5.053 9.760 L 6.354 9.760 6.401 9.910 " stroke="none" fill-rule="evenodd" fill="black"></path></svg>