<svg width="24" height="24" viewBox="0 0 24 24" fill="none" xmlns="http://www.w3.org/2000/svg"><path d="M9.580 1.278 C 7.585 1.328,6.829 1.417,5.940 1.708 C 5.047 2.000,4.264 2.526,3.669 3.233 C 2.773 4.297,2.441 5.321,2.314 7.420 C 2.248 8.516,2.248 15.484,2.314 16.580 C 2.441 18.679,2.773 19.703,3.669 20.767 C 4.245 21.451,5.003 21.970,5.860 22.267 C 6.973 22.652,8.016 22.731,12.000 22.731 C 15.648 22.731,16.604 22.675,17.664 22.401 C 18.532 22.177,19.119 21.878,19.762 21.336 C 20.345 20.844,20.897 20.093,21.154 19.442 C 21.457 18.676,21.608 17.862,21.686 16.580 C 21.752 15.484,21.752 8.516,21.686 7.420 C 21.559 5.325,21.226 4.296,20.331 3.233 C 19.902 2.724,19.193 2.175,18.649 1.932 C 17.834 1.569,16.978 1.395,15.640 1.323 C 14.612 1.267,11.072 1.241,9.580 1.278 M16.080 2.836 C 17.697 3.008,18.552 3.401,19.280 4.306 C 19.798 4.951,20.034 5.661,20.167 6.980 C 20.243 7.728,20.243 16.272,20.167 17.020 C 20.034 18.339,19.798 19.049,19.280 19.694 C 18.540 20.613,17.687 20.999,16.020 21.167 C 15.279 21.242,8.721 21.242,7.980 21.167 C 6.313 20.999,5.460 20.613,4.720 19.694 C 4.202 19.049,3.966 18.339,3.833 17.020 C 3.757 16.272,3.757 7.728,3.833 6.980 C 3.966 5.661,4.202 4.951,4.720 4.306 C 5.564 3.258,6.592 2.876,8.820 2.785 C 9.631 2.752,15.690 2.794,16.080 2.836 M6.815 8.278 C 6.331 8.393,6.098 9.004,6.383 9.408 C 6.447 9.499,6.572 9.610,6.660 9.656 C 6.819 9.740,6.836 9.740,11.880 9.751 C 15.467 9.758,17.002 9.749,17.154 9.717 C 17.902 9.562,17.929 8.473,17.189 8.286 C 16.979 8.233,7.035 8.226,6.815 8.278 " stroke="none" fill-rule="evenodd" fill="black"></path></svg>