<svg width="24" height="24" viewBox="0 0 24 24" fill="none" xmlns="http://www.w3.org/2000/svg"><path d="M14.931 1.282 C 13.736 1.401,12.617 2.077,11.952 3.080 C 11.546 3.693,11.347 4.274,11.276 5.053 C 11.210 5.775,11.251 8.415,11.334 8.775 C 11.589 9.879,12.251 10.764,13.203 11.275 C 13.726 11.556,14.066 11.659,14.683 11.722 C 14.958 11.750,15.123 11.787,15.170 11.829 C 15.236 11.889,15.240 12.121,15.240 15.816 C 15.241 19.984,15.248 20.172,15.433 20.692 C 15.673 21.367,16.202 21.994,16.832 22.348 C 17.794 22.888,19.206 22.888,20.168 22.348 C 20.816 21.983,21.343 21.349,21.581 20.645 C 21.764 20.105,21.766 19.995,21.750 13.280 C 21.734 6.491,21.743 6.793,21.541 5.999 C 21.043 4.039,19.539 2.371,17.632 1.663 C 16.775 1.344,15.750 1.200,14.931 1.282 M16.212 2.820 C 17.459 3.037,18.584 3.733,19.327 4.746 C 19.571 5.078,19.852 5.631,19.997 6.064 C 20.248 6.814,20.240 6.600,20.240 12.525 L 20.240 17.920 18.502 17.920 L 16.764 17.920 16.750 14.790 C 16.737 12.037,16.728 11.638,16.671 11.474 C 16.532 11.074,16.244 10.721,15.880 10.503 C 15.610 10.342,15.422 10.293,14.875 10.242 C 14.638 10.220,14.351 10.166,14.229 10.120 C 13.557 9.868,12.998 9.256,12.821 8.578 C 12.732 8.236,12.732 5.103,12.821 4.725 C 13.027 3.853,13.839 3.033,14.706 2.823 C 15.018 2.748,15.788 2.746,16.212 2.820 M14.727 4.206 C 14.538 4.260,14.255 4.557,14.201 4.757 C 14.171 4.868,14.160 5.463,14.168 6.590 L 14.180 8.260 14.274 8.411 C 14.398 8.611,14.579 8.744,14.811 8.806 C 15.163 8.900,15.559 8.717,15.737 8.378 C 15.816 8.227,15.821 8.149,15.832 6.580 C 15.845 4.724,15.840 4.678,15.582 4.421 C 15.348 4.187,15.051 4.112,14.727 4.206 M8.480 4.459 C 6.517 5.000,4.982 6.541,4.457 8.500 C 4.303 9.075,4.337 9.306,4.614 9.549 C 4.932 9.829,5.354 9.803,5.655 9.486 C 5.740 9.397,5.800 9.254,5.886 8.937 C 6.103 8.140,6.429 7.575,7.002 7.002 C 7.575 6.429,8.140 6.103,8.937 5.886 C 9.527 5.726,9.731 5.524,9.731 5.100 C 9.731 4.793,9.589 4.575,9.292 4.425 C 9.119 4.338,8.887 4.347,8.480 4.459 M7.200 10.267 C 4.877 10.377,2.778 11.799,1.824 13.910 C 1.431 14.782,1.275 15.517,1.275 16.500 C 1.275 17.483,1.431 18.218,1.824 19.090 C 2.589 20.783,4.127 22.074,5.939 22.545 C 6.879 22.789,8.121 22.789,9.061 22.545 C 11.246 21.978,12.978 20.246,13.545 18.061 C 13.789 17.121,13.789 15.879,13.545 14.939 C 12.914 12.507,10.834 10.650,8.380 10.326 C 8.010 10.277,7.516 10.252,7.200 10.267 M8.305 11.822 C 9.246 11.986,10.063 12.399,10.756 13.059 C 11.730 13.988,12.240 15.171,12.240 16.500 C 12.240 18.013,11.538 19.408,10.319 20.317 C 8.667 21.549,6.333 21.549,4.681 20.317 C 2.643 18.798,2.152 15.986,3.554 13.860 C 3.794 13.496,4.302 12.966,4.681 12.683 C 5.242 12.265,5.970 11.950,6.664 11.824 C 7.092 11.747,7.869 11.746,8.305 11.822 M5.807 13.285 C 5.557 13.344,5.341 13.573,5.284 13.838 C 5.223 14.123,5.223 18.877,5.284 19.162 C 5.447 19.920,6.553 19.920,6.716 19.162 C 6.740 19.048,6.760 18.574,6.760 18.098 L 6.760 17.240 6.918 17.240 L 7.076 17.240 7.759 18.378 C 8.156 19.040,8.488 19.549,8.551 19.594 C 9.106 19.989,9.866 19.507,9.719 18.853 C 9.698 18.762,9.449 18.300,9.163 17.826 L 8.646 16.964 8.813 16.866 C 9.257 16.606,9.638 16.040,9.718 15.523 C 9.868 14.553,9.205 13.636,8.136 13.336 C 7.851 13.256,6.092 13.218,5.807 13.285 M7.903 14.836 C 8.263 14.999,8.337 15.272,8.089 15.520 C 7.896 15.713,7.723 15.760,7.190 15.760 L 6.760 15.760 6.760 15.260 L 6.760 14.760 7.250 14.761 C 7.640 14.762,7.773 14.777,7.903 14.836 M20.233 19.732 C 20.201 20.333,19.866 20.833,19.320 21.095 C 19.067 21.217,19.045 21.220,18.500 21.220 C 17.955 21.220,17.933 21.217,17.680 21.095 C 17.134 20.833,16.799 20.333,16.767 19.732 L 16.750 19.400 18.500 19.400 L 20.250 19.400 20.233 19.732 " stroke="none" fill-rule="evenodd" fill="black"></path></svg>