<svg width="24" height="24" viewBox="0 0 24 24" fill="none" xmlns="http://www.w3.org/2000/svg"><path d="M7.351 1.269 C 7.261 1.282,3.678 3.485,3.086 3.890 C 2.784 4.097,2.680 4.483,2.835 4.820 C 2.923 5.010,3.012 5.096,3.210 5.178 C 3.392 5.254,3.601 5.257,3.772 5.186 C 3.965 5.105,7.882 2.651,8.015 2.527 C 8.329 2.235,8.317 1.741,7.987 1.452 C 7.857 1.337,7.605 1.231,7.500 1.246 C 7.478 1.249,7.411 1.259,7.351 1.269 M16.265 1.298 C 15.737 1.489,15.585 2.155,15.985 2.527 C 16.118 2.651,20.035 5.105,20.228 5.186 C 20.399 5.257,20.608 5.254,20.790 5.178 C 20.988 5.096,21.077 5.010,21.165 4.820 C 21.320 4.483,21.215 4.097,20.914 3.890 C 20.710 3.751,16.938 1.393,16.820 1.331 C 16.674 1.255,16.426 1.240,16.265 1.298 M11.340 3.281 C 7.073 3.553,3.439 6.660,2.499 10.840 C 2.187 12.227,2.187 13.773,2.499 15.160 C 3.355 18.967,6.486 21.944,10.320 22.597 C 14.153 23.250,17.956 21.620,20.107 18.402 C 21.192 16.780,21.729 14.991,21.729 13.000 C 21.729 11.149,21.263 9.466,20.330 7.943 C 18.416 4.822,14.996 3.048,11.340 3.281 M13.193 4.839 C 15.888 5.235,18.182 6.907,19.395 9.358 C 19.977 10.535,20.240 11.668,20.240 13.000 C 20.240 14.325,19.982 15.443,19.404 16.626 C 18.174 19.142,15.764 20.852,12.961 21.198 C 12.775 21.221,12.342 21.240,12.000 21.240 C 10.687 21.240,9.576 20.987,8.408 20.420 C 7.562 20.010,6.958 19.590,6.285 18.942 C 4.910 17.621,4.038 15.871,3.802 13.961 C 3.748 13.525,3.748 12.475,3.802 12.039 C 3.917 11.107,4.180 10.226,4.596 9.374 C 5.106 8.331,5.795 7.449,6.700 6.681 C 7.864 5.693,9.438 5.004,10.984 4.806 C 11.513 4.738,12.619 4.754,13.193 4.839 M11.807 9.289 C 11.574 9.339,11.348 9.565,11.286 9.811 C 11.257 9.929,11.240 10.400,11.240 11.118 L 11.240 12.240 10.142 12.240 C 8.859 12.240,8.697 12.263,8.482 12.478 C 8.133 12.827,8.203 13.381,8.631 13.647 C 8.777 13.738,8.804 13.740,10.007 13.753 L 11.235 13.765 11.247 14.993 C 11.260 16.204,11.261 16.222,11.355 16.373 C 11.506 16.615,11.718 16.733,12.003 16.733 C 12.203 16.733,12.270 16.714,12.408 16.617 C 12.729 16.390,12.738 16.344,12.753 14.973 L 12.765 13.765 13.993 13.753 C 15.196 13.740,15.223 13.738,15.369 13.647 C 15.943 13.290,15.812 12.424,15.162 12.284 C 15.040 12.258,14.509 12.240,13.858 12.240 L 12.760 12.240 12.759 11.130 C 12.758 10.513,12.740 9.940,12.717 9.841 C 12.620 9.420,12.247 9.194,11.807 9.289 " stroke="none" fill-rule="evenodd" fill="black"></path></svg>