<svg width="24" height="24" viewBox="0 0 24 24" fill="none" xmlns="http://www.w3.org/2000/svg"><path d="M7.351 1.269 C 7.261 1.282,3.678 3.485,3.086 3.890 C 2.784 4.097,2.680 4.483,2.835 4.820 C 2.923 5.010,3.012 5.096,3.210 5.178 C 3.392 5.254,3.601 5.257,3.772 5.186 C 3.965 5.105,7.882 2.651,8.015 2.527 C 8.329 2.235,8.317 1.741,7.987 1.452 C 7.857 1.337,7.605 1.231,7.500 1.246 C 7.478 1.249,7.411 1.259,7.351 1.269 M16.265 1.298 C 15.737 1.489,15.585 2.155,15.985 2.527 C 16.118 2.651,20.035 5.105,20.228 5.186 C 20.399 5.257,20.608 5.254,20.790 5.178 C 20.988 5.096,21.077 5.010,21.165 4.820 C 21.320 4.483,21.215 4.097,20.914 3.890 C 20.710 3.751,16.938 1.393,16.820 1.331 C 16.674 1.255,16.426 1.240,16.265 1.298 M11.340 3.281 C 7.073 3.553,3.439 6.660,2.499 10.840 C 2.187 12.227,2.187 13.773,2.499 15.160 C 3.355 18.967,6.486 21.944,10.320 22.597 C 14.153 23.250,17.956 21.620,20.107 18.402 C 21.192 16.780,21.729 14.991,21.729 13.000 C 21.729 11.149,21.263 9.466,20.330 7.943 C 18.416 4.822,14.996 3.048,11.340 3.281 M13.193 4.839 C 15.888 5.235,18.182 6.907,19.395 9.358 C 19.977 10.535,20.240 11.668,20.240 13.000 C 20.240 14.325,19.982 15.443,19.404 16.626 C 18.174 19.142,15.764 20.852,12.961 21.198 C 12.775 21.221,12.342 21.240,12.000 21.240 C 10.687 21.240,9.576 20.987,8.408 20.420 C 7.562 20.010,6.958 19.590,6.285 18.942 C 4.910 17.621,4.038 15.871,3.802 13.961 C 3.748 13.525,3.748 12.475,3.802 12.039 C 3.917 11.107,4.180 10.226,4.596 9.374 C 5.106 8.331,5.795 7.449,6.700 6.681 C 7.864 5.693,9.438 5.004,10.984 4.806 C 11.513 4.738,12.619 4.754,13.193 4.839 M9.695 10.157 C 9.520 10.200,9.342 10.336,9.236 10.506 C 9.133 10.673,9.113 11.035,9.198 11.200 C 9.227 11.255,9.630 11.683,10.094 12.150 L 10.938 13.000 10.094 13.850 C 9.630 14.318,9.227 14.745,9.198 14.800 C 9.170 14.855,9.147 15.002,9.147 15.128 C 9.147 15.399,9.269 15.617,9.503 15.762 C 9.673 15.867,10.034 15.888,10.200 15.802 C 10.255 15.773,10.683 15.370,11.150 14.906 L 12.000 14.062 12.850 14.906 C 13.318 15.370,13.745 15.773,13.800 15.802 C 13.966 15.888,14.327 15.867,14.497 15.762 C 14.731 15.617,14.853 15.399,14.853 15.128 C 14.853 15.002,14.830 14.855,14.802 14.800 C 14.773 14.745,14.370 14.318,13.906 13.850 L 13.062 13.000 13.906 12.150 C 14.370 11.683,14.773 11.255,14.802 11.200 C 14.830 11.145,14.853 10.998,14.853 10.872 C 14.853 10.601,14.731 10.383,14.497 10.238 C 14.327 10.133,13.966 10.112,13.800 10.198 C 13.745 10.227,13.318 10.630,12.850 11.094 L 12.000 11.938 11.150 11.094 C 10.683 10.630,10.264 10.232,10.220 10.210 C 10.099 10.149,9.836 10.123,9.695 10.157 " stroke="none" fill-rule="evenodd" fill="black"></path></svg>