<svg width="24" height="24" viewBox="0 0 24 24" fill="none" xmlns="http://www.w3.org/2000/svg"><path d="M8.110 1.281 C 6.924 1.423,5.921 2.391,5.751 3.558 L 5.704 3.876 5.469 3.964 C 4.462 4.341,3.680 5.443,3.680 6.486 L 3.680 6.758 3.510 6.844 C 2.554 7.326,1.984 8.226,1.837 9.484 C 1.734 10.372,1.803 11.155,2.342 15.200 C 2.733 18.134,2.845 18.884,2.986 19.520 C 3.413 21.444,4.304 22.337,6.076 22.618 C 6.707 22.718,8.413 22.758,12.000 22.758 C 15.587 22.758,17.293 22.718,17.924 22.618 C 19.461 22.374,20.332 21.663,20.806 20.264 C 21.065 19.501,21.165 18.905,21.677 15.060 C 22.193 11.179,22.265 10.358,22.163 9.484 C 22.016 8.225,21.445 7.326,20.490 6.844 L 20.320 6.758 20.320 6.486 C 20.320 5.426,19.524 4.326,18.478 3.942 L 18.297 3.876 18.246 3.548 C 18.114 2.707,17.542 1.930,16.780 1.557 C 16.142 1.245,16.430 1.264,12.180 1.256 C 10.090 1.252,8.259 1.263,8.110 1.281 M15.959 2.827 C 16.225 2.913,16.522 3.178,16.657 3.449 C 16.714 3.563,16.760 3.679,16.760 3.708 C 16.760 3.750,15.886 3.760,12.000 3.760 C 8.114 3.760,7.240 3.750,7.240 3.708 C 7.240 3.583,7.462 3.228,7.640 3.068 C 7.995 2.748,7.751 2.765,11.985 2.762 C 15.409 2.760,15.770 2.766,15.959 2.827 M17.720 5.280 C 18.154 5.362,18.524 5.652,18.715 6.058 C 18.852 6.350,18.839 6.376,18.570 6.343 C 17.404 6.204,6.596 6.204,5.430 6.343 C 5.161 6.376,5.148 6.350,5.285 6.058 C 5.469 5.667,5.848 5.361,6.248 5.283 C 6.500 5.233,17.459 5.231,17.720 5.280 M18.540 7.836 C 19.554 7.973,20.132 8.251,20.423 8.743 C 20.476 8.833,20.555 9.044,20.598 9.211 C 20.804 10.019,20.755 10.678,20.156 15.180 C 19.868 17.347,19.720 18.381,19.657 18.688 C 19.635 18.793,19.614 18.780,18.687 18.089 C 17.236 17.006,16.957 16.838,16.320 16.662 C 15.975 16.566,15.413 16.523,14.997 16.560 C 14.346 16.617,14.036 16.715,13.320 17.086 C 12.838 17.337,12.829 17.340,12.506 17.340 C 12.289 17.340,12.118 17.316,11.995 17.269 C 11.866 17.219,11.184 16.679,9.741 15.484 C 7.525 13.650,7.334 13.514,6.734 13.356 C 6.496 13.293,6.299 13.273,5.920 13.273 C 5.148 13.273,4.727 13.407,4.071 13.865 C 3.901 13.983,3.747 14.080,3.728 14.080 C 3.675 14.080,3.408 11.936,3.318 10.780 C 3.247 9.871,3.339 9.147,3.577 8.741 C 3.878 8.228,4.502 7.942,5.540 7.841 C 6.245 7.773,6.230 7.773,12.340 7.781 C 16.648 7.786,18.274 7.801,18.540 7.836 M16.180 9.281 C 15.087 9.427,14.277 10.358,14.269 11.480 C 14.264 12.125,14.470 12.630,14.920 13.080 C 15.363 13.523,15.868 13.731,16.500 13.731 C 17.132 13.731,17.637 13.523,18.080 13.080 C 18.523 12.637,18.731 12.132,18.731 11.500 C 18.731 10.868,18.523 10.363,18.080 9.920 C 17.575 9.415,16.894 9.186,16.180 9.281 M16.944 10.903 C 17.173 11.088,17.247 11.255,17.231 11.549 C 17.219 11.752,17.195 11.823,17.097 11.944 C 16.912 12.173,16.745 12.247,16.451 12.231 C 16.248 12.219,16.177 12.195,16.056 12.097 C 15.827 11.912,15.753 11.745,15.769 11.451 C 15.781 11.248,15.805 11.177,15.903 11.056 C 16.088 10.827,16.255 10.753,16.549 10.769 C 16.752 10.781,16.823 10.805,16.944 10.903 M6.468 14.845 C 6.762 14.953,6.649 14.865,8.842 16.682 C 10.756 18.268,10.984 18.446,11.260 18.574 C 11.648 18.754,11.865 18.806,12.323 18.828 C 12.966 18.860,13.259 18.790,13.957 18.436 C 14.590 18.115,14.850 18.040,15.320 18.040 C 15.710 18.040,16.040 18.114,16.360 18.274 C 16.574 18.381,19.156 20.274,19.159 20.326 C 19.159 20.340,19.078 20.443,18.977 20.555 C 18.635 20.936,18.114 21.122,17.171 21.200 C 16.549 21.251,7.451 21.251,6.829 21.200 C 5.268 21.070,4.762 20.647,4.441 19.200 C 4.353 18.801,4.158 17.569,4.041 16.660 C 3.995 16.308,3.949 15.973,3.937 15.916 C 3.918 15.821,3.965 15.777,4.485 15.402 C 5.307 14.808,5.391 14.771,5.928 14.764 C 6.152 14.761,6.301 14.783,6.468 14.845 " stroke="none" fill-rule="evenodd" fill="black"></path></svg>