<svg width="24" height="24" viewBox="0 0 24 24" fill="none" xmlns="http://www.w3.org/2000/svg"><path d="M6.480 2.280 C 5.925 2.320,5.573 2.424,5.244 2.643 C 4.774 2.957,4.466 3.415,4.330 4.000 C 4.265 4.278,4.260 4.722,4.260 10.000 C 4.260 16.333,4.246 15.988,4.526 16.558 C 4.694 16.900,5.100 17.306,5.442 17.474 C 5.903 17.700,6.158 17.732,7.500 17.732 C 8.842 17.732,9.097 17.700,9.558 17.474 C 9.895 17.308,10.297 16.906,10.470 16.560 C 10.754 15.994,10.740 16.342,10.740 10.000 C 10.740 4.722,10.735 4.278,10.670 4.000 C 10.470 3.137,9.851 2.515,9.020 2.341 C 8.676 2.269,7.135 2.232,6.480 2.280 M8.738 3.804 C 8.940 3.860,9.140 4.060,9.196 4.262 C 9.258 4.485,9.258 15.515,9.196 15.738 C 9.140 15.940,8.940 16.140,8.738 16.196 C 8.526 16.255,6.474 16.255,6.262 16.196 C 6.060 16.140,5.860 15.940,5.804 15.738 C 5.744 15.520,5.742 4.485,5.803 4.268 C 5.859 4.066,6.023 3.890,6.220 3.820 C 6.422 3.748,8.490 3.736,8.738 3.804 M15.480 5.280 C 14.925 5.320,14.573 5.424,14.244 5.643 C 13.774 5.957,13.466 6.415,13.330 7.000 C 13.266 7.275,13.260 7.649,13.260 11.500 C 13.260 16.162,13.251 15.999,13.526 16.558 C 13.694 16.900,14.100 17.306,14.442 17.474 C 14.903 17.700,15.158 17.732,16.500 17.732 C 17.842 17.732,18.097 17.700,18.558 17.474 C 18.900 17.306,19.306 16.900,19.474 16.558 C 19.748 15.999,19.740 16.162,19.740 11.500 C 19.740 7.651,19.734 7.275,19.670 7.000 C 19.470 6.137,18.851 5.515,18.020 5.341 C 17.676 5.269,16.135 5.232,15.480 5.280 M17.738 6.804 C 17.940 6.860,18.140 7.060,18.196 7.262 C 18.257 7.484,18.257 15.516,18.196 15.738 C 18.140 15.940,17.940 16.140,17.738 16.196 C 17.526 16.255,15.474 16.255,15.262 16.196 C 15.060 16.140,14.860 15.940,14.804 15.738 C 14.744 15.521,14.743 7.484,14.803 7.268 C 14.859 7.066,15.023 6.890,15.220 6.820 C 15.422 6.748,17.490 6.736,17.738 6.804 M1.815 20.278 C 1.331 20.393,1.098 21.004,1.383 21.408 C 1.448 21.499,1.572 21.610,1.660 21.656 L 1.820 21.740 11.880 21.751 C 19.099 21.758,22.000 21.749,22.154 21.717 C 22.902 21.562,22.929 20.473,22.189 20.286 C 21.978 20.233,2.036 20.225,1.815 20.278 " stroke="none" fill-rule="evenodd" fill="black"></path></svg>