<svg width="24" height="24" viewBox="0 0 24 24" fill="none" xmlns="http://www.w3.org/2000/svg"><path d="M6.480 4.280 C 6.216 4.299,5.907 4.349,5.754 4.397 C 5.240 4.559,4.759 4.973,4.518 5.460 C 4.279 5.945,4.272 6.020,4.251 8.747 L 4.232 11.235 3.006 11.247 C 1.796 11.260,1.778 11.261,1.627 11.355 C 1.385 11.506,1.267 11.718,1.267 12.003 C 1.267 12.203,1.286 12.270,1.383 12.408 C 1.610 12.729,1.656 12.738,3.026 12.753 L 4.232 12.765 4.251 15.253 C 4.273 17.992,4.277 18.052,4.526 18.558 C 4.694 18.900,5.100 19.306,5.442 19.474 C 5.903 19.700,6.158 19.732,7.500 19.732 C 8.842 19.732,9.097 19.700,9.558 19.474 C 9.900 19.306,10.306 18.900,10.474 18.558 C 10.722 18.053,10.727 17.992,10.749 15.250 L 10.769 12.760 11.999 12.760 L 13.229 12.760 13.252 14.250 C 13.278 15.892,13.303 16.104,13.526 16.558 C 13.694 16.900,14.100 17.306,14.442 17.474 C 14.903 17.700,15.158 17.732,16.500 17.732 C 17.842 17.732,18.097 17.700,18.558 17.474 C 18.900 17.306,19.306 16.900,19.474 16.558 C 19.696 16.106,19.721 15.892,19.748 14.250 L 19.772 12.760 20.864 12.760 C 22.143 12.760,22.303 12.737,22.520 12.520 C 22.918 12.122,22.730 11.423,22.189 11.286 C 22.071 11.257,21.602 11.240,20.888 11.240 L 19.772 11.240 19.748 9.750 C 19.721 8.108,19.696 7.894,19.474 7.442 C 19.306 7.100,18.900 6.694,18.558 6.526 C 18.097 6.300,17.842 6.268,16.500 6.268 C 15.158 6.268,14.903 6.300,14.442 6.526 C 14.100 6.694,13.694 7.100,13.526 7.442 C 13.303 7.896,13.278 8.108,13.252 9.750 L 13.229 11.240 11.999 11.240 L 10.769 11.240 10.749 8.750 C 10.732 6.658,10.719 6.215,10.665 5.980 C 10.472 5.140,9.843 4.513,9.020 4.341 C 8.676 4.269,7.135 4.232,6.480 4.280 M8.738 5.804 C 8.940 5.860,9.140 6.060,9.196 6.262 C 9.258 6.485,9.258 17.515,9.196 17.738 C 9.140 17.940,8.940 18.140,8.738 18.196 C 8.526 18.255,6.474 18.255,6.262 18.196 C 6.060 18.140,5.860 17.940,5.804 17.738 C 5.744 17.520,5.742 6.485,5.803 6.268 C 5.859 6.066,6.023 5.890,6.220 5.820 C 6.422 5.748,8.490 5.736,8.738 5.804 M17.738 7.804 C 17.940 7.860,18.140 8.060,18.196 8.262 C 18.257 8.484,18.257 15.516,18.196 15.738 C 18.140 15.940,17.940 16.140,17.738 16.196 C 17.526 16.255,15.474 16.255,15.262 16.196 C 15.060 16.140,14.860 15.940,14.804 15.738 C 14.744 15.522,14.743 8.484,14.803 8.268 C 14.859 8.066,15.023 7.890,15.220 7.820 C 15.422 7.748,17.490 7.736,17.738 7.804 " stroke="none" fill-rule="evenodd" fill="black"></path></svg>