<svg width="24" height="24" viewBox="0 0 24 24" fill="none" xmlns="http://www.w3.org/2000/svg"><path d="M20.815 1.277 C 20.638 1.321,20.461 1.456,20.353 1.631 L 20.260 1.780 20.260 12.000 L 20.260 22.220 20.353 22.369 C 20.710 22.943,21.576 22.812,21.716 22.162 C 21.776 21.882,21.777 2.102,21.717 1.841 C 21.623 1.432,21.215 1.177,20.815 1.277 M4.480 4.281 C 4.210 4.300,3.910 4.348,3.754 4.397 C 3.240 4.559,2.759 4.973,2.518 5.460 C 2.300 5.901,2.267 6.167,2.267 7.500 C 2.267 8.842,2.299 9.096,2.526 9.558 C 2.694 9.900,3.100 10.306,3.442 10.474 C 4.012 10.754,3.667 10.740,10.000 10.740 C 16.342 10.740,15.994 10.754,16.560 10.470 C 16.906 10.297,17.308 9.895,17.474 9.558 C 17.700 9.097,17.732 8.842,17.732 7.500 C 17.732 6.158,17.700 5.903,17.474 5.442 C 17.306 5.100,16.900 4.694,16.558 4.526 C 16.002 4.253,16.318 4.267,10.340 4.258 C 7.370 4.253,4.733 4.264,4.480 4.281 M15.738 5.804 C 15.940 5.860,16.140 6.060,16.196 6.262 C 16.255 6.474,16.255 8.526,16.196 8.738 C 16.140 8.940,15.940 9.140,15.738 9.196 C 15.515 9.258,4.485 9.258,4.262 9.196 C 4.060 9.140,3.860 8.940,3.804 8.738 C 3.747 8.530,3.745 6.475,3.803 6.268 C 3.826 6.184,3.893 6.062,3.952 5.996 C 4.173 5.751,3.858 5.764,9.980 5.762 C 13.927 5.761,15.627 5.773,15.738 5.804 M7.480 13.281 C 7.211 13.300,6.910 13.348,6.754 13.397 C 6.240 13.559,5.759 13.973,5.518 14.460 C 5.300 14.901,5.267 15.167,5.267 16.500 C 5.267 17.842,5.299 18.096,5.526 18.558 C 5.694 18.900,6.100 19.306,6.442 19.474 C 7.001 19.748,6.838 19.740,11.500 19.740 C 16.162 19.740,15.999 19.748,16.558 19.474 C 16.900 19.306,17.306 18.900,17.474 18.558 C 17.700 18.097,17.732 17.842,17.732 16.500 C 17.732 15.158,17.700 14.903,17.474 14.442 C 17.306 14.100,16.900 13.694,16.558 13.526 C 16.019 13.261,16.150 13.269,11.840 13.258 C 9.695 13.253,7.733 13.263,7.480 13.281 M15.738 14.804 C 15.940 14.860,16.140 15.060,16.196 15.262 C 16.255 15.474,16.255 17.526,16.196 17.738 C 16.140 17.940,15.940 18.140,15.738 18.196 C 15.516 18.257,7.484 18.257,7.262 18.196 C 7.060 18.140,6.860 17.940,6.804 17.738 C 6.747 17.530,6.745 15.475,6.803 15.268 C 6.826 15.184,6.893 15.062,6.952 14.996 C 7.170 14.755,6.999 14.764,11.480 14.762 C 14.338 14.761,15.628 14.774,15.738 14.804 " stroke="none" fill-rule="evenodd" fill="black"></path></svg>