<svg width="24" height="24" viewBox="0 0 24 24" fill="none" xmlns="http://www.w3.org/2000/svg"><path d="M1.815 2.278 C 1.331 2.393,1.098 3.004,1.383 3.408 C 1.448 3.499,1.572 3.610,1.660 3.656 L 1.820 3.740 11.880 3.751 C 19.099 3.758,22.000 3.749,22.154 3.717 C 22.902 3.562,22.929 2.473,22.189 2.286 C 21.978 2.233,2.036 2.225,1.815 2.278 M6.520 7.282 C 6.135 7.298,5.703 7.332,5.560 7.357 C 4.180 7.604,3.481 8.387,3.323 9.860 C 3.217 10.849,3.241 13.803,3.361 14.460 C 3.587 15.711,4.289 16.412,5.540 16.640 C 6.029 16.728,7.612 16.757,11.980 16.757 C 16.363 16.757,17.977 16.728,18.460 16.640 C 19.520 16.446,20.205 15.898,20.496 15.008 C 20.653 14.525,20.676 14.336,20.725 13.111 C 20.772 11.911,20.725 9.987,20.638 9.520 C 20.441 8.473,19.890 7.793,19.008 7.505 C 18.546 7.354,18.301 7.320,17.360 7.280 C 16.368 7.237,7.566 7.239,6.520 7.282 M18.260 8.833 C 18.370 8.858,18.559 8.930,18.679 8.991 C 18.863 9.084,18.916 9.137,19.009 9.321 C 19.208 9.713,19.220 9.861,19.220 12.000 C 19.220 14.139,19.208 14.287,19.009 14.679 C 18.916 14.863,18.863 14.916,18.679 15.009 C 18.252 15.226,18.437 15.220,12.000 15.220 C 5.563 15.220,5.748 15.226,5.321 15.009 C 5.137 14.916,5.084 14.863,4.991 14.679 C 4.930 14.559,4.860 14.370,4.835 14.260 C 4.770 13.968,4.741 10.655,4.798 10.107 C 4.850 9.610,4.955 9.291,5.123 9.123 C 5.276 8.970,5.602 8.850,5.989 8.805 C 6.475 8.749,18.013 8.774,18.260 8.833 M1.815 20.278 C 1.331 20.393,1.098 21.004,1.383 21.408 C 1.448 21.499,1.572 21.610,1.660 21.656 L 1.820 21.740 11.880 21.751 C 19.099 21.758,22.000 21.749,22.154 21.717 C 22.902 21.562,22.929 20.473,22.189 20.286 C 21.978 20.233,2.036 20.225,1.815 20.278 " stroke="none" fill-rule="evenodd" fill="black"></path></svg>