<svg width="24" height="24" viewBox="0 0 24 24" fill="none" xmlns="http://www.w3.org/2000/svg"><path d="M1.815 2.278 C 1.331 2.393,1.098 3.004,1.383 3.408 C 1.448 3.499,1.572 3.610,1.660 3.656 L 1.820 3.740 11.880 3.751 C 19.099 3.758,22.000 3.749,22.154 3.717 C 22.902 3.562,22.929 2.473,22.189 2.286 C 21.978 2.233,2.036 2.225,1.815 2.278 M6.480 6.280 C 5.925 6.320,5.573 6.424,5.244 6.643 C 4.774 6.957,4.466 7.415,4.330 8.000 C 4.265 8.278,4.260 8.722,4.260 14.000 C 4.260 20.333,4.246 19.988,4.526 20.558 C 4.694 20.900,5.100 21.306,5.442 21.474 C 5.903 21.700,6.158 21.732,7.500 21.732 C 8.842 21.732,9.097 21.700,9.558 21.474 C 9.900 21.306,10.306 20.900,10.474 20.558 C 10.754 19.988,10.740 20.333,10.740 14.000 C 10.740 8.722,10.735 8.278,10.670 8.000 C 10.470 7.137,9.851 6.515,9.020 6.341 C 8.676 6.269,7.135 6.232,6.480 6.280 M15.480 6.280 C 14.925 6.320,14.573 6.424,14.244 6.643 C 13.774 6.957,13.466 7.415,13.330 8.000 C 13.266 8.275,13.260 8.649,13.260 12.500 C 13.260 17.162,13.251 16.999,13.526 17.558 C 13.694 17.900,14.100 18.306,14.442 18.474 C 14.903 18.700,15.158 18.732,16.500 18.732 C 17.842 18.732,18.097 18.700,18.558 18.474 C 18.900 18.306,19.306 17.900,19.474 17.558 C 19.748 16.999,19.740 17.162,19.740 12.500 C 19.740 8.651,19.734 8.275,19.670 8.000 C 19.470 7.137,18.851 6.515,18.020 6.341 C 17.676 6.269,16.135 6.232,15.480 6.280 M8.738 7.804 C 8.940 7.860,9.140 8.060,9.196 8.262 C 9.258 8.485,9.258 19.515,9.196 19.738 C 9.140 19.940,8.940 20.140,8.738 20.196 C 8.526 20.255,6.474 20.255,6.262 20.196 C 6.060 20.140,5.860 19.940,5.804 19.738 C 5.744 19.520,5.742 8.485,5.803 8.268 C 5.859 8.066,6.023 7.890,6.220 7.820 C 6.422 7.748,8.490 7.736,8.738 7.804 M17.738 7.804 C 17.940 7.860,18.140 8.060,18.196 8.262 C 18.257 8.484,18.257 16.516,18.196 16.738 C 18.140 16.940,17.940 17.140,17.738 17.196 C 17.526 17.255,15.474 17.255,15.262 17.196 C 15.060 17.140,14.860 16.940,14.804 16.738 C 14.744 16.521,14.743 8.484,14.803 8.268 C 14.859 8.066,15.023 7.890,15.220 7.820 C 15.422 7.748,17.490 7.736,17.738 7.804 " stroke="none" fill-rule="evenodd" fill="black"></path></svg>