<svg width="24" height="24" viewBox="0 0 24 24" fill="none" xmlns="http://www.w3.org/2000/svg"><path d="M2.815 1.277 C 2.638 1.321,2.461 1.456,2.353 1.631 L 2.260 1.780 2.260 12.000 L 2.260 22.220 2.353 22.369 C 2.710 22.943,3.576 22.812,3.716 22.162 C 3.776 21.882,3.777 2.102,3.717 1.841 C 3.623 1.432,3.215 1.177,2.815 1.277 M20.815 1.277 C 20.638 1.321,20.461 1.456,20.353 1.631 L 20.260 1.780 20.260 12.000 L 20.260 22.220 20.353 22.369 C 20.710 22.943,21.576 22.812,21.716 22.162 C 21.776 21.882,21.777 2.102,21.717 1.841 C 21.623 1.432,21.215 1.177,20.815 1.277 M10.520 3.282 C 10.135 3.298,9.703 3.332,9.560 3.357 C 8.375 3.570,7.698 4.177,7.418 5.280 C 7.281 5.818,7.271 6.166,7.252 11.180 C 7.233 16.087,7.261 17.912,7.360 18.460 C 7.553 19.520,8.102 20.205,8.992 20.496 C 9.471 20.652,9.663 20.676,10.851 20.724 C 12.020 20.772,14.020 20.724,14.480 20.638 C 15.719 20.404,16.413 19.704,16.640 18.460 C 16.728 17.977,16.757 16.363,16.757 11.980 C 16.757 7.612,16.728 6.029,16.640 5.540 C 16.529 4.933,16.276 4.398,15.939 4.061 C 15.602 3.724,15.067 3.471,14.460 3.360 C 13.912 3.261,11.967 3.222,10.520 3.282 M14.260 4.835 C 14.370 4.860,14.559 4.930,14.679 4.991 C 14.863 5.084,14.916 5.137,15.009 5.321 C 15.226 5.748,15.220 5.563,15.220 12.000 C 15.220 18.437,15.226 18.252,15.009 18.679 C 14.916 18.863,14.863 18.916,14.679 19.009 C 14.287 19.208,14.139 19.220,12.000 19.220 C 9.861 19.220,9.713 19.208,9.321 19.009 C 9.137 18.916,9.084 18.863,8.991 18.679 C 8.930 18.559,8.858 18.370,8.833 18.260 C 8.767 17.980,8.736 6.728,8.799 6.107 C 8.850 5.611,8.955 5.291,9.123 5.123 C 9.276 4.971,9.601 4.851,9.989 4.804 C 10.423 4.752,14.005 4.778,14.260 4.835 " stroke="none" fill-rule="evenodd" fill="black"></path></svg>