<svg width="24" height="24" viewBox="0 0 24 24" fill="none" xmlns="http://www.w3.org/2000/svg"><path d="M11.815 1.277 C 11.638 1.321,11.461 1.456,11.353 1.631 C 11.262 1.777,11.260 1.804,11.247 3.006 L 11.235 4.231 8.747 4.251 C 6.008 4.273,5.947 4.278,5.442 4.526 C 5.100 4.694,4.694 5.100,4.526 5.442 C 4.299 5.904,4.267 6.158,4.267 7.500 C 4.267 8.842,4.299 9.096,4.526 9.558 C 4.694 9.900,5.100 10.306,5.442 10.474 C 5.947 10.722,6.008 10.727,8.750 10.749 L 11.240 10.769 11.240 11.998 L 11.240 13.228 9.750 13.252 C 8.108 13.279,7.894 13.304,7.442 13.526 C 7.100 13.694,6.694 14.100,6.526 14.442 C 6.299 14.904,6.267 15.158,6.267 16.500 C 6.267 17.842,6.299 18.096,6.526 18.558 C 6.694 18.900,7.100 19.306,7.442 19.474 C 7.894 19.696,8.108 19.721,9.747 19.748 L 11.235 19.772 11.247 20.996 C 11.260 22.196,11.262 22.223,11.353 22.369 C 11.710 22.943,12.576 22.812,12.716 22.162 C 12.742 22.040,12.760 21.510,12.760 20.864 L 12.760 19.772 14.250 19.748 C 15.892 19.721,16.106 19.696,16.558 19.474 C 16.900 19.306,17.306 18.900,17.474 18.558 C 17.700 18.097,17.732 17.842,17.732 16.500 C 17.732 15.158,17.700 14.903,17.474 14.442 C 17.306 14.100,16.900 13.694,16.558 13.526 C 16.106 13.304,15.892 13.279,14.250 13.252 L 12.760 13.228 12.760 11.998 L 12.760 10.769 15.250 10.749 C 17.992 10.727,18.053 10.722,18.558 10.474 C 18.900 10.306,19.306 9.900,19.474 9.558 C 19.700 9.097,19.732 8.842,19.732 7.500 C 19.732 6.158,19.700 5.903,19.474 5.442 C 19.306 5.100,18.900 4.694,18.558 4.526 C 18.053 4.278,17.992 4.273,15.250 4.251 L 12.760 4.231 12.759 3.126 C 12.758 1.954,12.734 1.738,12.580 1.536 C 12.421 1.327,12.078 1.211,11.815 1.277 M17.738 5.804 C 17.940 5.860,18.140 6.060,18.196 6.262 C 18.255 6.474,18.255 8.526,18.196 8.738 C 18.140 8.940,17.940 9.140,17.738 9.196 C 17.515 9.258,6.485 9.258,6.262 9.196 C 6.060 9.140,5.860 8.940,5.804 8.738 C 5.747 8.530,5.745 6.475,5.803 6.268 C 5.826 6.184,5.893 6.062,5.952 5.996 C 6.173 5.751,5.858 5.764,11.980 5.762 C 15.927 5.761,17.627 5.773,17.738 5.804 M15.738 14.804 C 15.940 14.860,16.140 15.060,16.196 15.262 C 16.255 15.474,16.255 17.526,16.196 17.738 C 16.140 17.940,15.940 18.140,15.738 18.196 C 15.516 18.257,8.484 18.257,8.262 18.196 C 8.060 18.140,7.860 17.940,7.804 17.738 C 7.747 17.530,7.745 15.475,7.803 15.268 C 7.826 15.184,7.893 15.062,7.952 14.996 C 8.168 14.756,8.045 14.764,11.980 14.762 C 14.475 14.761,15.629 14.774,15.738 14.804 " stroke="none" fill-rule="evenodd" fill="black"></path></svg>