<svg width="24" height="24" viewBox="0 0 24 24" fill="none" xmlns="http://www.w3.org/2000/svg"><path d="M2.815 1.277 C 2.638 1.321,2.461 1.456,2.353 1.631 L 2.260 1.780 2.260 12.000 L 2.260 22.220 2.353 22.369 C 2.710 22.943,3.576 22.812,3.716 22.162 C 3.776 21.882,3.777 2.102,3.717 1.841 C 3.623 1.432,3.215 1.177,2.815 1.277 M8.480 4.281 C 8.210 4.300,7.910 4.348,7.754 4.397 C 7.240 4.559,6.759 4.973,6.518 5.460 C 6.300 5.901,6.267 6.167,6.267 7.500 C 6.267 8.842,6.299 9.096,6.526 9.558 C 6.694 9.900,7.100 10.306,7.442 10.474 C 8.012 10.754,7.667 10.740,14.000 10.740 C 20.333 10.740,19.988 10.754,20.558 10.474 C 20.900 10.306,21.306 9.900,21.474 9.558 C 21.700 9.097,21.732 8.842,21.732 7.500 C 21.732 6.158,21.700 5.903,21.474 5.442 C 21.306 5.100,20.900 4.694,20.558 4.526 C 20.002 4.253,20.318 4.267,14.340 4.258 C 11.370 4.253,8.733 4.264,8.480 4.281 M19.738 5.804 C 19.940 5.860,20.140 6.060,20.196 6.262 C 20.255 6.474,20.255 8.526,20.196 8.738 C 20.140 8.940,19.940 9.140,19.738 9.196 C 19.515 9.258,8.485 9.258,8.262 9.196 C 8.060 9.140,7.860 8.940,7.804 8.738 C 7.747 8.530,7.745 6.475,7.803 6.268 C 7.826 6.184,7.893 6.062,7.952 5.996 C 8.173 5.751,7.858 5.764,13.980 5.762 C 17.927 5.761,19.627 5.773,19.738 5.804 M8.480 13.281 C 8.211 13.300,7.910 13.348,7.754 13.397 C 7.240 13.559,6.759 13.973,6.518 14.460 C 6.300 14.901,6.267 15.167,6.267 16.500 C 6.267 17.842,6.299 18.096,6.526 18.558 C 6.694 18.900,7.100 19.306,7.442 19.474 C 8.001 19.748,7.838 19.740,12.500 19.740 C 17.162 19.740,16.999 19.748,17.558 19.474 C 17.900 19.306,18.306 18.900,18.474 18.558 C 18.700 18.097,18.732 17.842,18.732 16.500 C 18.732 15.158,18.700 14.903,18.474 14.442 C 18.306 14.100,17.900 13.694,17.558 13.526 C 17.019 13.261,17.150 13.269,12.840 13.258 C 10.695 13.253,8.733 13.263,8.480 13.281 M16.738 14.804 C 16.940 14.860,17.140 15.060,17.196 15.262 C 17.255 15.474,17.255 17.526,17.196 17.738 C 17.140 17.940,16.940 18.140,16.738 18.196 C 16.516 18.257,8.484 18.257,8.262 18.196 C 8.060 18.140,7.860 17.940,7.804 17.738 C 7.747 17.530,7.745 15.475,7.803 15.268 C 7.826 15.184,7.893 15.062,7.952 14.996 C 8.170 14.755,7.999 14.764,12.480 14.762 C 15.338 14.761,16.628 14.774,16.738 14.804 " stroke="none" fill-rule="evenodd" fill="black"></path></svg>