<svg width="24" height="24" viewBox="0 0 24 24" fill="none" xmlns="http://www.w3.org/2000/svg"><path d="M11.807 8.279 C 11.734 8.296,11.599 8.371,11.507 8.445 C 11.415 8.518,9.781 9.914,7.875 11.548 C 5.251 13.796,4.393 14.554,4.338 14.668 C 4.296 14.754,4.264 14.910,4.264 15.029 C 4.262 15.503,4.750 15.841,5.246 15.709 C 5.304 15.693,6.843 14.402,8.666 12.840 C 10.489 11.278,11.993 10.005,12.008 10.010 C 12.024 10.016,13.495 11.270,15.277 12.797 C 17.059 14.324,18.573 15.609,18.641 15.653 C 18.812 15.761,19.134 15.762,19.341 15.655 C 19.581 15.531,19.730 15.294,19.733 15.033 C 19.734 14.907,19.706 14.760,19.665 14.673 C 19.612 14.564,18.671 13.735,16.027 11.470 C 14.065 9.789,12.415 8.385,12.360 8.351 C 12.232 8.270,11.978 8.237,11.807 8.279 " stroke="none" fill-rule="evenodd" fill="black"></path></svg>