<svg width="24" height="24" viewBox="0 0 24 24" fill="none" xmlns="http://www.w3.org/2000/svg"><path d="M8.811 4.278 C 8.626 4.323,8.423 4.491,8.338 4.668 C 8.238 4.876,8.241 5.190,8.344 5.354 C 8.389 5.425,9.676 6.941,11.203 8.723 C 12.730 10.506,13.980 11.980,13.980 12.000 C 13.980 12.020,12.730 13.494,11.203 15.277 C 9.676 17.059,8.389 18.575,8.344 18.646 C 8.162 18.934,8.279 19.395,8.591 19.615 C 8.789 19.756,9.095 19.776,9.327 19.665 C 9.436 19.612,10.265 18.671,12.530 16.027 C 14.211 14.065,15.620 12.409,15.660 12.347 C 15.710 12.270,15.733 12.159,15.733 12.000 C 15.733 11.841,15.710 11.730,15.660 11.653 C 15.620 11.591,14.211 9.935,12.530 7.973 C 10.508 5.613,9.431 4.386,9.347 4.346 C 9.176 4.266,8.967 4.239,8.811 4.278 " stroke="none" fill-rule="evenodd" fill="black"></path></svg>