<svg width="24" height="24" viewBox="0 0 24 24" fill="none" xmlns="http://www.w3.org/2000/svg"><path d="M4.785 8.288 C 4.579 8.344,4.336 8.591,4.279 8.803 C 4.218 9.031,4.288 9.311,4.453 9.495 C 4.608 9.668,11.398 15.488,11.612 15.631 C 11.804 15.760,12.170 15.775,12.347 15.660 C 12.409 15.620,14.065 14.211,16.027 12.530 C 18.671 10.265,19.612 9.436,19.665 9.327 C 19.907 8.823,19.539 8.258,18.974 8.266 C 18.840 8.268,18.721 8.297,18.641 8.347 C 18.573 8.391,17.059 9.676,15.277 11.203 C 13.495 12.730,12.024 13.984,12.008 13.990 C 11.993 13.995,10.490 12.723,8.669 11.162 C 6.848 9.602,5.327 8.316,5.289 8.304 C 5.121 8.255,4.928 8.249,4.785 8.288 " stroke="none" fill-rule="evenodd" fill="black"></path></svg>