<svg width="24" height="24" viewBox="0 0 24 24" fill="none" xmlns="http://www.w3.org/2000/svg"><path d="M14.793 4.287 C 14.712 4.309,14.582 4.384,14.505 4.453 C 14.332 4.608,8.512 11.398,8.369 11.612 C 8.224 11.827,8.224 12.173,8.369 12.388 C 8.425 12.472,9.831 14.126,11.494 16.065 C 13.785 18.737,14.553 19.607,14.668 19.662 C 15.260 19.947,15.883 19.404,15.709 18.754 C 15.693 18.696,14.402 17.157,12.840 15.334 C 11.278 13.511,10.000 12.011,10.000 12.000 C 10.000 11.989,11.278 10.489,12.840 8.666 C 14.402 6.843,15.693 5.304,15.709 5.246 C 15.866 4.658,15.363 4.131,14.793 4.287 " stroke="none" fill-rule="evenodd" fill="black"></path></svg>