<svg width="24" height="24" viewBox="0 0 24 24" fill="none" xmlns="http://www.w3.org/2000/svg"><path d="M3.100 2.282 C 2.434 2.328,2.057 2.470,1.756 2.788 C 1.546 3.010,1.449 3.192,1.354 3.546 C 1.278 3.831,1.270 3.966,1.270 5.000 C 1.270 6.030,1.278 6.170,1.353 6.450 C 1.399 6.621,1.482 6.837,1.536 6.930 C 1.743 7.283,2.117 7.549,2.538 7.643 L 2.754 7.691 2.773 12.076 C 2.791 16.297,2.804 16.770,2.922 17.580 C 3.171 19.278,3.843 20.367,5.040 21.013 C 5.591 21.310,6.485 21.545,7.420 21.639 C 8.939 21.792,15.061 21.792,16.580 21.639 C 19.366 21.359,20.701 20.155,21.078 17.580 C 21.196 16.770,21.209 16.297,21.227 12.076 L 21.246 7.691 21.462 7.643 C 21.883 7.549,22.257 7.283,22.464 6.930 C 22.518 6.837,22.601 6.621,22.646 6.450 C 22.721 6.171,22.729 6.028,22.729 5.000 C 22.729 3.972,22.721 3.829,22.646 3.550 C 22.468 2.885,22.125 2.539,21.454 2.350 L 21.140 2.262 12.340 2.256 C 7.500 2.253,3.342 2.265,3.100 2.282 M21.168 3.832 C 21.244 3.908,21.244 6.092,21.168 6.168 C 21.091 6.245,2.909 6.245,2.832 6.168 C 2.793 6.129,2.777 5.869,2.768 5.108 C 2.754 3.973,2.765 3.852,2.892 3.800 C 2.943 3.780,6.842 3.768,12.048 3.772 C 19.427 3.779,21.126 3.790,21.168 3.832 M19.760 11.370 C 19.759 16.859,19.698 17.674,19.212 18.680 C 18.732 19.674,17.875 20.060,15.840 20.199 C 15.086 20.251,8.914 20.251,8.160 20.199 C 6.121 20.060,5.274 19.678,4.787 18.680 C 4.302 17.687,4.241 16.869,4.241 11.370 L 4.240 7.760 12.000 7.760 L 19.760 7.760 19.760 11.370 M9.600 9.816 C 9.129 9.921,8.666 10.270,8.464 10.674 C 8.300 11.002,8.262 11.253,8.262 12.000 C 8.262 12.747,8.300 12.998,8.464 13.326 C 8.674 13.745,9.170 14.106,9.659 14.196 C 9.980 14.256,14.020 14.256,14.341 14.196 C 14.999 14.075,15.520 13.580,15.684 12.920 C 15.758 12.621,15.758 11.379,15.684 11.080 C 15.520 10.420,14.999 9.925,14.341 9.804 C 13.997 9.740,9.893 9.751,9.600 9.816 M14.160 11.320 C 14.233 11.393,14.240 11.453,14.240 12.000 C 14.240 12.547,14.233 12.607,14.160 12.680 C 14.082 12.758,14.027 12.760,12.000 12.760 C 9.973 12.760,9.918 12.758,9.840 12.680 C 9.767 12.607,9.760 12.547,9.760 12.000 C 9.760 11.453,9.767 11.393,9.840 11.320 C 9.918 11.242,9.973 11.240,12.000 11.240 C 14.027 11.240,14.082 11.242,14.160 11.320 " stroke="none" fill-rule="evenodd" fill="black"></path></svg>