<svg width="24" height="24" viewBox="0 0 24 24" fill="none" xmlns="http://www.w3.org/2000/svg"><path d="M3.100 2.282 C 2.434 2.328,2.057 2.470,1.756 2.788 C 1.546 3.010,1.449 3.192,1.354 3.546 C 1.278 3.831,1.270 3.966,1.270 5.000 C 1.270 6.030,1.278 6.170,1.353 6.450 C 1.399 6.621,1.482 6.837,1.536 6.930 C 1.743 7.283,2.117 7.549,2.538 7.643 L 2.754 7.691 2.773 12.076 C 2.791 16.297,2.804 16.770,2.922 17.580 C 3.171 19.278,3.843 20.367,5.040 21.013 C 5.591 21.310,6.485 21.545,7.420 21.639 C 8.939 21.792,15.061 21.792,16.580 21.639 C 19.366 21.359,20.701 20.155,21.078 17.580 C 21.196 16.770,21.209 16.297,21.227 12.076 L 21.246 7.691 21.462 7.643 C 21.883 7.549,22.257 7.283,22.464 6.930 C 22.518 6.837,22.601 6.621,22.646 6.450 C 22.721 6.171,22.729 6.028,22.729 5.000 C 22.729 3.972,22.721 3.829,22.646 3.550 C 22.468 2.885,22.125 2.539,21.454 2.350 L 21.140 2.262 12.340 2.256 C 7.500 2.253,3.342 2.265,3.100 2.282 M21.168 3.832 C 21.244 3.908,21.244 6.092,21.168 6.168 C 21.091 6.245,2.909 6.245,2.832 6.168 C 2.793 6.129,2.777 5.869,2.768 5.108 C 2.754 3.973,2.765 3.852,2.892 3.800 C 2.943 3.780,6.842 3.768,12.048 3.772 C 19.427 3.779,21.126 3.790,21.168 3.832 M19.760 11.370 C 19.759 16.859,19.698 17.674,19.212 18.680 C 18.974 19.174,18.679 19.473,18.198 19.710 C 17.390 20.107,16.350 20.239,14.010 20.240 L 12.760 20.240 12.760 17.120 C 12.760 15.404,12.767 14.000,12.775 14.000 C 12.784 14.000,13.182 14.434,13.661 14.964 C 14.565 15.967,14.696 16.077,14.991 16.079 C 15.254 16.081,15.544 15.902,15.670 15.661 C 15.761 15.485,15.749 15.156,15.646 14.980 C 15.515 14.759,12.504 11.431,12.355 11.343 C 12.179 11.240,11.821 11.240,11.645 11.343 C 11.496 11.431,8.485 14.759,8.354 14.980 C 8.251 15.156,8.239 15.485,8.330 15.661 C 8.456 15.902,8.746 16.081,9.009 16.079 C 9.304 16.077,9.435 15.967,10.339 14.964 C 10.818 14.434,11.216 14.000,11.225 14.000 C 11.233 14.000,11.240 15.404,11.240 17.120 L 11.240 20.240 9.990 20.240 C 7.664 20.239,6.624 20.109,5.808 19.716 C 5.336 19.488,5.030 19.178,4.787 18.680 C 4.302 17.687,4.241 16.869,4.241 11.370 L 4.240 7.760 12.000 7.760 L 19.760 7.760 19.760 11.370 " stroke="none" fill-rule="evenodd" fill="black"></path></svg>