<svg width="24" height="24" viewBox="0 0 24 24" fill="none" xmlns="http://www.w3.org/2000/svg"><path d="M3.100 2.282 C 2.434 2.328,2.057 2.470,1.756 2.788 C 1.546 3.010,1.449 3.192,1.354 3.546 C 1.278 3.831,1.270 3.966,1.270 5.000 C 1.270 6.030,1.278 6.170,1.353 6.450 C 1.399 6.621,1.482 6.837,1.536 6.930 C 1.743 7.283,2.117 7.549,2.538 7.643 L 2.754 7.691 2.773 12.076 C 2.791 16.297,2.804 16.770,2.922 17.580 C 3.171 19.278,3.843 20.367,5.040 21.013 C 5.591 21.310,6.485 21.545,7.420 21.639 C 8.939 21.792,15.061 21.792,16.580 21.639 C 19.366 21.359,20.701 20.155,21.078 17.580 C 21.196 16.770,21.209 16.297,21.227 12.076 L 21.246 7.691 21.462 7.643 C 21.883 7.549,22.257 7.283,22.464 6.930 C 22.518 6.837,22.601 6.621,22.646 6.450 C 22.721 6.171,22.729 6.028,22.729 5.000 C 22.729 3.972,22.721 3.829,22.646 3.550 C 22.468 2.885,22.125 2.539,21.454 2.350 L 21.140 2.262 12.340 2.256 C 7.500 2.253,3.342 2.265,3.100 2.282 M21.168 3.832 C 21.244 3.908,21.244 6.092,21.168 6.168 C 21.091 6.245,2.909 6.245,2.832 6.168 C 2.793 6.129,2.777 5.869,2.768 5.108 C 2.754 3.973,2.765 3.852,2.892 3.800 C 2.943 3.780,6.842 3.768,12.048 3.772 C 19.427 3.779,21.126 3.790,21.168 3.832 M11.240 10.880 C 11.240 12.596,11.233 14.000,11.225 14.000 C 11.216 14.000,10.818 13.566,10.339 13.036 C 9.435 12.033,9.304 11.923,9.009 11.921 C 8.746 11.919,8.456 12.098,8.331 12.339 C 8.236 12.521,8.246 12.836,8.352 13.015 C 8.484 13.240,11.494 16.568,11.645 16.657 C 11.731 16.708,11.850 16.733,12.000 16.733 C 12.150 16.733,12.269 16.708,12.355 16.657 C 12.504 16.569,15.515 13.241,15.646 13.020 C 15.749 12.844,15.761 12.515,15.670 12.339 C 15.544 12.098,15.254 11.919,14.991 11.921 C 14.696 11.923,14.565 12.033,13.661 13.036 C 13.182 13.566,12.784 14.000,12.775 14.000 C 12.767 14.000,12.760 12.596,12.760 10.880 L 12.760 7.760 16.260 7.760 L 19.760 7.760 19.760 11.370 C 19.759 16.859,19.698 17.674,19.212 18.680 C 18.732 19.674,17.875 20.060,15.840 20.199 C 15.086 20.251,8.914 20.251,8.160 20.199 C 6.121 20.060,5.274 19.678,4.787 18.680 C 4.302 17.687,4.241 16.869,4.241 11.370 L 4.240 7.760 7.740 7.760 L 11.240 7.760 11.240 10.880 " stroke="none" fill-rule="evenodd" fill="black"></path></svg>