<svg width="24" height="24" viewBox="0 0 24 24" fill="none" xmlns="http://www.w3.org/2000/svg"><path d="M9.020 1.279 C 7.798 1.309,7.164 1.350,6.460 1.443 C 4.721 1.673,3.536 2.222,2.728 3.171 C 1.845 4.207,1.467 5.455,1.320 7.820 C 1.258 8.801,1.231 14.248,1.279 15.940 C 1.321 17.450,1.374 18.011,1.536 18.647 C 1.997 20.464,3.532 22.002,5.343 22.462 C 6.285 22.701,7.559 22.757,12.000 22.757 C 16.427 22.757,17.716 22.700,18.647 22.464 C 20.465 22.003,22.002 20.468,22.462 18.656 C 22.626 18.008,22.679 17.457,22.721 15.940 C 22.768 14.250,22.741 8.850,22.680 7.840 C 22.520 5.160,22.000 3.725,20.829 2.728 C 19.793 1.845,18.521 1.460,16.180 1.321 C 15.262 1.267,10.607 1.239,9.020 1.279 M15.900 2.801 C 18.375 2.935,19.502 3.316,20.236 4.266 C 20.693 4.858,20.896 5.452,21.102 6.798 L 21.130 6.976 20.932 6.798 C 20.001 5.962,19.095 5.550,17.804 5.377 C 17.146 5.289,15.141 5.243,12.000 5.243 C 8.859 5.243,6.854 5.289,6.196 5.377 C 4.905 5.550,3.999 5.962,3.068 6.798 L 2.870 6.976 2.898 6.798 C 3.064 5.720,3.164 5.340,3.421 4.820 C 4.084 3.476,5.277 2.951,8.002 2.803 C 8.853 2.757,15.061 2.755,15.900 2.801 M17.613 6.851 C 18.674 7.012,19.334 7.328,20.003 7.997 C 20.704 8.698,21.031 9.419,21.166 10.560 C 21.243 11.219,21.243 16.781,21.166 17.440 C 21.031 18.581,20.704 19.302,20.003 20.003 C 19.331 20.676,18.681 20.986,17.602 21.150 C 17.180 21.214,16.701 21.220,12.040 21.220 C 6.677 21.220,6.580 21.217,5.811 21.039 C 5.143 20.883,4.519 20.528,3.995 20.005 C 3.472 19.481,3.117 18.857,2.961 18.189 C 2.791 17.455,2.780 17.200,2.780 13.960 C 2.780 10.624,2.791 10.402,3.003 9.641 C 3.345 8.404,4.481 7.298,5.733 6.981 C 6.062 6.898,6.623 6.822,7.180 6.785 C 7.290 6.778,9.585 6.775,12.280 6.779 C 16.590 6.785,17.232 6.794,17.613 6.851 M11.820 10.276 C 11.754 10.293,11.657 10.332,11.605 10.363 C 11.505 10.423,9.486 12.914,9.361 13.133 C 9.195 13.422,9.228 13.732,9.451 13.986 C 9.603 14.159,9.778 14.240,10.000 14.240 C 10.322 14.240,10.456 14.137,10.972 13.488 L 11.237 13.156 11.248 15.188 L 11.260 17.220 11.355 17.373 C 11.506 17.615,11.718 17.733,12.003 17.733 C 12.203 17.733,12.270 17.714,12.408 17.617 C 12.499 17.553,12.610 17.428,12.656 17.340 C 12.737 17.185,12.740 17.119,12.752 15.168 L 12.763 13.156 13.028 13.488 C 13.544 14.137,13.678 14.240,14.000 14.240 C 14.222 14.240,14.397 14.159,14.549 13.986 C 14.772 13.732,14.805 13.422,14.639 13.133 C 14.494 12.880,12.488 10.418,12.376 10.355 C 12.231 10.273,11.978 10.237,11.820 10.276 " stroke="none" fill-rule="evenodd" fill="black"></path></svg>