<svg width="24" height="24" viewBox="0 0 24 24" fill="none" xmlns="http://www.w3.org/2000/svg"><path d="M10.160 1.279 C 8.804 1.329,8.140 1.464,7.490 1.821 C 6.408 2.416,5.670 3.433,5.424 4.668 C 5.324 5.170,5.286 5.735,5.257 7.152 C 5.232 8.360,5.224 8.482,5.165 8.456 C 4.777 8.285,3.986 8.219,3.500 8.317 C 2.664 8.486,1.781 9.263,1.469 10.106 C 1.255 10.683,1.260 10.578,1.261 14.160 C 1.262 17.179,1.269 17.537,1.333 17.880 C 1.410 18.295,1.593 18.866,1.749 19.180 C 2.027 19.738,2.679 20.542,3.077 20.818 L 3.232 20.925 3.246 21.573 C 3.259 22.167,3.268 22.232,3.353 22.369 C 3.710 22.943,4.576 22.812,4.716 22.162 C 4.740 22.049,4.760 21.883,4.760 21.793 C 4.760 21.637,4.764 21.632,4.870 21.655 C 5.273 21.743,6.770 21.762,12.285 21.752 L 18.230 21.740 18.254 21.993 C 18.303 22.524,18.684 22.818,19.183 22.711 C 19.567 22.629,19.760 22.298,19.760 21.719 L 19.760 21.482 20.062 21.343 C 21.097 20.865,21.984 19.906,22.407 18.810 C 22.597 18.317,22.681 17.887,22.721 17.208 C 22.768 16.395,22.770 11.364,22.722 10.920 C 22.677 10.493,22.526 10.016,22.331 9.680 C 22.248 9.537,22.026 9.266,21.838 9.078 C 21.554 8.794,21.432 8.704,21.118 8.551 C 20.910 8.449,20.632 8.344,20.500 8.317 C 20.012 8.219,19.227 8.285,18.830 8.458 C 18.766 8.486,18.760 8.450,18.758 7.994 C 18.754 6.742,18.684 5.292,18.604 4.840 C 18.433 3.866,18.059 3.129,17.409 2.490 C 16.695 1.787,15.913 1.452,14.680 1.323 C 14.163 1.269,11.219 1.240,10.160 1.279 M14.946 2.854 C 15.455 2.955,15.796 3.099,16.101 3.342 C 16.818 3.913,17.095 4.481,17.195 5.580 C 17.219 5.844,17.240 6.976,17.241 8.100 C 17.243 9.782,17.234 10.169,17.186 10.303 C 17.058 10.665,17.040 11.036,17.040 13.318 L 17.040 15.600 12.000 15.600 L 6.960 15.600 6.960 13.318 C 6.960 11.036,6.942 10.665,6.814 10.303 C 6.766 10.169,6.757 9.782,6.759 8.100 C 6.761 5.947,6.792 5.353,6.926 4.800 C 7.162 3.827,7.934 3.088,8.928 2.882 C 9.407 2.783,9.890 2.768,12.220 2.779 C 14.237 2.788,14.672 2.800,14.946 2.854 M4.640 9.873 C 4.983 10.051,5.264 10.395,5.413 10.820 C 5.441 10.898,5.464 11.942,5.478 13.783 L 5.500 16.626 5.615 16.778 C 5.679 16.861,5.805 16.962,5.895 17.003 C 6.054 17.075,6.284 17.078,12.000 17.078 C 17.716 17.078,17.946 17.075,18.105 17.003 C 18.195 16.962,18.321 16.861,18.385 16.778 L 18.500 16.626 18.522 13.783 C 18.536 11.942,18.559 10.898,18.587 10.820 C 18.736 10.395,19.018 10.051,19.360 9.874 C 19.490 9.806,19.625 9.777,19.846 9.766 C 20.112 9.754,20.184 9.766,20.398 9.862 C 20.689 9.993,20.962 10.273,21.116 10.600 L 21.220 10.820 21.220 14.200 C 21.220 17.403,21.216 17.595,21.144 17.860 C 20.838 18.979,20.091 19.789,19.047 20.132 L 18.780 20.220 12.000 20.220 L 5.220 20.220 4.953 20.132 C 4.131 19.862,3.498 19.311,3.122 18.540 C 2.761 17.798,2.780 18.041,2.780 14.200 L 2.780 10.820 2.886 10.593 C 3.033 10.280,3.292 10.011,3.580 9.872 C 3.794 9.769,3.855 9.757,4.140 9.768 C 4.380 9.777,4.505 9.803,4.640 9.873 " stroke="none" fill-rule="evenodd" fill="black"></path></svg>