<svg width="24" height="24" viewBox="0 0 24 24" fill="none" xmlns="http://www.w3.org/2000/svg"><path d="M9.100 3.282 C 8.194 3.313,7.682 3.384,7.204 3.544 C 6.060 3.926,5.461 4.787,5.323 6.245 C 5.301 6.478,5.270 7.321,5.255 8.117 C 5.230 9.418,5.221 9.561,5.164 9.535 C 4.309 9.154,3.361 9.182,2.540 9.613 C 2.178 9.803,1.693 10.307,1.513 10.680 C 1.433 10.845,1.345 11.079,1.316 11.200 C 1.238 11.525,1.259 12.047,1.362 12.380 C 1.494 12.805,2.796 16.274,2.901 16.480 C 3.053 16.778,3.391 17.230,3.653 17.487 C 3.962 17.790,4.615 18.225,4.981 18.372 L 5.260 18.485 5.260 19.352 C 5.260 20.190,5.263 20.225,5.353 20.369 C 5.710 20.943,6.576 20.812,6.716 20.162 C 6.740 20.049,6.760 19.687,6.760 19.358 L 6.760 18.760 11.875 18.760 C 14.688 18.760,17.045 18.749,17.111 18.736 L 17.232 18.712 17.246 19.466 C 17.259 20.172,17.266 20.229,17.353 20.369 C 17.710 20.943,18.576 20.812,18.716 20.162 C 18.740 20.049,18.760 19.623,18.760 19.216 L 18.760 18.476 18.910 18.414 C 19.977 17.976,20.812 17.174,21.214 16.199 C 21.424 15.690,22.539 12.699,22.638 12.378 C 22.739 12.050,22.759 11.530,22.683 11.200 C 22.655 11.079,22.567 10.845,22.487 10.680 C 22.307 10.307,21.822 9.803,21.460 9.613 C 20.636 9.180,19.702 9.154,18.830 9.538 C 18.765 9.566,18.760 9.520,18.759 8.874 C 18.757 7.558,18.689 6.168,18.604 5.733 C 18.338 4.361,17.576 3.633,16.137 3.380 C 15.935 3.344,15.329 3.301,14.740 3.280 C 13.561 3.237,10.360 3.238,9.100 3.282 M15.960 4.855 C 16.125 4.893,16.374 4.979,16.513 5.046 C 16.720 5.146,16.791 5.207,16.903 5.382 C 17.204 5.853,17.240 6.267,17.240 9.284 L 17.240 11.668 16.825 12.684 C 16.597 13.243,16.387 13.751,16.357 13.813 C 16.246 14.051,16.455 14.040,11.992 14.040 C 8.092 14.040,7.894 14.036,7.780 13.966 C 7.676 13.902,7.601 13.745,7.209 12.776 L 6.759 11.660 6.761 9.260 C 6.763 6.222,6.797 5.832,7.096 5.380 C 7.312 5.052,7.750 4.869,8.480 4.800 C 8.667 4.783,10.359 4.773,12.240 4.778 C 15.301 4.786,15.691 4.794,15.960 4.855 M4.417 10.842 C 4.749 10.966,4.956 11.191,5.116 11.600 C 5.189 11.787,5.273 11.994,5.302 12.060 C 5.331 12.126,5.555 12.675,5.801 13.280 C 6.047 13.885,6.276 14.434,6.309 14.500 C 6.523 14.925,6.952 15.287,7.434 15.449 L 7.700 15.538 11.640 15.552 C 14.308 15.561,15.728 15.551,16.038 15.521 C 16.570 15.470,16.835 15.377,17.169 15.125 C 17.548 14.838,17.653 14.643,18.323 12.970 C 18.475 12.590,18.634 12.203,18.675 12.110 C 18.717 12.016,18.811 11.787,18.884 11.601 C 19.110 11.022,19.481 10.760,20.074 10.760 C 20.432 10.760,20.676 10.848,20.917 11.065 C 21.157 11.281,21.259 11.515,21.231 11.789 C 21.206 12.037,19.853 15.649,19.675 15.943 C 19.298 16.566,18.527 17.066,17.740 17.198 C 17.532 17.233,16.016 17.242,11.840 17.232 C 5.524 17.218,6.084 17.246,5.400 16.910 C 5.132 16.778,4.987 16.670,4.715 16.401 C 4.502 16.190,4.328 15.977,4.260 15.842 C 4.065 15.455,2.790 11.987,2.769 11.789 C 2.741 11.515,2.843 11.281,3.084 11.064 C 3.193 10.966,3.358 10.859,3.451 10.826 C 3.705 10.736,4.153 10.744,4.417 10.842 " stroke="none" fill-rule="evenodd" fill="black"></path></svg>