<svg width="24" height="24" viewBox="0 0 24 24" fill="none" xmlns="http://www.w3.org/2000/svg"><path d="M5.815 5.278 C 5.639 5.320,5.462 5.455,5.353 5.631 L 5.260 5.780 5.260 10.500 L 5.260 15.220 5.353 15.369 C 5.710 15.943,6.576 15.812,6.716 15.162 C 6.746 15.020,6.760 13.843,6.760 11.388 L 6.760 7.821 12.190 13.247 C 17.472 18.525,17.625 18.674,17.810 18.711 C 18.390 18.830,18.830 18.390,18.711 17.810 C 18.674 17.625,18.525 17.472,13.247 12.190 L 7.821 6.760 11.388 6.760 C 13.843 6.760,15.020 6.746,15.162 6.716 C 15.904 6.557,15.924 5.471,15.189 5.286 C 14.979 5.234,6.034 5.226,5.815 5.278 " stroke="none" fill-rule="evenodd" fill="black"></path></svg>