<svg width="24" height="24" viewBox="0 0 24 24" fill="none" xmlns="http://www.w3.org/2000/svg"><path d="M16.040 3.820 C 15.272 3.926,14.623 4.139,14.027 4.481 C 12.614 5.291,11.699 6.662,11.334 8.520 C 11.275 8.822,11.266 9.353,11.251 13.256 L 11.235 17.653 9.347 15.768 C 8.067 14.491,7.411 13.864,7.311 13.822 C 6.932 13.664,6.522 13.813,6.331 14.179 C 6.248 14.338,6.252 14.668,6.338 14.841 C 6.445 15.053,11.506 20.102,11.689 20.178 C 11.878 20.257,12.122 20.257,12.311 20.178 C 12.494 20.102,17.555 15.053,17.662 14.841 C 17.748 14.668,17.752 14.338,17.669 14.179 C 17.478 13.813,17.068 13.664,16.689 13.822 C 16.587 13.864,15.940 14.483,14.650 15.771 L 12.760 17.658 12.760 13.374 C 12.760 8.672,12.756 8.762,13.003 8.024 C 13.398 6.846,14.149 6.007,15.200 5.569 C 15.562 5.418,16.001 5.323,16.546 5.278 C 17.272 5.218,17.305 5.210,17.463 5.072 C 17.655 4.904,17.731 4.740,17.731 4.500 C 17.731 4.193,17.540 3.905,17.267 3.803 C 17.119 3.746,16.515 3.755,16.040 3.820 " stroke="none" fill-rule="evenodd" fill="black"></path></svg>