<svg width="24" height="24" viewBox="0 0 24 24" fill="none" xmlns="http://www.w3.org/2000/svg"><path d="M6.720 3.805 C 6.458 3.909,6.269 4.200,6.269 4.500 C 6.269 4.740,6.345 4.904,6.537 5.072 C 6.695 5.210,6.728 5.218,7.454 5.278 C 7.999 5.323,8.438 5.418,8.800 5.569 C 9.851 6.007,10.602 6.846,10.997 8.024 C 11.244 8.762,11.240 8.672,11.240 13.374 L 11.240 17.657 9.349 15.770 C 8.067 14.491,7.411 13.864,7.311 13.822 C 6.932 13.664,6.522 13.813,6.331 14.179 C 6.248 14.338,6.252 14.668,6.338 14.841 C 6.445 15.053,11.506 20.102,11.689 20.178 C 11.878 20.257,12.122 20.257,12.311 20.178 C 12.494 20.102,17.555 15.053,17.662 14.841 C 17.748 14.668,17.752 14.338,17.669 14.179 C 17.478 13.813,17.068 13.664,16.689 13.822 C 16.587 13.864,15.941 14.482,14.652 15.769 L 12.765 17.654 12.749 13.257 C 12.731 8.466,12.741 8.683,12.498 7.823 C 11.941 5.855,10.537 4.434,8.681 3.960 C 8.009 3.789,6.968 3.706,6.720 3.805 " stroke="none" fill-rule="evenodd" fill="black"></path></svg>