<svg width="24" height="24" viewBox="0 0 24 24" fill="none" xmlns="http://www.w3.org/2000/svg"><path d="M8.815 5.278 C 8.331 5.393,8.098 6.004,8.383 6.408 C 8.447 6.499,8.572 6.610,8.660 6.656 C 8.818 6.739,8.856 6.740,12.499 6.751 L 16.177 6.762 10.751 12.191 C 6.824 16.120,5.316 17.653,5.293 17.740 C 5.135 18.350,5.583 18.836,6.189 18.712 C 6.375 18.673,6.515 18.538,11.809 13.248 L 17.238 7.823 17.249 11.521 L 17.260 15.220 17.353 15.369 C 17.710 15.943,18.576 15.812,18.716 15.162 C 18.778 14.873,18.778 6.127,18.716 5.838 C 18.658 5.570,18.450 5.352,18.189 5.286 C 17.979 5.234,9.034 5.226,8.815 5.278 " stroke="none" fill-rule="evenodd" fill="black"></path></svg>