<svg width="24" height="24" viewBox="0 0 24 24" fill="none" xmlns="http://www.w3.org/2000/svg"><path d="M11.900 3.259 C 11.878 3.267,11.806 3.285,11.740 3.299 C 11.650 3.319,10.852 4.091,8.528 6.413 C 6.827 8.111,5.398 9.561,5.351 9.636 C 5.232 9.826,5.235 10.177,5.356 10.374 C 5.532 10.659,5.840 10.783,6.189 10.711 C 6.373 10.673,6.465 10.587,8.809 8.247 L 11.239 5.823 11.249 13.021 L 11.260 20.220 11.353 20.369 C 11.710 20.943,12.576 20.812,12.716 20.162 C 12.747 20.016,12.760 17.899,12.760 12.889 L 12.760 5.822 15.190 8.247 C 17.529 10.581,17.627 10.673,17.810 10.711 C 18.390 10.831,18.831 10.390,18.711 9.810 C 18.673 9.626,18.568 9.516,15.586 6.528 C 13.889 4.827,12.446 3.403,12.380 3.362 C 12.264 3.291,11.981 3.230,11.900 3.259 " stroke="none" fill-rule="evenodd" fill="black"></path></svg>