<svg width="24" height="24" viewBox="0 0 24 24" fill="none" xmlns="http://www.w3.org/2000/svg"><path d="M17.900 5.258 C 17.878 5.266,17.806 5.285,17.740 5.299 C 17.649 5.318,16.311 6.633,12.190 10.752 L 6.760 16.179 6.760 12.612 C 6.760 10.157,6.746 8.980,6.716 8.838 C 6.575 8.182,5.713 8.051,5.353 8.631 L 5.260 8.780 5.260 13.507 L 5.260 18.233 5.380 18.403 C 5.446 18.496,5.572 18.610,5.660 18.656 C 5.819 18.740,5.843 18.740,10.380 18.751 C 13.605 18.758,15.002 18.749,15.153 18.717 C 15.902 18.562,15.929 17.473,15.189 17.286 C 15.056 17.253,14.003 17.240,11.413 17.240 L 7.821 17.240 13.247 11.810 C 18.538 6.515,18.673 6.375,18.712 6.189 C 18.784 5.834,18.634 5.481,18.352 5.349 C 18.212 5.283,17.967 5.234,17.900 5.258 " stroke="none" fill-rule="evenodd" fill="black"></path></svg>