<svg width="24" height="24" viewBox="0 0 24 24" fill="none" xmlns="http://www.w3.org/2000/svg"><path d="M13.815 5.277 C 13.639 5.320,13.461 5.456,13.356 5.626 C 13.234 5.823,13.232 6.174,13.352 6.364 C 13.398 6.439,14.499 7.562,15.798 8.860 L 18.160 11.220 10.970 11.240 L 3.780 11.260 3.627 11.355 C 3.385 11.506,3.267 11.718,3.267 12.003 C 3.267 12.203,3.286 12.270,3.383 12.408 C 3.447 12.499,3.572 12.610,3.660 12.656 L 3.820 12.740 10.990 12.760 L 18.160 12.780 15.798 15.140 C 14.499 16.438,13.398 17.561,13.352 17.636 C 13.218 17.848,13.233 18.194,13.383 18.408 C 13.447 18.499,13.568 18.608,13.651 18.651 C 13.837 18.747,14.139 18.753,14.325 18.664 C 14.403 18.628,15.805 17.255,17.567 15.490 C 20.568 12.484,20.673 12.374,20.711 12.190 C 20.737 12.066,20.737 11.934,20.711 11.810 C 20.673 11.626,20.568 11.516,17.567 8.510 C 15.859 6.800,14.407 5.375,14.341 5.343 C 14.176 5.266,13.966 5.239,13.815 5.277 " stroke="none" fill-rule="evenodd" fill="black"></path></svg>