<svg width="24" height="24" viewBox="0 0 24 24" fill="none" xmlns="http://www.w3.org/2000/svg"><path d="M11.815 3.277 C 11.638 3.321,11.461 3.456,11.353 3.631 L 11.260 3.780 11.249 10.979 L 11.239 18.177 8.809 15.753 C 6.424 13.372,6.376 13.327,6.179 13.286 C 5.829 13.214,5.536 13.335,5.356 13.626 C 5.235 13.823,5.232 14.174,5.351 14.364 C 5.398 14.439,6.827 15.889,8.528 17.586 C 11.516 20.568,11.626 20.673,11.810 20.711 C 11.933 20.737,12.067 20.737,12.190 20.711 C 12.374 20.674,12.482 20.571,15.526 17.526 C 18.571 14.482,18.674 14.374,18.711 14.190 C 18.798 13.766,18.576 13.384,18.186 13.286 C 18.016 13.243,17.940 13.246,17.700 13.308 C 17.656 13.319,16.527 14.420,15.190 15.754 L 12.760 18.178 12.759 11.099 C 12.758 6.378,12.744 3.960,12.717 3.841 C 12.623 3.432,12.215 3.177,11.815 3.277 " stroke="none" fill-rule="evenodd" fill="black"></path></svg>