<svg width="24" height="24" viewBox="0 0 24 24" fill="none" xmlns="http://www.w3.org/2000/svg"><path d="M5.815 5.278 C 5.408 5.375,5.177 5.811,5.293 6.260 C 5.316 6.347,6.824 7.880,10.751 11.809 L 16.177 17.238 12.476 17.249 L 8.774 17.260 8.612 17.367 C 8.372 17.526,8.267 17.721,8.267 18.007 C 8.267 18.203,8.286 18.270,8.383 18.408 C 8.447 18.499,8.572 18.610,8.660 18.656 C 8.819 18.740,8.843 18.740,13.380 18.751 C 16.605 18.758,18.002 18.749,18.153 18.717 C 18.445 18.657,18.654 18.450,18.716 18.162 C 18.778 17.873,18.778 9.127,18.716 8.838 C 18.575 8.182,17.713 8.051,17.353 8.631 L 17.260 8.780 17.249 12.479 L 17.238 16.177 11.809 10.754 C 6.644 5.594,6.371 5.328,6.192 5.285 C 5.986 5.235,5.993 5.236,5.815 5.278 " stroke="none" fill-rule="evenodd" fill="black"></path></svg>