<svg width="24" height="24" viewBox="0 0 24 24" fill="none" xmlns="http://www.w3.org/2000/svg"><path d="M11.680 3.823 C 11.505 3.899,6.439 8.959,6.338 9.159 C 6.252 9.332,6.248 9.662,6.331 9.821 C 6.522 10.187,6.932 10.336,7.311 10.178 C 7.411 10.136,8.067 9.509,9.347 8.232 L 11.235 6.347 11.251 10.744 C 11.269 15.534,11.259 15.317,11.502 16.177 C 12.059 18.147,13.461 19.566,15.319 20.040 C 15.995 20.212,17.011 20.294,17.267 20.197 C 17.540 20.095,17.731 19.807,17.731 19.500 C 17.731 19.260,17.655 19.096,17.463 18.928 C 17.305 18.790,17.272 18.782,16.546 18.722 C 16.001 18.677,15.562 18.582,15.200 18.431 C 14.149 17.993,13.398 17.154,13.003 15.976 C 12.756 15.238,12.760 15.328,12.760 10.626 L 12.760 6.343 14.651 8.230 C 15.933 9.509,16.589 10.136,16.689 10.178 C 17.068 10.336,17.478 10.187,17.669 9.821 C 17.752 9.662,17.748 9.332,17.662 9.159 C 17.555 8.947,12.494 3.898,12.311 3.822 C 12.125 3.744,11.862 3.745,11.680 3.823 " stroke="none" fill-rule="evenodd" fill="black"></path></svg>