<svg width="24" height="24" viewBox="0 0 24 24" fill="none" xmlns="http://www.w3.org/2000/svg"><path d="M9.900 5.258 C 9.878 5.266,9.806 5.285,9.740 5.299 C 9.650 5.319,8.852 6.091,6.528 8.413 C 4.827 10.111,3.398 11.561,3.351 11.636 C 3.235 11.822,3.235 12.178,3.351 12.364 C 3.398 12.439,4.827 13.889,6.528 15.586 C 9.516 18.568,9.626 18.673,9.810 18.711 C 10.390 18.831,10.831 18.390,10.711 17.810 C 10.673 17.627,10.581 17.529,8.247 15.190 L 5.822 12.760 12.889 12.760 C 17.899 12.760,20.016 12.747,20.162 12.716 C 20.904 12.557,20.924 11.471,20.189 11.286 C 20.053 11.252,18.156 11.240,12.913 11.240 L 5.822 11.240 8.247 8.810 C 10.587 6.465,10.673 6.373,10.711 6.189 C 10.785 5.834,10.634 5.482,10.352 5.349 C 10.212 5.283,9.967 5.234,9.900 5.258 " stroke="none" fill-rule="evenodd" fill="black"></path></svg>