<svg width="24" height="24" viewBox="0 0 24 24" fill="none" xmlns="http://www.w3.org/2000/svg"><path d="M11.680 3.823 C 11.505 3.899,6.439 8.959,6.338 9.159 C 6.252 9.332,6.248 9.662,6.331 9.821 C 6.522 10.187,6.932 10.336,7.311 10.178 C 7.411 10.136,8.067 9.509,9.349 8.230 L 11.240 6.343 11.240 10.626 C 11.240 15.328,11.244 15.238,10.997 15.976 C 10.603 17.152,9.849 17.994,8.800 18.431 C 8.438 18.582,7.999 18.677,7.454 18.722 C 6.728 18.782,6.695 18.790,6.537 18.928 C 6.345 19.096,6.269 19.260,6.269 19.500 C 6.269 19.807,6.460 20.095,6.733 20.197 C 6.987 20.294,8.005 20.212,8.667 20.043 C 10.537 19.566,11.940 18.150,12.498 16.177 C 12.741 15.317,12.731 15.534,12.749 10.744 L 12.765 6.347 14.653 8.232 C 15.933 9.509,16.589 10.136,16.689 10.178 C 17.068 10.336,17.478 10.187,17.669 9.821 C 17.752 9.662,17.748 9.332,17.662 9.159 C 17.555 8.947,12.494 3.898,12.311 3.822 C 12.125 3.744,11.862 3.745,11.680 3.823 " stroke="none" fill-rule="evenodd" fill="black"></path></svg>