<svg width="24" height="24" viewBox="0 0 24 24" fill="none" xmlns="http://www.w3.org/2000/svg"><path d="M5.402 1.283 C 4.755 1.346,4.065 1.527,3.620 1.751 C 1.307 2.915,0.649 5.673,1.847 9.180 C 2.128 10.005,2.750 11.377,3.086 11.914 C 3.130 11.986,3.130 12.014,3.086 12.086 C 2.923 12.346,2.454 13.295,2.248 13.780 C 1.142 16.387,0.959 18.628,1.718 20.302 C 2.092 21.127,2.874 21.908,3.701 22.283 C 5.460 23.081,7.888 22.829,10.644 21.562 C 10.966 21.414,11.396 21.200,11.600 21.087 C 11.804 20.973,11.982 20.880,11.996 20.880 C 12.010 20.880,12.237 20.997,12.501 21.140 C 14.560 22.257,16.893 22.871,18.503 22.721 C 19.817 22.599,20.702 22.223,21.462 21.462 C 22.324 20.600,22.729 19.495,22.730 18.000 C 22.731 17.097,22.626 16.404,22.335 15.400 C 22.062 14.460,21.555 13.242,21.087 12.400 C 20.973 12.196,20.880 12.016,20.880 12.000 C 20.880 11.984,20.973 11.804,21.087 11.600 C 21.555 10.758,22.062 9.540,22.335 8.600 C 22.626 7.596,22.731 6.903,22.730 6.000 C 22.729 4.505,22.324 3.400,21.462 2.538 C 20.697 1.773,19.826 1.402,18.511 1.279 C 16.892 1.129,14.564 1.741,12.501 2.860 C 12.237 3.003,12.010 3.120,11.996 3.120 C 11.982 3.120,11.804 3.027,11.600 2.913 C 11.396 2.800,10.966 2.586,10.644 2.438 C 9.173 1.762,7.812 1.377,6.551 1.281 C 5.965 1.236,5.893 1.236,5.402 1.283 M6.930 2.821 C 7.731 2.942,8.715 3.229,9.559 3.589 C 10.017 3.785,10.520 4.031,10.520 4.059 C 10.520 4.069,10.408 4.153,10.270 4.246 C 8.915 5.159,6.936 6.964,5.692 8.420 C 5.155 9.049,4.531 9.846,4.246 10.270 C 4.153 10.408,4.067 10.520,4.056 10.520 C 4.016 10.520,3.572 9.545,3.389 9.058 C 3.166 8.462,2.989 7.850,2.871 7.265 C 2.794 6.889,2.781 6.697,2.782 6.020 C 2.784 5.098,2.836 4.832,3.126 4.241 C 3.418 3.647,3.995 3.161,4.665 2.943 C 5.241 2.757,6.166 2.707,6.930 2.821 M19.100 2.874 C 20.158 3.156,20.836 3.833,21.128 4.900 C 21.204 5.178,21.216 5.324,21.218 6.020 C 21.219 6.697,21.206 6.889,21.129 7.265 C 21.011 7.850,20.834 8.462,20.611 9.058 C 20.428 9.545,19.984 10.520,19.944 10.520 C 19.933 10.520,19.847 10.408,19.755 10.270 C 19.493 9.881,18.735 8.913,18.242 8.340 C 17.050 6.953,15.024 5.114,13.730 4.245 C 13.593 4.153,13.480 4.067,13.480 4.056 C 13.480 4.018,14.447 3.575,14.900 3.406 C 15.652 3.124,16.359 2.932,17.057 2.818 C 17.562 2.735,18.696 2.767,19.100 2.874 M12.437 5.166 C 13.635 5.975,14.720 6.872,15.835 7.973 C 16.981 9.107,17.996 10.322,18.839 11.570 L 19.129 12.000 18.839 12.430 C 17.189 14.874,14.874 17.189,12.430 18.839 L 12.000 19.129 11.570 18.839 C 9.480 17.428,7.412 15.464,5.903 13.460 C 5.655 13.130,5.321 12.666,5.161 12.430 L 4.871 12.000 5.161 11.570 C 6.572 9.480,8.537 7.410,10.540 5.903 C 11.084 5.494,11.955 4.882,11.997 4.881 C 12.006 4.880,12.204 5.009,12.437 5.166 M11.405 8.805 C 10.790 8.907,10.216 9.217,9.716 9.716 C 9.065 10.368,8.761 11.095,8.761 12.000 C 8.761 12.905,9.065 13.632,9.716 14.284 C 10.368 14.935,11.095 15.239,12.000 15.239 C 12.905 15.239,13.632 14.935,14.284 14.284 C 14.935 13.632,15.239 12.905,15.239 12.000 C 15.239 11.095,14.935 10.368,14.284 9.716 C 13.619 9.052,12.889 8.753,11.960 8.765 C 11.773 8.767,11.523 8.785,11.405 8.805 M12.293 10.279 C 12.634 10.335,12.931 10.487,13.202 10.745 C 13.929 11.439,13.929 12.561,13.202 13.255 C 12.511 13.914,11.489 13.914,10.798 13.255 C 10.090 12.580,10.068 11.508,10.745 10.798 C 11.164 10.359,11.696 10.181,12.293 10.279 M4.246 13.730 C 4.531 14.154,5.155 14.951,5.692 15.580 C 6.936 17.036,8.915 18.841,10.270 19.754 C 10.408 19.847,10.520 19.933,10.520 19.944 C 10.520 19.980,9.565 20.421,9.140 20.581 C 8.326 20.887,7.487 21.107,6.771 21.202 C 6.251 21.271,5.313 21.232,4.900 21.124 C 3.847 20.849,3.165 20.168,2.872 19.100 C 2.796 18.822,2.784 18.676,2.782 17.980 C 2.781 17.303,2.794 17.111,2.871 16.735 C 2.989 16.150,3.166 15.538,3.389 14.942 C 3.572 14.455,4.016 13.480,4.056 13.480 C 4.067 13.480,4.153 13.593,4.246 13.730 M20.198 13.970 C 20.623 14.868,20.945 15.822,21.130 16.735 C 21.206 17.113,21.220 17.300,21.217 17.980 C 21.215 18.671,21.203 18.824,21.127 19.100 C 20.838 20.165,20.156 20.846,19.100 21.125 C 18.692 21.233,17.750 21.271,17.226 21.202 C 16.513 21.107,15.672 20.887,14.860 20.581 C 14.435 20.421,13.480 19.980,13.480 19.944 C 13.480 19.933,13.593 19.847,13.730 19.755 C 15.024 18.886,17.050 17.047,18.242 15.660 C 18.735 15.087,19.493 14.119,19.755 13.730 C 19.847 13.593,19.933 13.480,19.944 13.480 C 19.956 13.480,20.070 13.700,20.198 13.970 " stroke="none" fill-rule="evenodd" fill="black"></path></svg>