<svg width="24" height="24" viewBox="0 0 24 24" fill="none" xmlns="http://www.w3.org/2000/svg"><path d="M8.960 1.280 C 6.960 1.332,5.848 1.469,4.900 1.779 C 3.060 2.382,1.958 3.688,1.563 5.734 C 1.311 7.042,1.267 7.973,1.267 12.000 C 1.267 16.027,1.311 16.958,1.563 18.266 C 2.013 20.599,3.401 21.987,5.734 22.437 C 7.034 22.688,7.987 22.733,12.000 22.733 C 16.013 22.733,16.966 22.688,18.266 22.437 C 20.599 21.987,21.987 20.599,22.437 18.266 C 22.688 16.966,22.733 16.013,22.733 12.000 C 22.733 7.987,22.688 7.034,22.437 5.734 C 22.098 3.977,21.228 2.756,19.825 2.068 C 18.978 1.652,17.875 1.425,16.200 1.321 C 15.315 1.266,10.534 1.239,8.960 1.280 M16.787 2.853 C 17.971 2.982,18.589 3.129,19.180 3.421 C 20.200 3.924,20.776 4.815,21.019 6.260 C 21.215 7.435,21.251 8.515,21.229 12.620 C 21.210 16.115,21.195 16.526,21.055 17.500 C 20.734 19.744,19.757 20.726,17.520 21.054 C 16.474 21.207,16.036 21.220,12.000 21.220 C 7.964 21.220,7.526 21.207,6.480 21.054 C 4.384 20.747,3.408 19.870,3.021 17.947 C 2.796 16.826,2.780 16.428,2.780 12.000 C 2.780 8.382,2.788 7.864,2.852 7.240 C 3.025 5.550,3.340 4.663,4.001 4.001 C 4.665 3.338,5.593 3.009,7.220 2.862 C 8.207 2.772,8.227 2.772,12.400 2.782 C 15.524 2.790,16.323 2.803,16.787 2.853 M8.340 7.277 C 8.173 7.317,8.078 7.374,7.946 7.513 C 7.849 7.615,7.652 8.209,6.595 11.586 C 5.914 13.761,5.331 15.639,5.298 15.760 C 5.090 16.524,5.967 17.073,6.517 16.523 C 6.647 16.393,6.692 16.279,6.987 15.340 C 7.167 14.768,7.336 14.223,7.363 14.130 L 7.413 13.960 8.500 13.960 L 9.587 13.960 9.637 14.130 C 9.664 14.223,9.833 14.768,10.013 15.340 C 10.308 16.279,10.353 16.393,10.483 16.523 C 10.773 16.813,11.229 16.811,11.520 16.520 C 11.697 16.343,11.778 16.078,11.726 15.851 C 11.707 15.768,11.129 13.900,10.442 11.700 C 9.130 7.499,9.134 7.512,8.856 7.355 C 8.710 7.272,8.495 7.240,8.340 7.277 M13.807 7.285 C 13.557 7.344,13.341 7.573,13.284 7.838 C 13.222 8.127,13.222 15.873,13.284 16.162 C 13.447 16.920,14.553 16.920,14.716 16.162 C 14.744 16.031,14.760 15.374,14.760 14.358 L 14.760 12.760 14.930 12.761 L 15.100 12.761 16.239 14.591 C 16.865 15.597,17.435 16.476,17.506 16.545 C 18.010 17.033,18.873 16.538,18.718 15.849 C 18.693 15.739,18.346 15.145,17.738 14.173 C 17.220 13.345,16.811 12.654,16.828 12.638 C 16.846 12.622,16.959 12.567,17.080 12.517 C 17.869 12.188,18.503 11.420,18.681 10.577 C 18.746 10.273,18.746 9.727,18.681 9.423 C 18.581 8.949,18.285 8.403,17.941 8.059 C 17.615 7.733,17.076 7.435,16.600 7.316 C 16.360 7.256,14.038 7.231,13.807 7.285 M16.460 8.843 C 17.279 9.150,17.505 10.251,16.878 10.878 C 16.562 11.194,16.386 11.240,15.498 11.240 L 14.760 11.240 14.760 10.000 L 14.760 8.760 15.498 8.760 C 16.149 8.760,16.264 8.770,16.460 8.843 M8.815 11.508 C 8.961 11.974,9.080 12.374,9.080 12.398 C 9.080 12.426,8.882 12.440,8.500 12.440 C 8.094 12.440,7.920 12.426,7.920 12.395 C 7.920 12.355,8.170 11.541,8.408 10.804 C 8.462 10.637,8.501 10.568,8.520 10.604 C 8.537 10.635,8.670 11.041,8.815 11.508 " stroke="none" fill-rule="evenodd" fill="black"></path></svg>