<svg width="24" height="24" viewBox="0 0 24 24" fill="none" xmlns="http://www.w3.org/2000/svg"><path d="M10.600 1.279 C 9.858 1.360,9.304 1.587,8.671 2.069 C 8.146 2.468,7.654 3.167,7.462 3.786 C 7.298 4.315,7.303 4.307,7.141 4.337 C 6.896 4.383,6.283 4.632,5.840 4.866 C 4.820 5.405,4.027 6.121,3.392 7.080 C 2.736 8.069,2.373 9.131,2.280 10.334 C 2.228 10.996,2.230 16.217,2.282 16.820 C 2.461 18.892,3.802 20.636,5.754 21.336 C 6.129 21.470,7.418 21.735,8.320 21.864 C 10.743 22.209,13.254 22.209,15.680 21.863 C 16.584 21.735,17.872 21.470,18.246 21.336 C 19.186 20.999,20.014 20.401,20.617 19.623 C 21.281 18.767,21.626 17.889,21.718 16.820 C 21.770 16.217,21.772 10.996,21.720 10.334 C 21.561 8.280,20.543 6.477,18.879 5.300 C 18.330 4.912,17.297 4.419,16.859 4.337 C 16.697 4.307,16.702 4.315,16.538 3.787 C 16.172 2.608,15.082 1.631,13.804 1.335 C 13.498 1.265,11.115 1.223,10.600 1.279 M13.572 2.820 C 13.866 2.896,14.131 3.031,14.393 3.238 C 14.603 3.404,14.960 3.823,14.960 3.903 C 14.960 3.934,14.857 3.932,14.610 3.895 C 13.119 3.673,10.989 3.672,9.410 3.893 C 9.154 3.929,9.040 3.932,9.040 3.903 C 9.040 3.823,9.398 3.403,9.607 3.238 C 9.861 3.037,10.133 2.896,10.411 2.822 C 10.723 2.737,13.251 2.736,13.572 2.820 M13.000 5.241 C 14.300 5.321,15.907 5.583,16.680 5.842 C 18.413 6.422,19.701 7.860,20.146 9.707 C 20.200 9.932,20.214 10.290,20.229 11.746 L 20.246 13.512 19.819 13.679 C 17.295 14.665,14.667 15.162,11.980 15.159 C 9.300 15.156,6.698 14.662,4.181 13.679 L 3.755 13.512 3.771 11.746 C 3.786 10.127,3.794 9.951,3.870 9.637 C 4.239 8.117,5.284 6.795,6.660 6.109 C 7.088 5.896,7.631 5.728,8.381 5.579 C 9.986 5.260,11.504 5.149,13.000 5.241 M9.826 12.284 C 9.476 12.366,9.267 12.636,9.267 13.003 C 9.267 13.281,9.387 13.496,9.627 13.645 L 9.780 13.740 12.000 13.740 L 14.220 13.740 14.369 13.647 C 14.943 13.290,14.812 12.424,14.162 12.284 C 13.910 12.230,10.056 12.230,9.826 12.284 M5.300 15.649 C 8.733 16.701,12.469 16.928,16.020 16.298 C 16.328 16.244,16.620 16.190,16.670 16.179 C 16.760 16.159,16.760 16.161,16.760 16.657 C 16.760 17.197,16.788 17.320,16.953 17.494 C 17.111 17.661,17.273 17.731,17.501 17.731 C 17.724 17.731,17.842 17.684,18.013 17.525 C 18.208 17.344,18.219 17.298,18.240 16.522 L 18.260 15.784 18.800 15.618 C 19.097 15.527,19.544 15.378,19.794 15.287 L 20.247 15.122 20.230 16.091 C 20.210 17.192,20.183 17.342,19.897 17.953 C 19.476 18.852,18.779 19.516,17.880 19.875 C 17.329 20.095,15.572 20.410,14.130 20.548 C 13.143 20.642,10.857 20.642,9.870 20.548 C 8.499 20.417,6.719 20.104,6.168 19.897 C 5.269 19.559,4.529 18.862,4.103 17.953 C 3.817 17.342,3.790 17.192,3.770 16.091 L 3.753 15.122 4.206 15.287 C 4.456 15.378,4.948 15.541,5.300 15.649 " stroke="none" fill-rule="evenodd" fill="black"></path></svg>