<svg width="24" height="24" viewBox="0 0 24 24" fill="none" xmlns="http://www.w3.org/2000/svg"><path d="M9.360 3.281 C 8.128 3.321,7.538 3.418,6.865 3.692 C 6.393 3.885,5.994 4.163,5.537 4.618 C 5.077 5.077,4.896 5.312,4.172 6.400 C 3.013 8.141,1.996 9.770,1.702 10.357 C 1.239 11.278,1.152 12.103,1.425 12.968 C 1.612 13.562,1.904 14.084,3.042 15.863 C 4.583 18.271,4.963 18.808,5.517 19.364 C 6.270 20.118,6.897 20.433,8.020 20.622 C 8.645 20.728,10.630 20.770,13.840 20.746 C 17.414 20.720,18.216 20.674,19.224 20.439 C 21.042 20.016,22.115 18.891,22.498 17.008 C 22.632 16.352,22.681 15.671,22.727 13.850 C 22.780 11.776,22.727 8.691,22.623 7.812 C 22.392 5.839,21.738 4.705,20.428 4.000 C 19.548 3.526,18.472 3.342,16.220 3.279 C 14.735 3.238,10.668 3.239,9.360 3.281 M17.800 4.836 C 19.608 5.054,20.372 5.491,20.813 6.560 C 21.172 7.430,21.239 8.278,21.239 12.000 C 21.239 15.722,21.172 16.570,20.813 17.440 C 20.372 18.509,19.609 18.945,17.800 19.164 C 17.245 19.231,9.485 19.263,8.745 19.201 C 7.205 19.072,6.696 18.707,5.453 16.840 C 4.818 15.887,3.516 13.835,3.240 13.355 C 2.756 12.509,2.665 12.044,2.867 11.434 C 3.003 11.022,3.312 10.485,4.300 8.940 C 5.811 6.578,6.180 6.057,6.681 5.586 C 7.188 5.109,7.722 4.892,8.600 4.805 C 9.156 4.751,17.319 4.778,17.800 4.836 M10.180 8.835 C 9.990 8.923,9.904 9.012,9.822 9.210 C 9.743 9.397,9.743 9.602,9.821 9.791 C 9.862 9.889,10.234 10.292,10.911 10.970 L 11.939 12.000 10.911 13.030 C 9.850 14.093,9.759 14.210,9.761 14.509 C 9.762 14.682,9.873 14.948,9.986 15.048 C 10.102 15.151,10.340 15.240,10.500 15.240 C 10.790 15.240,10.914 15.143,11.970 14.089 L 13.000 13.061 14.030 14.089 C 15.093 15.150,15.210 15.241,15.509 15.239 C 15.682 15.238,15.948 15.127,16.048 15.014 C 16.151 14.898,16.240 14.660,16.240 14.500 C 16.240 14.210,16.143 14.086,15.089 13.030 L 14.061 12.000 15.089 10.970 C 16.143 9.914,16.240 9.790,16.240 9.500 C 16.240 9.340,16.151 9.102,16.048 8.986 C 15.948 8.873,15.682 8.762,15.509 8.761 C 15.210 8.759,15.093 8.850,14.030 9.911 L 13.000 10.939 11.970 9.911 C 11.292 9.234,10.889 8.862,10.791 8.821 C 10.595 8.740,10.376 8.745,10.180 8.835 " stroke="none" fill-rule="evenodd" fill="black"></path></svg>