<svg width="24" height="24" viewBox="0 0 24 24" fill="none" xmlns="http://www.w3.org/2000/svg"><path d="M11.310 1.283 C 6.653 1.563,2.667 4.904,1.564 9.450 C 1.162 11.110,1.162 12.890,1.564 14.550 C 2.505 18.428,5.572 21.495,9.450 22.436 C 11.110 22.838,12.890 22.838,14.550 22.436 C 18.428 21.495,21.495 18.428,22.436 14.550 C 22.837 12.894,22.837 11.106,22.436 9.450 C 21.419 5.255,17.924 2.044,13.657 1.383 C 13.303 1.328,12.042 1.231,11.880 1.246 C 11.847 1.249,11.590 1.266,11.310 1.283 M13.146 2.822 C 16.271 3.231,18.928 5.130,20.301 7.934 C 21.222 9.813,21.478 11.937,21.034 13.998 C 20.454 16.692,18.580 19.070,16.066 20.301 C 14.761 20.941,13.464 21.240,12.000 21.240 C 10.538 21.240,9.236 20.940,7.940 20.304 C 5.123 18.921,3.232 16.278,2.822 13.146 C 2.699 12.214,2.756 10.974,2.966 10.002 C 3.177 9.020,3.703 7.775,4.268 6.920 C 5.750 4.677,8.131 3.188,10.820 2.823 C 11.380 2.746,12.569 2.746,13.146 2.822 M9.826 4.284 C 9.476 4.366,9.267 4.636,9.267 5.003 C 9.267 5.281,9.387 5.496,9.627 5.645 C 9.777 5.738,9.805 5.740,10.860 5.754 C 12.133 5.770,12.293 5.747,12.520 5.520 C 12.929 5.111,12.725 4.405,12.162 4.284 C 11.915 4.231,10.051 4.231,9.826 4.284 M5.855 5.794 C 5.620 5.905,5.485 6.101,5.436 6.406 C 5.353 6.914,5.506 7.777,5.774 8.307 C 6.327 9.405,7.415 10.039,8.751 10.040 C 9.148 10.040,9.345 9.985,9.513 9.828 C 9.858 9.506,9.787 8.896,9.377 8.656 C 9.238 8.575,9.160 8.560,8.868 8.560 C 8.679 8.560,8.429 8.540,8.312 8.516 C 7.846 8.419,7.414 8.133,7.188 7.771 C 7.017 7.498,6.953 7.243,6.923 6.720 C 6.898 6.271,6.884 6.204,6.788 6.059 C 6.651 5.852,6.489 5.759,6.229 5.735 C 6.076 5.722,5.976 5.737,5.855 5.794 M14.326 6.441 C 13.946 6.521,13.689 6.871,13.733 7.247 C 13.762 7.493,13.857 7.653,14.052 7.788 C 14.190 7.884,14.253 7.897,14.712 7.923 C 15.243 7.953,15.497 8.016,15.771 8.188 C 16.133 8.414,16.419 8.846,16.516 9.312 C 16.540 9.429,16.560 9.678,16.560 9.867 C 16.560 10.147,16.576 10.238,16.650 10.368 C 16.884 10.786,17.502 10.862,17.828 10.513 C 17.985 10.345,18.040 10.148,18.040 9.751 C 18.039 8.415,17.405 7.327,16.307 6.774 C 15.778 6.507,14.794 6.342,14.326 6.441 M11.180 7.835 C 10.990 7.923,10.904 8.012,10.822 8.210 C 10.740 8.406,10.745 8.625,10.837 8.820 C 10.936 9.032,12.011 10.097,12.209 10.178 C 12.483 10.292,12.869 10.217,13.048 10.014 C 13.232 9.807,13.287 9.470,13.178 9.209 C 13.097 9.011,12.032 7.936,11.820 7.837 C 11.617 7.742,11.385 7.741,11.180 7.835 M4.569 9.845 C 4.359 9.949,4.268 10.096,3.978 10.807 C 3.740 11.391,3.716 11.560,3.835 11.820 C 3.923 12.010,4.012 12.096,4.210 12.178 C 4.479 12.291,4.817 12.230,5.028 12.032 C 5.124 11.943,5.573 10.917,5.632 10.654 C 5.768 10.051,5.131 9.567,4.569 9.845 M8.740 11.266 C 7.415 11.385,6.327 12.085,5.719 13.212 C 5.400 13.803,5.271 14.320,5.271 15.000 C 5.271 15.682,5.400 16.197,5.721 16.792 C 6.078 17.453,6.549 17.923,7.212 18.281 C 7.803 18.600,8.320 18.729,9.000 18.729 C 9.680 18.729,10.197 18.600,10.788 18.281 C 11.451 17.923,11.922 17.453,12.279 16.792 C 12.600 16.197,12.729 15.682,12.729 15.000 C 12.729 14.320,12.600 13.803,12.281 13.212 C 11.832 12.381,11.122 11.779,10.215 11.463 C 9.793 11.316,9.149 11.230,8.740 11.266 M14.420 11.260 C 14.398 11.267,14.331 11.284,14.271 11.297 C 14.124 11.329,13.881 11.548,13.814 11.708 C 13.746 11.872,13.736 14.090,13.803 14.267 C 13.905 14.540,14.193 14.731,14.500 14.731 C 14.807 14.731,15.095 14.540,15.197 14.267 C 15.224 14.197,15.240 13.719,15.240 13.000 C 15.240 12.281,15.224 11.803,15.197 11.733 C 15.146 11.597,14.977 11.412,14.840 11.342 C 14.732 11.287,14.485 11.238,14.420 11.260 M18.612 12.496 C 17.729 12.916,17.035 13.732,16.792 14.635 C 16.677 15.064,16.678 15.780,16.794 16.213 C 16.970 16.869,17.339 17.514,17.619 17.656 C 18.117 17.910,18.700 17.557,18.698 17.004 C 18.697 16.814,18.672 16.738,18.531 16.500 C 18.209 15.956,18.113 15.393,18.266 14.937 C 18.407 14.515,18.783 14.088,19.215 13.858 C 19.601 13.652,19.731 13.470,19.731 13.137 C 19.731 12.561,19.160 12.234,18.612 12.496 M9.578 12.821 C 9.949 12.918,10.274 13.112,10.581 13.419 C 11.041 13.879,11.240 14.356,11.240 15.000 C 11.240 15.644,11.041 16.121,10.581 16.581 C 10.121 17.041,9.644 17.240,9.000 17.240 C 8.356 17.240,7.879 17.041,7.419 16.581 C 6.959 16.121,6.760 15.644,6.760 15.000 C 6.760 14.356,6.959 13.879,7.419 13.419 C 7.719 13.118,8.050 12.919,8.404 12.823 C 8.692 12.746,9.285 12.745,9.578 12.821 M13.100 17.103 C 12.719 17.302,12.577 17.722,12.762 18.103 C 12.828 18.240,13.005 18.398,13.692 18.930 C 14.773 19.768,14.716 19.733,15.004 19.733 C 15.203 19.733,15.270 19.714,15.408 19.617 C 15.618 19.468,15.736 19.244,15.732 18.999 C 15.727 18.647,15.659 18.569,14.718 17.836 C 14.239 17.464,13.796 17.132,13.734 17.100 C 13.585 17.022,13.252 17.024,13.100 17.103 " stroke="none" fill-rule="evenodd" fill="black"></path></svg>