<svg width="24" height="24" viewBox="0 0 24 24" fill="none" xmlns="http://www.w3.org/2000/svg"><path d="M11.760 1.268 C 10.480 1.356,9.345 2.070,8.742 3.168 C 8.435 3.726,8.332 4.087,8.265 4.833 L 8.220 5.340 7.920 5.370 C 6.696 5.491,5.647 5.942,4.993 6.629 C 4.401 7.251,3.995 8.093,3.680 9.352 C 3.281 10.948,2.524 15.047,2.335 16.640 C 2.252 17.340,2.241 18.602,2.315 19.054 C 2.573 20.629,3.509 21.743,4.991 22.239 C 5.694 22.474,6.451 22.598,7.720 22.686 C 8.685 22.754,15.315 22.754,16.280 22.686 C 17.549 22.598,18.306 22.474,19.009 22.239 C 20.472 21.750,21.386 20.681,21.663 19.140 C 21.758 18.604,21.760 17.433,21.666 16.640 C 21.480 15.077,20.712 10.921,20.320 9.352 C 20.005 8.095,19.622 7.296,19.020 6.647 C 18.376 5.952,17.318 5.492,16.080 5.370 L 15.780 5.340 15.735 4.833 C 15.668 4.087,15.565 3.726,15.258 3.168 C 14.576 1.928,13.182 1.170,11.760 1.268 M12.578 2.821 C 12.949 2.918,13.274 3.112,13.581 3.419 C 14.031 3.868,14.240 4.358,14.240 4.958 L 14.240 5.260 12.000 5.260 L 9.760 5.260 9.760 4.958 C 9.760 4.358,9.969 3.868,10.419 3.419 C 10.719 3.118,11.050 2.919,11.404 2.823 C 11.692 2.746,12.285 2.745,12.578 2.821 M15.860 6.839 C 17.204 7.006,17.914 7.422,18.372 8.309 C 18.775 9.089,19.031 10.148,19.700 13.800 C 20.117 16.073,20.244 17.056,20.245 18.000 C 20.246 19.120,20.052 19.713,19.512 20.245 C 18.925 20.822,17.952 21.093,16.080 21.199 C 15.171 21.251,8.829 21.251,7.920 21.199 C 6.521 21.120,5.710 20.965,5.091 20.660 C 4.449 20.343,4.033 19.826,3.858 19.128 C 3.701 18.504,3.717 17.448,3.904 16.144 C 4.084 14.881,4.687 11.644,5.007 10.220 C 5.610 7.534,6.310 6.919,8.920 6.785 C 9.063 6.778,10.593 6.776,12.320 6.780 C 14.540 6.786,15.577 6.803,15.860 6.839 M8.811 10.278 C 8.635 10.321,8.432 10.482,8.348 10.645 C 8.304 10.731,8.091 11.909,7.761 13.903 C 7.203 17.269,7.212 17.175,7.405 17.447 C 7.623 17.754,8.100 17.834,8.408 17.617 C 8.499 17.553,8.605 17.437,8.645 17.360 C 8.693 17.268,8.894 16.155,9.237 14.097 C 9.803 10.699,9.791 10.818,9.578 10.536 C 9.420 10.326,9.079 10.212,8.811 10.278 M14.785 10.288 C 14.573 10.346,14.344 10.583,14.288 10.803 C 14.248 10.962,14.296 11.296,14.766 14.120 C 15.169 16.545,15.307 17.290,15.369 17.393 C 15.633 17.827,16.304 17.856,16.595 17.447 C 16.788 17.175,16.797 17.269,16.237 13.903 C 15.894 11.845,15.693 10.732,15.645 10.640 C 15.497 10.353,15.118 10.198,14.785 10.288 " stroke="none" fill-rule="evenodd" fill="black"></path></svg>