<svg width="24" height="24" viewBox="0 0 24 24" fill="none" xmlns="http://www.w3.org/2000/svg"><path d="M9.560 3.282 C 8.330 3.314,7.788 3.360,7.212 3.484 C 5.972 3.751,5.144 4.285,4.548 5.204 C 4.009 6.035,3.766 6.781,3.320 8.980 C 2.871 11.193,2.471 13.494,2.335 14.640 C 2.252 15.340,2.241 16.602,2.315 17.054 C 2.573 18.629,3.509 19.743,4.991 20.239 C 5.694 20.474,6.451 20.598,7.720 20.686 C 8.685 20.754,15.315 20.754,16.280 20.686 C 17.549 20.598,18.306 20.474,19.009 20.239 C 20.215 19.836,21.075 19.011,21.472 17.880 C 21.668 17.319,21.734 16.842,21.734 15.980 C 21.735 14.876,21.594 13.819,21.077 11.044 C 20.341 7.092,20.091 6.188,19.462 5.220 C 18.744 4.113,17.692 3.547,16.000 3.359 C 15.117 3.260,11.920 3.222,9.560 3.282 M15.860 4.839 C 17.204 5.006,17.914 5.422,18.372 6.309 C 18.775 7.089,19.031 8.148,19.700 11.800 C 20.117 14.073,20.244 15.056,20.245 16.000 C 20.246 17.120,20.052 17.713,19.512 18.245 C 18.925 18.822,17.952 19.093,16.080 19.199 C 15.171 19.251,8.829 19.251,7.920 19.199 C 6.521 19.120,5.710 18.965,5.091 18.660 C 4.449 18.343,4.033 17.826,3.858 17.128 C 3.701 16.504,3.717 15.448,3.904 14.144 C 4.084 12.881,4.687 9.644,5.007 8.220 C 5.610 5.534,6.310 4.919,8.920 4.785 C 9.063 4.778,10.593 4.776,12.320 4.780 C 14.540 4.786,15.577 4.803,15.860 4.839 M8.991 7.280 C 8.472 7.436,8.312 7.889,8.565 8.486 C 8.844 9.142,9.306 9.694,9.917 10.099 C 10.609 10.557,11.179 10.730,12.000 10.730 C 12.821 10.730,13.391 10.557,14.083 10.099 C 14.694 9.694,15.156 9.142,15.435 8.486 C 15.651 7.977,15.575 7.582,15.220 7.381 C 14.985 7.247,14.858 7.229,14.625 7.297 C 14.358 7.374,14.246 7.497,14.038 7.937 C 13.904 8.221,13.810 8.353,13.585 8.577 C 13.127 9.032,12.631 9.239,12.000 9.239 C 11.369 9.239,10.873 9.032,10.415 8.577 C 10.190 8.353,10.096 8.221,9.962 7.937 C 9.756 7.501,9.642 7.376,9.384 7.299 C 9.164 7.234,9.147 7.233,8.991 7.280 " stroke="none" fill-rule="evenodd" fill="black"></path></svg>