<svg width="24" height="24" viewBox="0 0 24 24" fill="none" xmlns="http://www.w3.org/2000/svg"><path d="M11.760 1.268 C 10.480 1.356,9.345 2.070,8.742 3.168 C 8.435 3.727,8.307 4.186,8.258 4.905 L 8.230 5.311 7.945 5.338 C 6.622 5.466,5.668 5.885,4.917 6.666 C 4.299 7.310,3.928 8.083,3.604 9.400 C 3.143 11.277,2.484 14.731,2.339 16.035 C 2.250 16.830,2.275 17.853,2.395 18.370 C 2.558 19.070,2.898 19.685,3.436 20.250 C 4.313 21.173,5.302 21.526,7.460 21.686 C 8.413 21.757,15.587 21.757,16.540 21.686 C 18.698 21.526,19.687 21.173,20.564 20.250 C 21.732 19.021,21.962 17.689,21.495 14.840 C 21.278 13.514,20.707 10.685,20.414 9.480 C 20.058 8.017,19.660 7.213,18.966 6.552 C 18.212 5.833,17.318 5.460,16.055 5.338 L 15.770 5.311 15.742 4.905 C 15.680 4.004,15.433 3.316,14.941 2.683 C 14.207 1.738,12.964 1.185,11.760 1.268 M12.578 2.821 C 12.949 2.918,13.274 3.112,13.581 3.419 C 14.031 3.868,14.240 4.358,14.240 4.958 L 14.240 5.260 12.000 5.260 L 9.760 5.260 9.760 4.958 C 9.760 4.358,9.969 3.868,10.419 3.419 C 10.719 3.118,11.050 2.919,11.404 2.823 C 11.692 2.746,12.285 2.745,12.578 2.821 M16.160 6.852 C 17.015 6.999,17.441 7.182,17.885 7.593 C 18.417 8.085,18.678 8.643,18.999 9.970 C 19.308 11.245,19.977 14.680,20.147 15.860 C 20.250 16.580,20.241 17.679,20.128 18.093 C 20.007 18.532,19.829 18.843,19.491 19.202 C 18.894 19.836,18.121 20.084,16.380 20.199 C 15.600 20.251,8.400 20.251,7.620 20.199 C 5.879 20.084,5.106 19.836,4.509 19.202 C 3.733 18.377,3.605 17.487,3.943 15.280 C 4.071 14.447,4.786 10.853,4.996 9.987 C 5.315 8.673,5.574 8.104,6.065 7.637 C 6.484 7.239,6.859 7.052,7.513 6.915 C 8.150 6.782,8.639 6.768,12.280 6.778 C 15.307 6.785,15.831 6.795,16.160 6.852 M8.673 8.063 C 8.312 8.174,8.000 8.609,8.000 9.000 C 8.000 9.524,8.476 10.000,9.000 10.000 C 9.520 10.000,10.000 9.520,10.000 9.000 C 10.000 8.763,9.880 8.486,9.697 8.303 C 9.418 8.024,9.067 7.942,8.673 8.063 M14.673 8.063 C 14.312 8.174,14.000 8.609,14.000 9.000 C 14.000 9.524,14.476 10.000,15.000 10.000 C 15.520 10.000,16.000 9.520,16.000 9.000 C 16.000 8.598,15.688 8.173,15.310 8.061 C 15.062 7.987,14.919 7.988,14.673 8.063 " stroke="none" fill-rule="evenodd" fill="black"></path></svg>