<svg width="24" height="24" viewBox="0 0 24 24" fill="none" xmlns="http://www.w3.org/2000/svg"><path d="M11.760 1.268 C 10.480 1.356,9.345 2.070,8.742 3.168 C 8.438 3.722,8.309 4.180,8.258 4.890 C 8.232 5.254,8.225 5.280,8.145 5.280 C 8.097 5.280,7.771 5.299,7.419 5.322 C 5.365 5.456,4.305 5.835,3.436 6.750 C 2.898 7.316,2.558 7.931,2.395 8.630 C 2.290 9.081,2.252 10.137,2.316 10.768 C 2.454 12.103,3.115 15.612,3.604 17.600 C 3.928 18.917,4.299 19.690,4.917 20.334 C 5.727 21.177,6.655 21.554,8.250 21.687 C 9.034 21.752,14.966 21.752,15.750 21.687 C 17.345 21.554,18.273 21.177,19.083 20.334 C 19.882 19.501,20.194 18.685,20.776 15.900 C 21.768 11.148,21.915 9.649,21.519 8.320 C 21.352 7.758,20.926 7.089,20.435 6.615 C 19.559 5.770,18.445 5.421,16.234 5.299 L 15.769 5.273 15.741 4.886 C 15.678 3.998,15.428 3.310,14.941 2.683 C 14.207 1.738,12.964 1.185,11.760 1.268 M12.578 2.821 C 12.949 2.918,13.274 3.112,13.581 3.419 C 14.028 3.865,14.240 4.358,14.240 4.948 L 14.240 5.240 12.000 5.240 L 9.760 5.240 9.760 4.948 C 9.760 4.358,9.972 3.865,10.419 3.419 C 10.719 3.118,11.050 2.919,11.404 2.823 C 11.692 2.746,12.285 2.745,12.578 2.821 M16.360 6.802 C 17.601 6.880,18.233 7.008,18.825 7.299 C 19.453 7.608,19.934 8.202,20.128 8.907 C 20.200 9.172,20.213 9.331,20.214 9.940 C 20.216 10.931,20.095 11.726,19.475 14.800 C 18.808 18.110,18.590 18.749,17.909 19.386 C 17.450 19.815,16.963 20.027,16.149 20.151 C 15.749 20.213,15.296 20.220,12.000 20.220 C 8.704 20.220,8.251 20.213,7.851 20.151 C 7.037 20.027,6.550 19.815,6.091 19.386 C 5.389 18.729,5.187 18.116,4.441 14.370 C 3.870 11.506,3.728 10.499,3.773 9.660 C 3.819 8.817,4.015 8.323,4.514 7.793 C 4.760 7.532,4.871 7.449,5.175 7.298 C 5.741 7.019,6.436 6.875,7.564 6.803 C 8.325 6.755,15.596 6.754,16.360 6.802 M8.673 9.063 C 8.312 9.174,8.000 9.609,8.000 10.000 C 8.000 10.524,8.476 11.000,9.000 11.000 C 9.520 11.000,10.000 10.520,10.000 10.000 C 10.000 9.763,9.880 9.486,9.697 9.303 C 9.418 9.024,9.067 8.942,8.673 9.063 M14.673 9.063 C 14.312 9.174,14.000 9.609,14.000 10.000 C 14.000 10.524,14.476 11.000,15.000 11.000 C 15.520 11.000,16.000 10.520,16.000 10.000 C 16.000 9.598,15.688 9.173,15.310 9.061 C 15.062 8.987,14.919 8.988,14.673 9.063 " stroke="none" fill-rule="evenodd" fill="black"></path></svg>