<svg width="24" height="24" viewBox="0 0 24 24" fill="none" xmlns="http://www.w3.org/2000/svg"><path d="M11.760 1.268 C 10.480 1.356,9.345 2.070,8.742 3.168 C 8.435 3.726,8.332 4.087,8.265 4.833 L 8.220 5.340 7.920 5.370 C 6.696 5.491,5.647 5.942,4.993 6.629 C 4.401 7.251,3.995 8.093,3.680 9.352 C 3.281 10.948,2.524 15.047,2.335 16.640 C 2.252 17.340,2.241 18.602,2.315 19.054 C 2.573 20.629,3.509 21.743,4.991 22.239 C 5.694 22.474,6.451 22.598,7.720 22.686 C 8.685 22.754,15.315 22.754,16.280 22.686 C 17.549 22.598,18.306 22.474,19.009 22.239 C 20.472 21.750,21.386 20.681,21.663 19.140 C 21.758 18.604,21.760 17.433,21.666 16.640 C 21.480 15.077,20.712 10.921,20.320 9.352 C 20.005 8.095,19.622 7.296,19.020 6.647 C 18.376 5.952,17.318 5.492,16.080 5.370 L 15.780 5.340 15.735 4.833 C 15.668 4.087,15.565 3.726,15.258 3.168 C 14.576 1.928,13.182 1.170,11.760 1.268 M12.578 2.821 C 12.949 2.918,13.274 3.112,13.581 3.419 C 14.031 3.868,14.240 4.358,14.240 4.958 L 14.240 5.260 12.000 5.260 L 9.760 5.260 9.760 4.958 C 9.760 4.358,9.969 3.868,10.419 3.419 C 10.719 3.118,11.050 2.919,11.404 2.823 C 11.692 2.746,12.285 2.745,12.578 2.821 M15.860 6.839 C 17.204 7.006,17.914 7.422,18.372 8.309 C 18.775 9.089,19.031 10.148,19.700 13.800 C 20.117 16.073,20.244 17.056,20.245 18.000 C 20.246 19.120,20.052 19.713,19.512 20.245 C 18.925 20.822,17.952 21.093,16.080 21.199 C 15.171 21.251,8.829 21.251,7.920 21.199 C 6.521 21.120,5.710 20.965,5.091 20.660 C 4.449 20.343,4.033 19.826,3.858 19.128 C 3.701 18.504,3.717 17.448,3.904 16.144 C 4.084 14.881,4.687 11.644,5.007 10.220 C 5.610 7.534,6.310 6.919,8.920 6.785 C 9.063 6.778,10.593 6.776,12.320 6.780 C 14.540 6.786,15.577 6.803,15.860 6.839 M9.946 10.823 C 8.948 11.065,8.275 12.001,8.267 13.160 C 8.263 13.737,8.431 14.198,8.876 14.828 C 9.241 15.346,10.097 16.136,10.831 16.634 C 11.496 17.085,11.992 17.177,12.577 16.958 C 13.225 16.715,14.608 15.559,15.124 14.828 C 15.569 14.198,15.737 13.737,15.733 13.160 C 15.720 11.271,14.032 10.220,12.350 11.051 L 12.000 11.224 11.650 11.051 C 11.089 10.774,10.484 10.693,9.946 10.823 M10.785 12.299 C 10.894 12.332,11.082 12.431,11.202 12.519 C 11.716 12.897,11.762 12.920,12.000 12.920 C 12.238 12.920,12.284 12.897,12.799 12.518 C 13.528 11.982,14.241 12.298,14.240 13.157 C 14.239 13.550,13.997 13.940,13.384 14.533 C 13.055 14.851,12.411 15.365,12.146 15.522 L 12.000 15.608 11.854 15.522 C 11.586 15.364,10.925 14.836,10.608 14.527 C 10.002 13.936,9.761 13.548,9.760 13.157 C 9.759 12.627,10.051 12.258,10.483 12.243 C 10.539 12.242,10.675 12.267,10.785 12.299 " stroke="none" fill-rule="evenodd" fill="black"></path></svg>