<svg width="24" height="24" viewBox="0 0 24 24" fill="none" xmlns="http://www.w3.org/2000/svg"><path d="M11.760 1.268 C 10.480 1.356,9.345 2.070,8.742 3.168 C 8.435 3.726,8.332 4.087,8.265 4.833 L 8.220 5.340 7.920 5.370 C 6.696 5.491,5.647 5.942,4.993 6.629 C 4.401 7.251,3.995 8.093,3.680 9.352 C 3.281 10.948,2.524 15.047,2.335 16.640 C 2.252 17.340,2.241 18.602,2.315 19.054 C 2.573 20.629,3.509 21.743,4.991 22.239 C 5.694 22.474,6.451 22.598,7.720 22.686 C 8.685 22.754,15.315 22.754,16.280 22.686 C 17.549 22.598,18.306 22.474,19.009 22.239 C 20.472 21.750,21.386 20.681,21.663 19.140 C 21.758 18.604,21.760 17.433,21.666 16.640 C 21.480 15.077,20.712 10.921,20.320 9.352 C 20.005 8.095,19.622 7.296,19.020 6.647 C 18.376 5.952,17.318 5.492,16.080 5.370 L 15.780 5.340 15.735 4.833 C 15.668 4.087,15.565 3.726,15.258 3.168 C 14.576 1.928,13.182 1.170,11.760 1.268 M12.578 2.821 C 12.949 2.918,13.274 3.112,13.581 3.419 C 14.031 3.868,14.240 4.358,14.240 4.958 L 14.240 5.260 12.000 5.260 L 9.760 5.260 9.760 4.958 C 9.760 4.358,9.969 3.868,10.419 3.419 C 10.719 3.118,11.050 2.919,11.404 2.823 C 11.692 2.746,12.285 2.745,12.578 2.821 M15.860 6.839 C 17.204 7.006,17.914 7.422,18.372 8.309 C 18.775 9.089,19.031 10.148,19.700 13.800 C 20.117 16.073,20.244 17.056,20.245 18.000 C 20.246 19.120,20.052 19.713,19.512 20.245 C 18.925 20.822,17.952 21.093,16.080 21.199 C 15.171 21.251,8.829 21.251,7.920 21.199 C 6.521 21.120,5.710 20.965,5.091 20.660 C 4.449 20.343,4.033 19.826,3.858 19.128 C 3.701 18.504,3.717 17.448,3.904 16.144 C 4.084 14.881,4.687 11.644,5.007 10.220 C 5.610 7.534,6.310 6.919,8.920 6.785 C 9.063 6.778,10.593 6.776,12.320 6.780 C 14.540 6.786,15.577 6.803,15.860 6.839 M14.620 8.919 C 14.386 8.978,14.053 9.131,13.028 9.647 C 11.859 10.237,11.652 10.394,11.436 10.856 C 11.268 11.217,11.242 11.514,11.241 13.094 C 11.240 14.445,11.236 14.527,11.170 14.498 C 10.403 14.169,9.381 14.198,8.720 14.568 C 7.781 15.094,7.269 15.953,7.269 17.000 C 7.269 18.047,7.781 18.906,8.720 19.432 C 9.256 19.733,10.093 19.820,10.740 19.643 C 11.638 19.397,12.376 18.667,12.644 17.760 C 12.728 17.476,12.733 17.369,12.750 15.795 L 12.767 14.131 13.094 14.109 C 13.498 14.081,13.631 14.028,14.973 13.352 C 16.151 12.758,16.346 12.610,16.564 12.143 C 16.822 11.592,16.823 10.387,16.567 9.869 C 16.499 9.732,16.389 9.554,16.322 9.474 C 16.156 9.274,15.795 9.043,15.511 8.954 C 15.267 8.878,14.845 8.862,14.620 8.919 M15.157 10.430 C 15.238 10.496,15.242 10.529,15.231 11.020 L 15.220 11.540 14.110 12.100 C 13.022 12.649,12.998 12.659,12.890 12.598 L 12.780 12.537 12.780 11.998 L 12.780 11.460 13.860 10.912 C 14.454 10.611,14.970 10.363,15.006 10.362 C 15.042 10.361,15.110 10.392,15.157 10.430 M10.454 15.841 C 10.744 15.950,11.050 16.256,11.159 16.546 C 11.331 17.006,11.227 17.518,10.893 17.857 C 10.594 18.159,10.446 18.220,10.000 18.220 C 9.565 18.220,9.394 18.154,9.120 17.880 C 8.883 17.643,8.790 17.429,8.769 17.080 C 8.746 16.675,8.847 16.404,9.126 16.126 C 9.479 15.773,9.983 15.665,10.454 15.841 " stroke="none" fill-rule="evenodd" fill="black"></path></svg>