<svg width="24" height="24" viewBox="0 0 24 24" fill="none" xmlns="http://www.w3.org/2000/svg"><path d="M11.760 1.268 C 10.480 1.356,9.345 2.070,8.742 3.168 C 8.435 3.726,8.332 4.087,8.265 4.833 L 8.220 5.340 7.920 5.370 C 6.696 5.491,5.647 5.942,4.993 6.629 C 4.401 7.251,3.995 8.093,3.680 9.352 C 3.281 10.948,2.524 15.047,2.335 16.640 C 2.252 17.340,2.241 18.602,2.315 19.054 C 2.573 20.629,3.509 21.743,4.991 22.239 C 5.694 22.474,6.451 22.598,7.720 22.686 C 8.685 22.754,15.315 22.754,16.280 22.686 C 17.549 22.598,18.306 22.474,19.009 22.239 C 20.472 21.750,21.386 20.681,21.663 19.140 C 21.758 18.604,21.760 17.433,21.666 16.640 C 21.480 15.077,20.712 10.921,20.320 9.352 C 20.005 8.095,19.622 7.296,19.020 6.647 C 18.376 5.952,17.318 5.492,16.080 5.370 L 15.780 5.340 15.735 4.833 C 15.668 4.087,15.565 3.726,15.258 3.168 C 14.576 1.928,13.182 1.170,11.760 1.268 M12.578 2.821 C 12.949 2.918,13.274 3.112,13.581 3.419 C 14.031 3.868,14.240 4.358,14.240 4.958 L 14.240 5.260 12.000 5.260 L 9.760 5.260 9.760 4.958 C 9.760 4.358,9.969 3.868,10.419 3.419 C 10.719 3.118,11.050 2.919,11.404 2.823 C 11.692 2.746,12.285 2.745,12.578 2.821 M15.860 6.839 C 17.204 7.006,17.914 7.422,18.372 8.309 C 18.775 9.089,19.031 10.148,19.700 13.800 C 20.117 16.073,20.244 17.056,20.245 18.000 C 20.246 19.120,20.052 19.713,19.512 20.245 C 18.925 20.822,17.952 21.093,16.080 21.199 C 15.171 21.251,8.829 21.251,7.920 21.199 C 6.521 21.120,5.710 20.965,5.091 20.660 C 4.449 20.343,4.033 19.826,3.858 19.128 C 3.701 18.504,3.717 17.448,3.904 16.144 C 4.084 14.881,4.687 11.644,5.007 10.220 C 5.610 7.534,6.310 6.919,8.920 6.785 C 9.063 6.778,10.593 6.776,12.320 6.780 C 14.540 6.786,15.577 6.803,15.860 6.839 M9.826 11.285 C 9.480 11.365,9.267 11.636,9.267 11.996 C 9.267 12.119,9.290 12.265,9.318 12.320 C 9.347 12.375,9.722 12.775,10.153 13.210 L 10.937 13.999 10.134 14.810 C 9.411 15.540,9.328 15.639,9.286 15.809 C 9.165 16.300,9.498 16.733,9.996 16.733 C 10.119 16.733,10.265 16.710,10.320 16.682 C 10.375 16.653,10.775 16.277,11.210 15.846 L 12.000 15.063 12.790 15.846 C 13.225 16.277,13.625 16.653,13.680 16.682 C 13.735 16.710,13.881 16.733,14.004 16.733 C 14.499 16.733,14.817 16.317,14.711 15.811 C 14.673 15.634,14.611 15.561,13.867 14.810 L 13.064 14.000 13.867 13.190 C 14.609 12.441,14.673 12.366,14.710 12.190 C 14.832 11.611,14.389 11.168,13.810 11.290 C 13.634 11.327,13.559 11.391,12.810 12.133 L 12.000 12.936 11.190 12.133 C 10.538 11.487,10.353 11.324,10.240 11.302 C 10.163 11.287,10.073 11.268,10.040 11.261 C 10.007 11.255,9.911 11.265,9.826 11.285 " stroke="none" fill-rule="evenodd" fill="black"></path></svg>