<svg width="24" height="24" viewBox="0 0 24 24" fill="none" xmlns="http://www.w3.org/2000/svg"><path d="M11.760 1.268 C 10.480 1.356,9.345 2.070,8.742 3.168 C 8.435 3.726,8.332 4.087,8.265 4.833 L 8.220 5.340 7.920 5.370 C 6.696 5.491,5.647 5.942,4.993 6.629 C 4.401 7.251,3.995 8.093,3.680 9.352 C 3.281 10.948,2.524 15.047,2.335 16.640 C 2.252 17.340,2.241 18.602,2.315 19.054 C 2.573 20.629,3.509 21.743,4.991 22.239 C 5.694 22.474,6.451 22.598,7.720 22.686 C 8.685 22.754,15.315 22.754,16.280 22.686 C 17.549 22.598,18.306 22.474,19.009 22.239 C 20.472 21.750,21.386 20.681,21.663 19.140 C 21.758 18.604,21.760 17.433,21.666 16.640 C 21.480 15.077,20.712 10.921,20.320 9.352 C 20.005 8.095,19.622 7.296,19.020 6.647 C 18.376 5.952,17.318 5.492,16.080 5.370 L 15.780 5.340 15.735 4.833 C 15.668 4.087,15.565 3.726,15.258 3.168 C 14.576 1.928,13.182 1.170,11.760 1.268 M12.578 2.821 C 12.949 2.918,13.274 3.112,13.581 3.419 C 14.031 3.868,14.240 4.358,14.240 4.958 L 14.240 5.260 12.000 5.260 L 9.760 5.260 9.760 4.958 C 9.760 4.358,9.969 3.868,10.419 3.419 C 10.719 3.118,11.050 2.919,11.404 2.823 C 11.692 2.746,12.285 2.745,12.578 2.821 M15.860 6.839 C 17.204 7.006,17.914 7.422,18.372 8.309 C 18.775 9.089,19.031 10.148,19.700 13.800 C 20.117 16.073,20.244 17.056,20.245 18.000 C 20.246 19.120,20.052 19.713,19.512 20.245 C 18.925 20.822,17.952 21.093,16.080 21.199 C 15.171 21.251,8.829 21.251,7.920 21.199 C 6.521 21.120,5.710 20.965,5.091 20.660 C 4.449 20.343,4.033 19.826,3.858 19.128 C 3.701 18.504,3.717 17.448,3.904 16.144 C 4.084 14.881,4.687 11.644,5.007 10.220 C 5.610 7.534,6.310 6.919,8.920 6.785 C 9.063 6.778,10.593 6.776,12.320 6.780 C 14.540 6.786,15.577 6.803,15.860 6.839 M12.700 9.316 C 12.506 9.405,12.384 9.532,12.302 9.729 C 12.249 9.856,12.240 10.146,12.240 11.703 C 12.240 13.426,12.236 13.527,12.170 13.498 C 11.403 13.169,10.381 13.198,9.720 13.568 C 8.781 14.094,8.269 14.953,8.269 16.000 C 8.269 17.047,8.781 17.906,9.720 18.432 C 10.434 18.832,11.566 18.832,12.280 18.432 C 12.954 18.054,13.433 17.467,13.645 16.760 C 13.732 16.470,13.736 16.395,13.750 14.467 C 13.764 12.617,13.770 12.476,13.833 12.503 C 14.108 12.621,14.579 12.724,14.880 12.731 C 15.174 12.738,15.240 12.726,15.369 12.647 C 15.753 12.410,15.851 11.892,15.580 11.536 C 15.453 11.369,15.282 11.295,14.909 11.243 C 14.546 11.193,14.337 11.097,14.120 10.880 C 13.896 10.656,13.799 10.439,13.763 10.085 C 13.718 9.641,13.588 9.435,13.271 9.302 C 13.076 9.221,12.897 9.225,12.700 9.316 M11.454 14.841 C 11.744 14.950,12.050 15.256,12.159 15.546 C 12.331 16.006,12.227 16.518,11.893 16.857 C 11.594 17.159,11.446 17.220,11.000 17.220 C 10.565 17.220,10.394 17.154,10.120 16.880 C 9.883 16.643,9.790 16.429,9.769 16.080 C 9.746 15.675,9.847 15.404,10.126 15.126 C 10.479 14.773,10.983 14.665,11.454 14.841 " stroke="none" fill-rule="evenodd" fill="black"></path></svg>