<svg width="24" height="24" viewBox="0 0 24 24" fill="none" xmlns="http://www.w3.org/2000/svg"><path d="M8.000 1.268 C 5.865 1.393,3.733 2.620,2.521 4.420 C 1.107 6.518,0.869 9.185,1.891 11.460 C 2.738 13.344,4.286 14.736,6.251 15.378 C 6.542 15.473,6.912 15.574,7.074 15.603 L 7.367 15.654 7.343 15.857 C 7.239 16.738,7.248 18.909,7.360 19.628 C 7.598 21.164,8.834 22.401,10.366 22.639 C 11.220 22.771,13.326 22.760,14.480 22.617 C 19.798 21.958,22.445 18.919,22.716 13.160 C 22.755 12.335,22.715 10.853,22.641 10.376 C 22.401 8.831,21.170 7.599,19.627 7.360 C 18.924 7.251,16.781 7.241,15.881 7.343 L 15.660 7.368 15.587 7.017 C 15.008 4.204,12.767 1.978,9.935 1.403 C 9.540 1.323,8.636 1.233,8.364 1.247 C 8.285 1.251,8.121 1.261,8.000 1.268 M8.497 2.890 C 8.508 2.962,8.537 3.182,8.562 3.380 C 8.782 5.121,9.493 6.994,10.547 8.606 C 10.686 8.819,10.800 9.000,10.800 9.010 C 10.800 9.019,10.656 9.138,10.481 9.275 C 9.626 9.937,8.819 10.963,8.360 11.970 C 8.283 12.139,8.211 12.278,8.200 12.278 C 8.189 12.279,8.128 12.095,8.064 11.870 C 7.682 10.525,6.877 8.905,6.042 7.800 C 5.398 6.947,4.711 6.242,4.009 5.712 L 3.637 5.432 3.713 5.312 C 3.916 4.992,4.435 4.416,4.782 4.126 C 5.791 3.284,7.047 2.779,8.168 2.764 L 8.476 2.760 8.497 2.890 M10.427 3.085 C 12.073 3.666,13.387 4.998,13.939 6.647 C 14.120 7.189,14.208 7.601,14.146 7.619 C 14.121 7.626,13.938 7.672,13.740 7.721 C 13.396 7.807,12.586 8.080,12.271 8.216 L 12.122 8.280 11.810 7.807 C 10.978 6.550,10.351 4.999,10.102 3.580 C 9.998 2.991,9.995 2.960,10.035 2.960 C 10.056 2.960,10.233 3.016,10.427 3.085 M3.424 7.166 C 4.334 7.931,5.198 9.054,5.814 10.270 C 6.266 11.164,6.546 11.897,6.759 12.748 C 6.859 13.151,7.008 14.006,6.982 14.032 C 6.971 14.042,6.796 13.993,6.593 13.922 C 4.713 13.265,3.317 11.673,2.873 9.680 C 2.794 9.321,2.780 9.150,2.780 8.500 C 2.780 7.848,2.793 7.680,2.874 7.320 C 2.926 7.089,2.976 6.886,2.987 6.869 C 3.013 6.827,3.055 6.855,3.424 7.166 M19.500 8.860 C 19.908 8.946,20.244 9.132,20.556 9.444 C 20.868 9.756,21.054 10.092,21.140 10.500 C 21.194 10.754,21.275 12.200,21.236 12.200 C 21.227 12.200,20.446 11.424,19.500 10.475 L 17.780 8.751 18.500 8.776 C 18.896 8.790,19.346 8.827,19.500 8.860 M18.456 11.556 L 21.132 14.232 21.105 14.498 C 21.048 15.047,20.810 16.058,20.604 16.623 C 19.873 18.625,18.677 19.841,16.729 20.564 C 16.084 20.803,15.092 21.044,14.498 21.105 L 14.232 21.132 11.553 18.456 L 8.874 15.780 8.897 15.516 C 8.942 14.997,9.185 13.956,9.396 13.377 C 10.346 10.773,12.130 9.436,15.360 8.907 C 15.415 8.898,15.532 8.888,15.620 8.885 L 15.780 8.880 18.456 11.556 M15.180 11.835 C 14.990 11.923,14.904 12.012,14.822 12.210 C 14.678 12.554,14.769 12.824,15.162 13.221 L 15.440 13.502 15.222 13.718 L 15.003 13.934 14.687 13.631 C 14.326 13.287,14.150 13.218,13.816 13.289 C 13.377 13.383,13.124 13.931,13.332 14.340 C 13.354 14.384,13.499 14.551,13.654 14.711 L 13.935 15.002 13.719 15.221 L 13.502 15.440 13.221 15.162 C 12.816 14.760,12.535 14.672,12.180 14.835 C 11.990 14.923,11.904 15.012,11.822 15.210 C 11.677 15.555,11.779 15.851,12.176 16.239 L 12.440 16.498 12.162 16.779 C 11.760 17.184,11.672 17.465,11.835 17.820 C 11.923 18.010,12.012 18.096,12.210 18.178 C 12.554 18.322,12.824 18.231,13.221 17.838 L 13.502 17.560 13.761 17.824 C 14.149 18.221,14.445 18.323,14.790 18.178 C 14.988 18.096,15.077 18.010,15.165 17.820 C 15.328 17.465,15.240 17.184,14.838 16.779 L 14.560 16.498 14.779 16.281 L 14.998 16.065 15.289 16.346 C 15.648 16.693,15.722 16.733,16.004 16.733 C 16.497 16.733,16.818 16.317,16.711 15.816 C 16.679 15.664,16.616 15.573,16.369 15.313 L 16.066 14.997 16.282 14.778 L 16.498 14.560 16.779 14.838 C 17.176 15.231,17.446 15.322,17.790 15.178 C 17.988 15.096,18.077 15.010,18.165 14.820 C 18.328 14.464,18.230 14.158,17.824 13.761 L 17.560 13.502 17.838 13.221 C 18.240 12.816,18.328 12.535,18.165 12.180 C 18.077 11.990,17.988 11.904,17.790 11.822 C 17.446 11.678,17.176 11.769,16.779 12.162 L 16.498 12.440 16.239 12.176 C 15.842 11.770,15.536 11.672,15.180 11.835 M11.850 21.233 C 11.356 21.250,10.526 21.171,10.265 21.082 C 9.633 20.864,9.108 20.331,8.905 19.700 C 8.830 19.464,8.761 18.743,8.760 18.180 L 8.760 17.780 10.480 19.500 L 12.201 21.220 11.850 21.233 " stroke="none" fill-rule="evenodd" fill="black"></path></svg>