<svg width="24" height="24" viewBox="0 0 24 24" fill="none" xmlns="http://www.w3.org/2000/svg"><path d="M11.317 1.282 C 7.894 1.528,4.949 4.049,4.082 7.475 C 3.152 11.149,4.769 15.358,7.920 17.461 C 8.367 17.760,9.052 18.113,9.478 18.266 C 9.644 18.325,9.820 18.388,9.868 18.405 L 9.957 18.437 9.869 18.628 C 9.796 18.788,9.781 18.893,9.781 19.262 C 9.780 19.696,9.783 19.709,9.937 20.022 C 10.188 20.530,10.663 20.935,11.116 21.025 L 11.233 21.049 11.247 21.874 C 11.262 22.771,11.275 22.828,11.506 23.047 C 11.783 23.309,12.217 23.309,12.494 23.047 C 12.725 22.828,12.738 22.771,12.753 21.874 L 12.767 21.049 12.884 21.025 C 13.335 20.935,13.812 20.530,14.061 20.026 C 14.198 19.750,14.217 19.672,14.230 19.366 C 14.244 19.047,14.225 18.923,14.101 18.539 C 14.078 18.467,14.109 18.446,14.368 18.364 C 15.396 18.034,16.526 17.349,17.412 16.519 C 18.651 15.358,19.666 13.599,20.053 11.940 C 20.234 11.168,20.289 10.679,20.288 9.860 C 20.288 8.432,20.027 7.302,19.404 6.020 C 18.241 3.629,16.083 1.934,13.548 1.421 C 13.114 1.333,12.118 1.231,11.840 1.246 C 11.785 1.249,11.550 1.265,11.317 1.282 M12.895 2.823 C 14.419 3.060,15.745 3.755,16.803 4.871 C 18.118 6.260,18.800 7.970,18.800 9.882 C 18.800 11.022,18.546 12.095,18.018 13.180 C 17.295 14.667,16.191 15.824,14.799 16.555 C 13.954 16.998,13.219 17.194,12.274 17.228 C 11.109 17.270,10.180 17.042,9.178 16.470 C 8.601 16.140,8.184 15.823,7.718 15.360 C 7.015 14.660,6.582 14.050,6.142 13.140 C 5.326 11.456,5.112 9.650,5.520 7.902 C 5.705 7.107,6.171 6.111,6.668 5.448 C 7.743 4.014,9.257 3.088,10.966 2.821 C 11.445 2.747,12.409 2.747,12.895 2.823 M12.420 5.259 C 12.398 5.267,12.331 5.284,12.271 5.297 C 12.124 5.329,11.881 5.548,11.814 5.708 C 11.703 5.973,11.759 6.289,11.953 6.494 C 12.116 6.666,12.245 6.717,12.628 6.759 C 13.291 6.831,13.631 6.990,14.080 7.440 C 14.510 7.870,14.757 8.433,14.759 8.987 C 14.761 9.416,15.075 9.731,15.500 9.731 C 15.740 9.731,15.904 9.655,16.072 9.463 C 16.224 9.290,16.258 9.123,16.227 8.715 C 16.126 7.406,15.340 6.252,14.140 5.650 C 13.823 5.491,13.318 5.334,13.020 5.303 C 12.533 5.251,12.459 5.246,12.420 5.259 M12.639 18.970 C 12.780 19.227,12.779 19.374,12.634 19.506 C 12.562 19.571,12.481 19.580,12.000 19.580 C 11.519 19.580,11.438 19.571,11.366 19.506 C 11.220 19.374,11.220 19.227,11.364 18.965 L 11.493 18.730 12.002 18.734 L 12.511 18.738 12.639 18.970 " stroke="none" fill-rule="evenodd" fill="black"></path></svg>