<svg width="24" height="24" viewBox="0 0 24 24" fill="none" xmlns="http://www.w3.org/2000/svg"><path d="M6.120 4.280 C 5.024 4.315,4.569 4.359,4.052 4.480 C 2.285 4.896,1.495 5.972,1.315 8.209 C 1.254 8.965,1.254 13.035,1.315 13.791 C 1.479 15.827,2.130 16.865,3.567 17.378 C 3.773 17.452,4.024 17.525,4.124 17.540 C 4.225 17.555,4.329 17.581,4.356 17.598 C 4.383 17.614,4.439 17.782,4.480 17.971 C 4.792 19.399,5.717 20.265,7.251 20.564 C 8.068 20.723,8.616 20.738,13.500 20.738 C 18.384 20.738,18.932 20.723,19.749 20.564 C 21.357 20.250,22.250 19.356,22.564 17.747 C 22.695 17.076,22.730 16.275,22.730 14.000 C 22.730 11.106,22.668 10.359,22.359 9.510 C 21.965 8.432,21.149 7.738,19.974 7.481 C 19.786 7.440,19.626 7.399,19.617 7.390 C 19.608 7.382,19.557 7.202,19.504 6.992 C 19.067 5.268,18.013 4.499,15.840 4.319 C 15.177 4.264,7.591 4.234,6.120 4.280 M16.240 5.855 C 17.522 6.077,17.942 6.507,18.149 7.814 C 18.212 8.209,18.220 8.572,18.220 10.980 C 18.220 13.755,18.205 14.093,18.059 14.660 C 17.971 15.001,17.793 15.363,17.620 15.555 C 17.351 15.853,16.806 16.068,16.060 16.170 C 15.542 16.242,5.458 16.242,4.940 16.170 C 4.435 16.101,4.145 16.021,3.815 15.860 C 3.244 15.581,2.970 15.080,2.830 14.060 C 2.760 13.553,2.760 8.447,2.830 7.940 C 2.964 6.962,3.236 6.440,3.749 6.171 C 4.169 5.951,4.582 5.855,5.340 5.801 C 5.582 5.783,8.048 5.774,10.820 5.779 C 15.292 5.788,15.903 5.796,16.240 5.855 M10.000 7.785 C 9.945 7.796,9.769 7.840,9.608 7.883 C 8.543 8.168,7.640 9.089,7.357 10.180 C 7.242 10.626,7.241 11.373,7.357 11.820 C 7.641 12.926,8.553 13.840,9.680 14.148 C 10.042 14.247,10.955 14.247,11.320 14.149 C 12.201 13.910,13.021 13.238,13.418 12.430 C 13.642 11.972,13.726 11.584,13.726 11.000 C 13.726 10.624,13.705 10.421,13.643 10.180 C 13.361 9.092,12.482 8.192,11.393 7.877 C 11.105 7.794,10.247 7.738,10.000 7.785 M4.826 8.286 C 4.625 8.331,4.468 8.445,4.353 8.631 L 4.260 8.780 4.260 11.003 L 4.260 13.226 4.367 13.388 C 4.526 13.628,4.721 13.733,5.007 13.733 C 5.203 13.733,5.270 13.714,5.408 13.617 C 5.499 13.553,5.610 13.428,5.656 13.340 C 5.738 13.185,5.740 13.120,5.752 11.123 C 5.764 8.939,5.752 8.763,5.581 8.538 C 5.419 8.325,5.109 8.222,4.826 8.286 M15.826 8.286 C 15.625 8.331,15.468 8.445,15.353 8.631 L 15.260 8.780 15.260 11.003 L 15.260 13.226 15.367 13.388 C 15.526 13.628,15.721 13.733,16.007 13.733 C 16.203 13.733,16.270 13.714,16.408 13.617 C 16.499 13.553,16.610 13.428,16.656 13.340 C 16.738 13.185,16.740 13.120,16.752 11.123 C 16.764 8.939,16.752 8.763,16.581 8.538 C 16.419 8.325,16.109 8.222,15.826 8.286 M20.145 9.119 C 20.738 9.390,21.028 9.905,21.170 10.940 C 21.240 11.447,21.240 16.553,21.170 17.060 C 21.073 17.764,20.894 18.252,20.620 18.555 C 20.351 18.853,19.806 19.068,19.060 19.170 C 18.542 19.242,8.458 19.242,7.940 19.170 C 7.194 19.068,6.649 18.853,6.380 18.555 C 6.247 18.407,6.046 18.035,5.984 17.820 C 5.961 17.740,5.980 17.740,10.570 17.739 C 15.376 17.738,15.938 17.722,16.749 17.564 C 18.352 17.251,19.232 16.376,19.557 14.772 C 19.690 14.115,19.731 13.256,19.735 11.050 C 19.739 8.659,19.686 8.909,20.145 9.119 M10.773 9.279 C 11.421 9.385,12.000 9.887,12.177 10.497 C 12.258 10.773,12.258 11.227,12.177 11.503 C 11.914 12.410,10.890 12.951,9.978 12.667 C 9.582 12.544,9.132 12.177,8.957 11.835 C 8.753 11.435,8.701 10.915,8.823 10.497 C 8.953 10.048,9.332 9.620,9.780 9.415 C 10.121 9.259,10.409 9.219,10.773 9.279 " stroke="none" fill-rule="evenodd" fill="black"></path></svg>