<svg width="24" height="24" viewBox="0 0 24 24" fill="none" xmlns="http://www.w3.org/2000/svg"><path d="M6.940 4.279 C 5.850 4.311,5.636 4.328,5.080 4.425 C 4.014 4.610,3.262 5.004,2.559 5.744 C 1.759 6.586,1.439 7.424,1.315 9.005 C 1.251 9.831,1.251 14.165,1.316 14.995 C 1.440 16.586,1.761 17.421,2.576 18.271 C 3.458 19.191,4.319 19.547,6.001 19.687 C 6.886 19.761,17.112 19.761,17.995 19.687 C 19.590 19.555,20.416 19.239,21.256 18.441 C 22.181 17.563,22.554 16.661,22.684 14.995 C 22.749 14.166,22.749 9.830,22.684 9.005 C 22.554 7.341,22.177 6.431,21.256 5.560 C 20.429 4.778,19.580 4.446,18.080 4.318 C 17.473 4.266,8.456 4.235,6.940 4.279 M18.340 5.834 C 19.313 5.979,19.740 6.174,20.283 6.717 C 20.843 7.277,21.039 7.722,21.167 8.725 C 21.243 9.317,21.243 14.683,21.167 15.275 C 21.039 16.279,20.843 16.725,20.283 17.281 C 19.733 17.828,19.364 18.000,18.430 18.149 C 18.013 18.215,17.547 18.220,12.000 18.220 C 6.453 18.220,5.987 18.215,5.570 18.149 C 4.634 18.000,4.265 17.827,3.719 17.281 C 3.173 16.735,3.000 16.366,2.851 15.430 C 2.788 15.027,2.780 14.666,2.780 12.000 C 2.780 9.325,2.787 8.973,2.852 8.566 C 2.991 7.690,3.176 7.274,3.647 6.778 C 4.257 6.135,4.859 5.893,6.068 5.804 C 6.815 5.749,17.952 5.776,18.340 5.834 M5.420 8.260 C 5.398 8.267,5.331 8.284,5.271 8.297 C 5.124 8.329,4.881 8.548,4.814 8.708 C 4.770 8.813,4.760 9.434,4.760 11.996 C 4.760 14.131,4.774 15.191,4.803 15.267 C 4.905 15.540,5.193 15.731,5.500 15.731 C 5.807 15.731,6.095 15.540,6.197 15.267 C 6.257 15.111,6.257 8.889,6.197 8.733 C 6.146 8.597,5.977 8.412,5.840 8.342 C 5.732 8.287,5.485 8.238,5.420 8.260 M11.760 8.268 C 10.880 8.329,10.052 8.691,9.406 9.297 C 8.884 9.787,8.454 10.588,8.319 11.320 C 8.257 11.654,8.257 12.346,8.319 12.680 C 8.459 13.440,8.898 14.240,9.454 14.747 C 9.871 15.129,10.516 15.486,11.025 15.617 C 11.619 15.770,12.381 15.770,12.975 15.617 C 13.484 15.486,14.129 15.129,14.546 14.747 C 15.102 14.240,15.541 13.440,15.681 12.680 C 15.743 12.346,15.743 11.654,15.681 11.320 C 15.546 10.588,15.116 9.787,14.594 9.297 C 13.832 8.582,12.776 8.198,11.760 8.268 M18.420 8.260 C 18.398 8.267,18.331 8.284,18.271 8.297 C 18.124 8.329,17.881 8.548,17.814 8.708 C 17.770 8.813,17.760 9.434,17.760 11.996 C 17.760 14.131,17.774 15.191,17.803 15.267 C 17.905 15.540,18.193 15.731,18.500 15.731 C 18.807 15.731,19.095 15.540,19.197 15.267 C 19.226 15.191,19.240 14.132,19.240 12.000 C 19.240 9.868,19.226 8.809,19.197 8.733 C 19.146 8.597,18.977 8.412,18.840 8.342 C 18.732 8.287,18.485 8.238,18.420 8.260 M12.578 9.821 C 12.949 9.918,13.274 10.112,13.581 10.419 C 14.041 10.879,14.240 11.356,14.240 12.000 C 14.240 12.644,14.041 13.121,13.581 13.581 C 13.121 14.041,12.644 14.240,12.000 14.240 C 11.356 14.240,10.879 14.041,10.419 13.581 C 9.959 13.121,9.760 12.644,9.760 12.000 C 9.760 11.356,9.959 10.879,10.419 10.419 C 10.719 10.118,11.050 9.919,11.404 9.823 C 11.692 9.746,12.285 9.745,12.578 9.821 " stroke="none" fill-rule="evenodd" fill="black"></path></svg>