<svg width="24" height="24" viewBox="0 0 24 24" fill="none" xmlns="http://www.w3.org/2000/svg"><path d="M11.074 1.282 C 10.063 1.329,8.658 1.512,7.988 1.683 C 6.254 2.125,4.880 3.481,4.422 5.201 C 4.253 5.835,4.221 6.693,4.342 7.340 C 4.429 7.810,4.827 8.311,5.294 8.540 C 5.675 8.726,5.941 8.758,7.113 8.759 C 8.020 8.760,8.084 8.765,8.064 8.830 C 8.052 8.869,7.682 10.592,7.240 12.660 C 6.791 14.767,6.401 16.502,6.354 16.606 C 6.304 16.717,6.266 16.895,6.259 17.046 C 6.253 17.186,6.022 18.357,5.744 19.648 C 5.192 22.216,5.197 22.171,5.414 22.455 C 5.757 22.906,6.532 22.776,6.701 22.240 C 6.718 22.185,6.943 21.159,7.200 19.960 L 7.667 17.780 12.000 17.780 L 16.333 17.780 16.800 19.960 C 17.057 21.159,17.282 22.185,17.299 22.240 C 17.411 22.594,17.816 22.807,18.196 22.712 C 18.435 22.652,18.653 22.430,18.714 22.185 C 18.759 22.009,18.733 21.861,18.246 19.569 C 17.962 18.233,17.729 17.065,17.727 16.973 C 17.726 16.881,17.688 16.719,17.644 16.613 C 17.600 16.507,17.202 14.728,16.760 12.660 C 16.319 10.592,15.948 8.869,15.936 8.830 C 15.916 8.765,15.980 8.760,16.887 8.759 C 18.059 8.758,18.325 8.726,18.706 8.540 C 19.173 8.311,19.571 7.810,19.658 7.340 C 20.040 5.293,19.064 3.214,17.234 2.176 C 16.496 1.758,15.701 1.556,14.020 1.362 C 13.638 1.318,12.130 1.238,11.860 1.247 C 11.772 1.250,11.418 1.266,11.074 1.282 M13.380 2.801 C 14.007 2.854,14.965 2.984,15.430 3.081 C 16.148 3.229,16.717 3.525,17.199 4.000 C 17.548 4.344,17.703 4.556,17.923 4.996 C 18.161 5.473,18.250 5.911,18.234 6.526 C 18.221 6.999,18.213 7.041,18.123 7.137 L 18.026 7.240 12.000 7.240 L 5.974 7.240 5.877 7.137 C 5.787 7.041,5.779 6.997,5.766 6.542 C 5.750 5.972,5.814 5.592,5.998 5.159 C 6.365 4.296,7.132 3.554,7.980 3.242 C 8.409 3.084,9.540 2.891,10.540 2.805 C 11.112 2.756,12.815 2.754,13.380 2.801 M14.420 8.850 C 14.431 8.900,14.784 10.542,15.202 12.500 C 15.621 14.458,15.974 16.101,15.986 16.150 L 16.009 16.240 12.000 16.240 L 7.991 16.240 8.014 16.150 C 8.026 16.101,8.379 14.458,8.798 12.500 C 9.216 10.542,9.569 8.900,9.580 8.850 L 9.602 8.760 12.000 8.760 L 14.398 8.760 14.420 8.850 " stroke="none" fill-rule="evenodd" fill="black"></path></svg>