<svg width="24" height="24" viewBox="0 0 24 24" fill="none" xmlns="http://www.w3.org/2000/svg"><path d="M11.255 1.282 C 9.162 1.423,7.185 2.173,5.440 3.489 C 3.804 4.723,2.470 6.601,1.813 8.594 C 1.432 9.753,1.269 10.771,1.268 12.000 C 1.266 14.415,2.002 16.588,3.489 18.560 C 4.717 20.187,6.608 21.534,8.575 22.180 C 12.002 23.306,15.636 22.713,18.480 20.563 C 20.836 18.782,22.344 16.125,22.683 13.160 C 22.743 12.626,22.744 11.387,22.683 10.840 C 22.331 7.681,20.619 4.847,18.000 3.091 C 16.364 1.995,14.622 1.408,12.620 1.281 C 11.929 1.237,11.918 1.237,11.255 1.282 M12.992 2.802 C 13.736 2.883,14.804 3.142,15.373 3.380 L 15.519 3.441 15.421 3.661 C 15.140 4.297,14.519 5.184,13.792 5.987 C 13.430 6.387,12.805 6.995,12.551 7.194 C 12.488 7.243,12.407 7.174,11.751 6.514 C 10.911 5.670,10.029 4.866,9.070 4.068 C 8.701 3.761,8.400 3.504,8.400 3.496 C 8.400 3.472,8.671 3.362,9.040 3.235 C 9.491 3.080,10.283 2.895,10.801 2.825 C 11.308 2.756,12.459 2.744,12.992 2.802 M17.180 4.333 C 19.426 5.823,20.958 8.415,21.208 11.149 C 21.234 11.440,21.248 11.686,21.238 11.696 C 21.228 11.706,20.987 11.699,20.702 11.680 C 19.394 11.594,17.786 11.834,16.282 12.338 C 15.987 12.437,15.742 12.514,15.739 12.509 C 15.736 12.504,15.646 12.275,15.538 12.000 C 15.104 10.896,14.465 9.744,13.779 8.831 C 13.614 8.612,13.480 8.420,13.480 8.405 C 13.480 8.390,13.688 8.189,13.943 7.959 C 15.030 6.978,16.087 5.643,16.643 4.548 C 16.763 4.314,16.876 4.137,16.899 4.150 C 16.922 4.163,17.048 4.246,17.180 4.333 M7.368 4.607 C 8.584 5.573,10.311 7.128,10.975 7.858 L 11.279 8.192 10.789 8.510 C 9.021 9.661,7.186 10.406,5.340 10.724 C 4.806 10.816,3.639 10.868,3.146 10.822 C 2.783 10.788,2.798 10.838,2.940 10.135 C 3.291 8.402,4.193 6.728,5.455 5.466 C 5.940 4.981,6.809 4.280,6.925 4.280 C 6.942 4.280,7.141 4.427,7.368 4.607 M12.469 9.570 C 12.945 10.175,13.471 11.036,13.805 11.754 C 13.956 12.077,14.360 13.058,14.360 13.100 C 14.360 13.111,14.230 13.184,14.070 13.264 C 13.294 13.653,12.118 14.386,11.380 14.940 C 9.617 16.265,8.192 17.856,7.381 19.408 L 7.134 19.879 6.789 19.644 C 5.794 18.965,4.900 18.051,4.241 17.040 C 3.887 16.497,3.432 15.548,3.223 14.920 C 2.966 14.148,2.761 13.062,2.760 12.471 L 2.760 12.281 2.990 12.300 C 3.665 12.354,3.837 12.356,4.422 12.319 C 6.831 12.167,9.360 11.254,11.721 9.683 C 12.017 9.486,12.263 9.324,12.266 9.322 C 12.270 9.321,12.361 9.433,12.469 9.570 M21.144 13.211 C 21.189 13.255,21.050 13.996,20.896 14.531 C 20.399 16.267,19.441 17.765,18.043 18.993 C 17.573 19.406,17.528 19.432,17.503 19.311 C 17.493 19.261,17.419 18.887,17.339 18.480 C 17.077 17.138,16.757 15.791,16.421 14.623 C 16.322 14.275,16.240 13.976,16.240 13.958 C 16.240 13.910,17.283 13.576,17.852 13.442 C 18.289 13.339,18.892 13.231,19.280 13.185 C 19.518 13.157,21.112 13.179,21.144 13.211 M15.017 15.129 C 15.383 16.416,16.034 19.351,16.107 20.042 L 16.131 20.280 15.776 20.445 C 14.989 20.809,13.906 21.101,12.959 21.204 C 12.406 21.264,11.017 21.228,10.540 21.141 C 9.816 21.009,8.619 20.668,8.507 20.562 C 8.466 20.523,8.808 19.862,9.093 19.428 C 10.241 17.680,12.276 15.902,14.420 14.774 C 14.640 14.659,14.832 14.577,14.846 14.592 C 14.860 14.607,14.937 14.849,15.017 15.129 " stroke="none" fill-rule="evenodd" fill="black"></path></svg>