<svg width="24" height="24" viewBox="0 0 24 24" fill="none" xmlns="http://www.w3.org/2000/svg"><path d="M4.965 1.282 C 3.906 1.425,2.992 2.106,2.544 3.086 C 2.249 3.732,2.265 3.486,2.250 7.564 L 2.237 11.229 1.993 11.254 C 1.537 11.302,1.267 11.579,1.267 11.997 C 1.267 12.417,1.497 12.661,1.964 12.734 L 2.240 12.778 2.240 13.127 C 2.240 15.034,2.758 16.616,3.855 18.060 C 4.231 18.553,4.833 19.176,5.233 19.485 L 5.367 19.587 4.847 20.626 C 4.561 21.198,4.307 21.740,4.282 21.831 C 4.143 22.348,4.652 22.856,5.172 22.717 C 5.504 22.629,5.561 22.552,6.120 21.439 L 6.641 20.401 6.870 20.507 C 7.455 20.775,8.269 21.018,8.920 21.119 C 9.940 21.276,14.060 21.276,15.080 21.119 C 15.731 21.018,16.545 20.775,17.130 20.507 L 17.359 20.401 17.880 21.439 C 18.439 22.552,18.496 22.629,18.828 22.717 C 19.348 22.856,19.857 22.348,19.718 21.831 C 19.693 21.740,19.439 21.198,19.154 20.627 L 18.634 19.590 18.787 19.465 C 20.219 18.301,21.249 16.626,21.596 14.900 C 21.692 14.423,21.778 13.365,21.749 13.012 L 21.729 12.760 21.843 12.760 C 22.454 12.760,22.826 12.355,22.711 11.816 C 22.659 11.572,22.440 11.350,22.189 11.286 C 22.052 11.252,19.664 11.240,12.881 11.240 L 3.758 11.240 3.769 7.590 L 3.780 3.940 3.897 3.700 C 4.047 3.393,4.393 3.047,4.700 2.897 C 4.921 2.789,4.974 2.780,5.381 2.780 C 5.798 2.780,5.836 2.787,6.087 2.911 C 6.452 3.090,6.749 3.416,6.918 3.822 L 7.047 4.130 6.833 4.315 C 5.545 5.426,5.041 7.216,5.574 8.790 C 5.696 9.152,5.798 9.293,6.013 9.397 C 6.348 9.559,6.273 9.585,9.589 8.160 C 11.278 7.434,12.705 6.806,12.760 6.766 C 12.924 6.645,13.039 6.405,13.039 6.178 C 13.040 6.023,13.003 5.899,12.881 5.648 C 12.353 4.556,11.462 3.819,10.274 3.490 C 10.071 3.434,9.883 3.422,9.340 3.428 C 8.966 3.432,8.600 3.441,8.527 3.448 C 8.399 3.460,8.391 3.452,8.280 3.192 C 7.968 2.464,7.462 1.934,6.726 1.563 C 6.249 1.322,5.523 1.207,4.965 1.282 M9.936 4.959 C 10.353 5.066,10.684 5.250,10.996 5.549 C 11.139 5.685,11.248 5.805,11.238 5.814 C 11.228 5.823,10.250 6.248,9.064 6.758 C 7.652 7.366,6.895 7.671,6.870 7.646 C 6.809 7.585,6.900 6.929,7.015 6.599 C 7.283 5.830,7.899 5.226,8.660 4.987 C 9.070 4.858,9.505 4.849,9.936 4.959 M20.179 12.839 C 20.244 12.911,20.249 12.984,20.230 13.609 C 20.215 14.100,20.185 14.405,20.126 14.662 C 19.687 16.581,18.360 18.243,16.583 19.099 C 15.401 19.668,14.933 19.733,12.000 19.733 C 9.067 19.733,8.599 19.668,7.417 19.099 C 5.638 18.242,4.313 16.583,3.874 14.662 C 3.815 14.405,3.785 14.100,3.770 13.609 C 3.751 12.984,3.756 12.911,3.821 12.839 C 3.892 12.761,3.970 12.760,12.000 12.760 C 20.030 12.760,20.108 12.761,20.179 12.839 " stroke="none" fill-rule="evenodd" fill="black"></path></svg>