<svg width="24" height="24" viewBox="0 0 24 24" fill="none" xmlns="http://www.w3.org/2000/svg"><path d="M7.420 3.282 C 6.310 3.313,5.804 3.357,5.096 3.481 C 3.320 3.792,2.190 4.718,1.679 6.283 C 1.408 7.112,1.333 7.823,1.273 10.110 C 1.219 12.202,1.273 15.383,1.377 16.220 C 1.564 17.732,1.912 18.593,2.635 19.331 C 3.353 20.065,4.272 20.441,5.787 20.621 C 7.223 20.791,13.944 20.804,15.580 20.639 C 16.535 20.543,17.461 20.294,18.014 19.985 C 18.986 19.441,19.664 18.493,19.945 17.284 C 20.191 16.229,20.220 15.668,20.220 12.000 C 20.220 8.332,20.191 7.771,19.945 6.716 C 19.664 5.507,18.986 4.559,18.014 4.015 C 17.461 3.706,16.534 3.457,15.580 3.361 C 14.511 3.254,9.996 3.210,7.420 3.282 M14.840 4.801 C 16.875 4.940,17.732 5.326,18.212 6.320 C 18.659 7.246,18.759 8.279,18.759 12.000 C 18.759 15.700,18.658 16.757,18.215 17.673 C 17.732 18.673,16.878 19.060,14.840 19.199 C 14.061 19.253,7.476 19.252,6.659 19.198 C 3.889 19.016,3.093 18.317,2.833 15.840 C 2.758 15.128,2.758 8.872,2.833 8.160 C 3.051 6.077,3.679 5.278,5.360 4.944 C 5.628 4.891,6.303 4.820,6.860 4.786 C 7.408 4.753,14.332 4.766,14.840 4.801 M11.267 8.297 C 11.183 8.327,11.077 8.386,11.031 8.426 C 10.910 8.533,8.376 11.576,8.318 11.684 C 8.291 11.735,8.267 11.867,8.266 11.979 C 8.262 12.242,8.377 12.464,8.597 12.620 L 8.767 12.740 9.821 12.760 L 10.876 12.780 10.174 13.620 C 9.283 14.686,9.270 14.706,9.266 14.971 C 9.260 15.398,9.565 15.729,9.967 15.733 C 10.355 15.737,10.372 15.722,11.752 14.065 C 12.451 13.226,13.065 12.484,13.115 12.416 C 13.296 12.170,13.276 11.770,13.072 11.537 C 12.834 11.266,12.812 11.261,11.670 11.247 C 11.103 11.240,10.640 11.226,10.640 11.216 C 10.640 11.206,10.975 10.798,11.384 10.309 C 11.794 9.820,12.154 9.362,12.184 9.291 C 12.251 9.138,12.256 8.889,12.197 8.733 C 12.065 8.382,11.615 8.171,11.267 8.297 M21.815 9.277 C 21.638 9.321,21.461 9.456,21.353 9.631 L 21.260 9.780 21.260 12.000 L 21.260 14.220 21.353 14.369 C 21.710 14.943,22.576 14.812,22.716 14.162 C 22.774 13.891,22.775 10.093,22.717 9.841 C 22.623 9.432,22.215 9.177,21.815 9.277 " stroke="none" fill-rule="evenodd" fill="black"></path></svg>