<svg width="24" height="24" viewBox="0 0 24 24" fill="none" xmlns="http://www.w3.org/2000/svg"><path d="M7.420 3.282 C 6.310 3.313,5.804 3.357,5.096 3.481 C 3.320 3.792,2.190 4.718,1.679 6.283 C 1.408 7.112,1.333 7.823,1.273 10.110 C 1.219 12.202,1.273 15.383,1.377 16.220 C 1.564 17.732,1.912 18.593,2.635 19.331 C 3.353 20.065,4.272 20.441,5.787 20.621 C 7.223 20.791,13.944 20.804,15.580 20.639 C 16.535 20.543,17.461 20.294,18.014 19.985 C 18.986 19.441,19.664 18.493,19.945 17.284 C 20.085 16.682,20.199 15.697,20.200 15.076 L 20.200 14.771 20.410 14.746 C 20.526 14.732,20.739 14.721,20.884 14.720 C 21.205 14.720,21.700 14.598,21.930 14.464 C 22.290 14.253,22.517 13.932,22.645 13.454 C 22.721 13.170,22.729 13.033,22.729 12.000 C 22.729 10.972,22.721 10.829,22.646 10.550 C 22.516 10.065,22.292 9.750,21.914 9.526 C 21.717 9.408,21.198 9.280,20.919 9.280 C 20.794 9.280,20.581 9.268,20.446 9.254 L 20.200 9.229 20.200 8.924 C 20.199 8.303,20.085 7.318,19.945 6.716 C 19.664 5.507,18.986 4.559,18.014 4.015 C 17.461 3.706,16.534 3.457,15.580 3.361 C 14.511 3.254,9.996 3.210,7.420 3.282 M14.840 4.801 C 16.875 4.940,17.732 5.326,18.212 6.320 C 18.659 7.246,18.759 8.279,18.759 12.000 C 18.759 15.700,18.658 16.757,18.215 17.673 C 17.732 18.673,16.878 19.060,14.840 19.199 C 14.061 19.253,7.476 19.252,6.659 19.198 C 3.889 19.016,3.093 18.317,2.833 15.840 C 2.758 15.128,2.758 8.872,2.833 8.160 C 3.051 6.077,3.679 5.278,5.360 4.944 C 5.628 4.891,6.303 4.820,6.860 4.786 C 7.408 4.753,14.332 4.766,14.840 4.801 M6.785 8.289 C 6.550 8.351,6.338 8.586,6.279 8.848 C 6.234 9.048,6.238 9.082,6.335 9.324 C 6.625 10.049,6.736 10.791,6.736 12.000 C 6.736 13.209,6.625 13.951,6.335 14.676 C 6.238 14.918,6.234 14.952,6.279 15.152 C 6.398 15.682,7.004 15.911,7.449 15.593 C 7.667 15.438,7.868 14.955,8.035 14.180 C 8.187 13.477,8.220 13.089,8.218 11.980 C 8.217 10.784,8.171 10.339,7.960 9.506 C 7.754 8.693,7.560 8.388,7.180 8.284 C 6.997 8.234,6.993 8.234,6.785 8.289 M21.173 10.837 C 21.207 10.871,21.220 11.205,21.220 12.000 C 21.220 12.795,21.207 13.129,21.173 13.163 C 21.148 13.188,21.044 13.218,20.943 13.230 L 20.760 13.250 20.760 12.000 L 20.760 10.750 20.943 10.770 C 21.044 10.782,21.148 10.812,21.173 10.837 " stroke="none" fill-rule="evenodd" fill="black"></path></svg>