<svg width="24" height="24" viewBox="0 0 24 24" fill="none" xmlns="http://www.w3.org/2000/svg"><path d="M7.420 3.282 C 6.310 3.313,5.804 3.357,5.096 3.481 C 3.320 3.792,2.190 4.718,1.679 6.283 C 1.408 7.112,1.333 7.823,1.273 10.110 C 1.219 12.202,1.273 15.383,1.377 16.220 C 1.564 17.732,1.912 18.593,2.635 19.331 C 3.353 20.065,4.272 20.441,5.787 20.621 C 7.223 20.791,13.944 20.804,15.580 20.639 C 16.535 20.543,17.461 20.294,18.014 19.985 C 18.986 19.441,19.664 18.493,19.945 17.284 C 20.191 16.229,20.220 15.668,20.220 12.000 C 20.220 8.332,20.191 7.771,19.945 6.716 C 19.664 5.507,18.986 4.559,18.014 4.015 C 17.461 3.706,16.534 3.457,15.580 3.361 C 14.511 3.254,9.996 3.210,7.420 3.282 M14.840 4.801 C 16.875 4.940,17.732 5.326,18.212 6.320 C 18.659 7.246,18.759 8.279,18.759 12.000 C 18.759 15.700,18.658 16.757,18.215 17.673 C 17.732 18.673,16.878 19.060,14.840 19.199 C 14.061 19.253,7.476 19.252,6.659 19.198 C 3.889 19.016,3.093 18.317,2.833 15.840 C 2.758 15.128,2.758 8.872,2.833 8.160 C 3.051 6.077,3.679 5.278,5.360 4.944 C 5.628 4.891,6.303 4.820,6.860 4.786 C 7.408 4.753,14.332 4.766,14.840 4.801 M6.785 8.289 C 6.550 8.351,6.338 8.586,6.279 8.848 C 6.234 9.048,6.238 9.082,6.335 9.324 C 6.625 10.049,6.736 10.791,6.736 12.000 C 6.736 13.209,6.625 13.951,6.335 14.676 C 6.238 14.918,6.234 14.952,6.279 15.152 C 6.398 15.682,7.004 15.911,7.449 15.593 C 7.667 15.438,7.868 14.955,8.035 14.180 C 8.187 13.477,8.220 13.089,8.218 11.980 C 8.217 10.784,8.171 10.339,7.960 9.506 C 7.754 8.693,7.560 8.388,7.180 8.284 C 6.997 8.234,6.993 8.234,6.785 8.289 M10.420 8.258 C 10.398 8.266,10.331 8.284,10.271 8.297 C 10.124 8.329,9.881 8.548,9.814 8.708 C 9.733 8.902,9.749 9.135,9.861 9.402 C 10.369 10.609,10.369 13.391,9.861 14.598 C 9.703 14.973,9.733 15.261,9.953 15.494 C 10.266 15.825,10.710 15.828,11.024 15.501 C 11.229 15.289,11.400 14.837,11.538 14.147 C 11.683 13.426,11.728 12.913,11.728 12.000 C 11.728 11.087,11.683 10.574,11.538 9.853 C 11.367 8.998,11.135 8.493,10.845 8.343 C 10.729 8.283,10.485 8.234,10.420 8.258 M13.785 8.289 C 13.550 8.351,13.338 8.586,13.279 8.848 C 13.234 9.048,13.238 9.082,13.335 9.324 C 13.625 10.049,13.736 10.791,13.736 12.000 C 13.736 13.209,13.625 13.951,13.335 14.676 C 13.238 14.918,13.234 14.952,13.279 15.152 C 13.398 15.682,14.004 15.911,14.449 15.593 C 14.667 15.438,14.868 14.955,15.035 14.180 C 15.187 13.477,15.220 13.089,15.218 11.980 C 15.217 10.784,15.171 10.339,14.960 9.506 C 14.754 8.693,14.560 8.388,14.180 8.284 C 13.997 8.234,13.993 8.234,13.785 8.289 M21.815 9.277 C 21.638 9.321,21.461 9.456,21.353 9.631 L 21.260 9.780 21.260 12.000 L 21.260 14.220 21.353 14.369 C 21.710 14.943,22.576 14.812,22.716 14.162 C 22.774 13.891,22.775 10.093,22.717 9.841 C 22.623 9.432,22.215 9.177,21.815 9.277 " stroke="none" fill-rule="evenodd" fill="black"></path></svg>