<svg width="24" height="24" viewBox="0 0 24 24" fill="none" xmlns="http://www.w3.org/2000/svg"><path d="M1.815 5.277 C 1.638 5.321,1.461 5.456,1.353 5.631 L 1.260 5.780 1.260 12.000 L 1.260 18.220 1.353 18.369 C 1.710 18.943,2.576 18.812,2.716 18.162 C 2.740 18.049,2.760 17.687,2.760 17.358 L 2.760 16.760 11.996 16.760 L 21.232 16.760 21.246 17.490 C 21.259 18.171,21.266 18.230,21.353 18.369 C 21.710 18.943,22.576 18.812,22.716 18.162 C 22.770 17.910,22.773 15.255,22.720 13.820 C 22.696 13.146,22.657 12.667,22.603 12.350 C 22.307 10.643,21.108 9.100,19.469 8.319 C 18.979 8.086,18.515 7.947,17.932 7.858 C 17.363 7.771,14.156 7.726,13.622 7.797 C 12.992 7.881,12.510 8.122,12.060 8.577 C 11.551 9.091,11.342 9.572,11.280 10.369 C 11.259 10.639,11.241 11.845,11.241 13.050 L 11.240 15.240 7.000 15.240 L 2.760 15.240 2.759 10.630 C 2.758 7.607,2.744 5.958,2.717 5.841 C 2.623 5.432,2.215 5.177,1.815 5.277 M6.405 7.805 C 5.790 7.907,5.216 8.217,4.716 8.716 C 4.065 9.368,3.761 10.095,3.761 11.000 C 3.761 11.905,4.065 12.632,4.716 13.284 C 5.368 13.935,6.095 14.239,7.000 14.239 C 7.905 14.239,8.632 13.935,9.284 13.284 C 9.935 12.632,10.239 11.905,10.239 11.000 C 10.239 10.095,9.935 9.368,9.284 8.716 C 8.619 8.052,7.889 7.753,6.960 7.765 C 6.773 7.767,6.523 7.785,6.405 7.805 M7.293 9.279 C 7.634 9.335,7.931 9.487,8.202 9.745 C 8.929 10.439,8.929 11.561,8.202 12.255 C 7.511 12.914,6.489 12.914,5.798 12.255 C 5.090 11.580,5.068 10.508,5.745 9.798 C 6.164 9.359,6.696 9.181,7.293 9.279 M17.024 9.280 C 17.378 9.301,17.801 9.345,17.964 9.376 C 19.493 9.669,20.853 11.059,21.144 12.627 C 21.191 12.877,21.215 13.308,21.230 14.110 L 21.250 15.240 17.003 15.240 L 12.757 15.240 12.769 12.690 L 12.780 10.140 12.874 9.960 C 13.087 9.554,13.413 9.324,13.840 9.279 C 14.247 9.236,16.311 9.237,17.024 9.280 " stroke="none" fill-rule="evenodd" fill="black"></path></svg>