<svg width="24" height="24" viewBox="0 0 24 24" fill="none" xmlns="http://www.w3.org/2000/svg"><path d="M8.400 3.283 C 5.821 3.356,4.626 3.697,3.669 4.635 C 3.093 5.198,2.720 5.932,2.518 6.900 C 2.368 7.617,2.320 8.241,2.274 10.060 L 2.228 11.860 2.037 12.064 C 1.676 12.451,1.414 12.963,1.324 13.456 C 1.200 14.132,1.239 16.323,1.383 16.800 C 1.653 17.696,2.298 18.342,3.200 18.618 C 3.321 18.655,3.603 18.696,3.826 18.708 L 4.233 18.731 4.246 19.476 C 4.259 20.172,4.266 20.230,4.353 20.369 C 4.710 20.943,5.576 20.812,5.716 20.162 C 5.740 20.049,5.760 19.687,5.760 19.358 L 5.760 18.760 11.996 18.760 L 18.232 18.760 18.246 19.490 C 18.259 20.171,18.266 20.230,18.353 20.369 C 18.710 20.943,19.576 20.812,19.716 20.162 C 19.740 20.049,19.760 19.681,19.760 19.344 L 19.760 18.731 20.170 18.709 C 20.617 18.684,20.889 18.615,21.265 18.432 C 21.912 18.116,22.397 17.531,22.617 16.800 C 22.760 16.328,22.798 14.122,22.675 13.449 C 22.586 12.963,22.321 12.448,21.963 12.064 L 21.772 11.860 21.726 10.060 C 21.670 7.836,21.584 7.063,21.302 6.221 C 20.886 4.984,20.016 4.114,18.779 3.698 C 18.005 3.439,17.137 3.331,15.400 3.280 C 13.915 3.237,9.973 3.238,8.400 3.283 M16.340 4.801 C 17.905 4.904,18.700 5.145,19.266 5.689 C 19.981 6.376,20.240 7.597,20.240 10.289 L 20.240 11.280 20.070 11.280 C 19.977 11.280,19.752 11.268,19.570 11.254 L 19.240 11.228 19.240 10.204 C 19.239 8.404,19.158 7.780,18.840 7.133 C 18.435 6.308,17.663 5.894,16.361 5.800 C 15.657 5.749,8.343 5.749,7.639 5.800 C 6.337 5.894,5.565 6.308,5.160 7.133 C 4.842 7.780,4.761 8.404,4.760 10.204 L 4.760 11.228 4.430 11.254 C 4.248 11.268,4.021 11.280,3.924 11.280 L 3.749 11.280 3.772 9.890 C 3.785 9.126,3.814 8.320,3.838 8.100 C 4.095 5.706,4.919 4.981,7.580 4.804 C 8.285 4.757,15.634 4.754,16.340 4.801 M11.240 9.240 L 11.240 11.240 8.740 11.240 L 6.240 11.240 6.241 10.350 C 6.242 8.567,6.335 7.908,6.622 7.621 C 6.931 7.312,7.400 7.255,9.750 7.246 L 11.240 7.240 11.240 9.240 M16.121 7.279 C 17.132 7.345,17.436 7.499,17.600 8.029 C 17.704 8.368,17.758 9.149,17.759 10.350 L 17.760 11.240 15.260 11.240 L 12.760 11.240 12.760 9.240 L 12.760 7.240 14.150 7.241 C 14.915 7.241,15.801 7.259,16.121 7.279 M20.526 12.866 C 20.764 12.976,21.024 13.236,21.134 13.474 C 21.217 13.653,21.220 13.713,21.220 15.000 C 21.220 16.287,21.217 16.347,21.134 16.526 C 21.024 16.764,20.764 17.024,20.526 17.134 L 20.340 17.220 12.000 17.220 L 3.660 17.220 3.474 17.134 C 3.236 17.024,2.976 16.764,2.866 16.526 C 2.785 16.351,2.779 16.269,2.767 15.129 C 2.759 14.332,2.770 13.843,2.800 13.699 C 2.884 13.293,3.231 12.924,3.628 12.817 C 3.783 12.775,5.419 12.766,12.080 12.772 L 20.340 12.780 20.526 12.866 " stroke="none" fill-rule="evenodd" fill="black"></path></svg>