<svg width="24" height="24" viewBox="0 0 24 24" fill="none" xmlns="http://www.w3.org/2000/svg"><path d="M7.400 1.283 C 4.821 1.356,3.626 1.697,2.669 2.635 C 2.093 3.198,1.720 3.933,1.518 4.900 C 1.301 5.939,1.243 7.234,1.242 11.000 C 1.242 14.650,1.289 15.812,1.481 16.904 C 1.777 18.594,2.650 19.720,4.080 20.256 L 4.260 20.323 4.260 21.272 C 4.260 22.194,4.263 22.224,4.353 22.369 C 4.710 22.943,5.576 22.812,5.716 22.162 C 5.740 22.049,5.760 21.657,5.760 21.292 L 5.760 20.628 6.070 20.656 C 7.594 20.791,16.405 20.791,17.926 20.656 L 18.233 20.629 18.246 21.424 C 18.259 22.175,18.265 22.229,18.353 22.369 C 18.613 22.788,19.179 22.861,19.521 22.519 C 19.735 22.305,19.769 22.102,19.753 21.121 L 19.740 20.323 19.920 20.256 C 21.077 19.822,21.905 18.962,22.302 17.779 C 22.672 16.675,22.757 15.412,22.757 11.000 C 22.757 6.588,22.672 5.325,22.302 4.221 C 21.886 2.984,21.016 2.114,19.779 1.698 C 19.005 1.439,18.137 1.331,16.400 1.280 C 14.906 1.237,8.973 1.238,7.400 1.283 M17.340 2.801 C 18.538 2.880,19.127 3.005,19.738 3.310 C 20.617 3.749,21.075 4.732,21.178 6.400 C 21.191 6.609,21.211 6.884,21.223 7.010 L 21.244 7.240 12.002 7.240 L 2.761 7.240 2.782 6.930 C 2.864 5.747,2.929 5.293,3.088 4.800 C 3.520 3.458,4.411 2.948,6.580 2.804 C 7.289 2.756,16.629 2.754,17.340 2.801 M11.667 4.065 C 11.303 4.177,11.000 4.602,11.000 5.000 C 11.000 5.520,11.480 6.000,12.000 6.000 C 12.517 6.000,13.000 5.517,13.000 5.000 C 13.000 4.598,12.688 4.173,12.310 4.061 C 12.061 3.987,11.919 3.988,11.667 4.065 M21.240 11.000 L 21.240 13.240 12.000 13.240 L 2.760 13.240 2.760 11.000 L 2.760 8.760 12.000 8.760 L 21.240 8.760 21.240 11.000 M11.667 10.065 C 11.303 10.177,11.000 10.602,11.000 11.000 C 11.000 11.520,11.480 12.000,12.000 12.000 C 12.517 12.000,13.000 11.517,13.000 11.000 C 13.000 10.598,12.688 10.173,12.310 10.061 C 12.061 9.987,11.919 9.988,11.667 10.065 M21.223 14.990 C 21.211 15.117,21.191 15.391,21.178 15.600 C 21.098 16.901,20.793 17.805,20.266 18.311 C 19.696 18.859,18.878 19.101,17.260 19.201 C 16.281 19.262,6.622 19.231,6.080 19.165 C 4.262 18.945,3.481 18.432,3.087 17.200 C 2.929 16.704,2.864 16.251,2.782 15.070 L 2.761 14.760 12.002 14.760 L 21.244 14.760 21.223 14.990 M11.667 16.065 C 11.303 16.177,11.000 16.602,11.000 17.000 C 11.000 17.520,11.480 18.000,12.000 18.000 C 12.517 18.000,13.000 17.517,13.000 17.000 C 13.000 16.598,12.688 16.173,12.310 16.061 C 12.061 15.987,11.919 15.988,11.667 16.065 " stroke="none" fill-rule="evenodd" fill="black"></path></svg>