<svg width="24" height="24" viewBox="0 0 24 24" fill="none" xmlns="http://www.w3.org/2000/svg"><path d="M7.400 1.283 C 5.908 1.325,4.965 1.449,4.221 1.698 C 2.984 2.114,2.114 2.984,1.698 4.221 C 1.338 5.294,1.246 6.581,1.242 10.600 C 1.237 15.179,1.327 16.639,1.680 17.719 C 2.081 18.949,2.900 19.813,4.080 20.256 L 4.260 20.323 4.260 21.272 C 4.260 22.194,4.263 22.224,4.353 22.369 C 4.710 22.943,5.576 22.812,5.716 22.162 C 5.740 22.049,5.760 21.657,5.760 21.292 L 5.760 20.628 6.070 20.656 C 7.594 20.791,16.405 20.791,17.926 20.656 L 18.233 20.629 18.246 21.424 C 18.259 22.175,18.265 22.229,18.353 22.369 C 18.613 22.788,19.179 22.861,19.521 22.519 C 19.735 22.305,19.769 22.102,19.753 21.121 L 19.740 20.323 19.920 20.256 C 21.077 19.822,21.905 18.962,22.302 17.779 C 22.671 16.680,22.764 15.214,22.758 10.580 C 22.753 6.573,22.661 5.292,22.302 4.221 C 21.886 2.984,21.016 2.114,19.779 1.698 C 19.005 1.439,18.137 1.331,16.400 1.280 C 14.906 1.237,8.973 1.238,7.400 1.283 M17.340 2.801 C 18.538 2.880,19.127 3.005,19.738 3.310 C 20.617 3.749,21.075 4.732,21.178 6.400 C 21.191 6.609,21.211 6.884,21.223 7.010 L 21.244 7.240 12.002 7.240 L 2.761 7.240 2.782 6.930 C 2.864 5.747,2.929 5.293,3.088 4.800 C 3.520 3.458,4.411 2.948,6.580 2.804 C 7.289 2.756,16.629 2.754,17.340 2.801 M11.240 14.004 L 11.240 19.248 8.870 19.229 C 7.504 19.218,6.331 19.191,6.100 19.164 C 3.831 18.907,3.103 18.184,2.836 15.920 C 2.807 15.681,2.784 14.285,2.772 12.150 L 2.754 8.760 6.997 8.760 L 11.240 8.760 11.240 14.004 M21.240 11.731 C 21.240 15.404,21.194 16.218,20.939 17.099 C 20.646 18.111,20.109 18.647,19.093 18.941 C 18.280 19.176,17.353 19.240,14.731 19.240 L 12.760 19.240 12.760 14.000 L 12.760 8.760 17.000 8.760 L 21.240 8.760 21.240 11.731 M8.815 11.277 C 8.638 11.321,8.461 11.456,8.353 11.631 L 8.260 11.780 8.260 13.500 L 8.260 15.220 8.353 15.369 C 8.710 15.943,9.576 15.812,9.716 15.162 C 9.773 14.894,9.774 12.090,9.717 11.841 C 9.623 11.432,9.215 11.177,8.815 11.277 M14.815 11.277 C 14.638 11.321,14.461 11.456,14.353 11.631 L 14.260 11.780 14.260 13.500 L 14.260 15.220 14.353 15.369 C 14.710 15.943,15.576 15.812,15.716 15.162 C 15.773 14.894,15.774 12.090,15.717 11.841 C 15.623 11.432,15.215 11.177,14.815 11.277 " stroke="none" fill-rule="evenodd" fill="black"></path></svg>