<svg width="24" height="24" viewBox="0 0 24 24" fill="none" xmlns="http://www.w3.org/2000/svg"><path d="M7.400 1.283 C 4.821 1.356,3.626 1.697,2.669 2.635 C 1.935 3.353,1.558 4.273,1.379 5.787 C 1.207 7.243,1.193 14.518,1.360 16.060 C 1.531 17.644,1.894 18.574,2.635 19.331 C 3.012 19.717,3.535 20.051,4.080 20.256 L 4.260 20.323 4.260 21.272 C 4.260 22.194,4.263 22.224,4.353 22.369 C 4.710 22.943,5.576 22.812,5.716 22.162 C 5.740 22.049,5.760 21.657,5.760 21.292 L 5.760 20.628 6.070 20.656 C 7.594 20.791,16.405 20.791,17.926 20.656 L 18.233 20.629 18.246 21.424 C 18.259 22.175,18.265 22.229,18.353 22.369 C 18.613 22.788,19.179 22.861,19.521 22.519 C 19.735 22.305,19.769 22.102,19.753 21.121 L 19.740 20.323 19.920 20.256 C 21.077 19.822,21.905 18.962,22.302 17.779 C 22.662 16.706,22.758 15.280,22.758 11.000 C 22.758 6.720,22.662 5.294,22.302 4.221 C 21.886 2.984,21.016 2.114,19.779 1.698 C 19.005 1.439,18.137 1.331,16.400 1.280 C 14.906 1.237,8.973 1.238,7.400 1.283 M17.340 2.801 C 18.245 2.860,18.701 2.931,19.200 3.089 C 19.901 3.311,20.393 3.693,20.676 4.236 C 21.111 5.073,21.240 6.109,21.240 8.769 L 21.240 10.240 11.995 10.240 L 2.751 10.240 2.771 8.370 C 2.783 7.341,2.812 6.320,2.837 6.100 C 3.103 3.698,3.918 2.981,6.580 2.804 C 7.289 2.756,16.629 2.754,17.340 2.801 M8.720 5.805 C 8.458 5.909,8.269 6.200,8.269 6.500 C 8.269 6.807,8.460 7.095,8.733 7.197 C 8.809 7.226,9.868 7.240,12.000 7.240 C 14.132 7.240,15.191 7.226,15.267 7.197 C 15.540 7.095,15.731 6.807,15.731 6.500 C 15.731 6.193,15.540 5.905,15.267 5.803 C 15.117 5.746,8.863 5.748,8.720 5.805 M21.240 13.231 C 21.240 15.344,21.164 16.324,20.939 17.099 C 20.646 18.111,20.109 18.647,19.093 18.941 C 18.624 19.077,18.125 19.148,17.260 19.201 C 16.281 19.262,6.622 19.231,6.080 19.165 C 3.810 18.891,3.088 18.164,2.837 15.900 C 2.812 15.680,2.783 14.659,2.771 13.630 L 2.751 11.760 11.995 11.760 L 21.240 11.760 21.240 13.231 M8.720 14.805 C 8.458 14.909,8.269 15.200,8.269 15.500 C 8.269 15.807,8.460 16.095,8.733 16.197 C 8.809 16.226,9.868 16.240,12.000 16.240 C 14.132 16.240,15.191 16.226,15.267 16.197 C 15.540 16.095,15.731 15.807,15.731 15.500 C 15.731 15.193,15.540 14.905,15.267 14.803 C 15.117 14.746,8.863 14.748,8.720 14.805 " stroke="none" fill-rule="evenodd" fill="black"></path></svg>