<svg width="24" height="24" viewBox="0 0 24 24" fill="none" xmlns="http://www.w3.org/2000/svg"><path d="M11.387 1.281 C 9.538 1.419,7.775 2.250,6.457 3.606 C 5.826 4.255,5.431 4.815,5.037 5.620 C 4.471 6.776,4.242 7.909,4.239 9.560 C 4.238 10.324,4.146 10.757,3.863 11.313 C 3.810 11.419,3.456 11.972,3.077 12.543 C 2.329 13.669,2.165 13.972,2.038 14.460 C 1.609 16.108,2.468 17.874,4.030 18.556 C 4.335 18.690,5.542 19.007,6.324 19.160 L 6.788 19.251 6.937 19.581 C 7.441 20.699,8.313 21.581,9.500 22.172 C 10.267 22.554,11.051 22.728,12.000 22.728 C 12.949 22.728,13.733 22.554,14.500 22.172 C 15.684 21.582,16.561 20.697,17.063 19.581 L 17.212 19.251 17.676 19.160 C 18.458 19.007,19.665 18.690,19.970 18.556 C 21.532 17.874,22.391 16.108,21.962 14.460 C 21.835 13.972,21.671 13.669,20.923 12.543 C 20.544 11.972,20.190 11.419,20.137 11.313 C 19.857 10.762,19.762 10.322,19.760 9.580 C 19.757 7.906,19.530 6.778,18.963 5.620 C 18.569 4.815,18.174 4.255,17.543 3.606 C 15.926 1.942,13.717 1.108,11.387 1.281 M12.900 2.817 C 14.296 3.031,15.484 3.640,16.464 4.646 C 17.127 5.327,17.576 6.038,17.880 6.892 C 18.153 7.658,18.229 8.174,18.256 9.440 C 18.277 10.425,18.352 10.896,18.584 11.495 C 18.766 11.966,18.847 12.105,19.678 13.360 C 20.499 14.599,20.579 14.777,20.574 15.340 C 20.569 15.944,20.375 16.383,19.921 16.816 C 19.616 17.106,19.326 17.239,18.601 17.421 C 14.267 18.505,9.840 18.511,5.475 17.438 C 4.679 17.242,4.392 17.115,4.079 16.816 C 3.625 16.383,3.431 15.944,3.426 15.340 C 3.421 14.777,3.501 14.599,4.322 13.360 C 5.136 12.130,5.222 11.984,5.413 11.500 C 5.646 10.911,5.723 10.431,5.744 9.440 C 5.771 8.174,5.847 7.658,6.120 6.892 C 6.585 5.588,7.583 4.360,8.740 3.672 C 9.490 3.225,10.237 2.951,11.060 2.820 C 11.494 2.751,12.460 2.749,12.900 2.817 M9.826 8.284 C 9.476 8.366,9.267 8.636,9.267 9.003 C 9.267 9.281,9.387 9.496,9.627 9.645 C 9.778 9.739,9.798 9.740,10.977 9.753 L 12.173 9.765 10.771 11.173 C 10.000 11.947,9.346 12.625,9.318 12.680 C 9.290 12.735,9.267 12.884,9.267 13.011 C 9.267 13.202,9.287 13.271,9.383 13.408 C 9.447 13.499,9.572 13.610,9.660 13.656 C 9.817 13.738,9.866 13.740,12.020 13.740 L 14.220 13.740 14.369 13.647 C 14.943 13.290,14.812 12.424,14.162 12.284 C 14.041 12.258,13.517 12.240,12.889 12.240 L 11.823 12.240 13.247 10.810 C 14.599 9.452,14.673 9.370,14.711 9.190 C 14.802 8.753,14.571 8.372,14.162 8.284 C 13.910 8.230,10.056 8.230,9.826 8.284 M9.500 19.627 C 10.065 19.682,10.603 19.697,12.000 19.697 C 13.397 19.697,13.935 19.682,14.500 19.627 C 14.896 19.589,15.252 19.547,15.290 19.536 C 15.402 19.502,15.372 19.575,15.192 19.780 C 14.586 20.468,13.920 20.888,13.047 21.130 C 12.784 21.203,12.633 21.215,12.000 21.215 C 11.367 21.215,11.216 21.203,10.953 21.130 C 10.080 20.887,9.358 20.433,8.810 19.783 C 8.626 19.564,8.601 19.503,8.710 19.536 C 8.748 19.547,9.104 19.589,9.500 19.627 " stroke="none" fill-rule="evenodd" fill="black"></path></svg>