<svg width="24" height="24" viewBox="0 0 24 24" fill="none" xmlns="http://www.w3.org/2000/svg"><path d="M11.712 3.283 C 11.077 3.377,10.821 3.507,8.180 5.079 C 5.835 6.474,5.543 6.657,5.236 6.922 L 5.012 7.115 3.756 6.275 C 3.065 5.813,2.446 5.407,2.380 5.371 C 2.056 5.198,1.722 5.238,1.480 5.480 C 1.227 5.733,1.190 6.125,1.391 6.431 C 1.427 6.486,2.100 6.960,2.888 7.485 L 4.320 8.441 4.290 8.850 C 4.251 9.383,4.251 14.617,4.290 15.150 L 4.320 15.559 2.888 16.515 C 2.100 17.040,1.427 17.514,1.391 17.569 C 1.190 17.875,1.227 18.267,1.480 18.520 C 1.722 18.762,2.056 18.802,2.380 18.629 C 2.446 18.593,3.065 18.187,3.756 17.725 L 5.012 16.885 5.236 17.078 C 5.359 17.185,5.613 17.369,5.800 17.489 C 6.512 17.946,10.240 20.146,10.660 20.358 C 11.655 20.860,12.348 20.860,13.340 20.357 C 13.799 20.125,17.563 17.900,18.260 17.449 C 18.738 17.140,19.209 16.676,19.387 16.340 C 19.733 15.685,19.778 15.071,19.745 11.380 C 19.732 9.950,19.710 8.705,19.697 8.613 L 19.672 8.446 21.108 7.488 C 21.898 6.961,22.573 6.486,22.609 6.431 C 22.810 6.125,22.773 5.733,22.520 5.480 C 22.278 5.238,21.944 5.198,21.620 5.371 C 21.554 5.407,20.935 5.813,20.244 6.275 L 18.988 7.115 18.764 6.922 C 18.641 6.815,18.387 6.631,18.200 6.511 C 17.506 6.066,13.764 3.858,13.335 3.640 C 12.731 3.334,12.183 3.213,11.712 3.283 M12.767 5.030 C 13.240 5.279,16.770 7.369,17.360 7.749 C 17.820 8.045,18.061 8.286,18.149 8.538 C 18.215 8.725,18.220 8.988,18.220 12.000 C 18.220 15.012,18.215 15.275,18.149 15.462 C 18.069 15.693,17.834 15.940,17.460 16.189 C 17.041 16.467,13.240 18.722,12.760 18.976 C 12.315 19.212,12.290 19.220,12.000 19.220 C 11.710 19.220,11.685 19.212,11.240 18.976 C 10.760 18.722,6.959 16.467,6.540 16.189 C 6.166 15.940,5.931 15.693,5.851 15.462 C 5.785 15.275,5.780 15.012,5.780 12.000 C 5.780 8.988,5.785 8.725,5.851 8.538 C 5.931 8.307,6.166 8.060,6.540 7.811 C 6.901 7.571,10.724 5.299,11.156 5.068 C 11.676 4.789,11.779 4.756,12.067 4.774 C 12.276 4.788,12.385 4.828,12.767 5.030 M15.680 13.834 C 15.204 14.074,11.522 16.305,11.433 16.407 C 11.374 16.475,11.305 16.616,11.280 16.720 C 11.154 17.247,11.634 17.732,12.152 17.601 C 12.344 17.553,16.297 15.225,16.494 15.044 C 16.803 14.761,16.826 14.329,16.549 14.014 C 16.327 13.760,15.971 13.687,15.680 13.834 " stroke="none" fill-rule="evenodd" fill="black"></path></svg>