<svg width="24" height="24" viewBox="0 0 24 24" fill="none" xmlns="http://www.w3.org/2000/svg"><path d="M14.660 1.278 C 13.776 1.385,13.027 1.901,12.568 2.720 C 12.168 3.434,12.168 4.566,12.568 5.280 C 13.094 6.219,13.953 6.731,15.000 6.731 C 16.047 6.731,16.906 6.219,17.432 5.280 C 17.832 4.566,17.832 3.433,17.432 2.720 C 17.158 2.232,16.764 1.838,16.280 1.567 C 15.867 1.337,15.186 1.215,14.660 1.278 M15.454 2.841 C 15.744 2.950,16.050 3.256,16.159 3.546 C 16.331 4.006,16.227 4.518,15.893 4.857 C 15.594 5.159,15.446 5.220,15.000 5.220 C 14.560 5.220,14.410 5.161,14.125 4.875 C 13.876 4.627,13.790 4.433,13.769 4.080 C 13.746 3.675,13.847 3.404,14.126 3.126 C 14.479 2.773,14.983 2.665,15.454 2.841 M9.721 5.862 C 9.292 5.981,8.953 6.245,8.561 6.760 C 8.258 7.158,6.836 9.202,6.397 9.870 C 5.903 10.621,5.822 10.831,5.821 11.360 C 5.820 11.739,5.831 11.801,5.930 12.000 C 6.138 12.416,6.531 12.741,7.206 13.057 C 7.412 13.153,8.165 13.487,8.880 13.800 C 10.955 14.708,11.316 14.918,11.463 15.301 C 11.558 15.551,11.522 16.268,11.363 17.262 C 11.233 18.081,11.238 18.212,11.405 18.447 C 11.617 18.745,12.087 18.832,12.393 18.629 C 12.650 18.459,12.703 18.331,12.816 17.600 C 13.010 16.354,13.052 15.869,13.003 15.450 C 12.874 14.354,12.371 13.756,11.061 13.138 C 10.814 13.021,10.036 12.674,9.332 12.366 C 7.881 11.732,7.326 11.463,7.294 11.379 C 7.257 11.281,7.533 10.831,8.412 9.560 C 9.732 7.651,9.984 7.320,10.122 7.320 C 10.204 7.320,10.638 7.718,11.820 8.880 C 12.326 9.377,12.866 9.878,13.020 9.993 C 13.387 10.267,13.862 10.501,14.260 10.602 C 14.704 10.714,15.841 10.769,17.420 10.753 C 18.817 10.739,18.815 10.739,19.047 10.494 C 19.309 10.217,19.309 9.783,19.047 9.506 C 18.808 9.253,18.885 9.262,16.740 9.238 C 14.858 9.216,14.769 9.212,14.514 9.127 C 14.128 8.999,13.847 8.774,12.840 7.783 C 11.303 6.270,11.085 6.085,10.633 5.914 C 10.361 5.810,9.983 5.789,9.721 5.862 M5.760 14.268 C 4.460 14.358,3.330 15.080,2.719 16.212 C 2.400 16.803,2.271 17.320,2.271 18.000 C 2.271 18.680,2.400 19.197,2.719 19.788 C 3.118 20.527,3.658 21.029,4.452 21.400 C 4.850 21.586,5.154 21.668,5.635 21.717 C 6.040 21.759,6.578 21.719,6.975 21.617 C 7.484 21.486,8.129 21.129,8.546 20.747 C 9.102 20.240,9.541 19.440,9.681 18.680 C 9.743 18.346,9.743 17.654,9.681 17.320 C 9.546 16.588,9.116 15.787,8.594 15.297 C 7.832 14.582,6.776 14.198,5.760 14.268 M17.760 14.268 C 16.460 14.358,15.330 15.080,14.719 16.212 C 14.400 16.803,14.271 17.320,14.271 18.000 C 14.271 18.680,14.400 19.197,14.719 19.788 C 15.118 20.527,15.658 21.029,16.452 21.400 C 17.040 21.675,17.707 21.785,18.365 21.717 C 18.846 21.668,19.150 21.586,19.548 21.400 C 20.342 21.029,20.882 20.527,21.281 19.788 C 21.600 19.197,21.729 18.680,21.729 18.000 C 21.729 17.320,21.600 16.803,21.281 16.212 C 20.832 15.380,20.123 14.780,19.214 14.462 C 18.803 14.319,18.198 14.238,17.760 14.268 M6.578 15.821 C 6.949 15.918,7.274 16.112,7.581 16.419 C 8.041 16.879,8.240 17.356,8.240 18.000 C 8.240 18.644,8.041 19.121,7.581 19.581 C 7.121 20.041,6.644 20.240,6.000 20.240 C 5.356 20.240,4.879 20.041,4.419 19.581 C 3.959 19.121,3.760 18.644,3.760 18.000 C 3.760 17.356,3.959 16.879,4.419 16.419 C 4.719 16.118,5.050 15.919,5.404 15.823 C 5.692 15.746,6.285 15.745,6.578 15.821 M18.578 15.821 C 18.949 15.918,19.274 16.112,19.581 16.419 C 20.041 16.879,20.240 17.356,20.240 18.000 C 20.240 18.644,20.041 19.121,19.581 19.581 C 19.121 20.041,18.644 20.240,18.000 20.240 C 17.356 20.240,16.879 20.041,16.419 19.581 C 15.959 19.121,15.760 18.644,15.760 18.000 C 15.760 17.356,15.959 16.879,16.419 16.419 C 16.719 16.118,17.050 15.919,17.404 15.823 C 17.692 15.746,18.285 15.745,18.578 15.821 " stroke="none" fill-rule="evenodd" fill="black"></path></svg>