<svg width="24" height="24" viewBox="0 0 24 24" fill="none" xmlns="http://www.w3.org/2000/svg"><path d="M13.660 1.278 C 12.776 1.385,12.027 1.901,11.568 2.720 C 11.168 3.434,11.168 4.566,11.568 5.280 C 12.094 6.219,12.953 6.731,14.000 6.731 C 15.047 6.731,15.906 6.219,16.432 5.280 C 16.832 4.566,16.832 3.433,16.432 2.720 C 16.158 2.232,15.764 1.838,15.280 1.567 C 14.867 1.337,14.186 1.215,13.660 1.278 M14.454 2.841 C 14.744 2.950,15.050 3.256,15.159 3.546 C 15.331 4.006,15.227 4.518,14.893 4.857 C 14.594 5.159,14.446 5.220,14.000 5.220 C 13.560 5.220,13.410 5.161,13.125 4.875 C 12.876 4.627,12.790 4.433,12.769 4.080 C 12.746 3.675,12.847 3.404,13.126 3.126 C 13.479 2.773,13.983 2.665,14.454 2.841 M9.320 6.624 C 8.853 6.712,8.605 6.790,8.260 6.959 C 7.553 7.304,7.067 7.789,6.719 8.500 C 6.493 8.961,6.410 9.270,6.374 9.788 C 6.293 10.948,6.869 12.114,7.851 12.775 C 8.091 12.937,8.616 13.187,9.794 13.700 C 10.681 14.086,11.474 14.436,11.555 14.478 C 11.776 14.590,12.019 14.876,12.099 15.117 C 12.224 15.493,12.184 15.664,11.712 16.780 C 11.479 17.330,11.278 17.829,11.264 17.890 C 11.221 18.075,11.318 18.358,11.480 18.520 C 11.772 18.812,12.229 18.813,12.516 18.522 C 12.626 18.410,12.751 18.161,13.050 17.458 C 13.264 16.953,13.476 16.435,13.521 16.307 C 13.917 15.179,13.420 13.832,12.385 13.225 C 12.288 13.168,11.482 12.805,10.594 12.417 C 9.706 12.030,8.895 11.667,8.790 11.610 C 8.160 11.269,7.745 10.400,7.875 9.693 C 8.107 8.437,9.427 7.736,10.540 8.279 C 10.678 8.346,11.305 8.813,12.020 9.380 C 13.295 10.393,13.568 10.569,14.040 10.686 C 14.212 10.728,14.737 10.740,16.440 10.740 C 17.639 10.740,18.669 10.726,18.729 10.709 C 18.881 10.667,19.121 10.447,19.186 10.292 C 19.297 10.027,19.241 9.711,19.047 9.506 C 18.806 9.251,18.912 9.262,16.500 9.240 C 14.478 9.222,14.289 9.214,14.168 9.148 C 14.095 9.108,13.542 8.682,12.938 8.200 C 11.697 7.210,11.596 7.136,11.213 6.944 C 10.805 6.739,10.374 6.636,9.860 6.620 C 9.618 6.612,9.375 6.614,9.320 6.624 M5.760 14.268 C 4.460 14.358,3.330 15.080,2.719 16.212 C 2.400 16.803,2.271 17.320,2.271 18.000 C 2.271 18.680,2.400 19.197,2.719 19.788 C 3.118 20.527,3.658 21.029,4.452 21.400 C 4.850 21.586,5.154 21.668,5.635 21.717 C 6.040 21.759,6.578 21.719,6.975 21.617 C 7.484 21.486,8.129 21.129,8.546 20.747 C 9.102 20.240,9.541 19.440,9.681 18.680 C 9.743 18.346,9.743 17.654,9.681 17.320 C 9.546 16.588,9.116 15.787,8.594 15.297 C 7.832 14.582,6.776 14.198,5.760 14.268 M17.760 14.268 C 16.460 14.358,15.330 15.080,14.719 16.212 C 14.400 16.803,14.271 17.320,14.271 18.000 C 14.271 18.680,14.400 19.197,14.719 19.788 C 15.118 20.527,15.658 21.029,16.452 21.400 C 17.040 21.675,17.707 21.785,18.365 21.717 C 18.846 21.668,19.150 21.586,19.548 21.400 C 20.342 21.029,20.882 20.527,21.281 19.788 C 21.600 19.197,21.729 18.680,21.729 18.000 C 21.729 17.320,21.600 16.803,21.281 16.212 C 20.832 15.380,20.123 14.780,19.214 14.462 C 18.803 14.319,18.198 14.238,17.760 14.268 M6.578 15.821 C 6.949 15.918,7.274 16.112,7.581 16.419 C 8.041 16.879,8.240 17.356,8.240 18.000 C 8.240 18.644,8.041 19.121,7.581 19.581 C 7.121 20.041,6.644 20.240,6.000 20.240 C 5.356 20.240,4.879 20.041,4.419 19.581 C 3.959 19.121,3.760 18.644,3.760 18.000 C 3.760 17.356,3.959 16.879,4.419 16.419 C 4.719 16.118,5.050 15.919,5.404 15.823 C 5.692 15.746,6.285 15.745,6.578 15.821 M18.578 15.821 C 18.949 15.918,19.274 16.112,19.581 16.419 C 20.041 16.879,20.240 17.356,20.240 18.000 C 20.240 18.644,20.041 19.121,19.581 19.581 C 19.121 20.041,18.644 20.240,18.000 20.240 C 17.356 20.240,16.879 20.041,16.419 19.581 C 15.959 19.121,15.760 18.644,15.760 18.000 C 15.760 17.356,15.959 16.879,16.419 16.419 C 16.719 16.118,17.050 15.919,17.404 15.823 C 17.692 15.746,18.285 15.745,18.578 15.821 " stroke="none" fill-rule="evenodd" fill="black"></path></svg>