<svg width="24" height="24" viewBox="0 0 24 24" fill="none" xmlns="http://www.w3.org/2000/svg"><path d="M5.900 1.283 C 5.237 1.320,4.836 1.414,4.371 1.644 C 3.604 2.024,2.981 2.670,2.613 3.467 C 2.397 3.935,2.320 4.299,2.279 5.060 C 2.227 6.008,2.230 20.260,2.282 20.620 C 2.364 21.191,2.718 21.690,3.209 21.930 C 3.810 22.223,4.415 22.167,4.988 21.765 C 5.117 21.674,5.242 21.600,5.264 21.600 C 5.286 21.600,5.473 21.751,5.678 21.936 C 6.348 22.539,6.771 22.726,7.480 22.730 C 8.117 22.734,8.480 22.607,9.037 22.185 C 9.388 21.919,9.533 21.866,9.841 21.888 C 10.011 21.900,10.114 21.934,10.226 22.014 C 10.311 22.074,10.506 22.213,10.659 22.323 C 11.060 22.609,11.453 22.728,12.000 22.728 C 12.547 22.728,12.940 22.609,13.341 22.323 C 13.494 22.213,13.689 22.074,13.774 22.014 C 13.886 21.934,13.989 21.900,14.159 21.888 C 14.467 21.866,14.612 21.919,14.963 22.185 C 15.520 22.607,15.883 22.734,16.520 22.730 C 17.229 22.726,17.652 22.539,18.322 21.936 C 18.527 21.751,18.714 21.600,18.738 21.600 C 18.761 21.601,18.895 21.681,19.035 21.779 C 19.390 22.027,19.623 22.100,20.060 22.100 C 20.392 22.100,20.444 22.088,20.730 21.952 C 21.290 21.685,21.631 21.225,21.718 20.620 C 21.770 20.262,21.772 6.061,21.721 5.080 C 21.680 4.298,21.606 3.942,21.387 3.467 C 21.019 2.670,20.396 2.024,19.629 1.644 C 19.144 1.404,18.773 1.322,17.980 1.279 C 17.173 1.235,6.709 1.239,5.900 1.283 M18.485 2.818 C 19.214 2.972,19.852 3.556,20.126 4.320 L 20.220 4.580 20.231 12.549 L 20.241 20.517 20.139 20.584 C 20.039 20.650,20.032 20.647,19.769 20.467 C 19.453 20.250,19.247 20.171,18.906 20.136 C 18.326 20.077,17.925 20.256,17.272 20.869 C 16.761 21.347,16.309 21.365,15.783 20.927 C 15.330 20.551,14.857 20.388,14.220 20.390 C 13.617 20.391,13.162 20.561,12.674 20.966 C 12.434 21.166,12.251 21.240,12.000 21.240 C 11.749 21.240,11.566 21.166,11.326 20.966 C 10.838 20.561,10.383 20.391,9.780 20.390 C 9.143 20.388,8.670 20.551,8.217 20.927 C 7.954 21.146,7.742 21.238,7.500 21.238 C 7.234 21.238,7.006 21.129,6.728 20.869 C 6.075 20.256,5.674 20.077,5.094 20.136 C 4.753 20.171,4.547 20.250,4.231 20.467 C 3.968 20.647,3.961 20.650,3.861 20.584 L 3.759 20.517 3.769 12.549 L 3.780 4.580 3.874 4.320 C 4.146 3.563,4.781 2.975,5.496 2.819 C 5.868 2.738,18.104 2.737,18.485 2.818 M6.720 6.805 C 6.458 6.909,6.269 7.200,6.269 7.500 C 6.269 7.727,6.339 7.889,6.506 8.047 C 6.675 8.207,6.803 8.240,7.253 8.239 C 7.823 8.238,8.034 8.135,8.178 7.790 C 8.287 7.530,8.232 7.193,8.048 6.986 C 7.903 6.822,7.685 6.762,7.240 6.763 C 7.009 6.764,6.775 6.783,6.720 6.805 M10.180 6.835 C 9.990 6.923,9.904 7.012,9.822 7.210 C 9.708 7.483,9.783 7.869,9.986 8.048 C 10.206 8.244,10.124 8.240,13.756 8.240 C 16.060 8.240,17.191 8.226,17.267 8.197 C 17.540 8.095,17.731 7.807,17.731 7.500 C 17.731 7.193,17.540 6.905,17.267 6.803 C 17.191 6.774,16.060 6.760,13.747 6.761 C 10.527 6.762,10.331 6.766,10.180 6.835 M6.826 10.282 C 6.473 10.370,6.267 10.637,6.267 11.003 C 6.267 11.281,6.387 11.496,6.627 11.645 C 6.765 11.731,6.825 11.740,7.240 11.740 C 7.741 11.740,7.845 11.708,8.047 11.494 C 8.181 11.353,8.240 11.201,8.240 11.000 C 8.240 10.716,8.085 10.468,7.820 10.330 C 7.676 10.255,7.052 10.225,6.826 10.282 M10.420 10.260 C 10.398 10.267,10.331 10.284,10.271 10.297 C 10.124 10.329,9.881 10.548,9.814 10.708 C 9.691 11.002,9.771 11.336,10.015 11.550 C 10.095 11.621,10.211 11.693,10.271 11.709 C 10.331 11.726,11.919 11.740,13.800 11.740 L 17.220 11.740 17.369 11.647 C 17.943 11.290,17.812 10.424,17.162 10.284 C 17.021 10.254,15.940 10.241,13.708 10.243 C 11.922 10.245,10.442 10.252,10.420 10.260 M6.720 13.805 C 6.458 13.909,6.269 14.200,6.269 14.500 C 6.269 14.727,6.339 14.889,6.506 15.047 C 6.675 15.207,6.803 15.240,7.253 15.239 C 7.823 15.238,8.034 15.135,8.178 14.790 C 8.287 14.530,8.232 14.193,8.048 13.986 C 7.903 13.822,7.685 13.762,7.240 13.763 C 7.009 13.764,6.775 13.783,6.720 13.805 M10.180 13.835 C 9.990 13.923,9.904 14.012,9.822 14.210 C 9.708 14.483,9.783 14.869,9.986 15.048 C 10.206 15.244,10.124 15.240,13.756 15.240 C 16.060 15.240,17.191 15.226,17.267 15.197 C 17.540 15.095,17.731 14.807,17.731 14.500 C 17.731 14.193,17.540 13.905,17.267 13.803 C 17.191 13.774,16.060 13.760,13.747 13.761 C 10.527 13.762,10.331 13.766,10.180 13.835 " stroke="none" fill-rule="evenodd" fill="black"></path></svg>