<svg width="24" height="24" viewBox="0 0 24 24" fill="none" xmlns="http://www.w3.org/2000/svg"><path d="M6.880 1.904 C 6.547 1.994,6.289 2.125,5.981 2.361 C 5.828 2.479,5.639 2.598,5.561 2.626 C 5.242 2.740,4.892 2.662,4.570 2.404 C 4.293 2.182,4.058 2.102,3.680 2.103 C 3.399 2.104,3.300 2.122,3.113 2.209 C 2.659 2.417,2.360 2.803,2.283 3.281 C 2.224 3.642,2.224 20.358,2.283 20.719 C 2.360 21.197,2.659 21.583,3.113 21.791 C 3.300 21.878,3.399 21.896,3.680 21.897 C 4.058 21.898,4.293 21.818,4.570 21.596 C 4.892 21.338,5.242 21.260,5.561 21.374 C 5.639 21.402,5.828 21.521,5.981 21.639 C 6.466 22.011,6.900 22.160,7.500 22.160 C 8.100 22.160,8.534 22.011,9.019 21.639 C 9.335 21.395,9.503 21.324,9.760 21.323 C 9.981 21.322,10.208 21.421,10.485 21.640 C 10.935 21.996,11.411 22.159,12.000 22.159 C 12.589 22.159,13.065 21.996,13.515 21.640 C 13.792 21.421,14.019 21.322,14.240 21.323 C 14.497 21.324,14.665 21.395,14.981 21.639 C 15.466 22.011,15.900 22.160,16.500 22.160 C 17.100 22.160,17.534 22.011,18.019 21.639 C 18.172 21.521,18.361 21.402,18.439 21.374 C 18.758 21.260,19.108 21.338,19.430 21.596 C 19.707 21.818,19.942 21.898,20.320 21.897 C 20.601 21.896,20.700 21.878,20.887 21.791 C 21.341 21.583,21.640 21.197,21.717 20.719 C 21.776 20.358,21.776 3.642,21.717 3.281 C 21.640 2.803,21.341 2.417,20.887 2.209 C 20.700 2.122,20.601 2.104,20.320 2.103 C 19.942 2.102,19.707 2.182,19.430 2.404 C 19.108 2.662,18.758 2.740,18.439 2.626 C 18.361 2.598,18.172 2.479,18.019 2.361 C 17.534 1.989,17.100 1.840,16.500 1.840 C 15.900 1.840,15.466 1.989,14.981 2.361 C 14.665 2.605,14.497 2.676,14.240 2.677 C 14.019 2.678,13.792 2.579,13.515 2.360 C 13.065 2.004,12.589 1.841,12.000 1.841 C 11.411 1.841,10.935 2.004,10.485 2.360 C 10.208 2.579,9.981 2.678,9.760 2.677 C 9.503 2.676,9.335 2.605,9.019 2.361 C 8.526 1.983,8.098 1.838,7.482 1.843 C 7.272 1.844,7.001 1.872,6.880 1.904 M7.980 3.467 C 8.076 3.529,8.266 3.659,8.404 3.757 C 8.772 4.015,9.131 4.131,9.633 4.152 C 10.292 4.180,10.701 4.054,11.237 3.659 C 11.851 3.207,12.149 3.207,12.763 3.659 C 13.299 4.054,13.708 4.180,14.367 4.152 C 14.869 4.131,15.228 4.015,15.596 3.757 C 16.184 3.342,16.189 3.340,16.500 3.340 C 16.811 3.340,16.816 3.342,17.404 3.757 C 17.542 3.854,17.782 3.980,17.938 4.037 C 18.188 4.128,18.280 4.140,18.740 4.140 C 19.341 4.139,19.565 4.085,19.965 3.843 L 20.220 3.689 20.230 7.844 C 20.236 10.130,20.236 13.871,20.230 16.158 L 20.220 20.315 20.004 20.179 C 19.609 19.930,19.330 19.860,18.740 19.861 C 18.123 19.863,17.870 19.935,17.427 20.233 C 16.756 20.685,16.811 20.660,16.500 20.660 C 16.189 20.660,16.244 20.685,15.573 20.233 C 15.130 19.935,14.877 19.863,14.260 19.861 C 13.622 19.860,13.342 19.942,12.884 20.265 C 12.108 20.813,11.892 20.813,11.116 20.265 C 10.658 19.942,10.378 19.860,9.740 19.861 C 9.123 19.863,8.870 19.935,8.427 20.233 C 7.756 20.685,7.811 20.660,7.500 20.660 C 7.189 20.660,7.244 20.685,6.573 20.233 C 6.130 19.935,5.877 19.863,5.260 19.861 C 4.670 19.860,4.391 19.930,3.996 20.179 L 3.780 20.315 3.770 16.158 C 3.764 13.871,3.764 10.130,3.770 7.844 L 3.780 3.689 4.034 3.843 C 4.388 4.057,4.630 4.123,5.140 4.148 C 5.814 4.179,6.217 4.051,6.796 3.620 C 7.146 3.359,7.261 3.317,7.574 3.338 C 7.746 3.349,7.853 3.383,7.980 3.467 M7.180 7.835 C 6.990 7.923,6.904 8.012,6.822 8.210 C 6.708 8.483,6.783 8.869,6.986 9.048 C 7.210 9.247,7.022 9.240,12.009 9.239 C 16.436 9.238,16.668 9.235,16.820 9.165 C 17.010 9.077,17.096 8.988,17.178 8.790 C 17.257 8.602,17.257 8.398,17.178 8.210 C 17.096 8.012,17.010 7.923,16.820 7.835 C 16.668 7.765,16.437 7.762,12.000 7.762 C 7.563 7.762,7.332 7.765,7.180 7.835 M7.420 11.259 C 7.398 11.267,7.331 11.284,7.271 11.297 C 7.124 11.329,6.881 11.548,6.814 11.708 C 6.691 12.002,6.771 12.336,7.015 12.550 C 7.095 12.621,7.211 12.693,7.271 12.709 C 7.414 12.749,16.586 12.749,16.729 12.709 C 16.881 12.667,17.121 12.447,17.186 12.292 C 17.297 12.027,17.241 11.711,17.047 11.506 C 16.797 11.241,17.176 11.261,12.080 11.253 C 9.539 11.249,7.442 11.252,7.420 11.259 M7.180 14.835 C 6.990 14.923,6.904 15.012,6.822 15.210 C 6.708 15.483,6.783 15.869,6.986 16.048 C 7.210 16.247,7.022 16.240,12.009 16.239 C 16.436 16.238,16.668 16.235,16.820 16.165 C 17.010 16.077,17.096 15.988,17.178 15.790 C 17.257 15.602,17.257 15.398,17.178 15.210 C 17.096 15.012,17.010 14.923,16.820 14.835 C 16.668 14.765,16.437 14.762,12.000 14.762 C 7.563 14.762,7.332 14.765,7.180 14.835 " stroke="none" fill-rule="evenodd" fill="black"></path></svg>