<svg width="24" height="24" viewBox="0 0 24 24" fill="none" xmlns="http://www.w3.org/2000/svg"><path d="M5.620 1.280 C 3.990 1.456,2.720 2.637,2.329 4.340 C 2.271 4.591,2.263 5.428,2.250 12.380 C 2.241 17.611,2.250 20.244,2.278 20.460 C 2.376 21.212,2.881 21.750,3.615 21.885 C 4.118 21.978,4.615 21.810,5.004 21.416 C 5.121 21.297,5.238 21.200,5.262 21.200 C 5.287 21.200,5.430 21.373,5.580 21.585 C 5.920 22.065,6.186 22.322,6.520 22.495 C 7.445 22.975,8.505 22.737,9.194 21.894 C 9.398 21.644,9.633 21.535,9.868 21.579 C 9.990 21.602,10.091 21.680,10.380 21.976 C 10.936 22.545,11.330 22.728,12.000 22.728 C 12.670 22.728,13.064 22.545,13.620 21.976 C 13.909 21.680,14.010 21.602,14.132 21.579 C 14.363 21.535,14.606 21.646,14.791 21.878 C 15.241 22.443,15.821 22.733,16.500 22.733 C 16.995 22.733,17.432 22.583,17.794 22.290 C 18.042 22.088,18.132 21.986,18.429 21.570 C 18.574 21.366,18.712 21.200,18.737 21.200 C 18.761 21.200,18.875 21.296,18.990 21.413 C 19.375 21.806,19.860 21.974,20.361 21.888 C 21.090 21.763,21.617 21.225,21.719 20.500 C 21.773 20.117,21.773 5.274,21.719 4.760 C 21.616 3.783,21.264 3.027,20.600 2.357 C 20.062 1.813,19.557 1.531,18.760 1.330 C 18.525 1.271,17.885 1.264,12.200 1.257 C 8.735 1.253,5.774 1.263,5.620 1.280 M18.538 2.821 C 19.120 2.973,19.706 3.455,19.973 4.002 C 20.260 4.590,20.240 3.934,20.240 12.560 C 20.240 18.498,20.229 20.355,20.193 20.391 C 20.156 20.428,20.088 20.383,19.895 20.198 C 19.494 19.813,19.024 19.650,18.519 19.721 C 18.062 19.784,17.729 19.999,17.412 20.434 C 16.959 21.053,16.903 21.119,16.777 21.179 C 16.606 21.260,16.368 21.256,16.213 21.170 C 16.144 21.132,15.995 20.989,15.883 20.854 C 15.246 20.084,14.210 19.867,13.287 20.309 C 13.132 20.384,12.946 20.533,12.700 20.782 C 12.287 21.200,12.227 21.240,12.000 21.240 C 11.773 21.240,11.713 21.200,11.300 20.782 C 11.054 20.533,10.868 20.384,10.713 20.309 C 9.790 19.867,8.754 20.084,8.117 20.854 C 7.878 21.142,7.722 21.240,7.500 21.240 C 7.206 21.240,7.106 21.155,6.647 20.513 C 6.291 20.015,5.954 19.787,5.481 19.721 C 4.976 19.650,4.506 19.813,4.105 20.198 C 3.912 20.383,3.844 20.428,3.807 20.391 C 3.771 20.355,3.760 18.498,3.760 12.560 C 3.760 3.937,3.740 4.590,4.026 4.004 C 4.291 3.461,4.873 2.977,5.444 2.823 C 5.779 2.733,18.193 2.731,18.538 2.821 M9.807 7.288 C 9.573 7.339,9.348 7.566,9.286 7.814 C 9.243 7.985,9.247 8.068,9.309 8.300 C 9.321 8.344,9.692 8.745,10.133 9.190 L 10.936 10.000 10.134 10.810 C 9.411 11.540,9.328 11.639,9.286 11.809 C 9.165 12.300,9.498 12.733,9.996 12.733 C 10.119 12.733,10.265 12.710,10.320 12.682 C 10.375 12.653,10.775 12.277,11.210 11.846 L 12.000 11.063 12.790 11.846 C 13.225 12.277,13.625 12.653,13.680 12.682 C 13.735 12.710,13.881 12.733,14.004 12.733 C 14.499 12.733,14.817 12.317,14.711 11.811 C 14.673 11.634,14.611 11.561,13.867 10.810 L 13.064 10.000 13.867 9.190 C 14.609 8.441,14.673 8.366,14.710 8.190 C 14.832 7.611,14.389 7.168,13.810 7.290 C 13.634 7.327,13.559 7.391,12.810 8.133 L 12.000 8.936 11.190 8.133 C 10.538 7.487,10.353 7.324,10.240 7.302 C 10.163 7.287,10.073 7.268,10.040 7.262 C 10.007 7.255,9.902 7.267,9.807 7.288 M7.180 14.835 C 6.990 14.923,6.904 15.012,6.822 15.210 C 6.708 15.483,6.783 15.869,6.986 16.048 C 7.210 16.247,7.022 16.240,12.009 16.239 C 16.436 16.238,16.668 16.235,16.820 16.165 C 17.010 16.077,17.096 15.988,17.178 15.790 C 17.257 15.602,17.257 15.398,17.178 15.210 C 17.096 15.012,17.010 14.923,16.820 14.835 C 16.668 14.765,16.437 14.762,12.000 14.762 C 7.563 14.762,7.332 14.765,7.180 14.835 " stroke="none" fill-rule="evenodd" fill="black"></path></svg>