<svg width="24" height="24" viewBox="0 0 24 24" fill="none" xmlns="http://www.w3.org/2000/svg"><path d="M5.900 1.283 C 5.237 1.320,4.836 1.414,4.371 1.644 C 3.604 2.024,2.981 2.670,2.613 3.467 C 2.397 3.935,2.320 4.299,2.279 5.060 C 2.227 6.008,2.230 20.260,2.282 20.620 C 2.364 21.191,2.718 21.690,3.209 21.930 C 3.810 22.223,4.415 22.167,4.988 21.765 C 5.117 21.674,5.242 21.600,5.264 21.600 C 5.286 21.600,5.473 21.751,5.678 21.936 C 6.348 22.539,6.771 22.726,7.480 22.730 C 8.117 22.734,8.480 22.607,9.037 22.185 C 9.388 21.919,9.533 21.866,9.841 21.888 C 10.011 21.900,10.114 21.934,10.226 22.014 C 10.311 22.074,10.506 22.213,10.659 22.323 C 11.060 22.609,11.453 22.728,12.000 22.728 C 12.547 22.728,12.940 22.609,13.341 22.323 C 13.494 22.213,13.689 22.074,13.774 22.014 C 13.886 21.934,13.989 21.900,14.159 21.888 C 14.467 21.866,14.612 21.919,14.963 22.185 C 15.520 22.607,15.883 22.734,16.520 22.730 C 17.229 22.726,17.652 22.539,18.322 21.936 C 18.527 21.751,18.714 21.600,18.738 21.600 C 18.761 21.601,18.895 21.681,19.035 21.779 C 19.390 22.027,19.623 22.100,20.060 22.100 C 20.392 22.100,20.444 22.088,20.730 21.952 C 21.290 21.685,21.631 21.225,21.718 20.620 C 21.770 20.262,21.772 6.061,21.721 5.080 C 21.680 4.298,21.606 3.942,21.387 3.467 C 21.019 2.670,20.396 2.024,19.629 1.644 C 19.144 1.404,18.773 1.322,17.980 1.279 C 17.173 1.235,6.709 1.239,5.900 1.283 M18.485 2.818 C 19.214 2.972,19.852 3.556,20.126 4.320 L 20.220 4.580 20.231 12.549 L 20.241 20.517 20.139 20.584 C 20.039 20.650,20.032 20.647,19.769 20.467 C 19.453 20.250,19.247 20.171,18.906 20.136 C 18.326 20.077,17.925 20.256,17.272 20.869 C 16.761 21.347,16.309 21.365,15.783 20.927 C 15.330 20.551,14.857 20.388,14.220 20.390 C 13.617 20.391,13.162 20.561,12.674 20.966 C 12.434 21.166,12.251 21.240,12.000 21.240 C 11.749 21.240,11.566 21.166,11.326 20.966 C 10.838 20.561,10.383 20.391,9.780 20.390 C 9.143 20.388,8.670 20.551,8.217 20.927 C 7.954 21.146,7.742 21.238,7.500 21.238 C 7.234 21.238,7.006 21.129,6.728 20.869 C 6.075 20.256,5.674 20.077,5.094 20.136 C 4.753 20.171,4.547 20.250,4.231 20.467 C 3.968 20.647,3.961 20.650,3.861 20.584 L 3.759 20.517 3.769 12.549 L 3.780 4.580 3.874 4.320 C 4.146 3.563,4.781 2.975,5.496 2.819 C 5.868 2.738,18.104 2.737,18.485 2.818 M14.331 7.279 C 14.079 7.339,14.142 7.273,11.952 9.727 L 10.928 10.874 10.454 10.349 C 10.193 10.060,9.920 9.789,9.847 9.746 C 9.682 9.651,9.347 9.643,9.179 9.731 C 9.024 9.812,8.856 9.991,8.803 10.133 C 8.744 10.288,8.749 10.537,8.815 10.691 C 8.897 10.886,10.412 12.566,10.588 12.659 C 10.772 12.755,11.090 12.758,11.270 12.665 C 11.428 12.584,15.110 8.471,15.186 8.291 C 15.251 8.137,15.256 7.888,15.197 7.733 C 15.075 7.408,14.674 7.198,14.331 7.279 M7.180 14.835 C 6.990 14.923,6.904 15.012,6.822 15.210 C 6.708 15.483,6.783 15.869,6.986 16.048 C 7.210 16.247,7.022 16.240,12.009 16.239 C 16.436 16.238,16.668 16.235,16.820 16.165 C 17.010 16.077,17.096 15.988,17.178 15.790 C 17.257 15.602,17.257 15.398,17.178 15.210 C 17.096 15.012,17.010 14.923,16.820 14.835 C 16.668 14.765,16.437 14.762,12.000 14.762 C 7.563 14.762,7.332 14.765,7.180 14.835 " stroke="none" fill-rule="evenodd" fill="black"></path></svg>