<svg width="24" height="24" viewBox="0 0 24 24" fill="none" xmlns="http://www.w3.org/2000/svg"><path d="M7.295 2.278 C 7.111 2.322,6.952 2.449,6.649 2.793 C 6.049 3.474,5.889 3.782,5.963 4.113 C 6.042 4.467,6.319 4.689,6.682 4.689 C 6.973 4.689,7.136 4.587,7.403 4.236 C 7.534 4.064,7.737 3.819,7.855 3.692 C 8.129 3.395,8.200 3.252,8.200 3.000 C 8.200 2.759,8.091 2.522,7.927 2.405 C 7.832 2.337,7.515 2.233,7.440 2.245 C 7.429 2.247,7.364 2.262,7.295 2.278 M16.069 5.001 C 15.726 5.088,15.520 5.359,15.520 5.724 C 15.520 5.996,15.615 6.182,15.831 6.336 L 15.994 6.451 16.767 6.461 C 17.306 6.468,17.625 6.490,17.820 6.535 C 17.974 6.571,18.168 6.600,18.252 6.600 C 18.556 6.600,18.891 6.337,18.943 6.056 C 19.010 5.701,18.867 5.358,18.591 5.215 C 18.323 5.077,17.768 4.995,16.980 4.979 C 16.562 4.970,16.152 4.980,16.069 5.001 M5.501 5.131 C 5.414 5.181,5.303 5.279,5.256 5.350 C 5.071 5.624,4.943 6.517,4.967 7.370 C 4.986 8.048,5.035 8.188,5.315 8.365 C 5.662 8.586,6.100 8.501,6.336 8.169 L 6.451 8.006 6.459 7.233 C 6.465 6.652,6.485 6.390,6.537 6.180 C 6.579 6.015,6.600 5.814,6.590 5.690 C 6.549 5.173,5.960 4.871,5.501 5.131 M14.140 5.478 C 13.611 5.619,12.186 6.422,11.964 6.704 C 11.852 6.847,11.788 7.100,11.819 7.276 C 11.884 7.636,12.187 7.880,12.570 7.880 C 12.765 7.880,12.822 7.856,13.241 7.594 C 13.494 7.436,13.955 7.185,14.266 7.034 C 14.910 6.724,15.001 6.632,15.032 6.256 C 15.073 5.759,14.608 5.353,14.140 5.478 M19.841 5.967 C 19.520 6.059,19.311 6.341,19.311 6.682 C 19.311 6.955,19.416 7.137,19.695 7.349 C 19.830 7.451,20.075 7.654,20.240 7.801 C 20.612 8.132,20.741 8.200,21.000 8.200 C 21.374 8.200,21.636 7.993,21.716 7.636 C 21.796 7.280,21.689 7.072,21.207 6.649 C 20.502 6.030,20.181 5.870,19.841 5.967 M10.900 7.757 C 10.695 7.807,10.608 7.873,10.340 8.187 C 10.015 8.569,9.622 9.157,9.398 9.600 C 9.189 10.013,9.169 10.243,9.319 10.510 C 9.372 10.603,9.427 10.680,9.443 10.680 C 9.566 10.680,9.383 11.304,9.232 11.398 C 8.963 11.565,8.803 11.820,8.801 12.080 L 8.800 12.220 8.507 12.220 C 8.261 12.220,8.191 12.236,8.069 12.319 C 7.775 12.521,7.657 12.964,7.815 13.270 C 7.954 13.539,8.808 14.181,9.540 14.566 C 10.080 14.851,10.310 14.850,10.680 14.562 C 10.779 14.484,10.781 14.484,11.060 14.580 C 11.240 14.641,11.361 14.708,11.398 14.768 C 11.565 15.037,11.820 15.197,12.080 15.199 L 12.220 15.200 12.220 15.493 C 12.220 15.739,12.236 15.809,12.319 15.931 C 12.521 16.225,12.964 16.343,13.270 16.185 C 13.540 16.045,14.180 15.192,14.569 14.455 C 14.853 13.915,14.852 13.693,14.562 13.320 C 14.484 13.221,14.484 13.219,14.580 12.940 C 14.641 12.760,14.708 12.639,14.768 12.602 C 15.037 12.435,15.197 12.180,15.199 11.920 L 15.200 11.780 15.493 11.780 C 15.739 11.780,15.809 11.764,15.931 11.681 C 16.225 11.479,16.343 11.036,16.185 10.730 C 16.046 10.461,15.192 9.819,14.460 9.434 C 13.992 9.188,13.770 9.161,13.490 9.319 C 13.397 9.372,13.320 9.427,13.320 9.443 C 13.320 9.566,12.696 9.383,12.602 9.232 C 12.435 8.963,12.180 8.803,11.920 8.801 L 11.780 8.800 11.780 8.507 C 11.780 8.261,11.764 8.191,11.681 8.069 C 11.514 7.826,11.176 7.691,10.900 7.757 M5.849 9.042 C 5.613 9.162,5.461 9.424,5.468 9.698 C 5.475 10.018,5.904 10.918,6.405 11.666 C 6.627 11.997,6.748 12.103,6.972 12.163 C 7.443 12.290,7.880 11.937,7.880 11.430 C 7.880 11.235,7.856 11.178,7.594 10.759 C 7.436 10.506,7.185 10.045,7.034 9.734 C 6.804 9.255,6.738 9.153,6.613 9.076 C 6.399 8.944,6.071 8.929,5.849 9.042 M12.454 10.841 C 12.744 10.950,13.050 11.256,13.159 11.546 C 13.335 12.017,13.227 12.521,12.874 12.874 C 12.381 13.368,11.619 13.368,11.126 12.874 C 10.847 12.596,10.746 12.325,10.769 11.920 C 10.790 11.567,10.876 11.373,11.124 11.125 C 11.397 10.853,11.597 10.769,11.988 10.763 C 12.148 10.761,12.315 10.789,12.454 10.841 M16.627 11.841 C 16.457 11.892,16.259 12.059,16.186 12.214 C 16.150 12.290,16.120 12.450,16.120 12.570 C 16.120 12.771,16.142 12.823,16.406 13.244 C 16.564 13.495,16.815 13.955,16.966 14.266 C 17.196 14.743,17.262 14.847,17.386 14.924 C 17.742 15.144,18.225 15.036,18.426 14.693 C 18.583 14.426,18.568 14.192,18.366 13.734 C 18.092 13.110,17.533 12.170,17.328 11.986 C 17.157 11.833,16.859 11.771,16.627 11.841 M17.919 15.594 C 17.843 15.635,17.728 15.742,17.664 15.832 L 17.548 15.996 17.541 16.748 C 17.535 17.300,17.514 17.584,17.462 17.817 C 17.338 18.373,17.444 18.707,17.803 18.890 C 18.109 19.046,18.554 18.933,18.744 18.650 C 18.929 18.376,19.057 17.483,19.033 16.630 C 19.014 15.952,18.965 15.812,18.685 15.635 C 18.463 15.494,18.140 15.477,17.919 15.594 M2.633 15.881 C 2.262 16.077,2.147 16.604,2.398 16.957 C 2.554 17.176,3.316 17.813,3.599 17.961 C 4.117 18.231,4.691 17.890,4.686 17.315 C 4.684 17.036,4.584 16.863,4.305 16.651 C 4.170 16.549,3.925 16.346,3.760 16.199 C 3.595 16.052,3.402 15.902,3.332 15.866 C 3.158 15.776,2.818 15.783,2.633 15.881 M10.756 16.406 C 10.505 16.564,10.045 16.815,9.734 16.966 C 9.090 17.276,8.999 17.368,8.968 17.744 C 8.931 18.188,9.250 18.534,9.693 18.529 C 10.015 18.526,10.903 18.106,11.666 17.595 C 11.997 17.373,12.103 17.252,12.163 17.028 C 12.290 16.556,11.937 16.120,11.428 16.120 C 11.230 16.120,11.176 16.143,10.756 16.406 M5.435 17.480 C 5.134 17.639,5.009 17.895,5.050 18.262 C 5.112 18.811,5.679 19.016,7.140 19.019 C 8.072 19.020,8.170 18.994,8.365 18.685 C 8.586 18.338,8.501 17.900,8.169 17.664 L 8.006 17.549 7.233 17.539 C 6.694 17.532,6.375 17.510,6.180 17.465 C 5.818 17.381,5.615 17.385,5.435 17.480 M17.149 19.325 C 16.938 19.373,16.823 19.458,16.650 19.695 C 16.568 19.808,16.369 20.049,16.207 20.231 C 16.046 20.414,15.888 20.612,15.857 20.671 C 15.774 20.831,15.785 21.174,15.879 21.358 C 16.072 21.737,16.600 21.856,16.957 21.602 C 17.263 21.384,17.962 20.490,18.034 20.223 C 18.086 20.033,18.035 19.761,17.915 19.593 C 17.765 19.382,17.425 19.263,17.149 19.325 " stroke="none" fill-rule="evenodd" fill="black"></path></svg>