<svg width="24" height="24" viewBox="0 0 24 24" fill="none" xmlns="http://www.w3.org/2000/svg"><path d="M14.691 1.281 C 11.982 1.503,9.830 3.235,8.827 6.001 C 7.991 8.310,8.091 10.979,9.080 12.724 C 9.415 13.316,10.014 13.985,10.461 14.268 C 10.558 14.330,10.638 14.391,10.639 14.404 C 10.642 14.455,10.034 14.529,9.440 14.549 C 6.999 14.633,4.617 13.533,3.531 11.820 C 3.080 11.107,2.761 10.062,2.760 9.292 C 2.760 8.883,2.692 8.652,2.522 8.482 C 2.108 8.068,1.407 8.265,1.276 8.833 C 1.230 9.037,1.299 9.946,1.399 10.436 C 1.960 13.190,4.190 15.226,7.340 15.860 C 8.592 16.112,10.109 16.097,11.201 15.821 C 12.544 15.483,13.590 14.810,14.179 13.907 C 14.301 13.720,14.401 13.543,14.401 13.514 C 14.402 13.474,14.411 13.475,14.438 13.521 C 14.458 13.554,14.493 13.756,14.517 13.969 C 14.775 16.284,13.885 18.787,12.350 20.066 C 11.954 20.396,11.795 20.501,11.367 20.716 C 10.732 21.036,10.135 21.186,9.288 21.239 C 8.817 21.269,8.738 21.284,8.603 21.374 C 8.167 21.662,8.143 22.303,8.557 22.598 C 8.742 22.729,8.975 22.759,9.524 22.720 C 10.406 22.657,11.178 22.463,11.900 22.123 C 14.145 21.065,15.670 18.702,16.003 15.761 C 16.062 15.241,16.029 13.876,15.946 13.399 C 15.777 12.424,15.475 11.622,15.022 10.942 C 14.778 10.574,14.342 10.109,14.081 9.936 C 13.915 9.826,13.912 9.821,14.004 9.795 C 14.159 9.751,15.313 9.756,15.681 9.802 C 17.352 10.008,18.789 10.658,19.782 11.656 C 20.710 12.590,21.144 13.589,21.239 15.011 C 21.268 15.445,21.288 15.546,21.373 15.691 C 21.710 16.267,22.573 16.112,22.723 15.448 C 22.813 15.047,22.613 13.702,22.352 12.963 C 21.414 10.307,18.710 8.501,15.340 8.282 C 13.167 8.140,11.267 8.760,10.125 9.983 C 9.950 10.170,9.835 10.265,9.818 10.236 C 9.764 10.149,9.748 8.786,9.796 8.379 C 9.997 6.673,10.644 5.226,11.656 4.218 C 12.589 3.290,13.589 2.856,15.008 2.761 C 15.426 2.733,15.546 2.711,15.682 2.634 C 16.157 2.367,16.162 1.636,15.690 1.371 C 15.496 1.262,15.223 1.237,14.691 1.281 M12.454 10.841 C 12.744 10.950,13.050 11.256,13.159 11.546 C 13.335 12.017,13.227 12.521,12.874 12.874 C 12.658 13.091,12.344 13.240,12.106 13.240 C 11.804 13.240,11.336 13.046,11.080 12.815 C 10.910 12.662,10.760 12.329,10.760 12.106 C 10.760 11.670,11.089 11.063,11.420 10.891 C 11.714 10.736,12.122 10.717,12.454 10.841 " stroke="none" fill-rule="evenodd" fill="black"></path></svg>