<svg width="24" height="24" viewBox="0 0 24 24" fill="none" xmlns="http://www.w3.org/2000/svg"><path d="M14.691 1.281 C 12.786 1.437,11.120 2.351,9.976 3.868 C 9.172 4.933,8.620 6.257,8.383 7.688 C 8.159 9.043,8.268 10.689,8.654 11.784 L 8.712 11.948 8.566 11.896 C 8.290 11.797,8.033 11.855,7.798 12.067 C 7.564 12.278,7.502 12.573,7.626 12.883 C 7.740 13.169,8.644 13.864,9.420 14.263 C 9.814 14.466,10.041 14.492,10.295 14.362 C 10.417 14.300,10.466 14.294,10.544 14.329 C 10.597 14.353,10.640 14.385,10.640 14.401 C 10.640 14.455,10.050 14.528,9.440 14.549 C 6.999 14.633,4.617 13.533,3.531 11.820 C 3.080 11.107,2.761 10.062,2.760 9.292 C 2.760 8.883,2.692 8.652,2.522 8.482 C 2.108 8.068,1.407 8.265,1.276 8.833 C 1.230 9.037,1.299 9.946,1.399 10.436 C 1.907 12.928,3.718 14.785,6.480 15.645 C 7.425 15.939,8.375 16.060,9.493 16.028 C 10.437 16.001,11.085 15.894,11.809 15.644 L 12.038 15.565 12.013 15.743 C 11.962 16.116,12.254 16.527,12.610 16.581 C 12.875 16.620,13.100 16.542,13.301 16.341 C 13.624 16.018,14.128 15.292,14.425 14.720 L 14.540 14.500 14.552 14.860 C 14.587 15.896,14.236 17.322,13.692 18.360 C 13.242 19.219,12.563 19.990,11.856 20.447 C 11.120 20.923,10.302 21.175,9.288 21.239 C 8.817 21.269,8.738 21.284,8.603 21.374 C 8.167 21.662,8.143 22.303,8.557 22.598 C 8.742 22.729,8.975 22.759,9.524 22.720 C 10.406 22.657,11.178 22.463,11.900 22.123 C 14.145 21.065,15.670 18.702,16.003 15.761 C 16.062 15.241,16.029 13.876,15.946 13.400 C 15.879 13.016,15.753 12.504,15.662 12.244 C 15.628 12.148,15.600 12.064,15.600 12.057 C 15.600 12.050,15.662 12.070,15.739 12.102 C 16.237 12.310,16.829 11.845,16.743 11.312 C 16.729 11.220,16.680 11.085,16.635 11.012 C 16.503 10.799,15.676 10.167,15.142 9.873 L 14.940 9.761 15.141 9.761 C 15.650 9.759,16.607 9.934,17.240 10.144 C 18.285 10.492,19.114 10.985,19.782 11.656 C 20.710 12.590,21.144 13.589,21.239 15.011 C 21.268 15.445,21.288 15.546,21.373 15.691 C 21.636 16.140,22.339 16.162,22.607 15.729 C 22.738 15.517,22.758 15.338,22.717 14.763 C 22.560 12.560,21.455 10.757,19.529 9.563 C 17.557 8.340,14.843 7.937,12.620 8.537 C 12.422 8.590,12.228 8.646,12.190 8.661 C 12.105 8.694,12.099 8.649,12.178 8.563 C 12.209 8.528,12.257 8.418,12.283 8.319 C 12.371 7.983,12.193 7.626,11.862 7.475 C 11.497 7.309,11.217 7.410,10.852 7.836 C 10.552 8.187,10.130 8.806,9.913 9.216 L 9.762 9.500 9.761 9.079 C 9.758 7.853,10.141 6.429,10.755 5.381 C 11.125 4.751,11.700 4.103,12.254 3.694 C 13.010 3.134,13.893 2.835,15.008 2.761 C 15.426 2.733,15.546 2.711,15.682 2.634 C 16.157 2.367,16.162 1.636,15.690 1.371 C 15.496 1.262,15.223 1.237,14.691 1.281 M7.016 2.017 C 6.741 2.137,5.868 3.188,5.817 3.462 C 5.754 3.797,5.909 4.106,6.218 4.261 C 6.600 4.452,6.914 4.358,7.221 3.959 C 7.327 3.821,7.528 3.581,7.669 3.424 C 7.993 3.063,8.046 2.962,8.046 2.700 C 8.046 2.462,7.982 2.312,7.814 2.153 C 7.609 1.959,7.279 1.903,7.016 2.017 M16.631 4.679 C 16.050 4.785,15.814 5.455,16.202 5.896 C 16.393 6.114,16.587 6.170,17.037 6.139 C 17.437 6.110,18.026 6.162,18.469 6.264 C 18.860 6.354,19.123 6.268,19.342 5.981 C 19.536 5.727,19.514 5.342,19.292 5.078 C 19.147 4.906,19.032 4.857,18.538 4.759 C 18.055 4.664,16.965 4.618,16.631 4.679 M5.420 4.737 C 5.271 4.804,5.138 4.929,5.065 5.071 C 4.822 5.549,4.710 7.337,4.900 7.735 C 4.990 7.924,5.230 8.105,5.437 8.139 C 5.743 8.191,6.084 8.021,6.228 7.745 C 6.281 7.645,6.295 7.480,6.300 6.920 C 6.306 6.383,6.327 6.127,6.391 5.819 C 6.500 5.300,6.464 5.110,6.213 4.873 C 6.009 4.679,5.676 4.622,5.420 4.737 M14.600 5.166 C 14.356 5.233,13.275 5.788,12.880 6.049 C 12.576 6.250,12.481 6.336,12.407 6.480 C 12.148 6.984,12.497 7.560,13.062 7.560 C 13.225 7.560,13.311 7.532,13.502 7.414 C 14.171 7.005,14.455 6.848,14.820 6.688 C 15.040 6.592,15.263 6.474,15.315 6.426 C 15.443 6.310,15.558 6.052,15.558 5.880 C 15.558 5.570,15.310 5.245,15.009 5.162 C 14.835 5.114,14.788 5.114,14.600 5.166 M20.220 5.737 C 19.973 5.863,19.834 6.058,19.809 6.315 C 19.781 6.611,19.897 6.832,20.205 7.067 C 20.343 7.173,20.580 7.373,20.733 7.511 C 21.078 7.825,21.205 7.891,21.460 7.891 C 21.880 7.891,22.200 7.575,22.200 7.160 C 22.200 6.934,22.138 6.804,21.928 6.585 C 21.699 6.348,21.068 5.837,20.891 5.746 C 20.658 5.625,20.444 5.622,20.220 5.737 M5.740 8.657 C 5.497 8.766,5.283 9.079,5.281 9.329 C 5.279 9.584,5.766 10.607,6.209 11.280 C 6.411 11.585,6.495 11.678,6.638 11.750 C 6.854 11.859,7.084 11.864,7.300 11.765 C 7.490 11.677,7.576 11.588,7.658 11.390 C 7.792 11.069,7.748 10.926,7.289 10.185 C 7.154 9.968,6.961 9.599,6.859 9.365 C 6.757 9.131,6.634 8.897,6.587 8.845 C 6.391 8.629,5.997 8.542,5.740 8.657 M12.454 10.841 C 12.744 10.950,13.050 11.256,13.159 11.546 C 13.264 11.828,13.264 12.172,13.159 12.454 C 13.004 12.868,12.504 13.240,12.103 13.240 C 12.029 13.240,11.853 13.204,11.711 13.160 C 11.495 13.094,11.426 13.049,11.285 12.881 C 11.066 12.621,10.898 12.298,10.842 12.028 C 10.802 11.838,10.807 11.785,10.879 11.596 C 10.945 11.421,11.011 11.339,11.223 11.167 C 11.741 10.748,12.013 10.676,12.454 10.841 M16.992 12.242 C 16.911 12.285,16.794 12.386,16.732 12.467 C 16.634 12.596,16.620 12.648,16.620 12.897 C 16.620 13.177,16.623 13.185,16.875 13.577 C 17.016 13.795,17.263 14.245,17.424 14.577 C 17.671 15.085,17.741 15.195,17.867 15.276 C 18.144 15.454,18.506 15.428,18.762 15.212 C 19.057 14.964,19.087 14.641,18.862 14.120 C 18.659 13.650,18.398 13.170,18.096 12.714 C 17.890 12.402,17.807 12.311,17.668 12.244 C 17.452 12.139,17.187 12.139,16.992 12.242 M14.478 13.680 C 14.478 13.773,14.474 13.775,14.423 13.708 C 14.393 13.669,14.378 13.600,14.390 13.555 C 14.417 13.449,14.479 13.536,14.478 13.680 M18.505 15.896 C 18.136 16.033,17.976 16.339,18.011 16.842 C 18.037 17.224,17.989 17.827,17.897 18.281 C 17.823 18.647,17.850 18.829,18.011 19.046 C 18.274 19.402,18.870 19.401,19.171 19.043 C 19.479 18.678,19.636 16.668,19.391 16.233 C 19.217 15.924,18.830 15.776,18.505 15.896 M2.694 16.118 C 2.245 16.225,1.998 16.710,2.175 17.135 C 2.239 17.287,2.659 17.703,3.040 17.991 C 3.353 18.228,3.495 18.304,3.689 18.341 C 4.122 18.422,4.575 17.963,4.504 17.516 C 4.463 17.261,4.384 17.146,4.091 16.916 C 3.942 16.798,3.703 16.597,3.560 16.469 C 3.417 16.340,3.255 16.211,3.200 16.183 C 3.061 16.111,2.844 16.083,2.694 16.118 M10.960 16.494 C 10.905 16.524,10.707 16.644,10.520 16.761 C 10.333 16.878,9.910 17.105,9.580 17.265 C 8.853 17.619,8.780 17.697,8.780 18.120 C 8.780 18.338,8.798 18.412,8.879 18.531 C 9.073 18.813,9.414 18.927,9.741 18.820 C 10.081 18.708,10.960 18.257,11.404 17.968 C 11.766 17.731,11.841 17.664,11.919 17.503 C 12.161 17.003,11.803 16.443,11.240 16.441 C 11.141 16.441,11.015 16.465,10.960 16.494 M5.391 17.720 C 5.025 17.830,4.817 18.128,4.848 18.500 C 4.870 18.755,4.995 18.961,5.199 19.073 C 5.520 19.251,6.485 19.381,7.246 19.350 C 7.673 19.333,7.777 19.316,7.912 19.239 C 8.437 18.944,8.430 18.211,7.900 17.928 C 7.805 17.877,7.637 17.863,7.080 17.858 C 6.531 17.853,6.295 17.834,5.984 17.766 C 5.551 17.672,5.549 17.672,5.391 17.720 M17.455 19.717 C 17.339 19.769,17.199 19.903,16.985 20.166 C 16.817 20.372,16.600 20.634,16.502 20.749 C 16.224 21.076,16.184 21.350,16.366 21.681 C 16.516 21.951,16.840 22.086,17.184 22.022 C 17.291 22.002,17.406 21.925,17.591 21.747 C 17.929 21.424,18.426 20.762,18.478 20.566 C 18.580 20.190,18.347 19.787,17.969 19.682 C 17.758 19.623,17.644 19.631,17.455 19.717 " stroke="none" fill-rule="evenodd" fill="black"></path></svg>