<svg width="24" height="24" viewBox="0 0 24 24" fill="none" xmlns="http://www.w3.org/2000/svg"><path d="M11.712 1.287 C 11.120 1.363,10.647 1.816,10.445 2.500 C 10.285 3.037,10.274 3.312,10.252 6.985 L 10.231 10.550 8.293 9.193 C 7.228 8.447,6.311 7.819,6.255 7.798 C 6.200 7.777,6.085 7.760,6.000 7.760 C 5.585 7.760,5.269 8.080,5.269 8.500 C 5.269 8.738,5.346 8.905,5.530 9.064 C 5.603 9.128,6.567 9.810,7.670 10.580 C 8.774 11.350,9.677 11.989,9.677 12.000 C 9.677 12.011,8.774 12.650,7.670 13.420 C 6.567 14.190,5.603 14.872,5.530 14.936 C 5.346 15.095,5.269 15.262,5.269 15.500 C 5.269 15.727,5.339 15.889,5.506 16.047 C 5.723 16.252,6.066 16.302,6.321 16.165 C 6.397 16.124,7.308 15.496,8.345 14.770 L 10.231 13.450 10.252 17.015 C 10.265 19.286,10.289 20.696,10.317 20.900 C 10.440 21.783,10.751 22.318,11.300 22.590 C 11.816 22.845,12.504 22.749,13.260 22.316 C 13.715 22.056,14.264 21.681,16.040 20.416 C 17.756 19.195,18.078 18.939,18.350 18.578 C 18.635 18.202,18.729 17.944,18.729 17.540 C 18.729 17.142,18.637 16.884,18.359 16.509 C 18.083 16.135,17.708 15.848,14.816 13.794 C 13.454 12.827,12.340 12.020,12.340 12.000 C 12.340 11.980,13.383 11.223,14.658 10.318 C 17.948 7.982,18.083 7.879,18.375 7.470 C 18.641 7.097,18.730 6.844,18.729 6.460 C 18.729 6.056,18.635 5.798,18.350 5.422 C 18.235 5.269,17.987 5.020,17.800 4.869 C 17.479 4.610,15.141 2.932,14.174 2.267 C 12.971 1.438,12.377 1.202,11.712 1.287 M12.351 2.895 C 12.709 3.076,13.592 3.670,15.108 4.750 C 16.434 5.694,17.132 6.234,17.204 6.368 C 17.276 6.502,17.197 6.606,16.748 6.965 C 16.394 7.249,11.889 10.474,11.793 10.513 C 11.745 10.533,11.752 3.906,11.801 3.391 C 11.867 2.690,11.894 2.665,12.351 2.895 M14.078 15.100 C 16.343 16.709,17.122 17.294,17.204 17.447 C 17.235 17.505,17.236 17.557,17.208 17.620 C 17.145 17.756,16.482 18.271,15.108 19.250 C 13.066 20.705,12.231 21.240,12.000 21.240 C 11.887 21.240,11.849 21.118,11.801 20.609 C 11.752 20.094,11.745 13.467,11.793 13.487 C 11.811 13.494,12.839 14.220,14.078 15.100 " stroke="none" fill-rule="evenodd" fill="black"></path></svg>