<svg width="24" height="24" viewBox="0 0 24 24" fill="none" xmlns="http://www.w3.org/2000/svg"><path d="M8.960 1.280 C 6.960 1.332,5.848 1.469,4.900 1.779 C 3.060 2.382,1.958 3.688,1.563 5.734 C 1.311 7.042,1.267 7.973,1.267 12.000 C 1.267 16.027,1.311 16.958,1.563 18.266 C 2.013 20.599,3.401 21.987,5.734 22.437 C 7.034 22.688,7.987 22.733,12.000 22.733 C 16.013 22.733,16.966 22.688,18.266 22.437 C 20.599 21.987,21.987 20.599,22.437 18.266 C 22.688 16.966,22.733 16.013,22.733 12.000 C 22.733 7.987,22.688 7.034,22.437 5.734 C 22.098 3.977,21.228 2.756,19.825 2.068 C 18.978 1.652,17.875 1.425,16.200 1.321 C 15.315 1.266,10.534 1.239,8.960 1.280 M16.787 2.853 C 17.971 2.982,18.589 3.129,19.180 3.421 C 20.200 3.924,20.776 4.815,21.019 6.260 C 21.215 7.435,21.251 8.515,21.229 12.620 C 21.210 16.115,21.195 16.526,21.055 17.500 C 20.734 19.744,19.757 20.726,17.520 21.054 C 16.474 21.207,16.036 21.220,12.000 21.220 C 7.964 21.220,7.526 21.207,6.480 21.054 C 4.384 20.747,3.408 19.870,3.021 17.947 C 2.796 16.826,2.780 16.428,2.780 12.000 C 2.780 8.382,2.788 7.864,2.852 7.240 C 3.025 5.550,3.340 4.663,4.001 4.001 C 4.665 3.338,5.593 3.009,7.220 2.862 C 8.207 2.772,8.227 2.772,12.400 2.782 C 15.524 2.790,16.323 2.803,16.787 2.853 M11.206 5.803 C 10.976 5.848,10.708 6.009,10.578 6.179 C 10.294 6.551,10.243 6.983,10.241 9.030 C 10.241 9.761,10.231 10.360,10.219 10.360 C 10.208 10.360,9.798 10.025,9.309 9.616 C 8.820 9.206,8.362 8.846,8.291 8.816 C 8.002 8.691,7.665 8.770,7.451 9.014 C 7.222 9.274,7.192 9.617,7.375 9.891 C 7.423 9.962,7.983 10.456,8.621 10.989 C 9.258 11.522,9.780 11.977,9.780 12.000 C 9.780 12.023,9.258 12.478,8.621 13.011 C 7.983 13.544,7.423 14.038,7.375 14.109 C 7.192 14.383,7.222 14.726,7.451 14.986 C 7.668 15.234,8.016 15.312,8.299 15.178 C 8.370 15.144,8.827 14.784,9.314 14.378 C 9.800 13.972,10.208 13.640,10.219 13.640 C 10.231 13.640,10.241 14.239,10.241 14.970 C 10.243 17.017,10.294 17.449,10.578 17.821 C 10.821 18.139,11.303 18.290,11.727 18.181 C 12.091 18.088,12.295 17.956,13.683 16.916 C 15.275 15.723,15.379 15.605,15.379 15.000 C 15.379 14.392,15.284 14.286,13.616 13.033 C 12.881 12.481,12.280 12.016,12.280 12.000 C 12.280 11.984,12.881 11.519,13.616 10.967 C 14.367 10.403,15.016 9.885,15.099 9.784 C 15.495 9.301,15.494 8.698,15.097 8.214 C 14.940 8.022,12.582 6.230,12.197 6.010 C 11.986 5.889,11.573 5.755,11.442 5.764 C 11.408 5.767,11.302 5.784,11.206 5.803 M12.790 8.277 C 13.302 8.658,13.720 8.982,13.720 8.998 C 13.720 9.022,11.959 10.365,11.810 10.455 C 11.770 10.479,11.760 10.177,11.760 8.997 C 11.760 7.815,11.770 7.518,11.810 7.547 C 11.838 7.568,12.278 7.896,12.790 8.277 M12.790 14.274 C 13.302 14.658,13.720 14.985,13.720 15.000 C 13.720 15.021,12.526 15.929,11.810 16.453 C 11.770 16.482,11.760 16.185,11.760 15.003 C 11.760 13.823,11.770 13.521,11.810 13.545 C 11.838 13.562,12.278 13.890,12.790 14.274 " stroke="none" fill-rule="evenodd" fill="black"></path></svg>