<svg width="24" height="24" viewBox="0 0 24 24" fill="none" xmlns="http://www.w3.org/2000/svg"><path d="M11.320 1.281 C 7.041 1.525,3.252 4.409,1.843 8.497 C 1.180 10.418,1.082 12.560,1.564 14.550 C 2.505 18.428,5.572 21.495,9.450 22.436 C 11.106 22.837,12.894 22.837,14.550 22.436 C 18.428 21.495,21.495 18.428,22.436 14.550 C 22.837 12.894,22.837 11.106,22.436 9.450 C 21.425 5.282,17.985 2.095,13.742 1.398 C 13.334 1.331,12.074 1.229,11.880 1.247 C 11.847 1.250,11.595 1.265,11.320 1.281 M13.146 2.822 C 14.201 2.960,15.125 3.237,16.060 3.696 C 18.877 5.079,20.768 7.722,21.178 10.854 C 21.301 11.786,21.244 13.026,21.034 13.998 C 20.745 15.343,20.003 16.855,19.121 17.900 C 18.247 18.935,17.240 19.726,16.060 20.304 C 14.761 20.940,13.462 21.240,12.000 21.240 C 10.538 21.240,9.236 20.940,7.940 20.304 C 5.123 18.921,3.232 16.278,2.822 13.146 C 2.699 12.214,2.756 10.974,2.966 10.002 C 3.177 9.020,3.703 7.775,4.268 6.920 C 5.750 4.677,8.131 3.188,10.820 2.823 C 11.380 2.746,12.569 2.746,13.146 2.822 M11.246 5.282 C 10.863 5.359,10.545 5.643,10.397 6.038 C 10.281 6.348,10.243 7.022,10.241 8.830 C 10.241 9.671,10.231 10.360,10.219 10.360 C 10.208 10.360,9.798 10.025,9.309 9.616 C 8.820 9.206,8.362 8.846,8.291 8.816 C 8.002 8.691,7.665 8.770,7.451 9.014 C 7.222 9.274,7.192 9.617,7.375 9.891 C 7.423 9.962,7.983 10.456,8.621 10.989 C 9.258 11.522,9.780 11.977,9.780 12.000 C 9.780 12.023,9.258 12.478,8.621 13.011 C 7.983 13.544,7.423 14.038,7.375 14.109 C 7.192 14.383,7.222 14.726,7.451 14.986 C 7.668 15.234,8.016 15.312,8.299 15.178 C 8.370 15.144,8.827 14.784,9.314 14.378 C 9.800 13.972,10.208 13.640,10.219 13.640 C 10.231 13.640,10.241 14.329,10.242 15.170 C 10.244 17.016,10.279 17.653,10.396 17.963 C 10.575 18.437,10.980 18.730,11.455 18.730 C 11.787 18.730,12.050 18.639,12.422 18.396 C 12.921 18.071,15.126 16.398,15.327 16.192 C 15.605 15.908,15.727 15.630,15.727 15.280 C 15.727 14.926,15.609 14.661,15.319 14.367 C 15.209 14.255,14.480 13.683,13.700 13.096 C 12.919 12.509,12.280 12.016,12.280 12.000 C 12.280 11.984,12.919 11.491,13.700 10.904 C 14.480 10.317,15.209 9.745,15.319 9.633 C 15.609 9.339,15.727 9.074,15.727 8.720 C 15.727 8.370,15.605 8.092,15.327 7.808 C 15.126 7.602,12.921 5.929,12.422 5.604 C 11.980 5.315,11.599 5.211,11.246 5.282 M13.050 7.913 C 13.617 8.341,14.080 8.705,14.080 8.721 C 14.080 8.737,13.617 9.097,13.050 9.522 C 12.483 9.946,11.962 10.338,11.890 10.391 L 11.760 10.489 11.760 8.722 L 11.760 6.955 11.890 7.045 C 11.962 7.095,12.483 7.486,13.050 7.913 M13.050 14.478 C 13.617 14.903,14.080 15.263,14.080 15.279 C 14.080 15.305,12.259 16.698,11.890 16.955 L 11.760 17.045 11.760 15.278 L 11.760 13.511 11.890 13.609 C 11.962 13.662,12.483 14.054,13.050 14.478 " stroke="none" fill-rule="evenodd" fill="black"></path></svg>