<svg width="24" height="24" viewBox="0 0 24 24" fill="none" xmlns="http://www.w3.org/2000/svg"><path d="M8.712 1.287 C 8.120 1.363,7.647 1.816,7.445 2.500 C 7.285 3.037,7.274 3.312,7.252 6.985 L 7.231 10.550 5.293 9.193 C 4.228 8.447,3.311 7.819,3.255 7.798 C 3.200 7.777,3.085 7.760,3.000 7.760 C 2.585 7.760,2.269 8.080,2.269 8.500 C 2.269 8.738,2.346 8.905,2.530 9.064 C 2.603 9.128,3.567 9.810,4.670 10.580 C 5.774 11.350,6.677 11.989,6.677 12.000 C 6.677 12.011,5.774 12.650,4.670 13.420 C 3.567 14.190,2.603 14.872,2.530 14.936 C 2.346 15.095,2.269 15.262,2.269 15.500 C 2.269 15.727,2.339 15.889,2.506 16.047 C 2.723 16.252,3.066 16.302,3.321 16.165 C 3.397 16.124,4.308 15.496,5.345 14.770 L 7.231 13.450 7.252 17.015 C 7.265 19.286,7.289 20.696,7.317 20.900 C 7.440 21.783,7.751 22.318,8.300 22.590 C 8.816 22.845,9.504 22.749,10.260 22.316 C 10.715 22.056,11.264 21.681,13.040 20.416 C 14.756 19.195,15.078 18.939,15.350 18.578 C 15.635 18.202,15.729 17.944,15.729 17.540 C 15.729 17.142,15.637 16.884,15.359 16.509 C 15.083 16.135,14.708 15.848,11.816 13.794 C 10.454 12.827,9.340 12.020,9.340 12.000 C 9.340 11.980,10.383 11.223,11.658 10.318 C 14.948 7.982,15.083 7.879,15.375 7.470 C 15.641 7.097,15.730 6.844,15.729 6.460 C 15.729 6.056,15.635 5.798,15.350 5.422 C 15.235 5.269,14.987 5.020,14.800 4.869 C 14.479 4.610,12.141 2.932,11.174 2.267 C 9.971 1.438,9.377 1.202,8.712 1.287 M9.351 2.895 C 9.709 3.076,10.592 3.670,12.108 4.750 C 13.434 5.694,14.132 6.234,14.204 6.368 C 14.276 6.502,14.197 6.606,13.748 6.965 C 13.394 7.249,8.889 10.474,8.793 10.513 C 8.745 10.533,8.752 3.906,8.801 3.391 C 8.867 2.690,8.894 2.665,9.351 2.895 M18.819 4.276 C 18.555 4.342,18.363 4.537,18.285 4.818 C 18.211 5.087,18.266 5.250,18.564 5.651 C 19.334 6.686,19.900 8.276,20.141 10.080 C 20.230 10.743,20.265 12.520,20.204 13.260 C 20.032 15.343,19.443 17.168,18.559 18.356 C 18.281 18.729,18.253 18.803,18.274 19.096 C 18.317 19.708,19.088 19.954,19.542 19.500 C 19.859 19.184,20.338 18.408,20.644 17.716 C 21.393 16.022,21.728 14.258,21.728 12.000 C 21.728 10.699,21.644 9.808,21.420 8.716 C 21.086 7.090,20.413 5.538,19.634 4.595 C 19.411 4.326,19.103 4.205,18.819 4.276 M16.785 7.288 C 16.562 7.349,16.341 7.585,16.284 7.825 C 16.230 8.052,16.257 8.163,16.511 8.740 C 16.976 9.797,17.240 10.977,17.240 12.000 C 17.240 13.023,16.976 14.203,16.511 15.260 C 16.257 15.837,16.230 15.948,16.284 16.175 C 16.417 16.732,17.113 16.927,17.519 16.521 C 17.688 16.352,17.948 15.787,18.191 15.058 C 18.911 12.900,18.911 11.101,18.191 8.942 C 17.995 8.354,17.721 7.721,17.585 7.543 C 17.412 7.316,17.076 7.209,16.785 7.288 M11.078 15.100 C 13.343 16.709,14.122 17.294,14.204 17.447 C 14.235 17.505,14.236 17.557,14.208 17.620 C 14.145 17.756,13.482 18.271,12.108 19.250 C 10.066 20.705,9.231 21.240,9.000 21.240 C 8.887 21.240,8.849 21.118,8.801 20.609 C 8.752 20.094,8.745 13.467,8.793 13.487 C 8.811 13.494,9.839 14.220,11.078 15.100 " stroke="none" fill-rule="evenodd" fill="black"></path></svg>