<svg width="24" height="24" viewBox="0 0 24 24" fill="none" xmlns="http://www.w3.org/2000/svg"><path d="M3.785 1.288 C 3.568 1.347,3.344 1.583,3.286 1.814 C 3.228 2.043,3.237 2.083,3.510 2.780 C 4.111 4.315,4.701 6.360,4.976 7.860 C 5.143 8.771,5.201 9.294,5.227 10.122 C 5.247 10.764,5.239 10.978,5.182 11.322 C 5.035 12.200,4.700 12.955,3.753 14.540 C 3.019 15.771,2.811 16.139,2.490 16.780 C 1.715 18.330,1.305 19.981,1.271 21.683 C 1.260 22.213,1.262 22.229,1.367 22.388 C 1.526 22.628,1.721 22.733,2.007 22.733 C 2.203 22.733,2.270 22.714,2.408 22.617 C 2.681 22.424,2.726 22.290,2.764 21.547 C 2.799 20.843,2.840 20.509,2.962 19.910 C 3.051 19.474,3.286 18.671,3.400 18.411 C 3.467 18.260,3.487 18.243,3.588 18.259 C 3.649 18.268,3.916 18.287,4.180 18.300 C 5.818 18.381,7.592 18.887,8.840 19.628 C 10.031 20.336,10.940 21.296,11.277 22.203 C 11.552 22.942,12.448 22.942,12.723 22.203 C 13.060 21.296,13.969 20.336,15.160 19.628 C 16.408 18.887,18.182 18.381,19.820 18.300 C 20.084 18.287,20.351 18.268,20.412 18.259 C 20.513 18.243,20.533 18.260,20.600 18.411 C 20.715 18.672,20.949 19.475,21.039 19.914 C 21.159 20.506,21.199 20.842,21.236 21.575 C 21.267 22.193,21.277 22.252,21.372 22.395 C 21.526 22.628,21.723 22.733,22.007 22.733 C 22.203 22.733,22.270 22.714,22.408 22.617 C 22.691 22.417,22.741 22.266,22.729 21.660 C 22.702 20.331,22.424 18.958,21.932 17.720 C 21.603 16.892,21.205 16.142,20.200 14.460 C 19.391 13.105,19.100 12.493,18.888 11.700 C 18.788 11.323,18.781 11.248,18.781 10.400 C 18.780 9.466,18.814 9.077,18.985 8.080 C 19.236 6.608,19.816 4.535,20.404 3.015 C 20.764 2.080,20.771 2.055,20.716 1.825 C 20.584 1.269,19.887 1.073,19.483 1.477 C 19.372 1.588,19.285 1.760,19.106 2.221 C 18.561 3.622,18.036 5.348,17.722 6.768 C 17.480 7.864,17.280 9.304,17.280 9.959 L 17.280 10.240 12.000 10.240 L 6.720 10.240 6.720 9.959 C 6.720 9.061,6.418 7.206,6.035 5.760 C 5.599 4.110,4.822 1.853,4.580 1.537 C 4.411 1.316,4.073 1.210,3.785 1.288 M17.427 11.980 C 17.455 12.090,17.479 12.194,17.479 12.210 C 17.480 12.227,15.012 12.240,11.995 12.240 L 6.511 12.240 6.535 12.150 C 6.549 12.101,6.571 11.992,6.585 11.910 L 6.610 11.760 11.993 11.770 L 17.375 11.780 17.427 11.980 M18.224 14.030 C 18.341 14.244,18.987 15.348,19.767 16.666 L 19.842 16.793 19.531 16.818 C 16.641 17.055,14.140 18.119,12.568 19.779 C 12.391 19.966,12.195 20.191,12.133 20.279 C 12.071 20.367,12.011 20.438,12.000 20.438 C 11.989 20.438,11.929 20.367,11.867 20.279 C 11.692 20.031,11.142 19.466,10.797 19.178 C 9.886 18.418,8.571 17.727,7.300 17.341 C 6.536 17.109,5.357 16.891,4.470 16.819 L 4.161 16.793 4.267 16.607 C 4.326 16.504,4.648 15.959,4.983 15.395 C 5.319 14.832,5.642 14.274,5.702 14.155 C 5.762 14.037,5.838 13.900,5.870 13.850 L 5.929 13.760 12.003 13.760 L 18.076 13.760 18.224 14.030 " stroke="none" fill-rule="evenodd" fill="black"></path></svg>