<svg width="24" height="24" viewBox="0 0 24 24" fill="none" xmlns="http://www.w3.org/2000/svg"><path d="M7.420 1.281 C 7.092 1.325,6.786 1.445,6.220 1.751 C 5.134 2.339,4.610 2.691,3.771 3.394 C 2.948 4.084,2.498 4.623,2.354 5.092 C 2.204 5.581,2.245 6.064,2.478 6.540 C 2.715 7.026,3.115 7.430,4.340 8.417 C 4.819 8.804,5.219 9.174,5.293 9.300 C 5.328 9.359,5.346 10.339,5.362 13.040 C 5.381 16.356,5.390 16.723,5.453 16.940 C 5.551 17.278,5.686 17.542,5.930 17.869 C 6.220 18.259,9.167 21.724,9.451 22.010 C 9.738 22.298,10.032 22.489,10.365 22.603 C 10.951 22.804,13.049 22.804,13.635 22.603 C 13.968 22.489,14.262 22.298,14.549 22.010 C 14.833 21.724,17.780 18.259,18.070 17.869 C 18.314 17.542,18.449 17.278,18.547 16.940 C 18.610 16.723,18.619 16.356,18.638 13.040 C 18.654 10.339,18.672 9.359,18.707 9.300 C 18.781 9.174,19.181 8.804,19.660 8.417 C 20.885 7.430,21.285 7.026,21.522 6.540 C 21.707 6.162,21.768 5.835,21.720 5.476 C 21.641 4.888,21.471 4.589,20.881 3.999 C 19.963 3.080,19.102 2.465,17.594 1.648 C 16.672 1.149,15.874 1.138,14.985 1.611 C 14.812 1.703,14.677 1.824,14.471 2.071 C 14.152 2.452,13.855 2.700,13.480 2.896 C 12.586 3.365,11.414 3.365,10.520 2.896 C 10.143 2.699,9.847 2.452,9.523 2.063 C 9.267 1.757,9.201 1.704,8.908 1.563 C 8.364 1.302,7.911 1.216,7.420 1.281 M8.116 2.842 C 8.244 2.897,8.355 2.987,8.453 3.116 C 9.029 3.871,10.098 4.481,11.200 4.684 C 11.536 4.746,12.466 4.746,12.800 4.684 C 13.903 4.480,14.973 3.869,15.547 3.116 C 15.832 2.742,16.259 2.662,16.741 2.894 C 17.091 3.063,18.021 3.597,18.332 3.808 C 18.943 4.223,20.063 5.214,20.183 5.445 C 20.378 5.823,20.194 6.050,18.738 7.239 C 17.649 8.128,17.446 8.355,17.270 8.878 C 17.183 9.138,17.182 9.168,17.158 12.800 C 17.140 15.490,17.121 16.499,17.086 16.607 C 17.018 16.816,16.776 17.117,15.123 19.056 C 14.318 19.999,13.621 20.819,13.573 20.878 C 13.525 20.937,13.410 21.038,13.316 21.103 L 13.147 21.220 12.000 21.220 L 10.853 21.220 10.684 21.103 C 10.590 21.038,10.475 20.937,10.427 20.878 C 10.379 20.819,9.682 19.999,8.878 19.056 C 8.073 18.112,7.322 17.220,7.207 17.074 C 6.830 16.592,6.864 16.982,6.839 12.820 C 6.818 9.165,6.817 9.138,6.730 8.878 C 6.554 8.354,6.348 8.125,5.261 7.239 C 3.811 6.058,3.622 5.823,3.817 5.445 C 3.937 5.214,5.057 4.223,5.668 3.808 C 5.979 3.597,6.909 3.063,7.259 2.894 C 7.591 2.735,7.832 2.720,8.116 2.842 " stroke="none" fill-rule="evenodd" fill="black"></path></svg>