<svg width="24" height="24" viewBox="0 0 24 24" fill="none" xmlns="http://www.w3.org/2000/svg"><path d="M11.320 1.281 C 7.041 1.525,3.252 4.409,1.843 8.497 C 1.180 10.418,1.082 12.560,1.564 14.550 C 2.505 18.428,5.572 21.495,9.450 22.436 C 11.106 22.837,12.894 22.837,14.550 22.436 C 18.428 21.495,21.495 18.428,22.436 14.550 C 22.837 12.894,22.837 11.106,22.436 9.450 C 21.425 5.282,17.985 2.095,13.742 1.398 C 13.334 1.331,12.074 1.229,11.880 1.247 C 11.847 1.250,11.595 1.265,11.320 1.281 M13.146 2.822 C 14.201 2.960,15.125 3.237,16.060 3.696 C 18.877 5.079,20.768 7.722,21.178 10.854 C 21.301 11.786,21.244 13.026,21.034 13.998 C 20.745 15.343,20.003 16.855,19.121 17.900 C 18.247 18.935,17.240 19.726,16.060 20.304 C 14.761 20.940,13.462 21.240,12.000 21.240 C 10.538 21.240,9.236 20.940,7.940 20.304 C 5.123 18.921,3.232 16.278,2.822 13.146 C 2.699 12.214,2.756 10.974,2.966 10.002 C 3.177 9.020,3.703 7.775,4.268 6.920 C 5.750 4.677,8.131 3.188,10.820 2.823 C 11.380 2.746,12.569 2.746,13.146 2.822 M12.875 6.556 C 12.554 6.659,12.267 6.833,11.625 7.317 C 10.584 8.101,8.063 10.134,7.794 10.407 C 7.232 10.975,7.123 11.601,7.491 12.144 C 7.750 12.526,8.140 12.715,9.380 13.059 C 9.754 13.163,10.066 13.253,10.073 13.260 C 10.079 13.266,9.993 13.618,9.881 14.042 C 9.553 15.274,9.470 15.693,9.465 16.140 C 9.460 16.626,9.534 16.874,9.764 17.135 C 9.851 17.234,10.021 17.364,10.142 17.423 C 10.339 17.519,10.394 17.528,10.691 17.512 C 11.096 17.489,11.385 17.378,11.846 17.068 C 12.501 16.627,15.827 13.977,16.200 13.599 C 16.766 13.025,16.877 12.399,16.509 11.856 C 16.250 11.474,15.860 11.285,14.620 10.941 C 14.246 10.837,13.934 10.747,13.927 10.740 C 13.921 10.734,14.005 10.389,14.114 9.974 C 14.452 8.695,14.531 8.300,14.535 7.860 C 14.540 7.374,14.465 7.126,14.237 6.867 C 14.004 6.602,13.732 6.479,13.382 6.482 C 13.227 6.483,12.999 6.517,12.875 6.556 M12.883 8.764 C 12.816 9.037,12.698 9.503,12.620 9.800 C 12.430 10.523,12.391 10.815,12.444 11.106 C 12.516 11.505,12.777 11.845,13.161 12.041 C 13.252 12.087,13.707 12.233,14.173 12.366 C 14.639 12.498,15.027 12.614,15.037 12.624 C 15.046 12.633,15.027 12.663,14.994 12.690 C 14.960 12.718,14.267 13.274,13.453 13.927 C 11.507 15.488,11.023 15.854,11.007 15.780 C 10.995 15.723,11.155 15.047,11.400 14.120 C 11.569 13.480,11.608 13.178,11.556 12.894 C 11.484 12.495,11.223 12.155,10.839 11.959 C 10.748 11.913,10.293 11.767,9.827 11.634 C 9.361 11.502,8.973 11.386,8.963 11.376 C 8.954 11.367,8.973 11.337,9.007 11.310 C 9.040 11.282,9.732 10.727,10.544 10.075 C 12.425 8.566,12.977 8.146,12.992 8.215 C 12.998 8.245,12.949 8.492,12.883 8.764 " stroke="none" fill-rule="evenodd" fill="black"></path></svg>