<svg width="24" height="24" viewBox="0 0 24 24" fill="none" xmlns="http://www.w3.org/2000/svg"><path d="M12.085 1.285 C 11.623 1.362,11.095 1.703,10.539 2.284 C 9.942 2.910,9.356 3.667,6.879 7.020 C 4.072 10.819,3.817 11.182,3.537 11.778 C 3.322 12.236,3.265 12.501,3.287 12.929 C 3.333 13.792,3.929 14.336,5.060 14.546 C 5.290 14.588,5.905 14.615,7.240 14.642 C 9.252 14.681,9.433 14.700,9.571 14.886 C 9.685 15.040,9.715 15.586,9.718 17.580 C 9.722 19.824,9.785 20.667,10.004 21.389 C 10.395 22.677,11.589 23.113,12.704 22.376 C 13.429 21.897,13.998 21.202,17.061 17.060 C 19.921 13.191,20.181 12.822,20.463 12.222 C 20.678 11.764,20.735 11.499,20.713 11.071 C 20.668 10.217,20.071 9.667,18.960 9.456 C 18.751 9.417,18.089 9.387,16.780 9.360 C 14.750 9.318,14.566 9.299,14.429 9.114 C 14.315 8.960,14.285 8.421,14.281 6.460 C 14.279 4.706,14.239 3.819,14.138 3.231 C 13.938 2.068,13.489 1.468,12.695 1.300 C 12.389 1.235,12.387 1.235,12.085 1.285 M12.520 2.931 C 12.719 3.380,12.759 3.920,12.800 6.640 C 12.838 9.202,12.848 9.307,13.084 9.777 C 13.251 10.109,13.522 10.376,13.860 10.542 C 14.351 10.783,14.538 10.803,16.580 10.841 C 18.423 10.875,18.819 10.905,19.080 11.032 C 19.284 11.131,19.285 11.261,19.082 11.658 C 18.865 12.084,18.531 12.554,16.327 15.540 C 13.514 19.351,12.954 20.081,12.382 20.675 C 12.049 21.023,11.759 21.240,11.630 21.240 C 11.581 21.240,11.530 21.182,11.480 21.069 C 11.281 20.620,11.241 20.080,11.200 17.360 C 11.162 14.798,11.152 14.693,10.916 14.223 C 10.749 13.891,10.478 13.624,10.140 13.458 C 9.647 13.216,9.462 13.196,7.420 13.159 C 4.668 13.109,4.547 13.069,4.918 12.342 C 5.135 11.916,5.469 11.446,7.673 8.460 C 10.486 4.649,11.046 3.919,11.618 3.325 C 11.951 2.977,12.241 2.760,12.370 2.760 C 12.419 2.760,12.470 2.818,12.520 2.931 " stroke="none" fill-rule="evenodd" fill="black"></path></svg>