<svg width="24" height="24" viewBox="0 0 24 24" fill="none" xmlns="http://www.w3.org/2000/svg"><path d="M15.690 2.826 C 15.403 2.967,15.203 3.337,15.263 3.613 C 15.301 3.790,15.894 4.965,15.987 5.048 C 16.191 5.232,16.530 5.287,16.790 5.178 C 16.988 5.096,17.077 5.010,17.165 4.820 C 17.301 4.522,17.271 4.382,16.924 3.690 C 16.607 3.058,16.476 2.882,16.267 2.803 C 16.105 2.741,15.840 2.752,15.690 2.826 M19.801 3.290 C 19.644 3.324,19.551 3.399,19.028 3.914 C 18.702 4.236,18.397 4.561,18.350 4.636 C 18.231 4.828,18.235 5.178,18.358 5.377 C 18.504 5.613,18.720 5.733,18.997 5.733 C 19.163 5.733,19.268 5.709,19.364 5.650 C 19.439 5.603,19.763 5.299,20.085 4.973 C 20.614 4.437,20.673 4.362,20.710 4.189 C 20.834 3.607,20.387 3.165,19.801 3.290 M8.900 6.281 C 6.248 6.469,3.831 7.950,2.441 10.240 C 1.881 11.162,1.508 12.210,1.338 13.340 C 1.249 13.930,1.249 15.070,1.338 15.660 C 1.613 17.486,2.391 19.039,3.676 20.324 C 4.961 21.609,6.514 22.387,8.340 22.662 C 8.930 22.751,10.070 22.751,10.660 22.662 C 12.486 22.387,14.039 21.608,15.322 20.323 C 16.609 19.035,17.388 17.483,17.662 15.660 C 17.751 15.070,17.751 13.930,17.662 13.340 C 17.446 11.906,16.897 10.604,16.027 9.460 L 15.845 9.220 16.758 8.300 C 17.608 7.443,17.673 7.367,17.710 7.190 C 17.832 6.611,17.389 6.168,16.810 6.290 C 16.633 6.327,16.557 6.392,15.700 7.242 L 14.780 8.155 14.540 7.973 C 12.915 6.736,10.921 6.138,8.900 6.281 M19.201 6.823 C 19.018 6.903,18.928 6.988,18.836 7.168 C 18.707 7.420,18.759 7.800,18.952 8.013 C 18.989 8.055,19.308 8.234,19.660 8.410 C 20.196 8.679,20.333 8.731,20.502 8.734 C 21.115 8.744,21.471 7.991,21.069 7.534 C 20.980 7.432,20.755 7.297,20.307 7.075 C 19.623 6.736,19.478 6.703,19.201 6.823 M10.560 7.838 C 11.674 8.027,12.652 8.440,13.538 9.095 C 13.951 9.400,14.600 10.049,14.905 10.462 C 16.705 12.896,16.686 16.207,14.858 18.605 C 14.608 18.933,13.933 19.608,13.605 19.858 C 11.187 21.701,7.813 21.701,5.395 19.858 C 5.067 19.608,4.392 18.933,4.142 18.605 C 2.299 16.187,2.299 12.813,4.142 10.395 C 4.422 10.027,5.088 9.372,5.462 9.095 C 6.334 8.450,7.325 8.029,8.416 7.839 C 8.996 7.738,9.964 7.737,10.560 7.838 " stroke="none" fill-rule="evenodd" fill="black"></path></svg>