<svg width="24" height="24" viewBox="0 0 24 24" fill="none" xmlns="http://www.w3.org/2000/svg"><path d="M18.271 1.282 C 17.995 1.327,17.733 1.473,17.538 1.691 C 17.395 1.850,17.307 2.031,17.013 2.771 L 16.660 3.660 15.771 4.013 C 15.031 4.307,14.850 4.395,14.691 4.538 C 14.120 5.051,14.120 5.949,14.689 6.460 C 14.827 6.584,15.008 6.683,15.349 6.819 C 15.608 6.922,15.833 7.019,15.849 7.034 C 15.865 7.050,15.631 7.309,15.329 7.610 L 14.780 8.156 14.540 7.973 C 13.405 7.107,12.087 6.552,10.660 6.338 C 10.071 6.251,8.929 6.251,8.340 6.338 C 6.522 6.610,4.966 7.390,3.677 8.678 C 2.392 9.961,1.613 11.514,1.338 13.340 C 1.249 13.930,1.249 15.070,1.338 15.660 C 1.613 17.486,2.391 19.039,3.676 20.324 C 4.961 21.609,6.514 22.387,8.340 22.662 C 8.930 22.751,10.070 22.751,10.660 22.662 C 12.486 22.387,14.039 21.608,15.322 20.323 C 16.609 19.035,17.388 17.483,17.662 15.660 C 17.802 14.727,17.736 13.462,17.496 12.500 C 17.227 11.421,16.714 10.361,16.027 9.460 L 15.844 9.220 16.390 8.671 C 16.691 8.369,16.950 8.135,16.966 8.151 C 16.981 8.167,17.078 8.392,17.181 8.651 C 17.317 8.992,17.416 9.173,17.540 9.311 C 18.053 9.882,18.947 9.882,19.462 9.309 C 19.605 9.150,19.693 8.969,19.987 8.230 L 20.340 7.341 21.230 6.987 C 21.968 6.693,22.151 6.604,22.310 6.461 C 22.878 5.951,22.878 5.049,22.309 4.538 C 22.150 4.395,21.969 4.307,21.229 4.013 L 20.340 3.660 19.980 2.765 C 19.604 1.830,19.494 1.645,19.206 1.464 C 18.939 1.296,18.593 1.229,18.271 1.282 M18.777 3.770 C 19.036 4.437,19.185 4.685,19.429 4.855 C 19.521 4.920,19.873 5.083,20.210 5.217 C 20.547 5.350,20.823 5.478,20.823 5.500 C 20.823 5.522,20.547 5.650,20.210 5.783 C 19.244 6.167,19.167 6.244,18.783 7.210 C 18.650 7.547,18.522 7.823,18.500 7.823 C 18.478 7.823,18.350 7.547,18.217 7.210 C 17.831 6.240,17.759 6.168,16.771 5.776 C 16.424 5.638,16.148 5.510,16.159 5.493 C 16.169 5.475,16.453 5.350,16.790 5.217 C 17.127 5.083,17.479 4.920,17.571 4.855 C 17.854 4.658,18.002 4.381,18.439 3.223 C 18.463 3.159,18.497 3.123,18.515 3.143 C 18.533 3.164,18.650 3.446,18.777 3.770 M10.560 7.838 C 11.674 8.027,12.652 8.440,13.538 9.095 C 13.951 9.400,14.600 10.049,14.905 10.462 C 16.705 12.896,16.686 16.207,14.858 18.605 C 14.608 18.933,13.933 19.608,13.605 19.858 C 11.187 21.701,7.813 21.701,5.395 19.858 C 5.067 19.608,4.392 18.933,4.142 18.605 C 2.299 16.187,2.299 12.813,4.142 10.395 C 4.422 10.027,5.088 9.372,5.462 9.095 C 6.334 8.450,7.325 8.029,8.416 7.839 C 8.996 7.738,9.964 7.737,10.560 7.838 " stroke="none" fill-rule="evenodd" fill="black"></path></svg>