<svg width="24" height="24" viewBox="0 0 24 24" fill="none" xmlns="http://www.w3.org/2000/svg"><path d="M15.531 1.281 C 14.083 1.434,12.899 2.612,12.537 4.260 C 12.434 4.727,12.442 5.476,12.554 5.933 C 12.649 6.322,12.663 6.599,12.596 6.733 C 12.533 6.857,6.883 12.513,6.752 12.583 C 6.602 12.662,6.360 12.654,5.918 12.555 C 5.428 12.446,4.714 12.438,4.260 12.537 C 3.057 12.801,2.049 13.538,1.578 14.499 C 1.178 15.315,1.161 16.444,1.538 17.266 C 1.916 18.094,2.702 18.788,3.540 19.037 C 3.854 19.130,4.460 19.200,4.695 19.170 L 4.850 19.150 4.830 19.305 C 4.800 19.540,4.870 20.146,4.963 20.460 C 5.165 21.141,5.663 21.795,6.300 22.218 C 6.843 22.579,7.359 22.726,8.080 22.726 C 8.866 22.726,9.451 22.535,10.044 22.086 C 10.712 21.580,11.259 20.675,11.462 19.740 C 11.564 19.269,11.557 18.520,11.446 18.067 C 11.346 17.656,11.337 17.400,11.417 17.248 C 11.487 17.117,17.143 11.467,17.267 11.404 C 17.399 11.338,17.662 11.351,18.082 11.445 C 18.572 11.554,19.286 11.562,19.740 11.463 C 21.205 11.142,22.316 10.161,22.643 8.900 C 22.759 8.453,22.759 7.706,22.643 7.264 C 22.412 6.383,21.851 5.664,21.038 5.206 C 20.593 4.956,20.109 4.837,19.522 4.834 L 19.167 4.833 19.166 4.478 C 19.163 3.891,19.044 3.407,18.794 2.962 C 18.123 1.771,16.894 1.138,15.531 1.281 M16.405 2.817 C 16.506 2.848,16.665 2.911,16.756 2.958 C 16.953 3.059,17.368 3.461,17.462 3.644 C 17.799 4.295,17.748 5.015,17.326 5.565 C 16.949 6.056,16.885 6.292,17.035 6.620 C 17.123 6.810,17.212 6.896,17.410 6.978 C 17.726 7.110,17.955 7.042,18.435 6.674 C 18.985 6.252,19.705 6.201,20.356 6.538 C 20.539 6.632,20.941 7.047,21.042 7.244 C 21.312 7.773,21.310 8.390,21.038 8.924 C 20.905 9.185,20.503 9.560,20.172 9.732 C 19.585 10.038,18.985 10.109,18.260 9.960 C 17.579 9.820,17.024 9.861,16.560 10.087 C 16.345 10.192,16.162 10.350,15.496 11.008 L 14.692 11.802 13.944 11.961 C 13.533 12.049,13.170 12.120,13.138 12.120 C 13.092 12.120,13.080 12.051,13.080 11.774 C 13.080 11.480,13.065 11.402,12.984 11.263 C 12.930 11.171,12.818 11.060,12.728 11.010 C 12.481 10.871,12.264 10.891,11.591 11.116 C 11.269 11.224,10.995 11.302,10.983 11.290 C 10.970 11.277,10.960 11.104,10.960 10.905 L 10.960 10.543 12.374 9.122 C 13.617 7.872,13.803 7.668,13.914 7.440 C 14.138 6.976,14.181 6.394,14.039 5.724 C 13.938 5.245,13.938 4.818,14.039 4.424 C 14.241 3.635,14.764 3.026,15.418 2.819 C 15.638 2.750,16.179 2.748,16.405 2.817 M9.573 12.708 C 9.690 12.931,9.896 13.055,10.175 13.071 C 10.385 13.083,10.504 13.056,11.005 12.887 L 11.590 12.689 11.608 13.002 C 11.629 13.356,11.711 13.517,11.954 13.684 C 12.074 13.766,12.141 13.780,12.407 13.778 L 12.720 13.776 11.462 15.040 C 10.350 16.157,10.189 16.335,10.082 16.562 C 9.861 17.035,9.820 17.612,9.961 18.276 C 10.110 18.982,10.037 19.587,9.732 20.172 C 9.560 20.503,9.185 20.905,8.924 21.038 C 8.390 21.310,7.773 21.312,7.244 21.042 C 7.047 20.941,6.632 20.539,6.538 20.356 C 6.201 19.705,6.252 18.985,6.674 18.435 C 7.051 17.944,7.115 17.708,6.965 17.380 C 6.877 17.190,6.788 17.104,6.590 17.022 C 6.274 16.890,6.045 16.958,5.565 17.326 C 5.015 17.748,4.295 17.799,3.644 17.462 C 3.574 17.426,3.409 17.289,3.280 17.160 C 2.911 16.791,2.761 16.432,2.761 15.920 C 2.761 15.403,2.917 15.034,3.296 14.659 C 3.898 14.063,4.802 13.834,5.738 14.041 C 6.379 14.183,6.978 14.138,7.440 13.913 C 7.658 13.807,7.841 13.647,8.580 12.915 L 9.460 12.044 9.483 12.312 C 9.495 12.459,9.536 12.638,9.573 12.708 " stroke="none" fill-rule="evenodd" fill="black"></path></svg>