<svg width="24" height="24" viewBox="0 0 24 24" fill="none" xmlns="http://www.w3.org/2000/svg"><path d="M15.531 1.281 C 14.083 1.434,12.899 2.612,12.537 4.260 C 12.434 4.727,12.442 5.476,12.554 5.933 C 12.649 6.322,12.663 6.599,12.596 6.733 C 12.533 6.857,6.883 12.513,6.752 12.583 C 6.602 12.662,6.360 12.654,5.918 12.555 C 5.428 12.446,4.714 12.438,4.260 12.537 C 3.057 12.801,2.049 13.538,1.578 14.499 C 1.178 15.315,1.161 16.444,1.538 17.266 C 1.916 18.094,2.702 18.788,3.540 19.037 C 3.854 19.130,4.460 19.200,4.695 19.170 L 4.850 19.150 4.830 19.305 C 4.800 19.540,4.870 20.146,4.963 20.460 C 5.165 21.141,5.663 21.795,6.300 22.218 C 6.843 22.579,7.359 22.726,8.080 22.726 C 8.866 22.726,9.451 22.535,10.044 22.086 C 10.712 21.580,11.259 20.675,11.462 19.740 C 11.564 19.269,11.557 18.520,11.446 18.067 C 11.346 17.656,11.337 17.400,11.417 17.248 C 11.487 17.117,17.143 11.467,17.267 11.404 C 17.399 11.338,17.662 11.351,18.082 11.445 C 18.572 11.554,19.286 11.562,19.740 11.463 C 20.431 11.311,21.181 10.934,21.694 10.479 C 21.953 10.249,22.254 9.845,22.422 9.501 C 22.822 8.685,22.839 7.556,22.462 6.734 C 22.084 5.906,21.298 5.212,20.460 4.963 C 20.150 4.871,19.541 4.800,19.314 4.829 L 19.167 4.848 19.166 4.485 C 19.163 3.891,19.045 3.409,18.794 2.962 C 18.123 1.771,16.894 1.138,15.531 1.281 M16.405 2.817 C 16.506 2.848,16.665 2.911,16.756 2.958 C 16.953 3.059,17.368 3.461,17.462 3.644 C 17.799 4.295,17.748 5.015,17.326 5.565 C 16.949 6.056,16.885 6.292,17.035 6.620 C 17.123 6.810,17.212 6.896,17.410 6.978 C 17.726 7.110,17.955 7.042,18.435 6.674 C 18.985 6.252,19.705 6.201,20.356 6.538 C 20.539 6.632,20.941 7.047,21.042 7.244 C 21.312 7.773,21.310 8.390,21.038 8.924 C 20.905 9.185,20.503 9.560,20.172 9.732 C 19.578 10.041,18.989 10.109,18.236 9.955 C 17.907 9.888,17.732 9.874,17.400 9.891 C 16.900 9.915,16.629 10.005,16.291 10.258 C 16.164 10.353,14.736 11.760,13.117 13.385 C 10.403 16.110,10.166 16.359,10.067 16.585 C 9.860 17.059,9.824 17.630,9.961 18.276 C 10.110 18.982,10.037 19.587,9.732 20.172 C 9.560 20.503,9.185 20.905,8.924 21.038 C 8.390 21.310,7.773 21.312,7.244 21.042 C 7.047 20.941,6.632 20.539,6.538 20.356 C 6.201 19.705,6.252 18.985,6.674 18.435 C 7.042 17.955,7.110 17.726,6.978 17.410 C 6.896 17.212,6.810 17.123,6.620 17.035 C 6.292 16.885,6.056 16.949,5.565 17.326 C 5.015 17.748,4.295 17.799,3.644 17.462 C 3.461 17.368,3.059 16.953,2.958 16.756 C 2.688 16.227,2.690 15.610,2.962 15.076 C 3.095 14.815,3.497 14.440,3.828 14.268 C 4.422 13.959,5.011 13.891,5.764 14.045 C 6.093 14.112,6.268 14.126,6.600 14.109 C 7.100 14.085,7.371 13.995,7.709 13.742 C 7.836 13.647,9.256 12.249,10.865 10.635 C 13.527 7.963,13.801 7.677,13.915 7.440 C 14.138 6.974,14.181 6.393,14.039 5.724 C 13.938 5.245,13.938 4.818,14.039 4.424 C 14.241 3.635,14.764 3.026,15.418 2.819 C 15.638 2.750,16.179 2.748,16.405 2.817 " stroke="none" fill-rule="evenodd" fill="black"></path></svg>