<svg width="24" height="24" viewBox="0 0 24 24" fill="none" xmlns="http://www.w3.org/2000/svg"><path d="M9.020 1.278 C 7.735 1.310,7.475 1.326,6.649 1.423 C 4.782 1.643,3.569 2.183,2.728 3.171 C 1.841 4.212,1.475 5.425,1.314 7.860 C 1.249 8.841,1.249 15.159,1.314 16.140 C 1.431 17.905,1.649 18.970,2.068 19.825 C 2.755 21.227,3.977 22.098,5.733 22.437 C 7.044 22.690,8.017 22.736,12.000 22.736 C 15.985 22.736,16.958 22.689,18.267 22.437 C 20.599 21.987,21.987 20.599,22.437 18.266 C 22.688 16.968,22.732 16.015,22.733 12.000 C 22.733 7.987,22.688 7.034,22.437 5.734 C 22.098 3.977,21.228 2.756,19.825 2.068 C 18.972 1.650,17.855 1.421,16.180 1.321 C 15.276 1.267,10.579 1.239,9.020 1.278 M8.720 3.466 C 8.720 4.165,8.719 4.174,8.616 4.309 C 8.558 4.384,8.332 4.564,8.112 4.709 C 7.624 5.031,7.347 5.280,7.086 5.632 C 6.051 7.029,5.943 8.756,6.816 9.976 C 7.265 10.603,7.920 11.056,8.680 11.264 C 9.042 11.363,9.918 11.363,10.280 11.264 C 10.865 11.104,11.301 10.855,11.750 10.426 L 12.000 10.187 12.250 10.426 C 12.929 11.075,13.576 11.334,14.520 11.336 C 15.127 11.336,15.482 11.261,15.932 11.034 C 17.095 10.449,17.762 9.387,17.764 8.120 C 17.765 7.424,17.614 6.833,17.274 6.200 C 16.918 5.539,16.558 5.151,15.888 4.709 C 15.668 4.564,15.442 4.384,15.384 4.309 C 15.281 4.174,15.280 4.165,15.280 3.470 L 15.280 2.768 15.610 2.785 C 16.385 2.826,17.128 2.889,17.520 2.946 C 19.758 3.275,20.734 4.256,21.055 6.500 C 21.195 7.474,21.210 7.885,21.229 11.380 C 21.251 15.485,21.215 16.565,21.019 17.740 C 20.687 19.721,19.731 20.677,17.740 21.020 C 17.320 21.092,16.270 21.191,15.710 21.210 L 15.320 21.224 15.320 20.532 L 15.320 19.840 15.479 19.681 C 15.567 19.593,15.796 19.420,15.989 19.295 C 16.876 18.723,17.509 17.777,17.740 16.680 C 17.813 16.334,17.823 15.668,17.761 15.324 C 17.533 14.066,16.483 13.007,15.218 12.757 C 14.852 12.685,14.131 12.694,13.787 12.776 C 13.248 12.903,12.732 13.192,12.290 13.614 L 12.040 13.853 11.790 13.614 C 11.348 13.192,10.847 12.911,10.299 12.778 C 9.925 12.687,9.118 12.686,8.747 12.775 C 7.599 13.050,6.661 13.979,6.358 15.140 C 6.261 15.513,6.241 16.234,6.318 16.620 C 6.531 17.697,7.152 18.660,8.011 19.244 C 8.442 19.536,8.641 19.700,8.709 19.816 C 8.741 19.872,8.758 20.119,8.759 20.567 L 8.760 21.234 8.370 21.215 C 5.904 21.100,4.793 20.790,3.999 19.997 C 3.340 19.337,3.025 18.449,2.852 16.760 C 2.788 16.135,2.780 15.620,2.781 11.980 C 2.782 7.664,2.793 7.353,2.984 6.240 C 3.231 4.800,3.803 3.921,4.820 3.421 C 5.542 3.066,6.465 2.887,8.002 2.803 C 8.320 2.786,8.611 2.769,8.650 2.766 C 8.714 2.760,8.720 2.818,8.720 3.466 M13.761 3.390 C 13.762 4.410,13.839 4.731,14.198 5.217 C 14.382 5.467,14.624 5.671,15.105 5.982 C 15.493 6.233,15.777 6.556,16.002 7.004 C 16.516 8.027,16.303 9.042,15.460 9.580 C 15.168 9.767,14.890 9.846,14.526 9.846 C 14.147 9.846,13.877 9.772,13.593 9.589 C 13.106 9.276,12.826 8.817,12.758 8.219 C 12.691 7.628,12.454 7.360,12.000 7.360 C 11.546 7.360,11.309 7.628,11.242 8.219 C 11.174 8.817,10.894 9.276,10.407 9.589 C 10.123 9.772,9.853 9.846,9.474 9.846 C 9.110 9.846,8.832 9.767,8.540 9.580 C 7.582 8.968,7.447 7.712,8.222 6.620 C 8.438 6.315,8.591 6.173,8.940 5.950 C 9.368 5.678,9.621 5.462,9.802 5.217 C 10.161 4.731,10.238 4.410,10.239 3.390 L 10.240 2.760 12.000 2.760 L 13.760 2.760 13.761 3.390 M10.252 14.350 C 10.428 14.433,10.607 14.560,10.757 14.711 C 11.104 15.058,11.248 15.390,11.298 15.958 C 11.338 16.416,11.610 16.680,12.043 16.680 C 12.493 16.680,12.731 16.410,12.797 15.823 C 12.873 15.160,13.219 14.653,13.792 14.370 C 14.090 14.223,14.104 14.220,14.558 14.220 C 14.993 14.220,15.035 14.227,15.280 14.344 C 16.242 14.805,16.574 15.828,16.110 16.900 C 15.888 17.413,15.591 17.774,15.168 18.045 C 14.331 18.580,13.948 19.065,13.842 19.720 C 13.819 19.863,13.800 20.264,13.800 20.610 L 13.800 21.240 12.045 21.240 L 10.290 21.240 10.268 20.450 C 10.244 19.555,10.208 19.389,9.958 19.001 C 9.745 18.672,9.500 18.442,9.017 18.118 C 8.230 17.590,7.816 16.917,7.770 16.091 C 7.737 15.506,7.883 15.111,8.276 14.717 C 8.669 14.324,9.000 14.196,9.580 14.212 C 9.934 14.221,10.011 14.237,10.252 14.350 " stroke="none" fill-rule="evenodd" fill="black"></path></svg>