<svg width="24" height="24" viewBox="0 0 24 24" fill="none" xmlns="http://www.w3.org/2000/svg"><path d="M13.356 1.282 C 12.769 1.370,12.297 1.685,11.952 2.217 C 11.733 2.555,11.646 2.880,11.600 3.522 C 11.540 4.357,11.377 5.008,11.079 5.602 C 10.867 6.025,10.843 6.038,10.662 5.837 C 10.486 5.642,10.395 5.440,10.308 5.051 C 10.162 4.405,9.815 4.001,9.246 3.819 C 8.954 3.726,8.416 3.751,8.148 3.871 C 7.633 4.102,6.768 4.874,6.316 5.507 C 5.504 6.645,5.180 7.860,5.281 9.398 C 5.398 11.193,5.916 12.531,6.947 13.706 C 7.696 14.560,8.940 15.268,10.224 15.574 C 12.445 16.102,15.230 15.294,16.882 13.642 C 18.232 12.291,18.859 10.462,18.717 8.290 C 18.609 6.640,18.048 5.182,16.969 3.750 C 16.431 3.036,15.454 2.089,14.782 1.629 C 14.361 1.341,13.827 1.211,13.356 1.282 M13.944 2.865 C 14.431 3.193,15.299 4.039,15.767 4.640 C 16.434 5.498,16.903 6.497,17.126 7.529 C 17.231 8.016,17.270 9.122,17.201 9.667 C 17.102 10.456,16.847 11.199,16.458 11.828 C 16.055 12.480,15.171 13.235,14.384 13.602 C 12.907 14.289,11.383 14.424,10.080 13.981 C 8.334 13.388,7.253 12.121,6.870 10.221 C 6.795 9.846,6.781 9.652,6.782 8.920 C 6.783 7.929,6.824 7.717,7.139 7.052 C 7.357 6.590,7.596 6.249,7.956 5.885 C 8.240 5.597,8.694 5.240,8.778 5.240 C 8.806 5.240,8.855 5.372,8.895 5.560 C 9.004 6.068,9.272 6.560,9.636 6.921 C 10.041 7.322,10.300 7.449,10.760 7.471 C 11.145 7.490,11.422 7.411,11.715 7.199 C 12.385 6.714,12.979 5.197,13.078 3.714 C 13.117 3.146,13.177 2.968,13.374 2.842 C 13.550 2.729,13.756 2.738,13.944 2.865 M14.785 9.288 C 14.583 9.343,14.354 9.574,14.281 9.798 C 14.194 10.062,13.963 10.393,13.701 10.632 C 13.300 10.998,12.844 11.184,12.204 11.241 C 11.718 11.284,11.550 11.356,11.383 11.592 C 11.286 11.730,11.267 11.797,11.267 11.993 C 11.267 12.362,11.484 12.643,11.833 12.724 C 12.031 12.770,12.748 12.700,13.141 12.597 C 14.276 12.300,15.297 11.394,15.649 10.372 C 15.757 10.061,15.763 10.014,15.721 9.845 C 15.612 9.412,15.209 9.172,14.785 9.288 M3.785 14.288 C 3.424 14.387,3.190 14.807,3.286 15.186 C 3.378 15.552,3.379 15.553,6.182 16.777 C 8.990 18.002,8.999 18.005,9.338 17.841 C 9.796 17.619,9.877 16.960,9.487 16.632 C 9.344 16.512,4.274 14.292,4.080 14.265 C 4.003 14.255,3.870 14.265,3.785 14.288 M19.858 14.266 C 19.812 14.276,16.140 15.873,11.698 17.815 C 5.026 20.732,3.595 21.371,3.476 21.487 C 3.187 21.770,3.189 22.229,3.480 22.520 C 3.644 22.684,3.914 22.775,4.116 22.735 C 4.183 22.721,7.871 21.122,12.309 19.182 C 18.975 16.267,20.405 15.629,20.524 15.513 C 20.787 15.256,20.811 14.842,20.579 14.536 C 20.434 14.344,20.091 14.216,19.858 14.266 M14.163 18.947 C 14.000 19.033,13.923 19.105,13.853 19.237 C 13.692 19.541,13.755 19.914,14.006 20.147 C 14.100 20.234,19.457 22.601,19.800 22.707 C 20.339 22.874,20.854 22.370,20.714 21.814 C 20.622 21.445,20.644 21.458,17.539 20.104 C 15.903 19.391,14.635 18.861,14.542 18.851 C 14.418 18.837,14.329 18.860,14.163 18.947 " stroke="none" fill-rule="evenodd" fill="black"></path></svg>