<svg width="24" height="24" viewBox="0 0 24 24" fill="none" xmlns="http://www.w3.org/2000/svg"><path d="M11.310 1.283 C 6.653 1.563,2.667 4.904,1.564 9.450 C 1.162 11.110,1.162 12.890,1.564 14.550 C 2.415 18.060,5.032 20.948,8.442 22.139 C 10.725 22.937,13.275 22.937,15.558 22.139 C 18.633 21.065,21.092 18.592,22.157 15.503 C 22.819 13.585,22.918 11.437,22.436 9.450 C 21.419 5.255,17.924 2.044,13.657 1.383 C 13.303 1.328,12.042 1.231,11.880 1.246 C 11.847 1.249,11.590 1.266,11.310 1.283 M12.992 2.802 C 14.750 2.993,16.561 3.756,17.878 4.859 C 18.914 5.728,19.725 6.758,20.304 7.940 C 20.940 9.239,21.240 10.538,21.240 12.000 C 21.240 13.462,20.940 14.764,20.304 16.060 C 18.921 18.877,16.278 20.768,13.146 21.178 C 12.214 21.301,10.974 21.244,10.002 21.034 C 8.667 20.747,7.178 20.022,6.140 19.153 C 4.272 17.590,3.134 15.531,2.822 13.146 C 2.699 12.214,2.756 10.974,2.966 10.002 C 3.242 8.718,3.959 7.220,4.776 6.220 C 5.079 5.849,5.746 5.174,6.122 4.859 C 7.414 3.777,9.240 2.998,10.940 2.807 C 11.397 2.755,12.535 2.753,12.992 2.802 M10.620 6.282 C 10.224 6.297,9.783 6.331,9.640 6.357 C 8.334 6.592,7.617 7.326,7.378 8.671 C 7.292 9.158,7.243 10.662,7.243 12.800 C 7.243 14.851,7.288 16.020,7.379 16.393 C 7.507 16.918,7.822 17.347,8.232 17.556 C 8.799 17.845,9.334 17.785,9.955 17.363 C 10.168 17.218,11.347 16.133,11.778 15.685 C 11.865 15.594,11.965 15.520,12.000 15.520 C 12.035 15.520,12.135 15.594,12.222 15.685 C 12.653 16.133,13.832 17.218,14.045 17.363 C 14.539 17.699,14.923 17.798,15.348 17.700 C 16.013 17.545,16.449 17.098,16.622 16.393 C 16.711 16.026,16.756 14.835,16.757 12.800 C 16.757 10.683,16.707 9.151,16.622 8.671 C 16.387 7.345,15.702 6.626,14.440 6.375 C 13.881 6.264,12.130 6.221,10.620 6.282 M14.260 7.856 C 14.908 8.040,15.108 8.356,15.199 9.340 C 15.249 9.881,15.252 15.468,15.202 15.855 C 15.182 16.007,15.139 16.158,15.105 16.192 C 15.050 16.247,15.024 16.239,14.853 16.105 C 14.748 16.023,14.280 15.590,13.812 15.141 C 12.751 14.124,12.644 14.060,12.000 14.060 C 11.356 14.060,11.249 14.124,10.188 15.141 C 9.720 15.590,9.252 16.023,9.147 16.105 C 8.975 16.239,8.950 16.247,8.895 16.192 C 8.858 16.155,8.817 16.000,8.794 15.809 C 8.738 15.349,8.775 9.251,8.835 8.950 C 8.955 8.350,9.149 8.070,9.546 7.921 C 9.910 7.785,10.258 7.766,12.200 7.777 C 13.775 7.786,14.052 7.797,14.260 7.856 " stroke="none" fill-rule="evenodd" fill="black"></path></svg>