<svg width="24" height="24" viewBox="0 0 24 24" fill="none" xmlns="http://www.w3.org/2000/svg"><path d="M9.020 1.279 C 6.976 1.330,5.856 1.466,4.900 1.779 C 3.060 2.382,1.958 3.688,1.563 5.734 C 1.311 7.038,1.267 7.971,1.266 12.000 C 1.265 16.020,1.309 16.950,1.563 18.266 C 1.985 20.454,3.219 21.800,5.294 22.337 C 6.243 22.583,7.141 22.668,9.360 22.724 C 11.227 22.772,15.084 22.746,16.200 22.678 C 18.847 22.518,20.292 21.989,21.281 20.820 C 22.165 19.775,22.529 18.556,22.686 16.119 C 22.753 15.067,22.752 8.962,22.684 7.881 C 22.532 5.454,22.165 4.225,21.281 3.180 C 20.290 2.008,18.838 1.479,16.180 1.321 C 15.262 1.267,10.607 1.239,9.020 1.279 M15.900 2.801 C 18.375 2.935,19.502 3.316,20.236 4.266 C 20.693 4.858,20.896 5.452,21.102 6.798 L 21.130 6.976 20.932 6.798 C 20.001 5.962,19.095 5.550,17.804 5.377 C 17.146 5.289,15.141 5.243,12.000 5.243 C 8.859 5.243,6.854 5.289,6.196 5.377 C 4.905 5.550,3.999 5.962,3.068 6.798 L 2.870 6.976 2.898 6.798 C 3.108 5.432,3.302 4.864,3.764 4.266 C 4.485 3.333,5.649 2.931,8.002 2.803 C 8.853 2.757,15.061 2.755,15.900 2.801 M16.239 9.390 C 16.239 10.837,16.222 12.090,16.202 12.174 C 16.112 12.564,15.629 12.808,15.270 12.648 C 15.176 12.606,14.722 12.290,14.260 11.947 C 13.092 11.078,12.797 10.947,12.000 10.947 C 11.203 10.947,10.908 11.078,9.740 11.947 C 9.278 12.290,8.824 12.606,8.730 12.648 C 8.371 12.808,7.888 12.564,7.798 12.174 C 7.778 12.090,7.761 10.837,7.761 9.390 L 7.760 6.760 12.000 6.760 L 16.240 6.760 16.239 9.390 M6.251 9.550 C 6.267 11.769,6.280 12.265,6.332 12.485 C 6.548 13.410,7.371 14.114,8.323 14.187 C 9.016 14.241,9.379 14.082,10.530 13.221 C 11.455 12.529,11.501 12.502,11.792 12.449 C 12.022 12.407,12.344 12.449,12.531 12.546 C 12.594 12.578,13.017 12.882,13.470 13.221 C 14.621 14.082,14.984 14.241,15.677 14.187 C 16.629 14.114,17.453 13.410,17.668 12.485 C 17.719 12.265,17.733 11.762,17.749 9.549 L 17.768 6.878 17.914 6.902 C 19.384 7.148,20.661 8.312,21.019 9.733 C 21.201 10.456,21.220 10.812,21.220 13.460 C 21.220 15.969,21.196 16.548,21.054 17.520 C 20.754 19.569,19.894 20.561,18.075 20.955 C 16.991 21.190,15.924 21.240,12.000 21.240 C 8.076 21.240,7.009 21.190,5.925 20.955 C 4.229 20.587,3.374 19.702,3.021 17.947 C 2.816 16.923,2.782 16.292,2.781 13.460 C 2.780 10.670,2.797 10.384,3.003 9.641 C 3.345 8.405,4.474 7.304,5.733 6.979 C 5.935 6.927,6.130 6.883,6.166 6.882 C 6.227 6.880,6.234 7.102,6.251 9.550 " stroke="none" fill-rule="evenodd" fill="black"></path></svg>