<svg width="24" height="24" viewBox="0 0 24 24" fill="none" xmlns="http://www.w3.org/2000/svg"><path d="M9.020 1.279 C 6.976 1.330,5.856 1.466,4.900 1.779 C 3.060 2.382,1.958 3.688,1.563 5.734 C 1.311 7.042,1.267 7.973,1.267 12.000 C 1.267 16.027,1.311 16.958,1.563 18.266 C 1.985 20.454,3.219 21.800,5.294 22.337 C 6.243 22.583,7.141 22.668,9.360 22.724 C 11.227 22.772,15.084 22.746,16.200 22.678 C 18.847 22.518,20.292 21.989,21.281 20.820 C 22.164 19.777,22.531 18.548,22.686 16.120 C 22.750 15.118,22.750 8.882,22.686 7.880 C 22.531 5.452,22.164 4.223,21.281 3.180 C 20.290 2.008,18.838 1.479,16.180 1.321 C 15.262 1.267,10.607 1.239,9.020 1.279 M15.634 2.786 L 16.240 2.812 16.239 7.916 C 16.239 10.778,16.222 13.088,16.202 13.174 C 16.112 13.564,15.629 13.808,15.270 13.648 C 15.176 13.606,14.722 13.290,14.260 12.947 C 13.092 12.078,12.797 11.947,12.000 11.947 C 11.203 11.947,10.908 12.078,9.740 12.947 C 9.278 13.290,8.824 13.606,8.730 13.648 C 8.371 13.808,7.888 13.564,7.798 13.174 C 7.778 13.088,7.761 10.776,7.761 7.911 L 7.760 2.803 8.170 2.790 C 8.996 2.764,15.046 2.761,15.634 2.786 M6.251 8.110 C 6.264 12.616,6.274 13.251,6.330 13.485 C 6.554 14.416,7.372 15.114,8.323 15.187 C 9.016 15.241,9.379 15.082,10.530 14.221 C 10.983 13.882,11.406 13.578,11.469 13.546 C 11.754 13.398,12.246 13.398,12.531 13.546 C 12.594 13.578,13.017 13.882,13.470 14.221 C 13.923 14.560,14.421 14.900,14.577 14.976 C 15.823 15.585,17.341 14.853,17.670 13.485 C 17.726 13.252,17.736 12.610,17.749 8.106 L 17.765 2.992 17.943 3.018 C 18.848 3.154,19.761 3.651,20.236 4.266 C 20.850 5.061,21.094 6.059,21.203 8.219 C 21.260 9.350,21.230 15.936,21.164 16.600 C 20.980 18.459,20.681 19.323,19.982 20.013 C 19.218 20.769,18.155 21.080,15.940 21.199 C 14.954 21.252,9.046 21.252,8.060 21.199 C 5.843 21.080,4.782 20.769,4.016 20.011 C 3.342 19.345,3.026 18.464,2.852 16.760 C 2.788 16.135,2.780 15.620,2.781 11.980 C 2.782 7.664,2.793 7.353,2.984 6.240 C 3.251 4.685,3.928 3.745,5.116 3.281 C 5.373 3.181,6.023 3.005,6.148 3.002 L 6.235 3.000 6.251 8.110 M6.826 17.284 C 6.476 17.366,6.267 17.636,6.267 18.003 C 6.267 18.281,6.387 18.496,6.627 18.645 L 6.780 18.740 12.000 18.740 L 17.220 18.740 17.369 18.647 C 17.943 18.290,17.812 17.424,17.162 17.284 C 16.906 17.229,7.060 17.229,6.826 17.284 " stroke="none" fill-rule="evenodd" fill="black"></path></svg>