<svg width="24" height="24" viewBox="0 0 24 24" fill="none" xmlns="http://www.w3.org/2000/svg"><path d="M9.260 1.282 C 7.016 1.337,5.856 1.534,4.895 2.022 C 3.333 2.815,2.591 4.160,2.359 6.620 C 2.248 7.804,2.197 15.072,2.279 18.120 C 2.329 19.961,2.436 20.679,2.757 21.314 C 3.187 22.166,4.156 22.738,5.160 22.730 C 6.192 22.722,6.915 22.256,9.765 19.759 C 11.359 18.362,11.454 18.300,12.000 18.300 C 12.534 18.300,12.665 18.384,14.100 19.640 C 16.677 21.897,17.317 22.368,18.180 22.639 C 19.295 22.988,20.706 22.379,21.243 21.314 C 21.563 20.681,21.670 19.955,21.720 18.080 C 21.802 15.062,21.752 7.789,21.641 6.620 C 21.467 4.783,21.036 3.644,20.196 2.804 C 19.355 1.964,18.226 1.531,16.420 1.359 C 15.363 1.258,11.792 1.220,9.260 1.282 M16.240 2.834 C 17.642 2.986,18.405 3.227,18.954 3.692 C 19.672 4.302,19.982 5.091,20.165 6.780 C 20.199 7.091,20.218 8.839,20.229 12.760 C 20.248 19.149,20.232 19.700,19.998 20.421 C 19.892 20.748,19.731 20.930,19.409 21.088 C 19.184 21.199,19.098 21.220,18.861 21.220 C 18.613 21.220,18.543 21.201,18.269 21.063 C 17.752 20.800,17.264 20.413,15.305 18.706 C 13.962 17.535,13.655 17.296,13.220 17.081 C 12.810 16.878,12.475 16.801,12.000 16.801 C 11.529 16.801,11.193 16.878,10.780 17.080 C 10.354 17.288,10.038 17.532,8.813 18.604 C 6.845 20.324,6.239 20.804,5.669 21.094 C 5.455 21.202,5.378 21.220,5.120 21.219 C 4.855 21.219,4.790 21.203,4.567 21.082 C 4.257 20.915,4.105 20.737,4.002 20.421 C 3.890 20.077,3.844 19.776,3.800 19.097 C 3.749 18.299,3.749 8.299,3.801 7.420 C 3.924 5.327,4.242 4.375,5.046 3.692 C 5.703 3.135,6.607 2.905,8.600 2.785 C 9.189 2.749,15.854 2.793,16.240 2.834 M8.807 5.287 C 8.573 5.339,8.348 5.567,8.286 5.813 C 8.202 6.146,8.333 6.462,8.631 6.647 L 8.780 6.740 12.000 6.740 L 15.220 6.740 15.369 6.647 C 15.943 6.290,15.812 5.424,15.162 5.284 C 14.899 5.228,9.061 5.230,8.807 5.287 " stroke="none" fill-rule="evenodd" fill="black"></path></svg>