<svg width="24" height="24" viewBox="0 0 24 24" fill="none" xmlns="http://www.w3.org/2000/svg"><path d="M8.120 1.280 C 7.559 1.298,6.938 1.333,6.740 1.358 C 4.794 1.603,3.801 2.469,3.442 4.231 C 3.270 5.073,3.260 5.495,3.260 12.000 C 3.260 18.466,3.270 18.897,3.436 19.749 C 3.750 21.356,4.644 22.250,6.251 22.564 C 7.052 22.720,7.642 22.738,12.000 22.738 C 16.358 22.738,16.948 22.720,17.749 22.564 C 19.352 22.251,20.232 21.376,20.557 19.772 C 20.729 18.925,20.739 18.468,20.739 12.000 C 20.739 5.532,20.729 5.075,20.557 4.228 C 20.177 2.352,19.093 1.504,16.840 1.320 C 16.170 1.265,9.542 1.235,8.120 1.280 M17.240 2.855 C 18.503 3.073,18.926 3.496,19.145 4.760 C 19.204 5.096,19.213 5.730,19.228 10.188 L 19.245 15.236 12.852 15.252 C 8.186 15.264,6.395 15.281,6.220 15.315 C 5.745 15.408,5.254 15.603,4.888 15.844 L 4.756 15.931 4.773 10.535 C 4.791 5.087,4.795 4.914,4.940 4.344 C 5.208 3.294,5.805 2.910,7.340 2.801 C 7.582 2.783,9.823 2.774,12.320 2.779 C 16.318 2.788,16.905 2.797,17.240 2.855 M7.826 6.284 C 7.476 6.366,7.267 6.636,7.267 7.003 C 7.267 7.281,7.387 7.496,7.627 7.645 L 7.780 7.740 12.000 7.740 L 16.220 7.740 16.369 7.647 C 16.943 7.290,16.812 6.424,16.162 6.284 C 15.907 6.229,8.059 6.229,7.826 6.284 M7.720 9.805 C 7.458 9.909,7.269 10.200,7.269 10.500 C 7.269 10.807,7.460 11.095,7.733 11.197 C 7.808 11.226,8.722 11.240,10.500 11.240 C 12.278 11.240,13.192 11.226,13.267 11.197 C 13.540 11.095,13.731 10.807,13.731 10.500 C 13.731 10.193,13.540 9.905,13.267 9.803 C 13.118 9.746,7.862 9.748,7.720 9.805 M8.247 18.393 L 8.260 20.026 8.381 20.262 C 8.473 20.442,8.547 20.526,8.698 20.619 C 8.872 20.726,8.928 20.740,9.197 20.738 C 9.494 20.737,9.516 20.729,10.250 20.382 L 11.000 20.027 11.750 20.382 C 12.484 20.729,12.506 20.737,12.803 20.738 C 13.072 20.740,13.128 20.726,13.302 20.619 C 13.453 20.526,13.527 20.442,13.619 20.262 L 13.740 20.026 13.753 18.393 L 13.766 16.760 16.509 16.760 L 19.253 16.760 19.226 17.790 C 19.190 19.182,19.126 19.623,18.883 20.145 C 18.606 20.740,18.094 21.028,17.060 21.170 C 16.543 21.242,7.457 21.242,6.940 21.170 C 6.236 21.073,5.748 20.894,5.445 20.620 C 5.059 20.271,4.800 19.408,4.800 18.470 C 4.800 18.217,4.819 18.121,4.897 17.969 C 5.112 17.552,5.499 17.185,5.950 16.970 C 6.318 16.794,6.484 16.771,7.447 16.765 L 8.234 16.760 8.247 18.393 M12.240 17.856 L 12.240 18.952 11.750 18.726 C 11.314 18.525,11.232 18.500,11.000 18.500 C 10.768 18.500,10.686 18.525,10.250 18.726 L 9.760 18.952 9.760 17.856 L 9.760 16.760 11.000 16.760 L 12.240 16.760 12.240 17.856 " stroke="none" fill-rule="evenodd" fill="black"></path></svg>