<svg width="24" height="24" viewBox="0 0 24 24" fill="none" xmlns="http://www.w3.org/2000/svg"><path d="M8.120 1.280 C 7.559 1.298,6.938 1.333,6.740 1.358 C 4.794 1.603,3.801 2.469,3.442 4.231 C 3.270 5.073,3.260 5.495,3.260 12.000 C 3.260 18.466,3.270 18.897,3.436 19.749 C 3.750 21.356,4.644 22.250,6.251 22.564 C 7.052 22.720,7.642 22.738,12.000 22.738 C 16.358 22.738,16.948 22.720,17.749 22.564 C 19.352 22.251,20.232 21.376,20.557 19.772 C 20.729 18.925,20.739 18.468,20.739 12.000 C 20.739 5.532,20.729 5.075,20.557 4.228 C 20.177 2.352,19.093 1.504,16.840 1.320 C 16.170 1.265,9.542 1.235,8.120 1.280 M17.240 2.855 C 18.503 3.073,18.926 3.496,19.145 4.760 C 19.204 5.096,19.213 5.730,19.228 10.190 L 19.245 15.240 13.502 15.240 L 7.760 15.240 7.760 8.997 L 7.760 2.755 12.310 2.772 C 16.295 2.787,16.907 2.797,17.240 2.855 M6.240 9.137 L 6.240 15.314 6.110 15.340 C 5.728 15.416,5.219 15.626,4.888 15.844 L 4.756 15.931 4.773 10.535 C 4.785 6.897,4.805 5.050,4.834 4.864 C 4.970 4.014,5.229 3.481,5.628 3.235 C 5.740 3.166,6.179 2.966,6.230 2.961 C 6.236 2.960,6.240 5.740,6.240 9.137 M19.226 17.790 C 19.190 19.182,19.126 19.623,18.883 20.145 C 18.606 20.740,18.094 21.028,17.060 21.170 C 16.543 21.242,7.457 21.242,6.940 21.170 C 6.236 21.073,5.748 20.894,5.445 20.620 C 5.059 20.271,4.800 19.408,4.800 18.470 C 4.800 18.113,4.878 17.919,5.154 17.589 C 5.495 17.182,6.019 16.864,6.450 16.801 C 6.565 16.784,9.493 16.768,12.956 16.765 L 19.253 16.760 19.226 17.790 " stroke="none" fill-rule="evenodd" fill="black"></path></svg>