<svg width="24" height="24" viewBox="0 0 24 24" fill="none" xmlns="http://www.w3.org/2000/svg"><path d="M8.120 1.280 C 7.559 1.298,6.938 1.333,6.740 1.358 C 4.794 1.603,3.801 2.469,3.442 4.231 C 3.270 5.073,3.260 5.495,3.260 12.000 C 3.260 18.466,3.270 18.897,3.436 19.749 C 3.750 21.356,4.644 22.250,6.251 22.564 C 7.052 22.720,7.642 22.738,12.000 22.738 C 16.358 22.738,16.948 22.720,17.749 22.564 C 19.352 22.251,20.232 21.376,20.557 19.772 C 20.729 18.925,20.739 18.468,20.739 12.000 C 20.739 5.532,20.729 5.075,20.557 4.228 C 20.177 2.352,19.093 1.504,16.840 1.320 C 16.170 1.265,9.542 1.235,8.120 1.280 M17.240 2.855 C 18.503 3.073,18.926 3.496,19.145 4.760 C 19.204 5.096,19.213 5.730,19.228 10.188 L 19.245 15.236 12.852 15.252 C 8.186 15.264,6.395 15.281,6.220 15.315 C 5.745 15.408,5.254 15.603,4.888 15.844 L 4.756 15.931 4.773 10.535 C 4.791 5.087,4.795 4.914,4.940 4.344 C 5.208 3.294,5.805 2.910,7.340 2.801 C 7.582 2.783,9.823 2.774,12.320 2.779 C 16.318 2.788,16.905 2.797,17.240 2.855 M7.826 6.284 C 7.476 6.366,7.267 6.636,7.267 7.003 C 7.267 7.281,7.387 7.496,7.627 7.645 L 7.780 7.740 12.000 7.740 L 16.220 7.740 16.369 7.647 C 16.943 7.290,16.812 6.424,16.162 6.284 C 15.907 6.229,8.059 6.229,7.826 6.284 M7.720 9.805 C 7.458 9.909,7.269 10.200,7.269 10.500 C 7.269 10.807,7.460 11.095,7.733 11.197 C 7.808 11.226,8.722 11.240,10.500 11.240 C 12.278 11.240,13.192 11.226,13.267 11.197 C 13.540 11.095,13.731 10.807,13.731 10.500 C 13.731 10.193,13.540 9.905,13.267 9.803 C 13.118 9.746,7.862 9.748,7.720 9.805 M19.226 17.790 C 19.190 19.182,19.126 19.623,18.883 20.145 C 18.606 20.740,18.094 21.028,17.060 21.170 C 16.543 21.242,7.457 21.242,6.940 21.170 C 6.236 21.073,5.748 20.894,5.445 20.620 C 5.059 20.271,4.800 19.408,4.800 18.470 C 4.800 18.113,4.878 17.919,5.154 17.589 C 5.495 17.182,6.019 16.864,6.450 16.801 C 6.565 16.784,9.493 16.768,12.956 16.765 L 19.253 16.760 19.226 17.790 " stroke="none" fill-rule="evenodd" fill="black"></path></svg>