<svg width="24" height="24" viewBox="0 0 24 24" fill="none" xmlns="http://www.w3.org/2000/svg"><path d="M10.520 1.282 C 9.418 1.327,8.893 1.457,8.364 1.817 C 7.610 2.329,7.283 3.200,7.280 4.700 C 7.279 4.964,7.266 5.201,7.249 5.226 C 7.232 5.252,7.037 5.282,6.780 5.298 C 4.595 5.430,3.489 5.796,2.635 6.669 C 1.912 7.407,1.564 8.268,1.377 9.780 C 1.273 10.617,1.219 13.798,1.273 15.890 C 1.321 17.727,1.361 18.284,1.497 19.011 C 1.809 20.677,2.744 21.806,4.221 22.302 C 5.354 22.682,6.645 22.758,12.000 22.758 C 17.355 22.758,18.646 22.682,19.779 22.302 C 21.016 21.886,21.886 21.016,22.302 19.779 C 22.588 18.925,22.670 18.167,22.728 15.850 C 22.781 13.693,22.727 10.639,22.621 9.767 C 22.436 8.262,22.060 7.348,21.331 6.635 C 20.459 5.781,19.349 5.419,17.230 5.299 C 16.791 5.274,16.758 5.266,16.742 5.186 C 16.733 5.139,16.716 4.803,16.705 4.440 C 16.683 3.712,16.645 3.451,16.495 2.992 C 16.205 2.102,15.519 1.553,14.460 1.360 C 13.912 1.261,11.967 1.222,10.520 1.282 M14.260 2.835 C 14.370 2.860,14.559 2.930,14.679 2.991 C 14.863 3.084,14.916 3.137,15.009 3.321 C 15.159 3.617,15.195 3.827,15.226 4.590 L 15.252 5.240 12.006 5.240 L 8.760 5.240 8.760 4.838 C 8.760 3.961,8.887 3.359,9.123 3.123 C 9.276 2.971,9.601 2.851,9.989 2.804 C 10.423 2.752,14.005 2.778,14.260 2.835 M17.340 6.801 C 18.245 6.860,18.701 6.931,19.200 7.089 C 20.137 7.386,20.657 7.927,20.939 8.901 C 21.190 9.768,21.240 10.610,21.240 14.000 C 21.240 17.383,21.190 18.233,20.941 19.093 C 20.523 20.534,19.647 21.046,17.341 21.198 C 16.484 21.254,7.516 21.254,6.659 21.198 C 3.889 21.016,3.093 20.317,2.833 17.840 C 2.758 17.128,2.758 10.872,2.833 10.160 C 3.051 8.077,3.679 7.278,5.360 6.944 C 5.628 6.891,6.303 6.820,6.860 6.786 C 7.412 6.753,16.813 6.766,17.340 6.801 M5.720 8.805 C 5.458 8.909,5.269 9.200,5.269 9.500 C 5.269 9.807,5.460 10.095,5.733 10.197 C 5.891 10.257,18.109 10.257,18.267 10.197 C 18.540 10.095,18.731 9.807,18.731 9.500 C 18.731 9.193,18.540 8.905,18.267 8.803 C 18.116 8.745,5.864 8.748,5.720 8.805 M7.720 12.265 C 6.360 12.418,5.325 13.090,4.719 14.212 C 4.400 14.803,4.271 15.320,4.271 16.000 C 4.271 16.682,4.400 17.197,4.721 17.792 C 5.078 18.453,5.549 18.923,6.212 19.281 C 6.803 19.600,7.320 19.729,8.000 19.729 C 8.680 19.729,9.197 19.600,9.788 19.281 C 10.451 18.923,10.922 18.453,11.279 17.792 C 11.600 17.197,11.729 16.682,11.729 16.000 C 11.729 15.320,11.600 14.803,11.281 14.212 C 10.847 13.409,10.202 12.846,9.317 12.499 C 8.888 12.331,8.128 12.220,7.720 12.265 M15.740 12.266 C 14.415 12.385,13.327 13.085,12.719 14.212 C 12.400 14.803,12.271 15.320,12.271 16.000 C 12.271 16.682,12.400 17.197,12.721 17.792 C 13.078 18.453,13.549 18.923,14.212 19.281 C 14.803 19.600,15.320 19.729,16.000 19.729 C 16.683 19.729,17.197 19.600,17.795 19.277 C 18.741 18.767,19.439 17.829,19.662 16.770 C 19.740 16.401,19.749 15.686,19.681 15.320 C 19.545 14.586,19.115 13.787,18.594 13.297 C 18.071 12.806,17.347 12.435,16.700 12.327 C 16.398 12.276,15.949 12.248,15.740 12.266 M16.575 13.820 C 17.024 13.937,17.027 13.908,16.510 14.434 C 16.012 14.939,15.935 15.075,15.970 15.385 C 16.022 15.840,16.502 16.143,16.945 15.999 C 17.054 15.964,17.239 15.812,17.566 15.490 C 17.997 15.067,18.036 15.038,18.076 15.112 C 18.169 15.286,18.240 15.672,18.240 16.000 C 18.240 16.644,18.041 17.121,17.581 17.581 C 17.121 18.041,16.644 18.240,16.000 18.240 C 15.356 18.240,14.879 18.041,14.419 17.581 C 13.959 17.121,13.760 16.644,13.760 16.000 C 13.760 15.356,13.959 14.879,14.419 14.419 C 14.719 14.118,15.050 13.919,15.404 13.823 C 15.690 13.746,16.285 13.745,16.575 13.820 M7.246 14.550 C 7.259 15.168,7.267 15.232,7.353 15.369 C 7.710 15.943,8.576 15.812,8.716 15.162 C 8.740 15.049,8.760 14.714,8.760 14.418 C 8.760 14.122,8.771 13.880,8.784 13.880 C 8.895 13.880,9.350 14.187,9.581 14.419 C 10.041 14.879,10.240 15.356,10.240 16.000 C 10.240 16.644,10.041 17.121,9.581 17.581 C 9.121 18.041,8.644 18.240,8.000 18.240 C 7.356 18.240,6.879 18.041,6.419 17.581 C 5.959 17.121,5.760 16.644,5.760 16.000 C 5.760 15.356,5.959 14.879,6.419 14.419 C 6.649 14.189,7.093 13.886,7.206 13.881 C 7.220 13.880,7.238 14.182,7.246 14.550 " stroke="none" fill-rule="evenodd" fill="black"></path></svg>