<svg width="24" height="24" viewBox="0 0 24 24" fill="none" xmlns="http://www.w3.org/2000/svg"><path d="M16.749 1.481 C 16.327 1.587,16.091 1.816,15.724 2.475 L 15.471 2.930 13.866 3.722 C 12.982 4.158,12.089 4.627,11.880 4.765 C 11.366 5.104,10.661 5.812,10.310 6.342 C 9.797 7.113,9.531 7.796,9.319 8.883 C 9.160 9.696,8.987 10.236,8.682 10.868 C 8.200 11.867,7.868 12.283,6.373 13.760 C 5.761 14.365,5.139 15.011,4.991 15.197 C 4.467 15.854,4.263 16.448,4.266 17.300 C 4.268 17.907,4.349 18.269,4.595 18.780 C 4.896 19.406,5.234 19.761,6.040 20.298 C 6.669 20.717,9.000 22.102,9.465 22.334 C 10.290 22.745,10.757 22.828,11.502 22.699 C 12.594 22.508,13.495 21.795,13.914 20.788 C 14.079 20.391,14.225 19.845,14.582 18.282 C 14.919 16.809,15.061 16.352,15.380 15.711 C 15.825 14.818,16.141 14.410,17.199 13.360 C 17.996 12.569,18.219 12.279,18.577 11.566 C 18.924 10.874,19.121 10.163,19.206 9.293 C 19.248 8.860,19.239 8.666,19.105 7.000 C 19.025 5.999,18.959 5.122,18.960 5.052 C 18.960 4.971,19.054 4.752,19.218 4.452 C 19.360 4.192,19.502 3.881,19.533 3.760 C 19.644 3.330,19.479 2.815,19.141 2.540 C 18.938 2.374,17.898 1.745,17.580 1.595 C 17.313 1.470,16.979 1.424,16.749 1.481 M17.948 3.644 C 17.922 3.686,17.886 3.720,17.867 3.720 C 17.825 3.720,17.040 3.239,17.040 3.213 C 17.040 3.203,17.058 3.161,17.080 3.119 C 17.118 3.050,17.153 3.063,17.558 3.306 C 17.956 3.544,17.991 3.575,17.948 3.644 M16.708 4.786 C 17.099 5.021,17.427 5.218,17.435 5.225 C 17.443 5.231,17.500 5.872,17.562 6.648 C 17.624 7.425,17.684 8.154,17.694 8.269 L 17.714 8.477 17.087 8.687 C 16.500 8.884,16.434 8.897,16.060 8.899 C 15.554 8.900,15.286 8.817,14.880 8.532 C 14.409 8.202,14.103 8.039,13.707 7.909 C 13.393 7.806,13.262 7.786,12.800 7.771 C 12.187 7.750,11.875 7.799,11.395 7.992 C 11.233 8.057,11.093 8.104,11.085 8.097 C 11.055 8.070,11.364 7.464,11.550 7.184 C 11.792 6.821,12.212 6.378,12.571 6.110 C 12.753 5.974,13.392 5.632,14.395 5.133 C 15.245 4.711,15.952 4.365,15.968 4.363 C 15.983 4.361,16.316 4.552,16.708 4.786 M13.334 9.360 C 13.463 9.409,13.706 9.546,13.874 9.666 C 14.237 9.923,14.805 10.208,15.140 10.300 C 15.275 10.337,15.610 10.376,15.905 10.388 C 16.458 10.411,16.776 10.367,17.271 10.196 C 17.393 10.154,17.501 10.128,17.511 10.137 C 17.542 10.168,17.393 10.572,17.229 10.900 C 16.957 11.445,16.773 11.676,16.001 12.440 C 15.590 12.847,15.155 13.306,15.034 13.460 C 14.352 14.329,13.832 15.308,13.523 16.304 C 13.456 16.522,13.257 17.326,13.083 18.090 C 12.624 20.095,12.526 20.384,12.193 20.717 C 11.706 21.205,11.054 21.365,10.460 21.141 C 10.125 21.015,9.928 20.905,8.400 19.986 C 6.408 18.789,6.205 18.639,5.985 18.199 C 5.805 17.838,5.745 17.540,5.772 17.140 C 5.817 16.476,5.949 16.292,7.429 14.827 C 8.033 14.229,8.672 13.569,8.849 13.360 C 9.524 12.562,10.116 11.511,10.443 10.530 L 10.608 10.037 11.286 9.697 C 11.660 9.510,12.058 9.331,12.172 9.299 C 12.469 9.215,13.032 9.245,13.334 9.360 " fill="#1C274C" stroke="none" fill-rule="evenodd"></path></svg>