<svg width="24" height="24" viewBox="0 0 24 24" fill="none" xmlns="http://www.w3.org/2000/svg"><path d="M11.310 1.283 C 6.653 1.563,2.667 4.904,1.564 9.450 C 1.162 11.110,1.162 12.890,1.564 14.550 C 2.415 18.060,5.032 20.948,8.442 22.139 C 10.725 22.937,13.275 22.937,15.558 22.139 C 18.633 21.065,21.092 18.592,22.157 15.503 C 22.819 13.585,22.918 11.437,22.436 9.450 C 21.419 5.255,17.924 2.044,13.657 1.383 C 13.303 1.328,12.042 1.231,11.880 1.246 C 11.847 1.249,11.590 1.266,11.310 1.283 M12.992 2.802 C 14.750 2.993,16.561 3.756,17.878 4.859 C 18.914 5.728,19.725 6.758,20.304 7.940 C 20.940 9.239,21.240 10.538,21.240 12.000 C 21.240 13.462,20.940 14.764,20.304 16.060 C 18.921 18.877,16.278 20.768,13.146 21.178 C 12.214 21.301,10.974 21.244,10.002 21.034 C 8.667 20.747,7.178 20.022,6.140 19.153 C 4.272 17.590,3.134 15.531,2.822 13.146 C 2.699 12.214,2.756 10.974,2.966 10.002 C 3.253 8.667,3.978 7.178,4.847 6.140 C 5.196 5.722,5.821 5.101,6.213 4.783 C 7.491 3.743,9.284 2.994,10.940 2.807 C 11.397 2.755,12.535 2.753,12.992 2.802 M11.540 4.798 C 10.325 5.060,9.551 6.260,9.804 7.488 C 9.929 8.098,10.426 8.729,11.000 9.007 C 11.652 9.323,12.344 9.326,12.984 9.015 C 13.501 8.763,13.905 8.315,14.116 7.761 C 14.247 7.414,14.263 6.665,14.145 6.320 C 13.916 5.646,13.415 5.128,12.761 4.888 C 12.473 4.782,11.832 4.735,11.540 4.798 M12.271 6.302 C 12.911 6.569,12.911 7.431,12.271 7.698 C 12.083 7.777,11.917 7.777,11.729 7.698 C 11.101 7.436,11.084 6.600,11.700 6.316 C 11.897 6.225,12.076 6.221,12.271 6.302 M7.679 7.278 C 6.801 7.395,6.025 8.101,5.820 8.970 C 5.596 9.922,5.976 10.850,6.817 11.405 C 7.173 11.639,7.496 11.728,8.000 11.728 C 8.699 11.728,9.176 11.518,9.651 11.003 C 10.441 10.147,10.441 8.853,9.651 7.997 C 9.130 7.432,8.431 7.177,7.679 7.278 M8.388 8.865 C 8.447 8.909,8.550 9.013,8.618 9.096 C 8.725 9.229,8.740 9.278,8.739 9.494 C 8.737 9.777,8.638 9.965,8.405 10.125 C 8.206 10.261,7.794 10.261,7.595 10.125 C 7.335 9.947,7.209 9.660,7.259 9.363 C 7.290 9.181,7.517 8.896,7.697 8.814 C 7.871 8.736,8.252 8.764,8.388 8.865 M11.540 9.798 C 10.325 10.060,9.551 11.260,9.804 12.488 C 9.929 13.098,10.426 13.729,11.000 14.007 C 11.652 14.323,12.344 14.326,12.984 14.015 C 13.501 13.763,13.905 13.315,14.116 12.761 C 14.247 12.414,14.263 11.665,14.145 11.320 C 13.916 10.646,13.415 10.128,12.761 9.888 C 12.473 9.782,11.832 9.735,11.540 9.798 M12.271 11.302 C 12.911 11.569,12.911 12.431,12.271 12.698 C 12.083 12.777,11.917 12.777,11.729 12.698 C 11.101 12.436,11.084 11.600,11.700 11.316 C 11.897 11.225,12.076 11.221,12.271 11.302 " stroke="none" fill-rule="evenodd" fill="black"></path></svg>