<svg width="24" height="24" viewBox="0 0 24 24" fill="none" xmlns="http://www.w3.org/2000/svg"><path d="M11.635 1.284 C 10.741 1.376,10.136 1.635,7.160 3.199 C 3.767 4.982,3.258 5.290,2.579 5.976 C 1.906 6.655,1.553 7.407,1.381 8.527 C 1.215 9.605,1.215 14.395,1.381 15.473 C 1.553 16.593,1.906 17.345,2.579 18.024 C 3.258 18.710,3.767 19.018,7.160 20.801 C 10.398 22.502,10.961 22.726,12.000 22.726 C 13.039 22.726,13.556 22.521,16.760 20.841 C 20.219 19.027,20.737 18.714,21.421 18.024 C 22.094 17.345,22.447 16.593,22.619 15.473 C 22.784 14.400,22.784 9.600,22.619 8.527 C 22.368 6.894,21.690 5.932,20.119 4.979 C 19.333 4.503,15.702 2.577,14.460 1.978 C 13.240 1.389,12.463 1.198,11.635 1.284 M12.840 2.904 C 13.259 3.043,14.412 3.611,16.480 4.699 C 19.034 6.043,19.680 6.418,20.160 6.834 L 20.339 6.990 16.170 9.075 L 12.000 11.160 7.830 9.075 L 3.661 6.990 3.840 6.834 C 4.320 6.418,4.972 6.039,7.500 4.710 C 10.090 3.349,10.832 2.991,11.391 2.835 C 11.787 2.725,12.385 2.753,12.840 2.904 M7.100 10.390 L 11.240 12.460 11.240 16.790 C 11.240 19.171,11.231 21.120,11.221 21.120 C 10.932 21.120,5.201 18.136,4.284 17.508 C 3.867 17.223,3.368 16.716,3.213 16.420 C 3.053 16.113,2.932 15.720,2.852 15.240 C 2.770 14.751,2.727 10.268,2.796 9.381 C 2.838 8.844,2.911 8.320,2.944 8.320 C 2.953 8.320,4.823 9.251,7.100 10.390 M21.116 8.570 C 21.221 9.158,21.247 10.047,21.229 12.428 C 21.210 15.017,21.194 15.263,20.998 15.900 C 20.859 16.353,20.689 16.632,20.341 16.980 C 19.800 17.520,19.341 17.796,16.500 19.290 C 14.240 20.478,12.935 21.120,12.779 21.120 C 12.769 21.120,12.760 19.171,12.760 16.790 L 12.760 12.460 16.890 10.392 C 19.162 9.255,21.032 8.323,21.046 8.322 C 21.060 8.321,21.092 8.433,21.116 8.570 " stroke="none" fill-rule="evenodd" fill="black"></path></svg>