<svg width="24" height="24" viewBox="0 0 24 24" fill="none" xmlns="http://www.w3.org/2000/svg"><path d="M9.020 1.278 C 7.735 1.310,7.475 1.326,6.649 1.423 C 4.782 1.643,3.569 2.183,2.728 3.171 C 1.841 4.212,1.475 5.425,1.314 7.860 C 1.249 8.841,1.249 15.159,1.314 16.140 C 1.431 17.905,1.649 18.970,2.068 19.825 C 2.756 21.228,3.977 22.098,5.734 22.437 C 7.035 22.688,7.988 22.733,12.000 22.733 C 16.012 22.733,16.965 22.688,18.266 22.437 C 20.599 21.987,21.987 20.599,22.437 18.266 C 22.688 16.968,22.732 16.015,22.733 12.000 C 22.733 7.987,22.688 7.034,22.437 5.734 C 22.098 3.977,21.228 2.756,19.825 2.068 C 18.972 1.650,17.855 1.421,16.180 1.321 C 15.276 1.267,10.579 1.239,9.020 1.278 M16.600 2.836 C 18.439 3.019,19.320 3.320,20.000 4.000 C 20.680 4.680,20.982 5.564,21.164 7.400 C 21.192 7.686,21.217 9.195,21.229 11.380 C 21.251 15.485,21.215 16.565,21.019 17.740 C 20.687 19.721,19.731 20.677,17.740 21.020 C 16.654 21.207,16.320 21.218,12.040 21.219 C 7.880 21.220,7.593 21.212,6.500 21.055 C 4.391 20.754,3.409 19.877,3.021 17.947 C 2.796 16.825,2.780 16.431,2.781 11.980 C 2.782 7.664,2.793 7.353,2.984 6.240 C 3.231 4.800,3.803 3.921,4.820 3.421 C 5.541 3.067,6.445 2.891,8.002 2.802 C 8.872 2.752,16.044 2.780,16.600 2.836 M7.180 5.836 C 7.078 5.883,6.712 6.222,6.175 6.765 C 5.375 7.574,5.328 7.631,5.287 7.822 C 5.201 8.229,5.232 8.278,6.176 9.235 C 6.714 9.780,7.078 10.117,7.180 10.164 C 7.376 10.255,7.594 10.260,7.790 10.178 C 7.988 10.096,8.077 10.010,8.165 9.820 C 8.307 9.510,8.237 9.184,7.970 8.910 L 7.824 8.760 8.122 8.760 C 9.510 8.762,10.821 9.837,11.161 11.251 C 11.236 11.565,11.239 11.734,11.240 14.851 C 11.240 17.713,11.248 18.141,11.302 18.271 C 11.569 18.911,12.431 18.911,12.698 18.271 C 12.752 18.141,12.760 17.713,12.760 14.851 C 12.761 11.734,12.764 11.565,12.839 11.251 C 12.982 10.656,13.219 10.227,13.658 9.765 C 14.260 9.133,15.081 8.761,15.878 8.760 L 16.176 8.760 16.030 8.910 C 15.708 9.240,15.675 9.703,15.952 10.014 C 16.054 10.130,16.320 10.238,16.500 10.238 C 16.795 10.238,16.945 10.125,17.825 9.235 C 18.608 8.443,18.673 8.366,18.710 8.190 C 18.737 8.063,18.737 7.937,18.710 7.810 C 18.673 7.634,18.608 7.557,17.825 6.765 C 16.945 5.875,16.795 5.762,16.500 5.762 C 15.806 5.762,15.517 6.564,16.024 7.084 L 16.164 7.227 15.671 7.273 C 14.782 7.355,14.040 7.608,13.347 8.068 C 12.992 8.303,12.455 8.813,12.209 9.148 C 12.108 9.287,12.014 9.400,12.000 9.400 C 11.986 9.400,11.892 9.287,11.791 9.148 C 11.545 8.813,11.008 8.303,10.653 8.068 C 9.960 7.608,9.218 7.355,8.329 7.273 L 7.836 7.227 7.976 7.084 C 8.237 6.816,8.306 6.487,8.165 6.180 C 8.077 5.990,7.988 5.904,7.790 5.822 C 7.594 5.740,7.376 5.745,7.180 5.836 " stroke="none" fill-rule="evenodd" fill="black"></path></svg>