<svg width="24" height="24" viewBox="0 0 24 24" fill="none" xmlns="http://www.w3.org/2000/svg"><path d="M9.020 1.278 C 7.735 1.310,7.475 1.326,6.649 1.423 C 4.782 1.643,3.569 2.183,2.728 3.171 C 1.841 4.212,1.475 5.425,1.314 7.860 C 1.249 8.841,1.249 15.159,1.314 16.140 C 1.431 17.905,1.649 18.970,2.068 19.825 C 2.756 21.228,3.977 22.098,5.734 22.437 C 7.035 22.688,7.988 22.733,12.000 22.733 C 16.012 22.733,16.965 22.688,18.266 22.437 C 20.599 21.987,21.987 20.599,22.437 18.266 C 22.688 16.968,22.732 16.015,22.733 12.000 C 22.733 7.987,22.688 7.034,22.437 5.734 C 22.098 3.977,21.228 2.756,19.825 2.068 C 18.972 1.650,17.855 1.421,16.180 1.321 C 15.276 1.267,10.579 1.239,9.020 1.278 M16.600 2.836 C 18.439 3.019,19.320 3.320,20.000 4.000 C 20.680 4.680,20.982 5.564,21.164 7.400 C 21.192 7.686,21.217 9.195,21.229 11.380 C 21.251 15.485,21.215 16.565,21.019 17.740 C 20.687 19.721,19.731 20.677,17.740 21.020 C 16.654 21.207,16.320 21.218,12.040 21.219 C 7.880 21.220,7.593 21.212,6.500 21.055 C 4.391 20.754,3.409 19.877,3.021 17.947 C 2.796 16.825,2.780 16.431,2.781 11.980 C 2.782 7.664,2.793 7.353,2.984 6.240 C 3.231 4.800,3.803 3.921,4.820 3.421 C 5.541 3.067,6.445 2.891,8.002 2.802 C 8.872 2.752,16.044 2.780,16.600 2.836 M11.654 5.842 C 11.562 5.888,11.437 5.998,11.374 6.089 L 11.260 6.253 11.240 9.697 L 11.219 13.140 11.126 13.420 C 10.674 14.773,9.567 15.647,8.181 15.747 L 7.821 15.773 7.989 15.573 C 8.185 15.339,8.240 15.214,8.240 15.000 C 8.240 14.716,8.085 14.468,7.821 14.331 C 7.662 14.248,7.332 14.252,7.159 14.339 C 6.978 14.430,5.430 15.978,5.339 16.159 C 5.248 16.338,5.248 16.662,5.339 16.841 C 5.430 17.022,6.978 18.570,7.159 18.661 C 7.332 18.748,7.662 18.752,7.821 18.669 C 8.085 18.532,8.240 18.284,8.240 18.000 C 8.240 17.788,8.185 17.661,7.995 17.434 L 7.833 17.240 8.093 17.240 C 8.956 17.240,9.935 16.923,10.713 16.391 C 11.067 16.149,11.636 15.593,11.840 15.290 C 11.917 15.176,11.989 15.082,12.000 15.082 C 12.011 15.082,12.083 15.176,12.160 15.290 C 12.364 15.593,12.933 16.149,13.287 16.391 C 14.065 16.923,15.044 17.240,15.907 17.240 L 16.167 17.240 16.005 17.434 C 15.815 17.661,15.760 17.788,15.760 18.000 C 15.760 18.284,15.915 18.532,16.179 18.669 C 16.338 18.752,16.668 18.748,16.841 18.661 C 17.022 18.570,18.570 17.022,18.661 16.841 C 18.752 16.662,18.752 16.338,18.661 16.159 C 18.570 15.978,17.022 14.430,16.841 14.339 C 16.668 14.252,16.338 14.248,16.179 14.331 C 15.915 14.468,15.760 14.716,15.760 15.000 C 15.760 15.214,15.815 15.339,16.011 15.573 L 16.179 15.773 15.819 15.747 C 14.433 15.647,13.326 14.773,12.874 13.420 L 12.781 13.140 12.760 9.697 L 12.740 6.253 12.626 6.088 C 12.412 5.780,11.993 5.674,11.654 5.842 " stroke="none" fill-rule="evenodd" fill="black"></path></svg>