<svg width="24" height="24" viewBox="0 0 24 24" fill="none" xmlns="http://www.w3.org/2000/svg"><path d="M21.900 1.259 C 21.878 1.267,21.806 1.285,21.740 1.300 C 21.654 1.319,21.335 1.610,20.613 2.329 L 19.605 3.331 19.373 3.176 C 17.638 2.019,15.329 2.032,13.579 3.209 L 13.298 3.398 12.579 3.361 C 10.552 3.255,8.148 3.580,6.327 4.206 C 5.318 4.552,3.762 5.288,3.206 5.680 C 1.441 6.927,0.776 9.313,1.617 11.386 C 1.823 11.892,2.914 13.658,3.642 14.661 C 4.501 15.845,5.342 16.822,6.404 17.866 C 7.418 18.865,8.218 19.545,9.339 20.358 C 10.344 21.087,12.126 22.189,12.620 22.387 C 14.785 23.254,17.197 22.515,18.450 20.600 C 18.836 20.011,19.441 18.692,19.792 17.676 C 20.434 15.816,20.784 13.209,20.646 11.304 L 20.603 10.709 20.817 10.384 C 21.103 9.952,21.257 9.636,21.420 9.147 C 21.607 8.588,21.680 8.127,21.680 7.500 C 21.680 6.453,21.411 5.531,20.852 4.664 L 20.674 4.388 21.674 3.384 C 22.544 2.510,22.679 2.357,22.719 2.205 C 22.806 1.879,22.688 1.564,22.412 1.385 C 22.271 1.294,21.993 1.226,21.900 1.259 M16.940 3.843 C 17.407 3.898,17.997 4.100,18.409 4.345 C 18.846 4.605,19.395 5.154,19.655 5.591 C 20.204 6.514,20.330 7.651,19.995 8.660 C 19.900 8.945,19.628 9.520,19.588 9.520 C 19.583 9.520,18.430 8.370,17.025 6.965 L 14.470 4.410 14.725 4.267 C 15.189 4.008,15.865 3.826,16.440 3.805 C 16.517 3.802,16.742 3.819,16.940 3.843 M15.970 8.030 L 19.140 11.200 19.154 11.930 C 19.193 13.949,18.841 16.040,18.179 17.720 C 17.975 18.236,17.529 19.192,17.315 19.570 C 16.891 20.318,16.286 20.820,15.481 21.089 C 15.116 21.212,15.073 21.217,14.460 21.217 C 13.847 21.217,13.804 21.211,13.440 21.090 C 12.870 20.899,11.079 19.792,9.860 18.878 C 7.953 17.447,6.198 15.653,4.813 13.720 C 4.167 12.818,3.119 11.114,2.974 10.729 C 2.516 9.513,2.806 8.123,3.707 7.228 C 4.000 6.936,4.242 6.775,4.854 6.463 C 6.415 5.668,7.849 5.224,9.640 4.981 C 10.400 4.878,10.933 4.848,11.890 4.854 L 12.800 4.860 15.970 8.030 " fill="#1C274C" stroke="none" fill-rule="evenodd"></path></svg>