<svg width="24" height="24" viewBox="0 0 24 24" fill="none" xmlns="http://www.w3.org/2000/svg"><path d="M6.801 1.287 C 6.298 1.431,6.099 2.017,6.406 2.449 C 6.450 2.510,6.891 2.802,7.422 3.121 C 7.938 3.431,8.360 3.692,8.360 3.701 C 8.360 3.710,8.268 3.816,8.157 3.936 C 7.277 4.882,6.763 6.173,6.761 7.449 C 6.760 7.769,6.753 7.801,6.670 7.844 C 6.620 7.870,6.457 7.972,6.307 8.071 L 6.033 8.251 5.887 8.169 C 5.806 8.124,5.281 7.903,4.720 7.679 C 3.906 7.353,3.659 7.270,3.499 7.269 C 2.817 7.267,2.497 8.096,3.008 8.544 C 3.100 8.625,3.460 8.792,4.066 9.035 L 4.985 9.402 4.753 9.871 C 4.364 10.656,4.241 11.318,4.240 12.627 L 4.240 13.235 3.030 13.247 C 1.656 13.262,1.610 13.271,1.383 13.592 C 1.286 13.730,1.267 13.797,1.267 13.993 C 1.267 14.279,1.372 14.474,1.612 14.633 L 1.774 14.740 3.007 14.753 L 4.240 14.765 4.240 14.873 C 4.242 15.267,4.337 16.173,4.418 16.567 C 4.533 17.121,4.742 17.765,4.956 18.221 L 5.110 18.549 4.129 18.941 C 3.471 19.204,3.103 19.373,3.009 19.455 C 2.498 19.904,2.815 20.729,3.499 20.732 C 3.664 20.733,3.901 20.652,4.811 20.285 L 5.922 19.837 6.370 20.304 C 6.887 20.841,7.224 21.126,7.760 21.478 C 10.018 22.963,12.957 23.150,15.380 21.963 C 16.260 21.532,16.896 21.064,17.609 20.324 L 18.079 19.837 19.189 20.285 C 20.099 20.652,20.336 20.733,20.501 20.732 C 21.192 20.729,21.500 19.902,20.981 19.446 C 20.900 19.375,20.485 19.186,19.871 18.941 L 18.890 18.549 19.044 18.221 C 19.258 17.765,19.467 17.121,19.582 16.567 C 19.663 16.173,19.758 15.267,19.760 14.873 L 19.760 14.765 20.990 14.753 C 22.196 14.740,22.223 14.738,22.369 14.647 C 22.943 14.290,22.812 13.424,22.162 13.284 C 22.040 13.258,21.509 13.240,20.858 13.240 L 19.760 13.240 19.760 12.630 C 19.759 11.318,19.636 10.656,19.247 9.871 L 19.015 9.402 19.934 9.035 C 20.540 8.792,20.900 8.625,20.992 8.544 C 21.503 8.096,21.183 7.267,20.501 7.269 C 20.341 7.270,20.094 7.353,19.280 7.679 C 18.719 7.903,18.194 8.124,18.113 8.169 L 17.967 8.251 17.693 8.071 C 17.543 7.972,17.380 7.870,17.330 7.844 C 17.247 7.801,17.240 7.769,17.239 7.449 C 17.237 6.172,16.708 4.846,15.840 3.937 C 15.730 3.821,15.640 3.717,15.640 3.706 C 15.640 3.694,16.062 3.431,16.578 3.121 C 17.109 2.802,17.550 2.510,17.594 2.449 C 17.991 1.891,17.513 1.134,16.857 1.281 C 16.757 1.303,16.194 1.615,15.480 2.044 C 14.342 2.727,14.266 2.766,14.166 2.721 C 12.871 2.126,11.129 2.126,9.834 2.721 C 9.734 2.766,9.658 2.727,8.520 2.044 C 7.838 1.635,7.240 1.302,7.146 1.280 C 6.955 1.236,6.980 1.236,6.801 1.287 M12.960 3.871 C 13.837 4.134,14.512 4.600,15.031 5.300 C 15.409 5.810,15.684 6.528,15.727 7.117 L 15.740 7.294 15.460 7.277 C 15.306 7.268,13.749 7.260,12.000 7.260 C 10.251 7.260,8.694 7.268,8.540 7.277 L 8.260 7.294 8.273 7.117 C 8.316 6.528,8.591 5.810,8.969 5.300 C 9.492 4.595,10.260 4.070,11.071 3.863 C 11.431 3.772,11.504 3.766,12.120 3.780 C 12.549 3.790,12.768 3.814,12.960 3.871 M15.980 8.874 C 16.546 9.064,16.869 9.265,17.302 9.698 C 17.735 10.132,17.938 10.457,18.125 11.020 C 18.217 11.296,18.218 11.329,18.232 13.360 C 18.242 14.771,18.232 15.533,18.200 15.780 C 18.087 16.654,17.802 17.464,17.328 18.260 C 16.872 19.027,16.029 19.870,15.260 20.328 C 14.532 20.762,13.674 21.078,12.950 21.179 L 12.760 21.205 12.760 18.124 C 12.760 16.026,12.746 14.978,12.716 14.838 C 12.576 14.188,11.710 14.057,11.353 14.631 L 11.260 14.780 11.249 17.992 L 11.238 21.205 11.049 21.178 C 10.102 21.047,9.023 20.584,8.200 19.956 C 7.850 19.689,7.249 19.083,6.993 18.740 C 6.522 18.107,6.132 17.286,5.938 16.520 C 5.779 15.894,5.761 15.599,5.761 13.548 C 5.760 11.238,5.766 11.185,6.088 10.520 C 6.271 10.143,6.331 10.061,6.695 9.699 C 7.013 9.383,7.169 9.261,7.420 9.133 C 7.757 8.961,8.030 8.861,8.323 8.803 C 8.420 8.783,10.120 8.770,12.100 8.774 L 15.700 8.780 15.980 8.874 " stroke="none" fill-rule="evenodd" fill="black"></path></svg>