<svg width="24" height="24" viewBox="0 0 24 24" fill="none" xmlns="http://www.w3.org/2000/svg"><path d="M6.801 1.287 C 6.298 1.431,6.099 2.017,6.406 2.448 C 6.449 2.508,6.775 2.731,7.132 2.944 C 7.488 3.157,7.804 3.353,7.833 3.380 C 7.875 3.419,7.809 3.482,7.493 3.703 C 6.988 4.056,6.065 4.975,5.719 5.469 C 5.576 5.671,5.357 6.022,5.231 6.249 C 5.106 6.475,4.989 6.684,4.971 6.714 C 4.946 6.756,4.806 6.714,4.320 6.519 C 3.477 6.181,3.238 6.184,2.928 6.537 C 2.640 6.865,2.737 7.420,3.119 7.634 C 3.232 7.697,3.842 7.952,4.383 8.161 C 4.466 8.193,4.466 8.193,4.394 8.546 C 4.287 9.074,4.240 9.850,4.240 11.107 L 4.240 12.235 3.030 12.247 C 1.656 12.262,1.610 12.271,1.383 12.592 C 1.286 12.730,1.267 12.797,1.267 12.993 C 1.267 13.279,1.372 13.474,1.612 13.633 L 1.774 13.740 3.007 13.753 L 4.240 13.765 4.240 14.373 C 4.241 15.610,4.346 16.455,4.604 17.294 C 4.670 17.511,4.719 17.694,4.712 17.700 C 4.706 17.707,4.351 17.852,3.924 18.023 C 3.427 18.222,3.098 18.377,3.008 18.456 C 2.498 18.904,2.815 19.729,3.499 19.732 C 3.660 19.733,3.870 19.665,4.547 19.391 L 5.395 19.049 5.583 19.335 C 5.842 19.726,6.032 19.957,6.457 20.393 C 7.802 21.777,9.511 22.573,11.450 22.719 C 13.324 22.861,15.195 22.298,16.740 21.127 C 17.300 20.703,18.047 19.896,18.457 19.275 L 18.605 19.049 19.453 19.391 C 20.130 19.665,20.340 19.733,20.501 19.732 C 21.191 19.729,21.500 18.902,20.982 18.447 C 20.904 18.379,20.538 18.208,20.076 18.023 C 19.649 17.852,19.294 17.707,19.288 17.700 C 19.281 17.694,19.330 17.511,19.396 17.294 C 19.654 16.455,19.759 15.610,19.760 14.373 L 19.760 13.765 20.990 13.753 C 22.196 13.740,22.223 13.738,22.369 13.647 C 22.943 13.290,22.812 12.424,22.162 12.284 C 22.040 12.258,21.509 12.240,20.858 12.240 L 19.760 12.240 19.760 11.130 C 19.759 9.872,19.711 9.062,19.606 8.546 C 19.534 8.193,19.534 8.193,19.617 8.161 C 20.404 7.857,20.876 7.646,20.992 7.544 C 21.503 7.096,21.183 6.266,20.501 6.269 C 20.349 6.270,20.148 6.331,19.680 6.519 C 19.194 6.714,19.054 6.756,19.029 6.714 C 19.011 6.684,18.894 6.475,18.769 6.249 C 18.643 6.022,18.424 5.671,18.281 5.469 C 17.935 4.975,17.012 4.056,16.507 3.703 C 16.191 3.482,16.125 3.419,16.167 3.380 C 16.196 3.353,16.512 3.157,16.868 2.944 C 17.225 2.731,17.551 2.508,17.594 2.448 C 17.991 1.891,17.513 1.134,16.857 1.281 C 16.758 1.303,16.228 1.595,15.580 1.984 L 14.471 2.650 14.186 2.567 C 13.684 2.422,13.107 2.322,12.546 2.282 C 11.649 2.218,10.670 2.320,9.814 2.567 L 9.529 2.650 8.420 1.984 C 7.802 1.613,7.239 1.302,7.146 1.280 C 6.955 1.236,6.980 1.236,6.801 1.287 M12.910 3.819 C 14.275 4.027,15.500 4.657,16.464 5.646 C 17.127 6.327,17.576 7.039,17.880 7.892 C 18.231 8.878,18.239 8.981,18.239 12.500 C 18.239 16.019,18.231 16.122,17.880 17.108 C 17.576 17.961,17.127 18.673,16.464 19.354 C 15.259 20.590,13.723 21.239,12.000 21.239 C 10.277 21.239,8.741 20.590,7.536 19.354 C 6.873 18.673,6.424 17.961,6.120 17.108 C 5.769 16.122,5.761 16.019,5.761 12.500 C 5.761 8.981,5.769 8.878,6.120 7.892 C 6.584 6.589,7.580 5.364,8.740 4.671 C 9.425 4.262,10.288 3.944,11.040 3.824 C 11.506 3.749,12.434 3.747,12.910 3.819 M10.180 9.835 C 9.990 9.923,9.904 10.012,9.822 10.210 C 9.708 10.483,9.783 10.869,9.986 11.048 C 10.194 11.234,10.263 11.240,12.009 11.239 C 13.525 11.238,13.673 11.232,13.820 11.165 C 14.010 11.077,14.096 10.988,14.178 10.790 C 14.257 10.602,14.257 10.398,14.178 10.210 C 14.096 10.012,14.010 9.923,13.820 9.835 C 13.673 9.768,13.526 9.762,12.000 9.762 C 10.474 9.762,10.327 9.768,10.180 9.835 M10.180 14.835 C 9.990 14.923,9.904 15.012,9.822 15.210 C 9.708 15.483,9.783 15.869,9.986 16.048 C 10.194 16.234,10.263 16.240,12.009 16.239 C 13.525 16.238,13.673 16.232,13.820 16.165 C 14.010 16.077,14.096 15.988,14.178 15.790 C 14.257 15.602,14.257 15.398,14.178 15.210 C 14.096 15.012,14.010 14.923,13.820 14.835 C 13.673 14.768,13.526 14.762,12.000 14.762 C 10.474 14.762,10.327 14.768,10.180 14.835 " stroke="none" fill-rule="evenodd" fill="black"></path></svg>