<svg width="24" height="24" viewBox="0 0 24 24" fill="none" xmlns="http://www.w3.org/2000/svg"><path d="M13.520 1.282 C 13.135 1.298,12.703 1.332,12.560 1.357 C 11.397 1.566,10.681 2.197,10.427 3.240 C 10.376 3.447,10.280 4.079,10.280 4.203 C 10.280 4.217,9.133 4.240,7.730 4.253 C 5.253 4.276,4.739 4.301,4.280 4.418 C 3.185 4.696,2.573 5.373,2.360 6.540 C 2.267 7.056,2.243 8.738,2.241 14.864 L 2.240 21.229 1.992 21.255 C 1.533 21.303,1.267 21.579,1.267 22.007 C 1.267 22.203,1.286 22.270,1.383 22.408 C 1.447 22.499,1.572 22.610,1.660 22.656 L 1.820 22.740 11.880 22.751 C 19.099 22.758,22.000 22.749,22.154 22.717 C 22.568 22.631,22.804 22.250,22.711 21.816 C 22.639 21.479,22.296 21.240,21.882 21.240 L 21.760 21.240 21.758 13.390 C 21.757 5.859,21.735 4.065,21.640 3.540 C 21.411 2.288,20.711 1.588,19.460 1.360 C 18.876 1.254,15.325 1.207,13.520 1.282 M19.260 2.834 C 19.370 2.859,19.559 2.930,19.679 2.991 C 19.863 3.084,19.916 3.137,20.009 3.321 C 20.070 3.441,20.142 3.630,20.168 3.740 C 20.203 3.890,20.219 6.096,20.229 12.590 L 20.242 21.240 18.001 21.240 L 15.760 21.240 15.759 14.870 C 15.757 8.738,15.733 7.056,15.640 6.540 C 15.447 5.481,14.898 4.795,14.008 4.505 C 13.543 4.353,13.286 4.316,12.510 4.291 L 11.800 4.269 11.800 4.122 C 11.800 3.863,11.884 3.506,11.991 3.307 C 12.150 3.015,12.437 2.871,13.001 2.804 C 13.448 2.750,19.012 2.777,19.260 2.834 M13.260 5.833 C 13.370 5.859,13.559 5.930,13.679 5.991 C 13.863 6.084,13.916 6.137,14.009 6.321 C 14.070 6.441,14.142 6.630,14.168 6.740 C 14.203 6.889,14.218 8.771,14.229 14.090 L 14.242 21.240 12.001 21.240 L 9.760 21.240 9.760 20.142 C 9.760 18.859,9.737 18.697,9.522 18.482 C 9.173 18.133,8.619 18.203,8.353 18.631 C 8.262 18.777,8.260 18.804,8.247 20.010 L 8.235 21.240 5.997 21.240 L 3.760 21.240 3.760 14.338 C 3.760 9.693,3.774 7.311,3.803 7.052 C 3.854 6.597,3.961 6.285,4.123 6.123 C 4.276 5.970,4.602 5.851,4.989 5.805 C 5.461 5.750,13.011 5.775,13.260 5.833 M5.815 7.278 C 5.331 7.393,5.098 8.004,5.383 8.408 C 5.447 8.499,5.572 8.610,5.660 8.656 C 5.818 8.739,5.865 8.740,8.878 8.751 C 11.020 8.759,12.000 8.749,12.151 8.718 C 12.902 8.562,12.931 7.473,12.189 7.286 C 11.979 7.234,6.033 7.226,5.815 7.278 M5.815 10.278 C 5.331 10.393,5.098 11.004,5.383 11.408 C 5.447 11.499,5.572 11.610,5.660 11.656 C 5.818 11.739,5.865 11.740,8.878 11.751 C 11.020 11.759,12.000 11.749,12.151 11.718 C 12.902 11.562,12.931 10.473,12.189 10.286 C 11.979 10.234,6.033 10.226,5.815 10.278 M5.815 13.278 C 5.331 13.393,5.098 14.004,5.383 14.408 C 5.447 14.499,5.572 14.610,5.660 14.656 C 5.818 14.739,5.865 14.740,8.878 14.751 C 11.020 14.759,12.000 14.749,12.151 14.718 C 12.902 14.562,12.931 13.473,12.189 13.286 C 11.979 13.234,6.033 13.226,5.815 13.278 " stroke="none" fill-rule="evenodd" fill="black"></path></svg>