<svg width="24" height="24" viewBox="0 0 24 24" fill="none" xmlns="http://www.w3.org/2000/svg"><path d="M9.520 1.282 C 9.135 1.298,8.703 1.332,8.560 1.357 C 7.375 1.570,6.697 2.178,6.418 3.280 C 6.316 3.683,6.280 4.207,6.254 5.730 L 6.227 7.240 6.104 7.242 C 5.496 7.252,4.564 7.325,4.320 7.381 C 3.316 7.611,2.611 8.316,2.381 9.320 C 2.264 9.829,2.244 10.802,2.242 16.104 L 2.240 21.229 1.992 21.255 C 1.533 21.303,1.267 21.579,1.267 22.007 C 1.267 22.203,1.286 22.270,1.383 22.408 C 1.447 22.499,1.572 22.610,1.660 22.656 L 1.820 22.740 11.880 22.751 C 19.099 22.758,22.000 22.749,22.154 22.717 C 22.568 22.631,22.804 22.250,22.711 21.816 C 22.639 21.479,22.296 21.240,21.882 21.240 L 21.760 21.240 21.758 16.110 C 21.756 10.802,21.736 9.829,21.619 9.320 C 21.389 8.316,20.684 7.611,19.680 7.381 C 19.435 7.325,18.496 7.252,17.890 7.242 L 17.760 7.240 17.758 6.390 C 17.757 5.302,17.696 3.849,17.640 3.540 C 17.411 2.288,16.711 1.588,15.460 1.360 C 14.876 1.254,11.325 1.207,9.520 1.282 M15.260 2.834 C 15.370 2.859,15.559 2.930,15.679 2.991 C 15.863 3.084,15.916 3.137,16.009 3.321 C 16.070 3.441,16.142 3.630,16.168 3.740 C 16.203 3.890,16.219 6.096,16.229 12.590 L 16.242 21.240 14.501 21.240 L 12.760 21.240 12.760 20.142 C 12.760 18.859,12.737 18.697,12.522 18.482 C 12.173 18.133,11.619 18.203,11.353 18.631 C 11.262 18.777,11.260 18.804,11.247 20.010 L 11.235 21.240 9.497 21.240 L 7.760 21.240 7.760 12.838 C 7.760 7.126,7.774 4.314,7.803 4.052 C 7.854 3.597,7.961 3.285,8.123 3.123 C 8.276 2.970,8.601 2.851,8.989 2.805 C 9.447 2.751,15.009 2.776,15.260 2.834 M9.815 4.278 C 9.331 4.393,9.098 5.004,9.383 5.408 C 9.447 5.499,9.572 5.610,9.660 5.656 C 9.815 5.738,9.880 5.740,11.875 5.752 C 14.208 5.765,14.281 5.759,14.519 5.521 C 14.918 5.122,14.731 4.423,14.189 4.286 C 13.980 4.234,10.031 4.226,9.815 4.278 M9.815 7.278 C 9.331 7.393,9.098 8.004,9.383 8.408 C 9.447 8.499,9.572 8.610,9.660 8.656 C 9.815 8.738,9.880 8.740,11.875 8.752 C 14.208 8.765,14.281 8.759,14.519 8.521 C 14.918 8.122,14.731 7.423,14.189 7.286 C 13.980 7.234,10.031 7.226,9.815 7.278 M6.240 15.000 L 6.240 21.240 4.999 21.240 L 3.758 21.240 3.769 15.490 C 3.782 8.946,3.751 9.501,4.126 9.125 C 4.431 8.820,4.616 8.775,5.610 8.766 L 6.240 8.760 6.240 15.000 M19.464 8.855 C 19.607 8.900,19.730 8.981,19.874 9.126 C 20.249 9.501,20.218 8.947,20.231 15.490 L 20.242 21.240 19.001 21.240 L 17.760 21.240 17.760 14.995 L 17.760 8.750 18.510 8.770 C 19.043 8.784,19.319 8.809,19.464 8.855 M9.815 10.278 C 9.331 10.393,9.098 11.004,9.383 11.408 C 9.447 11.499,9.572 11.610,9.660 11.656 C 9.815 11.738,9.880 11.740,11.875 11.752 C 14.208 11.765,14.281 11.759,14.519 11.521 C 14.918 11.122,14.731 10.423,14.189 10.286 C 13.980 10.234,10.031 10.226,9.815 10.278 M9.815 13.278 C 9.331 13.393,9.098 14.004,9.383 14.408 C 9.447 14.499,9.572 14.610,9.660 14.656 C 9.815 14.738,9.880 14.740,11.875 14.752 C 14.208 14.765,14.281 14.759,14.519 14.521 C 14.918 14.122,14.731 13.423,14.189 13.286 C 13.980 13.234,10.031 13.226,9.815 13.278 " stroke="none" fill-rule="evenodd" fill="black"></path></svg>