<svg width="24" height="24" viewBox="0 0 24 24" fill="none" xmlns="http://www.w3.org/2000/svg"><path d="M9.520 1.282 C 9.135 1.298,8.703 1.332,8.560 1.357 C 7.182 1.604,6.487 2.380,6.322 3.855 C 6.300 4.051,6.277 4.216,6.271 4.223 C 6.264 4.229,5.881 4.253,5.419 4.276 C 4.928 4.301,4.464 4.345,4.300 4.384 C 3.311 4.617,2.609 5.325,2.381 6.320 C 2.343 6.485,2.297 6.926,2.278 7.300 C 2.259 7.674,2.243 10.961,2.242 14.604 L 2.240 21.229 1.992 21.255 C 1.533 21.303,1.267 21.579,1.267 22.007 C 1.267 22.203,1.286 22.270,1.383 22.408 C 1.447 22.499,1.572 22.610,1.660 22.656 L 1.820 22.740 11.880 22.751 C 19.099 22.758,22.000 22.749,22.154 22.717 C 22.568 22.631,22.804 22.250,22.711 21.816 C 22.639 21.479,22.296 21.240,21.882 21.240 L 21.760 21.240 21.758 14.610 C 21.757 10.963,21.741 7.674,21.722 7.300 C 21.703 6.926,21.657 6.485,21.619 6.320 C 21.389 5.316,20.684 4.611,19.680 4.381 C 19.431 4.324,18.479 4.251,17.872 4.242 C 17.727 4.240,17.725 4.238,17.702 4.050 C 17.635 3.513,17.589 3.273,17.496 2.992 C 17.202 2.100,16.519 1.553,15.460 1.360 C 14.876 1.254,11.325 1.207,9.520 1.282 M15.260 2.834 C 15.370 2.859,15.559 2.930,15.679 2.991 C 15.863 3.084,15.916 3.137,16.009 3.321 C 16.070 3.441,16.142 3.630,16.168 3.740 C 16.203 3.890,16.219 6.096,16.229 12.590 L 16.242 21.240 14.501 21.240 L 12.760 21.240 12.760 20.142 C 12.760 18.859,12.737 18.697,12.522 18.482 C 12.173 18.133,11.619 18.203,11.353 18.631 C 11.262 18.777,11.260 18.804,11.247 20.010 L 11.235 21.240 9.497 21.240 L 7.760 21.240 7.760 12.838 C 7.760 7.126,7.774 4.314,7.803 4.052 C 7.854 3.597,7.961 3.285,8.123 3.123 C 8.276 2.970,8.601 2.851,8.989 2.805 C 9.447 2.751,15.009 2.776,15.260 2.834 M11.660 4.278 C 10.776 4.385,10.027 4.901,9.568 5.720 C 9.168 6.434,9.168 7.566,9.568 8.280 C 10.094 9.219,10.953 9.731,12.000 9.731 C 13.047 9.731,13.906 9.219,14.432 8.280 C 14.832 7.566,14.832 6.434,14.432 5.720 C 13.857 4.694,12.796 4.142,11.660 4.278 M6.240 6.495 L 6.240 7.230 5.770 7.248 C 5.263 7.267,5.143 7.305,4.953 7.506 C 4.819 7.647,4.760 7.799,4.760 8.000 C 4.760 8.201,4.819 8.353,4.953 8.494 C 5.143 8.695,5.263 8.733,5.770 8.752 L 6.240 8.770 6.240 9.500 L 6.240 10.230 5.770 10.248 C 5.263 10.267,5.143 10.305,4.953 10.506 C 4.691 10.783,4.691 11.217,4.953 11.494 C 5.143 11.695,5.263 11.733,5.770 11.752 L 6.240 11.770 6.240 12.500 L 6.240 13.230 5.770 13.248 C 5.263 13.267,5.143 13.305,4.953 13.506 C 4.691 13.783,4.691 14.217,4.953 14.494 C 5.143 14.695,5.263 14.733,5.770 14.752 L 6.240 14.770 6.240 18.005 L 6.240 21.240 4.999 21.240 L 3.759 21.240 3.769 13.990 C 3.781 5.749,3.747 6.504,4.126 6.125 C 4.431 5.820,4.616 5.775,5.610 5.766 L 6.240 5.760 6.240 6.495 M12.454 5.841 C 12.744 5.950,13.050 6.256,13.159 6.546 C 13.467 7.369,12.871 8.240,12.000 8.240 C 11.492 8.240,11.014 7.913,10.837 7.445 C 10.728 7.157,10.743 6.704,10.870 6.458 C 11.019 6.169,11.349 5.886,11.640 5.797 C 11.838 5.737,12.232 5.758,12.454 5.841 M19.464 5.855 C 19.607 5.900,19.730 5.981,19.874 6.126 C 20.253 6.504,20.219 5.750,20.231 13.990 L 20.241 21.240 19.001 21.240 L 17.760 21.240 17.760 18.005 L 17.760 14.770 18.230 14.752 C 18.737 14.733,18.857 14.695,19.047 14.494 C 19.181 14.353,19.240 14.201,19.240 14.000 C 19.240 13.799,19.181 13.647,19.047 13.506 C 18.857 13.305,18.737 13.267,18.230 13.248 L 17.760 13.230 17.760 12.500 L 17.760 11.770 18.230 11.752 C 18.737 11.733,18.857 11.695,19.047 11.494 C 19.181 11.353,19.240 11.201,19.240 11.000 C 19.240 10.799,19.181 10.647,19.047 10.506 C 18.857 10.305,18.737 10.267,18.230 10.248 L 17.760 10.230 17.760 9.500 L 17.760 8.770 18.230 8.752 C 18.737 8.733,18.857 8.695,19.047 8.494 C 19.181 8.353,19.240 8.201,19.240 8.000 C 19.240 7.799,19.181 7.647,19.047 7.506 C 18.857 7.305,18.737 7.267,18.230 7.248 L 17.760 7.230 17.760 6.490 L 17.760 5.750 18.510 5.770 C 19.043 5.784,19.319 5.809,19.464 5.855 M9.815 11.278 C 9.331 11.393,9.098 12.004,9.383 12.408 C 9.447 12.499,9.572 12.610,9.660 12.656 C 9.815 12.738,9.880 12.740,11.875 12.752 C 14.208 12.765,14.281 12.759,14.519 12.521 C 14.918 12.122,14.731 11.423,14.189 11.286 C 13.980 11.234,10.031 11.226,9.815 11.278 M9.815 14.278 C 9.331 14.393,9.098 15.004,9.383 15.408 C 9.447 15.499,9.572 15.610,9.660 15.656 C 9.815 15.738,9.880 15.740,11.875 15.752 C 14.208 15.765,14.281 15.759,14.519 15.521 C 14.918 15.122,14.731 14.423,14.189 14.286 C 13.980 14.234,10.031 14.226,9.815 14.278 " stroke="none" fill-rule="evenodd" fill="black"></path></svg>