<svg width="24" height="24" viewBox="0 0 24 24" fill="none" xmlns="http://www.w3.org/2000/svg"><path d="M9.420 1.283 C 6.824 1.355,5.629 1.695,4.669 2.635 C 3.728 3.555,3.354 4.813,3.292 7.266 L 3.268 8.232 2.964 8.259 C 2.797 8.274,2.577 8.310,2.475 8.339 C 2.099 8.448,1.726 8.748,1.503 9.120 C 1.290 9.477,1.260 9.650,1.260 10.520 C 1.260 11.376,1.294 11.557,1.523 11.920 C 1.680 12.170,1.845 12.318,2.587 12.873 L 3.233 13.357 3.255 13.608 C 3.267 13.747,3.286 14.274,3.297 14.780 C 3.341 16.784,3.592 17.894,4.209 18.820 C 4.402 19.109,4.746 19.473,5.025 19.681 L 5.229 19.835 5.251 20.587 C 5.275 21.393,5.310 21.577,5.502 21.886 C 5.725 22.246,6.094 22.543,6.472 22.666 C 6.723 22.749,8.213 22.788,8.682 22.724 C 9.095 22.669,9.433 22.516,9.688 22.268 C 10.047 21.919,10.191 21.608,10.233 21.088 L 10.260 20.756 12.000 20.756 L 13.740 20.756 13.767 21.088 C 13.809 21.608,13.953 21.919,14.312 22.268 C 14.567 22.516,14.905 22.669,15.318 22.724 C 15.787 22.788,17.277 22.749,17.528 22.666 C 17.906 22.543,18.275 22.246,18.498 21.886 C 18.688 21.580,18.724 21.393,18.748 20.587 L 18.771 19.834 18.976 19.681 C 19.254 19.473,19.598 19.109,19.791 18.820 C 20.409 17.893,20.661 16.768,20.703 14.740 C 20.714 14.212,20.733 13.685,20.745 13.569 L 20.766 13.357 21.413 12.873 C 22.151 12.321,22.281 12.207,22.446 11.969 C 22.696 11.609,22.734 11.424,22.737 10.540 C 22.740 9.648,22.712 9.480,22.497 9.120 C 22.274 8.748,21.901 8.448,21.525 8.339 C 21.423 8.310,21.203 8.274,21.036 8.259 L 20.732 8.232 20.708 7.266 C 20.646 4.834,20.290 3.613,19.365 2.669 C 18.647 1.935,17.728 1.559,16.213 1.379 C 15.203 1.259,11.942 1.213,9.420 1.283 M15.341 2.802 C 16.488 2.877,17.163 3.019,17.730 3.305 C 18.049 3.466,18.453 3.827,18.594 4.078 L 18.685 4.240 12.000 4.240 L 5.315 4.240 5.406 4.078 C 5.547 3.827,5.951 3.466,6.270 3.305 C 6.814 3.031,7.537 2.873,8.560 2.805 C 9.303 2.755,14.594 2.753,15.341 2.802 M19.137 5.910 C 19.208 6.360,19.239 7.523,19.239 9.750 L 19.240 12.240 12.000 12.240 L 4.760 12.240 4.761 9.750 C 4.761 7.523,4.792 6.360,4.863 5.910 L 4.887 5.760 12.000 5.760 L 19.113 5.760 19.137 5.910 M3.240 10.621 C 3.240 11.594,3.263 11.547,2.930 11.260 L 2.760 11.114 2.760 10.510 C 2.760 9.806,2.779 9.760,3.066 9.760 L 3.240 9.760 3.240 10.621 M21.167 9.826 C 21.232 9.885,21.240 9.962,21.240 10.503 L 21.240 11.114 21.070 11.260 C 20.737 11.547,20.760 11.594,20.760 10.621 L 20.760 9.760 20.927 9.760 C 21.026 9.760,21.123 9.787,21.167 9.826 M19.240 14.231 C 19.240 14.490,19.221 14.989,19.198 15.341 C 19.016 18.111,18.317 18.907,15.840 19.167 C 15.128 19.242,8.872 19.242,8.160 19.167 C 6.297 18.972,5.488 18.454,5.087 17.200 C 4.897 16.606,4.811 15.899,4.773 14.610 L 4.747 13.760 11.994 13.760 L 19.240 13.760 19.240 14.231 M6.826 15.283 C 6.474 15.369,6.267 15.637,6.267 16.003 C 6.267 16.281,6.387 16.496,6.627 16.645 C 6.776 16.738,6.801 16.740,7.700 16.740 C 8.206 16.740,8.669 16.726,8.729 16.709 C 8.881 16.667,9.121 16.447,9.186 16.292 C 9.297 16.027,9.241 15.711,9.047 15.506 C 8.825 15.272,8.776 15.261,7.840 15.253 C 7.367 15.248,6.911 15.262,6.826 15.283 M15.420 15.260 C 15.398 15.267,15.331 15.284,15.271 15.297 C 15.124 15.329,14.881 15.548,14.814 15.708 C 14.691 16.002,14.771 16.336,15.015 16.550 C 15.095 16.621,15.211 16.693,15.271 16.709 C 15.331 16.726,15.794 16.740,16.300 16.740 C 17.193 16.740,17.224 16.737,17.369 16.647 C 17.943 16.290,17.812 15.424,17.162 15.284 C 16.981 15.245,15.525 15.225,15.420 15.260 M7.480 20.581 C 7.711 20.614,8.089 20.654,8.320 20.670 L 8.740 20.700 8.752 20.873 C 8.760 20.983,8.742 21.082,8.702 21.143 L 8.638 21.240 7.772 21.240 C 6.721 21.240,6.760 21.257,6.760 20.789 L 6.760 20.470 6.910 20.496 C 6.992 20.510,7.249 20.549,7.480 20.581 M17.240 20.787 C 17.240 21.258,17.280 21.240,16.235 21.240 L 15.362 21.240 15.298 21.143 C 15.258 21.082,15.240 20.983,15.248 20.873 L 15.260 20.700 15.440 20.690 C 15.749 20.673,16.773 20.557,16.920 20.522 C 17.240 20.445,17.240 20.445,17.240 20.787 " stroke="none" fill-rule="evenodd" fill="black"></path></svg>