<svg width="24" height="24" viewBox="0 0 24 24" fill="none" xmlns="http://www.w3.org/2000/svg"><path d="M9.320 1.279 C 6.342 1.361,5.084 1.710,3.988 2.756 C 3.098 3.607,2.631 4.715,2.422 6.480 C 2.293 7.563,2.266 8.523,2.266 12.000 C 2.266 15.477,2.293 16.437,2.422 17.520 C 2.631 19.285,3.098 20.393,3.988 21.244 C 4.945 22.157,6.069 22.538,8.220 22.678 C 9.889 22.787,15.144 22.761,16.340 22.639 C 18.130 22.456,19.146 22.071,20.004 21.252 C 20.903 20.393,21.368 19.291,21.578 17.520 C 21.707 16.439,21.734 15.476,21.734 12.000 C 21.734 8.524,21.707 7.561,21.578 6.480 C 21.369 4.715,20.902 3.607,20.012 2.756 C 19.537 2.302,19.197 2.085,18.579 1.839 C 17.917 1.577,16.952 1.398,15.789 1.322 C 14.937 1.267,10.781 1.239,9.320 1.279 M16.140 2.836 C 17.693 3.001,18.379 3.254,19.026 3.901 C 19.337 4.212,19.419 4.323,19.574 4.643 C 19.951 5.423,20.110 6.269,20.199 7.960 C 20.251 8.972,20.251 15.028,20.199 16.040 C 20.110 17.732,19.952 18.575,19.573 19.360 C 19.416 19.685,19.337 19.792,19.025 20.102 C 18.365 20.758,17.689 21.003,16.080 21.168 C 15.369 21.242,8.631 21.242,7.920 21.168 C 6.311 21.003,5.635 20.758,4.975 20.102 C 4.663 19.792,4.584 19.685,4.427 19.360 C 4.048 18.575,3.890 17.732,3.801 16.040 C 3.749 15.028,3.749 8.972,3.801 7.960 C 3.918 5.718,4.204 4.690,4.919 3.946 C 5.627 3.208,6.496 2.923,8.400 2.803 C 9.208 2.752,15.605 2.779,16.140 2.836 M8.300 5.280 C 8.102 5.298,7.837 5.351,7.711 5.399 C 7.041 5.651,6.516 6.233,6.334 6.925 C 6.237 7.291,6.237 8.709,6.334 9.075 C 6.534 9.836,7.153 10.456,7.925 10.669 C 8.160 10.735,8.473 10.740,12.000 10.740 C 15.527 10.740,15.840 10.735,16.075 10.669 C 16.847 10.456,17.466 9.836,17.666 9.075 C 17.763 8.709,17.763 7.291,17.666 6.925 C 17.468 6.174,16.858 5.555,16.097 5.334 C 15.882 5.271,15.533 5.264,12.260 5.257 C 10.280 5.252,8.498 5.263,8.300 5.280 M15.788 6.808 C 15.951 6.877,16.118 7.041,16.183 7.195 C 16.257 7.369,16.264 8.620,16.192 8.788 C 16.123 8.951,15.959 9.118,15.805 9.183 C 15.604 9.268,8.396 9.268,8.195 9.183 C 8.041 9.118,7.877 8.951,7.808 8.788 C 7.736 8.620,7.743 7.370,7.817 7.195 C 7.881 7.040,8.035 6.884,8.192 6.814 C 8.347 6.746,15.627 6.739,15.788 6.808 M7.673 12.063 C 7.312 12.174,7.000 12.609,7.000 13.000 C 7.000 13.524,7.476 14.000,8.000 14.000 C 8.520 14.000,9.000 13.520,9.000 13.000 C 9.000 12.598,8.688 12.173,8.310 12.061 C 8.062 11.987,7.919 11.988,7.673 12.063 M11.673 12.063 C 11.312 12.174,11.000 12.609,11.000 13.000 C 11.000 13.524,11.476 14.000,12.000 14.000 C 12.520 14.000,13.000 13.520,13.000 13.000 C 13.000 12.598,12.688 12.173,12.310 12.061 C 12.062 11.987,11.919 11.988,11.673 12.063 M15.673 12.063 C 15.312 12.174,15.000 12.609,15.000 13.000 C 15.000 13.524,15.476 14.000,16.000 14.000 C 16.520 14.000,17.000 13.520,17.000 13.000 C 17.000 12.598,16.688 12.173,16.310 12.061 C 16.062 11.987,15.919 11.988,15.673 12.063 M7.673 16.063 C 7.312 16.174,7.000 16.609,7.000 17.000 C 7.000 17.524,7.476 18.000,8.000 18.000 C 8.520 18.000,9.000 17.520,9.000 17.000 C 9.000 16.598,8.688 16.173,8.310 16.061 C 8.062 15.987,7.919 15.988,7.673 16.063 M11.673 16.063 C 11.312 16.174,11.000 16.609,11.000 17.000 C 11.000 17.524,11.476 18.000,12.000 18.000 C 12.520 18.000,13.000 17.520,13.000 17.000 C 13.000 16.598,12.688 16.173,12.310 16.061 C 12.062 15.987,11.919 15.988,11.673 16.063 M15.673 16.063 C 15.312 16.174,15.000 16.609,15.000 17.000 C 15.000 17.524,15.476 18.000,16.000 18.000 C 16.520 18.000,17.000 17.520,17.000 17.000 C 17.000 16.598,16.688 16.173,16.310 16.061 C 16.062 15.987,15.919 15.988,15.673 16.063 " stroke="none" fill-rule="evenodd" fill="black"></path></svg>