<svg width="24" height="24" viewBox="0 0 24 24" fill="none" xmlns="http://www.w3.org/2000/svg"><path d="M9.020 1.279 C 6.976 1.330,5.856 1.466,4.900 1.779 C 3.060 2.382,1.958 3.688,1.563 5.734 C 1.311 7.042,1.267 7.973,1.267 12.000 C 1.267 16.027,1.311 16.958,1.563 18.266 C 1.985 20.454,3.219 21.800,5.294 22.337 C 6.243 22.583,7.141 22.668,9.360 22.724 C 11.227 22.772,15.084 22.746,16.200 22.678 C 18.847 22.518,20.292 21.989,21.281 20.820 C 22.164 19.777,22.531 18.548,22.686 16.120 C 22.750 15.118,22.750 8.882,22.686 7.880 C 22.531 5.452,22.164 4.223,21.281 3.180 C 20.290 2.008,18.838 1.479,16.180 1.321 C 15.262 1.267,10.607 1.239,9.020 1.279 M16.600 2.836 C 18.439 3.019,19.320 3.320,20.000 4.000 C 20.692 4.693,20.998 5.605,21.168 7.480 C 21.242 8.307,21.242 15.693,21.168 16.520 C 20.996 18.419,20.693 19.311,19.982 20.013 C 19.218 20.769,18.155 21.080,15.940 21.199 C 14.954 21.252,9.046 21.252,8.060 21.199 C 5.843 21.080,4.782 20.769,4.016 20.011 C 3.342 19.345,3.026 18.464,2.852 16.760 C 2.788 16.135,2.780 15.620,2.781 11.980 C 2.782 7.664,2.793 7.353,2.984 6.240 C 3.180 5.095,3.595 4.290,4.255 3.774 C 5.013 3.181,6.042 2.914,8.002 2.802 C 8.872 2.752,16.044 2.780,16.600 2.836 M7.720 5.805 C 7.665 5.827,7.569 5.893,7.506 5.952 C 7.280 6.167,7.263 6.239,7.247 7.030 L 7.232 7.760 6.539 7.760 C 5.800 7.760,5.688 7.781,5.506 7.953 C 5.339 8.111,5.269 8.273,5.269 8.500 C 5.269 8.727,5.339 8.889,5.506 9.047 C 5.688 9.219,5.800 9.240,6.539 9.240 L 7.232 9.240 7.247 9.970 C 7.263 10.761,7.280 10.834,7.506 11.047 C 7.647 11.181,7.799 11.240,8.000 11.240 C 8.201 11.240,8.353 11.181,8.494 11.047 C 8.720 10.834,8.737 10.761,8.753 9.970 L 8.768 9.240 9.461 9.240 C 10.200 9.240,10.312 9.219,10.494 9.047 C 10.661 8.889,10.731 8.727,10.731 8.500 C 10.731 8.273,10.661 8.111,10.494 7.953 C 10.312 7.781,10.200 7.760,9.461 7.760 L 8.768 7.760 8.753 7.030 C 8.737 6.239,8.720 6.166,8.494 5.953 C 8.431 5.893,8.329 5.826,8.267 5.803 C 8.129 5.750,7.854 5.751,7.720 5.805 M13.720 7.805 C 13.458 7.909,13.269 8.200,13.269 8.500 C 13.269 8.807,13.460 9.095,13.733 9.197 C 13.807 9.226,14.575 9.240,16.000 9.240 C 17.425 9.240,18.193 9.226,18.267 9.197 C 18.540 9.095,18.731 8.807,18.731 8.500 C 18.731 8.193,18.540 7.905,18.267 7.803 C 18.119 7.746,13.862 7.748,13.720 7.805 M6.180 13.835 C 5.990 13.923,5.904 14.012,5.822 14.210 C 5.743 14.398,5.743 14.602,5.822 14.791 C 5.858 14.880,6.096 15.154,6.411 15.470 L 6.939 16.000 6.411 16.530 C 5.865 17.079,5.759 17.237,5.761 17.509 C 5.762 17.682,5.873 17.948,5.986 18.048 C 6.102 18.151,6.340 18.240,6.500 18.240 C 6.763 18.240,6.926 18.131,7.470 17.589 L 8.000 17.061 8.530 17.589 C 9.079 18.135,9.237 18.241,9.509 18.239 C 9.682 18.238,9.948 18.127,10.048 18.014 C 10.151 17.898,10.240 17.660,10.240 17.500 C 10.240 17.237,10.131 17.074,9.589 16.530 L 9.061 16.000 9.589 15.470 C 10.131 14.926,10.240 14.763,10.240 14.500 C 10.240 14.340,10.151 14.102,10.048 13.986 C 9.948 13.873,9.682 13.762,9.509 13.761 C 9.237 13.759,9.079 13.865,8.530 14.411 L 8.000 14.939 7.470 14.411 C 7.154 14.096,6.880 13.858,6.791 13.822 C 6.595 13.740,6.376 13.745,6.180 13.835 M13.720 13.805 C 13.458 13.909,13.269 14.200,13.269 14.500 C 13.269 14.807,13.460 15.095,13.733 15.197 C 13.807 15.226,14.575 15.240,16.000 15.240 C 17.425 15.240,18.193 15.226,18.267 15.197 C 18.540 15.095,18.731 14.807,18.731 14.500 C 18.731 14.193,18.540 13.905,18.267 13.803 C 18.119 13.746,13.862 13.748,13.720 13.805 M13.720 16.805 C 13.458 16.909,13.269 17.200,13.269 17.500 C 13.269 17.807,13.460 18.095,13.733 18.197 C 13.807 18.226,14.575 18.240,16.000 18.240 C 17.425 18.240,18.193 18.226,18.267 18.197 C 18.540 18.095,18.731 17.807,18.731 17.500 C 18.731 17.193,18.540 16.905,18.267 16.803 C 18.119 16.746,13.862 16.748,13.720 16.805 " stroke="none" fill-rule="evenodd" fill="black"></path></svg>