<svg width="24" height="24" viewBox="0 0 24 24" fill="none" xmlns="http://www.w3.org/2000/svg"><path d="M6.720 1.805 C 6.665 1.827,6.569 1.893,6.506 1.952 C 6.300 2.148,6.266 2.260,6.248 2.810 C 6.228 3.399,6.299 3.328,5.660 3.398 C 3.281 3.660,1.962 4.775,1.518 6.899 C 1.312 7.887,1.242 9.431,1.242 13.000 C 1.242 16.481,1.312 18.106,1.505 19.060 C 1.842 20.734,2.771 21.827,4.273 22.318 C 5.402 22.686,6.664 22.758,12.000 22.758 C 17.336 22.758,18.598 22.686,19.727 22.318 C 21.002 21.901,21.880 21.036,22.302 19.779 C 22.662 18.706,22.758 17.280,22.758 13.000 C 22.758 9.438,22.687 7.884,22.482 6.899 C 22.038 4.775,20.719 3.660,18.340 3.398 C 17.701 3.328,17.772 3.399,17.752 2.810 C 17.734 2.260,17.700 2.148,17.494 1.953 C 17.217 1.691,16.783 1.691,16.506 1.953 C 16.303 2.145,16.266 2.262,16.248 2.780 L 16.231 3.260 12.000 3.260 L 7.769 3.260 7.752 2.780 C 7.734 2.262,7.697 2.145,7.494 1.953 C 7.431 1.893,7.329 1.826,7.267 1.803 C 7.129 1.750,6.854 1.751,6.720 1.805 M17.341 4.802 C 19.644 4.953,20.523 5.467,20.939 6.901 C 21.038 7.242,21.160 7.927,21.160 8.140 L 21.160 8.240 12.000 8.240 L 2.840 8.240 2.841 8.130 C 2.843 7.834,2.990 7.075,3.116 6.710 C 3.551 5.451,4.467 4.945,6.560 4.805 C 7.314 4.754,16.579 4.752,17.341 4.802 M21.240 13.231 C 21.240 17.442,21.201 18.194,20.939 19.099 C 20.553 20.431,19.751 20.967,17.840 21.167 C 17.116 21.244,6.884 21.244,6.160 21.167 C 3.843 20.924,3.108 20.206,2.835 17.920 C 2.806 17.672,2.784 16.186,2.772 13.650 L 2.754 9.760 11.997 9.760 L 21.240 9.760 21.240 13.231 M6.673 12.063 C 6.312 12.174,6.000 12.609,6.000 13.000 C 6.000 13.524,6.476 14.000,7.000 14.000 C 7.520 14.000,8.000 13.520,8.000 13.000 C 8.000 12.598,7.688 12.173,7.310 12.061 C 7.062 11.987,6.919 11.988,6.673 12.063 M11.673 12.063 C 11.312 12.174,11.000 12.609,11.000 13.000 C 11.000 13.524,11.476 14.000,12.000 14.000 C 12.520 14.000,13.000 13.520,13.000 13.000 C 13.000 12.598,12.688 12.173,12.310 12.061 C 12.062 11.987,11.919 11.988,11.673 12.063 M16.673 12.063 C 16.312 12.174,16.000 12.609,16.000 13.000 C 16.000 13.524,16.476 14.000,17.000 14.000 C 17.520 14.000,18.000 13.520,18.000 13.000 C 18.000 12.598,17.688 12.173,17.310 12.061 C 17.062 11.987,16.919 11.988,16.673 12.063 M6.673 16.063 C 6.312 16.174,6.000 16.609,6.000 17.000 C 6.000 17.524,6.476 18.000,7.000 18.000 C 7.520 18.000,8.000 17.520,8.000 17.000 C 8.000 16.598,7.688 16.173,7.310 16.061 C 7.062 15.987,6.919 15.988,6.673 16.063 M11.673 16.063 C 11.312 16.174,11.000 16.609,11.000 17.000 C 11.000 17.524,11.476 18.000,12.000 18.000 C 12.520 18.000,13.000 17.520,13.000 17.000 C 13.000 16.598,12.688 16.173,12.310 16.061 C 12.062 15.987,11.919 15.988,11.673 16.063 M16.673 16.063 C 16.312 16.174,16.000 16.609,16.000 17.000 C 16.000 17.524,16.476 18.000,17.000 18.000 C 17.520 18.000,18.000 17.520,18.000 17.000 C 18.000 16.598,17.688 16.173,17.310 16.061 C 17.062 15.987,16.919 15.988,16.673 16.063 " stroke="none" fill-rule="evenodd" fill="black"></path></svg>