<svg width="24" height="24" viewBox="0 0 24 24" fill="none" xmlns="http://www.w3.org/2000/svg"><path d="M6.720 1.805 C 6.665 1.827,6.569 1.893,6.506 1.952 C 6.300 2.148,6.266 2.260,6.248 2.810 C 6.228 3.399,6.299 3.328,5.660 3.398 C 3.281 3.660,1.962 4.775,1.518 6.899 C 1.312 7.887,1.242 9.431,1.242 13.000 C 1.242 16.481,1.312 18.106,1.505 19.060 C 1.842 20.734,2.771 21.827,4.273 22.318 C 5.402 22.686,6.664 22.758,12.000 22.758 C 17.336 22.758,18.598 22.686,19.727 22.318 C 21.002 21.901,21.880 21.036,22.302 19.779 C 22.662 18.706,22.758 17.280,22.758 13.000 C 22.758 9.438,22.687 7.884,22.482 6.899 C 22.038 4.775,20.719 3.660,18.340 3.398 C 17.701 3.328,17.772 3.399,17.752 2.810 C 17.734 2.260,17.700 2.148,17.494 1.953 C 17.217 1.691,16.783 1.691,16.506 1.953 C 16.303 2.145,16.266 2.262,16.248 2.780 L 16.231 3.260 12.000 3.260 L 7.769 3.260 7.752 2.780 C 7.734 2.262,7.697 2.145,7.494 1.953 C 7.431 1.893,7.329 1.826,7.267 1.803 C 7.129 1.750,6.854 1.751,6.720 1.805 M17.341 4.802 C 19.644 4.953,20.523 5.467,20.939 6.901 C 21.038 7.242,21.160 7.927,21.160 8.140 L 21.160 8.240 12.000 8.240 L 2.840 8.240 2.841 8.130 C 2.843 7.834,2.990 7.075,3.116 6.710 C 3.551 5.451,4.467 4.945,6.560 4.805 C 7.314 4.754,16.579 4.752,17.341 4.802 M21.240 13.231 C 21.240 17.442,21.201 18.194,20.939 19.099 C 20.553 20.431,19.751 20.967,17.840 21.167 C 17.116 21.244,6.884 21.244,6.160 21.167 C 3.843 20.924,3.108 20.206,2.835 17.920 C 2.806 17.672,2.784 16.186,2.772 13.650 L 2.754 9.760 11.997 9.760 L 21.240 9.760 21.240 13.231 M15.826 13.286 C 15.625 13.331,15.468 13.445,15.353 13.631 C 15.266 13.770,15.259 13.829,15.246 14.506 L 15.232 15.232 14.526 15.246 C 13.716 15.262,13.590 15.300,13.383 15.592 C 13.286 15.730,13.267 15.797,13.267 15.993 C 13.267 16.279,13.372 16.474,13.612 16.633 C 13.770 16.738,13.790 16.740,14.503 16.754 L 15.232 16.768 15.246 17.497 C 15.260 18.210,15.262 18.230,15.367 18.388 C 15.526 18.628,15.721 18.733,16.007 18.733 C 16.203 18.733,16.270 18.714,16.408 18.617 C 16.700 18.410,16.738 18.284,16.754 17.474 L 16.768 16.768 17.494 16.754 C 18.171 16.741,18.230 16.734,18.369 16.647 C 18.943 16.290,18.812 15.424,18.162 15.284 C 18.049 15.260,17.687 15.240,17.358 15.240 L 16.760 15.240 16.759 14.630 C 16.758 14.295,16.739 13.939,16.717 13.841 C 16.622 13.428,16.243 13.192,15.826 13.286 " stroke="none" fill-rule="evenodd" fill="black"></path></svg>