<svg width="24" height="24" viewBox="0 0 24 24" fill="none" xmlns="http://www.w3.org/2000/svg"><path d="M6.720 1.805 C 6.665 1.827,6.569 1.893,6.506 1.952 C 6.300 2.148,6.266 2.260,6.248 2.810 C 6.228 3.399,6.299 3.328,5.660 3.398 C 3.281 3.660,1.962 4.775,1.518 6.899 C 1.312 7.887,1.242 9.431,1.242 13.000 C 1.242 16.481,1.312 18.106,1.505 19.060 C 1.888 20.965,3.035 22.112,4.940 22.495 C 5.942 22.697,7.901 22.771,11.740 22.752 L 14.220 22.740 14.369 22.647 C 14.870 22.336,14.849 21.592,14.332 21.336 C 14.187 21.264,13.999 21.259,10.340 21.236 C 7.837 21.220,6.361 21.196,6.100 21.165 C 3.824 20.901,3.106 20.187,2.835 17.920 C 2.806 17.672,2.784 16.186,2.772 13.650 L 2.754 9.760 11.996 9.760 L 21.237 9.760 21.248 11.993 L 21.260 14.226 21.367 14.388 C 21.526 14.628,21.721 14.733,22.007 14.733 C 22.203 14.733,22.270 14.714,22.408 14.617 C 22.499 14.553,22.610 14.428,22.656 14.340 C 22.736 14.188,22.741 14.109,22.753 12.780 C 22.768 11.046,22.699 8.425,22.620 7.767 C 22.441 6.284,22.084 5.403,21.365 4.669 C 20.668 3.956,19.695 3.548,18.340 3.398 C 17.701 3.328,17.772 3.399,17.752 2.810 C 17.734 2.260,17.700 2.148,17.494 1.953 C 17.217 1.691,16.783 1.691,16.506 1.953 C 16.303 2.145,16.266 2.262,16.248 2.780 L 16.231 3.260 12.000 3.260 L 7.769 3.260 7.752 2.780 C 7.734 2.262,7.697 2.145,7.494 1.953 C 7.431 1.893,7.329 1.826,7.267 1.803 C 7.129 1.750,6.854 1.751,6.720 1.805 M17.341 4.802 C 19.644 4.953,20.523 5.467,20.939 6.901 C 21.038 7.242,21.160 7.927,21.160 8.140 L 21.160 8.240 12.000 8.240 L 2.840 8.240 2.841 8.130 C 2.843 7.834,2.990 7.075,3.116 6.710 C 3.551 5.451,4.467 4.945,6.560 4.805 C 7.314 4.754,16.579 4.752,17.341 4.802 M17.760 14.268 C 16.460 14.358,15.330 15.080,14.719 16.212 C 14.400 16.803,14.271 17.320,14.271 18.000 C 14.271 18.680,14.400 19.197,14.719 19.788 C 15.118 20.527,15.658 21.029,16.452 21.400 C 17.038 21.674,17.707 21.785,18.361 21.718 C 18.888 21.663,19.201 21.573,19.664 21.341 L 20.075 21.135 20.788 21.849 C 21.179 22.242,21.561 22.602,21.636 22.649 C 21.826 22.768,22.177 22.766,22.374 22.644 C 22.659 22.467,22.784 22.159,22.711 21.811 C 22.673 21.635,22.611 21.560,21.900 20.840 L 21.129 20.060 21.264 19.820 C 21.580 19.259,21.727 18.690,21.729 18.020 C 21.730 17.323,21.603 16.810,21.281 16.212 C 20.832 15.380,20.123 14.780,19.214 14.462 C 18.803 14.319,18.198 14.238,17.760 14.268 M18.578 15.821 C 18.949 15.918,19.274 16.112,19.581 16.419 C 20.041 16.879,20.240 17.356,20.240 18.000 C 20.240 18.644,20.041 19.121,19.581 19.581 C 19.121 20.041,18.644 20.240,18.000 20.240 C 17.356 20.240,16.879 20.041,16.419 19.581 C 15.959 19.121,15.760 18.644,15.760 18.000 C 15.760 17.356,15.959 16.879,16.419 16.419 C 16.719 16.118,17.050 15.919,17.404 15.823 C 17.692 15.746,18.285 15.745,18.578 15.821 " stroke="none" fill-rule="evenodd" fill="black"></path></svg>