<svg width="24" height="24" viewBox="0 0 24 24" fill="none" xmlns="http://www.w3.org/2000/svg"><path d="M16.533 1.282 C 13.363 1.542,11.007 4.329,11.283 7.493 C 11.341 8.169,11.545 8.940,11.793 9.426 L 11.875 9.587 11.709 10.184 C 11.489 10.979,11.480 11.300,11.670 11.687 C 11.823 11.996,12.040 12.207,12.355 12.353 C 12.705 12.515,13.065 12.500,13.816 12.291 L 14.413 12.125 14.574 12.207 C 15.540 12.700,16.983 12.864,18.189 12.618 C 19.103 12.431,20.073 11.944,20.787 11.313 C 22.543 9.763,23.184 7.323,22.418 5.105 C 21.771 3.233,20.117 1.776,18.189 1.383 C 17.932 1.330,16.989 1.229,16.920 1.246 C 16.909 1.249,16.735 1.265,16.533 1.282 M18.020 2.873 C 18.575 3.029,18.918 3.182,19.350 3.468 C 19.982 3.884,20.592 4.604,20.869 5.260 C 21.183 6.001,21.218 6.174,21.218 7.000 C 21.218 7.544,21.202 7.758,21.147 7.960 C 20.753 9.413,19.807 10.479,18.460 10.988 C 18.056 11.141,17.720 11.205,17.211 11.228 C 16.418 11.263,15.962 11.175,15.174 10.835 C 14.643 10.606,14.327 10.598,13.608 10.795 C 13.338 10.869,13.106 10.919,13.093 10.907 C 13.081 10.894,13.131 10.662,13.205 10.392 C 13.402 9.676,13.393 9.361,13.162 8.820 C 12.822 8.023,12.737 7.581,12.772 6.789 C 12.798 6.205,12.866 5.900,13.090 5.349 C 13.580 4.149,14.744 3.163,16.020 2.867 C 16.458 2.766,16.465 2.765,17.120 2.780 C 17.581 2.790,17.812 2.814,18.020 2.873 M16.815 4.277 C 16.638 4.321,16.461 4.456,16.353 4.631 C 16.266 4.770,16.259 4.829,16.246 5.506 L 16.232 6.232 15.503 6.246 C 14.790 6.260,14.770 6.262,14.612 6.367 C 14.372 6.526,14.267 6.721,14.267 7.007 C 14.267 7.203,14.286 7.270,14.383 7.408 C 14.590 7.700,14.716 7.738,15.526 7.754 L 16.232 7.768 16.246 8.494 C 16.259 9.171,16.266 9.230,16.353 9.369 C 16.710 9.943,17.576 9.812,17.716 9.162 C 17.740 9.049,17.760 8.687,17.760 8.358 L 17.760 7.760 18.358 7.760 C 19.121 7.760,19.321 7.719,19.520 7.520 C 19.918 7.122,19.730 6.423,19.189 6.286 C 19.087 6.261,18.725 6.240,18.382 6.240 L 17.760 6.240 17.759 5.630 C 17.758 4.950,17.720 4.720,17.580 4.536 C 17.421 4.327,17.078 4.211,16.815 4.277 M5.339 5.281 C 4.084 5.413,2.951 6.204,2.068 7.564 C 1.386 8.614,1.183 9.475,1.280 10.911 C 1.464 13.634,2.638 16.186,4.745 18.443 C 6.999 20.859,9.611 22.290,12.443 22.663 C 13.153 22.756,14.280 22.756,14.720 22.663 C 15.345 22.530,15.838 22.321,16.436 21.932 C 18.068 20.872,18.848 19.506,18.716 17.936 C 18.622 16.830,18.047 15.915,17.079 15.336 C 16.394 14.927,15.612 14.519,15.323 14.421 C 14.951 14.295,14.387 14.223,14.019 14.256 C 13.159 14.334,12.461 14.645,11.706 15.289 C 11.561 15.413,11.536 15.420,11.246 15.418 C 10.887 15.415,10.633 15.316,10.205 15.011 C 9.865 14.769,9.231 14.136,8.989 13.795 C 8.679 13.360,8.581 13.111,8.581 12.754 C 8.580 12.465,8.588 12.439,8.711 12.294 C 9.034 11.915,9.224 11.634,9.385 11.298 C 9.790 10.450,9.860 9.501,9.580 8.672 C 9.488 8.399,9.068 7.596,8.664 6.921 C 8.099 5.978,7.226 5.414,6.121 5.281 C 5.754 5.237,5.755 5.237,5.339 5.281 M6.267 6.816 C 6.848 6.971,7.128 7.231,7.588 8.043 C 8.187 9.103,8.246 9.257,8.243 9.753 C 8.239 10.303,8.072 10.719,7.650 11.225 C 7.190 11.775,7.055 12.176,7.092 12.880 C 7.132 13.659,7.432 14.291,8.165 15.141 C 8.835 15.919,9.624 16.500,10.380 16.774 C 10.631 16.865,10.791 16.894,11.121 16.910 C 11.828 16.943,12.227 16.808,12.775 16.350 C 13.441 15.795,14.169 15.614,14.836 15.839 C 15.103 15.929,16.254 16.559,16.565 16.785 C 17.000 17.101,17.239 17.625,17.240 18.262 C 17.241 19.095,16.831 19.774,15.904 20.478 C 15.469 20.808,14.986 21.056,14.571 21.162 C 14.336 21.222,14.130 21.240,13.661 21.240 C 11.213 21.240,8.749 20.176,6.620 18.199 C 4.686 16.403,3.426 14.339,2.957 12.197 C 2.747 11.238,2.694 9.991,2.839 9.423 C 3.001 8.791,3.384 8.175,3.999 7.558 C 4.408 7.148,4.704 6.960,5.140 6.835 C 5.434 6.750,5.985 6.741,6.267 6.816 " stroke="none" fill-rule="evenodd" fill="black"></path></svg>