<svg width="24" height="24" viewBox="0 0 24 24" fill="none" xmlns="http://www.w3.org/2000/svg"><path d="M6.320 2.278 C 5.839 2.346,5.386 2.539,5.016 2.831 C 4.768 3.027,3.042 4.842,2.852 5.106 C 2.378 5.767,2.202 6.439,2.280 7.285 C 2.537 10.076,3.886 13.000,6.199 15.780 C 8.423 18.452,10.816 20.232,13.376 21.116 C 14.628 21.548,15.668 21.730,16.900 21.730 C 18.011 21.730,18.400 21.634,19.030 21.207 C 19.249 21.058,20.715 19.579,21.066 19.153 C 21.700 18.383,21.902 17.369,21.616 16.398 C 21.453 15.841,21.037 15.235,20.591 14.900 C 20.180 14.592,18.168 13.456,17.812 13.331 C 17.534 13.234,17.443 13.222,16.980 13.221 C 16.541 13.220,16.416 13.234,16.180 13.313 C 15.719 13.466,15.412 13.664,14.976 14.087 C 14.621 14.433,14.556 14.480,14.433 14.480 C 13.707 14.480,12.236 13.349,10.954 11.805 C 10.206 10.904,9.760 10.047,9.760 9.512 C 9.760 9.329,9.777 9.298,10.042 8.989 C 10.576 8.366,10.781 7.806,10.777 6.980 C 10.775 6.504,10.764 6.428,10.649 6.091 C 10.579 5.888,10.454 5.609,10.370 5.471 C 10.189 5.175,9.112 3.649,8.831 3.292 C 8.267 2.575,7.216 2.151,6.320 2.278 M14.807 3.287 C 14.558 3.343,14.341 3.571,14.284 3.838 C 14.203 4.215,14.260 6.906,14.360 7.460 C 14.553 8.519,15.102 9.205,15.992 9.495 C 16.455 9.647,16.713 9.683,17.480 9.708 C 17.865 9.721,18.212 9.743,18.252 9.757 C 18.309 9.778,18.233 9.855,17.887 10.131 C 17.647 10.322,17.423 10.521,17.389 10.573 C 17.190 10.875,17.228 11.268,17.480 11.520 C 17.751 11.791,18.156 11.813,18.471 11.576 C 18.875 11.270,20.991 9.559,21.067 9.476 C 21.300 9.221,21.300 8.779,21.067 8.524 C 20.991 8.441,18.875 6.730,18.471 6.424 C 17.790 5.911,16.922 6.715,17.389 7.427 C 17.423 7.479,17.648 7.679,17.890 7.871 L 18.329 8.220 17.934 8.233 C 17.413 8.249,16.727 8.177,16.458 8.076 C 15.860 7.852,15.761 7.455,15.759 5.292 C 15.758 4.564,15.740 3.943,15.717 3.841 C 15.620 3.420,15.241 3.189,14.807 3.287 M7.219 3.879 C 7.513 4.022,7.671 4.205,8.418 5.261 C 9.262 6.455,9.381 6.729,9.286 7.248 C 9.223 7.584,9.104 7.801,8.792 8.143 C 8.469 8.498,8.343 8.743,8.279 9.140 C 8.093 10.308,8.907 11.888,10.610 13.660 C 11.700 14.796,12.742 15.542,13.660 15.847 C 13.894 15.925,14.022 15.940,14.440 15.939 C 15.150 15.938,15.283 15.880,15.860 15.318 C 16.349 14.842,16.531 14.730,16.870 14.695 C 17.208 14.660,17.399 14.741,18.580 15.421 C 19.721 16.077,19.933 16.245,20.110 16.631 C 20.260 16.956,20.282 17.448,20.162 17.766 C 20.051 18.063,19.981 18.147,19.015 19.148 C 17.965 20.235,18.003 20.214,17.069 20.234 C 16.035 20.256,15.136 20.121,14.124 19.793 C 12.192 19.166,10.429 18.031,8.700 16.299 C 6.209 13.805,4.528 10.998,3.959 8.380 C 3.719 7.280,3.701 6.663,3.895 6.267 C 4.017 6.018,4.478 5.497,5.484 4.474 C 6.144 3.802,6.226 3.756,6.720 3.772 C 6.943 3.779,7.071 3.806,7.219 3.879 " stroke="none" fill-rule="evenodd" fill="black"></path></svg>