<svg width="24" height="24" viewBox="0 0 24 24" fill="none" xmlns="http://www.w3.org/2000/svg"><path d="M16.533 1.282 C 13.363 1.542,11.007 4.329,11.283 7.493 C 11.341 8.169,11.545 8.940,11.793 9.426 L 11.875 9.587 11.709 10.184 C 11.489 10.979,11.480 11.300,11.670 11.687 C 11.823 11.996,12.040 12.207,12.355 12.353 C 12.705 12.515,13.065 12.500,13.816 12.291 L 14.413 12.125 14.574 12.207 C 15.540 12.700,16.983 12.864,18.189 12.618 C 19.103 12.431,20.073 11.944,20.787 11.313 C 22.543 9.763,23.184 7.323,22.418 5.105 C 21.771 3.233,20.117 1.776,18.189 1.383 C 17.932 1.330,16.989 1.229,16.920 1.246 C 16.909 1.249,16.735 1.265,16.533 1.282 M18.020 2.873 C 18.575 3.029,18.918 3.182,19.350 3.468 C 19.982 3.884,20.592 4.604,20.869 5.260 C 21.183 6.001,21.218 6.174,21.218 7.000 C 21.218 7.544,21.202 7.758,21.147 7.960 C 20.753 9.413,19.807 10.479,18.460 10.988 C 18.056 11.141,17.720 11.205,17.211 11.228 C 16.418 11.263,15.962 11.175,15.174 10.835 C 14.643 10.606,14.327 10.598,13.608 10.795 C 13.338 10.869,13.106 10.919,13.093 10.907 C 13.081 10.894,13.131 10.662,13.205 10.392 C 13.402 9.676,13.393 9.361,13.162 8.820 C 12.822 8.023,12.737 7.581,12.772 6.789 C 12.798 6.205,12.866 5.900,13.090 5.349 C 13.580 4.149,14.744 3.163,16.020 2.867 C 16.458 2.766,16.465 2.765,17.120 2.780 C 17.581 2.790,17.812 2.814,18.020 2.873 M5.320 3.278 C 4.839 3.346,4.386 3.539,4.016 3.831 C 3.768 4.027,2.042 5.842,1.852 6.106 C 1.378 6.767,1.202 7.439,1.280 8.285 C 1.537 11.076,2.886 14.000,5.199 16.780 C 7.423 19.452,9.816 21.232,12.376 22.116 C 13.628 22.548,14.668 22.730,15.900 22.730 C 17.011 22.730,17.400 22.634,18.030 22.207 C 18.249 22.058,19.715 20.579,20.066 20.153 C 20.700 19.383,20.902 18.369,20.616 17.398 C 20.453 16.841,20.037 16.235,19.591 15.900 C 19.180 15.592,17.168 14.456,16.812 14.331 C 16.534 14.234,16.443 14.222,15.980 14.221 C 15.541 14.220,15.416 14.234,15.180 14.313 C 14.719 14.466,14.412 14.664,13.976 15.087 C 13.621 15.433,13.556 15.480,13.433 15.480 C 12.707 15.480,11.236 14.349,9.954 12.805 C 9.206 11.904,8.760 11.047,8.760 10.512 C 8.760 10.329,8.777 10.298,9.042 9.989 C 9.576 9.366,9.781 8.806,9.777 7.980 C 9.775 7.504,9.764 7.428,9.649 7.091 C 9.579 6.888,9.454 6.609,9.370 6.471 C 9.189 6.175,8.112 4.649,7.831 4.292 C 7.267 3.575,6.216 3.151,5.320 3.278 M6.219 4.879 C 6.513 5.022,6.671 5.205,7.418 6.261 C 8.262 7.455,8.381 7.729,8.286 8.248 C 8.223 8.584,8.104 8.801,7.792 9.143 C 7.469 9.498,7.343 9.743,7.279 10.140 C 7.093 11.308,7.907 12.888,9.610 14.660 C 10.700 15.796,11.742 16.542,12.660 16.847 C 12.894 16.925,13.022 16.940,13.440 16.939 C 14.150 16.938,14.283 16.880,14.860 16.318 C 15.349 15.842,15.531 15.730,15.870 15.695 C 16.208 15.660,16.399 15.741,17.580 16.421 C 18.721 17.077,18.933 17.245,19.110 17.631 C 19.260 17.956,19.282 18.448,19.162 18.766 C 19.051 19.063,18.981 19.147,18.015 20.148 C 16.965 21.235,17.003 21.214,16.069 21.234 C 15.035 21.256,14.136 21.121,13.124 20.793 C 11.192 20.166,9.429 19.031,7.700 17.299 C 5.209 14.805,3.528 11.998,2.959 9.380 C 2.719 8.280,2.701 7.663,2.895 7.267 C 3.017 7.018,3.478 6.497,4.484 5.474 C 5.144 4.802,5.226 4.756,5.720 4.772 C 5.943 4.779,6.071 4.806,6.219 4.879 " stroke="none" fill-rule="evenodd" fill="black"></path></svg>