<svg width="24" height="24" viewBox="0 0 24 24" fill="none" xmlns="http://www.w3.org/2000/svg"><path d="M9.990 2.280 C 9.089 2.391,8.249 2.985,7.841 3.800 C 7.730 4.022,7.681 4.160,7.601 4.468 C 7.552 4.661,7.401 4.857,7.238 4.941 C 7.169 4.977,6.894 5.016,6.533 5.042 C 4.728 5.171,3.757 5.540,2.806 6.455 C 1.975 7.256,1.564 8.129,1.381 9.480 C 1.218 10.691,1.218 16.023,1.381 17.240 C 1.567 18.627,1.968 19.465,2.844 20.301 C 3.651 21.072,4.497 21.447,5.820 21.620 C 6.504 21.710,8.662 21.758,12.000 21.758 C 15.338 21.758,17.496 21.710,18.180 21.620 C 19.503 21.447,20.349 21.072,21.156 20.301 C 22.032 19.465,22.433 18.627,22.619 17.240 C 22.782 16.028,22.781 10.693,22.618 9.480 C 22.438 8.135,22.023 7.255,21.194 6.455 C 20.243 5.540,19.272 5.171,17.467 5.042 C 17.106 5.016,16.831 4.977,16.762 4.941 C 16.599 4.857,16.448 4.661,16.399 4.468 C 16.314 4.139,16.269 4.017,16.135 3.760 C 15.784 3.083,15.120 2.556,14.340 2.334 C 14.132 2.275,13.848 2.265,12.180 2.257 C 11.124 2.252,10.139 2.262,9.990 2.280 M14.220 3.887 C 14.461 4.016,14.700 4.243,14.798 4.437 C 14.838 4.516,14.917 4.734,14.974 4.922 C 15.152 5.510,15.545 5.995,16.063 6.265 C 16.380 6.431,16.553 6.468,17.260 6.519 C 18.878 6.637,19.462 6.851,20.201 7.596 C 20.887 8.287,21.107 8.900,21.200 10.380 C 21.252 11.214,21.251 15.515,21.199 16.340 C 21.106 17.806,20.894 18.417,20.245 19.094 C 19.602 19.765,19.039 20.012,17.800 20.167 C 17.471 20.209,16.202 20.220,11.960 20.220 C 7.035 20.220,6.496 20.214,6.060 20.151 C 4.917 19.986,4.450 19.781,3.827 19.168 C 3.130 18.484,2.896 17.838,2.801 16.340 C 2.749 15.515,2.748 11.214,2.800 10.380 C 2.864 9.370,2.981 8.832,3.253 8.300 C 3.382 8.047,3.501 7.896,3.818 7.580 C 4.039 7.360,4.324 7.119,4.451 7.045 C 4.946 6.754,5.609 6.602,6.740 6.519 C 7.447 6.468,7.620 6.431,7.937 6.265 C 8.455 5.994,8.843 5.516,9.023 4.925 C 9.081 4.735,9.164 4.510,9.208 4.425 C 9.341 4.165,9.677 3.898,10.000 3.797 C 10.055 3.779,10.982 3.769,12.060 3.773 L 14.020 3.780 14.220 3.887 M14.335 8.278 C 14.045 8.347,13.827 8.603,13.779 8.930 C 13.764 9.035,13.743 9.120,13.734 9.120 C 13.725 9.120,13.610 9.075,13.477 9.019 C 13.007 8.821,12.591 8.746,11.980 8.748 C 11.511 8.750,11.357 8.767,11.029 8.853 C 9.649 9.216,8.577 10.288,8.213 11.669 C 8.124 12.003,8.109 12.144,8.109 12.640 C 8.109 13.136,8.124 13.277,8.213 13.611 C 8.577 14.992,9.648 16.063,11.029 16.427 C 11.363 16.516,11.504 16.531,12.000 16.531 C 12.495 16.531,12.637 16.516,12.968 16.428 C 14.109 16.127,15.065 15.336,15.545 14.298 C 15.721 13.916,15.880 13.303,15.880 13.005 C 15.879 12.218,14.845 11.969,14.484 12.668 C 14.459 12.717,14.411 12.897,14.376 13.068 C 14.278 13.557,14.051 13.986,13.709 14.331 C 13.374 14.669,13.171 14.797,12.741 14.941 C 12.298 15.090,11.702 15.090,11.259 14.941 C 10.866 14.809,10.650 14.682,10.358 14.411 C 10.050 14.127,9.850 13.817,9.708 13.406 C 9.608 13.116,9.592 13.008,9.592 12.643 C 9.592 11.977,9.786 11.475,10.229 10.998 C 10.763 10.421,11.500 10.153,12.305 10.243 C 12.473 10.262,12.622 10.288,12.635 10.302 C 12.649 10.315,12.611 10.362,12.552 10.405 C 12.320 10.574,12.208 10.894,12.284 11.175 C 12.366 11.481,12.549 11.649,12.879 11.724 C 13.038 11.760,14.625 11.449,14.866 11.334 C 15.036 11.254,15.178 11.072,15.236 10.860 C 15.292 10.656,15.292 9.082,15.237 8.841 C 15.214 8.742,15.153 8.605,15.100 8.536 C 14.943 8.331,14.600 8.215,14.335 8.278 " stroke="none" fill-rule="evenodd" fill="black"></path></svg>