<svg width="24" height="24" viewBox="0 0 24 24" fill="none" xmlns="http://www.w3.org/2000/svg"><path d="M9.180 2.835 C 8.990 2.923,8.904 3.012,8.822 3.210 C 8.708 3.483,8.783 3.869,8.986 4.048 C 9.203 4.241,9.184 4.240,12.009 4.239 C 14.496 4.238,14.670 4.234,14.820 4.165 C 15.010 4.077,15.096 3.988,15.178 3.790 C 15.257 3.602,15.257 3.398,15.178 3.210 C 15.096 3.012,15.010 2.923,14.820 2.835 C 14.670 2.766,14.496 2.762,12.000 2.762 C 9.504 2.762,9.330 2.766,9.180 2.835 M7.900 5.280 C 6.493 5.324,5.965 5.395,5.223 5.643 C 4.597 5.852,4.106 6.176,3.576 6.729 C 2.761 7.579,2.440 8.413,2.315 10.005 C 2.251 10.831,2.251 15.165,2.316 15.995 C 2.439 17.575,2.759 18.414,3.559 19.256 C 4.436 20.179,5.327 20.549,7.005 20.687 C 7.876 20.758,16.124 20.758,16.995 20.687 C 18.581 20.557,19.418 20.237,20.256 19.441 C 21.181 18.563,21.554 17.661,21.684 15.995 C 21.749 15.166,21.749 10.830,21.684 10.005 C 21.554 8.338,21.180 7.437,20.256 6.559 C 19.432 5.776,18.572 5.442,17.060 5.318 C 16.413 5.265,9.340 5.235,7.900 5.280 M17.480 6.854 C 18.378 7.008,18.746 7.185,19.283 7.719 C 19.714 8.148,19.901 8.466,20.037 9.005 C 20.205 9.670,20.220 10.001,20.220 13.060 C 20.220 15.669,20.212 16.028,20.149 16.430 C 20.000 17.364,19.828 17.733,19.281 18.283 C 18.725 18.843,18.279 19.039,17.275 19.167 C 16.672 19.244,7.328 19.244,6.725 19.167 C 5.721 19.039,5.275 18.843,4.719 18.283 C 4.172 17.733,4.000 17.364,3.851 16.430 C 3.788 16.027,3.780 15.666,3.780 13.000 C 3.780 10.325,3.787 9.973,3.852 9.566 C 3.991 8.690,4.176 8.274,4.647 7.778 C 5.257 7.136,5.879 6.887,7.080 6.802 C 7.333 6.784,9.691 6.774,12.320 6.779 C 16.530 6.788,17.145 6.797,17.480 6.854 M11.740 9.266 C 10.415 9.385,9.327 10.085,8.719 11.212 C 8.400 11.803,8.271 12.320,8.271 13.000 C 8.271 13.682,8.400 14.197,8.721 14.792 C 9.078 15.453,9.549 15.923,10.212 16.281 C 10.803 16.600,11.320 16.729,12.000 16.729 C 12.680 16.729,13.197 16.600,13.788 16.281 C 14.451 15.923,14.922 15.453,15.279 14.792 C 15.600 14.197,15.729 13.682,15.729 13.000 C 15.729 12.320,15.600 11.803,15.281 11.212 C 14.832 10.381,14.122 9.779,13.215 9.463 C 12.793 9.316,12.149 9.230,11.740 9.266 M17.420 9.260 C 17.398 9.267,17.331 9.284,17.271 9.297 C 17.124 9.329,16.881 9.548,16.814 9.708 C 16.703 9.973,16.759 10.289,16.953 10.494 C 17.118 10.668,17.265 10.727,17.596 10.749 C 18.044 10.780,18.331 10.709,18.519 10.521 C 18.918 10.122,18.731 9.423,18.189 9.286 C 18.022 9.244,17.518 9.227,17.420 9.260 M12.578 10.821 C 12.949 10.918,13.274 11.112,13.581 11.419 C 14.041 11.879,14.240 12.356,14.240 13.000 C 14.240 13.644,14.041 14.121,13.581 14.581 C 13.121 15.041,12.644 15.240,12.000 15.240 C 11.356 15.240,10.879 15.041,10.419 14.581 C 9.959 14.121,9.760 13.644,9.760 13.000 C 9.760 12.356,9.959 11.879,10.419 11.419 C 10.719 11.118,11.050 10.919,11.404 10.823 C 11.692 10.746,12.285 10.745,12.578 10.821 " stroke="none" fill-rule="evenodd" fill="black"></path></svg>