<svg width="24" height="24" viewBox="0 0 24 24" fill="none" xmlns="http://www.w3.org/2000/svg"><path d="M9.990 2.280 C 9.089 2.391,8.249 2.985,7.841 3.800 C 7.730 4.022,7.681 4.160,7.601 4.468 C 7.552 4.661,7.401 4.857,7.238 4.941 C 7.169 4.977,6.894 5.016,6.533 5.042 C 4.728 5.171,3.757 5.540,2.806 6.455 C 1.975 7.256,1.564 8.129,1.381 9.480 C 1.218 10.691,1.218 16.023,1.381 17.240 C 1.567 18.627,1.968 19.465,2.844 20.301 C 3.651 21.072,4.497 21.447,5.820 21.620 C 6.504 21.710,8.662 21.758,12.000 21.758 C 15.338 21.758,17.496 21.710,18.180 21.620 C 19.503 21.447,20.349 21.072,21.156 20.301 C 22.032 19.465,22.433 18.627,22.619 17.240 C 22.782 16.028,22.781 10.693,22.618 9.480 C 22.438 8.135,22.023 7.255,21.194 6.455 C 20.243 5.540,19.272 5.171,17.467 5.042 C 17.106 5.016,16.831 4.977,16.762 4.941 C 16.599 4.857,16.448 4.661,16.399 4.468 C 16.314 4.139,16.269 4.017,16.135 3.760 C 15.784 3.083,15.120 2.556,14.340 2.334 C 14.132 2.275,13.848 2.265,12.180 2.257 C 11.124 2.252,10.139 2.262,9.990 2.280 M14.220 3.887 C 14.461 4.016,14.700 4.243,14.798 4.437 C 14.838 4.516,14.917 4.734,14.974 4.922 C 15.152 5.510,15.545 5.995,16.063 6.265 C 16.380 6.431,16.553 6.468,17.260 6.519 C 18.878 6.637,19.462 6.851,20.201 7.596 C 20.887 8.287,21.107 8.900,21.200 10.380 C 21.252 11.214,21.251 15.515,21.199 16.340 C 21.106 17.806,20.894 18.417,20.245 19.094 C 19.602 19.765,19.039 20.012,17.800 20.167 C 17.471 20.209,16.202 20.220,11.960 20.220 C 7.035 20.220,6.496 20.214,6.060 20.151 C 4.917 19.986,4.450 19.781,3.827 19.168 C 3.130 18.484,2.896 17.838,2.801 16.340 C 2.749 15.515,2.748 11.214,2.800 10.380 C 2.864 9.370,2.981 8.832,3.253 8.300 C 3.382 8.047,3.501 7.896,3.818 7.580 C 4.039 7.360,4.324 7.119,4.451 7.045 C 4.946 6.754,5.609 6.602,6.740 6.519 C 7.447 6.468,7.620 6.431,7.937 6.265 C 8.455 5.994,8.843 5.516,9.023 4.925 C 9.081 4.735,9.164 4.510,9.208 4.425 C 9.341 4.165,9.677 3.898,10.000 3.797 C 10.055 3.779,10.982 3.769,12.060 3.773 L 14.020 3.780 14.220 3.887 M11.815 9.277 C 11.638 9.321,11.461 9.456,11.353 9.631 C 11.262 9.777,11.260 9.804,11.247 11.007 L 11.235 12.235 10.004 12.247 L 8.774 12.260 8.612 12.367 C 8.372 12.526,8.267 12.721,8.267 13.007 C 8.267 13.203,8.286 13.270,8.383 13.408 C 8.610 13.729,8.656 13.738,10.027 13.753 L 11.235 13.765 11.247 14.993 C 11.260 16.196,11.262 16.223,11.353 16.369 C 11.710 16.943,12.576 16.812,12.716 16.162 C 12.742 16.040,12.760 15.509,12.760 14.858 L 12.760 13.760 13.858 13.760 C 15.144 13.760,15.303 13.737,15.520 13.520 C 15.918 13.122,15.730 12.423,15.189 12.286 C 15.071 12.257,14.600 12.240,13.882 12.240 L 12.760 12.240 12.759 11.130 C 12.758 9.954,12.734 9.738,12.580 9.536 C 12.421 9.327,12.078 9.211,11.815 9.277 M17.815 9.278 C 17.331 9.393,17.098 10.004,17.383 10.408 C 17.576 10.681,17.733 10.736,18.363 10.754 C 19.073 10.773,19.316 10.724,19.519 10.521 C 19.918 10.122,19.731 9.423,19.189 9.286 C 18.988 9.236,18.016 9.230,17.815 9.278 " stroke="none" fill-rule="evenodd" fill="black"></path></svg>