<svg width="24" height="24" viewBox="0 0 24 24" fill="none" xmlns="http://www.w3.org/2000/svg"><path d="M9.990 2.280 C 9.089 2.391,8.249 2.985,7.841 3.800 C 7.730 4.022,7.681 4.160,7.601 4.468 C 7.552 4.661,7.401 4.857,7.238 4.941 C 7.169 4.977,6.894 5.016,6.533 5.042 C 4.728 5.171,3.757 5.540,2.806 6.455 C 1.975 7.256,1.564 8.129,1.381 9.480 C 1.218 10.691,1.218 16.023,1.381 17.240 C 1.567 18.627,1.968 19.465,2.844 20.301 C 3.651 21.072,4.497 21.447,5.820 21.620 C 6.504 21.710,8.662 21.758,12.000 21.758 C 15.338 21.758,17.496 21.710,18.180 21.620 C 19.503 21.447,20.349 21.072,21.156 20.301 C 22.032 19.465,22.433 18.627,22.619 17.240 C 22.782 16.028,22.781 10.693,22.618 9.480 C 22.438 8.135,22.023 7.255,21.194 6.455 C 20.243 5.540,19.272 5.171,17.467 5.042 C 17.106 5.016,16.831 4.977,16.762 4.941 C 16.599 4.857,16.448 4.661,16.399 4.468 C 16.314 4.139,16.269 4.017,16.135 3.760 C 15.784 3.083,15.120 2.556,14.340 2.334 C 14.132 2.275,13.848 2.265,12.180 2.257 C 11.124 2.252,10.139 2.262,9.990 2.280 M14.220 3.887 C 14.461 4.016,14.700 4.243,14.798 4.437 C 14.838 4.516,14.917 4.734,14.974 4.922 C 15.152 5.510,15.545 5.995,16.063 6.265 C 16.380 6.431,16.553 6.468,17.260 6.519 C 18.878 6.637,19.462 6.851,20.201 7.596 C 20.887 8.287,21.107 8.900,21.200 10.380 C 21.252 11.214,21.251 15.515,21.199 16.340 C 21.106 17.806,20.894 18.417,20.245 19.094 C 19.602 19.765,19.039 20.012,17.800 20.167 C 17.471 20.209,16.202 20.220,11.960 20.220 C 7.035 20.220,6.496 20.214,6.060 20.151 C 4.917 19.986,4.450 19.781,3.827 19.168 C 3.130 18.484,2.896 17.838,2.801 16.340 C 2.749 15.515,2.748 11.214,2.800 10.380 C 2.864 9.370,2.981 8.832,3.253 8.300 C 3.382 8.047,3.501 7.896,3.818 7.580 C 4.039 7.360,4.324 7.119,4.451 7.045 C 4.946 6.754,5.609 6.602,6.740 6.519 C 7.447 6.468,7.620 6.431,7.937 6.265 C 8.455 5.994,8.843 5.516,9.023 4.925 C 9.081 4.735,9.164 4.510,9.208 4.425 C 9.341 4.165,9.677 3.898,10.000 3.797 C 10.055 3.779,10.982 3.769,12.060 3.773 L 14.020 3.780 14.220 3.887 M11.740 9.266 C 10.415 9.385,9.327 10.085,8.719 11.212 C 8.400 11.803,8.271 12.320,8.271 13.000 C 8.271 13.682,8.400 14.197,8.721 14.792 C 9.078 15.453,9.549 15.923,10.212 16.281 C 10.803 16.600,11.320 16.729,12.000 16.729 C 12.680 16.729,13.197 16.600,13.788 16.281 C 14.451 15.923,14.922 15.453,15.279 14.792 C 15.600 14.197,15.729 13.682,15.729 13.000 C 15.729 12.320,15.600 11.803,15.281 11.212 C 14.832 10.381,14.122 9.779,13.215 9.463 C 12.793 9.316,12.149 9.230,11.740 9.266 M17.815 9.278 C 17.331 9.393,17.098 10.004,17.383 10.408 C 17.576 10.681,17.733 10.736,18.363 10.754 C 19.073 10.773,19.316 10.724,19.519 10.521 C 19.918 10.122,19.731 9.423,19.189 9.286 C 18.988 9.236,18.016 9.230,17.815 9.278 M12.578 10.821 C 12.949 10.918,13.274 11.112,13.581 11.419 C 14.041 11.879,14.240 12.356,14.240 13.000 C 14.240 13.644,14.041 14.121,13.581 14.581 C 13.121 15.041,12.644 15.240,12.000 15.240 C 11.356 15.240,10.879 15.041,10.419 14.581 C 9.959 14.121,9.760 13.644,9.760 13.000 C 9.760 12.356,9.959 11.879,10.419 11.419 C 10.719 11.118,11.050 10.919,11.404 10.823 C 11.692 10.746,12.285 10.745,12.578 10.821 " stroke="none" fill-rule="evenodd" fill="black"></path></svg>