<svg width="24" height="24" viewBox="0 0 24 24" fill="none" xmlns="http://www.w3.org/2000/svg"><path d="M7.420 3.283 C 4.824 3.355,3.629 3.695,2.669 4.635 C 1.934 5.354,1.552 6.288,1.381 7.787 C 1.249 8.948,1.203 11.868,1.278 14.360 C 1.332 16.154,1.427 16.946,1.682 17.727 C 2.105 19.022,2.978 19.895,4.273 20.318 C 5.402 20.686,6.664 20.758,12.000 20.758 C 17.336 20.758,18.598 20.686,19.727 20.318 C 21.002 19.901,21.880 19.036,22.302 17.779 C 22.564 16.998,22.668 16.141,22.722 14.340 C 22.822 10.960,22.730 8.086,22.482 6.900 C 22.088 5.012,20.988 3.912,19.101 3.518 C 18.443 3.381,17.733 3.319,16.360 3.280 C 14.828 3.236,9.033 3.238,7.420 3.283 M17.341 4.802 C 18.889 4.904,19.707 5.152,20.266 5.689 C 20.793 6.195,21.098 7.099,21.178 8.400 C 21.191 8.609,21.211 8.883,21.223 9.010 L 21.244 9.240 12.000 9.240 L 2.756 9.240 2.777 9.010 C 2.789 8.883,2.809 8.609,2.822 8.400 C 2.901 7.118,3.178 6.266,3.689 5.734 C 4.213 5.188,5.094 4.903,6.560 4.805 C 7.314 4.754,16.579 4.752,17.341 4.802 M21.240 12.731 C 21.240 15.360,21.177 16.279,20.939 17.099 C 20.553 18.431,19.751 18.967,17.840 19.167 C 17.116 19.244,6.884 19.244,6.160 19.167 C 3.837 18.923,3.096 18.195,2.836 15.900 C 2.809 15.669,2.782 14.496,2.771 13.130 L 2.752 10.760 11.996 10.760 L 21.240 10.760 21.240 12.731 M5.807 15.287 C 5.573 15.339,5.348 15.567,5.286 15.813 C 5.202 16.146,5.333 16.462,5.631 16.647 L 5.780 16.740 8.000 16.740 L 10.220 16.740 10.369 16.647 C 10.943 16.290,10.812 15.424,10.162 15.284 C 9.903 15.229,6.058 15.231,5.807 15.287 M12.420 15.260 C 12.398 15.267,12.331 15.284,12.271 15.297 C 12.124 15.329,11.881 15.548,11.814 15.708 C 11.691 16.002,11.771 16.336,12.015 16.550 C 12.095 16.621,12.211 16.693,12.271 16.709 C 12.331 16.726,12.794 16.740,13.300 16.740 C 14.193 16.740,14.224 16.737,14.369 16.647 C 14.943 16.290,14.812 15.424,14.162 15.284 C 13.981 15.245,12.525 15.225,12.420 15.260 " stroke="none" fill-rule="evenodd" fill="black"></path></svg>