<svg width="24" height="24" viewBox="0 0 24 24" fill="none" xmlns="http://www.w3.org/2000/svg"><path d="M7.420 3.283 C 4.824 3.355,3.629 3.695,2.669 4.635 C 1.934 5.354,1.552 6.288,1.381 7.787 C 1.199 9.383,1.198 14.668,1.379 16.220 C 1.553 17.707,1.910 18.591,2.635 19.331 C 3.354 20.067,4.276 20.444,5.780 20.621 C 6.454 20.700,8.925 20.769,10.480 20.753 C 11.811 20.739,11.816 20.738,12.047 20.494 C 12.309 20.217,12.309 19.783,12.047 19.506 C 11.804 19.249,11.953 19.262,9.100 19.235 C 7.624 19.220,6.327 19.190,6.100 19.164 C 3.827 18.908,3.093 18.175,2.836 15.900 C 2.809 15.669,2.782 14.496,2.771 13.130 L 2.752 10.760 11.990 10.760 L 21.229 10.760 21.254 11.005 C 21.269 11.143,21.316 11.309,21.363 11.384 C 21.715 11.954,22.582 11.806,22.717 11.154 C 22.795 10.775,22.706 8.404,22.578 7.455 C 22.277 5.215,21.157 3.948,19.101 3.518 C 18.443 3.381,17.733 3.319,16.360 3.280 C 14.828 3.236,9.033 3.238,7.420 3.283 M17.341 4.802 C 19.376 4.936,20.256 5.342,20.738 6.368 C 21.015 6.958,21.138 7.588,21.193 8.698 L 21.220 9.240 11.988 9.240 L 2.756 9.240 2.777 9.010 C 2.789 8.883,2.809 8.609,2.822 8.400 C 2.901 7.118,3.178 6.266,3.689 5.734 C 4.213 5.188,5.094 4.903,6.560 4.805 C 7.314 4.754,16.579 4.752,17.341 4.802 M15.420 13.260 C 15.398 13.267,15.331 13.284,15.271 13.297 C 15.124 13.329,14.881 13.548,14.814 13.708 C 14.771 13.811,14.760 14.275,14.760 16.005 L 14.760 18.172 14.367 17.791 C 13.912 17.349,13.778 17.269,13.500 17.269 C 12.897 17.269,12.551 17.936,12.896 18.434 C 13.056 18.666,15.004 20.582,15.159 20.661 C 15.339 20.752,15.661 20.752,15.841 20.661 C 15.996 20.582,17.944 18.666,18.104 18.434 C 18.363 18.060,18.232 17.543,17.825 17.332 C 17.661 17.248,17.332 17.251,17.162 17.339 C 17.087 17.378,16.849 17.581,16.633 17.791 L 16.240 18.172 16.240 16.009 C 16.240 14.577,16.226 13.807,16.197 13.733 C 16.146 13.597,15.977 13.412,15.840 13.342 C 15.732 13.287,15.485 13.238,15.420 13.260 M19.800 13.290 C 19.635 13.325,19.531 13.417,18.528 14.414 C 17.927 15.011,17.397 15.561,17.351 15.636 C 17.231 15.828,17.235 16.177,17.358 16.377 C 17.503 16.611,17.721 16.733,17.992 16.733 C 18.118 16.733,18.265 16.710,18.320 16.681 C 18.375 16.652,18.604 16.448,18.828 16.228 L 19.237 15.828 19.248 18.024 L 19.260 20.220 19.355 20.373 C 19.506 20.615,19.718 20.733,20.003 20.733 C 20.203 20.733,20.270 20.714,20.408 20.617 C 20.499 20.553,20.610 20.428,20.656 20.340 C 20.738 20.184,20.740 20.121,20.752 18.004 L 20.763 15.828 21.172 16.228 C 21.396 16.448,21.625 16.652,21.680 16.681 C 21.735 16.710,21.881 16.733,22.004 16.733 C 22.499 16.733,22.817 16.318,22.711 15.811 C 22.673 15.631,22.607 15.556,21.568 14.511 C 20.962 13.901,20.410 13.377,20.343 13.346 C 20.162 13.264,20.002 13.247,19.800 13.290 M5.807 15.287 C 5.573 15.339,5.348 15.567,5.286 15.813 C 5.202 16.146,5.333 16.462,5.631 16.647 L 5.780 16.740 8.000 16.740 L 10.220 16.740 10.369 16.647 C 10.943 16.290,10.812 15.424,10.162 15.284 C 9.903 15.229,6.058 15.231,5.807 15.287 " stroke="none" fill-rule="evenodd" fill="black"></path></svg>