<svg width="24" height="24" viewBox="0 0 24 24" fill="none" xmlns="http://www.w3.org/2000/svg"><path d="M7.420 3.283 C 4.824 3.355,3.629 3.695,2.669 4.635 C 1.934 5.354,1.552 6.288,1.381 7.787 C 1.249 8.948,1.203 11.868,1.278 14.360 C 1.332 16.154,1.427 16.946,1.682 17.727 C 2.173 19.229,3.266 20.158,4.940 20.495 C 5.907 20.690,7.942 20.773,11.240 20.752 L 13.220 20.740 13.369 20.647 C 13.870 20.336,13.849 19.592,13.332 19.336 C 13.188 19.264,13.008 19.259,9.840 19.236 C 7.747 19.220,6.351 19.194,6.100 19.165 C 3.821 18.903,3.094 18.175,2.836 15.900 C 2.809 15.669,2.782 14.496,2.771 13.130 L 2.752 10.760 11.993 10.760 L 21.235 10.760 21.247 11.990 C 21.260 13.204,21.261 13.222,21.355 13.373 C 21.506 13.615,21.718 13.733,22.003 13.733 C 22.203 13.733,22.270 13.714,22.408 13.617 C 22.499 13.553,22.610 13.428,22.656 13.340 C 22.737 13.187,22.740 13.116,22.747 11.660 C 22.761 8.719,22.639 7.225,22.302 6.221 C 21.886 4.984,21.016 4.114,19.779 3.698 C 18.998 3.436,18.134 3.331,16.360 3.280 C 14.828 3.236,9.033 3.238,7.420 3.283 M17.341 4.802 C 18.889 4.904,19.707 5.152,20.266 5.689 C 20.793 6.195,21.098 7.099,21.178 8.400 C 21.191 8.609,21.211 8.883,21.223 9.010 L 21.244 9.240 12.000 9.240 L 2.756 9.240 2.777 9.010 C 2.789 8.883,2.809 8.609,2.822 8.400 C 2.901 7.118,3.178 6.266,3.689 5.734 C 4.213 5.188,5.094 4.903,6.560 4.805 C 7.314 4.754,16.579 4.752,17.341 4.802 M17.760 13.268 C 16.460 13.358,15.330 14.080,14.719 15.212 C 14.400 15.803,14.271 16.320,14.271 17.000 C 14.271 17.680,14.400 18.197,14.719 18.788 C 15.118 19.527,15.658 20.029,16.452 20.400 C 17.038 20.674,17.707 20.785,18.361 20.718 C 18.888 20.663,19.201 20.573,19.664 20.341 L 20.076 20.134 20.548 20.611 C 21.040 21.109,21.234 21.238,21.491 21.239 C 21.659 21.240,21.896 21.154,22.014 21.048 C 22.130 20.946,22.238 20.680,22.238 20.500 C 22.238 20.234,22.114 20.045,21.609 19.545 L 21.129 19.070 21.285 18.780 C 21.599 18.197,21.729 17.677,21.729 17.000 C 21.729 16.320,21.600 15.803,21.281 15.212 C 20.832 14.380,20.123 13.780,19.214 13.462 C 18.803 13.319,18.198 13.238,17.760 13.268 M18.578 14.821 C 18.949 14.918,19.274 15.112,19.581 15.419 C 20.041 15.879,20.240 16.356,20.240 17.000 C 20.240 17.644,20.041 18.121,19.581 18.581 C 19.121 19.041,18.644 19.240,18.000 19.240 C 17.356 19.240,16.879 19.041,16.419 18.581 C 15.959 18.121,15.760 17.644,15.760 17.000 C 15.760 16.356,15.959 15.879,16.419 15.419 C 16.719 15.118,17.050 14.919,17.404 14.823 C 17.692 14.746,18.285 14.745,18.578 14.821 M5.807 15.287 C 5.573 15.339,5.348 15.567,5.286 15.813 C 5.202 16.146,5.333 16.462,5.631 16.647 L 5.780 16.740 8.000 16.740 L 10.220 16.740 10.369 16.647 C 10.943 16.290,10.812 15.424,10.162 15.284 C 9.903 15.229,6.058 15.231,5.807 15.287 " stroke="none" fill-rule="evenodd" fill="black"></path></svg>