<svg width="24" height="24" viewBox="0 0 24 24" fill="none" xmlns="http://www.w3.org/2000/svg"><path d="M9.020 1.279 C 6.976 1.330,5.856 1.466,4.900 1.779 C 3.060 2.382,1.958 3.688,1.563 5.734 C 1.311 7.042,1.267 7.973,1.267 12.000 C 1.267 16.027,1.311 16.958,1.563 18.266 C 2.013 20.599,3.401 21.987,5.734 22.437 C 7.043 22.690,7.974 22.734,12.000 22.734 C 16.026 22.734,16.957 22.690,18.266 22.437 C 20.599 21.987,21.987 20.599,22.437 18.266 C 22.688 16.966,22.733 16.013,22.733 12.000 C 22.733 7.987,22.688 7.034,22.437 5.734 C 22.098 3.977,21.228 2.756,19.825 2.068 C 18.972 1.650,17.853 1.420,16.180 1.321 C 15.262 1.267,10.607 1.239,9.020 1.279 M16.600 2.836 C 18.439 3.019,19.320 3.320,20.000 4.000 C 20.692 4.693,20.998 5.605,21.168 7.480 C 21.242 8.307,21.242 15.693,21.168 16.520 C 20.996 18.419,20.693 19.311,19.982 20.013 C 19.218 20.769,18.155 21.080,15.940 21.199 C 14.954 21.252,9.046 21.252,8.060 21.199 C 5.843 21.080,4.782 20.769,4.016 20.011 C 3.342 19.345,3.026 18.464,2.852 16.760 C 2.788 16.135,2.780 15.620,2.781 11.980 C 2.782 7.664,2.793 7.353,2.984 6.240 C 3.183 5.082,3.600 4.278,4.272 3.760 C 5.025 3.178,6.058 2.913,8.002 2.802 C 8.872 2.752,16.044 2.780,16.600 2.836 M9.540 5.282 C 8.741 5.313,8.447 5.356,7.992 5.504 C 7.109 5.793,6.563 6.469,6.362 7.520 C 6.339 7.641,6.299 8.301,6.273 8.986 L 6.226 10.232 5.523 10.246 C 4.716 10.262,4.589 10.300,4.383 10.592 C 4.286 10.730,4.267 10.797,4.267 10.997 C 4.267 11.282,4.385 11.494,4.627 11.645 L 4.780 11.740 12.000 11.740 L 19.220 11.740 19.369 11.647 C 19.943 11.290,19.812 10.424,19.162 10.284 C 19.049 10.260,18.690 10.240,18.365 10.240 L 17.774 10.240 17.727 8.990 C 17.678 7.669,17.656 7.483,17.496 6.992 C 17.205 6.102,16.520 5.554,15.460 5.360 C 14.882 5.255,11.379 5.208,9.540 5.282 M15.260 6.834 C 15.370 6.859,15.559 6.930,15.679 6.991 C 15.863 7.084,15.916 7.137,16.009 7.321 C 16.180 7.658,16.204 7.852,16.228 9.090 L 16.250 10.240 12.005 10.240 L 7.760 10.240 7.760 9.338 C 7.760 7.946,7.850 7.396,8.123 7.123 C 8.276 6.970,8.601 6.851,8.989 6.805 C 9.447 6.751,15.009 6.776,15.260 6.834 M7.826 15.284 C 7.476 15.366,7.267 15.636,7.267 16.003 C 7.267 16.281,7.387 16.496,7.627 16.645 L 7.780 16.740 12.000 16.740 L 16.220 16.740 16.369 16.647 C 16.943 16.290,16.812 15.424,16.162 15.284 C 15.907 15.229,8.059 15.229,7.826 15.284 " stroke="none" fill-rule="evenodd" fill="black"></path></svg>