<svg width="24" height="24" viewBox="0 0 24 24" fill="none" xmlns="http://www.w3.org/2000/svg"><path d="M7.420 3.283 C 4.824 3.355,3.629 3.695,2.669 4.635 C 1.934 5.354,1.552 6.288,1.381 7.787 C 1.249 8.948,1.203 11.868,1.278 14.360 C 1.332 16.154,1.427 16.946,1.682 17.727 C 2.173 19.229,3.266 20.158,4.940 20.495 C 5.942 20.697,7.901 20.771,11.740 20.752 L 14.220 20.740 14.369 20.647 C 14.870 20.336,14.849 19.592,14.332 19.336 C 14.187 19.264,13.999 19.259,10.340 19.236 C 7.837 19.220,6.361 19.196,6.100 19.165 C 3.818 18.901,3.094 18.176,2.836 15.900 C 2.809 15.669,2.782 14.496,2.771 13.130 L 2.752 10.760 11.992 10.760 L 21.232 10.760 21.246 11.490 C 21.259 12.176,21.266 12.229,21.355 12.373 C 21.506 12.615,21.718 12.733,22.003 12.733 C 22.203 12.733,22.270 12.714,22.408 12.617 C 22.722 12.395,22.739 12.322,22.746 11.160 C 22.758 9.300,22.663 7.764,22.482 6.900 C 22.088 5.012,20.988 3.912,19.101 3.518 C 18.443 3.381,17.733 3.319,16.360 3.280 C 14.828 3.236,9.033 3.238,7.420 3.283 M17.341 4.802 C 18.889 4.904,19.707 5.152,20.266 5.689 C 20.793 6.195,21.098 7.099,21.178 8.400 C 21.191 8.609,21.211 8.883,21.223 9.010 L 21.244 9.240 12.000 9.240 L 2.756 9.240 2.777 9.010 C 2.789 8.883,2.809 8.609,2.822 8.400 C 2.901 7.118,3.178 6.266,3.689 5.734 C 4.213 5.188,5.094 4.903,6.560 4.805 C 7.314 4.754,16.579 4.752,17.341 4.802 M18.826 13.286 C 18.625 13.331,18.468 13.445,18.353 13.631 L 18.260 13.780 18.248 15.975 L 18.237 18.170 17.806 17.750 C 17.432 17.385,17.351 17.325,17.186 17.289 C 16.841 17.216,16.532 17.341,16.356 17.626 C 16.235 17.823,16.232 18.174,16.351 18.364 C 16.458 18.535,18.545 20.612,18.680 20.682 C 18.840 20.765,19.207 20.747,19.364 20.649 C 19.439 20.603,19.988 20.073,20.585 19.472 C 21.605 18.447,21.673 18.368,21.711 18.190 C 21.832 17.611,21.388 17.167,20.812 17.290 C 20.649 17.325,20.567 17.386,20.192 17.751 L 19.760 18.173 19.759 16.096 C 19.758 14.815,19.742 13.951,19.717 13.841 C 19.622 13.428,19.243 13.192,18.826 13.286 M5.807 15.287 C 5.573 15.339,5.348 15.567,5.286 15.813 C 5.202 16.146,5.333 16.462,5.631 16.647 L 5.780 16.740 8.000 16.740 L 10.220 16.740 10.369 16.647 C 10.943 16.290,10.812 15.424,10.162 15.284 C 9.903 15.229,6.058 15.231,5.807 15.287 M12.420 15.260 C 12.398 15.267,12.331 15.284,12.271 15.297 C 12.124 15.329,11.881 15.548,11.814 15.708 C 11.703 15.973,11.759 16.289,11.953 16.494 C 12.155 16.708,12.259 16.740,12.760 16.740 C 13.172 16.740,13.236 16.730,13.369 16.647 C 13.943 16.290,13.812 15.424,13.162 15.284 C 12.972 15.243,12.514 15.228,12.420 15.260 " stroke="none" fill-rule="evenodd" fill="black"></path></svg>