<svg width="24" height="24" viewBox="0 0 24 24" fill="none" xmlns="http://www.w3.org/2000/svg"><path d="M7.420 3.283 C 4.824 3.355,3.629 3.695,2.669 4.635 C 1.934 5.354,1.552 6.288,1.381 7.787 C 1.249 8.948,1.203 11.868,1.278 14.360 C 1.332 16.154,1.427 16.946,1.682 17.727 C 2.105 19.022,2.978 19.895,4.273 20.318 C 5.402 20.686,6.664 20.758,12.000 20.758 C 17.336 20.758,18.598 20.686,19.727 20.318 C 21.002 19.901,21.880 19.036,22.302 17.779 C 22.564 16.998,22.668 16.141,22.722 14.340 C 22.822 10.960,22.730 8.086,22.482 6.900 C 22.088 5.012,20.988 3.912,19.101 3.518 C 18.443 3.381,17.733 3.319,16.360 3.280 C 14.828 3.236,9.033 3.238,7.420 3.283 M17.341 4.802 C 18.889 4.904,19.707 5.152,20.266 5.689 C 20.793 6.195,21.098 7.099,21.178 8.400 C 21.191 8.609,21.211 8.883,21.223 9.010 L 21.244 9.240 12.000 9.240 L 2.756 9.240 2.777 9.010 C 2.789 8.883,2.809 8.609,2.822 8.400 C 2.901 7.118,3.178 6.266,3.689 5.734 C 4.213 5.188,5.094 4.903,6.560 4.805 C 7.314 4.754,16.579 4.752,17.341 4.802 M21.240 12.731 C 21.240 15.360,21.177 16.279,20.939 17.099 C 20.553 18.431,19.751 18.967,17.840 19.167 C 17.116 19.244,6.884 19.244,6.160 19.167 C 3.837 18.923,3.096 18.195,2.836 15.900 C 2.809 15.669,2.782 14.496,2.771 13.130 L 2.752 10.760 11.996 10.760 L 21.240 10.760 21.240 12.731 M15.100 12.280 C 14.431 12.329,14.056 12.471,13.756 12.788 C 13.546 13.010,13.449 13.192,13.354 13.546 C 13.278 13.831,13.270 13.966,13.270 15.000 C 13.270 16.030,13.278 16.170,13.353 16.450 C 13.533 17.118,13.881 17.467,14.546 17.646 C 14.831 17.722,14.966 17.730,16.000 17.730 C 17.034 17.730,17.169 17.722,17.454 17.646 C 18.119 17.467,18.468 17.117,18.646 16.450 C 18.721 16.171,18.729 16.028,18.729 15.000 C 18.729 13.967,18.721 13.830,18.645 13.546 C 18.468 12.885,18.111 12.527,17.464 12.361 C 17.113 12.271,15.811 12.226,15.100 12.280 M5.720 12.805 C 5.458 12.909,5.269 13.200,5.269 13.500 C 5.269 13.807,5.460 14.095,5.733 14.197 C 5.803 14.224,6.281 14.240,7.000 14.240 C 7.719 14.240,8.197 14.224,8.267 14.197 C 8.540 14.095,8.731 13.807,8.731 13.500 C 8.731 13.193,8.540 12.905,8.267 12.803 C 8.122 12.748,5.859 12.750,5.720 12.805 M17.168 13.832 C 17.244 13.908,17.243 16.093,17.168 16.168 C 17.093 16.243,14.908 16.244,14.832 16.168 C 14.766 16.103,14.734 14.073,14.796 13.910 C 14.819 13.851,14.876 13.798,14.928 13.787 C 14.979 13.777,15.492 13.771,16.068 13.774 C 16.869 13.779,17.128 13.792,17.168 13.832 M5.720 15.805 C 5.458 15.909,5.269 16.200,5.269 16.500 C 5.269 16.807,5.460 17.095,5.733 17.197 C 5.807 17.226,6.575 17.240,8.000 17.240 C 9.425 17.240,10.193 17.226,10.267 17.197 C 10.540 17.095,10.731 16.807,10.731 16.500 C 10.731 16.193,10.540 15.905,10.267 15.803 C 10.119 15.746,5.862 15.748,5.720 15.805 " stroke="none" fill-rule="evenodd" fill="black"></path></svg>