<svg width="24" height="24" viewBox="0 0 24 24" fill="none" xmlns="http://www.w3.org/2000/svg"><path d="M1.785 2.288 C 1.424 2.387,1.190 2.807,1.286 3.186 C 1.373 3.531,1.512 3.623,2.420 3.934 C 3.646 4.355,3.905 4.497,4.082 4.844 C 4.218 5.111,4.238 5.486,4.241 7.780 C 4.243 10.248,4.290 12.215,4.362 12.800 C 4.547 14.320,5.211 15.326,6.340 15.797 C 6.914 16.036,7.494 16.142,8.560 16.200 C 9.555 16.255,19.122 16.252,19.267 16.197 C 19.409 16.144,19.588 15.976,19.669 15.821 C 19.750 15.667,19.749 15.332,19.668 15.175 C 19.577 15.000,19.344 14.808,19.191 14.782 C 19.119 14.770,16.684 14.754,13.780 14.746 C 10.029 14.735,8.374 14.717,8.067 14.683 C 7.121 14.578,6.587 14.350,6.267 13.914 L 6.153 13.760 11.267 13.759 C 14.097 13.759,16.630 13.742,16.940 13.721 C 17.795 13.662,18.198 13.497,18.625 13.029 C 18.893 12.735,19.120 12.287,19.774 10.757 C 20.703 8.580,20.879 8.040,20.880 7.354 C 20.881 6.168,20.165 5.499,18.700 5.316 C 18.453 5.285,16.351 5.265,12.010 5.252 L 5.680 5.234 5.680 5.135 C 5.680 4.715,5.384 4.000,5.066 3.652 C 4.668 3.217,4.193 2.965,2.980 2.546 C 2.134 2.254,2.009 2.227,1.785 2.288 M18.480 6.801 C 18.953 6.851,19.214 6.935,19.324 7.073 C 19.458 7.242,19.412 7.617,19.179 8.260 C 18.904 9.021,17.766 11.663,17.623 11.874 C 17.555 11.973,17.449 12.092,17.387 12.137 C 17.274 12.220,17.269 12.220,11.543 12.231 L 5.812 12.241 5.786 11.875 C 5.772 11.673,5.760 10.439,5.760 9.134 L 5.760 6.760 11.930 6.761 C 15.728 6.761,18.246 6.777,18.480 6.801 M7.826 8.284 C 7.476 8.366,7.267 8.636,7.267 9.003 C 7.267 9.281,7.387 9.496,7.627 9.645 L 7.780 9.740 9.500 9.740 L 11.220 9.740 11.369 9.647 C 11.943 9.290,11.812 8.424,11.162 8.284 C 10.912 8.230,8.055 8.231,7.826 8.284 M7.180 17.281 C 6.518 17.369,5.898 17.789,5.555 18.380 C 5.362 18.714,5.274 19.054,5.271 19.480 C 5.267 20.129,5.470 20.630,5.920 21.080 C 6.362 21.522,6.872 21.733,7.500 21.733 C 8.128 21.733,8.638 21.522,9.080 21.080 C 9.523 20.637,9.731 20.132,9.731 19.500 C 9.731 18.868,9.523 18.363,9.080 17.920 C 8.575 17.415,7.894 17.186,7.180 17.281 M16.180 17.281 C 15.518 17.369,14.898 17.789,14.555 18.380 C 14.362 18.714,14.274 19.054,14.271 19.480 C 14.267 20.129,14.470 20.630,14.920 21.080 C 15.362 21.522,15.872 21.733,16.500 21.733 C 17.128 21.733,17.638 21.522,18.080 21.080 C 18.523 20.637,18.731 20.132,18.731 19.500 C 18.731 18.868,18.523 18.363,18.080 17.920 C 17.575 17.415,16.894 17.186,16.180 17.281 M7.944 18.903 C 8.173 19.088,8.247 19.255,8.231 19.549 C 8.219 19.752,8.195 19.823,8.097 19.944 C 7.912 20.173,7.745 20.247,7.451 20.231 C 7.248 20.219,7.177 20.195,7.056 20.097 C 6.827 19.912,6.753 19.745,6.769 19.451 C 6.781 19.248,6.805 19.177,6.903 19.056 C 7.088 18.827,7.255 18.753,7.549 18.769 C 7.752 18.781,7.823 18.805,7.944 18.903 M16.944 18.903 C 17.173 19.088,17.247 19.255,17.231 19.549 C 17.219 19.752,17.195 19.823,17.097 19.944 C 16.912 20.173,16.745 20.247,16.451 20.231 C 16.248 20.219,16.177 20.195,16.056 20.097 C 15.827 19.912,15.753 19.745,15.769 19.451 C 15.781 19.248,15.805 19.177,15.903 19.056 C 16.088 18.827,16.255 18.753,16.549 18.769 C 16.752 18.781,16.823 18.805,16.944 18.903 " stroke="none" fill-rule="evenodd" fill="black"></path></svg>