<svg width="24" height="24" viewBox="0 0 24 24" fill="none" xmlns="http://www.w3.org/2000/svg"><path d="M9.840 2.266 C 9.289 2.327,8.726 2.683,8.505 3.110 C 8.429 3.258,8.354 3.279,7.900 3.280 C 6.511 3.284,5.349 4.095,4.882 5.387 C 4.814 5.576,4.568 6.425,4.337 7.275 C 4.032 8.392,3.894 8.837,3.839 8.880 C 3.798 8.913,3.635 9.030,3.479 9.140 C 3.105 9.402,2.795 9.776,2.581 10.220 C 2.347 10.706,2.278 11.002,2.252 11.640 C 2.211 12.628,2.391 13.651,3.105 16.499 C 3.705 18.892,3.927 19.540,4.379 20.221 C 4.898 21.000,5.610 21.427,6.710 21.621 C 7.249 21.716,8.864 21.758,12.000 21.758 C 15.136 21.758,16.751 21.716,17.290 21.621 C 18.390 21.427,19.102 21.000,19.621 20.221 C 20.101 19.499,20.345 18.750,21.077 15.760 C 21.630 13.500,21.786 12.541,21.747 11.640 C 21.697 10.440,21.272 9.634,20.371 9.030 L 20.095 8.845 19.669 7.289 C 19.435 6.433,19.187 5.578,19.119 5.389 C 18.651 4.095,17.490 3.284,16.100 3.280 C 15.647 3.279,15.571 3.258,15.496 3.113 C 15.400 2.926,15.158 2.678,14.928 2.531 C 14.507 2.261,14.570 2.267,12.160 2.258 C 10.961 2.254,9.917 2.257,9.840 2.266 M14.167 3.826 C 14.258 3.909,14.261 4.070,14.174 4.167 C 14.111 4.236,13.991 4.240,12.007 4.240 C 10.108 4.240,9.899 4.234,9.833 4.174 C 9.742 4.091,9.739 3.930,9.826 3.833 C 9.889 3.764,10.009 3.760,11.993 3.760 C 13.892 3.760,14.101 3.766,14.167 3.826 M8.502 4.885 C 8.606 5.084,8.873 5.350,9.116 5.495 C 9.530 5.741,9.516 5.740,12.000 5.740 C 14.484 5.740,14.470 5.741,14.884 5.495 C 15.127 5.350,15.394 5.084,15.498 4.885 C 15.562 4.760,15.563 4.760,15.894 4.760 C 16.541 4.760,16.922 4.889,17.289 5.233 C 17.399 5.335,17.542 5.526,17.608 5.656 C 17.752 5.941,18.443 8.330,18.395 8.378 C 18.386 8.387,18.244 8.378,18.079 8.356 C 16.870 8.201,7.130 8.201,5.921 8.356 C 5.756 8.378,5.614 8.387,5.605 8.378 C 5.557 8.330,6.248 5.941,6.392 5.656 C 6.458 5.526,6.601 5.335,6.710 5.233 C 7.077 4.890,7.426 4.769,8.069 4.763 L 8.438 4.760 8.502 4.885 M10.360 9.780 C 10.360 9.819,7.593 13.120,7.561 13.120 C 7.524 13.120,5.400 10.017,5.400 9.963 C 5.400 9.920,5.917 9.845,6.501 9.803 C 6.991 9.768,10.360 9.748,10.360 9.780 M17.420 9.800 C 18.104 9.849,18.600 9.917,18.600 9.964 C 18.600 9.983,18.120 10.702,17.534 11.562 C 16.515 13.055,16.464 13.122,16.398 13.053 C 16.361 13.013,15.734 12.255,15.005 11.370 L 13.681 9.760 15.270 9.760 C 16.145 9.761,17.112 9.779,17.420 9.800 M13.820 12.282 C 14.781 13.449,15.559 14.425,15.549 14.452 C 15.504 14.568,12.035 19.620,12.000 19.620 C 11.967 19.620,11.133 18.411,8.793 14.973 L 8.434 14.446 10.221 12.303 C 11.203 11.124,12.022 10.160,12.040 10.160 C 12.058 10.160,12.859 11.115,13.820 12.282 M5.029 12.100 C 5.553 12.870,6.114 13.693,6.274 13.928 L 6.565 14.356 5.652 15.449 C 5.151 16.051,4.723 16.551,4.701 16.562 C 4.655 16.584,4.182 14.691,3.961 13.600 C 3.660 12.115,3.653 11.438,3.930 10.848 C 3.974 10.754,4.025 10.682,4.043 10.688 C 4.061 10.695,4.504 11.330,5.029 12.100 M20.095 10.916 C 20.414 11.627,20.315 12.588,19.638 15.359 C 19.485 15.987,19.350 16.524,19.340 16.553 C 19.323 16.598,17.507 14.446,17.476 14.345 C 17.465 14.306,19.925 10.680,19.964 10.680 C 19.978 10.680,20.037 10.786,20.095 10.916 M17.740 17.040 C 18.308 17.733,18.788 18.321,18.807 18.346 C 18.888 18.450,18.497 19.283,18.228 19.583 C 17.737 20.128,17.067 20.253,14.728 20.232 L 13.435 20.220 14.962 17.980 C 15.802 16.748,16.508 15.717,16.531 15.688 C 16.585 15.621,16.499 15.524,17.740 17.040 M9.024 17.961 L 10.564 20.220 9.272 20.232 C 7.364 20.249,6.667 20.172,6.146 19.889 C 5.786 19.693,5.494 19.286,5.253 18.646 C 5.174 18.435,5.166 18.380,5.209 18.326 C 5.664 17.749,7.420 15.680,7.447 15.689 C 7.467 15.696,8.177 16.718,9.024 17.961 " stroke="none" fill-rule="evenodd" fill="black"></path></svg>