<svg width="24" height="24" viewBox="0 0 24 24" fill="none" xmlns="http://www.w3.org/2000/svg"><path d="M9.840 2.266 C 9.289 2.327,8.726 2.683,8.505 3.110 C 8.429 3.258,8.354 3.279,7.900 3.280 C 6.511 3.284,5.349 4.095,4.882 5.387 C 4.814 5.576,4.568 6.425,4.337 7.275 C 4.032 8.392,3.894 8.837,3.839 8.880 C 3.798 8.913,3.635 9.030,3.479 9.140 C 3.105 9.402,2.795 9.776,2.581 10.220 C 2.347 10.706,2.278 11.002,2.252 11.640 C 2.211 12.628,2.391 13.651,3.105 16.499 C 3.705 18.892,3.927 19.540,4.379 20.221 C 4.898 21.000,5.610 21.427,6.710 21.621 C 7.249 21.716,8.864 21.758,12.000 21.758 C 15.136 21.758,16.751 21.716,17.290 21.621 C 18.390 21.427,19.102 21.000,19.621 20.221 C 20.101 19.499,20.345 18.750,21.077 15.760 C 21.630 13.500,21.786 12.541,21.747 11.640 C 21.697 10.440,21.272 9.634,20.371 9.030 L 20.095 8.845 19.669 7.289 C 19.435 6.433,19.187 5.578,19.119 5.389 C 18.651 4.095,17.490 3.284,16.100 3.280 C 15.647 3.279,15.571 3.258,15.496 3.113 C 15.400 2.926,15.158 2.678,14.928 2.531 C 14.507 2.261,14.570 2.267,12.160 2.258 C 10.961 2.254,9.917 2.257,9.840 2.266 M14.167 3.826 C 14.258 3.909,14.261 4.070,14.174 4.167 C 14.111 4.236,13.991 4.240,12.007 4.240 C 10.108 4.240,9.899 4.234,9.833 4.174 C 9.742 4.091,9.739 3.930,9.826 3.833 C 9.889 3.764,10.009 3.760,11.993 3.760 C 13.892 3.760,14.101 3.766,14.167 3.826 M8.502 4.885 C 8.606 5.084,8.873 5.350,9.116 5.495 C 9.530 5.741,9.516 5.740,12.000 5.740 C 14.484 5.740,14.470 5.741,14.884 5.495 C 15.127 5.350,15.394 5.084,15.498 4.885 C 15.562 4.760,15.563 4.760,15.894 4.760 C 16.541 4.760,16.922 4.889,17.289 5.233 C 17.399 5.335,17.542 5.526,17.608 5.656 C 17.752 5.941,18.443 8.330,18.395 8.378 C 18.386 8.387,18.244 8.378,18.079 8.356 C 16.870 8.201,7.130 8.201,5.921 8.356 C 5.756 8.378,5.614 8.387,5.605 8.378 C 5.557 8.330,6.248 5.941,6.392 5.656 C 6.458 5.526,6.601 5.335,6.710 5.233 C 7.077 4.890,7.426 4.769,8.069 4.763 L 8.438 4.760 8.502 4.885 M17.440 9.802 C 19.063 9.916,19.761 10.205,20.085 10.898 C 20.439 11.654,20.318 12.650,19.464 16.047 C 18.972 18.000,18.813 18.536,18.584 19.020 C 18.207 19.814,17.715 20.106,16.600 20.200 C 15.998 20.251,8.002 20.251,7.400 20.200 C 6.285 20.106,5.793 19.814,5.416 19.020 C 5.189 18.541,4.997 17.894,4.520 15.989 C 3.734 12.854,3.591 11.818,3.843 11.072 C 3.950 10.753,4.093 10.547,4.322 10.379 C 4.779 10.043,5.389 9.882,6.500 9.803 C 7.175 9.755,16.761 9.754,17.440 9.802 " stroke="none" fill-rule="evenodd" fill="black"></path></svg>