<svg width="24" height="24" viewBox="0 0 24 24" fill="none" xmlns="http://www.w3.org/2000/svg"><path d="M1.785 2.289 C 1.425 2.385,1.190 2.806,1.286 3.186 C 1.370 3.521,1.520 3.625,2.340 3.915 C 3.299 4.254,3.664 4.430,3.870 4.654 C 4.182 4.993,4.170 4.839,4.203 8.600 C 4.220 10.520,4.251 12.127,4.277 12.380 C 4.418 13.773,4.738 14.520,5.498 15.231 C 5.983 15.684,6.690 15.990,7.540 16.116 C 8.290 16.227,9.244 16.245,13.640 16.230 C 18.486 16.213,18.324 16.220,18.940 16.004 C 19.242 15.898,19.674 15.606,19.883 15.365 C 20.136 15.075,20.417 14.457,20.577 13.840 C 20.723 13.277,21.455 9.768,21.597 8.948 C 21.820 7.665,21.782 7.007,21.456 6.450 C 21.146 5.920,20.658 5.643,19.784 5.498 C 19.096 5.385,17.764 5.362,11.715 5.361 L 5.650 5.360 5.624 5.089 C 5.591 4.753,5.413 4.229,5.241 3.961 C 5.038 3.646,4.605 3.271,4.201 3.063 C 3.822 2.867,3.060 2.567,2.424 2.363 C 2.005 2.229,2.010 2.230,1.785 2.289 M19.584 6.969 C 19.997 7.063,20.153 7.138,20.204 7.268 C 20.274 7.446,20.218 8.232,20.087 8.920 C 19.871 10.047,19.276 12.892,19.156 13.370 C 18.888 14.443,18.694 14.632,17.771 14.719 C 17.205 14.773,9.569 14.772,8.641 14.718 C 7.870 14.674,7.274 14.570,6.938 14.421 C 6.688 14.310,6.280 13.942,6.136 13.697 C 5.998 13.462,5.885 13.113,5.813 12.700 C 5.761 12.404,5.747 11.856,5.732 9.609 L 5.714 6.877 12.507 6.891 C 18.567 6.904,19.331 6.912,19.584 6.969 M7.180 17.281 C 6.518 17.369,5.898 17.789,5.555 18.380 C 5.362 18.714,5.274 19.054,5.271 19.480 C 5.267 20.129,5.470 20.630,5.920 21.080 C 6.362 21.522,6.872 21.733,7.500 21.733 C 8.128 21.733,8.638 21.522,9.080 21.080 C 9.523 20.637,9.731 20.132,9.731 19.500 C 9.731 18.868,9.523 18.363,9.080 17.920 C 8.575 17.415,7.894 17.186,7.180 17.281 M16.180 17.281 C 15.518 17.369,14.898 17.789,14.555 18.380 C 14.362 18.714,14.274 19.054,14.271 19.480 C 14.267 20.129,14.470 20.630,14.920 21.080 C 15.362 21.522,15.872 21.733,16.500 21.733 C 17.128 21.733,17.638 21.522,18.080 21.080 C 18.523 20.637,18.731 20.132,18.731 19.500 C 18.731 18.868,18.523 18.363,18.080 17.920 C 17.575 17.415,16.894 17.186,16.180 17.281 M7.944 18.903 C 8.173 19.088,8.247 19.255,8.231 19.549 C 8.219 19.752,8.195 19.823,8.097 19.944 C 7.912 20.173,7.745 20.247,7.451 20.231 C 7.248 20.219,7.177 20.195,7.056 20.097 C 6.827 19.912,6.753 19.745,6.769 19.451 C 6.781 19.248,6.805 19.177,6.903 19.056 C 7.088 18.827,7.255 18.753,7.549 18.769 C 7.752 18.781,7.823 18.805,7.944 18.903 M16.944 18.903 C 17.173 19.088,17.247 19.255,17.231 19.549 C 17.219 19.752,17.195 19.823,17.097 19.944 C 16.912 20.173,16.745 20.247,16.451 20.231 C 16.248 20.219,16.177 20.195,16.056 20.097 C 15.827 19.912,15.753 19.745,15.769 19.451 C 15.781 19.248,15.805 19.177,15.903 19.056 C 16.088 18.827,16.255 18.753,16.549 18.769 C 16.752 18.781,16.823 18.805,16.944 18.903 " stroke="none" fill-rule="evenodd" fill="black"></path></svg>