<svg width="24" height="24" viewBox="0 0 24 24" fill="none" xmlns="http://www.w3.org/2000/svg"><path d="M8.795 2.286 C 8.486 2.371,8.443 2.439,7.446 4.421 L 6.500 6.300 6.060 6.330 C 4.355 6.448,3.274 6.929,2.660 7.844 C 2.268 8.429,2.117 9.012,2.117 9.936 C 2.118 10.938,2.229 11.612,2.944 14.958 C 3.800 18.965,3.935 19.433,4.462 20.224 C 4.974 20.995,5.723 21.441,6.801 21.619 C 7.374 21.714,9.011 21.758,12.000 21.758 C 14.989 21.758,16.626 21.714,17.199 21.619 C 18.277 21.441,19.026 20.995,19.538 20.224 C 20.029 19.487,20.221 18.855,20.860 15.880 C 21.778 11.606,21.882 11.005,21.882 9.933 C 21.882 9.006,21.732 8.429,21.340 7.844 C 20.726 6.929,19.645 6.448,17.940 6.330 L 17.500 6.300 16.554 4.421 C 15.541 2.407,15.516 2.369,15.176 2.283 C 14.647 2.150,14.143 2.650,14.282 3.169 C 14.307 3.260,14.649 3.979,15.043 4.767 C 15.438 5.555,15.760 6.209,15.760 6.220 C 15.760 6.231,14.068 6.240,12.000 6.240 C 9.932 6.240,8.240 6.231,8.240 6.220 C 8.240 6.209,8.562 5.555,8.957 4.767 C 9.351 3.979,9.693 3.259,9.718 3.167 C 9.860 2.639,9.335 2.137,8.795 2.286 M16.971 8.619 C 17.433 9.540,17.505 9.631,17.828 9.717 C 18.348 9.856,18.857 9.348,18.717 8.830 C 18.693 8.738,18.583 8.485,18.473 8.266 L 18.274 7.869 18.512 7.896 C 18.818 7.931,19.242 8.052,19.504 8.180 C 20.118 8.480,20.400 9.025,20.400 9.907 L 20.400 10.240 12.000 10.240 L 3.600 10.240 3.600 9.907 C 3.600 9.025,3.882 8.480,4.496 8.180 C 4.758 8.052,5.182 7.931,5.488 7.896 L 5.726 7.869 5.527 8.266 C 5.417 8.485,5.306 8.742,5.280 8.838 C 5.143 9.351,5.654 9.855,6.172 9.717 C 6.495 9.631,6.567 9.540,7.029 8.619 L 7.460 7.760 12.000 7.760 L 16.540 7.760 16.971 8.619 M20.185 11.830 C 20.174 11.868,20.117 12.143,20.059 12.440 C 19.879 13.355,19.124 16.863,18.958 17.553 C 18.506 19.432,18.172 19.883,17.046 20.134 C 16.663 20.219,16.621 20.220,12.000 20.220 C 7.379 20.220,7.337 20.219,6.954 20.134 C 5.828 19.883,5.494 19.431,5.042 17.553 C 4.867 16.825,4.240 13.924,3.997 12.720 C 3.911 12.291,3.831 11.900,3.819 11.850 L 3.798 11.760 12.002 11.760 C 19.796 11.760,20.204 11.763,20.185 11.830 M9.826 13.284 C 9.476 13.366,9.267 13.636,9.267 14.003 C 9.267 14.281,9.387 14.496,9.627 14.645 L 9.780 14.740 12.000 14.740 L 14.220 14.740 14.369 14.647 C 14.943 14.290,14.812 13.424,14.162 13.284 C 13.910 13.230,10.056 13.230,9.826 13.284 " stroke="none" fill-rule="evenodd" fill="black"></path></svg>