<svg width="24" height="24" viewBox="0 0 24 24" fill="none" xmlns="http://www.w3.org/2000/svg"><path d="M11.600 1.281 C 10.997 1.341,10.499 1.519,9.965 1.867 C 9.344 2.271,8.960 2.708,8.635 3.380 C 8.477 3.706,8.441 3.820,8.441 3.996 C 8.439 4.421,8.760 4.740,9.181 4.734 C 9.553 4.729,9.711 4.593,9.962 4.062 C 10.249 3.455,10.804 2.989,11.440 2.819 C 11.722 2.744,12.278 2.744,12.560 2.819 C 13.196 2.989,13.751 3.455,14.038 4.062 C 14.289 4.594,14.447 4.729,14.821 4.734 C 15.240 4.740,15.561 4.420,15.559 3.995 C 15.558 3.588,15.089 2.765,14.588 2.291 C 14.316 2.034,13.781 1.683,13.449 1.543 C 12.922 1.322,12.207 1.221,11.600 1.281 M5.240 5.282 C 4.185 5.323,3.660 5.450,3.040 5.815 C 2.275 6.264,1.670 7.057,1.447 7.900 C 1.310 8.421,1.273 8.897,1.266 10.255 C 1.259 11.713,1.272 11.800,1.566 12.240 C 1.701 12.442,2.054 12.757,2.203 12.808 C 2.222 12.815,2.256 13.576,2.278 14.500 C 2.322 16.338,2.361 16.982,2.483 17.920 C 2.675 19.400,3.021 20.436,3.542 21.089 C 3.895 21.532,4.669 22.023,5.383 22.258 C 5.819 22.402,6.552 22.545,7.220 22.619 C 8.213 22.728,11.684 22.783,14.110 22.728 C 15.404 22.699,16.437 22.656,16.780 22.619 C 17.448 22.545,18.181 22.402,18.617 22.258 C 19.331 22.023,20.105 21.532,20.458 21.089 C 20.979 20.436,21.325 19.400,21.517 17.920 C 21.640 16.979,21.678 16.336,21.721 14.500 C 21.743 13.575,21.777 12.815,21.797 12.808 C 21.945 12.758,22.299 12.442,22.435 12.237 C 22.744 11.775,22.790 11.379,22.728 9.690 C 22.680 8.379,22.631 8.027,22.427 7.521 C 22.085 6.675,21.325 5.915,20.479 5.573 C 20.018 5.387,19.598 5.321,18.620 5.280 C 17.568 5.237,6.360 5.238,5.240 5.282 M19.254 6.804 C 19.861 6.878,20.284 7.078,20.633 7.457 C 20.978 7.831,21.126 8.169,21.196 8.746 C 21.259 9.260,21.254 11.325,21.190 11.411 C 21.158 11.454,20.091 11.793,18.204 12.359 C 16.590 12.844,15.264 13.240,15.259 13.240 C 15.253 13.240,15.242 13.110,15.234 12.950 C 15.208 12.472,14.953 12.082,14.528 11.873 L 14.340 11.780 12.000 11.780 L 9.660 11.780 9.472 11.873 C 9.047 12.082,8.792 12.472,8.766 12.950 C 8.758 13.110,8.747 13.240,8.741 13.240 C 8.736 13.240,7.410 12.844,5.796 12.359 C 3.909 11.793,2.842 11.454,2.810 11.411 C 2.746 11.325,2.741 9.260,2.804 8.746 C 2.880 8.125,3.084 7.704,3.484 7.344 C 3.842 7.022,4.183 6.871,4.700 6.806 C 5.123 6.752,18.818 6.750,19.254 6.804 M13.760 14.117 L 13.760 14.994 13.335 15.160 C 12.793 15.372,12.474 15.439,12.000 15.439 C 11.526 15.439,11.207 15.372,10.665 15.160 L 10.240 14.994 10.240 14.117 L 10.240 13.240 12.000 13.240 L 13.760 13.240 13.760 14.117 M6.211 14.042 C 7.536 14.439,8.652 14.773,8.690 14.785 C 8.748 14.802,8.760 14.853,8.760 15.076 C 8.760 15.414,8.832 15.661,9.001 15.895 C 9.178 16.142,9.351 16.247,9.997 16.501 C 10.880 16.849,11.127 16.898,12.000 16.898 C 12.873 16.898,13.120 16.849,14.003 16.501 C 14.649 16.247,14.822 16.142,14.999 15.895 C 15.168 15.661,15.240 15.414,15.240 15.076 C 15.240 14.853,15.252 14.802,15.310 14.785 C 15.348 14.773,16.464 14.439,17.789 14.042 C 19.114 13.645,20.210 13.320,20.225 13.320 C 20.261 13.320,20.212 15.637,20.159 16.460 C 20.049 18.154,19.807 19.324,19.437 19.942 C 19.093 20.517,18.174 20.940,16.923 21.100 C 16.044 21.212,15.089 21.239,12.000 21.239 C 8.161 21.239,7.201 21.190,6.226 20.943 C 5.765 20.826,5.178 20.555,4.900 20.332 C 4.319 19.865,3.982 18.632,3.841 16.460 C 3.788 15.637,3.739 13.320,3.775 13.320 C 3.790 13.320,4.886 13.645,6.211 14.042 " stroke="none" fill-rule="evenodd" fill="black"></path></svg>