<svg width="24" height="24" viewBox="0 0 24 24" fill="none" xmlns="http://www.w3.org/2000/svg"><path d="M10.180 2.265 C 9.849 2.309,9.470 2.424,9.200 2.564 C 8.510 2.920,8.082 3.438,7.782 4.279 C 7.649 4.651,7.563 4.791,7.354 4.981 C 7.093 5.217,6.929 5.267,6.200 5.338 C 4.390 5.514,3.495 5.842,2.673 6.631 C 1.947 7.328,1.565 8.255,1.379 9.770 C 1.272 10.640,1.218 13.733,1.272 15.870 C 1.330 18.176,1.404 18.875,1.682 19.727 C 2.105 21.022,2.978 21.895,4.273 22.318 C 5.404 22.687,6.648 22.758,12.000 22.758 C 17.335 22.758,18.598 22.686,19.727 22.318 C 21.224 21.829,22.134 20.767,22.482 19.100 C 22.633 18.376,22.680 17.761,22.728 15.890 C 22.781 13.768,22.727 10.632,22.621 9.770 C 22.435 8.255,22.053 7.329,21.327 6.631 C 20.505 5.842,19.610 5.514,17.800 5.338 C 17.071 5.267,16.907 5.217,16.646 4.981 C 16.437 4.791,16.351 4.651,16.218 4.279 C 15.922 3.449,15.494 2.927,14.822 2.573 C 14.246 2.271,14.205 2.266,12.140 2.257 C 11.128 2.253,10.246 2.256,10.180 2.265 M14.115 3.873 C 14.360 4.004,14.621 4.287,14.703 4.510 C 14.741 4.615,14.822 4.821,14.882 4.970 L 14.992 5.240 11.995 5.240 L 8.997 5.240 9.042 5.156 C 9.067 5.110,9.146 4.915,9.217 4.722 C 9.364 4.326,9.491 4.138,9.719 3.981 C 10.037 3.760,10.026 3.761,12.060 3.771 L 13.940 3.780 14.115 3.873 M17.301 6.802 C 18.925 6.908,19.667 7.125,20.236 7.662 C 20.400 7.817,20.559 8.015,20.638 8.162 C 20.709 8.296,20.761 8.412,20.754 8.419 C 20.715 8.456,18.551 9.828,18.110 10.094 C 17.559 10.427,16.764 10.858,16.743 10.835 C 16.736 10.827,16.699 10.751,16.660 10.668 C 16.421 10.156,15.663 10.130,15.358 10.624 C 15.291 10.732,15.265 10.850,15.250 11.116 L 15.230 11.465 14.825 11.571 C 12.984 12.052,11.014 12.051,9.170 11.570 L 8.760 11.462 8.760 11.253 C 8.760 11.138,8.740 10.951,8.716 10.838 C 8.573 10.172,7.649 10.057,7.339 10.665 C 7.295 10.750,7.256 10.827,7.252 10.835 C 7.238 10.860,6.423 10.416,5.890 10.094 C 5.449 9.828,3.285 8.456,3.246 8.419 C 3.239 8.412,3.291 8.296,3.362 8.162 C 3.539 7.830,3.955 7.444,4.328 7.265 C 4.844 7.017,5.550 6.874,6.600 6.805 C 7.353 6.755,16.541 6.752,17.301 6.802 M3.609 10.427 C 4.863 11.229,5.945 11.867,6.599 12.189 L 7.229 12.500 7.249 12.866 C 7.272 13.290,7.351 13.460,7.607 13.629 C 8.002 13.891,8.602 13.665,8.701 13.218 C 8.749 12.999,8.746 13.002,8.888 13.043 C 9.167 13.124,10.042 13.284,10.540 13.345 C 11.241 13.431,12.759 13.431,13.460 13.345 C 13.956 13.284,14.833 13.124,15.110 13.043 C 15.231 13.008,15.241 13.013,15.261 13.113 C 15.300 13.306,15.427 13.498,15.594 13.617 C 15.731 13.715,15.796 13.733,16.000 13.733 C 16.204 13.733,16.269 13.715,16.408 13.617 C 16.643 13.450,16.726 13.264,16.751 12.848 L 16.771 12.500 17.401 12.189 C 18.056 11.866,19.137 11.229,20.395 10.425 C 20.798 10.167,21.134 9.961,21.141 9.968 C 21.236 10.064,21.282 16.061,21.198 17.341 C 21.016 20.111,20.317 20.907,17.840 21.167 C 17.116 21.244,6.884 21.244,6.160 21.167 C 3.818 20.921,3.079 20.182,2.833 17.840 C 2.740 16.957,2.767 9.960,2.863 9.960 C 2.871 9.960,3.207 10.170,3.609 10.427 " stroke="none" fill-rule="evenodd" fill="black"></path></svg>