<svg width="24" height="24" viewBox="0 0 24 24" fill="none" xmlns="http://www.w3.org/2000/svg"><path d="M11.600 1.281 C 10.974 1.343,10.490 1.521,9.917 1.901 C 9.306 2.306,8.844 2.858,8.565 3.514 C 8.407 3.885,8.399 4.142,8.536 4.377 C 8.778 4.789,9.387 4.860,9.706 4.514 C 9.754 4.462,9.869 4.259,9.962 4.063 C 10.250 3.452,10.801 2.990,11.440 2.819 C 11.722 2.744,12.278 2.744,12.560 2.819 C 13.196 2.989,13.751 3.455,14.038 4.062 C 14.131 4.259,14.246 4.462,14.294 4.514 C 14.618 4.866,15.236 4.786,15.475 4.360 C 15.614 4.113,15.583 3.831,15.370 3.386 C 15.165 2.959,15.023 2.750,14.710 2.415 C 14.435 2.122,13.825 1.700,13.449 1.543 C 12.919 1.322,12.206 1.221,11.600 1.281 M7.420 5.283 C 4.824 5.355,3.629 5.695,2.669 6.635 C 1.937 7.351,1.565 8.256,1.379 9.770 C 1.272 10.640,1.218 13.733,1.272 15.870 C 1.330 18.176,1.404 18.875,1.682 19.727 C 2.105 21.022,2.978 21.895,4.273 22.318 C 5.402 22.686,6.664 22.758,12.000 22.758 C 17.336 22.758,18.598 22.686,19.727 22.318 C 21.002 21.901,21.880 21.036,22.302 19.779 C 22.587 18.928,22.670 18.166,22.728 15.870 C 22.764 14.440,22.764 13.560,22.728 12.130 C 22.680 10.220,22.635 9.637,22.476 8.870 C 22.143 7.261,21.227 6.184,19.779 5.698 C 18.998 5.436,18.134 5.331,16.360 5.280 C 14.828 5.236,9.033 5.238,7.420 5.283 M17.341 6.802 C 18.886 6.904,19.707 7.152,20.264 7.687 C 20.473 7.887,20.799 8.375,20.754 8.419 C 20.717 8.455,18.557 9.822,18.100 10.098 C 17.541 10.437,16.764 10.858,16.743 10.835 C 16.736 10.827,16.699 10.751,16.660 10.668 C 16.421 10.156,15.663 10.130,15.358 10.624 C 15.291 10.732,15.265 10.850,15.250 11.116 L 15.230 11.465 14.825 11.571 C 12.984 12.052,11.014 12.051,9.170 11.570 L 8.760 11.462 8.760 11.253 C 8.760 11.138,8.740 10.951,8.716 10.838 C 8.573 10.172,7.649 10.057,7.339 10.665 C 7.295 10.750,7.256 10.827,7.252 10.835 C 7.238 10.860,6.423 10.416,5.890 10.094 C 5.449 9.828,3.285 8.456,3.246 8.419 C 3.201 8.375,3.527 7.887,3.736 7.687 C 4.276 7.168,5.134 6.900,6.560 6.805 C 7.314 6.754,16.579 6.752,17.341 6.802 M3.609 10.427 C 4.863 11.229,5.945 11.867,6.599 12.189 L 7.229 12.500 7.249 12.866 C 7.272 13.290,7.351 13.460,7.607 13.629 C 8.002 13.891,8.602 13.665,8.701 13.218 C 8.749 12.999,8.746 13.002,8.888 13.043 C 9.167 13.124,10.042 13.284,10.540 13.345 C 11.241 13.431,12.759 13.431,13.460 13.345 C 13.956 13.284,14.833 13.124,15.110 13.043 C 15.231 13.008,15.241 13.013,15.261 13.113 C 15.300 13.306,15.427 13.498,15.594 13.617 C 15.731 13.715,15.796 13.733,16.000 13.733 C 16.204 13.733,16.269 13.715,16.408 13.617 C 16.643 13.450,16.726 13.264,16.751 12.848 L 16.771 12.500 17.401 12.189 C 18.056 11.866,19.137 11.229,20.395 10.425 C 20.798 10.167,21.134 9.961,21.141 9.968 C 21.236 10.064,21.282 16.061,21.198 17.341 C 21.016 20.111,20.317 20.907,17.840 21.167 C 17.116 21.244,6.884 21.244,6.160 21.167 C 3.818 20.921,3.079 20.182,2.833 17.840 C 2.740 16.957,2.767 9.960,2.863 9.960 C 2.871 9.960,3.207 10.170,3.609 10.427 " stroke="none" fill-rule="evenodd" fill="black"></path></svg>