<svg width="24" height="24" viewBox="0 0 24 24" fill="none" xmlns="http://www.w3.org/2000/svg"><path d="M10.180 1.265 C 9.849 1.309,9.470 1.424,9.200 1.564 C 8.504 1.924,8.076 2.444,7.776 3.300 C 7.687 3.551,7.622 3.661,7.471 3.812 C 7.119 4.165,6.737 4.279,5.900 4.280 C 4.974 4.281,4.170 4.386,3.598 4.581 C 2.596 4.921,1.858 5.690,1.544 6.720 C 1.360 7.323,1.323 7.665,1.275 9.226 C 1.223 10.875,1.253 11.542,1.394 11.914 C 1.508 12.215,1.753 12.518,2.014 12.680 C 2.217 12.806,2.239 12.834,2.241 12.960 C 2.253 13.956,2.326 16.271,2.359 16.720 C 2.518 18.877,2.899 20.283,3.542 21.089 C 3.895 21.532,4.669 22.023,5.383 22.258 C 5.819 22.402,6.552 22.545,7.220 22.619 C 7.563 22.656,8.596 22.699,9.890 22.728 C 12.316 22.783,15.787 22.728,16.780 22.619 C 17.448 22.545,18.181 22.402,18.617 22.258 C 19.331 22.023,20.105 21.532,20.458 21.089 C 20.979 20.436,21.325 19.400,21.517 17.920 C 21.640 16.979,21.678 16.336,21.721 14.503 C 21.743 13.581,21.765 12.823,21.770 12.819 C 21.776 12.816,21.883 12.746,22.009 12.663 C 22.135 12.581,22.303 12.425,22.383 12.316 C 22.740 11.830,22.791 11.364,22.724 9.250 C 22.676 7.730,22.653 7.473,22.522 6.952 C 22.348 6.256,22.116 5.840,21.638 5.362 C 21.164 4.888,20.751 4.657,20.062 4.481 C 19.599 4.362,19.185 4.318,18.206 4.282 C 17.195 4.245,17.014 4.204,16.667 3.939 C 16.430 3.758,16.344 3.631,16.217 3.275 C 15.922 2.449,15.493 1.926,14.822 1.573 C 14.246 1.271,14.205 1.266,12.140 1.257 C 11.128 1.253,10.246 1.256,10.180 1.265 M14.115 2.873 C 14.360 3.004,14.621 3.287,14.703 3.510 C 14.741 3.615,14.822 3.821,14.882 3.970 L 14.992 4.240 11.995 4.240 L 8.997 4.240 9.042 4.156 C 9.067 4.110,9.146 3.915,9.217 3.722 C 9.364 3.326,9.491 3.138,9.719 2.981 C 10.037 2.760,10.026 2.761,12.060 2.771 L 13.940 2.780 14.115 2.873 M19.374 5.854 C 20.026 5.983,20.366 6.153,20.672 6.500 C 20.982 6.853,21.136 7.341,21.200 8.176 C 21.246 8.779,21.253 11.318,21.209 11.384 C 21.193 11.408,21.143 11.448,21.097 11.472 C 21.037 11.503,17.267 12.645,15.314 13.223 C 15.259 13.240,15.247 13.198,15.234 12.951 C 15.208 12.472,14.953 12.082,14.528 11.873 L 14.340 11.780 12.000 11.780 L 9.660 11.780 9.472 11.873 C 9.047 12.082,8.792 12.472,8.766 12.951 C 8.753 13.198,8.741 13.240,8.686 13.223 C 6.733 12.645,2.963 11.503,2.903 11.472 C 2.857 11.448,2.807 11.408,2.791 11.384 C 2.746 11.317,2.754 8.722,2.801 8.149 C 2.867 7.331,3.022 6.849,3.328 6.500 C 3.710 6.066,4.202 5.876,5.140 5.800 C 5.338 5.784,8.542 5.773,12.260 5.777 C 18.539 5.783,19.045 5.788,19.374 5.854 M13.760 14.117 L 13.760 14.994 13.335 15.160 C 12.793 15.372,12.474 15.439,12.000 15.439 C 11.526 15.439,11.207 15.372,10.665 15.160 L 10.240 14.994 10.240 14.117 L 10.240 13.240 12.000 13.240 L 13.760 13.240 13.760 14.117 M6.211 14.042 C 7.536 14.439,8.652 14.773,8.690 14.785 C 8.748 14.802,8.760 14.853,8.760 15.076 C 8.760 15.414,8.832 15.661,9.001 15.895 C 9.178 16.142,9.351 16.247,9.997 16.501 C 10.880 16.849,11.127 16.898,12.000 16.898 C 12.873 16.898,13.120 16.849,14.003 16.501 C 14.649 16.247,14.822 16.142,14.999 15.895 C 15.168 15.661,15.240 15.414,15.240 15.076 C 15.240 14.853,15.252 14.802,15.310 14.785 C 15.348 14.773,16.464 14.439,17.789 14.042 C 19.114 13.645,20.210 13.320,20.225 13.320 C 20.261 13.320,20.212 15.637,20.159 16.460 C 20.049 18.154,19.807 19.324,19.437 19.942 C 19.093 20.517,18.174 20.940,16.923 21.100 C 16.044 21.212,15.089 21.239,12.000 21.239 C 8.161 21.239,7.201 21.190,6.226 20.943 C 5.765 20.826,5.178 20.555,4.900 20.332 C 4.319 19.865,3.982 18.632,3.841 16.460 C 3.788 15.637,3.739 13.320,3.775 13.320 C 3.790 13.320,4.886 13.645,6.211 14.042 " stroke="none" fill-rule="evenodd" fill="black"></path></svg>