<svg width="24" height="24" viewBox="0 0 24 24" fill="none" xmlns="http://www.w3.org/2000/svg"><path d="M5.480 2.281 C 3.408 2.473,1.712 4.055,1.339 6.142 C 1.262 6.574,1.252 7.384,1.318 7.814 C 1.547 9.295,2.529 10.644,3.860 11.305 L 4.233 11.490 4.252 14.655 C 4.271 17.793,4.288 18.209,4.418 18.720 C 4.696 19.815,5.373 20.427,6.540 20.640 C 7.006 20.724,8.539 20.757,12.000 20.757 C 15.461 20.757,16.994 20.724,17.460 20.640 C 18.708 20.413,19.418 19.704,19.637 18.469 C 19.674 18.258,19.773 16.900,19.757 16.816 C 19.754 16.796,19.753 15.591,19.755 14.137 L 19.760 11.494 20.137 11.307 C 21.396 10.682,22.314 9.489,22.637 8.060 C 22.815 7.271,22.738 6.123,22.457 5.375 C 21.856 3.780,20.667 2.732,19.020 2.348 C 18.663 2.264,18.610 2.264,12.240 2.257 C 8.709 2.253,5.667 2.264,5.480 2.281 M19.060 3.892 C 20.050 4.240,20.800 5.034,21.126 6.080 C 21.207 6.340,21.219 6.463,21.220 7.000 C 21.220 7.471,21.203 7.683,21.149 7.880 C 21.055 8.225,20.839 8.676,20.623 8.978 C 20.448 9.223,19.992 9.679,19.840 9.760 C 19.767 9.799,19.760 9.790,19.759 9.651 C 19.754 9.122,19.676 7.740,19.640 7.540 C 19.412 6.289,18.712 5.589,17.460 5.360 C 17.001 5.277,15.438 5.243,12.000 5.243 C 8.562 5.243,6.999 5.277,6.540 5.360 C 5.288 5.589,4.588 6.289,4.360 7.540 C 4.324 7.740,4.246 9.122,4.241 9.651 C 4.240 9.790,4.233 9.799,4.160 9.760 C 4.008 9.679,3.552 9.223,3.377 8.978 C 3.161 8.676,2.945 8.225,2.851 7.880 C 2.797 7.683,2.780 7.470,2.780 7.000 C 2.780 6.462,2.792 6.341,2.874 6.080 C 3.236 4.923,4.134 4.057,5.220 3.818 C 5.414 3.776,6.734 3.767,12.100 3.773 L 18.740 3.780 19.060 3.892 M11.240 8.862 L 11.240 10.964 10.854 10.517 C 10.451 10.051,10.269 9.923,10.009 9.921 C 9.746 9.919,9.456 10.098,9.331 10.339 C 9.247 10.500,9.249 10.829,9.334 10.991 C 9.446 11.204,11.498 13.573,11.643 13.657 C 11.730 13.707,11.851 13.733,12.000 13.733 C 12.149 13.733,12.270 13.707,12.357 13.657 C 12.502 13.573,14.554 11.204,14.666 10.991 C 14.751 10.829,14.753 10.500,14.669 10.339 C 14.544 10.098,14.254 9.919,13.991 9.921 C 13.731 9.923,13.549 10.051,13.146 10.517 L 12.760 10.964 12.760 8.859 L 12.760 6.754 14.910 6.772 C 16.293 6.783,17.131 6.806,17.260 6.835 C 17.370 6.859,17.559 6.930,17.679 6.991 C 17.863 7.084,17.916 7.137,18.009 7.321 C 18.070 7.441,18.141 7.630,18.167 7.740 C 18.200 7.883,18.218 9.125,18.228 12.090 L 18.243 16.240 12.002 16.240 L 5.760 16.240 5.760 12.338 C 5.760 9.828,5.775 8.300,5.803 8.052 C 5.880 7.364,6.046 7.078,6.460 6.924 C 6.812 6.792,7.186 6.771,9.270 6.765 L 11.240 6.760 11.240 8.862 M18.186 18.039 C 18.153 18.389,18.030 18.724,17.877 18.877 C 17.715 19.039,17.403 19.146,16.948 19.197 C 16.419 19.256,7.581 19.256,7.052 19.197 C 6.597 19.146,6.285 19.039,6.123 18.877 C 5.970 18.724,5.847 18.389,5.814 18.039 L 5.789 17.760 12.000 17.760 L 18.211 17.760 18.186 18.039 " stroke="none" fill-rule="evenodd" fill="black"></path></svg>