<svg width="24" height="24" viewBox="0 0 24 24" fill="none" xmlns="http://www.w3.org/2000/svg"><path d="M7.420 3.282 C 4.817 3.355,3.631 3.693,2.669 4.635 C 1.936 5.352,1.566 6.252,1.377 7.780 C 1.273 8.617,1.219 11.798,1.273 13.890 C 1.321 15.727,1.361 16.284,1.497 17.011 C 1.809 18.677,2.744 19.806,4.221 20.302 C 5.354 20.682,6.645 20.758,12.000 20.758 C 17.355 20.758,18.646 20.682,19.779 20.302 C 21.016 19.886,21.886 19.016,22.302 17.779 C 22.587 16.928,22.670 16.166,22.728 13.870 C 22.764 12.440,22.764 11.560,22.728 10.130 C 22.670 7.834,22.587 7.072,22.302 6.221 C 21.886 4.984,21.016 4.114,19.779 3.698 C 19.005 3.439,18.137 3.331,16.400 3.280 C 14.922 3.237,8.986 3.238,7.420 3.282 M11.240 6.260 L 11.240 7.760 10.530 7.759 C 9.771 7.758,9.204 7.716,8.927 7.642 C 8.523 7.533,8.300 7.166,7.747 5.700 C 7.581 5.260,7.434 4.869,7.419 4.830 C 7.393 4.764,7.499 4.760,9.316 4.760 L 11.240 4.760 11.240 6.260 M16.581 4.830 C 16.566 4.869,16.419 5.260,16.253 5.700 C 15.700 7.166,15.477 7.533,15.073 7.642 C 14.796 7.716,14.229 7.758,13.470 7.759 L 12.760 7.760 12.760 6.260 L 12.760 4.760 14.684 4.760 C 16.501 4.760,16.607 4.764,16.581 4.830 M6.260 5.980 C 6.739 7.248,6.845 7.504,7.011 7.800 C 7.333 8.373,7.657 8.695,8.140 8.923 C 8.752 9.211,8.749 9.211,11.680 9.229 C 13.394 9.240,14.455 9.231,14.747 9.202 C 15.686 9.111,16.284 8.810,16.732 8.203 C 17.034 7.796,17.212 7.390,17.955 5.420 L 18.151 4.900 18.345 4.910 C 18.579 4.921,18.849 4.978,19.200 5.089 C 20.137 5.386,20.657 5.927,20.939 6.901 C 21.190 7.768,21.240 8.610,21.240 12.000 C 21.240 15.390,21.190 16.232,20.939 17.099 C 20.523 18.533,19.644 19.047,17.341 19.198 C 16.484 19.254,7.516 19.254,6.659 19.198 C 3.889 19.016,3.093 18.317,2.833 15.840 C 2.758 15.128,2.758 8.872,2.833 8.160 C 3.050 6.094,3.646 5.319,5.300 4.955 C 5.875 4.828,5.790 4.737,6.260 5.980 M7.620 10.817 C 7.189 10.918,6.771 11.105,6.480 11.327 C 6.078 11.634,5.625 12.211,5.470 12.613 C 5.175 13.377,5.205 14.375,5.542 15.046 C 6.128 16.213,7.288 16.853,8.575 16.721 C 9.382 16.637,10.153 16.196,10.674 15.519 C 10.825 15.323,11.035 14.896,11.126 14.600 C 11.248 14.206,11.258 13.365,11.146 12.960 C 10.874 11.972,10.033 11.126,9.060 10.860 C 8.728 10.769,7.927 10.746,7.620 10.817 M15.120 10.817 C 14.170 11.016,13.307 11.750,12.957 12.658 C 12.651 13.451,12.709 14.427,13.108 15.159 C 13.279 15.474,13.339 15.554,13.632 15.853 C 14.394 16.633,15.560 16.930,16.634 16.618 C 17.382 16.400,18.078 15.803,18.452 15.058 C 18.889 14.187,18.812 12.950,18.270 12.135 C 18.099 11.879,17.754 11.507,17.519 11.326 C 17.329 11.180,16.900 10.967,16.620 10.879 C 16.264 10.768,15.505 10.736,15.120 10.817 M8.523 12.281 C 8.832 12.339,9.072 12.468,9.302 12.698 C 10.037 13.433,9.832 14.626,8.888 15.104 C 8.682 15.209,8.622 15.220,8.260 15.220 C 7.909 15.220,7.832 15.207,7.631 15.112 C 7.337 14.975,7.025 14.663,6.888 14.369 C 6.793 14.168,6.780 14.091,6.780 13.740 C 6.780 13.386,6.792 13.315,6.889 13.119 C 7.088 12.713,7.469 12.403,7.900 12.296 C 8.155 12.233,8.259 12.231,8.523 12.281 M16.048 12.285 C 16.501 12.381,16.888 12.684,17.104 13.112 C 17.209 13.318,17.220 13.378,17.220 13.740 C 17.220 14.091,17.207 14.168,17.112 14.369 C 16.975 14.663,16.663 14.975,16.369 15.112 C 16.168 15.207,16.091 15.220,15.740 15.220 C 15.386 15.220,15.315 15.208,15.119 15.111 C 14.175 14.648,13.963 13.433,14.698 12.698 C 15.074 12.322,15.545 12.178,16.048 12.285 " stroke="none" fill-rule="evenodd" fill="black"></path></svg>