<svg width="24" height="24" viewBox="0 0 24 24" fill="none" xmlns="http://www.w3.org/2000/svg"><path d="M5.720 4.278 C 4.670 4.393,3.796 5.070,3.462 6.026 C 3.296 6.504,3.272 6.834,3.290 8.363 C 3.309 9.950,3.339 10.164,3.624 10.735 L 3.762 11.010 3.643 11.319 C 3.384 11.989,3.291 12.540,3.272 13.508 L 3.260 14.117 2.860 14.265 C 2.306 14.470,1.685 14.765,1.529 14.898 C 1.349 15.051,1.269 15.221,1.266 15.461 C 1.260 15.877,1.585 16.200,2.010 16.200 C 2.149 16.200,2.282 16.156,2.547 16.023 C 2.741 15.926,2.994 15.811,3.108 15.767 L 3.316 15.689 3.360 15.915 C 3.396 16.101,3.597 16.730,3.695 16.960 C 3.714 17.003,3.657 17.059,3.497 17.155 C 3.027 17.436,2.880 17.634,2.880 17.985 C 2.880 18.385,3.196 18.699,3.600 18.699 C 3.828 18.698,3.912 18.662,4.388 18.362 L 4.597 18.230 4.868 18.479 C 6.349 19.837,9.171 20.727,12.000 20.727 C 14.829 20.727,17.651 19.837,19.132 18.479 L 19.403 18.230 19.612 18.362 C 20.088 18.662,20.172 18.698,20.400 18.699 C 20.804 18.699,21.120 18.385,21.120 17.985 C 21.120 17.634,20.973 17.436,20.503 17.155 C 20.343 17.059,20.286 17.003,20.305 16.960 C 20.403 16.730,20.604 16.101,20.640 15.915 L 20.684 15.689 20.892 15.767 C 21.006 15.811,21.259 15.926,21.453 16.023 C 21.718 16.156,21.851 16.200,21.990 16.200 C 22.415 16.200,22.740 15.877,22.734 15.461 C 22.731 15.221,22.651 15.051,22.471 14.898 C 22.314 14.765,21.693 14.469,21.140 14.265 L 20.740 14.117 20.728 13.489 C 20.711 12.544,20.583 11.833,20.317 11.212 L 20.235 11.023 20.377 10.721 C 20.671 10.095,20.692 9.947,20.710 8.363 C 20.729 6.801,20.705 6.500,20.522 5.998 C 20.139 4.950,19.161 4.278,18.007 4.271 C 17.388 4.268,16.891 4.440,15.900 5.001 C 15.614 5.163,15.173 5.409,14.920 5.547 C 14.389 5.839,14.387 5.839,13.460 5.740 C 13.137 5.706,12.519 5.681,12.000 5.681 C 11.481 5.681,10.863 5.706,10.540 5.740 C 9.613 5.839,9.611 5.839,9.080 5.547 C 8.827 5.409,8.386 5.163,8.100 5.001 C 7.010 4.383,6.414 4.202,5.720 4.278 M6.640 5.933 C 6.849 6.027,7.228 6.223,7.482 6.368 C 9.234 7.366,9.237 7.367,10.477 7.242 C 10.964 7.193,11.579 7.160,12.000 7.160 C 12.421 7.160,13.036 7.193,13.523 7.242 C 14.431 7.334,14.627 7.321,15.073 7.140 C 15.318 7.040,15.457 6.966,16.460 6.399 C 17.271 5.941,17.696 5.760,17.965 5.760 C 18.438 5.760,18.861 6.008,19.061 6.402 C 19.218 6.713,19.248 7.055,19.233 8.379 C 19.226 9.047,19.208 9.605,19.194 9.619 C 19.180 9.633,19.052 9.565,18.910 9.468 C 18.767 9.371,18.586 9.279,18.506 9.264 C 18.094 9.186,17.640 9.556,17.640 9.970 C 17.640 10.245,17.721 10.369,18.221 10.860 C 18.656 11.287,18.728 11.378,18.873 11.680 C 19.095 12.146,19.201 12.593,19.229 13.188 L 19.252 13.681 18.912 13.655 C 18.474 13.622,18.312 13.654,18.133 13.811 C 17.954 13.968,17.880 14.139,17.881 14.389 C 17.882 14.728,18.146 15.053,18.454 15.095 C 18.852 15.150,19.174 15.204,19.199 15.219 C 19.266 15.261,19.047 16.206,18.946 16.307 C 18.936 16.317,18.848 16.299,18.751 16.266 C 18.472 16.171,17.942 16.110,17.781 16.155 C 17.129 16.335,17.035 17.231,17.638 17.531 L 17.837 17.631 17.628 17.769 C 16.643 18.422,15.270 18.890,13.580 19.146 C 12.895 19.250,11.105 19.250,10.420 19.146 C 8.730 18.890,7.357 18.422,6.372 17.769 L 6.163 17.631 6.362 17.531 C 6.965 17.231,6.871 16.335,6.219 16.155 C 6.058 16.110,5.528 16.171,5.247 16.266 C 5.036 16.338,5.036 16.338,4.919 15.960 C 4.821 15.645,4.757 15.271,4.794 15.232 C 4.817 15.207,5.074 15.160,5.546 15.095 C 5.854 15.053,6.118 14.728,6.119 14.389 C 6.120 14.139,6.046 13.968,5.867 13.811 C 5.688 13.654,5.526 13.622,5.088 13.655 L 4.748 13.681 4.771 13.188 C 4.799 12.593,4.905 12.146,5.127 11.680 C 5.271 11.378,5.344 11.287,5.778 10.860 C 6.278 10.369,6.360 10.244,6.360 9.970 C 6.360 9.556,5.906 9.186,5.494 9.264 C 5.414 9.279,5.233 9.371,5.090 9.468 C 4.948 9.565,4.820 9.633,4.806 9.619 C 4.758 9.572,4.751 7.180,4.797 6.880 C 4.906 6.182,5.358 5.769,6.020 5.763 C 6.220 5.761,6.323 5.789,6.640 5.933 M8.530 12.181 C 8.283 12.306,8.085 12.532,7.932 12.863 C 7.833 13.079,7.823 13.143,7.822 13.580 C 7.821 14.156,7.899 14.399,8.188 14.720 C 8.457 15.019,8.630 15.098,9.020 15.099 C 9.297 15.100,9.365 15.085,9.525 14.992 C 9.768 14.848,9.944 14.642,10.096 14.322 C 10.213 14.075,10.220 14.034,10.217 13.600 C 10.216 13.267,10.196 13.090,10.146 12.960 C 10.036 12.671,9.809 12.374,9.591 12.234 C 9.415 12.122,9.349 12.103,9.065 12.090 C 8.775 12.076,8.718 12.085,8.530 12.181 M14.530 12.181 C 14.283 12.306,14.085 12.532,13.932 12.863 C 13.833 13.079,13.823 13.143,13.822 13.580 C 13.821 14.156,13.899 14.399,14.188 14.720 C 14.457 15.019,14.630 15.098,15.020 15.099 C 15.297 15.100,15.365 15.085,15.525 14.992 C 15.768 14.848,15.944 14.642,16.096 14.322 C 16.213 14.075,16.220 14.034,16.217 13.600 C 16.216 13.267,16.196 13.090,16.146 12.960 C 16.036 12.671,15.809 12.374,15.591 12.234 C 15.415 12.122,15.349 12.103,15.065 12.090 C 14.775 12.076,14.718 12.085,14.530 12.181 M11.482 14.987 C 11.087 15.070,10.698 15.334,10.564 15.612 C 10.318 16.120,10.583 16.666,11.200 16.926 C 11.396 17.008,11.484 17.018,12.020 17.019 C 12.569 17.020,12.639 17.012,12.840 16.923 C 13.321 16.711,13.560 16.405,13.560 16.000 C 13.560 15.594,13.318 15.284,12.840 15.079 C 12.652 14.999,12.544 14.984,12.100 14.976 C 11.814 14.971,11.536 14.976,11.482 14.987 " stroke="none" fill-rule="evenodd" fill="black"></path></svg>