<svg width="24" height="24" viewBox="0 0 24 24" fill="none" xmlns="http://www.w3.org/2000/svg"><path d="M10.320 1.278 C 8.831 1.337,8.038 1.591,7.344 2.232 C 6.783 2.750,6.461 3.351,6.242 4.286 C 6.106 4.871,5.751 7.608,5.638 8.949 C 5.579 9.640,5.608 10.529,5.700 10.860 C 5.882 11.516,6.323 12.066,6.885 12.335 C 7.524 12.641,7.990 12.703,9.950 12.745 L 11.240 12.772 11.240 13.266 L 11.240 13.760 9.008 13.760 C 7.121 13.760,6.740 13.770,6.538 13.822 C 6.407 13.856,6.262 13.909,6.215 13.940 C 6.131 13.994,6.125 13.982,5.919 13.388 C 5.615 12.507,5.412 12.133,4.992 11.676 C 4.709 11.366,4.246 11.094,3.775 10.958 C 3.199 10.793,2.000 10.701,1.733 10.803 C 1.460 10.905,1.269 11.193,1.269 11.500 C 1.269 11.727,1.339 11.889,1.506 12.047 C 1.664 12.196,1.801 12.240,2.113 12.240 C 2.823 12.241,3.497 12.386,3.788 12.600 C 4.125 12.849,4.229 13.070,4.792 14.748 C 5.367 16.458,5.561 16.891,5.949 17.319 C 6.205 17.603,6.579 17.880,6.890 18.017 C 7.350 18.221,7.573 18.240,9.478 18.240 L 11.240 18.240 11.240 18.834 L 11.240 19.427 11.070 19.478 C 10.977 19.506,10.792 19.583,10.660 19.650 C 9.873 20.046,9.323 20.604,8.949 21.386 C 8.803 21.693,8.780 21.776,8.780 22.006 C 8.780 22.245,8.793 22.289,8.904 22.426 C 9.083 22.647,9.258 22.738,9.499 22.734 C 9.856 22.729,10.086 22.545,10.252 22.133 C 10.373 21.833,10.536 21.594,10.766 21.376 C 10.932 21.220,11.170 21.040,11.212 21.040 C 11.223 21.040,11.238 21.306,11.246 21.630 C 11.259 22.163,11.269 22.235,11.353 22.369 C 11.709 22.944,12.576 22.812,12.716 22.162 C 12.740 22.049,12.760 21.750,12.760 21.498 C 12.760 21.246,12.770 21.040,12.783 21.040 C 12.836 21.040,13.153 21.286,13.305 21.446 C 13.506 21.657,13.654 21.891,13.764 22.170 C 13.909 22.542,14.154 22.729,14.501 22.734 C 14.742 22.738,14.917 22.647,15.096 22.426 C 15.207 22.289,15.220 22.245,15.220 22.006 C 15.220 21.764,15.201 21.700,15.009 21.319 C 14.758 20.820,14.504 20.491,14.105 20.151 C 13.804 19.894,13.233 19.566,12.930 19.477 L 12.760 19.427 12.760 18.834 L 12.760 18.240 14.522 18.240 C 16.427 18.240,16.650 18.221,17.110 18.017 C 17.421 17.880,17.795 17.603,18.051 17.319 C 18.439 16.891,18.633 16.458,19.208 14.748 C 19.771 13.070,19.875 12.849,20.212 12.600 C 20.503 12.386,21.177 12.241,21.887 12.240 C 22.199 12.240,22.336 12.196,22.494 12.047 C 22.661 11.889,22.731 11.727,22.731 11.500 C 22.731 11.193,22.540 10.905,22.267 10.803 C 22.000 10.701,20.801 10.793,20.225 10.958 C 19.754 11.094,19.291 11.366,19.008 11.676 C 18.586 12.135,18.380 12.515,18.080 13.388 C 17.875 13.983,17.869 13.995,17.786 13.940 C 17.738 13.909,17.593 13.856,17.462 13.822 C 17.260 13.770,16.879 13.760,14.992 13.760 L 12.760 13.760 12.760 13.266 L 12.760 12.772 14.050 12.745 C 16.010 12.703,16.476 12.641,17.115 12.335 C 17.677 12.066,18.118 11.517,18.300 10.860 C 18.391 10.535,18.421 9.619,18.363 8.955 C 18.301 8.241,18.059 6.183,17.939 5.353 C 17.704 3.734,17.454 3.072,16.826 2.410 C 16.215 1.767,15.499 1.442,14.436 1.324 C 13.936 1.269,11.299 1.239,10.320 1.278 M14.200 2.800 C 14.954 2.877,15.265 2.996,15.647 3.353 C 16.219 3.888,16.340 4.357,16.697 7.420 C 16.888 9.050,16.935 9.634,16.909 10.059 C 16.865 10.775,16.634 11.029,15.900 11.167 C 15.493 11.244,8.507 11.244,8.101 11.167 C 7.347 11.025,7.129 10.777,7.090 10.020 C 7.067 9.571,7.102 9.147,7.303 7.420 C 7.660 4.353,7.779 3.891,8.344 3.362 C 8.725 3.006,9.049 2.876,9.740 2.804 C 10.194 2.757,13.744 2.754,14.200 2.800 M17.151 15.302 C 17.224 15.353,17.240 15.403,17.240 15.572 C 17.240 15.991,16.916 16.455,16.485 16.655 L 16.300 16.740 12.000 16.740 L 7.700 16.740 7.513 16.654 C 7.085 16.456,6.796 16.053,6.767 15.615 C 6.740 15.201,6.196 15.240,12.000 15.240 C 16.517 15.240,17.072 15.247,17.151 15.302 " stroke="none" fill-rule="evenodd" fill="black"></path></svg>