<svg width="24" height="24" viewBox="0 0 24 24" fill="none" xmlns="http://www.w3.org/2000/svg"><path d="M10.360 2.279 C 9.571 2.312,9.274 2.350,8.806 2.481 C 7.744 2.776,6.781 3.739,6.479 4.806 C 6.297 5.453,6.277 5.787,6.252 8.664 L 6.229 11.388 6.043 11.435 C 5.170 11.659,4.598 12.324,4.385 13.362 C 4.301 13.774,4.226 14.806,4.258 15.120 C 4.326 15.801,4.598 16.236,5.121 16.500 C 5.367 16.625,5.755 16.719,6.028 16.719 L 6.237 16.720 6.248 18.970 L 6.260 21.220 6.353 21.369 C 6.710 21.943,7.576 21.812,7.716 21.162 C 7.745 21.027,7.760 20.239,7.760 18.858 L 7.760 16.760 11.998 16.760 L 16.237 16.760 16.248 18.990 L 16.260 21.220 16.353 21.369 C 16.710 21.943,17.576 21.812,17.716 21.162 C 17.745 21.026,17.760 20.234,17.760 18.838 L 17.760 16.720 17.970 16.719 C 18.245 16.719,18.633 16.625,18.879 16.500 C 19.402 16.236,19.674 15.801,19.742 15.120 C 19.774 14.806,19.699 13.774,19.615 13.362 C 19.402 12.324,18.830 11.659,17.957 11.435 L 17.771 11.388 17.748 8.684 C 17.734 6.988,17.708 5.846,17.679 5.620 C 17.547 4.606,17.256 3.970,16.643 3.357 C 16.030 2.745,15.353 2.436,14.380 2.323 C 13.902 2.268,11.292 2.239,10.360 2.279 M14.572 3.854 C 15.007 3.959,15.269 4.105,15.582 4.418 C 15.895 4.731,16.041 4.992,16.146 5.428 C 16.204 5.664,16.215 6.070,16.229 8.470 L 16.245 11.240 12.000 11.240 L 7.755 11.240 7.771 8.470 C 7.789 5.449,7.791 5.429,8.027 4.929 C 8.169 4.629,8.627 4.170,8.925 4.029 C 9.437 3.787,9.708 3.766,12.180 3.778 C 13.977 3.787,14.341 3.799,14.572 3.854 M17.200 12.801 C 17.607 12.854,17.898 13.000,18.001 13.203 C 18.123 13.441,18.197 13.824,18.232 14.388 C 18.271 15.032,18.252 15.167,18.120 15.204 C 17.990 15.240,6.011 15.241,5.881 15.205 C 5.745 15.167,5.727 15.039,5.767 14.403 C 5.804 13.818,5.876 13.442,5.999 13.203 C 6.098 13.007,6.398 12.851,6.764 12.803 C 7.134 12.755,16.832 12.754,17.200 12.801 " stroke="none" fill-rule="evenodd" fill="black"></path></svg>