<svg width="24" height="24" viewBox="0 0 24 24" fill="none" xmlns="http://www.w3.org/2000/svg"><path d="M8.815 3.278 C 8.331 3.393,8.098 4.004,8.383 4.408 C 8.610 4.729,8.656 4.738,10.031 4.753 L 11.241 4.765 11.231 10.933 L 11.220 17.100 11.112 17.392 C 10.959 17.803,10.753 18.125,10.439 18.439 C 10.124 18.754,9.801 18.961,9.392 19.110 C 9.124 19.208,9.051 19.217,8.500 19.217 C 7.978 19.217,7.866 19.205,7.640 19.126 C 6.664 18.783,5.897 17.870,5.779 16.910 C 5.757 16.733,5.763 16.677,5.805 16.665 C 6.393 16.490,6.734 16.339,7.114 16.089 C 7.874 15.586,8.446 14.732,8.665 13.775 C 8.744 13.426,8.790 11.136,8.726 10.684 C 8.621 9.932,8.084 9.384,7.350 9.278 C 7.025 9.231,2.975 9.231,2.650 9.278 C 1.916 9.384,1.379 9.932,1.274 10.684 C 1.210 11.136,1.256 13.426,1.335 13.775 C 1.660 15.199,2.700 16.273,4.104 16.637 L 4.268 16.680 4.295 16.998 C 4.410 18.375,5.417 19.763,6.733 20.360 C 7.822 20.853,9.177 20.854,10.265 20.361 C 10.834 20.103,11.584 19.502,11.881 19.066 C 11.935 18.986,11.989 18.921,12.000 18.921 C 12.011 18.921,12.065 18.986,12.119 19.066 C 12.415 19.501,13.166 20.103,13.733 20.360 C 14.822 20.853,16.177 20.854,17.265 20.361 C 18.583 19.763,19.590 18.375,19.705 16.998 L 19.732 16.680 19.896 16.637 C 21.300 16.273,22.343 15.195,22.664 13.775 C 22.747 13.409,22.789 11.442,22.725 10.958 C 22.664 10.497,22.502 10.176,22.157 9.830 C 21.839 9.510,21.513 9.341,21.100 9.282 C 20.735 9.229,17.265 9.229,16.900 9.282 C 16.485 9.342,16.162 9.510,15.836 9.836 C 15.293 10.379,15.218 10.706,15.252 12.398 C 15.279 13.776,15.338 14.078,15.723 14.793 C 16.235 15.747,16.962 16.297,18.195 16.665 C 18.270 16.687,18.222 17.055,18.098 17.412 C 17.965 17.794,17.754 18.124,17.439 18.439 C 17.124 18.754,16.801 18.961,16.392 19.110 C 16.124 19.208,16.051 19.217,15.500 19.217 C 14.978 19.217,14.866 19.205,14.640 19.126 C 13.839 18.844,13.160 18.167,12.873 17.360 L 12.780 17.100 12.769 10.930 L 12.759 4.760 13.857 4.760 C 15.144 4.760,15.303 4.737,15.520 4.520 C 15.918 4.122,15.730 3.423,15.189 3.286 C 14.979 3.234,9.033 3.226,8.815 3.278 M7.240 12.052 C 7.240 13.478,7.223 13.612,6.990 14.057 C 6.917 14.195,6.741 14.421,6.581 14.581 C 6.121 15.041,5.644 15.240,5.000 15.240 C 4.356 15.240,3.879 15.041,3.419 14.581 C 3.259 14.421,3.083 14.195,3.010 14.057 C 2.777 13.612,2.760 13.478,2.760 12.052 L 2.760 10.760 5.000 10.760 L 7.240 10.760 7.240 12.052 M21.104 10.896 L 21.240 11.032 21.240 12.188 C 21.240 13.466,21.220 13.619,20.990 14.057 C 20.917 14.195,20.741 14.421,20.581 14.581 C 20.121 15.041,19.644 15.240,19.000 15.240 C 18.356 15.240,17.879 15.041,17.419 14.581 C 17.259 14.421,17.083 14.195,17.010 14.057 C 16.780 13.619,16.760 13.466,16.760 12.188 L 16.760 11.032 16.896 10.896 L 17.032 10.760 19.000 10.760 L 20.968 10.760 21.104 10.896 " stroke="none" fill-rule="evenodd" fill="black"></path></svg>