<svg width="24" height="24" viewBox="0 0 24 24" fill="none" xmlns="http://www.w3.org/2000/svg"><path d="M10.780 1.279 C 10.472 1.296,10.130 1.331,10.020 1.357 C 9.038 1.584,8.525 2.133,8.336 3.160 C 8.287 3.424,8.269 3.931,8.251 5.433 L 8.228 7.366 8.144 7.342 C 7.846 7.257,7.255 7.235,5.747 7.250 C 4.312 7.264,4.072 7.275,3.880 7.337 C 3.137 7.576,2.586 8.125,2.334 8.880 C 2.264 9.089,2.260 9.400,2.249 15.164 L 2.238 21.229 1.991 21.255 C 1.533 21.302,1.267 21.579,1.267 22.007 C 1.267 22.203,1.286 22.270,1.383 22.408 C 1.448 22.499,1.572 22.610,1.660 22.656 L 1.820 22.740 11.880 22.751 C 19.099 22.758,22.000 22.749,22.154 22.717 C 22.568 22.631,22.804 22.250,22.711 21.816 C 22.639 21.479,22.296 21.240,21.884 21.240 L 21.764 21.240 21.751 17.670 C 21.739 14.348,21.733 14.085,21.665 13.880 C 21.417 13.129,20.863 12.576,20.120 12.337 C 19.928 12.275,19.688 12.264,18.253 12.250 C 16.742 12.235,16.155 12.257,15.854 12.343 L 15.767 12.367 15.748 7.914 C 15.732 4.042,15.721 3.418,15.666 3.140 C 15.453 2.075,14.900 1.526,13.855 1.341 C 13.457 1.271,11.585 1.233,10.780 1.279 M13.775 2.836 C 13.971 2.900,14.099 3.027,14.166 3.225 C 14.209 3.351,14.221 5.041,14.230 12.310 L 14.241 21.240 12.001 21.240 L 9.760 21.240 9.760 12.470 C 9.761 6.614,9.774 3.615,9.802 3.445 C 9.875 2.994,9.986 2.876,10.408 2.803 C 10.733 2.747,13.585 2.775,13.775 2.836 M7.942 8.901 C 8.024 8.968,8.125 9.084,8.166 9.160 C 8.237 9.293,8.240 9.530,8.240 15.269 L 8.240 21.240 6.000 21.240 L 3.759 21.240 3.770 15.224 L 3.780 9.207 3.901 9.058 C 4.152 8.748,4.084 8.757,6.046 8.769 L 7.793 8.780 7.942 8.901 M19.942 13.901 C 20.262 14.160,20.240 13.872,20.240 17.769 L 20.240 21.240 17.999 21.240 L 15.759 21.240 15.769 17.724 L 15.780 14.207 15.901 14.058 C 16.152 13.748,16.084 13.757,18.046 13.769 L 19.793 13.780 19.942 13.901 " stroke="none" fill-rule="evenodd" fill="black"></path></svg>