<svg width="24" height="24" viewBox="0 0 24 24" fill="none" xmlns="http://www.w3.org/2000/svg"><path d="M18.100 1.276 C 17.052 1.354,16.540 1.746,16.332 2.631 C 16.264 2.923,16.260 3.344,16.260 10.500 C 16.260 17.656,16.264 18.077,16.332 18.369 C 16.500 19.085,16.859 19.461,17.550 19.646 C 17.829 19.721,17.972 19.729,19.000 19.729 C 20.028 19.729,20.171 19.721,20.450 19.646 C 21.141 19.461,21.500 19.085,21.668 18.369 C 21.736 18.077,21.740 17.656,21.740 10.500 C 21.740 3.344,21.736 2.923,21.668 2.631 C 21.500 1.917,21.135 1.533,20.460 1.360 C 20.114 1.272,18.794 1.225,18.100 1.276 M20.168 2.832 C 20.245 2.909,20.245 18.091,20.168 18.168 C 20.092 18.244,17.908 18.244,17.832 18.168 C 17.790 18.126,17.778 16.703,17.769 10.608 C 17.762 6.479,17.768 3.041,17.781 2.968 C 17.796 2.884,17.836 2.823,17.892 2.799 C 18.036 2.740,20.106 2.770,20.168 2.832 M11.100 4.276 C 10.052 4.354,9.540 4.746,9.332 5.631 C 9.264 5.922,9.260 6.292,9.260 12.000 C 9.260 17.708,9.264 18.078,9.332 18.369 C 9.500 19.085,9.859 19.461,10.550 19.646 C 10.829 19.721,10.972 19.729,12.000 19.729 C 13.028 19.729,13.171 19.721,13.450 19.646 C 14.141 19.461,14.500 19.085,14.668 18.369 C 14.736 18.078,14.740 17.708,14.740 12.000 C 14.740 6.292,14.736 5.922,14.668 5.631 C 14.500 4.917,14.135 4.533,13.460 4.360 C 13.114 4.272,11.794 4.225,11.100 4.276 M13.168 5.832 C 13.245 5.909,13.245 18.091,13.168 18.168 C 13.092 18.244,10.908 18.244,10.832 18.168 C 10.790 18.126,10.778 16.972,10.769 12.108 C 10.762 8.804,10.768 6.041,10.781 5.968 C 10.796 5.884,10.836 5.823,10.892 5.799 C 11.036 5.740,13.106 5.770,13.168 5.832 M4.100 8.276 C 3.052 8.354,2.540 8.746,2.332 9.631 C 2.265 9.919,2.260 10.222,2.260 14.000 C 2.260 17.778,2.265 18.081,2.332 18.369 C 2.500 19.085,2.859 19.461,3.550 19.646 C 3.829 19.721,3.972 19.729,5.000 19.729 C 6.028 19.729,6.171 19.721,6.450 19.646 C 7.141 19.461,7.500 19.085,7.668 18.369 C 7.735 18.081,7.740 17.778,7.740 14.000 C 7.740 10.222,7.735 9.919,7.668 9.631 C 7.500 8.917,7.135 8.533,6.460 8.360 C 6.114 8.272,4.794 8.225,4.100 8.276 M6.168 9.832 C 6.245 9.909,6.245 18.091,6.168 18.168 C 6.092 18.244,3.908 18.244,3.832 18.168 C 3.790 18.126,3.778 17.331,3.768 14.108 C 3.762 11.904,3.768 10.041,3.781 9.968 C 3.796 9.884,3.836 9.823,3.892 9.799 C 4.036 9.740,6.106 9.770,6.168 9.832 M2.815 21.278 C 2.331 21.393,2.098 22.004,2.383 22.408 C 2.448 22.499,2.572 22.610,2.660 22.656 L 2.820 22.740 11.880 22.751 C 18.373 22.758,21.001 22.749,21.154 22.717 C 21.902 22.562,21.929 21.473,21.189 21.286 C 20.978 21.233,3.036 21.225,2.815 21.278 " stroke="none" fill-rule="evenodd" fill="black"></path></svg>