<svg width="24" height="24" viewBox="0 0 24 24" fill="none" xmlns="http://www.w3.org/2000/svg"><path d="M8.960 1.280 C 6.960 1.332,5.848 1.469,4.900 1.779 C 3.060 2.382,1.958 3.688,1.563 5.734 C 1.311 7.042,1.267 7.973,1.267 12.000 C 1.267 16.027,1.311 16.958,1.563 18.266 C 2.013 20.599,3.401 21.987,5.734 22.437 C 7.034 22.688,7.987 22.733,12.000 22.733 C 16.013 22.733,16.966 22.688,18.266 22.437 C 20.599 21.987,21.987 20.599,22.437 18.266 C 22.688 16.966,22.733 16.013,22.733 12.000 C 22.733 7.987,22.688 7.034,22.437 5.734 C 22.098 3.977,21.228 2.756,19.825 2.068 C 18.978 1.652,17.875 1.425,16.200 1.321 C 15.315 1.266,10.534 1.239,8.960 1.280 M16.787 2.853 C 17.971 2.982,18.589 3.129,19.180 3.421 C 20.200 3.924,20.776 4.815,21.019 6.260 C 21.215 7.435,21.251 8.515,21.229 12.620 C 21.210 16.115,21.195 16.526,21.055 17.500 C 20.734 19.744,19.757 20.726,17.520 21.054 C 16.474 21.207,16.036 21.220,12.000 21.220 C 7.964 21.220,7.526 21.207,6.480 21.054 C 4.384 20.747,3.408 19.870,3.021 17.947 C 2.796 16.826,2.780 16.428,2.780 12.000 C 2.780 8.382,2.788 7.864,2.852 7.240 C 3.025 5.550,3.340 4.663,4.001 4.001 C 4.665 3.338,5.593 3.009,7.220 2.862 C 8.207 2.772,8.227 2.772,12.400 2.782 C 15.524 2.790,16.323 2.803,16.787 2.853 M16.815 8.277 C 16.638 8.321,16.461 8.456,16.353 8.631 L 16.260 8.780 16.260 13.500 L 16.260 18.220 16.353 18.369 C 16.710 18.943,17.576 18.812,17.716 18.162 C 17.775 17.885,17.776 9.099,17.717 8.841 C 17.623 8.432,17.215 8.177,16.815 8.277 M11.815 11.277 C 11.638 11.321,11.461 11.456,11.353 11.631 L 11.260 11.780 11.260 15.000 L 11.260 18.220 11.353 18.369 C 11.710 18.943,12.576 18.812,12.716 18.162 C 12.775 17.887,12.776 12.097,12.717 11.841 C 12.623 11.432,12.215 11.177,11.815 11.277 M6.815 14.277 C 6.638 14.321,6.461 14.456,6.353 14.631 L 6.260 14.780 6.260 16.500 L 6.260 18.220 6.353 18.369 C 6.710 18.943,7.576 18.812,7.716 18.162 C 7.773 17.894,7.774 15.090,7.717 14.841 C 7.623 14.432,7.215 14.177,6.815 14.277 " stroke="none" fill-rule="evenodd" fill="black"></path></svg>