<svg width="24" height="24" viewBox="0 0 24 24" fill="none" xmlns="http://www.w3.org/2000/svg"><path d="M11.310 1.282 C 6.303 1.590,2.151 5.385,1.380 10.360 C 1.239 11.269,1.231 12.615,1.361 13.520 C 1.496 14.461,1.822 15.574,2.217 16.440 C 2.342 16.715,2.455 17.021,2.466 17.120 C 2.483 17.264,2.421 17.546,2.157 18.520 C 1.757 19.998,1.729 20.242,1.896 20.778 C 2.095 21.418,2.582 21.905,3.222 22.104 C 3.758 22.271,4.002 22.243,5.480 21.843 C 6.384 21.598,6.742 21.517,6.864 21.531 C 6.954 21.541,7.260 21.652,7.544 21.779 C 8.455 22.186,9.546 22.505,10.480 22.639 C 11.385 22.769,12.731 22.761,13.640 22.620 C 18.253 21.905,21.905 18.258,22.617 13.657 C 22.835 12.248,22.714 10.001,22.396 9.555 C 22.149 9.207,21.591 9.169,21.280 9.480 C 21.055 9.705,21.026 9.880,21.123 10.440 C 21.227 11.041,21.269 12.378,21.203 12.960 C 20.839 16.165,18.926 18.901,16.066 20.301 C 14.774 20.934,13.462 21.240,12.036 21.240 C 10.605 21.240,9.370 20.972,8.079 20.381 C 7.416 20.078,7.205 20.027,6.702 20.050 C 6.359 20.066,6.125 20.116,5.096 20.394 C 4.434 20.573,3.849 20.720,3.796 20.720 C 3.576 20.720,3.280 20.424,3.280 20.204 C 3.280 20.151,3.427 19.566,3.606 18.904 C 4.078 17.158,4.079 16.926,3.615 15.912 C 3.028 14.631,2.760 13.391,2.760 11.964 C 2.760 10.540,3.066 9.224,3.696 7.940 C 5.106 5.068,7.828 3.161,11.040 2.797 C 11.616 2.731,12.959 2.773,13.548 2.875 C 14.014 2.956,14.154 2.948,14.387 2.827 C 14.790 2.618,14.858 2.018,14.518 1.678 C 14.398 1.558,14.313 1.516,14.093 1.466 C 13.405 1.309,12.181 1.228,11.310 1.282 M18.740 1.266 C 17.415 1.385,16.327 2.085,15.719 3.212 C 15.400 3.803,15.271 4.320,15.271 5.000 C 15.271 5.682,15.400 6.197,15.721 6.792 C 16.078 7.453,16.549 7.923,17.212 8.281 C 17.803 8.600,18.320 8.729,19.000 8.729 C 19.680 8.729,20.197 8.600,20.788 8.281 C 21.451 7.923,21.922 7.453,22.279 6.792 C 22.600 6.197,22.729 5.682,22.729 5.000 C 22.729 4.320,22.600 3.803,22.281 3.212 C 21.832 2.381,21.122 1.779,20.215 1.463 C 19.793 1.316,19.149 1.230,18.740 1.266 M19.578 2.821 C 19.949 2.918,20.274 3.112,20.581 3.419 C 21.041 3.879,21.240 4.356,21.240 5.000 C 21.240 5.644,21.041 6.121,20.581 6.581 C 20.121 7.041,19.644 7.240,19.000 7.240 C 18.356 7.240,17.879 7.041,17.419 6.581 C 16.959 6.121,16.760 5.644,16.760 5.000 C 16.760 4.356,16.959 3.879,17.419 3.419 C 17.719 3.118,18.050 2.919,18.404 2.823 C 18.692 2.746,19.285 2.745,19.578 2.821 " stroke="none" fill-rule="evenodd" fill="black"></path></svg>