<svg width="24" height="24" viewBox="0 0 24 24" fill="none" xmlns="http://www.w3.org/2000/svg"><path d="M7.860 1.283 C 5.703 1.351,4.680 1.602,3.690 2.307 C 2.729 2.990,2.046 3.869,1.689 4.881 C 1.306 5.967,1.219 7.297,1.252 11.559 C 1.275 14.467,1.296 14.822,1.498 15.616 C 1.608 16.051,1.933 16.765,2.202 17.166 C 2.772 18.015,3.526 18.682,4.420 19.129 C 5.242 19.541,5.839 19.661,7.360 19.721 C 7.943 19.743,8.555 19.778,8.720 19.798 C 9.000 19.831,9.029 19.843,9.160 19.990 C 9.237 20.077,9.534 20.542,9.820 21.024 C 10.547 22.248,10.837 22.527,11.567 22.699 C 11.887 22.775,12.113 22.775,12.433 22.699 C 13.163 22.527,13.453 22.248,14.180 21.024 C 14.466 20.542,14.763 20.077,14.840 19.990 C 14.971 19.843,15.000 19.831,15.280 19.798 C 15.445 19.778,16.057 19.743,16.640 19.721 C 18.161 19.661,18.758 19.541,19.580 19.129 C 20.474 18.682,21.228 18.015,21.798 17.166 C 22.067 16.765,22.392 16.051,22.502 15.616 C 22.725 14.740,22.738 14.478,22.739 10.840 C 22.740 7.259,22.720 6.761,22.538 5.775 C 22.392 4.985,22.156 4.367,21.788 3.820 C 21.152 2.873,20.206 2.094,19.262 1.739 C 18.500 1.453,17.654 1.335,15.960 1.280 C 14.603 1.236,9.282 1.238,7.860 1.283 M16.636 2.801 C 17.842 2.871,18.388 2.978,18.980 3.261 C 19.692 3.602,20.398 4.308,20.739 5.020 C 21.189 5.962,21.255 6.812,21.229 11.300 C 21.208 14.998,21.197 15.101,20.757 15.960 C 20.325 16.805,19.563 17.524,18.721 17.882 C 18.127 18.135,17.761 18.188,16.271 18.239 C 14.970 18.284,14.692 18.326,14.278 18.544 C 13.841 18.774,13.588 19.079,12.949 20.149 C 12.648 20.653,12.363 21.101,12.317 21.143 C 12.197 21.252,11.803 21.252,11.683 21.143 C 11.637 21.101,11.355 20.658,11.057 20.159 C 10.419 19.091,10.155 18.772,9.723 18.544 C 9.308 18.326,9.031 18.284,7.729 18.239 C 6.275 18.190,5.952 18.146,5.363 17.919 C 5.021 17.787,4.541 17.487,4.185 17.182 C 3.666 16.739,3.135 15.910,2.963 15.277 C 2.802 14.684,2.790 14.430,2.771 11.320 C 2.744 6.819,2.810 5.964,3.261 5.020 C 3.601 4.310,4.305 3.605,5.020 3.260 C 5.573 2.993,6.218 2.863,7.287 2.802 C 8.103 2.756,15.839 2.755,16.636 2.801 M13.134 5.278 C 12.919 5.330,12.730 5.474,12.646 5.652 C 12.602 5.744,11.978 8.016,11.260 10.700 C 10.221 14.580,9.957 15.615,9.972 15.751 C 10.042 16.394,10.902 16.628,11.294 16.110 C 11.372 16.008,11.677 14.919,12.717 11.040 C 13.444 8.323,14.040 6.046,14.039 5.980 C 14.037 5.688,13.781 5.363,13.489 5.282 C 13.323 5.236,13.312 5.236,13.134 5.278 M8.214 7.136 C 8.035 7.217,7.835 7.406,7.088 8.200 C 6.313 9.023,6.135 9.247,5.900 9.690 C 5.681 10.104,5.600 10.418,5.600 10.852 C 5.600 11.501,5.863 12.086,6.476 12.800 C 6.905 13.300,8.061 14.451,8.189 14.505 C 8.342 14.571,8.631 14.577,8.787 14.517 C 9.149 14.380,9.337 13.910,9.180 13.534 C 9.145 13.451,8.832 13.097,8.429 12.685 C 7.594 11.833,7.343 11.536,7.194 11.220 C 6.924 10.650,7.071 10.378,8.396 8.999 C 8.788 8.592,9.138 8.201,9.174 8.131 C 9.324 7.841,9.205 7.417,8.917 7.218 C 8.724 7.084,8.409 7.048,8.214 7.136 M15.167 7.166 C 14.868 7.314,14.710 7.660,14.777 8.019 C 14.799 8.136,14.948 8.313,15.562 8.955 C 16.443 9.875,16.697 10.180,16.826 10.471 C 16.949 10.748,16.944 10.928,16.806 11.220 C 16.657 11.536,16.409 11.829,15.557 12.701 C 14.793 13.482,14.736 13.572,14.770 13.926 C 14.792 14.156,14.948 14.380,15.163 14.490 C 15.327 14.574,15.634 14.581,15.811 14.505 C 15.939 14.451,17.095 13.300,17.524 12.800 C 18.139 12.084,18.400 11.496,18.400 10.827 C 18.400 10.037,18.100 9.480,17.082 8.379 C 16.362 7.601,15.950 7.209,15.777 7.136 C 15.585 7.056,15.367 7.067,15.167 7.166 " fill="#1C274C" stroke="none" fill-rule="evenodd"></path></svg>