<svg width="24" height="24" viewBox="0 0 24 24" fill="none" xmlns="http://www.w3.org/2000/svg"><path d="M11.310 1.283 C 6.311 1.583,2.151 5.385,1.380 10.360 C 1.239 11.269,1.231 12.615,1.361 13.520 C 1.496 14.461,1.822 15.574,2.217 16.440 C 2.342 16.715,2.455 17.021,2.466 17.120 C 2.483 17.264,2.421 17.546,2.157 18.520 C 1.757 19.998,1.729 20.242,1.896 20.778 C 2.095 21.418,2.582 21.905,3.222 22.104 C 3.758 22.271,4.002 22.243,5.480 21.843 C 6.384 21.598,6.742 21.517,6.864 21.531 C 6.954 21.541,7.260 21.652,7.544 21.779 C 8.455 22.186,9.546 22.505,10.480 22.639 C 11.385 22.769,12.731 22.761,13.640 22.620 C 17.926 21.955,21.417 18.752,22.436 14.550 C 22.837 12.894,22.837 11.106,22.436 9.450 C 21.419 5.255,17.924 2.044,13.657 1.383 C 13.303 1.328,12.042 1.231,11.880 1.246 C 11.847 1.249,11.590 1.266,11.310 1.283 M13.146 2.822 C 16.271 3.231,18.928 5.130,20.301 7.934 C 21.222 9.813,21.478 11.937,21.034 13.998 C 20.454 16.692,18.580 19.070,16.066 20.301 C 14.774 20.934,13.462 21.240,12.036 21.240 C 10.605 21.240,9.370 20.972,8.079 20.381 C 7.416 20.078,7.205 20.027,6.702 20.050 C 6.359 20.066,6.125 20.116,5.096 20.394 C 4.434 20.573,3.849 20.720,3.796 20.720 C 3.576 20.720,3.280 20.424,3.280 20.204 C 3.280 20.151,3.427 19.566,3.606 18.904 C 4.078 17.158,4.079 16.926,3.615 15.912 C 2.764 14.053,2.537 11.989,2.966 10.002 C 3.177 9.020,3.703 7.775,4.268 6.920 C 5.750 4.677,8.131 3.188,10.820 2.823 C 11.380 2.746,12.569 2.746,13.146 2.822 M9.200 7.697 C 8.258 7.897,7.569 8.445,7.142 9.334 C 6.864 9.912,6.783 10.300,6.784 11.040 C 6.784 11.600,6.795 11.694,6.893 12.014 C 7.076 12.607,7.436 13.261,7.912 13.860 C 8.403 14.479,9.465 15.492,10.219 16.060 C 10.869 16.550,11.324 16.719,12.000 16.719 C 12.844 16.719,13.290 16.501,14.420 15.538 C 14.966 15.072,15.760 14.274,16.088 13.860 C 16.564 13.261,16.924 12.607,17.107 12.014 C 17.205 11.694,17.216 11.600,17.216 11.040 C 17.217 10.300,17.136 9.912,16.858 9.334 C 16.551 8.694,16.116 8.241,15.540 7.958 C 15.065 7.724,14.782 7.661,14.240 7.666 C 13.532 7.672,12.926 7.869,12.280 8.303 L 12.000 8.491 11.720 8.303 C 10.935 7.776,9.947 7.539,9.200 7.697 M10.278 9.239 C 10.608 9.351,10.931 9.549,11.279 9.856 C 11.629 10.164,11.771 10.240,12.000 10.240 C 12.229 10.240,12.371 10.164,12.721 9.856 C 13.268 9.374,13.739 9.160,14.252 9.160 C 14.656 9.160,14.877 9.244,15.161 9.508 C 15.519 9.839,15.694 10.256,15.745 10.900 C 15.787 11.440,15.621 11.921,15.153 12.610 C 14.681 13.307,13.034 14.857,12.464 15.140 C 12.185 15.279,11.815 15.279,11.536 15.140 C 11.198 14.972,10.494 14.380,9.779 13.663 C 8.420 12.300,8.048 11.450,8.338 10.365 C 8.486 9.811,8.836 9.380,9.264 9.223 C 9.499 9.137,9.997 9.145,10.278 9.239 " stroke="none" fill-rule="evenodd" fill="black"></path></svg>