<svg width="24" height="24" viewBox="0 0 24 24" fill="none" xmlns="http://www.w3.org/2000/svg"><path d="M7.860 1.283 C 5.703 1.351,4.680 1.602,3.690 2.307 C 2.729 2.990,2.046 3.869,1.689 4.881 C 1.306 5.967,1.219 7.297,1.252 11.559 C 1.275 14.467,1.296 14.822,1.498 15.616 C 1.608 16.051,1.933 16.765,2.202 17.166 C 2.772 18.015,3.526 18.682,4.420 19.129 C 5.242 19.541,5.839 19.661,7.360 19.721 C 7.943 19.743,8.555 19.778,8.720 19.798 C 9.000 19.831,9.029 19.843,9.160 19.990 C 9.237 20.077,9.534 20.542,9.820 21.024 C 10.547 22.248,10.837 22.527,11.567 22.699 C 11.887 22.775,12.113 22.775,12.433 22.699 C 13.163 22.527,13.453 22.248,14.180 21.024 C 14.466 20.542,14.763 20.077,14.840 19.990 C 14.971 19.843,15.000 19.831,15.280 19.798 C 15.445 19.778,16.057 19.743,16.640 19.721 C 18.161 19.661,18.758 19.541,19.580 19.129 C 20.474 18.682,21.228 18.015,21.798 17.166 C 22.067 16.765,22.392 16.051,22.502 15.616 C 22.725 14.740,22.738 14.478,22.739 10.840 C 22.740 7.259,22.720 6.761,22.538 5.775 C 22.392 4.985,22.156 4.367,21.788 3.820 C 21.152 2.873,20.206 2.094,19.262 1.739 C 18.500 1.453,17.654 1.335,15.960 1.280 C 14.603 1.236,9.282 1.238,7.860 1.283 M16.636 2.801 C 17.842 2.871,18.388 2.978,18.980 3.261 C 19.692 3.602,20.398 4.308,20.739 5.020 C 21.189 5.962,21.255 6.812,21.229 11.300 C 21.208 14.998,21.197 15.101,20.757 15.960 C 20.325 16.805,19.563 17.524,18.721 17.882 C 18.127 18.135,17.761 18.188,16.271 18.239 C 14.970 18.284,14.692 18.326,14.278 18.544 C 13.841 18.774,13.588 19.079,12.949 20.149 C 12.648 20.653,12.363 21.101,12.317 21.143 C 12.197 21.252,11.803 21.252,11.683 21.143 C 11.637 21.101,11.355 20.658,11.057 20.159 C 10.419 19.091,10.155 18.772,9.723 18.544 C 9.308 18.326,9.031 18.284,7.729 18.239 C 6.275 18.190,5.952 18.146,5.363 17.919 C 5.021 17.787,4.541 17.487,4.185 17.182 C 3.666 16.739,3.135 15.910,2.963 15.277 C 2.802 14.684,2.790 14.430,2.771 11.320 C 2.744 6.819,2.810 5.964,3.261 5.020 C 3.601 4.310,4.305 3.605,5.020 3.260 C 5.573 2.993,6.218 2.863,7.287 2.802 C 8.103 2.756,15.839 2.755,16.636 2.801 M9.360 6.279 C 8.740 6.357,8.203 6.628,7.740 7.096 C 7.287 7.554,7.056 7.976,6.877 8.670 C 6.776 9.058,6.735 9.807,6.794 10.180 C 7.019 11.615,8.257 13.187,10.469 14.847 C 10.989 15.238,11.313 15.424,11.615 15.504 C 12.200 15.660,12.658 15.503,13.531 14.847 C 15.425 13.425,16.645 12.020,17.060 10.780 C 17.356 9.897,17.266 8.717,16.840 7.879 C 16.450 7.113,15.756 6.544,14.960 6.337 C 14.543 6.229,13.866 6.246,13.429 6.376 C 12.978 6.510,12.649 6.662,12.305 6.894 C 12.153 6.996,12.017 7.080,12.002 7.080 C 11.987 7.080,11.824 6.981,11.640 6.860 C 10.952 6.407,10.089 6.187,9.360 6.279 M10.203 7.824 C 10.554 7.927,10.918 8.141,11.260 8.446 C 11.617 8.763,11.761 8.840,12.000 8.840 C 12.239 8.840,12.383 8.763,12.740 8.446 C 13.290 7.956,13.815 7.736,14.357 7.769 C 14.992 7.807,15.470 8.246,15.663 8.970 C 15.761 9.335,15.778 9.789,15.705 10.080 C 15.454 11.079,14.396 12.317,12.680 13.619 C 12.081 14.074,12.032 14.099,11.890 14.025 C 11.532 13.839,10.361 12.875,9.737 12.252 C 8.683 11.199,8.193 10.290,8.255 9.500 C 8.326 8.607,8.725 7.991,9.360 7.797 C 9.535 7.744,9.978 7.758,10.203 7.824 " fill="#1C274C" stroke="none" fill-rule="evenodd"></path></svg>