<svg width="24" height="24" viewBox="0 0 24 24" fill="none" xmlns="http://www.w3.org/2000/svg"><path d="M7.860 1.282 C 5.699 1.352,4.679 1.603,3.690 2.307 C 2.729 2.990,2.046 3.869,1.689 4.881 C 1.306 5.967,1.219 7.297,1.252 11.559 C 1.275 14.467,1.296 14.822,1.498 15.616 C 1.608 16.051,1.933 16.765,2.202 17.166 C 2.772 18.015,3.526 18.682,4.420 19.129 C 5.242 19.541,5.839 19.661,7.360 19.721 C 7.943 19.743,8.555 19.778,8.720 19.798 C 9.000 19.831,9.029 19.843,9.160 19.990 C 9.237 20.077,9.534 20.542,9.820 21.024 C 10.547 22.248,10.837 22.527,11.567 22.699 C 11.887 22.775,12.113 22.775,12.433 22.699 C 13.163 22.527,13.453 22.248,14.180 21.024 C 14.466 20.542,14.763 20.077,14.840 19.990 C 14.971 19.843,15.000 19.831,15.280 19.798 C 15.445 19.778,16.057 19.743,16.640 19.721 C 18.161 19.661,18.758 19.541,19.580 19.129 C 20.737 18.550,21.611 17.655,22.185 16.461 C 22.635 15.526,22.715 14.941,22.747 12.358 C 22.773 10.278,22.773 10.268,22.546 10.011 C 22.336 9.771,22.000 9.692,21.708 9.814 C 21.537 9.886,21.334 10.122,21.283 10.309 C 21.258 10.398,21.235 11.257,21.225 12.400 C 21.204 14.875,21.166 15.163,20.757 15.960 C 20.325 16.805,19.563 17.524,18.721 17.882 C 18.127 18.135,17.761 18.188,16.271 18.239 C 14.970 18.284,14.692 18.326,14.278 18.544 C 13.841 18.774,13.588 19.079,12.949 20.149 C 12.648 20.653,12.363 21.101,12.317 21.143 C 12.197 21.252,11.803 21.252,11.683 21.143 C 11.637 21.101,11.355 20.658,11.057 20.159 C 10.419 19.091,10.155 18.772,9.723 18.544 C 9.308 18.326,9.031 18.284,7.729 18.239 C 6.275 18.190,5.952 18.146,5.363 17.919 C 5.021 17.787,4.541 17.487,4.185 17.182 C 3.666 16.739,3.135 15.910,2.963 15.277 C 2.802 14.684,2.790 14.430,2.771 11.320 C 2.748 7.584,2.798 6.473,3.025 5.622 C 3.277 4.678,4.104 3.699,5.020 3.261 C 5.928 2.828,6.692 2.762,10.840 2.760 C 13.460 2.758,13.629 2.754,13.780 2.684 C 14.266 2.459,14.399 1.877,14.047 1.506 C 13.803 1.248,13.943 1.260,11.260 1.256 C 9.918 1.253,8.388 1.265,7.860 1.282 M18.740 1.266 C 17.415 1.385,16.327 2.085,15.719 3.212 C 15.400 3.803,15.271 4.320,15.271 5.000 C 15.271 5.682,15.400 6.197,15.721 6.792 C 16.078 7.453,16.549 7.923,17.212 8.281 C 17.803 8.600,18.320 8.729,19.000 8.729 C 19.680 8.729,20.197 8.600,20.788 8.281 C 21.451 7.923,21.922 7.453,22.279 6.792 C 22.600 6.197,22.729 5.682,22.729 5.000 C 22.729 4.320,22.600 3.803,22.281 3.212 C 21.832 2.381,21.122 1.779,20.215 1.463 C 19.793 1.316,19.149 1.230,18.740 1.266 M19.578 2.821 C 19.949 2.918,20.274 3.112,20.581 3.419 C 21.041 3.879,21.240 4.356,21.240 5.000 C 21.240 5.644,21.041 6.121,20.581 6.581 C 20.121 7.041,19.644 7.240,19.000 7.240 C 18.356 7.240,17.879 7.041,17.419 6.581 C 16.959 6.121,16.760 5.644,16.760 5.000 C 16.760 4.356,16.959 3.879,17.419 3.419 C 17.719 3.118,18.050 2.919,18.404 2.823 C 18.692 2.746,19.285 2.745,19.578 2.821 " fill="#1C274C" stroke="none" fill-rule="evenodd"></path></svg>