<svg width="24" height="24" viewBox="0 0 24 24" fill="none" xmlns="http://www.w3.org/2000/svg"><path d="M11.310 1.283 C 6.311 1.583,2.151 5.385,1.380 10.360 C 1.239 11.269,1.231 12.615,1.361 13.520 C 1.496 14.461,1.822 15.574,2.217 16.440 C 2.342 16.715,2.455 17.021,2.466 17.120 C 2.483 17.264,2.421 17.546,2.157 18.520 C 1.757 19.998,1.729 20.242,1.896 20.778 C 2.095 21.418,2.582 21.905,3.222 22.104 C 3.758 22.271,4.002 22.243,5.480 21.843 C 6.384 21.598,6.742 21.517,6.864 21.531 C 6.954 21.541,7.260 21.652,7.544 21.779 C 8.455 22.186,9.546 22.505,10.480 22.639 C 11.385 22.769,12.731 22.761,13.640 22.620 C 17.926 21.955,21.417 18.752,22.436 14.550 C 22.837 12.894,22.837 11.106,22.436 9.450 C 21.419 5.255,17.924 2.044,13.657 1.383 C 13.303 1.328,12.042 1.231,11.880 1.246 C 11.847 1.249,11.590 1.266,11.310 1.283 M13.146 2.822 C 16.271 3.231,18.928 5.130,20.301 7.934 C 21.222 9.813,21.478 11.937,21.034 13.998 C 20.454 16.692,18.580 19.070,16.066 20.301 C 14.774 20.934,13.462 21.240,12.036 21.240 C 10.605 21.240,9.370 20.972,8.079 20.381 C 7.416 20.078,7.205 20.027,6.702 20.050 C 6.359 20.066,6.125 20.116,5.096 20.394 C 4.434 20.573,3.849 20.720,3.796 20.720 C 3.576 20.720,3.280 20.424,3.280 20.204 C 3.280 20.151,3.427 19.566,3.606 18.904 C 4.078 17.158,4.079 16.926,3.615 15.912 C 2.764 14.053,2.537 11.989,2.966 10.002 C 3.177 9.020,3.703 7.775,4.268 6.920 C 5.750 4.677,8.131 3.188,10.820 2.823 C 11.380 2.746,12.569 2.746,13.146 2.822 M11.807 7.289 C 11.605 7.332,11.335 7.576,11.298 7.749 C 11.251 7.971,11.206 8.032,11.073 8.061 C 10.689 8.144,10.023 8.592,9.745 8.954 C 9.395 9.409,9.267 9.789,9.271 10.360 C 9.275 11.024,9.495 11.508,10.006 11.980 C 10.536 12.469,10.992 12.655,11.866 12.739 C 12.502 12.799,12.693 12.863,12.961 13.105 C 13.620 13.700,13.048 14.571,12.000 14.571 C 11.283 14.570,10.811 14.218,10.742 13.632 C 10.657 12.914,9.814 12.671,9.391 13.243 C 9.157 13.560,9.260 14.330,9.609 14.864 C 9.893 15.299,10.486 15.750,10.989 15.913 C 11.181 15.975,11.226 16.007,11.254 16.104 C 11.399 16.593,11.752 16.824,12.187 16.714 C 12.428 16.653,12.665 16.423,12.703 16.212 C 12.738 16.017,12.777 15.971,12.933 15.938 C 13.311 15.856,13.979 15.406,14.255 15.046 C 14.604 14.592,14.732 14.212,14.730 13.639 C 14.728 12.988,14.509 12.504,14.005 12.032 C 13.470 11.533,13.016 11.346,12.134 11.261 C 11.498 11.201,11.307 11.137,11.039 10.895 C 10.380 10.300,10.952 9.429,12.000 9.429 C 12.707 9.429,13.190 9.790,13.258 10.368 C 13.328 10.961,13.933 11.268,14.402 10.949 C 14.689 10.753,14.777 10.508,14.720 10.057 C 14.610 9.195,14.017 8.485,13.111 8.134 C 12.754 7.996,12.745 7.989,12.710 7.819 C 12.629 7.426,12.237 7.197,11.807 7.289 " stroke="none" fill-rule="evenodd" fill="black"></path></svg>