<svg width="24" height="24" viewBox="0 0 24 24" fill="none" xmlns="http://www.w3.org/2000/svg"><path d="M14.100 1.277 C 14.034 1.293,13.935 1.329,13.880 1.358 C 13.696 1.453,11.396 3.769,11.317 3.940 C 11.116 4.368,11.201 4.494,12.662 5.930 C 13.898 7.145,13.966 7.199,14.271 7.200 C 14.397 7.200,14.640 7.094,14.755 6.988 C 14.881 6.872,14.998 6.613,14.999 6.449 C 15.001 6.201,14.885 6.028,14.369 5.510 L 13.861 5.000 14.481 5.000 C 16.022 5.001,17.628 5.174,18.204 5.402 C 18.751 5.617,19.376 6.195,19.747 6.829 C 20.107 7.442,20.239 8.490,20.241 10.740 C 20.242 11.783,20.249 11.916,20.316 12.060 C 20.556 12.578,21.182 12.685,21.546 12.269 C 21.770 12.015,21.775 11.967,21.746 10.341 C 21.732 9.526,21.702 8.671,21.679 8.440 C 21.530 6.904,21.187 6.049,20.359 5.148 C 20.098 4.864,19.601 4.460,19.260 4.254 C 18.475 3.781,17.235 3.574,14.706 3.496 L 13.833 3.469 14.355 2.944 C 15.003 2.293,15.094 2.103,14.938 1.729 C 14.794 1.384,14.443 1.195,14.100 1.277 M7.380 3.522 C 6.161 3.604,5.348 3.846,4.580 4.354 C 3.747 4.906,3.031 5.760,2.715 6.578 C 2.325 7.590,2.241 8.565,2.241 12.080 C 2.241 15.021,2.294 15.805,2.546 16.580 C 3.000 17.976,4.227 19.230,5.633 19.735 C 6.263 19.962,6.760 20.030,8.123 20.077 C 8.682 20.097,9.188 20.131,9.247 20.154 C 9.371 20.202,9.517 20.411,10.052 21.305 C 10.488 22.033,10.692 22.280,11.015 22.474 C 11.269 22.627,11.727 22.760,12.000 22.760 C 12.273 22.760,12.731 22.627,12.985 22.474 C 13.304 22.283,13.508 22.037,13.904 21.368 C 14.409 20.517,14.628 20.203,14.753 20.154 C 14.812 20.131,15.318 20.097,15.877 20.077 C 17.240 20.030,17.737 19.962,18.367 19.735 C 19.529 19.318,20.592 18.377,21.168 17.257 C 21.515 16.582,21.670 15.917,21.708 14.938 C 21.734 14.272,21.706 14.117,21.529 13.940 C 21.365 13.776,21.204 13.709,20.976 13.711 C 20.735 13.714,20.571 13.788,20.426 13.960 C 20.284 14.129,20.249 14.286,20.201 14.968 C 20.150 15.701,20.076 16.059,19.902 16.428 C 19.526 17.224,18.889 17.860,18.105 18.221 C 17.565 18.470,17.100 18.542,15.760 18.580 C 14.544 18.614,14.226 18.681,13.787 18.994 C 13.507 19.194,13.280 19.496,12.746 20.378 C 12.486 20.809,12.240 21.179,12.199 21.201 C 12.083 21.263,11.857 21.247,11.768 21.170 C 11.723 21.132,11.485 20.767,11.240 20.360 C 10.705 19.474,10.536 19.247,10.242 19.024 C 9.793 18.683,9.490 18.615,8.240 18.580 C 6.885 18.541,6.345 18.455,5.828 18.194 C 5.057 17.805,4.464 17.200,4.097 16.426 C 3.802 15.807,3.760 15.257,3.760 12.064 C 3.760 8.857,3.814 7.998,4.062 7.267 C 4.340 6.444,5.123 5.648,6.002 5.293 C 6.479 5.100,7.229 5.002,8.240 4.998 C 8.559 4.997,8.994 4.982,9.207 4.965 C 9.540 4.938,9.615 4.918,9.738 4.824 C 10.014 4.614,10.112 4.249,9.978 3.930 C 9.896 3.732,9.810 3.643,9.620 3.555 C 9.480 3.491,9.358 3.482,8.640 3.487 C 8.189 3.490,7.622 3.505,7.380 3.522 " fill="#1C274C" stroke="none" fill-rule="evenodd"></path></svg>