<svg width="24" height="24" viewBox="0 0 24 24" fill="none" xmlns="http://www.w3.org/2000/svg"><path d="M11.310 1.283 C 6.311 1.583,2.151 5.385,1.380 10.360 C 1.239 11.269,1.231 12.615,1.361 13.520 C 1.496 14.461,1.822 15.574,2.217 16.440 C 2.342 16.715,2.455 17.021,2.466 17.120 C 2.483 17.264,2.421 17.546,2.157 18.520 C 1.757 19.998,1.729 20.242,1.896 20.778 C 2.095 21.418,2.582 21.905,3.222 22.104 C 3.758 22.271,4.002 22.243,5.480 21.843 C 6.384 21.598,6.742 21.517,6.864 21.531 C 6.954 21.541,7.260 21.652,7.544 21.779 C 8.455 22.186,9.546 22.505,10.480 22.639 C 11.385 22.769,12.731 22.761,13.640 22.620 C 17.926 21.955,21.417 18.752,22.436 14.550 C 22.837 12.894,22.837 11.106,22.436 9.450 C 21.419 5.255,17.924 2.044,13.657 1.383 C 13.303 1.328,12.042 1.231,11.880 1.246 C 11.847 1.249,11.590 1.266,11.310 1.283 M13.146 2.822 C 16.271 3.231,18.928 5.130,20.301 7.934 C 21.222 9.813,21.478 11.937,21.034 13.998 C 20.454 16.692,18.580 19.070,16.066 20.301 C 14.774 20.934,13.462 21.240,12.036 21.240 C 10.605 21.240,9.370 20.972,8.079 20.381 C 7.416 20.078,7.205 20.027,6.702 20.050 C 6.359 20.066,6.125 20.116,5.096 20.394 C 4.434 20.573,3.849 20.720,3.796 20.720 C 3.576 20.720,3.280 20.424,3.280 20.204 C 3.280 20.151,3.427 19.566,3.606 18.904 C 4.078 17.158,4.079 16.926,3.615 15.912 C 2.764 14.053,2.537 11.989,2.966 10.002 C 3.177 9.020,3.703 7.775,4.268 6.920 C 5.750 4.677,8.131 3.188,10.820 2.823 C 11.380 2.746,12.569 2.746,13.146 2.822 M7.664 11.063 C 7.036 11.293,6.806 12.049,7.198 12.591 C 7.550 13.077,8.272 13.130,8.700 12.702 C 9.092 12.310,9.093 11.691,8.701 11.299 C 8.429 11.027,8.018 10.933,7.664 11.063 M11.673 11.063 C 11.312 11.174,11.000 11.609,11.000 12.000 C 11.000 12.524,11.476 13.000,12.000 13.000 C 12.517 13.000,13.000 12.517,13.000 12.000 C 13.000 11.598,12.688 11.173,12.310 11.061 C 12.062 10.987,11.919 10.988,11.673 11.063 M15.673 11.063 C 15.312 11.174,15.000 11.609,15.000 12.000 C 15.000 12.524,15.476 13.000,16.000 13.000 C 16.517 13.000,17.000 12.517,17.000 12.000 C 17.000 11.598,16.688 11.173,16.310 11.061 C 16.062 10.987,15.919 10.988,15.673 11.063 " fill="#1C274C" stroke="none" fill-rule="evenodd"></path></svg>