<svg width="24" height="24" viewBox="0 0 24 24" fill="none" xmlns="http://www.w3.org/2000/svg"><path d="M11.310 1.283 C 6.311 1.583,2.151 5.385,1.380 10.360 C 1.239 11.269,1.231 12.615,1.361 13.520 C 1.496 14.461,1.822 15.574,2.217 16.440 C 2.342 16.715,2.455 17.021,2.466 17.120 C 2.483 17.264,2.421 17.546,2.157 18.520 C 1.757 19.998,1.729 20.242,1.896 20.778 C 2.095 21.418,2.582 21.905,3.222 22.104 C 3.758 22.271,4.002 22.243,5.480 21.843 C 6.384 21.598,6.742 21.517,6.864 21.531 C 6.954 21.541,7.260 21.652,7.544 21.779 C 8.455 22.186,9.546 22.505,10.480 22.639 C 11.385 22.769,12.731 22.761,13.640 22.620 C 17.926 21.955,21.417 18.752,22.436 14.550 C 22.837 12.894,22.837 11.106,22.436 9.450 C 21.419 5.255,17.924 2.044,13.657 1.383 C 13.303 1.328,12.042 1.231,11.880 1.246 C 11.847 1.249,11.590 1.266,11.310 1.283 M13.146 2.822 C 16.271 3.231,18.928 5.130,20.301 7.934 C 21.222 9.813,21.478 11.937,21.034 13.998 C 20.454 16.692,18.580 19.070,16.066 20.301 C 14.774 20.934,13.462 21.240,12.036 21.240 C 10.605 21.240,9.370 20.972,8.079 20.381 C 7.416 20.078,7.205 20.027,6.702 20.050 C 6.359 20.066,6.125 20.116,5.096 20.394 C 4.434 20.573,3.849 20.720,3.796 20.720 C 3.576 20.720,3.280 20.424,3.280 20.204 C 3.280 20.151,3.427 19.566,3.606 18.904 C 4.078 17.158,4.079 16.926,3.615 15.912 C 2.764 14.053,2.537 11.989,2.966 10.002 C 3.177 9.020,3.703 7.775,4.268 6.920 C 5.750 4.677,8.131 3.188,10.820 2.823 C 11.380 2.746,12.569 2.746,13.146 2.822 M9.700 7.334 C 9.059 7.547,8.639 8.043,8.439 8.823 C 8.304 9.353,8.268 10.015,8.268 12.000 C 8.268 13.985,8.304 14.647,8.439 15.177 C 8.612 15.854,8.966 16.334,9.467 16.571 C 9.727 16.694,9.762 16.700,10.220 16.700 C 10.786 16.700,11.017 16.637,11.682 16.303 C 12.510 15.886,14.813 14.466,15.515 13.939 C 15.950 13.612,16.160 13.404,16.394 13.066 C 16.844 12.416,16.844 11.584,16.394 10.934 C 16.045 10.429,15.611 10.077,14.375 9.293 C 12.693 8.227,11.546 7.583,11.000 7.398 C 10.674 7.289,9.945 7.252,9.700 7.334 M10.730 8.896 C 11.663 9.304,14.573 11.132,14.990 11.573 C 15.319 11.921,15.319 12.079,14.990 12.426 C 14.679 12.755,13.113 13.783,11.615 14.640 C 10.530 15.262,10.150 15.368,9.991 15.094 C 9.812 14.786,9.791 14.533,9.771 12.389 C 9.747 9.861,9.794 9.200,10.018 8.858 C 10.111 8.715,10.343 8.727,10.730 8.896 " stroke="none" fill-rule="evenodd" fill="black"></path></svg>