<svg width="24" height="24" viewBox="0 0 24 24" fill="none" xmlns="http://www.w3.org/2000/svg"><path d="M17.352 7.280 C 17.292 7.297,17.184 7.353,17.112 7.402 C 17.039 7.451,15.432 9.037,13.540 10.926 L 10.099 14.360 8.520 12.777 C 7.639 11.895,6.869 11.157,6.780 11.108 C 6.557 10.988,6.124 10.988,5.900 11.108 C 5.547 11.296,5.352 11.615,5.352 12.003 C 5.352 12.447,5.349 12.444,7.432 14.531 C 8.481 15.583,9.433 16.508,9.547 16.586 C 9.717 16.704,9.800 16.732,10.017 16.750 C 10.534 16.791,10.225 17.065,14.571 12.725 C 17.285 10.015,18.507 8.769,18.563 8.653 C 18.617 8.542,18.645 8.404,18.645 8.240 C 18.647 7.813,18.415 7.463,18.021 7.298 C 17.872 7.236,17.528 7.226,17.352 7.280 " stroke="none" fill-rule="evenodd" fill="black"></path></svg>