<svg width="24" height="24" viewBox="0 0 24 24" fill="none" xmlns="http://www.w3.org/2000/svg"><path d="M7.331 2.279 C 7.260 2.296,7.156 2.340,7.099 2.377 C 7.043 2.414,6.169 3.217,5.158 4.162 C 4.146 5.107,3.306 5.879,3.290 5.878 C 3.273 5.877,3.143 5.729,3.000 5.549 C 2.455 4.862,2.326 4.760,2.000 4.760 C 1.778 4.760,1.603 4.841,1.451 5.014 C 1.229 5.266,1.195 5.578,1.357 5.861 C 1.522 6.148,2.695 7.544,2.850 7.638 C 3.034 7.748,3.308 7.768,3.510 7.684 C 3.634 7.633,7.986 3.594,8.130 3.397 C 8.296 3.170,8.269 2.761,8.072 2.537 C 7.872 2.309,7.602 2.215,7.331 2.279 M11.826 4.284 C 11.476 4.366,11.267 4.636,11.267 5.003 C 11.267 5.281,11.387 5.496,11.627 5.645 L 11.780 5.740 16.860 5.752 C 20.586 5.761,21.997 5.753,22.154 5.719 C 22.919 5.554,22.926 4.448,22.162 4.284 C 21.906 4.229,12.060 4.229,11.826 4.284 M7.331 9.279 C 7.260 9.296,7.156 9.340,7.099 9.377 C 7.043 9.414,6.169 10.217,5.158 11.162 C 4.146 12.107,3.306 12.879,3.290 12.878 C 3.273 12.877,3.143 12.729,3.000 12.549 C 2.455 11.862,2.326 11.760,2.000 11.760 C 1.778 11.760,1.603 11.841,1.451 12.014 C 1.229 12.266,1.195 12.578,1.357 12.861 C 1.522 13.148,2.695 14.544,2.850 14.638 C 3.034 14.748,3.308 14.768,3.510 14.684 C 3.634 14.633,7.986 10.594,8.130 10.397 C 8.296 10.170,8.269 9.761,8.072 9.537 C 7.872 9.309,7.602 9.215,7.331 9.279 M11.826 11.284 C 11.476 11.366,11.267 11.636,11.267 12.003 C 11.267 12.281,11.387 12.496,11.627 12.645 L 11.780 12.740 16.860 12.752 C 20.586 12.761,21.997 12.753,22.154 12.719 C 22.919 12.554,22.926 11.448,22.162 11.284 C 21.906 11.229,12.060 11.229,11.826 11.284 M7.331 16.279 C 7.260 16.296,7.156 16.340,7.099 16.377 C 7.043 16.414,6.169 17.217,5.158 18.162 C 4.146 19.107,3.306 19.879,3.290 19.878 C 3.273 19.877,3.143 19.729,3.000 19.549 C 2.455 18.862,2.326 18.760,2.000 18.760 C 1.778 18.760,1.603 18.841,1.451 19.014 C 1.229 19.266,1.195 19.578,1.357 19.861 C 1.522 20.148,2.695 21.544,2.850 21.638 C 3.034 21.748,3.308 21.768,3.510 21.684 C 3.634 21.633,7.986 17.594,8.130 17.397 C 8.296 17.170,8.269 16.761,8.072 16.537 C 7.872 16.309,7.602 16.215,7.331 16.279 M11.826 18.284 C 11.476 18.366,11.267 18.636,11.267 19.003 C 11.267 19.281,11.387 19.496,11.627 19.645 L 11.780 19.740 16.860 19.752 C 20.586 19.761,21.997 19.753,22.154 19.719 C 22.919 19.554,22.926 18.448,22.162 18.284 C 21.906 18.229,12.060 18.229,11.826 18.284 " stroke="none" fill-rule="evenodd" fill="black"></path></svg>