<svg width="24" height="24" viewBox="0 0 24 24" fill="none" xmlns="http://www.w3.org/2000/svg"><path d="M14.700 6.815 C 14.538 6.886,14.616 6.799,10.640 11.356 L 7.140 15.367 7.012 15.213 C 6.538 14.647,4.481 12.331,4.397 12.269 C 4.274 12.180,4.021 12.140,3.822 12.177 C 3.656 12.208,3.425 12.396,3.332 12.575 C 3.239 12.756,3.245 13.075,3.346 13.246 C 3.392 13.324,4.162 14.226,5.057 15.250 C 6.780 17.224,6.798 17.240,7.140 17.240 C 7.504 17.240,7.330 17.424,11.605 12.527 C 13.806 10.006,15.635 7.889,15.671 7.822 C 15.752 7.669,15.751 7.335,15.669 7.179 C 15.588 7.024,15.409 6.856,15.267 6.803 C 15.116 6.745,14.847 6.751,14.700 6.815 M19.808 6.849 C 19.680 6.876,19.576 6.943,19.401 7.113 C 19.272 7.238,17.525 9.068,15.518 11.180 C 13.512 13.292,11.782 15.110,11.676 15.219 L 11.481 15.418 11.353 15.342 C 11.168 15.233,10.815 15.240,10.626 15.356 C 10.338 15.534,10.200 15.862,10.283 16.173 C 10.331 16.352,10.771 16.975,10.965 17.138 C 11.226 17.358,11.653 17.353,11.913 17.127 C 12.082 16.980,20.463 8.173,20.590 8.009 C 20.718 7.843,20.768 7.590,20.714 7.380 C 20.609 6.975,20.237 6.757,19.808 6.849 " stroke="none" fill-rule="evenodd" fill="black"></path></svg>