<svg width="24" height="24" viewBox="0 0 24 24" fill="none" xmlns="http://www.w3.org/2000/svg"><path d="M9.020 1.278 C 7.735 1.310,7.475 1.326,6.649 1.423 C 4.782 1.643,3.569 2.183,2.728 3.171 C 1.841 4.212,1.475 5.425,1.314 7.860 C 1.249 8.841,1.249 15.159,1.314 16.140 C 1.431 17.905,1.649 18.970,2.068 19.825 C 2.756 21.228,3.977 22.098,5.734 22.437 C 7.035 22.688,7.988 22.733,12.000 22.733 C 16.012 22.733,16.965 22.688,18.266 22.437 C 20.599 21.987,21.987 20.599,22.437 18.266 C 22.688 16.968,22.732 16.015,22.733 12.000 C 22.733 7.987,22.688 7.034,22.437 5.734 C 22.098 3.977,21.228 2.756,19.825 2.068 C 18.972 1.650,17.855 1.421,16.180 1.321 C 15.276 1.267,10.579 1.239,9.020 1.278 M16.600 2.836 C 18.439 3.019,19.320 3.320,20.000 4.000 C 20.680 4.680,20.982 5.564,21.164 7.400 C 21.192 7.686,21.217 9.195,21.229 11.380 C 21.251 15.485,21.215 16.565,21.019 17.740 C 20.687 19.721,19.731 20.677,17.740 21.020 C 16.654 21.207,16.320 21.218,12.040 21.219 C 7.880 21.220,7.593 21.212,6.500 21.055 C 4.391 20.754,3.409 19.877,3.021 17.947 C 2.796 16.825,2.780 16.431,2.781 11.980 C 2.782 7.664,2.793 7.353,2.984 6.240 C 3.231 4.800,3.803 3.921,4.820 3.421 C 5.541 3.067,6.445 2.891,8.002 2.802 C 8.872 2.752,16.044 2.780,16.600 2.836 M9.805 6.285 C 9.730 6.307,9.631 6.350,9.583 6.381 C 9.536 6.412,8.968 6.995,8.321 7.676 L 7.146 8.915 6.763 8.523 C 6.434 8.186,6.353 8.124,6.191 8.085 C 5.839 8.000,5.487 8.158,5.338 8.468 C 5.239 8.673,5.244 8.996,5.350 9.163 C 5.478 9.365,6.675 10.595,6.813 10.667 C 7.003 10.765,7.323 10.751,7.511 10.636 C 7.674 10.535,10.519 7.570,10.650 7.362 C 10.757 7.194,10.759 6.860,10.654 6.658 C 10.501 6.360,10.119 6.193,9.805 6.285 M12.826 8.284 C 12.476 8.366,12.267 8.636,12.267 9.003 C 12.267 9.281,12.387 9.496,12.627 9.645 L 12.780 9.740 15.360 9.753 C 17.212 9.762,18.000 9.752,18.154 9.719 C 18.919 9.553,18.926 8.448,18.162 8.284 C 17.909 8.230,13.057 8.230,12.826 8.284 M9.805 13.285 C 9.730 13.307,9.631 13.350,9.583 13.381 C 9.536 13.412,8.968 13.995,8.321 14.676 L 7.146 15.915 6.763 15.523 C 6.434 15.186,6.353 15.124,6.191 15.085 C 5.839 15.000,5.487 15.158,5.338 15.468 C 5.239 15.673,5.244 15.996,5.350 16.163 C 5.478 16.365,6.675 17.595,6.813 17.667 C 7.003 17.765,7.323 17.751,7.511 17.636 C 7.674 17.535,10.519 14.570,10.650 14.362 C 10.757 14.194,10.759 13.860,10.654 13.658 C 10.501 13.360,10.119 13.193,9.805 13.285 M12.826 15.284 C 12.476 15.366,12.267 15.636,12.267 16.003 C 12.267 16.281,12.387 16.496,12.627 16.645 L 12.780 16.740 15.360 16.753 C 17.212 16.762,18.000 16.752,18.154 16.719 C 18.919 16.553,18.926 15.448,18.162 15.284 C 17.909 15.230,13.057 15.230,12.826 15.284 " stroke="none" fill-rule="evenodd" fill="black"></path></svg>