<svg width="24" height="24" viewBox="0 0 24 24" fill="none" xmlns="http://www.w3.org/2000/svg"><path d="M11.320 1.281 C 7.041 1.525,3.252 4.409,1.843 8.497 C 1.180 10.418,1.082 12.560,1.564 14.550 C 2.505 18.428,5.572 21.495,9.450 22.436 C 11.106 22.837,12.894 22.837,14.550 22.436 C 18.428 21.495,21.495 18.428,22.436 14.550 C 22.837 12.894,22.837 11.106,22.436 9.450 C 21.425 5.282,17.985 2.095,13.742 1.398 C 13.334 1.331,12.074 1.229,11.880 1.247 C 11.847 1.250,11.595 1.265,11.320 1.281 M13.146 2.822 C 14.201 2.960,15.125 3.237,16.060 3.696 C 18.877 5.079,20.768 7.722,21.178 10.854 C 21.301 11.786,21.244 13.026,21.034 13.998 C 20.745 15.343,20.003 16.855,19.121 17.900 C 18.247 18.935,17.240 19.726,16.060 20.304 C 14.761 20.940,13.462 21.240,12.000 21.240 C 10.538 21.240,9.236 20.940,7.940 20.304 C 5.123 18.921,3.232 16.278,2.822 13.146 C 2.699 12.214,2.756 10.974,2.966 10.002 C 3.177 9.020,3.703 7.775,4.268 6.920 C 5.750 4.677,8.131 3.188,10.820 2.823 C 11.380 2.746,12.569 2.746,13.146 2.822 M15.180 8.837 C 15.072 8.887,14.285 9.649,12.760 11.176 L 10.500 13.440 9.720 12.661 C 8.915 11.858,8.780 11.759,8.491 11.761 C 8.318 11.762,8.052 11.873,7.952 11.986 C 7.759 12.202,7.711 12.552,7.837 12.820 C 7.940 13.041,10.006 15.095,10.209 15.179 C 10.398 15.257,10.602 15.257,10.791 15.179 C 10.997 15.094,16.057 10.046,16.163 9.820 C 16.258 9.617,16.259 9.385,16.165 9.180 C 16.077 8.990,15.988 8.904,15.790 8.822 C 15.594 8.740,15.375 8.745,15.180 8.837 " stroke="none" fill-rule="evenodd" fill="black"></path></svg>