<svg width="24" height="24" viewBox="0 0 24 24" fill="none" xmlns="http://www.w3.org/2000/svg"><path d="M11.476 1.278 C 9.931 1.437,8.501 2.296,7.645 3.579 C 7.498 3.799,7.354 4.036,7.326 4.105 L 7.274 4.230 6.827 4.257 C 6.209 4.294,5.692 4.385,5.217 4.540 C 3.209 5.197,1.717 6.910,1.334 9.000 C 1.240 9.513,1.240 10.485,1.334 10.993 C 1.631 12.591,2.577 14.001,3.927 14.855 L 4.232 15.049 4.252 17.534 C 4.273 20.118,4.285 20.300,4.460 20.907 C 4.697 21.728,5.317 22.329,6.162 22.556 C 6.844 22.739,6.875 22.740,12.000 22.740 C 17.125 22.740,17.156 22.739,17.838 22.556 C 18.677 22.330,19.295 21.736,19.538 20.920 C 19.712 20.334,19.730 20.043,19.749 17.495 L 19.768 15.049 20.073 14.856 C 21.423 14.001,22.372 12.587,22.665 10.993 C 22.759 10.486,22.759 9.512,22.666 9.000 C 22.287 6.916,20.789 5.196,18.783 4.540 C 18.311 4.386,17.792 4.294,17.180 4.257 L 16.740 4.230 16.569 3.925 C 15.837 2.615,14.523 1.658,13.049 1.363 C 12.590 1.271,11.902 1.234,11.476 1.278 M13.011 2.896 C 14.006 3.191,14.810 3.834,15.296 4.723 C 15.586 5.253,15.709 5.755,15.742 6.532 C 15.754 6.823,15.773 7.119,15.784 7.191 C 15.824 7.453,16.209 7.758,16.500 7.758 C 16.793 7.758,17.171 7.457,17.222 7.182 C 17.237 7.105,17.242 6.754,17.234 6.401 C 17.218 5.658,17.165 5.721,17.725 5.819 C 20.238 6.259,21.812 8.831,21.053 11.258 C 20.832 11.965,20.313 12.764,19.790 13.203 C 19.491 13.454,19.064 13.736,18.820 13.844 C 18.574 13.953,18.401 14.108,18.315 14.298 C 18.249 14.445,18.242 14.588,18.241 15.850 L 18.240 17.240 12.000 17.240 L 5.760 17.240 5.759 15.850 C 5.758 14.588,5.751 14.445,5.685 14.298 C 5.599 14.108,5.426 13.953,5.180 13.844 C 4.936 13.736,4.509 13.454,4.210 13.203 C 3.687 12.764,3.168 11.965,2.947 11.258 C 2.188 8.831,3.762 6.259,6.275 5.819 C 6.835 5.721,6.782 5.658,6.766 6.401 C 6.758 6.754,6.763 7.105,6.778 7.182 C 6.829 7.457,7.207 7.758,7.500 7.758 C 7.791 7.758,8.176 7.453,8.216 7.191 C 8.227 7.119,8.246 6.823,8.258 6.532 C 8.291 5.755,8.414 5.253,8.704 4.723 C 9.175 3.862,9.981 3.203,10.908 2.921 C 11.355 2.785,11.542 2.763,12.120 2.778 C 12.556 2.790,12.728 2.812,13.011 2.896 M9.951 8.619 C 9.158 8.821,8.557 9.454,8.336 10.320 C 8.244 10.678,8.244 11.274,8.336 11.580 C 8.605 12.479,9.399 13.406,10.700 14.341 C 11.304 14.775,11.675 14.911,12.141 14.867 C 12.473 14.836,12.746 14.721,13.156 14.440 C 14.053 13.824,14.799 13.118,15.210 12.495 C 15.660 11.813,15.799 11.315,15.721 10.672 C 15.644 10.034,15.395 9.515,14.986 9.135 C 14.270 8.469,13.212 8.379,12.250 8.902 L 12.000 9.038 11.750 8.902 C 11.613 8.828,11.383 8.727,11.240 8.680 C 10.901 8.568,10.272 8.538,9.951 8.619 M10.977 10.181 C 11.089 10.234,11.269 10.351,11.378 10.442 C 11.653 10.670,11.765 10.720,12.000 10.720 C 12.235 10.720,12.347 10.670,12.622 10.442 C 12.995 10.132,13.423 9.990,13.709 10.081 C 14.167 10.227,14.383 10.871,14.146 11.380 C 13.941 11.819,13.392 12.394,12.600 12.998 C 12.088 13.389,12.030 13.418,11.890 13.345 C 11.730 13.262,11.067 12.750,10.728 12.447 C 10.372 12.130,9.980 11.651,9.854 11.380 C 9.625 10.888,9.827 10.244,10.260 10.086 C 10.426 10.025,10.737 10.067,10.977 10.181 M18.226 19.390 C 18.188 20.320,18.056 20.796,17.792 20.968 C 17.633 21.071,17.313 21.157,16.920 21.201 C 16.343 21.267,7.061 21.235,6.740 21.166 C 6.005 21.009,5.827 20.683,5.774 19.390 L 5.747 18.760 12.000 18.760 L 18.253 18.760 18.226 19.390 " fill="#1C274C" stroke="none" fill-rule="evenodd"></path></svg>