<svg width="24" height="24" viewBox="0 0 24 24" fill="none" xmlns="http://www.w3.org/2000/svg"><path d="M11.320 1.281 C 6.370 1.563,2.208 5.329,1.398 10.258 C 1.303 10.838,1.232 11.965,1.277 12.168 C 1.447 12.922,2.554 12.917,2.716 12.162 C 2.740 12.049,2.760 11.814,2.760 11.640 C 2.760 10.553,3.128 9.097,3.696 7.940 C 5.079 5.123,7.722 3.232,10.854 2.822 C 11.786 2.699,13.026 2.756,13.998 2.966 C 15.333 3.253,16.822 3.978,17.860 4.847 C 18.934 5.746,19.707 6.724,20.304 7.940 C 20.940 9.236,21.240 10.538,21.240 12.000 C 21.240 13.464,20.941 14.761,20.301 16.066 C 19.424 17.857,17.969 19.340,16.220 20.227 C 14.979 20.856,13.800 21.168,12.395 21.238 C 11.808 21.267,11.748 21.277,11.605 21.372 C 11.374 21.525,11.267 21.724,11.267 22.000 C 11.267 22.371,11.477 22.634,11.840 22.715 C 12.049 22.762,13.078 22.707,13.657 22.617 C 17.924 21.956,21.419 18.745,22.436 14.550 C 22.837 12.894,22.837 11.106,22.436 9.450 C 21.425 5.282,17.985 2.095,13.742 1.398 C 13.334 1.331,12.074 1.229,11.880 1.247 C 11.847 1.250,11.595 1.265,11.320 1.281 M9.900 13.260 C 9.878 13.267,9.806 13.285,9.740 13.299 C 9.650 13.319,8.775 14.169,6.190 16.752 L 2.760 20.179 2.760 18.111 C 2.760 16.753,2.745 15.973,2.716 15.838 C 2.575 15.182,1.713 15.051,1.353 15.631 L 1.260 15.780 1.260 19.007 L 1.260 22.233 1.380 22.403 C 1.446 22.496,1.572 22.610,1.660 22.656 C 1.818 22.739,1.865 22.740,4.878 22.751 C 7.020 22.759,8.000 22.749,8.151 22.718 C 8.902 22.562,8.931 21.473,8.189 21.286 C 8.061 21.254,7.366 21.240,5.913 21.240 L 3.821 21.240 7.247 17.810 C 10.571 14.481,10.673 14.374,10.712 14.189 C 10.785 13.834,10.633 13.480,10.352 13.350 C 10.213 13.286,9.968 13.237,9.900 13.260 " stroke="none" fill-rule="evenodd" fill="black"></path></svg>