<svg width="24" height="24" viewBox="0 0 24 24" fill="none" xmlns="http://www.w3.org/2000/svg"><path d="M11.320 1.281 C 6.370 1.563,2.208 5.329,1.398 10.258 C 1.303 10.838,1.232 11.965,1.277 12.168 C 1.447 12.922,2.554 12.917,2.716 12.162 C 2.740 12.049,2.760 11.814,2.760 11.640 C 2.760 10.553,3.128 9.097,3.696 7.940 C 5.079 5.123,7.722 3.232,10.854 2.822 C 11.786 2.699,13.026 2.756,13.998 2.966 C 15.333 3.253,16.822 3.978,17.860 4.847 C 18.934 5.746,19.707 6.724,20.304 7.940 C 20.940 9.236,21.240 10.538,21.240 12.000 C 21.240 13.464,20.941 14.761,20.301 16.066 C 19.424 17.857,17.969 19.340,16.220 20.227 C 14.979 20.856,13.800 21.168,12.395 21.238 C 11.808 21.267,11.748 21.277,11.605 21.372 C 11.374 21.525,11.267 21.724,11.267 22.000 C 11.267 22.371,11.477 22.634,11.840 22.715 C 12.049 22.762,13.078 22.707,13.657 22.617 C 17.924 21.956,21.419 18.745,22.436 14.550 C 22.837 12.894,22.837 11.106,22.436 9.450 C 21.425 5.282,17.985 2.095,13.742 1.398 C 13.334 1.331,12.074 1.229,11.880 1.247 C 11.847 1.250,11.595 1.265,11.320 1.281 M4.815 12.278 C 4.331 12.393,4.098 13.004,4.383 13.408 C 4.447 13.499,4.572 13.610,4.660 13.656 C 4.816 13.738,4.879 13.740,6.998 13.752 L 9.176 13.763 5.772 17.172 C 3.900 19.046,2.346 20.625,2.318 20.680 C 2.290 20.735,2.267 20.881,2.267 21.004 C 2.267 21.498,2.681 21.816,3.189 21.712 C 3.374 21.673,3.481 21.571,6.808 18.248 L 10.237 14.824 10.248 17.022 L 10.260 19.220 10.353 19.369 C 10.710 19.943,11.576 19.812,11.716 19.162 C 11.777 18.875,11.777 13.125,11.716 12.838 C 11.658 12.570,11.450 12.352,11.189 12.286 C 10.979 12.234,5.033 12.226,4.815 12.278 " stroke="none" fill-rule="evenodd" fill="black"></path></svg>