<svg width="24" height="24" viewBox="0 0 24 24" fill="none" xmlns="http://www.w3.org/2000/svg"><path d="M11.320 1.281 C 7.041 1.525,3.252 4.409,1.843 8.497 C 1.180 10.418,1.082 12.560,1.564 14.550 C 2.505 18.428,5.572 21.495,9.450 22.436 C 11.106 22.837,12.894 22.837,14.550 22.436 C 18.746 21.418,21.956 17.924,22.617 13.655 C 22.710 13.054,22.762 12.060,22.713 11.826 C 22.607 11.327,21.989 11.095,21.566 11.396 C 21.315 11.575,21.272 11.704,21.238 12.398 C 21.220 12.745,21.167 13.261,21.119 13.545 C 20.625 16.474,18.741 18.991,16.060 20.304 C 14.761 20.940,13.462 21.240,12.000 21.240 C 10.538 21.240,9.236 20.940,7.940 20.304 C 5.123 18.921,3.232 16.278,2.822 13.146 C 2.699 12.214,2.756 10.974,2.966 10.002 C 3.253 8.667,3.978 7.178,4.847 6.140 C 6.410 4.272,8.469 3.134,10.854 2.822 C 11.112 2.788,11.466 2.760,11.640 2.760 C 12.118 2.760,12.341 2.699,12.520 2.520 C 12.918 2.122,12.730 1.423,12.189 1.286 C 12.087 1.261,11.963 1.243,11.912 1.246 C 11.862 1.250,11.595 1.265,11.320 1.281 M16.580 1.259 C 16.558 1.267,16.491 1.284,16.431 1.297 C 16.284 1.329,16.041 1.548,15.974 1.708 C 15.863 1.973,15.919 2.289,16.113 2.494 C 16.352 2.747,16.282 2.739,18.318 2.752 L 20.175 2.764 16.250 6.692 C 13.425 9.519,12.316 10.654,12.294 10.740 C 12.134 11.349,12.583 11.836,13.189 11.712 C 13.375 11.673,13.490 11.563,17.308 7.749 L 21.236 3.825 21.248 5.682 C 21.261 7.718,21.253 7.648,21.506 7.887 C 21.711 8.081,22.027 8.137,22.292 8.026 C 22.447 7.961,22.667 7.721,22.709 7.569 C 22.726 7.509,22.740 6.191,22.740 4.640 C 22.740 1.858,22.739 1.818,22.656 1.660 C 22.610 1.572,22.496 1.446,22.403 1.380 L 22.233 1.260 19.427 1.252 C 17.883 1.248,16.602 1.251,16.580 1.259 " stroke="none" fill-rule="evenodd" fill="black"></path></svg>