<svg width="24" height="24" viewBox="0 0 24 24" fill="none" xmlns="http://www.w3.org/2000/svg"><path d="M11.320 1.281 C 7.041 1.525,3.252 4.409,1.843 8.497 C 1.180 10.418,1.082 12.560,1.564 14.550 C 2.505 18.428,5.572 21.495,9.450 22.436 C 11.106 22.837,12.894 22.837,14.550 22.436 C 18.746 21.418,21.956 17.924,22.617 13.655 C 22.710 13.054,22.762 12.060,22.713 11.826 C 22.607 11.327,21.989 11.095,21.566 11.396 C 21.315 11.575,21.272 11.704,21.238 12.398 C 21.220 12.745,21.167 13.261,21.119 13.545 C 20.625 16.474,18.741 18.991,16.060 20.304 C 14.761 20.940,13.462 21.240,12.000 21.240 C 10.538 21.240,9.236 20.940,7.940 20.304 C 5.123 18.921,3.232 16.278,2.822 13.146 C 2.699 12.214,2.756 10.974,2.966 10.002 C 3.253 8.667,3.978 7.178,4.847 6.140 C 6.410 4.272,8.469 3.134,10.854 2.822 C 11.112 2.788,11.466 2.760,11.640 2.760 C 12.118 2.760,12.341 2.699,12.520 2.520 C 12.918 2.122,12.730 1.423,12.189 1.286 C 12.087 1.261,11.963 1.243,11.912 1.246 C 11.862 1.250,11.595 1.265,11.320 1.281 M20.900 2.259 C 20.878 2.267,20.806 2.285,20.740 2.299 C 20.649 2.319,19.659 3.285,16.692 6.250 L 12.764 10.175 12.752 8.318 C 12.739 6.282,12.747 6.352,12.494 6.113 C 12.289 5.919,11.973 5.863,11.708 5.974 C 11.553 6.039,11.333 6.279,11.291 6.431 C 11.274 6.491,11.260 7.821,11.260 9.387 L 11.260 12.233 11.380 12.403 C 11.446 12.496,11.572 12.610,11.660 12.656 C 11.818 12.739,11.858 12.740,14.640 12.740 C 16.191 12.740,17.509 12.726,17.569 12.709 C 17.721 12.667,17.961 12.447,18.026 12.292 C 18.137 12.027,18.081 11.711,17.887 11.506 C 17.648 11.253,17.718 11.261,15.682 11.248 L 13.825 11.236 17.749 7.308 C 21.563 3.490,21.673 3.375,21.712 3.189 C 21.782 2.847,21.657 2.530,21.389 2.367 C 21.265 2.292,20.983 2.229,20.900 2.259 " stroke="none" fill-rule="evenodd" fill="black"></path></svg>