<svg width="24" height="24" viewBox="0 0 24 24" fill="none" xmlns="http://www.w3.org/2000/svg"><path d="M6.815 1.277 C 6.638 1.321,6.461 1.456,6.353 1.631 C 6.263 1.775,6.260 1.816,6.247 2.765 L 6.234 3.750 5.487 3.772 C 5.076 3.784,4.661 3.814,4.565 3.839 C 4.103 3.955,3.688 4.268,3.498 4.644 C 3.308 5.018,3.279 5.252,3.253 6.627 L 3.228 7.914 3.118 7.995 C 2.822 8.214,2.471 8.929,2.360 9.540 C 2.271 10.034,2.243 11.635,2.241 16.364 L 2.240 21.229 1.992 21.255 C 1.533 21.303,1.267 21.579,1.267 22.007 C 1.267 22.203,1.286 22.270,1.383 22.408 C 1.447 22.499,1.572 22.610,1.660 22.656 L 1.820 22.740 11.880 22.751 C 19.099 22.758,22.000 22.749,22.154 22.717 C 22.568 22.631,22.804 22.250,22.711 21.816 C 22.639 21.479,22.296 21.240,21.882 21.240 L 21.760 21.240 21.759 14.290 C 21.758 10.467,21.741 7.025,21.721 6.640 C 21.656 5.405,21.431 4.853,20.778 4.331 C 20.343 3.983,19.721 3.706,17.876 3.038 C 15.792 2.283,15.042 2.131,14.236 2.301 C 13.215 2.516,12.592 3.297,12.377 4.633 C 12.294 5.148,12.242 6.916,12.241 9.272 L 12.240 11.244 11.990 11.232 L 11.740 11.220 11.715 10.520 C 11.701 10.135,11.668 9.703,11.643 9.560 C 11.530 8.930,11.273 8.388,10.928 8.052 L 10.772 7.900 10.749 6.640 C 10.735 5.910,10.705 5.287,10.678 5.160 C 10.560 4.616,10.259 4.200,9.832 3.991 C 9.493 3.825,9.320 3.796,8.510 3.772 L 7.760 3.750 7.759 2.885 C 7.758 1.954,7.728 1.731,7.580 1.536 C 7.421 1.327,7.078 1.211,6.815 1.277 M15.286 3.783 C 15.697 3.860,16.819 4.231,18.120 4.720 C 19.701 5.314,19.999 5.492,20.148 5.928 C 20.216 6.129,20.221 6.533,20.231 13.690 L 20.241 21.240 19.001 21.240 L 17.760 21.240 17.759 18.370 C 17.757 15.484,17.720 13.985,17.640 13.540 C 17.447 12.481,16.898 11.796,16.008 11.504 C 15.553 11.356,15.257 11.313,14.480 11.285 L 13.780 11.260 13.781 8.260 C 13.782 6.076,13.795 5.173,13.831 4.940 C 13.938 4.253,14.131 3.896,14.460 3.780 C 14.670 3.706,14.879 3.706,15.286 3.783 M8.929 5.275 C 9.054 5.291,9.171 5.318,9.189 5.335 C 9.206 5.352,9.226 5.807,9.233 6.346 L 9.245 7.326 8.873 7.295 C 8.389 7.254,5.611 7.254,5.127 7.295 L 4.755 7.326 4.767 6.346 C 4.774 5.807,4.795 5.352,4.812 5.334 C 4.830 5.316,4.938 5.290,5.052 5.277 C 5.341 5.241,8.649 5.240,8.929 5.275 M9.260 8.835 C 9.370 8.860,9.559 8.930,9.679 8.991 C 9.863 9.084,9.916 9.137,10.009 9.321 C 10.164 9.625,10.210 9.920,10.215 10.640 L 10.220 11.260 9.520 11.285 C 9.135 11.299,8.703 11.332,8.560 11.357 C 7.375 11.570,6.698 12.177,6.418 13.280 C 6.290 13.782,6.274 14.224,6.252 17.710 L 6.231 21.240 4.995 21.240 L 3.760 21.240 3.760 15.838 C 3.760 10.241,3.770 9.871,3.926 9.454 C 4.073 9.061,4.372 8.878,4.989 8.804 C 5.423 8.752,9.005 8.778,9.260 8.835 M15.260 12.834 C 15.370 12.859,15.559 12.930,15.679 12.991 C 15.863 13.084,15.916 13.137,16.009 13.321 C 16.070 13.441,16.141 13.630,16.167 13.740 C 16.199 13.881,16.218 15.018,16.228 17.590 L 16.244 21.240 12.002 21.240 L 7.760 21.240 7.760 17.838 C 7.760 14.307,7.777 13.851,7.926 13.454 C 8.073 13.061,8.373 12.878,8.989 12.805 C 9.447 12.751,15.009 12.776,15.260 12.834 M9.815 14.278 C 9.331 14.393,9.098 15.004,9.383 15.408 C 9.447 15.499,9.572 15.610,9.660 15.656 C 9.815 15.738,9.880 15.740,11.875 15.752 C 14.208 15.765,14.281 15.759,14.519 15.521 C 14.918 15.122,14.731 14.423,14.189 14.286 C 13.980 14.234,10.031 14.226,9.815 14.278 M9.815 17.278 C 9.331 17.393,9.098 18.004,9.383 18.408 C 9.447 18.499,9.572 18.610,9.660 18.656 C 9.815 18.738,9.880 18.740,11.875 18.752 C 14.208 18.765,14.281 18.759,14.519 18.521 C 14.918 18.122,14.731 17.423,14.189 17.286 C 13.980 17.234,10.031 17.226,9.815 17.278 " stroke="none" fill-rule="evenodd" fill="black"></path></svg>