<svg width="24" height="24" viewBox="0 0 24 24" fill="none" xmlns="http://www.w3.org/2000/svg"><path d="M8.960 1.280 C 6.960 1.332,5.848 1.469,4.900 1.779 C 3.060 2.382,1.958 3.688,1.563 5.734 C 1.311 7.042,1.267 7.973,1.267 12.000 C 1.267 16.027,1.311 16.958,1.563 18.266 C 2.013 20.599,3.401 21.987,5.734 22.437 C 7.034 22.688,7.987 22.733,12.000 22.733 C 16.013 22.733,16.966 22.688,18.266 22.437 C 20.599 21.987,21.987 20.599,22.437 18.266 C 22.688 16.966,22.733 16.013,22.733 12.000 C 22.733 7.987,22.688 7.034,22.437 5.734 C 22.098 3.977,21.228 2.756,19.825 2.068 C 18.978 1.652,17.875 1.425,16.200 1.321 C 15.315 1.266,10.534 1.239,8.960 1.280 M9.403 2.830 C 9.382 2.869,8.745 3.872,7.987 5.060 L 6.611 7.220 4.734 7.230 L 2.856 7.241 2.891 6.890 C 3.020 5.580,3.392 4.611,4.001 4.001 C 4.851 3.152,6.194 2.821,9.011 2.768 C 9.412 2.761,9.440 2.765,9.403 2.830 M15.647 2.795 L 15.914 2.820 14.507 5.030 L 13.100 7.240 10.750 7.240 C 9.457 7.240,8.400 7.229,8.400 7.216 C 8.400 7.203,9.034 6.195,9.809 4.976 L 11.219 2.760 13.299 2.765 C 14.444 2.768,15.500 2.781,15.647 2.795 M18.120 3.056 C 20.034 3.493,20.864 4.567,21.112 6.930 L 21.145 7.240 18.010 7.240 C 15.313 7.240,14.880 7.232,14.908 7.183 C 14.926 7.152,15.534 6.190,16.260 5.045 C 17.029 3.833,17.605 2.963,17.640 2.962 C 17.673 2.961,17.889 3.004,18.120 3.056 M21.228 12.450 C 21.210 16.124,21.197 16.516,21.055 17.500 C 20.734 19.744,19.757 20.726,17.520 21.054 C 16.474 21.207,16.036 21.220,12.000 21.220 C 7.964 21.220,7.526 21.207,6.480 21.054 C 4.384 20.747,3.408 19.870,3.021 17.947 C 2.809 16.890,2.790 16.481,2.771 12.470 L 2.753 8.760 12.000 8.760 L 21.247 8.760 21.228 12.450 M6.420 13.259 C 6.398 13.267,6.331 13.284,6.271 13.297 C 6.124 13.329,5.881 13.548,5.814 13.708 C 5.691 14.002,5.771 14.336,6.015 14.550 C 6.095 14.621,6.211 14.693,6.271 14.709 C 6.413 14.749,14.587 14.749,14.729 14.709 C 14.881 14.667,15.121 14.447,15.186 14.292 C 15.297 14.027,15.241 13.711,15.047 13.506 C 14.798 13.242,15.122 13.261,10.580 13.253 C 8.314 13.249,6.442 13.252,6.420 13.259 M6.180 16.835 C 5.990 16.923,5.904 17.012,5.822 17.210 C 5.708 17.483,5.783 17.869,5.986 18.048 C 6.204 18.242,6.165 18.240,9.256 18.240 C 11.207 18.240,12.192 18.226,12.267 18.197 C 12.540 18.095,12.731 17.807,12.731 17.500 C 12.731 17.193,12.540 16.905,12.267 16.803 C 12.192 16.774,11.206 16.760,9.247 16.761 C 6.512 16.762,6.331 16.766,6.180 16.835 " stroke="none" fill-rule="evenodd" fill="black"></path></svg>