<svg width="24" height="24" viewBox="0 0 24 24" fill="none" xmlns="http://www.w3.org/2000/svg"><path d="M8.960 1.280 C 6.960 1.332,5.848 1.469,4.900 1.779 C 3.060 2.382,1.958 3.688,1.563 5.734 C 1.311 7.042,1.267 7.973,1.267 12.000 C 1.267 16.009,1.311 16.968,1.559 18.244 C 1.959 20.310,3.038 21.598,4.883 22.213 C 5.873 22.543,7.460 22.720,9.429 22.720 C 10.121 22.720,10.220 22.712,10.358 22.641 C 10.750 22.441,10.859 21.902,10.582 21.539 C 10.383 21.278,10.334 21.267,9.160 21.234 C 7.419 21.185,6.427 21.088,5.687 20.896 C 4.147 20.495,3.358 19.623,3.021 17.947 C 2.809 16.890,2.790 16.481,2.771 12.470 L 2.753 8.760 11.997 8.760 L 21.240 8.760 21.240 9.650 C 21.240 10.148,21.259 10.607,21.282 10.691 C 21.335 10.879,21.537 11.115,21.708 11.186 C 21.973 11.297,22.289 11.241,22.493 11.047 C 22.748 10.807,22.754 10.752,22.716 9.166 C 22.683 7.805,22.604 6.665,22.498 6.051 C 22.141 3.967,21.202 2.648,19.589 1.963 C 18.744 1.603,17.761 1.418,16.180 1.320 C 15.312 1.266,10.517 1.239,8.960 1.280 M9.403 2.830 C 9.382 2.869,8.745 3.872,7.987 5.060 L 6.611 7.220 4.734 7.230 L 2.856 7.241 2.891 6.890 C 3.020 5.580,3.392 4.611,4.001 4.001 C 4.851 3.152,6.194 2.821,9.011 2.768 C 9.412 2.761,9.440 2.765,9.403 2.830 M15.647 2.795 L 15.914 2.820 14.507 5.030 L 13.100 7.240 10.750 7.240 C 9.457 7.240,8.400 7.229,8.400 7.216 C 8.400 7.203,9.034 6.195,9.809 4.976 L 11.219 2.760 13.299 2.765 C 14.444 2.768,15.500 2.781,15.647 2.795 M18.122 3.056 C 19.679 3.410,20.510 4.201,20.900 5.706 C 20.999 6.083,21.120 6.855,21.120 7.101 L 21.120 7.240 17.998 7.240 C 15.311 7.240,14.880 7.232,14.908 7.183 C 14.926 7.152,15.534 6.190,16.260 5.045 C 17.029 3.833,17.605 2.963,17.640 2.962 C 17.673 2.961,17.890 3.004,18.122 3.056 M19.880 12.281 C 19.543 12.322,19.159 12.464,18.859 12.658 C 18.577 12.840,13.866 17.531,13.607 17.887 C 13.516 18.012,13.378 18.229,13.301 18.369 C 13.150 18.645,12.309 21.105,12.265 21.400 C 12.230 21.636,12.325 21.994,12.481 22.222 C 12.717 22.565,13.213 22.792,13.600 22.735 C 13.895 22.691,16.355 21.850,16.631 21.699 C 16.771 21.622,16.988 21.484,17.113 21.393 C 17.238 21.302,18.431 20.137,19.764 18.804 C 21.486 17.082,22.236 16.305,22.355 16.120 C 22.610 15.723,22.726 15.311,22.729 14.800 C 22.732 14.048,22.517 13.516,22.001 12.999 C 21.430 12.429,20.696 12.180,19.880 12.281 M20.640 13.843 C 21.020 14.015,21.240 14.359,21.239 14.780 C 21.238 15.055,21.154 15.263,20.953 15.490 L 20.820 15.640 20.520 15.494 C 20.306 15.389,20.139 15.266,19.936 15.064 C 19.734 14.861,19.611 14.694,19.506 14.480 L 19.360 14.180 19.510 14.047 C 19.840 13.754,20.271 13.676,20.640 13.843 M18.400 15.551 C 18.477 15.676,18.693 15.932,18.881 16.119 C 19.068 16.307,19.324 16.523,19.449 16.600 C 19.574 16.677,19.677 16.750,19.678 16.763 C 19.679 16.775,18.919 17.542,17.990 18.467 C 16.957 19.495,16.211 20.206,16.070 20.296 C 15.922 20.390,15.545 20.542,15.012 20.722 L 14.183 21.001 14.091 20.909 L 13.999 20.817 14.278 19.988 C 14.458 19.455,14.610 19.078,14.704 18.930 C 14.794 18.789,15.505 18.043,16.533 17.010 C 17.458 16.081,18.225 15.321,18.237 15.322 C 18.250 15.323,18.323 15.426,18.400 15.551 " stroke="none" fill-rule="evenodd" fill="black"></path></svg>