<svg width="24" height="24" viewBox="0 0 24 24" fill="none" xmlns="http://www.w3.org/2000/svg"><path d="M8.960 1.280 C 6.960 1.332,5.848 1.469,4.900 1.779 C 3.060 2.382,1.958 3.688,1.563 5.734 C 1.311 7.042,1.267 7.973,1.267 12.000 C 1.267 16.027,1.311 16.958,1.563 18.266 C 2.013 20.599,3.401 21.987,5.734 22.437 C 7.034 22.688,7.987 22.733,12.000 22.733 C 16.013 22.733,16.966 22.688,18.266 22.437 C 20.599 21.987,21.987 20.599,22.437 18.266 C 22.688 16.966,22.733 16.013,22.733 12.000 C 22.733 7.987,22.688 7.034,22.437 5.734 C 22.098 3.977,21.228 2.756,19.825 2.068 C 18.978 1.652,17.875 1.425,16.200 1.321 C 15.315 1.266,10.534 1.239,8.960 1.280 M9.403 2.830 C 9.382 2.869,8.745 3.872,7.987 5.060 L 6.611 7.220 4.734 7.230 L 2.856 7.241 2.891 6.890 C 3.020 5.580,3.392 4.611,4.001 4.001 C 4.851 3.152,6.194 2.821,9.011 2.768 C 9.412 2.761,9.440 2.765,9.403 2.830 M15.647 2.795 L 15.914 2.820 14.507 5.030 L 13.100 7.240 10.750 7.240 C 9.457 7.240,8.400 7.229,8.400 7.216 C 8.400 7.203,9.034 6.195,9.809 4.976 L 11.219 2.760 13.299 2.765 C 14.444 2.768,15.500 2.781,15.647 2.795 M18.120 3.056 C 20.034 3.493,20.864 4.567,21.112 6.930 L 21.145 7.240 18.010 7.240 C 15.313 7.240,14.880 7.232,14.908 7.183 C 14.926 7.152,15.534 6.190,16.260 5.045 C 17.029 3.833,17.605 2.963,17.640 2.962 C 17.673 2.961,17.889 3.004,18.120 3.056 M21.228 12.450 C 21.210 16.124,21.197 16.516,21.055 17.500 C 20.734 19.744,19.757 20.726,17.520 21.054 C 16.474 21.207,16.036 21.220,12.000 21.220 C 7.964 21.220,7.526 21.207,6.480 21.054 C 4.384 20.747,3.408 19.870,3.021 17.947 C 2.809 16.890,2.790 16.481,2.771 12.470 L 2.753 8.760 12.000 8.760 L 21.247 8.760 21.228 12.450 M10.435 10.823 C 9.826 11.010,9.428 11.607,9.323 12.491 C 9.197 13.551,9.244 16.335,9.398 16.933 C 9.601 17.723,10.082 18.182,10.757 18.230 C 11.397 18.276,11.987 17.992,13.920 16.703 C 14.956 16.013,15.344 15.666,15.553 15.240 C 15.904 14.526,15.758 13.832,15.123 13.198 C 14.682 12.759,12.611 11.388,11.835 11.021 C 11.294 10.767,10.831 10.701,10.435 10.823 M11.730 12.661 C 12.497 13.120,13.769 13.977,14.010 14.198 C 14.306 14.469,14.307 14.531,14.015 14.798 C 13.604 15.174,11.506 16.522,11.082 16.683 L 10.883 16.759 10.831 16.589 C 10.793 16.462,10.780 15.949,10.780 14.500 C 10.780 13.051,10.793 12.538,10.831 12.411 L 10.883 12.241 11.082 12.317 C 11.191 12.358,11.483 12.514,11.730 12.661 " stroke="none" fill-rule="evenodd" fill="black"></path></svg>