<svg width="24" height="24" viewBox="0 0 24 24" fill="none" xmlns="http://www.w3.org/2000/svg"><path d="M9.180 1.281 C 8.286 1.402,7.551 2.071,7.323 2.968 L 7.249 3.260 6.695 3.287 C 4.942 3.374,4.087 3.646,3.378 4.340 C 2.739 4.967,2.431 5.801,2.311 7.231 C 2.275 7.660,2.261 9.227,2.261 13.000 C 2.261 18.410,2.274 18.918,2.436 19.749 C 2.750 21.356,3.644 22.250,5.251 22.564 C 6.082 22.726,6.590 22.739,12.000 22.739 C 17.410 22.739,17.918 22.726,18.749 22.564 C 20.352 22.251,21.232 21.376,21.557 19.772 C 21.724 18.947,21.739 18.408,21.739 13.000 C 21.739 9.181,21.726 7.701,21.688 7.240 C 21.569 5.804,21.262 4.968,20.622 4.340 C 19.913 3.646,19.058 3.374,17.305 3.287 L 16.751 3.260 16.677 2.968 C 16.480 2.193,15.909 1.594,15.120 1.335 C 14.918 1.269,14.680 1.263,12.160 1.256 C 10.653 1.251,9.312 1.263,9.180 1.281 M14.840 2.834 C 14.916 2.875,15.032 2.976,15.099 3.058 L 15.220 3.207 15.220 4.000 L 15.220 4.793 15.099 4.942 C 14.843 5.258,15.032 5.240,12.000 5.240 C 8.968 5.240,9.157 5.258,8.901 4.942 L 8.780 4.793 8.780 4.000 L 8.780 3.207 8.901 3.058 C 9.157 2.742,8.968 2.760,12.000 2.760 C 14.555 2.760,14.709 2.764,14.840 2.834 M7.313 4.996 C 7.470 5.757,8.101 6.422,8.900 6.666 C 9.123 6.735,9.337 6.740,12.000 6.740 C 14.663 6.740,14.877 6.735,15.100 6.666 C 15.899 6.422,16.530 5.757,16.687 4.996 L 16.736 4.760 16.918 4.760 C 17.287 4.760,18.190 4.843,18.500 4.904 C 18.891 4.982,19.334 5.180,19.546 5.372 C 19.844 5.641,20.036 6.100,20.149 6.814 C 20.215 7.226,20.220 7.702,20.220 12.980 C 20.220 18.877,20.216 19.046,20.060 19.660 C 19.968 20.023,19.743 20.450,19.555 20.620 C 19.252 20.894,18.764 21.073,18.060 21.170 C 17.541 21.242,6.459 21.242,5.940 21.170 C 5.236 21.073,4.748 20.894,4.445 20.620 C 4.147 20.351,3.932 19.806,3.830 19.060 C 3.758 18.541,3.758 7.459,3.830 6.940 C 3.933 6.193,4.147 5.649,4.446 5.379 C 4.878 4.989,5.695 4.791,6.982 4.766 L 7.264 4.760 7.313 4.996 M6.720 13.805 C 6.458 13.909,6.269 14.200,6.269 14.500 C 6.269 14.807,6.460 15.095,6.733 15.197 C 6.810 15.227,8.162 15.240,11.000 15.240 C 13.838 15.240,15.190 15.227,15.267 15.197 C 15.540 15.095,15.731 14.807,15.731 14.500 C 15.731 14.193,15.540 13.905,15.267 13.803 C 15.117 13.746,6.863 13.748,6.720 13.805 M6.826 17.284 C 6.475 17.367,6.267 17.636,6.267 18.003 C 6.267 18.281,6.387 18.496,6.627 18.645 L 6.780 18.740 9.700 18.740 C 11.306 18.740,12.669 18.726,12.729 18.709 C 12.881 18.667,13.121 18.447,13.186 18.292 C 13.297 18.027,13.241 17.711,13.047 17.506 C 12.801 17.246,12.987 17.261,9.840 17.253 C 8.208 17.250,6.914 17.263,6.826 17.284 " stroke="none" fill-rule="evenodd" fill="black"></path></svg>