<svg width="24" height="24" viewBox="0 0 24 24" fill="none" xmlns="http://www.w3.org/2000/svg"><path d="M9.180 1.281 C 8.286 1.402,7.551 2.071,7.323 2.968 L 7.249 3.260 6.675 3.287 C 4.579 3.386,3.550 3.841,2.896 4.957 C 2.573 5.509,2.398 6.190,2.310 7.236 C 2.240 8.073,2.241 17.936,2.311 18.777 C 2.498 21.007,3.255 22.064,4.975 22.499 C 5.530 22.640,5.983 22.682,7.380 22.721 C 9.034 22.768,14.966 22.768,16.620 22.721 C 18.017 22.682,18.470 22.640,19.025 22.499 C 20.413 22.148,21.189 21.354,21.520 19.948 C 21.647 19.408,21.677 19.049,21.724 17.520 C 21.779 15.703,21.748 7.956,21.681 7.160 C 21.527 5.312,20.953 4.297,19.749 3.740 C 19.173 3.474,18.462 3.342,17.305 3.287 L 16.751 3.260 16.677 2.968 C 16.480 2.193,15.909 1.594,15.120 1.335 C 14.918 1.269,14.680 1.263,12.160 1.256 C 10.653 1.251,9.312 1.263,9.180 1.281 M14.840 2.834 C 14.916 2.875,15.032 2.976,15.099 3.058 L 15.220 3.207 15.220 4.000 L 15.220 4.793 15.099 4.942 C 14.843 5.258,15.032 5.240,12.000 5.240 C 8.968 5.240,9.157 5.258,8.901 4.942 L 8.780 4.793 8.780 4.000 L 8.780 3.207 8.901 3.058 C 9.157 2.742,8.968 2.760,12.000 2.760 C 14.555 2.760,14.709 2.764,14.840 2.834 M7.313 4.996 C 7.470 5.757,8.101 6.422,8.900 6.666 C 9.123 6.735,9.337 6.740,12.000 6.740 C 14.663 6.740,14.877 6.735,15.100 6.666 C 15.899 6.422,16.530 5.757,16.687 4.996 L 16.736 4.760 16.940 4.760 C 17.301 4.760,18.212 4.844,18.500 4.904 C 19.024 5.013,19.432 5.217,19.658 5.484 C 19.804 5.657,19.979 6.031,20.059 6.340 C 20.216 6.948,20.220 7.117,20.220 13.020 C 20.220 18.298,20.215 18.774,20.149 19.186 C 19.933 20.550,19.468 20.984,18.031 21.168 C 17.433 21.244,6.567 21.244,5.969 21.168 C 5.234 21.074,4.758 20.903,4.445 20.620 C 4.147 20.351,3.932 19.806,3.830 19.060 C 3.758 18.541,3.758 7.459,3.830 6.940 C 3.921 6.274,4.098 5.773,4.342 5.484 C 4.731 5.024,5.581 4.791,6.962 4.766 L 7.264 4.760 7.313 4.996 M14.816 10.277 C 14.747 10.294,14.651 10.336,14.601 10.371 C 14.552 10.405,13.665 11.223,12.631 12.187 C 11.597 13.151,10.736 13.940,10.716 13.940 C 10.697 13.940,10.409 13.688,10.076 13.380 C 9.345 12.703,9.296 12.670,9.026 12.666 C 8.602 12.660,8.271 12.966,8.267 13.367 C 8.266 13.494,8.294 13.640,8.336 13.728 C 8.411 13.885,10.188 15.570,10.388 15.674 C 10.544 15.756,10.885 15.747,11.054 15.656 C 11.282 15.533,15.586 11.490,15.666 11.324 C 15.774 11.099,15.751 10.783,15.613 10.587 C 15.436 10.336,15.101 10.206,14.816 10.277 " stroke="none" fill-rule="evenodd" fill="black"></path></svg>