<svg width="24" height="24" viewBox="0 0 24 24" fill="none" xmlns="http://www.w3.org/2000/svg"><path d="M9.180 1.281 C 8.286 1.402,7.551 2.071,7.323 2.968 L 7.249 3.260 6.695 3.287 C 4.942 3.374,4.087 3.646,3.378 4.340 C 2.739 4.967,2.431 5.801,2.311 7.231 C 2.275 7.660,2.261 9.227,2.261 13.000 C 2.261 18.410,2.274 18.918,2.436 19.749 C 2.750 21.356,3.644 22.250,5.251 22.564 C 6.082 22.726,6.590 22.739,12.000 22.739 C 17.410 22.739,17.918 22.726,18.749 22.564 C 20.352 22.251,21.232 21.376,21.557 19.772 C 21.724 18.947,21.739 18.408,21.739 13.000 C 21.739 9.181,21.726 7.701,21.688 7.240 C 21.569 5.804,21.262 4.968,20.622 4.340 C 19.913 3.646,19.058 3.374,17.305 3.287 L 16.751 3.260 16.677 2.968 C 16.480 2.193,15.909 1.594,15.120 1.335 C 14.918 1.269,14.680 1.263,12.160 1.256 C 10.653 1.251,9.312 1.263,9.180 1.281 M14.840 2.834 C 14.916 2.875,15.032 2.976,15.099 3.058 L 15.220 3.207 15.220 4.000 L 15.220 4.793 15.099 4.942 C 14.843 5.258,15.032 5.240,12.000 5.240 C 8.968 5.240,9.157 5.258,8.901 4.942 L 8.780 4.793 8.780 4.000 L 8.780 3.207 8.901 3.058 C 9.157 2.742,8.968 2.760,12.000 2.760 C 14.555 2.760,14.709 2.764,14.840 2.834 M7.313 4.996 C 7.470 5.757,8.101 6.422,8.900 6.666 C 9.123 6.735,9.337 6.740,12.000 6.740 C 14.663 6.740,14.877 6.735,15.100 6.666 C 15.899 6.422,16.530 5.757,16.687 4.996 L 16.736 4.760 16.918 4.760 C 17.287 4.760,18.190 4.843,18.500 4.904 C 18.891 4.982,19.334 5.180,19.546 5.372 C 19.844 5.641,20.036 6.100,20.149 6.814 C 20.215 7.226,20.220 7.702,20.220 12.980 C 20.220 18.877,20.216 19.046,20.060 19.660 C 19.968 20.023,19.743 20.450,19.555 20.620 C 19.252 20.894,18.764 21.073,18.060 21.170 C 17.541 21.242,6.459 21.242,5.940 21.170 C 5.236 21.073,4.748 20.894,4.445 20.620 C 4.147 20.351,3.932 19.806,3.830 19.060 C 3.758 18.541,3.758 7.459,3.830 6.940 C 3.933 6.193,4.147 5.649,4.446 5.379 C 4.878 4.989,5.695 4.791,6.982 4.766 L 7.264 4.760 7.313 4.996 M6.720 9.805 C 6.458 9.909,6.269 10.200,6.269 10.500 C 6.269 10.727,6.339 10.889,6.506 11.047 C 6.675 11.207,6.803 11.240,7.253 11.239 C 7.823 11.238,8.034 11.135,8.178 10.790 C 8.287 10.530,8.232 10.193,8.048 9.986 C 7.903 9.822,7.685 9.762,7.240 9.763 C 7.009 9.764,6.775 9.783,6.720 9.805 M10.180 9.835 C 9.990 9.923,9.904 10.012,9.822 10.210 C 9.708 10.483,9.783 10.869,9.986 11.048 C 10.206 11.244,10.124 11.240,13.756 11.240 C 16.060 11.240,17.191 11.226,17.267 11.197 C 17.540 11.095,17.731 10.807,17.731 10.500 C 17.731 10.193,17.540 9.905,17.267 9.803 C 17.191 9.774,16.060 9.760,13.747 9.761 C 10.527 9.762,10.331 9.766,10.180 9.835 M6.826 13.282 C 6.473 13.370,6.267 13.637,6.267 14.003 C 6.267 14.281,6.387 14.496,6.627 14.645 C 6.765 14.731,6.825 14.740,7.240 14.740 C 7.741 14.740,7.845 14.708,8.047 14.494 C 8.181 14.353,8.240 14.201,8.240 14.000 C 8.240 13.716,8.085 13.468,7.820 13.330 C 7.676 13.255,7.052 13.225,6.826 13.282 M10.420 13.260 C 10.398 13.267,10.331 13.284,10.271 13.297 C 10.124 13.329,9.881 13.548,9.814 13.708 C 9.691 14.002,9.771 14.336,10.015 14.550 C 10.095 14.621,10.211 14.693,10.271 14.709 C 10.331 14.726,11.919 14.740,13.800 14.740 L 17.220 14.740 17.369 14.647 C 17.943 14.290,17.812 13.424,17.162 13.284 C 17.021 13.254,15.940 13.241,13.708 13.243 C 11.922 13.245,10.442 13.252,10.420 13.260 M6.720 16.805 C 6.458 16.909,6.269 17.200,6.269 17.500 C 6.269 17.727,6.339 17.889,6.506 18.047 C 6.675 18.207,6.803 18.240,7.253 18.239 C 7.823 18.238,8.034 18.135,8.178 17.790 C 8.287 17.530,8.232 17.193,8.048 16.986 C 7.903 16.822,7.685 16.762,7.240 16.763 C 7.009 16.764,6.775 16.783,6.720 16.805 M10.180 16.835 C 9.990 16.923,9.904 17.012,9.822 17.210 C 9.708 17.483,9.783 17.869,9.986 18.048 C 10.206 18.244,10.124 18.240,13.756 18.240 C 16.060 18.240,17.191 18.226,17.267 18.197 C 17.540 18.095,17.731 17.807,17.731 17.500 C 17.731 17.193,17.540 16.905,17.267 16.803 C 17.191 16.774,16.060 16.760,13.747 16.761 C 10.527 16.762,10.331 16.766,10.180 16.835 " stroke="none" fill-rule="evenodd" fill="black"></path></svg>