<svg width="24" height="24" viewBox="0 0 24 24" fill="none" xmlns="http://www.w3.org/2000/svg"><path d="M9.180 1.281 C 8.286 1.402,7.551 2.071,7.323 2.968 L 7.249 3.260 6.675 3.287 C 4.579 3.386,3.550 3.841,2.896 4.957 C 2.573 5.509,2.398 6.190,2.310 7.236 C 2.240 8.073,2.241 17.936,2.311 18.777 C 2.498 21.007,3.255 22.064,4.975 22.499 C 5.530 22.640,5.983 22.682,7.380 22.721 C 9.034 22.768,14.966 22.768,16.620 22.721 C 18.017 22.682,18.470 22.640,19.025 22.499 C 20.413 22.148,21.189 21.354,21.520 19.948 C 21.647 19.408,21.677 19.049,21.724 17.520 C 21.779 15.703,21.748 7.956,21.681 7.160 C 21.527 5.312,20.953 4.297,19.749 3.740 C 19.173 3.474,18.462 3.342,17.305 3.287 L 16.751 3.260 16.677 2.968 C 16.480 2.193,15.909 1.594,15.120 1.335 C 14.918 1.269,14.680 1.263,12.160 1.256 C 10.653 1.251,9.312 1.263,9.180 1.281 M14.840 2.834 C 14.916 2.875,15.032 2.976,15.099 3.058 L 15.220 3.207 15.220 4.000 L 15.220 4.793 15.099 4.942 C 14.843 5.258,15.032 5.240,12.000 5.240 C 8.968 5.240,9.157 5.258,8.901 4.942 L 8.780 4.793 8.780 4.000 L 8.780 3.207 8.901 3.058 C 9.157 2.742,8.968 2.760,12.000 2.760 C 14.555 2.760,14.709 2.764,14.840 2.834 M7.313 4.996 C 7.470 5.757,8.101 6.422,8.900 6.666 C 9.123 6.735,9.337 6.740,12.000 6.740 C 14.663 6.740,14.877 6.735,15.100 6.666 C 15.899 6.422,16.530 5.757,16.687 4.996 L 16.736 4.760 16.940 4.760 C 17.301 4.760,18.212 4.844,18.500 4.904 C 19.024 5.013,19.432 5.217,19.658 5.484 C 19.804 5.657,19.979 6.031,20.059 6.340 C 20.216 6.948,20.220 7.117,20.220 13.020 C 20.220 18.298,20.215 18.774,20.149 19.186 C 19.933 20.550,19.468 20.984,18.031 21.168 C 17.433 21.244,6.567 21.244,5.969 21.168 C 5.234 21.074,4.758 20.903,4.445 20.620 C 4.147 20.351,3.932 19.806,3.830 19.060 C 3.758 18.541,3.758 7.459,3.830 6.940 C 3.921 6.274,4.098 5.773,4.342 5.484 C 4.731 5.024,5.581 4.791,6.962 4.766 L 7.264 4.760 7.313 4.996 M9.340 10.277 C 9.162 10.320,9.065 10.381,8.927 10.538 C 8.719 10.776,8.705 11.159,8.896 11.433 C 8.952 11.514,9.430 12.011,9.958 12.539 L 10.918 13.497 9.899 14.523 C 9.258 15.169,8.858 15.602,8.820 15.693 C 8.664 16.068,8.815 16.479,9.179 16.669 C 9.339 16.753,9.669 16.748,9.841 16.661 C 9.917 16.622,10.434 16.138,10.990 15.587 L 12.000 14.583 13.010 15.587 C 13.566 16.138,14.083 16.622,14.159 16.661 C 14.331 16.748,14.661 16.753,14.821 16.669 C 15.185 16.479,15.336 16.068,15.180 15.693 C 15.141 15.601,14.744 15.170,14.102 14.524 L 13.084 13.500 14.102 12.476 C 14.743 11.831,15.142 11.398,15.180 11.307 C 15.336 10.932,15.185 10.521,14.821 10.331 C 14.661 10.247,14.331 10.252,14.159 10.339 C 14.083 10.378,13.566 10.862,13.010 11.413 L 12.000 12.417 10.990 11.413 C 10.434 10.862,9.926 10.383,9.860 10.350 C 9.702 10.272,9.488 10.242,9.340 10.277 " stroke="none" fill-rule="evenodd" fill="black"></path></svg>