<svg width="24" height="24" viewBox="0 0 24 24" fill="none" xmlns="http://www.w3.org/2000/svg"><path d="M11.310 1.283 C 6.653 1.563,2.667 4.904,1.564 9.450 C 1.162 11.110,1.162 12.890,1.564 14.550 C 2.415 18.060,5.032 20.948,8.442 22.139 C 10.725 22.937,13.275 22.937,15.558 22.139 C 18.633 21.065,21.092 18.592,22.157 15.503 C 22.819 13.585,22.918 11.437,22.436 9.450 C 21.419 5.255,17.924 2.044,13.657 1.383 C 13.303 1.328,12.042 1.231,11.880 1.246 C 11.847 1.249,11.590 1.266,11.310 1.283 M12.992 2.802 C 14.750 2.993,16.561 3.756,17.878 4.859 C 18.914 5.728,19.725 6.758,20.304 7.940 C 20.940 9.239,21.240 10.538,21.240 12.000 C 21.240 13.462,20.940 14.764,20.304 16.060 C 18.921 18.877,16.278 20.768,13.146 21.178 C 12.214 21.301,10.974 21.244,10.002 21.034 C 8.667 20.747,7.178 20.022,6.140 19.153 C 4.272 17.590,3.134 15.531,2.822 13.146 C 2.699 12.214,2.756 10.974,2.966 10.002 C 3.253 8.667,3.978 7.178,4.847 6.140 C 5.196 5.722,5.821 5.101,6.213 4.783 C 7.491 3.743,9.284 2.994,10.940 2.807 C 11.397 2.755,12.535 2.753,12.992 2.802 M11.807 7.289 C 11.574 7.339,11.348 7.565,11.286 7.811 C 11.223 8.062,11.222 11.868,11.284 12.168 C 11.328 12.376,11.352 12.403,12.674 13.735 C 13.563 14.629,14.074 15.114,14.180 15.164 C 14.448 15.289,14.798 15.241,15.014 15.048 C 15.130 14.946,15.238 14.680,15.238 14.500 C 15.238 14.196,15.131 14.063,13.924 12.860 L 12.760 11.701 12.759 9.860 C 12.758 8.741,12.742 7.950,12.717 7.841 C 12.620 7.420,12.247 7.194,11.807 7.289 " stroke="none" fill-rule="evenodd" fill="black"></path></svg>