<svg width="24" height="24" viewBox="0 0 24 24" fill="none" xmlns="http://www.w3.org/2000/svg"><path d="M7.660 7.019 C 7.638 7.027,7.572 7.044,7.513 7.056 C 7.374 7.087,7.174 7.257,7.092 7.415 C 7.014 7.565,7.006 7.940,7.078 8.080 C 7.106 8.135,7.986 9.040,9.034 10.090 L 10.939 12.000 9.034 13.910 C 7.986 14.960,7.106 15.865,7.078 15.920 C 7.007 16.058,7.014 16.435,7.090 16.580 C 7.161 16.717,7.294 16.846,7.440 16.922 C 7.568 16.988,7.951 16.988,8.080 16.922 C 8.135 16.894,9.040 16.014,10.090 14.966 L 12.000 13.061 13.910 14.966 C 14.960 16.014,15.865 16.894,15.920 16.922 C 16.058 16.993,16.435 16.986,16.580 16.910 C 16.717 16.839,16.846 16.706,16.922 16.560 C 16.988 16.432,16.988 16.049,16.922 15.920 C 16.894 15.865,16.014 14.961,14.966 13.910 L 13.061 12.000 14.966 10.090 C 16.014 9.040,16.894 8.135,16.922 8.080 C 16.988 7.951,16.988 7.568,16.922 7.440 C 16.846 7.294,16.717 7.161,16.580 7.090 C 16.435 7.014,16.058 7.007,15.920 7.078 C 15.865 7.106,14.960 7.986,13.910 9.034 L 12.000 10.939 10.090 9.034 C 9.040 7.986,8.144 7.111,8.100 7.089 C 8.009 7.044,7.720 6.997,7.660 7.019 " stroke="none" fill-rule="evenodd" fill="black"></path></svg>