<svg width="24" height="24" viewBox="0 0 24 24" fill="none" xmlns="http://www.w3.org/2000/svg"><path d="M7.400 1.283 C 4.821 1.356,3.626 1.697,2.669 2.635 C 2.093 3.198,1.720 3.933,1.518 4.900 C 1.294 5.970,1.242 7.220,1.242 11.500 C 1.242 15.660,1.284 16.781,1.481 17.904 C 1.777 19.594,2.650 20.719,4.080 21.256 L 4.260 21.323 4.260 21.772 C 4.260 22.171,4.270 22.236,4.353 22.369 C 4.710 22.943,5.576 22.812,5.716 22.162 C 5.740 22.049,5.760 21.882,5.760 21.792 L 5.760 21.628 6.070 21.656 C 7.592 21.791,16.405 21.791,17.924 21.656 L 18.228 21.629 18.251 21.935 C 18.285 22.392,18.464 22.631,18.833 22.714 C 19.254 22.808,19.633 22.561,19.721 22.135 C 19.748 22.007,19.761 21.773,19.751 21.614 L 19.732 21.326 19.916 21.257 C 21.078 20.822,21.904 19.963,22.302 18.779 C 22.673 17.673,22.754 16.450,22.758 11.920 C 22.763 6.736,22.680 5.349,22.302 4.221 C 21.886 2.984,21.016 2.114,19.779 1.698 C 19.005 1.439,18.137 1.331,16.400 1.280 C 14.906 1.237,8.973 1.238,7.400 1.283 M11.240 5.000 L 11.240 7.240 7.001 7.240 L 2.761 7.240 2.782 6.930 C 2.864 5.747,2.929 5.293,3.088 4.800 C 3.464 3.629,4.210 3.094,5.760 2.882 C 6.401 2.794,7.063 2.772,9.150 2.766 L 11.240 2.760 11.240 5.000 M17.340 2.801 C 18.245 2.860,18.701 2.931,19.200 3.089 C 20.137 3.386,20.657 3.927,20.939 4.901 C 21.201 5.806,21.240 6.558,21.240 10.769 L 21.240 14.240 17.000 14.240 L 12.760 14.240 12.760 8.500 L 12.760 2.760 14.750 2.761 C 15.845 2.761,17.010 2.779,17.340 2.801 M14.815 7.277 C 14.638 7.321,14.461 7.456,14.353 7.631 C 14.261 7.778,14.260 7.793,14.260 9.000 C 14.260 10.207,14.261 10.222,14.353 10.369 C 14.710 10.943,15.576 10.812,15.716 10.162 C 15.772 9.901,15.773 8.083,15.717 7.841 C 15.623 7.432,15.215 7.177,14.815 7.277 M11.240 11.500 L 11.240 14.240 7.000 14.240 L 2.760 14.240 2.760 11.500 L 2.760 8.760 7.000 8.760 L 11.240 8.760 11.240 11.500 M11.240 18.004 L 11.240 20.248 8.870 20.229 C 6.541 20.210,6.050 20.186,5.380 20.058 C 4.340 19.859,3.674 19.439,3.327 18.766 C 2.990 18.109,2.888 17.608,2.782 16.070 L 2.761 15.760 7.001 15.760 L 11.240 15.760 11.240 18.004 M21.223 15.990 C 21.211 16.117,21.191 16.391,21.178 16.600 C 21.074 18.274,20.619 19.247,19.730 19.695 C 18.856 20.135,17.893 20.240,14.731 20.240 L 12.760 20.240 12.760 18.000 L 12.760 15.760 17.002 15.760 L 21.244 15.760 21.223 15.990 M6.815 17.278 C 6.331 17.393,6.098 18.004,6.383 18.408 C 6.605 18.722,6.676 18.738,7.869 18.753 C 9.122 18.768,9.296 18.744,9.519 18.521 C 9.918 18.122,9.731 17.423,9.189 17.286 C 8.983 17.235,7.025 17.228,6.815 17.278 M14.815 17.278 C 14.331 17.393,14.098 18.004,14.383 18.408 C 14.605 18.722,14.676 18.738,15.869 18.753 C 17.122 18.768,17.296 18.744,17.519 18.521 C 17.918 18.122,17.731 17.423,17.189 17.286 C 16.983 17.235,15.025 17.228,14.815 17.278 " stroke="none" fill-rule="evenodd" fill="black"></path></svg>