<svg width="24" height="24" viewBox="0 0 24 24" fill="none" xmlns="http://www.w3.org/2000/svg"><path d="M7.400 1.283 C 4.821 1.356,3.626 1.697,2.669 2.635 C 1.935 3.353,1.558 4.273,1.379 5.787 C 1.207 7.243,1.193 14.518,1.360 16.060 C 1.531 17.644,1.894 18.574,2.635 19.331 C 3.012 19.717,3.535 20.051,4.080 20.256 L 4.260 20.323 4.260 21.272 C 4.260 22.194,4.263 22.224,4.353 22.369 C 4.710 22.943,5.576 22.812,5.716 22.162 C 5.740 22.049,5.760 21.657,5.760 21.292 L 5.760 20.628 6.070 20.656 C 7.594 20.791,16.405 20.791,17.926 20.656 L 18.233 20.629 18.246 21.424 C 18.259 22.175,18.265 22.229,18.353 22.369 C 18.613 22.788,19.179 22.861,19.521 22.519 C 19.735 22.305,19.769 22.102,19.753 21.121 L 19.740 20.323 19.920 20.256 C 21.077 19.822,21.905 18.962,22.302 17.779 C 22.662 16.706,22.758 15.280,22.758 11.000 C 22.758 6.720,22.662 5.294,22.302 4.221 C 21.886 2.984,21.016 2.114,19.779 1.698 C 19.005 1.439,18.137 1.331,16.400 1.280 C 14.906 1.237,8.973 1.238,7.400 1.283 M11.240 11.004 L 11.240 19.248 8.870 19.229 C 7.504 19.218,6.331 19.191,6.100 19.164 C 3.805 18.904,3.077 18.163,2.833 15.840 C 2.757 15.120,2.757 6.880,2.833 6.160 C 3.090 3.704,3.897 2.982,6.580 2.804 C 6.844 2.786,8.000 2.769,9.150 2.766 L 11.240 2.760 11.240 11.004 M17.340 2.801 C 18.245 2.860,18.701 2.931,19.200 3.089 C 20.137 3.386,20.657 3.927,20.939 4.901 C 21.204 5.816,21.240 6.540,21.240 11.000 C 21.240 15.452,21.204 16.185,20.941 17.093 C 20.647 18.109,20.111 18.646,19.099 18.939 C 18.279 19.177,17.360 19.240,14.731 19.240 L 12.760 19.240 12.760 11.000 L 12.760 2.760 14.750 2.761 C 15.845 2.761,17.010 2.779,17.340 2.801 M8.815 8.277 C 8.638 8.321,8.461 8.456,8.353 8.631 L 8.260 8.780 8.260 11.000 L 8.260 13.220 8.353 13.369 C 8.710 13.943,9.576 13.812,9.716 13.162 C 9.774 12.891,9.775 9.093,9.717 8.841 C 9.623 8.432,9.215 8.177,8.815 8.277 M14.815 8.277 C 14.638 8.321,14.461 8.456,14.353 8.631 L 14.260 8.780 14.260 11.000 L 14.260 13.220 14.353 13.369 C 14.710 13.943,15.576 13.812,15.716 13.162 C 15.774 12.891,15.775 9.093,15.717 8.841 C 15.623 8.432,15.215 8.177,14.815 8.277 " stroke="none" fill-rule="evenodd" fill="black"></path></svg>