<svg width="24" height="24" viewBox="0 0 24 24" fill="none" xmlns="http://www.w3.org/2000/svg"><path d="M11.320 1.281 C 7.041 1.525,3.252 4.409,1.843 8.497 C 1.180 10.418,1.082 12.560,1.564 14.550 C 2.505 18.428,5.572 21.495,9.450 22.436 C 11.106 22.837,12.894 22.837,14.550 22.436 C 18.428 21.495,21.495 18.428,22.436 14.550 C 22.837 12.894,22.837 11.106,22.436 9.450 C 21.425 5.282,17.985 2.095,13.742 1.398 C 13.334 1.331,12.074 1.229,11.880 1.247 C 11.847 1.250,11.595 1.265,11.320 1.281 M13.146 2.822 C 14.201 2.960,15.125 3.237,16.060 3.696 C 18.877 5.079,20.768 7.722,21.178 10.854 C 21.301 11.786,21.244 13.026,21.034 13.998 C 20.745 15.343,20.003 16.855,19.121 17.900 C 18.247 18.935,17.240 19.726,16.060 20.304 C 14.761 20.940,13.462 21.240,12.000 21.240 C 10.538 21.240,9.236 20.940,7.940 20.304 C 5.123 18.921,3.232 16.278,2.822 13.146 C 2.699 12.214,2.756 10.974,2.966 10.002 C 3.177 9.020,3.703 7.775,4.268 6.920 C 5.750 4.677,8.131 3.188,10.820 2.823 C 11.380 2.746,12.569 2.746,13.146 2.822 M9.180 8.835 C 8.990 8.923,8.904 9.012,8.822 9.210 C 8.743 9.397,8.743 9.602,8.821 9.791 C 8.862 9.889,9.234 10.292,9.911 10.970 L 10.939 12.000 9.911 13.030 C 8.850 14.093,8.759 14.210,8.761 14.509 C 8.762 14.682,8.873 14.948,8.986 15.048 C 9.102 15.151,9.340 15.240,9.500 15.240 C 9.790 15.240,9.914 15.143,10.970 14.089 L 12.000 13.061 13.030 14.089 C 14.093 15.150,14.210 15.241,14.509 15.239 C 14.682 15.238,14.948 15.127,15.048 15.014 C 15.151 14.898,15.240 14.660,15.240 14.500 C 15.240 14.210,15.143 14.086,14.089 13.030 L 13.061 12.000 14.089 10.970 C 15.143 9.914,15.240 9.790,15.240 9.500 C 15.240 9.340,15.151 9.102,15.048 8.986 C 14.948 8.873,14.682 8.762,14.509 8.761 C 14.210 8.759,14.093 8.850,13.030 9.911 L 12.000 10.939 10.970 9.911 C 10.292 9.234,9.889 8.862,9.791 8.821 C 9.595 8.740,9.376 8.745,9.180 8.835 " stroke="none" fill-rule="evenodd" fill="black"></path></svg>