<svg width="24" height="24" viewBox="0 0 24 24" fill="none" xmlns="http://www.w3.org/2000/svg"><path d="M12.160 2.266 C 11.734 2.289,11.230 2.369,10.807 2.481 C 8.312 3.139,6.473 5.193,6.081 7.760 C 6.024 8.129,6.023 9.174,6.079 9.500 C 6.101 9.632,6.120 9.754,6.120 9.770 C 6.120 9.787,6.044 9.800,5.950 9.800 C 5.677 9.800,5.089 9.916,4.700 10.045 C 2.786 10.683,1.456 12.353,1.284 14.335 C 1.037 17.183,3.263 19.662,6.128 19.730 C 6.499 19.739,6.520 19.735,6.685 19.619 C 6.922 19.453,7.019 19.273,7.019 19.000 C 7.019 18.731,6.922 18.547,6.697 18.389 C 6.557 18.291,6.483 18.273,6.095 18.241 C 5.582 18.200,5.286 18.130,4.874 17.955 C 3.792 17.494,2.998 16.496,2.797 15.340 C 2.717 14.879,2.768 14.174,2.915 13.720 C 3.273 12.613,4.151 11.766,5.308 11.413 C 5.625 11.317,5.721 11.306,6.280 11.306 C 6.841 11.306,6.934 11.316,7.260 11.415 C 7.458 11.475,7.809 11.625,8.039 11.748 C 8.383 11.931,8.495 11.972,8.661 11.974 C 9.312 11.984,9.652 11.177,9.190 10.719 C 9.032 10.563,8.511 10.281,8.086 10.121 L 7.700 9.976 7.627 9.698 C 7.530 9.330,7.494 8.438,7.557 7.995 C 7.696 7.027,8.070 6.207,8.710 5.468 C 9.470 4.589,10.535 3.998,11.679 3.816 C 12.228 3.729,13.070 3.755,13.588 3.875 C 14.257 4.029,14.946 4.347,15.464 4.743 C 15.818 5.013,16.371 5.583,16.586 5.900 C 16.739 6.125,17.040 6.690,17.122 6.904 L 17.158 6.999 16.569 6.975 C 15.699 6.939,14.574 7.114,14.047 7.367 C 13.566 7.598,13.508 8.293,13.942 8.624 C 14.074 8.725,14.128 8.740,14.357 8.740 C 14.519 8.739,14.770 8.697,15.013 8.630 C 15.782 8.416,16.649 8.405,17.460 8.598 C 19.123 8.993,20.474 10.231,21.016 11.858 C 21.306 12.727,21.314 13.898,21.037 14.798 C 20.633 16.109,19.557 17.299,18.285 17.841 C 18.134 17.905,17.814 18.014,17.575 18.083 C 17.065 18.231,16.957 18.298,16.839 18.543 C 16.598 19.041,16.943 19.600,17.492 19.600 C 17.858 19.600,18.785 19.288,19.360 18.970 C 20.722 18.218,21.707 17.119,22.293 15.700 C 22.725 14.652,22.852 13.225,22.616 12.060 C 22.242 10.207,20.969 8.555,19.231 7.665 L 18.830 7.459 18.732 7.080 C 18.206 5.039,16.651 3.338,14.676 2.644 C 13.876 2.363,12.953 2.224,12.160 2.266 M11.823 14.285 C 11.615 14.334,11.429 14.480,11.336 14.668 C 11.268 14.803,11.258 14.948,11.240 15.987 L 11.220 17.153 10.980 17.012 C 10.848 16.934,10.399 16.674,9.982 16.435 C 9.296 16.041,9.205 16.000,9.025 16.000 C 8.643 16.000,8.362 16.222,8.276 16.592 C 8.230 16.792,8.324 17.111,8.469 17.247 C 8.530 17.305,9.010 17.600,9.535 17.903 C 10.361 18.379,10.481 18.460,10.423 18.503 C 10.386 18.530,9.966 18.775,9.490 19.046 C 8.511 19.605,8.353 19.734,8.282 20.033 C 8.157 20.553,8.541 20.960,9.125 20.926 C 9.182 20.923,9.682 20.660,10.235 20.343 L 11.240 19.766 11.241 20.873 C 11.242 21.488,11.260 22.060,11.283 22.159 C 11.368 22.525,11.639 22.732,12.030 22.728 C 12.290 22.726,12.501 22.604,12.645 22.373 C 12.739 22.222,12.740 22.204,12.753 20.994 L 12.765 19.768 13.760 20.339 C 14.307 20.653,14.812 20.919,14.883 20.929 C 15.491 21.018,15.935 20.387,15.655 19.832 C 15.576 19.677,15.441 19.585,14.460 19.020 C 13.976 18.741,13.565 18.499,13.548 18.482 C 13.530 18.465,13.944 18.204,14.468 17.901 C 14.991 17.599,15.462 17.313,15.514 17.266 C 15.758 17.042,15.808 16.658,15.633 16.358 C 15.494 16.121,15.277 16.000,14.993 16.000 C 14.788 16.000,14.726 16.029,13.779 16.575 L 12.780 17.150 12.760 15.965 C 12.740 14.804,12.738 14.777,12.645 14.627 C 12.468 14.343,12.147 14.209,11.823 14.285 " stroke="none" fill-rule="evenodd" fill="black"></path></svg>