<svg width="24" height="24" viewBox="0 0 24 24" fill="none" xmlns="http://www.w3.org/2000/svg"><path d="M12.160 2.266 C 11.734 2.289,11.230 2.369,10.807 2.481 C 8.312 3.139,6.473 5.193,6.081 7.760 C 6.024 8.129,6.023 9.174,6.079 9.500 C 6.101 9.632,6.120 9.754,6.120 9.770 C 6.120 9.787,6.044 9.800,5.950 9.800 C 5.474 9.800,4.610 10.032,4.040 10.313 C 2.611 11.017,1.576 12.415,1.317 13.994 C 1.252 14.385,1.262 15.204,1.336 15.620 C 1.471 16.375,1.750 17.033,2.202 17.662 C 2.482 18.051,2.975 18.547,3.205 18.670 C 3.647 18.907,4.215 18.625,4.270 18.142 C 4.309 17.794,4.264 17.699,3.873 17.305 C 3.459 16.888,3.248 16.596,3.063 16.186 C 2.818 15.643,2.780 15.446,2.783 14.740 C 2.785 14.132,2.792 14.081,2.912 13.720 C 3.283 12.603,4.153 11.766,5.308 11.413 C 5.625 11.317,5.721 11.306,6.280 11.306 C 6.841 11.306,6.934 11.316,7.260 11.415 C 7.458 11.475,7.809 11.625,8.039 11.748 C 8.383 11.931,8.495 11.972,8.661 11.974 C 9.312 11.984,9.652 11.177,9.190 10.719 C 9.032 10.563,8.511 10.281,8.086 10.121 L 7.700 9.976 7.627 9.698 C 7.530 9.330,7.494 8.438,7.557 7.995 C 7.696 7.027,8.070 6.207,8.710 5.468 C 9.470 4.589,10.535 3.998,11.679 3.816 C 12.228 3.729,13.070 3.755,13.588 3.875 C 14.257 4.029,14.946 4.347,15.464 4.743 C 15.818 5.013,16.371 5.583,16.586 5.900 C 16.739 6.125,17.040 6.690,17.122 6.904 L 17.158 6.999 16.569 6.975 C 15.699 6.939,14.574 7.114,14.047 7.367 C 13.566 7.598,13.508 8.293,13.942 8.624 C 14.074 8.725,14.128 8.740,14.357 8.740 C 14.519 8.739,14.770 8.697,15.013 8.630 C 15.975 8.363,17.099 8.417,18.054 8.776 C 19.691 9.392,20.907 10.861,21.185 12.558 C 21.277 13.117,21.242 14.012,21.108 14.523 C 20.980 15.013,20.804 15.434,20.558 15.839 C 20.195 16.438,19.867 16.791,19.154 17.351 C 18.870 17.575,18.760 17.762,18.760 18.022 C 18.760 18.181,18.849 18.419,18.952 18.534 C 19.134 18.739,19.568 18.820,19.812 18.694 C 20.172 18.508,20.829 17.944,21.192 17.509 C 22.115 16.406,22.615 15.201,22.719 13.834 C 22.845 12.170,22.354 10.624,21.277 9.298 C 20.753 8.653,20.024 8.071,19.231 7.665 L 18.830 7.459 18.732 7.080 C 18.206 5.039,16.651 3.338,14.676 2.644 C 13.876 2.363,12.953 2.224,12.160 2.266 M11.180 14.837 C 10.959 14.940,8.905 17.006,8.821 17.209 C 8.743 17.398,8.743 17.603,8.822 17.790 C 8.904 17.988,8.990 18.077,9.180 18.165 C 9.385 18.259,9.617 18.258,9.820 18.163 C 10.041 18.060,12.095 15.994,12.179 15.791 C 12.292 15.516,12.217 15.131,12.014 14.952 C 11.798 14.759,11.448 14.711,11.180 14.837 M15.680 14.824 C 15.507 14.898,13.438 16.962,13.339 17.159 C 13.252 17.332,13.248 17.662,13.331 17.821 C 13.521 18.186,13.932 18.336,14.310 18.178 C 14.490 18.103,16.557 16.048,16.662 15.841 C 16.748 15.668,16.752 15.338,16.669 15.179 C 16.588 15.024,16.409 14.856,16.267 14.803 C 16.109 14.743,15.845 14.752,15.680 14.824 M7.329 18.279 C 7.257 18.296,7.131 18.357,7.048 18.414 C 6.776 18.603,4.887 20.534,4.821 20.691 C 4.664 21.068,4.814 21.479,5.179 21.669 C 5.338 21.752,5.668 21.748,5.841 21.662 C 6.048 21.557,8.103 19.490,8.178 19.310 C 8.373 18.843,8.096 18.344,7.600 18.270 C 7.523 18.258,7.401 18.262,7.329 18.279 M16.900 18.259 C 16.878 18.267,16.806 18.285,16.740 18.300 C 16.653 18.319,16.315 18.630,15.528 19.413 C 14.927 20.011,14.397 20.561,14.351 20.636 C 14.218 20.848,14.233 21.195,14.383 21.408 C 14.447 21.499,14.568 21.608,14.651 21.651 C 14.838 21.747,15.139 21.753,15.327 21.664 C 15.403 21.627,15.962 21.099,16.568 20.489 C 17.607 19.444,17.673 19.369,17.711 19.189 C 17.782 18.848,17.658 18.530,17.389 18.367 C 17.265 18.292,16.983 18.229,16.900 18.259 M11.900 19.259 C 11.878 19.267,11.806 19.285,11.740 19.300 C 11.653 19.319,11.315 19.630,10.528 20.413 C 9.927 21.011,9.397 21.561,9.351 21.636 C 9.218 21.848,9.233 22.195,9.383 22.408 C 9.447 22.499,9.568 22.608,9.651 22.651 C 9.838 22.747,10.139 22.753,10.327 22.664 C 10.403 22.627,10.962 22.099,11.568 21.489 C 12.607 20.444,12.673 20.369,12.711 20.189 C 12.782 19.848,12.658 19.530,12.389 19.367 C 12.265 19.292,11.983 19.229,11.900 19.259 " stroke="none" fill-rule="evenodd" fill="black"></path></svg>