<svg width="24" height="24" viewBox="0 0 24 24" fill="none" xmlns="http://www.w3.org/2000/svg"><path d="M12.160 2.266 C 11.734 2.289,11.230 2.369,10.807 2.481 C 8.312 3.139,6.473 5.193,6.081 7.760 C 6.024 8.129,6.023 9.174,6.079 9.500 C 6.101 9.632,6.120 9.754,6.120 9.770 C 6.120 9.787,6.044 9.800,5.950 9.800 C 5.474 9.800,4.610 10.032,4.040 10.313 C 2.611 11.017,1.576 12.415,1.317 13.994 C 1.252 14.385,1.262 15.204,1.336 15.620 C 1.471 16.375,1.750 17.033,2.202 17.662 C 2.482 18.051,2.975 18.547,3.205 18.670 C 3.647 18.907,4.215 18.625,4.270 18.142 C 4.309 17.794,4.264 17.699,3.873 17.305 C 3.459 16.888,3.248 16.596,3.063 16.186 C 2.818 15.643,2.780 15.446,2.783 14.740 C 2.785 14.132,2.792 14.081,2.912 13.720 C 3.283 12.603,4.153 11.766,5.308 11.413 C 5.625 11.317,5.721 11.306,6.280 11.306 C 6.841 11.306,6.934 11.316,7.260 11.415 C 7.458 11.475,7.809 11.625,8.039 11.748 C 8.383 11.931,8.495 11.972,8.661 11.974 C 9.312 11.984,9.652 11.177,9.190 10.719 C 9.032 10.563,8.511 10.281,8.086 10.121 L 7.700 9.976 7.627 9.698 C 7.530 9.330,7.494 8.438,7.557 7.995 C 7.696 7.027,8.070 6.207,8.710 5.468 C 9.470 4.589,10.535 3.998,11.679 3.816 C 12.228 3.729,13.070 3.755,13.588 3.875 C 14.257 4.029,14.946 4.347,15.464 4.743 C 15.818 5.013,16.371 5.583,16.586 5.900 C 16.739 6.125,17.040 6.690,17.122 6.904 L 17.158 6.999 16.569 6.975 C 15.699 6.939,14.574 7.114,14.047 7.367 C 13.566 7.598,13.508 8.293,13.942 8.624 C 14.074 8.725,14.128 8.740,14.357 8.740 C 14.519 8.739,14.770 8.697,15.013 8.630 C 15.975 8.363,17.099 8.417,18.054 8.776 C 19.691 9.392,20.907 10.861,21.185 12.558 C 21.277 13.117,21.242 14.012,21.108 14.523 C 20.980 15.013,20.804 15.434,20.558 15.839 C 20.195 16.438,19.867 16.791,19.154 17.351 C 18.870 17.575,18.760 17.762,18.760 18.022 C 18.760 18.181,18.849 18.419,18.952 18.534 C 19.134 18.739,19.568 18.820,19.812 18.694 C 20.172 18.508,20.829 17.944,21.192 17.509 C 22.115 16.406,22.615 15.201,22.719 13.834 C 22.845 12.170,22.354 10.624,21.277 9.298 C 20.753 8.653,20.024 8.071,19.231 7.665 L 18.830 7.459 18.732 7.080 C 18.206 5.039,16.651 3.338,14.676 2.644 C 13.876 2.363,12.953 2.224,12.160 2.266 M10.091 14.278 C 9.919 14.320,10.006 14.249,7.580 16.340 C 6.217 17.515,5.426 18.224,5.364 18.327 C 5.194 18.610,5.248 19.009,5.486 19.225 C 5.697 19.416,5.718 19.419,7.015 19.440 L 8.249 19.460 7.295 20.280 C 5.669 21.678,5.403 21.918,5.335 22.050 C 5.175 22.358,5.292 22.797,5.586 22.998 C 5.777 23.129,6.124 23.155,6.320 23.052 C 6.479 22.968,10.746 19.301,10.875 19.137 C 11.138 18.803,11.048 18.296,10.688 18.072 C 10.544 17.982,10.508 17.979,9.280 17.960 L 8.021 17.940 9.451 16.707 C 10.250 16.018,10.911 15.418,10.949 15.347 C 11.051 15.154,11.040 14.814,10.924 14.627 C 10.752 14.348,10.403 14.202,10.091 14.278 M14.680 14.824 C 14.507 14.898,12.438 16.962,12.339 17.159 C 12.252 17.332,12.248 17.662,12.331 17.821 C 12.521 18.186,12.932 18.336,13.310 18.178 C 13.490 18.103,15.557 16.048,15.662 15.841 C 15.748 15.668,15.752 15.338,15.669 15.179 C 15.588 15.024,15.409 14.856,15.267 14.803 C 15.109 14.743,14.845 14.752,14.680 14.824 M16.900 18.259 C 16.878 18.267,16.806 18.285,16.740 18.300 C 16.653 18.319,16.315 18.630,15.528 19.413 C 14.927 20.011,14.397 20.561,14.351 20.636 C 14.218 20.848,14.233 21.195,14.383 21.408 C 14.447 21.499,14.568 21.608,14.651 21.651 C 14.838 21.747,15.139 21.753,15.327 21.664 C 15.403 21.627,15.962 21.099,16.568 20.489 C 17.607 19.444,17.673 19.369,17.711 19.189 C 17.782 18.848,17.658 18.530,17.389 18.367 C 17.265 18.292,16.983 18.229,16.900 18.259 M12.900 19.259 C 12.878 19.267,12.806 19.285,12.740 19.300 C 12.653 19.319,12.315 19.630,11.528 20.413 C 10.927 21.011,10.397 21.561,10.351 21.636 C 10.218 21.848,10.233 22.195,10.383 22.408 C 10.447 22.499,10.568 22.608,10.651 22.651 C 10.838 22.747,11.139 22.753,11.327 22.664 C 11.403 22.627,11.962 22.099,12.568 21.489 C 13.607 20.444,13.673 20.369,13.711 20.189 C 13.782 19.848,13.658 19.530,13.389 19.367 C 13.265 19.292,12.983 19.229,12.900 19.259 " stroke="none" fill-rule="evenodd" fill="black"></path></svg>