<svg width="24" height="24" viewBox="0 0 24 24" fill="none" xmlns="http://www.w3.org/2000/svg"><path d="M12.160 1.266 C 11.734 1.289,11.230 1.369,10.807 1.481 C 8.312 2.139,6.473 4.193,6.081 6.760 C 6.024 7.129,6.023 8.174,6.079 8.500 C 6.101 8.632,6.120 8.754,6.120 8.770 C 6.120 8.787,6.044 8.800,5.950 8.800 C 5.677 8.800,5.089 8.916,4.700 9.045 C 2.786 9.683,1.456 11.353,1.284 13.335 C 1.037 16.183,3.263 18.662,6.128 18.730 C 6.499 18.739,6.520 18.735,6.685 18.619 C 6.922 18.453,7.019 18.273,7.019 18.000 C 7.019 17.731,6.922 17.547,6.697 17.389 C 6.557 17.291,6.483 17.273,6.095 17.241 C 5.582 17.200,5.286 17.130,4.874 16.955 C 3.792 16.494,2.998 15.496,2.797 14.340 C 2.717 13.879,2.768 13.174,2.915 12.720 C 3.273 11.613,4.151 10.766,5.308 10.413 C 5.625 10.317,5.721 10.306,6.280 10.306 C 6.841 10.306,6.934 10.316,7.260 10.415 C 7.458 10.475,7.809 10.625,8.039 10.748 C 8.383 10.931,8.495 10.972,8.661 10.974 C 9.312 10.984,9.652 10.177,9.190 9.719 C 9.032 9.563,8.511 9.281,8.086 9.121 L 7.700 8.976 7.627 8.698 C 7.530 8.330,7.494 7.438,7.557 6.995 C 7.696 6.027,8.070 5.207,8.710 4.468 C 9.470 3.589,10.535 2.998,11.679 2.816 C 12.228 2.729,13.070 2.755,13.588 2.875 C 14.257 3.029,14.946 3.347,15.464 3.743 C 15.818 4.013,16.371 4.583,16.586 4.900 C 16.739 5.125,17.040 5.690,17.122 5.904 L 17.158 5.999 16.569 5.975 C 15.699 5.939,14.574 6.114,14.047 6.367 C 13.566 6.598,13.508 7.293,13.942 7.624 C 14.074 7.725,14.128 7.740,14.357 7.740 C 14.519 7.739,14.770 7.697,15.013 7.630 C 15.975 7.363,17.099 7.417,18.054 7.776 C 19.439 8.298,20.546 9.446,21.013 10.847 C 21.145 11.244,21.194 11.514,21.238 12.086 C 21.264 12.424,21.297 12.597,21.357 12.714 C 21.535 13.064,22.026 13.190,22.386 12.978 C 22.697 12.796,22.769 12.552,22.717 11.865 C 22.650 10.977,22.437 10.210,22.057 9.488 C 21.388 8.216,20.469 7.299,19.231 6.665 L 18.830 6.459 18.732 6.080 C 18.206 4.039,16.651 2.338,14.676 1.644 C 13.876 1.363,12.953 1.224,12.160 1.266 M15.343 11.285 C 13.920 11.423,12.612 12.250,11.927 13.444 C 11.535 14.129,11.360 14.781,11.360 15.556 L 11.360 16.000 11.244 16.000 C 11.074 16.000,10.466 16.185,10.196 16.319 C 8.906 16.959,8.139 18.296,8.280 19.660 C 8.326 20.105,8.386 20.327,8.564 20.714 C 9.092 21.857,10.148 22.598,11.423 22.718 C 12.002 22.773,18.064 22.773,18.692 22.718 C 20.275 22.579,21.623 21.676,22.299 20.300 C 22.557 19.775,22.664 19.402,22.716 18.850 C 22.787 18.088,22.659 17.356,22.340 16.697 C 21.945 15.878,21.245 15.150,20.455 14.734 L 20.162 14.580 20.078 14.303 C 19.684 13.009,18.602 11.931,17.248 11.482 C 16.697 11.299,15.970 11.224,15.343 11.285 M16.660 12.857 C 17.224 13.014,17.819 13.414,18.209 13.899 C 18.314 14.030,18.400 14.150,18.400 14.168 C 18.400 14.186,18.297 14.200,18.170 14.201 C 17.890 14.202,17.469 14.260,17.120 14.346 C 16.565 14.483,16.352 14.684,16.329 15.095 C 16.313 15.387,16.387 15.556,16.607 15.732 C 16.813 15.896,17.030 15.913,17.468 15.797 C 17.740 15.725,17.924 15.704,18.280 15.705 C 18.852 15.706,19.175 15.780,19.680 16.029 C 19.997 16.186,20.120 16.276,20.424 16.578 C 20.724 16.876,20.818 17.001,20.954 17.280 C 21.169 17.724,21.240 18.015,21.240 18.462 C 21.240 19.194,20.993 19.799,20.481 20.322 C 20.023 20.791,19.554 21.055,18.957 21.181 C 18.535 21.269,11.569 21.269,11.228 21.180 C 10.676 21.037,10.181 20.636,9.931 20.131 C 9.800 19.864,9.781 19.789,9.767 19.461 C 9.741 18.861,9.894 18.471,10.324 18.046 C 10.689 17.684,11.274 17.441,11.780 17.441 C 12.068 17.441,12.488 17.556,12.816 17.723 C 13.111 17.874,13.160 17.887,13.384 17.872 C 13.688 17.853,13.891 17.715,14.010 17.448 C 14.140 17.152,14.051 16.773,13.801 16.570 C 13.708 16.494,13.039 16.160,12.980 16.160 C 12.902 16.160,12.876 16.055,12.853 15.660 C 12.776 14.333,13.737 13.139,15.140 12.817 C 15.461 12.743,16.335 12.766,16.660 12.857 " stroke="none" fill-rule="evenodd" fill="black"></path></svg>