<svg width="24" height="24" viewBox="0 0 24 24" fill="none" xmlns="http://www.w3.org/2000/svg"><path d="M12.160 2.266 C 11.734 2.289,11.230 2.369,10.807 2.481 C 8.312 3.139,6.473 5.193,6.081 7.760 C 6.024 8.129,6.023 9.174,6.079 9.500 C 6.101 9.632,6.120 9.754,6.120 9.770 C 6.120 9.787,6.044 9.800,5.950 9.800 C 5.677 9.800,5.089 9.916,4.700 10.045 C 2.786 10.683,1.456 12.353,1.284 14.335 C 1.037 17.183,3.263 19.662,6.128 19.730 C 6.499 19.739,6.520 19.735,6.685 19.619 C 6.922 19.453,7.019 19.273,7.019 19.000 C 7.019 18.731,6.922 18.547,6.697 18.389 C 6.557 18.291,6.483 18.273,6.095 18.241 C 5.582 18.200,5.286 18.130,4.874 17.955 C 3.792 17.494,2.998 16.496,2.797 15.340 C 2.717 14.879,2.768 14.174,2.915 13.720 C 3.273 12.613,4.151 11.766,5.308 11.413 C 5.625 11.317,5.721 11.306,6.280 11.306 C 6.841 11.306,6.934 11.316,7.260 11.415 C 7.458 11.475,7.809 11.625,8.039 11.748 C 8.383 11.931,8.495 11.972,8.661 11.974 C 9.312 11.984,9.652 11.177,9.190 10.719 C 9.032 10.563,8.511 10.281,8.086 10.121 L 7.700 9.976 7.627 9.698 C 7.530 9.330,7.494 8.438,7.557 7.995 C 7.696 7.027,8.070 6.207,8.710 5.468 C 9.470 4.589,10.535 3.998,11.679 3.816 C 12.228 3.729,13.070 3.755,13.588 3.875 C 14.257 4.029,14.946 4.347,15.464 4.743 C 15.818 5.013,16.371 5.583,16.586 5.900 C 16.739 6.125,17.040 6.690,17.122 6.904 L 17.158 6.999 16.569 6.975 C 15.699 6.939,14.574 7.114,14.047 7.367 C 13.566 7.598,13.508 8.293,13.942 8.624 C 14.074 8.725,14.128 8.740,14.357 8.740 C 14.519 8.739,14.770 8.697,15.013 8.630 C 15.782 8.416,16.649 8.405,17.460 8.598 C 19.123 8.993,20.474 10.231,21.016 11.858 C 21.306 12.727,21.314 13.898,21.037 14.798 C 20.633 16.109,19.557 17.299,18.285 17.841 C 18.134 17.905,17.814 18.014,17.575 18.083 C 17.065 18.231,16.957 18.298,16.839 18.543 C 16.598 19.041,16.943 19.600,17.492 19.600 C 17.858 19.600,18.785 19.288,19.360 18.970 C 20.722 18.218,21.707 17.119,22.293 15.700 C 22.725 14.652,22.852 13.225,22.616 12.060 C 22.242 10.207,20.969 8.555,19.231 7.665 L 18.830 7.459 18.732 7.080 C 18.206 5.039,16.651 3.338,14.676 2.644 C 13.876 2.363,12.953 2.224,12.160 2.266 M8.617 15.577 C 8.434 15.656,8.207 15.871,8.109 16.056 C 7.988 16.285,7.988 16.715,8.109 16.944 C 8.209 17.134,8.437 17.346,8.626 17.425 C 8.795 17.496,9.205 17.496,9.374 17.425 C 9.563 17.346,9.791 17.134,9.891 16.944 C 10.012 16.715,10.012 16.285,9.891 16.056 C 9.791 15.866,9.563 15.654,9.374 15.575 C 9.208 15.505,8.778 15.506,8.617 15.577 M14.617 15.577 C 14.434 15.656,14.207 15.871,14.109 16.056 C 13.988 16.285,13.988 16.715,14.109 16.944 C 14.209 17.134,14.437 17.346,14.626 17.425 C 14.795 17.496,15.205 17.496,15.374 17.425 C 15.563 17.346,15.791 17.134,15.891 16.944 C 15.956 16.821,15.978 16.710,15.978 16.500 C 15.978 16.290,15.956 16.179,15.891 16.056 C 15.791 15.866,15.563 15.654,15.374 15.575 C 15.208 15.505,14.778 15.506,14.617 15.577 M11.667 17.065 C 11.303 17.177,11.000 17.602,11.000 18.000 C 11.000 18.517,11.483 19.000,12.000 19.000 C 12.517 19.000,13.000 18.517,13.000 18.000 C 13.000 17.598,12.688 17.173,12.310 17.061 C 12.061 16.987,11.919 16.988,11.667 17.065 M8.617 18.577 C 8.434 18.656,8.207 18.871,8.109 19.056 C 7.988 19.285,7.988 19.715,8.109 19.944 C 8.209 20.134,8.437 20.346,8.626 20.425 C 8.795 20.496,9.205 20.496,9.374 20.425 C 9.563 20.346,9.791 20.134,9.891 19.944 C 10.012 19.715,10.012 19.285,9.891 19.056 C 9.791 18.866,9.563 18.654,9.374 18.575 C 9.208 18.505,8.778 18.506,8.617 18.577 M14.617 18.577 C 14.271 18.727,14.001 19.133,14.001 19.500 C 14.001 19.760,14.139 20.057,14.348 20.245 C 14.845 20.693,15.616 20.522,15.906 19.900 C 16.135 19.408,15.887 18.789,15.374 18.575 C 15.208 18.505,14.778 18.506,14.617 18.577 M11.667 20.065 C 11.399 20.147,11.145 20.408,11.063 20.684 C 10.984 20.947,10.984 21.052,11.061 21.310 C 11.173 21.688,11.598 22.000,12.000 22.000 C 12.058 22.000,12.198 21.973,12.310 21.939 C 12.688 21.827,13.000 21.402,13.000 21.000 C 13.000 20.598,12.688 20.173,12.310 20.061 C 12.061 19.987,11.919 19.988,11.667 20.065 " fill="#1C274C" stroke="none" fill-rule="evenodd"></path></svg>