<svg width="24" height="24" viewBox="0 0 24 24" fill="none" xmlns="http://www.w3.org/2000/svg"><path d="M12.160 1.266 C 11.734 1.289,11.230 1.369,10.807 1.481 C 8.312 2.139,6.473 4.193,6.081 6.760 C 6.024 7.129,6.023 8.174,6.079 8.500 C 6.101 8.632,6.120 8.754,6.120 8.770 C 6.120 8.787,6.044 8.800,5.950 8.800 C 5.677 8.800,5.089 8.916,4.700 9.045 C 2.786 9.683,1.456 11.353,1.284 13.335 C 1.037 16.183,3.263 18.662,6.128 18.730 C 6.499 18.739,6.520 18.735,6.685 18.619 C 6.922 18.453,7.019 18.273,7.019 18.000 C 7.019 17.731,6.922 17.547,6.697 17.389 C 6.557 17.291,6.483 17.273,6.095 17.241 C 5.582 17.200,5.286 17.130,4.874 16.955 C 3.792 16.494,2.998 15.496,2.797 14.340 C 2.717 13.879,2.768 13.174,2.915 12.720 C 3.273 11.613,4.151 10.766,5.308 10.413 C 5.625 10.317,5.721 10.306,6.280 10.306 C 6.841 10.306,6.934 10.316,7.260 10.415 C 7.458 10.475,7.809 10.625,8.039 10.748 C 8.383 10.931,8.495 10.972,8.661 10.974 C 9.312 10.984,9.652 10.177,9.190 9.719 C 9.032 9.563,8.511 9.281,8.086 9.121 L 7.700 8.976 7.627 8.698 C 7.530 8.330,7.494 7.438,7.557 6.995 C 7.696 6.027,8.070 5.207,8.710 4.468 C 9.470 3.589,10.535 2.998,11.679 2.816 C 12.228 2.729,13.070 2.755,13.588 2.875 C 14.257 3.029,14.946 3.347,15.464 3.743 C 15.818 4.013,16.371 4.583,16.586 4.900 C 16.739 5.125,17.040 5.690,17.122 5.904 L 17.158 5.999 16.569 5.975 C 15.699 5.939,14.574 6.114,14.047 6.367 C 13.566 6.598,13.508 7.293,13.942 7.624 C 14.074 7.725,14.128 7.740,14.357 7.740 C 14.519 7.739,14.770 7.697,15.013 7.630 C 15.782 7.416,16.649 7.405,17.460 7.598 C 19.123 7.993,20.474 9.231,21.016 10.858 C 21.306 11.727,21.314 12.898,21.037 13.798 C 20.633 15.109,19.557 16.299,18.285 16.841 C 18.134 16.905,17.814 17.014,17.575 17.083 C 17.065 17.231,16.957 17.298,16.839 17.543 C 16.598 18.041,16.943 18.600,17.492 18.600 C 17.858 18.600,18.785 18.288,19.360 17.970 C 20.722 17.218,21.707 16.119,22.293 14.700 C 22.725 13.652,22.852 12.225,22.616 11.060 C 22.242 9.207,20.969 7.555,19.231 6.665 L 18.830 6.459 18.732 6.080 C 18.206 4.039,16.651 2.338,14.676 1.644 C 13.876 1.363,12.953 1.224,12.160 1.266 M11.655 13.862 C 11.232 14.067,11.007 14.326,9.654 16.160 C 8.344 17.937,8.270 18.063,8.266 18.519 C 8.261 19.006,8.524 19.381,9.000 19.568 C 9.186 19.641,9.333 19.658,9.940 19.677 L 10.660 19.700 10.686 20.620 C 10.713 21.570,10.753 21.834,10.916 22.151 C 11.095 22.498,11.461 22.718,11.864 22.719 C 12.191 22.720,12.531 22.551,12.858 22.223 C 13.192 21.889,15.312 19.052,15.538 18.637 C 15.593 18.535,15.667 18.340,15.702 18.205 C 15.847 17.639,15.537 17.097,14.952 16.892 C 14.769 16.827,14.140 16.765,13.635 16.762 L 13.330 16.760 13.308 15.850 C 13.281 14.702,13.202 14.368,12.882 14.049 C 12.579 13.745,12.060 13.666,11.655 13.862 M11.946 17.525 C 12.067 17.789,12.289 18.017,12.522 18.117 C 12.744 18.212,13.217 18.279,13.673 18.280 C 13.835 18.280,13.961 18.296,13.953 18.315 C 13.927 18.384,12.220 20.678,12.194 20.679 C 12.179 20.680,12.161 20.334,12.153 19.910 C 12.135 19.001,12.089 18.843,11.751 18.539 C 11.482 18.297,11.265 18.236,10.588 18.210 C 10.285 18.199,10.042 18.175,10.048 18.156 C 10.055 18.138,10.456 17.587,10.940 16.932 L 11.820 15.740 11.841 16.540 C 11.859 17.242,11.872 17.363,11.946 17.525 " stroke="none" fill-rule="evenodd" fill="black"></path></svg>