<svg width="24" height="24" viewBox="0 0 24 24" fill="none" xmlns="http://www.w3.org/2000/svg"><path d="M12.160 2.266 C 11.734 2.289,11.230 2.369,10.807 2.481 C 8.312 3.139,6.473 5.193,6.081 7.760 C 6.024 8.129,6.023 9.174,6.079 9.500 C 6.101 9.632,6.120 9.754,6.120 9.770 C 6.120 9.787,6.044 9.800,5.950 9.800 C 5.474 9.800,4.610 10.032,4.040 10.313 C 2.611 11.017,1.579 12.412,1.316 13.994 C 1.197 14.709,1.294 15.743,1.545 16.449 C 1.846 17.298,2.511 18.187,3.266 18.753 C 3.846 19.187,4.785 19.592,5.096 19.542 C 5.541 19.471,5.824 19.051,5.717 18.623 C 5.645 18.337,5.510 18.219,5.034 18.023 C 4.498 17.804,4.133 17.569,3.782 17.218 C 3.286 16.721,2.952 16.107,2.818 15.441 C 2.713 14.923,2.753 14.221,2.915 13.720 C 3.274 12.612,4.151 11.766,5.308 11.413 C 5.625 11.317,5.721 11.306,6.280 11.306 C 6.841 11.306,6.934 11.316,7.260 11.415 C 7.458 11.475,7.809 11.625,8.039 11.748 C 8.383 11.931,8.495 11.972,8.661 11.974 C 9.312 11.984,9.652 11.177,9.190 10.719 C 9.032 10.563,8.511 10.281,8.086 10.121 L 7.700 9.976 7.627 9.698 C 7.530 9.330,7.494 8.438,7.557 7.995 C 7.696 7.027,8.070 6.207,8.710 5.468 C 9.470 4.589,10.535 3.998,11.679 3.816 C 12.228 3.729,13.070 3.755,13.588 3.875 C 14.257 4.029,14.946 4.347,15.464 4.743 C 15.818 5.013,16.371 5.583,16.586 5.900 C 16.739 6.125,17.040 6.690,17.122 6.904 L 17.158 6.999 16.569 6.975 C 15.699 6.939,14.574 7.114,14.047 7.367 C 13.566 7.598,13.508 8.293,13.942 8.624 C 14.074 8.725,14.128 8.740,14.357 8.740 C 14.519 8.739,14.770 8.697,15.013 8.630 C 16.746 8.149,18.653 8.687,19.905 10.011 C 20.794 10.952,21.239 12.071,21.240 13.365 C 21.240 14.658,20.751 15.845,19.842 16.761 C 19.429 17.177,19.040 17.457,18.480 17.740 C 17.910 18.028,17.760 18.199,17.760 18.560 C 17.760 18.978,18.080 19.291,18.506 19.291 C 18.892 19.291,19.880 18.737,20.589 18.122 C 21.582 17.262,22.352 15.931,22.616 14.620 C 22.768 13.868,22.768 12.810,22.616 12.060 C 22.242 10.207,20.969 8.555,19.231 7.665 L 18.830 7.459 18.732 7.080 C 18.206 5.039,16.651 3.338,14.676 2.644 C 13.876 2.363,12.953 2.224,12.160 2.266 M11.500 12.722 C 11.170 12.827,10.913 13.036,10.591 13.460 C 9.862 14.417,9.648 15.085,9.816 15.880 C 9.988 16.696,10.609 17.407,11.357 17.645 C 11.929 17.826,12.643 17.731,13.143 17.407 C 13.969 16.872,14.412 15.782,14.177 14.866 C 14.036 14.317,13.359 13.271,12.938 12.949 C 12.553 12.656,11.984 12.566,11.500 12.722 M12.286 14.443 C 12.620 14.877,12.741 15.132,12.738 15.400 C 12.733 15.852,12.392 16.240,12.000 16.240 C 11.509 16.240,11.119 15.621,11.297 15.125 C 11.402 14.833,11.929 14.103,12.015 14.132 C 12.038 14.139,12.160 14.279,12.286 14.443 M9.077 17.692 C 8.673 17.807,8.335 18.099,7.911 18.699 C 7.467 19.328,7.264 19.865,7.269 20.400 C 7.275 21.182,7.642 21.900,8.259 22.341 C 8.648 22.618,9.004 22.730,9.500 22.730 C 9.996 22.730,10.352 22.618,10.741 22.341 C 11.359 21.900,11.722 21.188,11.730 20.402 C 11.736 19.864,11.534 19.330,11.086 18.695 C 10.557 17.945,10.181 17.683,9.592 17.656 C 9.392 17.646,9.187 17.661,9.077 17.692 M14.077 17.692 C 13.673 17.807,13.335 18.099,12.911 18.699 C 12.467 19.328,12.264 19.865,12.269 20.400 C 12.275 21.182,12.642 21.900,13.259 22.341 C 13.648 22.618,14.004 22.730,14.500 22.730 C 14.996 22.730,15.352 22.618,15.741 22.341 C 16.359 21.900,16.722 21.188,16.730 20.402 C 16.736 19.864,16.534 19.330,16.086 18.695 C 15.557 17.945,15.181 17.683,14.592 17.656 C 14.392 17.646,14.187 17.661,14.077 17.692 M9.926 19.629 C 10.264 20.120,10.319 20.425,10.136 20.793 C 10.079 20.908,9.967 21.051,9.889 21.111 C 9.769 21.202,9.706 21.220,9.500 21.220 C 9.294 21.220,9.231 21.202,9.111 21.111 C 8.918 20.964,8.760 20.639,8.760 20.388 C 8.760 20.109,8.995 19.667,9.357 19.267 L 9.498 19.110 9.654 19.285 C 9.739 19.381,9.862 19.536,9.926 19.629 M14.926 19.629 C 15.264 20.120,15.319 20.425,15.136 20.793 C 15.079 20.908,14.967 21.051,14.889 21.111 C 14.769 21.202,14.706 21.220,14.500 21.220 C 14.294 21.220,14.231 21.202,14.111 21.111 C 13.918 20.964,13.760 20.639,13.760 20.388 C 13.760 20.109,13.995 19.667,14.357 19.267 L 14.498 19.110 14.654 19.285 C 14.739 19.381,14.862 19.536,14.926 19.629 " stroke="none" fill-rule="evenodd" fill="black"></path></svg>