<svg width="24" height="24" viewBox="0 0 24 24" fill="none" xmlns="http://www.w3.org/2000/svg"><path d="M11.310 1.280 C 8.537 1.459,5.969 2.687,4.086 4.735 C 2.588 6.364,1.667 8.333,1.334 10.620 C 1.238 11.279,1.238 12.712,1.335 13.380 C 1.480 14.385,1.727 15.304,1.905 15.495 C 2.035 15.634,2.297 15.758,2.460 15.758 C 2.719 15.758,3.064 15.516,3.157 15.267 C 3.225 15.088,3.209 14.930,3.063 14.358 C 2.829 13.445,2.782 13.051,2.781 12.020 C 2.780 10.974,2.834 10.525,3.064 9.640 C 3.893 6.451,6.451 3.892,9.640 3.064 C 10.101 2.944,10.959 2.787,10.990 2.817 C 10.995 2.822,10.879 2.924,10.732 3.043 C 10.122 3.538,9.382 4.508,8.979 5.340 C 8.535 6.259,8.237 7.496,8.241 8.408 C 8.244 9.161,9.072 9.529,9.546 8.989 C 9.711 8.802,9.749 8.664,9.774 8.160 C 9.862 6.373,10.827 4.699,12.345 3.698 C 12.876 3.348,13.076 3.062,13.145 2.553 C 13.180 2.290,13.047 1.869,12.857 1.647 C 12.555 1.294,12.243 1.220,11.310 1.280 M21.320 10.880 C 20.895 10.953,20.630 11.155,20.296 11.660 C 19.576 12.750,18.543 13.541,17.299 13.955 C 16.803 14.120,16.412 14.194,15.806 14.237 C 15.492 14.259,15.244 14.297,15.175 14.333 C 14.695 14.584,14.613 15.198,15.013 15.549 C 15.248 15.755,15.402 15.782,16.033 15.727 C 17.338 15.613,18.480 15.219,19.524 14.523 C 20.007 14.201,20.645 13.643,20.960 13.268 C 21.080 13.124,21.184 13.010,21.189 13.016 C 21.195 13.021,21.164 13.240,21.121 13.503 C 20.803 15.439,19.888 17.200,18.476 18.589 C 17.971 19.085,17.633 19.360,17.080 19.720 C 16.390 20.170,16.302 20.265,16.256 20.609 C 16.222 20.860,16.398 21.181,16.637 21.307 C 16.998 21.498,17.244 21.429,17.992 20.925 C 20.267 19.395,21.905 16.993,22.495 14.320 C 22.731 13.249,22.818 11.868,22.669 11.549 C 22.448 11.076,21.864 10.786,21.320 10.880 M8.343 11.285 C 6.920 11.423,5.612 12.250,4.927 13.444 C 4.535 14.129,4.360 14.781,4.360 15.556 L 4.360 16.000 4.244 16.000 C 4.074 16.000,3.466 16.185,3.196 16.319 C 1.906 16.959,1.139 18.296,1.280 19.660 C 1.326 20.105,1.386 20.327,1.564 20.714 C 2.092 21.857,3.148 22.598,4.423 22.718 C 5.002 22.773,11.064 22.773,11.692 22.718 C 13.275 22.579,14.623 21.676,15.299 20.300 C 15.557 19.775,15.664 19.402,15.716 18.850 C 15.787 18.088,15.659 17.356,15.340 16.697 C 14.945 15.878,14.245 15.150,13.455 14.734 L 13.162 14.580 13.078 14.303 C 12.684 13.009,11.602 11.931,10.248 11.482 C 9.697 11.299,8.970 11.224,8.343 11.285 M9.660 12.857 C 10.224 13.014,10.819 13.414,11.209 13.899 C 11.314 14.030,11.400 14.150,11.400 14.168 C 11.400 14.186,11.297 14.200,11.170 14.201 C 10.890 14.202,10.469 14.260,10.120 14.346 C 9.565 14.483,9.352 14.684,9.329 15.095 C 9.313 15.387,9.387 15.556,9.607 15.732 C 9.813 15.896,10.030 15.913,10.468 15.797 C 10.740 15.725,10.924 15.704,11.280 15.705 C 11.852 15.706,12.175 15.780,12.680 16.029 C 12.997 16.186,13.120 16.276,13.424 16.578 C 13.724 16.876,13.818 17.001,13.954 17.280 C 14.169 17.724,14.240 18.015,14.240 18.462 C 14.240 19.194,13.993 19.799,13.481 20.322 C 13.023 20.791,12.554 21.055,11.957 21.181 C 11.535 21.269,4.569 21.269,4.228 21.180 C 3.676 21.037,3.181 20.636,2.931 20.131 C 2.800 19.864,2.781 19.789,2.767 19.461 C 2.741 18.861,2.894 18.471,3.324 18.046 C 3.689 17.684,4.274 17.441,4.780 17.441 C 5.068 17.441,5.488 17.556,5.816 17.723 C 6.111 17.874,6.160 17.887,6.384 17.872 C 6.688 17.853,6.891 17.715,7.010 17.448 C 7.140 17.152,7.051 16.773,6.801 16.570 C 6.708 16.494,6.039 16.160,5.980 16.160 C 5.902 16.160,5.876 16.055,5.853 15.660 C 5.776 14.333,6.737 13.139,8.140 12.817 C 8.461 12.743,9.335 12.766,9.660 12.857 " fill="#1C274C" stroke="none" fill-rule="evenodd"></path></svg>