<svg width="24" height="24" viewBox="0 0 24 24" fill="none" xmlns="http://www.w3.org/2000/svg"><path d="M6.533 1.280 C 3.365 1.550,1.027 4.302,1.282 7.461 C 1.347 8.271,1.536 8.936,1.900 9.632 C 2.262 10.325,2.816 11.016,3.356 11.448 L 3.531 11.589 3.236 11.810 C 2.123 12.643,1.405 13.938,1.284 15.335 C 1.061 17.898,2.824 20.182,5.400 20.668 C 5.754 20.735,6.162 20.740,11.300 20.740 C 17.262 20.740,17.074 20.746,17.940 20.521 C 19.957 19.997,21.611 18.514,22.341 16.573 C 22.735 15.526,22.841 14.174,22.616 13.060 C 22.242 11.207,20.969 9.555,19.231 8.665 L 18.830 8.459 18.732 8.080 C 18.206 6.039,16.651 4.338,14.676 3.644 C 13.777 3.328,12.953 3.219,11.971 3.286 L 11.441 3.322 11.068 2.951 C 9.856 1.745,8.208 1.138,6.533 1.280 M7.740 2.819 C 8.440 2.947,9.074 3.228,9.600 3.644 L 9.809 3.809 9.494 3.977 C 7.615 4.984,6.397 6.690,6.081 8.760 C 6.024 9.129,6.023 10.174,6.079 10.500 C 6.101 10.632,6.120 10.753,6.120 10.770 C 6.120 10.787,6.047 10.800,5.958 10.800 C 5.868 10.800,5.672 10.820,5.522 10.845 L 5.249 10.890 4.941 10.720 C 3.942 10.169,3.186 9.195,2.873 8.055 C 2.799 7.788,2.786 7.630,2.784 7.020 C 2.782 6.396,2.794 6.257,2.871 5.974 C 3.155 4.932,3.792 4.036,4.659 3.460 C 5.139 3.140,5.815 2.879,6.400 2.787 C 6.654 2.747,7.450 2.766,7.740 2.819 M13.588 4.874 C 14.259 5.030,14.946 5.348,15.464 5.743 C 15.818 6.013,16.371 6.583,16.586 6.900 C 16.739 7.125,17.040 7.690,17.122 7.904 L 17.158 7.999 16.569 7.975 C 15.699 7.939,14.574 8.114,14.047 8.367 C 13.566 8.598,13.508 9.293,13.942 9.624 C 14.074 9.725,14.128 9.740,14.357 9.740 C 14.519 9.739,14.770 9.697,15.013 9.630 C 15.975 9.363,17.099 9.417,18.054 9.776 C 19.682 10.389,20.910 11.865,21.181 13.538 C 21.569 15.930,20.190 18.196,17.860 18.993 C 17.122 19.246,17.287 19.240,11.308 19.240 C 5.284 19.240,5.599 19.253,4.925 18.975 C 3.805 18.512,3.002 17.518,2.797 16.340 C 2.717 15.879,2.768 15.174,2.915 14.720 C 3.273 13.613,4.151 12.766,5.308 12.413 C 5.625 12.317,5.721 12.306,6.280 12.306 C 6.841 12.306,6.934 12.316,7.260 12.415 C 7.458 12.475,7.809 12.625,8.039 12.748 C 8.383 12.931,8.495 12.972,8.661 12.974 C 9.312 12.984,9.652 12.177,9.190 11.719 C 9.032 11.563,8.511 11.281,8.086 11.121 L 7.700 10.976 7.627 10.698 C 7.530 10.330,7.494 9.438,7.557 8.995 C 7.696 8.027,8.070 7.207,8.710 6.468 C 9.445 5.618,10.510 5.013,11.603 4.822 C 12.098 4.736,13.108 4.762,13.588 4.874 " stroke="none" fill-rule="evenodd" fill="black"></path></svg>