<svg width="24" height="24" viewBox="0 0 24 24" fill="none" xmlns="http://www.w3.org/2000/svg"><path d="M12.160 1.266 C 11.734 1.289,11.230 1.369,10.807 1.481 C 8.312 2.139,6.473 4.193,6.081 6.760 C 6.024 7.129,6.023 8.174,6.079 8.500 C 6.101 8.632,6.120 8.754,6.120 8.770 C 6.120 8.787,6.044 8.800,5.950 8.800 C 5.677 8.800,5.089 8.916,4.700 9.045 C 2.786 9.683,1.456 11.353,1.284 13.335 C 1.037 16.183,3.263 18.662,6.128 18.730 C 6.499 18.739,6.520 18.735,6.685 18.619 C 6.922 18.453,7.019 18.273,7.019 18.000 C 7.019 17.731,6.922 17.547,6.697 17.389 C 6.557 17.291,6.483 17.273,6.095 17.241 C 5.582 17.200,5.286 17.130,4.874 16.955 C 3.792 16.494,2.998 15.496,2.797 14.340 C 2.717 13.879,2.768 13.174,2.915 12.720 C 3.273 11.613,4.151 10.766,5.308 10.413 C 5.625 10.317,5.721 10.306,6.280 10.306 C 6.841 10.306,6.934 10.316,7.260 10.415 C 7.458 10.475,7.809 10.625,8.039 10.748 C 8.383 10.931,8.495 10.972,8.661 10.974 C 9.312 10.984,9.652 10.177,9.190 9.719 C 9.032 9.563,8.511 9.281,8.086 9.121 L 7.700 8.976 7.627 8.698 C 7.530 8.330,7.494 7.438,7.557 6.995 C 7.696 6.027,8.070 5.207,8.710 4.468 C 9.470 3.589,10.535 2.998,11.679 2.816 C 12.228 2.729,13.070 2.755,13.588 2.875 C 14.257 3.029,14.946 3.347,15.464 3.743 C 15.818 4.013,16.371 4.583,16.586 4.900 C 16.739 5.125,17.040 5.690,17.122 5.904 L 17.158 5.999 16.569 5.975 C 15.699 5.939,14.574 6.114,14.047 6.367 C 13.566 6.598,13.508 7.293,13.942 7.624 C 14.074 7.725,14.128 7.740,14.357 7.740 C 14.519 7.739,14.770 7.697,15.013 7.630 C 15.782 7.416,16.649 7.405,17.460 7.598 C 19.123 7.993,20.474 9.231,21.016 10.858 C 21.306 11.727,21.314 12.898,21.037 13.798 C 20.633 15.109,19.557 16.299,18.285 16.841 C 18.134 16.905,17.814 17.014,17.575 17.083 C 17.065 17.231,16.957 17.298,16.839 17.543 C 16.598 18.041,16.943 18.600,17.492 18.600 C 17.858 18.600,18.785 18.288,19.360 17.970 C 20.722 17.218,21.707 16.119,22.293 14.700 C 22.725 13.652,22.852 12.225,22.616 11.060 C 22.242 9.207,20.969 7.555,19.231 6.665 L 18.830 6.459 18.732 6.080 C 18.206 4.039,16.651 2.338,14.676 1.644 C 13.876 1.363,12.953 1.224,12.160 1.266 M10.280 13.283 C 9.325 13.333,8.789 13.524,8.388 13.958 C 8.037 14.338,7.875 14.752,7.800 15.460 C 7.750 15.928,7.750 20.072,7.800 20.540 C 7.875 21.248,8.037 21.662,8.388 22.042 C 8.926 22.624,9.602 22.758,12.000 22.758 C 14.398 22.758,15.074 22.624,15.612 22.042 C 15.963 21.662,16.125 21.248,16.200 20.540 C 16.250 20.072,16.250 15.928,16.200 15.460 C 16.075 14.283,15.587 13.650,14.613 13.397 C 14.070 13.256,11.885 13.199,10.280 13.283 M14.287 14.834 C 14.489 14.900,14.624 15.075,14.687 15.350 C 14.764 15.683,14.764 20.317,14.687 20.650 C 14.622 20.935,14.486 21.103,14.267 21.169 C 14.074 21.228,10.160 21.244,9.830 21.188 C 9.576 21.144,9.417 21.003,9.335 20.747 C 9.276 20.567,9.265 20.258,9.250 18.400 C 9.224 15.097,9.257 14.909,9.880 14.804 C 10.217 14.747,14.105 14.773,14.287 14.834 M10.815 17.278 C 10.331 17.393,10.098 18.004,10.383 18.408 C 10.605 18.722,10.676 18.738,11.869 18.753 C 13.122 18.768,13.296 18.744,13.519 18.521 C 13.918 18.122,13.731 17.423,13.189 17.286 C 12.983 17.235,11.025 17.228,10.815 17.278 " stroke="none" fill-rule="evenodd" fill="black"></path></svg>