<svg width="24" height="24" viewBox="0 0 24 24" fill="none" xmlns="http://www.w3.org/2000/svg"><path d="M7.420 1.260 C 7.398 1.267,7.331 1.284,7.271 1.297 C 7.124 1.329,6.881 1.548,6.814 1.708 C 6.780 1.789,6.760 1.992,6.761 2.249 C 6.762 2.823,6.864 3.034,7.210 3.178 C 7.398 3.257,7.602 3.257,7.790 3.178 C 8.135 3.034,8.238 2.823,8.239 2.253 C 8.240 2.029,8.221 1.795,8.197 1.733 C 8.146 1.597,7.977 1.412,7.840 1.342 C 7.732 1.287,7.485 1.238,7.420 1.260 M3.300 2.937 C 3.038 3.054,2.880 3.312,2.880 3.625 C 2.880 3.845,2.959 4.008,3.174 4.233 C 3.389 4.457,3.591 4.560,3.820 4.560 C 4.135 4.560,4.415 4.379,4.517 4.107 C 4.580 3.942,4.569 3.655,4.496 3.508 C 4.406 3.329,4.128 3.048,3.952 2.957 C 3.779 2.867,3.476 2.858,3.300 2.937 M11.060 2.946 C 10.885 3.038,10.605 3.317,10.517 3.488 C 10.377 3.758,10.426 4.114,10.633 4.335 C 10.840 4.557,11.226 4.629,11.492 4.496 C 11.671 4.406,11.952 4.128,12.043 3.952 C 12.128 3.788,12.143 3.507,12.077 3.333 C 12.020 3.179,11.847 3.002,11.691 2.935 C 11.521 2.862,11.210 2.868,11.060 2.946 M7.241 3.819 C 5.305 4.187,3.867 5.829,3.771 7.780 C 3.716 8.919,4.067 9.929,4.836 10.837 C 5.050 11.089,5.497 11.455,5.810 11.634 L 6.028 11.759 6.054 12.169 C 6.069 12.395,6.092 12.630,6.105 12.690 C 6.129 12.797,6.124 12.800,5.955 12.800 C 5.677 12.800,5.091 12.915,4.700 13.045 C 2.786 13.683,1.456 15.353,1.284 17.335 C 1.061 19.898,2.824 22.182,5.400 22.668 C 5.754 22.735,6.162 22.740,11.300 22.740 C 17.262 22.740,17.074 22.746,17.940 22.521 C 19.957 21.997,21.611 20.514,22.341 18.573 C 22.735 17.526,22.841 16.174,22.616 15.060 C 22.242 13.207,20.969 11.555,19.231 10.665 L 18.830 10.459 18.732 10.080 C 18.430 8.910,17.834 7.901,16.938 7.046 C 15.954 6.106,14.705 5.503,13.360 5.318 C 12.940 5.261,11.949 5.260,11.601 5.316 L 11.343 5.358 11.061 5.068 C 10.483 4.471,9.748 4.048,8.960 3.859 C 8.589 3.770,7.618 3.747,7.241 3.819 M8.688 5.342 C 8.991 5.421,9.230 5.526,9.505 5.702 L 9.732 5.847 9.456 5.997 C 8.028 6.771,6.990 7.947,6.425 9.428 C 6.348 9.630,6.273 9.859,6.258 9.937 C 6.243 10.016,6.217 10.080,6.199 10.080 C 6.181 10.080,6.094 9.997,6.004 9.895 C 5.235 9.022,5.038 7.887,5.482 6.893 C 5.862 6.043,6.669 5.426,7.595 5.280 C 7.877 5.236,8.389 5.265,8.688 5.342 M1.720 6.805 C 1.458 6.909,1.269 7.200,1.269 7.500 C 1.269 7.727,1.339 7.889,1.506 8.047 C 1.675 8.207,1.803 8.240,2.253 8.239 C 2.823 8.238,3.034 8.135,3.178 7.790 C 3.287 7.530,3.232 7.193,3.048 6.986 C 2.903 6.822,2.685 6.762,2.240 6.763 C 2.009 6.764,1.775 6.783,1.720 6.805 M13.588 6.874 C 14.259 7.030,14.946 7.348,15.464 7.743 C 15.818 8.013,16.371 8.583,16.586 8.900 C 16.739 9.125,17.040 9.690,17.122 9.904 L 17.158 9.999 16.569 9.975 C 15.699 9.939,14.574 10.114,14.047 10.367 C 13.566 10.598,13.508 11.293,13.942 11.624 C 14.074 11.725,14.128 11.740,14.357 11.740 C 14.519 11.739,14.770 11.697,15.013 11.630 C 15.975 11.363,17.099 11.417,18.054 11.776 C 19.682 12.389,20.910 13.865,21.181 15.538 C 21.569 17.930,20.190 20.196,17.860 20.993 C 17.122 21.246,17.287 21.240,11.308 21.240 C 5.284 21.240,5.599 21.253,4.925 20.975 C 3.805 20.512,3.002 19.518,2.797 18.340 C 2.717 17.879,2.768 17.174,2.915 16.720 C 3.273 15.613,4.151 14.766,5.308 14.413 C 5.625 14.317,5.721 14.306,6.280 14.306 C 6.841 14.306,6.934 14.316,7.260 14.415 C 7.458 14.475,7.809 14.625,8.039 14.748 C 8.383 14.931,8.495 14.972,8.661 14.974 C 9.312 14.984,9.652 14.177,9.190 13.719 C 9.032 13.563,8.511 13.281,8.086 13.121 L 7.700 12.976 7.627 12.698 C 7.530 12.330,7.494 11.438,7.557 10.995 C 7.696 10.027,8.070 9.207,8.710 8.468 C 9.445 7.618,10.510 7.013,11.603 6.822 C 12.098 6.736,13.108 6.762,13.588 6.874 M3.500 10.506 C 3.325 10.598,3.045 10.877,2.957 11.048 C 2.817 11.318,2.866 11.674,3.073 11.895 C 3.280 12.117,3.666 12.189,3.932 12.056 C 4.111 11.966,4.392 11.688,4.483 11.512 C 4.568 11.348,4.583 11.067,4.517 10.893 C 4.460 10.739,4.287 10.562,4.131 10.495 C 3.961 10.422,3.650 10.428,3.500 10.506 " stroke="none" fill-rule="evenodd" fill="black"></path></svg>