<svg width="24" height="24" viewBox="0 0 24 24" fill="none" xmlns="http://www.w3.org/2000/svg"><path d="M12.160 2.266 C 11.734 2.289,11.230 2.369,10.807 2.481 C 8.312 3.139,6.473 5.193,6.081 7.760 C 6.024 8.129,6.023 9.174,6.079 9.500 C 6.101 9.632,6.120 9.754,6.120 9.770 C 6.120 9.787,6.044 9.800,5.950 9.800 C 5.677 9.800,5.089 9.916,4.700 10.045 C 2.786 10.683,1.456 12.353,1.284 14.335 C 1.037 17.183,3.263 19.662,6.128 19.730 C 6.499 19.739,6.520 19.735,6.685 19.619 C 6.922 19.453,7.019 19.273,7.019 19.000 C 7.019 18.731,6.922 18.547,6.697 18.389 C 6.557 18.291,6.483 18.273,6.095 18.241 C 5.582 18.200,5.286 18.130,4.874 17.955 C 3.792 17.494,2.998 16.496,2.797 15.340 C 2.717 14.879,2.768 14.174,2.915 13.720 C 3.273 12.613,4.151 11.766,5.308 11.413 C 5.625 11.317,5.721 11.306,6.280 11.306 C 6.841 11.306,6.934 11.316,7.260 11.415 C 7.458 11.475,7.809 11.625,8.039 11.748 C 8.383 11.931,8.495 11.972,8.661 11.974 C 9.312 11.984,9.652 11.177,9.190 10.719 C 9.032 10.563,8.511 10.281,8.086 10.121 L 7.700 9.976 7.627 9.698 C 7.530 9.330,7.494 8.438,7.557 7.995 C 7.696 7.027,8.070 6.207,8.710 5.468 C 9.470 4.589,10.535 3.998,11.679 3.816 C 12.228 3.729,13.070 3.755,13.588 3.875 C 14.257 4.029,14.946 4.347,15.464 4.743 C 15.818 5.013,16.371 5.583,16.586 5.900 C 16.739 6.125,17.040 6.690,17.122 6.904 L 17.158 6.999 16.569 6.975 C 15.699 6.939,14.574 7.114,14.047 7.367 C 13.566 7.598,13.508 8.293,13.942 8.624 C 14.074 8.725,14.128 8.740,14.357 8.740 C 14.519 8.739,14.770 8.697,15.013 8.630 C 15.782 8.416,16.649 8.405,17.460 8.598 C 19.123 8.993,20.474 10.231,21.016 11.858 C 21.306 12.727,21.314 13.898,21.037 14.798 C 20.633 16.109,19.557 17.299,18.285 17.841 C 18.134 17.905,17.814 18.014,17.575 18.083 C 17.065 18.231,16.957 18.298,16.839 18.543 C 16.598 19.041,16.943 19.600,17.492 19.600 C 17.858 19.600,18.785 19.288,19.360 18.970 C 20.722 18.218,21.707 17.119,22.293 15.700 C 22.725 14.652,22.852 13.225,22.616 12.060 C 22.242 10.207,20.969 8.555,19.231 7.665 L 18.830 7.459 18.732 7.080 C 18.206 5.039,16.651 3.338,14.676 2.644 C 13.876 2.363,12.953 2.224,12.160 2.266 M11.815 15.277 C 11.638 15.321,11.461 15.456,11.353 15.631 L 11.260 15.780 11.248 17.976 L 11.237 20.172 10.828 19.772 C 10.604 19.552,10.375 19.348,10.320 19.319 C 10.265 19.290,10.118 19.267,9.992 19.267 C 9.721 19.267,9.503 19.389,9.358 19.623 C 9.235 19.823,9.231 20.172,9.351 20.364 C 9.397 20.439,9.927 20.988,10.528 21.585 C 11.553 22.605,11.632 22.673,11.810 22.711 C 11.936 22.737,12.064 22.737,12.190 22.711 C 12.369 22.673,12.447 22.605,13.489 21.568 C 14.099 20.962,14.627 20.403,14.664 20.327 C 14.753 20.139,14.747 19.838,14.651 19.651 C 14.608 19.568,14.499 19.448,14.408 19.383 C 14.271 19.287,14.202 19.267,14.011 19.267 C 13.884 19.267,13.735 19.290,13.680 19.319 C 13.625 19.348,13.396 19.552,13.170 19.773 L 12.760 20.175 12.759 18.098 C 12.758 16.815,12.742 15.951,12.717 15.841 C 12.623 15.432,12.215 15.177,11.815 15.277 " stroke="none" fill-rule="evenodd" fill="black"></path></svg>