<svg width="24" height="24" viewBox="0 0 24 24" fill="none" xmlns="http://www.w3.org/2000/svg"><path d="M7.380 1.279 C 4.740 1.363,3.544 1.720,2.595 2.706 C 1.716 3.620,1.383 4.740,1.280 7.130 C 1.229 8.300,1.230 15.720,1.281 16.900 C 1.382 19.240,1.718 20.378,2.575 21.273 C 3.521 22.261,4.624 22.612,7.130 22.720 C 8.285 22.770,15.715 22.770,16.870 22.720 C 18.396 22.654,19.266 22.514,20.060 22.205 C 20.987 21.845,21.847 20.986,22.204 20.064 C 22.642 18.934,22.758 17.676,22.759 14.080 C 22.759 11.540,22.702 10.832,22.439 10.110 C 22.208 9.478,21.868 8.987,21.183 8.297 C 20.731 7.842,15.440 3.068,14.771 2.512 C 13.889 1.778,13.281 1.484,12.340 1.337 C 11.859 1.263,8.967 1.229,7.380 1.279 M12.150 2.818 L 12.240 2.849 12.241 4.175 C 12.243 5.896,12.302 7.523,12.380 7.997 C 12.511 8.785,12.768 9.334,13.217 9.783 C 13.666 10.232,14.215 10.489,15.003 10.620 C 15.517 10.705,17.144 10.757,19.289 10.759 L 21.078 10.760 21.100 10.850 C 21.112 10.900,21.141 11.030,21.165 11.140 C 21.230 11.434,21.259 16.005,21.203 17.057 C 21.101 18.948,20.897 19.665,20.282 20.284 C 19.703 20.867,18.987 21.090,17.341 21.198 C 16.488 21.254,7.518 21.254,6.659 21.198 C 5.090 21.096,4.337 20.875,3.778 20.352 C 3.214 19.824,2.971 19.158,2.833 17.760 C 2.756 16.977,2.756 7.023,2.833 6.240 C 2.970 4.848,3.214 4.175,3.770 3.655 C 4.331 3.130,5.136 2.898,6.721 2.803 C 7.419 2.762,12.023 2.774,12.150 2.818 M14.199 3.999 C 14.444 4.212,19.275 8.563,19.854 9.091 L 20.020 9.243 17.760 9.227 C 15.677 9.212,15.472 9.204,15.138 9.130 C 14.338 8.952,14.047 8.661,13.871 7.862 C 13.799 7.536,13.789 7.307,13.771 5.561 C 13.752 3.676,13.753 3.625,13.826 3.680 C 13.867 3.712,14.035 3.855,14.199 3.999 M9.280 12.283 C 8.737 12.340,8.122 12.625,7.683 13.022 C 7.314 13.356,7.013 13.941,6.942 14.463 L 6.915 14.665 6.689 14.742 C 5.963 14.989,5.380 15.672,5.280 16.390 C 5.142 17.395,5.770 18.319,6.820 18.651 C 7.095 18.738,7.139 18.740,9.280 18.740 C 11.437 18.740,11.463 18.739,11.778 18.648 C 12.713 18.377,13.414 17.712,13.661 16.861 C 13.760 16.523,13.752 15.899,13.645 15.560 C 13.461 14.977,12.960 14.367,12.451 14.105 C 12.361 14.059,12.285 13.965,12.203 13.800 C 12.138 13.669,12.031 13.483,11.965 13.387 C 11.691 12.989,11.104 12.565,10.602 12.402 C 10.382 12.331,9.746 12.230,9.620 12.246 C 9.598 12.248,9.445 12.265,9.280 12.283 M9.995 13.785 C 10.152 13.816,10.151 13.844,9.992 13.920 C 9.511 14.148,9.466 14.884,9.915 15.182 C 10.113 15.312,10.303 15.342,10.559 15.280 C 10.842 15.212,11.243 15.221,11.481 15.300 C 11.758 15.392,12.049 15.632,12.154 15.856 C 12.377 16.330,12.157 16.834,11.600 17.126 L 11.420 17.220 9.380 17.232 C 7.847 17.241,7.302 17.232,7.188 17.195 C 6.970 17.125,6.760 16.879,6.760 16.695 C 6.760 16.213,7.367 15.970,7.953 16.217 C 8.250 16.342,8.439 16.347,8.670 16.235 C 8.899 16.124,9.039 15.912,9.065 15.634 C 9.095 15.320,8.974 15.105,8.660 14.915 C 8.446 14.786,8.421 14.757,8.432 14.655 C 8.468 14.320,8.773 13.981,9.166 13.840 C 9.381 13.763,9.758 13.738,9.995 13.785 " fill="#1C274C" stroke="none" fill-rule="evenodd"></path></svg>