<svg width="24" height="24" viewBox="0 0 24 24" fill="none" xmlns="http://www.w3.org/2000/svg"><path d="M12.160 2.266 C 11.734 2.289,11.230 2.369,10.807 2.481 C 8.312 3.139,6.473 5.193,6.081 7.760 C 6.024 8.129,6.023 9.174,6.079 9.500 C 6.101 9.632,6.120 9.754,6.120 9.770 C 6.120 9.787,6.044 9.800,5.950 9.800 C 5.677 9.800,5.089 9.916,4.700 10.045 C 2.786 10.683,1.456 12.353,1.284 14.335 C 1.037 17.183,3.263 19.662,6.128 19.730 C 6.499 19.739,6.520 19.735,6.685 19.619 C 6.922 19.453,7.019 19.273,7.019 19.000 C 7.019 18.731,6.922 18.547,6.697 18.389 C 6.557 18.291,6.483 18.273,6.095 18.241 C 5.582 18.200,5.286 18.130,4.874 17.955 C 3.792 17.494,2.998 16.496,2.797 15.340 C 2.717 14.879,2.768 14.174,2.915 13.720 C 3.273 12.613,4.151 11.766,5.308 11.413 C 5.625 11.317,5.721 11.306,6.280 11.306 C 6.841 11.306,6.934 11.316,7.260 11.415 C 7.458 11.475,7.809 11.625,8.039 11.748 C 8.383 11.931,8.495 11.972,8.661 11.974 C 9.312 11.984,9.652 11.177,9.190 10.719 C 9.032 10.563,8.511 10.281,8.086 10.121 L 7.700 9.976 7.627 9.698 C 7.530 9.330,7.494 8.438,7.557 7.995 C 7.696 7.027,8.070 6.207,8.710 5.468 C 9.470 4.589,10.535 3.998,11.679 3.816 C 12.228 3.729,13.070 3.755,13.588 3.875 C 14.257 4.029,14.946 4.347,15.464 4.743 C 15.818 5.013,16.371 5.583,16.586 5.900 C 16.739 6.125,17.040 6.690,17.122 6.904 L 17.158 6.999 16.569 6.975 C 15.699 6.939,14.574 7.114,14.047 7.367 C 13.566 7.598,13.508 8.293,13.942 8.624 C 14.074 8.725,14.128 8.740,14.357 8.740 C 14.519 8.739,14.770 8.697,15.013 8.630 C 15.782 8.416,16.649 8.405,17.460 8.598 C 19.123 8.993,20.474 10.231,21.016 11.858 C 21.306 12.727,21.314 13.898,21.037 14.798 C 20.633 16.109,19.557 17.299,18.285 17.841 C 18.134 17.905,17.814 18.014,17.575 18.083 C 17.065 18.231,16.957 18.298,16.839 18.543 C 16.598 19.041,16.943 19.600,17.492 19.600 C 17.858 19.600,18.785 19.288,19.360 18.970 C 20.722 18.218,21.707 17.119,22.293 15.700 C 22.725 14.652,22.852 13.225,22.616 12.060 C 22.242 10.207,20.969 8.555,19.231 7.665 L 18.830 7.459 18.732 7.080 C 18.206 5.039,16.651 3.338,14.676 2.644 C 13.876 2.363,12.953 2.224,12.160 2.266 M10.180 16.835 C 9.990 16.923,9.904 17.012,9.822 17.210 C 9.743 17.398,9.743 17.602,9.822 17.791 C 9.858 17.880,10.096 18.154,10.411 18.470 L 10.939 19.000 10.411 19.530 C 9.865 20.079,9.759 20.237,9.761 20.509 C 9.762 20.682,9.873 20.948,9.986 21.048 C 10.102 21.151,10.340 21.240,10.500 21.240 C 10.763 21.240,10.926 21.131,11.470 20.589 L 12.000 20.061 12.530 20.589 C 13.079 21.135,13.237 21.241,13.509 21.239 C 13.682 21.238,13.948 21.127,14.048 21.014 C 14.151 20.898,14.240 20.660,14.240 20.500 C 14.240 20.237,14.131 20.074,13.589 19.530 L 13.061 19.000 13.589 18.470 C 14.131 17.926,14.240 17.763,14.240 17.500 C 14.240 17.340,14.151 17.102,14.048 16.986 C 13.948 16.873,13.682 16.762,13.509 16.761 C 13.237 16.759,13.079 16.865,12.530 17.411 L 12.000 17.939 11.470 17.411 C 11.154 17.096,10.880 16.858,10.791 16.822 C 10.595 16.740,10.376 16.745,10.180 16.835 " stroke="none" fill-rule="evenodd" fill="black"></path></svg>