<svg width="24" height="24" viewBox="0 0 24 24" fill="none" xmlns="http://www.w3.org/2000/svg"><path d="M7.700 4.156 C 7.521 4.240,5.206 6.314,4.459 7.061 C 3.769 7.750,3.423 8.291,3.297 8.880 C 3.226 9.212,3.227 9.431,3.300 9.779 C 3.432 10.402,3.813 10.973,4.624 11.762 C 5.348 12.467,7.529 14.422,7.675 14.497 C 7.861 14.594,8.182 14.578,8.377 14.464 C 8.690 14.280,8.831 13.810,8.667 13.493 C 8.632 13.425,8.066 12.885,7.411 12.294 C 4.777 9.919,4.535 9.602,4.853 8.951 C 5.066 8.516,5.397 8.182,7.462 6.322 C 8.142 5.709,8.610 5.256,8.657 5.167 C 8.751 4.989,8.757 4.668,8.669 4.499 C 8.483 4.140,8.057 3.990,7.700 4.156 M13.900 4.258 C 13.878 4.266,13.812 4.284,13.753 4.296 C 13.617 4.326,13.414 4.496,13.338 4.644 C 13.289 4.738,9.349 19.492,9.262 19.907 C 9.193 20.233,9.463 20.626,9.816 20.715 C 10.146 20.798,10.516 20.637,10.651 20.352 C 10.758 20.126,14.720 5.158,14.720 4.980 C 14.720 4.744,14.571 4.480,14.377 4.373 C 14.223 4.288,13.979 4.229,13.900 4.258 M15.801 10.286 C 15.354 10.417,15.134 10.909,15.335 11.326 C 15.382 11.424,15.841 11.865,16.713 12.651 C 18.822 14.553,19.247 15.030,19.247 15.500 C 19.247 15.970,18.822 16.447,16.713 18.349 C 15.841 19.135,15.382 19.576,15.335 19.674 C 15.093 20.177,15.461 20.742,16.026 20.734 C 16.158 20.732,16.279 20.703,16.355 20.655 C 16.541 20.537,18.583 18.693,19.295 18.000 C 20.198 17.121,20.515 16.667,20.683 16.009 C 20.780 15.628,20.780 15.372,20.683 14.991 C 20.515 14.333,20.198 13.879,19.295 13.000 C 18.596 12.319,16.539 10.460,16.368 10.355 C 16.225 10.266,15.973 10.236,15.801 10.286 " stroke="none" fill-rule="evenodd" fill="black"></path></svg>