<svg width="24" height="24" viewBox="0 0 24 24" fill="none" xmlns="http://www.w3.org/2000/svg"><path d="M7.380 1.279 C 4.740 1.363,3.544 1.720,2.595 2.706 C 1.716 3.620,1.383 4.740,1.280 7.130 C 1.229 8.300,1.230 15.720,1.281 16.900 C 1.382 19.240,1.718 20.378,2.575 21.273 C 3.521 22.261,4.624 22.612,7.130 22.720 C 8.285 22.770,15.715 22.770,16.870 22.720 C 18.396 22.654,19.266 22.514,20.060 22.205 C 20.987 21.845,21.847 20.986,22.204 20.064 C 22.642 18.934,22.758 17.676,22.759 14.080 C 22.759 11.540,22.702 10.832,22.439 10.110 C 22.208 9.478,21.868 8.987,21.183 8.297 C 20.731 7.842,15.440 3.068,14.771 2.512 C 13.889 1.778,13.281 1.484,12.340 1.337 C 11.859 1.263,8.967 1.229,7.380 1.279 M12.150 2.818 L 12.240 2.849 12.241 4.175 C 12.243 5.896,12.302 7.523,12.380 7.997 C 12.511 8.785,12.768 9.334,13.217 9.783 C 13.666 10.232,14.215 10.489,15.003 10.620 C 15.517 10.705,17.144 10.757,19.289 10.759 L 21.078 10.760 21.100 10.850 C 21.112 10.900,21.141 11.030,21.165 11.140 C 21.230 11.434,21.259 16.005,21.203 17.057 C 21.101 18.948,20.897 19.665,20.282 20.284 C 19.703 20.867,18.987 21.090,17.341 21.198 C 16.488 21.254,7.518 21.254,6.659 21.198 C 5.090 21.096,4.337 20.875,3.778 20.352 C 3.214 19.824,2.971 19.158,2.833 17.760 C 2.756 16.977,2.756 7.023,2.833 6.240 C 2.970 4.848,3.214 4.175,3.770 3.655 C 4.331 3.130,5.136 2.898,6.721 2.803 C 7.419 2.762,12.023 2.774,12.150 2.818 M14.199 3.999 C 14.444 4.212,19.275 8.563,19.854 9.091 L 20.020 9.243 17.760 9.227 C 15.677 9.212,15.472 9.204,15.138 9.130 C 14.338 8.952,14.047 8.661,13.871 7.862 C 13.799 7.536,13.789 7.307,13.771 5.561 C 13.752 3.676,13.753 3.625,13.826 3.680 C 13.867 3.712,14.035 3.855,14.199 3.999 M6.801 13.290 C 6.644 13.324,6.551 13.399,6.028 13.914 C 5.702 14.236,5.397 14.561,5.350 14.636 C 5.235 14.822,5.235 15.178,5.350 15.364 C 5.463 15.547,6.599 16.663,6.700 16.691 C 6.928 16.753,7.015 16.757,7.186 16.714 C 7.575 16.616,7.800 16.232,7.711 15.815 C 7.679 15.664,7.616 15.572,7.370 15.315 L 7.069 15.000 7.370 14.685 C 7.617 14.427,7.679 14.336,7.711 14.184 C 7.834 13.607,7.384 13.165,6.801 13.290 M9.785 13.288 C 9.699 13.311,9.564 13.396,9.485 13.476 C 9.356 13.605,9.251 13.859,8.545 15.746 C 7.822 17.677,7.751 17.890,7.768 18.066 C 7.830 18.711,8.598 18.967,9.049 18.492 C 9.129 18.408,9.360 17.840,9.915 16.359 C 10.331 15.248,10.692 14.263,10.718 14.170 C 10.861 13.633,10.337 13.137,9.785 13.288 M11.420 15.260 C 11.398 15.267,11.331 15.284,11.271 15.297 C 11.124 15.329,10.881 15.548,10.814 15.708 C 10.744 15.875,10.745 16.127,10.816 16.296 C 10.846 16.369,10.992 16.558,11.140 16.714 L 11.409 16.999 11.139 17.289 C 10.840 17.611,10.760 17.760,10.760 17.996 C 10.760 18.284,10.914 18.531,11.179 18.669 C 11.338 18.752,11.668 18.748,11.841 18.661 C 12.039 18.561,13.107 17.480,13.180 17.306 C 13.213 17.227,13.240 17.089,13.240 17.000 C 13.240 16.911,13.213 16.773,13.180 16.694 C 13.111 16.528,12.042 15.440,11.860 15.350 C 11.734 15.288,11.488 15.237,11.420 15.260 " fill="#1C274C" stroke="none" fill-rule="evenodd"></path></svg>