<svg width="24" height="24" viewBox="0 0 24 24" fill="none" xmlns="http://www.w3.org/2000/svg"><path d="M13.900 4.258 C 13.878 4.266,13.812 4.284,13.753 4.296 C 13.617 4.326,13.414 4.496,13.338 4.644 C 13.243 4.828,9.280 19.666,9.280 19.838 C 9.280 20.040,9.339 20.192,9.473 20.335 C 9.846 20.734,10.550 20.583,10.717 20.068 C 10.907 19.478,14.720 5.109,14.720 4.980 C 14.720 4.744,14.571 4.480,14.377 4.373 C 14.223 4.288,13.979 4.229,13.900 4.258 M6.700 7.156 C 6.521 7.240,4.206 9.314,3.459 10.061 C 2.769 10.750,2.423 11.291,2.297 11.880 C 2.226 12.212,2.227 12.431,2.300 12.779 C 2.432 13.402,2.813 13.973,3.624 14.762 C 4.348 15.467,6.529 17.422,6.675 17.497 C 6.861 17.594,7.182 17.578,7.377 17.464 C 7.690 17.280,7.831 16.810,7.667 16.493 C 7.632 16.425,7.066 15.885,6.411 15.294 C 3.777 12.919,3.535 12.602,3.853 11.951 C 4.066 11.516,4.397 11.182,6.462 9.322 C 7.142 8.709,7.610 8.256,7.657 8.167 C 7.751 7.989,7.757 7.668,7.669 7.499 C 7.483 7.140,7.057 6.990,6.700 7.156 M16.720 7.144 C 16.548 7.218,16.412 7.343,16.331 7.499 C 16.243 7.668,16.249 7.989,16.343 8.167 C 16.390 8.256,16.858 8.709,17.538 9.322 C 19.603 11.182,19.934 11.516,20.147 11.951 C 20.465 12.602,20.223 12.919,17.589 15.294 C 16.934 15.885,16.369 16.425,16.333 16.493 C 16.165 16.819,16.319 17.316,16.640 17.480 C 16.831 17.577,17.155 17.585,17.325 17.497 C 17.473 17.421,19.664 15.455,20.374 14.762 C 21.201 13.954,21.567 13.403,21.704 12.759 C 21.889 11.888,21.526 11.044,20.541 10.061 C 19.794 9.314,17.479 7.240,17.300 7.156 C 17.107 7.066,16.909 7.062,16.720 7.144 " stroke="none" fill-rule="evenodd" fill="black"></path></svg>