<svg width="24" height="24" viewBox="0 0 24 24" fill="none" xmlns="http://www.w3.org/2000/svg"><path d="M11.310 1.283 C 6.653 1.563,2.667 4.904,1.564 9.450 C 1.162 11.110,1.162 12.890,1.564 14.550 C 2.415 18.060,5.032 20.948,8.442 22.139 C 10.725 22.937,13.275 22.937,15.558 22.139 C 18.633 21.065,21.092 18.592,22.157 15.503 C 22.819 13.585,22.918 11.437,22.436 9.450 C 21.419 5.255,17.924 2.044,13.657 1.383 C 13.303 1.328,12.042 1.231,11.880 1.246 C 11.847 1.249,11.590 1.266,11.310 1.283 M13.146 2.822 C 14.895 3.051,16.592 3.782,17.878 4.859 C 18.914 5.728,19.725 6.758,20.304 7.940 C 20.940 9.239,21.240 10.538,21.240 12.000 C 21.240 13.462,20.940 14.764,20.304 16.060 C 18.921 18.877,16.278 20.768,13.146 21.178 C 12.214 21.301,10.974 21.244,10.002 21.034 C 8.667 20.747,7.178 20.022,6.140 19.153 C 4.272 17.590,3.134 15.531,2.822 13.146 C 2.699 12.214,2.756 10.974,2.966 10.002 C 3.177 9.020,3.703 7.775,4.268 6.920 C 5.750 4.677,8.131 3.188,10.820 2.823 C 11.380 2.746,12.569 2.746,13.146 2.822 M13.000 6.483 C 12.852 6.545,12.647 6.757,12.601 6.897 C 12.484 7.255,9.993 16.608,9.974 16.763 C 9.891 17.415,10.706 17.822,11.200 17.375 C 11.286 17.298,11.374 17.177,11.397 17.107 C 11.517 16.742,14.007 7.392,14.027 7.233 C 14.057 6.998,13.935 6.726,13.731 6.571 C 13.620 6.486,13.539 6.461,13.345 6.452 C 13.210 6.446,13.055 6.460,13.000 6.483 M8.327 8.280 C 8.118 8.329,7.978 8.451,7.205 9.255 C 6.440 10.050,6.070 10.503,5.883 10.875 C 5.407 11.819,5.520 12.718,6.234 13.665 C 6.535 14.065,7.864 15.459,8.085 15.608 C 8.395 15.816,8.786 15.770,9.047 15.494 C 9.243 15.287,9.297 14.973,9.183 14.702 C 9.152 14.627,8.770 14.200,8.330 13.748 C 7.506 12.902,7.200 12.509,7.114 12.187 C 6.997 11.753,7.234 11.376,8.330 10.252 C 8.770 9.800,9.152 9.373,9.183 9.298 C 9.373 8.843,9.090 8.344,8.600 8.270 C 8.523 8.258,8.400 8.262,8.327 8.280 M15.420 8.260 C 15.398 8.267,15.331 8.284,15.271 8.297 C 15.124 8.329,14.881 8.548,14.814 8.708 C 14.744 8.877,14.745 9.127,14.818 9.301 C 14.851 9.381,15.217 9.789,15.670 10.253 C 16.492 11.093,16.800 11.489,16.886 11.813 C 17.003 12.247,16.766 12.624,15.670 13.748 C 15.230 14.200,14.848 14.627,14.817 14.702 C 14.749 14.863,14.743 15.111,14.803 15.267 C 14.965 15.697,15.526 15.870,15.911 15.610 C 16.133 15.460,17.469 14.059,17.765 13.667 C 18.209 13.078,18.400 12.577,18.400 12.000 C 18.400 11.314,18.123 10.713,17.461 9.958 C 17.082 9.528,15.954 8.399,15.848 8.345 C 15.733 8.287,15.486 8.238,15.420 8.260 " stroke="none" fill-rule="evenodd" fill="black"></path></svg>