<svg width="24" height="24" viewBox="0 0 24 24" fill="none" xmlns="http://www.w3.org/2000/svg"><path d="M9.020 1.279 C 6.976 1.330,5.856 1.466,4.900 1.779 C 3.060 2.382,1.958 3.688,1.563 5.734 C 1.311 7.042,1.267 7.973,1.267 12.000 C 1.267 16.027,1.311 16.958,1.563 18.266 C 2.013 20.599,3.401 21.987,5.734 22.437 C 7.043 22.690,7.974 22.734,12.000 22.734 C 16.026 22.734,16.957 22.690,18.266 22.437 C 20.599 21.987,21.987 20.599,22.437 18.266 C 22.688 16.966,22.733 16.013,22.733 12.000 C 22.733 7.987,22.688 7.034,22.437 5.734 C 22.098 3.977,21.228 2.756,19.825 2.068 C 18.972 1.650,17.853 1.420,16.180 1.321 C 15.262 1.267,10.607 1.239,9.020 1.279 M16.600 2.836 C 18.439 3.019,19.320 3.320,20.000 4.000 C 20.692 4.693,20.998 5.605,21.168 7.480 C 21.242 8.307,21.242 15.693,21.168 16.520 C 20.995 18.427,20.692 19.314,19.966 20.031 C 19.337 20.654,18.428 20.975,16.820 21.144 C 16.288 21.199,15.577 21.214,12.620 21.229 C 8.221 21.252,7.082 21.205,5.923 20.954 C 4.231 20.588,3.373 19.699,3.021 17.947 C 2.796 16.825,2.780 16.431,2.781 11.980 C 2.782 7.664,2.793 7.353,2.984 6.240 C 3.183 5.082,3.600 4.278,4.272 3.760 C 5.025 3.178,6.058 2.913,8.002 2.802 C 8.872 2.752,16.044 2.780,16.600 2.836 M13.000 6.483 C 12.852 6.545,12.647 6.757,12.601 6.897 C 12.484 7.255,9.993 16.608,9.974 16.763 C 9.891 17.415,10.706 17.822,11.200 17.375 C 11.286 17.298,11.374 17.177,11.397 17.107 C 11.517 16.742,14.007 7.392,14.027 7.233 C 14.057 6.998,13.935 6.726,13.731 6.571 C 13.620 6.486,13.539 6.461,13.345 6.452 C 13.210 6.446,13.055 6.460,13.000 6.483 M8.327 8.280 C 8.118 8.329,7.978 8.451,7.205 9.255 C 6.440 10.050,6.070 10.503,5.883 10.875 C 5.407 11.819,5.520 12.718,6.234 13.665 C 6.535 14.065,7.864 15.459,8.085 15.608 C 8.395 15.816,8.786 15.770,9.047 15.494 C 9.243 15.287,9.297 14.973,9.183 14.702 C 9.152 14.627,8.770 14.200,8.330 13.748 C 7.506 12.902,7.200 12.509,7.114 12.187 C 6.997 11.753,7.234 11.376,8.330 10.252 C 8.770 9.800,9.152 9.373,9.183 9.298 C 9.373 8.843,9.090 8.344,8.600 8.270 C 8.523 8.258,8.400 8.262,8.327 8.280 M15.420 8.260 C 15.398 8.267,15.331 8.284,15.271 8.297 C 15.124 8.329,14.881 8.548,14.814 8.708 C 14.744 8.877,14.745 9.127,14.818 9.301 C 14.851 9.381,15.217 9.789,15.670 10.253 C 16.492 11.093,16.800 11.489,16.886 11.813 C 17.003 12.247,16.766 12.624,15.670 13.748 C 15.230 14.200,14.848 14.627,14.817 14.702 C 14.749 14.863,14.743 15.111,14.803 15.267 C 14.965 15.697,15.526 15.870,15.911 15.610 C 16.133 15.460,17.469 14.059,17.765 13.667 C 18.209 13.078,18.400 12.577,18.400 12.000 C 18.400 11.314,18.123 10.713,17.461 9.958 C 17.082 9.528,15.954 8.399,15.848 8.345 C 15.733 8.287,15.486 8.238,15.420 8.260 " stroke="none" fill-rule="evenodd" fill="black"></path></svg>