<svg width="24" height="24" viewBox="0 0 24 24" fill="none" xmlns="http://www.w3.org/2000/svg"><path d="M7.420 1.283 C 4.824 1.355,3.629 1.695,2.669 2.635 C 1.935 3.353,1.559 4.272,1.379 5.787 C 1.311 6.358,1.224 8.994,1.248 9.742 C 1.265 10.293,1.326 10.444,1.607 10.629 C 1.839 10.783,2.180 10.778,2.408 10.617 C 2.499 10.553,2.610 10.428,2.656 10.340 C 2.736 10.187,2.741 10.102,2.766 8.360 C 2.797 6.154,2.851 5.550,3.089 4.800 C 3.385 3.865,3.928 3.343,4.896 3.062 C 5.649 2.844,6.218 2.796,8.380 2.766 C 10.214 2.740,10.220 2.740,10.369 2.647 C 10.943 2.290,10.812 1.424,10.162 1.284 C 9.938 1.236,9.122 1.236,7.420 1.283 M13.826 1.284 C 13.476 1.366,13.267 1.636,13.267 2.003 C 13.267 2.281,13.387 2.496,13.627 2.645 L 13.780 2.740 15.620 2.766 C 17.782 2.796,18.351 2.844,19.104 3.062 C 20.108 3.353,20.647 3.893,20.940 4.903 C 21.156 5.649,21.204 6.223,21.234 8.383 L 21.260 10.226 21.367 10.388 C 21.526 10.628,21.721 10.733,22.007 10.733 C 22.203 10.733,22.270 10.714,22.408 10.617 C 22.661 10.438,22.732 10.263,22.751 9.764 C 22.778 9.093,22.688 6.352,22.621 5.787 C 22.443 4.288,22.088 3.407,21.365 2.669 C 20.647 1.935,19.728 1.559,18.213 1.379 C 17.341 1.276,14.156 1.207,13.826 1.284 M7.060 4.786 C 6.263 4.848,5.638 5.120,5.286 5.558 C 5.115 5.771,4.935 6.170,4.856 6.511 C 4.762 6.922,4.729 9.254,4.812 9.728 C 4.960 10.579,5.402 11.034,6.223 11.181 C 6.673 11.261,9.327 11.261,9.777 11.181 C 10.583 11.037,11.037 10.580,11.182 9.769 C 11.260 9.333,11.260 6.667,11.182 6.231 C 11.075 5.631,10.796 5.222,10.342 4.998 C 9.941 4.800,9.606 4.762,8.340 4.768 C 7.724 4.771,7.148 4.779,7.060 4.786 M14.213 4.817 C 13.416 4.968,12.961 5.427,12.819 6.223 C 12.740 6.667,12.739 9.327,12.818 9.769 C 12.963 10.580,13.417 11.037,14.223 11.181 C 14.673 11.261,17.327 11.261,17.777 11.181 C 18.598 11.034,19.040 10.579,19.188 9.728 C 19.268 9.269,19.239 6.918,19.148 6.540 C 18.917 5.574,18.428 5.085,17.460 4.852 C 17.111 4.768,14.614 4.741,14.213 4.817 M9.669 6.332 C 9.734 6.397,9.740 6.527,9.740 8.000 C 9.740 9.480,9.735 9.602,9.669 9.669 C 9.602 9.735,9.480 9.740,8.000 9.740 C 6.539 9.740,6.397 9.734,6.334 9.671 C 6.273 9.610,6.262 9.486,6.248 8.671 C 6.229 7.599,6.282 6.825,6.388 6.607 C 6.539 6.298,6.876 6.243,8.529 6.254 C 9.492 6.261,9.606 6.269,9.669 6.332 M17.239 6.333 C 17.698 6.459,17.738 6.615,17.739 8.329 C 17.740 9.494,17.734 9.603,17.669 9.669 C 17.602 9.735,17.480 9.740,16.000 9.740 C 14.520 9.740,14.398 9.735,14.331 9.669 C 14.265 9.602,14.260 9.480,14.260 8.005 C 14.260 6.739,14.271 6.399,14.313 6.348 C 14.388 6.258,14.584 6.247,15.880 6.261 C 16.736 6.270,17.075 6.288,17.239 6.333 M6.213 12.819 C 5.405 12.966,4.959 13.426,4.813 14.264 C 4.729 14.748,4.760 17.073,4.857 17.492 C 5.064 18.390,5.610 18.936,6.508 19.143 C 6.927 19.240,9.252 19.271,9.736 19.187 C 10.583 19.039,11.035 18.596,11.182 17.769 C 11.260 17.333,11.260 14.667,11.182 14.231 C 11.037 13.420,10.583 12.963,9.777 12.819 C 9.348 12.743,6.635 12.743,6.213 12.819 M14.213 12.819 C 13.421 12.963,12.961 13.426,12.819 14.223 C 12.740 14.667,12.739 17.327,12.818 17.769 C 12.965 18.596,13.417 19.039,14.264 19.187 C 14.746 19.271,17.073 19.240,17.489 19.144 C 18.412 18.931,18.920 18.416,19.148 17.460 C 19.239 17.082,19.268 14.731,19.188 14.272 C 19.040 13.421,18.598 12.966,17.777 12.819 C 17.348 12.743,14.635 12.743,14.213 12.819 M1.826 13.285 C 1.625 13.331,1.467 13.446,1.354 13.629 C 1.233 13.826,1.219 14.280,1.275 16.220 C 1.331 18.152,1.422 18.928,1.682 19.727 C 2.105 21.022,2.978 21.895,4.273 22.318 C 5.072 22.578,5.848 22.669,7.780 22.725 C 9.720 22.781,10.174 22.767,10.371 22.646 C 10.870 22.337,10.848 21.591,10.332 21.336 C 10.193 21.267,10.028 21.259,8.360 21.235 C 7.359 21.220,6.351 21.188,6.120 21.164 C 3.833 20.920,3.080 20.167,2.836 17.880 C 2.812 17.649,2.780 16.641,2.765 15.640 C 2.736 13.623,2.737 13.628,2.464 13.421 C 2.355 13.337,2.274 13.307,2.040 13.261 C 2.007 13.254,1.911 13.265,1.826 13.285 M21.807 13.289 C 21.574 13.339,21.348 13.565,21.286 13.811 C 21.256 13.933,21.240 14.455,21.240 15.348 C 21.240 17.335,21.160 18.337,20.941 19.093 C 20.556 20.421,19.754 20.964,17.880 21.164 C 17.649 21.188,16.641 21.220,15.640 21.234 C 13.899 21.259,13.813 21.264,13.660 21.344 C 13.572 21.390,13.447 21.501,13.383 21.592 C 13.222 21.820,13.217 22.161,13.371 22.393 C 13.556 22.674,13.707 22.735,14.258 22.752 C 15.005 22.776,17.640 22.689,18.220 22.621 C 19.708 22.446,20.591 22.090,21.331 21.365 C 22.061 20.652,22.437 19.737,22.620 18.233 C 22.706 17.533,22.788 14.235,22.728 13.914 C 22.639 13.432,22.279 13.188,21.807 13.289 M9.669 14.331 C 9.735 14.398,9.740 14.520,9.740 16.000 C 9.740 17.480,9.735 17.602,9.669 17.669 C 9.603 17.734,9.494 17.740,8.329 17.739 C 6.578 17.738,6.432 17.697,6.315 17.177 C 6.239 16.837,6.237 14.440,6.313 14.348 C 6.388 14.258,6.552 14.250,8.169 14.255 C 9.483 14.260,9.603 14.266,9.669 14.331 M17.669 14.331 C 17.734 14.397,17.740 14.506,17.739 15.671 C 17.738 17.085,17.708 17.338,17.523 17.523 C 17.338 17.708,17.085 17.738,15.671 17.739 C 14.506 17.740,14.397 17.734,14.331 17.669 C 14.265 17.602,14.260 17.480,14.260 16.005 C 14.260 14.739,14.271 14.399,14.313 14.348 C 14.388 14.258,14.552 14.250,16.169 14.255 C 17.483 14.260,17.603 14.266,17.669 14.331 " stroke="none" fill-rule="evenodd" fill="black"></path></svg>