<svg width="24" height="24" viewBox="0 0 24 24" fill="none" xmlns="http://www.w3.org/2000/svg"><path d="M7.814 1.281 C 6.178 1.499,4.448 3.504,3.723 6.020 C 3.546 6.637,3.400 7.607,3.400 8.171 C 3.400 8.731,3.663 9.040,4.140 9.040 C 4.402 9.040,4.541 8.977,4.712 8.783 C 4.854 8.622,4.862 8.582,4.921 7.821 C 5.048 6.165,5.737 4.580,6.781 3.540 C 7.383 2.940,7.763 2.742,8.260 2.767 C 9.303 2.821,10.179 4.007,10.721 6.100 C 11.123 7.650,11.264 9.002,11.320 11.840 C 11.371 14.430,11.442 15.414,11.681 16.865 C 12.091 19.342,12.901 21.128,14.020 22.018 C 14.632 22.506,15.239 22.725,15.980 22.727 C 16.466 22.728,16.774 22.654,17.220 22.430 C 18.815 21.628,20.214 19.434,20.620 17.100 C 20.705 16.610,20.758 15.709,20.713 15.509 C 20.636 15.167,20.367 14.960,20.000 14.960 C 19.497 14.960,19.244 15.287,19.241 15.941 C 19.238 16.780,18.971 17.834,18.521 18.783 C 17.864 20.170,16.843 21.183,16.050 21.233 C 14.595 21.326,13.456 19.261,13.022 15.740 C 12.908 14.817,12.884 14.410,12.842 12.700 C 12.783 10.343,12.731 9.255,12.637 8.400 C 12.221 4.620,11.125 2.308,9.372 1.514 C 8.923 1.310,8.300 1.217,7.814 1.281 M1.815 11.278 C 1.330 11.395,1.098 12.004,1.383 12.408 C 1.448 12.499,1.572 12.610,1.660 12.656 C 1.819 12.740,1.842 12.740,5.720 12.740 C 7.865 12.740,9.669 12.726,9.729 12.709 C 9.881 12.667,10.121 12.447,10.186 12.292 C 10.297 12.027,10.241 11.711,10.047 11.506 C 9.798 11.243,10.097 11.261,5.820 11.254 C 3.686 11.250,1.884 11.261,1.815 11.278 M14.420 11.260 C 14.398 11.267,14.331 11.284,14.271 11.297 C 14.124 11.329,13.881 11.548,13.814 11.708 C 13.703 11.973,13.759 12.289,13.953 12.494 C 14.202 12.757,13.911 12.739,18.119 12.751 C 20.810 12.759,22.001 12.749,22.153 12.717 C 22.902 12.562,22.930 11.473,22.189 11.286 C 22.055 11.253,20.968 11.241,18.232 11.243 C 16.158 11.245,14.442 11.252,14.420 11.260 " stroke="none" fill-rule="evenodd" fill="black"></path></svg>