<svg width="24" height="24" viewBox="0 0 24 24" fill="none" xmlns="http://www.w3.org/2000/svg"><path d="M4.760 1.268 C 3.480 1.356,2.345 2.070,1.742 3.168 C 1.406 3.779,1.274 4.298,1.274 5.000 C 1.274 5.702,1.406 6.221,1.742 6.832 C 2.130 7.538,2.675 8.037,3.452 8.400 C 4.094 8.700,4.528 8.758,6.130 8.759 L 7.240 8.760 7.240 11.995 L 7.240 15.230 5.870 15.252 C 4.386 15.275,4.175 15.299,3.646 15.515 C 2.627 15.930,1.930 16.627,1.515 17.646 C 1.194 18.435,1.187 19.522,1.499 20.317 C 1.879 21.288,2.509 21.960,3.452 22.400 C 3.850 22.586,4.154 22.668,4.635 22.717 C 5.293 22.785,5.960 22.675,6.548 22.400 C 7.403 22.001,7.954 21.460,8.361 20.620 C 8.702 19.919,8.758 19.528,8.759 17.870 L 8.760 16.760 11.995 16.760 L 15.230 16.760 15.251 18.130 C 15.277 19.802,15.320 20.043,15.723 20.793 C 16.116 21.525,16.659 22.030,17.452 22.400 C 17.850 22.586,18.154 22.668,18.635 22.717 C 19.293 22.785,19.960 22.675,20.548 22.400 C 21.403 22.001,21.954 21.460,22.361 20.620 C 22.674 19.976,22.789 19.331,22.717 18.633 C 22.659 18.069,22.549 17.713,22.277 17.207 C 21.926 16.552,21.450 16.075,20.797 15.725 C 20.043 15.320,19.804 15.277,18.130 15.251 L 16.760 15.230 16.760 11.995 L 16.760 8.760 17.870 8.759 C 19.528 8.758,19.919 8.702,20.620 8.361 C 21.460 7.954,22.001 7.403,22.400 6.548 C 22.806 5.678,22.849 4.638,22.515 3.720 C 22.207 2.873,21.607 2.168,20.832 1.742 C 20.221 1.406,19.702 1.274,19.000 1.274 C 18.477 1.274,18.053 1.349,17.646 1.515 C 16.627 1.930,15.930 2.627,15.515 3.646 C 15.299 4.175,15.275 4.386,15.252 5.870 L 15.230 7.240 12.000 7.240 L 8.769 7.240 8.749 5.870 C 8.724 4.200,8.681 3.959,8.277 3.207 C 7.596 1.939,6.200 1.169,4.760 1.268 M5.578 2.821 C 5.708 2.855,5.923 2.940,6.057 3.010 C 6.371 3.175,6.825 3.629,6.990 3.943 C 7.223 4.388,7.240 4.522,7.240 5.948 L 7.240 7.240 5.948 7.240 C 4.522 7.240,4.388 7.223,3.943 6.990 C 3.805 6.917,3.579 6.741,3.419 6.581 C 2.959 6.121,2.760 5.644,2.760 5.000 C 2.760 4.357,2.959 3.881,3.420 3.420 C 3.881 2.959,4.336 2.768,4.982 2.763 C 5.187 2.761,5.445 2.786,5.578 2.821 M19.578 2.821 C 19.949 2.918,20.274 3.112,20.581 3.419 C 21.041 3.879,21.240 4.356,21.240 5.000 C 21.240 5.644,21.041 6.121,20.581 6.581 C 20.421 6.741,20.195 6.917,20.057 6.990 C 19.612 7.223,19.478 7.240,18.052 7.240 L 16.760 7.240 16.760 5.948 C 16.760 4.918,16.772 4.609,16.821 4.422 C 17.010 3.696,17.683 3.017,18.404 2.823 C 18.692 2.746,19.285 2.745,19.578 2.821 M15.240 12.000 L 15.240 15.240 12.000 15.240 L 8.760 15.240 8.760 12.000 L 8.760 8.760 12.000 8.760 L 15.240 8.760 15.240 12.000 M7.240 18.052 C 7.240 19.478,7.223 19.612,6.990 20.057 C 6.917 20.195,6.741 20.421,6.581 20.581 C 6.121 21.041,5.644 21.240,5.000 21.240 C 4.356 21.240,3.879 21.041,3.419 20.581 C 2.959 20.121,2.760 19.644,2.760 19.000 C 2.760 18.357,2.959 17.881,3.420 17.420 C 3.577 17.262,3.807 17.083,3.944 17.010 C 4.383 16.779,4.489 16.766,5.930 16.763 L 7.240 16.760 7.240 18.052 M19.578 16.821 C 19.949 16.918,20.274 17.112,20.581 17.419 C 21.041 17.879,21.240 18.356,21.240 19.000 C 21.240 19.644,21.041 20.121,20.581 20.581 C 20.121 21.041,19.644 21.240,19.000 21.240 C 18.356 21.240,17.879 21.041,17.419 20.581 C 17.259 20.421,17.083 20.195,17.010 20.057 C 16.777 19.612,16.760 19.478,16.760 18.052 L 16.760 16.760 18.052 16.760 C 19.082 16.760,19.391 16.772,19.578 16.821 " stroke="none" fill-rule="evenodd" fill="black"></path></svg>