<svg width="24" height="24" viewBox="0 0 24 24" fill="none" xmlns="http://www.w3.org/2000/svg"><path d="M11.310 1.283 C 6.653 1.563,2.667 4.904,1.564 9.450 C 1.162 11.110,1.162 12.890,1.564 14.550 C 2.505 18.428,5.572 21.495,9.450 22.436 C 11.110 22.838,12.890 22.838,14.550 22.436 C 18.428 21.495,21.495 18.428,22.436 14.550 C 22.837 12.894,22.837 11.106,22.436 9.450 C 21.419 5.255,17.924 2.044,13.657 1.383 C 13.303 1.328,12.042 1.231,11.880 1.246 C 11.847 1.249,11.590 1.266,11.310 1.283 M13.146 2.822 C 16.271 3.231,18.928 5.130,20.301 7.934 C 21.222 9.813,21.478 11.937,21.034 13.998 C 20.454 16.692,18.580 19.070,16.066 20.301 C 14.761 20.941,13.464 21.240,12.000 21.240 C 10.538 21.240,9.236 20.940,7.940 20.304 C 5.123 18.921,3.232 16.278,2.822 13.146 C 2.699 12.214,2.756 10.974,2.966 10.002 C 3.177 9.020,3.703 7.775,4.268 6.920 C 5.750 4.677,8.131 3.188,10.820 2.823 C 11.380 2.746,12.569 2.746,13.146 2.822 M13.797 7.660 C 13.387 7.742,13.011 7.863,12.061 8.219 C 10.886 8.660,10.187 8.946,9.920 9.094 C 9.638 9.251,9.251 9.638,9.094 9.920 C 8.843 10.372,7.912 12.805,7.738 13.467 C 7.464 14.505,7.602 15.289,8.157 15.843 C 8.711 16.397,9.500 16.536,10.533 16.263 C 11.199 16.086,13.630 15.157,14.080 14.906 C 14.362 14.749,14.749 14.362,14.906 14.080 C 15.157 13.628,16.088 11.195,16.262 10.533 C 16.389 10.053,16.430 9.462,16.362 9.114 C 16.224 8.414,15.680 7.844,14.972 7.660 C 14.697 7.588,14.158 7.588,13.797 7.660 M14.784 9.216 C 14.902 9.334,14.920 9.378,14.920 9.552 C 14.920 9.947,14.574 10.996,13.878 12.711 C 13.534 13.560,13.560 13.534,12.711 13.878 C 10.996 14.574,9.947 14.920,9.552 14.920 C 9.378 14.920,9.334 14.902,9.216 14.784 C 9.098 14.666,9.080 14.622,9.080 14.448 C 9.080 14.051,9.322 13.306,10.041 11.488 C 10.342 10.726,10.432 10.557,10.600 10.434 C 10.809 10.280,13.250 9.341,13.860 9.179 C 14.058 9.127,14.316 9.083,14.434 9.082 C 14.625 9.080,14.662 9.094,14.784 9.216 " stroke="none" fill-rule="evenodd" fill="black"></path></svg>