<svg width="24" height="24" viewBox="0 0 24 24" fill="none" xmlns="http://www.w3.org/2000/svg"><path d="M18.218 1.281 C 16.716 1.402,14.992 1.938,10.812 3.585 C 7.037 5.072,6.650 5.261,5.955 5.955 C 5.260 6.650,5.072 7.036,3.583 10.816 C 2.166 14.413,1.646 15.967,1.398 17.338 C 1.050 19.269,1.346 20.469,2.438 21.562 C 4.064 23.187,5.998 23.137,10.788 21.345 C 11.780 20.974,14.488 19.908,15.600 19.452 C 17.014 18.871,17.496 18.594,18.045 18.045 C 18.731 17.359,18.898 17.022,20.268 13.560 C 22.202 8.673,22.727 6.916,22.730 5.320 C 22.732 4.096,22.401 3.281,21.560 2.440 C 20.640 1.520,19.625 1.168,18.218 1.281 M19.448 2.845 C 20.206 3.049,20.953 3.801,21.160 4.569 C 21.240 4.864,21.247 4.964,21.229 5.480 C 21.176 6.936,20.677 8.493,18.574 13.774 C 17.606 16.202,17.464 16.495,17.024 16.954 C 16.571 17.428,16.243 17.591,13.780 18.572 C 9.065 20.450,7.460 20.990,5.969 21.202 C 5.486 21.271,4.722 21.232,4.420 21.124 C 3.787 20.896,3.115 20.226,2.872 19.580 C 2.791 19.364,2.782 19.270,2.783 18.640 C 2.785 18.028,2.799 17.874,2.896 17.421 C 3.117 16.389,3.590 14.937,4.347 12.962 C 4.918 11.474,6.129 8.458,6.319 8.056 C 6.718 7.208,7.127 6.777,7.900 6.391 C 8.476 6.103,12.691 4.431,14.379 3.820 C 16.970 2.883,18.500 2.589,19.448 2.845 M11.740 8.266 C 10.415 8.385,9.327 9.085,8.719 10.212 C 8.400 10.803,8.271 11.320,8.271 12.000 C 8.271 12.682,8.400 13.197,8.721 13.792 C 9.078 14.453,9.549 14.923,10.212 15.281 C 10.803 15.600,11.320 15.729,12.000 15.729 C 12.680 15.729,13.197 15.600,13.788 15.281 C 14.451 14.923,14.922 14.453,15.279 13.792 C 15.600 13.197,15.729 12.682,15.729 12.000 C 15.729 11.320,15.600 10.803,15.281 10.212 C 14.832 9.381,14.122 8.779,13.215 8.463 C 12.793 8.316,12.149 8.230,11.740 8.266 M12.578 9.821 C 12.949 9.918,13.274 10.112,13.581 10.419 C 14.041 10.879,14.240 11.356,14.240 12.000 C 14.240 12.644,14.041 13.121,13.581 13.581 C 13.121 14.041,12.644 14.240,12.000 14.240 C 11.356 14.240,10.879 14.041,10.419 13.581 C 9.959 13.121,9.760 12.644,9.760 12.000 C 9.760 11.356,9.959 10.879,10.419 10.419 C 10.719 10.118,11.050 9.919,11.404 9.823 C 11.692 9.746,12.285 9.745,12.578 9.821 " stroke="none" fill-rule="evenodd" fill="black"></path></svg>