<svg width="24" height="24" viewBox="0 0 24 24" fill="none" xmlns="http://www.w3.org/2000/svg"><path d="M1.801 6.286 C 1.354 6.417,1.134 6.909,1.335 7.327 C 1.415 7.492,6.009 12.081,6.463 12.448 C 7.062 12.933,7.500 13.120,8.034 13.120 C 8.768 13.119,9.243 12.832,10.420 11.681 C 11.647 10.481,12.013 10.147,12.236 10.026 C 12.493 9.886,12.594 9.899,12.912 10.109 C 13.044 10.197,14.601 11.710,16.649 13.740 L 20.158 17.220 18.189 17.240 C 16.033 17.262,16.113 17.253,15.873 17.506 C 15.611 17.783,15.611 18.217,15.873 18.494 C 16.119 18.754,15.935 18.739,19.077 18.751 C 21.075 18.759,22.000 18.749,22.151 18.718 C 22.450 18.656,22.656 18.450,22.718 18.151 C 22.749 18.000,22.759 17.080,22.751 15.097 L 22.740 12.260 22.648 12.099 C 22.500 11.842,22.316 11.740,22.000 11.740 C 21.684 11.740,21.500 11.842,21.352 12.099 C 21.260 12.260,21.260 12.265,21.240 14.211 L 21.220 16.161 17.820 12.790 C 15.950 10.935,14.282 9.302,14.114 9.159 C 13.541 8.673,13.126 8.481,12.580 8.450 C 12.309 8.434,12.211 8.447,11.940 8.538 C 11.333 8.739,11.062 8.958,9.354 10.626 C 8.577 11.385,8.248 11.639,8.039 11.640 C 7.894 11.640,7.658 11.503,7.360 11.246 C 7.217 11.122,6.047 9.975,4.760 8.696 C 3.473 7.417,2.384 6.353,2.340 6.330 C 2.210 6.264,1.950 6.242,1.801 6.286 " stroke="none" fill-rule="evenodd" fill="black"></path></svg>