<svg width="24" height="24" viewBox="0 0 24 24" fill="none" xmlns="http://www.w3.org/2000/svg"><path d="M9.020 1.278 C 7.735 1.310,7.475 1.326,6.649 1.423 C 4.782 1.643,3.569 2.183,2.728 3.171 C 1.841 4.212,1.475 5.425,1.314 7.860 C 1.249 8.841,1.249 15.159,1.314 16.140 C 1.431 17.905,1.649 18.970,2.068 19.825 C 2.756 21.228,3.977 22.098,5.734 22.437 C 7.035 22.688,7.988 22.733,12.000 22.733 C 16.012 22.733,16.965 22.688,18.266 22.437 C 20.599 21.987,21.987 20.599,22.437 18.266 C 22.688 16.968,22.732 16.015,22.733 12.000 C 22.733 7.987,22.688 7.034,22.437 5.734 C 22.098 3.977,21.228 2.756,19.825 2.068 C 18.972 1.650,17.855 1.421,16.180 1.321 C 15.276 1.267,10.579 1.239,9.020 1.278 M16.600 2.836 C 18.439 3.019,19.320 3.320,20.000 4.000 C 20.680 4.680,20.982 5.564,21.164 7.400 C 21.192 7.686,21.217 9.195,21.229 11.380 C 21.251 15.485,21.215 16.565,21.019 17.740 C 20.687 19.721,19.731 20.677,17.740 21.020 C 16.654 21.207,16.320 21.218,12.040 21.219 C 7.880 21.220,7.593 21.212,6.500 21.055 C 4.391 20.754,3.409 19.877,3.021 17.947 C 2.796 16.825,2.780 16.431,2.781 11.980 C 2.782 7.664,2.793 7.353,2.984 6.240 C 3.231 4.800,3.803 3.921,4.820 3.421 C 5.541 3.067,6.445 2.891,8.002 2.802 C 8.872 2.752,16.044 2.780,16.600 2.836 M13.797 7.660 C 13.387 7.742,13.011 7.863,12.061 8.219 C 10.886 8.660,10.187 8.946,9.920 9.094 C 9.638 9.251,9.251 9.638,9.094 9.920 C 8.843 10.372,7.912 12.805,7.738 13.467 C 7.464 14.505,7.602 15.289,8.157 15.843 C 8.711 16.397,9.500 16.536,10.533 16.263 C 11.199 16.086,13.630 15.157,14.080 14.906 C 14.362 14.749,14.749 14.362,14.906 14.080 C 15.157 13.628,16.088 11.195,16.262 10.533 C 16.389 10.053,16.430 9.462,16.362 9.114 C 16.224 8.414,15.680 7.844,14.972 7.660 C 14.697 7.588,14.158 7.588,13.797 7.660 M14.784 9.216 C 14.902 9.334,14.920 9.378,14.920 9.552 C 14.920 9.947,14.574 10.996,13.878 12.711 C 13.534 13.560,13.560 13.534,12.711 13.878 C 10.996 14.574,9.947 14.920,9.552 14.920 C 9.378 14.920,9.334 14.902,9.216 14.784 C 9.098 14.666,9.080 14.622,9.080 14.448 C 9.080 14.053,9.426 13.004,10.122 11.289 C 10.466 10.440,10.440 10.466,11.289 10.122 C 13.011 9.423,14.032 9.085,14.434 9.082 C 14.625 9.080,14.662 9.094,14.784 9.216 " stroke="none" fill-rule="evenodd" fill="black"></path></svg>