<svg width="24" height="24" viewBox="0 0 24 24" fill="none" xmlns="http://www.w3.org/2000/svg"><path d="M6.060 4.280 C 5.510 4.297,4.857 4.340,4.609 4.377 C 2.442 4.695,1.497 5.785,1.322 8.168 C 1.255 9.086,1.230 11.791,1.275 13.280 C 1.332 15.135,1.427 15.946,1.680 16.719 C 2.099 18.003,2.961 18.879,4.221 19.302 C 5.354 19.682,6.645 19.758,12.000 19.758 C 16.596 19.758,18.050 19.701,19.101 19.482 C 20.067 19.280,20.802 18.907,21.365 18.331 C 22.088 17.593,22.443 16.712,22.621 15.213 C 22.758 14.059,22.791 9.793,22.676 8.180 C 22.494 5.625,21.432 4.545,18.878 4.317 C 18.281 4.264,7.587 4.233,6.060 4.280 M19.136 5.834 C 20.486 6.051,20.931 6.482,21.145 7.780 C 21.200 8.114,21.214 8.621,21.229 10.859 C 21.253 14.268,21.201 15.195,20.939 16.099 C 20.657 17.073,20.136 17.616,19.200 17.911 C 18.865 18.016,18.760 18.039,18.758 18.006 C 18.757 17.992,18.741 17.674,18.722 17.300 C 18.703 16.926,18.657 16.485,18.619 16.320 C 18.389 15.316,17.684 14.611,16.680 14.381 C 16.207 14.272,15.240 14.244,12.000 14.244 C 8.760 14.244,7.793 14.272,7.320 14.381 C 6.316 14.611,5.611 15.316,5.381 16.320 C 5.343 16.485,5.297 16.926,5.278 17.300 C 5.259 17.674,5.243 17.992,5.242 18.006 C 5.237 18.073,4.607 17.864,4.234 17.673 C 3.407 17.247,2.999 16.422,2.833 14.840 C 2.760 14.149,2.758 8.463,2.830 7.940 C 2.964 6.962,3.236 6.440,3.749 6.171 C 4.171 5.950,4.579 5.853,5.307 5.803 C 6.042 5.751,18.802 5.780,19.136 5.834 M5.815 8.278 C 5.331 8.393,5.098 9.004,5.383 9.408 C 5.447 9.499,5.572 9.610,5.660 9.656 C 5.820 9.740,5.822 9.740,11.880 9.751 C 16.193 9.758,18.002 9.749,18.154 9.717 C 18.902 9.562,18.929 8.473,18.189 8.286 C 17.979 8.233,6.035 8.226,5.815 8.278 M5.720 10.805 C 5.458 10.909,5.269 11.200,5.269 11.500 C 5.269 11.807,5.460 12.095,5.733 12.197 C 5.891 12.257,18.109 12.257,18.267 12.197 C 18.540 12.095,18.731 11.807,18.731 11.500 C 18.731 11.193,18.540 10.905,18.267 10.803 C 18.116 10.745,5.864 10.748,5.720 10.805 M16.464 15.850 C 16.602 15.897,16.735 15.986,16.874 16.126 C 17.164 16.415,17.205 16.570,17.230 17.464 L 17.249 18.188 17.035 18.214 C 16.754 18.247,7.246 18.247,6.965 18.214 L 6.751 18.188 6.770 17.464 C 6.795 16.569,6.836 16.415,7.126 16.125 C 7.330 15.921,7.519 15.834,7.860 15.787 C 7.926 15.778,9.843 15.773,12.120 15.776 C 15.933 15.781,16.276 15.787,16.464 15.850 " stroke="none" fill-rule="evenodd" fill="black"></path></svg>