<svg width="24" height="24" viewBox="0 0 24 24" fill="none" xmlns="http://www.w3.org/2000/svg"><path d="M5.720 1.283 C 4.742 1.315,4.231 1.381,3.714 1.544 C 2.817 1.825,2.130 2.409,1.742 3.220 C 1.404 3.926,1.335 4.356,1.277 6.114 C 1.224 7.702,1.281 10.710,1.378 11.466 C 1.542 12.748,1.895 13.564,2.598 14.294 C 3.338 15.062,4.206 15.454,5.536 15.621 C 6.251 15.711,8.464 15.758,12.000 15.758 C 16.949 15.758,18.400 15.700,19.324 15.465 C 20.213 15.239,20.736 14.949,21.343 14.342 C 22.101 13.585,22.451 12.797,22.622 11.466 C 22.717 10.724,22.775 7.743,22.725 6.154 C 22.680 4.696,22.634 4.279,22.456 3.713 C 22.120 2.640,21.360 1.880,20.287 1.544 C 19.754 1.377,19.293 1.321,18.100 1.280 C 16.813 1.236,7.069 1.238,5.720 1.283 M18.850 2.800 C 19.765 2.876,20.192 3.028,20.582 3.418 C 20.982 3.819,21.127 4.240,21.205 5.233 C 21.263 5.965,21.228 10.627,21.160 11.180 C 21.094 11.723,20.948 12.279,20.779 12.636 C 20.579 13.056,20.054 13.581,19.637 13.777 C 19.324 13.924,18.783 14.089,18.743 14.050 C 18.730 14.037,18.720 13.929,18.720 13.809 C 18.720 12.891,18.025 11.895,17.100 11.490 C 16.570 11.258,16.755 11.267,12.553 11.250 C 8.574 11.235,7.611 11.258,7.200 11.382 C 6.094 11.717,5.392 12.595,5.295 13.767 C 5.280 13.939,5.264 14.080,5.259 14.080 C 5.172 14.080,4.493 13.848,4.308 13.754 C 3.935 13.567,3.403 13.019,3.221 12.636 C 3.052 12.279,2.906 11.724,2.840 11.180 C 2.772 10.629,2.737 5.965,2.795 5.231 C 2.873 4.240,3.018 3.819,3.418 3.418 C 3.796 3.041,4.259 2.870,5.090 2.802 C 5.651 2.756,18.296 2.754,18.850 2.800 M5.815 5.278 C 5.331 5.393,5.098 6.004,5.383 6.408 C 5.447 6.499,5.572 6.610,5.660 6.656 C 5.820 6.740,5.822 6.740,11.880 6.751 C 16.193 6.758,18.002 6.749,18.154 6.717 C 18.902 6.562,18.929 5.473,18.189 5.286 C 17.979 5.233,6.035 5.226,5.815 5.278 M5.720 7.805 C 5.458 7.909,5.269 8.200,5.269 8.500 C 5.269 8.807,5.460 9.095,5.733 9.197 C 5.891 9.257,18.109 9.257,18.267 9.197 C 18.540 9.095,18.731 8.807,18.731 8.500 C 18.731 8.193,18.540 7.905,18.267 7.803 C 18.116 7.745,5.864 7.748,5.720 7.805 M16.552 12.872 C 16.960 13.090,17.202 13.457,17.231 13.904 C 17.249 14.176,17.246 14.189,17.155 14.214 C 17.031 14.247,6.969 14.247,6.845 14.213 C 6.753 14.189,6.751 14.179,6.775 13.911 C 6.816 13.476,6.968 13.196,7.283 12.978 C 7.599 12.759,7.478 12.764,12.100 12.772 L 16.380 12.780 16.552 12.872 M6.720 16.805 C 6.564 16.867,6.422 17.023,6.161 17.419 C 5.761 18.026,5.648 18.517,5.773 19.107 C 5.870 19.561,6.016 19.819,6.386 20.188 C 6.871 20.671,6.888 20.805,6.537 21.348 C 6.277 21.750,6.219 21.935,6.283 22.170 C 6.376 22.516,6.645 22.727,7.001 22.732 C 7.298 22.737,7.466 22.623,7.733 22.237 C 8.036 21.799,8.147 21.578,8.220 21.271 C 8.294 20.955,8.294 20.734,8.220 20.380 C 8.125 19.930,7.950 19.624,7.589 19.275 C 7.124 18.824,7.111 18.682,7.483 18.116 C 7.762 17.691,7.806 17.452,7.658 17.160 C 7.499 16.845,7.048 16.674,6.720 16.805 M11.720 16.805 C 11.564 16.867,11.422 17.023,11.161 17.419 C 10.761 18.026,10.648 18.517,10.773 19.107 C 10.870 19.561,11.016 19.819,11.386 20.188 C 11.871 20.671,11.888 20.805,11.537 21.348 C 11.277 21.750,11.219 21.935,11.283 22.170 C 11.376 22.516,11.645 22.727,12.001 22.732 C 12.298 22.737,12.466 22.623,12.733 22.237 C 13.036 21.799,13.147 21.578,13.220 21.271 C 13.294 20.955,13.294 20.734,13.220 20.380 C 13.125 19.930,12.950 19.624,12.589 19.275 C 12.124 18.824,12.111 18.682,12.483 18.116 C 12.762 17.691,12.806 17.452,12.658 17.160 C 12.499 16.845,12.048 16.674,11.720 16.805 M16.720 16.805 C 16.564 16.867,16.422 17.023,16.161 17.419 C 15.761 18.026,15.648 18.517,15.773 19.107 C 15.870 19.561,16.016 19.819,16.386 20.188 C 16.871 20.671,16.888 20.805,16.537 21.348 C 16.277 21.750,16.219 21.935,16.283 22.170 C 16.376 22.516,16.645 22.727,17.001 22.732 C 17.298 22.737,17.466 22.623,17.733 22.237 C 18.036 21.799,18.147 21.578,18.220 21.271 C 18.294 20.955,18.294 20.734,18.220 20.380 C 18.125 19.930,17.950 19.624,17.589 19.275 C 17.124 18.824,17.111 18.682,17.483 18.116 C 17.762 17.691,17.806 17.452,17.658 17.160 C 17.499 16.845,17.048 16.674,16.720 16.805 " stroke="none" fill-rule="evenodd" fill="black"></path></svg>