<svg width="24" height="24" viewBox="0 0 24 24" fill="none" xmlns="http://www.w3.org/2000/svg"><path d="M11.320 1.281 C 7.041 1.525,3.252 4.409,1.843 8.497 C 1.180 10.418,1.082 12.560,1.564 14.550 C 2.505 18.428,5.572 21.495,9.450 22.436 C 11.106 22.837,12.894 22.837,14.550 22.436 C 18.428 21.495,21.495 18.428,22.436 14.550 C 22.837 12.894,22.837 11.106,22.436 9.450 C 21.425 5.282,17.985 2.095,13.742 1.398 C 13.334 1.331,12.074 1.229,11.880 1.247 C 11.847 1.250,11.595 1.265,11.320 1.281 M13.146 2.822 C 14.201 2.960,15.125 3.237,16.060 3.696 C 18.877 5.079,20.768 7.722,21.178 10.854 C 21.301 11.786,21.244 13.026,21.034 13.998 C 20.745 15.343,20.003 16.855,19.121 17.900 C 18.247 18.935,17.240 19.726,16.060 20.304 C 14.761 20.940,13.462 21.240,12.000 21.240 C 10.538 21.240,9.236 20.940,7.940 20.304 C 5.123 18.921,3.232 16.278,2.822 13.146 C 2.699 12.214,2.756 10.974,2.966 10.002 C 3.177 9.020,3.703 7.775,4.268 6.920 C 5.750 4.677,8.131 3.188,10.820 2.823 C 11.380 2.746,12.569 2.746,13.146 2.822 M7.811 8.278 C 7.486 8.358,7.263 8.667,7.267 9.030 C 7.270 9.343,7.382 9.474,8.094 10.000 C 8.437 10.253,8.717 10.478,8.717 10.500 C 8.717 10.522,8.437 10.747,8.094 11.000 C 7.382 11.526,7.270 11.657,7.267 11.970 C 7.263 12.344,7.488 12.645,7.829 12.722 C 8.157 12.797,8.223 12.762,9.416 11.864 C 10.032 11.400,10.570 10.974,10.611 10.917 C 10.787 10.673,10.779 10.296,10.593 10.060 C 10.485 9.923,8.298 8.280,8.224 8.280 C 8.194 8.280,8.118 8.272,8.055 8.263 C 7.992 8.253,7.882 8.260,7.811 8.278 M15.827 8.268 C 15.700 8.288,13.547 9.883,13.407 10.060 C 13.221 10.296,13.213 10.673,13.389 10.917 C 13.430 10.974,13.968 11.400,14.584 11.864 C 15.777 12.762,15.843 12.797,16.171 12.722 C 16.515 12.644,16.738 12.343,16.730 11.966 C 16.724 11.651,16.616 11.524,15.906 11.000 C 15.563 10.747,15.283 10.522,15.283 10.500 C 15.283 10.478,15.563 10.253,15.906 10.000 C 16.616 9.475,16.724 9.350,16.731 9.031 C 16.743 8.537,16.330 8.189,15.827 8.268 M9.900 14.259 C 9.878 14.267,9.807 14.285,9.743 14.299 C 9.613 14.328,8.496 15.400,8.350 15.636 C 8.232 15.827,8.235 16.178,8.356 16.374 C 8.532 16.658,8.842 16.784,9.184 16.711 C 9.336 16.679,9.427 16.617,9.685 16.370 L 10.000 16.069 10.315 16.370 C 10.572 16.616,10.664 16.679,10.815 16.711 C 11.150 16.782,11.326 16.713,11.685 16.370 L 12.000 16.069 12.315 16.370 C 12.674 16.713,12.850 16.782,13.185 16.711 C 13.336 16.679,13.428 16.616,13.685 16.370 L 14.000 16.069 14.315 16.370 C 14.572 16.616,14.664 16.679,14.815 16.711 C 15.388 16.833,15.833 16.386,15.710 15.810 C 15.673 15.639,15.612 15.562,15.085 15.027 C 14.763 14.701,14.439 14.397,14.364 14.350 C 14.206 14.252,13.838 14.236,13.680 14.320 C 13.625 14.349,13.450 14.499,13.290 14.653 L 13.000 14.934 12.710 14.653 C 12.353 14.308,12.278 14.267,12.000 14.267 C 11.722 14.267,11.647 14.308,11.290 14.653 L 11.000 14.934 10.710 14.653 C 10.550 14.499,10.384 14.354,10.340 14.331 C 10.250 14.284,9.961 14.237,9.900 14.259 " stroke="none" fill-rule="evenodd" fill="black"></path></svg>