<svg width="24" height="24" viewBox="0 0 24 24" fill="none" xmlns="http://www.w3.org/2000/svg"><path d="M13.167 2.065 C 12.907 2.198,12.783 2.450,12.737 2.942 L 12.711 3.224 12.460 3.431 C 12.187 3.655,11.999 3.961,12.001 4.178 C 12.002 4.360,12.134 4.616,12.279 4.719 C 12.349 4.769,12.523 4.860,12.666 4.920 C 12.808 4.980,12.939 5.045,12.956 5.064 C 12.973 5.084,13.029 5.204,13.079 5.331 C 13.216 5.678,13.365 5.860,13.577 5.941 C 13.926 6.074,14.244 5.941,14.600 5.511 L 14.779 5.294 15.120 5.254 C 15.537 5.205,15.733 5.116,15.888 4.903 C 15.997 4.754,16.006 4.717,15.993 4.478 C 15.980 4.255,15.953 4.173,15.810 3.932 L 15.641 3.648 15.721 3.338 C 15.764 3.167,15.800 2.983,15.800 2.928 C 15.800 2.730,15.705 2.515,15.556 2.381 C 15.346 2.192,15.130 2.165,14.690 2.273 L 14.350 2.357 14.068 2.190 C 13.835 2.052,13.744 2.021,13.543 2.010 C 13.373 2.001,13.260 2.018,13.167 2.065 M9.449 2.125 C 9.323 2.187,9.244 2.269,9.145 2.437 C 8.659 3.266,8.775 4.226,9.454 5.011 C 9.796 5.406,9.822 5.480,9.760 5.882 C 9.710 6.203,9.710 6.205,9.825 6.429 C 9.914 6.602,9.980 6.675,10.116 6.747 C 10.548 6.975,11.064 6.748,11.208 6.268 C 11.236 6.176,11.259 5.902,11.259 5.660 C 11.258 4.995,11.106 4.615,10.613 4.054 C 10.300 3.698,10.265 3.507,10.445 3.152 C 10.528 2.986,10.544 2.669,10.477 2.493 C 10.332 2.110,9.837 1.933,9.449 2.125 M13.939 3.265 C 14.108 3.360,14.156 3.369,14.401 3.348 L 14.675 3.325 14.652 3.599 C 14.631 3.844,14.640 3.892,14.735 4.062 C 14.793 4.167,14.834 4.259,14.826 4.267 C 14.818 4.276,14.707 4.299,14.581 4.320 C 14.347 4.358,14.147 4.476,14.011 4.657 L 13.940 4.751 13.820 4.526 C 13.721 4.339,13.661 4.279,13.474 4.180 L 13.249 4.060 13.343 3.989 C 13.525 3.852,13.642 3.654,13.685 3.405 C 13.709 3.270,13.733 3.160,13.739 3.160 C 13.745 3.160,13.835 3.207,13.939 3.265 M7.014 3.882 C 6.712 4.076,6.715 4.571,7.019 4.760 C 7.309 4.939,7.688 4.807,7.799 4.489 C 7.850 4.340,7.850 4.300,7.799 4.151 C 7.688 3.832,7.300 3.699,7.014 3.882 M17.220 4.787 C 16.928 4.941,16.873 5.042,16.738 5.680 C 16.621 6.235,16.593 6.311,16.413 6.564 C 16.261 6.777,16.077 6.907,15.740 7.039 C 14.996 7.331,14.467 7.814,14.140 8.500 C 14.017 8.758,13.835 9.452,13.774 9.895 C 13.709 10.374,14.157 10.824,14.613 10.739 C 14.818 10.700,15.048 10.554,15.134 10.406 C 15.177 10.332,15.255 10.062,15.306 9.806 C 15.418 9.252,15.578 8.899,15.805 8.705 C 15.894 8.629,16.134 8.496,16.338 8.409 C 16.831 8.200,17.101 8.014,17.434 7.658 C 17.789 7.278,18.005 6.851,18.142 6.258 C 18.292 5.605,18.309 5.333,18.209 5.138 C 18.165 5.051,18.094 4.949,18.053 4.912 C 17.849 4.727,17.447 4.667,17.220 4.787 M7.760 6.284 C 7.285 6.352,6.939 6.541,6.570 6.936 C 5.968 7.579,5.784 8.049,3.886 13.766 C 2.364 18.351,2.302 18.579,2.301 19.560 C 2.300 20.109,2.311 20.211,2.394 20.454 C 2.579 20.989,3.013 21.421,3.554 21.608 C 3.790 21.690,3.892 21.700,4.460 21.697 C 5.162 21.695,5.365 21.659,6.400 21.359 C 7.332 21.089,15.031 18.501,15.647 18.250 C 16.816 17.775,17.399 17.282,17.641 16.560 C 17.716 16.337,17.726 16.240,17.709 15.880 C 17.671 15.090,17.381 14.590,16.268 13.399 C 15.437 12.509,10.444 7.551,10.040 7.215 C 9.118 6.447,8.472 6.183,7.760 6.284 M19.636 6.956 C 19.058 7.182,18.712 7.615,18.577 8.284 C 18.461 8.855,18.568 10.243,18.754 10.590 C 18.829 10.728,18.951 10.787,19.300 10.855 C 21.023 11.191,22.050 10.906,22.492 9.969 C 22.602 9.736,22.618 9.657,22.618 9.380 C 22.617 9.142,22.595 9.012,22.533 8.875 C 22.372 8.521,22.044 8.238,21.629 8.097 C 21.493 8.051,21.441 8.009,21.422 7.933 C 21.325 7.546,21.012 7.160,20.662 6.994 C 20.461 6.899,20.369 6.880,20.120 6.882 C 19.930 6.883,19.753 6.910,19.636 6.956 M12.300 7.074 C 12.110 7.192,12.032 7.304,12.012 7.488 C 11.988 7.703,12.112 7.906,12.332 8.014 C 12.753 8.220,13.219 7.750,13.012 7.328 C 12.869 7.037,12.546 6.922,12.300 7.074 M20.312 7.930 C 20.406 8.008,20.469 8.174,20.499 8.420 C 20.515 8.552,20.557 8.709,20.592 8.769 C 20.670 8.901,20.864 9.000,21.046 9.000 C 21.534 9.001,21.773 9.307,21.550 9.644 C 21.415 9.848,21.143 9.965,20.746 9.990 C 20.362 10.014,19.636 9.939,19.594 9.871 C 19.552 9.802,19.503 9.184,19.511 8.823 C 19.519 8.461,19.602 8.169,19.731 8.048 C 19.942 7.851,20.163 7.806,20.312 7.930 M9.105 8.388 C 9.300 8.558,9.913 9.145,10.467 9.692 L 11.474 10.688 11.415 10.874 C 11.275 11.322,10.961 12.622,10.884 13.077 C 10.741 13.919,10.706 14.465,10.758 15.053 C 10.829 15.852,11.045 16.963,11.296 17.820 L 11.390 18.140 10.065 18.585 C 9.336 18.829,8.735 19.026,8.730 19.021 C 8.714 19.009,8.449 17.678,8.337 17.049 C 8.129 15.874,8.075 15.368,8.052 14.356 C 8.017 12.812,8.157 11.251,8.544 8.880 C 8.663 8.152,8.679 8.080,8.720 8.080 C 8.736 8.080,8.910 8.219,9.105 8.388 M6.904 9.710 C 6.601 11.886,6.487 13.592,6.561 14.833 C 6.623 15.883,6.840 17.316,7.187 18.970 C 7.246 19.250,7.283 19.491,7.269 19.505 C 7.232 19.541,6.074 19.900,5.462 20.064 C 4.815 20.238,4.210 20.288,4.009 20.185 C 3.795 20.074,3.746 19.925,3.771 19.462 C 3.806 18.831,3.975 18.250,5.182 14.600 C 6.113 11.786,6.884 9.520,6.911 9.520 C 6.922 9.520,6.919 9.605,6.904 9.710 M17.300 10.074 C 17.110 10.192,17.032 10.304,17.012 10.488 C 16.988 10.703,17.112 10.906,17.332 11.014 C 17.753 11.220,18.219 10.750,18.012 10.328 C 17.869 10.037,17.546 9.922,17.300 10.074 M15.634 14.920 C 15.991 15.331,16.240 15.770,16.240 15.986 C 16.240 16.089,16.201 16.164,16.078 16.297 C 15.804 16.595,15.191 16.868,13.552 17.422 C 12.898 17.643,12.801 17.666,12.784 17.607 C 12.679 17.253,12.493 16.489,12.395 16.009 C 12.237 15.228,12.200 14.351,12.297 13.680 C 12.360 13.246,12.623 12.022,12.670 11.944 C 12.697 11.901,15.169 14.383,15.634 14.920 M20.720 12.004 C 20.232 12.056,19.862 12.217,19.323 12.615 C 18.894 12.930,18.542 12.943,18.028 12.660 C 17.622 12.437,17.272 12.476,17.010 12.775 C 16.855 12.951,16.825 13.056,16.848 13.339 C 16.872 13.627,17.006 13.796,17.372 14.000 C 18.314 14.525,19.365 14.460,20.193 13.827 C 20.690 13.447,20.988 13.393,21.493 13.594 C 21.896 13.754,21.974 13.768,22.186 13.714 C 22.577 13.616,22.814 13.211,22.714 12.814 C 22.647 12.546,22.450 12.367,22.051 12.209 C 21.552 12.012,21.182 11.955,20.720 12.004 M19.172 15.238 C 18.838 15.442,18.836 15.972,19.169 16.145 C 19.538 16.335,19.960 16.094,19.960 15.694 C 19.959 15.287,19.514 15.030,19.172 15.238 " stroke="none" fill-rule="evenodd" fill="black"></path></svg>