<svg width="24" height="24" viewBox="0 0 24 24" fill="none" xmlns="http://www.w3.org/2000/svg"><path d="M10.351 2.279 C 10.123 2.349,9.971 2.481,9.847 2.713 C 9.682 3.022,9.600 3.353,9.600 3.706 C 9.600 4.295,9.767 4.728,10.180 5.213 C 10.535 5.629,10.533 5.624,10.501 6.106 C 10.474 6.501,10.477 6.528,10.572 6.690 C 10.706 6.919,10.954 7.058,11.221 7.054 C 11.744 7.047,12.017 6.634,12.009 5.860 C 12.004 5.276,11.793 4.757,11.383 4.319 C 11.053 3.966,11.010 3.764,11.180 3.360 C 11.235 3.229,11.280 3.067,11.280 3.000 C 11.280 2.753,11.098 2.453,10.880 2.341 C 10.740 2.269,10.481 2.239,10.351 2.279 M7.014 3.882 C 6.712 4.076,6.715 4.571,7.019 4.760 C 7.309 4.939,7.688 4.807,7.799 4.489 C 7.850 4.340,7.850 4.300,7.799 4.151 C 7.688 3.832,7.300 3.699,7.014 3.882 M13.928 4.082 C 13.877 4.102,13.703 4.253,13.542 4.417 C 13.114 4.850,13.098 5.038,13.453 5.427 C 13.764 5.767,13.937 5.880,14.151 5.880 C 14.324 5.880,14.345 5.866,14.685 5.525 C 15.039 5.171,15.040 5.170,15.040 4.966 C 15.040 4.766,15.033 4.752,14.752 4.457 C 14.365 4.050,14.198 3.974,13.928 4.082 M17.220 4.787 C 16.928 4.941,16.873 5.042,16.738 5.680 C 16.621 6.235,16.593 6.311,16.413 6.564 C 16.261 6.777,16.077 6.907,15.740 7.039 C 14.996 7.331,14.467 7.814,14.140 8.500 C 14.017 8.758,13.835 9.452,13.774 9.895 C 13.709 10.374,14.157 10.824,14.613 10.739 C 14.818 10.700,15.048 10.554,15.134 10.406 C 15.177 10.332,15.255 10.062,15.306 9.806 C 15.418 9.252,15.578 8.899,15.805 8.705 C 15.894 8.629,16.134 8.496,16.338 8.409 C 16.831 8.200,17.101 8.014,17.434 7.658 C 17.789 7.278,18.005 6.851,18.142 6.258 C 18.292 5.605,18.309 5.333,18.209 5.138 C 18.165 5.051,18.094 4.949,18.053 4.912 C 17.849 4.727,17.447 4.667,17.220 4.787 M7.760 6.284 C 7.285 6.352,6.939 6.541,6.570 6.936 C 5.968 7.579,5.784 8.049,3.886 13.766 C 2.364 18.351,2.302 18.579,2.301 19.560 C 2.300 20.109,2.311 20.211,2.394 20.454 C 2.579 20.989,3.013 21.421,3.554 21.608 C 3.790 21.690,3.892 21.700,4.460 21.697 C 5.162 21.695,5.365 21.659,6.400 21.359 C 7.332 21.089,15.031 18.501,15.647 18.250 C 16.816 17.775,17.399 17.282,17.641 16.560 C 17.716 16.337,17.726 16.240,17.709 15.880 C 17.671 15.090,17.381 14.590,16.268 13.399 C 15.437 12.509,10.444 7.551,10.040 7.215 C 9.118 6.447,8.472 6.183,7.760 6.284 M19.933 7.083 C 19.706 7.195,19.105 7.825,19.041 8.016 C 19.011 8.108,19.002 8.237,19.019 8.349 C 19.043 8.510,19.089 8.575,19.426 8.922 C 19.830 9.339,19.985 9.440,20.217 9.440 C 20.459 9.440,20.634 9.336,20.985 8.985 C 21.336 8.634,21.440 8.459,21.440 8.217 C 21.440 7.985,21.339 7.831,20.926 7.430 C 20.453 6.971,20.281 6.911,19.933 7.083 M9.105 8.388 C 9.300 8.558,9.913 9.145,10.467 9.692 L 11.474 10.688 11.415 10.874 C 11.275 11.322,10.961 12.622,10.884 13.077 C 10.741 13.919,10.706 14.465,10.758 15.053 C 10.829 15.852,11.045 16.963,11.296 17.820 L 11.390 18.140 10.065 18.585 C 9.336 18.829,8.735 19.026,8.730 19.021 C 8.714 19.009,8.449 17.678,8.337 17.049 C 8.129 15.874,8.075 15.368,8.052 14.356 C 8.017 12.812,8.157 11.251,8.544 8.880 C 8.663 8.152,8.679 8.080,8.720 8.080 C 8.736 8.080,8.910 8.219,9.105 8.388 M6.904 9.710 C 6.601 11.886,6.487 13.592,6.561 14.833 C 6.623 15.883,6.840 17.316,7.187 18.970 C 7.246 19.250,7.283 19.491,7.269 19.505 C 7.232 19.541,6.074 19.900,5.462 20.064 C 4.815 20.238,4.210 20.288,4.009 20.185 C 3.795 20.074,3.746 19.925,3.771 19.462 C 3.806 18.831,3.975 18.250,5.182 14.600 C 6.113 11.786,6.884 9.520,6.911 9.520 C 6.922 9.520,6.919 9.605,6.904 9.710 M17.657 9.637 C 17.611 9.656,17.525 9.730,17.467 9.799 C 17.382 9.900,17.360 9.968,17.360 10.128 C 17.360 10.309,17.376 10.345,17.515 10.485 C 17.655 10.625,17.691 10.640,17.876 10.640 C 18.054 10.640,18.101 10.622,18.231 10.503 C 18.372 10.374,18.380 10.353,18.380 10.124 C 18.380 9.905,18.368 9.869,18.254 9.755 C 18.154 9.655,18.087 9.626,17.934 9.615 C 17.827 9.607,17.703 9.617,17.657 9.637 M20.720 11.004 C 20.232 11.056,19.862 11.217,19.323 11.615 C 18.894 11.930,18.542 11.943,18.028 11.660 C 17.622 11.437,17.272 11.476,17.010 11.775 C 16.855 11.951,16.825 12.056,16.848 12.339 C 16.872 12.627,17.006 12.796,17.372 13.000 C 18.314 13.525,19.365 13.460,20.193 12.827 C 20.690 12.447,20.988 12.393,21.493 12.594 C 21.896 12.754,21.974 12.768,22.186 12.714 C 22.577 12.616,22.814 12.211,22.714 11.814 C 22.647 11.546,22.450 11.367,22.051 11.209 C 21.552 11.012,21.182 10.955,20.720 11.004 M15.634 14.920 C 15.991 15.331,16.240 15.770,16.240 15.986 C 16.240 16.089,16.201 16.164,16.078 16.297 C 15.804 16.595,15.191 16.868,13.552 17.422 C 12.898 17.643,12.801 17.666,12.784 17.607 C 12.679 17.253,12.493 16.489,12.395 16.009 C 12.237 15.228,12.200 14.351,12.297 13.680 C 12.360 13.246,12.623 12.022,12.670 11.944 C 12.697 11.901,15.169 14.383,15.634 14.920 M19.172 15.238 C 18.838 15.442,18.836 15.972,19.169 16.145 C 19.538 16.335,19.960 16.094,19.960 15.694 C 19.959 15.287,19.514 15.030,19.172 15.238 " stroke="none" fill-rule="evenodd" fill="black"></path></svg>