<svg width="24" height="24" viewBox="0 0 24 24" fill="none" xmlns="http://www.w3.org/2000/svg"><path d="M11.320 1.281 C 7.041 1.525,3.252 4.409,1.843 8.497 C 1.180 10.418,1.082 12.560,1.564 14.550 C 2.505 18.428,5.572 21.495,9.450 22.436 C 11.106 22.837,12.894 22.837,14.550 22.436 C 18.428 21.495,21.495 18.428,22.436 14.550 C 22.837 12.894,22.837 11.106,22.436 9.450 C 21.425 5.282,17.985 2.095,13.742 1.398 C 13.334 1.331,12.074 1.229,11.880 1.247 C 11.847 1.250,11.595 1.265,11.320 1.281 M13.146 2.822 C 14.201 2.960,15.125 3.237,16.060 3.696 C 18.877 5.079,20.768 7.722,21.178 10.854 C 21.301 11.786,21.244 13.026,21.034 13.998 C 20.745 15.343,20.003 16.855,19.121 17.900 C 18.247 18.935,17.240 19.726,16.060 20.304 C 14.761 20.940,13.462 21.240,12.000 21.240 C 10.538 21.240,9.236 20.940,7.940 20.304 C 5.123 18.921,3.232 16.278,2.822 13.146 C 2.699 12.214,2.756 10.974,2.966 10.002 C 3.177 9.020,3.703 7.775,4.268 6.920 C 5.750 4.677,8.131 3.188,10.820 2.823 C 11.380 2.746,12.569 2.746,13.146 2.822 M11.800 7.283 C 10.590 7.385,9.503 7.891,8.635 8.756 C 7.281 10.106,6.894 12.032,7.626 13.780 C 8.033 14.754,8.917 15.680,9.921 16.183 C 11.149 16.799,12.625 16.906,13.960 16.474 C 14.351 16.348,14.515 16.242,14.633 16.042 C 14.867 15.642,14.704 15.163,14.271 14.982 C 14.064 14.895,13.960 14.903,13.539 15.038 C 13.062 15.191,12.755 15.239,12.257 15.240 C 11.190 15.240,10.327 14.867,9.597 14.089 C 9.244 13.713,9.036 13.375,8.891 12.940 C 8.793 12.648,8.784 12.566,8.784 12.000 C 8.784 11.434,8.793 11.352,8.891 11.060 C 9.036 10.625,9.244 10.287,9.597 9.911 C 10.327 9.133,11.190 8.760,12.257 8.760 C 12.755 8.761,13.062 8.809,13.539 8.962 C 13.960 9.097,14.064 9.105,14.271 9.018 C 14.572 8.892,14.730 8.661,14.734 8.339 C 14.739 8.041,14.585 7.797,14.310 7.665 C 13.691 7.366,12.667 7.210,11.800 7.283 " stroke="none" fill-rule="evenodd" fill="black"></path></svg>