<svg width="24" height="24" viewBox="0 0 24 24" fill="none" xmlns="http://www.w3.org/2000/svg"><path d="M8.420 1.281 C 7.308 1.314,6.802 1.357,6.096 1.481 C 4.321 1.792,3.190 2.718,2.680 4.281 C 2.302 5.438,2.225 6.971,2.250 12.880 C 2.264 16.074,2.273 16.532,2.332 16.775 C 2.685 18.242,3.708 19.287,5.138 19.639 L 5.416 19.707 5.484 19.985 C 5.843 21.446,6.698 22.246,8.234 22.559 C 8.991 22.713,9.676 22.736,13.500 22.736 C 17.326 22.737,17.998 22.714,18.772 22.557 C 20.372 22.233,21.233 21.372,21.557 19.772 C 21.721 18.961,21.738 18.379,21.738 13.500 C 21.738 8.621,21.721 8.039,21.557 7.228 C 21.248 5.700,20.444 4.843,18.985 4.484 L 18.707 4.416 18.639 4.138 C 18.331 2.887,17.478 1.928,16.275 1.481 C 15.691 1.265,15.730 1.267,12.480 1.259 C 10.819 1.254,8.992 1.264,8.420 1.281 M15.578 2.821 C 15.949 2.918,16.274 3.112,16.581 3.419 C 16.822 3.660,17.120 4.106,17.120 4.226 C 17.120 4.245,15.479 4.261,13.470 4.262 C 9.672 4.264,9.027 4.285,8.251 4.436 C 6.899 4.700,6.058 5.371,5.636 6.522 C 5.568 6.708,5.478 7.036,5.436 7.251 C 5.278 8.065,5.262 8.621,5.261 13.470 C 5.260 16.038,5.245 18.120,5.226 18.120 C 5.107 18.120,4.659 17.822,4.417 17.581 C 4.103 17.270,3.878 16.876,3.801 16.503 C 3.738 16.200,3.769 6.623,3.835 6.080 C 4.054 4.262,4.568 3.481,5.800 3.087 C 6.281 2.933,6.885 2.845,7.860 2.786 C 7.970 2.780,9.699 2.771,11.702 2.767 C 14.859 2.761,15.374 2.768,15.578 2.821 M18.136 5.835 C 18.790 5.938,19.268 6.121,19.555 6.380 C 19.743 6.550,19.968 6.977,20.060 7.340 C 20.215 7.950,20.220 8.145,20.220 13.520 C 20.220 18.319,20.214 18.776,20.149 19.186 C 19.935 20.537,19.473 20.976,18.060 21.170 C 17.545 21.241,9.455 21.241,8.940 21.170 C 8.236 21.073,7.748 20.894,7.445 20.620 C 7.147 20.351,6.932 19.806,6.830 19.060 C 6.758 18.542,6.758 8.458,6.830 7.940 C 6.964 6.962,7.236 6.440,7.749 6.171 C 8.170 5.950,8.577 5.854,9.307 5.802 C 10.005 5.753,17.796 5.782,18.136 5.835 " stroke="none" fill-rule="evenodd" fill="black"></path></svg>