<svg width="24" height="24" viewBox="0 0 24 24" fill="none" xmlns="http://www.w3.org/2000/svg"><path d="M11.712 1.281 C 10.721 1.399,9.882 1.996,9.438 2.900 C 9.212 3.359,9.143 3.659,9.142 4.180 C 9.141 4.806,9.289 5.314,9.620 5.821 C 9.715 5.966,10.470 6.759,11.545 7.840 L 13.314 9.620 12.807 10.140 C 12.150 10.814,12.003 11.101,12.001 11.723 C 12.000 12.033,12.082 12.340,12.244 12.630 C 12.308 12.746,12.351 12.840,12.340 12.840 C 12.328 12.840,11.262 12.102,9.969 11.200 C 8.677 10.299,7.539 9.520,7.440 9.470 C 7.179 9.339,6.616 9.341,6.366 9.474 C 6.102 9.613,5.854 9.864,5.731 10.114 C 5.585 10.410,5.576 10.840,5.708 11.129 C 5.774 11.273,9.918 17.273,10.716 18.380 L 10.860 18.579 10.720 18.496 C 10.643 18.450,9.311 17.606,7.760 16.620 C 6.209 15.634,4.850 14.792,4.740 14.749 C 4.460 14.641,4.018 14.667,3.738 14.810 C 3.224 15.073,2.922 15.667,3.035 16.194 C 3.059 16.305,3.313 16.891,3.599 17.498 C 3.886 18.105,4.120 18.649,4.120 18.709 C 4.120 18.797,3.866 19.071,2.723 20.218 C 1.489 21.457,1.321 21.640,1.281 21.795 C 1.130 22.365,1.634 22.870,2.205 22.720 C 2.360 22.679,2.543 22.511,3.792 21.267 C 4.568 20.493,5.256 19.778,5.321 19.677 C 5.580 19.277,5.678 18.778,5.586 18.337 C 5.539 18.113,5.106 17.107,4.832 16.587 C 4.804 16.534,4.853 16.551,5.007 16.649 C 7.467 18.219,10.943 20.412,11.080 20.481 C 11.198 20.541,11.356 20.579,11.540 20.590 C 11.938 20.615,12.225 20.502,12.527 20.200 C 12.720 20.007,12.767 19.929,12.842 19.682 C 12.950 19.327,12.931 19.078,12.771 18.759 C 12.710 18.637,11.565 16.967,10.226 15.047 C 8.887 13.126,7.798 11.550,7.806 11.542 C 7.814 11.535,8.837 12.240,10.080 13.108 C 11.323 13.976,12.430 14.734,12.540 14.792 C 12.711 14.883,12.789 14.899,13.080 14.899 C 13.372 14.900,13.452 14.884,13.649 14.788 C 14.201 14.517,14.507 13.868,14.345 13.313 C 14.310 13.191,14.134 12.851,13.953 12.556 C 13.485 11.792,13.469 11.755,13.521 11.616 C 13.545 11.552,13.747 11.316,13.971 11.091 L 14.377 10.681 16.139 12.433 C 17.107 13.396,17.992 14.251,18.104 14.332 C 18.404 14.547,18.861 14.752,19.201 14.824 C 19.661 14.921,20.366 14.885,20.780 14.744 C 21.356 14.546,21.861 14.166,22.228 13.652 C 22.939 12.654,22.920 11.199,22.182 10.204 C 22.107 10.103,20.185 8.164,17.913 5.896 C 13.886 1.878,13.772 1.769,13.458 1.608 C 12.905 1.326,12.294 1.212,11.712 1.281 M12.683 2.896 C 12.870 2.988,13.412 3.512,15.997 6.097 L 19.086 9.187 18.893 9.258 C 18.085 9.556,17.327 10.313,17.117 11.030 C 17.090 11.123,17.056 11.200,17.043 11.200 C 17.029 11.200,15.639 9.819,13.955 8.130 C 10.445 4.612,10.660 4.871,10.660 4.180 C 10.660 3.821,10.671 3.759,10.770 3.571 C 11.065 3.012,11.517 2.749,12.140 2.773 C 12.391 2.783,12.508 2.810,12.683 2.896 M20.246 10.657 C 20.619 10.771,20.969 11.077,21.134 11.435 C 21.265 11.718,21.255 12.224,21.115 12.525 C 20.972 12.829,20.771 13.041,20.471 13.204 C 20.233 13.333,20.199 13.340,19.820 13.340 C 19.472 13.340,19.394 13.327,19.223 13.240 C 18.991 13.122,18.707 12.849,18.602 12.644 C 18.561 12.564,18.506 12.386,18.479 12.249 C 18.423 11.965,18.472 11.612,18.602 11.356 C 18.693 11.178,19.003 10.861,19.174 10.772 C 19.507 10.599,19.911 10.556,20.246 10.657 " fill="#1C274C" stroke="none" fill-rule="evenodd"></path></svg>