<svg width="24" height="24" viewBox="0 0 24 24" fill="none" xmlns="http://www.w3.org/2000/svg"><path d="M5.480 3.955 C 5.359 3.994,4.751 4.283,4.128 4.597 C 3.184 5.073,2.961 5.202,2.785 5.374 C 2.531 5.623,2.338 6.000,2.281 6.360 C 2.258 6.508,2.240 7.395,2.240 8.421 L 2.240 10.222 1.960 10.266 C 1.635 10.318,1.451 10.436,1.336 10.668 C 1.263 10.813,1.260 10.964,1.260 14.140 C 1.260 17.239,1.265 17.481,1.335 17.780 C 1.679 19.257,2.756 20.333,4.220 20.663 C 4.677 20.766,5.389 20.758,5.860 20.644 C 6.293 20.540,6.923 20.241,7.281 19.969 C 7.936 19.472,8.433 18.703,8.650 17.855 C 8.740 17.500,8.740 17.497,8.740 14.160 C 8.740 10.965,8.737 10.813,8.664 10.668 C 8.549 10.436,8.365 10.318,8.042 10.267 L 7.764 10.223 7.751 7.761 C 7.736 5.008,7.747 5.120,7.442 4.648 C 7.039 4.025,6.192 3.726,5.480 3.955 M16.200 4.267 C 13.877 4.377,11.778 5.799,10.824 7.910 C 10.431 8.782,10.275 9.517,10.275 10.500 C 10.275 11.949,10.704 13.209,11.582 14.340 C 12.553 15.590,13.907 16.383,15.560 16.671 L 15.740 16.703 15.751 17.969 L 15.761 19.235 14.531 19.247 C 13.188 19.261,13.184 19.262,12.953 19.506 C 12.759 19.711,12.703 20.027,12.814 20.292 C 12.879 20.447,13.119 20.667,13.271 20.709 C 13.331 20.726,14.784 20.740,16.500 20.740 C 18.216 20.740,19.669 20.726,19.729 20.709 C 19.881 20.667,20.121 20.447,20.186 20.292 C 20.297 20.027,20.241 19.711,20.047 19.506 C 19.816 19.262,19.812 19.261,18.469 19.247 L 17.239 19.235 17.249 17.969 L 17.260 16.703 17.440 16.671 C 18.089 16.558,18.532 16.426,19.058 16.190 C 20.781 15.415,22.071 13.887,22.545 12.061 C 22.789 11.121,22.789 9.879,22.545 8.939 C 21.914 6.507,19.834 4.650,17.380 4.326 C 17.010 4.277,16.516 4.252,16.200 4.267 M6.151 5.422 L 6.240 5.485 6.240 7.862 L 6.240 10.240 5.000 10.240 L 3.759 10.240 3.770 8.350 L 3.780 6.460 4.860 5.912 C 5.454 5.611,5.967 5.363,6.001 5.362 C 6.035 5.361,6.102 5.388,6.151 5.422 M17.305 5.822 C 18.246 5.986,19.063 6.399,19.756 7.059 C 20.730 7.988,21.240 9.171,21.240 10.500 C 21.240 12.013,20.538 13.408,19.319 14.317 C 17.667 15.549,15.333 15.549,13.681 14.317 C 12.462 13.408,11.760 12.013,11.760 10.500 C 11.760 9.255,12.205 8.139,13.059 7.244 C 13.778 6.490,14.670 6.004,15.664 5.824 C 16.092 5.747,16.869 5.746,17.305 5.822 M7.240 14.518 C 7.240 16.364,7.225 17.346,7.196 17.488 C 7.029 18.294,6.294 19.029,5.488 19.196 C 5.217 19.252,4.783 19.252,4.512 19.196 C 3.706 19.029,2.971 18.294,2.804 17.488 C 2.775 17.346,2.760 16.364,2.760 14.518 L 2.760 11.760 5.000 11.760 L 7.240 11.760 7.240 14.518 " stroke="none" fill-rule="evenodd" fill="black"></path></svg>