<svg width="24" height="24" viewBox="0 0 24 24" fill="none" xmlns="http://www.w3.org/2000/svg"><path d="M16.340 6.260 C 16.318 6.267,16.251 6.284,16.191 6.297 C 16.044 6.329,15.801 6.548,15.734 6.708 C 15.623 6.973,15.679 7.289,15.873 7.494 C 16.113 7.747,16.033 7.738,18.189 7.760 L 20.158 7.780 16.648 11.260 C 14.609 13.282,13.044 14.803,12.912 14.891 C 12.389 15.238,12.369 15.225,10.420 13.319 C 9.243 12.168,8.768 11.881,8.034 11.880 C 7.500 11.880,7.062 12.067,6.463 12.552 C 6.009 12.919,1.415 17.508,1.335 17.673 C 1.294 17.758,1.266 17.907,1.267 18.026 C 1.272 18.502,1.694 18.815,2.189 18.710 C 2.372 18.672,2.473 18.578,4.740 16.325 C 6.038 15.035,7.217 13.878,7.360 13.755 C 7.658 13.497,7.894 13.360,8.039 13.360 C 8.248 13.361,8.577 13.615,9.354 14.374 C 11.007 15.988,11.281 16.215,11.832 16.429 C 12.050 16.515,12.170 16.534,12.480 16.537 C 13.057 16.542,13.429 16.393,14.028 15.920 C 14.153 15.821,15.823 14.187,17.738 12.290 L 21.220 8.839 21.240 10.790 C 21.260 12.735,21.260 12.740,21.352 12.901 C 21.500 13.158,21.684 13.260,22.000 13.260 C 22.316 13.260,22.500 13.158,22.648 12.901 L 22.740 12.740 22.751 9.903 C 22.759 7.920,22.749 7.000,22.718 6.849 C 22.660 6.571,22.455 6.354,22.189 6.286 C 22.057 6.253,21.201 6.241,19.192 6.243 C 17.646 6.245,16.362 6.252,16.340 6.260 " stroke="none" fill-rule="evenodd" fill="black"></path></svg>