<svg width="24" height="24" viewBox="0 0 24 24" fill="none" xmlns="http://www.w3.org/2000/svg"><path d="M8.815 1.277 C 8.638 1.321,8.461 1.456,8.353 1.631 C 8.266 1.771,8.259 1.827,8.246 2.550 C 8.231 3.432,8.285 3.335,7.780 3.382 C 5.598 3.582,4.249 4.537,3.677 6.288 C 3.552 6.671,3.424 7.317,3.382 7.780 C 3.335 8.285,3.432 8.231,2.550 8.246 C 1.822 8.259,1.772 8.265,1.627 8.355 C 1.385 8.506,1.267 8.718,1.267 9.003 C 1.267 9.203,1.286 9.270,1.383 9.408 C 1.591 9.702,1.713 9.738,2.556 9.754 L 3.292 9.768 3.266 10.250 C 3.252 10.515,3.240 10.845,3.240 10.982 L 3.240 11.232 2.510 11.246 C 1.824 11.259,1.771 11.266,1.627 11.355 C 1.385 11.506,1.267 11.718,1.267 12.003 C 1.267 12.203,1.286 12.270,1.383 12.408 C 1.590 12.700,1.715 12.738,2.530 12.754 L 3.240 12.768 3.240 13.018 C 3.240 13.155,3.252 13.485,3.266 13.750 L 3.292 14.232 2.536 14.246 C 1.823 14.259,1.771 14.265,1.627 14.355 C 1.385 14.506,1.267 14.718,1.267 15.003 C 1.267 15.203,1.286 15.270,1.383 15.408 C 1.592 15.703,1.711 15.738,2.570 15.754 C 3.429 15.769,3.335 15.716,3.382 16.220 C 3.629 18.914,4.990 20.308,7.660 20.602 C 7.880 20.626,8.099 20.653,8.146 20.663 C 8.231 20.679,8.233 20.698,8.246 21.450 C 8.259 22.173,8.266 22.229,8.353 22.369 C 8.710 22.943,9.576 22.812,9.716 22.162 C 9.740 22.049,9.760 21.675,9.760 21.332 L 9.760 20.708 10.270 20.734 C 10.550 20.748,10.882 20.760,11.006 20.760 L 11.232 20.760 11.246 21.490 C 11.259 22.171,11.266 22.230,11.353 22.369 C 11.710 22.943,12.576 22.812,12.716 22.162 C 12.740 22.049,12.760 21.687,12.760 21.358 L 12.760 20.760 12.990 20.760 C 13.117 20.760,13.448 20.748,13.726 20.734 L 14.232 20.708 14.246 21.464 C 14.259 22.172,14.266 22.229,14.353 22.369 C 14.710 22.943,15.576 22.812,15.716 22.162 C 15.740 22.049,15.760 21.669,15.760 21.319 C 15.760 20.581,15.685 20.674,16.340 20.602 C 18.981 20.311,20.311 18.981,20.602 16.340 C 20.674 15.685,20.581 15.760,21.319 15.760 C 22.122 15.760,22.319 15.721,22.520 15.520 C 22.918 15.122,22.730 14.423,22.189 14.286 C 22.087 14.261,21.715 14.240,21.356 14.240 L 20.708 14.240 20.734 13.694 C 20.748 13.393,20.760 13.060,20.760 12.954 L 20.760 12.760 21.358 12.760 C 22.121 12.760,22.321 12.719,22.520 12.520 C 22.918 12.122,22.730 11.423,22.189 11.286 C 22.087 11.261,21.725 11.240,21.382 11.240 L 20.760 11.240 20.760 11.010 C 20.760 10.883,20.748 10.550,20.734 10.270 L 20.708 9.760 21.332 9.760 C 22.122 9.760,22.320 9.720,22.520 9.520 C 22.918 9.122,22.730 8.423,22.189 8.286 C 22.086 8.261,21.712 8.240,21.343 8.240 C 20.577 8.240,20.674 8.316,20.602 7.660 C 20.311 5.019,18.981 3.689,16.340 3.398 C 15.685 3.326,15.760 3.419,15.760 2.681 C 15.760 1.881,15.720 1.680,15.522 1.482 C 15.173 1.133,14.619 1.203,14.353 1.631 C 14.266 1.771,14.259 1.828,14.246 2.536 L 14.232 3.292 13.726 3.266 C 13.448 3.252,13.117 3.240,12.990 3.240 L 12.760 3.240 12.760 2.642 C 12.760 1.881,12.718 1.678,12.522 1.482 C 12.173 1.133,11.619 1.203,11.353 1.631 C 11.266 1.770,11.259 1.829,11.246 2.510 L 11.232 3.240 11.006 3.240 C 10.882 3.240,10.550 3.252,10.270 3.266 L 9.760 3.292 9.759 2.656 C 9.758 1.950,9.721 1.722,9.580 1.536 C 9.421 1.327,9.078 1.211,8.815 1.277 M15.340 4.801 C 16.245 4.860,16.701 4.931,17.200 5.089 C 18.137 5.386,18.657 5.927,18.939 6.901 C 19.190 7.768,19.240 8.610,19.240 12.000 C 19.240 15.383,19.190 16.233,18.941 17.093 C 18.523 18.534,17.647 19.046,15.341 19.198 C 14.511 19.252,9.489 19.252,8.659 19.198 C 5.889 19.016,5.093 18.317,4.833 15.840 C 4.758 15.128,4.758 8.872,4.833 8.160 C 5.051 6.077,5.679 5.278,7.360 4.944 C 7.628 4.891,8.303 4.820,8.860 4.786 C 9.395 4.754,14.815 4.766,15.340 4.801 M8.780 6.280 C 8.203 6.312,7.952 6.354,7.640 6.470 C 6.881 6.754,6.475 7.302,6.314 8.260 C 6.236 8.726,6.236 15.274,6.314 15.740 C 6.512 16.918,7.083 17.488,8.260 17.686 C 8.725 17.764,15.275 17.764,15.740 17.686 C 16.917 17.488,17.488 16.917,17.686 15.740 C 17.764 15.275,17.764 8.725,17.686 8.260 C 17.495 7.120,16.954 6.550,15.860 6.336 C 15.590 6.283,15.058 6.271,12.440 6.261 C 10.735 6.254,9.088 6.262,8.780 6.280 M15.775 7.835 C 15.980 7.903,16.103 8.032,16.167 8.245 C 16.245 8.501,16.245 15.499,16.167 15.755 C 16.100 15.976,15.976 16.100,15.755 16.167 C 15.499 16.245,8.501 16.245,8.245 16.167 C 8.032 16.103,7.903 15.980,7.835 15.775 C 7.766 15.570,7.734 8.888,7.799 8.466 C 7.872 7.995,7.982 7.876,8.408 7.804 C 8.525 7.784,10.191 7.771,12.120 7.775 C 14.865 7.781,15.653 7.794,15.775 7.835 " stroke="none" fill-rule="evenodd" fill="black"></path></svg>