<svg width="24" height="24" viewBox="0 0 24 24" fill="none" xmlns="http://www.w3.org/2000/svg"><path d="M8.960 1.280 C 6.960 1.332,5.848 1.469,4.900 1.779 C 3.060 2.382,1.958 3.688,1.563 5.734 C 1.311 7.042,1.267 7.973,1.267 12.000 C 1.267 16.027,1.311 16.958,1.563 18.266 C 2.013 20.599,3.401 21.987,5.734 22.437 C 7.034 22.688,7.987 22.733,12.000 22.733 C 16.013 22.733,16.966 22.688,18.266 22.437 C 20.599 21.987,21.987 20.599,22.437 18.266 C 22.688 16.966,22.733 16.013,22.733 12.000 C 22.733 7.987,22.688 7.034,22.437 5.734 C 22.098 3.977,21.228 2.756,19.825 2.068 C 18.978 1.652,17.875 1.425,16.200 1.321 C 15.315 1.266,10.534 1.239,8.960 1.280 M16.787 2.853 C 17.971 2.982,18.589 3.129,19.180 3.421 C 20.200 3.924,20.776 4.815,21.019 6.260 C 21.215 7.435,21.251 8.515,21.229 12.620 C 21.210 16.115,21.195 16.526,21.055 17.500 C 20.734 19.744,19.757 20.726,17.520 21.054 C 16.474 21.207,16.036 21.220,12.000 21.220 C 7.964 21.220,7.526 21.207,6.480 21.054 C 4.384 20.747,3.408 19.870,3.021 17.947 C 2.796 16.826,2.780 16.428,2.780 12.000 C 2.780 8.382,2.788 7.864,2.852 7.240 C 3.025 5.550,3.340 4.663,4.001 4.001 C 4.665 3.338,5.593 3.009,7.220 2.862 C 8.207 2.772,8.227 2.772,12.400 2.782 C 15.524 2.790,16.323 2.803,16.787 2.853 M8.800 7.283 C 7.590 7.385,6.503 7.891,5.635 8.756 C 4.281 10.106,3.894 12.032,4.626 13.780 C 5.033 14.754,5.917 15.680,6.921 16.183 C 8.149 16.799,9.625 16.906,10.960 16.474 C 11.351 16.348,11.515 16.242,11.633 16.042 C 11.867 15.642,11.704 15.163,11.271 14.982 C 11.064 14.895,10.960 14.903,10.539 15.038 C 10.062 15.191,9.755 15.239,9.257 15.240 C 8.190 15.240,7.327 14.867,6.597 14.089 C 6.244 13.713,6.036 13.375,5.891 12.940 C 5.793 12.648,5.784 12.566,5.784 12.000 C 5.784 11.434,5.793 11.352,5.891 11.060 C 6.036 10.625,6.244 10.287,6.597 9.911 C 7.327 9.133,8.190 8.760,9.257 8.760 C 9.755 8.761,10.062 8.809,10.539 8.962 C 10.960 9.097,11.064 9.105,11.271 9.018 C 11.572 8.892,11.730 8.661,11.734 8.339 C 11.739 8.041,11.585 7.797,11.310 7.665 C 10.691 7.366,9.667 7.210,8.800 7.283 M16.800 7.283 C 15.590 7.385,14.503 7.891,13.635 8.756 C 12.281 10.106,11.894 12.032,12.626 13.780 C 13.033 14.754,13.917 15.680,14.921 16.183 C 16.149 16.799,17.625 16.906,18.960 16.474 C 19.351 16.348,19.515 16.242,19.633 16.042 C 19.867 15.642,19.704 15.163,19.271 14.982 C 19.064 14.895,18.960 14.903,18.539 15.038 C 18.062 15.191,17.755 15.239,17.257 15.240 C 16.190 15.240,15.327 14.867,14.597 14.089 C 14.244 13.713,14.036 13.375,13.891 12.940 C 13.793 12.648,13.784 12.566,13.784 12.000 C 13.784 11.434,13.793 11.352,13.891 11.060 C 14.036 10.625,14.244 10.287,14.597 9.911 C 15.327 9.133,16.190 8.760,17.257 8.760 C 17.755 8.761,18.062 8.809,18.539 8.962 C 18.960 9.097,19.064 9.105,19.271 9.018 C 19.572 8.892,19.730 8.661,19.734 8.339 C 19.739 8.041,19.585 7.797,19.310 7.665 C 18.691 7.366,17.667 7.210,16.800 7.283 " stroke="none" fill-rule="evenodd" fill="black"></path></svg>