<svg width="24" height="24" viewBox="0 0 24 24" fill="none" xmlns="http://www.w3.org/2000/svg"><path d="M4.815 1.278 C 4.639 1.320,4.462 1.455,4.353 1.631 C 4.262 1.777,4.260 1.804,4.247 3.007 L 4.235 4.235 3.004 4.247 L 1.774 4.260 1.612 4.367 C 1.372 4.526,1.267 4.721,1.267 5.007 C 1.267 5.203,1.286 5.270,1.383 5.408 C 1.610 5.729,1.656 5.738,3.030 5.753 L 4.240 5.765 4.241 8.953 C 4.243 13.480,4.288 14.803,4.481 15.904 C 4.831 17.904,5.950 19.075,7.899 19.482 C 8.951 19.702,10.390 19.757,15.067 19.759 L 18.235 19.760 18.247 20.990 C 18.260 22.196,18.262 22.223,18.353 22.369 C 18.710 22.943,19.576 22.812,19.716 22.162 C 19.742 22.040,19.760 21.509,19.760 20.858 L 19.760 19.760 20.858 19.760 C 22.144 19.760,22.303 19.737,22.520 19.520 C 22.918 19.122,22.730 18.423,22.189 18.286 C 22.053 18.252,20.455 18.240,16.152 18.240 C 12.495 18.240,10.059 18.224,9.659 18.198 C 6.908 18.017,6.124 17.341,5.833 14.900 C 5.799 14.615,5.779 12.684,5.763 8.160 C 5.741 2.047,5.737 1.815,5.664 1.668 C 5.573 1.484,5.395 1.343,5.180 1.284 C 5.003 1.236,4.993 1.236,4.815 1.278 M7.815 4.278 C 7.331 4.393,7.098 5.004,7.383 5.408 C 7.447 5.499,7.572 5.610,7.660 5.656 C 7.817 5.739,7.876 5.740,11.200 5.767 C 13.059 5.781,14.634 5.803,14.700 5.815 C 14.766 5.826,14.991 5.857,15.200 5.882 C 16.801 6.075,17.576 6.646,17.940 7.903 C 18.186 8.753,18.209 9.127,18.236 12.860 L 18.260 16.220 18.353 16.369 C 18.710 16.943,19.576 16.812,19.716 16.162 C 19.771 15.904,19.774 12.440,19.720 10.600 C 19.669 8.863,19.561 7.995,19.302 7.221 C 18.886 5.984,18.016 5.114,16.779 4.698 C 16.005 4.439,15.137 4.331,13.400 4.280 C 11.884 4.236,7.998 4.234,7.815 4.278 M9.920 7.800 C 8.734 7.927,8.089 8.472,7.849 9.549 C 7.788 9.823,7.780 10.116,7.780 12.000 C 7.780 14.360,7.790 14.474,8.035 15.016 C 8.252 15.494,8.570 15.796,9.073 15.999 C 9.592 16.210,9.725 16.220,12.000 16.220 C 14.275 16.220,14.408 16.210,14.927 15.999 C 15.602 15.726,15.998 15.207,16.164 14.380 C 16.245 13.974,16.245 10.026,16.164 9.620 C 16.005 8.827,15.635 8.316,15.017 8.036 C 14.497 7.800,14.407 7.792,12.220 7.779 C 11.120 7.773,10.085 7.782,9.920 7.800 M14.239 9.331 C 14.369 9.368,14.494 9.435,14.546 9.495 C 14.722 9.700,14.740 9.929,14.740 12.000 C 14.740 14.132,14.724 14.323,14.523 14.523 C 14.323 14.724,14.132 14.740,12.000 14.740 C 9.929 14.740,9.700 14.722,9.495 14.546 C 9.294 14.373,9.272 14.170,9.251 12.380 C 9.230 10.602,9.267 9.854,9.388 9.607 C 9.550 9.275,9.816 9.243,12.240 9.258 C 13.701 9.267,14.059 9.280,14.239 9.331 " stroke="none" fill-rule="evenodd" fill="black"></path></svg>