<svg width="24" height="24" viewBox="0 0 24 24" fill="none" xmlns="http://www.w3.org/2000/svg"><path d="M11.757 1.280 C 11.327 1.353,10.891 1.689,10.545 2.214 C 10.232 2.687,9.963 3.215,8.400 6.420 C 6.617 10.075,6.689 9.947,6.505 9.827 C 6.453 9.793,6.053 9.363,5.616 8.872 C 4.289 7.382,3.916 7.044,3.374 6.841 C 2.827 6.636,2.145 6.832,1.703 7.322 C 1.272 7.799,1.182 8.526,1.337 10.280 C 1.509 12.233,1.852 15.747,1.942 16.480 C 2.169 18.336,2.385 19.238,2.819 20.141 C 3.536 21.631,4.723 22.389,6.706 22.621 C 7.488 22.712,9.237 22.757,12.000 22.757 C 14.763 22.757,16.512 22.712,17.294 22.621 C 19.277 22.389,20.464 21.631,21.181 20.141 C 21.688 19.086,21.918 17.974,22.197 15.220 C 22.359 13.625,22.678 10.125,22.719 9.496 C 22.805 8.161,22.629 7.541,22.039 7.098 C 21.748 6.880,21.522 6.796,21.160 6.772 C 20.917 6.755,20.817 6.768,20.634 6.837 C 20.080 7.047,19.715 7.377,18.384 8.872 C 17.947 9.363,17.547 9.793,17.495 9.827 C 17.311 9.947,17.383 10.077,15.579 6.379 C 14.011 3.165,13.772 2.694,13.455 2.214 C 12.988 1.505,12.386 1.174,11.757 1.280 M12.180 2.990 C 12.353 3.225,13.096 4.693,14.522 7.620 C 15.757 10.157,15.898 10.425,16.161 10.748 C 16.589 11.273,17.269 11.481,17.892 11.277 C 18.280 11.149,18.610 10.872,19.308 10.087 C 20.280 8.994,20.724 8.521,20.916 8.374 C 21.082 8.247,21.097 8.243,21.166 8.306 C 21.315 8.440,21.272 9.219,20.898 13.160 C 20.525 17.080,20.387 18.025,20.040 19.010 C 19.583 20.308,18.816 20.902,17.320 21.117 C 16.620 21.218,15.697 21.239,12.000 21.239 C 8.303 21.239,7.380 21.218,6.680 21.117 C 5.844 20.997,5.178 20.724,4.758 20.331 C 4.122 19.734,3.770 18.779,3.502 16.915 C 3.304 15.537,2.804 10.207,2.772 9.140 C 2.751 8.419,2.754 8.376,2.829 8.310 C 2.904 8.242,2.914 8.244,3.084 8.374 C 3.276 8.521,3.720 8.994,4.692 10.087 C 5.390 10.872,5.720 11.149,6.108 11.277 C 6.731 11.481,7.411 11.273,7.839 10.748 C 8.102 10.425,8.248 10.148,9.460 7.658 C 11.330 3.815,11.861 2.800,12.000 2.800 C 12.022 2.800,12.102 2.885,12.180 2.990 M11.675 10.813 C 11.264 10.967,11.057 11.186,10.640 11.910 L 10.340 12.431 9.775 12.570 C 9.098 12.737,8.824 12.856,8.601 13.079 C 8.328 13.352,8.226 13.674,8.288 14.066 C 8.334 14.363,8.496 14.659,8.842 15.080 C 8.995 15.267,9.168 15.478,9.225 15.550 L 9.329 15.679 9.279 16.228 C 9.179 17.329,9.326 17.815,9.842 18.100 C 10.033 18.205,10.100 18.220,10.380 18.220 C 10.744 18.220,10.923 18.169,11.569 17.880 L 12.000 17.687 12.431 17.880 C 13.077 18.169,13.256 18.220,13.620 18.220 C 13.900 18.220,13.967 18.205,14.158 18.100 C 14.673 17.816,14.815 17.350,14.721 16.249 L 14.672 15.678 14.775 15.549 C 14.832 15.478,14.998 15.276,15.142 15.100 C 15.592 14.554,15.722 14.278,15.725 13.865 C 15.727 13.552,15.620 13.298,15.392 13.076 C 15.161 12.850,14.898 12.736,14.225 12.570 L 13.660 12.431 13.360 11.909 C 13.012 11.303,12.809 11.061,12.519 10.904 C 12.271 10.768,11.900 10.729,11.675 10.813 M12.237 12.950 C 12.361 13.171,12.543 13.427,12.657 13.542 C 12.878 13.762,13.085 13.848,13.710 13.981 C 13.892 14.020,14.039 14.062,14.039 14.076 C 14.038 14.089,13.894 14.271,13.718 14.480 C 13.542 14.689,13.351 14.956,13.293 15.073 C 13.188 15.284,13.188 15.290,13.212 15.943 L 13.237 16.600 13.089 16.534 C 12.020 16.060,11.980 16.060,10.910 16.535 L 10.760 16.601 10.786 15.943 C 10.812 15.289,10.812 15.285,10.707 15.073 C 10.649 14.956,10.458 14.689,10.282 14.480 C 10.106 14.271,9.962 14.089,9.961 14.076 C 9.961 14.062,10.109 14.020,10.290 13.981 C 10.915 13.848,11.122 13.762,11.343 13.542 C 11.457 13.427,11.639 13.171,11.763 12.950 C 11.882 12.736,11.989 12.560,12.000 12.560 C 12.011 12.560,12.118 12.736,12.237 12.950 " stroke="none" fill-rule="evenodd" fill="black"></path></svg>