<svg width="24" height="24" viewBox="0 0 24 24" fill="none" xmlns="http://www.w3.org/2000/svg"><path d="M5.520 2.282 C 4.418 2.327,3.893 2.457,3.364 2.817 C 2.750 3.234,2.439 3.854,2.311 4.913 C 2.240 5.504,2.241 13.908,2.312 14.769 C 2.428 16.175,2.736 17.022,3.357 17.643 C 3.979 18.265,4.847 18.579,6.246 18.688 C 7.106 18.754,12.921 18.753,13.760 18.686 C 15.800 18.523,16.851 17.882,17.359 16.490 C 17.571 15.909,17.719 14.891,17.720 14.014 L 17.720 13.768 18.150 13.740 C 19.500 13.655,20.572 13.171,21.441 12.256 C 22.293 11.358,22.727 10.260,22.727 9.000 C 22.727 7.656,22.224 6.478,21.256 5.559 C 20.392 4.739,19.393 4.329,18.076 4.257 L 17.572 4.230 17.486 3.960 C 17.264 3.273,16.720 2.737,16.008 2.505 C 15.546 2.354,15.301 2.320,14.360 2.280 C 13.370 2.237,6.565 2.239,5.520 2.282 M15.260 3.833 C 15.370 3.859,15.559 3.930,15.679 3.991 C 15.863 4.084,15.916 4.137,16.009 4.321 C 16.070 4.441,16.141 4.630,16.167 4.740 C 16.199 4.881,16.218 6.018,16.228 8.590 L 16.244 12.240 10.002 12.240 L 3.760 12.240 3.760 8.838 C 3.760 5.307,3.777 4.851,3.926 4.454 C 4.073 4.061,4.374 3.877,4.989 3.805 C 5.469 3.749,15.012 3.775,15.260 3.833 M18.980 5.895 C 19.506 6.067,19.854 6.285,20.284 6.716 C 20.712 7.143,20.928 7.485,21.108 8.020 C 21.209 8.316,21.217 8.389,21.217 9.000 C 21.217 9.611,21.209 9.684,21.108 9.980 C 20.928 10.515,20.712 10.857,20.284 11.284 C 19.655 11.913,19.048 12.190,18.210 12.230 L 17.760 12.251 17.760 9.336 C 17.760 7.732,17.748 6.269,17.733 6.084 L 17.707 5.748 18.184 5.770 C 18.545 5.786,18.737 5.816,18.980 5.895 M16.220 14.290 C 16.114 16.386,15.695 16.945,14.060 17.170 C 13.547 17.241,6.453 17.241,5.940 17.170 C 5.236 17.073,4.748 16.894,4.445 16.620 C 4.257 16.450,4.033 16.023,3.941 15.662 C 3.864 15.361,3.813 14.919,3.779 14.270 L 3.752 13.760 10.000 13.760 L 16.247 13.760 16.220 14.290 M1.815 20.278 C 1.331 20.393,1.098 21.004,1.383 21.408 C 1.448 21.499,1.572 21.610,1.660 21.656 L 1.820 21.740 11.880 21.751 C 19.099 21.758,22.000 21.749,22.154 21.717 C 22.902 21.562,22.929 20.473,22.189 20.286 C 21.978 20.233,2.036 20.225,1.815 20.278 " stroke="none" fill-rule="evenodd" fill="black"></path></svg>