<svg width="24" height="24" viewBox="0 0 24 24" fill="none" xmlns="http://www.w3.org/2000/svg"><path d="M7.480 1.280 C 6.252 1.342,5.561 1.562,4.908 2.101 C 4.207 2.679,3.883 3.311,3.147 5.540 C 2.738 6.776,2.672 7.043,2.673 7.440 C 2.673 7.814,2.784 8.128,3.016 8.414 C 3.346 8.821,3.796 9.023,4.471 9.068 C 4.805 9.090,4.843 9.101,4.860 9.176 C 4.870 9.222,5.204 11.492,5.601 14.220 C 6.404 19.727,6.441 19.971,6.583 20.540 C 6.869 21.684,7.477 22.343,8.486 22.597 C 8.991 22.725,9.748 22.760,12.000 22.760 C 14.252 22.760,15.009 22.725,15.514 22.597 C 16.523 22.343,17.130 21.686,17.417 20.540 C 17.554 19.996,17.614 19.605,18.419 14.080 C 18.806 11.429,19.130 9.222,19.140 9.176 C 19.157 9.100,19.195 9.090,19.529 9.068 C 20.204 9.023,20.654 8.821,20.984 8.414 C 21.219 8.125,21.325 7.819,21.324 7.436 C 21.323 7.026,21.260 6.770,20.853 5.540 C 20.427 4.249,20.218 3.706,19.960 3.208 C 19.378 2.087,18.494 1.498,17.120 1.316 C 16.715 1.262,8.449 1.231,7.480 1.280 M17.267 2.851 C 17.961 3.006,18.348 3.329,18.692 4.041 C 19.009 4.695,19.840 7.129,19.840 7.402 C 19.840 7.585,20.084 7.579,12.300 7.592 C 8.252 7.599,4.793 7.593,4.613 7.579 C 4.433 7.565,4.254 7.530,4.216 7.502 C 4.151 7.455,4.150 7.429,4.197 7.215 C 4.340 6.572,5.081 4.470,5.352 3.940 C 5.647 3.362,6.079 3.002,6.625 2.878 C 7.058 2.780,7.649 2.769,12.220 2.778 C 16.430 2.785,17.013 2.794,17.267 2.851 M17.621 9.170 C 17.602 9.251,17.320 11.176,17.320 11.221 C 17.320 11.232,14.926 11.240,12.000 11.240 C 9.074 11.240,6.680 11.231,6.680 11.220 C 6.680 11.176,6.397 9.255,6.379 9.170 L 6.358 9.080 12.000 9.080 L 17.642 9.080 17.621 9.170 M17.080 12.790 C 17.081 12.807,16.969 13.590,16.833 14.530 L 16.585 16.240 12.000 16.240 L 7.415 16.240 7.167 14.530 C 7.031 13.590,6.919 12.807,6.920 12.790 C 6.920 12.773,9.206 12.760,12.000 12.760 C 14.794 12.760,17.080 12.773,17.080 12.790 M16.341 17.890 C 16.329 17.962,16.273 18.335,16.218 18.720 C 16.020 20.085,15.854 20.700,15.625 20.915 C 15.487 21.045,15.203 21.151,14.867 21.197 C 14.671 21.224,13.604 21.240,12.000 21.240 C 10.396 21.240,9.329 21.224,9.133 21.197 C 8.797 21.151,8.513 21.045,8.375 20.915 C 8.146 20.700,7.980 20.085,7.782 18.720 C 7.727 18.335,7.671 17.962,7.659 17.890 L 7.636 17.760 12.000 17.760 L 16.364 17.760 16.341 17.890 " fill="#1C274C" stroke="none" fill-rule="evenodd"></path></svg>