<svg width="24" height="24" viewBox="0 0 24 24" fill="none" xmlns="http://www.w3.org/2000/svg"><path d="M6.214 1.277 C 6.048 1.352,5.936 1.482,5.567 2.025 C 5.337 2.362,5.271 2.563,5.272 2.920 C 5.273 3.306,5.385 3.610,5.622 3.874 C 5.720 3.983,5.800 4.083,5.800 4.097 C 5.800 4.111,5.697 4.269,5.571 4.449 C 5.364 4.745,5.342 4.797,5.329 5.017 C 5.313 5.308,5.387 5.476,5.610 5.654 C 5.817 5.819,6.120 5.846,6.379 5.721 C 6.526 5.649,6.618 5.554,6.844 5.234 C 6.999 5.016,7.171 4.734,7.227 4.609 C 7.317 4.406,7.326 4.339,7.312 4.020 C 7.292 3.591,7.213 3.389,6.951 3.099 L 6.770 2.899 6.946 2.659 C 7.198 2.317,7.280 2.146,7.280 1.960 C 7.280 1.781,7.195 1.545,7.088 1.427 C 6.889 1.207,6.512 1.142,6.214 1.277 M10.214 1.277 C 10.048 1.352,9.936 1.482,9.567 2.025 C 9.337 2.362,9.271 2.563,9.272 2.920 C 9.273 3.306,9.385 3.610,9.622 3.874 C 9.720 3.983,9.800 4.083,9.800 4.097 C 9.800 4.111,9.697 4.269,9.571 4.449 C 9.364 4.745,9.342 4.797,9.329 5.017 C 9.313 5.308,9.387 5.476,9.610 5.654 C 9.817 5.819,10.120 5.846,10.379 5.721 C 10.526 5.649,10.618 5.554,10.844 5.234 C 10.999 5.016,11.171 4.734,11.227 4.609 C 11.317 4.406,11.326 4.339,11.312 4.020 C 11.292 3.591,11.213 3.389,10.951 3.099 L 10.770 2.899 10.947 2.659 C 11.278 2.213,11.347 1.958,11.218 1.650 C 11.139 1.460,11.055 1.369,10.872 1.276 C 10.684 1.180,10.427 1.180,10.214 1.277 M14.214 1.277 C 14.048 1.352,13.936 1.482,13.567 2.025 C 13.337 2.362,13.271 2.563,13.272 2.920 C 13.273 3.306,13.385 3.610,13.622 3.874 C 13.720 3.983,13.800 4.083,13.800 4.097 C 13.800 4.111,13.697 4.269,13.571 4.449 C 13.364 4.745,13.342 4.797,13.329 5.017 C 13.313 5.308,13.387 5.476,13.610 5.654 C 13.817 5.819,14.120 5.846,14.379 5.721 C 14.526 5.649,14.618 5.554,14.844 5.234 C 14.999 5.016,15.171 4.734,15.227 4.609 C 15.317 4.406,15.326 4.339,15.312 4.020 C 15.292 3.591,15.213 3.389,14.951 3.099 L 14.770 2.899 14.947 2.659 C 15.278 2.213,15.347 1.958,15.218 1.650 C 15.139 1.460,15.055 1.369,14.872 1.276 C 14.684 1.180,14.427 1.180,14.214 1.277 M5.720 6.281 C 4.909 6.314,4.492 6.379,4.054 6.538 C 3.109 6.881,2.597 7.615,2.479 8.797 C 2.423 9.352,2.457 10.081,2.721 14.040 C 3.016 18.465,3.083 19.162,3.286 19.959 C 3.688 21.536,4.609 22.349,6.300 22.621 C 6.953 22.725,9.766 22.781,11.670 22.726 C 13.764 22.666,14.227 22.599,14.980 22.243 C 16.250 21.643,16.807 20.503,16.983 18.136 L 17.011 17.772 17.776 17.749 C 19.135 17.707,19.964 17.450,20.839 16.798 C 22.043 15.900,22.727 14.524,22.727 13.000 C 22.727 10.985,21.524 9.257,19.624 8.543 C 19.210 8.387,18.646 8.287,18.011 8.256 L 17.443 8.228 17.360 7.979 C 17.179 7.436,16.773 6.946,16.290 6.689 C 15.979 6.523,15.448 6.373,14.971 6.317 C 14.497 6.261,6.904 6.232,5.720 6.281 M15.151 7.852 C 15.903 8.054,16.006 8.235,16.029 9.380 C 16.042 9.996,16.003 10.774,15.823 13.480 C 15.701 15.317,15.591 16.915,15.578 17.030 L 15.554 17.240 10.000 17.240 L 4.446 17.240 4.422 17.030 C 4.345 16.350,3.960 10.073,3.960 9.498 C 3.960 8.778,4.013 8.435,4.155 8.240 C 4.324 8.007,4.684 7.858,5.216 7.800 C 5.372 7.783,7.615 7.773,10.200 7.777 C 14.475 7.784,14.923 7.790,15.151 7.852 M18.980 9.894 C 19.508 10.068,19.854 10.286,20.284 10.716 C 20.712 11.143,20.928 11.485,21.108 12.020 C 21.209 12.316,21.217 12.389,21.217 13.000 C 21.217 13.611,21.209 13.684,21.108 13.980 C 20.928 14.515,20.712 14.857,20.284 15.284 C 19.855 15.713,19.511 15.930,18.980 16.107 C 18.689 16.203,18.590 16.215,17.891 16.231 L 17.123 16.248 17.143 16.054 C 17.183 15.660,17.483 10.999,17.507 10.385 L 17.533 9.750 18.096 9.770 C 18.562 9.786,18.716 9.808,18.980 9.894 M15.386 19.002 C 15.349 19.357,15.211 19.864,15.071 20.158 C 14.791 20.746,14.312 21.024,13.325 21.169 C 12.833 21.242,7.167 21.242,6.675 21.169 C 5.688 21.024,5.209 20.746,4.929 20.158 C 4.789 19.864,4.651 19.357,4.614 19.002 L 4.589 18.760 10.000 18.760 L 15.411 18.760 15.386 19.002 " stroke="none" fill-rule="evenodd" fill="black"></path></svg>