<svg width="24" height="24" viewBox="0 0 24 24" fill="none" xmlns="http://www.w3.org/2000/svg"><path d="M10.885 1.283 C 8.986 1.349,6.630 1.682,5.905 1.987 C 4.975 2.377,4.428 3.133,4.289 4.217 L 4.260 4.448 3.500 4.716 C 2.256 5.155,1.836 5.433,1.545 6.009 C 1.301 6.493,1.270 6.731,1.268 8.120 C 1.266 9.489,1.297 9.735,1.524 10.162 C 1.823 10.723,2.072 10.900,4.264 12.115 L 5.789 12.961 5.999 13.330 C 6.393 14.026,6.923 14.691,7.445 15.147 C 7.780 15.440,8.384 15.852,8.740 16.030 C 9.307 16.314,10.089 16.555,10.720 16.641 C 10.907 16.666,11.101 16.695,11.150 16.704 L 11.240 16.722 11.240 17.741 L 11.240 18.760 10.410 18.760 C 9.290 18.761,9.041 18.832,8.590 19.283 C 8.283 19.590,8.179 19.831,8.023 20.593 L 7.895 21.220 6.834 21.240 L 5.774 21.260 5.612 21.367 C 5.372 21.526,5.267 21.721,5.267 22.007 C 5.267 22.203,5.286 22.270,5.383 22.408 C 5.447 22.499,5.572 22.610,5.660 22.656 C 5.820 22.740,5.822 22.740,11.880 22.751 C 16.193 22.758,18.002 22.749,18.154 22.717 C 18.827 22.578,18.948 21.641,18.332 21.336 C 18.198 21.269,18.054 21.258,17.143 21.240 L 16.105 21.220 15.977 20.593 C 15.906 20.248,15.804 19.870,15.750 19.753 C 15.554 19.327,15.091 18.940,14.634 18.818 C 14.482 18.777,14.179 18.761,13.590 18.760 L 12.760 18.760 12.760 17.741 L 12.760 16.722 12.850 16.704 C 12.900 16.695,13.093 16.666,13.280 16.641 C 15.269 16.371,16.935 15.203,18.001 13.331 L 18.211 12.962 19.735 12.116 C 21.981 10.869,22.214 10.700,22.500 10.101 C 22.709 9.664,22.735 9.443,22.733 8.120 C 22.730 6.771,22.694 6.493,22.453 6.009 C 22.167 5.435,21.746 5.156,20.500 4.716 L 19.740 4.448 19.711 4.217 C 19.572 3.133,19.025 2.377,18.095 1.987 C 17.621 1.788,16.092 1.515,14.700 1.382 C 14.158 1.330,11.987 1.229,11.800 1.247 C 11.767 1.250,11.355 1.266,10.885 1.283 M14.664 2.875 C 15.574 2.971,16.552 3.120,17.096 3.245 C 17.791 3.405,18.097 3.677,18.201 4.225 C 18.316 4.837,18.150 7.394,17.897 8.900 C 17.382 11.960,16.289 13.848,14.540 14.702 C 13.759 15.084,13.025 15.239,12.000 15.239 C 10.975 15.239,10.241 15.084,9.460 14.702 C 7.116 13.558,5.946 10.573,5.774 5.298 C 5.743 4.353,5.782 4.055,5.975 3.767 C 6.219 3.403,6.597 3.265,7.918 3.057 C 8.504 2.965,9.826 2.821,10.400 2.786 C 10.543 2.778,11.389 2.776,12.280 2.782 C 13.568 2.791,14.057 2.810,14.664 2.875 M12.180 5.836 C 12.010 5.916,10.413 7.498,10.318 7.680 C 10.233 7.845,10.253 8.207,10.356 8.374 C 10.622 8.803,11.155 8.856,11.559 8.493 L 11.760 8.313 11.761 9.486 C 11.762 10.539,11.769 10.676,11.835 10.820 C 11.923 11.010,12.012 11.096,12.210 11.178 C 12.398 11.257,12.602 11.257,12.790 11.178 C 12.988 11.096,13.077 11.010,13.165 10.820 C 13.233 10.671,13.238 10.511,13.238 8.500 C 13.238 6.489,13.233 6.329,13.165 6.180 C 13.077 5.990,12.988 5.904,12.790 5.822 C 12.594 5.740,12.376 5.745,12.180 5.836 M4.337 6.510 C 4.417 7.829,4.620 9.294,4.865 10.310 C 4.921 10.540,4.956 10.737,4.945 10.748 C 4.933 10.760,4.640 10.612,4.292 10.419 C 3.005 9.707,2.872 9.611,2.805 9.344 C 2.748 9.115,2.746 7.128,2.803 6.880 C 2.849 6.683,2.955 6.547,3.140 6.449 C 3.272 6.379,4.194 6.046,4.265 6.042 C 4.293 6.041,4.319 6.206,4.337 6.510 M20.221 6.202 C 20.983 6.465,21.123 6.562,21.197 6.880 C 21.254 7.128,21.252 9.115,21.195 9.344 C 21.128 9.611,20.995 9.707,19.708 10.419 C 19.360 10.612,19.067 10.760,19.055 10.748 C 19.044 10.737,19.079 10.540,19.135 10.310 C 19.256 9.808,19.414 8.916,19.499 8.260 C 19.569 7.713,19.679 6.464,19.680 6.210 C 19.680 6.117,19.696 6.040,19.716 6.040 C 19.735 6.040,19.963 6.113,20.221 6.202 M14.335 20.300 C 14.409 20.375,14.420 20.410,14.514 20.870 L 14.590 21.240 12.000 21.240 L 9.410 21.240 9.486 20.870 C 9.580 20.410,9.591 20.375,9.665 20.300 C 9.756 20.209,14.244 20.209,14.335 20.300 " stroke="none" fill-rule="evenodd" fill="black"></path></svg>