<svg width="24" height="24" viewBox="0 0 24 24" fill="none" xmlns="http://www.w3.org/2000/svg"><path d="M11.640 1.281 C 10.774 1.362,10.066 1.656,8.320 2.661 C 6.219 3.870,4.591 4.886,4.058 5.322 C 3.261 5.973,2.744 6.746,2.519 7.624 C 2.353 8.269,2.317 8.667,2.271 10.350 C 2.218 12.277,2.273 15.029,2.377 15.680 C 2.552 16.775,2.870 17.474,3.500 18.152 C 4.029 18.722,4.670 19.173,6.520 20.280 C 8.662 21.561,9.650 22.109,10.260 22.354 C 11.519 22.859,12.479 22.859,13.740 22.354 C 14.785 21.936,19.045 19.411,19.942 18.678 C 20.739 18.027,21.256 17.254,21.481 16.376 C 21.647 15.731,21.683 15.333,21.729 13.650 C 21.781 11.722,21.727 8.969,21.623 8.320 C 21.448 7.226,21.130 6.526,20.500 5.848 C 20.135 5.455,19.768 5.161,19.078 4.709 C 18.144 4.097,15.503 2.533,14.520 2.010 C 13.439 1.435,12.509 1.200,11.640 1.281 M12.780 2.879 C 13.401 3.076,14.310 3.566,16.660 4.971 C 18.394 6.007,18.830 6.305,19.283 6.757 C 19.598 7.072,19.697 7.201,19.834 7.480 C 20.031 7.880,20.145 8.363,20.200 9.031 C 20.250 9.641,20.250 14.359,20.200 14.969 C 20.116 15.979,19.895 16.594,19.435 17.096 C 18.948 17.627,18.449 17.968,16.239 19.279 C 13.302 21.022,12.735 21.275,11.882 21.229 C 11.068 21.185,10.431 20.877,7.340 19.029 C 5.606 17.993,5.170 17.695,4.717 17.243 C 4.402 16.928,4.303 16.799,4.166 16.520 C 3.969 16.120,3.855 15.637,3.800 14.969 C 3.750 14.359,3.750 9.641,3.800 9.031 C 3.887 7.983,4.112 7.379,4.612 6.853 C 5.104 6.335,5.670 5.955,7.980 4.589 C 10.042 3.371,10.747 3.006,11.367 2.839 C 11.757 2.733,12.376 2.751,12.780 2.879 M11.815 6.277 C 11.638 6.321,11.461 6.456,11.353 6.631 L 11.260 6.780 11.260 10.000 L 11.260 13.220 11.353 13.369 C 11.710 13.943,12.576 13.812,12.716 13.162 C 12.775 12.887,12.776 7.097,12.717 6.841 C 12.623 6.432,12.215 6.177,11.815 6.277 M11.667 15.065 C 11.303 15.177,11.000 15.602,11.000 16.000 C 11.000 16.517,11.483 17.000,12.000 17.000 C 12.517 17.000,13.000 16.517,13.000 16.000 C 13.000 15.598,12.688 15.173,12.310 15.061 C 12.061 14.987,11.919 14.988,11.667 15.065 " stroke="none" fill-rule="evenodd" fill="black"></path></svg>