<svg width="24" height="24" viewBox="0 0 24 24" fill="none" xmlns="http://www.w3.org/2000/svg"><path d="M11.541 2.287 C 10.228 2.436,9.019 3.382,7.712 5.283 C 6.891 6.475,5.872 8.212,3.569 12.340 C 1.963 15.221,1.395 16.565,1.285 17.744 C 1.112 19.604,2.255 20.918,4.460 21.395 C 5.504 21.621,6.229 21.670,9.350 21.727 C 11.420 21.765,12.580 21.765,14.650 21.727 C 17.771 21.670,18.496 21.621,19.540 21.395 C 20.982 21.083,21.942 20.441,22.432 19.458 C 22.889 18.544,22.826 17.411,22.235 15.912 C 21.827 14.876,21.060 13.428,18.900 9.620 C 17.160 6.550,16.327 5.227,15.542 4.286 C 14.488 3.021,13.522 2.407,12.392 2.283 C 11.964 2.236,11.991 2.236,11.541 2.287 M12.506 3.816 C 13.007 3.949,13.411 4.208,13.922 4.725 C 14.795 5.606,15.646 6.907,17.580 10.320 C 20.213 14.966,20.759 16.034,21.108 17.207 C 21.201 17.523,21.218 17.654,21.219 18.060 C 21.220 18.508,21.212 18.555,21.105 18.774 C 20.772 19.453,19.949 19.865,18.540 20.055 C 17.411 20.208,16.941 20.220,12.000 20.220 C 7.059 20.220,6.589 20.208,5.460 20.055 C 4.051 19.865,3.228 19.453,2.895 18.774 C 2.786 18.552,2.780 18.513,2.784 18.040 C 2.787 17.599,2.802 17.492,2.912 17.136 C 3.241 16.071,3.733 15.091,5.652 11.680 C 8.124 7.285,8.874 6.080,9.805 5.015 C 10.394 4.340,10.902 3.976,11.476 3.818 C 11.724 3.749,12.253 3.748,12.506 3.816 M11.815 7.277 C 11.638 7.321,11.461 7.456,11.353 7.631 L 11.260 7.780 11.260 10.500 L 11.260 13.220 11.353 13.369 C 11.710 13.943,12.576 13.812,12.716 13.162 C 12.775 12.888,12.775 8.095,12.717 7.841 C 12.623 7.432,12.215 7.177,11.815 7.277 M11.667 15.065 C 11.303 15.177,11.000 15.602,11.000 16.000 C 11.000 16.517,11.483 17.000,12.000 17.000 C 12.517 17.000,13.000 16.517,13.000 16.000 C 13.000 15.598,12.688 15.173,12.310 15.061 C 12.061 14.987,11.919 14.988,11.667 15.065 " stroke="none" fill-rule="evenodd" fill="black"></path></svg>