<svg width="24" height="24" viewBox="0 0 24 24" fill="none" xmlns="http://www.w3.org/2000/svg"><path d="M11.169 1.283 C 9.079 1.382,7.075 1.894,5.669 2.688 C 4.404 3.403,3.647 4.245,3.350 5.268 L 3.260 5.580 3.260 12.000 L 3.260 18.420 3.350 18.732 C 3.647 19.755,4.404 20.597,5.669 21.312 C 8.025 22.643,11.831 23.095,15.131 22.435 C 16.890 22.084,18.388 21.431,19.400 20.576 C 20.033 20.041,20.447 19.429,20.650 18.732 L 20.740 18.420 20.740 12.000 L 20.740 5.580 20.650 5.268 C 20.353 4.245,19.596 3.403,18.331 2.688 C 17.221 2.061,15.667 1.589,14.040 1.384 C 13.623 1.331,11.994 1.229,11.860 1.247 C 11.838 1.250,11.527 1.266,11.169 1.283 M13.854 2.857 C 16.518 3.238,18.485 4.181,19.072 5.358 C 19.208 5.632,19.220 5.683,19.220 6.000 C 19.220 6.317,19.208 6.368,19.072 6.642 C 18.556 7.677,16.777 8.629,14.640 9.015 C 13.638 9.196,13.367 9.217,12.020 9.218 C 10.674 9.219,10.439 9.202,9.480 9.035 C 7.249 8.645,5.457 7.703,4.928 6.642 C 4.792 6.368,4.780 6.317,4.780 6.000 C 4.780 5.683,4.792 5.632,4.928 5.358 C 5.381 4.449,6.789 3.606,8.620 3.146 C 9.254 2.987,9.983 2.869,10.860 2.784 C 11.263 2.745,13.441 2.798,13.854 2.857 M5.669 9.312 C 7.450 10.315,10.090 10.839,12.750 10.717 C 15.191 10.605,17.294 10.014,18.810 9.015 L 19.242 8.730 19.231 10.537 L 19.220 12.344 19.072 12.642 C 18.556 13.677,16.777 14.629,14.640 15.015 C 13.638 15.196,13.367 15.217,12.020 15.218 C 10.674 15.219,10.439 15.202,9.480 15.035 C 7.249 14.645,5.457 13.703,4.928 12.642 L 4.780 12.344 4.769 10.534 L 4.758 8.723 5.069 8.936 C 5.240 9.053,5.510 9.223,5.669 9.312 M5.669 15.312 C 8.034 16.644,11.831 17.095,15.131 16.435 C 16.576 16.147,17.825 15.664,18.810 15.015 L 19.242 14.730 19.231 16.537 L 19.220 18.344 19.072 18.642 C 18.556 19.677,16.777 20.629,14.640 21.015 C 13.638 21.196,13.367 21.217,12.020 21.218 C 10.674 21.219,10.439 21.202,9.480 21.035 C 7.249 20.645,5.457 19.703,4.928 18.642 L 4.780 18.344 4.769 16.534 L 4.758 14.723 5.069 14.936 C 5.240 15.053,5.510 15.223,5.669 15.312 " stroke="none" fill-rule="evenodd" fill="black"></path></svg>