<svg width="24" height="24" viewBox="0 0 24 24" fill="none" xmlns="http://www.w3.org/2000/svg"><path d="M16.433 2.284 C 15.963 2.330,15.141 2.518,13.144 3.038 C 11.256 3.530,10.489 3.748,10.054 3.917 C 9.162 4.264,8.576 4.847,8.379 5.583 C 8.288 5.925,8.296 6.643,8.396 7.123 C 8.548 7.854,9.288 10.606,9.682 11.905 C 10.017 13.008,10.286 13.529,10.737 13.952 C 11.382 14.554,12.259 14.700,13.560 14.421 C 14.542 14.211,17.896 13.334,18.700 13.078 C 20.125 12.623,20.773 11.995,20.919 10.925 C 21.002 10.321,20.898 9.732,20.357 7.753 C 19.395 4.233,19.214 3.713,18.743 3.114 C 18.401 2.679,17.811 2.352,17.276 2.301 C 17.135 2.287,16.966 2.271,16.900 2.264 C 16.834 2.257,16.624 2.266,16.433 2.284 M17.322 3.850 C 17.734 4.058,17.908 4.494,18.661 7.218 C 19.337 9.662,19.405 9.949,19.426 10.440 C 19.443 10.824,19.436 10.873,19.352 11.016 C 19.110 11.428,18.742 11.562,15.656 12.363 C 13.626 12.890,12.776 13.080,12.440 13.080 C 11.819 13.079,11.544 12.796,11.222 11.820 C 11.048 11.295,10.233 8.374,9.998 7.440 C 9.812 6.698,9.754 6.132,9.841 5.911 C 9.994 5.522,10.419 5.313,11.840 4.925 C 12.942 4.624,15.551 3.958,16.005 3.862 C 16.616 3.732,17.080 3.728,17.322 3.850 M2.633 4.801 C 2.235 5.011,2.132 5.570,2.426 5.920 C 2.577 6.099,2.655 6.130,3.664 6.411 C 4.168 6.552,4.651 6.701,4.739 6.742 C 4.923 6.829,5.169 7.063,5.258 7.236 C 5.318 7.352,7.280 14.398,7.280 14.497 C 7.280 14.524,7.189 14.567,7.078 14.593 C 6.282 14.777,5.382 15.415,4.907 16.132 C 3.822 17.769,4.280 20.003,5.927 21.104 C 7.417 22.100,9.420 21.918,10.675 20.673 C 11.006 20.345,11.244 20.008,11.437 19.594 C 11.649 19.140,11.720 18.857,11.748 18.351 C 11.768 17.989,11.782 17.918,11.842 17.899 C 11.880 17.887,13.780 17.392,16.063 16.799 C 18.346 16.206,20.279 15.687,20.357 15.647 C 20.436 15.606,20.554 15.497,20.619 15.404 C 20.719 15.263,20.738 15.197,20.737 15.008 C 20.736 14.729,20.651 14.557,20.439 14.404 C 20.127 14.178,20.348 14.134,15.660 15.353 L 11.380 16.467 11.283 16.303 C 11.019 15.858,10.609 15.423,10.180 15.133 C 9.850 14.910,9.640 14.807,9.221 14.660 L 8.861 14.535 7.812 10.738 C 7.235 8.649,6.717 6.832,6.661 6.700 C 6.525 6.381,6.199 5.952,5.923 5.732 C 5.558 5.439,5.139 5.264,4.124 4.981 C 3.106 4.697,2.881 4.670,2.633 4.801 M8.500 16.020 C 9.631 16.258,10.398 17.294,10.245 18.377 C 10.123 19.240,9.461 19.963,8.597 20.175 C 7.828 20.365,7.061 20.162,6.485 19.619 C 5.707 18.886,5.594 17.728,6.217 16.891 C 6.437 16.596,6.564 16.479,6.855 16.304 C 7.367 15.997,7.928 15.900,8.500 16.020 " fill="#1C274C" stroke="none" fill-rule="evenodd"></path></svg>