<svg width="24" height="24" viewBox="0 0 24 24" fill="none" xmlns="http://www.w3.org/2000/svg"><path d="M11.400 1.283 C 9.908 1.325,8.965 1.449,8.221 1.698 C 6.856 2.156,5.949 3.162,5.577 4.626 C 5.400 5.325,5.281 6.532,5.280 7.636 C 5.280 8.173,5.287 8.224,5.376 8.377 C 5.626 8.803,6.255 8.859,6.572 8.482 C 6.727 8.298,6.751 8.162,6.776 7.335 C 6.839 5.308,7.061 4.416,7.666 3.763 C 8.140 3.250,8.852 2.979,10.100 2.835 C 10.674 2.769,16.325 2.739,17.260 2.798 C 18.250 2.860,18.681 2.924,19.200 3.089 C 20.552 3.517,21.050 4.407,21.198 6.659 C 21.254 7.516,21.254 16.484,21.198 17.341 C 21.047 19.641,20.533 20.524,19.104 20.938 C 18.274 21.178,17.841 21.207,14.637 21.235 L 11.774 21.260 11.612 21.367 C 11.372 21.526,11.267 21.721,11.267 22.007 C 11.267 22.203,11.286 22.270,11.383 22.408 C 11.447 22.499,11.572 22.610,11.660 22.656 C 11.812 22.736,11.891 22.741,13.240 22.753 C 14.983 22.769,17.568 22.700,18.233 22.620 C 19.135 22.511,19.814 22.335,20.332 22.075 C 21.288 21.595,21.952 20.821,22.302 19.779 C 22.682 18.646,22.758 17.355,22.758 12.000 C 22.758 6.645,22.682 5.354,22.302 4.221 C 21.952 3.179,21.288 2.405,20.332 1.925 C 19.808 1.663,19.132 1.488,18.213 1.379 C 17.197 1.259,13.899 1.212,11.400 1.283 M4.200 10.278 C 3.881 10.296,3.485 10.341,3.320 10.380 C 2.321 10.612,1.617 11.311,1.384 12.300 C 1.266 12.801,1.231 14.094,1.253 17.200 C 1.275 20.325,1.284 20.471,1.480 21.030 C 1.715 21.697,2.303 22.285,2.971 22.520 C 3.493 22.704,3.843 22.733,5.500 22.733 C 6.784 22.733,7.126 22.721,7.432 22.666 C 8.128 22.541,8.516 22.352,8.934 21.934 C 9.350 21.518,9.537 21.136,9.669 20.432 C 9.733 20.095,9.739 19.721,9.739 16.500 C 9.739 13.279,9.733 12.905,9.669 12.568 C 9.537 11.864,9.347 11.475,8.936 11.064 C 8.528 10.656,8.122 10.457,7.466 10.342 C 7.054 10.270,5.062 10.231,4.200 10.278 M7.464 11.852 C 7.604 11.898,7.733 11.984,7.875 12.126 C 8.241 12.492,8.220 12.229,8.220 16.500 C 8.220 20.771,8.241 20.508,7.874 20.874 C 7.530 21.218,7.518 21.220,5.500 21.220 C 3.482 21.220,3.470 21.218,3.126 20.874 C 2.759 20.508,2.780 20.771,2.780 16.500 C 2.780 12.229,2.759 12.492,3.126 12.126 C 3.330 11.921,3.514 11.836,3.860 11.787 C 3.926 11.777,4.718 11.773,5.620 11.777 C 7.038 11.784,7.288 11.794,7.464 11.852 M11.815 18.278 C 11.331 18.393,11.098 19.004,11.383 19.408 C 11.447 19.499,11.572 19.610,11.660 19.656 C 11.817 19.738,11.873 19.740,14.377 19.751 C 16.157 19.759,16.999 19.749,17.150 19.718 C 17.902 19.562,17.931 18.473,17.189 18.286 C 16.980 18.234,12.032 18.226,11.815 18.278 " stroke="none" fill-rule="evenodd" fill="black"></path></svg>