<svg width="24" height="24" viewBox="0 0 24 24" fill="none" xmlns="http://www.w3.org/2000/svg"><path d="M1.815 1.278 C 1.639 1.320,1.462 1.455,1.353 1.631 L 1.260 1.780 1.262 8.560 C 1.263 15.489,1.276 16.183,1.423 17.372 C 1.655 19.244,2.188 20.435,3.171 21.272 C 4.199 22.148,5.416 22.520,7.780 22.683 C 8.747 22.749,21.833 22.784,22.136 22.721 C 22.826 22.578,22.958 21.646,22.332 21.336 C 22.185 21.263,21.936 21.259,15.020 21.236 C 7.736 21.212,7.571 21.209,6.500 21.055 C 4.390 20.753,3.409 19.877,3.021 17.947 C 2.786 16.772,2.786 16.789,2.762 8.980 C 2.741 2.062,2.737 1.815,2.664 1.668 C 2.573 1.484,2.395 1.343,2.180 1.284 C 2.003 1.236,1.993 1.236,1.815 1.278 M5.815 6.277 C 5.367 6.388,5.126 6.925,5.341 7.329 C 5.445 7.523,8.824 11.776,9.160 12.135 C 9.490 12.488,9.787 12.681,10.180 12.798 C 10.447 12.877,10.552 12.887,10.916 12.870 C 11.769 12.831,12.064 12.636,13.169 11.380 C 13.675 10.804,13.785 10.698,13.933 10.643 C 14.087 10.584,14.297 10.589,14.454 10.655 C 14.645 10.735,14.885 11.019,16.789 13.417 C 18.661 15.773,18.629 15.740,19.032 15.734 C 19.556 15.727,19.905 15.132,19.658 14.669 C 19.554 14.476,16.172 10.219,15.840 9.864 C 15.510 9.512,15.213 9.319,14.820 9.202 C 14.553 9.123,14.448 9.113,14.084 9.130 C 13.231 9.169,12.936 9.364,11.831 10.620 C 11.325 11.196,11.215 11.302,11.067 11.357 C 10.913 11.416,10.703 11.411,10.546 11.345 C 10.355 11.265,10.115 10.981,8.211 8.583 C 6.971 7.022,6.460 6.407,6.359 6.356 C 6.184 6.267,5.976 6.237,5.815 6.277 " stroke="none" fill-rule="evenodd" fill="black"></path></svg>