<svg width="24" height="24" viewBox="0 0 24 24" fill="none" xmlns="http://www.w3.org/2000/svg"><path d="M1.815 1.278 C 1.639 1.320,1.462 1.455,1.353 1.631 L 1.260 1.780 1.262 8.560 C 1.263 15.489,1.276 16.183,1.423 17.372 C 1.655 19.244,2.188 20.435,3.171 21.272 C 4.199 22.148,5.416 22.520,7.780 22.683 C 8.747 22.749,21.833 22.784,22.136 22.721 C 22.826 22.578,22.958 21.646,22.332 21.336 C 22.185 21.263,21.936 21.259,15.020 21.236 C 7.736 21.212,7.571 21.209,6.500 21.055 C 4.390 20.753,3.409 19.877,3.021 17.947 C 2.786 16.772,2.786 16.789,2.762 8.980 C 2.741 2.062,2.737 1.815,2.664 1.668 C 2.573 1.484,2.395 1.343,2.180 1.284 C 2.003 1.236,1.993 1.236,1.815 1.278 M18.793 6.287 C 18.712 6.309,18.583 6.384,18.507 6.453 C 18.431 6.523,17.611 7.537,16.685 8.706 C 15.758 9.876,14.906 10.936,14.791 11.063 C 14.565 11.310,14.403 11.400,14.184 11.400 C 13.880 11.400,13.802 11.340,13.169 10.620 C 12.064 9.364,11.769 9.169,10.916 9.130 C 10.552 9.113,10.447 9.123,10.180 9.202 C 9.787 9.319,9.490 9.512,9.160 9.864 C 8.826 10.221,5.445 14.476,5.341 14.671 C 5.091 15.140,5.439 15.726,5.971 15.734 C 6.371 15.740,6.341 15.770,8.211 13.417 C 10.115 11.019,10.355 10.735,10.546 10.655 C 10.703 10.589,10.913 10.584,11.067 10.643 C 11.215 10.698,11.325 10.804,11.831 11.380 C 12.936 12.636,13.231 12.831,14.086 12.870 C 14.448 12.887,14.557 12.877,14.806 12.802 C 15.431 12.614,15.637 12.426,16.760 11.020 C 19.322 7.812,19.671 7.358,19.717 7.176 C 19.855 6.627,19.345 6.136,18.793 6.287 " stroke="none" fill-rule="evenodd" fill="black"></path></svg>