<svg width="24" height="24" viewBox="0 0 24 24" fill="none" xmlns="http://www.w3.org/2000/svg"><path d="M14.924 1.283 C 12.498 1.463,10.282 2.906,9.119 5.066 C 8.988 5.308,8.983 5.312,8.783 5.338 C 7.241 5.538,5.587 6.284,4.320 7.349 C 2.967 8.487,1.934 10.166,1.507 11.920 C 1.333 12.635,1.272 13.158,1.271 13.960 C 1.270 15.302,1.489 16.362,2.020 17.583 C 2.152 17.886,2.200 18.047,2.199 18.188 C 2.199 18.293,2.116 18.677,2.016 19.040 C 1.772 19.925,1.746 20.298,1.896 20.777 C 2.096 21.418,2.582 21.904,3.223 22.104 C 3.702 22.254,4.075 22.228,4.960 21.984 C 5.323 21.884,5.704 21.801,5.806 21.801 C 5.940 21.800,6.114 21.852,6.425 21.985 C 7.673 22.518,8.706 22.730,10.040 22.728 C 11.433 22.726,12.569 22.465,13.820 21.860 C 15.248 21.170,16.394 20.166,17.290 18.820 C 17.999 17.755,18.400 16.702,18.670 15.200 L 18.702 15.020 18.892 15.008 C 19.002 15.001,19.250 15.038,19.486 15.098 C 20.020 15.232,20.373 15.232,20.798 15.098 C 21.411 14.905,21.905 14.411,22.098 13.798 C 22.232 13.375,22.232 13.018,22.100 12.496 C 21.961 11.948,21.969 11.837,22.181 11.300 C 22.517 10.451,22.660 9.837,22.721 8.992 C 22.869 6.916,22.102 4.874,20.615 3.384 C 19.121 1.886,17.060 1.125,14.924 1.283 M16.640 2.859 C 17.057 2.951,17.726 3.182,18.060 3.350 C 19.406 4.027,20.455 5.228,20.933 6.640 C 21.144 7.265,21.203 7.594,21.228 8.286 C 21.262 9.236,21.168 9.756,20.774 10.793 C 20.580 11.305,20.548 11.429,20.525 11.767 C 20.498 12.176,20.506 12.249,20.645 12.821 C 20.748 13.242,20.732 13.356,20.544 13.544 C 20.349 13.739,20.249 13.748,19.736 13.623 C 19.490 13.563,19.165 13.509,19.014 13.502 L 18.740 13.490 18.692 13.055 C 18.447 10.843,17.334 8.735,15.680 7.351 C 14.381 6.263,12.871 5.582,11.221 5.340 C 10.980 5.305,10.775 5.268,10.766 5.259 C 10.731 5.224,11.109 4.767,11.459 4.420 C 12.337 3.552,13.447 2.991,14.661 2.802 C 15.028 2.745,16.286 2.781,16.640 2.859 M11.375 6.877 C 12.816 7.168,14.083 7.847,15.118 8.882 C 16.158 9.922,16.832 11.184,17.128 12.647 C 17.208 13.040,17.220 13.220,17.220 14.000 C 17.220 14.780,17.208 14.960,17.128 15.353 C 16.601 17.955,14.768 20.048,12.294 20.875 C 11.442 21.160,11.036 21.220,9.980 21.218 C 9.139 21.216,9.017 21.207,8.556 21.109 C 7.998 20.990,7.549 20.843,6.924 20.571 C 6.117 20.222,5.767 20.217,4.564 20.540 C 4.196 20.639,3.851 20.720,3.797 20.720 C 3.574 20.720,3.280 20.423,3.280 20.200 C 3.280 20.145,3.354 19.830,3.443 19.500 C 3.687 18.600,3.714 18.428,3.677 17.987 C 3.650 17.674,3.615 17.534,3.479 17.212 C 3.181 16.503,3.001 15.962,2.891 15.447 C 2.792 14.981,2.783 14.866,2.781 14.020 C 2.780 13.212,2.791 13.044,2.873 12.640 C 3.168 11.183,3.842 9.922,4.882 8.882 C 6.053 7.711,7.427 7.041,9.180 6.785 C 9.246 6.775,9.669 6.772,10.120 6.778 C 10.775 6.787,11.027 6.806,11.375 6.877 M6.240 13.035 C 6.042 13.100,5.890 13.198,5.761 13.345 C 5.581 13.550,5.520 13.716,5.520 14.000 C 5.520 14.285,5.581 14.450,5.761 14.655 C 5.966 14.888,6.171 14.978,6.500 14.978 C 6.829 14.978,7.034 14.888,7.239 14.655 C 7.419 14.450,7.480 14.285,7.480 14.000 C 7.480 13.867,7.455 13.698,7.425 13.626 C 7.346 13.436,7.133 13.208,6.947 13.113 C 6.771 13.024,6.399 12.983,6.240 13.035 M9.673 13.063 C 9.312 13.174,9.000 13.609,9.000 14.000 C 9.000 14.524,9.476 15.000,10.000 15.000 C 10.517 15.000,11.000 14.517,11.000 14.000 C 11.000 13.598,10.688 13.173,10.310 13.061 C 10.062 12.987,9.919 12.988,9.673 13.063 M13.240 13.035 C 12.944 13.132,12.685 13.362,12.575 13.626 C 12.504 13.795,12.504 14.205,12.575 14.374 C 12.654 14.563,12.866 14.791,13.056 14.891 C 13.179 14.956,13.290 14.978,13.500 14.978 C 13.710 14.978,13.821 14.956,13.944 14.891 C 14.134 14.791,14.346 14.563,14.425 14.374 C 14.496 14.205,14.496 13.795,14.425 13.626 C 14.346 13.436,14.133 13.208,13.947 13.113 C 13.771 13.024,13.399 12.983,13.240 13.035 " stroke="none" fill-rule="evenodd" fill="black"></path></svg>