<svg width="24" height="24" viewBox="0 0 24 24" fill="none" xmlns="http://www.w3.org/2000/svg"><path d="M11.240 1.280 C 10.071 1.330,9.354 1.457,8.783 1.716 C 7.891 2.120,7.029 3.020,6.657 3.934 C 6.531 4.244,6.360 4.958,6.360 5.173 C 6.360 5.269,6.348 5.274,6.050 5.298 C 5.035 5.380,4.385 5.523,3.857 5.779 C 2.968 6.210,2.166 7.019,1.759 7.895 C 1.332 8.813,1.241 9.736,1.241 13.120 C 1.241 15.882,1.306 16.639,1.604 17.389 C 2.059 18.536,3.064 19.541,4.211 19.997 C 4.765 20.217,5.251 20.289,6.629 20.359 C 7.168 20.386,7.396 20.413,7.500 20.463 C 7.650 20.534,7.822 20.775,8.321 21.614 C 8.632 22.136,8.873 22.392,9.211 22.559 C 9.722 22.810,10.278 22.810,10.789 22.559 C 11.128 22.392,11.370 22.134,11.678 21.614 C 12.159 20.800,12.349 20.534,12.500 20.463 C 12.604 20.413,12.832 20.386,13.371 20.359 C 14.417 20.306,14.652 20.284,15.092 20.196 C 15.919 20.031,16.610 19.659,17.271 19.025 C 18.185 18.147,18.626 17.176,18.706 15.864 L 18.732 15.443 18.916 15.419 C 20.162 15.254,21.294 14.542,21.991 13.483 C 22.395 12.870,22.590 12.314,22.688 11.490 C 22.758 10.901,22.757 6.316,22.686 5.580 C 22.582 4.499,22.407 3.916,21.996 3.280 C 21.540 2.575,20.758 1.919,20.047 1.645 C 19.674 1.501,19.103 1.381,18.500 1.320 C 17.956 1.264,12.344 1.234,11.240 1.280 M18.274 2.801 C 18.945 2.860,19.299 2.943,19.680 3.128 C 20.161 3.362,20.638 3.839,20.872 4.320 C 21.210 5.014,21.251 5.537,21.230 8.880 C 21.212 11.737,21.211 11.745,20.946 12.299 C 20.591 13.041,19.862 13.670,19.138 13.859 C 18.719 13.968,18.760 14.112,18.760 12.530 C 18.759 9.777,18.646 8.765,18.241 7.895 C 17.856 7.066,17.118 6.296,16.280 5.847 C 15.912 5.650,15.619 5.550,15.099 5.444 C 14.388 5.301,13.740 5.271,10.757 5.245 L 7.853 5.220 7.908 4.940 C 8.050 4.210,8.631 3.464,9.320 3.128 C 9.685 2.950,10.080 2.855,10.668 2.802 C 11.200 2.755,17.743 2.754,18.274 2.801 M13.860 6.802 C 15.138 6.889,15.648 7.081,16.283 7.717 C 16.934 8.367,17.116 8.867,17.203 10.240 C 17.271 11.323,17.230 15.921,17.147 16.340 C 16.965 17.268,16.169 18.222,15.274 18.586 C 14.894 18.740,14.512 18.797,13.548 18.842 C 12.594 18.888,12.173 18.949,11.884 19.085 C 11.673 19.185,11.391 19.396,11.227 19.576 C 11.072 19.747,10.706 20.299,10.421 20.791 C 10.254 21.080,10.156 21.210,10.092 21.226 C 9.895 21.275,9.824 21.215,9.579 20.791 C 9.012 19.810,8.717 19.444,8.289 19.187 C 7.885 18.945,7.628 18.897,6.434 18.841 C 5.487 18.797,5.105 18.739,4.726 18.586 C 4.070 18.319,3.462 17.746,3.123 17.073 C 2.792 16.415,2.793 16.423,2.771 13.480 C 2.745 9.913,2.803 9.173,3.165 8.440 C 3.303 8.162,3.403 8.030,3.717 7.717 C 4.030 7.403,4.162 7.303,4.440 7.165 C 4.846 6.965,5.349 6.852,6.052 6.805 C 6.769 6.756,13.151 6.754,13.860 6.802 M6.240 12.035 C 6.042 12.100,5.890 12.198,5.761 12.345 C 5.581 12.550,5.520 12.716,5.520 13.000 C 5.520 13.285,5.581 13.450,5.761 13.655 C 5.966 13.888,6.171 13.978,6.500 13.978 C 6.829 13.978,7.034 13.888,7.239 13.655 C 7.419 13.450,7.480 13.285,7.480 13.000 C 7.480 12.867,7.455 12.698,7.425 12.626 C 7.346 12.436,7.133 12.208,6.947 12.113 C 6.771 12.024,6.399 11.983,6.240 12.035 M9.673 12.063 C 9.312 12.174,9.000 12.609,9.000 13.000 C 9.000 13.524,9.476 14.000,10.000 14.000 C 10.517 14.000,11.000 13.517,11.000 13.000 C 11.000 12.598,10.688 12.173,10.310 12.061 C 10.062 11.987,9.919 11.988,9.673 12.063 M13.240 12.035 C 12.944 12.132,12.685 12.362,12.575 12.626 C 12.504 12.795,12.504 13.205,12.575 13.374 C 12.654 13.563,12.866 13.791,13.056 13.891 C 13.179 13.956,13.290 13.978,13.500 13.978 C 13.710 13.978,13.821 13.956,13.944 13.891 C 14.134 13.791,14.346 13.563,14.425 13.374 C 14.496 13.205,14.496 12.795,14.425 12.626 C 14.346 12.436,14.133 12.208,13.947 12.113 C 13.771 12.024,13.399 11.983,13.240 12.035 " fill="#1C274C" stroke="none" fill-rule="evenodd"></path></svg>