<svg width="24" height="24" viewBox="0 0 24 24" fill="none" xmlns="http://www.w3.org/2000/svg"><path d="M6.120 1.281 C 5.559 1.298,4.938 1.333,4.740 1.358 C 2.791 1.604,1.780 2.489,1.436 4.251 C 1.280 5.052,1.262 5.642,1.262 10.000 C 1.262 14.358,1.280 14.948,1.436 15.749 C 1.788 17.552,2.853 18.456,4.852 18.648 C 5.338 18.695,5.363 18.702,5.341 18.779 C 5.183 19.331,5.271 19.799,5.606 20.180 C 5.745 20.339,6.003 20.503,6.207 20.563 C 6.280 20.584,6.562 20.628,6.832 20.660 C 7.103 20.692,7.339 20.727,7.357 20.738 C 7.375 20.749,7.402 20.907,7.417 21.089 C 7.494 21.999,7.743 22.414,8.360 22.657 C 8.595 22.750,9.038 22.754,9.305 22.665 C 9.604 22.566,9.807 22.398,10.939 21.317 C 11.501 20.779,11.978 20.340,12.000 20.340 C 12.022 20.340,12.501 20.781,13.065 21.320 C 13.628 21.859,14.177 22.366,14.284 22.447 C 14.924 22.929,15.876 22.787,16.300 22.147 C 16.454 21.915,16.541 21.590,16.583 21.089 C 16.598 20.907,16.625 20.749,16.643 20.738 C 16.661 20.727,16.900 20.692,17.174 20.660 C 17.761 20.591,18.047 20.494,18.287 20.283 C 18.698 19.921,18.831 19.381,18.659 18.779 C 18.636 18.702,18.663 18.695,19.157 18.648 C 21.140 18.459,22.193 17.568,22.557 15.772 C 22.718 14.978,22.737 14.351,22.737 10.000 C 22.737 5.649,22.718 5.022,22.557 4.228 C 22.177 2.352,21.103 1.511,18.840 1.318 C 18.192 1.262,7.696 1.232,6.120 1.281 M19.240 2.854 C 20.524 3.079,20.942 3.508,21.149 4.814 C 21.214 5.222,21.220 5.659,21.220 9.980 C 21.220 14.839,21.214 15.060,21.059 15.660 C 20.758 16.825,20.132 17.150,18.028 17.231 L 17.277 17.260 16.514 16.520 L 15.751 15.780 15.695 15.429 C 15.513 14.277,14.828 13.290,13.832 12.742 C 13.221 12.406,12.702 12.274,12.000 12.274 C 11.297 12.274,10.779 12.406,10.166 12.743 C 9.173 13.289,8.487 14.279,8.305 15.429 L 8.249 15.780 7.496 16.510 L 6.744 17.240 6.322 17.240 C 5.740 17.240,4.883 17.172,4.500 17.096 C 4.104 17.017,3.666 16.819,3.446 16.621 C 3.147 16.351,2.933 15.807,2.830 15.060 C 2.758 14.543,2.758 5.457,2.830 4.940 C 2.964 3.962,3.236 3.440,3.749 3.171 C 4.169 2.951,4.583 2.854,5.340 2.801 C 5.582 2.784,8.723 2.774,12.320 2.779 C 18.211 2.787,18.898 2.794,19.240 2.854 M8.807 5.287 C 8.573 5.339,8.348 5.567,8.286 5.813 C 8.202 6.146,8.333 6.462,8.631 6.647 L 8.780 6.740 12.000 6.740 L 15.220 6.740 15.369 6.647 C 15.943 6.290,15.812 5.424,15.162 5.284 C 14.899 5.228,9.061 5.230,8.807 5.287 M6.720 8.805 C 6.458 8.909,6.269 9.200,6.269 9.500 C 6.269 9.807,6.460 10.095,6.733 10.197 C 6.890 10.257,17.110 10.257,17.267 10.197 C 17.540 10.095,17.731 9.807,17.731 9.500 C 17.731 9.193,17.540 8.905,17.267 8.803 C 17.116 8.745,6.864 8.748,6.720 8.805 M12.578 13.821 C 12.949 13.918,13.274 14.112,13.581 14.419 C 14.041 14.879,14.240 15.356,14.240 16.000 C 14.240 16.644,14.041 17.121,13.581 17.581 C 13.121 18.041,12.644 18.240,12.000 18.240 C 11.356 18.240,10.879 18.041,10.419 17.581 C 9.959 17.121,9.760 16.644,9.760 16.000 C 9.760 15.356,9.959 14.879,10.419 14.419 C 10.719 14.118,11.050 13.919,11.404 13.823 C 11.692 13.746,12.285 13.745,12.578 13.821 M8.740 17.827 C 9.115 18.510,9.638 19.003,10.370 19.364 C 10.519 19.438,10.636 19.509,10.630 19.522 C 10.607 19.577,8.939 21.153,8.931 21.128 C 8.926 21.112,8.895 20.914,8.862 20.687 C 8.729 19.785,8.272 19.342,7.351 19.223 C 7.135 19.195,6.951 19.164,6.941 19.154 C 6.927 19.140,8.556 17.560,8.584 17.560 C 8.589 17.560,8.659 17.680,8.740 17.827 M16.456 18.546 C 17.022 19.089,17.081 19.158,16.996 19.175 C 16.943 19.185,16.749 19.213,16.564 19.237 C 15.728 19.344,15.267 19.813,15.138 20.687 C 15.105 20.914,15.074 21.112,15.069 21.128 C 15.061 21.153,13.393 19.577,13.370 19.522 C 13.364 19.509,13.481 19.438,13.630 19.364 C 14.362 19.003,14.885 18.510,15.261 17.826 L 15.409 17.557 15.614 17.747 C 15.727 17.852,16.106 18.211,16.456 18.546 " stroke="none" fill-rule="evenodd" fill="black"></path></svg>