<svg width="24" height="24" viewBox="0 0 24 24" fill="none" xmlns="http://www.w3.org/2000/svg"><path d="M6.120 1.281 C 5.559 1.298,4.938 1.333,4.740 1.358 C 2.791 1.604,1.780 2.489,1.436 4.251 C 1.280 5.052,1.262 5.642,1.262 10.000 C 1.262 14.358,1.280 14.948,1.436 15.749 C 1.731 17.262,2.540 18.147,3.946 18.497 C 4.482 18.630,4.941 18.679,5.991 18.716 C 6.481 18.734,6.886 18.755,6.892 18.764 C 6.898 18.773,6.947 18.878,7.002 18.998 C 7.056 19.118,7.175 19.319,7.267 19.444 C 7.509 19.774,7.555 19.881,7.622 20.263 C 7.760 21.059,8.085 21.585,8.685 21.983 C 9.011 22.200,9.302 22.309,9.747 22.382 C 10.107 22.441,10.239 22.497,10.540 22.722 C 11.000 23.066,11.365 23.180,12.000 23.180 C 12.635 23.180,13.000 23.066,13.460 22.722 C 13.761 22.497,13.893 22.441,14.253 22.382 C 14.698 22.309,14.989 22.200,15.315 21.983 C 15.915 21.585,16.240 21.059,16.378 20.263 C 16.445 19.879,16.491 19.774,16.739 19.438 C 16.833 19.309,16.952 19.105,17.002 18.985 L 17.092 18.766 17.416 18.744 C 17.594 18.733,18.019 18.713,18.360 18.701 C 19.773 18.650,20.609 18.434,21.298 17.943 C 22.139 17.343,22.554 16.392,22.687 14.760 C 22.758 13.885,22.758 6.115,22.687 5.240 C 22.470 2.581,21.451 1.541,18.840 1.318 C 18.192 1.262,7.696 1.232,6.120 1.281 M19.240 2.854 C 20.524 3.079,20.942 3.508,21.149 4.814 C 21.214 5.222,21.220 5.659,21.220 9.980 C 21.220 14.839,21.214 15.060,21.059 15.660 C 20.979 15.969,20.804 16.343,20.658 16.516 C 20.595 16.591,20.452 16.710,20.341 16.780 C 19.878 17.075,19.273 17.188,17.960 17.227 L 17.100 17.252 17.006 17.026 C 16.954 16.901,16.824 16.678,16.716 16.530 C 16.492 16.223,16.437 16.084,16.342 15.580 C 16.155 14.584,15.411 13.841,14.420 13.659 C 13.936 13.570,13.771 13.507,13.516 13.316 C 13.012 12.937,12.655 12.820,12.000 12.820 C 11.345 12.820,10.988 12.937,10.484 13.316 C 10.230 13.507,10.063 13.570,9.584 13.658 C 9.170 13.734,8.896 13.854,8.562 14.105 C 8.086 14.463,7.771 14.976,7.658 15.580 C 7.563 16.083,7.508 16.223,7.287 16.526 C 7.181 16.672,7.050 16.892,6.997 17.015 L 6.900 17.239 6.400 17.239 C 5.751 17.240,4.904 17.176,4.500 17.096 C 4.104 17.017,3.666 16.819,3.446 16.621 C 3.147 16.351,2.933 15.807,2.830 15.060 C 2.758 14.543,2.758 5.457,2.830 4.940 C 2.964 3.962,3.236 3.440,3.749 3.171 C 4.169 2.951,4.583 2.854,5.340 2.801 C 5.582 2.784,8.723 2.774,12.320 2.779 C 18.211 2.787,18.898 2.794,19.240 2.854 M8.807 5.287 C 8.573 5.339,8.348 5.567,8.286 5.813 C 8.202 6.146,8.333 6.462,8.631 6.647 L 8.780 6.740 12.000 6.740 L 15.220 6.740 15.369 6.647 C 15.943 6.290,15.812 5.424,15.162 5.284 C 14.899 5.228,9.061 5.230,8.807 5.287 M6.720 8.805 C 6.458 8.909,6.269 9.200,6.269 9.500 C 6.269 9.807,6.460 10.095,6.733 10.197 C 6.890 10.257,17.110 10.257,17.267 10.197 C 17.540 10.095,17.731 9.807,17.731 9.500 C 17.731 9.193,17.540 8.905,17.267 8.803 C 17.116 8.745,6.864 8.748,6.720 8.805 M12.250 14.322 C 12.333 14.345,12.513 14.444,12.650 14.542 C 13.109 14.870,13.357 14.967,14.125 15.119 C 14.517 15.196,14.804 15.484,14.881 15.876 C 15.033 16.647,15.124 16.890,15.394 17.248 C 15.823 17.815,15.823 18.185,15.394 18.752 C 15.124 19.110,15.034 19.352,14.880 20.127 C 14.829 20.390,14.670 20.630,14.465 20.757 C 14.387 20.805,14.183 20.871,14.012 20.903 C 13.380 21.022,13.098 21.133,12.741 21.403 C 12.189 21.819,11.811 21.819,11.259 21.403 C 10.902 21.133,10.620 21.022,9.988 20.903 C 9.817 20.871,9.613 20.805,9.535 20.757 C 9.330 20.630,9.171 20.390,9.120 20.127 C 8.966 19.352,8.876 19.110,8.606 18.752 C 8.180 18.189,8.178 17.814,8.597 17.259 C 8.866 16.903,9.003 16.563,9.081 16.060 C 9.104 15.906,9.161 15.703,9.206 15.609 C 9.319 15.374,9.589 15.176,9.873 15.120 C 10.645 14.967,10.890 14.871,11.351 14.541 C 11.703 14.290,11.933 14.234,12.250 14.322 M13.331 16.279 C 13.260 16.296,13.152 16.342,13.091 16.382 C 12.998 16.443,12.245 17.134,11.553 17.793 L 11.365 17.972 11.155 17.783 C 10.877 17.533,10.742 17.469,10.500 17.469 C 10.273 17.469,10.111 17.539,9.953 17.706 C 9.759 17.911,9.703 18.227,9.814 18.492 C 9.871 18.629,10.719 19.464,10.972 19.632 C 11.189 19.776,11.534 19.775,11.748 19.630 C 11.929 19.507,14.020 17.546,14.130 17.397 C 14.296 17.170,14.269 16.761,14.072 16.537 C 13.872 16.309,13.602 16.215,13.331 16.279 " stroke="none" fill-rule="evenodd" fill="black"></path></svg>