<svg width="24" height="24" viewBox="0 0 24 24" fill="none" xmlns="http://www.w3.org/2000/svg"><path d="M8.960 1.281 C 6.964 1.331,5.849 1.468,4.900 1.779 C 3.060 2.382,1.958 3.688,1.563 5.734 C 1.311 7.042,1.267 7.973,1.267 12.000 C 1.267 16.027,1.311 16.958,1.563 18.266 C 2.013 20.599,3.401 21.987,5.734 22.437 C 7.034 22.688,7.987 22.733,12.000 22.733 C 16.013 22.733,16.966 22.688,18.266 22.437 C 20.599 21.987,21.987 20.599,22.437 18.267 C 22.656 17.131,22.721 16.045,22.732 13.300 C 22.738 11.710,22.727 11.145,22.686 10.900 C 22.565 10.182,22.250 9.430,21.830 8.856 C 21.565 8.495,15.505 2.435,15.144 2.170 C 14.594 1.767,13.897 1.466,13.210 1.334 C 12.824 1.260,10.790 1.234,8.960 1.281 M13.260 2.875 C 13.580 2.983,13.939 3.156,14.200 3.331 C 14.433 3.487,20.348 9.385,20.587 9.700 C 20.805 9.987,20.997 10.359,21.124 10.740 C 21.216 11.015,21.218 11.051,21.232 12.960 C 21.254 15.972,21.157 17.397,20.857 18.460 C 20.570 19.475,19.997 20.190,19.140 20.601 C 18.811 20.759,18.259 20.934,17.940 20.982 L 17.760 21.009 17.759 20.755 C 17.756 20.168,17.680 18.762,17.640 18.540 C 17.412 17.289,16.712 16.588,15.460 16.360 C 14.776 16.236,9.823 16.205,8.860 16.319 C 7.386 16.494,6.616 17.172,6.362 18.520 C 6.340 18.641,6.301 19.244,6.276 19.860 C 6.251 20.476,6.224 20.987,6.217 20.995 C 6.188 21.026,5.691 20.910,5.316 20.784 C 4.033 20.355,3.331 19.488,3.021 17.947 C 2.796 16.826,2.780 16.428,2.780 12.000 C 2.780 8.382,2.788 7.864,2.852 7.240 C 3.025 5.550,3.340 4.663,4.001 4.001 C 4.665 3.338,5.593 3.009,7.220 2.862 C 8.154 2.777,8.285 2.774,10.780 2.778 C 12.977 2.781,12.980 2.782,13.260 2.875 M6.815 7.278 C 6.331 7.393,6.098 8.004,6.383 8.408 C 6.447 8.499,6.572 8.610,6.660 8.656 C 6.818 8.739,6.865 8.740,9.878 8.751 C 12.020 8.759,13.000 8.749,13.151 8.718 C 13.902 8.562,13.931 7.473,13.189 7.286 C 12.979 7.234,7.033 7.226,6.815 7.278 M15.260 17.834 C 15.370 17.859,15.559 17.930,15.679 17.991 C 15.863 18.084,15.916 18.137,16.009 18.321 C 16.180 18.657,16.204 18.852,16.228 20.064 L 16.249 21.187 15.638 21.214 C 14.847 21.248,9.157 21.248,8.366 21.214 L 7.760 21.188 7.760 20.312 C 7.760 18.947,7.852 18.395,8.123 18.123 C 8.276 17.970,8.601 17.851,8.989 17.805 C 9.447 17.751,15.009 17.776,15.260 17.834 " stroke="none" fill-rule="evenodd" fill="black"></path></svg>