<svg width="24" height="24" viewBox="0 0 24 24" fill="none" xmlns="http://www.w3.org/2000/svg"><path d="M3.197 1.293 C 2.801 1.403,2.512 1.652,2.327 2.040 C 2.266 2.168,2.259 2.665,2.248 8.000 C 2.240 12.066,2.249 13.865,2.279 13.968 C 2.367 14.271,2.691 14.518,3.000 14.518 C 3.311 14.518,3.639 14.267,3.716 13.968 C 3.778 13.728,4.730 2.560,4.708 2.335 C 4.636 1.630,3.875 1.104,3.197 1.293 M8.260 1.282 C 7.328 1.404,6.502 2.138,6.262 3.058 C 6.226 3.195,6.024 5.338,5.774 8.227 C 5.348 13.159,5.348 13.162,5.411 13.483 C 5.484 13.853,5.658 14.250,5.871 14.531 C 5.953 14.639,6.461 15.107,7.000 15.572 C 8.540 16.899,8.898 17.293,9.296 18.100 C 9.576 18.666,9.692 19.018,10.039 20.355 C 10.195 20.957,10.370 21.542,10.427 21.655 C 10.569 21.935,11.042 22.394,11.333 22.534 C 11.857 22.785,12.410 22.813,12.995 22.616 C 13.454 22.462,13.669 22.330,14.005 21.998 C 14.453 21.553,14.649 21.101,14.764 20.245 C 14.855 19.569,14.799 18.989,14.424 16.722 C 14.234 15.568,14.086 14.601,14.097 14.574 C 14.112 14.534,14.714 14.521,16.968 14.511 C 19.792 14.499,19.822 14.498,20.051 14.411 C 20.886 14.094,21.429 13.531,21.664 12.740 C 21.803 12.271,21.771 11.950,21.347 9.520 C 20.948 7.232,20.856 6.824,20.590 6.140 C 19.666 3.760,17.463 1.943,14.870 1.422 C 14.601 1.368,14.128 1.305,13.820 1.282 C 13.179 1.234,8.623 1.234,8.260 1.282 M14.540 2.875 C 16.962 3.418,18.774 5.062,19.395 7.280 C 19.495 7.640,20.240 11.913,20.240 12.130 C 20.240 12.446,20.026 12.781,19.731 12.926 L 19.540 13.020 16.620 13.040 L 13.700 13.060 13.471 13.176 C 13.033 13.398,12.739 13.764,12.617 14.240 C 12.535 14.558,12.520 14.432,12.944 17.010 C 13.242 18.821,13.288 19.164,13.287 19.580 C 13.286 20.113,13.205 20.578,13.077 20.785 C 12.811 21.215,12.160 21.379,11.870 21.088 C 11.762 20.981,11.718 20.850,11.475 19.914 C 11.162 18.711,11.019 18.258,10.783 17.720 C 10.282 16.580,9.751 15.956,8.009 14.461 C 7.004 13.599,6.880 13.450,6.880 13.102 C 6.880 12.783,7.684 3.576,7.726 3.412 C 7.781 3.198,8.008 2.931,8.218 2.834 C 8.372 2.763,8.515 2.760,11.260 2.772 C 14.073 2.785,14.149 2.787,14.540 2.875 " fill="#1C274C" stroke="none" fill-rule="evenodd"></path></svg>