<svg width="24" height="24" viewBox="0 0 24 24" fill="none" xmlns="http://www.w3.org/2000/svg"><path d="M6.060 2.280 C 4.347 2.332,3.537 2.511,2.794 2.999 C 1.893 3.590,1.450 4.551,1.314 6.209 C 1.250 6.983,1.250 12.017,1.314 12.791 C 1.504 15.100,2.334 16.172,4.233 16.559 C 4.879 16.690,5.551 16.720,8.470 16.747 L 11.240 16.772 11.240 17.616 L 11.240 18.460 8.434 19.396 C 5.785 20.279,5.620 20.340,5.481 20.479 C 5.187 20.773,5.187 21.227,5.480 21.520 C 5.641 21.681,5.923 21.778,6.110 21.737 C 6.171 21.724,7.521 21.281,9.110 20.753 L 12.000 19.793 14.890 20.753 C 16.480 21.281,17.829 21.724,17.890 21.737 C 18.077 21.778,18.359 21.681,18.520 21.520 C 18.813 21.227,18.813 20.773,18.519 20.479 C 18.380 20.340,18.215 20.279,15.566 19.396 L 12.760 18.460 12.760 17.616 L 12.760 16.772 15.510 16.748 C 19.028 16.717,19.640 16.669,20.490 16.359 C 21.882 15.851,22.525 14.797,22.685 12.760 C 22.752 11.916,22.752 7.084,22.685 6.240 C 22.477 3.598,21.456 2.548,18.870 2.317 C 18.281 2.264,7.573 2.233,6.060 2.280 M19.136 3.834 C 19.839 3.947,20.366 4.164,20.620 4.445 C 20.793 4.637,20.971 4.999,21.059 5.340 C 21.208 5.918,21.220 6.225,21.220 9.520 C 21.220 12.406,21.213 12.786,21.149 13.186 C 20.935 14.537,20.473 14.976,19.060 15.170 C 18.539 15.242,5.461 15.242,4.940 15.170 C 4.236 15.073,3.748 14.894,3.445 14.620 C 3.147 14.351,2.932 13.806,2.830 13.060 C 2.759 12.549,2.759 6.451,2.830 5.940 C 2.964 4.962,3.236 4.440,3.749 4.171 C 4.171 3.950,4.579 3.853,5.307 3.803 C 6.042 3.751,18.802 3.780,19.136 3.834 " stroke="none" fill-rule="evenodd" fill="black"></path></svg>