<svg width="24" height="24" viewBox="0 0 24 24" fill="none" xmlns="http://www.w3.org/2000/svg"><path d="M14.340 1.277 C 14.142 1.325,14.075 1.376,13.699 1.766 C 12.121 3.405,11.082 5.512,10.694 7.860 C 10.594 8.462,10.592 10.082,10.690 10.638 C 10.726 10.847,10.753 11.021,10.748 11.025 C 10.743 11.030,10.631 11.009,10.500 10.978 C 9.993 10.859,9.162 10.790,8.520 10.813 C 6.018 10.902,3.558 11.966,1.707 13.757 C 1.337 14.116,1.269 14.231,1.269 14.500 C 1.269 14.921,1.585 15.240,2.004 15.240 C 2.249 15.240,2.389 15.159,2.796 14.783 C 3.003 14.591,3.324 14.316,3.510 14.171 L 3.847 13.908 5.454 15.512 C 6.549 16.606,7.107 17.137,7.209 17.179 C 7.484 17.292,7.869 17.217,8.048 17.014 C 8.232 16.807,8.287 16.471,8.179 16.209 C 8.137 16.108,7.646 15.589,6.657 14.598 L 5.197 13.136 5.348 13.064 C 5.556 12.965,5.971 12.806,6.260 12.716 L 6.500 12.641 8.932 15.072 L 11.363 17.503 11.218 17.922 C 11.138 18.152,11.036 18.426,10.991 18.532 L 10.909 18.723 10.303 18.126 C 9.795 17.624,9.669 17.520,9.520 17.480 C 9.070 17.359,8.621 17.650,8.570 18.095 C 8.533 18.431,8.594 18.523,9.390 19.326 C 9.906 19.847,10.120 20.089,10.098 20.126 C 10.009 20.279,9.524 20.872,9.217 21.204 C 9.026 21.411,8.845 21.638,8.815 21.709 C 8.608 22.196,8.967 22.731,9.500 22.731 C 9.769 22.731,9.884 22.663,10.243 22.293 C 11.779 20.706,12.760 18.715,13.108 16.480 C 13.212 15.812,13.202 14.474,13.087 13.839 C 13.042 13.586,12.992 13.344,12.976 13.303 C 12.951 13.239,12.961 13.232,13.043 13.252 C 13.097 13.265,13.374 13.306,13.660 13.343 C 14.289 13.424,15.508 13.404,16.160 13.302 C 18.436 12.946,20.617 11.865,22.254 10.282 C 22.664 9.885,22.731 9.775,22.731 9.500 C 22.731 9.079,22.415 8.760,21.996 8.760 C 21.752 8.760,21.608 8.841,21.249 9.179 C 20.866 9.539,20.159 10.118,20.100 10.119 C 20.078 10.120,19.313 9.371,18.400 8.456 C 17.298 7.352,16.686 6.767,16.580 6.717 C 16.011 6.450,15.414 6.966,15.566 7.593 C 15.608 7.766,15.726 7.896,17.184 9.360 L 18.757 10.940 18.588 11.015 C 18.496 11.057,18.231 11.168,18.000 11.263 L 17.580 11.435 15.073 8.931 L 12.566 6.427 12.648 6.223 C 12.692 6.111,12.752 5.957,12.781 5.880 C 12.809 5.803,12.893 5.610,12.968 5.451 L 13.103 5.162 13.602 5.664 C 14.147 6.213,14.306 6.320,14.576 6.320 C 15.018 6.320,15.320 6.019,15.320 5.579 C 15.320 5.478,15.291 5.338,15.256 5.268 C 15.221 5.198,14.903 4.849,14.549 4.492 L 13.905 3.845 14.133 3.547 C 14.258 3.384,14.534 3.064,14.746 2.835 C 14.958 2.607,15.155 2.362,15.185 2.291 C 15.251 2.137,15.256 1.888,15.197 1.733 C 15.076 1.411,14.673 1.197,14.340 1.277 M15.730 11.850 C 15.507 11.912,14.501 11.931,14.020 11.883 C 13.527 11.833,12.964 11.725,12.632 11.616 C 12.462 11.561,12.439 11.538,12.383 11.368 C 12.286 11.075,12.169 10.462,12.117 9.980 C 12.072 9.558,12.089 8.530,12.146 8.266 C 12.170 8.156,12.246 8.226,14.005 9.985 C 15.771 11.750,15.836 11.821,15.730 11.850 M9.344 12.322 C 9.878 12.365,10.494 12.488,10.980 12.648 L 11.260 12.740 11.369 13.079 C 11.430 13.265,11.516 13.598,11.562 13.819 C 11.661 14.295,11.745 15.315,11.703 15.537 L 11.674 15.693 9.997 14.017 C 8.514 12.535,8.330 12.337,8.410 12.314 C 8.548 12.274,8.780 12.276,9.344 12.322 " stroke="none" fill-rule="evenodd" fill="black"></path></svg>