<svg width="24" height="24" viewBox="0 0 24 24" fill="none" xmlns="http://www.w3.org/2000/svg"><path d="M8.420 1.283 C 6.912 1.325,5.970 1.447,5.221 1.698 C 3.984 2.114,3.114 2.984,2.698 4.221 C 2.317 5.356,2.242 6.641,2.242 12.000 C 2.242 17.336,2.314 18.598,2.682 19.727 C 3.173 21.229,4.266 22.158,5.940 22.495 C 6.894 22.688,8.519 22.758,12.000 22.758 C 15.481 22.758,17.106 22.688,18.060 22.495 C 19.711 22.163,20.811 21.241,21.302 19.779 C 21.682 18.646,21.758 17.355,21.758 12.000 C 21.758 6.645,21.682 5.354,21.302 4.221 C 20.886 2.984,20.016 2.114,18.779 1.698 C 17.998 1.436,17.134 1.331,15.360 1.280 C 13.838 1.237,10.034 1.238,8.420 1.283 M16.341 2.802 C 17.138 2.854,17.642 2.928,18.093 3.059 C 19.534 3.477,20.046 4.353,20.198 6.659 C 20.254 7.516,20.254 16.484,20.198 17.341 C 20.016 20.111,19.317 20.907,16.840 21.167 C 16.120 21.243,7.880 21.243,7.160 21.167 C 4.843 20.924,4.112 20.210,3.835 17.920 C 3.769 17.379,3.738 7.719,3.798 6.740 C 3.860 5.752,3.924 5.320,4.089 4.800 C 4.509 3.473,5.423 2.948,7.560 2.805 C 8.310 2.755,15.585 2.752,16.341 2.802 M11.807 5.289 C 11.574 5.339,11.348 5.565,11.286 5.811 C 11.261 5.913,11.240 6.274,11.240 6.614 L 11.240 7.232 10.530 7.246 C 9.715 7.262,9.590 7.300,9.383 7.592 C 9.286 7.730,9.267 7.797,9.267 7.993 C 9.267 8.279,9.372 8.474,9.612 8.633 C 9.770 8.738,9.790 8.740,10.503 8.754 L 11.232 8.768 11.246 9.497 C 11.260 10.210,11.262 10.230,11.367 10.388 C 11.526 10.628,11.721 10.733,12.007 10.733 C 12.203 10.733,12.270 10.714,12.408 10.617 C 12.700 10.410,12.738 10.284,12.754 9.474 L 12.768 8.768 13.494 8.754 C 14.171 8.741,14.230 8.734,14.369 8.647 C 14.943 8.290,14.812 7.424,14.162 7.284 C 14.049 7.260,13.687 7.240,13.358 7.240 L 12.760 7.240 12.759 6.630 C 12.758 6.295,12.739 5.939,12.717 5.841 C 12.620 5.420,12.247 5.194,11.807 5.289 M7.826 13.284 C 7.476 13.366,7.267 13.636,7.267 14.003 C 7.267 14.281,7.387 14.496,7.627 14.645 L 7.780 14.740 12.000 14.740 L 16.220 14.740 16.369 14.647 C 16.943 14.290,16.812 13.424,16.162 13.284 C 15.907 13.229,8.059 13.229,7.826 13.284 M8.807 17.287 C 8.573 17.339,8.348 17.567,8.286 17.813 C 8.202 18.146,8.333 18.462,8.631 18.647 L 8.780 18.740 12.000 18.740 L 15.220 18.740 15.369 18.647 C 15.943 18.290,15.812 17.424,15.162 17.284 C 14.899 17.228,9.061 17.230,8.807 17.287 " stroke="none" fill-rule="evenodd" fill="black"></path></svg>