<svg width="24" height="24" viewBox="0 0 24 24" fill="none" xmlns="http://www.w3.org/2000/svg"><path d="M9.120 1.280 C 8.559 1.298,7.938 1.333,7.740 1.358 C 5.791 1.604,4.780 2.489,4.436 4.251 C 4.270 5.103,4.260 5.534,4.260 12.000 C 4.260 18.466,4.270 18.897,4.436 19.749 C 4.750 21.356,5.644 22.250,7.249 22.563 C 8.008 22.711,8.654 22.735,12.000 22.735 C 15.346 22.735,15.992 22.711,16.751 22.563 C 18.352 22.251,19.232 21.376,19.557 19.772 C 19.729 18.925,19.739 18.468,19.739 12.000 C 19.739 5.532,19.729 5.075,19.557 4.228 C 19.176 2.345,18.083 1.495,15.820 1.321 C 15.101 1.265,10.452 1.237,9.120 1.280 M16.220 2.854 C 17.518 3.071,17.941 3.500,18.149 4.814 C 18.215 5.228,18.220 5.746,18.220 11.980 C 18.220 18.922,18.218 19.040,18.060 19.660 C 17.968 20.023,17.743 20.450,17.555 20.620 C 17.252 20.894,16.764 21.073,16.060 21.170 C 15.547 21.241,8.453 21.241,7.940 21.170 C 7.236 21.073,6.748 20.894,6.445 20.620 C 6.147 20.351,5.932 19.806,5.830 19.060 C 5.758 18.539,5.758 5.461,5.830 4.940 C 5.964 3.962,6.236 3.440,6.749 3.171 C 7.168 2.951,7.581 2.855,8.340 2.800 C 8.582 2.783,10.364 2.773,12.300 2.778 C 15.375 2.786,15.871 2.795,16.220 2.854 M1.826 4.286 C 1.625 4.331,1.468 4.445,1.353 4.631 L 1.260 4.780 1.260 12.000 L 1.260 19.220 1.355 19.373 C 1.506 19.615,1.718 19.733,2.003 19.733 C 2.203 19.733,2.270 19.714,2.408 19.617 C 2.499 19.552,2.610 19.428,2.656 19.340 L 2.740 19.180 2.751 12.120 C 2.758 7.288,2.748 4.998,2.720 4.862 C 2.628 4.432,2.252 4.190,1.826 4.286 M21.807 4.289 C 21.555 4.343,21.341 4.570,21.281 4.846 C 21.247 5.004,21.239 6.915,21.248 12.140 L 21.260 19.220 21.355 19.373 C 21.506 19.615,21.718 19.733,22.003 19.733 C 22.203 19.733,22.270 19.714,22.408 19.617 C 22.499 19.552,22.610 19.428,22.656 19.340 L 22.740 19.180 22.751 12.120 C 22.758 7.288,22.748 4.998,22.720 4.862 C 22.626 4.425,22.257 4.192,21.807 4.289 M8.807 8.287 C 8.573 8.339,8.348 8.567,8.286 8.813 C 8.202 9.146,8.333 9.462,8.631 9.647 L 8.780 9.740 12.000 9.740 L 15.220 9.740 15.369 9.647 C 15.943 9.290,15.812 8.424,15.162 8.284 C 14.899 8.228,9.061 8.230,8.807 8.287 M8.807 12.287 C 8.573 12.339,8.348 12.567,8.286 12.813 C 8.202 13.146,8.333 13.462,8.631 13.647 L 8.780 13.740 12.000 13.740 L 15.220 13.740 15.369 13.647 C 15.943 13.290,15.812 12.424,15.162 12.284 C 14.899 12.228,9.061 12.230,8.807 12.287 M8.807 16.287 C 8.573 16.339,8.348 16.567,8.286 16.813 C 8.202 17.146,8.333 17.462,8.631 17.647 L 8.780 17.740 10.500 17.740 L 12.220 17.740 12.369 17.647 C 12.943 17.290,12.812 16.424,12.162 16.284 C 11.905 16.229,9.056 16.232,8.807 16.287 " stroke="none" fill-rule="evenodd" fill="black"></path></svg>