<svg width="24" height="24" viewBox="0 0 24 24" fill="none" xmlns="http://www.w3.org/2000/svg"><path d="M8.420 1.283 C 6.912 1.325,5.970 1.447,5.221 1.698 C 3.984 2.114,3.114 2.984,2.698 4.221 C 2.317 5.356,2.242 6.641,2.242 12.000 C 2.242 17.320,2.314 18.601,2.677 19.711 C 3.174 21.230,4.259 22.157,5.940 22.495 C 6.894 22.688,8.519 22.758,12.000 22.758 C 15.481 22.758,17.106 22.688,18.060 22.495 C 19.711 22.163,20.811 21.241,21.302 19.779 C 21.682 18.646,21.758 17.355,21.758 12.000 C 21.758 6.645,21.682 5.354,21.302 4.221 C 20.886 2.984,20.016 2.114,18.779 1.698 C 17.998 1.436,17.134 1.331,15.360 1.280 C 13.838 1.237,10.034 1.238,8.420 1.283 M16.341 2.802 C 17.138 2.854,17.642 2.928,18.093 3.059 C 19.534 3.477,20.046 4.353,20.198 6.659 C 20.254 7.516,20.254 16.484,20.198 17.341 C 20.016 20.111,19.317 20.907,16.840 21.167 C 16.120 21.243,7.880 21.243,7.160 21.167 C 4.843 20.924,4.112 20.210,3.835 17.920 C 3.769 17.379,3.738 7.719,3.798 6.740 C 3.860 5.752,3.924 5.320,4.089 4.800 C 4.509 3.473,5.423 2.948,7.560 2.805 C 8.310 2.755,15.585 2.752,16.341 2.802 M7.826 9.284 C 7.476 9.366,7.267 9.636,7.267 10.003 C 7.267 10.281,7.387 10.496,7.627 10.645 L 7.780 10.740 12.000 10.740 L 16.220 10.740 16.369 10.647 C 16.943 10.290,16.812 9.424,16.162 9.284 C 15.907 9.229,8.059 9.229,7.826 9.284 M7.826 13.284 C 7.476 13.366,7.267 13.636,7.267 14.003 C 7.267 14.281,7.387 14.496,7.627 14.645 L 7.780 14.740 10.500 14.740 L 13.220 14.740 13.369 14.647 C 13.943 14.290,13.812 13.424,13.162 13.284 C 12.909 13.230,8.057 13.230,7.826 13.284 " stroke="none" fill-rule="evenodd" fill="black"></path></svg>