<svg width="24" height="24" viewBox="0 0 24 24" fill="none" xmlns="http://www.w3.org/2000/svg"><path d="M10.200 2.360 C 7.175 2.795,4.646 3.165,4.580 3.181 C 3.934 3.344,3.388 3.967,3.280 4.663 C 3.251 4.855,3.241 7.181,3.250 12.220 C 3.262 18.876,3.269 19.524,3.331 19.775 C 3.631 21.001,4.343 21.882,5.452 22.400 C 5.851 22.587,6.152 22.667,6.645 22.719 C 7.148 22.772,16.852 22.772,17.355 22.719 C 17.848 22.667,18.149 22.587,18.548 22.400 C 19.520 21.946,20.190 21.211,20.538 20.214 C 20.745 19.622,20.740 19.761,20.740 14.000 C 20.740 9.722,20.729 8.563,20.687 8.342 C 20.539 7.556,20.107 6.765,19.546 6.253 C 19.337 6.062,18.951 5.785,18.828 5.738 C 18.781 5.720,18.767 5.545,18.748 4.788 C 18.724 3.766,18.693 3.584,18.459 3.100 C 18.010 2.169,17.003 1.548,15.972 1.564 C 15.822 1.567,13.225 1.925,10.200 2.360 M16.447 3.143 C 16.690 3.223,16.953 3.457,17.101 3.726 C 17.217 3.935,17.220 3.956,17.233 4.590 L 17.247 5.240 11.096 5.240 L 4.945 5.240 4.853 5.153 C 4.738 5.045,4.730 4.846,4.836 4.715 C 4.909 4.625,5.157 4.586,10.406 3.832 C 13.940 3.324,15.964 3.049,16.080 3.061 C 16.179 3.072,16.344 3.109,16.447 3.143 M17.578 6.821 C 17.708 6.855,17.923 6.940,18.057 7.010 C 18.371 7.175,18.825 7.629,18.990 7.943 C 19.254 8.446,19.240 8.112,19.240 14.000 C 19.240 19.888,19.254 19.554,18.990 20.057 C 18.825 20.371,18.371 20.825,18.057 20.990 C 17.554 21.254,17.888 21.240,12.000 21.240 C 6.112 21.240,6.446 21.254,5.943 20.990 C 5.629 20.825,5.175 20.371,5.010 20.057 C 4.744 19.550,4.760 19.987,4.760 13.052 L 4.760 6.760 11.052 6.760 C 16.572 6.760,17.372 6.768,17.578 6.821 M7.826 11.284 C 7.476 11.366,7.267 11.636,7.267 12.003 C 7.267 12.281,7.387 12.496,7.627 12.645 L 7.780 12.740 12.000 12.740 L 16.220 12.740 16.369 12.647 C 16.943 12.290,16.812 11.424,16.162 11.284 C 15.907 11.229,8.059 11.229,7.826 11.284 M7.720 14.805 C 7.458 14.909,7.269 15.200,7.269 15.500 C 7.269 15.807,7.460 16.095,7.733 16.197 C 7.808 16.226,8.794 16.240,10.753 16.239 C 13.488 16.238,13.669 16.234,13.820 16.165 C 14.010 16.077,14.096 15.988,14.178 15.790 C 14.257 15.602,14.257 15.398,14.178 15.210 C 14.096 15.012,14.010 14.923,13.820 14.835 C 13.669 14.766,13.491 14.762,10.740 14.763 C 8.903 14.764,7.783 14.780,7.720 14.805 " stroke="none" fill-rule="evenodd" fill="black"></path></svg>