<svg width="24" height="24" viewBox="0 0 24 24" fill="none" xmlns="http://www.w3.org/2000/svg"><path d="M8.420 1.283 C 6.912 1.325,5.970 1.447,5.221 1.698 C 3.984 2.114,3.114 2.984,2.698 4.221 C 2.317 5.356,2.242 6.641,2.242 12.000 C 2.242 17.320,2.314 18.601,2.677 19.711 C 3.174 21.230,4.259 22.157,5.940 22.495 C 6.894 22.688,8.519 22.758,12.000 22.758 C 15.481 22.758,17.106 22.688,18.060 22.495 C 19.854 22.134,20.972 21.099,21.417 19.389 C 21.598 18.690,21.719 17.486,21.720 16.364 C 21.720 15.827,21.713 15.776,21.624 15.623 C 21.374 15.197,20.745 15.141,20.428 15.518 C 20.273 15.702,20.249 15.838,20.224 16.665 C 20.161 18.692,19.939 19.583,19.331 20.241 C 18.849 20.762,18.120 21.033,16.840 21.167 C 16.120 21.243,7.880 21.243,7.160 21.167 C 4.843 20.924,4.112 20.210,3.835 17.920 C 3.769 17.379,3.738 7.719,3.798 6.740 C 3.860 5.752,3.924 5.320,4.089 4.800 C 4.517 3.448,5.407 2.950,7.659 2.802 C 8.504 2.746,15.496 2.746,16.341 2.802 C 17.835 2.900,18.634 3.132,19.224 3.637 C 19.551 3.919,19.811 3.983,20.110 3.858 C 20.394 3.740,20.560 3.490,20.560 3.180 C 20.560 2.930,20.483 2.773,20.254 2.555 C 19.577 1.909,18.647 1.549,17.213 1.379 C 16.169 1.255,11.332 1.202,8.420 1.283 M19.700 6.278 C 19.107 6.350,18.679 6.553,18.157 7.013 C 17.558 7.539,12.904 12.248,12.714 12.520 C 12.367 13.014,12.245 13.299,11.759 14.740 C 11.220 16.337,11.191 16.490,11.338 16.920 C 11.442 17.224,11.778 17.560,12.080 17.661 C 12.507 17.803,12.645 17.777,14.203 17.258 C 15.640 16.780,16.004 16.624,16.480 16.288 C 16.752 16.096,21.468 11.433,21.987 10.843 C 22.531 10.226,22.731 9.717,22.730 8.960 C 22.729 8.485,22.657 8.150,22.476 7.785 C 21.954 6.733,20.859 6.139,19.700 6.278 M20.560 7.874 C 20.800 7.998,21.007 8.203,21.124 8.432 C 21.205 8.590,21.220 8.678,21.219 8.980 C 21.219 9.386,21.166 9.521,20.887 9.840 L 20.730 10.020 20.575 9.966 C 19.953 9.750,19.313 9.125,19.058 8.487 L 18.989 8.314 19.184 8.116 C 19.445 7.851,19.688 7.757,20.080 7.770 C 20.301 7.778,20.427 7.805,20.560 7.874 M7.826 8.284 C 7.476 8.367,7.267 8.636,7.267 9.003 C 7.267 9.281,7.387 9.496,7.627 9.645 L 7.780 9.740 11.200 9.740 C 13.081 9.740,14.669 9.726,14.729 9.709 C 14.881 9.667,15.121 9.447,15.186 9.292 C 15.297 9.027,15.241 8.711,15.047 8.506 C 14.799 8.244,15.041 8.261,11.340 8.253 C 9.409 8.250,7.914 8.263,7.826 8.284 M18.190 9.966 C 18.424 10.283,18.848 10.688,19.184 10.915 C 19.344 11.023,19.499 11.121,19.528 11.132 C 19.583 11.152,17.104 13.670,16.083 14.630 C 15.404 15.267,15.294 15.328,14.090 15.725 L 13.320 15.978 13.171 15.829 L 13.022 15.680 13.275 14.910 C 13.415 14.487,13.600 13.987,13.687 13.800 L 13.844 13.460 15.850 11.451 L 17.855 9.443 17.942 9.595 C 17.989 9.679,18.101 9.846,18.190 9.966 M7.826 12.283 C 7.475 12.368,7.267 12.636,7.267 13.003 C 7.267 13.281,7.387 13.496,7.627 13.645 L 7.780 13.740 9.200 13.740 C 9.981 13.740,10.669 13.726,10.729 13.709 C 10.881 13.667,11.121 13.447,11.186 13.292 C 11.297 13.027,11.241 12.711,11.047 12.506 C 10.813 12.259,10.827 12.261,9.340 12.253 C 8.592 12.249,7.911 12.262,7.826 12.283 M7.826 16.283 C 7.474 16.369,7.267 16.637,7.267 17.003 C 7.267 17.281,7.387 17.496,7.627 17.645 C 7.776 17.738,7.801 17.740,8.700 17.740 C 9.206 17.740,9.669 17.726,9.729 17.709 C 9.881 17.667,10.121 17.447,10.186 17.292 C 10.297 17.027,10.241 16.711,10.047 16.506 C 9.825 16.272,9.776 16.261,8.840 16.253 C 8.367 16.248,7.911 16.262,7.826 16.283 " stroke="none" fill-rule="evenodd" fill="black"></path></svg>