<svg width="24" height="24" viewBox="0 0 24 24" fill="none" xmlns="http://www.w3.org/2000/svg"><path d="M9.120 1.280 C 8.023 1.315,7.568 1.359,7.052 1.480 C 6.312 1.654,5.677 1.994,5.282 2.425 C 5.083 2.644,4.720 3.210,4.720 3.304 C 4.720 3.330,4.521 3.386,4.247 3.437 C 3.438 3.588,2.861 3.867,2.378 4.340 C 1.742 4.964,1.429 5.810,1.312 7.223 C 1.277 7.648,1.262 9.025,1.262 12.000 C 1.262 16.358,1.280 16.948,1.436 17.749 C 1.762 19.421,2.712 20.325,4.430 20.601 C 4.600 20.628,4.720 20.667,4.720 20.694 C 4.720 20.812,5.118 21.405,5.356 21.643 C 5.976 22.261,6.822 22.571,8.209 22.687 C 8.995 22.753,15.005 22.753,15.791 22.687 C 17.178 22.571,18.024 22.261,18.644 21.643 C 18.882 21.405,19.280 20.812,19.280 20.694 C 19.280 20.667,19.400 20.628,19.570 20.601 C 21.284 20.326,22.219 19.440,22.557 17.772 C 22.718 16.978,22.737 16.351,22.737 12.000 C 22.737 9.021,22.723 7.686,22.687 7.240 C 22.570 5.807,22.262 4.968,21.622 4.340 C 21.139 3.867,20.562 3.588,19.753 3.437 C 19.479 3.386,19.280 3.330,19.280 3.304 C 19.280 3.188,18.880 2.593,18.644 2.357 C 18.028 1.743,17.159 1.424,15.820 1.321 C 15.101 1.265,10.452 1.237,9.120 1.280 M16.220 2.854 C 17.518 3.071,17.941 3.500,18.149 4.814 C 18.215 5.228,18.220 5.746,18.220 11.980 C 18.220 18.922,18.218 19.040,18.060 19.660 C 17.968 20.023,17.743 20.450,17.555 20.620 C 17.252 20.894,16.764 21.073,16.060 21.170 C 15.547 21.241,8.453 21.241,7.940 21.170 C 7.236 21.073,6.748 20.894,6.445 20.620 C 6.147 20.351,5.932 19.806,5.830 19.060 C 5.758 18.539,5.758 5.461,5.830 4.940 C 5.964 3.962,6.236 3.440,6.749 3.171 C 7.168 2.951,7.581 2.855,8.340 2.800 C 8.582 2.783,10.364 2.773,12.300 2.778 C 15.375 2.786,15.871 2.795,16.220 2.854 M4.291 5.690 C 4.251 6.643,4.251 17.361,4.291 18.315 L 4.322 19.049 4.211 19.022 C 3.995 18.970,3.608 18.767,3.445 18.620 C 3.147 18.351,2.932 17.806,2.830 17.060 C 2.758 16.543,2.758 7.457,2.830 6.940 C 2.953 6.046,3.212 5.492,3.628 5.235 C 3.791 5.134,4.194 4.962,4.271 4.961 C 4.311 4.960,4.315 5.110,4.291 5.690 M20.145 5.118 C 20.725 5.386,20.995 5.842,21.149 6.814 C 21.214 7.222,21.220 7.659,21.220 11.980 C 21.220 16.834,21.214 17.054,21.060 17.660 C 20.968 18.023,20.743 18.450,20.555 18.620 C 20.392 18.767,20.005 18.970,19.789 19.022 L 19.679 19.049 19.709 18.234 C 19.749 17.175,19.749 6.825,19.709 5.766 L 19.679 4.951 19.789 4.978 C 19.850 4.992,20.010 5.055,20.145 5.118 M8.807 8.287 C 8.573 8.339,8.348 8.567,8.286 8.813 C 8.202 9.146,8.333 9.462,8.631 9.647 L 8.780 9.740 12.000 9.740 L 15.220 9.740 15.369 9.647 C 15.943 9.290,15.812 8.424,15.162 8.284 C 14.899 8.228,9.061 8.230,8.807 8.287 M8.807 12.287 C 8.573 12.339,8.348 12.567,8.286 12.813 C 8.202 13.146,8.333 13.462,8.631 13.647 L 8.780 13.740 12.000 13.740 L 15.220 13.740 15.369 13.647 C 15.943 13.290,15.812 12.424,15.162 12.284 C 14.899 12.228,9.061 12.230,8.807 12.287 M8.807 16.287 C 8.573 16.339,8.348 16.567,8.286 16.813 C 8.202 17.146,8.333 17.462,8.631 17.647 L 8.780 17.740 10.500 17.740 L 12.220 17.740 12.369 17.647 C 12.943 17.290,12.812 16.424,12.162 16.284 C 11.905 16.229,9.056 16.232,8.807 16.287 " stroke="none" fill-rule="evenodd" fill="black"></path></svg>