<svg width="24" height="24" viewBox="0 0 24 24" fill="none" xmlns="http://www.w3.org/2000/svg"><path d="M8.420 1.283 C 6.912 1.325,5.970 1.447,5.221 1.698 C 3.984 2.114,3.114 2.984,2.698 4.221 C 2.317 5.356,2.242 6.641,2.242 12.000 C 2.242 17.336,2.314 18.598,2.682 19.727 C 3.173 21.229,4.266 22.158,5.940 22.495 C 6.894 22.688,8.519 22.758,12.000 22.758 C 15.481 22.758,17.106 22.688,18.060 22.495 C 19.711 22.163,20.811 21.241,21.302 19.779 C 21.682 18.646,21.758 17.355,21.758 12.000 C 21.758 6.645,21.682 5.354,21.302 4.221 C 20.886 2.984,20.016 2.114,18.779 1.698 C 17.998 1.436,17.134 1.331,15.360 1.280 C 13.838 1.237,10.034 1.238,8.420 1.283 M16.341 2.802 C 17.138 2.854,17.642 2.928,18.093 3.059 C 19.534 3.477,20.046 4.353,20.198 6.659 C 20.254 7.516,20.254 16.484,20.198 17.341 C 20.016 20.111,19.317 20.907,16.840 21.167 C 16.120 21.243,7.880 21.243,7.160 21.167 C 4.843 20.924,4.112 20.210,3.835 17.920 C 3.769 17.379,3.738 7.719,3.798 6.740 C 3.860 5.752,3.924 5.320,4.089 4.800 C 4.509 3.473,5.423 2.948,7.560 2.805 C 8.310 2.755,15.585 2.752,16.341 2.802 M7.826 7.284 C 7.476 7.366,7.267 7.636,7.267 8.003 C 7.267 8.281,7.387 8.496,7.627 8.645 L 7.780 8.740 12.000 8.740 L 16.220 8.740 16.369 8.647 C 16.943 8.290,16.812 7.424,16.162 7.284 C 15.907 7.229,8.059 7.229,7.826 7.284 M7.826 11.284 C 7.476 11.366,7.267 11.636,7.267 12.003 C 7.267 12.281,7.387 12.496,7.627 12.645 L 7.780 12.740 12.000 12.740 L 16.220 12.740 16.369 12.647 C 16.943 12.290,16.812 11.424,16.162 11.284 C 15.907 11.229,8.059 11.229,7.826 11.284 M7.826 15.284 C 7.476 15.366,7.267 15.636,7.267 16.003 C 7.267 16.281,7.387 16.496,7.627 16.645 L 7.780 16.740 10.500 16.740 L 13.220 16.740 13.369 16.647 C 13.943 16.290,13.812 15.424,13.162 15.284 C 12.909 15.230,8.057 15.230,7.826 15.284 " stroke="none" fill-rule="evenodd" fill="black"></path></svg>