<svg width="24" height="24" viewBox="0 0 24 24" fill="none" xmlns="http://www.w3.org/2000/svg"><path d="M11.310 1.283 C 6.653 1.563,2.667 4.904,1.564 9.450 C 1.162 11.110,1.162 12.890,1.564 14.550 C 2.415 18.060,5.032 20.948,8.442 22.139 C 10.725 22.937,13.275 22.937,15.558 22.139 C 18.633 21.065,21.092 18.592,22.157 15.503 C 22.819 13.585,22.918 11.437,22.436 9.450 C 21.419 5.255,17.924 2.044,13.657 1.383 C 13.303 1.328,12.042 1.231,11.880 1.246 C 11.847 1.249,11.590 1.266,11.310 1.283 M12.992 2.802 C 14.750 2.993,16.561 3.756,17.878 4.859 C 18.914 5.728,19.725 6.758,20.304 7.940 C 20.940 9.239,21.240 10.538,21.240 12.000 C 21.240 13.462,20.940 14.764,20.304 16.060 C 18.921 18.877,16.278 20.768,13.146 21.178 C 12.214 21.301,10.974 21.244,10.002 21.034 C 8.667 20.747,7.178 20.022,6.140 19.153 C 4.272 17.590,3.134 15.531,2.822 13.146 C 2.699 12.214,2.756 10.974,2.966 10.002 C 3.253 8.667,3.978 7.178,4.847 6.140 C 5.196 5.722,5.821 5.101,6.213 4.783 C 7.491 3.743,9.284 2.994,10.940 2.807 C 11.397 2.755,12.535 2.753,12.992 2.802 M11.807 5.289 C 11.469 5.361,11.240 5.710,11.240 6.152 L 11.240 6.309 10.988 6.371 C 9.507 6.736,8.433 7.848,8.283 9.172 C 8.130 10.530,8.960 11.832,10.353 12.419 C 10.868 12.636,11.162 12.694,12.084 12.759 C 12.668 12.800,12.972 12.882,13.345 13.101 C 13.638 13.272,13.934 13.572,14.085 13.851 C 14.213 14.087,14.220 14.121,14.220 14.500 C 14.219 15.000,14.140 15.184,13.762 15.563 C 13.305 16.022,12.739 16.240,12.000 16.240 C 11.261 16.240,10.695 16.022,10.238 15.563 C 9.922 15.246,9.810 15.020,9.757 14.592 C 9.712 14.233,9.662 14.111,9.494 13.953 C 9.077 13.559,8.406 13.781,8.276 14.356 C 8.201 14.689,8.382 15.483,8.633 15.920 C 9.107 16.748,9.972 17.383,10.947 17.620 L 11.229 17.688 11.252 17.966 C 11.294 18.460,11.561 18.733,12.003 18.733 C 12.437 18.733,12.699 18.457,12.746 17.950 L 12.771 17.688 13.053 17.620 C 14.484 17.272,15.569 16.135,15.717 14.828 C 15.894 13.262,14.795 11.841,13.050 11.378 C 12.923 11.344,12.496 11.292,12.100 11.262 C 11.311 11.201,11.041 11.131,10.616 10.875 C 10.341 10.709,10.006 10.356,9.877 10.095 C 9.795 9.929,9.781 9.841,9.780 9.500 C 9.780 9.123,9.788 9.086,9.912 8.856 C 10.148 8.421,10.599 8.064,11.155 7.872 C 11.384 7.793,11.499 7.780,12.000 7.780 C 12.501 7.780,12.616 7.793,12.845 7.872 C 13.656 8.152,14.154 8.698,14.243 9.403 C 14.288 9.767,14.338 9.888,14.506 10.047 C 14.923 10.441,15.594 10.219,15.724 9.644 C 15.741 9.568,15.738 9.357,15.717 9.175 C 15.567 7.849,14.493 6.736,13.012 6.371 C 12.761 6.309,12.760 6.308,12.759 6.164 C 12.755 5.534,12.359 5.170,11.807 5.289 " stroke="none" fill-rule="evenodd" fill="black"></path></svg>