<svg width="24" height="24" viewBox="0 0 24 24" fill="none" xmlns="http://www.w3.org/2000/svg"><path d="M11.320 1.281 C 7.064 1.523,3.276 4.391,1.861 8.442 C 1.063 10.725,1.063 13.275,1.861 15.558 C 2.935 18.633,5.408 21.092,8.497 22.157 C 10.418 22.820,12.560 22.918,14.550 22.436 C 18.428 21.495,21.495 18.428,22.436 14.550 C 22.837 12.894,22.837 11.106,22.436 9.450 C 21.425 5.282,17.985 2.095,13.742 1.398 C 13.334 1.331,12.074 1.229,11.880 1.247 C 11.847 1.250,11.595 1.265,11.320 1.281 M13.146 2.822 C 14.202 2.960,15.123 3.237,16.066 3.699 C 17.045 4.178,17.807 4.731,18.609 5.542 L 18.999 5.936 18.685 6.258 C 18.305 6.649,18.267 6.718,18.267 7.004 C 18.267 7.495,18.684 7.818,19.181 7.712 C 19.324 7.681,19.424 7.617,19.627 7.428 C 19.879 7.192,19.891 7.186,19.948 7.261 C 20.073 7.427,20.602 8.559,20.736 8.950 L 20.877 9.360 20.669 9.360 C 20.554 9.360,20.410 9.387,20.348 9.419 C 20.287 9.451,19.825 9.839,19.321 10.281 C 18.336 11.147,18.265 11.235,18.264 11.585 C 18.263 11.824,18.399 12.067,18.598 12.185 C 18.738 12.268,18.755 12.320,18.642 12.320 C 18.500 12.320,18.105 12.488,17.840 12.662 C 17.539 12.859,17.422 12.968,16.810 13.628 C 16.278 14.202,16.169 14.262,15.710 14.231 C 15.551 14.220,15.353 14.183,15.270 14.148 L 15.121 14.084 15.281 13.788 C 15.599 13.197,15.729 12.680,15.729 12.000 C 15.729 11.318,15.600 10.803,15.279 10.208 C 14.922 9.547,14.451 9.077,13.788 8.719 C 13.197 8.400,12.680 8.271,12.000 8.271 C 11.320 8.271,10.803 8.400,10.212 8.719 C 9.222 9.253,8.524 10.212,8.319 11.320 C 8.250 11.687,8.260 12.402,8.338 12.760 C 8.374 12.925,8.412 13.105,8.424 13.160 C 8.443 13.249,8.410 13.282,8.113 13.468 C 7.660 13.752,7.091 14.014,6.666 14.138 C 6.225 14.265,5.819 14.272,5.376 14.160 C 4.799 14.013,3.763 13.445,2.985 12.848 L 2.750 12.668 2.774 11.784 C 2.798 10.869,2.879 10.184,2.935 10.420 C 2.995 10.672,3.132 10.884,3.300 10.982 C 3.611 11.165,4.064 11.085,4.264 10.814 C 4.430 10.587,4.441 10.477,4.386 9.575 C 4.337 8.781,4.327 8.719,4.227 8.549 C 4.113 8.354,3.865 8.200,3.666 8.200 L 3.557 8.200 3.785 7.754 C 4.230 6.883,4.783 6.140,5.541 5.391 L 5.935 5.003 6.281 5.337 C 6.570 5.615,6.659 5.678,6.814 5.711 C 7.385 5.832,7.833 5.386,7.711 4.817 C 7.681 4.677,7.616 4.575,7.428 4.373 C 7.134 4.059,7.091 4.115,7.940 3.697 C 8.851 3.249,9.796 2.962,10.820 2.823 C 11.380 2.746,12.569 2.746,13.146 2.822 M10.815 3.277 C 10.639 3.320,10.461 3.456,10.356 3.626 C 10.235 3.822,10.232 4.173,10.350 4.364 C 10.397 4.439,10.701 4.763,11.027 5.085 C 11.562 5.612,11.639 5.673,11.810 5.710 C 12.388 5.833,12.833 5.389,12.710 4.810 C 12.673 4.638,12.612 4.562,12.070 4.012 C 11.740 3.678,11.413 3.378,11.345 3.345 C 11.177 3.266,10.967 3.239,10.815 3.277 M15.820 4.276 C 15.754 4.293,15.657 4.332,15.605 4.363 C 15.498 4.426,13.856 6.593,13.797 6.748 C 13.744 6.888,13.751 7.142,13.814 7.292 C 13.844 7.363,13.934 7.479,14.014 7.549 C 14.274 7.778,14.616 7.808,14.891 7.625 C 15.087 7.495,16.666 5.378,16.715 5.181 C 16.848 4.641,16.356 4.143,15.820 4.276 M9.639 6.455 C 8.785 6.687,8.749 6.701,8.593 6.867 C 8.453 7.013,8.400 7.160,8.400 7.395 C 8.400 7.633,8.569 7.917,8.765 8.010 C 9.048 8.143,9.141 8.136,9.961 7.918 C 10.812 7.692,10.888 7.662,11.047 7.494 C 11.461 7.057,11.193 6.354,10.580 6.267 C 10.460 6.249,10.225 6.297,9.639 6.455 M5.900 7.183 C 5.613 7.332,5.480 7.549,5.480 7.866 C 5.480 8.016,5.547 8.202,5.806 8.777 C 5.985 9.175,6.165 9.548,6.206 9.607 C 6.247 9.665,6.363 9.753,6.463 9.801 C 6.963 10.044,7.520 9.697,7.520 9.142 C 7.520 8.981,7.463 8.817,7.212 8.262 C 7.043 7.887,6.864 7.515,6.815 7.435 C 6.647 7.163,6.183 7.036,5.900 7.183 M16.340 8.303 C 16.166 8.394,16.037 8.522,15.975 8.669 C 15.870 8.915,15.934 10.469,16.061 10.736 C 16.233 11.099,16.761 11.239,17.108 11.013 C 17.388 10.832,17.440 10.690,17.438 10.115 C 17.436 9.843,17.421 9.417,17.403 9.170 C 17.375 8.786,17.356 8.697,17.268 8.565 C 17.081 8.282,16.626 8.154,16.340 8.303 M12.578 9.821 C 12.949 9.918,13.274 10.112,13.581 10.419 C 14.041 10.879,14.240 11.356,14.240 12.000 C 14.240 12.644,14.041 13.121,13.581 13.581 C 13.121 14.041,12.644 14.240,12.000 14.240 C 11.356 14.240,10.879 14.041,10.419 13.581 C 9.959 13.121,9.760 12.644,9.760 12.000 C 9.760 11.356,9.959 10.879,10.419 10.419 C 10.719 10.118,11.050 9.919,11.404 9.823 C 11.692 9.746,12.285 9.745,12.578 9.821 M21.215 11.907 C 21.218 12.460,21.209 12.924,21.195 12.938 C 21.182 12.951,21.074 12.898,20.955 12.820 C 20.497 12.517,19.847 12.281,19.464 12.279 L 19.300 12.278 19.478 12.129 C 19.577 12.047,19.990 11.687,20.398 11.329 L 21.139 10.677 21.175 10.789 C 21.195 10.850,21.213 11.353,21.215 11.907 M6.159 10.850 C 6.013 10.924,5.899 11.052,5.528 11.560 C 5.278 11.901,5.040 12.247,4.997 12.328 C 4.793 12.721,5.037 13.241,5.481 13.360 C 5.742 13.431,6.032 13.340,6.218 13.128 C 6.414 12.906,7.132 11.900,7.185 11.774 C 7.292 11.517,7.211 11.127,7.014 10.952 C 6.788 10.751,6.437 10.709,6.159 10.850 M19.884 13.928 C 20.189 14.075,20.668 14.444,20.784 14.621 C 20.846 14.716,20.843 14.739,20.722 15.090 C 20.531 15.646,20.043 16.615,19.698 17.126 C 18.175 19.381,15.840 20.825,13.146 21.178 C 12.541 21.258,11.459 21.258,10.854 21.178 C 7.747 20.771,5.093 18.886,3.720 16.112 C 3.459 15.583,3.185 14.902,3.209 14.837 C 3.215 14.820,3.328 14.871,3.460 14.950 C 4.089 15.326,5.001 15.647,5.639 15.716 C 6.610 15.822,7.783 15.464,8.966 14.699 L 9.232 14.527 9.346 14.648 C 9.659 14.979,10.274 15.359,10.785 15.537 C 11.187 15.678,11.524 15.730,12.020 15.728 C 12.680 15.727,13.217 15.592,13.781 15.286 L 14.002 15.166 14.271 15.324 C 14.949 15.722,15.908 15.844,16.580 15.619 C 17.107 15.442,17.439 15.175,18.306 14.230 C 18.677 13.826,18.831 13.752,19.264 13.771 C 19.536 13.783,19.634 13.808,19.884 13.928 " stroke="none" fill-rule="evenodd" fill="black"></path></svg>