<svg width="24" height="24" viewBox="0 0 24 24" fill="none" xmlns="http://www.w3.org/2000/svg"><path d="M11.560 1.266 C 7.890 1.436,4.654 3.369,2.761 6.520 C 1.391 8.802,0.938 11.606,1.504 14.293 C 2.269 17.926,5.024 20.995,8.589 22.187 C 9.665 22.546,10.732 22.719,11.957 22.732 C 12.769 22.741,12.825 22.728,13.047 22.494 C 13.288 22.239,13.302 21.952,13.095 21.532 C 12.964 21.267,12.951 21.214,12.970 21.006 C 12.982 20.878,13.028 20.703,13.072 20.615 C 13.183 20.398,13.465 20.148,13.702 20.056 C 13.896 19.982,13.976 19.977,14.586 20.006 C 14.853 20.019,14.884 20.012,15.046 19.895 C 15.397 19.643,15.593 19.276,15.536 18.975 C 15.521 18.895,15.422 18.702,15.315 18.545 C 15.084 18.205,15.019 17.960,15.079 17.646 C 15.175 17.139,15.571 16.666,16.120 16.403 C 16.397 16.271,16.448 16.260,16.780 16.261 C 17.303 16.263,17.458 16.355,17.864 16.904 C 18.004 17.093,18.140 17.229,18.240 17.280 C 18.531 17.429,18.890 17.361,19.153 17.108 C 19.365 16.905,19.412 16.778,19.422 16.395 C 19.429 16.101,19.447 16.018,19.543 15.842 C 19.771 15.423,20.226 15.140,20.668 15.144 C 20.882 15.146,20.948 15.166,21.158 15.296 C 21.361 15.421,21.437 15.446,21.618 15.446 C 21.989 15.446,22.238 15.247,22.359 14.852 C 22.592 14.100,22.731 13.017,22.729 11.980 C 22.727 11.120,22.655 10.446,22.481 9.651 C 21.514 5.248,17.782 1.866,13.313 1.344 C 12.784 1.282,11.982 1.247,11.560 1.266 M12.992 2.802 C 14.709 2.989,16.423 3.696,17.780 4.778 C 17.934 4.900,18.272 5.211,18.530 5.467 L 19.001 5.934 18.686 6.257 C 18.305 6.649,18.267 6.717,18.267 7.004 C 18.267 7.495,18.684 7.818,19.181 7.712 C 19.324 7.681,19.424 7.617,19.627 7.428 C 19.879 7.192,19.891 7.186,19.948 7.261 C 20.073 7.427,20.602 8.559,20.736 8.950 L 20.877 9.360 20.669 9.360 C 20.554 9.360,20.410 9.387,20.348 9.419 C 20.287 9.451,19.825 9.839,19.321 10.281 C 18.338 11.146,18.265 11.235,18.264 11.581 C 18.262 11.982,18.577 12.290,18.995 12.296 C 19.292 12.300,19.322 12.279,20.340 11.383 L 21.139 10.678 21.176 10.789 C 21.236 10.971,21.219 13.055,21.155 13.375 L 21.100 13.649 20.640 13.658 C 20.272 13.666,20.118 13.688,19.869 13.770 C 19.281 13.963,18.724 14.370,18.417 14.829 C 18.332 14.956,18.251 15.075,18.236 15.093 C 18.222 15.111,18.116 15.079,18.001 15.021 C 17.640 14.838,17.235 14.756,16.739 14.765 C 16.299 14.773,16.296 14.772,16.119 14.643 C 16.020 14.572,15.764 14.414,15.550 14.293 C 15.335 14.171,15.160 14.059,15.160 14.043 C 15.160 14.027,15.215 13.912,15.283 13.787 C 15.592 13.217,15.727 12.683,15.728 12.020 C 15.730 11.321,15.603 10.810,15.279 10.208 C 14.922 9.547,14.451 9.077,13.788 8.719 C 13.197 8.400,12.680 8.271,12.000 8.271 C 11.320 8.271,10.803 8.400,10.212 8.719 C 9.222 9.253,8.524 10.212,8.319 11.320 C 8.250 11.687,8.260 12.402,8.338 12.760 C 8.374 12.925,8.412 13.105,8.424 13.160 C 8.443 13.249,8.410 13.282,8.113 13.468 C 7.660 13.752,7.091 14.014,6.666 14.138 C 6.225 14.265,5.819 14.272,5.376 14.160 C 4.799 14.013,3.763 13.445,2.985 12.848 L 2.749 12.667 2.774 11.784 C 2.799 10.865,2.880 10.187,2.935 10.420 C 3.035 10.843,3.301 11.080,3.675 11.080 C 4.032 11.080,4.314 10.874,4.402 10.549 C 4.423 10.471,4.416 10.084,4.385 9.575 C 4.337 8.780,4.327 8.719,4.227 8.549 C 4.113 8.354,3.865 8.200,3.666 8.200 L 3.557 8.200 3.787 7.750 C 4.217 6.909,4.727 6.216,5.467 5.470 L 5.933 5.001 6.280 5.336 C 6.570 5.615,6.659 5.677,6.814 5.711 C 7.385 5.832,7.833 5.386,7.711 4.817 C 7.681 4.677,7.616 4.575,7.428 4.373 C 7.134 4.059,7.091 4.115,7.940 3.697 C 8.867 3.241,9.955 2.918,10.940 2.807 C 11.397 2.755,12.535 2.753,12.992 2.802 M10.815 3.277 C 10.639 3.320,10.461 3.456,10.356 3.626 C 10.235 3.822,10.232 4.173,10.350 4.364 C 10.397 4.439,10.701 4.763,11.027 5.085 C 11.562 5.612,11.639 5.673,11.810 5.710 C 12.388 5.833,12.833 5.389,12.710 4.810 C 12.673 4.638,12.612 4.562,12.070 4.012 C 11.740 3.678,11.413 3.378,11.345 3.345 C 11.177 3.266,10.967 3.239,10.815 3.277 M15.820 4.276 C 15.754 4.293,15.657 4.332,15.605 4.363 C 15.498 4.426,13.856 6.593,13.797 6.748 C 13.744 6.888,13.751 7.142,13.814 7.292 C 13.844 7.363,13.934 7.479,14.014 7.549 C 14.274 7.778,14.616 7.808,14.891 7.625 C 15.087 7.495,16.666 5.378,16.715 5.181 C 16.848 4.641,16.356 4.143,15.820 4.276 M9.639 6.455 C 8.785 6.687,8.749 6.701,8.593 6.867 C 8.453 7.013,8.400 7.160,8.400 7.395 C 8.400 7.633,8.569 7.917,8.765 8.010 C 9.048 8.143,9.141 8.136,9.961 7.918 C 10.812 7.692,10.888 7.662,11.047 7.494 C 11.461 7.057,11.193 6.354,10.580 6.267 C 10.460 6.249,10.225 6.297,9.639 6.455 M5.900 7.183 C 5.613 7.332,5.480 7.549,5.480 7.866 C 5.480 8.016,5.547 8.202,5.806 8.777 C 5.985 9.175,6.165 9.548,6.206 9.607 C 6.247 9.665,6.363 9.753,6.463 9.801 C 6.963 10.044,7.520 9.697,7.520 9.142 C 7.520 8.981,7.463 8.817,7.212 8.262 C 7.043 7.887,6.864 7.515,6.815 7.435 C 6.647 7.163,6.183 7.036,5.900 7.183 M16.340 8.303 C 16.166 8.394,16.037 8.522,15.975 8.669 C 15.870 8.915,15.934 10.469,16.061 10.736 C 16.233 11.099,16.761 11.239,17.108 11.013 C 17.388 10.832,17.440 10.690,17.438 10.115 C 17.436 9.843,17.421 9.417,17.403 9.170 C 17.375 8.786,17.356 8.697,17.268 8.565 C 17.081 8.282,16.626 8.154,16.340 8.303 M12.578 9.821 C 12.949 9.918,13.274 10.112,13.581 10.419 C 14.041 10.879,14.240 11.356,14.240 12.000 C 14.240 12.644,14.041 13.121,13.581 13.581 C 13.121 14.041,12.644 14.240,12.000 14.240 C 11.356 14.240,10.879 14.041,10.419 13.581 C 9.959 13.121,9.760 12.644,9.760 12.000 C 9.760 11.356,9.959 10.879,10.419 10.419 C 10.719 10.118,11.050 9.919,11.404 9.823 C 11.692 9.746,12.285 9.745,12.578 9.821 M6.159 10.850 C 6.013 10.924,5.899 11.052,5.528 11.560 C 5.278 11.901,5.040 12.247,4.997 12.328 C 4.793 12.721,5.037 13.241,5.481 13.360 C 5.742 13.431,6.032 13.340,6.218 13.128 C 6.414 12.906,7.132 11.900,7.185 11.774 C 7.292 11.517,7.211 11.127,7.014 10.952 C 6.788 10.751,6.437 10.709,6.159 10.850 M9.883 15.087 C 10.558 15.533,11.205 15.729,12.000 15.729 C 12.669 15.729,13.135 15.617,13.728 15.312 L 14.035 15.154 14.373 15.342 L 14.711 15.530 14.579 15.646 C 14.506 15.710,14.348 15.893,14.227 16.051 C 13.753 16.675,13.536 17.320,13.571 18.000 C 13.582 18.209,13.603 18.410,13.619 18.448 C 13.641 18.502,13.612 18.524,13.473 18.561 C 12.354 18.860,11.552 19.801,11.489 20.893 L 11.469 21.245 11.204 21.220 C 9.340 21.042,7.613 20.344,6.180 19.188 C 5.794 18.876,5.085 18.164,4.778 17.780 C 4.388 17.291,4.005 16.688,3.723 16.117 C 3.459 15.584,3.185 14.902,3.209 14.837 C 3.215 14.820,3.328 14.871,3.460 14.950 C 3.825 15.168,4.496 15.454,4.920 15.573 C 5.845 15.832,6.628 15.781,7.620 15.396 C 8.013 15.244,8.733 14.866,9.056 14.643 L 9.219 14.529 9.443 14.736 C 9.566 14.850,9.764 15.008,9.883 15.087 " stroke="none" fill-rule="evenodd" fill="black"></path></svg>