<svg width="24" height="24" viewBox="0 0 24 24" fill="none" xmlns="http://www.w3.org/2000/svg"><path d="M12.793 4.287 C 12.712 4.309,12.582 4.384,12.505 4.453 C 12.332 4.608,6.512 11.398,6.369 11.612 C 6.224 11.827,6.224 12.173,6.369 12.388 C 6.425 12.472,7.831 14.126,9.494 16.065 C 11.785 18.737,12.553 19.607,12.668 19.662 C 13.260 19.947,13.883 19.404,13.709 18.754 C 13.693 18.696,12.402 17.157,10.840 15.334 C 9.278 13.511,8.000 12.011,8.000 12.000 C 8.000 11.989,9.278 10.489,10.840 8.666 C 12.402 6.843,13.693 5.304,13.709 5.246 C 13.866 4.658,13.363 4.131,12.793 4.287 M16.793 4.287 C 16.712 4.309,16.582 4.384,16.505 4.453 C 16.332 4.608,10.512 11.398,10.369 11.612 C 10.224 11.827,10.224 12.173,10.369 12.388 C 10.425 12.472,11.831 14.126,13.494 16.065 C 15.785 18.737,16.553 19.607,16.668 19.662 C 17.260 19.947,17.883 19.404,17.709 18.754 C 17.693 18.696,16.402 17.157,14.840 15.334 C 13.278 13.511,12.000 12.011,12.000 12.000 C 12.000 11.989,13.278 10.489,14.840 8.666 C 16.402 6.843,17.693 5.304,17.709 5.246 C 17.866 4.658,17.363 4.131,16.793 4.287 " stroke="none" fill-rule="evenodd" fill="black"></path></svg>