<svg width="24" height="24" viewBox="0 0 24 24" fill="none" xmlns="http://www.w3.org/2000/svg"><path d="M4.785 6.288 C 4.579 6.344,4.336 6.591,4.279 6.803 C 4.218 7.031,4.288 7.311,4.453 7.495 C 4.608 7.668,11.398 13.488,11.612 13.631 C 11.804 13.760,12.170 13.775,12.347 13.660 C 12.409 13.620,14.065 12.211,16.027 10.530 C 18.671 8.265,19.612 7.436,19.665 7.327 C 19.907 6.823,19.539 6.258,18.974 6.266 C 18.840 6.268,18.721 6.297,18.641 6.347 C 18.573 6.391,17.059 7.676,15.277 9.203 C 13.495 10.730,12.024 11.984,12.008 11.990 C 11.993 11.995,10.490 10.723,8.669 9.162 C 6.848 7.602,5.327 6.316,5.289 6.304 C 5.121 6.255,4.928 6.249,4.785 6.288 M4.785 10.288 C 4.579 10.344,4.336 10.591,4.279 10.803 C 4.218 11.031,4.288 11.311,4.453 11.495 C 4.608 11.668,11.398 17.488,11.612 17.631 C 11.804 17.760,12.170 17.775,12.347 17.660 C 12.409 17.620,14.065 16.211,16.027 14.530 C 18.671 12.265,19.612 11.436,19.665 11.327 C 19.907 10.823,19.539 10.258,18.974 10.266 C 18.840 10.268,18.721 10.297,18.641 10.347 C 18.573 10.391,17.059 11.676,15.277 13.203 C 13.495 14.730,12.024 15.984,12.008 15.990 C 11.993 15.995,10.490 14.723,8.669 13.162 C 6.848 11.602,5.327 10.316,5.289 10.304 C 5.121 10.255,4.928 10.249,4.785 10.288 " stroke="none" fill-rule="evenodd" fill="black"></path></svg>