<svg width="24" height="24" viewBox="0 0 24 24" fill="none" xmlns="http://www.w3.org/2000/svg"><path d="M11.807 6.279 C 11.734 6.296,11.599 6.371,11.507 6.445 C 11.415 6.518,9.781 7.914,7.875 9.548 C 5.251 11.796,4.393 12.554,4.338 12.668 C 4.296 12.754,4.264 12.910,4.264 13.029 C 4.262 13.503,4.750 13.841,5.246 13.709 C 5.304 13.693,6.843 12.402,8.666 10.840 C 10.489 9.278,11.993 8.005,12.008 8.010 C 12.024 8.016,13.495 9.270,15.277 10.797 C 17.059 12.324,18.573 13.609,18.641 13.653 C 18.812 13.761,19.134 13.762,19.341 13.655 C 19.581 13.531,19.730 13.294,19.733 13.033 C 19.734 12.907,19.706 12.760,19.665 12.673 C 19.612 12.564,18.671 11.735,16.027 9.470 C 14.065 7.789,12.415 6.385,12.360 6.351 C 12.232 6.270,11.978 6.237,11.807 6.279 M11.807 10.279 C 11.734 10.296,11.599 10.371,11.507 10.445 C 11.415 10.518,9.781 11.914,7.875 13.548 C 5.251 15.796,4.393 16.554,4.338 16.668 C 4.296 16.754,4.264 16.910,4.264 17.029 C 4.262 17.503,4.750 17.841,5.246 17.709 C 5.304 17.693,6.843 16.402,8.666 14.840 C 10.489 13.278,11.993 12.005,12.008 12.010 C 12.024 12.016,13.495 13.270,15.277 14.797 C 17.059 16.324,18.573 17.609,18.641 17.653 C 18.812 17.761,19.134 17.762,19.341 17.655 C 19.581 17.531,19.730 17.294,19.733 17.033 C 19.734 16.907,19.706 16.760,19.665 16.673 C 19.612 16.564,18.671 15.735,16.027 13.470 C 14.065 11.789,12.415 10.385,12.360 10.351 C 12.232 10.270,11.978 10.237,11.807 10.279 " stroke="none" fill-rule="evenodd" fill="black"></path></svg>