<svg width="24" height="24" viewBox="0 0 24 24" fill="none" xmlns="http://www.w3.org/2000/svg"><path d="M11.815 2.278 C 11.639 2.320,11.462 2.455,11.353 2.631 L 11.260 2.780 11.240 8.409 L 11.220 14.038 9.860 12.550 C 9.028 11.640,8.437 11.027,8.340 10.972 C 7.993 10.776,7.523 10.928,7.330 11.299 C 7.240 11.473,7.251 11.804,7.353 11.977 C 7.478 12.189,11.494 16.567,11.645 16.657 C 11.732 16.708,11.850 16.733,12.000 16.733 C 12.150 16.733,12.268 16.708,12.355 16.657 C 12.506 16.567,16.522 12.189,16.647 11.977 C 16.749 11.804,16.760 11.473,16.670 11.299 C 16.477 10.928,16.007 10.776,15.660 10.972 C 15.563 11.027,14.972 11.640,14.140 12.550 L 12.780 14.038 12.760 8.429 C 12.741 3.030,12.737 2.814,12.664 2.668 C 12.573 2.484,12.395 2.343,12.180 2.284 C 12.003 2.236,11.993 2.236,11.815 2.278 M2.815 14.277 C 2.638 14.321,2.461 14.456,2.353 14.631 C 2.260 14.780,2.260 14.784,2.271 16.020 C 2.288 17.983,2.369 18.747,2.636 19.478 C 3.058 20.628,3.873 21.282,5.234 21.559 C 6.042 21.723,6.598 21.738,12.000 21.738 C 17.408 21.739,17.947 21.724,18.772 21.557 C 20.668 21.173,21.526 20.058,21.676 17.780 C 21.746 16.727,21.769 15.083,21.718 14.846 C 21.575 14.182,20.716 14.047,20.353 14.631 C 20.261 14.778,20.260 14.803,20.234 16.280 C 20.200 18.208,20.131 18.702,19.814 19.284 C 19.551 19.768,19.014 20.039,18.060 20.170 C 17.541 20.242,6.459 20.242,5.940 20.170 C 5.435 20.101,5.145 20.021,4.815 19.860 C 4.479 19.696,4.277 19.489,4.117 19.145 C 3.855 18.583,3.802 18.163,3.776 16.440 C 3.765 15.681,3.738 14.971,3.716 14.862 C 3.695 14.753,3.634 14.607,3.581 14.538 C 3.421 14.327,3.079 14.211,2.815 14.277 " stroke="none" fill-rule="evenodd" fill="black"></path></svg>