<svg width="24" height="24" viewBox="0 0 24 24" fill="none" xmlns="http://www.w3.org/2000/svg"><path d="M11.815 1.278 C 11.639 1.320,11.462 1.455,11.353 1.631 L 11.260 1.780 11.249 7.371 L 11.239 12.963 10.369 11.954 C 9.891 11.399,9.453 10.911,9.397 10.870 C 9.274 10.780,9.022 10.740,8.822 10.777 C 8.656 10.808,8.425 10.996,8.332 11.175 C 8.238 11.358,8.245 11.675,8.348 11.849 C 8.496 12.099,11.504 15.576,11.643 15.657 C 11.732 15.708,11.851 15.733,12.009 15.733 C 12.204 15.733,12.269 15.714,12.402 15.617 C 12.576 15.490,15.566 12.016,15.671 11.820 C 15.752 11.669,15.751 11.335,15.669 11.179 C 15.433 10.727,14.863 10.616,14.506 10.953 C 14.443 11.012,14.029 11.482,13.586 11.998 L 12.780 12.936 12.760 7.378 C 12.741 2.029,12.737 1.814,12.664 1.668 C 12.573 1.484,12.395 1.343,12.180 1.284 C 12.003 1.236,11.993 1.236,11.815 1.278 M5.920 8.282 C 4.604 8.330,3.863 8.458,3.253 8.740 C 2.034 9.303,1.470 10.312,1.314 12.209 C 1.250 12.983,1.250 18.017,1.314 18.791 C 1.504 21.099,2.334 22.172,4.231 22.558 C 5.073 22.730,5.495 22.740,12.000 22.740 C 18.505 22.740,18.927 22.730,19.769 22.558 C 21.375 22.231,22.233 21.373,22.557 19.772 C 22.601 19.556,22.658 19.101,22.685 18.760 C 22.752 17.916,22.752 13.084,22.685 12.240 C 22.573 10.814,22.263 9.969,21.622 9.340 C 21.061 8.791,20.334 8.487,19.280 8.360 C 18.684 8.289,17.051 8.241,16.826 8.288 C 16.186 8.421,16.059 9.293,16.628 9.645 C 16.767 9.731,16.833 9.738,17.746 9.765 C 19.142 9.806,19.613 9.873,20.104 10.099 C 20.726 10.385,20.991 10.820,21.149 11.814 C 21.213 12.214,21.220 12.595,21.220 15.500 C 21.220 18.405,21.213 18.786,21.149 19.186 C 20.935 20.537,20.473 20.976,19.060 21.170 C 18.539 21.242,5.461 21.242,4.940 21.170 C 4.236 21.073,3.748 20.894,3.445 20.620 C 3.147 20.351,2.932 19.806,2.830 19.060 C 2.759 18.549,2.759 12.451,2.830 11.940 C 2.933 11.193,3.147 10.649,3.446 10.379 C 3.760 10.095,4.317 9.901,5.052 9.820 C 5.180 9.805,5.721 9.781,6.254 9.765 C 7.174 9.738,7.232 9.731,7.375 9.643 C 7.604 9.502,7.726 9.290,7.728 9.030 C 7.733 8.538,7.379 8.226,6.840 8.247 C 6.763 8.250,6.349 8.266,5.920 8.282 " stroke="none" fill-rule="evenodd" fill="black"></path></svg>