<svg width="24" height="24" viewBox="0 0 24 24" fill="none" xmlns="http://www.w3.org/2000/svg"><path d="M8.960 1.280 C 6.960 1.332,5.848 1.469,4.900 1.779 C 3.060 2.382,1.958 3.688,1.563 5.734 C 1.311 7.042,1.267 7.973,1.267 12.000 C 1.267 16.027,1.311 16.958,1.563 18.266 C 2.013 20.599,3.401 21.987,5.734 22.437 C 7.034 22.688,7.987 22.733,12.000 22.733 C 16.013 22.733,16.966 22.688,18.266 22.437 C 20.599 21.987,21.987 20.599,22.437 18.266 C 22.688 16.966,22.733 16.013,22.733 12.000 C 22.733 7.987,22.688 7.034,22.437 5.734 C 22.098 3.977,21.228 2.756,19.825 2.068 C 18.978 1.652,17.875 1.425,16.200 1.321 C 15.315 1.266,10.534 1.239,8.960 1.280 M16.787 2.853 C 17.971 2.982,18.589 3.129,19.180 3.421 C 20.200 3.924,20.776 4.815,21.019 6.260 C 21.215 7.435,21.251 8.515,21.229 12.620 C 21.210 16.115,21.195 16.526,21.055 17.500 C 20.734 19.744,19.757 20.726,17.520 21.054 C 16.474 21.207,16.036 21.220,12.000 21.220 C 7.964 21.220,7.526 21.207,6.480 21.054 C 4.384 20.747,3.408 19.870,3.021 17.947 C 2.796 16.826,2.780 16.428,2.780 12.000 C 2.780 8.382,2.788 7.864,2.852 7.240 C 3.025 5.550,3.340 4.663,4.001 4.001 C 4.665 3.338,5.593 3.009,7.220 2.862 C 8.207 2.772,8.227 2.772,12.400 2.782 C 15.524 2.790,16.323 2.803,16.787 2.853 M8.420 6.260 C 8.398 6.267,8.331 6.284,8.271 6.297 C 8.150 6.324,7.905 6.523,7.828 6.655 C 7.792 6.718,7.775 7.407,7.760 9.331 L 7.740 11.922 7.111 11.166 C 6.420 10.335,6.329 10.263,5.967 10.267 C 5.566 10.271,5.260 10.602,5.266 11.025 C 5.268 11.163,5.297 11.277,5.353 11.366 C 5.518 11.626,7.982 14.540,8.109 14.625 C 8.363 14.794,8.702 14.780,8.942 14.591 C 9.003 14.543,9.643 13.797,10.362 12.933 C 11.793 11.215,11.813 11.184,11.717 10.829 C 11.622 10.476,11.369 10.270,11.026 10.267 C 10.672 10.263,10.577 10.338,9.889 11.166 L 9.260 11.922 9.240 9.331 C 9.226 7.465,9.207 6.718,9.173 6.660 C 9.115 6.559,8.925 6.382,8.820 6.330 C 8.727 6.284,8.478 6.240,8.420 6.260 M15.420 6.260 C 15.398 6.267,15.331 6.284,15.271 6.297 C 15.150 6.324,14.905 6.523,14.828 6.655 C 14.792 6.718,14.775 7.407,14.760 9.331 L 14.740 11.922 14.111 11.166 C 13.420 10.335,13.329 10.263,12.967 10.267 C 12.566 10.271,12.260 10.602,12.266 11.025 C 12.268 11.163,12.297 11.277,12.353 11.366 C 12.518 11.626,14.982 14.540,15.109 14.625 C 15.363 14.794,15.702 14.780,15.942 14.591 C 16.003 14.543,16.643 13.797,17.362 12.933 C 18.793 11.215,18.813 11.184,18.717 10.829 C 18.622 10.476,18.369 10.270,18.026 10.267 C 17.672 10.263,17.577 10.338,16.889 11.166 L 16.260 11.922 16.240 9.331 C 16.226 7.465,16.207 6.718,16.173 6.660 C 16.115 6.559,15.925 6.382,15.820 6.330 C 15.727 6.284,15.478 6.240,15.420 6.260 M5.815 16.278 C 5.331 16.393,5.098 17.004,5.383 17.408 C 5.447 17.499,5.572 17.610,5.660 17.656 C 5.820 17.740,5.822 17.740,11.880 17.751 C 16.193 17.758,18.002 17.749,18.154 17.717 C 18.902 17.562,18.929 16.473,18.189 16.286 C 17.979 16.233,6.035 16.226,5.815 16.278 " stroke="none" fill-rule="evenodd" fill="black"></path></svg>