<svg width="24" height="24" viewBox="0 0 24 24" fill="none" xmlns="http://www.w3.org/2000/svg"><path d="M8.960 1.280 C 6.960 1.332,5.848 1.469,4.900 1.779 C 3.060 2.382,1.958 3.688,1.563 5.734 C 1.311 7.042,1.267 7.973,1.267 12.000 C 1.267 16.027,1.311 16.958,1.563 18.266 C 2.013 20.599,3.401 21.987,5.734 22.437 C 7.034 22.688,7.987 22.733,12.000 22.733 C 16.013 22.733,16.966 22.688,18.266 22.437 C 20.599 21.987,21.987 20.599,22.437 18.266 C 22.688 16.966,22.733 16.013,22.733 12.000 C 22.733 7.987,22.688 7.034,22.437 5.734 C 22.098 3.977,21.228 2.756,19.825 2.068 C 18.978 1.652,17.875 1.425,16.200 1.321 C 15.315 1.266,10.534 1.239,8.960 1.280 M16.787 2.853 C 17.971 2.982,18.589 3.129,19.180 3.421 C 20.200 3.924,20.776 4.815,21.019 6.260 C 21.215 7.435,21.251 8.515,21.229 12.620 C 21.210 16.115,21.195 16.526,21.055 17.500 C 20.734 19.744,19.757 20.726,17.520 21.054 C 16.474 21.207,16.036 21.220,12.000 21.220 C 7.964 21.220,7.526 21.207,6.480 21.054 C 4.384 20.747,3.408 19.870,3.021 17.947 C 2.796 16.826,2.780 16.428,2.780 12.000 C 2.780 8.382,2.788 7.864,2.852 7.240 C 3.025 5.550,3.340 4.663,4.001 4.001 C 4.665 3.338,5.593 3.009,7.220 2.862 C 8.207 2.772,8.227 2.772,12.400 2.782 C 15.524 2.790,16.323 2.803,16.787 2.853 M11.815 6.277 C 11.638 6.321,11.461 6.456,11.353 6.631 L 11.260 6.780 11.249 9.478 L 11.237 12.175 10.329 11.272 C 9.829 10.776,9.375 10.347,9.320 10.318 C 9.265 10.290,9.118 10.267,8.992 10.267 C 8.721 10.267,8.503 10.389,8.358 10.623 C 8.235 10.823,8.231 11.172,8.351 11.364 C 8.398 11.439,9.152 12.214,10.028 13.086 C 11.544 14.596,11.629 14.673,11.810 14.711 C 11.935 14.737,12.065 14.737,12.190 14.711 C 12.371 14.673,12.456 14.596,13.989 13.068 C 14.879 12.181,15.628 11.402,15.664 11.326 C 15.753 11.139,15.747 10.837,15.651 10.651 C 15.608 10.568,15.499 10.447,15.408 10.383 C 15.271 10.287,15.202 10.267,15.011 10.267 C 14.884 10.267,14.735 10.290,14.680 10.318 C 14.625 10.347,14.171 10.777,13.670 11.274 L 12.760 12.178 12.759 9.599 C 12.758 7.972,12.743 6.954,12.717 6.841 C 12.623 6.432,12.215 6.177,11.815 6.277 M7.815 16.278 C 7.331 16.393,7.098 17.004,7.383 17.408 C 7.447 17.499,7.572 17.610,7.660 17.656 C 7.819 17.739,7.851 17.740,11.879 17.751 C 14.744 17.759,16.001 17.749,16.153 17.717 C 16.902 17.562,16.930 16.473,16.189 16.286 C 15.979 16.234,8.034 16.226,7.815 16.278 " stroke="none" fill-rule="evenodd" fill="black"></path></svg>