<svg width="24" height="24" viewBox="0 0 24 24" fill="none" xmlns="http://www.w3.org/2000/svg"><path d="M6.077 1.282 C 4.333 1.332,3.523 1.513,2.759 2.021 C 2.087 2.467,1.636 3.229,1.436 4.251 C 1.267 5.117,1.262 5.438,1.261 14.020 L 1.260 22.220 1.353 22.369 C 1.668 22.877,2.404 22.856,2.664 22.332 C 2.738 22.185,2.741 21.911,2.763 13.680 C 2.780 7.440,2.798 5.100,2.833 4.881 C 2.940 4.203,3.118 3.735,3.380 3.445 C 3.635 3.163,4.169 2.943,4.864 2.835 C 5.037 2.809,6.472 2.785,8.704 2.773 L 12.267 2.754 12.584 2.860 C 12.947 2.982,13.023 3.025,13.506 3.386 C 13.927 3.702,14.474 3.975,14.860 4.064 C 15.014 4.099,15.162 4.135,15.190 4.143 C 15.227 4.154,15.240 4.300,15.240 4.699 L 15.240 5.240 14.370 5.241 C 13.281 5.243,11.856 5.303,11.540 5.360 C 10.481 5.553,9.795 6.102,9.505 6.992 C 9.354 7.454,9.320 7.699,9.280 8.640 C 9.227 9.862,9.229 16.348,9.283 16.826 C 9.393 17.813,9.844 18.519,10.840 19.264 C 12.048 20.168,13.412 20.729,14.866 20.922 L 15.232 20.970 15.246 21.595 C 15.259 22.166,15.268 22.233,15.353 22.369 C 15.619 22.797,16.173 22.867,16.522 22.518 C 16.713 22.327,16.760 22.117,16.760 21.464 L 16.760 20.971 17.130 20.922 C 18.589 20.729,19.950 20.169,21.160 19.264 C 22.156 18.519,22.607 17.813,22.717 16.826 C 22.770 16.349,22.773 9.916,22.720 8.660 C 22.680 7.701,22.647 7.457,22.495 6.992 C 22.205 6.102,21.519 5.553,20.460 5.360 C 20.144 5.303,18.719 5.243,17.629 5.241 L 16.758 5.240 16.769 4.655 L 16.780 4.070 17.048 3.980 C 17.371 3.871,17.781 3.652,18.080 3.427 C 18.421 3.172,19.113 2.467,19.180 2.306 C 19.391 1.802,19.042 1.269,18.500 1.269 C 18.216 1.269,18.085 1.350,17.581 1.839 C 17.179 2.230,16.870 2.480,16.791 2.480 C 16.774 2.480,16.760 2.382,16.760 2.262 C 16.760 2.142,16.740 1.951,16.716 1.838 C 16.577 1.191,15.708 1.056,15.356 1.626 C 15.283 1.745,15.263 1.847,15.248 2.186 C 15.235 2.480,15.215 2.600,15.180 2.600 C 15.060 2.600,14.651 2.373,14.309 2.117 C 13.615 1.597,13.043 1.361,12.280 1.281 C 11.851 1.236,7.653 1.237,6.077 1.282 M20.260 6.833 C 20.370 6.859,20.559 6.930,20.679 6.991 C 20.863 7.084,20.916 7.137,21.009 7.321 C 21.070 7.441,21.141 7.630,21.167 7.740 C 21.201 7.884,21.218 9.181,21.228 12.354 C 21.245 17.219,21.256 16.981,20.996 17.373 C 20.746 17.751,19.865 18.406,19.116 18.771 C 17.098 19.756,14.899 19.756,12.884 18.772 C 12.128 18.402,11.256 17.754,11.005 17.374 C 10.749 16.989,10.760 17.198,10.760 12.611 C 10.760 8.283,10.774 7.861,10.926 7.454 C 11.073 7.061,11.374 6.877,11.989 6.805 C 12.461 6.750,20.011 6.775,20.260 6.833 M15.741 8.127 C 15.610 8.145,15.404 8.209,15.284 8.270 C 14.797 8.515,13.919 9.575,13.536 10.380 C 13.321 10.832,13.270 11.046,13.271 11.504 C 13.274 12.998,14.513 14.239,16.000 14.239 C 17.226 14.239,18.309 13.396,18.641 12.184 C 18.739 11.829,18.757 11.280,18.682 10.960 C 18.536 10.334,17.931 9.386,17.211 8.655 C 16.768 8.204,16.328 8.046,15.741 8.127 M16.365 9.943 C 16.749 10.390,16.981 10.720,17.130 11.033 C 17.237 11.257,17.248 11.316,17.231 11.553 C 17.198 12.015,16.905 12.443,16.481 12.650 C 16.227 12.774,15.773 12.774,15.519 12.650 C 15.095 12.443,14.802 12.015,14.769 11.553 C 14.752 11.316,14.763 11.257,14.870 11.033 C 14.936 10.894,15.069 10.669,15.165 10.533 C 15.451 10.129,15.924 9.600,16.000 9.600 C 16.039 9.600,16.203 9.754,16.365 9.943 M13.826 15.284 C 13.476 15.366,13.267 15.636,13.267 16.003 C 13.267 16.281,13.387 16.496,13.627 16.645 L 13.780 16.740 15.860 16.753 C 17.338 16.762,18.002 16.752,18.154 16.719 C 18.919 16.552,18.926 15.448,18.162 15.284 C 17.910 15.230,14.056 15.230,13.826 15.284 " stroke="none" fill-rule="evenodd" fill="black"></path></svg>