<svg width="24" height="24" viewBox="0 0 24 24" fill="none" xmlns="http://www.w3.org/2000/svg"><path d="M6.077 1.282 C 4.333 1.332,3.523 1.513,2.759 2.021 C 2.087 2.467,1.636 3.229,1.436 4.251 C 1.267 5.117,1.262 5.438,1.261 14.020 L 1.260 22.220 1.353 22.369 C 1.668 22.877,2.404 22.856,2.664 22.332 C 2.738 22.185,2.741 21.911,2.763 13.680 C 2.780 7.440,2.798 5.100,2.833 4.881 C 2.940 4.203,3.118 3.735,3.380 3.445 C 3.635 3.163,4.169 2.943,4.864 2.835 C 5.037 2.809,6.472 2.785,8.704 2.773 L 12.267 2.754 12.584 2.860 C 12.947 2.982,13.023 3.025,13.506 3.386 C 13.927 3.702,14.474 3.975,14.860 4.064 C 15.014 4.099,15.162 4.135,15.190 4.143 C 15.227 4.154,15.240 4.300,15.240 4.699 L 15.240 5.240 14.370 5.241 C 13.281 5.243,11.856 5.303,11.540 5.360 C 10.481 5.553,9.795 6.102,9.505 6.992 C 9.354 7.454,9.320 7.699,9.280 8.640 C 9.227 9.862,9.229 16.348,9.283 16.826 C 9.393 17.813,9.844 18.519,10.840 19.264 C 12.048 20.168,13.412 20.729,14.866 20.922 L 15.232 20.970 15.246 21.595 C 15.259 22.166,15.268 22.233,15.353 22.369 C 15.619 22.797,16.173 22.867,16.522 22.518 C 16.713 22.327,16.760 22.117,16.760 21.464 L 16.760 20.971 17.130 20.922 C 18.589 20.729,19.950 20.169,21.160 19.264 C 22.156 18.519,22.607 17.813,22.717 16.826 C 22.770 16.349,22.773 9.916,22.720 8.660 C 22.680 7.701,22.647 7.457,22.495 6.992 C 22.205 6.102,21.519 5.553,20.460 5.360 C 20.144 5.303,18.719 5.243,17.629 5.241 L 16.758 5.240 16.769 4.655 L 16.780 4.070 17.048 3.980 C 17.371 3.871,17.781 3.652,18.080 3.427 C 18.421 3.172,19.113 2.467,19.180 2.306 C 19.391 1.802,19.042 1.269,18.500 1.269 C 18.216 1.269,18.085 1.350,17.581 1.839 C 17.179 2.230,16.870 2.480,16.791 2.480 C 16.774 2.480,16.760 2.382,16.760 2.262 C 16.760 2.142,16.740 1.951,16.716 1.838 C 16.577 1.191,15.708 1.056,15.356 1.626 C 15.283 1.745,15.263 1.847,15.248 2.186 C 15.235 2.480,15.215 2.600,15.180 2.600 C 15.060 2.600,14.651 2.373,14.309 2.117 C 13.615 1.597,13.043 1.361,12.280 1.281 C 11.851 1.236,7.653 1.237,6.077 1.282 M20.260 6.833 C 20.370 6.859,20.559 6.930,20.679 6.991 C 20.863 7.084,20.916 7.137,21.009 7.321 C 21.159 7.617,21.195 7.827,21.226 8.587 L 21.252 9.235 20.036 9.247 C 18.655 9.262,18.610 9.271,18.383 9.592 C 18.286 9.730,18.267 9.797,18.267 9.993 C 18.267 10.279,18.372 10.474,18.612 10.633 L 18.774 10.740 20.007 10.753 L 21.240 10.765 21.240 11.499 L 21.240 12.232 20.530 12.246 C 19.715 12.262,19.590 12.300,19.383 12.592 C 19.286 12.730,19.267 12.797,19.267 12.993 C 19.267 13.279,19.372 13.474,19.612 13.633 C 19.771 13.738,19.790 13.740,20.507 13.754 L 21.240 13.768 21.240 15.277 C 21.240 16.938,21.231 17.019,20.995 17.374 C 20.746 17.751,19.864 18.406,19.116 18.771 C 17.098 19.756,14.899 19.756,12.884 18.772 C 12.128 18.402,11.256 17.754,11.005 17.374 C 10.749 16.989,10.760 17.198,10.760 12.611 C 10.760 8.283,10.774 7.861,10.926 7.454 C 11.073 7.061,11.374 6.877,11.989 6.805 C 12.461 6.750,20.011 6.775,20.260 6.833 M15.567 9.662 C 15.450 9.694,15.278 9.765,15.184 9.820 C 14.784 10.054,13.901 11.132,13.558 11.804 C 13.138 12.626,13.171 13.563,13.649 14.380 C 13.882 14.779,14.343 15.222,14.740 15.427 C 15.179 15.655,15.490 15.729,16.000 15.729 C 16.761 15.729,17.350 15.489,17.884 14.961 C 18.767 14.086,18.983 12.865,18.442 11.804 C 18.088 11.109,17.203 10.042,16.784 9.804 C 16.440 9.609,15.970 9.554,15.567 9.662 M16.297 11.370 C 16.667 11.779,16.895 12.092,17.080 12.446 C 17.211 12.696,17.240 12.793,17.240 12.975 C 17.240 13.430,16.943 13.912,16.535 14.120 C 16.372 14.203,16.283 14.220,16.000 14.220 C 15.717 14.220,15.628 14.203,15.465 14.120 C 15.056 13.912,14.760 13.430,14.760 12.973 C 14.760 12.736,14.874 12.461,15.130 12.083 C 15.363 11.737,15.937 11.080,16.006 11.080 C 16.022 11.080,16.153 11.210,16.297 11.370 " stroke="none" fill-rule="evenodd" fill="black"></path></svg>