<svg width="24" height="24" viewBox="0 0 24 24" fill="none" xmlns="http://www.w3.org/2000/svg"><path d="M11.660 1.278 C 10.776 1.385,10.018 1.907,9.570 2.720 C 9.503 2.841,9.428 3.004,9.404 3.082 L 9.359 3.225 8.049 3.272 C 6.672 3.321,6.488 3.342,5.992 3.504 C 5.102 3.795,4.553 4.480,4.360 5.540 C 4.267 6.054,4.236 7.887,4.250 12.080 C 4.263 15.991,4.271 16.404,4.333 16.640 C 4.506 17.291,4.795 17.828,5.212 18.270 C 5.925 19.025,7.381 19.950,8.524 20.374 C 9.294 20.660,10.291 20.899,10.918 20.947 L 11.232 20.971 11.246 21.596 C 11.259 22.166,11.268 22.233,11.353 22.369 C 11.619 22.797,12.173 22.867,12.522 22.518 C 12.713 22.327,12.760 22.117,12.760 21.464 L 12.760 20.972 13.090 20.944 C 14.431 20.834,16.109 20.234,17.338 19.426 C 18.775 18.479,19.400 17.727,19.668 16.618 C 19.729 16.368,19.737 15.903,19.750 12.060 C 19.764 7.887,19.733 6.052,19.640 5.540 C 19.447 4.480,18.898 3.795,18.008 3.504 C 17.512 3.342,17.328 3.321,15.951 3.272 L 14.641 3.225 14.596 3.082 C 14.572 3.004,14.497 2.841,14.430 2.720 C 13.867 1.700,12.796 1.142,11.660 1.278 M12.448 2.840 C 12.565 2.883,12.732 2.987,12.820 3.070 L 12.980 3.220 12.490 3.231 C 12.221 3.237,11.780 3.237,11.510 3.231 L 11.020 3.220 11.180 3.070 C 11.497 2.772,12.018 2.677,12.448 2.840 M17.260 4.833 C 17.370 4.859,17.559 4.930,17.679 4.991 C 17.863 5.084,17.916 5.137,18.009 5.321 C 18.159 5.617,18.195 5.827,18.226 6.586 L 18.252 7.232 17.536 7.246 C 16.715 7.262,16.590 7.299,16.383 7.592 C 16.286 7.730,16.267 7.797,16.267 7.993 C 16.267 8.279,16.372 8.474,16.612 8.633 C 16.771 8.738,16.790 8.740,17.507 8.754 L 18.240 8.768 18.240 9.500 L 18.240 10.232 17.530 10.246 C 16.715 10.262,16.590 10.300,16.383 10.592 C 16.286 10.730,16.267 10.797,16.267 10.997 C 16.267 11.282,16.385 11.494,16.627 11.645 C 16.771 11.734,16.824 11.741,17.510 11.754 L 18.240 11.768 18.240 12.500 L 18.240 13.232 17.530 13.246 C 16.715 13.262,16.590 13.300,16.383 13.592 C 16.286 13.730,16.267 13.797,16.267 13.993 C 16.267 14.279,16.372 14.474,16.612 14.633 C 16.771 14.738,16.790 14.740,17.507 14.754 L 18.240 14.768 18.240 15.475 C 18.240 16.532,18.133 16.833,17.569 17.362 C 16.396 18.461,14.826 19.193,13.100 19.445 C 12.636 19.513,11.364 19.513,10.900 19.445 C 9.185 19.194,7.629 18.472,6.450 17.381 C 6.118 17.074,5.940 16.811,5.836 16.476 C 5.763 16.243,5.760 16.030,5.760 11.335 C 5.760 6.258,5.771 5.867,5.926 5.454 C 6.073 5.061,6.374 4.877,6.989 4.805 C 7.469 4.749,17.012 4.775,17.260 4.833 M11.567 8.662 C 11.450 8.694,11.278 8.765,11.184 8.820 C 10.784 9.054,9.901 10.132,9.558 10.804 C 9.138 11.626,9.171 12.563,9.649 13.380 C 9.882 13.779,10.343 14.222,10.740 14.427 C 11.179 14.655,11.490 14.729,12.000 14.729 C 12.761 14.729,13.350 14.489,13.884 13.961 C 14.767 13.086,14.983 11.865,14.442 10.804 C 14.088 10.109,13.203 9.042,12.784 8.804 C 12.440 8.609,11.970 8.554,11.567 8.662 M12.297 10.370 C 12.667 10.779,12.895 11.092,13.080 11.446 C 13.211 11.696,13.240 11.793,13.240 11.975 C 13.240 12.430,12.943 12.912,12.535 13.120 C 12.372 13.203,12.283 13.220,12.000 13.220 C 11.717 13.220,11.628 13.203,11.465 13.120 C 11.056 12.912,10.760 12.430,10.760 11.973 C 10.760 11.736,10.874 11.461,11.130 11.083 C 11.363 10.737,11.937 10.080,12.006 10.080 C 12.022 10.080,12.153 10.210,12.297 10.370 " stroke="none" fill-rule="evenodd" fill="black"></path></svg>