<svg width="24" height="24" viewBox="0 0 24 24" fill="none" xmlns="http://www.w3.org/2000/svg"><path d="M11.660 1.278 C 10.776 1.385,10.018 1.907,9.570 2.720 C 9.503 2.841,9.428 3.004,9.404 3.082 L 9.359 3.225 8.049 3.272 C 6.672 3.321,6.488 3.342,5.992 3.504 C 5.102 3.795,4.553 4.480,4.360 5.540 C 4.267 6.054,4.236 7.887,4.250 12.080 C 4.263 15.991,4.271 16.404,4.333 16.640 C 4.506 17.291,4.795 17.828,5.212 18.270 C 5.925 19.025,7.381 19.950,8.524 20.374 C 9.294 20.660,10.291 20.899,10.918 20.947 L 11.232 20.971 11.246 21.596 C 11.259 22.166,11.268 22.233,11.353 22.369 C 11.619 22.797,12.173 22.867,12.522 22.518 C 12.713 22.327,12.760 22.117,12.760 21.464 L 12.760 20.972 13.090 20.944 C 14.431 20.834,16.109 20.234,17.338 19.426 C 18.775 18.479,19.400 17.727,19.668 16.618 C 19.729 16.368,19.737 15.903,19.750 12.060 C 19.764 7.887,19.733 6.052,19.640 5.540 C 19.447 4.480,18.898 3.795,18.008 3.504 C 17.512 3.342,17.328 3.321,15.951 3.272 L 14.641 3.225 14.596 3.082 C 14.572 3.004,14.497 2.841,14.430 2.720 C 13.867 1.700,12.796 1.142,11.660 1.278 M12.448 2.840 C 12.565 2.883,12.732 2.987,12.820 3.070 L 12.980 3.220 12.490 3.231 C 12.221 3.237,11.780 3.237,11.510 3.231 L 11.020 3.220 11.180 3.070 C 11.497 2.772,12.018 2.677,12.448 2.840 M17.260 4.833 C 17.370 4.859,17.559 4.930,17.679 4.991 C 17.863 5.084,17.916 5.137,18.009 5.321 C 18.070 5.441,18.141 5.630,18.167 5.740 C 18.201 5.886,18.218 7.331,18.228 11.053 C 18.244 16.711,18.256 16.428,17.989 16.874 C 17.845 17.115,17.427 17.522,16.981 17.858 C 15.875 18.691,14.547 19.234,13.100 19.445 C 12.636 19.513,11.364 19.513,10.900 19.445 C 9.185 19.194,7.629 18.472,6.450 17.381 C 6.118 17.074,5.940 16.811,5.836 16.476 C 5.763 16.243,5.760 16.030,5.760 11.335 C 5.760 6.258,5.771 5.867,5.926 5.454 C 6.073 5.061,6.374 4.877,6.989 4.805 C 7.469 4.749,17.012 4.775,17.260 4.833 M11.567 7.662 C 11.450 7.694,11.278 7.765,11.184 7.820 C 10.784 8.054,9.901 9.132,9.558 9.804 C 9.138 10.626,9.171 11.563,9.649 12.380 C 9.882 12.779,10.343 13.222,10.740 13.427 C 11.179 13.655,11.490 13.729,12.000 13.729 C 12.761 13.729,13.350 13.489,13.884 12.961 C 14.767 12.086,14.983 10.865,14.442 9.804 C 14.099 9.133,13.216 8.054,12.817 7.820 C 12.462 7.612,11.980 7.551,11.567 7.662 M12.205 9.270 C 12.609 9.693,12.911 10.103,13.117 10.508 C 13.335 10.937,13.254 11.438,12.903 11.829 C 12.638 12.123,12.414 12.220,12.000 12.220 C 11.717 12.220,11.628 12.203,11.465 12.120 C 11.056 11.912,10.760 11.430,10.760 10.973 C 10.760 10.658,10.984 10.228,11.433 9.680 C 11.647 9.419,11.967 9.080,12.000 9.080 C 12.013 9.080,12.105 9.165,12.205 9.270 M9.826 15.284 C 9.476 15.366,9.267 15.636,9.267 16.003 C 9.267 16.281,9.387 16.496,9.627 16.645 L 9.780 16.740 11.860 16.753 C 13.338 16.762,14.002 16.752,14.154 16.719 C 14.919 16.552,14.926 15.448,14.162 15.284 C 13.910 15.230,10.056 15.230,9.826 15.284 " stroke="none" fill-rule="evenodd" fill="black"></path></svg>