<svg width="24" height="24" viewBox="0 0 24 24" fill="none" xmlns="http://www.w3.org/2000/svg"><path d="M13.140 1.293 C 12.837 1.356,12.434 1.544,12.133 1.762 C 11.829 1.982,9.981 3.831,9.761 4.135 C 9.374 4.668,9.204 5.262,9.281 5.808 C 9.374 6.466,9.646 6.870,10.757 8.010 L 11.099 8.361 9.733 9.727 L 8.367 11.093 7.773 10.530 C 7.143 9.931,6.927 9.752,6.615 9.569 C 5.812 9.099,4.955 9.165,4.135 9.761 C 3.830 9.982,1.982 11.830,1.761 12.135 C 1.168 12.952,1.103 13.880,1.585 14.650 C 1.854 15.077,2.231 15.476,4.938 18.195 C 8.106 21.376,8.805 22.051,9.222 22.328 C 10.093 22.907,10.987 22.877,11.865 22.239 C 12.170 22.018,14.018 20.170,14.239 19.865 C 14.623 19.336,14.788 18.765,14.718 18.208 C 14.644 17.619,14.392 17.207,13.575 16.340 C 13.263 16.010,12.898 15.632,12.764 15.501 L 12.519 15.261 13.889 13.891 L 15.259 12.520 15.800 13.052 C 17.130 14.362,17.490 14.612,18.203 14.723 C 18.725 14.804,19.329 14.628,19.865 14.239 C 20.170 14.018,22.018 12.170,22.239 11.865 C 22.735 11.183,22.866 10.396,22.599 9.717 C 22.361 9.113,22.049 8.775,18.155 4.898 C 15.414 2.170,15.066 1.841,14.620 1.569 C 14.192 1.308,13.602 1.198,13.140 1.293 M17.700 1.835 C 17.510 1.923,17.424 2.012,17.342 2.210 C 17.260 2.406,17.265 2.624,17.357 2.820 C 17.437 2.992,20.615 6.187,20.800 6.282 C 20.929 6.348,21.312 6.348,21.440 6.282 C 21.586 6.206,21.719 6.077,21.790 5.940 C 21.866 5.795,21.873 5.418,21.802 5.280 C 21.707 5.095,18.512 1.917,18.340 1.837 C 18.137 1.742,17.905 1.741,17.700 1.835 M13.843 2.842 C 14.073 2.959,14.322 3.198,17.314 6.178 C 20.242 9.094,21.035 9.915,21.159 10.158 C 21.279 10.394,21.265 10.624,21.116 10.862 C 20.955 11.119,19.119 12.955,18.862 13.116 C 18.493 13.348,18.212 13.273,17.710 12.812 C 17.226 12.367,11.948 7.097,11.417 6.529 C 11.144 6.237,10.885 5.927,10.840 5.841 C 10.721 5.606,10.735 5.375,10.884 5.138 C 11.045 4.881,12.881 3.045,13.138 2.884 C 13.376 2.735,13.606 2.721,13.843 2.842 M13.190 10.450 L 14.200 11.461 12.830 12.830 L 11.459 14.200 10.440 13.180 L 9.421 12.160 10.780 10.800 C 11.528 10.052,12.149 9.440,12.160 9.440 C 12.171 9.440,12.635 9.895,13.190 10.450 M5.843 10.842 C 6.073 10.959,6.322 11.198,9.314 14.178 C 12.242 17.094,13.035 17.915,13.159 18.158 C 13.279 18.394,13.265 18.624,13.116 18.862 C 12.955 19.119,11.119 20.955,10.862 21.116 C 10.493 21.348,10.212 21.273,9.710 20.812 C 9.226 20.367,3.948 15.097,3.417 14.529 C 3.144 14.237,2.885 13.927,2.840 13.841 C 2.721 13.606,2.735 13.375,2.884 13.138 C 3.045 12.881,4.881 11.045,5.138 10.884 C 5.376 10.735,5.606 10.721,5.843 10.842 M2.180 17.347 C 1.800 17.547,1.658 17.958,1.837 18.340 C 1.917 18.512,5.095 21.707,5.280 21.802 C 5.335 21.830,5.482 21.853,5.608 21.853 C 5.879 21.853,6.097 21.731,6.242 21.497 C 6.347 21.327,6.368 20.967,6.282 20.800 C 6.187 20.615,2.992 17.437,2.820 17.357 C 2.625 17.265,2.342 17.261,2.180 17.347 " stroke="none" fill-rule="evenodd" fill="black"></path></svg>