<svg width="24" height="24" viewBox="0 0 24 24" fill="none" xmlns="http://www.w3.org/2000/svg"><path d="M5.820 6.279 C 5.268 6.328,4.848 6.512,4.473 6.870 C 4.192 7.138,4.020 7.398,3.890 7.753 C 3.807 7.978,3.788 8.116,3.770 8.634 C 3.756 9.030,3.733 9.251,3.704 9.259 C 3.680 9.265,3.518 9.302,3.343 9.340 C 2.417 9.544,1.614 10.320,1.357 11.260 C 1.236 11.701,1.236 12.299,1.357 12.740 C 1.614 13.680,2.417 14.456,3.343 14.660 C 3.518 14.698,3.680 14.735,3.704 14.741 C 3.733 14.749,3.756 14.970,3.770 15.366 C 3.788 15.884,3.807 16.022,3.890 16.247 C 4.149 16.952,4.682 17.444,5.427 17.665 C 5.769 17.767,7.234 17.766,7.578 17.664 C 8.311 17.446,8.843 16.956,9.114 16.247 L 9.217 15.980 9.232 14.370 L 9.246 12.760 12.000 12.760 L 14.754 12.760 14.768 14.370 L 14.783 15.980 14.886 16.247 C 15.160 16.962,15.684 17.444,16.427 17.665 C 16.769 17.767,18.234 17.766,18.578 17.664 C 19.314 17.445,19.853 16.946,20.110 16.247 C 20.193 16.022,20.212 15.884,20.230 15.366 C 20.244 14.970,20.267 14.749,20.296 14.741 C 20.320 14.735,20.482 14.698,20.657 14.660 C 21.381 14.500,22.031 13.995,22.432 13.280 C 22.832 12.566,22.832 11.433,22.432 10.720 C 22.032 10.008,21.377 9.499,20.657 9.340 C 20.482 9.302,20.320 9.265,20.296 9.259 C 20.267 9.251,20.244 9.030,20.230 8.634 C 20.212 8.116,20.193 7.978,20.110 7.753 C 19.853 7.053,19.312 6.553,18.578 6.337 C 18.232 6.234,16.768 6.234,16.422 6.337 C 15.690 6.553,15.157 7.044,14.886 7.753 L 14.783 8.020 14.768 9.630 L 14.754 11.240 12.000 11.240 L 9.246 11.240 9.232 9.630 L 9.217 8.020 9.114 7.753 C 8.848 7.058,8.311 6.555,7.615 6.348 C 7.365 6.274,6.329 6.234,5.820 6.279 M7.427 7.886 C 7.515 7.945,7.622 8.062,7.664 8.146 C 7.737 8.294,7.740 8.441,7.740 12.000 C 7.740 15.559,7.737 15.706,7.664 15.854 C 7.622 15.938,7.515 16.055,7.427 16.114 C 7.267 16.220,7.262 16.220,6.500 16.220 C 5.738 16.220,5.733 16.220,5.573 16.114 C 5.485 16.055,5.378 15.938,5.336 15.854 C 5.263 15.706,5.260 15.548,5.248 12.100 C 5.240 9.585,5.250 8.447,5.281 8.323 C 5.340 8.083,5.446 7.945,5.650 7.843 C 5.808 7.764,5.871 7.758,6.543 7.769 C 7.250 7.780,7.270 7.782,7.427 7.886 M18.427 7.886 C 18.515 7.945,18.622 8.062,18.664 8.146 C 18.737 8.294,18.740 8.441,18.740 12.000 C 18.740 15.559,18.737 15.706,18.664 15.854 C 18.622 15.938,18.515 16.055,18.427 16.114 C 18.267 16.220,18.262 16.220,17.500 16.220 C 16.738 16.220,16.733 16.220,16.573 16.114 C 16.485 16.055,16.378 15.938,16.336 15.854 C 16.263 15.706,16.260 15.548,16.248 12.100 C 16.240 9.585,16.250 8.447,16.281 8.323 C 16.340 8.083,16.446 7.945,16.650 7.843 C 16.808 7.764,16.871 7.758,17.543 7.769 C 18.250 7.780,18.270 7.782,18.427 7.886 M3.760 11.997 L 3.760 13.234 3.648 13.202 C 3.340 13.114,3.030 12.853,2.875 12.552 C 2.743 12.296,2.726 11.848,2.837 11.555 C 2.947 11.263,3.253 10.952,3.535 10.843 C 3.648 10.800,3.744 10.763,3.750 10.762 C 3.756 10.761,3.760 11.317,3.760 11.997 M20.761 11.015 C 21.204 11.387,21.355 11.931,21.159 12.453 C 21.035 12.784,20.689 13.106,20.352 13.202 L 20.240 13.234 20.240 11.997 L 20.240 10.760 20.439 10.836 C 20.549 10.878,20.694 10.958,20.761 11.015 " stroke="none" fill-rule="evenodd" fill="black"></path></svg>