<svg width="24" height="24" viewBox="0 0 24 24" fill="none" xmlns="http://www.w3.org/2000/svg"><path d="M3.860 6.280 C 3.639 6.296,3.351 6.340,3.220 6.378 C 2.282 6.651,1.550 7.421,1.328 8.370 C 1.267 8.630,1.260 9.002,1.260 12.000 C 1.260 14.998,1.267 15.370,1.328 15.630 C 1.561 16.627,2.377 17.442,3.370 17.671 C 3.610 17.726,3.892 17.738,5.000 17.738 C 6.483 17.738,6.691 17.713,7.173 17.483 C 7.877 17.147,8.479 16.431,8.636 15.740 C 8.680 15.548,8.757 14.700,8.759 14.390 L 8.760 14.240 11.996 14.240 L 15.232 14.240 15.259 14.750 C 15.274 15.030,15.304 15.375,15.325 15.516 C 15.486 16.586,16.367 17.480,17.464 17.688 C 17.900 17.770,20.250 17.758,20.630 17.671 C 21.622 17.444,22.439 16.627,22.672 15.630 C 22.733 15.370,22.740 14.998,22.740 12.000 C 22.740 9.002,22.733 8.630,22.672 8.370 C 22.452 7.430,21.727 6.660,20.800 6.383 C 20.185 6.199,17.815 6.199,17.200 6.383 C 16.316 6.647,15.567 7.411,15.363 8.255 C 15.319 8.438,15.244 9.275,15.241 9.610 L 15.240 9.760 12.000 9.760 L 8.760 9.760 8.759 9.610 C 8.757 9.300,8.680 8.452,8.636 8.260 C 8.446 7.424,7.686 6.648,6.800 6.383 C 6.382 6.258,4.903 6.206,3.860 6.280 M6.281 7.800 C 6.570 7.855,6.859 8.049,7.025 8.300 C 7.197 8.558,7.239 8.875,7.240 9.902 C 7.240 10.591,7.245 10.633,7.339 10.822 C 7.397 10.937,7.501 11.062,7.586 11.120 L 7.734 11.220 11.897 11.232 C 14.187 11.238,16.119 11.233,16.191 11.220 C 16.361 11.189,16.594 10.983,16.685 10.780 C 16.747 10.645,16.758 10.509,16.759 9.900 C 16.761 8.894,16.804 8.563,16.966 8.311 C 17.131 8.053,17.430 7.854,17.737 7.797 C 17.883 7.770,18.417 7.759,19.156 7.767 C 20.315 7.780,20.344 7.782,20.537 7.877 C 20.788 8.000,21.000 8.212,21.123 8.463 L 21.220 8.660 21.220 12.000 L 21.220 15.340 21.123 15.537 C 20.999 15.788,20.763 16.024,20.526 16.134 C 20.351 16.215,20.269 16.221,19.129 16.233 C 18.343 16.241,17.843 16.230,17.703 16.201 C 17.416 16.141,17.143 15.954,16.975 15.701 C 16.804 15.442,16.761 15.128,16.759 14.100 C 16.758 13.485,16.747 13.357,16.684 13.220 C 16.598 13.034,16.427 12.863,16.267 12.803 C 16.190 12.773,14.838 12.760,12.000 12.760 C 9.162 12.760,7.810 12.773,7.733 12.803 C 7.573 12.863,7.402 13.034,7.316 13.220 C 7.253 13.357,7.242 13.485,7.241 14.100 C 7.239 15.128,7.196 15.442,7.025 15.701 C 6.857 15.954,6.584 16.141,6.297 16.201 C 6.157 16.230,5.657 16.241,4.871 16.233 C 3.731 16.221,3.649 16.215,3.474 16.134 C 3.237 16.024,3.001 15.788,2.877 15.537 L 2.780 15.340 2.769 12.146 C 2.761 10.079,2.772 8.874,2.798 8.730 C 2.879 8.292,3.268 7.885,3.683 7.804 C 3.933 7.754,6.026 7.752,6.281 7.800 " fill="#1C274C" stroke="none" fill-rule="evenodd"></path></svg>