<svg width="24" height="24" viewBox="0 0 24 24" fill="none" xmlns="http://www.w3.org/2000/svg"><path d="M3.526 1.480 C 3.142 1.571,2.657 1.887,2.409 2.209 C 2.194 2.486,2.059 2.796,1.981 3.187 C 1.874 3.728,1.436 7.482,1.435 7.869 C 1.433 8.493,1.634 8.991,2.060 9.421 C 2.502 9.866,2.879 9.997,4.188 10.161 C 5.001 10.263,5.257 10.239,5.722 10.016 C 6.064 9.853,6.459 9.479,6.614 9.171 C 6.721 8.961,6.853 8.517,6.901 8.210 C 6.924 8.058,6.939 8.040,7.034 8.042 C 7.092 8.044,8.130 8.183,9.340 8.353 L 11.540 8.661 11.543 9.160 C 11.547 9.959,11.745 10.444,12.258 10.911 C 12.514 11.145,12.626 11.211,12.957 11.327 C 13.184 11.406,14.215 11.575,14.760 11.622 C 15.777 11.711,16.681 11.046,16.939 10.020 C 17.026 9.671,17.520 5.558,17.519 5.180 C 17.519 4.579,17.309 4.070,16.885 3.640 C 16.448 3.198,16.147 3.090,14.860 2.918 C 13.880 2.786,13.497 2.845,12.948 3.213 C 12.474 3.532,12.181 4.043,12.072 4.745 C 12.046 4.907,12.012 5.040,11.995 5.040 C 11.952 5.040,7.649 4.443,7.500 4.416 L 7.380 4.395 7.380 3.847 C 7.380 3.418,7.364 3.250,7.304 3.069 C 7.075 2.372,6.453 1.820,5.720 1.665 C 4.887 1.488,3.858 1.401,3.526 1.480 M4.887 3.043 C 5.553 3.139,5.704 3.199,5.831 3.420 C 5.907 3.551,5.920 3.620,5.903 3.800 C 5.892 3.921,5.862 4.254,5.835 4.540 C 5.809 4.826,5.800 5.128,5.816 5.211 C 5.854 5.416,6.127 5.698,6.340 5.754 C 6.542 5.806,12.536 6.640,12.712 6.640 C 13.037 6.640,13.325 6.384,13.396 6.033 C 13.420 5.916,13.467 5.613,13.502 5.360 C 13.588 4.724,13.619 4.627,13.782 4.484 C 13.951 4.336,14.107 4.326,14.809 4.421 C 15.569 4.524,15.687 4.555,15.830 4.692 C 16.012 4.865,16.045 5.021,15.999 5.478 C 15.909 6.356,15.513 9.512,15.474 9.659 C 15.450 9.750,15.368 9.882,15.281 9.969 C 15.143 10.106,15.110 10.120,14.915 10.119 C 14.585 10.118,13.476 9.941,13.330 9.865 C 13.170 9.782,13.040 9.538,13.040 9.318 C 13.040 9.228,13.069 8.893,13.105 8.574 C 13.158 8.108,13.162 7.963,13.123 7.835 C 13.063 7.634,12.834 7.377,12.667 7.324 C 12.411 7.242,6.424 6.433,6.194 6.449 C 5.939 6.467,5.724 6.598,5.619 6.802 C 5.585 6.867,5.523 7.177,5.480 7.490 C 5.369 8.293,5.337 8.408,5.181 8.559 C 4.996 8.738,4.838 8.747,4.001 8.624 C 3.269 8.517,3.189 8.488,3.022 8.264 C 2.898 8.096,2.920 7.716,3.175 5.640 C 3.474 3.209,3.455 3.309,3.638 3.117 C 3.783 2.965,3.797 2.960,4.051 2.960 C 4.195 2.960,4.572 2.997,4.887 3.043 M18.900 10.779 C 18.417 10.884,17.392 11.203,17.130 11.330 C 16.408 11.679,15.905 12.574,15.978 13.380 C 15.992 13.534,16.027 13.772,16.057 13.909 C 16.104 14.133,16.103 14.160,16.045 14.177 C 15.158 14.445,11.622 15.441,11.593 15.431 C 11.571 15.424,11.503 15.265,11.443 15.079 C 11.303 14.645,11.209 14.467,10.994 14.223 C 10.633 13.813,10.080 13.560,9.546 13.560 C 9.078 13.560,7.729 13.926,7.230 14.188 C 6.713 14.460,6.275 15.066,6.157 15.673 C 6.068 16.136,6.121 16.441,6.676 18.662 C 7.213 20.815,7.307 21.134,7.500 21.465 C 7.880 22.114,8.707 22.516,9.431 22.404 C 9.831 22.342,11.099 21.974,11.388 21.836 C 11.867 21.607,12.254 21.162,12.460 20.600 C 12.551 20.353,12.570 20.236,12.569 19.940 C 12.568 19.742,12.540 19.454,12.506 19.300 C 12.472 19.146,12.457 19.009,12.473 18.995 C 12.488 18.981,13.490 18.685,14.700 18.339 C 15.910 17.992,16.919 17.702,16.941 17.693 C 16.964 17.685,17.034 17.836,17.097 18.029 C 17.262 18.539,17.381 18.750,17.656 19.020 C 18.076 19.432,18.620 19.634,19.185 19.586 C 19.545 19.556,20.900 19.169,21.264 18.993 C 21.753 18.757,22.138 18.289,22.345 17.680 C 22.401 17.515,22.418 17.354,22.415 17.040 C 22.411 16.640,22.384 16.515,21.848 14.384 C 21.218 11.879,21.165 11.728,20.767 11.327 C 20.268 10.824,19.596 10.627,18.900 10.779 M19.602 12.330 C 19.675 12.380,19.769 12.478,19.810 12.548 C 19.894 12.691,20.906 16.680,20.942 17.008 C 20.973 17.290,20.848 17.548,20.631 17.650 C 20.379 17.768,19.236 18.080,19.055 18.080 C 18.920 18.080,18.853 18.053,18.744 17.958 C 18.592 17.824,18.521 17.645,18.325 16.893 C 18.192 16.385,18.126 16.253,17.944 16.129 C 17.658 15.932,17.721 15.919,14.395 16.873 C 12.709 17.357,11.273 17.782,11.204 17.818 C 11.039 17.903,10.853 18.164,10.821 18.356 C 10.803 18.463,10.836 18.685,10.933 19.104 C 11.135 19.975,11.135 19.975,11.048 20.170 C 11.006 20.264,10.937 20.370,10.895 20.407 C 10.734 20.550,9.296 20.953,9.113 20.907 C 8.951 20.866,8.777 20.700,8.703 20.517 C 8.598 20.254,7.600 16.210,7.600 16.048 C 7.600 15.853,7.710 15.641,7.866 15.537 C 7.982 15.460,8.620 15.255,9.231 15.099 C 9.726 14.972,9.920 15.140,10.117 15.864 C 10.188 16.126,10.272 16.433,10.303 16.547 C 10.405 16.916,10.659 17.129,10.997 17.130 C 11.229 17.131,17.150 15.434,17.380 15.301 C 17.592 15.178,17.720 14.948,17.720 14.689 C 17.720 14.579,17.667 14.266,17.602 13.994 C 17.425 13.252,17.417 13.135,17.528 12.920 C 17.642 12.696,17.722 12.656,18.520 12.424 C 19.232 12.216,19.410 12.201,19.602 12.330 " fill="#1C274C" stroke="none" fill-rule="evenodd"></path></svg>