<svg width="24" height="24" viewBox="0 0 24 24" fill="none" xmlns="http://www.w3.org/2000/svg"><path d="M17.340 1.265 C 17.274 1.274,17.112 1.300,16.980 1.324 C 16.603 1.391,13.057 2.312,12.693 2.436 C 11.826 2.733,11.268 3.487,11.268 4.360 C 11.269 4.915,11.695 6.418,11.978 6.858 C 12.213 7.225,12.619 7.531,13.076 7.688 C 13.392 7.796,13.905 7.805,14.331 7.710 C 14.479 7.677,14.609 7.662,14.618 7.677 C 14.643 7.717,15.880 12.170,15.880 12.218 C 15.880 12.241,15.722 12.311,15.531 12.374 C 15.097 12.515,14.883 12.639,14.623 12.899 C 14.249 13.274,14.041 13.782,14.041 14.320 C 14.041 14.650,14.083 14.859,14.325 15.720 C 14.533 16.464,14.696 16.807,14.977 17.092 C 15.490 17.613,16.158 17.827,16.883 17.702 C 17.348 17.621,21.047 16.667,21.383 16.540 C 21.827 16.373,22.122 16.144,22.376 15.767 C 22.775 15.175,22.827 14.675,22.584 13.744 C 22.377 12.947,22.182 12.391,22.027 12.148 C 21.651 11.560,20.855 11.160,20.180 11.219 C 20.026 11.233,19.787 11.268,19.649 11.297 C 19.512 11.326,19.391 11.338,19.381 11.322 C 19.356 11.280,18.120 6.833,18.120 6.783 C 18.120 6.759,18.278 6.689,18.469 6.626 C 18.903 6.485,19.117 6.361,19.377 6.101 C 19.753 5.725,19.959 5.220,19.960 4.672 C 19.960 4.193,19.563 2.732,19.312 2.288 C 18.945 1.641,18.046 1.175,17.340 1.265 M17.820 2.852 C 18.016 2.963,18.094 3.141,18.328 4.017 C 18.602 5.041,18.569 5.083,17.209 5.442 C 17.027 5.490,16.820 5.568,16.749 5.615 C 16.589 5.721,16.440 6.007,16.440 6.208 C 16.440 6.382,18.081 12.333,18.200 12.589 C 18.295 12.795,18.534 12.963,18.769 12.988 C 18.883 13.000,19.133 12.958,19.518 12.863 C 19.836 12.784,20.174 12.720,20.270 12.720 C 20.569 12.720,20.752 12.857,20.862 13.162 C 20.987 13.511,21.240 14.500,21.240 14.639 C 21.240 14.841,21.108 15.032,20.908 15.120 C 20.815 15.162,19.857 15.425,18.779 15.705 C 17.217 16.111,16.763 16.215,16.540 16.217 C 16.048 16.222,15.982 16.130,15.677 15.001 C 15.496 14.334,15.489 14.240,15.606 14.051 C 15.720 13.866,15.950 13.775,16.944 13.522 C 17.300 13.431,17.560 13.124,17.560 12.794 C 17.560 12.625,15.882 6.558,15.782 6.365 C 15.696 6.198,15.441 6.035,15.231 6.012 C 15.117 6.000,14.867 6.042,14.482 6.137 C 14.164 6.216,13.820 6.280,13.718 6.280 C 13.490 6.280,13.289 6.158,13.192 5.959 C 13.081 5.733,12.800 4.720,12.777 4.460 C 12.749 4.159,12.841 3.990,13.091 3.880 C 13.215 3.825,16.551 2.943,17.220 2.788 C 17.428 2.740,17.666 2.765,17.820 2.852 M4.714 6.281 C 4.255 6.352,3.821 6.585,3.475 6.946 C 3.084 7.354,2.975 7.647,2.817 8.709 C 2.739 9.232,2.716 9.527,2.726 9.838 C 2.740 10.227,2.753 10.285,2.889 10.572 C 3.122 11.062,3.582 11.497,4.042 11.662 C 4.140 11.697,4.388 11.759,4.593 11.799 C 4.798 11.840,4.971 11.879,4.976 11.886 C 4.984 11.897,4.725 13.766,4.361 16.333 L 4.311 16.686 3.885 16.659 C 3.359 16.625,3.039 16.678,2.653 16.863 C 2.099 17.128,1.677 17.624,1.526 18.189 C 1.294 19.059,1.199 20.317,1.335 20.720 C 1.603 21.513,2.242 22.036,3.140 22.196 C 3.485 22.258,7.312 22.717,7.722 22.747 C 8.362 22.792,8.950 22.589,9.409 22.166 C 9.888 21.723,10.020 21.402,10.184 20.285 C 10.259 19.767,10.283 19.469,10.271 19.160 C 10.257 18.777,10.243 18.712,10.111 18.431 C 9.861 17.897,9.353 17.447,8.838 17.303 C 8.701 17.264,8.461 17.211,8.305 17.185 C 8.059 17.143,8.021 17.126,8.029 17.058 C 8.034 17.015,8.182 15.943,8.359 14.675 C 8.535 13.407,8.680 12.359,8.680 12.347 C 8.680 12.335,8.900 12.335,9.170 12.347 C 9.558 12.365,9.714 12.355,9.920 12.301 C 10.677 12.103,11.284 11.521,11.474 10.811 C 11.602 10.331,11.734 9.346,11.733 8.880 C 11.732 8.232,11.550 7.822,11.068 7.376 C 10.760 7.090,10.381 6.907,9.930 6.825 C 9.508 6.748,5.711 6.294,5.260 6.266 C 5.084 6.255,4.838 6.262,4.714 6.281 M7.635 8.039 C 8.721 8.171,9.683 8.299,9.773 8.324 C 9.869 8.349,10.000 8.431,10.089 8.519 C 10.224 8.655,10.240 8.692,10.240 8.873 C 10.240 9.092,10.108 10.061,10.036 10.369 C 9.961 10.693,9.637 10.899,9.264 10.860 C 7.992 10.726,7.907 10.724,7.689 10.835 C 7.493 10.935,7.378 11.088,7.319 11.324 C 7.295 11.421,7.078 12.918,6.837 14.651 C 6.349 18.148,6.359 17.986,6.625 18.280 C 6.795 18.469,6.891 18.503,7.474 18.579 C 8.271 18.684,8.436 18.722,8.564 18.829 C 8.786 19.017,8.813 19.119,8.761 19.575 C 8.735 19.798,8.679 20.186,8.636 20.439 C 8.551 20.940,8.476 21.072,8.211 21.185 C 8.006 21.273,7.747 21.254,5.625 21.000 C 3.005 20.685,3.100 20.704,2.888 20.462 C 2.730 20.283,2.726 20.166,2.842 19.353 C 2.945 18.640,2.985 18.484,3.094 18.366 C 3.302 18.140,3.570 18.112,4.493 18.221 C 4.912 18.270,5.036 18.272,5.172 18.232 C 5.408 18.161,5.619 17.936,5.675 17.695 C 5.700 17.588,5.919 16.082,6.161 14.349 C 6.651 10.852,6.641 11.015,6.375 10.720 C 6.211 10.538,6.105 10.498,5.620 10.439 C 4.613 10.316,4.406 10.241,4.255 9.950 C 4.188 9.820,4.190 9.774,4.303 8.940 C 4.414 8.116,4.483 7.953,4.780 7.814 C 4.957 7.730,5.383 7.764,7.635 8.039 " fill="#1C274C" stroke="none" fill-rule="evenodd"></path></svg>