<svg width="24" height="24" viewBox="0 0 24 24" fill="none" xmlns="http://www.w3.org/2000/svg"><path d="M11.940 1.296 C 11.389 1.400,11.056 1.626,10.165 2.497 C 8.815 3.818,8.568 4.238,8.611 5.140 C 8.646 5.880,8.835 6.198,9.853 7.230 L 10.577 7.963 9.269 9.271 L 7.961 10.578 7.291 9.915 C 6.922 9.551,6.522 9.176,6.402 9.083 C 5.935 8.720,5.490 8.580,4.900 8.611 C 4.147 8.651,3.819 8.857,2.658 10.018 C 1.470 11.206,1.269 11.540,1.264 12.340 C 1.260 12.832,1.361 13.192,1.608 13.565 C 1.701 13.705,2.097 14.145,2.488 14.543 C 2.880 14.941,3.200 15.280,3.200 15.297 C 3.200 15.315,3.062 15.475,2.893 15.654 C 2.334 16.247,2.141 16.636,2.147 17.160 C 2.150 17.530,2.254 17.819,2.507 18.169 C 2.756 18.511,5.386 21.149,5.767 21.439 C 6.164 21.740,6.448 21.850,6.840 21.853 C 7.364 21.859,7.753 21.666,8.346 21.107 C 8.525 20.938,8.685 20.800,8.703 20.800 C 8.720 20.800,9.059 21.120,9.457 21.512 C 9.855 21.903,10.295 22.299,10.435 22.392 C 10.808 22.639,11.168 22.740,11.660 22.736 C 12.410 22.731,12.786 22.523,13.772 21.563 C 15.184 20.189,15.433 19.774,15.389 18.860 C 15.354 18.120,15.165 17.802,14.147 16.770 L 13.423 16.037 14.730 14.730 L 16.037 13.423 16.770 14.147 C 17.802 15.165,18.120 15.354,18.860 15.389 C 19.774 15.433,20.189 15.184,21.563 13.772 C 22.523 12.786,22.731 12.410,22.736 11.660 C 22.740 11.168,22.639 10.808,22.392 10.435 C 22.299 10.295,21.903 9.855,21.512 9.457 C 21.120 9.059,20.800 8.720,20.800 8.703 C 20.800 8.685,20.938 8.525,21.107 8.346 C 21.647 7.773,21.853 7.368,21.856 6.880 C 21.857 6.541,21.760 6.230,21.554 5.915 C 21.335 5.582,18.432 2.674,18.107 2.463 C 17.782 2.252,17.486 2.156,17.155 2.155 C 16.622 2.154,16.225 2.352,15.627 2.921 L 15.300 3.232 14.560 2.505 C 14.153 2.105,13.714 1.708,13.584 1.623 C 13.112 1.313,12.498 1.191,11.940 1.296 M12.674 2.827 C 12.765 2.868,13.620 3.690,14.940 5.005 C 16.390 6.449,17.107 7.135,17.209 7.178 C 17.654 7.364,18.179 7.078,18.230 6.622 C 18.275 6.223,18.273 6.219,17.274 5.216 L 16.355 4.293 16.667 4.001 C 17.070 3.625,17.116 3.604,17.287 3.721 C 17.479 3.853,20.058 6.423,20.228 6.653 C 20.350 6.817,20.364 6.859,20.328 6.938 C 20.305 6.990,20.085 7.241,19.841 7.496 C 19.301 8.059,19.183 8.274,19.183 8.700 C 19.183 9.189,19.270 9.319,20.253 10.316 C 20.721 10.791,21.134 11.246,21.172 11.326 C 21.264 11.524,21.258 11.769,21.154 11.972 C 21.060 12.156,19.691 13.553,19.407 13.753 C 19.311 13.821,19.156 13.888,19.061 13.902 C 18.687 13.958,18.846 14.103,14.374 9.629 C 12.105 7.358,10.216 5.437,10.177 5.360 C 10.066 5.144,10.084 4.839,10.220 4.630 C 10.380 4.383,11.831 2.946,12.020 2.847 C 12.215 2.745,12.478 2.737,12.674 2.827 M13.320 10.700 L 14.980 12.360 13.670 13.670 L 12.360 14.980 10.690 13.310 L 9.020 11.640 10.320 10.340 C 11.035 9.625,11.629 9.040,11.640 9.040 C 11.651 9.040,12.407 9.787,13.320 10.700 M5.380 10.189 C 5.547 10.271,13.736 18.468,13.822 18.639 C 13.931 18.857,13.914 19.164,13.781 19.369 C 13.620 19.618,12.126 21.092,11.954 21.172 C 11.769 21.258,11.474 21.259,11.308 21.174 C 11.238 21.138,10.790 20.724,10.314 20.254 C 9.313 19.265,9.206 19.195,8.703 19.193 C 8.263 19.192,8.058 19.299,7.525 19.813 C 7.010 20.310,6.916 20.377,6.792 20.338 C 6.682 20.304,3.975 17.624,3.772 17.347 C 3.597 17.111,3.603 17.094,4.001 16.667 L 4.293 16.355 5.216 17.274 C 6.219 18.273,6.223 18.275,6.622 18.230 C 7.078 18.179,7.364 17.654,7.178 17.209 C 7.135 17.107,6.449 16.390,5.005 14.940 C 3.690 13.620,2.868 12.765,2.827 12.674 C 2.736 12.475,2.743 12.230,2.846 12.028 C 2.933 11.857,4.287 10.469,4.571 10.261 C 4.820 10.077,5.100 10.052,5.380 10.189 " fill="#1C274C" stroke="none" fill-rule="evenodd"></path></svg>