<svg width="24" height="24" viewBox="0 0 24 24" fill="none" xmlns="http://www.w3.org/2000/svg"><path d="M11.320 1.281 C 7.041 1.525,3.252 4.409,1.843 8.497 C 1.180 10.418,1.082 12.560,1.564 14.550 C 2.505 18.428,5.572 21.495,9.450 22.436 C 11.106 22.837,12.894 22.837,14.550 22.436 C 18.377 21.508,21.411 18.516,22.401 14.693 C 22.836 13.017,22.848 11.149,22.436 9.450 C 21.425 5.282,17.985 2.095,13.742 1.398 C 13.334 1.331,12.074 1.229,11.880 1.247 C 11.847 1.250,11.595 1.265,11.320 1.281 M13.146 2.822 C 13.803 2.908,14.292 3.019,14.920 3.225 C 15.499 3.415,16.478 3.875,16.950 4.180 L 17.240 4.367 17.240 4.561 C 17.240 5.067,16.854 6.140,16.535 6.518 C 16.346 6.743,15.737 7.186,15.066 7.585 C 14.711 7.797,14.303 8.052,14.160 8.153 C 13.525 8.600,13.002 9.233,12.754 9.856 C 12.638 10.148,12.610 10.769,12.695 11.187 C 12.790 11.655,12.781 11.809,12.652 11.963 C 12.495 12.149,12.270 12.238,11.952 12.239 C 11.580 12.240,11.316 12.178,10.923 11.995 C 10.640 11.864,10.530 11.782,10.242 11.489 C 9.689 10.928,9.470 10.427,9.320 9.389 C 9.216 8.669,9.120 8.263,8.936 7.771 C 8.550 6.739,7.794 5.523,7.018 4.686 L 6.745 4.392 6.842 4.318 C 7.044 4.165,7.577 3.866,8.062 3.634 C 8.897 3.235,9.851 2.954,10.820 2.823 C 11.380 2.746,12.569 2.746,13.146 2.822 M6.278 6.120 C 6.809 6.784,7.279 7.594,7.535 8.284 C 7.677 8.668,7.776 9.116,7.900 9.938 C 8.089 11.185,8.703 12.254,9.636 12.963 C 10.602 13.697,12.036 13.944,12.978 13.540 C 13.549 13.295,14.054 12.743,14.198 12.206 C 14.263 11.966,14.254 11.345,14.182 11.038 C 14.054 10.497,14.132 10.244,14.569 9.777 C 14.852 9.474,15.032 9.345,15.888 8.834 C 16.547 8.440,17.084 8.059,17.449 7.724 C 17.852 7.354,18.228 6.695,18.464 5.940 C 18.526 5.742,18.583 5.572,18.589 5.563 C 18.610 5.532,18.843 5.772,19.152 6.140 C 20.056 7.217,20.777 8.728,21.057 10.129 C 21.213 10.907,21.251 11.372,21.230 12.233 C 21.213 12.938,21.200 13.057,21.104 13.380 C 20.776 14.478,20.249 15.082,19.332 15.413 C 18.925 15.560,18.455 15.631,17.580 15.678 C 16.745 15.723,16.324 15.784,15.660 15.960 C 13.533 16.521,12.480 17.671,12.277 19.654 C 12.236 20.051,12.279 20.807,12.359 21.110 L 12.394 21.240 11.859 21.240 C 9.853 21.240,7.692 20.451,6.140 19.153 C 5.066 18.254,4.293 17.276,3.696 16.060 C 3.060 14.764,2.760 13.462,2.760 12.000 C 2.760 10.538,3.060 9.236,3.696 7.940 C 4.138 7.039,4.602 6.370,5.287 5.644 L 5.566 5.349 5.786 5.564 C 5.907 5.683,6.128 5.933,6.278 6.120 M19.657 17.190 C 19.334 17.667,18.929 18.145,18.456 18.608 C 17.694 19.353,17.005 19.841,16.060 20.304 C 15.256 20.698,13.979 21.116,13.881 21.017 C 13.822 20.957,13.761 20.487,13.760 20.088 C 13.760 19.603,13.851 19.176,14.038 18.780 C 14.226 18.383,14.403 18.178,14.763 17.938 C 15.453 17.479,16.404 17.231,17.746 17.160 C 18.708 17.108,19.336 17.011,19.760 16.848 C 19.815 16.827,19.868 16.816,19.877 16.825 C 19.886 16.834,19.787 16.998,19.657 17.190 " stroke="none" fill-rule="evenodd" fill="black"></path></svg>