<svg width="24" height="24" viewBox="0 0 24 24" fill="none" xmlns="http://www.w3.org/2000/svg"><path d="M7.120 1.280 C 6.023 1.315,5.568 1.359,5.052 1.480 C 3.310 1.890,2.516 2.949,2.316 5.130 C 2.285 5.464,2.265 8.109,2.252 13.422 L 2.234 21.223 1.960 21.266 C 1.497 21.339,1.267 21.584,1.267 22.003 C 1.267 22.281,1.387 22.496,1.627 22.645 L 1.780 22.740 9.507 22.740 L 17.233 22.740 17.403 22.620 C 17.616 22.469,17.729 22.256,17.729 22.004 C 17.729 21.588,17.495 21.338,17.040 21.266 L 16.760 21.222 16.760 19.488 L 16.760 17.754 17.297 17.767 C 17.765 17.778,17.849 17.791,17.945 17.862 C 18.162 18.025,18.205 18.125,18.261 18.605 C 18.321 19.127,18.419 19.419,18.645 19.758 C 18.924 20.176,19.338 20.483,19.840 20.644 C 20.181 20.754,20.761 20.763,21.100 20.663 C 21.852 20.443,22.433 19.863,22.666 19.100 C 22.736 18.872,22.740 18.573,22.740 12.920 C 22.740 6.605,22.749 6.904,22.551 6.280 C 22.401 5.806,22.116 5.311,21.761 4.910 C 21.583 4.708,20.103 3.498,19.859 3.354 C 19.666 3.240,19.345 3.235,19.163 3.341 C 18.753 3.581,18.631 4.114,18.910 4.444 C 18.969 4.514,19.373 4.857,19.808 5.206 C 20.793 5.997,21.027 6.281,21.180 6.868 C 21.280 7.251,21.315 7.225,20.670 7.252 C 20.326 7.267,20.013 7.302,19.880 7.342 C 19.144 7.562,18.565 8.145,18.334 8.900 C 18.268 9.115,18.260 9.299,18.260 10.680 C 18.260 12.312,18.273 12.457,18.458 12.840 C 18.674 13.288,18.951 13.597,19.359 13.845 C 19.500 13.931,19.932 14.102,20.419 14.265 L 21.240 14.540 21.240 16.621 C 21.240 18.953,21.253 18.848,20.944 19.097 C 20.823 19.195,20.752 19.219,20.549 19.231 C 20.257 19.247,20.088 19.173,19.907 18.950 C 19.805 18.823,19.786 18.755,19.740 18.334 C 19.711 18.073,19.653 17.768,19.610 17.656 C 19.439 17.208,19.059 16.770,18.627 16.525 C 18.288 16.333,18.035 16.277,17.374 16.252 L 16.768 16.228 16.748 10.964 C 16.728 5.525,16.713 4.999,16.557 4.228 C 16.176 2.345,15.077 1.491,12.820 1.322 C 12.069 1.266,8.392 1.239,7.120 1.280 M13.220 2.854 C 14.498 3.066,14.922 3.486,15.146 4.760 C 15.207 5.105,15.215 5.891,15.228 13.190 L 15.243 21.240 9.500 21.240 L 3.757 21.240 3.773 13.190 C 3.789 4.992,3.790 4.934,3.940 4.344 C 4.208 3.294,4.803 2.911,6.340 2.800 C 6.582 2.783,8.139 2.773,9.800 2.778 C 12.395 2.786,12.876 2.797,13.220 2.854 M21.240 10.857 L 21.240 12.954 20.680 12.767 C 20.288 12.636,20.084 12.545,19.999 12.465 C 19.753 12.233,19.756 12.259,19.769 10.663 L 19.780 9.207 19.901 9.058 C 20.107 8.803,20.233 8.760,20.769 8.760 L 21.240 8.760 21.240 10.857 M9.263 9.299 C 9.177 9.330,9.048 9.415,8.978 9.488 C 8.827 9.645,7.368 12.071,7.291 12.293 C 7.207 12.537,7.273 12.796,7.475 13.013 C 7.661 13.214,7.687 13.219,8.707 13.240 L 9.673 13.260 9.232 13.993 C 8.779 14.746,8.723 14.892,8.777 15.178 C 8.807 15.338,8.996 15.576,9.156 15.656 C 9.435 15.796,9.746 15.760,9.974 15.560 C 10.141 15.414,11.674 12.865,11.721 12.656 C 11.777 12.406,11.714 12.191,11.525 11.987 C 11.339 11.786,11.313 11.781,10.293 11.760 L 9.327 11.740 9.768 11.007 C 10.221 10.254,10.277 10.108,10.223 9.822 C 10.193 9.663,10.005 9.425,9.844 9.343 C 9.672 9.255,9.434 9.237,9.263 9.299 " stroke="none" fill-rule="evenodd" fill="black"></path></svg>