<svg width="24" height="24" viewBox="0 0 24 24" fill="none" xmlns="http://www.w3.org/2000/svg"><path d="M14.952 1.283 C 13.893 1.355,12.644 1.627,9.460 2.480 C 6.163 3.363,4.985 3.743,3.980 4.247 C 2.464 5.008,1.617 6.060,1.335 7.529 C 1.252 7.966,1.253 8.989,1.338 9.616 C 1.472 10.604,1.778 11.924,2.480 14.540 C 3.366 17.846,3.743 19.015,4.247 20.020 C 5.008 21.536,6.058 22.382,7.529 22.665 C 7.960 22.748,8.982 22.746,9.616 22.661 C 10.595 22.530,11.916 22.224,14.540 21.520 C 17.846 20.634,19.015 20.257,20.020 19.753 C 21.536 18.992,22.385 17.938,22.664 16.471 C 22.748 16.033,22.746 15.008,22.662 14.384 C 22.503 13.215,21.899 10.742,20.935 7.320 C 20.201 4.713,19.630 3.450,18.789 2.574 C 17.832 1.576,16.625 1.170,14.952 1.283 M16.580 2.896 C 17.036 3.053,17.259 3.184,17.575 3.480 C 18.473 4.323,18.883 5.378,20.135 10.060 C 21.051 13.488,21.269 14.613,21.231 15.716 C 21.215 16.171,21.194 16.312,21.103 16.580 C 20.948 17.034,20.817 17.258,20.520 17.575 C 19.677 18.473,18.622 18.883,13.940 20.135 C 10.512 21.051,9.387 21.269,8.284 21.231 C 7.829 21.215,7.688 21.194,7.420 21.103 C 6.966 20.948,6.742 20.817,6.425 20.520 C 5.526 19.676,5.119 18.627,3.860 13.920 C 2.939 10.476,2.736 9.440,2.770 8.340 C 2.786 7.835,2.805 7.690,2.893 7.420 C 3.025 7.014,3.223 6.683,3.512 6.386 C 4.359 5.515,5.433 5.102,10.080 3.860 C 13.517 2.941,14.458 2.756,15.600 2.775 C 16.199 2.785,16.290 2.796,16.580 2.896 M13.950 8.411 C 13.201 8.865,13.381 10.490,14.245 11.080 C 14.423 11.201,14.480 11.219,14.697 11.219 C 15.012 11.220,15.214 11.099,15.368 10.814 C 15.699 10.207,15.538 9.238,15.013 8.676 C 14.682 8.323,14.267 8.219,13.950 8.411 M8.150 9.971 C 7.386 10.434,7.608 12.139,8.500 12.662 C 9.346 13.158,10.021 12.133,9.634 10.940 C 9.545 10.666,9.257 10.217,9.092 10.095 C 8.765 9.854,8.419 9.808,8.150 9.971 M16.340 13.175 C 16.274 13.206,16.094 13.344,15.940 13.483 C 15.026 14.303,13.909 14.880,12.620 15.195 C 11.609 15.442,10.398 15.475,9.450 15.282 C 8.916 15.173,8.747 15.176,8.537 15.300 C 8.006 15.611,8.066 16.375,8.641 16.615 C 8.869 16.710,9.590 16.835,10.199 16.884 C 10.772 16.931,11.725 16.890,12.208 16.798 C 12.536 16.736,12.523 16.728,12.754 17.182 C 13.096 17.856,13.479 18.214,14.089 18.431 C 14.336 18.518,14.449 18.534,14.840 18.535 C 15.266 18.536,15.324 18.526,15.620 18.408 C 16.271 18.147,16.728 17.676,16.942 17.042 C 17.148 16.432,17.104 15.884,16.795 15.233 L 16.628 14.883 16.936 14.596 C 17.299 14.257,17.371 14.133,17.371 13.854 C 17.371 13.609,17.285 13.441,17.069 13.267 C 16.948 13.169,16.874 13.142,16.689 13.132 C 16.549 13.124,16.413 13.141,16.340 13.175 M15.560 16.327 C 15.560 16.563,15.493 16.706,15.303 16.872 C 14.981 17.155,14.537 17.122,14.263 16.796 C 14.158 16.672,13.982 16.360,14.007 16.344 C 14.014 16.339,14.146 16.287,14.300 16.227 C 14.454 16.168,14.760 16.032,14.980 15.926 L 15.380 15.733 15.470 15.931 C 15.524 16.051,15.560 16.209,15.560 16.327 " stroke="none" fill-rule="evenodd" fill="black"></path></svg>