<svg width="24" height="24" viewBox="0 0 24 24" fill="none" xmlns="http://www.w3.org/2000/svg"><path d="M11.320 1.281 C 7.041 1.525,3.252 4.409,1.843 8.497 C 1.180 10.418,1.082 12.560,1.564 14.550 C 2.505 18.428,5.572 21.495,9.450 22.436 C 11.106 22.837,12.894 22.837,14.550 22.436 C 18.428 21.495,21.495 18.428,22.436 14.550 C 22.837 12.894,22.837 11.106,22.436 9.450 C 21.425 5.282,17.985 2.095,13.742 1.398 C 13.334 1.331,12.074 1.229,11.880 1.247 C 11.847 1.250,11.595 1.265,11.320 1.281 M13.146 2.822 C 14.201 2.960,15.125 3.237,16.060 3.696 C 18.877 5.079,20.768 7.722,21.178 10.854 C 21.301 11.786,21.244 13.026,21.034 13.998 C 20.745 15.343,20.003 16.855,19.121 17.900 C 18.247 18.935,17.240 19.726,16.060 20.304 C 14.761 20.940,13.462 21.240,12.000 21.240 C 10.538 21.240,9.236 20.940,7.940 20.304 C 5.123 18.921,3.232 16.278,2.822 13.146 C 2.699 12.214,2.756 10.974,2.966 10.002 C 3.177 9.020,3.703 7.775,4.268 6.920 C 5.750 4.677,8.131 3.188,10.820 2.823 C 11.380 2.746,12.569 2.746,13.146 2.822 M13.950 8.411 C 13.201 8.865,13.381 10.490,14.245 11.080 C 14.423 11.201,14.480 11.219,14.697 11.219 C 15.012 11.220,15.214 11.099,15.368 10.814 C 15.699 10.207,15.538 9.238,15.013 8.676 C 14.682 8.323,14.267 8.219,13.950 8.411 M8.150 9.971 C 7.386 10.434,7.608 12.139,8.500 12.662 C 9.346 13.158,10.021 12.133,9.634 10.940 C 9.545 10.666,9.257 10.217,9.092 10.095 C 8.765 9.854,8.419 9.808,8.150 9.971 M16.340 13.175 C 16.274 13.206,16.094 13.344,15.940 13.483 C 15.026 14.303,13.909 14.880,12.620 15.195 C 11.609 15.442,10.398 15.475,9.450 15.282 C 8.916 15.173,8.747 15.176,8.537 15.300 C 8.006 15.611,8.066 16.375,8.641 16.615 C 8.869 16.710,9.590 16.835,10.199 16.884 C 10.772 16.931,11.725 16.890,12.208 16.798 C 12.536 16.736,12.523 16.728,12.754 17.182 C 13.096 17.856,13.479 18.214,14.089 18.431 C 14.336 18.518,14.449 18.534,14.840 18.535 C 15.266 18.536,15.324 18.526,15.620 18.408 C 16.271 18.147,16.728 17.676,16.942 17.042 C 17.148 16.432,17.104 15.884,16.795 15.233 L 16.628 14.883 16.936 14.596 C 17.299 14.257,17.371 14.133,17.371 13.854 C 17.371 13.609,17.285 13.441,17.069 13.267 C 16.948 13.169,16.874 13.142,16.689 13.132 C 16.549 13.124,16.413 13.141,16.340 13.175 M15.560 16.327 C 15.560 16.563,15.493 16.706,15.303 16.872 C 14.981 17.155,14.537 17.122,14.263 16.796 C 14.158 16.672,13.982 16.360,14.007 16.344 C 14.014 16.339,14.146 16.287,14.300 16.227 C 14.454 16.168,14.760 16.032,14.980 15.926 L 15.380 15.733 15.470 15.931 C 15.524 16.051,15.560 16.209,15.560 16.327 " stroke="none" fill-rule="evenodd" fill="black"></path></svg>