<svg width="24" height="24" viewBox="0 0 24 24" fill="none" xmlns="http://www.w3.org/2000/svg"><path d="M11.040 6.282 C 7.445 6.452,4.392 7.693,2.319 9.826 C 1.324 10.849,1.224 11.172,1.249 13.257 C 1.267 14.689,1.286 14.809,1.585 15.350 C 2.070 16.226,3.177 16.828,4.151 16.745 C 4.504 16.716,4.639 16.682,5.960 16.294 C 7.202 15.929,7.460 15.809,7.895 15.398 C 8.484 14.840,8.713 14.306,8.750 13.409 C 8.771 12.879,8.772 12.877,8.891 12.777 C 9.153 12.556,9.680 12.371,10.380 12.254 C 11.017 12.148,12.983 12.148,13.620 12.254 C 14.341 12.375,14.887 12.574,15.150 12.812 C 15.227 12.882,15.240 12.935,15.240 13.169 C 15.240 14.011,15.648 14.859,16.285 15.337 C 16.857 15.767,17.110 15.843,18.780 16.084 C 19.856 16.240,19.965 16.249,20.280 16.209 C 20.721 16.153,21.078 16.039,21.397 15.851 C 21.973 15.513,22.418 14.963,22.623 14.337 L 22.740 13.980 22.740 12.460 C 22.740 10.735,22.729 10.646,22.430 10.040 C 22.227 9.629,21.895 9.277,21.286 8.825 C 19.223 7.296,16.443 6.441,13.010 6.281 C 12.103 6.238,11.957 6.238,11.040 6.282 M13.407 7.802 C 15.608 7.954,17.360 8.384,18.940 9.161 C 19.619 9.494,20.202 9.862,20.692 10.267 C 20.919 10.454,21.019 10.570,21.106 10.747 L 21.220 10.980 21.232 12.371 L 21.244 13.761 21.135 14.003 C 20.945 14.427,20.495 14.720,20.034 14.720 C 19.774 14.720,17.976 14.462,17.657 14.379 C 17.343 14.296,17.063 14.083,16.907 13.805 C 16.797 13.609,16.784 13.546,16.758 13.074 C 16.732 12.608,16.717 12.532,16.605 12.305 C 16.224 11.531,15.361 11.038,13.969 10.799 C 12.866 10.609,11.134 10.609,10.031 10.799 C 8.635 11.038,7.776 11.531,7.392 12.311 C 7.271 12.556,7.264 12.597,7.242 13.174 C 7.215 13.886,7.159 14.046,6.836 14.336 C 6.612 14.538,6.534 14.567,5.103 14.983 C 4.264 15.227,4.163 15.248,3.903 15.231 C 3.453 15.202,3.076 14.960,2.879 14.573 L 2.780 14.380 2.780 13.040 L 2.780 11.700 2.878 11.500 C 2.997 11.257,3.681 10.542,4.160 10.161 C 5.842 8.822,8.064 8.014,10.640 7.805 C 11.256 7.755,12.703 7.754,13.407 7.802 " fill="#1C274C" stroke="none" fill-rule="evenodd"></path></svg>