<svg width="24" height="24" viewBox="0 0 24 24" fill="none" xmlns="http://www.w3.org/2000/svg"><path d="M11.160 6.283 C 9.147 6.376,7.450 6.798,5.780 7.618 C 3.826 8.579,2.273 9.970,1.737 11.242 C 1.281 12.323,1.132 13.865,1.385 14.875 C 1.658 15.964,2.389 16.891,3.359 17.379 C 3.900 17.652,4.591 17.781,5.180 17.720 C 5.569 17.680,5.547 17.685,6.564 17.399 C 7.767 17.060,8.133 16.869,8.682 16.294 C 9.338 15.609,9.647 14.880,9.742 13.792 C 9.779 13.376,10.002 13.124,10.510 12.924 C 11.204 12.651,12.839 12.655,13.500 12.932 C 14.023 13.151,14.221 13.375,14.258 13.792 C 14.317 14.471,14.432 14.910,14.680 15.400 C 15.042 16.119,15.668 16.738,16.343 17.044 C 16.491 17.111,16.983 17.271,17.436 17.399 C 18.453 17.685,18.431 17.680,18.820 17.720 C 20.302 17.873,21.794 16.944,22.403 15.489 C 22.685 14.815,22.776 14.181,22.717 13.293 C 22.603 11.566,22.098 10.522,20.813 9.357 C 20.038 8.654,19.245 8.122,18.220 7.618 C 16.857 6.948,15.635 6.589,14.011 6.380 C 13.606 6.328,11.999 6.229,11.860 6.247 C 11.838 6.250,11.523 6.266,11.160 6.283 M13.860 7.857 C 16.609 8.245,18.843 9.336,20.373 11.037 C 20.983 11.714,21.279 12.716,21.230 13.933 C 21.206 14.516,21.103 14.854,20.820 15.280 C 20.525 15.724,20.177 15.992,19.678 16.161 C 19.268 16.300,18.873 16.263,17.960 16.003 C 16.988 15.726,16.725 15.600,16.396 15.251 C 15.978 14.807,15.817 14.394,15.724 13.520 C 15.652 12.850,15.306 12.297,14.705 11.891 C 14.144 11.512,13.420 11.299,12.516 11.249 C 11.129 11.170,10.049 11.384,9.299 11.886 C 8.923 12.137,8.678 12.415,8.477 12.820 C 8.344 13.085,8.310 13.205,8.276 13.520 C 8.183 14.394,8.022 14.807,7.604 15.251 C 7.275 15.600,7.012 15.726,6.040 16.003 C 5.127 16.263,4.732 16.300,4.322 16.161 C 3.821 15.992,3.475 15.724,3.177 15.276 C 2.885 14.836,2.792 14.521,2.770 13.895 C 2.727 12.687,3.019 11.713,3.629 11.033 C 5.289 9.184,7.799 8.053,10.840 7.785 C 11.281 7.746,13.438 7.797,13.860 7.857 " stroke="none" fill-rule="evenodd" fill="black"></path></svg>