<svg width="24" height="24" viewBox="0 0 24 24" fill="none" xmlns="http://www.w3.org/2000/svg"><path d="M14.740 2.266 C 14.015 2.352,13.464 2.620,12.660 3.274 C 12.300 3.567,4.353 11.476,3.673 12.218 C 2.790 13.182,2.446 13.749,2.296 14.487 C 2.141 15.253,2.378 16.072,2.992 16.889 C 3.330 17.340,4.183 18.253,5.226 19.281 C 6.947 20.977,7.476 21.381,8.322 21.646 L 8.620 21.740 14.920 21.740 L 21.220 21.740 21.369 21.647 C 21.943 21.290,21.812 20.424,21.162 20.284 C 21.019 20.253,19.584 20.240,16.429 20.240 L 11.902 20.240 16.204 15.930 C 20.431 11.695,20.960 11.138,21.287 10.574 C 21.751 9.775,21.864 9.034,21.635 8.292 C 21.392 7.504,20.936 6.908,19.323 5.266 C 17.853 3.770,16.869 2.911,16.258 2.592 C 15.817 2.361,15.149 2.218,14.740 2.266 M15.537 3.916 C 15.687 3.989,15.992 4.196,16.215 4.374 C 16.740 4.794,19.206 7.260,19.626 7.785 C 20.354 8.696,20.414 9.168,19.900 9.940 C 19.580 10.420,19.010 11.019,16.264 13.760 L 13.760 16.260 10.750 13.250 L 7.740 10.240 10.240 7.736 C 11.615 6.359,12.965 5.025,13.240 4.773 C 13.773 4.283,14.267 3.929,14.560 3.824 C 14.849 3.721,15.211 3.755,15.537 3.916 M9.700 14.322 L 12.700 17.323 11.660 18.352 C 10.547 19.454,10.053 19.879,9.642 20.088 C 9.409 20.207,9.350 20.220,9.042 20.219 C 8.645 20.218,8.463 20.143,7.977 19.780 C 7.353 19.314,5.008 16.992,4.380 16.220 C 4.220 16.022,4.021 15.738,3.939 15.588 C 3.596 14.960,3.737 14.433,4.482 13.558 C 4.745 13.249,6.638 11.320,6.678 11.320 C 6.690 11.320,8.050 12.671,9.700 14.322 " fill="#1C274C" stroke="none" fill-rule="evenodd"></path></svg>