<svg width="24" height="24" viewBox="0 0 24 24" fill="none" xmlns="http://www.w3.org/2000/svg"><path d="M9.020 1.279 C 6.976 1.330,5.856 1.466,4.900 1.779 C 3.060 2.382,1.958 3.688,1.563 5.734 C 1.311 7.042,1.267 7.973,1.267 12.000 C 1.267 16.027,1.311 16.958,1.563 18.266 C 2.013 20.599,3.401 21.987,5.734 22.437 C 7.043 22.690,7.974 22.734,12.000 22.734 C 16.026 22.734,16.957 22.690,18.266 22.437 C 20.599 21.987,21.987 20.599,22.437 18.266 C 22.688 16.966,22.733 16.013,22.733 12.000 C 22.733 7.987,22.688 7.034,22.437 5.734 C 22.098 3.977,21.228 2.756,19.825 2.068 C 18.972 1.650,17.853 1.420,16.180 1.321 C 15.262 1.267,10.607 1.239,9.020 1.279 M16.600 2.836 C 18.439 3.019,19.320 3.320,20.000 4.000 C 20.692 4.693,20.998 5.605,21.168 7.480 C 21.242 8.307,21.242 15.693,21.168 16.520 C 20.996 18.419,20.693 19.311,19.982 20.013 C 19.218 20.769,18.155 21.080,15.940 21.199 C 14.954 21.252,9.046 21.252,8.060 21.199 C 5.843 21.080,4.782 20.769,4.016 20.011 C 3.342 19.345,3.026 18.464,2.852 16.760 C 2.788 16.135,2.780 15.620,2.781 11.980 C 2.782 7.664,2.793 7.353,2.984 6.240 C 3.183 5.082,3.600 4.278,4.272 3.760 C 5.025 3.178,6.058 2.913,8.002 2.802 C 8.872 2.752,16.044 2.780,16.600 2.836 M13.680 5.280 C 13.181 5.349,12.679 5.634,12.040 6.209 C 11.338 6.841,6.020 12.213,5.807 12.506 C 5.517 12.904,5.327 13.334,5.271 13.718 C 5.183 14.319,5.391 14.908,5.929 15.575 C 6.298 16.035,7.965 17.702,8.425 18.071 C 9.092 18.609,9.681 18.817,10.282 18.729 C 10.675 18.672,11.109 18.477,11.518 18.174 C 11.920 17.875,17.875 11.920,18.174 11.518 C 18.887 10.556,18.933 9.684,18.320 8.766 C 17.936 8.192,15.992 6.215,15.387 5.783 C 14.788 5.356,14.257 5.199,13.680 5.280 M14.430 6.939 C 14.728 7.135,16.864 9.270,17.060 9.569 C 17.324 9.972,17.295 10.196,16.917 10.683 C 16.824 10.802,15.946 11.706,14.965 12.690 L 13.181 14.481 11.351 12.651 L 9.520 10.820 11.130 9.206 C 13.382 6.949,13.629 6.740,14.010 6.772 C 14.143 6.783,14.267 6.833,14.430 6.939 M11.630 16.032 C 11.360 16.303,10.996 16.648,10.820 16.798 C 10.228 17.302,10.022 17.349,9.596 17.076 C 9.277 16.872,7.157 14.761,6.940 14.431 C 6.590 13.897,6.701 13.663,7.856 12.489 L 8.457 11.877 10.288 13.708 L 12.120 15.539 11.630 16.032 " fill="#1C274C" stroke="none" fill-rule="evenodd"></path></svg>