<svg width="24" height="24" viewBox="0 0 24 24" fill="none" xmlns="http://www.w3.org/2000/svg"><path d="M11.310 1.283 C 6.653 1.563,2.667 4.904,1.564 9.450 C 1.162 11.110,1.162 12.890,1.564 14.550 C 2.415 18.060,5.032 20.948,8.442 22.139 C 10.725 22.937,13.275 22.937,15.558 22.139 C 18.633 21.065,21.092 18.592,22.157 15.503 C 22.819 13.585,22.918 11.437,22.436 9.450 C 21.419 5.255,17.924 2.044,13.657 1.383 C 13.303 1.328,12.042 1.231,11.880 1.246 C 11.847 1.249,11.590 1.266,11.310 1.283 M12.992 2.802 C 14.750 2.993,16.561 3.756,17.878 4.859 C 18.914 5.728,19.725 6.758,20.304 7.940 C 20.940 9.239,21.240 10.538,21.240 12.000 C 21.240 13.462,20.940 14.764,20.304 16.060 C 18.921 18.877,16.278 20.768,13.146 21.178 C 12.214 21.301,10.974 21.244,10.002 21.034 C 8.667 20.747,7.178 20.022,6.140 19.153 C 4.272 17.590,3.134 15.531,2.822 13.146 C 2.699 12.214,2.756 10.974,2.966 10.002 C 3.253 8.667,3.978 7.178,4.847 6.140 C 5.196 5.722,5.821 5.101,6.213 4.783 C 7.491 3.743,9.284 2.994,10.940 2.807 C 11.397 2.755,12.535 2.753,12.992 2.802 M13.680 5.280 C 13.181 5.349,12.679 5.634,12.040 6.209 C 11.338 6.841,6.020 12.213,5.807 12.506 C 5.517 12.904,5.327 13.334,5.271 13.718 C 5.183 14.319,5.391 14.908,5.929 15.575 C 6.298 16.035,7.965 17.702,8.425 18.071 C 9.092 18.609,9.681 18.817,10.282 18.729 C 10.675 18.672,11.109 18.477,11.518 18.174 C 11.920 17.875,17.875 11.920,18.174 11.518 C 18.887 10.556,18.933 9.684,18.320 8.766 C 17.936 8.192,15.992 6.215,15.387 5.783 C 14.788 5.356,14.257 5.199,13.680 5.280 M14.430 6.939 C 14.728 7.135,16.864 9.270,17.060 9.569 C 17.324 9.972,17.295 10.196,16.917 10.683 C 16.824 10.802,15.946 11.706,14.965 12.690 L 13.181 14.481 11.351 12.651 L 9.520 10.820 11.130 9.206 C 13.382 6.949,13.629 6.740,14.010 6.772 C 14.143 6.783,14.267 6.833,14.430 6.939 M11.630 16.032 C 11.360 16.303,10.996 16.648,10.820 16.798 C 10.228 17.302,10.022 17.349,9.596 17.076 C 9.277 16.872,7.157 14.761,6.940 14.431 C 6.590 13.897,6.701 13.663,7.856 12.489 L 8.457 11.877 10.288 13.708 L 12.120 15.539 11.630 16.032 " fill="#1C274C" stroke="none" fill-rule="evenodd"></path></svg>