<svg width="24" height="24" viewBox="0 0 24 24" fill="none" xmlns="http://www.w3.org/2000/svg"><path d="M11.310 1.283 C 6.653 1.563,2.667 4.904,1.564 9.450 C 1.162 11.110,1.162 12.890,1.564 14.550 C 2.415 18.060,5.032 20.948,8.442 22.139 C 10.725 22.937,13.275 22.937,15.558 22.139 C 18.633 21.065,21.092 18.592,22.157 15.503 C 22.819 13.585,22.918 11.437,22.436 9.450 C 21.419 5.255,17.924 2.044,13.657 1.383 C 13.303 1.328,12.042 1.231,11.880 1.246 C 11.847 1.249,11.590 1.266,11.310 1.283 M12.992 2.802 C 14.750 2.993,16.561 3.756,17.878 4.859 C 18.914 5.728,19.725 6.758,20.304 7.940 C 20.940 9.239,21.240 10.538,21.240 12.000 C 21.240 13.462,20.940 14.764,20.304 16.060 C 18.921 18.877,16.278 20.768,13.146 21.178 C 12.214 21.301,10.974 21.244,10.002 21.034 C 8.667 20.747,7.178 20.022,6.140 19.153 C 4.272 17.590,3.134 15.531,2.822 13.146 C 2.699 12.214,2.756 10.974,2.966 10.002 C 3.253 8.667,3.978 7.178,4.847 6.140 C 5.196 5.722,5.821 5.101,6.213 4.783 C 7.491 3.743,9.284 2.994,10.940 2.807 C 11.397 2.755,12.535 2.753,12.992 2.802 M11.500 5.282 C 9.760 5.403,8.095 6.232,6.934 7.556 C 6.448 8.110,5.997 8.838,5.757 9.455 L 5.646 9.740 5.193 9.761 C 4.715 9.782,4.643 9.805,4.475 9.987 C 4.316 10.158,4.269 10.276,4.269 10.499 C 4.269 10.727,4.339 10.889,4.506 11.047 C 4.657 11.190,4.801 11.240,5.059 11.240 L 5.273 11.240 5.273 12.000 L 5.273 12.760 5.059 12.760 C 4.801 12.760,4.657 12.810,4.506 12.953 C 4.339 13.111,4.269 13.273,4.269 13.501 C 4.269 13.724,4.316 13.842,4.475 14.013 C 4.643 14.195,4.715 14.218,5.193 14.239 L 5.646 14.260 5.757 14.545 C 6.539 16.558,8.467 18.161,10.636 18.600 C 12.138 18.904,13.714 18.694,15.051 18.012 C 15.524 17.771,15.646 17.651,15.720 17.356 C 15.812 16.990,15.581 16.599,15.206 16.487 C 14.981 16.419,14.861 16.447,14.377 16.682 C 13.485 17.113,12.792 17.262,11.828 17.228 C 10.986 17.199,10.413 17.060,9.708 16.716 C 9.288 16.511,9.155 16.429,8.780 16.138 C 8.282 15.752,7.801 15.213,7.497 14.700 C 7.384 14.511,7.280 14.298,7.280 14.258 C 7.280 14.248,7.927 14.240,8.717 14.240 C 9.636 14.240,10.195 14.225,10.267 14.197 C 10.540 14.095,10.731 13.807,10.731 13.500 C 10.731 13.193,10.540 12.905,10.267 12.803 C 10.194 12.775,9.567 12.760,8.482 12.760 L 6.810 12.760 6.785 12.635 C 6.753 12.473,6.753 11.527,6.785 11.365 L 6.810 11.240 8.482 11.240 C 9.567 11.240,10.194 11.225,10.267 11.197 C 10.540 11.095,10.731 10.807,10.731 10.500 C 10.731 10.193,10.540 9.905,10.267 9.803 C 10.195 9.775,9.636 9.760,8.717 9.760 C 7.927 9.760,7.280 9.749,7.280 9.736 C 7.280 9.687,7.483 9.309,7.619 9.104 C 7.964 8.584,8.585 7.963,9.107 7.617 C 9.399 7.424,9.958 7.152,10.320 7.028 C 10.823 6.857,11.192 6.794,11.828 6.772 C 12.785 6.738,13.491 6.889,14.374 7.317 C 14.862 7.553,14.981 7.581,15.206 7.513 C 15.581 7.401,15.812 7.010,15.720 6.644 C 15.649 6.362,15.522 6.230,15.124 6.024 C 13.990 5.439,12.790 5.193,11.500 5.282 " stroke="none" fill-rule="evenodd" fill="black"></path></svg>