<svg width="24" height="24" viewBox="0 0 24 24" fill="none" xmlns="http://www.w3.org/2000/svg"><path d="M10.611 1.281 C 9.462 1.402,8.712 2.092,8.439 3.280 C 8.391 3.489,8.346 3.680,8.339 3.704 C 8.331 3.735,7.908 3.755,6.974 3.772 C 6.229 3.784,5.458 3.816,5.260 3.842 C 3.980 4.008,3.203 4.477,2.747 5.355 C 2.423 5.981,2.330 6.497,2.280 7.960 C 2.230 9.381,2.230 14.619,2.280 16.040 C 2.301 16.670,2.344 17.294,2.380 17.500 C 2.625 18.918,3.319 19.705,4.620 20.039 C 5.110 20.166,5.586 20.204,6.974 20.228 C 7.905 20.245,8.331 20.266,8.339 20.296 C 8.346 20.320,8.391 20.511,8.439 20.720 C 8.567 21.279,8.787 21.707,9.113 22.034 C 9.786 22.711,10.630 22.866,12.307 22.623 C 13.867 22.398,17.674 21.710,18.560 21.495 C 19.834 21.185,20.727 20.588,21.160 19.756 C 21.712 18.695,21.758 18.097,21.758 12.000 C 21.758 7.850,21.720 6.278,21.604 5.600 C 21.405 4.441,20.959 3.693,20.149 3.159 C 19.354 2.635,18.739 2.476,15.000 1.825 C 12.861 1.452,12.158 1.343,11.500 1.281 C 11.023 1.237,11.035 1.237,10.611 1.281 M12.140 2.859 C 12.784 2.953,15.429 3.406,16.600 3.622 C 18.559 3.984,19.139 4.181,19.603 4.639 C 19.783 4.817,19.851 4.924,19.953 5.188 C 20.229 5.905,20.220 5.666,20.220 12.000 C 20.220 18.334,20.229 18.095,19.953 18.812 C 19.851 19.076,19.783 19.183,19.603 19.361 C 19.043 19.915,18.587 20.038,14.440 20.760 C 11.720 21.233,10.979 21.316,10.540 21.196 C 10.171 21.095,9.975 20.812,9.848 20.193 C 9.785 19.886,9.780 19.255,9.780 12.000 C 9.780 4.745,9.785 4.114,9.848 3.807 C 9.973 3.201,10.171 2.906,10.520 2.807 C 10.772 2.735,11.436 2.757,12.140 2.859 M8.242 12.000 L 8.242 18.740 7.651 18.752 C 6.869 18.768,5.451 18.695,5.100 18.620 C 4.302 18.450,3.989 18.091,3.831 17.160 C 3.757 16.725,3.757 7.275,3.831 6.840 C 4.065 5.466,4.574 5.241,7.411 5.256 L 8.242 5.260 8.242 12.000 M11.815 10.277 C 11.638 10.321,11.461 10.456,11.353 10.631 C 11.261 10.778,11.260 10.793,11.260 12.000 C 11.260 13.207,11.261 13.222,11.353 13.369 C 11.710 13.943,12.576 13.812,12.716 13.162 C 12.772 12.901,12.773 11.083,12.717 10.841 C 12.623 10.432,12.215 10.177,11.815 10.277 " stroke="none" fill-rule="evenodd" fill="black"></path></svg>