<svg width="24" height="24" viewBox="0 0 24 24" fill="none" xmlns="http://www.w3.org/2000/svg"><path d="M11.900 3.259 C 11.878 3.267,11.806 3.285,11.740 3.299 C 11.652 3.319,11.200 3.745,10.028 4.913 C 9.152 5.786,8.398 6.561,8.351 6.636 C 8.232 6.826,8.235 7.177,8.356 7.374 C 8.532 7.659,8.841 7.784,9.189 7.711 C 9.367 7.673,9.441 7.610,10.309 6.748 L 11.238 5.826 11.249 10.023 L 11.260 14.220 11.353 14.369 C 11.710 14.943,12.576 14.812,12.716 14.162 C 12.746 14.019,12.760 12.708,12.760 9.890 L 12.760 5.824 13.690 6.747 C 14.557 7.608,14.633 7.673,14.810 7.710 C 15.389 7.832,15.831 7.390,15.711 6.810 C 15.673 6.629,15.596 6.544,14.086 5.028 C 13.214 4.152,12.446 3.403,12.380 3.362 C 12.264 3.291,11.981 3.230,11.900 3.259 M3.815 11.278 C 3.639 11.320,3.462 11.455,3.353 11.631 C 3.266 11.770,3.261 11.815,3.271 12.300 C 3.311 14.217,4.054 16.140,5.349 17.680 C 6.683 19.266,8.641 20.341,10.780 20.661 C 11.376 20.751,12.624 20.751,13.220 20.661 C 14.802 20.424,16.246 19.798,17.484 18.811 C 18.913 17.672,19.997 15.997,20.461 14.213 C 20.672 13.399,20.797 12.220,20.713 11.826 C 20.607 11.327,19.989 11.095,19.566 11.396 C 19.321 11.570,19.274 11.707,19.237 12.352 C 19.132 14.208,18.415 15.821,17.118 17.118 C 16.078 18.158,14.816 18.832,13.353 19.128 C 12.960 19.208,12.780 19.220,12.000 19.220 C 11.216 19.220,11.041 19.208,10.640 19.127 C 9.183 18.832,7.922 18.158,6.882 17.118 C 5.591 15.827,4.872 14.220,4.763 12.376 C 4.725 11.749,4.672 11.578,4.464 11.422 C 4.350 11.336,4.076 11.235,3.980 11.244 C 3.958 11.246,3.884 11.262,3.815 11.278 " stroke="none" fill-rule="evenodd" fill="black"></path></svg>