<svg width="24" height="24" viewBox="0 0 24 24" fill="none" xmlns="http://www.w3.org/2000/svg"><path d="M11.320 1.281 C 7.041 1.525,3.252 4.409,1.843 8.497 C 1.180 10.418,1.082 12.560,1.564 14.550 C 2.505 18.428,5.572 21.495,9.450 22.436 C 11.106 22.837,12.894 22.837,14.550 22.436 C 18.428 21.495,21.495 18.428,22.436 14.550 C 22.837 12.894,22.837 11.106,22.436 9.450 C 21.425 5.282,17.985 2.095,13.742 1.398 C 13.334 1.331,12.074 1.229,11.880 1.247 C 11.847 1.250,11.595 1.265,11.320 1.281 M13.146 2.822 C 14.201 2.960,15.125 3.237,16.060 3.696 C 18.877 5.079,20.768 7.722,21.178 10.854 C 21.301 11.786,21.244 13.026,21.034 13.998 C 20.745 15.343,20.003 16.855,19.121 17.900 C 18.247 18.935,17.240 19.726,16.060 20.304 C 14.761 20.940,13.462 21.240,12.000 21.240 C 10.538 21.240,9.236 20.940,7.940 20.304 C 5.123 18.921,3.232 16.278,2.822 13.146 C 2.699 12.214,2.756 10.974,2.966 10.002 C 3.177 9.020,3.703 7.775,4.268 6.920 C 5.750 4.677,8.131 3.188,10.820 2.823 C 11.380 2.746,12.569 2.746,13.146 2.822 M8.767 9.043 C 8.694 9.066,8.553 9.165,8.454 9.264 C 7.856 9.862,7.861 11.143,8.463 11.745 C 8.950 12.232,9.595 11.972,9.889 11.169 C 9.955 10.988,9.973 10.847,9.973 10.500 C 9.973 10.005,9.901 9.741,9.680 9.419 C 9.453 9.091,9.096 8.944,8.767 9.043 M14.767 9.043 C 14.694 9.066,14.553 9.165,14.454 9.264 C 13.856 9.862,13.861 11.143,14.463 11.745 C 14.950 12.232,15.595 11.972,15.889 11.169 C 15.955 10.988,15.973 10.847,15.973 10.500 C 15.973 10.005,15.901 9.741,15.680 9.419 C 15.453 9.091,15.096 8.944,14.767 9.043 M8.815 15.278 C 8.331 15.393,8.098 16.004,8.383 16.408 C 8.447 16.499,8.572 16.610,8.660 16.656 C 8.818 16.739,8.865 16.740,11.878 16.751 C 14.020 16.759,15.000 16.749,15.151 16.718 C 15.902 16.562,15.931 15.473,15.189 15.286 C 14.979 15.234,9.033 15.226,8.815 15.278 " stroke="none" fill-rule="evenodd" fill="black"></path></svg>