<svg width="24" height="24" viewBox="0 0 24 24" fill="none" xmlns="http://www.w3.org/2000/svg"><path d="M11.340 3.284 C 8.745 3.432,6.341 4.523,4.243 6.506 C 3.534 7.176,2.442 8.488,1.968 9.241 C 1.468 10.037,1.273 10.809,1.273 12.000 C 1.273 13.191,1.468 13.963,1.968 14.759 C 2.425 15.485,3.525 16.814,4.193 17.448 C 6.677 19.804,9.483 20.891,12.630 20.716 C 15.255 20.570,17.646 19.489,19.757 17.494 C 20.466 16.824,21.558 15.512,22.032 14.759 C 22.532 13.963,22.727 13.191,22.727 12.000 C 22.727 10.809,22.532 10.037,22.032 9.241 C 21.575 8.515,20.482 7.195,19.806 6.552 C 17.334 4.201,14.491 3.104,11.340 3.284 M12.992 4.802 C 15.802 5.107,18.248 6.649,20.318 9.420 C 20.833 10.110,20.974 10.353,21.105 10.781 C 21.208 11.120,21.214 11.185,21.217 11.960 C 21.221 13.161,21.131 13.462,20.503 14.340 C 18.659 16.920,16.352 18.561,13.871 19.057 C 13.196 19.192,12.708 19.240,12.000 19.240 C 11.292 19.240,10.804 19.192,10.129 19.057 C 7.646 18.561,5.348 16.926,3.496 14.340 C 2.862 13.454,2.730 12.989,2.773 11.787 C 2.808 10.787,2.914 10.475,3.497 9.660 C 5.541 6.800,8.108 5.130,10.960 4.805 C 11.397 4.755,12.542 4.753,12.992 4.802 M11.760 8.268 C 10.880 8.329,10.052 8.691,9.406 9.297 C 8.884 9.787,8.454 10.588,8.319 11.320 C 8.257 11.654,8.257 12.346,8.319 12.680 C 8.459 13.440,8.898 14.240,9.454 14.747 C 9.871 15.129,10.516 15.486,11.025 15.617 C 11.619 15.770,12.381 15.770,12.975 15.617 C 13.484 15.486,14.129 15.129,14.546 14.747 C 15.102 14.240,15.541 13.440,15.681 12.680 C 15.743 12.346,15.743 11.654,15.681 11.320 C 15.546 10.588,15.116 9.787,14.594 9.297 C 13.832 8.582,12.776 8.198,11.760 8.268 M12.578 9.821 C 12.949 9.918,13.274 10.112,13.581 10.419 C 14.041 10.879,14.240 11.356,14.240 12.000 C 14.240 12.644,14.041 13.121,13.581 13.581 C 13.121 14.041,12.644 14.240,12.000 14.240 C 11.356 14.240,10.879 14.041,10.419 13.581 C 9.959 13.121,9.760 12.644,9.760 12.000 C 9.760 11.356,9.959 10.879,10.419 10.419 C 10.719 10.118,11.050 9.919,11.404 9.823 C 11.692 9.746,12.285 9.745,12.578 9.821 " stroke="none" fill-rule="evenodd" fill="black"></path></svg>