<svg width="24" height="24" viewBox="0 0 24 24" fill="none" xmlns="http://www.w3.org/2000/svg"><path d="M1.811 6.278 C 1.638 6.320,1.416 6.494,1.332 6.652 C 1.292 6.728,1.264 6.870,1.264 7.000 C 1.264 7.193,1.297 7.285,1.533 7.746 C 2.046 8.748,2.805 9.857,3.580 10.734 L 3.928 11.128 3.405 11.656 C 3.104 11.960,2.857 12.246,2.821 12.331 C 2.612 12.832,2.941 13.342,3.491 13.368 C 3.508 13.369,3.597 13.358,3.690 13.343 C 3.839 13.319,3.922 13.252,4.441 12.737 L 5.025 12.158 5.356 12.420 C 5.808 12.775,6.442 13.195,6.903 13.443 C 7.122 13.562,7.277 13.670,7.267 13.696 C 7.257 13.722,7.055 14.040,6.818 14.402 C 6.205 15.340,6.164 15.452,6.316 15.780 C 6.554 16.295,7.168 16.403,7.544 15.995 C 7.613 15.921,7.898 15.504,8.179 15.069 C 8.460 14.634,8.702 14.271,8.716 14.263 C 8.730 14.254,8.894 14.291,9.081 14.345 C 9.559 14.484,10.306 14.631,10.810 14.686 L 11.240 14.733 11.240 15.679 C 11.240 16.606,11.242 16.628,11.339 16.822 C 11.629 17.398,12.416 17.374,12.685 16.780 C 12.749 16.640,12.758 16.503,12.759 15.677 L 12.760 14.734 13.190 14.685 C 13.710 14.626,14.458 14.479,14.919 14.345 C 15.106 14.291,15.270 14.254,15.284 14.263 C 15.298 14.271,15.540 14.634,15.821 15.069 C 16.102 15.504,16.387 15.921,16.456 15.995 C 16.832 16.403,17.446 16.295,17.684 15.780 C 17.836 15.452,17.795 15.340,17.182 14.402 C 16.945 14.040,16.743 13.722,16.733 13.697 C 16.723 13.670,16.868 13.568,17.068 13.460 C 17.515 13.219,18.202 12.765,18.638 12.423 L 18.976 12.157 19.544 12.724 C 20.044 13.223,20.134 13.296,20.304 13.339 C 20.760 13.455,21.188 13.170,21.231 12.723 C 21.263 12.383,21.195 12.268,20.610 11.673 L 20.071 11.126 20.367 10.793 C 21.200 9.856,21.928 8.799,22.469 7.742 C 22.702 7.288,22.736 7.191,22.737 7.000 C 22.739 6.729,22.642 6.548,22.409 6.384 C 22.269 6.285,22.204 6.267,22.000 6.267 C 21.602 6.267,21.487 6.375,21.108 7.101 C 20.476 8.312,19.740 9.306,18.723 10.322 C 17.766 11.278,16.986 11.842,15.900 12.363 C 14.702 12.938,13.647 13.191,12.293 13.229 C 10.669 13.274,9.332 12.986,7.944 12.291 C 5.936 11.287,4.086 9.385,2.891 7.098 C 2.635 6.607,2.552 6.483,2.420 6.394 C 2.243 6.274,2.009 6.230,1.811 6.278 " fill="#1C274C" stroke="none" fill-rule="evenodd"></path></svg>