<svg width="24" height="24" viewBox="0 0 24 24" fill="none" xmlns="http://www.w3.org/2000/svg"><path d="M8.960 1.280 C 6.960 1.332,5.848 1.469,4.900 1.779 C 3.060 2.382,1.958 3.688,1.563 5.734 C 1.311 7.042,1.267 7.973,1.267 12.000 C 1.267 16.027,1.311 16.958,1.563 18.266 C 2.013 20.599,3.401 21.987,5.734 22.437 C 7.034 22.688,7.987 22.733,12.000 22.733 C 16.013 22.733,16.966 22.688,18.266 22.437 C 20.599 21.987,21.987 20.599,22.437 18.266 C 22.688 16.966,22.733 16.013,22.733 12.000 C 22.733 7.987,22.688 7.034,22.437 5.734 C 22.098 3.977,21.228 2.756,19.825 2.068 C 18.978 1.652,17.875 1.425,16.200 1.321 C 15.315 1.266,10.534 1.239,8.960 1.280 M16.787 2.853 C 17.971 2.982,18.589 3.129,19.180 3.421 C 20.352 3.999,20.906 5.018,21.117 6.980 C 21.202 7.766,21.238 8.846,21.239 10.560 L 21.240 12.300 19.113 13.244 L 16.987 14.188 15.703 13.673 C 14.998 13.390,14.249 13.097,14.040 13.022 C 12.627 12.514,11.373 12.514,9.960 13.022 C 9.751 13.097,9.002 13.390,8.297 13.673 L 7.013 14.188 4.883 13.244 L 2.752 12.300 2.772 10.080 C 2.793 7.682,2.837 6.974,3.021 6.053 C 3.208 5.125,3.509 4.494,4.001 4.001 C 4.665 3.338,5.593 3.009,7.220 2.862 C 8.207 2.772,8.227 2.772,12.400 2.782 C 15.524 2.790,16.323 2.803,16.787 2.853 M8.767 9.043 C 8.694 9.066,8.553 9.165,8.454 9.264 C 7.856 9.862,7.861 11.143,8.463 11.745 C 8.950 12.232,9.595 11.972,9.889 11.169 C 9.955 10.988,9.973 10.847,9.973 10.500 C 9.973 10.005,9.901 9.741,9.680 9.419 C 9.453 9.091,9.096 8.944,8.767 9.043 M14.767 9.043 C 14.694 9.066,14.553 9.165,14.454 9.264 C 13.856 9.862,13.861 11.143,14.463 11.745 C 14.950 12.232,15.595 11.972,15.889 11.169 C 15.955 10.988,15.973 10.847,15.973 10.500 C 15.973 10.005,15.901 9.741,15.680 9.419 C 15.453 9.091,15.096 8.944,14.767 9.043 M4.580 14.740 C 5.504 15.151,6.267 15.494,6.275 15.502 C 6.283 15.510,6.331 16.061,6.382 16.728 C 6.433 17.395,6.484 18.042,6.496 18.166 L 6.518 18.392 5.109 18.996 C 4.334 19.328,3.687 19.600,3.672 19.600 C 3.657 19.600,3.579 19.485,3.500 19.343 C 3.032 18.506,2.825 17.285,2.773 15.044 C 2.748 13.976,2.749 13.948,2.823 13.969 C 2.866 13.981,3.656 14.328,4.580 14.740 M21.239 14.570 C 21.238 15.268,21.180 16.433,21.117 17.020 C 21.018 17.940,20.854 18.616,20.600 19.140 C 20.336 19.687,20.541 19.704,18.905 19.002 L 17.479 18.390 17.502 18.145 C 17.515 18.010,17.566 17.361,17.617 16.702 C 17.667 16.043,17.724 15.498,17.744 15.490 C 17.764 15.482,18.536 15.136,19.460 14.722 C 20.384 14.307,21.163 13.966,21.190 13.964 C 21.228 13.961,21.240 14.106,21.239 14.570 M12.860 14.226 C 13.079 14.267,13.655 14.474,14.690 14.886 L 16.200 15.487 16.198 15.633 C 16.192 16.024,15.773 21.160,15.745 21.188 C 15.704 21.230,8.775 21.251,8.460 21.211 L 8.221 21.180 8.013 18.500 C 7.898 17.026,7.804 15.745,7.802 15.653 L 7.800 15.487 9.310 14.886 C 10.784 14.299,11.079 14.206,11.660 14.146 C 11.906 14.120,12.505 14.160,12.860 14.226 M6.655 20.290 C 6.670 20.450,6.692 20.695,6.706 20.834 L 6.730 21.089 6.515 21.061 C 6.012 20.994,5.110 20.761,5.063 20.685 C 5.044 20.655,6.483 20.009,6.585 20.003 C 6.612 20.001,6.640 20.115,6.655 20.290 M18.189 20.325 C 18.612 20.505,18.948 20.667,18.937 20.685 C 18.890 20.761,17.989 20.994,17.485 21.061 L 17.270 21.089 17.293 20.834 C 17.306 20.695,17.329 20.450,17.343 20.290 C 17.357 20.131,17.380 20.000,17.394 19.999 C 17.408 19.999,17.766 20.145,18.189 20.325 " stroke="none" fill-rule="evenodd" fill="black"></path></svg>