<svg width="24" height="24" viewBox="0 0 24 24" fill="none" xmlns="http://www.w3.org/2000/svg"><path d="M9.340 1.598 C 9.010 1.683,8.614 1.797,8.460 1.852 C 6.942 2.388,5.609 3.224,4.446 4.372 C 3.009 5.789,2.043 7.500,1.560 9.480 C 1.451 9.927,1.443 10.001,1.484 10.175 C 1.599 10.661,2.114 10.872,2.587 10.627 C 2.787 10.523,2.877 10.354,3.001 9.848 C 3.346 8.442,3.942 7.242,4.841 6.140 C 5.108 5.813,5.883 5.042,6.200 4.789 C 7.267 3.936,8.517 3.320,9.798 3.015 C 10.304 2.895,10.456 2.827,10.579 2.664 C 10.857 2.296,10.754 1.759,10.367 1.565 C 10.098 1.430,9.979 1.433,9.340 1.598 M13.860 1.477 C 13.544 1.554,13.364 1.727,13.283 2.030 C 13.199 2.340,13.368 2.719,13.650 2.852 C 13.723 2.887,13.972 2.961,14.202 3.015 C 15.479 3.319,16.743 3.942,17.800 4.789 C 18.112 5.040,18.842 5.766,19.138 6.120 C 20.031 7.190,20.652 8.435,20.999 9.848 C 21.123 10.354,21.213 10.523,21.413 10.627 C 21.886 10.872,22.401 10.661,22.516 10.175 C 22.558 9.998,22.549 9.928,22.423 9.420 C 21.944 7.491,21.029 5.864,19.628 4.447 C 18.212 3.015,16.534 2.061,14.582 1.578 C 14.275 1.502,14.014 1.442,14.002 1.444 C 13.990 1.446,13.926 1.461,13.860 1.477 M8.767 9.043 C 8.694 9.066,8.553 9.165,8.454 9.264 C 7.856 9.862,7.861 11.143,8.463 11.745 C 8.950 12.232,9.595 11.972,9.889 11.169 C 9.955 10.988,9.973 10.847,9.973 10.500 C 9.973 10.005,9.901 9.741,9.680 9.419 C 9.453 9.091,9.096 8.944,8.767 9.043 M14.767 9.043 C 14.694 9.066,14.553 9.165,14.454 9.264 C 13.856 9.862,13.861 11.143,14.463 11.745 C 14.950 12.232,15.595 11.972,15.889 11.169 C 15.955 10.988,15.973 10.847,15.973 10.500 C 15.973 10.005,15.901 9.741,15.680 9.419 C 15.453 9.091,15.096 8.944,14.767 9.043 M1.985 13.289 C 1.762 13.348,1.541 13.584,1.484 13.825 C 1.442 14.002,1.451 14.072,1.577 14.580 C 2.056 16.509,2.971 18.136,4.372 19.553 C 5.794 20.992,7.510 21.962,9.473 22.437 C 9.994 22.564,10.110 22.563,10.367 22.435 C 10.754 22.241,10.857 21.704,10.579 21.336 C 10.456 21.173,10.304 21.105,9.798 20.985 C 8.508 20.678,7.205 20.032,6.180 19.191 C 5.837 18.910,5.156 18.231,4.862 17.880 C 3.969 16.810,3.348 15.565,3.001 14.152 C 2.938 13.892,2.847 13.626,2.799 13.559 C 2.639 13.334,2.274 13.213,1.985 13.289 M21.660 13.277 C 21.464 13.325,21.292 13.431,21.200 13.559 C 21.153 13.626,21.062 13.892,20.999 14.152 C 20.652 15.565,20.031 16.810,19.138 17.880 C 18.844 18.231,18.163 18.910,17.820 19.191 C 16.795 20.032,15.492 20.678,14.202 20.985 C 13.696 21.105,13.544 21.173,13.421 21.336 C 13.143 21.704,13.246 22.241,13.633 22.435 C 13.903 22.570,14.006 22.567,14.650 22.404 C 16.522 21.932,18.164 21.001,19.553 19.628 C 20.960 18.236,21.923 16.554,22.407 14.640 C 22.581 13.952,22.577 13.796,22.379 13.536 C 22.226 13.334,21.901 13.217,21.660 13.277 M8.811 15.278 C 8.487 15.357,8.263 15.667,8.267 16.030 C 8.270 16.322,8.394 16.493,8.805 16.768 C 9.788 17.424,10.797 17.728,12.000 17.728 C 12.687 17.728,13.202 17.650,13.799 17.454 C 14.520 17.219,15.462 16.669,15.641 16.378 C 15.834 16.066,15.726 15.609,15.408 15.383 C 15.270 15.286,15.203 15.267,15.005 15.267 C 14.782 15.267,14.745 15.282,14.386 15.514 C 13.953 15.795,13.493 16.003,13.023 16.131 C 12.747 16.206,12.597 16.219,12.000 16.219 C 11.403 16.219,11.253 16.206,10.977 16.131 C 10.502 16.002,10.064 15.805,9.637 15.531 C 9.243 15.277,9.053 15.219,8.811 15.278 " stroke="none" fill-rule="evenodd" fill="black"></path></svg>