<svg width="24" height="24" viewBox="0 0 24 24" fill="none" xmlns="http://www.w3.org/2000/svg"><path d="M11.320 1.281 C 7.041 1.525,3.252 4.409,1.843 8.497 C 1.180 10.418,1.082 12.560,1.564 14.550 C 2.505 18.428,5.572 21.495,9.450 22.436 C 11.106 22.837,12.894 22.837,14.550 22.436 C 18.428 21.495,21.495 18.428,22.436 14.550 C 22.837 12.894,22.837 11.106,22.436 9.450 C 21.425 5.282,17.985 2.095,13.742 1.398 C 13.334 1.331,12.074 1.229,11.880 1.247 C 11.847 1.250,11.595 1.265,11.320 1.281 M13.146 2.822 C 14.201 2.960,15.125 3.237,16.060 3.696 C 17.276 4.293,18.254 5.066,19.153 6.140 C 20.438 7.676,21.241 9.857,21.240 11.812 L 21.240 12.300 19.113 13.244 L 16.987 14.188 15.703 13.673 C 14.998 13.390,14.249 13.097,14.040 13.022 C 12.627 12.514,11.373 12.514,9.960 13.022 C 9.751 13.097,9.002 13.390,8.297 13.673 L 7.013 14.188 4.887 13.244 L 2.760 12.300 2.760 11.812 C 2.759 9.857,3.562 7.676,4.847 6.140 C 6.399 4.286,8.454 3.144,10.820 2.823 C 11.380 2.746,12.569 2.746,13.146 2.822 M8.767 9.043 C 8.694 9.066,8.553 9.165,8.454 9.264 C 7.856 9.862,7.861 11.143,8.463 11.745 C 8.950 12.232,9.595 11.972,9.889 11.169 C 9.955 10.988,9.973 10.847,9.973 10.500 C 9.973 10.005,9.901 9.741,9.680 9.419 C 9.453 9.091,9.096 8.944,8.767 9.043 M14.767 9.043 C 14.694 9.066,14.553 9.165,14.454 9.264 C 13.856 9.862,13.861 11.143,14.463 11.745 C 14.950 12.232,15.595 11.972,15.889 11.169 C 15.955 10.988,15.973 10.847,15.973 10.500 C 15.973 10.005,15.901 9.741,15.680 9.419 C 15.453 9.091,15.096 8.944,14.767 9.043 M4.660 14.775 L 6.300 15.506 6.481 17.513 C 6.585 18.658,6.647 19.520,6.625 19.520 C 6.560 19.520,5.874 18.941,5.504 18.573 C 4.324 17.403,3.502 15.998,3.065 14.404 C 3.010 14.204,2.978 14.041,2.993 14.042 C 3.008 14.043,3.758 14.373,4.660 14.775 M20.935 14.404 C 20.767 15.016,20.608 15.433,20.299 16.066 C 19.772 17.149,19.170 17.949,18.204 18.849 C 17.876 19.155,17.419 19.520,17.365 19.520 C 17.350 19.520,17.419 18.617,17.519 17.513 L 17.700 15.506 19.340 14.775 C 20.242 14.373,20.992 14.043,21.007 14.042 C 21.022 14.041,20.990 14.204,20.935 14.404 M12.860 14.226 C 13.248 14.298,16.200 15.457,16.200 15.538 C 16.200 15.566,16.101 16.676,15.980 18.005 C 15.792 20.061,15.750 20.427,15.692 20.470 C 15.470 20.634,14.312 20.987,13.540 21.126 C 13.085 21.207,12.893 21.219,12.000 21.219 C 11.107 21.219,10.915 21.207,10.460 21.126 C 9.688 20.987,8.530 20.634,8.308 20.470 C 8.250 20.427,8.208 20.061,8.020 18.005 C 7.899 16.676,7.800 15.566,7.800 15.538 C 7.800 15.508,8.419 15.240,9.310 14.886 C 10.784 14.299,11.079 14.206,11.660 14.146 C 11.906 14.120,12.505 14.160,12.860 14.226 " stroke="none" fill-rule="evenodd" fill="black"></path></svg>