<svg width="24" height="24" viewBox="0 0 24 24" fill="none" xmlns="http://www.w3.org/2000/svg"><path d="M8.420 1.282 C 5.817 1.355,4.631 1.693,3.669 2.635 C 2.916 3.371,2.533 4.339,2.360 5.940 C 2.199 7.424,2.199 16.576,2.360 18.060 C 2.531 19.644,2.894 20.574,3.635 21.331 C 4.353 22.065,5.272 22.441,6.787 22.621 C 8.331 22.804,15.669 22.804,17.213 22.621 C 18.132 22.512,18.808 22.337,19.332 22.075 C 20.288 21.595,20.952 20.821,21.302 19.779 C 21.682 18.646,21.758 17.355,21.758 12.000 C 21.758 6.645,21.682 5.354,21.302 4.221 C 20.886 2.984,20.016 2.114,18.779 1.698 C 18.005 1.439,17.137 1.331,15.400 1.280 C 13.929 1.237,9.985 1.238,8.420 1.282 M16.340 2.801 C 17.245 2.860,17.701 2.931,18.200 3.089 C 19.552 3.517,20.050 4.407,20.198 6.659 C 20.254 7.516,20.254 16.484,20.198 17.341 C 20.047 19.644,19.533 20.523,18.099 20.939 C 17.184 21.204,16.460 21.240,12.000 21.240 C 7.540 21.240,6.816 21.204,5.901 20.939 C 4.569 20.553,4.033 19.751,3.833 17.840 C 3.756 17.116,3.756 6.884,3.833 6.160 C 4.051 4.077,4.679 3.278,6.360 2.944 C 6.628 2.891,7.303 2.820,7.860 2.786 C 8.405 2.754,15.815 2.766,16.340 2.801 M6.815 5.278 C 6.331 5.393,6.098 6.004,6.383 6.408 C 6.447 6.499,6.572 6.610,6.660 6.656 C 6.817 6.738,6.873 6.740,9.377 6.751 C 11.157 6.759,11.999 6.749,12.150 6.718 C 12.902 6.562,12.931 5.473,12.189 5.286 C 11.980 5.234,7.032 5.226,6.815 5.278 M7.780 8.280 C 7.204 8.312,6.952 8.354,6.640 8.470 C 5.881 8.754,5.475 9.302,5.314 10.260 C 5.236 10.726,5.236 17.274,5.314 17.740 C 5.513 18.926,6.093 19.499,7.280 19.686 C 7.777 19.765,16.223 19.765,16.720 19.686 C 17.907 19.499,18.487 18.925,18.686 17.740 C 18.764 17.275,18.764 10.725,18.686 10.260 C 18.495 9.121,17.957 8.553,16.860 8.334 C 16.582 8.279,16.005 8.269,12.440 8.260 C 10.185 8.254,8.088 8.263,7.780 8.280 M16.775 9.834 C 16.860 9.863,16.972 9.928,17.022 9.979 C 17.220 10.177,17.220 10.171,17.220 14.000 C 17.220 17.831,17.220 17.823,17.022 18.022 C 16.820 18.223,16.904 18.220,12.000 18.220 C 7.098 18.220,7.180 18.223,6.979 18.022 C 6.783 17.826,6.784 17.845,6.770 14.180 C 6.757 10.704,6.769 10.334,6.902 10.077 C 6.975 9.935,7.131 9.851,7.408 9.804 C 7.526 9.784,9.615 9.771,12.120 9.775 C 15.701 9.781,16.652 9.793,16.775 9.834 " stroke="none" fill-rule="evenodd" fill="black"></path></svg>