<svg width="24" height="24" viewBox="0 0 24 24" fill="none" xmlns="http://www.w3.org/2000/svg"><path d="M11.527 1.822 C 10.999 1.965,10.531 2.410,10.345 2.947 C 10.303 3.068,10.120 3.175,7.806 4.437 C 6.435 5.184,5.288 5.816,5.258 5.842 C 5.216 5.876,5.137 5.871,4.931 5.819 C 3.873 5.552,2.855 6.288,2.772 7.380 C 2.733 7.886,2.889 8.312,3.259 8.712 L 3.479 8.950 3.481 11.759 L 3.482 14.569 3.287 14.761 C 3.044 15.000,2.899 15.244,2.820 15.545 C 2.503 16.765,3.505 17.888,4.757 17.715 C 5.016 17.679,5.399 17.529,5.525 17.415 C 5.587 17.359,5.648 17.384,6.206 17.693 C 6.565 17.891,6.815 18.052,6.808 18.082 C 6.801 18.110,6.344 18.944,5.793 19.936 C 5.166 21.063,4.783 21.795,4.770 21.887 C 4.739 22.115,4.792 22.308,4.928 22.463 C 5.234 22.811,5.693 22.839,6.001 22.526 C 6.089 22.437,6.526 21.691,7.118 20.620 C 7.654 19.652,8.112 18.839,8.136 18.813 C 8.169 18.777,8.440 18.908,9.240 19.343 C 10.200 19.867,10.303 19.933,10.345 20.053 C 10.477 20.436,10.783 20.809,11.133 21.014 C 11.636 21.309,12.364 21.309,12.867 21.014 C 13.217 20.809,13.523 20.436,13.655 20.053 C 13.697 19.933,13.800 19.867,14.760 19.343 C 15.561 18.907,15.831 18.777,15.864 18.813 C 15.889 18.839,16.354 19.666,16.900 20.651 C 17.571 21.864,17.934 22.479,18.025 22.559 C 18.537 23.009,19.322 22.571,19.230 21.887 C 19.217 21.795,18.834 21.063,18.207 19.936 C 17.656 18.944,17.199 18.110,17.192 18.082 C 17.185 18.052,17.435 17.891,17.794 17.693 C 18.352 17.384,18.413 17.359,18.475 17.415 C 18.601 17.529,18.981 17.678,19.241 17.714 C 20.493 17.889,21.497 16.765,21.180 15.545 C 21.101 15.244,20.956 15.000,20.713 14.761 L 20.518 14.569 20.519 11.759 L 20.521 8.950 20.741 8.712 C 21.111 8.312,21.267 7.886,21.228 7.380 C 21.145 6.288,20.127 5.552,19.069 5.819 C 18.863 5.871,18.784 5.876,18.742 5.842 C 18.712 5.816,17.565 5.184,16.194 4.437 C 13.880 3.175,13.697 3.068,13.655 2.947 C 13.523 2.564,13.216 2.191,12.867 1.986 C 12.499 1.771,11.964 1.705,11.527 1.822 M10.802 4.758 C 11.467 5.402,12.534 5.401,13.200 4.755 L 13.365 4.596 15.574 5.800 L 17.783 7.005 17.783 7.453 C 17.783 7.823,17.799 7.939,17.873 8.126 C 18.045 8.559,18.450 8.969,18.843 9.109 L 19.040 9.179 19.040 11.740 L 19.040 14.302 18.783 14.414 C 18.466 14.552,18.106 14.896,17.946 15.212 C 17.884 15.334,17.811 15.566,17.784 15.727 L 17.735 16.020 17.085 16.374 C 16.728 16.569,16.429 16.722,16.422 16.714 C 16.361 16.650,14.200 12.711,14.200 12.665 C 14.200 12.632,14.218 12.594,14.239 12.581 C 14.327 12.526,14.561 12.039,14.643 11.740 C 14.820 11.093,14.733 10.257,14.432 9.720 C 13.906 8.781,13.047 8.269,12.000 8.269 C 10.953 8.269,10.094 8.781,9.568 9.720 C 9.267 10.257,9.180 11.093,9.357 11.740 C 9.439 12.039,9.673 12.526,9.761 12.581 C 9.782 12.594,9.800 12.632,9.800 12.665 C 9.800 12.711,7.639 16.650,7.578 16.714 C 7.571 16.722,7.272 16.569,6.915 16.374 L 6.265 16.020 6.216 15.727 C 6.189 15.566,6.116 15.334,6.054 15.212 C 5.894 14.896,5.534 14.552,5.217 14.414 L 4.960 14.302 4.960 11.740 L 4.960 9.179 5.153 9.110 C 5.548 8.970,5.955 8.560,6.126 8.130 C 6.202 7.939,6.217 7.825,6.217 7.453 L 6.217 7.005 8.418 5.803 C 9.629 5.142,10.624 4.601,10.630 4.601 C 10.635 4.600,10.713 4.671,10.802 4.758 M12.454 9.841 C 12.744 9.950,13.050 10.256,13.159 10.546 C 13.335 11.017,13.227 11.521,12.874 11.874 C 12.381 12.368,11.619 12.368,11.126 11.874 C 10.847 11.596,10.746 11.325,10.769 10.920 C 10.790 10.567,10.876 10.373,11.124 10.125 C 11.397 9.853,11.597 9.769,11.988 9.763 C 12.148 9.761,12.315 9.789,12.454 9.841 M11.334 13.664 C 11.673 13.753,12.305 13.752,12.673 13.662 C 12.833 13.623,12.970 13.597,12.978 13.605 C 12.985 13.613,13.469 14.480,14.053 15.531 C 15.098 17.411,15.113 17.443,15.027 17.496 C 14.979 17.526,14.586 17.742,14.152 17.977 L 13.365 18.405 13.200 18.245 C 12.982 18.033,12.738 17.894,12.455 17.820 C 11.852 17.663,11.236 17.821,10.800 18.245 L 10.635 18.405 9.848 17.977 C 9.414 17.742,9.021 17.526,8.973 17.496 C 8.887 17.443,8.903 17.411,9.953 15.521 C 10.540 14.464,11.035 13.600,11.054 13.600 C 11.073 13.600,11.199 13.629,11.334 13.664 " stroke="none" fill-rule="evenodd" fill="black"></path></svg>