<svg width="24" height="24" viewBox="0 0 24 24" fill="none" xmlns="http://www.w3.org/2000/svg"><path d="M8.251 1.283 C 6.548 1.447,5.161 2.657,4.700 4.380 C 4.610 4.717,4.577 5.563,4.638 5.949 C 4.698 6.320,4.851 6.824,4.989 7.100 C 5.254 7.630,5.775 8.270,6.190 8.574 L 6.320 8.669 6.160 8.780 C 6.072 8.841,5.878 9.019,5.730 9.176 C 4.216 10.772,4.216 13.228,5.730 14.824 C 5.878 14.981,6.072 15.159,6.160 15.220 L 6.320 15.331 6.190 15.426 C 5.775 15.730,5.254 16.370,4.989 16.900 C 4.851 17.176,4.698 17.680,4.638 18.051 C 4.577 18.437,4.610 19.283,4.700 19.620 C 5.349 22.046,7.768 23.320,10.120 22.474 C 11.149 22.104,12.104 21.149,12.474 20.120 C 12.726 19.420,12.760 19.037,12.760 16.890 C 12.760 15.960,12.766 15.200,12.773 15.200 C 12.780 15.200,12.934 15.297,13.115 15.417 C 13.892 15.928,14.948 16.170,15.844 16.043 C 17.851 15.759,19.303 14.183,19.390 12.195 C 19.431 11.272,19.215 10.484,18.712 9.720 C 18.512 9.417,18.069 8.939,17.842 8.781 L 17.684 8.672 17.872 8.523 C 18.539 7.994,19.045 7.212,19.289 6.330 C 19.406 5.909,19.416 4.800,19.307 4.400 C 18.821 2.620,17.471 1.453,15.698 1.281 C 15.224 1.235,8.730 1.236,8.251 1.283 M11.240 5.340 L 11.240 7.920 9.810 7.919 C 8.202 7.919,8.036 7.899,7.527 7.656 C 7.091 7.447,6.553 6.909,6.344 6.473 C 5.720 5.168,6.248 3.648,7.549 3.002 C 7.997 2.780,8.119 2.767,9.750 2.763 L 11.240 2.760 11.240 5.340 M15.952 2.821 C 16.883 3.040,17.660 3.845,17.864 4.801 C 17.990 5.391,17.876 6.115,17.578 6.629 C 17.425 6.892,16.931 7.392,16.666 7.553 C 16.545 7.626,16.315 7.734,16.153 7.792 L 15.860 7.899 14.310 7.912 L 12.760 7.926 12.760 5.343 L 12.760 2.760 14.230 2.761 C 15.390 2.761,15.753 2.774,15.952 2.821 M11.240 12.000 L 11.240 14.560 9.736 14.560 C 8.055 14.560,7.963 14.549,7.460 14.288 C 7.075 14.088,6.546 13.557,6.373 13.198 C 6.155 12.745,6.101 12.508,6.101 12.000 C 6.101 11.492,6.155 11.255,6.373 10.802 C 6.539 10.456,7.074 9.915,7.440 9.721 C 7.946 9.454,8.010 9.446,9.710 9.443 L 11.240 9.440 11.240 12.000 M16.014 9.503 C 16.438 9.613,16.786 9.824,17.160 10.199 C 17.698 10.737,17.899 11.227,17.899 12.000 C 17.899 12.508,17.845 12.745,17.627 13.198 C 17.454 13.557,16.925 14.088,16.540 14.288 C 15.711 14.718,14.697 14.675,13.939 14.176 C 13.482 13.876,13.058 13.337,12.878 12.827 C 12.757 12.484,12.725 11.760,12.816 11.399 C 13.036 10.522,13.711 9.804,14.580 9.522 C 14.893 9.421,15.655 9.411,16.014 9.503 M11.240 17.554 C 11.240 19.221,11.216 19.408,10.934 19.916 C 10.744 20.258,10.258 20.744,9.916 20.934 C 9.222 21.319,8.249 21.345,7.548 20.997 C 6.248 20.352,5.720 18.831,6.344 17.527 C 6.553 17.091,7.091 16.553,7.529 16.343 C 8.032 16.102,8.169 16.087,9.790 16.083 L 11.240 16.080 11.240 17.554 " stroke="none" fill-rule="evenodd" fill="black"></path></svg>