<svg width="24" height="24" viewBox="0 0 24 24" fill="none" xmlns="http://www.w3.org/2000/svg"><path d="M7.380 1.279 C 4.740 1.363,3.544 1.720,2.595 2.706 C 1.716 3.620,1.383 4.740,1.280 7.130 C 1.229 8.300,1.230 15.720,1.281 16.900 C 1.382 19.240,1.718 20.378,2.575 21.273 C 3.521 22.261,4.624 22.612,7.130 22.720 C 8.285 22.770,15.715 22.770,16.870 22.720 C 18.396 22.654,19.266 22.514,20.060 22.205 C 20.987 21.845,21.847 20.986,22.204 20.064 C 22.642 18.934,22.758 17.676,22.759 14.080 C 22.759 11.540,22.702 10.832,22.439 10.110 C 22.208 9.478,21.868 8.987,21.183 8.297 C 20.731 7.842,15.440 3.068,14.771 2.512 C 13.889 1.778,13.281 1.484,12.340 1.337 C 11.859 1.263,8.967 1.229,7.380 1.279 M12.150 2.818 L 12.240 2.849 12.241 4.175 C 12.243 5.896,12.302 7.523,12.380 7.997 C 12.511 8.785,12.768 9.334,13.217 9.783 C 13.666 10.232,14.215 10.489,15.003 10.620 C 15.517 10.705,17.144 10.757,19.289 10.759 L 21.078 10.760 21.100 10.850 C 21.112 10.900,21.141 11.030,21.165 11.140 C 21.230 11.434,21.259 16.005,21.203 17.057 C 21.101 18.948,20.897 19.665,20.282 20.284 C 19.703 20.867,18.987 21.090,17.341 21.198 C 16.488 21.254,7.518 21.254,6.659 21.198 C 5.090 21.096,4.337 20.875,3.778 20.352 C 3.214 19.824,2.971 19.158,2.833 17.760 C 2.756 16.977,2.756 7.023,2.833 6.240 C 2.970 4.848,3.214 4.175,3.770 3.655 C 4.331 3.130,5.136 2.898,6.721 2.803 C 7.419 2.762,12.023 2.774,12.150 2.818 M14.199 3.999 C 14.444 4.212,19.275 8.563,19.854 9.091 L 20.020 9.243 17.760 9.227 C 15.677 9.212,15.472 9.204,15.138 9.130 C 14.338 8.952,14.047 8.661,13.871 7.862 C 13.799 7.536,13.789 7.307,13.771 5.561 C 13.752 3.676,13.753 3.625,13.826 3.680 C 13.867 3.712,14.035 3.855,14.199 3.999 M6.180 9.280 C 4.551 9.505,3.725 11.380,4.646 12.759 L 4.807 13.000 4.646 13.241 C 4.131 14.011,4.131 14.989,4.646 15.759 L 4.807 16.000 4.646 16.241 C 3.805 17.500,4.395 19.183,5.840 19.644 C 6.179 19.752,6.761 19.760,7.100 19.662 C 7.841 19.448,8.436 18.860,8.659 18.120 C 8.702 17.977,8.733 17.679,8.749 17.267 L 8.772 16.634 8.876 16.661 C 9.130 16.727,9.522 16.752,9.784 16.719 C 11.440 16.510,12.286 14.636,11.354 13.241 L 11.193 13.000 11.354 12.759 C 12.080 11.673,11.744 10.207,10.620 9.555 C 10.510 9.491,10.303 9.400,10.160 9.352 C 9.911 9.268,9.829 9.264,8.160 9.256 C 7.203 9.251,6.312 9.262,6.180 9.280 M7.240 11.500 L 7.240 12.240 6.769 12.240 C 6.233 12.240,6.107 12.197,5.901 11.942 C 5.791 11.806,5.780 11.766,5.780 11.500 C 5.780 11.234,5.791 11.194,5.901 11.058 C 6.107 10.803,6.233 10.760,6.769 10.760 L 7.240 10.760 7.240 11.500 M9.840 10.834 C 9.916 10.875,10.032 10.976,10.099 11.058 C 10.209 11.194,10.220 11.234,10.220 11.500 C 10.220 11.766,10.209 11.806,10.099 11.942 C 9.893 12.197,9.767 12.240,9.231 12.240 L 8.760 12.240 8.760 11.500 L 8.760 10.760 9.231 10.760 C 9.613 10.760,9.727 10.774,9.840 10.834 M7.240 14.500 L 7.240 15.240 6.769 15.240 C 6.233 15.240,6.107 15.197,5.901 14.942 C 5.791 14.806,5.780 14.766,5.780 14.500 C 5.780 14.234,5.791 14.194,5.901 14.058 C 6.107 13.803,6.233 13.760,6.769 13.760 L 7.240 13.760 7.240 14.500 M9.944 13.903 C 10.173 14.088,10.247 14.255,10.231 14.549 C 10.219 14.752,10.195 14.823,10.097 14.944 C 9.912 15.173,9.745 15.247,9.451 15.231 C 9.248 15.219,9.177 15.195,9.056 15.097 C 8.827 14.912,8.753 14.745,8.769 14.451 C 8.781 14.248,8.805 14.177,8.903 14.056 C 9.088 13.827,9.255 13.753,9.549 13.769 C 9.752 13.781,9.823 13.805,9.944 13.903 M7.240 17.231 C 7.240 17.766,7.197 17.893,6.944 18.097 C 6.823 18.195,6.752 18.219,6.549 18.231 C 6.255 18.247,6.088 18.173,5.901 17.942 C 5.791 17.806,5.780 17.766,5.780 17.500 C 5.780 17.234,5.791 17.194,5.901 17.058 C 6.107 16.803,6.233 16.760,6.769 16.760 L 7.240 16.760 7.240 17.231 " fill="#1C274C" stroke="none" fill-rule="evenodd"></path></svg>