<svg width="24" height="24" viewBox="0 0 24 24" fill="none" xmlns="http://www.w3.org/2000/svg"><path d="M7.380 1.279 C 4.740 1.363,3.544 1.720,2.595 2.706 C 1.716 3.620,1.383 4.740,1.280 7.130 C 1.229 8.300,1.230 15.720,1.281 16.900 C 1.382 19.240,1.718 20.378,2.575 21.273 C 3.521 22.261,4.624 22.612,7.130 22.720 C 8.285 22.770,15.715 22.770,16.870 22.720 C 18.396 22.654,19.266 22.514,20.060 22.205 C 20.987 21.845,21.847 20.986,22.204 20.064 C 22.642 18.934,22.758 17.676,22.759 14.080 C 22.759 11.540,22.702 10.832,22.439 10.110 C 22.208 9.478,21.868 8.987,21.183 8.297 C 20.731 7.842,15.440 3.068,14.771 2.512 C 13.889 1.778,13.281 1.484,12.340 1.337 C 11.859 1.263,8.967 1.229,7.380 1.279 M12.150 2.818 L 12.240 2.849 12.241 4.175 C 12.243 5.896,12.302 7.523,12.380 7.997 C 12.511 8.785,12.768 9.334,13.217 9.783 C 13.666 10.232,14.215 10.489,15.003 10.620 C 15.517 10.705,17.144 10.757,19.289 10.759 L 21.078 10.760 21.100 10.850 C 21.112 10.900,21.141 11.030,21.165 11.140 C 21.230 11.434,21.259 16.005,21.203 17.057 C 21.101 18.948,20.897 19.665,20.282 20.284 C 19.703 20.867,18.987 21.090,17.341 21.198 C 16.488 21.254,7.518 21.254,6.659 21.198 C 5.090 21.096,4.337 20.875,3.778 20.352 C 3.214 19.824,2.971 19.158,2.833 17.760 C 2.756 16.977,2.756 7.023,2.833 6.240 C 2.970 4.848,3.214 4.175,3.770 3.655 C 4.331 3.130,5.136 2.898,6.721 2.803 C 7.419 2.762,12.023 2.774,12.150 2.818 M14.199 3.999 C 14.444 4.212,19.275 8.563,19.854 9.091 L 20.020 9.243 17.760 9.227 C 15.677 9.212,15.472 9.204,15.138 9.130 C 14.338 8.952,14.047 8.661,13.871 7.862 C 13.799 7.536,13.789 7.307,13.771 5.561 C 13.752 3.676,13.753 3.625,13.826 3.680 C 13.867 3.712,14.035 3.855,14.199 3.999 M6.767 13.043 C 6.694 13.066,6.557 13.161,6.463 13.254 C 5.858 13.860,5.857 15.139,6.463 15.745 C 6.950 16.232,7.595 15.972,7.889 15.169 C 7.955 14.988,7.973 14.847,7.973 14.500 C 7.973 14.005,7.901 13.741,7.680 13.419 C 7.453 13.091,7.096 12.944,6.767 13.043 M16.767 13.043 C 16.694 13.066,16.557 13.161,16.463 13.254 C 15.858 13.860,15.857 15.139,16.463 15.745 C 16.950 16.232,17.595 15.972,17.889 15.169 C 17.955 14.988,17.973 14.847,17.973 14.500 C 17.973 14.005,17.901 13.741,17.680 13.419 C 17.453 13.091,17.096 12.944,16.767 13.043 M8.720 16.805 C 8.458 16.909,8.269 17.200,8.269 17.500 C 8.269 17.835,8.410 18.024,8.860 18.289 C 9.288 18.542,9.607 18.686,10.078 18.840 C 10.763 19.065,11.222 19.135,12.000 19.135 C 13.184 19.135,14.146 18.876,15.140 18.289 C 15.590 18.024,15.731 17.835,15.731 17.500 C 15.731 17.074,15.414 16.759,14.987 16.760 C 14.859 16.761,14.727 16.813,14.420 16.984 C 13.683 17.396,13.116 17.579,12.410 17.635 C 11.379 17.716,10.551 17.526,9.580 16.984 C 9.162 16.751,8.961 16.709,8.720 16.805 " fill="#1C274C" stroke="none" fill-rule="evenodd"></path></svg>