<svg width="24" height="24" viewBox="0 0 24 24" fill="none" xmlns="http://www.w3.org/2000/svg"><path d="M7.380 1.279 C 4.740 1.363,3.544 1.720,2.595 2.706 C 1.716 3.620,1.383 4.740,1.280 7.130 C 1.229 8.300,1.230 15.720,1.281 16.900 C 1.382 19.240,1.718 20.378,2.575 21.273 C 3.521 22.261,4.624 22.612,7.130 22.720 C 8.285 22.770,15.715 22.770,16.870 22.720 C 18.396 22.654,19.266 22.514,20.060 22.205 C 20.987 21.845,21.847 20.986,22.204 20.064 C 22.642 18.934,22.758 17.676,22.759 14.080 C 22.759 11.540,22.702 10.832,22.439 10.110 C 22.208 9.478,21.868 8.987,21.183 8.297 C 20.731 7.842,15.440 3.068,14.771 2.512 C 13.889 1.778,13.281 1.484,12.340 1.337 C 11.859 1.263,8.967 1.229,7.380 1.279 M12.150 2.818 L 12.240 2.849 12.241 4.175 C 12.243 5.896,12.302 7.523,12.380 7.997 C 12.511 8.785,12.768 9.334,13.217 9.783 C 13.666 10.232,14.215 10.489,15.003 10.620 C 15.517 10.705,17.144 10.757,19.289 10.759 L 21.078 10.760 21.100 10.850 C 21.112 10.900,21.141 11.030,21.165 11.140 C 21.230 11.434,21.259 16.005,21.203 17.057 C 21.101 18.948,20.897 19.665,20.282 20.284 C 19.703 20.867,18.987 21.090,17.341 21.198 C 16.488 21.254,7.518 21.254,6.659 21.198 C 5.090 21.096,4.337 20.875,3.778 20.352 C 3.214 19.824,2.971 19.158,2.833 17.760 C 2.756 16.977,2.756 7.023,2.833 6.240 C 2.970 4.848,3.214 4.175,3.770 3.655 C 4.331 3.130,5.136 2.898,6.721 2.803 C 7.419 2.762,12.023 2.774,12.150 2.818 M14.199 3.999 C 14.444 4.212,19.275 8.563,19.854 9.091 L 20.020 9.243 17.760 9.227 C 15.677 9.212,15.472 9.204,15.138 9.130 C 14.338 8.952,14.047 8.661,13.871 7.862 C 13.799 7.536,13.789 7.307,13.771 5.561 C 13.752 3.676,13.753 3.625,13.826 3.680 C 13.867 3.712,14.035 3.855,14.199 3.999 M8.820 11.280 C 8.334 11.355,8.063 11.648,7.416 12.795 C 7.343 12.926,7.319 12.935,6.735 13.082 C 6.403 13.165,6.054 13.272,5.961 13.319 C 5.528 13.540,5.266 13.941,5.272 14.373 C 5.279 14.817,5.430 15.105,6.029 15.811 L 6.327 16.162 6.278 16.745 C 6.197 17.709,6.272 18.077,6.617 18.422 C 6.845 18.650,7.079 18.739,7.424 18.731 C 7.710 18.725,7.906 18.666,8.490 18.412 L 9.000 18.190 9.510 18.412 C 10.094 18.666,10.290 18.725,10.576 18.731 C 10.921 18.739,11.155 18.650,11.383 18.422 C 11.728 18.077,11.803 17.709,11.722 16.746 L 11.673 16.164 12.003 15.772 C 12.570 15.099,12.720 14.810,12.727 14.380 C 12.734 13.941,12.475 13.542,12.039 13.319 C 11.946 13.272,11.597 13.165,11.265 13.082 C 10.681 12.935,10.657 12.926,10.584 12.795 C 10.049 11.847,9.794 11.520,9.471 11.371 C 9.270 11.277,9.043 11.246,8.820 11.280 M9.241 13.450 C 9.638 14.150,9.769 14.249,10.551 14.441 C 10.801 14.502,11.014 14.561,11.024 14.571 C 11.034 14.580,10.894 14.766,10.714 14.984 C 10.534 15.202,10.342 15.478,10.287 15.597 C 10.191 15.807,10.189 15.831,10.213 16.447 C 10.229 16.860,10.224 17.080,10.198 17.080 C 10.176 17.080,10.053 17.027,9.925 16.962 C 9.577 16.787,9.227 16.680,9.000 16.680 C 8.785 16.680,8.426 16.785,8.124 16.937 C 8.023 16.988,7.900 17.042,7.851 17.057 L 7.762 17.085 7.787 16.449 C 7.811 15.830,7.809 15.808,7.713 15.597 C 7.658 15.478,7.466 15.202,7.286 14.984 C 7.106 14.766,6.966 14.580,6.976 14.571 C 6.986 14.561,7.199 14.502,7.449 14.441 C 8.236 14.248,8.368 14.146,8.782 13.410 C 8.884 13.228,8.982 13.080,8.999 13.080 C 9.017 13.080,9.125 13.247,9.241 13.450 " fill="#1C274C" stroke="none" fill-rule="evenodd"></path></svg>