<svg width="24" height="24" viewBox="0 0 24 24" fill="none" xmlns="http://www.w3.org/2000/svg"><path d="M7.400 1.282 C 4.765 1.357,3.541 1.719,2.598 2.706 C 1.892 3.443,1.556 4.287,1.381 5.760 C 1.294 6.483,1.232 8.881,1.249 10.800 C 1.266 12.664,1.268 12.673,1.564 13.116 C 1.749 13.393,2.055 13.633,2.395 13.767 C 2.572 13.836,2.701 13.855,3.000 13.854 C 3.431 13.854,3.593 13.806,4.007 13.556 C 4.416 13.309,4.654 13.231,5.000 13.231 C 5.363 13.231,5.519 13.283,6.028 13.571 C 6.495 13.835,6.885 13.979,7.349 14.060 C 8.248 14.217,9.111 14.058,9.960 13.578 C 10.470 13.290,10.641 13.233,11.000 13.232 C 11.362 13.231,11.518 13.283,12.028 13.571 C 12.495 13.835,12.885 13.979,13.349 14.060 C 14.250 14.218,15.182 14.042,16.001 13.559 C 16.439 13.302,16.671 13.226,17.020 13.230 C 17.355 13.233,17.598 13.310,17.954 13.529 C 18.997 14.168,20.232 14.290,21.361 13.866 C 22.215 13.545,22.620 13.151,22.719 12.547 C 22.764 12.271,22.705 11.229,22.619 10.767 C 22.459 9.917,22.079 9.225,21.346 8.449 C 21.078 8.166,16.027 3.592,15.060 2.757 C 13.743 1.620,13.140 1.366,11.560 1.281 C 10.745 1.237,8.978 1.237,7.400 1.282 M12.000 2.794 L 12.220 2.820 12.245 4.800 C 12.273 6.952,12.293 7.424,12.383 7.996 C 12.574 9.212,13.168 10.014,14.160 10.397 C 14.887 10.678,15.434 10.722,18.560 10.754 L 21.100 10.780 21.150 11.020 C 21.177 11.152,21.211 11.488,21.226 11.766 L 21.252 12.273 21.054 12.373 C 20.713 12.546,20.411 12.615,20.000 12.616 C 19.512 12.617,19.200 12.521,18.640 12.199 C 17.872 11.758,17.218 11.635,16.436 11.783 C 16.031 11.860,15.772 11.963,15.300 12.235 C 14.792 12.528,14.478 12.618,13.980 12.614 C 13.483 12.610,13.225 12.531,12.681 12.220 C 12.011 11.838,11.442 11.689,10.815 11.733 C 10.252 11.772,9.824 11.920,9.180 12.300 C 8.451 12.729,7.549 12.729,6.820 12.300 C 6.072 11.859,5.696 11.744,5.000 11.744 C 4.317 11.744,3.801 11.895,3.296 12.243 C 3.079 12.392,2.898 12.412,2.812 12.297 C 2.721 12.175,2.760 6.677,2.856 5.927 C 3.003 4.779,3.226 4.206,3.716 3.716 C 4.285 3.147,5.033 2.907,6.560 2.805 C 7.151 2.765,11.681 2.756,12.000 2.794 M14.130 3.930 C 14.561 4.308,19.560 8.810,19.820 9.054 L 20.020 9.242 17.760 9.226 C 15.676 9.212,15.472 9.204,15.138 9.130 C 14.338 8.952,14.047 8.661,13.871 7.862 C 13.799 7.536,13.789 7.308,13.771 5.570 C 13.760 4.508,13.762 3.640,13.775 3.640 C 13.789 3.640,13.948 3.770,14.130 3.930 M4.580 15.746 C 3.996 15.840,3.655 16.000,2.774 16.592 C 1.784 17.257,1.537 17.543,1.434 18.148 C 1.323 18.794,1.734 20.166,2.255 20.894 C 2.457 21.176,2.893 21.606,3.167 21.792 C 3.450 21.985,3.942 22.219,4.300 22.331 C 5.439 22.688,6.719 22.758,12.040 22.758 C 16.685 22.757,18.110 22.701,19.136 22.479 C 19.827 22.329,20.303 22.139,20.780 21.821 C 21.880 21.088,22.458 19.943,22.637 18.140 C 22.720 17.308,22.732 16.925,22.680 16.742 C 22.612 16.496,22.406 16.270,22.153 16.161 C 21.853 16.032,21.624 16.064,21.196 16.293 C 20.734 16.542,20.461 16.615,20.000 16.616 C 19.512 16.617,19.200 16.521,18.640 16.199 C 17.872 15.758,17.218 15.635,16.436 15.783 C 16.031 15.860,15.772 15.963,15.300 16.235 C 14.792 16.528,14.478 16.618,13.980 16.614 C 13.483 16.610,13.225 16.531,12.681 16.220 C 12.011 15.838,11.442 15.689,10.815 15.733 C 10.252 15.772,9.824 15.920,9.180 16.300 C 8.451 16.729,7.549 16.729,6.820 16.300 C 6.442 16.077,6.041 15.893,5.780 15.823 C 5.538 15.757,4.802 15.710,4.580 15.746 M5.440 17.283 C 5.517 17.302,5.757 17.419,5.973 17.543 C 7.300 18.302,8.658 18.314,9.960 17.578 C 10.470 17.290,10.641 17.233,11.000 17.232 C 11.362 17.231,11.518 17.283,12.028 17.571 C 12.495 17.835,12.885 17.979,13.349 18.060 C 14.250 18.218,15.182 18.042,16.001 17.559 C 16.439 17.302,16.671 17.226,17.020 17.230 C 17.359 17.233,17.593 17.309,17.974 17.540 C 18.311 17.745,18.758 17.931,19.145 18.028 C 19.527 18.123,20.474 18.123,20.856 18.027 C 21.008 17.989,21.138 17.965,21.146 17.973 C 21.154 17.981,21.142 18.130,21.119 18.304 C 20.997 19.213,20.730 19.859,20.297 20.293 C 19.824 20.765,19.197 21.002,18.031 21.148 C 17.507 21.214,17.007 21.220,12.000 21.220 C 6.993 21.220,6.493 21.214,5.969 21.148 C 4.844 21.007,4.237 20.785,3.768 20.342 C 3.621 20.202,3.439 19.987,3.365 19.864 C 3.208 19.603,3.031 19.104,2.944 18.681 C 2.885 18.386,2.885 18.380,2.972 18.287 C 3.103 18.147,4.091 17.489,4.344 17.373 C 4.704 17.208,5.037 17.181,5.440 17.283 " stroke="none" fill-rule="evenodd" fill="black"></path></svg>