<svg width="24" height="24" viewBox="0 0 24 24" fill="none" xmlns="http://www.w3.org/2000/svg"><path d="M7.380 1.279 C 4.740 1.363,3.544 1.720,2.595 2.706 C 1.716 3.620,1.383 4.740,1.280 7.130 C 1.229 8.300,1.230 15.720,1.281 16.900 C 1.382 19.240,1.718 20.378,2.575 21.273 C 3.521 22.261,4.624 22.612,7.130 22.720 C 8.285 22.770,15.715 22.770,16.870 22.720 C 18.396 22.654,19.266 22.514,20.060 22.205 C 20.987 21.845,21.847 20.986,22.204 20.064 C 22.642 18.934,22.758 17.676,22.759 14.080 C 22.759 11.540,22.702 10.832,22.439 10.110 C 22.208 9.478,21.868 8.987,21.183 8.297 C 20.731 7.842,15.440 3.068,14.771 2.512 C 13.889 1.778,13.281 1.484,12.340 1.337 C 11.859 1.263,8.967 1.229,7.380 1.279 M12.150 2.818 L 12.240 2.849 12.241 4.175 C 12.243 5.896,12.302 7.523,12.380 7.997 C 12.511 8.785,12.768 9.334,13.217 9.783 C 13.666 10.232,14.215 10.489,15.003 10.620 C 15.517 10.705,17.144 10.757,19.289 10.759 L 21.078 10.760 21.100 10.850 C 21.112 10.900,21.141 11.030,21.165 11.140 C 21.230 11.434,21.259 16.005,21.203 17.057 C 21.101 18.948,20.897 19.665,20.282 20.284 C 19.703 20.867,18.987 21.090,17.341 21.198 C 16.488 21.254,7.518 21.254,6.659 21.198 C 5.090 21.096,4.337 20.875,3.778 20.352 C 3.214 19.824,2.971 19.158,2.833 17.760 C 2.756 16.977,2.756 7.023,2.833 6.240 C 2.970 4.848,3.214 4.175,3.770 3.655 C 4.331 3.130,5.136 2.898,6.721 2.803 C 7.419 2.762,12.023 2.774,12.150 2.818 M14.199 3.999 C 14.444 4.212,19.275 8.563,19.854 9.091 L 20.020 9.243 17.760 9.227 C 15.677 9.212,15.472 9.204,15.138 9.130 C 14.338 8.952,14.047 8.661,13.871 7.862 C 13.799 7.536,13.789 7.307,13.771 5.561 C 13.752 3.676,13.753 3.625,13.826 3.680 C 13.867 3.712,14.035 3.855,14.199 3.999 M8.201 12.823 C 8.028 12.898,7.931 12.985,7.846 13.140 C 7.788 13.245,7.777 13.485,7.760 15.007 L 7.740 16.754 7.310 16.360 C 6.847 15.936,6.698 15.859,6.415 15.891 C 5.917 15.947,5.611 16.510,5.837 16.953 C 5.933 17.142,7.986 19.073,8.192 19.169 C 8.273 19.207,8.412 19.238,8.500 19.238 C 8.588 19.238,8.727 19.207,8.808 19.169 C 9.014 19.073,11.067 17.142,11.163 16.953 C 11.389 16.510,11.083 15.947,10.585 15.891 C 10.302 15.859,10.153 15.936,9.690 16.360 L 9.260 16.754 9.240 15.007 C 9.223 13.485,9.212 13.245,9.154 13.140 C 8.974 12.812,8.551 12.672,8.201 12.823 " fill="#1C274C" stroke="none" fill-rule="evenodd"></path></svg>