<svg width="24" height="24" viewBox="0 0 24 24" fill="none" xmlns="http://www.w3.org/2000/svg"><path d="M3.780 2.281 C 2.952 2.324,2.560 2.428,2.145 2.713 C 1.544 3.125,1.343 3.619,1.274 4.860 C 1.218 5.858,1.257 7.691,1.343 8.110 C 1.482 8.795,1.838 9.288,2.516 9.739 C 2.727 9.879,3.809 10.505,4.920 11.131 C 7.728 12.713,7.623 12.645,7.917 13.085 C 8.238 13.566,8.240 13.579,8.241 15.874 C 8.243 18.689,8.278 19.068,8.577 19.578 C 8.892 20.117,9.342 20.375,11.140 21.051 C 12.713 21.642,13.109 21.741,13.795 21.712 C 14.188 21.696,14.245 21.683,14.538 21.542 C 14.743 21.444,14.924 21.320,15.048 21.192 C 15.291 20.943,15.533 20.446,15.620 20.020 C 15.713 19.563,15.757 18.266,15.758 15.894 C 15.760 13.577,15.761 13.567,16.083 13.085 C 16.377 12.645,16.272 12.713,19.080 11.131 C 20.191 10.505,21.273 9.879,21.484 9.739 C 21.959 9.423,22.274 9.089,22.456 8.709 C 22.672 8.256,22.718 7.943,22.745 6.710 C 22.774 5.354,22.717 4.221,22.599 3.800 C 22.369 2.978,21.846 2.531,20.880 2.331 C 20.615 2.275,19.640 2.267,12.460 2.260 C 7.994 2.255,4.088 2.265,3.780 2.281 M20.595 3.802 C 20.959 3.861,21.060 3.924,21.146 4.149 C 21.214 4.324,21.220 4.486,21.220 6.080 C 21.220 7.417,21.208 7.854,21.167 7.969 C 21.138 8.052,21.029 8.194,20.921 8.292 C 20.682 8.506,20.435 8.653,18.220 9.901 C 16.085 11.103,15.784 11.283,15.467 11.543 C 15.010 11.917,14.594 12.557,14.402 13.180 C 14.273 13.597,14.242 14.295,14.240 16.820 C 14.238 19.516,14.206 19.918,13.974 20.150 C 13.880 20.243,13.854 20.249,13.567 20.230 C 13.204 20.207,12.733 20.060,11.447 19.569 C 10.324 19.140,9.921 18.942,9.840 18.780 C 9.790 18.679,9.776 18.267,9.754 16.180 C 9.725 13.502,9.722 13.458,9.497 12.896 C 9.352 12.534,9.172 12.236,8.905 11.917 C 8.518 11.454,8.376 11.362,5.780 9.900 C 3.566 8.654,3.318 8.506,3.079 8.292 C 2.971 8.194,2.862 8.052,2.833 7.969 C 2.792 7.854,2.780 7.417,2.780 6.080 C 2.780 4.486,2.786 4.324,2.854 4.149 C 2.938 3.931,3.046 3.858,3.368 3.805 C 3.680 3.753,20.276 3.750,20.595 3.802 " stroke="none" fill-rule="evenodd" fill="black"></path></svg>