<svg width="24" height="24" viewBox="0 0 24 24" fill="none" xmlns="http://www.w3.org/2000/svg"><path d="M11.480 1.283 C 8.510 1.499,5.991 3.717,5.400 6.637 C 5.228 7.488,5.227 8.511,5.397 9.343 C 5.459 9.645,5.466 9.744,5.429 9.756 C 5.263 9.811,4.522 10.218,4.225 10.418 C 2.797 11.378,1.770 12.892,1.402 14.581 C 1.295 15.072,1.243 15.899,1.283 16.473 C 1.516 19.826,4.174 22.484,7.527 22.717 C 8.994 22.819,10.497 22.430,11.690 21.640 L 12.001 21.435 12.309 21.641 C 13.211 22.244,14.389 22.638,15.527 22.717 C 19.247 22.976,22.459 20.185,22.717 16.473 C 22.776 15.626,22.665 14.666,22.419 13.900 C 22.362 13.724,22.202 13.346,22.062 13.060 C 21.401 11.708,20.373 10.665,19.021 9.977 C 18.801 9.864,18.598 9.765,18.571 9.756 C 18.534 9.744,18.541 9.645,18.603 9.343 C 18.648 9.125,18.699 8.733,18.717 8.473 C 19.003 4.360,15.604 0.983,11.480 1.283 M13.080 2.859 C 13.690 2.995,14.410 3.296,14.893 3.617 C 15.416 3.964,16.036 4.584,16.383 5.107 C 16.576 5.398,16.848 5.958,16.972 6.320 C 17.168 6.895,17.220 7.244,17.220 8.000 C 17.220 8.964,17.095 9.522,16.697 10.330 C 16.481 10.769,16.312 11.024,15.980 11.412 C 15.228 12.293,14.204 12.898,13.040 13.147 C 12.562 13.250,11.438 13.250,10.960 13.147 C 10.058 12.954,9.281 12.572,8.588 11.980 C 7.707 11.228,7.102 10.204,6.853 9.040 C 6.798 8.785,6.780 8.526,6.780 8.000 C 6.780 7.244,6.832 6.895,7.028 6.320 C 7.152 5.958,7.424 5.398,7.617 5.107 C 7.964 4.584,8.584 3.964,9.107 3.617 C 9.613 3.281,10.356 2.976,10.940 2.864 C 11.116 2.831,11.296 2.795,11.340 2.784 C 11.526 2.740,12.789 2.794,13.080 2.859 M6.221 11.470 C 6.903 12.600,7.872 13.484,9.060 14.060 C 9.865 14.450,10.638 14.656,11.527 14.717 C 11.959 14.747,12.961 14.709,13.041 14.659 C 13.059 14.648,13.107 14.779,13.147 14.949 C 13.250 15.390,13.250 16.560,13.147 17.040 C 12.701 19.125,11.125 20.701,9.040 21.147 C 8.785 21.202,8.526 21.220,8.000 21.220 C 7.036 21.220,6.478 21.095,5.670 20.697 C 5.231 20.481,4.976 20.312,4.588 19.980 C 3.707 19.228,3.102 18.204,2.853 17.040 C 2.744 16.530,2.754 15.311,2.871 14.839 C 3.189 13.553,3.932 12.446,4.975 11.702 C 5.264 11.496,5.886 11.160,5.979 11.160 C 6.009 11.160,6.118 11.300,6.221 11.470 M18.415 11.334 C 19.762 12.027,20.748 13.300,21.129 14.839 C 21.246 15.311,21.256 16.530,21.147 17.040 C 20.701 19.125,19.125 20.701,17.040 21.147 C 16.519 21.259,15.348 21.248,14.861 21.126 C 14.284 20.983,13.790 20.789,13.359 20.536 L 13.126 20.400 13.379 20.060 C 14.543 18.498,14.988 16.536,14.603 14.657 C 14.541 14.355,14.534 14.256,14.571 14.244 C 14.598 14.235,14.801 14.136,15.021 14.023 C 16.199 13.424,17.136 12.548,17.816 11.410 C 17.898 11.273,17.991 11.160,18.021 11.160 C 18.052 11.160,18.229 11.238,18.415 11.334 " stroke="none" fill-rule="evenodd" fill="black"></path></svg>