<svg width="24" height="24" viewBox="0 0 24 24" fill="none" xmlns="http://www.w3.org/2000/svg"><path d="M13.120 2.504 C 12.412 2.694,11.867 3.146,11.542 3.813 C 11.335 4.236,11.280 4.503,11.256 5.200 C 11.221 6.219,11.112 6.837,10.818 7.682 C 10.492 8.617,10.019 9.340,9.466 9.747 C 9.168 9.967,9.067 9.969,8.849 9.759 C 8.640 9.559,8.584 9.373,8.502 8.611 C 8.434 7.976,8.342 7.653,8.138 7.334 C 7.745 6.720,7.015 6.347,6.360 6.425 C 5.895 6.481,5.615 6.625,5.040 7.104 C 3.711 8.211,2.762 9.801,2.422 11.491 C 2.131 12.934,2.251 14.959,2.721 16.549 C 3.608 19.544,5.828 21.684,8.856 22.460 C 9.689 22.673,10.202 22.730,11.300 22.731 L 12.260 22.731 13.000 22.543 C 14.363 22.197,14.961 21.985,15.846 21.536 C 18.428 20.223,20.086 17.972,20.577 15.116 C 20.794 13.854,20.780 12.228,20.541 10.990 C 20.004 8.205,18.358 5.576,15.878 3.547 C 14.970 2.804,14.585 2.576,14.077 2.479 C 13.786 2.424,13.379 2.435,13.120 2.504 M14.203 4.139 C 14.612 4.419,15.415 5.102,15.900 5.583 C 17.614 7.284,18.722 9.294,19.095 11.380 C 19.263 12.314,19.283 13.773,19.141 14.680 C 18.796 16.884,17.725 18.587,15.955 19.747 C 15.743 19.886,15.561 20.000,15.550 20.000 C 15.540 20.000,15.564 19.860,15.605 19.690 C 15.763 19.033,15.769 18.071,15.620 17.500 C 15.532 17.164,15.242 16.590,14.997 16.268 C 14.761 15.956,14.310 15.561,14.043 15.431 C 13.820 15.323,13.396 15.290,13.094 15.358 C 12.778 15.429,12.422 15.684,12.235 15.973 C 12.150 16.105,12.079 16.187,12.078 16.156 C 12.030 15.040,12.014 14.924,11.864 14.621 C 11.495 13.874,10.660 13.571,9.935 13.922 C 9.695 14.039,9.200 14.438,8.822 14.820 C 8.235 15.413,7.693 16.285,7.485 16.970 C 7.176 17.986,7.200 19.263,7.545 20.095 C 7.601 20.230,7.657 20.366,7.671 20.398 C 7.699 20.466,7.458 20.333,6.962 20.007 C 4.792 18.578,3.681 16.121,3.772 12.949 C 3.787 12.389,3.816 12.075,3.876 11.795 C 4.192 10.335,4.956 9.103,6.152 8.126 C 6.456 7.878,6.603 7.856,6.792 8.033 C 6.939 8.169,6.979 8.317,7.040 8.938 C 7.103 9.572,7.206 9.956,7.409 10.311 C 7.852 11.085,8.637 11.519,9.381 11.400 C 9.735 11.343,9.998 11.219,10.388 10.925 C 11.170 10.334,11.817 9.358,12.244 8.124 C 12.558 7.220,12.698 6.454,12.740 5.420 C 12.755 5.048,12.790 4.704,12.823 4.599 C 12.902 4.349,13.096 4.128,13.337 4.013 C 13.634 3.871,13.859 3.904,14.203 4.139 M10.560 15.690 C 10.561 16.701,10.878 17.583,11.348 17.881 C 11.580 18.028,11.756 18.079,12.028 18.080 C 12.572 18.080,13.149 17.631,13.396 17.014 L 13.473 16.820 13.694 17.051 C 14.124 17.500,14.263 17.932,14.228 18.700 C 14.191 19.515,13.956 20.084,13.465 20.549 C 13.096 20.899,12.770 21.058,12.251 21.144 C 11.394 21.285,10.934 21.224,10.204 20.873 C 9.854 20.705,9.739 20.624,9.483 20.366 C 8.977 19.858,8.760 19.281,8.760 18.444 C 8.760 17.572,9.055 16.834,9.720 16.043 C 9.896 15.834,10.470 15.321,10.530 15.320 C 10.547 15.320,10.560 15.487,10.560 15.690 " stroke="none" fill-rule="evenodd" fill="black"></path></svg>