<svg width="24" height="24" viewBox="0 0 24 24" fill="none" xmlns="http://www.w3.org/2000/svg"><path d="M9.174 2.283 C 8.911 2.333,8.709 2.456,8.270 2.835 C 5.830 4.938,4.031 8.035,3.481 11.080 C 3.268 12.260,3.206 13.808,3.338 14.640 C 3.707 16.956,4.985 18.925,6.975 20.244 C 9.112 21.661,11.805 22.099,14.342 21.442 C 16.506 20.881,18.402 19.507,19.539 17.676 C 20.690 15.823,21.009 13.723,20.514 11.260 C 20.071 9.056,18.877 6.790,17.266 5.091 C 16.893 4.698,16.652 4.580,16.220 4.580 C 15.950 4.580,15.864 4.598,15.670 4.693 C 15.340 4.855,15.190 5.034,14.914 5.595 C 14.202 7.042,13.426 8.056,12.612 8.600 C 12.239 8.850,11.964 8.950,11.509 9.001 C 11.028 9.056,10.828 9.010,10.575 8.787 C 10.209 8.465,10.036 7.889,10.030 6.980 C 10.025 6.158,10.145 5.384,10.467 4.160 C 10.580 3.731,10.605 3.570,10.590 3.379 C 10.533 2.672,9.861 2.151,9.174 2.283 M8.839 4.522 C 8.750 4.854,8.604 5.757,8.557 6.265 C 8.387 8.124,8.899 9.572,9.945 10.185 C 10.201 10.335,10.648 10.477,10.954 10.505 C 11.267 10.533,11.960 10.469,12.299 10.379 C 12.752 10.260,13.296 9.977,13.766 9.615 C 14.028 9.414,14.629 8.805,14.906 8.462 C 15.240 8.047,15.741 7.264,16.001 6.753 C 16.138 6.482,16.259 6.251,16.268 6.240 C 16.306 6.198,17.085 7.172,17.411 7.668 C 18.290 9.008,18.858 10.425,19.123 11.940 C 19.232 12.560,19.272 13.769,19.201 14.290 C 18.862 16.801,17.093 18.906,14.560 19.813 C 12.957 20.387,11.043 20.387,9.440 19.813 C 7.945 19.278,6.667 18.291,5.802 17.006 C 5.586 16.684,5.198 15.876,5.063 15.464 C 4.819 14.723,4.780 14.425,4.783 13.340 C 4.785 12.521,4.801 12.239,4.872 11.780 C 5.214 9.580,6.126 7.534,7.580 5.707 C 7.922 5.278,8.837 4.304,8.869 4.335 C 8.878 4.344,8.865 4.429,8.839 4.522 " stroke="none" fill-rule="evenodd" fill="black"></path></svg>