<svg width="24" height="24" viewBox="0 0 24 24" fill="none" xmlns="http://www.w3.org/2000/svg"><path d="M9.020 1.279 C 6.976 1.330,5.856 1.466,4.900 1.779 C 3.060 2.382,1.958 3.688,1.563 5.734 C 1.311 7.042,1.267 7.973,1.267 12.000 C 1.267 16.027,1.311 16.958,1.563 18.266 C 2.013 20.599,3.401 21.987,5.734 22.437 C 7.043 22.690,7.974 22.734,12.000 22.734 C 16.026 22.734,16.957 22.690,18.266 22.437 C 20.599 21.987,21.987 20.599,22.437 18.266 C 22.688 16.966,22.733 16.013,22.733 12.000 C 22.733 7.987,22.688 7.034,22.437 5.734 C 22.098 3.977,21.228 2.756,19.825 2.068 C 18.972 1.650,17.853 1.420,16.180 1.321 C 15.262 1.267,10.607 1.239,9.020 1.279 M16.600 2.836 C 18.439 3.019,19.320 3.320,20.000 4.000 C 20.692 4.693,20.998 5.605,21.168 7.480 C 21.242 8.307,21.242 15.693,21.168 16.520 C 20.995 18.427,20.692 19.314,19.966 20.031 C 19.337 20.654,18.428 20.975,16.820 21.144 C 16.288 21.199,15.577 21.214,12.620 21.229 C 8.221 21.252,7.082 21.205,5.923 20.954 C 4.231 20.588,3.373 19.699,3.021 17.947 C 2.796 16.825,2.780 16.431,2.781 11.980 C 2.782 7.664,2.793 7.353,2.984 6.240 C 3.183 5.082,3.600 4.278,4.272 3.760 C 5.025 3.178,6.058 2.913,8.002 2.802 C 8.872 2.752,16.044 2.780,16.600 2.836 M13.129 6.086 C 12.670 6.140,12.237 6.401,11.942 6.802 C 11.695 7.137,11.603 7.412,11.556 7.948 C 11.511 8.467,11.415 8.876,11.243 9.285 C 11.116 9.588,10.881 10.000,10.836 10.000 C 10.782 10.000,10.685 9.688,10.642 9.377 C 10.566 8.820,10.341 8.498,9.882 8.285 C 9.566 8.139,9.113 8.139,8.800 8.285 C 8.304 8.517,7.606 9.143,7.189 9.728 C 6.463 10.749,6.182 11.850,6.283 13.278 C 6.395 14.868,6.889 16.102,7.795 17.051 C 8.918 18.229,10.519 18.846,12.116 18.718 C 14.083 18.559,15.802 17.608,16.784 16.136 C 17.944 14.395,18.059 11.717,17.065 9.620 C 16.590 8.619,15.825 7.613,14.974 6.872 C 14.162 6.165,13.792 6.008,13.129 6.086 M13.905 7.932 C 15.059 8.919,15.859 10.214,16.147 11.560 C 16.250 12.044,16.251 13.318,16.147 13.798 C 16.007 14.450,15.743 15.061,15.420 15.480 C 15.218 15.743,14.724 16.219,14.477 16.389 C 13.973 16.735,13.129 17.063,12.429 17.184 C 11.932 17.270,11.181 17.243,10.740 17.122 C 10.338 17.012,9.747 16.735,9.425 16.505 C 9.154 16.311,8.718 15.868,8.531 15.595 C 8.244 15.178,8.002 14.587,7.877 14.004 C 7.757 13.442,7.727 12.409,7.818 11.958 C 7.963 11.239,8.320 10.598,8.864 10.082 L 9.172 9.789 9.258 10.088 C 9.446 10.740,9.799 11.216,10.265 11.445 C 10.965 11.790,11.628 11.538,12.167 10.721 C 12.653 9.986,12.956 9.087,13.036 8.146 C 13.066 7.781,13.079 7.737,13.177 7.652 C 13.355 7.500,13.435 7.530,13.905 7.932 " stroke="none" fill-rule="evenodd" fill="black"></path></svg>