<svg width="24" height="24" viewBox="0 0 24 24" fill="none" xmlns="http://www.w3.org/2000/svg"><path d="M4.815 1.277 C 4.638 1.321,4.461 1.456,4.353 1.631 L 4.260 1.780 4.260 12.000 L 4.260 22.220 4.353 22.369 C 4.710 22.943,5.576 22.812,5.716 22.162 C 5.746 22.020,5.760 20.814,5.760 18.283 L 5.760 14.611 6.890 14.387 C 8.278 14.113,8.728 14.062,9.460 14.095 C 10.446 14.139,10.964 14.248,12.136 14.658 C 13.252 15.049,13.807 15.179,14.796 15.284 C 15.965 15.407,17.859 15.173,18.564 14.819 C 19.098 14.551,19.483 14.070,19.687 13.420 C 19.754 13.206,19.786 5.781,19.722 5.300 C 19.591 4.319,18.785 3.600,17.817 3.600 C 17.681 3.600,17.357 3.644,17.095 3.698 C 16.404 3.840,15.814 3.894,15.280 3.863 C 14.371 3.810,13.761 3.672,12.730 3.286 C 11.263 2.737,10.319 2.570,8.904 2.611 C 8.102 2.635,7.747 2.683,6.483 2.939 C 6.100 3.016,5.781 3.080,5.773 3.080 C 5.766 3.080,5.760 2.841,5.759 2.550 C 5.758 1.948,5.717 1.716,5.580 1.536 C 5.421 1.327,5.078 1.211,4.815 1.277 M10.400 4.178 C 10.928 4.262,11.382 4.391,12.220 4.693 C 12.616 4.835,13.111 4.998,13.320 5.054 C 14.682 5.420,16.105 5.449,17.498 5.139 C 17.849 5.061,17.966 5.080,18.125 5.239 L 18.240 5.354 18.240 9.219 C 18.240 13.453,18.254 13.200,18.002 13.412 C 17.881 13.514,17.391 13.646,16.680 13.768 C 16.291 13.834,15.007 13.833,14.540 13.765 C 14.020 13.691,13.386 13.520,12.700 13.270 C 11.214 12.729,10.302 12.571,8.904 12.611 C 8.102 12.635,7.747 12.683,6.483 12.939 C 6.100 13.016,5.781 13.080,5.773 13.080 C 5.766 13.080,5.760 11.174,5.760 8.845 L 5.760 4.610 6.910 4.384 C 7.543 4.259,8.195 4.141,8.360 4.121 C 8.768 4.071,9.935 4.104,10.400 4.178 " stroke="none" fill-rule="evenodd" fill="black"></path></svg>