<svg width="24" height="24" viewBox="0 0 24 24" fill="none" xmlns="http://www.w3.org/2000/svg"><path d="M4.815 1.277 C 4.638 1.321,4.461 1.456,4.353 1.631 L 4.260 1.780 4.260 12.000 L 4.260 22.220 4.353 22.369 C 4.710 22.943,5.576 22.812,5.716 22.162 C 5.746 22.020,5.760 20.814,5.760 18.283 L 5.760 14.611 6.890 14.387 C 8.278 14.113,8.728 14.062,9.460 14.095 C 10.446 14.139,10.964 14.248,12.136 14.658 C 12.534 14.797,13.004 14.951,13.180 14.998 C 14.218 15.280,15.470 15.384,16.535 15.277 C 17.137 15.216,18.029 15.029,18.294 14.908 C 18.555 14.789,18.876 14.502,19.014 14.266 C 19.236 13.887,19.299 13.374,19.176 12.957 C 19.136 12.825,18.754 12.144,18.194 11.210 C 17.135 9.443,17.000 9.193,17.000 9.000 C 17.000 8.813,17.137 8.556,18.012 7.092 C 18.880 5.642,18.858 5.683,18.918 5.393 C 19.039 4.803,18.719 4.141,18.171 3.849 C 17.757 3.628,17.563 3.622,16.620 3.800 C 16.248 3.870,16.000 3.890,15.520 3.888 C 14.540 3.886,13.972 3.767,12.821 3.322 C 11.350 2.753,10.340 2.570,8.904 2.611 C 8.102 2.635,7.747 2.683,6.483 2.939 C 6.100 3.016,5.781 3.080,5.773 3.080 C 5.766 3.080,5.760 2.841,5.759 2.550 C 5.758 1.948,5.717 1.716,5.580 1.536 C 5.421 1.327,5.078 1.211,4.815 1.277 M10.380 4.175 C 10.863 4.252,11.314 4.370,11.831 4.557 C 12.067 4.642,12.493 4.796,12.779 4.898 C 14.201 5.410,15.639 5.526,17.025 5.243 C 17.220 5.203,17.387 5.176,17.396 5.184 C 17.405 5.192,17.070 5.771,16.651 6.469 C 15.817 7.861,15.681 8.113,15.584 8.437 C 15.500 8.720,15.500 9.280,15.584 9.563 C 15.683 9.895,15.817 10.139,16.810 11.795 C 17.316 12.639,17.738 13.362,17.749 13.401 C 17.785 13.539,17.564 13.614,16.680 13.767 C 16.292 13.834,15.010 13.833,14.540 13.765 C 14.020 13.691,13.386 13.520,12.700 13.270 C 11.214 12.729,10.302 12.571,8.904 12.611 C 8.102 12.635,7.747 12.683,6.483 12.939 C 6.100 13.016,5.781 13.080,5.773 13.080 C 5.766 13.080,5.760 11.174,5.760 8.845 L 5.760 4.610 6.910 4.384 C 7.543 4.259,8.195 4.141,8.360 4.121 C 8.761 4.072,9.932 4.104,10.380 4.175 " stroke="none" fill-rule="evenodd" fill="black"></path></svg>