<svg width="24" height="24" viewBox="0 0 24 24" fill="none" xmlns="http://www.w3.org/2000/svg"><path d="M10.427 2.003 C 10.021 2.142,9.706 2.376,9.475 2.708 C 9.411 2.801,9.268 3.089,9.157 3.348 C 8.922 3.898,8.453 4.810,8.039 5.520 C 7.757 6.003,7.217 6.858,5.984 8.772 C 4.634 10.867,3.971 12.089,3.624 13.120 C 3.310 14.052,3.225 14.646,3.284 15.487 C 3.410 17.290,4.165 18.895,5.568 20.343 C 6.239 21.036,7.139 21.727,7.780 22.043 C 8.376 22.337,9.068 22.097,9.364 21.494 C 9.445 21.330,9.460 21.242,9.459 20.920 L 9.457 20.540 9.184 19.960 C 8.692 18.916,8.450 18.019,8.491 17.399 C 8.531 16.800,8.844 16.163,9.420 15.509 C 9.596 15.309,9.761 15.139,9.786 15.131 C 9.812 15.123,9.985 15.328,10.172 15.588 C 10.360 15.848,10.573 16.118,10.646 16.188 C 10.850 16.383,11.123 16.487,11.436 16.489 C 11.936 16.493,12.231 16.280,12.592 15.659 C 13.144 14.708,13.524 13.419,13.702 11.902 C 13.735 11.617,13.769 11.378,13.777 11.370 C 13.803 11.344,14.660 12.512,14.918 12.926 C 15.483 13.830,15.881 14.759,16.002 15.456 C 16.062 15.801,16.030 16.628,15.940 17.040 C 15.725 18.026,15.176 19.232,14.391 20.440 C 14.125 20.851,14.072 21.001,14.075 21.349 C 14.078 21.678,14.244 22.052,14.472 22.239 C 14.663 22.397,14.994 22.520,15.227 22.520 C 15.651 22.520,17.020 21.912,17.700 21.421 C 19.162 20.367,20.159 18.816,20.533 17.016 C 20.676 16.332,20.728 15.794,20.728 15.020 C 20.727 14.256,20.663 13.739,20.474 12.989 C 20.167 11.769,19.531 10.417,18.627 9.060 C 17.219 6.948,15.146 4.742,12.800 2.862 C 12.042 2.255,11.781 2.078,11.518 1.996 C 11.190 1.894,10.735 1.897,10.427 2.003 M11.767 3.954 C 14.311 5.988,16.513 8.393,17.797 10.541 C 18.795 12.209,19.239 13.602,19.240 15.068 C 19.241 17.525,18.238 19.408,16.338 20.518 C 16.186 20.607,16.049 20.680,16.034 20.680 C 16.019 20.680,16.108 20.505,16.231 20.290 C 16.749 19.390,17.223 18.188,17.398 17.328 C 17.562 16.527,17.575 15.690,17.437 15.000 C 17.161 13.628,16.113 11.772,14.677 10.113 C 14.206 9.569,13.985 9.441,13.517 9.440 C 13.042 9.440,12.624 9.712,12.429 10.148 C 12.341 10.345,12.319 10.477,12.281 11.020 C 12.181 12.470,11.905 13.717,11.515 14.490 L 11.396 14.726 11.038 14.242 C 10.640 13.704,10.453 13.553,10.087 13.477 C 9.568 13.370,9.282 13.499,8.680 14.113 C 7.808 15.002,7.336 15.755,7.090 16.646 C 7.038 16.837,7.020 17.054,7.020 17.520 C 7.020 18.268,7.084 18.623,7.365 19.444 C 7.474 19.761,7.574 20.056,7.588 20.099 C 7.625 20.211,7.362 20.000,6.845 19.501 C 5.514 18.216,4.833 16.828,4.772 15.280 C 4.746 14.614,4.796 14.290,5.028 13.621 C 5.400 12.543,5.982 11.516,7.868 8.600 C 9.390 6.247,10.018 5.137,10.601 3.769 C 10.700 3.536,10.841 3.400,10.983 3.400 C 11.041 3.400,11.329 3.603,11.767 3.954 " stroke="none" fill-rule="evenodd" fill="black"></path></svg>