<svg width="24" height="24" viewBox="0 0 24 24" fill="none" xmlns="http://www.w3.org/2000/svg"><path d="M11.815 1.277 C 11.638 1.321,11.461 1.456,11.353 1.631 L 11.260 1.780 11.260 3.500 L 11.260 5.220 11.353 5.369 C 11.710 5.943,12.576 5.812,12.716 5.162 C 12.773 4.894,12.774 2.090,12.717 1.841 C 12.623 1.432,12.215 1.177,11.815 1.277 M5.815 2.277 C 5.640 2.320,5.462 2.456,5.356 2.626 C 5.235 2.823,5.232 3.174,5.351 3.364 C 5.397 3.439,5.927 3.988,6.528 4.585 C 7.553 5.605,7.632 5.673,7.810 5.711 C 8.389 5.832,8.832 5.389,8.711 4.810 C 8.673 4.632,8.605 4.553,7.585 3.528 C 6.988 2.927,6.446 2.402,6.380 2.362 C 6.235 2.273,5.985 2.236,5.815 2.277 M17.900 2.259 C 17.878 2.267,17.806 2.285,17.740 2.300 C 17.653 2.319,17.315 2.630,16.528 3.413 C 15.927 4.011,15.397 4.561,15.351 4.636 C 15.218 4.848,15.233 5.195,15.383 5.408 C 15.447 5.499,15.568 5.608,15.651 5.651 C 15.838 5.747,16.139 5.753,16.327 5.664 C 16.403 5.627,16.962 5.099,17.568 4.489 C 18.607 3.444,18.673 3.369,18.711 3.189 C 18.782 2.848,18.658 2.530,18.389 2.367 C 18.265 2.292,17.983 2.229,17.900 2.259 M5.100 7.278 C 4.091 7.348,3.568 7.725,3.362 8.532 C 3.264 8.917,3.213 10.213,3.276 10.740 C 3.357 11.423,3.279 11.326,5.804 13.862 C 7.588 15.653,8.056 16.144,8.129 16.302 L 8.220 16.500 8.240 19.360 L 8.260 22.220 8.353 22.369 C 8.715 22.952,9.581 22.810,9.719 22.147 C 9.751 21.991,9.761 21.170,9.752 19.343 L 9.740 16.760 12.000 16.760 L 14.260 16.760 14.260 19.490 L 14.260 22.220 14.353 22.369 C 14.664 22.870,15.408 22.849,15.664 22.332 C 15.736 22.188,15.741 22.022,15.760 19.340 L 15.780 16.500 15.871 16.302 C 15.944 16.144,16.412 15.653,18.196 13.862 C 20.721 11.326,20.643 11.423,20.724 10.740 C 20.786 10.220,20.735 8.911,20.638 8.533 C 20.474 7.891,20.120 7.538,19.454 7.351 L 19.140 7.262 12.320 7.257 C 8.569 7.253,5.320 7.263,5.100 7.278 M19.168 8.832 C 19.205 8.869,19.224 9.073,19.233 9.562 L 19.245 10.240 12.003 10.240 L 4.760 10.240 4.760 9.623 C 4.760 8.976,4.788 8.819,4.908 8.788 C 4.947 8.777,8.161 8.771,12.048 8.774 C 17.781 8.779,19.126 8.790,19.168 8.832 M16.487 13.455 C 15.559 14.388,14.800 15.171,14.800 15.195 C 14.800 15.228,14.030 15.240,12.001 15.240 L 9.203 15.240 9.156 15.150 C 9.130 15.101,8.370 14.318,7.466 13.410 L 5.824 11.760 11.999 11.760 L 18.175 11.760 16.487 13.455 M11.815 18.277 C 11.638 18.321,11.461 18.456,11.353 18.631 C 11.261 18.778,11.260 18.793,11.260 20.000 C 11.260 21.207,11.261 21.222,11.353 21.369 C 11.710 21.943,12.576 21.812,12.716 21.162 C 12.772 20.901,12.773 19.083,12.717 18.841 C 12.623 18.432,12.215 18.177,11.815 18.277 " stroke="none" fill-rule="evenodd" fill="black"></path></svg>