<svg width="24" height="24" viewBox="0 0 24 24" fill="none" xmlns="http://www.w3.org/2000/svg"><path d="M5.100 1.278 C 4.091 1.348,3.568 1.725,3.362 2.532 C 3.264 2.917,3.213 4.213,3.276 4.740 C 3.357 5.423,3.279 5.326,5.804 7.862 C 7.588 9.653,8.056 10.144,8.129 10.302 L 8.220 10.500 8.243 15.420 C 8.264 19.724,8.275 20.373,8.330 20.606 C 8.595 21.709,9.383 22.472,10.480 22.684 C 10.838 22.753,13.162 22.753,13.520 22.684 C 14.617 22.472,15.406 21.709,15.669 20.606 C 15.725 20.374,15.736 19.719,15.756 15.420 L 15.780 10.500 15.871 10.302 C 15.944 10.144,16.412 9.653,18.196 7.862 C 20.721 5.326,20.643 5.423,20.724 4.740 C 20.786 4.220,20.735 2.911,20.638 2.533 C 20.474 1.891,20.120 1.538,19.454 1.351 L 19.140 1.262 12.320 1.257 C 8.569 1.253,5.320 1.263,5.100 1.278 M19.168 2.832 C 19.205 2.869,19.224 3.073,19.233 3.562 L 19.245 4.240 12.003 4.240 L 4.760 4.240 4.760 3.623 C 4.760 2.976,4.788 2.819,4.908 2.788 C 4.947 2.777,8.161 2.771,12.048 2.774 C 17.781 2.779,19.126 2.790,19.168 2.832 M16.487 7.455 C 15.559 8.388,14.800 9.171,14.800 9.195 C 14.800 9.228,14.030 9.240,12.001 9.240 L 9.203 9.240 9.156 9.150 C 9.130 9.101,8.370 8.318,7.466 7.410 L 5.824 5.760 11.999 5.760 L 18.175 5.760 16.487 7.455 M14.250 15.430 C 14.243 18.526,14.225 20.171,14.197 20.310 C 14.113 20.723,13.732 21.108,13.319 21.197 C 13.051 21.254,10.949 21.254,10.681 21.197 C 10.268 21.108,9.887 20.723,9.803 20.310 C 9.775 20.171,9.757 18.526,9.750 15.430 L 9.740 10.760 12.000 10.760 L 14.260 10.760 14.250 15.430 M11.815 12.277 C 11.638 12.321,11.461 12.456,11.353 12.631 C 11.261 12.778,11.260 12.793,11.260 14.000 C 11.260 15.207,11.261 15.222,11.353 15.369 C 11.710 15.943,12.576 15.812,12.716 15.162 C 12.772 14.901,12.773 13.083,12.717 12.841 C 12.623 12.432,12.215 12.177,11.815 12.277 " stroke="none" fill-rule="evenodd" fill="black"></path></svg>