<svg width="24" height="24" viewBox="0 0 24 24" fill="none" xmlns="http://www.w3.org/2000/svg"><path d="M4.520 1.282 C 3.810 1.314,3.439 1.381,3.103 1.541 C 2.432 1.858,2.111 2.551,2.297 3.281 C 2.386 3.633,2.538 3.947,2.859 4.443 C 3.227 5.011,5.110 7.647,5.343 7.920 C 5.719 8.359,6.102 8.589,6.621 8.687 C 7.028 8.764,16.969 8.765,17.380 8.688 C 17.891 8.592,18.294 8.347,18.672 7.903 C 18.896 7.639,20.791 4.984,21.141 4.443 C 21.462 3.947,21.614 3.633,21.703 3.281 C 21.889 2.551,21.568 1.858,20.897 1.541 C 20.551 1.377,20.193 1.316,19.341 1.278 C 18.396 1.236,5.481 1.239,4.520 1.282 M19.914 2.798 C 20.267 2.838,20.310 2.871,20.240 3.040 C 20.153 3.250,19.515 4.196,18.585 5.497 C 17.623 6.841,17.410 7.103,17.212 7.186 C 17.105 7.230,16.193 7.240,12.031 7.240 C 8.720 7.240,6.929 7.225,6.833 7.199 C 6.618 7.139,6.414 6.895,5.416 5.497 C 4.000 3.516,3.653 2.971,3.748 2.876 C 3.774 2.850,3.909 2.815,4.048 2.800 C 4.409 2.759,19.561 2.757,19.914 2.798 M1.815 11.278 C 1.331 11.393,1.098 12.004,1.383 12.408 C 1.448 12.499,1.572 12.610,1.660 12.656 C 1.815 12.738,1.880 12.740,3.875 12.752 C 6.208 12.765,6.281 12.759,6.519 12.521 C 6.918 12.122,6.731 11.423,6.189 11.286 C 5.980 11.234,2.031 11.226,1.815 11.278 M9.815 11.278 C 9.331 11.393,9.098 12.004,9.383 12.408 C 9.447 12.499,9.572 12.610,9.660 12.656 C 9.815 12.738,9.880 12.740,11.875 12.752 C 14.208 12.765,14.281 12.759,14.519 12.521 C 14.918 12.122,14.731 11.423,14.189 11.286 C 13.980 11.234,10.031 11.226,9.815 11.278 M17.815 11.278 C 17.331 11.393,17.098 12.004,17.383 12.408 C 17.448 12.499,17.572 12.610,17.660 12.656 C 17.815 12.738,17.880 12.740,19.875 12.752 C 22.208 12.765,22.281 12.759,22.519 12.521 C 22.918 12.122,22.731 11.423,22.189 11.286 C 21.980 11.234,18.031 11.226,17.815 11.278 M6.940 15.280 C 6.359 15.330,6.076 15.431,5.712 15.719 C 5.424 15.948,5.234 16.190,4.142 17.720 C 3.020 19.293,2.644 19.856,2.476 20.217 C 1.935 21.378,2.381 22.343,3.587 22.623 C 4.078 22.737,5.376 22.758,12.000 22.758 C 18.624 22.758,19.922 22.737,20.413 22.623 C 20.998 22.487,21.392 22.208,21.604 21.778 C 21.906 21.164,21.776 20.539,21.141 19.557 C 20.791 19.016,18.896 16.361,18.672 16.097 C 18.461 15.849,18.158 15.599,17.926 15.482 C 17.486 15.260,17.638 15.266,12.260 15.257 C 9.532 15.253,7.138 15.263,6.940 15.280 M17.212 16.814 C 17.410 16.897,17.623 17.159,18.585 18.503 C 19.515 19.804,20.153 20.750,20.240 20.960 C 20.310 21.129,20.267 21.162,19.914 21.202 C 19.530 21.247,4.470 21.247,4.086 21.202 C 3.925 21.184,3.772 21.148,3.747 21.123 C 3.653 21.029,4.009 20.472,5.416 18.503 C 6.381 17.152,6.622 16.859,6.814 16.804 C 6.887 16.783,9.083 16.766,12.011 16.764 C 16.196 16.761,17.105 16.769,17.212 16.814 " stroke="none" fill-rule="evenodd" fill="black"></path></svg>