<svg width="24" height="24" viewBox="0 0 24 24" fill="none" xmlns="http://www.w3.org/2000/svg"><path d="M11.815 1.277 C 11.638 1.321,11.461 1.456,11.353 1.631 L 11.260 1.780 11.260 4.000 L 11.260 6.220 11.353 6.369 C 11.710 6.943,12.576 6.812,12.716 6.162 C 12.774 5.891,12.775 2.093,12.717 1.841 C 12.623 1.432,12.215 1.177,11.815 1.277 M2.451 2.298 C 1.897 2.471,1.535 2.906,1.377 3.587 C 1.263 4.078,1.242 5.376,1.242 12.000 C 1.242 18.624,1.263 19.922,1.377 20.413 C 1.513 20.998,1.792 21.392,2.222 21.604 C 2.836 21.906,3.461 21.776,4.443 21.141 C 4.984 20.791,7.639 18.896,7.903 18.672 C 8.151 18.461,8.401 18.158,8.518 17.926 C 8.738 17.489,8.733 17.617,8.749 12.421 C 8.767 6.848,8.755 6.538,8.498 6.034 C 8.398 5.838,8.134 5.525,7.903 5.328 C 7.639 5.104,4.984 3.209,4.443 2.859 C 3.584 2.303,2.980 2.133,2.451 2.298 M20.680 2.302 C 20.357 2.391,20.027 2.555,19.557 2.859 C 18.993 3.224,16.354 5.109,16.084 5.340 C 15.674 5.690,15.451 6.036,15.330 6.509 C 15.265 6.760,15.260 7.167,15.260 11.940 C 15.260 17.420,15.260 17.412,15.449 17.852 C 15.559 18.107,15.807 18.423,16.080 18.657 C 16.353 18.890,18.989 20.773,19.557 21.141 C 20.539 21.776,21.164 21.906,21.778 21.604 C 22.208 21.392,22.487 20.998,22.623 20.413 C 22.737 19.922,22.758 18.624,22.758 12.000 C 22.758 5.376,22.737 4.078,22.623 3.587 C 22.432 2.761,21.924 2.284,21.207 2.254 C 21.016 2.245,20.817 2.264,20.680 2.302 M3.197 3.845 C 3.544 4.040,4.154 4.457,5.497 5.416 C 6.894 6.414,7.139 6.618,7.199 6.833 C 7.225 6.929,7.240 8.720,7.240 12.031 C 7.240 16.193,7.230 17.105,7.186 17.212 C 7.103 17.410,6.841 17.623,5.497 18.584 C 3.530 19.990,2.971 20.347,2.877 20.253 C 2.852 20.228,2.815 20.057,2.795 19.873 C 2.736 19.334,2.768 3.966,2.829 3.830 C 2.891 3.691,2.924 3.692,3.197 3.845 M21.171 3.830 C 21.232 3.966,21.264 19.334,21.205 19.873 C 21.185 20.057,21.148 20.228,21.123 20.253 C 21.029 20.347,20.470 19.990,18.503 18.584 C 17.159 17.623,16.897 17.410,16.814 17.212 C 16.770 17.105,16.760 16.193,16.760 12.031 C 16.760 8.720,16.775 6.929,16.801 6.833 C 16.861 6.618,17.106 6.414,18.503 5.416 C 20.247 4.170,20.925 3.723,21.071 3.721 C 21.099 3.720,21.144 3.769,21.171 3.830 M11.815 9.277 C 11.638 9.321,11.461 9.456,11.353 9.631 L 11.260 9.780 11.260 12.000 L 11.260 14.220 11.353 14.369 C 11.710 14.943,12.576 14.812,12.716 14.162 C 12.774 13.891,12.775 10.093,12.717 9.841 C 12.623 9.432,12.215 9.177,11.815 9.277 M11.815 17.277 C 11.638 17.321,11.461 17.456,11.353 17.631 L 11.260 17.780 11.260 20.000 L 11.260 22.220 11.353 22.369 C 11.710 22.943,12.576 22.812,12.716 22.162 C 12.774 21.891,12.775 18.093,12.717 17.841 C 12.623 17.432,12.215 17.177,11.815 17.277 " stroke="none" fill-rule="evenodd" fill="black"></path></svg>