<svg width="24" height="24" viewBox="0 0 24 24" fill="none" xmlns="http://www.w3.org/2000/svg"><path d="M11.660 1.278 C 11.137 1.341,10.720 1.519,10.273 1.869 C 9.888 2.171,9.514 2.711,9.380 3.160 C 9.321 3.361,9.293 3.394,9.068 3.540 C 8.786 3.723,8.568 3.990,8.463 4.283 C 8.355 4.583,8.391 5.093,8.544 5.443 C 8.861 6.163,9.295 6.686,9.913 7.096 C 10.347 7.384,10.489 7.452,10.920 7.581 L 11.220 7.671 11.230 10.537 L 11.241 13.402 10.988 13.191 C 10.850 13.075,10.013 12.467,9.129 11.840 C 8.023 11.056,7.526 10.681,7.538 10.640 C 7.547 10.607,7.598 10.454,7.653 10.299 C 7.883 9.644,7.904 8.658,7.702 7.982 C 7.504 7.318,7.156 6.766,6.789 6.533 C 6.435 6.310,5.883 6.268,5.451 6.432 L 5.250 6.508 4.895 6.389 C 4.588 6.285,4.481 6.269,4.100 6.268 C 3.389 6.267,2.819 6.455,2.309 6.860 C 1.869 7.208,1.473 7.824,1.335 8.374 C 1.244 8.733,1.245 9.354,1.337 9.739 C 1.410 10.049,1.630 10.533,1.775 10.707 C 1.858 10.806,1.866 10.845,1.842 11.030 C 1.805 11.316,1.858 11.713,1.963 11.937 C 2.089 12.205,2.360 12.488,2.606 12.607 C 3.232 12.912,4.216 12.985,4.980 12.785 C 5.466 12.657,6.017 12.390,6.352 12.120 C 6.488 12.010,6.618 11.920,6.639 11.920 C 6.722 11.920,10.035 14.324,10.256 14.545 C 10.707 14.996,11.049 15.628,11.177 16.248 C 11.230 16.509,11.240 16.918,11.240 18.896 L 11.240 21.235 10.007 21.247 L 8.774 21.260 8.612 21.367 C 8.372 21.526,8.267 21.721,8.267 22.007 C 8.267 22.203,8.286 22.270,8.383 22.408 C 8.447 22.499,8.572 22.610,8.660 22.656 C 8.818 22.739,8.865 22.740,11.878 22.751 C 14.020 22.759,15.000 22.749,15.151 22.718 C 15.722 22.599,15.934 21.894,15.522 21.482 C 15.300 21.260,15.166 21.240,13.881 21.240 L 12.757 21.240 12.770 18.770 C 12.786 15.975,12.769 16.134,13.121 15.420 C 13.314 15.027,13.571 14.690,13.900 14.394 C 14.102 14.213,17.310 11.920,17.361 11.920 C 17.382 11.920,17.512 12.010,17.648 12.120 C 17.983 12.390,18.534 12.657,19.020 12.785 C 19.783 12.985,20.768 12.912,21.392 12.608 C 21.931 12.346,22.237 11.710,22.157 11.020 C 22.136 10.839,22.147 10.803,22.267 10.636 C 22.569 10.216,22.728 9.679,22.733 9.060 C 22.738 8.577,22.656 8.217,22.448 7.813 C 22.147 7.228,21.727 6.806,21.179 6.540 C 20.774 6.343,20.418 6.267,19.900 6.267 C 19.517 6.268,19.414 6.283,19.105 6.388 L 18.750 6.508 18.549 6.432 C 18.117 6.268,17.565 6.310,17.211 6.533 C 16.844 6.766,16.496 7.318,16.298 7.982 C 16.096 8.658,16.117 9.644,16.347 10.299 C 16.402 10.454,16.453 10.607,16.462 10.640 C 16.474 10.681,15.977 11.056,14.871 11.840 C 13.987 12.467,13.150 13.075,13.012 13.191 L 12.759 13.402 12.770 10.537 L 12.780 7.671 13.080 7.581 C 13.511 7.452,13.653 7.384,14.087 7.096 C 14.705 6.686,15.139 6.163,15.456 5.443 C 15.608 5.097,15.646 4.574,15.540 4.289 C 15.432 3.999,15.180 3.690,14.918 3.526 C 14.705 3.393,14.678 3.360,14.619 3.160 C 14.435 2.537,13.923 1.929,13.280 1.568 C 12.868 1.337,12.187 1.215,11.660 1.278 M12.448 2.840 C 12.565 2.883,12.732 2.987,12.820 3.070 L 12.980 3.220 12.490 3.231 C 12.221 3.237,11.780 3.237,11.510 3.231 L 11.020 3.220 11.160 3.087 C 11.307 2.948,11.471 2.849,11.640 2.797 C 11.837 2.737,12.232 2.758,12.448 2.840 M14.037 4.947 C 13.794 5.513,13.199 6.011,12.560 6.181 C 12.439 6.213,12.187 6.239,12.000 6.239 C 11.813 6.239,11.561 6.213,11.440 6.181 C 10.801 6.011,10.206 5.513,9.963 4.947 L 9.883 4.760 12.000 4.760 L 14.117 4.760 14.037 4.947 M4.080 7.783 C 4.080 7.796,3.798 8.166,3.454 8.607 C 2.758 9.497,2.739 9.507,2.767 8.986 C 2.796 8.435,3.119 8.000,3.635 7.815 C 3.782 7.763,4.080 7.741,4.080 7.783 M20.517 7.878 C 20.947 8.098,21.210 8.504,21.234 8.986 C 21.260 9.510,21.242 9.500,20.546 8.607 C 20.202 8.166,19.920 7.792,19.920 7.777 C 19.920 7.721,20.353 7.795,20.517 7.878 M6.133 8.057 C 6.683 9.180,6.185 10.623,5.064 11.158 C 4.672 11.345,4.421 11.401,3.988 11.397 C 3.602 11.393,3.338 11.325,3.345 11.231 C 3.348 11.196,3.895 10.468,4.561 9.613 C 5.766 8.069,5.951 7.840,6.001 7.840 C 6.015 7.840,6.075 7.938,6.133 8.057 M18.126 7.950 C 18.372 8.217,20.651 11.173,20.655 11.231 C 20.666 11.376,19.940 11.453,19.472 11.356 C 18.920 11.243,18.351 10.847,18.017 10.344 C 17.586 9.695,17.524 8.756,17.867 8.057 C 17.925 7.938,17.985 7.840,17.999 7.840 C 18.013 7.840,18.071 7.890,18.126 7.950 " stroke="none" fill-rule="evenodd" fill="black"></path></svg>