<svg width="24" height="24" viewBox="0 0 24 24" fill="none" xmlns="http://www.w3.org/2000/svg"><path d="M11.480 1.283 C 10.312 1.382,9.200 1.956,8.672 2.732 C 8.585 2.860,8.489 3.023,8.459 3.096 L 8.404 3.228 8.032 3.253 C 7.562 3.284,7.313 3.359,7.039 3.550 C 6.438 3.970,6.238 4.631,6.494 5.355 C 6.868 6.411,7.635 7.273,8.792 7.937 C 9.390 8.280,10.052 8.509,10.820 8.639 L 11.220 8.707 11.230 11.555 L 11.241 14.402 10.988 14.191 C 10.850 14.075,10.013 13.467,9.129 12.840 C 8.023 12.056,7.526 11.681,7.538 11.640 C 7.547 11.607,7.598 11.454,7.653 11.299 C 7.883 10.644,7.904 9.658,7.702 8.982 C 7.504 8.318,7.156 7.766,6.789 7.533 C 6.435 7.310,5.883 7.268,5.451 7.432 L 5.250 7.508 4.895 7.389 C 4.588 7.285,4.481 7.269,4.100 7.268 C 3.389 7.267,2.819 7.455,2.309 7.860 C 1.869 8.208,1.473 8.824,1.335 9.374 C 1.244 9.733,1.245 10.354,1.337 10.739 C 1.410 11.049,1.630 11.533,1.775 11.707 C 1.858 11.806,1.866 11.845,1.842 12.030 C 1.805 12.316,1.858 12.713,1.963 12.937 C 2.089 13.205,2.360 13.488,2.606 13.607 C 3.232 13.912,4.216 13.985,4.980 13.785 C 5.466 13.657,6.017 13.390,6.352 13.120 C 6.488 13.010,6.618 12.920,6.639 12.920 C 6.722 12.920,10.035 15.324,10.256 15.545 C 10.707 15.996,11.049 16.628,11.177 17.248 C 11.229 17.503,11.240 17.874,11.240 19.396 L 11.240 21.235 10.007 21.247 L 8.774 21.260 8.612 21.367 C 8.372 21.526,8.267 21.721,8.267 22.007 C 8.267 22.203,8.286 22.270,8.383 22.408 C 8.448 22.499,8.572 22.610,8.660 22.656 C 8.818 22.739,8.865 22.740,11.878 22.751 C 14.020 22.759,15.000 22.749,15.151 22.718 C 15.722 22.599,15.934 21.894,15.522 21.482 C 15.300 21.260,15.166 21.240,13.882 21.240 L 12.760 21.240 12.770 14.973 L 12.780 8.707 13.180 8.639 C 13.948 8.509,14.610 8.280,15.208 7.937 C 16.365 7.273,17.132 6.411,17.506 5.355 C 17.761 4.633,17.561 3.969,16.961 3.550 C 16.687 3.358,16.438 3.284,15.967 3.252 C 15.625 3.230,15.590 3.220,15.558 3.135 C 15.481 2.933,15.189 2.521,14.985 2.328 C 14.353 1.730,13.465 1.364,12.441 1.279 C 12.188 1.258,11.953 1.244,11.920 1.246 C 11.887 1.249,11.689 1.266,11.480 1.283 M12.711 2.818 C 13.047 2.889,13.367 3.007,13.580 3.138 L 13.740 3.238 12.000 3.238 L 10.260 3.238 10.420 3.138 C 10.623 3.013,10.952 2.889,11.260 2.821 C 11.590 2.748,12.372 2.747,12.711 2.818 M16.098 4.850 C 16.083 4.899,16.018 5.046,15.954 5.176 C 15.525 6.050,14.537 6.770,13.326 7.091 C 12.874 7.211,12.834 7.215,12.000 7.215 C 11.166 7.215,11.126 7.211,10.674 7.091 C 9.463 6.770,8.475 6.050,8.046 5.176 C 7.982 5.046,7.917 4.899,7.902 4.850 L 7.875 4.760 12.000 4.760 L 16.125 4.760 16.098 4.850 M4.080 8.783 C 4.080 8.796,3.798 9.166,3.454 9.607 C 2.758 10.497,2.739 10.507,2.767 9.986 C 2.796 9.435,3.119 9.000,3.635 8.815 C 3.782 8.763,4.080 8.741,4.080 8.783 M6.133 9.057 C 6.683 10.180,6.185 11.623,5.064 12.158 C 4.672 12.345,4.421 12.401,3.988 12.397 C 3.602 12.393,3.338 12.325,3.345 12.231 C 3.348 12.196,3.895 11.468,4.561 10.613 C 5.766 9.069,5.951 8.840,6.001 8.840 C 6.015 8.840,6.075 8.938,6.133 9.057 " stroke="none" fill-rule="evenodd" fill="black"></path></svg>