<svg width="24" height="24" viewBox="0 0 24 24" fill="none" xmlns="http://www.w3.org/2000/svg"><path d="M12.160 1.266 C 11.734 1.289,11.230 1.369,10.807 1.481 C 8.312 2.139,6.473 4.193,6.081 6.760 C 6.024 7.129,6.023 8.174,6.079 8.500 C 6.101 8.632,6.120 8.754,6.120 8.770 C 6.120 8.787,6.044 8.800,5.950 8.800 C 5.474 8.800,4.610 9.032,4.040 9.313 C 2.923 9.864,2.014 10.864,1.576 12.026 C 1.228 12.951,1.170 14.039,1.417 15.014 L 1.516 15.403 1.391 15.580 C 1.285 15.731,1.267 15.793,1.267 16.000 C 1.267 16.204,1.285 16.269,1.383 16.408 C 1.448 16.499,1.572 16.610,1.660 16.656 L 1.820 16.740 11.880 16.751 C 19.099 16.758,22.000 16.749,22.154 16.717 C 22.568 16.631,22.804 16.250,22.711 15.816 C 22.663 15.592,22.432 15.342,22.234 15.299 C 22.057 15.261,22.029 15.242,22.071 15.186 C 22.120 15.122,22.377 14.502,22.455 14.260 C 22.747 13.351,22.814 12.037,22.616 11.060 C 22.242 9.207,20.969 7.555,19.231 6.665 L 18.830 6.459 18.732 6.080 C 18.206 4.039,16.651 2.338,14.676 1.644 C 13.876 1.363,12.953 1.224,12.160 1.266 M13.588 2.874 C 14.259 3.030,14.946 3.348,15.464 3.743 C 15.818 4.013,16.371 4.583,16.586 4.900 C 16.739 5.125,17.040 5.690,17.122 5.904 L 17.158 5.999 16.569 5.975 C 15.699 5.939,14.574 6.114,14.047 6.367 C 13.566 6.598,13.508 7.293,13.942 7.624 C 14.074 7.725,14.128 7.740,14.357 7.740 C 14.519 7.739,14.770 7.697,15.013 7.630 C 15.975 7.363,17.099 7.417,18.054 7.776 C 19.691 8.392,20.906 9.860,21.185 11.558 C 21.270 12.071,21.239 13.051,21.125 13.480 C 20.965 14.082,20.750 14.576,20.451 15.026 L 20.309 15.240 11.685 15.230 L 3.061 15.220 2.968 14.960 C 2.797 14.482,2.748 14.145,2.771 13.600 C 2.788 13.188,2.814 13.033,2.915 12.720 C 3.274 11.612,4.151 10.766,5.308 10.413 C 5.625 10.317,5.721 10.306,6.280 10.306 C 6.841 10.306,6.934 10.316,7.260 10.415 C 7.458 10.475,7.809 10.625,8.039 10.748 C 8.383 10.931,8.495 10.972,8.661 10.974 C 9.312 10.984,9.652 10.177,9.190 9.719 C 9.032 9.563,8.511 9.281,8.086 9.121 L 7.700 8.976 7.627 8.698 C 7.530 8.330,7.494 7.438,7.557 6.995 C 7.696 6.027,8.070 5.207,8.710 4.468 C 9.445 3.618,10.510 3.013,11.603 2.822 C 12.098 2.736,13.108 2.762,13.588 2.874 M4.815 18.278 C 4.331 18.393,4.098 19.004,4.383 19.408 C 4.447 19.499,4.572 19.610,4.660 19.656 L 4.820 19.740 11.880 19.751 C 16.920 19.758,19.001 19.749,19.154 19.717 C 19.902 19.562,19.929 18.473,19.189 18.286 C 18.978 18.233,5.035 18.225,4.815 18.278 M7.815 21.278 C 7.331 21.393,7.098 22.004,7.383 22.408 C 7.447 22.499,7.572 22.610,7.660 22.656 C 7.819 22.739,7.851 22.740,11.879 22.751 C 14.744 22.759,16.001 22.749,16.153 22.717 C 16.902 22.562,16.930 21.473,16.189 21.286 C 15.979 21.234,8.034 21.226,7.815 21.278 " stroke="none" fill-rule="evenodd" fill="black"></path></svg>