<svg width="24" height="24" viewBox="0 0 24 24" fill="none" xmlns="http://www.w3.org/2000/svg"><path d="M5.780 1.278 C 4.460 1.351,3.464 1.803,2.571 2.734 C 1.924 3.407,1.520 4.189,1.336 5.123 C 1.277 5.422,1.268 5.987,1.252 10.090 C 1.224 17.114,1.286 18.515,1.680 19.719 C 2.099 21.003,2.961 21.879,4.221 22.302 C 5.354 22.682,6.645 22.758,12.000 22.758 C 16.596 22.758,18.050 22.701,19.101 22.482 C 20.067 22.280,20.802 21.907,21.365 21.331 C 22.088 20.593,22.443 19.711,22.621 18.213 C 22.804 16.667,22.803 9.739,22.620 8.504 C 22.346 6.666,21.334 5.648,19.516 5.385 C 18.931 5.300,18.383 5.277,16.080 5.241 C 13.852 5.207,13.855 5.207,13.280 4.936 C 12.830 4.724,12.638 4.562,11.440 3.380 C 10.320 2.276,10.010 2.023,9.420 1.729 C 9.087 1.564,8.606 1.409,8.202 1.336 C 7.794 1.264,6.572 1.234,5.780 1.278 M8.006 2.818 C 8.375 2.896,8.770 3.060,9.100 3.271 C 9.287 3.391,9.738 3.803,10.460 4.516 C 11.614 5.655,12.022 5.992,12.558 6.248 C 13.491 6.694,13.652 6.715,16.580 6.759 C 19.050 6.795,19.373 6.818,19.883 6.994 C 20.234 7.115,20.363 7.195,20.606 7.443 C 20.783 7.624,20.858 7.742,20.955 7.994 C 21.212 8.659,21.212 8.671,21.230 12.800 C 21.250 17.368,21.214 18.151,20.939 19.099 C 20.646 20.111,20.109 20.647,19.093 20.941 C 18.624 21.077,18.125 21.148,17.260 21.201 C 16.281 21.262,6.622 21.231,6.080 21.165 C 3.815 20.891,3.111 20.187,2.834 17.920 C 2.802 17.654,2.783 15.762,2.772 11.602 C 2.755 5.094,2.746 5.376,2.988 4.771 C 3.292 4.011,4.033 3.276,4.792 2.981 C 5.279 2.792,5.500 2.767,6.660 2.764 C 7.444 2.762,7.813 2.777,8.006 2.818 M10.420 11.260 C 10.398 11.267,10.331 11.284,10.271 11.297 C 10.124 11.329,9.881 11.548,9.814 11.708 C 9.744 11.876,9.745 12.127,9.818 12.301 C 9.849 12.377,10.109 12.678,10.394 12.969 L 10.913 13.500 10.394 14.031 C 10.109 14.323,9.849 14.624,9.818 14.700 C 9.664 15.068,9.818 15.481,10.179 15.669 C 10.340 15.753,10.669 15.748,10.841 15.660 C 10.917 15.620,11.210 15.362,11.490 15.087 L 12.000 14.586 12.510 15.087 C 12.790 15.362,13.083 15.620,13.159 15.660 C 13.331 15.748,13.660 15.753,13.821 15.669 C 14.182 15.481,14.336 15.068,14.182 14.700 C 14.151 14.624,13.891 14.323,13.606 14.031 L 13.087 13.500 13.606 12.969 C 13.891 12.678,14.151 12.377,14.182 12.301 C 14.336 11.932,14.182 11.519,13.821 11.331 C 13.660 11.247,13.331 11.252,13.159 11.340 C 13.083 11.380,12.790 11.638,12.510 11.913 L 12.000 12.414 11.490 11.913 C 11.210 11.638,10.926 11.385,10.860 11.351 C 10.735 11.288,10.489 11.237,10.420 11.260 " stroke="none" fill-rule="evenodd" fill="black"></path></svg>