<svg width="24" height="24" viewBox="0 0 24 24" fill="none" xmlns="http://www.w3.org/2000/svg"><path d="M5.780 1.278 C 4.460 1.351,3.464 1.803,2.571 2.734 C 1.924 3.407,1.520 4.189,1.336 5.123 C 1.277 5.422,1.268 5.987,1.252 10.090 C 1.224 17.114,1.286 18.515,1.680 19.719 C 2.099 21.003,2.961 21.879,4.221 22.302 C 5.354 22.682,6.645 22.758,12.000 22.758 C 16.596 22.758,18.050 22.701,19.101 22.482 C 20.067 22.280,20.802 21.907,21.365 21.331 C 22.088 20.593,22.443 19.711,22.621 18.213 C 22.804 16.667,22.803 9.739,22.620 8.504 C 22.346 6.666,21.334 5.648,19.516 5.385 C 18.931 5.300,18.383 5.277,16.080 5.241 C 13.852 5.207,13.855 5.207,13.280 4.936 C 12.830 4.724,12.638 4.562,11.440 3.380 C 10.320 2.276,10.010 2.023,9.420 1.729 C 9.087 1.564,8.606 1.409,8.202 1.336 C 7.794 1.264,6.572 1.234,5.780 1.278 M8.006 2.818 C 8.375 2.896,8.770 3.060,9.100 3.271 C 9.287 3.391,9.738 3.803,10.460 4.516 C 11.614 5.655,12.022 5.992,12.558 6.248 C 13.491 6.694,13.652 6.715,16.580 6.759 C 19.050 6.795,19.373 6.818,19.883 6.994 C 20.234 7.115,20.363 7.195,20.606 7.443 C 20.783 7.624,20.858 7.742,20.955 7.994 C 21.212 8.659,21.212 8.671,21.230 12.800 C 21.250 17.368,21.214 18.151,20.939 19.099 C 20.646 20.111,20.109 20.647,19.093 20.941 C 18.624 21.077,18.125 21.148,17.260 21.201 C 16.281 21.262,6.622 21.231,6.080 21.165 C 3.815 20.891,3.111 20.187,2.834 17.920 C 2.802 17.654,2.783 15.762,2.772 11.602 C 2.755 5.094,2.746 5.376,2.988 4.771 C 3.292 4.011,4.033 3.276,4.792 2.981 C 5.279 2.792,5.500 2.767,6.660 2.764 C 7.444 2.762,7.813 2.777,8.006 2.818 M11.794 9.283 C 10.893 9.379,10.069 9.897,9.558 10.688 C 9.374 10.972,9.213 11.456,9.170 11.852 L 9.140 12.124 8.869 12.218 C 8.208 12.449,7.606 13.024,7.394 13.627 C 7.233 14.085,7.225 14.723,7.374 15.144 C 7.616 15.825,8.198 16.381,8.931 16.629 L 9.260 16.740 11.700 16.740 C 14.473 16.740,14.473 16.740,15.112 16.419 C 15.695 16.126,16.195 15.643,16.464 15.113 C 16.724 14.600,16.810 13.767,16.661 13.200 C 16.479 12.505,15.929 11.801,15.277 11.429 C 15.128 11.344,15.085 11.293,15.044 11.152 C 14.930 10.766,14.566 10.272,14.151 9.942 C 13.492 9.416,12.677 9.188,11.794 9.283 M12.900 10.916 L 13.180 11.049 12.904 11.126 C 12.587 11.215,12.438 11.308,12.326 11.491 C 12.142 11.790,12.186 12.155,12.435 12.405 C 12.653 12.623,12.859 12.667,13.247 12.578 C 14.271 12.345,15.186 12.917,15.233 13.820 C 15.261 14.367,14.961 14.831,14.410 15.092 L 14.140 15.220 11.840 15.232 C 10.318 15.240,9.491 15.230,9.396 15.203 C 9.032 15.096,8.760 14.763,8.760 14.424 C 8.760 14.190,8.806 14.078,8.981 13.884 C 9.277 13.557,9.736 13.494,10.247 13.710 C 10.416 13.782,10.613 13.840,10.685 13.840 C 11.048 13.840,11.400 13.484,11.400 13.115 C 11.400 12.757,11.257 12.552,10.870 12.356 C 10.610 12.224,10.603 12.201,10.699 11.828 C 10.771 11.555,10.899 11.342,11.097 11.168 C 11.462 10.848,11.723 10.757,12.240 10.772 C 12.575 10.781,12.653 10.798,12.900 10.916 " stroke="none" fill-rule="evenodd" fill="black"></path></svg>