<svg width="24" height="24" viewBox="0 0 24 24" fill="none" xmlns="http://www.w3.org/2000/svg"><path d="M5.780 1.278 C 4.460 1.351,3.464 1.803,2.571 2.734 C 1.910 3.422,1.508 4.211,1.333 5.164 C 1.271 5.501,1.264 5.891,1.262 8.880 L 1.260 12.220 1.353 12.369 C 1.710 12.943,2.576 12.812,2.716 12.162 C 2.746 12.022,2.760 10.953,2.760 8.796 C 2.760 5.359,2.761 5.338,2.989 4.769 C 3.284 4.031,3.996 3.312,4.733 3.006 C 5.240 2.795,5.522 2.760,6.688 2.761 C 7.828 2.761,8.056 2.789,8.546 2.983 C 9.065 3.189,9.328 3.399,10.460 4.516 C 11.614 5.655,12.022 5.992,12.558 6.248 C 13.491 6.694,13.652 6.715,16.580 6.759 C 19.050 6.795,19.373 6.818,19.883 6.994 C 20.234 7.115,20.363 7.195,20.606 7.443 C 20.783 7.624,20.858 7.742,20.955 7.994 C 21.212 8.659,21.212 8.671,21.230 12.800 C 21.250 17.361,21.214 18.151,20.941 19.093 C 20.647 20.109,20.111 20.646,19.099 20.939 C 18.110 21.226,17.489 21.249,11.500 21.229 C 6.409 21.211,6.139 21.204,5.380 21.058 C 4.189 20.829,3.509 20.331,3.159 19.429 C 3.042 19.129,2.909 18.531,2.859 18.080 C 2.823 17.757,2.784 17.651,2.647 17.506 C 2.333 17.174,1.890 17.172,1.572 17.502 C 1.363 17.720,1.334 17.857,1.396 18.355 C 1.630 20.262,2.328 21.404,3.668 22.075 C 4.834 22.659,6.043 22.758,12.000 22.758 C 16.596 22.758,18.050 22.701,19.101 22.482 C 20.067 22.280,20.802 21.907,21.365 21.331 C 22.088 20.593,22.443 19.711,22.621 18.213 C 22.804 16.667,22.803 9.739,22.620 8.504 C 22.346 6.666,21.334 5.648,19.516 5.385 C 18.931 5.300,18.383 5.277,16.080 5.241 C 13.852 5.207,13.855 5.207,13.280 4.936 C 12.830 4.724,12.638 4.562,11.440 3.380 C 10.320 2.276,10.010 2.023,9.420 1.729 C 9.087 1.564,8.606 1.409,8.202 1.336 C 7.794 1.264,6.572 1.234,5.780 1.278 M8.685 11.280 C 8.191 11.397,7.964 12.049,8.278 12.448 C 8.321 12.502,8.874 12.923,9.507 13.383 L 10.659 14.220 6.219 14.240 L 1.780 14.260 1.627 14.355 C 1.385 14.506,1.267 14.718,1.267 15.003 C 1.267 15.203,1.286 15.270,1.383 15.408 C 1.448 15.499,1.572 15.610,1.660 15.656 C 1.819 15.739,1.854 15.740,6.239 15.760 L 10.659 15.780 9.507 16.617 C 8.874 17.077,8.321 17.498,8.278 17.552 C 8.235 17.606,8.181 17.722,8.157 17.810 C 8.011 18.352,8.514 18.861,9.053 18.717 C 9.295 18.652,13.518 15.578,13.643 15.375 C 13.768 15.173,13.768 14.827,13.643 14.625 C 13.522 14.429,9.296 11.350,9.060 11.284 C 8.882 11.235,8.875 11.235,8.685 11.280 " stroke="none" fill-rule="evenodd" fill="black"></path></svg>