<svg width="24" height="24" viewBox="0 0 24 24" fill="none" xmlns="http://www.w3.org/2000/svg"><path d="M5.780 1.278 C 4.460 1.351,3.464 1.803,2.571 2.734 C 1.924 3.407,1.520 4.189,1.336 5.123 C 1.277 5.422,1.268 5.987,1.252 10.090 C 1.224 17.114,1.286 18.515,1.680 19.719 C 2.099 21.003,2.961 21.879,4.221 22.302 C 5.354 22.682,6.645 22.758,12.000 22.758 C 16.596 22.758,18.050 22.701,19.101 22.482 C 20.067 22.280,20.802 21.907,21.365 21.331 C 22.088 20.593,22.443 19.711,22.621 18.213 C 22.804 16.667,22.803 9.739,22.620 8.504 C 22.440 7.295,21.965 6.480,21.130 5.946 C 20.982 5.851,20.831 5.763,20.796 5.750 C 20.751 5.734,20.723 5.654,20.704 5.487 C 20.558 4.201,19.613 2.999,18.360 2.508 C 17.732 2.262,17.838 2.268,13.871 2.251 L 10.243 2.235 9.972 2.053 C 9.428 1.688,8.841 1.451,8.202 1.336 C 7.794 1.264,6.572 1.234,5.780 1.278 M8.006 2.818 C 8.375 2.896,8.770 3.060,9.100 3.271 C 9.287 3.391,9.738 3.803,10.460 4.516 C 11.614 5.655,12.022 5.992,12.558 6.248 C 13.491 6.694,13.652 6.715,16.580 6.759 C 19.050 6.795,19.373 6.818,19.883 6.994 C 20.234 7.115,20.363 7.195,20.606 7.443 C 20.783 7.624,20.858 7.742,20.955 7.994 C 21.212 8.659,21.212 8.671,21.230 12.800 C 21.250 17.368,21.214 18.151,20.939 19.099 C 20.646 20.111,20.109 20.647,19.093 20.941 C 18.624 21.077,18.125 21.148,17.260 21.201 C 16.281 21.262,6.622 21.231,6.080 21.165 C 3.815 20.891,3.111 20.187,2.834 17.920 C 2.802 17.654,2.783 15.762,2.772 11.602 C 2.755 5.094,2.746 5.376,2.988 4.771 C 3.292 4.011,4.033 3.276,4.792 2.981 C 5.279 2.792,5.500 2.767,6.660 2.764 C 7.444 2.762,7.813 2.777,8.006 2.818 M17.488 3.804 C 17.850 3.878,18.264 4.108,18.557 4.398 C 18.822 4.659,19.048 4.998,19.102 5.214 L 19.131 5.328 18.615 5.300 C 18.332 5.285,17.191 5.259,16.080 5.242 C 13.814 5.206,13.845 5.210,13.220 4.902 C 12.869 4.730,12.392 4.352,11.982 3.925 L 11.824 3.760 14.550 3.760 C 16.363 3.760,17.347 3.775,17.488 3.804 M12.815 9.278 C 12.331 9.393,12.098 10.004,12.383 10.408 C 12.447 10.499,12.572 10.610,12.660 10.656 C 12.817 10.738,12.873 10.740,15.377 10.751 C 17.157 10.759,17.999 10.749,18.150 10.718 C 18.902 10.562,18.931 9.473,18.189 9.286 C 17.980 9.234,13.032 9.226,12.815 9.278 " stroke="none" fill-rule="evenodd" fill="black"></path></svg>