<svg width="24" height="24" viewBox="0 0 24 24" fill="none" xmlns="http://www.w3.org/2000/svg"><path d="M5.780 1.278 C 4.460 1.351,3.464 1.803,2.571 2.734 C 1.924 3.407,1.520 4.189,1.336 5.123 C 1.277 5.422,1.268 5.987,1.252 10.090 C 1.224 17.114,1.286 18.515,1.680 19.719 C 2.099 21.003,2.961 21.879,4.221 22.302 C 5.354 22.682,6.645 22.758,12.000 22.758 C 16.596 22.758,18.050 22.701,19.101 22.482 C 20.067 22.280,20.802 21.907,21.365 21.331 C 22.088 20.593,22.443 19.711,22.621 18.213 C 22.805 16.660,22.804 9.745,22.619 8.502 C 22.347 6.667,21.333 5.648,19.516 5.385 C 18.931 5.300,18.383 5.277,16.080 5.241 C 13.852 5.207,13.855 5.207,13.280 4.936 C 12.830 4.724,12.638 4.562,11.440 3.380 C 10.320 2.276,10.010 2.023,9.420 1.729 C 9.087 1.564,8.606 1.409,8.202 1.336 C 7.794 1.264,6.572 1.234,5.780 1.278 M8.006 2.818 C 8.375 2.896,8.770 3.060,9.100 3.271 C 9.287 3.391,9.738 3.803,10.460 4.516 C 11.614 5.655,12.022 5.992,12.558 6.248 C 13.491 6.694,13.652 6.715,16.580 6.759 C 19.050 6.795,19.373 6.818,19.883 6.994 C 20.234 7.115,20.363 7.195,20.606 7.443 C 21.000 7.845,21.167 8.442,21.223 9.650 L 21.251 10.240 12.005 10.240 L 2.760 10.240 2.760 7.938 C 2.760 5.439,2.769 5.319,2.989 4.769 C 3.292 4.011,4.034 3.276,4.792 2.981 C 5.279 2.792,5.500 2.767,6.660 2.764 C 7.444 2.762,7.813 2.777,8.006 2.818 M21.240 14.231 C 21.240 17.380,21.186 18.246,20.939 19.099 C 20.646 20.111,20.109 20.647,19.093 20.941 C 18.624 21.077,18.125 21.148,17.260 21.201 C 16.281 21.262,6.622 21.231,6.080 21.165 C 3.809 20.891,3.097 20.174,2.835 17.900 C 2.806 17.651,2.782 16.415,2.771 14.630 L 2.753 11.760 11.997 11.760 L 21.240 11.760 21.240 14.231 " stroke="none" fill-rule="evenodd" fill="black"></path></svg>