<svg width="24" height="24" viewBox="0 0 24 24" fill="none" xmlns="http://www.w3.org/2000/svg"><path d="M5.780 1.278 C 4.460 1.351,3.464 1.803,2.571 2.734 C 1.924 3.407,1.520 4.189,1.336 5.123 C 1.277 5.422,1.268 5.987,1.252 10.090 C 1.224 17.114,1.286 18.515,1.680 19.719 C 2.099 21.003,2.961 21.879,4.221 22.302 C 5.354 22.682,6.645 22.758,12.000 22.758 C 16.596 22.758,18.050 22.701,19.101 22.482 C 20.067 22.280,20.802 21.907,21.365 21.331 C 22.088 20.593,22.443 19.711,22.621 18.213 C 22.804 16.667,22.803 9.739,22.620 8.504 C 22.346 6.666,21.334 5.648,19.516 5.385 C 18.931 5.300,18.383 5.277,16.080 5.241 C 13.852 5.207,13.855 5.207,13.280 4.936 C 12.830 4.724,12.638 4.562,11.440 3.380 C 10.320 2.276,10.010 2.023,9.420 1.729 C 9.087 1.564,8.606 1.409,8.202 1.336 C 7.794 1.264,6.572 1.234,5.780 1.278 M8.006 2.818 C 8.375 2.896,8.770 3.060,9.100 3.271 C 9.287 3.391,9.738 3.803,10.460 4.516 C 11.054 5.102,11.693 5.696,11.880 5.834 C 12.202 6.073,12.762 6.371,13.088 6.477 L 13.236 6.525 13.250 8.932 C 13.261 10.766,13.276 11.378,13.316 11.500 C 13.389 11.725,13.695 12.011,13.933 12.078 C 14.244 12.165,14.434 12.112,15.250 11.712 L 16.000 11.345 16.750 11.712 C 17.566 12.112,17.756 12.165,18.067 12.078 C 18.305 12.011,18.611 11.725,18.684 11.500 C 18.723 11.379,18.739 10.787,18.750 9.070 L 18.764 6.800 18.852 6.800 C 19.033 6.800,19.668 6.920,19.883 6.994 C 20.234 7.115,20.363 7.195,20.606 7.443 C 20.783 7.624,20.858 7.742,20.955 7.994 C 21.212 8.659,21.212 8.671,21.230 12.800 C 21.250 17.368,21.214 18.151,20.939 19.099 C 20.646 20.111,20.109 20.647,19.093 20.941 C 18.624 21.077,18.125 21.148,17.260 21.201 C 16.281 21.262,6.622 21.231,6.080 21.165 C 3.815 20.891,3.111 20.187,2.834 17.920 C 2.802 17.654,2.783 15.762,2.772 11.602 C 2.755 5.094,2.746 5.376,2.988 4.771 C 3.292 4.011,4.033 3.276,4.792 2.981 C 5.279 2.792,5.500 2.767,6.660 2.764 C 7.444 2.762,7.813 2.777,8.006 2.818 M16.150 6.760 L 17.240 6.760 17.240 8.518 L 17.240 10.275 16.740 10.034 C 16.052 9.701,15.948 9.701,15.260 10.034 L 14.760 10.275 14.760 8.492 L 14.760 6.710 14.910 6.734 C 14.992 6.748,15.550 6.759,16.150 6.760 " stroke="none" fill-rule="evenodd" fill="black"></path></svg>