<svg width="24" height="24" viewBox="0 0 24 24" fill="none" xmlns="http://www.w3.org/2000/svg"><path d="M5.780 1.278 C 4.460 1.351,3.464 1.803,2.571 2.734 C 1.924 3.407,1.520 4.189,1.336 5.123 C 1.277 5.422,1.268 5.987,1.252 10.090 C 1.224 17.114,1.286 18.515,1.680 19.719 C 2.099 21.003,2.961 21.879,4.221 22.302 C 5.354 22.682,6.645 22.758,12.000 22.758 C 16.596 22.758,18.050 22.701,19.101 22.482 C 20.067 22.280,20.802 21.907,21.365 21.331 C 22.088 20.593,22.443 19.711,22.621 18.213 C 22.804 16.667,22.803 9.739,22.620 8.504 C 22.346 6.666,21.334 5.648,19.516 5.385 C 18.931 5.300,18.383 5.277,16.080 5.241 C 13.852 5.207,13.855 5.207,13.280 4.936 C 12.830 4.724,12.638 4.562,11.440 3.380 C 10.320 2.276,10.010 2.023,9.420 1.729 C 9.087 1.564,8.606 1.409,8.202 1.336 C 7.794 1.264,6.572 1.234,5.780 1.278 M8.006 2.818 C 8.375 2.896,8.770 3.060,9.100 3.271 C 9.287 3.391,9.738 3.803,10.460 4.516 C 11.614 5.655,12.022 5.992,12.558 6.248 C 13.491 6.694,13.652 6.715,16.580 6.759 C 19.050 6.795,19.373 6.818,19.883 6.994 C 20.234 7.115,20.363 7.195,20.606 7.443 C 20.783 7.624,20.858 7.742,20.955 7.994 C 21.212 8.659,21.212 8.671,21.230 12.800 C 21.250 17.368,21.214 18.151,20.939 19.099 C 20.646 20.111,20.109 20.647,19.093 20.941 C 18.624 21.077,18.125 21.148,17.260 21.201 C 16.281 21.262,6.622 21.231,6.080 21.165 C 3.815 20.891,3.111 20.187,2.834 17.920 C 2.802 17.654,2.783 15.762,2.772 11.602 C 2.755 5.094,2.746 5.376,2.988 4.771 C 3.292 4.011,4.033 3.276,4.792 2.981 C 5.279 2.792,5.500 2.767,6.660 2.764 C 7.444 2.762,7.813 2.777,8.006 2.818 M11.820 9.280 C 11.334 9.355,11.063 9.648,10.416 10.795 C 10.343 10.926,10.319 10.935,9.735 11.082 C 9.403 11.165,9.054 11.272,8.961 11.319 C 8.528 11.540,8.266 11.941,8.272 12.373 C 8.279 12.817,8.430 13.105,9.029 13.811 L 9.327 14.162 9.278 14.745 C 9.197 15.709,9.272 16.077,9.617 16.422 C 9.845 16.650,10.079 16.739,10.424 16.731 C 10.705 16.725,10.896 16.667,11.490 16.411 L 12.002 16.190 12.511 16.412 C 13.094 16.666,13.290 16.725,13.576 16.731 C 13.921 16.739,14.155 16.650,14.383 16.422 C 14.728 16.077,14.803 15.709,14.722 14.746 L 14.673 14.164 15.003 13.772 C 15.570 13.099,15.720 12.810,15.727 12.380 C 15.734 11.941,15.475 11.542,15.039 11.319 C 14.946 11.272,14.597 11.165,14.265 11.082 C 13.681 10.935,13.657 10.926,13.584 10.795 C 13.049 9.847,12.794 9.520,12.471 9.371 C 12.270 9.277,12.043 9.246,11.820 9.280 M12.218 11.410 C 12.632 12.146,12.764 12.248,13.551 12.441 C 13.801 12.502,14.014 12.561,14.024 12.571 C 14.034 12.580,13.894 12.766,13.714 12.984 C 13.534 13.202,13.342 13.478,13.287 13.597 C 13.191 13.807,13.189 13.831,13.213 14.447 C 13.229 14.860,13.224 15.080,13.198 15.080 C 13.176 15.080,13.053 15.027,12.925 14.962 C 12.577 14.787,12.227 14.680,12.000 14.680 C 11.785 14.680,11.426 14.785,11.124 14.937 C 11.023 14.988,10.900 15.042,10.851 15.057 L 10.762 15.085 10.787 14.449 C 10.811 13.830,10.809 13.808,10.713 13.597 C 10.658 13.478,10.466 13.202,10.286 12.984 C 10.106 12.766,9.966 12.580,9.976 12.571 C 9.986 12.561,10.199 12.502,10.449 12.441 C 11.236 12.248,11.368 12.146,11.782 11.410 C 11.884 11.228,11.982 11.080,12.000 11.080 C 12.018 11.080,12.116 11.228,12.218 11.410 " stroke="none" fill-rule="evenodd" fill="black"></path></svg>