<svg width="24" height="24" viewBox="0 0 24 24" fill="none" xmlns="http://www.w3.org/2000/svg"><path d="M7.520 1.281 C 6.617 1.343,5.911 1.655,5.266 2.275 C 4.809 2.715,4.525 3.196,4.354 3.820 C 4.269 4.132,4.266 4.208,4.250 7.000 C 4.232 10.059,4.280 12.225,4.378 12.822 C 4.518 13.668,4.776 14.220,5.258 14.702 C 5.624 15.068,5.995 15.283,6.560 15.457 C 7.158 15.641,7.549 15.677,9.450 15.728 L 11.240 15.776 11.240 16.562 L 11.240 17.349 11.010 17.434 C 10.349 17.676,9.676 18.349,9.434 19.009 L 9.350 19.238 5.562 19.249 L 1.774 19.260 1.612 19.367 C 1.372 19.526,1.267 19.721,1.267 20.007 C 1.267 20.203,1.286 20.270,1.383 20.408 C 1.447 20.499,1.572 20.610,1.660 20.656 C 1.819 20.739,1.855 20.740,5.587 20.751 L 9.354 20.762 9.402 20.911 C 9.526 21.305,9.916 21.851,10.273 22.131 C 10.818 22.558,11.315 22.731,12.000 22.731 C 12.685 22.731,13.182 22.558,13.727 22.131 C 14.084 21.851,14.474 21.305,14.599 20.910 L 14.646 20.760 18.301 20.760 C 20.819 20.760,22.020 20.746,22.162 20.716 C 22.904 20.557,22.924 19.471,22.189 19.286 C 22.056 19.253,20.982 19.240,18.328 19.240 L 14.651 19.240 14.566 19.010 C 14.324 18.349,13.651 17.676,12.990 17.434 L 12.760 17.349 12.760 16.562 L 12.760 15.776 14.550 15.728 C 16.451 15.677,16.842 15.641,17.440 15.457 C 18.488 15.135,19.169 14.468,19.477 13.462 C 19.629 12.968,19.680 12.492,19.725 11.160 C 19.773 9.756,19.745 6.861,19.679 6.361 C 19.579 5.596,19.367 5.119,18.944 4.698 C 18.490 4.248,17.965 4.024,17.120 3.921 C 16.933 3.898,16.078 3.869,15.220 3.856 C 14.362 3.843,13.555 3.817,13.428 3.798 C 12.939 3.726,12.673 3.547,11.626 2.584 C 10.809 1.833,10.498 1.630,9.854 1.427 C 9.311 1.255,8.565 1.209,7.520 1.281 M9.481 2.871 C 9.841 3.014,10.077 3.188,10.726 3.786 C 11.702 4.686,11.936 4.857,12.493 5.080 C 13.053 5.304,13.251 5.324,15.240 5.360 C 17.414 5.399,17.587 5.426,17.904 5.767 C 18.067 5.942,18.147 6.160,18.198 6.566 C 18.253 6.998,18.253 11.425,18.199 12.091 C 18.072 13.662,17.625 14.077,15.933 14.199 C 15.214 14.251,8.786 14.251,8.067 14.199 C 6.663 14.098,6.146 13.784,5.918 12.893 C 5.776 12.338,5.755 11.625,5.768 7.820 L 5.780 4.180 5.880 3.945 C 6.021 3.615,6.438 3.173,6.770 3.005 C 7.215 2.779,7.326 2.763,8.340 2.774 C 9.181 2.782,9.279 2.791,9.481 2.871 M13.180 6.835 C 12.990 6.923,12.904 7.012,12.822 7.210 C 12.708 7.483,12.783 7.869,12.986 8.048 C 13.194 8.234,13.263 8.240,15.009 8.239 C 16.525 8.238,16.673 8.232,16.820 8.165 C 17.010 8.077,17.096 7.988,17.178 7.790 C 17.257 7.602,17.257 7.398,17.178 7.210 C 17.096 7.012,17.010 6.923,16.820 6.835 C 16.673 6.768,16.526 6.762,15.000 6.762 C 13.474 6.762,13.327 6.768,13.180 6.835 M12.454 18.841 C 12.744 18.950,13.050 19.256,13.159 19.546 C 13.335 20.017,13.227 20.521,12.874 20.874 C 12.390 21.359,11.624 21.367,11.143 20.893 C 10.841 20.594,10.780 20.446,10.780 20.000 C 10.780 19.687,10.795 19.592,10.867 19.458 C 11.024 19.165,11.351 18.885,11.640 18.797 C 11.838 18.737,12.232 18.758,12.454 18.841 " stroke="none" fill-rule="evenodd" fill="black"></path></svg>