<svg width="24" height="24" viewBox="0 0 24 24" fill="none" xmlns="http://www.w3.org/2000/svg"><path d="M5.780 1.278 C 4.460 1.351,3.464 1.803,2.571 2.734 C 1.924 3.407,1.520 4.189,1.336 5.123 C 1.277 5.422,1.268 5.987,1.252 10.090 C 1.224 17.114,1.286 18.515,1.680 19.719 C 2.099 21.003,2.961 21.879,4.221 22.302 C 5.354 22.682,6.645 22.758,12.000 22.758 C 16.596 22.758,18.050 22.701,19.101 22.482 C 20.067 22.280,20.802 21.907,21.365 21.331 C 22.088 20.593,22.443 19.711,22.621 18.213 C 22.804 16.667,22.803 9.739,22.620 8.504 C 22.346 6.666,21.334 5.648,19.516 5.385 C 18.931 5.300,18.383 5.277,16.080 5.241 C 13.852 5.207,13.855 5.207,13.280 4.936 C 12.830 4.724,12.638 4.562,11.440 3.380 C 10.320 2.276,10.010 2.023,9.420 1.729 C 9.087 1.564,8.606 1.409,8.202 1.336 C 7.794 1.264,6.572 1.234,5.780 1.278 M8.006 2.818 C 8.375 2.896,8.770 3.060,9.100 3.271 C 9.287 3.391,9.738 3.803,10.460 4.516 C 11.614 5.655,12.022 5.992,12.558 6.248 C 13.491 6.694,13.652 6.715,16.580 6.759 C 19.050 6.795,19.373 6.818,19.883 6.994 C 20.234 7.115,20.363 7.195,20.606 7.443 C 20.783 7.624,20.858 7.742,20.955 7.994 C 21.212 8.659,21.212 8.671,21.230 12.800 C 21.250 17.368,21.214 18.151,20.939 19.099 C 20.646 20.111,20.109 20.647,19.093 20.941 C 18.624 21.077,18.125 21.148,17.260 21.201 C 16.281 21.262,6.622 21.231,6.080 21.165 C 3.815 20.891,3.111 20.187,2.834 17.920 C 2.802 17.654,2.783 15.762,2.772 11.602 C 2.755 5.094,2.746 5.376,2.988 4.771 C 3.292 4.011,4.033 3.276,4.792 2.981 C 5.279 2.792,5.500 2.767,6.660 2.764 C 7.444 2.762,7.813 2.777,8.006 2.818 M11.660 10.278 C 10.570 10.409,9.646 11.204,9.357 12.260 C 9.180 12.907,9.267 13.744,9.568 14.280 C 9.910 14.890,10.519 15.418,11.087 15.598 L 11.234 15.644 11.247 16.672 C 11.261 17.812,11.266 17.834,11.537 18.072 C 11.877 18.371,12.411 18.258,12.660 17.836 C 12.733 17.711,12.741 17.615,12.753 16.672 L 12.766 15.644 12.913 15.598 C 13.481 15.418,14.090 14.890,14.432 14.280 C 14.832 13.566,14.832 12.434,14.432 11.720 C 13.857 10.694,12.796 10.142,11.660 10.278 M12.454 11.841 C 12.744 11.950,13.050 12.256,13.159 12.546 C 13.335 13.017,13.227 13.521,12.874 13.874 C 12.390 14.359,11.624 14.367,11.143 13.893 C 10.841 13.594,10.780 13.446,10.780 13.000 C 10.780 12.687,10.795 12.592,10.867 12.458 C 11.024 12.165,11.351 11.885,11.640 11.797 C 11.838 11.737,12.232 11.758,12.454 11.841 " stroke="none" fill-rule="evenodd" fill="black"></path></svg>