<svg width="24" height="24" viewBox="0 0 24 24" fill="none" xmlns="http://www.w3.org/2000/svg"><path d="M6.920 1.282 C 5.140 1.390,3.726 2.564,3.334 4.260 C 3.277 4.503,3.266 4.990,3.251 7.939 L 3.233 11.337 3.083 11.519 C 2.562 12.150,2.350 12.688,2.281 13.552 C 2.220 14.310,2.366 15.537,2.801 17.932 C 3.168 19.957,3.341 20.546,3.749 21.178 C 4.232 21.924,4.964 22.404,5.921 22.601 C 6.544 22.729,7.604 22.756,12.000 22.756 C 16.396 22.756,17.456 22.729,18.079 22.601 C 18.811 22.450,19.350 22.172,19.822 21.702 C 20.240 21.285,20.494 20.843,20.717 20.143 C 20.915 19.523,21.300 17.515,21.578 15.649 C 21.897 13.504,21.741 12.524,20.919 11.520 L 20.772 11.340 20.746 9.420 C 20.732 8.364,20.702 7.324,20.679 7.109 C 20.512 5.556,19.684 4.635,18.226 4.383 C 17.755 4.301,17.273 4.277,15.320 4.241 C 13.847 4.214,13.546 4.198,13.360 4.140 C 12.872 3.987,12.647 3.820,11.509 2.764 C 10.787 2.093,10.489 1.866,10.060 1.660 C 9.290 1.289,8.465 1.189,6.920 1.282 M9.081 2.871 C 9.510 3.013,9.799 3.223,10.650 4.008 C 11.705 4.982,11.831 5.080,12.337 5.331 C 13.059 5.690,13.290 5.720,15.680 5.761 C 16.791 5.781,17.803 5.816,17.930 5.839 C 18.776 5.994,19.099 6.374,19.200 7.333 C 19.237 7.681,19.258 10.480,19.224 10.480 C 19.215 10.480,18.995 10.444,18.734 10.399 C 18.036 10.280,16.408 10.242,12.000 10.242 C 7.592 10.242,5.964 10.280,5.266 10.399 C 5.005 10.444,4.785 10.480,4.776 10.480 C 4.767 10.480,4.760 9.180,4.760 7.590 C 4.761 5.213,4.771 4.662,4.818 4.485 C 5.028 3.698,5.688 3.064,6.534 2.838 C 6.786 2.770,6.939 2.763,7.820 2.773 C 8.720 2.783,8.846 2.793,9.081 2.871 M17.859 11.801 C 18.869 11.874,19.393 12.060,19.765 12.477 C 20.356 13.140,20.383 13.775,19.936 16.480 C 19.573 18.684,19.335 19.737,19.093 20.215 C 18.954 20.489,18.573 20.860,18.305 20.983 C 17.765 21.230,18.037 21.220,12.000 21.220 C 5.963 21.220,6.235 21.230,5.695 20.983 C 5.427 20.860,5.046 20.489,4.907 20.215 C 4.670 19.746,4.462 18.841,4.103 16.720 C 3.851 15.234,3.760 14.502,3.760 13.977 C 3.760 13.237,3.873 12.883,4.243 12.468 C 4.597 12.071,5.147 11.869,6.052 11.804 C 6.723 11.755,17.193 11.753,17.859 11.801 M9.815 16.278 C 9.331 16.393,9.098 17.004,9.383 17.408 C 9.447 17.499,9.572 17.610,9.660 17.656 C 9.815 17.738,9.880 17.740,11.875 17.752 C 14.208 17.765,14.281 17.759,14.519 17.521 C 14.918 17.122,14.731 16.423,14.189 16.286 C 13.980 16.234,10.031 16.226,9.815 16.278 " stroke="none" fill-rule="evenodd" fill="black"></path></svg>