<svg width="24" height="24" viewBox="0 0 24 24" fill="none" xmlns="http://www.w3.org/2000/svg"><path d="M11.520 1.267 C 7.626 1.425,4.085 3.742,2.361 7.260 C 1.855 8.291,1.535 9.321,1.353 10.500 C 1.229 11.301,1.229 12.699,1.353 13.500 C 1.839 16.647,3.530 19.299,6.140 21.010 C 8.380 22.477,11.155 23.054,13.783 22.598 C 16.008 22.211,17.957 21.205,19.543 19.622 C 20.436 18.731,21.087 17.828,21.619 16.740 C 22.180 15.593,22.449 14.689,22.665 13.220 C 22.737 12.731,22.742 11.706,22.677 11.000 C 22.514 9.251,21.908 7.528,20.948 6.091 C 20.471 5.376,20.175 5.012,19.581 4.416 C 17.888 2.712,15.656 1.618,13.316 1.344 C 12.776 1.281,11.994 1.247,11.520 1.267 M13.372 2.857 C 13.910 2.942,14.487 3.081,14.472 3.121 C 14.457 3.164,13.281 3.990,12.869 4.248 C 12.061 4.752,11.813 4.722,10.780 3.988 C 10.150 3.540,9.580 3.112,9.580 3.086 C 9.580 3.040,10.670 2.833,11.160 2.786 C 11.537 2.750,12.990 2.796,13.372 2.857 M8.936 4.499 C 10.137 5.384,10.623 5.709,10.986 5.867 L 11.240 5.978 11.240 7.325 L 11.240 8.672 11.110 8.749 C 11.038 8.791,10.511 9.186,9.937 9.626 L 8.894 10.426 7.647 9.903 L 6.401 9.380 6.400 9.105 C 6.400 8.732,6.262 8.089,5.869 6.622 L 5.537 5.384 5.818 5.125 C 6.233 4.743,6.876 4.278,7.397 3.981 C 7.650 3.838,7.862 3.720,7.868 3.720 C 7.875 3.720,8.355 4.071,8.936 4.499 M16.898 4.171 C 17.310 4.428,17.864 4.848,18.216 5.170 L 18.492 5.422 18.128 6.801 C 17.725 8.324,17.640 8.726,17.640 9.103 C 17.640 9.304,17.625 9.365,17.570 9.395 C 17.532 9.415,16.952 9.659,16.282 9.936 L 15.064 10.440 14.962 10.345 C 14.796 10.191,13.115 8.914,12.931 8.803 L 12.763 8.700 12.762 7.340 L 12.761 5.980 13.110 5.820 C 13.495 5.645,14.065 5.273,15.340 4.367 L 16.180 3.771 16.378 3.870 C 16.487 3.925,16.721 4.060,16.898 4.171 M4.574 7.600 C 4.832 8.581,4.887 8.857,4.894 9.200 C 4.904 9.729,4.738 9.915,3.531 10.725 C 3.013 11.073,2.816 11.186,2.807 11.141 C 2.781 11.018,2.926 10.169,3.064 9.640 C 3.208 9.084,3.465 8.391,3.709 7.900 C 3.949 7.417,4.336 6.798,4.364 6.850 C 4.378 6.878,4.473 7.215,4.574 7.600 M20.017 7.435 C 20.483 8.252,20.852 9.240,21.035 10.160 C 21.118 10.579,21.198 11.160,21.172 11.160 C 21.164 11.160,20.865 10.964,20.506 10.724 C 19.177 9.836,19.040 9.641,19.178 8.834 C 19.214 8.628,19.335 8.104,19.449 7.670 C 19.617 7.029,19.666 6.889,19.707 6.930 C 19.735 6.958,19.875 7.185,20.017 7.435 M12.093 10.046 C 12.294 10.153,14.009 11.496,14.045 11.575 C 14.077 11.644,14.006 11.918,13.705 12.894 C 13.496 13.572,13.303 14.152,13.277 14.183 C 13.239 14.230,13.014 14.240,12.001 14.240 C 10.875 14.240,10.767 14.234,10.708 14.169 C 10.637 14.091,9.920 11.814,9.920 11.667 C 9.920 11.515,9.852 11.573,11.491 10.328 C 11.728 10.147,11.941 10.000,11.964 10.000 C 11.987 10.000,12.045 10.021,12.093 10.046 M6.947 11.234 C 7.515 11.473,8.075 11.710,8.191 11.760 C 8.350 11.828,8.407 11.876,8.424 11.955 C 8.462 12.122,9.245 14.654,9.279 14.720 C 9.318 14.793,8.045 16.423,7.957 16.414 C 7.926 16.411,7.738 16.377,7.540 16.340 C 7.248 16.284,6.860 16.268,5.480 16.254 L 3.780 16.236 3.675 16.028 C 3.345 15.375,2.990 14.251,2.882 13.520 C 2.858 13.355,2.830 13.172,2.821 13.114 C 2.805 13.014,2.866 12.967,3.772 12.369 C 4.886 11.634,5.284 11.346,5.620 11.029 C 5.752 10.905,5.872 10.802,5.887 10.801 C 5.901 10.801,6.378 10.996,6.947 11.234 M18.415 11.027 C 18.759 11.346,19.156 11.635,20.229 12.343 C 21.014 12.861,21.160 12.973,21.160 13.054 C 21.160 13.258,20.992 14.100,20.860 14.559 C 20.727 15.021,20.452 15.744,20.280 16.080 L 20.198 16.240 19.069 16.241 C 17.735 16.243,16.795 16.292,16.419 16.379 C 16.269 16.414,16.133 16.428,16.117 16.411 C 16.101 16.394,15.772 16.014,15.386 15.567 C 14.723 14.798,14.687 14.747,14.726 14.647 C 14.797 14.463,15.519 12.106,15.543 11.978 C 15.565 11.859,15.602 11.840,16.833 11.329 C 17.530 11.040,18.116 10.802,18.135 10.802 C 18.154 10.801,18.280 10.902,18.415 11.027 M14.242 16.536 C 14.615 16.967,14.920 17.331,14.920 17.345 C 14.920 17.359,14.822 17.571,14.702 17.815 C 14.564 18.098,14.314 18.770,14.017 19.660 C 13.759 20.430,13.524 21.080,13.493 21.105 C 13.389 21.190,12.447 21.253,11.655 21.228 C 11.240 21.215,10.848 21.189,10.785 21.170 C 10.674 21.138,10.652 21.084,10.202 19.758 C 9.697 18.271,9.549 17.890,9.344 17.549 L 9.212 17.329 9.491 16.975 C 9.644 16.780,9.926 16.422,10.117 16.180 L 10.464 15.740 12.014 15.746 L 13.563 15.753 14.242 16.536 M7.161 17.802 C 7.742 17.874,7.920 18.008,8.180 18.573 C 8.335 18.908,8.940 20.673,8.910 20.703 C 8.878 20.736,8.298 20.492,7.780 20.229 C 6.743 19.701,5.764 18.928,4.965 18.005 L 4.752 17.760 5.787 17.760 C 6.356 17.760,6.975 17.779,7.161 17.802 M19.115 17.890 C 19.065 17.962,18.789 18.255,18.502 18.541 C 17.685 19.356,16.801 19.972,15.791 20.429 C 15.528 20.548,15.305 20.638,15.296 20.629 C 15.269 20.602,15.868 18.860,16.011 18.550 C 16.250 18.035,16.469 17.867,16.989 17.800 C 17.116 17.784,17.667 17.768,18.213 17.765 L 19.205 17.760 19.115 17.890 " fill="#1C274C" stroke="none" fill-rule="evenodd"></path></svg>