<svg width="24" height="24" viewBox="0 0 24 24" fill="none" xmlns="http://www.w3.org/2000/svg"><path d="M11.320 1.281 C 7.041 1.525,3.252 4.409,1.843 8.497 C 1.180 10.418,1.082 12.560,1.564 14.550 C 2.505 18.428,5.572 21.495,9.450 22.436 C 11.106 22.837,12.894 22.837,14.550 22.436 C 18.428 21.495,21.495 18.428,22.436 14.550 C 22.837 12.894,22.837 11.106,22.436 9.450 C 21.425 5.282,17.985 2.095,13.742 1.398 C 13.334 1.331,12.074 1.229,11.880 1.247 C 11.847 1.250,11.595 1.265,11.320 1.281 M13.146 2.822 C 14.200 2.960,15.123 3.237,16.062 3.697 C 16.666 3.993,17.465 4.497,17.800 4.795 L 17.980 4.955 11.467 11.467 L 4.955 17.980 4.795 17.800 C 4.497 17.465,3.993 16.666,3.697 16.062 C 2.779 14.188,2.522 12.061,2.966 10.002 C 3.177 9.020,3.703 7.775,4.268 6.920 C 5.750 4.677,8.131 3.188,10.820 2.823 C 11.380 2.746,12.569 2.746,13.146 2.822 M19.293 6.310 C 20.070 7.276,20.765 8.750,21.034 10.002 C 21.244 10.974,21.301 12.214,21.178 13.146 C 20.948 14.907,20.211 16.609,19.121 17.900 C 18.247 18.935,17.240 19.726,16.060 20.304 C 14.761 20.940,13.462 21.240,12.000 21.240 C 10.538 21.240,9.239 20.940,7.938 20.303 C 7.334 20.007,6.535 19.503,6.200 19.205 L 6.020 19.045 12.520 12.543 C 16.095 8.966,19.033 6.040,19.048 6.040 C 19.064 6.040,19.174 6.162,19.293 6.310 " stroke="none" fill-rule="evenodd" fill="black"></path></svg>