<svg width="24" height="24" viewBox="0 0 24 24" fill="none" xmlns="http://www.w3.org/2000/svg"><path d="M9.580 1.278 C 8.517 1.340,8.019 1.516,7.291 2.087 C 6.886 2.404,2.404 6.886,2.087 7.291 C 1.640 7.860,1.450 8.278,1.330 8.960 C 1.272 9.290,1.263 9.689,1.263 12.000 C 1.263 14.311,1.272 14.710,1.330 15.040 C 1.450 15.722,1.640 16.140,2.087 16.709 C 2.404 17.114,6.886 21.596,7.291 21.913 C 7.860 22.360,8.278 22.550,8.960 22.670 C 9.290 22.728,9.689 22.737,12.000 22.737 C 14.311 22.737,14.710 22.728,15.040 22.670 C 15.722 22.550,16.140 22.360,16.709 21.913 C 17.114 21.596,21.596 17.114,21.913 16.709 C 22.360 16.140,22.550 15.722,22.670 15.040 C 22.728 14.710,22.737 14.311,22.737 12.000 C 22.737 9.689,22.728 9.290,22.670 8.960 C 22.550 8.278,22.360 7.860,21.913 7.291 C 21.596 6.886,17.114 2.404,16.709 2.087 C 16.144 1.643,15.718 1.449,15.060 1.335 C 14.768 1.284,14.263 1.270,12.400 1.260 C 11.135 1.253,9.866 1.262,9.580 1.278 M15.120 2.874 C 15.523 3.019,15.827 3.264,16.832 4.258 L 17.763 5.180 11.470 11.472 L 5.176 17.764 4.257 16.832 C 3.263 15.825,3.019 15.522,2.874 15.120 L 2.780 14.860 2.780 12.000 L 2.780 9.140 2.874 8.880 C 2.925 8.737,3.049 8.503,3.150 8.360 C 3.395 8.009,8.017 3.389,8.360 3.152 C 8.647 2.953,8.879 2.854,9.181 2.802 C 9.291 2.783,10.613 2.770,12.120 2.774 L 14.860 2.780 15.120 2.874 M20.848 8.360 C 20.949 8.503,21.075 8.737,21.126 8.880 L 21.220 9.140 21.220 12.000 L 21.220 14.860 21.126 15.120 C 21.075 15.263,20.951 15.497,20.850 15.640 C 20.608 15.985,15.985 20.608,15.640 20.850 C 15.497 20.951,15.263 21.075,15.120 21.126 L 14.860 21.220 12.000 21.220 L 9.140 21.220 8.880 21.126 C 8.478 20.981,8.175 20.737,7.168 19.743 L 6.236 18.824 12.528 12.530 L 18.820 6.237 19.742 7.168 C 20.248 7.681,20.746 8.217,20.848 8.360 " stroke="none" fill-rule="evenodd" fill="black"></path></svg>