<svg width="24" height="24" viewBox="0 0 24 24" fill="none" xmlns="http://www.w3.org/2000/svg"><path d="M14.420 6.260 C 14.398 6.267,14.331 6.284,14.271 6.297 C 14.124 6.329,13.881 6.548,13.814 6.708 C 13.742 6.880,13.746 7.128,13.822 7.311 C 13.864 7.411,14.491 8.067,15.768 9.347 L 17.653 11.235 13.256 11.251 C 8.466 11.269,8.683 11.259,7.823 11.502 C 5.852 12.060,4.435 13.460,3.960 15.319 C 3.788 15.995,3.706 17.011,3.803 17.267 C 3.905 17.540,4.193 17.731,4.500 17.731 C 4.740 17.731,4.904 17.655,5.072 17.463 C 5.210 17.305,5.218 17.272,5.278 16.546 C 5.323 16.001,5.418 15.562,5.569 15.200 C 6.007 14.149,6.846 13.398,8.024 13.003 C 8.762 12.756,8.672 12.760,13.374 12.760 L 17.658 12.760 15.771 14.650 C 14.483 15.940,13.864 16.587,13.822 16.689 C 13.664 17.068,13.813 17.478,14.179 17.669 C 14.338 17.752,14.668 17.748,14.841 17.662 C 15.053 17.555,20.102 12.494,20.178 12.311 C 20.257 12.122,20.257 11.878,20.178 11.689 C 20.106 11.515,15.056 6.445,14.860 6.349 C 14.733 6.287,14.487 6.237,14.420 6.260 " stroke="none" fill-rule="evenodd" fill="black"></path></svg>