<svg width="24" height="24" viewBox="0 0 24 24" fill="none" xmlns="http://www.w3.org/2000/svg"><path d="M4.420 6.260 C 4.398 6.267,4.331 6.284,4.271 6.297 C 4.124 6.329,3.881 6.548,3.814 6.708 C 3.705 6.970,3.779 7.970,3.960 8.681 C 4.492 10.764,6.131 12.196,8.520 12.666 C 8.822 12.725,9.353 12.734,13.257 12.749 L 17.654 12.765 15.769 14.652 C 14.482 15.941,13.864 16.587,13.822 16.689 C 13.664 17.068,13.813 17.478,14.179 17.669 C 14.338 17.752,14.668 17.748,14.841 17.662 C 15.053 17.555,20.102 12.494,20.178 12.311 C 20.257 12.122,20.257 11.878,20.178 11.689 C 20.102 11.506,15.053 6.445,14.841 6.338 C 14.668 6.252,14.338 6.248,14.179 6.331 C 13.813 6.522,13.664 6.932,13.822 7.311 C 13.864 7.411,14.491 8.067,15.770 9.349 L 17.657 11.240 13.374 11.240 C 8.672 11.240,8.762 11.244,8.024 10.997 C 6.846 10.602,6.007 9.851,5.569 8.800 C 5.418 8.438,5.323 7.999,5.278 7.454 C 5.255 7.172,5.227 6.881,5.216 6.809 C 5.194 6.663,5.003 6.424,4.844 6.343 C 4.732 6.287,4.485 6.238,4.420 6.260 " stroke="none" fill-rule="evenodd" fill="black"></path></svg>