<svg width="24" height="24" viewBox="0 0 24 24" fill="none" xmlns="http://www.w3.org/2000/svg"><path d="M13.135 3.921 C 12.919 3.988,12.627 4.212,12.512 4.400 C 12.303 4.743,12.273 4.971,12.246 6.477 L 12.220 7.857 11.800 7.908 C 10.188 8.106,8.699 8.693,7.420 9.634 C 6.868 10.040,5.943 10.986,5.534 11.561 C 4.331 13.255,3.620 15.315,3.358 17.860 C 3.286 18.570,3.243 19.963,3.287 20.174 C 3.370 20.563,3.788 20.820,4.171 20.717 C 4.431 20.647,4.543 20.543,4.765 20.167 C 5.460 18.989,6.555 18.041,8.060 17.316 C 9.355 16.693,10.502 16.372,11.990 16.218 L 12.240 16.192 12.242 17.146 C 12.246 19.263,12.341 19.657,12.926 19.981 C 13.111 20.084,13.181 20.100,13.440 20.099 C 13.809 20.098,14.058 19.988,14.508 19.631 C 15.143 19.127,19.889 14.880,20.483 14.284 C 21.158 13.608,21.436 13.222,21.609 12.723 C 21.683 12.509,21.700 12.375,21.700 12.000 C 21.700 11.446,21.624 11.188,21.313 10.677 C 21.001 10.165,20.199 9.394,17.335 6.851 C 14.566 4.392,14.314 4.180,13.974 4.019 C 13.720 3.899,13.348 3.855,13.135 3.921 M16.287 7.919 C 17.636 9.118,19.021 10.378,19.364 10.719 C 20.532 11.882,20.532 12.118,19.364 13.281 C 18.832 13.810,13.898 18.236,13.799 18.273 C 13.780 18.280,13.759 17.596,13.752 16.753 C 13.739 15.066,13.742 15.086,13.482 14.868 C 13.277 14.695,13.118 14.666,12.542 14.696 C 9.710 14.842,7.143 15.772,5.261 17.336 C 5.063 17.500,4.895 17.628,4.887 17.621 C 4.861 17.595,5.083 16.367,5.200 15.888 C 6.116 12.135,8.594 9.791,12.080 9.379 C 12.355 9.347,12.702 9.320,12.851 9.320 C 13.255 9.320,13.515 9.187,13.674 8.900 C 13.732 8.795,13.742 8.583,13.752 7.247 C 13.759 6.404,13.780 5.720,13.799 5.727 C 13.818 5.734,14.937 6.721,16.287 7.919 " stroke="none" fill-rule="evenodd" fill="black"></path></svg>