<svg width="24" height="24" viewBox="0 0 24 24" fill="none" xmlns="http://www.w3.org/2000/svg"><path d="M8.960 1.280 C 6.960 1.332,5.848 1.469,4.900 1.779 C 3.060 2.382,1.958 3.688,1.563 5.734 C 1.311 7.042,1.267 7.973,1.267 12.000 C 1.267 16.027,1.311 16.958,1.563 18.266 C 2.013 20.599,3.401 21.987,5.734 22.437 C 7.034 22.688,7.987 22.733,12.000 22.733 C 16.013 22.733,16.966 22.688,18.266 22.437 C 20.599 21.987,21.987 20.599,22.437 18.266 C 22.688 16.966,22.733 16.013,22.733 12.000 C 22.733 7.987,22.688 7.034,22.437 5.734 C 22.098 3.977,21.228 2.756,19.825 2.068 C 18.978 1.652,17.875 1.425,16.200 1.321 C 15.315 1.266,10.534 1.239,8.960 1.280 M16.787 2.853 C 17.971 2.982,18.589 3.129,19.180 3.421 C 20.200 3.924,20.776 4.815,21.019 6.260 C 21.215 7.435,21.251 8.515,21.229 12.620 C 21.210 16.115,21.195 16.526,21.055 17.500 C 20.734 19.744,19.757 20.726,17.520 21.054 C 16.474 21.207,16.036 21.220,12.000 21.220 C 7.964 21.220,7.526 21.207,6.480 21.054 C 4.384 20.747,3.408 19.870,3.021 17.947 C 2.796 16.826,2.780 16.428,2.780 12.000 C 2.780 8.382,2.788 7.864,2.852 7.240 C 3.025 5.550,3.340 4.663,4.001 4.001 C 4.665 3.338,5.593 3.009,7.220 2.862 C 8.207 2.772,8.227 2.772,12.400 2.782 C 15.524 2.790,16.323 2.803,16.787 2.853 M5.420 7.260 C 5.398 7.267,5.331 7.284,5.271 7.297 C 5.124 7.329,4.881 7.548,4.814 7.708 C 4.731 7.907,4.738 10.175,4.823 10.586 C 4.940 11.153,5.225 11.638,5.689 12.059 C 5.960 12.305,6.513 12.599,6.860 12.681 C 6.982 12.709,7.586 12.736,8.410 12.748 L 9.760 12.769 9.760 14.462 C 9.760 15.561,9.775 16.194,9.803 16.267 C 9.905 16.540,10.193 16.731,10.500 16.731 C 10.807 16.731,11.095 16.540,11.197 16.267 C 11.227 16.190,11.240 14.838,11.240 12.000 C 11.240 9.162,11.227 7.810,11.197 7.733 C 11.095 7.460,10.807 7.269,10.500 7.269 C 10.193 7.269,9.905 7.460,9.803 7.733 C 9.775 7.806,9.760 8.441,9.760 9.543 L 9.760 11.240 8.490 11.240 L 7.220 11.240 6.980 11.126 C 6.708 10.997,6.472 10.759,6.345 10.485 C 6.265 10.312,6.259 10.220,6.240 9.020 C 6.226 8.153,6.205 7.714,6.173 7.660 C 6.115 7.559,5.925 7.382,5.820 7.330 C 5.727 7.284,5.478 7.240,5.420 7.260 M13.420 7.260 C 13.398 7.267,13.331 7.284,13.271 7.297 C 13.124 7.329,12.881 7.548,12.814 7.708 C 12.770 7.814,12.760 8.594,12.760 11.996 C 12.760 14.837,12.773 16.190,12.803 16.267 C 12.905 16.540,13.193 16.731,13.500 16.731 C 13.807 16.731,14.095 16.540,14.197 16.267 C 14.224 16.197,14.241 15.663,14.242 14.827 L 14.244 13.500 14.776 12.950 L 15.307 12.401 16.578 14.390 C 17.277 15.485,17.917 16.446,18.000 16.527 C 18.236 16.757,18.548 16.805,18.844 16.656 C 19.004 16.576,19.193 16.338,19.223 16.178 C 19.285 15.847,19.270 15.818,17.794 13.516 C 17.016 12.302,16.386 11.298,16.393 11.285 C 16.400 11.271,17.018 10.623,17.767 9.845 C 18.537 9.045,19.153 8.372,19.184 8.296 C 19.392 7.799,19.036 7.269,18.494 7.269 C 18.363 7.269,18.240 7.296,18.158 7.344 C 18.039 7.414,17.529 7.932,15.091 10.460 L 14.242 11.340 14.241 9.593 C 14.240 8.458,14.225 7.806,14.197 7.733 C 14.146 7.597,13.977 7.412,13.840 7.342 C 13.732 7.287,13.485 7.238,13.420 7.260 " stroke="none" fill-rule="evenodd" fill="black"></path></svg>