<svg width="24" height="24" viewBox="0 0 24 24" fill="none" xmlns="http://www.w3.org/2000/svg"><path d="M9.400 1.283 C 6.821 1.356,5.626 1.697,4.669 2.635 C 3.935 3.353,3.558 4.273,3.379 5.787 C 3.204 7.266,3.190 15.489,3.360 17.060 C 3.531 18.644,3.894 19.574,4.635 20.331 C 4.781 20.480,5.022 20.684,5.170 20.784 C 5.400 20.938,5.942 21.215,6.165 21.291 C 6.218 21.310,6.233 21.396,6.247 21.777 C 6.264 22.211,6.273 22.251,6.383 22.407 C 6.576 22.681,6.732 22.736,7.363 22.754 C 8.073 22.773,8.316 22.724,8.519 22.521 C 8.675 22.365,8.760 22.120,8.760 21.828 L 8.760 21.700 10.380 21.735 C 11.313 21.756,12.685 21.756,13.615 21.735 L 15.230 21.700 15.253 21.978 C 15.272 22.195,15.302 22.292,15.388 22.415 C 15.576 22.681,15.736 22.736,16.363 22.754 C 17.073 22.773,17.316 22.724,17.519 22.521 C 17.700 22.340,17.760 22.119,17.760 21.637 C 17.760 21.369,17.771 21.314,17.830 21.293 C 17.869 21.280,18.048 21.201,18.230 21.117 C 19.238 20.653,19.937 19.864,20.302 18.779 C 20.673 17.674,20.758 16.317,20.758 11.500 C 20.758 6.683,20.673 5.326,20.302 4.221 C 19.952 3.179,19.288 2.405,18.332 1.925 C 17.808 1.663,17.132 1.488,16.213 1.379 C 15.197 1.259,11.899 1.212,9.400 1.283 M15.340 2.801 C 16.245 2.860,16.701 2.931,17.200 3.089 C 18.137 3.386,18.657 3.927,18.939 4.901 C 19.171 5.701,19.240 6.649,19.240 9.029 L 19.240 10.760 11.996 10.760 L 4.752 10.760 4.771 8.630 C 4.782 7.458,4.811 6.320,4.836 6.100 C 5.106 3.695,5.918 2.981,8.580 2.804 C 9.283 2.757,14.638 2.755,15.340 2.801 M16.815 6.277 C 16.638 6.321,16.461 6.456,16.353 6.631 C 16.261 6.778,16.260 6.793,16.260 8.000 C 16.260 9.207,16.261 9.222,16.353 9.369 C 16.710 9.943,17.576 9.812,17.716 9.162 C 17.772 8.901,17.773 7.083,17.717 6.841 C 17.623 6.432,17.215 6.177,16.815 6.277 M19.240 13.971 C 19.240 16.345,19.171 17.300,18.941 18.093 C 18.647 19.109,18.111 19.646,17.099 19.939 C 16.178 20.206,15.301 20.252,11.520 20.229 C 9.614 20.218,8.352 20.194,8.100 20.165 C 5.820 19.902,5.091 19.173,4.836 16.900 C 4.811 16.680,4.782 15.542,4.771 14.370 L 4.752 12.240 11.996 12.240 L 19.240 12.240 19.240 13.971 M16.815 13.277 C 16.638 13.321,16.461 13.456,16.353 13.631 C 16.261 13.778,16.260 13.793,16.260 15.000 C 16.260 16.207,16.261 16.222,16.353 16.369 C 16.710 16.943,17.576 16.812,17.716 16.162 C 17.772 15.901,17.773 14.083,17.717 13.841 C 17.623 13.432,17.215 13.177,16.815 13.277 " stroke="none" fill-rule="evenodd" fill="black"></path></svg>