<svg width="24" height="24" viewBox="0 0 24 24" fill="none" xmlns="http://www.w3.org/2000/svg"><path d="M18.825 2.281 C 17.796 2.377,16.794 2.676,13.141 3.979 C 11.768 4.468,11.495 4.554,11.461 4.505 C 11.067 3.944,10.827 3.716,10.409 3.505 C 9.947 3.271,9.846 3.260,8.120 3.264 C 6.697 3.268,6.502 3.276,6.160 3.349 C 5.951 3.393,5.684 3.476,5.568 3.532 C 4.969 3.822,4.555 4.335,4.384 5.000 C 4.317 5.262,4.232 6.439,4.246 6.913 L 4.254 7.166 3.854 7.336 C 2.179 8.048,1.521 8.919,1.313 10.700 C 1.274 11.027,1.262 12.030,1.263 14.620 C 1.265 18.819,1.296 19.369,1.587 20.297 C 2.015 21.663,3.047 22.434,4.720 22.638 C 5.421 22.724,7.471 22.757,12.000 22.757 C 16.529 22.757,18.579 22.724,19.280 22.638 C 20.415 22.500,21.302 22.074,21.833 21.413 C 22.333 20.789,22.580 20.011,22.687 18.715 C 22.761 17.832,22.761 7.621,22.688 6.680 C 22.568 5.142,22.373 4.351,21.943 3.664 C 21.304 2.638,20.207 2.152,18.825 2.281 M19.878 3.836 C 20.612 4.065,20.957 4.687,21.146 6.127 C 21.209 6.607,21.217 7.211,21.230 12.220 C 21.248 18.797,21.233 19.209,20.945 19.972 C 20.697 20.629,20.241 20.961,19.374 21.117 C 18.788 21.223,17.778 21.239,12.000 21.239 C 6.222 21.239,5.212 21.223,4.626 21.117 C 3.492 20.913,3.054 20.427,2.851 19.145 C 2.787 18.742,2.780 18.330,2.780 14.740 C 2.780 11.087,2.786 10.753,2.852 10.427 C 3.056 9.423,3.462 9.067,5.108 8.445 C 5.997 8.109,15.095 4.863,16.160 4.502 C 18.209 3.807,19.208 3.628,19.878 3.836 M9.737 4.843 C 9.833 4.888,9.943 4.960,9.981 5.002 C 10.048 5.075,10.046 5.080,9.947 5.118 C 9.726 5.202,5.792 6.600,5.776 6.600 C 5.737 6.600,5.767 5.676,5.813 5.455 C 5.871 5.178,5.953 5.033,6.106 4.932 C 6.320 4.792,6.618 4.767,8.110 4.763 C 9.496 4.760,9.569 4.764,9.737 4.843 M7.815 9.278 C 7.640 9.320,7.462 9.455,7.356 9.626 C 7.253 9.794,7.233 10.156,7.319 10.320 C 7.347 10.375,7.623 10.676,7.931 10.988 L 8.492 11.556 8.427 11.768 C 8.291 12.211,8.268 12.527,8.268 14.000 C 8.268 15.473,8.291 15.789,8.427 16.232 L 8.492 16.444 7.931 17.012 C 7.623 17.324,7.347 17.625,7.319 17.680 C 7.290 17.735,7.267 17.881,7.267 18.004 C 7.267 18.499,7.683 18.818,8.189 18.710 C 8.362 18.673,8.436 18.614,8.969 18.089 L 9.557 17.508 9.769 17.573 C 10.209 17.708,10.529 17.731,12.000 17.731 C 13.471 17.731,13.791 17.708,14.231 17.573 L 14.443 17.508 15.031 18.089 C 15.562 18.612,15.639 18.673,15.810 18.710 C 16.388 18.833,16.833 18.388,16.710 17.810 C 16.673 17.639,16.612 17.562,16.089 17.031 L 15.508 16.443 15.573 16.231 C 15.708 15.791,15.731 15.471,15.731 14.000 C 15.731 12.529,15.708 12.209,15.573 11.769 L 15.508 11.557 16.089 10.969 C 16.612 10.438,16.673 10.361,16.710 10.190 C 16.802 9.756,16.572 9.372,16.166 9.285 C 16.054 9.261,15.940 9.249,15.911 9.257 C 15.883 9.266,15.807 9.285,15.743 9.299 C 15.664 9.317,15.431 9.517,15.034 9.908 L 14.443 10.492 14.231 10.427 C 13.789 10.291,13.472 10.268,12.000 10.268 C 10.527 10.268,10.211 10.291,9.768 10.427 L 9.556 10.492 8.987 9.929 C 8.675 9.619,8.374 9.349,8.320 9.328 C 8.155 9.267,7.948 9.247,7.815 9.278 M13.775 11.836 C 13.860 11.864,13.972 11.928,14.022 11.979 C 14.205 12.162,14.220 12.311,14.220 14.000 C 14.220 15.690,14.205 15.838,14.022 16.022 C 13.838 16.205,13.690 16.220,12.000 16.220 C 10.311 16.220,10.162 16.205,9.979 16.022 C 9.804 15.848,9.788 15.701,9.770 14.190 C 9.746 12.057,9.785 11.911,10.408 11.803 C 10.733 11.747,13.585 11.775,13.775 11.836 " stroke="none" fill-rule="evenodd" fill="black"></path></svg>