<svg width="24" height="24" viewBox="0 0 24 24" fill="none" xmlns="http://www.w3.org/2000/svg"><path d="M11.320 1.281 C 7.041 1.525,3.252 4.409,1.843 8.497 C 1.180 10.418,1.082 12.560,1.564 14.550 C 2.505 18.428,5.572 21.495,9.450 22.436 C 11.106 22.837,12.894 22.837,14.550 22.436 C 18.428 21.495,21.495 18.428,22.436 14.550 C 22.837 12.894,22.837 11.106,22.436 9.450 C 21.425 5.282,17.985 2.095,13.742 1.398 C 13.334 1.331,12.074 1.229,11.880 1.247 C 11.847 1.250,11.595 1.265,11.320 1.281 M13.146 2.822 C 14.201 2.960,15.125 3.237,16.060 3.696 C 18.877 5.079,20.768 7.722,21.178 10.854 C 21.301 11.786,21.244 13.026,21.034 13.998 C 20.745 15.343,20.003 16.855,19.121 17.900 C 18.247 18.935,17.240 19.726,16.060 20.304 C 14.761 20.940,13.462 21.240,12.000 21.240 C 10.538 21.240,9.236 20.940,7.940 20.304 C 5.123 18.921,3.232 16.278,2.822 13.146 C 2.699 12.214,2.756 10.974,2.966 10.002 C 3.177 9.020,3.703 7.775,4.268 6.920 C 5.750 4.677,8.131 3.188,10.820 2.823 C 11.380 2.746,12.569 2.746,13.146 2.822 M9.017 5.283 C 7.595 5.350,6.827 5.607,6.217 6.217 C 5.585 6.849,5.356 7.565,5.281 9.148 C 5.234 10.133,5.257 10.297,5.480 10.520 C 5.831 10.871,6.451 10.773,6.661 10.332 C 6.720 10.209,6.740 10.026,6.764 9.380 C 6.814 8.047,6.913 7.640,7.277 7.277 C 7.640 6.913,8.047 6.814,9.380 6.764 C 10.026 6.740,10.209 6.720,10.332 6.661 C 10.633 6.518,10.787 6.174,10.711 5.817 C 10.634 5.455,10.273 5.227,9.808 5.246 C 9.727 5.249,9.371 5.266,9.017 5.283 M13.811 5.278 C 13.337 5.393,13.105 6.014,13.387 6.413 C 13.588 6.697,13.703 6.730,14.616 6.764 C 15.455 6.795,15.793 6.835,16.157 6.943 C 16.663 7.093,16.950 7.412,17.094 7.983 C 17.182 8.333,17.202 8.536,17.236 9.432 C 17.267 10.241,17.267 10.243,17.383 10.408 C 17.702 10.859,18.377 10.833,18.638 10.359 C 18.733 10.188,18.737 10.153,18.728 9.560 C 18.709 8.260,18.581 7.509,18.272 6.882 C 18.140 6.615,18.033 6.470,17.782 6.218 C 17.112 5.548,16.344 5.325,14.500 5.265 C 14.192 5.255,13.882 5.261,13.811 5.278 M5.826 13.286 C 5.625 13.331,5.468 13.445,5.353 13.631 C 5.264 13.773,5.260 13.810,5.270 14.440 C 5.289 15.749,5.415 16.483,5.728 17.118 C 5.860 17.385,5.967 17.530,6.218 17.782 C 6.896 18.459,7.747 18.700,9.560 18.729 C 10.155 18.738,10.187 18.734,10.359 18.639 C 10.833 18.376,10.859 17.702,10.408 17.383 C 10.243 17.267,10.241 17.267,9.432 17.236 C 8.536 17.202,8.333 17.182,7.983 17.094 C 7.551 16.985,7.265 16.791,7.068 16.472 C 6.890 16.185,6.761 15.353,6.759 14.486 C 6.758 13.947,6.714 13.712,6.580 13.536 C 6.419 13.325,6.109 13.222,5.826 13.286 M17.815 13.278 C 17.640 13.320,17.462 13.455,17.356 13.627 C 17.274 13.759,17.264 13.843,17.236 14.576 C 17.202 15.464,17.182 15.668,17.094 16.018 C 16.939 16.633,16.633 16.939,16.017 17.094 C 15.668 17.182,15.464 17.202,14.576 17.236 C 13.843 17.264,13.759 17.274,13.627 17.356 C 13.336 17.536,13.213 17.830,13.286 18.173 C 13.343 18.435,13.561 18.657,13.815 18.711 C 14.024 18.755,15.405 18.709,15.880 18.641 C 17.509 18.409,18.409 17.509,18.641 15.880 C 18.707 15.419,18.756 14.019,18.713 13.828 C 18.624 13.434,18.214 13.183,17.815 13.278 " stroke="none" fill-rule="evenodd" fill="black"></path></svg>