<svg width="24" height="24" viewBox="0 0 24 24" fill="none" xmlns="http://www.w3.org/2000/svg"><path d="M7.420 1.282 C 6.310 1.313,5.804 1.357,5.096 1.481 C 3.321 1.792,2.190 2.718,1.680 4.281 C 1.424 5.063,1.331 5.870,1.275 7.780 C 1.219 9.720,1.233 10.174,1.354 10.371 C 1.663 10.870,2.409 10.848,2.664 10.332 C 2.733 10.193,2.741 10.028,2.765 8.360 C 2.780 7.359,2.812 6.351,2.836 6.120 C 3.080 3.833,3.833 3.080,6.120 2.836 C 6.351 2.812,7.359 2.780,8.360 2.765 C 10.028 2.741,10.193 2.733,10.332 2.664 C 10.928 2.370,10.832 1.448,10.189 1.286 C 9.988 1.236,9.124 1.235,7.420 1.282 M13.815 1.278 C 13.331 1.393,13.098 2.004,13.383 2.408 C 13.447 2.499,13.572 2.610,13.660 2.656 C 13.813 2.736,13.898 2.741,15.640 2.766 C 17.844 2.797,18.445 2.851,19.200 3.088 C 20.132 3.381,20.657 3.929,20.940 4.903 C 21.156 5.648,21.204 6.223,21.234 8.380 C 21.260 10.214,21.260 10.220,21.353 10.369 C 21.719 10.958,22.579 10.810,22.722 10.134 C 22.787 9.827,22.710 6.497,22.620 5.767 C 22.439 4.278,22.084 3.403,21.365 2.669 C 20.647 1.935,19.728 1.559,18.213 1.379 C 17.372 1.280,14.122 1.205,13.815 1.278 M1.815 13.278 C 1.639 13.320,1.462 13.455,1.354 13.629 C 1.233 13.826,1.219 14.280,1.275 16.220 C 1.331 18.130,1.424 18.937,1.680 19.719 C 2.099 21.003,2.961 21.879,4.221 22.302 C 5.066 22.585,5.836 22.670,8.080 22.726 C 10.180 22.779,10.269 22.771,10.519 22.521 C 10.918 22.122,10.731 21.423,10.189 21.286 C 10.067 21.256,9.545 21.240,8.652 21.240 C 6.659 21.240,5.663 21.160,4.901 20.939 C 3.580 20.556,3.036 19.751,2.836 17.880 C 2.812 17.649,2.780 16.641,2.765 15.640 C 2.741 13.972,2.733 13.807,2.664 13.668 C 2.573 13.484,2.396 13.343,2.180 13.284 C 2.003 13.236,1.993 13.236,1.815 13.278 M21.815 13.277 C 21.638 13.321,21.461 13.456,21.353 13.631 C 21.260 13.780,21.260 13.786,21.234 15.620 C 21.204 17.777,21.156 18.352,20.940 19.097 C 20.647 20.107,20.108 20.647,19.104 20.938 C 18.351 21.156,17.782 21.204,15.617 21.234 L 13.774 21.260 13.612 21.367 C 13.372 21.526,13.267 21.721,13.267 22.007 C 13.267 22.203,13.286 22.270,13.383 22.408 C 13.562 22.661,13.737 22.732,14.236 22.751 C 14.907 22.778,17.648 22.688,18.213 22.621 C 19.712 22.443,20.593 22.088,21.331 21.365 C 21.907 20.802,22.280 20.068,22.482 19.100 C 22.631 18.386,22.680 17.757,22.727 15.946 C 22.777 13.993,22.764 13.778,22.584 13.542 C 22.421 13.327,22.081 13.211,21.815 13.277 " stroke="none" fill-rule="evenodd" fill="black"></path></svg>