<svg width="24" height="24" viewBox="0 0 24 24" fill="none" xmlns="http://www.w3.org/2000/svg"><path d="M8.960 1.280 C 6.960 1.332,5.848 1.469,4.900 1.779 C 3.060 2.382,1.958 3.688,1.563 5.734 C 1.311 7.042,1.267 7.973,1.267 12.000 C 1.267 16.027,1.311 16.958,1.563 18.266 C 2.013 20.599,3.401 21.987,5.734 22.437 C 7.034 22.688,7.987 22.733,12.000 22.733 C 16.013 22.733,16.966 22.688,18.266 22.437 C 20.599 21.987,21.987 20.599,22.437 18.266 C 22.688 16.966,22.733 16.013,22.733 12.000 C 22.733 7.987,22.688 7.034,22.437 5.734 C 22.098 3.977,21.228 2.756,19.825 2.068 C 18.978 1.652,17.875 1.425,16.200 1.321 C 15.315 1.266,10.534 1.239,8.960 1.280 M16.787 2.853 C 17.971 2.982,18.589 3.129,19.180 3.421 C 20.200 3.924,20.776 4.815,21.019 6.260 C 21.215 7.435,21.251 8.515,21.229 12.620 C 21.210 16.115,21.195 16.526,21.055 17.500 C 20.734 19.744,19.757 20.726,17.520 21.054 C 16.474 21.207,16.036 21.220,12.000 21.220 C 7.964 21.220,7.526 21.207,6.480 21.054 C 4.384 20.747,3.408 19.870,3.021 17.947 C 2.796 16.826,2.780 16.428,2.780 12.000 C 2.780 8.382,2.788 7.864,2.852 7.240 C 3.025 5.550,3.340 4.663,4.001 4.001 C 4.665 3.338,5.593 3.009,7.220 2.862 C 8.207 2.772,8.227 2.772,12.400 2.782 C 15.524 2.790,16.323 2.803,16.787 2.853 M9.017 5.283 C 7.595 5.350,6.827 5.607,6.217 6.217 C 5.585 6.849,5.356 7.565,5.281 9.148 C 5.234 10.133,5.257 10.297,5.480 10.520 C 5.831 10.871,6.451 10.773,6.661 10.332 C 6.720 10.209,6.740 10.026,6.764 9.380 C 6.814 8.047,6.913 7.640,7.277 7.277 C 7.640 6.913,8.047 6.814,9.380 6.764 C 10.026 6.740,10.209 6.720,10.332 6.661 C 10.633 6.518,10.787 6.174,10.711 5.817 C 10.634 5.455,10.273 5.227,9.808 5.246 C 9.727 5.249,9.371 5.266,9.017 5.283 M13.811 5.278 C 13.337 5.393,13.105 6.014,13.387 6.413 C 13.588 6.697,13.703 6.730,14.616 6.764 C 15.455 6.795,15.793 6.835,16.157 6.943 C 16.663 7.093,16.950 7.412,17.094 7.983 C 17.182 8.333,17.202 8.536,17.236 9.432 C 17.267 10.241,17.267 10.243,17.383 10.408 C 17.702 10.859,18.377 10.833,18.638 10.359 C 18.733 10.188,18.737 10.153,18.728 9.560 C 18.709 8.260,18.581 7.509,18.272 6.882 C 18.140 6.615,18.033 6.470,17.782 6.218 C 17.112 5.548,16.344 5.325,14.500 5.265 C 14.192 5.255,13.882 5.261,13.811 5.278 M5.826 13.286 C 5.625 13.331,5.468 13.445,5.353 13.631 C 5.264 13.773,5.260 13.810,5.270 14.440 C 5.289 15.749,5.415 16.483,5.728 17.118 C 5.860 17.385,5.967 17.530,6.218 17.782 C 6.896 18.459,7.747 18.700,9.560 18.729 C 10.155 18.738,10.187 18.734,10.359 18.639 C 10.833 18.376,10.859 17.702,10.408 17.383 C 10.243 17.267,10.241 17.267,9.432 17.236 C 8.536 17.202,8.333 17.182,7.983 17.094 C 7.551 16.985,7.265 16.791,7.068 16.472 C 6.890 16.185,6.761 15.353,6.759 14.486 C 6.758 13.947,6.714 13.712,6.580 13.536 C 6.419 13.325,6.109 13.222,5.826 13.286 M17.815 13.278 C 17.640 13.320,17.462 13.455,17.356 13.627 C 17.274 13.759,17.264 13.843,17.236 14.576 C 17.202 15.464,17.182 15.668,17.094 16.018 C 16.939 16.633,16.633 16.939,16.017 17.094 C 15.668 17.182,15.464 17.202,14.576 17.236 C 13.843 17.264,13.759 17.274,13.627 17.356 C 13.336 17.536,13.213 17.830,13.286 18.173 C 13.343 18.435,13.561 18.657,13.815 18.711 C 14.024 18.755,15.405 18.709,15.880 18.641 C 17.509 18.409,18.409 17.509,18.641 15.880 C 18.707 15.419,18.756 14.019,18.713 13.828 C 18.624 13.434,18.214 13.183,17.815 13.278 " stroke="none" fill-rule="evenodd" fill="black"></path></svg>