<svg width="24" height="24" viewBox="0 0 24 24" fill="none" xmlns="http://www.w3.org/2000/svg"><path d="M8.960 1.280 C 6.960 1.332,5.848 1.469,4.900 1.779 C 3.060 2.382,1.958 3.688,1.563 5.734 C 1.311 7.042,1.267 7.973,1.267 12.000 C 1.267 16.027,1.311 16.958,1.563 18.266 C 2.013 20.599,3.401 21.987,5.734 22.437 C 7.034 22.688,7.987 22.733,12.000 22.733 C 16.013 22.733,16.966 22.688,18.266 22.437 C 20.599 21.987,21.987 20.599,22.437 18.266 C 22.688 16.966,22.733 16.013,22.733 12.000 C 22.733 7.987,22.688 7.034,22.437 5.734 C 22.098 3.977,21.228 2.756,19.825 2.068 C 18.978 1.652,17.875 1.425,16.200 1.321 C 15.315 1.266,10.534 1.239,8.960 1.280 M16.787 2.853 C 17.971 2.982,18.589 3.129,19.180 3.421 C 20.200 3.924,20.776 4.815,21.019 6.260 C 21.215 7.435,21.251 8.515,21.229 12.620 C 21.210 16.115,21.195 16.526,21.055 17.500 C 20.734 19.744,19.757 20.726,17.520 21.054 C 16.474 21.207,16.036 21.220,12.000 21.220 C 7.964 21.220,7.526 21.207,6.480 21.054 C 4.384 20.747,3.408 19.870,3.021 17.947 C 2.796 16.826,2.780 16.428,2.780 12.000 C 2.780 8.382,2.788 7.864,2.852 7.240 C 3.025 5.550,3.340 4.663,4.001 4.001 C 4.665 3.338,5.593 3.009,7.220 2.862 C 8.207 2.772,8.227 2.772,12.400 2.782 C 15.524 2.790,16.323 2.803,16.787 2.853 M15.660 5.278 C 14.776 5.385,14.027 5.901,13.568 6.720 C 13.168 7.434,13.168 8.566,13.568 9.280 C 14.094 10.219,14.953 10.731,16.000 10.731 C 17.047 10.731,17.906 10.219,18.432 9.280 C 18.832 8.566,18.832 7.434,18.432 6.720 C 17.857 5.694,16.796 5.142,15.660 5.278 M16.454 6.841 C 16.744 6.950,17.050 7.256,17.159 7.546 C 17.467 8.369,16.871 9.240,16.000 9.240 C 15.492 9.240,15.014 8.913,14.837 8.445 C 14.728 8.157,14.743 7.704,14.870 7.458 C 15.019 7.169,15.349 6.886,15.640 6.797 C 15.838 6.737,16.232 6.758,16.454 6.841 M6.700 11.264 C 6.356 11.340,5.851 11.574,5.571 11.787 C 5.231 12.045,4.403 12.839,4.333 12.974 C 4.298 13.042,4.269 13.192,4.269 13.306 C 4.269 13.754,4.612 14.069,5.060 14.032 C 5.325 14.010,5.407 13.954,6.026 13.383 C 6.637 12.819,6.868 12.702,7.360 12.705 C 7.777 12.708,8.071 12.811,8.354 13.053 C 8.462 13.145,9.154 13.861,9.892 14.645 C 10.630 15.428,11.312 16.133,11.407 16.210 C 11.806 16.534,12.281 16.692,12.839 16.688 C 13.321 16.684,13.630 16.592,14.082 16.315 C 14.543 16.032,14.758 15.955,15.098 15.951 C 15.416 15.947,15.714 16.025,15.949 16.173 C 16.037 16.229,16.638 16.781,17.284 17.400 C 17.931 18.020,18.528 18.573,18.610 18.629 C 18.919 18.839,19.383 18.739,19.613 18.413 C 19.751 18.217,19.774 17.901,19.666 17.676 C 19.601 17.541,17.754 15.733,17.126 15.190 C 16.440 14.597,15.507 14.339,14.609 14.496 C 14.148 14.576,13.867 14.688,13.436 14.965 C 13.110 15.174,13.093 15.180,12.813 15.180 C 12.585 15.180,12.502 15.163,12.413 15.097 C 12.351 15.051,11.661 14.337,10.880 13.509 C 10.099 12.682,9.352 11.920,9.220 11.817 C 8.944 11.600,8.526 11.392,8.180 11.297 C 7.838 11.203,7.054 11.185,6.700 11.264 " stroke="none" fill-rule="evenodd" fill="black"></path></svg>