<svg width="24" height="24" viewBox="0 0 24 24" fill="none" xmlns="http://www.w3.org/2000/svg"><path d="M8.960 1.283 C 6.976 1.330,5.854 1.467,4.900 1.779 C 3.060 2.382,1.958 3.688,1.563 5.734 C 1.311 7.042,1.267 7.973,1.267 12.000 C 1.267 16.027,1.311 16.958,1.563 18.266 C 2.013 20.599,3.401 21.987,5.734 22.437 C 7.034 22.688,7.987 22.733,12.000 22.733 C 16.013 22.733,16.966 22.688,18.266 22.437 C 20.599 21.987,21.987 20.599,22.437 18.266 C 22.636 17.232,22.703 16.250,22.743 13.759 C 22.774 11.840,22.762 11.722,22.523 11.483 C 22.173 11.133,21.619 11.203,21.353 11.631 L 21.260 11.780 21.235 13.900 C 21.208 16.212,21.129 17.524,21.020 17.486 C 20.998 17.479,20.341 16.898,19.560 16.196 C 18.779 15.494,18.039 14.848,17.915 14.760 C 16.859 14.012,15.387 13.875,14.221 14.416 C 14.067 14.488,13.791 14.649,13.609 14.773 C 13.052 15.154,12.987 15.180,12.600 15.178 C 12.326 15.177,12.225 15.158,12.080 15.084 C 11.957 15.021,11.182 14.277,9.620 12.722 C 8.366 11.473,7.242 10.375,7.122 10.282 C 6.585 9.865,5.999 9.672,5.260 9.670 C 4.381 9.668,3.844 9.889,3.065 10.576 L 2.748 10.855 2.772 9.358 C 2.797 7.727,2.865 6.831,3.021 6.053 C 3.382 4.256,4.256 3.382,6.053 3.021 C 6.950 2.841,7.693 2.794,9.900 2.774 C 11.052 2.763,12.033 2.737,12.154 2.714 C 12.902 2.569,12.929 1.473,12.189 1.286 C 11.986 1.235,11.027 1.234,8.960 1.283 M18.420 1.260 C 18.398 1.267,18.331 1.284,18.271 1.297 C 18.124 1.329,17.881 1.548,17.814 1.708 C 17.772 1.809,17.760 2.162,17.760 3.299 L 17.760 4.760 16.303 4.760 C 15.370 4.760,14.805 4.775,14.733 4.803 C 14.460 4.905,14.269 5.193,14.269 5.500 C 14.269 5.807,14.460 6.095,14.733 6.197 C 14.805 6.225,15.370 6.240,16.303 6.240 L 17.760 6.240 17.760 7.697 C 17.760 8.630,17.775 9.195,17.803 9.267 C 17.905 9.540,18.193 9.731,18.500 9.731 C 18.807 9.731,19.095 9.540,19.197 9.267 C 19.225 9.195,19.240 8.630,19.240 7.697 L 19.240 6.240 20.697 6.240 C 21.630 6.240,22.195 6.225,22.267 6.197 C 22.540 6.095,22.731 5.807,22.731 5.500 C 22.731 5.193,22.540 4.905,22.267 4.803 C 22.195 4.775,21.630 4.760,20.697 4.760 L 19.240 4.760 19.240 3.303 C 19.240 2.370,19.225 1.805,19.197 1.733 C 19.146 1.597,18.977 1.412,18.840 1.342 C 18.732 1.287,18.485 1.238,18.420 1.260 M5.743 11.226 C 5.851 11.263,5.985 11.320,6.040 11.354 C 6.095 11.387,7.184 12.452,8.460 13.720 C 9.736 14.988,10.872 16.092,10.985 16.173 C 11.457 16.511,11.992 16.678,12.608 16.679 C 13.238 16.681,13.622 16.549,14.334 16.085 C 14.837 15.758,15.095 15.651,15.512 15.598 C 15.989 15.538,16.473 15.640,16.900 15.892 C 17.078 15.996,19.382 18.022,20.575 19.122 C 20.595 19.140,20.562 19.239,20.499 19.347 C 19.967 20.264,19.096 20.791,17.740 21.019 C 16.565 21.215,15.485 21.251,11.380 21.229 C 7.885 21.210,7.474 21.195,6.500 21.055 C 4.390 20.753,3.409 19.877,3.021 17.947 C 2.854 17.114,2.795 16.284,2.774 14.480 L 2.755 12.820 3.536 12.145 C 4.443 11.361,4.427 11.373,4.717 11.253 C 4.994 11.140,5.450 11.128,5.743 11.226 " stroke="none" fill-rule="evenodd" fill="black"></path></svg>