<svg width="24" height="24" viewBox="0 0 24 24" fill="none" xmlns="http://www.w3.org/2000/svg"><path d="M8.060 2.279 C 6.376 2.340,5.525 2.541,4.734 3.064 C 4.054 3.514,3.634 4.158,3.397 5.115 C 3.335 5.365,3.279 5.573,3.272 5.577 C 2.917 5.808,2.434 6.274,2.213 6.600 C 1.775 7.244,1.519 8.043,1.379 9.200 C 1.272 10.088,1.218 13.135,1.272 15.290 C 1.319 17.204,1.365 17.809,1.518 18.540 C 1.894 20.340,2.918 21.430,4.637 21.860 C 5.795 22.150,6.426 22.177,12.000 22.177 C 17.574 22.177,18.205 22.150,19.363 21.860 C 21.082 21.430,22.106 20.340,22.482 18.540 C 22.634 17.812,22.680 17.203,22.728 15.302 C 22.780 13.220,22.725 10.043,22.623 9.220 C 22.430 7.662,22.057 6.769,21.294 6.037 C 21.086 5.837,20.662 5.516,20.531 5.459 C 20.526 5.457,20.476 5.278,20.420 5.062 C 20.241 4.376,19.938 3.823,19.509 3.404 C 18.862 2.772,17.998 2.449,16.600 2.318 C 16.034 2.265,9.307 2.234,8.060 2.279 M16.820 3.835 C 17.297 3.905,17.730 4.022,18.012 4.156 C 18.276 4.282,18.602 4.571,18.705 4.770 L 18.766 4.888 18.613 4.864 C 18.174 4.795,17.591 4.753,16.580 4.719 C 15.115 4.670,8.859 4.671,7.400 4.720 C 6.381 4.755,5.419 4.833,5.131 4.906 L 5.028 4.932 5.124 4.762 C 5.461 4.162,6.251 3.867,7.740 3.785 C 7.872 3.778,9.897 3.776,12.240 3.780 C 15.250 3.786,16.594 3.802,16.820 3.835 M18.080 6.294 C 20.219 6.580,20.907 7.304,21.165 9.540 C 21.194 9.792,21.218 11.052,21.230 12.940 C 21.252 16.652,21.208 17.551,20.960 18.471 L 20.872 18.799 20.741 18.689 C 20.669 18.629,20.041 18.067,19.345 17.440 C 18.482 16.663,17.966 16.229,17.724 16.076 C 16.705 15.436,15.322 15.347,14.228 15.853 C 14.065 15.928,13.755 16.109,13.539 16.256 C 13.088 16.561,12.810 16.661,12.496 16.628 C 12.042 16.581,12.070 16.605,9.560 14.105 C 7.111 11.665,6.952 11.524,6.400 11.309 C 6.008 11.156,5.705 11.104,5.220 11.105 C 4.396 11.107,3.838 11.339,3.092 11.989 C 2.933 12.127,2.791 12.240,2.776 12.240 C 2.737 12.240,2.789 10.022,2.839 9.540 C 3.072 7.318,3.821 6.538,5.951 6.302 C 6.772 6.210,6.598 6.213,12.280 6.220 C 16.988 6.226,17.636 6.234,18.080 6.294 M17.111 7.723 C 16.985 7.742,16.787 7.797,16.671 7.846 C 15.801 8.212,15.270 8.997,15.269 9.920 C 15.268 10.571,15.472 11.072,15.920 11.520 C 16.366 11.966,16.858 12.167,17.500 12.167 C 18.142 12.167,18.634 11.966,19.080 11.520 C 19.530 11.070,19.733 10.569,19.729 9.920 C 19.726 9.473,19.636 9.142,19.419 8.780 C 19.076 8.208,18.492 7.813,17.853 7.721 C 17.541 7.676,17.432 7.676,17.111 7.723 M17.837 9.270 C 18.071 9.389,18.212 9.606,18.232 9.874 C 18.265 10.333,17.951 10.680,17.500 10.680 C 17.050 10.680,16.735 10.333,16.768 9.874 C 16.797 9.475,17.095 9.200,17.500 9.200 C 17.611 9.200,17.761 9.231,17.837 9.270 M5.942 12.740 C 6.146 12.840,6.530 13.205,8.600 15.264 L 11.020 17.670 11.365 17.836 C 11.825 18.057,12.188 18.131,12.720 18.111 C 13.277 18.090,13.683 17.950,14.225 17.592 C 14.442 17.449,14.693 17.294,14.781 17.249 C 15.452 16.908,16.355 16.959,16.969 17.371 C 17.107 17.464,17.838 18.097,18.594 18.778 L 19.967 20.015 19.705 20.147 C 19.162 20.421,18.450 20.565,17.280 20.638 C 16.404 20.693,7.596 20.693,6.720 20.638 C 5.088 20.536,4.283 20.291,3.716 19.724 C 3.011 19.019,2.759 17.828,2.760 15.201 L 2.761 14.260 3.530 13.590 C 4.416 12.820,4.421 12.816,4.717 12.691 C 4.909 12.611,4.994 12.599,5.322 12.610 C 5.649 12.620,5.738 12.639,5.942 12.740 " stroke="none" fill-rule="evenodd" fill="black"></path></svg>