<svg width="24" height="24" viewBox="0 0 24 24" fill="none" xmlns="http://www.w3.org/2000/svg"><path d="M8.960 1.280 C 6.960 1.332,5.848 1.469,4.900 1.779 C 3.060 2.382,1.958 3.688,1.563 5.734 C 1.311 7.042,1.267 7.973,1.267 12.000 C 1.267 16.027,1.311 16.958,1.563 18.266 C 2.013 20.599,3.401 21.987,5.734 22.437 C 7.034 22.688,7.987 22.733,12.000 22.733 C 16.013 22.733,16.966 22.688,18.266 22.437 C 20.599 21.987,21.987 20.599,22.437 18.266 C 22.688 16.966,22.733 16.013,22.733 12.000 C 22.733 7.987,22.688 7.034,22.437 5.734 C 22.098 3.977,21.228 2.756,19.825 2.068 C 18.978 1.652,17.875 1.425,16.200 1.321 C 15.315 1.266,10.534 1.239,8.960 1.280 M16.787 2.853 C 18.322 3.021,19.158 3.285,19.787 3.801 C 20.701 4.552,21.067 5.666,21.199 8.100 C 21.250 9.036,21.250 14.967,21.199 15.900 C 21.154 16.726,21.085 17.448,21.046 17.486 C 21.032 17.501,20.381 16.937,19.600 16.232 C 18.819 15.528,18.070 14.873,17.936 14.777 C 17.407 14.397,16.853 14.190,16.159 14.113 C 15.217 14.008,14.362 14.239,13.540 14.819 C 13.090 15.137,12.979 15.180,12.600 15.178 C 12.326 15.177,12.225 15.158,12.080 15.084 C 11.957 15.021,11.182 14.277,9.620 12.722 C 8.366 11.473,7.242 10.375,7.122 10.282 C 6.585 9.865,5.999 9.672,5.260 9.670 C 4.381 9.668,3.844 9.889,3.065 10.576 L 2.748 10.855 2.772 9.358 C 2.823 6.149,3.111 4.892,4.001 4.001 C 4.665 3.338,5.593 3.009,7.220 2.862 C 8.207 2.772,8.227 2.772,12.400 2.782 C 15.524 2.790,16.323 2.803,16.787 2.853 M15.660 5.278 C 14.776 5.385,14.027 5.901,13.568 6.720 C 13.168 7.434,13.168 8.566,13.568 9.280 C 14.094 10.219,14.953 10.731,16.000 10.731 C 17.047 10.731,17.906 10.219,18.432 9.280 C 18.832 8.566,18.832 7.434,18.432 6.720 C 17.857 5.694,16.796 5.142,15.660 5.278 M16.454 6.841 C 16.744 6.950,17.050 7.256,17.159 7.546 C 17.467 8.369,16.871 9.240,16.000 9.240 C 15.492 9.240,15.014 8.913,14.837 8.445 C 14.728 8.157,14.743 7.704,14.870 7.458 C 15.019 7.169,15.349 6.886,15.640 6.797 C 15.838 6.737,16.232 6.758,16.454 6.841 M5.880 11.278 C 6.072 11.361,6.395 11.666,8.440 13.699 C 9.727 14.978,10.870 16.089,10.980 16.168 C 11.468 16.515,11.984 16.680,12.584 16.680 C 13.241 16.680,13.615 16.553,14.334 16.085 C 14.837 15.758,15.095 15.651,15.513 15.598 C 15.988 15.538,16.479 15.644,16.918 15.902 C 17.079 15.997,19.446 18.080,20.575 19.122 C 20.595 19.140,20.562 19.239,20.499 19.347 C 19.967 20.264,19.096 20.791,17.740 21.019 C 16.565 21.215,15.485 21.251,11.380 21.229 C 7.885 21.210,7.474 21.195,6.500 21.055 C 4.390 20.753,3.409 19.877,3.021 17.947 C 2.854 17.114,2.795 16.284,2.774 14.480 L 2.755 12.820 3.536 12.145 C 4.440 11.363,4.426 11.374,4.717 11.252 C 5.021 11.124,5.552 11.136,5.880 11.278 " stroke="none" fill-rule="evenodd" fill="black"></path></svg>