<svg width="24" height="24" viewBox="0 0 24 24" fill="none" xmlns="http://www.w3.org/2000/svg"><path d="M8.960 1.283 C 6.976 1.330,5.854 1.467,4.900 1.779 C 3.060 2.382,1.958 3.688,1.563 5.734 C 1.311 7.042,1.267 7.973,1.267 12.000 C 1.267 16.027,1.311 16.958,1.563 18.266 C 2.013 20.599,3.401 21.987,5.734 22.437 C 7.034 22.688,7.987 22.733,12.000 22.733 C 16.013 22.733,16.966 22.688,18.266 22.437 C 20.599 21.987,21.987 20.599,22.437 18.266 C 22.636 17.232,22.703 16.250,22.743 13.759 C 22.774 11.840,22.762 11.722,22.523 11.483 C 22.173 11.133,21.619 11.203,21.353 11.631 L 21.260 11.780 21.235 13.900 C 21.208 16.212,21.129 17.524,21.020 17.486 C 20.998 17.479,20.341 16.898,19.560 16.196 C 18.779 15.494,18.039 14.848,17.915 14.760 C 16.859 14.012,15.387 13.875,14.221 14.416 C 14.067 14.488,13.791 14.649,13.609 14.773 C 13.052 15.154,12.987 15.180,12.600 15.178 C 12.326 15.177,12.225 15.158,12.080 15.084 C 11.957 15.021,11.182 14.277,9.620 12.722 C 8.366 11.473,7.242 10.375,7.122 10.282 C 6.585 9.865,5.999 9.672,5.260 9.670 C 4.381 9.668,3.844 9.889,3.065 10.576 L 2.748 10.855 2.772 9.358 C 2.797 7.727,2.865 6.831,3.021 6.053 C 3.382 4.256,4.256 3.382,6.053 3.021 C 6.950 2.841,7.693 2.794,9.900 2.774 C 11.052 2.763,12.033 2.737,12.154 2.714 C 12.902 2.569,12.929 1.473,12.189 1.286 C 11.986 1.235,11.027 1.234,8.960 1.283 M16.815 1.277 C 16.638 1.321,16.461 1.456,16.353 1.631 L 16.260 1.780 16.240 5.470 L 16.220 9.161 15.360 8.298 C 14.887 7.824,14.439 7.398,14.364 7.351 C 14.267 7.291,14.164 7.267,14.000 7.267 C 13.723 7.267,13.525 7.374,13.371 7.607 C 13.234 7.814,13.225 8.162,13.351 8.364 C 13.398 8.439,14.152 9.214,15.028 10.086 C 16.544 11.596,16.629 11.673,16.810 11.711 C 16.935 11.737,17.065 11.737,17.190 11.711 C 17.371 11.673,17.456 11.596,18.989 10.068 C 19.879 9.181,20.628 8.402,20.664 8.326 C 20.753 8.139,20.747 7.837,20.651 7.651 C 20.608 7.568,20.499 7.447,20.408 7.383 C 20.271 7.287,20.202 7.267,20.011 7.267 C 19.884 7.267,19.735 7.290,19.680 7.318 C 19.625 7.347,19.171 7.777,18.670 8.274 L 17.760 9.178 17.759 5.599 C 17.758 3.284,17.743 1.957,17.717 1.841 C 17.623 1.432,17.215 1.177,16.815 1.277 M5.743 11.226 C 5.851 11.263,5.985 11.320,6.040 11.354 C 6.095 11.387,7.184 12.452,8.460 13.720 C 9.736 14.988,10.872 16.092,10.985 16.173 C 11.457 16.511,11.992 16.678,12.608 16.679 C 13.238 16.681,13.622 16.549,14.334 16.085 C 14.837 15.758,15.095 15.651,15.512 15.598 C 15.989 15.538,16.473 15.640,16.900 15.892 C 17.078 15.996,19.382 18.022,20.575 19.122 C 20.595 19.140,20.562 19.239,20.499 19.347 C 19.967 20.264,19.096 20.791,17.740 21.019 C 16.565 21.215,15.485 21.251,11.380 21.229 C 7.885 21.210,7.474 21.195,6.500 21.055 C 4.390 20.753,3.409 19.877,3.021 17.947 C 2.854 17.114,2.795 16.284,2.774 14.480 L 2.755 12.820 3.536 12.145 C 4.443 11.361,4.427 11.373,4.717 11.253 C 4.994 11.140,5.450 11.128,5.743 11.226 " stroke="none" fill-rule="evenodd" fill="black"></path></svg>