<svg width="24" height="24" viewBox="0 0 24 24" fill="none" xmlns="http://www.w3.org/2000/svg"><path d="M8.960 1.283 C 6.976 1.330,5.854 1.467,4.900 1.779 C 3.060 2.382,1.958 3.688,1.563 5.734 C 1.311 7.042,1.267 7.973,1.267 12.000 C 1.267 16.027,1.311 16.958,1.563 18.266 C 2.013 20.599,3.401 21.987,5.734 22.437 C 7.034 22.688,7.987 22.733,12.000 22.733 C 16.013 22.733,16.966 22.688,18.266 22.437 C 20.599 21.987,21.987 20.599,22.437 18.266 C 22.636 17.232,22.703 16.250,22.743 13.759 C 22.774 11.840,22.762 11.722,22.523 11.483 C 22.173 11.133,21.619 11.203,21.353 11.631 L 21.260 11.780 21.235 13.900 C 21.208 16.212,21.129 17.524,21.020 17.486 C 20.998 17.479,20.341 16.898,19.560 16.196 C 18.779 15.494,18.039 14.848,17.915 14.760 C 17.181 14.240,16.222 14.002,15.316 14.115 C 14.658 14.197,14.118 14.411,13.540 14.819 C 13.090 15.137,12.979 15.180,12.600 15.178 C 12.326 15.177,12.225 15.158,12.080 15.084 C 11.957 15.021,11.182 14.277,9.620 12.722 C 8.366 11.473,7.242 10.375,7.122 10.282 C 6.585 9.865,5.999 9.672,5.260 9.670 C 4.381 9.668,3.844 9.889,3.065 10.576 L 2.748 10.855 2.772 9.358 C 2.797 7.727,2.865 6.831,3.021 6.053 C 3.382 4.256,4.256 3.382,6.053 3.021 C 6.950 2.841,7.693 2.794,9.900 2.774 C 11.052 2.763,12.033 2.737,12.154 2.714 C 12.902 2.569,12.929 1.473,12.189 1.286 C 11.986 1.235,11.027 1.234,8.960 1.283 M15.619 2.281 C 14.662 2.409,13.856 3.070,13.498 4.021 C 13.255 4.666,13.198 5.498,13.355 6.091 C 13.599 7.013,14.312 8.011,15.449 9.024 C 16.658 10.100,17.115 10.334,18.000 10.334 C 18.887 10.334,19.345 10.098,20.556 9.018 C 21.686 8.010,22.402 7.008,22.643 6.100 C 22.802 5.498,22.746 4.670,22.502 4.021 C 22.054 2.833,20.946 2.140,19.717 2.280 C 19.212 2.338,18.843 2.468,18.330 2.769 L 18.000 2.963 17.670 2.769 C 16.969 2.358,16.277 2.193,15.619 2.281 M16.688 3.930 C 16.848 4.010,17.103 4.180,17.254 4.308 C 17.666 4.656,17.747 4.699,18.000 4.699 C 18.253 4.699,18.334 4.656,18.746 4.308 C 18.897 4.180,19.154 4.009,19.318 3.928 C 19.599 3.788,19.638 3.780,20.001 3.780 C 20.360 3.780,20.400 3.788,20.582 3.901 C 20.819 4.048,21.003 4.280,21.125 4.589 C 21.200 4.781,21.216 4.899,21.218 5.284 L 21.220 5.747 21.031 6.124 C 20.928 6.331,20.748 6.626,20.631 6.780 C 20.189 7.365,18.968 8.486,18.503 8.734 C 18.326 8.828,18.241 8.847,18.002 8.847 C 17.620 8.847,17.422 8.744,16.814 8.230 C 15.732 7.314,15.065 6.506,14.837 5.833 C 14.673 5.348,14.780 4.620,15.078 4.209 C 15.319 3.876,15.597 3.753,16.068 3.772 C 16.348 3.783,16.437 3.806,16.688 3.930 M5.880 11.278 C 6.072 11.361,6.395 11.666,8.440 13.699 C 9.727 14.978,10.870 16.089,10.980 16.168 C 11.468 16.515,11.984 16.680,12.584 16.680 C 13.241 16.680,13.615 16.553,14.334 16.085 C 14.837 15.758,15.095 15.651,15.513 15.598 C 15.988 15.538,16.479 15.644,16.918 15.902 C 17.079 15.997,19.446 18.080,20.575 19.122 C 20.595 19.140,20.562 19.239,20.499 19.347 C 19.967 20.264,19.096 20.791,17.740 21.019 C 16.565 21.215,15.485 21.251,11.380 21.229 C 7.885 21.210,7.474 21.195,6.500 21.055 C 4.390 20.753,3.409 19.877,3.021 17.947 C 2.854 17.114,2.795 16.284,2.774 14.480 L 2.755 12.820 3.536 12.145 C 4.440 11.363,4.426 11.374,4.717 11.252 C 5.021 11.124,5.552 11.136,5.880 11.278 " stroke="none" fill-rule="evenodd" fill="black"></path></svg>