<svg width="24" height="24" viewBox="0 0 24 24" fill="none" xmlns="http://www.w3.org/2000/svg"><path d="M8.960 1.283 C 6.976 1.330,5.854 1.467,4.900 1.779 C 3.060 2.382,1.958 3.688,1.563 5.734 C 1.311 7.042,1.267 7.973,1.267 12.000 C 1.267 16.027,1.311 16.958,1.563 18.266 C 2.013 20.599,3.401 21.987,5.734 22.437 C 7.034 22.688,7.987 22.733,12.000 22.733 C 16.013 22.733,16.966 22.688,18.266 22.437 C 20.599 21.987,21.987 20.599,22.437 18.266 C 22.636 17.232,22.703 16.250,22.743 13.759 C 22.774 11.840,22.762 11.722,22.523 11.483 C 22.173 11.133,21.619 11.203,21.353 11.631 L 21.260 11.780 21.235 13.900 C 21.208 16.212,21.129 17.524,21.020 17.486 C 20.998 17.479,20.341 16.898,19.560 16.196 C 18.779 15.494,18.039 14.848,17.915 14.760 C 17.181 14.240,16.222 14.002,15.316 14.115 C 14.658 14.197,14.118 14.411,13.540 14.819 C 13.090 15.137,12.979 15.180,12.600 15.178 C 12.326 15.177,12.225 15.158,12.080 15.084 C 11.957 15.021,11.182 14.277,9.620 12.722 C 8.366 11.473,7.242 10.375,7.122 10.282 C 6.585 9.865,5.999 9.672,5.260 9.670 C 4.381 9.668,3.844 9.889,3.065 10.576 L 2.748 10.855 2.772 9.358 C 2.797 7.727,2.865 6.831,3.021 6.053 C 3.382 4.256,4.256 3.382,6.053 3.021 C 6.950 2.841,7.693 2.794,9.900 2.774 C 11.052 2.763,12.033 2.737,12.154 2.714 C 12.902 2.569,12.929 1.473,12.189 1.286 C 11.986 1.235,11.027 1.234,8.960 1.283 M19.880 1.281 C 19.543 1.322,19.159 1.464,18.859 1.658 C 18.577 1.840,13.866 6.531,13.607 6.887 C 13.516 7.012,13.378 7.229,13.301 7.369 C 13.150 7.645,12.309 10.105,12.265 10.400 C 12.208 10.787,12.435 11.283,12.778 11.519 C 13.006 11.675,13.364 11.770,13.600 11.735 C 13.895 11.691,16.355 10.850,16.631 10.699 C 16.771 10.622,16.988 10.484,17.113 10.393 C 17.238 10.302,18.431 9.137,19.764 7.804 C 21.486 6.082,22.236 5.305,22.355 5.120 C 22.610 4.723,22.726 4.311,22.729 3.800 C 22.732 3.048,22.517 2.516,22.001 1.999 C 21.430 1.429,20.696 1.180,19.880 1.281 M20.640 2.843 C 21.020 3.015,21.240 3.359,21.239 3.780 C 21.238 4.055,21.154 4.263,20.953 4.490 L 20.820 4.640 20.520 4.494 C 20.114 4.296,19.710 3.892,19.504 3.480 L 19.355 3.180 19.507 3.047 C 19.844 2.753,20.271 2.676,20.640 2.843 M18.400 4.551 C 18.580 4.844,19.156 5.420,19.449 5.600 C 19.574 5.677,19.677 5.750,19.678 5.763 C 19.679 5.775,18.919 6.542,17.990 7.467 C 16.965 8.487,16.210 9.206,16.072 9.294 C 15.938 9.380,15.574 9.532,15.193 9.661 L 14.543 9.882 14.330 9.670 L 14.118 9.457 14.339 8.807 C 14.467 8.428,14.621 8.061,14.705 7.928 C 14.794 7.789,15.506 7.041,16.533 6.010 C 17.458 5.080,18.225 4.321,18.238 4.322 C 18.250 4.323,18.323 4.426,18.400 4.551 M5.880 11.278 C 6.072 11.361,6.395 11.666,8.440 13.699 C 9.727 14.978,10.870 16.089,10.980 16.168 C 11.468 16.515,11.984 16.680,12.584 16.680 C 13.241 16.680,13.615 16.553,14.334 16.085 C 14.837 15.758,15.095 15.651,15.513 15.598 C 15.988 15.538,16.479 15.644,16.918 15.902 C 17.079 15.997,19.446 18.080,20.575 19.122 C 20.595 19.140,20.562 19.239,20.499 19.347 C 19.967 20.264,19.096 20.791,17.740 21.019 C 16.565 21.215,15.485 21.251,11.380 21.229 C 7.885 21.210,7.474 21.195,6.500 21.055 C 4.390 20.753,3.409 19.877,3.021 17.947 C 2.854 17.114,2.795 16.284,2.774 14.480 L 2.755 12.820 3.536 12.145 C 4.440 11.363,4.426 11.374,4.717 11.252 C 5.021 11.124,5.552 11.136,5.880 11.278 " stroke="none" fill-rule="evenodd" fill="black"></path></svg>