<svg width="24" height="24" viewBox="0 0 24 24" fill="none" xmlns="http://www.w3.org/2000/svg"><path d="M11.320 1.281 C 7.041 1.525,3.252 4.409,1.843 8.497 C 1.180 10.418,1.082 12.560,1.564 14.550 C 2.505 18.428,5.572 21.495,9.450 22.436 C 11.106 22.837,12.894 22.837,14.550 22.436 C 18.428 21.495,21.495 18.428,22.436 14.550 C 22.837 12.894,22.837 11.106,22.436 9.450 C 21.425 5.282,17.985 2.095,13.742 1.398 C 13.334 1.331,12.074 1.229,11.880 1.247 C 11.847 1.250,11.595 1.265,11.320 1.281 M13.146 2.822 C 14.895 3.051,16.577 3.773,17.860 4.847 C 18.934 5.746,19.707 6.724,20.304 7.940 C 20.940 9.236,21.240 10.538,21.240 12.000 C 21.240 13.445,20.946 14.734,20.324 16.023 C 20.171 16.341,20.037 16.600,20.027 16.600 C 20.017 16.600,19.598 16.229,19.095 15.776 C 18.592 15.323,18.070 14.873,17.936 14.777 C 17.407 14.397,16.853 14.190,16.159 14.113 C 15.217 14.008,14.362 14.239,13.540 14.819 C 13.090 15.137,12.979 15.180,12.600 15.178 C 12.326 15.177,12.225 15.158,12.080 15.084 C 11.957 15.021,11.182 14.277,9.620 12.722 C 8.366 11.473,7.242 10.375,7.122 10.282 C 6.585 9.865,5.999 9.672,5.260 9.670 C 4.395 9.668,3.845 9.891,3.090 10.551 C 2.909 10.710,2.840 10.751,2.840 10.700 C 2.840 10.661,2.885 10.407,2.940 10.134 C 3.227 8.720,3.942 7.221,4.847 6.140 C 6.399 4.286,8.454 3.144,10.820 2.823 C 11.380 2.746,12.569 2.746,13.146 2.822 M14.660 6.278 C 13.776 6.385,13.027 6.901,12.568 7.720 C 12.168 8.434,12.168 9.566,12.568 10.280 C 13.094 11.219,13.953 11.731,15.000 11.731 C 16.047 11.731,16.906 11.219,17.432 10.280 C 17.832 9.566,17.832 8.434,17.432 7.720 C 16.857 6.694,15.796 6.142,14.660 6.278 M15.454 7.841 C 15.744 7.950,16.050 8.256,16.159 8.546 C 16.467 9.369,15.871 10.240,15.000 10.240 C 14.492 10.240,14.014 9.913,13.837 9.445 C 13.728 9.157,13.743 8.704,13.870 8.458 C 14.019 8.169,14.349 7.886,14.640 7.797 C 14.838 7.737,15.232 7.758,15.454 7.841 M5.880 11.278 C 6.072 11.361,6.395 11.666,8.440 13.699 C 9.727 14.978,10.870 16.089,10.980 16.168 C 11.468 16.515,11.984 16.680,12.584 16.680 C 13.241 16.680,13.615 16.553,14.334 16.085 C 14.837 15.758,15.095 15.651,15.513 15.598 C 15.988 15.538,16.479 15.644,16.918 15.902 C 17.040 15.974,17.594 16.442,18.149 16.941 L 19.158 17.849 19.077 17.955 C 18.926 18.152,18.221 18.849,17.900 19.121 C 16.857 20.002,15.343 20.745,13.998 21.034 C 13.026 21.244,11.786 21.301,10.854 21.178 C 9.105 20.949,7.423 20.227,6.140 19.153 C 5.066 18.254,4.293 17.276,3.696 16.060 C 3.234 15.117,2.878 13.906,2.819 13.074 L 2.798 12.780 3.556 12.126 C 4.435 11.367,4.426 11.374,4.717 11.252 C 5.021 11.124,5.552 11.136,5.880 11.278 " stroke="none" fill-rule="evenodd" fill="black"></path></svg>