<svg width="24" height="24" viewBox="0 0 24 24" fill="none" xmlns="http://www.w3.org/2000/svg"><path d="M8.960 1.280 C 6.960 1.332,5.848 1.469,4.900 1.779 C 3.060 2.382,1.958 3.688,1.563 5.734 C 1.309 7.052,1.265 7.982,1.266 12.000 C 1.267 16.030,1.312 16.963,1.563 18.266 C 2.013 20.599,3.401 21.987,5.734 22.437 C 6.971 22.676,7.938 22.725,11.660 22.740 C 15.594 22.756,16.930 22.695,18.266 22.437 C 20.599 21.987,21.987 20.599,22.437 18.266 C 22.688 16.966,22.733 16.013,22.733 12.000 C 22.733 7.987,22.688 7.034,22.437 5.734 C 22.098 3.977,21.228 2.756,19.825 2.068 C 18.978 1.652,17.875 1.425,16.200 1.321 C 15.315 1.266,10.534 1.239,8.960 1.280 M16.787 2.853 C 17.971 2.982,18.589 3.129,19.180 3.421 C 20.352 3.999,20.906 5.018,21.117 6.980 C 21.203 7.776,21.238 8.855,21.239 10.670 L 21.240 12.521 20.950 12.490 C 20.501 12.443,19.294 12.459,18.960 12.516 C 17.332 12.794,15.928 13.511,14.786 14.648 C 14.569 14.864,14.386 15.040,14.379 15.040 C 14.372 15.040,14.307 14.937,14.236 14.810 C 13.515 13.538,12.279 12.161,11.096 11.313 C 8.803 9.671,6.167 8.952,3.420 9.220 C 3.090 9.253,2.804 9.279,2.785 9.280 C 2.740 9.280,2.787 8.058,2.864 7.200 C 3.009 5.596,3.341 4.662,4.001 4.001 C 4.665 3.338,5.593 3.009,7.220 2.862 C 8.207 2.772,8.227 2.772,12.400 2.782 C 15.524 2.790,16.323 2.803,16.787 2.853 M15.660 5.278 C 14.776 5.385,14.027 5.901,13.568 6.720 C 13.168 7.434,13.168 8.566,13.568 9.280 C 14.094 10.219,14.953 10.731,16.000 10.731 C 17.047 10.731,17.906 10.219,18.432 9.280 C 18.832 8.566,18.832 7.434,18.432 6.720 C 17.857 5.694,16.796 5.142,15.660 5.278 M16.454 6.841 C 16.744 6.950,17.050 7.256,17.159 7.546 C 17.467 8.369,16.871 9.240,16.000 9.240 C 15.492 9.240,15.014 8.913,14.837 8.445 C 14.728 8.157,14.743 7.704,14.870 7.458 C 15.019 7.169,15.349 6.886,15.640 6.797 C 15.838 6.737,16.232 6.758,16.454 6.841 M5.680 10.724 C 7.385 10.930,9.210 11.699,10.543 12.774 C 12.320 14.208,13.511 16.111,14.000 18.300 C 14.193 19.165,14.276 20.123,14.222 20.854 L 14.192 21.248 11.026 21.228 C 7.901 21.209,7.452 21.192,6.500 21.055 C 4.390 20.753,3.409 19.877,3.021 17.947 C 2.826 16.972,2.793 16.389,2.771 13.495 L 2.751 10.811 2.846 10.789 C 2.932 10.768,3.555 10.701,4.000 10.664 C 4.273 10.641,5.297 10.678,5.680 10.724 M20.672 13.961 C 21.307 14.028,21.240 13.951,21.239 14.611 C 21.238 15.273,21.179 16.446,21.117 17.020 C 20.979 18.306,20.711 19.125,20.226 19.745 C 19.519 20.649,18.354 21.063,16.180 21.184 L 15.700 21.211 15.714 20.577 C 15.741 19.341,15.573 18.195,15.183 16.941 L 15.083 16.623 15.307 16.321 C 15.619 15.902,16.239 15.304,16.663 15.014 C 17.877 14.184,19.282 13.815,20.672 13.961 " stroke="none" fill-rule="evenodd" fill="black"></path></svg>