<svg width="24" height="24" viewBox="0 0 24 24" fill="none" xmlns="http://www.w3.org/2000/svg"><path d="M6.580 3.278 C 6.132 3.319,5.748 3.414,5.360 3.580 C 3.210 4.501,1.882 6.982,1.443 10.903 C 1.221 12.891,1.191 15.385,1.378 16.432 C 1.558 17.443,1.965 18.299,2.505 18.802 C 3.512 19.739,5.218 20.011,6.505 19.438 C 7.435 19.025,8.315 17.960,8.319 17.245 C 8.321 16.823,8.023 16.520,7.605 16.520 C 7.232 16.520,7.019 16.683,6.856 17.093 C 6.674 17.554,6.161 18.005,5.644 18.159 C 5.315 18.257,4.813 18.265,4.450 18.180 C 3.521 17.961,3.013 17.276,2.820 15.980 C 2.749 15.506,2.738 13.374,2.801 12.420 C 3.041 8.780,3.868 6.421,5.279 5.351 C 5.607 5.103,6.106 4.862,6.424 4.800 C 6.787 4.729,8.304 4.768,8.620 4.857 C 8.987 4.961,9.537 5.245,9.980 5.561 C 10.761 6.118,11.227 6.285,12.000 6.285 C 12.773 6.285,13.239 6.118,14.020 5.561 C 14.463 5.245,15.013 4.961,15.380 4.857 C 15.696 4.768,17.213 4.729,17.576 4.800 C 17.894 4.862,18.393 5.103,18.721 5.351 C 19.599 6.017,20.253 7.189,20.680 8.860 C 21.065 10.368,21.240 12.058,21.240 14.273 C 21.240 15.957,21.166 16.484,20.835 17.158 C 20.637 17.560,20.389 17.824,20.045 17.997 C 19.548 18.248,18.873 18.313,18.356 18.159 C 17.839 18.005,17.326 17.554,17.144 17.093 C 16.981 16.683,16.768 16.520,16.395 16.520 C 15.981 16.520,15.665 16.838,15.674 17.247 C 15.690 17.952,16.561 19.014,17.463 19.426 C 18.597 19.946,20.153 19.794,21.175 19.065 C 21.904 18.545,22.372 17.711,22.601 16.528 C 22.826 15.362,22.777 12.468,22.497 10.400 C 22.022 6.896,20.762 4.589,18.817 3.661 C 18.137 3.336,17.742 3.266,16.600 3.267 C 15.576 3.268,15.159 3.331,14.505 3.584 C 14.058 3.756,13.832 3.883,13.207 4.311 C 12.632 4.704,12.396 4.800,12.000 4.800 C 11.604 4.800,11.364 4.703,10.791 4.310 C 10.167 3.883,9.941 3.756,9.495 3.584 C 8.941 3.370,8.441 3.283,7.635 3.263 C 7.253 3.253,6.778 3.260,6.580 3.278 M16.458 8.073 C 16.028 8.274,15.880 8.775,16.137 9.162 C 16.453 9.640,17.237 9.559,17.437 9.027 C 17.669 8.416,17.038 7.801,16.458 8.073 M7.420 8.260 C 7.398 8.267,7.331 8.284,7.271 8.297 C 7.124 8.329,6.881 8.548,6.814 8.708 C 6.779 8.791,6.760 9.002,6.760 9.299 L 6.760 9.760 6.303 9.760 C 5.803 9.760,5.678 9.790,5.506 9.953 C 5.339 10.111,5.269 10.273,5.269 10.500 C 5.269 10.727,5.339 10.889,5.506 11.047 C 5.678 11.210,5.803 11.240,6.303 11.240 L 6.760 11.240 6.760 11.697 C 6.760 12.197,6.790 12.322,6.953 12.494 C 7.111 12.661,7.273 12.731,7.500 12.731 C 7.727 12.731,7.889 12.661,8.047 12.494 C 8.210 12.322,8.240 12.197,8.240 11.697 L 8.240 11.240 8.697 11.240 C 9.197 11.240,9.322 11.210,9.494 11.047 C 9.661 10.889,9.731 10.727,9.731 10.500 C 9.731 10.273,9.661 10.111,9.494 9.953 C 9.322 9.790,9.197 9.760,8.697 9.760 L 8.240 9.760 8.240 9.303 C 8.240 9.051,8.221 8.795,8.197 8.733 C 8.146 8.597,7.977 8.412,7.840 8.342 C 7.732 8.287,7.485 8.238,7.420 8.260 M14.940 9.577 C 14.874 9.606,14.772 9.682,14.713 9.745 C 14.408 10.071,14.469 10.620,14.838 10.863 C 15.507 11.306,16.306 10.507,15.863 9.838 C 15.677 9.556,15.254 9.437,14.940 9.577 M17.940 9.577 C 17.874 9.606,17.772 9.682,17.713 9.745 C 17.408 10.071,17.469 10.620,17.838 10.863 C 18.507 11.306,19.306 10.507,18.863 9.838 C 18.677 9.556,18.254 9.437,17.940 9.577 M16.458 11.073 C 16.028 11.274,15.880 11.775,16.137 12.162 C 16.453 12.640,17.237 12.559,17.437 12.027 C 17.669 11.416,17.038 10.801,16.458 11.073 M9.815 16.277 C 9.640 16.320,9.462 16.456,9.356 16.626 C 9.253 16.793,9.233 17.156,9.318 17.320 C 9.347 17.375,9.723 17.776,10.154 18.210 L 10.937 19.000 10.154 19.790 C 9.723 20.225,9.347 20.625,9.318 20.680 C 9.290 20.735,9.267 20.881,9.267 21.004 C 9.267 21.499,9.683 21.817,10.189 21.711 C 10.366 21.673,10.439 21.611,11.190 20.867 L 12.000 20.064 12.810 20.867 C 13.559 21.609,13.634 21.673,13.810 21.710 C 14.389 21.832,14.832 21.389,14.710 20.810 C 14.673 20.634,14.609 20.559,13.867 19.810 L 13.064 19.000 13.867 18.190 C 14.611 17.439,14.673 17.366,14.711 17.189 C 14.817 16.683,14.499 16.267,14.004 16.267 C 13.881 16.267,13.735 16.290,13.680 16.318 C 13.625 16.347,13.225 16.723,12.790 17.154 L 12.000 17.937 11.210 17.154 C 10.775 16.723,10.384 16.352,10.340 16.330 C 10.220 16.269,9.956 16.243,9.815 16.277 " stroke="none" fill-rule="evenodd" fill="black"></path></svg>