<svg width="24" height="24" viewBox="0 0 24 24" fill="none" xmlns="http://www.w3.org/2000/svg"><path d="M14.240 0.554 C 14.240 1.031,14.230 1.116,14.170 1.169 C 14.115 1.217,13.946 1.235,13.380 1.253 C 12.609 1.277,12.416 1.315,12.114 1.502 C 11.867 1.654,11.691 1.827,11.532 2.073 C 11.367 2.327,11.294 2.559,11.257 2.950 L 11.230 3.240 10.245 3.241 C 8.678 3.244,6.701 3.310,6.196 3.378 C 5.307 3.496,4.659 3.708,4.035 4.083 C 3.428 4.448,2.971 4.840,2.562 5.349 C 1.881 6.195,1.537 7.016,1.379 8.176 C 1.276 8.932,1.223 11.700,1.274 13.671 C 1.320 15.470,1.365 15.974,1.538 16.656 C 1.998 18.468,3.535 20.003,5.353 20.464 C 6.284 20.700,7.573 20.757,12.000 20.757 C 16.441 20.757,17.715 20.701,18.657 20.462 C 20.468 20.002,22.003 18.464,22.464 16.647 C 22.634 15.976,22.680 15.463,22.726 13.690 C 22.776 11.729,22.723 8.922,22.621 8.176 C 22.463 7.016,22.119 6.195,21.438 5.349 C 21.029 4.840,20.572 4.448,19.965 4.083 C 19.341 3.708,18.693 3.496,17.804 3.378 C 17.298 3.310,15.322 3.244,13.750 3.241 L 12.760 3.240 12.760 3.066 C 12.760 2.785,12.793 2.773,13.620 2.747 C 14.391 2.723,14.584 2.685,14.886 2.498 C 15.132 2.346,15.309 2.173,15.468 1.928 C 15.680 1.600,15.721 1.414,15.748 0.670 L 15.772 0.000 15.006 0.000 L 14.240 0.000 14.240 0.554 M17.640 4.853 C 18.208 4.945,18.599 5.056,18.929 5.222 C 19.972 5.745,20.754 6.685,21.019 7.733 C 21.203 8.463,21.220 8.814,21.220 12.000 C 21.220 15.186,21.203 15.537,21.019 16.267 C 20.692 17.559,19.559 18.692,18.267 19.019 C 17.491 19.215,17.334 19.220,11.920 19.220 C 7.297 19.220,6.820 19.214,6.398 19.150 C 6.144 19.111,5.803 19.043,5.641 18.997 C 4.444 18.666,3.334 17.556,3.003 16.359 C 2.791 15.598,2.780 15.376,2.780 12.040 C 2.780 8.800,2.791 8.545,2.961 7.811 C 3.117 7.142,3.473 6.516,3.995 5.997 C 4.696 5.300,5.439 4.961,6.520 4.844 C 7.189 4.771,7.107 4.772,12.280 4.779 C 16.700 4.785,17.264 4.793,17.640 4.853 M7.815 9.277 C 7.638 9.321,7.461 9.456,7.353 9.631 C 7.266 9.770,7.259 9.829,7.246 10.506 L 7.232 11.232 6.503 11.246 C 5.790 11.260,5.770 11.262,5.612 11.367 C 5.372 11.526,5.267 11.721,5.267 12.007 C 5.267 12.203,5.286 12.270,5.383 12.408 C 5.590 12.700,5.716 12.738,6.526 12.754 L 7.232 12.768 7.246 13.494 C 7.259 14.171,7.266 14.230,7.353 14.369 C 7.710 14.943,8.576 14.812,8.716 14.162 C 8.740 14.049,8.760 13.687,8.760 13.358 L 8.760 12.760 9.358 12.760 C 10.121 12.760,10.321 12.719,10.520 12.520 C 10.918 12.122,10.730 11.423,10.189 11.286 C 10.087 11.261,9.725 11.240,9.382 11.240 L 8.760 11.240 8.759 10.630 C 8.758 9.950,8.720 9.720,8.580 9.536 C 8.421 9.327,8.078 9.211,7.815 9.277 M14.617 9.577 C 14.434 9.656,14.207 9.871,14.109 10.056 C 13.988 10.285,13.988 10.715,14.109 10.944 C 14.209 11.134,14.437 11.346,14.626 11.425 C 14.795 11.496,15.205 11.496,15.374 11.425 C 15.563 11.346,15.791 11.134,15.891 10.944 C 15.956 10.821,15.978 10.710,15.978 10.500 C 15.978 10.290,15.956 10.179,15.891 10.056 C 15.791 9.866,15.563 9.654,15.374 9.575 C 15.208 9.505,14.778 9.506,14.617 9.577 M16.617 12.577 C 16.434 12.656,16.207 12.871,16.109 13.056 C 15.988 13.285,15.988 13.715,16.109 13.944 C 16.209 14.134,16.437 14.346,16.626 14.425 C 16.795 14.496,17.205 14.496,17.374 14.425 C 17.563 14.346,17.791 14.134,17.891 13.944 C 17.956 13.821,17.978 13.710,17.978 13.500 C 17.978 13.290,17.956 13.179,17.891 13.056 C 17.791 12.866,17.563 12.654,17.374 12.575 C 17.208 12.505,16.778 12.506,16.617 12.577 " stroke="none" fill-rule="evenodd" fill="black"></path></svg>