<svg width="24" height="24" viewBox="0 0 24 24" fill="none" xmlns="http://www.w3.org/2000/svg"><path d="M9.280 1.283 C 6.368 1.358,5.077 1.716,3.996 2.748 C 3.097 3.607,2.632 4.709,2.422 6.480 C 2.293 7.563,2.266 8.523,2.266 12.000 C 2.266 15.477,2.293 16.437,2.422 17.520 C 2.632 19.291,3.097 20.393,3.996 21.252 C 4.854 22.071,5.867 22.455,7.660 22.639 C 8.833 22.760,14.101 22.785,15.780 22.678 C 16.791 22.613,17.674 22.470,18.280 22.273 C 19.797 21.779,20.841 20.653,21.293 19.020 C 21.667 17.673,21.734 16.602,21.734 12.000 C 21.734 8.524,21.707 7.561,21.578 6.480 C 21.368 4.709,20.903 3.607,20.004 2.748 C 19.142 1.925,18.125 1.542,16.320 1.360 C 15.312 1.258,11.755 1.219,9.280 1.283 M16.304 2.853 C 17.776 3.030,18.460 3.299,19.081 3.946 C 19.796 4.690,20.082 5.718,20.199 7.960 C 20.251 8.972,20.251 15.028,20.199 16.040 C 20.082 18.282,19.796 19.310,19.081 20.054 C 18.451 20.711,17.769 20.974,16.244 21.152 C 15.735 21.211,15.189 21.220,12.000 21.220 C 8.811 21.220,8.265 21.211,7.756 21.152 C 6.231 20.974,5.549 20.711,4.919 20.054 C 4.204 19.310,3.918 18.282,3.801 16.040 C 3.749 15.028,3.749 8.972,3.801 7.960 C 3.918 5.718,4.204 4.690,4.919 3.946 C 5.399 3.445,5.939 3.167,6.743 3.004 C 7.802 2.789,8.358 2.767,12.340 2.780 C 15.164 2.789,15.874 2.802,16.304 2.853 M8.300 5.280 C 8.102 5.298,7.837 5.351,7.711 5.399 C 7.041 5.651,6.517 6.232,6.333 6.925 C 6.236 7.289,6.237 8.707,6.334 9.075 C 6.534 9.836,7.153 10.456,7.925 10.669 C 8.160 10.735,8.473 10.740,12.000 10.740 C 15.527 10.740,15.840 10.735,16.075 10.669 C 16.847 10.456,17.466 9.836,17.666 9.075 C 17.763 8.709,17.763 7.291,17.666 6.925 C 17.468 6.174,16.858 5.555,16.097 5.334 C 15.882 5.271,15.533 5.264,12.260 5.257 C 10.280 5.252,8.498 5.263,8.300 5.280 M15.788 6.808 C 15.951 6.877,16.118 7.041,16.183 7.195 C 16.257 7.369,16.264 8.620,16.192 8.788 C 16.123 8.951,15.959 9.118,15.805 9.183 C 15.604 9.268,8.396 9.268,8.195 9.183 C 8.041 9.118,7.877 8.951,7.808 8.788 C 7.736 8.620,7.743 7.370,7.817 7.195 C 7.881 7.040,8.035 6.884,8.192 6.814 C 8.347 6.746,15.627 6.739,15.788 6.808 M15.132 13.101 C 14.592 13.371,14.523 14.108,15.002 14.488 C 15.269 14.700,15.732 14.699,15.999 14.487 C 16.221 14.311,16.328 14.068,16.311 13.780 C 16.291 13.461,16.148 13.241,15.868 13.101 C 15.607 12.971,15.393 12.971,15.132 13.101 M8.420 13.260 C 8.398 13.267,8.331 13.284,8.271 13.297 C 8.124 13.329,7.881 13.548,7.814 13.708 C 7.779 13.791,7.760 14.002,7.760 14.299 L 7.760 14.760 7.303 14.760 C 6.803 14.760,6.678 14.790,6.506 14.953 C 6.339 15.111,6.269 15.273,6.269 15.500 C 6.269 15.727,6.339 15.889,6.506 16.047 C 6.678 16.210,6.803 16.240,7.303 16.240 L 7.760 16.240 7.760 16.697 C 7.760 17.197,7.790 17.322,7.953 17.494 C 8.111 17.661,8.273 17.731,8.500 17.731 C 8.727 17.731,8.889 17.661,9.047 17.494 C 9.210 17.322,9.240 17.197,9.240 16.697 L 9.240 16.240 9.697 16.240 C 10.197 16.240,10.322 16.210,10.494 16.047 C 10.661 15.889,10.731 15.727,10.731 15.500 C 10.731 15.273,10.661 15.111,10.494 14.953 C 10.322 14.790,10.197 14.760,9.697 14.760 L 9.240 14.760 9.240 14.303 C 9.240 14.051,9.221 13.795,9.197 13.733 C 9.146 13.597,8.977 13.412,8.840 13.342 C 8.732 13.287,8.485 13.238,8.420 13.260 M13.520 14.733 C 13.285 14.856,13.198 14.938,13.102 15.131 C 12.971 15.393,12.971 15.606,13.101 15.868 C 13.371 16.408,14.108 16.477,14.488 15.998 C 14.700 15.731,14.699 15.268,14.487 15.001 C 14.267 14.724,13.790 14.591,13.520 14.733 M16.817 14.754 C 15.988 15.141,16.333 16.389,17.249 16.312 C 18.007 16.249,18.260 15.237,17.623 14.813 C 17.407 14.669,17.054 14.643,16.817 14.754 M15.322 16.367 C 14.783 16.462,14.501 17.156,14.813 17.623 C 15.133 18.104,15.867 18.104,16.187 17.623 C 16.342 17.392,16.361 17.048,16.233 16.802 C 16.054 16.460,15.715 16.298,15.322 16.367 " stroke="none" fill-rule="evenodd" fill="black"></path></svg>