<svg width="24" height="24" viewBox="0 0 24 24" fill="none" xmlns="http://www.w3.org/2000/svg"><path d="M14.815 2.277 C 14.638 2.321,14.461 2.456,14.353 2.631 C 14.267 2.768,14.259 2.832,14.246 3.440 C 14.236 3.941,14.219 4.116,14.175 4.164 C 14.128 4.217,13.988 4.233,13.389 4.252 C 12.581 4.277,12.408 4.314,12.072 4.532 C 11.567 4.860,11.320 5.288,11.258 5.945 L 11.231 6.229 9.765 6.257 C 8.959 6.272,8.063 6.302,7.773 6.323 C 6.251 6.432,5.307 6.820,4.415 7.699 C 3.657 8.447,3.298 9.271,2.706 11.620 C 2.112 13.983,1.316 17.367,1.279 17.687 C 1.238 18.051,1.281 18.596,1.380 18.976 C 1.593 19.787,2.137 20.565,2.821 21.038 C 4.210 21.998,5.994 21.971,7.346 20.968 C 7.839 20.602,8.134 20.234,8.503 19.520 C 8.759 19.026,9.235 18.530,9.668 18.307 C 10.219 18.022,10.387 18.000,12.000 18.000 C 13.613 18.000,13.781 18.022,14.332 18.307 C 14.765 18.530,15.241 19.026,15.497 19.520 C 15.867 20.234,16.161 20.602,16.655 20.969 C 18.007 21.971,19.790 21.999,21.179 21.038 C 22.246 20.301,22.865 18.948,22.719 17.672 C 22.684 17.363,21.891 13.997,21.293 11.620 C 20.703 9.273,20.344 8.448,19.585 7.699 C 18.695 6.822,17.745 6.432,16.227 6.323 C 15.937 6.302,15.038 6.272,14.230 6.257 L 12.760 6.229 12.760 6.061 C 12.760 5.786,12.796 5.773,13.620 5.747 C 14.419 5.722,14.593 5.685,14.928 5.468 C 15.282 5.238,15.547 4.899,15.665 4.526 C 15.746 4.269,15.785 3.167,15.724 2.882 C 15.699 2.762,15.634 2.607,15.581 2.538 C 15.421 2.327,15.079 2.211,14.815 2.277 M16.600 7.852 C 17.365 7.985,17.709 8.111,18.138 8.417 C 18.785 8.879,19.165 9.514,19.514 10.720 C 19.678 11.285,20.045 12.763,20.697 15.483 C 21.160 17.413,21.240 17.793,21.240 18.066 C 21.240 18.649,21.027 19.143,20.584 19.583 C 20.136 20.030,19.618 20.240,18.967 20.240 C 18.010 20.240,17.275 19.752,16.800 18.800 C 16.342 17.883,15.512 17.130,14.570 16.778 C 13.930 16.538,13.745 16.514,12.335 16.492 C 10.892 16.468,10.314 16.506,9.781 16.661 C 8.573 17.011,7.794 17.686,7.080 19.003 C 6.652 19.792,5.911 20.240,5.033 20.240 C 4.378 20.240,3.864 20.030,3.409 19.577 C 3.177 19.346,3.085 19.216,2.952 18.934 C 2.800 18.609,2.785 18.547,2.769 18.180 L 2.751 17.780 3.298 15.500 C 4.489 10.538,4.638 10.008,5.050 9.303 C 5.334 8.816,5.822 8.372,6.327 8.141 C 6.702 7.969,7.422 7.826,8.120 7.785 C 8.241 7.778,10.113 7.775,12.280 7.780 C 15.729 7.786,16.267 7.795,16.600 7.852 M14.667 10.065 C 14.303 10.177,14.000 10.602,14.000 11.000 C 14.000 11.517,14.483 12.000,15.000 12.000 C 15.517 12.000,16.000 11.517,16.000 11.000 C 16.000 10.598,15.688 10.173,15.310 10.061 C 15.061 9.987,14.919 9.988,14.667 10.065 M8.420 10.260 C 8.398 10.267,8.331 10.284,8.271 10.297 C 8.124 10.329,7.881 10.548,7.814 10.708 C 7.779 10.791,7.760 11.002,7.760 11.299 L 7.760 11.760 7.303 11.760 C 6.803 11.760,6.678 11.790,6.506 11.953 C 6.339 12.111,6.269 12.273,6.269 12.500 C 6.269 12.727,6.339 12.889,6.506 13.047 C 6.678 13.210,6.803 13.240,7.303 13.240 L 7.760 13.240 7.760 13.697 C 7.760 14.197,7.790 14.322,7.953 14.494 C 8.111 14.661,8.273 14.731,8.500 14.731 C 8.727 14.731,8.889 14.661,9.047 14.494 C 9.210 14.322,9.240 14.197,9.240 13.697 L 9.240 13.240 9.697 13.240 C 10.197 13.240,10.322 13.210,10.494 13.047 C 10.661 12.889,10.731 12.727,10.731 12.500 C 10.731 12.273,10.661 12.111,10.494 11.953 C 10.322 11.790,10.197 11.760,9.697 11.760 L 9.240 11.760 9.240 11.303 C 9.240 11.051,9.221 10.795,9.197 10.733 C 9.146 10.597,8.977 10.412,8.840 10.342 C 8.732 10.287,8.485 10.238,8.420 10.260 M16.667 13.065 C 16.303 13.177,16.000 13.602,16.000 14.000 C 16.000 14.517,16.483 15.000,17.000 15.000 C 17.517 15.000,18.000 14.517,18.000 14.000 C 18.000 13.598,17.688 13.173,17.310 13.061 C 17.061 12.987,16.919 12.988,16.667 13.065 " stroke="none" fill-rule="evenodd" fill="black"></path></svg>