<svg width="24" height="24" viewBox="0 0 24 24" fill="none" xmlns="http://www.w3.org/2000/svg"><path d="M6.580 3.278 C 6.132 3.319,5.748 3.414,5.360 3.580 C 3.210 4.501,1.882 6.982,1.443 10.903 C 1.221 12.891,1.191 15.385,1.378 16.432 C 1.558 17.443,1.965 18.299,2.505 18.802 C 3.424 19.658,4.912 19.964,6.180 19.558 C 6.780 19.366,7.230 19.055,8.120 18.217 C 9.119 17.277,9.488 17.034,10.192 16.856 C 10.556 16.764,10.623 16.760,12.000 16.760 C 13.377 16.760,13.444 16.764,13.808 16.856 C 14.512 17.034,14.881 17.277,15.880 18.217 C 16.770 19.055,17.220 19.366,17.820 19.558 C 19.336 20.044,21.092 19.512,21.906 18.320 C 22.601 17.304,22.818 15.981,22.724 13.340 C 22.647 11.207,22.467 9.782,22.094 8.360 C 21.475 5.998,20.358 4.396,18.817 3.661 C 18.137 3.336,17.742 3.266,16.600 3.267 C 15.576 3.268,15.159 3.331,14.505 3.584 C 14.058 3.756,13.832 3.883,13.207 4.311 C 12.632 4.704,12.396 4.800,12.000 4.800 C 11.604 4.800,11.364 4.703,10.791 4.310 C 10.167 3.883,9.941 3.756,9.495 3.584 C 8.941 3.370,8.441 3.283,7.635 3.263 C 7.253 3.253,6.778 3.260,6.580 3.278 M8.620 4.857 C 8.988 4.961,9.538 5.246,9.980 5.561 C 10.761 6.118,11.227 6.285,12.000 6.285 C 12.773 6.285,13.239 6.118,14.020 5.561 C 14.463 5.245,15.013 4.961,15.380 4.857 C 15.696 4.768,17.213 4.729,17.576 4.800 C 17.894 4.862,18.393 5.103,18.721 5.351 C 19.599 6.017,20.253 7.189,20.680 8.860 C 21.065 10.368,21.240 12.058,21.240 14.273 C 21.240 15.957,21.166 16.484,20.835 17.158 C 20.559 17.719,20.153 18.038,19.530 18.185 C 19.162 18.271,18.544 18.242,18.236 18.125 C 17.841 17.973,17.708 17.868,16.482 16.735 C 15.689 16.003,15.067 15.641,14.221 15.421 C 13.711 15.289,13.125 15.241,12.000 15.241 C 10.875 15.241,10.289 15.289,9.779 15.421 C 8.933 15.641,8.310 16.003,7.519 16.735 C 6.032 18.110,5.899 18.194,5.140 18.229 C 3.806 18.292,3.056 17.565,2.820 15.980 C 2.749 15.506,2.738 13.374,2.801 12.420 C 3.071 8.320,4.081 5.857,5.840 5.009 C 6.319 4.778,6.433 4.762,7.460 4.776 C 8.174 4.786,8.434 4.804,8.620 4.857 M16.458 8.073 C 16.028 8.274,15.880 8.775,16.137 9.162 C 16.453 9.640,17.237 9.559,17.437 9.027 C 17.669 8.416,17.038 7.801,16.458 8.073 M7.420 8.260 C 7.398 8.267,7.331 8.284,7.271 8.297 C 7.124 8.329,6.881 8.548,6.814 8.708 C 6.779 8.791,6.760 9.002,6.760 9.299 L 6.760 9.760 6.303 9.760 C 5.803 9.760,5.678 9.790,5.506 9.953 C 5.339 10.111,5.269 10.273,5.269 10.500 C 5.269 10.727,5.339 10.889,5.506 11.047 C 5.678 11.210,5.803 11.240,6.303 11.240 L 6.760 11.240 6.760 11.697 C 6.760 12.197,6.790 12.322,6.953 12.494 C 7.111 12.661,7.273 12.731,7.500 12.731 C 7.727 12.731,7.889 12.661,8.047 12.494 C 8.210 12.322,8.240 12.197,8.240 11.697 L 8.240 11.240 8.697 11.240 C 9.197 11.240,9.322 11.210,9.494 11.047 C 9.661 10.889,9.731 10.727,9.731 10.500 C 9.731 10.273,9.661 10.111,9.494 9.953 C 9.322 9.790,9.197 9.760,8.697 9.760 L 8.240 9.760 8.240 9.303 C 8.240 9.051,8.221 8.795,8.197 8.733 C 8.146 8.597,7.977 8.412,7.840 8.342 C 7.732 8.287,7.485 8.238,7.420 8.260 M14.940 9.577 C 14.874 9.606,14.772 9.682,14.713 9.745 C 14.408 10.071,14.469 10.620,14.838 10.863 C 15.507 11.306,16.306 10.507,15.863 9.838 C 15.677 9.556,15.254 9.437,14.940 9.577 M17.940 9.577 C 17.874 9.606,17.772 9.682,17.713 9.745 C 17.408 10.071,17.469 10.620,17.838 10.863 C 18.507 11.306,19.306 10.507,18.863 9.838 C 18.677 9.556,18.254 9.437,17.940 9.577 M16.458 11.073 C 16.028 11.274,15.880 11.775,16.137 12.162 C 16.453 12.640,17.237 12.559,17.437 12.027 C 17.669 11.416,17.038 10.801,16.458 11.073 " stroke="none" fill-rule="evenodd" fill="black"></path></svg>