<svg width="24" height="24" viewBox="0 0 24 24" fill="none" xmlns="http://www.w3.org/2000/svg"><path d="M11.327 2.322 C 10.776 2.420,10.142 2.706,9.721 3.046 C 9.210 3.457,3.373 8.672,3.179 8.890 C 2.792 9.324,2.487 9.933,2.334 10.571 C 2.270 10.836,2.263 11.295,2.251 16.044 L 2.237 21.229 1.990 21.255 C 1.533 21.302,1.267 21.579,1.267 22.007 C 1.267 22.203,1.286 22.270,1.383 22.408 C 1.448 22.499,1.572 22.610,1.660 22.656 L 1.820 22.740 11.880 22.751 C 19.099 22.758,22.000 22.749,22.154 22.717 C 22.568 22.631,22.804 22.250,22.711 21.816 C 22.639 21.479,22.296 21.240,21.884 21.240 L 21.763 21.240 21.749 16.050 C 21.737 11.295,21.730 10.836,21.666 10.571 C 21.513 9.932,21.222 9.351,20.828 8.901 C 20.595 8.636,14.556 3.249,14.180 2.972 C 13.875 2.746,13.385 2.509,13.000 2.399 C 12.656 2.301,11.695 2.257,11.327 2.322 M12.490 3.819 C 13.051 3.937,13.079 3.960,16.424 6.934 C 18.138 8.457,19.626 9.800,19.730 9.916 C 19.946 10.158,20.131 10.521,20.196 10.832 C 20.227 10.980,20.240 12.575,20.240 16.142 L 20.240 21.240 19.500 21.240 L 18.760 21.240 18.759 18.370 C 18.757 15.484,18.720 13.985,18.640 13.540 C 18.412 12.289,17.712 11.588,16.460 11.360 C 15.952 11.268,14.191 11.232,11.200 11.254 C 8.240 11.275,7.763 11.295,7.280 11.418 C 6.185 11.696,5.573 12.373,5.360 13.540 C 5.280 13.985,5.243 15.484,5.241 18.370 L 5.240 21.240 4.500 21.240 L 3.760 21.240 3.760 16.142 C 3.760 12.575,3.773 10.980,3.804 10.832 C 3.869 10.521,4.054 10.158,4.270 9.916 C 4.374 9.800,5.862 8.457,7.576 6.934 C 10.901 3.978,10.951 3.938,11.491 3.820 C 11.820 3.749,12.159 3.748,12.490 3.819 M9.815 8.278 C 9.331 8.393,9.098 9.004,9.383 9.408 C 9.447 9.499,9.572 9.610,9.660 9.656 C 9.815 9.738,9.880 9.740,11.875 9.752 C 14.208 9.765,14.281 9.759,14.519 9.521 C 14.918 9.122,14.731 8.423,14.189 8.286 C 13.980 8.234,10.031 8.226,9.815 8.278 M16.260 12.833 C 16.370 12.859,16.559 12.930,16.679 12.991 C 16.863 13.084,16.916 13.137,17.009 13.321 C 17.070 13.441,17.141 13.630,17.167 13.740 C 17.199 13.881,17.218 15.018,17.228 17.590 L 17.244 21.240 12.002 21.240 L 6.760 21.240 6.760 17.838 C 6.760 14.307,6.777 13.851,6.926 13.454 C 7.073 13.061,7.374 12.877,7.989 12.805 C 8.461 12.750,16.011 12.775,16.260 12.833 M8.720 14.805 C 8.458 14.909,8.269 15.200,8.269 15.500 C 8.269 15.807,8.460 16.095,8.733 16.197 C 8.809 16.226,9.868 16.240,12.000 16.240 C 14.132 16.240,15.191 16.226,15.267 16.197 C 15.540 16.095,15.731 15.807,15.731 15.500 C 15.731 15.193,15.540 14.905,15.267 14.803 C 15.117 14.746,8.863 14.748,8.720 14.805 M8.720 17.805 C 8.458 17.909,8.269 18.200,8.269 18.500 C 8.269 18.807,8.460 19.095,8.733 19.197 C 8.809 19.226,9.868 19.240,12.000 19.240 C 14.132 19.240,15.191 19.226,15.267 19.197 C 15.540 19.095,15.731 18.807,15.731 18.500 C 15.731 18.193,15.540 17.905,15.267 17.803 C 15.117 17.746,8.863 17.748,8.720 17.805 " stroke="none" fill-rule="evenodd" fill="black"></path></svg>