<svg width="24" height="24" viewBox="0 0 24 24" fill="none" xmlns="http://www.w3.org/2000/svg"><path d="M7.120 1.280 C 6.023 1.315,5.568 1.359,5.052 1.480 C 3.310 1.890,2.516 2.949,2.316 5.130 C 2.285 5.464,2.265 8.109,2.252 13.422 L 2.234 21.223 1.960 21.266 C 1.497 21.339,1.267 21.584,1.267 22.003 C 1.267 22.281,1.387 22.496,1.627 22.645 L 1.780 22.740 9.507 22.740 L 17.233 22.740 17.403 22.620 C 17.616 22.469,17.729 22.256,17.729 22.004 C 17.729 21.588,17.495 21.338,17.040 21.266 L 16.760 21.222 16.760 19.488 L 16.760 17.754 17.297 17.767 C 17.765 17.778,17.849 17.791,17.945 17.862 C 18.162 18.025,18.205 18.125,18.261 18.605 C 18.321 19.127,18.419 19.419,18.645 19.758 C 18.924 20.176,19.338 20.483,19.840 20.644 C 20.181 20.754,20.761 20.763,21.100 20.663 C 21.852 20.443,22.433 19.863,22.666 19.100 C 22.736 18.872,22.740 18.573,22.740 12.920 C 22.740 6.605,22.749 6.904,22.551 6.280 C 22.401 5.806,22.116 5.311,21.761 4.910 C 21.583 4.708,20.103 3.498,19.859 3.354 C 19.666 3.240,19.345 3.235,19.163 3.341 C 18.753 3.581,18.631 4.114,18.910 4.444 C 18.969 4.514,19.373 4.857,19.808 5.206 C 20.793 5.997,21.027 6.281,21.180 6.868 C 21.280 7.251,21.315 7.225,20.670 7.252 C 20.326 7.267,20.013 7.302,19.880 7.342 C 19.144 7.562,18.565 8.145,18.334 8.900 C 18.268 9.115,18.260 9.299,18.260 10.680 C 18.260 12.312,18.273 12.457,18.458 12.840 C 18.674 13.288,18.951 13.597,19.359 13.845 C 19.500 13.931,19.932 14.102,20.419 14.265 L 21.240 14.540 21.240 16.621 C 21.240 18.953,21.253 18.848,20.944 19.097 C 20.823 19.195,20.752 19.219,20.549 19.231 C 20.257 19.247,20.088 19.173,19.907 18.950 C 19.805 18.823,19.786 18.755,19.740 18.334 C 19.711 18.073,19.653 17.768,19.610 17.656 C 19.439 17.208,19.059 16.770,18.627 16.525 C 18.288 16.333,18.035 16.277,17.374 16.252 L 16.768 16.228 16.748 10.964 C 16.728 5.525,16.713 4.999,16.557 4.228 C 16.176 2.345,15.077 1.491,12.820 1.322 C 12.069 1.266,8.392 1.239,7.120 1.280 M13.220 2.854 C 14.498 3.066,14.922 3.486,15.146 4.760 C 15.207 5.105,15.215 5.891,15.228 13.190 L 15.243 21.240 9.500 21.240 L 3.757 21.240 3.773 13.190 C 3.789 4.992,3.790 4.934,3.940 4.344 C 4.208 3.294,4.803 2.911,6.340 2.800 C 6.582 2.783,8.139 2.773,9.800 2.778 C 12.395 2.786,12.876 2.797,13.220 2.854 M7.100 5.280 C 6.432 5.329,6.056 5.471,5.756 5.788 C 5.546 6.010,5.449 6.192,5.354 6.546 C 5.278 6.831,5.270 6.966,5.270 8.000 C 5.270 9.030,5.278 9.170,5.353 9.450 C 5.539 10.141,5.916 10.500,6.631 10.668 C 6.912 10.734,7.170 10.740,9.500 10.740 C 11.830 10.740,12.088 10.734,12.369 10.668 C 13.085 10.500,13.461 10.141,13.646 9.450 C 13.721 9.171,13.729 9.028,13.729 8.000 C 13.729 6.967,13.721 6.830,13.645 6.546 C 13.468 5.882,13.118 5.533,12.450 5.353 C 12.155 5.273,12.030 5.269,9.840 5.259 C 8.575 5.253,7.342 5.262,7.100 5.280 M12.168 6.832 C 12.244 6.908,12.244 9.092,12.168 9.168 C 12.092 9.244,6.909 9.245,6.832 9.168 C 6.766 9.103,6.734 7.073,6.796 6.910 C 6.819 6.851,6.875 6.798,6.928 6.788 C 6.979 6.778,8.167 6.772,9.568 6.775 C 11.600 6.779,12.127 6.791,12.168 6.832 M21.240 10.857 L 21.240 12.954 20.680 12.767 C 20.288 12.636,20.084 12.545,19.999 12.465 C 19.753 12.233,19.756 12.259,19.769 10.663 L 19.780 9.207 19.901 9.058 C 20.107 8.803,20.233 8.760,20.769 8.760 L 21.240 8.760 21.240 10.857 M6.826 16.284 C 6.476 16.366,6.267 16.636,6.267 17.003 C 6.267 17.281,6.387 17.496,6.627 17.645 L 6.780 17.740 9.500 17.740 L 12.220 17.740 12.369 17.647 C 12.943 17.290,12.812 16.424,12.162 16.284 C 11.909 16.230,7.057 16.230,6.826 16.284 " stroke="none" fill-rule="evenodd" fill="black"></path></svg>