<svg width="24" height="24" viewBox="0 0 24 24" fill="none" xmlns="http://www.w3.org/2000/svg"><path d="M11.560 1.266 C 8.103 1.429,4.977 3.232,3.067 6.167 C 1.990 7.819,1.399 9.645,1.279 11.680 C 1.228 12.544,1.230 19.568,1.281 20.014 C 1.404 21.082,2.159 21.942,3.186 22.184 C 3.384 22.231,3.571 22.243,3.860 22.228 C 4.267 22.208,4.347 22.186,5.040 21.897 C 5.356 21.765,5.907 21.721,6.245 21.800 C 6.467 21.852,6.847 22.023,7.033 22.155 C 7.432 22.436,8.069 22.661,8.630 22.718 C 9.518 22.808,10.349 22.586,11.113 22.055 C 11.558 21.745,11.666 21.702,12.000 21.702 C 12.334 21.702,12.442 21.745,12.887 22.055 C 13.651 22.586,14.482 22.808,15.370 22.718 C 15.931 22.661,16.568 22.436,16.967 22.155 C 17.153 22.023,17.533 21.852,17.755 21.800 C 18.093 21.721,18.644 21.765,18.960 21.897 C 19.759 22.230,19.701 22.215,20.260 22.217 C 20.698 22.218,20.819 22.204,21.027 22.130 C 21.974 21.791,22.606 21.001,22.719 20.016 C 22.770 19.568,22.772 12.546,22.721 11.680 C 22.579 9.255,21.757 7.104,20.261 5.241 C 19.561 4.370,18.487 3.420,17.535 2.831 C 16.224 2.020,14.658 1.481,13.160 1.325 C 12.710 1.277,11.925 1.249,11.560 1.266 M13.529 2.876 C 15.376 3.211,16.965 4.029,18.315 5.340 C 19.169 6.169,19.727 6.935,20.238 7.980 C 20.692 8.907,20.917 9.590,21.128 10.690 C 21.213 11.131,21.215 11.228,21.229 15.556 L 21.243 19.972 21.140 20.185 C 20.975 20.520,20.616 20.760,20.276 20.760 C 20.172 20.760,19.973 20.702,19.744 20.604 C 19.249 20.392,19.011 20.328,18.541 20.280 C 17.734 20.197,17.066 20.364,16.225 20.858 C 15.704 21.164,15.510 21.220,14.980 21.219 C 14.432 21.217,14.259 21.158,13.646 20.764 C 12.955 20.319,12.609 20.201,12.000 20.201 C 11.391 20.201,11.045 20.319,10.354 20.764 C 9.741 21.158,9.568 21.217,9.020 21.219 C 8.490 21.220,8.296 21.164,7.775 20.858 C 6.934 20.364,6.266 20.197,5.459 20.280 C 4.989 20.328,4.751 20.392,4.256 20.604 C 3.839 20.782,3.632 20.800,3.371 20.681 C 3.133 20.573,2.862 20.283,2.804 20.072 C 2.768 19.942,2.760 18.837,2.771 15.520 C 2.785 11.230,2.787 11.131,2.872 10.690 C 3.131 9.344,3.545 8.237,4.177 7.200 C 4.844 6.107,5.921 4.981,6.960 4.290 C 8.159 3.493,9.548 2.976,10.960 2.802 C 11.495 2.737,12.996 2.780,13.529 2.876 M8.767 9.043 C 8.694 9.066,8.553 9.165,8.454 9.264 C 7.856 9.862,7.861 11.143,8.463 11.745 C 8.950 12.232,9.595 11.972,9.889 11.169 C 9.955 10.988,9.973 10.847,9.973 10.500 C 9.973 10.005,9.901 9.741,9.680 9.419 C 9.453 9.091,9.096 8.944,8.767 9.043 M14.691 9.082 C 13.918 9.475,13.758 10.963,14.410 11.705 C 14.833 12.187,15.470 12.047,15.800 11.400 C 16.088 10.835,16.047 9.957,15.710 9.455 C 15.439 9.052,15.037 8.905,14.691 9.082 " fill="#1C274C" stroke="none" fill-rule="evenodd"></path></svg>