<svg width="24" height="24" viewBox="0 0 24 24" fill="none" xmlns="http://www.w3.org/2000/svg"><path d="M8.960 1.280 C 6.960 1.332,5.848 1.469,4.900 1.779 C 3.060 2.382,1.958 3.688,1.563 5.734 C 1.311 7.042,1.267 7.973,1.267 12.000 C 1.267 16.027,1.311 16.958,1.563 18.266 C 2.013 20.599,3.401 21.987,5.734 22.437 C 7.034 22.688,7.987 22.733,12.000 22.733 C 16.013 22.733,16.966 22.688,18.266 22.437 C 20.599 21.987,21.987 20.599,22.437 18.266 C 22.688 16.966,22.733 16.013,22.733 12.000 C 22.733 7.987,22.688 7.034,22.437 5.734 C 22.098 3.977,21.228 2.756,19.825 2.068 C 18.978 1.652,17.875 1.425,16.200 1.321 C 15.315 1.266,10.534 1.239,8.960 1.280 M11.240 4.822 C 11.240 6.461,11.230 6.879,11.190 6.856 C 11.162 6.840,11.063 6.774,10.969 6.711 C 10.401 6.326,9.632 6.080,8.995 6.080 C 8.161 6.080,7.278 6.496,6.755 7.135 C 6.504 7.442,6.226 8.011,6.143 8.388 C 5.966 9.192,6.187 10.196,6.711 10.969 C 6.774 11.063,6.840 11.162,6.856 11.190 C 6.879 11.230,6.460 11.240,4.817 11.240 L 2.749 11.240 2.771 9.550 C 2.796 7.717,2.856 6.878,3.021 6.053 C 3.208 5.125,3.509 4.494,4.001 4.001 C 4.665 3.338,5.593 3.009,7.220 2.862 C 8.065 2.785,8.262 2.778,9.910 2.768 L 11.240 2.760 11.240 4.822 M16.769 2.856 C 18.652 3.047,19.590 3.430,20.240 4.272 C 20.982 5.232,21.237 6.705,21.239 10.030 L 21.240 11.240 19.178 11.240 C 17.539 11.240,17.121 11.230,17.144 11.190 C 17.160 11.162,17.226 11.063,17.289 10.969 C 17.440 10.747,17.629 10.363,17.727 10.083 C 18.017 9.248,17.982 8.490,17.619 7.740 C 17.308 7.096,16.867 6.661,16.220 6.358 C 15.259 5.907,14.135 6.017,13.120 6.660 C 12.977 6.750,12.838 6.838,12.810 6.854 C 12.770 6.879,12.760 6.461,12.760 4.817 L 12.760 2.748 14.470 2.772 C 15.517 2.787,16.408 2.819,16.769 2.856 M9.382 7.621 C 10.058 7.795,10.632 8.262,10.976 8.919 C 11.202 9.350,11.240 9.571,11.240 10.456 L 11.240 11.240 10.456 11.240 C 9.549 11.240,9.349 11.203,8.869 10.949 C 8.331 10.663,7.882 10.147,7.673 9.573 C 7.543 9.218,7.549 8.730,7.686 8.435 C 7.876 8.028,8.226 7.726,8.637 7.615 C 8.888 7.547,9.100 7.549,9.382 7.621 M15.579 7.694 C 16.217 7.987,16.555 8.685,16.384 9.361 C 16.208 10.052,15.742 10.630,15.081 10.976 C 14.650 11.202,14.429 11.240,13.544 11.240 L 12.760 11.240 12.760 10.456 C 12.760 9.564,12.797 9.350,13.032 8.903 C 13.573 7.872,14.748 7.314,15.579 7.694 M10.160 12.798 C 10.160 12.888,9.964 13.366,9.822 13.622 C 9.607 14.010,8.997 14.615,8.600 14.834 C 8.166 15.074,7.752 15.195,7.210 15.239 C 6.688 15.282,6.523 15.356,6.358 15.623 C 6.218 15.849,6.229 16.190,6.383 16.408 C 6.567 16.668,6.746 16.739,7.193 16.728 C 8.757 16.693,10.279 15.785,11.083 14.409 L 11.240 14.141 11.240 17.696 L 11.240 21.251 9.570 21.228 C 7.898 21.205,7.322 21.173,6.500 21.055 C 4.390 20.753,3.409 19.877,3.021 17.947 C 2.855 17.117,2.795 16.282,2.771 14.450 L 2.749 12.760 6.454 12.760 C 8.780 12.760,10.160 12.774,10.160 12.798 M21.228 14.430 C 21.200 16.535,21.122 17.439,20.894 18.320 C 20.467 19.973,19.474 20.773,17.500 21.055 C 16.678 21.173,16.102 21.205,14.430 21.228 L 12.760 21.251 12.760 17.696 L 12.760 14.141 12.917 14.409 C 13.558 15.506,14.687 16.337,15.919 16.617 C 16.348 16.715,16.954 16.760,17.180 16.712 C 17.684 16.604,17.903 15.960,17.580 15.536 C 17.435 15.346,17.241 15.275,16.760 15.237 C 16.251 15.196,15.825 15.070,15.400 14.834 C 15.003 14.615,14.393 14.010,14.178 13.622 C 14.036 13.366,13.840 12.888,13.840 12.798 C 13.840 12.774,15.220 12.760,17.546 12.760 L 21.251 12.760 21.228 14.430 " stroke="none" fill-rule="evenodd" fill="black"></path></svg>