<svg width="24" height="24" viewBox="0 0 24 24" fill="none" xmlns="http://www.w3.org/2000/svg"><path d="M5.740 3.298 C 5.410 3.390,3.997 3.900,3.756 4.014 C 2.898 4.421,2.446 4.970,2.240 5.856 C 2.136 6.305,2.125 6.416,1.720 10.865 C 1.522 13.040,1.332 15.063,1.298 15.360 C 1.115 16.933,1.629 18.382,2.744 19.441 C 3.642 20.293,4.740 20.727,6.000 20.727 C 6.801 20.727,7.446 20.578,8.132 20.235 C 9.372 19.614,10.322 18.405,10.619 17.069 C 10.684 16.780,10.693 16.763,10.833 16.708 C 11.535 16.431,12.465 16.431,13.167 16.708 C 13.307 16.763,13.316 16.780,13.381 17.069 C 13.678 18.405,14.628 19.614,15.868 20.235 C 16.554 20.578,17.199 20.727,18.000 20.727 C 19.260 20.727,20.358 20.293,21.256 19.441 C 22.371 18.382,22.885 16.933,22.702 15.360 C 22.668 15.063,22.478 13.040,22.280 10.865 C 22.082 8.689,21.901 6.745,21.878 6.545 C 21.718 5.184,21.315 4.549,20.288 4.041 C 19.969 3.883,18.489 3.349,18.176 3.279 C 17.633 3.157,17.154 3.635,17.282 4.170 C 17.371 4.540,17.489 4.616,18.538 4.974 C 19.042 5.146,19.558 5.339,19.685 5.402 C 20.148 5.636,20.277 5.869,20.384 6.660 C 20.441 7.077,20.919 12.210,20.904 12.229 C 20.899 12.233,20.810 12.176,20.705 12.102 C 19.948 11.564,18.999 11.273,18.000 11.273 C 17.161 11.273,16.519 11.429,15.781 11.812 C 14.626 12.413,13.677 13.621,13.402 14.840 C 13.318 15.216,13.328 15.199,13.208 15.158 C 12.974 15.079,12.370 15.000,12.000 15.000 C 11.630 15.000,11.026 15.079,10.792 15.158 C 10.672 15.199,10.682 15.216,10.598 14.840 C 10.323 13.621,9.374 12.413,8.219 11.812 C 7.481 11.429,6.839 11.273,6.000 11.273 C 5.001 11.273,4.052 11.564,3.295 12.102 C 3.190 12.176,3.101 12.233,3.096 12.229 C 3.081 12.210,3.559 7.077,3.616 6.660 C 3.759 5.600,3.840 5.527,5.462 4.974 C 6.500 4.619,6.625 4.541,6.715 4.184 C 6.861 3.604,6.341 3.131,5.740 3.298 M6.980 12.894 C 7.508 13.068,7.854 13.286,8.284 13.716 C 8.712 14.143,8.928 14.485,9.108 15.020 C 9.209 15.316,9.217 15.389,9.217 16.000 C 9.217 16.611,9.209 16.684,9.108 16.980 C 8.928 17.515,8.712 17.857,8.284 18.284 C 7.857 18.712,7.515 18.928,6.980 19.108 C 6.684 19.209,6.611 19.217,6.000 19.217 C 5.389 19.217,5.316 19.209,5.020 19.108 C 4.485 18.928,4.143 18.712,3.716 18.284 C 3.288 17.857,3.072 17.515,2.891 16.980 C 2.792 16.686,2.783 16.610,2.784 16.040 C 2.785 15.302,2.834 15.071,3.108 14.520 C 3.269 14.196,3.357 14.080,3.699 13.736 C 4.106 13.325,4.405 13.122,4.852 12.951 C 5.254 12.797,5.514 12.761,6.100 12.775 C 6.572 12.787,6.710 12.806,6.980 12.894 M18.980 12.894 C 19.521 13.072,19.853 13.284,20.301 13.735 C 20.643 14.080,20.731 14.196,20.892 14.520 C 21.166 15.071,21.215 15.302,21.216 16.040 C 21.217 16.610,21.208 16.686,21.109 16.980 C 20.928 17.515,20.712 17.857,20.284 18.284 C 19.857 18.712,19.515 18.928,18.980 19.108 C 18.684 19.209,18.611 19.217,18.000 19.217 C 17.389 19.217,17.316 19.209,17.020 19.108 C 16.485 18.928,16.143 18.712,15.716 18.284 C 15.288 17.857,15.072 17.515,14.892 16.980 C 14.791 16.684,14.783 16.611,14.783 16.000 C 14.783 15.389,14.791 15.316,14.892 15.020 C 15.072 14.485,15.288 14.143,15.716 13.716 C 16.433 12.999,17.066 12.750,18.100 12.775 C 18.572 12.787,18.710 12.806,18.980 12.894 " stroke="none" fill-rule="evenodd" fill="black"></path></svg>