<svg width="24" height="24" viewBox="0 0 24 24" fill="none" xmlns="http://www.w3.org/2000/svg"><path d="M11.272 1.282 C 8.667 1.469,6.313 2.531,4.465 4.352 C 2.548 6.241,1.445 8.671,1.281 11.370 C 1.071 14.824,2.558 18.186,5.261 20.368 C 7.886 22.488,11.422 23.250,14.689 22.401 C 17.532 21.663,19.921 19.819,21.386 17.233 C 22.692 14.928,23.075 12.020,22.420 9.399 C 21.456 5.541,18.459 2.544,14.601 1.580 C 13.956 1.419,13.417 1.336,12.660 1.281 C 12.045 1.237,11.904 1.237,11.272 1.282 M12.432 2.867 C 12.716 3.000,13.199 3.472,13.450 3.860 C 14.241 5.088,14.839 7.069,15.097 9.320 C 15.159 9.859,15.239 10.864,15.240 11.110 L 15.240 11.240 12.000 11.240 L 8.760 11.240 8.760 11.110 C 8.762 10.555,8.916 9.068,9.063 8.203 C 9.515 5.521,10.499 3.402,11.529 2.887 C 11.858 2.723,12.114 2.717,12.432 2.867 M9.053 3.447 C 8.121 5.036,7.428 7.879,7.296 10.650 L 7.268 11.240 5.021 11.240 L 2.774 11.240 2.808 10.950 C 3.196 7.554,5.439 4.647,8.647 3.381 C 8.896 3.283,9.122 3.202,9.149 3.201 C 9.176 3.201,9.135 3.307,9.053 3.447 M15.356 3.385 C 16.641 3.896,17.616 4.542,18.589 5.526 C 19.481 6.429,20.086 7.349,20.578 8.550 C 20.893 9.321,21.200 10.570,21.200 11.085 L 21.200 11.240 18.966 11.240 L 16.732 11.240 16.704 10.650 C 16.572 7.879,15.879 5.036,14.947 3.447 C 14.868 3.311,14.823 3.200,14.847 3.200 C 14.872 3.200,15.101 3.283,15.356 3.385 M7.296 13.350 C 7.428 16.125,8.121 18.963,9.056 20.558 L 9.203 20.809 9.096 20.782 C 8.870 20.726,8.241 20.461,7.789 20.231 C 5.058 18.847,3.158 16.108,2.808 13.050 L 2.774 12.760 5.021 12.760 L 7.268 12.760 7.296 13.350 M15.240 12.890 C 15.239 13.136,15.159 14.141,15.097 14.680 C 14.839 16.931,14.241 18.912,13.450 20.140 C 13.199 20.528,12.716 21.000,12.432 21.133 C 11.949 21.360,11.501 21.222,10.997 20.691 C 10.641 20.317,10.417 19.970,10.099 19.305 C 9.384 17.806,8.916 15.658,8.777 13.230 L 8.750 12.760 11.995 12.760 L 15.240 12.760 15.240 12.890 M21.192 13.050 C 20.845 16.087,18.946 18.840,16.253 20.211 C 15.831 20.425,14.937 20.800,14.847 20.800 C 14.823 20.800,14.868 20.689,14.947 20.553 C 15.879 18.964,16.572 16.121,16.704 13.350 L 16.732 12.760 18.979 12.760 L 21.226 12.760 21.192 13.050 " stroke="none" fill-rule="evenodd" fill="black"></path></svg>