<svg width="24" height="24" viewBox="0 0 24 24" fill="none" xmlns="http://www.w3.org/2000/svg"><path d="M18.360 1.286 C 18.164 1.343,17.983 1.490,17.903 1.659 C 17.826 1.823,17.813 2.127,17.877 2.294 C 17.901 2.357,18.129 2.616,18.384 2.871 C 20.032 4.523,20.973 6.482,21.202 8.737 C 21.270 9.409,21.232 10.643,21.123 11.260 C 20.836 12.890,20.168 14.388,19.160 15.660 C 18.834 16.071,18.071 16.834,17.660 17.160 C 16.388 18.168,14.891 18.835,13.260 19.123 C 12.651 19.231,11.368 19.271,10.715 19.204 C 9.210 19.048,7.702 18.513,6.444 17.687 C 5.930 17.351,5.390 16.903,4.856 16.371 C 4.429 15.946,4.350 15.884,4.186 15.849 C 3.908 15.790,3.665 15.855,3.482 16.038 C 3.259 16.261,3.193 16.627,3.327 16.891 C 3.390 17.014,3.860 17.515,4.206 17.829 C 5.712 19.193,7.460 20.096,9.386 20.504 C 9.881 20.609,10.738 20.720,11.050 20.720 L 11.240 20.720 11.240 20.976 L 11.240 21.232 10.530 21.246 C 9.715 21.262,9.590 21.300,9.383 21.592 C 9.286 21.730,9.267 21.797,9.267 21.997 C 9.267 22.282,9.385 22.494,9.627 22.645 L 9.780 22.740 11.860 22.753 C 13.338 22.762,14.002 22.752,14.154 22.719 C 14.919 22.552,14.926 21.448,14.162 21.284 C 14.049 21.260,13.687 21.240,13.358 21.240 L 12.760 21.240 12.760 20.968 L 12.760 20.697 13.281 20.626 C 15.879 20.274,18.409 18.872,20.115 16.840 C 21.001 15.785,21.590 14.772,22.071 13.480 C 22.793 11.540,22.932 9.289,22.461 7.197 C 22.118 5.673,21.332 4.044,20.339 2.800 C 19.899 2.248,19.103 1.438,18.892 1.327 C 18.771 1.264,18.508 1.243,18.360 1.286 M11.387 2.281 C 9.009 2.458,6.826 3.766,5.482 5.820 C 4.039 8.025,3.865 10.985,5.037 13.380 C 6.101 15.554,8.080 17.095,10.433 17.582 C 13.809 18.280,17.238 16.656,18.858 13.592 C 18.978 13.365,19.138 13.018,19.214 12.820 C 19.387 12.372,19.675 11.374,19.671 11.240 C 19.670 11.185,19.688 10.883,19.713 10.569 C 19.861 8.671,19.307 6.816,18.127 5.260 C 17.885 4.941,17.248 4.287,16.900 4.001 C 15.384 2.756,13.388 2.133,11.387 2.281 M12.900 3.817 C 13.601 3.924,14.233 4.127,14.820 4.433 C 15.114 4.586,15.182 4.638,15.191 4.720 C 15.205 4.853,14.964 5.536,14.827 5.750 C 14.689 5.967,14.245 6.320,13.688 6.655 C 12.838 7.167,12.436 7.527,12.111 8.066 C 11.846 8.504,11.750 8.892,11.803 9.309 C 11.900 10.091,11.901 10.058,11.780 10.153 C 11.696 10.219,11.615 10.240,11.442 10.240 C 10.843 10.240,10.287 9.849,9.962 9.202 C 9.810 8.900,9.737 8.625,9.661 8.069 C 9.529 7.103,9.213 6.290,8.603 5.348 C 8.402 5.038,8.361 4.947,8.398 4.903 C 8.423 4.872,8.565 4.775,8.712 4.688 C 9.505 4.219,10.226 3.953,11.060 3.820 C 11.494 3.751,12.460 3.749,12.900 3.817 M16.957 6.200 C 17.808 7.320,18.238 8.593,18.239 10.000 C 18.240 11.180,18.017 11.845,17.505 12.190 C 17.198 12.396,16.861 12.480,16.160 12.523 C 15.398 12.570,14.991 12.640,14.416 12.823 C 13.392 13.148,12.739 13.748,12.442 14.634 C 12.306 15.037,12.273 15.267,12.277 15.770 L 12.280 16.240 11.870 16.239 C 10.814 16.237,9.744 15.926,8.740 15.328 C 7.973 14.872,7.130 14.029,6.672 13.260 C 6.047 12.212,5.761 11.189,5.761 10.000 C 5.761 8.811,6.046 7.790,6.672 6.740 C 6.790 6.542,7.085 6.122,7.201 5.987 C 7.236 5.947,7.633 6.607,7.818 7.012 C 8.019 7.455,8.105 7.767,8.201 8.404 C 8.340 9.334,8.563 9.910,9.012 10.500 C 9.399 11.007,10.033 11.452,10.601 11.614 C 10.953 11.714,11.476 11.760,11.779 11.717 C 12.453 11.622,13.060 11.158,13.280 10.570 C 13.375 10.317,13.395 9.762,13.321 9.460 C 13.188 8.916,13.442 8.568,14.418 7.960 C 15.493 7.290,15.910 6.912,16.205 6.340 C 16.307 6.142,16.413 5.911,16.440 5.827 L 16.488 5.673 16.609 5.787 C 16.675 5.849,16.832 6.035,16.957 6.200 M16.458 14.365 C 15.916 14.913,15.426 15.268,14.731 15.616 C 14.500 15.731,13.829 16.000,13.772 16.000 C 13.766 16.000,13.760 15.861,13.761 15.690 C 13.764 14.626,14.435 14.153,16.120 14.025 C 16.483 13.998,16.788 13.981,16.798 13.989 C 16.808 13.996,16.655 14.166,16.458 14.365 " stroke="none" fill-rule="evenodd" fill="black"></path></svg>