<svg width="24" height="24" viewBox="0 0 24 24" fill="none" xmlns="http://www.w3.org/2000/svg"><path d="M11.807 1.289 C 11.574 1.339,11.348 1.565,11.286 1.811 C 11.252 1.947,11.240 3.613,11.240 8.132 L 11.240 14.268 10.599 14.295 C 7.163 14.442,4.074 15.252,2.502 16.418 C 1.308 17.304,0.950 18.478,1.547 19.553 C 2.408 21.104,5.444 22.277,9.540 22.640 C 11.303 22.796,13.662 22.755,15.420 22.538 C 19.462 22.039,22.181 20.733,22.663 19.060 C 22.752 18.750,22.752 18.250,22.663 17.940 C 22.451 17.204,21.772 16.500,20.720 15.928 C 19.103 15.048,16.281 14.418,13.401 14.295 L 12.760 14.268 12.760 13.615 L 12.760 12.962 15.710 11.483 C 17.332 10.670,18.863 9.888,19.112 9.746 C 20.096 9.182,20.495 8.678,20.495 8.000 C 20.495 7.322,20.096 6.818,19.112 6.254 C 18.863 6.112,17.332 5.330,15.710 4.517 L 12.760 3.038 12.759 2.529 C 12.758 2.249,12.739 1.939,12.717 1.841 C 12.620 1.420,12.247 1.194,11.807 1.289 M18.460 7.601 C 18.658 7.714,18.865 7.851,18.919 7.904 L 19.018 8.000 18.919 8.096 C 18.740 8.270,18.055 8.633,15.390 9.965 L 12.760 11.280 12.760 8.000 L 12.760 4.719 15.430 6.057 C 16.898 6.793,18.262 7.487,18.460 7.601 M11.247 16.993 L 11.260 18.226 11.367 18.388 C 11.526 18.628,11.721 18.733,12.007 18.733 C 12.203 18.733,12.270 18.714,12.408 18.617 C 12.729 18.390,12.738 18.345,12.753 16.965 L 12.765 15.749 13.273 15.776 C 15.944 15.916,18.205 16.381,19.703 17.097 C 20.266 17.366,20.555 17.551,20.852 17.834 C 21.370 18.329,21.371 18.672,20.854 19.162 C 20.551 19.449,20.350 19.585,19.860 19.830 C 18.731 20.395,17.156 20.813,15.240 21.057 C 14.121 21.199,13.719 21.219,12.000 21.219 C 10.281 21.219,9.879 21.199,8.760 21.057 C 6.844 20.813,5.269 20.395,4.140 19.830 C 3.650 19.585,3.449 19.449,3.146 19.162 C 2.630 18.673,2.630 18.327,3.146 17.838 C 3.449 17.551,3.650 17.415,4.140 17.170 C 5.473 16.503,7.564 16.011,9.780 15.841 C 10.566 15.781,10.666 15.775,10.967 15.767 L 11.235 15.760 11.247 16.993 " stroke="none" fill-rule="evenodd" fill="black"></path></svg>