<svg width="24" height="24" viewBox="0 0 24 24" fill="none" xmlns="http://www.w3.org/2000/svg"><path d="M11.826 1.286 C 11.625 1.331,11.468 1.445,11.353 1.631 C 11.266 1.770,11.259 1.828,11.246 2.528 L 11.233 3.276 11.046 3.301 C 9.557 3.503,8.345 3.940,7.220 4.682 C 6.158 5.382,5.413 6.123,4.710 7.180 C 3.943 8.334,3.506 9.534,3.301 11.046 L 3.276 11.232 2.548 11.246 C 1.713 11.262,1.591 11.298,1.383 11.592 C 1.286 11.730,1.267 11.797,1.267 11.997 C 1.267 12.282,1.385 12.494,1.627 12.645 C 1.771 12.735,1.823 12.741,2.528 12.754 L 3.276 12.767 3.301 12.954 C 3.506 14.466,3.943 15.666,4.710 16.820 C 5.413 17.877,6.158 18.618,7.220 19.318 C 8.345 20.060,9.557 20.497,11.046 20.699 L 11.233 20.724 11.246 21.472 C 11.259 22.172,11.266 22.230,11.353 22.369 C 11.619 22.797,12.173 22.867,12.522 22.518 C 12.719 22.321,12.760 22.119,12.760 21.340 L 12.760 20.725 12.950 20.699 C 14.437 20.498,15.659 20.059,16.760 19.331 C 17.851 18.610,18.582 17.884,19.290 16.820 C 20.058 15.665,20.494 14.468,20.699 12.950 L 20.725 12.760 21.365 12.760 C 21.717 12.760,22.087 12.739,22.189 12.714 C 22.730 12.577,22.918 11.878,22.520 11.480 C 22.320 11.280,22.122 11.240,21.340 11.240 L 20.724 11.240 20.704 11.110 C 20.693 11.038,20.664 10.836,20.639 10.660 C 20.347 8.592,19.150 6.517,17.484 5.189 C 16.166 4.138,14.735 3.543,12.950 3.301 L 12.760 3.275 12.759 2.648 C 12.758 2.302,12.739 1.939,12.717 1.841 C 12.622 1.428,12.243 1.192,11.826 1.286 M13.375 4.877 C 14.816 5.168,16.083 5.847,17.118 6.882 C 18.158 7.922,18.832 9.184,19.128 10.647 C 19.208 11.040,19.220 11.220,19.220 12.000 C 19.220 12.780,19.208 12.960,19.128 13.353 C 18.601 15.955,16.768 18.048,14.294 18.875 C 13.450 19.157,13.033 19.220,12.000 19.220 C 11.216 19.220,11.041 19.208,10.640 19.127 C 9.183 18.832,7.922 18.158,6.882 17.118 C 5.842 16.078,5.168 14.817,4.873 13.360 C 4.792 12.959,4.780 12.784,4.780 12.000 C 4.780 11.216,4.792 11.041,4.873 10.640 C 5.168 9.183,5.842 7.922,6.882 6.882 C 8.053 5.711,9.427 5.041,11.180 4.785 C 11.246 4.775,11.669 4.772,12.120 4.778 C 12.775 4.787,13.027 4.806,13.375 4.877 M11.740 8.266 C 10.415 8.385,9.327 9.085,8.719 10.212 C 8.400 10.803,8.271 11.320,8.271 12.000 C 8.271 12.682,8.400 13.197,8.721 13.792 C 9.078 14.453,9.549 14.923,10.212 15.281 C 10.803 15.600,11.320 15.729,12.000 15.729 C 12.680 15.729,13.197 15.600,13.788 15.281 C 14.451 14.923,14.922 14.453,15.279 13.792 C 15.600 13.197,15.729 12.682,15.729 12.000 C 15.729 11.320,15.600 10.803,15.281 10.212 C 14.832 9.381,14.122 8.779,13.215 8.463 C 12.793 8.316,12.149 8.230,11.740 8.266 M12.578 9.821 C 12.949 9.918,13.274 10.112,13.581 10.419 C 14.041 10.879,14.240 11.356,14.240 12.000 C 14.240 12.644,14.041 13.121,13.581 13.581 C 13.121 14.041,12.644 14.240,12.000 14.240 C 11.356 14.240,10.879 14.041,10.419 13.581 C 9.959 13.121,9.760 12.644,9.760 12.000 C 9.760 11.356,9.959 10.879,10.419 10.419 C 10.719 10.118,11.050 9.919,11.404 9.823 C 11.692 9.746,12.285 9.745,12.578 9.821 " stroke="none" fill-rule="evenodd" fill="black"></path></svg>