<svg width="24" height="24" viewBox="0 0 24 24" fill="none" xmlns="http://www.w3.org/2000/svg"><path d="M8.960 1.280 C 6.960 1.332,5.848 1.469,4.900 1.779 C 3.060 2.382,1.958 3.688,1.563 5.734 C 1.311 7.042,1.267 7.973,1.267 12.000 C 1.267 16.027,1.311 16.958,1.563 18.266 C 2.013 20.599,3.401 21.987,5.734 22.437 C 7.034 22.688,7.987 22.733,12.000 22.733 C 16.013 22.733,16.966 22.688,18.266 22.437 C 20.599 21.987,21.987 20.599,22.437 18.266 C 22.688 16.966,22.733 16.013,22.733 12.000 C 22.733 7.987,22.688 7.034,22.437 5.734 C 22.098 3.977,21.228 2.756,19.825 2.068 C 18.978 1.652,17.875 1.425,16.200 1.321 C 15.315 1.266,10.534 1.239,8.960 1.280 M16.787 2.853 C 17.971 2.982,18.589 3.129,19.180 3.421 C 20.200 3.924,20.776 4.815,21.019 6.260 C 21.215 7.435,21.251 8.515,21.229 12.620 C 21.210 16.115,21.195 16.526,21.055 17.500 C 20.734 19.744,19.757 20.726,17.520 21.054 C 16.474 21.207,16.036 21.220,12.000 21.220 C 7.964 21.220,7.526 21.207,6.480 21.054 C 4.384 20.747,3.408 19.870,3.021 17.947 C 2.796 16.826,2.780 16.428,2.780 12.000 C 2.780 8.382,2.788 7.864,2.852 7.240 C 3.025 5.550,3.340 4.663,4.001 4.001 C 4.665 3.338,5.593 3.009,7.220 2.862 C 8.207 2.772,8.227 2.772,12.400 2.782 C 15.524 2.790,16.323 2.803,16.787 2.853 M14.420 9.260 C 14.398 9.267,14.331 9.284,14.271 9.297 C 14.124 9.329,13.881 9.548,13.814 9.708 C 13.703 9.973,13.759 10.289,13.953 10.494 C 14.135 10.686,14.268 10.731,14.731 10.756 L 15.163 10.780 14.130 11.810 C 13.361 12.576,13.072 12.840,13.002 12.840 C 12.932 12.840,12.665 12.601,11.983 11.927 C 11.476 11.425,10.994 10.975,10.914 10.927 C 10.370 10.598,9.633 10.598,9.086 10.926 C 8.904 11.035,6.467 13.450,6.351 13.636 C 6.232 13.826,6.235 14.177,6.356 14.374 C 6.532 14.659,6.841 14.784,7.189 14.711 C 7.370 14.673,7.447 14.604,8.643 13.415 C 9.580 12.483,9.929 12.160,9.999 12.160 C 10.068 12.160,10.339 12.404,11.017 13.074 C 11.524 13.576,12.021 14.034,12.120 14.090 C 12.653 14.395,13.345 14.395,13.880 14.091 C 13.979 14.035,14.548 13.504,15.145 12.911 L 16.229 11.834 16.248 12.267 C 16.268 12.733,16.310 12.862,16.506 13.047 C 16.783 13.309,17.217 13.309,17.494 13.047 C 17.740 12.814,17.739 12.820,17.752 11.388 C 17.767 9.859,17.749 9.709,17.523 9.483 C 17.295 9.255,17.179 9.240,15.732 9.243 C 15.033 9.245,14.442 9.252,14.420 9.260 " stroke="none" fill-rule="evenodd" fill="black"></path></svg>