<svg width="24" height="24" viewBox="0 0 24 24" fill="none" xmlns="http://www.w3.org/2000/svg"><path d="M8.960 1.282 C 6.971 1.330,5.852 1.467,4.900 1.779 C 3.060 2.382,1.958 3.688,1.563 5.734 C 1.311 7.042,1.267 7.973,1.267 12.000 C 1.267 16.027,1.311 16.958,1.563 18.266 C 2.013 20.599,3.401 21.987,5.734 22.437 C 7.034 22.688,7.987 22.733,12.000 22.733 C 16.013 22.733,16.966 22.688,18.266 22.437 C 20.599 21.987,21.987 20.599,22.437 18.267 C 22.666 17.082,22.722 16.036,22.732 12.838 C 22.741 10.043,22.754 10.199,22.494 9.953 C 22.217 9.691,21.783 9.691,21.506 9.953 C 21.247 10.198,21.262 10.015,21.235 13.200 C 21.210 16.037,21.187 16.578,21.055 17.500 C 20.734 19.744,19.757 20.726,17.520 21.054 C 16.474 21.207,16.036 21.220,12.000 21.220 C 7.964 21.220,7.526 21.207,6.480 21.054 C 4.384 20.747,3.408 19.870,3.021 17.947 C 2.796 16.826,2.780 16.428,2.780 12.000 C 2.780 7.572,2.796 7.174,3.021 6.053 C 3.383 4.255,4.256 3.382,6.053 3.021 C 7.035 2.824,7.633 2.792,10.780 2.765 C 13.987 2.738,13.802 2.753,14.047 2.494 C 14.181 2.353,14.240 2.201,14.240 2.000 C 14.240 1.799,14.181 1.647,14.047 1.506 C 13.808 1.253,13.868 1.260,11.960 1.256 C 11.003 1.253,9.653 1.265,8.960 1.282 M18.740 1.266 C 17.415 1.385,16.327 2.085,15.719 3.212 C 15.400 3.803,15.271 4.320,15.271 5.000 C 15.271 5.682,15.400 6.197,15.721 6.792 C 16.078 7.453,16.549 7.923,17.212 8.281 C 17.803 8.600,18.320 8.729,19.000 8.729 C 19.680 8.729,20.197 8.600,20.788 8.281 C 21.451 7.923,21.922 7.453,22.279 6.792 C 22.600 6.197,22.729 5.682,22.729 5.000 C 22.729 4.320,22.600 3.803,22.281 3.212 C 21.832 2.381,21.122 1.779,20.215 1.463 C 19.793 1.316,19.149 1.230,18.740 1.266 M19.578 2.821 C 19.949 2.918,20.274 3.112,20.581 3.419 C 21.041 3.879,21.240 4.356,21.240 5.000 C 21.240 5.644,21.041 6.121,20.581 6.581 C 20.121 7.041,19.644 7.240,19.000 7.240 C 18.356 7.240,17.879 7.041,17.419 6.581 C 16.959 6.121,16.760 5.644,16.760 5.000 C 16.760 4.356,16.959 3.879,17.419 3.419 C 17.719 3.118,18.050 2.919,18.404 2.823 C 18.692 2.746,19.285 2.745,19.578 2.821 M14.420 9.260 C 14.398 9.267,14.331 9.284,14.271 9.297 C 14.124 9.329,13.881 9.548,13.814 9.708 C 13.703 9.973,13.759 10.289,13.953 10.494 C 14.135 10.686,14.268 10.731,14.731 10.756 L 15.163 10.780 14.130 11.810 C 13.361 12.576,13.072 12.840,13.002 12.840 C 12.932 12.840,12.665 12.601,11.983 11.927 C 11.476 11.425,10.994 10.975,10.914 10.927 C 10.370 10.598,9.633 10.598,9.086 10.926 C 8.904 11.035,6.467 13.450,6.351 13.636 C 6.232 13.826,6.235 14.177,6.356 14.374 C 6.532 14.659,6.841 14.784,7.189 14.711 C 7.370 14.673,7.447 14.604,8.643 13.415 C 9.580 12.483,9.929 12.160,9.999 12.160 C 10.068 12.160,10.339 12.404,11.017 13.074 C 11.524 13.576,12.021 14.034,12.120 14.090 C 12.653 14.395,13.345 14.395,13.880 14.091 C 13.979 14.035,14.548 13.504,15.145 12.911 L 16.229 11.834 16.248 12.267 C 16.268 12.733,16.310 12.862,16.506 13.047 C 16.783 13.309,17.217 13.309,17.494 13.047 C 17.740 12.814,17.739 12.820,17.752 11.388 C 17.767 9.859,17.749 9.709,17.523 9.483 C 17.295 9.255,17.179 9.240,15.732 9.243 C 15.033 9.245,14.442 9.252,14.420 9.260 " stroke="none" fill-rule="evenodd" fill="black"></path></svg>