<svg width="24" height="24" viewBox="0 0 24 24" fill="none" xmlns="http://www.w3.org/2000/svg"><path d="M8.960 1.282 C 6.971 1.330,5.852 1.467,4.900 1.779 C 3.060 2.382,1.958 3.688,1.563 5.734 C 1.311 7.042,1.267 7.973,1.267 12.000 C 1.267 16.027,1.311 16.958,1.563 18.266 C 2.013 20.599,3.401 21.987,5.734 22.437 C 7.034 22.688,7.987 22.733,12.000 22.733 C 16.013 22.733,16.966 22.688,18.266 22.437 C 20.599 21.987,21.987 20.599,22.437 18.267 C 22.666 17.082,22.722 16.036,22.732 12.838 C 22.741 10.043,22.754 10.199,22.494 9.953 C 22.217 9.691,21.783 9.691,21.506 9.953 C 21.247 10.198,21.262 10.015,21.235 13.200 C 21.210 16.037,21.187 16.578,21.055 17.500 C 20.734 19.744,19.757 20.726,17.520 21.054 C 16.474 21.207,16.036 21.220,12.000 21.220 C 7.964 21.220,7.526 21.207,6.480 21.054 C 4.384 20.747,3.408 19.870,3.021 17.947 C 2.796 16.826,2.780 16.428,2.780 12.000 C 2.780 7.572,2.796 7.174,3.021 6.053 C 3.383 4.255,4.256 3.382,6.053 3.021 C 7.035 2.824,7.633 2.792,10.780 2.765 C 13.987 2.738,13.802 2.753,14.047 2.494 C 14.181 2.353,14.240 2.201,14.240 2.000 C 14.240 1.799,14.181 1.647,14.047 1.506 C 13.808 1.253,13.868 1.260,11.960 1.256 C 11.003 1.253,9.653 1.265,8.960 1.282 M18.740 1.266 C 17.415 1.385,16.327 2.085,15.719 3.212 C 15.400 3.803,15.271 4.320,15.271 5.000 C 15.271 5.682,15.400 6.197,15.721 6.792 C 16.078 7.453,16.549 7.923,17.212 8.281 C 17.803 8.600,18.320 8.729,19.000 8.729 C 19.680 8.729,20.197 8.600,20.788 8.281 C 21.451 7.923,21.922 7.453,22.279 6.792 C 22.600 6.197,22.729 5.682,22.729 5.000 C 22.729 4.320,22.600 3.803,22.281 3.212 C 21.832 2.381,21.122 1.779,20.215 1.463 C 19.793 1.316,19.149 1.230,18.740 1.266 M19.578 2.821 C 19.949 2.918,20.274 3.112,20.581 3.419 C 21.041 3.879,21.240 4.356,21.240 5.000 C 21.240 5.644,21.041 6.121,20.581 6.581 C 20.121 7.041,19.644 7.240,19.000 7.240 C 18.356 7.240,17.879 7.041,17.419 6.581 C 16.959 6.121,16.760 5.644,16.760 5.000 C 16.760 4.356,16.959 3.879,17.419 3.419 C 17.719 3.118,18.050 2.919,18.404 2.823 C 18.692 2.746,19.285 2.745,19.578 2.821 M6.815 9.278 C 6.640 9.320,6.462 9.455,6.356 9.626 C 6.235 9.823,6.232 10.174,6.351 10.364 C 6.485 10.580,8.920 12.977,9.120 13.091 C 9.656 13.395,10.347 13.395,10.880 13.090 C 10.979 13.034,11.476 12.576,11.983 12.074 C 12.665 11.399,12.932 11.160,13.002 11.160 C 13.072 11.160,13.361 11.424,14.130 12.190 L 15.163 13.220 14.731 13.244 C 14.268 13.269,14.135 13.314,13.953 13.506 C 13.819 13.647,13.760 13.799,13.760 14.000 C 13.760 14.201,13.819 14.353,13.953 14.494 C 14.186 14.740,14.180 14.739,15.612 14.752 C 17.146 14.767,17.291 14.749,17.520 14.520 C 17.749 14.291,17.767 14.146,17.752 12.612 C 17.739 11.180,17.740 11.186,17.494 10.953 C 17.353 10.819,17.201 10.760,17.000 10.760 C 16.799 10.760,16.647 10.819,16.506 10.953 C 16.310 11.138,16.268 11.267,16.248 11.733 L 16.229 12.166 15.145 11.090 C 14.548 10.498,13.994 9.974,13.914 9.926 C 13.368 9.598,12.630 9.598,12.086 9.927 C 12.006 9.975,11.524 10.425,11.017 10.927 C 10.340 11.596,10.068 11.840,9.999 11.840 C 9.929 11.840,9.580 11.517,8.643 10.586 C 7.481 9.432,7.365 9.328,7.192 9.286 C 6.986 9.235,6.993 9.236,6.815 9.278 " stroke="none" fill-rule="evenodd" fill="black"></path></svg>