<svg width="24" height="24" viewBox="0 0 24 24" fill="none" xmlns="http://www.w3.org/2000/svg"><path d="M8.960 1.280 C 6.960 1.332,5.848 1.469,4.900 1.779 C 3.060 2.382,1.958 3.688,1.563 5.734 C 1.311 7.042,1.267 7.973,1.267 12.000 C 1.267 16.027,1.311 16.958,1.563 18.266 C 2.013 20.599,3.401 21.987,5.734 22.437 C 7.034 22.688,7.987 22.733,12.000 22.733 C 16.013 22.733,16.966 22.688,18.266 22.437 C 20.599 21.987,21.987 20.599,22.437 18.266 C 22.688 16.966,22.733 16.013,22.733 12.000 C 22.733 7.987,22.688 7.034,22.437 5.734 C 22.098 3.977,21.228 2.756,19.825 2.068 C 18.978 1.652,17.875 1.425,16.200 1.321 C 15.315 1.266,10.534 1.239,8.960 1.280 M16.787 2.853 C 17.971 2.982,18.589 3.129,19.180 3.421 C 20.200 3.924,20.776 4.815,21.019 6.260 C 21.215 7.435,21.251 8.515,21.229 12.620 C 21.210 16.115,21.195 16.526,21.055 17.500 C 20.734 19.744,19.757 20.726,17.520 21.054 C 16.474 21.207,16.036 21.220,12.000 21.220 C 7.964 21.220,7.526 21.207,6.480 21.054 C 4.384 20.747,3.408 19.870,3.021 17.947 C 2.796 16.826,2.780 16.428,2.780 12.000 C 2.780 8.382,2.788 7.864,2.852 7.240 C 3.025 5.550,3.340 4.663,4.001 4.001 C 4.665 3.338,5.593 3.009,7.220 2.862 C 8.207 2.772,8.227 2.772,12.400 2.782 C 15.524 2.790,16.323 2.803,16.787 2.853 M16.860 9.268 C 16.602 9.333,16.481 9.456,15.346 10.814 C 14.108 12.296,13.763 12.680,13.670 12.680 C 13.591 12.680,13.149 12.212,12.544 11.487 C 11.872 10.683,11.590 10.383,11.309 10.176 C 10.558 9.620,9.731 9.735,8.984 10.499 C 8.704 10.785,6.390 13.549,6.318 13.683 C 6.291 13.734,6.267 13.867,6.266 13.979 C 6.260 14.397,6.568 14.729,6.967 14.733 C 7.351 14.737,7.378 14.712,8.654 13.186 C 9.884 11.713,10.237 11.320,10.328 11.320 C 10.409 11.320,10.842 11.779,11.460 12.520 C 12.126 13.319,12.388 13.596,12.691 13.822 C 13.285 14.266,13.959 14.283,14.584 13.869 C 14.887 13.668,15.161 13.369,16.460 11.812 C 17.473 10.600,17.677 10.334,17.716 10.180 C 17.795 9.867,17.660 9.532,17.389 9.367 C 17.251 9.283,16.992 9.235,16.860 9.268 " stroke="none" fill-rule="evenodd" fill="black"></path></svg>