<svg width="24" height="24" viewBox="0 0 24 24" fill="none" xmlns="http://www.w3.org/2000/svg"><path d="M8.960 1.282 C 6.971 1.330,5.852 1.467,4.900 1.779 C 3.060 2.382,1.958 3.688,1.563 5.734 C 1.311 7.042,1.267 7.973,1.267 12.000 C 1.267 16.027,1.311 16.958,1.563 18.266 C 2.013 20.599,3.401 21.987,5.734 22.437 C 7.034 22.688,7.987 22.733,12.000 22.733 C 16.013 22.733,16.966 22.688,18.266 22.437 C 20.599 21.987,21.987 20.599,22.437 18.267 C 22.666 17.082,22.722 16.036,22.732 12.838 C 22.741 10.043,22.754 10.199,22.494 9.953 C 22.217 9.691,21.783 9.691,21.506 9.953 C 21.247 10.198,21.262 10.015,21.235 13.200 C 21.210 16.037,21.187 16.578,21.055 17.500 C 20.734 19.744,19.757 20.726,17.520 21.054 C 16.474 21.207,16.036 21.220,12.000 21.220 C 7.964 21.220,7.526 21.207,6.480 21.054 C 4.384 20.747,3.408 19.870,3.021 17.947 C 2.796 16.826,2.780 16.428,2.780 12.000 C 2.780 7.572,2.796 7.174,3.021 6.053 C 3.383 4.255,4.256 3.382,6.053 3.021 C 7.035 2.824,7.633 2.792,10.780 2.765 C 13.987 2.738,13.802 2.753,14.047 2.494 C 14.181 2.353,14.240 2.201,14.240 2.000 C 14.240 1.799,14.181 1.647,14.047 1.506 C 13.808 1.253,13.868 1.260,11.960 1.256 C 11.003 1.253,9.653 1.265,8.960 1.282 M18.740 1.266 C 17.415 1.385,16.327 2.085,15.719 3.212 C 15.400 3.803,15.271 4.320,15.271 5.000 C 15.271 5.682,15.400 6.197,15.721 6.792 C 16.078 7.453,16.549 7.923,17.212 8.281 C 17.803 8.600,18.320 8.729,19.000 8.729 C 19.680 8.729,20.197 8.600,20.788 8.281 C 21.451 7.923,21.922 7.453,22.279 6.792 C 22.600 6.197,22.729 5.682,22.729 5.000 C 22.729 4.320,22.600 3.803,22.281 3.212 C 21.832 2.381,21.122 1.779,20.215 1.463 C 19.793 1.316,19.149 1.230,18.740 1.266 M19.578 2.821 C 19.949 2.918,20.274 3.112,20.581 3.419 C 21.041 3.879,21.240 4.356,21.240 5.000 C 21.240 5.644,21.041 6.121,20.581 6.581 C 20.121 7.041,19.644 7.240,19.000 7.240 C 18.356 7.240,17.879 7.041,17.419 6.581 C 16.959 6.121,16.760 5.644,16.760 5.000 C 16.760 4.356,16.959 3.879,17.419 3.419 C 17.719 3.118,18.050 2.919,18.404 2.823 C 18.692 2.746,19.285 2.745,19.578 2.821 M16.860 9.268 C 16.602 9.333,16.481 9.456,15.346 10.814 C 14.108 12.296,13.763 12.680,13.670 12.680 C 13.591 12.680,13.149 12.212,12.544 11.487 C 11.872 10.683,11.590 10.383,11.309 10.176 C 10.558 9.620,9.731 9.735,8.984 10.499 C 8.704 10.785,6.390 13.549,6.318 13.683 C 6.291 13.734,6.267 13.867,6.266 13.979 C 6.260 14.397,6.568 14.729,6.967 14.733 C 7.351 14.737,7.378 14.712,8.654 13.186 C 9.884 11.713,10.237 11.320,10.328 11.320 C 10.409 11.320,10.842 11.779,11.460 12.520 C 12.126 13.319,12.388 13.596,12.691 13.822 C 13.285 14.266,13.959 14.283,14.584 13.869 C 14.887 13.668,15.161 13.369,16.460 11.812 C 17.473 10.600,17.677 10.334,17.716 10.180 C 17.795 9.867,17.660 9.532,17.389 9.367 C 17.251 9.283,16.992 9.235,16.860 9.268 " stroke="none" fill-rule="evenodd" fill="black"></path></svg>