<svg width="24" height="24" viewBox="0 0 24 24" fill="none" xmlns="http://www.w3.org/2000/svg"><path d="M8.960 1.280 C 6.960 1.332,5.848 1.469,4.900 1.779 C 3.060 2.382,1.958 3.688,1.563 5.734 C 1.311 7.042,1.267 7.973,1.267 12.000 C 1.267 16.027,1.311 16.958,1.563 18.266 C 2.013 20.599,3.401 21.987,5.734 22.437 C 7.034 22.688,7.987 22.733,12.000 22.733 C 16.013 22.733,16.966 22.688,18.266 22.437 C 20.599 21.987,21.987 20.599,22.437 18.266 C 22.688 16.966,22.733 16.013,22.733 12.000 C 22.733 7.987,22.688 7.034,22.437 5.734 C 22.098 3.977,21.228 2.756,19.825 2.068 C 18.978 1.652,17.875 1.425,16.200 1.321 C 15.315 1.266,10.534 1.239,8.960 1.280 M16.787 2.853 C 17.971 2.982,18.589 3.129,19.180 3.421 C 20.200 3.924,20.776 4.815,21.019 6.260 C 21.215 7.435,21.251 8.515,21.229 12.620 C 21.210 16.115,21.195 16.526,21.055 17.500 C 20.734 19.744,19.757 20.726,17.520 21.054 C 16.474 21.207,16.036 21.220,12.000 21.220 C 7.964 21.220,7.526 21.207,6.480 21.054 C 4.384 20.747,3.408 19.870,3.021 17.947 C 2.796 16.826,2.780 16.428,2.780 12.000 C 2.780 8.382,2.788 7.864,2.852 7.240 C 3.025 5.550,3.340 4.663,4.001 4.001 C 4.665 3.338,5.593 3.009,7.220 2.862 C 8.207 2.772,8.227 2.772,12.400 2.782 C 15.524 2.790,16.323 2.803,16.787 2.853 M6.815 9.278 C 6.640 9.320,6.462 9.455,6.356 9.626 C 6.235 9.823,6.232 10.174,6.351 10.364 C 6.485 10.580,8.920 12.977,9.120 13.091 C 9.656 13.395,10.347 13.395,10.880 13.090 C 10.979 13.034,11.476 12.576,11.983 12.074 C 12.665 11.399,12.932 11.160,13.002 11.160 C 13.072 11.160,13.361 11.424,14.130 12.190 L 15.163 13.220 14.731 13.244 C 14.268 13.269,14.135 13.314,13.953 13.506 C 13.819 13.647,13.760 13.799,13.760 14.000 C 13.760 14.201,13.819 14.353,13.953 14.494 C 14.186 14.740,14.180 14.739,15.612 14.752 C 17.146 14.767,17.291 14.749,17.520 14.520 C 17.749 14.291,17.767 14.146,17.752 12.612 C 17.739 11.180,17.740 11.186,17.494 10.953 C 17.353 10.819,17.201 10.760,17.000 10.760 C 16.799 10.760,16.647 10.819,16.506 10.953 C 16.310 11.138,16.268 11.267,16.248 11.733 L 16.229 12.166 15.145 11.090 C 14.548 10.498,13.994 9.974,13.914 9.926 C 13.368 9.598,12.630 9.598,12.086 9.927 C 12.006 9.975,11.524 10.425,11.017 10.927 C 10.340 11.596,10.068 11.840,9.999 11.840 C 9.929 11.840,9.580 11.517,8.643 10.586 C 7.481 9.432,7.365 9.328,7.192 9.286 C 6.986 9.235,6.993 9.236,6.815 9.278 " stroke="none" fill-rule="evenodd" fill="black"></path></svg>