<svg width="24" height="24" viewBox="0 0 24 24" fill="none" xmlns="http://www.w3.org/2000/svg"><path d="M10.312 1.283 C 9.773 1.341,9.094 1.608,8.660 1.934 C 7.460 2.834,6.970 4.395,7.442 5.815 C 7.686 6.549,7.765 6.647,9.559 8.441 C 10.967 9.849,11.222 10.087,11.500 10.249 C 13.019 11.138,14.961 10.773,16.017 9.400 C 16.717 8.489,16.921 7.277,16.558 6.185 C 16.318 5.462,16.223 5.344,14.520 3.627 C 13.329 2.425,12.905 2.024,12.648 1.852 C 11.959 1.392,11.147 1.194,10.312 1.283 M11.539 2.933 C 11.815 3.064,11.925 3.154,12.476 3.700 L 13.100 4.319 12.944 4.618 C 12.499 5.468,11.468 6.499,10.618 6.943 L 10.319 7.100 9.700 6.476 C 9.153 5.924,9.065 5.816,8.932 5.537 C 8.797 5.253,8.780 5.182,8.766 4.830 C 8.740 4.180,8.892 3.784,9.338 3.338 C 9.784 2.891,10.133 2.755,10.783 2.773 C 11.200 2.784,11.245 2.794,11.539 2.933 M15.068 6.464 C 15.196 6.732,15.215 6.813,15.232 7.162 C 15.263 7.814,15.112 8.212,14.662 8.662 C 14.212 9.112,13.814 9.263,13.162 9.232 C 12.604 9.205,12.295 9.055,11.796 8.571 L 11.432 8.218 11.786 7.982 C 12.668 7.397,13.422 6.640,13.999 5.762 L 14.216 5.430 14.570 5.795 C 14.841 6.075,14.957 6.231,15.068 6.464 M10.000 14.280 C 7.941 14.422,5.616 15.254,3.741 16.519 C 3.420 16.736,3.339 16.836,3.283 17.087 C 3.170 17.587,3.622 18.071,4.116 17.980 C 4.195 17.966,4.449 17.832,4.680 17.682 C 6.201 16.697,7.888 16.058,9.600 15.816 C 10.178 15.735,11.208 15.737,11.706 15.822 C 12.815 16.010,13.714 16.489,13.841 16.960 C 13.920 17.253,13.801 17.579,13.549 17.757 C 13.474 17.810,13.306 17.820,12.480 17.820 C 11.527 17.820,11.496 17.823,11.352 17.912 C 10.833 18.235,10.926 19.001,11.512 19.227 C 11.675 19.290,11.826 19.300,12.640 19.299 C 14.000 19.297,14.666 19.169,15.517 18.746 C 16.037 18.487,16.339 18.283,17.620 17.319 C 18.900 16.357,19.025 16.288,19.425 16.335 C 19.894 16.391,20.239 16.683,20.240 17.026 C 20.240 17.168,20.190 17.267,19.883 17.726 C 18.985 19.066,18.416 19.577,17.052 20.267 C 16.167 20.715,15.311 20.962,14.000 21.148 C 13.607 21.204,13.234 21.220,12.260 21.220 C 10.920 21.220,10.860 21.215,9.400 20.961 C 7.821 20.687,7.225 20.640,5.289 20.640 C 3.775 20.640,3.705 20.648,3.487 20.852 C 3.140 21.176,3.216 21.797,3.632 22.030 C 3.787 22.118,3.822 22.120,5.025 22.121 C 7.003 22.122,7.788 22.182,9.205 22.441 C 11.308 22.825,13.111 22.842,15.000 22.496 C 16.237 22.269,17.167 21.935,18.229 21.336 C 19.203 20.786,19.809 20.290,20.396 19.560 C 20.754 19.114,21.383 18.192,21.538 17.885 C 22.151 16.671,21.326 15.204,19.859 14.901 C 19.290 14.783,18.689 14.855,18.180 15.101 C 18.020 15.178,17.489 15.548,16.940 15.963 C 15.875 16.769,15.444 17.080,15.394 17.080 C 15.375 17.080,15.360 17.030,15.360 16.968 C 15.360 16.789,15.248 16.399,15.121 16.140 C 14.524 14.914,12.336 14.119,10.000 14.280 " stroke="none" fill-rule="evenodd" fill="black"></path></svg>