<svg width="24" height="24" viewBox="0 0 24 24" fill="none" xmlns="http://www.w3.org/2000/svg"><path d="M15.620 1.280 C 15.160 1.329,14.687 1.432,14.487 1.527 C 13.955 1.781,13.952 2.570,14.482 2.841 C 14.677 2.940,14.852 2.940,15.302 2.841 C 15.737 2.745,16.408 2.735,16.845 2.818 C 17.611 2.965,18.162 3.246,18.792 3.812 C 19.014 4.011,19.127 4.083,19.263 4.113 C 19.756 4.218,20.174 3.893,20.173 3.404 C 20.173 3.108,20.102 2.983,19.751 2.663 C 19.223 2.180,18.534 1.771,17.863 1.541 C 17.203 1.316,16.289 1.209,15.620 1.280 M9.925 1.445 C 9.622 1.495,9.193 1.651,8.927 1.807 C 8.803 1.880,8.555 2.085,8.376 2.262 L 8.051 2.583 7.876 2.430 C 7.779 2.346,7.556 2.205,7.380 2.117 C 6.096 1.475,4.432 2.044,3.743 3.360 C 3.376 4.062,3.353 4.791,3.677 5.460 C 3.763 5.636,4.039 6.131,4.291 6.560 L 4.749 7.340 4.394 7.427 C 2.741 7.834,1.793 9.599,2.488 10.976 C 2.730 11.455,6.416 17.750,6.672 18.120 C 7.058 18.680,7.827 19.431,8.400 19.810 C 10.327 21.084,12.655 21.437,15.066 20.819 C 16.860 20.360,18.606 19.268,19.769 17.880 C 21.791 15.467,22.303 12.387,21.104 9.860 C 20.943 9.521,18.580 5.432,18.230 4.888 C 17.769 4.171,16.832 3.759,15.917 3.872 C 15.225 3.957,14.731 4.195,14.223 4.689 C 14.048 4.859,13.902 4.994,13.899 4.989 C 13.896 4.984,13.554 4.395,13.139 3.680 C 12.478 2.541,12.349 2.345,12.102 2.096 C 11.551 1.543,10.761 1.306,9.925 1.445 M10.673 2.942 C 10.788 2.976,10.943 3.058,11.019 3.124 C 11.111 3.206,11.790 4.332,13.099 6.576 L 15.042 9.906 14.646 10.303 C 13.286 11.666,12.909 13.506,13.670 15.071 C 13.902 15.548,14.209 15.738,14.593 15.641 C 15.136 15.504,15.302 15.038,15.021 14.431 C 14.945 14.267,14.862 14.043,14.837 13.936 C 14.776 13.672,14.776 13.154,14.837 12.860 C 14.893 12.594,15.172 11.977,15.336 11.760 C 15.543 11.484,15.945 11.111,16.267 10.894 C 16.627 10.652,16.696 10.571,16.766 10.308 C 16.804 10.165,16.802 10.099,16.755 9.956 C 16.723 9.859,16.302 9.105,15.819 8.280 L 14.940 6.780 14.940 6.500 C 14.940 6.169,15.012 5.998,15.254 5.754 C 15.690 5.316,16.394 5.222,16.826 5.544 C 16.916 5.611,17.339 6.301,18.265 7.889 C 19.651 10.266,19.819 10.577,19.976 11.047 C 20.173 11.634,20.220 11.967,20.220 12.760 C 20.220 13.554,20.162 13.935,19.935 14.633 C 19.787 15.090,19.316 16.011,19.024 16.416 C 17.294 18.815,14.127 20.088,11.393 19.482 C 9.993 19.171,8.772 18.420,7.983 17.384 C 7.864 17.228,6.871 15.563,5.776 13.685 C 3.875 10.426,3.784 10.260,3.768 10.043 C 3.746 9.736,3.864 9.463,4.126 9.219 C 4.377 8.983,4.629 8.873,4.969 8.849 C 5.300 8.825,5.527 8.901,5.718 9.098 C 5.791 9.173,6.242 9.906,6.721 10.727 C 7.702 12.409,7.730 12.444,8.121 12.472 C 8.414 12.493,8.555 12.440,8.737 12.238 C 8.888 12.070,8.942 11.883,8.908 11.635 C 8.893 11.519,8.350 10.556,6.933 8.128 L 4.980 4.780 4.980 4.477 C 4.980 4.209,4.994 4.151,5.101 3.978 C 5.248 3.740,5.549 3.504,5.820 3.413 C 6.251 3.269,6.769 3.377,6.977 3.655 C 7.029 3.724,7.831 5.085,8.760 6.680 C 9.689 8.275,10.479 9.613,10.515 9.654 C 10.706 9.872,11.138 9.946,11.400 9.806 C 11.718 9.635,11.879 9.243,11.765 8.917 C 11.740 8.846,11.135 7.786,10.420 6.560 C 9.405 4.820,9.115 4.292,9.095 4.151 C 9.026 3.646,9.506 3.066,10.110 2.923 C 10.335 2.870,10.445 2.874,10.673 2.942 M4.498 17.835 C 4.193 17.974,4.008 18.301,4.058 18.614 C 4.108 18.932,4.806 19.923,5.436 20.573 C 6.229 21.391,7.010 21.952,8.133 22.509 C 8.658 22.769,8.871 22.798,9.141 22.646 C 9.397 22.502,9.500 22.317,9.500 22.000 C 9.500 21.595,9.418 21.500,8.787 21.174 C 7.291 20.400,6.414 19.620,5.512 18.260 C 5.200 17.789,4.888 17.658,4.498 17.835 " stroke="none" fill-rule="evenodd" fill="black"></path></svg>