<svg width="24" height="24" viewBox="0 0 24 24" fill="none" xmlns="http://www.w3.org/2000/svg"><path d="M8.344 2.283 C 7.383 2.340,6.857 2.482,6.364 2.817 C 5.762 3.226,5.438 3.858,5.319 4.860 C 5.206 5.806,5.234 8.738,5.363 9.466 C 5.548 10.512,6.104 11.205,6.992 11.496 C 7.696 11.726,8.341 11.760,12.000 11.760 C 15.659 11.760,16.304 11.726,17.008 11.496 C 17.898 11.204,18.457 10.506,18.638 9.460 C 18.795 8.544,18.795 5.456,18.638 4.540 C 18.457 3.494,17.898 2.796,17.008 2.504 C 16.587 2.367,16.330 2.327,15.560 2.281 C 14.801 2.235,9.117 2.237,8.344 2.283 M14.337 3.810 C 14.699 5.057,15.314 5.837,16.340 6.350 C 16.536 6.448,16.862 6.568,17.190 6.663 C 17.225 6.673,17.240 6.776,17.240 7.000 C 17.240 7.224,17.225 7.327,17.190 7.337 C 15.631 7.789,14.789 8.631,14.337 10.190 C 14.326 10.229,13.824 10.240,12.000 10.240 C 10.176 10.240,9.674 10.229,9.663 10.190 C 9.211 8.631,8.369 7.789,6.810 7.337 C 6.775 7.327,6.760 7.224,6.760 7.000 C 6.760 6.776,6.775 6.673,6.810 6.663 C 8.057 6.301,8.837 5.686,9.350 4.660 C 9.448 4.464,9.568 4.138,9.663 3.810 C 9.674 3.771,10.176 3.760,12.000 3.760 C 13.824 3.760,14.326 3.771,14.337 3.810 M7.994 4.050 C 7.822 4.378,7.375 4.823,7.045 4.996 L 6.789 5.130 6.818 4.900 C 6.852 4.633,6.927 4.403,7.042 4.216 C 7.169 4.011,7.620 3.820,8.012 3.804 L 8.125 3.800 7.994 4.050 M16.549 3.927 C 16.665 3.970,16.812 4.058,16.877 4.123 C 17.018 4.265,17.141 4.577,17.181 4.896 L 17.211 5.130 16.955 4.996 C 16.622 4.822,16.178 4.378,16.004 4.045 L 15.870 3.789 16.104 3.819 C 16.233 3.835,16.433 3.884,16.549 3.927 M11.840 5.270 C 11.301 5.314,10.802 5.629,10.501 6.115 C 10.190 6.618,10.190 7.382,10.501 7.885 C 10.731 8.256,11.106 8.553,11.488 8.666 C 11.748 8.743,12.252 8.743,12.512 8.666 C 13.034 8.511,13.511 8.033,13.667 7.510 C 13.743 7.252,13.743 6.748,13.667 6.490 C 13.438 5.721,12.662 5.202,11.840 5.270 M12.167 6.826 C 12.319 6.964,12.212 7.240,12.007 7.240 C 11.793 7.240,11.683 6.992,11.826 6.833 C 11.909 6.742,12.070 6.739,12.167 6.826 M7.581 9.419 C 7.747 9.585,7.917 9.805,7.996 9.955 L 8.130 10.211 7.896 10.181 C 7.577 10.141,7.265 10.018,7.123 9.877 C 6.982 9.735,6.859 9.423,6.819 9.104 L 6.789 8.870 7.045 9.004 C 7.195 9.083,7.415 9.253,7.581 9.419 M17.181 9.109 C 17.141 9.424,17.018 9.736,16.877 9.877 C 16.735 10.018,16.423 10.141,16.104 10.181 L 15.870 10.211 16.004 9.955 C 16.173 9.633,16.622 9.180,16.940 9.010 C 17.072 8.940,17.187 8.882,17.195 8.881 C 17.203 8.880,17.196 8.983,17.181 9.109 M10.000 14.280 C 7.941 14.422,5.616 15.254,3.741 16.519 C 3.420 16.736,3.339 16.836,3.283 17.087 C 3.170 17.587,3.622 18.071,4.116 17.980 C 4.195 17.966,4.449 17.832,4.680 17.682 C 6.201 16.697,7.888 16.058,9.600 15.816 C 10.178 15.735,11.208 15.737,11.706 15.822 C 12.815 16.010,13.714 16.489,13.841 16.960 C 13.920 17.253,13.801 17.579,13.549 17.757 C 13.474 17.810,13.306 17.820,12.480 17.820 C 11.527 17.820,11.496 17.823,11.352 17.912 C 10.833 18.235,10.926 19.001,11.512 19.227 C 11.675 19.290,11.826 19.300,12.640 19.299 C 14.000 19.297,14.666 19.169,15.517 18.746 C 16.037 18.487,16.339 18.283,17.620 17.319 C 18.900 16.357,19.025 16.288,19.425 16.335 C 19.894 16.391,20.239 16.683,20.240 17.026 C 20.240 17.168,20.190 17.267,19.883 17.726 C 18.985 19.066,18.416 19.577,17.052 20.267 C 16.167 20.715,15.311 20.962,14.000 21.148 C 13.607 21.204,13.234 21.220,12.260 21.220 C 10.920 21.220,10.860 21.215,9.400 20.961 C 7.821 20.687,7.225 20.640,5.289 20.640 C 3.775 20.640,3.705 20.648,3.487 20.852 C 3.140 21.176,3.216 21.797,3.632 22.030 C 3.787 22.118,3.822 22.120,5.025 22.121 C 7.003 22.122,7.788 22.182,9.205 22.441 C 11.308 22.825,13.111 22.842,15.000 22.496 C 16.237 22.269,17.167 21.935,18.229 21.336 C 19.203 20.786,19.809 20.290,20.396 19.560 C 20.754 19.114,21.383 18.192,21.538 17.885 C 22.151 16.671,21.326 15.204,19.859 14.901 C 19.290 14.783,18.689 14.855,18.180 15.101 C 18.020 15.178,17.489 15.548,16.940 15.963 C 15.875 16.769,15.444 17.080,15.394 17.080 C 15.375 17.080,15.360 17.030,15.360 16.968 C 15.360 16.789,15.248 16.399,15.121 16.140 C 14.524 14.914,12.336 14.119,10.000 14.280 " stroke="none" fill-rule="evenodd" fill="black"></path></svg>