<svg width="24" height="24" viewBox="0 0 24 24" fill="none" xmlns="http://www.w3.org/2000/svg"><path d="M9.180 1.266 C 8.807 1.302,8.397 1.417,8.060 1.580 C 7.206 1.993,6.627 2.722,6.380 3.697 C 6.027 5.088,6.388 6.202,7.648 7.607 C 8.473 8.527,10.321 9.959,11.047 10.240 C 11.675 10.483,12.325 10.483,12.953 10.240 C 13.703 9.949,15.553 8.506,16.403 7.548 C 17.619 6.178,17.968 5.068,17.618 3.688 C 17.373 2.722,16.791 1.990,15.940 1.580 C 15.459 1.348,15.096 1.270,14.500 1.269 C 13.733 1.269,13.105 1.455,12.358 1.906 L 11.996 2.123 11.708 1.944 C 11.288 1.682,10.840 1.486,10.425 1.381 C 10.062 1.289,9.484 1.236,9.180 1.266 M10.060 2.840 C 10.424 2.933,10.865 3.160,11.206 3.430 C 11.665 3.794,11.755 3.840,12.000 3.840 C 12.246 3.840,12.333 3.795,12.804 3.422 C 13.934 2.529,15.324 2.551,15.915 3.472 C 16.201 3.918,16.318 4.630,16.182 5.099 C 15.909 6.038,14.898 7.127,13.108 8.410 C 12.571 8.795,12.299 8.920,11.999 8.920 C 11.631 8.920,11.368 8.778,10.424 8.067 C 8.933 6.944,8.068 5.959,7.818 5.099 C 7.765 4.918,7.755 4.778,7.772 4.501 C 7.819 3.749,8.139 3.212,8.709 2.924 C 9.069 2.743,9.561 2.712,10.060 2.840 M10.000 14.280 C 7.941 14.422,5.616 15.254,3.741 16.519 C 3.420 16.736,3.339 16.836,3.283 17.087 C 3.170 17.587,3.622 18.071,4.116 17.980 C 4.195 17.966,4.449 17.832,4.680 17.682 C 6.201 16.697,7.888 16.058,9.600 15.816 C 10.178 15.735,11.208 15.737,11.706 15.822 C 12.815 16.010,13.714 16.489,13.841 16.960 C 13.920 17.253,13.801 17.579,13.549 17.757 C 13.474 17.810,13.306 17.820,12.480 17.820 C 11.527 17.820,11.496 17.823,11.352 17.912 C 10.833 18.235,10.926 19.001,11.512 19.227 C 11.675 19.290,11.826 19.300,12.640 19.299 C 14.000 19.297,14.666 19.169,15.517 18.746 C 16.037 18.487,16.339 18.283,17.620 17.319 C 18.900 16.357,19.025 16.288,19.425 16.335 C 19.894 16.391,20.239 16.683,20.240 17.026 C 20.240 17.168,20.190 17.267,19.883 17.726 C 18.985 19.066,18.416 19.577,17.052 20.267 C 16.167 20.715,15.311 20.962,14.000 21.148 C 13.607 21.204,13.234 21.220,12.260 21.220 C 10.920 21.220,10.860 21.215,9.400 20.961 C 7.821 20.687,7.225 20.640,5.289 20.640 C 3.775 20.640,3.705 20.648,3.487 20.852 C 3.140 21.176,3.216 21.797,3.632 22.030 C 3.787 22.118,3.822 22.120,5.025 22.121 C 7.003 22.122,7.788 22.182,9.205 22.441 C 11.308 22.825,13.111 22.842,15.000 22.496 C 16.237 22.269,17.167 21.935,18.229 21.336 C 19.203 20.786,19.809 20.290,20.396 19.560 C 20.754 19.114,21.383 18.192,21.538 17.885 C 22.151 16.671,21.326 15.204,19.859 14.901 C 19.290 14.783,18.689 14.855,18.180 15.101 C 18.020 15.178,17.489 15.548,16.940 15.963 C 15.875 16.769,15.444 17.080,15.394 17.080 C 15.375 17.080,15.360 17.030,15.360 16.968 C 15.360 16.789,15.248 16.399,15.121 16.140 C 14.524 14.914,12.336 14.119,10.000 14.280 " fill="#1C274C" stroke="none" fill-rule="evenodd"></path></svg>