<svg width="24" height="24" viewBox="0 0 24 24" fill="none" xmlns="http://www.w3.org/2000/svg"><path d="M11.774 1.281 C 11.219 1.392,10.847 1.820,10.083 3.221 L 9.951 3.463 9.154 3.655 C 7.966 3.941,7.612 4.143,7.368 4.674 C 7.294 4.836,7.268 4.961,7.268 5.156 C 7.267 5.648,7.447 5.984,8.177 6.860 C 8.399 7.126,8.605 7.374,8.635 7.412 C 8.682 7.470,8.679 7.614,8.618 8.375 C 8.559 9.116,8.555 9.321,8.594 9.565 C 8.715 10.310,9.173 10.732,9.854 10.727 C 10.221 10.725,10.423 10.666,11.133 10.355 C 11.489 10.200,11.830 10.052,11.890 10.028 C 12.016 9.976,11.943 9.952,12.867 10.355 C 13.577 10.666,13.779 10.725,14.146 10.727 C 14.827 10.732,15.285 10.310,15.406 9.565 C 15.445 9.321,15.441 9.116,15.382 8.375 C 15.321 7.614,15.318 7.470,15.365 7.412 C 15.395 7.374,15.601 7.126,15.823 6.860 C 16.553 5.984,16.733 5.648,16.732 5.156 C 16.732 4.961,16.706 4.836,16.632 4.674 C 16.389 4.143,16.034 3.940,14.848 3.655 L 14.052 3.463 13.860 3.122 C 13.403 2.308,13.130 1.886,12.933 1.688 C 12.600 1.355,12.167 1.202,11.774 1.281 M12.431 3.630 C 12.653 4.021,12.897 4.413,12.973 4.501 C 13.173 4.734,13.473 4.862,14.231 5.039 C 15.246 5.275,15.187 5.250,15.082 5.397 C 15.037 5.461,14.792 5.761,14.540 6.063 C 14.287 6.366,14.026 6.721,13.960 6.853 C 13.850 7.073,13.840 7.127,13.840 7.505 C 13.840 7.731,13.857 8.093,13.878 8.308 C 13.958 9.131,13.958 9.160,13.897 9.160 C 13.865 9.160,13.511 9.012,13.109 8.830 L 12.380 8.500 12.000 8.500 L 11.620 8.500 10.891 8.830 C 10.489 9.012,10.135 9.160,10.103 9.160 C 10.042 9.160,10.042 9.131,10.122 8.308 C 10.143 8.093,10.160 7.731,10.160 7.505 C 10.160 7.128,10.150 7.072,10.041 6.855 C 9.976 6.724,9.678 6.324,9.380 5.966 C 9.082 5.608,8.847 5.300,8.859 5.282 C 8.870 5.264,8.920 5.241,8.969 5.230 C 9.715 5.065,10.470 4.866,10.625 4.794 C 10.938 4.647,11.115 4.429,11.558 3.649 C 11.786 3.248,11.985 2.920,12.000 2.920 C 12.015 2.920,12.209 3.240,12.431 3.630 M3.807 6.285 C 3.471 6.347,3.213 6.579,2.917 7.085 C 2.822 7.247,2.741 7.385,2.737 7.392 C 2.733 7.399,2.569 7.445,2.374 7.494 C 1.609 7.688,1.263 8.032,1.270 8.590 C 1.275 8.912,1.391 9.167,1.711 9.557 L 1.954 9.854 1.932 10.339 C 1.904 10.913,1.963 11.155,2.192 11.408 C 2.548 11.802,2.993 11.840,3.685 11.536 L 4.000 11.397 4.315 11.536 C 5.007 11.840,5.452 11.802,5.808 11.408 C 6.037 11.155,6.096 10.913,6.068 10.339 L 6.046 9.854 6.289 9.557 C 6.609 9.166,6.725 8.912,6.730 8.588 C 6.733 8.381,6.713 8.298,6.618 8.123 C 6.439 7.794,6.197 7.641,5.626 7.495 C 5.431 7.445,5.267 7.399,5.263 7.392 C 5.259 7.385,5.177 7.246,5.081 7.082 C 4.700 6.430,4.317 6.191,3.807 6.285 M19.807 6.285 C 19.471 6.347,19.213 6.579,18.917 7.085 C 18.822 7.247,18.741 7.385,18.737 7.392 C 18.733 7.399,18.569 7.445,18.374 7.494 C 17.609 7.688,17.263 8.032,17.270 8.590 C 17.275 8.912,17.391 9.167,17.711 9.557 L 17.954 9.854 17.932 10.339 C 17.904 10.913,17.963 11.155,18.192 11.408 C 18.548 11.802,18.993 11.840,19.685 11.536 L 20.000 11.397 20.315 11.536 C 21.007 11.840,21.452 11.802,21.808 11.408 C 22.037 11.155,22.096 10.913,22.068 10.339 L 22.046 9.854 22.289 9.557 C 22.609 9.166,22.725 8.912,22.730 8.588 C 22.733 8.381,22.713 8.298,22.618 8.123 C 22.439 7.794,22.197 7.641,21.626 7.495 C 21.431 7.445,21.267 7.399,21.263 7.392 C 21.259 7.385,21.177 7.246,21.081 7.082 C 20.700 6.430,20.317 6.191,19.807 6.285 M4.121 8.381 C 4.238 8.572,4.416 8.700,4.684 8.787 L 4.907 8.860 4.751 9.089 C 4.588 9.327,4.504 9.661,4.549 9.892 C 4.573 10.018,4.573 10.018,4.386 9.940 C 4.307 9.907,4.133 9.880,4.000 9.880 C 3.867 9.880,3.693 9.907,3.614 9.940 C 3.535 9.973,3.465 10.000,3.459 10.000 C 3.453 10.000,3.442 9.851,3.434 9.669 C 3.421 9.359,3.410 9.324,3.256 9.099 L 3.093 8.860 3.316 8.787 C 3.584 8.700,3.762 8.572,3.879 8.381 C 3.927 8.303,3.982 8.240,4.000 8.240 C 4.018 8.240,4.073 8.303,4.121 8.381 M20.121 8.381 C 20.238 8.570,20.414 8.698,20.687 8.789 L 20.913 8.865 20.821 8.984 C 20.626 9.233,20.559 9.416,20.553 9.714 C 20.550 9.871,20.544 10.000,20.539 10.000 C 20.534 10.000,20.465 9.973,20.386 9.940 C 20.307 9.907,20.133 9.880,20.000 9.880 C 19.867 9.880,19.693 9.907,19.614 9.940 C 19.535 9.973,19.465 10.000,19.459 10.000 C 19.453 10.000,19.442 9.851,19.434 9.669 C 19.421 9.359,19.410 9.324,19.256 9.099 L 19.093 8.860 19.316 8.787 C 19.584 8.700,19.762 8.572,19.879 8.381 C 19.927 8.303,19.982 8.240,20.000 8.240 C 20.018 8.240,20.073 8.303,20.121 8.381 M10.000 14.280 C 7.941 14.422,5.616 15.254,3.741 16.519 C 3.420 16.736,3.339 16.836,3.283 17.087 C 3.170 17.587,3.622 18.071,4.116 17.980 C 4.195 17.966,4.449 17.832,4.680 17.682 C 6.201 16.697,7.888 16.058,9.600 15.816 C 10.178 15.735,11.208 15.737,11.706 15.822 C 12.815 16.010,13.714 16.489,13.841 16.960 C 13.920 17.253,13.801 17.579,13.549 17.757 C 13.474 17.810,13.306 17.820,12.480 17.820 C 11.527 17.820,11.496 17.823,11.352 17.912 C 10.833 18.235,10.926 19.001,11.512 19.227 C 11.675 19.290,11.826 19.300,12.640 19.299 C 14.000 19.297,14.666 19.169,15.517 18.746 C 16.037 18.487,16.339 18.283,17.620 17.319 C 18.900 16.357,19.025 16.288,19.425 16.335 C 19.894 16.391,20.239 16.683,20.240 17.026 C 20.240 17.168,20.190 17.267,19.883 17.726 C 18.985 19.066,18.416 19.577,17.052 20.267 C 16.167 20.715,15.311 20.962,14.000 21.148 C 13.607 21.204,13.234 21.220,12.260 21.220 C 10.920 21.220,10.860 21.215,9.400 20.961 C 7.821 20.687,7.225 20.640,5.289 20.640 C 3.775 20.640,3.705 20.648,3.487 20.852 C 3.140 21.176,3.216 21.797,3.632 22.030 C 3.787 22.118,3.822 22.120,5.025 22.121 C 7.003 22.122,7.788 22.182,9.205 22.441 C 11.308 22.825,13.111 22.842,15.000 22.496 C 16.237 22.269,17.167 21.935,18.229 21.336 C 19.203 20.786,19.809 20.290,20.396 19.560 C 20.754 19.114,21.383 18.192,21.538 17.885 C 22.151 16.671,21.326 15.204,19.859 14.901 C 19.290 14.783,18.689 14.855,18.180 15.101 C 18.020 15.178,17.489 15.548,16.940 15.963 C 15.875 16.769,15.444 17.080,15.394 17.080 C 15.375 17.080,15.360 17.030,15.360 16.968 C 15.360 16.789,15.248 16.399,15.121 16.140 C 14.524 14.914,12.336 14.119,10.000 14.280 " stroke="none" fill-rule="evenodd" fill="black"></path></svg>