<svg width="24" height="24" viewBox="0 0 24 24" fill="none" xmlns="http://www.w3.org/2000/svg"><path d="M11.272 1.281 C 10.412 1.384,9.660 1.845,9.194 2.555 C 8.960 2.911,8.840 3.270,8.811 3.704 C 8.784 4.104,8.835 4.270,9.040 4.455 C 9.505 4.875,10.275 4.541,10.279 3.917 C 10.282 3.516,10.559 3.124,10.991 2.911 C 11.239 2.789,11.287 2.780,11.660 2.780 C 12.033 2.780,12.081 2.789,12.329 2.911 C 12.642 3.066,12.885 3.320,12.977 3.589 C 13.056 3.822,13.057 4.009,12.978 4.274 C 12.925 4.452,12.842 4.560,12.411 5.011 C 11.579 5.883,11.284 6.293,11.146 6.768 L 11.098 6.933 10.719 7.028 C 9.988 7.210,9.815 7.320,5.840 10.113 C 3.454 11.791,2.053 12.800,1.894 12.958 C 1.012 13.832,1.065 15.242,2.012 16.106 C 2.587 16.630,3.078 16.758,4.528 16.759 L 5.277 16.760 5.254 17.490 C 5.229 18.301,5.293 20.088,5.360 20.460 C 5.588 21.712,6.289 22.412,7.540 22.640 C 7.972 22.718,9.458 22.757,12.000 22.757 C 14.542 22.757,16.028 22.718,16.460 22.640 C 17.711 22.412,18.411 21.712,18.640 20.460 C 18.707 20.093,18.771 18.267,18.746 17.470 L 18.723 16.760 19.471 16.759 C 20.738 16.758,21.167 16.677,21.678 16.342 C 22.348 15.903,22.728 15.228,22.729 14.477 C 22.730 13.889,22.511 13.352,22.105 12.948 C 21.850 12.693,14.251 7.564,13.773 7.324 C 13.593 7.233,13.275 7.111,13.065 7.052 L 12.685 6.945 12.810 6.788 C 12.878 6.701,13.172 6.385,13.462 6.085 C 13.752 5.785,14.054 5.438,14.134 5.313 C 14.473 4.782,14.606 3.988,14.463 3.346 C 14.166 2.015,12.758 1.103,11.272 1.281 M12.460 8.446 C 12.734 8.503,13.054 8.622,13.275 8.750 C 13.456 8.854,20.331 13.475,20.833 13.830 C 21.135 14.043,21.240 14.198,21.240 14.431 C 21.240 14.750,21.057 15.020,20.740 15.165 C 20.599 15.230,20.464 15.238,19.578 15.239 L 18.576 15.240 18.487 14.965 C 18.264 14.273,17.722 13.738,17.008 13.505 C 16.536 13.350,16.301 13.320,15.220 13.274 C 13.984 13.222,8.333 13.256,7.840 13.318 C 7.160 13.405,6.724 13.557,6.313 13.853 C 5.960 14.105,5.652 14.532,5.515 14.957 L 5.424 15.240 4.431 15.240 C 3.333 15.240,3.255 15.226,3.007 14.988 C 2.824 14.812,2.760 14.676,2.760 14.460 C 2.760 14.230,2.835 14.082,3.029 13.930 C 3.276 13.736,10.079 8.958,10.340 8.795 C 10.924 8.430,11.734 8.297,12.460 8.446 M16.260 14.833 C 16.370 14.859,16.559 14.930,16.679 14.991 C 16.863 15.084,16.916 15.137,17.009 15.321 C 17.208 15.713,17.220 15.861,17.220 18.000 C 17.220 20.139,17.208 20.287,17.009 20.679 C 16.916 20.863,16.863 20.916,16.679 21.009 C 16.262 21.221,16.286 21.220,12.000 21.220 C 7.714 21.220,7.738 21.221,7.321 21.009 C 7.137 20.916,7.084 20.863,6.991 20.679 C 6.930 20.559,6.860 20.370,6.835 20.260 C 6.770 19.968,6.741 16.655,6.798 16.107 C 6.850 15.610,6.955 15.291,7.123 15.123 C 7.276 14.970,7.602 14.851,7.989 14.805 C 8.461 14.750,16.011 14.775,16.260 14.833 " stroke="none" fill-rule="evenodd" fill="black"></path></svg>