<svg width="24" height="24" viewBox="0 0 24 24" fill="none" xmlns="http://www.w3.org/2000/svg"><path d="M11.272 4.281 C 10.412 4.384,9.660 4.845,9.194 5.555 C 8.960 5.911,8.840 6.270,8.811 6.704 C 8.784 7.104,8.835 7.270,9.040 7.455 C 9.505 7.875,10.275 7.541,10.279 6.917 C 10.282 6.516,10.559 6.124,10.991 5.911 C 11.239 5.789,11.287 5.780,11.660 5.780 C 12.033 5.780,12.081 5.789,12.329 5.911 C 12.642 6.066,12.885 6.320,12.977 6.589 C 13.056 6.822,13.057 7.009,12.978 7.274 C 12.925 7.452,12.842 7.560,12.411 8.011 C 11.579 8.883,11.284 9.293,11.146 9.768 L 11.098 9.933 10.719 10.027 C 9.994 10.207,9.789 10.337,5.802 13.140 C 3.372 14.849,2.026 15.820,1.875 15.974 C 1.013 16.850,1.074 18.251,2.012 19.106 C 2.409 19.468,2.856 19.661,3.440 19.723 C 3.886 19.770,20.115 19.770,20.561 19.723 C 21.000 19.676,21.349 19.557,21.678 19.342 C 22.348 18.903,22.728 18.228,22.729 17.477 C 22.730 16.889,22.511 16.352,22.105 15.948 C 21.850 15.693,14.251 10.564,13.773 10.324 C 13.593 10.233,13.275 10.111,13.065 10.052 L 12.685 9.945 12.801 9.799 C 12.865 9.718,13.158 9.402,13.453 9.096 C 13.747 8.790,14.054 8.438,14.133 8.313 C 14.473 7.782,14.606 6.988,14.463 6.346 C 14.166 5.015,12.758 4.103,11.272 4.281 M12.460 11.446 C 12.734 11.503,13.054 11.622,13.275 11.750 C 13.456 11.854,20.331 16.475,20.833 16.830 C 21.135 17.043,21.240 17.198,21.240 17.431 C 21.240 17.750,21.057 18.020,20.740 18.165 C 20.586 18.235,20.237 18.238,12.009 18.239 C 2.540 18.240,3.291 18.261,3.007 17.988 C 2.824 17.812,2.760 17.676,2.760 17.460 C 2.760 17.230,2.835 17.082,3.029 16.930 C 3.276 16.736,10.079 11.958,10.340 11.795 C 10.924 11.430,11.734 11.297,12.460 11.446 " stroke="none" fill-rule="evenodd" fill="black"></path></svg>