<svg width="24" height="24" viewBox="0 0 24 24" fill="none" xmlns="http://www.w3.org/2000/svg"><path d="M11.310 1.283 C 6.653 1.563,2.667 4.904,1.564 9.450 C 1.162 11.110,1.162 12.890,1.564 14.550 C 2.415 18.060,5.032 20.948,8.442 22.139 C 10.725 22.937,13.275 22.937,15.558 22.139 C 18.633 21.065,21.092 18.592,22.157 15.503 C 22.819 13.585,22.918 11.437,22.436 9.450 C 21.419 5.255,17.924 2.044,13.657 1.383 C 13.303 1.328,12.042 1.231,11.880 1.246 C 11.847 1.249,11.590 1.266,11.310 1.283 M13.146 2.822 C 14.895 3.051,16.592 3.782,17.878 4.859 C 18.914 5.728,19.725 6.758,20.304 7.940 C 20.940 9.239,21.240 10.538,21.240 12.000 C 21.240 13.462,20.940 14.764,20.304 16.060 C 18.921 18.877,16.278 20.768,13.146 21.178 C 12.214 21.301,10.974 21.244,10.002 21.034 C 8.667 20.747,7.178 20.022,6.140 19.153 C 4.272 17.590,3.134 15.531,2.822 13.146 C 2.699 12.214,2.756 10.974,2.966 10.002 C 3.177 9.020,3.703 7.775,4.268 6.920 C 5.750 4.677,8.131 3.188,10.820 2.823 C 11.380 2.746,12.569 2.746,13.146 2.822 M10.800 6.286 C 10.607 6.342,10.423 6.490,10.349 6.648 C 10.314 6.720,10.120 7.332,9.918 8.008 L 9.549 9.235 8.184 9.248 C 6.891 9.259,6.812 9.264,6.660 9.344 C 6.572 9.390,6.447 9.501,6.383 9.592 C 6.286 9.730,6.267 9.797,6.267 9.997 C 6.267 10.282,6.385 10.494,6.627 10.645 C 6.777 10.738,6.800 10.740,7.934 10.753 C 8.992 10.764,9.086 10.771,9.070 10.833 C 9.060 10.870,8.893 11.425,8.700 12.067 L 8.349 13.235 7.085 13.247 C 5.649 13.262,5.611 13.269,5.383 13.592 C 5.286 13.730,5.267 13.797,5.267 13.993 C 5.267 14.279,5.372 14.474,5.612 14.633 L 5.774 14.740 6.827 14.753 C 7.406 14.760,7.880 14.775,7.880 14.785 C 7.880 14.796,7.747 15.249,7.585 15.792 C 7.216 17.023,7.229 16.963,7.286 17.186 C 7.382 17.570,7.796 17.817,8.172 17.717 C 8.388 17.660,8.572 17.520,8.651 17.352 C 8.686 17.280,8.880 16.667,9.083 15.990 L 9.453 14.760 11.166 14.760 C 12.109 14.760,12.880 14.770,12.880 14.782 C 12.880 14.795,12.747 15.249,12.585 15.792 C 12.216 17.023,12.229 16.963,12.286 17.186 C 12.382 17.570,12.796 17.817,13.172 17.717 C 13.388 17.660,13.572 17.520,13.651 17.352 C 13.686 17.280,13.880 16.668,14.082 15.992 L 14.451 14.765 15.836 14.752 C 17.204 14.740,17.222 14.739,17.369 14.647 C 17.943 14.290,17.812 13.424,17.162 13.284 C 17.042 13.258,16.529 13.240,15.933 13.240 C 14.979 13.240,14.912 13.235,14.930 13.170 C 14.940 13.132,15.107 12.575,15.300 11.932 L 15.651 10.765 16.935 10.752 C 18.199 10.740,18.222 10.738,18.369 10.647 C 18.943 10.290,18.812 9.424,18.162 9.284 C 18.046 9.259,17.557 9.240,17.038 9.240 C 16.533 9.240,16.120 9.230,16.120 9.218 C 16.120 9.205,16.253 8.751,16.415 8.208 C 16.784 6.977,16.771 7.037,16.714 6.814 C 16.618 6.430,16.204 6.183,15.828 6.283 C 15.612 6.340,15.428 6.480,15.349 6.648 C 15.314 6.720,15.120 7.334,14.917 8.010 L 14.547 9.240 12.834 9.240 C 11.891 9.240,11.120 9.230,11.120 9.218 C 11.120 9.205,11.253 8.751,11.415 8.208 C 11.782 6.980,11.771 7.031,11.717 6.829 C 11.607 6.415,11.194 6.170,10.800 6.286 M14.070 10.830 C 14.060 10.868,13.893 11.427,13.700 12.070 L 13.348 13.240 11.629 13.240 C 10.012 13.240,9.912 13.236,9.930 13.170 C 9.940 13.132,10.107 12.573,10.300 11.930 L 10.652 10.760 12.371 10.760 C 13.988 10.760,14.088 10.764,14.070 10.830 " stroke="none" fill-rule="evenodd" fill="black"></path></svg>