<svg width="24" height="24" viewBox="0 0 24 24" fill="none" xmlns="http://www.w3.org/2000/svg"><path d="M9.020 1.279 C 6.976 1.330,5.856 1.466,4.900 1.779 C 3.060 2.382,1.958 3.688,1.563 5.734 C 1.311 7.042,1.267 7.973,1.267 12.000 C 1.267 16.027,1.311 16.958,1.563 18.266 C 2.013 20.599,3.401 21.987,5.734 22.437 C 7.043 22.690,7.974 22.734,12.000 22.734 C 16.026 22.734,16.957 22.690,18.266 22.437 C 20.599 21.987,21.987 20.599,22.437 18.266 C 22.688 16.966,22.733 16.013,22.733 12.000 C 22.733 7.987,22.688 7.034,22.437 5.734 C 22.098 3.977,21.228 2.756,19.825 2.068 C 18.972 1.650,17.853 1.420,16.180 1.321 C 15.262 1.267,10.607 1.239,9.020 1.279 M16.600 2.836 C 18.439 3.019,19.320 3.320,20.000 4.000 C 20.692 4.693,20.998 5.605,21.168 7.480 C 21.242 8.307,21.242 15.693,21.168 16.520 C 20.995 18.427,20.692 19.314,19.966 20.031 C 19.337 20.654,18.428 20.975,16.820 21.144 C 16.288 21.199,15.577 21.214,12.620 21.229 C 8.221 21.252,7.082 21.205,5.923 20.954 C 4.231 20.588,3.373 19.699,3.021 17.947 C 2.796 16.825,2.780 16.431,2.781 11.980 C 2.782 7.664,2.793 7.353,2.984 6.240 C 3.183 5.082,3.600 4.278,4.272 3.760 C 5.025 3.178,6.058 2.913,8.002 2.802 C 8.872 2.752,16.044 2.780,16.600 2.836 M10.800 6.286 C 10.607 6.342,10.423 6.490,10.349 6.648 C 10.314 6.720,10.120 7.332,9.918 8.008 L 9.549 9.235 8.184 9.248 C 6.891 9.259,6.812 9.264,6.660 9.344 C 6.572 9.390,6.447 9.501,6.383 9.592 C 6.286 9.730,6.267 9.797,6.267 9.997 C 6.267 10.282,6.385 10.494,6.627 10.645 C 6.777 10.738,6.800 10.740,7.934 10.753 C 8.992 10.764,9.086 10.771,9.070 10.833 C 9.060 10.870,8.893 11.425,8.700 12.067 L 8.349 13.235 7.085 13.247 C 5.649 13.262,5.611 13.269,5.383 13.592 C 5.286 13.730,5.267 13.797,5.267 13.993 C 5.267 14.279,5.372 14.474,5.612 14.633 L 5.774 14.740 6.827 14.753 C 7.406 14.760,7.880 14.775,7.880 14.785 C 7.880 14.796,7.747 15.249,7.585 15.792 C 7.216 17.023,7.229 16.963,7.286 17.186 C 7.382 17.570,7.796 17.817,8.172 17.717 C 8.388 17.660,8.572 17.520,8.651 17.352 C 8.686 17.280,8.880 16.667,9.083 15.990 L 9.453 14.760 11.166 14.760 C 12.109 14.760,12.880 14.770,12.880 14.782 C 12.880 14.795,12.747 15.249,12.585 15.792 C 12.216 17.023,12.229 16.963,12.286 17.186 C 12.382 17.570,12.796 17.817,13.172 17.717 C 13.388 17.660,13.572 17.520,13.651 17.352 C 13.686 17.280,13.880 16.668,14.082 15.992 L 14.451 14.765 15.836 14.752 C 17.204 14.740,17.222 14.739,17.369 14.647 C 17.943 14.290,17.812 13.424,17.162 13.284 C 17.042 13.258,16.529 13.240,15.933 13.240 C 14.979 13.240,14.912 13.235,14.930 13.170 C 14.940 13.132,15.107 12.575,15.300 11.932 L 15.651 10.765 16.935 10.752 C 18.199 10.740,18.222 10.738,18.369 10.647 C 18.943 10.290,18.812 9.424,18.162 9.284 C 18.046 9.259,17.557 9.240,17.038 9.240 C 16.533 9.240,16.120 9.230,16.120 9.218 C 16.120 9.205,16.253 8.751,16.415 8.208 C 16.784 6.977,16.771 7.037,16.714 6.814 C 16.618 6.430,16.204 6.183,15.828 6.283 C 15.612 6.340,15.428 6.480,15.349 6.648 C 15.314 6.720,15.120 7.334,14.917 8.010 L 14.547 9.240 12.834 9.240 C 11.891 9.240,11.120 9.230,11.120 9.218 C 11.120 9.205,11.253 8.751,11.415 8.208 C 11.782 6.980,11.771 7.031,11.717 6.829 C 11.607 6.415,11.194 6.170,10.800 6.286 M14.070 10.830 C 14.060 10.868,13.893 11.427,13.700 12.070 L 13.348 13.240 11.629 13.240 C 10.012 13.240,9.912 13.236,9.930 13.170 C 9.940 13.132,10.107 12.573,10.300 11.930 L 10.652 10.760 12.371 10.760 C 13.988 10.760,14.088 10.764,14.070 10.830 " stroke="none" fill-rule="evenodd" fill="black"></path></svg>