<svg width="24" height="24" viewBox="0 0 24 24" fill="none" xmlns="http://www.w3.org/2000/svg"><path d="M9.785 2.288 C 9.555 2.351,9.352 2.575,9.267 2.861 C 9.227 2.992,8.876 4.252,8.485 5.660 L 7.774 8.220 5.797 8.240 C 3.890 8.259,3.814 8.263,3.660 8.344 C 3.572 8.390,3.447 8.501,3.383 8.592 C 3.286 8.730,3.267 8.797,3.267 8.993 C 3.267 9.279,3.372 9.474,3.612 9.633 L 3.774 9.740 5.560 9.752 L 7.346 9.764 6.586 12.500 L 5.826 15.237 3.823 15.248 C 1.881 15.260,1.815 15.263,1.660 15.344 C 1.572 15.390,1.448 15.501,1.383 15.592 C 1.286 15.730,1.267 15.797,1.267 15.997 C 1.267 16.282,1.385 16.494,1.627 16.645 L 1.780 16.740 3.592 16.752 C 5.277 16.763,5.403 16.769,5.383 16.832 C 5.315 17.056,4.283 20.803,4.261 20.907 C 4.195 21.226,4.469 21.627,4.814 21.714 C 5.229 21.819,5.599 21.588,5.733 21.139 C 5.773 21.008,6.062 19.973,6.376 18.840 L 6.948 16.780 8.084 16.760 C 9.185 16.741,9.225 16.737,9.369 16.647 C 9.943 16.290,9.812 15.424,9.162 15.284 C 9.049 15.260,8.604 15.240,8.173 15.240 L 7.391 15.240 7.408 15.150 C 7.418 15.101,7.757 13.867,8.161 12.410 L 8.897 9.760 12.699 9.760 L 16.500 9.761 16.589 9.916 C 16.756 10.209,17.196 10.325,17.517 10.162 C 17.665 10.086,17.880 9.871,17.880 9.799 C 17.880 9.779,18.831 9.758,20.050 9.752 L 22.220 9.740 22.369 9.647 C 22.943 9.290,22.812 8.424,22.162 8.284 C 22.029 8.256,21.314 8.240,20.135 8.240 C 18.420 8.240,18.316 8.236,18.337 8.170 C 18.394 7.988,19.715 3.204,19.738 3.093 C 19.805 2.774,19.531 2.373,19.186 2.286 C 18.771 2.181,18.401 2.412,18.267 2.861 C 18.227 2.992,17.876 4.252,17.485 5.660 L 16.774 8.220 13.044 8.230 C 9.503 8.240,9.316 8.237,9.337 8.170 C 9.395 7.986,10.715 3.204,10.739 3.090 C 10.772 2.935,10.705 2.707,10.577 2.536 C 10.414 2.316,10.073 2.210,9.785 2.288 M14.640 11.283 C 13.390 11.349,12.777 11.602,12.093 12.335 C 11.785 12.664,11.522 13.134,11.421 13.535 C 11.279 14.098,11.260 14.439,11.260 16.400 C 11.260 18.094,11.269 18.381,11.330 18.662 C 11.539 19.629,12.101 20.384,12.963 20.854 C 13.453 21.121,14.007 21.240,14.773 21.241 C 14.997 21.241,15.216 21.251,15.260 21.263 C 15.309 21.277,15.441 21.457,15.600 21.728 C 15.994 22.399,16.254 22.620,16.775 22.729 C 16.948 22.766,17.052 22.766,17.225 22.729 C 17.746 22.620,18.006 22.399,18.400 21.728 C 18.559 21.457,18.691 21.277,18.740 21.263 C 18.784 21.251,19.003 21.241,19.227 21.241 C 20.220 21.239,20.870 21.040,21.524 20.537 C 21.926 20.227,22.308 19.716,22.496 19.234 C 22.638 18.873,22.672 18.718,22.719 18.220 C 22.772 17.650,22.772 15.220,22.718 14.507 C 22.633 13.388,22.379 12.773,21.755 12.177 C 21.087 11.539,20.555 11.349,19.244 11.279 C 18.424 11.236,15.484 11.238,14.640 11.283 M19.599 12.802 C 20.180 12.861,20.403 12.955,20.724 13.276 C 21.045 13.597,21.139 13.820,21.198 14.401 C 21.251 14.919,21.252 17.928,21.198 18.300 C 21.146 18.664,21.003 18.953,20.738 19.223 C 20.350 19.621,19.887 19.758,18.920 19.760 C 18.047 19.762,17.681 19.980,17.220 20.773 C 17.110 20.962,17.011 21.117,17.000 21.117 C 16.989 21.118,16.890 20.963,16.780 20.774 C 16.321 19.981,15.954 19.762,15.080 19.760 C 14.113 19.758,13.650 19.621,13.262 19.223 C 12.997 18.953,12.854 18.664,12.802 18.300 C 12.748 17.928,12.749 14.919,12.802 14.401 C 12.861 13.820,12.955 13.597,13.276 13.276 C 13.587 12.966,13.829 12.858,14.332 12.805 C 14.813 12.755,19.113 12.752,19.599 12.802 " fill="#1C274C" stroke="none" fill-rule="evenodd"></path></svg>