<svg width="24" height="24" viewBox="0 0 24 24" fill="none" xmlns="http://www.w3.org/2000/svg"><path d="M9.785 2.288 C 9.555 2.351,9.352 2.575,9.267 2.861 C 9.227 2.992,8.876 4.252,8.485 5.660 L 7.774 8.220 5.797 8.240 C 3.890 8.259,3.814 8.263,3.660 8.344 C 3.572 8.390,3.447 8.501,3.383 8.592 C 3.286 8.730,3.267 8.797,3.267 8.993 C 3.267 9.279,3.372 9.474,3.612 9.633 L 3.774 9.740 5.560 9.752 L 7.346 9.764 6.586 12.500 L 5.826 15.237 3.823 15.248 C 1.881 15.260,1.815 15.263,1.660 15.344 C 1.572 15.390,1.448 15.501,1.383 15.592 C 1.286 15.730,1.267 15.797,1.267 15.997 C 1.267 16.282,1.385 16.494,1.627 16.645 L 1.780 16.740 3.592 16.752 C 5.277 16.763,5.403 16.769,5.383 16.832 C 5.315 17.056,4.283 20.803,4.261 20.907 C 4.195 21.226,4.469 21.627,4.814 21.714 C 5.229 21.819,5.599 21.588,5.733 21.139 C 5.773 21.008,6.062 19.973,6.376 18.840 L 6.948 16.780 10.677 16.770 C 14.216 16.760,14.404 16.763,14.384 16.830 C 14.315 17.054,13.283 20.802,13.261 20.907 C 13.195 21.226,13.469 21.627,13.814 21.714 C 14.229 21.819,14.599 21.588,14.733 21.139 C 14.773 21.008,15.062 19.973,15.376 18.840 L 15.948 16.780 18.084 16.760 L 20.220 16.740 20.369 16.647 C 20.943 16.290,20.812 15.424,20.162 15.284 C 20.029 15.256,19.324 15.240,18.173 15.240 L 16.391 15.240 16.408 15.150 C 16.418 15.101,16.756 13.868,17.161 12.412 L 17.896 9.763 20.058 9.752 L 22.220 9.740 22.369 9.647 C 22.943 9.290,22.812 8.424,22.162 8.284 C 22.029 8.256,21.314 8.240,20.135 8.240 C 18.420 8.240,18.316 8.236,18.337 8.170 C 18.394 7.988,19.715 3.204,19.738 3.093 C 19.805 2.774,19.531 2.373,19.186 2.286 C 18.771 2.181,18.401 2.412,18.267 2.861 C 18.227 2.992,17.876 4.252,17.485 5.660 L 16.774 8.220 13.044 8.230 C 9.503 8.240,9.316 8.237,9.337 8.170 C 9.395 7.986,10.715 3.204,10.739 3.090 C 10.772 2.935,10.705 2.707,10.577 2.536 C 10.414 2.316,10.073 2.210,9.785 2.288 M15.586 12.500 L 14.825 15.240 11.108 15.240 L 7.391 15.240 7.408 15.150 C 7.418 15.101,7.757 13.867,8.161 12.410 L 8.897 9.760 12.622 9.760 L 16.347 9.760 15.586 12.500 " stroke="none" fill-rule="evenodd" fill="black"></path></svg>