<svg width="24" height="24" viewBox="0 0 24 24" fill="none" xmlns="http://www.w3.org/2000/svg"><path d="M9.580 2.278 C 7.585 2.328,6.829 2.417,5.940 2.708 C 4.819 3.075,3.885 3.804,3.224 4.829 C 2.811 5.469,2.539 6.299,2.403 7.340 C 2.316 7.997,2.279 9.138,2.253 11.921 L 2.227 14.782 2.093 14.767 C 1.876 14.741,1.687 14.796,1.537 14.928 C 1.259 15.172,1.260 15.166,1.260 16.500 C 1.260 17.834,1.259 17.828,1.537 18.072 C 1.694 18.210,1.885 18.261,2.123 18.229 L 2.280 18.208 2.281 18.454 C 2.284 19.313,2.576 20.058,3.112 20.569 C 3.538 20.975,3.942 21.159,4.880 21.374 C 6.402 21.724,7.107 21.801,7.562 21.668 C 8.025 21.532,8.475 21.072,8.621 20.586 C 8.732 20.218,8.758 19.430,8.758 16.440 C 8.758 13.273,8.737 12.713,8.601 12.350 C 8.421 11.871,8.002 11.474,7.526 11.333 C 7.239 11.247,6.676 11.250,5.840 11.339 C 4.864 11.444,4.451 11.514,4.087 11.636 L 3.748 11.749 3.773 10.044 C 3.799 8.258,3.829 7.774,3.960 7.078 C 4.158 6.025,4.561 5.320,5.306 4.720 C 5.798 4.325,6.296 4.109,7.056 3.963 C 7.927 3.795,8.335 3.780,12.000 3.780 C 15.665 3.780,16.073 3.795,16.944 3.963 C 17.982 4.163,18.685 4.567,19.280 5.306 C 19.680 5.803,19.894 6.303,20.040 7.078 C 20.171 7.774,20.201 8.258,20.227 10.044 L 20.252 11.749 19.913 11.636 C 19.549 11.514,19.136 11.444,18.160 11.339 C 17.324 11.250,16.761 11.247,16.474 11.333 C 15.998 11.474,15.579 11.871,15.399 12.350 C 15.263 12.713,15.242 13.273,15.242 16.440 C 15.242 19.424,15.268 20.219,15.378 20.583 C 15.527 21.078,15.968 21.530,16.438 21.668 C 16.893 21.801,17.598 21.724,19.120 21.374 C 20.058 21.159,20.462 20.975,20.888 20.569 C 21.424 20.058,21.716 19.313,21.719 18.454 L 21.720 18.208 21.877 18.229 C 22.115 18.261,22.306 18.210,22.463 18.072 C 22.741 17.828,22.740 17.834,22.740 16.500 C 22.740 15.166,22.741 15.172,22.463 14.928 C 22.313 14.796,22.124 14.741,21.907 14.767 L 21.773 14.782 21.747 11.941 C 21.709 7.799,21.643 6.957,21.265 5.859 C 20.895 4.781,20.169 3.868,19.169 3.222 C 18.322 2.676,17.286 2.412,15.640 2.323 C 14.612 2.267,11.072 2.241,9.580 2.278 M7.201 12.863 C 7.246 12.980,7.249 19.959,7.204 20.120 C 7.181 20.203,7.149 20.222,7.011 20.232 C 6.712 20.254,4.838 19.873,4.490 19.720 C 4.227 19.604,3.977 19.347,3.870 19.081 C 3.782 18.863,3.780 18.833,3.768 16.584 C 3.755 14.268,3.773 13.889,3.905 13.626 C 3.984 13.470,4.265 13.172,4.400 13.102 C 4.565 13.016,5.023 12.930,5.680 12.861 C 6.021 12.825,6.336 12.790,6.380 12.783 C 6.424 12.777,6.618 12.768,6.811 12.765 C 7.153 12.760,7.163 12.763,7.201 12.863 M18.360 12.859 C 18.966 12.929,19.451 13.023,19.600 13.101 C 19.735 13.172,20.017 13.471,20.095 13.626 C 20.227 13.889,20.245 14.268,20.232 16.584 C 20.220 18.845,20.219 18.861,20.128 19.086 C 20.013 19.372,19.735 19.639,19.438 19.749 C 19.026 19.902,17.258 20.252,16.994 20.232 C 16.851 20.222,16.819 20.204,16.796 20.120 C 16.749 19.952,16.755 12.979,16.801 12.857 L 16.843 12.748 17.331 12.773 C 17.600 12.786,18.063 12.825,18.360 12.859 " stroke="none" fill-rule="evenodd" fill="black"></path></svg>