<svg width="24" height="24" viewBox="0 0 24 24" fill="none" xmlns="http://www.w3.org/2000/svg"><path d="M11.340 2.281 C 7.140 2.549,3.547 5.562,2.541 9.660 C 2.308 10.608,2.275 10.986,2.251 12.961 L 2.230 14.783 2.095 14.767 C 1.876 14.741,1.688 14.796,1.537 14.928 C 1.259 15.172,1.260 15.166,1.260 16.500 C 1.260 17.834,1.259 17.828,1.537 18.072 C 1.694 18.210,1.885 18.261,2.123 18.229 L 2.280 18.208 2.281 18.454 C 2.284 19.313,2.576 20.058,3.112 20.569 C 3.538 20.975,3.942 21.159,4.880 21.374 C 6.402 21.724,7.107 21.801,7.562 21.668 C 8.025 21.532,8.475 21.072,8.621 20.586 C 8.732 20.218,8.758 19.430,8.758 16.440 C 8.758 13.273,8.737 12.713,8.601 12.350 C 8.421 11.871,8.002 11.474,7.526 11.333 C 7.239 11.247,6.676 11.250,5.840 11.339 C 4.867 11.444,4.451 11.514,4.093 11.634 L 3.760 11.745 3.760 11.561 C 3.760 11.460,3.779 11.225,3.802 11.039 C 3.997 9.457,4.659 7.916,5.648 6.740 C 6.445 5.793,7.286 5.131,8.374 4.598 C 9.552 4.019,10.673 3.760,12.000 3.760 C 13.325 3.760,14.443 4.018,15.626 4.596 C 17.278 5.404,18.573 6.696,19.395 8.358 C 19.888 9.354,20.240 10.689,20.240 11.561 L 20.240 11.745 19.907 11.634 C 19.549 11.514,19.133 11.444,18.160 11.339 C 17.324 11.250,16.761 11.247,16.474 11.333 C 15.998 11.474,15.579 11.871,15.399 12.350 C 15.263 12.713,15.242 13.273,15.242 16.440 C 15.242 19.424,15.268 20.219,15.378 20.583 C 15.527 21.078,15.968 21.530,16.438 21.668 C 16.893 21.801,17.598 21.724,19.120 21.374 C 20.058 21.159,20.462 20.975,20.888 20.569 C 21.424 20.058,21.716 19.313,21.719 18.454 L 21.720 18.208 21.877 18.229 C 22.115 18.261,22.306 18.210,22.463 18.072 C 22.741 17.828,22.740 17.834,22.740 16.500 C 22.740 15.166,22.741 15.172,22.463 14.928 C 22.312 14.796,22.124 14.741,21.905 14.767 L 21.770 14.783 21.749 12.961 C 21.725 10.986,21.692 10.608,21.459 9.660 C 20.585 6.101,17.733 3.303,14.160 2.499 C 13.288 2.303,12.254 2.223,11.340 2.281 M7.201 12.863 C 7.246 12.980,7.249 19.959,7.204 20.120 C 7.181 20.203,7.149 20.222,7.011 20.232 C 6.712 20.254,4.838 19.873,4.490 19.720 C 4.227 19.604,3.977 19.347,3.870 19.081 C 3.782 18.863,3.780 18.833,3.768 16.584 C 3.755 14.268,3.773 13.889,3.905 13.626 C 3.984 13.470,4.265 13.172,4.400 13.102 C 4.565 13.016,5.023 12.930,5.680 12.861 C 6.021 12.825,6.336 12.790,6.380 12.783 C 6.424 12.777,6.618 12.768,6.811 12.765 C 7.153 12.760,7.163 12.763,7.201 12.863 M18.360 12.859 C 18.966 12.929,19.451 13.023,19.600 13.101 C 19.735 13.172,20.017 13.471,20.095 13.626 C 20.227 13.889,20.245 14.268,20.232 16.584 C 20.220 18.845,20.219 18.861,20.128 19.086 C 20.013 19.372,19.735 19.639,19.438 19.749 C 19.026 19.902,17.258 20.252,16.994 20.232 C 16.851 20.222,16.819 20.204,16.796 20.120 C 16.749 19.952,16.755 12.979,16.801 12.857 L 16.843 12.748 17.331 12.773 C 17.600 12.786,18.063 12.825,18.360 12.859 " stroke="none" fill-rule="evenodd" fill="black"></path></svg>