<svg width="24" height="24" viewBox="0 0 24 24" fill="none" xmlns="http://www.w3.org/2000/svg"><path d="M8.960 1.280 C 6.960 1.332,5.848 1.469,4.900 1.779 C 3.060 2.382,1.958 3.688,1.563 5.734 C 1.307 7.059,1.278 7.772,1.253 13.180 C 1.225 19.291,1.235 19.475,1.657 20.340 C 2.135 21.320,2.976 22.042,3.960 22.319 C 4.472 22.462,6.106 22.727,6.500 22.730 C 7.119 22.735,7.648 22.515,8.084 22.072 C 8.355 21.798,8.613 21.315,8.690 20.940 C 8.727 20.761,8.740 19.880,8.740 17.460 C 8.740 14.445,8.735 14.202,8.667 13.963 C 8.438 13.156,7.861 12.557,7.100 12.337 C 6.795 12.248,6.260 12.249,5.300 12.338 C 4.103 12.450,3.593 12.591,3.027 12.966 C 2.899 13.051,2.785 13.120,2.773 13.120 C 2.761 13.120,2.760 11.937,2.770 10.490 C 2.791 7.651,2.827 7.024,3.021 6.053 C 3.382 4.256,4.255 3.383,6.053 3.021 C 7.175 2.796,7.569 2.780,12.020 2.781 C 16.336 2.781,16.646 2.792,17.760 2.984 C 19.725 3.321,20.680 4.277,21.016 6.240 C 21.186 7.236,21.238 8.338,21.239 10.970 C 21.240 12.152,21.232 13.120,21.223 13.120 C 21.213 13.120,21.101 13.051,20.973 12.966 C 20.407 12.591,19.897 12.450,18.700 12.338 C 17.740 12.249,17.205 12.248,16.900 12.337 C 16.139 12.557,15.551 13.169,15.329 13.971 C 15.266 14.197,15.260 14.515,15.260 17.460 C 15.260 19.880,15.273 20.761,15.310 20.940 C 15.434 21.543,15.882 22.162,16.405 22.452 C 16.997 22.781,17.408 22.804,18.720 22.581 C 20.108 22.346,20.442 22.242,21.009 21.868 C 21.882 21.293,22.471 20.398,22.672 19.341 C 22.734 19.012,22.740 18.530,22.738 13.840 C 22.736 8.627,22.716 7.752,22.577 6.632 C 22.345 4.755,21.812 3.565,20.829 2.728 C 19.796 1.848,18.542 1.467,16.200 1.321 C 15.315 1.266,10.534 1.239,8.960 1.280 M11.699 5.816 C 11.550 5.881,11.332 6.124,11.291 6.271 C 11.251 6.413,11.251 11.587,11.291 11.729 C 11.333 11.881,11.553 12.121,11.708 12.186 C 11.873 12.255,12.127 12.255,12.292 12.186 C 12.447 12.121,12.667 11.881,12.709 11.729 C 12.749 11.587,12.749 6.413,12.709 6.271 C 12.667 6.119,12.447 5.879,12.292 5.814 C 12.130 5.746,11.857 5.747,11.699 5.816 M8.815 7.277 C 8.638 7.321,8.461 7.456,8.353 7.631 C 8.261 7.778,8.260 7.793,8.260 9.000 C 8.260 10.207,8.261 10.222,8.353 10.369 C 8.710 10.943,9.576 10.812,9.716 10.162 C 9.772 9.901,9.773 8.083,9.717 7.841 C 9.623 7.432,9.215 7.177,8.815 7.277 M14.815 7.277 C 14.638 7.321,14.461 7.456,14.353 7.631 C 14.261 7.778,14.260 7.793,14.260 9.000 C 14.260 10.207,14.261 10.222,14.353 10.369 C 14.710 10.943,15.576 10.812,15.716 10.162 C 15.772 9.901,15.773 8.083,15.717 7.841 C 15.623 7.432,15.215 7.177,14.815 7.277 M6.928 13.888 C 7.006 13.947,7.108 14.078,7.156 14.179 L 7.242 14.363 7.231 17.558 L 7.220 20.753 7.100 20.922 C 6.949 21.135,6.756 21.240,6.513 21.240 C 6.300 21.240,4.779 20.992,4.421 20.899 C 3.713 20.714,3.149 20.168,2.873 19.400 C 2.782 19.143,2.780 19.118,2.780 17.460 C 2.780 15.943,2.787 15.757,2.854 15.540 C 2.974 15.148,3.161 14.838,3.460 14.540 C 3.802 14.198,4.131 14.016,4.550 13.938 C 5.036 13.846,5.941 13.765,6.383 13.773 C 6.754 13.779,6.798 13.789,6.928 13.888 M18.523 13.823 C 19.751 13.940,20.044 14.044,20.540 14.540 C 20.839 14.838,21.026 15.148,21.146 15.540 C 21.213 15.757,21.220 15.943,21.220 17.460 C 21.220 19.118,21.218 19.143,21.127 19.400 C 20.851 20.169,20.287 20.714,19.577 20.899 C 19.110 21.021,17.625 21.249,17.414 21.231 C 17.156 21.210,16.962 21.073,16.844 20.828 C 16.761 20.656,16.760 20.624,16.760 17.507 C 16.760 14.410,16.761 14.356,16.843 14.183 C 17.049 13.744,17.249 13.701,18.523 13.823 " stroke="none" fill-rule="evenodd" fill="black"></path></svg>