<svg width="24" height="24" viewBox="0 0 24 24" fill="none" xmlns="http://www.w3.org/2000/svg"><path d="M6.378 2.284 C 5.686 2.357,4.857 2.634,4.266 2.991 C 2.453 4.083,1.373 6.213,1.256 8.931 C 1.159 11.150,2.161 13.426,4.385 16.042 C 4.918 16.670,6.691 18.434,7.420 19.063 C 9.413 20.782,10.258 21.369,11.102 21.624 C 11.415 21.718,11.529 21.732,12.000 21.732 C 12.471 21.732,12.585 21.718,12.898 21.624 C 13.597 21.413,14.156 21.063,15.360 20.084 C 17.264 18.536,18.936 16.905,20.071 15.487 C 21.527 13.669,22.346 12.044,22.668 10.340 C 22.762 9.844,22.761 8.593,22.666 7.960 C 22.371 5.989,21.610 4.477,20.415 3.484 C 18.168 1.617,15.034 1.899,12.347 4.210 C 12.174 4.359,12.012 4.480,11.988 4.480 C 11.963 4.480,11.870 4.410,11.782 4.324 C 11.693 4.239,11.446 4.034,11.233 3.869 C 10.033 2.938,8.737 2.396,7.439 2.281 C 6.926 2.236,6.837 2.236,6.378 2.284 M7.682 3.825 C 8.882 4.031,9.958 4.643,11.209 5.831 C 11.716 6.313,11.797 6.354,12.142 6.302 C 12.305 6.277,12.374 6.227,12.792 5.830 C 14.059 4.627,15.128 4.024,16.362 3.818 C 16.865 3.734,17.551 3.758,18.000 3.875 C 19.596 4.293,20.744 5.752,21.121 7.840 C 21.240 8.496,21.269 9.535,21.183 10.060 C 20.922 11.665,19.912 13.459,18.174 15.406 C 16.957 16.770,14.505 18.960,13.271 19.787 C 12.764 20.126,12.448 20.238,12.000 20.238 C 11.552 20.238,11.237 20.126,10.729 19.787 C 9.494 18.960,7.046 16.773,5.826 15.406 C 4.379 13.786,3.372 12.160,2.983 10.820 C 2.683 9.785,2.690 8.499,3.003 7.260 C 3.317 6.012,4.010 4.963,4.907 4.374 C 5.394 4.054,5.836 3.885,6.440 3.787 C 6.692 3.746,7.340 3.766,7.682 3.825 M16.420 6.260 C 16.398 6.267,16.331 6.284,16.271 6.297 C 16.124 6.329,15.881 6.548,15.814 6.708 C 15.776 6.800,15.760 7.040,15.760 7.535 L 15.760 8.232 15.030 8.247 C 14.239 8.263,14.166 8.280,13.953 8.506 C 13.819 8.647,13.760 8.799,13.760 9.000 C 13.760 9.201,13.819 9.353,13.953 9.494 C 14.166 9.720,14.239 9.737,15.030 9.753 L 15.760 9.768 15.760 10.461 C 15.760 11.200,15.781 11.312,15.953 11.494 C 16.111 11.661,16.273 11.731,16.500 11.731 C 16.727 11.731,16.889 11.661,17.047 11.494 C 17.219 11.312,17.240 11.200,17.240 10.461 L 17.240 9.768 17.970 9.753 C 18.761 9.737,18.834 9.720,19.047 9.494 C 19.181 9.353,19.240 9.201,19.240 9.000 C 19.240 8.799,19.181 8.647,19.047 8.506 C 18.834 8.280,18.761 8.263,17.970 8.247 L 17.240 8.232 17.240 7.539 C 17.240 7.146,17.222 6.796,17.197 6.733 C 17.146 6.597,16.977 6.412,16.840 6.342 C 16.732 6.287,16.485 6.238,16.420 6.260 " fill="#1C274C" stroke="none" fill-rule="evenodd"></path></svg>