<svg width="24" height="24" viewBox="0 0 24 24" fill="none" xmlns="http://www.w3.org/2000/svg"><path d="M6.531 2.279 C 4.882 2.464,3.456 3.348,2.509 4.772 C 1.446 6.370,1.008 8.685,1.403 10.610 C 1.981 13.418,4.441 16.640,8.609 20.048 C 9.539 20.808,9.974 21.117,10.460 21.359 C 11.027 21.643,11.381 21.727,12.000 21.727 C 13.084 21.727,13.726 21.409,15.391 20.048 C 17.482 18.338,19.187 16.635,20.344 15.100 C 21.844 13.110,22.589 11.414,22.721 9.690 C 22.781 8.899,22.686 7.855,22.478 7.035 C 21.698 3.954,19.281 2.041,16.471 2.279 C 15.234 2.384,14.006 2.875,12.875 3.717 C 12.647 3.887,12.357 4.121,12.230 4.237 L 12.000 4.448 11.770 4.238 C 10.722 3.278,9.309 2.556,8.061 2.342 C 7.636 2.269,6.891 2.239,6.531 2.279 M7.923 3.841 C 9.067 4.074,10.040 4.642,11.222 5.766 C 11.663 6.185,11.753 6.240,12.000 6.240 C 12.245 6.240,12.351 6.179,12.717 5.825 C 13.939 4.644,14.976 4.043,16.180 3.818 C 16.707 3.720,17.497 3.754,17.972 3.896 C 18.637 4.094,19.196 4.430,19.685 4.923 C 20.327 5.571,20.757 6.355,21.011 7.340 C 21.188 8.029,21.219 8.298,21.220 9.140 C 21.220 9.991,21.189 10.214,20.978 10.910 L 20.877 11.240 19.589 11.241 C 17.005 11.242,16.979 11.251,15.725 12.636 C 15.315 13.089,14.898 13.547,14.799 13.653 L 14.618 13.847 12.679 11.494 C 11.612 10.199,10.648 9.047,10.537 8.934 C 10.046 8.436,9.479 8.360,8.933 8.716 C 8.805 8.800,8.196 9.348,7.580 9.935 C 6.964 10.522,6.390 11.051,6.303 11.111 L 6.147 11.220 4.635 11.231 L 3.123 11.243 3.023 10.911 C 2.811 10.214,2.780 9.991,2.780 9.140 C 2.781 8.298,2.812 8.029,2.989 7.340 C 3.474 5.459,4.690 4.176,6.325 3.822 C 6.717 3.737,7.456 3.745,7.923 3.841 M11.595 12.533 C 12.670 13.835,13.642 14.987,13.756 15.093 C 14.138 15.449,14.587 15.561,15.004 15.403 C 15.307 15.289,15.554 15.057,16.575 13.927 C 17.046 13.406,17.492 12.935,17.566 12.880 L 17.700 12.780 18.912 12.768 L 20.124 12.756 20.066 12.868 C 19.951 13.090,19.394 13.897,19.070 14.311 C 17.893 15.817,16.219 17.461,14.254 19.041 C 13.026 20.029,12.632 20.238,12.000 20.238 C 11.368 20.238,10.974 20.029,9.746 19.041 C 7.781 17.461,6.092 15.802,4.936 14.317 C 4.585 13.867,4.156 13.252,3.985 12.955 L 3.879 12.771 5.049 12.748 C 6.559 12.720,6.688 12.691,7.260 12.260 C 7.414 12.143,7.995 11.614,8.551 11.083 C 9.107 10.551,9.580 10.128,9.601 10.141 C 9.623 10.154,10.520 11.230,11.595 12.533 " stroke="none" fill-rule="evenodd" fill="black"></path></svg>