<svg width="24" height="24" viewBox="0 0 24 24" fill="none" xmlns="http://www.w3.org/2000/svg"><path d="M11.826 1.286 C 11.625 1.331,11.468 1.445,11.353 1.631 C 11.261 1.778,11.260 1.793,11.260 3.003 L 11.260 4.226 11.367 4.388 C 11.526 4.628,11.721 4.733,12.007 4.733 C 12.203 4.733,12.270 4.714,12.408 4.617 C 12.722 4.395,12.738 4.325,12.753 3.128 C 12.767 1.990,12.741 1.747,12.581 1.538 C 12.419 1.325,12.109 1.222,11.826 1.286 M5.826 5.285 C 5.480 5.365,5.267 5.636,5.267 5.996 C 5.267 6.272,5.308 6.352,5.617 6.674 C 5.905 6.976,6.091 7.080,6.340 7.080 C 6.890 7.080,7.237 6.527,7.005 6.020 C 6.905 5.801,6.405 5.336,6.233 5.301 C 6.160 5.286,6.073 5.268,6.040 5.261 C 6.007 5.255,5.911 5.265,5.826 5.285 M17.808 5.289 C 17.676 5.317,17.569 5.389,17.355 5.591 C 17.024 5.903,16.920 6.084,16.920 6.349 C 16.920 6.583,17.017 6.777,17.215 6.936 C 17.330 7.030,17.411 7.059,17.594 7.072 C 17.902 7.094,18.068 7.007,18.408 6.647 C 18.617 6.425,18.680 6.328,18.711 6.182 C 18.833 5.610,18.383 5.165,17.808 5.289 M9.806 8.282 C 8.650 8.437,7.684 9.328,7.354 10.545 C 7.288 10.787,7.268 10.981,7.266 11.380 C 7.261 12.114,7.378 12.602,7.712 13.257 C 8.139 14.091,8.731 14.704,10.260 15.896 C 11.720 17.035,12.280 17.035,13.740 15.897 C 14.857 15.026,15.471 14.457,15.883 13.909 C 16.194 13.496,16.498 12.873,16.626 12.380 C 16.769 11.836,16.778 11.024,16.647 10.545 C 16.402 9.649,15.837 8.942,15.060 8.558 C 14.631 8.346,14.302 8.269,13.840 8.270 C 13.252 8.271,12.707 8.435,12.192 8.765 L 12.002 8.887 11.765 8.743 C 11.127 8.356,10.449 8.196,9.806 8.282 M10.768 9.909 C 10.914 9.977,11.147 10.139,11.304 10.281 C 11.614 10.563,11.764 10.640,12.000 10.640 C 12.236 10.640,12.386 10.563,12.696 10.281 C 13.164 9.856,13.686 9.682,14.144 9.797 C 14.555 9.900,14.955 10.280,15.129 10.731 C 15.244 11.029,15.268 11.552,15.184 11.929 C 15.002 12.746,14.519 13.352,13.226 14.388 C 12.364 15.079,12.132 15.240,12.000 15.240 C 11.868 15.240,11.635 15.078,10.774 14.387 C 9.466 13.339,9.000 12.753,8.816 11.929 C 8.738 11.575,8.756 11.040,8.857 10.760 C 9.009 10.341,9.399 9.937,9.772 9.816 C 10.045 9.726,10.462 9.765,10.768 9.909 M1.826 11.284 C 1.476 11.366,1.267 11.636,1.267 12.003 C 1.267 12.281,1.387 12.496,1.627 12.645 C 1.779 12.740,1.786 12.740,3.000 12.740 C 4.207 12.740,4.222 12.739,4.369 12.647 C 4.943 12.290,4.812 11.424,4.162 11.284 C 3.915 11.231,2.051 11.231,1.826 11.284 M19.826 11.284 C 19.476 11.366,19.267 11.636,19.267 12.003 C 19.267 12.281,19.387 12.496,19.627 12.645 C 19.779 12.740,19.786 12.740,21.000 12.740 C 22.207 12.740,22.222 12.739,22.369 12.647 C 22.943 12.290,22.812 11.424,22.162 11.284 C 21.915 11.231,20.051 11.231,19.826 11.284 M6.020 16.995 C 5.856 17.071,5.415 17.502,5.320 17.680 C 5.291 17.735,5.267 17.881,5.267 18.004 C 5.267 18.276,5.375 18.476,5.607 18.629 C 5.814 18.766,6.162 18.775,6.364 18.649 C 6.573 18.519,6.949 18.117,7.018 17.951 C 7.283 17.313,6.649 16.706,6.020 16.995 M17.340 16.987 C 17.068 17.130,16.920 17.367,16.920 17.660 C 16.920 17.909,17.024 18.095,17.326 18.383 C 17.648 18.692,17.728 18.733,18.004 18.733 C 18.496 18.733,18.818 18.317,18.711 17.818 C 18.680 17.672,18.617 17.574,18.406 17.350 C 18.260 17.195,18.068 17.035,17.980 16.995 C 17.784 16.905,17.501 16.902,17.340 16.987 M11.826 19.286 C 11.625 19.331,11.468 19.445,11.353 19.631 C 11.261 19.778,11.260 19.793,11.260 21.003 L 11.260 22.226 11.367 22.388 C 11.526 22.628,11.721 22.733,12.007 22.733 C 12.203 22.733,12.270 22.714,12.408 22.617 C 12.722 22.395,12.738 22.325,12.753 21.128 C 12.767 19.990,12.741 19.747,12.581 19.538 C 12.419 19.325,12.109 19.222,11.826 19.286 " fill="#1C274C" stroke="none" fill-rule="evenodd"></path></svg>