<svg width="24" height="24" viewBox="0 0 24 24" fill="none" xmlns="http://www.w3.org/2000/svg"><path d="M6.880 2.283 C 6.169 2.349,5.647 2.499,4.940 2.840 C 4.318 3.141,3.802 3.513,3.280 4.039 C 2.745 4.578,2.391 5.075,2.041 5.780 C 1.454 6.960,1.196 8.187,1.256 9.500 C 1.358 11.697,2.119 13.619,3.633 15.500 C 4.103 16.085,5.268 17.258,6.000 17.885 C 6.891 18.647,9.263 20.553,9.717 20.871 C 10.214 21.220,10.812 21.521,11.260 21.647 C 12.113 21.889,13.054 21.679,14.059 21.024 L 14.399 20.802 14.895 21.136 C 15.575 21.593,15.952 21.733,16.500 21.733 C 17.224 21.733,17.607 21.535,19.240 20.315 C 20.212 19.589,20.679 19.196,21.141 18.716 C 22.111 17.706,22.582 16.766,22.722 15.556 C 22.825 14.674,22.609 13.700,22.154 12.991 L 22.032 12.800 22.199 12.330 C 22.863 10.463,22.927 8.436,22.373 6.760 C 21.631 4.511,19.846 2.816,17.760 2.379 C 15.919 1.993,14.053 2.533,12.361 3.941 L 12.000 4.242 11.639 3.941 C 10.438 2.942,9.206 2.398,7.880 2.281 C 7.377 2.237,7.373 2.237,6.880 2.283 M8.400 3.875 C 9.001 4.031,9.441 4.228,10.000 4.590 C 10.439 4.874,10.643 5.042,11.180 5.561 C 11.550 5.918,11.650 5.993,11.810 6.033 C 12.161 6.122,12.313 6.050,12.820 5.561 C 13.357 5.042,13.561 4.875,14.000 4.590 C 14.819 4.059,15.529 3.816,16.383 3.772 C 18.622 3.656,20.582 5.363,21.125 7.900 C 21.209 8.289,21.219 8.440,21.216 9.200 C 21.213 9.892,21.196 10.150,21.128 10.520 C 21.055 10.919,20.861 11.672,20.822 11.712 C 20.814 11.719,20.703 11.672,20.574 11.607 C 19.860 11.247,18.905 11.161,18.060 11.381 C 17.631 11.493,17.019 11.790,16.579 12.101 C 16.505 12.153,16.476 12.144,16.259 11.997 C 15.407 11.422,14.463 11.172,13.558 11.282 C 11.504 11.532,10.054 13.395,10.272 15.504 C 10.375 16.494,10.727 17.347,11.377 18.177 C 11.662 18.541,12.354 19.225,12.790 19.576 C 12.950 19.704,13.080 19.826,13.080 19.847 C 13.080 19.868,12.922 19.959,12.730 20.049 C 12.133 20.329,11.763 20.308,11.080 19.955 C 10.684 19.750,10.305 19.465,8.811 18.251 C 7.079 16.841,6.477 16.319,5.759 15.601 C 4.316 14.158,3.436 12.756,3.042 11.271 C 2.832 10.479,2.785 10.101,2.783 9.180 C 2.781 8.446,2.793 8.285,2.875 7.900 C 3.331 5.763,4.816 4.175,6.693 3.816 C 7.093 3.740,8.002 3.771,8.400 3.875 M14.397 12.799 C 14.855 12.886,15.342 13.143,15.788 13.532 C 16.358 14.030,16.638 14.037,17.171 13.567 C 17.633 13.158,18.133 12.888,18.592 12.798 C 18.921 12.734,19.436 12.768,19.740 12.876 C 20.071 12.993,20.486 13.285,20.701 13.554 C 21.104 14.058,21.266 14.582,21.228 15.256 C 21.200 15.757,21.127 16.039,20.905 16.500 C 20.516 17.310,19.883 17.956,18.362 19.093 C 16.732 20.313,16.599 20.373,16.106 20.123 C 15.834 19.985,14.308 18.873,13.660 18.340 C 13.192 17.956,12.626 17.372,12.406 17.048 C 12.177 16.711,11.972 16.284,11.871 15.932 C 11.740 15.473,11.741 14.692,11.874 14.307 C 12.247 13.227,13.308 12.593,14.397 12.799 " fill="#1C274C" stroke="none" fill-rule="evenodd"></path></svg>