<svg width="24" height="24" viewBox="0 0 24 24" fill="none" xmlns="http://www.w3.org/2000/svg"><path d="M6.940 2.562 C 5.952 2.644,4.994 2.981,4.162 3.538 C 3.208 4.178,2.440 5.077,1.924 6.160 C 1.320 7.428,1.127 8.894,1.357 10.464 C 1.684 12.703,2.966 14.853,5.117 16.772 C 5.959 17.523,8.358 19.428,9.418 20.188 C 11.282 21.524,12.535 21.578,14.284 20.398 C 14.749 20.085,16.998 18.352,17.930 17.588 C 20.319 15.632,21.696 13.824,22.324 11.820 C 22.566 11.047,22.667 10.486,22.717 9.641 C 22.814 8.001,22.447 6.597,21.582 5.300 C 20.772 4.086,19.701 3.263,18.357 2.824 C 16.599 2.250,14.685 2.566,12.974 3.715 C 12.714 3.890,12.393 4.125,12.262 4.237 C 12.131 4.349,12.013 4.440,12.000 4.440 C 11.987 4.440,11.869 4.349,11.738 4.238 C 11.451 3.994,10.798 3.546,10.440 3.349 C 9.378 2.762,8.072 2.468,6.940 2.562 M8.240 4.122 C 9.164 4.307,10.107 4.790,10.874 5.470 L 11.089 5.661 10.424 6.992 C 9.692 8.460,9.679 8.503,9.850 8.841 C 9.930 8.999,10.100 9.134,11.369 10.040 C 12.155 10.601,12.818 11.081,12.843 11.106 C 12.877 11.140,12.573 11.519,11.640 12.606 C 10.954 13.406,10.365 14.114,10.331 14.179 C 10.247 14.339,10.252 14.669,10.339 14.841 C 10.379 14.917,10.807 15.379,11.291 15.867 L 12.171 16.755 11.820 18.167 C 11.627 18.944,11.457 19.594,11.441 19.611 C 11.399 19.659,10.810 19.348,10.414 19.068 C 9.984 18.763,7.731 17.018,7.083 16.487 C 5.225 14.964,4.165 13.738,3.498 12.340 C 2.987 11.270,2.764 10.313,2.761 9.180 C 2.759 8.100,2.989 7.228,3.504 6.361 C 3.858 5.765,4.446 5.135,4.977 4.784 C 5.442 4.477,6.094 4.208,6.640 4.099 C 7.053 4.017,7.767 4.027,8.240 4.122 M17.330 4.097 C 19.313 4.476,20.829 6.116,21.181 8.260 C 21.254 8.709,21.255 9.618,21.183 10.120 C 20.888 12.157,19.833 13.916,17.838 15.696 C 16.634 16.770,13.141 19.474,13.061 19.394 C 13.052 19.385,13.199 18.767,13.386 18.019 C 13.574 17.272,13.728 16.578,13.728 16.477 C 13.729 16.376,13.698 16.232,13.659 16.157 C 13.621 16.082,13.239 15.666,12.811 15.234 L 12.032 14.448 13.306 12.964 C 14.007 12.147,14.615 11.413,14.658 11.333 C 14.705 11.243,14.734 11.112,14.732 10.994 C 14.726 10.612,14.710 10.597,13.058 9.413 C 12.223 8.815,11.525 8.301,11.506 8.271 C 11.482 8.235,11.653 7.854,12.031 7.098 L 12.590 5.980 12.915 5.670 C 13.753 4.869,14.735 4.331,15.740 4.122 C 16.184 4.030,16.920 4.018,17.330 4.097 " stroke="none" fill-rule="evenodd" fill="black"></path></svg>