<svg width="24" height="24" viewBox="0 0 24 24" fill="none" xmlns="http://www.w3.org/2000/svg"><path d="M11.413 1.282 C 9.307 1.419,7.720 2.395,6.877 4.069 C 6.582 4.654,6.435 5.168,6.325 5.994 L 6.259 6.489 6.019 6.579 C 4.402 7.187,3.172 8.465,2.587 10.144 C 2.226 11.184,2.166 12.408,2.416 13.645 C 2.848 15.778,4.145 17.582,6.700 19.606 C 7.504 20.243,9.417 21.666,9.867 21.963 C 11.439 22.999,12.561 22.999,14.133 21.963 C 14.952 21.423,17.384 19.569,18.180 18.878 C 20.099 17.212,21.206 15.510,21.584 13.645 C 21.768 12.733,21.782 11.648,21.617 10.867 C 21.370 9.690,20.693 8.486,19.850 7.722 C 19.346 7.265,18.613 6.817,17.981 6.579 L 17.741 6.489 17.675 5.994 C 17.639 5.722,17.588 5.410,17.563 5.300 C 17.081 3.232,15.633 1.836,13.519 1.404 C 13.171 1.332,12.875 1.302,12.160 1.264 C 12.017 1.257,11.681 1.265,11.413 1.282 M13.283 2.874 C 14.089 3.060,14.625 3.345,15.140 3.860 C 15.530 4.250,15.730 4.555,15.926 5.060 C 16.047 5.372,16.237 6.176,16.199 6.214 C 16.188 6.225,15.981 6.252,15.737 6.275 C 14.914 6.352,14.362 6.503,13.620 6.857 C 13.136 7.087,12.625 7.404,12.271 7.693 C 12.144 7.796,12.023 7.880,12.001 7.880 C 11.979 7.880,11.848 7.789,11.710 7.677 C 11.182 7.249,10.286 6.762,9.631 6.546 C 9.212 6.407,8.791 6.324,8.263 6.275 C 8.019 6.252,7.812 6.225,7.801 6.214 C 7.763 6.176,7.953 5.372,8.074 5.060 C 8.566 3.793,9.623 3.011,11.127 2.800 C 11.568 2.739,12.891 2.784,13.283 2.874 M8.598 7.822 C 9.498 7.993,10.326 8.429,11.153 9.167 C 11.914 9.848,12.086 9.848,12.847 9.167 C 13.683 8.421,14.505 7.991,15.429 7.817 C 15.855 7.737,16.692 7.757,17.060 7.857 C 18.383 8.217,19.438 9.160,19.925 10.419 C 20.184 11.092,20.214 11.267,20.217 12.140 C 20.220 12.838,20.208 12.993,20.127 13.355 C 19.853 14.579,19.241 15.682,18.261 16.719 C 17.436 17.592,16.831 18.102,14.928 19.534 C 13.429 20.661,13.142 20.858,12.686 21.074 C 12.401 21.210,12.354 21.220,12.000 21.220 C 11.646 21.220,11.599 21.210,11.314 21.074 C 11.145 20.994,10.879 20.846,10.722 20.744 C 10.311 20.478,7.792 18.578,7.223 18.105 C 5.855 16.966,4.982 15.971,4.464 14.960 C 3.986 14.026,3.808 13.365,3.772 12.396 C 3.744 11.645,3.792 11.261,3.985 10.680 C 4.479 9.190,5.660 8.113,7.120 7.820 C 7.484 7.747,8.207 7.748,8.598 7.822 M11.826 11.286 C 11.625 11.331,11.468 11.445,11.353 11.631 C 11.260 11.780,11.260 11.784,11.260 13.200 C 11.260 13.981,11.274 14.669,11.291 14.729 C 11.333 14.881,11.553 15.121,11.708 15.186 C 11.973 15.297,12.289 15.241,12.494 15.047 C 12.740 14.814,12.739 14.821,12.753 13.386 C 12.766 11.976,12.745 11.753,12.581 11.538 C 12.419 11.325,12.109 11.222,11.826 11.286 " stroke="none" fill-rule="evenodd" fill="black"></path></svg>