<svg width="24" height="24" viewBox="0 0 24 24" fill="none" xmlns="http://www.w3.org/2000/svg"><path d="M11.320 1.281 C 7.041 1.525,3.252 4.409,1.843 8.497 C 1.180 10.418,1.082 12.560,1.564 14.550 C 2.505 18.428,5.572 21.495,9.450 22.436 C 11.106 22.837,12.894 22.837,14.550 22.436 C 18.428 21.495,21.495 18.428,22.436 14.550 C 22.837 12.894,22.837 11.106,22.436 9.450 C 21.425 5.282,17.985 2.095,13.742 1.398 C 13.334 1.331,12.074 1.229,11.880 1.247 C 11.847 1.250,11.595 1.265,11.320 1.281 M13.146 2.822 C 14.200 2.960,15.123 3.237,16.062 3.697 C 16.666 3.993,17.465 4.497,17.800 4.795 L 17.980 4.955 16.384 6.553 L 14.789 8.152 14.584 8.021 C 13.785 7.511,12.963 7.273,12.000 7.273 C 11.037 7.273,10.215 7.511,9.416 8.021 L 9.211 8.152 7.616 6.553 L 6.020 4.955 6.200 4.795 C 6.535 4.497,7.334 3.993,7.938 3.697 C 8.855 3.247,9.799 2.961,10.820 2.823 C 11.380 2.746,12.569 2.746,13.146 2.822 M6.566 7.626 L 8.152 9.211 8.021 9.416 C 7.511 10.215,7.273 11.037,7.273 12.000 C 7.273 12.963,7.511 13.785,8.021 14.584 L 8.152 14.789 6.553 16.384 L 4.955 17.980 4.795 17.800 C 4.497 17.465,3.993 16.666,3.697 16.062 C 2.779 14.188,2.522 12.061,2.966 10.002 C 3.235 8.750,3.930 7.276,4.707 6.310 C 4.826 6.162,4.936 6.040,4.952 6.040 C 4.967 6.040,5.693 6.754,6.566 7.626 M19.293 6.310 C 20.070 7.276,20.765 8.750,21.034 10.002 C 21.174 10.649,21.240 11.292,21.240 12.000 C 21.240 13.463,20.941 14.761,20.302 16.064 C 20.008 16.665,19.508 17.455,19.204 17.800 L 19.045 17.980 17.447 16.384 L 15.848 14.789 15.979 14.584 C 16.155 14.308,16.338 13.939,16.460 13.616 C 16.819 12.661,16.818 11.336,16.457 10.376 C 16.340 10.064,16.089 9.568,15.944 9.360 L 15.846 9.220 17.433 7.630 C 18.306 6.755,19.032 6.040,19.048 6.040 C 19.064 6.040,19.174 6.162,19.293 6.310 M12.980 8.894 C 13.508 9.068,13.854 9.286,14.284 9.716 C 14.712 10.143,14.928 10.485,15.108 11.020 C 15.209 11.316,15.217 11.389,15.217 12.000 C 15.217 12.611,15.209 12.684,15.108 12.980 C 14.928 13.515,14.712 13.857,14.284 14.284 C 13.857 14.712,13.515 14.928,12.980 15.108 C 12.684 15.209,12.611 15.217,12.000 15.217 C 11.389 15.217,11.316 15.209,11.020 15.108 C 10.485 14.928,10.143 14.712,9.716 14.284 C 9.288 13.857,9.072 13.515,8.892 12.980 C 8.791 12.684,8.783 12.611,8.783 12.000 C 8.783 11.389,8.791 11.316,8.892 11.020 C 9.072 10.485,9.288 10.143,9.716 9.716 C 10.433 8.999,11.066 8.750,12.100 8.775 C 12.572 8.787,12.710 8.806,12.980 8.894 M9.868 16.234 C 10.549 16.577,11.198 16.727,12.000 16.727 C 12.963 16.727,13.785 16.489,14.584 15.979 L 14.789 15.848 16.384 17.447 L 17.980 19.045 17.800 19.204 C 17.455 19.508,16.665 20.008,16.064 20.302 C 14.761 20.941,13.463 21.240,12.000 21.240 C 10.538 21.240,9.239 20.940,7.938 20.303 C 7.334 20.007,6.535 19.503,6.200 19.205 L 6.020 19.045 7.616 17.447 L 9.211 15.848 9.416 15.979 C 9.528 16.050,9.732 16.165,9.868 16.234 " stroke="none" fill-rule="evenodd" fill="black"></path></svg>