<svg width="24" height="24" viewBox="0 0 24 24" fill="none" xmlns="http://www.w3.org/2000/svg"><path d="M8.960 1.280 C 6.960 1.332,5.848 1.469,4.900 1.779 C 3.060 2.382,1.958 3.688,1.563 5.734 C 1.311 7.042,1.267 7.973,1.267 12.000 C 1.267 16.027,1.311 16.958,1.563 18.266 C 2.013 20.599,3.401 21.987,5.734 22.437 C 7.034 22.688,7.987 22.733,12.000 22.733 C 16.013 22.733,16.966 22.688,18.266 22.437 C 20.599 21.987,21.987 20.599,22.437 18.266 C 22.688 16.966,22.733 16.013,22.733 12.000 C 22.733 7.987,22.688 7.034,22.437 5.734 C 22.098 3.977,21.228 2.756,19.825 2.068 C 18.978 1.652,17.875 1.425,16.200 1.321 C 15.315 1.266,10.534 1.239,8.960 1.280 M16.787 2.853 C 17.971 2.982,18.589 3.129,19.180 3.421 C 20.200 3.924,20.776 4.815,21.019 6.260 C 21.215 7.435,21.251 8.515,21.229 12.620 C 21.210 16.115,21.195 16.526,21.055 17.500 C 20.734 19.744,19.757 20.726,17.520 21.054 C 16.474 21.207,16.036 21.220,12.000 21.220 C 7.964 21.220,7.526 21.207,6.480 21.054 C 4.384 20.747,3.408 19.870,3.021 17.947 C 2.796 16.826,2.780 16.428,2.780 12.000 C 2.780 8.382,2.788 7.864,2.852 7.240 C 3.025 5.550,3.340 4.663,4.001 4.001 C 4.665 3.338,5.593 3.009,7.220 2.862 C 8.207 2.772,8.227 2.772,12.400 2.782 C 15.524 2.790,16.323 2.803,16.787 2.853 M5.420 7.260 C 5.398 7.267,5.331 7.284,5.271 7.297 C 5.124 7.329,4.881 7.548,4.814 7.708 C 4.770 7.814,4.760 8.594,4.760 11.996 C 4.760 14.837,4.773 16.190,4.803 16.267 C 4.906 16.542,5.194 16.731,5.506 16.731 C 5.752 16.731,5.919 16.645,6.096 16.426 L 6.220 16.273 6.231 14.516 L 6.242 12.760 7.901 12.760 L 9.560 12.760 9.560 14.410 C 9.560 15.491,9.576 16.115,9.605 16.220 C 9.767 16.808,10.647 16.912,10.949 16.378 L 11.039 16.220 11.039 12.000 L 11.039 7.780 10.949 7.622 C 10.795 7.350,10.444 7.208,10.126 7.288 C 9.901 7.344,9.663 7.569,9.605 7.780 C 9.576 7.885,9.560 8.509,9.560 9.590 L 9.560 11.240 7.901 11.240 L 6.242 11.240 6.231 9.484 L 6.220 7.727 6.096 7.574 C 6.027 7.489,5.919 7.391,5.856 7.355 C 5.739 7.288,5.494 7.235,5.420 7.260 M13.360 7.284 C 12.811 7.379,12.264 7.795,12.077 8.260 L 11.980 8.500 11.980 12.000 L 11.980 15.500 12.077 15.740 C 12.204 16.055,12.545 16.400,12.888 16.559 C 13.253 16.729,13.588 16.771,14.169 16.721 C 15.061 16.643,15.708 16.469,16.460 16.102 C 17.805 15.447,18.753 14.358,19.108 13.060 C 19.207 12.697,19.217 12.598,19.216 12.000 C 19.214 11.414,19.202 11.295,19.107 10.940 C 18.723 9.504,17.580 8.311,15.984 7.681 C 15.204 7.373,13.947 7.182,13.360 7.284 M14.829 8.877 C 16.219 9.220,17.255 10.088,17.627 11.220 C 17.716 11.491,17.732 11.611,17.732 12.000 C 17.732 12.389,17.716 12.509,17.627 12.780 C 17.168 14.175,15.632 15.201,13.980 15.216 L 13.500 15.220 13.490 12.040 C 13.484 10.291,13.489 8.835,13.501 8.804 C 13.531 8.724,14.400 8.771,14.829 8.877 " stroke="none" fill-rule="evenodd" fill="black"></path></svg>