<svg width="24" height="24" viewBox="0 0 24 24" fill="none" xmlns="http://www.w3.org/2000/svg"><path d="M8.960 1.280 C 6.960 1.332,5.848 1.469,4.900 1.779 C 3.060 2.382,1.958 3.688,1.563 5.734 C 1.311 7.042,1.267 7.973,1.267 12.000 C 1.267 16.027,1.311 16.958,1.563 18.266 C 2.013 20.599,3.401 21.987,5.734 22.437 C 7.034 22.688,7.987 22.733,12.000 22.733 C 16.013 22.733,16.966 22.688,18.266 22.437 C 20.599 21.987,21.987 20.599,22.437 18.266 C 22.688 16.966,22.733 16.013,22.733 12.000 C 22.733 7.987,22.688 7.034,22.437 5.734 C 22.098 3.977,21.228 2.756,19.825 2.068 C 18.978 1.652,17.875 1.425,16.200 1.321 C 15.315 1.266,10.534 1.239,8.960 1.280 M16.787 2.853 C 17.971 2.982,18.589 3.129,19.180 3.421 C 20.200 3.924,20.776 4.815,21.019 6.260 C 21.215 7.435,21.251 8.515,21.229 12.620 C 21.210 16.115,21.195 16.526,21.055 17.500 C 20.734 19.744,19.757 20.726,17.520 21.054 C 16.474 21.207,16.036 21.220,12.000 21.220 C 7.964 21.220,7.526 21.207,6.480 21.054 C 4.384 20.747,3.408 19.870,3.021 17.947 C 2.796 16.826,2.780 16.428,2.780 12.000 C 2.780 8.382,2.788 7.864,2.852 7.240 C 3.025 5.550,3.340 4.663,4.001 4.001 C 4.665 3.338,5.593 3.009,7.220 2.862 C 8.207 2.772,8.227 2.772,12.400 2.782 C 15.524 2.790,16.323 2.803,16.787 2.853 M5.815 7.277 C 5.638 7.321,5.461 7.456,5.353 7.631 L 5.260 7.780 5.260 11.760 C 5.260 13.949,5.274 15.789,5.291 15.849 C 5.333 16.001,5.553 16.241,5.708 16.306 C 5.973 16.417,6.289 16.361,6.494 16.167 C 6.743 15.931,6.739 15.963,6.752 14.290 L 6.764 12.760 8.422 12.760 L 10.080 12.760 10.080 14.282 C 10.080 15.717,10.084 15.812,10.159 15.958 C 10.431 16.491,11.216 16.485,11.476 15.948 L 11.562 15.772 11.551 11.750 L 11.540 7.727 11.416 7.574 C 11.238 7.354,11.072 7.269,10.822 7.269 C 10.564 7.269,10.340 7.384,10.199 7.589 L 10.100 7.734 10.089 9.487 L 10.078 11.240 8.419 11.240 L 6.760 11.240 6.759 9.630 C 6.758 8.669,6.741 7.948,6.717 7.841 C 6.623 7.432,6.215 7.177,5.815 7.277 M15.340 7.280 C 14.793 7.331,14.320 7.496,13.945 7.765 C 13.515 8.074,13.207 8.473,13.055 8.920 C 12.985 9.127,12.980 9.304,12.980 11.840 L 12.980 14.540 13.110 14.840 C 13.409 15.532,14.008 16.029,14.821 16.261 C 14.998 16.311,15.281 16.334,15.916 16.349 C 16.852 16.371,17.201 16.336,17.640 16.177 L 17.900 16.083 18.040 16.194 C 18.527 16.583,18.689 16.691,18.837 16.724 C 19.371 16.844,19.849 16.349,19.715 15.816 C 19.667 15.625,19.537 15.468,19.206 15.200 L 19.033 15.060 19.146 14.740 L 19.260 14.420 19.260 11.820 C 19.260 9.415,19.255 9.202,19.187 8.980 C 18.950 8.202,18.260 7.585,17.373 7.358 C 17.022 7.269,15.913 7.226,15.340 7.280 M17.071 8.821 C 17.312 8.893,17.586 9.090,17.688 9.265 C 17.756 9.381,17.760 9.533,17.750 11.714 L 17.740 14.040 17.547 13.903 C 17.319 13.741,17.113 13.697,16.876 13.761 C 16.658 13.820,16.423 14.049,16.365 14.261 C 16.308 14.464,16.311 14.544,16.379 14.735 L 16.434 14.890 15.842 14.873 C 15.262 14.856,15.245 14.853,14.977 14.718 C 14.810 14.634,14.655 14.520,14.582 14.426 L 14.460 14.273 14.449 11.871 C 14.438 9.517,14.440 9.466,14.520 9.299 C 14.615 9.103,14.832 8.938,15.132 8.834 C 15.415 8.737,16.756 8.727,17.071 8.821 " stroke="none" fill-rule="evenodd" fill="black"></path></svg>