<svg width="24" height="24" viewBox="0 0 24 24" fill="none" xmlns="http://www.w3.org/2000/svg"><path d="M11.140 1.282 C 10.728 1.327,10.503 1.387,10.177 1.537 C 9.250 1.966,8.540 2.826,8.337 3.767 C 8.255 4.148,8.255 4.853,8.338 5.240 C 8.408 5.568,8.602 6.012,8.806 6.310 C 9.257 6.971,10.034 7.509,10.761 7.665 C 11.149 7.748,11.851 7.747,12.240 7.663 C 13.386 7.415,14.415 6.383,14.663 5.233 C 14.745 4.854,14.745 4.146,14.663 3.767 C 14.503 3.026,13.974 2.259,13.307 1.804 C 12.707 1.394,11.896 1.198,11.140 1.282 M12.247 2.930 C 12.618 3.113,12.915 3.415,13.092 3.790 C 13.212 4.043,13.220 4.088,13.220 4.500 C 13.220 4.912,13.212 4.957,13.092 5.210 C 12.914 5.586,12.618 5.887,12.245 6.071 C 11.952 6.216,11.932 6.220,11.500 6.220 C 11.068 6.220,11.048 6.216,10.755 6.071 C 10.382 5.887,10.086 5.586,9.908 5.210 C 9.788 4.957,9.780 4.912,9.780 4.500 C 9.780 4.088,9.788 4.043,9.907 3.791 C 10.123 3.335,10.494 3.003,10.979 2.830 C 11.132 2.775,11.272 2.761,11.564 2.770 C 11.914 2.781,11.976 2.796,12.247 2.930 M18.826 7.286 C 18.625 7.331,18.468 7.445,18.353 7.631 C 18.262 7.777,18.260 7.806,18.247 8.970 L 18.235 10.160 18.012 10.341 C 17.303 10.919,16.448 11.232,15.480 11.269 C 14.637 11.301,14.145 11.199,13.320 10.821 C 12.747 10.558,12.520 10.502,12.040 10.503 C 11.044 10.505,10.157 11.055,9.727 11.939 C 9.515 12.373,9.400 13.046,9.400 13.855 C 9.400 14.507,9.616 15.132,10.032 15.681 C 10.266 15.991,10.432 16.130,11.040 16.531 C 11.293 16.697,11.623 16.940,11.772 17.070 C 12.480 17.684,13.013 18.496,13.292 19.385 C 13.444 19.866,13.475 20.062,13.577 21.167 C 13.679 22.275,13.714 22.411,13.936 22.579 C 14.244 22.812,14.653 22.787,14.920 22.520 C 15.159 22.281,15.168 22.182,15.058 20.999 C 15.006 20.431,14.926 19.787,14.882 19.567 C 14.607 18.219,13.836 16.886,12.811 15.987 C 12.640 15.837,12.244 15.543,11.931 15.334 C 11.329 14.931,11.182 14.785,11.015 14.421 C 10.885 14.135,10.859 13.848,10.916 13.321 C 10.975 12.777,11.015 12.639,11.172 12.433 C 11.381 12.159,11.637 12.024,11.979 12.006 C 12.254 11.993,12.288 12.001,12.763 12.211 C 13.036 12.331,13.350 12.458,13.460 12.494 C 14.941 12.972,16.545 12.852,17.920 12.160 L 18.239 12.000 18.249 17.110 L 18.260 22.220 18.355 22.373 C 18.506 22.615,18.718 22.733,19.003 22.733 C 19.203 22.733,19.270 22.714,19.408 22.617 C 19.499 22.553,19.610 22.428,19.656 22.340 L 19.740 22.180 19.751 15.120 C 19.758 10.288,19.748 7.998,19.720 7.862 C 19.628 7.432,19.252 7.190,18.826 7.286 M7.760 9.321 C 6.426 9.406,6.115 9.446,5.795 9.576 C 5.089 9.861,4.489 10.562,4.318 11.301 C 4.255 11.576,4.255 12.136,4.318 12.400 C 4.393 12.715,4.600 13.146,4.794 13.390 C 4.986 13.631,7.155 15.575,7.337 15.669 C 7.492 15.749,7.828 15.749,7.981 15.669 C 8.136 15.588,8.304 15.409,8.357 15.267 C 8.450 15.023,8.394 14.707,8.227 14.525 C 8.179 14.472,7.663 14.002,7.080 13.480 C 6.497 12.959,5.989 12.497,5.952 12.455 C 5.763 12.242,5.701 11.778,5.822 11.489 C 5.901 11.300,6.096 11.096,6.295 10.993 C 6.477 10.899,6.507 10.896,8.025 10.804 C 9.336 10.724,9.405 10.707,9.615 10.409 C 9.925 9.971,9.621 9.321,9.080 9.266 C 8.981 9.256,8.387 9.280,7.760 9.321 M8.696 16.821 C 8.481 16.915,8.335 17.126,8.222 17.508 C 8.010 18.223,7.680 19.067,7.472 19.428 C 7.221 19.863,6.531 20.596,5.830 21.172 C 5.366 21.552,5.270 21.689,5.266 21.975 C 5.262 22.241,5.375 22.463,5.592 22.617 C 5.822 22.779,6.161 22.783,6.396 22.627 C 6.761 22.386,7.568 21.653,8.052 21.122 C 8.638 20.480,8.999 19.839,9.391 18.740 C 9.683 17.922,9.775 17.525,9.720 17.321 C 9.667 17.124,9.467 16.887,9.292 16.814 C 9.130 16.746,8.859 16.750,8.696 16.821 " stroke="none" fill-rule="evenodd" fill="black"></path></svg>