<svg width="24" height="24" viewBox="0 0 24 24" fill="none" xmlns="http://www.w3.org/2000/svg"><path d="M11.140 1.282 C 10.728 1.327,10.503 1.387,10.177 1.537 C 9.250 1.966,8.540 2.826,8.337 3.767 C 8.255 4.148,8.255 4.853,8.338 5.240 C 8.408 5.568,8.602 6.012,8.806 6.310 C 9.257 6.971,10.034 7.509,10.761 7.665 C 11.149 7.748,11.851 7.747,12.240 7.663 C 13.386 7.415,14.415 6.383,14.663 5.233 C 14.745 4.854,14.745 4.146,14.663 3.767 C 14.503 3.026,13.974 2.259,13.307 1.804 C 12.707 1.394,11.896 1.198,11.140 1.282 M12.247 2.930 C 12.618 3.113,12.915 3.415,13.092 3.790 C 13.212 4.043,13.220 4.088,13.220 4.500 C 13.220 4.912,13.212 4.957,13.092 5.210 C 12.914 5.586,12.618 5.887,12.245 6.071 C 11.952 6.216,11.932 6.220,11.500 6.220 C 11.068 6.220,11.048 6.216,10.755 6.071 C 10.382 5.887,10.086 5.586,9.908 5.210 C 9.788 4.957,9.780 4.912,9.780 4.500 C 9.780 4.088,9.788 4.043,9.907 3.791 C 10.123 3.335,10.494 3.003,10.979 2.830 C 11.132 2.775,11.272 2.761,11.564 2.770 C 11.914 2.781,11.976 2.796,12.247 2.930 M18.826 7.286 C 18.625 7.331,18.468 7.445,18.353 7.631 C 18.262 7.777,18.260 7.806,18.247 8.972 L 18.235 10.164 17.467 10.803 C 17.045 11.154,16.619 11.482,16.520 11.531 C 16.376 11.602,16.271 11.620,16.000 11.620 C 15.556 11.620,15.452 11.567,14.740 10.975 C 13.984 10.347,13.705 10.156,13.140 9.882 C 12.434 9.538,11.829 9.360,11.365 9.360 C 10.666 9.360,9.919 9.934,9.723 10.620 C 9.698 10.708,9.614 11.401,9.536 12.160 C 9.326 14.201,9.359 14.695,9.749 15.356 C 10.043 15.854,10.269 16.034,11.960 17.115 C 12.763 17.628,13.060 17.938,13.241 18.452 C 13.350 18.764,13.385 19.028,13.536 20.704 C 13.681 22.307,13.701 22.401,13.936 22.579 C 14.244 22.812,14.653 22.787,14.920 22.520 C 15.164 22.276,15.168 22.210,15.037 20.728 C 14.849 18.607,14.802 18.303,14.581 17.787 C 14.367 17.289,14.203 17.044,13.840 16.680 C 13.504 16.342,13.147 16.085,12.094 15.424 C 11.286 14.917,11.147 14.801,11.005 14.517 C 10.900 14.308,10.880 14.221,10.880 13.984 C 10.880 13.638,11.118 11.175,11.164 11.052 C 11.182 11.004,11.239 10.936,11.291 10.902 C 11.540 10.739,12.691 11.238,13.400 11.817 C 14.800 12.960,15.124 13.123,16.000 13.123 C 16.711 13.123,17.124 12.969,17.811 12.447 L 18.239 12.122 18.249 17.171 L 18.260 22.220 18.355 22.373 C 18.506 22.615,18.718 22.733,19.003 22.733 C 19.203 22.733,19.270 22.714,19.408 22.617 C 19.499 22.553,19.610 22.428,19.656 22.340 L 19.740 22.180 19.751 15.120 C 19.758 10.288,19.748 7.998,19.720 7.862 C 19.628 7.432,19.252 7.190,18.826 7.286 M7.740 9.299 C 7.342 9.411,5.994 9.881,5.781 9.981 C 5.243 10.236,4.794 10.692,4.522 11.260 C 4.359 11.600,4.332 11.698,4.281 12.136 C 4.213 12.706,4.387 13.233,4.770 13.615 C 4.957 13.803,5.151 13.912,6.391 14.534 C 7.902 15.291,7.978 15.317,8.292 15.186 C 8.674 15.026,8.850 14.533,8.659 14.160 C 8.557 13.962,8.374 13.850,7.087 13.200 L 5.780 12.540 5.768 12.368 C 5.741 12.005,6.018 11.532,6.355 11.364 C 6.435 11.324,6.922 11.151,7.437 10.979 C 8.265 10.702,8.392 10.648,8.521 10.519 C 9.080 9.960,8.517 9.080,7.740 9.299 M8.720 16.805 C 8.665 16.827,8.577 16.884,8.525 16.932 C 8.351 17.092,5.328 21.662,5.281 21.836 C 5.161 22.281,5.518 22.725,6.001 22.732 C 6.402 22.738,6.351 22.800,8.012 20.318 C 8.844 19.076,9.571 17.982,9.628 17.887 C 9.806 17.589,9.757 17.196,9.514 16.975 C 9.294 16.775,8.970 16.705,8.720 16.805 " stroke="none" fill-rule="evenodd" fill="black"></path></svg>