<svg width="24" height="24" viewBox="0 0 24 24" fill="none" xmlns="http://www.w3.org/2000/svg"><path d="M11.140 2.282 C 10.728 2.327,10.503 2.387,10.177 2.537 C 9.250 2.966,8.540 3.826,8.337 4.767 C 8.255 5.148,8.255 5.853,8.338 6.240 C 8.408 6.568,8.602 7.012,8.806 7.310 C 9.257 7.971,10.034 8.509,10.761 8.665 C 11.149 8.748,11.851 8.747,12.240 8.663 C 13.386 8.415,14.415 7.383,14.663 6.233 C 14.745 5.854,14.745 5.146,14.663 4.767 C 14.503 4.026,13.974 3.259,13.307 2.804 C 12.707 2.394,11.896 2.198,11.140 2.282 M12.247 3.930 C 12.618 4.113,12.915 4.415,13.092 4.790 C 13.212 5.043,13.220 5.088,13.220 5.500 C 13.220 5.912,13.212 5.957,13.092 6.210 C 12.914 6.586,12.618 6.887,12.245 7.071 C 11.952 7.216,11.932 7.220,11.500 7.220 C 11.068 7.220,11.048 7.216,10.755 7.071 C 10.382 6.887,10.086 6.586,9.908 6.210 C 9.788 5.957,9.780 5.912,9.780 5.500 C 9.780 5.088,9.788 5.043,9.907 4.791 C 10.123 4.335,10.494 4.003,10.979 3.830 C 11.132 3.775,11.272 3.761,11.564 3.770 C 11.914 3.781,11.976 3.796,12.247 3.930 M18.826 6.286 C 18.625 6.331,18.468 6.445,18.353 6.631 C 18.262 6.777,18.260 6.806,18.247 7.970 L 18.235 9.160 18.012 9.341 C 17.303 9.919,16.448 10.232,15.480 10.269 C 14.637 10.301,14.145 10.199,13.320 9.821 C 12.747 9.558,12.520 9.502,12.040 9.503 C 11.044 9.505,10.157 10.055,9.727 10.939 C 9.515 11.373,9.400 12.046,9.400 12.855 C 9.400 13.507,9.616 14.132,10.032 14.681 C 10.266 14.991,10.432 15.130,11.040 15.531 C 11.293 15.697,11.623 15.940,11.772 16.070 C 12.480 16.684,13.013 17.496,13.292 18.385 C 13.444 18.866,13.475 19.062,13.577 20.167 C 13.679 21.275,13.714 21.411,13.936 21.579 C 14.244 21.812,14.653 21.787,14.920 21.520 C 15.159 21.281,15.168 21.182,15.058 19.999 C 15.006 19.431,14.926 18.787,14.882 18.567 C 14.607 17.219,13.836 15.886,12.811 14.987 C 12.640 14.837,12.244 14.543,11.931 14.334 C 11.329 13.931,11.182 13.785,11.015 13.421 C 10.885 13.135,10.859 12.848,10.916 12.321 C 10.975 11.777,11.015 11.639,11.172 11.433 C 11.381 11.159,11.637 11.024,11.979 11.006 C 12.254 10.993,12.288 11.001,12.763 11.211 C 13.036 11.331,13.350 11.458,13.460 11.494 C 14.941 11.972,16.545 11.852,17.920 11.160 L 18.239 11.000 18.249 16.110 L 18.260 21.220 18.355 21.373 C 18.506 21.615,18.718 21.733,19.003 21.733 C 19.203 21.733,19.270 21.714,19.408 21.617 C 19.499 21.553,19.610 21.428,19.656 21.340 L 19.740 21.180 19.751 14.120 C 19.758 9.288,19.748 6.998,19.720 6.862 C 19.628 6.432,19.252 6.190,18.826 6.286 M8.696 15.821 C 8.481 15.915,8.335 16.126,8.222 16.508 C 8.010 17.223,7.680 18.067,7.472 18.428 C 7.221 18.863,6.531 19.596,5.830 20.172 C 5.366 20.552,5.270 20.689,5.266 20.975 C 5.262 21.241,5.375 21.463,5.592 21.617 C 5.822 21.779,6.161 21.783,6.396 21.627 C 6.761 21.386,7.568 20.653,8.052 20.122 C 8.638 19.480,8.999 18.839,9.391 17.740 C 9.683 16.922,9.775 16.525,9.720 16.321 C 9.667 16.124,9.467 15.887,9.292 15.814 C 9.130 15.746,8.859 15.750,8.696 15.821 " stroke="none" fill-rule="evenodd" fill="black"></path></svg>