<svg width="24" height="24" viewBox="0 0 24 24" fill="none" xmlns="http://www.w3.org/2000/svg"><path d="M11.260 2.282 C 9.072 2.418,7.101 3.265,5.327 4.830 L 5.090 5.039 5.073 4.564 C 5.057 4.129,5.047 4.074,4.948 3.925 C 4.652 3.477,3.947 3.493,3.688 3.954 C 3.597 4.115,3.597 4.119,3.609 5.634 L 3.620 7.153 3.743 7.306 C 3.969 7.590,3.990 7.594,5.420 7.624 C 6.124 7.640,6.803 7.639,6.928 7.623 C 7.417 7.562,7.716 7.152,7.597 6.708 C 7.485 6.292,7.257 6.157,6.606 6.124 L 6.152 6.100 6.466 5.823 C 7.756 4.685,9.294 3.999,11.016 3.796 C 11.525 3.736,12.781 3.770,13.260 3.857 C 15.050 4.180,16.543 4.954,17.795 6.205 C 19.046 7.457,19.820 8.950,20.143 10.740 C 20.230 11.219,20.264 12.475,20.204 12.984 C 19.981 14.872,19.179 16.540,17.860 17.860 C 16.556 19.163,14.895 19.969,13.041 20.198 C 12.545 20.259,11.510 20.249,10.991 20.178 C 9.495 19.973,8.041 19.348,6.880 18.411 C 5.205 17.060,4.127 15.147,3.818 12.980 C 3.753 12.524,3.744 11.404,3.801 10.963 C 3.845 10.622,3.805 10.409,3.659 10.216 C 3.365 9.828,2.661 9.886,2.442 10.317 C 2.213 10.765,2.205 12.495,2.426 13.716 C 3.018 16.981,5.362 19.823,8.480 21.054 C 9.679 21.528,10.786 21.732,12.140 21.729 C 13.659 21.726,14.995 21.417,16.340 20.759 C 18.888 19.511,20.729 17.249,21.442 14.492 C 21.777 13.194,21.826 11.678,21.577 10.300 C 21.040 7.331,19.073 4.710,16.342 3.320 C 15.153 2.715,13.876 2.370,12.499 2.280 C 12.170 2.259,11.864 2.244,11.820 2.247 C 11.776 2.250,11.524 2.266,11.260 2.282 M11.807 7.289 C 11.574 7.339,11.348 7.565,11.286 7.811 C 11.223 8.062,11.222 11.868,11.284 12.168 C 11.328 12.376,11.352 12.403,12.674 13.735 C 13.563 14.629,14.074 15.114,14.180 15.164 C 14.448 15.289,14.798 15.241,15.014 15.048 C 15.130 14.946,15.238 14.680,15.238 14.500 C 15.238 14.196,15.131 14.063,13.924 12.860 L 12.760 11.701 12.759 9.860 C 12.758 8.741,12.742 7.950,12.717 7.841 C 12.620 7.420,12.247 7.194,11.807 7.289 " stroke="none" fill-rule="evenodd" fill="black"></path></svg>