<svg width="24" height="24" viewBox="0 0 24 24" fill="none" xmlns="http://www.w3.org/2000/svg"><path d="M11.807 1.287 C 11.327 1.395,11.102 2.021,11.396 2.434 C 11.569 2.678,11.709 2.727,12.333 2.762 C 13.404 2.822,14.036 2.935,14.900 3.219 C 16.873 3.867,18.586 5.190,19.771 6.980 C 20.057 7.412,20.547 8.403,20.718 8.895 C 21.059 9.876,21.199 10.678,21.233 11.843 C 21.260 12.741,21.261 12.747,21.370 12.912 C 21.650 13.336,22.246 13.354,22.573 12.949 C 22.736 12.748,22.775 12.348,22.721 11.440 C 22.655 10.326,22.505 9.519,22.197 8.616 C 21.398 6.270,19.944 4.379,17.897 3.020 C 16.666 2.203,15.351 1.687,13.775 1.400 C 13.163 1.289,12.077 1.227,11.807 1.287 M8.934 1.697 C 8.544 1.821,8.381 1.930,8.283 2.134 C 8.063 2.588,8.304 3.093,8.794 3.203 C 8.971 3.243,9.448 3.138,9.753 2.993 C 10.259 2.751,10.294 2.025,9.815 1.721 C 9.579 1.571,9.350 1.565,8.934 1.697 M5.540 3.437 C 5.268 3.576,4.855 3.979,4.778 4.180 C 4.599 4.647,4.954 5.160,5.455 5.160 C 5.709 5.160,5.850 5.092,6.185 4.807 C 6.598 4.455,6.697 4.146,6.515 3.770 C 6.347 3.423,5.880 3.263,5.540 3.437 M3.039 6.422 C 2.812 6.491,2.689 6.620,2.486 7.000 C 2.295 7.358,2.258 7.529,2.321 7.762 C 2.453 8.255,3.055 8.463,3.472 8.161 C 3.692 8.002,4.000 7.404,4.000 7.136 C 4.000 6.618,3.532 6.270,3.039 6.422 M11.807 8.289 C 11.556 8.343,11.341 8.570,11.281 8.846 C 11.248 8.998,11.238 9.663,11.247 11.143 L 11.260 13.226 11.367 13.388 C 11.426 13.477,11.543 13.593,11.627 13.645 L 11.780 13.740 14.000 13.740 L 16.220 13.740 16.369 13.647 C 16.943 13.290,16.812 12.424,16.162 12.284 C 16.031 12.256,15.374 12.240,14.358 12.240 L 12.760 12.240 12.759 10.630 C 12.758 9.669,12.741 8.948,12.717 8.841 C 12.620 8.420,12.247 8.194,11.807 8.289 M1.727 10.243 C 1.505 10.356,1.368 10.565,1.319 10.864 C 1.196 11.619,1.357 11.998,1.856 12.123 C 2.096 12.184,2.302 12.129,2.507 11.949 C 2.703 11.776,2.747 11.651,2.781 11.173 C 2.808 10.799,2.802 10.750,2.720 10.580 C 2.544 10.216,2.085 10.061,1.727 10.243 M2.192 14.160 C 1.905 14.246,1.680 14.554,1.680 14.860 C 1.680 15.081,1.878 15.659,2.007 15.816 C 2.415 16.311,3.239 16.067,3.308 15.431 C 3.337 15.175,3.116 14.519,2.945 14.348 C 2.751 14.154,2.455 14.080,2.192 14.160 M20.872 15.242 C 20.690 15.338,20.573 15.495,20.407 15.863 C 20.249 16.216,20.237 16.492,20.370 16.728 C 20.623 17.179,21.333 17.202,21.618 16.769 C 21.672 16.687,21.773 16.486,21.842 16.322 C 21.996 15.960,21.991 15.731,21.823 15.478 C 21.628 15.183,21.189 15.074,20.872 15.242 M3.960 17.714 C 3.722 17.842,3.587 18.048,3.568 18.314 C 3.548 18.599,3.608 18.731,3.928 19.091 C 4.191 19.389,4.355 19.480,4.626 19.480 C 5.013 19.480,5.320 19.204,5.351 18.829 C 5.362 18.697,5.347 18.566,5.310 18.479 C 5.225 18.275,4.809 17.806,4.635 17.717 C 4.441 17.618,4.142 17.617,3.960 17.714 M18.656 18.497 C 18.495 18.567,18.013 19.019,17.931 19.177 C 17.896 19.245,17.866 19.402,17.864 19.527 C 17.858 19.943,18.165 20.240,18.602 20.240 C 18.875 20.240,19.073 20.125,19.407 19.772 C 19.750 19.410,19.802 19.087,19.573 18.751 C 19.388 18.481,18.964 18.363,18.656 18.497 M7.043 20.227 C 6.880 20.313,6.803 20.385,6.733 20.517 C 6.565 20.834,6.650 21.241,6.927 21.453 C 7.128 21.606,7.583 21.808,7.777 21.830 C 8.140 21.871,8.510 21.580,8.550 21.222 C 8.599 20.786,8.433 20.543,7.919 20.302 C 7.479 20.096,7.319 20.082,7.043 20.227 M15.416 20.623 C 14.828 20.774,14.524 20.976,14.442 21.269 C 14.379 21.497,14.390 21.605,14.501 21.826 C 14.578 21.982,14.646 22.052,14.796 22.134 C 15.038 22.266,15.187 22.267,15.559 22.140 C 15.992 21.993,16.178 21.871,16.276 21.668 C 16.569 21.064,16.068 20.456,15.416 20.623 M10.810 21.341 C 10.275 21.668,10.395 22.517,10.999 22.680 C 11.250 22.747,11.886 22.740,12.026 22.667 C 12.559 22.392,12.579 21.648,12.061 21.353 C 11.924 21.275,11.832 21.259,11.440 21.249 C 11.003 21.237,10.971 21.242,10.810 21.341 " stroke="none" fill-rule="evenodd" fill="black"></path></svg>