<svg width="24" height="24" viewBox="0 0 24 24" fill="none" xmlns="http://www.w3.org/2000/svg"><path d="M11.807 1.289 C 11.328 1.391,11.102 2.021,11.396 2.434 C 11.569 2.678,11.709 2.727,12.333 2.762 C 13.404 2.822,14.036 2.935,14.900 3.219 C 16.873 3.867,18.586 5.190,19.771 6.980 C 20.057 7.413,20.547 8.403,20.720 8.900 C 20.909 9.443,21.106 10.290,21.182 10.884 C 21.234 11.293,21.245 11.604,21.229 12.238 C 21.207 13.165,21.122 13.747,20.896 14.533 C 20.551 15.734,19.913 16.952,19.153 17.860 C 18.073 19.152,16.792 20.071,15.274 20.644 C 14.235 21.036,13.424 21.198,12.340 21.229 C 10.701 21.276,9.336 20.989,7.940 20.304 C 6.722 19.706,5.761 18.947,4.848 17.860 C 3.847 16.669,3.121 15.048,2.859 13.420 C 2.758 12.796,2.720 11.856,2.770 11.278 C 2.814 10.790,2.812 10.770,2.723 10.585 C 2.589 10.310,2.380 10.182,2.061 10.181 C 1.743 10.180,1.531 10.309,1.397 10.585 C 1.317 10.751,1.304 10.847,1.294 11.330 C 1.287 11.635,1.273 11.898,1.263 11.916 C 1.224 11.978,1.320 13.265,1.398 13.740 C 1.576 14.821,1.851 15.685,2.341 16.700 C 3.603 19.311,5.915 21.324,8.678 22.217 C 10.791 22.901,12.945 22.921,15.144 22.277 C 16.714 21.818,18.439 20.781,19.594 19.602 C 20.991 18.176,21.921 16.550,22.401 14.696 C 22.807 13.123,22.850 11.598,22.536 9.880 C 22.349 8.863,21.836 7.521,21.272 6.574 C 20.715 5.641,20.233 5.030,19.456 4.273 C 17.583 2.447,15.045 1.360,12.440 1.269 C 12.187 1.260,11.902 1.269,11.807 1.289 M8.934 1.697 C 8.544 1.821,8.381 1.930,8.283 2.134 C 8.063 2.588,8.304 3.093,8.794 3.203 C 8.971 3.243,9.448 3.138,9.753 2.993 C 10.259 2.751,10.294 2.025,9.815 1.721 C 9.579 1.571,9.350 1.565,8.934 1.697 M5.540 3.437 C 5.268 3.576,4.855 3.979,4.778 4.180 C 4.599 4.647,4.954 5.160,5.455 5.160 C 5.709 5.160,5.850 5.092,6.185 4.807 C 6.598 4.455,6.697 4.146,6.515 3.770 C 6.347 3.423,5.880 3.263,5.540 3.437 M3.039 6.422 C 2.812 6.491,2.689 6.620,2.486 7.000 C 2.295 7.358,2.258 7.529,2.321 7.762 C 2.453 8.255,3.055 8.463,3.472 8.161 C 3.692 8.002,4.000 7.404,4.000 7.136 C 4.000 6.618,3.532 6.270,3.039 6.422 M11.807 8.289 C 11.556 8.343,11.341 8.570,11.281 8.846 C 11.248 8.998,11.238 9.663,11.247 11.143 L 11.260 13.226 11.367 13.388 C 11.426 13.477,11.543 13.593,11.627 13.645 L 11.780 13.740 14.000 13.740 L 16.220 13.740 16.369 13.647 C 16.943 13.290,16.812 12.424,16.162 12.284 C 16.031 12.256,15.374 12.240,14.358 12.240 L 12.760 12.240 12.759 10.630 C 12.758 9.669,12.741 8.948,12.717 8.841 C 12.620 8.420,12.247 8.194,11.807 8.289 " stroke="none" fill-rule="evenodd" fill="black"></path></svg>