<svg width="24" height="24" viewBox="0 0 24 24" fill="none" xmlns="http://www.w3.org/2000/svg"><path d="M11.571 1.282 C 10.724 1.386,9.972 1.694,8.490 2.546 C 7.341 3.206,4.447 4.952,3.853 5.344 C 2.075 6.516,1.412 7.494,1.278 9.146 C 1.213 9.951,1.298 10.786,1.799 14.260 C 2.251 17.394,2.315 17.774,2.543 18.711 C 2.700 19.353,2.846 19.775,3.062 20.206 C 3.868 21.820,5.084 22.491,7.560 22.688 C 8.426 22.757,15.574 22.757,16.440 22.688 C 18.960 22.487,20.184 21.794,20.977 20.116 C 21.433 19.153,21.627 18.247,22.137 14.700 C 22.723 10.623,22.788 10.001,22.718 9.138 C 22.584 7.488,21.939 6.533,20.159 5.353 C 19.541 4.944,16.655 3.202,15.460 2.518 C 14.614 2.034,13.820 1.643,13.400 1.505 C 12.781 1.301,12.099 1.218,11.571 1.282 M12.612 2.838 C 13.396 3.038,14.021 3.374,17.520 5.471 C 19.496 6.656,20.186 7.146,20.641 7.687 C 21.067 8.195,21.196 8.584,21.228 9.460 C 21.254 10.202,21.194 10.768,20.777 13.679 C 20.279 17.162,20.032 18.492,19.754 19.197 C 19.242 20.493,18.491 20.981,16.720 21.167 C 16.340 21.207,15.206 21.220,12.000 21.220 C 8.794 21.220,7.660 21.207,7.280 21.167 C 5.510 20.981,4.758 20.493,4.247 19.199 C 3.965 18.486,3.725 17.192,3.223 13.679 C 2.806 10.768,2.746 10.202,2.772 9.460 C 2.804 8.584,2.933 8.195,3.359 7.687 C 3.670 7.318,4.039 7.015,4.760 6.539 C 5.658 5.946,8.809 4.065,9.903 3.467 C 11.111 2.808,11.837 2.640,12.612 2.838 M11.815 14.277 C 11.638 14.321,11.461 14.456,11.353 14.631 L 11.260 14.780 11.260 16.500 L 11.260 18.220 11.353 18.369 C 11.710 18.943,12.576 18.812,12.716 18.162 C 12.773 17.894,12.774 15.090,12.717 14.841 C 12.623 14.432,12.215 14.177,11.815 14.277 " stroke="none" fill-rule="evenodd" fill="black"></path></svg>