<svg width="24" height="24" viewBox="0 0 24 24" fill="none" xmlns="http://www.w3.org/2000/svg"><path d="M11.600 1.280 C 10.549 1.410,9.939 1.716,6.620 3.772 C 3.606 5.639,2.903 6.134,2.361 6.770 C 1.738 7.502,1.449 8.266,1.314 9.540 C 1.244 10.205,1.244 16.379,1.314 17.340 C 1.472 19.489,1.853 20.560,2.765 21.418 C 3.597 22.200,4.569 22.529,6.520 22.688 C 7.401 22.759,16.599 22.759,17.480 22.688 C 19.514 22.522,20.469 22.183,21.320 21.323 C 22.191 20.444,22.531 19.453,22.686 17.340 C 22.756 16.375,22.756 10.203,22.686 9.540 C 22.547 8.232,22.272 7.513,21.615 6.739 C 21.106 6.139,20.336 5.602,17.280 3.712 C 14.730 2.135,14.103 1.781,13.440 1.542 C 12.795 1.310,12.125 1.214,11.600 1.280 M12.666 2.863 C 13.151 3.003,13.668 3.262,14.680 3.869 C 15.935 4.622,18.443 6.185,19.161 6.661 C 20.693 7.676,21.069 8.238,21.197 9.703 C 21.251 10.316,21.253 16.372,21.199 17.180 C 21.087 18.871,20.842 19.679,20.262 20.264 C 19.865 20.665,19.362 20.905,18.600 21.056 C 17.813 21.211,17.468 21.220,12.000 21.220 C 7.905 21.220,6.586 21.208,6.200 21.167 C 3.885 20.924,3.128 20.188,2.854 17.911 C 2.801 17.474,2.787 16.753,2.772 13.840 C 2.754 10.239,2.772 9.537,2.902 8.977 C 3.124 8.021,3.543 7.520,4.839 6.661 C 6.340 5.666,9.949 3.465,10.580 3.159 C 11.424 2.750,11.996 2.669,12.666 2.863 M11.380 8.281 C 9.325 8.426,7.354 9.319,5.829 10.796 C 5.349 11.260,5.270 11.381,5.266 11.655 C 5.262 11.921,5.375 12.143,5.592 12.297 C 5.729 12.393,5.798 12.413,5.989 12.413 C 6.116 12.413,6.264 12.390,6.318 12.361 C 6.372 12.332,6.609 12.125,6.844 11.899 C 7.080 11.674,7.378 11.409,7.506 11.311 C 8.418 10.610,9.488 10.119,10.640 9.872 C 11.008 9.794,11.177 9.782,12.000 9.782 C 12.823 9.782,12.992 9.794,13.360 9.872 C 14.512 10.119,15.582 10.610,16.494 11.311 C 16.622 11.409,16.920 11.674,17.156 11.899 C 17.391 12.125,17.628 12.332,17.682 12.361 C 17.736 12.390,17.884 12.413,18.011 12.413 C 18.202 12.413,18.271 12.393,18.408 12.297 C 18.628 12.141,18.737 11.923,18.731 11.652 C 18.725 11.371,18.647 11.253,18.161 10.787 C 16.305 9.006,13.868 8.105,11.380 8.281 M11.080 11.381 C 9.732 11.611,8.451 12.279,7.576 13.206 C 7.314 13.485,7.269 13.572,7.267 13.818 C 7.261 14.328,7.697 14.677,8.186 14.554 C 8.330 14.518,8.443 14.440,8.700 14.198 C 9.144 13.779,9.466 13.548,9.930 13.315 C 11.300 12.627,12.700 12.627,14.070 13.315 C 14.534 13.548,14.856 13.779,15.300 14.198 C 15.557 14.440,15.670 14.518,15.814 14.554 C 16.306 14.678,16.741 14.327,16.731 13.813 C 16.725 13.562,16.686 13.484,16.424 13.206 C 15.537 12.265,14.253 11.603,12.880 11.377 C 12.464 11.309,11.490 11.311,11.080 11.381 M11.473 14.398 C 10.783 14.525,10.179 14.823,9.652 15.297 C 9.364 15.556,9.269 15.722,9.267 15.974 C 9.261 16.486,9.695 16.838,10.181 16.716 C 10.310 16.683,10.442 16.597,10.646 16.414 C 11.151 15.962,11.706 15.780,12.288 15.876 C 12.676 15.940,13.002 16.105,13.351 16.414 C 13.682 16.706,13.889 16.785,14.160 16.724 C 14.513 16.645,14.738 16.347,14.730 15.970 C 14.725 15.714,14.635 15.555,14.348 15.297 C 13.908 14.901,13.434 14.638,12.873 14.479 C 12.544 14.385,11.783 14.341,11.473 14.398 " stroke="none" fill-rule="evenodd" fill="black"></path></svg>