<svg width="24" height="24" viewBox="0 0 24 24" fill="none" xmlns="http://www.w3.org/2000/svg"><path d="M11.571 1.282 C 10.464 1.418,9.807 1.739,6.120 3.950 C 3.166 5.722,2.525 6.202,1.937 7.085 C 1.403 7.887,1.185 8.917,1.280 10.186 C 1.344 11.051,1.749 14.058,2.159 16.720 C 2.422 18.426,2.690 19.462,3.062 20.206 C 3.869 21.822,5.080 22.490,7.560 22.688 C 8.427 22.757,15.573 22.757,16.440 22.688 C 18.961 22.487,20.184 21.794,20.977 20.116 C 21.433 19.153,21.627 18.247,22.137 14.700 C 22.723 10.623,22.788 10.001,22.718 9.138 C 22.630 8.049,22.310 7.281,21.641 6.551 C 21.040 5.895,20.346 5.420,17.519 3.732 C 14.460 1.904,13.717 1.529,12.800 1.346 C 12.390 1.265,11.917 1.240,11.571 1.282 M12.612 2.838 C 13.396 3.038,14.026 3.377,17.520 5.472 C 20.148 7.047,20.779 7.572,21.072 8.426 C 21.353 9.243,21.315 9.923,20.777 13.680 C 20.277 17.174,20.032 18.493,19.754 19.197 C 19.242 20.493,18.491 20.981,16.720 21.167 C 16.340 21.207,15.206 21.220,12.000 21.220 C 8.794 21.220,7.660 21.207,7.280 21.167 C 5.510 20.981,4.758 20.493,4.247 19.199 C 3.965 18.486,3.725 17.192,3.223 13.679 C 2.806 10.768,2.746 10.202,2.772 9.460 C 2.804 8.584,2.933 8.195,3.359 7.687 C 3.670 7.318,4.039 7.015,4.760 6.539 C 5.658 5.946,8.809 4.065,9.903 3.467 C 11.111 2.808,11.837 2.640,12.612 2.838 M8.811 15.278 C 8.487 15.357,8.263 15.667,8.267 16.030 C 8.270 16.322,8.394 16.493,8.805 16.768 C 9.788 17.424,10.797 17.728,12.000 17.728 C 12.687 17.728,13.202 17.650,13.799 17.454 C 14.520 17.219,15.462 16.669,15.641 16.378 C 15.834 16.066,15.726 15.609,15.408 15.383 C 15.270 15.286,15.203 15.267,15.005 15.267 C 14.782 15.267,14.745 15.282,14.386 15.514 C 13.953 15.795,13.493 16.003,13.023 16.131 C 12.747 16.206,12.597 16.219,12.000 16.219 C 11.403 16.219,11.253 16.206,10.977 16.131 C 10.502 16.002,10.064 15.805,9.637 15.531 C 9.243 15.277,9.053 15.219,8.811 15.278 " stroke="none" fill-rule="evenodd" fill="black"></path></svg>