<svg width="24" height="24" viewBox="0 0 24 24" fill="none" xmlns="http://www.w3.org/2000/svg"><path d="M15.767 2.283 C 15.351 2.355,14.994 2.659,14.840 3.068 C 14.776 3.240,14.760 3.380,14.760 3.764 L 14.760 4.244 14.430 3.988 C 13.620 3.358,12.942 3.114,12.000 3.114 C 11.274 3.114,10.741 3.250,10.154 3.587 C 9.759 3.813,1.444 10.463,1.356 10.624 C 1.045 11.183,1.542 11.863,2.160 11.724 C 2.328 11.687,2.424 11.623,2.907 11.232 C 3.065 11.105,3.204 11.000,3.217 11.000 C 3.230 11.000,3.240 13.302,3.240 16.116 L 3.240 21.232 2.507 21.246 C 1.790 21.260,1.771 21.262,1.612 21.367 C 1.372 21.526,1.267 21.721,1.267 22.007 C 1.267 22.203,1.286 22.270,1.383 22.408 C 1.447 22.499,1.572 22.610,1.660 22.656 L 1.820 22.740 11.880 22.751 C 19.099 22.758,22.000 22.749,22.154 22.717 C 22.722 22.600,22.933 21.893,22.522 21.482 C 22.320 21.280,22.131 21.240,21.382 21.240 L 20.760 21.240 20.760 16.120 C 20.760 13.304,20.770 11.000,20.783 11.000 C 20.796 11.000,20.935 11.105,21.093 11.232 C 21.576 11.623,21.672 11.687,21.840 11.724 C 22.492 11.871,22.991 11.107,22.600 10.560 C 22.560 10.505,21.907 9.965,21.147 9.360 L 19.767 8.260 19.753 5.740 L 19.740 3.220 19.635 3.000 C 19.503 2.720,19.280 2.497,19.000 2.365 L 18.780 2.260 17.380 2.253 C 16.610 2.249,15.884 2.263,15.767 2.283 M18.240 5.380 C 18.240 6.271,18.231 7.000,18.219 7.000 C 18.208 7.000,17.758 6.647,17.219 6.216 L 16.240 5.432 16.240 4.596 L 16.240 3.760 17.240 3.760 L 18.240 3.760 18.240 5.380 M12.540 4.656 C 12.814 4.731,13.064 4.848,13.290 5.007 C 13.394 5.080,14.775 6.175,16.358 7.440 L 19.236 9.740 19.238 15.490 L 19.240 21.240 17.505 21.240 L 15.769 21.240 15.750 18.370 C 15.733 15.962,15.720 15.445,15.666 15.160 C 15.560 14.599,15.385 14.229,15.084 13.928 C 14.757 13.600,14.344 13.413,13.740 13.317 C 13.300 13.247,10.700 13.247,10.260 13.317 C 9.128 13.497,8.550 14.044,8.336 15.140 C 8.284 15.405,8.270 15.959,8.252 18.350 L 8.231 21.240 6.495 21.240 L 4.760 21.240 4.762 15.490 L 4.764 9.740 7.642 7.440 C 9.225 6.175,10.606 5.080,10.710 5.007 C 10.928 4.853,11.181 4.733,11.440 4.659 C 11.682 4.590,12.293 4.588,12.540 4.656 M11.387 6.825 C 10.598 6.994,9.900 7.552,9.540 8.300 C 9.334 8.727,9.270 9.013,9.270 9.500 C 9.270 9.987,9.334 10.273,9.540 10.700 C 9.906 11.461,10.602 12.010,11.414 12.177 C 11.974 12.293,12.625 12.232,13.110 12.017 C 13.675 11.767,14.187 11.269,14.460 10.700 C 14.666 10.273,14.730 9.987,14.730 9.500 C 14.730 9.013,14.666 8.727,14.460 8.300 C 14.187 7.731,13.675 7.233,13.110 6.983 C 12.629 6.770,11.938 6.707,11.387 6.825 M12.499 8.355 C 13.131 8.635,13.420 9.400,13.126 10.020 C 12.908 10.481,12.507 10.736,12.000 10.736 C 11.485 10.736,11.073 10.469,10.861 9.996 C 10.766 9.784,10.754 9.712,10.766 9.446 C 10.787 9.003,10.987 8.659,11.358 8.429 C 11.678 8.231,12.149 8.200,12.499 8.355 M13.775 14.836 C 13.971 14.900,14.099 15.027,14.165 15.225 C 14.205 15.344,14.220 16.054,14.230 18.310 L 14.243 21.240 12.002 21.240 L 9.760 21.240 9.760 18.470 C 9.760 16.752,9.776 15.603,9.802 15.445 C 9.875 14.994,9.986 14.876,10.408 14.803 C 10.733 14.747,13.585 14.775,13.775 14.836 " stroke="none" fill-rule="evenodd" fill="black"></path></svg>