<svg width="24" height="24" viewBox="0 0 24 24" fill="none" xmlns="http://www.w3.org/2000/svg"><path d="M11.571 1.282 C 10.464 1.418,9.807 1.739,6.120 3.950 C 3.166 5.722,2.525 6.202,1.937 7.085 C 1.403 7.887,1.185 8.917,1.280 10.186 C 1.344 11.051,1.749 14.058,2.159 16.720 C 2.422 18.426,2.690 19.462,3.062 20.206 C 3.869 21.822,5.080 22.490,7.560 22.688 C 8.427 22.757,15.573 22.757,16.440 22.688 C 18.961 22.487,20.184 21.794,20.977 20.116 C 21.433 19.153,21.627 18.247,22.137 14.700 C 22.723 10.623,22.788 10.001,22.718 9.138 C 22.630 8.049,22.310 7.281,21.641 6.551 C 21.040 5.895,20.346 5.420,17.519 3.732 C 14.460 1.904,13.717 1.529,12.800 1.346 C 12.390 1.265,11.917 1.240,11.571 1.282 M12.612 2.838 C 13.396 3.038,14.026 3.377,17.520 5.472 C 20.148 7.047,20.779 7.572,21.072 8.426 C 21.353 9.243,21.315 9.923,20.777 13.680 C 20.277 17.174,20.032 18.493,19.754 19.197 C 19.242 20.493,18.491 20.981,16.720 21.167 C 16.340 21.207,15.206 21.220,12.000 21.220 C 8.794 21.220,7.660 21.207,7.280 21.167 C 5.510 20.981,4.758 20.493,4.247 19.199 C 3.965 18.486,3.725 17.192,3.223 13.679 C 2.806 10.768,2.746 10.202,2.772 9.460 C 2.804 8.584,2.933 8.195,3.359 7.687 C 3.670 7.318,4.039 7.015,4.760 6.539 C 5.658 5.946,8.809 4.065,9.903 3.467 C 11.111 2.808,11.837 2.640,12.612 2.838 M11.380 8.281 C 9.325 8.426,7.354 9.319,5.829 10.796 C 5.349 11.260,5.270 11.381,5.266 11.655 C 5.262 11.921,5.375 12.143,5.592 12.297 C 5.729 12.393,5.798 12.413,5.989 12.413 C 6.116 12.413,6.264 12.390,6.318 12.361 C 6.372 12.332,6.609 12.125,6.844 11.899 C 7.080 11.674,7.378 11.409,7.506 11.311 C 8.418 10.610,9.488 10.119,10.640 9.872 C 11.008 9.794,11.177 9.782,12.000 9.782 C 12.823 9.782,12.992 9.794,13.360 9.872 C 14.512 10.119,15.582 10.610,16.494 11.311 C 16.622 11.409,16.920 11.674,17.156 11.899 C 17.391 12.125,17.628 12.332,17.682 12.361 C 17.736 12.390,17.884 12.413,18.011 12.413 C 18.202 12.413,18.271 12.393,18.408 12.297 C 18.628 12.141,18.737 11.923,18.731 11.652 C 18.725 11.371,18.647 11.253,18.161 10.787 C 16.305 9.006,13.868 8.105,11.380 8.281 M11.080 11.381 C 9.732 11.611,8.451 12.279,7.576 13.206 C 7.314 13.485,7.269 13.572,7.267 13.818 C 7.261 14.328,7.697 14.677,8.186 14.554 C 8.330 14.518,8.443 14.440,8.700 14.198 C 9.144 13.779,9.466 13.548,9.930 13.315 C 11.300 12.627,12.700 12.627,14.070 13.315 C 14.534 13.548,14.856 13.779,15.300 14.198 C 15.557 14.440,15.670 14.518,15.814 14.554 C 16.306 14.678,16.741 14.327,16.731 13.813 C 16.725 13.562,16.686 13.484,16.424 13.206 C 15.537 12.265,14.253 11.603,12.880 11.377 C 12.464 11.309,11.490 11.311,11.080 11.381 M11.473 14.398 C 10.783 14.525,10.179 14.823,9.652 15.297 C 9.364 15.556,9.269 15.722,9.267 15.974 C 9.261 16.486,9.695 16.838,10.181 16.716 C 10.310 16.683,10.442 16.597,10.646 16.414 C 11.151 15.962,11.706 15.780,12.288 15.876 C 12.676 15.940,13.002 16.105,13.351 16.414 C 13.682 16.706,13.889 16.785,14.160 16.724 C 14.513 16.645,14.738 16.347,14.730 15.970 C 14.725 15.714,14.635 15.555,14.348 15.297 C 13.908 14.901,13.434 14.638,12.873 14.479 C 12.544 14.385,11.783 14.341,11.473 14.398 " stroke="none" fill-rule="evenodd" fill="black"></path></svg>