<svg width="24" height="24" viewBox="0 0 24 24" fill="none" xmlns="http://www.w3.org/2000/svg"><path d="M11.600 1.280 C 10.549 1.410,9.939 1.716,6.620 3.772 C 3.606 5.639,2.903 6.134,2.361 6.770 C 1.738 7.502,1.449 8.266,1.314 9.540 C 1.244 10.205,1.244 16.379,1.314 17.340 C 1.472 19.489,1.853 20.560,2.765 21.418 C 3.597 22.200,4.569 22.529,6.520 22.688 C 7.401 22.759,16.599 22.759,17.480 22.688 C 19.514 22.522,20.469 22.183,21.320 21.323 C 22.191 20.444,22.531 19.453,22.686 17.340 C 22.756 16.375,22.756 10.203,22.686 9.540 C 22.547 8.232,22.272 7.513,21.615 6.739 C 21.106 6.139,20.336 5.602,17.280 3.712 C 14.730 2.135,14.103 1.781,13.440 1.542 C 12.795 1.310,12.125 1.214,11.600 1.280 M12.666 2.863 C 13.151 3.003,13.668 3.262,14.680 3.869 C 15.935 4.622,18.443 6.185,19.161 6.661 C 20.693 7.676,21.069 8.238,21.197 9.703 C 21.251 10.316,21.253 16.372,21.199 17.180 C 21.087 18.871,20.842 19.679,20.262 20.264 C 19.865 20.665,19.362 20.905,18.600 21.056 C 17.813 21.211,17.468 21.220,12.000 21.220 C 7.905 21.220,6.586 21.208,6.200 21.167 C 3.885 20.924,3.128 20.188,2.854 17.911 C 2.801 17.474,2.787 16.753,2.772 13.840 C 2.754 10.239,2.772 9.537,2.902 8.977 C 3.124 8.021,3.543 7.520,4.839 6.661 C 6.340 5.666,9.949 3.465,10.580 3.159 C 11.424 2.750,11.996 2.669,12.666 2.863 M11.815 10.277 C 11.638 10.321,11.461 10.456,11.353 10.631 C 11.262 10.777,11.260 10.804,11.247 12.007 L 11.235 13.235 10.004 13.247 L 8.774 13.260 8.612 13.367 C 8.372 13.526,8.267 13.721,8.267 14.007 C 8.267 14.203,8.286 14.270,8.383 14.408 C 8.610 14.729,8.656 14.738,10.027 14.753 L 11.235 14.765 11.247 15.993 C 11.260 17.196,11.262 17.223,11.353 17.369 C 11.710 17.943,12.576 17.812,12.716 17.162 C 12.742 17.040,12.760 16.509,12.760 15.858 L 12.760 14.760 13.858 14.760 C 15.144 14.760,15.303 14.737,15.520 14.520 C 15.918 14.122,15.730 13.423,15.189 13.286 C 15.071 13.257,14.600 13.240,13.882 13.240 L 12.760 13.240 12.759 12.130 C 12.758 10.954,12.734 10.738,12.580 10.536 C 12.421 10.327,12.078 10.211,11.815 10.277 " stroke="none" fill-rule="evenodd" fill="black"></path></svg>