<svg width="24" height="24" viewBox="0 0 24 24" fill="none" xmlns="http://www.w3.org/2000/svg"><path d="M11.596 1.280 C 10.549 1.409,9.968 1.700,6.620 3.772 C 3.610 5.636,2.903 6.134,2.361 6.770 C 1.738 7.502,1.449 8.266,1.314 9.540 C 1.244 10.205,1.244 16.379,1.314 17.340 C 1.469 19.454,1.809 20.444,2.680 21.323 C 3.522 22.173,4.497 22.524,6.460 22.683 C 7.248 22.746,14.339 22.777,16.160 22.724 C 17.720 22.679,18.381 22.624,19.060 22.482 C 20.616 22.157,21.642 21.342,22.195 19.992 C 22.445 19.381,22.596 18.562,22.686 17.340 C 22.756 16.377,22.756 10.203,22.686 9.540 C 22.551 8.266,22.262 7.501,21.639 6.770 C 21.097 6.134,20.394 5.639,17.380 3.772 C 14.864 2.214,14.138 1.801,13.460 1.547 C 12.849 1.318,12.127 1.214,11.596 1.280 M12.666 2.863 C 13.151 3.003,13.668 3.262,14.680 3.869 C 15.935 4.622,18.443 6.185,19.161 6.661 C 20.693 7.676,21.069 8.238,21.197 9.703 C 21.251 10.316,21.253 16.372,21.199 17.180 C 21.087 18.871,20.842 19.679,20.262 20.264 C 19.865 20.665,19.362 20.905,18.600 21.056 C 17.813 21.211,17.468 21.220,12.000 21.220 C 7.905 21.220,6.586 21.208,6.200 21.167 C 3.885 20.924,3.128 20.188,2.854 17.911 C 2.801 17.474,2.787 16.753,2.772 13.840 C 2.754 10.263,2.773 9.525,2.899 8.980 C 3.119 8.029,3.546 7.519,4.839 6.661 C 5.527 6.205,8.007 4.658,9.280 3.891 C 11.092 2.799,11.754 2.599,12.666 2.863 M8.811 15.278 C 8.487 15.357,8.263 15.667,8.267 16.030 C 8.270 16.322,8.394 16.493,8.805 16.768 C 9.788 17.424,10.797 17.728,12.000 17.728 C 12.687 17.728,13.202 17.650,13.799 17.454 C 14.520 17.219,15.462 16.669,15.641 16.378 C 15.834 16.066,15.726 15.609,15.408 15.383 C 15.270 15.286,15.203 15.267,15.005 15.267 C 14.782 15.267,14.745 15.282,14.386 15.514 C 13.953 15.795,13.493 16.003,13.023 16.131 C 12.747 16.206,12.597 16.219,12.000 16.219 C 11.403 16.219,11.253 16.206,10.977 16.131 C 10.502 16.002,10.064 15.805,9.637 15.531 C 9.243 15.277,9.053 15.219,8.811 15.278 " stroke="none" fill-rule="evenodd" fill="black"></path></svg>