<svg width="24" height="24" viewBox="0 0 24 24" fill="none" xmlns="http://www.w3.org/2000/svg"><path d="M9.240 1.282 C 7.681 1.321,6.861 1.412,6.152 1.623 C 5.231 1.897,4.641 2.426,4.382 3.207 C 4.110 4.033,4.320 4.871,5.057 5.896 C 5.572 6.613,6.223 7.309,8.553 9.630 L 10.931 12.001 8.553 14.370 C 5.704 17.208,5.091 17.900,4.624 18.800 C 4.362 19.307,4.274 19.627,4.274 20.082 C 4.274 21.230,5.012 22.084,6.291 22.417 C 7.328 22.686,8.201 22.735,12.000 22.735 C 15.799 22.735,16.672 22.686,17.709 22.417 C 18.706 22.158,19.346 21.613,19.617 20.794 C 19.889 19.970,19.678 19.125,18.943 18.104 C 18.428 17.386,17.776 16.691,15.447 14.370 L 13.068 12.001 15.447 9.630 C 18.296 6.791,18.909 6.100,19.376 5.200 C 19.719 4.537,19.819 3.883,19.660 3.331 C 19.319 2.153,18.404 1.583,16.520 1.378 C 15.445 1.260,11.921 1.214,9.240 1.282 M15.640 2.802 C 17.225 2.901,17.959 3.125,18.162 3.572 C 18.426 4.154,18.031 4.823,16.400 6.555 C 15.692 7.306,12.053 10.900,12.000 10.900 C 11.946 10.900,8.308 7.306,7.600 6.555 C 5.969 4.823,5.574 4.154,5.838 3.572 C 6.035 3.138,6.797 2.897,8.260 2.804 C 9.031 2.756,14.870 2.754,15.640 2.802 M9.720 4.805 C 9.458 4.909,9.269 5.200,9.269 5.500 C 9.269 5.807,9.460 6.095,9.733 6.197 C 9.807 6.226,10.575 6.240,12.000 6.240 C 13.425 6.240,14.193 6.226,14.267 6.197 C 14.540 6.095,14.731 5.807,14.731 5.500 C 14.731 5.193,14.540 4.905,14.267 4.803 C 14.119 4.746,9.862 4.748,9.720 4.805 M14.287 15.330 C 16.592 17.620,17.141 18.199,17.661 18.887 C 18.492 19.988,18.423 20.627,17.440 20.938 C 16.649 21.188,15.712 21.240,12.000 21.240 C 10.361 21.240,8.723 21.221,8.360 21.198 C 6.753 21.098,6.037 20.875,5.832 20.411 C 5.612 19.915,5.931 19.289,7.040 18.040 C 7.422 17.609,11.951 13.080,12.000 13.080 C 12.012 13.080,13.041 14.093,14.287 15.330 M9.720 17.805 C 9.458 17.909,9.269 18.200,9.269 18.500 C 9.269 18.807,9.460 19.095,9.733 19.197 C 9.807 19.226,10.575 19.240,12.000 19.240 C 13.425 19.240,14.193 19.226,14.267 19.197 C 14.540 19.095,14.731 18.807,14.731 18.500 C 14.731 18.193,14.540 17.905,14.267 17.803 C 14.119 17.746,9.862 17.748,9.720 17.805 " stroke="none" fill-rule="evenodd" fill="black"></path></svg>