<svg width="24" height="24" viewBox="0 0 24 24" fill="none" xmlns="http://www.w3.org/2000/svg"><path d="M11.815 3.277 C 11.638 3.321,11.461 3.456,11.353 3.631 L 11.260 3.780 11.240 7.970 L 11.220 12.161 10.360 11.298 C 9.887 10.824,9.439 10.398,9.364 10.351 C 9.267 10.291,9.164 10.267,9.000 10.267 C 8.723 10.267,8.525 10.374,8.371 10.607 C 8.234 10.814,8.225 11.162,8.351 11.364 C 8.398 11.439,9.152 12.214,10.028 13.086 C 11.544 14.596,11.629 14.673,11.810 14.711 C 11.935 14.737,12.065 14.737,12.190 14.711 C 12.371 14.673,12.456 14.596,13.989 13.068 C 14.879 12.181,15.628 11.402,15.664 11.326 C 15.753 11.139,15.747 10.837,15.651 10.651 C 15.608 10.568,15.499 10.447,15.408 10.383 C 15.271 10.287,15.202 10.267,15.011 10.267 C 14.884 10.267,14.735 10.290,14.680 10.318 C 14.625 10.347,14.171 10.777,13.670 11.274 L 12.760 12.178 12.759 8.099 C 12.758 5.441,12.744 3.958,12.717 3.841 C 12.623 3.432,12.215 3.177,11.815 3.277 M3.815 11.278 C 3.639 11.320,3.462 11.455,3.353 11.631 C 3.266 11.770,3.261 11.815,3.271 12.300 C 3.311 14.217,4.054 16.140,5.349 17.680 C 6.683 19.266,8.641 20.341,10.780 20.661 C 11.376 20.751,12.624 20.751,13.220 20.661 C 14.802 20.424,16.246 19.798,17.484 18.811 C 18.913 17.672,19.997 15.997,20.461 14.213 C 20.672 13.399,20.797 12.220,20.713 11.826 C 20.607 11.327,19.989 11.095,19.566 11.396 C 19.321 11.570,19.274 11.707,19.237 12.352 C 19.132 14.208,18.415 15.821,17.118 17.118 C 16.078 18.158,14.816 18.832,13.353 19.128 C 12.960 19.208,12.780 19.220,12.000 19.220 C 11.216 19.220,11.041 19.208,10.640 19.127 C 9.183 18.832,7.922 18.158,6.882 17.118 C 5.591 15.827,4.872 14.220,4.763 12.376 C 4.725 11.749,4.672 11.578,4.464 11.422 C 4.350 11.336,4.076 11.235,3.980 11.244 C 3.958 11.246,3.884 11.262,3.815 11.278 " stroke="none" fill-rule="evenodd" fill="black"></path></svg>