<svg width="24" height="24" viewBox="0 0 24 24" fill="none" xmlns="http://www.w3.org/2000/svg"><path d="M9.020 1.278 C 7.735 1.310,7.475 1.326,6.649 1.423 C 4.782 1.643,3.569 2.183,2.728 3.171 C 1.841 4.212,1.475 5.425,1.314 7.860 C 1.249 8.841,1.249 15.159,1.314 16.140 C 1.431 17.905,1.649 18.970,2.068 19.825 C 2.756 21.228,3.977 22.098,5.734 22.437 C 7.035 22.688,7.988 22.733,12.000 22.733 C 16.012 22.733,16.965 22.688,18.266 22.437 C 20.599 21.987,21.987 20.599,22.437 18.266 C 22.688 16.968,22.732 16.015,22.733 12.000 C 22.733 7.987,22.688 7.034,22.437 5.734 C 22.098 3.977,21.228 2.756,19.825 2.068 C 18.972 1.650,17.855 1.421,16.180 1.321 C 15.276 1.267,10.579 1.239,9.020 1.278 M16.600 2.836 C 18.439 3.019,19.320 3.320,20.000 4.000 C 20.680 4.681,20.991 5.589,21.162 7.400 C 21.186 7.653,21.216 8.843,21.228 10.045 L 21.250 12.229 19.415 12.252 C 17.347 12.277,17.243 12.289,16.687 12.563 C 16.269 12.769,15.900 13.126,14.913 14.280 C 14.117 15.209,13.813 15.531,13.643 15.619 C 13.442 15.722,13.019 15.758,12.000 15.758 C 10.981 15.758,10.558 15.722,10.357 15.619 C 10.180 15.527,9.906 15.237,8.969 14.151 C 8.501 13.608,8.006 13.065,7.869 12.942 C 7.592 12.695,7.214 12.481,6.880 12.383 C 6.550 12.286,5.697 12.241,4.145 12.241 L 2.750 12.240 2.772 10.030 C 2.794 7.784,2.829 7.153,2.982 6.251 C 3.228 4.804,3.800 3.923,4.820 3.421 C 5.541 3.067,6.445 2.891,8.002 2.802 C 8.872 2.752,16.044 2.780,16.600 2.836 M6.566 13.846 C 6.790 13.948,6.991 14.150,7.775 15.059 C 9.042 16.528,9.203 16.686,9.681 16.938 C 10.188 17.204,10.319 17.220,12.000 17.220 C 13.639 17.220,13.800 17.202,14.250 16.975 C 14.760 16.718,14.934 16.551,16.089 15.213 C 16.561 14.667,17.024 14.151,17.118 14.066 C 17.445 13.772,17.371 13.781,19.410 13.768 L 21.240 13.756 21.239 14.468 C 21.238 15.674,21.149 16.980,21.016 17.760 C 20.680 19.727,19.724 20.679,17.740 21.020 C 16.654 21.207,16.320 21.218,12.040 21.219 C 9.047 21.220,7.843 21.207,7.460 21.169 C 5.552 20.982,4.695 20.692,3.999 19.997 C 3.143 19.140,2.834 17.867,2.772 14.948 L 2.747 13.756 4.584 13.768 C 6.189 13.779,6.438 13.788,6.566 13.846 " stroke="none" fill-rule="evenodd" fill="black"></path></svg>