<svg width="24" height="24" viewBox="0 0 24 24" fill="none" xmlns="http://www.w3.org/2000/svg"><path d="M11.800 1.289 C 11.632 1.325,11.511 1.435,10.028 2.914 C 9.152 3.786,8.398 4.561,8.351 4.636 C 8.232 4.826,8.235 5.177,8.356 5.374 C 8.538 5.668,8.854 5.797,9.191 5.714 C 9.363 5.672,9.464 5.585,10.309 4.747 L 11.238 3.826 11.249 7.023 L 11.260 10.220 11.353 10.369 C 11.713 10.949,12.575 10.818,12.716 10.162 C 12.746 10.022,12.760 8.978,12.760 6.890 L 12.760 3.824 13.690 4.749 C 14.351 5.405,14.655 5.681,14.740 5.701 C 14.806 5.715,14.890 5.735,14.926 5.745 C 14.963 5.755,15.078 5.741,15.183 5.715 C 15.577 5.616,15.799 5.235,15.711 4.810 C 15.673 4.629,15.596 4.544,14.068 3.011 C 13.185 2.126,12.409 1.376,12.342 1.346 C 12.162 1.264,12.002 1.247,11.800 1.289 M6.300 1.463 C 5.383 1.604,4.726 1.794,4.140 2.088 C 2.743 2.789,1.902 3.984,1.559 5.756 C 1.311 7.032,1.267 7.991,1.267 12.000 C 1.267 16.027,1.311 16.958,1.563 18.266 C 2.013 20.599,3.401 21.987,5.734 22.437 C 7.035 22.688,7.988 22.733,12.000 22.733 C 16.012 22.733,16.965 22.688,18.266 22.437 C 20.599 21.987,21.987 20.599,22.437 18.266 C 22.688 16.968,22.732 16.015,22.733 12.000 C 22.733 8.005,22.687 7.025,22.441 5.756 C 22.051 3.744,21.000 2.452,19.240 1.821 C 18.679 1.620,17.515 1.400,17.013 1.400 C 16.565 1.400,16.266 1.699,16.264 2.149 C 16.263 2.316,16.286 2.390,16.382 2.527 C 16.554 2.771,16.687 2.832,17.191 2.899 C 18.780 3.108,19.643 3.498,20.245 4.278 C 21.015 5.276,21.237 6.671,21.239 10.525 L 21.240 12.229 19.410 12.252 C 17.348 12.277,17.243 12.289,16.687 12.563 C 16.269 12.769,15.900 13.126,14.913 14.280 C 14.117 15.209,13.813 15.531,13.643 15.619 C 13.442 15.722,13.019 15.758,12.000 15.758 C 10.981 15.758,10.558 15.722,10.357 15.619 C 10.180 15.527,9.906 15.237,8.969 14.151 C 8.501 13.608,8.006 13.065,7.869 12.942 C 7.592 12.695,7.214 12.481,6.880 12.383 C 6.550 12.286,5.697 12.241,4.145 12.241 L 2.750 12.240 2.772 10.030 C 2.794 7.784,2.829 7.153,2.982 6.251 C 3.176 5.114,3.593 4.291,4.229 3.792 C 4.849 3.307,5.545 3.065,6.809 2.899 C 7.067 2.865,7.304 2.810,7.375 2.768 C 7.842 2.496,7.858 1.802,7.405 1.515 C 7.248 1.415,7.188 1.401,6.942 1.404 C 6.787 1.406,6.498 1.433,6.300 1.463 M6.566 13.846 C 6.790 13.948,6.991 14.150,7.775 15.059 C 9.042 16.528,9.203 16.686,9.681 16.938 C 10.188 17.204,10.319 17.220,12.000 17.220 C 13.639 17.220,13.800 17.202,14.250 16.975 C 14.760 16.718,14.934 16.551,16.089 15.213 C 16.561 14.667,17.024 14.151,17.118 14.066 C 17.445 13.772,17.371 13.781,19.410 13.768 L 21.240 13.756 21.239 14.468 C 21.238 15.674,21.149 16.980,21.016 17.760 C 20.680 19.727,19.724 20.679,17.740 21.020 C 16.654 21.207,16.320 21.218,12.040 21.219 C 9.047 21.220,7.843 21.207,7.460 21.169 C 5.552 20.982,4.695 20.692,3.999 19.997 C 3.143 19.140,2.834 17.867,2.772 14.948 L 2.747 13.756 4.584 13.768 C 6.189 13.779,6.438 13.788,6.566 13.846 " stroke="none" fill-rule="evenodd" fill="black"></path></svg>