<svg width="24" height="24" viewBox="0 0 24 24" fill="none" xmlns="http://www.w3.org/2000/svg"><path d="M11.826 1.286 C 11.625 1.331,11.468 1.445,11.353 1.631 L 11.260 1.780 11.249 4.977 L 11.238 8.174 10.309 7.252 C 9.441 6.390,9.367 6.327,9.189 6.289 C 8.841 6.216,8.532 6.341,8.356 6.626 C 8.235 6.823,8.232 7.174,8.351 7.364 C 8.398 7.439,9.152 8.214,10.028 9.087 C 11.143 10.199,11.656 10.684,11.740 10.706 C 11.929 10.755,12.168 10.739,12.322 10.666 C 12.403 10.627,13.150 9.910,14.068 8.989 C 15.596 7.456,15.673 7.371,15.711 7.190 C 15.831 6.610,15.389 6.168,14.810 6.290 C 14.633 6.327,14.557 6.392,13.690 7.253 L 12.760 8.176 12.759 5.098 C 12.758 3.128,12.743 1.956,12.717 1.841 C 12.622 1.428,12.243 1.192,11.826 1.286 M6.300 1.463 C 5.383 1.604,4.726 1.794,4.140 2.088 C 2.743 2.789,1.902 3.984,1.559 5.756 C 1.311 7.032,1.267 7.991,1.267 12.000 C 1.267 16.027,1.311 16.958,1.563 18.266 C 2.013 20.599,3.401 21.987,5.734 22.437 C 7.042 22.689,7.973 22.733,12.000 22.733 C 16.027 22.733,16.958 22.689,18.266 22.437 C 20.599 21.987,21.987 20.599,22.437 18.266 C 22.688 16.968,22.732 16.015,22.733 12.000 C 22.733 8.005,22.687 7.025,22.441 5.756 C 22.000 3.480,20.714 2.122,18.529 1.623 C 17.982 1.498,17.316 1.400,17.013 1.400 C 16.565 1.400,16.266 1.699,16.264 2.149 C 16.263 2.316,16.286 2.390,16.382 2.527 C 16.554 2.771,16.687 2.832,17.191 2.899 C 18.780 3.108,19.643 3.498,20.245 4.278 C 21.015 5.276,21.237 6.671,21.239 10.525 L 21.240 12.229 19.410 12.252 C 17.348 12.277,17.243 12.289,16.687 12.563 C 16.269 12.769,15.900 13.126,14.913 14.280 C 14.117 15.209,13.813 15.531,13.643 15.619 C 13.442 15.722,13.019 15.758,12.000 15.758 C 10.981 15.758,10.558 15.722,10.357 15.619 C 10.180 15.527,9.906 15.237,8.969 14.151 C 8.501 13.608,8.006 13.065,7.869 12.942 C 7.592 12.695,7.214 12.481,6.880 12.383 C 6.550 12.286,5.697 12.241,4.145 12.241 L 2.750 12.240 2.772 10.030 C 2.794 7.784,2.829 7.153,2.982 6.251 C 3.176 5.114,3.593 4.291,4.229 3.792 C 4.849 3.307,5.545 3.065,6.809 2.899 C 7.067 2.865,7.304 2.810,7.375 2.768 C 7.842 2.496,7.858 1.802,7.405 1.515 C 7.248 1.415,7.188 1.401,6.942 1.404 C 6.787 1.406,6.498 1.433,6.300 1.463 M6.566 13.846 C 6.790 13.948,6.991 14.150,7.775 15.059 C 9.042 16.528,9.203 16.686,9.681 16.938 C 10.188 17.204,10.319 17.220,12.000 17.220 C 13.639 17.220,13.800 17.202,14.250 16.975 C 14.760 16.718,14.934 16.551,16.089 15.213 C 16.561 14.667,17.024 14.151,17.118 14.066 C 17.445 13.772,17.370 13.781,19.416 13.768 L 21.253 13.756 21.227 14.928 C 21.161 17.937,20.863 19.145,19.966 20.031 C 19.337 20.654,18.428 20.975,16.820 21.144 C 16.288 21.199,15.577 21.214,12.620 21.229 C 8.983 21.248,7.792 21.221,6.791 21.097 C 5.429 20.929,4.608 20.605,4.001 19.999 C 3.143 19.140,2.834 17.870,2.772 14.948 L 2.747 13.756 4.584 13.768 C 6.189 13.779,6.438 13.788,6.566 13.846 " stroke="none" fill-rule="evenodd" fill="black"></path></svg>