<svg width="24" height="24" viewBox="0 0 24 24" fill="none" xmlns="http://www.w3.org/2000/svg"><path d="M9.020 1.280 C 7.737 1.310,7.478 1.326,6.649 1.423 C 4.782 1.643,3.569 2.183,2.728 3.171 C 1.841 4.212,1.475 5.425,1.314 7.860 C 1.249 8.841,1.249 15.159,1.314 16.140 C 1.431 17.905,1.649 18.970,2.068 19.825 C 2.756 21.228,3.977 22.098,5.734 22.437 C 7.035 22.688,7.988 22.733,12.000 22.733 C 16.012 22.733,16.965 22.688,18.266 22.437 C 20.599 21.987,21.987 20.599,22.437 18.267 C 22.671 17.056,22.726 15.990,22.734 12.580 L 22.740 9.820 22.651 9.653 C 22.435 9.249,21.907 9.137,21.539 9.418 C 21.264 9.628,21.261 9.643,21.248 11.005 L 21.236 12.229 19.408 12.252 C 17.348 12.277,17.242 12.289,16.687 12.563 C 16.269 12.769,15.900 13.126,14.913 14.280 C 14.117 15.209,13.813 15.531,13.643 15.619 C 13.442 15.722,13.019 15.758,12.000 15.758 C 10.981 15.758,10.558 15.722,10.357 15.619 C 10.180 15.527,9.906 15.237,8.969 14.151 C 8.501 13.608,8.006 13.065,7.869 12.942 C 7.592 12.695,7.214 12.481,6.880 12.383 C 6.550 12.286,5.697 12.241,4.145 12.241 L 2.750 12.240 2.772 10.030 C 2.794 7.784,2.829 7.153,2.982 6.251 C 3.159 5.213,3.478 4.516,4.023 3.979 C 4.701 3.310,5.591 3.011,7.420 2.836 C 7.704 2.808,9.191 2.780,11.060 2.765 C 14.579 2.737,14.357 2.756,14.582 2.461 C 14.720 2.280,14.766 2.067,14.716 1.844 C 14.664 1.611,14.550 1.458,14.347 1.349 C 14.181 1.261,14.166 1.260,12.220 1.255 C 11.142 1.253,9.702 1.264,9.020 1.280 M18.740 1.266 C 17.415 1.385,16.327 2.085,15.719 3.212 C 15.400 3.803,15.271 4.320,15.271 5.000 C 15.271 5.682,15.400 6.197,15.721 6.792 C 16.078 7.453,16.549 7.923,17.212 8.281 C 17.803 8.600,18.320 8.729,19.000 8.729 C 19.680 8.729,20.197 8.600,20.788 8.281 C 21.451 7.923,21.922 7.453,22.279 6.792 C 22.600 6.197,22.729 5.682,22.729 5.000 C 22.729 4.320,22.600 3.803,22.281 3.212 C 21.832 2.381,21.122 1.779,20.215 1.463 C 19.793 1.316,19.149 1.230,18.740 1.266 M19.578 2.821 C 19.949 2.918,20.274 3.112,20.581 3.419 C 21.041 3.879,21.240 4.356,21.240 5.000 C 21.240 5.644,21.041 6.121,20.581 6.581 C 20.121 7.041,19.644 7.240,19.000 7.240 C 18.356 7.240,17.879 7.041,17.419 6.581 C 16.959 6.121,16.760 5.644,16.760 5.000 C 16.760 4.356,16.959 3.879,17.419 3.419 C 17.719 3.118,18.050 2.919,18.404 2.823 C 18.692 2.746,19.285 2.745,19.578 2.821 M6.566 13.846 C 6.790 13.948,6.991 14.150,7.775 15.059 C 9.042 16.528,9.203 16.686,9.681 16.938 C 10.188 17.204,10.319 17.220,12.000 17.220 C 13.639 17.220,13.800 17.202,14.250 16.975 C 14.760 16.718,14.934 16.551,16.089 15.213 C 16.561 14.667,17.024 14.151,17.118 14.066 C 17.445 13.772,17.371 13.781,19.410 13.768 L 21.240 13.756 21.239 14.468 C 21.238 15.674,21.149 16.980,21.016 17.760 C 20.680 19.727,19.724 20.679,17.740 21.020 C 16.654 21.207,16.320 21.218,12.040 21.219 C 9.047 21.220,7.843 21.207,7.460 21.169 C 5.552 20.982,4.695 20.692,3.999 19.997 C 3.143 19.140,2.834 17.867,2.772 14.948 L 2.747 13.756 4.584 13.768 C 6.189 13.779,6.438 13.788,6.566 13.846 " stroke="none" fill-rule="evenodd" fill="black"></path></svg>