<svg width="24" height="24" viewBox="0 0 24 24" fill="none" xmlns="http://www.w3.org/2000/svg"><path d="M9.020 1.278 C 7.735 1.310,7.475 1.326,6.649 1.423 C 4.782 1.643,3.569 2.183,2.728 3.171 C 1.841 4.212,1.475 5.425,1.314 7.860 C 1.249 8.841,1.249 15.159,1.314 16.140 C 1.431 17.905,1.649 18.970,2.068 19.825 C 2.756 21.228,3.977 22.098,5.734 22.437 C 7.035 22.688,7.988 22.733,12.000 22.733 C 16.012 22.733,16.965 22.688,18.266 22.437 C 20.599 21.987,21.987 20.599,22.437 18.266 C 22.688 16.968,22.732 16.015,22.733 12.000 C 22.733 7.987,22.688 7.034,22.437 5.734 C 22.098 3.977,21.228 2.756,19.825 2.068 C 18.972 1.650,17.855 1.421,16.180 1.321 C 15.276 1.267,10.579 1.239,9.020 1.278 M16.600 2.836 C 18.439 3.019,19.320 3.320,20.000 4.000 C 20.680 4.680,20.982 5.564,21.164 7.400 C 21.192 7.686,21.217 9.195,21.229 11.380 C 21.251 15.485,21.215 16.565,21.019 17.740 C 20.687 19.721,19.731 20.677,17.740 21.020 C 16.654 21.207,16.320 21.218,12.040 21.219 C 7.880 21.220,7.593 21.212,6.500 21.055 C 4.391 20.754,3.409 19.877,3.021 17.947 C 2.796 16.825,2.780 16.431,2.781 11.980 C 2.782 7.664,2.793 7.353,2.984 6.240 C 3.231 4.800,3.803 3.921,4.820 3.421 C 5.541 3.067,6.445 2.891,8.002 2.802 C 8.872 2.752,16.044 2.780,16.600 2.836 M6.180 5.281 C 5.338 5.394,4.643 5.986,4.350 6.840 L 4.261 7.100 4.249 10.661 L 4.237 14.223 3.962 14.266 C 3.499 14.339,3.267 14.584,3.267 15.000 C 3.267 15.278,3.374 15.475,3.612 15.633 L 3.774 15.740 5.617 15.760 C 7.275 15.778,7.476 15.787,7.620 15.852 C 7.727 15.899,8.085 16.233,8.700 16.858 C 9.584 17.755,9.633 17.799,9.960 17.955 C 10.492 18.209,10.835 18.252,12.120 18.229 C 13.301 18.207,13.465 18.180,13.920 17.932 C 14.298 17.726,14.415 17.626,15.308 16.750 C 15.883 16.187,16.172 15.932,16.308 15.869 C 16.495 15.782,16.547 15.779,18.340 15.760 C 20.041 15.742,20.192 15.734,20.332 15.664 C 20.943 15.361,20.828 14.427,20.162 14.284 C 20.049 14.260,19.913 14.240,19.860 14.240 L 19.764 14.240 19.751 10.670 C 19.739 7.348,19.733 7.085,19.665 6.880 C 19.417 6.130,18.873 5.585,18.120 5.334 C 17.911 5.265,17.612 5.261,12.160 5.255 C 9.003 5.252,6.312 5.263,6.180 5.281 M17.840 6.834 C 17.916 6.875,18.032 6.976,18.099 7.058 C 18.220 7.207,18.220 7.209,18.233 7.789 L 18.246 8.370 18.133 8.341 C 17.801 8.255,17.047 8.243,12.000 8.243 C 6.953 8.243,6.199 8.255,5.867 8.341 L 5.754 8.370 5.767 7.789 C 5.780 7.209,5.780 7.207,5.901 7.058 C 5.968 6.976,6.084 6.875,6.160 6.834 C 6.293 6.763,6.523 6.760,12.000 6.760 C 17.477 6.760,17.707 6.763,17.840 6.834 M17.840 9.834 C 17.916 9.875,18.032 9.976,18.099 10.058 C 18.220 10.207,18.220 10.209,18.233 10.789 L 18.246 11.370 18.133 11.341 C 17.801 11.255,17.047 11.243,12.000 11.243 C 6.953 11.243,6.199 11.255,5.867 11.341 L 5.754 11.370 5.767 10.789 C 5.780 10.209,5.780 10.207,5.901 10.058 C 5.968 9.976,6.084 9.875,6.160 9.834 C 6.293 9.763,6.523 9.760,12.000 9.760 C 17.477 9.760,17.707 9.763,17.840 9.834 M17.840 12.834 C 17.916 12.875,18.032 12.976,18.099 13.058 C 18.218 13.204,18.220 13.217,18.233 13.724 L 18.246 14.240 17.733 14.241 C 16.889 14.243,16.256 14.303,15.933 14.413 C 15.479 14.567,15.129 14.832,14.255 15.686 C 13.812 16.118,13.379 16.519,13.292 16.577 C 13.174 16.655,13.045 16.692,12.777 16.725 C 12.344 16.779,10.970 16.746,10.740 16.676 C 10.611 16.636,10.399 16.445,9.660 15.699 C 8.674 14.704,8.484 14.558,7.980 14.401 C 7.667 14.304,7.008 14.243,6.247 14.241 L 5.754 14.240 5.767 13.724 C 5.780 13.217,5.782 13.204,5.901 13.058 C 5.968 12.976,6.084 12.875,6.160 12.834 C 6.293 12.763,6.523 12.760,12.000 12.760 C 17.477 12.760,17.707 12.763,17.840 12.834 " stroke="none" fill-rule="evenodd" fill="black"></path></svg>