<svg width="24" height="24" viewBox="0 0 24 24" fill="none" xmlns="http://www.w3.org/2000/svg"><path d="M7.339 3.281 C 6.084 3.413,4.951 4.204,4.068 5.564 C 3.386 6.614,3.183 7.475,3.280 8.911 C 3.464 11.634,4.638 14.186,6.745 16.443 C 8.999 18.859,11.611 20.290,14.443 20.663 C 15.153 20.756,16.280 20.756,16.720 20.663 C 17.345 20.530,17.838 20.321,18.436 19.932 C 20.068 18.872,20.848 17.506,20.716 15.936 C 20.622 14.830,20.047 13.915,19.079 13.336 C 18.394 12.927,17.612 12.519,17.323 12.421 C 16.951 12.295,16.387 12.223,16.019 12.256 C 15.159 12.334,14.461 12.645,13.706 13.289 C 13.561 13.413,13.536 13.420,13.246 13.418 C 12.887 13.415,12.633 13.316,12.205 13.011 C 11.865 12.769,11.231 12.136,10.989 11.795 C 10.679 11.360,10.581 11.111,10.581 10.754 C 10.580 10.465,10.588 10.439,10.711 10.294 C 11.034 9.915,11.224 9.634,11.385 9.298 C 11.790 8.450,11.860 7.501,11.580 6.672 C 11.488 6.399,11.068 5.596,10.664 4.921 C 10.099 3.978,9.226 3.414,8.121 3.281 C 7.754 3.237,7.755 3.237,7.339 3.281 M18.900 4.259 C 18.878 4.267,18.806 4.285,18.740 4.299 C 18.652 4.319,18.238 4.707,17.190 5.752 L 15.760 7.177 15.760 6.611 C 15.760 5.882,15.717 5.677,15.522 5.482 C 15.173 5.133,14.619 5.203,14.353 5.631 L 14.260 5.780 14.260 7.507 L 14.260 9.233 14.380 9.403 C 14.446 9.496,14.572 9.610,14.660 9.656 C 14.813 9.736,14.888 9.741,16.373 9.752 C 18.166 9.766,18.287 9.753,18.519 9.521 C 18.918 9.122,18.731 8.423,18.189 8.286 C 18.087 8.261,17.739 8.240,17.414 8.240 L 16.823 8.240 18.247 6.810 C 19.603 5.449,19.673 5.371,19.711 5.189 C 19.782 4.847,19.658 4.530,19.389 4.367 C 19.265 4.292,18.983 4.229,18.900 4.259 M8.267 4.816 C 8.848 4.971,9.128 5.231,9.588 6.043 C 10.187 7.103,10.246 7.257,10.243 7.753 C 10.239 8.303,10.072 8.719,9.650 9.225 C 9.190 9.775,9.055 10.176,9.092 10.880 C 9.132 11.659,9.432 12.291,10.165 13.141 C 10.835 13.919,11.624 14.500,12.380 14.774 C 12.631 14.865,12.791 14.894,13.121 14.910 C 13.828 14.943,14.227 14.808,14.775 14.350 C 15.441 13.795,16.169 13.614,16.836 13.839 C 17.103 13.929,18.254 14.559,18.565 14.785 C 19.000 15.101,19.239 15.625,19.240 16.262 C 19.241 17.095,18.831 17.774,17.904 18.478 C 17.469 18.808,16.986 19.056,16.571 19.162 C 16.336 19.222,16.130 19.240,15.661 19.240 C 13.213 19.240,10.749 18.176,8.620 16.199 C 6.686 14.403,5.426 12.339,4.957 10.197 C 4.747 9.238,4.694 7.991,4.839 7.423 C 5.001 6.791,5.384 6.175,5.999 5.558 C 6.408 5.148,6.704 4.960,7.140 4.835 C 7.434 4.750,7.985 4.741,8.267 4.816 " stroke="none" fill-rule="evenodd" fill="black"></path></svg>