<svg width="24" height="24" viewBox="0 0 24 24" fill="none" xmlns="http://www.w3.org/2000/svg"><path d="M8.720 3.282 C 7.104 3.336,6.289 3.580,5.615 4.211 C 5.274 4.530,5.045 4.854,4.802 5.366 C 4.527 5.943,4.238 6.937,3.638 9.367 L 3.424 10.233 2.622 10.247 C 1.705 10.262,1.595 10.293,1.383 10.592 C 1.286 10.730,1.267 10.797,1.267 10.997 C 1.267 11.282,1.385 11.494,1.627 11.645 L 1.780 11.740 12.000 11.740 L 22.220 11.740 22.369 11.647 C 22.943 11.290,22.812 10.424,22.162 10.284 C 22.049 10.260,21.646 10.240,21.267 10.240 L 20.578 10.240 20.363 9.370 C 20.061 8.147,19.711 6.824,19.540 6.260 C 19.092 4.777,18.378 3.931,17.263 3.557 C 16.742 3.382,16.236 3.317,15.103 3.278 C 13.901 3.237,9.986 3.239,8.720 3.282 M15.829 4.798 C 16.666 4.868,17.126 5.040,17.468 5.414 C 17.874 5.859,18.092 6.468,18.678 8.800 C 18.857 9.515,19.013 10.132,19.025 10.170 C 19.044 10.236,18.691 10.240,12.000 10.240 C 5.309 10.240,4.956 10.236,4.975 10.170 C 4.987 10.132,5.143 9.515,5.322 8.800 C 5.908 6.468,6.126 5.859,6.532 5.414 C 6.861 5.054,7.349 4.863,8.100 4.801 C 8.629 4.757,15.304 4.755,15.829 4.798 M6.060 13.284 C 4.351 13.451,2.894 14.679,2.420 16.351 C 2.157 17.276,2.241 18.387,2.640 19.267 C 3.037 20.141,3.859 20.963,4.733 21.360 C 5.613 21.759,6.724 21.843,7.649 21.580 C 9.255 21.125,10.445 19.773,10.699 18.116 C 10.720 17.982,10.742 17.962,10.991 17.850 C 11.437 17.648,11.556 17.621,12.000 17.621 C 12.444 17.621,12.563 17.648,13.009 17.850 C 13.258 17.962,13.280 17.982,13.301 18.116 C 13.517 19.525,14.460 20.783,15.735 21.361 C 16.823 21.854,18.178 21.853,19.267 21.360 C 20.142 20.963,20.963 20.141,21.361 19.265 C 21.854 18.177,21.853 16.822,21.360 15.733 C 20.963 14.859,20.141 14.037,19.267 13.640 C 18.178 13.147,16.823 13.146,15.735 13.639 C 14.741 14.090,13.866 15.037,13.517 16.040 C 13.468 16.183,13.414 16.315,13.397 16.334 C 13.381 16.353,13.253 16.332,13.114 16.286 C 12.413 16.059,11.587 16.059,10.886 16.286 C 10.747 16.332,10.619 16.353,10.603 16.334 C 10.586 16.315,10.532 16.183,10.483 16.040 C 9.985 14.609,8.521 13.438,7.060 13.303 C 6.501 13.251,6.414 13.249,6.060 13.284 M7.392 14.893 C 7.797 15.037,8.121 15.244,8.439 15.561 C 8.754 15.876,8.961 16.199,9.110 16.608 C 9.208 16.876,9.217 16.949,9.217 17.500 C 9.217 18.022,9.205 18.134,9.126 18.360 C 8.844 19.162,8.162 19.844,7.360 20.126 C 7.134 20.205,7.022 20.217,6.500 20.217 C 5.978 20.217,5.866 20.205,5.640 20.126 C 5.040 19.915,4.441 19.427,4.125 18.891 C 3.836 18.400,3.783 18.184,3.783 17.500 C 3.783 16.978,3.795 16.866,3.874 16.640 C 4.144 15.873,4.795 15.195,5.526 14.922 C 5.885 14.788,6.067 14.763,6.600 14.776 C 7.015 14.787,7.150 14.807,7.392 14.893 M18.392 14.893 C 18.797 15.037,19.121 15.244,19.439 15.561 C 19.754 15.876,19.961 16.199,20.110 16.608 C 20.208 16.876,20.217 16.949,20.217 17.500 C 20.217 18.022,20.205 18.134,20.126 18.360 C 19.844 19.162,19.162 19.844,18.360 20.126 C 18.134 20.205,18.022 20.217,17.500 20.217 C 16.978 20.217,16.866 20.205,16.640 20.126 C 15.838 19.844,15.156 19.162,14.874 18.360 C 14.795 18.134,14.783 18.022,14.783 17.500 C 14.783 16.978,14.795 16.866,14.874 16.640 C 15.144 15.873,15.795 15.195,16.526 14.922 C 16.885 14.788,17.067 14.763,17.600 14.776 C 18.015 14.787,18.150 14.807,18.392 14.893 " stroke="none" fill-rule="evenodd" fill="black"></path></svg>