<svg width="24" height="24" viewBox="0 0 24 24" fill="none" xmlns="http://www.w3.org/2000/svg"><path d="M6.533 6.282 C 4.519 6.446,2.758 7.641,1.851 9.460 C 1.072 11.023,1.072 12.977,1.851 14.540 C 2.906 16.655,5.108 17.904,7.448 17.716 C 8.897 17.599,9.991 16.941,10.887 15.646 C 11.254 15.116,11.590 14.489,12.759 12.160 C 14.031 9.626,14.342 9.098,14.880 8.560 C 15.132 8.308,15.266 8.211,15.567 8.064 C 16.088 7.809,16.454 7.743,17.178 7.772 C 18.295 7.817,19.214 8.218,19.998 9.002 C 20.552 9.557,20.924 10.216,21.147 11.040 C 21.248 11.411,21.248 12.589,21.147 12.960 C 20.924 13.784,20.552 14.443,19.998 14.998 C 19.443 15.552,18.787 15.922,17.960 16.148 C 17.557 16.258,16.375 16.245,15.944 16.127 C 15.485 16.001,15.074 15.812,14.626 15.522 C 14.255 15.281,14.219 15.267,13.995 15.267 C 13.797 15.267,13.730 15.286,13.592 15.383 C 13.374 15.538,13.262 15.759,13.266 16.029 C 13.270 16.323,13.394 16.493,13.805 16.768 C 14.662 17.340,15.531 17.641,16.553 17.717 C 18.376 17.854,20.117 17.147,21.321 15.780 C 22.670 14.248,23.093 12.060,22.418 10.105 C 21.575 7.663,19.145 6.076,16.568 6.283 C 15.071 6.403,14.007 7.050,13.083 8.400 C 12.705 8.953,12.392 9.538,11.209 11.900 C 9.971 14.372,9.657 14.903,9.120 15.440 C 8.736 15.824,8.255 16.080,7.722 16.184 C 7.089 16.308,6.168 16.225,5.540 15.988 C 4.425 15.567,3.515 14.694,3.083 13.631 C 2.827 13.002,2.780 12.747,2.780 12.000 C 2.780 11.253,2.827 10.998,3.083 10.369 C 3.581 9.144,4.695 8.198,6.040 7.856 C 6.488 7.742,7.612 7.752,8.056 7.873 C 8.514 7.999,8.926 8.187,9.374 8.478 C 9.745 8.719,9.781 8.733,10.005 8.733 C 10.203 8.733,10.270 8.714,10.408 8.617 C 10.626 8.462,10.738 8.241,10.734 7.971 C 10.730 7.677,10.606 7.507,10.195 7.232 C 9.106 6.505,7.839 6.176,6.533 6.282 " stroke="none" fill-rule="evenodd" fill="black"></path></svg>