<svg width="24" height="24" viewBox="0 0 24 24" fill="none" xmlns="http://www.w3.org/2000/svg"><path d="M11.320 1.281 C 7.041 1.525,3.252 4.409,1.843 8.497 C 1.180 10.418,1.082 12.560,1.564 14.550 C 2.505 18.428,5.572 21.495,9.450 22.436 C 11.106 22.837,12.894 22.837,14.550 22.436 C 18.428 21.495,21.495 18.428,22.436 14.550 C 22.837 12.894,22.837 11.106,22.436 9.450 C 21.425 5.282,17.985 2.095,13.742 1.398 C 13.334 1.331,12.074 1.229,11.880 1.247 C 11.847 1.250,11.595 1.265,11.320 1.281 M13.146 2.822 C 14.201 2.960,15.125 3.237,16.060 3.696 C 18.877 5.079,20.768 7.722,21.178 10.854 C 21.301 11.786,21.244 13.026,21.034 13.998 C 20.745 15.343,20.003 16.855,19.121 17.900 C 18.247 18.935,17.240 19.726,16.060 20.304 C 14.761 20.940,13.462 21.240,12.000 21.240 C 10.538 21.240,9.236 20.940,7.940 20.304 C 5.123 18.921,3.232 16.278,2.822 13.146 C 2.699 12.214,2.756 10.974,2.966 10.002 C 3.177 9.020,3.703 7.775,4.268 6.920 C 5.750 4.677,8.131 3.188,10.820 2.823 C 11.380 2.746,12.569 2.746,13.146 2.822 M11.667 7.065 C 11.303 7.177,11.000 7.602,11.000 8.000 C 11.000 8.517,11.483 9.000,12.000 9.000 C 12.517 9.000,13.000 8.517,13.000 8.000 C 13.000 7.598,12.688 7.173,12.310 7.061 C 12.061 6.987,11.919 6.988,11.667 7.065 M11.815 10.277 C 11.638 10.321,11.461 10.456,11.353 10.631 L 11.260 10.780 11.260 14.000 L 11.260 17.220 11.353 17.369 C 11.710 17.943,12.576 17.812,12.716 17.162 C 12.775 16.887,12.776 11.097,12.717 10.841 C 12.623 10.432,12.215 10.177,11.815 10.277 " stroke="none" fill-rule="evenodd" fill="black"></path></svg>