<svg width="24" height="24" viewBox="0 0 24 24" fill="none" xmlns="http://www.w3.org/2000/svg"><path d="M9.400 1.283 C 7.908 1.325,6.965 1.449,6.221 1.698 C 4.984 2.114,4.114 2.984,3.698 4.221 C 3.317 5.356,3.242 6.641,3.242 12.000 C 3.242 15.221,3.284 17.354,3.360 18.060 C 3.531 19.644,3.894 20.574,4.635 21.331 C 5.348 22.060,6.261 22.436,7.767 22.621 C 8.637 22.727,11.730 22.782,13.870 22.728 C 16.166 22.670,16.928 22.587,17.779 22.302 C 19.016 21.886,19.886 21.016,20.302 19.779 C 20.682 18.646,20.758 17.355,20.758 12.000 C 20.758 6.645,20.682 5.354,20.302 4.221 C 19.952 3.179,19.288 2.405,18.332 1.925 C 17.808 1.663,17.132 1.488,16.213 1.379 C 15.197 1.259,11.899 1.212,9.400 1.283 M15.503 2.810 C 15.589 2.896,14.850 3.748,14.515 3.949 C 14.079 4.209,13.980 4.220,12.000 4.220 C 10.420 4.220,10.191 4.212,9.963 4.149 C 9.611 4.052,9.335 3.885,9.074 3.611 C 8.844 3.369,8.480 2.896,8.480 2.837 C 8.480 2.819,8.611 2.797,8.770 2.788 C 9.310 2.760,15.473 2.780,15.503 2.810 M7.228 3.670 C 8.048 4.861,8.642 5.341,9.597 5.587 C 10.459 5.809,13.541 5.809,14.403 5.587 C 15.439 5.320,16.073 4.762,17.060 3.249 C 17.190 3.051,17.179 3.050,17.673 3.283 C 18.656 3.745,19.066 4.653,19.198 6.659 C 19.254 7.516,19.254 16.484,19.198 17.341 C 19.047 19.644,18.533 20.523,17.099 20.939 C 16.178 21.206,15.301 21.252,11.520 21.229 C 9.614 21.218,8.352 21.194,8.100 21.165 C 5.800 20.900,5.077 20.163,4.833 17.840 C 4.756 17.116,4.756 6.884,4.833 6.160 C 5.019 4.380,5.513 3.551,6.630 3.141 C 6.712 3.111,6.789 3.084,6.801 3.083 C 6.812 3.081,7.005 3.346,7.228 3.670 M8.815 18.278 C 8.331 18.393,8.098 19.004,8.383 19.408 C 8.447 19.499,8.572 19.610,8.660 19.656 C 8.818 19.739,8.865 19.740,11.878 19.751 C 14.020 19.759,15.000 19.749,15.151 19.718 C 15.902 19.562,15.931 18.473,15.189 18.286 C 14.979 18.234,9.033 18.226,8.815 18.278 " stroke="none" fill-rule="evenodd" fill="black"></path></svg>