<svg width="24" height="24" viewBox="0 0 24 24" fill="none" xmlns="http://www.w3.org/2000/svg"><path d="M4.783 1.283 C 4.206 1.350,3.684 1.727,3.436 2.255 C 3.171 2.822,3.171 4.178,3.436 4.745 C 3.662 5.226,4.119 5.588,4.637 5.693 L 4.873 5.742 3.852 6.559 C 3.282 7.016,2.696 7.522,2.526 7.705 C 1.798 8.486,1.369 9.470,1.279 10.567 C 1.229 11.173,1.230 17.378,1.280 17.947 C 1.387 19.150,1.759 19.933,2.768 21.074 C 3.392 21.781,4.098 22.252,4.920 22.511 C 5.619 22.732,5.700 22.737,8.260 22.739 C 9.558 22.739,10.669 22.726,10.729 22.709 C 10.881 22.667,11.121 22.447,11.186 22.292 C 11.297 22.027,11.241 21.711,11.047 21.506 C 10.804 21.249,10.942 21.262,8.220 21.240 L 5.740 21.220 5.366 21.090 C 4.947 20.943,4.727 20.826,4.388 20.569 C 3.909 20.205,3.000 19.048,3.000 18.802 C 3.000 18.775,4.294 18.758,6.850 18.751 C 11.092 18.739,10.798 18.757,11.047 18.494 C 11.181 18.353,11.240 18.201,11.240 18.000 C 11.240 17.799,11.181 17.647,11.047 17.506 C 10.798 17.243,11.105 17.261,6.730 17.249 L 2.760 17.238 2.760 13.999 L 2.760 10.760 9.997 10.760 L 17.234 10.760 17.247 11.730 C 17.261 12.785,17.268 12.822,17.506 13.047 C 17.783 13.309,18.217 13.309,18.494 13.047 C 18.739 12.815,18.740 12.807,18.738 11.560 C 18.735 10.330,18.703 10.046,18.497 9.414 C 18.285 8.764,17.866 8.078,17.385 7.593 C 17.242 7.448,16.683 6.972,16.142 6.536 L 15.160 5.742 15.385 5.691 C 15.899 5.574,16.342 5.219,16.564 4.745 C 16.746 4.354,16.808 3.606,16.721 2.840 C 16.621 1.971,16.028 1.379,15.156 1.279 C 14.750 1.233,5.188 1.236,4.783 1.283 M15.167 2.826 C 15.232 2.885,15.240 2.962,15.240 3.493 C 15.240 3.996,15.229 4.106,15.174 4.167 C 15.110 4.237,14.898 4.240,10.007 4.240 C 5.317 4.240,4.900 4.235,4.833 4.174 C 4.768 4.115,4.760 4.038,4.760 3.507 C 4.760 3.004,4.771 2.894,4.826 2.833 C 4.890 2.763,5.102 2.760,9.993 2.760 C 14.683 2.760,15.100 2.765,15.167 2.826 M12.840 5.855 C 12.917 5.896,13.079 6.003,13.200 6.092 C 13.425 6.259,15.786 8.164,16.131 8.458 C 16.327 8.624,16.760 9.137,16.760 9.203 C 16.760 9.225,14.079 9.240,10.000 9.240 C 6.282 9.240,3.240 9.229,3.240 9.215 C 3.240 9.160,3.530 8.805,3.747 8.595 C 4.015 8.336,6.693 6.192,7.019 5.975 C 7.139 5.896,7.296 5.816,7.369 5.799 C 7.441 5.781,8.670 5.770,10.100 5.773 C 12.554 5.780,12.708 5.784,12.840 5.855 M9.826 11.286 C 9.625 11.331,9.468 11.445,9.353 11.631 C 9.266 11.770,9.259 11.829,9.246 12.506 L 9.232 13.232 8.526 13.246 C 7.716 13.262,7.590 13.300,7.383 13.592 C 7.286 13.730,7.267 13.797,7.267 13.993 C 7.267 14.279,7.372 14.474,7.612 14.633 C 7.770 14.738,7.790 14.740,8.503 14.754 L 9.232 14.768 9.246 15.494 C 9.259 16.171,9.266 16.230,9.353 16.369 C 9.619 16.797,10.173 16.867,10.522 16.518 C 10.718 16.322,10.760 16.119,10.760 15.358 L 10.760 14.760 11.382 14.760 C 11.725 14.760,12.087 14.739,12.189 14.714 C 12.730 14.577,12.918 13.878,12.520 13.480 C 12.321 13.281,12.121 13.240,11.358 13.240 L 10.760 13.240 10.759 12.630 C 10.758 12.295,10.739 11.939,10.717 11.841 C 10.622 11.428,10.243 11.192,9.826 11.286 M17.131 14.280 C 16.743 14.322,16.362 14.445,16.000 14.644 C 15.737 14.789,15.522 14.987,14.239 16.274 C 12.876 17.642,12.766 17.762,12.608 18.066 C 12.367 18.529,12.275 18.917,12.273 19.480 C 12.269 20.427,12.598 21.211,13.265 21.842 C 13.914 22.456,14.613 22.731,15.520 22.728 C 16.082 22.726,16.467 22.634,16.934 22.392 C 17.239 22.234,17.355 22.128,18.741 20.741 C 20.128 19.355,20.234 19.239,20.392 18.934 C 20.633 18.470,20.725 18.083,20.727 17.520 C 20.730 16.978,20.653 16.595,20.456 16.166 C 19.867 14.881,18.539 14.127,17.131 14.280 M18.212 15.910 C 18.574 16.080,18.919 16.424,19.091 16.788 C 19.211 17.041,19.220 17.090,19.220 17.480 C 19.220 17.854,19.208 17.926,19.111 18.133 C 19.046 18.272,18.894 18.478,18.735 18.642 L 18.469 18.918 18.219 18.553 C 17.765 17.886,17.115 17.236,16.448 16.782 L 16.085 16.533 16.352 16.271 C 16.772 15.859,17.021 15.757,17.560 15.772 C 17.891 15.781,17.975 15.799,18.212 15.910 M15.740 18.100 C 16.062 18.341,16.643 18.920,16.884 19.240 C 16.991 19.383,17.142 19.618,17.218 19.762 L 17.356 20.025 16.868 20.511 C 16.233 21.143,16.082 21.220,15.480 21.220 C 15.090 21.220,15.041 21.211,14.788 21.091 C 14.426 20.920,14.080 20.574,13.909 20.212 C 13.789 19.959,13.780 19.910,13.780 19.520 C 13.780 18.922,13.856 18.772,14.488 18.134 L 14.973 17.643 15.237 17.782 C 15.381 17.858,15.608 18.001,15.740 18.100 " stroke="none" fill-rule="evenodd" fill="black"></path></svg>