<svg width="24" height="24" viewBox="0 0 24 24" fill="none" xmlns="http://www.w3.org/2000/svg"><path d="M6.783 1.283 C 6.206 1.350,5.684 1.727,5.436 2.255 C 5.171 2.822,5.171 4.178,5.436 4.745 C 5.662 5.226,6.119 5.588,6.637 5.693 L 6.873 5.742 5.852 6.559 C 5.282 7.016,4.696 7.522,4.526 7.705 C 3.798 8.486,3.369 9.470,3.279 10.567 C 3.229 11.173,3.230 17.378,3.280 17.947 C 3.387 19.150,3.759 19.933,4.768 21.074 C 5.392 21.781,6.098 22.252,6.920 22.511 C 7.661 22.745,7.543 22.740,12.020 22.740 C 15.789 22.740,16.169 22.734,16.484 22.670 C 16.967 22.571,17.279 22.465,17.740 22.241 C 18.476 21.883,19.080 21.351,19.733 20.484 C 20.111 19.983,20.292 19.659,20.464 19.176 C 20.746 18.389,20.740 18.493,20.740 14.240 C 20.740 10.743,20.734 10.391,20.669 10.073 C 20.469 9.091,20.031 8.245,19.385 7.593 C 19.242 7.448,18.683 6.972,18.142 6.536 L 17.160 5.742 17.385 5.691 C 17.899 5.574,18.342 5.219,18.564 4.745 C 18.746 4.354,18.808 3.606,18.721 2.840 C 18.621 1.971,18.028 1.379,17.156 1.279 C 16.750 1.233,7.188 1.236,6.783 1.283 M17.167 2.826 C 17.232 2.885,17.240 2.962,17.240 3.493 C 17.240 3.996,17.229 4.106,17.174 4.167 C 17.110 4.237,16.898 4.240,12.007 4.240 C 7.317 4.240,6.900 4.235,6.833 4.174 C 6.768 4.115,6.760 4.038,6.760 3.507 C 6.760 3.004,6.771 2.894,6.826 2.833 C 6.890 2.763,7.102 2.760,11.993 2.760 C 16.683 2.760,17.100 2.765,17.167 2.826 M14.840 5.855 C 14.917 5.896,15.079 6.003,15.200 6.092 C 15.425 6.259,17.786 8.164,18.131 8.458 C 18.327 8.624,18.760 9.137,18.760 9.203 C 18.760 9.225,16.079 9.240,12.000 9.240 C 8.282 9.240,5.240 9.229,5.240 9.215 C 5.240 9.160,5.530 8.805,5.747 8.595 C 6.015 8.336,8.693 6.192,9.019 5.975 C 9.139 5.896,9.296 5.816,9.369 5.799 C 9.441 5.781,10.670 5.770,12.100 5.773 C 14.554 5.780,14.708 5.784,14.840 5.855 M19.240 14.000 L 19.240 17.240 12.000 17.240 L 4.760 17.240 4.760 14.000 L 4.760 10.760 12.000 10.760 L 19.240 10.760 19.240 14.000 M11.826 11.286 C 11.625 11.331,11.468 11.445,11.353 11.631 C 11.266 11.770,11.259 11.829,11.246 12.506 L 11.232 13.232 10.526 13.246 C 9.716 13.262,9.590 13.300,9.383 13.592 C 9.286 13.730,9.267 13.797,9.267 13.993 C 9.267 14.279,9.372 14.474,9.612 14.633 C 9.770 14.738,9.790 14.740,10.503 14.754 L 11.232 14.768 11.246 15.494 C 11.259 16.171,11.266 16.230,11.353 16.369 C 11.619 16.797,12.173 16.867,12.522 16.518 C 12.718 16.322,12.760 16.119,12.760 15.358 L 12.760 14.760 13.382 14.760 C 13.725 14.760,14.087 14.739,14.189 14.714 C 14.730 14.577,14.918 13.878,14.520 13.480 C 14.321 13.281,14.121 13.240,13.358 13.240 L 12.760 13.240 12.759 12.630 C 12.758 12.295,12.739 11.939,12.717 11.841 C 12.622 11.428,12.243 11.192,11.826 11.286 M19.000 18.807 C 19.000 18.910,18.695 19.401,18.420 19.740 C 17.806 20.497,17.352 20.841,16.640 21.088 L 16.260 21.220 12.000 21.220 L 7.740 21.220 7.366 21.090 C 6.947 20.943,6.727 20.826,6.388 20.569 C 5.908 20.204,5.000 19.048,5.000 18.801 C 5.000 18.773,7.210 18.760,12.000 18.760 C 17.308 18.760,19.000 18.771,19.000 18.807 " stroke="none" fill-rule="evenodd" fill="black"></path></svg>