<svg width="24" height="24" viewBox="0 0 24 24" fill="none" xmlns="http://www.w3.org/2000/svg"><path d="M15.200 1.284 C 12.452 1.450,10.025 3.255,9.062 5.849 C 8.768 6.641,8.635 7.395,8.635 8.260 C 8.635 9.110,8.740 9.723,9.023 10.516 L 9.170 10.932 5.445 14.656 C 3.335 16.766,1.667 18.464,1.598 18.574 C 1.271 19.096,1.172 19.826,1.354 20.367 C 1.404 20.514,1.531 20.757,1.637 20.907 C 1.894 21.269,2.878 22.228,3.180 22.409 C 3.875 22.825,4.752 22.848,5.358 22.464 C 5.466 22.396,5.734 22.174,5.953 21.971 L 6.352 21.601 6.546 21.687 C 6.861 21.826,7.119 21.879,7.480 21.879 C 8.083 21.879,8.597 21.702,9.074 21.331 C 9.588 20.931,9.960 20.230,9.960 19.662 L 9.960 19.529 10.130 19.568 C 10.223 19.590,10.471 19.607,10.680 19.607 C 12.170 19.603,13.408 18.235,13.203 16.819 C 13.129 16.301,12.935 15.838,12.590 15.351 C 12.548 15.291,12.573 15.249,12.775 15.045 L 13.009 14.809 13.240 14.903 C 14.105 15.255,15.602 15.413,16.640 15.262 C 18.927 14.931,20.863 13.576,21.939 11.553 C 22.728 10.070,22.940 8.225,22.516 6.540 C 22.084 4.824,20.942 3.274,19.408 2.322 C 18.144 1.538,16.736 1.191,15.200 1.284 M16.541 2.819 C 18.170 3.083,19.591 4.031,20.440 5.419 C 21.400 6.989,21.506 8.981,20.717 10.637 C 19.880 12.394,18.259 13.560,16.321 13.798 C 15.846 13.857,15.381 13.850,14.885 13.778 C 14.149 13.671,13.897 13.586,13.244 13.219 C 13.053 13.112,12.805 13.090,12.613 13.162 C 12.500 13.205,11.656 14.006,11.331 14.380 C 11.060 14.690,10.920 15.004,10.921 15.296 C 10.922 15.600,11.012 15.807,11.286 16.134 C 11.570 16.473,11.720 16.800,11.720 17.080 C 11.719 17.670,11.176 18.163,10.586 18.111 C 10.316 18.087,10.072 17.967,9.743 17.695 C 9.336 17.359,9.089 17.288,8.780 17.418 C 8.597 17.494,8.259 17.814,8.132 18.030 C 7.988 18.275,8.012 18.604,8.190 18.852 C 8.594 19.415,8.518 19.974,8.000 20.256 C 7.586 20.481,7.249 20.431,6.825 20.080 C 6.588 19.884,6.390 19.820,6.138 19.858 C 5.967 19.884,5.907 19.926,5.544 20.273 C 4.477 21.295,4.544 21.240,4.363 21.240 C 4.272 21.240,4.131 21.212,4.049 21.178 C 3.895 21.115,3.083 20.343,2.876 20.064 C 2.751 19.896,2.726 19.698,2.802 19.493 C 2.825 19.429,4.558 17.664,6.780 15.440 C 9.559 12.659,10.735 11.456,10.779 11.351 C 10.880 11.105,10.857 10.925,10.680 10.589 C 10.081 9.452,9.957 8.051,10.340 6.740 C 10.602 5.844,11.059 5.073,11.725 4.404 C 12.563 3.563,13.614 3.019,14.780 2.822 C 15.214 2.749,16.099 2.747,16.541 2.819 M15.020 5.425 C 14.866 5.457,14.569 5.567,14.360 5.670 C 14.038 5.827,13.925 5.911,13.620 6.218 C 13.226 6.614,13.002 6.958,12.877 7.360 C 12.576 8.324,12.761 9.368,13.365 10.115 C 14.466 11.476,16.433 11.620,17.701 10.433 C 18.535 9.653,18.833 8.483,18.483 7.360 C 18.358 6.958,18.134 6.615,17.740 6.218 C 17.435 5.911,17.322 5.827,17.000 5.670 C 16.388 5.371,15.691 5.285,15.020 5.425 M16.288 6.987 C 16.600 7.127,16.918 7.464,17.037 7.780 C 17.160 8.109,17.145 8.608,17.002 8.900 C 16.878 9.153,16.556 9.477,16.310 9.595 C 15.940 9.774,15.420 9.774,15.050 9.595 C 14.803 9.477,14.481 9.152,14.360 8.901 C 14.217 8.605,14.200 8.104,14.322 7.781 C 14.482 7.358,14.930 6.973,15.374 6.879 C 15.632 6.825,16.032 6.872,16.288 6.987 " stroke="none" fill-rule="evenodd" fill="black"></path></svg>