<svg width="24" height="24" viewBox="0 0 24 24" fill="none" xmlns="http://www.w3.org/2000/svg"><path d="M8.540 1.265 C 7.920 1.289,6.935 1.366,6.480 1.424 C 4.612 1.665,3.376 2.279,2.555 3.373 C 1.861 4.299,1.520 5.384,1.360 7.180 C 1.239 8.534,1.215 14.322,1.322 16.180 C 1.476 18.833,1.986 20.233,3.176 21.273 C 4.175 22.144,5.490 22.542,7.820 22.678 C 9.668 22.786,15.458 22.761,16.820 22.640 C 19.212 22.427,20.572 21.821,21.512 20.549 C 22.194 19.628,22.535 18.433,22.679 16.460 C 22.750 15.478,22.747 14.799,22.670 14.655 C 22.464 14.269,21.946 14.134,21.595 14.373 C 21.317 14.562,21.243 14.766,21.241 15.340 C 21.238 16.129,21.132 17.255,20.994 17.960 C 20.814 18.875,20.507 19.502,19.984 20.021 C 19.215 20.782,18.152 21.085,15.832 21.203 C 14.690 21.260,8.068 21.230,7.400 21.164 C 5.555 20.982,4.691 20.684,4.003 19.997 C 3.316 19.309,3.018 18.445,2.836 16.600 C 2.770 15.932,2.740 9.310,2.797 8.168 C 2.915 5.848,3.218 4.785,3.979 4.016 C 4.814 3.174,5.890 2.874,8.480 2.764 C 9.261 2.731,9.369 2.706,9.548 2.513 C 9.654 2.400,9.760 2.158,9.760 2.031 C 9.759 1.760,9.583 1.455,9.361 1.341 C 9.229 1.272,8.967 1.248,8.540 1.265 M16.820 1.283 C 16.315 1.324,16.011 1.385,15.526 1.544 C 14.143 1.997,12.976 3.021,12.339 4.340 C 11.995 5.054,11.859 5.554,11.803 6.313 C 11.750 7.043,11.841 7.736,12.081 8.420 L 12.165 8.660 9.389 11.420 C 6.713 14.079,6.607 14.191,6.467 14.480 C 6.194 15.042,6.188 15.550,6.447 16.080 C 6.546 16.283,6.689 16.455,7.097 16.865 C 7.546 17.315,7.663 17.409,7.920 17.531 C 8.694 17.895,9.364 17.786,10.019 17.187 L 10.298 16.932 10.503 17.004 C 11.555 17.374,12.821 16.706,13.094 15.636 L 13.149 15.420 13.544 15.394 C 14.175 15.352,14.588 15.172,14.994 14.765 C 15.706 14.052,15.798 13.029,15.232 12.112 C 15.145 11.971,15.144 11.960,15.209 11.894 C 15.274 11.828,15.292 11.829,15.549 11.913 C 15.942 12.041,16.342 12.117,16.830 12.155 C 19.036 12.329,21.087 11.197,22.118 9.235 C 22.943 7.666,22.944 5.774,22.121 4.210 C 21.087 2.247,19.019 1.104,16.820 1.283 M18.320 2.893 C 19.040 3.108,19.578 3.425,20.091 3.938 C 20.587 4.434,20.889 4.945,21.106 5.660 C 21.207 5.993,21.215 6.072,21.215 6.720 C 21.215 7.368,21.207 7.447,21.106 7.780 C 20.887 8.499,20.585 9.010,20.078 9.518 C 19.346 10.249,18.488 10.626,17.454 10.669 C 16.655 10.702,16.040 10.576,15.578 10.283 C 15.359 10.144,15.096 10.119,14.865 10.215 C 14.586 10.332,13.765 11.198,13.598 11.552 C 13.494 11.773,13.484 12.115,13.575 12.333 C 13.607 12.411,13.723 12.592,13.833 12.734 C 14.059 13.029,14.140 13.231,14.104 13.410 C 14.040 13.731,13.677 13.965,13.372 13.883 C 13.216 13.841,13.150 13.801,12.797 13.530 C 12.598 13.377,12.364 13.305,12.187 13.341 C 11.901 13.401,11.569 13.671,11.415 13.970 C 11.325 14.144,11.329 14.468,11.424 14.634 C 11.615 14.967,11.640 15.029,11.640 15.165 C 11.640 15.584,11.127 15.735,10.750 15.426 C 10.543 15.256,10.406 15.200,10.200 15.200 C 9.944 15.200,9.848 15.263,9.338 15.762 C 8.702 16.385,8.735 16.383,8.175 15.829 C 7.814 15.472,7.760 15.401,7.760 15.286 C 7.760 15.163,7.986 14.929,10.716 12.216 C 12.393 10.550,13.699 9.221,13.736 9.144 C 13.845 8.914,13.819 8.636,13.660 8.321 C 13.583 8.168,13.472 7.885,13.412 7.692 C 13.313 7.369,13.304 7.286,13.305 6.680 C 13.306 6.078,13.316 5.988,13.415 5.660 C 13.631 4.945,13.923 4.450,14.428 3.940 C 15.014 3.350,15.778 2.947,16.593 2.798 C 16.696 2.780,17.050 2.770,17.380 2.778 C 17.880 2.789,18.037 2.808,18.320 2.893 " stroke="none" fill-rule="evenodd" fill="black"></path></svg>