<svg width="24" height="24" viewBox="0 0 24 24" fill="none" xmlns="http://www.w3.org/2000/svg"><path d="M9.020 1.279 C 6.976 1.330,5.856 1.466,4.900 1.779 C 3.060 2.382,1.958 3.688,1.563 5.734 C 1.311 7.042,1.267 7.973,1.267 12.000 C 1.267 16.027,1.311 16.958,1.563 18.266 C 2.013 20.599,3.401 21.987,5.734 22.437 C 7.043 22.690,7.974 22.734,12.000 22.734 C 16.026 22.734,16.957 22.690,18.266 22.437 C 20.599 21.987,21.987 20.599,22.437 18.266 C 22.688 16.966,22.733 16.013,22.733 12.000 C 22.733 7.987,22.688 7.034,22.437 5.734 C 22.098 3.977,21.228 2.756,19.825 2.068 C 18.972 1.650,17.853 1.420,16.180 1.321 C 15.262 1.267,10.607 1.239,9.020 1.279 M16.600 2.836 C 18.439 3.019,19.320 3.320,20.000 4.000 C 20.692 4.693,20.998 5.605,21.168 7.480 C 21.242 8.307,21.242 15.693,21.168 16.520 C 20.996 18.419,20.693 19.311,19.982 20.013 C 19.218 20.769,18.155 21.080,15.940 21.199 C 14.954 21.252,9.046 21.252,8.060 21.199 C 5.843 21.080,4.782 20.769,4.016 20.011 C 3.342 19.345,3.026 18.464,2.852 16.760 C 2.788 16.135,2.780 15.620,2.781 11.980 C 2.782 7.664,2.793 7.353,2.984 6.240 C 3.183 5.082,3.600 4.278,4.272 3.760 C 5.025 3.178,6.058 2.913,8.002 2.802 C 8.872 2.752,16.044 2.780,16.600 2.836 M12.872 5.280 C 11.176 5.440,9.616 6.448,8.758 7.939 C 8.124 9.041,7.890 10.431,8.139 11.615 L 8.205 11.931 6.884 13.257 C 5.695 14.452,5.551 14.611,5.438 14.851 C 5.226 15.304,5.215 15.491,5.335 16.520 C 5.459 17.585,5.520 17.756,5.918 18.135 C 6.294 18.493,6.442 18.544,7.484 18.665 C 8.510 18.785,8.696 18.773,9.151 18.561 C 9.394 18.447,9.547 18.308,10.744 17.115 L 12.068 15.794 12.384 15.861 C 12.558 15.897,12.916 15.937,13.180 15.949 C 15.249 16.042,17.203 14.904,18.151 13.052 C 18.875 11.637,18.944 10.065,18.347 8.577 C 18.083 7.920,17.727 7.388,17.184 6.839 C 16.060 5.703,14.474 5.130,12.872 5.280 M14.379 6.880 C 15.565 7.200,16.588 8.123,16.995 9.240 C 17.185 9.760,17.217 9.959,17.217 10.600 C 17.217 11.348,17.142 11.687,16.840 12.300 C 16.181 13.638,14.883 14.449,13.400 14.448 C 13.147 14.448,12.805 14.421,12.640 14.387 C 12.112 14.281,12.045 14.276,11.790 14.322 C 11.653 14.346,11.458 14.411,11.357 14.466 C 11.255 14.521,10.893 14.847,10.539 15.201 L 9.904 15.837 9.497 15.441 C 9.058 15.013,8.970 14.970,8.615 15.011 C 8.279 15.048,8.000 15.366,8.000 15.711 C 8.000 15.982,8.095 16.145,8.482 16.540 L 8.842 16.908 8.662 17.074 C 8.541 17.185,8.445 17.240,8.371 17.240 C 8.060 17.240,7.014 17.103,6.962 17.055 C 6.909 17.005,6.767 16.010,6.762 15.642 C 6.760 15.513,6.851 15.412,8.116 14.142 C 8.956 13.298,9.503 12.717,9.554 12.616 C 9.599 12.525,9.657 12.335,9.684 12.192 C 9.726 11.964,9.721 11.878,9.641 11.457 C 9.518 10.809,9.539 10.071,9.696 9.548 C 10.118 8.135,11.260 7.088,12.673 6.820 C 13.113 6.737,13.960 6.766,14.379 6.880 M12.788 8.658 C 12.447 8.756,12.148 8.934,11.876 9.200 C 11.051 10.009,11.041 11.265,11.853 12.110 C 12.627 12.916,13.886 12.962,14.719 12.213 C 15.341 11.655,15.563 10.810,15.299 10.011 C 15.105 9.423,14.644 8.945,14.054 8.719 C 13.759 8.606,13.082 8.573,12.788 8.658 M13.601 10.161 C 13.806 10.265,13.937 10.509,13.908 10.728 C 13.863 11.060,13.625 11.254,13.290 11.229 C 12.708 11.186,12.558 10.413,13.081 10.150 C 13.263 10.059,13.407 10.062,13.601 10.161 " fill="#1C274C" stroke="none" fill-rule="evenodd"></path></svg>