<svg width="24" height="24" viewBox="0 0 24 24" fill="none" xmlns="http://www.w3.org/2000/svg"><path d="M8.540 1.265 C 7.920 1.289,6.935 1.366,6.480 1.424 C 4.612 1.665,3.376 2.279,2.555 3.373 C 1.861 4.299,1.520 5.384,1.360 7.180 C 1.239 8.534,1.215 14.322,1.322 16.180 C 1.476 18.833,1.986 20.233,3.176 21.273 C 4.175 22.144,5.490 22.542,7.820 22.678 C 9.668 22.786,15.458 22.761,16.820 22.640 C 19.212 22.427,20.572 21.821,21.512 20.549 C 22.194 19.628,22.535 18.433,22.679 16.460 C 22.750 15.478,22.747 14.799,22.670 14.655 C 22.464 14.269,21.946 14.134,21.595 14.373 C 21.317 14.562,21.243 14.766,21.241 15.340 C 21.238 16.129,21.132 17.255,20.994 17.960 C 20.814 18.875,20.507 19.502,19.984 20.021 C 19.215 20.782,18.152 21.085,15.832 21.203 C 14.690 21.260,8.068 21.230,7.400 21.164 C 5.555 20.982,4.691 20.684,4.003 19.997 C 3.316 19.309,3.018 18.445,2.836 16.600 C 2.770 15.932,2.740 9.310,2.797 8.168 C 2.915 5.848,3.218 4.785,3.979 4.016 C 4.814 3.174,5.890 2.874,8.480 2.764 C 9.261 2.731,9.369 2.706,9.548 2.513 C 9.654 2.400,9.760 2.158,9.760 2.031 C 9.759 1.760,9.583 1.455,9.361 1.341 C 9.229 1.272,8.967 1.248,8.540 1.265 M15.700 1.280 C 14.123 1.416,12.794 2.040,11.657 3.177 C 10.378 4.456,9.746 5.981,9.750 7.780 C 9.751 8.326,9.830 8.973,9.945 9.393 C 9.968 9.475,9.765 9.694,8.310 11.153 C 7.396 12.070,6.604 12.892,6.551 12.980 C 6.406 13.216,6.289 13.558,6.260 13.825 C 6.244 13.980,6.277 14.427,6.358 15.140 C 6.506 16.433,6.548 16.556,6.996 17.004 C 7.447 17.455,7.563 17.494,8.901 17.645 C 9.994 17.769,10.027 17.770,10.336 17.708 C 10.947 17.583,10.933 17.595,12.802 15.734 C 13.738 14.802,14.513 14.040,14.524 14.040 C 14.535 14.040,14.710 14.076,14.913 14.121 C 16.139 14.388,17.489 14.266,18.704 13.778 C 19.720 13.369,20.750 12.573,21.437 11.664 C 23.301 9.200,23.162 5.759,21.107 3.440 C 19.765 1.926,17.711 1.106,15.700 1.280 M17.280 2.861 C 19.231 3.291,20.713 4.773,21.139 6.720 C 21.239 7.177,21.261 8.059,21.184 8.526 C 21.005 9.622,20.556 10.495,19.765 11.285 C 19.030 12.021,18.253 12.444,17.232 12.666 C 16.719 12.778,15.717 12.767,15.140 12.645 C 14.558 12.521,14.236 12.538,13.858 12.715 C 13.619 12.827,13.479 12.948,12.732 13.689 L 11.880 14.536 11.390 14.053 C 11.121 13.788,10.840 13.540,10.766 13.502 C 10.599 13.417,10.247 13.414,10.087 13.496 C 9.902 13.592,9.726 13.832,9.697 14.027 C 9.643 14.386,9.681 14.454,10.273 15.052 L 10.820 15.604 10.495 15.922 L 10.171 16.240 9.955 16.238 C 9.837 16.237,9.384 16.195,8.949 16.146 C 7.898 16.026,7.987 16.121,7.856 14.977 C 7.801 14.495,7.764 14.030,7.775 13.945 C 7.792 13.802,7.930 13.653,9.490 12.085 C 11.057 10.509,11.194 10.360,11.300 10.120 C 11.460 9.754,11.477 9.389,11.358 8.840 C 11.237 8.283,11.225 7.312,11.334 6.800 C 11.553 5.765,11.976 4.980,12.717 4.235 C 13.482 3.466,14.360 3.006,15.417 2.820 C 15.836 2.746,16.863 2.769,17.280 2.861 M15.500 5.515 C 14.923 5.681,14.351 6.130,14.069 6.640 C 13.647 7.401,13.661 8.355,14.104 9.086 C 14.385 9.550,14.876 9.943,15.400 10.122 C 15.756 10.244,16.367 10.273,16.720 10.185 C 18.100 9.840,18.907 8.393,18.453 7.078 C 18.388 6.890,18.268 6.635,18.185 6.510 C 17.872 6.038,17.317 5.642,16.772 5.499 C 16.460 5.418,15.807 5.426,15.500 5.515 M16.443 6.966 C 16.791 7.070,17.079 7.468,17.080 7.845 C 17.080 8.258,16.711 8.681,16.293 8.743 C 15.685 8.834,15.152 8.252,15.284 7.641 C 15.395 7.120,15.926 6.811,16.443 6.966 " fill="#1C274C" stroke="none" fill-rule="evenodd"></path></svg>