<svg width="24" height="24" viewBox="0 0 24 24" fill="none" xmlns="http://www.w3.org/2000/svg"><path d="M9.020 1.279 C 6.976 1.330,5.856 1.466,4.900 1.779 C 3.060 2.382,1.958 3.688,1.563 5.734 C 1.311 7.042,1.267 7.973,1.267 12.000 C 1.267 16.027,1.311 16.958,1.563 18.266 C 2.013 20.599,3.401 21.987,5.734 22.437 C 7.043 22.690,7.974 22.734,12.000 22.734 C 16.026 22.734,16.957 22.690,18.266 22.437 C 20.599 21.987,21.987 20.599,22.437 18.266 C 22.688 16.966,22.733 16.013,22.733 12.000 C 22.733 7.987,22.688 7.034,22.437 5.734 C 22.098 3.977,21.228 2.756,19.825 2.068 C 18.972 1.650,17.853 1.420,16.180 1.321 C 15.262 1.267,10.607 1.239,9.020 1.279 M16.600 2.836 C 18.439 3.019,19.320 3.320,20.000 4.000 C 20.692 4.693,20.998 5.605,21.168 7.480 C 21.242 8.307,21.242 15.693,21.168 16.520 C 20.996 18.419,20.693 19.311,19.982 20.013 C 19.218 20.769,18.155 21.080,15.940 21.199 C 14.954 21.252,9.046 21.252,8.060 21.199 C 5.843 21.080,4.782 20.769,4.016 20.011 C 3.342 19.345,3.026 18.464,2.852 16.760 C 2.788 16.135,2.780 15.620,2.781 11.980 C 2.782 7.664,2.793 7.353,2.984 6.240 C 3.183 5.082,3.600 4.278,4.272 3.760 C 5.025 3.178,6.058 2.913,8.002 2.802 C 8.872 2.752,16.044 2.780,16.600 2.836 M8.000 8.785 C 7.945 8.796,7.769 8.840,7.608 8.883 C 6.543 9.168,5.640 10.089,5.357 11.180 C 5.242 11.626,5.241 12.373,5.357 12.820 C 5.641 13.926,6.553 14.840,7.680 15.148 C 8.042 15.247,8.955 15.247,9.320 15.149 C 9.954 14.977,10.631 14.534,11.036 14.025 C 11.287 13.710,11.526 13.263,11.601 12.970 L 11.655 12.760 13.208 12.760 L 14.760 12.760 14.761 13.210 C 14.762 13.827,14.857 14.031,15.210 14.178 C 15.405 14.260,15.624 14.255,15.820 14.165 C 16.150 14.013,16.240 13.808,16.240 13.201 L 16.240 12.760 16.674 12.760 C 17.037 12.760,17.118 12.771,17.170 12.830 C 17.220 12.886,17.235 13.033,17.246 13.563 C 17.260 14.204,17.264 14.231,17.367 14.388 C 17.526 14.628,17.721 14.733,18.007 14.733 C 18.203 14.733,18.270 14.714,18.408 14.617 C 18.706 14.406,18.740 14.287,18.740 13.460 C 18.740 12.655,18.707 12.471,18.497 12.120 C 18.279 11.756,17.926 11.468,17.526 11.329 C 17.363 11.273,16.981 11.263,14.497 11.250 L 11.654 11.236 11.601 11.028 C 11.468 10.512,11.023 9.866,10.526 9.472 C 9.927 8.995,9.385 8.800,8.600 8.779 C 8.325 8.772,8.055 8.775,8.000 8.785 M8.773 10.279 C 9.421 10.385,10.000 10.887,10.177 11.497 C 10.258 11.773,10.258 12.227,10.177 12.503 C 9.914 13.410,8.890 13.951,7.978 13.667 C 7.582 13.544,7.132 13.177,6.957 12.835 C 6.753 12.435,6.701 11.915,6.823 11.497 C 6.953 11.048,7.332 10.620,7.780 10.415 C 8.121 10.259,8.409 10.219,8.773 10.279 " stroke="none" fill-rule="evenodd" fill="black"></path></svg>