<svg width="24" height="24" viewBox="0 0 24 24" fill="none" xmlns="http://www.w3.org/2000/svg"><path d="M13.489 2.283 C 11.326 2.449,9.282 3.572,7.970 5.315 C 6.656 7.061,6.153 9.325,6.601 11.476 C 6.645 11.683,6.680 11.899,6.680 11.955 C 6.680 12.037,6.281 12.458,4.707 14.039 C 3.622 15.128,2.677 16.108,2.608 16.216 C 2.435 16.483,2.322 16.800,2.272 17.159 C 2.235 17.422,2.248 17.617,2.372 18.702 C 2.530 20.079,2.573 20.247,2.857 20.629 C 3.139 21.007,3.461 21.262,3.832 21.401 C 4.131 21.513,6.387 21.776,6.749 21.742 C 7.109 21.707,7.469 21.585,7.763 21.397 C 7.941 21.283,8.625 20.628,9.981 19.276 C 11.549 17.712,11.962 17.320,12.045 17.320 C 12.101 17.320,12.317 17.355,12.524 17.399 C 15.922 18.107,19.390 16.433,20.929 13.340 C 22.412 10.359,21.843 6.828,19.503 4.499 C 18.422 3.424,17.037 2.683,15.585 2.403 C 15.205 2.329,14.200 2.231,13.980 2.246 C 13.936 2.249,13.715 2.266,13.489 2.283 M15.309 3.874 C 16.936 4.222,18.302 5.139,19.213 6.493 C 19.631 7.114,19.955 7.896,20.128 8.697 C 20.257 9.293,20.256 10.521,20.126 11.120 C 19.633 13.399,18.045 15.140,15.857 15.802 C 15.240 15.989,14.768 16.054,14.060 16.052 C 13.517 16.050,13.341 16.033,12.900 15.938 C 12.029 15.752,11.521 15.803,11.060 16.123 C 10.972 16.184,10.441 16.694,9.881 17.256 L 8.862 18.279 8.201 17.625 C 7.837 17.265,7.504 16.952,7.460 16.930 C 6.852 16.627,6.165 17.250,6.422 17.871 C 6.460 17.964,6.732 18.270,7.143 18.681 L 7.802 19.343 7.407 19.731 C 7.190 19.944,6.947 20.146,6.867 20.179 C 6.672 20.261,6.540 20.256,5.366 20.124 C 3.939 19.963,4.040 20.072,3.869 18.513 C 3.759 17.512,3.750 17.351,3.795 17.196 C 3.841 17.041,4.093 16.773,5.878 14.980 C 8.015 12.833,8.009 12.839,8.138 12.342 C 8.224 12.012,8.217 11.855,8.091 11.280 C 7.991 10.823,7.981 10.706,7.981 9.920 C 7.980 9.245,7.995 8.987,8.051 8.720 C 8.451 6.821,9.643 5.260,11.349 4.405 C 11.941 4.108,12.487 3.935,13.197 3.818 C 13.682 3.739,14.816 3.769,15.309 3.874 M13.660 7.279 C 12.548 7.417,11.638 8.216,11.335 9.320 C 11.240 9.670,11.239 10.329,11.335 10.680 C 11.599 11.652,12.348 12.401,13.320 12.665 C 13.671 12.761,14.330 12.760,14.680 12.665 C 15.464 12.450,16.141 11.892,16.478 11.183 C 16.666 10.787,16.736 10.467,16.736 10.000 C 16.736 9.347,16.559 8.826,16.167 8.321 C 15.580 7.566,14.606 7.161,13.660 7.279 M14.537 8.878 C 14.787 9.000,15.000 9.212,15.123 9.463 C 15.263 9.747,15.262 10.254,15.122 10.539 C 14.558 11.685,12.840 11.345,12.767 10.074 C 12.758 9.927,12.773 9.738,12.800 9.654 C 12.920 9.276,13.220 8.960,13.591 8.819 C 13.823 8.730,14.296 8.760,14.537 8.878 " fill="#1C274C" stroke="none" fill-rule="evenodd"></path></svg>