<svg width="24" height="24" viewBox="0 0 24 24" fill="none" xmlns="http://www.w3.org/2000/svg"><path d="M14.387 1.281 C 12.538 1.419,10.775 2.250,9.457 3.606 C 8.826 4.255,8.431 4.815,8.037 5.620 C 6.761 8.225,7.080 11.396,8.851 13.713 L 9.014 13.926 5.948 16.993 C 3.798 19.144,2.864 20.104,2.821 20.209 C 2.740 20.405,2.745 20.624,2.835 20.820 C 2.923 21.010,3.012 21.096,3.210 21.178 C 3.555 21.323,3.851 21.221,4.239 20.825 L 4.497 20.561 5.039 21.095 C 5.336 21.389,5.625 21.653,5.680 21.681 C 5.735 21.710,5.881 21.733,6.004 21.733 C 6.499 21.733,6.818 21.317,6.710 20.812 C 6.673 20.639,6.614 20.564,6.116 20.058 L 5.562 19.497 6.032 19.028 L 6.501 18.560 7.001 19.062 C 7.611 19.676,7.697 19.733,8.000 19.733 C 8.499 19.733,8.818 19.319,8.710 18.812 C 8.673 18.639,8.614 18.564,8.116 18.059 L 7.563 17.497 8.819 16.241 L 10.074 14.986 10.287 15.149 C 12.059 16.504,14.379 17.033,16.567 16.581 C 18.600 16.162,20.357 14.955,21.518 13.180 C 22.960 10.976,23.135 8.012,21.963 5.620 C 21.569 4.815,21.174 4.255,20.543 3.606 C 18.926 1.942,16.717 1.108,14.387 1.281 M15.900 2.817 C 17.296 3.031,18.484 3.640,19.464 4.646 C 19.993 5.189,20.274 5.586,20.617 6.272 C 21.450 7.939,21.450 10.061,20.617 11.728 C 20.274 12.414,19.993 12.811,19.464 13.354 C 18.259 14.590,16.723 15.239,15.000 15.239 C 13.277 15.239,11.741 14.590,10.536 13.354 C 10.007 12.811,9.726 12.414,9.383 11.728 C 8.653 10.268,8.556 8.478,9.120 6.892 C 9.584 5.589,10.583 4.360,11.740 3.672 C 12.490 3.225,13.237 2.951,14.060 2.820 C 14.494 2.751,15.460 2.749,15.900 2.817 M14.660 6.278 C 13.776 6.385,13.027 6.901,12.568 7.720 C 12.168 8.434,12.168 9.566,12.568 10.280 C 13.094 11.219,13.953 11.731,15.000 11.731 C 16.047 11.731,16.906 11.219,17.432 10.280 C 17.832 9.566,17.832 8.433,17.432 7.720 C 17.158 7.232,16.764 6.838,16.280 6.567 C 15.867 6.337,15.186 6.215,14.660 6.278 M15.454 7.841 C 15.744 7.950,16.050 8.256,16.159 8.546 C 16.331 9.006,16.227 9.518,15.893 9.857 C 15.594 10.159,15.446 10.220,15.000 10.220 C 14.560 10.220,14.410 10.161,14.125 9.875 C 13.876 9.627,13.790 9.433,13.769 9.080 C 13.746 8.675,13.847 8.404,14.126 8.126 C 14.479 7.773,14.983 7.665,15.454 7.841 " stroke="none" fill-rule="evenodd" fill="black"></path></svg>