<svg width="24" height="24" viewBox="0 0 24 24" fill="none" xmlns="http://www.w3.org/2000/svg"><path d="M9.020 1.279 C 6.976 1.330,5.856 1.466,4.900 1.779 C 3.060 2.382,1.958 3.688,1.563 5.734 C 1.311 7.042,1.267 7.973,1.267 12.000 C 1.267 16.027,1.311 16.958,1.563 18.266 C 2.013 20.599,3.401 21.987,5.734 22.437 C 7.043 22.690,7.974 22.734,12.000 22.734 C 16.026 22.734,16.957 22.690,18.266 22.437 C 20.599 21.987,21.987 20.599,22.437 18.266 C 22.688 16.966,22.733 16.013,22.733 12.000 C 22.733 7.987,22.688 7.034,22.437 5.734 C 22.098 3.977,21.228 2.756,19.825 2.068 C 18.972 1.650,17.853 1.420,16.180 1.321 C 15.262 1.267,10.607 1.239,9.020 1.279 M16.600 2.836 C 18.439 3.019,19.320 3.320,20.000 4.000 C 20.692 4.693,20.998 5.605,21.168 7.480 C 21.242 8.307,21.242 15.693,21.168 16.520 C 20.996 18.419,20.693 19.311,19.982 20.013 C 19.218 20.769,18.155 21.080,15.940 21.199 C 14.954 21.252,9.046 21.252,8.060 21.199 C 5.843 21.080,4.782 20.769,4.016 20.011 C 3.342 19.345,3.026 18.464,2.852 16.760 C 2.788 16.135,2.780 15.620,2.781 11.980 C 2.782 7.664,2.793 7.353,2.984 6.240 C 3.183 5.082,3.600 4.278,4.272 3.760 C 5.025 3.178,6.058 2.913,8.002 2.802 C 8.872 2.752,16.044 2.780,16.600 2.836 M13.772 5.283 C 11.853 5.458,10.270 6.835,9.792 8.746 C 9.719 9.036,9.703 9.216,9.702 9.740 C 9.700 10.381,9.741 10.668,9.895 11.105 L 9.953 11.270 7.815 13.405 C 6.638 14.579,5.616 15.630,5.543 15.740 C 5.345 16.037,5.269 16.291,5.266 16.666 C 5.264 16.963,5.277 17.018,5.410 17.288 C 5.530 17.530,5.638 17.663,6.008 18.024 C 6.502 18.506,6.723 18.641,7.147 18.718 C 7.622 18.804,8.026 18.678,8.450 18.312 C 8.679 18.115,8.681 18.114,8.830 18.165 C 9.048 18.239,9.579 18.231,9.845 18.150 C 10.335 18.000,10.829 17.534,10.980 17.081 C 11.044 16.889,11.053 16.880,11.193 16.879 C 11.415 16.879,11.816 16.773,12.050 16.655 C 12.327 16.515,12.719 16.115,12.856 15.833 C 13.084 15.365,13.084 14.772,12.857 14.282 L 12.759 14.070 12.850 14.097 C 13.457 14.274,14.387 14.329,14.990 14.224 C 16.846 13.902,18.301 12.468,18.666 10.604 C 18.746 10.194,18.745 9.386,18.664 8.957 C 18.232 6.656,16.120 5.069,13.772 5.283 M14.892 6.823 C 15.742 7.010,16.536 7.644,16.942 8.460 C 17.158 8.893,17.238 9.248,17.239 9.772 C 17.240 10.282,17.156 10.652,16.931 11.120 C 16.771 11.454,16.700 11.548,16.344 11.901 C 16.012 12.231,15.879 12.333,15.600 12.472 C 15.102 12.719,14.834 12.778,14.220 12.779 C 13.608 12.780,13.377 12.731,12.960 12.510 C 12.695 12.370,12.638 12.355,12.467 12.374 C 12.203 12.405,12.069 12.498,11.631 12.955 C 10.935 13.679,10.876 14.054,11.356 14.691 C 11.559 14.959,11.578 15.149,11.415 15.277 C 11.243 15.412,11.080 15.385,10.833 15.182 C 10.583 14.976,10.455 14.920,10.236 14.920 C 10.012 14.920,9.846 15.000,9.635 15.212 C 9.290 15.556,9.237 15.833,9.440 16.220 C 9.592 16.509,9.594 16.620,9.450 16.694 C 9.326 16.758,9.194 16.725,9.059 16.600 C 8.959 16.505,8.712 16.400,8.591 16.400 C 8.332 16.401,8.178 16.491,7.798 16.865 C 7.587 17.071,7.399 17.240,7.379 17.240 C 7.325 17.240,6.760 16.670,6.760 16.616 C 6.760 16.591,7.823 15.515,9.122 14.224 C 10.651 12.706,11.505 11.830,11.542 11.740 C 11.634 11.521,11.613 11.319,11.464 10.996 C 11.231 10.491,11.183 10.273,11.183 9.740 C 11.184 9.476,11.206 9.179,11.233 9.080 C 11.549 7.928,12.431 7.064,13.540 6.819 C 13.877 6.745,14.545 6.747,14.892 6.823 " stroke="none" fill-rule="evenodd" fill="black"></path></svg>