<svg width="24" height="24" viewBox="0 0 24 24" fill="none" xmlns="http://www.w3.org/2000/svg"><path d="M6.060 4.280 C 4.347 4.332,3.537 4.511,2.794 4.999 C 1.894 5.589,1.452 6.547,1.313 8.209 C 1.247 8.995,1.247 15.005,1.313 15.791 C 1.506 18.104,2.334 19.172,4.234 19.559 C 5.064 19.728,5.542 19.739,12.000 19.739 C 18.469 19.739,18.924 19.729,19.772 19.557 C 21.372 19.233,22.233 18.372,22.557 16.772 C 22.709 16.024,22.736 15.301,22.736 12.000 C 22.736 8.699,22.709 7.976,22.557 7.228 C 22.179 5.362,21.109 4.517,18.870 4.317 C 18.281 4.264,7.573 4.233,6.060 4.280 M19.136 5.834 C 19.839 5.947,20.366 6.164,20.620 6.445 C 20.793 6.637,20.971 6.999,21.059 7.340 C 21.210 7.927,21.220 8.204,21.220 12.020 C 21.220 15.384,21.213 15.783,21.149 16.186 C 20.935 17.537,20.473 17.976,19.060 18.170 C 18.539 18.242,5.461 18.242,4.940 18.170 C 4.236 18.073,3.748 17.894,3.445 17.620 C 3.147 17.351,2.932 16.806,2.830 16.060 C 2.759 15.547,2.759 8.453,2.830 7.940 C 2.964 6.962,3.236 6.440,3.749 6.171 C 4.171 5.950,4.579 5.853,5.307 5.803 C 6.042 5.751,18.802 5.780,19.136 5.834 M5.664 8.063 C 5.436 8.146,5.257 8.297,5.131 8.511 C 5.036 8.672,5.020 8.744,5.020 9.000 C 5.020 9.256,5.036 9.328,5.131 9.489 C 5.470 10.065,6.234 10.168,6.701 9.701 C 7.092 9.310,7.092 8.690,6.701 8.299 C 6.429 8.027,6.018 7.933,5.664 8.063 M8.667 8.065 C 8.303 8.177,8.000 8.602,8.000 9.000 C 8.000 9.517,8.483 10.000,9.000 10.000 C 9.517 10.000,10.000 9.517,10.000 9.000 C 10.000 8.763,9.880 8.486,9.697 8.303 C 9.416 8.022,9.067 7.942,8.667 8.065 M11.667 8.065 C 11.303 8.177,11.000 8.602,11.000 9.000 C 11.000 9.517,11.483 10.000,12.000 10.000 C 12.517 10.000,13.000 9.517,13.000 9.000 C 13.000 8.598,12.688 8.173,12.310 8.061 C 12.061 7.987,11.919 7.988,11.667 8.065 M14.667 8.065 C 14.303 8.177,14.000 8.602,14.000 9.000 C 14.000 9.517,14.483 10.000,15.000 10.000 C 15.517 10.000,16.000 9.517,16.000 9.000 C 16.000 8.598,15.688 8.173,15.310 8.061 C 15.061 7.987,14.919 7.988,14.667 8.065 M17.667 8.065 C 17.303 8.177,17.000 8.602,17.000 9.000 C 17.000 9.517,17.483 10.000,18.000 10.000 C 18.517 10.000,19.000 9.517,19.000 9.000 C 19.000 8.598,18.688 8.173,18.310 8.061 C 18.061 7.987,17.919 7.988,17.667 8.065 M5.667 11.065 C 5.303 11.177,5.000 11.602,5.000 12.000 C 5.000 12.517,5.483 13.000,6.000 13.000 C 6.517 13.000,7.000 12.517,7.000 12.000 C 7.000 11.598,6.688 11.173,6.310 11.061 C 6.061 10.987,5.919 10.988,5.667 11.065 M8.667 11.065 C 8.303 11.177,8.000 11.602,8.000 12.000 C 8.000 12.517,8.483 13.000,9.000 13.000 C 9.517 13.000,10.000 12.517,10.000 12.000 C 10.000 11.598,9.688 11.173,9.310 11.061 C 9.061 10.987,8.919 10.988,8.667 11.065 M11.667 11.065 C 11.303 11.177,11.000 11.602,11.000 12.000 C 11.000 12.517,11.483 13.000,12.000 13.000 C 12.517 13.000,13.000 12.517,13.000 12.000 C 13.000 11.598,12.688 11.173,12.310 11.061 C 12.061 10.987,11.919 10.988,11.667 11.065 M14.667 11.065 C 14.303 11.177,14.000 11.602,14.000 12.000 C 14.000 12.517,14.483 13.000,15.000 13.000 C 15.517 13.000,16.000 12.517,16.000 12.000 C 16.000 11.598,15.688 11.173,15.310 11.061 C 15.061 10.987,14.919 10.988,14.667 11.065 M17.667 11.065 C 17.303 11.177,17.000 11.602,17.000 12.000 C 17.000 12.517,17.483 13.000,18.000 13.000 C 18.517 13.000,19.000 12.517,19.000 12.000 C 19.000 11.598,18.688 11.173,18.310 11.061 C 18.061 10.987,17.919 10.988,17.667 11.065 M6.815 15.278 C 6.331 15.393,6.098 16.004,6.383 16.408 C 6.447 16.499,6.572 16.610,6.660 16.656 C 6.819 16.740,6.836 16.740,11.880 16.751 C 15.467 16.758,17.002 16.749,17.154 16.717 C 17.902 16.562,17.929 15.473,17.189 15.286 C 16.979 15.233,7.035 15.226,6.815 15.278 " fill="#1C274C" stroke="none" fill-rule="evenodd"></path></svg>