<svg width="24" height="24" viewBox="0 0 24 24" fill="none" xmlns="http://www.w3.org/2000/svg"><path d="M14.300 3.257 C 14.278 3.266,14.211 3.284,14.151 3.297 C 14.004 3.329,13.761 3.548,13.694 3.708 C 13.583 3.973,13.639 4.289,13.833 4.494 C 14.065 4.739,14.057 4.738,15.540 4.760 C 16.864 4.779,16.905 4.782,17.090 4.873 C 17.387 5.020,17.577 5.266,17.674 5.631 C 17.748 5.909,18.720 11.576,18.720 11.729 C 18.720 11.775,18.650 11.804,18.450 11.838 C 18.079 11.902,17.316 12.161,16.933 12.353 C 15.780 12.933,14.730 13.999,14.202 15.127 C 13.997 15.564,13.822 16.100,13.734 16.560 L 13.664 16.920 10.549 16.910 L 7.434 16.900 7.306 16.560 C 7.137 16.114,6.933 15.803,6.584 15.459 C 5.232 14.125,3.019 14.283,1.874 15.795 C 1.125 16.785,1.049 18.147,1.683 19.227 C 1.874 19.552,2.440 20.112,2.780 20.311 C 3.362 20.653,4.111 20.813,4.733 20.730 C 5.501 20.627,6.064 20.345,6.622 19.784 C 6.924 19.480,7.015 19.357,7.171 19.040 C 7.274 18.831,7.370 18.602,7.384 18.531 L 7.410 18.402 11.018 18.391 L 14.626 18.380 14.788 18.273 C 15.029 18.114,15.105 17.916,15.156 17.317 C 15.246 16.255,15.633 15.385,16.346 14.638 C 16.762 14.204,17.093 13.959,17.620 13.698 C 18.165 13.429,18.694 13.288,19.345 13.242 C 19.861 13.205,19.988 13.163,20.167 12.974 C 20.299 12.835,20.360 12.681,20.360 12.490 C 20.360 12.273,19.251 5.735,19.140 5.298 C 18.996 4.727,18.835 4.435,18.460 4.057 C 18.223 3.818,18.057 3.692,17.820 3.571 C 17.313 3.311,17.088 3.279,15.620 3.258 C 14.916 3.248,14.322 3.248,14.300 3.257 M19.340 14.565 C 18.127 14.674,17.093 15.461,16.682 16.587 C 16.377 17.427,16.424 18.211,16.830 19.040 C 16.986 19.359,17.075 19.479,17.378 19.784 C 17.940 20.349,18.512 20.634,19.285 20.731 C 19.908 20.810,20.640 20.651,21.220 20.311 C 21.560 20.112,22.126 19.552,22.317 19.227 C 22.618 18.714,22.790 17.993,22.744 17.438 C 22.601 15.691,21.081 14.409,19.340 14.565 M4.969 16.161 C 5.432 16.337,5.770 16.695,5.923 17.170 C 6.166 17.923,5.811 18.735,5.083 19.091 C 4.838 19.211,4.792 19.220,4.400 19.220 C 4.053 19.220,3.940 19.204,3.749 19.127 C 3.425 18.996,3.076 18.664,2.911 18.327 C 2.789 18.081,2.780 18.033,2.780 17.659 C 2.780 17.274,2.787 17.243,2.931 16.951 C 3.154 16.499,3.558 16.183,4.042 16.081 C 4.291 16.029,4.719 16.066,4.969 16.161 M19.925 16.081 C 20.435 16.177,20.838 16.483,21.069 16.951 C 21.213 17.243,21.220 17.274,21.220 17.659 C 21.220 18.033,21.211 18.081,21.089 18.327 C 20.924 18.664,20.575 18.996,20.251 19.127 C 20.060 19.204,19.947 19.220,19.600 19.220 C 19.208 19.220,19.162 19.211,18.917 19.091 C 18.596 18.934,18.279 18.612,18.128 18.290 C 18.032 18.085,18.020 18.015,18.022 17.640 C 18.023 17.259,18.035 17.198,18.140 16.980 C 18.404 16.439,18.980 16.066,19.585 16.044 C 19.653 16.042,19.806 16.058,19.925 16.081 " fill="#1C274C" stroke="none" fill-rule="evenodd"></path></svg>