<svg width="24" height="24" viewBox="0 0 24 24" fill="none" xmlns="http://www.w3.org/2000/svg"><path d="M5.220 1.285 C 4.213 1.380,3.125 1.923,2.440 2.670 C 1.779 3.391,1.375 4.299,1.285 5.266 C 1.238 5.763,1.266 5.941,1.418 6.141 C 1.566 6.334,1.738 6.416,2.000 6.416 C 2.411 6.416,2.696 6.150,2.737 5.728 C 2.818 4.897,2.892 4.629,3.166 4.175 C 3.566 3.512,4.306 2.972,5.024 2.820 C 5.377 2.745,5.981 2.745,6.340 2.820 C 6.777 2.911,7.298 3.189,7.654 3.522 C 8.210 4.042,8.525 4.663,8.602 5.392 C 8.622 5.584,8.639 8.108,8.639 11.010 C 8.640 16.663,8.638 16.605,8.844 17.418 C 9.298 19.216,10.469 20.783,12.080 21.749 C 13.180 22.409,14.355 22.726,15.700 22.726 C 17.648 22.725,19.395 21.986,20.742 20.594 C 21.796 19.506,22.416 18.259,22.660 16.740 C 22.743 16.218,22.787 14.550,22.725 14.220 C 22.628 13.699,22.270 13.169,21.750 12.779 C 19.919 11.403,16.396 10.896,13.153 11.543 C 12.100 11.752,11.070 12.090,10.410 12.442 L 10.120 12.597 10.120 9.068 C 10.120 6.835,10.104 5.408,10.077 5.180 C 9.992 4.454,9.755 3.818,9.343 3.204 C 8.738 2.304,7.808 1.654,6.740 1.384 C 6.541 1.334,5.667 1.227,5.600 1.245 C 5.589 1.248,5.418 1.266,5.220 1.285 M17.780 12.873 C 18.748 13.023,19.487 13.243,20.227 13.602 C 20.610 13.788,20.769 13.891,20.977 14.090 C 21.214 14.317,21.240 14.357,21.240 14.500 C 21.240 14.643,21.214 14.683,20.977 14.910 C 20.416 15.447,19.117 15.932,17.660 16.148 C 16.924 16.257,14.991 16.247,14.211 16.129 C 12.508 15.871,11.061 15.359,10.482 14.808 C 10.348 14.680,10.240 14.543,10.240 14.500 C 10.240 14.457,10.348 14.320,10.482 14.192 C 11.062 13.640,12.570 13.107,14.191 12.881 C 14.975 12.771,15.028 12.768,16.200 12.781 C 17.020 12.790,17.378 12.810,17.780 12.873 M10.460 16.585 C 11.104 16.920,12.139 17.255,13.153 17.457 C 15.073 17.840,17.272 17.826,18.960 17.419 C 19.701 17.241,20.654 16.899,21.035 16.676 L 21.171 16.596 21.146 16.752 C 21.048 17.364,20.627 18.335,20.202 18.927 C 19.900 19.348,19.252 19.983,18.830 20.272 C 18.170 20.724,17.326 21.056,16.501 21.187 C 16.015 21.264,15.017 21.240,14.560 21.140 C 13.543 20.918,12.607 20.425,11.872 19.726 C 11.062 18.955,10.548 18.075,10.285 17.010 C 10.182 16.591,10.155 16.431,10.190 16.447 C 10.207 16.454,10.328 16.517,10.460 16.585 " stroke="none" fill-rule="evenodd" fill="black"></path></svg>