<svg width="24" height="24" viewBox="0 0 24 24" fill="none" xmlns="http://www.w3.org/2000/svg"><path d="M10.060 1.282 C 8.719 1.325,8.043 1.445,7.371 1.760 C 6.479 2.178,5.789 2.860,5.330 3.780 C 5.026 4.389,4.727 5.368,4.085 7.860 C 3.409 10.480,3.271 11.206,3.270 12.120 C 3.269 13.234,3.533 13.939,4.198 14.600 C 4.767 15.166,5.598 15.501,6.780 15.639 C 7.232 15.692,9.176 15.757,10.350 15.759 L 11.240 15.760 11.240 18.497 L 11.240 21.235 10.007 21.247 L 8.774 21.260 8.612 21.367 C 8.372 21.526,8.267 21.721,8.267 22.007 C 8.267 22.203,8.286 22.270,8.383 22.408 C 8.447 22.499,8.572 22.610,8.660 22.656 C 8.818 22.739,8.865 22.740,11.878 22.751 C 14.020 22.759,15.000 22.749,15.151 22.718 C 15.722 22.599,15.934 21.894,15.522 21.482 C 15.300 21.260,15.166 21.240,13.882 21.240 L 12.760 21.240 12.760 18.506 L 12.760 15.773 14.529 15.745 C 15.502 15.729,16.402 15.706,16.529 15.693 L 16.760 15.669 16.760 16.412 C 16.760 17.202,16.779 17.310,16.953 17.494 C 17.111 17.661,17.273 17.731,17.500 17.731 C 17.727 17.731,17.889 17.661,18.047 17.494 C 18.224 17.307,18.240 17.207,18.240 16.307 L 18.240 15.459 18.583 15.342 C 19.239 15.120,19.859 14.650,20.218 14.103 C 20.831 13.169,20.892 12.019,20.439 9.971 C 20.166 8.740,19.339 5.622,19.059 4.772 C 18.639 3.494,18.104 2.706,17.260 2.123 C 16.683 1.724,16.100 1.503,15.300 1.379 C 14.546 1.263,12.101 1.218,10.060 1.282 M15.120 2.856 C 15.827 2.993,16.229 3.177,16.679 3.570 C 17.067 3.909,17.379 4.449,17.641 5.236 C 18.034 6.418,18.970 10.108,19.162 11.234 C 19.254 11.768,19.264 12.487,19.184 12.786 C 18.961 13.623,18.317 14.022,16.954 14.167 C 16.241 14.243,7.759 14.243,7.046 14.167 C 5.683 14.022,5.039 13.623,4.816 12.786 C 4.736 12.487,4.746 11.768,4.838 11.234 C 5.041 10.046,6.046 6.110,6.409 5.080 C 6.941 3.573,7.754 2.945,9.360 2.802 C 9.569 2.783,10.874 2.773,12.260 2.779 C 14.401 2.789,14.831 2.800,15.120 2.856 " stroke="none" fill-rule="evenodd" fill="black"></path></svg>