<svg width="24" height="24" viewBox="0 0 24 24" fill="none" xmlns="http://www.w3.org/2000/svg"><path d="M11.507 3.284 C 10.766 3.345,10.107 3.510,9.060 3.899 C 8.136 4.242,3.668 6.032,3.006 6.325 C 1.721 6.894,1.273 7.327,1.273 8.000 C 1.273 8.673,1.722 9.106,3.011 9.676 C 3.686 9.974,8.130 11.756,9.060 12.101 C 10.479 12.627,11.420 12.798,12.450 12.716 C 13.606 12.624,14.042 12.481,18.031 10.884 C 21.430 9.522,21.840 9.333,22.297 8.916 C 22.594 8.645,22.727 8.361,22.727 8.000 C 22.727 7.327,22.278 6.894,20.989 6.324 C 20.314 6.026,15.870 4.244,14.940 3.899 C 13.856 3.497,13.252 3.349,12.420 3.281 C 12.156 3.259,11.931 3.244,11.920 3.246 C 11.909 3.249,11.723 3.266,11.507 3.284 M12.785 4.821 C 13.547 4.952,14.030 5.124,17.220 6.400 C 20.156 7.574,21.000 7.932,21.000 8.000 C 21.000 8.068,20.151 8.428,17.320 9.560 C 13.445 11.111,13.035 11.240,12.000 11.240 C 10.965 11.240,10.555 11.111,6.680 9.560 C 3.849 8.428,3.000 8.068,3.000 8.000 C 3.000 7.932,3.844 7.574,6.780 6.400 C 9.924 5.142,10.446 4.955,11.180 4.824 C 11.609 4.748,12.349 4.746,12.785 4.821 M1.801 11.286 C 1.238 11.451,1.076 12.118,1.497 12.539 C 1.832 12.874,2.728 13.443,3.635 13.897 C 4.134 14.147,7.744 15.614,9.060 16.101 C 10.136 16.500,10.755 16.653,11.550 16.716 C 12.580 16.798,13.521 16.627,14.940 16.101 C 16.207 15.632,19.657 14.235,20.227 13.961 C 21.167 13.509,22.143 12.899,22.503 12.539 C 23.001 12.041,22.672 11.260,21.967 11.267 C 21.793 11.269,21.723 11.292,21.587 11.394 C 21.058 11.788,20.280 12.270,19.748 12.533 C 18.821 12.991,14.296 14.789,13.500 15.015 C 12.448 15.315,11.552 15.315,10.500 15.015 C 9.704 14.789,5.179 12.991,4.252 12.533 C 3.730 12.275,3.012 11.832,2.420 11.402 C 2.239 11.270,2.005 11.226,1.801 11.286 M1.801 15.286 C 1.238 15.451,1.076 16.118,1.497 16.539 C 1.832 16.874,2.728 17.443,3.635 17.897 C 4.134 18.147,7.744 19.614,9.060 20.101 C 10.136 20.500,10.755 20.653,11.550 20.716 C 12.580 20.798,13.521 20.627,14.940 20.101 C 16.207 19.632,19.657 18.235,20.227 17.961 C 21.167 17.509,22.143 16.899,22.503 16.539 C 23.001 16.041,22.672 15.260,21.967 15.267 C 21.793 15.269,21.723 15.292,21.587 15.394 C 21.058 15.788,20.280 16.270,19.748 16.533 C 18.821 16.991,14.296 18.789,13.500 19.015 C 12.448 19.315,11.552 19.315,10.500 19.015 C 9.704 18.789,5.179 16.991,4.252 16.533 C 3.730 16.275,3.012 15.832,2.420 15.402 C 2.239 15.270,2.005 15.226,1.801 15.286 " stroke="none" fill-rule="evenodd" fill="black"></path></svg>