<svg width="24" height="24" viewBox="0 0 24 24" fill="none" xmlns="http://www.w3.org/2000/svg"><path d="M11.580 1.285 C 11.089 1.327,10.591 1.478,10.020 1.757 C 7.982 2.752,6.148 4.706,4.887 7.224 C 3.551 9.895,2.974 13.088,3.399 15.460 C 4.075 19.231,7.070 22.135,10.828 22.663 C 11.833 22.804,13.105 22.733,14.110 22.479 C 17.176 21.705,19.646 19.247,20.441 16.180 C 20.799 14.799,20.826 13.137,20.519 11.440 C 19.984 8.482,18.564 5.661,16.629 3.708 C 16.028 3.102,15.536 2.696,14.900 2.283 C 13.639 1.464,12.715 1.186,11.580 1.285 M11.240 12.040 L 11.240 21.200 11.136 21.200 C 10.934 21.200,10.214 21.034,9.756 20.881 C 8.687 20.525,7.759 19.949,6.936 19.130 C 5.787 17.987,5.057 16.530,4.822 14.915 C 4.744 14.381,4.742 13.308,4.817 12.640 C 5.225 9.011,7.057 5.603,9.600 3.742 C 10.091 3.382,11.010 2.885,11.190 2.881 C 11.230 2.880,11.240 4.738,11.240 12.040 M13.380 3.125 C 13.600 3.235,13.951 3.440,14.160 3.579 C 14.529 3.826,15.360 4.500,15.360 4.554 C 15.360 4.569,14.775 5.165,14.060 5.880 L 12.760 7.180 12.760 5.025 L 12.760 2.871 12.870 2.898 C 12.931 2.913,13.160 3.015,13.380 3.125 M16.853 6.320 C 17.147 6.744,17.680 7.635,17.680 7.703 C 17.680 7.724,16.573 8.847,15.220 10.200 L 12.760 12.660 12.760 10.980 L 12.760 9.300 14.570 7.489 L 16.380 5.678 16.470 5.789 C 16.520 5.850,16.692 6.089,16.853 6.320 M18.576 9.837 C 18.674 10.141,18.810 10.622,18.879 10.905 L 19.003 11.420 15.892 14.530 L 12.780 17.640 12.769 16.230 L 12.759 14.821 15.547 12.033 C 17.081 10.499,18.349 9.253,18.367 9.264 C 18.384 9.275,18.478 9.532,18.576 9.837 M19.228 14.180 C 19.167 16.054,18.406 17.794,17.064 19.130 C 16.241 19.949,15.313 20.525,14.244 20.881 C 13.786 21.034,13.066 21.200,12.864 21.200 L 12.760 21.200 12.760 20.510 L 12.760 19.820 15.990 16.590 C 18.301 14.278,19.224 13.379,19.235 13.429 C 19.243 13.468,19.240 13.806,19.228 14.180 " stroke="none" fill-rule="evenodd" fill="black"></path></svg>