<svg width="24" height="24" viewBox="0 0 24 24" fill="none" xmlns="http://www.w3.org/2000/svg"><path d="M7.400 3.283 C 4.821 3.356,3.626 3.697,2.669 4.635 C 1.940 5.348,1.564 6.261,1.379 7.767 C 1.272 8.640,1.218 11.731,1.272 13.870 C 1.330 16.176,1.404 16.875,1.682 17.727 C 2.035 18.808,2.694 19.585,3.673 20.077 C 4.208 20.346,4.970 20.535,5.940 20.640 C 7.413 20.800,16.587 20.800,18.060 20.640 C 19.662 20.467,20.629 20.084,21.365 19.331 C 22.084 18.597,22.438 17.723,22.621 16.233 C 22.727 15.363,22.782 12.270,22.728 10.130 C 22.670 7.834,22.587 7.072,22.302 6.221 C 21.886 4.984,21.016 4.114,19.779 3.698 C 19.005 3.439,18.137 3.331,16.400 3.280 C 14.906 3.237,8.973 3.238,7.400 3.283 M17.340 4.801 C 18.245 4.860,18.701 4.931,19.200 5.089 C 20.137 5.386,20.657 5.927,20.939 6.901 C 21.190 7.768,21.240 8.610,21.240 12.000 C 21.240 15.383,21.190 16.233,20.941 17.093 C 20.716 17.867,20.335 18.380,19.766 18.673 C 19.126 19.002,18.561 19.121,17.260 19.202 C 16.281 19.262,6.621 19.231,6.080 19.165 C 3.790 18.888,3.076 18.157,2.833 15.840 C 2.758 15.128,2.758 8.872,2.833 8.160 C 3.090 5.704,3.897 4.982,6.580 4.804 C 7.289 4.756,16.629 4.754,17.340 4.801 M5.801 7.286 C 5.351 7.418,5.134 7.909,5.338 8.332 C 5.438 8.541,8.618 11.194,9.673 11.948 C 10.663 12.657,11.618 12.948,12.463 12.798 C 13.248 12.659,13.913 12.297,15.107 11.360 C 15.868 10.763,18.578 8.491,18.627 8.409 C 18.808 8.106,18.764 7.724,18.520 7.480 C 18.299 7.259,17.931 7.193,17.668 7.328 C 17.629 7.348,16.945 7.907,16.148 8.570 C 13.596 10.694,13.203 10.986,12.569 11.226 C 12.198 11.368,11.802 11.368,11.431 11.226 C 10.797 10.986,10.404 10.694,7.852 8.570 C 7.055 7.907,6.371 7.348,6.332 7.327 C 6.211 7.264,5.948 7.243,5.801 7.286 " stroke="none" fill-rule="evenodd" fill="black"></path></svg>