<svg width="24" height="24" viewBox="0 0 24 24" fill="none" xmlns="http://www.w3.org/2000/svg"><path d="M9.300 1.283 C 7.612 1.340,6.868 1.566,6.217 2.217 C 5.621 2.813,5.362 3.569,5.294 4.909 C 5.269 5.407,5.262 5.443,5.184 5.459 C 5.138 5.469,4.956 5.507,4.780 5.544 C 3.257 5.863,2.174 6.803,1.698 8.221 C 1.413 9.072,1.330 9.834,1.272 12.130 C 1.236 13.566,1.236 14.434,1.272 15.870 C 1.330 18.176,1.404 18.875,1.682 19.727 C 2.105 21.022,2.978 21.895,4.273 22.318 C 5.402 22.686,6.664 22.758,12.000 22.758 C 17.336 22.758,18.598 22.686,19.727 22.318 C 21.002 21.901,21.880 21.036,22.302 19.779 C 22.588 18.925,22.670 18.167,22.728 15.850 C 22.763 14.408,22.763 13.521,22.728 12.110 C 22.670 9.834,22.586 9.069,22.302 8.221 C 21.826 6.803,20.743 5.863,19.220 5.544 C 19.044 5.507,18.862 5.469,18.816 5.459 C 18.737 5.443,18.730 5.407,18.704 4.898 C 18.634 3.554,18.380 2.813,17.783 2.217 C 17.330 1.763,16.779 1.508,15.979 1.379 C 15.215 1.256,11.612 1.204,9.300 1.283 M15.269 2.798 C 16.699 2.917,17.083 3.301,17.202 4.731 C 17.252 5.345,17.249 9.172,17.198 9.395 C 17.175 9.492,17.100 9.651,17.030 9.748 C 16.911 9.914,15.248 11.329,14.120 12.224 C 13.076 13.052,12.560 13.319,12.000 13.319 C 11.466 13.319,10.966 13.074,10.060 12.367 C 9.080 11.603,7.093 9.919,6.970 9.748 C 6.899 9.649,6.821 9.475,6.797 9.362 C 6.766 9.219,6.758 8.443,6.771 6.828 C 6.788 4.679,6.795 4.472,6.870 4.138 C 7.041 3.371,7.315 3.076,8.020 2.901 C 8.174 2.862,8.462 2.818,8.660 2.801 C 9.189 2.757,14.744 2.755,15.269 2.798 M9.826 5.284 C 9.476 5.366,9.267 5.636,9.267 6.003 C 9.267 6.281,9.387 6.496,9.627 6.645 L 9.780 6.740 11.860 6.753 C 13.338 6.762,14.002 6.752,14.154 6.719 C 14.919 6.552,14.926 5.448,14.162 5.284 C 13.910 5.230,10.056 5.230,9.826 5.284 M5.259 8.190 C 5.293 9.518,5.294 9.627,5.276 9.960 C 5.257 10.330,5.306 10.391,6.373 11.290 C 9.213 13.684,10.046 14.306,10.810 14.601 C 11.633 14.919,12.367 14.919,13.190 14.601 C 13.954 14.306,14.759 13.705,17.629 11.288 C 18.675 10.407,18.742 10.327,18.724 9.990 C 18.718 9.886,18.713 9.715,18.711 9.610 C 18.708 9.411,18.769 6.960,18.777 6.960 C 18.780 6.960,18.916 6.997,19.081 7.042 C 20.073 7.316,20.646 7.889,20.939 8.901 C 21.190 9.768,21.240 10.610,21.240 14.000 C 21.240 17.390,21.190 18.232,20.939 19.099 C 20.553 20.431,19.751 20.967,17.840 21.167 C 17.116 21.244,6.884 21.244,6.160 21.167 C 3.837 20.923,3.100 20.200,2.835 17.900 C 2.769 17.326,2.739 11.675,2.798 10.740 C 2.880 9.435,2.998 8.874,3.329 8.231 C 3.620 7.666,4.166 7.254,4.900 7.045 C 5.054 7.001,5.191 6.964,5.204 6.963 C 5.217 6.961,5.242 7.514,5.259 8.190 M10.826 8.284 C 10.476 8.366,10.267 8.636,10.267 9.003 C 10.267 9.281,10.387 9.496,10.627 9.645 C 10.777 9.738,10.805 9.740,11.860 9.754 C 13.133 9.770,13.293 9.747,13.520 9.520 C 13.929 9.111,13.725 8.405,13.162 8.284 C 12.915 8.231,11.051 8.231,10.826 8.284 " stroke="none" fill-rule="evenodd" fill="black"></path></svg>