<svg width="24" height="24" viewBox="0 0 24 24" fill="none" xmlns="http://www.w3.org/2000/svg"><path d="M18.740 1.266 C 17.415 1.385,16.327 2.085,15.719 3.212 C 15.400 3.803,15.271 4.320,15.271 5.000 C 15.271 5.682,15.400 6.197,15.721 6.792 C 16.078 7.453,16.549 7.923,17.212 8.281 C 17.803 8.600,18.320 8.729,19.000 8.729 C 19.680 8.729,20.197 8.600,20.788 8.281 C 21.451 7.923,21.922 7.453,22.279 6.792 C 22.600 6.197,22.729 5.682,22.729 5.000 C 22.729 4.320,22.600 3.803,22.281 3.212 C 21.832 2.381,21.122 1.779,20.215 1.463 C 19.793 1.316,19.149 1.230,18.740 1.266 M19.578 2.821 C 19.949 2.918,20.274 3.112,20.581 3.419 C 21.041 3.879,21.240 4.356,21.240 5.000 C 21.240 5.644,21.041 6.121,20.581 6.581 C 20.121 7.041,19.644 7.240,19.000 7.240 C 18.356 7.240,17.879 7.041,17.419 6.581 C 16.959 6.121,16.760 5.644,16.760 5.000 C 16.760 4.356,16.959 3.879,17.419 3.419 C 17.719 3.118,18.050 2.919,18.404 2.823 C 18.692 2.746,19.285 2.745,19.578 2.821 M7.400 3.283 C 4.821 3.356,3.626 3.697,2.669 4.635 C 1.940 5.348,1.564 6.261,1.379 7.767 C 1.272 8.640,1.218 11.731,1.272 13.870 C 1.330 16.176,1.404 16.875,1.682 17.727 C 2.035 18.808,2.694 19.585,3.673 20.077 C 4.208 20.346,4.970 20.535,5.940 20.640 C 7.413 20.800,16.587 20.800,18.060 20.640 C 19.662 20.467,20.629 20.084,21.365 19.331 C 22.084 18.597,22.441 17.715,22.620 16.233 C 22.699 15.571,22.768 12.988,22.753 11.240 C 22.741 9.891,22.736 9.812,22.656 9.660 C 22.396 9.161,21.713 9.126,21.382 9.595 L 21.263 9.762 21.251 12.171 C 21.235 15.396,21.180 16.268,20.941 17.093 C 20.716 17.867,20.335 18.380,19.766 18.673 C 19.126 19.002,18.561 19.121,17.260 19.202 C 16.281 19.262,6.621 19.231,6.080 19.165 C 3.790 18.888,3.076 18.157,2.833 15.840 C 2.758 15.128,2.758 8.872,2.833 8.160 C 3.028 6.298,3.552 5.481,4.800 5.088 C 5.692 4.808,6.450 4.761,10.132 4.761 C 12.175 4.760,13.058 4.747,13.189 4.714 C 13.924 4.529,13.904 3.443,13.162 3.284 C 12.928 3.234,9.156 3.233,7.400 3.283 M5.801 7.286 C 5.474 7.382,5.270 7.644,5.267 7.974 C 5.263 8.356,5.283 8.377,6.936 9.752 C 9.214 11.648,9.751 12.058,10.400 12.394 C 11.870 13.155,12.999 12.963,14.721 11.659 C 15.635 10.967,16.427 10.289,16.501 10.134 C 16.747 9.624,16.400 9.067,15.838 9.067 C 15.558 9.067,15.570 9.059,14.740 9.737 C 13.534 10.722,13.084 11.031,12.571 11.226 C 12.198 11.368,11.803 11.368,11.431 11.226 C 10.797 10.986,10.404 10.694,7.852 8.570 C 7.055 7.907,6.371 7.348,6.332 7.327 C 6.211 7.264,5.948 7.243,5.801 7.286 " stroke="none" fill-rule="evenodd" fill="black"></path></svg>