<svg width="24" height="24" viewBox="0 0 24 24" fill="none" xmlns="http://www.w3.org/2000/svg"><path d="M8.110 1.281 C 6.924 1.423,5.921 2.391,5.751 3.558 L 5.704 3.876 5.469 3.964 C 4.462 4.341,3.680 5.443,3.680 6.486 L 3.680 6.758 3.510 6.844 C 2.554 7.326,1.984 8.226,1.837 9.484 C 1.734 10.372,1.803 11.155,2.342 15.200 C 2.733 18.134,2.845 18.884,2.986 19.520 C 3.413 21.444,4.304 22.337,6.076 22.618 C 6.707 22.718,8.413 22.758,12.000 22.758 C 15.587 22.758,17.293 22.718,17.924 22.618 C 19.461 22.374,20.332 21.663,20.806 20.264 C 21.065 19.501,21.165 18.905,21.677 15.060 C 22.193 11.179,22.265 10.358,22.163 9.484 C 22.016 8.225,21.445 7.326,20.490 6.844 L 20.320 6.758 20.320 6.486 C 20.320 5.426,19.524 4.326,18.478 3.942 L 18.297 3.876 18.246 3.548 C 18.114 2.707,17.542 1.930,16.780 1.557 C 16.142 1.245,16.430 1.264,12.180 1.256 C 10.090 1.252,8.259 1.263,8.110 1.281 M15.959 2.827 C 16.225 2.913,16.522 3.178,16.657 3.449 C 16.714 3.563,16.760 3.679,16.760 3.708 C 16.760 3.750,15.886 3.760,12.000 3.760 C 8.114 3.760,7.240 3.750,7.240 3.708 C 7.240 3.583,7.462 3.228,7.640 3.068 C 7.995 2.748,7.751 2.765,11.985 2.762 C 15.409 2.760,15.770 2.766,15.959 2.827 M17.720 5.280 C 18.154 5.362,18.524 5.652,18.715 6.058 C 18.852 6.350,18.839 6.376,18.570 6.343 C 17.404 6.204,6.596 6.204,5.430 6.343 C 5.161 6.376,5.148 6.350,5.285 6.058 C 5.469 5.667,5.848 5.361,6.248 5.283 C 6.500 5.233,17.459 5.231,17.720 5.280 M18.540 7.836 C 19.314 7.941,19.875 8.145,20.173 8.432 C 20.613 8.856,20.773 9.585,20.683 10.760 C 20.569 12.251,19.822 17.897,19.578 19.111 C 19.277 20.612,18.750 21.069,17.171 21.200 C 16.549 21.251,7.451 21.251,6.829 21.200 C 5.461 21.086,4.934 20.749,4.597 19.771 C 4.405 19.214,4.273 18.408,3.843 15.180 C 3.244 10.681,3.195 10.020,3.401 9.215 C 3.496 8.844,3.616 8.629,3.849 8.415 C 4.259 8.036,4.979 7.847,6.240 7.786 C 6.383 7.779,9.128 7.777,12.340 7.781 C 16.648 7.786,18.274 7.801,18.540 7.836 M8.815 17.278 C 8.331 17.393,8.098 18.004,8.383 18.408 C 8.447 18.499,8.572 18.610,8.660 18.656 C 8.818 18.739,8.865 18.740,11.878 18.751 C 14.020 18.759,15.000 18.749,15.151 18.718 C 15.902 18.562,15.931 17.473,15.189 17.286 C 14.979 17.234,9.033 17.226,8.815 17.278 " stroke="none" fill-rule="evenodd" fill="black"></path></svg>