<svg width="24" height="24" viewBox="0 0 24 24" fill="none" xmlns="http://www.w3.org/2000/svg"><path d="M10.680 1.278 C 10.100 1.310,9.724 1.376,9.395 1.505 C 8.904 1.698,8.374 2.169,8.128 2.631 C 7.820 3.208,7.762 3.715,7.761 5.804 L 7.760 7.388 7.490 7.458 C 7.341 7.496,7.049 7.611,6.840 7.712 C 5.919 8.160,5.459 8.963,5.313 10.380 C 5.244 11.053,5.244 16.947,5.313 17.620 C 5.381 18.284,5.491 18.716,5.703 19.152 C 6.000 19.763,6.510 20.208,7.188 20.446 C 7.727 20.636,8.108 20.679,9.706 20.728 L 11.233 20.775 11.246 21.497 C 11.259 22.171,11.266 22.230,11.353 22.369 C 11.710 22.943,12.576 22.812,12.716 22.162 C 12.740 22.049,12.760 21.690,12.760 21.366 L 12.760 20.775 14.290 20.728 C 15.893 20.679,16.273 20.636,16.812 20.446 C 17.490 20.208,18.000 19.763,18.297 19.152 C 18.705 18.312,18.736 17.941,18.736 14.000 C 18.736 10.059,18.705 9.688,18.297 8.848 C 17.940 8.113,17.266 7.620,16.350 7.422 L 16.240 7.398 16.239 5.809 C 16.239 4.935,16.221 4.049,16.199 3.840 C 16.119 3.075,15.922 2.589,15.513 2.142 C 15.113 1.706,14.633 1.455,13.979 1.341 C 13.573 1.270,11.544 1.231,10.680 1.278 M13.960 2.856 C 14.242 2.948,14.557 3.257,14.635 3.520 C 14.727 3.825,14.757 4.405,14.759 5.860 L 14.760 7.260 12.000 7.260 L 9.240 7.260 9.241 5.860 C 9.244 3.801,9.282 3.500,9.589 3.159 C 9.921 2.789,10.086 2.764,12.120 2.776 C 13.551 2.784,13.766 2.793,13.960 2.856 M10.815 4.278 C 10.331 4.393,10.098 5.004,10.383 5.408 C 10.605 5.722,10.676 5.738,11.869 5.753 C 13.122 5.768,13.296 5.744,13.519 5.521 C 13.918 5.122,13.731 4.423,13.189 4.286 C 12.983 4.235,11.025 4.228,10.815 4.278 M15.911 8.852 C 16.331 8.945,16.661 9.105,16.823 9.295 C 17.012 9.515,17.150 9.969,17.200 10.532 C 17.252 11.119,17.251 16.885,17.199 17.473 C 17.150 18.024,17.007 18.491,16.818 18.712 C 16.658 18.898,16.323 19.057,15.891 19.151 C 15.612 19.212,15.215 19.219,12.000 19.219 C 8.019 19.219,8.061 19.221,7.520 18.950 C 7.118 18.749,6.979 18.520,6.828 17.808 C 6.759 17.482,6.759 10.518,6.828 10.192 C 7.008 9.344,7.237 9.072,7.919 8.897 C 8.373 8.781,8.821 8.768,12.240 8.778 C 15.170 8.787,15.659 8.797,15.911 8.852 M11.820 11.276 C 11.754 11.293,11.657 11.332,11.605 11.363 C 11.498 11.426,9.856 13.593,9.797 13.748 C 9.705 13.989,9.771 14.301,9.953 14.494 C 10.173 14.726,10.227 14.738,11.148 14.753 L 11.996 14.767 11.662 15.213 C 11.461 15.482,11.309 15.727,11.283 15.827 C 11.200 16.138,11.338 16.466,11.626 16.644 C 11.815 16.761,12.167 16.767,12.359 16.657 C 12.495 16.578,14.128 14.450,14.203 14.252 C 14.295 14.011,14.229 13.699,14.047 13.506 C 13.827 13.274,13.773 13.262,12.852 13.247 L 12.004 13.233 12.338 12.787 C 12.699 12.305,12.775 12.122,12.724 11.855 C 12.646 11.447,12.223 11.176,11.820 11.276 " stroke="none" fill-rule="evenodd" fill="black"></path></svg>