<svg width="24" height="24" viewBox="0 0 24 24" fill="none" xmlns="http://www.w3.org/2000/svg"><path d="M11.360 1.283 C 8.361 1.487,5.622 3.449,4.425 6.250 C 3.221 9.069,3.679 12.356,5.604 14.700 C 5.965 15.141,6.251 15.428,6.960 16.062 C 7.794 16.809,8.287 17.289,8.462 17.524 C 8.692 17.834,8.724 18.052,8.760 19.560 C 8.792 20.919,8.809 21.063,8.972 21.450 C 9.223 22.042,9.839 22.530,10.509 22.667 C 10.918 22.751,12.947 22.763,13.400 22.685 C 14.112 22.562,14.768 22.064,15.028 21.450 C 15.190 21.067,15.207 20.917,15.240 19.560 C 15.277 18.052,15.309 17.834,15.538 17.524 C 15.711 17.291,16.195 16.820,17.060 16.042 C 17.778 15.397,18.018 15.155,18.395 14.700 C 20.116 12.619,20.685 9.685,19.877 7.067 C 18.989 4.189,16.588 2.020,13.627 1.421 C 13.193 1.333,12.198 1.231,11.920 1.246 C 11.865 1.249,11.613 1.266,11.360 1.283 M12.970 2.822 C 13.746 2.938,14.356 3.136,15.080 3.505 C 18.346 5.172,19.675 9.164,18.062 12.460 C 17.594 13.417,17.159 13.938,15.800 15.170 C 14.303 16.528,14.060 16.845,13.878 17.680 C 13.835 17.879,13.788 18.203,13.774 18.401 L 13.748 18.760 12.000 18.760 L 10.251 18.760 10.224 18.390 C 10.191 17.952,10.074 17.389,9.965 17.143 C 9.743 16.640,9.406 16.263,8.200 15.171 C 7.705 14.722,7.150 14.190,6.967 13.988 C 5.493 12.362,4.916 10.056,5.445 7.900 C 6.103 5.216,8.316 3.223,11.100 2.806 C 11.500 2.746,12.523 2.754,12.970 2.822 M12.448 7.845 C 12.296 7.920,12.144 8.115,11.144 9.515 C 10.522 10.387,9.989 11.144,9.961 11.197 C 9.886 11.340,9.900 11.698,9.987 11.846 C 10.027 11.915,10.129 12.027,10.214 12.096 L 10.367 12.220 11.264 12.232 C 11.757 12.239,12.160 12.255,12.160 12.268 C 12.160 12.281,11.869 12.698,11.514 13.196 C 11.159 13.693,10.844 14.158,10.814 14.229 C 10.707 14.483,10.790 14.874,10.986 15.048 C 11.212 15.249,11.563 15.291,11.841 15.150 C 11.999 15.070,12.131 14.904,12.992 13.700 C 14.240 11.955,14.344 11.798,14.376 11.625 C 14.414 11.426,14.340 11.186,14.189 11.014 C 13.981 10.776,13.902 10.760,12.961 10.760 C 12.499 10.760,12.120 10.750,12.120 10.737 C 12.120 10.725,12.405 10.315,12.754 9.827 C 13.103 9.339,13.418 8.882,13.454 8.812 C 13.583 8.560,13.505 8.140,13.294 7.955 C 13.057 7.747,12.732 7.705,12.448 7.845 M13.726 20.500 C 13.708 20.784,13.653 20.905,13.464 21.071 C 13.277 21.235,13.135 21.249,11.817 21.233 C 10.739 21.220,10.733 21.220,10.589 21.121 C 10.509 21.066,10.410 20.958,10.367 20.881 C 10.291 20.742,10.224 20.310,10.270 20.263 C 10.283 20.250,11.069 20.244,12.017 20.250 L 13.740 20.260 13.726 20.500 " stroke="none" fill-rule="evenodd" fill="black"></path></svg>