<svg width="24" height="24" viewBox="0 0 24 24" fill="none" xmlns="http://www.w3.org/2000/svg"><path d="M11.440 1.283 C 7.815 1.501,4.786 4.072,4.316 7.332 C 4.249 7.797,4.260 8.895,4.338 9.400 C 4.572 10.929,5.243 12.367,6.290 13.580 C 6.499 13.822,6.989 14.317,7.379 14.680 C 7.769 15.043,8.115 15.393,8.149 15.457 C 8.182 15.522,8.234 15.761,8.264 15.990 C 8.335 16.531,8.483 16.849,8.817 17.183 C 9.110 17.476,9.473 17.662,9.864 17.719 C 10.223 17.770,13.777 17.770,14.136 17.719 C 14.529 17.662,14.881 17.480,15.181 17.181 C 15.521 16.840,15.665 16.533,15.736 15.990 C 15.766 15.761,15.818 15.522,15.851 15.457 C 15.885 15.393,16.231 15.043,16.621 14.680 C 17.743 13.636,18.348 12.878,18.859 11.878 C 19.374 10.872,19.636 9.928,19.721 8.773 C 19.810 7.556,19.581 6.397,19.042 5.344 C 17.679 2.680,14.697 1.087,11.440 1.283 M12.980 2.819 C 14.059 2.973,15.177 3.417,15.982 4.010 C 16.377 4.300,17.110 5.047,17.347 5.400 C 17.958 6.308,18.240 7.214,18.240 8.266 C 18.240 9.305,18.032 10.170,17.549 11.140 C 17.092 12.059,16.661 12.592,15.489 13.688 C 14.543 14.572,14.358 14.868,14.270 15.640 C 14.232 15.970,14.212 16.034,14.116 16.130 L 14.006 16.240 12.000 16.240 L 9.994 16.240 9.881 16.127 C 9.784 16.030,9.764 15.971,9.739 15.697 C 9.670 14.949,9.494 14.637,8.724 13.902 C 7.249 12.492,6.889 12.047,6.399 11.028 C 5.961 10.118,5.803 9.473,5.772 8.460 C 5.755 7.923,5.765 7.704,5.818 7.420 C 5.950 6.714,6.238 6.017,6.653 5.400 C 6.891 5.046,7.623 4.300,8.020 4.008 C 8.810 3.426,9.929 2.978,10.980 2.822 C 11.466 2.750,12.488 2.748,12.980 2.819 M9.720 18.805 C 9.458 18.909,9.269 19.200,9.269 19.500 C 9.269 19.807,9.460 20.095,9.733 20.197 C 9.807 20.226,10.575 20.240,12.000 20.240 C 13.425 20.240,14.193 20.226,14.267 20.197 C 14.540 20.095,14.731 19.807,14.731 19.500 C 14.731 19.193,14.540 18.905,14.267 18.803 C 14.119 18.746,9.862 18.748,9.720 18.805 M10.485 21.279 C 10.314 21.321,10.165 21.431,10.051 21.598 C 9.738 22.058,10.038 22.670,10.612 22.740 C 10.726 22.754,11.432 22.760,12.180 22.753 C 13.649 22.739,13.659 22.738,13.868 22.513 C 13.983 22.391,14.080 22.155,14.080 22.000 C 14.080 21.845,13.983 21.609,13.868 21.487 C 13.656 21.260,13.660 21.261,12.080 21.253 C 11.277 21.249,10.559 21.261,10.485 21.279 " stroke="none" fill-rule="evenodd" fill="black"></path></svg>