<svg width="24" height="24" viewBox="0 0 24 24" fill="none" xmlns="http://www.w3.org/2000/svg"><path d="M12.040 1.265 C 11.379 1.340,10.708 1.792,10.422 2.357 C 10.368 2.463,10.195 3.043,10.039 3.645 C 9.693 4.976,9.576 5.331,9.297 5.900 C 8.905 6.700,8.514 7.130,6.980 8.448 C 6.452 8.901,5.953 9.361,5.871 9.469 C 5.658 9.751,5.484 10.147,5.411 10.517 C 5.348 10.838,5.348 10.841,5.774 15.773 C 6.024 18.662,6.226 20.805,6.262 20.942 C 6.359 21.314,6.553 21.662,6.826 21.958 C 7.112 22.267,7.358 22.438,7.715 22.578 C 8.177 22.759,8.359 22.768,11.320 22.749 C 13.655 22.734,14.161 22.720,14.479 22.665 C 17.628 22.121,20.027 20.019,20.853 17.080 C 20.911 16.871,21.134 15.701,21.347 14.480 C 21.771 12.050,21.803 11.728,21.664 11.262 C 21.419 10.442,20.841 9.855,20.000 9.576 C 19.797 9.508,19.563 9.502,16.930 9.489 C 14.477 9.478,14.080 9.468,14.080 9.418 C 14.080 9.386,14.236 8.420,14.426 7.270 C 14.860 4.641,14.889 4.120,14.656 3.161 C 14.436 2.263,13.748 1.567,12.860 1.346 C 12.582 1.276,12.240 1.243,12.040 1.265 M12.562 2.821 C 12.941 2.954,13.123 3.181,13.222 3.643 C 13.358 4.276,13.323 4.688,12.938 7.000 C 12.566 9.235,12.532 9.589,12.655 9.920 C 12.816 10.352,13.172 10.714,13.611 10.894 C 13.816 10.978,13.871 10.980,16.720 11.000 L 19.620 11.020 19.809 11.131 C 20.048 11.272,20.209 11.533,20.229 11.816 C 20.246 12.045,19.537 16.210,19.395 16.720 C 19.085 17.826,18.435 18.857,17.560 19.629 C 16.724 20.366,15.701 20.875,14.548 21.128 C 14.150 21.216,14.069 21.218,11.280 21.231 C 8.051 21.245,8.209 21.259,7.926 20.937 C 7.840 20.840,7.751 20.685,7.726 20.590 C 7.684 20.425,6.880 11.222,6.880 10.898 C 6.880 10.553,7.005 10.402,7.987 9.560 C 9.737 8.060,10.283 7.419,10.783 6.280 C 11.024 5.730,11.157 5.309,11.459 4.140 C 11.606 3.568,11.754 3.059,11.786 3.008 C 11.932 2.778,12.234 2.705,12.562 2.821 M2.745 9.539 C 2.661 9.569,2.539 9.643,2.476 9.704 C 2.223 9.947,2.237 9.560,2.249 15.980 L 2.260 21.820 2.348 22.009 C 2.462 22.254,2.751 22.541,2.991 22.648 C 3.254 22.766,3.710 22.768,3.965 22.653 C 4.366 22.471,4.667 22.072,4.707 21.665 C 4.731 21.434,3.777 10.268,3.713 10.021 C 3.639 9.736,3.287 9.476,2.980 9.482 C 2.936 9.483,2.830 9.508,2.745 9.539 " fill="#1C274C" stroke="none" fill-rule="evenodd"></path></svg>