<svg width="24" height="24" viewBox="0 0 24 24" fill="none" xmlns="http://www.w3.org/2000/svg"><path d="M7.500 5.282 C 4.180 5.512,1.515 8.190,1.283 11.527 C 1.091 14.289,2.572 16.850,5.060 18.060 C 5.897 18.467,6.609 18.651,7.640 18.724 C 7.981 18.749,8.477 18.761,8.742 18.753 C 9.157 18.739,9.244 18.724,9.371 18.646 C 9.870 18.337,9.848 17.588,9.332 17.337 C 9.202 17.274,9.036 17.259,8.200 17.235 C 7.166 17.206,6.896 17.168,6.320 16.971 C 5.745 16.774,5.270 16.518,4.780 16.138 C 3.790 15.371,3.122 14.296,2.853 13.040 C 2.750 12.562,2.750 11.438,2.853 10.960 C 3.046 10.058,3.428 9.281,4.020 8.588 C 4.482 8.046,5.033 7.617,5.670 7.303 C 6.507 6.891,6.943 6.799,8.220 6.766 C 9.173 6.741,9.227 6.735,9.369 6.647 C 9.943 6.290,9.812 5.424,9.162 5.284 C 8.936 5.236,8.185 5.235,7.500 5.282 M14.826 5.284 C 14.476 5.366,14.267 5.636,14.267 6.003 C 14.267 6.281,14.387 6.496,14.627 6.645 C 14.774 6.736,14.821 6.741,15.780 6.766 C 16.486 6.784,16.868 6.812,17.080 6.859 C 18.672 7.215,19.993 8.242,20.697 9.670 C 20.906 10.096,21.050 10.508,21.147 10.960 C 21.250 11.438,21.250 12.562,21.147 13.040 C 20.954 13.942,20.572 14.719,19.980 15.412 C 19.518 15.954,18.967 16.383,18.330 16.697 C 17.498 17.107,17.056 17.200,15.800 17.234 C 14.686 17.264,14.600 17.286,14.383 17.592 C 14.286 17.730,14.267 17.797,14.267 17.993 C 14.267 18.278,14.372 18.474,14.609 18.631 C 14.755 18.728,14.811 18.738,15.255 18.753 C 15.522 18.761,16.019 18.749,16.360 18.724 C 17.391 18.651,18.103 18.467,18.940 18.060 C 21.427 16.851,22.909 14.288,22.717 11.527 C 22.508 8.517,20.306 5.998,17.361 5.400 C 16.677 5.261,15.209 5.194,14.826 5.284 M8.826 11.284 C 8.476 11.366,8.267 11.636,8.267 12.003 C 8.267 12.281,8.387 12.496,8.627 12.645 L 8.780 12.740 12.000 12.740 L 15.220 12.740 15.369 12.647 C 15.943 12.290,15.812 11.424,15.162 11.284 C 14.908 11.230,9.058 11.230,8.826 11.284 " stroke="none" fill-rule="evenodd" fill="black"></path></svg>