<svg width="24" height="24" viewBox="0 0 24 24" fill="none" xmlns="http://www.w3.org/2000/svg"><path d="M6.120 5.280 C 5.023 5.315,4.568 5.359,4.052 5.480 C 2.285 5.896,1.495 6.972,1.315 9.209 C 1.254 9.965,1.254 14.035,1.315 14.791 C 1.477 16.805,2.124 17.851,3.522 18.364 C 4.253 18.631,5.017 18.712,6.980 18.729 C 8.216 18.740,8.220 18.740,8.369 18.647 C 8.870 18.336,8.849 17.589,8.332 17.337 C 8.196 17.270,8.027 17.260,6.720 17.235 C 4.862 17.201,4.421 17.146,3.855 16.883 C 3.260 16.606,2.972 16.094,2.830 15.060 C 2.760 14.553,2.760 9.447,2.830 8.940 C 3.024 7.527,3.463 7.065,4.814 6.851 C 5.209 6.788,5.573 6.780,8.000 6.780 C 10.427 6.780,10.791 6.788,11.186 6.851 C 12.082 6.993,12.558 7.246,12.814 7.716 C 13.131 8.298,13.200 8.792,13.234 10.720 C 13.260 12.207,13.261 12.221,13.355 12.373 C 13.506 12.615,13.718 12.733,14.003 12.733 C 14.203 12.733,14.270 12.714,14.408 12.617 C 14.499 12.553,14.610 12.428,14.656 12.340 C 14.736 12.187,14.740 12.130,14.730 11.000 C 14.717 9.599,14.665 8.763,14.557 8.228 C 14.176 6.345,13.068 5.484,10.820 5.324 C 10.022 5.267,7.321 5.242,6.120 5.280 M15.826 5.283 C 15.475 5.368,15.267 5.636,15.267 6.003 C 15.267 6.281,15.387 6.496,15.627 6.645 C 15.779 6.739,15.793 6.740,17.280 6.766 C 18.344 6.785,18.904 6.811,19.207 6.858 C 20.503 7.055,20.940 7.495,21.149 8.814 C 21.212 9.209,21.220 9.572,21.220 11.980 C 21.220 15.218,21.196 15.496,20.860 16.185 C 20.581 16.756,20.080 17.030,19.060 17.170 C 18.553 17.240,13.447 17.240,12.940 17.170 C 12.236 17.073,11.748 16.894,11.445 16.620 C 11.257 16.450,11.033 16.023,10.941 15.662 C 10.827 15.215,10.792 14.739,10.765 13.280 C 10.740 11.973,10.730 11.804,10.663 11.668 C 10.411 11.151,9.664 11.130,9.353 11.631 C 9.260 11.780,9.260 11.784,9.271 13.020 C 9.288 14.983,9.369 15.747,9.636 16.478 C 10.149 17.876,11.195 18.523,13.209 18.685 C 13.965 18.746,18.035 18.746,18.791 18.685 C 20.798 18.523,21.854 17.874,22.359 16.490 C 22.667 15.646,22.732 14.860,22.732 12.000 C 22.732 9.737,22.693 8.900,22.557 8.228 C 22.173 6.332,21.058 5.474,18.780 5.324 C 17.897 5.266,16.005 5.239,15.826 5.283 " stroke="none" fill-rule="evenodd" fill="black"></path></svg>