<svg width="24" height="24" viewBox="0 0 24 24" fill="none" xmlns="http://www.w3.org/2000/svg"><path d="M7.500 5.282 C 4.181 5.511,1.515 8.190,1.283 11.527 C 1.091 14.289,2.572 16.850,5.060 18.060 C 5.858 18.449,6.634 18.655,7.527 18.717 C 11.250 18.976,14.459 16.188,14.717 12.472 C 14.759 11.869,14.722 11.682,14.520 11.480 C 14.183 11.143,13.612 11.213,13.359 11.621 C 13.290 11.734,13.266 11.857,13.240 12.251 C 13.185 13.063,13.032 13.650,12.697 14.330 C 12.481 14.769,12.312 15.024,11.980 15.412 C 11.228 16.293,10.204 16.898,9.040 17.147 C 8.562 17.250,7.438 17.250,6.960 17.147 C 6.524 17.054,6.101 16.908,5.708 16.716 C 5.288 16.511,5.155 16.429,4.780 16.138 C 3.790 15.371,3.122 14.296,2.853 13.040 C 2.750 12.562,2.750 11.438,2.853 10.960 C 3.046 10.058,3.428 9.281,4.020 8.588 C 4.482 8.046,5.033 7.617,5.670 7.303 C 6.350 6.968,6.937 6.815,7.749 6.760 C 8.281 6.724,8.439 6.665,8.598 6.443 C 8.851 6.088,8.724 5.521,8.352 5.350 C 8.160 5.262,7.993 5.248,7.500 5.282 M15.500 5.284 C 12.541 5.474,9.993 7.710,9.400 10.636 C 9.301 11.128,9.234 11.974,9.278 12.173 C 9.355 12.515,9.640 12.733,10.007 12.733 C 10.203 12.733,10.270 12.714,10.408 12.617 C 10.657 12.441,10.721 12.281,10.760 11.732 C 10.817 10.929,10.972 10.342,11.303 9.670 C 11.519 9.231,11.688 8.976,12.020 8.588 C 12.772 7.707,13.796 7.102,14.960 6.853 C 15.215 6.798,15.474 6.780,16.000 6.780 C 16.526 6.780,16.785 6.798,17.040 6.853 C 18.650 7.197,19.986 8.227,20.697 9.670 C 21.095 10.478,21.220 11.036,21.220 12.000 C 21.220 12.964,21.095 13.522,20.697 14.330 C 20.383 14.967,19.954 15.518,19.412 15.980 C 18.508 16.752,17.512 17.151,16.268 17.240 C 15.719 17.279,15.559 17.343,15.383 17.592 C 15.161 17.906,15.246 18.377,15.566 18.604 C 15.749 18.734,15.922 18.757,16.458 18.719 C 17.371 18.654,18.137 18.451,18.940 18.060 C 21.427 16.851,22.909 14.288,22.717 11.527 C 22.595 9.773,21.803 8.151,20.497 6.983 C 19.116 5.749,17.392 5.163,15.500 5.284 " stroke="none" fill-rule="evenodd" fill="black"></path></svg>