<svg width="24" height="24" viewBox="0 0 24 24" fill="none" xmlns="http://www.w3.org/2000/svg"><path d="M9.620 3.268 C 8.508 3.316,7.391 3.653,6.420 4.232 C 5.792 4.607,5.370 4.983,3.678 6.677 C 1.673 8.683,1.351 9.075,0.893 10.066 C 0.461 11.003,0.274 11.871,0.274 12.940 C 0.275 13.776,0.378 14.409,0.634 15.160 C 1.427 17.483,3.466 19.225,5.883 19.642 C 6.489 19.747,6.898 19.757,7.060 19.671 C 7.409 19.487,7.564 19.078,7.418 18.729 C 7.282 18.404,7.105 18.297,6.604 18.240 C 5.226 18.084,4.154 17.567,3.236 16.614 C 2.854 16.217,2.630 15.904,2.363 15.392 C 1.908 14.520,1.735 13.742,1.772 12.741 C 1.785 12.410,1.824 12.005,1.861 11.840 C 2.003 11.199,2.296 10.508,2.662 9.955 C 2.971 9.489,6.068 6.331,6.670 5.868 C 7.309 5.377,8.068 5.028,8.881 4.853 C 9.394 4.742,10.567 4.752,11.064 4.871 C 13.134 5.365,14.635 6.866,15.129 8.936 C 15.202 9.239,15.217 9.423,15.218 10.040 C 15.220 10.841,15.172 11.175,14.971 11.760 C 14.633 12.747,14.321 13.193,13.110 14.423 C 12.159 15.390,12.040 15.543,12.040 15.800 C 12.040 15.955,12.137 16.191,12.252 16.313 C 12.479 16.557,12.867 16.606,13.168 16.429 C 13.390 16.299,14.986 14.678,15.307 14.257 C 16.050 13.281,16.513 12.182,16.680 11.000 C 16.742 10.563,16.742 9.597,16.680 9.160 C 16.469 7.661,15.803 6.321,14.741 5.259 C 13.385 3.903,11.537 3.184,9.620 3.268 M17.085 4.281 C 16.915 4.320,16.766 4.430,16.651 4.598 C 16.331 5.068,16.641 5.677,17.232 5.739 C 18.437 5.865,19.300 6.191,20.160 6.843 C 20.767 7.303,21.270 7.905,21.637 8.608 C 22.092 9.480,22.265 10.258,22.228 11.259 C 22.196 12.106,22.051 12.693,21.692 13.425 C 21.315 14.195,21.006 14.551,18.955 16.581 C 17.317 18.203,17.031 18.436,16.243 18.781 C 15.534 19.091,15.061 19.198,14.259 19.228 C 12.723 19.285,11.410 18.769,10.320 17.680 C 9.691 17.051,9.294 16.410,9.021 15.586 C 8.812 14.957,8.745 14.464,8.772 13.745 C 8.796 13.108,8.859 12.735,9.029 12.240 C 9.366 11.255,9.679 10.807,10.890 9.577 C 11.841 8.610,11.960 8.457,11.960 8.200 C 11.960 8.045,11.863 7.809,11.748 7.687 C 11.523 7.446,11.130 7.396,10.831 7.571 C 10.609 7.701,9.013 9.323,8.693 9.743 C 7.950 10.719,7.487 11.818,7.320 13.000 C 7.258 13.437,7.258 14.403,7.320 14.840 C 7.612 16.916,8.806 18.716,10.600 19.788 C 11.657 20.420,12.797 20.728,14.080 20.728 C 15.620 20.728,16.911 20.294,18.200 19.344 C 18.725 18.958,21.904 15.779,22.325 15.220 C 23.167 14.103,23.630 12.878,23.717 11.540 C 23.777 10.602,23.670 9.774,23.372 8.860 C 22.623 6.569,20.510 4.756,18.129 4.364 C 17.520 4.263,17.251 4.242,17.085 4.281 " stroke="none" fill-rule="evenodd" fill="black"></path></svg>