<svg width="24" height="24" viewBox="0 0 24 24" fill="none" xmlns="http://www.w3.org/2000/svg"><path d="M7.500 2.282 C 4.180 2.512,1.515 5.190,1.283 8.527 C 1.161 10.272,1.691 11.919,2.824 13.321 C 3.077 13.634,3.254 13.736,3.541 13.733 C 3.877 13.730,4.151 13.524,4.238 13.209 C 4.323 12.905,4.265 12.736,3.928 12.307 C 3.406 11.642,3.071 10.959,2.877 10.160 C 2.753 9.649,2.740 8.488,2.853 7.960 C 3.046 7.058,3.428 6.281,4.020 5.588 C 4.772 4.707,5.796 4.102,6.960 3.853 C 7.270 3.786,7.540 3.780,10.000 3.780 C 12.460 3.780,12.730 3.786,13.040 3.853 C 14.650 4.197,15.986 5.227,16.697 6.670 C 17.095 7.478,17.220 8.036,17.220 9.000 C 17.220 9.964,17.095 10.522,16.697 11.330 C 16.481 11.769,16.312 12.024,15.980 12.412 C 15.241 13.279,14.236 13.878,13.080 14.142 C 12.839 14.197,12.488 14.216,11.300 14.235 C 9.624 14.263,9.615 14.265,9.383 14.592 C 9.286 14.730,9.267 14.797,9.267 14.993 C 9.267 15.279,9.372 15.474,9.612 15.633 L 9.774 15.740 10.770 15.753 C 12.835 15.780,13.784 15.623,14.940 15.060 C 17.427 13.851,18.909 11.288,18.717 8.527 C 18.550 6.116,17.114 3.993,14.940 2.940 C 14.120 2.543,13.360 2.344,12.421 2.279 C 11.802 2.236,8.129 2.239,7.500 2.282 M11.500 8.282 C 8.180 8.512,5.515 11.190,5.283 14.527 C 5.091 17.289,6.572 19.850,9.060 21.060 C 9.865 21.452,10.623 21.653,11.556 21.721 C 12.210 21.769,15.790 21.769,16.444 21.721 C 17.377 21.653,18.135 21.452,18.940 21.060 C 21.123 19.999,22.549 17.889,22.717 15.473 C 22.838 13.740,22.314 12.099,21.190 10.695 C 20.939 10.381,20.740 10.265,20.459 10.267 C 20.123 10.270,19.849 10.476,19.762 10.791 C 19.675 11.102,19.729 11.266,20.051 11.669 C 20.605 12.363,20.907 12.980,21.126 13.861 C 21.248 14.348,21.259 15.519,21.147 16.040 C 20.954 16.942,20.572 17.719,19.980 18.412 C 19.228 19.293,18.204 19.898,17.040 20.147 C 16.730 20.214,16.460 20.220,14.000 20.220 C 11.045 20.220,11.044 20.220,10.320 19.972 C 9.744 19.774,9.270 19.517,8.780 19.138 C 7.790 18.371,7.122 17.296,6.853 16.040 C 6.750 15.562,6.750 14.438,6.853 13.960 C 7.046 13.058,7.428 12.281,8.020 11.588 C 8.759 10.721,9.764 10.122,10.920 9.858 C 11.161 9.802,11.513 9.784,12.720 9.764 C 14.199 9.740,14.222 9.739,14.369 9.647 C 14.943 9.290,14.812 8.424,14.162 8.284 C 13.931 8.235,12.205 8.233,11.500 8.282 " stroke="none" fill-rule="evenodd" fill="black"></path></svg>