<svg width="24" height="24" viewBox="0 0 24 24" fill="none" xmlns="http://www.w3.org/2000/svg"><path d="M14.580 2.268 C 13.195 2.328,11.872 2.806,10.740 3.655 C 10.360 3.940,9.259 5.009,9.170 5.180 C 9.134 5.248,9.107 5.399,9.107 5.528 C 9.106 5.946,9.409 6.240,9.840 6.240 C 9.952 6.240,10.101 6.210,10.171 6.174 C 10.241 6.138,10.579 5.835,10.923 5.501 C 11.600 4.842,11.996 4.550,12.604 4.263 C 13.382 3.895,14.147 3.741,15.055 3.770 C 16.444 3.814,17.610 4.306,18.603 5.268 C 19.643 6.274,20.184 7.498,20.230 8.945 C 20.259 9.853,20.105 10.618,19.737 11.396 C 19.447 12.009,19.155 12.406,18.497 13.080 C 18.164 13.421,17.862 13.758,17.826 13.828 C 17.790 13.898,17.760 14.048,17.760 14.160 C 17.760 14.591,18.054 14.894,18.472 14.893 C 18.601 14.893,18.752 14.866,18.820 14.830 C 18.991 14.741,20.060 13.640,20.345 13.260 C 21.067 12.297,21.514 11.219,21.680 10.040 C 21.742 9.603,21.742 8.637,21.680 8.200 C 21.388 6.127,20.214 4.340,18.419 3.239 C 17.333 2.573,15.900 2.210,14.580 2.268 M5.340 9.117 C 5.274 9.133,5.184 9.166,5.140 9.190 C 4.998 9.267,3.902 10.411,3.655 10.740 C 2.933 11.703,2.486 12.781,2.320 13.960 C 2.258 14.397,2.258 15.363,2.320 15.800 C 2.754 18.878,5.122 21.246,8.200 21.680 C 8.637 21.742,9.603 21.742,10.040 21.680 C 11.219 21.514,12.297 21.067,13.260 20.345 C 13.621 20.074,14.741 18.993,14.818 18.840 C 15.003 18.474,14.866 18.016,14.518 17.839 C 14.327 17.741,14.004 17.735,13.828 17.826 C 13.758 17.862,13.421 18.164,13.080 18.497 C 12.406 19.155,12.009 19.447,11.396 19.737 C 10.192 20.307,8.773 20.399,7.480 19.992 C 6.998 19.841,6.289 19.472,5.890 19.165 C 5.532 18.890,5.054 18.409,4.786 18.052 C 4.521 17.702,4.148 16.966,4.008 16.520 C 3.601 15.227,3.693 13.808,4.263 12.604 C 4.553 11.991,4.845 11.594,5.503 10.920 C 5.836 10.579,6.138 10.242,6.174 10.172 C 6.265 9.996,6.259 9.673,6.161 9.482 C 6.068 9.299,5.922 9.186,5.700 9.125 C 5.523 9.076,5.512 9.076,5.340 9.117 M14.060 9.099 C 14.038 9.107,13.966 9.125,13.900 9.139 C 13.811 9.159,13.207 9.737,11.528 11.413 C 10.289 12.649,9.238 13.721,9.191 13.796 C 9.088 13.962,9.077 14.322,9.170 14.500 C 9.241 14.637,9.374 14.766,9.520 14.842 C 9.681 14.925,10.047 14.907,10.204 14.809 C 10.377 14.701,14.774 10.294,14.842 10.160 C 14.908 10.031,14.908 9.648,14.842 9.520 C 14.769 9.380,14.638 9.242,14.520 9.181 C 14.414 9.126,14.127 9.075,14.060 9.099 " stroke="none" fill-rule="evenodd" fill="black"></path></svg>