<svg width="24" height="24" viewBox="0 0 24 24" fill="none" xmlns="http://www.w3.org/2000/svg"><path d="M16.655 1.280 C 15.837 1.365,15.041 1.687,14.450 2.171 C 14.020 2.524,10.400 6.099,10.334 6.236 C 10.170 6.576,10.297 7.000,10.623 7.202 C 10.797 7.310,11.155 7.327,11.328 7.236 C 11.388 7.205,12.329 6.308,13.420 5.242 C 14.511 4.176,15.504 3.237,15.628 3.155 C 15.752 3.072,16.008 2.955,16.197 2.893 C 16.512 2.789,16.589 2.780,17.140 2.781 C 17.855 2.782,18.186 2.857,18.820 3.163 C 19.318 3.403,19.646 3.651,20.111 4.137 C 20.870 4.931,21.240 5.801,21.240 6.792 C 21.240 7.280,21.137 7.710,20.933 8.076 C 20.775 8.359,20.672 8.466,18.633 10.471 C 17.399 11.685,17.374 11.718,17.409 12.083 C 17.446 12.461,17.749 12.731,18.137 12.731 C 18.251 12.731,18.400 12.702,18.472 12.664 C 18.594 12.601,20.500 10.765,21.445 9.800 C 21.678 9.562,21.956 9.236,22.062 9.077 C 22.570 8.312,22.802 7.367,22.718 6.393 C 22.661 5.732,22.516 5.204,22.217 4.576 C 21.662 3.407,20.581 2.338,19.397 1.785 C 18.511 1.372,17.525 1.190,16.655 1.280 M5.860 3.277 C 5.424 3.384,5.178 3.766,5.283 4.168 C 5.312 4.280,5.708 4.907,6.414 5.958 C 7.607 7.737,7.609 7.738,7.999 7.732 C 8.485 7.725,8.836 7.285,8.717 6.832 C 8.688 6.720,8.292 6.093,7.586 5.042 C 6.691 3.709,6.475 3.411,6.360 3.355 C 6.178 3.267,6.009 3.240,5.860 3.277 M1.785 7.288 C 1.699 7.311,1.563 7.397,1.481 7.479 C 1.187 7.773,1.186 8.226,1.481 8.521 C 1.621 8.661,1.790 8.722,4.704 9.691 C 6.396 10.253,7.829 10.724,7.890 10.737 C 8.077 10.778,8.359 10.681,8.520 10.520 C 8.813 10.227,8.813 9.773,8.519 9.479 C 8.379 9.339,8.209 9.277,5.296 8.308 C 3.604 7.744,2.157 7.275,2.080 7.265 C 2.003 7.254,1.870 7.265,1.785 7.288 M6.013 11.279 C 5.790 11.331,5.665 11.443,4.958 12.220 C 4.127 13.133,3.970 13.339,3.717 13.860 C 2.890 15.559,3.214 17.814,4.537 19.560 C 4.813 19.925,5.405 20.498,5.789 20.772 C 6.871 21.544,8.197 21.882,9.360 21.682 C 10.043 21.565,10.759 21.214,11.275 20.743 C 11.551 20.491,15.544 16.105,15.636 15.953 C 15.749 15.765,15.765 15.443,15.670 15.259 C 15.544 15.018,15.254 14.839,14.991 14.841 C 14.673 14.843,14.624 14.890,12.429 17.290 C 11.273 18.554,10.252 19.652,10.161 19.729 C 9.720 20.108,9.222 20.259,8.520 20.228 C 7.617 20.189,6.853 19.821,6.099 19.063 C 5.248 18.207,4.819 17.242,4.771 16.078 C 4.743 15.383,4.812 15.005,5.061 14.499 C 5.218 14.179,5.326 14.042,6.005 13.299 C 6.772 12.458,6.917 12.253,6.919 12.009 C 6.921 11.754,6.741 11.454,6.520 11.342 C 6.379 11.270,6.162 11.243,6.013 11.279 " stroke="none" fill-rule="evenodd" fill="black"></path></svg>