<svg width="24" height="24" viewBox="0 0 24 24" fill="none" xmlns="http://www.w3.org/2000/svg"><path d="M18.000 1.267 C 17.121 1.340,16.277 1.637,15.503 2.146 C 15.139 2.385,14.827 2.683,12.298 5.215 C 9.278 8.238,9.185 8.343,8.798 9.140 C 8.420 9.917,8.278 10.528,8.274 11.387 C 8.271 11.987,8.326 12.344,8.497 12.855 C 8.695 13.444,9.029 14.006,9.432 14.429 C 9.625 14.630,9.695 14.677,9.863 14.713 C 10.310 14.808,10.707 14.554,10.779 14.124 C 10.822 13.872,10.742 13.677,10.456 13.336 C 9.984 12.770,9.807 12.317,9.772 11.590 C 9.729 10.700,9.929 9.999,10.431 9.280 C 10.651 8.966,15.822 3.763,16.200 3.477 C 16.524 3.231,17.008 2.990,17.400 2.878 C 17.825 2.757,18.592 2.728,19.019 2.816 C 20.051 3.029,20.902 3.862,21.165 4.916 C 21.236 5.201,21.246 5.333,21.229 5.776 C 21.218 6.083,21.181 6.408,21.140 6.560 C 21.055 6.879,20.819 7.397,20.616 7.708 C 20.530 7.840,19.840 8.570,19.018 9.400 C 17.465 10.967,17.450 10.986,17.491 11.345 C 17.544 11.817,18.057 12.127,18.507 11.958 C 18.642 11.907,21.183 9.388,21.524 8.966 C 22.336 7.965,22.718 6.914,22.724 5.671 C 22.729 4.370,22.289 3.313,21.383 2.450 C 20.792 1.887,20.092 1.520,19.305 1.362 C 18.928 1.285,18.315 1.241,18.000 1.267 M13.765 9.280 C 13.380 9.371,13.132 9.799,13.237 10.190 C 13.263 10.285,13.386 10.476,13.543 10.664 C 14.019 11.236,14.240 11.845,14.240 12.591 C 14.240 13.395,14.031 14.058,13.569 14.720 C 13.352 15.031,8.182 20.232,7.800 20.525 C 7.482 20.767,7.001 21.007,6.600 21.121 C 6.176 21.243,5.409 21.272,4.981 21.184 C 4.172 21.017,3.411 20.422,3.043 19.671 C 2.823 19.222,2.748 18.824,2.771 18.224 C 2.782 17.917,2.819 17.592,2.860 17.440 C 2.945 17.121,3.181 16.603,3.384 16.292 C 3.470 16.160,4.160 15.430,4.982 14.600 C 6.535 13.033,6.550 13.014,6.509 12.655 C 6.455 12.171,5.898 11.855,5.463 12.061 C 5.304 12.137,2.602 14.849,2.356 15.180 C 1.686 16.082,1.348 16.972,1.281 18.013 C 1.244 18.581,1.283 19.009,1.417 19.524 C 1.837 21.140,3.139 22.353,4.785 22.662 C 5.249 22.750,6.033 22.752,6.500 22.666 C 7.223 22.535,7.848 22.281,8.497 21.854 C 8.861 21.615,9.173 21.317,11.702 18.785 C 14.722 15.762,14.815 15.657,15.202 14.860 C 15.579 14.085,15.720 13.471,15.724 12.600 C 15.728 11.456,15.381 10.506,14.643 9.646 C 14.374 9.332,14.074 9.207,13.765 9.280 " stroke="none" fill-rule="evenodd" fill="black"></path></svg>