<svg width="24" height="24" viewBox="0 0 24 24" fill="none" xmlns="http://www.w3.org/2000/svg"><path d="M2.826 5.284 C 2.476 5.366,2.267 5.636,2.267 6.003 C 2.267 6.281,2.387 6.496,2.627 6.645 L 2.780 6.740 11.860 6.752 C 18.585 6.761,20.995 6.753,21.154 6.719 C 21.919 6.554,21.926 5.448,21.162 5.284 C 20.904 5.229,3.062 5.229,2.826 5.284 M2.826 9.284 C 2.476 9.366,2.267 9.636,2.267 10.003 C 2.267 10.281,2.387 10.496,2.627 10.645 L 2.780 10.740 11.860 10.752 C 18.585 10.761,20.995 10.753,21.154 10.719 C 21.919 10.554,21.926 9.448,21.162 9.284 C 20.904 9.229,3.062 9.229,2.826 9.284 M19.700 12.816 C 19.529 12.890,19.474 12.957,17.702 15.230 C 16.823 16.358,16.092 17.280,16.078 17.280 C 16.064 17.280,15.698 16.859,15.266 16.345 C 14.407 15.323,14.336 15.263,13.967 15.267 C 13.566 15.271,13.260 15.602,13.266 16.026 C 13.268 16.158,13.297 16.279,13.344 16.354 C 13.386 16.419,13.915 17.062,14.520 17.783 C 15.693 19.180,15.756 19.238,16.100 19.238 C 16.480 19.238,16.427 19.296,18.581 16.535 C 19.677 15.130,20.611 13.918,20.656 13.842 C 20.754 13.676,20.761 13.354,20.669 13.179 C 20.588 13.024,20.409 12.856,20.267 12.803 C 20.116 12.745,19.847 12.751,19.700 12.816 M2.826 13.284 C 2.476 13.366,2.267 13.636,2.267 14.003 C 2.267 14.281,2.387 14.496,2.627 14.645 L 2.780 14.740 6.360 14.753 C 8.961 14.762,9.998 14.752,10.154 14.719 C 10.919 14.553,10.926 13.448,10.162 13.284 C 9.907 13.230,3.059 13.230,2.826 13.284 M2.826 17.284 C 2.476 17.366,2.267 17.636,2.267 18.003 C 2.267 18.281,2.387 18.496,2.627 18.645 L 2.780 18.740 6.360 18.753 C 8.961 18.762,9.998 18.752,10.154 18.719 C 10.919 18.553,10.926 17.448,10.162 17.284 C 9.907 17.230,3.059 17.230,2.826 17.284 " stroke="none" fill-rule="evenodd" fill="black"></path></svg>