<svg width="24" height="24" viewBox="0 0 24 24" fill="none" xmlns="http://www.w3.org/2000/svg"><path d="M2.826 5.284 C 2.476 5.366,2.267 5.636,2.267 6.003 C 2.267 6.281,2.387 6.496,2.627 6.645 L 2.780 6.740 11.860 6.752 C 18.585 6.761,20.995 6.753,21.154 6.719 C 21.919 6.554,21.926 5.448,21.162 5.284 C 20.904 5.229,3.062 5.229,2.826 5.284 M2.826 9.284 C 2.476 9.366,2.267 9.636,2.267 10.003 C 2.267 10.281,2.387 10.496,2.627 10.645 L 2.780 10.740 11.860 10.752 C 18.585 10.761,20.995 10.753,21.154 10.719 C 21.919 10.554,21.926 9.448,21.162 9.284 C 20.904 9.229,3.062 9.229,2.826 9.284 M14.720 12.805 C 14.589 12.857,14.408 13.030,14.331 13.179 C 14.247 13.339,14.252 13.669,14.339 13.841 C 14.378 13.917,14.862 14.434,15.413 14.990 L 16.417 16.000 15.413 17.010 C 14.862 17.566,14.378 18.083,14.339 18.159 C 14.252 18.331,14.247 18.661,14.331 18.821 C 14.521 19.185,14.932 19.336,15.307 19.180 C 15.398 19.142,15.831 18.742,16.477 18.101 L 17.503 17.082 18.461 18.042 C 18.989 18.570,19.486 19.048,19.567 19.104 C 19.939 19.363,20.457 19.232,20.668 18.825 C 20.752 18.661,20.749 18.333,20.661 18.159 C 20.622 18.083,20.138 17.566,19.587 17.010 L 18.583 16.000 19.587 14.990 C 20.138 14.434,20.622 13.917,20.661 13.841 C 20.748 13.669,20.753 13.339,20.669 13.179 C 20.479 12.815,20.068 12.664,19.693 12.820 C 19.602 12.858,19.169 13.257,18.524 13.898 L 17.500 14.916 16.476 13.898 C 15.830 13.256,15.399 12.859,15.307 12.820 C 15.144 12.752,14.870 12.745,14.720 12.805 M2.826 13.284 C 2.476 13.366,2.267 13.636,2.267 14.003 C 2.267 14.281,2.387 14.496,2.627 14.645 L 2.780 14.740 6.860 14.752 C 9.836 14.762,10.998 14.752,11.154 14.719 C 11.919 14.553,11.926 13.448,11.162 13.284 C 10.907 13.229,3.059 13.229,2.826 13.284 M2.826 17.284 C 2.476 17.366,2.267 17.636,2.267 18.003 C 2.267 18.281,2.387 18.496,2.627 18.645 L 2.780 18.740 6.860 18.752 C 9.836 18.762,10.998 18.752,11.154 18.719 C 11.919 18.553,11.926 17.448,11.162 17.284 C 10.907 17.229,3.059 17.229,2.826 17.284 " stroke="none" fill-rule="evenodd" fill="black"></path></svg>