<svg width="24" height="24" viewBox="0 0 24 24" fill="none" xmlns="http://www.w3.org/2000/svg"><path d="M2.826 5.284 C 2.476 5.366,2.267 5.636,2.267 6.003 C 2.267 6.281,2.387 6.496,2.627 6.645 L 2.780 6.740 11.360 6.752 C 17.710 6.761,19.996 6.753,20.154 6.719 C 20.919 6.554,20.926 5.448,20.162 5.284 C 19.904 5.229,3.062 5.229,2.826 5.284 M2.826 10.284 C 2.476 10.366,2.267 10.636,2.267 11.003 C 2.267 11.281,2.387 11.496,2.627 11.645 L 2.780 11.740 6.860 11.752 C 9.836 11.762,10.998 11.752,11.154 11.719 C 11.919 11.553,11.926 10.448,11.162 10.284 C 10.907 10.229,3.059 10.229,2.826 10.284 M14.826 10.286 C 14.626 10.331,14.468 10.445,14.356 10.626 C 14.234 10.823,14.232 11.174,14.351 11.364 C 14.398 11.439,14.887 11.950,15.438 12.499 L 16.439 13.499 15.404 14.539 C 14.835 15.112,14.346 15.625,14.318 15.680 C 14.290 15.735,14.267 15.881,14.267 16.004 C 14.267 16.501,14.700 16.834,15.191 16.715 C 15.364 16.672,15.469 16.580,16.441 15.615 L 17.502 14.561 18.501 15.563 C 19.050 16.113,19.554 16.597,19.620 16.637 C 19.908 16.812,20.277 16.763,20.522 16.518 C 20.705 16.335,20.770 16.093,20.711 15.810 C 20.673 15.632,20.606 15.555,19.617 14.560 L 18.563 13.500 19.617 12.440 C 20.606 11.446,20.673 11.368,20.711 11.190 C 20.832 10.611,20.389 10.168,19.810 10.289 C 19.632 10.327,19.554 10.394,18.559 11.384 L 17.498 12.439 16.479 11.419 C 15.919 10.859,15.406 10.375,15.340 10.345 C 15.166 10.265,15.001 10.246,14.826 10.286 M2.826 15.284 C 2.476 15.366,2.267 15.636,2.267 16.003 C 2.267 16.281,2.387 16.496,2.627 16.645 L 2.780 16.740 6.860 16.752 C 9.836 16.762,10.998 16.752,11.154 16.719 C 11.919 16.553,11.926 15.448,11.162 15.284 C 10.907 15.229,3.059 15.229,2.826 15.284 " stroke="none" fill-rule="evenodd" fill="black"></path></svg>