<svg width="24" height="24" viewBox="0 0 24 24" fill="none" xmlns="http://www.w3.org/2000/svg"><path d="M2.826 5.284 C 2.476 5.366,2.267 5.636,2.267 6.003 C 2.267 6.281,2.387 6.496,2.627 6.645 L 2.780 6.740 11.360 6.752 C 17.710 6.761,19.996 6.753,20.154 6.719 C 20.919 6.554,20.926 5.448,20.162 5.284 C 19.904 5.229,3.062 5.229,2.826 5.284 M2.826 10.284 C 2.476 10.366,2.267 10.636,2.267 11.003 C 2.267 11.281,2.387 11.496,2.627 11.645 L 2.780 11.740 11.360 11.752 C 17.710 11.761,19.996 11.753,20.154 11.719 C 20.919 11.554,20.926 10.448,20.162 10.284 C 19.904 10.229,3.062 10.229,2.826 10.284 M13.785 14.288 C 13.463 14.375,13.197 14.785,13.262 15.093 C 13.326 15.400,13.406 15.479,15.208 17.025 C 16.197 17.873,17.069 18.604,17.146 18.649 C 17.316 18.749,17.648 18.759,17.821 18.669 C 17.886 18.635,18.762 17.902,19.767 17.041 C 21.089 15.907,21.613 15.434,21.664 15.327 C 21.906 14.826,21.539 14.258,20.979 14.266 C 20.867 14.267,20.735 14.291,20.684 14.318 C 20.634 14.345,19.901 14.959,19.057 15.683 C 18.212 16.408,17.511 17.000,17.500 17.000 C 17.489 17.000,16.788 16.408,15.943 15.683 C 15.099 14.959,14.374 14.349,14.334 14.328 C 14.210 14.263,13.949 14.244,13.785 14.288 M2.826 15.284 C 2.476 15.366,2.267 15.636,2.267 16.003 C 2.267 16.281,2.387 16.496,2.627 16.645 L 2.780 16.740 6.360 16.753 C 8.961 16.762,9.998 16.752,10.154 16.719 C 10.919 16.553,10.926 15.448,10.162 15.284 C 9.907 15.230,3.059 15.230,2.826 15.284 " stroke="none" fill-rule="evenodd" fill="black"></path></svg>