<svg width="24" height="24" viewBox="0 0 24 24" fill="none" xmlns="http://www.w3.org/2000/svg"><path d="M2.826 5.284 C 2.476 5.366,2.267 5.636,2.267 6.003 C 2.267 6.281,2.387 6.496,2.627 6.645 L 2.780 6.740 11.860 6.752 C 18.585 6.761,20.995 6.753,21.154 6.719 C 21.919 6.554,21.926 5.448,21.162 5.284 C 20.904 5.229,3.062 5.229,2.826 5.284 M2.826 9.284 C 2.476 9.366,2.267 9.636,2.267 10.003 C 2.267 10.281,2.387 10.496,2.627 10.645 L 2.780 10.740 11.860 10.752 C 18.585 10.761,20.995 10.753,21.154 10.719 C 21.919 10.554,21.926 9.448,21.162 9.284 C 20.904 9.229,3.062 9.229,2.826 9.284 M2.826 13.284 C 2.476 13.366,2.267 13.636,2.267 14.003 C 2.267 14.281,2.387 14.496,2.627 14.645 L 2.780 14.740 6.860 14.752 C 9.836 14.762,10.998 14.752,11.154 14.719 C 11.919 14.553,11.926 13.448,11.162 13.284 C 10.907 13.229,3.059 13.229,2.826 13.284 M17.420 13.260 C 17.398 13.267,17.331 13.284,17.271 13.297 C 17.124 13.329,16.881 13.548,16.814 13.708 C 16.771 13.811,16.760 14.275,16.760 16.005 L 16.760 18.173 16.102 17.525 C 15.729 17.159,15.382 16.852,15.303 16.819 C 14.932 16.664,14.520 16.817,14.331 17.179 C 14.248 17.338,14.252 17.668,14.339 17.841 C 14.430 18.022,16.978 20.570,17.159 20.661 C 17.338 20.751,17.662 20.751,17.841 20.661 C 18.022 20.570,20.570 18.022,20.661 17.841 C 20.748 17.668,20.752 17.338,20.669 17.179 C 20.480 16.817,20.068 16.664,19.697 16.819 C 19.618 16.852,19.271 17.159,18.898 17.525 L 18.240 18.173 18.240 16.009 C 18.240 14.577,18.226 13.807,18.197 13.733 C 18.146 13.597,17.977 13.412,17.840 13.342 C 17.732 13.287,17.485 13.238,17.420 13.260 M2.826 17.284 C 2.476 17.366,2.267 17.636,2.267 18.003 C 2.267 18.281,2.387 18.496,2.627 18.645 L 2.780 18.740 6.860 18.752 C 9.836 18.762,10.998 18.752,11.154 18.719 C 11.919 18.553,11.926 17.448,11.162 17.284 C 10.907 17.229,3.059 17.229,2.826 17.284 " stroke="none" fill-rule="evenodd" fill="black"></path></svg>