<svg width="24" height="24" viewBox="0 0 24 24" fill="none" xmlns="http://www.w3.org/2000/svg"><path d="M2.826 5.284 C 2.476 5.366,2.267 5.636,2.267 6.003 C 2.267 6.281,2.387 6.496,2.627 6.645 L 2.780 6.740 11.360 6.752 C 17.710 6.761,19.996 6.753,20.154 6.719 C 20.919 6.554,20.926 5.448,20.162 5.284 C 19.904 5.229,3.062 5.229,2.826 5.284 M17.420 8.260 C 17.398 8.267,17.331 8.284,17.271 8.297 C 17.124 8.329,16.881 8.548,16.814 8.708 C 16.770 8.813,16.760 9.435,16.760 12.005 L 16.760 15.173 16.102 14.525 C 15.729 14.159,15.382 13.852,15.303 13.819 C 14.932 13.664,14.520 13.817,14.331 14.179 C 14.248 14.338,14.252 14.668,14.339 14.841 C 14.430 15.022,16.978 17.570,17.159 17.661 C 17.338 17.751,17.662 17.751,17.841 17.661 C 18.022 17.570,20.570 15.022,20.661 14.841 C 20.748 14.668,20.752 14.338,20.669 14.179 C 20.480 13.817,20.068 13.664,19.697 13.819 C 19.618 13.852,19.271 14.159,18.898 14.525 L 18.240 15.173 18.240 12.009 C 18.240 9.871,18.226 8.809,18.197 8.733 C 18.146 8.597,17.977 8.412,17.840 8.342 C 17.732 8.287,17.485 8.238,17.420 8.260 M2.826 10.284 C 2.476 10.366,2.267 10.636,2.267 11.003 C 2.267 11.281,2.387 11.496,2.627 11.645 L 2.780 11.740 7.360 11.752 C 10.711 11.762,11.997 11.752,12.154 11.719 C 12.919 11.553,12.926 10.448,12.162 10.284 C 11.906 10.229,3.060 10.229,2.826 10.284 M2.826 15.284 C 2.476 15.366,2.267 15.636,2.267 16.003 C 2.267 16.281,2.387 16.496,2.627 16.645 L 2.780 16.740 6.860 16.752 C 9.836 16.762,10.998 16.752,11.154 16.719 C 11.919 16.553,11.926 15.448,11.162 15.284 C 10.907 15.229,3.059 15.229,2.826 15.284 " stroke="none" fill-rule="evenodd" fill="black"></path></svg>