<svg width="24" height="24" viewBox="0 0 24 24" fill="none" xmlns="http://www.w3.org/2000/svg"><path d="M2.826 5.284 C 2.476 5.366,2.267 5.636,2.267 6.003 C 2.267 6.281,2.387 6.496,2.627 6.645 L 2.780 6.740 11.360 6.752 C 17.710 6.761,19.996 6.753,20.154 6.719 C 20.919 6.554,20.926 5.448,20.162 5.284 C 19.904 5.229,3.062 5.229,2.826 5.284 M17.329 8.279 C 17.257 8.296,17.131 8.357,17.049 8.414 C 16.814 8.577,14.418 11.004,14.339 11.159 C 14.252 11.331,14.247 11.661,14.331 11.821 C 14.520 12.183,14.932 12.336,15.303 12.181 C 15.382 12.148,15.729 11.841,16.102 11.475 L 16.760 10.827 16.760 13.991 C 16.760 16.129,16.774 17.191,16.803 17.267 C 16.905 17.540,17.193 17.731,17.500 17.731 C 17.807 17.731,18.095 17.540,18.197 17.267 C 18.226 17.191,18.240 16.129,18.240 13.990 L 18.240 10.825 18.895 11.472 C 19.279 11.852,19.609 12.145,19.694 12.180 C 20.068 12.336,20.479 12.185,20.669 11.821 C 20.752 11.662,20.748 11.332,20.661 11.159 C 20.575 10.987,18.026 8.431,17.860 8.350 C 17.698 8.270,17.487 8.242,17.329 8.279 M2.826 10.284 C 2.476 10.366,2.267 10.636,2.267 11.003 C 2.267 11.281,2.387 11.496,2.627 11.645 L 2.780 11.740 6.860 11.752 C 9.836 11.762,10.998 11.752,11.154 11.719 C 11.919 11.553,11.926 10.448,11.162 10.284 C 10.907 10.229,3.059 10.229,2.826 10.284 M2.826 15.284 C 2.476 15.366,2.267 15.636,2.267 16.003 C 2.267 16.281,2.387 16.496,2.627 16.645 L 2.780 16.740 7.360 16.752 C 10.711 16.762,11.997 16.752,12.154 16.719 C 12.919 16.553,12.926 15.448,12.162 15.284 C 11.906 15.229,3.060 15.229,2.826 15.284 " stroke="none" fill-rule="evenodd" fill="black"></path></svg>