<svg width="24" height="24" viewBox="0 0 24 24" fill="none" xmlns="http://www.w3.org/2000/svg"><path d="M2.826 5.284 C 2.476 5.366,2.267 5.636,2.267 6.003 C 2.267 6.281,2.387 6.496,2.627 6.645 L 2.780 6.740 11.860 6.752 C 18.585 6.761,20.995 6.753,21.154 6.719 C 21.919 6.554,21.926 5.448,21.162 5.284 C 20.904 5.229,3.062 5.229,2.826 5.284 M2.826 9.284 C 2.476 9.366,2.267 9.636,2.267 10.003 C 2.267 10.281,2.387 10.496,2.627 10.645 L 2.780 10.740 11.860 10.752 C 18.585 10.761,20.995 10.753,21.154 10.719 C 21.919 10.554,21.926 9.448,21.162 9.284 C 20.904 9.229,3.062 9.229,2.826 9.284 M2.826 13.284 C 2.476 13.366,2.267 13.636,2.267 14.003 C 2.267 14.281,2.387 14.496,2.627 14.645 L 2.780 14.740 6.860 14.752 C 9.836 14.762,10.998 14.752,11.154 14.719 C 11.919 14.553,11.926 13.448,11.162 13.284 C 10.907 13.229,3.059 13.229,2.826 13.284 M17.329 13.279 C 17.257 13.296,17.131 13.357,17.049 13.414 C 16.814 13.577,14.418 16.004,14.339 16.159 C 14.252 16.331,14.247 16.661,14.331 16.821 C 14.520 17.183,14.932 17.336,15.303 17.181 C 15.382 17.148,15.729 16.841,16.102 16.475 L 16.760 15.827 16.760 17.991 C 16.760 19.423,16.774 20.193,16.803 20.267 C 16.905 20.540,17.193 20.731,17.500 20.731 C 17.807 20.731,18.095 20.540,18.197 20.267 C 18.226 20.193,18.240 19.422,18.240 17.990 L 18.240 15.825 18.895 16.472 C 19.279 16.852,19.609 17.145,19.694 17.180 C 20.068 17.336,20.479 17.185,20.669 16.821 C 20.752 16.662,20.748 16.332,20.661 16.159 C 20.575 15.987,18.026 13.431,17.860 13.350 C 17.698 13.270,17.487 13.242,17.329 13.279 M2.826 17.284 C 2.476 17.366,2.267 17.636,2.267 18.003 C 2.267 18.281,2.387 18.496,2.627 18.645 L 2.780 18.740 6.860 18.752 C 9.836 18.762,10.998 18.752,11.154 18.719 C 11.919 18.553,11.926 17.448,11.162 17.284 C 10.907 17.229,3.059 17.229,2.826 17.284 " stroke="none" fill-rule="evenodd" fill="black"></path></svg>