<svg width="24" height="24" viewBox="0 0 24 24" fill="none" xmlns="http://www.w3.org/2000/svg"><path d="M2.826 5.284 C 2.476 5.366,2.267 5.636,2.267 6.003 C 2.267 6.281,2.387 6.496,2.627 6.645 L 2.780 6.740 11.860 6.752 C 18.585 6.761,20.995 6.753,21.154 6.719 C 21.919 6.554,21.926 5.448,21.162 5.284 C 20.904 5.229,3.062 5.229,2.826 5.284 M2.826 9.284 C 2.476 9.366,2.267 9.636,2.267 10.003 C 2.267 10.281,2.387 10.496,2.627 10.645 L 2.780 10.740 11.860 10.752 C 18.585 10.761,20.995 10.753,21.154 10.719 C 21.919 10.554,21.926 9.448,21.162 9.284 C 20.904 9.229,3.062 9.229,2.826 9.284 M15.376 12.278 C 14.297 12.445,13.508 13.273,13.301 14.459 C 13.225 14.895,13.225 15.142,13.300 15.495 C 13.421 16.066,13.633 16.496,14.074 17.065 C 14.576 17.713,15.625 18.659,16.459 19.216 C 17.142 19.672,17.858 19.672,18.541 19.216 C 19.623 18.493,20.757 17.398,21.271 16.578 C 21.455 16.286,21.630 15.837,21.705 15.468 C 21.781 15.092,21.758 14.643,21.640 14.180 C 21.197 12.448,19.422 11.748,17.808 12.668 L 17.500 12.844 17.360 12.759 C 16.721 12.372,15.961 12.188,15.376 12.278 M2.826 13.284 C 2.476 13.366,2.267 13.636,2.267 14.003 C 2.267 14.281,2.387 14.496,2.627 14.645 L 2.780 14.740 6.360 14.753 C 8.961 14.762,9.998 14.752,10.154 14.719 C 10.919 14.553,10.926 13.448,10.162 13.284 C 9.907 13.230,3.059 13.230,2.826 13.284 M16.326 13.908 C 16.466 13.974,16.712 14.138,16.874 14.274 C 17.137 14.495,17.296 14.570,17.500 14.570 C 17.704 14.570,17.863 14.495,18.126 14.274 C 18.288 14.138,18.537 13.972,18.680 13.904 C 18.904 13.797,18.985 13.780,19.263 13.780 C 19.549 13.780,19.605 13.793,19.753 13.890 C 20.165 14.163,20.356 14.872,20.164 15.417 C 19.934 16.073,18.923 17.134,17.791 17.909 C 17.556 18.069,17.509 18.088,17.427 18.050 C 17.185 17.940,16.288 17.213,15.814 16.742 C 15.057 15.990,14.760 15.491,14.760 14.968 C 14.760 14.410,15.038 13.924,15.432 13.797 C 15.641 13.729,16.055 13.781,16.326 13.908 M2.826 17.284 C 2.476 17.366,2.267 17.636,2.267 18.003 C 2.267 18.281,2.387 18.496,2.627 18.645 L 2.780 18.740 6.360 18.753 C 8.961 18.762,9.998 18.752,10.154 18.719 C 10.919 18.553,10.926 17.448,10.162 17.284 C 9.907 17.230,3.059 17.230,2.826 17.284 " fill="#1C274C" stroke="none" fill-rule="evenodd"></path></svg>