<svg width="24" height="24" viewBox="0 0 24 24" fill="none" xmlns="http://www.w3.org/2000/svg"><path d="M2.826 5.284 C 2.476 5.366,2.267 5.636,2.267 6.003 C 2.267 6.281,2.387 6.496,2.627 6.645 L 2.780 6.740 11.360 6.752 C 17.710 6.761,19.996 6.753,20.154 6.719 C 20.919 6.554,20.926 5.448,20.162 5.284 C 19.904 5.229,3.062 5.229,2.826 5.284 M2.826 10.284 C 2.476 10.366,2.267 10.636,2.267 11.003 C 2.267 11.281,2.387 11.496,2.627 11.645 L 2.780 11.740 11.360 11.752 C 17.710 11.761,19.996 11.753,20.154 11.719 C 20.919 11.554,20.926 10.448,20.162 10.284 C 19.904 10.229,3.062 10.229,2.826 10.284 M17.327 14.280 C 17.140 14.324,17.123 14.337,15.170 16.013 C 13.897 17.104,13.387 17.566,13.336 17.673 C 13.296 17.755,13.264 17.913,13.264 18.029 C 13.262 18.423,13.602 18.740,14.021 18.734 C 14.133 18.733,14.265 18.709,14.316 18.682 C 14.366 18.655,15.099 18.041,15.943 17.317 C 16.788 16.592,17.487 16.000,17.496 16.000 C 17.506 16.000,18.176 16.569,18.987 17.265 C 19.797 17.960,20.528 18.575,20.610 18.630 C 20.922 18.839,21.383 18.738,21.615 18.409 C 21.756 18.211,21.776 17.905,21.664 17.673 C 21.613 17.566,21.089 17.093,19.767 15.959 C 18.762 15.098,17.895 14.370,17.840 14.342 C 17.698 14.269,17.482 14.243,17.327 14.280 M2.826 15.284 C 2.476 15.366,2.267 15.636,2.267 16.003 C 2.267 16.281,2.387 16.496,2.627 16.645 L 2.780 16.740 6.860 16.752 C 9.836 16.762,10.998 16.752,11.154 16.719 C 11.919 16.553,11.926 15.448,11.162 15.284 C 10.907 15.229,3.059 15.229,2.826 15.284 " stroke="none" fill-rule="evenodd" fill="black"></path></svg>