<svg width="24" height="24" viewBox="0 0 24 24" fill="none" xmlns="http://www.w3.org/2000/svg"><path d="M16.819 3.276 C 16.753 3.293,16.650 3.338,16.592 3.376 C 16.533 3.414,15.775 4.394,14.906 5.553 C 13.763 7.078,13.315 7.706,13.283 7.827 C 13.200 8.138,13.338 8.466,13.626 8.644 C 13.825 8.767,14.173 8.768,14.371 8.646 C 14.462 8.589,14.812 8.159,15.366 7.418 L 16.220 6.279 16.230 9.139 C 16.236 10.713,16.236 13.287,16.230 14.861 L 16.220 17.721 15.366 16.582 C 14.812 15.841,14.462 15.411,14.371 15.354 C 14.173 15.232,13.825 15.233,13.626 15.356 C 13.338 15.534,13.200 15.862,13.283 16.173 C 13.343 16.401,16.425 20.519,16.630 20.646 C 16.825 20.767,17.175 20.767,17.370 20.646 C 17.572 20.522,20.657 16.400,20.714 16.180 C 20.796 15.863,20.660 15.533,20.374 15.356 C 20.175 15.233,19.827 15.232,19.629 15.354 C 19.538 15.411,19.188 15.841,18.634 16.582 L 17.780 17.721 17.770 14.861 C 17.764 13.287,17.764 10.713,17.770 9.139 L 17.780 6.279 18.634 7.418 C 19.188 8.159,19.538 8.589,19.629 8.646 C 19.827 8.768,20.175 8.767,20.374 8.644 C 20.660 8.467,20.796 8.137,20.714 7.820 C 20.661 7.612,17.572 3.478,17.386 3.365 C 17.236 3.274,16.987 3.235,16.819 3.276 M3.826 6.284 C 3.476 6.366,3.267 6.636,3.267 7.003 C 3.267 7.281,3.387 7.496,3.627 7.645 L 3.780 7.740 7.360 7.753 C 9.961 7.762,10.998 7.752,11.154 7.719 C 11.919 7.553,11.926 6.448,11.162 6.284 C 10.907 6.230,4.059 6.230,3.826 6.284 M3.826 11.284 C 3.476 11.366,3.267 11.636,3.267 12.003 C 3.267 12.281,3.387 12.496,3.627 12.645 L 3.780 12.740 7.360 12.753 C 9.961 12.762,10.998 12.752,11.154 12.719 C 11.919 12.553,11.926 11.448,11.162 11.284 C 10.907 11.230,4.059 11.230,3.826 11.284 M3.826 16.284 C 3.476 16.366,3.267 16.636,3.267 17.003 C 3.267 17.281,3.387 17.496,3.627 17.645 L 3.780 17.740 7.360 17.753 C 9.961 17.762,10.998 17.752,11.154 17.719 C 11.919 17.553,11.926 16.448,11.162 16.284 C 10.907 16.230,4.059 16.230,3.826 16.284 " stroke="none" fill-rule="evenodd" fill="black"></path></svg>