<svg width="24" height="24" viewBox="0 0 24 24" fill="none" xmlns="http://www.w3.org/2000/svg"><path d="M2.826 5.284 C 2.476 5.366,2.267 5.636,2.267 6.003 C 2.267 6.281,2.387 6.496,2.627 6.645 L 2.780 6.740 11.360 6.752 C 17.710 6.761,19.996 6.753,20.154 6.719 C 20.919 6.554,20.926 5.448,20.162 5.284 C 19.904 5.229,3.062 5.229,2.826 5.284 M2.826 10.284 C 2.476 10.366,2.267 10.636,2.267 11.003 C 2.267 11.281,2.387 11.496,2.627 11.645 L 2.780 11.740 6.360 11.753 C 8.961 11.762,9.998 11.752,10.154 11.719 C 10.919 11.553,10.926 10.448,10.162 10.284 C 9.907 10.230,3.059 10.230,2.826 10.284 M19.815 10.277 C 19.746 10.294,19.638 10.345,19.575 10.390 C 19.512 10.436,18.704 11.445,17.780 12.634 C 16.856 13.823,16.089 14.792,16.076 14.788 C 16.062 14.784,15.758 14.429,15.400 14.000 C 14.400 12.804,14.351 12.760,14.000 12.760 C 13.778 12.760,13.603 12.841,13.451 13.014 C 13.229 13.266,13.195 13.578,13.358 13.862 C 13.453 14.028,15.491 16.448,15.643 16.576 C 15.939 16.825,16.368 16.790,16.647 16.494 C 16.706 16.431,17.635 15.249,18.713 13.866 C 20.832 11.147,20.811 11.179,20.717 10.829 C 20.692 10.736,20.637 10.612,20.595 10.553 C 20.437 10.331,20.093 10.209,19.815 10.277 M2.826 15.284 C 2.476 15.366,2.267 15.636,2.267 16.003 C 2.267 16.281,2.387 16.496,2.627 16.645 L 2.780 16.740 6.360 16.753 C 8.961 16.762,9.998 16.752,10.154 16.719 C 10.919 16.553,10.926 15.448,10.162 15.284 C 9.907 15.230,3.059 15.230,2.826 15.284 " stroke="none" fill-rule="evenodd" fill="black"></path></svg>