<svg width="24" height="24" viewBox="0 0 24 24" fill="none" xmlns="http://www.w3.org/2000/svg"><path d="M11.500 1.284 C 9.131 1.441,6.989 2.896,5.940 5.060 C 5.422 6.131,5.244 7.050,5.241 8.683 L 5.240 9.307 4.801 9.355 C 2.833 9.568,1.783 10.472,1.437 12.249 C 1.303 12.937,1.269 13.691,1.269 16.000 C 1.269 18.309,1.303 19.063,1.437 19.751 C 1.750 21.356,2.644 22.250,4.251 22.564 C 5.103 22.730,5.534 22.740,12.000 22.740 C 18.466 22.740,18.897 22.730,19.749 22.564 C 21.352 22.251,22.232 21.376,22.557 19.772 C 22.693 19.100,22.732 18.263,22.732 16.000 C 22.732 13.737,22.693 12.900,22.557 12.228 C 22.233 10.628,21.373 9.768,19.772 9.443 C 18.951 9.276,18.393 9.262,12.427 9.261 L 6.753 9.260 6.771 8.240 C 6.790 7.156,6.820 6.930,7.028 6.320 C 7.247 5.680,7.571 5.113,8.020 4.588 C 8.772 3.707,9.796 3.102,10.960 2.853 C 11.470 2.744,12.689 2.754,13.161 2.871 C 14.232 3.136,15.105 3.645,15.851 4.438 C 16.395 5.016,16.752 5.632,17.005 6.427 C 17.074 6.643,17.174 6.879,17.227 6.950 C 17.609 7.461,18.443 7.248,18.543 6.615 C 18.591 6.306,18.258 5.359,17.857 4.664 C 17.095 3.347,15.864 2.274,14.480 1.718 C 13.619 1.373,12.535 1.215,11.500 1.284 M19.240 10.854 C 20.524 11.079,20.942 11.508,21.149 12.814 C 21.212 13.209,21.220 13.572,21.220 15.980 C 21.220 18.755,21.205 19.093,21.059 19.660 C 20.971 20.001,20.793 20.363,20.620 20.555 C 20.351 20.853,19.806 21.068,19.060 21.170 C 18.539 21.242,5.461 21.242,4.940 21.170 C 4.435 21.101,4.145 21.021,3.815 20.860 C 3.244 20.581,2.970 20.080,2.830 19.060 C 2.760 18.553,2.760 13.447,2.830 12.940 C 2.964 11.962,3.236 11.440,3.749 11.171 C 4.169 10.951,4.583 10.854,5.340 10.801 C 5.582 10.784,8.723 10.774,12.320 10.779 C 18.211 10.787,18.898 10.794,19.240 10.854 M7.673 15.063 C 7.312 15.174,7.000 15.609,7.000 16.000 C 7.000 16.524,7.476 17.000,8.000 17.000 C 8.520 17.000,9.000 16.520,9.000 16.000 C 9.000 15.598,8.688 15.173,8.310 15.061 C 8.062 14.987,7.919 14.988,7.673 15.063 M11.673 15.063 C 11.312 15.174,11.000 15.609,11.000 16.000 C 11.000 16.524,11.476 17.000,12.000 17.000 C 12.520 17.000,13.000 16.520,13.000 16.000 C 13.000 15.598,12.688 15.173,12.310 15.061 C 12.062 14.987,11.919 14.988,11.673 15.063 M15.673 15.063 C 15.312 15.174,15.000 15.609,15.000 16.000 C 15.000 16.524,15.476 17.000,16.000 17.000 C 16.520 17.000,17.000 16.520,17.000 16.000 C 17.000 15.598,16.688 15.173,16.310 15.061 C 16.062 14.987,15.919 14.988,15.673 15.063 " stroke="none" fill-rule="evenodd" fill="black"></path></svg>