<svg width="24" height="24" viewBox="0 0 24 24" fill="none" xmlns="http://www.w3.org/2000/svg"><path d="M11.500 1.284 C 9.138 1.436,6.989 2.895,5.940 5.060 C 5.422 6.131,5.244 7.050,5.241 8.683 L 5.240 9.307 4.801 9.355 C 2.833 9.568,1.783 10.472,1.437 12.249 C 1.303 12.937,1.269 13.691,1.269 16.000 C 1.269 18.309,1.303 19.063,1.437 19.751 C 1.750 21.356,2.644 22.250,4.251 22.564 C 5.103 22.730,5.534 22.740,12.000 22.740 C 18.466 22.740,18.897 22.730,19.749 22.564 C 21.352 22.251,22.232 21.376,22.557 19.772 C 22.693 19.100,22.732 18.263,22.732 16.000 C 22.732 13.140,22.667 12.354,22.359 11.510 C 21.890 10.225,20.882 9.537,19.199 9.355 L 18.760 9.307 18.759 8.683 C 18.756 7.051,18.579 6.132,18.060 5.060 C 17.306 3.502,15.969 2.284,14.356 1.686 C 13.445 1.348,12.525 1.219,11.500 1.284 M13.080 2.859 C 14.672 3.215,15.993 4.242,16.697 5.670 C 16.792 5.863,16.915 6.155,16.972 6.320 C 17.180 6.930,17.210 7.156,17.229 8.240 L 17.247 9.260 12.000 9.260 L 6.753 9.260 6.771 8.240 C 6.790 7.156,6.820 6.930,7.028 6.320 C 7.152 5.958,7.424 5.399,7.617 5.107 C 7.964 4.584,8.584 3.964,9.107 3.617 C 9.613 3.281,10.356 2.976,10.940 2.864 C 11.116 2.831,11.296 2.795,11.340 2.784 C 11.526 2.740,12.789 2.794,13.080 2.859 M19.240 10.854 C 20.524 11.079,20.942 11.508,21.149 12.814 C 21.212 13.209,21.220 13.572,21.220 15.980 C 21.220 18.755,21.205 19.093,21.059 19.660 C 20.971 20.001,20.793 20.363,20.620 20.555 C 20.351 20.853,19.806 21.068,19.060 21.170 C 18.539 21.242,5.461 21.242,4.940 21.170 C 4.435 21.101,4.145 21.021,3.815 20.860 C 3.244 20.581,2.970 20.080,2.830 19.060 C 2.760 18.553,2.760 13.447,2.830 12.940 C 2.964 11.962,3.236 11.440,3.749 11.171 C 4.169 10.951,4.583 10.854,5.340 10.801 C 5.582 10.784,8.723 10.774,12.320 10.779 C 18.211 10.787,18.898 10.794,19.240 10.854 M11.807 13.289 C 11.556 13.343,11.341 13.570,11.281 13.846 C 11.248 13.998,11.238 14.663,11.247 16.143 L 11.260 18.226 11.367 18.388 C 11.526 18.628,11.721 18.733,12.007 18.733 C 12.203 18.733,12.270 18.714,12.408 18.617 C 12.499 18.553,12.610 18.428,12.656 18.340 C 12.738 18.185,12.740 18.120,12.752 16.123 C 12.759 14.763,12.749 13.997,12.720 13.865 C 12.626 13.424,12.258 13.192,11.807 13.289 " stroke="none" fill-rule="evenodd" fill="black"></path></svg>