<svg width="24" height="24" viewBox="0 0 24 24" fill="none" xmlns="http://www.w3.org/2000/svg"><path d="M11.815 3.278 C 11.331 3.393,11.098 4.004,11.383 4.408 C 11.569 4.671,11.715 4.723,12.371 4.762 C 14.220 4.872,15.825 5.589,17.118 6.882 C 18.158 7.922,18.832 9.184,19.128 10.647 C 19.208 11.040,19.220 11.220,19.220 12.000 C 19.220 12.780,19.208 12.960,19.128 13.353 C 18.832 14.816,18.158 16.078,17.118 17.118 C 15.820 18.416,14.209 19.132,12.349 19.238 C 11.813 19.268,11.743 19.280,11.604 19.373 C 11.372 19.526,11.267 19.724,11.267 20.007 C 11.267 20.203,11.286 20.270,11.383 20.408 C 11.582 20.689,11.736 20.742,12.320 20.729 C 14.781 20.675,17.252 19.440,18.811 17.484 C 19.798 16.246,20.426 14.799,20.661 13.220 C 20.739 12.695,20.751 11.473,20.682 10.940 C 20.402 8.757,19.306 6.716,17.680 5.349 C 16.364 4.243,14.716 3.517,13.080 3.324 C 12.591 3.267,11.960 3.244,11.815 3.278 M10.815 8.277 C 10.639 8.320,10.461 8.456,10.356 8.626 C 10.234 8.823,10.232 9.174,10.351 9.364 C 10.398 9.439,10.824 9.887,11.298 10.360 L 12.161 11.220 7.970 11.240 L 3.780 11.260 3.627 11.355 C 3.385 11.506,3.267 11.718,3.267 12.003 C 3.267 12.203,3.286 12.270,3.383 12.408 C 3.448 12.499,3.572 12.610,3.660 12.656 C 3.819 12.739,3.858 12.740,7.990 12.760 L 12.161 12.780 11.298 13.640 C 10.824 14.113,10.398 14.561,10.351 14.636 C 10.218 14.848,10.233 15.195,10.383 15.408 C 10.447 15.499,10.568 15.608,10.651 15.651 C 10.837 15.747,11.139 15.753,11.326 15.664 C 11.402 15.628,12.181 14.879,13.068 13.989 C 14.596 12.456,14.673 12.371,14.711 12.190 C 14.737 12.065,14.737 11.935,14.711 11.810 C 14.673 11.629,14.596 11.544,13.068 10.011 C 12.185 9.126,11.409 8.376,11.342 8.344 C 11.176 8.266,10.966 8.239,10.815 8.277 " stroke="none" fill-rule="evenodd" fill="black"></path></svg>