<svg width="24" height="24" viewBox="0 0 24 24" fill="none" xmlns="http://www.w3.org/2000/svg"><path d="M13.060 1.279 C 11.724 1.323,11.167 1.401,10.519 1.638 C 9.240 2.105,8.554 3.085,8.360 4.720 C 8.288 5.331,8.240 6.951,8.287 7.174 C 8.423 7.814,9.293 7.941,9.645 7.372 C 9.731 7.233,9.738 7.167,9.765 6.254 C 9.781 5.721,9.805 5.180,9.820 5.052 C 9.901 4.317,10.095 3.760,10.379 3.446 C 10.649 3.147,11.193 2.933,11.940 2.830 C 12.451 2.759,18.549 2.759,19.060 2.830 C 19.565 2.899,19.855 2.979,20.185 3.140 C 20.756 3.419,21.030 3.920,21.170 4.940 C 21.242 5.461,21.242 18.539,21.170 19.060 C 21.101 19.565,21.021 19.855,20.860 20.185 C 20.581 20.756,20.080 21.030,19.060 21.170 C 18.549 21.241,12.451 21.241,11.940 21.170 C 11.193 21.067,10.649 20.853,10.379 20.554 C 10.095 20.240,9.901 19.683,9.820 18.948 C 9.805 18.820,9.781 18.279,9.765 17.746 C 9.738 16.833,9.731 16.767,9.645 16.628 C 9.293 16.059,8.423 16.186,8.287 16.826 C 8.240 17.049,8.288 18.669,8.360 19.280 C 8.586 21.187,9.473 22.202,11.228 22.557 C 11.943 22.702,12.720 22.734,15.500 22.734 C 18.895 22.734,19.608 22.681,20.490 22.359 C 21.881 21.851,22.525 20.796,22.689 18.754 C 22.760 17.878,22.760 6.122,22.689 5.246 C 22.475 2.584,21.430 1.521,18.832 1.320 C 18.121 1.266,14.312 1.238,13.060 1.279 M12.265 8.297 C 12.066 8.370,11.854 8.576,11.796 8.752 C 11.732 8.947,11.770 9.246,11.879 9.399 C 11.929 9.469,12.419 9.912,12.967 10.383 L 13.964 11.239 7.872 11.249 L 1.780 11.260 1.631 11.353 C 1.130 11.664,1.151 12.408,1.668 12.664 C 1.814 12.737,2.039 12.741,7.878 12.760 L 13.936 12.780 12.998 13.586 C 12.482 14.029,12.012 14.443,11.953 14.506 C 11.514 14.972,11.853 15.731,12.500 15.731 C 12.611 15.731,12.755 15.703,12.821 15.669 C 13.016 15.568,16.490 12.576,16.619 12.398 C 16.719 12.262,16.739 12.197,16.738 12.008 C 16.738 11.854,16.712 11.736,16.659 11.646 C 16.580 11.511,13.106 8.500,12.867 8.359 C 12.688 8.253,12.450 8.229,12.265 8.297 " stroke="none" fill-rule="evenodd" fill="black"></path></svg>