<svg width="24" height="24" viewBox="0 0 24 24" fill="none" xmlns="http://www.w3.org/2000/svg"><path d="M12.060 1.279 C 10.724 1.323,10.167 1.401,9.519 1.638 C 8.619 1.967,8.001 2.565,7.674 3.424 L 7.551 3.747 6.586 3.773 C 4.898 3.818,4.239 3.958,3.565 4.417 C 2.940 4.842,2.547 5.532,2.380 6.500 C 2.284 7.053,2.242 8.758,2.242 12.000 C 2.242 15.242,2.284 16.947,2.380 17.500 C 2.661 19.126,3.548 19.945,5.260 20.156 C 5.458 20.180,6.054 20.212,6.586 20.227 L 7.551 20.253 7.674 20.576 C 8.081 21.646,8.911 22.289,10.233 22.559 C 10.933 22.701,11.685 22.732,14.480 22.733 C 17.282 22.734,18.053 22.703,18.772 22.557 C 20.372 22.233,21.233 21.372,21.557 19.772 C 21.729 18.925,21.739 18.468,21.739 12.000 C 21.739 5.532,21.729 5.075,21.557 4.228 C 21.176 2.349,20.081 1.494,17.832 1.320 C 17.121 1.266,13.312 1.238,12.060 1.279 M18.119 2.835 C 18.786 2.936,19.264 3.117,19.555 3.380 C 19.743 3.550,19.968 3.977,20.060 4.340 C 20.218 4.960,20.220 5.078,20.220 12.020 C 20.220 18.254,20.215 18.772,20.149 19.186 C 19.935 20.537,19.473 20.976,18.060 21.170 C 17.549 21.241,11.451 21.241,10.940 21.170 C 10.236 21.073,9.748 20.894,9.445 20.620 C 9.257 20.450,9.033 20.023,8.941 19.662 C 8.827 19.215,8.792 18.739,8.765 17.280 C 8.740 15.973,8.730 15.804,8.663 15.668 C 8.411 15.151,7.667 15.123,7.361 15.619 C 7.242 15.811,7.229 16.094,7.272 17.520 C 7.292 18.191,7.302 18.747,7.295 18.756 C 7.263 18.794,5.357 18.676,5.100 18.621 C 4.300 18.449,3.989 18.091,3.831 17.160 C 3.757 16.725,3.757 7.275,3.831 6.840 C 3.989 5.909,4.300 5.551,5.100 5.379 C 5.357 5.324,7.263 5.206,7.295 5.244 C 7.302 5.253,7.292 5.809,7.272 6.480 C 7.229 7.906,7.242 8.189,7.361 8.381 C 7.663 8.870,8.414 8.842,8.663 8.332 C 8.730 8.196,8.740 8.027,8.765 6.720 C 8.799 4.862,8.854 4.421,9.117 3.855 C 9.428 3.187,10.042 2.892,11.307 2.802 C 12.010 2.752,17.753 2.780,18.119 2.835 M12.180 8.835 C 11.990 8.923,11.904 9.012,11.822 9.210 C 11.740 9.406,11.745 9.625,11.837 9.820 C 11.881 9.915,12.164 10.231,12.536 10.600 L 13.161 11.220 9.468 11.240 L 5.774 11.260 5.612 11.367 C 5.372 11.526,5.267 11.721,5.267 12.007 C 5.267 12.203,5.286 12.270,5.383 12.408 C 5.447 12.499,5.572 12.610,5.660 12.656 C 5.818 12.739,5.865 12.740,9.491 12.760 L 13.161 12.780 12.536 13.400 C 11.884 14.048,11.762 14.221,11.762 14.500 C 11.762 14.680,11.870 14.946,11.986 15.048 C 12.202 15.241,12.552 15.289,12.820 15.164 C 12.926 15.114,13.437 14.629,14.326 13.735 C 15.600 12.452,15.673 12.370,15.711 12.190 C 15.737 12.065,15.737 11.935,15.711 11.810 C 15.673 11.630,15.600 11.548,14.326 10.265 C 13.437 9.371,12.926 8.886,12.820 8.836 C 12.617 8.742,12.384 8.741,12.180 8.835 " stroke="none" fill-rule="evenodd" fill="black"></path></svg>