<svg width="24" height="24" viewBox="0 0 24 24" fill="none" xmlns="http://www.w3.org/2000/svg"><path d="M13.060 1.279 C 11.724 1.323,11.167 1.401,10.519 1.638 C 9.240 2.105,8.554 3.085,8.360 4.720 C 8.288 5.331,8.240 6.951,8.287 7.174 C 8.423 7.814,9.293 7.941,9.645 7.372 C 9.731 7.233,9.738 7.167,9.765 6.254 C 9.781 5.721,9.805 5.180,9.820 5.052 C 9.901 4.317,10.095 3.760,10.379 3.446 C 10.649 3.147,11.193 2.933,11.940 2.830 C 12.451 2.759,18.549 2.759,19.060 2.830 C 19.565 2.899,19.855 2.979,20.185 3.140 C 20.756 3.419,21.030 3.920,21.170 4.940 C 21.242 5.461,21.242 18.539,21.170 19.060 C 21.101 19.565,21.021 19.855,20.860 20.185 C 20.581 20.756,20.080 21.030,19.060 21.170 C 18.549 21.241,12.451 21.241,11.940 21.170 C 11.193 21.067,10.649 20.853,10.379 20.554 C 10.095 20.240,9.901 19.683,9.820 18.948 C 9.805 18.820,9.781 18.279,9.765 17.746 C 9.738 16.833,9.731 16.767,9.645 16.628 C 9.293 16.059,8.423 16.186,8.287 16.826 C 8.240 17.049,8.288 18.669,8.360 19.280 C 8.586 21.187,9.473 22.202,11.228 22.557 C 11.943 22.702,12.720 22.734,15.500 22.734 C 18.895 22.734,19.608 22.681,20.490 22.359 C 21.881 21.851,22.525 20.796,22.689 18.754 C 22.760 17.878,22.760 6.122,22.689 5.246 C 22.475 2.584,21.430 1.521,18.832 1.320 C 18.121 1.266,14.312 1.238,13.060 1.279 M5.331 8.279 C 5.260 8.296,5.153 8.341,5.094 8.380 C 4.822 8.558,1.411 11.526,1.341 11.646 C 1.235 11.827,1.235 12.173,1.341 12.354 C 1.423 12.493,4.898 15.503,5.146 15.649 C 5.317 15.750,5.648 15.759,5.825 15.668 C 6.004 15.575,6.192 15.344,6.223 15.178 C 6.260 14.978,6.220 14.726,6.130 14.603 C 6.089 14.547,5.600 14.108,5.045 13.630 L 4.036 12.760 9.496 12.760 C 13.332 12.760,15.017 12.747,15.162 12.716 C 15.904 12.557,15.924 11.471,15.189 11.286 C 15.054 11.252,13.545 11.240,9.520 11.240 L 4.036 11.240 5.045 10.370 C 5.600 9.892,6.089 9.453,6.130 9.397 C 6.296 9.170,6.269 8.761,6.072 8.537 C 5.872 8.309,5.602 8.215,5.331 8.279 " stroke="none" fill-rule="evenodd" fill="black"></path></svg>