<svg width="24" height="24" viewBox="0 0 24 24" fill="none" xmlns="http://www.w3.org/2000/svg"><path d="M12.060 1.279 C 11.083 1.310,10.404 1.381,9.947 1.500 C 8.798 1.799,8.035 2.451,7.650 3.464 L 7.542 3.748 6.581 3.773 C 4.898 3.818,4.238 3.959,3.565 4.417 C 2.940 4.842,2.547 5.532,2.380 6.500 C 2.284 7.053,2.242 8.758,2.242 12.000 C 2.242 15.242,2.284 16.947,2.380 17.500 C 2.661 19.126,3.548 19.945,5.260 20.156 C 5.458 20.180,6.052 20.212,6.581 20.226 L 7.542 20.252 7.650 20.536 C 7.984 21.414,8.615 22.032,9.510 22.359 C 10.393 22.681,11.071 22.732,14.480 22.733 C 17.282 22.734,18.053 22.703,18.772 22.557 C 20.372 22.233,21.233 21.372,21.557 19.772 C 21.729 18.925,21.739 18.468,21.739 12.000 C 21.739 5.532,21.729 5.075,21.557 4.228 C 21.176 2.349,20.081 1.494,17.832 1.320 C 17.125 1.266,13.320 1.238,12.060 1.279 M18.119 2.835 C 18.786 2.936,19.264 3.117,19.555 3.380 C 19.743 3.550,19.968 3.977,20.060 4.340 C 20.218 4.960,20.220 5.078,20.220 12.020 C 20.220 18.254,20.215 18.772,20.149 19.186 C 19.935 20.537,19.473 20.976,18.060 21.170 C 17.549 21.241,11.451 21.241,10.940 21.170 C 10.193 21.067,9.649 20.853,9.379 20.554 C 9.095 20.240,8.901 19.683,8.820 18.948 C 8.805 18.820,8.781 18.279,8.765 17.746 C 8.738 16.833,8.731 16.767,8.645 16.628 C 8.385 16.207,7.824 16.136,7.480 16.480 C 7.263 16.697,7.241 16.852,7.278 17.880 C 7.294 18.353,7.302 18.747,7.294 18.756 C 7.263 18.794,5.357 18.676,5.100 18.621 C 4.300 18.449,3.989 18.091,3.831 17.160 C 3.757 16.725,3.757 7.275,3.831 6.840 C 3.989 5.909,4.300 5.551,5.100 5.379 C 5.357 5.324,7.263 5.206,7.294 5.244 C 7.302 5.253,7.294 5.647,7.278 6.120 C 7.241 7.148,7.263 7.303,7.480 7.520 C 7.824 7.864,8.385 7.793,8.645 7.372 C 8.731 7.233,8.738 7.167,8.765 6.254 C 8.806 4.858,8.873 4.387,9.099 3.896 C 9.263 3.539,9.454 3.326,9.749 3.171 C 10.170 2.950,10.577 2.854,11.307 2.802 C 12.010 2.752,17.753 2.780,18.119 2.835 M7.900 9.260 C 7.878 9.267,7.806 9.285,7.740 9.300 C 7.653 9.319,7.315 9.630,6.528 10.413 C 5.927 11.011,5.397 11.561,5.351 11.636 C 5.235 11.822,5.235 12.178,5.351 12.364 C 5.397 12.439,5.927 12.988,6.528 13.585 C 7.553 14.605,7.632 14.673,7.810 14.711 C 8.389 14.832,8.833 14.388,8.710 13.812 C 8.675 13.649,8.614 13.567,8.249 13.192 L 7.827 12.760 11.392 12.760 C 13.844 12.760,15.020 12.746,15.162 12.716 C 15.904 12.557,15.924 11.471,15.189 11.286 C 15.056 11.253,14.003 11.240,11.416 11.240 L 7.827 11.240 8.249 10.808 C 8.615 10.432,8.675 10.351,8.711 10.186 C 8.785 9.835,8.633 9.480,8.352 9.350 C 8.213 9.286,7.968 9.237,7.900 9.260 " stroke="none" fill-rule="evenodd" fill="black"></path></svg>