<svg width="24" height="24" viewBox="0 0 24 24" fill="none" xmlns="http://www.w3.org/2000/svg"><path d="M11.360 3.280 C 8.983 3.446,6.739 4.615,5.216 6.481 C 4.233 7.684,3.579 9.182,3.338 10.780 C 3.248 11.377,3.248 12.623,3.338 13.220 C 3.589 14.885,4.272 16.399,5.349 17.680 C 6.627 19.200,8.515 20.272,10.529 20.622 C 11.065 20.715,11.938 20.763,12.174 20.713 C 12.684 20.605,12.905 19.963,12.580 19.536 C 12.419 19.325,12.244 19.270,11.620 19.235 C 9.796 19.134,8.173 18.409,6.882 17.118 C 5.842 16.078,5.168 14.817,4.873 13.360 C 4.792 12.959,4.780 12.784,4.780 12.000 C 4.780 11.216,4.792 11.041,4.873 10.640 C 5.168 9.183,5.842 7.922,6.882 6.882 C 8.173 5.591,9.780 4.872,11.624 4.763 C 12.022 4.739,12.232 4.708,12.337 4.659 C 12.838 4.421,12.868 3.661,12.387 3.364 C 12.220 3.261,11.947 3.239,11.360 3.280 M16.815 8.278 C 16.640 8.320,16.462 8.455,16.356 8.626 C 16.234 8.823,16.232 9.174,16.351 9.364 C 16.398 9.439,16.824 9.887,17.298 10.360 L 18.161 11.220 13.970 11.240 L 9.780 11.260 9.627 11.355 C 9.385 11.506,9.267 11.718,9.267 12.003 C 9.267 12.203,9.286 12.270,9.383 12.408 C 9.447 12.499,9.572 12.610,9.660 12.656 C 9.819 12.739,9.858 12.740,13.990 12.760 L 18.161 12.780 17.298 13.640 C 16.824 14.113,16.398 14.561,16.351 14.636 C 16.218 14.848,16.233 15.195,16.383 15.408 C 16.448 15.499,16.568 15.608,16.651 15.651 C 16.837 15.747,17.139 15.753,17.326 15.664 C 17.402 15.628,18.181 14.879,19.068 13.989 C 20.596 12.456,20.673 12.371,20.711 12.190 C 20.737 12.065,20.737 11.935,20.711 11.810 C 20.673 11.629,20.596 11.544,19.068 10.011 C 18.185 9.126,17.409 8.376,17.342 8.345 C 17.176 8.269,16.965 8.242,16.815 8.278 " stroke="none" fill-rule="evenodd" fill="black"></path></svg>