<svg width="24" height="24" viewBox="0 0 24 24" fill="none" xmlns="http://www.w3.org/2000/svg"><path d="M16.140 1.596 C 15.848 1.732,15.727 1.907,15.457 2.585 L 15.208 3.213 14.601 3.456 C 13.936 3.723,13.736 3.858,13.604 4.131 C 13.489 4.368,13.489 4.752,13.604 4.989 C 13.737 5.264,13.935 5.397,14.601 5.662 L 15.209 5.903 15.458 6.533 C 15.727 7.213,15.838 7.374,16.141 7.520 C 16.502 7.695,17.067 7.569,17.301 7.262 C 17.356 7.190,17.513 6.855,17.650 6.517 L 17.900 5.902 18.500 5.660 C 19.194 5.380,19.275 5.332,19.417 5.118 C 19.644 4.774,19.644 4.346,19.417 4.002 C 19.275 3.789,19.196 3.742,18.500 3.459 L 17.900 3.214 17.650 2.602 C 17.513 2.264,17.356 1.930,17.301 1.858 C 17.069 1.554,16.505 1.427,16.140 1.596 M5.499 2.280 C 3.997 2.441,2.754 3.519,2.374 4.992 C 2.295 5.299,2.274 5.481,2.273 5.860 C 2.272 6.404,2.333 6.749,2.515 7.222 C 2.791 7.936,2.527 7.656,9.435 14.565 C 16.344 21.473,16.064 21.209,16.778 21.485 C 17.251 21.667,17.596 21.728,18.140 21.727 C 18.519 21.726,18.701 21.705,19.008 21.626 C 20.304 21.291,21.291 20.304,21.626 19.008 C 21.705 18.701,21.726 18.519,21.727 18.140 C 21.728 17.596,21.667 17.251,21.485 16.778 C 21.209 16.064,21.473 16.344,14.565 9.435 C 7.656 2.527,7.936 2.791,7.222 2.515 C 6.676 2.305,6.057 2.220,5.499 2.280 M16.795 3.143 C 17.124 3.970,17.152 3.998,18.030 4.342 C 18.300 4.448,18.520 4.546,18.520 4.560 C 18.520 4.575,18.274 4.684,17.973 4.803 C 17.136 5.133,17.115 5.155,16.760 6.060 C 16.666 6.302,16.575 6.514,16.560 6.532 C 16.545 6.549,16.455 6.360,16.360 6.112 C 16.137 5.528,16.034 5.326,15.889 5.188 C 15.779 5.083,15.386 4.896,14.810 4.676 C 14.672 4.623,14.560 4.571,14.560 4.560 C 14.560 4.549,14.672 4.497,14.810 4.444 C 15.386 4.224,15.779 4.037,15.889 3.932 C 16.037 3.792,16.104 3.662,16.342 3.048 C 16.447 2.778,16.545 2.571,16.560 2.588 C 16.576 2.606,16.681 2.855,16.795 3.143 M6.420 3.814 C 6.913 3.946,7.050 4.048,8.040 5.028 L 8.980 5.958 7.469 7.469 L 5.958 8.980 5.028 8.040 C 4.048 7.050,3.946 6.913,3.814 6.420 C 3.741 6.145,3.746 5.583,3.824 5.317 C 4.097 4.386,4.913 3.763,5.860 3.762 C 6.058 3.761,6.310 3.785,6.420 3.814 M14.983 11.970 C 20.298 17.294,20.033 17.008,20.186 17.580 C 20.259 17.855,20.254 18.417,20.176 18.683 C 19.966 19.400,19.400 19.966,18.683 20.176 C 18.417 20.254,17.855 20.259,17.580 20.186 C 17.008 20.033,17.295 20.299,11.960 14.973 L 7.020 10.041 8.520 8.540 C 9.345 7.715,10.029 7.040,10.040 7.040 C 10.052 7.040,12.276 9.258,14.983 11.970 M20.160 8.357 C 19.824 8.460,19.619 8.667,19.463 9.065 L 19.355 9.340 19.073 9.455 C 18.564 9.663,18.355 9.943,18.355 10.418 C 18.355 10.893,18.578 11.172,19.141 11.400 C 19.349 11.485,19.363 11.500,19.446 11.727 C 19.630 12.233,19.950 12.481,20.418 12.479 C 20.873 12.477,21.125 12.292,21.359 11.789 L 21.511 11.460 21.762 11.364 C 22.236 11.183,22.478 10.864,22.479 10.418 C 22.481 9.952,22.234 9.633,21.720 9.433 C 21.488 9.344,21.485 9.340,21.376 9.064 C 21.235 8.703,21.008 8.469,20.716 8.383 C 20.491 8.316,20.322 8.308,20.160 8.357 M20.518 9.594 C 20.647 9.940,20.807 10.110,21.153 10.270 L 21.449 10.407 21.122 10.566 C 20.770 10.738,20.651 10.871,20.502 11.262 C 20.463 11.363,20.418 11.432,20.402 11.413 C 20.386 11.395,20.332 11.278,20.283 11.153 C 20.165 10.855,19.972 10.670,19.634 10.528 L 19.358 10.413 19.626 10.299 C 19.995 10.142,20.128 10.013,20.283 9.660 C 20.355 9.495,20.418 9.360,20.422 9.360 C 20.427 9.360,20.470 9.465,20.518 9.594 M5.180 14.595 C 4.933 14.709,4.807 14.853,4.641 15.211 L 4.489 15.540 4.238 15.636 C 3.764 15.817,3.522 16.136,3.521 16.582 C 3.519 17.049,3.775 17.379,4.281 17.564 C 4.509 17.647,4.511 17.649,4.622 17.931 C 4.769 18.308,4.990 18.532,5.303 18.623 C 5.854 18.783,6.302 18.533,6.537 17.935 L 6.645 17.660 6.913 17.551 C 7.431 17.339,7.645 17.057,7.645 16.582 C 7.645 16.107,7.422 15.828,6.859 15.600 C 6.651 15.515,6.637 15.500,6.554 15.273 C 6.430 14.933,6.282 14.748,6.036 14.625 C 5.775 14.495,5.424 14.483,5.180 14.595 M5.640 15.652 C 5.641 15.757,5.836 16.108,5.960 16.229 C 6.033 16.300,6.216 16.409,6.368 16.472 L 6.642 16.587 6.377 16.700 C 6.007 16.857,5.889 16.971,5.719 17.332 L 5.572 17.645 5.483 17.409 C 5.353 17.060,5.194 16.890,4.847 16.730 L 4.551 16.593 4.869 16.438 C 5.215 16.270,5.327 16.148,5.483 15.771 C 5.561 15.583,5.639 15.524,5.640 15.652 " stroke="none" fill-rule="evenodd" fill="black"></path></svg>