<svg width="24" height="24" viewBox="0 0 24 24" fill="none" xmlns="http://www.w3.org/2000/svg"><path d="M15.660 1.319 C 14.999 1.461,14.308 1.828,12.281 3.112 C 10.980 3.936,10.789 4.039,10.550 4.039 C 10.441 4.040,9.731 3.880,8.870 3.662 C 7.103 3.213,6.322 3.050,5.780 3.018 C 4.544 2.944,3.666 3.507,3.375 4.560 C 3.278 4.909,3.279 5.792,3.376 6.320 C 3.507 7.034,3.646 7.700,3.879 8.720 C 4.007 9.281,4.134 9.880,4.162 10.051 L 4.211 10.362 4.081 10.611 C 4.010 10.748,3.605 11.382,3.182 12.020 C 1.949 13.880,1.579 14.521,1.393 15.120 C 1.317 15.367,1.300 15.509,1.300 15.920 C 1.300 16.416,1.301 16.422,1.449 16.725 C 1.719 17.276,2.245 17.659,3.012 17.859 C 3.486 17.983,4.174 18.063,5.420 18.139 C 7.987 18.295,7.941 18.289,8.129 18.467 C 8.195 18.529,8.669 19.105,9.182 19.746 C 10.721 21.672,11.145 22.117,11.767 22.458 C 12.082 22.630,12.213 22.674,12.556 22.720 C 13.172 22.802,13.817 22.534,14.324 21.987 C 14.724 21.555,15.170 20.697,15.919 18.920 C 16.415 17.743,16.732 17.058,16.833 16.946 C 16.940 16.827,17.187 16.717,18.645 16.137 C 20.804 15.278,21.392 14.992,21.945 14.527 C 22.738 13.860,22.947 12.883,22.490 11.980 C 22.194 11.396,21.604 10.798,19.878 9.335 C 18.598 8.249,18.534 8.188,18.478 7.997 C 18.456 7.922,18.421 7.311,18.400 6.640 C 18.348 5.007,18.288 3.940,18.220 3.480 C 18.070 2.449,17.669 1.779,17.007 1.450 C 16.730 1.313,16.691 1.304,16.267 1.294 C 16.021 1.289,15.748 1.300,15.660 1.319 M16.450 2.870 C 16.737 3.171,16.809 3.735,16.900 6.380 C 16.962 8.210,16.985 8.390,17.209 8.811 C 17.402 9.173,17.601 9.369,18.837 10.415 C 20.654 11.954,21.188 12.506,21.227 12.887 C 21.278 13.393,20.640 13.759,17.760 14.878 C 16.487 15.373,16.127 15.554,15.820 15.857 C 15.503 16.170,15.362 16.417,14.960 17.365 C 13.709 20.314,13.439 20.846,13.038 21.141 C 12.584 21.477,12.107 21.053,10.201 18.620 C 9.168 17.301,8.830 17.006,8.190 16.863 C 7.866 16.791,7.651 16.772,6.280 16.699 C 4.299 16.592,3.389 16.481,3.043 16.301 C 2.865 16.209,2.760 16.051,2.760 15.873 C 2.760 15.469,3.100 14.852,4.441 12.820 C 5.373 11.409,5.522 11.151,5.618 10.780 C 5.741 10.309,5.706 9.999,5.355 8.480 C 4.868 6.368,4.726 5.491,4.803 5.066 C 4.884 4.619,5.047 4.508,5.618 4.512 C 6.049 4.515,6.662 4.643,8.560 5.124 C 11.016 5.748,10.875 5.770,12.996 4.423 C 15.086 3.097,15.710 2.769,16.163 2.763 C 16.311 2.760,16.364 2.780,16.450 2.870 M18.807 18.289 C 18.434 18.369,18.201 18.767,18.286 19.178 C 18.327 19.373,18.369 19.421,19.474 20.526 C 20.556 21.608,20.631 21.674,20.810 21.711 C 21.390 21.831,21.832 21.389,21.711 20.810 C 21.673 20.631,21.605 20.553,20.568 19.511 C 19.962 18.901,19.410 18.377,19.343 18.346 C 19.163 18.264,19.002 18.247,18.807 18.289 " stroke="none" fill-rule="evenodd" fill="black"></path></svg>