<svg width="24" height="24" viewBox="0 0 24 24" fill="none" xmlns="http://www.w3.org/2000/svg"><path d="M16.060 1.319 C 15.412 1.456,14.739 1.789,12.740 2.962 C 11.489 3.696,11.206 3.840,11.011 3.840 C 10.833 3.840,10.377 3.721,9.407 3.422 C 8.357 3.098,7.316 2.809,6.881 2.720 C 5.400 2.418,4.444 2.754,3.944 3.750 C 3.763 4.110,3.705 4.438,3.706 5.080 C 3.708 5.743,3.765 6.163,4.121 8.120 C 4.431 9.829,4.437 9.890,4.309 10.142 C 4.254 10.251,3.843 10.853,3.397 11.480 C 2.360 12.936,1.838 13.727,1.618 14.180 C 0.982 15.483,1.250 16.627,2.328 17.201 C 2.966 17.541,3.653 17.669,6.080 17.900 C 7.343 18.020,7.704 18.070,7.848 18.144 C 7.972 18.208,8.278 18.593,8.941 19.520 C 10.086 21.121,10.694 21.861,11.160 22.220 C 11.989 22.858,12.854 22.906,13.633 22.359 C 14.296 21.894,14.724 21.191,15.920 18.600 C 16.190 18.017,16.417 17.532,16.426 17.522 C 16.435 17.512,17.382 18.442,18.531 19.588 C 20.535 21.587,20.628 21.673,20.810 21.711 C 21.390 21.831,21.831 21.390,21.711 20.810 C 21.673 20.628,21.589 20.537,19.688 18.631 C 18.597 17.537,17.712 16.634,17.722 16.624 C 17.733 16.614,18.154 16.459,18.658 16.280 C 20.968 15.459,21.652 15.124,22.176 14.557 C 22.564 14.138,22.722 13.742,22.723 13.191 C 22.724 12.216,22.216 11.529,19.980 9.485 C 19.120 8.699,18.826 8.403,18.736 8.231 C 18.689 8.141,18.677 7.728,18.666 5.871 C 18.655 3.965,18.643 3.566,18.586 3.267 C 18.397 2.278,18.030 1.733,17.334 1.411 C 17.130 1.316,17.044 1.301,16.660 1.293 C 16.418 1.289,16.148 1.300,16.060 1.319 M16.802 2.801 C 16.897 2.852,16.995 3.037,17.067 3.300 C 17.162 3.653,17.204 4.735,17.192 6.519 C 17.181 8.070,17.188 8.287,17.249 8.510 C 17.399 9.051,17.633 9.358,18.507 10.162 C 20.394 11.896,20.928 12.444,21.140 12.863 C 21.374 13.326,21.184 13.611,20.380 14.000 C 19.842 14.260,19.393 14.434,17.800 14.999 C 16.444 15.480,16.263 15.554,15.982 15.740 C 15.500 16.060,15.276 16.414,14.560 17.980 C 14.074 19.044,13.468 20.266,13.286 20.546 C 13.086 20.855,12.859 21.108,12.715 21.183 C 12.271 21.412,11.795 20.942,10.160 18.660 C 9.346 17.524,9.149 17.271,8.932 17.086 C 8.457 16.680,8.161 16.602,6.472 16.441 C 3.826 16.189,3.112 16.053,2.857 15.750 C 2.766 15.640,2.754 15.596,2.769 15.416 C 2.805 14.975,3.203 14.316,4.675 12.260 C 6.093 10.281,6.066 10.423,5.546 7.620 C 5.169 5.585,5.104 4.803,5.282 4.425 C 5.332 4.319,5.416 4.213,5.475 4.184 C 5.880 3.978,6.471 4.093,9.126 4.895 C 10.605 5.341,10.937 5.401,11.399 5.304 C 11.793 5.221,12.115 5.063,13.197 4.424 C 14.875 3.433,15.734 2.972,16.160 2.835 C 16.409 2.755,16.688 2.740,16.802 2.801 " stroke="none" fill-rule="evenodd" fill="black"></path></svg>