<svg width="24" height="24" viewBox="0 0 24 24" fill="none" xmlns="http://www.w3.org/2000/svg"><path d="M11.080 1.266 C 8.852 1.370,6.775 2.154,5.040 3.546 C 3.263 4.972,1.949 7.125,1.478 9.381 C 1.324 10.119,1.274 10.632,1.274 11.500 C 1.274 12.368,1.324 12.881,1.478 13.619 C 1.879 15.542,2.854 17.337,4.258 18.742 C 5.657 20.140,7.468 21.126,9.357 21.517 C 10.129 21.677,10.625 21.726,11.500 21.726 C 12.368 21.726,12.881 21.676,13.619 21.522 C 15.542 21.121,17.337 20.146,18.742 18.742 C 20.158 17.325,21.146 15.489,21.540 13.541 C 21.797 12.272,21.797 10.728,21.540 9.459 C 21.222 7.887,20.486 6.327,19.454 5.040 C 19.105 4.604,18.396 3.895,17.960 3.546 C 16.412 2.305,14.503 1.510,12.620 1.323 C 12.140 1.275,11.438 1.249,11.080 1.266 M12.900 2.856 C 14.542 3.155,15.884 3.772,17.112 4.790 C 18.784 6.176,19.896 8.202,20.179 10.372 C 20.257 10.977,20.257 12.023,20.179 12.628 C 19.802 15.518,17.975 18.073,15.380 19.338 C 14.089 19.967,12.915 20.240,11.502 20.240 C 9.125 20.240,7.000 19.360,5.320 17.680 C 4.408 16.768,3.816 15.865,3.341 14.662 C 2.704 13.048,2.582 11.129,3.005 9.401 C 3.638 6.819,5.462 4.624,7.877 3.538 C 8.696 3.170,9.455 2.950,10.360 2.819 C 10.881 2.743,12.406 2.766,12.900 2.856 M10.980 6.786 C 10.121 6.924,9.261 7.378,8.738 7.973 L 8.545 8.191 8.107 7.975 C 7.631 7.742,7.468 7.714,7.210 7.822 C 7.020 7.901,6.929 7.985,6.836 8.168 C 6.707 8.420,6.759 8.800,6.952 9.013 C 6.989 9.055,7.215 9.187,7.454 9.307 C 7.871 9.516,7.887 9.528,7.860 9.632 C 7.799 9.875,7.760 10.196,7.760 10.470 L 7.760 10.760 7.303 10.760 C 6.803 10.760,6.678 10.790,6.506 10.953 C 6.339 11.111,6.269 11.273,6.269 11.500 C 6.269 11.727,6.339 11.889,6.506 12.047 C 6.678 12.210,6.803 12.240,7.303 12.240 L 7.760 12.240 7.760 12.530 C 7.760 12.804,7.799 13.125,7.860 13.368 C 7.887 13.472,7.871 13.484,7.454 13.693 C 7.215 13.813,6.989 13.945,6.952 13.987 C 6.759 14.200,6.707 14.580,6.836 14.832 C 6.929 15.015,7.020 15.099,7.210 15.178 C 7.468 15.286,7.631 15.258,8.107 15.025 L 8.545 14.809 8.738 15.027 C 9.190 15.541,9.857 15.933,10.640 16.146 C 11.006 16.246,11.994 16.246,12.360 16.146 C 13.143 15.933,13.810 15.541,14.262 15.027 L 14.455 14.809 14.893 15.025 C 15.369 15.258,15.532 15.286,15.790 15.178 C 15.980 15.099,16.071 15.015,16.164 14.832 C 16.293 14.580,16.241 14.200,16.048 13.987 C 16.011 13.945,15.785 13.813,15.546 13.693 C 15.129 13.484,15.113 13.472,15.140 13.368 C 15.201 13.125,15.240 12.804,15.240 12.530 L 15.240 12.240 15.697 12.240 C 16.197 12.240,16.322 12.210,16.494 12.047 C 16.661 11.889,16.731 11.727,16.731 11.500 C 16.731 11.273,16.661 11.111,16.494 10.953 C 16.322 10.790,16.197 10.760,15.697 10.760 L 15.240 10.760 15.240 10.470 C 15.240 10.196,15.201 9.875,15.140 9.632 C 15.113 9.528,15.129 9.516,15.546 9.307 C 15.785 9.187,16.011 9.055,16.048 9.013 C 16.241 8.800,16.293 8.420,16.164 8.168 C 16.071 7.985,15.980 7.901,15.790 7.822 C 15.532 7.714,15.369 7.742,14.893 7.975 L 14.455 8.191 14.262 7.973 C 13.945 7.612,13.314 7.177,12.880 7.017 C 12.424 6.850,12.132 6.796,11.620 6.781 C 11.334 6.773,11.046 6.775,10.980 6.786 M11.971 8.299 C 12.121 8.331,12.364 8.416,12.511 8.488 C 12.947 8.702,13.492 9.294,13.582 9.653 L 13.609 9.760 11.504 9.760 C 9.587 9.760,9.400 9.754,9.400 9.695 C 9.400 9.561,9.664 9.171,9.937 8.900 C 10.492 8.350,11.212 8.138,11.971 8.299 M10.760 12.920 C 10.760 14.830,10.792 14.691,10.405 14.473 C 10.087 14.294,9.648 13.837,9.490 13.520 C 9.293 13.127,9.241 12.809,9.241 11.970 L 9.240 11.240 10.000 11.240 L 10.760 11.240 10.760 12.920 M13.759 11.970 C 13.759 12.809,13.707 13.127,13.510 13.520 C 13.352 13.837,12.913 14.294,12.595 14.473 C 12.208 14.691,12.240 14.830,12.240 12.920 L 12.240 11.240 13.000 11.240 L 13.760 11.240 13.759 11.970 M19.826 19.286 C 19.626 19.331,19.468 19.445,19.356 19.626 C 19.235 19.823,19.232 20.174,19.351 20.364 C 19.458 20.535,21.545 22.612,21.680 22.682 C 21.735 22.710,21.881 22.733,22.004 22.733 C 22.499 22.733,22.817 22.318,22.711 21.811 C 22.673 21.631,22.607 21.556,21.568 20.511 C 20.962 19.901,20.410 19.377,20.343 19.346 C 20.166 19.265,20.002 19.246,19.826 19.286 " stroke="none" fill-rule="evenodd" fill="black"></path></svg>