<svg width="24" height="24" viewBox="0 0 24 24" fill="none" xmlns="http://www.w3.org/2000/svg"><path d="M10.340 2.281 C 7.330 2.475,4.583 4.070,2.884 6.611 C 0.722 9.843,0.722 14.157,2.884 17.389 C 4.287 19.487,6.414 20.955,8.840 21.501 C 9.884 21.736,9.934 21.738,13.540 21.739 C 16.650 21.740,16.875 21.735,17.100 21.666 C 17.862 21.433,18.433 20.862,18.666 20.100 C 18.730 19.891,18.740 19.714,18.740 18.740 C 18.740 17.695,18.734 17.601,18.651 17.338 C 18.439 16.662,17.840 16.067,17.140 15.836 C 17.016 15.795,16.247 15.778,13.680 15.759 C 10.745 15.737,10.351 15.727,10.120 15.666 C 9.420 15.482,8.867 15.182,8.391 14.727 C 7.867 14.226,7.545 13.704,7.333 13.012 C 7.235 12.691,7.226 12.602,7.226 12.000 C 7.226 11.398,7.235 11.309,7.333 10.988 C 7.744 9.643,8.737 8.698,10.120 8.334 C 10.351 8.273,10.745 8.263,13.680 8.241 C 16.247 8.222,17.016 8.205,17.140 8.164 C 17.840 7.933,18.439 7.338,18.651 6.662 C 18.734 6.399,18.740 6.305,18.740 5.260 C 18.740 4.286,18.730 4.109,18.666 3.900 C 18.436 3.148,17.880 2.585,17.120 2.335 C 16.916 2.268,16.675 2.262,13.860 2.256 C 12.188 2.253,10.604 2.264,10.340 2.281 M13.680 5.260 L 13.680 6.760 12.110 6.761 C 10.029 6.762,9.693 6.812,8.661 7.281 C 7.711 7.713,6.744 8.669,6.242 9.673 C 6.064 10.029,5.855 10.676,5.782 11.095 C 5.702 11.556,5.702 12.444,5.782 12.905 C 5.956 13.908,6.439 14.864,7.139 15.595 C 7.746 16.229,8.388 16.649,9.200 16.940 C 9.935 17.205,10.262 17.238,12.110 17.239 L 13.680 17.240 13.680 18.740 L 13.680 20.240 12.029 20.240 C 11.121 20.240,10.225 20.221,10.039 20.198 C 9.107 20.083,8.226 19.820,7.374 19.404 C 4.858 18.174,3.148 15.764,2.802 12.961 C 2.748 12.525,2.748 11.475,2.802 11.039 C 2.997 9.457,3.659 7.916,4.648 6.740 C 5.670 5.525,6.968 4.639,8.423 4.164 C 9.495 3.813,9.869 3.771,11.970 3.765 L 13.680 3.760 13.680 5.260 M16.942 3.901 C 17.236 4.139,17.244 4.176,17.231 5.287 C 17.219 6.391,17.227 6.356,16.904 6.618 L 16.753 6.740 15.976 6.753 L 15.200 6.766 15.200 5.261 L 15.200 3.755 15.996 3.768 L 16.793 3.780 16.942 3.901 M21.340 5.276 C 21.160 5.321,21.064 5.382,20.927 5.538 C 20.687 5.811,20.704 6.144,20.977 6.556 C 21.522 7.376,21.951 8.695,22.147 10.160 C 22.205 10.588,22.220 10.970,22.220 12.000 C 22.220 13.030,22.205 13.412,22.147 13.840 C 21.951 15.305,21.522 16.624,20.977 17.444 C 20.703 17.856,20.687 18.189,20.928 18.463 C 21.252 18.832,21.699 18.841,22.040 18.484 C 22.797 17.694,23.485 15.597,23.682 13.480 C 23.780 12.424,23.733 10.677,23.576 9.620 C 23.339 8.012,22.702 6.275,22.086 5.555 C 21.877 5.310,21.607 5.209,21.340 5.276 M19.420 8.258 C 19.398 8.266,19.331 8.284,19.271 8.297 C 19.124 8.329,18.881 8.548,18.814 8.708 C 18.733 8.902,18.749 9.135,18.861 9.402 C 19.103 9.977,19.240 10.917,19.240 12.000 C 19.240 13.083,19.103 14.023,18.861 14.598 C 18.703 14.973,18.733 15.261,18.953 15.494 C 19.266 15.825,19.710 15.828,20.024 15.501 C 20.229 15.289,20.400 14.837,20.538 14.147 C 20.683 13.426,20.728 12.913,20.728 12.000 C 20.728 11.087,20.683 10.574,20.538 9.853 C 20.367 8.998,20.135 8.493,19.845 8.343 C 19.729 8.283,19.485 8.234,19.420 8.258 M16.904 17.382 C 17.227 17.644,17.219 17.609,17.231 18.713 C 17.244 19.824,17.236 19.861,16.942 20.099 L 16.793 20.220 15.996 20.232 L 15.200 20.245 15.200 18.739 L 15.200 17.234 15.976 17.247 L 16.753 17.260 16.904 17.382 " stroke="none" fill-rule="evenodd" fill="black"></path></svg>