<svg width="24" height="24" viewBox="0 0 24 24" fill="none" xmlns="http://www.w3.org/2000/svg"><path d="M10.340 1.281 C 6.384 1.534,2.936 4.230,1.721 8.023 C 1.147 9.816,1.112 11.870,1.626 13.660 C 3.007 18.470,7.737 21.439,12.680 20.597 C 16.514 19.944,19.645 16.967,20.501 13.160 C 20.807 11.801,20.812 10.254,20.516 8.900 C 20.293 7.879,19.870 6.825,19.330 5.943 C 17.416 2.822,13.996 1.048,10.340 1.281 M12.193 2.839 C 14.888 3.235,17.182 4.907,18.395 7.358 C 18.977 8.535,19.240 9.668,19.240 11.000 C 19.240 12.325,18.982 13.443,18.404 14.626 C 17.174 17.142,14.764 18.852,11.961 19.198 C 11.525 19.252,10.475 19.252,10.039 19.198 C 8.540 19.013,7.034 18.391,5.900 17.488 C 5.497 17.167,4.995 16.675,4.647 16.260 C 3.657 15.079,2.997 13.542,2.802 11.961 C 2.748 11.525,2.748 10.475,2.802 10.039 C 2.917 9.107,3.180 8.226,3.596 7.374 C 4.106 6.331,4.795 5.449,5.700 4.681 C 6.864 3.693,8.438 3.004,9.984 2.806 C 10.513 2.738,11.619 2.754,12.193 2.839 M10.826 8.286 C 10.625 8.331,10.468 8.445,10.353 8.631 C 10.266 8.770,10.259 8.829,10.246 9.510 L 10.232 10.240 9.638 10.240 C 8.881 10.240,8.678 10.282,8.482 10.478 C 8.133 10.827,8.203 11.381,8.631 11.647 C 8.770 11.734,8.829 11.741,9.506 11.754 L 10.232 11.768 10.246 12.497 C 10.260 13.210,10.262 13.230,10.367 13.388 C 10.526 13.628,10.721 13.733,11.007 13.733 C 11.203 13.733,11.270 13.714,11.408 13.617 C 11.700 13.410,11.738 13.284,11.754 12.474 L 11.768 11.768 12.494 11.754 C 13.171 11.741,13.230 11.734,13.369 11.647 C 13.943 11.290,13.812 10.424,13.162 10.284 C 13.049 10.260,12.687 10.240,12.358 10.240 L 11.760 10.240 11.759 9.630 C 11.758 9.295,11.739 8.939,11.717 8.841 C 11.622 8.428,11.243 8.192,10.826 8.286 M19.800 18.279 C 19.383 18.358,19.080 18.526,18.775 18.846 C 18.239 19.409,18.140 19.984,18.416 20.940 C 18.615 21.630,18.762 21.928,19.037 22.203 C 19.442 22.607,20.065 22.813,20.616 22.724 C 21.112 22.645,21.392 22.474,21.948 21.911 C 22.497 21.355,22.655 21.092,22.729 20.609 C 22.813 20.069,22.601 19.436,22.203 19.037 C 21.930 18.764,21.629 18.615,20.962 18.424 C 20.422 18.268,20.080 18.226,19.800 18.279 M20.696 19.899 C 21.117 20.029,21.240 20.130,21.240 20.346 C 21.240 20.481,21.205 20.531,20.868 20.868 C 20.531 21.205,20.481 21.240,20.346 21.240 C 20.242 21.240,20.168 21.211,20.102 21.146 C 20.003 21.046,19.804 20.463,19.769 20.168 C 19.752 20.018,19.764 19.980,19.865 19.874 C 19.967 19.766,20.000 19.755,20.160 19.771 C 20.259 19.781,20.500 19.838,20.696 19.899 " stroke="none" fill-rule="evenodd" fill="black"></path></svg>