<svg width="24" height="24" viewBox="0 0 24 24" fill="none" xmlns="http://www.w3.org/2000/svg"><path d="M11.080 1.266 C 8.852 1.370,6.775 2.154,5.040 3.546 C 3.263 4.972,1.949 7.125,1.478 9.381 C 1.324 10.119,1.274 10.632,1.274 11.500 C 1.274 12.368,1.324 12.881,1.478 13.619 C 1.879 15.542,2.854 17.337,4.258 18.742 C 5.657 20.140,7.468 21.126,9.357 21.517 C 10.129 21.677,10.625 21.726,11.500 21.726 C 12.612 21.726,13.399 21.617,14.418 21.322 C 15.586 20.985,16.925 20.285,17.897 19.503 C 18.050 19.380,18.185 19.280,18.197 19.280 C 18.210 19.280,18.958 20.019,19.860 20.922 C 20.762 21.825,21.561 22.602,21.636 22.648 C 21.826 22.768,22.177 22.766,22.374 22.644 C 22.659 22.468,22.783 22.160,22.711 21.811 C 22.673 21.628,22.599 21.547,20.969 19.912 C 19.387 18.326,19.271 18.199,19.324 18.129 C 19.355 18.087,19.518 17.871,19.686 17.649 C 20.595 16.450,21.242 15.017,21.540 13.541 C 21.797 12.272,21.797 10.728,21.540 9.459 C 21.222 7.887,20.486 6.327,19.454 5.040 C 19.105 4.604,18.396 3.895,17.960 3.546 C 16.412 2.305,14.503 1.510,12.620 1.323 C 12.140 1.275,11.438 1.249,11.080 1.266 M12.900 2.856 C 14.542 3.155,15.884 3.772,17.112 4.790 C 18.784 6.176,19.896 8.202,20.179 10.372 C 20.257 10.977,20.257 12.023,20.179 12.628 C 19.802 15.518,17.975 18.073,15.380 19.338 C 14.089 19.967,12.915 20.240,11.502 20.240 C 9.125 20.240,7.000 19.360,5.320 17.680 C 4.408 16.768,3.816 15.865,3.341 14.662 C 2.704 13.048,2.582 11.129,3.005 9.401 C 3.638 6.819,5.462 4.624,7.877 3.538 C 8.696 3.170,9.455 2.950,10.360 2.819 C 10.881 2.743,12.406 2.766,12.900 2.856 " stroke="none" fill-rule="evenodd" fill="black"></path></svg>