<svg width="24" height="24" viewBox="0 0 24 24" fill="none" xmlns="http://www.w3.org/2000/svg"><path d="M10.340 1.281 C 6.384 1.534,2.936 4.230,1.721 8.023 C 1.147 9.816,1.112 11.870,1.626 13.660 C 3.007 18.470,7.737 21.439,12.680 20.597 C 16.514 19.944,19.645 16.967,20.501 13.160 C 20.807 11.801,20.812 10.254,20.516 8.900 C 20.293 7.879,19.870 6.825,19.330 5.943 C 17.416 2.822,13.996 1.048,10.340 1.281 M12.193 2.839 C 14.888 3.235,17.182 4.907,18.395 7.358 C 18.977 8.535,19.240 9.668,19.240 11.000 C 19.240 12.325,18.982 13.443,18.404 14.626 C 17.174 17.142,14.764 18.852,11.961 19.198 C 11.525 19.252,10.475 19.252,10.039 19.198 C 8.540 19.013,7.034 18.391,5.900 17.488 C 5.497 17.167,4.995 16.675,4.647 16.260 C 3.657 15.079,2.997 13.542,2.802 11.961 C 2.748 11.525,2.748 10.475,2.802 10.039 C 2.917 9.107,3.180 8.226,3.596 7.374 C 4.106 6.331,4.795 5.449,5.700 4.681 C 6.864 3.693,8.438 3.004,9.984 2.806 C 10.513 2.738,11.619 2.754,12.193 2.839 M10.760 6.268 C 9.806 6.334,8.871 6.777,8.248 7.459 L 8.044 7.683 7.690 7.505 C 7.213 7.266,7.053 7.225,6.816 7.285 C 6.428 7.383,6.165 7.827,6.281 8.188 C 6.369 8.464,6.496 8.582,6.942 8.807 C 7.355 9.015,7.364 9.023,7.345 9.140 C 7.333 9.206,7.303 9.478,7.277 9.745 L 7.229 10.231 6.764 10.248 C 6.264 10.267,6.143 10.305,5.953 10.506 C 5.691 10.783,5.691 11.217,5.953 11.494 C 6.143 11.695,6.264 11.733,6.764 11.752 L 7.229 11.769 7.277 12.255 C 7.303 12.522,7.333 12.794,7.345 12.860 C 7.364 12.977,7.355 12.985,6.942 13.193 C 6.484 13.424,6.358 13.546,6.283 13.828 C 6.144 14.348,6.652 14.857,7.170 14.717 C 7.262 14.693,7.496 14.593,7.690 14.495 L 8.044 14.317 8.251 14.544 C 8.547 14.868,8.920 15.138,9.380 15.361 C 10.023 15.674,10.669 15.789,11.365 15.717 C 11.879 15.664,12.161 15.584,12.620 15.361 C 13.080 15.138,13.453 14.868,13.749 14.544 L 13.956 14.317 14.310 14.495 C 14.504 14.593,14.738 14.693,14.830 14.717 C 15.348 14.857,15.856 14.348,15.717 13.828 C 15.642 13.546,15.516 13.424,15.058 13.193 C 14.645 12.985,14.636 12.977,14.655 12.860 C 14.667 12.794,14.697 12.522,14.723 12.255 L 14.771 11.769 15.236 11.752 C 15.736 11.733,15.857 11.695,16.047 11.494 C 16.181 11.353,16.240 11.201,16.240 11.000 C 16.240 10.799,16.181 10.647,16.047 10.506 C 15.857 10.305,15.736 10.267,15.236 10.248 L 14.771 10.231 14.723 9.745 C 14.697 9.478,14.667 9.206,14.655 9.140 C 14.636 9.023,14.645 9.015,15.058 8.807 C 15.516 8.576,15.642 8.454,15.717 8.172 C 15.856 7.652,15.348 7.143,14.830 7.283 C 14.738 7.307,14.504 7.407,14.310 7.505 L 13.956 7.683 13.752 7.459 C 13.020 6.658,11.852 6.193,10.760 6.268 M11.578 7.821 C 11.949 7.918,12.274 8.112,12.581 8.419 C 12.813 8.650,13.120 9.105,13.120 9.216 C 13.120 9.229,12.166 9.240,11.000 9.240 C 9.834 9.240,8.880 9.229,8.880 9.216 C 8.880 9.202,8.938 9.081,9.009 8.946 C 9.269 8.450,9.869 7.967,10.404 7.823 C 10.692 7.746,11.285 7.745,11.578 7.821 M10.240 12.440 C 10.240 13.364,10.229 14.120,10.216 14.120 C 10.202 14.120,10.081 14.062,9.946 13.991 C 9.629 13.825,9.176 13.373,9.010 13.057 C 8.795 12.647,8.760 12.434,8.760 11.552 L 8.760 10.760 9.500 10.760 L 10.240 10.760 10.240 12.440 M13.240 11.552 C 13.240 12.434,13.205 12.647,12.990 13.057 C 12.824 13.373,12.371 13.825,12.054 13.991 C 11.919 14.062,11.798 14.120,11.784 14.120 C 11.771 14.120,11.760 13.364,11.760 12.440 L 11.760 10.760 12.500 10.760 L 13.240 10.760 13.240 11.552 M19.800 18.279 C 19.383 18.358,19.080 18.526,18.775 18.846 C 18.239 19.409,18.140 19.984,18.416 20.940 C 18.615 21.630,18.762 21.928,19.037 22.203 C 19.442 22.607,20.065 22.813,20.616 22.724 C 21.112 22.645,21.392 22.474,21.948 21.911 C 22.497 21.355,22.655 21.092,22.729 20.609 C 22.813 20.069,22.601 19.436,22.203 19.037 C 21.930 18.764,21.629 18.615,20.962 18.424 C 20.422 18.268,20.080 18.226,19.800 18.279 M20.696 19.899 C 21.117 20.029,21.240 20.130,21.240 20.346 C 21.240 20.481,21.205 20.531,20.868 20.868 C 20.531 21.205,20.481 21.240,20.346 21.240 C 20.242 21.240,20.168 21.211,20.102 21.146 C 20.003 21.046,19.804 20.463,19.769 20.168 C 19.752 20.018,19.764 19.980,19.865 19.874 C 19.967 19.766,20.000 19.755,20.160 19.771 C 20.259 19.781,20.500 19.838,20.696 19.899 " stroke="none" fill-rule="evenodd" fill="black"></path></svg>