<svg width="24" height="24" viewBox="0 0 24 24" fill="none" xmlns="http://www.w3.org/2000/svg"><path d="M11.080 1.266 C 8.852 1.370,6.775 2.154,5.040 3.546 C 3.263 4.972,1.949 7.125,1.478 9.381 C 1.324 10.119,1.274 10.632,1.274 11.500 C 1.274 12.368,1.324 12.881,1.478 13.619 C 1.879 15.542,2.854 17.337,4.258 18.742 C 5.657 20.140,7.468 21.126,9.357 21.517 C 10.129 21.677,10.625 21.726,11.500 21.726 C 12.368 21.726,12.881 21.676,13.619 21.522 C 15.542 21.121,17.337 20.146,18.742 18.742 C 20.158 17.325,21.146 15.489,21.540 13.541 C 21.797 12.272,21.797 10.728,21.540 9.459 C 21.222 7.887,20.486 6.327,19.454 5.040 C 19.105 4.604,18.396 3.895,17.960 3.546 C 16.412 2.305,14.503 1.510,12.620 1.323 C 12.140 1.275,11.438 1.249,11.080 1.266 M12.900 2.856 C 14.542 3.155,15.884 3.772,17.112 4.790 C 18.784 6.176,19.896 8.202,20.179 10.372 C 20.257 10.977,20.257 12.023,20.179 12.628 C 19.802 15.518,17.975 18.073,15.380 19.338 C 14.089 19.967,12.915 20.240,11.502 20.240 C 9.125 20.240,7.000 19.360,5.320 17.680 C 4.408 16.768,3.816 15.865,3.341 14.662 C 2.704 13.048,2.582 11.129,3.005 9.401 C 3.638 6.819,5.462 4.624,7.877 3.538 C 8.696 3.170,9.455 2.950,10.360 2.819 C 10.881 2.743,12.406 2.766,12.900 2.856 M8.720 10.805 C 8.458 10.909,8.269 11.200,8.269 11.500 C 8.269 11.807,8.460 12.095,8.733 12.197 C 8.808 12.226,9.722 12.240,11.500 12.240 C 13.278 12.240,14.192 12.226,14.267 12.197 C 14.540 12.095,14.731 11.807,14.731 11.500 C 14.731 11.193,14.540 10.905,14.267 10.803 C 14.118 10.746,8.862 10.748,8.720 10.805 M19.826 19.286 C 19.626 19.331,19.468 19.445,19.356 19.626 C 19.235 19.823,19.232 20.174,19.351 20.364 C 19.458 20.535,21.545 22.612,21.680 22.682 C 21.735 22.710,21.881 22.733,22.004 22.733 C 22.499 22.733,22.817 22.318,22.711 21.811 C 22.673 21.631,22.607 21.556,21.568 20.511 C 20.962 19.901,20.410 19.377,20.343 19.346 C 20.166 19.265,20.002 19.246,19.826 19.286 " stroke="none" fill-rule="evenodd" fill="black"></path></svg>