<svg width="24" height="24" viewBox="0 0 24 24" fill="none" xmlns="http://www.w3.org/2000/svg"><path d="M12.320 1.280 C 7.666 1.554,3.667 4.903,2.564 9.450 C 2.162 11.110,2.162 12.890,2.564 14.550 C 3.575 18.718,7.020 21.909,11.258 22.601 C 12.098 22.739,13.077 22.766,16.580 22.752 C 19.656 22.738,19.916 22.732,20.120 22.665 C 20.880 22.414,21.436 21.852,21.666 21.100 C 21.732 20.887,21.740 20.707,21.740 19.500 C 21.740 18.293,21.732 18.113,21.666 17.900 C 21.436 17.148,20.879 16.584,20.120 16.336 C 19.916 16.269,19.614 16.262,16.080 16.239 C 12.366 16.215,12.252 16.212,11.980 16.132 C 11.399 15.959,11.075 15.813,10.650 15.532 C 9.979 15.090,9.382 14.365,9.083 13.631 C 8.827 13.002,8.780 12.747,8.780 12.000 C 8.780 11.253,8.827 10.998,9.083 10.369 C 9.486 9.378,10.368 8.491,11.349 8.090 C 12.149 7.764,11.800 7.788,16.080 7.761 C 19.614 7.738,19.916 7.731,20.120 7.664 C 20.879 7.416,21.436 6.852,21.666 6.100 C 21.732 5.887,21.740 5.707,21.740 4.500 C 21.740 3.293,21.732 3.113,21.666 2.900 C 21.436 2.148,20.881 1.586,20.120 1.335 C 19.915 1.267,19.664 1.262,16.360 1.256 C 14.413 1.253,12.595 1.264,12.320 1.280 M16.240 4.500 L 16.240 6.240 14.650 6.241 C 12.491 6.241,11.952 6.292,11.140 6.569 C 8.154 7.587,6.548 10.867,7.569 13.860 C 8.137 15.526,9.474 16.863,11.140 17.431 C 11.952 17.708,12.491 17.759,14.650 17.759 L 16.240 17.760 16.240 19.500 L 16.240 21.240 14.282 21.240 C 12.214 21.240,11.850 21.217,11.002 21.034 C 9.667 20.747,8.178 20.022,7.140 19.153 C 5.272 17.590,4.134 15.531,3.822 13.146 C 3.699 12.214,3.756 10.974,3.966 10.002 C 4.177 9.020,4.703 7.775,5.268 6.920 C 6.750 4.677,9.131 3.188,11.820 2.823 C 12.109 2.783,12.780 2.767,14.230 2.764 L 16.240 2.760 16.240 4.500 M19.942 2.901 C 20.238 3.140,20.240 3.152,20.240 4.500 C 20.240 5.848,20.238 5.860,19.942 6.099 L 19.793 6.220 18.776 6.232 L 17.760 6.244 17.760 4.500 L 17.760 2.756 18.776 2.768 L 19.793 2.780 19.942 2.901 M19.942 17.901 C 20.238 18.140,20.240 18.152,20.240 19.500 C 20.240 20.848,20.238 20.860,19.942 21.099 L 19.793 21.220 18.776 21.232 L 17.760 21.244 17.760 19.500 L 17.760 17.756 18.776 17.768 L 19.793 17.780 19.942 17.901 " stroke="none" fill-rule="evenodd" fill="black"></path></svg>