<svg width="24" height="24" viewBox="0 0 24 24" fill="none" xmlns="http://www.w3.org/2000/svg"><path d="M17.100 1.281 C 16.668 1.328,16.169 1.432,15.984 1.514 C 15.613 1.678,15.357 2.008,15.283 2.417 C 15.258 2.555,15.240 3.197,15.240 3.947 L 15.240 5.240 11.110 5.245 C 6.377 5.251,6.074 5.255,5.720 5.318 C 4.025 5.621,2.583 6.818,1.816 8.559 C 1.611 9.025,1.467 9.506,1.352 10.100 C 1.271 10.522,1.267 10.681,1.251 13.960 C 1.239 16.384,1.248 17.496,1.280 17.778 C 1.445 19.200,2.310 20.305,3.540 20.665 C 3.757 20.728,4.063 20.736,6.770 20.750 L 9.760 20.764 9.760 21.460 C 9.760 22.200,9.781 22.312,9.953 22.494 C 10.111 22.661,10.273 22.731,10.500 22.731 C 10.727 22.731,10.889 22.661,11.047 22.494 C 11.219 22.312,11.240 22.200,11.240 21.457 L 11.240 20.760 12.500 20.760 L 13.760 20.760 13.760 21.457 C 13.760 22.200,13.781 22.312,13.953 22.494 C 14.111 22.661,14.273 22.731,14.500 22.731 C 14.727 22.731,14.889 22.661,15.047 22.494 C 15.219 22.312,15.240 22.200,15.240 21.457 L 15.240 20.760 17.537 20.760 C 19.952 20.760,20.264 20.742,20.706 20.582 C 21.666 20.233,22.416 19.314,22.670 18.172 C 22.734 17.888,22.740 17.534,22.740 14.260 C 22.740 10.958,22.734 10.624,22.667 10.226 C 22.420 8.757,21.783 7.510,20.820 6.610 L 20.481 6.292 20.711 6.242 C 20.997 6.180,21.225 6.051,21.411 5.845 C 21.740 5.481,21.771 5.285,21.753 3.713 L 21.739 2.500 21.622 2.267 C 21.493 2.013,21.330 1.848,21.069 1.712 C 20.881 1.614,20.685 1.605,19.880 1.658 L 19.420 1.688 18.859 1.507 C 18.357 1.345,17.713 1.226,17.452 1.245 C 17.412 1.248,17.254 1.265,17.100 1.281 M18.380 2.916 C 18.929 3.111,19.248 3.170,19.770 3.172 L 20.240 3.173 20.240 4.001 L 20.240 4.829 19.981 4.855 C 19.669 4.887,19.320 4.836,18.919 4.699 C 18.755 4.643,18.503 4.569,18.360 4.535 C 18.032 4.456,17.291 4.421,16.990 4.470 L 16.760 4.508 16.760 3.676 L 16.760 2.845 16.930 2.804 C 17.023 2.782,17.307 2.769,17.560 2.776 C 17.957 2.786,18.069 2.806,18.380 2.916 M7.480 6.915 C 8.649 7.311,9.596 8.340,10.014 9.669 C 10.241 10.393,10.240 10.364,10.240 14.988 L 10.240 19.241 7.070 19.231 L 3.900 19.220 3.705 19.124 C 3.301 18.925,2.917 18.412,2.803 17.919 C 2.777 17.804,2.762 16.497,2.761 14.240 C 2.760 10.448,2.764 10.371,2.982 9.683 C 3.369 8.456,4.251 7.419,5.253 7.011 C 5.760 6.806,6.020 6.759,6.580 6.773 C 7.040 6.784,7.144 6.801,7.480 6.915 M15.248 8.437 L 15.260 10.113 15.381 10.285 C 15.547 10.522,15.727 10.619,16.000 10.619 C 16.273 10.619,16.453 10.522,16.619 10.285 L 16.740 10.113 16.752 8.433 L 16.764 6.752 17.432 6.768 C 18.059 6.783,18.124 6.792,18.480 6.914 C 19.652 7.314,20.596 8.340,21.014 9.669 C 21.237 10.381,21.240 10.434,21.240 14.260 C 21.240 17.386,21.233 17.810,21.176 18.003 C 21.021 18.523,20.717 18.916,20.309 19.119 L 20.067 19.240 15.914 19.240 L 11.760 19.240 11.759 15.230 C 11.759 12.968,11.742 11.014,11.720 10.747 C 11.600 9.309,11.109 8.082,10.237 7.043 L 9.999 6.760 12.618 6.760 L 15.236 6.760 15.248 8.437 M4.826 15.284 C 4.476 15.366,4.267 15.636,4.267 16.003 C 4.267 16.281,4.387 16.496,4.627 16.645 L 4.780 16.740 6.360 16.753 C 8.174 16.768,8.284 16.756,8.520 16.520 C 8.929 16.111,8.725 15.405,8.162 15.284 C 7.912 15.230,5.055 15.231,4.826 15.284 " stroke="none" fill-rule="evenodd" fill="black"></path></svg>