<svg width="24" height="24" viewBox="0 0 24 24" fill="none" xmlns="http://www.w3.org/2000/svg"><path d="M14.833 2.623 C 14.111 2.753,13.760 2.943,11.608 4.368 C 9.695 5.635,9.299 5.859,8.856 5.919 C 8.408 5.980,8.257 5.948,6.740 5.458 C 5.356 5.012,5.011 4.922,4.560 4.894 C 3.881 4.851,3.415 5.020,2.956 5.477 C 2.686 5.745,2.541 5.982,2.427 6.340 C 2.264 6.855,2.260 7.000,2.260 12.660 C 2.260 18.745,2.244 18.394,2.545 18.991 C 2.748 19.393,3.049 19.665,3.573 19.919 C 3.993 20.123,6.489 20.975,7.385 21.221 C 8.327 21.479,8.938 21.488,9.639 21.254 C 10.152 21.083,10.584 20.829,12.389 19.634 C 14.305 18.365,14.701 18.141,15.144 18.081 C 15.592 18.020,15.743 18.052,17.260 18.542 C 18.644 18.988,18.989 19.078,19.440 19.106 C 20.119 19.149,20.585 18.980,21.044 18.523 C 21.314 18.255,21.459 18.018,21.573 17.660 C 21.736 17.146,21.740 16.998,21.740 11.380 C 21.740 6.363,21.735 5.956,21.669 5.640 C 21.510 4.879,21.156 4.434,20.427 4.081 C 20.003 3.876,17.370 2.979,16.552 2.762 C 16.125 2.649,15.525 2.557,15.260 2.564 C 15.194 2.566,15.002 2.592,14.833 2.623 M16.283 4.238 C 16.840 4.396,19.632 5.334,19.804 5.420 C 20.041 5.540,20.153 5.676,20.199 5.898 C 20.229 6.039,20.238 7.808,20.230 11.582 C 20.220 16.175,20.209 17.085,20.162 17.212 C 20.097 17.387,19.889 17.586,19.729 17.626 C 19.551 17.671,19.037 17.542,17.792 17.141 C 16.649 16.773,16.032 16.601,15.850 16.600 L 15.760 16.600 15.760 10.360 C 15.760 5.203,15.769 4.120,15.813 4.120 C 15.842 4.120,16.054 4.173,16.283 4.238 M14.240 10.596 L 14.240 16.752 13.870 16.933 C 13.667 17.032,12.726 17.625,11.780 18.250 C 10.834 18.875,9.992 19.427,9.910 19.476 L 9.760 19.567 9.760 13.407 L 9.760 7.248 10.130 7.068 C 10.334 6.968,11.022 6.540,11.660 6.117 C 12.848 5.327,14.207 4.440,14.228 4.440 C 14.235 4.440,14.240 7.210,14.240 10.596 M4.960 6.475 C 5.191 6.537,5.860 6.743,6.447 6.933 C 7.034 7.123,7.677 7.311,7.877 7.350 L 8.240 7.420 8.240 13.650 C 8.240 18.799,8.231 19.880,8.187 19.880 C 8.006 19.880,4.497 18.732,4.177 18.569 C 3.957 18.455,3.852 18.329,3.803 18.120 C 3.748 17.878,3.746 7.411,3.801 7.020 C 3.845 6.716,3.916 6.589,4.120 6.450 C 4.292 6.333,4.443 6.337,4.960 6.475 " stroke="none" fill-rule="evenodd" fill="black"></path></svg>