<svg width="24" height="24" viewBox="0 0 24 24" fill="none" xmlns="http://www.w3.org/2000/svg"><path d="M3.395 2.283 C 2.379 2.432,1.573 3.145,1.317 4.120 C 1.243 4.402,1.262 4.978,1.356 5.280 C 1.403 5.428,2.083 6.750,2.943 8.360 C 4.887 12.002,4.769 11.767,4.769 12.000 C 4.769 12.233,4.884 12.005,2.943 15.640 C 2.082 17.252,1.403 18.571,1.356 18.720 C 1.262 19.022,1.243 19.598,1.317 19.880 C 1.690 21.302,3.227 22.096,4.616 21.585 C 5.037 21.429,21.327 14.151,21.580 14.005 C 22.093 13.709,22.555 13.094,22.682 12.540 C 22.740 12.283,22.740 11.717,22.682 11.460 C 22.543 10.850,22.055 10.240,21.460 9.933 C 21.061 9.727,4.858 2.498,4.570 2.397 C 4.370 2.328,3.830 2.234,3.687 2.245 C 3.650 2.248,3.519 2.265,3.395 2.283 M12.457 7.531 C 18.898 10.405,20.886 11.308,20.992 11.409 C 21.169 11.577,21.240 11.747,21.240 12.000 C 21.240 12.253,21.169 12.423,20.992 12.591 C 20.886 12.692,18.899 13.594,12.457 16.469 C 4.747 19.908,4.039 20.216,3.808 20.232 C 3.204 20.274,2.715 19.831,2.768 19.291 C 2.784 19.134,3.082 18.548,4.423 16.040 C 5.323 14.357,6.103 12.854,6.156 12.700 C 6.295 12.301,6.295 11.699,6.156 11.300 C 6.103 11.146,5.323 9.643,4.423 7.960 C 2.680 4.700,2.688 4.718,2.800 4.381 C 2.869 4.172,3.066 3.963,3.300 3.852 C 3.465 3.773,3.549 3.759,3.780 3.770 C 4.054 3.784,4.245 3.867,12.457 7.531 " stroke="none" fill-rule="evenodd" fill="black"></path></svg>