<svg width="24" height="24" viewBox="0 0 24 24" fill="none" xmlns="http://www.w3.org/2000/svg"><path d="M9.020 1.278 C 7.735 1.310,7.475 1.326,6.649 1.423 C 4.782 1.643,3.569 2.183,2.728 3.171 C 1.841 4.212,1.475 5.425,1.314 7.860 C 1.249 8.841,1.249 15.159,1.314 16.140 C 1.431 17.905,1.649 18.970,2.068 19.825 C 2.756 21.228,3.977 22.098,5.734 22.437 C 7.035 22.688,7.988 22.733,12.000 22.733 C 16.012 22.733,16.965 22.688,18.266 22.437 C 20.599 21.987,21.987 20.599,22.437 18.266 C 22.688 16.968,22.732 16.015,22.733 12.000 C 22.733 7.987,22.688 7.034,22.437 5.734 C 22.098 3.977,21.228 2.756,19.825 2.068 C 18.972 1.650,17.855 1.421,16.180 1.321 C 15.276 1.267,10.579 1.239,9.020 1.278 M16.600 2.836 C 18.439 3.019,19.320 3.320,20.000 4.000 C 20.680 4.680,20.982 5.564,21.164 7.400 C 21.192 7.686,21.217 9.195,21.229 11.380 C 21.251 15.485,21.215 16.565,21.019 17.740 C 20.687 19.721,19.731 20.677,17.740 21.020 C 16.654 21.207,16.320 21.218,12.040 21.219 C 7.880 21.220,7.593 21.212,6.500 21.055 C 4.391 20.754,3.409 19.877,3.021 17.947 C 2.796 16.825,2.780 16.431,2.781 11.980 C 2.782 7.664,2.793 7.353,2.984 6.240 C 3.231 4.800,3.803 3.921,4.820 3.421 C 5.541 3.067,6.445 2.891,8.002 2.802 C 8.872 2.752,16.044 2.780,16.600 2.836 M15.900 6.281 C 15.790 6.299,15.601 6.349,15.480 6.392 C 14.671 6.684,6.411 9.866,6.209 9.964 C 5.401 10.357,5.040 11.362,5.414 12.178 C 5.544 12.463,5.824 12.758,6.089 12.892 C 6.205 12.951,7.100 13.242,8.077 13.538 C 9.054 13.835,9.869 14.093,9.888 14.112 C 9.907 14.131,10.165 14.946,10.462 15.923 C 10.758 16.900,11.049 17.795,11.108 17.911 C 11.242 18.176,11.537 18.456,11.822 18.586 C 12.638 18.960,13.643 18.599,14.036 17.791 C 14.148 17.559,17.414 9.071,17.620 8.477 C 17.742 8.124,17.772 7.864,17.721 7.603 C 17.551 6.723,16.757 6.147,15.900 6.281 M16.232 7.845 C 16.244 7.912,12.743 17.099,12.670 17.190 C 12.601 17.277,12.442 17.250,12.401 17.143 C 12.381 17.090,12.128 16.267,11.838 15.313 C 11.549 14.360,11.265 13.494,11.209 13.389 C 11.089 13.167,10.798 12.881,10.576 12.768 C 10.490 12.725,9.640 12.452,8.687 12.162 C 7.733 11.873,6.908 11.618,6.854 11.598 C 6.777 11.568,6.758 11.536,6.767 11.454 C 6.774 11.396,6.807 11.332,6.840 11.312 C 6.995 11.218,16.070 7.763,16.140 7.771 C 16.183 7.776,16.225 7.809,16.232 7.845 " stroke="none" fill-rule="evenodd" fill="black"></path></svg>