<svg width="24" height="24" viewBox="0 0 24 24" fill="none" xmlns="http://www.w3.org/2000/svg"><path d="M11.500 1.282 C 8.166 1.525,5.503 4.248,5.282 7.640 C 5.077 10.782,6.675 14.523,9.040 16.440 C 9.985 17.206,10.842 17.627,11.637 17.715 C 12.516 17.814,13.261 17.594,14.284 16.935 C 16.717 15.371,18.524 12.008,18.714 8.695 C 18.779 7.571,18.656 6.638,18.325 5.740 C 17.264 2.861,14.510 1.062,11.500 1.282 M12.840 2.822 C 14.712 3.125,16.330 4.509,16.953 6.340 C 17.183 7.018,17.220 7.289,17.216 8.260 C 17.213 9.036,17.200 9.204,17.107 9.683 C 16.544 12.591,14.905 15.042,12.869 16.022 C 12.230 16.330,11.770 16.330,11.131 16.022 C 10.491 15.714,9.929 15.292,9.355 14.689 C 8.126 13.397,7.278 11.674,6.893 9.683 C 6.800 9.204,6.787 9.036,6.784 8.260 C 6.780 7.289,6.817 7.018,7.047 6.340 C 7.479 5.072,8.413 3.976,9.602 3.344 C 10.015 3.125,10.672 2.900,11.124 2.824 C 11.580 2.748,12.377 2.747,12.840 2.822 M11.660 5.278 C 10.776 5.385,10.027 5.901,9.568 6.720 C 9.168 7.434,9.168 8.566,9.568 9.280 C 10.094 10.219,10.953 10.731,12.000 10.731 C 13.047 10.731,13.906 10.219,14.432 9.280 C 14.832 8.566,14.832 7.434,14.432 6.720 C 13.857 5.694,12.796 5.142,11.660 5.278 M12.454 6.841 C 12.744 6.950,13.050 7.256,13.159 7.546 C 13.467 8.369,12.871 9.240,12.000 9.240 C 11.670 9.240,11.374 9.120,11.143 8.893 C 10.841 8.594,10.780 8.446,10.780 8.000 C 10.780 7.554,10.841 7.406,11.144 7.107 C 11.482 6.773,11.994 6.669,12.454 6.841 M2.840 14.286 C 2.534 14.375,2.012 14.873,1.672 15.400 C 1.203 16.127,1.135 16.975,1.485 17.754 C 2.256 19.474,5.195 20.827,9.121 21.270 L 9.740 21.340 9.761 21.800 C 9.783 22.300,9.806 22.367,10.018 22.553 C 10.282 22.785,10.655 22.802,10.936 22.595 C 11.257 22.359,12.589 21.154,12.656 21.039 C 12.752 20.872,12.758 20.547,12.667 20.358 C 12.595 20.209,11.065 18.841,10.827 18.712 C 10.574 18.575,10.147 18.652,9.952 18.867 C 9.823 19.009,9.760 19.230,9.760 19.539 C 9.760 19.705,9.743 19.840,9.722 19.840 C 9.700 19.840,9.408 19.805,9.072 19.761 C 6.399 19.418,4.297 18.673,3.300 17.715 C 2.910 17.341,2.760 17.073,2.760 16.753 C 2.761 16.415,2.902 16.168,3.337 15.738 C 3.668 15.411,3.717 15.345,3.754 15.170 C 3.874 14.611,3.375 14.129,2.840 14.286 M20.745 14.288 C 20.384 14.387,20.150 14.807,20.246 15.186 C 20.285 15.342,20.354 15.433,20.665 15.740 C 21.252 16.319,21.366 16.676,21.125 17.180 C 21.012 17.417,20.668 17.795,20.360 18.021 C 19.278 18.816,17.247 19.464,14.902 19.765 C 14.551 19.810,14.218 19.870,14.162 19.899 C 13.656 20.163,13.631 20.924,14.119 21.194 C 14.348 21.320,14.469 21.326,15.120 21.242 C 18.141 20.854,20.509 19.976,21.755 18.781 C 22.443 18.122,22.729 17.516,22.730 16.720 C 22.731 16.022,22.428 15.382,21.802 14.759 C 21.345 14.305,21.094 14.193,20.745 14.288 " stroke="none" fill-rule="evenodd" fill="black"></path></svg>