<svg width="24" height="24" viewBox="0 0 24 24" fill="none" xmlns="http://www.w3.org/2000/svg"><path d="M11.380 1.281 C 9.107 1.441,6.938 2.530,5.456 4.253 C 4.365 5.522,3.665 6.998,3.382 8.628 C 3.199 9.683,3.238 11.204,3.482 12.560 C 4.015 15.524,5.433 18.336,7.388 20.311 C 8.219 21.149,9.090 21.789,10.020 22.243 C 10.597 22.525,11.070 22.666,11.603 22.716 C 12.421 22.793,13.150 22.648,13.980 22.243 C 16.018 21.248,17.852 19.294,19.113 16.776 C 19.930 15.142,20.458 13.368,20.663 11.560 C 20.754 10.757,20.746 9.472,20.645 8.820 C 20.147 5.581,18.022 2.932,15.018 1.804 C 13.896 1.383,12.589 1.195,11.380 1.281 M13.380 2.878 C 14.809 3.185,16.040 3.851,17.064 4.870 C 18.109 5.910,18.790 7.178,19.109 8.678 C 19.231 9.253,19.276 10.451,19.203 11.186 C 18.796 15.262,16.573 19.081,13.642 20.741 C 13.429 20.862,13.102 21.018,12.917 21.088 C 12.594 21.211,12.556 21.217,12.000 21.217 C 11.443 21.217,11.406 21.211,11.080 21.087 C 9.764 20.588,8.261 19.288,7.145 17.686 C 6.093 16.174,5.273 14.151,4.940 12.240 C 4.692 10.821,4.700 9.392,4.961 8.360 C 5.303 7.009,5.968 5.833,6.936 4.870 C 8.049 3.762,9.402 3.072,10.957 2.819 C 11.486 2.733,12.859 2.767,13.380 2.878 M11.579 5.280 C 9.750 5.440,8.200 6.632,7.540 8.384 C 7.182 9.335,7.182 10.665,7.540 11.616 C 8.042 12.949,9.049 13.958,10.376 14.457 C 11.340 14.820,12.660 14.820,13.624 14.457 C 14.951 13.958,15.958 12.949,16.460 11.616 C 16.819 10.661,16.818 9.336,16.457 8.376 C 15.695 6.348,13.716 5.092,11.579 5.280 M12.980 6.894 C 13.508 7.068,13.854 7.286,14.284 7.716 C 14.712 8.143,14.928 8.485,15.108 9.020 C 15.209 9.316,15.217 9.389,15.217 10.000 C 15.217 10.611,15.209 10.684,15.108 10.980 C 14.928 11.515,14.712 11.857,14.284 12.284 C 13.857 12.712,13.515 12.928,12.980 13.108 C 12.684 13.209,12.611 13.217,12.000 13.217 C 11.389 13.217,11.316 13.209,11.020 13.108 C 10.485 12.928,10.143 12.712,9.716 12.284 C 9.288 11.857,9.072 11.515,8.892 10.980 C 8.791 10.684,8.783 10.611,8.783 10.000 C 8.783 9.389,8.791 9.316,8.892 9.020 C 9.072 8.485,9.288 8.143,9.716 7.716 C 10.433 6.999,11.066 6.750,12.100 6.775 C 12.572 6.787,12.710 6.806,12.980 6.894 M11.720 7.805 C 11.665 7.827,11.569 7.893,11.506 7.952 C 11.305 8.143,11.267 8.264,11.248 8.765 L 11.230 9.230 10.765 9.248 C 10.264 9.267,10.143 9.305,9.953 9.506 C 9.819 9.647,9.760 9.799,9.760 10.000 C 9.760 10.201,9.819 10.353,9.953 10.494 C 10.143 10.695,10.264 10.733,10.765 10.752 L 11.230 10.770 11.248 11.235 C 11.267 11.736,11.305 11.857,11.506 12.047 C 11.647 12.181,11.799 12.240,12.000 12.240 C 12.201 12.240,12.353 12.181,12.494 12.047 C 12.695 11.857,12.733 11.736,12.752 11.235 L 12.770 10.770 13.235 10.752 C 13.736 10.733,13.857 10.695,14.047 10.494 C 14.181 10.353,14.240 10.201,14.240 10.000 C 14.240 9.799,14.181 9.647,14.047 9.506 C 13.857 9.305,13.736 9.267,13.235 9.248 L 12.770 9.230 12.752 8.765 C 12.733 8.264,12.695 8.143,12.494 7.953 C 12.431 7.893,12.329 7.826,12.267 7.803 C 12.129 7.750,11.854 7.751,11.720 7.805 " stroke="none" fill-rule="evenodd" fill="black"></path></svg>