<svg width="24" height="24" viewBox="0 0 24 24" fill="none" xmlns="http://www.w3.org/2000/svg"><path d="M11.670 1.285 C 10.989 1.372,10.352 1.808,9.986 2.436 C 9.851 2.668,2.585 18.939,2.416 19.386 C 2.291 19.718,2.234 20.232,2.282 20.577 C 2.430 21.621,3.122 22.415,4.120 22.685 C 4.401 22.761,4.976 22.741,5.280 22.645 C 5.424 22.600,6.803 21.888,8.360 21.057 C 12.002 19.113,11.767 19.231,12.000 19.231 C 12.233 19.231,11.998 19.113,15.640 21.057 C 17.197 21.888,18.576 22.600,18.720 22.645 C 19.024 22.741,19.599 22.761,19.880 22.685 C 20.873 22.416,21.570 21.621,21.716 20.589 C 21.762 20.260,21.706 19.713,21.595 19.414 C 21.463 19.061,14.258 2.909,14.067 2.540 C 13.605 1.645,12.671 1.156,11.670 1.285 M12.331 2.815 C 12.402 2.846,12.519 2.933,12.591 3.008 C 12.692 3.114,13.592 5.096,16.468 11.543 C 19.904 19.245,20.216 19.961,20.232 20.192 C 20.274 20.796,19.832 21.285,19.291 21.232 C 19.134 21.216,18.549 20.918,16.040 19.577 C 14.357 18.677,12.854 17.897,12.700 17.844 C 12.301 17.705,11.699 17.705,11.300 17.844 C 11.146 17.897,9.643 18.677,7.960 19.577 C 5.452 20.918,4.866 21.216,4.709 21.232 C 4.169 21.285,3.726 20.796,3.768 20.192 C 3.784 19.961,4.092 19.253,7.531 11.543 C 10.406 5.099,11.308 3.114,11.409 3.008 C 11.481 2.933,11.594 2.846,11.660 2.817 C 11.817 2.746,12.169 2.746,12.331 2.815 " stroke="none" fill-rule="evenodd" fill="black"></path></svg>