<svg width="24" height="24" viewBox="0 0 24 24" fill="none" xmlns="http://www.w3.org/2000/svg"><path d="M11.380 1.281 C 9.107 1.441,6.938 2.530,5.456 4.253 C 4.365 5.522,3.665 6.998,3.382 8.628 C 3.199 9.683,3.238 11.204,3.482 12.560 C 4.015 15.524,5.433 18.336,7.388 20.311 C 8.219 21.149,9.090 21.789,10.020 22.243 C 10.597 22.525,11.070 22.666,11.603 22.716 C 12.421 22.793,13.150 22.648,13.980 22.243 C 16.018 21.248,17.852 19.294,19.113 16.776 C 19.930 15.142,20.458 13.368,20.663 11.560 C 20.754 10.757,20.746 9.472,20.645 8.820 C 20.147 5.581,18.022 2.932,15.018 1.804 C 13.896 1.383,12.589 1.195,11.380 1.281 M13.380 2.878 C 14.809 3.185,16.040 3.851,17.064 4.870 C 18.109 5.910,18.790 7.178,19.109 8.678 C 19.231 9.253,19.276 10.451,19.203 11.186 C 18.796 15.262,16.573 19.081,13.642 20.741 C 13.429 20.862,13.102 21.018,12.917 21.088 C 12.594 21.211,12.556 21.217,12.000 21.217 C 11.443 21.217,11.406 21.211,11.080 21.087 C 9.764 20.588,8.261 19.288,7.145 17.686 C 6.093 16.174,5.273 14.151,4.940 12.240 C 4.692 10.821,4.700 9.392,4.961 8.360 C 5.303 7.009,5.968 5.833,6.936 4.870 C 8.049 3.762,9.402 3.072,10.957 2.819 C 11.486 2.733,12.859 2.767,13.380 2.878 M10.220 6.268 C 9.053 6.423,8.274 7.403,8.273 8.720 C 8.272 9.380,8.462 9.877,8.975 10.560 C 9.462 11.209,10.759 12.338,11.300 12.585 C 11.585 12.714,11.946 12.764,12.250 12.716 C 12.612 12.658,12.838 12.540,13.400 12.117 C 14.538 11.260,15.362 10.286,15.614 9.500 C 15.958 8.430,15.544 7.140,14.682 6.593 C 13.981 6.148,12.989 6.159,12.225 6.619 L 12.000 6.754 11.775 6.619 C 11.499 6.452,11.150 6.334,10.780 6.281 C 10.496 6.241,10.434 6.239,10.220 6.268 M10.967 7.877 C 11.070 7.929,11.241 8.047,11.347 8.140 C 11.613 8.371,11.762 8.440,12.000 8.440 C 12.238 8.440,12.387 8.371,12.653 8.140 C 12.964 7.868,13.173 7.780,13.508 7.780 C 13.790 7.780,13.800 7.783,13.959 7.939 C 14.148 8.124,14.240 8.378,14.240 8.717 C 14.240 8.985,14.091 9.327,13.826 9.672 C 13.463 10.144,12.301 11.159,12.049 11.225 C 11.940 11.254,11.776 11.152,11.257 10.736 C 10.555 10.173,9.957 9.475,9.807 9.044 C 9.743 8.859,9.748 8.535,9.819 8.297 C 9.875 8.107,10.091 7.845,10.240 7.786 C 10.373 7.733,10.783 7.785,10.967 7.877 " stroke="none" fill-rule="evenodd" fill="black"></path></svg>