<svg width="24" height="24" viewBox="0 0 24 24" fill="none" xmlns="http://www.w3.org/2000/svg"><path d="M19.889 2.284 C 19.752 2.305,19.527 2.363,19.389 2.414 C 18.965 2.570,2.675 9.848,2.420 9.995 C 1.907 10.291,1.445 10.906,1.318 11.460 C 1.260 11.717,1.260 12.283,1.318 12.540 C 1.445 13.094,1.907 13.709,2.420 14.005 C 2.673 14.152,18.964 21.430,19.384 21.585 C 20.774 22.096,22.310 21.302,22.683 19.880 C 22.757 19.598,22.738 19.022,22.644 18.720 C 22.597 18.572,21.926 17.268,21.078 15.680 C 19.138 12.049,19.231 12.233,19.231 12.000 C 19.231 11.767,19.116 11.995,21.057 8.360 C 21.912 6.758,22.598 5.428,22.644 5.280 C 22.768 4.882,22.760 4.351,22.623 3.940 C 22.252 2.824,21.067 2.107,19.889 2.284 M20.700 3.854 C 20.933 3.963,21.131 4.171,21.200 4.381 C 21.312 4.718,21.320 4.700,19.577 7.960 C 18.677 9.643,17.897 11.146,17.844 11.300 C 17.705 11.699,17.705 12.301,17.844 12.700 C 17.897 12.854,18.677 14.357,19.577 16.040 C 20.917 18.547,21.216 19.134,21.231 19.291 C 21.285 19.831,20.796 20.274,20.192 20.232 C 19.960 20.217,19.259 19.911,11.544 16.469 C 5.086 13.588,3.115 12.693,3.009 12.592 C 2.831 12.423,2.760 12.253,2.760 12.000 C 2.760 11.747,2.831 11.577,3.008 11.409 C 3.114 11.308,5.068 10.420,11.403 7.593 C 15.944 5.567,19.741 3.876,19.840 3.836 C 20.100 3.731,20.453 3.739,20.700 3.854 " stroke="none" fill-rule="evenodd" fill="black"></path></svg>