<svg width="24" height="24" viewBox="0 0 24 24" fill="none" xmlns="http://www.w3.org/2000/svg"><path d="M4.440 1.264 C 3.922 1.345,3.658 1.447,3.295 1.704 C 2.403 2.335,2.028 3.582,2.418 4.619 C 2.619 5.153,9.862 21.352,10.018 21.615 C 10.311 22.112,10.913 22.557,11.460 22.682 C 11.717 22.740,12.283 22.740,12.540 22.682 C 13.150 22.543,13.760 22.055,14.067 21.460 C 14.259 21.089,21.465 4.936,21.595 4.586 C 21.706 4.286,21.762 3.740,21.716 3.411 C 21.570 2.379,20.867 1.578,19.880 1.316 C 19.594 1.240,19.021 1.259,18.720 1.355 C 18.577 1.400,17.195 2.113,15.640 2.943 C 12.005 4.884,12.233 4.769,12.000 4.769 C 11.767 4.769,11.995 4.884,8.360 2.943 C 6.809 2.115,5.432 1.404,5.300 1.364 C 5.052 1.288,4.615 1.237,4.440 1.264 M5.121 2.913 C 5.285 2.997,6.680 3.739,8.220 4.563 C 9.760 5.386,11.146 6.103,11.300 6.156 C 11.674 6.286,12.295 6.292,12.671 6.170 C 12.808 6.125,14.194 5.408,15.751 4.577 C 19.370 2.644,19.140 2.760,19.359 2.761 C 19.878 2.763,20.272 3.235,20.232 3.808 C 20.216 4.039,19.908 4.747,16.469 12.457 C 13.594 18.899,12.692 20.886,12.591 20.992 C 12.423 21.169,12.253 21.240,12.000 21.240 C 11.747 21.240,11.577 21.169,11.408 20.991 C 11.307 20.885,10.414 18.920,7.531 12.456 C 4.090 4.745,3.784 4.039,3.768 3.808 C 3.728 3.235,4.122 2.763,4.641 2.761 C 4.773 2.760,4.903 2.801,5.121 2.913 " stroke="none" fill-rule="evenodd" fill="black"></path></svg>