<svg width="24" height="24" viewBox="0 0 24 24" fill="none" xmlns="http://www.w3.org/2000/svg"><path d="M11.336 1.283 C 11.092 1.301,10.666 1.361,10.390 1.417 C 7.254 2.052,4.875 4.392,4.356 7.353 C 4.260 7.897,4.243 8.930,4.318 9.580 C 4.559 11.664,5.358 13.641,6.679 15.420 C 7.062 15.936,8.110 16.986,8.610 17.356 C 9.588 18.079,10.564 18.560,11.300 18.682 C 11.659 18.741,12.341 18.741,12.700 18.682 C 13.436 18.560,14.414 18.077,15.390 17.355 C 15.896 16.980,16.901 15.974,17.302 15.441 C 18.626 13.678,19.440 11.675,19.682 9.580 C 19.757 8.930,19.740 7.897,19.644 7.353 C 19.387 5.888,18.627 4.476,17.542 3.449 C 16.189 2.168,14.470 1.417,12.578 1.281 C 11.969 1.237,11.980 1.237,11.336 1.283 M12.940 2.817 C 13.730 2.939,14.332 3.131,15.029 3.483 C 16.719 4.339,17.900 5.912,18.183 7.686 C 18.271 8.235,18.243 9.304,18.124 9.960 C 17.828 11.591,17.174 13.107,16.197 14.428 C 15.849 14.898,14.904 15.855,14.460 16.186 C 13.822 16.663,12.993 17.095,12.528 17.195 C 12.256 17.253,11.744 17.253,11.472 17.195 C 11.020 17.098,10.207 16.677,9.560 16.205 C 9.139 15.898,8.147 14.895,7.803 14.428 C 6.824 13.102,6.180 11.610,5.875 9.960 C 5.760 9.341,5.731 8.219,5.816 7.690 C 6.216 5.195,8.287 3.257,11.020 2.820 C 11.456 2.751,12.498 2.749,12.940 2.817 M11.660 6.278 C 10.776 6.385,10.027 6.901,9.568 7.720 C 9.168 8.434,9.168 9.566,9.568 10.280 C 10.094 11.219,10.953 11.731,12.000 11.731 C 13.047 11.731,13.906 11.219,14.432 10.280 C 14.832 9.566,14.832 8.434,14.432 7.720 C 13.857 6.694,12.796 6.142,11.660 6.278 M12.454 7.841 C 12.744 7.950,13.050 8.256,13.159 8.546 C 13.467 9.369,12.871 10.240,12.000 10.240 C 11.670 10.240,11.374 10.120,11.143 9.893 C 10.841 9.594,10.780 9.446,10.780 9.000 C 10.780 8.554,10.841 8.406,11.144 8.107 C 11.482 7.773,11.994 7.669,12.454 7.841 M2.722 14.823 C 2.417 14.955,1.763 15.755,1.523 16.290 C 1.182 17.046,1.182 17.953,1.521 18.707 C 1.731 19.174,2.155 19.724,2.600 20.109 C 4.648 21.878,8.625 22.886,12.890 22.716 C 18.865 22.480,23.050 20.121,22.717 17.178 C 22.654 16.620,22.447 16.117,22.072 15.610 C 21.837 15.290,21.420 14.884,21.259 14.817 C 20.761 14.609,20.229 14.963,20.229 15.501 C 20.229 15.759,20.268 15.830,20.628 16.220 C 20.816 16.423,20.978 16.648,21.072 16.838 C 21.210 17.115,21.220 17.161,21.220 17.498 C 21.220 17.805,21.204 17.893,21.116 18.080 C 20.494 19.393,18.289 20.491,15.260 20.995 C 14.151 21.180,13.573 21.220,12.000 21.220 C 10.427 21.220,9.849 21.180,8.740 20.995 C 5.709 20.491,3.507 19.394,2.884 18.080 C 2.796 17.893,2.780 17.805,2.780 17.498 C 2.780 17.161,2.790 17.115,2.928 16.838 C 3.022 16.648,3.184 16.423,3.372 16.220 C 3.732 15.830,3.771 15.759,3.771 15.501 C 3.771 15.273,3.701 15.111,3.534 14.953 C 3.325 14.755,2.999 14.703,2.722 14.823 " stroke="none" fill-rule="evenodd" fill="black"></path></svg>