<svg width="24" height="24" viewBox="0 0 24 24" fill="none" xmlns="http://www.w3.org/2000/svg"><path d="M11.380 1.281 C 9.107 1.441,6.938 2.530,5.456 4.253 C 4.365 5.522,3.665 6.998,3.382 8.628 C 3.199 9.683,3.238 11.204,3.482 12.560 C 4.015 15.524,5.433 18.336,7.388 20.311 C 8.219 21.149,9.090 21.789,10.020 22.243 C 10.597 22.525,11.070 22.666,11.603 22.716 C 12.421 22.793,13.150 22.648,13.980 22.243 C 16.018 21.248,17.852 19.294,19.113 16.776 C 19.930 15.142,20.458 13.368,20.663 11.560 C 20.754 10.757,20.746 9.472,20.645 8.820 C 20.147 5.581,18.022 2.932,15.018 1.804 C 13.896 1.383,12.589 1.195,11.380 1.281 M13.380 2.878 C 14.809 3.185,16.040 3.851,17.064 4.870 C 18.109 5.910,18.790 7.178,19.109 8.678 C 19.231 9.253,19.276 10.451,19.203 11.186 C 18.796 15.262,16.573 19.081,13.642 20.741 C 13.429 20.862,13.102 21.018,12.917 21.088 C 12.594 21.211,12.556 21.217,12.000 21.217 C 11.443 21.217,11.406 21.211,11.080 21.087 C 9.764 20.588,8.261 19.288,7.145 17.686 C 6.093 16.174,5.273 14.151,4.940 12.240 C 4.692 10.821,4.700 9.392,4.961 8.360 C 5.303 7.009,5.968 5.833,6.936 4.870 C 8.049 3.762,9.402 3.072,10.957 2.819 C 11.486 2.733,12.859 2.767,13.380 2.878 M11.720 6.805 C 11.591 6.856,11.411 7.028,11.326 7.180 C 11.271 7.280,11.258 7.458,11.247 8.267 L 11.234 9.234 10.267 9.247 C 9.215 9.261,9.178 9.269,8.953 9.506 C 8.691 9.783,8.691 10.217,8.953 10.494 C 9.178 10.731,9.215 10.739,10.267 10.753 L 11.234 10.766 11.247 11.733 C 11.261 12.785,11.269 12.822,11.506 13.047 C 11.647 13.181,11.799 13.240,12.000 13.240 C 12.201 13.240,12.353 13.181,12.494 13.047 C 12.731 12.822,12.739 12.785,12.753 11.733 L 12.766 10.766 13.733 10.753 C 14.785 10.739,14.822 10.731,15.047 10.494 C 15.181 10.353,15.240 10.201,15.240 10.000 C 15.240 9.799,15.181 9.647,15.047 9.506 C 14.822 9.269,14.785 9.261,13.733 9.247 L 12.766 9.234 12.753 8.267 C 12.742 7.458,12.729 7.280,12.674 7.180 C 12.586 7.021,12.407 6.855,12.267 6.803 C 12.129 6.750,11.854 6.751,11.720 6.805 " stroke="none" fill-rule="evenodd" fill="black"></path></svg>