<svg width="24" height="24" viewBox="0 0 24 24" fill="none" xmlns="http://www.w3.org/2000/svg"><path d="M11.380 1.281 C 9.107 1.441,6.938 2.530,5.456 4.253 C 4.365 5.522,3.665 6.998,3.382 8.628 C 3.199 9.683,3.238 11.204,3.482 12.560 C 4.015 15.524,5.433 18.336,7.388 20.311 C 8.219 21.149,9.090 21.789,10.020 22.243 C 10.597 22.525,11.070 22.666,11.603 22.716 C 12.421 22.793,13.150 22.648,13.980 22.243 C 16.018 21.248,17.852 19.294,19.113 16.776 C 19.930 15.142,20.458 13.368,20.663 11.560 C 20.754 10.757,20.746 9.472,20.645 8.820 C 20.147 5.581,18.022 2.932,15.018 1.804 C 13.896 1.383,12.589 1.195,11.380 1.281 M13.380 2.878 C 14.809 3.185,16.040 3.851,17.064 4.870 C 18.109 5.910,18.790 7.178,19.109 8.678 C 19.231 9.253,19.276 10.451,19.203 11.186 C 18.796 15.262,16.573 19.081,13.642 20.741 C 13.429 20.862,13.102 21.018,12.917 21.088 C 12.594 21.211,12.556 21.217,12.000 21.217 C 11.443 21.217,11.406 21.211,11.080 21.087 C 9.764 20.588,8.261 19.288,7.145 17.686 C 6.093 16.174,5.273 14.151,4.940 12.240 C 4.692 10.821,4.700 9.392,4.961 8.360 C 5.303 7.009,5.968 5.833,6.936 4.870 C 8.049 3.762,9.402 3.072,10.957 2.819 C 11.486 2.733,12.859 2.767,13.380 2.878 M11.740 6.266 C 10.415 6.385,9.327 7.085,8.719 8.212 C 8.400 8.803,8.271 9.320,8.271 10.000 C 8.271 10.682,8.400 11.197,8.721 11.792 C 9.078 12.453,9.549 12.923,10.212 13.281 C 10.803 13.600,11.320 13.729,12.000 13.729 C 12.677 13.729,13.197 13.599,13.780 13.285 L 14.070 13.129 14.545 13.609 C 15.040 14.109,15.233 14.238,15.491 14.239 C 15.659 14.240,15.896 14.154,16.014 14.048 C 16.130 13.946,16.238 13.680,16.238 13.500 C 16.238 13.234,16.114 13.045,15.609 12.545 L 15.129 12.070 15.285 11.780 C 15.599 11.197,15.729 10.677,15.729 10.000 C 15.729 9.320,15.600 8.803,15.281 8.212 C 14.832 7.381,14.122 6.779,13.215 6.463 C 12.793 6.316,12.149 6.230,11.740 6.266 M12.578 7.821 C 12.949 7.918,13.274 8.112,13.581 8.419 C 14.041 8.879,14.240 9.356,14.240 10.000 C 14.240 10.644,14.041 11.121,13.581 11.581 C 13.121 12.041,12.644 12.240,12.000 12.240 C 11.356 12.240,10.879 12.041,10.419 11.581 C 9.959 11.121,9.760 10.644,9.760 10.000 C 9.760 9.356,9.959 8.879,10.419 8.419 C 10.719 8.118,11.050 7.919,11.404 7.823 C 11.692 7.746,12.285 7.745,12.578 7.821 " stroke="none" fill-rule="evenodd" fill="black"></path></svg>