<svg width="24" height="24" viewBox="0 0 24 24" fill="none" xmlns="http://www.w3.org/2000/svg"><path d="M11.380 1.281 C 9.107 1.441,6.938 2.530,5.456 4.253 C 4.365 5.522,3.665 6.998,3.382 8.628 C 3.199 9.683,3.238 11.204,3.482 12.560 C 4.015 15.524,5.433 18.336,7.388 20.311 C 8.219 21.149,9.090 21.789,10.020 22.243 C 10.597 22.525,11.070 22.666,11.603 22.716 C 12.421 22.793,13.150 22.648,13.980 22.243 C 16.018 21.248,17.852 19.294,19.113 16.776 C 19.930 15.142,20.458 13.368,20.663 11.560 C 20.754 10.757,20.746 9.472,20.645 8.820 C 20.147 5.581,18.022 2.932,15.018 1.804 C 13.896 1.383,12.589 1.195,11.380 1.281 M13.380 2.878 C 14.809 3.185,16.040 3.851,17.064 4.870 C 18.109 5.910,18.790 7.178,19.109 8.678 C 19.231 9.253,19.276 10.451,19.203 11.186 C 18.796 15.262,16.573 19.081,13.642 20.741 C 13.429 20.862,13.102 21.018,12.917 21.088 C 12.594 21.211,12.556 21.217,12.000 21.217 C 11.443 21.217,11.406 21.211,11.080 21.087 C 9.764 20.588,8.261 19.288,7.145 17.686 C 6.093 16.174,5.273 14.151,4.940 12.240 C 4.692 10.821,4.700 9.392,4.961 8.360 C 5.303 7.009,5.968 5.833,6.936 4.870 C 8.049 3.762,9.402 3.072,10.957 2.819 C 11.486 2.733,12.859 2.767,13.380 2.878 M8.826 9.284 C 8.476 9.366,8.267 9.636,8.267 10.003 C 8.267 10.281,8.387 10.496,8.627 10.645 L 8.780 10.740 11.860 10.753 C 14.087 10.762,14.999 10.752,15.154 10.719 C 15.919 10.553,15.926 9.448,15.162 9.284 C 14.908 9.230,9.058 9.230,8.826 9.284 " stroke="none" fill-rule="evenodd" fill="black"></path></svg>