<svg width="24" height="24" viewBox="0 0 24 24" fill="none" xmlns="http://www.w3.org/2000/svg"><path d="M10.050 1.289 C 9.513 1.343,8.889 1.679,8.531 2.107 C 8.350 2.323,8.094 2.776,7.963 3.112 C 7.833 3.444,7.596 4.292,7.163 5.977 C 6.943 6.833,6.749 7.547,6.731 7.564 C 6.714 7.581,6.214 7.651,5.620 7.719 C 3.600 7.951,3.225 8.025,2.652 8.305 C 2.065 8.592,1.662 9.047,1.405 9.710 C 1.307 9.964,1.301 10.021,1.302 10.660 C 1.303 11.301,1.311 11.377,1.451 11.980 C 1.629 12.749,2.558 16.392,2.706 16.900 C 3.325 19.033,4.703 20.666,6.753 21.696 C 7.746 22.195,9.149 22.597,10.323 22.718 C 11.348 22.824,12.935 22.375,13.778 21.741 C 14.996 20.825,16.187 19.441,16.807 18.222 L 17.014 17.814 17.382 17.626 C 19.223 16.688,20.551 15.148,21.202 13.200 C 21.321 12.841,22.351 8.849,22.569 7.898 C 22.685 7.390,22.696 7.279,22.698 6.660 C 22.699 6.021,22.693 5.964,22.595 5.710 C 22.288 4.919,21.753 4.406,20.952 4.134 C 20.577 4.008,19.977 3.905,18.880 3.779 C 15.790 3.426,15.781 3.423,13.180 2.221 C 11.311 1.357,10.821 1.211,10.050 1.289 M10.914 2.876 C 11.252 2.990,11.742 3.204,13.242 3.892 C 15.231 4.804,15.585 4.898,18.200 5.200 C 20.562 5.474,20.773 5.532,21.074 5.996 L 21.220 6.220 21.218 6.680 C 21.216 7.216,21.206 7.260,20.400 10.413 C 19.813 12.709,19.759 12.885,19.462 13.506 C 19.219 14.013,19.019 14.324,18.645 14.776 C 18.405 15.065,17.750 15.680,17.681 15.680 C 17.665 15.680,17.668 15.585,17.688 15.470 C 17.749 15.120,17.733 13.906,17.662 13.443 C 17.576 12.882,17.541 12.735,17.012 10.664 C 16.580 8.974,16.557 8.865,16.626 8.827 C 16.667 8.805,16.786 8.699,16.891 8.591 C 17.119 8.358,17.286 8.280,17.560 8.280 C 17.799 8.280,18.016 8.362,18.174 8.512 C 18.318 8.649,18.387 8.782,18.441 9.026 C 18.568 9.598,19.132 9.854,19.594 9.549 C 19.827 9.395,19.937 9.140,19.907 8.826 C 19.800 7.699,18.767 6.797,17.580 6.795 C 17.116 6.794,16.760 6.885,16.381 7.101 C 16.215 7.195,16.080 7.251,16.080 7.226 C 16.080 7.118,15.669 6.354,15.499 6.145 C 15.184 5.759,14.650 5.425,14.174 5.319 C 13.893 5.256,13.350 5.267,12.997 5.343 C 12.705 5.406,12.676 5.406,12.494 5.341 C 12.205 5.237,11.524 5.214,11.202 5.296 C 10.462 5.486,9.760 6.093,9.760 6.543 L 9.760 6.711 9.290 6.910 C 8.659 7.178,8.443 7.256,8.414 7.227 C 8.386 7.200,8.869 5.288,9.146 4.327 C 9.426 3.353,9.594 3.048,9.955 2.860 C 10.213 2.726,10.480 2.730,10.914 2.876 M14.022 6.855 C 14.380 7.021,14.558 7.320,14.814 8.180 C 15.001 8.809,16.025 12.791,16.125 13.280 C 16.229 13.783,16.267 14.799,16.202 15.290 C 15.985 16.930,15.172 18.416,13.739 19.793 C 12.850 20.648,12.520 20.849,11.588 21.103 C 10.909 21.289,10.446 21.278,9.440 21.055 C 7.883 20.709,6.619 20.057,5.682 19.116 C 5.198 18.629,4.856 18.150,4.557 17.540 C 4.246 16.904,4.201 16.754,3.598 14.400 C 2.796 11.270,2.784 11.217,2.782 10.680 L 2.780 10.220 2.926 9.996 C 3.227 9.532,3.438 9.474,5.800 9.200 C 8.401 8.899,8.783 8.799,10.740 7.900 C 13.357 6.699,13.553 6.637,14.022 6.855 M12.080 9.664 C 11.534 9.810,11.083 10.113,10.758 10.553 C 10.475 10.936,10.344 11.298,10.342 11.703 C 10.340 11.996,10.350 12.039,10.452 12.173 C 10.851 12.697,11.688 12.498,11.787 11.856 C 11.858 11.400,12.233 11.080,12.696 11.080 C 12.916 11.080,13.110 11.179,13.361 11.418 C 13.706 11.747,14.031 11.798,14.369 11.577 C 14.689 11.369,14.781 10.894,14.567 10.558 C 14.312 10.156,13.790 9.801,13.254 9.663 C 12.949 9.585,12.375 9.585,12.080 9.664 M6.570 11.167 C 6.030 11.224,5.417 11.553,5.050 11.983 C 4.752 12.331,4.520 12.907,4.520 13.296 C 4.520 13.834,5.095 14.195,5.580 13.960 C 5.797 13.855,5.938 13.662,5.999 13.386 C 6.076 13.037,6.244 12.821,6.529 12.702 C 6.861 12.563,7.342 12.670,7.521 12.922 C 7.782 13.288,8.270 13.367,8.624 13.099 C 8.880 12.905,8.964 12.482,8.808 12.175 C 8.671 11.908,8.303 11.579,7.945 11.405 C 7.471 11.175,7.100 11.111,6.570 11.167 M10.920 15.081 C 9.397 15.295,7.995 16.149,7.479 17.176 C 7.188 17.756,7.495 18.331,8.095 18.331 C 8.425 18.331,8.551 18.245,8.828 17.828 C 9.319 17.090,10.425 16.558,11.480 16.552 C 11.985 16.549,12.348 16.628,12.728 16.821 C 12.934 16.926,13.050 16.960,13.207 16.960 C 13.628 16.960,13.937 16.645,13.933 16.219 C 13.930 15.858,13.756 15.650,13.260 15.414 C 12.646 15.121,11.646 14.979,10.920 15.081 " stroke="none" fill-rule="evenodd" fill="black"></path></svg>