<svg width="24" height="24" viewBox="0 0 24 24" fill="none" xmlns="http://www.w3.org/2000/svg"><path d="M4.672 1.724 C 3.419 1.827,2.673 2.517,2.403 3.821 C 2.272 4.451,2.230 6.097,2.251 9.739 C 2.267 12.401,2.280 12.973,2.336 13.360 C 2.665 15.641,3.580 17.471,5.197 19.080 C 6.327 20.205,7.678 21.106,9.367 21.865 C 10.451 22.351,11.000 22.480,12.000 22.480 C 13.000 22.480,13.549 22.351,14.633 21.865 C 18.207 20.261,20.533 17.810,21.377 14.760 C 21.713 13.549,21.728 13.347,21.749 9.775 C 21.770 6.147,21.727 4.445,21.597 3.821 C 21.403 2.885,20.997 2.307,20.299 1.974 C 19.920 1.793,19.516 1.715,18.960 1.715 C 18.357 1.714,17.825 1.782,15.640 2.139 C 12.760 2.609,12.999 2.580,12.000 2.580 C 11.000 2.580,11.239 2.609,8.360 2.139 C 5.932 1.742,5.309 1.672,4.672 1.724 M6.440 3.339 C 6.825 3.398,7.833 3.560,8.680 3.700 C 10.717 4.036,11.204 4.093,12.000 4.093 C 12.796 4.093,13.283 4.036,15.320 3.700 C 17.583 3.326,18.208 3.237,18.720 3.212 C 19.675 3.166,19.961 3.348,20.144 4.122 C 20.208 4.394,20.216 4.775,20.230 8.520 C 20.243 12.124,20.237 12.682,20.180 13.131 C 19.937 15.043,19.145 16.630,17.734 18.029 C 16.716 19.039,15.486 19.856,14.000 20.511 C 13.080 20.916,12.738 20.999,12.000 20.999 C 11.262 20.999,10.920 20.916,10.000 20.511 C 6.823 19.112,4.693 16.869,4.026 14.220 C 3.767 13.194,3.780 13.477,3.780 8.800 C 3.780 4.248,3.783 4.170,3.978 3.740 C 4.120 3.426,4.252 3.319,4.620 3.225 C 4.801 3.178,5.786 3.240,6.440 3.339 M8.120 7.282 C 7.213 7.369,6.399 7.810,5.980 8.440 C 5.703 8.856,5.686 9.188,5.928 9.463 C 6.095 9.653,6.258 9.731,6.501 9.734 C 6.765 9.738,6.931 9.640,7.154 9.346 C 7.473 8.926,7.821 8.780,8.500 8.780 C 9.179 8.780,9.527 8.926,9.846 9.346 C 10.069 9.640,10.235 9.738,10.499 9.734 C 10.742 9.731,10.905 9.653,11.072 9.463 C 11.314 9.188,11.297 8.856,11.020 8.440 C 10.481 7.629,9.320 7.165,8.120 7.282 M15.120 7.282 C 14.213 7.369,13.399 7.810,12.980 8.440 C 12.703 8.856,12.686 9.188,12.928 9.463 C 13.095 9.653,13.258 9.731,13.501 9.734 C 13.765 9.738,13.931 9.640,14.154 9.346 C 14.473 8.926,14.821 8.780,15.500 8.780 C 16.179 8.780,16.527 8.926,16.846 9.346 C 17.069 9.640,17.235 9.738,17.499 9.734 C 17.742 9.731,17.905 9.653,18.072 9.463 C 18.314 9.188,18.297 8.856,18.020 8.440 C 17.481 7.629,16.320 7.165,15.120 7.282 M11.340 13.282 C 10.541 13.337,9.813 13.501,9.124 13.781 C 8.484 14.041,7.930 14.434,7.814 14.709 C 7.584 15.257,8.078 15.851,8.656 15.721 C 8.739 15.702,8.913 15.612,9.044 15.521 C 9.806 14.986,10.861 14.734,12.189 14.770 C 13.412 14.803,14.259 15.035,14.967 15.529 C 15.386 15.821,15.749 15.810,16.047 15.494 C 16.241 15.289,16.297 14.973,16.186 14.709 C 16.070 14.434,15.516 14.041,14.876 13.781 C 14.164 13.492,13.472 13.340,12.583 13.279 C 12.003 13.239,11.965 13.239,11.340 13.282 " stroke="none" fill-rule="evenodd" fill="black"></path></svg>