<svg width="24" height="24" viewBox="0 0 24 24" fill="none" xmlns="http://www.w3.org/2000/svg"><path d="M8.980 1.279 C 5.934 1.357,4.544 1.674,3.380 2.557 C 2.206 3.448,1.597 4.807,1.379 7.020 C 1.294 7.886,1.224 10.869,1.282 11.149 C 1.420 11.812,2.285 11.952,2.647 11.369 C 2.739 11.222,2.740 11.199,2.766 9.680 C 2.816 6.803,2.957 5.776,3.437 4.796 C 3.908 3.836,4.711 3.291,6.051 3.022 C 7.175 2.796,7.568 2.780,12.020 2.781 C 16.336 2.781,16.646 2.792,17.760 2.984 C 19.725 3.321,20.680 4.277,21.016 6.240 C 21.199 7.312,21.238 8.324,21.238 12.000 C 21.238 15.041,21.212 16.139,21.117 17.020 C 20.908 18.967,20.361 19.983,19.214 20.556 C 18.240 21.041,17.219 21.183,14.320 21.233 C 12.802 21.260,12.778 21.262,12.631 21.353 C 12.046 21.716,12.183 22.580,12.848 22.718 C 13.129 22.776,16.086 22.707,16.960 22.622 C 18.877 22.435,20.125 21.970,21.001 21.113 C 22.082 20.057,22.517 18.767,22.686 16.120 C 22.750 15.118,22.750 8.882,22.686 7.880 C 22.531 5.452,22.164 4.223,21.281 3.180 C 20.293 2.011,18.858 1.486,16.200 1.321 C 15.326 1.267,10.546 1.239,8.980 1.279 M13.094 6.277 C 12.436 6.439,12.303 7.307,12.886 7.640 C 13.057 7.739,13.075 7.740,14.116 7.753 L 15.173 7.766 13.271 9.673 C 12.225 10.722,11.346 11.625,11.318 11.680 C 11.290 11.735,11.267 11.881,11.267 12.004 C 11.267 12.498,11.681 12.816,12.189 12.711 C 12.372 12.673,12.457 12.595,14.307 10.750 L 16.234 8.828 16.247 9.884 L 16.260 10.940 16.366 11.120 C 16.652 11.606,17.348 11.606,17.634 11.120 L 17.740 10.940 17.740 8.880 C 17.740 6.868,17.738 6.816,17.656 6.660 C 17.610 6.572,17.496 6.446,17.403 6.380 L 17.233 6.260 15.227 6.253 C 14.123 6.249,13.163 6.260,13.094 6.277 M4.520 13.282 C 4.135 13.298,3.703 13.332,3.560 13.357 C 2.180 13.604,1.481 14.387,1.323 15.860 C 1.217 16.849,1.241 19.803,1.361 20.460 C 1.586 21.703,2.281 22.404,3.520 22.638 C 3.986 22.725,5.946 22.773,7.130 22.725 C 8.337 22.676,8.527 22.653,9.008 22.496 C 9.891 22.207,10.440 21.528,10.638 20.480 C 10.724 20.020,10.772 18.020,10.724 16.851 C 10.676 15.663,10.652 15.471,10.496 14.992 C 10.205 14.102,9.519 13.553,8.460 13.360 C 7.912 13.261,5.967 13.222,4.520 13.282 M8.260 14.835 C 8.370 14.860,8.559 14.930,8.679 14.991 C 8.863 15.084,8.916 15.137,9.009 15.321 C 9.208 15.713,9.220 15.861,9.220 18.000 C 9.220 20.139,9.208 20.287,9.009 20.679 C 8.916 20.863,8.863 20.916,8.679 21.009 C 8.287 21.208,8.139 21.220,6.000 21.220 C 3.861 21.220,3.713 21.208,3.321 21.009 C 3.137 20.916,3.084 20.863,2.991 20.679 C 2.930 20.559,2.860 20.370,2.835 20.260 C 2.770 19.968,2.741 16.655,2.798 16.107 C 2.850 15.610,2.955 15.291,3.123 15.123 C 3.276 14.971,3.601 14.851,3.989 14.804 C 4.423 14.752,8.005 14.778,8.260 14.835 " stroke="none" fill-rule="evenodd" fill="black"></path></svg>