<svg width="24" height="24" viewBox="0 0 24 24" fill="none" xmlns="http://www.w3.org/2000/svg"><path d="M15.971 1.278 C 15.795 1.321,15.666 1.411,15.533 1.586 C 15.435 1.714,15.420 1.769,15.420 2.003 C 15.420 2.245,15.433 2.288,15.544 2.426 C 15.811 2.756,15.675 2.739,18.058 2.752 L 20.176 2.763 17.272 5.672 C 15.675 7.271,14.346 8.625,14.318 8.680 C 14.290 8.735,14.267 8.881,14.267 9.004 C 14.267 9.498,14.681 9.816,15.189 9.712 C 15.374 9.673,15.473 9.579,18.308 6.748 L 21.237 3.825 21.248 5.942 C 21.261 8.325,21.244 8.189,21.574 8.456 C 21.712 8.568,21.755 8.580,22.000 8.580 C 22.245 8.580,22.288 8.568,22.426 8.456 C 22.511 8.387,22.616 8.270,22.660 8.196 C 22.738 8.063,22.740 7.988,22.740 4.940 C 22.740 1.853,22.739 1.818,22.656 1.660 C 22.610 1.572,22.496 1.446,22.403 1.380 L 22.233 1.260 19.167 1.253 C 17.480 1.250,16.042 1.261,15.971 1.278 M8.900 14.259 C 8.878 14.267,8.806 14.285,8.740 14.299 C 8.650 14.319,7.891 15.053,5.692 17.250 L 2.763 20.175 2.752 18.058 C 2.739 15.675,2.756 15.811,2.426 15.544 C 2.288 15.432,2.245 15.420,2.000 15.420 C 1.755 15.420,1.712 15.432,1.574 15.544 C 1.489 15.613,1.384 15.730,1.340 15.804 C 1.262 15.937,1.260 16.012,1.260 19.087 L 1.260 22.233 1.380 22.403 C 1.446 22.496,1.572 22.610,1.660 22.656 C 1.818 22.739,1.853 22.740,4.940 22.740 C 7.988 22.740,8.063 22.738,8.196 22.660 C 8.270 22.616,8.387 22.511,8.456 22.426 C 8.568 22.288,8.580 22.245,8.580 22.000 C 8.580 21.755,8.568 21.712,8.456 21.574 C 8.189 21.244,8.325 21.261,5.942 21.248 L 3.825 21.237 6.748 18.308 C 9.579 15.473,9.673 15.374,9.712 15.189 C 9.782 14.847,9.657 14.530,9.389 14.367 C 9.265 14.292,8.983 14.229,8.900 14.259 " stroke="none" fill-rule="evenodd" fill="black"></path></svg>