<svg width="24" height="24" viewBox="0 0 24 24" fill="none" xmlns="http://www.w3.org/2000/svg"><path d="M8.960 1.280 C 6.960 1.332,5.848 1.469,4.900 1.779 C 3.060 2.382,1.958 3.688,1.563 5.734 C 1.311 7.042,1.267 7.973,1.267 12.000 C 1.267 16.027,1.311 16.958,1.563 18.266 C 2.013 20.599,3.401 21.987,5.734 22.437 C 7.034 22.688,7.987 22.733,12.000 22.733 C 16.013 22.733,16.966 22.688,18.266 22.437 C 20.599 21.987,21.987 20.599,22.437 18.266 C 22.688 16.966,22.733 16.013,22.733 12.000 C 22.733 7.987,22.688 7.034,22.437 5.734 C 22.098 3.977,21.228 2.756,19.825 2.068 C 18.978 1.652,17.875 1.425,16.200 1.321 C 15.315 1.266,10.534 1.239,8.960 1.280 M16.787 2.853 C 17.971 2.982,18.589 3.129,19.180 3.421 C 20.200 3.924,20.776 4.815,21.019 6.260 C 21.215 7.435,21.251 8.515,21.229 12.620 C 21.210 16.115,21.195 16.526,21.055 17.500 C 20.734 19.744,19.757 20.726,17.520 21.054 C 16.474 21.207,16.036 21.220,12.000 21.220 C 7.964 21.220,7.526 21.207,6.480 21.054 C 4.384 20.747,3.408 19.870,3.021 17.947 C 2.796 16.826,2.780 16.428,2.780 12.000 C 2.780 8.382,2.788 7.864,2.852 7.240 C 3.025 5.550,3.340 4.663,4.001 4.001 C 4.665 3.338,5.593 3.009,7.220 2.862 C 8.207 2.772,8.227 2.772,12.400 2.782 C 15.524 2.790,16.323 2.803,16.787 2.853 M13.094 6.277 C 12.436 6.439,12.303 7.307,12.886 7.640 C 13.057 7.739,13.075 7.740,14.117 7.753 L 15.174 7.766 11.477 11.463 L 7.780 15.160 7.760 14.110 C 7.740 13.062,7.740 13.060,7.634 12.880 C 7.347 12.392,6.640 12.396,6.360 12.886 L 6.260 13.060 6.260 15.147 L 6.260 17.233 6.380 17.403 C 6.446 17.496,6.572 17.610,6.660 17.656 C 6.816 17.738,6.868 17.740,8.880 17.740 L 10.940 17.740 11.120 17.634 C 11.608 17.347,11.604 16.640,11.114 16.360 C 10.943 16.261,10.925 16.260,9.883 16.247 L 8.826 16.234 12.523 12.537 L 16.220 8.840 16.240 9.890 C 16.260 10.938,16.260 10.940,16.366 11.120 C 16.652 11.606,17.348 11.606,17.634 11.120 L 17.740 10.940 17.740 8.880 C 17.740 6.868,17.738 6.816,17.656 6.660 C 17.610 6.572,17.496 6.446,17.403 6.380 L 17.233 6.260 15.227 6.253 C 14.123 6.249,13.163 6.260,13.094 6.277 " stroke="none" fill-rule="evenodd" fill="black"></path></svg>