<svg width="24" height="24" viewBox="0 0 24 24" fill="none" xmlns="http://www.w3.org/2000/svg"><path d="M8.960 1.280 C 6.960 1.332,5.848 1.469,4.900 1.779 C 3.060 2.382,1.958 3.688,1.563 5.734 C 1.311 7.042,1.267 7.973,1.267 12.000 C 1.267 16.027,1.311 16.958,1.563 18.266 C 2.013 20.599,3.401 21.987,5.734 22.437 C 7.034 22.688,7.987 22.733,12.000 22.733 C 16.013 22.733,16.966 22.688,18.266 22.437 C 20.599 21.987,21.987 20.599,22.437 18.266 C 22.688 16.966,22.733 16.013,22.733 12.000 C 22.733 7.987,22.688 7.034,22.437 5.734 C 22.098 3.977,21.228 2.756,19.825 2.068 C 18.978 1.652,17.875 1.425,16.200 1.321 C 15.315 1.266,10.534 1.239,8.960 1.280 M16.787 2.853 C 17.971 2.982,18.589 3.129,19.180 3.421 C 20.200 3.924,20.776 4.815,21.019 6.260 C 21.215 7.435,21.251 8.515,21.229 12.620 C 21.210 16.115,21.195 16.526,21.055 17.500 C 20.734 19.744,19.757 20.726,17.520 21.054 C 16.474 21.207,16.036 21.220,12.000 21.220 C 7.964 21.220,7.526 21.207,6.480 21.054 C 4.384 20.747,3.408 19.870,3.021 17.947 C 2.796 16.826,2.780 16.428,2.780 12.000 C 2.780 8.382,2.788 7.864,2.852 7.240 C 3.025 5.550,3.340 4.663,4.001 4.001 C 4.665 3.338,5.593 3.009,7.220 2.862 C 8.207 2.772,8.227 2.772,12.400 2.782 C 15.524 2.790,16.323 2.803,16.787 2.853 M13.815 6.277 C 13.330 6.397,13.098 7.004,13.383 7.408 C 13.588 7.697,13.719 7.738,14.496 7.754 L 15.171 7.768 14.027 8.914 C 12.846 10.097,12.759 10.206,12.761 10.509 C 12.762 10.682,12.873 10.948,12.986 11.048 C 13.102 11.151,13.340 11.240,13.500 11.240 C 13.794 11.240,13.911 11.147,15.086 9.973 L 16.232 8.829 16.246 9.524 C 16.259 10.169,16.267 10.231,16.353 10.369 C 16.715 10.952,17.581 10.810,17.719 10.147 C 17.750 9.997,17.760 9.429,17.752 8.373 C 17.741 6.888,17.736 6.813,17.656 6.660 C 17.610 6.572,17.496 6.446,17.403 6.380 L 17.233 6.260 15.587 6.253 C 14.681 6.249,13.884 6.260,13.815 6.277 M10.200 12.823 C 10.115 12.860,9.609 13.334,8.910 14.031 L 7.760 15.179 7.760 14.612 C 7.760 13.882,7.717 13.677,7.522 13.482 C 7.173 13.133,6.619 13.203,6.353 13.631 L 6.260 13.780 6.260 15.507 L 6.260 17.233 6.380 17.403 C 6.446 17.496,6.572 17.610,6.660 17.656 C 6.813 17.736,6.888 17.741,8.373 17.752 C 10.166 17.766,10.287 17.753,10.519 17.521 C 10.918 17.122,10.731 16.423,10.189 16.286 C 10.087 16.261,9.738 16.240,9.413 16.240 L 8.821 16.240 9.969 15.090 C 11.154 13.903,11.241 13.794,11.239 13.491 C 11.238 13.318,11.127 13.052,11.014 12.952 C 10.808 12.768,10.457 12.713,10.200 12.823 " stroke="none" fill-rule="evenodd" fill="black"></path></svg>