<svg width="24" height="24" viewBox="0 0 24 24" fill="none" xmlns="http://www.w3.org/2000/svg"><path d="M9.540 1.282 C 8.741 1.313,8.447 1.356,7.992 1.504 C 7.102 1.796,6.553 2.481,6.360 3.540 C 6.303 3.858,6.243 5.280,6.241 6.400 L 6.239 7.300 5.829 7.517 C 5.205 7.848,4.905 8.054,4.585 8.371 C 4.037 8.914,3.699 9.534,3.538 10.293 C 3.452 10.695,3.452 16.305,3.538 16.707 C 3.755 17.727,4.366 18.610,5.220 19.136 C 5.601 19.371,9.992 21.762,10.407 21.960 C 10.971 22.230,11.284 22.296,12.000 22.296 C 12.716 22.296,13.029 22.230,13.593 21.960 C 14.017 21.757,18.403 19.369,18.797 19.126 C 19.466 18.714,20.062 17.964,20.327 17.201 C 20.518 16.652,20.520 16.610,20.520 13.500 C 20.520 11.088,20.510 10.517,20.462 10.293 C 20.301 9.534,19.963 8.914,19.415 8.371 C 19.095 8.054,18.795 7.848,18.171 7.517 L 17.761 7.300 17.759 6.400 C 17.757 5.280,17.697 3.858,17.640 3.540 C 17.412 2.289,16.712 1.589,15.460 1.360 C 14.882 1.255,11.379 1.208,9.540 1.282 M15.260 2.834 C 15.370 2.859,15.559 2.930,15.679 2.991 C 15.863 3.084,15.916 3.137,16.009 3.321 C 16.070 3.441,16.140 3.630,16.163 3.740 C 16.210 3.957,16.265 6.440,16.223 6.440 C 16.209 6.440,15.699 6.167,15.089 5.834 C 13.120 4.757,12.976 4.704,12.000 4.704 C 11.024 4.704,10.880 4.757,8.911 5.834 C 8.301 6.167,7.793 6.440,7.781 6.440 C 7.770 6.440,7.760 5.989,7.760 5.438 C 7.760 3.571,7.880 3.141,8.460 2.924 C 8.580 2.878,8.819 2.825,8.989 2.805 C 9.447 2.751,15.009 2.776,15.260 2.834 M12.544 6.241 C 12.808 6.308,13.250 6.534,15.220 7.606 C 16.518 8.312,17.722 8.974,17.895 9.075 C 18.446 9.399,18.826 9.897,18.979 10.498 C 19.070 10.854,19.070 16.146,18.979 16.502 C 18.826 17.103,18.446 17.601,17.895 17.925 C 17.722 18.026,16.518 18.688,15.220 19.394 C 12.699 20.766,12.535 20.840,12.000 20.840 C 11.465 20.840,11.301 20.766,8.780 19.394 C 7.482 18.688,6.278 18.026,6.105 17.925 C 5.554 17.601,5.174 17.103,5.021 16.502 C 4.930 16.146,4.930 10.854,5.021 10.498 C 5.174 9.897,5.554 9.399,6.105 9.075 C 6.278 8.974,7.482 8.312,8.780 7.606 C 11.296 6.236,11.449 6.167,11.984 6.162 C 12.118 6.161,12.370 6.196,12.544 6.241 M11.675 9.813 C 11.264 9.967,11.057 10.186,10.640 10.910 L 10.340 11.431 9.775 11.570 C 9.101 11.736,8.839 11.850,8.607 12.077 C 8.329 12.348,8.225 12.670,8.288 13.066 C 8.334 13.363,8.496 13.659,8.842 14.080 C 8.995 14.267,9.168 14.478,9.225 14.550 L 9.329 14.679 9.279 15.228 C 9.179 16.329,9.326 16.815,9.842 17.100 C 10.033 17.205,10.100 17.220,10.380 17.220 C 10.744 17.220,10.923 17.169,11.569 16.880 L 12.000 16.687 12.431 16.880 C 13.077 17.169,13.256 17.220,13.620 17.220 C 13.900 17.220,13.967 17.205,14.158 17.100 C 14.673 16.816,14.815 16.350,14.721 15.249 L 14.672 14.678 14.775 14.549 C 14.832 14.478,14.998 14.276,15.142 14.100 C 15.592 13.554,15.722 13.278,15.725 12.865 C 15.727 12.552,15.620 12.298,15.392 12.076 C 15.161 11.850,14.898 11.736,14.225 11.570 L 13.660 11.431 13.360 10.909 C 13.012 10.303,12.809 10.061,12.519 9.904 C 12.271 9.768,11.900 9.729,11.675 9.813 M12.237 11.950 C 12.361 12.171,12.543 12.427,12.657 12.542 C 12.878 12.762,13.085 12.848,13.710 12.981 C 13.892 13.020,14.039 13.062,14.039 13.076 C 14.038 13.089,13.894 13.271,13.718 13.480 C 13.542 13.689,13.351 13.956,13.293 14.073 C 13.188 14.284,13.188 14.290,13.212 14.943 L 13.237 15.600 13.089 15.534 C 12.020 15.060,11.980 15.060,10.910 15.535 L 10.760 15.601 10.786 14.943 C 10.812 14.289,10.812 14.285,10.707 14.073 C 10.649 13.956,10.458 13.689,10.282 13.480 C 10.106 13.271,9.962 13.089,9.961 13.076 C 9.961 13.062,10.109 13.020,10.290 12.981 C 10.915 12.848,11.122 12.762,11.343 12.542 C 11.457 12.427,11.639 12.171,11.763 11.950 C 11.882 11.736,11.989 11.560,12.000 11.560 C 12.011 11.560,12.118 11.736,12.237 11.950 " stroke="none" fill-rule="evenodd" fill="black"></path></svg>