<svg width="24" height="24" viewBox="0 0 24 24" fill="none" xmlns="http://www.w3.org/2000/svg"><path d="M11.387 1.281 C 9.009 1.458,6.826 2.766,5.482 4.820 C 4.039 7.025,3.865 9.985,5.037 12.380 C 5.418 13.159,5.826 13.745,6.388 14.322 L 6.682 14.624 6.258 16.162 C 5.754 17.993,5.425 19.288,5.341 19.775 C 5.262 20.237,5.262 20.953,5.341 21.259 C 5.505 21.886,6.027 22.438,6.663 22.655 C 7.038 22.783,7.791 22.713,8.364 22.498 C 8.461 22.462,9.258 22.078,10.136 21.646 C 11.728 20.862,11.733 20.860,12.000 20.860 C 12.267 20.860,12.272 20.862,13.864 21.646 C 14.742 22.078,15.539 22.462,15.636 22.498 C 16.210 22.714,16.958 22.782,17.343 22.654 C 17.615 22.564,18.046 22.273,18.240 22.048 C 18.447 21.808,18.622 21.460,18.682 21.169 C 18.713 21.020,18.722 20.744,18.708 20.380 C 18.678 19.637,18.578 19.207,17.675 15.923 L 17.319 14.627 17.632 14.303 C 18.174 13.743,18.589 13.142,18.963 12.380 C 19.997 10.269,19.997 7.731,18.963 5.620 C 18.569 4.815,18.174 4.255,17.543 3.606 C 15.926 1.942,13.717 1.108,11.387 1.281 M12.900 2.817 C 14.296 3.031,15.484 3.640,16.464 4.646 C 16.993 5.189,17.274 5.586,17.617 6.272 C 18.450 7.939,18.450 10.061,17.617 11.728 C 17.274 12.414,16.993 12.811,16.464 13.354 C 15.259 14.590,13.723 15.239,12.000 15.239 C 10.277 15.239,8.741 14.590,7.536 13.354 C 7.007 12.811,6.726 12.414,6.383 11.728 C 5.653 10.268,5.556 8.478,6.120 6.892 C 6.584 5.589,7.583 4.360,8.740 3.672 C 9.490 3.225,10.237 2.951,11.060 2.820 C 11.494 2.751,12.460 2.749,12.900 2.817 M8.521 15.913 C 9.434 16.375,10.394 16.639,11.450 16.719 C 12.821 16.823,14.241 16.539,15.478 15.914 C 15.775 15.764,16.029 15.654,16.044 15.671 C 16.081 15.711,16.889 18.693,17.069 19.450 C 17.188 19.953,17.214 20.140,17.217 20.514 L 17.220 20.969 17.060 21.108 C 16.910 21.239,16.887 21.247,16.680 21.229 C 16.351 21.200,15.927 21.017,14.340 20.218 C 12.763 19.425,12.586 19.360,12.000 19.360 C 11.415 19.360,11.237 19.425,9.660 20.218 C 8.069 21.018,7.647 21.200,7.320 21.229 C 7.113 21.247,7.090 21.239,6.940 21.108 L 6.780 20.969 6.784 20.514 C 6.788 19.962,6.862 19.630,7.485 17.340 C 7.924 15.724,7.948 15.640,7.969 15.640 C 7.975 15.640,8.224 15.763,8.521 15.913 " stroke="none" fill-rule="evenodd" fill="black"></path></svg>