<svg width="24" height="24" viewBox="0 0 24 24" fill="none" xmlns="http://www.w3.org/2000/svg"><path d="M11.387 1.281 C 9.009 1.458,6.826 2.766,5.482 4.820 C 4.268 6.674,3.936 9.120,4.604 11.293 L 4.724 11.686 3.671 12.773 C 1.641 14.866,1.522 15.004,1.375 15.409 C 1.081 16.224,1.379 17.180,2.068 17.637 C 2.349 17.823,2.678 17.907,3.488 18.000 C 4.355 18.100,4.439 18.123,4.596 18.302 C 4.751 18.478,4.783 18.608,4.859 19.360 C 4.971 20.484,5.100 20.858,5.505 21.241 C 6.201 21.900,7.257 21.904,7.998 21.252 C 8.118 21.146,9.061 20.187,10.093 19.120 C 11.125 18.053,11.984 17.180,12.000 17.180 C 12.017 17.180,12.857 18.035,13.868 19.080 C 14.878 20.125,15.820 21.085,15.962 21.213 C 16.728 21.905,17.781 21.917,18.495 21.241 C 18.900 20.858,19.029 20.484,19.141 19.360 C 19.217 18.608,19.249 18.478,19.404 18.302 C 19.561 18.123,19.645 18.100,20.512 18.000 C 21.322 17.907,21.651 17.823,21.932 17.637 C 22.621 17.180,22.919 16.224,22.625 15.409 C 22.480 15.010,22.319 14.824,20.330 12.773 L 19.276 11.686 19.396 11.293 C 19.972 9.417,19.815 7.360,18.963 5.620 C 18.569 4.815,18.174 4.255,17.543 3.606 C 15.926 1.942,13.717 1.108,11.387 1.281 M12.900 2.817 C 14.296 3.031,15.484 3.640,16.464 4.646 C 16.993 5.189,17.274 5.586,17.617 6.272 C 18.450 7.939,18.450 10.061,17.617 11.728 C 17.274 12.414,16.993 12.811,16.464 13.354 C 15.259 14.590,13.723 15.239,12.000 15.239 C 10.277 15.239,8.741 14.590,7.536 13.354 C 7.007 12.811,6.726 12.414,6.383 11.728 C 5.653 10.268,5.556 8.478,6.120 6.892 C 6.584 5.589,7.583 4.360,8.740 3.672 C 9.490 3.225,10.237 2.951,11.060 2.820 C 11.494 2.751,12.460 2.749,12.900 2.817 M11.820 5.280 C 11.334 5.355,11.063 5.648,10.416 6.795 C 10.343 6.926,10.319 6.935,9.735 7.082 C 9.403 7.165,9.054 7.272,8.961 7.319 C 8.528 7.540,8.266 7.941,8.272 8.373 C 8.279 8.817,8.430 9.105,9.029 9.811 L 9.327 10.162 9.278 10.745 C 9.197 11.709,9.272 12.077,9.617 12.422 C 9.845 12.650,10.079 12.739,10.424 12.731 C 10.710 12.725,10.906 12.666,11.490 12.412 L 12.000 12.190 12.510 12.412 C 13.094 12.666,13.290 12.725,13.576 12.731 C 13.921 12.739,14.155 12.650,14.383 12.422 C 14.728 12.077,14.803 11.709,14.722 10.745 L 14.673 10.162 14.971 9.811 C 15.570 9.105,15.721 8.817,15.728 8.373 C 15.734 7.941,15.472 7.540,15.039 7.319 C 14.946 7.272,14.597 7.165,14.265 7.082 C 13.681 6.935,13.657 6.926,13.584 6.795 C 13.049 5.847,12.794 5.520,12.471 5.371 C 12.270 5.277,12.043 5.246,11.820 5.280 M12.241 7.450 C 12.638 8.150,12.769 8.249,13.551 8.441 C 13.801 8.502,14.014 8.561,14.024 8.571 C 14.034 8.580,13.894 8.766,13.714 8.984 C 13.534 9.202,13.342 9.478,13.287 9.597 C 13.191 9.807,13.189 9.831,13.213 10.447 C 13.229 10.860,13.224 11.080,13.198 11.080 C 13.176 11.080,13.053 11.027,12.925 10.962 C 12.577 10.787,12.227 10.680,12.000 10.680 C 11.773 10.680,11.423 10.787,11.075 10.962 C 10.947 11.027,10.824 11.080,10.802 11.080 C 10.776 11.080,10.771 10.860,10.787 10.447 C 10.811 9.831,10.809 9.807,10.713 9.597 C 10.658 9.478,10.466 9.202,10.286 8.984 C 10.106 8.766,9.966 8.580,9.976 8.571 C 9.986 8.561,10.199 8.502,10.449 8.441 C 11.236 8.248,11.368 8.146,11.782 7.410 C 11.884 7.229,11.982 7.080,11.999 7.080 C 12.017 7.080,12.125 7.247,12.241 7.450 M5.605 13.370 C 5.955 13.891,6.572 14.563,7.100 14.998 C 7.919 15.673,9.029 16.237,10.035 16.490 C 10.231 16.540,10.398 16.591,10.406 16.604 C 10.420 16.628,7.461 19.701,7.087 20.050 C 6.848 20.274,6.674 20.304,6.527 20.147 C 6.451 20.067,6.428 19.954,6.359 19.337 C 6.228 18.174,6.175 17.958,5.924 17.573 C 5.652 17.154,5.296 16.874,4.843 16.721 C 4.702 16.673,4.239 16.594,3.768 16.536 C 3.000 16.442,2.933 16.428,2.850 16.335 C 2.716 16.187,2.729 15.970,2.883 15.776 C 3.002 15.625,5.400 13.120,5.425 13.120 C 5.432 13.120,5.513 13.232,5.605 13.370 M19.790 14.370 C 20.452 15.058,21.049 15.690,21.116 15.776 C 21.271 15.970,21.284 16.187,21.150 16.335 C 21.067 16.428,21.000 16.442,20.232 16.536 C 19.761 16.594,19.298 16.673,19.157 16.721 C 18.624 16.900,18.170 17.307,17.940 17.810 C 17.805 18.103,17.742 18.422,17.643 19.317 C 17.572 19.953,17.549 20.067,17.473 20.147 C 17.322 20.309,17.152 20.274,16.892 20.030 C 16.485 19.646,13.596 16.645,13.602 16.612 C 13.606 16.594,13.769 16.540,13.965 16.490 C 14.952 16.242,15.938 15.748,16.820 15.060 C 17.262 14.715,17.966 13.975,18.294 13.509 C 18.445 13.295,18.573 13.120,18.578 13.120 C 18.583 13.120,19.129 13.683,19.790 14.370 " stroke="none" fill-rule="evenodd" fill="black"></path></svg>