<svg width="24" height="24" viewBox="0 0 24 24" fill="none" xmlns="http://www.w3.org/2000/svg"><path d="M9.540 1.282 C 8.741 1.313,8.447 1.356,7.992 1.504 C 7.102 1.796,6.553 2.481,6.360 3.540 C 6.301 3.866,6.243 5.292,6.241 6.455 L 6.240 7.409 5.958 7.670 C 5.066 8.496,4.175 9.880,3.749 11.100 C 3.409 12.071,3.272 12.908,3.272 14.000 C 3.272 15.427,3.527 16.553,4.139 17.820 C 5.401 20.433,7.853 22.220,10.780 22.662 C 11.377 22.752,12.623 22.752,13.220 22.662 C 14.885 22.411,16.399 21.728,17.680 20.651 C 19.033 19.513,20.066 17.834,20.493 16.080 C 20.666 15.369,20.727 14.843,20.728 14.040 C 20.729 12.943,20.616 12.213,20.294 11.240 C 19.864 9.939,18.980 8.539,18.042 7.670 L 17.760 7.409 17.759 6.455 C 17.757 5.292,17.699 3.866,17.640 3.540 C 17.412 2.289,16.712 1.589,15.460 1.360 C 14.882 1.255,11.379 1.208,9.540 1.282 M15.260 2.834 C 15.370 2.859,15.559 2.930,15.679 2.991 C 15.863 3.084,15.916 3.137,16.009 3.321 C 16.070 3.441,16.140 3.630,16.163 3.740 C 16.205 3.936,16.267 6.320,16.231 6.320 C 16.220 6.320,16.006 6.222,15.755 6.103 C 14.941 5.716,13.977 5.435,13.060 5.318 C 12.597 5.259,11.403 5.259,10.940 5.318 C 10.023 5.435,9.059 5.716,8.245 6.103 C 7.994 6.222,7.782 6.320,7.774 6.320 C 7.766 6.320,7.760 5.896,7.760 5.378 C 7.760 3.576,7.885 3.139,8.460 2.924 C 8.580 2.878,8.819 2.825,8.989 2.805 C 9.447 2.751,15.009 2.776,15.260 2.834 M13.375 6.877 C 14.816 7.168,16.083 7.847,17.118 8.882 C 18.158 9.922,18.832 11.184,19.128 12.647 C 19.208 13.040,19.220 13.220,19.220 14.000 C 19.220 14.784,19.208 14.959,19.127 15.360 C 18.832 16.817,18.158 18.078,17.118 19.118 C 16.078 20.158,14.817 20.832,13.360 21.127 C 12.959 21.208,12.784 21.220,12.000 21.220 C 11.216 21.220,11.041 21.208,10.640 21.127 C 9.183 20.832,7.922 20.158,6.882 19.118 C 5.842 18.078,5.168 16.817,4.873 15.360 C 4.792 14.959,4.780 14.784,4.780 14.000 C 4.780 13.216,4.792 13.041,4.873 12.640 C 5.168 11.183,5.842 9.922,6.882 8.882 C 8.000 7.764,9.351 7.078,10.941 6.821 C 11.492 6.732,12.809 6.762,13.375 6.877 M11.820 10.280 C 11.334 10.355,11.063 10.648,10.416 11.795 C 10.343 11.926,10.319 11.935,9.735 12.082 C 9.403 12.165,9.054 12.272,8.961 12.319 C 8.528 12.540,8.266 12.941,8.272 13.373 C 8.279 13.817,8.430 14.105,9.029 14.811 L 9.327 15.162 9.278 15.745 C 9.197 16.709,9.272 17.077,9.617 17.422 C 9.845 17.650,10.079 17.739,10.424 17.731 C 10.710 17.725,10.906 17.666,11.490 17.412 L 12.000 17.190 12.510 17.412 C 13.094 17.666,13.290 17.725,13.576 17.731 C 13.921 17.739,14.155 17.650,14.383 17.422 C 14.728 17.077,14.803 16.709,14.722 15.745 L 14.673 15.162 14.971 14.811 C 15.570 14.105,15.721 13.817,15.728 13.373 C 15.734 12.941,15.472 12.540,15.039 12.319 C 14.946 12.272,14.597 12.165,14.265 12.082 C 13.681 11.935,13.657 11.926,13.584 11.795 C 13.049 10.847,12.794 10.520,12.471 10.371 C 12.270 10.277,12.043 10.246,11.820 10.280 M12.241 12.450 C 12.638 13.150,12.769 13.249,13.551 13.441 C 13.801 13.502,14.014 13.561,14.024 13.571 C 14.034 13.580,13.894 13.766,13.714 13.984 C 13.534 14.202,13.342 14.478,13.287 14.597 C 13.191 14.807,13.189 14.831,13.213 15.447 C 13.229 15.860,13.224 16.080,13.198 16.080 C 13.176 16.080,13.053 16.027,12.925 15.962 C 12.577 15.787,12.227 15.680,12.000 15.680 C 11.773 15.680,11.423 15.787,11.075 15.962 C 10.947 16.027,10.824 16.080,10.802 16.080 C 10.776 16.080,10.771 15.860,10.787 15.447 C 10.811 14.831,10.809 14.807,10.713 14.597 C 10.658 14.478,10.466 14.202,10.286 13.984 C 10.106 13.766,9.966 13.580,9.976 13.571 C 9.986 13.561,10.199 13.502,10.449 13.441 C 11.236 13.248,11.368 13.146,11.782 12.410 C 11.884 12.228,11.982 12.080,11.999 12.080 C 12.017 12.080,12.125 12.247,12.241 12.450 " stroke="none" fill-rule="evenodd" fill="black"></path></svg>