<svg width="24" height="24" viewBox="0 0 24 24" fill="none" xmlns="http://www.w3.org/2000/svg"><path d="M9.540 1.282 C 8.741 1.313,8.447 1.356,7.992 1.504 C 7.266 1.742,6.742 2.266,6.504 2.992 C 6.355 3.448,6.316 3.736,6.282 4.611 C 6.265 5.046,6.244 5.408,6.235 5.416 C 6.227 5.423,6.056 5.475,5.857 5.532 C 4.224 5.995,3.482 7.057,3.322 9.155 C 3.203 10.713,3.240 15.396,3.378 16.281 C 3.631 17.903,4.328 18.831,6.022 19.802 C 6.604 20.135,9.037 21.362,9.737 21.675 C 10.821 22.160,11.630 22.331,12.408 22.241 C 13.256 22.142,13.944 21.868,16.180 20.739 C 18.253 19.691,18.775 19.373,19.391 18.784 C 19.947 18.251,20.244 17.760,20.460 17.017 C 20.627 16.439,20.679 15.971,20.725 14.620 C 20.772 13.227,20.745 10.101,20.677 9.180 C 20.522 7.061,19.783 5.997,18.143 5.532 C 17.944 5.475,17.773 5.423,17.765 5.416 C 17.756 5.408,17.735 5.046,17.718 4.611 C 17.684 3.736,17.645 3.448,17.496 2.992 C 17.204 2.102,16.520 1.554,15.460 1.360 C 14.882 1.255,11.379 1.208,9.540 1.282 M15.260 2.834 C 15.370 2.859,15.559 2.930,15.679 2.991 C 15.863 3.084,15.916 3.137,16.009 3.321 C 16.160 3.619,16.196 3.829,16.226 4.600 L 16.252 5.260 12.006 5.260 L 7.760 5.260 7.760 4.848 C 7.760 3.961,7.886 3.360,8.123 3.123 C 8.276 2.970,8.601 2.851,8.989 2.805 C 9.447 2.751,15.009 2.776,15.260 2.834 M17.240 6.855 C 18.522 7.076,18.942 7.507,19.149 8.814 C 19.213 9.214,19.220 9.594,19.220 12.480 C 19.220 15.394,19.213 15.736,19.149 16.080 C 19.008 16.835,18.832 17.213,18.424 17.634 C 17.928 18.147,17.311 18.511,14.980 19.667 C 13.134 20.583,12.636 20.766,12.000 20.766 C 11.361 20.766,10.868 20.584,8.980 19.647 C 6.684 18.509,6.072 18.147,5.576 17.634 C 5.168 17.213,4.992 16.835,4.851 16.080 C 4.787 15.736,4.780 15.394,4.780 12.500 C 4.780 9.226,4.792 8.918,4.941 8.340 C 5.028 8.002,5.206 7.638,5.375 7.451 C 5.604 7.198,6.053 6.990,6.607 6.880 C 7.094 6.784,7.936 6.769,12.320 6.779 C 16.318 6.788,16.905 6.797,17.240 6.855 M11.820 9.280 C 11.334 9.355,11.063 9.648,10.416 10.795 C 10.343 10.926,10.319 10.935,9.735 11.082 C 9.403 11.165,9.054 11.272,8.961 11.319 C 8.528 11.540,8.266 11.941,8.272 12.373 C 8.279 12.817,8.430 13.105,9.029 13.811 L 9.327 14.162 9.278 14.745 C 9.197 15.709,9.272 16.077,9.617 16.422 C 9.845 16.650,10.079 16.739,10.424 16.731 C 10.710 16.725,10.906 16.666,11.490 16.412 L 12.000 16.190 12.510 16.412 C 13.094 16.666,13.290 16.725,13.576 16.731 C 13.921 16.739,14.155 16.650,14.383 16.422 C 14.728 16.077,14.803 15.709,14.722 14.745 L 14.673 14.162 14.971 13.811 C 15.570 13.105,15.721 12.817,15.728 12.373 C 15.734 11.941,15.472 11.540,15.039 11.319 C 14.946 11.272,14.597 11.165,14.265 11.082 C 13.681 10.935,13.657 10.926,13.584 10.795 C 13.049 9.847,12.794 9.520,12.471 9.371 C 12.270 9.277,12.043 9.246,11.820 9.280 M12.241 11.450 C 12.638 12.150,12.769 12.249,13.551 12.441 C 13.801 12.502,14.014 12.561,14.024 12.571 C 14.034 12.580,13.894 12.766,13.714 12.984 C 13.534 13.202,13.342 13.478,13.287 13.597 C 13.191 13.807,13.189 13.831,13.213 14.447 C 13.229 14.860,13.224 15.080,13.198 15.080 C 13.176 15.080,13.053 15.027,12.925 14.962 C 12.577 14.787,12.227 14.680,12.000 14.680 C 11.773 14.680,11.423 14.787,11.075 14.962 C 10.947 15.027,10.824 15.080,10.802 15.080 C 10.776 15.080,10.771 14.860,10.787 14.447 C 10.811 13.831,10.809 13.807,10.713 13.597 C 10.658 13.478,10.466 13.202,10.286 12.984 C 10.106 12.766,9.966 12.580,9.976 12.571 C 9.986 12.561,10.199 12.502,10.449 12.441 C 11.236 12.248,11.368 12.146,11.782 11.410 C 11.884 11.228,11.982 11.080,11.999 11.080 C 12.017 11.080,12.125 11.247,12.241 11.450 " stroke="none" fill-rule="evenodd" fill="black"></path></svg>