<svg width="24" height="24" viewBox="0 0 24 24" fill="none" xmlns="http://www.w3.org/2000/svg"><path d="M10.520 1.282 C 9.739 1.314,9.443 1.357,8.992 1.504 C 8.266 1.742,7.742 2.266,7.505 2.992 C 7.355 3.451,7.317 3.712,7.295 4.440 C 7.284 4.803,7.267 5.139,7.258 5.186 C 7.242 5.266,7.209 5.274,6.770 5.299 C 4.631 5.420,3.484 5.800,2.635 6.669 C 1.916 7.403,1.562 8.277,1.379 9.767 C 1.272 10.640,1.218 13.731,1.272 15.870 C 1.330 18.176,1.404 18.875,1.682 19.727 C 2.035 20.808,2.694 21.585,3.673 22.077 C 4.208 22.346,4.970 22.535,5.940 22.640 C 7.413 22.800,16.587 22.800,18.060 22.640 C 19.662 22.467,20.629 22.084,21.365 21.331 C 22.084 20.597,22.438 19.723,22.621 18.233 C 22.727 17.363,22.782 14.270,22.728 12.130 C 22.680 10.238,22.634 9.628,22.482 8.900 C 22.280 7.932,21.907 7.198,21.331 6.635 C 20.459 5.781,19.349 5.419,17.230 5.299 C 16.791 5.274,16.758 5.266,16.742 5.186 C 16.733 5.139,16.716 4.803,16.705 4.440 C 16.683 3.712,16.645 3.451,16.495 2.992 C 16.205 2.102,15.519 1.553,14.460 1.360 C 13.912 1.261,11.967 1.222,10.520 1.282 M14.260 2.835 C 14.370 2.860,14.559 2.930,14.679 2.991 C 14.863 3.084,14.916 3.137,15.009 3.321 C 15.159 3.617,15.195 3.827,15.226 4.590 L 15.252 5.240 12.006 5.240 L 8.760 5.240 8.760 4.838 C 8.760 3.961,8.887 3.359,9.123 3.123 C 9.276 2.971,9.601 2.851,9.989 2.804 C 10.423 2.752,14.005 2.778,14.260 2.835 M17.340 6.801 C 18.245 6.860,18.701 6.931,19.200 7.089 C 20.137 7.386,20.657 7.927,20.939 8.901 C 21.190 9.768,21.240 10.610,21.240 14.000 C 21.240 17.383,21.190 18.233,20.941 19.093 C 20.716 19.867,20.335 20.380,19.766 20.673 C 19.126 21.002,18.561 21.121,17.260 21.202 C 16.281 21.262,6.621 21.231,6.080 21.165 C 3.790 20.888,3.076 20.157,2.833 17.840 C 2.758 17.128,2.758 10.872,2.833 10.160 C 3.090 7.704,3.897 6.982,6.580 6.804 C 7.289 6.756,16.629 6.754,17.340 6.801 M11.579 9.280 C 9.750 9.440,8.200 10.632,7.540 12.384 C 7.182 13.335,7.182 14.665,7.540 15.616 C 8.042 16.949,9.049 17.958,10.376 18.457 C 11.340 18.820,12.660 18.820,13.624 18.457 C 14.951 17.958,15.958 16.949,16.460 15.616 C 16.819 14.661,16.818 13.336,16.457 12.376 C 15.695 10.348,13.716 9.092,11.579 9.280 M12.980 10.894 C 13.508 11.068,13.854 11.286,14.284 11.716 C 14.712 12.143,14.928 12.485,15.108 13.020 C 15.209 13.316,15.217 13.389,15.217 14.000 C 15.217 14.611,15.209 14.684,15.108 14.980 C 14.928 15.515,14.712 15.857,14.284 16.284 C 13.857 16.712,13.515 16.928,12.980 17.108 C 12.684 17.209,12.611 17.217,12.000 17.217 C 11.389 17.217,11.316 17.209,11.020 17.108 C 10.485 16.928,10.143 16.712,9.716 16.284 C 9.288 15.857,9.072 15.515,8.892 14.980 C 8.791 14.684,8.783 14.611,8.783 14.000 C 8.783 13.389,8.791 13.316,8.892 13.020 C 9.072 12.485,9.288 12.143,9.716 11.716 C 10.433 10.999,11.066 10.750,12.100 10.775 C 12.572 10.787,12.710 10.806,12.980 10.894 M11.720 11.805 C 11.665 11.827,11.569 11.893,11.506 11.952 C 11.305 12.143,11.267 12.264,11.248 12.765 L 11.230 13.230 10.765 13.248 C 10.264 13.267,10.143 13.305,9.953 13.506 C 9.819 13.647,9.760 13.799,9.760 14.000 C 9.760 14.201,9.819 14.353,9.953 14.494 C 10.143 14.695,10.264 14.733,10.765 14.752 L 11.230 14.770 11.248 15.235 C 11.267 15.736,11.305 15.857,11.506 16.047 C 11.647 16.181,11.799 16.240,12.000 16.240 C 12.201 16.240,12.353 16.181,12.494 16.047 C 12.695 15.857,12.733 15.736,12.752 15.235 L 12.770 14.770 13.235 14.752 C 13.736 14.733,13.857 14.695,14.047 14.494 C 14.181 14.353,14.240 14.201,14.240 14.000 C 14.240 13.799,14.181 13.647,14.047 13.506 C 13.857 13.305,13.736 13.267,13.235 13.248 L 12.770 13.230 12.752 12.765 C 12.733 12.264,12.695 12.143,12.494 11.953 C 12.431 11.893,12.329 11.826,12.267 11.803 C 12.129 11.750,11.854 11.751,11.720 11.805 " stroke="none" fill-rule="evenodd" fill="black"></path></svg>