<svg width="24" height="24" viewBox="0 0 24 24" fill="none" xmlns="http://www.w3.org/2000/svg"><path d="M11.611 1.281 C 10.327 1.416,9.198 2.398,8.851 3.680 C 8.753 4.045,8.753 4.958,8.852 5.320 C 9.160 6.447,10.074 7.359,11.180 7.643 C 11.627 7.759,12.374 7.758,12.820 7.643 C 13.926 7.356,14.846 6.438,15.149 5.320 C 15.258 4.917,15.247 4.038,15.129 3.628 C 14.811 2.526,13.905 1.630,12.840 1.365 C 12.471 1.274,11.994 1.241,11.611 1.281 M12.503 2.823 C 12.622 2.857,12.825 2.956,12.955 3.043 C 13.882 3.662,14.011 4.947,13.225 5.734 C 12.868 6.090,12.507 6.239,12.000 6.239 C 11.496 6.239,11.132 6.090,10.781 5.739 C 10.363 5.322,10.187 4.800,10.276 4.247 C 10.381 3.596,10.838 3.045,11.447 2.838 C 11.717 2.746,12.215 2.739,12.503 2.823 M11.460 8.283 C 9.393 8.445,7.483 9.589,6.347 11.345 C 5.765 12.244,5.367 13.392,5.300 14.360 C 5.287 14.547,5.267 14.777,5.256 14.871 L 5.235 15.041 3.879 15.721 C 2.425 16.450,2.374 16.486,2.283 16.828 C 2.144 17.349,2.651 17.856,3.172 17.717 C 3.414 17.653,6.064 16.292,6.228 16.148 C 6.403 15.994,6.587 15.726,6.660 15.519 C 6.692 15.429,6.736 15.098,6.758 14.783 C 6.823 13.868,6.964 13.338,7.329 12.627 C 7.855 11.602,8.701 10.779,9.740 10.280 C 10.512 9.909,11.156 9.762,12.000 9.762 C 12.844 9.762,13.489 9.910,14.260 10.280 C 15.344 10.801,16.163 11.612,16.715 12.711 C 17.041 13.359,17.182 13.912,17.240 14.779 C 17.261 15.090,17.305 15.420,17.337 15.513 C 17.413 15.726,17.595 15.993,17.773 16.148 C 17.937 16.293,20.586 17.653,20.828 17.717 C 21.349 17.856,21.856 17.349,21.717 16.828 C 21.626 16.486,21.575 16.450,20.123 15.722 C 18.632 14.975,18.722 15.045,18.720 14.620 C 18.716 13.873,18.441 12.833,18.033 12.021 C 17.076 10.117,15.409 8.830,13.340 8.398 C 13.009 8.329,12.102 8.232,11.920 8.247 C 11.887 8.249,11.680 8.266,11.460 8.283 M9.267 15.298 C 9.049 15.376,9.012 15.416,8.359 16.280 C 8.035 16.709,7.718 17.109,7.655 17.168 C 7.476 17.336,7.248 17.418,6.280 17.660 C 5.785 17.784,5.263 17.935,5.119 17.995 C 4.251 18.360,3.575 19.160,3.340 20.100 C 3.242 20.495,3.246 21.107,3.349 21.424 C 3.537 22.005,3.990 22.458,4.580 22.654 C 5.047 22.810,7.731 22.785,8.520 22.618 C 9.261 22.461,10.092 22.088,10.740 21.620 C 10.938 21.478,11.113 21.361,11.129 21.360 C 11.145 21.360,11.667 21.551,12.289 21.785 C 13.854 22.373,14.480 22.580,14.943 22.663 C 15.285 22.724,15.603 22.734,17.240 22.737 C 18.979 22.740,19.160 22.734,19.379 22.666 C 19.988 22.478,20.458 22.020,20.651 21.424 C 20.754 21.107,20.758 20.495,20.660 20.100 C 20.426 19.163,19.747 18.358,18.881 17.995 C 18.737 17.935,18.216 17.784,17.722 17.660 C 17.228 17.537,16.740 17.399,16.637 17.355 C 16.389 17.248,16.283 17.132,15.600 16.229 C 15.009 15.447,14.870 15.310,14.622 15.263 C 14.323 15.207,13.934 15.422,13.814 15.708 C 13.752 15.858,13.744 16.112,13.797 16.252 C 13.862 16.424,15.138 18.094,15.340 18.272 C 15.598 18.499,15.940 18.704,16.227 18.803 C 16.355 18.847,16.820 18.973,17.260 19.082 C 18.299 19.341,18.493 19.422,18.779 19.722 C 19.068 20.025,19.207 20.327,19.231 20.700 C 19.249 20.978,19.246 20.987,19.120 21.114 L 18.990 21.244 17.085 21.230 C 15.381 21.217,15.153 21.208,14.920 21.142 C 14.605 21.053,12.632 20.328,12.590 20.286 C 12.574 20.270,12.785 20.090,13.059 19.886 C 13.624 19.464,13.724 19.337,13.730 19.030 C 13.738 18.657,13.514 18.356,13.171 18.278 C 12.837 18.201,12.806 18.220,11.173 19.439 C 9.602 20.612,9.252 20.837,8.712 21.017 C 8.112 21.219,7.888 21.240,6.393 21.240 L 5.006 21.240 4.878 21.112 C 4.753 20.987,4.751 20.978,4.769 20.693 C 4.805 20.140,5.192 19.592,5.695 19.383 C 5.830 19.327,6.300 19.192,6.740 19.082 C 7.180 18.973,7.645 18.847,7.773 18.803 C 8.060 18.704,8.402 18.499,8.660 18.272 C 8.862 18.094,10.138 16.424,10.203 16.252 C 10.256 16.112,10.248 15.858,10.186 15.708 C 10.115 15.537,9.879 15.335,9.691 15.282 C 9.500 15.229,9.455 15.231,9.267 15.298 " stroke="none" fill-rule="evenodd" fill="black"></path></svg>