<svg width="24" height="24" viewBox="0 0 24 24" fill="none" xmlns="http://www.w3.org/2000/svg"><path d="M11.611 1.281 C 10.327 1.416,9.198 2.398,8.851 3.680 C 8.753 4.045,8.753 4.958,8.852 5.320 C 9.160 6.447,10.074 7.359,11.180 7.643 C 11.627 7.759,12.374 7.758,12.820 7.643 C 13.926 7.356,14.846 6.438,15.149 5.320 C 15.258 4.917,15.247 4.038,15.129 3.628 C 14.811 2.526,13.905 1.630,12.840 1.365 C 12.471 1.274,11.994 1.241,11.611 1.281 M12.503 2.823 C 12.622 2.857,12.825 2.956,12.955 3.043 C 13.882 3.662,14.011 4.947,13.225 5.734 C 12.868 6.090,12.507 6.239,12.000 6.239 C 11.496 6.239,11.132 6.090,10.781 5.739 C 10.363 5.322,10.187 4.800,10.276 4.247 C 10.381 3.596,10.838 3.045,11.447 2.838 C 11.717 2.746,12.215 2.739,12.503 2.823 M10.960 8.340 C 10.340 8.425,9.522 8.592,9.186 8.702 C 7.286 9.323,5.834 10.929,5.397 12.895 C 5.352 13.095,5.298 13.520,5.276 13.840 C 5.227 14.554,5.141 14.869,4.908 15.185 C 4.600 15.603,4.299 15.777,3.322 16.103 C 2.725 16.302,2.603 16.357,2.477 16.483 C 2.183 16.777,2.185 17.225,2.483 17.523 C 2.642 17.682,2.926 17.778,3.110 17.736 C 3.360 17.679,4.638 17.224,4.868 17.110 C 5.532 16.780,6.082 16.234,6.401 15.586 C 6.616 15.147,6.708 14.739,6.757 14.000 C 6.808 13.247,6.914 12.825,7.197 12.260 C 7.439 11.776,7.698 11.427,8.093 11.052 C 8.803 10.377,9.390 10.118,10.760 9.873 C 11.158 9.802,11.410 9.784,12.000 9.784 C 12.590 9.784,12.842 9.802,13.240 9.873 C 14.610 10.118,15.197 10.377,15.907 11.052 C 16.316 11.440,16.566 11.783,16.819 12.300 C 17.093 12.860,17.193 13.265,17.244 14.020 C 17.292 14.740,17.385 15.150,17.599 15.586 C 17.918 16.234,18.469 16.781,19.132 17.109 C 19.366 17.225,20.652 17.684,20.890 17.737 C 21.076 17.778,21.359 17.681,21.520 17.520 C 21.812 17.228,21.813 16.773,21.522 16.482 C 21.398 16.358,21.273 16.302,20.678 16.103 C 19.701 15.777,19.400 15.603,19.092 15.185 C 18.860 14.870,18.774 14.556,18.722 13.827 C 18.698 13.501,18.644 13.076,18.601 12.883 C 18.165 10.925,16.714 9.323,14.814 8.702 C 14.464 8.587,13.659 8.425,13.009 8.339 C 12.486 8.269,11.475 8.270,10.960 8.340 M9.267 15.298 C 9.183 15.328,9.078 15.386,9.032 15.426 C 8.987 15.467,8.682 15.854,8.355 16.286 C 8.029 16.718,7.703 17.121,7.632 17.181 C 7.416 17.362,7.223 17.429,6.140 17.698 C 4.647 18.069,4.495 18.130,4.061 18.526 C 3.698 18.858,3.439 19.288,3.318 19.759 C 3.256 20.002,3.255 20.611,3.317 20.880 C 3.505 21.694,4.232 22.445,5.040 22.661 C 5.527 22.791,6.948 22.769,7.826 22.619 C 8.833 22.447,9.973 22.021,10.840 21.495 L 11.100 21.337 11.300 21.413 C 14.044 22.450,14.711 22.625,16.310 22.725 C 17.229 22.782,18.660 22.749,18.960 22.664 C 19.370 22.548,19.682 22.359,20.021 22.020 C 20.528 21.515,20.736 21.010,20.731 20.299 C 20.725 19.588,20.467 19.008,19.939 18.526 C 19.507 18.131,19.362 18.073,17.860 17.696 C 17.288 17.552,16.727 17.392,16.614 17.341 C 16.384 17.237,16.243 17.080,15.473 16.061 C 15.005 15.442,14.862 15.308,14.622 15.263 C 14.323 15.207,13.934 15.422,13.814 15.708 C 13.752 15.858,13.744 16.112,13.797 16.252 C 13.839 16.362,14.961 17.872,15.187 18.122 C 15.394 18.351,15.788 18.624,16.088 18.747 C 16.226 18.803,16.853 18.979,17.480 19.138 C 18.107 19.297,18.678 19.458,18.749 19.494 C 19.166 19.710,19.360 20.272,19.165 20.700 C 19.072 20.905,18.809 21.142,18.609 21.202 C 18.497 21.235,18.068 21.243,17.097 21.229 C 15.639 21.207,15.444 21.187,14.530 20.959 C 14.093 20.850,12.666 20.353,12.590 20.284 C 12.574 20.269,12.785 20.090,13.059 19.886 C 13.624 19.464,13.724 19.337,13.730 19.030 C 13.738 18.657,13.514 18.356,13.171 18.278 C 12.847 18.203,12.772 18.243,11.663 19.073 C 10.083 20.257,9.637 20.528,8.748 20.846 C 7.980 21.120,7.469 21.205,6.445 21.229 C 5.431 21.252,5.324 21.235,5.071 21.008 C 4.669 20.645,4.652 20.038,5.033 19.657 C 5.213 19.477,5.347 19.430,6.586 19.120 C 7.958 18.777,8.221 18.669,8.685 18.252 C 8.870 18.085,10.144 16.408,10.203 16.252 C 10.256 16.112,10.248 15.858,10.186 15.708 C 10.115 15.537,9.879 15.335,9.691 15.282 C 9.500 15.229,9.455 15.231,9.267 15.298 " stroke="none" fill-rule="evenodd" fill="black"></path></svg>