<svg width="24" height="24" viewBox="0 0 24 24" fill="none" xmlns="http://www.w3.org/2000/svg"><path d="M16.811 1.278 C 16.535 1.345,16.316 1.587,16.260 1.885 C 16.197 2.220,16.450 2.624,16.781 2.715 C 16.885 2.744,17.501 2.760,18.560 2.760 L 20.180 2.760 17.920 5.020 C 16.677 6.263,15.645 7.280,15.626 7.280 C 15.607 7.280,15.508 7.210,15.406 7.125 C 14.832 6.647,13.714 6.033,12.900 5.749 C 11.930 5.410,11.095 5.273,10.000 5.273 C 8.569 5.273,7.448 5.527,6.180 6.139 C 5.305 6.562,4.293 7.291,3.700 7.926 C 2.405 9.309,1.617 10.929,1.338 12.780 C 1.248 13.377,1.248 14.623,1.338 15.220 C 1.662 17.364,2.734 19.317,4.320 20.651 C 5.601 21.728,7.119 22.413,8.780 22.661 C 9.376 22.751,10.624 22.751,11.220 22.661 C 13.448 22.328,15.452 21.189,16.811 19.484 C 17.798 18.246,18.426 16.799,18.661 15.220 C 18.739 14.695,18.751 13.473,18.682 12.940 C 18.481 11.375,17.853 9.849,16.915 8.651 C 16.808 8.514,16.720 8.388,16.720 8.371 C 16.720 8.354,17.737 7.323,18.980 6.080 L 21.240 3.820 21.240 5.440 C 21.240 6.499,21.256 7.115,21.285 7.219 C 21.309 7.307,21.395 7.444,21.476 7.525 C 21.882 7.931,22.572 7.750,22.720 7.200 C 22.748 7.095,22.759 6.165,22.751 4.412 C 22.740 1.842,22.738 1.777,22.658 1.641 C 22.613 1.564,22.499 1.447,22.405 1.381 L 22.233 1.260 19.587 1.253 C 18.131 1.250,16.882 1.261,16.811 1.278 M11.380 6.878 C 12.815 7.168,14.084 7.847,15.118 8.882 C 16.158 9.922,16.832 11.184,17.128 12.647 C 17.208 13.040,17.220 13.220,17.220 14.000 C 17.220 14.780,17.208 14.960,17.128 15.353 C 16.832 16.816,16.158 18.078,15.118 19.118 C 14.078 20.158,12.816 20.832,11.353 21.128 C 10.960 21.208,10.780 21.220,10.000 21.220 C 9.216 21.220,9.041 21.208,8.640 21.127 C 7.183 20.832,5.922 20.158,4.882 19.118 C 3.842 18.078,3.168 16.817,2.873 15.360 C 2.792 14.959,2.780 14.784,2.780 14.000 C 2.780 13.216,2.792 13.041,2.873 12.640 C 3.168 11.183,3.842 9.922,4.882 8.882 C 6.053 7.711,7.427 7.041,9.180 6.785 C 9.246 6.775,9.669 6.772,10.120 6.778 C 10.777 6.787,11.027 6.806,11.380 6.878 " fill="#1C274C" stroke="none" fill-rule="evenodd"></path></svg>