<svg width="24" height="24" viewBox="0 0 24 24" fill="none" xmlns="http://www.w3.org/2000/svg"><path d="M8.960 1.280 C 6.960 1.332,5.848 1.469,4.900 1.779 C 3.060 2.382,1.958 3.688,1.563 5.734 C 1.311 7.042,1.267 7.973,1.267 12.000 C 1.267 16.027,1.311 16.958,1.563 18.266 C 2.013 20.599,3.401 21.987,5.734 22.437 C 7.034 22.688,7.987 22.733,12.000 22.733 C 16.013 22.733,16.966 22.688,18.266 22.437 C 20.599 21.987,21.987 20.599,22.437 18.266 C 22.688 16.966,22.733 16.013,22.733 12.000 C 22.733 7.987,22.688 7.034,22.437 5.734 C 22.098 3.977,21.228 2.756,19.825 2.068 C 18.978 1.652,17.875 1.425,16.200 1.321 C 15.315 1.266,10.534 1.239,8.960 1.280 M16.787 2.853 C 17.971 2.982,18.589 3.129,19.180 3.421 C 20.200 3.924,20.776 4.815,21.019 6.260 C 21.215 7.435,21.251 8.515,21.229 12.620 C 21.210 16.115,21.195 16.526,21.055 17.500 C 20.734 19.744,19.757 20.726,17.520 21.054 C 16.474 21.207,16.036 21.220,12.000 21.220 C 7.964 21.220,7.526 21.207,6.480 21.054 C 4.384 20.747,3.408 19.870,3.021 17.947 C 2.796 16.826,2.780 16.428,2.780 12.000 C 2.780 8.382,2.788 7.864,2.852 7.240 C 3.025 5.550,3.340 4.663,4.001 4.001 C 4.665 3.338,5.593 3.009,7.220 2.862 C 8.207 2.772,8.227 2.772,12.400 2.782 C 15.524 2.790,16.323 2.803,16.787 2.853 M11.480 5.283 C 8.166 5.524,5.514 8.196,5.283 11.527 C 5.024 15.249,7.812 18.459,11.528 18.717 C 12.131 18.759,12.318 18.722,12.520 18.520 C 12.871 18.169,12.773 17.548,12.334 17.340 C 12.233 17.292,12.027 17.258,11.721 17.237 C 10.941 17.186,10.343 17.028,9.670 16.697 C 9.231 16.481,8.976 16.312,8.588 15.980 C 7.707 15.228,7.102 14.204,6.853 13.040 C 6.750 12.562,6.750 11.438,6.853 10.960 C 7.046 10.058,7.428 9.281,8.020 8.588 C 8.772 7.707,9.796 7.102,10.960 6.853 C 11.215 6.798,11.474 6.780,12.000 6.780 C 12.964 6.780,13.522 6.905,14.330 7.303 C 14.769 7.519,15.024 7.688,15.412 8.020 C 16.293 8.772,16.898 9.796,17.147 10.960 C 17.204 11.226,17.219 11.465,17.216 12.060 C 17.213 12.780,17.206 12.845,17.087 13.291 C 16.936 13.856,16.895 13.941,16.678 14.137 C 16.463 14.331,16.293 14.400,16.031 14.399 C 15.659 14.398,15.307 14.156,15.207 13.833 C 15.184 13.760,15.157 13.205,15.147 12.600 C 15.131 11.659,15.117 11.456,15.047 11.194 C 14.764 10.131,13.863 9.232,12.805 8.954 C 12.380 8.843,11.620 8.843,11.195 8.954 C 10.136 9.232,9.232 10.136,8.954 11.194 C 8.843 11.620,8.843 12.380,8.954 12.805 C 9.232 13.864,10.136 14.768,11.194 15.046 C 11.620 15.157,12.380 15.157,12.806 15.046 C 13.128 14.961,13.534 14.776,13.747 14.616 L 13.873 14.521 14.002 14.751 C 14.267 15.221,14.847 15.662,15.400 15.813 C 16.507 16.116,17.714 15.567,18.238 14.522 C 18.470 14.060,18.663 13.232,18.717 12.470 C 19.007 8.365,15.602 4.983,11.480 5.283 M12.682 10.504 C 13.024 10.666,13.334 10.976,13.496 11.318 C 13.610 11.559,13.620 11.613,13.620 12.000 C 13.620 12.387,13.610 12.441,13.496 12.682 C 13.421 12.839,13.285 13.031,13.158 13.158 C 13.031 13.285,12.839 13.421,12.682 13.496 C 12.441 13.610,12.387 13.620,12.000 13.620 C 11.613 13.620,11.559 13.610,11.318 13.496 C 10.976 13.334,10.666 13.024,10.504 12.682 C 10.390 12.441,10.380 12.387,10.380 12.000 C 10.380 11.613,10.390 11.559,10.504 11.318 C 10.645 11.021,10.957 10.684,11.210 10.555 C 11.540 10.386,11.651 10.362,12.040 10.371 C 12.372 10.379,12.453 10.396,12.682 10.504 " stroke="none" fill-rule="evenodd" fill="black"></path></svg>