<svg width="24" height="24" viewBox="0 0 24 24" fill="none" xmlns="http://www.w3.org/2000/svg"><path d="M11.320 1.281 C 7.041 1.525,3.252 4.409,1.843 8.497 C 1.180 10.418,1.082 12.560,1.564 14.550 C 2.505 18.428,5.572 21.495,9.450 22.436 C 11.106 22.837,12.894 22.837,14.550 22.436 C 18.428 21.495,21.495 18.428,22.436 14.550 C 22.837 12.894,22.837 11.106,22.436 9.450 C 21.425 5.282,17.985 2.095,13.742 1.398 C 13.334 1.331,12.074 1.229,11.880 1.247 C 11.847 1.250,11.595 1.265,11.320 1.281 M13.146 2.822 C 14.201 2.960,15.125 3.237,16.060 3.696 C 18.877 5.079,20.768 7.722,21.178 10.854 C 21.301 11.786,21.244 13.026,21.034 13.998 C 20.745 15.343,20.003 16.855,19.121 17.900 C 18.247 18.935,17.240 19.726,16.060 20.304 C 14.761 20.940,13.462 21.240,12.000 21.240 C 10.538 21.240,9.236 20.940,7.940 20.304 C 5.123 18.921,3.232 16.278,2.822 13.146 C 2.699 12.214,2.756 10.974,2.966 10.002 C 3.177 9.020,3.703 7.775,4.268 6.920 C 5.750 4.677,8.131 3.188,10.820 2.823 C 11.380 2.746,12.569 2.746,13.146 2.822 M11.480 5.283 C 8.166 5.524,5.514 8.196,5.283 11.527 C 5.024 15.249,7.812 18.459,11.528 18.717 C 12.131 18.759,12.318 18.722,12.520 18.520 C 12.871 18.169,12.773 17.548,12.334 17.340 C 12.233 17.292,12.027 17.258,11.721 17.237 C 10.941 17.186,10.343 17.028,9.670 16.697 C 9.231 16.481,8.976 16.312,8.588 15.980 C 7.707 15.228,7.102 14.204,6.853 13.040 C 6.750 12.562,6.750 11.438,6.853 10.960 C 7.046 10.058,7.428 9.281,8.020 8.588 C 8.772 7.707,9.796 7.102,10.960 6.853 C 11.215 6.798,11.474 6.780,12.000 6.780 C 12.964 6.780,13.522 6.905,14.330 7.303 C 14.769 7.519,15.024 7.688,15.412 8.020 C 16.293 8.772,16.898 9.796,17.147 10.960 C 17.204 11.226,17.219 11.465,17.216 12.060 C 17.213 12.780,17.206 12.845,17.087 13.291 C 16.936 13.856,16.895 13.941,16.678 14.137 C 16.463 14.331,16.293 14.400,16.031 14.399 C 15.659 14.398,15.307 14.156,15.207 13.833 C 15.184 13.760,15.157 13.205,15.147 12.600 C 15.131 11.659,15.117 11.456,15.047 11.194 C 14.764 10.131,13.863 9.232,12.805 8.954 C 12.380 8.843,11.620 8.843,11.195 8.954 C 10.136 9.232,9.232 10.136,8.954 11.194 C 8.843 11.620,8.843 12.380,8.954 12.805 C 9.232 13.864,10.136 14.768,11.194 15.046 C 11.620 15.157,12.380 15.157,12.806 15.046 C 13.128 14.961,13.534 14.776,13.747 14.616 L 13.873 14.521 14.002 14.751 C 14.267 15.221,14.847 15.662,15.400 15.813 C 16.507 16.116,17.714 15.567,18.238 14.522 C 18.470 14.060,18.663 13.232,18.717 12.470 C 19.007 8.365,15.602 4.983,11.480 5.283 M12.682 10.504 C 13.024 10.666,13.334 10.976,13.496 11.318 C 13.610 11.559,13.620 11.613,13.620 12.000 C 13.620 12.387,13.610 12.441,13.496 12.682 C 13.421 12.839,13.285 13.031,13.158 13.158 C 13.031 13.285,12.839 13.421,12.682 13.496 C 12.441 13.610,12.387 13.620,12.000 13.620 C 11.613 13.620,11.559 13.610,11.318 13.496 C 10.976 13.334,10.666 13.024,10.504 12.682 C 10.390 12.441,10.380 12.387,10.380 12.000 C 10.380 11.613,10.390 11.559,10.504 11.318 C 10.645 11.021,10.957 10.684,11.210 10.555 C 11.540 10.386,11.651 10.362,12.040 10.371 C 12.372 10.379,12.453 10.396,12.682 10.504 " stroke="none" fill-rule="evenodd" fill="black"></path></svg>