<svg width="24" height="24" viewBox="0 0 24 24" fill="none" xmlns="http://www.w3.org/2000/svg"><path d="M4.660 9.278 C 3.776 9.385,3.027 9.901,2.568 10.720 C 2.168 11.434,2.168 12.566,2.568 13.280 C 3.094 14.219,3.953 14.731,5.000 14.731 C 6.047 14.731,6.906 14.219,7.432 13.280 C 7.832 12.566,7.832 11.434,7.432 10.720 C 6.857 9.694,5.796 9.142,4.660 9.278 M11.660 9.278 C 10.776 9.385,10.027 9.901,9.568 10.720 C 9.168 11.434,9.168 12.566,9.568 13.280 C 10.094 14.219,10.953 14.731,12.000 14.731 C 13.047 14.731,13.906 14.219,14.432 13.280 C 14.832 12.566,14.832 11.434,14.432 10.720 C 13.857 9.694,12.796 9.142,11.660 9.278 M18.660 9.278 C 17.776 9.385,17.027 9.901,16.568 10.720 C 16.168 11.434,16.168 12.566,16.568 13.280 C 17.094 14.219,17.953 14.731,19.000 14.731 C 20.047 14.731,20.906 14.219,21.432 13.280 C 21.832 12.566,21.832 11.434,21.432 10.720 C 20.857 9.694,19.796 9.142,18.660 9.278 M5.454 10.841 C 5.912 11.013,6.240 11.496,6.240 12.000 C 6.240 12.504,5.912 12.987,5.454 13.159 C 4.810 13.400,4.075 13.076,3.837 12.445 C 3.728 12.157,3.743 11.704,3.870 11.458 C 4.019 11.169,4.349 10.886,4.640 10.797 C 4.838 10.737,5.232 10.758,5.454 10.841 M12.454 10.841 C 12.744 10.950,13.050 11.256,13.159 11.546 C 13.335 12.017,13.227 12.521,12.874 12.874 C 12.381 13.368,11.619 13.368,11.126 12.874 C 10.847 12.596,10.746 12.325,10.769 11.920 C 10.790 11.567,10.876 11.373,11.124 11.125 C 11.397 10.853,11.597 10.769,11.988 10.763 C 12.148 10.761,12.315 10.789,12.454 10.841 M19.454 10.841 C 19.744 10.950,20.050 11.256,20.159 11.546 C 20.335 12.017,20.227 12.521,19.874 12.874 C 19.381 13.368,18.619 13.368,18.126 12.874 C 17.847 12.596,17.746 12.325,17.769 11.920 C 17.790 11.567,17.876 11.373,18.124 11.125 C 18.397 10.853,18.597 10.769,18.988 10.763 C 19.148 10.761,19.315 10.789,19.454 10.841 " stroke="none" fill="black" fill-rule="evenodd"></path></svg>