<svg width="24" height="24" viewBox="0 0 24 24" fill="none" xmlns="http://www.w3.org/2000/svg"><path d="M11.320 1.281 C 7.041 1.525,3.252 4.409,1.843 8.497 C 1.180 10.418,1.082 12.560,1.564 14.550 C 2.505 18.428,5.572 21.495,9.450 22.436 C 11.106 22.837,12.894 22.837,14.550 22.436 C 18.428 21.495,21.495 18.428,22.436 14.550 C 22.837 12.894,22.837 11.106,22.436 9.450 C 21.425 5.282,17.985 2.095,13.742 1.398 C 13.334 1.331,12.074 1.229,11.880 1.247 C 11.847 1.250,11.595 1.265,11.320 1.281 M13.146 2.822 C 14.201 2.960,15.125 3.237,16.060 3.696 C 18.877 5.079,20.768 7.722,21.178 10.854 C 21.301 11.786,21.244 13.026,21.034 13.998 C 20.745 15.343,20.003 16.855,19.121 17.900 C 18.247 18.935,17.240 19.726,16.060 20.304 C 14.761 20.940,13.462 21.240,12.000 21.240 C 10.538 21.240,9.236 20.940,7.940 20.304 C 5.123 18.921,3.232 16.278,2.822 13.146 C 2.699 12.214,2.756 10.974,2.966 10.002 C 3.177 9.020,3.703 7.775,4.268 6.920 C 5.750 4.677,8.131 3.188,10.820 2.823 C 11.380 2.746,12.569 2.746,13.146 2.822 M7.664 11.063 C 7.436 11.146,7.257 11.297,7.131 11.511 C 7.036 11.672,7.020 11.744,7.020 12.000 C 7.020 12.256,7.036 12.328,7.131 12.489 C 7.470 13.065,8.234 13.168,8.701 12.701 C 9.092 12.310,9.092 11.690,8.701 11.299 C 8.429 11.027,8.018 10.933,7.664 11.063 M11.667 11.065 C 11.303 11.177,11.000 11.602,11.000 12.000 C 11.000 12.517,11.483 13.000,12.000 13.000 C 12.517 13.000,13.000 12.517,13.000 12.000 C 13.000 11.598,12.688 11.173,12.310 11.061 C 12.061 10.987,11.919 10.988,11.667 11.065 M15.667 11.065 C 15.303 11.177,15.000 11.602,15.000 12.000 C 15.000 12.517,15.483 13.000,16.000 13.000 C 16.517 13.000,17.000 12.517,17.000 12.000 C 17.000 11.598,16.688 11.173,16.310 11.061 C 16.061 10.987,15.919 10.988,15.667 11.065 " fill="#1C274C" stroke="none" fill-rule="evenodd"></path></svg>