<svg width="24" height="24" viewBox="0 0 24 24" fill="none" xmlns="http://www.w3.org/2000/svg"><path d="M11.660 2.278 C 10.570 2.409,9.646 3.204,9.357 4.260 C 9.180 4.907,9.267 5.744,9.568 6.280 C 10.094 7.219,10.953 7.731,12.000 7.731 C 13.047 7.731,13.906 7.219,14.432 6.280 C 14.832 5.566,14.832 4.434,14.432 3.720 C 13.857 2.694,12.796 2.142,11.660 2.278 M12.454 3.841 C 12.912 4.013,13.240 4.496,13.240 5.000 C 13.240 5.504,12.912 5.987,12.454 6.159 C 11.810 6.400,11.075 6.076,10.837 5.445 C 10.728 5.157,10.743 4.704,10.870 4.458 C 11.019 4.169,11.349 3.886,11.640 3.797 C 11.838 3.737,12.232 3.758,12.454 3.841 M11.660 9.278 C 10.776 9.385,10.027 9.901,9.568 10.720 C 9.168 11.434,9.168 12.566,9.568 13.280 C 10.094 14.219,10.953 14.731,12.000 14.731 C 13.047 14.731,13.906 14.219,14.432 13.280 C 14.832 12.566,14.832 11.434,14.432 10.720 C 13.857 9.694,12.796 9.142,11.660 9.278 M12.454 10.841 C 12.744 10.950,13.050 11.256,13.159 11.546 C 13.335 12.017,13.227 12.521,12.874 12.874 C 12.381 13.368,11.619 13.368,11.126 12.874 C 10.847 12.596,10.746 12.325,10.769 11.920 C 10.790 11.567,10.876 11.373,11.124 11.125 C 11.397 10.853,11.597 10.769,11.988 10.763 C 12.148 10.761,12.315 10.789,12.454 10.841 M11.660 16.278 C 10.570 16.409,9.646 17.204,9.357 18.260 C 9.180 18.907,9.267 19.744,9.568 20.280 C 10.094 21.219,10.953 21.731,12.000 21.731 C 13.047 21.731,13.906 21.219,14.432 20.280 C 14.832 19.566,14.832 18.434,14.432 17.720 C 13.857 16.694,12.796 16.142,11.660 16.278 M12.454 17.841 C 12.744 17.950,13.050 18.256,13.159 18.546 C 13.335 19.017,13.227 19.521,12.874 19.874 C 12.381 20.368,11.619 20.368,11.126 19.874 C 10.847 19.596,10.746 19.325,10.769 18.920 C 10.790 18.567,10.876 18.373,11.124 18.125 C 11.397 17.853,11.597 17.769,11.988 17.763 C 12.148 17.761,12.315 17.789,12.454 17.841 " stroke="none" fill="black" fill-rule="evenodd"></path></svg>