<svg width="24" height="24" viewBox="0 0 24 24" fill="none" xmlns="http://www.w3.org/2000/svg"><path d="M11.320 1.281 C 7.041 1.525,3.252 4.409,1.843 8.497 C 1.180 10.418,1.082 12.560,1.564 14.550 C 2.505 18.428,5.572 21.495,9.450 22.436 C 11.106 22.837,12.894 22.837,14.550 22.436 C 18.428 21.495,21.495 18.428,22.436 14.550 C 22.837 12.894,22.837 11.106,22.436 9.450 C 21.425 5.282,17.985 2.095,13.742 1.398 C 13.334 1.331,12.074 1.229,11.880 1.247 C 11.847 1.250,11.595 1.265,11.320 1.281 M13.146 2.822 C 14.201 2.960,15.125 3.237,16.060 3.696 C 18.877 5.079,20.768 7.722,21.178 10.854 C 21.301 11.786,21.244 13.026,21.034 13.998 C 20.745 15.343,20.003 16.855,19.121 17.900 C 18.247 18.935,17.240 19.726,16.060 20.304 C 14.761 20.940,13.462 21.240,12.000 21.240 C 10.538 21.240,9.236 20.940,7.940 20.304 C 5.123 18.921,3.232 16.278,2.822 13.146 C 2.699 12.214,2.756 10.974,2.966 10.002 C 3.177 9.020,3.703 7.775,4.268 6.920 C 5.750 4.677,8.131 3.188,10.820 2.823 C 11.380 2.746,12.569 2.746,13.146 2.822 M11.664 7.063 C 11.436 7.146,11.257 7.297,11.131 7.511 C 11.036 7.672,11.020 7.744,11.020 8.000 C 11.020 8.256,11.036 8.328,11.131 8.489 C 11.470 9.065,12.234 9.168,12.701 8.701 C 12.881 8.521,13.000 8.242,13.000 8.000 C 13.000 7.326,12.295 6.832,11.664 7.063 M11.667 11.065 C 11.303 11.177,11.000 11.602,11.000 12.000 C 11.000 12.517,11.483 13.000,12.000 13.000 C 12.517 13.000,13.000 12.517,13.000 12.000 C 13.000 11.598,12.688 11.173,12.310 11.061 C 12.061 10.987,11.919 10.988,11.667 11.065 M11.667 15.065 C 11.303 15.177,11.000 15.602,11.000 16.000 C 11.000 16.517,11.483 17.000,12.000 17.000 C 12.517 17.000,13.000 16.517,13.000 16.000 C 13.000 15.598,12.688 15.173,12.310 15.061 C 12.061 14.987,11.919 14.988,11.667 15.065 " fill="#1C274C" stroke="none" fill-rule="evenodd"></path></svg>