<svg width="24" height="24" viewBox="0 0 24 24" fill="none" xmlns="http://www.w3.org/2000/svg"><path d="M11.533 2.282 C 9.255 2.468,7.304 3.986,6.569 6.140 C 6.294 6.946,6.240 7.496,6.240 9.500 C 6.240 11.504,6.294 12.054,6.569 12.860 C 7.593 15.862,10.880 17.459,13.895 16.418 C 15.525 15.855,16.855 14.525,17.418 12.895 C 17.707 12.058,17.760 11.530,17.760 9.500 C 17.760 7.470,17.707 6.942,17.418 6.105 C 16.771 4.233,15.117 2.776,13.189 2.383 C 12.932 2.330,11.989 2.229,11.920 2.246 C 11.909 2.249,11.735 2.265,11.533 2.282 M13.020 3.873 C 13.841 4.104,14.443 4.447,14.998 5.002 C 15.553 5.558,15.912 6.187,16.120 6.968 L 16.191 7.235 14.745 7.248 C 13.166 7.261,13.188 7.258,12.953 7.506 C 12.819 7.647,12.760 7.799,12.760 8.000 C 12.760 8.201,12.819 8.353,12.953 8.494 C 13.188 8.742,13.163 8.739,14.770 8.752 L 16.240 8.765 16.240 9.500 L 16.240 10.235 14.770 10.248 C 13.163 10.261,13.188 10.258,12.953 10.506 C 12.819 10.647,12.760 10.799,12.760 11.000 C 12.760 11.201,12.819 11.353,12.953 11.494 C 13.188 11.742,13.166 11.739,14.745 11.752 L 16.191 11.765 16.120 12.032 C 15.912 12.813,15.553 13.442,14.998 13.998 C 14.443 14.552,13.784 14.924,12.960 15.147 C 12.589 15.248,11.411 15.248,11.040 15.147 C 10.216 14.924,9.557 14.552,9.002 13.998 C 8.462 13.457,8.068 12.768,7.878 12.030 L 7.808 11.760 8.382 11.760 C 9.121 11.760,9.323 11.717,9.520 11.520 C 9.918 11.122,9.730 10.423,9.189 10.286 C 9.087 10.261,8.725 10.240,8.382 10.240 L 7.760 10.240 7.760 9.500 L 7.760 8.760 8.358 8.760 C 9.121 8.760,9.321 8.719,9.520 8.520 C 9.918 8.122,9.730 7.423,9.189 7.286 C 9.087 7.261,8.735 7.240,8.406 7.240 L 7.808 7.240 7.884 6.943 C 8.267 5.447,9.524 4.214,11.020 3.867 C 11.458 3.766,11.465 3.765,12.120 3.780 C 12.581 3.790,12.812 3.814,13.020 3.873 M3.815 9.278 C 3.639 9.320,3.462 9.455,3.353 9.631 C 3.262 9.777,3.260 9.801,3.264 10.760 C 3.272 12.440,3.499 13.495,4.139 14.820 C 4.984 16.568,6.399 17.992,8.140 18.843 C 9.070 19.298,9.906 19.544,11.047 19.699 L 11.235 19.724 11.247 20.972 C 11.260 22.197,11.262 22.223,11.353 22.369 C 11.710 22.943,12.576 22.812,12.716 22.162 C 12.742 22.040,12.760 21.504,12.760 20.840 L 12.760 19.725 12.950 19.699 C 14.819 19.446,16.302 18.803,17.680 17.649 C 19.255 16.331,20.349 14.342,20.657 12.239 C 20.744 11.643,20.785 10.166,20.722 9.866 C 20.578 9.184,19.722 9.036,19.353 9.631 C 19.264 9.774,19.259 9.822,19.235 10.860 C 19.215 11.742,19.195 12.020,19.123 12.375 C 18.833 13.814,18.153 15.083,17.118 16.118 C 16.078 17.158,14.816 17.832,13.353 18.128 C 12.960 18.208,12.780 18.220,12.000 18.220 C 11.216 18.220,11.041 18.208,10.640 18.127 C 9.183 17.832,7.922 17.158,6.882 16.118 C 6.063 15.299,5.483 14.368,5.125 13.294 C 4.852 12.477,4.793 12.084,4.763 10.880 C 4.741 9.963,4.727 9.799,4.663 9.668 C 4.573 9.484,4.396 9.343,4.180 9.284 C 4.003 9.236,3.993 9.236,3.815 9.278 " stroke="none" fill-rule="evenodd" fill="black"></path></svg>