<svg width="24" height="24" viewBox="0 0 24 24" fill="none" xmlns="http://www.w3.org/2000/svg"><path d="M8.960 1.280 C 6.960 1.332,5.848 1.469,4.900 1.779 C 3.060 2.382,1.958 3.688,1.563 5.734 C 1.311 7.042,1.267 7.973,1.267 12.000 C 1.267 16.027,1.311 16.958,1.563 18.266 C 2.013 20.599,3.401 21.987,5.734 22.437 C 7.034 22.688,7.987 22.733,12.000 22.733 C 16.013 22.733,16.966 22.688,18.266 22.437 C 20.599 21.987,21.987 20.599,22.437 18.266 C 22.688 16.966,22.733 16.013,22.733 12.000 C 22.733 7.987,22.688 7.034,22.437 5.734 C 22.098 3.977,21.228 2.756,19.825 2.068 C 18.978 1.652,17.875 1.425,16.200 1.321 C 15.315 1.266,10.534 1.239,8.960 1.280 M16.787 2.853 C 17.971 2.982,18.589 3.129,19.180 3.421 C 20.200 3.924,20.776 4.815,21.019 6.260 C 21.215 7.435,21.251 8.515,21.229 12.620 C 21.210 16.115,21.195 16.526,21.055 17.500 C 20.734 19.744,19.757 20.726,17.520 21.054 C 16.474 21.207,16.036 21.220,12.000 21.220 C 7.964 21.220,7.526 21.207,6.480 21.054 C 4.384 20.747,3.408 19.870,3.021 17.947 C 2.796 16.826,2.780 16.428,2.780 12.000 C 2.780 8.382,2.788 7.864,2.852 7.240 C 3.025 5.550,3.340 4.663,4.001 4.001 C 4.665 3.338,5.593 3.009,7.220 2.862 C 8.207 2.772,8.227 2.772,12.400 2.782 C 15.524 2.790,16.323 2.803,16.787 2.853 M16.900 6.259 C 16.878 6.267,16.806 6.285,16.740 6.300 C 16.653 6.319,16.293 6.652,15.430 7.512 L 14.240 8.697 14.239 8.019 C 14.238 7.150,14.175 6.983,13.790 6.822 C 13.517 6.708,13.131 6.783,12.952 6.986 C 12.766 7.194,12.760 7.263,12.761 9.009 C 12.762 10.525,12.768 10.673,12.835 10.820 C 12.923 11.010,13.012 11.096,13.210 11.178 C 13.335 11.230,13.612 11.240,15.000 11.240 C 16.736 11.240,16.806 11.233,17.014 11.048 C 17.217 10.869,17.292 10.483,17.178 10.210 C 17.017 9.825,16.850 9.762,15.981 9.761 L 15.303 9.760 16.487 8.570 C 17.606 7.445,17.673 7.370,17.711 7.189 C 17.782 6.848,17.658 6.530,17.389 6.367 C 17.265 6.292,16.983 6.229,16.900 6.259 M7.180 12.835 C 6.990 12.923,6.904 13.012,6.822 13.210 C 6.740 13.405,6.745 13.624,6.835 13.820 C 7.001 14.180,7.170 14.240,8.028 14.240 L 8.698 14.240 7.534 15.410 C 6.893 16.053,6.346 16.625,6.318 16.680 C 6.290 16.735,6.267 16.881,6.267 17.004 C 6.267 17.498,6.682 17.817,7.189 17.711 C 7.370 17.673,7.445 17.606,8.570 16.487 L 9.760 15.303 9.761 15.981 C 9.762 16.850,9.825 17.017,10.210 17.178 C 10.483 17.292,10.869 17.217,11.048 17.014 C 11.233 16.806,11.240 16.736,11.240 15.000 C 11.240 13.612,11.230 13.335,11.178 13.210 C 11.096 13.012,11.010 12.923,10.820 12.835 C 10.673 12.768,10.526 12.762,9.000 12.762 C 7.474 12.762,7.327 12.768,7.180 12.835 " stroke="none" fill-rule="evenodd" fill="black"></path></svg>