<svg width="24" height="24" viewBox="0 0 24 24" fill="none" xmlns="http://www.w3.org/2000/svg"><path d="M21.900 1.259 C 21.878 1.267,21.806 1.285,21.740 1.299 C 21.650 1.319,20.891 2.053,18.692 4.250 L 15.763 7.175 15.752 5.058 C 15.739 2.675,15.756 2.811,15.426 2.544 C 15.288 2.432,15.245 2.420,15.000 2.420 C 14.755 2.420,14.712 2.432,14.574 2.544 C 14.489 2.613,14.384 2.730,14.340 2.804 C 14.262 2.937,14.260 3.012,14.260 6.087 L 14.260 9.233 14.380 9.403 C 14.446 9.496,14.572 9.610,14.660 9.656 C 14.818 9.739,14.853 9.740,17.940 9.740 C 20.988 9.740,21.063 9.738,21.196 9.660 C 21.270 9.616,21.387 9.511,21.456 9.426 C 21.568 9.288,21.580 9.245,21.580 9.000 C 21.580 8.755,21.568 8.712,21.456 8.574 C 21.189 8.244,21.325 8.261,18.942 8.248 L 16.825 8.237 19.748 5.308 C 22.579 2.473,22.673 2.374,22.712 2.189 C 22.782 1.847,22.657 1.530,22.389 1.367 C 22.265 1.292,21.983 1.229,21.900 1.259 M2.971 14.278 C 2.795 14.321,2.666 14.411,2.533 14.586 C 2.435 14.714,2.420 14.769,2.420 15.003 C 2.420 15.245,2.433 15.288,2.544 15.426 C 2.811 15.756,2.675 15.739,5.058 15.752 L 7.176 15.763 4.272 18.672 C 2.675 20.271,1.346 21.625,1.318 21.680 C 1.290 21.735,1.267 21.881,1.267 22.004 C 1.267 22.498,1.681 22.816,2.189 22.712 C 2.374 22.673,2.473 22.579,5.308 19.748 L 8.237 16.825 8.248 18.942 C 8.261 21.325,8.244 21.189,8.574 21.456 C 8.712 21.568,8.755 21.580,9.000 21.580 C 9.245 21.580,9.288 21.568,9.426 21.456 C 9.511 21.387,9.616 21.270,9.660 21.196 C 9.738 21.063,9.740 20.988,9.740 17.940 C 9.740 14.853,9.739 14.818,9.656 14.660 C 9.610 14.572,9.496 14.446,9.403 14.380 L 9.233 14.260 6.167 14.253 C 4.480 14.250,3.042 14.261,2.971 14.278 " stroke="none" fill-rule="evenodd" fill="black"></path></svg>