<svg width="24" height="24" viewBox="0 0 24 24" fill="none" xmlns="http://www.w3.org/2000/svg"><path d="M8.960 1.280 C 6.960 1.332,5.848 1.469,4.900 1.779 C 3.060 2.382,1.958 3.688,1.563 5.734 C 1.311 7.042,1.267 7.973,1.267 12.000 C 1.267 16.027,1.311 16.958,1.563 18.266 C 2.013 20.599,3.401 21.987,5.734 22.437 C 7.034 22.688,7.987 22.733,12.000 22.733 C 16.013 22.733,16.966 22.688,18.266 22.437 C 20.599 21.987,21.987 20.599,22.437 18.266 C 22.688 16.966,22.733 16.013,22.733 12.000 C 22.733 7.987,22.688 7.034,22.437 5.734 C 22.098 3.977,21.228 2.756,19.825 2.068 C 18.978 1.652,17.875 1.425,16.200 1.321 C 15.315 1.266,10.534 1.239,8.960 1.280 M16.787 2.853 C 17.908 2.976,18.548 3.121,19.115 3.383 L 19.417 3.523 17.099 5.842 L 14.780 8.161 14.760 7.110 C 14.740 6.082,14.738 6.056,14.640 5.886 C 14.359 5.394,13.641 5.394,13.360 5.886 L 13.260 6.060 13.260 8.147 L 13.260 10.233 13.380 10.403 C 13.446 10.496,13.572 10.610,13.660 10.656 C 13.816 10.738,13.868 10.740,15.880 10.740 L 17.940 10.740 18.114 10.640 C 18.604 10.360,18.608 9.653,18.120 9.366 C 17.940 9.260,17.938 9.260,16.890 9.240 L 15.839 9.220 18.158 6.901 L 20.477 4.583 20.615 4.881 C 20.961 5.631,21.117 6.514,21.203 8.219 C 21.260 9.350,21.230 15.936,21.164 16.600 C 20.982 18.436,20.680 19.320,20.000 20.000 C 19.320 20.680,18.436 20.982,16.600 21.164 C 15.936 21.230,9.350 21.260,8.219 21.203 C 6.514 21.117,5.631 20.961,4.881 20.615 L 4.583 20.477 6.901 18.158 L 9.220 15.839 9.240 16.890 C 9.260 17.938,9.260 17.940,9.366 18.120 C 9.653 18.608,10.360 18.604,10.640 18.114 L 10.740 17.940 10.752 16.005 C 10.765 13.801,10.758 13.718,10.520 13.480 C 10.279 13.239,10.205 13.232,8.000 13.247 L 6.060 13.260 5.880 13.366 C 5.394 13.652,5.394 14.348,5.880 14.634 C 6.060 14.740,6.062 14.740,7.110 14.760 L 8.161 14.780 5.844 17.096 L 3.528 19.412 3.429 19.216 C 3.149 18.661,2.967 17.887,2.852 16.760 C 2.788 16.136,2.780 15.618,2.780 12.000 C 2.780 8.382,2.788 7.864,2.852 7.240 C 3.025 5.550,3.340 4.663,4.001 4.001 C 4.665 3.338,5.593 3.009,7.220 2.862 C 8.207 2.772,8.227 2.772,12.400 2.782 C 15.524 2.790,16.323 2.803,16.787 2.853 " stroke="none" fill-rule="evenodd" fill="black"></path></svg>