<svg width="24" height="24" viewBox="0 0 24 24" fill="none" xmlns="http://www.w3.org/2000/svg"><path d="M11.815 1.277 C 11.502 1.355,11.293 1.620,11.255 1.990 L 11.230 2.229 10.884 2.249 C 10.511 2.270,10.364 2.325,10.193 2.506 C 10.059 2.647,10.000 2.799,10.000 3.000 C 10.000 3.201,10.059 3.353,10.193 3.494 C 10.365 3.676,10.511 3.730,10.889 3.751 L 11.240 3.771 11.240 12.001 L 11.240 20.230 10.770 20.248 C 10.263 20.267,10.143 20.305,9.953 20.506 C 9.691 20.783,9.691 21.217,9.953 21.494 C 10.143 21.695,10.264 21.733,10.765 21.752 L 11.230 21.769 11.255 22.015 C 11.300 22.449,11.590 22.729,11.996 22.729 C 12.412 22.729,12.662 22.495,12.734 22.040 L 12.778 21.760 13.439 21.759 C 14.658 21.757,16.695 21.682,17.213 21.621 C 18.728 21.441,19.647 21.065,20.365 20.331 C 21.088 19.593,21.443 18.711,21.621 17.213 C 21.804 15.669,21.804 8.331,21.621 6.787 C 21.443 5.289,21.088 4.407,20.365 3.669 C 19.647 2.935,18.728 2.559,17.213 2.379 C 16.695 2.318,14.658 2.243,13.439 2.241 L 12.778 2.240 12.734 1.960 C 12.684 1.642,12.563 1.448,12.352 1.349 C 12.177 1.266,11.969 1.239,11.815 1.277 M6.880 2.283 C 5.889 2.320,5.160 2.413,4.920 2.531 C 4.814 2.584,4.693 2.689,4.625 2.787 C 4.306 3.247,4.653 3.920,5.209 3.920 C 5.307 3.920,5.565 3.893,5.783 3.859 C 6.002 3.826,6.540 3.788,6.980 3.775 C 7.420 3.763,7.851 3.734,7.939 3.712 C 8.031 3.689,8.159 3.611,8.245 3.525 C 8.687 3.082,8.429 2.353,7.800 2.271 C 7.723 2.261,7.309 2.266,6.880 2.283 M16.340 3.801 C 17.563 3.881,18.144 4.007,18.766 4.327 C 19.675 4.795,20.070 5.715,20.198 7.659 C 20.254 8.504,20.254 15.496,20.198 16.341 C 20.047 18.644,19.533 19.523,18.099 19.939 C 17.324 20.164,16.344 20.240,14.231 20.240 L 12.760 20.240 12.760 12.000 L 12.760 3.760 14.250 3.761 C 15.070 3.761,16.010 3.779,16.340 3.801 M2.895 4.477 C 2.578 4.621,2.474 4.858,2.361 5.700 C 2.337 5.876,2.308 6.434,2.296 6.940 C 2.275 7.811,2.278 7.867,2.353 7.985 C 2.544 8.284,2.929 8.429,3.252 8.323 C 3.433 8.263,3.662 8.012,3.717 7.813 C 3.740 7.729,3.760 7.471,3.760 7.240 C 3.761 6.710,3.824 5.964,3.906 5.507 C 3.981 5.092,3.962 4.925,3.817 4.716 C 3.616 4.426,3.228 4.325,2.895 4.477 M2.698 9.955 C 2.517 10.038,2.335 10.233,2.290 10.393 C 2.251 10.533,2.251 13.227,2.290 13.367 C 2.363 13.629,2.710 13.878,3.000 13.878 C 3.290 13.878,3.637 13.629,3.710 13.367 C 3.749 13.227,3.749 10.533,3.710 10.393 C 3.637 10.131,3.290 9.882,3.000 9.882 C 2.923 9.882,2.787 9.915,2.698 9.955 M2.720 15.445 C 2.589 15.497,2.409 15.670,2.329 15.820 C 2.277 15.918,2.267 16.067,2.274 16.640 C 2.287 17.883,2.385 18.758,2.538 19.020 C 2.801 19.469,3.495 19.477,3.788 19.035 C 3.913 18.847,3.924 18.665,3.845 18.120 C 3.818 17.933,3.786 17.402,3.774 16.940 C 3.762 16.478,3.735 16.032,3.714 15.949 C 3.668 15.764,3.465 15.526,3.292 15.454 C 3.143 15.392,2.865 15.387,2.720 15.445 M4.780 20.049 C 4.377 20.192,4.173 20.630,4.322 21.027 C 4.389 21.204,4.597 21.393,4.797 21.458 C 5.242 21.604,6.279 21.719,7.152 21.720 C 7.606 21.720,7.706 21.708,7.842 21.639 C 8.272 21.420,8.356 20.826,8.005 20.476 C 7.823 20.294,7.639 20.241,7.192 20.240 C 6.677 20.240,5.872 20.165,5.434 20.077 C 5.001 19.991,4.950 19.989,4.780 20.049 " stroke="none" fill-rule="evenodd" fill="black"></path></svg>