<svg width="24" height="24" viewBox="0 0 24 24" fill="none" xmlns="http://www.w3.org/2000/svg"><path d="M11.815 1.277 C 11.500 1.355,11.293 1.619,11.254 1.995 L 11.229 2.240 10.564 2.241 C 9.501 2.243,7.375 2.313,6.940 2.360 C 5.338 2.533,4.371 2.916,3.635 3.669 C 2.894 4.426,2.531 5.356,2.360 6.940 C 2.205 8.376,2.205 15.624,2.360 17.060 C 2.531 18.644,2.894 19.574,3.635 20.331 C 4.353 21.065,5.272 21.441,6.787 21.621 C 7.306 21.682,9.342 21.757,10.564 21.759 L 11.229 21.760 11.254 22.010 C 11.300 22.450,11.588 22.729,11.996 22.729 C 12.410 22.729,12.662 22.495,12.733 22.045 L 12.776 21.770 13.119 21.751 C 13.489 21.730,13.636 21.674,13.807 21.494 C 13.941 21.353,14.000 21.201,14.000 21.000 C 14.000 20.799,13.941 20.647,13.807 20.506 C 13.635 20.324,13.489 20.270,13.111 20.249 L 12.760 20.229 12.760 11.999 L 12.760 3.770 13.230 3.752 C 13.737 3.733,13.857 3.695,14.047 3.494 C 14.181 3.353,14.240 3.201,14.240 3.000 C 14.240 2.799,14.181 2.647,14.047 2.506 C 13.857 2.305,13.736 2.267,13.238 2.248 L 12.776 2.231 12.733 1.955 C 12.684 1.642,12.561 1.447,12.352 1.349 C 12.177 1.266,11.969 1.239,11.815 1.277 M16.165 2.348 C 15.983 2.438,15.810 2.687,15.777 2.905 C 15.725 3.253,15.967 3.623,16.309 3.718 C 16.392 3.741,16.622 3.760,16.820 3.760 C 17.369 3.762,18.092 3.829,18.575 3.924 C 19.050 4.017,19.215 4.000,19.451 3.832 C 19.679 3.670,19.787 3.262,19.678 2.973 C 19.611 2.796,19.403 2.607,19.203 2.542 C 18.524 2.319,16.487 2.190,16.165 2.348 M11.240 12.000 L 11.240 20.240 9.769 20.240 C 7.656 20.240,6.676 20.164,5.901 19.939 C 4.569 19.553,4.033 18.751,3.833 16.840 C 3.757 16.120,3.757 7.880,3.833 7.160 C 4.078 4.819,4.860 4.040,7.160 3.842 C 7.924 3.776,7.952 3.775,9.650 3.767 L 11.240 3.760 11.240 12.000 M20.470 4.723 C 20.305 4.810,20.141 5.032,20.103 5.220 C 20.090 5.286,20.106 5.529,20.139 5.760 C 20.173 5.991,20.211 6.567,20.224 7.040 C 20.237 7.513,20.265 7.968,20.286 8.051 C 20.332 8.236,20.535 8.474,20.708 8.546 C 20.973 8.657,21.289 8.601,21.494 8.407 C 21.719 8.194,21.735 8.124,21.726 7.360 C 21.713 6.140,21.616 5.258,21.466 4.986 C 21.289 4.665,20.816 4.540,20.470 4.723 M20.698 10.195 C 20.517 10.278,20.335 10.473,20.290 10.633 C 20.251 10.773,20.251 13.467,20.290 13.607 C 20.363 13.869,20.710 14.118,21.000 14.118 C 21.290 14.118,21.637 13.869,21.710 13.607 C 21.727 13.548,21.740 12.879,21.740 12.120 C 21.740 11.361,21.727 10.692,21.710 10.633 C 21.637 10.371,21.290 10.122,21.000 10.122 C 20.923 10.122,20.787 10.155,20.698 10.195 M20.699 15.693 C 20.533 15.769,20.333 16.007,20.282 16.189 C 20.259 16.272,20.240 16.513,20.240 16.724 C 20.240 17.242,20.172 18.062,20.094 18.493 C 20.059 18.687,20.041 18.910,20.054 18.989 C 20.113 19.353,20.470 19.626,20.842 19.591 C 21.089 19.567,21.333 19.410,21.435 19.210 C 21.590 18.904,21.719 17.796,21.720 16.760 C 21.720 16.066,21.696 15.988,21.425 15.781 C 21.252 15.649,20.891 15.606,20.699 15.693 M18.180 20.144 C 18.004 20.172,17.491 20.208,17.040 20.222 C 16.589 20.236,16.149 20.266,16.061 20.288 C 15.730 20.371,15.481 20.771,15.541 21.123 C 15.575 21.330,15.756 21.570,15.944 21.659 C 16.303 21.830,18.757 21.669,19.131 21.451 C 19.201 21.410,19.310 21.303,19.373 21.214 C 19.604 20.885,19.490 20.383,19.137 20.176 C 18.948 20.065,18.708 20.057,18.180 20.144 " stroke="none" fill-rule="evenodd" fill="black"></path></svg>