<svg width="24" height="24" viewBox="0 0 24 24" fill="none" xmlns="http://www.w3.org/2000/svg"><path d="M11.336 2.283 C 9.042 2.429,6.842 3.435,5.179 5.099 C 3.148 7.130,2.112 9.871,2.284 12.760 C 2.349 13.860,2.562 14.858,2.933 15.809 L 3.108 16.257 2.838 16.326 C 2.352 16.449,1.963 16.713,1.661 17.123 C 1.326 17.578,1.218 18.053,1.285 18.773 C 1.481 20.879,3.128 22.519,5.245 22.717 C 5.872 22.776,18.128 22.776,18.755 22.717 C 20.872 22.519,22.519 20.879,22.715 18.773 C 22.782 18.053,22.674 17.578,22.339 17.123 C 22.037 16.713,21.648 16.449,21.162 16.326 L 20.892 16.257 21.067 15.809 C 21.761 14.031,21.919 11.989,21.516 10.025 C 21.325 9.100,20.872 7.943,20.363 7.082 C 18.891 4.595,16.444 2.889,13.645 2.400 C 13.257 2.332,12.067 2.228,11.880 2.246 C 11.847 2.249,11.602 2.266,11.336 2.283 M13.089 3.822 C 16.846 4.342,19.763 7.382,20.203 11.239 C 20.271 11.838,20.230 13.095,20.125 13.660 C 19.968 14.496,19.750 15.165,19.398 15.890 L 19.228 16.240 18.044 16.240 C 16.722 16.241,16.283 16.277,15.901 16.415 C 15.452 16.578,15.206 16.758,14.541 17.404 C 14.189 17.748,13.819 18.072,13.720 18.124 L 13.540 18.220 12.000 18.220 L 10.460 18.220 10.280 18.124 C 10.181 18.072,9.811 17.748,9.459 17.404 C 8.794 16.758,8.548 16.578,8.099 16.415 C 7.717 16.277,7.278 16.241,5.956 16.240 L 4.772 16.240 4.602 15.890 C 4.050 14.754,3.807 13.745,3.771 12.439 C 3.739 11.278,3.846 10.515,4.184 9.482 C 5.165 6.492,7.717 4.315,10.800 3.838 C 11.401 3.746,12.478 3.738,13.089 3.822 M7.720 17.876 C 7.819 17.928,8.189 18.252,8.541 18.596 C 9.660 19.685,9.882 19.759,12.000 19.759 C 14.118 19.759,14.340 19.685,15.459 18.596 C 15.811 18.252,16.181 17.928,16.280 17.876 L 16.460 17.780 18.640 17.769 C 20.762 17.759,20.823 17.761,20.950 17.839 C 21.162 17.969,21.240 18.137,21.239 18.460 C 21.237 19.708,20.245 20.924,19.020 21.180 C 18.600 21.268,5.400 21.268,4.980 21.180 C 3.755 20.924,2.763 19.708,2.761 18.460 C 2.760 18.137,2.838 17.969,3.050 17.839 C 3.177 17.761,3.238 17.759,5.360 17.769 L 7.540 17.780 7.720 17.876 " stroke="none" fill-rule="evenodd" fill="black"></path></svg>