<svg width="24" height="24" viewBox="0 0 24 24" fill="none" xmlns="http://www.w3.org/2000/svg"><path d="M11.500 1.282 C 9.784 1.434,8.208 2.363,7.049 3.905 C 6.107 5.158,5.520 6.679,5.320 8.386 L 5.272 8.791 5.119 8.771 C 4.885 8.739,4.693 8.791,4.537 8.928 C 4.237 9.192,4.262 8.719,4.239 14.400 C 4.225 17.971,4.206 19.536,4.175 19.621 C 4.049 19.968,3.863 20.271,3.372 20.931 C 3.074 21.331,2.815 21.700,2.796 21.751 C 2.743 21.889,2.752 22.144,2.814 22.292 C 2.844 22.363,2.934 22.479,3.014 22.549 C 3.274 22.778,3.616 22.807,3.891 22.625 C 4.026 22.535,5.162 21.061,5.243 20.870 L 5.290 20.760 12.000 20.760 L 18.710 20.760 18.757 20.870 C 18.838 21.061,19.974 22.535,20.109 22.625 C 20.384 22.807,20.726 22.778,20.986 22.549 C 21.066 22.479,21.156 22.363,21.186 22.292 C 21.248 22.143,21.256 21.889,21.203 21.749 C 21.183 21.696,20.948 21.360,20.681 21.002 C 20.112 20.241,19.986 20.045,19.868 19.732 L 19.780 19.500 19.760 14.400 C 19.738 8.718,19.763 9.192,19.463 8.928 C 19.307 8.791,19.115 8.739,18.881 8.771 L 18.728 8.791 18.680 8.386 C 18.368 5.725,17.097 3.490,15.180 2.229 C 14.078 1.505,12.773 1.169,11.500 1.282 M12.809 2.836 C 15.358 3.349,17.238 6.178,17.238 9.500 C 17.238 12.485,15.742 15.074,13.503 15.963 C 12.339 16.425,11.006 16.311,9.860 15.653 C 8.232 14.717,7.069 12.742,6.802 10.460 C 6.748 9.998,6.748 9.002,6.802 8.540 C 7.016 6.708,7.791 5.092,8.980 3.996 C 9.445 3.568,9.926 3.264,10.500 3.037 C 11.190 2.763,12.066 2.686,12.809 2.836 M12.649 4.602 C 12.359 4.750,12.195 5.125,12.281 5.445 C 12.334 5.640,12.492 5.808,12.876 6.079 C 13.200 6.308,13.526 6.722,13.742 7.180 C 13.959 7.638,14.026 7.839,14.140 8.371 C 14.190 8.608,14.260 8.845,14.295 8.898 C 14.588 9.346,15.279 9.349,15.540 8.903 C 15.682 8.661,15.696 8.534,15.620 8.156 C 15.307 6.590,14.570 5.356,13.578 4.738 C 13.195 4.499,12.929 4.460,12.649 4.602 M5.942 13.120 C 6.761 15.208,8.342 16.819,10.181 17.440 C 11.338 17.831,12.662 17.831,13.819 17.440 C 14.735 17.131,15.621 16.558,16.353 15.803 C 17.063 15.070,17.751 13.965,18.124 12.960 L 18.220 12.700 18.230 13.440 C 18.235 13.847,18.244 15.319,18.250 16.710 L 18.260 19.240 11.985 19.240 L 5.711 19.240 5.735 19.150 C 5.748 19.101,5.759 17.631,5.759 15.883 C 5.760 14.136,5.767 12.714,5.776 12.723 C 5.785 12.732,5.860 12.911,5.942 13.120 " stroke="none" fill-rule="evenodd" fill="black"></path></svg>