<svg width="24" height="24" viewBox="0 0 24 24" fill="none" xmlns="http://www.w3.org/2000/svg"><path d="M10.540 1.282 C 9.741 1.313,9.447 1.356,8.992 1.504 C 8.266 1.742,7.742 2.266,7.505 2.992 C 7.355 3.451,7.317 3.712,7.295 4.440 C 7.284 4.803,7.267 5.139,7.258 5.186 C 7.242 5.266,7.209 5.274,6.770 5.299 C 4.631 5.420,3.484 5.800,2.635 6.669 C 1.916 7.403,1.562 8.277,1.379 9.767 C 1.272 10.640,1.218 13.731,1.272 15.870 C 1.330 18.176,1.404 18.875,1.682 19.727 C 2.105 21.022,2.978 21.895,4.273 22.318 C 5.402 22.686,6.664 22.758,12.000 22.758 C 17.336 22.758,18.598 22.686,19.727 22.318 C 21.002 21.901,21.880 21.036,22.302 19.779 C 22.587 18.928,22.670 18.166,22.728 15.870 C 22.764 14.440,22.764 13.560,22.728 12.130 C 22.680 10.238,22.634 9.628,22.482 8.900 C 22.183 7.470,21.483 6.501,20.332 5.925 C 19.637 5.577,18.784 5.406,17.160 5.290 L 16.740 5.260 16.715 4.540 C 16.687 3.745,16.645 3.450,16.496 2.992 C 16.204 2.102,15.520 1.554,14.460 1.360 C 13.921 1.262,12.001 1.223,10.540 1.282 M14.260 2.835 C 14.370 2.860,14.559 2.930,14.679 2.991 C 14.863 3.084,14.916 3.137,15.009 3.321 C 15.159 3.617,15.195 3.827,15.226 4.590 L 15.252 5.240 12.006 5.240 L 8.760 5.240 8.760 4.838 C 8.760 3.961,8.887 3.359,9.123 3.123 C 9.276 2.971,9.601 2.851,9.989 2.804 C 10.423 2.752,14.005 2.778,14.260 2.835 M17.341 6.802 C 19.644 6.953,20.523 7.467,20.939 8.901 C 21.190 9.768,21.240 10.610,21.240 14.000 C 21.240 17.383,21.190 18.233,20.941 19.093 C 20.553 20.432,19.754 20.966,17.840 21.167 C 17.116 21.244,6.884 21.244,6.160 21.167 C 3.837 20.923,3.100 20.200,2.835 17.900 C 2.769 17.326,2.739 11.675,2.798 10.740 C 2.860 9.750,2.924 9.319,3.089 8.800 C 3.509 7.473,4.423 6.948,6.560 6.805 C 7.314 6.754,16.579 6.752,17.341 6.802 M11.807 9.289 C 11.578 9.338,11.359 9.557,11.280 9.817 C 11.224 10.002,11.208 10.018,11.020 10.081 C 10.362 10.302,9.770 10.790,9.489 11.341 C 9.336 11.642,9.268 11.960,9.271 12.360 C 9.275 13.024,9.495 13.508,10.006 13.980 C 10.536 14.469,10.993 14.655,11.868 14.740 C 12.505 14.801,12.693 14.864,12.961 15.105 C 13.260 15.375,13.324 15.709,13.139 16.025 C 12.937 16.370,12.523 16.568,12.000 16.570 C 11.291 16.571,10.814 16.220,10.742 15.644 C 10.699 15.296,10.562 15.104,10.271 14.982 C 9.922 14.836,9.513 14.991,9.329 15.340 C 9.246 15.496,9.252 15.964,9.341 16.271 C 9.549 16.991,10.226 17.666,10.989 17.913 C 11.182 17.975,11.226 18.007,11.254 18.104 C 11.320 18.332,11.432 18.502,11.594 18.617 C 12.000 18.906,12.630 18.660,12.708 18.181 C 12.735 18.013,12.760 17.991,13.032 17.905 C 13.511 17.752,14.111 17.293,14.391 16.864 C 14.858 16.148,14.848 15.130,14.368 14.431 C 14.205 14.195,13.784 13.810,13.510 13.647 C 13.142 13.428,12.761 13.322,12.134 13.261 C 11.498 13.201,11.307 13.137,11.039 12.895 C 10.529 12.434,10.729 11.801,11.480 11.502 C 11.722 11.406,12.231 11.404,12.500 11.499 C 12.959 11.661,13.209 11.948,13.258 12.368 C 13.328 12.961,13.933 13.268,14.402 12.949 C 14.689 12.753,14.777 12.508,14.720 12.057 C 14.610 11.195,14.017 10.485,13.111 10.134 C 12.754 9.996,12.745 9.989,12.710 9.819 C 12.629 9.426,12.237 9.197,11.807 9.289 " stroke="none" fill-rule="evenodd" fill="black"></path></svg>