<svg width="24" height="24" viewBox="0 0 24 24" fill="none" xmlns="http://www.w3.org/2000/svg"><path d="M7.420 1.282 C 4.817 1.355,3.631 1.693,2.669 2.635 C 1.929 3.358,1.561 4.261,1.378 5.800 C 1.241 6.949,1.202 12.396,1.320 13.852 C 1.527 16.408,2.608 17.485,5.165 17.680 C 5.459 17.703,6.947 17.733,8.470 17.747 L 11.240 17.772 11.240 19.504 L 11.240 21.236 9.507 21.248 L 7.774 21.260 7.612 21.367 C 7.372 21.526,7.267 21.721,7.267 22.007 C 7.267 22.203,7.286 22.270,7.383 22.408 C 7.447 22.499,7.572 22.610,7.660 22.656 C 7.819 22.739,7.851 22.740,11.879 22.751 C 14.744 22.759,16.001 22.749,16.153 22.717 C 16.902 22.562,16.930 21.473,16.189 21.286 C 16.064 21.255,15.479 21.240,14.382 21.240 L 12.760 21.240 12.760 19.506 L 12.760 17.772 15.510 17.748 C 17.023 17.735,18.512 17.704,18.820 17.680 C 21.414 17.477,22.479 16.412,22.679 13.820 C 22.746 12.957,22.773 9.430,22.725 7.780 C 22.669 5.860,22.569 5.017,22.302 4.221 C 21.886 2.984,21.016 2.114,19.779 1.698 C 19.005 1.439,18.137 1.331,16.400 1.280 C 14.922 1.237,8.986 1.238,7.420 1.282 M17.340 2.801 C 18.245 2.860,18.701 2.931,19.200 3.089 C 20.137 3.386,20.657 3.927,20.939 4.901 C 21.186 5.754,21.240 6.620,21.240 9.769 L 21.240 12.240 11.997 12.240 L 2.753 12.240 2.771 9.370 C 2.789 6.519,2.807 6.084,2.942 5.380 C 3.141 4.340,3.561 3.674,4.234 3.327 C 4.874 2.998,5.506 2.868,6.860 2.786 C 7.412 2.753,16.813 2.766,17.340 2.801 M21.200 13.790 C 21.199 13.923,21.066 14.660,21.015 14.820 C 20.911 15.140,20.721 15.470,20.549 15.625 C 20.252 15.894,19.759 16.074,19.060 16.170 C 18.539 16.242,5.461 16.242,4.940 16.170 C 3.962 16.036,3.440 15.764,3.171 15.251 C 2.986 14.899,2.887 14.535,2.822 13.970 L 2.797 13.760 11.999 13.760 C 17.059 13.760,21.200 13.773,21.200 13.790 " stroke="none" fill-rule="evenodd" fill="black"></path></svg>