<svg width="24" height="24" viewBox="0 0 24 24" fill="none" xmlns="http://www.w3.org/2000/svg"><path d="M7.420 1.280 C 4.805 1.359,3.630 1.694,2.669 2.635 C 1.929 3.358,1.561 4.261,1.378 5.800 C 1.241 6.949,1.202 12.396,1.320 13.852 C 1.527 16.416,2.613 17.491,5.184 17.680 C 5.490 17.702,6.753 17.733,7.990 17.747 L 10.240 17.773 10.240 19.504 L 10.240 21.235 9.007 21.247 L 7.774 21.260 7.612 21.367 C 7.372 21.526,7.267 21.721,7.267 22.007 C 7.267 22.203,7.286 22.270,7.383 22.408 C 7.447 22.499,7.572 22.610,7.660 22.656 C 7.813 22.736,7.888 22.741,9.440 22.753 C 10.532 22.761,11.108 22.751,11.208 22.722 C 11.408 22.663,11.596 22.497,11.685 22.302 C 11.754 22.150,11.758 21.976,11.758 19.500 C 11.758 17.024,11.754 16.850,11.685 16.698 C 11.595 16.501,11.406 16.336,11.208 16.281 C 11.116 16.256,9.945 16.235,8.120 16.225 C 6.224 16.215,5.074 16.194,4.881 16.165 C 3.942 16.024,3.434 15.752,3.171 15.251 C 2.986 14.899,2.887 14.535,2.822 13.970 L 2.797 13.760 6.877 13.760 C 9.705 13.760,11.019 13.746,11.162 13.716 C 11.904 13.557,11.924 12.471,11.189 12.286 C 11.055 12.253,9.873 12.240,6.879 12.240 L 2.753 12.240 2.771 9.370 C 2.782 7.585,2.806 6.349,2.835 6.100 C 3.097 3.826,3.808 3.111,6.080 2.834 C 6.622 2.769,17.341 2.737,18.060 2.799 C 18.923 2.874,19.325 2.989,19.791 3.297 C 20.132 3.522,20.476 3.866,20.700 4.204 C 21.127 4.852,21.199 5.261,21.236 7.260 C 21.265 8.828,21.263 8.817,21.506 9.047 C 21.783 9.309,22.217 9.309,22.494 9.047 C 22.743 8.811,22.741 8.827,22.728 7.400 C 22.715 5.946,22.656 5.221,22.500 4.620 C 22.115 3.134,20.867 1.885,19.380 1.500 C 18.540 1.282,18.347 1.275,13.200 1.261 C 10.593 1.254,7.992 1.263,7.420 1.280 M16.520 10.282 C 15.739 10.314,15.443 10.357,14.992 10.504 C 14.102 10.796,13.553 11.481,13.360 12.540 C 13.201 13.416,13.201 19.584,13.360 20.460 C 13.553 21.519,14.102 22.205,14.992 22.496 C 15.473 22.653,15.663 22.676,16.870 22.725 C 18.054 22.773,20.014 22.725,20.480 22.638 C 21.719 22.404,22.413 21.704,22.640 20.460 C 22.798 19.590,22.798 13.413,22.640 12.540 C 22.412 11.289,21.711 10.588,20.460 10.360 C 19.912 10.261,17.967 10.222,16.520 10.282 M20.260 11.835 C 20.370 11.860,20.559 11.930,20.679 11.991 C 20.863 12.084,20.916 12.137,21.009 12.321 C 21.219 12.734,21.220 12.752,21.220 16.500 C 21.220 20.248,21.219 20.266,21.009 20.679 C 20.916 20.863,20.863 20.916,20.679 21.009 C 20.287 21.208,20.139 21.220,18.000 21.220 C 15.861 21.220,15.713 21.208,15.321 21.009 C 15.137 20.916,15.084 20.863,14.991 20.679 C 14.930 20.559,14.859 20.370,14.834 20.260 C 14.768 19.976,14.737 13.701,14.799 13.107 C 14.850 12.610,14.955 12.291,15.123 12.123 C 15.276 11.971,15.601 11.851,15.989 11.804 C 16.423 11.752,20.005 11.778,20.260 11.835 M16.815 19.278 C 16.331 19.393,16.098 20.004,16.383 20.408 C 16.605 20.722,16.676 20.738,17.869 20.753 C 19.122 20.768,19.296 20.744,19.519 20.521 C 19.918 20.122,19.731 19.423,19.189 19.286 C 18.983 19.235,17.025 19.228,16.815 19.278 " stroke="none" fill-rule="evenodd" fill="black"></path></svg>