<svg width="24" height="24" viewBox="0 0 24 24" fill="none" xmlns="http://www.w3.org/2000/svg"><path d="M7.300 1.281 C 5.358 1.333,4.520 1.477,3.669 1.905 C 3.261 2.110,3.065 2.251,2.706 2.597 C 1.921 3.353,1.524 4.264,1.363 5.680 C 1.241 6.750,1.211 12.502,1.320 13.852 C 1.526 16.408,2.608 17.485,5.165 17.680 C 5.459 17.703,6.947 17.733,8.470 17.747 L 11.240 17.772 11.240 19.504 L 11.240 21.236 9.507 21.248 L 7.774 21.260 7.612 21.367 C 7.372 21.526,7.267 21.721,7.267 22.007 C 7.267 22.203,7.286 22.270,7.383 22.408 C 7.447 22.499,7.572 22.610,7.660 22.656 C 7.819 22.739,7.851 22.740,11.879 22.751 C 14.744 22.759,16.001 22.749,16.153 22.717 C 16.902 22.562,16.930 21.473,16.189 21.286 C 16.064 21.255,15.479 21.240,14.382 21.240 L 12.760 21.240 12.760 19.506 L 12.760 17.772 15.510 17.748 C 17.023 17.735,18.512 17.704,18.820 17.680 C 21.421 17.477,22.485 16.406,22.679 13.800 C 22.749 12.867,22.777 10.137,22.721 9.863 C 22.580 9.184,21.722 9.038,21.353 9.631 C 21.262 9.777,21.260 9.804,21.247 11.010 L 21.235 12.240 11.997 12.240 L 2.760 12.240 2.761 9.710 C 2.761 6.367,2.814 5.510,3.064 4.764 C 3.212 4.323,3.346 4.098,3.653 3.773 C 4.080 3.322,4.479 3.106,5.158 2.959 C 5.761 2.828,6.303 2.792,8.020 2.764 C 9.852 2.735,9.814 2.740,10.047 2.494 C 10.181 2.353,10.240 2.201,10.240 2.000 C 10.240 1.717,10.088 1.473,9.820 1.328 C 9.672 1.248,8.989 1.235,7.300 1.281 M13.780 1.279 C 13.472 1.296,13.130 1.331,13.020 1.357 C 12.011 1.590,11.489 2.173,11.317 3.260 C 11.247 3.700,11.247 6.300,11.317 6.740 C 11.502 7.908,12.088 8.494,13.260 8.684 C 13.711 8.757,17.289 8.757,17.740 8.684 C 18.343 8.586,18.757 8.399,19.078 8.078 C 19.270 7.886,19.461 7.588,19.505 7.413 C 19.518 7.362,19.548 7.320,19.571 7.320 C 19.594 7.320,19.956 7.459,20.376 7.629 L 21.140 7.938 21.520 7.939 C 21.951 7.940,22.096 7.889,22.343 7.649 C 22.702 7.301,22.757 6.946,22.757 5.000 C 22.757 3.054,22.702 2.699,22.343 2.351 C 22.097 2.111,21.951 2.060,21.520 2.060 L 21.140 2.060 20.376 2.370 C 19.956 2.541,19.594 2.680,19.571 2.680 C 19.548 2.680,19.518 2.638,19.505 2.587 C 19.429 2.283,19.024 1.798,18.708 1.631 C 18.110 1.315,17.836 1.279,15.920 1.261 C 15.051 1.253,14.088 1.261,13.780 1.279 M17.775 2.836 C 17.860 2.864,17.972 2.928,18.022 2.979 C 18.205 3.162,18.220 3.311,18.220 5.000 C 18.220 6.690,18.205 6.838,18.022 7.022 C 17.832 7.211,17.723 7.220,15.500 7.220 C 13.278 7.220,13.168 7.211,12.979 7.022 C 12.804 6.848,12.788 6.701,12.770 5.190 C 12.746 3.057,12.785 2.911,13.408 2.803 C 13.745 2.746,17.587 2.774,17.775 2.836 M21.240 5.000 C 21.240 5.748,21.233 6.360,21.225 6.360 C 21.217 6.360,20.888 6.226,20.495 6.063 L 19.780 5.766 19.780 5.000 L 19.780 4.234 20.480 3.940 C 20.865 3.778,21.194 3.645,21.210 3.643 C 21.227 3.641,21.240 4.252,21.240 5.000 M21.200 13.790 C 21.199 13.923,21.066 14.660,21.015 14.820 C 20.911 15.140,20.721 15.470,20.549 15.625 C 20.252 15.894,19.759 16.074,19.060 16.170 C 18.539 16.242,5.461 16.242,4.940 16.170 C 3.962 16.036,3.440 15.764,3.171 15.251 C 2.986 14.899,2.887 14.535,2.822 13.970 L 2.797 13.760 11.999 13.760 C 17.059 13.760,21.200 13.773,21.200 13.790 " stroke="none" fill-rule="evenodd" fill="black"></path></svg>