<svg width="24" height="24" viewBox="0 0 24 24" fill="none" xmlns="http://www.w3.org/2000/svg"><path d="M11.560 1.264 C 7.853 1.459,4.652 3.370,2.761 6.520 C 1.391 8.802,0.938 11.606,1.504 14.293 C 1.726 15.346,2.197 16.540,2.761 17.480 C 4.496 20.369,7.368 22.244,10.700 22.662 C 11.387 22.749,12.613 22.749,13.300 22.662 C 16.536 22.256,19.365 20.457,21.107 17.700 C 22.119 16.098,22.693 14.183,22.730 12.280 C 22.740 11.759,22.736 11.732,22.628 11.512 C 22.335 10.915,21.573 10.688,20.935 11.007 C 20.718 11.115,20.545 11.303,20.200 11.803 C 19.392 12.975,18.070 13.840,16.620 14.144 C 16.108 14.252,14.892 14.252,14.380 14.144 C 12.370 13.722,10.753 12.321,10.083 10.422 C 9.831 9.707,9.785 9.421,9.782 8.540 C 9.780 7.902,9.795 7.667,9.856 7.380 C 10.021 6.591,10.371 5.790,10.830 5.147 C 11.149 4.700,11.749 4.109,12.197 3.800 C 12.405 3.657,12.650 3.472,12.742 3.390 C 13.114 3.056,13.243 2.415,13.031 1.953 C 12.773 1.393,12.404 1.220,11.560 1.264 M17.815 1.278 C 17.331 1.393,17.098 2.004,17.383 2.408 C 17.609 2.727,17.660 2.738,18.996 2.753 L 20.173 2.766 18.771 4.173 C 18.000 4.947,17.346 5.625,17.318 5.680 C 17.290 5.735,17.267 5.884,17.267 6.011 C 17.267 6.202,17.287 6.271,17.383 6.408 C 17.448 6.499,17.572 6.610,17.660 6.656 C 17.815 6.738,17.880 6.740,19.875 6.752 C 22.208 6.765,22.281 6.759,22.519 6.521 C 22.918 6.122,22.731 5.423,22.189 5.286 C 22.071 5.257,21.608 5.240,20.914 5.240 L 19.823 5.240 21.247 3.810 C 22.599 2.452,22.673 2.370,22.711 2.190 C 22.799 1.768,22.577 1.384,22.189 1.286 C 21.980 1.234,18.031 1.226,17.815 1.278 M10.820 2.966 C 10.710 3.058,10.479 3.278,10.306 3.456 C 7.555 6.292,7.587 10.831,10.378 13.622 C 12.316 15.560,15.187 16.233,17.800 15.362 C 19.036 14.950,20.216 14.155,21.036 13.180 L 21.204 12.980 21.179 13.180 C 20.969 14.808,20.253 16.491,19.221 17.780 C 18.916 18.162,18.208 18.872,17.820 19.187 C 16.457 20.290,14.733 21.009,12.992 21.198 C 12.493 21.252,11.507 21.252,11.008 21.198 C 9.291 21.011,7.575 20.303,6.220 19.222 C 5.836 18.915,5.124 18.206,4.812 17.820 C 3.706 16.448,2.991 14.732,2.802 12.992 C 2.748 12.493,2.748 11.507,2.802 11.008 C 3.246 6.923,6.375 3.585,10.420 2.883 C 11.052 2.773,11.053 2.773,10.820 2.966 M13.420 7.259 C 13.398 7.267,13.331 7.284,13.271 7.297 C 13.124 7.329,12.881 7.548,12.814 7.708 C 12.703 7.973,12.759 8.289,12.953 8.494 C 13.163 8.716,13.245 8.736,13.974 8.753 L 14.648 8.768 13.765 9.657 C 13.211 10.214,12.859 10.600,12.821 10.691 C 12.746 10.872,12.743 11.121,12.814 11.292 C 12.879 11.447,13.119 11.667,13.271 11.709 C 13.413 11.749,16.587 11.749,16.729 11.709 C 16.881 11.667,17.121 11.447,17.186 11.292 C 17.297 11.027,17.241 10.711,17.047 10.506 C 16.837 10.285,16.755 10.264,16.027 10.247 L 15.353 10.232 16.237 9.340 C 16.778 8.794,17.143 8.394,17.180 8.306 C 17.297 8.027,17.245 7.715,17.047 7.506 C 16.810 7.255,16.854 7.261,15.080 7.252 C 14.189 7.248,13.442 7.251,13.420 7.259 " stroke="none" fill-rule="evenodd" fill="black"></path></svg>