<svg width="24" height="24" viewBox="0 0 24 24" fill="none" xmlns="http://www.w3.org/2000/svg"><path d="M11.560 1.264 C 9.726 1.361,7.999 1.874,6.520 2.761 C 3.628 4.498,1.758 7.364,1.337 10.707 C 1.252 11.386,1.252 12.616,1.337 13.296 C 1.418 13.935,1.620 14.886,1.748 15.225 C 1.757 15.250,1.700 15.311,1.620 15.360 C 1.385 15.505,1.267 15.721,1.267 16.003 C 1.267 16.203,1.286 16.270,1.383 16.408 C 1.448 16.499,1.572 16.610,1.660 16.656 L 1.820 16.740 11.880 16.751 C 19.099 16.758,22.000 16.749,22.154 16.717 C 22.727 16.599,22.933 15.893,22.516 15.476 C 22.430 15.390,22.333 15.320,22.300 15.320 C 22.224 15.320,22.224 15.321,22.319 15.004 C 22.553 14.216,22.712 13.160,22.730 12.280 C 22.740 11.759,22.736 11.732,22.628 11.512 C 22.335 10.915,21.573 10.688,20.935 11.007 C 20.718 11.115,20.545 11.303,20.200 11.803 C 19.392 12.975,18.070 13.840,16.620 14.144 C 16.108 14.252,14.892 14.252,14.380 14.144 C 12.370 13.722,10.753 12.321,10.083 10.422 C 9.831 9.707,9.785 9.421,9.782 8.540 C 9.780 7.902,9.795 7.667,9.856 7.380 C 10.021 6.591,10.371 5.790,10.830 5.147 C 11.149 4.700,11.749 4.109,12.197 3.800 C 12.405 3.657,12.650 3.472,12.742 3.390 C 13.114 3.056,13.243 2.415,13.031 1.953 C 12.773 1.393,12.404 1.220,11.560 1.264 M19.007 1.624 C 18.892 1.681,18.753 1.787,18.699 1.858 C 18.644 1.930,18.487 2.264,18.350 2.602 L 18.100 3.214 17.500 3.459 C 16.813 3.738,16.727 3.788,16.586 3.992 C 16.357 4.322,16.356 4.774,16.583 5.118 C 16.725 5.332,16.806 5.380,17.500 5.660 L 18.100 5.902 18.350 6.517 C 18.487 6.855,18.644 7.190,18.699 7.262 C 18.933 7.569,19.498 7.695,19.859 7.520 C 20.162 7.374,20.273 7.213,20.542 6.533 L 20.791 5.903 21.399 5.662 C 21.768 5.515,22.067 5.369,22.159 5.291 C 22.595 4.923,22.595 4.196,22.159 3.829 C 22.068 3.752,21.760 3.601,21.398 3.456 L 20.789 3.212 20.541 2.585 C 20.273 1.907,20.152 1.732,19.860 1.596 C 19.618 1.484,19.266 1.495,19.007 1.624 M19.663 3.061 C 19.898 3.664,19.964 3.793,20.111 3.932 C 20.221 4.037,20.614 4.224,21.190 4.444 C 21.328 4.497,21.440 4.549,21.440 4.560 C 21.440 4.571,21.328 4.623,21.190 4.676 C 20.614 4.896,20.221 5.083,20.111 5.188 C 19.966 5.326,19.863 5.528,19.640 6.112 C 19.545 6.360,19.455 6.549,19.440 6.532 C 19.425 6.514,19.334 6.302,19.240 6.060 C 18.885 5.155,18.864 5.133,18.027 4.803 C 17.726 4.684,17.480 4.575,17.480 4.560 C 17.480 4.546,17.701 4.448,17.970 4.342 C 18.595 4.097,18.778 3.991,18.901 3.805 C 18.982 3.683,19.197 3.188,19.406 2.644 C 19.426 2.592,19.450 2.556,19.459 2.566 C 19.468 2.575,19.560 2.798,19.663 3.061 M10.820 2.966 C 10.710 3.058,10.479 3.278,10.306 3.456 C 7.555 6.292,7.587 10.831,10.378 13.622 C 10.973 14.217,11.759 14.765,12.480 15.087 L 12.820 15.239 8.071 15.239 L 3.323 15.240 3.180 14.790 C 2.895 13.893,2.760 12.995,2.760 12.000 C 2.760 10.540,3.061 9.235,3.699 7.934 C 5.001 5.275,7.513 3.388,10.420 2.883 C 11.052 2.773,11.053 2.773,10.820 2.966 M15.267 7.383 C 14.992 7.470,14.760 7.717,14.624 8.064 C 14.515 8.340,14.512 8.344,14.280 8.433 C 13.766 8.633,13.519 8.952,13.521 9.418 C 13.522 9.864,13.764 10.183,14.238 10.364 L 14.489 10.460 14.641 10.789 C 14.875 11.292,15.127 11.477,15.582 11.479 C 16.050 11.481,16.370 11.233,16.554 10.727 C 16.637 10.500,16.651 10.485,16.859 10.400 C 17.422 10.172,17.645 9.893,17.645 9.418 C 17.645 8.943,17.436 8.663,16.927 8.455 L 16.645 8.340 16.537 8.065 C 16.478 7.914,16.375 7.729,16.308 7.653 C 16.060 7.370,15.643 7.262,15.267 7.383 M15.989 9.084 C 16.056 9.141,16.230 9.238,16.377 9.300 L 16.642 9.413 16.368 9.528 C 15.967 9.695,15.801 9.884,15.621 10.380 C 15.597 10.445,15.568 10.409,15.462 10.180 C 15.293 9.817,15.181 9.703,14.832 9.542 L 14.546 9.409 14.845 9.271 C 15.194 9.110,15.353 8.941,15.483 8.591 L 15.572 8.355 15.719 8.668 C 15.800 8.840,15.921 9.028,15.989 9.084 M21.141 13.425 C 21.059 13.935,20.957 14.365,20.801 14.850 L 20.676 15.240 19.428 15.239 L 18.180 15.238 18.480 15.103 C 19.388 14.696,20.367 13.972,20.943 13.280 C 21.070 13.127,21.181 13.008,21.189 13.016 C 21.197 13.024,21.175 13.208,21.141 13.425 M4.815 18.278 C 4.331 18.393,4.098 19.004,4.383 19.408 C 4.447 19.499,4.572 19.610,4.660 19.656 L 4.820 19.740 11.880 19.751 C 16.920 19.758,19.001 19.749,19.154 19.717 C 19.902 19.562,19.929 18.473,19.189 18.286 C 18.978 18.233,5.035 18.225,4.815 18.278 M7.815 21.278 C 7.331 21.393,7.098 22.004,7.383 22.408 C 7.447 22.499,7.572 22.610,7.660 22.656 C 7.819 22.739,7.851 22.740,11.879 22.751 C 14.744 22.759,16.001 22.749,16.153 22.717 C 16.902 22.562,16.930 21.473,16.189 21.286 C 15.979 21.234,8.034 21.226,7.815 21.278 " stroke="none" fill-rule="evenodd" fill="black"></path></svg>