<svg width="24" height="24" viewBox="0 0 24 24" fill="none" xmlns="http://www.w3.org/2000/svg"><path d="M11.560 1.264 C 7.853 1.459,4.652 3.370,2.761 6.520 C 1.391 8.802,0.938 11.606,1.504 14.293 C 1.726 15.346,2.197 16.540,2.761 17.480 C 4.496 20.369,7.368 22.244,10.700 22.662 C 11.387 22.749,12.613 22.749,13.300 22.662 C 16.536 22.256,19.365 20.457,21.107 17.700 C 22.119 16.098,22.693 14.183,22.730 12.280 C 22.740 11.759,22.736 11.732,22.628 11.512 C 22.335 10.915,21.573 10.688,20.935 11.007 C 20.718 11.115,20.545 11.303,20.200 11.803 C 19.392 12.975,18.070 13.840,16.620 14.144 C 16.108 14.252,14.892 14.252,14.380 14.144 C 12.370 13.722,10.753 12.321,10.083 10.422 C 9.831 9.707,9.785 9.421,9.782 8.540 C 9.780 7.902,9.795 7.667,9.856 7.380 C 10.021 6.591,10.371 5.790,10.830 5.147 C 11.149 4.700,11.749 4.109,12.197 3.800 C 12.405 3.657,12.650 3.472,12.742 3.390 C 13.114 3.056,13.243 2.415,13.031 1.953 C 12.773 1.393,12.404 1.220,11.560 1.264 M19.007 1.624 C 18.892 1.681,18.753 1.787,18.699 1.858 C 18.644 1.930,18.487 2.264,18.350 2.602 L 18.100 3.214 17.500 3.459 C 16.813 3.738,16.727 3.788,16.586 3.992 C 16.357 4.322,16.356 4.774,16.583 5.118 C 16.725 5.332,16.806 5.380,17.500 5.660 L 18.100 5.902 18.350 6.517 C 18.487 6.855,18.644 7.190,18.699 7.262 C 18.933 7.569,19.498 7.695,19.859 7.520 C 20.162 7.374,20.273 7.213,20.542 6.533 L 20.791 5.903 21.399 5.662 C 21.768 5.515,22.067 5.369,22.159 5.291 C 22.595 4.923,22.595 4.196,22.159 3.829 C 22.068 3.752,21.760 3.601,21.398 3.456 L 20.789 3.212 20.541 2.585 C 20.273 1.907,20.152 1.732,19.860 1.596 C 19.618 1.484,19.266 1.495,19.007 1.624 M19.663 3.061 C 19.898 3.664,19.964 3.793,20.111 3.932 C 20.221 4.037,20.614 4.224,21.190 4.444 C 21.328 4.497,21.440 4.549,21.440 4.560 C 21.440 4.571,21.328 4.623,21.190 4.676 C 20.614 4.896,20.221 5.083,20.111 5.188 C 19.966 5.326,19.863 5.528,19.640 6.112 C 19.545 6.360,19.455 6.549,19.440 6.532 C 19.425 6.514,19.334 6.302,19.240 6.060 C 18.885 5.155,18.864 5.133,18.027 4.803 C 17.726 4.684,17.480 4.575,17.480 4.560 C 17.480 4.546,17.701 4.448,17.970 4.342 C 18.595 4.097,18.778 3.991,18.901 3.805 C 18.982 3.683,19.197 3.188,19.406 2.644 C 19.426 2.592,19.450 2.556,19.459 2.566 C 19.468 2.575,19.560 2.798,19.663 3.061 M10.820 2.966 C 10.710 3.058,10.479 3.278,10.306 3.456 C 7.555 6.292,7.587 10.831,10.378 13.622 C 12.316 15.560,15.187 16.233,17.800 15.362 C 19.036 14.950,20.216 14.155,21.036 13.180 L 21.204 12.980 21.179 13.180 C 20.969 14.808,20.253 16.491,19.221 17.780 C 18.916 18.162,18.208 18.872,17.820 19.187 C 16.457 20.290,14.733 21.009,12.992 21.198 C 12.493 21.252,11.507 21.252,11.008 21.198 C 9.291 21.011,7.575 20.303,6.220 19.222 C 5.836 18.915,5.124 18.206,4.812 17.820 C 3.706 16.448,2.991 14.732,2.802 12.992 C 2.748 12.493,2.748 11.507,2.802 11.008 C 3.246 6.923,6.375 3.585,10.420 2.883 C 11.052 2.773,11.053 2.773,10.820 2.966 M15.267 7.383 C 14.992 7.470,14.760 7.717,14.624 8.064 C 14.515 8.340,14.512 8.344,14.280 8.433 C 13.766 8.633,13.519 8.952,13.521 9.418 C 13.522 9.864,13.764 10.183,14.238 10.364 L 14.489 10.460 14.641 10.789 C 14.875 11.292,15.127 11.477,15.582 11.479 C 16.050 11.481,16.370 11.233,16.554 10.727 C 16.637 10.500,16.651 10.485,16.859 10.400 C 17.422 10.172,17.645 9.893,17.645 9.418 C 17.645 8.943,17.436 8.663,16.927 8.455 L 16.645 8.340 16.537 8.065 C 16.478 7.914,16.375 7.729,16.308 7.653 C 16.060 7.370,15.643 7.262,15.267 7.383 M15.989 9.084 C 16.056 9.141,16.230 9.238,16.377 9.300 L 16.642 9.413 16.368 9.528 C 15.967 9.695,15.801 9.884,15.621 10.380 C 15.597 10.445,15.568 10.409,15.462 10.180 C 15.293 9.817,15.181 9.703,14.832 9.542 L 14.546 9.409 14.845 9.271 C 15.194 9.110,15.353 8.941,15.483 8.591 L 15.572 8.355 15.719 8.668 C 15.800 8.840,15.921 9.028,15.989 9.084 " stroke="none" fill-rule="evenodd" fill="black"></path></svg>