<svg width="24" height="24" viewBox="0 0 24 24" fill="none" xmlns="http://www.w3.org/2000/svg"><path d="M11.310 1.280 C 8.537 1.459,5.969 2.687,4.086 4.735 C 2.588 6.364,1.666 8.335,1.334 10.620 C 1.238 11.284,1.238 12.716,1.334 13.380 C 1.666 15.668,2.587 17.636,4.092 19.272 C 5.805 21.134,8.026 22.289,10.620 22.666 C 11.284 22.762,12.716 22.762,13.380 22.666 C 16.573 22.202,19.227 20.538,20.981 17.900 C 22.068 16.265,22.721 14.181,22.735 12.300 C 22.738 11.805,22.727 11.674,22.669 11.549 C 22.479 11.142,22.033 10.868,21.560 10.868 C 21.019 10.868,20.678 11.082,20.298 11.658 C 19.446 12.948,18.157 13.815,16.600 14.147 C 16.118 14.250,14.881 14.250,14.400 14.148 C 13.884 14.038,13.262 13.818,12.845 13.598 C 11.341 12.806,10.285 11.430,9.888 9.744 C 9.795 9.346,9.784 9.220,9.784 8.520 C 9.783 7.857,9.797 7.677,9.874 7.322 C 10.199 5.825,11.081 4.531,12.345 3.698 C 12.876 3.348,13.076 3.062,13.145 2.553 C 13.180 2.290,13.047 1.869,12.857 1.647 C 12.555 1.294,12.243 1.220,11.310 1.280 M11.000 2.813 C 11.000 2.820,10.880 2.924,10.733 3.043 C 10.122 3.538,9.382 4.508,8.979 5.340 C 8.011 7.342,8.010 9.663,8.977 11.660 C 9.953 13.673,11.844 15.148,14.029 15.599 C 16.280 16.063,18.617 15.429,20.340 13.888 C 20.560 13.691,20.839 13.412,20.960 13.268 C 21.080 13.124,21.182 13.009,21.186 13.013 C 21.213 13.042,21.050 13.920,20.936 14.360 C 20.272 16.917,18.471 19.121,16.100 20.281 C 15.184 20.729,14.406 20.980,13.407 21.148 C 12.800 21.250,11.200 21.250,10.593 21.148 C 9.594 20.980,8.816 20.729,7.900 20.281 C 6.987 19.835,6.271 19.324,5.526 18.589 C 4.075 17.156,3.164 15.374,2.852 13.360 C 2.753 12.718,2.753 11.282,2.852 10.640 C 3.162 8.637,4.077 6.843,5.506 5.431 C 7.000 3.957,8.809 3.087,10.970 2.804 C 10.987 2.802,11.000 2.806,11.000 2.813 " fill="#1C274C" stroke="none" fill-rule="evenodd"></path></svg>