<svg width="24" height="24" viewBox="0 0 24 24" fill="none" xmlns="http://www.w3.org/2000/svg"><path d="M9.996 1.281 C 9.644 1.335,9.021 1.502,8.511 1.678 C 6.128 2.500,4.096 4.159,2.788 6.352 C 0.598 10.022,0.773 14.659,3.235 18.180 C 4.778 20.387,7.149 21.952,9.804 22.516 C 11.148 22.802,12.852 22.802,14.196 22.516 C 16.041 22.124,17.756 21.250,19.169 19.982 C 20.718 18.592,21.869 16.697,22.383 14.690 C 23.153 11.685,22.659 8.569,21.009 6.020 C 20.155 4.702,18.948 3.511,17.656 2.712 C 16.905 2.248,16.611 2.109,16.381 2.109 C 16.104 2.109,15.854 2.244,15.732 2.460 C 15.556 2.770,15.643 3.247,15.909 3.430 C 15.970 3.472,16.182 3.593,16.380 3.699 C 18.022 4.576,19.410 6.016,20.256 7.720 C 20.705 8.627,20.985 9.492,21.149 10.484 C 21.257 11.136,21.246 12.773,21.130 13.440 C 20.705 15.876,19.436 17.965,17.497 19.420 C 16.314 20.307,14.970 20.876,13.420 21.147 C 12.850 21.247,11.150 21.247,10.580 21.147 C 9.010 20.873,7.695 20.312,6.460 19.389 C 5.959 19.014,5.173 18.252,4.800 17.780 C 3.667 16.347,2.982 14.663,2.798 12.863 C 2.738 12.272,2.769 10.964,2.856 10.458 C 3.188 8.518,4.027 6.822,5.330 5.458 C 6.538 4.192,8.088 3.284,9.764 2.859 C 10.373 2.705,10.628 2.738,10.914 3.012 C 11.203 3.290,11.219 3.356,11.233 4.385 L 11.245 5.311 10.937 5.379 C 9.364 5.729,8.038 6.929,7.508 8.480 C 7.265 9.190,7.260 9.267,7.260 12.000 C 7.260 14.258,7.267 14.535,7.333 14.860 C 7.673 16.543,8.787 17.860,10.376 18.457 C 11.340 18.820,12.660 18.820,13.624 18.457 C 15.213 17.860,16.327 16.543,16.667 14.860 C 16.733 14.535,16.740 14.258,16.740 12.000 C 16.740 9.267,16.735 9.190,16.492 8.480 C 15.963 6.932,14.635 5.729,13.071 5.381 L 12.771 5.314 12.750 4.367 C 12.731 3.521,12.719 3.386,12.633 3.099 C 12.497 2.642,12.274 2.267,11.943 1.938 C 11.410 1.408,10.707 1.171,9.996 1.281 M11.240 8.040 L 11.240 9.240 10.040 9.240 C 9.305 9.240,8.840 9.225,8.840 9.202 C 8.840 9.112,9.036 8.634,9.178 8.378 C 9.386 8.003,10.003 7.386,10.378 7.178 C 10.648 7.029,11.088 6.846,11.190 6.842 C 11.229 6.840,11.240 7.106,11.240 8.040 M13.090 6.932 C 13.230 6.983,13.469 7.094,13.622 7.178 C 13.997 7.386,14.614 8.003,14.822 8.378 C 14.964 8.634,15.160 9.112,15.160 9.202 C 15.160 9.225,14.695 9.240,13.960 9.240 L 12.760 9.240 12.760 8.040 C 12.760 7.305,12.775 6.840,12.798 6.840 C 12.819 6.840,12.951 6.881,13.090 6.932 M15.231 12.710 L 15.219 14.660 15.110 14.980 C 14.926 15.517,14.711 15.857,14.284 16.284 C 13.857 16.712,13.515 16.928,12.980 17.108 C 12.684 17.209,12.611 17.217,12.000 17.217 C 11.389 17.217,11.316 17.209,11.020 17.108 C 10.485 16.928,10.143 16.712,9.716 16.284 C 9.289 15.857,9.074 15.517,8.890 14.980 L 8.781 14.660 8.769 12.710 L 8.756 10.760 12.000 10.760 L 15.244 10.760 15.231 12.710 " stroke="none" fill-rule="evenodd" fill="black"></path></svg>