<svg width="24" height="24" viewBox="0 0 24 24" fill="none" xmlns="http://www.w3.org/2000/svg"><path d="M11.363 1.282 C 9.892 1.400,8.299 2.028,7.180 2.932 C 6.871 3.181,6.259 3.789,6.002 4.100 C 5.013 5.299,4.403 6.840,4.281 8.440 C 4.228 9.138,4.228 14.805,4.281 15.539 C 4.458 17.999,5.733 20.153,7.820 21.518 C 10.024 22.960,12.988 23.135,15.380 21.963 C 16.185 21.569,16.745 21.174,17.394 20.543 C 18.778 19.197,19.580 17.473,19.719 15.539 C 19.771 14.813,19.771 9.187,19.719 8.461 C 19.645 7.440,19.397 6.506,18.963 5.620 C 18.569 4.815,18.174 4.255,17.543 3.606 C 15.923 1.940,13.680 1.096,11.363 1.282 M12.900 2.817 C 13.756 2.948,14.494 3.215,15.260 3.672 C 16.029 4.130,16.872 4.973,17.328 5.740 C 17.785 6.508,18.052 7.244,18.183 8.100 C 18.264 8.626,18.264 15.374,18.183 15.900 C 18.052 16.756,17.785 17.492,17.328 18.260 C 16.872 19.027,16.029 19.870,15.260 20.328 C 14.212 20.953,13.189 21.239,12.000 21.239 C 10.811 21.239,9.788 20.953,8.740 20.328 C 7.971 19.870,7.128 19.027,6.672 18.260 C 6.338 17.700,6.084 17.098,5.938 16.520 C 5.768 15.848,5.761 15.692,5.761 12.000 C 5.761 8.308,5.768 8.152,5.938 7.480 C 6.142 6.675,6.532 5.872,7.044 5.200 C 7.311 4.850,7.917 4.249,8.260 3.993 C 9.066 3.394,10.052 2.981,11.060 2.820 C 11.494 2.751,12.460 2.749,12.900 2.817 M11.815 4.277 C 11.638 4.321,11.461 4.456,11.353 4.631 L 11.260 4.780 11.260 6.500 L 11.260 8.220 11.353 8.369 C 11.710 8.943,12.576 8.812,12.716 8.162 C 12.773 7.894,12.774 5.090,12.717 4.841 C 12.623 4.432,12.215 4.177,11.815 4.277 " stroke="none" fill-rule="evenodd" fill="black"></path></svg>