<svg width="24" height="24" viewBox="0 0 24 24" fill="none" xmlns="http://www.w3.org/2000/svg"><path d="M11.363 1.282 C 9.892 1.400,8.299 2.028,7.180 2.932 C 6.871 3.181,6.259 3.789,6.002 4.100 C 5.013 5.299,4.403 6.840,4.281 8.440 C 4.228 9.138,4.228 14.805,4.281 15.539 C 4.458 17.999,5.733 20.153,7.820 21.518 C 10.024 22.960,12.988 23.135,15.380 21.963 C 16.185 21.569,16.745 21.174,17.394 20.543 C 18.778 19.197,19.580 17.473,19.719 15.539 C 19.771 14.813,19.771 9.187,19.719 8.461 C 19.645 7.440,19.397 6.506,18.963 5.620 C 18.569 4.815,18.174 4.255,17.543 3.606 C 15.923 1.940,13.680 1.096,11.363 1.282 M11.238 4.590 L 11.236 6.380 11.008 6.489 C 10.434 6.762,9.968 7.343,9.820 7.969 C 9.735 8.330,9.735 10.670,9.820 11.030 C 9.991 11.753,10.609 12.420,11.317 12.644 C 11.684 12.760,12.316 12.760,12.683 12.644 C 13.391 12.420,14.009 11.753,14.180 11.030 C 14.225 10.837,14.239 10.489,14.239 9.500 C 14.239 8.085,14.218 7.912,13.995 7.470 C 13.823 7.128,13.342 6.652,13.012 6.497 L 12.764 6.380 12.762 4.588 L 12.760 2.795 12.950 2.821 C 13.674 2.922,14.532 3.238,15.260 3.672 C 16.029 4.130,16.872 4.973,17.328 5.740 C 17.785 6.508,18.052 7.244,18.183 8.100 C 18.264 8.626,18.264 15.374,18.183 15.900 C 18.052 16.756,17.785 17.492,17.328 18.260 C 16.872 19.027,16.029 19.870,15.260 20.328 C 14.212 20.953,13.189 21.239,12.000 21.239 C 10.811 21.239,9.788 20.953,8.740 20.328 C 7.971 19.870,7.128 19.027,6.672 18.260 C 6.338 17.700,6.084 17.098,5.938 16.520 C 5.768 15.848,5.761 15.692,5.761 12.000 C 5.761 9.191,5.773 8.386,5.817 8.100 C 6.031 6.704,6.640 5.516,7.646 4.536 C 8.188 4.008,8.586 3.726,9.269 3.384 C 9.814 3.112,10.701 2.842,11.170 2.805 C 11.236 2.800,11.240 2.909,11.238 4.590 M12.388 7.865 C 12.447 7.909,12.550 8.013,12.618 8.096 L 12.740 8.247 12.740 9.500 L 12.740 10.753 12.618 10.904 C 12.401 11.171,12.306 11.220,12.000 11.220 C 11.694 11.220,11.599 11.171,11.382 10.904 L 11.260 10.753 11.260 9.506 L 11.260 8.260 11.359 8.120 C 11.477 7.952,11.541 7.895,11.700 7.817 C 11.868 7.735,12.250 7.762,12.388 7.865 " stroke="none" fill-rule="evenodd" fill="black"></path></svg>