<svg width="24" height="24" viewBox="0 0 24 24" fill="none" xmlns="http://www.w3.org/2000/svg"><path d="M8.126 3.850 C 7.958 3.941,2.934 8.581,2.492 9.054 C 1.814 9.779,1.370 10.784,1.282 11.794 C 1.168 13.108,1.602 14.382,2.491 15.342 C 2.811 15.687,7.894 20.024,8.127 20.150 C 8.328 20.259,8.562 20.265,8.780 20.165 C 8.970 20.077,9.056 19.988,9.138 19.790 C 9.220 19.595,9.216 19.357,9.130 19.175 C 9.078 19.066,8.386 18.453,6.420 16.778 C 4.968 15.541,3.696 14.441,3.594 14.334 C 3.208 13.932,2.896 13.307,2.797 12.741 C 2.724 12.322,2.769 11.650,2.896 11.260 C 3.031 10.842,3.267 10.425,3.528 10.139 C 3.643 10.013,4.936 8.797,6.400 7.437 C 8.170 5.794,9.086 4.916,9.131 4.821 C 9.258 4.556,9.182 4.136,8.974 3.952 C 8.749 3.751,8.388 3.708,8.126 3.850 M12.177 3.954 C 11.761 4.108,11.677 4.178,8.660 6.855 C 5.817 9.378,5.003 10.162,4.688 10.677 C 4.376 11.187,4.300 11.446,4.300 12.000 C 4.300 12.375,4.317 12.509,4.391 12.723 C 4.564 13.222,4.842 13.608,5.517 14.284 C 6.111 14.880,10.857 19.127,11.492 19.631 C 11.942 19.988,12.191 20.098,12.560 20.099 C 12.819 20.100,12.889 20.084,13.074 19.981 C 13.659 19.657,13.754 19.263,13.758 17.146 L 13.760 16.192 14.010 16.218 C 15.235 16.345,16.233 16.588,17.266 17.012 C 19.120 17.773,20.444 18.825,21.235 20.167 C 21.348 20.358,21.490 20.550,21.550 20.593 C 21.927 20.861,22.438 20.747,22.650 20.347 C 22.732 20.192,22.737 20.133,22.729 19.520 C 22.683 16.278,21.927 13.618,20.466 11.561 C 20.057 10.986,19.132 10.040,18.580 9.634 C 17.301 8.693,15.812 8.106,14.200 7.908 L 13.780 7.857 13.754 6.477 C 13.727 4.988,13.698 4.754,13.498 4.412 C 13.244 3.979,12.657 3.775,12.177 3.954 M12.248 7.250 C 12.258 8.584,12.268 8.795,12.326 8.900 C 12.485 9.187,12.745 9.320,13.149 9.320 C 13.513 9.320,14.337 9.420,14.780 9.517 C 15.701 9.720,16.799 10.199,17.519 10.710 C 18.009 11.059,18.760 11.787,19.134 12.275 C 19.891 13.266,20.463 14.506,20.800 15.888 C 20.917 16.367,21.139 17.595,21.113 17.621 C 21.105 17.628,20.937 17.500,20.739 17.336 C 18.857 15.772,16.290 14.842,13.458 14.696 C 12.882 14.666,12.723 14.695,12.518 14.868 C 12.258 15.086,12.261 15.066,12.248 16.753 C 12.241 17.600,12.220 18.280,12.201 18.273 C 12.102 18.237,7.171 13.814,6.636 13.281 C 5.473 12.123,5.471 11.881,6.617 10.737 C 7.162 10.192,12.141 5.726,12.208 5.722 C 12.223 5.721,12.241 6.409,12.248 7.250 " stroke="none" fill-rule="evenodd" fill="black"></path></svg>