<svg width="24" height="24" viewBox="0 0 24 24" fill="none" xmlns="http://www.w3.org/2000/svg"><path d="M15.220 3.835 C 15.030 3.923,14.944 4.012,14.862 4.210 C 14.781 4.403,14.783 4.643,14.868 4.821 C 14.914 4.915,15.849 5.811,17.638 7.473 C 19.124 8.854,20.424 10.081,20.526 10.202 C 20.757 10.473,21.005 10.931,21.120 11.300 C 21.230 11.652,21.270 12.353,21.203 12.741 C 21.094 13.364,20.744 14.014,20.275 14.465 C 20.135 14.599,18.877 15.681,17.480 16.869 C 15.587 18.478,14.922 19.066,14.870 19.175 C 14.738 19.452,14.810 19.852,15.027 20.048 C 15.248 20.248,15.612 20.292,15.873 20.150 C 16.105 20.024,21.190 15.685,21.509 15.341 C 22.093 14.711,22.498 13.906,22.665 13.044 C 22.738 12.665,22.746 11.882,22.681 11.461 C 22.577 10.784,22.241 9.997,21.811 9.419 C 21.528 9.039,21.404 8.920,18.388 6.120 C 17.096 4.921,15.965 3.900,15.874 3.850 C 15.672 3.741,15.438 3.735,15.220 3.835 M11.135 3.921 C 10.919 3.988,10.627 4.212,10.512 4.400 C 10.303 4.743,10.273 4.971,10.246 6.477 L 10.220 7.857 9.800 7.908 C 8.188 8.106,6.699 8.693,5.420 9.634 C 4.868 10.040,3.943 10.986,3.534 11.561 C 2.331 13.255,1.620 15.315,1.358 17.860 C 1.286 18.570,1.243 19.963,1.287 20.174 C 1.370 20.563,1.788 20.820,2.171 20.717 C 2.431 20.647,2.543 20.543,2.765 20.167 C 3.460 18.989,4.555 18.041,6.060 17.316 C 7.355 16.693,8.502 16.372,9.990 16.218 L 10.240 16.192 10.242 17.146 C 10.246 19.263,10.341 19.657,10.926 19.981 C 11.111 20.084,11.181 20.100,11.440 20.099 C 11.809 20.098,12.058 19.988,12.508 19.631 C 13.143 19.127,17.889 14.880,18.483 14.284 C 19.158 13.608,19.436 13.222,19.609 12.723 C 19.683 12.509,19.700 12.375,19.700 12.000 C 19.700 11.446,19.624 11.188,19.313 10.677 C 19.001 10.165,18.199 9.394,15.335 6.851 C 12.566 4.392,12.314 4.180,11.974 4.019 C 11.720 3.899,11.348 3.855,11.135 3.921 M14.287 7.919 C 15.636 9.118,17.021 10.378,17.364 10.719 C 18.532 11.882,18.532 12.118,17.364 13.281 C 16.832 13.810,11.898 18.236,11.799 18.273 C 11.780 18.280,11.759 17.596,11.752 16.753 C 11.739 15.066,11.742 15.086,11.482 14.868 C 11.277 14.695,11.118 14.666,10.542 14.696 C 7.710 14.842,5.143 15.772,3.261 17.336 C 3.063 17.500,2.895 17.628,2.887 17.621 C 2.861 17.595,3.083 16.367,3.200 15.888 C 4.116 12.135,6.594 9.791,10.080 9.379 C 10.355 9.347,10.702 9.320,10.851 9.320 C 11.255 9.320,11.515 9.187,11.674 8.900 C 11.732 8.795,11.742 8.583,11.752 7.247 C 11.759 6.404,11.780 5.720,11.799 5.727 C 11.818 5.734,12.937 6.721,14.287 7.919 " stroke="none" fill-rule="evenodd" fill="black"></path></svg>