<svg width="24" height="24" viewBox="0 0 24 24" fill="none" xmlns="http://www.w3.org/2000/svg"><path d="M9.060 1.279 C 7.725 1.323,7.168 1.401,6.519 1.638 C 5.618 1.967,5.001 2.565,4.674 3.424 L 4.550 3.749 4.236 3.773 C 3.330 3.843,2.478 4.304,1.934 5.018 C 1.525 5.555,1.337 6.058,1.278 6.775 C 1.230 7.355,1.230 16.645,1.278 17.225 C 1.321 17.739,1.395 18.026,1.586 18.422 C 2.013 19.304,2.858 19.966,3.807 20.162 C 4.012 20.204,4.262 20.239,4.363 20.239 L 4.546 20.240 4.672 20.570 C 5.081 21.647,5.908 22.289,7.234 22.559 C 7.966 22.708,8.698 22.735,12.000 22.735 C 15.301 22.736,16.024 22.709,16.772 22.557 C 18.090 22.290,18.919 21.645,19.328 20.570 L 19.454 20.240 19.637 20.239 C 19.738 20.239,19.988 20.204,20.193 20.162 C 21.142 19.966,21.987 19.304,22.414 18.422 C 22.608 18.021,22.681 17.731,22.722 17.203 C 22.769 16.600,22.769 7.400,22.722 6.797 C 22.681 6.269,22.608 5.979,22.414 5.578 C 22.107 4.943,21.568 4.402,20.940 4.099 C 20.519 3.895,20.199 3.807,19.764 3.773 L 19.450 3.749 19.326 3.424 C 18.832 2.126,17.755 1.473,15.852 1.320 C 15.187 1.266,10.351 1.237,9.060 1.279 M16.136 2.835 C 16.788 2.937,17.268 3.121,17.555 3.380 C 17.743 3.550,17.968 3.977,18.060 4.340 C 18.218 4.960,18.220 5.078,18.220 12.020 C 18.220 18.254,18.215 18.772,18.149 19.186 C 17.935 20.537,17.473 20.976,16.060 21.170 C 15.547 21.241,8.453 21.241,7.940 21.170 C 7.236 21.073,6.748 20.894,6.445 20.620 C 6.147 20.351,5.932 19.806,5.830 19.060 C 5.758 18.539,5.758 5.461,5.830 4.940 C 5.964 3.962,6.236 3.440,6.749 3.171 C 7.170 2.950,7.577 2.854,8.307 2.802 C 8.992 2.753,15.794 2.783,16.136 2.835 M4.291 5.550 C 4.250 5.906,4.251 18.099,4.292 18.456 L 4.323 18.731 4.142 18.706 C 3.944 18.679,3.619 18.529,3.403 18.364 C 3.187 18.200,2.929 17.819,2.840 17.532 C 2.762 17.277,2.760 17.168,2.760 12.000 C 2.760 6.832,2.762 6.723,2.840 6.468 C 2.929 6.181,3.187 5.800,3.403 5.636 C 3.665 5.436,4.001 5.290,4.211 5.283 L 4.322 5.280 4.291 5.550 M20.250 5.425 C 20.365 5.483,20.522 5.578,20.597 5.636 C 20.813 5.800,21.071 6.181,21.160 6.468 C 21.238 6.723,21.240 6.832,21.240 12.000 C 21.240 17.168,21.238 17.277,21.160 17.532 C 20.980 18.112,20.405 18.631,19.858 18.706 L 19.677 18.731 19.709 18.396 C 19.726 18.211,19.740 15.333,19.740 12.000 C 19.740 8.667,19.726 5.789,19.709 5.604 L 19.677 5.269 19.858 5.294 C 19.958 5.307,20.134 5.366,20.250 5.425 M14.620 6.919 C 14.386 6.978,14.053 7.131,13.030 7.647 C 11.855 8.239,11.653 8.391,11.440 8.847 C 11.267 9.217,11.242 9.507,11.241 11.094 C 11.240 12.445,11.236 12.527,11.170 12.498 C 10.403 12.169,9.381 12.198,8.720 12.568 C 7.781 13.094,7.269 13.953,7.269 15.000 C 7.269 16.047,7.781 16.906,8.720 17.432 C 9.434 17.832,10.566 17.832,11.280 17.432 C 11.955 17.054,12.436 16.464,12.644 15.760 C 12.728 15.476,12.733 15.369,12.750 13.795 L 12.767 12.131 13.094 12.109 C 13.498 12.081,13.631 12.028,14.974 11.351 C 16.146 10.760,16.347 10.607,16.568 10.135 C 16.822 9.593,16.821 8.383,16.567 7.869 C 16.499 7.732,16.389 7.554,16.322 7.474 C 16.156 7.274,15.795 7.043,15.511 6.954 C 15.267 6.878,14.845 6.862,14.620 6.919 M15.157 8.430 C 15.238 8.496,15.242 8.529,15.231 9.020 L 15.220 9.540 14.110 10.100 C 13.022 10.649,12.998 10.659,12.890 10.598 L 12.780 10.537 12.780 9.998 L 12.780 9.460 13.860 8.912 C 14.454 8.611,14.970 8.363,15.006 8.362 C 15.042 8.361,15.110 8.392,15.157 8.430 M10.454 13.841 C 10.744 13.950,11.050 14.256,11.159 14.546 C 11.335 15.017,11.227 15.521,10.874 15.874 C 10.381 16.368,9.619 16.368,9.126 15.874 C 8.847 15.596,8.746 15.325,8.769 14.920 C 8.790 14.567,8.876 14.373,9.124 14.125 C 9.397 13.853,9.597 13.769,9.988 13.763 C 10.148 13.761,10.315 13.789,10.454 13.841 " stroke="none" fill-rule="evenodd" fill="black"></path></svg>