<svg width="24" height="24" viewBox="0 0 24 24" fill="none" xmlns="http://www.w3.org/2000/svg"><path d="M13.592 2.522 C 12.716 2.643,11.910 3.240,11.523 4.055 C 11.258 4.612,11.268 4.398,11.251 9.708 L 11.235 14.517 11.007 14.331 C 10.139 13.624,9.140 13.273,8.000 13.273 C 5.981 13.273,4.259 14.474,3.540 16.384 C 3.181 17.339,3.182 18.664,3.543 19.624 C 4.042 20.951,5.051 21.958,6.384 22.460 C 7.335 22.818,8.665 22.818,9.616 22.460 C 11.180 21.871,12.275 20.609,12.648 18.964 C 12.734 18.583,12.735 18.539,12.749 13.900 L 12.763 9.220 14.812 10.242 C 17.168 11.417,17.370 11.497,18.000 11.494 C 18.495 11.492,18.817 11.418,19.228 11.212 C 19.979 10.836,20.491 10.182,20.662 9.380 C 20.763 8.906,20.766 6.981,20.667 6.581 C 20.505 5.933,20.108 5.359,19.573 5.000 C 19.132 4.704,15.220 2.761,14.799 2.629 C 14.411 2.507,13.980 2.469,13.592 2.522 M14.428 4.087 C 14.556 4.134,15.574 4.629,16.691 5.186 C 18.944 6.311,18.992 6.342,19.158 6.784 C 19.243 7.010,19.246 7.064,19.232 8.080 C 19.219 9.085,19.213 9.149,19.129 9.309 C 18.988 9.576,18.814 9.747,18.551 9.878 C 18.244 10.032,17.919 10.043,17.572 9.913 C 17.167 9.762,13.347 7.838,13.179 7.701 C 13.090 7.628,12.964 7.473,12.899 7.355 L 12.780 7.140 12.780 6.000 C 12.780 4.893,12.783 4.855,12.870 4.691 C 13.013 4.423,13.186 4.253,13.449 4.122 C 13.756 3.968,14.081 3.957,14.428 4.087 M8.980 14.894 C 9.508 15.068,9.854 15.286,10.284 15.716 C 10.712 16.143,10.928 16.485,11.108 17.020 C 11.209 17.316,11.217 17.389,11.217 18.000 C 11.217 18.611,11.209 18.684,11.108 18.980 C 10.928 19.515,10.712 19.857,10.284 20.284 C 9.857 20.712,9.515 20.928,8.980 21.108 C 8.684 21.209,8.611 21.217,8.000 21.217 C 7.389 21.217,7.316 21.209,7.020 21.108 C 6.485 20.928,6.143 20.712,5.716 20.284 C 5.288 19.857,5.072 19.515,4.892 18.980 C 4.791 18.684,4.783 18.611,4.783 18.000 C 4.783 17.389,4.791 17.316,4.892 17.020 C 5.072 16.485,5.288 16.143,5.716 15.716 C 6.433 14.999,7.066 14.750,8.100 14.775 C 8.572 14.787,8.710 14.806,8.980 14.894 " stroke="none" fill-rule="evenodd" fill="black"></path></svg>