<svg width="24" height="24" viewBox="0 0 24 24" fill="none" xmlns="http://www.w3.org/2000/svg"><path d="M6.700 1.316 C 6.506 1.405,6.384 1.532,6.302 1.729 C 6.248 1.858,6.240 2.254,6.240 4.810 L 6.240 7.743 5.890 7.573 C 5.697 7.479,5.405 7.373,5.240 7.338 C 4.854 7.255,4.149 7.255,3.767 7.337 C 2.617 7.585,1.585 8.614,1.337 9.760 C 1.253 10.150,1.253 10.850,1.337 11.240 C 1.585 12.386,2.617 13.415,3.767 13.663 C 4.146 13.745,4.854 13.745,5.233 13.663 C 5.829 13.535,6.431 13.178,6.884 12.687 C 7.192 12.353,7.355 12.090,7.575 11.570 L 7.740 11.180 7.751 8.092 L 7.762 5.004 7.940 5.124 C 8.551 5.537,9.643 5.824,10.174 5.712 C 10.435 5.658,10.657 5.439,10.711 5.184 C 10.825 4.649,10.455 4.240,9.858 4.240 C 9.418 4.240,8.749 3.932,8.371 3.555 C 7.972 3.158,7.763 2.660,7.760 2.100 C 7.757 1.707,7.591 1.436,7.271 1.302 C 7.076 1.221,6.897 1.225,6.700 1.316 M19.440 2.439 C 18.704 2.596,18.089 2.827,15.380 3.960 C 13.289 4.834,12.898 5.011,12.496 5.261 C 11.943 5.606,11.545 6.148,11.380 6.780 C 11.266 7.219,11.242 8.186,11.241 12.481 L 11.240 16.743 10.890 16.573 C 10.697 16.479,10.405 16.373,10.240 16.338 C 9.854 16.255,9.149 16.255,8.767 16.337 C 7.617 16.585,6.582 17.617,6.338 18.760 C 6.255 19.147,6.255 19.852,6.337 20.233 C 6.586 21.387,7.613 22.414,8.767 22.663 C 9.146 22.745,9.854 22.745,10.233 22.663 C 11.387 22.414,12.418 21.382,12.662 20.233 C 12.742 19.856,12.749 19.533,12.755 15.700 L 12.761 12.500 16.964 10.820 C 19.275 9.896,21.183 9.134,21.203 9.127 C 21.225 9.119,21.240 10.231,21.240 11.928 L 21.240 14.743 20.890 14.573 C 20.698 14.479,20.405 14.373,20.240 14.338 C 19.854 14.255,19.149 14.255,18.767 14.337 C 17.617 14.585,16.582 15.617,16.338 16.760 C 16.255 17.147,16.255 17.852,16.337 18.233 C 16.586 19.387,17.613 20.414,18.767 20.663 C 18.934 20.699,19.250 20.726,19.500 20.726 C 19.750 20.726,20.066 20.699,20.233 20.663 C 21.173 20.460,22.034 19.750,22.461 18.826 C 22.748 18.205,22.731 18.568,22.749 12.660 C 22.772 5.141,22.741 4.552,22.274 3.600 C 21.983 3.007,21.444 2.565,20.836 2.422 C 20.492 2.340,19.862 2.348,19.440 2.439 M20.582 3.915 C 20.806 4.017,20.945 4.199,21.039 4.513 C 21.172 4.955,21.205 5.290,21.227 6.420 L 21.248 7.500 17.041 9.180 C 14.727 10.104,12.816 10.866,12.794 10.874 C 12.769 10.883,12.760 10.247,12.769 9.054 C 12.785 7.001,12.784 7.003,13.072 6.708 C 13.331 6.442,13.469 6.378,16.340 5.181 C 18.416 4.315,19.224 4.009,19.709 3.905 C 20.087 3.823,20.388 3.827,20.582 3.915 M5.247 8.930 C 5.618 9.113,5.915 9.415,6.092 9.790 C 6.212 10.043,6.220 10.088,6.220 10.500 C 6.220 10.912,6.212 10.957,6.092 11.210 C 5.914 11.586,5.618 11.887,5.245 12.071 C 4.952 12.216,4.932 12.220,4.500 12.220 C 4.068 12.220,4.048 12.216,3.755 12.071 C 3.382 11.887,3.086 11.586,2.908 11.210 C 2.788 10.957,2.780 10.912,2.780 10.500 C 2.780 10.088,2.788 10.043,2.907 9.791 C 3.123 9.335,3.494 9.003,3.979 8.830 C 4.132 8.775,4.272 8.761,4.564 8.770 C 4.914 8.781,4.976 8.796,5.247 8.930 M20.247 15.930 C 20.618 16.113,20.915 16.415,21.092 16.790 C 21.212 17.043,21.220 17.088,21.220 17.500 C 21.220 17.912,21.212 17.957,21.092 18.210 C 20.914 18.586,20.618 18.887,20.245 19.071 C 19.952 19.216,19.932 19.220,19.500 19.220 C 19.068 19.220,19.048 19.216,18.755 19.071 C 18.382 18.887,18.086 18.586,17.908 18.210 C 17.788 17.957,17.780 17.912,17.780 17.500 C 17.780 17.088,17.788 17.043,17.907 16.791 C 18.123 16.335,18.494 16.003,18.979 15.830 C 19.132 15.775,19.272 15.761,19.564 15.770 C 19.914 15.781,19.976 15.796,20.247 15.930 M10.247 17.930 C 10.618 18.113,10.915 18.415,11.092 18.790 C 11.212 19.043,11.220 19.088,11.220 19.500 C 11.220 19.912,11.212 19.957,11.092 20.210 C 10.914 20.586,10.618 20.887,10.245 21.071 C 9.952 21.216,9.932 21.220,9.500 21.220 C 9.068 21.220,9.048 21.216,8.755 21.071 C 8.382 20.887,8.086 20.586,7.908 20.210 C 7.788 19.957,7.780 19.912,7.780 19.500 C 7.780 19.088,7.788 19.043,7.907 18.791 C 8.123 18.335,8.494 18.003,8.979 17.830 C 9.132 17.775,9.272 17.761,9.564 17.770 C 9.914 17.781,9.976 17.796,10.247 17.930 " stroke="none" fill-rule="evenodd" fill="black"></path></svg>