<svg width="24" height="24" viewBox="0 0 24 24" fill="none" xmlns="http://www.w3.org/2000/svg"><path d="M12.700 1.316 C 12.506 1.405,12.384 1.532,12.302 1.729 C 12.247 1.861,12.240 2.584,12.240 8.199 L 12.240 14.521 12.010 14.334 C 11.139 13.624,10.142 13.273,9.000 13.273 C 6.981 13.273,5.259 14.474,4.540 16.384 C 4.181 17.339,4.182 18.664,4.543 19.624 C 5.042 20.951,6.051 21.958,7.384 22.460 C 8.335 22.818,9.665 22.818,10.616 22.460 C 12.180 21.871,13.272 20.613,13.649 18.964 L 13.736 18.580 13.758 12.422 L 13.780 6.264 13.980 6.498 C 14.834 7.500,16.263 8.321,17.637 8.600 C 18.169 8.708,18.940 8.763,19.184 8.711 C 19.684 8.604,19.901 7.958,19.580 7.536 C 19.428 7.338,19.239 7.272,18.721 7.237 C 17.941 7.186,17.343 7.028,16.670 6.697 C 16.033 6.383,15.482 5.954,15.020 5.412 C 14.688 5.024,14.519 4.769,14.303 4.330 C 13.966 3.646,13.810 3.045,13.764 2.260 C 13.745 1.945,13.713 1.739,13.671 1.660 C 13.480 1.299,13.059 1.150,12.700 1.316 M9.980 14.894 C 10.508 15.068,10.854 15.286,11.284 15.716 C 11.712 16.143,11.928 16.485,12.108 17.020 C 12.209 17.316,12.217 17.389,12.217 18.000 C 12.217 18.611,12.209 18.684,12.108 18.980 C 11.928 19.515,11.712 19.857,11.284 20.284 C 10.857 20.712,10.515 20.928,9.980 21.108 C 9.684 21.209,9.611 21.217,9.000 21.217 C 8.389 21.217,8.316 21.209,8.020 21.108 C 7.485 20.928,7.143 20.712,6.716 20.284 C 6.288 19.857,6.072 19.515,5.892 18.980 C 5.791 18.684,5.783 18.611,5.783 18.000 C 5.783 17.389,5.791 17.316,5.892 17.020 C 6.072 16.485,6.288 16.143,6.716 15.716 C 7.433 14.999,8.066 14.750,9.100 14.775 C 9.572 14.787,9.710 14.806,9.980 14.894 " stroke="none" fill-rule="evenodd" fill="black"></path></svg>