<svg width="24" height="24" viewBox="0 0 24 24" fill="none" xmlns="http://www.w3.org/2000/svg"><path d="M9.060 1.279 C 7.725 1.323,7.168 1.401,6.519 1.638 C 5.618 1.967,5.001 2.565,4.674 3.424 L 4.550 3.749 4.236 3.773 C 3.330 3.843,2.478 4.304,1.934 5.018 C 1.525 5.555,1.337 6.058,1.278 6.775 C 1.230 7.355,1.230 16.645,1.278 17.225 C 1.321 17.739,1.395 18.026,1.586 18.422 C 2.013 19.304,2.858 19.966,3.807 20.162 C 4.012 20.204,4.262 20.239,4.363 20.239 L 4.546 20.240 4.672 20.570 C 5.081 21.647,5.908 22.289,7.234 22.559 C 7.966 22.708,8.698 22.735,12.000 22.735 C 15.301 22.736,16.024 22.709,16.772 22.557 C 18.090 22.290,18.919 21.645,19.328 20.570 L 19.454 20.240 19.637 20.239 C 19.738 20.239,19.988 20.204,20.193 20.162 C 21.142 19.966,21.987 19.304,22.414 18.422 C 22.608 18.021,22.681 17.731,22.722 17.203 C 22.769 16.600,22.769 7.400,22.722 6.797 C 22.681 6.269,22.608 5.979,22.414 5.578 C 22.107 4.943,21.568 4.402,20.940 4.099 C 20.519 3.895,20.199 3.807,19.764 3.773 L 19.450 3.749 19.326 3.424 C 18.832 2.126,17.755 1.473,15.852 1.320 C 15.187 1.266,10.351 1.237,9.060 1.279 M16.136 2.835 C 16.788 2.937,17.268 3.121,17.555 3.380 C 17.743 3.550,17.968 3.977,18.060 4.340 C 18.218 4.960,18.220 5.078,18.220 12.020 C 18.220 18.254,18.215 18.772,18.149 19.186 C 17.935 20.537,17.473 20.976,16.060 21.170 C 15.547 21.241,8.453 21.241,7.940 21.170 C 7.236 21.073,6.748 20.894,6.445 20.620 C 6.147 20.351,5.932 19.806,5.830 19.060 C 5.758 18.539,5.758 5.461,5.830 4.940 C 5.964 3.962,6.236 3.440,6.749 3.171 C 7.170 2.950,7.577 2.854,8.307 2.802 C 8.992 2.753,15.794 2.783,16.136 2.835 M4.291 5.550 C 4.250 5.906,4.251 18.099,4.292 18.456 L 4.323 18.731 4.142 18.706 C 3.944 18.679,3.619 18.529,3.403 18.364 C 3.187 18.200,2.929 17.819,2.840 17.532 C 2.762 17.277,2.760 17.168,2.760 12.000 C 2.760 6.832,2.762 6.723,2.840 6.468 C 2.929 6.181,3.187 5.800,3.403 5.636 C 3.665 5.436,4.001 5.290,4.211 5.283 L 4.322 5.280 4.291 5.550 M20.250 5.425 C 20.365 5.483,20.522 5.578,20.597 5.636 C 20.813 5.800,21.071 6.181,21.160 6.468 C 21.238 6.723,21.240 6.832,21.240 12.000 C 21.240 17.168,21.238 17.277,21.160 17.532 C 20.980 18.112,20.405 18.631,19.858 18.706 L 19.677 18.731 19.709 18.396 C 19.726 18.211,19.740 15.333,19.740 12.000 C 19.740 8.667,19.726 5.789,19.709 5.604 L 19.677 5.269 19.858 5.294 C 19.958 5.307,20.134 5.366,20.250 5.425 M12.700 7.316 C 12.506 7.405,12.384 7.532,12.302 7.729 C 12.249 7.856,12.240 8.146,12.240 9.703 C 12.240 11.426,12.236 11.527,12.170 11.498 C 11.403 11.169,10.381 11.198,9.720 11.568 C 8.781 12.094,8.269 12.953,8.269 14.000 C 8.269 15.047,8.781 15.906,9.720 16.432 C 10.434 16.832,11.566 16.832,12.280 16.432 C 12.954 16.054,13.433 15.467,13.645 14.760 C 13.732 14.470,13.736 14.395,13.750 12.467 C 13.764 10.618,13.770 10.476,13.833 10.502 C 14.266 10.684,14.867 10.778,15.174 10.713 C 15.435 10.657,15.657 10.439,15.711 10.184 C 15.823 9.660,15.455 9.240,14.884 9.240 C 14.655 9.240,14.339 9.087,14.126 8.874 C 13.893 8.642,13.760 8.342,13.759 8.048 C 13.756 7.468,13.202 7.084,12.700 7.316 M11.454 12.841 C 11.744 12.950,12.050 13.256,12.159 13.546 C 12.335 14.017,12.227 14.521,11.874 14.874 C 11.381 15.368,10.619 15.368,10.126 14.874 C 9.847 14.596,9.746 14.325,9.769 13.920 C 9.790 13.567,9.876 13.373,10.124 13.125 C 10.397 12.853,10.597 12.769,10.988 12.763 C 11.148 12.761,11.315 12.789,11.454 12.841 " stroke="none" fill-rule="evenodd" fill="black"></path></svg>