<svg width="24" height="24" viewBox="0 0 24 24" fill="none" xmlns="http://www.w3.org/2000/svg"><path d="M17.680 2.506 C 17.296 2.553,16.747 2.792,14.801 3.762 C 13.667 4.327,12.599 4.884,12.427 5.000 C 11.901 5.353,11.505 5.919,11.335 6.561 C 11.272 6.795,11.264 7.185,11.251 10.669 L 11.235 14.517 11.008 14.332 C 10.139 13.624,9.140 13.273,8.000 13.273 C 5.981 13.273,4.259 14.474,3.540 16.384 C 3.181 17.339,3.182 18.664,3.543 19.624 C 4.042 20.951,5.051 21.958,6.384 22.460 C 7.335 22.818,8.665 22.818,9.616 22.460 C 11.180 21.871,12.277 20.606,12.647 18.964 C 12.732 18.588,12.734 18.500,12.749 14.910 C 12.758 12.891,12.771 11.240,12.778 11.240 C 12.785 11.240,12.908 11.284,13.052 11.338 C 13.367 11.457,13.930 11.533,14.237 11.499 C 14.360 11.485,14.613 11.427,14.799 11.370 C 15.218 11.240,19.124 9.301,19.573 9.000 C 20.108 8.641,20.505 8.067,20.667 7.419 C 20.766 7.019,20.763 5.094,20.662 4.620 C 20.454 3.648,19.678 2.836,18.718 2.586 C 18.475 2.523,17.902 2.479,17.680 2.506 M18.551 4.122 C 18.814 4.253,18.988 4.424,19.129 4.691 C 19.213 4.851,19.219 4.915,19.232 5.920 C 19.246 6.936,19.243 6.990,19.158 7.216 C 18.992 7.658,18.944 7.689,16.691 8.814 C 15.574 9.371,14.556 9.866,14.428 9.913 C 13.809 10.145,13.188 9.904,12.870 9.309 C 12.783 9.145,12.780 9.107,12.780 8.000 L 12.780 6.860 12.899 6.645 C 12.964 6.527,13.090 6.372,13.179 6.299 C 13.340 6.168,17.145 4.248,17.560 4.089 C 17.900 3.958,18.247 3.970,18.551 4.122 M8.980 14.894 C 9.508 15.068,9.854 15.286,10.284 15.716 C 10.712 16.143,10.928 16.485,11.108 17.020 C 11.209 17.316,11.217 17.389,11.217 18.000 C 11.217 18.611,11.209 18.684,11.108 18.980 C 10.928 19.515,10.712 19.857,10.284 20.284 C 9.857 20.712,9.515 20.928,8.980 21.108 C 8.684 21.209,8.611 21.217,8.000 21.217 C 7.389 21.217,7.316 21.209,7.020 21.108 C 6.485 20.928,6.143 20.712,5.716 20.284 C 5.288 19.857,5.072 19.515,4.892 18.980 C 4.791 18.684,4.783 18.611,4.783 18.000 C 4.783 17.389,4.791 17.316,4.892 17.020 C 5.072 16.485,5.288 16.143,5.716 15.716 C 6.433 14.999,7.066 14.750,8.100 14.775 C 8.572 14.787,8.710 14.806,8.980 14.894 " stroke="none" fill-rule="evenodd" fill="black"></path></svg>