<svg width="24" height="24" viewBox="0 0 24 24" fill="none" xmlns="http://www.w3.org/2000/svg"><path d="M18.540 2.175 C 17.847 2.290,17.094 2.517,14.040 3.527 C 10.439 4.719,9.876 4.930,9.372 5.272 C 8.865 5.616,8.521 6.133,8.381 6.760 C 8.264 7.283,8.242 8.123,8.241 12.109 L 8.240 15.998 8.090 15.895 C 7.714 15.638,7.144 15.405,6.680 15.319 C 6.346 15.257,5.654 15.257,5.320 15.319 C 4.588 15.454,3.787 15.884,3.297 16.406 C 2.804 16.931,2.446 17.631,2.319 18.320 C 2.257 18.654,2.257 19.346,2.319 19.680 C 2.454 20.412,2.884 21.213,3.406 21.703 C 3.931 22.196,4.631 22.554,5.320 22.681 C 5.654 22.743,6.346 22.743,6.680 22.681 C 7.412 22.546,8.213 22.116,8.703 21.594 C 9.172 21.094,9.499 20.478,9.668 19.775 C 9.726 19.533,9.736 19.083,9.749 16.019 L 9.764 12.538 15.002 10.793 L 20.240 9.047 20.240 11.522 L 20.240 13.998 20.090 13.895 C 19.714 13.638,19.144 13.405,18.680 13.319 C 18.346 13.257,17.654 13.257,17.320 13.319 C 16.588 13.454,15.787 13.884,15.297 14.406 C 15.047 14.672,14.899 14.878,14.721 15.208 C 14.400 15.803,14.271 16.318,14.271 17.000 C 14.271 17.680,14.400 18.197,14.719 18.788 C 15.253 19.778,16.213 20.477,17.320 20.681 C 17.654 20.743,18.346 20.743,18.680 20.681 C 20.200 20.401,21.396 19.198,21.687 17.658 C 21.763 17.261,21.764 5.887,21.689 5.060 C 21.587 3.935,21.343 3.261,20.862 2.780 C 20.595 2.514,20.188 2.283,19.840 2.203 C 19.535 2.132,18.884 2.118,18.540 2.175 M19.625 3.700 C 19.777 3.763,19.936 3.965,20.023 4.203 C 20.164 4.593,20.202 4.971,20.226 6.220 L 20.250 7.460 15.005 9.207 L 9.760 10.953 9.760 9.227 C 9.760 8.231,9.778 7.392,9.802 7.245 C 9.878 6.775,10.079 6.527,10.559 6.308 C 10.906 6.150,16.815 4.176,17.773 3.898 C 18.801 3.599,19.263 3.549,19.625 3.700 M18.578 14.821 C 18.949 14.918,19.274 15.112,19.581 15.419 C 20.041 15.879,20.240 16.356,20.240 17.000 C 20.240 17.644,20.041 18.121,19.581 18.581 C 19.121 19.041,18.644 19.240,18.000 19.240 C 17.356 19.240,16.879 19.041,16.419 18.581 C 15.959 18.121,15.760 17.644,15.760 17.000 C 15.760 16.356,15.959 15.879,16.419 15.419 C 16.719 15.118,17.050 14.919,17.404 14.823 C 17.692 14.746,18.285 14.745,18.578 14.821 M6.578 16.821 C 6.949 16.918,7.274 17.112,7.581 17.419 C 8.041 17.879,8.240 18.356,8.240 19.000 C 8.240 19.644,8.041 20.121,7.581 20.581 C 7.121 21.041,6.644 21.240,6.000 21.240 C 5.356 21.240,4.879 21.041,4.419 20.581 C 3.959 20.121,3.760 19.644,3.760 19.000 C 3.760 18.356,3.959 17.879,4.419 17.419 C 4.719 17.118,5.050 16.919,5.404 16.823 C 5.692 16.746,6.285 16.745,6.578 16.821 " stroke="none" fill-rule="evenodd" fill="black"></path></svg>