<svg width="24" height="24" viewBox="0 0 24 24" fill="none" xmlns="http://www.w3.org/2000/svg"><path d="M12.420 3.219 C 11.618 3.431,10.992 3.774,8.720 5.246 C 7.434 6.078,7.472 6.056,7.146 6.156 C 6.913 6.227,6.766 6.240,6.166 6.241 C 4.920 6.244,4.028 6.304,3.591 6.416 C 2.530 6.686,1.594 7.504,1.166 8.532 C 0.898 9.174,0.781 10.236,0.781 12.000 C 0.781 14.580,0.991 15.521,1.774 16.453 C 2.008 16.731,2.521 17.131,2.889 17.322 C 3.526 17.653,4.290 17.755,6.166 17.759 C 7.223 17.761,7.160 17.735,8.860 18.841 C 10.982 20.222,11.630 20.574,12.434 20.783 C 12.871 20.896,13.452 20.913,13.793 20.822 C 14.112 20.738,14.634 20.464,14.867 20.260 C 15.351 19.837,15.692 19.155,15.858 18.277 C 16.024 17.403,16.240 13.828,16.240 11.980 C 16.239 10.316,16.045 6.906,15.897 5.960 C 15.741 4.960,15.400 4.216,14.890 3.762 C 14.644 3.542,14.126 3.266,13.793 3.178 C 13.457 3.088,12.844 3.107,12.420 3.219 M13.600 4.703 C 14.351 5.052,14.484 5.667,14.686 9.740 C 14.780 11.614,14.746 13.600,14.578 16.160 C 14.478 17.676,14.366 18.357,14.143 18.792 C 14.020 19.034,13.873 19.170,13.600 19.297 C 12.951 19.599,12.258 19.286,9.360 17.386 C 8.321 16.705,7.945 16.509,7.420 16.377 C 7.048 16.283,6.921 16.274,5.600 16.242 C 4.495 16.215,4.128 16.193,3.943 16.143 C 3.293 15.964,2.624 15.296,2.467 14.669 C 2.300 14.007,2.209 12.325,2.275 11.141 C 2.332 10.125,2.379 9.679,2.467 9.331 C 2.624 8.704,3.292 8.037,3.943 7.857 C 4.129 7.806,4.487 7.784,5.600 7.758 C 6.924 7.727,7.047 7.718,7.420 7.623 C 7.948 7.490,8.314 7.298,9.420 6.576 C 12.314 4.684,12.948 4.400,13.600 4.703 M17.815 9.278 C 17.640 9.320,17.462 9.455,17.356 9.626 C 17.253 9.793,17.233 10.156,17.318 10.320 C 17.347 10.375,17.723 10.775,18.154 11.210 L 18.937 12.000 18.154 12.790 C 17.723 13.225,17.347 13.625,17.318 13.680 C 17.290 13.735,17.267 13.881,17.267 14.004 C 17.267 14.499,17.683 14.817,18.189 14.711 C 18.366 14.673,18.439 14.611,19.190 13.867 L 20.000 13.064 20.810 13.867 C 21.559 14.609,21.634 14.673,21.810 14.710 C 22.389 14.832,22.832 14.389,22.710 13.810 C 22.673 13.634,22.609 13.559,21.867 12.810 L 21.064 12.000 21.867 11.190 C 22.609 10.441,22.673 10.366,22.710 10.190 C 22.799 9.767,22.577 9.384,22.186 9.286 C 22.015 9.243,21.932 9.247,21.700 9.309 C 21.656 9.321,21.256 9.692,20.810 10.133 L 20.000 10.936 19.190 10.134 C 18.462 9.414,18.361 9.328,18.192 9.286 C 17.986 9.235,17.993 9.236,17.815 9.278 " stroke="none" fill-rule="evenodd" fill="black"></path></svg>