<svg width="24" height="24" viewBox="0 0 24 24" fill="none" xmlns="http://www.w3.org/2000/svg"><path d="M7.120 1.280 C 6.559 1.298,5.938 1.333,5.740 1.358 C 4.350 1.533,3.443 2.034,2.920 2.916 C 2.476 3.663,2.281 4.698,2.280 6.320 C 2.279 6.661,2.269 7.004,2.256 7.082 C 2.232 7.222,2.230 7.224,1.960 7.266 C 1.499 7.339,1.267 7.585,1.267 8.000 C 1.267 8.421,1.536 8.698,1.992 8.745 L 2.240 8.771 2.240 9.997 L 2.240 11.222 1.964 11.266 C 1.498 11.339,1.267 11.583,1.267 12.000 C 1.267 12.421,1.536 12.698,1.992 12.745 L 2.240 12.771 2.240 13.997 L 2.240 15.222 1.964 15.266 C 1.498 15.339,1.267 15.583,1.267 16.000 C 1.267 16.419,1.536 16.698,1.987 16.745 C 2.230 16.770,2.231 16.771,2.255 16.915 C 2.268 16.995,2.279 17.339,2.280 17.680 C 2.281 18.913,2.397 19.824,2.636 20.478 C 3.058 21.629,3.899 22.300,5.251 22.564 C 6.090 22.727,6.582 22.740,12.000 22.739 C 17.406 22.738,17.923 22.725,18.749 22.564 C 20.352 22.251,21.232 21.376,21.557 19.772 C 21.729 18.925,21.739 18.468,21.739 12.000 C 21.739 5.532,21.729 5.075,21.557 4.228 C 21.177 2.352,20.099 1.508,17.840 1.318 C 17.183 1.263,8.631 1.233,7.120 1.280 M7.240 12.004 L 7.240 21.248 6.730 21.221 C 5.738 21.169,5.300 21.090,4.855 20.883 C 4.511 20.723,4.304 20.521,4.140 20.185 C 3.875 19.642,3.811 19.222,3.774 17.796 L 3.748 16.773 4.004 16.746 C 4.450 16.700,4.729 16.415,4.729 16.004 C 4.729 15.588,4.495 15.338,4.040 15.266 L 3.760 15.222 3.760 13.997 L 3.760 12.771 4.010 12.746 C 4.450 12.700,4.729 12.412,4.729 12.004 C 4.729 11.588,4.495 11.338,4.040 11.266 L 3.760 11.222 3.760 9.997 L 3.760 8.771 4.010 8.746 C 4.450 8.700,4.729 8.412,4.729 8.004 C 4.729 7.586,4.496 7.338,4.034 7.265 L 3.748 7.220 3.774 6.200 C 3.810 4.818,3.874 4.376,4.117 3.855 C 4.472 3.094,5.222 2.812,7.010 2.766 L 7.240 2.760 7.240 12.004 M18.240 2.855 C 19.522 3.076,19.942 3.507,20.149 4.814 C 20.215 5.228,20.220 5.746,20.220 11.980 C 20.220 18.922,20.218 19.040,20.060 19.660 C 19.968 20.023,19.743 20.450,19.555 20.620 C 19.269 20.878,18.792 21.062,18.136 21.165 C 17.954 21.194,16.301 21.215,13.310 21.227 L 8.760 21.245 8.760 12.000 L 8.760 2.755 13.310 2.772 C 17.295 2.787,17.907 2.797,18.240 2.855 M11.180 5.835 C 10.990 5.923,10.904 6.012,10.822 6.210 C 10.708 6.483,10.783 6.869,10.986 7.048 C 11.203 7.241,11.184 7.240,14.009 7.239 C 16.496 7.238,16.670 7.234,16.820 7.165 C 17.010 7.077,17.096 6.988,17.178 6.790 C 17.257 6.602,17.257 6.398,17.178 6.210 C 17.096 6.012,17.010 5.923,16.820 5.835 C 16.670 5.766,16.496 5.762,14.000 5.762 C 11.504 5.762,11.330 5.766,11.180 5.835 M11.420 9.259 C 11.398 9.267,11.331 9.284,11.271 9.297 C 11.124 9.329,10.881 9.548,10.814 9.708 C 10.691 10.002,10.771 10.336,11.015 10.550 C 11.095 10.621,11.211 10.693,11.271 10.709 C 11.413 10.749,16.587 10.749,16.729 10.709 C 16.881 10.667,17.121 10.447,17.186 10.292 C 17.297 10.027,17.241 9.711,17.047 9.506 C 16.802 9.247,16.961 9.261,14.080 9.252 C 12.639 9.248,11.442 9.251,11.420 9.259 " stroke="none" fill-rule="evenodd" fill="black"></path></svg>