<svg width="24" height="24" viewBox="0 0 24 24" fill="none" xmlns="http://www.w3.org/2000/svg"><path d="M6.880 3.279 C 5.872 3.322,5.395 3.425,4.880 3.710 C 4.397 3.978,3.996 4.496,3.822 5.080 C 3.630 5.726,3.628 5.776,3.610 10.652 L 3.594 15.244 2.792 16.069 C 2.351 16.523,1.918 16.986,1.829 17.097 C 1.627 17.350,1.384 17.864,1.316 18.180 C 1.242 18.526,1.252 19.319,1.334 19.656 C 1.574 20.637,2.381 21.440,3.359 21.669 C 3.642 21.736,4.167 21.740,12.000 21.740 C 19.833 21.740,20.358 21.736,20.641 21.669 C 21.619 21.440,22.426 20.637,22.666 19.656 C 22.748 19.319,22.758 18.526,22.684 18.180 C 22.616 17.865,22.373 17.350,22.173 17.100 C 22.085 16.990,21.652 16.528,21.210 16.073 L 20.406 15.246 20.389 10.673 C 20.376 7.468,20.357 6.004,20.324 5.780 C 20.098 4.235,19.396 3.544,17.820 3.317 C 17.446 3.263,8.028 3.231,6.880 3.279 M17.587 4.800 C 18.275 4.873,18.603 5.069,18.733 5.486 C 18.885 5.976,18.893 6.227,18.897 10.560 L 18.900 14.780 12.000 14.780 L 5.100 14.780 5.103 10.560 C 5.106 6.225,5.114 5.978,5.267 5.486 C 5.304 5.368,5.389 5.213,5.457 5.142 C 5.612 4.978,5.969 4.844,6.359 4.803 C 6.800 4.756,17.144 4.753,17.587 4.800 M11.720 6.064 C 11.292 6.249,11.137 6.728,11.374 7.133 C 11.644 7.594,12.356 7.594,12.626 7.133 C 12.749 6.923,12.768 6.609,12.670 6.419 C 12.489 6.072,12.066 5.914,11.720 6.064 M20.175 17.153 C 21.175 18.193,21.215 18.255,21.233 18.820 C 21.244 19.151,21.232 19.259,21.162 19.445 C 21.050 19.745,20.748 20.049,20.454 20.159 C 20.239 20.239,20.179 20.240,12.000 20.240 L 3.763 20.240 3.540 20.157 C 3.239 20.044,2.955 19.758,2.840 19.452 C 2.768 19.258,2.756 19.154,2.767 18.820 C 2.785 18.255,2.825 18.193,3.825 17.153 L 4.660 16.285 12.000 16.285 L 19.340 16.285 20.175 17.153 M9.180 17.835 C 8.990 17.923,8.904 18.012,8.822 18.210 C 8.708 18.483,8.783 18.869,8.986 19.048 C 9.203 19.241,9.184 19.240,12.009 19.239 C 14.496 19.238,14.670 19.234,14.820 19.165 C 15.010 19.077,15.096 18.988,15.178 18.790 C 15.257 18.602,15.257 18.398,15.178 18.210 C 15.096 18.012,15.010 17.923,14.820 17.835 C 14.670 17.766,14.496 17.762,12.000 17.762 C 9.504 17.762,9.330 17.766,9.180 17.835 " stroke="none" fill-rule="evenodd" fill="black"></path></svg>