<svg width="24" height="24" viewBox="0 0 24 24" fill="none" xmlns="http://www.w3.org/2000/svg"><path d="M12.200 1.288 C 11.730 1.322,11.217 1.466,10.722 1.703 C 10.242 1.933,9.902 2.172,9.506 2.556 C 8.864 3.180,8.479 3.915,8.058 5.327 L 7.907 5.835 7.583 5.920 C 5.332 6.514,4.328 6.833,3.662 7.169 C 2.877 7.565,2.194 8.251,1.766 9.073 C 1.163 10.232,1.121 11.257,1.597 13.218 C 1.808 14.084,2.666 17.289,2.983 18.390 C 3.474 20.097,3.821 20.786,4.534 21.469 C 5.081 21.994,5.712 22.358,6.460 22.583 C 6.931 22.724,7.837 22.761,8.471 22.664 C 9.423 22.519,13.092 21.552,14.111 21.178 C 15.442 20.688,16.208 20.050,16.819 18.923 L 16.980 18.625 17.260 18.539 C 17.931 18.332,18.586 17.935,19.104 17.421 C 19.790 16.740,20.148 15.992,20.675 14.140 C 21.247 12.131,22.104 8.806,22.221 8.140 C 22.313 7.616,22.341 6.865,22.283 6.493 C 22.088 5.236,21.357 4.079,20.335 3.411 C 19.704 2.998,18.955 2.725,16.980 2.185 C 13.994 1.370,13.178 1.216,12.200 1.288 M13.320 2.822 C 14.169 2.959,17.535 3.849,18.544 4.203 C 19.636 4.587,20.287 5.170,20.638 6.082 C 20.995 7.007,20.925 7.485,19.836 11.540 C 18.869 15.141,18.677 15.680,18.166 16.245 C 17.783 16.668,17.180 17.030,16.614 17.176 C 16.298 17.258,15.719 17.258,15.237 17.176 C 14.444 17.040,11.428 16.247,10.320 15.882 C 9.466 15.601,9.084 15.402,8.709 15.044 C 8.128 14.490,7.803 13.804,7.769 13.059 C 7.736 12.350,7.867 11.737,8.779 8.340 C 9.743 4.747,9.900 4.316,10.460 3.725 C 11.229 2.913,12.128 2.629,13.320 2.822 M7.440 7.546 C 7.440 7.560,7.286 8.148,7.097 8.852 C 6.411 11.418,6.278 12.076,6.277 12.905 C 6.277 13.902,6.561 14.753,7.163 15.559 C 7.779 16.383,8.488 16.847,9.789 17.279 C 10.881 17.641,14.044 18.483,14.816 18.616 C 15.011 18.650,15.181 18.687,15.192 18.699 C 15.203 18.710,15.076 18.853,14.909 19.017 C 14.387 19.531,13.821 19.761,11.544 20.383 C 9.970 20.814,8.812 21.099,8.300 21.182 C 7.201 21.361,6.311 21.101,5.566 20.383 C 4.920 19.760,4.759 19.325,3.682 15.294 C 2.847 12.167,2.741 11.663,2.770 10.960 C 2.800 10.228,3.057 9.641,3.596 9.071 C 4.143 8.493,4.658 8.270,6.840 7.664 C 7.365 7.518,7.440 7.504,7.440 7.546 " stroke="none" fill-rule="evenodd" fill="black"></path></svg>