<svg width="24" height="24" viewBox="0 0 24 24" fill="none" xmlns="http://www.w3.org/2000/svg"><path d="M7.600 1.282 C 7.061 1.297,6.440 1.332,6.220 1.359 C 4.481 1.571,3.441 2.371,3.040 3.807 C 2.792 4.694,2.749 5.646,2.770 9.800 C 2.784 12.714,2.793 13.100,2.857 13.440 C 3.119 14.841,3.869 15.505,5.395 15.689 C 6.011 15.763,17.989 15.763,18.605 15.689 C 20.131 15.505,20.881 14.841,21.143 13.440 C 21.207 13.100,21.216 12.714,21.230 9.800 C 21.251 5.646,21.208 4.694,20.960 3.807 C 20.623 2.600,19.823 1.833,18.560 1.506 C 18.006 1.363,17.561 1.320,16.220 1.279 C 14.844 1.237,9.060 1.239,7.600 1.282 M17.620 2.835 C 19.076 3.053,19.527 3.557,19.688 5.151 C 19.764 5.904,19.762 12.698,19.686 13.120 C 19.545 13.895,19.308 14.101,18.436 14.201 C 17.985 14.253,6.015 14.253,5.564 14.201 C 4.692 14.101,4.455 13.895,4.314 13.120 C 4.238 12.697,4.236 5.904,4.312 5.149 C 4.491 3.375,5.030 2.908,7.040 2.786 C 7.161 2.779,9.519 2.776,12.280 2.780 C 15.941 2.785,17.387 2.800,17.620 2.835 M2.840 16.266 C 2.134 16.343,1.543 16.823,1.327 17.495 C 1.242 17.757,1.233 19.229,1.313 19.658 C 1.601 21.202,2.793 22.395,4.342 22.687 C 4.751 22.765,19.249 22.765,19.658 22.687 C 20.416 22.544,21.209 22.120,21.703 21.594 C 22.194 21.071,22.545 20.386,22.684 19.680 C 22.764 19.274,22.756 17.756,22.673 17.495 C 22.542 17.087,22.255 16.727,21.880 16.503 C 21.468 16.257,21.504 16.260,18.760 16.260 C 16.485 16.260,16.237 16.266,16.000 16.331 C 15.568 16.450,15.290 16.606,14.612 17.110 C 14.256 17.375,13.878 17.625,13.772 17.666 C 13.597 17.734,13.443 17.740,12.000 17.740 C 10.557 17.740,10.403 17.734,10.228 17.666 C 10.122 17.625,9.744 17.375,9.388 17.110 C 8.724 16.616,8.440 16.455,8.020 16.334 C 7.806 16.272,7.524 16.264,5.380 16.257 C 4.060 16.253,2.917 16.257,2.840 16.266 M7.865 17.868 C 7.956 17.917,8.298 18.157,8.625 18.401 C 9.730 19.226,9.787 19.240,12.000 19.240 C 14.213 19.240,14.270 19.226,15.375 18.401 C 16.308 17.704,15.899 17.782,18.696 17.769 C 20.895 17.758,21.097 17.763,21.166 17.825 C 21.233 17.886,21.240 17.961,21.240 18.618 C 21.240 19.429,21.201 19.655,20.990 20.057 C 20.825 20.371,20.371 20.825,20.057 20.990 C 19.547 21.257,20.096 21.240,12.000 21.240 C 3.904 21.240,4.453 21.257,3.943 20.990 C 3.629 20.825,3.175 20.371,3.010 20.057 C 2.800 19.655,2.760 19.429,2.760 18.625 C 2.760 18.008,2.769 17.896,2.827 17.832 C 2.892 17.761,2.999 17.758,5.297 17.769 C 7.690 17.780,7.701 17.780,7.865 17.868 " stroke="none" fill-rule="evenodd" fill="black"></path></svg>