<svg width="24" height="24" viewBox="0 0 24 24" fill="none" xmlns="http://www.w3.org/2000/svg"><path d="M7.600 3.282 C 7.061 3.297,6.440 3.332,6.220 3.359 C 4.481 3.571,3.441 4.371,3.040 5.807 C 2.804 6.652,2.761 7.501,2.760 11.302 L 2.760 14.265 2.550 14.317 C 2.006 14.453,1.507 14.934,1.327 15.495 C 1.242 15.757,1.233 17.229,1.313 17.658 C 1.454 18.413,1.879 19.208,2.406 19.703 C 2.936 20.200,3.628 20.552,4.342 20.687 C 4.751 20.765,19.249 20.765,19.658 20.687 C 20.372 20.552,21.064 20.200,21.594 19.703 C 22.113 19.216,22.537 18.430,22.684 17.680 C 22.764 17.274,22.756 15.756,22.673 15.495 C 22.494 14.935,21.994 14.453,21.450 14.317 L 21.240 14.265 21.240 11.302 C 21.239 7.501,21.196 6.652,20.960 5.807 C 20.623 4.600,19.823 3.833,18.560 3.506 C 18.006 3.363,17.561 3.320,16.220 3.279 C 14.844 3.237,9.060 3.239,7.600 3.282 M17.620 4.835 C 18.833 5.016,19.313 5.391,19.558 6.347 C 19.708 6.930,19.727 7.403,19.748 10.867 L 19.769 14.233 17.994 14.250 C 15.712 14.271,15.755 14.260,14.612 15.110 C 14.256 15.375,13.878 15.625,13.772 15.666 C 13.597 15.734,13.443 15.740,12.000 15.740 C 10.557 15.740,10.403 15.734,10.228 15.666 C 10.122 15.625,9.744 15.375,9.388 15.110 C 8.245 14.260,8.288 14.271,6.006 14.250 L 4.231 14.233 4.252 10.867 C 4.265 8.732,4.289 7.341,4.319 7.067 C 4.483 5.535,4.992 4.999,6.432 4.842 C 7.067 4.772,7.067 4.772,12.280 4.780 C 15.941 4.785,17.387 4.800,17.620 4.835 M7.865 15.868 C 7.956 15.917,8.298 16.157,8.625 16.401 C 9.730 17.226,9.787 17.240,12.000 17.240 C 14.213 17.240,14.270 17.226,15.375 16.401 C 16.308 15.704,15.899 15.782,18.696 15.769 C 20.895 15.758,21.097 15.763,21.166 15.825 C 21.233 15.886,21.240 15.961,21.240 16.618 C 21.240 17.429,21.201 17.655,20.990 18.057 C 20.825 18.371,20.371 18.825,20.057 18.990 C 19.547 19.257,20.096 19.240,12.000 19.240 C 3.904 19.240,4.453 19.257,3.943 18.990 C 3.629 18.825,3.175 18.371,3.010 18.057 C 2.800 17.655,2.760 17.429,2.760 16.625 C 2.760 16.008,2.769 15.896,2.827 15.832 C 2.892 15.761,2.999 15.758,5.297 15.769 C 7.690 15.780,7.701 15.780,7.865 15.868 " stroke="none" fill-rule="evenodd" fill="black"></path></svg>