<svg width="24" height="24" viewBox="0 0 24 24" fill="none" xmlns="http://www.w3.org/2000/svg"><path d="M19.060 2.322 C 18.439 2.371,17.652 2.472,17.160 2.566 C 16.198 2.749,15.547 2.988,14.360 3.594 C 13.909 3.825,13.369 4.101,13.160 4.208 C 12.725 4.430,12.368 4.518,11.896 4.519 C 11.372 4.520,11.052 4.414,9.920 3.863 C 7.803 2.833,6.879 2.573,4.640 2.378 C 3.598 2.287,3.243 2.332,2.660 2.631 C 2.259 2.837,1.748 3.358,1.552 3.760 C 1.237 4.406,1.260 3.860,1.260 10.560 C 1.260 15.437,1.270 16.581,1.314 16.760 C 1.343 16.881,1.446 17.142,1.541 17.340 C 1.825 17.931,2.248 18.359,2.848 18.659 C 3.281 18.877,3.586 18.943,4.520 19.021 C 6.600 19.195,7.439 19.441,9.560 20.499 C 10.737 21.086,11.170 21.213,12.000 21.213 C 12.830 21.213,13.263 21.086,14.440 20.499 C 16.561 19.441,17.400 19.195,19.480 19.021 C 20.414 18.943,20.719 18.877,21.152 18.659 C 21.752 18.359,22.175 17.931,22.459 17.340 C 22.554 17.142,22.657 16.881,22.686 16.760 C 22.730 16.581,22.740 15.430,22.740 10.520 L 22.740 4.500 22.646 4.200 C 22.369 3.311,21.792 2.704,20.931 2.393 C 20.744 2.326,20.587 2.308,20.100 2.298 C 19.770 2.292,19.302 2.302,19.060 2.322 M20.608 3.883 C 20.843 4.000,20.988 4.143,21.114 4.380 L 21.220 4.580 21.220 10.540 L 21.220 16.500 21.114 16.700 C 20.921 17.063,20.616 17.312,20.240 17.414 C 20.119 17.447,19.750 17.494,19.420 17.519 C 17.208 17.685,16.041 18.025,13.718 19.180 C 13.254 19.411,12.848 19.600,12.817 19.600 C 12.768 19.600,12.760 18.641,12.760 12.770 L 12.761 5.940 13.090 5.850 C 13.419 5.761,13.600 5.675,15.000 4.951 C 16.414 4.220,17.143 4.010,18.780 3.859 C 20.019 3.745,20.343 3.749,20.608 3.883 M5.240 3.941 C 6.790 4.124,7.624 4.394,9.500 5.322 C 10.299 5.716,10.934 5.960,11.164 5.960 C 11.238 5.960,11.240 6.121,11.240 12.780 C 11.240 18.642,11.232 19.600,11.183 19.600 C 11.152 19.600,10.746 19.411,10.282 19.180 C 7.959 18.025,6.792 17.685,4.580 17.519 C 4.250 17.494,3.881 17.447,3.760 17.414 C 3.384 17.312,3.079 17.063,2.886 16.700 L 2.780 16.500 2.769 10.642 C 2.758 4.085,2.736 4.575,3.051 4.217 C 3.142 4.113,3.308 3.985,3.418 3.931 C 3.610 3.839,3.648 3.836,4.160 3.856 C 4.457 3.868,4.943 3.906,5.240 3.941 " fill="#1C274C" stroke="none" fill-rule="evenodd"></path></svg>