<svg width="24" height="24" viewBox="0 0 24 24" fill="none" xmlns="http://www.w3.org/2000/svg"><path d="M7.420 0.283 C 5.912 0.325,4.970 0.447,4.221 0.698 C 2.984 1.114,2.114 1.984,1.698 3.221 C 1.317 4.356,1.242 5.641,1.242 11.000 C 1.242 16.336,1.314 17.598,1.682 18.727 C 2.105 20.022,2.978 20.895,4.273 21.318 C 5.402 21.686,6.664 21.758,12.000 21.758 C 17.336 21.758,18.598 21.686,19.727 21.318 C 21.002 20.901,21.880 20.036,22.302 18.779 C 22.682 17.646,22.758 16.355,22.758 11.000 C 22.758 5.645,22.682 4.354,22.302 3.221 C 21.886 1.984,21.016 1.114,19.779 0.698 C 18.998 0.436,18.134 0.331,16.360 0.280 C 14.828 0.236,9.033 0.238,7.420 0.283 M17.341 1.802 C 18.138 1.854,18.642 1.928,19.093 2.059 C 20.534 2.477,21.046 3.353,21.198 5.659 C 21.254 6.516,21.254 15.484,21.198 16.341 C 21.016 19.111,20.317 19.907,17.840 20.167 C 17.116 20.244,6.884 20.244,6.160 20.167 C 3.843 19.924,3.112 19.210,2.835 16.920 C 2.769 16.379,2.738 6.719,2.798 5.740 C 2.860 4.752,2.924 4.320,3.089 3.800 C 3.509 2.473,4.423 1.948,6.560 1.805 C 7.314 1.754,16.579 1.752,17.341 1.802 M15.820 5.325 C 14.643 5.438,13.693 5.754,12.486 6.434 C 12.289 6.546,12.085 6.647,12.033 6.660 C 11.966 6.677,11.753 6.594,11.280 6.366 C 9.791 5.649,8.913 5.401,7.622 5.333 C 7.088 5.305,6.826 5.352,6.432 5.549 C 5.868 5.832,5.438 6.406,5.300 7.060 C 5.214 7.468,5.213 12.966,5.299 13.370 C 5.387 13.785,5.571 14.130,5.880 14.454 C 6.379 14.978,6.795 15.156,7.760 15.258 C 8.885 15.378,9.335 15.516,10.640 16.142 C 11.910 16.752,12.090 16.752,13.360 16.142 C 14.665 15.516,15.115 15.378,16.240 15.258 C 17.205 15.156,17.621 14.978,18.120 14.454 C 18.429 14.130,18.613 13.785,18.701 13.370 C 18.787 12.966,18.786 7.428,18.700 7.020 C 18.527 6.198,17.920 5.545,17.138 5.341 C 16.883 5.275,16.407 5.269,15.820 5.325 M16.940 6.875 C 17.006 6.913,17.100 7.015,17.149 7.102 L 17.239 7.260 17.239 10.172 C 17.240 12.959,17.237 13.090,17.164 13.232 C 16.984 13.581,16.756 13.698,16.136 13.759 C 14.953 13.876,14.223 14.077,13.110 14.593 L 12.760 14.755 12.760 11.378 L 12.760 8.002 12.970 7.879 C 13.365 7.647,14.380 7.164,14.680 7.064 C 15.031 6.948,15.578 6.850,16.140 6.803 C 16.603 6.764,16.773 6.779,16.940 6.875 M8.140 6.885 C 8.895 6.978,9.510 7.181,10.570 7.691 L 11.240 8.013 11.240 11.384 L 11.240 14.755 10.890 14.593 C 9.777 14.077,9.047 13.876,7.864 13.759 C 7.244 13.698,7.016 13.581,6.836 13.232 C 6.763 13.090,6.760 12.959,6.760 10.200 C 6.760 7.432,6.763 7.311,6.837 7.166 C 6.930 6.983,6.994 6.927,7.190 6.857 C 7.343 6.802,7.497 6.806,8.140 6.885 " fill="#1C274C" stroke="none" fill-rule="evenodd"></path></svg>