<svg width="24" height="24" viewBox="0 0 24 24" fill="none" xmlns="http://www.w3.org/2000/svg"><path d="M7.060 2.279 C 5.346 2.333,4.537 2.511,3.794 2.999 C 2.906 3.581,2.453 4.548,2.318 6.148 C 2.256 6.885,2.222 13.975,2.274 15.220 C 2.320 16.301,2.351 16.536,2.505 17.008 C 2.795 17.898,3.481 18.447,4.540 18.640 C 5.046 18.731,6.683 18.757,12.000 18.757 C 17.317 18.757,18.954 18.731,19.460 18.640 C 20.519 18.447,21.205 17.898,21.495 17.008 C 21.651 16.532,21.680 16.298,21.726 15.180 C 21.779 13.876,21.744 6.933,21.681 6.160 C 21.470 3.597,20.423 2.541,17.870 2.318 C 17.273 2.265,8.512 2.234,7.060 2.279 M18.136 3.834 C 18.837 3.946,19.365 4.163,19.620 4.445 C 19.793 4.637,19.971 4.999,20.059 5.340 C 20.214 5.941,20.220 6.156,20.220 11.140 C 20.220 16.351,20.224 16.257,20.009 16.679 C 19.916 16.863,19.863 16.916,19.679 17.009 C 19.250 17.227,19.514 17.220,12.000 17.220 C 4.486 17.220,4.750 17.227,4.321 17.009 C 4.137 16.916,4.084 16.863,3.991 16.679 C 3.929 16.559,3.857 16.352,3.830 16.220 C 3.758 15.874,3.758 6.460,3.830 5.940 C 3.964 4.962,4.236 4.440,4.749 4.171 C 5.170 3.950,5.578 3.853,6.307 3.802 C 7.031 3.752,17.800 3.781,18.136 3.834 M8.815 14.278 C 8.331 14.393,8.098 15.004,8.383 15.408 C 8.447 15.499,8.572 15.610,8.660 15.656 C 8.818 15.739,8.865 15.740,11.878 15.751 C 14.020 15.759,15.000 15.749,15.151 15.718 C 15.902 15.562,15.931 14.473,15.189 14.286 C 14.979 14.234,9.033 14.226,8.815 14.278 M1.815 20.278 C 1.331 20.393,1.098 21.004,1.383 21.408 C 1.448 21.499,1.572 21.610,1.660 21.656 L 1.820 21.740 11.880 21.751 C 19.099 21.758,22.000 21.749,22.154 21.717 C 22.902 21.562,22.929 20.473,22.189 20.286 C 21.978 20.233,2.036 20.225,1.815 20.278 " stroke="none" fill-rule="evenodd" fill="black"></path></svg>