<svg width="24" height="24" viewBox="0 0 24 24" fill="none" xmlns="http://www.w3.org/2000/svg"><path d="M9.020 1.281 C 6.987 1.328,5.860 1.465,4.900 1.779 C 3.060 2.382,1.958 3.688,1.563 5.734 C 1.311 7.042,1.267 7.973,1.267 12.000 C 1.267 16.027,1.311 16.958,1.563 18.266 C 2.013 20.599,3.401 21.987,5.734 22.437 C 7.043 22.690,7.974 22.734,12.000 22.734 C 16.026 22.734,16.957 22.690,18.266 22.437 C 20.599 21.987,21.987 20.599,22.437 18.267 C 22.666 17.082,22.722 16.036,22.732 12.838 C 22.741 10.043,22.754 10.199,22.494 9.953 C 22.353 9.819,22.201 9.760,22.000 9.760 C 21.799 9.760,21.647 9.819,21.506 9.953 C 21.247 10.198,21.262 10.015,21.235 13.200 C 21.210 16.037,21.187 16.578,21.055 17.500 C 20.754 19.609,19.876 20.591,17.947 20.979 C 16.900 21.189,16.466 21.209,12.620 21.229 C 8.221 21.252,7.082 21.205,5.923 20.954 C 4.231 20.588,3.373 19.699,3.021 17.947 C 2.797 16.828,2.780 16.424,2.780 12.040 C 2.780 7.931,2.792 7.538,2.944 6.500 C 3.275 4.238,4.246 3.267,6.500 2.945 C 7.422 2.813,7.963 2.790,10.800 2.765 C 13.985 2.738,13.802 2.753,14.047 2.494 C 14.181 2.353,14.240 2.201,14.240 2.000 C 14.240 1.799,14.181 1.647,14.047 1.506 C 13.808 1.254,13.864 1.260,12.000 1.256 C 11.065 1.253,9.724 1.265,9.020 1.281 M18.740 1.266 C 17.415 1.385,16.327 2.085,15.719 3.212 C 15.400 3.803,15.271 4.320,15.271 5.000 C 15.271 5.682,15.400 6.197,15.721 6.792 C 16.078 7.453,16.549 7.923,17.212 8.281 C 17.803 8.600,18.320 8.729,19.000 8.729 C 19.680 8.729,20.197 8.600,20.788 8.281 C 21.451 7.923,21.922 7.453,22.279 6.792 C 22.600 6.197,22.729 5.682,22.729 5.000 C 22.729 4.320,22.600 3.803,22.281 3.212 C 21.832 2.381,21.122 1.779,20.215 1.463 C 19.793 1.316,19.149 1.230,18.740 1.266 M19.578 2.821 C 19.949 2.918,20.274 3.112,20.581 3.419 C 21.041 3.879,21.240 4.356,21.240 5.000 C 21.240 5.644,21.041 6.121,20.581 6.581 C 20.121 7.041,19.644 7.240,19.000 7.240 C 18.356 7.240,17.879 7.041,17.419 6.581 C 16.959 6.121,16.760 5.644,16.760 5.000 C 16.760 4.356,16.959 3.879,17.419 3.419 C 17.719 3.118,18.050 2.919,18.404 2.823 C 18.692 2.746,19.285 2.745,19.578 2.821 " stroke="none" fill-rule="evenodd" fill="black"></path></svg>