<svg width="24" height="24" viewBox="0 0 24 24" fill="none" xmlns="http://www.w3.org/2000/svg"><path d="M9.020 1.281 C 6.987 1.328,5.860 1.465,4.900 1.779 C 3.060 2.382,1.958 3.688,1.563 5.734 C 1.311 7.042,1.267 7.973,1.267 12.000 C 1.267 16.027,1.311 16.958,1.563 18.266 C 2.013 20.599,3.401 21.987,5.734 22.437 C 7.043 22.690,7.974 22.734,12.000 22.734 C 16.026 22.734,16.957 22.690,18.266 22.437 C 20.599 21.987,21.987 20.599,22.437 18.267 C 22.666 17.082,22.722 16.036,22.732 12.838 C 22.741 10.043,22.754 10.199,22.494 9.953 C 22.353 9.819,22.201 9.760,22.000 9.760 C 21.799 9.760,21.647 9.819,21.506 9.953 C 21.247 10.198,21.262 10.015,21.235 13.200 C 21.210 16.037,21.187 16.578,21.055 17.500 C 20.754 19.609,19.876 20.591,17.947 20.979 C 16.900 21.189,16.466 21.209,12.620 21.229 C 8.221 21.252,7.082 21.205,5.923 20.954 C 4.231 20.588,3.373 19.699,3.021 17.947 C 2.797 16.828,2.780 16.424,2.780 12.040 C 2.780 7.931,2.792 7.538,2.944 6.500 C 3.275 4.238,4.246 3.267,6.500 2.945 C 7.422 2.813,7.963 2.790,10.800 2.765 C 13.985 2.738,13.802 2.753,14.047 2.494 C 14.181 2.353,14.240 2.201,14.240 2.000 C 14.240 1.799,14.181 1.647,14.047 1.506 C 13.808 1.254,13.864 1.260,12.000 1.256 C 11.065 1.253,9.724 1.265,9.020 1.281 M16.826 1.286 C 16.626 1.331,16.468 1.445,16.356 1.626 C 16.234 1.823,16.232 2.174,16.351 2.364 C 16.398 2.439,16.887 2.950,17.438 3.499 L 18.439 4.499 17.404 5.539 C 16.835 6.112,16.346 6.625,16.318 6.680 C 16.290 6.735,16.267 6.882,16.267 7.008 C 16.267 7.279,16.389 7.497,16.623 7.642 C 16.823 7.766,17.172 7.769,17.364 7.649 C 17.439 7.602,17.950 7.113,18.499 6.562 L 19.499 5.561 20.539 6.596 C 21.112 7.165,21.625 7.654,21.680 7.682 C 21.735 7.710,21.884 7.733,22.011 7.733 C 22.202 7.733,22.271 7.713,22.408 7.617 C 22.499 7.553,22.608 7.432,22.651 7.349 C 22.747 7.163,22.753 6.861,22.665 6.676 C 22.629 6.601,22.141 6.081,21.581 5.521 L 20.561 4.502 21.616 3.441 C 22.606 2.446,22.673 2.368,22.711 2.190 C 22.832 1.611,22.389 1.168,21.810 1.289 C 21.632 1.327,21.554 1.394,20.559 2.384 L 19.498 3.439 18.479 2.419 C 17.919 1.859,17.406 1.375,17.340 1.345 C 17.166 1.265,17.001 1.246,16.826 1.286 " stroke="none" fill-rule="evenodd" fill="black"></path></svg>