<svg width="24" height="24" viewBox="0 0 24 24" fill="none" xmlns="http://www.w3.org/2000/svg"><path d="M7.420 1.283 C 4.824 1.355,3.629 1.695,2.669 2.635 C 1.935 3.353,1.559 4.272,1.379 5.787 C 1.311 6.358,1.224 8.994,1.248 9.742 C 1.265 10.293,1.326 10.444,1.607 10.629 C 1.839 10.783,2.180 10.778,2.408 10.617 C 2.499 10.553,2.610 10.428,2.656 10.340 C 2.736 10.187,2.741 10.102,2.766 8.360 C 2.797 6.154,2.851 5.550,3.089 4.800 C 3.385 3.865,3.928 3.343,4.896 3.062 C 5.649 2.844,6.218 2.796,8.380 2.766 C 10.214 2.740,10.220 2.740,10.369 2.647 C 10.943 2.290,10.812 1.424,10.162 1.284 C 9.938 1.236,9.122 1.236,7.420 1.283 M13.826 1.284 C 13.476 1.366,13.267 1.636,13.267 2.003 C 13.267 2.281,13.387 2.496,13.627 2.645 L 13.780 2.740 15.620 2.766 C 17.782 2.796,18.351 2.844,19.104 3.062 C 20.108 3.353,20.647 3.893,20.940 4.903 C 21.156 5.649,21.204 6.223,21.234 8.383 L 21.260 10.226 21.367 10.388 C 21.526 10.628,21.721 10.733,22.007 10.733 C 22.203 10.733,22.270 10.714,22.408 10.617 C 22.661 10.438,22.732 10.263,22.751 9.764 C 22.778 9.093,22.688 6.352,22.621 5.787 C 22.443 4.288,22.088 3.407,21.365 2.669 C 20.647 1.935,19.728 1.559,18.213 1.379 C 17.341 1.276,14.156 1.207,13.826 1.284 M8.200 4.785 C 7.027 4.903,6.565 5.075,6.060 5.580 C 5.745 5.894,5.574 6.201,5.444 6.680 C 5.320 7.140,5.283 7.555,5.254 8.809 L 5.227 9.961 4.855 10.137 C 4.084 10.503,3.463 10.920,3.344 11.154 C 3.194 11.446,3.238 11.749,3.465 12.000 C 3.632 12.185,3.820 12.256,4.079 12.231 C 4.225 12.217,4.346 12.161,4.606 11.988 C 5.900 11.127,7.888 10.538,10.260 10.312 C 10.931 10.249,13.069 10.249,13.740 10.312 C 16.112 10.538,18.100 11.127,19.394 11.988 C 19.654 12.161,19.775 12.217,19.921 12.231 C 20.180 12.256,20.368 12.185,20.535 12.000 C 20.762 11.749,20.806 11.446,20.656 11.154 C 20.536 10.919,19.902 10.493,19.143 10.138 L 18.773 9.965 18.746 8.805 C 18.716 7.541,18.680 7.138,18.556 6.680 C 18.431 6.217,18.253 5.893,17.960 5.596 C 17.552 5.183,17.140 4.983,16.428 4.852 C 16.101 4.792,15.633 4.784,12.200 4.778 C 10.077 4.774,8.277 4.777,8.200 4.785 M15.719 6.281 C 16.271 6.324,16.557 6.392,16.762 6.530 C 17.123 6.773,17.206 7.114,17.231 8.445 L 17.249 9.430 16.894 9.335 C 16.405 9.203,15.431 9.014,14.880 8.943 C 13.762 8.799,13.468 8.782,12.000 8.782 C 10.532 8.782,10.238 8.799,9.120 8.943 C 8.571 9.014,7.596 9.203,7.110 9.334 L 6.760 9.427 6.760 8.643 C 6.760 6.686,6.949 6.380,8.216 6.283 C 8.809 6.237,15.135 6.235,15.719 6.281 M1.826 13.285 C 1.625 13.331,1.467 13.446,1.354 13.629 C 1.233 13.826,1.219 14.280,1.275 16.220 C 1.331 18.152,1.422 18.928,1.682 19.727 C 2.105 21.022,2.978 21.895,4.273 22.318 C 5.072 22.578,5.848 22.669,7.780 22.725 C 9.720 22.781,10.174 22.767,10.371 22.646 C 10.870 22.337,10.848 21.591,10.332 21.336 C 10.193 21.267,10.028 21.259,8.360 21.235 C 7.359 21.220,6.351 21.188,6.120 21.164 C 3.833 20.920,3.080 20.167,2.836 17.880 C 2.812 17.649,2.780 16.641,2.765 15.640 C 2.736 13.623,2.737 13.628,2.464 13.421 C 2.355 13.337,2.274 13.307,2.040 13.261 C 2.007 13.254,1.911 13.265,1.826 13.285 M5.807 13.289 C 5.560 13.342,5.346 13.567,5.280 13.841 C 5.223 14.078,5.253 16.004,5.323 16.660 C 5.480 18.117,6.179 18.887,7.580 19.146 C 7.952 19.215,8.262 19.220,12.000 19.220 C 15.738 19.220,16.048 19.215,16.420 19.146 C 17.821 18.887,18.521 18.116,18.677 16.660 C 18.746 16.017,18.776 14.127,18.722 13.866 C 18.581 13.190,17.719 13.041,17.353 13.631 C 17.262 13.777,17.259 13.808,17.234 15.180 C 17.207 16.605,17.176 16.899,17.024 17.192 C 16.893 17.444,16.612 17.597,16.120 17.686 C 15.680 17.765,8.318 17.765,7.880 17.686 C 6.889 17.506,6.762 17.208,6.759 15.060 C 6.759 14.488,6.739 13.939,6.717 13.841 C 6.620 13.420,6.247 13.194,5.807 13.289 M21.807 13.289 C 21.574 13.339,21.348 13.565,21.286 13.811 C 21.256 13.933,21.240 14.455,21.240 15.348 C 21.240 17.335,21.160 18.337,20.941 19.093 C 20.556 20.421,19.754 20.964,17.880 21.164 C 17.649 21.188,16.641 21.220,15.640 21.234 C 13.899 21.259,13.813 21.264,13.660 21.344 C 13.572 21.390,13.447 21.501,13.383 21.592 C 13.222 21.820,13.217 22.161,13.371 22.393 C 13.556 22.674,13.707 22.735,14.258 22.752 C 15.005 22.776,17.640 22.689,18.220 22.621 C 19.708 22.446,20.591 22.090,21.331 21.365 C 22.061 20.652,22.437 19.737,22.620 18.233 C 22.706 17.533,22.788 14.235,22.728 13.914 C 22.639 13.432,22.279 13.188,21.807 13.289 " stroke="none" fill-rule="evenodd" fill="black"></path></svg>