<svg width="24" height="24" viewBox="0 0 24 24" fill="none" xmlns="http://www.w3.org/2000/svg"><path d="M6.320 2.278 C 5.839 2.346,5.386 2.539,5.016 2.831 C 4.768 3.027,3.042 4.842,2.852 5.106 C 2.378 5.767,2.202 6.439,2.280 7.285 C 2.537 10.076,3.886 13.000,6.199 15.780 C 8.423 18.452,10.816 20.232,13.376 21.116 C 14.628 21.548,15.668 21.730,16.900 21.730 C 18.011 21.730,18.400 21.634,19.030 21.207 C 19.249 21.058,20.715 19.579,21.066 19.153 C 21.700 18.383,21.902 17.369,21.616 16.398 C 21.453 15.841,21.037 15.235,20.591 14.900 C 20.180 14.592,18.168 13.456,17.812 13.331 C 17.534 13.234,17.443 13.222,16.980 13.221 C 16.541 13.220,16.416 13.234,16.180 13.313 C 15.719 13.466,15.412 13.664,14.976 14.087 C 14.621 14.433,14.556 14.480,14.433 14.480 C 13.707 14.480,12.236 13.349,10.954 11.805 C 10.206 10.904,9.760 10.047,9.760 9.512 C 9.760 9.329,9.777 9.298,10.042 8.989 C 10.576 8.366,10.781 7.806,10.777 6.980 C 10.775 6.504,10.764 6.428,10.649 6.091 C 10.579 5.888,10.454 5.609,10.370 5.471 C 10.189 5.175,9.112 3.649,8.831 3.292 C 8.267 2.575,7.216 2.151,6.320 2.278 M7.219 3.879 C 7.513 4.022,7.671 4.205,8.418 5.261 C 9.262 6.455,9.381 6.729,9.286 7.248 C 9.223 7.584,9.104 7.801,8.792 8.143 C 8.469 8.498,8.343 8.743,8.279 9.140 C 8.093 10.308,8.907 11.888,10.610 13.660 C 11.700 14.796,12.742 15.542,13.660 15.847 C 13.894 15.925,14.022 15.940,14.440 15.939 C 15.150 15.938,15.283 15.880,15.860 15.318 C 16.349 14.842,16.531 14.730,16.870 14.695 C 17.208 14.660,17.399 14.741,18.580 15.421 C 19.721 16.077,19.933 16.245,20.110 16.631 C 20.260 16.956,20.282 17.448,20.162 17.766 C 20.051 18.063,19.981 18.147,19.015 19.148 C 17.965 20.235,18.003 20.214,17.069 20.234 C 16.035 20.256,15.136 20.121,14.124 19.793 C 12.192 19.166,10.429 18.031,8.700 16.299 C 6.209 13.805,4.528 10.998,3.959 8.380 C 3.719 7.280,3.701 6.663,3.895 6.267 C 4.017 6.018,4.478 5.497,5.484 4.474 C 6.144 3.802,6.226 3.756,6.720 3.772 C 6.943 3.779,7.071 3.806,7.219 3.879 M15.815 4.277 C 15.330 4.397,15.098 5.004,15.383 5.408 C 15.588 5.697,15.719 5.738,16.495 5.754 L 17.170 5.768 15.770 7.174 C 14.999 7.947,14.346 8.625,14.318 8.680 C 14.290 8.735,14.267 8.881,14.267 9.004 C 14.267 9.498,14.682 9.816,15.189 9.711 C 15.371 9.673,15.449 9.603,16.806 8.251 L 18.232 6.831 18.246 7.525 C 18.259 8.169,18.267 8.231,18.353 8.369 C 18.715 8.952,19.581 8.810,19.719 8.147 C 19.750 7.997,19.760 7.429,19.752 6.373 C 19.741 4.888,19.736 4.813,19.656 4.660 C 19.610 4.572,19.496 4.446,19.403 4.380 L 19.233 4.260 17.587 4.253 C 16.681 4.249,15.884 4.260,15.815 4.277 " stroke="none" fill-rule="evenodd" fill="black"></path></svg>