<svg width="24" height="24" viewBox="0 0 24 24" fill="none" xmlns="http://www.w3.org/2000/svg"><path d="M7.339 3.281 C 6.084 3.413,4.951 4.204,4.068 5.564 C 3.386 6.614,3.183 7.475,3.280 8.911 C 3.464 11.634,4.638 14.186,6.745 16.443 C 8.999 18.859,11.611 20.290,14.443 20.663 C 15.153 20.756,16.280 20.756,16.720 20.663 C 17.345 20.530,17.838 20.321,18.436 19.932 C 20.068 18.872,20.848 17.506,20.716 15.936 C 20.622 14.830,20.047 13.915,19.079 13.336 C 18.394 12.927,17.612 12.519,17.323 12.421 C 16.951 12.295,16.387 12.223,16.019 12.256 C 15.159 12.334,14.461 12.645,13.706 13.289 C 13.561 13.413,13.536 13.420,13.246 13.418 C 12.887 13.415,12.633 13.316,12.205 13.011 C 11.865 12.769,11.231 12.136,10.989 11.795 C 10.679 11.360,10.581 11.111,10.581 10.754 C 10.580 10.465,10.588 10.439,10.711 10.294 C 11.034 9.915,11.224 9.634,11.385 9.298 C 11.790 8.450,11.860 7.501,11.580 6.672 C 11.488 6.399,11.068 5.596,10.664 4.921 C 10.099 3.978,9.226 3.414,8.121 3.281 C 7.754 3.237,7.755 3.237,7.339 3.281 M15.815 4.277 C 15.330 4.397,15.098 5.004,15.383 5.408 C 15.588 5.697,15.719 5.738,16.495 5.754 L 17.170 5.768 15.770 7.174 C 14.999 7.947,14.346 8.625,14.318 8.680 C 14.290 8.735,14.267 8.881,14.267 9.004 C 14.267 9.498,14.682 9.816,15.189 9.711 C 15.371 9.673,15.449 9.603,16.806 8.251 L 18.232 6.831 18.246 7.525 C 18.259 8.169,18.267 8.231,18.353 8.369 C 18.715 8.952,19.581 8.810,19.719 8.147 C 19.750 7.997,19.760 7.429,19.752 6.373 C 19.741 4.888,19.736 4.813,19.656 4.660 C 19.610 4.572,19.496 4.446,19.403 4.380 L 19.233 4.260 17.587 4.253 C 16.681 4.249,15.884 4.260,15.815 4.277 M8.267 4.816 C 8.848 4.971,9.128 5.231,9.588 6.043 C 10.187 7.103,10.246 7.257,10.243 7.753 C 10.239 8.303,10.072 8.719,9.650 9.225 C 9.190 9.775,9.055 10.176,9.092 10.880 C 9.132 11.659,9.432 12.291,10.165 13.141 C 10.835 13.919,11.624 14.500,12.380 14.774 C 12.631 14.865,12.791 14.894,13.121 14.910 C 13.828 14.943,14.227 14.808,14.775 14.350 C 15.441 13.795,16.169 13.614,16.836 13.839 C 17.103 13.929,18.254 14.559,18.565 14.785 C 19.000 15.101,19.239 15.625,19.240 16.262 C 19.241 17.095,18.831 17.774,17.904 18.478 C 17.469 18.808,16.986 19.056,16.571 19.162 C 16.336 19.222,16.130 19.240,15.661 19.240 C 13.213 19.240,10.749 18.176,8.620 16.199 C 6.686 14.403,5.426 12.339,4.957 10.197 C 4.747 9.238,4.694 7.991,4.839 7.423 C 5.001 6.791,5.384 6.175,5.999 5.558 C 6.408 5.148,6.704 4.960,7.140 4.835 C 7.434 4.750,7.985 4.741,8.267 4.816 " stroke="none" fill-rule="evenodd" fill="black"></path></svg>