<svg width="24" height="24" viewBox="0 0 24 24" fill="none" xmlns="http://www.w3.org/2000/svg"><path d="M6.876 1.281 C 6.473 1.329,6.133 1.427,5.776 1.600 C 4.605 2.166,3.784 3.285,3.434 4.795 C 3.363 5.104,3.351 5.358,3.320 7.260 C 3.274 10.063,3.262 10.350,3.190 10.522 C 3.132 10.661,2.924 10.919,2.235 11.706 C 1.550 12.489,1.279 13.050,1.271 13.700 C 1.261 14.446,1.534 15.011,2.327 15.885 C 2.678 16.272,7.178 20.690,7.960 21.415 C 9.020 22.399,9.647 22.731,10.440 22.729 C 11.232 22.727,11.854 22.405,12.860 21.475 C 13.688 20.710,20.870 13.668,21.085 13.410 C 22.031 12.276,22.623 10.801,22.717 9.340 C 22.904 6.411,21.325 3.724,18.660 2.440 C 17.630 1.944,16.630 1.720,15.440 1.720 C 13.741 1.720,12.168 2.253,10.878 3.265 C 10.755 3.361,10.644 3.440,10.631 3.440 C 10.618 3.440,10.553 3.344,10.487 3.227 C 10.078 2.502,9.221 1.754,8.483 1.477 C 8.027 1.306,7.356 1.224,6.876 1.281 M8.018 2.913 C 8.168 2.983,8.379 3.106,8.487 3.185 C 8.775 3.397,9.141 3.851,9.331 4.233 L 9.496 4.567 9.168 4.867 C 8.758 5.242,8.640 5.432,8.640 5.718 C 8.640 6.140,8.952 6.451,9.374 6.451 C 9.488 6.451,9.635 6.423,9.701 6.389 C 9.766 6.355,10.234 5.926,10.740 5.436 C 11.629 4.575,11.999 4.263,12.420 4.020 C 13.355 3.479,14.382 3.200,15.440 3.200 C 18.021 3.200,20.321 4.891,21.019 7.300 C 21.197 7.915,21.253 8.384,21.228 9.059 C 21.188 10.131,20.897 11.055,20.326 11.920 C 20.006 12.405,19.661 12.764,17.240 15.127 C 15.975 16.362,14.263 18.032,13.436 18.840 C 11.665 20.567,11.275 20.916,10.905 21.102 C 10.323 21.394,9.951 21.237,8.920 20.264 C 7.965 19.363,3.613 15.080,3.334 14.768 C 2.914 14.296,2.742 13.965,2.769 13.683 C 2.800 13.362,2.966 13.122,3.816 12.177 C 4.412 11.514,4.625 11.127,4.721 10.536 C 4.748 10.372,4.780 9.258,4.799 7.800 C 4.826 5.774,4.843 5.290,4.896 5.057 C 5.045 4.399,5.347 3.843,5.796 3.400 C 6.300 2.903,6.673 2.752,7.343 2.773 C 7.698 2.785,7.780 2.802,8.018 2.913 M6.340 12.676 C 5.858 12.796,5.626 13.340,5.874 13.770 C 5.944 13.893,10.178 18.046,10.382 18.193 C 10.731 18.445,11.261 18.305,11.468 17.905 C 11.550 17.746,11.549 17.413,11.466 17.252 C 11.395 17.114,7.080 12.874,6.894 12.758 C 6.756 12.673,6.503 12.636,6.340 12.676 " stroke="none" fill-rule="evenodd" fill="black"></path></svg>