<svg width="24" height="24" viewBox="0 0 24 24" fill="none" xmlns="http://www.w3.org/2000/svg"><path d="M7.433 1.280 C 6.940 1.319,6.555 1.436,6.251 1.639 C 5.655 2.037,5.358 2.568,5.277 3.380 C 5.249 3.668,5.220 3.791,5.174 3.820 C 4.893 3.998,4.760 4.217,4.760 4.500 C 4.760 4.783,4.893 5.002,5.174 5.180 C 5.220 5.209,5.249 5.333,5.278 5.626 C 5.385 6.704,5.955 7.396,6.960 7.669 C 7.202 7.735,7.555 7.740,12.000 7.740 C 16.445 7.740,16.798 7.735,17.040 7.669 C 18.034 7.399,18.610 6.708,18.721 5.653 C 18.742 5.459,18.759 5.287,18.759 5.270 C 18.760 5.230,19.566 5.234,20.050 5.278 C 20.354 5.305,20.479 5.335,20.615 5.415 C 20.818 5.534,21.003 5.734,21.130 5.971 C 21.216 6.133,21.220 6.189,21.233 7.250 C 21.242 7.969,21.231 8.434,21.202 8.569 C 21.100 9.044,20.732 9.385,20.200 9.497 C 20.035 9.532,18.640 9.750,17.100 9.980 C 13.468 10.525,13.250 10.569,12.620 10.892 C 11.854 11.285,11.426 11.983,11.298 13.050 L 11.271 13.280 11.045 13.281 C 10.532 13.282,10.047 13.475,9.743 13.801 C 9.528 14.031,9.420 14.236,9.330 14.589 C 9.266 14.835,9.260 15.146,9.260 18.000 C 9.260 21.452,9.259 21.429,9.508 21.887 C 9.633 22.117,9.922 22.398,10.153 22.517 C 10.527 22.707,10.782 22.738,12.000 22.738 C 13.218 22.738,13.473 22.707,13.847 22.517 C 14.078 22.398,14.367 22.117,14.492 21.887 C 14.741 21.429,14.740 21.452,14.740 18.000 C 14.740 15.146,14.734 14.835,14.670 14.589 C 14.580 14.236,14.472 14.031,14.257 13.801 C 13.960 13.483,13.468 13.282,12.985 13.281 L 12.791 13.280 12.818 13.050 C 12.856 12.739,13.000 12.435,13.171 12.304 C 13.500 12.053,13.843 11.984,17.340 11.460 C 20.407 11.000,20.661 10.956,21.031 10.817 C 21.671 10.577,22.277 9.979,22.539 9.327 C 22.721 8.879,22.740 8.692,22.740 7.400 C 22.740 6.359,22.729 6.134,22.667 5.869 C 22.414 4.791,21.504 3.952,20.427 3.803 C 20.255 3.779,19.810 3.760,19.437 3.760 C 19.065 3.760,18.760 3.746,18.759 3.730 C 18.753 3.483,18.665 2.936,18.600 2.739 C 18.365 2.034,17.781 1.514,17.020 1.333 C 16.768 1.273,16.287 1.265,12.280 1.258 C 9.827 1.253,7.646 1.263,7.433 1.280 M16.674 2.797 C 16.884 2.838,17.033 2.942,17.140 3.124 C 17.215 3.252,17.220 3.332,17.220 4.500 C 17.220 5.829,17.215 5.865,17.007 6.054 C 16.801 6.240,16.899 6.236,12.000 6.236 C 7.101 6.236,7.199 6.240,6.993 6.054 C 6.785 5.865,6.780 5.829,6.780 4.500 C 6.780 3.332,6.785 3.252,6.860 3.124 C 6.964 2.947,7.118 2.835,7.307 2.799 C 7.521 2.757,16.461 2.756,16.674 2.797 M13.168 14.832 C 13.245 14.909,13.245 21.091,13.168 21.168 C 13.092 21.244,10.908 21.244,10.832 21.168 C 10.790 21.126,10.778 20.514,10.769 18.127 C 10.763 16.483,10.772 15.066,10.791 14.979 C 10.818 14.847,10.844 14.816,10.942 14.793 C 11.007 14.779,11.523 14.770,12.088 14.773 C 12.871 14.778,13.129 14.792,13.168 14.832 " fill="#1C274C" stroke="none" fill-rule="evenodd"></path></svg>