<svg width="24" height="24" viewBox="0 0 24 24" fill="none" xmlns="http://www.w3.org/2000/svg"><path d="M4.580 1.279 C 3.411 1.342,2.775 1.605,2.133 2.295 C 1.657 2.806,1.423 3.310,1.312 4.065 C 1.236 4.585,1.236 19.415,1.312 19.935 C 1.431 20.744,1.670 21.230,2.220 21.780 C 2.759 22.319,3.253 22.567,4.028 22.685 C 4.454 22.750,17.913 22.784,19.180 22.723 C 20.367 22.666,20.809 22.549,21.375 22.145 C 22.002 21.696,22.415 21.097,22.605 20.361 C 22.796 19.618,22.796 16.382,22.605 15.639 C 22.445 15.019,22.169 14.560,21.687 14.116 C 21.200 13.665,20.673 13.419,19.995 13.325 C 19.829 13.301,19.177 13.270,18.546 13.255 L 17.400 13.227 18.991 11.624 C 19.884 10.723,20.694 9.871,20.837 9.680 C 21.403 8.928,21.614 8.107,21.464 7.245 C 21.318 6.410,21.018 5.951,19.820 4.726 C 18.512 3.390,17.868 2.843,17.340 2.622 C 16.590 2.308,15.513 2.335,14.825 2.684 C 14.237 2.983,14.062 3.136,12.270 4.916 L 10.760 6.416 10.759 5.938 C 10.756 5.005,10.688 3.983,10.606 3.655 C 10.450 3.027,10.175 2.566,9.687 2.116 C 9.197 1.663,8.673 1.419,7.984 1.323 C 7.576 1.266,5.349 1.237,4.580 1.279 M7.779 2.802 C 8.532 2.911,9.093 3.470,9.199 4.220 C 9.253 4.606,9.253 19.401,9.198 19.779 C 9.089 20.532,8.530 21.093,7.780 21.199 C 7.416 21.250,4.584 21.250,4.220 21.199 C 3.839 21.145,3.501 20.972,3.244 20.701 C 2.992 20.434,2.856 20.150,2.802 19.779 C 2.747 19.397,2.747 4.603,2.802 4.221 C 2.856 3.850,2.992 3.566,3.244 3.299 C 3.492 3.038,3.839 2.854,4.180 2.805 C 4.519 2.755,7.443 2.753,7.779 2.802 M16.647 3.958 C 16.933 4.044,17.309 4.349,18.156 5.180 C 19.188 6.192,19.714 6.775,19.866 7.076 C 19.972 7.283,19.980 7.334,19.980 7.760 C 19.980 8.208,19.976 8.227,19.843 8.472 C 19.767 8.613,19.517 8.931,19.277 9.192 C 19.041 9.449,17.028 11.478,14.803 13.700 L 10.759 17.740 10.770 13.240 L 10.780 8.740 10.877 8.540 C 10.951 8.387,11.359 7.952,12.617 6.685 C 14.946 4.340,15.251 4.069,15.711 3.937 C 15.922 3.876,16.414 3.887,16.647 3.958 M19.779 14.802 C 20.532 14.911,21.093 15.470,21.199 16.220 C 21.250 16.584,21.250 19.416,21.199 19.780 C 21.145 20.161,20.972 20.499,20.701 20.756 C 20.434 21.008,20.150 21.144,19.779 21.198 C 19.605 21.223,17.763 21.239,14.871 21.239 L 10.243 21.240 10.319 21.110 C 10.433 20.918,10.581 20.495,10.639 20.200 L 10.690 19.940 13.275 17.350 L 15.860 14.760 17.680 14.761 C 18.686 14.761,19.625 14.780,19.779 14.802 M4.815 18.278 C 4.331 18.393,4.098 19.004,4.383 19.408 C 4.605 19.722,4.676 19.738,5.869 19.753 C 7.122 19.768,7.296 19.744,7.519 19.521 C 7.918 19.122,7.731 18.423,7.189 18.286 C 6.983 18.235,5.025 18.228,4.815 18.278 " stroke="none" fill-rule="evenodd" fill="black"></path></svg>