<svg width="24" height="24" viewBox="0 0 24 24" fill="none" xmlns="http://www.w3.org/2000/svg"><path d="M5.579 1.280 C 3.463 1.465,1.763 3.011,1.333 5.140 C 1.264 5.479,1.260 5.874,1.260 12.000 C 1.260 18.126,1.264 18.521,1.333 18.860 C 1.730 20.826,3.174 22.270,5.140 22.667 C 5.479 22.736,5.874 22.740,12.000 22.740 C 18.126 22.740,18.521 22.736,18.860 22.667 C 20.543 22.327,21.860 21.213,22.457 19.624 C 22.820 18.660,22.820 17.340,22.457 16.376 C 21.872 14.819,20.558 13.685,18.964 13.361 C 18.753 13.318,18.314 13.271,17.989 13.255 L 17.398 13.228 18.611 12.004 C 19.870 10.734,20.086 10.471,20.411 9.820 C 21.114 8.410,21.011 6.577,20.153 5.220 C 18.939 3.301,16.489 2.513,14.372 3.361 C 13.600 3.670,13.278 3.920,11.915 5.271 L 10.771 6.405 10.743 5.913 C 10.710 5.338,10.604 4.765,10.457 4.376 C 9.695 2.348,7.716 1.092,5.579 1.280 M6.980 2.894 C 7.508 3.068,7.854 3.286,8.284 3.716 C 8.710 4.142,8.926 4.482,9.110 5.020 L 9.220 5.340 9.220 12.000 L 9.220 18.660 9.110 18.980 C 8.926 19.518,8.710 19.858,8.284 20.284 C 7.857 20.712,7.515 20.928,6.980 21.108 C 6.684 21.209,6.611 21.217,6.000 21.217 C 5.389 21.217,5.316 21.209,5.020 21.108 C 4.485 20.928,4.143 20.712,3.716 20.284 C 3.290 19.858,3.074 19.518,2.890 18.980 L 2.780 18.660 2.780 12.000 L 2.780 5.340 2.890 5.020 C 3.075 4.481,3.290 4.142,3.716 3.716 C 4.433 2.999,5.066 2.750,6.100 2.775 C 6.572 2.787,6.710 2.806,6.980 2.894 M17.140 4.654 C 18.159 4.986,18.986 5.854,19.289 6.908 C 19.416 7.353,19.415 8.162,19.286 8.618 C 19.162 9.054,18.921 9.500,18.621 9.848 C 18.482 10.008,16.656 11.850,14.564 13.940 L 10.760 17.740 10.760 13.138 L 10.760 8.537 12.450 6.856 C 13.475 5.836,14.233 5.114,14.377 5.020 C 14.960 4.641,15.434 4.518,16.240 4.536 C 16.735 4.547,16.867 4.564,17.140 4.654 M18.980 14.891 C 19.515 15.072,19.857 15.288,20.284 15.716 C 20.712 16.143,20.928 16.485,21.108 17.020 C 21.209 17.316,21.217 17.389,21.217 18.000 C 21.217 18.611,21.209 18.684,21.108 18.980 C 20.928 19.515,20.712 19.857,20.284 20.284 C 19.858 20.710,19.518 20.926,18.980 21.110 L 18.660 21.220 14.067 21.231 L 9.474 21.242 9.645 21.031 C 9.739 20.915,11.176 19.456,12.838 17.788 L 15.860 14.756 17.260 14.770 L 18.660 14.783 18.980 14.891 M5.840 16.270 C 5.155 16.326,4.529 16.835,4.331 17.495 C 4.253 17.758,4.253 18.242,4.331 18.505 C 4.447 18.892,4.709 19.232,5.073 19.468 C 5.355 19.651,5.625 19.726,6.000 19.726 C 6.375 19.726,6.645 19.651,6.927 19.468 C 7.459 19.123,7.726 18.632,7.726 18.000 C 7.726 17.646,7.654 17.366,7.499 17.115 C 7.138 16.532,6.514 16.214,5.840 16.270 M6.167 17.826 C 6.319 17.964,6.212 18.240,6.007 18.240 C 5.793 18.240,5.683 17.992,5.826 17.833 C 5.909 17.742,6.070 17.739,6.167 17.826 " stroke="none" fill-rule="evenodd" fill="black"></path></svg>