<svg width="24" height="24" viewBox="0 0 24 24" fill="none" xmlns="http://www.w3.org/2000/svg"><path d="M4.220 2.937 C 3.810 3.040,3.152 3.362,2.614 3.725 C 1.975 4.155,1.524 4.701,1.349 5.256 L 1.260 5.540 1.260 12.240 L 1.260 18.940 1.363 19.222 C 1.607 19.888,2.161 20.468,3.034 20.970 C 5.141 22.183,9.033 22.863,13.030 22.717 C 15.482 22.627,17.453 22.311,19.232 21.723 C 21.106 21.102,22.258 20.257,22.637 19.222 L 22.740 18.940 22.740 12.240 L 22.740 5.540 22.650 5.253 C 22.410 4.492,21.664 3.779,20.540 3.240 C 19.971 2.966,19.789 2.913,19.360 2.891 C 18.630 2.854,18.081 3.073,17.540 3.618 C 17.171 3.988,16.968 4.349,16.840 4.856 C 16.767 5.144,16.760 5.307,16.760 6.641 L 16.760 8.110 16.630 8.136 C 15.377 8.389,13.806 8.519,12.000 8.519 C 10.194 8.519,8.623 8.389,7.370 8.136 L 7.240 8.110 7.240 6.641 C 7.240 5.307,7.233 5.144,7.160 4.856 C 6.923 3.915,6.183 3.146,5.316 2.941 C 5.011 2.870,4.497 2.867,4.220 2.937 M5.101 4.435 C 5.300 4.525,5.605 4.858,5.679 5.065 C 5.721 5.181,5.738 5.540,5.750 6.490 C 5.758 7.189,5.757 7.760,5.747 7.760 C 5.738 7.760,5.489 7.678,5.195 7.578 C 3.718 7.074,2.760 6.398,2.760 5.860 C 2.760 5.483,3.243 5.022,4.080 4.600 C 4.593 4.341,4.816 4.305,5.101 4.435 M19.812 4.549 C 20.716 4.983,21.240 5.464,21.240 5.860 C 21.240 6.398,20.282 7.074,18.805 7.578 C 18.511 7.678,18.262 7.760,18.253 7.760 C 18.243 7.760,18.242 7.189,18.250 6.490 C 18.267 5.056,18.272 5.026,18.557 4.709 C 18.917 4.310,19.229 4.270,19.812 4.549 M3.073 8.278 C 3.439 8.495,4.069 8.769,4.696 8.984 C 8.743 10.373,15.257 10.373,19.304 8.984 C 19.931 8.769,20.561 8.495,20.927 8.278 C 21.074 8.191,21.204 8.120,21.217 8.120 C 21.230 8.120,21.240 10.511,21.240 13.434 L 21.240 18.748 21.148 18.884 C 21.098 18.959,21.043 19.017,21.026 19.013 C 21.009 19.009,20.495 18.577,19.884 18.053 C 19.273 17.529,18.658 17.032,18.517 16.949 C 17.996 16.643,17.295 16.496,16.659 16.561 C 16.081 16.620,15.753 16.730,15.279 17.025 C 14.693 17.389,14.443 17.442,14.127 17.270 C 14.036 17.221,13.229 16.478,12.335 15.620 C 10.457 13.819,10.357 13.730,10.004 13.545 C 9.627 13.348,9.292 13.270,8.820 13.269 C 8.341 13.268,8.018 13.344,7.632 13.547 C 7.213 13.767,5.971 14.828,4.323 16.374 C 3.522 17.125,2.842 17.754,2.813 17.772 C 2.769 17.798,2.760 16.975,2.760 12.962 C 2.760 10.299,2.770 8.120,2.783 8.120 C 2.796 8.120,2.926 8.191,3.073 8.278 M17.500 10.807 C 16.919 10.916,16.270 11.430,15.992 12.000 C 15.560 12.885,15.726 13.888,16.419 14.581 C 16.903 15.065,17.483 15.278,18.177 15.227 C 20.081 15.089,20.934 12.773,19.581 11.419 C 19.031 10.870,18.304 10.655,17.500 10.807 M18.271 12.302 C 18.911 12.569,18.911 13.431,18.271 13.698 C 18.083 13.777,17.917 13.777,17.729 13.698 C 17.101 13.436,17.084 12.600,17.700 12.316 C 17.897 12.225,18.076 12.221,18.271 12.302 M9.297 14.859 C 9.386 14.903,10.076 15.532,10.898 16.318 C 13.175 18.497,13.091 18.422,13.455 18.601 C 13.830 18.785,14.080 18.840,14.535 18.840 C 15.038 18.839,15.366 18.732,15.884 18.400 C 16.355 18.098,16.474 18.060,16.961 18.060 C 17.354 18.060,17.399 18.068,17.641 18.188 C 17.820 18.277,18.180 18.558,18.810 19.101 C 19.311 19.533,19.720 19.900,19.720 19.918 C 19.720 19.959,19.002 20.240,18.499 20.394 C 17.318 20.758,16.067 20.986,14.260 21.167 C 13.561 21.237,10.452 21.238,9.740 21.168 C 6.920 20.891,4.865 20.357,3.609 19.575 C 3.359 19.418,3.324 19.383,3.367 19.331 C 3.395 19.297,4.184 18.554,5.119 17.679 C 6.957 15.961,8.164 14.916,8.420 14.821 C 8.638 14.741,9.093 14.761,9.297 14.859 " stroke="none" fill-rule="evenodd" fill="black"></path></svg>