<svg width="24" height="24" viewBox="0 0 24 24" fill="none" xmlns="http://www.w3.org/2000/svg"><path d="M13.040 1.281 C 11.241 1.401,9.450 2.098,8.020 3.235 C 7.708 3.483,3.791 7.325,3.392 7.774 C 2.770 8.475,2.400 9.021,2.042 9.766 C 0.831 12.290,1.038 15.276,2.587 17.607 C 2.903 18.083,3.449 18.737,3.671 18.906 C 4.061 19.204,4.602 19.068,4.805 18.622 C 4.965 18.269,4.878 18.028,4.406 17.508 C 3.658 16.686,3.121 15.628,2.879 14.500 C 2.770 13.990,2.729 12.950,2.798 12.427 C 2.952 11.249,3.376 10.213,4.090 9.263 C 4.350 8.917,8.452 4.819,8.941 4.417 C 10.218 3.365,11.949 2.760,13.680 2.760 C 15.439 2.760,17.138 3.357,18.460 4.441 C 18.804 4.723,19.476 5.414,19.732 5.748 C 20.702 7.016,21.240 8.634,21.240 10.280 C 21.240 12.041,20.637 13.727,19.538 15.040 C 19.105 15.556,15.083 19.531,14.820 19.702 C 14.205 20.101,13.589 20.262,12.803 20.229 C 11.881 20.190,11.246 19.922,10.606 19.304 C 10.075 18.792,9.792 18.309,9.636 17.652 C 9.480 16.996,9.547 16.128,9.799 15.542 C 10.016 15.038,10.150 14.882,11.862 13.160 C 12.791 12.225,13.580 11.402,13.616 11.332 C 13.689 11.185,13.700 10.898,13.637 10.733 C 13.585 10.595,13.417 10.412,13.272 10.336 C 13.130 10.262,12.785 10.264,12.624 10.341 C 12.554 10.374,11.731 11.170,10.795 12.111 C 9.417 13.494,9.048 13.887,8.862 14.170 C 7.790 15.803,7.790 17.922,8.863 19.550 C 9.146 19.979,9.795 20.636,10.194 20.898 C 10.775 21.280,11.434 21.548,12.069 21.662 C 12.479 21.736,13.342 21.747,13.726 21.684 C 14.459 21.563,15.252 21.231,15.843 20.799 C 16.354 20.424,20.537 16.227,20.930 15.694 C 21.868 14.424,22.431 13.060,22.662 11.500 C 22.752 10.890,22.752 9.691,22.661 9.060 C 22.364 7.001,21.457 5.232,19.956 3.777 C 18.134 2.013,15.628 1.108,13.040 1.281 " stroke="none" fill-rule="evenodd" fill="black"></path></svg>