<svg width="24" height="24" viewBox="0 0 24 24" fill="none" xmlns="http://www.w3.org/2000/svg"><path d="M6.660 1.283 C 5.109 1.333,4.352 1.470,3.610 1.833 C 2.655 2.301,2.103 3.101,1.918 4.289 C 1.843 4.767,1.890 6.098,2.015 7.040 C 2.142 7.993,3.555 17.422,3.698 18.266 C 3.911 19.526,4.043 20.060,4.278 20.604 C 4.846 21.925,5.790 22.516,7.600 22.687 C 8.366 22.759,15.634 22.759,16.400 22.687 C 18.734 22.467,19.671 21.567,20.157 19.080 C 20.294 18.380,20.448 17.384,21.197 12.380 C 22.147 6.029,22.096 6.430,22.097 5.220 C 22.098 4.265,22.093 4.203,21.994 3.840 C 21.730 2.879,21.218 2.239,20.390 1.833 C 19.621 1.456,18.939 1.339,17.160 1.280 C 15.848 1.236,8.031 1.238,6.660 1.283 M18.460 2.835 C 20.019 3.041,20.559 3.532,20.629 4.810 L 20.652 5.240 12.000 5.240 L 3.348 5.240 3.371 4.810 C 3.448 3.402,4.090 2.925,6.076 2.801 C 6.910 2.749,18.038 2.780,18.460 2.835 M4.387 7.450 L 5.073 8.140 4.486 8.789 C 4.019 9.307,3.894 9.424,3.871 9.369 C 3.855 9.331,3.769 8.778,3.680 8.140 C 3.592 7.502,3.511 6.930,3.501 6.870 C 3.484 6.772,3.494 6.760,3.591 6.760 C 3.680 6.760,3.832 6.892,4.387 7.450 M6.200 6.880 C 6.153 6.946,6.101 7.000,6.085 7.000 C 6.068 7.000,6.003 6.946,5.940 6.880 L 5.825 6.760 6.055 6.760 L 6.285 6.760 6.200 6.880 M10.320 7.380 L 10.939 8.000 9.970 8.970 L 9.000 9.940 8.080 9.020 C 7.574 8.514,7.160 8.090,7.160 8.077 C 7.160 8.064,7.422 7.762,7.743 7.407 L 8.325 6.760 9.013 6.760 L 9.701 6.760 10.320 7.380 M12.089 6.849 L 12.000 6.938 11.911 6.849 L 11.822 6.760 12.000 6.760 L 12.178 6.760 12.089 6.849 M16.257 7.407 C 16.578 7.762,16.840 8.064,16.840 8.077 C 16.840 8.090,16.426 8.514,15.920 9.020 L 15.000 9.940 14.030 8.970 L 13.061 8.000 13.680 7.380 L 14.299 6.760 14.987 6.760 L 15.675 6.760 16.257 7.407 M18.060 6.880 C 17.997 6.946,17.932 7.000,17.915 7.000 C 17.899 7.000,17.847 6.946,17.800 6.880 L 17.715 6.760 17.945 6.760 L 18.175 6.760 18.060 6.880 M20.499 6.870 C 20.489 6.930,20.408 7.502,20.319 8.140 C 20.231 8.778,20.145 9.331,20.129 9.369 C 20.106 9.424,19.981 9.306,19.514 8.789 L 18.927 8.140 19.613 7.450 C 20.168 6.892,20.320 6.760,20.409 6.760 C 20.506 6.760,20.516 6.772,20.499 6.870 M12.980 10.040 L 13.940 11.000 12.970 11.970 L 12.000 12.940 11.030 11.970 L 10.060 11.000 11.020 10.040 C 11.548 9.512,11.989 9.080,12.000 9.080 C 12.011 9.080,12.452 9.512,12.980 10.040 M7.059 11.881 L 6.177 12.763 5.348 11.876 L 4.519 10.990 4.650 10.845 C 4.721 10.765,5.085 10.360,5.457 9.947 L 6.134 9.194 7.037 10.097 L 7.940 11.000 7.059 11.881 M18.546 9.950 C 18.917 10.362,19.279 10.765,19.350 10.845 L 19.481 10.990 18.652 11.876 L 17.823 12.763 16.942 11.881 L 16.060 11.000 16.960 10.100 C 17.455 9.605,17.862 9.200,17.865 9.200 C 17.869 9.200,18.175 9.537,18.546 9.950 M9.980 13.040 L 10.939 14.000 10.020 14.920 C 9.514 15.426,9.088 15.836,9.072 15.830 C 9.057 15.825,8.630 15.379,8.125 14.840 L 7.205 13.860 8.092 12.970 C 8.580 12.480,8.989 12.080,9.000 12.080 C 9.011 12.080,9.452 12.512,9.980 13.040 M15.908 12.970 L 16.795 13.860 15.875 14.840 C 15.370 15.379,14.943 15.825,14.928 15.830 C 14.912 15.836,14.486 15.426,13.980 14.920 L 13.061 14.000 14.020 13.040 C 14.548 12.512,14.989 12.080,15.000 12.080 C 15.011 12.080,15.420 12.480,15.908 12.970 M4.869 14.069 C 4.735 14.206,4.619 14.312,4.612 14.306 C 4.595 14.288,4.441 13.273,4.442 13.180 C 4.442 13.122,4.534 13.198,4.778 13.460 L 5.114 13.820 4.869 14.069 M19.523 13.488 C 19.497 13.671,19.457 13.934,19.433 14.074 L 19.390 14.328 19.138 14.078 L 18.885 13.827 19.209 13.473 C 19.387 13.278,19.541 13.127,19.551 13.138 C 19.561 13.148,19.549 13.306,19.523 13.488 M6.926 15.750 C 7.354 16.207,7.774 16.658,7.859 16.753 L 8.014 16.925 7.357 17.583 L 6.701 18.240 5.955 18.240 L 5.208 18.240 5.162 17.977 C 5.137 17.833,5.063 17.370,4.997 16.949 L 4.878 16.183 5.508 15.552 C 5.855 15.204,6.141 14.920,6.143 14.920 C 6.146 14.920,6.498 15.293,6.926 15.750 M18.962 17.200 C 18.873 17.759,18.800 18.222,18.800 18.228 C 18.800 18.235,18.462 18.240,18.050 18.240 L 17.299 18.240 16.643 17.583 L 15.986 16.925 16.141 16.753 C 16.226 16.658,16.647 16.206,17.076 15.748 L 17.856 14.916 18.490 15.550 L 19.123 16.183 18.962 17.200 M12.957 16.017 L 13.893 16.954 13.297 17.594 L 12.700 18.234 12.000 18.234 L 11.300 18.234 10.703 17.594 L 10.107 16.954 11.043 16.017 C 11.558 15.502,11.989 15.080,12.000 15.080 C 12.011 15.080,12.442 15.502,12.957 16.017 M9.160 18.140 L 9.254 18.240 9.040 18.240 L 8.826 18.240 8.920 18.140 C 8.972 18.085,9.026 18.040,9.040 18.040 C 9.054 18.040,9.108 18.085,9.160 18.140 M15.080 18.140 L 15.174 18.240 14.960 18.240 L 14.746 18.240 14.840 18.140 C 14.892 18.085,14.946 18.040,14.960 18.040 C 14.974 18.040,15.028 18.085,15.080 18.140 M18.418 19.850 C 18.403 19.899,18.327 20.062,18.250 20.211 C 17.975 20.740,17.566 20.995,16.746 21.151 C 16.413 21.214,15.986 21.220,12.000 21.220 C 8.014 21.220,7.587 21.214,7.254 21.151 C 6.434 20.995,6.025 20.740,5.750 20.211 C 5.673 20.062,5.597 19.899,5.582 19.850 L 5.555 19.760 12.000 19.760 L 18.445 19.760 18.418 19.850 " stroke="none" fill-rule="evenodd" fill="black"></path></svg>