<svg width="24" height="24" viewBox="0 0 24 24" fill="none" xmlns="http://www.w3.org/2000/svg"><path d="M13.480 1.281 C 12.577 1.357,11.702 1.655,10.960 2.140 C 10.601 2.375,10.167 2.744,9.442 3.433 C 6.894 5.851,2.962 9.638,2.880 9.752 C 2.733 9.956,2.737 10.321,2.890 10.552 C 3.083 10.843,3.486 10.963,3.811 10.826 C 3.883 10.796,5.269 9.499,6.922 7.916 C 10.885 4.122,11.091 3.926,11.440 3.642 C 11.948 3.228,12.636 2.924,13.344 2.799 C 13.743 2.729,14.610 2.768,15.007 2.873 C 15.771 3.077,16.233 3.349,17.002 4.048 C 17.779 4.754,19.347 6.312,19.549 6.579 C 20.368 7.661,20.468 9.251,19.793 10.470 C 19.598 10.823,19.305 11.163,18.614 11.840 C 17.741 12.695,9.975 20.119,9.580 20.477 C 8.940 21.056,8.560 21.240,8.000 21.240 C 7.260 21.240,7.018 21.076,5.266 19.388 C 3.970 18.139,3.803 17.908,3.769 17.313 C 3.735 16.720,3.863 16.460,4.517 15.785 C 4.818 15.474,10.010 10.483,12.881 7.744 C 13.155 7.482,13.452 7.235,13.540 7.195 C 13.746 7.101,14.016 7.102,14.227 7.197 C 14.464 7.305,15.582 8.403,15.643 8.588 C 15.700 8.762,15.672 9.045,15.584 9.179 C 15.528 9.265,12.976 11.723,8.720 15.791 C 7.993 16.486,7.505 16.983,7.450 17.086 C 7.123 17.691,7.774 18.375,8.404 18.089 C 8.532 18.031,9.673 16.962,12.549 14.205 C 14.732 12.112,16.592 10.307,16.682 10.193 C 17.020 9.764,17.160 9.355,17.160 8.789 C 17.160 8.358,17.037 7.948,16.804 7.606 C 16.606 7.315,15.492 6.228,15.181 6.022 C 14.809 5.776,14.487 5.673,14.020 5.651 C 13.362 5.620,12.897 5.769,12.388 6.175 C 12.085 6.418,4.149 14.014,3.478 14.705 C 2.547 15.663,2.261 16.269,2.270 17.260 C 2.278 18.016,2.492 18.573,3.037 19.250 C 3.461 19.777,5.390 21.615,5.971 22.046 C 6.621 22.528,7.218 22.729,8.000 22.729 C 8.983 22.729,9.682 22.414,10.640 21.540 C 11.362 20.882,19.915 12.676,20.257 12.313 C 21.262 11.248,21.726 10.120,21.729 8.740 C 21.731 7.645,21.462 6.740,20.873 5.856 C 20.540 5.356,18.308 3.139,17.440 2.445 C 16.348 1.571,14.943 1.159,13.480 1.281 " stroke="none" fill-rule="evenodd" fill="black"></path></svg>