<svg width="24" height="24" viewBox="0 0 24 24" fill="none" xmlns="http://www.w3.org/2000/svg"><path d="M13.000 1.281 C 12.259 1.342,11.586 1.528,10.900 1.860 C 10.385 2.110,10.065 2.330,9.455 2.854 C 9.016 3.232,3.181 9.094,2.741 9.600 C 2.253 10.162,1.789 10.988,1.561 11.700 C 1.083 13.194,1.181 14.855,1.826 16.239 C 2.177 16.991,2.451 17.362,3.384 18.347 C 4.020 19.019,4.125 19.093,4.436 19.093 C 4.794 19.093,5.068 18.894,5.158 18.569 C 5.261 18.198,5.193 18.072,4.489 17.333 C 3.772 16.580,3.630 16.411,3.414 16.049 C 3.183 15.663,3.010 15.255,2.889 14.805 C 2.794 14.452,2.785 14.355,2.785 13.640 C 2.785 12.926,2.794 12.827,2.888 12.477 C 3.118 11.628,3.420 11.091,4.071 10.379 C 4.312 10.116,5.857 8.547,7.504 6.894 C 10.620 3.768,10.881 3.528,11.499 3.227 C 12.212 2.879,12.876 2.741,13.694 2.770 C 14.349 2.794,14.827 2.901,15.392 3.150 C 16.085 3.456,16.459 3.772,18.196 5.518 C 20.119 7.452,20.496 7.890,20.806 8.557 C 21.132 9.258,21.259 9.907,21.230 10.723 C 21.206 11.398,21.102 11.858,20.838 12.460 C 20.640 12.911,20.414 13.243,19.943 13.771 C 19.481 14.290,14.381 19.448,14.095 19.686 C 13.618 20.082,13.089 20.257,12.440 20.231 C 11.928 20.211,11.552 20.090,11.154 19.819 C 10.790 19.570,9.820 18.565,9.629 18.238 C 9.140 17.403,9.171 16.323,9.707 15.535 C 9.769 15.444,10.608 14.568,11.570 13.589 C 12.692 12.448,13.342 11.757,13.380 11.665 C 13.650 11.020,12.895 10.395,12.292 10.765 C 12.123 10.869,8.790 14.262,8.570 14.554 C 8.150 15.111,7.858 15.880,7.808 16.560 C 7.733 17.577,7.942 18.419,8.467 19.210 C 8.759 19.649,9.938 20.819,10.360 21.089 C 10.968 21.476,11.472 21.653,12.160 21.719 C 12.952 21.796,13.709 21.647,14.385 21.283 C 15.003 20.949,14.968 20.983,18.518 17.388 C 20.858 15.019,21.359 14.474,21.782 13.839 C 22.485 12.785,22.827 11.407,22.719 10.070 C 22.651 9.236,22.448 8.490,22.099 7.793 C 21.737 7.071,21.382 6.638,19.881 5.091 C 18.086 3.238,17.203 2.441,16.480 2.017 C 15.971 1.718,15.088 1.419,14.440 1.325 C 14.031 1.265,13.414 1.246,13.000 1.281 " stroke="none" fill-rule="evenodd" fill="black"></path></svg>