<svg width="24" height="24" viewBox="0 0 24 24" fill="none" xmlns="http://www.w3.org/2000/svg"><path d="M3.826 2.284 C 3.476 2.366,3.267 2.636,3.267 3.003 C 3.267 3.281,3.387 3.496,3.627 3.645 L 3.780 3.740 12.000 3.740 L 20.220 3.740 20.369 3.647 C 20.943 3.290,20.812 2.424,20.162 2.284 C 19.904 2.229,4.061 2.229,3.826 2.284 M11.680 4.824 C 11.505 4.899,8.438 7.961,8.338 8.159 C 8.252 8.332,8.248 8.662,8.331 8.821 C 8.521 9.186,8.932 9.336,9.309 9.179 C 9.400 9.141,9.787 8.788,10.347 8.231 L 11.240 7.344 11.240 11.999 L 11.240 16.655 10.345 15.767 C 9.795 15.223,9.394 14.857,9.306 14.820 C 8.932 14.664,8.521 14.815,8.331 15.179 C 8.248 15.338,8.252 15.668,8.339 15.841 C 8.418 15.998,11.334 18.943,11.577 19.111 C 11.709 19.203,11.775 19.220,12.000 19.220 C 12.225 19.220,12.291 19.203,12.423 19.111 C 12.666 18.943,15.582 15.998,15.661 15.841 C 15.748 15.668,15.752 15.338,15.669 15.179 C 15.479 14.815,15.068 14.664,14.694 14.820 C 14.606 14.857,14.205 15.223,13.655 15.767 L 12.760 16.655 12.760 11.999 L 12.760 7.344 13.653 8.231 C 14.213 8.788,14.600 9.141,14.691 9.179 C 15.068 9.336,15.479 9.186,15.669 8.821 C 15.752 8.662,15.748 8.332,15.662 8.159 C 15.556 7.949,12.493 4.898,12.311 4.822 C 12.125 4.744,11.862 4.745,11.680 4.824 M3.826 20.284 C 3.476 20.366,3.267 20.636,3.267 21.003 C 3.267 21.281,3.387 21.496,3.627 21.645 L 3.780 21.740 12.000 21.740 L 20.220 21.740 20.369 21.647 C 20.943 21.290,20.812 20.424,20.162 20.284 C 19.904 20.229,4.061 20.229,3.826 20.284 " stroke="none" fill-rule="evenodd" fill="black"></path></svg>