<svg width="24" height="24" viewBox="0 0 24 24" fill="none" xmlns="http://www.w3.org/2000/svg"><path d="M10.200 2.360 C 7.175 2.795,4.646 3.165,4.580 3.181 C 3.934 3.344,3.388 3.967,3.280 4.663 C 3.251 4.855,3.241 7.181,3.250 12.220 C 3.262 18.876,3.269 19.524,3.331 19.775 C 3.631 21.001,4.343 21.882,5.452 22.400 C 5.851 22.587,6.152 22.667,6.645 22.719 C 7.148 22.772,16.852 22.772,17.355 22.719 C 17.848 22.667,18.149 22.587,18.548 22.400 C 19.520 21.946,20.190 21.211,20.538 20.214 C 20.745 19.622,20.740 19.761,20.740 14.000 C 20.740 9.722,20.729 8.563,20.687 8.342 C 20.539 7.556,20.107 6.765,19.546 6.253 C 19.337 6.062,18.951 5.785,18.828 5.738 C 18.781 5.720,18.767 5.545,18.748 4.788 C 18.724 3.766,18.693 3.584,18.459 3.100 C 18.010 2.169,17.003 1.548,15.972 1.564 C 15.822 1.567,13.225 1.925,10.200 2.360 M16.447 3.143 C 16.690 3.223,16.953 3.457,17.101 3.726 C 17.217 3.935,17.220 3.956,17.233 4.590 L 17.247 5.240 11.096 5.240 L 4.945 5.240 4.853 5.153 C 4.738 5.045,4.730 4.846,4.836 4.715 C 4.909 4.625,5.157 4.586,10.406 3.832 C 13.940 3.324,15.964 3.049,16.080 3.061 C 16.179 3.072,16.344 3.109,16.447 3.143 M17.578 6.821 C 17.708 6.855,17.923 6.940,18.057 7.010 C 18.371 7.175,18.825 7.629,18.990 7.943 C 19.254 8.446,19.240 8.112,19.240 14.000 C 19.240 19.888,19.254 19.554,18.990 20.057 C 18.825 20.371,18.371 20.825,18.057 20.990 C 17.554 21.254,17.888 21.240,12.000 21.240 C 6.112 21.240,6.446 21.254,5.943 20.990 C 5.629 20.825,5.175 20.371,5.010 20.057 C 4.744 19.550,4.760 19.987,4.760 13.052 L 4.760 6.760 11.052 6.760 C 16.572 6.760,17.372 6.768,17.578 6.821 M11.760 9.268 C 10.880 9.329,10.052 9.691,9.406 10.297 C 8.884 10.787,8.454 11.588,8.319 12.320 C 8.257 12.654,8.257 13.346,8.319 13.680 C 8.459 14.440,8.898 15.240,9.454 15.747 C 9.871 16.129,10.516 16.486,11.025 16.617 C 11.619 16.770,12.381 16.770,12.975 16.617 C 13.484 16.486,14.129 16.129,14.546 15.747 C 15.102 15.240,15.541 14.440,15.681 13.680 C 15.743 13.346,15.743 12.654,15.681 12.320 C 15.546 11.588,15.116 10.787,14.594 10.297 C 13.832 9.582,12.776 9.198,11.760 9.268 M12.578 10.821 C 12.949 10.918,13.274 11.112,13.581 11.419 C 14.041 11.879,14.240 12.356,14.240 13.000 C 14.240 13.644,14.041 14.121,13.581 14.581 C 13.121 15.041,12.644 15.240,12.000 15.240 C 11.356 15.240,10.879 15.041,10.419 14.581 C 9.959 14.121,9.760 13.644,9.760 13.000 C 9.760 12.356,9.959 11.879,10.419 11.419 C 10.719 11.118,11.050 10.919,11.404 10.823 C 11.692 10.746,12.285 10.745,12.578 10.821 M9.826 18.284 C 9.476 18.366,9.267 18.636,9.267 19.003 C 9.267 19.281,9.387 19.496,9.627 19.645 L 9.780 19.740 12.000 19.740 L 14.220 19.740 14.369 19.647 C 14.943 19.290,14.812 18.424,14.162 18.284 C 13.910 18.230,10.056 18.230,9.826 18.284 " stroke="none" fill-rule="evenodd" fill="black"></path></svg>