<svg width="24" height="24" viewBox="0 0 24 24" fill="none" xmlns="http://www.w3.org/2000/svg"><path d="M7.420 3.283 C 4.824 3.355,3.629 3.695,2.669 4.635 C 1.940 5.348,1.564 6.261,1.379 7.767 C 1.272 8.640,1.218 11.731,1.272 13.870 C 1.330 16.176,1.404 16.875,1.682 17.727 C 2.105 19.022,2.978 19.895,4.273 20.318 C 5.402 20.686,6.664 20.758,12.000 20.758 C 17.336 20.758,18.598 20.686,19.727 20.318 C 21.002 19.901,21.880 19.036,22.302 17.779 C 22.587 16.928,22.670 16.166,22.728 13.870 C 22.764 12.440,22.764 11.560,22.728 10.130 C 22.670 7.834,22.587 7.072,22.302 6.221 C 21.886 4.984,21.016 4.114,19.779 3.698 C 18.998 3.436,18.134 3.331,16.360 3.280 C 14.828 3.236,9.033 3.238,7.420 3.283 M17.341 4.802 C 19.644 4.953,20.523 5.467,20.939 6.901 C 21.190 7.768,21.240 8.610,21.240 12.000 C 21.240 15.383,21.190 16.233,20.941 17.093 C 20.553 18.432,19.754 18.966,17.840 19.167 C 17.116 19.244,6.884 19.244,6.160 19.167 C 3.837 18.923,3.100 18.200,2.835 15.900 C 2.769 15.326,2.739 9.675,2.798 8.740 C 2.860 7.750,2.924 7.319,3.089 6.800 C 3.509 5.473,4.423 4.948,6.560 4.805 C 7.314 4.754,16.579 4.752,17.341 4.802 M6.574 9.278 C 6.359 9.329,6.170 9.474,6.083 9.654 C 6.015 9.794,6.000 9.902,6.000 10.253 C 6.000 10.488,5.986 10.680,5.970 10.680 C 5.954 10.680,5.797 10.598,5.623 10.498 C 5.449 10.399,5.233 10.301,5.143 10.281 C 4.629 10.165,4.146 10.659,4.280 11.163 C 4.351 11.428,4.474 11.559,4.855 11.779 C 5.045 11.888,5.200 11.988,5.200 12.000 C 5.200 12.012,5.045 12.112,4.855 12.221 C 4.469 12.444,4.347 12.575,4.280 12.844 C 4.150 13.360,4.651 13.857,5.161 13.720 C 5.257 13.694,5.471 13.593,5.637 13.496 C 5.803 13.399,5.952 13.320,5.969 13.320 C 5.986 13.320,6.000 13.512,6.000 13.747 C 6.000 14.100,6.015 14.205,6.084 14.348 C 6.293 14.779,6.936 14.869,7.268 14.513 C 7.429 14.341,7.480 14.150,7.480 13.721 C 7.480 13.501,7.489 13.320,7.500 13.320 C 7.511 13.320,7.683 13.413,7.882 13.526 C 8.185 13.698,8.278 13.732,8.454 13.734 C 8.870 13.740,9.200 13.418,9.200 13.006 C 9.200 12.654,9.066 12.485,8.557 12.194 L 8.228 12.005 8.418 11.893 C 8.978 11.561,9.035 11.516,9.117 11.346 C 9.367 10.829,9.017 10.258,8.454 10.266 C 8.278 10.268,8.185 10.302,7.882 10.474 C 7.683 10.587,7.511 10.680,7.500 10.680 C 7.489 10.680,7.480 10.499,7.480 10.279 C 7.480 9.850,7.429 9.659,7.268 9.487 C 7.099 9.306,6.816 9.221,6.574 9.278 M11.807 9.289 C 11.574 9.339,11.348 9.565,11.286 9.811 C 11.261 9.913,11.240 10.151,11.240 10.341 C 11.240 10.531,11.227 10.681,11.210 10.673 C 11.193 10.666,11.027 10.577,10.840 10.475 C 10.653 10.373,10.439 10.279,10.365 10.265 C 10.066 10.210,9.731 10.398,9.595 10.698 C 9.502 10.904,9.502 11.096,9.595 11.302 C 9.684 11.496,9.813 11.608,10.193 11.820 C 10.351 11.908,10.480 11.989,10.480 12.000 C 10.480 12.011,10.351 12.092,10.193 12.180 C 9.813 12.392,9.684 12.504,9.595 12.698 C 9.502 12.904,9.502 13.096,9.595 13.302 C 9.731 13.602,10.066 13.790,10.365 13.735 C 10.439 13.721,10.653 13.627,10.840 13.525 C 11.027 13.423,11.191 13.335,11.205 13.328 C 11.219 13.322,11.238 13.523,11.247 13.775 C 11.263 14.186,11.276 14.249,11.370 14.392 C 11.526 14.628,11.722 14.733,12.007 14.733 C 12.203 14.733,12.270 14.714,12.408 14.617 C 12.662 14.437,12.731 14.264,12.752 13.752 C 12.762 13.513,12.782 13.322,12.795 13.328 C 12.809 13.335,12.973 13.423,13.160 13.525 C 13.347 13.627,13.561 13.721,13.635 13.735 C 13.934 13.790,14.269 13.602,14.405 13.302 C 14.498 13.096,14.498 12.904,14.405 12.698 C 14.316 12.504,14.187 12.392,13.807 12.180 C 13.649 12.092,13.520 12.011,13.520 12.000 C 13.520 11.989,13.649 11.908,13.807 11.820 C 13.965 11.732,14.148 11.616,14.213 11.562 C 14.358 11.441,14.478 11.187,14.478 11.000 C 14.478 10.687,14.228 10.363,13.924 10.281 C 13.708 10.223,13.549 10.263,13.160 10.475 C 12.973 10.577,12.807 10.666,12.790 10.673 C 12.773 10.681,12.760 10.537,12.759 10.353 C 12.758 10.170,12.739 9.939,12.717 9.841 C 12.620 9.420,12.247 9.194,11.807 9.289 M17.180 9.260 C 17.158 9.267,17.092 9.284,17.033 9.296 C 16.878 9.331,16.680 9.512,16.595 9.698 C 16.539 9.821,16.522 9.959,16.521 10.270 C 16.520 10.495,16.511 10.680,16.500 10.680 C 16.489 10.680,16.317 10.587,16.118 10.474 C 15.815 10.302,15.722 10.268,15.546 10.266 C 14.976 10.258,14.621 10.850,14.891 11.360 C 14.965 11.499,15.052 11.573,15.341 11.746 C 15.538 11.864,15.700 11.978,15.700 12.000 C 15.700 12.022,15.538 12.136,15.341 12.254 C 15.052 12.427,14.965 12.501,14.891 12.640 C 14.620 13.153,14.975 13.742,15.548 13.734 C 15.722 13.732,15.816 13.697,16.118 13.526 C 16.317 13.413,16.489 13.320,16.500 13.320 C 16.511 13.320,16.520 13.501,16.520 13.721 C 16.520 14.150,16.571 14.341,16.732 14.513 C 17.064 14.869,17.707 14.779,17.916 14.348 C 17.985 14.205,18.000 14.100,18.000 13.747 C 18.000 13.512,18.014 13.320,18.031 13.320 C 18.048 13.320,18.197 13.399,18.363 13.496 C 18.529 13.593,18.739 13.693,18.830 13.717 C 19.346 13.856,19.856 13.350,19.720 12.837 C 19.649 12.572,19.526 12.441,19.145 12.221 C 18.955 12.112,18.800 12.012,18.800 12.000 C 18.800 11.988,18.955 11.888,19.145 11.779 C 19.526 11.559,19.649 11.428,19.720 11.163 C 19.854 10.659,19.371 10.165,18.857 10.281 C 18.767 10.301,18.551 10.399,18.377 10.498 C 18.203 10.598,18.047 10.680,18.030 10.680 C 18.014 10.680,18.000 10.488,18.000 10.253 C 18.000 9.727,17.925 9.532,17.666 9.384 C 17.508 9.293,17.265 9.231,17.180 9.260 " stroke="none" fill-rule="evenodd" fill="black"></path></svg>