<svg width="24" height="24" viewBox="0 0 24 24" fill="none" xmlns="http://www.w3.org/2000/svg"><path d="M14.826 1.286 C 14.625 1.331,14.468 1.445,14.353 1.631 L 14.260 1.780 14.260 12.003 L 14.260 22.226 14.367 22.388 C 14.526 22.628,14.721 22.733,15.007 22.733 C 15.203 22.733,15.270 22.714,15.408 22.617 C 15.702 22.409,15.738 22.287,15.754 21.450 L 15.768 20.720 16.294 20.720 C 16.955 20.720,17.964 20.657,18.544 20.579 C 20.781 20.278,22.053 19.154,22.482 17.100 C 22.634 16.372,22.680 15.762,22.728 13.870 C 22.782 11.730,22.727 8.637,22.621 7.767 C 22.400 5.970,21.865 4.918,20.805 4.202 C 19.902 3.593,18.811 3.353,16.670 3.293 L 15.760 3.267 15.759 2.644 C 15.758 2.301,15.739 1.939,15.717 1.841 C 15.622 1.428,15.243 1.192,14.826 1.286 M7.420 3.283 C 4.824 3.355,3.629 3.695,2.669 4.635 C 1.940 5.348,1.564 6.261,1.379 7.767 C 1.272 8.640,1.218 11.731,1.272 13.870 C 1.330 16.176,1.404 16.875,1.682 17.727 C 2.173 19.229,3.266 20.158,4.940 20.495 C 5.864 20.681,7.999 20.776,10.740 20.753 C 12.208 20.740,12.221 20.739,12.369 20.647 C 12.870 20.336,12.849 19.592,12.332 19.336 C 12.189 19.264,12.016 19.259,9.340 19.235 C 7.662 19.220,6.336 19.191,6.100 19.164 C 3.824 18.906,3.098 18.180,2.835 15.900 C 2.806 15.648,2.782 14.386,2.771 12.480 C 2.753 9.546,2.779 8.467,2.883 7.740 C 3.109 6.159,3.666 5.419,4.896 5.062 C 5.726 4.822,6.159 4.793,9.360 4.765 L 12.220 4.740 12.369 4.647 C 12.943 4.290,12.812 3.424,12.162 3.284 C 11.930 3.234,9.198 3.234,7.420 3.283 M17.200 4.800 C 18.481 4.875,19.029 4.979,19.632 5.262 C 20.306 5.579,20.698 6.070,20.939 6.901 C 21.190 7.768,21.240 8.610,21.240 12.000 C 21.240 15.383,21.190 16.233,20.941 17.093 C 20.562 18.402,19.771 18.956,18.024 19.138 C 17.714 19.171,17.078 19.210,16.610 19.225 L 15.760 19.252 15.760 12.006 L 15.760 4.760 16.150 4.760 C 16.364 4.761,16.837 4.778,17.200 4.800 M7.673 11.063 C 7.312 11.174,7.000 11.609,7.000 12.000 C 7.000 12.524,7.476 13.000,8.000 13.000 C 8.520 13.000,9.000 12.520,9.000 12.000 C 9.000 11.598,8.688 11.173,8.310 11.061 C 8.062 10.987,7.919 10.988,7.673 11.063 M11.673 11.063 C 11.312 11.174,11.000 11.609,11.000 12.000 C 11.000 12.524,11.476 13.000,12.000 13.000 C 12.520 13.000,13.000 12.520,13.000 12.000 C 13.000 11.598,12.688 11.173,12.310 11.061 C 12.062 10.987,11.919 10.988,11.673 11.063 " stroke="none" fill-rule="evenodd" fill="black"></path></svg>