<svg width="24" height="24" viewBox="0 0 24 24" fill="none" xmlns="http://www.w3.org/2000/svg"><path d="M7.420 3.283 C 4.824 3.355,3.629 3.695,2.669 4.635 C 1.940 5.348,1.564 6.261,1.379 7.767 C 1.272 8.640,1.218 11.731,1.272 13.870 C 1.330 16.176,1.404 16.875,1.682 17.727 C 2.105 19.022,2.978 19.895,4.273 20.318 C 5.402 20.686,6.664 20.758,12.000 20.758 C 17.336 20.758,18.598 20.686,19.727 20.318 C 21.002 19.901,21.880 19.036,22.302 17.779 C 22.587 16.928,22.670 16.166,22.728 13.870 C 22.764 12.440,22.764 11.560,22.728 10.130 C 22.670 7.834,22.587 7.072,22.302 6.221 C 21.886 4.984,21.016 4.114,19.779 3.698 C 18.998 3.436,18.134 3.331,16.360 3.280 C 14.828 3.236,9.033 3.238,7.420 3.283 M17.341 4.802 C 19.644 4.953,20.523 5.467,20.939 6.901 C 21.190 7.768,21.240 8.610,21.240 12.000 C 21.240 15.383,21.190 16.233,20.941 17.093 C 20.553 18.432,19.754 18.966,17.840 19.167 C 17.116 19.244,6.884 19.244,6.160 19.167 C 3.837 18.923,3.100 18.200,2.835 15.900 C 2.769 15.326,2.739 9.675,2.798 8.740 C 2.860 7.750,2.924 7.319,3.089 6.800 C 3.509 5.473,4.423 4.948,6.560 4.805 C 7.314 4.754,16.579 4.752,17.341 4.802 M7.673 11.063 C 7.312 11.174,7.000 11.609,7.000 12.000 C 7.000 12.524,7.476 13.000,8.000 13.000 C 8.520 13.000,9.000 12.520,9.000 12.000 C 9.000 11.598,8.688 11.173,8.310 11.061 C 8.062 10.987,7.919 10.988,7.673 11.063 M11.673 11.063 C 11.312 11.174,11.000 11.609,11.000 12.000 C 11.000 12.524,11.476 13.000,12.000 13.000 C 12.520 13.000,13.000 12.520,13.000 12.000 C 13.000 11.598,12.688 11.173,12.310 11.061 C 12.062 10.987,11.919 10.988,11.673 11.063 M15.673 11.063 C 15.312 11.174,15.000 11.609,15.000 12.000 C 15.000 12.524,15.476 13.000,16.000 13.000 C 16.520 13.000,17.000 12.520,17.000 12.000 C 17.000 11.598,16.688 11.173,16.310 11.061 C 16.062 10.987,15.919 10.988,15.673 11.063 " stroke="none" fill-rule="evenodd" fill="black"></path></svg>