<svg width="24" height="24" viewBox="0 0 24 24" fill="none" xmlns="http://www.w3.org/2000/svg"><path d="M11.320 1.281 C 7.041 1.525,3.252 4.409,1.843 8.497 C 1.180 10.418,1.082 12.560,1.564 14.550 C 2.505 18.428,5.572 21.495,9.450 22.436 C 11.106 22.837,12.894 22.837,14.550 22.436 C 18.428 21.495,21.495 18.428,22.436 14.550 C 22.837 12.894,22.837 11.106,22.436 9.450 C 21.425 5.282,17.985 2.095,13.742 1.398 C 13.334 1.331,12.074 1.229,11.880 1.247 C 11.847 1.250,11.595 1.265,11.320 1.281 M13.146 2.822 C 14.201 2.960,15.125 3.237,16.060 3.696 C 18.877 5.079,20.768 7.722,21.178 10.854 C 21.301 11.786,21.244 13.026,21.034 13.998 C 20.745 15.343,20.003 16.855,19.121 17.900 C 18.247 18.935,17.240 19.726,16.060 20.304 C 14.761 20.940,13.462 21.240,12.000 21.240 C 10.538 21.240,9.236 20.940,7.940 20.304 C 5.123 18.921,3.232 16.278,2.822 13.146 C 2.699 12.214,2.756 10.974,2.966 10.002 C 3.177 9.020,3.703 7.775,4.268 6.920 C 5.750 4.677,8.131 3.188,10.820 2.823 C 11.380 2.746,12.569 2.746,13.146 2.822 M8.783 7.283 C 7.978 7.376,7.376 8.001,7.279 8.844 C 7.229 9.282,7.229 14.718,7.279 15.156 C 7.379 16.028,7.971 16.621,8.840 16.721 C 9.650 16.813,10.368 16.747,10.784 16.542 C 11.319 16.278,11.648 15.792,11.721 15.156 C 11.771 14.718,11.771 9.282,11.721 8.844 C 11.621 7.972,11.029 7.379,10.160 7.279 C 9.769 7.235,9.184 7.236,8.783 7.283 M13.783 7.283 C 12.978 7.376,12.376 8.001,12.279 8.844 C 12.229 9.282,12.229 14.718,12.279 15.156 C 12.379 16.028,12.971 16.621,13.840 16.721 C 14.650 16.813,15.368 16.747,15.784 16.542 C 16.319 16.278,16.648 15.792,16.721 15.156 C 16.771 14.718,16.771 9.282,16.721 8.844 C 16.621 7.972,16.029 7.379,15.160 7.279 C 14.769 7.235,14.184 7.236,13.783 7.283 M10.167 8.826 C 10.237 8.889,10.240 9.040,10.240 11.993 C 10.240 14.822,10.234 15.100,10.174 15.167 C 10.115 15.232,10.038 15.240,9.507 15.240 C 9.004 15.240,8.894 15.229,8.833 15.174 C 8.763 15.111,8.760 14.960,8.760 12.007 C 8.760 9.178,8.766 8.900,8.826 8.833 C 8.885 8.768,8.962 8.760,9.493 8.760 C 9.996 8.760,10.106 8.771,10.167 8.826 M15.167 8.826 C 15.237 8.889,15.240 9.040,15.240 11.993 C 15.240 14.822,15.234 15.100,15.174 15.167 C 15.115 15.232,15.038 15.240,14.507 15.240 C 14.004 15.240,13.894 15.229,13.833 15.174 C 13.763 15.111,13.760 14.960,13.760 12.007 C 13.760 9.178,13.766 8.900,13.826 8.833 C 13.885 8.768,13.962 8.760,14.493 8.760 C 14.996 8.760,15.106 8.771,15.167 8.826 " stroke="none" fill-rule="evenodd" fill="black"></path></svg>