<svg width="24" height="24" viewBox="0 0 24 24" fill="none" xmlns="http://www.w3.org/2000/svg"><path d="M4.520 1.282 C 4.135 1.298,3.703 1.332,3.560 1.357 C 2.375 1.570,1.698 2.177,1.418 3.280 C 1.274 3.844,1.269 4.086,1.252 11.198 C 1.235 18.056,1.257 19.890,1.360 20.460 C 1.553 21.520,2.102 22.205,2.992 22.496 C 3.473 22.653,3.663 22.676,4.870 22.725 C 6.054 22.773,8.014 22.725,8.480 22.638 C 9.719 22.404,10.413 21.704,10.640 20.460 C 10.733 19.947,10.757 18.227,10.757 11.980 C 10.757 5.749,10.734 4.058,10.640 3.540 C 10.412 2.289,9.711 1.588,8.460 1.360 C 7.912 1.261,5.967 1.222,4.520 1.282 M16.520 1.282 C 16.135 1.298,15.703 1.332,15.560 1.357 C 14.375 1.570,13.698 2.177,13.418 3.280 C 13.274 3.844,13.269 4.086,13.252 11.198 C 13.235 18.056,13.257 19.890,13.360 20.460 C 13.553 21.520,14.102 22.205,14.992 22.496 C 15.473 22.653,15.663 22.676,16.870 22.725 C 18.054 22.773,20.014 22.725,20.480 22.638 C 21.719 22.404,22.413 21.704,22.640 20.460 C 22.733 19.947,22.757 18.227,22.757 11.980 C 22.757 5.749,22.734 4.058,22.640 3.540 C 22.412 2.289,21.711 1.588,20.460 1.360 C 19.912 1.261,17.967 1.222,16.520 1.282 M8.260 2.835 C 8.370 2.860,8.559 2.930,8.679 2.991 C 8.863 3.084,8.916 3.137,9.009 3.321 C 9.071 3.441,9.143 3.648,9.170 3.780 C 9.243 4.130,9.243 19.870,9.170 20.220 C 9.143 20.352,9.071 20.559,9.009 20.679 C 8.916 20.863,8.863 20.916,8.679 21.009 C 8.287 21.208,8.139 21.220,6.000 21.220 C 3.861 21.220,3.713 21.208,3.321 21.009 C 3.137 20.916,3.084 20.863,2.991 20.679 C 2.930 20.559,2.858 20.370,2.832 20.260 C 2.766 19.982,2.735 4.738,2.799 4.107 C 2.850 3.611,2.955 3.292,3.123 3.123 C 3.276 2.971,3.601 2.851,3.989 2.804 C 4.423 2.752,8.005 2.778,8.260 2.835 M20.260 2.835 C 20.370 2.860,20.559 2.930,20.679 2.991 C 20.863 3.084,20.916 3.137,21.009 3.321 C 21.071 3.441,21.143 3.648,21.170 3.780 C 21.243 4.130,21.243 19.870,21.170 20.220 C 21.143 20.352,21.071 20.559,21.009 20.679 C 20.916 20.863,20.863 20.916,20.679 21.009 C 20.287 21.208,20.139 21.220,18.000 21.220 C 15.861 21.220,15.713 21.208,15.321 21.009 C 15.137 20.916,15.084 20.863,14.991 20.679 C 14.930 20.559,14.858 20.370,14.832 20.260 C 14.766 19.982,14.735 4.738,14.799 4.107 C 14.850 3.611,14.955 3.292,15.123 3.123 C 15.276 2.971,15.601 2.851,15.989 2.804 C 16.423 2.752,20.005 2.778,20.260 2.835 " stroke="none" fill-rule="evenodd" fill="black"></path></svg>