<svg width="24" height="24" viewBox="0 0 24 24" fill="none" xmlns="http://www.w3.org/2000/svg"><path d="M7.280 1.287 C 6.440 1.408,5.725 2.132,5.425 3.166 C 5.027 4.542,5.357 6.286,6.241 7.479 C 7.665 9.398,9.930 9.060,10.575 6.832 C 10.972 5.462,10.640 3.708,9.758 2.521 C 9.078 1.606,8.177 1.157,7.280 1.287 M16.115 1.283 C 14.822 1.473,13.702 2.820,13.359 4.596 C 13.199 5.426,13.220 6.125,13.425 6.834 C 13.856 8.321,15.061 9.053,16.340 8.603 C 17.020 8.364,17.713 7.695,18.150 6.855 C 18.596 5.998,18.828 4.797,18.720 3.902 C 18.543 2.422,17.768 1.434,16.667 1.283 C 16.495 1.259,16.351 1.242,16.347 1.245 C 16.343 1.248,16.239 1.265,16.115 1.283 M7.985 2.878 C 8.549 3.202,9.036 4.061,9.202 5.024 C 9.278 5.467,9.236 6.156,9.110 6.512 C 8.802 7.384,8.237 7.475,7.587 6.757 C 7.043 6.156,6.729 5.189,6.768 4.236 C 6.816 3.090,7.338 2.507,7.985 2.878 M16.665 2.837 C 16.999 3.040,17.203 3.545,17.232 4.236 C 17.253 4.741,17.207 5.085,17.055 5.577 C 16.777 6.477,16.119 7.239,15.620 7.239 C 14.879 7.241,14.529 5.833,14.929 4.460 C 15.049 4.048,15.332 3.525,15.587 3.243 C 15.983 2.805,16.373 2.658,16.665 2.837 M2.844 8.821 C 2.122 9.023,1.572 9.617,1.354 10.427 C 1.228 10.897,1.235 11.610,1.372 12.128 C 1.652 13.190,2.247 13.999,3.080 14.452 C 3.756 14.820,4.526 14.829,5.148 14.475 C 5.582 14.228,5.988 13.661,6.149 13.077 C 6.255 12.693,6.244 11.770,6.128 11.349 C 5.718 9.854,4.633 8.823,3.420 8.775 C 3.180 8.765,2.988 8.780,2.844 8.821 M20.149 8.823 C 19.446 8.993,18.710 9.589,18.285 10.331 C 18.096 10.662,17.916 11.147,17.831 11.559 C 17.769 11.860,17.756 12.037,17.773 12.400 C 17.807 13.156,17.997 13.662,18.414 14.109 C 18.812 14.534,19.271 14.732,19.860 14.732 C 20.400 14.732,20.908 14.531,21.422 14.115 C 21.980 13.663,22.410 12.954,22.628 12.128 C 22.765 11.610,22.772 10.897,22.646 10.427 C 22.321 9.218,21.279 8.549,20.149 8.823 M11.560 9.278 C 10.254 9.469,9.513 10.121,8.455 12.009 C 8.069 12.698,5.775 17.296,5.526 17.880 C 5.315 18.375,5.270 18.580,5.268 19.040 C 5.263 20.671,6.692 21.941,8.267 21.704 C 8.461 21.674,9.061 21.532,9.600 21.388 C 10.797 21.067,11.232 20.996,12.000 20.996 C 12.768 20.996,13.203 21.067,14.400 21.388 C 15.614 21.713,15.971 21.771,16.411 21.716 C 17.039 21.638,17.568 21.360,18.021 20.870 C 18.485 20.369,18.733 19.732,18.733 19.040 C 18.733 18.580,18.666 18.308,18.418 17.755 C 18.086 17.014,15.897 12.638,15.545 12.009 C 14.587 10.300,13.908 9.631,12.859 9.365 C 12.491 9.271,11.882 9.230,11.560 9.278 M3.660 10.335 C 4.066 10.525,4.452 11.029,4.646 11.620 C 4.765 11.983,4.775 12.530,4.667 12.808 C 4.241 13.914,2.760 12.691,2.760 11.231 C 2.760 10.844,2.843 10.571,3.009 10.414 C 3.224 10.210,3.360 10.194,3.660 10.335 M21.005 10.437 C 21.504 10.995,21.189 12.391,20.430 12.993 C 20.073 13.275,19.772 13.318,19.544 13.118 C 19.341 12.940,19.260 12.693,19.261 12.260 C 19.263 11.472,19.740 10.621,20.340 10.333 C 20.628 10.194,20.815 10.224,21.005 10.437 M12.500 10.814 C 12.892 10.919,13.165 11.128,13.533 11.609 C 13.922 12.117,14.334 12.876,15.615 15.440 C 17.152 18.519,17.240 18.714,17.240 19.057 C 17.240 19.223,17.212 19.378,17.161 19.497 C 17.050 19.756,16.758 20.054,16.509 20.161 C 16.214 20.288,15.927 20.254,14.840 19.961 C 13.687 19.650,13.281 19.570,12.574 19.513 C 12.137 19.477,11.863 19.477,11.426 19.513 C 10.719 19.570,10.313 19.650,9.160 19.961 C 8.073 20.254,7.786 20.288,7.491 20.161 C 7.242 20.054,6.950 19.756,6.839 19.497 C 6.788 19.378,6.760 19.223,6.760 19.057 C 6.760 18.840,6.788 18.737,6.948 18.371 C 7.263 17.650,9.613 12.975,9.939 12.420 C 10.413 11.613,10.830 11.112,11.180 10.930 C 11.497 10.765,12.112 10.711,12.500 10.814 " stroke="none" fill-rule="evenodd" fill="black"></path></svg>