<svg width="24" height="24" viewBox="0 0 24 24" fill="none" xmlns="http://www.w3.org/2000/svg"><path d="M17.614 1.284 C 16.751 1.360,15.948 1.679,15.209 2.239 C 14.730 2.603,4.315 13.058,4.032 13.460 C 3.712 13.914,3.493 14.284,3.292 14.707 C 3.099 15.114,1.345 20.319,1.280 20.680 C 1.224 20.988,1.283 21.378,1.435 21.703 C 1.764 22.404,2.558 22.837,3.300 22.720 C 3.432 22.699,4.755 22.276,6.240 21.780 C 9.159 20.806,9.487 20.673,10.256 20.159 C 10.490 20.003,10.884 19.689,11.131 19.461 C 11.378 19.234,13.859 16.765,16.644 13.974 C 20.981 9.629,21.740 8.851,21.930 8.560 C 22.417 7.811,22.644 7.174,22.715 6.357 C 22.840 4.905,22.323 3.534,21.275 2.540 C 20.301 1.615,18.984 1.163,17.614 1.284 M18.752 2.822 C 18.939 2.860,19.224 2.964,19.480 3.088 C 19.856 3.270,19.941 3.332,20.304 3.696 C 20.668 4.059,20.730 4.144,20.912 4.520 C 21.153 5.018,21.240 5.398,21.239 5.948 C 21.238 6.565,21.102 7.069,20.794 7.589 C 20.720 7.714,20.436 8.048,20.161 8.331 C 19.588 8.923,19.678 8.896,19.020 8.672 C 18.143 8.374,17.456 7.940,16.758 7.242 C 16.060 6.544,15.626 5.857,15.328 4.980 C 15.104 4.322,15.077 4.412,15.669 3.839 C 16.324 3.204,16.734 2.959,17.375 2.820 C 17.713 2.746,18.381 2.747,18.752 2.822 M14.163 6.093 C 14.818 7.624,16.195 9.039,17.729 9.757 C 17.955 9.863,18.210 9.972,18.295 10.000 L 18.450 10.050 14.435 14.069 C 12.227 16.279,10.253 18.238,10.049 18.422 C 9.228 19.160,8.900 19.316,6.410 20.148 L 4.401 20.820 3.791 20.210 L 3.181 19.600 3.775 17.810 C 4.103 16.826,4.432 15.864,4.506 15.673 C 4.674 15.245,4.944 14.750,5.212 14.380 C 5.333 14.212,7.117 12.394,9.677 9.829 C 13.062 6.438,13.946 5.573,13.967 5.629 C 13.983 5.668,14.071 5.877,14.163 6.093 " stroke="none" fill-rule="evenodd" fill="black"></path></svg>