<svg width="24" height="24" viewBox="0 0 24 24" fill="none" xmlns="http://www.w3.org/2000/svg"><path d="M16.451 1.283 C 16.054 1.321,15.609 1.439,15.253 1.600 C 14.606 1.894,14.569 1.928,10.036 6.469 C 7.669 8.840,5.651 10.888,5.551 11.020 C 5.303 11.351,5.053 11.765,4.890 12.115 C 4.717 12.488,3.336 16.610,3.279 16.925 C 3.098 17.924,4.055 18.882,5.070 18.718 C 5.348 18.674,9.464 17.303,9.860 17.123 C 10.182 16.977,10.635 16.703,10.980 16.447 C 11.112 16.348,13.160 14.331,15.531 11.964 C 20.072 7.431,20.106 7.394,20.400 6.747 C 20.663 6.166,20.780 5.441,20.717 4.773 C 20.675 4.320,20.624 4.114,20.452 3.684 C 19.814 2.094,18.186 1.117,16.451 1.283 M17.454 2.823 C 18.264 3.032,18.968 3.736,19.177 4.546 C 19.257 4.857,19.258 5.432,19.179 5.742 C 19.068 6.178,18.890 6.469,18.460 6.914 L 18.059 7.328 17.740 7.223 C 17.564 7.164,17.262 7.037,17.070 6.940 C 16.001 6.399,15.160 5.415,14.777 4.260 L 14.672 3.941 15.086 3.540 C 15.525 3.117,15.819 2.934,16.240 2.823 C 16.539 2.745,17.149 2.745,17.454 2.823 M14.130 6.295 C 14.453 6.772,15.228 7.547,15.705 7.870 C 15.906 8.006,16.251 8.206,16.471 8.314 L 16.872 8.510 13.506 11.869 C 9.995 15.372,9.944 15.419,9.289 15.733 C 9.130 15.809,8.315 16.100,7.476 16.381 L 5.951 16.891 5.530 16.470 L 5.109 16.049 5.619 14.524 C 5.900 13.685,6.191 12.870,6.267 12.711 C 6.581 12.056,6.628 12.005,10.131 8.494 L 13.490 5.128 13.686 5.529 C 13.794 5.749,13.994 6.094,14.130 6.295 M3.826 21.284 C 3.476 21.366,3.267 21.636,3.267 22.003 C 3.267 22.281,3.387 22.496,3.627 22.645 L 3.780 22.740 11.860 22.752 C 17.835 22.761,19.996 22.753,20.154 22.719 C 20.919 22.554,20.926 21.448,20.162 21.284 C 19.904 21.229,4.061 21.229,3.826 21.284 " stroke="none" fill-rule="evenodd" fill="black"></path></svg>