<svg width="24" height="24" viewBox="0 0 24 24" fill="none" xmlns="http://www.w3.org/2000/svg"><path d="M9.020 1.280 C 7.738 1.310,7.479 1.326,6.649 1.423 C 4.782 1.643,3.569 2.183,2.728 3.171 C 1.841 4.212,1.475 5.425,1.314 7.860 C 1.249 8.841,1.249 15.159,1.314 16.140 C 1.431 17.905,1.649 18.970,2.068 19.825 C 2.756 21.228,3.977 22.098,5.734 22.437 C 7.035 22.688,7.988 22.733,12.000 22.733 C 16.012 22.733,16.965 22.688,18.266 22.437 C 20.599 21.987,21.987 20.599,22.437 18.267 C 22.665 17.083,22.722 16.043,22.732 12.840 C 22.741 10.043,22.754 10.199,22.494 9.953 C 22.217 9.691,21.783 9.691,21.506 9.953 C 21.247 10.198,21.262 10.015,21.235 13.200 C 21.210 16.037,21.187 16.578,21.055 17.500 C 20.744 19.673,19.812 20.664,17.740 21.020 C 16.654 21.207,16.320 21.218,12.040 21.219 C 7.880 21.220,7.593 21.212,6.500 21.055 C 4.391 20.754,3.409 19.877,3.021 17.947 C 2.797 16.828,2.780 16.424,2.780 12.040 C 2.780 7.931,2.792 7.538,2.944 6.500 C 3.236 4.506,4.019 3.538,5.689 3.104 C 6.681 2.846,7.465 2.794,10.800 2.765 C 13.985 2.738,13.802 2.753,14.047 2.494 C 14.181 2.353,14.240 2.201,14.240 2.000 C 14.240 1.799,14.181 1.647,14.047 1.506 C 13.808 1.253,13.866 1.260,11.980 1.256 C 11.034 1.254,9.702 1.265,9.020 1.280 M18.821 1.286 C 18.231 1.354,17.602 1.612,17.120 1.984 C 16.725 2.288,9.391 9.674,9.179 9.980 C 8.771 10.570,8.599 10.985,7.919 13.025 C 7.304 14.868,7.266 14.997,7.268 15.280 C 7.271 16.091,7.905 16.725,8.720 16.731 C 9.004 16.733,9.124 16.699,10.975 16.081 C 13.015 15.401,13.430 15.229,14.020 14.821 C 14.326 14.609,21.712 7.275,22.016 6.880 C 22.667 6.036,22.892 4.906,22.621 3.840 C 22.525 3.459,22.239 2.902,21.968 2.565 C 21.223 1.637,20.021 1.148,18.821 1.286 M19.970 2.876 C 20.455 3.065,20.936 3.547,21.123 4.030 C 21.183 4.184,21.218 4.381,21.231 4.624 C 21.265 5.299,21.115 5.680,20.610 6.206 L 20.277 6.551 20.089 6.495 C 19.798 6.409,19.252 6.136,18.983 5.943 C 18.700 5.740,18.191 5.223,18.006 4.950 C 17.846 4.716,17.580 4.164,17.505 3.911 L 17.449 3.723 17.794 3.390 C 18.317 2.887,18.648 2.754,19.320 2.774 C 19.637 2.784,19.796 2.809,19.970 2.876 M16.478 5.280 C 16.713 5.750,17.071 6.223,17.505 6.640 C 17.924 7.042,18.254 7.282,18.720 7.524 C 18.907 7.621,19.068 7.705,19.078 7.712 C 19.117 7.736,13.408 13.415,13.180 13.579 C 12.783 13.864,12.421 14.023,11.342 14.385 L 10.311 14.731 9.790 14.210 L 9.269 13.689 9.615 12.658 C 9.952 11.654,10.125 11.248,10.370 10.880 C 10.480 10.716,16.233 4.916,16.280 4.923 C 16.291 4.924,16.380 5.085,16.478 5.280 " stroke="none" fill-rule="evenodd" fill="black"></path></svg>