<svg width="24" height="24" viewBox="0 0 24 24" fill="none" xmlns="http://www.w3.org/2000/svg"><path d="M11.310 1.283 C 6.653 1.563,2.667 4.904,1.564 9.450 C 1.162 11.110,1.162 12.890,1.564 14.550 C 2.505 18.428,5.572 21.495,9.450 22.436 C 11.110 22.838,12.890 22.838,14.550 22.436 C 18.746 21.418,21.956 17.924,22.617 13.655 C 22.710 13.054,22.762 12.060,22.713 11.826 C 22.579 11.193,21.704 11.063,21.357 11.624 C 21.281 11.748,21.265 11.850,21.238 12.398 C 21.067 15.829,19.119 18.806,16.066 20.301 C 14.761 20.941,13.464 21.240,12.000 21.240 C 10.538 21.240,9.236 20.940,7.940 20.304 C 5.123 18.921,3.232 16.278,2.822 13.146 C 2.699 12.214,2.756 10.974,2.966 10.002 C 3.253 8.667,3.978 7.178,4.847 6.140 C 6.410 4.272,8.469 3.134,10.854 2.822 C 11.112 2.788,11.477 2.760,11.664 2.760 C 12.129 2.760,12.339 2.701,12.522 2.518 C 12.929 2.111,12.723 1.404,12.162 1.284 C 12.049 1.260,11.925 1.243,11.888 1.246 C 11.851 1.249,11.590 1.266,11.310 1.283 M18.821 1.286 C 18.231 1.354,17.602 1.612,17.120 1.984 C 16.725 2.288,9.391 9.674,9.179 9.980 C 8.771 10.570,8.599 10.985,7.919 13.025 C 7.304 14.868,7.266 14.997,7.268 15.280 C 7.271 16.091,7.905 16.725,8.720 16.731 C 9.004 16.733,9.124 16.699,10.975 16.081 C 13.015 15.401,13.430 15.229,14.020 14.821 C 14.326 14.609,21.712 7.275,22.016 6.880 C 22.667 6.036,22.892 4.906,22.621 3.840 C 22.525 3.459,22.239 2.902,21.968 2.565 C 21.223 1.637,20.021 1.148,18.821 1.286 M19.970 2.876 C 20.455 3.065,20.936 3.547,21.123 4.030 C 21.183 4.184,21.218 4.381,21.231 4.624 C 21.265 5.299,21.115 5.680,20.610 6.206 L 20.277 6.551 20.089 6.495 C 19.798 6.409,19.252 6.136,18.983 5.943 C 18.700 5.740,18.191 5.223,18.006 4.950 C 17.846 4.716,17.580 4.164,17.505 3.911 L 17.449 3.723 17.794 3.390 C 18.317 2.887,18.648 2.754,19.320 2.774 C 19.637 2.784,19.796 2.809,19.970 2.876 M16.478 5.280 C 16.713 5.750,17.071 6.223,17.505 6.640 C 17.924 7.042,18.254 7.282,18.720 7.524 C 18.907 7.621,19.068 7.705,19.078 7.712 C 19.117 7.736,13.408 13.415,13.180 13.579 C 12.783 13.864,12.421 14.023,11.342 14.385 L 10.311 14.731 9.790 14.210 L 9.269 13.689 9.615 12.658 C 9.952 11.654,10.125 11.248,10.370 10.880 C 10.480 10.716,16.233 4.916,16.280 4.923 C 16.291 4.924,16.380 5.085,16.478 5.280 " stroke="none" fill-rule="evenodd" fill="black"></path></svg>