<svg width="24" height="24" viewBox="0 0 24 24" fill="none" xmlns="http://www.w3.org/2000/svg"><path d="M11.660 1.278 C 10.570 1.409,9.646 2.204,9.357 3.260 C 9.180 3.907,9.267 4.744,9.568 5.280 C 10.094 6.219,10.953 6.731,12.000 6.731 C 13.047 6.731,13.906 6.219,14.432 5.280 C 14.832 4.566,14.832 3.434,14.432 2.720 C 13.857 1.694,12.796 1.142,11.660 1.278 M12.454 2.841 C 12.744 2.950,13.050 3.256,13.159 3.546 C 13.467 4.369,12.871 5.240,12.000 5.240 C 11.670 5.240,11.374 5.120,11.143 4.893 C 10.841 4.594,10.780 4.446,10.780 4.000 C 10.780 3.554,10.841 3.406,11.144 3.107 C 11.482 2.773,11.994 2.669,12.454 2.841 M6.060 7.164 C 5.706 7.235,5.222 7.499,4.945 7.772 C 4.499 8.212,4.273 8.741,4.268 9.357 C 4.263 9.929,4.421 10.392,4.775 10.843 C 5.120 11.282,5.362 11.404,6.954 11.940 C 8.285 12.388,8.382 12.427,8.417 12.529 C 8.449 12.621,8.357 12.892,7.787 14.374 C 7.419 15.329,7.080 16.216,7.033 16.345 C 6.908 16.687,6.909 17.357,7.035 17.720 C 7.583 19.294,9.543 19.756,10.701 18.584 C 10.935 18.346,11.062 18.158,11.476 17.430 C 11.748 16.952,11.984 16.560,12.000 16.560 C 12.016 16.560,12.252 16.952,12.524 17.430 C 12.938 18.158,13.065 18.346,13.299 18.584 C 13.730 19.019,14.254 19.240,14.860 19.240 C 15.806 19.240,16.647 18.632,16.965 17.720 C 17.091 17.357,17.092 16.687,16.967 16.345 C 16.920 16.216,16.581 15.329,16.213 14.374 C 15.643 12.892,15.551 12.621,15.583 12.529 C 15.618 12.427,15.715 12.388,17.046 11.940 C 18.312 11.514,18.504 11.438,18.762 11.262 C 19.385 10.836,19.739 10.149,19.731 9.380 C 19.728 8.969,19.671 8.731,19.489 8.360 C 19.100 7.568,18.194 7.059,17.303 7.133 C 17.147 7.146,16.525 7.264,15.920 7.395 C 13.985 7.814,13.344 7.896,12.000 7.896 C 10.653 7.896,10.007 7.813,8.080 7.393 C 6.925 7.142,6.444 7.087,6.060 7.164 M7.871 8.878 C 9.789 9.285,10.699 9.400,12.000 9.400 C 13.301 9.400,14.211 9.285,16.129 8.878 C 16.849 8.725,17.461 8.600,17.489 8.600 C 17.617 8.601,17.848 8.692,17.961 8.787 C 18.341 9.107,18.323 9.758,17.925 10.027 C 17.854 10.075,17.217 10.307,16.508 10.543 C 15.800 10.778,15.148 11.007,15.060 11.051 C 14.390 11.383,14.046 11.976,14.088 12.727 C 14.106 13.044,14.142 13.151,14.839 14.960 C 15.614 16.968,15.645 17.080,15.509 17.343 C 15.388 17.575,15.094 17.761,14.851 17.759 C 14.696 17.758,14.439 17.632,14.316 17.495 C 14.259 17.432,13.854 16.750,13.417 15.980 C 12.980 15.210,12.565 14.524,12.494 14.455 C 12.240 14.209,11.799 14.199,11.523 14.434 C 11.447 14.499,11.079 15.101,10.576 15.980 C 10.124 16.772,9.715 17.463,9.667 17.515 C 9.558 17.634,9.296 17.758,9.149 17.759 C 8.906 17.761,8.612 17.575,8.491 17.343 C 8.355 17.080,8.386 16.968,9.161 14.960 C 9.886 13.080,9.894 13.056,9.910 12.700 C 9.944 11.958,9.604 11.380,8.940 11.051 C 8.852 11.007,8.200 10.778,7.492 10.543 C 6.783 10.307,6.146 10.075,6.075 10.027 C 5.690 9.767,5.658 9.137,6.012 8.807 C 6.114 8.711,6.363 8.605,6.491 8.602 C 6.530 8.601,7.151 8.725,7.871 8.878 M4.022 13.936 C 2.557 14.690,1.573 15.767,1.318 16.900 C 1.248 17.207,1.260 17.857,1.340 18.180 C 1.570 19.102,2.226 19.921,3.312 20.642 C 5.489 22.085,9.098 22.867,12.890 22.716 C 18.377 22.499,22.417 20.484,22.718 17.816 C 22.872 16.448,22.059 15.174,20.387 14.164 C 19.702 13.750,19.463 13.688,19.135 13.837 C 18.881 13.952,18.746 14.158,18.730 14.455 C 18.719 14.654,18.734 14.730,18.809 14.860 C 18.902 15.021,18.968 15.069,19.611 15.452 C 20.305 15.865,20.874 16.412,21.097 16.880 C 21.206 17.111,21.220 17.181,21.220 17.500 C 21.220 17.805,21.204 17.894,21.116 18.080 C 20.494 19.393,18.289 20.491,15.260 20.995 C 14.151 21.180,13.573 21.220,12.000 21.220 C 10.427 21.220,9.849 21.180,8.740 20.995 C 5.709 20.491,3.507 19.394,2.884 18.080 C 2.796 17.894,2.780 17.805,2.780 17.500 C 2.780 17.180,2.794 17.111,2.904 16.880 C 3.128 16.409,3.718 15.840,4.381 15.455 C 5.164 15.002,5.278 14.881,5.279 14.508 C 5.280 14.190,5.118 13.942,4.830 13.822 C 4.579 13.717,4.397 13.743,4.022 13.936 " stroke="none" fill-rule="evenodd" fill="black"></path></svg>