<svg width="24" height="24" viewBox="0 0 24 24" fill="none" xmlns="http://www.w3.org/2000/svg"><path d="M8.780 1.279 C 8.472 1.296,8.130 1.331,8.020 1.357 C 7.038 1.584,6.523 2.135,6.336 3.160 C 6.290 3.418,6.269 3.928,6.251 5.270 L 6.228 7.039 5.804 7.263 C 3.356 8.553,1.735 10.766,1.336 13.360 C 1.249 13.927,1.250 15.039,1.337 15.620 C 1.589 17.294,2.322 18.760,3.543 20.035 C 4.190 20.710,4.683 21.029,5.614 21.377 C 6.488 21.704,7.106 21.757,10.000 21.757 C 12.894 21.757,13.512 21.704,14.386 21.377 C 15.314 21.031,15.815 20.705,16.467 20.024 C 17.837 18.595,18.576 16.942,18.723 14.979 C 18.771 14.348,18.757 13.996,18.656 13.340 C 18.261 10.753,16.645 8.554,14.190 7.260 L 13.760 7.033 13.760 6.397 L 13.760 5.760 14.250 5.760 C 14.968 5.760,15.487 5.868,16.115 6.149 L 16.365 6.260 16.380 6.640 C 16.430 7.951,17.328 9.100,18.726 9.640 C 19.305 9.864,20.153 9.916,20.732 9.764 C 21.449 9.576,22.089 9.072,22.378 8.469 C 23.179 6.794,21.965 4.743,19.850 4.197 C 19.451 4.094,18.781 4.086,18.360 4.180 C 17.968 4.268,17.472 4.509,17.212 4.739 L 17.004 4.923 16.799 4.820 C 16.076 4.453,15.064 4.241,14.030 4.240 L 13.720 4.240 13.720 3.865 C 13.720 2.386,13.112 1.563,11.855 1.341 C 11.457 1.271,9.585 1.233,8.780 1.279 M11.775 2.836 C 11.972 2.900,12.100 3.028,12.163 3.225 C 12.198 3.333,12.218 3.817,12.230 4.810 L 12.246 6.240 10.003 6.240 L 7.760 6.240 7.760 5.960 C 7.760 5.705,7.767 5.680,7.841 5.680 C 8.100 5.680,8.501 5.353,8.641 5.029 C 8.768 4.735,8.768 4.264,8.640 3.969 C 8.531 3.716,8.223 3.422,7.996 3.354 C 7.825 3.303,7.809 3.256,7.901 3.079 C 7.975 2.935,8.129 2.852,8.408 2.803 C 8.733 2.747,11.585 2.775,11.775 2.836 M19.563 5.664 C 20.305 5.882,20.968 6.507,21.099 7.113 C 21.217 7.659,20.974 8.102,20.458 8.285 C 20.258 8.355,20.160 8.365,19.840 8.348 C 19.410 8.324,19.176 8.247,18.783 7.999 C 18.049 7.536,17.680 6.691,17.970 6.140 C 18.042 6.002,18.215 5.833,18.360 5.758 C 18.677 5.594,19.188 5.554,19.563 5.664 M11.050 7.821 C 13.031 8.118,14.650 9.032,15.866 10.540 C 16.339 11.127,16.798 12.014,16.983 12.698 C 17.013 12.807,17.032 12.901,17.026 12.907 C 17.020 12.914,16.898 12.885,16.754 12.844 C 16.611 12.803,16.243 12.718,15.937 12.655 C 15.443 12.554,15.296 12.541,14.640 12.541 C 13.470 12.540,13.072 12.648,11.140 13.490 C 9.677 14.128,9.263 14.245,8.440 14.249 C 7.927 14.252,7.497 14.193,6.898 14.038 C 6.145 13.843,5.525 13.591,3.789 12.775 L 3.118 12.460 3.140 12.340 C 3.172 12.166,3.603 11.291,3.803 10.994 C 4.966 9.269,6.756 8.159,8.920 7.822 C 9.404 7.747,10.549 7.746,11.050 7.821 M3.564 14.315 C 5.771 15.379,6.998 15.737,8.440 15.735 C 9.591 15.733,10.086 15.590,12.282 14.627 C 13.397 14.138,14.089 13.970,14.817 14.012 C 15.423 14.048,16.466 14.276,17.070 14.506 L 17.240 14.571 17.240 14.815 C 17.239 15.203,17.092 15.976,16.920 16.491 C 16.575 17.522,16.026 18.378,15.191 19.185 C 14.887 19.479,14.752 19.577,14.440 19.729 C 13.952 19.968,13.423 20.143,13.027 20.197 C 12.603 20.255,7.397 20.255,6.973 20.197 C 6.577 20.143,6.048 19.968,5.560 19.729 C 5.248 19.577,5.113 19.479,4.809 19.185 C 3.466 17.887,2.761 16.278,2.760 14.510 C 2.760 14.207,2.775 13.960,2.794 13.960 C 2.812 13.960,3.159 14.120,3.564 14.315 " stroke="none" fill-rule="evenodd" fill="black"></path></svg>