<svg width="24" height="24" viewBox="0 0 24 24" fill="none" xmlns="http://www.w3.org/2000/svg"><path d="M8.339 2.281 C 7.084 2.413,5.951 3.204,5.068 4.564 C 4.386 5.614,4.183 6.475,4.280 7.911 C 4.464 10.634,5.638 13.186,7.745 15.443 C 10.000 17.860,12.609 19.290,15.443 19.663 C 16.153 19.756,17.280 19.756,17.720 19.663 C 18.345 19.530,18.838 19.321,19.436 18.932 C 21.068 17.872,21.848 16.506,21.716 14.936 C 21.622 13.830,21.047 12.915,20.079 12.336 C 19.394 11.927,18.612 11.519,18.323 11.421 C 17.951 11.295,17.387 11.223,17.019 11.256 C 16.159 11.334,15.461 11.645,14.706 12.289 C 14.561 12.413,14.536 12.420,14.246 12.418 C 13.887 12.415,13.633 12.316,13.205 12.011 C 12.865 11.769,12.231 11.136,11.989 10.795 C 11.679 10.360,11.581 10.111,11.581 9.754 C 11.580 9.465,11.588 9.439,11.711 9.294 C 12.034 8.915,12.224 8.634,12.385 8.298 C 12.790 7.450,12.860 6.501,12.580 5.672 C 12.488 5.399,12.068 4.596,11.664 3.921 C 11.099 2.978,10.226 2.414,9.121 2.281 C 8.754 2.237,8.755 2.237,8.339 2.281 M9.260 3.814 C 9.571 3.898,9.876 4.070,10.076 4.277 C 10.180 4.383,10.404 4.719,10.588 5.045 C 11.186 6.100,11.246 6.257,11.243 6.753 C 11.239 7.308,11.062 7.742,10.640 8.234 C 10.199 8.748,10.055 9.179,10.091 9.879 C 10.132 10.659,10.432 11.291,11.165 12.141 C 11.835 12.919,12.624 13.500,13.380 13.774 C 13.631 13.865,13.791 13.894,14.121 13.910 C 14.828 13.943,15.227 13.808,15.775 13.350 C 16.441 12.795,17.169 12.614,17.836 12.839 C 18.103 12.929,19.254 13.559,19.565 13.785 C 20.000 14.101,20.239 14.625,20.240 15.262 C 20.241 16.094,19.832 16.773,18.904 17.478 C 18.465 17.812,17.995 18.054,17.577 18.161 C 17.335 18.223,17.134 18.240,16.661 18.240 C 13.892 18.240,11.128 16.885,8.811 14.393 C 7.340 12.810,6.356 11.018,5.957 9.197 C 5.747 8.238,5.694 6.991,5.839 6.423 C 6.001 5.791,6.384 5.175,6.999 4.558 C 7.408 4.148,7.704 3.960,8.140 3.835 C 8.432 3.751,8.984 3.741,9.260 3.814 " stroke="none" fill-rule="evenodd" fill="black"></path></svg>