<svg width="24" height="24" viewBox="0 0 24 24" fill="none" xmlns="http://www.w3.org/2000/svg"><path d="M13.811 1.278 C 13.227 1.419,13.069 2.250,13.558 2.599 C 13.620 2.643,13.795 2.707,13.946 2.741 C 14.881 2.953,15.840 3.411,16.820 4.114 C 17.754 4.783,18.799 5.791,19.586 6.781 C 20.417 7.825,21.020 9.006,21.258 10.054 C 21.293 10.205,21.357 10.380,21.401 10.442 C 21.658 10.803,22.199 10.841,22.520 10.520 C 22.788 10.252,22.802 9.948,22.580 9.184 C 21.988 7.141,20.102 4.690,17.812 2.990 C 16.781 2.225,15.612 1.626,14.675 1.384 C 14.221 1.266,13.982 1.237,13.811 1.278 M7.339 3.281 C 6.084 3.413,4.951 4.204,4.068 5.564 C 3.386 6.614,3.183 7.475,3.280 8.911 C 3.464 11.634,4.638 14.186,6.745 16.443 C 9.000 18.860,11.609 20.290,14.443 20.663 C 15.153 20.756,16.280 20.756,16.720 20.663 C 17.345 20.530,17.838 20.321,18.436 19.932 C 20.068 18.872,20.848 17.506,20.716 15.936 C 20.622 14.830,20.047 13.915,19.079 13.336 C 18.394 12.927,17.612 12.519,17.323 12.421 C 16.951 12.295,16.387 12.223,16.019 12.256 C 15.159 12.334,14.461 12.645,13.706 13.289 C 13.561 13.413,13.536 13.420,13.246 13.418 C 12.887 13.415,12.633 13.316,12.205 13.011 C 11.865 12.769,11.231 12.136,10.989 11.795 C 10.679 11.360,10.581 11.111,10.581 10.754 C 10.580 10.465,10.588 10.439,10.711 10.294 C 11.034 9.915,11.224 9.634,11.385 9.298 C 11.790 8.450,11.860 7.501,11.580 6.672 C 11.488 6.399,11.068 5.596,10.664 4.921 C 10.099 3.978,9.226 3.414,8.121 3.281 C 7.754 3.237,7.755 3.237,7.339 3.281 M8.260 4.814 C 8.571 4.898,8.876 5.070,9.076 5.277 C 9.180 5.383,9.404 5.719,9.588 6.045 C 10.186 7.100,10.246 7.257,10.243 7.753 C 10.239 8.308,10.062 8.742,9.640 9.234 C 9.199 9.748,9.055 10.179,9.091 10.879 C 9.132 11.659,9.432 12.291,10.165 13.141 C 10.835 13.919,11.624 14.500,12.380 14.774 C 12.631 14.865,12.791 14.894,13.121 14.910 C 13.828 14.943,14.227 14.808,14.775 14.350 C 15.441 13.795,16.169 13.614,16.836 13.839 C 17.103 13.929,18.254 14.559,18.565 14.785 C 19.000 15.101,19.239 15.625,19.240 16.262 C 19.241 17.094,18.832 17.773,17.904 18.478 C 17.465 18.812,16.995 19.054,16.577 19.161 C 16.335 19.223,16.134 19.240,15.661 19.240 C 12.892 19.240,10.115 17.878,7.813 15.393 C 6.329 13.791,5.357 12.022,4.957 10.197 C 4.747 9.238,4.694 7.991,4.839 7.423 C 5.001 6.791,5.384 6.175,5.999 5.558 C 6.408 5.148,6.704 4.960,7.140 4.835 C 7.432 4.751,7.984 4.741,8.260 4.814 M13.900 4.863 C 13.589 5.024,13.459 5.264,13.488 5.622 C 13.515 5.936,13.651 6.092,14.066 6.283 C 14.451 6.460,14.848 6.709,15.256 7.029 C 15.657 7.344,16.739 8.439,17.026 8.820 C 17.317 9.206,17.700 9.834,17.738 9.988 C 17.818 10.306,18.160 10.540,18.505 10.511 C 18.922 10.477,19.181 10.187,19.179 9.758 C 19.177 9.476,18.962 9.010,18.541 8.380 C 17.830 7.314,16.614 6.104,15.560 5.412 C 14.712 4.856,14.224 4.695,13.900 4.863 " stroke="none" fill-rule="evenodd" fill="black"></path></svg>