<svg width="24" height="24" viewBox="0 0 24 24" fill="none" xmlns="http://www.w3.org/2000/svg"><path d="M13.420 1.260 C 13.398 1.267,13.331 1.284,13.271 1.297 C 13.124 1.329,12.881 1.548,12.814 1.708 C 12.692 2.001,12.771 2.336,13.013 2.548 C 13.147 2.666,13.372 2.759,13.523 2.760 C 13.800 2.761,14.886 3.202,15.560 3.587 C 16.701 4.240,18.013 5.355,19.055 6.560 C 20.140 7.815,20.939 9.214,21.179 10.280 C 21.283 10.741,21.353 10.906,21.502 11.036 C 21.697 11.208,21.907 11.263,22.141 11.204 C 22.395 11.140,22.505 11.060,22.627 10.851 C 22.721 10.691,22.729 10.647,22.708 10.387 C 22.610 9.183,21.576 7.187,20.254 5.650 C 19.615 4.908,18.712 4.033,17.960 3.427 C 16.646 2.369,15.005 1.523,13.833 1.301 C 13.502 1.238,13.488 1.237,13.420 1.260 M6.320 2.278 C 5.839 2.346,5.386 2.539,5.016 2.831 C 4.768 3.027,3.042 4.842,2.852 5.106 C 2.378 5.767,2.202 6.439,2.280 7.285 C 2.537 10.076,3.886 13.000,6.199 15.780 C 8.423 18.452,10.816 20.232,13.376 21.116 C 14.628 21.548,15.668 21.730,16.900 21.730 C 18.011 21.730,18.400 21.634,19.030 21.207 C 19.249 21.058,20.715 19.579,21.066 19.153 C 21.700 18.383,21.902 17.369,21.616 16.398 C 21.453 15.841,21.037 15.235,20.591 14.900 C 20.180 14.592,18.168 13.456,17.812 13.331 C 17.534 13.234,17.443 13.222,16.980 13.221 C 16.541 13.220,16.416 13.234,16.180 13.313 C 15.719 13.466,15.412 13.664,14.976 14.087 C 14.621 14.433,14.556 14.480,14.433 14.480 C 13.707 14.480,12.236 13.349,10.954 11.805 C 10.206 10.904,9.760 10.047,9.760 9.512 C 9.760 9.329,9.777 9.298,10.042 8.989 C 10.576 8.366,10.781 7.806,10.777 6.980 C 10.775 6.504,10.764 6.428,10.649 6.091 C 10.579 5.888,10.454 5.609,10.370 5.471 C 10.189 5.175,9.112 3.649,8.831 3.292 C 8.267 2.575,7.216 2.151,6.320 2.278 M7.219 3.879 C 7.513 4.022,7.671 4.205,8.418 5.261 C 9.262 6.455,9.381 6.729,9.286 7.248 C 9.223 7.584,9.104 7.801,8.792 8.143 C 8.469 8.498,8.343 8.743,8.279 9.140 C 8.093 10.308,8.907 11.888,10.610 13.660 C 11.700 14.796,12.742 15.542,13.660 15.847 C 13.894 15.925,14.022 15.940,14.440 15.939 C 15.150 15.938,15.283 15.880,15.860 15.318 C 16.349 14.842,16.531 14.730,16.870 14.695 C 17.208 14.660,17.399 14.741,18.580 15.421 C 19.721 16.077,19.933 16.245,20.110 16.631 C 20.260 16.956,20.282 17.448,20.162 17.766 C 20.051 18.063,19.981 18.147,19.015 19.148 C 17.965 20.235,18.003 20.214,17.069 20.234 C 16.035 20.256,15.136 20.121,14.124 19.793 C 12.192 19.166,10.429 18.031,8.700 16.299 C 6.209 13.805,4.528 10.998,3.959 8.380 C 3.719 7.280,3.701 6.663,3.895 6.267 C 4.017 6.018,4.478 5.497,5.484 4.474 C 6.144 3.802,6.226 3.756,6.720 3.772 C 6.943 3.779,7.071 3.806,7.219 3.879 M13.900 4.863 C 13.589 5.024,13.459 5.264,13.488 5.622 C 13.515 5.936,13.651 6.092,14.066 6.283 C 14.451 6.460,14.848 6.709,15.256 7.029 C 15.657 7.344,16.739 8.439,17.026 8.820 C 17.317 9.206,17.700 9.834,17.738 9.988 C 17.818 10.306,18.160 10.540,18.505 10.511 C 18.922 10.477,19.181 10.187,19.179 9.758 C 19.177 9.476,18.962 9.010,18.541 8.380 C 17.830 7.314,16.614 6.104,15.560 5.412 C 14.712 4.856,14.224 4.695,13.900 4.863 " stroke="none" fill-rule="evenodd" fill="black"></path></svg>