<svg width="24" height="24" viewBox="0 0 24 24" fill="none" xmlns="http://www.w3.org/2000/svg"><path d="M7.273 1.285 C 6.949 1.326,6.560 1.464,6.250 1.645 C 5.935 1.830,3.980 3.761,3.731 4.134 C 3.493 4.491,3.326 4.927,3.272 5.334 C 3.186 5.977,3.389 7.200,3.778 8.380 C 4.510 10.601,5.752 12.568,7.810 14.768 C 10.433 17.571,13.522 19.280,16.700 19.685 C 17.222 19.751,18.620 19.751,18.957 19.685 C 19.699 19.538,20.057 19.291,21.261 18.095 C 22.307 17.056,22.434 16.890,22.627 16.300 C 22.772 15.858,22.781 15.206,22.649 14.748 C 22.437 14.011,21.984 13.419,21.333 13.030 C 20.689 12.644,19.122 11.826,18.850 11.733 C 18.612 11.652,18.436 11.623,18.094 11.609 C 17.234 11.573,16.691 11.783,15.998 12.422 L 15.580 12.807 15.358 12.788 C 14.700 12.732,13.686 12.053,12.539 10.903 C 11.467 9.827,10.827 8.861,10.770 8.234 L 10.749 8.004 11.033 7.696 C 11.850 6.810,12.028 5.608,11.502 4.540 C 11.333 4.197,9.950 2.341,9.644 2.046 C 9.226 1.645,8.620 1.357,8.031 1.280 C 7.698 1.237,7.639 1.237,7.273 1.285 M8.241 2.888 C 8.361 2.945,8.515 3.043,8.582 3.106 C 8.739 3.254,10.024 4.962,10.156 5.198 C 10.236 5.340,10.260 5.449,10.273 5.724 C 10.288 6.035,10.278 6.097,10.185 6.300 C 10.121 6.441,9.975 6.637,9.802 6.815 C 9.628 6.995,9.484 7.189,9.418 7.334 C 8.885 8.497,9.598 10.080,11.519 12.001 C 12.916 13.398,14.090 14.133,15.153 14.279 C 15.843 14.373,16.316 14.200,16.892 13.643 C 17.409 13.143,17.748 13.011,18.238 13.116 C 18.553 13.183,20.559 14.280,20.826 14.531 C 21.117 14.804,21.218 15.048,21.219 15.480 C 21.220 16.010,21.180 16.071,20.144 17.090 C 19.420 17.803,19.213 17.984,19.001 18.090 L 18.741 18.220 17.821 18.218 C 16.836 18.216,16.406 18.164,15.556 17.943 C 12.720 17.206,9.989 15.251,7.614 12.260 C 5.931 10.139,4.800 7.549,4.784 5.780 C 4.778 5.138,4.781 5.134,5.917 3.988 C 6.854 3.041,6.998 2.916,7.275 2.813 C 7.503 2.728,7.976 2.765,8.241 2.888 " fill="#1C274C" stroke="none" fill-rule="evenodd"></path></svg>