<svg width="24" height="24" viewBox="0 0 24 24" fill="none" xmlns="http://www.w3.org/2000/svg"><path d="M13.220 1.267 C 12.421 1.359,11.826 1.645,11.278 2.198 C 10.814 2.668,10.485 3.295,10.331 4.009 C 10.266 4.313,10.260 4.638,10.260 8.060 C 10.260 12.117,10.253 11.975,10.493 12.472 C 10.639 12.773,10.997 13.177,11.294 13.374 C 11.412 13.453,11.651 13.567,11.824 13.628 L 12.140 13.740 15.900 13.740 C 19.371 13.740,19.686 13.734,19.994 13.668 C 21.949 13.246,23.093 11.549,22.628 9.760 C 22.296 8.485,21.533 6.918,20.713 5.827 C 19.971 4.841,19.077 3.954,18.074 3.211 C 17.054 2.455,15.425 1.673,14.260 1.381 C 13.899 1.290,13.445 1.241,13.220 1.267 M14.011 2.859 C 15.252 3.218,16.562 3.900,17.588 4.722 C 18.050 5.092,18.850 5.886,19.226 6.349 C 20.090 7.412,20.864 8.905,21.181 10.120 C 21.278 10.494,21.247 10.913,21.102 11.198 C 20.874 11.644,20.360 12.031,19.798 12.181 C 19.481 12.265,12.425 12.269,12.229 12.185 C 12.072 12.117,11.860 11.900,11.802 11.747 C 11.774 11.671,11.760 10.476,11.760 8.033 C 11.760 4.886,11.768 4.401,11.823 4.189 C 11.984 3.566,12.388 3.071,12.909 2.857 C 13.220 2.729,13.566 2.729,14.011 2.859 M7.869 3.418 C 6.557 3.873,5.185 4.739,4.175 5.752 C 2.781 7.150,1.817 8.960,1.445 10.880 C 1.314 11.557,1.271 12.051,1.272 12.860 C 1.274 13.744,1.364 14.459,1.579 15.300 C 1.911 16.592,2.532 17.845,3.391 18.955 C 3.734 19.398,4.602 20.266,5.045 20.609 C 6.845 22.003,8.918 22.724,11.140 22.728 C 11.558 22.729,12.080 22.708,12.300 22.683 C 14.602 22.416,16.671 21.411,18.290 19.774 C 19.278 18.775,20.052 17.565,20.542 16.252 C 20.775 15.626,20.792 15.413,20.627 15.163 C 20.434 14.871,20.126 14.752,19.796 14.841 C 19.521 14.915,19.357 15.115,19.205 15.560 C 19.039 16.044,18.590 16.966,18.319 17.380 C 17.852 18.091,17.257 18.755,16.580 19.319 C 15.330 20.360,13.798 21.006,12.114 21.201 C 11.573 21.264,10.314 21.231,9.820 21.142 C 8.288 20.864,6.945 20.244,5.797 19.286 C 4.238 17.985,3.231 16.236,2.858 14.180 C 2.769 13.686,2.736 12.427,2.799 11.886 C 3.120 9.118,4.701 6.735,7.106 5.392 C 7.452 5.198,8.240 4.853,8.593 4.740 C 9.371 4.491,9.390 3.495,8.620 3.284 C 8.404 3.225,8.444 3.218,7.869 3.418 " stroke="none" fill-rule="evenodd" fill="black"></path></svg>