<svg width="24" height="24" viewBox="0 0 24 24" fill="none" xmlns="http://www.w3.org/2000/svg"><path d="M9.325 1.541 C 8.438 1.770,6.972 2.450,6.084 3.044 C 3.478 4.786,1.797 7.447,1.360 10.520 C 1.186 11.749,1.268 13.357,1.565 14.540 C 2.052 16.480,2.976 18.136,4.352 19.535 C 5.827 21.035,7.702 22.060,9.804 22.515 C 11.144 22.804,12.796 22.805,14.180 22.516 C 17.537 21.815,20.395 19.527,21.792 16.420 C 22.108 15.718,22.362 15.050,22.468 14.640 C 22.595 14.147,22.583 13.534,22.438 13.103 C 22.345 12.828,22.061 12.355,21.868 12.156 C 21.419 11.691,20.837 11.429,20.000 11.318 C 19.797 11.290,18.508 11.259,16.800 11.240 C 15.009 11.220,13.865 11.191,13.740 11.164 C 13.630 11.140,13.441 11.070,13.321 11.009 C 13.137 10.916,13.084 10.863,12.991 10.679 C 12.930 10.559,12.860 10.370,12.836 10.260 C 12.809 10.135,12.780 8.991,12.760 7.200 C 12.741 5.492,12.710 4.203,12.682 4.000 C 12.562 3.096,12.258 2.472,11.722 2.026 C 11.493 1.836,10.886 1.540,10.608 1.483 C 10.252 1.411,9.741 1.433,9.325 1.541 M14.311 1.598 C 13.863 1.741,13.630 2.227,13.825 2.612 C 13.963 2.887,14.066 2.951,14.674 3.144 C 16.240 3.639,17.362 4.311,18.493 5.431 C 19.648 6.574,20.319 7.676,20.843 9.288 C 20.959 9.648,21.076 9.934,21.130 9.991 C 21.292 10.165,21.511 10.251,21.744 10.231 C 22.027 10.208,22.214 10.076,22.346 9.810 C 22.478 9.542,22.463 9.434,22.174 8.560 C 21.434 6.330,19.929 4.375,17.920 3.034 C 17.191 2.548,16.268 2.099,15.424 1.820 C 14.711 1.585,14.490 1.541,14.311 1.598 M10.450 3.000 C 10.734 3.106,10.977 3.357,11.080 3.651 C 11.211 4.024,11.239 4.517,11.241 6.560 C 11.243 8.602,11.288 10.059,11.360 10.460 C 11.588 11.711,12.289 12.412,13.540 12.640 C 13.941 12.712,15.398 12.757,17.440 12.759 C 19.483 12.761,19.976 12.789,20.349 12.920 C 20.765 13.066,21.080 13.498,21.080 13.921 C 21.080 14.115,20.904 14.673,20.636 15.327 C 19.605 17.845,17.810 19.644,15.360 20.615 C 13.417 21.384,11.223 21.455,9.190 20.815 C 6.375 19.928,4.073 17.627,3.187 14.817 C 2.904 13.916,2.798 13.246,2.773 12.180 C 2.756 11.489,2.766 11.197,2.818 10.820 C 3.098 8.790,4.050 6.854,5.448 5.473 C 6.565 4.370,7.857 3.599,9.500 3.055 C 9.965 2.901,10.157 2.890,10.450 3.000 " stroke="none" fill-rule="evenodd" fill="black"></path></svg>