<svg width="24" height="24" viewBox="0 0 24 24" fill="none" xmlns="http://www.w3.org/2000/svg"><path d="M15.480 1.774 C 14.505 2.064,13.761 2.838,13.425 3.909 C 13.259 4.440,13.233 4.935,13.250 7.240 C 13.267 9.523,13.265 9.504,13.502 9.886 C 13.654 10.132,13.827 10.309,14.072 10.468 C 14.487 10.737,14.440 10.732,16.760 10.750 C 19.066 10.768,19.559 10.742,20.091 10.575 C 21.211 10.224,22.037 9.387,22.262 8.375 C 22.358 7.947,22.325 7.330,22.185 6.929 C 21.821 5.882,21.055 4.694,20.181 3.819 C 19.258 2.897,17.949 2.074,16.939 1.781 C 16.474 1.646,15.917 1.643,15.480 1.774 M9.045 2.502 C 8.682 2.581,8.451 2.660,7.860 2.909 C 6.340 3.551,5.251 4.263,4.237 5.277 C 3.437 6.077,2.849 6.902,2.342 7.933 C 1.591 9.459,1.269 10.808,1.266 12.440 C 1.259 15.567,2.577 18.400,4.963 20.387 C 6.455 21.629,8.161 22.369,10.220 22.665 C 10.810 22.750,12.165 22.761,12.720 22.685 C 14.619 22.425,16.478 21.640,17.940 20.479 C 18.361 20.145,19.118 19.386,19.455 18.960 C 20.107 18.136,20.619 17.254,21.082 16.159 C 21.393 15.423,21.519 14.987,21.546 14.560 C 21.610 13.563,21.040 12.582,20.140 12.138 C 19.482 11.814,18.960 11.761,16.400 11.759 C 13.503 11.758,12.944 11.702,12.621 11.379 C 12.298 11.056,12.242 10.497,12.241 7.600 C 12.240 6.533,12.221 5.456,12.197 5.206 C 12.077 3.922,11.623 3.169,10.695 2.717 C 10.154 2.452,9.603 2.381,9.045 2.502 M16.649 3.255 C 17.951 3.745,19.203 4.746,20.006 5.938 C 20.272 6.333,20.619 7.002,20.760 7.390 C 20.872 7.698,20.857 8.051,20.722 8.317 C 20.596 8.564,20.291 8.853,20.005 8.997 C 19.526 9.239,19.515 9.240,17.105 9.240 C 15.115 9.240,14.899 9.234,14.833 9.174 C 14.764 9.111,14.760 8.988,14.760 6.902 C 14.760 4.482,14.761 4.474,15.004 3.992 C 15.073 3.856,15.225 3.650,15.343 3.536 C 15.720 3.168,16.165 3.072,16.649 3.255 M10.019 4.044 C 10.382 4.214,10.601 4.550,10.682 5.061 C 10.708 5.227,10.740 6.406,10.759 7.960 C 10.785 10.073,10.803 10.646,10.854 10.920 C 11.035 11.893,11.438 12.498,12.133 12.840 C 12.839 13.187,13.345 13.239,16.020 13.240 C 17.954 13.241,18.887 13.282,19.220 13.379 C 19.806 13.549,20.151 14.080,20.037 14.636 C 19.932 15.154,19.276 16.580,18.824 17.277 C 17.439 19.408,15.236 20.803,12.660 21.180 C 12.079 21.265,10.960 21.265,10.378 21.180 C 8.343 20.882,6.720 20.080,5.320 18.680 C 3.980 17.340,3.223 15.869,2.860 13.900 C 2.769 13.406,2.734 12.030,2.798 11.503 C 3.117 8.909,4.515 6.635,6.662 5.218 C 7.325 4.780,8.627 4.161,9.266 3.978 C 9.502 3.911,9.790 3.936,10.019 4.044 " stroke="none" fill-rule="evenodd" fill="black"></path></svg>