<svg width="24" height="24" viewBox="0 0 24 24" fill="none" xmlns="http://www.w3.org/2000/svg"><path d="M10.940 1.283 C 8.457 1.478,6.322 3.165,5.566 5.530 C 5.168 6.774,5.165 8.101,5.558 9.326 L 5.669 9.672 5.404 9.776 C 4.813 10.009,4.047 10.495,3.467 11.005 C 2.677 11.700,1.939 12.837,1.601 13.880 C 0.553 17.117,2.017 20.581,5.060 22.060 C 7.488 23.241,10.408 22.850,12.440 21.072 C 13.189 20.416,13.778 19.614,14.167 18.716 L 14.334 18.333 14.677 18.443 C 15.418 18.681,16.228 18.776,17.014 18.717 C 20.090 18.488,22.488 16.090,22.717 13.014 C 22.830 11.496,22.393 10.033,21.454 8.788 C 21.209 8.462,15.753 2.989,15.340 2.654 C 14.552 2.016,13.647 1.585,12.664 1.382 C 12.409 1.329,11.436 1.228,11.360 1.247 C 11.349 1.249,11.160 1.266,10.940 1.283 M12.212 2.820 C 12.959 2.950,13.671 3.254,14.239 3.686 C 14.405 3.812,15.095 4.471,15.772 5.150 L 17.005 6.385 16.907 6.643 C 16.435 7.884,15.637 9.069,14.462 10.275 C 13.272 11.496,11.939 12.414,10.643 12.907 L 10.385 13.005 9.150 11.772 C 8.471 11.095,7.812 10.405,7.686 10.239 C 7.256 9.673,6.964 8.993,6.818 8.215 C 6.730 7.748,6.759 6.803,6.875 6.360 C 7.379 4.435,8.853 3.093,10.800 2.787 C 11.059 2.746,11.902 2.766,12.212 2.820 M12.826 4.285 C 12.480 4.365,12.267 4.636,12.267 4.996 C 12.267 5.119,12.290 5.265,12.318 5.320 C 12.347 5.375,12.741 5.796,13.195 6.254 C 14.054 7.124,14.206 7.238,14.500 7.238 C 14.680 7.238,14.946 7.130,15.048 7.014 C 15.154 6.896,15.240 6.659,15.239 6.491 C 15.237 6.204,15.119 6.049,14.235 5.175 C 13.545 4.493,13.353 4.324,13.240 4.302 C 13.163 4.287,13.073 4.268,13.040 4.261 C 13.007 4.255,12.911 4.265,12.826 4.285 M20.314 9.761 C 20.913 10.549,21.240 11.545,21.240 12.575 C 21.239 13.291,21.098 13.925,20.797 14.557 C 20.182 15.851,19.079 16.748,17.640 17.125 C 17.197 17.241,16.252 17.270,15.785 17.182 C 15.007 17.036,14.327 16.744,13.761 16.314 C 13.595 16.188,13.030 15.654,12.504 15.126 L 11.548 14.167 11.964 13.959 C 13.266 13.307,14.283 12.561,15.422 11.422 C 16.556 10.288,17.299 9.278,17.938 8.004 L 18.167 7.548 19.126 8.504 C 19.654 9.030,20.188 9.595,20.314 9.761 M6.543 11.210 C 6.749 11.498,12.304 17.064,12.690 17.370 C 13.044 17.649,13.036 17.586,12.792 18.149 C 12.342 19.187,11.392 20.179,10.337 20.711 C 10.032 20.865,9.506 21.049,9.100 21.144 C 8.648 21.249,7.445 21.251,6.960 21.147 C 6.058 20.954,5.281 20.572,4.588 19.980 C 3.707 19.228,3.102 18.204,2.853 17.040 C 2.749 16.555,2.751 15.352,2.856 14.900 C 2.951 14.494,3.135 13.968,3.289 13.663 C 3.742 12.764,4.569 11.894,5.426 11.415 C 5.654 11.287,6.301 11.003,6.367 11.001 C 6.381 11.000,6.461 11.095,6.543 11.210 " stroke="none" fill-rule="evenodd" fill="black"></path></svg>