<svg width="24" height="24" viewBox="0 0 24 24" fill="none" xmlns="http://www.w3.org/2000/svg"><path d="M8.280 1.283 C 5.907 1.446,3.795 2.683,2.482 4.680 C 1.679 5.900,1.275 7.281,1.275 8.800 C 1.275 10.487,1.758 11.954,2.768 13.331 C 3.040 13.703,9.931 20.636,10.440 21.050 C 12.284 22.551,14.756 23.089,17.091 22.497 C 19.133 21.979,20.862 20.613,21.876 18.715 C 22.435 17.669,22.725 16.467,22.725 15.200 C 22.725 13.524,22.238 12.040,21.239 10.678 C 20.960 10.298,14.079 3.372,13.560 2.950 C 12.090 1.753,10.186 1.152,8.280 1.283 M9.612 2.803 C 10.318 2.909,11.069 3.156,11.664 3.477 C 12.331 3.837,12.573 4.047,14.298 5.763 L 15.975 7.433 15.838 7.806 C 15.554 8.583,14.899 9.781,14.304 10.612 C 13.407 11.868,11.868 13.407,10.612 14.304 C 9.781 14.899,8.583 15.554,7.806 15.838 L 7.433 15.975 5.763 14.298 C 4.047 12.573,3.837 12.331,3.477 11.664 C 3.156 11.069,2.909 10.318,2.803 9.612 C 2.779 9.454,2.760 9.082,2.760 8.786 C 2.760 7.789,2.981 6.893,3.447 6.001 C 3.749 5.422,3.995 5.084,4.478 4.587 C 5.451 3.586,6.579 3.022,8.080 2.787 C 8.303 2.752,9.344 2.763,9.612 2.803 M20.131 11.703 C 20.702 12.523,21.059 13.432,21.202 14.431 C 21.273 14.924,21.233 15.921,21.121 16.440 C 20.863 17.646,20.287 18.679,19.394 19.542 C 18.913 20.006,18.570 20.256,17.999 20.553 C 17.107 21.019,16.211 21.240,15.214 21.240 C 13.959 21.240,12.869 20.907,11.798 20.196 C 11.491 19.993,11.154 19.682,10.006 18.541 L 8.593 17.137 8.986 16.966 C 10.663 16.238,12.589 14.822,14.081 13.220 C 15.328 11.881,16.378 10.341,16.966 8.987 L 17.137 8.594 18.521 9.987 C 19.452 10.923,19.980 11.486,20.131 11.703 " stroke="none" fill-rule="evenodd" fill="black"></path></svg>