<svg width="24" height="24" viewBox="0 0 24 24" fill="none" xmlns="http://www.w3.org/2000/svg"><path d="M7.533 1.282 C 4.380 1.541,2.031 4.296,2.283 7.438 C 2.385 8.709,2.864 9.855,3.679 10.780 C 5.978 13.388,10.022 13.388,12.321 10.780 C 13.670 9.249,14.093 7.061,13.418 5.105 C 12.800 3.316,11.271 1.908,9.440 1.442 C 8.852 1.293,8.133 1.232,7.533 1.282 M9.020 2.873 C 9.841 3.104,10.443 3.447,10.998 4.002 C 11.552 4.557,11.924 5.216,12.147 6.040 C 12.249 6.413,12.248 7.590,12.147 7.960 C 12.010 8.458,11.736 9.093,11.560 9.320 L 11.483 9.420 8.531 6.469 L 5.580 3.517 5.680 3.440 C 5.911 3.260,6.575 2.976,7.020 2.865 C 7.397 2.771,7.462 2.766,8.120 2.781 C 8.582 2.791,8.811 2.814,9.020 2.873 M7.480 7.541 L 10.420 10.483 10.320 10.560 C 10.092 10.737,9.456 11.011,8.960 11.146 C 8.577 11.251,7.456 11.249,7.040 11.144 C 5.449 10.740,4.260 9.551,3.856 7.960 C 3.796 7.725,3.780 7.517,3.780 7.000 C 3.780 6.263,3.827 6.003,4.069 5.400 C 4.206 5.061,4.461 4.600,4.513 4.600 C 4.528 4.600,5.863 5.924,7.480 7.541 M16.533 11.282 C 15.766 11.344,15.177 11.510,14.452 11.865 C 13.875 12.147,13.406 12.484,12.945 12.945 C 12.484 13.406,12.147 13.875,11.865 14.452 C 11.500 15.196,11.349 15.746,11.283 16.562 C 11.149 18.232,11.752 19.863,12.945 21.055 C 14.137 22.248,15.768 22.851,17.438 22.717 C 18.254 22.651,18.804 22.500,19.548 22.135 C 20.675 21.583,21.584 20.674,22.137 19.544 C 22.257 19.300,22.399 18.965,22.454 18.800 C 22.824 17.688,22.824 16.312,22.454 15.200 C 22.399 15.035,22.257 14.700,22.137 14.456 C 21.107 12.353,18.876 11.089,16.533 11.282 M18.020 12.871 C 19.571 13.295,20.732 14.455,21.122 15.970 L 21.192 16.240 17.000 16.240 L 12.808 16.240 12.878 15.970 C 13.271 14.443,14.514 13.217,16.020 12.867 C 16.458 12.766,16.465 12.765,17.120 12.780 C 17.571 12.790,17.817 12.815,18.020 12.871 M21.122 18.030 C 20.789 19.322,19.835 20.427,18.631 20.917 C 18.002 21.173,17.747 21.220,17.000 21.220 C 16.253 21.220,15.998 21.173,15.369 20.917 C 14.165 20.427,13.211 19.322,12.878 18.030 L 12.808 17.760 17.000 17.760 L 21.192 17.760 21.122 18.030 " stroke="none" fill-rule="evenodd" fill="black"></path></svg>