<svg width="24" height="24" viewBox="0 0 24 24" fill="none" xmlns="http://www.w3.org/2000/svg"><path d="M16.620 1.266 C 15.437 1.372,14.400 1.969,13.783 2.899 C 13.582 3.201,13.341 3.724,13.263 4.025 C 13.111 4.618,13.110 5.375,13.262 5.975 C 13.348 6.313,13.673 6.968,13.911 7.281 C 14.277 7.763,14.728 8.118,15.332 8.400 C 16.202 8.806,17.242 8.849,18.160 8.515 C 18.964 8.222,19.706 7.602,20.110 6.884 C 20.408 6.353,20.543 5.929,20.596 5.356 C 20.794 3.217,19.216 1.394,17.060 1.268 C 16.906 1.259,16.708 1.259,16.620 1.266 M17.454 2.823 C 17.830 2.920,18.151 3.110,18.460 3.420 C 18.916 3.876,19.120 4.364,19.120 5.000 C 19.120 5.635,18.917 6.122,18.460 6.582 C 18.003 7.041,17.525 7.240,16.880 7.240 C 16.236 7.240,15.759 7.041,15.299 6.581 C 14.839 6.121,14.640 5.644,14.640 5.000 C 14.640 4.356,14.839 3.879,15.299 3.419 C 15.599 3.118,15.930 2.919,16.284 2.823 C 16.575 2.745,17.151 2.745,17.454 2.823 M6.058 4.282 C 3.706 4.469,1.756 6.250,1.337 8.593 C 1.256 9.046,1.256 9.954,1.337 10.407 C 1.727 12.586,3.414 14.273,5.593 14.663 C 6.046 14.744,6.954 14.744,7.407 14.663 C 9.573 14.276,11.276 12.573,11.663 10.407 C 11.744 9.954,11.744 9.046,11.663 8.593 C 11.473 7.531,10.968 6.565,10.201 5.799 C 9.103 4.700,7.621 4.158,6.058 4.282 M7.532 5.895 C 8.545 6.199,9.329 6.841,9.819 7.770 C 9.979 8.073,10.160 8.569,10.160 8.704 C 10.160 8.752,9.604 8.760,6.500 8.760 C 3.396 8.760,2.840 8.752,2.840 8.704 C 2.840 8.569,3.021 8.073,3.181 7.770 C 3.721 6.747,4.600 6.083,5.765 5.819 C 5.944 5.779,6.193 5.766,6.600 5.776 C 7.084 5.788,7.238 5.807,7.532 5.895 M10.160 10.296 C 10.160 10.431,9.979 10.927,9.819 11.230 C 9.330 12.157,8.556 12.793,7.532 13.108 C 7.208 13.207,7.126 13.216,6.500 13.216 C 5.871 13.216,5.793 13.207,5.460 13.105 C 4.427 12.789,3.613 12.102,3.130 11.140 C 3.011 10.904,2.840 10.405,2.840 10.296 C 2.840 10.248,3.396 10.240,6.500 10.240 C 9.604 10.240,10.160 10.248,10.160 10.296 M17.859 10.280 C 17.097 10.346,16.426 10.585,15.740 11.033 C 15.401 11.255,11.518 15.097,11.174 15.551 C 10.487 16.459,10.187 17.521,10.286 18.691 C 10.417 20.227,11.360 21.586,12.774 22.280 C 13.290 22.533,13.764 22.667,14.309 22.714 C 15.479 22.813,16.541 22.513,17.449 21.826 C 17.903 21.482,21.745 17.599,21.967 17.260 C 22.495 16.453,22.725 15.696,22.728 14.760 C 22.730 13.967,22.582 13.342,22.234 12.673 C 21.394 11.059,19.681 10.122,17.859 10.280 M18.927 11.821 C 19.090 11.855,19.389 11.965,19.600 12.069 C 19.924 12.228,20.036 12.312,20.362 12.638 C 20.690 12.966,20.771 13.074,20.930 13.400 C 21.181 13.916,21.255 14.279,21.230 14.874 C 21.216 15.229,21.186 15.416,21.106 15.660 C 20.922 16.224,20.774 16.425,19.845 17.368 L 18.990 18.235 18.785 18.155 C 17.982 17.839,17.248 17.330,16.459 16.541 C 15.670 15.752,15.161 15.018,14.846 14.216 L 14.766 14.012 15.593 13.192 C 16.442 12.350,16.635 12.191,17.031 12.009 C 17.554 11.769,18.316 11.694,18.927 11.821 M14.175 16.119 C 14.535 16.677,14.971 17.203,15.485 17.702 C 16.142 18.341,16.771 18.807,17.510 19.203 L 17.839 19.380 17.270 19.953 C 16.956 20.268,16.589 20.606,16.454 20.704 C 15.953 21.065,15.396 21.240,14.745 21.240 C 14.229 21.240,13.852 21.154,13.400 20.931 C 13.076 20.772,12.964 20.688,12.638 20.362 C 12.312 20.036,12.228 19.924,12.069 19.600 C 11.846 19.148,11.760 18.771,11.760 18.255 C 11.760 17.642,11.924 17.085,12.243 16.613 C 12.314 16.507,12.652 16.137,12.994 15.790 L 13.616 15.161 13.773 15.450 C 13.860 15.610,14.040 15.911,14.175 16.119 " stroke="none" fill-rule="evenodd" fill="black"></path></svg>