<svg width="24" height="24" viewBox="0 0 24 24" fill="none" xmlns="http://www.w3.org/2000/svg"><path d="M11.700 2.283 C 11.047 2.365,10.428 2.808,9.935 3.546 C 9.566 4.100,9.160 5.001,8.024 7.793 C 7.257 9.676,7.154 9.901,6.972 10.088 C 6.783 10.281,6.650 10.335,5.411 10.717 C 4.835 10.895,4.232 11.088,4.072 11.145 C 2.981 11.537,2.445 12.075,2.296 12.930 C 2.207 13.439,2.294 13.850,2.597 14.360 C 2.828 14.748,3.184 15.146,4.367 16.342 L 5.437 17.423 3.956 18.902 C 3.141 19.715,2.428 20.458,2.372 20.553 C 2.194 20.852,2.243 21.240,2.487 21.468 C 2.612 21.585,2.847 21.680,3.009 21.679 C 3.289 21.677,3.435 21.553,4.978 20.006 L 6.497 18.483 7.618 19.593 C 9.129 21.089,9.540 21.428,10.080 21.622 C 10.922 21.924,11.884 21.608,12.399 20.860 C 12.674 20.460,12.825 20.071,13.283 18.587 C 13.665 17.350,13.719 17.216,13.912 17.028 C 14.099 16.846,14.324 16.743,16.207 15.976 C 19.716 14.548,20.426 14.199,21.009 13.620 C 21.505 13.126,21.718 12.655,21.719 12.046 C 21.720 11.595,21.647 11.287,21.440 10.871 C 21.075 10.140,20.797 9.831,17.664 6.687 C 14.376 3.387,13.871 2.928,13.140 2.565 C 12.639 2.317,12.168 2.225,11.700 2.283 M12.420 3.875 C 12.748 4.031,13.048 4.262,13.660 4.829 C 14.343 5.463,19.146 10.288,19.505 10.701 C 20.568 11.926,20.492 12.400,19.120 13.097 C 18.463 13.431,18.019 13.622,15.800 14.526 C 13.403 15.502,13.270 15.568,12.855 15.979 C 12.426 16.403,12.297 16.678,11.880 18.060 C 11.304 19.962,11.160 20.241,10.748 20.240 C 10.593 20.239,10.451 20.169,10.161 19.947 C 9.826 19.692,7.288 17.166,7.189 16.988 C 7.140 16.902,7.027 16.789,6.935 16.735 C 6.748 16.625,4.309 14.175,4.053 13.839 C 3.831 13.549,3.761 13.407,3.760 13.252 C 3.759 12.822,4.035 12.685,6.200 12.039 C 7.309 11.708,7.610 11.560,8.021 11.145 C 8.432 10.730,8.498 10.597,9.474 8.200 C 10.341 6.072,10.562 5.555,10.870 4.940 C 11.421 3.839,11.800 3.579,12.420 3.875 " stroke="none" fill-rule="evenodd" fill="black"></path></svg>