<svg width="24" height="24" viewBox="0 0 24 24" fill="none" xmlns="http://www.w3.org/2000/svg"><path d="M9.813 4.845 C 8.801 4.958,8.165 5.507,7.540 6.811 C 7.400 7.102,7.107 7.781,6.888 8.320 C 6.336 9.681,6.279 9.797,6.088 9.969 C 5.875 10.161,5.784 10.197,4.800 10.486 C 3.590 10.840,3.238 11.033,2.933 11.508 C 2.683 11.899,2.609 12.479,2.756 12.898 C 2.890 13.279,3.116 13.560,4.056 14.511 L 4.976 15.441 3.833 16.591 C 2.606 17.825,2.571 17.872,2.611 18.225 C 2.665 18.709,3.227 19.028,3.652 18.816 C 3.722 18.781,4.288 18.246,4.909 17.628 L 6.038 16.503 6.969 17.424 C 8.192 18.632,8.451 18.800,9.100 18.800 C 9.470 18.800,9.736 18.718,10.046 18.509 C 10.506 18.200,10.609 17.980,11.177 16.117 C 11.341 15.579,11.489 15.353,11.785 15.192 C 11.892 15.134,12.421 14.906,12.960 14.687 C 14.586 14.025,14.993 13.835,15.480 13.507 C 15.929 13.206,16.209 12.900,16.394 12.510 C 16.915 11.413,16.701 10.451,15.676 9.275 C 15.264 8.802,12.993 6.518,12.427 6.007 C 11.349 5.035,10.701 4.747,9.813 4.845 M10.544 6.442 C 10.946 6.653,11.296 6.970,12.904 8.577 C 14.876 10.548,15.159 10.898,15.160 11.375 C 15.161 12.093,14.834 12.318,12.280 13.350 C 11.171 13.798,11.057 13.853,10.729 14.100 C 10.263 14.450,9.984 14.902,9.741 15.700 C 9.381 16.879,9.269 17.223,9.231 17.270 C 9.099 17.432,9.058 17.396,6.571 14.909 C 4.876 13.214,4.160 12.472,4.160 12.412 C 4.160 12.239,4.224 12.213,5.620 11.801 C 6.371 11.579,6.756 11.389,7.102 11.068 C 7.478 10.719,7.675 10.369,8.120 9.260 C 8.844 7.456,9.123 6.885,9.427 6.591 C 9.733 6.295,10.157 6.238,10.544 6.442 M16.815 7.278 C 16.331 7.393,16.098 8.004,16.383 8.408 C 16.448 8.499,16.572 8.610,16.660 8.656 C 16.817 8.738,16.873 8.740,19.377 8.751 C 21.157 8.759,21.999 8.749,22.150 8.718 C 22.902 8.562,22.931 7.473,22.189 7.286 C 21.980 7.234,17.032 7.226,16.815 7.278 M17.720 11.805 C 17.458 11.909,17.269 12.200,17.269 12.500 C 17.269 12.807,17.460 13.095,17.733 13.197 C 17.807 13.226,18.575 13.240,20.000 13.240 C 21.425 13.240,22.193 13.226,22.267 13.197 C 22.540 13.095,22.731 12.807,22.731 12.500 C 22.731 12.193,22.540 11.905,22.267 11.803 C 22.119 11.746,17.862 11.748,17.720 11.805 M12.815 16.278 C 12.331 16.393,12.098 17.004,12.383 17.408 C 12.447 17.499,12.572 17.610,12.660 17.656 C 12.819 17.740,12.843 17.740,17.380 17.751 C 20.605 17.758,22.002 17.749,22.153 17.717 C 22.902 17.562,22.929 16.473,22.189 16.286 C 21.979 16.234,13.034 16.226,12.815 16.278 " stroke="none" fill-rule="evenodd" fill="black"></path></svg>