<svg width="24" height="24" viewBox="0 0 24 24" fill="none" xmlns="http://www.w3.org/2000/svg"><path d="M11.320 1.281 C 7.041 1.525,3.252 4.409,1.843 8.497 C 1.180 10.418,1.082 12.560,1.564 14.550 C 2.505 18.428,5.572 21.495,9.450 22.436 C 11.106 22.837,12.894 22.837,14.550 22.436 C 18.428 21.495,21.495 18.428,22.436 14.550 C 22.837 12.894,22.837 11.106,22.436 9.450 C 21.425 5.282,17.985 2.095,13.742 1.398 C 13.334 1.331,12.074 1.229,11.880 1.247 C 11.847 1.250,11.595 1.265,11.320 1.281 M13.146 2.822 C 14.201 2.960,15.125 3.237,16.060 3.696 C 18.877 5.079,20.768 7.722,21.178 10.854 C 21.301 11.786,21.244 13.026,21.034 13.998 C 20.745 15.343,20.003 16.855,19.121 17.900 C 18.247 18.935,17.240 19.726,16.060 20.304 C 14.761 20.940,13.462 21.240,12.000 21.240 C 10.538 21.240,9.236 20.940,7.940 20.304 C 5.123 18.921,3.232 16.278,2.822 13.146 C 2.699 12.214,2.756 10.974,2.966 10.002 C 3.177 9.020,3.703 7.775,4.268 6.920 C 5.750 4.677,8.131 3.188,10.820 2.823 C 11.380 2.746,12.569 2.746,13.146 2.822 M12.209 5.764 C 11.705 5.830,11.240 6.224,10.912 6.864 C 10.811 7.060,10.480 7.841,10.177 8.600 C 9.505 10.282,9.574 10.192,8.799 10.415 C 8.502 10.500,8.150 10.619,8.016 10.679 C 7.111 11.088,6.745 12.230,7.249 13.072 C 7.321 13.192,7.631 13.550,7.937 13.868 L 8.494 14.446 7.688 15.253 C 6.876 16.067,6.760 16.220,6.760 16.480 C 6.760 16.634,6.857 16.870,6.972 16.995 C 7.088 17.121,7.347 17.238,7.511 17.239 C 7.779 17.241,7.926 17.131,8.748 16.311 L 9.555 15.505 10.103 16.037 C 10.910 16.820,11.199 16.979,11.809 16.971 C 12.459 16.963,13.055 16.574,13.320 15.984 C 13.381 15.850,13.494 15.522,13.572 15.255 C 13.733 14.701,13.798 14.559,13.938 14.448 C 13.993 14.405,14.655 14.123,15.409 13.821 C 16.163 13.519,16.941 13.188,17.138 13.086 C 18.159 12.555,18.503 11.749,18.086 10.861 C 17.907 10.481,17.574 10.098,16.253 8.759 C 14.781 7.265,13.777 6.312,13.443 6.089 C 13.019 5.805,12.644 5.707,12.209 5.764 M13.111 7.769 C 14.452 9.039,16.587 11.221,16.698 11.436 C 16.751 11.539,16.750 11.556,16.689 11.611 C 16.557 11.727,16.050 11.951,14.729 12.478 C 13.998 12.770,13.295 13.076,13.169 13.157 C 12.885 13.341,12.566 13.693,12.427 13.976 C 12.370 14.093,12.248 14.439,12.157 14.745 C 12.066 15.050,11.966 15.341,11.935 15.390 C 11.798 15.608,11.763 15.580,10.092 13.907 C 8.986 12.801,8.520 12.308,8.520 12.247 C 8.520 12.094,8.650 12.021,9.236 11.847 C 9.552 11.753,9.914 11.624,10.041 11.559 C 10.335 11.411,10.702 11.071,10.870 10.793 C 10.941 10.674,11.249 9.957,11.553 9.198 C 12.110 7.814,12.225 7.553,12.368 7.350 C 12.442 7.244,12.449 7.243,12.564 7.302 C 12.629 7.336,12.875 7.546,13.111 7.769 " fill="#1C274C" stroke="none" fill-rule="evenodd"></path></svg>