<svg width="24" height="24" viewBox="0 0 24 24" fill="none" xmlns="http://www.w3.org/2000/svg"><path d="M7.420 2.282 C 4.817 2.355,3.631 2.693,2.669 3.635 C 1.916 4.371,1.533 5.339,1.360 6.940 C 1.205 8.376,1.205 15.624,1.360 17.060 C 1.531 18.644,1.894 19.574,2.635 20.331 C 3.353 21.065,4.272 21.441,5.787 21.621 C 6.757 21.736,10.740 21.806,11.162 21.716 C 11.904 21.557,11.924 20.471,11.189 20.286 C 11.062 20.255,10.424 20.240,9.152 20.240 C 6.644 20.240,5.711 20.174,4.901 19.939 C 3.569 19.553,3.033 18.751,2.833 16.840 C 2.757 16.120,2.757 7.880,2.833 7.160 C 3.076 4.843,3.790 4.112,6.080 3.835 C 6.340 3.803,8.054 3.783,11.500 3.771 C 16.430 3.754,17.482 3.772,18.260 3.883 C 19.841 4.109,20.581 4.666,20.938 5.896 C 21.156 6.649,21.204 7.218,21.234 9.380 C 21.260 11.214,21.260 11.220,21.353 11.369 C 21.613 11.788,22.179 11.861,22.521 11.519 C 22.771 11.269,22.779 11.180,22.726 9.080 C 22.670 6.836,22.585 6.066,22.302 5.221 C 21.886 3.984,21.016 3.114,19.779 2.698 C 19.005 2.439,18.137 2.331,16.400 2.280 C 14.922 2.237,8.986 2.238,7.420 2.282 M15.520 12.282 C 14.739 12.314,14.443 12.357,13.992 12.504 C 13.109 12.793,12.560 13.473,12.362 14.520 C 12.275 14.986,12.227 16.946,12.275 18.130 C 12.324 19.337,12.347 19.527,12.504 20.008 C 12.795 20.898,13.480 21.446,14.540 21.640 C 15.358 21.789,19.639 21.789,20.460 21.640 C 21.704 21.414,22.404 20.719,22.638 19.480 C 22.724 19.020,22.772 17.020,22.724 15.851 C 22.676 14.663,22.652 14.471,22.496 13.992 C 22.205 13.102,21.519 12.553,20.460 12.360 C 19.889 12.257,17.177 12.213,15.520 12.282 M20.260 13.834 C 20.370 13.859,20.559 13.930,20.679 13.991 C 20.863 14.084,20.916 14.137,21.009 14.321 C 21.208 14.713,21.220 14.861,21.220 17.000 C 21.220 19.139,21.208 19.287,21.009 19.679 C 20.916 19.863,20.863 19.916,20.679 20.009 C 20.277 20.213,20.175 20.220,17.500 20.220 C 14.825 20.220,14.723 20.213,14.321 20.009 C 14.137 19.916,14.084 19.863,13.991 19.679 C 13.930 19.559,13.860 19.370,13.835 19.260 C 13.770 18.968,13.741 15.655,13.798 15.107 C 13.850 14.610,13.955 14.291,14.123 14.123 C 14.276 13.970,14.601 13.851,14.989 13.805 C 15.437 13.751,20.008 13.777,20.260 13.834 " stroke="none" fill-rule="evenodd" fill="black"></path></svg>