<svg width="24" height="24" viewBox="0 0 24 24" fill="none" xmlns="http://www.w3.org/2000/svg"><path d="M8.580 2.278 C 6.584 2.328,5.828 2.417,4.940 2.708 C 4.047 3.000,3.264 3.526,2.669 4.233 C 1.772 5.298,1.439 6.330,1.316 8.420 C 1.253 9.479,1.253 14.521,1.316 15.580 C 1.399 16.998,1.566 17.828,1.932 18.649 C 2.175 19.193,2.724 19.902,3.233 20.331 C 4.297 21.227,5.322 21.559,7.420 21.686 C 8.516 21.752,15.484 21.752,16.580 21.686 C 18.649 21.560,19.721 21.215,20.762 20.336 C 21.345 19.844,21.897 19.093,22.154 18.442 C 22.458 17.674,22.609 16.856,22.684 15.580 C 22.746 14.522,22.746 9.478,22.684 8.420 C 22.602 7.011,22.432 6.168,22.068 5.351 C 21.825 4.807,21.276 4.098,20.767 3.669 C 19.711 2.779,18.666 2.438,16.640 2.320 C 15.731 2.267,10.180 2.238,8.580 2.278 M17.080 3.835 C 18.705 4.012,19.552 4.401,20.280 5.306 C 20.798 5.951,21.034 6.661,21.167 7.980 C 21.242 8.721,21.242 15.279,21.167 16.020 C 21.034 17.339,20.798 18.049,20.280 18.694 C 19.540 19.613,18.687 19.999,17.020 20.167 C 16.272 20.243,7.728 20.243,6.980 20.167 C 5.313 19.999,4.460 19.613,3.720 18.694 C 3.202 18.049,2.966 17.339,2.833 16.020 C 2.758 15.279,2.758 8.721,2.833 7.980 C 2.966 6.661,3.202 5.951,3.720 5.306 C 4.563 4.258,5.600 3.874,7.820 3.786 C 8.708 3.750,16.694 3.793,17.080 3.835 M12.900 10.277 C 12.412 10.311,12.107 10.387,11.737 10.567 C 11.089 10.883,10.609 11.462,10.381 12.200 C 10.208 12.761,10.208 15.239,10.381 15.800 C 10.660 16.704,11.303 17.346,12.200 17.618 C 12.554 17.725,13.577 17.771,15.020 17.746 C 15.949 17.729,16.419 17.705,16.606 17.664 C 17.687 17.427,18.472 16.618,18.684 15.520 C 18.753 15.162,18.753 12.838,18.684 12.480 C 18.472 11.382,17.690 10.576,16.606 10.335 C 16.297 10.267,13.648 10.225,12.900 10.277 M16.526 11.866 C 16.764 11.976,17.024 12.236,17.134 12.474 C 17.217 12.653,17.220 12.713,17.220 14.000 C 17.220 15.287,17.217 15.347,17.134 15.526 C 17.024 15.764,16.764 16.024,16.526 16.134 C 16.344 16.218,16.298 16.220,14.500 16.220 C 12.702 16.220,12.656 16.218,12.474 16.134 C 12.236 16.024,11.976 15.764,11.866 15.526 C 11.785 15.351,11.779 15.269,11.767 14.129 C 11.759 13.332,11.770 12.843,11.800 12.699 C 11.884 12.294,12.230 11.925,12.628 11.816 C 12.775 11.776,13.228 11.765,14.580 11.772 C 16.287 11.780,16.346 11.783,16.526 11.866 " stroke="none" fill-rule="evenodd" fill="black"></path></svg>