<svg width="24" height="24" viewBox="0 0 24 24" fill="none" xmlns="http://www.w3.org/2000/svg"><path d="M17.480 1.266 C 16.598 1.347,15.693 1.689,15.000 2.202 C 14.834 2.326,14.428 2.689,14.098 3.009 L 13.498 3.592 13.077 3.181 C 12.462 2.580,12.030 2.384,11.318 2.385 C 10.307 2.385,9.473 3.003,9.135 4.000 C 9.081 4.162,9.061 4.336,9.061 4.660 C 9.061 5.390,9.242 5.790,9.867 6.441 L 10.253 6.844 6.914 10.192 C 5.077 12.033,3.511 13.630,3.432 13.740 C 3.142 14.148,2.953 14.641,2.903 15.120 C 2.886 15.286,2.906 15.666,2.958 16.169 C 3.108 17.616,3.107 17.619,2.299 18.445 C 1.694 19.064,1.495 19.343,1.356 19.767 C 1.166 20.348,1.262 21.136,1.586 21.650 C 1.866 22.093,2.321 22.454,2.804 22.616 C 3.358 22.801,3.865 22.790,4.399 22.580 C 4.745 22.445,4.959 22.282,5.580 21.680 C 6.302 20.979,6.385 20.939,7.040 20.974 C 7.293 20.987,7.743 21.026,8.040 21.060 C 8.337 21.093,8.697 21.111,8.840 21.098 C 9.364 21.051,9.911 20.837,10.322 20.517 C 10.442 20.424,12.029 18.863,13.848 17.047 L 17.156 13.746 17.556 14.130 C 17.776 14.342,18.040 14.564,18.143 14.624 C 19.643 15.503,21.493 14.534,21.627 12.799 C 21.645 12.568,21.631 12.423,21.568 12.172 C 21.434 11.641,21.307 11.429,20.835 10.941 L 20.409 10.502 21.002 9.890 C 21.683 9.188,21.918 8.889,22.178 8.395 C 22.567 7.657,22.736 6.969,22.737 6.120 C 22.737 5.493,22.680 5.129,22.494 4.572 C 21.943 2.925,20.505 1.664,18.810 1.345 C 18.474 1.281,17.768 1.239,17.480 1.266 M18.800 2.880 C 19.661 3.125,20.431 3.754,20.855 4.559 C 21.142 5.104,21.218 5.431,21.217 6.120 C 21.217 6.770,21.167 7.016,20.937 7.514 C 20.719 7.987,20.475 8.288,19.554 9.221 C 19.076 9.705,18.666 10.152,18.643 10.213 C 18.582 10.373,18.590 10.619,18.662 10.790 C 18.699 10.879,18.976 11.194,19.357 11.579 C 19.706 11.932,20.022 12.281,20.060 12.356 C 20.161 12.558,20.128 12.907,19.987 13.110 C 19.770 13.424,19.326 13.546,18.999 13.382 C 18.826 13.295,10.835 5.326,10.676 5.082 C 10.454 4.742,10.551 4.248,10.885 4.017 C 11.093 3.872,11.440 3.837,11.644 3.940 C 11.719 3.978,12.068 4.294,12.421 4.643 C 12.806 5.024,13.121 5.301,13.210 5.338 C 13.381 5.410,13.627 5.418,13.787 5.357 C 13.848 5.334,14.295 4.924,14.779 4.446 C 15.264 3.967,15.780 3.491,15.926 3.387 C 16.349 3.087,16.885 2.865,17.380 2.786 C 17.667 2.740,18.503 2.795,18.800 2.880 M13.720 10.300 L 16.099 12.680 15.320 13.460 C 14.891 13.889,14.522 14.240,14.500 14.240 C 14.477 14.240,14.153 13.932,13.780 13.556 C 13.368 13.142,13.037 12.842,12.940 12.797 C 12.531 12.605,12.066 12.822,11.937 13.265 C 11.822 13.661,11.920 13.826,12.777 14.679 L 13.440 15.339 12.991 15.789 C 12.743 16.037,12.523 16.240,12.500 16.240 C 12.478 16.240,12.153 15.932,11.780 15.556 C 11.368 15.142,11.037 14.842,10.940 14.797 C 10.531 14.605,10.066 14.822,9.937 15.265 C 9.822 15.662,9.891 15.780,10.747 16.644 L 11.444 17.347 10.404 18.368 C 9.288 19.464,9.170 19.552,8.759 19.589 C 8.636 19.601,8.168 19.569,7.718 19.520 C 6.584 19.397,6.270 19.430,5.609 19.746 C 5.268 19.908,5.186 19.973,4.603 20.537 C 3.911 21.207,3.820 21.262,3.455 21.231 C 2.947 21.189,2.609 20.593,2.829 20.126 C 2.867 20.046,3.159 19.710,3.479 19.380 C 4.140 18.698,4.338 18.385,4.479 17.795 C 4.581 17.372,4.580 17.134,4.476 16.207 C 4.430 15.796,4.401 15.360,4.412 15.237 C 4.452 14.771,4.384 14.847,7.973 11.250 C 9.801 9.418,11.306 7.920,11.318 7.920 C 11.330 7.920,12.411 8.991,13.720 10.300 " fill="#1C274C" stroke="none" fill-rule="evenodd"></path></svg>