<svg width="24" height="24" viewBox="0 0 24 24" fill="none" xmlns="http://www.w3.org/2000/svg"><path d="M19.668 1.281 C 19.176 1.327,18.430 1.489,17.540 1.745 C 16.702 1.986,5.181 5.811,3.998 6.240 C 3.121 6.559,2.745 6.728,2.374 6.969 C 1.721 7.394,1.400 7.885,1.283 8.636 C 1.229 8.988,1.276 9.330,1.436 9.742 C 1.666 10.336,2.033 10.789,3.423 12.200 C 3.979 12.765,4.424 13.251,4.473 13.346 C 4.614 13.622,4.614 13.766,4.478 14.700 C 4.320 15.779,4.281 16.686,4.374 17.082 C 4.705 18.493,5.885 19.562,7.287 19.721 C 7.686 19.766,8.206 19.730,9.360 19.578 C 10.689 19.402,10.542 19.341,11.820 20.598 C 12.370 21.139,12.954 21.696,13.118 21.837 C 13.938 22.539,14.665 22.826,15.353 22.719 C 16.454 22.548,17.029 21.956,17.625 20.382 C 17.907 19.638,21.984 7.396,22.215 6.600 C 22.607 5.253,22.726 4.613,22.724 3.873 C 22.723 3.341,22.688 3.124,22.549 2.760 C 22.323 2.172,21.828 1.676,21.240 1.451 C 20.802 1.283,20.272 1.225,19.668 1.281 M13.060 9.880 C 9.144 13.796,5.929 17.000,5.916 17.000 C 5.861 17.000,5.800 16.667,5.800 16.366 C 5.800 16.187,5.864 15.587,5.943 15.031 C 6.107 13.877,6.110 13.479,5.962 13.040 C 5.786 12.517,5.611 12.290,4.543 11.204 C 3.067 9.701,2.760 9.309,2.760 8.925 C 2.760 8.530,2.958 8.309,3.572 8.020 C 4.143 7.751,4.959 7.470,11.280 5.367 C 17.077 3.438,18.302 3.049,19.100 2.885 C 19.626 2.776,19.659 2.772,19.940 2.765 L 20.180 2.760 13.060 9.880 M21.228 4.175 C 21.198 4.601,21.050 5.261,20.774 6.200 C 20.539 7.001,16.603 18.838,16.282 19.711 C 16.071 20.284,15.855 20.740,15.691 20.954 C 15.474 21.240,15.063 21.316,14.706 21.137 C 14.384 20.975,14.030 20.667,12.925 19.583 C 11.867 18.547,11.678 18.388,11.295 18.213 C 10.744 17.961,10.332 17.944,8.983 18.120 C 7.939 18.257,7.427 18.272,7.143 18.175 L 6.951 18.109 14.085 10.975 C 18.009 7.051,21.227 3.840,21.236 3.840 C 21.245 3.840,21.241 3.991,21.228 4.175 " stroke="none" fill-rule="evenodd" fill="black"></path></svg>