<svg width="24" height="24" viewBox="0 0 24 24" fill="none" xmlns="http://www.w3.org/2000/svg"><path d="M19.268 1.284 C 18.551 1.342,17.562 1.567,16.200 1.980 C 15.277 2.260,7.817 4.738,6.133 5.324 C 3.555 6.221,2.699 6.626,2.090 7.237 C 1.381 7.949,1.091 9.212,1.379 10.340 C 1.474 10.713,1.774 11.286,2.009 11.542 C 2.673 12.268,3.617 12.694,7.454 13.997 C 8.177 14.242,8.840 14.479,8.926 14.523 C 9.127 14.626,9.374 14.873,9.477 15.074 C 9.521 15.160,9.758 15.823,10.003 16.546 C 11.306 20.383,11.732 21.327,12.458 21.991 C 12.714 22.226,13.287 22.526,13.660 22.621 C 14.301 22.784,15.020 22.763,15.644 22.563 C 16.534 22.277,17.038 21.787,17.588 20.675 C 18.032 19.776,18.362 18.844,20.296 13.040 C 22.524 6.354,22.671 5.827,22.709 4.400 C 22.726 3.781,22.718 3.661,22.643 3.361 C 22.272 1.876,21.070 1.136,19.268 1.284 M20.363 2.824 C 20.482 2.860,20.649 2.939,20.733 3.001 C 21.453 3.529,21.419 4.628,20.599 7.341 C 20.365 8.115,18.133 14.850,17.471 16.780 C 16.410 19.875,15.996 20.758,15.489 21.015 C 15.139 21.193,14.863 21.251,14.464 21.231 C 13.732 21.193,13.356 20.929,12.972 20.179 C 12.603 19.462,12.336 18.755,11.495 16.280 C 11.222 15.477,10.944 14.694,10.878 14.540 L 10.758 14.260 12.549 12.479 C 13.534 11.500,14.768 10.276,15.292 9.759 C 15.816 9.243,16.277 8.766,16.317 8.700 C 16.713 8.050,15.930 7.267,15.299 7.681 C 15.235 7.723,13.978 8.949,12.506 10.407 C 11.035 11.864,9.790 13.088,9.740 13.127 C 9.652 13.197,9.640 13.195,9.355 13.079 C 9.193 13.013,8.367 12.724,7.520 12.436 C 5.441 11.730,4.685 11.445,4.007 11.116 C 3.546 10.892,3.390 10.794,3.202 10.609 C 2.863 10.275,2.781 10.043,2.781 9.420 C 2.781 8.951,2.785 8.933,2.927 8.633 C 3.052 8.367,3.107 8.300,3.326 8.138 C 4.050 7.605,5.045 7.237,12.240 4.848 C 16.930 3.290,17.805 3.024,18.840 2.841 C 19.379 2.745,20.070 2.738,20.363 2.824 " stroke="none" fill-rule="evenodd" fill="black"></path></svg>