<svg width="24" height="24" viewBox="0 0 24 24" fill="none" xmlns="http://www.w3.org/2000/svg"><path d="M11.320 1.281 C 7.041 1.525,3.252 4.409,1.843 8.497 C 1.180 10.418,1.082 12.560,1.564 14.550 C 2.505 18.428,5.572 21.495,9.450 22.436 C 11.106 22.837,12.894 22.837,14.550 22.436 C 18.428 21.495,21.495 18.428,22.436 14.550 C 22.837 12.894,22.837 11.106,22.436 9.450 C 21.425 5.282,17.985 2.095,13.742 1.398 C 13.334 1.331,12.074 1.229,11.880 1.247 C 11.847 1.250,11.595 1.265,11.320 1.281 M13.146 2.822 C 14.201 2.960,15.125 3.237,16.060 3.696 C 17.260 4.285,18.234 5.051,19.125 6.104 C 19.372 6.397,19.973 7.241,19.950 7.263 C 19.944 7.268,19.697 7.302,19.400 7.339 C 18.392 7.463,17.601 7.633,16.660 7.926 C 15.991 8.134,15.751 8.247,14.780 8.808 C 13.424 9.592,12.868 9.842,12.006 10.057 C 11.370 10.216,10.956 10.253,10.130 10.229 C 8.658 10.184,7.402 9.864,6.040 9.184 C 5.230 8.780,4.508 8.315,3.849 7.772 C 3.799 7.731,3.813 7.685,3.942 7.452 C 4.457 6.526,5.234 5.605,6.140 4.847 C 7.408 3.786,9.093 3.057,10.820 2.823 C 11.380 2.746,12.569 2.746,13.146 2.822 M20.820 9.210 C 20.987 9.735,21.136 10.447,21.203 11.036 C 21.272 11.646,21.231 12.936,21.124 13.539 C 20.980 14.343,21.010 14.288,20.589 14.535 C 19.197 15.351,17.744 15.878,16.201 16.125 C 15.543 16.230,14.185 16.271,13.625 16.202 C 12.391 16.050,11.455 15.724,9.966 14.925 C 9.600 14.729,9.129 14.483,8.921 14.379 C 7.738 13.789,5.257 13.280,3.490 13.265 L 2.840 13.260 2.810 13.120 C 2.794 13.043,2.780 12.530,2.781 11.980 C 2.781 11.119,2.794 10.910,2.871 10.480 C 2.979 9.884,3.158 9.200,3.206 9.200 C 3.225 9.200,3.375 9.299,3.538 9.420 C 4.180 9.895,5.226 10.490,6.000 10.821 C 8.102 11.719,10.501 11.973,12.403 11.498 C 13.316 11.270,14.059 10.949,15.180 10.298 C 16.465 9.552,16.841 9.390,17.907 9.122 C 18.691 8.925,19.731 8.770,20.309 8.764 L 20.677 8.760 20.820 9.210 M4.572 14.822 C 5.585 14.932,6.713 15.167,7.632 15.459 C 7.814 15.517,8.237 15.708,8.572 15.883 C 10.613 16.952,11.355 17.266,12.400 17.502 C 13.158 17.673,13.670 17.725,14.600 17.725 C 15.575 17.725,16.346 17.643,17.295 17.436 C 17.922 17.300,19.055 16.937,19.640 16.684 C 19.849 16.594,20.033 16.520,20.049 16.520 C 20.128 16.520,19.523 17.419,19.119 17.900 C 18.259 18.926,17.242 19.725,16.060 20.304 C 14.188 21.221,12.060 21.478,10.002 21.034 C 9.020 20.823,7.775 20.297,6.920 19.732 C 5.905 19.061,4.939 18.095,4.268 17.080 C 3.949 16.597,3.462 15.622,3.284 15.110 L 3.162 14.760 3.583 14.760 C 3.814 14.760,4.259 14.788,4.572 14.822 " stroke="none" fill-rule="evenodd" fill="black"></path></svg>