<svg width="24" height="24" viewBox="0 0 24 24" fill="none" xmlns="http://www.w3.org/2000/svg"><path d="M18.340 2.804 C 17.965 2.858,17.495 3.110,17.224 3.403 C 17.099 3.537,16.953 3.735,16.899 3.843 C 16.656 4.321,16.612 4.922,16.782 5.432 C 16.793 5.465,16.888 5.408,17.049 5.271 C 17.749 4.679,18.949 3.979,19.848 3.639 C 20.177 3.515,20.193 3.503,20.141 3.429 C 20.046 3.294,19.629 3.003,19.411 2.921 C 19.212 2.846,18.766 2.756,18.640 2.765 C 18.607 2.768,18.472 2.785,18.340 2.804 M20.420 3.467 C 20.245 3.506,20.229 3.518,20.276 3.576 C 20.301 3.606,20.373 3.724,20.436 3.839 L 20.550 4.048 20.695 3.858 C 20.775 3.754,20.840 3.636,20.840 3.596 C 20.840 3.470,20.659 3.414,20.420 3.467 M20.260 4.284 C 19.613 4.830,18.121 5.685,17.380 5.936 L 17.100 6.031 17.289 6.209 C 17.776 6.670,18.505 6.864,19.132 6.700 C 20.055 6.460,20.640 5.713,20.640 4.773 C 20.640 4.450,20.579 4.079,20.525 4.081 C 20.511 4.082,20.392 4.173,20.260 4.284 M9.360 5.281 C 6.994 5.440,4.739 6.615,3.216 8.481 C 2.233 9.684,1.579 11.182,1.338 12.780 C 1.248 13.377,1.248 14.623,1.338 15.220 C 1.589 16.885,2.272 18.399,3.349 19.680 C 4.487 21.033,6.166 22.066,7.920 22.493 C 8.647 22.670,9.155 22.727,10.000 22.727 C 10.845 22.727,11.353 22.670,12.080 22.493 C 13.919 22.046,15.643 20.950,16.811 19.484 C 17.798 18.246,18.426 16.799,18.661 15.220 C 18.739 14.695,18.751 13.473,18.682 12.940 C 18.402 10.757,17.306 8.716,15.680 7.349 C 13.899 5.852,11.679 5.125,9.360 5.281 M16.660 5.647 C 16.389 5.970,16.437 6.102,16.812 6.068 C 16.941 6.057,17.054 6.039,17.064 6.029 C 17.078 6.015,16.838 5.585,16.786 5.533 C 16.777 5.524,16.721 5.575,16.660 5.647 M11.380 6.878 C 12.465 7.097,13.531 7.578,14.409 8.246 C 14.807 8.550,15.452 9.195,15.752 9.591 C 16.000 9.917,16.215 10.241,16.193 10.257 C 16.186 10.262,15.910 10.296,15.580 10.333 C 14.875 10.412,13.990 10.586,13.400 10.761 C 13.137 10.839,12.629 11.055,12.040 11.339 C 10.526 12.068,10.086 12.194,8.940 12.227 C 7.515 12.269,6.250 11.984,4.920 11.323 C 4.394 11.061,3.717 10.653,3.662 10.564 C 3.628 10.508,3.926 10.013,4.244 9.595 C 4.549 9.194,5.193 8.550,5.591 8.246 C 6.478 7.572,7.574 7.079,8.620 6.884 C 9.266 6.764,9.233 6.767,10.120 6.778 C 10.777 6.787,11.027 6.806,11.380 6.878 M16.991 12.070 C 17.189 12.798,17.220 13.058,17.220 14.000 C 17.220 14.706,17.204 14.977,17.148 15.260 C 17.031 15.842,17.005 15.920,16.925 15.920 C 16.885 15.920,16.667 16.011,16.441 16.122 C 15.308 16.675,14.428 16.962,13.300 17.146 C 12.741 17.237,11.133 17.250,10.700 17.166 C 9.871 17.006,9.393 16.841,8.300 16.338 C 7.373 15.912,7.248 15.865,6.600 15.701 C 5.562 15.438,4.512 15.291,3.473 15.262 L 2.860 15.245 2.822 15.092 C 2.801 15.009,2.783 14.526,2.782 14.020 C 2.780 13.084,2.815 12.764,2.982 12.173 L 3.041 11.966 3.390 12.187 C 3.583 12.308,4.010 12.540,4.340 12.701 C 6.494 13.756,8.959 14.023,10.952 13.418 C 11.435 13.271,11.849 13.097,12.800 12.637 C 13.716 12.195,14.105 12.073,15.140 11.901 C 15.853 11.784,15.934 11.775,16.484 11.767 L 16.907 11.760 16.991 12.070 M4.420 16.820 C 5.645 16.962,6.434 17.149,7.147 17.464 C 9.049 18.305,9.451 18.450,10.293 18.600 C 11.966 18.899,14.043 18.688,15.771 18.043 C 15.941 17.980,16.080 17.938,16.080 17.951 C 16.080 18.024,15.464 18.772,15.122 19.114 C 14.078 20.158,12.819 20.831,11.353 21.128 C 10.960 21.208,10.780 21.220,10.000 21.220 C 9.216 21.220,9.041 21.208,8.640 21.127 C 7.183 20.832,5.922 20.158,4.882 19.118 C 4.264 18.500,3.891 17.979,3.480 17.159 L 3.279 16.760 3.590 16.760 C 3.761 16.760,4.134 16.787,4.420 16.820 " stroke="none" fill-rule="evenodd" fill="black"></path></svg>