<svg width="24" height="24" viewBox="0 0 24 24" fill="none" xmlns="http://www.w3.org/2000/svg"><path d="M11.360 3.281 C 8.994 3.440,6.739 4.615,5.216 6.481 C 3.850 8.154,3.133 10.384,3.275 12.520 L 3.308 13.020 3.024 13.320 C 2.229 14.159,1.697 14.956,1.425 15.712 C 1.258 16.177,1.296 16.494,1.545 16.727 C 1.768 16.935,2.121 16.983,2.398 16.841 C 2.605 16.736,2.698 16.608,2.802 16.288 C 2.938 15.867,3.236 15.362,3.614 14.907 L 3.707 14.795 3.840 15.147 C 4.033 15.657,4.358 16.289,4.680 16.777 C 4.834 17.011,4.960 17.213,4.960 17.226 C 4.960 17.239,4.632 17.237,4.230 17.222 C 3.203 17.183,3.177 17.184,2.988 17.289 C 2.661 17.469,2.536 17.920,2.715 18.271 C 2.867 18.568,3.070 18.655,3.777 18.721 C 4.258 18.767,5.230 18.717,5.829 18.615 L 6.197 18.553 6.489 18.791 C 7.443 19.570,8.711 20.199,9.920 20.493 C 10.647 20.670,11.155 20.727,12.000 20.727 C 13.431 20.727,14.551 20.473,15.823 19.860 C 16.693 19.439,17.712 18.704,18.315 18.059 C 20.013 16.244,20.882 13.869,20.722 11.480 L 20.688 10.980 20.977 10.680 C 21.571 10.063,22.131 9.288,22.403 8.707 C 22.512 8.473,22.527 8.405,22.506 8.231 C 22.437 7.644,21.765 7.361,21.303 7.724 C 21.248 7.768,21.119 7.957,21.017 8.143 C 20.850 8.451,20.468 9.021,20.342 9.152 C 20.302 9.195,20.267 9.138,20.159 8.852 C 19.967 8.342,19.641 7.710,19.318 7.219 C 19.163 6.984,19.044 6.783,19.054 6.773 C 19.063 6.763,19.339 6.755,19.666 6.755 C 20.156 6.755,20.316 6.771,20.580 6.844 C 21.049 6.974,21.276 6.984,21.471 6.885 C 22.009 6.610,22.009 5.826,21.471 5.565 C 20.813 5.247,19.559 5.176,18.186 5.380 L 17.793 5.439 17.506 5.205 C 15.817 3.826,13.596 3.131,11.360 3.281 M13.380 4.878 C 14.216 5.047,15.084 5.389,15.829 5.845 C 16.703 6.380,17.619 7.297,18.155 8.171 C 18.519 8.766,18.856 9.543,19.020 10.166 L 19.090 10.432 18.979 10.578 C 18.849 10.748,18.806 11.036,18.878 11.253 C 18.903 11.331,18.998 11.461,19.087 11.542 L 19.250 11.689 19.230 12.315 C 19.169 14.128,18.433 15.803,17.118 17.118 C 16.078 18.158,14.816 18.832,13.353 19.128 C 12.960 19.208,12.780 19.220,12.000 19.220 C 11.216 19.220,11.041 19.208,10.640 19.127 C 9.785 18.954,8.931 18.618,8.171 18.155 C 7.867 17.971,7.557 17.730,7.569 17.688 C 7.573 17.673,7.564 17.585,7.548 17.493 C 7.497 17.188,7.168 16.923,6.838 16.921 C 6.724 16.920,6.665 16.887,6.535 16.750 C 5.787 15.966,5.129 14.624,4.873 13.360 C 4.792 12.959,4.780 12.784,4.780 12.000 C 4.780 11.216,4.792 11.041,4.873 10.640 C 5.168 9.183,5.842 7.922,6.882 6.882 C 8.053 5.711,9.427 5.041,11.180 4.785 C 11.246 4.775,11.669 4.772,12.120 4.778 C 12.777 4.787,13.027 4.806,13.380 4.878 M17.271 11.931 C 17.189 11.980,16.802 12.237,16.411 12.503 C 16.020 12.769,15.385 13.172,15.000 13.400 C 14.036 13.969,13.960 14.047,13.960 14.472 C 13.960 14.672,13.979 14.734,14.082 14.877 C 14.282 15.152,14.666 15.274,14.948 15.151 C 15.475 14.923,18.057 13.237,18.233 13.007 C 18.317 12.897,18.341 12.815,18.352 12.604 C 18.364 12.369,18.353 12.321,18.253 12.169 C 18.045 11.852,17.587 11.741,17.271 11.931 M12.000 15.014 C 11.835 15.088,11.448 15.260,11.140 15.398 C 10.514 15.678,9.997 15.888,9.342 16.128 C 8.844 16.311,8.720 16.385,8.606 16.571 C 8.381 16.938,8.514 17.431,8.893 17.626 C 9.134 17.751,9.369 17.718,10.040 17.464 C 11.199 17.026,12.814 16.312,12.973 16.168 C 13.228 15.937,13.273 15.456,13.065 15.184 C 12.816 14.857,12.476 14.803,12.000 15.014 " stroke="none" fill-rule="evenodd" fill="black"></path></svg>