<svg width="24" height="24" viewBox="0 0 24 24" fill="none" xmlns="http://www.w3.org/2000/svg"><path d="M11.360 3.281 C 8.994 3.440,6.739 4.615,5.216 6.481 C 3.850 8.154,3.134 10.381,3.275 12.520 L 3.308 13.020 3.001 13.345 C 1.733 14.689,1.119 15.965,1.280 16.920 C 1.420 17.750,2.045 18.354,3.020 18.602 C 3.682 18.769,4.757 18.777,5.797 18.620 L 6.205 18.559 6.493 18.794 C 7.443 19.570,8.713 20.200,9.920 20.493 C 10.647 20.670,11.155 20.727,12.000 20.727 C 13.431 20.727,14.551 20.473,15.823 19.860 C 16.693 19.439,17.712 18.704,18.315 18.059 C 20.013 16.244,20.880 13.874,20.722 11.480 L 20.689 10.980 20.975 10.680 C 22.243 9.347,22.869 8.060,22.721 7.094 C 22.661 6.708,22.447 6.289,22.172 6.021 C 21.441 5.307,20.095 5.091,18.186 5.380 L 17.793 5.439 17.506 5.205 C 15.817 3.826,13.596 3.131,11.360 3.281 M13.380 4.878 C 14.216 5.047,15.084 5.389,15.829 5.845 C 16.703 6.380,17.619 7.297,18.155 8.171 C 18.519 8.766,18.856 9.543,19.020 10.166 L 19.090 10.432 18.925 10.581 C 16.139 13.097,11.192 15.734,7.289 16.781 L 6.719 16.934 6.595 16.817 C 6.091 16.342,5.429 15.205,5.125 14.294 C 4.843 13.450,4.780 13.033,4.780 12.000 C 4.780 11.216,4.792 11.041,4.873 10.640 C 5.168 9.183,5.842 7.922,6.882 6.882 C 8.053 5.711,9.427 5.041,11.180 4.785 C 11.246 4.775,11.669 4.772,12.120 4.778 C 12.777 4.787,13.027 4.806,13.380 4.878 M20.726 6.875 C 21.243 7.042,21.352 7.328,21.123 7.910 C 21.019 8.173,20.621 8.813,20.387 9.093 L 20.293 9.205 20.160 8.853 C 19.967 8.343,19.642 7.711,19.320 7.223 C 19.166 6.989,19.040 6.787,19.040 6.775 C 19.040 6.762,19.360 6.759,19.750 6.770 C 20.334 6.785,20.507 6.804,20.726 6.875 M19.226 12.619 C 19.126 13.922,18.584 15.318,17.756 16.405 C 17.450 16.807,16.807 17.450,16.405 17.756 C 15.526 18.425,14.463 18.903,13.353 19.128 C 12.960 19.208,12.780 19.220,12.000 19.220 C 11.216 19.220,11.041 19.208,10.640 19.127 C 9.829 18.963,8.871 18.593,8.266 18.211 L 8.106 18.110 8.703 17.920 C 12.084 16.846,15.716 14.957,18.609 12.770 C 18.912 12.541,19.169 12.338,19.182 12.317 C 19.239 12.225,19.250 12.304,19.226 12.619 M3.878 15.240 C 4.085 15.764,4.404 16.369,4.718 16.837 C 4.851 17.035,4.960 17.209,4.960 17.223 C 4.960 17.237,4.641 17.241,4.250 17.230 C 3.442 17.209,3.108 17.133,2.878 16.919 C 2.752 16.801,2.750 16.792,2.770 16.529 C 2.793 16.238,2.881 16.010,3.129 15.600 C 3.282 15.347,3.686 14.792,3.703 14.811 C 3.708 14.816,3.787 15.009,3.878 15.240 " stroke="none" fill-rule="evenodd" fill="black"></path></svg>