<svg width="24" height="24" viewBox="0 0 24 24" fill="none" xmlns="http://www.w3.org/2000/svg"><path d="M11.815 2.277 C 11.638 2.321,11.461 2.456,11.353 2.631 C 11.261 2.778,11.260 2.793,11.260 4.000 C 11.260 5.207,11.261 5.222,11.353 5.369 C 11.710 5.943,12.576 5.812,12.716 5.162 C 12.772 4.901,12.773 3.083,12.717 2.841 C 12.623 2.432,12.215 2.177,11.815 2.277 M7.920 3.267 C 7.112 3.282,5.914 3.357,5.440 3.422 C 3.445 3.699,2.219 4.631,1.679 6.283 C 1.408 7.112,1.333 7.823,1.273 10.110 C 1.235 11.601,1.235 12.399,1.273 13.890 C 1.321 15.727,1.361 16.284,1.497 17.011 C 1.809 18.677,2.744 19.806,4.221 20.302 C 5.354 20.682,6.645 20.758,12.000 20.758 C 17.355 20.758,18.646 20.682,19.779 20.302 C 21.016 19.886,21.886 19.016,22.302 17.779 C 22.587 16.928,22.670 16.166,22.728 13.870 C 22.782 11.730,22.727 8.637,22.621 7.767 C 22.436 6.260,22.051 5.326,21.327 4.631 C 20.543 3.878,19.575 3.506,18.020 3.360 C 17.245 3.288,15.062 3.236,14.835 3.285 C 14.182 3.425,14.053 4.289,14.631 4.646 C 14.775 4.736,14.817 4.739,16.064 4.766 C 17.780 4.803,18.600 4.886,19.198 5.082 C 20.145 5.394,20.658 5.930,20.939 6.901 C 21.190 7.768,21.240 8.610,21.240 12.000 C 21.240 15.383,21.190 16.233,20.941 17.093 C 20.523 18.534,19.647 19.046,17.341 19.198 C 16.484 19.254,7.516 19.254,6.659 19.198 C 3.889 19.016,3.093 18.317,2.833 15.840 C 2.758 15.128,2.758 8.872,2.833 8.160 C 3.028 6.299,3.543 5.494,4.800 5.082 C 5.403 4.885,6.220 4.803,7.940 4.766 L 9.228 4.738 9.389 4.632 C 9.618 4.481,9.726 4.287,9.728 4.027 C 9.733 3.497,9.387 3.230,8.720 3.250 C 8.577 3.254,8.217 3.262,7.920 3.267 M7.720 9.805 C 7.458 9.909,7.269 10.200,7.269 10.500 C 7.269 10.807,7.460 11.095,7.733 11.197 C 7.810 11.227,9.162 11.240,12.000 11.240 C 14.838 11.240,16.190 11.227,16.267 11.197 C 16.540 11.095,16.731 10.807,16.731 10.500 C 16.731 10.193,16.540 9.905,16.267 9.803 C 16.117 9.746,7.863 9.748,7.720 9.805 M7.815 13.277 C 7.330 13.395,7.098 14.004,7.383 14.408 C 7.447 14.499,7.572 14.610,7.660 14.656 C 7.818 14.739,7.857 14.740,10.720 14.740 C 12.315 14.740,13.669 14.726,13.729 14.709 C 13.881 14.667,14.121 14.447,14.186 14.292 C 14.297 14.027,14.241 13.711,14.047 13.506 C 13.801 13.246,13.989 13.261,10.820 13.253 C 9.236 13.250,7.884 13.261,7.815 13.277 " stroke="none" fill-rule="evenodd" fill="black"></path></svg>