<svg width="24" height="24" viewBox="0 0 24 24" fill="none" xmlns="http://www.w3.org/2000/svg"><path d="M2.826 5.284 C 2.476 5.366,2.267 5.636,2.267 6.003 C 2.267 6.281,2.387 6.496,2.627 6.645 L 2.780 6.740 11.860 6.752 C 18.585 6.761,20.995 6.753,21.154 6.719 C 21.919 6.554,21.926 5.448,21.162 5.284 C 20.904 5.229,3.062 5.229,2.826 5.284 M2.826 9.284 C 2.476 9.366,2.267 9.636,2.267 10.003 C 2.267 10.281,2.387 10.496,2.627 10.645 L 2.780 10.740 11.860 10.752 C 18.585 10.761,20.995 10.753,21.154 10.719 C 21.919 10.554,21.926 9.448,21.162 9.284 C 20.904 9.229,3.062 9.229,2.826 9.284 M15.678 12.175 C 15.140 12.290,14.616 12.694,14.381 13.172 C 14.080 13.785,14.001 14.477,14.001 16.480 C 14.002 18.525,14.080 19.213,14.381 19.828 C 14.685 20.448,15.408 20.880,16.142 20.880 C 16.454 20.880,17.080 20.690,17.580 20.443 C 18.354 20.062,20.227 18.974,20.953 18.484 C 21.426 18.165,21.652 17.957,21.881 17.630 C 22.158 17.236,22.219 17.032,22.219 16.500 C 22.219 15.968,22.158 15.764,21.881 15.370 C 21.505 14.834,21.035 14.502,18.960 13.310 C 17.092 12.237,16.439 12.011,15.678 12.175 M2.826 13.284 C 2.476 13.366,2.267 13.636,2.267 14.003 C 2.267 14.281,2.387 14.496,2.627 14.645 L 2.780 14.740 6.860 14.752 C 9.836 14.762,10.998 14.752,11.154 14.719 C 11.919 14.553,11.926 13.448,11.162 13.284 C 10.907 13.229,3.059 13.229,2.826 13.284 M16.362 13.664 C 16.668 13.755,17.299 14.079,18.394 14.708 C 20.322 15.814,20.760 16.146,20.760 16.500 C 20.760 16.854,20.322 17.186,18.394 18.292 C 16.769 19.225,16.219 19.467,15.966 19.363 C 15.787 19.288,15.675 19.146,15.613 18.912 C 15.528 18.595,15.470 17.012,15.499 15.780 C 15.535 14.181,15.589 13.881,15.876 13.691 C 16.038 13.583,16.080 13.580,16.362 13.664 M2.826 17.284 C 2.476 17.366,2.267 17.636,2.267 18.003 C 2.267 18.281,2.387 18.496,2.627 18.645 L 2.780 18.740 6.860 18.752 C 9.836 18.762,10.998 18.752,11.154 18.719 C 11.919 18.553,11.926 17.448,11.162 17.284 C 10.907 17.229,3.059 17.229,2.826 17.284 " stroke="none" fill-rule="evenodd" fill="black"></path></svg>