<svg width="24" height="24" viewBox="0 0 24 24" fill="none" xmlns="http://www.w3.org/2000/svg"><path d="M11.280 1.283 C 10.143 1.353,8.518 1.732,8.187 2.005 C 7.697 2.409,7.927 3.224,8.554 3.308 C 8.670 3.324,8.845 3.290,9.187 3.187 C 10.192 2.884,11.012 2.760,12.005 2.760 C 13.462 2.760,14.765 3.061,16.060 3.696 C 18.877 5.079,20.768 7.722,21.178 10.854 C 21.301 11.786,21.244 13.026,21.034 13.998 C 20.745 15.343,20.003 16.855,19.121 17.900 C 18.793 18.288,18.158 18.915,17.787 19.217 C 16.722 20.083,15.226 20.786,13.871 21.057 C 13.084 21.215,12.625 21.252,11.744 21.229 C 10.591 21.200,9.669 21.020,8.639 20.622 C 8.218 20.459,7.990 20.443,7.762 20.559 C 7.369 20.760,7.244 21.260,7.493 21.637 C 7.614 21.819,7.807 21.919,8.490 22.155 C 10.416 22.819,12.560 22.918,14.550 22.436 C 18.428 21.495,21.495 18.428,22.436 14.550 C 22.837 12.894,22.837 11.106,22.436 9.450 C 21.425 5.282,17.985 2.095,13.742 1.398 C 13.325 1.330,12.096 1.231,11.860 1.247 C 11.816 1.249,11.555 1.266,11.280 1.283 M5.740 3.296 C 5.591 3.361,5.086 3.760,4.684 4.131 C 4.047 4.717,3.358 5.554,2.880 6.319 C 2.659 6.673,2.606 6.866,2.657 7.136 C 2.712 7.429,3.045 7.680,3.380 7.680 C 3.714 7.680,3.843 7.576,4.213 7.009 C 4.774 6.150,5.438 5.413,6.235 4.770 C 6.673 4.417,6.781 4.236,6.750 3.915 C 6.703 3.426,6.179 3.104,5.740 3.296 M10.325 7.286 C 9.724 7.383,9.215 7.919,9.022 8.657 C 8.756 9.679,8.690 12.405,8.882 14.440 C 8.986 15.540,9.231 16.110,9.754 16.468 C 10.047 16.669,10.248 16.730,10.603 16.729 C 10.975 16.727,11.345 16.603,11.900 16.295 C 12.963 15.705,13.818 15.110,14.780 14.293 C 15.616 13.583,15.915 13.228,16.122 12.700 C 16.202 12.497,16.216 12.388,16.216 12.000 C 16.216 11.612,16.202 11.503,16.122 11.300 C 15.915 10.772,15.616 10.417,14.780 9.707 C 13.818 8.890,12.963 8.295,11.900 7.705 C 11.228 7.332,10.781 7.213,10.325 7.286 M11.011 8.925 C 11.842 9.343,12.768 9.974,13.720 10.770 C 14.862 11.725,14.973 11.999,14.449 12.565 C 14.199 12.835,13.430 13.490,12.853 13.925 C 12.224 14.398,10.802 15.240,10.631 15.240 C 10.418 15.240,10.264 13.880,10.264 12.000 C 10.264 10.143,10.418 8.760,10.625 8.760 C 10.656 8.760,10.830 8.834,11.011 8.925 M2.091 8.999 C 1.918 9.040,1.787 9.130,1.661 9.295 C 1.545 9.447,1.402 10.091,1.318 10.840 C 1.204 11.859,1.298 13.634,1.488 14.033 C 1.719 14.519,2.453 14.571,2.751 14.122 C 2.889 13.915,2.898 13.825,2.837 13.301 C 2.802 13.010,2.781 12.456,2.783 11.900 C 2.785 11.122,2.799 10.903,2.876 10.480 C 3.003 9.787,3.016 9.631,2.962 9.467 C 2.903 9.287,2.651 9.058,2.453 9.003 C 2.283 8.956,2.273 8.956,2.091 8.999 M2.779 15.854 C 2.630 15.921,2.410 16.166,2.376 16.303 C 2.309 16.569,2.378 16.813,2.663 17.314 C 2.993 17.896,3.539 18.658,3.976 19.146 C 4.454 19.680,5.107 20.268,5.305 20.344 C 5.530 20.430,5.784 20.392,5.990 20.243 C 6.188 20.099,6.280 19.906,6.280 19.634 C 6.280 19.352,6.193 19.217,5.740 18.795 C 4.912 18.023,4.417 17.393,3.858 16.396 C 3.698 16.111,3.599 15.981,3.492 15.915 C 3.313 15.804,2.955 15.774,2.779 15.854 " stroke="none" fill-rule="evenodd" fill="black"></path></svg>