<svg width="24" height="24" viewBox="0 0 24 24" fill="none" xmlns="http://www.w3.org/2000/svg"><path d="M2.826 3.284 C 2.476 3.366,2.267 3.636,2.267 4.003 C 2.267 4.281,2.387 4.496,2.627 4.645 L 2.780 4.740 11.360 4.752 C 17.710 4.761,19.996 4.753,20.154 4.719 C 20.919 4.554,20.926 3.448,20.162 3.284 C 19.904 3.229,3.062 3.229,2.826 3.284 M19.691 6.900 C 19.371 6.970,18.970 7.144,17.494 7.853 C 15.941 8.599,15.742 8.728,15.493 9.149 C 15.270 9.527,15.269 9.541,15.251 12.170 C 15.241 13.507,15.225 14.600,15.214 14.600 C 15.203 14.600,15.119 14.556,15.027 14.503 C 14.264 14.058,13.161 13.999,12.285 14.355 C 11.449 14.696,10.692 15.512,10.421 16.366 C 10.223 16.989,10.216 17.815,10.403 18.422 C 10.670 19.286,11.299 20.026,12.098 20.415 C 13.874 21.280,16.007 20.335,16.597 18.422 C 16.736 17.971,16.759 17.533,16.759 15.296 L 16.760 13.171 17.029 13.143 C 17.177 13.128,17.431 13.071,17.594 13.016 C 17.933 12.903,20.447 11.714,20.840 11.481 C 21.292 11.214,21.547 10.897,21.672 10.450 C 21.763 10.123,21.759 8.578,21.666 8.190 C 21.505 7.518,21.101 7.095,20.446 6.913 C 20.140 6.828,20.031 6.827,19.691 6.900 M2.826 8.284 C 2.476 8.366,2.267 8.636,2.267 9.003 C 2.267 9.281,2.387 9.496,2.627 9.645 L 2.780 9.740 7.360 9.752 C 10.711 9.762,11.997 9.752,12.154 9.719 C 12.919 9.553,12.926 8.448,12.162 8.284 C 11.906 8.229,3.060 8.229,2.826 8.284 M20.167 8.426 C 20.233 8.486,20.240 8.567,20.239 9.276 C 20.239 9.707,20.225 10.082,20.208 10.109 C 20.178 10.156,18.641 10.917,17.643 11.379 C 17.061 11.648,16.947 11.676,16.839 11.579 C 16.765 11.513,16.760 11.454,16.761 10.724 C 16.761 10.293,16.774 9.920,16.791 9.895 C 16.825 9.842,17.290 9.607,18.571 8.994 C 19.985 8.316,20.029 8.301,20.167 8.426 M2.826 13.284 C 2.476 13.366,2.267 13.636,2.267 14.003 C 2.267 14.281,2.387 14.496,2.627 14.645 L 2.780 14.740 5.360 14.753 C 7.212 14.762,8.000 14.752,8.154 14.719 C 8.919 14.553,8.926 13.448,8.162 13.284 C 7.909 13.230,3.057 13.230,2.826 13.284 M13.799 15.640 C 14.351 15.745,14.839 16.133,15.090 16.668 C 15.262 17.035,15.293 17.571,15.166 17.989 C 14.940 18.734,14.266 19.239,13.500 19.239 C 12.734 19.239,12.060 18.734,11.834 17.989 C 11.707 17.571,11.738 17.035,11.910 16.668 C 12.072 16.322,12.422 15.951,12.735 15.793 C 13.094 15.611,13.409 15.566,13.799 15.640 " stroke="none" fill-rule="evenodd" fill="black"></path></svg>