<svg width="24" height="24" viewBox="0 0 24 24" fill="none" xmlns="http://www.w3.org/2000/svg"><path d="M5.826 1.285 C 4.784 1.419,3.818 2.135,3.301 3.157 C 3.140 3.476,2.898 4.242,2.803 4.735 C 2.635 5.603,2.451 7.541,2.316 9.860 C 2.257 10.888,2.257 13.112,2.316 14.140 C 2.451 16.459,2.635 18.397,2.803 19.265 C 2.898 19.758,3.140 20.524,3.301 20.843 C 3.829 21.887,4.779 22.580,5.871 22.717 C 6.524 22.798,7.398 22.641,8.337 22.273 C 9.737 21.723,12.658 20.236,14.398 19.187 C 15.677 18.416,18.309 16.629,19.340 15.832 C 19.906 15.394,20.749 14.569,21.013 14.196 C 21.420 13.618,21.657 13.001,21.715 12.370 C 21.801 11.439,21.569 10.594,21.013 9.804 C 20.749 9.431,19.906 8.606,19.340 8.168 C 18.260 7.333,15.614 5.542,14.283 4.745 C 13.321 4.169,12.803 3.886,11.360 3.147 C 8.802 1.837,7.640 1.380,6.620 1.281 C 6.172 1.237,6.200 1.237,5.826 1.285 M6.827 2.818 C 7.537 2.968,8.267 3.278,10.200 4.245 C 12.515 5.404,13.456 5.939,15.117 7.040 C 19.347 9.844,20.240 10.709,20.240 12.000 C 20.240 13.276,19.373 14.126,15.320 16.826 C 13.537 18.014,12.554 18.577,10.240 19.735 C 7.718 20.998,6.945 21.280,6.132 21.232 C 5.387 21.189,4.811 20.696,4.500 19.833 C 4.178 18.940,3.984 17.291,3.796 13.840 C 3.744 12.888,3.768 10.275,3.838 9.340 C 3.861 9.032,3.907 8.402,3.942 7.940 C 4.096 5.848,4.237 4.896,4.500 4.167 C 4.758 3.451,5.180 3.006,5.780 2.816 C 5.998 2.747,6.497 2.748,6.827 2.818 " stroke="none" fill-rule="evenodd" fill="black"></path></svg>