<svg width="24" height="24" viewBox="0 0 24 24" fill="none" xmlns="http://www.w3.org/2000/svg"><path d="M2.826 4.284 C 2.476 4.366,2.267 4.636,2.267 5.003 C 2.267 5.281,2.387 5.496,2.627 5.645 L 2.780 5.740 8.860 5.752 C 13.335 5.761,14.996 5.753,15.154 5.719 C 15.919 5.554,15.926 4.448,15.162 4.284 C 14.905 4.229,3.061 4.229,2.826 4.284 M19.691 5.900 C 19.371 5.970,18.970 6.144,17.494 6.853 C 15.941 7.599,15.742 7.728,15.493 8.149 C 15.270 8.527,15.269 8.541,15.251 11.170 C 15.241 12.507,15.225 13.600,15.214 13.600 C 15.203 13.600,15.119 13.556,15.027 13.503 C 14.264 13.058,13.161 12.999,12.285 13.355 C 11.449 13.696,10.692 14.512,10.421 15.366 C 10.223 15.989,10.216 16.815,10.403 17.422 C 10.670 18.286,11.299 19.026,12.098 19.415 C 13.874 20.280,16.007 19.335,16.597 17.422 C 16.736 16.971,16.759 16.533,16.759 14.296 L 16.760 12.171 17.029 12.143 C 17.177 12.128,17.431 12.071,17.594 12.016 C 17.933 11.903,20.447 10.714,20.840 10.481 C 21.292 10.214,21.547 9.897,21.672 9.450 C 21.763 9.123,21.759 7.578,21.666 7.190 C 21.505 6.518,21.101 6.095,20.446 5.913 C 20.140 5.828,20.031 5.827,19.691 5.900 M20.167 7.426 C 20.233 7.486,20.240 7.567,20.239 8.276 C 20.239 8.707,20.225 9.082,20.208 9.109 C 20.178 9.156,18.641 9.917,17.643 10.379 C 17.061 10.648,16.947 10.676,16.839 10.579 C 16.765 10.513,16.760 10.454,16.761 9.724 C 16.761 9.293,16.774 8.920,16.791 8.895 C 16.825 8.842,17.290 8.607,18.571 7.994 C 19.985 7.316,20.029 7.301,20.167 7.426 M2.826 8.284 C 2.476 8.366,2.267 8.636,2.267 9.003 C 2.267 9.281,2.387 9.496,2.627 9.645 L 2.780 9.740 7.860 9.752 C 11.586 9.761,12.997 9.753,13.154 9.719 C 13.919 9.554,13.926 8.448,13.162 8.284 C 12.906 8.229,3.060 8.229,2.826 8.284 M2.826 12.284 C 2.476 12.366,2.267 12.636,2.267 13.003 C 2.267 13.281,2.387 13.496,2.627 13.645 L 2.780 13.740 5.860 13.753 C 8.087 13.762,8.999 13.752,9.154 13.719 C 9.919 13.553,9.926 12.448,9.162 12.284 C 8.908 12.230,3.058 12.230,2.826 12.284 M13.799 14.640 C 14.351 14.745,14.839 15.133,15.090 15.668 C 15.262 16.035,15.293 16.571,15.166 16.989 C 14.940 17.734,14.266 18.239,13.500 18.239 C 12.734 18.239,12.060 17.734,11.834 16.989 C 11.707 16.571,11.738 16.035,11.910 15.668 C 12.072 15.322,12.422 14.951,12.735 14.793 C 13.094 14.611,13.409 14.566,13.799 14.640 M2.826 16.284 C 2.476 16.366,2.267 16.636,2.267 17.003 C 2.267 17.281,2.387 17.496,2.627 17.645 L 2.780 17.740 5.360 17.753 C 7.212 17.762,8.000 17.752,8.154 17.719 C 8.919 17.553,8.926 16.448,8.162 16.284 C 7.909 16.230,3.057 16.230,2.826 16.284 " stroke="none" fill-rule="evenodd" fill="black"></path></svg>