<svg width="24" height="24" viewBox="0 0 24 24" fill="none" xmlns="http://www.w3.org/2000/svg"><path d="M11.320 1.281 C 7.041 1.525,3.252 4.409,1.843 8.497 C 1.180 10.418,1.082 12.560,1.564 14.550 C 2.505 18.428,5.572 21.495,9.450 22.436 C 11.106 22.837,12.894 22.837,14.550 22.436 C 18.428 21.495,21.495 18.428,22.436 14.550 C 22.837 12.894,22.837 11.106,22.436 9.450 C 21.425 5.282,17.985 2.095,13.742 1.398 C 13.334 1.331,12.074 1.229,11.880 1.247 C 11.847 1.250,11.595 1.265,11.320 1.281 M13.146 2.822 C 14.201 2.960,15.125 3.237,16.060 3.696 C 18.877 5.079,20.768 7.722,21.178 10.854 C 21.301 11.786,21.244 13.026,21.034 13.998 C 20.745 15.343,20.003 16.855,19.121 17.900 C 18.247 18.935,17.240 19.726,16.060 20.304 C 14.761 20.940,13.462 21.240,12.000 21.240 C 10.538 21.240,9.236 20.940,7.940 20.304 C 5.123 18.921,3.232 16.278,2.822 13.146 C 2.699 12.214,2.756 10.974,2.966 10.002 C 3.177 9.020,3.703 7.775,4.268 6.920 C 5.750 4.677,8.131 3.188,10.820 2.823 C 11.380 2.746,12.569 2.746,13.146 2.822 M10.325 7.286 C 9.724 7.383,9.215 7.919,9.022 8.657 C 8.756 9.679,8.690 12.405,8.882 14.440 C 8.986 15.540,9.231 16.110,9.754 16.468 C 10.047 16.669,10.248 16.730,10.603 16.729 C 10.975 16.727,11.345 16.603,11.900 16.295 C 12.963 15.705,13.818 15.110,14.780 14.293 C 15.616 13.583,15.915 13.228,16.122 12.700 C 16.202 12.497,16.216 12.388,16.216 12.000 C 16.216 11.612,16.202 11.503,16.122 11.300 C 15.915 10.772,15.616 10.417,14.780 9.707 C 13.818 8.890,12.963 8.295,11.900 7.705 C 11.228 7.332,10.781 7.213,10.325 7.286 M11.011 8.925 C 11.842 9.343,12.768 9.974,13.720 10.770 C 14.862 11.725,14.973 11.999,14.449 12.565 C 14.199 12.835,13.430 13.490,12.853 13.925 C 12.224 14.398,10.802 15.240,10.631 15.240 C 10.418 15.240,10.264 13.880,10.264 12.000 C 10.264 10.143,10.418 8.760,10.625 8.760 C 10.656 8.760,10.830 8.834,11.011 8.925 " stroke="none" fill-rule="evenodd" fill="black"></path></svg>