<svg width="24" height="24" viewBox="0 0 24 24" fill="none" xmlns="http://www.w3.org/2000/svg"><path d="M2.826 5.284 C 2.476 5.366,2.267 5.636,2.267 6.003 C 2.267 6.281,2.387 6.496,2.627 6.645 L 2.780 6.740 8.860 6.752 C 13.335 6.761,14.996 6.753,15.154 6.719 C 15.919 6.554,15.926 5.448,15.162 5.284 C 14.905 5.229,3.061 5.229,2.826 5.284 M16.700 7.316 C 16.506 7.405,16.384 7.532,16.302 7.729 C 16.248 7.858,16.240 8.254,16.240 10.810 L 16.240 13.743 15.890 13.573 C 15.697 13.479,15.405 13.373,15.240 13.338 C 14.854 13.255,14.149 13.255,13.767 13.337 C 12.617 13.585,11.582 14.617,11.338 15.760 C 11.301 15.932,11.274 16.248,11.274 16.500 C 11.274 17.037,11.355 17.440,11.542 17.836 C 11.978 18.759,12.835 19.465,13.760 19.662 C 14.147 19.745,14.852 19.745,15.233 19.663 C 16.173 19.460,17.034 18.750,17.461 17.826 C 17.735 17.234,17.731 17.279,17.749 14.231 L 17.765 11.483 17.992 11.668 C 18.753 12.288,19.612 12.632,20.619 12.720 C 21.126 12.765,21.318 12.722,21.522 12.518 C 21.867 12.173,21.771 11.547,21.343 11.344 C 21.262 11.306,21.014 11.261,20.763 11.239 C 19.904 11.163,19.325 10.893,18.716 10.284 C 18.098 9.667,17.823 9.069,17.764 8.220 C 17.725 7.642,17.621 7.448,17.271 7.302 C 17.076 7.221,16.897 7.225,16.700 7.316 M2.826 9.284 C 2.476 9.366,2.267 9.636,2.267 10.003 C 2.267 10.281,2.387 10.496,2.627 10.645 L 2.780 10.740 7.860 10.752 C 11.586 10.761,12.997 10.753,13.154 10.719 C 13.919 10.554,13.926 9.448,13.162 9.284 C 12.906 9.229,3.060 9.229,2.826 9.284 M2.826 13.284 C 2.476 13.366,2.267 13.636,2.267 14.003 C 2.267 14.281,2.387 14.496,2.627 14.645 L 2.780 14.740 5.860 14.753 C 8.087 14.762,8.999 14.752,9.154 14.719 C 9.919 14.553,9.926 13.448,9.162 13.284 C 8.908 13.230,3.058 13.230,2.826 13.284 M15.247 14.930 C 15.618 15.113,15.915 15.415,16.092 15.790 C 16.212 16.043,16.220 16.088,16.220 16.500 C 16.220 16.912,16.212 16.957,16.092 17.210 C 15.914 17.586,15.618 17.887,15.245 18.071 C 14.952 18.216,14.932 18.220,14.500 18.220 C 14.068 18.220,14.048 18.216,13.755 18.071 C 13.382 17.887,13.086 17.586,12.908 17.210 C 12.788 16.957,12.780 16.912,12.780 16.500 C 12.780 16.088,12.788 16.043,12.907 15.791 C 13.123 15.335,13.494 15.003,13.979 14.830 C 14.132 14.775,14.272 14.761,14.564 14.770 C 14.914 14.781,14.976 14.796,15.247 14.930 M2.826 17.284 C 2.476 17.366,2.267 17.636,2.267 18.003 C 2.267 18.281,2.387 18.496,2.627 18.645 L 2.780 18.740 5.360 18.753 C 7.212 18.762,8.000 18.752,8.154 18.719 C 8.919 18.553,8.926 17.448,8.162 17.284 C 7.909 17.230,3.057 17.230,2.826 17.284 " stroke="none" fill-rule="evenodd" fill="black"></path></svg>