<svg width="24" height="24" viewBox="0 0 24 24" fill="none" xmlns="http://www.w3.org/2000/svg"><path d="M2.826 5.284 C 2.476 5.366,2.267 5.636,2.267 6.003 C 2.267 6.281,2.387 6.496,2.627 6.645 L 2.780 6.740 11.360 6.752 C 17.710 6.761,19.996 6.753,20.154 6.719 C 20.919 6.554,20.926 5.448,20.162 5.284 C 19.904 5.229,3.062 5.229,2.826 5.284 M15.580 8.676 C 15.211 8.768,14.965 8.881,14.659 9.099 C 13.976 9.587,13.661 10.209,13.560 11.275 C 13.508 11.826,13.508 15.174,13.560 15.725 C 13.661 16.791,13.976 17.413,14.659 17.901 C 15.262 18.331,15.951 18.485,16.632 18.342 C 17.187 18.225,17.701 17.985,19.060 17.210 C 20.974 16.119,21.526 15.758,21.981 15.302 C 22.530 14.751,22.738 14.257,22.738 13.500 C 22.738 12.302,22.237 11.671,20.420 10.581 C 19.604 10.091,18.259 9.330,17.820 9.110 C 16.858 8.627,16.249 8.509,15.580 8.676 M16.712 10.242 C 17.059 10.381,17.947 10.863,19.160 11.571 C 20.263 12.216,20.700 12.509,20.946 12.769 C 21.171 13.007,21.240 13.178,21.240 13.500 C 21.240 14.122,20.969 14.372,19.140 15.440 C 17.140 16.609,16.409 16.956,16.062 16.903 C 15.820 16.865,15.505 16.697,15.345 16.520 C 15.054 16.199,15.003 15.743,15.003 13.500 C 15.003 10.947,15.066 10.598,15.586 10.276 C 15.948 10.052,16.217 10.044,16.712 10.242 M2.826 10.284 C 2.476 10.366,2.267 10.636,2.267 11.003 C 2.267 11.281,2.387 11.496,2.627 11.645 L 2.780 11.740 6.360 11.753 C 8.961 11.762,9.998 11.752,10.154 11.719 C 10.919 11.553,10.926 10.448,10.162 10.284 C 9.907 10.230,3.059 10.230,2.826 10.284 M2.826 15.284 C 2.476 15.366,2.267 15.636,2.267 16.003 C 2.267 16.281,2.387 16.496,2.627 16.645 L 2.780 16.740 6.360 16.753 C 8.961 16.762,9.998 16.752,10.154 16.719 C 10.919 16.553,10.926 15.448,10.162 15.284 C 9.907 15.230,3.059 15.230,2.826 15.284 " stroke="none" fill-rule="evenodd" fill="black"></path></svg>