<svg width="24" height="24" viewBox="0 0 24 24" fill="none" xmlns="http://www.w3.org/2000/svg"><path d="M4.780 4.199 C 4.589 4.242,4.514 4.296,4.211 4.607 C 2.744 6.113,1.714 8.205,1.380 10.360 C 1.231 11.325,1.232 12.680,1.383 13.657 C 1.648 15.368,2.358 17.049,3.405 18.442 C 3.776 18.935,4.373 19.600,4.583 19.753 C 4.833 19.936,5.229 19.917,5.463 19.712 C 5.655 19.544,5.731 19.380,5.731 19.140 C 5.731 18.873,5.667 18.760,5.272 18.336 C 4.574 17.586,4.143 16.966,3.706 16.084 C 3.068 14.796,2.760 13.466,2.760 12.000 C 2.760 10.538,3.060 9.236,3.696 7.940 C 4.145 7.025,4.416 6.637,5.399 5.505 C 5.657 5.208,5.706 5.074,5.663 4.787 C 5.635 4.596,5.458 4.351,5.286 4.265 C 5.146 4.194,4.929 4.166,4.780 4.199 M19.060 4.260 C 19.038 4.267,18.971 4.284,18.911 4.297 C 18.764 4.329,18.521 4.548,18.454 4.708 C 18.385 4.874,18.385 5.127,18.455 5.291 C 18.485 5.362,18.634 5.556,18.786 5.721 C 19.449 6.444,19.877 7.069,20.302 7.940 C 20.943 9.249,21.240 10.536,21.240 12.000 C 21.240 13.464,20.941 14.761,20.301 16.066 C 19.879 16.927,19.447 17.556,18.766 18.299 C 18.411 18.686,18.349 18.797,18.346 19.059 C 18.341 19.442,18.618 19.754,18.997 19.791 C 19.297 19.820,19.439 19.749,19.773 19.408 C 21.036 18.118,21.995 16.369,22.436 14.550 C 22.597 13.884,22.673 13.369,22.717 12.630 C 22.870 10.080,22.132 7.622,20.594 5.556 C 20.219 5.052,19.644 4.424,19.483 4.343 C 19.372 4.287,19.125 4.238,19.060 4.260 M7.660 7.258 C 7.638 7.266,7.572 7.284,7.513 7.296 C 7.187 7.368,6.334 8.414,5.909 9.264 C 5.465 10.150,5.274 10.968,5.274 11.980 C 5.273 13.222,5.583 14.264,6.270 15.336 C 6.594 15.841,7.228 16.545,7.480 16.680 C 7.622 16.756,7.956 16.747,8.132 16.662 C 8.439 16.514,8.598 16.156,8.511 15.806 C 8.478 15.672,8.390 15.548,8.132 15.272 C 7.188 14.260,6.760 13.234,6.760 11.980 C 6.760 10.756,7.200 9.685,8.095 8.728 C 8.462 8.336,8.493 8.277,8.493 7.989 C 8.493 7.798,8.473 7.729,8.377 7.592 C 8.313 7.501,8.197 7.395,8.120 7.356 C 7.978 7.284,7.733 7.232,7.660 7.258 M16.134 7.320 C 15.790 7.397,15.560 7.683,15.560 8.033 C 15.560 8.318,15.601 8.399,15.917 8.740 C 16.802 9.694,17.240 10.767,17.240 11.980 C 17.240 13.203,16.798 14.288,15.922 15.214 C 15.591 15.563,15.520 15.696,15.520 15.963 C 15.520 16.446,15.938 16.775,16.421 16.672 C 16.563 16.641,16.664 16.577,16.864 16.391 C 17.511 15.785,18.117 14.817,18.420 13.906 C 19.094 11.877,18.680 9.732,17.285 8.026 C 16.784 7.413,16.498 7.238,16.134 7.320 M10.669 8.283 C 10.097 8.375,9.638 8.849,9.463 9.531 C 9.314 10.111,9.224 11.721,9.282 12.760 C 9.365 14.257,9.447 14.674,9.746 15.110 C 9.910 15.350,10.190 15.571,10.446 15.664 C 10.701 15.756,11.165 15.746,11.481 15.641 C 12.004 15.466,13.231 14.773,14.020 14.206 C 15.236 13.331,15.627 12.879,15.713 12.250 C 15.810 11.530,15.529 10.975,14.752 10.351 C 13.933 9.695,13.171 9.195,12.280 8.728 C 11.496 8.318,11.113 8.212,10.669 8.283 M11.632 10.081 C 12.354 10.455,12.743 10.702,13.463 11.242 C 14.018 11.657,14.240 11.874,14.240 12.000 C 14.240 12.042,14.183 12.142,14.113 12.222 C 13.967 12.388,13.102 13.045,12.596 13.374 C 12.244 13.603,11.047 14.240,10.970 14.240 C 10.870 14.240,10.761 13.072,10.761 12.000 C 10.761 10.928,10.870 9.760,10.970 9.760 C 10.993 9.760,11.291 9.905,11.632 10.081 " stroke="none" fill-rule="evenodd" fill="black"></path></svg>