<svg width="24" height="24" viewBox="0 0 24 24" fill="none" xmlns="http://www.w3.org/2000/svg"><path d="M11.560 1.266 C 9.236 1.379,7.126 2.170,5.308 3.609 C 4.824 3.993,4.047 4.765,3.666 5.240 C 0.458 9.247,0.443 14.860,3.631 18.880 C 3.981 19.322,4.807 20.156,5.240 20.505 C 6.519 21.537,7.865 22.206,9.508 22.625 C 10.553 22.892,11.292 22.717,11.960 22.043 C 12.285 21.716,12.485 21.382,12.645 20.900 C 12.738 20.621,12.738 20.612,12.751 18.148 C 12.761 16.268,12.775 15.673,12.812 15.662 C 14.003 15.321,14.768 14.741,15.277 13.793 C 15.555 13.276,15.659 12.932,15.722 12.324 C 15.796 11.602,15.675 11.130,15.318 10.742 C 15.118 10.526,14.753 10.330,14.475 10.290 L 14.260 10.259 14.240 9.500 C 14.219 8.701,14.209 8.656,14.013 8.475 C 13.842 8.316,13.724 8.269,13.501 8.269 C 13.273 8.269,13.111 8.339,12.953 8.506 C 12.781 8.688,12.760 8.800,12.760 9.543 L 12.760 10.240 12.000 10.240 L 11.240 10.240 11.240 9.543 C 11.240 8.800,11.219 8.688,11.047 8.506 C 10.889 8.339,10.727 8.269,10.499 8.269 C 10.276 8.269,10.158 8.316,9.987 8.475 C 9.791 8.656,9.781 8.701,9.760 9.500 L 9.740 10.259 9.523 10.290 C 9.404 10.307,9.224 10.362,9.123 10.411 C 8.889 10.525,8.525 10.888,8.412 11.120 C 8.110 11.740,8.245 12.909,8.719 13.788 C 9.236 14.745,9.984 15.313,11.190 15.663 C 11.229 15.674,11.240 16.183,11.240 18.032 C 11.240 20.652,11.245 20.600,10.970 20.921 C 10.798 21.121,10.565 21.238,10.333 21.239 C 10.241 21.240,9.962 21.187,9.713 21.123 C 7.166 20.465,5.040 18.766,3.807 16.400 C 3.153 15.146,2.821 13.862,2.771 12.396 C 2.657 9.029,4.325 5.897,7.179 4.121 C 8.174 3.502,9.422 3.046,10.647 2.852 C 11.276 2.753,12.715 2.753,13.353 2.853 C 16.355 3.322,18.929 5.202,20.261 7.900 C 20.878 9.149,21.182 10.369,21.228 11.780 C 21.282 13.459,20.934 15.000,20.174 16.440 C 19.284 18.127,17.976 19.440,16.260 20.370 C 15.764 20.639,15.622 20.809,15.624 21.131 C 15.625 21.514,15.834 21.786,16.201 21.883 C 16.442 21.946,16.596 21.900,17.130 21.602 C 19.221 20.438,20.884 18.626,21.817 16.496 C 23.126 13.507,23.055 10.195,21.620 7.260 C 21.112 6.221,20.432 5.272,19.581 4.416 C 17.851 2.677,15.515 1.552,13.160 1.324 C 12.655 1.275,11.917 1.248,11.560 1.266 M14.240 12.052 C 14.240 12.642,14.028 13.135,13.581 13.581 C 13.121 14.041,12.644 14.240,12.000 14.240 C 11.356 14.240,10.879 14.041,10.419 13.581 C 9.972 13.135,9.760 12.642,9.760 12.052 L 9.760 11.760 12.000 11.760 L 14.240 11.760 14.240 12.052 " fill="#1C274C" stroke="none" fill-rule="evenodd"></path></svg>