<svg width="24" height="24" viewBox="0 0 24 24" fill="none" xmlns="http://www.w3.org/2000/svg"><path d="M9.020 1.279 C 6.976 1.330,5.856 1.466,4.900 1.779 C 3.060 2.382,1.958 3.688,1.563 5.734 C 1.311 7.042,1.267 7.973,1.267 12.000 C 1.267 16.027,1.311 16.958,1.563 18.266 C 2.013 20.599,3.401 21.987,5.734 22.437 C 7.043 22.690,7.974 22.734,12.000 22.734 C 16.026 22.734,16.957 22.690,18.266 22.437 C 20.599 21.987,21.987 20.599,22.437 18.266 C 22.688 16.966,22.733 16.013,22.733 12.000 C 22.733 7.987,22.688 7.034,22.437 5.734 C 22.098 3.977,21.228 2.756,19.825 2.068 C 18.972 1.650,17.853 1.420,16.180 1.321 C 15.262 1.267,10.607 1.239,9.020 1.279 M16.600 2.836 C 17.326 2.908,17.909 3.000,18.317 3.105 C 18.692 3.203,19.209 3.399,19.334 3.491 C 19.392 3.534,18.368 4.573,11.464 11.476 L 3.528 19.412 3.429 19.216 C 3.149 18.661,2.967 17.887,2.852 16.760 C 2.788 16.135,2.780 15.620,2.781 11.980 C 2.782 7.664,2.793 7.353,2.984 6.240 C 3.183 5.082,3.600 4.278,4.272 3.760 C 5.025 3.178,6.058 2.913,8.002 2.802 C 8.872 2.752,16.044 2.780,16.600 2.836 M20.677 5.019 C 20.832 5.391,20.976 5.951,21.054 6.480 C 21.207 7.526,21.220 7.964,21.220 12.000 C 21.220 14.928,21.207 16.089,21.168 16.520 C 20.994 18.437,20.690 19.320,19.956 20.040 C 19.213 20.768,18.126 21.082,15.940 21.199 C 14.954 21.252,9.046 21.252,8.060 21.199 C 6.476 21.114,5.482 20.926,4.804 20.582 L 4.588 20.472 12.524 12.536 C 19.427 5.632,20.466 4.608,20.509 4.666 C 20.536 4.702,20.611 4.861,20.677 5.019 M7.720 4.805 C 7.591 4.856,7.411 5.028,7.326 5.180 C 7.271 5.280,7.258 5.458,7.247 6.267 L 7.234 7.234 6.267 7.247 C 5.215 7.261,5.178 7.269,4.953 7.506 C 4.819 7.647,4.760 7.799,4.760 8.000 C 4.760 8.201,4.819 8.353,4.953 8.494 C 5.178 8.731,5.215 8.739,6.267 8.753 L 7.234 8.766 7.247 9.733 C 7.261 10.785,7.269 10.822,7.506 11.047 C 7.647 11.181,7.799 11.240,8.000 11.240 C 8.201 11.240,8.353 11.181,8.494 11.047 C 8.731 10.822,8.739 10.785,8.753 9.733 L 8.766 8.766 9.733 8.753 C 10.785 8.739,10.822 8.731,11.047 8.494 C 11.181 8.353,11.240 8.201,11.240 8.000 C 11.240 7.799,11.181 7.647,11.047 7.506 C 10.822 7.269,10.785 7.261,9.733 7.247 L 8.766 7.234 8.753 6.267 C 8.742 5.458,8.729 5.280,8.674 5.180 C 8.586 5.021,8.407 4.855,8.267 4.803 C 8.129 4.750,7.854 4.751,7.720 4.805 M12.826 16.284 C 12.476 16.366,12.267 16.636,12.267 17.003 C 12.267 17.281,12.387 17.496,12.627 17.645 L 12.780 17.740 15.500 17.740 L 18.220 17.740 18.369 17.647 C 18.943 17.290,18.812 16.424,18.162 16.284 C 17.909 16.230,13.057 16.230,12.826 16.284 " stroke="none" fill-rule="evenodd" fill="black"></path></svg>