<svg width="24" height="24" viewBox="0 0 24 24" fill="none" xmlns="http://www.w3.org/2000/svg"><path d="M11.500 1.282 C 9.834 1.405,8.389 2.042,7.211 3.174 C 6.205 4.139,5.586 5.311,5.339 6.720 C 5.264 7.150,5.251 8.226,5.316 8.719 C 5.337 8.884,5.351 9.022,5.347 9.026 C 5.343 9.031,5.231 9.007,5.100 8.975 C 4.749 8.888,4.035 8.888,3.753 8.974 C 3.289 9.117,2.794 9.539,2.582 9.972 C 2.269 10.615,2.225 11.411,2.251 15.940 C 2.272 19.501,2.268 19.441,2.545 19.991 C 2.729 20.356,3.032 20.645,3.464 20.869 C 3.822 21.054,4.720 21.376,6.040 21.794 C 7.599 22.287,8.218 22.394,9.073 22.319 C 10.043 22.234,10.467 22.079,12.680 20.999 C 13.527 20.586,14.356 20.203,14.522 20.148 C 15.275 19.900,15.840 19.904,17.520 20.174 C 19.362 20.470,19.642 20.488,20.186 20.344 C 20.869 20.163,21.425 19.579,21.617 18.840 C 21.738 18.377,21.767 17.188,21.748 13.460 C 21.729 9.492,21.735 9.576,21.453 9.009 C 21.167 8.434,20.745 8.155,19.500 7.717 L 18.740 7.450 18.730 7.295 C 18.636 5.777,17.923 4.262,16.789 3.174 C 15.380 1.820,13.470 1.137,11.500 1.282 M13.120 2.859 C 14.500 3.163,15.715 3.977,16.457 5.094 C 17.221 6.242,17.422 7.598,17.079 9.283 C 16.724 11.031,15.759 12.784,14.527 13.920 C 14.036 14.373,13.586 14.685,13.021 14.964 C 12.470 15.236,12.177 15.298,11.730 15.237 C 11.394 15.192,10.653 14.837,10.163 14.487 C 8.082 13.000,6.676 10.113,6.771 7.523 C 6.817 6.252,7.263 5.250,8.199 4.314 C 9.016 3.497,9.925 3.031,11.120 2.817 C 11.526 2.744,12.712 2.769,13.120 2.859 M11.660 5.278 C 10.776 5.385,10.027 5.901,9.568 6.720 C 9.168 7.434,9.168 8.566,9.568 9.280 C 10.094 10.219,10.953 10.731,12.000 10.731 C 13.047 10.731,13.906 10.219,14.432 9.280 C 14.832 8.566,14.832 7.434,14.432 6.720 C 13.857 5.694,12.796 5.142,11.660 5.278 M12.454 6.841 C 12.744 6.950,13.050 7.256,13.159 7.546 C 13.467 8.369,12.871 9.240,12.000 9.240 C 11.670 9.240,11.374 9.120,11.143 8.893 C 10.841 8.594,10.780 8.446,10.780 8.000 C 10.780 7.554,10.841 7.406,11.144 7.107 C 11.482 6.773,11.994 6.669,12.454 6.841 M19.815 9.426 C 20.041 9.540,20.154 9.679,20.200 9.898 C 20.229 10.039,20.239 11.419,20.231 14.262 C 20.219 18.812,20.232 18.570,19.989 18.793 C 19.765 19.000,19.532 18.992,17.835 18.718 C 16.486 18.501,16.295 18.479,15.710 18.478 C 14.536 18.475,14.073 18.630,11.602 19.856 C 9.813 20.743,9.420 20.866,8.503 20.828 C 7.854 20.802,7.619 20.742,5.840 20.153 C 3.950 19.527,3.881 19.491,3.800 19.101 C 3.771 18.958,3.761 17.660,3.769 14.956 C 3.780 11.366,3.788 11.002,3.850 10.818 C 4.014 10.333,4.318 10.281,5.296 10.571 L 5.733 10.700 5.938 11.220 C 6.870 13.574,8.381 15.344,10.272 16.296 C 10.910 16.617,11.355 16.728,12.000 16.728 C 12.801 16.728,13.410 16.527,14.327 15.958 C 16.394 14.676,18.017 12.207,18.549 9.534 L 18.653 9.008 19.171 9.185 C 19.456 9.283,19.746 9.391,19.815 9.426 " stroke="none" fill-rule="evenodd" fill="black"></path></svg>