<svg width="24" height="24" viewBox="0 0 24 24" fill="none" xmlns="http://www.w3.org/2000/svg"><path d="M16.740 1.266 C 15.415 1.385,14.327 2.085,13.719 3.212 C 13.400 3.803,13.271 4.320,13.271 5.000 C 13.271 5.680,13.400 6.197,13.719 6.788 C 14.236 7.745,14.984 8.313,16.190 8.663 C 16.224 8.673,16.240 8.767,16.240 8.954 L 16.240 9.231 10.950 9.253 C 7.724 9.266,5.460 9.291,5.147 9.317 C 3.198 9.480,2.141 10.144,1.636 11.522 C 1.330 12.359,1.269 13.101,1.269 16.000 C 1.269 18.309,1.303 19.063,1.437 19.751 C 1.750 21.356,2.644 22.250,4.251 22.564 C 5.103 22.730,5.534 22.740,12.000 22.740 C 18.466 22.740,18.897 22.730,19.749 22.564 C 21.352 22.251,22.232 21.376,22.557 19.772 C 22.693 19.100,22.732 18.263,22.732 16.000 C 22.732 13.737,22.693 12.900,22.557 12.228 C 22.233 10.628,21.372 9.766,19.772 9.443 C 19.379 9.364,18.479 9.280,18.010 9.280 L 17.760 9.280 17.760 8.979 C 17.760 8.772,17.776 8.673,17.810 8.663 C 19.016 8.313,19.764 7.745,20.281 6.788 C 20.600 6.197,20.729 5.680,20.729 5.000 C 20.729 4.320,20.600 3.803,20.281 3.212 C 19.832 2.381,19.122 1.779,18.215 1.463 C 17.793 1.316,17.149 1.230,16.740 1.266 M17.578 2.821 C 17.949 2.918,18.274 3.112,18.581 3.419 C 19.041 3.879,19.240 4.356,19.240 5.000 C 19.240 5.644,19.041 6.121,18.581 6.581 C 18.121 7.041,17.644 7.240,17.000 7.240 C 16.356 7.240,15.879 7.041,15.419 6.581 C 14.959 6.121,14.760 5.644,14.760 5.000 C 14.760 4.356,14.959 3.879,15.419 3.419 C 15.719 3.118,16.050 2.919,16.404 2.823 C 16.692 2.746,17.285 2.745,17.578 2.821 M16.247 11.990 C 16.260 13.196,16.262 13.223,16.353 13.369 C 16.619 13.797,17.173 13.867,17.522 13.518 C 17.737 13.303,17.760 13.141,17.760 11.854 L 17.760 10.752 18.270 10.779 C 19.262 10.831,19.700 10.910,20.145 11.117 C 20.726 11.387,20.995 11.842,21.149 12.814 C 21.212 13.209,21.220 13.573,21.220 16.000 C 21.220 18.423,21.212 18.791,21.149 19.185 C 21.073 19.669,20.957 20.060,20.890 20.060 C 20.867 20.060,17.156 18.009,12.643 15.502 C 7.216 12.487,4.457 10.933,4.494 10.913 C 4.555 10.879,5.161 10.806,5.540 10.787 C 5.672 10.781,8.132 10.772,11.007 10.768 L 16.235 10.760 16.247 11.990 M6.768 13.946 C 8.777 15.061,10.434 15.985,10.451 16.000 C 10.483 16.027,3.288 20.280,3.211 20.280 C 3.108 20.280,2.910 19.646,2.830 19.060 C 2.760 18.553,2.760 13.447,2.830 12.940 C 2.895 12.467,3.038 11.920,3.097 11.920 C 3.108 11.920,4.760 12.832,6.768 13.946 M15.803 18.968 C 18.244 20.325,19.542 21.067,19.507 21.086 C 19.288 21.209,18.671 21.220,12.080 21.220 C 5.920 21.220,4.698 21.203,4.786 21.120 C 4.844 21.064,11.974 16.880,12.010 16.880 C 12.029 16.880,13.736 17.820,15.803 18.968 " stroke="none" fill-rule="evenodd" fill="black"></path></svg>