<svg width="24" height="24" viewBox="0 0 24 24" fill="none" xmlns="http://www.w3.org/2000/svg"><path d="M1.815 4.275 C 1.481 4.363,1.267 4.648,1.267 5.007 C 1.267 5.203,1.286 5.270,1.383 5.408 C 1.573 5.676,1.721 5.728,2.376 5.759 C 2.900 5.783,2.964 5.794,3.212 5.910 C 3.585 6.085,3.887 6.381,4.071 6.755 L 4.220 7.056 4.220 12.000 L 4.220 16.944 4.071 17.245 C 3.886 17.619,3.585 17.915,3.211 18.090 C 2.960 18.208,2.903 18.218,2.353 18.242 C 1.808 18.265,1.752 18.275,1.607 18.371 C 1.372 18.526,1.267 18.723,1.267 19.007 C 1.267 19.203,1.286 19.270,1.383 19.408 C 1.585 19.694,1.730 19.741,2.380 19.734 C 2.720 19.730,3.055 19.702,3.233 19.664 C 4.397 19.410,5.407 18.394,5.671 17.211 C 5.734 16.925,5.740 16.504,5.740 12.000 C 5.740 7.496,5.734 7.075,5.671 6.789 C 5.408 5.608,4.388 4.582,3.240 4.340 C 2.905 4.270,1.995 4.228,1.815 4.275 M10.000 4.279 C 8.970 4.325,8.490 4.435,7.978 4.743 C 7.364 5.111,7.013 5.690,6.854 6.600 C 6.785 6.993,6.780 7.342,6.780 12.000 C 6.780 16.658,6.785 17.007,6.854 17.400 C 7.104 18.830,7.859 19.509,9.395 19.687 C 9.981 19.755,14.019 19.755,14.605 19.687 C 16.141 19.509,16.896 18.830,17.146 17.400 C 17.215 17.007,17.220 16.658,17.220 12.000 C 17.220 7.342,17.215 6.993,17.146 6.600 C 16.899 5.189,16.138 4.491,14.660 4.320 C 14.188 4.266,10.946 4.237,10.000 4.279 M21.140 4.281 C 20.007 4.400,19.047 5.096,18.542 6.164 C 18.247 6.786,18.260 6.525,18.260 12.000 C 18.260 16.540,18.265 16.924,18.331 17.220 C 18.588 18.383,19.616 19.420,20.747 19.657 C 21.170 19.746,21.861 19.778,22.134 19.721 C 22.683 19.607,22.919 18.981,22.580 18.536 C 22.415 18.320,22.245 18.268,21.620 18.241 C 21.101 18.219,21.040 18.208,20.790 18.090 C 20.415 17.915,20.114 17.619,19.929 17.245 L 19.780 16.944 19.780 12.000 L 19.780 7.056 19.929 6.755 C 20.113 6.381,20.415 6.085,20.788 5.910 C 21.036 5.794,21.100 5.783,21.619 5.759 C 22.246 5.730,22.417 5.677,22.580 5.464 C 22.900 5.044,22.690 4.413,22.189 4.286 C 21.989 4.236,21.582 4.234,21.140 4.281 M14.436 5.799 C 15.308 5.899,15.545 6.105,15.686 6.880 C 15.766 7.321,15.766 16.679,15.686 17.120 C 15.545 17.895,15.308 18.101,14.436 18.201 C 13.999 18.251,10.001 18.251,9.564 18.201 C 8.883 18.122,8.604 17.975,8.449 17.610 C 8.262 17.168,8.260 17.119,8.260 12.000 C 8.260 6.881,8.262 6.832,8.449 6.390 C 8.599 6.037,8.894 5.874,9.512 5.802 C 9.904 5.756,14.042 5.754,14.436 5.799 " stroke="none" fill-rule="evenodd" fill="black"></path></svg>