<svg width="24" height="24" viewBox="0 0 24 24" fill="none" xmlns="http://www.w3.org/2000/svg"><path d="M4.815 1.278 C 4.639 1.320,4.462 1.455,4.353 1.631 C 4.266 1.770,4.260 1.817,4.266 2.360 C 4.273 3.044,4.342 3.414,4.542 3.836 C 4.982 4.768,5.825 5.456,6.789 5.671 C 7.075 5.734,7.496 5.740,12.000 5.740 C 16.504 5.740,16.925 5.734,17.211 5.671 C 18.386 5.409,19.419 4.388,19.657 3.253 C 19.746 2.830,19.778 2.139,19.721 1.866 C 19.580 1.187,18.721 1.036,18.356 1.626 C 18.278 1.752,18.264 1.847,18.241 2.356 C 18.218 2.902,18.207 2.960,18.090 3.211 C 17.915 3.585,17.619 3.886,17.245 4.071 L 16.944 4.220 12.000 4.220 L 7.056 4.220 6.755 4.071 C 6.381 3.887,6.085 3.585,5.910 3.212 C 5.794 2.964,5.783 2.900,5.759 2.381 C 5.730 1.754,5.677 1.582,5.464 1.422 C 5.350 1.336,5.076 1.235,4.980 1.244 C 4.958 1.246,4.884 1.262,4.815 1.278 M7.060 6.802 C 5.313 6.946,4.509 7.705,4.313 9.395 C 4.245 9.981,4.245 14.019,4.313 14.605 C 4.491 16.141,5.170 16.896,6.600 17.146 C 6.993 17.215,7.342 17.220,12.000 17.220 C 16.658 17.220,17.007 17.215,17.400 17.146 C 18.830 16.896,19.509 16.141,19.687 14.605 C 19.755 14.019,19.755 9.981,19.687 9.395 C 19.511 7.876,18.844 7.123,17.440 6.856 C 17.088 6.789,16.702 6.783,12.260 6.776 C 9.620 6.773,7.280 6.784,7.060 6.802 M17.226 8.332 C 17.916 8.483,18.104 8.721,18.201 9.564 C 18.251 10.001,18.251 13.999,18.201 14.436 C 18.101 15.308,17.895 15.545,17.120 15.686 C 16.679 15.766,7.321 15.766,6.880 15.686 C 6.105 15.545,5.899 15.308,5.799 14.436 C 5.749 13.999,5.749 10.001,5.799 9.564 C 5.914 8.569,6.165 8.356,7.320 8.280 C 7.573 8.263,9.841 8.254,12.360 8.259 C 16.358 8.267,16.976 8.277,17.226 8.332 M7.140 18.281 C 6.726 18.328,6.502 18.388,6.177 18.537 C 5.451 18.873,4.887 19.434,4.542 20.164 C 4.342 20.586,4.273 20.956,4.266 21.640 C 4.260 22.183,4.266 22.230,4.353 22.369 C 4.664 22.869,5.416 22.848,5.661 22.333 C 5.714 22.220,5.740 22.035,5.759 21.613 C 5.784 21.065,5.790 21.035,5.931 20.750 C 6.113 20.383,6.416 20.085,6.790 19.908 L 7.060 19.780 12.002 19.780 L 16.944 19.780 17.245 19.929 C 17.619 20.114,17.915 20.415,18.090 20.789 C 18.207 21.040,18.218 21.098,18.241 21.644 C 18.264 22.153,18.278 22.248,18.356 22.374 C 18.718 22.959,19.581 22.807,19.721 22.134 C 19.778 21.861,19.746 21.170,19.657 20.747 C 19.465 19.834,18.742 18.962,17.826 18.539 C 17.203 18.251,17.513 18.267,12.200 18.258 C 9.571 18.253,7.294 18.263,7.140 18.281 " stroke="none" fill-rule="evenodd" fill="black"></path></svg>