<svg width="24" height="24" viewBox="0 0 24 24" fill="none" xmlns="http://www.w3.org/2000/svg"><path d="M11.815 1.277 C 11.638 1.321,11.461 1.456,11.353 1.631 L 11.260 1.780 11.260 4.000 L 11.260 6.220 11.353 6.369 C 11.710 6.943,12.576 6.812,12.716 6.162 C 12.774 5.891,12.775 2.093,12.717 1.841 C 12.623 1.432,12.215 1.177,11.815 1.277 M7.959 3.134 C 5.954 4.041,4.274 5.663,3.270 7.660 C 2.052 10.082,1.932 13.038,2.946 15.600 C 4.120 18.567,6.731 20.802,9.840 21.501 C 10.891 21.737,12.254 21.802,13.260 21.662 C 17.947 21.012,21.441 17.261,21.720 12.580 C 21.846 10.462,21.296 8.400,20.141 6.662 C 19.119 5.124,17.896 4.043,16.282 3.251 C 15.646 2.939,15.462 2.904,15.180 3.040 C 14.756 3.245,14.632 3.805,14.927 4.179 C 14.973 4.239,15.263 4.412,15.594 4.578 C 16.576 5.070,17.199 5.520,17.902 6.246 C 19.206 7.592,19.990 9.235,20.198 11.060 C 20.252 11.527,20.251 12.529,20.198 12.961 C 20.040 14.236,19.549 15.563,18.855 16.590 C 17.500 18.594,15.364 19.901,12.961 20.198 C 12.525 20.252,11.475 20.252,11.039 20.198 C 10.107 20.083,9.226 19.820,8.374 19.404 C 5.838 18.164,4.130 15.738,3.796 12.905 C 3.736 12.389,3.771 11.098,3.859 10.620 C 4.175 8.896,4.898 7.485,6.098 6.246 C 6.801 5.520,7.424 5.070,8.406 4.578 C 8.737 4.412,9.027 4.239,9.073 4.179 C 9.365 3.809,9.244 3.245,8.830 3.045 C 8.570 2.919,8.394 2.937,7.959 3.134 " stroke="none" fill-rule="evenodd" fill="black"></path></svg>