<svg width="24" height="24" viewBox="0 0 24 24" fill="none" xmlns="http://www.w3.org/2000/svg"><path d="M1.815 1.278 C 1.331 1.393,1.098 2.004,1.383 2.408 C 1.590 2.700,1.716 2.738,2.526 2.754 L 3.232 2.768 3.252 7.934 C 3.265 11.364,3.287 13.255,3.317 13.560 C 3.440 14.794,3.665 15.513,4.140 16.181 C 4.693 16.959,5.661 17.441,7.034 17.621 C 7.527 17.686,9.341 17.757,10.530 17.759 L 11.240 17.760 11.240 19.150 L 11.240 20.540 10.381 20.971 C 9.474 21.426,9.382 21.496,9.281 21.812 C 9.165 22.173,9.428 22.617,9.816 22.715 C 10.080 22.781,10.197 22.742,11.167 22.256 L 12.000 21.840 12.833 22.256 C 13.290 22.485,13.740 22.693,13.831 22.717 C 14.348 22.857,14.856 22.348,14.717 21.828 C 14.631 21.505,14.540 21.433,13.619 20.971 L 12.760 20.540 12.760 19.150 L 12.760 17.760 13.470 17.759 C 14.659 17.757,16.473 17.686,16.966 17.621 C 18.339 17.441,19.307 16.959,19.860 16.181 C 20.339 15.507,20.567 14.774,20.683 13.540 C 20.712 13.228,20.735 11.260,20.748 7.910 L 20.768 2.760 21.362 2.760 C 22.121 2.760,22.322 2.718,22.520 2.520 C 22.918 2.122,22.730 1.423,22.189 1.286 C 21.978 1.233,2.036 1.225,1.815 1.278 M19.228 8.090 C 19.211 13.618,19.208 13.745,19.039 14.419 C 18.758 15.543,18.126 15.993,16.580 16.166 C 15.885 16.244,8.115 16.244,7.420 16.166 C 5.874 15.993,5.242 15.543,4.961 14.419 C 4.792 13.745,4.789 13.618,4.772 8.090 L 4.755 2.760 12.000 2.760 L 19.245 2.760 19.228 8.090 M14.683 7.822 C 14.608 7.855,14.200 8.226,13.776 8.646 L 13.005 9.411 12.412 8.846 C 12.087 8.535,11.755 8.237,11.676 8.183 C 11.318 7.940,10.885 7.903,10.501 8.084 C 10.180 8.235,8.502 9.847,8.340 10.160 C 8.252 10.331,8.247 10.660,8.331 10.821 C 8.520 11.184,8.932 11.336,9.305 11.181 C 9.389 11.145,9.762 10.810,10.221 10.356 L 10.996 9.590 11.588 10.155 C 11.914 10.465,12.245 10.763,12.324 10.817 C 12.683 11.060,13.115 11.097,13.500 10.916 C 13.818 10.766,15.500 9.150,15.660 8.839 C 15.748 8.669,15.753 8.339,15.669 8.179 C 15.588 8.024,15.409 7.856,15.267 7.803 C 15.110 7.743,14.845 7.752,14.683 7.822 " stroke="none" fill-rule="evenodd" fill="black"></path></svg>