<svg width="24" height="24" viewBox="0 0 24 24" fill="none" xmlns="http://www.w3.org/2000/svg"><path d="M9.860 1.281 C 9.442 1.296,8.929 1.330,8.720 1.357 C 6.598 1.629,5.582 2.672,5.350 4.819 L 5.298 5.298 4.876 5.344 C 3.706 5.474,2.926 5.788,2.357 6.357 C 1.738 6.976,1.426 7.830,1.315 9.209 C 1.254 9.965,1.254 14.035,1.315 14.791 C 1.428 16.191,1.742 17.038,2.379 17.660 C 2.981 18.247,3.750 18.543,4.999 18.670 L 5.298 18.700 5.350 19.180 C 5.583 21.299,6.555 22.329,8.600 22.624 C 9.446 22.745,12.072 22.793,14.000 22.721 C 15.483 22.665,16.148 22.547,16.820 22.221 C 17.907 21.693,18.478 20.744,18.650 19.180 L 18.702 18.700 19.001 18.670 C 20.250 18.543,21.019 18.247,21.621 17.660 C 22.263 17.034,22.575 16.183,22.684 14.760 C 22.713 14.388,22.732 13.285,22.732 12.000 C 22.732 9.737,22.693 8.900,22.557 8.228 C 22.193 6.429,21.172 5.571,19.124 5.344 L 18.702 5.298 18.650 4.819 C 18.482 3.261,17.908 2.308,16.820 1.779 C 16.151 1.454,15.487 1.336,14.020 1.279 C 12.946 1.238,11.012 1.239,9.860 1.281 M14.708 2.803 C 16.275 2.934,16.841 3.322,17.078 4.429 C 17.120 4.622,17.160 4.884,17.167 5.010 L 17.180 5.241 12.000 5.241 L 6.820 5.241 6.833 5.010 C 6.852 4.676,6.951 4.224,7.071 3.923 C 7.201 3.595,7.520 3.262,7.852 3.105 C 8.144 2.968,8.656 2.855,9.200 2.807 C 9.807 2.755,14.092 2.751,14.708 2.803 M19.136 6.834 C 19.839 6.947,20.366 7.164,20.620 7.445 C 20.793 7.637,20.971 7.999,21.059 8.340 C 21.205 8.907,21.220 9.245,21.220 12.020 C 21.220 14.428,21.212 14.791,21.149 15.186 C 20.972 16.304,20.622 16.779,19.794 17.025 C 19.642 17.071,18.903 17.199,18.790 17.200 C 18.773 17.200,18.760 16.876,18.760 16.480 L 18.760 15.760 18.858 15.760 C 18.912 15.760,19.049 15.740,19.162 15.716 C 19.926 15.552,19.919 14.446,19.154 14.281 C 18.996 14.247,17.084 14.239,11.857 14.248 L 4.774 14.260 4.612 14.367 C 4.374 14.525,4.267 14.722,4.267 15.000 C 4.267 15.417,4.498 15.661,4.964 15.734 L 5.240 15.778 5.240 16.489 C 5.240 16.880,5.226 17.200,5.210 17.200 C 5.097 17.199,4.358 17.071,4.206 17.025 C 3.358 16.773,2.994 16.254,2.830 15.060 C 2.760 14.553,2.760 9.447,2.830 8.940 C 2.964 7.962,3.236 7.440,3.749 7.171 C 4.171 6.950,4.579 6.853,5.307 6.803 C 6.042 6.751,18.802 6.780,19.136 6.834 M16.667 9.065 C 16.303 9.177,16.000 9.602,16.000 10.000 C 16.000 10.517,16.483 11.000,17.000 11.000 C 17.517 11.000,18.000 10.517,18.000 10.000 C 18.000 9.598,17.688 9.173,17.310 9.061 C 17.061 8.987,16.919 8.988,16.667 9.065 M5.815 9.278 C 5.331 9.393,5.098 10.004,5.383 10.408 C 5.447 10.499,5.572 10.610,5.660 10.656 C 5.813 10.736,5.888 10.741,7.373 10.752 C 9.166 10.766,9.287 10.753,9.519 10.521 C 9.918 10.122,9.731 9.423,9.189 9.286 C 8.981 9.234,6.029 9.227,5.815 9.278 M17.240 16.978 C 17.240 19.278,17.096 20.069,16.582 20.582 C 16.221 20.944,15.703 21.114,14.708 21.197 C 14.424 21.221,13.215 21.240,12.000 21.240 C 10.785 21.240,9.576 21.221,9.292 21.197 C 8.297 21.114,7.779 20.944,7.418 20.582 C 6.904 20.069,6.760 19.278,6.760 16.978 L 6.760 15.760 12.000 15.760 L 17.240 15.760 17.240 16.978 " stroke="none" fill-rule="evenodd" fill="black"></path></svg>