<svg width="24" height="24" viewBox="0 0 24 24" fill="none" xmlns="http://www.w3.org/2000/svg"><path d="M13.533 3.282 C 12.549 3.362,11.652 3.673,10.820 4.222 C 10.487 4.441,9.960 4.890,9.785 5.103 L 9.684 5.227 7.692 5.254 C 4.945 5.290,4.307 5.349,3.522 5.636 C 2.124 6.149,1.477 7.195,1.315 9.209 C 1.254 9.965,1.254 14.035,1.315 14.791 C 1.427 16.188,1.740 17.033,2.377 17.660 C 2.856 18.131,3.518 18.437,4.381 18.585 C 4.600 18.623,4.788 18.660,4.797 18.668 C 4.807 18.675,4.691 18.934,4.540 19.244 C 4.318 19.696,4.265 19.842,4.265 19.993 C 4.266 20.487,4.705 20.835,5.177 20.717 C 5.486 20.639,5.573 20.526,6.035 19.608 L 6.464 18.755 12.000 18.755 L 17.536 18.755 17.965 19.608 C 18.427 20.526,18.514 20.639,18.823 20.717 C 19.295 20.835,19.734 20.487,19.735 19.993 C 19.735 19.842,19.682 19.696,19.460 19.244 C 19.309 18.934,19.193 18.675,19.203 18.668 C 19.212 18.660,19.400 18.623,19.619 18.585 C 21.308 18.294,22.224 17.417,22.557 15.772 C 22.693 15.100,22.732 14.263,22.732 12.000 C 22.732 10.715,22.713 9.612,22.684 9.240 C 22.575 7.817,22.263 6.966,21.621 6.340 C 20.992 5.727,20.197 5.433,18.860 5.321 L 18.380 5.281 18.200 5.085 C 17.436 4.252,16.300 3.609,15.189 3.383 C 14.932 3.330,13.989 3.229,13.920 3.246 C 13.909 3.249,13.735 3.265,13.533 3.282 M15.020 4.873 C 15.575 5.029,15.918 5.182,16.350 5.468 C 16.982 5.884,17.592 6.604,17.869 7.260 C 18.183 8.001,18.218 8.174,18.218 9.000 C 18.218 9.826,18.183 9.999,17.869 10.740 C 17.498 11.618,16.618 12.498,15.740 12.869 C 14.999 13.183,14.826 13.218,14.000 13.218 C 13.174 13.218,13.001 13.183,12.260 12.869 C 11.340 12.480,10.472 11.588,10.083 10.631 C 9.825 9.995,9.780 9.750,9.782 8.980 C 9.783 8.407,9.797 8.249,9.871 7.974 C 10.330 6.280,11.627 5.108,13.400 4.784 C 13.455 4.774,13.779 4.772,14.120 4.780 C 14.581 4.790,14.812 4.814,15.020 4.873 M13.815 6.278 C 13.331 6.394,13.098 7.004,13.383 7.408 C 13.528 7.613,13.711 7.709,14.020 7.744 C 14.398 7.787,14.646 7.897,14.874 8.126 C 15.655 8.907,15.104 10.240,14.000 10.240 C 13.658 10.240,13.371 10.120,13.126 9.874 C 12.921 9.670,12.760 9.346,12.760 9.140 C 12.760 8.881,12.669 8.629,12.522 8.482 C 12.173 8.133,11.618 8.203,11.353 8.631 C 11.275 8.758,11.262 8.827,11.268 9.111 C 11.289 10.073,11.825 10.930,12.720 11.432 C 13.434 11.832,14.566 11.832,15.280 11.432 C 16.219 10.906,16.731 10.047,16.731 9.000 C 16.731 7.953,16.219 7.094,15.280 6.568 C 14.898 6.354,14.132 6.202,13.815 6.278 M8.680 6.792 C 8.680 6.809,8.627 6.975,8.563 7.162 C 8.082 8.551,8.191 10.217,8.851 11.540 C 10.149 14.142,13.146 15.367,15.895 14.418 C 17.525 13.855,18.855 12.525,19.418 10.895 C 19.825 9.715,19.839 8.330,19.453 7.207 C 19.398 7.046,19.362 6.905,19.373 6.894 C 19.406 6.861,19.929 7.006,20.149 7.110 C 20.733 7.385,21.029 7.917,21.170 8.940 C 21.206 9.197,21.220 10.075,21.220 12.020 C 21.220 14.428,21.212 14.791,21.149 15.186 C 20.935 16.537,20.473 16.976,19.060 17.170 C 18.539 17.242,5.461 17.242,4.940 17.170 C 4.435 17.101,4.145 17.021,3.815 16.860 C 3.244 16.581,2.970 16.080,2.830 15.060 C 2.760 14.553,2.760 9.447,2.830 8.940 C 2.964 7.962,3.236 7.440,3.749 7.171 C 4.172 6.949,4.581 6.853,5.307 6.804 C 5.935 6.761,8.680 6.751,8.680 6.792 M5.180 8.835 C 4.800 9.010,4.760 9.146,4.760 10.256 C 4.760 11.210,4.775 11.306,4.953 11.494 C 5.111 11.661,5.273 11.731,5.500 11.731 C 5.727 11.731,5.889 11.661,6.047 11.494 C 6.226 11.305,6.240 11.211,6.239 10.247 C 6.238 9.453,6.229 9.320,6.165 9.180 C 6.077 8.990,5.988 8.904,5.790 8.822 C 5.595 8.740,5.376 8.745,5.180 8.835 " stroke="none" fill-rule="evenodd" fill="black"></path></svg>