<svg width="24" height="24" viewBox="0 0 24 24" fill="none" xmlns="http://www.w3.org/2000/svg"><path d="M11.300 1.282 C 9.239 1.402,7.267 2.137,5.520 3.435 C 4.931 3.872,3.884 4.916,3.459 5.490 C 1.865 7.640,1.132 10.049,1.281 12.653 C 1.457 15.736,2.918 18.554,5.340 20.480 C 6.128 21.106,7.356 21.796,8.294 22.140 C 9.238 22.486,10.412 22.733,11.101 22.731 C 12.451 22.727,13.746 21.759,13.996 20.568 C 14.052 20.298,14.053 19.786,13.997 19.512 C 13.924 19.158,13.667 18.687,13.355 18.338 C 13.039 17.984,12.874 17.696,12.868 17.488 C 12.863 17.305,13.039 17.146,13.347 17.056 C 13.672 16.962,14.673 17.000,15.900 17.154 C 17.762 17.387,18.727 17.399,19.583 17.199 C 21.116 16.842,22.070 15.861,22.500 14.201 C 22.812 12.995,22.818 11.316,22.517 9.820 C 22.200 8.248,21.424 6.597,20.383 5.280 C 20.055 4.865,19.050 3.870,18.640 3.554 C 16.827 2.156,14.851 1.413,12.600 1.280 C 12.237 1.259,11.913 1.244,11.880 1.247 C 11.847 1.250,11.586 1.266,11.300 1.282 M13.560 2.879 C 15.535 3.231,17.237 4.137,18.640 5.585 C 19.981 6.969,20.803 8.607,21.147 10.580 C 21.247 11.153,21.249 12.903,21.150 13.426 C 20.896 14.778,20.304 15.500,19.250 15.747 C 18.996 15.807,18.777 15.819,18.040 15.817 C 17.282 15.815,16.982 15.794,16.140 15.689 C 14.733 15.512,13.989 15.463,13.511 15.517 C 12.785 15.598,12.222 15.846,11.856 16.246 C 11.101 17.071,11.223 18.204,12.185 19.282 C 12.309 19.421,12.444 19.608,12.484 19.697 C 12.685 20.139,12.482 20.621,11.950 20.970 C 11.515 21.256,11.181 21.297,10.394 21.162 C 7.928 20.739,5.679 19.255,4.268 17.120 C 3.709 16.273,3.173 15.006,2.965 14.038 C 2.703 12.815,2.688 11.405,2.925 10.220 C 3.299 8.349,4.189 6.717,5.565 5.378 C 7.027 3.957,8.764 3.111,10.820 2.820 C 11.440 2.733,12.915 2.764,13.560 2.879 M9.025 4.821 C 8.646 4.917,8.328 5.108,8.000 5.438 C 7.531 5.910,7.361 6.326,7.361 7.000 C 7.361 7.674,7.531 8.090,8.000 8.562 C 8.466 9.030,8.953 9.239,9.580 9.239 C 10.561 9.239,11.440 8.595,11.731 7.662 C 11.852 7.273,11.852 6.727,11.731 6.338 C 11.521 5.667,10.975 5.103,10.315 4.877 C 9.985 4.763,9.361 4.736,9.025 4.821 M13.951 4.822 C 13.231 4.997,12.581 5.606,12.356 6.317 C 12.240 6.684,12.240 7.316,12.356 7.683 C 12.580 8.391,13.247 9.009,13.970 9.180 C 14.478 9.300,15.059 9.233,15.517 9.002 C 16.007 8.754,16.481 8.200,16.644 7.683 C 16.760 7.316,16.760 6.684,16.644 6.317 C 16.420 5.609,15.753 4.991,15.030 4.820 C 14.722 4.747,14.256 4.748,13.951 4.822 M9.999 6.379 C 10.429 6.677,10.431 7.302,10.004 7.617 C 9.540 7.960,8.840 7.591,8.840 7.004 C 8.840 6.698,9.001 6.456,9.300 6.313 C 9.511 6.213,9.798 6.240,9.999 6.379 M14.915 6.391 C 15.171 6.598,15.220 6.697,15.220 7.000 C 15.220 7.306,15.171 7.401,14.904 7.618 C 14.771 7.725,14.722 7.740,14.500 7.740 C 14.278 7.740,14.229 7.725,14.096 7.618 C 13.830 7.402,13.780 7.305,13.780 7.004 C 13.780 6.783,13.798 6.708,13.878 6.591 C 13.973 6.452,14.135 6.330,14.300 6.272 C 14.464 6.214,14.769 6.273,14.915 6.391 M6.180 9.281 C 5.086 9.427,4.276 10.360,4.270 11.480 C 4.267 12.129,4.470 12.630,4.920 13.080 C 5.363 13.523,5.868 13.731,6.500 13.731 C 7.132 13.731,7.637 13.523,8.080 13.080 C 8.523 12.637,8.731 12.132,8.731 11.500 C 8.731 10.868,8.523 10.363,8.080 9.920 C 7.575 9.415,6.894 9.186,6.180 9.281 M17.180 9.281 C 16.086 9.427,15.276 10.360,15.270 11.480 C 15.267 12.129,15.470 12.630,15.920 13.080 C 16.363 13.523,16.868 13.731,17.500 13.731 C 18.132 13.731,18.637 13.523,19.080 13.080 C 19.523 12.637,19.731 12.132,19.731 11.500 C 19.731 10.868,19.523 10.363,19.080 9.920 C 18.575 9.415,17.894 9.186,17.180 9.281 M6.944 10.903 C 7.173 11.088,7.247 11.255,7.231 11.549 C 7.219 11.752,7.195 11.823,7.097 11.944 C 6.912 12.173,6.745 12.247,6.451 12.231 C 6.248 12.219,6.177 12.195,6.056 12.097 C 5.827 11.912,5.753 11.745,5.769 11.451 C 5.781 11.248,5.805 11.177,5.903 11.056 C 6.088 10.827,6.255 10.753,6.549 10.769 C 6.752 10.781,6.823 10.805,6.944 10.903 M17.944 10.903 C 18.173 11.088,18.247 11.255,18.231 11.549 C 18.219 11.752,18.195 11.823,18.097 11.944 C 17.912 12.173,17.745 12.247,17.451 12.231 C 17.248 12.219,17.177 12.195,17.056 12.097 C 16.827 11.912,16.753 11.745,16.769 11.451 C 16.781 11.248,16.805 11.177,16.903 11.056 C 17.088 10.827,17.255 10.753,17.549 10.769 C 17.752 10.781,17.823 10.805,17.944 10.903 " stroke="none" fill-rule="evenodd" fill="black"></path></svg>