<svg width="24" height="24" viewBox="0 0 24 24" fill="none" xmlns="http://www.w3.org/2000/svg"><path d="M9.020 1.278 C 7.735 1.310,7.475 1.326,6.649 1.423 C 4.782 1.643,3.569 2.183,2.728 3.171 C 1.841 4.212,1.475 5.425,1.314 7.860 C 1.249 8.841,1.249 15.159,1.314 16.140 C 1.431 17.905,1.649 18.970,2.068 19.825 C 2.756 21.228,3.977 22.098,5.734 22.437 C 7.035 22.688,7.988 22.733,12.000 22.733 C 16.012 22.733,16.965 22.688,18.266 22.437 C 20.599 21.987,21.987 20.599,22.437 18.266 C 22.688 16.968,22.732 16.015,22.733 12.000 C 22.733 7.987,22.688 7.034,22.437 5.734 C 22.098 3.977,21.228 2.756,19.825 2.068 C 18.972 1.650,17.855 1.421,16.180 1.321 C 15.276 1.267,10.579 1.239,9.020 1.278 M16.600 2.836 C 18.439 3.019,19.320 3.320,20.000 4.000 C 20.680 4.680,20.982 5.564,21.164 7.400 C 21.192 7.686,21.217 9.195,21.229 11.380 C 21.251 15.485,21.215 16.565,21.019 17.740 C 20.687 19.721,19.731 20.677,17.740 21.020 C 16.654 21.207,16.320 21.218,12.040 21.219 C 7.880 21.220,7.593 21.212,6.500 21.055 C 4.391 20.754,3.409 19.877,3.021 17.947 C 2.796 16.825,2.780 16.431,2.781 11.980 C 2.782 7.664,2.793 7.353,2.984 6.240 C 3.231 4.800,3.803 3.921,4.820 3.421 C 5.541 3.067,6.445 2.891,8.002 2.802 C 8.872 2.752,16.044 2.780,16.600 2.836 M13.420 10.802 C 12.999 10.866,12.685 11.143,12.347 11.751 C 12.228 11.965,11.641 13.107,11.043 14.289 C 10.444 15.471,9.939 16.448,9.920 16.460 C 9.900 16.472,9.681 16.180,9.433 15.811 C 8.896 15.013,8.591 14.690,8.196 14.501 C 7.765 14.294,7.500 14.264,6.080 14.262 C 4.878 14.260,4.813 14.264,4.660 14.344 C 4.572 14.390,4.447 14.501,4.383 14.592 C 4.286 14.730,4.267 14.797,4.267 14.997 C 4.267 15.282,4.385 15.494,4.627 15.645 C 4.778 15.739,4.796 15.740,6.122 15.760 C 7.322 15.778,7.475 15.788,7.573 15.851 C 7.699 15.934,7.952 16.271,8.481 17.060 C 8.887 17.664,9.206 18.017,9.460 18.142 C 9.581 18.201,9.704 18.220,9.960 18.220 C 10.257 18.220,10.323 18.206,10.480 18.113 C 10.701 17.982,10.868 17.808,11.052 17.518 C 11.129 17.395,11.727 16.243,12.380 14.958 C 13.033 13.672,13.581 12.606,13.597 12.588 C 13.614 12.571,13.867 12.949,14.160 13.428 C 14.454 13.908,14.784 14.435,14.894 14.600 C 15.300 15.207,15.743 15.538,16.315 15.665 C 16.694 15.749,18.863 15.791,19.158 15.721 C 19.921 15.538,19.924 14.448,19.162 14.284 C 19.040 14.258,18.505 14.240,17.848 14.240 C 17.206 14.240,16.677 14.222,16.591 14.198 C 16.393 14.143,16.250 13.967,15.763 13.179 C 14.612 11.316,14.484 11.139,14.138 10.937 C 13.941 10.821,13.651 10.767,13.420 10.802 " stroke="none" fill-rule="evenodd" fill="black"></path></svg>