<svg width="24" height="24" viewBox="0 0 24 24" fill="none" xmlns="http://www.w3.org/2000/svg"><path d="M9.020 1.278 C 7.735 1.310,7.475 1.326,6.649 1.423 C 5.621 1.544,4.815 1.754,4.175 2.068 C 2.772 2.756,1.902 3.977,1.563 5.734 C 1.321 6.988,1.273 7.931,1.260 11.720 C 1.247 15.660,1.296 16.786,1.543 18.146 C 1.985 20.574,3.356 21.978,5.734 22.437 C 7.035 22.688,7.988 22.733,12.000 22.733 C 16.012 22.733,16.965 22.688,18.266 22.437 C 20.599 21.987,21.987 20.599,22.437 18.267 C 22.690 16.954,22.736 15.985,22.734 12.000 C 22.732 7.998,22.686 7.025,22.437 5.733 C 22.098 3.977,21.227 2.755,19.825 2.068 C 18.972 1.650,17.855 1.421,16.180 1.321 C 15.276 1.267,10.579 1.239,9.020 1.278 M16.600 2.836 C 18.439 3.019,19.320 3.320,20.000 4.000 C 20.680 4.680,20.984 5.569,21.164 7.400 C 21.191 7.676,21.217 9.135,21.228 11.050 L 21.248 14.240 19.774 14.240 C 18.930 14.240,18.241 14.223,18.163 14.201 C 18.088 14.179,17.973 14.112,17.908 14.051 C 17.842 13.990,17.228 13.301,16.542 12.520 C 15.856 11.738,15.197 11.013,15.077 10.909 C 14.787 10.655,14.497 10.546,14.174 10.571 C 13.845 10.597,13.601 10.726,13.326 11.021 C 13.202 11.154,12.200 12.508,11.100 14.031 C 10.000 15.553,9.082 16.794,9.060 16.789 C 9.038 16.784,8.615 16.358,8.120 15.843 C 7.175 14.859,6.953 14.659,6.622 14.490 C 6.225 14.287,6.095 14.273,4.366 14.251 L 2.752 14.231 2.772 11.005 C 2.794 7.671,2.812 7.254,2.982 6.253 C 3.228 4.804,3.800 3.923,4.820 3.421 C 5.541 3.067,6.445 2.891,8.002 2.802 C 8.872 2.752,16.044 2.780,16.600 2.836 M15.473 13.575 C 16.758 15.044,17.037 15.325,17.369 15.492 C 17.814 15.715,17.931 15.728,19.635 15.750 L 21.211 15.770 21.184 16.215 C 21.051 18.389,20.645 19.522,19.745 20.226 C 19.085 20.743,18.303 20.983,16.740 21.150 C 16.181 21.210,15.588 21.219,12.040 21.219 C 7.880 21.220,7.593 21.212,6.500 21.055 C 4.391 20.754,3.409 19.877,3.021 17.947 C 2.926 17.471,2.800 16.337,2.800 15.953 L 2.800 15.760 4.301 15.760 C 5.468 15.760,5.831 15.772,5.931 15.814 C 6.007 15.845,6.431 16.254,6.959 16.804 C 7.453 17.319,7.964 17.842,8.095 17.967 C 8.662 18.509,9.200 18.601,9.744 18.247 C 10.012 18.073,10.122 17.928,12.580 14.527 C 13.504 13.249,14.262 12.202,14.265 12.201 C 14.268 12.201,14.812 12.819,15.473 13.575 " stroke="none" fill-rule="evenodd" fill="black"></path></svg>