<svg width="24" height="24" viewBox="0 0 24 24" fill="none" xmlns="http://www.w3.org/2000/svg"><path d="M5.440 1.282 C 4.156 1.329,3.571 1.470,2.932 1.888 C 2.360 2.261,1.807 2.918,1.599 3.472 C 1.354 4.123,1.293 4.624,1.259 6.240 C 1.232 7.550,1.282 8.832,1.375 9.200 C 1.573 9.985,2.053 10.590,2.740 10.921 C 3.320 11.200,3.413 11.210,5.672 11.229 C 8.549 11.254,9.135 11.199,9.867 10.840 C 10.308 10.623,10.623 10.308,10.840 9.867 C 11.199 9.135,11.254 8.549,11.229 5.672 C 11.210 3.413,11.200 3.320,10.921 2.740 C 10.590 2.053,9.986 1.573,9.200 1.375 C 8.744 1.259,7.135 1.220,5.440 1.282 M15.640 1.279 C 14.816 1.324,14.387 1.443,13.933 1.751 C 13.585 1.987,13.260 2.364,13.079 2.740 C 12.800 3.320,12.790 3.413,12.771 5.672 C 12.746 8.549,12.801 9.135,13.160 9.867 C 13.377 10.308,13.692 10.623,14.133 10.840 C 14.865 11.199,15.451 11.254,18.328 11.229 C 20.587 11.210,20.680 11.200,21.260 10.921 C 21.947 10.590,22.427 9.985,22.625 9.200 C 22.759 8.672,22.791 5.745,22.676 4.680 C 22.566 3.664,22.257 2.969,21.644 2.356 C 21.031 1.743,20.331 1.432,19.320 1.324 C 18.807 1.270,16.360 1.239,15.640 1.279 M8.924 2.833 C 9.266 2.946,9.574 3.266,9.672 3.612 C 9.749 3.885,9.788 7.025,9.726 8.020 C 9.637 9.457,9.457 9.637,8.020 9.726 C 7.019 9.788,3.883 9.750,3.612 9.672 C 3.256 9.570,2.938 9.258,2.830 8.904 C 2.793 8.782,2.780 8.230,2.781 6.760 C 2.782 5.041,2.791 4.741,2.850 4.484 C 3.082 3.477,3.721 2.932,4.820 2.805 C 5.297 2.750,8.744 2.774,8.924 2.833 M19.112 2.802 C 19.833 2.879,20.250 3.056,20.614 3.437 C 20.981 3.822,21.124 4.185,21.200 4.926 C 21.261 5.528,21.235 8.717,21.167 8.924 C 21.104 9.116,20.920 9.366,20.741 9.502 C 20.460 9.716,20.334 9.730,18.420 9.750 C 15.690 9.778,14.948 9.705,14.621 9.379 C 14.308 9.066,14.241 8.464,14.242 5.980 C 14.243 4.354,14.277 3.701,14.373 3.471 C 14.510 3.142,14.869 2.867,15.242 2.805 C 15.550 2.754,18.644 2.751,19.112 2.802 M5.547 5.037 C 5.357 5.076,5.204 5.188,5.100 5.364 C 5.028 5.487,5.020 5.572,5.020 6.240 C 5.020 7.110,5.055 7.227,5.363 7.391 C 5.534 7.482,5.566 7.485,6.307 7.473 C 7.147 7.459,7.179 7.450,7.378 7.185 C 7.453 7.084,7.461 7.009,7.473 6.307 C 7.485 5.566,7.482 5.534,7.391 5.363 C 7.233 5.066,7.098 5.021,6.340 5.013 C 5.988 5.009,5.631 5.019,5.547 5.037 M17.029 5.041 C 16.806 5.097,16.694 5.186,16.599 5.382 C 16.520 5.546,16.515 5.610,16.527 6.316 C 16.541 7.145,16.551 7.180,16.815 7.378 C 16.916 7.453,16.991 7.461,17.693 7.473 C 18.434 7.485,18.466 7.482,18.637 7.391 C 18.914 7.244,18.974 7.087,18.994 6.471 C 19.022 5.555,18.952 5.285,18.640 5.103 C 18.518 5.031,18.423 5.020,17.840 5.013 C 17.477 5.008,17.112 5.021,17.029 5.041 M3.745 12.802 C 3.316 12.852,3.085 12.916,2.740 13.081 C 2.055 13.407,1.573 14.014,1.375 14.800 C 1.241 15.334,1.208 18.301,1.325 19.340 C 1.438 20.344,1.748 21.037,2.356 21.644 C 2.963 22.252,3.656 22.561,4.660 22.675 C 5.704 22.793,8.661 22.760,9.200 22.625 C 9.984 22.428,10.590 21.947,10.921 21.260 C 11.200 20.680,11.210 20.587,11.229 18.328 C 11.254 15.451,11.199 14.865,10.840 14.133 C 10.435 13.308,9.663 12.894,8.361 12.800 C 7.726 12.754,4.145 12.756,3.745 12.802 M15.275 12.803 C 14.918 12.841,14.561 12.928,14.292 13.043 C 13.799 13.254,13.225 13.847,13.017 14.360 C 12.846 14.780,12.799 15.116,12.773 16.090 L 12.749 17.000 13.494 17.000 L 14.240 17.000 14.240 16.464 C 14.240 15.781,14.305 15.145,14.396 14.940 C 14.586 14.514,14.884 14.342,15.540 14.281 C 15.782 14.259,16.660 14.240,17.490 14.240 L 19.000 14.240 19.000 13.500 L 19.000 12.760 17.290 12.765 C 16.349 12.768,15.443 12.785,15.275 12.803 M21.700 12.821 C 21.539 12.908,21.406 13.035,21.326 13.180 C 21.268 13.286,21.259 13.518,21.248 15.150 L 21.236 17.000 22.000 17.000 L 22.764 17.000 22.752 15.150 C 22.739 13.072,22.752 13.168,22.429 12.907 C 22.243 12.756,21.896 12.715,21.700 12.821 M8.121 14.279 C 9.445 14.365,9.638 14.570,9.726 15.980 C 9.788 16.975,9.749 20.115,9.672 20.388 C 9.571 20.744,9.258 21.062,8.904 21.170 C 8.782 21.207,8.230 21.220,6.760 21.219 C 5.041 21.218,4.741 21.209,4.484 21.150 C 3.608 20.949,3.053 20.400,2.854 19.540 C 2.770 19.176,2.725 15.785,2.798 15.314 C 2.850 14.981,2.968 14.752,3.186 14.560 C 3.393 14.378,3.563 14.317,3.958 14.282 C 4.458 14.237,7.443 14.235,8.121 14.279 M16.825 16.040 C 16.512 16.096,16.281 16.264,16.141 16.539 L 16.020 16.774 16.020 17.737 C 16.020 18.860,16.044 18.971,16.346 19.237 C 16.605 19.465,16.765 19.490,17.880 19.474 L 18.820 19.460 19.007 19.350 C 19.227 19.220,19.349 19.064,19.425 18.811 C 19.494 18.582,19.502 17.025,19.436 16.717 C 19.380 16.460,19.104 16.154,18.860 16.079 C 18.665 16.020,17.106 15.990,16.825 16.040 M5.363 16.609 C 5.055 16.773,5.020 16.890,5.020 17.760 C 5.020 18.434,5.027 18.512,5.102 18.640 C 5.287 18.954,5.528 19.019,6.430 18.994 C 7.090 18.976,7.241 18.920,7.391 18.637 C 7.482 18.466,7.485 18.434,7.473 17.693 C 7.459 16.853,7.450 16.821,7.185 16.622 C 7.084 16.547,7.009 16.539,6.307 16.527 C 5.566 16.515,5.534 16.518,5.363 16.609 M12.760 20.577 C 12.760 21.595,12.775 22.195,12.803 22.267 C 12.905 22.540,13.193 22.731,13.500 22.731 C 13.807 22.731,14.095 22.540,14.197 22.267 C 14.225 22.195,14.240 21.595,14.240 20.577 L 14.240 19.000 13.500 19.000 L 12.760 19.000 12.760 20.577 M21.233 19.670 C 21.220 20.247,21.206 20.366,21.133 20.526 C 21.025 20.763,20.764 21.024,20.526 21.134 C 20.347 21.217,20.281 21.220,18.670 21.232 L 17.000 21.243 17.000 22.007 L 17.000 22.770 18.670 22.748 C 20.550 22.724,20.687 22.707,21.220 22.443 C 21.781 22.164,22.163 21.782,22.443 21.220 C 22.647 20.808,22.708 20.494,22.743 19.670 L 22.771 19.000 22.009 19.000 L 21.248 19.000 21.233 19.670 " stroke="none" fill-rule="evenodd" fill="black"></path></svg>