<svg width="24" height="24" viewBox="0 0 24 24" fill="none" xmlns="http://www.w3.org/2000/svg"><path d="M8.960 1.280 C 6.960 1.332,5.848 1.469,4.900 1.779 C 3.060 2.382,1.958 3.688,1.563 5.734 C 1.311 7.042,1.267 7.973,1.267 12.000 C 1.267 16.027,1.311 16.958,1.563 18.266 C 2.013 20.599,3.401 21.987,5.734 22.437 C 7.034 22.688,7.987 22.733,12.000 22.733 C 16.013 22.733,16.966 22.688,18.266 22.437 C 20.599 21.987,21.987 20.599,22.437 18.266 C 22.688 16.966,22.733 16.013,22.733 12.000 C 22.733 7.987,22.688 7.034,22.437 5.734 C 22.098 3.977,21.228 2.756,19.825 2.068 C 18.978 1.652,17.875 1.425,16.200 1.321 C 15.315 1.266,10.534 1.239,8.960 1.280 M16.787 2.853 C 17.971 2.982,18.589 3.129,19.180 3.421 C 20.200 3.924,20.776 4.815,21.019 6.260 C 21.215 7.435,21.251 8.515,21.229 12.620 C 21.210 16.115,21.195 16.526,21.055 17.500 C 20.734 19.744,19.757 20.726,17.520 21.054 C 16.474 21.207,16.036 21.220,12.000 21.220 C 7.964 21.220,7.526 21.207,6.480 21.054 C 4.384 20.747,3.408 19.870,3.021 17.947 C 2.796 16.826,2.780 16.428,2.780 12.000 C 2.780 8.382,2.788 7.864,2.852 7.240 C 3.025 5.550,3.340 4.663,4.001 4.001 C 4.665 3.338,5.593 3.009,7.220 2.862 C 8.207 2.772,8.227 2.772,12.400 2.782 C 15.524 2.790,16.323 2.803,16.787 2.853 M11.640 6.281 C 11.060 6.352,10.622 6.577,10.159 7.039 C 9.639 7.559,9.400 8.105,9.400 8.773 C 9.400 9.026,9.418 9.121,9.490 9.248 C 9.614 9.470,9.849 9.600,10.124 9.600 C 10.564 9.600,10.814 9.345,10.879 8.830 C 10.924 8.471,11.013 8.278,11.227 8.072 C 11.449 7.858,11.689 7.762,12.000 7.762 C 12.593 7.762,13.063 8.194,13.110 8.783 C 13.150 9.276,12.973 9.570,12.399 9.963 C 11.959 10.264,11.607 10.635,11.444 10.967 C 11.279 11.303,11.228 11.712,11.246 12.551 C 11.259 13.168,11.267 13.232,11.353 13.369 C 11.710 13.943,12.576 13.812,12.716 13.162 C 12.740 13.049,12.760 12.664,12.760 12.307 C 12.760 11.498,12.741 11.534,13.393 11.092 C 13.819 10.803,14.125 10.464,14.323 10.060 C 14.534 9.629,14.600 9.342,14.600 8.860 C 14.600 8.100,14.385 7.585,13.839 7.035 C 13.559 6.753,13.436 6.661,13.159 6.529 C 12.663 6.293,12.178 6.214,11.640 6.281 M11.667 15.065 C 11.303 15.177,11.000 15.602,11.000 16.000 C 11.000 16.517,11.483 17.000,12.000 17.000 C 12.517 17.000,13.000 16.517,13.000 16.000 C 13.000 15.598,12.688 15.173,12.310 15.061 C 12.061 14.987,11.919 14.988,11.667 15.065 " stroke="none" fill-rule="evenodd" fill="black"></path></svg>