<svg width="24" height="24" viewBox="0 0 24 24" fill="none" xmlns="http://www.w3.org/2000/svg"><path d="M11.320 1.281 C 7.041 1.525,3.252 4.409,1.843 8.497 C 1.180 10.418,1.082 12.560,1.564 14.550 C 2.505 18.428,5.572 21.495,9.450 22.436 C 11.106 22.837,12.894 22.837,14.550 22.436 C 18.428 21.495,21.495 18.428,22.436 14.550 C 22.837 12.894,22.837 11.106,22.436 9.450 C 21.425 5.282,17.985 2.095,13.742 1.398 C 13.334 1.331,12.074 1.229,11.880 1.247 C 11.847 1.250,11.595 1.265,11.320 1.281 M13.146 2.822 C 14.201 2.960,15.125 3.237,16.060 3.696 C 18.877 5.079,20.768 7.722,21.178 10.854 C 21.301 11.786,21.244 13.026,21.034 13.998 C 20.745 15.343,20.003 16.855,19.121 17.900 C 18.247 18.935,17.240 19.726,16.060 20.304 C 14.761 20.940,13.462 21.240,12.000 21.240 C 10.538 21.240,9.236 20.940,7.940 20.304 C 5.123 18.921,3.232 16.278,2.822 13.146 C 2.699 12.214,2.756 10.974,2.966 10.002 C 3.177 9.020,3.703 7.775,4.268 6.920 C 5.750 4.677,8.131 3.188,10.820 2.823 C 11.380 2.746,12.569 2.746,13.146 2.822 M11.640 6.281 C 11.060 6.352,10.622 6.577,10.159 7.039 C 9.639 7.559,9.400 8.105,9.400 8.773 C 9.400 9.026,9.418 9.121,9.490 9.248 C 9.614 9.470,9.849 9.600,10.124 9.600 C 10.564 9.600,10.814 9.345,10.879 8.830 C 10.924 8.471,11.013 8.278,11.227 8.072 C 11.449 7.858,11.689 7.762,12.000 7.762 C 12.593 7.762,13.063 8.194,13.110 8.783 C 13.150 9.276,12.973 9.570,12.399 9.963 C 11.959 10.264,11.607 10.635,11.444 10.967 C 11.279 11.303,11.228 11.712,11.246 12.551 C 11.259 13.168,11.267 13.232,11.353 13.369 C 11.710 13.943,12.576 13.812,12.716 13.162 C 12.740 13.049,12.760 12.664,12.760 12.307 C 12.760 11.498,12.741 11.534,13.393 11.092 C 13.819 10.803,14.125 10.464,14.323 10.060 C 14.534 9.629,14.600 9.342,14.600 8.860 C 14.600 8.100,14.385 7.585,13.839 7.035 C 13.559 6.753,13.436 6.661,13.159 6.529 C 12.663 6.293,12.178 6.214,11.640 6.281 M11.667 15.065 C 11.303 15.177,11.000 15.602,11.000 16.000 C 11.000 16.517,11.483 17.000,12.000 17.000 C 12.517 17.000,13.000 16.517,13.000 16.000 C 13.000 15.598,12.688 15.173,12.310 15.061 C 12.061 14.987,11.919 14.988,11.667 15.065 " stroke="none" fill-rule="evenodd" fill="black"></path></svg>