<svg width="24" height="24" viewBox="0 0 24 24" fill="none" xmlns="http://www.w3.org/2000/svg"><path d="M11.320 1.281 C 7.041 1.525,3.252 4.409,1.843 8.497 C 1.180 10.418,1.082 12.560,1.564 14.550 C 2.505 18.428,5.572 21.495,9.450 22.436 C 11.106 22.837,12.894 22.837,14.550 22.436 C 18.428 21.495,21.495 18.428,22.436 14.550 C 22.837 12.894,22.837 11.106,22.436 9.450 C 21.425 5.282,17.985 2.095,13.742 1.398 C 13.334 1.331,12.074 1.229,11.880 1.247 C 11.847 1.250,11.595 1.265,11.320 1.281 M13.146 2.822 C 14.201 2.960,15.125 3.237,16.060 3.696 C 18.877 5.079,20.768 7.722,21.178 10.854 C 21.301 11.786,21.244 13.026,21.034 13.998 C 20.745 15.343,20.003 16.855,19.121 17.900 C 18.247 18.935,17.240 19.726,16.060 20.304 C 14.761 20.940,13.462 21.240,12.000 21.240 C 10.538 21.240,9.236 20.940,7.940 20.304 C 5.123 18.921,3.232 16.278,2.822 13.146 C 2.699 12.214,2.756 10.974,2.966 10.002 C 3.177 9.020,3.703 7.775,4.268 6.920 C 5.750 4.677,8.131 3.188,10.820 2.823 C 11.380 2.746,12.569 2.746,13.146 2.822 M9.815 5.278 C 9.640 5.320,9.462 5.455,9.356 5.627 C 9.274 5.759,9.264 5.843,9.236 6.576 C 9.202 7.464,9.182 7.668,9.094 8.018 C 8.939 8.633,8.633 8.939,8.017 9.094 C 7.668 9.182,7.464 9.202,6.576 9.236 C 5.843 9.264,5.759 9.274,5.627 9.356 C 5.336 9.536,5.213 9.830,5.286 10.173 C 5.343 10.435,5.561 10.657,5.815 10.711 C 6.024 10.755,7.405 10.709,7.880 10.641 C 9.510 10.409,10.409 9.510,10.641 7.880 C 10.707 7.419,10.756 6.019,10.713 5.828 C 10.624 5.434,10.214 5.183,9.815 5.278 M13.826 5.286 C 13.625 5.331,13.468 5.445,13.353 5.631 C 13.264 5.773,13.260 5.810,13.270 6.440 C 13.289 7.749,13.415 8.483,13.728 9.118 C 13.860 9.385,13.967 9.530,14.218 9.782 C 14.896 10.459,15.747 10.700,17.560 10.729 C 18.155 10.738,18.187 10.734,18.359 10.639 C 18.833 10.376,18.859 9.702,18.408 9.383 C 18.243 9.267,18.241 9.267,17.432 9.236 C 16.536 9.202,16.333 9.182,15.983 9.094 C 15.551 8.985,15.265 8.791,15.068 8.472 C 14.890 8.185,14.761 7.353,14.759 6.486 C 14.758 5.947,14.714 5.712,14.580 5.536 C 14.419 5.325,14.109 5.222,13.826 5.286 M5.811 13.278 C 5.337 13.393,5.105 14.014,5.387 14.413 C 5.588 14.697,5.703 14.730,6.616 14.764 C 7.455 14.795,7.793 14.835,8.157 14.943 C 8.663 15.093,8.950 15.412,9.094 15.983 C 9.182 16.333,9.202 16.536,9.236 17.432 C 9.267 18.241,9.267 18.243,9.383 18.408 C 9.702 18.859,10.377 18.833,10.638 18.359 C 10.733 18.188,10.737 18.153,10.728 17.560 C 10.709 16.260,10.581 15.509,10.272 14.882 C 10.140 14.615,10.033 14.470,9.782 14.218 C 9.112 13.548,8.344 13.325,6.500 13.265 C 6.192 13.255,5.882 13.261,5.811 13.278 M17.017 13.283 C 15.595 13.350,14.827 13.607,14.217 14.217 C 13.585 14.849,13.356 15.565,13.281 17.148 C 13.234 18.133,13.257 18.297,13.480 18.520 C 13.831 18.871,14.451 18.773,14.661 18.332 C 14.720 18.209,14.740 18.026,14.764 17.380 C 14.814 16.047,14.913 15.640,15.277 15.277 C 15.640 14.913,16.047 14.814,17.380 14.764 C 18.026 14.740,18.209 14.720,18.332 14.661 C 18.633 14.518,18.787 14.174,18.711 13.817 C 18.634 13.455,18.273 13.227,17.808 13.246 C 17.727 13.249,17.371 13.266,17.017 13.283 " stroke="none" fill-rule="evenodd" fill="black"></path></svg>