<svg width="24" height="24" viewBox="0 0 24 24" fill="none" xmlns="http://www.w3.org/2000/svg"><path d="M8.960 1.280 C 6.960 1.332,5.848 1.469,4.900 1.779 C 3.060 2.382,1.958 3.688,1.563 5.734 C 1.311 7.042,1.267 7.973,1.267 12.000 C 1.267 16.027,1.311 16.958,1.563 18.266 C 2.013 20.599,3.401 21.987,5.734 22.437 C 7.034 22.688,7.987 22.733,12.000 22.733 C 16.013 22.733,16.966 22.688,18.266 22.437 C 20.599 21.987,21.987 20.599,22.437 18.266 C 22.688 16.966,22.733 16.013,22.733 12.000 C 22.733 7.987,22.688 7.034,22.437 5.734 C 22.098 3.977,21.228 2.756,19.825 2.068 C 18.978 1.652,17.875 1.425,16.200 1.321 C 15.315 1.266,10.534 1.239,8.960 1.280 M16.787 2.853 C 17.971 2.982,18.589 3.129,19.180 3.421 C 20.200 3.924,20.776 4.815,21.019 6.260 C 21.215 7.435,21.251 8.515,21.229 12.620 C 21.210 16.115,21.195 16.526,21.055 17.500 C 20.734 19.744,19.757 20.726,17.520 21.054 C 16.474 21.207,16.036 21.220,12.000 21.220 C 7.964 21.220,7.526 21.207,6.480 21.054 C 4.384 20.747,3.408 19.870,3.021 17.947 C 2.796 16.826,2.780 16.428,2.780 12.000 C 2.780 8.382,2.788 7.864,2.852 7.240 C 3.025 5.550,3.340 4.663,4.001 4.001 C 4.665 3.338,5.593 3.009,7.220 2.862 C 8.207 2.772,8.227 2.772,12.400 2.782 C 15.524 2.790,16.323 2.803,16.787 2.853 M9.815 5.278 C 9.640 5.320,9.462 5.455,9.356 5.627 C 9.274 5.759,9.264 5.843,9.236 6.576 C 9.202 7.464,9.182 7.668,9.094 8.018 C 8.939 8.633,8.633 8.939,8.017 9.094 C 7.668 9.182,7.464 9.202,6.576 9.236 C 5.843 9.264,5.759 9.274,5.627 9.356 C 5.336 9.536,5.213 9.830,5.286 10.173 C 5.343 10.435,5.561 10.657,5.815 10.711 C 6.024 10.755,7.405 10.709,7.880 10.641 C 9.510 10.409,10.409 9.510,10.641 7.880 C 10.707 7.419,10.756 6.019,10.713 5.828 C 10.624 5.434,10.214 5.183,9.815 5.278 M13.826 5.286 C 13.625 5.331,13.468 5.445,13.353 5.631 C 13.264 5.773,13.260 5.810,13.270 6.440 C 13.289 7.749,13.415 8.483,13.728 9.118 C 13.860 9.385,13.967 9.530,14.218 9.782 C 14.896 10.459,15.747 10.700,17.560 10.729 C 18.155 10.738,18.187 10.734,18.359 10.639 C 18.833 10.376,18.859 9.702,18.408 9.383 C 18.243 9.267,18.241 9.267,17.432 9.236 C 16.536 9.202,16.333 9.182,15.983 9.094 C 15.551 8.985,15.265 8.791,15.068 8.472 C 14.890 8.185,14.761 7.353,14.759 6.486 C 14.758 5.947,14.714 5.712,14.580 5.536 C 14.419 5.325,14.109 5.222,13.826 5.286 M5.811 13.278 C 5.337 13.393,5.105 14.014,5.387 14.413 C 5.588 14.697,5.703 14.730,6.616 14.764 C 7.455 14.795,7.793 14.835,8.157 14.943 C 8.663 15.093,8.950 15.412,9.094 15.983 C 9.182 16.333,9.202 16.536,9.236 17.432 C 9.267 18.241,9.267 18.243,9.383 18.408 C 9.702 18.859,10.377 18.833,10.638 18.359 C 10.733 18.188,10.737 18.153,10.728 17.560 C 10.709 16.260,10.581 15.509,10.272 14.882 C 10.140 14.615,10.033 14.470,9.782 14.218 C 9.112 13.548,8.344 13.325,6.500 13.265 C 6.192 13.255,5.882 13.261,5.811 13.278 M17.017 13.283 C 15.595 13.350,14.827 13.607,14.217 14.217 C 13.585 14.849,13.356 15.565,13.281 17.148 C 13.234 18.133,13.257 18.297,13.480 18.520 C 13.831 18.871,14.451 18.773,14.661 18.332 C 14.720 18.209,14.740 18.026,14.764 17.380 C 14.814 16.047,14.913 15.640,15.277 15.277 C 15.640 14.913,16.047 14.814,17.380 14.764 C 18.026 14.740,18.209 14.720,18.332 14.661 C 18.633 14.518,18.787 14.174,18.711 13.817 C 18.634 13.455,18.273 13.227,17.808 13.246 C 17.727 13.249,17.371 13.266,17.017 13.283 " stroke="none" fill-rule="evenodd" fill="black"></path></svg>