<svg width="24" height="24" viewBox="0 0 24 24" fill="none" xmlns="http://www.w3.org/2000/svg"><path d="M9.815 1.277 C 9.638 1.321,9.461 1.456,9.353 1.631 C 9.260 1.780,9.260 1.786,9.234 3.620 C 9.204 5.777,9.156 6.352,8.940 7.097 C 8.647 8.107,8.108 8.647,7.104 8.938 C 6.351 9.156,5.782 9.204,3.617 9.234 L 1.774 9.260 1.612 9.367 C 1.372 9.526,1.267 9.721,1.267 10.007 C 1.267 10.203,1.286 10.270,1.383 10.408 C 1.562 10.661,1.737 10.732,2.236 10.751 C 2.907 10.778,5.648 10.688,6.213 10.621 C 7.712 10.443,8.593 10.088,9.331 9.365 C 9.907 8.802,10.280 8.068,10.482 7.100 C 10.631 6.387,10.680 5.757,10.727 3.948 C 10.778 1.995,10.765 1.779,10.584 1.542 C 10.421 1.327,10.081 1.211,9.815 1.277 M13.815 1.278 C 13.639 1.320,13.462 1.455,13.354 1.629 C 13.233 1.826,13.219 2.280,13.275 4.220 C 13.331 6.130,13.424 6.937,13.680 7.719 C 14.099 9.003,14.961 9.879,16.221 10.302 C 17.066 10.585,17.836 10.670,20.080 10.726 C 22.180 10.779,22.269 10.771,22.519 10.521 C 22.918 10.122,22.731 9.423,22.189 9.286 C 22.067 9.256,21.545 9.240,20.652 9.240 C 18.659 9.240,17.663 9.160,16.901 8.939 C 15.580 8.556,15.036 7.751,14.836 5.880 C 14.812 5.649,14.780 4.641,14.765 3.640 C 14.741 1.972,14.733 1.807,14.664 1.668 C 14.573 1.484,14.396 1.343,14.180 1.284 C 14.003 1.236,13.993 1.236,13.815 1.278 M1.815 13.278 C 1.331 13.393,1.098 14.004,1.383 14.408 C 1.448 14.499,1.572 14.610,1.660 14.656 C 1.813 14.736,1.898 14.741,3.640 14.766 C 5.844 14.797,6.445 14.851,7.200 15.088 C 8.132 15.381,8.657 15.929,8.940 16.903 C 9.156 17.648,9.204 18.223,9.234 20.380 C 9.260 22.214,9.260 22.220,9.353 22.369 C 9.719 22.958,10.579 22.810,10.722 22.134 C 10.787 21.827,10.710 18.497,10.620 17.767 C 10.439 16.278,10.084 15.403,9.365 14.669 C 8.647 13.935,7.728 13.559,6.213 13.379 C 5.372 13.280,2.122 13.205,1.815 13.278 M19.420 13.282 C 18.310 13.313,17.804 13.357,17.096 13.481 C 15.321 13.792,14.190 14.718,13.680 16.281 C 13.424 17.063,13.331 17.870,13.275 19.780 C 13.219 21.720,13.233 22.174,13.354 22.371 C 13.663 22.870,14.409 22.848,14.664 22.332 C 14.733 22.193,14.741 22.028,14.765 20.360 C 14.780 19.359,14.812 18.351,14.836 18.120 C 15.080 15.833,15.833 15.080,18.120 14.836 C 18.351 14.812,19.359 14.780,20.360 14.765 C 22.028 14.741,22.193 14.733,22.332 14.664 C 22.928 14.370,22.832 13.448,22.189 13.286 C 21.988 13.236,21.124 13.235,19.420 13.282 " stroke="none" fill-rule="evenodd" fill="black"></path></svg>