<svg width="24" height="24" viewBox="0 0 24 24" fill="none" xmlns="http://www.w3.org/2000/svg"><path d="M11.540 1.267 C 9.904 1.347,8.273 1.795,6.926 2.533 C 6.448 2.795,6.342 2.948,6.367 3.337 C 6.386 3.642,6.520 3.848,6.775 3.963 C 7.054 4.090,7.164 4.066,7.879 3.723 C 9.400 2.994,10.596 2.733,12.240 2.772 C 13.675 2.806,14.800 3.079,16.066 3.699 C 17.936 4.614,19.388 6.069,20.300 7.940 C 20.951 9.275,21.240 10.516,21.240 11.979 C 21.240 14.133,20.541 16.134,19.206 17.800 C 17.688 19.694,15.435 20.923,12.962 21.203 C 12.414 21.265,11.025 21.230,10.540 21.141 C 9.525 20.956,8.802 20.722,7.940 20.302 C 6.051 19.380,4.628 17.956,3.700 16.060 C 3.050 14.729,2.760 13.485,2.760 12.021 C 2.760 10.278,3.198 8.690,4.087 7.210 C 4.251 6.937,4.303 6.880,4.385 6.880 C 4.458 6.880,5.422 7.638,7.931 9.670 C 9.825 11.205,11.445 12.512,11.529 12.575 C 11.850 12.813,12.249 12.791,12.520 12.520 C 12.792 12.248,12.812 11.808,12.566 11.526 C 12.381 11.313,5.392 5.687,5.158 5.562 C 4.691 5.313,4.117 5.313,3.612 5.561 C 3.301 5.714,3.129 5.908,2.771 6.509 C 2.187 7.489,1.757 8.579,1.505 9.720 C 1.179 11.192,1.178 12.748,1.502 14.282 C 1.945 16.382,3.159 18.504,4.720 19.908 C 7.919 22.786,12.292 23.532,16.240 21.872 C 17.557 21.319,18.995 20.300,19.927 19.260 C 21.446 17.564,22.361 15.580,22.664 13.320 C 22.756 12.638,22.757 11.347,22.666 10.687 C 22.427 8.946,21.884 7.478,20.965 6.090 C 20.428 5.280,19.871 4.620,19.260 4.073 C 17.382 2.391,15.158 1.450,12.660 1.282 C 12.330 1.259,11.997 1.244,11.920 1.248 C 11.843 1.252,11.672 1.260,11.540 1.267 " stroke="none" fill-rule="evenodd" fill="black"></path></svg>