<svg width="24" height="24" viewBox="0 0 24 24" fill="none" xmlns="http://www.w3.org/2000/svg"><path d="M11.160 1.286 C 9.834 1.386,8.493 1.757,7.254 2.365 C 6.504 2.733,6.343 2.900,6.347 3.301 C 6.350 3.620,6.508 3.852,6.809 3.978 C 7.072 4.088,7.221 4.059,7.720 3.805 C 8.644 3.332,9.584 3.023,10.620 2.853 C 11.304 2.740,12.803 2.751,13.493 2.874 C 14.847 3.115,16.060 3.593,17.120 4.301 C 18.951 5.524,20.324 7.415,20.900 9.507 C 21.159 10.446,21.217 10.904,21.217 12.000 C 21.217 13.097,21.160 13.550,20.899 14.503 C 19.926 18.052,16.861 20.692,13.148 21.178 C 12.546 21.257,11.463 21.258,10.852 21.180 C 8.952 20.936,7.129 20.088,5.740 18.801 C 4.183 17.358,3.212 15.535,2.854 13.380 C 2.741 12.699,2.751 11.200,2.874 10.507 C 3.092 9.280,3.461 8.273,4.068 7.250 C 4.248 6.947,4.305 6.880,4.384 6.880 C 4.477 6.880,4.577 6.955,5.829 7.972 L 6.319 8.369 6.244 8.475 C 6.203 8.533,6.080 8.760,5.970 8.980 C 4.687 11.541,5.153 14.606,7.137 16.673 C 8.768 18.372,11.201 19.105,13.480 18.583 C 16.755 17.833,19.020 14.762,18.726 11.470 C 18.426 8.100,15.838 5.534,12.484 5.279 C 11.484 5.203,10.124 5.409,9.667 5.706 C 9.272 5.962,9.263 6.600,9.650 6.895 C 9.882 7.072,10.048 7.083,10.561 6.955 C 10.812 6.892,11.171 6.820,11.358 6.795 C 11.774 6.739,12.667 6.773,13.060 6.858 C 15.134 7.310,16.699 8.885,17.149 10.972 C 17.248 11.431,17.248 12.569,17.149 13.028 C 16.709 15.069,15.235 16.597,13.211 17.110 C 12.810 17.212,12.724 17.220,11.980 17.217 C 11.217 17.215,11.159 17.209,10.720 17.092 C 9.539 16.776,8.529 16.106,7.816 15.164 C 7.483 14.725,7.075 13.901,6.944 13.400 C 6.614 12.143,6.723 10.895,7.263 9.765 L 7.480 9.310 7.650 9.448 C 7.743 9.523,8.624 10.236,9.607 11.031 C 10.590 11.827,11.478 12.536,11.579 12.608 C 11.736 12.719,11.800 12.739,11.993 12.739 C 12.273 12.739,12.451 12.644,12.619 12.406 C 12.718 12.264,12.739 12.196,12.738 12.008 C 12.738 11.854,12.712 11.736,12.659 11.645 C 12.541 11.443,5.455 5.707,5.133 5.553 C 4.504 5.253,3.808 5.338,3.293 5.778 C 3.105 5.939,2.818 6.370,2.501 6.969 C 0.295 11.137,1.066 16.264,4.401 19.599 C 6.072 21.270,8.185 22.312,10.620 22.666 C 11.284 22.762,12.716 22.762,13.380 22.666 C 15.811 22.313,17.910 21.278,19.590 19.606 C 23.281 15.931,23.795 10.134,20.810 5.845 C 19.328 3.715,17.079 2.177,14.550 1.564 C 13.405 1.287,12.326 1.198,11.160 1.286 " fill="#1C274C" stroke="none" fill-rule="evenodd"></path></svg>