<svg width="24" height="24" viewBox="0 0 24 24" fill="none" xmlns="http://www.w3.org/2000/svg"><path d="M14.780 1.296 C 14.692 1.325,12.721 2.244,10.400 3.338 L 6.180 5.327 5.743 5.383 C 4.250 5.571,3.403 5.916,2.669 6.635 C 1.936 7.352,1.566 8.252,1.377 9.780 C 1.273 10.617,1.219 13.798,1.273 15.890 C 1.321 17.727,1.361 18.284,1.497 19.011 C 1.809 20.677,2.744 21.806,4.221 22.302 C 5.354 22.682,6.645 22.758,12.000 22.758 C 17.355 22.758,18.646 22.682,19.779 22.302 C 21.016 21.886,21.886 21.016,22.302 19.779 C 22.588 18.925,22.670 18.167,22.728 15.850 C 22.781 13.693,22.727 10.639,22.621 9.767 C 22.436 8.262,22.060 7.348,21.331 6.635 C 20.491 5.812,19.475 5.461,17.520 5.317 C 17.176 5.292,15.343 5.260,13.406 5.246 L 9.911 5.220 12.586 3.965 C 14.057 3.275,15.325 2.668,15.405 2.618 C 15.615 2.484,15.731 2.276,15.734 2.025 C 15.742 1.509,15.258 1.139,14.780 1.296 M17.340 6.801 C 18.245 6.860,18.701 6.931,19.200 7.089 C 20.137 7.386,20.657 7.927,20.939 8.901 C 21.190 9.768,21.240 10.610,21.240 14.000 C 21.240 17.383,21.190 18.233,20.941 19.093 C 20.523 20.534,19.647 21.046,17.341 21.198 C 16.484 21.254,7.516 21.254,6.659 21.198 C 3.889 21.016,3.093 20.317,2.833 17.840 C 2.758 17.128,2.758 10.872,2.833 10.160 C 3.051 8.077,3.679 7.278,5.360 6.944 C 5.628 6.891,6.303 6.820,6.860 6.786 C 7.412 6.753,16.813 6.766,17.340 6.801 M6.660 8.278 C 5.776 8.385,5.027 8.901,4.568 9.720 C 4.168 10.434,4.168 11.566,4.568 12.280 C 4.951 12.964,5.541 13.441,6.260 13.648 L 6.580 13.740 12.000 13.740 L 17.420 13.740 17.740 13.648 C 18.662 13.382,19.395 12.647,19.643 11.740 C 19.764 11.299,19.764 10.701,19.643 10.260 C 19.398 9.364,18.675 8.632,17.760 8.353 L 17.460 8.262 12.180 8.256 C 9.276 8.252,6.792 8.263,6.660 8.278 M17.454 9.841 C 17.744 9.950,18.050 10.256,18.159 10.546 C 18.335 11.017,18.227 11.521,17.874 11.874 C 17.552 12.197,17.389 12.240,16.503 12.240 L 15.770 12.240 15.752 11.770 C 15.733 11.263,15.695 11.143,15.494 10.953 C 15.353 10.819,15.201 10.760,15.000 10.760 C 14.799 10.760,14.647 10.819,14.506 10.953 C 14.305 11.143,14.267 11.263,14.248 11.770 L 14.230 12.240 10.497 12.240 C 6.843 12.240,6.758 12.238,6.546 12.159 C 6.253 12.049,5.950 11.745,5.837 11.445 C 5.728 11.157,5.743 10.704,5.870 10.458 C 6.019 10.169,6.349 9.886,6.640 9.797 C 6.695 9.781,9.102 9.765,11.988 9.763 C 17.169 9.760,17.240 9.761,17.454 9.841 M6.951 14.822 C 6.231 14.997,5.581 15.606,5.356 16.317 C 5.240 16.684,5.240 17.316,5.356 17.683 C 5.580 18.391,6.247 19.009,6.970 19.180 C 7.478 19.300,8.059 19.233,8.517 19.002 C 9.007 18.754,9.481 18.200,9.644 17.683 C 9.760 17.316,9.760 16.684,9.644 16.317 C 9.420 15.609,8.753 14.991,8.030 14.820 C 7.722 14.747,7.256 14.748,6.951 14.822 M7.915 16.391 C 8.171 16.598,8.220 16.697,8.220 17.000 C 8.220 17.306,8.171 17.401,7.904 17.618 C 7.771 17.725,7.722 17.740,7.500 17.740 C 7.278 17.740,7.229 17.725,7.096 17.618 C 6.830 17.402,6.780 17.305,6.780 17.004 C 6.780 16.783,6.798 16.708,6.878 16.591 C 6.973 16.452,7.135 16.330,7.300 16.272 C 7.464 16.214,7.769 16.273,7.915 16.391 M12.815 16.278 C 12.331 16.393,12.098 17.004,12.383 17.408 C 12.447 17.499,12.572 17.610,12.660 17.656 C 12.817 17.738,12.873 17.740,15.377 17.751 C 17.157 17.759,17.999 17.749,18.150 17.718 C 18.902 17.562,18.931 16.473,18.189 16.286 C 17.980 16.234,13.032 16.226,12.815 16.278 " stroke="none" fill-rule="evenodd" fill="black"></path></svg>