<svg width="24" height="24" viewBox="0 0 24 24" fill="none" xmlns="http://www.w3.org/2000/svg"><path d="M11.255 1.282 C 7.352 1.544,3.856 3.964,2.229 7.531 C 1.586 8.941,1.268 10.418,1.268 12.000 C 1.268 13.189,1.420 14.186,1.764 15.263 C 2.869 18.719,5.639 21.387,9.114 22.344 C 13.278 23.490,17.617 22.100,20.365 18.740 C 21.217 17.699,21.966 16.253,22.334 14.940 C 23.392 11.169,22.337 7.123,19.580 4.380 C 17.722 2.531,15.297 1.451,12.620 1.281 C 11.929 1.237,11.918 1.237,11.255 1.282 M12.992 2.802 C 15.380 3.062,17.653 4.290,19.155 6.133 C 20.028 7.205,20.725 8.624,21.016 9.926 C 21.201 10.755,21.250 11.291,21.229 12.240 C 21.213 12.940,21.190 13.201,21.105 13.646 C 20.706 15.740,19.682 17.546,18.100 18.943 C 16.667 20.208,14.833 21.011,12.933 21.205 C 12.384 21.261,11.060 21.227,10.576 21.144 C 8.567 20.800,6.864 19.934,5.471 18.547 C 4.730 17.809,4.181 17.039,3.698 16.060 C 3.229 15.108,2.920 14.060,2.802 13.020 C 2.741 12.486,2.751 11.392,2.822 10.852 C 3.093 8.782,4.008 6.913,5.465 5.456 C 6.897 4.024,8.770 3.101,10.805 2.825 C 11.308 2.756,12.460 2.744,12.992 2.802 M9.458 5.073 C 9.028 5.274,8.880 5.775,9.137 6.162 C 9.453 6.640,10.237 6.559,10.437 6.027 C 10.669 5.416,10.038 4.801,9.458 5.073 M14.006 5.043 C 13.708 5.162,13.520 5.431,13.520 5.736 C 13.520 6.178,13.821 6.480,14.260 6.480 C 14.745 6.480,15.110 5.993,14.961 5.544 C 14.830 5.146,14.362 4.900,14.006 5.043 M9.429 8.042 C 8.924 8.126,8.410 8.518,8.192 8.984 C 7.776 9.875,8.119 10.879,8.988 11.308 C 9.255 11.440,9.331 11.459,9.655 11.473 C 10.216 11.497,10.606 11.352,10.979 10.979 C 11.352 10.606,11.497 10.216,11.473 9.655 C 11.459 9.331,11.440 9.255,11.308 8.988 C 11.059 8.485,10.586 8.126,10.058 8.039 C 9.790 7.995,9.701 7.996,9.429 8.042 M13.911 8.041 C 13.412 8.125,12.936 8.495,12.692 8.988 C 12.560 9.255,12.541 9.331,12.527 9.655 C 12.503 10.216,12.648 10.606,13.021 10.979 C 13.394 11.352,13.784 11.497,14.345 11.473 C 14.669 11.459,14.745 11.440,15.012 11.308 C 15.881 10.879,16.224 9.875,15.808 8.984 C 15.582 8.502,15.079 8.128,14.535 8.039 C 14.270 7.996,14.180 7.996,13.911 8.041 M5.458 9.073 C 5.028 9.274,4.880 9.775,5.137 10.162 C 5.453 10.640,6.237 10.559,6.437 10.027 C 6.669 9.416,6.038 8.801,5.458 9.073 M10.060 9.076 C 10.281 9.177,10.402 9.322,10.462 9.554 C 10.514 9.754,10.495 9.942,10.408 10.105 C 10.339 10.234,10.091 10.436,9.969 10.463 C 9.909 10.476,9.838 10.493,9.812 10.501 C 9.717 10.530,9.355 10.410,9.253 10.315 C 9.196 10.263,9.116 10.148,9.076 10.060 C 8.785 9.430,9.430 8.785,10.060 9.076 M14.531 9.055 C 14.688 9.123,14.900 9.340,14.958 9.493 C 15.055 9.752,14.962 10.118,14.747 10.315 C 14.645 10.410,14.283 10.530,14.188 10.501 C 14.162 10.493,14.091 10.476,14.031 10.463 C 13.893 10.433,13.656 10.227,13.572 10.065 C 13.491 9.908,13.490 9.573,13.570 9.419 C 13.749 9.076,14.190 8.909,14.531 9.055 M18.006 9.043 C 17.708 9.162,17.520 9.431,17.520 9.736 C 17.520 10.178,17.821 10.480,18.260 10.480 C 18.745 10.480,19.110 9.993,18.961 9.544 C 18.830 9.146,18.362 8.900,18.006 9.043 M9.219 12.592 C 8.391 12.878,7.904 13.664,8.035 14.504 C 8.154 15.269,8.731 15.846,9.496 15.965 C 10.244 16.082,10.968 15.701,11.308 15.012 C 11.440 14.745,11.459 14.669,11.473 14.345 C 11.484 14.085,11.470 13.915,11.423 13.756 C 11.266 13.216,10.798 12.745,10.257 12.581 C 9.989 12.499,9.471 12.505,9.219 12.592 M13.691 12.595 C 13.166 12.779,12.729 13.235,12.577 13.756 C 12.530 13.915,12.516 14.085,12.527 14.345 C 12.541 14.669,12.560 14.745,12.692 15.012 C 13.032 15.701,13.756 16.082,14.504 15.965 C 15.269 15.846,15.846 15.269,15.965 14.504 C 16.082 13.756,15.701 13.032,15.010 12.691 C 14.728 12.552,14.679 12.541,14.304 12.531 C 13.995 12.524,13.851 12.538,13.691 12.595 M10.084 13.583 C 10.228 13.656,10.434 13.899,10.463 14.031 C 10.476 14.091,10.493 14.162,10.501 14.188 C 10.530 14.283,10.410 14.645,10.315 14.747 C 10.118 14.962,9.752 15.055,9.493 14.958 C 9.340 14.900,9.123 14.688,9.055 14.531 C 8.896 14.160,9.145 13.617,9.513 13.536 C 9.572 13.524,9.638 13.507,9.660 13.500 C 9.725 13.478,9.972 13.527,10.084 13.583 M14.464 13.539 C 14.688 13.605,14.846 13.749,14.938 13.969 C 15.057 14.255,15.006 14.524,14.788 14.755 C 14.559 14.996,14.265 15.062,13.969 14.938 C 13.666 14.811,13.509 14.578,13.509 14.257 C 13.509 13.846,13.772 13.569,14.243 13.484 C 14.255 13.482,14.355 13.507,14.464 13.539 M5.390 13.603 C 5.204 13.701,5.040 13.941,5.011 14.157 C 4.950 14.612,5.390 15.049,5.848 14.988 C 6.430 14.910,6.690 14.176,6.287 13.745 C 6.070 13.513,5.678 13.451,5.390 13.603 M17.940 13.577 C 17.874 13.606,17.772 13.682,17.713 13.745 C 17.408 14.071,17.469 14.620,17.838 14.863 C 18.507 15.306,19.306 14.507,18.863 13.838 C 18.677 13.556,18.254 13.437,17.940 13.577 M9.660 17.500 C 9.638 17.507,9.572 17.524,9.513 17.536 C 9.358 17.571,9.160 17.752,9.075 17.938 C 8.743 18.669,9.627 19.330,10.242 18.812 C 10.414 18.668,10.491 18.494,10.491 18.254 C 10.491 17.877,10.221 17.567,9.840 17.508 C 9.763 17.496,9.682 17.492,9.660 17.500 M14.094 17.518 C 13.745 17.601,13.509 17.899,13.509 18.257 C 13.509 18.494,13.587 18.668,13.758 18.812 C 14.132 19.127,14.709 19.017,14.915 18.590 C 15.191 18.020,14.697 17.375,14.094 17.518 " stroke="none" fill-rule="evenodd" fill="black"></path></svg>