<svg width="24" height="24" viewBox="0 0 24 24" fill="none" xmlns="http://www.w3.org/2000/svg"><path d="M14.780 1.296 C 14.692 1.325,12.721 2.244,10.400 3.338 L 6.180 5.327 5.743 5.383 C 4.250 5.571,3.403 5.916,2.669 6.635 C 1.936 7.352,1.566 8.252,1.377 9.780 C 1.273 10.617,1.219 13.798,1.273 15.890 C 1.321 17.727,1.361 18.284,1.497 19.011 C 1.809 20.677,2.744 21.806,4.221 22.302 C 5.354 22.682,6.645 22.758,12.000 22.758 C 17.355 22.758,18.646 22.682,19.779 22.302 C 21.016 21.886,21.886 21.016,22.302 19.779 C 22.588 18.925,22.670 18.167,22.728 15.850 C 22.781 13.693,22.727 10.639,22.621 9.767 C 22.436 8.262,22.060 7.348,21.331 6.635 C 20.491 5.812,19.475 5.461,17.520 5.317 C 17.176 5.292,15.343 5.260,13.406 5.246 L 9.911 5.220 12.586 3.965 C 14.057 3.275,15.325 2.668,15.405 2.618 C 15.615 2.484,15.731 2.276,15.734 2.025 C 15.742 1.509,15.258 1.139,14.780 1.296 M17.340 6.801 C 18.245 6.860,18.701 6.931,19.200 7.089 C 20.137 7.386,20.657 7.927,20.939 8.901 C 21.190 9.768,21.240 10.610,21.240 14.000 C 21.240 17.383,21.190 18.233,20.941 19.093 C 20.523 20.534,19.647 21.046,17.341 21.198 C 16.484 21.254,7.516 21.254,6.659 21.198 C 3.889 21.016,3.093 20.317,2.833 17.840 C 2.758 17.128,2.758 10.872,2.833 10.160 C 3.051 8.077,3.679 7.278,5.360 6.944 C 5.628 6.891,6.303 6.820,6.860 6.786 C 7.412 6.753,16.813 6.766,17.340 6.801 M7.740 10.266 C 6.415 10.385,5.327 11.085,4.719 12.212 C 4.400 12.803,4.271 13.320,4.271 14.000 C 4.271 14.682,4.400 15.197,4.721 15.792 C 5.078 16.453,5.549 16.923,6.212 17.281 C 6.803 17.600,7.320 17.729,8.000 17.729 C 8.680 17.729,9.197 17.600,9.788 17.281 C 10.451 16.923,10.922 16.453,11.279 15.792 C 11.600 15.197,11.729 14.682,11.729 14.000 C 11.729 13.320,11.600 12.803,11.281 12.212 C 10.832 11.381,10.122 10.779,9.215 10.463 C 8.793 10.316,8.149 10.230,7.740 10.266 M13.420 10.260 C 13.398 10.267,13.331 10.284,13.271 10.297 C 13.124 10.329,12.881 10.548,12.814 10.708 C 12.703 10.973,12.759 11.289,12.953 11.494 C 13.198 11.753,13.019 11.739,16.117 11.751 C 18.086 11.759,19.000 11.749,19.151 11.718 C 19.902 11.562,19.931 10.473,19.189 10.286 C 19.057 10.253,18.211 10.241,16.232 10.243 C 14.708 10.245,13.442 10.252,13.420 10.260 M8.578 11.821 C 8.949 11.918,9.274 12.112,9.581 12.419 C 10.041 12.879,10.240 13.356,10.240 14.000 C 10.240 14.644,10.041 15.121,9.581 15.581 C 9.121 16.041,8.644 16.240,8.000 16.240 C 7.356 16.240,6.879 16.041,6.419 15.581 C 5.959 15.121,5.760 14.644,5.760 14.000 C 5.760 13.356,5.959 12.879,6.419 12.419 C 6.719 12.118,7.050 11.919,7.404 11.823 C 7.692 11.746,8.285 11.745,8.578 11.821 M13.420 13.260 C 13.398 13.267,13.331 13.284,13.271 13.297 C 13.124 13.329,12.881 13.548,12.814 13.708 C 12.703 13.973,12.759 14.289,12.953 14.494 C 13.198 14.753,13.019 14.739,16.117 14.751 C 18.086 14.759,19.000 14.749,19.151 14.718 C 19.902 14.562,19.931 13.473,19.189 13.286 C 19.057 13.253,18.211 13.241,16.232 13.243 C 14.708 13.245,13.442 13.252,13.420 13.260 M13.420 16.260 C 13.398 16.267,13.331 16.284,13.271 16.297 C 13.124 16.329,12.881 16.548,12.814 16.708 C 12.703 16.973,12.759 17.289,12.953 17.494 C 13.198 17.753,13.019 17.739,16.117 17.751 C 18.086 17.759,19.000 17.749,19.151 17.718 C 19.902 17.562,19.931 16.473,19.189 16.286 C 19.057 16.253,18.211 16.241,16.232 16.243 C 14.708 16.245,13.442 16.252,13.420 16.260 " stroke="none" fill-rule="evenodd" fill="black"></path></svg>