<svg width="24" height="24" viewBox="0 0 24 24" fill="none" xmlns="http://www.w3.org/2000/svg"><path d="M11.820 1.280 C 11.334 1.355,11.063 1.648,10.416 2.795 C 10.343 2.926,10.319 2.935,9.735 3.082 C 9.403 3.165,9.054 3.272,8.961 3.319 C 8.528 3.540,8.266 3.941,8.272 4.373 C 8.279 4.817,8.430 5.105,9.029 5.811 L 9.327 6.162 9.278 6.745 C 9.197 7.709,9.272 8.077,9.617 8.422 C 9.845 8.650,10.079 8.739,10.424 8.731 C 10.710 8.725,10.906 8.666,11.490 8.412 L 12.000 8.190 12.510 8.412 C 13.094 8.666,13.290 8.725,13.576 8.731 C 13.921 8.739,14.155 8.650,14.383 8.422 C 14.728 8.077,14.803 7.709,14.722 6.745 L 14.673 6.162 14.971 5.811 C 15.570 5.105,15.721 4.817,15.728 4.373 C 15.734 3.941,15.472 3.540,15.039 3.319 C 14.946 3.272,14.597 3.165,14.265 3.082 C 13.681 2.935,13.657 2.926,13.584 2.795 C 13.049 1.847,12.794 1.520,12.471 1.371 C 12.270 1.277,12.043 1.246,11.820 1.280 M12.239 3.450 C 12.637 4.149,12.769 4.249,13.551 4.441 C 13.801 4.502,14.014 4.561,14.024 4.571 C 14.034 4.580,13.894 4.766,13.714 4.984 C 13.534 5.202,13.342 5.478,13.287 5.597 C 13.191 5.807,13.189 5.831,13.213 6.447 C 13.229 6.860,13.224 7.080,13.198 7.080 C 13.176 7.080,13.053 7.027,12.925 6.962 C 12.577 6.787,12.227 6.680,12.000 6.680 C 11.773 6.680,11.423 6.787,11.075 6.962 C 10.947 7.027,10.824 7.080,10.802 7.080 C 10.776 7.080,10.771 6.860,10.787 6.447 C 10.811 5.831,10.809 5.807,10.713 5.597 C 10.658 5.478,10.466 5.202,10.286 4.984 C 10.106 4.766,9.966 4.580,9.976 4.571 C 9.986 4.561,10.199 4.502,10.449 4.441 C 11.236 4.248,11.368 4.146,11.782 3.410 C 11.884 3.229,11.981 3.080,11.998 3.080 C 12.015 3.080,12.123 3.246,12.239 3.450 M9.800 9.279 C 9.481 9.296,9.130 9.331,9.020 9.357 C 8.049 9.582,7.536 10.125,7.335 11.140 C 7.281 11.411,7.269 11.986,7.252 14.930 C 7.241 16.838,7.225 18.400,7.216 18.400 C 7.207 18.400,7.034 18.370,6.830 18.334 C 6.354 18.249,3.769 18.237,3.260 18.317 C 2.099 18.501,1.492 19.104,1.323 20.240 C 1.299 20.405,1.275 20.919,1.269 21.382 L 1.260 22.225 1.367 22.387 C 1.526 22.628,1.721 22.733,2.007 22.733 C 2.203 22.733,2.270 22.714,2.408 22.617 C 2.707 22.405,2.734 22.305,2.765 21.280 C 2.794 20.334,2.828 20.128,2.979 19.978 C 3.162 19.795,3.311 19.780,5.000 19.780 C 6.689 19.780,6.838 19.795,7.021 19.978 C 7.174 20.131,7.207 20.335,7.235 21.300 C 7.263 22.281,7.277 22.353,7.487 22.548 C 7.609 22.663,7.845 22.760,8.000 22.760 C 8.255 22.760,8.540 22.582,8.674 22.340 C 8.734 22.231,8.742 21.744,8.761 16.800 C 8.784 11.014,8.777 11.179,8.979 10.978 C 9.172 10.785,9.243 10.780,12.000 10.780 C 14.757 10.780,14.828 10.785,15.021 10.978 C 15.223 11.179,15.216 11.014,15.239 16.800 C 15.258 21.744,15.266 22.231,15.326 22.340 C 15.460 22.582,15.745 22.760,16.000 22.760 C 16.155 22.760,16.391 22.663,16.513 22.548 C 16.747 22.330,16.738 22.430,16.762 19.800 C 16.786 17.237,16.792 17.165,16.979 16.978 C 17.162 16.795,17.311 16.780,19.000 16.780 C 20.689 16.780,20.838 16.795,21.021 16.978 C 21.208 17.164,21.213 17.238,21.237 19.803 L 21.260 22.226 21.367 22.388 C 21.526 22.628,21.721 22.733,22.007 22.733 C 22.203 22.733,22.270 22.714,22.408 22.617 C 22.499 22.553,22.610 22.428,22.656 22.340 C 22.738 22.183,22.740 22.137,22.738 19.900 C 22.736 17.507,22.717 17.184,22.553 16.709 C 22.274 15.902,21.713 15.471,20.740 15.317 C 20.231 15.237,17.646 15.249,17.170 15.334 C 16.966 15.370,16.794 15.400,16.786 15.400 C 16.778 15.400,16.761 14.523,16.749 13.450 C 16.731 11.937,16.712 11.424,16.664 11.160 C 16.467 10.084,15.917 9.534,14.840 9.336 C 14.567 9.286,14.094 9.271,12.440 9.260 C 11.307 9.253,10.119 9.261,9.800 9.279 " stroke="none" fill-rule="evenodd" fill="black"></path></svg>