<svg width="24" height="24" viewBox="0 0 24 24" fill="none" xmlns="http://www.w3.org/2000/svg"><path d="M8.960 1.280 C 6.960 1.332,5.848 1.469,4.900 1.779 C 3.060 2.382,1.958 3.688,1.563 5.734 C 1.311 7.042,1.267 7.973,1.267 12.000 C 1.267 16.027,1.311 16.958,1.563 18.266 C 2.013 20.599,3.401 21.987,5.734 22.437 C 7.034 22.688,7.987 22.733,12.000 22.733 C 16.013 22.733,16.966 22.688,18.266 22.437 C 20.599 21.987,21.987 20.599,22.437 18.266 C 22.688 16.966,22.733 16.013,22.733 12.000 C 22.733 7.987,22.688 7.034,22.437 5.734 C 22.098 3.977,21.228 2.756,19.825 2.068 C 18.978 1.652,17.875 1.425,16.200 1.321 C 15.315 1.266,10.534 1.239,8.960 1.280 M16.787 2.853 C 17.971 2.982,18.589 3.129,19.180 3.421 C 20.200 3.924,20.776 4.815,21.019 6.260 C 21.215 7.435,21.251 8.515,21.229 12.620 C 21.210 16.115,21.195 16.526,21.055 17.500 C 20.734 19.744,19.757 20.726,17.520 21.054 C 16.474 21.207,16.036 21.220,12.000 21.220 C 7.964 21.220,7.526 21.207,6.480 21.054 C 4.384 20.747,3.408 19.870,3.021 17.947 C 2.796 16.826,2.780 16.428,2.780 12.000 C 2.780 8.382,2.788 7.864,2.852 7.240 C 3.025 5.550,3.340 4.663,4.001 4.001 C 4.665 3.338,5.593 3.009,7.220 2.862 C 8.207 2.772,8.227 2.772,12.400 2.782 C 15.524 2.790,16.323 2.803,16.787 2.853 M16.815 7.277 C 16.638 7.321,16.461 7.456,16.353 7.631 L 16.260 7.780 16.260 12.000 L 16.260 16.220 16.353 16.369 C 16.710 16.943,17.576 16.812,17.716 16.162 C 17.775 15.885,17.776 8.098,17.717 7.841 C 17.623 7.432,17.215 7.177,16.815 7.277 M10.815 8.277 C 10.639 8.320,10.461 8.456,10.356 8.626 C 10.253 8.793,10.233 9.155,10.318 9.320 C 10.347 9.375,10.776 9.829,11.272 10.329 L 12.175 11.237 9.478 11.249 L 6.780 11.260 6.627 11.355 C 6.385 11.506,6.267 11.718,6.267 12.003 C 6.267 12.203,6.286 12.270,6.383 12.408 C 6.447 12.499,6.572 12.610,6.660 12.656 C 6.817 12.738,6.871 12.740,9.497 12.751 L 12.175 12.763 11.272 13.671 C 10.776 14.171,10.347 14.625,10.318 14.680 C 10.290 14.735,10.267 14.884,10.267 15.011 C 10.267 15.202,10.287 15.271,10.383 15.408 C 10.447 15.499,10.568 15.608,10.651 15.651 C 10.837 15.747,11.139 15.753,11.326 15.664 C 11.402 15.628,12.181 14.879,13.068 13.989 C 14.596 12.456,14.673 12.371,14.711 12.190 C 14.737 12.065,14.737 11.935,14.711 11.810 C 14.673 11.629,14.596 11.544,13.068 10.011 C 12.185 9.126,11.409 8.376,11.342 8.344 C 11.176 8.266,10.966 8.239,10.815 8.277 " stroke="none" fill-rule="evenodd" fill="black"></path></svg>