<svg width="24" height="24" viewBox="0 0 24 24" fill="none" xmlns="http://www.w3.org/2000/svg"><path d="M8.960 1.280 C 6.960 1.332,5.848 1.469,4.900 1.779 C 3.060 2.382,1.958 3.688,1.563 5.734 C 1.311 7.042,1.267 7.973,1.267 12.000 C 1.267 16.027,1.311 16.958,1.563 18.266 C 2.013 20.599,3.401 21.987,5.734 22.437 C 7.034 22.688,7.987 22.733,12.000 22.733 C 16.013 22.733,16.966 22.688,18.266 22.437 C 20.599 21.987,21.987 20.599,22.437 18.266 C 22.688 16.966,22.733 16.013,22.733 12.000 C 22.733 7.987,22.688 7.034,22.437 5.734 C 22.098 3.977,21.228 2.756,19.825 2.068 C 18.978 1.652,17.875 1.425,16.200 1.321 C 15.315 1.266,10.534 1.239,8.960 1.280 M16.787 2.853 C 17.971 2.982,18.589 3.129,19.180 3.421 C 20.200 3.924,20.776 4.815,21.019 6.260 C 21.215 7.435,21.251 8.515,21.229 12.620 C 21.210 16.115,21.195 16.526,21.055 17.500 C 20.734 19.744,19.757 20.726,17.520 21.054 C 16.474 21.207,16.036 21.220,12.000 21.220 C 7.964 21.220,7.526 21.207,6.480 21.054 C 4.384 20.747,3.408 19.870,3.021 17.947 C 2.796 16.826,2.780 16.428,2.780 12.000 C 2.780 8.382,2.788 7.864,2.852 7.240 C 3.025 5.550,3.340 4.663,4.001 4.001 C 4.665 3.338,5.593 3.009,7.220 2.862 C 8.207 2.772,8.227 2.772,12.400 2.782 C 15.524 2.790,16.323 2.803,16.787 2.853 M10.801 5.286 C 10.474 5.382,10.270 5.644,10.267 5.974 C 10.263 6.328,10.338 6.423,11.166 7.111 L 11.922 7.740 9.331 7.760 C 7.465 7.774,6.718 7.793,6.660 7.827 C 6.554 7.888,6.382 8.075,6.319 8.198 C 6.291 8.252,6.269 8.388,6.269 8.500 C 6.269 8.612,6.291 8.748,6.319 8.802 C 6.382 8.925,6.554 9.112,6.660 9.173 C 6.718 9.207,7.465 9.226,9.331 9.240 L 11.923 9.260 11.183 9.874 C 10.777 10.212,10.417 10.528,10.385 10.578 C 10.107 11.003,10.329 11.592,10.813 11.714 C 11.069 11.778,11.276 11.724,11.531 11.525 C 12.197 11.005,14.552 8.999,14.625 8.891 C 14.794 8.637,14.780 8.298,14.592 8.059 C 14.500 7.942,11.461 5.395,11.334 5.328 C 11.211 5.264,10.948 5.243,10.801 5.286 M16.826 5.286 C 16.625 5.331,16.468 5.445,16.353 5.631 L 16.260 5.780 16.260 12.000 L 16.260 18.220 16.353 18.369 C 16.713 18.949,17.575 18.818,17.716 18.162 C 17.776 17.883,17.777 6.100,17.717 5.841 C 17.622 5.428,17.243 5.192,16.826 5.286 M10.801 12.286 C 10.474 12.382,10.270 12.644,10.267 12.974 C 10.263 13.328,10.338 13.423,11.166 14.111 L 11.922 14.740 9.331 14.760 C 7.465 14.774,6.718 14.793,6.660 14.827 C 6.554 14.888,6.382 15.075,6.319 15.198 C 6.291 15.252,6.269 15.388,6.269 15.500 C 6.269 15.612,6.291 15.748,6.319 15.802 C 6.382 15.925,6.554 16.112,6.660 16.173 C 6.718 16.207,7.465 16.226,9.331 16.240 L 11.922 16.260 11.166 16.889 C 10.335 17.580,10.263 17.671,10.267 18.033 C 10.271 18.432,10.603 18.740,11.021 18.734 C 11.133 18.733,11.265 18.709,11.316 18.682 C 11.458 18.606,14.493 16.067,14.592 15.941 C 14.780 15.702,14.794 15.363,14.625 15.109 C 14.542 14.984,11.623 12.515,11.380 12.363 C 11.226 12.267,10.978 12.234,10.801 12.286 " stroke="none" fill-rule="evenodd" fill="black"></path></svg>