<svg width="24" height="24" viewBox="0 0 24 24" fill="none" xmlns="http://www.w3.org/2000/svg"><path d="M11.320 1.281 C 7.041 1.525,3.252 4.409,1.843 8.497 C 1.180 10.418,1.082 12.560,1.564 14.550 C 2.505 18.428,5.572 21.495,9.450 22.436 C 11.110 22.838,12.890 22.838,14.550 22.436 C 18.428 21.495,21.495 18.428,22.436 14.550 C 22.837 12.894,22.837 11.106,22.436 9.450 C 21.425 5.282,17.985 2.095,13.742 1.398 C 13.334 1.331,12.074 1.229,11.880 1.247 C 11.847 1.250,11.595 1.265,11.320 1.281 M13.146 2.822 C 14.202 2.960,15.123 3.237,16.066 3.699 C 18.871 5.073,20.769 7.728,21.178 10.854 C 21.258 11.459,21.258 12.541,21.178 13.146 C 20.769 16.271,18.870 18.928,16.066 20.301 C 14.761 20.941,13.464 21.240,12.000 21.240 C 10.538 21.240,9.236 20.940,7.940 20.304 C 5.123 18.921,3.232 16.278,2.822 13.146 C 2.699 12.214,2.756 10.974,2.966 10.002 C 3.177 9.020,3.703 7.775,4.268 6.920 C 5.750 4.677,8.131 3.188,10.820 2.823 C 11.380 2.746,12.569 2.746,13.146 2.822 M7.405 8.805 C 6.790 8.907,6.216 9.217,5.716 9.716 C 5.065 10.368,4.761 11.095,4.761 12.000 C 4.761 12.905,5.065 13.632,5.716 14.284 C 6.230 14.797,6.786 15.092,7.440 15.197 C 7.798 15.255,16.202 15.255,16.560 15.197 C 17.214 15.092,17.770 14.797,18.284 14.284 C 18.935 13.632,19.239 12.905,19.239 12.000 C 19.239 11.095,18.935 10.368,18.284 9.716 C 17.632 9.065,16.905 8.761,16.000 8.761 C 15.095 8.761,14.368 9.065,13.716 9.716 C 13.013 10.420,12.717 11.200,12.774 12.200 C 12.802 12.703,12.876 12.998,13.073 13.400 C 13.154 13.565,13.226 13.713,13.233 13.730 C 13.241 13.747,12.686 13.760,12.000 13.760 C 11.314 13.760,10.759 13.747,10.767 13.730 C 10.774 13.713,10.846 13.565,10.927 13.400 C 11.124 12.998,11.198 12.703,11.226 12.200 C 11.283 11.200,10.987 10.420,10.284 9.716 C 9.619 9.052,8.889 8.753,7.960 8.765 C 7.773 8.767,7.523 8.785,7.405 8.805 M8.293 10.279 C 8.634 10.335,8.931 10.487,9.202 10.745 C 9.929 11.439,9.929 12.561,9.202 13.255 C 8.913 13.530,8.612 13.676,8.231 13.724 C 7.672 13.794,7.202 13.640,6.798 13.255 C 6.090 12.580,6.068 11.508,6.745 10.798 C 7.164 10.359,7.696 10.181,8.293 10.279 M16.293 10.279 C 16.634 10.335,16.931 10.487,17.202 10.745 C 17.929 11.439,17.929 12.561,17.202 13.255 C 16.798 13.640,16.328 13.794,15.769 13.724 C 15.388 13.676,15.087 13.530,14.798 13.255 C 14.090 12.580,14.068 11.508,14.745 10.798 C 15.164 10.359,15.696 10.181,16.293 10.279 " stroke="none" fill-rule="evenodd" fill="black"></path></svg>