<svg width="24" height="24" viewBox="0 0 24 24" fill="none" xmlns="http://www.w3.org/2000/svg"><path d="M11.320 1.281 C 7.041 1.525,3.252 4.409,1.843 8.497 C 1.180 10.418,1.082 12.560,1.564 14.550 C 2.505 18.428,5.572 21.495,9.450 22.436 C 11.106 22.837,12.894 22.837,14.550 22.436 C 18.428 21.495,21.495 18.428,22.436 14.550 C 22.837 12.894,22.837 11.106,22.436 9.450 C 21.425 5.282,17.985 2.095,13.742 1.398 C 13.334 1.331,12.074 1.229,11.880 1.247 C 11.847 1.250,11.595 1.265,11.320 1.281 M13.146 2.822 C 14.201 2.960,15.125 3.237,16.060 3.696 C 18.877 5.079,20.768 7.722,21.178 10.854 C 21.301 11.786,21.244 13.026,21.034 13.998 C 20.745 15.343,20.003 16.855,19.121 17.900 C 18.247 18.935,17.240 19.726,16.060 20.304 C 14.761 20.940,13.462 21.240,12.000 21.240 C 10.538 21.240,9.236 20.940,7.940 20.304 C 5.123 18.921,3.232 16.278,2.822 13.146 C 2.699 12.214,2.756 10.974,2.966 10.002 C 3.177 9.020,3.703 7.775,4.268 6.920 C 5.750 4.677,8.131 3.188,10.820 2.823 C 11.380 2.746,12.569 2.746,13.146 2.822 M10.520 7.282 C 10.135 7.298,9.703 7.332,9.560 7.357 C 8.180 7.604,7.481 8.387,7.323 9.860 C 7.217 10.849,7.241 13.803,7.361 14.460 C 7.586 15.703,8.281 16.404,9.520 16.638 C 9.986 16.725,11.946 16.773,13.130 16.725 C 14.337 16.676,14.527 16.653,15.008 16.496 C 15.891 16.207,16.440 15.528,16.638 14.480 C 16.724 14.020,16.772 12.020,16.724 10.851 C 16.676 9.663,16.652 9.471,16.496 8.992 C 16.205 8.102,15.519 7.553,14.460 7.360 C 13.912 7.261,11.967 7.222,10.520 7.282 M14.260 8.835 C 14.370 8.860,14.559 8.930,14.679 8.991 C 14.863 9.084,14.916 9.137,15.009 9.321 C 15.208 9.713,15.220 9.861,15.220 12.000 C 15.220 14.139,15.208 14.287,15.009 14.679 C 14.916 14.863,14.863 14.916,14.679 15.009 C 14.287 15.208,14.139 15.220,12.000 15.220 C 9.861 15.220,9.713 15.208,9.321 15.009 C 9.137 14.916,9.084 14.863,8.991 14.679 C 8.930 14.559,8.860 14.370,8.835 14.260 C 8.770 13.968,8.741 10.655,8.798 10.107 C 8.850 9.610,8.955 9.291,9.123 9.123 C 9.276 8.971,9.601 8.851,9.989 8.804 C 10.423 8.752,14.005 8.778,14.260 8.835 " stroke="none" fill-rule="evenodd" fill="black"></path></svg>