<svg width="24" height="24" viewBox="0 0 24 24" fill="none" xmlns="http://www.w3.org/2000/svg"><path d="M5.579 7.280 C 3.750 7.440,2.200 8.632,1.540 10.384 C 1.181 11.339,1.182 12.664,1.543 13.624 C 2.140 15.213,3.457 16.327,5.140 16.667 C 5.479 16.736,5.874 16.740,12.000 16.740 C 18.126 16.740,18.521 16.736,18.860 16.667 C 20.543 16.327,21.860 15.213,22.457 13.624 C 22.818 12.664,22.819 11.339,22.460 10.384 C 21.958 9.051,20.951 8.042,19.624 7.543 C 18.664 7.182,17.339 7.181,16.384 7.540 C 15.051 8.042,14.042 9.049,13.543 10.376 C 13.182 11.336,13.181 12.661,13.540 13.616 C 13.737 14.138,13.999 14.599,14.334 15.010 L 14.521 15.240 12.000 15.240 L 9.479 15.240 9.666 15.010 C 10.161 14.403,10.485 13.719,10.644 12.944 C 10.759 12.389,10.759 11.611,10.644 11.056 C 10.156 8.688,7.985 7.068,5.579 7.280 M6.980 8.894 C 7.508 9.068,7.854 9.286,8.284 9.716 C 8.712 10.143,8.928 10.485,9.108 11.020 C 9.209 11.316,9.217 11.389,9.217 12.000 C 9.217 12.611,9.209 12.684,9.108 12.980 C 8.928 13.515,8.712 13.857,8.284 14.284 C 7.857 14.712,7.515 14.928,6.980 15.108 C 6.684 15.209,6.611 15.217,6.000 15.217 C 5.389 15.217,5.316 15.209,5.020 15.108 C 4.485 14.928,4.143 14.712,3.716 14.284 C 3.288 13.857,3.072 13.515,2.892 12.980 C 2.791 12.684,2.783 12.611,2.783 12.000 C 2.783 11.389,2.791 11.316,2.892 11.020 C 3.072 10.485,3.288 10.143,3.716 9.716 C 4.433 8.999,5.066 8.750,6.100 8.775 C 6.572 8.787,6.710 8.806,6.980 8.894 M18.980 8.894 C 19.508 9.068,19.854 9.286,20.284 9.716 C 20.712 10.143,20.928 10.485,21.108 11.020 C 21.209 11.316,21.217 11.389,21.217 12.000 C 21.217 12.611,21.209 12.684,21.108 12.980 C 20.928 13.515,20.712 13.857,20.284 14.284 C 19.857 14.712,19.515 14.928,18.980 15.108 C 18.684 15.209,18.611 15.217,18.000 15.217 C 17.389 15.217,17.316 15.209,17.020 15.108 C 16.485 14.928,16.143 14.712,15.716 14.284 C 15.288 13.857,15.072 13.515,14.892 12.980 C 14.791 12.684,14.783 12.611,14.783 12.000 C 14.783 11.389,14.791 11.316,14.892 11.020 C 15.072 10.485,15.288 10.143,15.716 9.716 C 16.433 8.999,17.066 8.750,18.100 8.775 C 18.572 8.787,18.710 8.806,18.980 8.894 " stroke="none" fill-rule="evenodd" fill="black"></path></svg>