<svg width="24" height="24" viewBox="0 0 24 24" fill="none" xmlns="http://www.w3.org/2000/svg"><path d="M10.238 1.399 C 8.018 1.773,5.993 2.817,4.405 4.405 C 3.484 5.326,2.678 6.493,2.184 7.621 C 0.230 12.082,1.445 17.222,5.180 20.299 C 7.780 22.441,11.257 23.234,14.550 22.436 C 18.752 21.417,21.990 17.884,22.617 13.635 C 22.712 12.996,22.702 12.811,22.565 12.595 C 22.315 12.201,21.724 12.145,21.415 12.486 C 21.274 12.642,21.246 12.728,21.162 13.278 C 20.995 14.368,20.764 15.116,20.302 16.060 C 19.580 17.539,18.494 18.781,17.117 19.703 C 16.571 20.069,15.635 20.533,14.999 20.753 C 13.453 21.287,11.647 21.389,10.002 21.034 C 8.667 20.747,7.178 20.022,6.140 19.153 C 5.066 18.254,4.293 17.276,3.696 16.060 C 3.060 14.764,2.760 13.462,2.760 12.000 C 2.760 10.522,3.050 9.266,3.700 7.934 C 4.603 6.083,6.080 4.607,7.940 3.698 C 8.885 3.236,9.632 3.005,10.726 2.838 C 11.322 2.746,11.446 2.692,11.618 2.447 C 11.847 2.120,11.749 1.653,11.405 1.435 C 11.248 1.335,11.188 1.320,10.942 1.324 C 10.787 1.326,10.470 1.359,10.238 1.399 M14.720 1.765 C 14.591 1.816,14.411 1.988,14.326 2.140 C 14.266 2.249,14.259 2.577,14.249 5.628 L 14.238 8.996 14.089 8.894 C 13.714 8.638,13.143 8.405,12.680 8.319 C 12.346 8.257,11.654 8.257,11.320 8.319 C 10.631 8.446,9.931 8.804,9.406 9.297 C 8.884 9.787,8.454 10.588,8.319 11.320 C 8.257 11.654,8.257 12.346,8.319 12.680 C 8.523 13.787,9.222 14.747,10.212 15.281 C 10.803 15.600,11.320 15.729,12.000 15.729 C 12.680 15.729,13.197 15.600,13.788 15.281 C 14.750 14.762,15.394 13.904,15.669 12.775 C 15.729 12.528,15.737 12.042,15.749 8.030 C 15.757 5.571,15.773 3.560,15.785 3.560 C 15.797 3.560,16.007 3.663,16.253 3.788 C 17.594 4.472,18.813 5.564,19.698 6.874 C 20.044 7.386,20.531 8.355,20.724 8.913 C 20.916 9.472,21.063 9.649,21.396 9.724 C 21.620 9.774,21.840 9.713,22.026 9.549 C 22.319 9.292,22.346 9.037,22.143 8.454 C 21.073 5.383,18.617 2.927,15.546 1.857 C 15.149 1.719,14.905 1.691,14.720 1.765 M12.578 9.821 C 12.949 9.918,13.274 10.112,13.581 10.419 C 14.041 10.879,14.240 11.356,14.240 12.000 C 14.240 12.644,14.041 13.121,13.581 13.581 C 13.121 14.041,12.644 14.240,12.000 14.240 C 11.356 14.240,10.879 14.041,10.419 13.581 C 9.959 13.121,9.760 12.644,9.760 12.000 C 9.760 11.356,9.959 10.879,10.419 10.419 C 10.719 10.118,11.050 9.919,11.404 9.823 C 11.692 9.746,12.285 9.745,12.578 9.821 " stroke="none" fill-rule="evenodd" fill="black"></path></svg>