<svg width="24" height="24" viewBox="0 0 24 24" fill="none" xmlns="http://www.w3.org/2000/svg"><path d="M9.020 1.278 C 7.735 1.310,7.475 1.326,6.649 1.423 C 4.782 1.643,3.569 2.183,2.728 3.171 C 1.841 4.212,1.475 5.425,1.314 7.860 C 1.249 8.841,1.249 15.159,1.314 16.140 C 1.431 17.905,1.649 18.970,2.068 19.825 C 2.756 21.228,3.977 22.098,5.734 22.437 C 7.034 22.688,7.987 22.733,12.000 22.733 C 16.013 22.733,16.966 22.688,18.266 22.437 C 20.599 21.987,21.987 20.599,22.437 18.266 C 22.688 16.968,22.732 16.015,22.733 12.000 C 22.733 7.987,22.688 7.034,22.437 5.734 C 22.098 3.977,21.228 2.756,19.825 2.068 C 18.972 1.650,17.855 1.421,16.180 1.321 C 15.276 1.267,10.579 1.239,9.020 1.278 M16.600 2.836 C 18.439 3.019,19.320 3.320,20.000 4.000 C 20.692 4.693,20.998 5.605,21.168 7.480 C 21.242 8.307,21.242 15.693,21.168 16.520 C 20.998 18.395,20.692 19.307,20.000 20.000 C 19.307 20.692,18.395 20.998,16.520 21.168 C 15.693 21.242,8.307 21.242,7.480 21.168 C 5.594 20.997,4.699 20.696,3.999 19.997 C 3.340 19.337,3.025 18.449,2.852 16.760 C 2.788 16.136,2.780 15.618,2.780 12.000 C 2.780 8.382,2.788 7.864,2.852 7.240 C 3.025 5.551,3.340 4.663,3.999 4.003 C 4.787 3.215,5.878 2.908,8.320 2.785 C 9.021 2.750,16.177 2.794,16.600 2.836 M7.405 8.805 C 6.790 8.907,6.216 9.217,5.716 9.716 C 5.065 10.368,4.761 11.095,4.761 12.000 C 4.761 12.905,5.065 13.632,5.716 14.284 C 6.230 14.797,6.786 15.092,7.440 15.197 C 7.798 15.255,16.202 15.255,16.560 15.197 C 17.214 15.092,17.770 14.797,18.284 14.284 C 18.935 13.632,19.239 12.905,19.239 12.000 C 19.239 11.095,18.935 10.368,18.284 9.716 C 17.632 9.065,16.905 8.761,16.000 8.761 C 15.095 8.761,14.368 9.065,13.716 9.716 C 13.013 10.420,12.717 11.200,12.774 12.200 C 12.802 12.703,12.876 12.998,13.073 13.400 C 13.154 13.565,13.226 13.713,13.233 13.730 C 13.241 13.747,12.686 13.760,12.000 13.760 C 11.314 13.760,10.759 13.747,10.767 13.730 C 10.774 13.713,10.846 13.565,10.927 13.400 C 11.124 12.998,11.198 12.703,11.226 12.200 C 11.283 11.200,10.987 10.420,10.284 9.716 C 9.619 9.052,8.889 8.753,7.960 8.765 C 7.773 8.767,7.523 8.785,7.405 8.805 M8.293 10.279 C 8.634 10.335,8.931 10.487,9.202 10.745 C 9.929 11.439,9.929 12.561,9.202 13.255 C 8.913 13.530,8.612 13.676,8.231 13.724 C 7.672 13.794,7.202 13.640,6.798 13.255 C 6.090 12.580,6.068 11.508,6.745 10.798 C 7.164 10.359,7.696 10.181,8.293 10.279 M16.293 10.279 C 16.634 10.335,16.931 10.487,17.202 10.745 C 17.929 11.439,17.929 12.561,17.202 13.255 C 16.798 13.640,16.328 13.794,15.769 13.724 C 15.388 13.676,15.087 13.530,14.798 13.255 C 14.090 12.580,14.068 11.508,14.745 10.798 C 15.164 10.359,15.696 10.181,16.293 10.279 " stroke="none" fill-rule="evenodd" fill="black"></path></svg>