<svg width="24" height="24" viewBox="0 0 24 24" fill="none" xmlns="http://www.w3.org/2000/svg"><path d="M11.320 1.281 C 7.041 1.525,3.252 4.409,1.843 8.497 C 1.180 10.418,1.082 12.560,1.564 14.550 C 2.505 18.428,5.572 21.495,9.450 22.436 C 10.121 22.599,10.629 22.672,11.403 22.719 C 12.343 22.776,21.894 22.773,22.162 22.716 C 22.904 22.557,22.924 21.471,22.189 21.286 C 22.060 21.254,21.328 21.240,19.755 21.240 L 17.506 21.240 17.963 20.935 C 19.910 19.634,21.396 17.710,22.157 15.503 C 22.819 13.585,22.918 11.437,22.436 9.450 C 21.425 5.282,17.985 2.095,13.742 1.398 C 13.334 1.331,12.074 1.229,11.880 1.247 C 11.847 1.250,11.595 1.265,11.320 1.281 M13.146 2.822 C 14.201 2.960,15.125 3.237,16.060 3.696 C 18.877 5.079,20.768 7.722,21.178 10.854 C 21.301 11.786,21.244 13.026,21.034 13.998 C 20.745 15.343,20.003 16.855,19.121 17.900 C 18.247 18.935,17.240 19.726,16.060 20.304 C 14.761 20.940,13.462 21.240,12.000 21.240 C 10.538 21.240,9.236 20.940,7.940 20.304 C 5.123 18.921,3.232 16.278,2.822 13.146 C 2.699 12.214,2.756 10.974,2.966 10.002 C 3.177 9.020,3.703 7.775,4.268 6.920 C 5.750 4.677,8.131 3.188,10.820 2.823 C 11.380 2.746,12.569 2.746,13.146 2.822 M11.617 4.577 C 11.434 4.656,11.207 4.871,11.109 5.056 C 10.988 5.285,10.988 5.715,11.109 5.944 C 11.209 6.134,11.437 6.346,11.626 6.425 C 11.795 6.496,12.205 6.496,12.374 6.425 C 12.563 6.346,12.791 6.134,12.891 5.944 C 12.956 5.821,12.978 5.710,12.978 5.500 C 12.978 5.290,12.956 5.179,12.891 5.056 C 12.791 4.866,12.563 4.654,12.374 4.575 C 12.208 4.505,11.778 4.506,11.617 4.577 M11.740 8.266 C 10.415 8.385,9.327 9.085,8.719 10.212 C 8.400 10.803,8.271 11.320,8.271 12.000 C 8.271 12.682,8.400 13.197,8.721 13.792 C 9.078 14.453,9.549 14.923,10.212 15.281 C 10.803 15.600,11.320 15.729,12.000 15.729 C 12.680 15.729,13.197 15.600,13.788 15.281 C 14.451 14.923,14.922 14.453,15.279 13.792 C 15.600 13.197,15.729 12.682,15.729 12.000 C 15.729 11.320,15.600 10.803,15.281 10.212 C 14.832 9.381,14.122 8.779,13.215 8.463 C 12.793 8.316,12.149 8.230,11.740 8.266 M12.578 9.821 C 12.949 9.918,13.274 10.112,13.581 10.419 C 14.041 10.879,14.240 11.356,14.240 12.000 C 14.240 12.644,14.041 13.121,13.581 13.581 C 13.121 14.041,12.644 14.240,12.000 14.240 C 11.356 14.240,10.879 14.041,10.419 13.581 C 9.959 13.121,9.760 12.644,9.760 12.000 C 9.760 11.356,9.959 10.879,10.419 10.419 C 10.719 10.118,11.050 9.919,11.404 9.823 C 11.692 9.746,12.285 9.745,12.578 9.821 M5.240 11.035 C 4.944 11.132,4.685 11.362,4.575 11.626 C 4.504 11.795,4.504 12.205,4.575 12.374 C 4.654 12.563,4.866 12.791,5.056 12.891 C 5.179 12.956,5.290 12.978,5.500 12.978 C 5.829 12.978,6.034 12.888,6.239 12.655 C 6.419 12.450,6.480 12.285,6.480 12.000 C 6.480 11.867,6.455 11.698,6.425 11.626 C 6.346 11.436,6.133 11.208,5.947 11.113 C 5.771 11.024,5.399 10.983,5.240 11.035 M18.240 11.035 C 17.944 11.132,17.685 11.362,17.575 11.626 C 17.504 11.795,17.504 12.205,17.575 12.374 C 17.654 12.563,17.866 12.791,18.056 12.891 C 18.179 12.956,18.290 12.978,18.500 12.978 C 18.710 12.978,18.821 12.956,18.944 12.891 C 19.134 12.791,19.346 12.563,19.425 12.374 C 19.496 12.205,19.496 11.795,19.425 11.626 C 19.346 11.436,19.133 11.208,18.947 11.113 C 18.771 11.024,18.399 10.983,18.240 11.035 M11.617 17.577 C 11.434 17.656,11.207 17.871,11.109 18.056 C 10.988 18.285,10.988 18.715,11.109 18.944 C 11.209 19.134,11.437 19.346,11.626 19.425 C 11.795 19.496,12.205 19.496,12.374 19.425 C 12.563 19.346,12.791 19.134,12.891 18.944 C 12.956 18.821,12.978 18.710,12.978 18.500 C 12.978 18.290,12.956 18.179,12.891 18.056 C 12.791 17.866,12.563 17.654,12.374 17.575 C 12.208 17.505,11.778 17.506,11.617 17.577 " stroke="none" fill-rule="evenodd" fill="black"></path></svg>