<svg width="24" height="24" viewBox="0 0 24 24" fill="none" xmlns="http://www.w3.org/2000/svg"><path d="M11.320 1.281 C 7.041 1.525,3.252 4.409,1.843 8.497 C 1.180 10.418,1.082 12.560,1.564 14.550 C 2.505 18.428,5.572 21.495,9.450 22.436 C 10.121 22.599,10.629 22.672,11.403 22.719 C 12.343 22.776,21.894 22.773,22.162 22.716 C 22.904 22.557,22.924 21.471,22.189 21.286 C 22.060 21.254,21.328 21.240,19.755 21.240 L 17.506 21.240 17.963 20.935 C 19.910 19.634,21.396 17.710,22.157 15.503 C 22.819 13.585,22.918 11.437,22.436 9.450 C 21.425 5.282,17.985 2.095,13.742 1.398 C 13.334 1.331,12.074 1.229,11.880 1.247 C 11.847 1.250,11.595 1.265,11.320 1.281 M13.146 2.822 C 14.201 2.960,15.125 3.237,16.060 3.696 C 18.877 5.079,20.768 7.722,21.178 10.854 C 21.301 11.786,21.244 13.026,21.034 13.998 C 20.745 15.343,20.003 16.855,19.121 17.900 C 18.247 18.935,17.240 19.726,16.060 20.304 C 14.761 20.940,13.462 21.240,12.000 21.240 C 10.538 21.240,9.236 20.940,7.940 20.304 C 5.123 18.921,3.232 16.278,2.822 13.146 C 2.699 12.214,2.756 10.974,2.966 10.002 C 3.177 9.020,3.703 7.775,4.268 6.920 C 5.750 4.677,8.131 3.188,10.820 2.823 C 11.380 2.746,12.569 2.746,13.146 2.822 M11.679 5.278 C 10.790 5.397,10.027 6.091,9.820 6.969 C 9.647 7.705,9.841 8.454,10.349 9.003 C 10.824 9.518,11.301 9.728,12.000 9.728 C 12.699 9.728,13.176 9.518,13.651 9.003 C 14.159 8.454,14.353 7.705,14.180 6.970 C 14.008 6.243,13.375 5.563,12.682 5.361 C 12.368 5.270,11.980 5.238,11.679 5.278 M12.388 6.865 C 12.447 6.909,12.550 7.013,12.618 7.096 C 12.725 7.229,12.740 7.278,12.740 7.500 C 12.740 7.722,12.725 7.771,12.618 7.904 C 12.401 8.171,12.306 8.220,12.000 8.220 C 11.694 8.220,11.599 8.171,11.382 7.904 C 11.275 7.772,11.260 7.721,11.260 7.506 C 11.260 7.184,11.401 6.963,11.700 6.817 C 11.868 6.735,12.250 6.762,12.388 6.865 M6.951 9.822 C 6.231 9.997,5.581 10.606,5.356 11.317 C 5.240 11.684,5.240 12.316,5.356 12.683 C 5.580 13.391,6.247 14.009,6.970 14.180 C 7.478 14.300,8.059 14.233,8.517 14.002 C 9.007 13.754,9.481 13.200,9.644 12.683 C 9.760 12.316,9.760 11.684,9.644 11.317 C 9.420 10.609,8.753 9.991,8.030 9.820 C 7.722 9.747,7.256 9.748,6.951 9.822 M15.951 9.822 C 15.231 9.997,14.581 10.606,14.356 11.317 C 14.240 11.684,14.240 12.316,14.356 12.683 C 14.580 13.391,15.247 14.009,15.970 14.180 C 16.478 14.300,17.059 14.233,17.517 14.002 C 18.007 13.754,18.481 13.200,18.644 12.683 C 18.760 12.316,18.760 11.684,18.644 11.317 C 18.420 10.609,17.753 9.991,17.030 9.820 C 16.722 9.747,16.256 9.748,15.951 9.822 M7.915 11.391 C 8.171 11.598,8.220 11.697,8.220 12.000 C 8.220 12.306,8.171 12.401,7.904 12.618 C 7.771 12.725,7.722 12.740,7.500 12.740 C 7.278 12.740,7.229 12.725,7.096 12.618 C 6.830 12.402,6.780 12.305,6.780 12.004 C 6.780 11.783,6.798 11.708,6.878 11.591 C 6.973 11.452,7.135 11.330,7.300 11.272 C 7.464 11.214,7.769 11.273,7.915 11.391 M16.915 11.391 C 17.171 11.598,17.220 11.697,17.220 12.000 C 17.220 12.306,17.171 12.401,16.904 12.618 C 16.771 12.725,16.722 12.740,16.500 12.740 C 16.278 12.740,16.229 12.725,16.096 12.618 C 15.830 12.402,15.780 12.305,15.780 12.004 C 15.780 11.783,15.798 11.708,15.878 11.591 C 15.973 11.452,16.135 11.330,16.300 11.272 C 16.464 11.214,16.769 11.273,16.915 11.391 M11.679 14.278 C 10.790 14.397,10.027 15.091,9.820 15.969 C 9.647 16.705,9.841 17.454,10.349 18.003 C 10.824 18.518,11.301 18.728,12.000 18.728 C 12.699 18.728,13.176 18.518,13.651 18.003 C 14.159 17.454,14.353 16.705,14.180 15.970 C 14.008 15.243,13.375 14.563,12.682 14.361 C 12.368 14.270,11.980 14.238,11.679 14.278 M12.388 15.865 C 12.447 15.909,12.550 16.013,12.618 16.096 C 12.725 16.229,12.740 16.278,12.740 16.500 C 12.740 16.722,12.725 16.771,12.618 16.904 C 12.401 17.171,12.306 17.220,12.000 17.220 C 11.694 17.220,11.599 17.171,11.382 16.904 C 11.275 16.772,11.260 16.721,11.260 16.506 C 11.260 16.184,11.401 15.963,11.700 15.817 C 11.868 15.735,12.250 15.762,12.388 15.865 " stroke="none" fill-rule="evenodd" fill="black"></path></svg>