<svg width="24" height="24" viewBox="0 0 24 24" fill="none" xmlns="http://www.w3.org/2000/svg"><path d="M8.960 1.280 C 6.960 1.332,5.848 1.469,4.900 1.779 C 3.060 2.382,1.958 3.688,1.563 5.734 C 1.311 7.042,1.267 7.973,1.267 12.000 C 1.267 16.027,1.311 16.958,1.563 18.266 C 2.013 20.599,3.401 21.987,5.734 22.437 C 7.034 22.688,7.987 22.733,12.000 22.733 C 16.013 22.733,16.966 22.688,18.266 22.437 C 20.599 21.987,21.987 20.599,22.437 18.266 C 22.688 16.966,22.733 16.013,22.733 12.000 C 22.733 7.987,22.688 7.034,22.437 5.734 C 22.098 3.977,21.228 2.756,19.825 2.068 C 18.978 1.652,17.875 1.425,16.200 1.321 C 15.315 1.266,10.534 1.239,8.960 1.280 M16.787 2.853 C 17.971 2.982,18.589 3.129,19.180 3.421 C 20.200 3.924,20.776 4.815,21.019 6.260 C 21.215 7.435,21.251 8.515,21.229 12.620 C 21.210 16.115,21.195 16.526,21.055 17.500 C 20.734 19.744,19.757 20.726,17.520 21.054 C 16.474 21.207,16.036 21.220,12.000 21.220 C 7.964 21.220,7.526 21.207,6.480 21.054 C 4.384 20.747,3.408 19.870,3.021 17.947 C 2.796 16.826,2.780 16.428,2.780 12.000 C 2.780 8.382,2.788 7.864,2.852 7.240 C 3.025 5.550,3.340 4.663,4.001 4.001 C 4.665 3.338,5.593 3.009,7.220 2.862 C 8.207 2.772,8.227 2.772,12.400 2.782 C 15.524 2.790,16.323 2.803,16.787 2.853 M15.900 5.260 C 15.878 5.267,15.811 5.284,15.751 5.297 C 15.604 5.329,15.361 5.548,15.294 5.708 C 15.257 5.797,15.240 6.021,15.240 6.419 C 15.240 6.738,15.229 7.000,15.215 7.000 C 15.202 7.000,15.089 6.939,14.965 6.864 C 13.498 5.981,11.771 5.788,10.180 6.328 C 6.581 7.550,5.120 11.978,7.260 15.179 C 8.152 16.512,9.481 17.377,11.079 17.664 C 11.526 17.744,12.474 17.744,12.921 17.664 C 14.690 17.346,16.139 16.308,17.030 14.720 C 17.287 14.262,17.545 13.507,17.660 12.880 C 17.779 12.227,17.745 11.095,17.599 10.859 C 17.363 10.476,16.860 10.386,16.496 10.661 C 16.266 10.835,16.239 10.952,16.225 11.829 C 16.214 12.499,16.198 12.672,16.121 12.957 C 15.861 13.926,15.338 14.740,14.595 15.334 C 13.079 16.548,10.921 16.548,9.405 15.334 C 8.351 14.491,7.760 13.249,7.760 11.880 C 7.760 9.886,9.050 8.172,10.940 7.651 C 11.302 7.552,11.402 7.541,12.000 7.542 C 12.715 7.543,13.020 7.598,13.595 7.832 L 13.860 7.940 13.469 7.963 C 13.121 7.983,13.061 7.999,12.913 8.103 C 12.695 8.258,12.600 8.444,12.600 8.716 C 12.600 8.991,12.730 9.226,12.952 9.350 C 13.109 9.439,13.130 9.440,14.645 9.440 C 16.367 9.440,16.339 9.444,16.577 9.146 L 16.700 8.993 16.700 7.360 L 16.700 5.727 16.576 5.574 C 16.507 5.489,16.399 5.391,16.336 5.355 C 16.219 5.288,15.974 5.235,15.900 5.260 " stroke="none" fill-rule="evenodd" fill="black"></path></svg>