<svg width="24" height="24" viewBox="0 0 24 24" fill="none" xmlns="http://www.w3.org/2000/svg"><path d="M11.440 2.282 C 9.297 2.423,7.294 3.308,5.744 4.800 C 4.046 6.434,3.123 8.413,2.939 10.812 L 2.912 11.165 2.678 10.941 C 2.411 10.687,2.237 10.600,1.994 10.600 C 1.511 10.600,1.143 11.075,1.276 11.527 C 1.319 11.673,1.476 11.849,2.274 12.653 C 2.794 13.177,3.266 13.630,3.321 13.660 C 3.487 13.747,3.696 13.770,3.884 13.720 C 4.038 13.679,4.183 13.550,5.030 12.708 C 5.776 11.965,6.015 11.702,6.065 11.571 C 6.239 11.118,5.866 10.600,5.366 10.600 C 5.122 10.600,4.949 10.687,4.679 10.945 L 4.440 11.172 4.440 11.008 C 4.440 10.458,4.658 9.373,4.898 8.730 C 5.272 7.726,5.801 6.891,6.559 6.105 C 7.734 4.887,9.139 4.147,10.840 3.851 C 11.324 3.766,12.751 3.757,13.220 3.834 C 15.431 4.201,17.276 5.381,18.497 7.209 C 18.745 7.580,18.834 7.657,19.093 7.727 C 19.349 7.795,19.572 7.722,19.788 7.497 C 19.974 7.304,20.024 7.141,19.983 6.864 C 19.934 6.536,19.227 5.594,18.493 4.876 C 17.976 4.370,17.680 4.131,17.100 3.750 C 15.784 2.887,14.343 2.404,12.720 2.281 C 12.138 2.237,12.127 2.237,11.440 2.282 M20.136 10.278 C 19.953 10.322,19.927 10.344,18.906 11.342 C 18.076 12.155,17.963 12.281,17.920 12.439 C 17.787 12.935,18.123 13.400,18.616 13.400 C 18.882 13.400,18.992 13.343,19.295 13.048 L 19.569 12.780 19.543 13.190 C 19.426 14.994,18.659 16.666,17.342 17.982 C 16.077 19.248,14.534 19.993,12.742 20.204 C 12.244 20.263,11.027 20.229,10.566 20.144 C 8.415 19.747,6.634 18.577,5.411 16.757 C 5.188 16.426,5.097 16.349,4.848 16.282 C 4.352 16.149,3.862 16.613,3.947 17.136 C 3.962 17.226,4.078 17.445,4.236 17.680 C 5.705 19.869,7.993 21.288,10.660 21.664 C 11.291 21.753,12.449 21.753,13.100 21.663 C 17.241 21.091,20.450 17.901,20.979 13.828 C 21.012 13.568,21.040 13.229,21.040 13.074 L 21.040 12.793 21.322 13.054 C 21.638 13.347,21.800 13.418,22.083 13.391 C 22.461 13.354,22.731 13.051,22.731 12.663 C 22.731 12.551,22.703 12.405,22.669 12.339 C 22.585 12.180,20.813 10.425,20.660 10.350 C 20.500 10.271,20.288 10.242,20.136 10.278 " fill="#1C274C" stroke="none" fill-rule="evenodd"></path></svg>