<svg width="24" height="24" viewBox="0 0 24 24" fill="none" xmlns="http://www.w3.org/2000/svg"><path d="M8.960 1.280 C 6.960 1.332,5.848 1.469,4.900 1.779 C 3.060 2.382,1.958 3.688,1.563 5.734 C 1.311 7.042,1.267 7.973,1.267 12.000 C 1.267 16.027,1.311 16.958,1.563 18.266 C 2.013 20.599,3.401 21.987,5.734 22.437 C 7.034 22.688,7.987 22.733,12.000 22.733 C 16.013 22.733,16.966 22.688,18.266 22.437 C 20.599 21.987,21.987 20.599,22.437 18.266 C 22.688 16.966,22.733 16.013,22.733 12.000 C 22.733 7.987,22.688 7.034,22.437 5.734 C 22.098 3.977,21.228 2.756,19.825 2.068 C 18.978 1.652,17.875 1.425,16.200 1.321 C 15.315 1.266,10.534 1.239,8.960 1.280 M16.787 2.853 C 17.971 2.982,18.589 3.129,19.180 3.421 C 20.200 3.924,20.776 4.815,21.019 6.260 C 21.215 7.435,21.251 8.515,21.229 12.620 C 21.210 16.115,21.195 16.526,21.055 17.500 C 20.734 19.744,19.757 20.726,17.520 21.054 C 16.474 21.207,16.036 21.220,12.000 21.220 C 7.964 21.220,7.526 21.207,6.480 21.054 C 4.384 20.747,3.408 19.870,3.021 17.947 C 2.796 16.826,2.780 16.428,2.780 12.000 C 2.780 8.382,2.788 7.864,2.852 7.240 C 3.025 5.550,3.340 4.663,4.001 4.001 C 4.665 3.338,5.593 3.009,7.220 2.862 C 8.207 2.772,8.227 2.772,12.400 2.782 C 15.524 2.790,16.323 2.803,16.787 2.853 M11.520 6.281 C 10.831 6.349,10.240 6.519,9.629 6.825 C 9.030 7.126,8.723 7.347,8.227 7.833 C 7.523 8.523,7.091 9.262,6.812 10.256 L 6.706 10.634 6.532 10.482 C 6.139 10.135,5.563 10.217,5.332 10.652 C 5.236 10.834,5.240 11.189,5.341 11.348 C 5.445 11.512,6.682 12.917,6.881 13.096 C 7.138 13.329,7.472 13.370,7.745 13.203 C 7.955 13.075,9.631 11.438,9.686 11.307 C 9.765 11.120,9.751 10.800,9.656 10.638 C 9.612 10.563,9.501 10.448,9.409 10.384 C 9.271 10.287,9.202 10.267,9.011 10.267 C 8.747 10.267,8.657 10.306,8.417 10.527 L 8.245 10.686 8.286 10.533 C 8.354 10.280,8.667 9.648,8.854 9.386 C 9.251 8.831,9.932 8.296,10.565 8.043 C 11.109 7.826,11.356 7.783,12.060 7.784 C 12.587 7.785,12.754 7.800,13.007 7.870 C 13.714 8.066,14.220 8.349,14.795 8.871 C 15.142 9.185,15.244 9.240,15.484 9.240 C 15.792 9.240,16.023 9.084,16.164 8.780 C 16.332 8.418,16.199 8.106,15.687 7.657 C 14.683 6.776,13.581 6.329,12.260 6.267 C 12.040 6.256,11.707 6.263,11.520 6.281 M16.473 10.721 C 16.393 10.735,16.280 10.777,16.222 10.815 C 16.088 10.903,14.454 12.472,14.382 12.582 C 14.107 13.002,14.340 13.610,14.816 13.711 C 15.099 13.771,15.322 13.707,15.556 13.496 L 15.754 13.318 15.714 13.469 C 15.655 13.687,15.350 14.322,15.197 14.544 C 15.002 14.827,14.532 15.307,14.260 15.501 C 13.918 15.744,13.433 15.979,13.018 16.101 C 12.743 16.183,12.539 16.212,12.140 16.229 C 11.519 16.254,11.164 16.206,10.634 16.025 C 10.111 15.847,9.700 15.603,9.290 15.228 C 8.924 14.895,8.819 14.826,8.605 14.786 C 8.315 14.730,7.932 14.945,7.814 15.228 C 7.745 15.394,7.745 15.647,7.814 15.811 C 7.844 15.882,8.020 16.084,8.204 16.261 C 8.950 16.974,9.959 17.480,11.000 17.663 C 11.500 17.751,12.378 17.751,12.874 17.663 C 14.988 17.287,16.688 15.720,17.201 13.676 L 17.285 13.339 17.459 13.505 C 17.773 13.806,18.227 13.813,18.518 13.522 C 18.805 13.235,18.809 12.808,18.528 12.474 C 18.132 12.004,17.103 10.871,17.027 10.821 C 16.901 10.739,16.642 10.692,16.473 10.721 " fill="#1C274C" stroke="none" fill-rule="evenodd"></path></svg>