<svg width="24" height="24" viewBox="0 0 24 24" fill="none" xmlns="http://www.w3.org/2000/svg"><path d="M11.320 1.281 C 7.041 1.525,3.252 4.409,1.843 8.497 C 1.180 10.418,1.082 12.560,1.564 14.550 C 2.505 18.428,5.572 21.495,9.450 22.436 C 11.106 22.837,12.894 22.837,14.550 22.436 C 18.428 21.495,21.495 18.428,22.436 14.550 C 22.837 12.894,22.837 11.106,22.436 9.450 C 21.425 5.282,17.985 2.095,13.742 1.398 C 13.334 1.331,12.074 1.229,11.880 1.247 C 11.847 1.250,11.595 1.265,11.320 1.281 M13.146 2.822 C 14.201 2.960,15.125 3.237,16.060 3.696 C 18.877 5.079,20.768 7.722,21.178 10.854 C 21.301 11.786,21.244 13.026,21.034 13.998 C 20.745 15.343,20.003 16.855,19.121 17.900 C 18.247 18.935,17.240 19.726,16.060 20.304 C 14.761 20.940,13.462 21.240,12.000 21.240 C 10.538 21.240,9.236 20.940,7.940 20.304 C 5.123 18.921,3.232 16.278,2.822 13.146 C 2.699 12.214,2.756 10.974,2.966 10.002 C 3.177 9.020,3.703 7.775,4.268 6.920 C 5.750 4.677,8.131 3.188,10.820 2.823 C 11.380 2.746,12.569 2.746,13.146 2.822 M15.900 5.260 C 15.878 5.267,15.811 5.284,15.751 5.297 C 15.604 5.329,15.361 5.548,15.294 5.708 C 15.257 5.797,15.240 6.021,15.240 6.419 C 15.240 6.738,15.229 7.000,15.215 7.000 C 15.202 7.000,15.089 6.939,14.965 6.864 C 13.498 5.981,11.771 5.788,10.180 6.328 C 6.581 7.550,5.120 11.978,7.260 15.179 C 8.152 16.512,9.481 17.377,11.079 17.664 C 11.526 17.744,12.474 17.744,12.921 17.664 C 14.690 17.346,16.139 16.308,17.030 14.720 C 17.287 14.262,17.545 13.507,17.660 12.880 C 17.779 12.227,17.745 11.095,17.599 10.859 C 17.363 10.476,16.860 10.386,16.496 10.661 C 16.266 10.835,16.239 10.952,16.225 11.829 C 16.214 12.499,16.198 12.672,16.121 12.957 C 15.861 13.926,15.338 14.740,14.595 15.334 C 13.079 16.548,10.921 16.548,9.405 15.334 C 8.351 14.491,7.760 13.249,7.760 11.880 C 7.760 9.886,9.050 8.172,10.940 7.651 C 11.302 7.552,11.402 7.541,12.000 7.542 C 12.715 7.543,13.020 7.598,13.595 7.832 L 13.860 7.940 13.469 7.963 C 13.121 7.983,13.061 7.999,12.913 8.103 C 12.695 8.258,12.600 8.444,12.600 8.716 C 12.600 8.991,12.730 9.226,12.952 9.350 C 13.109 9.439,13.130 9.440,14.645 9.440 C 16.367 9.440,16.339 9.444,16.577 9.146 L 16.700 8.993 16.700 7.360 L 16.700 5.727 16.576 5.574 C 16.507 5.489,16.399 5.391,16.336 5.355 C 16.219 5.288,15.974 5.235,15.900 5.260 " stroke="none" fill-rule="evenodd" fill="black"></path></svg>