<svg width="24" height="24" viewBox="0 0 24 24" fill="none" xmlns="http://www.w3.org/2000/svg"><path d="M9.900 1.280 C 8.493 1.324,7.965 1.395,7.223 1.643 C 6.597 1.852,6.106 2.176,5.576 2.729 C 4.763 3.577,4.446 4.398,4.312 6.005 C 4.239 6.884,4.239 17.113,4.313 17.995 C 4.446 19.602,4.763 20.422,5.576 21.271 C 6.457 22.190,7.338 22.554,9.000 22.684 C 9.832 22.749,14.165 22.749,14.995 22.684 C 16.570 22.561,17.416 22.238,18.256 21.441 C 19.179 20.564,19.548 19.676,19.687 17.995 C 19.760 17.113,19.761 6.884,19.687 6.005 C 19.548 4.323,19.179 3.435,18.256 2.559 C 17.429 1.774,16.546 1.432,15.060 1.322 C 14.317 1.268,11.126 1.241,9.900 1.280 M15.460 2.854 C 16.368 3.003,16.741 3.180,17.283 3.719 C 17.843 4.275,18.039 4.721,18.167 5.725 C 18.244 6.331,18.244 17.669,18.167 18.275 C 18.039 19.279,17.843 19.725,17.283 20.281 C 16.733 20.828,16.364 21.000,15.430 21.149 C 15.027 21.212,14.666 21.220,12.000 21.220 C 9.334 21.220,8.973 21.212,8.570 21.149 C 7.634 21.000,7.265 20.827,6.719 20.281 C 6.173 19.735,6.000 19.366,5.851 18.430 C 5.785 18.013,5.780 17.547,5.780 12.000 C 5.780 6.436,5.785 5.988,5.852 5.566 C 5.991 4.690,6.176 4.274,6.647 3.778 C 7.130 3.270,7.508 3.064,8.240 2.913 C 8.857 2.785,9.394 2.767,12.300 2.778 C 14.635 2.787,15.122 2.799,15.460 2.854 M8.720 4.805 C 8.458 4.909,8.269 5.200,8.269 5.500 C 8.269 5.807,8.460 6.095,8.733 6.197 C 8.809 6.226,9.868 6.240,12.000 6.240 C 14.132 6.240,15.191 6.226,15.267 6.197 C 15.540 6.095,15.731 5.807,15.731 5.500 C 15.731 5.193,15.540 4.905,15.267 4.803 C 15.117 4.746,8.863 4.748,8.720 4.805 M8.667 8.065 C 8.303 8.177,8.000 8.602,8.000 9.000 C 8.000 9.520,8.480 10.000,9.000 10.000 C 9.517 10.000,10.000 9.517,10.000 9.000 C 10.000 8.763,9.880 8.486,9.697 8.303 C 9.416 8.022,9.067 7.942,8.667 8.065 M11.667 8.065 C 11.303 8.177,11.000 8.602,11.000 9.000 C 11.000 9.520,11.480 10.000,12.000 10.000 C 12.517 10.000,13.000 9.517,13.000 9.000 C 13.000 8.598,12.688 8.173,12.310 8.061 C 12.061 7.987,11.919 7.988,11.667 8.065 M14.667 8.065 C 14.303 8.177,14.000 8.602,14.000 9.000 C 14.000 9.520,14.480 10.000,15.000 10.000 C 15.517 10.000,16.000 9.517,16.000 9.000 C 16.000 8.598,15.688 8.173,15.310 8.061 C 15.061 7.987,14.919 7.988,14.667 8.065 M11.305 11.820 C 10.118 12.066,9.150 12.808,8.636 13.865 C 8.146 14.873,8.146 16.127,8.636 17.135 C 9.106 18.102,10.000 18.837,11.060 19.127 C 11.522 19.253,12.478 19.253,12.940 19.127 C 14.977 18.569,16.152 16.515,15.598 14.480 C 15.259 13.237,14.214 12.213,12.940 11.876 C 12.524 11.766,11.700 11.738,11.305 11.820 M12.400 13.282 C 13.132 13.400,13.857 14.012,14.126 14.740 C 14.201 14.942,14.215 15.062,14.215 15.500 C 14.215 16.085,14.153 16.327,13.904 16.701 C 12.978 18.098,11.039 18.098,10.095 16.703 C 9.649 16.043,9.649 14.957,10.095 14.297 C 10.630 13.507,11.476 13.134,12.400 13.282 " stroke="none" fill-rule="evenodd" fill="black"></path></svg>