<svg width="24" height="24" viewBox="0 0 24 24" fill="none" xmlns="http://www.w3.org/2000/svg"><path d="M9.900 1.280 C 8.493 1.324,7.965 1.395,7.223 1.643 C 6.597 1.852,6.106 2.176,5.576 2.729 C 4.763 3.577,4.446 4.398,4.312 6.005 C 4.239 6.884,4.239 17.113,4.313 17.995 C 4.446 19.602,4.763 20.422,5.576 21.271 C 6.457 22.190,7.338 22.554,9.000 22.684 C 9.832 22.749,14.165 22.749,14.995 22.684 C 16.570 22.561,17.416 22.238,18.256 21.441 C 19.179 20.564,19.548 19.676,19.687 17.995 C 19.760 17.113,19.761 6.884,19.687 6.005 C 19.548 4.323,19.179 3.435,18.256 2.559 C 17.429 1.774,16.546 1.432,15.060 1.322 C 14.317 1.268,11.126 1.241,9.900 1.280 M15.460 2.854 C 16.368 3.003,16.741 3.180,17.283 3.719 C 17.843 4.275,18.039 4.721,18.167 5.725 C 18.244 6.331,18.244 17.669,18.167 18.275 C 18.039 19.279,17.843 19.725,17.283 20.281 C 16.733 20.828,16.364 21.000,15.430 21.149 C 15.027 21.212,14.666 21.220,12.000 21.220 C 9.334 21.220,8.973 21.212,8.570 21.149 C 7.634 21.000,7.265 20.827,6.719 20.281 C 6.173 19.735,6.000 19.366,5.851 18.430 C 5.785 18.013,5.780 17.547,5.780 12.000 C 5.780 6.436,5.785 5.988,5.852 5.566 C 5.991 4.690,6.176 4.274,6.647 3.778 C 7.130 3.270,7.508 3.064,8.240 2.913 C 8.857 2.785,9.394 2.767,12.300 2.778 C 14.635 2.787,15.122 2.799,15.460 2.854 M11.667 4.065 C 11.303 4.177,11.000 4.602,11.000 5.000 C 11.000 5.520,11.480 6.000,12.000 6.000 C 12.517 6.000,13.000 5.517,13.000 5.000 C 13.000 4.598,12.688 4.173,12.310 4.061 C 12.061 3.987,11.919 3.988,11.667 4.065 M11.740 7.266 C 10.415 7.385,9.327 8.085,8.719 9.212 C 8.400 9.803,8.271 10.320,8.271 11.000 C 8.271 11.682,8.400 12.197,8.721 12.792 C 9.078 13.453,9.549 13.923,10.212 14.281 C 10.803 14.600,11.320 14.729,12.000 14.729 C 12.680 14.729,13.197 14.600,13.788 14.281 C 14.451 13.923,14.922 13.453,15.279 12.792 C 15.600 12.197,15.729 11.682,15.729 11.000 C 15.729 10.320,15.600 9.803,15.281 9.212 C 14.832 8.381,14.122 7.779,13.215 7.463 C 12.793 7.316,12.149 7.230,11.740 7.266 M12.578 8.821 C 12.949 8.918,13.274 9.112,13.581 9.419 C 14.041 9.879,14.240 10.356,14.240 11.000 C 14.240 11.644,14.041 12.121,13.581 12.581 C 13.121 13.041,12.644 13.240,12.000 13.240 C 11.356 13.240,10.879 13.041,10.419 12.581 C 9.959 12.121,9.760 11.644,9.760 11.000 C 9.760 10.356,9.959 9.879,10.419 9.419 C 10.719 9.118,11.050 8.919,11.404 8.823 C 11.692 8.746,12.285 8.745,12.578 8.821 M11.667 16.065 C 11.303 16.177,11.000 16.602,11.000 17.000 C 11.000 17.520,11.480 18.000,12.000 18.000 C 12.517 18.000,13.000 17.517,13.000 17.000 C 13.000 16.598,12.688 16.173,12.310 16.061 C 12.061 15.987,11.919 15.988,11.667 16.065 " stroke="none" fill-rule="evenodd" fill="black"></path></svg>