<svg width="24" height="24" viewBox="0 0 24 24" fill="none" xmlns="http://www.w3.org/2000/svg"><path d="M9.900 1.280 C 8.493 1.324,7.965 1.395,7.223 1.643 C 6.597 1.852,6.106 2.176,5.576 2.729 C 4.763 3.577,4.446 4.398,4.312 6.005 C 4.239 6.884,4.239 17.113,4.313 17.995 C 4.446 19.602,4.763 20.422,5.576 21.271 C 6.457 22.190,7.338 22.554,9.000 22.684 C 9.832 22.749,14.165 22.749,14.995 22.684 C 16.570 22.561,17.416 22.238,18.256 21.441 C 19.179 20.564,19.548 19.676,19.687 17.995 C 19.760 17.113,19.761 6.884,19.687 6.005 C 19.548 4.323,19.179 3.435,18.256 2.559 C 17.429 1.774,16.546 1.432,15.060 1.322 C 14.317 1.268,11.126 1.241,9.900 1.280 M15.460 2.854 C 16.368 3.003,16.741 3.180,17.283 3.719 C 17.843 4.275,18.039 4.721,18.167 5.725 C 18.244 6.331,18.244 17.669,18.167 18.275 C 18.039 19.279,17.843 19.725,17.283 20.281 C 16.733 20.828,16.364 21.000,15.430 21.149 C 15.027 21.212,14.666 21.220,12.000 21.220 C 9.334 21.220,8.973 21.212,8.570 21.149 C 7.634 21.000,7.265 20.827,6.719 20.281 C 6.173 19.735,6.000 19.366,5.851 18.430 C 5.785 18.013,5.780 17.547,5.780 12.000 C 5.780 6.436,5.785 5.988,5.852 5.566 C 5.991 4.690,6.176 4.274,6.647 3.778 C 7.130 3.270,7.508 3.064,8.240 2.913 C 8.857 2.785,9.394 2.767,12.300 2.778 C 14.635 2.787,15.122 2.799,15.460 2.854 M9.667 5.065 C 9.303 5.177,9.000 5.602,9.000 6.000 C 9.000 6.520,9.480 7.000,10.000 7.000 C 10.517 7.000,11.000 6.517,11.000 6.000 C 11.000 5.598,10.688 5.173,10.310 5.061 C 10.061 4.987,9.919 4.988,9.667 5.065 M13.667 5.065 C 13.303 5.177,13.000 5.602,13.000 6.000 C 13.000 6.520,13.480 7.000,14.000 7.000 C 14.517 7.000,15.000 6.517,15.000 6.000 C 15.000 5.598,14.688 5.173,14.310 5.061 C 14.061 4.987,13.919 4.988,13.667 5.065 M9.617 8.577 C 9.434 8.656,9.207 8.871,9.109 9.056 C 8.988 9.285,8.988 9.715,9.109 9.944 C 9.209 10.134,9.437 10.346,9.626 10.425 C 9.795 10.496,10.205 10.496,10.374 10.425 C 10.563 10.346,10.791 10.134,10.891 9.944 C 10.956 9.821,10.978 9.710,10.978 9.500 C 10.978 9.290,10.956 9.179,10.891 9.056 C 10.791 8.866,10.563 8.654,10.374 8.575 C 10.208 8.505,9.778 8.506,9.617 8.577 M13.617 8.577 C 13.434 8.656,13.207 8.871,13.109 9.056 C 12.988 9.285,12.988 9.715,13.109 9.944 C 13.209 10.134,13.437 10.346,13.626 10.425 C 13.795 10.496,14.205 10.496,14.374 10.425 C 14.563 10.346,14.791 10.134,14.891 9.944 C 14.956 9.821,14.978 9.710,14.978 9.500 C 14.978 9.290,14.956 9.179,14.891 9.056 C 14.791 8.866,14.563 8.654,14.374 8.575 C 14.208 8.505,13.778 8.506,13.617 8.577 M11.305 11.820 C 10.118 12.066,9.150 12.808,8.636 13.865 C 8.146 14.873,8.146 16.127,8.636 17.135 C 9.106 18.102,10.000 18.837,11.060 19.127 C 11.522 19.253,12.478 19.253,12.940 19.127 C 14.977 18.569,16.152 16.515,15.598 14.480 C 15.259 13.237,14.214 12.213,12.940 11.876 C 12.524 11.766,11.700 11.738,11.305 11.820 M12.400 13.282 C 13.132 13.400,13.857 14.012,14.126 14.740 C 14.201 14.942,14.215 15.062,14.215 15.500 C 14.215 16.085,14.153 16.327,13.904 16.701 C 12.978 18.098,11.039 18.098,10.095 16.703 C 9.649 16.043,9.649 14.957,10.095 14.297 C 10.630 13.507,11.476 13.134,12.400 13.282 " stroke="none" fill-rule="evenodd" fill="black"></path></svg>