<svg width="24" height="24" viewBox="0 0 24 24" fill="none" xmlns="http://www.w3.org/2000/svg"><path d="M4.815 5.278 C 4.331 5.393,4.098 6.004,4.383 6.408 C 4.447 6.499,4.572 6.610,4.660 6.656 L 4.820 6.740 11.880 6.751 C 16.920 6.758,19.001 6.749,19.154 6.717 C 19.902 6.562,19.929 5.473,19.189 5.286 C 18.978 5.233,5.035 5.225,4.815 5.278 M4.815 9.278 C 4.331 9.393,4.098 10.004,4.383 10.408 C 4.447 10.499,4.572 10.610,4.660 10.656 L 4.820 10.740 11.880 10.751 C 16.920 10.758,19.001 10.749,19.154 10.717 C 19.902 10.562,19.929 9.473,19.189 9.286 C 18.978 9.233,5.035 9.225,4.815 9.278 M4.815 13.278 C 4.331 13.393,4.098 14.004,4.383 14.408 C 4.447 14.499,4.572 14.610,4.660 14.656 L 4.820 14.740 11.880 14.751 C 16.920 14.758,19.001 14.749,19.154 14.717 C 19.902 14.562,19.929 13.473,19.189 13.286 C 18.978 13.233,5.035 13.225,4.815 13.278 M4.815 17.278 C 4.331 17.393,4.098 18.004,4.383 18.408 C 4.447 18.499,4.572 18.610,4.660 18.656 L 4.820 18.740 11.880 18.751 C 16.920 18.758,19.001 18.749,19.154 18.717 C 19.902 18.562,19.929 17.473,19.189 17.286 C 18.978 17.233,5.035 17.225,4.815 17.278 " stroke="none" fill-rule="evenodd" fill="black"></path></svg>