<svg width="24" height="24" viewBox="0 0 24 24" fill="none" xmlns="http://www.w3.org/2000/svg"><path d="M7.780 3.282 C 6.542 3.324,5.956 3.436,5.355 3.747 C 4.478 4.202,4.022 4.956,3.837 6.260 C 3.800 6.521,3.780 7.669,3.763 10.440 L 3.740 14.260 3.388 14.287 C 2.928 14.322,2.549 14.440,2.246 14.643 C 1.772 14.959,1.461 15.422,1.333 16.000 C 1.237 16.436,1.237 18.564,1.333 19.000 C 1.431 19.443,1.609 19.772,1.919 20.081 C 2.228 20.391,2.558 20.569,3.000 20.666 C 3.436 20.762,5.564 20.762,6.000 20.666 C 6.442 20.569,6.772 20.391,7.078 20.084 C 7.386 19.774,7.572 19.431,7.667 19.000 C 7.762 18.564,7.762 16.435,7.666 16.000 C 7.540 15.423,7.228 14.959,6.754 14.643 C 6.451 14.440,6.072 14.322,5.612 14.287 L 5.260 14.260 5.248 11.160 C 5.236 7.980,5.272 6.607,5.380 6.100 C 5.550 5.302,5.909 4.989,6.840 4.831 C 7.275 4.757,16.725 4.757,17.160 4.831 C 18.097 4.990,18.453 5.304,18.622 6.115 C 18.707 6.523,18.758 7.602,18.759 8.996 L 18.760 10.172 18.367 9.791 C 17.912 9.349,17.778 9.269,17.500 9.269 C 16.957 9.269,16.609 9.802,16.822 10.310 C 16.897 10.490,18.952 12.557,19.159 12.662 C 19.338 12.751,19.662 12.751,19.841 12.662 C 20.048 12.557,22.103 10.490,22.178 10.310 C 22.391 9.802,22.043 9.269,21.500 9.269 C 21.222 9.269,21.088 9.349,20.638 9.785 L 20.251 10.162 20.228 8.371 C 20.215 7.386,20.185 6.436,20.161 6.260 C 19.988 4.977,19.519 4.200,18.645 3.747 C 18.019 3.423,17.503 3.330,16.040 3.280 C 14.786 3.236,9.104 3.238,7.780 3.282 M11.000 14.279 C 10.456 14.321,10.243 14.373,9.920 14.543 C 9.309 14.864,8.907 15.455,8.801 16.189 C 8.750 16.540,8.750 18.460,8.801 18.811 C 8.940 19.771,9.591 20.480,10.509 20.667 C 10.918 20.751,12.947 20.763,13.400 20.685 C 14.377 20.516,15.071 19.785,15.200 18.787 C 15.249 18.415,15.249 16.585,15.200 16.213 C 15.074 15.244,14.410 14.513,13.495 14.338 C 13.127 14.267,11.607 14.231,11.000 14.279 M18.480 14.280 C 17.925 14.320,17.573 14.424,17.244 14.643 C 16.772 14.959,16.461 15.422,16.333 16.000 C 16.237 16.436,16.237 18.564,16.333 19.000 C 16.431 19.443,16.609 19.772,16.919 20.081 C 17.228 20.391,17.558 20.569,18.000 20.666 C 18.436 20.762,20.564 20.762,21.000 20.666 C 21.442 20.569,21.772 20.391,22.081 20.081 C 22.391 19.772,22.569 19.442,22.666 19.000 C 22.762 18.564,22.762 16.436,22.666 16.000 C 22.479 15.146,21.853 14.515,21.020 14.341 C 20.676 14.269,19.135 14.232,18.480 14.280 M5.738 15.804 C 5.940 15.860,6.140 16.060,6.196 16.262 C 6.255 16.474,6.255 18.526,6.196 18.738 C 6.140 18.940,5.940 19.140,5.738 19.196 C 5.526 19.255,3.474 19.255,3.262 19.196 C 3.060 19.140,2.860 18.940,2.804 18.738 C 2.747 18.530,2.745 16.475,2.803 16.268 C 2.859 16.066,3.023 15.890,3.220 15.820 C 3.422 15.748,5.490 15.736,5.738 15.804 M13.214 15.798 C 13.383 15.837,13.570 15.992,13.674 16.180 C 13.731 16.284,13.740 16.457,13.740 17.500 C 13.740 18.834,13.741 18.828,13.464 19.071 C 13.277 19.235,13.135 19.249,11.817 19.233 C 10.739 19.220,10.733 19.220,10.589 19.121 C 10.509 19.066,10.403 18.949,10.352 18.861 C 10.262 18.703,10.260 18.679,10.260 17.500 C 10.260 16.318,10.261 16.298,10.353 16.140 C 10.461 15.953,10.602 15.839,10.776 15.798 C 10.954 15.755,13.031 15.755,13.214 15.798 M20.738 15.804 C 20.940 15.860,21.140 16.060,21.196 16.262 C 21.255 16.474,21.255 18.526,21.196 18.738 C 21.140 18.940,20.940 19.140,20.738 19.196 C 20.526 19.255,18.474 19.255,18.262 19.196 C 18.060 19.140,17.860 18.940,17.804 18.738 C 17.747 18.530,17.745 16.475,17.803 16.268 C 17.859 16.066,18.023 15.890,18.220 15.820 C 18.422 15.748,20.490 15.736,20.738 15.804 " stroke="none" fill-rule="evenodd" fill="black"></path></svg>