<svg width="24" height="24" viewBox="0 0 24 24" fill="none" xmlns="http://www.w3.org/2000/svg"><path d="M8.811 2.278 C 8.415 2.375,8.172 2.799,8.281 3.204 C 8.319 3.346,8.411 3.464,8.752 3.810 C 9.055 4.118,9.153 4.240,9.098 4.240 C 8.764 4.242,7.848 4.335,7.495 4.403 C 6.403 4.614,5.290 5.108,4.360 5.797 C 3.990 6.071,3.309 6.724,2.997 7.104 C 1.758 8.616,1.111 10.667,1.274 12.570 C 1.337 13.306,1.441 13.812,1.664 14.475 C 2.043 15.599,2.590 16.496,3.419 17.355 C 4.094 18.053,4.682 18.491,5.516 18.916 C 6.602 19.469,7.871 19.762,9.177 19.759 C 9.670 19.758,9.854 19.702,10.047 19.495 C 10.309 19.215,10.309 18.783,10.047 18.506 C 9.840 18.287,9.760 18.268,8.920 18.238 C 8.289 18.215,8.049 18.189,7.663 18.101 C 6.387 17.812,5.393 17.247,4.475 16.290 C 3.670 15.450,3.130 14.419,2.871 13.223 C 2.744 12.637,2.744 11.363,2.871 10.777 C 3.148 9.499,3.686 8.508,4.597 7.597 C 5.509 6.685,6.505 6.145,7.777 5.872 C 8.135 5.795,8.348 5.783,9.700 5.763 C 11.032 5.743,11.235 5.732,11.345 5.671 C 11.515 5.578,11.668 5.388,11.718 5.209 C 11.770 5.022,11.770 4.978,11.716 4.780 C 11.680 4.647,11.489 4.435,10.586 3.528 C 9.989 2.927,9.446 2.403,9.380 2.362 C 9.234 2.272,8.985 2.236,8.811 2.278 M14.420 4.260 C 14.398 4.267,14.331 4.284,14.271 4.297 C 14.124 4.329,13.881 4.548,13.814 4.708 C 13.703 4.973,13.759 5.289,13.953 5.494 C 14.160 5.713,14.239 5.732,15.100 5.765 C 16.230 5.809,16.912 5.972,17.765 6.400 C 18.480 6.760,18.916 7.081,19.482 7.666 C 20.366 8.579,20.872 9.543,21.148 10.840 C 21.204 11.105,21.220 11.361,21.220 12.000 C 21.220 13.030,21.116 13.583,20.770 14.397 C 20.439 15.175,20.078 15.719,19.482 16.334 C 18.580 17.266,17.563 17.833,16.271 18.126 C 15.943 18.201,15.723 18.213,14.360 18.235 C 12.960 18.258,12.806 18.267,12.668 18.336 C 12.290 18.523,12.145 19.019,12.363 19.380 C 12.403 19.446,12.927 19.988,13.528 20.585 C 14.553 21.605,14.632 21.673,14.810 21.711 C 15.389 21.832,15.833 21.388,15.710 20.812 C 15.675 20.649,15.614 20.567,15.249 20.192 C 14.951 19.886,14.850 19.760,14.904 19.760 C 15.274 19.758,16.187 19.660,16.567 19.582 C 18.585 19.164,20.339 17.966,21.491 16.220 C 22.960 13.991,23.144 11.032,21.963 8.620 C 21.570 7.818,21.181 7.267,20.541 6.605 C 19.209 5.227,17.472 4.420,15.539 4.281 C 14.996 4.242,14.502 4.232,14.420 4.260 " fill="#1C274C" stroke="none" fill-rule="evenodd"></path></svg>