<svg width="24" height="24" viewBox="0 0 24 24" fill="none" xmlns="http://www.w3.org/2000/svg"><path d="M9.329 6.279 C 9.257 6.296,9.131 6.357,9.049 6.414 C 8.967 6.471,7.771 7.648,6.392 9.029 C 4.655 10.768,3.865 11.586,3.822 11.689 C 3.743 11.878,3.743 12.122,3.822 12.311 C 3.898 12.494,8.947 17.555,9.159 17.662 C 9.332 17.748,9.662 17.752,9.821 17.669 C 10.187 17.478,10.336 17.068,10.178 16.689 C 10.136 16.589,9.509 15.933,8.232 14.653 L 6.347 12.765 10.744 12.749 C 15.534 12.731,15.317 12.741,16.177 12.498 C 18.150 11.940,19.566 10.537,20.043 8.667 C 20.212 8.005,20.294 6.987,20.197 6.733 C 20.095 6.460,19.807 6.269,19.500 6.269 C 19.260 6.269,19.096 6.345,18.928 6.537 C 18.790 6.695,18.782 6.728,18.722 7.454 C 18.677 7.999,18.582 8.438,18.431 8.800 C 17.994 9.849,17.152 10.603,15.976 10.997 C 15.238 11.244,15.328 11.240,10.626 11.240 L 6.343 11.240 8.230 9.349 C 9.509 8.067,10.136 7.411,10.178 7.311 C 10.373 6.843,10.096 6.345,9.600 6.270 C 9.523 6.258,9.401 6.262,9.329 6.279 " stroke="none" fill-rule="evenodd" fill="black"></path></svg>