<svg width="24" height="24" viewBox="0 0 24 24" fill="none" xmlns="http://www.w3.org/2000/svg"><path d="M9.329 6.279 C 9.257 6.296,9.131 6.357,9.049 6.414 C 8.967 6.471,7.771 7.648,6.392 9.029 C 4.655 10.768,3.865 11.586,3.822 11.689 C 3.743 11.878,3.743 12.122,3.822 12.311 C 3.898 12.494,8.947 17.555,9.159 17.662 C 9.332 17.748,9.662 17.752,9.821 17.669 C 10.187 17.478,10.336 17.068,10.178 16.689 C 10.136 16.589,9.509 15.933,8.230 14.651 L 6.343 12.760 10.626 12.760 C 15.328 12.760,15.238 12.756,15.976 13.003 C 17.154 13.398,17.993 14.149,18.431 15.200 C 18.582 15.562,18.677 16.001,18.722 16.546 C 18.782 17.272,18.790 17.305,18.928 17.463 C 19.096 17.655,19.260 17.731,19.500 17.731 C 19.807 17.731,20.095 17.540,20.197 17.267 C 20.294 17.013,20.212 15.995,20.043 15.333 C 19.566 13.463,18.150 12.060,16.177 11.502 C 15.317 11.259,15.534 11.269,10.744 11.251 L 6.347 11.235 8.232 9.347 C 9.509 8.067,10.136 7.411,10.178 7.311 C 10.373 6.843,10.096 6.345,9.600 6.270 C 9.523 6.258,9.401 6.262,9.329 6.279 " stroke="none" fill-rule="evenodd" fill="black"></path></svg>