<svg width="24" height="24" viewBox="0 0 24 24" fill="none" xmlns="http://www.w3.org/2000/svg"><path d="M17.979 3.177 C 17.889 3.231,17.775 3.350,17.719 3.447 L 17.620 3.620 17.607 4.951 L 17.594 6.283 17.407 6.127 C 16.323 5.225,14.625 4.518,13.060 4.318 C 12.597 4.259,11.403 4.259,10.940 4.318 C 8.735 4.600,6.680 5.713,5.311 7.368 C 4.211 8.697,3.536 10.245,3.317 11.940 C 3.258 12.403,3.258 13.597,3.317 14.060 C 3.603 16.272,4.713 18.320,6.368 19.689 C 7.698 20.789,9.252 21.466,10.940 21.682 C 11.403 21.741,12.597 21.741,13.060 21.682 C 14.036 21.557,14.983 21.273,15.860 20.840 C 18.504 19.537,20.264 17.071,20.683 14.080 C 20.744 13.646,20.745 12.436,20.685 12.023 C 20.620 11.575,20.443 11.357,20.078 11.275 C 19.790 11.210,19.421 11.384,19.270 11.655 C 19.237 11.714,19.222 12.076,19.220 12.840 C 19.218 14.070,19.176 14.381,18.896 15.235 C 17.623 19.131,13.393 21.201,9.540 19.813 C 5.775 18.457,3.829 14.311,5.187 10.540 C 6.543 6.775,10.689 4.829,14.460 6.187 C 14.680 6.266,15.050 6.426,15.282 6.542 C 15.729 6.765,16.440 7.220,16.440 7.283 C 16.440 7.305,15.934 7.320,15.174 7.320 C 13.909 7.320,13.907 7.320,13.743 7.416 C 13.335 7.655,13.264 8.268,13.607 8.588 C 13.835 8.801,13.821 8.800,16.249 8.799 C 18.346 8.798,18.511 8.793,18.662 8.725 C 18.863 8.633,19.025 8.445,19.081 8.238 C 19.109 8.132,19.119 7.331,19.112 5.827 L 19.100 3.574 18.990 3.408 C 18.775 3.083,18.312 2.978,17.979 3.177 " stroke="none" fill-rule="evenodd" fill="black"></path></svg>