<svg width="24" height="24" viewBox="0 0 24 24" fill="none" xmlns="http://www.w3.org/2000/svg"><path d="M11.320 1.281 C 7.041 1.525,3.252 4.409,1.843 8.497 C 1.180 10.418,1.082 12.560,1.564 14.550 C 2.505 18.428,5.572 21.495,9.450 22.436 C 11.106 22.837,12.894 22.837,14.550 22.436 C 18.745 21.419,21.956 17.924,22.617 13.657 C 22.786 12.565,22.769 11.194,22.574 10.080 C 22.233 8.146,21.317 6.293,19.943 4.760 C 19.021 3.731,17.750 2.803,16.495 2.243 C 16.098 2.066,15.956 2.047,15.729 2.142 C 15.300 2.321,15.137 2.790,15.362 3.200 C 15.454 3.368,15.506 3.403,16.120 3.722 C 17.150 4.256,17.814 4.731,18.518 5.440 C 19.715 6.645,20.583 8.165,20.973 9.740 C 21.314 11.119,21.335 12.602,21.034 13.998 C 20.745 15.343,20.003 16.855,19.121 17.900 C 18.247 18.935,17.240 19.726,16.060 20.304 C 14.761 20.940,13.462 21.240,12.000 21.240 C 10.538 21.240,9.236 20.940,7.940 20.304 C 5.123 18.921,3.232 16.278,2.822 13.146 C 2.699 12.214,2.756 10.974,2.966 10.002 C 3.253 8.667,3.978 7.178,4.847 6.140 C 6.161 4.569,7.843 3.504,9.773 3.021 C 10.008 2.962,10.220 2.920,10.244 2.928 C 10.267 2.936,10.085 3.194,9.839 3.501 C 9.366 4.092,9.306 4.185,9.262 4.387 C 9.202 4.667,9.425 5.068,9.708 5.186 C 9.875 5.256,10.128 5.255,10.291 5.185 C 10.471 5.107,10.581 4.982,11.690 3.590 C 12.769 2.236,12.805 2.173,12.714 1.814 C 12.631 1.481,12.265 1.223,11.912 1.246 C 11.862 1.250,11.595 1.265,11.320 1.281 M9.746 7.788 C 9.705 7.799,9.047 8.307,8.282 8.919 C 7.076 9.884,6.884 10.052,6.826 10.196 C 6.579 10.813,7.135 11.412,7.754 11.196 C 7.823 11.172,8.181 10.911,8.550 10.616 L 9.220 10.080 9.240 12.890 C 9.262 15.977,9.247 15.802,9.506 16.047 C 9.711 16.241,10.027 16.297,10.292 16.186 C 10.447 16.121,10.667 15.881,10.709 15.729 C 10.749 15.587,10.749 8.413,10.709 8.271 C 10.667 8.119,10.447 7.879,10.292 7.814 C 10.167 7.762,9.898 7.749,9.746 7.788 M13.520 7.797 C 13.239 7.883,12.966 8.089,12.813 8.331 C 12.759 8.417,12.551 8.968,12.351 9.554 C 11.998 10.590,11.988 10.631,11.984 11.000 C 11.980 11.346,11.990 11.397,12.090 11.566 C 12.258 11.853,12.374 11.973,12.607 12.102 L 12.820 12.220 13.800 12.245 C 14.339 12.258,14.825 12.284,14.880 12.301 C 15.088 12.366,15.398 12.609,15.534 12.813 C 15.913 13.385,15.758 14.156,15.188 14.533 C 14.882 14.735,14.691 14.760,13.457 14.760 C 12.304 14.760,12.184 14.776,11.986 14.952 C 11.775 15.139,11.706 15.538,11.835 15.820 C 11.923 16.010,12.012 16.096,12.210 16.178 C 12.419 16.266,14.684 16.267,15.100 16.180 C 15.877 16.018,16.590 15.451,16.963 14.700 C 17.632 13.351,17.069 11.717,15.700 11.037 C 15.260 10.819,14.947 10.762,14.190 10.761 C 13.843 10.760,13.560 10.747,13.560 10.730 C 13.560 10.714,13.669 10.372,13.803 9.970 L 14.047 9.240 15.345 9.240 C 16.710 9.240,16.812 9.228,17.014 9.048 C 17.130 8.946,17.238 8.680,17.238 8.500 C 17.238 8.320,17.130 8.054,17.014 7.952 C 16.807 7.768,16.728 7.760,15.131 7.763 C 14.300 7.765,13.575 7.781,13.520 7.797 " stroke="none" fill-rule="evenodd" fill="black"></path></svg>