<svg width="24" height="24" viewBox="0 0 24 24" fill="none" xmlns="http://www.w3.org/2000/svg"><path d="M11.320 1.281 C 7.041 1.525,3.252 4.409,1.843 8.497 C 1.180 10.418,1.082 12.560,1.564 14.550 C 2.505 18.428,5.572 21.495,9.450 22.436 C 11.106 22.837,12.894 22.837,14.550 22.436 C 18.745 21.419,21.956 17.924,22.617 13.657 C 22.786 12.565,22.769 11.194,22.574 10.080 C 22.233 8.146,21.317 6.293,19.943 4.760 C 19.021 3.731,17.750 2.803,16.495 2.243 C 16.098 2.066,15.956 2.047,15.729 2.142 C 15.300 2.321,15.137 2.790,15.362 3.200 C 15.454 3.368,15.506 3.403,16.120 3.722 C 17.150 4.256,17.814 4.731,18.518 5.440 C 19.715 6.645,20.583 8.165,20.973 9.740 C 21.314 11.119,21.335 12.602,21.034 13.998 C 20.745 15.343,20.003 16.855,19.121 17.900 C 18.247 18.935,17.240 19.726,16.060 20.304 C 14.761 20.940,13.462 21.240,12.000 21.240 C 10.538 21.240,9.236 20.940,7.940 20.304 C 5.123 18.921,3.232 16.278,2.822 13.146 C 2.699 12.214,2.756 10.974,2.966 10.002 C 3.253 8.667,3.978 7.178,4.847 6.140 C 6.161 4.569,7.843 3.504,9.773 3.021 C 10.008 2.962,10.220 2.920,10.244 2.928 C 10.267 2.936,10.085 3.194,9.839 3.501 C 9.366 4.092,9.306 4.185,9.262 4.387 C 9.202 4.667,9.425 5.068,9.708 5.186 C 9.875 5.256,10.128 5.255,10.291 5.185 C 10.471 5.107,10.581 4.982,11.690 3.590 C 12.769 2.236,12.805 2.173,12.714 1.814 C 12.631 1.481,12.265 1.223,11.912 1.246 C 11.862 1.250,11.595 1.265,11.320 1.281 M10.972 7.818 C 10.755 7.886,10.505 8.071,10.356 8.272 C 10.279 8.378,10.110 8.813,9.855 9.566 C 9.511 10.580,9.469 10.732,9.465 11.000 C 9.460 11.359,9.547 11.581,9.800 11.855 C 10.113 12.195,10.199 12.217,11.320 12.241 C 12.422 12.265,12.507 12.284,12.841 12.585 C 13.372 13.064,13.372 13.936,12.841 14.415 C 12.489 14.732,12.460 14.738,11.020 14.760 C 10.153 14.774,9.714 14.795,9.660 14.827 C 9.554 14.888,9.382 15.075,9.319 15.198 C 9.249 15.333,9.256 15.677,9.331 15.821 C 9.412 15.976,9.591 16.144,9.733 16.197 C 9.923 16.269,12.219 16.253,12.586 16.177 C 13.398 16.010,14.094 15.461,14.460 14.700 C 14.666 14.273,14.730 13.987,14.730 13.500 C 14.730 13.013,14.666 12.727,14.460 12.300 C 14.261 11.886,13.960 11.530,13.581 11.259 C 13.042 10.875,12.600 10.760,11.657 10.760 C 11.173 10.760,11.036 10.749,11.050 10.710 C 11.060 10.683,11.174 10.341,11.303 9.950 L 11.538 9.240 12.847 9.240 C 13.674 9.240,14.196 9.224,14.267 9.197 C 14.540 9.095,14.731 8.807,14.731 8.500 C 14.731 8.193,14.540 7.905,14.267 7.803 C 14.093 7.737,11.188 7.750,10.972 7.818 " stroke="none" fill-rule="evenodd" fill="black"></path></svg>