<svg width="24" height="24" viewBox="0 0 24 24" fill="none" xmlns="http://www.w3.org/2000/svg"><path d="M11.320 1.281 C 7.041 1.525,3.252 4.409,1.843 8.497 C 1.180 10.418,1.082 12.560,1.564 14.550 C 2.505 18.428,5.572 21.495,9.450 22.436 C 11.106 22.837,12.894 22.837,14.550 22.436 C 18.428 21.495,21.495 18.428,22.436 14.550 C 22.837 12.894,22.837 11.106,22.436 9.450 C 21.425 5.282,17.985 2.095,13.742 1.398 C 13.334 1.331,12.074 1.229,11.880 1.247 C 11.847 1.250,11.595 1.265,11.320 1.281 M13.146 2.822 C 14.201 2.960,15.125 3.237,16.060 3.696 C 18.877 5.079,20.768 7.722,21.178 10.854 C 21.301 11.786,21.244 13.026,21.034 13.998 C 20.745 15.343,20.003 16.855,19.121 17.900 C 18.247 18.935,17.240 19.726,16.060 20.304 C 14.761 20.940,13.462 21.240,12.000 21.240 C 10.538 21.240,9.236 20.940,7.940 20.304 C 5.123 18.921,3.232 16.278,2.822 13.146 C 2.699 12.214,2.756 10.974,2.966 10.002 C 3.177 9.020,3.703 7.775,4.268 6.920 C 5.750 4.677,8.131 3.188,10.820 2.823 C 11.380 2.746,12.569 2.746,13.146 2.822 M8.040 7.264 C 7.562 7.392,7.131 7.762,6.904 8.240 L 6.780 8.500 6.780 12.000 L 6.780 15.500 6.904 15.760 C 7.354 16.706,8.489 17.079,9.362 16.568 C 9.741 16.346,13.867 13.374,14.040 13.198 C 14.433 12.799,14.607 12.165,14.478 11.605 C 14.414 11.328,14.236 11.001,14.040 10.802 C 13.867 10.626,9.741 7.654,9.362 7.432 C 8.986 7.212,8.478 7.147,8.040 7.264 M12.720 7.384 C 12.423 7.513,12.269 7.746,12.269 8.066 C 12.269 8.468,12.259 8.460,14.132 9.800 C 15.070 10.471,15.899 11.081,15.976 11.155 C 16.412 11.580,16.412 12.420,15.976 12.845 C 15.899 12.919,15.070 13.529,14.132 14.200 C 12.259 15.540,12.269 15.532,12.269 15.934 C 12.269 16.258,12.425 16.491,12.729 16.618 C 12.914 16.695,13.082 16.697,13.260 16.623 C 13.335 16.591,14.149 16.030,15.068 15.374 C 17.004 13.995,17.212 13.812,17.497 13.235 C 17.904 12.410,17.904 11.590,17.497 10.765 C 17.212 10.188,17.004 10.005,15.068 8.626 C 14.149 7.970,13.335 7.409,13.260 7.377 C 13.085 7.304,12.898 7.307,12.720 7.384 M8.703 8.784 C 9.712 9.469,12.996 11.860,13.012 11.921 C 13.023 11.964,13.023 12.036,13.012 12.079 C 12.996 12.140,9.712 14.531,8.703 15.216 C 8.512 15.345,8.462 15.346,8.338 15.222 L 8.240 15.124 8.240 12.000 L 8.240 8.876 8.338 8.778 C 8.462 8.654,8.512 8.655,8.703 8.784 " stroke="none" fill-rule="evenodd" fill="black"></path></svg>