<svg width="24" height="24" viewBox="0 0 24 24" fill="none" xmlns="http://www.w3.org/2000/svg"><path d="M11.801 1.286 C 11.522 1.368,11.318 1.591,11.266 1.873 C 11.208 2.180,11.278 2.294,12.310 3.590 C 13.419 4.982,13.529 5.107,13.709 5.185 C 14.335 5.454,14.971 4.769,14.659 4.160 C 14.631 4.105,14.407 3.808,14.161 3.501 C 13.915 3.194,13.733 2.936,13.756 2.928 C 13.821 2.906,14.603 3.110,15.058 3.267 C 15.611 3.457,16.575 3.934,17.080 4.268 C 19.338 5.760,20.824 8.147,21.178 10.854 C 21.301 11.786,21.244 13.026,21.034 13.998 C 20.745 15.343,20.003 16.855,19.121 17.900 C 18.247 18.935,17.240 19.726,16.060 20.304 C 14.761 20.940,13.462 21.240,12.000 21.240 C 10.538 21.240,9.236 20.940,7.940 20.304 C 5.123 18.921,3.232 16.278,2.822 13.146 C 2.718 12.353,2.743 11.229,2.884 10.400 C 3.194 8.578,4.119 6.811,5.482 5.440 C 6.189 4.729,6.917 4.209,7.921 3.701 C 8.561 3.377,8.634 3.312,8.723 2.988 C 8.778 2.786,8.685 2.458,8.531 2.311 C 8.394 2.179,8.164 2.080,7.997 2.080 C 7.754 2.080,6.722 2.598,5.995 3.085 C 3.621 4.673,1.919 7.278,1.426 10.080 C 1.231 11.190,1.213 12.565,1.380 13.640 C 2.045 17.927,5.248 21.417,9.450 22.436 C 11.106 22.837,12.894 22.837,14.550 22.436 C 18.428 21.495,21.495 18.428,22.436 14.550 C 22.837 12.894,22.837 11.106,22.436 9.450 C 21.427 5.289,17.977 2.090,13.758 1.401 C 13.051 1.286,12.012 1.225,11.801 1.286 M10.972 7.818 C 10.755 7.886,10.505 8.071,10.356 8.272 C 10.279 8.378,10.110 8.813,9.855 9.566 C 9.511 10.580,9.469 10.732,9.465 11.000 C 9.460 11.359,9.547 11.581,9.800 11.855 C 10.113 12.195,10.199 12.217,11.320 12.241 C 12.422 12.265,12.507 12.284,12.841 12.585 C 13.372 13.064,13.372 13.936,12.841 14.415 C 12.489 14.732,12.460 14.738,11.020 14.760 C 10.153 14.774,9.714 14.795,9.660 14.827 C 9.554 14.888,9.382 15.075,9.319 15.198 C 9.249 15.333,9.256 15.677,9.331 15.821 C 9.412 15.976,9.591 16.144,9.733 16.197 C 9.923 16.269,12.219 16.253,12.586 16.177 C 13.398 16.010,14.094 15.461,14.460 14.700 C 14.666 14.273,14.730 13.987,14.730 13.500 C 14.730 13.013,14.666 12.727,14.460 12.300 C 14.261 11.886,13.960 11.530,13.581 11.259 C 13.042 10.875,12.600 10.760,11.657 10.760 C 11.173 10.760,11.036 10.749,11.050 10.710 C 11.060 10.683,11.174 10.341,11.303 9.950 L 11.538 9.240 12.847 9.240 C 13.674 9.240,14.196 9.224,14.267 9.197 C 14.540 9.095,14.731 8.807,14.731 8.500 C 14.731 8.193,14.540 7.905,14.267 7.803 C 14.093 7.737,11.188 7.750,10.972 7.818 " stroke="none" fill-rule="evenodd" fill="black"></path></svg>