<svg width="24" height="24" viewBox="0 0 24 24" fill="none" xmlns="http://www.w3.org/2000/svg"><path d="M3.734 4.357 C 2.838 4.600,2.178 5.259,1.842 6.248 C 1.601 6.956,1.485 7.837,1.316 10.240 C 1.256 11.088,1.256 12.912,1.316 13.760 C 1.485 16.163,1.601 17.044,1.842 17.752 C 2.190 18.777,2.897 19.456,3.833 19.664 C 4.061 19.715,4.248 19.725,4.635 19.709 C 5.447 19.674,5.976 19.499,7.780 18.672 C 9.010 18.107,10.284 17.460,11.056 17.006 C 11.362 16.826,11.616 16.684,11.620 16.690 C 11.625 16.695,11.650 16.790,11.676 16.900 C 11.750 17.207,12.054 17.797,12.258 18.027 C 12.658 18.479,13.199 18.723,13.804 18.724 C 14.426 18.725,14.883 18.570,16.069 17.959 C 17.659 17.138,18.683 16.497,20.180 15.384 C 21.700 14.253,22.173 13.781,22.496 13.074 C 22.673 12.687,22.733 12.413,22.733 12.000 C 22.733 11.589,22.673 11.313,22.499 10.933 C 22.170 10.212,21.723 9.765,20.180 8.617 C 18.687 7.505,17.661 6.862,16.069 6.041 C 14.882 5.429,14.435 5.276,13.827 5.276 C 13.199 5.276,12.664 5.514,12.258 5.973 C 12.054 6.203,11.750 6.793,11.676 7.100 C 11.650 7.210,11.625 7.305,11.620 7.310 C 11.616 7.316,11.362 7.174,11.056 6.994 C 9.457 6.056,6.555 4.705,5.520 4.418 C 4.993 4.271,4.156 4.243,3.734 4.357 M5.040 5.837 C 5.703 6.004,7.830 6.954,9.400 7.783 C 9.847 8.020,11.318 8.874,11.393 8.941 C 11.400 8.947,11.375 9.382,11.338 9.906 C 11.249 11.147,11.249 12.853,11.338 14.094 C 11.375 14.618,11.400 15.052,11.393 15.058 C 11.338 15.101,10.353 15.689,9.972 15.905 C 9.325 16.273,8.036 16.912,6.980 17.390 C 5.402 18.104,4.904 18.265,4.380 18.231 C 3.628 18.183,3.240 17.643,3.063 16.400 C 2.986 15.860,2.855 14.427,2.796 13.480 C 2.691 11.797,2.874 8.416,3.138 7.160 C 3.383 5.994,3.990 5.572,5.040 5.837 M14.140 6.805 C 14.520 6.910,15.683 7.494,16.820 8.151 C 18.111 8.896,20.300 10.505,20.828 11.099 C 21.132 11.439,21.220 11.642,21.220 12.000 C 21.220 12.358,21.132 12.561,20.828 12.901 C 20.300 13.494,18.114 15.103,16.820 15.850 C 15.719 16.486,14.511 17.092,14.140 17.195 C 13.449 17.387,13.142 17.007,12.982 15.760 C 12.834 14.619,12.782 13.637,12.782 12.000 C 12.782 10.363,12.834 9.381,12.982 8.240 C 13.142 6.994,13.450 6.613,14.140 6.805 " stroke="none" fill-rule="evenodd" fill="black"></path></svg>