<svg width="24" height="24" viewBox="0 0 24 24" fill="none" xmlns="http://www.w3.org/2000/svg"><path d="M11.801 1.286 C 11.522 1.368,11.318 1.591,11.266 1.873 C 11.208 2.180,11.278 2.294,12.310 3.590 C 13.419 4.982,13.529 5.107,13.709 5.185 C 14.335 5.454,14.971 4.769,14.659 4.160 C 14.631 4.105,14.407 3.808,14.161 3.501 C 13.915 3.194,13.733 2.936,13.756 2.928 C 13.821 2.906,14.603 3.110,15.058 3.267 C 15.611 3.457,16.575 3.934,17.080 4.268 C 19.338 5.760,20.824 8.147,21.178 10.854 C 21.301 11.786,21.244 13.026,21.034 13.998 C 20.745 15.343,20.003 16.855,19.121 17.900 C 18.247 18.935,17.240 19.726,16.060 20.304 C 14.761 20.940,13.462 21.240,12.000 21.240 C 10.538 21.240,9.236 20.940,7.940 20.304 C 5.123 18.921,3.232 16.278,2.822 13.146 C 2.718 12.353,2.743 11.229,2.884 10.400 C 3.194 8.578,4.119 6.811,5.482 5.440 C 6.189 4.729,6.917 4.209,7.921 3.701 C 8.561 3.377,8.634 3.312,8.723 2.988 C 8.778 2.786,8.685 2.458,8.531 2.311 C 8.394 2.179,8.164 2.080,7.997 2.080 C 7.754 2.080,6.722 2.598,5.995 3.085 C 3.621 4.673,1.919 7.278,1.426 10.080 C 1.231 11.190,1.213 12.565,1.380 13.640 C 2.045 17.927,5.248 21.417,9.450 22.436 C 11.106 22.837,12.894 22.837,14.550 22.436 C 18.428 21.495,21.495 18.428,22.436 14.550 C 22.837 12.894,22.837 11.106,22.436 9.450 C 21.427 5.289,17.977 2.090,13.758 1.401 C 13.051 1.286,12.012 1.225,11.801 1.286 M9.746 7.788 C 9.705 7.799,9.047 8.307,8.282 8.919 C 7.076 9.884,6.884 10.052,6.826 10.196 C 6.579 10.813,7.135 11.412,7.754 11.196 C 7.823 11.172,8.181 10.911,8.550 10.616 L 9.220 10.080 9.240 12.890 C 9.262 15.977,9.247 15.802,9.506 16.047 C 9.711 16.241,10.027 16.297,10.292 16.186 C 10.447 16.121,10.667 15.881,10.709 15.729 C 10.749 15.587,10.749 8.413,10.709 8.271 C 10.667 8.119,10.447 7.879,10.292 7.814 C 10.167 7.762,9.898 7.749,9.746 7.788 M13.520 7.797 C 13.239 7.883,12.966 8.089,12.813 8.331 C 12.759 8.417,12.551 8.968,12.351 9.554 C 11.998 10.590,11.988 10.631,11.984 11.000 C 11.980 11.346,11.990 11.397,12.090 11.566 C 12.258 11.853,12.374 11.973,12.607 12.102 L 12.820 12.220 13.800 12.245 C 14.339 12.258,14.825 12.284,14.880 12.301 C 15.088 12.366,15.398 12.609,15.534 12.813 C 15.913 13.385,15.758 14.156,15.188 14.533 C 14.882 14.735,14.691 14.760,13.457 14.760 C 12.304 14.760,12.184 14.776,11.986 14.952 C 11.775 15.139,11.706 15.538,11.835 15.820 C 11.923 16.010,12.012 16.096,12.210 16.178 C 12.419 16.266,14.684 16.267,15.100 16.180 C 15.877 16.018,16.590 15.451,16.963 14.700 C 17.632 13.351,17.069 11.717,15.700 11.037 C 15.260 10.819,14.947 10.762,14.190 10.761 C 13.843 10.760,13.560 10.747,13.560 10.730 C 13.560 10.714,13.669 10.372,13.803 9.970 L 14.047 9.240 15.345 9.240 C 16.710 9.240,16.812 9.228,17.014 9.048 C 17.130 8.946,17.238 8.680,17.238 8.500 C 17.238 8.320,17.130 8.054,17.014 7.952 C 16.807 7.768,16.728 7.760,15.131 7.763 C 14.300 7.765,13.575 7.781,13.520 7.797 " stroke="none" fill-rule="evenodd" fill="black"></path></svg>