<svg width="24" height="24" viewBox="0 0 24 24" fill="none" xmlns="http://www.w3.org/2000/svg"><path d="M18.800 4.343 C 18.657 4.373,18.414 4.437,18.260 4.483 C 17.291 4.775,14.389 6.146,12.944 6.994 C 12.638 7.174,12.384 7.316,12.380 7.310 C 12.376 7.305,12.350 7.210,12.322 7.100 C 12.240 6.779,11.940 6.197,11.742 5.973 C 11.336 5.514,10.801 5.276,10.173 5.276 C 9.565 5.276,9.118 5.429,7.931 6.041 C 6.339 6.862,5.313 7.505,3.820 8.617 C 2.277 9.765,1.830 10.212,1.501 10.933 C 1.327 11.313,1.267 11.589,1.267 12.000 C 1.267 12.411,1.327 12.687,1.501 13.067 C 1.830 13.788,2.277 14.235,3.820 15.383 C 5.313 16.495,6.339 17.138,7.931 17.959 C 9.117 18.570,9.574 18.725,10.196 18.724 C 10.801 18.723,11.342 18.479,11.742 18.027 C 11.940 17.803,12.240 17.221,12.322 16.900 C 12.350 16.790,12.376 16.695,12.380 16.690 C 12.384 16.684,12.638 16.826,12.944 17.006 C 14.546 17.946,17.450 19.297,18.480 19.582 C 18.991 19.723,19.738 19.760,20.167 19.664 C 21.291 19.414,22.054 18.511,22.334 17.100 C 22.490 16.317,22.646 14.627,22.720 12.930 C 22.792 11.289,22.595 8.214,22.334 6.900 C 22.061 5.520,21.335 4.635,20.250 4.357 C 19.886 4.264,19.195 4.257,18.800 4.343 M20.113 5.900 C 20.700 6.220,20.886 6.797,21.077 8.900 C 21.300 11.339,21.300 12.661,21.077 15.100 C 20.886 17.200,20.700 17.780,20.116 18.099 C 19.703 18.323,19.162 18.279,18.320 17.951 C 17.305 17.557,15.009 16.462,14.028 15.905 C 13.647 15.689,12.662 15.101,12.607 15.058 C 12.600 15.052,12.625 14.618,12.662 14.094 C 12.751 12.853,12.751 11.147,12.662 9.906 C 12.625 9.382,12.600 8.947,12.607 8.941 C 12.682 8.874,14.159 8.017,14.623 7.771 C 16.109 6.984,18.268 6.017,18.940 5.837 C 19.365 5.723,19.835 5.748,20.113 5.900 M10.440 6.820 C 10.777 6.994,10.943 7.473,11.058 8.600 C 11.191 9.903,11.220 10.510,11.220 12.000 C 11.220 13.490,11.191 14.097,11.058 15.400 C 10.943 16.527,10.777 17.006,10.440 17.180 C 10.123 17.344,9.644 17.185,8.314 16.477 C 6.923 15.736,6.116 15.226,4.880 14.308 C 3.564 13.331,3.084 12.895,2.877 12.490 C 2.739 12.220,2.739 11.780,2.877 11.510 C 3.084 11.105,3.564 10.669,4.880 9.692 C 6.127 8.766,6.937 8.255,8.340 7.511 C 9.672 6.804,10.123 6.656,10.440 6.820 " stroke="none" fill-rule="evenodd" fill="black"></path></svg>