<svg width="24" height="24" viewBox="0 0 24 24" fill="none" xmlns="http://www.w3.org/2000/svg"><path d="M11.320 1.281 C 7.041 1.525,3.252 4.409,1.843 8.497 C 1.180 10.418,1.082 12.560,1.564 14.550 C 2.505 18.428,5.572 21.495,9.450 22.436 C 11.106 22.837,12.894 22.837,14.550 22.436 C 18.428 21.495,21.495 18.428,22.436 14.550 C 22.837 12.894,22.837 11.106,22.436 9.450 C 21.425 5.282,17.985 2.095,13.742 1.398 C 13.334 1.331,12.074 1.229,11.880 1.247 C 11.847 1.250,11.595 1.265,11.320 1.281 M13.146 2.822 C 14.201 2.960,15.125 3.237,16.060 3.696 C 18.877 5.079,20.768 7.722,21.178 10.854 C 21.301 11.786,21.244 13.026,21.034 13.998 C 20.745 15.343,20.003 16.855,19.121 17.900 C 18.247 18.935,17.240 19.726,16.060 20.304 C 14.761 20.940,13.462 21.240,12.000 21.240 C 10.538 21.240,9.236 20.940,7.940 20.304 C 5.123 18.921,3.232 16.278,2.822 13.146 C 2.699 12.214,2.756 10.974,2.966 10.002 C 3.177 9.020,3.703 7.775,4.268 6.920 C 5.750 4.677,8.131 3.188,10.820 2.823 C 11.380 2.746,12.569 2.746,13.146 2.822 M15.042 7.261 C 14.923 7.295,14.741 7.371,14.639 7.431 C 14.259 7.653,10.133 10.626,9.960 10.802 C 9.764 11.001,9.586 11.328,9.522 11.605 C 9.393 12.165,9.567 12.799,9.960 13.198 C 10.133 13.374,14.259 16.347,14.639 16.569 C 15.533 17.093,16.732 16.669,17.127 15.690 L 17.220 15.460 17.220 12.000 L 17.220 8.540 17.127 8.310 C 16.948 7.867,16.563 7.487,16.120 7.316 C 15.830 7.205,15.334 7.179,15.042 7.261 M10.731 7.379 C 10.661 7.410,9.851 7.971,8.931 8.626 C 6.996 10.005,6.788 10.188,6.503 10.765 C 6.096 11.590,6.096 12.410,6.503 13.235 C 6.788 13.812,6.996 13.995,8.932 15.374 C 9.851 16.030,10.665 16.591,10.740 16.623 C 10.918 16.697,11.086 16.695,11.271 16.618 C 11.573 16.492,11.731 16.258,11.731 15.941 C 11.731 15.532,11.735 15.535,9.893 14.221 C 8.973 13.565,8.145 12.956,8.052 12.868 C 7.810 12.636,7.702 12.370,7.702 12.000 C 7.702 11.620,7.815 11.351,8.074 11.111 C 8.176 11.017,9.000 10.412,9.904 9.767 C 11.718 8.473,11.731 8.461,11.731 8.063 C 11.731 7.742,11.574 7.509,11.271 7.382 C 11.089 7.306,10.902 7.305,10.731 7.379 M15.662 8.778 L 15.760 8.876 15.760 12.000 L 15.760 15.124 15.662 15.222 C 15.538 15.346,15.488 15.345,15.297 15.216 C 14.288 14.531,11.004 12.140,10.988 12.079 C 10.977 12.036,10.977 11.963,10.989 11.918 C 11.002 11.867,11.788 11.282,13.095 10.350 C 15.536 8.610,15.435 8.680,15.507 8.680 C 15.538 8.680,15.608 8.724,15.662 8.778 " stroke="none" fill-rule="evenodd" fill="black"></path></svg>