<svg width="24" height="24" viewBox="0 0 24 24" fill="none" xmlns="http://www.w3.org/2000/svg"><path d="M16.149 1.281 C 15.320 1.342,14.766 1.543,14.140 2.009 C 13.986 2.123,13.041 3.031,12.040 4.026 L 10.219 5.835 9.820 5.576 C 8.708 4.856,8.056 4.518,7.520 4.387 C 6.737 4.195,5.709 4.298,4.980 4.643 C 4.443 4.897,3.702 5.517,2.351 6.845 C 1.624 7.560,1.507 7.692,1.402 7.920 C 1.141 8.487,1.224 9.087,1.628 9.559 C 1.806 9.767,1.993 9.886,2.381 10.040 C 3.225 10.376,3.573 10.610,4.315 11.340 L 4.890 11.906 4.899 12.303 C 4.915 12.949,5.129 13.430,5.716 14.137 C 6.079 14.574,7.967 16.493,9.018 17.492 C 10.318 18.727,10.825 19.028,11.651 19.057 L 12.002 19.069 12.327 19.344 C 12.744 19.699,13.267 20.284,13.500 20.658 C 13.601 20.819,13.782 21.191,13.903 21.484 C 14.202 22.208,14.357 22.405,14.780 22.604 C 15.234 22.818,15.745 22.786,16.165 22.517 C 16.357 22.394,17.715 21.034,18.303 20.377 C 18.772 19.854,19.097 19.434,19.256 19.149 C 19.560 18.603,19.747 17.748,19.703 17.094 C 19.648 16.262,19.415 15.707,18.555 14.362 L 18.159 13.744 19.992 11.902 C 21.000 10.889,21.918 9.934,22.032 9.780 C 22.472 9.185,22.648 8.690,22.723 7.838 C 22.790 7.085,22.750 4.112,22.667 3.599 C 22.440 2.205,21.707 1.512,20.260 1.320 C 19.844 1.265,16.758 1.235,16.149 1.281 M20.320 2.839 C 20.839 2.952,21.063 3.190,21.167 3.740 C 21.242 4.135,21.243 7.880,21.169 8.203 C 21.050 8.720,21.105 8.660,16.862 12.902 C 14.683 15.080,12.756 16.978,12.580 17.118 C 11.875 17.680,11.533 17.692,10.899 17.179 C 10.549 16.896,9.360 15.756,9.360 15.704 C 9.360 15.679,9.713 15.308,10.144 14.880 C 10.940 14.088,11.077 13.908,11.079 13.649 C 11.081 13.385,10.903 13.096,10.660 12.970 C 10.514 12.894,10.137 12.887,10.000 12.958 C 9.945 12.987,9.529 13.378,9.076 13.828 L 8.252 14.645 7.641 14.013 C 6.241 12.563,6.148 12.302,6.744 11.509 C 7.025 11.134,14.808 3.369,15.125 3.146 C 15.427 2.934,15.637 2.849,15.980 2.801 C 16.347 2.749,20.054 2.781,20.320 2.839 M15.256 5.539 C 14.454 5.714,13.778 6.244,13.418 6.980 C 13.134 7.562,13.062 8.081,13.183 8.672 C 13.382 9.637,14.054 10.401,14.975 10.708 C 15.262 10.804,15.361 10.816,15.820 10.816 C 16.279 10.816,16.378 10.804,16.665 10.708 C 17.586 10.401,18.258 9.637,18.457 8.672 C 18.577 8.085,18.505 7.568,18.221 6.980 C 17.691 5.883,16.449 5.280,15.256 5.539 M7.243 5.863 C 7.515 5.943,7.957 6.175,8.600 6.577 C 8.875 6.749,9.108 6.897,9.117 6.905 C 9.127 6.914,8.369 7.690,7.433 8.631 C 6.497 9.571,5.710 10.382,5.683 10.433 C 5.635 10.525,5.625 10.518,5.206 10.110 C 4.971 9.881,4.627 9.582,4.442 9.446 C 4.091 9.189,3.443 8.840,3.010 8.676 C 2.873 8.623,2.760 8.568,2.760 8.554 C 2.760 8.525,4.221 7.113,4.609 6.767 C 4.943 6.468,5.430 6.087,5.567 6.017 C 5.957 5.815,6.809 5.737,7.243 5.863 M16.248 7.062 C 16.678 7.209,17.000 7.677,17.000 8.156 C 17.000 8.824,16.488 9.335,15.820 9.335 C 15.337 9.335,14.960 9.097,14.754 8.660 C 14.461 8.042,14.764 7.281,15.390 7.057 C 15.594 6.984,16.027 6.987,16.248 7.062 M17.449 15.420 C 18.080 16.428,18.224 16.821,18.188 17.440 C 18.137 18.317,17.911 18.657,16.208 20.403 L 15.417 21.214 15.227 20.754 C 14.900 19.964,14.576 19.482,13.887 18.757 L 13.485 18.333 14.153 17.709 C 14.520 17.365,15.324 16.579,15.939 15.963 C 16.799 15.101,17.069 14.853,17.103 14.891 C 17.128 14.918,17.283 15.156,17.449 15.420 " fill="#1C274C" stroke="none" fill-rule="evenodd"></path></svg>