<svg width="24" height="24" viewBox="0 0 24 24" fill="none" xmlns="http://www.w3.org/2000/svg"><path d="M16.874 1.282 C 16.100 1.338,15.624 1.523,15.021 2.002 C 14.856 2.133,14.048 2.907,13.225 3.721 L 11.730 5.201 11.195 4.858 C 10.548 4.443,9.800 4.071,9.420 3.975 C 9.012 3.872,8.252 3.882,7.782 3.996 C 7.076 4.167,6.611 4.470,5.580 5.429 C 4.589 6.351,4.095 6.878,3.972 7.142 C 3.814 7.485,3.816 7.916,3.978 8.271 C 4.137 8.620,4.449 8.904,4.842 9.057 C 5.577 9.342,5.948 9.588,6.606 10.229 C 7.024 10.637,7.031 10.647,7.011 10.799 C 6.947 11.275,7.243 11.994,7.753 12.600 C 8.175 13.102,11.053 15.959,11.455 16.276 C 12.002 16.706,12.524 16.920,13.029 16.920 L 13.282 16.920 13.780 17.405 C 14.335 17.945,14.576 18.283,14.817 18.860 C 15.144 19.639,15.268 19.803,15.674 19.994 C 15.866 20.084,15.954 20.100,16.260 20.100 C 16.747 20.100,16.899 20.022,17.455 19.482 C 18.053 18.903,18.967 17.927,19.316 17.497 C 19.841 16.848,20.091 16.157,20.094 15.340 C 20.098 14.478,19.897 13.952,19.075 12.672 C 18.924 12.437,18.800 12.230,18.799 12.212 C 18.799 12.195,19.472 11.514,20.294 10.700 C 21.801 9.209,22.190 8.777,22.397 8.365 C 22.697 7.771,22.760 7.280,22.760 5.536 C 22.760 3.212,22.634 2.597,22.035 1.990 C 21.561 1.510,21.087 1.346,19.980 1.281 C 19.238 1.237,17.493 1.238,16.874 1.282 M20.281 2.802 C 20.642 2.848,20.897 2.940,21.008 3.065 C 21.046 3.108,21.107 3.250,21.145 3.381 C 21.203 3.584,21.216 3.867,21.230 5.268 C 21.248 7.049,21.227 7.351,21.060 7.680 C 21.006 7.787,20.813 8.033,20.631 8.227 C 19.802 9.112,13.836 15.001,13.600 15.167 C 13.259 15.406,13.088 15.462,12.890 15.398 C 12.646 15.319,12.279 15.033,11.680 14.453 L 11.117 13.908 11.814 13.204 C 12.527 12.483,12.601 12.378,12.599 12.080 C 12.598 11.943,12.471 11.679,12.355 11.572 C 12.240 11.466,11.997 11.360,11.871 11.360 C 11.578 11.361,11.473 11.435,10.758 12.144 L 10.057 12.840 9.516 12.290 C 8.398 11.154,8.335 10.984,8.792 10.340 C 8.952 10.114,13.577 5.456,15.081 4.006 C 16.129 2.995,16.309 2.862,16.707 2.804 C 17.050 2.754,19.883 2.753,20.281 2.802 M16.114 4.978 C 15.410 5.125,14.753 5.640,14.450 6.280 C 14.244 6.715,14.195 6.928,14.196 7.378 C 14.200 8.532,15.028 9.520,16.180 9.744 C 17.497 10.000,18.793 9.089,19.025 7.744 C 19.226 6.577,18.522 5.429,17.368 5.042 C 17.040 4.932,16.470 4.903,16.114 4.978 M9.482 5.607 C 9.915 5.819,10.613 6.244,10.609 6.294 C 10.608 6.312,9.960 6.978,9.170 7.774 L 7.733 9.222 7.376 8.890 C 6.829 8.379,6.119 7.925,5.551 7.722 L 5.420 7.675 6.117 6.992 C 6.858 6.267,7.406 5.790,7.689 5.624 C 7.970 5.459,8.254 5.400,8.702 5.411 C 9.090 5.421,9.117 5.428,9.482 5.607 M16.991 6.502 C 17.198 6.589,17.354 6.746,17.465 6.980 C 17.591 7.247,17.588 7.487,17.456 7.752 C 17.213 8.241,16.684 8.417,16.197 8.170 C 15.499 7.816,15.536 6.812,16.260 6.496 C 16.425 6.424,16.811 6.427,16.991 6.502 M2.129 12.226 C 1.953 12.313,1.581 12.722,1.458 12.963 C 1.157 13.557,1.198 14.288,1.561 14.820 C 2.108 15.622,3.084 15.860,3.980 15.411 C 4.225 15.288,6.084 13.463,6.207 13.224 C 6.302 13.040,6.311 12.736,6.226 12.572 C 6.160 12.446,5.983 12.272,5.853 12.205 C 5.731 12.143,5.383 12.149,5.229 12.216 C 5.158 12.247,4.704 12.671,4.220 13.159 C 3.736 13.646,3.290 14.072,3.228 14.105 C 3.025 14.212,2.760 14.048,2.760 13.815 C 2.760 13.716,2.807 13.631,2.956 13.461 C 3.255 13.119,3.296 12.809,3.087 12.471 C 2.913 12.189,2.446 12.070,2.129 12.226 M7.174 13.160 C 7.105 13.176,6.988 13.226,6.914 13.272 C 6.714 13.397,4.620 15.518,4.540 15.677 C 4.437 15.881,4.450 16.162,4.574 16.373 C 4.693 16.577,4.807 16.661,5.055 16.727 C 5.419 16.824,5.451 16.801,6.754 15.506 C 7.948 14.321,8.077 14.163,8.079 13.889 C 8.081 13.634,7.901 13.334,7.680 13.222 C 7.544 13.153,7.326 13.127,7.174 13.160 M18.016 13.812 C 18.446 14.514,18.564 14.791,18.590 15.163 C 18.634 15.810,18.470 16.201,17.865 16.889 C 17.492 17.315,16.361 18.480,16.322 18.480 C 16.307 18.480,16.234 18.340,16.161 18.170 C 15.884 17.528,15.553 17.046,15.048 16.546 L 14.730 16.232 16.195 14.777 C 17.001 13.977,17.672 13.322,17.687 13.321 C 17.702 13.321,17.850 13.541,18.016 13.812 M9.760 15.999 C 9.683 16.040,9.104 16.593,8.473 17.227 C 7.464 18.242,7.321 18.401,7.280 18.556 C 7.133 19.114,7.639 19.628,8.188 19.480 C 8.363 19.432,8.485 19.323,9.533 18.284 C 10.168 17.655,10.721 17.073,10.763 16.992 C 10.848 16.828,10.863 16.547,10.797 16.373 C 10.654 15.996,10.122 15.804,9.760 15.999 M6.560 16.405 C 6.348 16.533,4.599 18.282,4.535 18.429 C 4.317 18.937,4.800 19.559,5.336 19.458 C 5.575 19.413,5.742 19.274,6.677 18.345 C 7.331 17.694,7.611 17.389,7.644 17.289 C 7.749 16.969,7.601 16.577,7.305 16.397 C 7.127 16.288,6.747 16.292,6.560 16.405 M10.737 17.801 C 10.495 17.921,8.680 19.763,8.550 20.020 C 8.253 20.609,8.245 21.220,8.528 21.776 C 8.626 21.968,8.926 22.293,9.140 22.439 C 9.676 22.805,10.402 22.843,11.007 22.536 C 11.313 22.381,11.742 21.943,11.799 21.727 C 11.923 21.259,11.568 20.800,11.084 20.800 C 10.842 20.800,10.686 20.870,10.451 21.085 C 10.325 21.200,10.248 21.240,10.148 21.240 C 9.964 21.240,9.840 21.103,9.840 20.900 C 9.840 20.752,9.879 20.706,10.796 19.783 C 11.583 18.990,11.760 18.792,11.796 18.660 C 11.849 18.464,11.850 18.456,11.798 18.269 C 11.745 18.081,11.543 17.845,11.372 17.774 C 11.186 17.696,10.925 17.707,10.737 17.801 " fill="#1C274C" stroke="none" fill-rule="evenodd"></path></svg>