<svg width="24" height="24" viewBox="0 0 24 24" fill="none" xmlns="http://www.w3.org/2000/svg"><path d="M19.240 1.279 C 18.766 1.341,18.256 1.544,17.879 1.821 C 17.550 2.062,17.243 2.436,16.440 3.572 C 16.011 4.180,15.647 4.677,15.632 4.678 C 15.617 4.679,15.524 4.626,15.426 4.560 C 14.915 4.215,14.401 4.064,13.822 4.089 C 13.181 4.116,12.664 4.339,11.971 4.889 C 11.622 5.166,6.107 10.640,5.331 11.480 C 4.759 12.099,4.416 12.593,4.234 13.056 C 4.073 13.470,4.032 14.068,4.136 14.480 C 4.211 14.776,4.438 15.278,4.583 15.467 C 4.636 15.537,4.679 15.609,4.678 15.627 C 4.677 15.645,4.180 16.011,3.572 16.440 C 2.135 17.456,1.857 17.713,1.565 18.304 C 0.989 19.469,1.239 20.808,2.216 21.784 C 3.193 22.762,4.530 23.013,5.690 22.438 C 6.288 22.141,6.542 21.868,7.560 20.428 C 7.989 19.820,8.355 19.323,8.373 19.322 C 8.391 19.321,8.463 19.364,8.533 19.417 C 8.716 19.557,9.220 19.787,9.498 19.859 C 9.630 19.892,9.888 19.920,10.073 19.920 C 10.879 19.920,11.515 19.594,12.524 18.664 C 12.819 18.392,14.375 16.849,15.982 15.235 C 19.048 12.157,19.356 11.817,19.655 11.191 C 19.843 10.797,19.920 10.473,19.920 10.073 C 19.920 9.559,19.753 9.037,19.440 8.574 C 19.374 8.476,19.321 8.383,19.322 8.368 C 19.323 8.353,19.820 7.989,20.428 7.560 C 21.564 6.757,21.938 6.450,22.179 6.121 C 22.883 5.162,22.921 3.806,22.271 2.810 C 21.719 1.964,20.864 1.399,19.960 1.281 C 19.626 1.238,19.557 1.238,19.240 1.279 M20.214 2.890 C 20.505 3.026,20.945 3.456,21.103 3.760 C 21.206 3.958,21.218 4.019,21.219 4.380 C 21.220 4.735,21.208 4.805,21.112 5.000 C 21.052 5.121,20.917 5.304,20.812 5.406 C 20.706 5.508,20.100 5.962,19.465 6.415 L 18.311 7.238 17.933 6.841 C 17.726 6.623,17.377 6.274,17.159 6.067 L 16.762 5.689 17.585 4.535 C 18.419 3.365,18.633 3.102,18.873 2.952 C 19.234 2.728,19.807 2.701,20.214 2.890 M14.209 5.602 C 14.485 5.679,14.937 6.030,15.743 6.792 C 16.665 7.667,17.848 8.905,18.109 9.271 C 18.324 9.571,18.440 9.860,18.440 10.090 C 18.440 10.301,18.279 10.649,18.019 11.000 C 17.767 11.339,11.339 17.767,11.000 18.019 C 10.309 18.531,9.949 18.562,9.351 18.162 C 8.725 17.744,6.257 15.275,5.838 14.649 C 5.438 14.052,5.469 13.692,5.981 13.000 C 6.232 12.661,12.661 6.232,13.000 5.981 C 13.508 5.606,13.843 5.500,14.209 5.602 M6.841 17.933 L 7.238 18.311 6.415 19.465 C 5.962 20.100,5.508 20.706,5.406 20.812 C 5.304 20.917,5.121 21.052,5.000 21.112 C 4.808 21.206,4.732 21.220,4.400 21.220 C 4.070 21.220,3.990 21.206,3.786 21.111 C 3.496 20.975,3.056 20.544,2.896 20.240 C 2.791 20.040,2.780 19.984,2.780 19.620 C 2.780 19.266,2.792 19.195,2.888 19.000 C 2.948 18.879,3.083 18.696,3.188 18.594 C 3.294 18.492,3.900 18.038,4.535 17.585 L 5.689 16.762 6.067 17.159 C 6.274 17.377,6.623 17.726,6.841 17.933 " stroke="none" fill-rule="evenodd" fill="black"></path></svg>