<svg width="24" height="24" viewBox="0 0 24 24" fill="none" xmlns="http://www.w3.org/2000/svg"><path d="M11.320 1.281 C 7.041 1.525,3.252 4.409,1.843 8.497 C 1.180 10.418,1.082 12.560,1.564 14.550 C 2.505 18.428,5.572 21.495,9.450 22.436 C 11.106 22.837,12.894 22.837,14.550 22.436 C 18.428 21.495,21.495 18.428,22.436 14.550 C 22.837 12.894,22.837 11.106,22.436 9.450 C 21.425 5.282,17.985 2.095,13.742 1.398 C 13.334 1.331,12.074 1.229,11.880 1.247 C 11.847 1.250,11.595 1.265,11.320 1.281 M13.146 2.822 C 14.201 2.960,15.125 3.237,16.060 3.696 C 18.877 5.079,20.768 7.722,21.178 10.854 C 21.301 11.786,21.244 13.026,21.034 13.998 C 20.745 15.343,20.003 16.855,19.121 17.900 C 18.247 18.935,17.240 19.726,16.060 20.304 C 14.761 20.940,13.462 21.240,12.000 21.240 C 10.538 21.240,9.236 20.940,7.940 20.304 C 5.123 18.921,3.232 16.278,2.822 13.146 C 2.699 12.214,2.756 10.974,2.966 10.002 C 3.177 9.020,3.703 7.775,4.268 6.920 C 5.750 4.677,8.131 3.188,10.820 2.823 C 11.380 2.746,12.569 2.746,13.146 2.822 M8.815 8.277 C 8.638 8.320,8.462 8.456,8.353 8.631 L 8.260 8.780 8.260 11.200 C 8.260 12.531,8.274 13.669,8.291 13.729 C 8.333 13.881,8.553 14.121,8.708 14.186 C 8.973 14.297,9.289 14.241,9.494 14.047 C 9.742 13.812,9.739 13.834,9.752 12.263 L 9.765 10.826 12.192 13.249 C 14.529 15.581,14.627 15.673,14.810 15.711 C 15.390 15.831,15.831 15.390,15.711 14.810 C 15.673 14.627,15.581 14.529,13.249 12.192 L 10.826 9.765 12.263 9.752 C 13.834 9.739,13.812 9.742,14.047 9.494 C 14.309 9.217,14.309 8.783,14.047 8.506 C 13.803 8.248,13.935 8.261,11.320 8.253 C 10.011 8.250,8.884 8.260,8.815 8.277 " stroke="none" fill-rule="evenodd" fill="black"></path></svg>