<svg width="24" height="24" viewBox="0 0 24 24" fill="none" xmlns="http://www.w3.org/2000/svg"><path d="M11.320 1.281 C 7.041 1.525,3.252 4.409,1.843 8.497 C 1.180 10.418,1.082 12.560,1.564 14.550 C 2.505 18.428,5.572 21.495,9.450 22.436 C 11.106 22.837,12.894 22.837,14.550 22.436 C 18.428 21.495,21.495 18.428,22.436 14.550 C 22.837 12.894,22.837 11.106,22.436 9.450 C 21.425 5.282,17.985 2.095,13.742 1.398 C 13.334 1.331,12.074 1.229,11.880 1.247 C 11.847 1.250,11.595 1.265,11.320 1.281 M13.146 2.822 C 14.201 2.960,15.125 3.237,16.060 3.696 C 18.877 5.079,20.768 7.722,21.178 10.854 C 21.301 11.786,21.244 13.026,21.034 13.998 C 20.745 15.343,20.003 16.855,19.121 17.900 C 18.247 18.935,17.240 19.726,16.060 20.304 C 14.761 20.940,13.462 21.240,12.000 21.240 C 10.538 21.240,9.236 20.940,7.940 20.304 C 5.123 18.921,3.232 16.278,2.822 13.146 C 2.699 12.214,2.756 10.974,2.966 10.002 C 3.177 9.020,3.703 7.775,4.268 6.920 C 5.750 4.677,8.131 3.188,10.820 2.823 C 11.380 2.746,12.569 2.746,13.146 2.822 M10.420 8.260 C 10.398 8.267,10.331 8.284,10.271 8.297 C 10.124 8.329,9.881 8.548,9.814 8.708 C 9.743 8.879,9.746 9.128,9.821 9.308 C 9.861 9.403,10.325 9.899,11.149 10.727 L 12.417 12.001 11.150 13.271 C 10.314 14.110,9.863 14.592,9.822 14.690 C 9.664 15.068,9.814 15.478,10.179 15.669 C 10.338 15.752,10.668 15.748,10.841 15.662 C 11.051 15.556,14.102 12.493,14.178 12.311 C 14.212 12.229,14.240 12.089,14.240 12.000 C 14.240 11.911,14.212 11.771,14.178 11.689 C 14.105 11.515,11.054 8.444,10.860 8.349 C 10.733 8.287,10.488 8.237,10.420 8.260 " stroke="none" fill-rule="evenodd" fill="black"></path></svg>