<svg width="24" height="24" viewBox="0 0 24 24" fill="none" xmlns="http://www.w3.org/2000/svg"><path d="M11.320 1.281 C 7.041 1.525,3.252 4.409,1.843 8.497 C 1.180 10.418,1.082 12.560,1.564 14.550 C 2.505 18.428,5.572 21.495,9.450 22.436 C 11.106 22.837,12.894 22.837,14.550 22.436 C 18.428 21.495,21.495 18.428,22.436 14.550 C 22.837 12.894,22.837 11.106,22.436 9.450 C 21.425 5.282,17.985 2.095,13.742 1.398 C 13.334 1.331,12.074 1.229,11.880 1.247 C 11.847 1.250,11.595 1.265,11.320 1.281 M13.146 2.822 C 14.201 2.960,15.125 3.237,16.060 3.696 C 18.877 5.079,20.768 7.722,21.178 10.854 C 21.301 11.786,21.244 13.026,21.034 13.998 C 20.745 15.343,20.003 16.855,19.121 17.900 C 18.247 18.935,17.240 19.726,16.060 20.304 C 14.761 20.940,13.462 21.240,12.000 21.240 C 10.538 21.240,9.236 20.940,7.940 20.304 C 5.123 18.921,3.232 16.278,2.822 13.146 C 2.699 12.214,2.756 10.974,2.966 10.002 C 3.177 9.020,3.703 7.775,4.268 6.920 C 5.750 4.677,8.131 3.188,10.820 2.823 C 11.380 2.746,12.569 2.746,13.146 2.822 M10.249 6.278 C 10.075 6.321,10.031 6.357,8.092 8.051 C 6.891 9.100,6.388 9.564,6.338 9.669 C 6.299 9.752,6.269 9.910,6.269 10.031 C 6.269 10.294,6.416 10.529,6.660 10.656 C 6.819 10.740,6.836 10.740,11.880 10.751 C 15.467 10.758,17.002 10.749,17.154 10.717 C 17.827 10.577,17.948 9.641,17.332 9.336 C 17.187 9.263,16.999 9.259,13.106 9.240 L 9.032 9.220 10.034 8.346 C 10.695 7.768,11.058 7.423,11.102 7.330 C 11.203 7.116,11.168 6.731,11.031 6.550 C 10.860 6.326,10.526 6.210,10.249 6.278 M6.815 13.278 C 6.331 13.393,6.098 14.004,6.383 14.408 C 6.447 14.499,6.572 14.610,6.660 14.656 C 6.818 14.739,6.859 14.740,10.895 14.760 L 14.969 14.780 13.968 15.652 C 13.277 16.254,12.945 16.570,12.897 16.672 C 12.810 16.855,12.813 17.151,12.903 17.341 C 13.092 17.739,13.652 17.864,14.011 17.589 C 14.275 17.387,17.425 14.630,17.548 14.494 C 17.911 14.091,17.711 13.418,17.189 13.286 C 16.979 13.233,7.035 13.226,6.815 13.278 " stroke="none" fill-rule="evenodd" fill="black"></path></svg>