<svg width="24" height="24" viewBox="0 0 24 24" fill="none" xmlns="http://www.w3.org/2000/svg"><path d="M11.320 1.281 C 7.041 1.525,3.252 4.409,1.843 8.497 C 1.180 10.418,1.082 12.560,1.564 14.550 C 2.505 18.428,5.572 21.495,9.450 22.436 C 11.106 22.837,12.894 22.837,14.550 22.436 C 18.428 21.495,21.495 18.428,22.436 14.550 C 22.837 12.894,22.837 11.106,22.436 9.450 C 21.425 5.282,17.985 2.095,13.742 1.398 C 13.334 1.331,12.074 1.229,11.880 1.247 C 11.847 1.250,11.595 1.265,11.320 1.281 M13.146 2.822 C 14.201 2.960,15.125 3.237,16.060 3.696 C 18.877 5.079,20.768 7.722,21.178 10.854 C 21.301 11.786,21.244 13.026,21.034 13.998 C 20.745 15.343,20.003 16.855,19.121 17.900 C 18.247 18.935,17.240 19.726,16.060 20.304 C 14.761 20.940,13.462 21.240,12.000 21.240 C 10.538 21.240,9.236 20.940,7.940 20.304 C 5.123 18.921,3.232 16.278,2.822 13.146 C 2.699 12.214,2.756 10.974,2.966 10.002 C 3.177 9.020,3.703 7.775,4.268 6.920 C 5.750 4.677,8.131 3.188,10.820 2.823 C 11.380 2.746,12.569 2.746,13.146 2.822 M10.420 8.260 C 10.398 8.267,10.331 8.284,10.271 8.297 C 10.124 8.329,9.881 8.548,9.814 8.708 C 9.703 8.973,9.759 9.289,9.953 9.494 C 10.188 9.742,10.166 9.739,11.737 9.752 L 13.174 9.765 10.772 12.172 C 9.450 13.497,8.346 14.625,8.318 14.680 C 8.290 14.735,8.267 14.881,8.267 15.004 C 8.267 15.498,8.681 15.816,9.189 15.711 C 9.373 15.673,9.465 15.587,11.808 13.249 L 14.235 10.826 14.248 12.263 C 14.261 13.834,14.258 13.812,14.506 14.047 C 14.647 14.181,14.799 14.240,15.000 14.240 C 15.201 14.240,15.353 14.181,15.494 14.047 C 15.751 13.804,15.739 13.927,15.752 11.384 C 15.760 9.777,15.749 9.001,15.718 8.850 C 15.660 8.571,15.456 8.354,15.189 8.286 C 15.059 8.254,14.332 8.241,12.732 8.243 C 11.483 8.245,10.442 8.252,10.420 8.260 " stroke="none" fill-rule="evenodd" fill="black"></path></svg>