<svg width="24" height="24" viewBox="0 0 24 24" fill="none" xmlns="http://www.w3.org/2000/svg"><path d="M11.320 1.281 C 7.041 1.525,3.252 4.409,1.843 8.497 C 1.180 10.418,1.082 12.560,1.564 14.550 C 2.505 18.428,5.572 21.495,9.450 22.436 C 11.106 22.837,12.894 22.837,14.550 22.436 C 18.428 21.495,21.495 18.428,22.436 14.550 C 22.837 12.894,22.837 11.106,22.436 9.450 C 21.425 5.282,17.985 2.095,13.742 1.398 C 13.334 1.331,12.074 1.229,11.880 1.247 C 11.847 1.250,11.595 1.265,11.320 1.281 M13.146 2.822 C 14.201 2.960,15.125 3.237,16.060 3.696 C 18.877 5.079,20.768 7.722,21.178 10.854 C 21.301 11.786,21.244 13.026,21.034 13.998 C 20.745 15.343,20.003 16.855,19.121 17.900 C 18.247 18.935,17.240 19.726,16.060 20.304 C 14.761 20.940,13.462 21.240,12.000 21.240 C 10.538 21.240,9.236 20.940,7.940 20.304 C 5.123 18.921,3.232 16.278,2.822 13.146 C 2.699 12.214,2.756 10.974,2.966 10.002 C 3.177 9.020,3.703 7.775,4.268 6.920 C 5.750 4.677,8.131 3.188,10.820 2.823 C 11.380 2.746,12.569 2.746,13.146 2.822 M10.900 8.258 C 10.878 8.266,10.806 8.285,10.740 8.299 C 10.652 8.319,10.200 8.745,9.028 9.913 C 8.152 10.786,7.398 11.561,7.351 11.636 C 7.291 11.732,7.267 11.836,7.267 12.000 C 7.267 12.164,7.291 12.268,7.351 12.364 C 7.398 12.439,8.152 13.214,9.028 14.086 C 10.544 15.596,10.629 15.673,10.810 15.711 C 11.390 15.831,11.832 15.389,11.710 14.810 C 11.673 14.633,11.608 14.557,10.747 13.690 L 9.824 12.760 12.890 12.760 C 14.978 12.760,16.022 12.746,16.162 12.716 C 16.904 12.557,16.924 11.471,16.189 11.286 C 16.057 11.253,15.124 11.240,12.914 11.240 L 9.824 11.240 10.747 10.310 C 11.610 9.441,11.673 9.367,11.711 9.189 C 11.785 8.835,11.634 8.482,11.352 8.349 C 11.212 8.283,10.967 8.234,10.900 8.258 " stroke="none" fill-rule="evenodd" fill="black"></path></svg>