<svg width="24" height="24" viewBox="0 0 24 24" fill="none" xmlns="http://www.w3.org/2000/svg"><path d="M11.320 1.281 C 7.041 1.525,3.252 4.409,1.843 8.497 C 1.180 10.418,1.082 12.560,1.564 14.550 C 2.505 18.428,5.572 21.495,9.450 22.436 C 11.106 22.837,12.894 22.837,14.550 22.436 C 18.428 21.495,21.495 18.428,22.436 14.550 C 22.837 12.894,22.837 11.106,22.436 9.450 C 21.425 5.282,17.985 2.095,13.742 1.398 C 13.334 1.331,12.074 1.229,11.880 1.247 C 11.847 1.250,11.595 1.265,11.320 1.281 M13.146 2.822 C 14.201 2.960,15.125 3.237,16.060 3.696 C 18.877 5.079,20.768 7.722,21.178 10.854 C 21.258 11.459,21.258 12.541,21.178 13.146 C 20.922 15.101,20.089 16.886,18.782 18.278 C 18.491 18.589,17.837 19.200,17.796 19.200 C 17.780 19.200,16.097 17.445,14.055 15.301 C 11.694 12.820,10.292 11.376,10.202 11.333 C 10.120 11.293,9.970 11.266,9.847 11.267 C 9.586 11.270,9.350 11.418,9.224 11.660 C 9.142 11.816,9.140 11.876,9.129 14.171 C 9.121 15.754,9.132 16.574,9.160 16.682 C 9.213 16.876,9.414 17.113,9.588 17.186 C 9.853 17.297,10.169 17.241,10.374 17.047 C 10.620 16.814,10.618 16.827,10.640 15.304 L 10.660 13.909 13.339 16.724 C 14.812 18.273,16.133 19.661,16.275 19.810 L 16.533 20.079 15.987 20.342 C 14.727 20.948,13.430 21.240,12.000 21.240 C 10.538 21.240,9.236 20.940,7.940 20.304 C 5.123 18.921,3.232 16.278,2.822 13.146 C 2.699 12.214,2.756 10.974,2.966 10.002 C 3.177 9.020,3.703 7.775,4.268 6.920 C 4.713 6.247,5.376 5.496,5.995 4.966 L 6.210 4.781 6.355 4.944 C 6.435 5.033,8.054 6.791,9.953 8.850 C 12.322 11.419,13.452 12.616,13.553 12.665 C 13.909 12.836,14.344 12.696,14.529 12.350 L 14.620 12.180 14.620 9.780 C 14.620 8.460,14.606 7.331,14.589 7.271 C 14.547 7.119,14.327 6.879,14.172 6.814 C 13.907 6.703,13.591 6.759,13.386 6.953 C 13.140 7.185,13.142 7.175,13.120 8.676 L 13.100 10.051 10.320 7.039 C 8.791 5.382,7.525 4.002,7.507 3.972 C 7.482 3.931,7.605 3.854,8.016 3.657 C 8.888 3.238,9.832 2.957,10.820 2.823 C 11.380 2.746,12.569 2.746,13.146 2.822 " stroke="none" fill-rule="evenodd" fill="black"></path></svg>