<svg width="24" height="24" viewBox="0 0 24 24" fill="none" xmlns="http://www.w3.org/2000/svg"><path d="M11.320 1.281 C 7.041 1.525,3.252 4.409,1.843 8.497 C 1.180 10.418,1.082 12.560,1.564 14.550 C 2.505 18.428,5.572 21.495,9.450 22.436 C 11.106 22.837,12.894 22.837,14.550 22.436 C 18.428 21.495,21.495 18.428,22.436 14.550 C 22.837 12.894,22.837 11.106,22.436 9.450 C 21.425 5.282,17.985 2.095,13.742 1.398 C 13.334 1.331,12.074 1.229,11.880 1.247 C 11.847 1.250,11.595 1.265,11.320 1.281 M13.146 2.822 C 14.201 2.960,15.125 3.237,16.060 3.696 C 18.877 5.079,20.768 7.722,21.178 10.854 C 21.301 11.786,21.244 13.026,21.034 13.998 C 20.745 15.343,20.003 16.855,19.121 17.900 C 18.247 18.935,17.240 19.726,16.060 20.304 C 14.761 20.940,13.462 21.240,12.000 21.240 C 10.538 21.240,9.236 20.940,7.940 20.304 C 5.123 18.921,3.232 16.278,2.822 13.146 C 2.699 12.214,2.756 10.974,2.966 10.002 C 3.177 9.020,3.703 7.775,4.268 6.920 C 5.750 4.677,8.131 3.188,10.820 2.823 C 11.380 2.746,12.569 2.746,13.146 2.822 M11.900 7.259 C 11.878 7.267,11.806 7.285,11.740 7.299 C 11.652 7.319,11.200 7.745,10.028 8.913 C 9.152 9.786,8.398 10.561,8.351 10.636 C 8.232 10.826,8.235 11.177,8.356 11.374 C 8.532 11.659,8.841 11.784,9.189 11.711 C 9.367 11.673,9.441 11.610,10.309 10.748 L 11.238 9.826 11.249 13.023 L 11.260 16.220 11.353 16.369 C 11.710 16.943,12.576 16.812,12.716 16.162 C 12.746 16.022,12.760 14.978,12.760 12.890 L 12.760 9.824 13.690 10.747 C 14.557 11.608,14.633 11.673,14.810 11.710 C 15.389 11.832,15.831 11.390,15.711 10.810 C 15.673 10.629,15.596 10.544,14.086 9.028 C 13.214 8.152,12.446 7.403,12.380 7.362 C 12.264 7.291,11.981 7.230,11.900 7.259 " stroke="none" fill-rule="evenodd" fill="black"></path></svg>