<svg width="24" height="24" viewBox="0 0 24 24" fill="none" xmlns="http://www.w3.org/2000/svg"><path d="M11.320 1.281 C 7.041 1.525,3.252 4.409,1.843 8.497 C 1.180 10.418,1.082 12.560,1.564 14.550 C 2.505 18.428,5.572 21.495,9.450 22.436 C 11.106 22.837,12.894 22.837,14.550 22.436 C 18.428 21.495,21.495 18.428,22.436 14.550 C 22.837 12.894,22.837 11.106,22.436 9.450 C 21.425 5.282,17.985 2.095,13.742 1.398 C 13.334 1.331,12.074 1.229,11.880 1.247 C 11.847 1.250,11.595 1.265,11.320 1.281 M13.146 2.822 C 14.201 2.960,15.125 3.237,16.060 3.696 C 18.877 5.079,20.768 7.722,21.178 10.854 C 21.301 11.786,21.244 13.026,21.034 13.998 C 20.745 15.343,20.003 16.855,19.121 17.900 C 18.247 18.935,17.240 19.726,16.060 20.304 C 14.761 20.940,13.462 21.240,12.000 21.240 C 10.538 21.240,9.236 20.940,7.940 20.304 C 5.123 18.921,3.232 16.278,2.822 13.146 C 2.699 12.214,2.756 10.974,2.966 10.002 C 3.177 9.020,3.703 7.775,4.268 6.920 C 5.750 4.677,8.131 3.188,10.820 2.823 C 11.380 2.746,12.569 2.746,13.146 2.822 M8.815 8.278 C 8.640 8.320,8.462 8.455,8.356 8.626 C 8.253 8.793,8.233 9.155,8.318 9.320 C 8.346 9.375,9.450 10.503,10.772 11.828 L 13.174 14.235 11.737 14.248 C 10.166 14.261,10.188 14.258,9.953 14.506 C 9.819 14.647,9.760 14.799,9.760 15.000 C 9.760 15.201,9.819 15.353,9.953 15.494 C 10.196 15.751,10.073 15.739,12.616 15.752 C 15.231 15.765,15.279 15.761,15.520 15.520 C 15.761 15.279,15.765 15.231,15.752 12.616 C 15.739 10.073,15.751 10.196,15.494 9.953 C 15.353 9.819,15.201 9.760,15.000 9.760 C 14.799 9.760,14.647 9.819,14.506 9.953 C 14.258 10.188,14.261 10.166,14.248 11.737 L 14.235 13.174 11.808 10.751 C 9.384 8.332,9.380 8.328,9.168 8.284 C 9.051 8.260,8.952 8.242,8.948 8.244 C 8.944 8.246,8.884 8.262,8.815 8.278 " stroke="none" fill-rule="evenodd" fill="black"></path></svg>