<svg width="24" height="24" viewBox="0 0 24 24" fill="none" xmlns="http://www.w3.org/2000/svg"><path d="M11.815 1.277 C 11.330 1.395,11.098 2.004,11.383 2.408 C 11.574 2.678,11.713 2.725,12.420 2.762 C 15.097 2.903,17.420 4.069,19.153 6.140 C 20.022 7.178,20.747 8.667,21.034 10.002 C 21.311 11.283,21.311 12.717,21.034 13.998 C 20.745 15.343,20.003 16.855,19.121 17.900 C 18.247 18.935,17.240 19.726,16.060 20.304 C 14.761 20.940,13.462 21.240,12.000 21.240 C 10.538 21.240,9.236 20.940,7.940 20.304 C 5.123 18.921,3.232 16.278,2.822 13.146 C 2.699 12.214,2.756 10.973,2.966 10.002 C 3.186 8.980,3.715 7.743,4.305 6.870 C 4.651 6.358,4.805 6.166,5.272 5.664 C 5.667 5.240,5.731 5.127,5.731 4.860 C 5.731 4.391,5.350 4.068,4.873 4.132 C 4.661 4.160,4.529 4.261,4.104 4.718 C 1.678 7.327,0.716 11.051,1.564 14.550 C 2.505 18.428,5.572 21.495,9.450 22.436 C 11.106 22.837,12.894 22.837,14.550 22.436 C 18.428 21.495,21.495 18.428,22.436 14.550 C 22.837 12.894,22.837 11.106,22.436 9.450 C 21.427 5.289,17.977 2.090,13.758 1.401 C 13.100 1.294,12.027 1.226,11.815 1.277 M11.815 4.278 C 11.331 4.393,11.098 5.004,11.383 5.408 C 11.563 5.662,11.718 5.721,12.309 5.762 C 13.069 5.815,13.479 5.897,14.108 6.120 C 14.961 6.424,15.673 6.873,16.354 7.536 C 17.590 8.741,18.239 10.277,18.239 12.000 C 18.239 13.189,17.954 14.210,17.328 15.260 C 16.872 16.027,16.029 16.870,15.260 17.328 C 14.212 17.953,13.189 18.239,12.000 18.239 C 10.277 18.239,8.741 17.590,7.536 16.354 C 7.007 15.811,6.726 15.414,6.383 14.728 C 6.024 14.009,5.763 12.987,5.761 12.292 C 5.760 11.882,5.692 11.652,5.522 11.482 C 5.108 11.068,4.407 11.265,4.276 11.833 C 4.227 12.050,4.307 13.030,4.418 13.568 C 4.655 14.709,5.147 15.782,5.873 16.740 C 6.140 17.092,6.813 17.772,7.180 18.059 C 8.445 19.050,9.875 19.605,11.451 19.718 C 14.281 19.920,16.943 18.588,18.518 16.180 C 19.960 13.976,20.135 11.012,18.963 8.620 C 18.569 7.815,18.174 7.255,17.543 6.606 C 16.147 5.170,14.357 4.366,12.340 4.268 C 12.120 4.257,11.884 4.262,11.815 4.278 M11.815 7.279 C 11.332 7.391,11.098 8.004,11.383 8.408 C 11.553 8.648,11.716 8.716,12.232 8.761 C 13.096 8.837,13.674 9.106,14.284 9.716 C 14.712 10.143,14.928 10.485,15.108 11.020 C 15.209 11.316,15.217 11.389,15.217 12.000 C 15.217 12.611,15.209 12.684,15.108 12.980 C 14.928 13.515,14.712 13.857,14.284 14.284 C 13.667 14.902,13.089 15.167,12.210 15.239 C 11.688 15.282,11.523 15.356,11.358 15.623 C 11.218 15.849,11.229 16.190,11.383 16.408 C 11.567 16.668,11.746 16.739,12.193 16.728 C 14.072 16.685,15.771 15.446,16.460 13.616 C 16.819 12.661,16.818 11.336,16.457 10.376 C 15.946 9.017,14.875 7.971,13.520 7.508 C 13.005 7.332,12.105 7.211,11.815 7.279 " stroke="none" fill-rule="evenodd" fill="black"></path></svg>