<svg width="24" height="24" viewBox="0 0 24 24" fill="none" xmlns="http://www.w3.org/2000/svg"><path d="M11.320 1.281 C 7.041 1.525,3.252 4.409,1.843 8.497 C 1.180 10.418,1.082 12.560,1.564 14.550 C 2.505 18.428,5.572 21.495,9.450 22.436 C 11.106 22.837,12.894 22.837,14.550 22.436 C 18.428 21.495,21.495 18.428,22.436 14.550 C 22.837 12.894,22.837 11.106,22.436 9.450 C 21.425 5.282,17.985 2.095,13.742 1.398 C 13.334 1.331,12.074 1.229,11.880 1.247 C 11.847 1.250,11.595 1.265,11.320 1.281 M13.146 2.822 C 14.201 2.960,15.125 3.237,16.060 3.696 C 18.877 5.079,20.768 7.722,21.178 10.854 C 21.301 11.786,21.244 13.026,21.034 13.998 C 20.745 15.343,20.003 16.855,19.121 17.900 C 18.247 18.935,17.240 19.726,16.060 20.304 C 14.761 20.940,13.462 21.240,12.000 21.240 C 10.538 21.240,9.236 20.940,7.940 20.304 C 5.123 18.921,3.232 16.278,2.822 13.146 C 2.699 12.214,2.756 10.974,2.966 10.002 C 3.177 9.020,3.703 7.775,4.268 6.920 C 5.750 4.677,8.131 3.188,10.820 2.823 C 11.380 2.746,12.569 2.746,13.146 2.822 M12.815 8.278 C 12.640 8.320,12.462 8.455,12.356 8.626 C 12.253 8.793,12.233 9.155,12.318 9.320 C 12.347 9.375,12.776 9.829,13.273 10.329 L 14.175 11.238 10.975 11.249 L 7.774 11.260 7.612 11.367 C 7.372 11.526,7.267 11.721,7.267 12.007 C 7.267 12.203,7.286 12.270,7.383 12.408 C 7.447 12.499,7.572 12.610,7.660 12.656 C 7.818 12.739,7.864 12.740,10.998 12.751 L 14.175 12.762 13.273 13.671 C 12.776 14.171,12.347 14.625,12.318 14.680 C 12.290 14.735,12.267 14.884,12.267 15.011 C 12.267 15.202,12.287 15.271,12.383 15.408 C 12.447 15.499,12.568 15.608,12.651 15.651 C 12.837 15.747,13.139 15.753,13.326 15.664 C 13.402 15.628,14.181 14.879,15.068 13.989 C 16.596 12.456,16.673 12.371,16.711 12.190 C 16.737 12.065,16.737 11.935,16.711 11.810 C 16.673 11.629,16.596 11.544,15.068 10.011 C 14.185 9.126,13.409 8.376,13.342 8.345 C 13.176 8.269,12.965 8.242,12.815 8.278 " stroke="none" fill-rule="evenodd" fill="black"></path></svg>