<svg width="24" height="24" viewBox="0 0 24 24" fill="none" xmlns="http://www.w3.org/2000/svg"><path d="M11.320 1.281 C 7.041 1.525,3.252 4.409,1.843 8.497 C 1.180 10.418,1.082 12.560,1.564 14.550 C 2.505 18.428,5.572 21.495,9.450 22.436 C 11.106 22.837,12.894 22.837,14.550 22.436 C 18.428 21.495,21.495 18.428,22.436 14.550 C 22.837 12.894,22.837 11.106,22.436 9.450 C 21.425 5.282,17.985 2.095,13.742 1.398 C 13.334 1.331,12.074 1.229,11.880 1.247 C 11.847 1.250,11.595 1.265,11.320 1.281 M13.146 2.822 C 14.201 2.960,15.125 3.237,16.060 3.696 C 18.877 5.079,20.768 7.722,21.178 10.854 C 21.301 11.786,21.244 13.026,21.034 13.998 C 20.745 15.343,20.003 16.855,19.121 17.900 C 18.247 18.935,17.240 19.726,16.060 20.304 C 14.761 20.940,13.462 21.240,12.000 21.240 C 10.538 21.240,9.236 20.940,7.940 20.304 C 5.123 18.921,3.232 16.278,2.822 13.146 C 2.699 12.214,2.756 10.974,2.966 10.002 C 3.177 9.020,3.703 7.775,4.268 6.920 C 5.750 4.677,8.131 3.188,10.820 2.823 C 11.380 2.746,12.569 2.746,13.146 2.822 M11.329 8.279 C 11.257 8.296,11.131 8.357,11.049 8.414 C 10.766 8.610,7.888 11.531,7.822 11.689 C 7.743 11.878,7.743 12.122,7.822 12.311 C 7.898 12.493,10.949 15.556,11.159 15.662 C 11.332 15.748,11.662 15.752,11.821 15.669 C 12.186 15.479,12.336 15.068,12.179 14.692 C 12.139 14.597,11.675 14.101,10.851 13.273 L 9.584 12.000 10.851 10.727 C 11.675 9.899,12.139 9.403,12.179 9.308 C 12.373 8.843,12.095 8.344,11.600 8.270 C 11.523 8.258,11.401 8.262,11.329 8.279 M15.329 8.279 C 15.257 8.296,15.131 8.357,15.049 8.414 C 14.766 8.610,11.888 11.531,11.822 11.689 C 11.743 11.878,11.743 12.122,11.822 12.311 C 11.898 12.493,14.949 15.556,15.159 15.662 C 15.332 15.748,15.662 15.752,15.821 15.669 C 16.186 15.479,16.336 15.068,16.179 14.692 C 16.139 14.597,15.675 14.101,14.851 13.273 L 13.584 12.000 14.851 10.727 C 15.675 9.899,16.139 9.403,16.179 9.308 C 16.373 8.843,16.095 8.344,15.600 8.270 C 15.523 8.258,15.401 8.262,15.329 8.279 " stroke="none" fill-rule="evenodd" fill="black"></path></svg>