<svg width="24" height="24" viewBox="0 0 24 24" fill="none" xmlns="http://www.w3.org/2000/svg"><path d="M11.320 1.281 C 7.041 1.525,3.252 4.409,1.843 8.497 C 1.180 10.418,1.082 12.560,1.564 14.550 C 2.505 18.428,5.572 21.495,9.450 22.436 C 11.106 22.837,12.894 22.837,14.550 22.436 C 18.428 21.495,21.495 18.428,22.436 14.550 C 22.837 12.894,22.837 11.106,22.436 9.450 C 21.425 5.282,17.985 2.095,13.742 1.398 C 13.334 1.331,12.074 1.229,11.880 1.247 C 11.847 1.250,11.595 1.265,11.320 1.281 M13.146 2.822 C 14.201 2.960,15.125 3.237,16.060 3.696 C 18.877 5.079,20.768 7.722,21.178 10.854 C 21.301 11.786,21.244 13.026,21.034 13.998 C 20.745 15.343,20.003 16.855,19.121 17.900 C 18.247 18.935,17.240 19.726,16.060 20.304 C 14.761 20.940,13.462 21.240,12.000 21.240 C 10.538 21.240,9.236 20.940,7.940 20.304 C 5.123 18.921,3.232 16.278,2.822 13.146 C 2.699 12.214,2.756 10.974,2.966 10.002 C 3.177 9.020,3.703 7.775,4.268 6.920 C 5.750 4.677,8.131 3.188,10.820 2.823 C 11.380 2.746,12.569 2.746,13.146 2.822 M11.680 9.823 C 11.506 9.898,8.439 12.960,8.338 13.159 C 8.252 13.332,8.248 13.662,8.331 13.821 C 8.521 14.186,8.932 14.336,9.308 14.179 C 9.403 14.139,9.899 13.675,10.727 12.851 L 12.000 11.584 13.273 12.851 C 14.101 13.675,14.597 14.139,14.692 14.179 C 15.068 14.336,15.479 14.186,15.669 13.821 C 15.752 13.662,15.748 13.332,15.662 13.159 C 15.556 12.949,12.493 9.898,12.311 9.822 C 12.125 9.744,11.862 9.745,11.680 9.823 " stroke="none" fill-rule="evenodd" fill="black"></path></svg>