<svg width="24" height="24" viewBox="0 0 24 24" fill="none" xmlns="http://www.w3.org/2000/svg"><path d="M11.320 1.281 C 7.041 1.525,3.252 4.409,1.843 8.497 C 1.180 10.418,1.082 12.560,1.564 14.550 C 2.505 18.428,5.572 21.495,9.450 22.436 C 11.106 22.837,12.894 22.837,14.550 22.436 C 18.428 21.495,21.495 18.428,22.436 14.550 C 22.837 12.894,22.837 11.106,22.436 9.450 C 21.425 5.282,17.985 2.095,13.742 1.398 C 13.334 1.331,12.074 1.229,11.880 1.247 C 11.847 1.250,11.595 1.265,11.320 1.281 M13.146 2.822 C 14.201 2.960,15.125 3.237,16.060 3.696 C 18.877 5.079,20.768 7.722,21.178 10.854 C 21.301 11.786,21.244 13.026,21.034 13.998 C 20.745 15.343,20.003 16.855,19.121 17.900 C 18.247 18.935,17.240 19.726,16.060 20.304 C 14.761 20.940,13.462 21.240,12.000 21.240 C 10.538 21.240,9.236 20.940,7.940 20.304 C 5.123 18.921,3.232 16.278,2.822 13.146 C 2.699 12.214,2.756 10.974,2.966 10.002 C 3.177 9.020,3.703 7.775,4.268 6.920 C 5.750 4.677,8.131 3.188,10.820 2.823 C 11.380 2.746,12.569 2.746,13.146 2.822 M9.420 7.260 C 9.398 7.267,9.331 7.284,9.271 7.297 C 9.150 7.324,8.905 7.523,8.828 7.655 C 8.792 7.719,8.775 8.529,8.760 10.896 L 8.740 14.053 8.105 13.352 C 7.737 12.945,7.413 12.623,7.334 12.585 C 6.987 12.420,6.522 12.565,6.353 12.892 C 6.249 13.092,6.239 13.405,6.331 13.581 C 6.402 13.717,8.927 16.496,9.083 16.610 C 9.309 16.775,9.691 16.775,9.917 16.610 C 10.073 16.496,12.598 13.717,12.669 13.581 C 12.759 13.409,12.748 13.093,12.646 12.891 C 12.480 12.565,12.013 12.420,11.666 12.585 C 11.587 12.623,11.263 12.945,10.895 13.352 L 10.260 14.053 10.240 10.896 C 10.225 8.601,10.207 7.718,10.173 7.660 C 10.115 7.559,9.925 7.382,9.820 7.330 C 9.727 7.284,9.478 7.240,9.420 7.260 M14.325 7.280 C 14.251 7.298,14.143 7.347,14.085 7.389 C 13.927 7.504,11.403 10.282,11.331 10.419 C 11.239 10.595,11.249 10.908,11.353 11.108 C 11.540 11.470,12.046 11.598,12.390 11.370 C 12.482 11.309,12.823 10.965,13.149 10.604 L 13.740 9.949 13.760 13.104 C 13.775 15.400,13.793 16.282,13.827 16.340 C 13.888 16.446,14.075 16.618,14.198 16.681 C 14.252 16.709,14.388 16.731,14.500 16.731 C 14.612 16.731,14.748 16.709,14.802 16.681 C 14.925 16.618,15.112 16.446,15.173 16.340 C 15.207 16.282,15.225 15.399,15.240 13.104 L 15.260 9.947 15.895 10.648 C 16.263 11.055,16.587 11.377,16.666 11.415 C 17.013 11.580,17.480 11.435,17.646 11.109 C 17.749 10.907,17.759 10.591,17.669 10.419 C 17.634 10.354,17.197 9.850,16.698 9.300 C 15.293 7.754,14.959 7.401,14.845 7.344 C 14.697 7.269,14.483 7.243,14.325 7.280 " stroke="none" fill-rule="evenodd" fill="black"></path></svg>