<svg width="24" height="24" viewBox="0 0 24 24" fill="none" xmlns="http://www.w3.org/2000/svg"><path d="M11.320 1.281 C 7.041 1.525,3.252 4.409,1.843 8.497 C 1.180 10.418,1.082 12.560,1.564 14.550 C 2.505 18.428,5.572 21.495,9.450 22.436 C 11.106 22.837,12.894 22.837,14.550 22.436 C 18.428 21.495,21.495 18.428,22.436 14.550 C 22.837 12.894,22.837 11.106,22.436 9.450 C 21.425 5.282,17.985 2.095,13.742 1.398 C 13.334 1.331,12.074 1.229,11.880 1.247 C 11.847 1.250,11.595 1.265,11.320 1.281 M13.146 2.822 C 14.201 2.960,15.125 3.237,16.060 3.696 C 18.877 5.079,20.768 7.722,21.178 10.854 C 21.301 11.786,21.244 13.026,21.034 13.998 C 20.745 15.343,20.003 16.855,19.121 17.900 C 18.247 18.935,17.240 19.726,16.060 20.304 C 14.761 20.940,13.462 21.240,12.000 21.240 C 10.538 21.240,9.236 20.940,7.940 20.304 C 5.123 18.921,3.232 16.278,2.822 13.146 C 2.699 12.214,2.756 10.974,2.966 10.002 C 3.177 9.020,3.703 7.775,4.268 6.920 C 5.750 4.677,8.131 3.188,10.820 2.823 C 11.380 2.746,12.569 2.746,13.146 2.822 M14.900 8.260 C 14.878 8.267,14.806 8.285,14.740 8.299 C 14.650 8.319,14.007 8.937,12.192 10.750 L 9.765 13.174 9.752 11.737 C 9.739 10.166,9.742 10.188,9.494 9.953 C 9.289 9.759,8.973 9.703,8.708 9.814 C 8.553 9.879,8.333 10.119,8.291 10.271 C 8.274 10.331,8.260 11.472,8.260 12.807 L 8.260 15.233 8.380 15.403 C 8.446 15.496,8.572 15.610,8.660 15.656 C 8.817 15.738,8.864 15.740,11.220 15.740 C 12.540 15.740,13.669 15.726,13.729 15.709 C 13.881 15.667,14.121 15.447,14.186 15.292 C 14.297 15.027,14.241 14.711,14.047 14.506 C 13.812 14.258,13.834 14.261,12.263 14.248 L 10.826 14.235 13.249 11.808 C 15.587 9.465,15.673 9.373,15.711 9.189 C 15.785 8.834,15.633 8.480,15.352 8.350 C 15.213 8.286,14.968 8.237,14.900 8.260 " stroke="none" fill-rule="evenodd" fill="black"></path></svg>