<svg width="24" height="24" viewBox="0 0 24 24" fill="none" xmlns="http://www.w3.org/2000/svg"><path d="M11.320 1.281 C 7.041 1.525,3.252 4.409,1.843 8.497 C 1.180 10.418,1.082 12.560,1.564 14.550 C 2.505 18.428,5.572 21.495,9.450 22.436 C 11.106 22.837,12.894 22.837,14.550 22.436 C 18.428 21.495,21.495 18.428,22.436 14.550 C 22.837 12.894,22.837 11.106,22.436 9.450 C 21.425 5.282,17.985 2.095,13.742 1.398 C 13.334 1.331,12.074 1.229,11.880 1.247 C 11.847 1.250,11.595 1.265,11.320 1.281 M13.146 2.822 C 14.201 2.960,15.125 3.237,16.060 3.696 C 18.877 5.079,20.768 7.722,21.178 10.854 C 21.301 11.786,21.244 13.026,21.034 13.998 C 20.745 15.343,20.003 16.855,19.121 17.900 C 18.247 18.935,17.240 19.726,16.060 20.304 C 14.761 20.940,13.462 21.240,12.000 21.240 C 10.538 21.240,9.236 20.940,7.940 20.304 C 5.123 18.921,3.232 16.278,2.822 13.146 C 2.699 12.214,2.756 10.974,2.966 10.002 C 3.177 9.020,3.703 7.775,4.268 6.920 C 5.750 4.677,8.131 3.188,10.820 2.823 C 11.380 2.746,12.569 2.746,13.146 2.822 M9.815 6.277 C 9.638 6.321,9.461 6.456,9.353 6.631 L 9.260 6.780 9.240 10.874 L 9.220 14.968 8.349 13.970 C 7.869 13.421,7.437 12.951,7.389 12.925 C 6.927 12.683,6.399 12.904,6.282 13.390 C 6.205 13.714,6.263 13.844,6.730 14.387 C 8.462 16.402,9.535 17.598,9.667 17.661 C 9.746 17.698,9.896 17.729,10.000 17.729 C 10.363 17.729,10.635 17.513,10.717 17.159 C 10.774 16.912,10.774 7.088,10.717 6.841 C 10.623 6.432,10.215 6.177,9.815 6.277 M13.815 6.278 C 13.639 6.320,13.462 6.455,13.353 6.631 L 13.260 6.780 13.260 12.000 L 13.260 17.220 13.353 17.369 C 13.664 17.870,14.408 17.849,14.664 17.332 C 14.737 17.187,14.741 16.999,14.760 13.106 L 14.780 9.032 15.654 10.034 C 16.234 10.697,16.577 11.058,16.670 11.102 C 16.853 11.189,17.150 11.188,17.336 11.099 C 17.714 10.920,17.862 10.373,17.625 10.035 C 17.589 9.983,16.866 9.146,16.019 8.175 C 15.016 7.025,14.433 6.388,14.349 6.349 C 14.176 6.269,13.968 6.242,13.815 6.278 " stroke="none" fill-rule="evenodd" fill="black"></path></svg>