<svg width="24" height="24" viewBox="0 0 24 24" fill="none" xmlns="http://www.w3.org/2000/svg"><path d="M11.320 1.281 C 7.041 1.525,3.252 4.409,1.843 8.497 C 1.180 10.418,1.082 12.560,1.564 14.550 C 2.505 18.428,5.572 21.495,9.450 22.436 C 11.106 22.837,12.894 22.837,14.550 22.436 C 18.428 21.495,21.495 18.428,22.436 14.550 C 22.837 12.894,22.837 11.106,22.436 9.450 C 21.425 5.282,17.985 2.095,13.742 1.398 C 13.334 1.331,12.074 1.229,11.880 1.247 C 11.847 1.250,11.595 1.265,11.320 1.281 M13.146 2.822 C 14.201 2.960,15.125 3.237,16.060 3.696 C 18.877 5.079,20.768 7.722,21.178 10.854 C 21.301 11.786,21.244 13.026,21.034 13.998 C 20.745 15.343,20.003 16.855,19.121 17.900 C 18.247 18.935,17.240 19.726,16.060 20.304 C 14.761 20.940,13.462 21.240,12.000 21.240 C 10.538 21.240,9.236 20.940,7.940 20.304 C 5.123 18.921,3.232 16.278,2.822 13.146 C 2.699 12.214,2.756 10.974,2.966 10.002 C 3.177 9.020,3.703 7.775,4.268 6.920 C 5.750 4.677,8.131 3.188,10.820 2.823 C 11.380 2.746,12.569 2.746,13.146 2.822 M8.720 7.805 C 8.589 7.857,8.408 8.030,8.331 8.179 C 8.248 8.338,8.252 8.668,8.338 8.841 C 8.444 9.051,11.507 12.102,11.689 12.178 C 11.878 12.257,12.122 12.257,12.311 12.178 C 12.493 12.102,15.556 9.051,15.662 8.841 C 15.748 8.668,15.752 8.338,15.669 8.179 C 15.478 7.814,15.068 7.664,14.690 7.822 C 14.592 7.863,14.110 8.314,13.271 9.150 L 12.001 10.417 10.727 9.149 C 9.899 8.325,9.403 7.861,9.308 7.821 C 9.145 7.752,8.871 7.745,8.720 7.805 M8.720 11.805 C 8.589 11.857,8.408 12.030,8.331 12.179 C 8.248 12.338,8.252 12.668,8.338 12.841 C 8.444 13.051,11.507 16.102,11.689 16.178 C 11.878 16.257,12.122 16.257,12.311 16.178 C 12.493 16.102,15.556 13.051,15.662 12.841 C 15.748 12.668,15.752 12.338,15.669 12.179 C 15.478 11.814,15.068 11.664,14.690 11.822 C 14.592 11.863,14.110 12.314,13.271 13.150 L 12.001 14.417 10.727 13.149 C 9.899 12.325,9.403 11.861,9.308 11.821 C 9.145 11.752,8.871 11.745,8.720 11.805 " stroke="none" fill-rule="evenodd" fill="black"></path></svg>