<svg width="24" height="24" viewBox="0 0 24 24" fill="none" xmlns="http://www.w3.org/2000/svg"><path d="M11.320 1.281 C 7.041 1.525,3.252 4.409,1.843 8.497 C 1.180 10.418,1.082 12.560,1.564 14.550 C 2.505 18.428,5.572 21.495,9.450 22.436 C 11.106 22.837,12.894 22.837,14.550 22.436 C 18.428 21.495,21.495 18.428,22.436 14.550 C 22.837 12.894,22.837 11.106,22.436 9.450 C 21.425 5.282,17.985 2.095,13.742 1.398 C 13.334 1.331,12.074 1.229,11.880 1.247 C 11.847 1.250,11.595 1.265,11.320 1.281 M13.146 2.822 C 14.201 2.960,15.125 3.237,16.060 3.696 C 18.877 5.079,20.768 7.722,21.178 10.854 C 21.301 11.786,21.244 13.026,21.034 13.998 C 20.745 15.343,20.003 16.855,19.121 17.900 C 18.247 18.935,17.240 19.726,16.060 20.304 C 14.761 20.940,13.462 21.240,12.000 21.240 C 10.538 21.240,9.236 20.940,7.940 20.304 C 5.123 18.921,3.232 16.278,2.822 13.146 C 2.699 12.214,2.756 10.974,2.966 10.002 C 3.177 9.020,3.703 7.775,4.268 6.920 C 5.750 4.677,8.131 3.188,10.820 2.823 C 11.380 2.746,12.569 2.746,13.146 2.822 M11.815 7.277 C 11.638 7.321,11.461 7.456,11.353 7.631 L 11.260 7.780 11.249 10.977 L 11.238 14.174 10.309 13.253 C 9.464 12.415,9.363 12.328,9.191 12.286 C 8.854 12.203,8.538 12.332,8.356 12.626 C 8.235 12.823,8.232 13.174,8.351 13.364 C 8.398 13.439,9.152 14.214,10.028 15.086 C 11.544 16.596,11.629 16.673,11.810 16.711 C 11.934 16.737,12.066 16.737,12.190 16.711 C 12.372 16.674,12.453 16.599,14.026 15.026 C 15.599 13.453,15.674 13.372,15.711 13.190 C 15.798 12.766,15.576 12.384,15.186 12.286 C 15.015 12.243,14.933 12.247,14.700 12.309 C 14.656 12.320,14.202 12.745,13.690 13.253 L 12.760 14.176 12.759 11.098 C 12.758 9.128,12.743 7.956,12.717 7.841 C 12.623 7.432,12.215 7.177,11.815 7.277 " stroke="none" fill-rule="evenodd" fill="black"></path></svg>