<svg width="24" height="24" viewBox="0 0 24 24" fill="none" xmlns="http://www.w3.org/2000/svg"><path d="M5.060 1.285 C 3.071 1.462,1.461 2.997,1.283 4.885 C 1.085 6.982,2.363 9.385,4.200 10.372 C 4.725 10.654,5.026 10.739,5.500 10.739 C 5.974 10.739,6.275 10.654,6.800 10.372 C 8.376 9.525,9.564 7.633,9.715 5.730 C 9.816 4.455,9.472 3.451,8.632 2.577 C 7.714 1.620,6.445 1.161,5.060 1.285 M6.172 2.824 C 7.170 3.044,8.025 3.873,8.203 4.793 C 8.275 5.168,8.228 5.891,8.101 6.360 C 7.792 7.497,6.948 8.621,6.074 9.059 C 5.790 9.201,5.669 9.240,5.513 9.240 C 5.134 9.240,4.639 8.964,4.130 8.468 C 3.571 7.922,3.113 7.138,2.899 6.359 C 2.771 5.890,2.724 5.168,2.798 4.793 C 2.902 4.263,3.217 3.768,3.718 3.348 C 3.958 3.147,4.480 2.895,4.802 2.824 C 5.159 2.746,5.821 2.746,6.172 2.824 M11.807 4.287 C 11.568 4.341,11.341 4.572,11.289 4.816 C 11.197 5.246,11.431 5.629,11.838 5.716 C 11.974 5.745,12.780 5.760,14.215 5.760 C 16.730 5.760,16.633 5.748,17.004 6.117 C 17.272 6.386,17.378 6.649,17.377 7.044 C 17.375 7.363,17.237 7.682,17.009 7.887 C 16.927 7.961,14.462 9.548,11.530 11.413 C 8.356 13.434,6.110 14.888,5.977 15.010 C 4.888 16.005,4.837 17.766,5.864 18.875 C 6.319 19.367,6.845 19.633,7.529 19.719 C 7.710 19.741,8.380 19.760,9.017 19.760 L 10.176 19.760 10.030 19.910 C 9.708 20.240,9.675 20.703,9.952 21.014 C 10.054 21.130,10.320 21.238,10.500 21.238 C 10.795 21.238,10.945 21.125,11.825 20.235 C 12.608 19.443,12.673 19.366,12.710 19.190 C 12.737 19.063,12.737 18.937,12.710 18.810 C 12.673 18.634,12.608 18.557,11.825 17.765 C 10.945 16.875,10.795 16.762,10.500 16.762 C 10.320 16.762,10.054 16.870,9.952 16.986 C 9.675 17.297,9.708 17.760,10.030 18.090 L 10.176 18.240 8.895 18.240 C 7.381 18.240,7.348 18.234,6.996 17.883 C 6.728 17.614,6.622 17.351,6.623 16.956 C 6.625 16.637,6.763 16.318,6.991 16.113 C 7.073 16.039,9.538 14.452,12.470 12.587 C 15.644 10.566,17.890 9.112,18.023 8.990 C 19.112 7.995,19.163 6.234,18.136 5.125 C 17.675 4.626,17.142 4.360,16.446 4.280 C 16.004 4.230,12.038 4.236,11.807 4.287 M5.046 4.623 C 4.680 4.808,4.499 5.141,4.527 5.580 C 4.548 5.907,4.704 6.169,4.978 6.339 C 5.154 6.448,5.207 6.460,5.500 6.460 C 5.793 6.460,5.846 6.448,6.022 6.339 C 6.143 6.264,6.264 6.143,6.339 6.022 C 6.448 5.846,6.460 5.793,6.460 5.500 C 6.460 5.207,6.448 5.154,6.339 4.978 C 6.160 4.689,5.905 4.545,5.544 4.528 C 5.299 4.517,5.230 4.530,5.046 4.623 M18.060 13.285 C 16.071 13.462,14.461 14.997,14.283 16.885 C 14.085 18.982,15.363 21.385,17.200 22.372 C 17.725 22.654,18.026 22.739,18.500 22.739 C 18.974 22.739,19.275 22.654,19.800 22.372 C 21.376 21.525,22.564 19.633,22.715 17.730 C 22.816 16.455,22.472 15.451,21.632 14.577 C 20.714 13.620,19.445 13.161,18.060 13.285 M19.172 14.824 C 20.170 15.044,21.025 15.873,21.203 16.793 C 21.275 17.168,21.228 17.891,21.101 18.360 C 20.792 19.497,19.948 20.621,19.074 21.059 C 18.790 21.201,18.669 21.240,18.513 21.240 C 18.134 21.240,17.639 20.964,17.130 20.468 C 16.571 19.922,16.113 19.138,15.899 18.359 C 15.771 17.890,15.724 17.168,15.798 16.793 C 15.902 16.263,16.217 15.768,16.718 15.348 C 16.958 15.147,17.480 14.895,17.802 14.824 C 18.159 14.746,18.821 14.746,19.172 14.824 M18.046 16.623 C 17.680 16.808,17.499 17.141,17.527 17.580 C 17.548 17.907,17.704 18.169,17.978 18.339 C 18.154 18.448,18.207 18.460,18.500 18.460 C 18.793 18.460,18.846 18.448,19.022 18.339 C 19.143 18.264,19.264 18.143,19.339 18.022 C 19.448 17.846,19.460 17.793,19.460 17.500 C 19.460 17.207,19.448 17.154,19.339 16.978 C 19.160 16.689,18.905 16.545,18.544 16.528 C 18.299 16.517,18.230 16.530,18.046 16.623 " stroke="none" fill-rule="evenodd" fill="black"></path></svg>