<svg width="24" height="24" viewBox="0 0 24 24" fill="none" xmlns="http://www.w3.org/2000/svg"><path d="M4.740 1.266 C 3.415 1.385,2.327 2.085,1.719 3.212 C 1.400 3.803,1.271 4.320,1.271 5.000 C 1.271 5.682,1.400 6.197,1.721 6.792 C 2.078 7.453,2.549 7.923,3.212 8.281 C 3.803 8.600,4.320 8.729,5.000 8.729 C 5.680 8.729,6.197 8.600,6.788 8.281 C 7.451 7.923,7.922 7.453,8.279 6.792 C 8.600 6.197,8.729 5.682,8.729 5.000 C 8.729 4.320,8.600 3.803,8.281 3.212 C 7.832 2.381,7.122 1.779,6.215 1.463 C 5.793 1.316,5.149 1.230,4.740 1.266 M5.578 2.821 C 5.949 2.918,6.274 3.112,6.581 3.419 C 7.041 3.879,7.240 4.356,7.240 5.000 C 7.240 5.644,7.041 6.121,6.581 6.581 C 6.121 7.041,5.644 7.240,5.000 7.240 C 4.356 7.240,3.879 7.041,3.419 6.581 C 2.959 6.121,2.760 5.644,2.760 5.000 C 2.760 4.356,2.959 3.879,3.419 3.419 C 3.719 3.118,4.050 2.919,4.404 2.823 C 4.692 2.746,5.285 2.745,5.578 2.821 M10.811 4.278 C 10.290 4.406,10.079 5.067,10.426 5.480 C 10.656 5.753,10.478 5.738,13.640 5.760 L 16.500 5.780 16.700 5.886 C 17.123 6.111,17.359 6.504,17.360 6.983 C 17.360 7.366,17.270 7.610,17.044 7.840 C 16.918 7.968,15.179 9.095,11.520 11.421 C 6.624 14.532,6.155 14.839,5.880 15.117 C 5.376 15.625,5.119 16.247,5.121 16.956 C 5.122 17.435,5.207 17.797,5.425 18.240 C 5.670 18.740,6.140 19.224,6.600 19.449 C 7.184 19.736,7.168 19.734,9.276 19.750 L 11.171 19.765 11.030 19.913 C 10.837 20.114,10.760 20.282,10.760 20.500 C 10.760 20.693,10.860 20.935,10.986 21.045 C 11.218 21.249,11.571 21.298,11.832 21.163 C 11.913 21.121,12.361 20.702,12.826 20.233 C 13.518 19.536,13.680 19.351,13.716 19.220 C 13.770 19.021,13.770 18.979,13.716 18.780 C 13.680 18.649,13.517 18.463,12.826 17.766 C 11.952 16.883,11.794 16.763,11.509 16.761 C 11.341 16.760,11.103 16.847,10.987 16.952 C 10.775 17.143,10.697 17.558,10.824 17.812 C 10.860 17.882,10.953 18.008,11.033 18.090 L 11.176 18.240 9.415 18.240 C 7.417 18.240,7.383 18.236,7.060 17.952 C 6.786 17.710,6.640 17.386,6.640 17.017 C 6.640 16.671,6.721 16.420,6.901 16.209 C 6.999 16.095,8.571 15.075,12.408 12.635 C 17.375 9.476,17.802 9.196,18.104 8.898 C 18.365 8.640,18.463 8.508,18.593 8.238 C 18.798 7.815,18.879 7.475,18.879 7.040 C 18.879 6.566,18.793 6.203,18.575 5.760 C 18.330 5.259,17.859 4.775,17.400 4.552 C 16.790 4.254,16.944 4.267,13.780 4.256 C 12.218 4.250,10.882 4.260,10.811 4.278 M18.740 15.266 C 17.415 15.385,16.327 16.085,15.719 17.212 C 15.400 17.803,15.271 18.320,15.271 19.000 C 15.271 19.682,15.400 20.197,15.721 20.792 C 16.078 21.453,16.549 21.923,17.212 22.281 C 17.803 22.600,18.320 22.729,19.000 22.729 C 19.680 22.729,20.197 22.600,20.788 22.281 C 21.451 21.923,21.922 21.453,22.279 20.792 C 22.600 20.197,22.729 19.682,22.729 19.000 C 22.729 18.320,22.600 17.803,22.281 17.212 C 21.832 16.381,21.122 15.779,20.215 15.463 C 19.793 15.316,19.149 15.230,18.740 15.266 M19.578 16.821 C 19.949 16.918,20.274 17.112,20.581 17.419 C 21.041 17.879,21.240 18.356,21.240 19.000 C 21.240 19.644,21.041 20.121,20.581 20.581 C 20.121 21.041,19.644 21.240,19.000 21.240 C 18.356 21.240,17.879 21.041,17.419 20.581 C 16.959 20.121,16.760 19.644,16.760 19.000 C 16.760 18.356,16.959 17.879,17.419 17.419 C 17.719 17.118,18.050 16.919,18.404 16.823 C 18.692 16.746,19.285 16.745,19.578 16.821 " fill="#1C274C" stroke="none" fill-rule="evenodd"></path></svg>