<svg width="24" height="24" viewBox="0 0 24 24" fill="none" xmlns="http://www.w3.org/2000/svg"><path d="M5.660 2.278 C 4.776 2.385,4.027 2.901,3.568 3.720 C 3.168 4.434,3.168 5.566,3.568 6.280 C 4.094 7.219,4.953 7.731,6.000 7.731 C 6.685 7.731,7.182 7.558,7.727 7.131 C 8.084 6.851,8.474 6.305,8.599 5.909 L 8.647 5.758 12.853 5.769 L 17.060 5.780 17.320 5.874 C 18.233 6.202,18.828 6.804,19.127 7.700 C 19.205 7.936,19.220 8.062,19.220 8.500 C 19.220 8.938,19.205 9.064,19.127 9.300 C 18.811 10.245,18.099 10.925,17.176 11.161 C 16.877 11.237,16.714 11.240,12.152 11.240 C 9.072 11.240,7.304 11.255,7.053 11.283 C 5.484 11.458,4.150 12.461,3.562 13.909 C 2.969 15.368,3.237 17.031,4.261 18.247 C 4.846 18.942,5.649 19.424,6.635 19.669 C 6.874 19.729,7.457 19.737,12.537 19.749 L 18.173 19.762 17.751 20.191 C 17.413 20.534,17.319 20.655,17.281 20.795 C 17.128 21.364,17.634 21.870,18.205 21.719 C 18.358 21.679,18.520 21.535,19.493 20.567 C 20.105 19.958,20.630 19.414,20.659 19.359 C 20.747 19.193,20.770 18.984,20.720 18.796 C 20.679 18.641,20.541 18.487,19.587 17.528 C 18.989 16.927,18.439 16.398,18.364 16.351 C 18.267 16.290,18.164 16.267,17.997 16.267 C 17.491 16.267,17.150 16.715,17.281 17.205 C 17.319 17.345,17.413 17.466,17.752 17.810 L 18.175 18.240 12.654 18.240 C 7.329 18.240,7.122 18.237,6.831 18.163 C 6.044 17.961,5.395 17.431,5.036 16.695 C 4.372 15.332,4.936 13.705,6.305 13.037 C 6.894 12.749,6.639 12.762,11.960 12.760 C 14.939 12.759,16.846 12.743,17.020 12.718 C 18.905 12.448,20.284 11.147,20.686 9.260 C 20.752 8.951,20.752 8.049,20.686 7.740 C 20.279 5.827,18.837 4.493,16.947 4.283 C 16.700 4.255,15.148 4.240,12.605 4.240 L 8.646 4.240 8.599 4.090 C 8.573 4.008,8.497 3.841,8.430 3.720 C 7.867 2.700,6.796 2.142,5.660 2.278 M6.454 3.841 C 6.744 3.950,7.050 4.256,7.159 4.546 C 7.335 5.017,7.227 5.521,6.874 5.874 C 6.390 6.359,5.624 6.367,5.143 5.893 C 4.841 5.594,4.780 5.446,4.780 5.000 C 4.780 4.554,4.841 4.406,5.144 4.107 C 5.482 3.773,5.994 3.669,6.454 3.841 " fill="#1C274C" stroke="none" fill-rule="evenodd"></path></svg>