<svg width="24" height="24" viewBox="0 0 24 24" fill="none" xmlns="http://www.w3.org/2000/svg"><path d="M11.595 1.282 C 10.606 1.389,9.731 1.833,8.520 2.842 C 7.359 3.809,3.811 7.357,2.842 8.520 C 1.700 9.891,1.272 10.839,1.272 12.000 C 1.272 13.161,1.699 14.108,2.842 15.480 C 3.809 16.641,7.357 20.189,8.520 21.158 C 9.891 22.300,10.839 22.728,12.000 22.728 C 13.457 22.728,14.557 22.095,16.760 19.991 C 17.621 19.169,19.600 17.183,20.340 16.400 C 21.743 14.915,22.444 13.822,22.661 12.780 C 22.796 12.132,22.730 11.268,22.499 10.654 C 22.028 9.403,21.100 8.287,17.896 5.120 C 16.043 3.288,15.318 2.643,14.520 2.112 C 13.525 1.452,12.560 1.178,11.595 1.282 M12.727 2.872 C 13.794 3.254,14.767 4.075,17.820 7.164 C 19.939 9.308,20.519 9.988,20.916 10.789 C 21.178 11.320,21.220 11.487,21.220 12.000 C 21.220 12.513,21.178 12.680,20.916 13.211 C 20.519 14.012,19.939 14.692,17.820 16.836 C 15.148 19.540,14.079 20.486,13.215 20.913 C 12.680 21.178,12.514 21.220,12.000 21.220 C 11.486 21.220,11.316 21.178,10.790 20.917 C 9.928 20.492,8.854 19.541,6.179 16.836 C 3.672 14.299,3.077 13.535,2.816 12.517 C 2.731 12.185,2.758 11.596,2.873 11.273 C 3.225 10.283,3.786 9.586,6.180 7.164 C 9.366 3.940,10.352 3.127,11.443 2.821 C 11.747 2.736,12.422 2.763,12.727 2.872 M13.174 8.278 C 12.696 8.392,12.455 8.925,12.690 9.351 C 12.740 9.441,13.074 9.789,13.436 10.127 L 14.093 10.740 12.096 10.764 C 10.459 10.783,10.053 10.799,9.836 10.852 C 8.591 11.155,7.689 11.946,7.387 13.000 C 7.301 13.302,7.236 13.987,7.277 14.167 C 7.397 14.696,8.023 14.913,8.464 14.579 C 8.641 14.445,8.714 14.261,8.758 13.843 C 8.833 13.111,9.172 12.671,9.874 12.393 C 10.222 12.256,10.572 12.235,12.356 12.248 L 14.092 12.260 13.456 12.857 C 12.693 13.572,12.632 13.650,12.608 13.938 C 12.571 14.388,12.886 14.731,13.334 14.731 C 13.448 14.731,13.597 14.703,13.663 14.669 C 13.794 14.601,16.483 12.090,16.610 11.917 C 16.775 11.691,16.775 11.309,16.610 11.083 C 16.492 10.923,13.798 8.401,13.682 8.342 C 13.540 8.270,13.323 8.243,13.174 8.278 " stroke="none" fill-rule="evenodd" fill="black"></path></svg>