<svg width="24" height="24" viewBox="0 0 24 24" fill="none" xmlns="http://www.w3.org/2000/svg"><path d="M11.310 1.283 C 6.653 1.563,2.667 4.904,1.564 9.450 C 1.162 11.110,1.162 12.890,1.564 14.550 C 2.415 18.060,5.032 20.948,8.442 22.139 C 10.725 22.937,13.275 22.937,15.558 22.139 C 18.633 21.065,21.092 18.592,22.157 15.503 C 22.819 13.585,22.918 11.437,22.436 9.450 C 21.419 5.255,17.924 2.044,13.657 1.383 C 13.303 1.328,12.042 1.231,11.880 1.246 C 11.847 1.249,11.590 1.266,11.310 1.283 M12.992 2.802 C 14.750 2.993,16.561 3.756,17.878 4.859 C 18.914 5.728,19.725 6.758,20.304 7.940 C 20.940 9.239,21.240 10.538,21.240 12.000 C 21.240 13.462,20.940 14.764,20.304 16.060 C 18.921 18.877,16.278 20.768,13.146 21.178 C 12.214 21.301,10.974 21.244,10.002 21.034 C 8.667 20.747,7.178 20.022,6.140 19.153 C 4.272 17.590,3.134 15.531,2.822 13.146 C 2.699 12.214,2.756 10.974,2.966 10.002 C 3.253 8.667,3.978 7.178,4.847 6.140 C 5.196 5.722,5.821 5.101,6.213 4.783 C 7.491 3.743,9.284 2.994,10.940 2.807 C 11.397 2.755,12.535 2.753,12.992 2.802 M10.680 6.293 C 10.310 6.363,10.056 6.499,9.777 6.778 C 9.490 7.064,9.345 7.348,9.284 7.748 C 9.258 7.921,9.240 8.667,9.240 9.629 L 9.240 11.222 8.960 11.266 C 8.496 11.339,8.262 11.596,8.267 12.030 C 8.271 12.424,8.550 12.699,8.995 12.746 L 9.240 12.771 9.240 12.997 L 9.240 13.222 8.960 13.266 C 8.497 13.339,8.262 13.597,8.267 14.026 C 8.271 14.422,8.549 14.699,8.989 14.745 L 9.235 14.771 9.247 15.995 C 9.260 17.204,9.261 17.222,9.355 17.373 C 9.506 17.615,9.718 17.733,10.003 17.733 C 10.203 17.733,10.270 17.714,10.408 17.617 C 10.729 17.390,10.738 17.344,10.753 15.974 L 10.765 14.768 11.493 14.754 C 12.171 14.741,12.230 14.734,12.369 14.647 C 12.943 14.290,12.812 13.424,12.162 13.284 C 12.049 13.260,11.687 13.240,11.358 13.240 L 10.760 13.240 10.760 13.004 L 10.760 12.768 12.370 12.748 C 14.160 12.727,14.303 12.710,14.836 12.458 C 15.761 12.021,16.461 11.168,16.663 10.233 C 16.699 10.066,16.726 9.750,16.726 9.500 C 16.726 8.969,16.648 8.579,16.461 8.174 C 16.039 7.261,15.192 6.556,14.252 6.336 C 13.888 6.251,11.082 6.217,10.680 6.293 M14.245 7.929 C 14.618 8.113,14.914 8.414,15.092 8.790 C 15.212 9.043,15.220 9.088,15.220 9.500 C 15.220 9.912,15.212 9.957,15.092 10.210 C 14.914 10.586,14.618 10.887,14.245 11.071 L 13.944 11.220 12.352 11.232 L 10.760 11.243 10.760 9.575 C 10.760 8.063,10.766 7.899,10.828 7.831 C 10.892 7.760,10.973 7.757,12.420 7.768 L 13.944 7.780 14.245 7.929 " stroke="none" fill-rule="evenodd" fill="black"></path></svg>