<svg width="24" height="24" viewBox="0 0 24 24" fill="none" xmlns="http://www.w3.org/2000/svg"><path d="M15.020 1.265 C 10.172 1.430,6.601 2.802,4.403 5.342 C 2.307 7.764,1.272 11.222,1.273 15.800 C 1.274 17.761,1.367 18.735,1.622 19.440 C 2.116 20.808,3.192 21.884,4.560 22.378 C 5.269 22.635,6.216 22.726,8.200 22.729 C 9.470 22.731,10.127 22.694,11.240 22.556 C 15.015 22.089,17.837 20.749,19.708 18.536 C 21.710 16.168,22.728 12.681,22.727 8.200 C 22.726 5.470,22.563 4.600,21.847 3.501 C 21.611 3.139,20.861 2.389,20.499 2.153 C 19.661 1.607,18.957 1.399,17.700 1.324 C 16.917 1.277,15.545 1.247,15.020 1.265 M18.060 2.839 C 18.595 2.903,18.857 2.978,19.300 3.198 C 19.962 3.526,20.474 4.038,20.802 4.700 C 21.022 5.143,21.097 5.405,21.161 5.940 C 21.203 6.289,21.268 8.800,21.236 8.800 C 21.227 8.800,19.861 7.439,18.200 5.776 L 15.180 2.752 16.440 2.774 C 17.133 2.786,17.862 2.815,18.060 2.839 M17.149 6.850 L 21.118 10.820 21.059 11.240 C 20.663 14.053,19.813 16.148,18.431 17.720 C 16.965 19.386,14.742 20.483,11.869 20.957 C 11.490 21.020,11.098 21.081,10.998 21.094 L 10.816 21.116 6.848 17.148 L 2.881 13.180 2.962 12.620 C 3.187 11.066,3.549 9.768,4.084 8.593 C 5.576 5.315,8.399 3.512,12.980 2.908 C 13.046 2.899,13.118 2.889,13.140 2.886 C 13.162 2.883,14.966 4.667,17.149 6.850 M12.110 8.043 C 11.819 8.196,11.659 8.592,11.761 8.906 C 11.796 9.016,11.958 9.209,12.325 9.581 L 12.839 10.103 12.419 10.521 L 12.000 10.939 11.510 10.451 C 11.223 10.165,10.958 9.938,10.871 9.902 C 10.417 9.714,9.905 10.011,9.851 10.495 C 9.815 10.811,9.890 10.938,10.434 11.491 L 10.937 12.001 10.520 12.420 L 10.103 12.839 9.581 12.325 C 9.016 11.767,8.885 11.690,8.586 11.737 C 8.103 11.814,7.827 12.323,8.019 12.784 C 8.052 12.862,8.294 13.145,8.558 13.415 L 9.038 13.904 8.576 14.362 C 8.065 14.869,7.960 15.029,7.960 15.300 C 7.960 15.739,8.262 16.040,8.704 16.040 C 8.971 16.040,9.133 15.933,9.638 15.424 L 10.096 14.962 10.585 15.442 C 10.855 15.706,11.138 15.948,11.216 15.981 C 11.677 16.173,12.186 15.897,12.263 15.414 C 12.310 15.115,12.233 14.984,11.675 14.419 L 11.161 13.897 11.581 13.479 L 12.000 13.061 12.490 13.549 C 12.993 14.050,13.161 14.160,13.420 14.160 C 13.580 14.160,13.818 14.071,13.934 13.968 C 14.047 13.868,14.158 13.602,14.159 13.429 C 14.161 13.161,14.054 12.998,13.549 12.490 L 13.061 12.000 13.479 11.581 L 13.897 11.161 14.419 11.675 C 14.984 12.233,15.115 12.310,15.414 12.263 C 15.897 12.186,16.173 11.677,15.981 11.216 C 15.948 11.138,15.706 10.855,15.442 10.585 L 14.962 10.096 15.424 9.638 C 15.935 9.131,16.040 8.971,16.040 8.700 C 16.040 8.261,15.738 7.960,15.296 7.960 C 15.029 7.960,14.867 8.067,14.362 8.576 L 13.904 9.038 13.415 8.558 C 13.145 8.294,12.862 8.052,12.784 8.019 C 12.588 7.937,12.290 7.947,12.110 8.043 M8.050 21.233 C 7.182 21.247,5.900 21.180,5.518 21.099 C 4.512 20.888,3.655 20.223,3.198 19.300 C 2.856 18.608,2.807 18.280,2.774 16.440 L 2.752 15.180 5.776 18.200 L 8.800 21.220 8.050 21.233 " stroke="none" fill-rule="evenodd" fill="black"></path></svg>