<svg width="24" height="24" viewBox="0 0 24 24" fill="none" xmlns="http://www.w3.org/2000/svg"><path d="M15.320 1.278 C 14.743 1.355,14.169 1.669,13.462 2.294 C 12.990 2.711,3.637 12.043,2.751 12.980 C 1.598 14.200,1.271 14.778,1.270 15.597 C 1.270 16.199,1.460 16.704,1.919 17.312 C 2.315 17.837,4.344 19.921,5.853 21.352 C 6.954 22.396,7.573 22.731,8.403 22.730 C 8.812 22.730,9.105 22.653,9.520 22.436 C 9.951 22.212,10.259 21.967,11.045 21.225 C 12.116 20.215,21.507 10.784,21.825 10.400 C 22.491 9.597,22.730 9.069,22.730 8.403 C 22.730 7.801,22.540 7.296,22.081 6.688 C 21.499 5.915,18.085 2.502,17.313 1.920 C 16.631 1.406,15.968 1.192,15.320 1.278 M16.014 2.863 C 16.351 3.032,16.601 3.243,17.597 4.201 C 18.518 5.086,20.376 6.976,20.722 7.380 C 21.384 8.153,21.400 8.541,20.799 9.300 C 20.469 9.718,9.718 20.469,9.300 20.799 C 8.541 21.400,8.153 21.384,7.380 20.722 C 6.629 20.079,3.485 16.908,3.128 16.435 C 2.524 15.633,2.606 15.319,3.737 14.111 L 4.138 13.682 4.699 14.238 C 5.059 14.594,5.303 14.805,5.380 14.825 C 5.708 14.912,6.047 14.810,6.231 14.570 C 6.378 14.377,6.404 14.002,6.287 13.777 C 6.242 13.691,5.979 13.395,5.703 13.121 L 5.200 12.621 5.730 12.090 L 6.259 11.560 7.140 12.436 C 7.624 12.918,8.078 13.341,8.148 13.376 C 8.317 13.460,8.626 13.457,8.797 13.370 C 9.014 13.259,9.168 13.037,9.191 12.801 C 9.226 12.431,9.166 12.346,8.201 11.380 L 7.320 10.501 7.848 9.972 L 8.377 9.442 8.938 9.996 C 9.443 10.493,9.520 10.553,9.690 10.590 C 10.268 10.713,10.713 10.268,10.590 9.690 C 10.553 9.520,10.493 9.443,9.996 8.938 L 9.442 8.377 9.972 7.848 L 10.501 7.320 11.360 8.183 C 11.833 8.657,12.291 9.082,12.377 9.127 C 12.609 9.248,12.947 9.216,13.149 9.055 C 13.232 8.988,13.331 8.873,13.370 8.797 C 13.457 8.626,13.460 8.317,13.376 8.148 C 13.341 8.078,12.918 7.624,12.436 7.140 L 11.560 6.259 12.090 5.730 L 12.621 5.200 13.121 5.703 C 13.395 5.979,13.691 6.242,13.777 6.287 C 14.002 6.404,14.377 6.378,14.570 6.231 C 14.810 6.047,14.912 5.708,14.825 5.380 C 14.805 5.303,14.594 5.059,14.238 4.699 L 13.682 4.138 14.111 3.737 C 15.151 2.763,15.498 2.604,16.014 2.863 " stroke="none" fill-rule="evenodd" fill="black"></path></svg>