<svg width="24" height="24" viewBox="0 0 24 24" fill="none" xmlns="http://www.w3.org/2000/svg"><path d="M4.580 1.284 C 3.089 1.441,1.837 2.454,1.405 3.853 C 1.242 4.381,1.234 4.747,1.251 10.880 C 1.266 16.651,1.268 16.746,1.350 17.120 C 1.530 17.935,1.639 18.175,2.932 20.628 C 3.317 21.359,3.692 22.039,3.765 22.140 C 3.837 22.242,4.000 22.394,4.126 22.478 C 4.801 22.929,5.773 22.768,6.243 22.128 C 6.309 22.039,6.679 21.366,7.065 20.633 C 8.362 18.175,8.470 17.934,8.650 17.120 C 8.732 16.746,8.733 16.648,8.749 10.880 C 8.766 4.746,8.758 4.382,8.595 3.853 C 8.234 2.683,7.295 1.767,6.103 1.422 C 5.827 1.342,5.034 1.223,4.926 1.245 C 4.912 1.248,4.756 1.266,4.580 1.284 M14.520 1.282 C 14.135 1.298,13.703 1.332,13.560 1.357 C 12.375 1.570,11.698 2.177,11.418 3.280 C 11.274 3.844,11.269 4.086,11.252 11.198 C 11.235 18.056,11.257 19.890,11.360 20.460 C 11.588 21.712,12.289 22.412,13.540 22.640 C 14.395 22.795,19.605 22.795,20.460 22.640 C 21.711 22.412,22.411 21.712,22.640 20.460 C 22.733 19.947,22.757 18.227,22.757 11.980 C 22.757 5.749,22.734 4.058,22.640 3.540 C 22.412 2.289,21.711 1.588,20.460 1.360 C 19.876 1.254,16.325 1.207,14.520 1.282 M5.596 2.822 C 5.975 2.911,6.304 3.102,6.624 3.419 C 7.086 3.876,7.240 4.265,7.240 4.981 L 7.240 5.428 6.970 5.552 C 6.277 5.869,5.703 6.000,5.000 6.000 C 4.297 6.000,3.723 5.869,3.030 5.552 L 2.760 5.428 2.760 4.981 C 2.760 4.265,2.914 3.876,3.376 3.419 C 3.689 3.108,4.025 2.911,4.385 2.823 C 4.698 2.748,5.279 2.747,5.596 2.822 M20.260 2.834 C 20.370 2.859,20.559 2.930,20.679 2.991 C 20.863 3.084,20.916 3.137,21.009 3.321 C 21.071 3.441,21.143 3.648,21.170 3.780 C 21.243 4.130,21.243 19.870,21.170 20.220 C 21.143 20.352,21.071 20.559,21.009 20.679 C 20.916 20.863,20.863 20.916,20.679 21.009 C 20.271 21.217,20.211 21.220,17.000 21.220 C 13.789 21.220,13.729 21.217,13.321 21.009 C 13.137 20.916,13.084 20.863,12.991 20.679 C 12.841 20.383,12.805 20.173,12.774 19.410 L 12.748 18.760 13.352 18.760 C 14.121 18.760,14.321 18.719,14.520 18.520 C 14.918 18.122,14.730 17.423,14.189 17.286 C 14.087 17.261,13.725 17.240,13.382 17.240 L 12.760 17.240 12.760 16.500 L 12.760 15.760 13.858 15.760 C 15.144 15.760,15.303 15.737,15.520 15.520 C 15.918 15.122,15.730 14.423,15.189 14.286 C 15.071 14.257,14.600 14.240,13.882 14.240 L 12.760 14.240 12.760 13.500 L 12.760 12.760 13.358 12.760 C 14.121 12.760,14.321 12.719,14.520 12.520 C 14.918 12.122,14.730 11.423,14.189 11.286 C 14.087 11.261,13.725 11.240,13.382 11.240 L 12.760 11.240 12.760 10.500 L 12.760 9.760 13.858 9.760 C 15.144 9.760,15.303 9.737,15.520 9.520 C 15.918 9.122,15.730 8.423,15.189 8.286 C 15.071 8.257,14.600 8.240,13.882 8.240 L 12.760 8.240 12.760 7.500 L 12.760 6.760 13.358 6.760 C 14.121 6.760,14.321 6.719,14.520 6.520 C 14.918 6.122,14.730 5.423,14.189 5.286 C 14.087 5.261,13.725 5.240,13.382 5.240 L 12.760 5.240 12.760 4.838 C 12.760 3.961,12.887 3.359,13.123 3.123 C 13.276 2.970,13.601 2.851,13.989 2.805 C 14.447 2.751,20.009 2.776,20.260 2.834 M3.074 7.180 C 3.730 7.403,4.115 7.459,5.000 7.459 C 5.885 7.459,6.270 7.403,6.926 7.180 C 7.088 7.125,7.225 7.080,7.230 7.080 C 7.236 7.080,7.240 9.212,7.240 11.818 C 7.240 15.011,7.226 16.625,7.197 16.768 C 7.089 17.305,6.933 17.669,6.262 18.944 L 5.570 20.260 5.000 20.260 L 4.430 20.260 3.738 18.944 C 3.067 17.669,2.911 17.305,2.803 16.768 C 2.774 16.625,2.760 15.011,2.760 11.818 C 2.760 9.212,2.764 7.080,2.770 7.080 C 2.776 7.080,2.912 7.125,3.074 7.180 " stroke="none" fill-rule="evenodd" fill="black"></path></svg>