<svg width="24" height="24" viewBox="0 0 24 24" fill="none" xmlns="http://www.w3.org/2000/svg"><path d="M8.080 1.279 C 7.783 1.317,7.596 1.381,7.240 1.565 C 6.800 1.792,6.490 2.041,5.631 2.856 C 4.629 3.807,2.505 5.964,2.140 6.402 C 1.759 6.860,1.509 7.272,1.375 7.660 C 1.221 8.108,1.219 8.684,1.370 9.112 C 1.577 9.697,1.905 10.146,2.845 11.131 C 3.537 11.855,3.635 11.938,3.881 12.003 C 4.446 12.152,4.966 11.554,4.740 11.014 C 4.707 10.935,4.427 10.609,4.114 10.287 C 3.065 9.205,2.796 8.836,2.767 8.435 C 2.731 7.928,2.986 7.611,5.299 5.299 C 7.611 2.986,7.928 2.731,8.435 2.767 C 8.793 2.793,9.100 3.000,9.960 3.794 L 10.220 4.035 9.231 5.027 C 8.585 5.676,8.222 6.071,8.181 6.169 C 7.994 6.623,8.291 7.135,8.775 7.189 C 9.134 7.230,9.161 7.209,10.590 5.786 C 11.760 4.621,11.927 4.439,11.983 4.270 C 12.037 4.108,12.040 4.043,12.000 3.869 C 11.955 3.672,11.914 3.622,11.275 2.992 C 10.532 2.259,10.081 1.877,9.676 1.639 C 9.178 1.345,8.590 1.213,8.080 1.279 M17.614 1.283 C 16.736 1.363,15.897 1.700,15.180 2.262 C 15.004 2.400,12.474 4.904,9.559 7.826 C 5.653 11.741,4.198 13.224,4.032 13.460 C 3.712 13.914,3.493 14.284,3.292 14.707 C 3.099 15.114,1.345 20.319,1.280 20.680 C 1.224 20.988,1.283 21.378,1.435 21.703 C 1.764 22.404,2.557 22.837,3.300 22.720 C 3.711 22.655,8.873 20.908,9.381 20.662 C 9.995 20.364,10.599 19.950,11.131 19.461 C 11.378 19.234,13.859 16.765,16.644 13.974 C 20.981 9.629,21.740 8.851,21.930 8.560 C 22.417 7.811,22.644 7.174,22.715 6.357 C 22.967 3.422,20.548 1.016,17.614 1.283 M18.740 2.820 C 19.374 2.952,19.899 3.258,20.397 3.784 C 20.963 4.382,21.241 5.096,21.239 5.948 C 21.238 6.565,21.102 7.069,20.794 7.589 C 20.720 7.714,20.436 8.048,20.161 8.331 C 19.588 8.923,19.678 8.896,19.020 8.672 C 18.143 8.374,17.456 7.940,16.758 7.242 C 16.060 6.544,15.626 5.857,15.328 4.980 C 15.104 4.322,15.077 4.412,15.669 3.839 C 16.324 3.204,16.734 2.959,17.375 2.820 C 17.705 2.748,18.396 2.748,18.740 2.820 M14.163 6.093 C 14.508 6.898,14.988 7.588,15.700 8.300 C 16.518 9.118,17.271 9.607,18.371 10.033 C 18.427 10.054,17.562 10.938,14.171 14.323 C 11.606 16.883,9.788 18.667,9.620 18.788 C 8.938 19.282,8.557 19.440,6.010 20.285 L 4.400 20.819 3.790 20.210 L 3.181 19.600 3.775 17.810 C 4.103 16.826,4.432 15.864,4.506 15.673 C 4.674 15.245,4.944 14.750,5.212 14.380 C 5.333 14.212,7.117 12.394,9.677 9.829 C 13.062 6.438,13.946 5.573,13.967 5.629 C 13.983 5.668,14.071 5.877,14.163 6.093 M19.760 12.010 C 19.594 12.045,19.481 12.145,18.265 13.354 C 17.399 14.214,16.925 14.715,16.876 14.820 C 16.663 15.278,16.958 15.814,17.455 15.869 C 17.804 15.909,17.865 15.865,18.953 14.785 L 19.966 13.780 20.206 14.040 C 20.998 14.899,21.207 15.208,21.232 15.558 C 21.269 16.070,21.007 16.395,18.701 18.701 C 16.458 20.944,16.098 21.241,15.622 21.240 C 15.214 21.239,14.854 20.986,13.754 19.927 C 13.213 19.405,13.057 19.277,12.920 19.240 C 12.355 19.088,11.846 19.602,12.003 20.166 C 12.044 20.313,12.157 20.445,12.727 21.008 C 13.749 22.019,14.274 22.413,14.888 22.630 C 15.316 22.781,15.892 22.779,16.340 22.625 C 16.732 22.490,17.141 22.240,17.618 21.844 C 18.088 21.452,21.452 18.088,21.844 17.618 C 22.240 17.141,22.490 16.732,22.625 16.340 C 22.718 16.068,22.735 15.957,22.734 15.600 C 22.730 14.730,22.414 14.187,21.136 12.850 C 20.353 12.032,20.174 11.923,19.760 12.010 " fill="#1C274C" stroke="none" fill-rule="evenodd"></path></svg>