<svg width="24" height="24" viewBox="0 0 24 24" fill="none" xmlns="http://www.w3.org/2000/svg"><path d="M4.520 1.281 C 4.135 1.297,3.703 1.332,3.560 1.357 C 2.378 1.569,1.706 2.170,1.418 3.273 C 1.264 3.866,1.260 4.086,1.260 12.200 C 1.260 19.532,1.265 20.085,1.330 20.432 C 1.464 21.137,1.653 21.525,2.064 21.936 C 2.477 22.349,2.872 22.541,3.568 22.666 C 4.113 22.764,6.887 22.764,7.432 22.666 C 8.128 22.541,8.516 22.352,8.934 21.934 C 9.345 21.523,9.534 21.141,9.666 20.453 C 9.727 20.137,9.736 19.565,9.757 14.992 C 9.776 10.879,9.790 9.874,9.832 9.832 C 9.874 9.790,10.879 9.776,14.992 9.757 C 20.501 9.732,20.416 9.736,21.030 9.520 C 21.690 9.288,22.288 8.690,22.520 8.029 C 22.704 7.507,22.733 7.157,22.733 5.500 C 22.733 3.843,22.704 3.493,22.520 2.971 C 22.285 2.303,21.697 1.715,21.030 1.480 C 20.398 1.258,20.777 1.268,12.680 1.259 C 8.577 1.254,4.905 1.264,4.520 1.281 M8.247 3.990 C 8.260 5.196,8.262 5.223,8.353 5.369 C 8.710 5.943,9.576 5.812,9.716 5.162 C 9.742 5.040,9.760 4.509,9.760 3.858 L 9.760 2.760 10.496 2.760 L 11.232 2.760 11.246 3.490 C 11.259 4.171,11.266 4.230,11.353 4.369 C 11.710 4.943,12.576 4.812,12.716 4.162 C 12.740 4.049,12.760 3.687,12.760 3.358 L 12.760 2.760 13.497 2.760 L 14.235 2.760 14.247 3.990 C 14.260 5.196,14.262 5.223,14.353 5.369 C 14.710 5.943,15.576 5.812,15.716 5.162 C 15.742 5.040,15.760 4.509,15.760 3.858 L 15.760 2.760 16.496 2.760 L 17.232 2.760 17.246 3.490 C 17.259 4.171,17.266 4.230,17.353 4.369 C 17.710 4.943,18.576 4.812,18.716 4.162 C 18.740 4.049,18.760 3.685,18.760 3.353 L 18.760 2.750 19.510 2.770 C 20.433 2.795,20.582 2.834,20.875 3.126 C 21.218 3.470,21.220 3.482,21.220 5.500 C 21.220 7.518,21.218 7.530,20.875 7.874 C 20.505 8.244,20.976 8.214,15.060 8.241 C 9.874 8.264,9.859 8.265,9.546 8.352 C 8.879 8.537,8.537 8.880,8.351 9.550 C 8.265 9.858,8.264 9.895,8.241 15.060 C 8.214 20.976,8.244 20.505,7.874 20.875 C 7.530 21.218,7.518 21.220,5.500 21.220 C 3.482 21.220,3.470 21.218,3.126 20.875 C 2.834 20.582,2.795 20.433,2.770 19.510 L 2.750 18.760 3.353 18.760 C 4.121 18.760,4.321 18.719,4.520 18.520 C 4.918 18.122,4.730 17.423,4.189 17.286 C 4.087 17.261,3.725 17.240,3.382 17.240 L 2.760 17.240 2.760 16.500 L 2.760 15.760 3.858 15.760 C 5.144 15.760,5.303 15.737,5.520 15.520 C 5.918 15.122,5.730 14.423,5.189 14.286 C 5.071 14.257,4.600 14.240,3.882 14.240 L 2.760 14.240 2.760 13.500 L 2.760 12.760 3.358 12.760 C 4.121 12.760,4.321 12.719,4.520 12.520 C 4.918 12.122,4.730 11.423,4.189 11.286 C 4.087 11.261,3.725 11.240,3.382 11.240 L 2.760 11.240 2.760 10.500 L 2.760 9.760 3.858 9.760 C 5.144 9.760,5.303 9.737,5.520 9.520 C 5.918 9.122,5.730 8.423,5.189 8.286 C 5.071 8.257,4.600 8.240,3.882 8.240 L 2.760 8.240 2.760 6.338 C 2.760 5.251,2.778 4.272,2.803 4.052 C 2.880 3.364,3.046 3.078,3.460 2.924 C 3.812 2.792,4.186 2.771,6.267 2.765 L 8.235 2.760 8.247 3.990 " stroke="none" fill-rule="evenodd" fill="black"></path></svg>