<svg width="24" height="24" viewBox="0 0 24 24" fill="none" xmlns="http://www.w3.org/2000/svg"><path d="M18.140 1.282 C 17.728 1.327,17.503 1.387,17.177 1.537 C 16.250 1.966,15.540 2.826,15.337 3.767 C 15.255 4.148,15.255 4.853,15.338 5.240 C 15.408 5.568,15.602 6.012,15.806 6.310 C 16.257 6.971,17.034 7.509,17.761 7.665 C 18.149 7.748,18.851 7.747,19.240 7.663 C 20.386 7.415,21.415 6.383,21.663 5.233 C 21.745 4.854,21.745 4.146,21.663 3.767 C 21.503 3.026,20.974 2.259,20.307 1.804 C 19.707 1.394,18.896 1.198,18.140 1.282 M19.247 2.930 C 19.618 3.113,19.915 3.415,20.092 3.790 C 20.212 4.043,20.220 4.088,20.220 4.500 C 20.220 4.912,20.212 4.957,20.092 5.210 C 19.914 5.586,19.618 5.887,19.245 6.071 C 18.952 6.216,18.932 6.220,18.500 6.220 C 18.068 6.220,18.048 6.216,17.755 6.071 C 17.382 5.887,17.086 5.586,16.908 5.210 C 16.788 4.957,16.780 4.912,16.780 4.500 C 16.780 4.088,16.788 4.043,16.907 3.791 C 17.123 3.335,17.494 3.003,17.979 2.830 C 18.132 2.775,18.272 2.761,18.564 2.770 C 18.914 2.781,18.976 2.796,19.247 2.930 M10.060 5.938 C 9.382 6.032,8.703 6.256,7.820 6.678 C 6.815 7.157,3.639 8.952,3.455 9.144 C 2.968 9.652,3.463 10.512,4.153 10.357 C 4.235 10.339,4.806 10.038,5.421 9.688 C 7.774 8.353,8.760 7.842,9.406 7.624 C 10.453 7.270,11.294 7.328,12.290 7.823 C 12.680 8.017,13.120 8.302,13.120 8.362 C 13.120 8.383,12.613 9.035,11.992 9.810 C 10.587 11.567,10.224 12.054,10.010 12.464 C 9.786 12.896,9.718 13.174,9.718 13.660 C 9.718 14.135,9.786 14.429,9.989 14.840 C 10.207 15.278,10.733 15.787,11.880 16.670 C 13.107 17.613,13.296 17.811,13.523 18.383 C 13.615 18.616,13.617 18.651,13.638 20.420 C 13.660 22.215,13.660 22.220,13.753 22.369 C 14.122 22.964,14.979 22.816,15.122 22.134 C 15.182 21.847,15.149 18.884,15.081 18.480 C 14.992 17.948,14.773 17.420,14.460 16.980 C 14.199 16.615,13.784 16.240,12.840 15.519 C 11.842 14.758,11.320 14.264,11.248 14.015 C 11.132 13.615,11.203 13.307,11.520 12.841 C 11.675 12.611,14.225 9.400,14.252 9.400 C 14.284 9.400,14.744 9.995,15.088 10.480 C 15.556 11.142,15.756 11.367,16.166 11.695 C 16.753 12.165,17.503 12.513,18.247 12.663 C 18.690 12.751,20.784 12.794,21.134 12.721 C 21.683 12.607,21.919 11.981,21.580 11.536 C 21.379 11.272,21.324 11.263,19.840 11.237 C 18.591 11.215,18.481 11.208,18.220 11.123 C 17.532 10.899,16.949 10.487,16.540 9.933 C 16.408 9.755,16.143 9.395,15.951 9.134 C 14.575 7.268,12.981 6.191,11.220 5.939 C 10.749 5.871,10.545 5.871,10.060 5.938 M8.860 16.268 C 8.608 16.331,8.485 16.452,7.647 17.454 C 6.625 18.675,6.308 18.992,5.974 19.123 C 5.750 19.211,5.680 19.216,4.280 19.238 C 2.626 19.263,2.614 19.265,2.383 19.592 C 2.286 19.730,2.267 19.797,2.267 19.993 C 2.267 20.279,2.372 20.474,2.612 20.633 L 2.775 20.740 4.117 20.737 C 5.601 20.733,5.997 20.697,6.488 20.519 C 7.140 20.283,7.582 19.877,8.849 18.351 C 9.516 17.547,9.679 17.327,9.716 17.179 C 9.795 16.867,9.660 16.531,9.389 16.367 C 9.251 16.283,8.992 16.235,8.860 16.268 " stroke="none" fill-rule="evenodd" fill="black"></path></svg>