<svg width="24" height="24" viewBox="0 0 24 24" fill="none" xmlns="http://www.w3.org/2000/svg"><path d="M18.140 1.282 C 17.728 1.327,17.503 1.387,17.177 1.537 C 16.250 1.966,15.540 2.826,15.337 3.767 C 15.255 4.148,15.255 4.853,15.338 5.240 C 15.408 5.568,15.602 6.012,15.806 6.310 C 16.257 6.971,17.034 7.509,17.761 7.665 C 18.149 7.748,18.851 7.747,19.240 7.663 C 20.386 7.415,21.415 6.383,21.663 5.233 C 21.745 4.854,21.745 4.146,21.663 3.767 C 21.503 3.026,20.974 2.259,20.307 1.804 C 19.707 1.394,18.896 1.198,18.140 1.282 M19.247 2.930 C 19.618 3.113,19.915 3.415,20.092 3.790 C 20.212 4.043,20.220 4.088,20.220 4.500 C 20.220 4.912,20.212 4.957,20.092 5.210 C 19.914 5.586,19.618 5.887,19.245 6.071 C 18.952 6.216,18.932 6.220,18.500 6.220 C 18.068 6.220,18.048 6.216,17.755 6.071 C 17.382 5.887,17.086 5.586,16.908 5.210 C 16.788 4.957,16.780 4.912,16.780 4.500 C 16.780 4.088,16.788 4.043,16.907 3.791 C 17.123 3.335,17.494 3.003,17.979 2.830 C 18.132 2.775,18.272 2.761,18.564 2.770 C 18.914 2.781,18.976 2.796,19.247 2.930 M10.100 5.525 C 9.633 5.569,9.201 5.710,8.280 6.120 C 7.027 6.677,6.372 7.044,5.380 7.742 C 4.021 8.698,3.462 9.109,3.391 9.203 C 3.098 9.597,3.325 10.231,3.804 10.352 C 4.139 10.436,4.237 10.386,5.489 9.495 C 7.132 8.324,7.589 8.057,9.060 7.409 C 9.860 7.057,10.054 7.000,10.458 7.000 C 11.892 7.000,12.971 8.367,12.616 9.734 C 12.467 10.312,12.297 10.533,11.311 11.434 C 10.566 12.114,10.353 12.389,10.152 12.929 C 9.990 13.363,9.950 14.039,10.060 14.492 C 10.207 15.098,10.529 15.604,11.026 16.009 C 11.793 16.633,12.203 17.059,12.579 17.620 C 13.024 18.284,13.388 19.153,13.542 19.924 C 13.588 20.152,13.618 20.576,13.635 21.240 C 13.660 22.177,13.665 22.227,13.755 22.373 C 13.905 22.615,14.118 22.733,14.403 22.733 C 14.603 22.733,14.670 22.714,14.808 22.617 C 15.065 22.435,15.132 22.263,15.152 21.743 C 15.174 21.155,15.102 20.157,14.998 19.619 C 14.771 18.441,14.198 17.215,13.418 16.238 C 13.116 15.860,12.638 15.389,12.180 15.021 C 11.966 14.849,11.740 14.628,11.679 14.531 C 11.442 14.159,11.421 13.653,11.625 13.278 C 11.704 13.132,11.916 12.907,12.339 12.519 C 13.341 11.599,13.583 11.314,13.840 10.746 C 14.084 10.207,14.140 9.924,14.139 9.220 C 14.138 8.553,14.103 8.336,13.912 7.840 C 13.441 6.614,12.178 5.645,10.913 5.538 C 10.774 5.526,10.606 5.512,10.540 5.506 C 10.474 5.500,10.276 5.509,10.100 5.525 M15.807 11.287 C 15.346 11.390,15.116 11.968,15.368 12.389 C 15.482 12.580,15.637 12.672,15.987 12.758 C 17.203 13.058,18.797 13.058,20.013 12.758 C 20.363 12.672,20.518 12.580,20.632 12.389 C 20.843 12.038,20.725 11.548,20.387 11.373 C 20.149 11.250,20.000 11.240,19.620 11.320 C 18.526 11.552,17.470 11.552,16.371 11.318 C 16.168 11.275,15.997 11.242,15.991 11.244 C 15.985 11.247,15.902 11.266,15.807 11.287 M8.780 16.289 C 8.663 16.321,8.561 16.398,8.400 16.576 C 7.824 17.214,7.163 17.831,6.780 18.088 C 5.748 18.778,4.615 19.159,3.357 19.237 C 2.715 19.278,2.568 19.331,2.383 19.592 C 2.286 19.730,2.267 19.797,2.267 19.993 C 2.267 20.279,2.372 20.474,2.612 20.633 C 2.768 20.736,2.793 20.740,3.257 20.730 C 5.331 20.688,7.376 19.797,8.845 18.293 C 9.389 17.737,9.665 17.383,9.716 17.177 C 9.857 16.620,9.347 16.137,8.780 16.289 " stroke="none" fill-rule="evenodd" fill="black"></path></svg>