<svg width="24" height="24" viewBox="0 0 24 24" fill="none" xmlns="http://www.w3.org/2000/svg"><path d="M18.140 1.282 C 17.728 1.327,17.503 1.387,17.177 1.537 C 16.250 1.966,15.540 2.826,15.337 3.767 C 15.255 4.148,15.255 4.853,15.338 5.240 C 15.408 5.568,15.602 6.012,15.806 6.310 C 16.257 6.971,17.034 7.509,17.761 7.665 C 18.149 7.748,18.851 7.747,19.240 7.663 C 20.386 7.415,21.415 6.383,21.663 5.233 C 21.745 4.854,21.745 4.146,21.663 3.767 C 21.503 3.026,20.974 2.259,20.307 1.804 C 19.707 1.394,18.896 1.198,18.140 1.282 M19.247 2.930 C 19.618 3.113,19.915 3.415,20.092 3.790 C 20.212 4.043,20.220 4.088,20.220 4.500 C 20.220 4.912,20.212 4.957,20.092 5.210 C 19.914 5.586,19.618 5.887,19.245 6.071 C 18.952 6.216,18.932 6.220,18.500 6.220 C 18.068 6.220,18.048 6.216,17.755 6.071 C 17.382 5.887,17.086 5.586,16.908 5.210 C 16.788 4.957,16.780 4.912,16.780 4.500 C 16.780 4.088,16.788 4.043,16.907 3.791 C 17.123 3.335,17.494 3.003,17.979 2.830 C 18.132 2.775,18.272 2.761,18.564 2.770 C 18.914 2.781,18.976 2.796,19.247 2.930 M10.160 5.921 C 9.218 6.052,8.320 6.384,7.018 7.084 C 5.632 7.828,3.617 8.990,3.480 9.124 C 2.960 9.631,3.443 10.517,4.153 10.357 C 4.235 10.339,4.806 10.038,5.421 9.688 C 7.274 8.637,7.703 8.403,8.417 8.058 C 9.491 7.538,9.997 7.394,10.760 7.389 C 11.294 7.386,11.546 7.439,12.230 7.695 C 13.330 8.107,13.713 8.308,14.192 8.720 C 14.552 9.030,14.834 9.389,15.114 9.897 C 15.954 11.417,17.240 12.373,18.832 12.661 C 19.309 12.747,20.822 12.787,21.134 12.722 C 21.683 12.607,21.919 11.981,21.580 11.536 C 21.388 11.285,21.291 11.265,20.140 11.237 C 19.272 11.216,19.054 11.199,18.820 11.132 C 18.173 10.947,17.648 10.649,17.186 10.205 C 16.868 9.898,16.647 9.598,16.389 9.120 C 15.898 8.210,15.220 7.502,14.349 6.994 C 13.791 6.668,12.357 6.114,11.720 5.979 C 11.359 5.902,10.519 5.871,10.160 5.921 M12.827 10.286 C 12.629 10.330,12.637 10.324,11.883 10.996 C 10.595 12.144,10.218 12.604,10.061 13.218 C 9.982 13.527,9.982 14.192,10.061 14.502 C 10.262 15.291,10.571 15.661,11.836 16.628 C 13.135 17.621,13.281 17.771,13.511 18.351 L 13.618 18.620 13.639 20.400 C 13.658 22.041,13.666 22.192,13.736 22.332 C 14.039 22.943,14.973 22.828,15.116 22.162 C 15.172 21.898,15.175 19.551,15.119 18.864 C 15.059 18.122,14.869 17.573,14.468 16.982 C 14.224 16.622,13.895 16.321,13.004 15.643 C 11.930 14.824,11.668 14.580,11.562 14.297 C 11.459 14.020,11.456 13.676,11.556 13.460 C 11.635 13.287,12.307 12.614,13.088 11.924 C 13.346 11.697,13.583 11.471,13.615 11.423 C 13.850 11.064,13.716 10.517,13.352 10.351 C 13.166 10.266,13.005 10.246,12.827 10.286 M8.860 16.268 C 8.608 16.331,8.485 16.452,7.647 17.454 C 6.625 18.675,6.308 18.992,5.974 19.123 C 5.750 19.211,5.680 19.216,4.280 19.238 C 2.626 19.263,2.614 19.265,2.383 19.592 C 2.286 19.730,2.267 19.797,2.267 19.993 C 2.267 20.279,2.372 20.474,2.612 20.633 L 2.775 20.740 4.117 20.737 C 5.601 20.733,5.997 20.697,6.488 20.519 C 7.140 20.283,7.582 19.877,8.849 18.351 C 9.516 17.547,9.679 17.327,9.716 17.179 C 9.795 16.867,9.660 16.531,9.389 16.367 C 9.251 16.283,8.992 16.235,8.860 16.268 " stroke="none" fill-rule="evenodd" fill="black"></path></svg>