<svg width="24" height="24" viewBox="0 0 24 24" fill="none" xmlns="http://www.w3.org/2000/svg"><path d="M11.310 1.283 C 6.653 1.563,2.667 4.904,1.564 9.450 C 1.162 11.110,1.162 12.890,1.564 14.550 C 2.415 18.060,5.032 20.948,8.442 22.139 C 10.725 22.937,13.275 22.937,15.558 22.139 C 18.633 21.065,21.092 18.592,22.157 15.503 C 22.819 13.585,22.918 11.437,22.436 9.450 C 21.419 5.255,17.924 2.044,13.657 1.383 C 13.303 1.328,12.042 1.231,11.880 1.246 C 11.847 1.249,11.590 1.266,11.310 1.283 M12.992 2.802 C 14.750 2.993,16.561 3.756,17.878 4.859 C 18.914 5.728,19.725 6.758,20.304 7.940 C 20.940 9.239,21.240 10.538,21.240 12.000 C 21.240 13.462,20.940 14.764,20.304 16.060 C 18.921 18.877,16.278 20.768,13.146 21.178 C 12.214 21.301,10.974 21.244,10.002 21.034 C 8.667 20.747,7.178 20.022,6.140 19.153 C 4.272 17.590,3.134 15.531,2.822 13.146 C 2.699 12.214,2.756 10.974,2.966 10.002 C 3.253 8.667,3.978 7.178,4.847 6.140 C 5.196 5.722,5.821 5.101,6.213 4.783 C 7.491 3.743,9.284 2.994,10.940 2.807 C 11.397 2.755,12.535 2.753,12.992 2.802 M6.826 7.286 C 6.625 7.331,6.468 7.445,6.353 7.631 L 6.260 7.780 6.260 12.000 L 6.260 16.220 6.355 16.373 C 6.506 16.615,6.718 16.733,7.003 16.733 C 7.203 16.733,7.270 16.714,7.408 16.617 C 7.499 16.553,7.610 16.428,7.656 16.340 C 7.739 16.181,7.740 16.149,7.751 12.120 C 7.759 9.376,7.748 7.996,7.720 7.862 C 7.628 7.432,7.252 7.190,6.826 7.286 M10.807 8.289 C 10.466 8.362,10.200 8.774,10.266 9.127 C 10.306 9.345,10.407 9.472,11.016 10.075 L 11.596 10.650 11.519 10.802 C 11.188 11.451,11.188 12.549,11.519 13.198 L 11.596 13.350 11.016 13.925 C 10.321 14.613,10.267 14.691,10.267 15.000 C 10.267 15.431,10.568 15.733,10.997 15.733 C 11.309 15.733,11.386 15.680,12.075 14.984 L 12.650 14.404 12.802 14.481 C 13.451 14.812,14.549 14.812,15.198 14.481 L 15.350 14.404 15.925 14.984 C 16.613 15.679,16.691 15.733,17.000 15.733 C 17.499 15.733,17.818 15.320,17.711 14.811 C 17.674 14.636,17.616 14.565,17.038 13.983 L 16.405 13.346 16.482 13.196 C 16.524 13.113,16.597 12.905,16.645 12.733 C 16.807 12.141,16.737 11.303,16.482 10.804 L 16.405 10.654 17.038 10.017 C 17.614 9.436,17.674 9.363,17.710 9.190 C 17.832 8.611,17.389 8.168,16.810 8.290 C 16.637 8.326,16.564 8.386,15.983 8.962 L 15.346 9.595 15.196 9.518 C 14.549 9.188,13.450 9.188,12.802 9.519 L 12.650 9.596 12.058 8.999 C 11.348 8.284,11.206 8.203,10.807 8.289 M14.454 10.841 C 14.744 10.950,15.050 11.256,15.159 11.546 C 15.331 12.006,15.227 12.518,14.893 12.857 C 14.594 13.159,14.446 13.220,14.000 13.220 C 13.565 13.220,13.394 13.154,13.120 12.880 C 12.883 12.643,12.790 12.429,12.769 12.080 C 12.746 11.675,12.847 11.404,13.126 11.126 C 13.479 10.773,13.983 10.665,14.454 10.841 " stroke="none" fill-rule="evenodd" fill="black"></path></svg>