<svg width="24" height="24" viewBox="0 0 24 24" fill="none" xmlns="http://www.w3.org/2000/svg"><path d="M9.020 1.279 C 6.976 1.330,5.856 1.466,4.900 1.779 C 3.060 2.382,1.958 3.688,1.563 5.734 C 1.311 7.042,1.267 7.973,1.267 12.000 C 1.267 16.027,1.311 16.958,1.563 18.266 C 2.013 20.599,3.401 21.987,5.734 22.437 C 7.043 22.690,7.974 22.734,12.000 22.734 C 16.026 22.734,16.957 22.690,18.266 22.437 C 20.599 21.987,21.987 20.599,22.437 18.266 C 22.688 16.966,22.733 16.013,22.733 12.000 C 22.733 7.987,22.688 7.034,22.437 5.734 C 22.098 3.977,21.228 2.756,19.825 2.068 C 18.972 1.650,17.853 1.420,16.180 1.321 C 15.262 1.267,10.607 1.239,9.020 1.279 M16.600 2.836 C 18.439 3.019,19.320 3.320,20.000 4.000 C 20.692 4.693,20.998 5.605,21.168 7.480 C 21.242 8.307,21.242 15.693,21.168 16.520 C 20.996 18.419,20.693 19.311,19.982 20.013 C 19.218 20.769,18.155 21.080,15.940 21.199 C 14.954 21.252,9.046 21.252,8.060 21.199 C 5.843 21.080,4.782 20.769,4.016 20.011 C 3.342 19.345,3.026 18.464,2.852 16.760 C 2.788 16.135,2.780 15.620,2.781 11.980 C 2.782 7.664,2.793 7.353,2.984 6.240 C 3.183 5.082,3.600 4.278,4.272 3.760 C 5.025 3.178,6.058 2.913,8.002 2.802 C 8.872 2.752,16.044 2.780,16.600 2.836 M9.120 4.280 C 8.559 4.298,7.938 4.333,7.740 4.358 C 6.324 4.536,5.429 5.041,4.894 5.962 L 4.716 6.269 4.507 6.269 C 4.194 6.269,3.906 6.458,3.803 6.733 C 3.735 6.912,3.745 10.127,3.814 10.292 C 3.868 10.420,4.127 10.680,4.201 10.680 C 4.225 10.680,4.240 11.178,4.240 12.000 C 4.240 12.822,4.225 13.320,4.201 13.320 C 4.127 13.320,3.868 13.580,3.814 13.708 C 3.745 13.873,3.735 17.088,3.803 17.267 C 3.906 17.542,4.194 17.731,4.507 17.731 L 4.716 17.731 4.904 18.056 C 5.483 19.054,6.472 19.542,8.209 19.687 C 8.995 19.753,15.005 19.753,15.791 19.687 C 18.101 19.494,19.174 18.663,19.557 16.772 C 19.709 16.024,19.736 15.301,19.736 12.000 C 19.736 8.699,19.709 7.976,19.557 7.228 C 19.176 5.345,18.083 4.495,15.820 4.321 C 15.101 4.265,10.452 4.237,9.120 4.280 M16.220 5.854 C 17.518 6.071,17.941 6.500,18.149 7.814 C 18.213 8.217,18.220 8.616,18.220 11.980 C 18.220 15.791,18.211 16.067,18.060 16.660 C 17.968 17.023,17.743 17.450,17.555 17.620 C 17.252 17.894,16.764 18.073,16.060 18.170 C 15.547 18.241,8.453 18.241,7.940 18.170 C 7.236 18.073,6.748 17.894,6.445 17.620 C 6.147 17.351,5.932 16.806,5.830 16.060 C 5.759 15.547,5.759 8.453,5.830 7.940 C 5.964 6.962,6.236 6.440,6.749 6.171 C 7.168 5.951,7.581 5.855,8.340 5.800 C 8.582 5.783,10.364 5.773,12.300 5.778 C 15.375 5.786,15.871 5.795,16.220 5.854 M11.580 7.284 C 9.765 7.428,8.201 8.628,7.540 10.384 C 7.182 11.335,7.182 12.665,7.540 13.616 C 8.042 14.949,9.049 15.958,10.376 16.457 C 11.340 16.820,12.660 16.820,13.624 16.457 C 14.951 15.958,15.958 14.949,16.460 13.616 C 16.819 12.661,16.818 11.336,16.457 10.376 C 16.196 9.681,15.789 9.065,15.256 8.559 C 14.268 7.621,12.977 7.173,11.580 7.284 M11.240 9.763 L 11.240 10.686 11.023 10.884 C 10.769 11.116,10.618 11.358,10.555 11.630 L 10.509 11.826 9.665 12.188 C 8.960 12.489,8.814 12.539,8.785 12.489 C 8.766 12.456,8.759 12.184,8.770 11.885 C 8.793 11.255,8.886 10.905,9.166 10.400 C 9.386 10.003,9.990 9.393,10.378 9.178 C 10.648 9.029,11.088 8.846,11.190 8.842 C 11.229 8.840,11.240 9.050,11.240 9.763 M13.090 8.932 C 13.562 9.103,13.879 9.312,14.284 9.716 C 14.714 10.146,14.932 10.492,15.105 11.020 C 15.191 11.281,15.214 11.441,15.230 11.885 C 15.241 12.184,15.234 12.456,15.215 12.489 C 15.186 12.539,15.040 12.489,14.335 12.188 L 13.491 11.826 13.445 11.630 C 13.382 11.358,13.231 11.116,12.977 10.884 L 12.760 10.686 12.760 9.763 C 12.760 9.204,12.775 8.840,12.798 8.840 C 12.819 8.840,12.951 8.881,13.090 8.932 M11.340 13.340 C 11.561 13.451,11.613 13.460,12.003 13.460 C 12.400 13.460,12.439 13.452,12.669 13.332 L 12.913 13.204 13.757 13.567 C 14.220 13.767,14.600 13.943,14.600 13.959 C 14.600 13.975,14.441 14.142,14.247 14.329 C 13.851 14.710,13.477 14.941,12.980 15.108 C 12.684 15.209,12.611 15.217,12.000 15.217 C 11.389 15.217,11.316 15.209,11.020 15.108 C 10.516 14.938,10.146 14.709,9.742 14.317 C 9.543 14.124,9.391 13.956,9.405 13.942 C 9.438 13.909,11.055 13.206,11.080 13.214 C 11.092 13.217,11.209 13.274,11.340 13.340 " stroke="none" fill-rule="evenodd" fill="black"></path></svg>