<svg width="24" height="24" viewBox="0 0 24 24" fill="none" xmlns="http://www.w3.org/2000/svg"><path d="M9.020 1.279 C 6.976 1.330,5.856 1.466,4.900 1.779 C 3.060 2.382,1.958 3.688,1.563 5.734 C 1.311 7.042,1.267 7.973,1.267 12.000 C 1.267 16.027,1.311 16.958,1.563 18.266 C 2.013 20.599,3.401 21.987,5.734 22.437 C 7.043 22.690,7.974 22.734,12.000 22.734 C 16.026 22.734,16.957 22.690,18.266 22.437 C 20.599 21.987,21.987 20.599,22.437 18.266 C 22.688 16.966,22.733 16.013,22.733 12.000 C 22.733 7.987,22.688 7.034,22.437 5.734 C 22.098 3.977,21.228 2.756,19.825 2.068 C 18.972 1.650,17.853 1.420,16.180 1.321 C 15.262 1.267,10.607 1.239,9.020 1.279 M16.600 2.836 C 18.439 3.019,19.320 3.320,20.000 4.000 C 20.692 4.693,20.998 5.605,21.168 7.480 C 21.242 8.307,21.242 15.693,21.168 16.520 C 20.996 18.419,20.693 19.311,19.982 20.013 C 19.218 20.769,18.155 21.080,15.940 21.199 C 14.954 21.252,9.046 21.252,8.060 21.199 C 5.843 21.080,4.782 20.769,4.016 20.011 C 3.342 19.345,3.026 18.464,2.852 16.760 C 2.788 16.135,2.780 15.620,2.781 11.980 C 2.782 7.664,2.793 7.353,2.984 6.240 C 3.183 5.082,3.600 4.278,4.272 3.760 C 5.025 3.178,6.058 2.913,8.002 2.802 C 8.872 2.752,16.044 2.780,16.600 2.836 M5.807 6.289 C 5.555 6.343,5.341 6.570,5.281 6.846 C 5.247 7.003,5.239 8.414,5.248 12.140 L 5.260 17.220 5.355 17.373 C 5.506 17.615,5.718 17.733,6.003 17.733 C 6.203 17.733,6.270 17.714,6.408 17.617 C 6.499 17.553,6.610 17.428,6.656 17.340 C 6.740 17.181,6.740 17.164,6.751 12.120 C 6.758 8.680,6.748 6.997,6.720 6.862 C 6.626 6.424,6.257 6.192,5.807 6.289 M9.807 7.289 C 9.466 7.362,9.200 7.774,9.266 8.127 C 9.307 8.348,9.407 8.471,10.154 9.215 L 10.871 9.930 10.715 10.220 C 10.397 10.809,10.270 11.326,10.271 12.020 C 10.273 12.690,10.420 13.259,10.736 13.820 L 10.871 14.060 10.102 14.840 C 9.411 15.540,9.328 15.639,9.286 15.809 C 9.203 16.145,9.332 16.462,9.626 16.644 C 9.823 16.766,10.174 16.768,10.364 16.649 C 10.439 16.602,10.821 16.242,11.212 15.849 L 11.925 15.135 12.336 15.341 C 12.799 15.573,13.112 15.663,13.639 15.718 C 14.344 15.791,15.016 15.666,15.664 15.341 L 16.075 15.135 16.788 15.849 C 17.179 16.242,17.561 16.602,17.636 16.649 C 17.826 16.768,18.177 16.766,18.374 16.644 C 18.659 16.467,18.784 16.159,18.711 15.811 C 18.673 15.635,18.611 15.560,17.900 14.840 L 17.129 14.060 17.264 13.820 C 17.585 13.251,17.728 12.689,17.728 12.000 C 17.728 11.311,17.585 10.749,17.264 10.180 L 17.129 9.940 17.900 9.160 C 18.609 8.442,18.673 8.365,18.710 8.190 C 18.832 7.611,18.389 7.168,17.810 7.290 C 17.635 7.327,17.558 7.391,16.840 8.100 L 16.060 8.871 15.820 8.736 C 15.252 8.416,14.692 8.274,14.000 8.274 C 13.303 8.274,12.778 8.407,12.181 8.735 L 11.931 8.872 11.196 8.136 C 10.332 7.271,10.217 7.201,9.807 7.289 M14.578 9.821 C 14.949 9.918,15.274 10.112,15.581 10.419 C 16.041 10.879,16.240 11.356,16.240 12.000 C 16.240 12.644,16.041 13.121,15.581 13.581 C 15.121 14.041,14.644 14.240,14.000 14.240 C 13.356 14.240,12.879 14.041,12.419 13.581 C 11.959 13.121,11.760 12.644,11.760 12.000 C 11.760 11.356,11.959 10.879,12.419 10.419 C 12.719 10.118,13.050 9.919,13.404 9.823 C 13.692 9.746,14.285 9.745,14.578 9.821 " stroke="none" fill-rule="evenodd" fill="black"></path></svg>