<svg width="24" height="24" viewBox="0 0 24 24" fill="none" xmlns="http://www.w3.org/2000/svg"><path d="M9.020 1.279 C 6.976 1.330,5.856 1.466,4.900 1.779 C 3.060 2.382,1.958 3.688,1.563 5.734 C 1.311 7.042,1.267 7.973,1.267 12.000 C 1.267 16.027,1.311 16.958,1.563 18.266 C 2.013 20.599,3.401 21.987,5.734 22.437 C 7.043 22.690,7.974 22.734,12.000 22.734 C 16.026 22.734,16.957 22.690,18.266 22.437 C 20.599 21.987,21.987 20.599,22.437 18.266 C 22.688 16.966,22.733 16.013,22.733 12.000 C 22.733 7.987,22.688 7.034,22.437 5.734 C 22.098 3.977,21.228 2.756,19.825 2.068 C 18.972 1.650,17.853 1.420,16.180 1.321 C 15.262 1.267,10.607 1.239,9.020 1.279 M16.600 2.836 C 18.439 3.019,19.320 3.320,20.000 4.000 C 20.692 4.693,20.998 5.605,21.168 7.480 C 21.242 8.307,21.242 15.693,21.168 16.520 C 20.996 18.419,20.693 19.311,19.982 20.013 C 19.218 20.769,18.155 21.080,15.940 21.199 C 14.954 21.252,9.046 21.252,8.060 21.199 C 5.843 21.080,4.782 20.769,4.016 20.011 C 3.342 19.345,3.026 18.464,2.852 16.760 C 2.788 16.135,2.780 15.620,2.781 11.980 C 2.782 7.664,2.793 7.353,2.984 6.240 C 3.183 5.082,3.600 4.278,4.272 3.760 C 5.025 3.178,6.058 2.913,8.002 2.802 C 8.872 2.752,16.044 2.780,16.600 2.836 M14.800 8.289 C 14.630 8.324,14.452 8.494,11.528 11.413 C 9.827 13.111,8.398 14.561,8.351 14.636 C 8.231 14.828,8.234 15.177,8.358 15.377 C 8.504 15.613,8.720 15.733,8.997 15.733 C 9.164 15.733,9.267 15.710,9.364 15.649 C 9.439 15.602,10.889 14.173,12.586 12.472 C 15.576 9.476,15.673 9.374,15.712 9.189 C 15.832 8.604,15.389 8.167,14.800 8.289 M9.046 8.623 C 8.680 8.808,8.499 9.141,8.527 9.580 C 8.548 9.907,8.704 10.169,8.978 10.339 C 9.154 10.448,9.207 10.460,9.500 10.460 C 9.793 10.460,9.846 10.448,10.022 10.339 C 10.143 10.264,10.264 10.143,10.339 10.022 C 10.448 9.846,10.460 9.793,10.460 9.500 C 10.460 9.207,10.448 9.154,10.339 8.978 C 10.160 8.689,9.905 8.545,9.544 8.528 C 9.299 8.517,9.230 8.530,9.046 8.623 M14.046 13.623 C 13.680 13.808,13.499 14.141,13.527 14.580 C 13.548 14.907,13.704 15.169,13.978 15.339 C 14.154 15.448,14.207 15.460,14.500 15.460 C 14.793 15.460,14.846 15.448,15.022 15.339 C 15.143 15.264,15.264 15.143,15.339 15.022 C 15.448 14.846,15.460 14.793,15.460 14.500 C 15.460 14.207,15.448 14.154,15.339 13.978 C 15.160 13.689,14.905 13.545,14.544 13.528 C 14.299 13.517,14.230 13.530,14.046 13.623 " stroke="none" fill-rule="evenodd" fill="black"></path></svg>