<svg width="24" height="24" viewBox="0 0 24 24" fill="none" xmlns="http://www.w3.org/2000/svg"><path d="M16.300 1.284 C 15.017 1.380,13.691 1.944,12.820 2.763 C 12.718 2.859,10.690 4.007,7.240 5.921 C 4.259 7.575,1.728 8.988,1.616 9.060 C 0.981 9.473,1.248 10.419,2.000 10.418 C 2.216 10.418,2.294 10.377,6.460 8.064 C 8.792 6.769,10.779 5.663,10.876 5.607 L 11.052 5.505 11.022 5.623 C 10.578 7.368,10.858 9.096,11.821 10.543 L 12.051 10.888 8.188 14.754 C 5.408 17.536,4.316 18.654,4.294 18.740 C 4.134 19.349,4.583 19.836,5.189 19.712 C 5.375 19.673,5.489 19.564,9.246 15.811 L 13.112 11.949 13.457 12.179 C 14.903 13.141,16.634 13.422,18.377 12.978 L 18.495 12.948 18.393 13.124 C 17.629 14.444,13.616 21.742,13.588 21.860 C 13.432 22.535,14.329 23.033,14.815 22.541 C 14.885 22.470,16.292 19.977,18.000 16.898 C 19.977 13.333,21.118 11.317,21.223 11.200 C 21.973 10.369,22.479 9.302,22.665 8.160 C 22.744 7.670,22.744 6.770,22.665 6.280 C 22.545 5.539,22.270 4.783,21.900 4.174 C 20.703 2.201,18.591 1.112,16.300 1.284 M17.919 2.898 C 18.342 3.016,18.918 3.275,19.268 3.506 C 19.569 3.705,20.118 4.230,20.369 4.560 C 20.634 4.907,20.974 5.612,21.102 6.080 C 21.226 6.534,21.277 7.405,21.206 7.863 C 21.139 8.287,20.979 8.801,20.802 9.161 C 20.622 9.526,20.318 9.999,20.263 9.999 C 20.189 10.001,19.604 9.658,19.100 9.317 C 17.480 8.223,15.780 6.522,14.683 4.900 C 14.341 4.394,13.999 3.811,14.001 3.737 C 14.002 3.679,14.469 3.377,14.827 3.201 C 15.155 3.041,15.687 2.868,16.060 2.801 C 16.170 2.781,16.548 2.771,16.900 2.778 C 17.440 2.790,17.599 2.809,17.919 2.898 M13.333 5.571 C 13.733 6.187,14.251 6.866,14.732 7.404 L 15.112 7.829 14.124 8.816 C 13.009 9.930,13.130 9.870,12.886 9.434 C 12.707 9.115,12.530 8.674,12.439 8.314 C 12.279 7.688,12.273 6.805,12.424 6.180 C 12.498 5.876,12.756 5.213,12.865 5.047 C 12.929 4.950,12.936 4.948,12.977 5.016 C 13.000 5.056,13.161 5.306,13.333 5.571 M17.484 10.001 C 17.862 10.289,18.625 10.809,18.984 11.023 C 19.052 11.064,19.050 11.071,18.953 11.135 C 18.787 11.244,18.124 11.502,17.820 11.576 C 17.195 11.727,16.312 11.721,15.686 11.561 C 15.326 11.470,14.885 11.293,14.566 11.114 C 14.130 10.870,14.070 10.991,15.184 9.876 L 16.171 8.888 16.596 9.268 C 16.829 9.476,17.229 9.806,17.484 10.001 " stroke="none" fill-rule="evenodd" fill="black"></path></svg>