<svg width="24" height="24" viewBox="0 0 24 24" fill="none" xmlns="http://www.w3.org/2000/svg"><path d="M8.920 1.279 C 6.542 1.342,5.317 1.542,4.244 2.043 C 2.792 2.721,1.911 3.940,1.559 5.756 C 1.313 7.025,1.267 8.006,1.267 12.000 C 1.267 16.012,1.312 16.965,1.563 18.266 C 2.013 20.599,3.401 21.987,5.734 22.437 C 7.032 22.687,7.985 22.732,12.000 22.732 C 15.997 22.732,16.978 22.687,18.244 22.441 C 20.492 22.005,21.803 20.783,22.358 18.607 C 22.585 17.718,22.669 16.812,22.721 14.715 C 22.765 12.963,22.754 12.776,22.598 12.557 C 22.383 12.255,21.914 12.167,21.607 12.371 C 21.521 12.428,21.407 12.543,21.355 12.627 C 21.261 12.779,21.260 12.792,21.233 14.320 C 21.183 17.219,21.041 18.240,20.556 19.214 C 20.058 20.210,19.171 20.779,17.740 21.019 C 16.565 21.215,15.485 21.251,11.380 21.229 C 7.885 21.210,7.474 21.195,6.500 21.055 C 4.256 20.734,3.274 19.757,2.946 17.520 C 2.793 16.470,2.780 16.042,2.781 11.920 C 2.782 7.671,2.793 7.348,2.984 6.240 C 3.316 4.306,4.230 3.368,6.140 3.003 C 6.913 2.855,8.400 2.761,9.988 2.760 C 10.542 2.760,11.044 2.741,11.162 2.716 C 11.812 2.576,11.944 1.709,11.369 1.353 C 11.233 1.268,11.171 1.260,10.640 1.255 C 10.321 1.252,9.547 1.263,8.920 1.279 M16.580 1.259 C 16.558 1.267,16.491 1.284,16.431 1.297 C 16.284 1.329,16.041 1.548,15.974 1.708 C 15.863 1.973,15.919 2.289,16.113 2.494 C 16.351 2.746,16.285 2.738,18.310 2.760 L 20.160 2.780 16.460 6.480 L 12.760 10.180 12.760 9.112 C 12.760 7.861,12.736 7.696,12.522 7.482 C 12.173 7.133,11.619 7.203,11.353 7.631 L 11.260 7.780 11.260 10.007 L 11.260 12.233 11.380 12.403 C 11.446 12.496,11.572 12.610,11.660 12.656 C 11.815 12.738,11.880 12.740,13.875 12.752 C 16.208 12.765,16.281 12.759,16.519 12.521 C 16.918 12.122,16.731 11.423,16.189 11.286 C 16.071 11.257,15.608 11.240,14.912 11.240 L 13.820 11.240 17.520 7.540 L 21.220 3.840 21.240 5.690 C 21.262 7.715,21.254 7.649,21.506 7.887 C 21.711 8.081,22.027 8.137,22.292 8.026 C 22.447 7.961,22.667 7.721,22.709 7.569 C 22.726 7.509,22.740 6.191,22.740 4.640 C 22.740 1.858,22.739 1.818,22.656 1.660 C 22.610 1.572,22.496 1.446,22.403 1.380 L 22.233 1.260 19.427 1.252 C 17.883 1.248,16.602 1.251,16.580 1.259 " stroke="none" fill-rule="evenodd" fill="black"></path></svg>