<svg width="24" height="24" viewBox="0 0 24 24" fill="none" xmlns="http://www.w3.org/2000/svg"><path d="M7.420 1.283 C 4.824 1.355,3.629 1.695,2.669 2.635 C 1.935 3.353,1.559 4.272,1.379 5.787 C 1.311 6.358,1.224 8.994,1.248 9.742 C 1.265 10.293,1.326 10.444,1.607 10.629 C 1.839 10.783,2.180 10.778,2.408 10.617 C 2.499 10.553,2.610 10.428,2.656 10.340 C 2.736 10.187,2.741 10.102,2.766 8.360 C 2.797 6.154,2.851 5.550,3.089 4.800 C 3.385 3.865,3.928 3.343,4.896 3.062 C 5.649 2.844,6.218 2.796,8.380 2.766 C 10.214 2.740,10.220 2.740,10.369 2.647 C 10.943 2.290,10.812 1.424,10.162 1.284 C 9.938 1.236,9.122 1.236,7.420 1.283 M13.826 1.284 C 13.476 1.366,13.267 1.636,13.267 2.003 C 13.267 2.281,13.387 2.496,13.627 2.645 L 13.780 2.740 15.620 2.766 C 17.782 2.796,18.351 2.844,19.104 3.062 C 20.108 3.353,20.647 3.893,20.940 4.903 C 21.156 5.649,21.204 6.223,21.234 8.383 L 21.260 10.226 21.367 10.388 C 21.526 10.628,21.721 10.733,22.007 10.733 C 22.203 10.733,22.270 10.714,22.408 10.617 C 22.661 10.438,22.732 10.263,22.751 9.764 C 22.778 9.093,22.688 6.352,22.621 5.787 C 22.443 4.288,22.088 3.407,21.365 2.669 C 20.647 1.935,19.728 1.559,18.213 1.379 C 17.341 1.276,14.156 1.207,13.826 1.284 M11.240 10.283 C 9.322 10.389,7.670 10.897,6.310 11.800 C 5.836 12.115,5.484 12.420,5.357 12.624 C 5.177 12.915,5.267 13.374,5.545 13.586 C 5.876 13.839,6.219 13.790,6.628 13.434 C 7.530 12.647,8.837 12.101,10.418 11.850 C 11.049 11.751,12.951 11.751,13.582 11.850 C 15.163 12.101,16.470 12.647,17.372 13.434 C 17.781 13.790,18.124 13.839,18.455 13.586 C 18.733 13.374,18.823 12.915,18.643 12.624 C 18.340 12.135,17.048 11.322,15.900 10.898 C 14.597 10.417,12.892 10.192,11.240 10.283 M1.826 13.285 C 1.625 13.331,1.467 13.446,1.354 13.629 C 1.233 13.826,1.219 14.280,1.275 16.220 C 1.331 18.152,1.422 18.928,1.682 19.727 C 2.105 21.022,2.978 21.895,4.273 22.318 C 5.072 22.578,5.848 22.669,7.780 22.725 C 9.720 22.781,10.174 22.767,10.371 22.646 C 10.870 22.337,10.848 21.591,10.332 21.336 C 10.193 21.267,10.028 21.259,8.360 21.235 C 7.359 21.220,6.351 21.188,6.120 21.164 C 3.833 20.920,3.080 20.167,2.836 17.880 C 2.812 17.649,2.780 16.641,2.765 15.640 C 2.736 13.623,2.737 13.628,2.464 13.421 C 2.355 13.337,2.274 13.307,2.040 13.261 C 2.007 13.254,1.911 13.265,1.826 13.285 M21.807 13.289 C 21.574 13.339,21.348 13.565,21.286 13.811 C 21.256 13.933,21.240 14.455,21.240 15.348 C 21.240 17.335,21.160 18.337,20.941 19.093 C 20.556 20.421,19.754 20.964,17.880 21.164 C 17.649 21.188,16.641 21.220,15.640 21.234 C 13.899 21.259,13.813 21.264,13.660 21.344 C 13.572 21.390,13.447 21.501,13.383 21.592 C 13.222 21.820,13.217 22.161,13.371 22.393 C 13.556 22.674,13.707 22.735,14.258 22.752 C 15.005 22.776,17.640 22.689,18.220 22.621 C 19.708 22.446,20.591 22.090,21.331 21.365 C 22.061 20.652,22.437 19.737,22.620 18.233 C 22.706 17.533,22.788 14.235,22.728 13.914 C 22.639 13.432,22.279 13.188,21.807 13.289 " stroke="none" fill-rule="evenodd" fill="black"></path></svg>