<svg width="24" height="24" viewBox="0 0 24 24" fill="none" xmlns="http://www.w3.org/2000/svg"><path d="M5.785 1.289 C 5.429 1.383,5.170 1.846,5.282 2.186 C 5.309 2.267,6.627 4.640,8.211 7.457 C 9.796 10.275,11.099 12.608,11.108 12.641 C 11.121 12.688,9.304 15.983,8.533 17.314 L 8.431 17.489 8.275 17.200 C 7.919 16.545,7.448 16.075,6.792 15.721 C 6.197 15.400,5.682 15.271,5.000 15.271 C 4.318 15.271,3.803 15.400,3.208 15.721 C 2.878 15.899,2.672 16.047,2.406 16.297 C 1.884 16.787,1.454 17.588,1.319 18.320 C 1.257 18.654,1.257 19.346,1.319 19.680 C 1.446 20.369,1.804 21.069,2.297 21.594 C 2.787 22.116,3.588 22.546,4.320 22.681 C 4.654 22.743,5.346 22.743,5.680 22.681 C 6.654 22.501,7.580 21.892,8.106 21.086 C 8.191 20.957,9.096 19.363,10.117 17.545 C 11.139 15.727,11.986 14.240,12.000 14.240 C 12.014 14.240,12.861 15.727,13.883 17.545 C 14.904 19.363,15.809 20.957,15.894 21.086 C 16.420 21.892,17.346 22.501,18.320 22.681 C 18.654 22.743,19.346 22.743,19.680 22.681 C 20.412 22.546,21.213 22.116,21.703 21.594 C 22.196 21.069,22.554 20.369,22.681 19.680 C 22.743 19.346,22.743 18.654,22.681 18.320 C 22.546 17.588,22.116 16.787,21.594 16.297 C 21.069 15.804,20.369 15.446,19.680 15.319 C 19.346 15.257,18.654 15.257,18.320 15.319 C 17.218 15.522,16.258 16.218,15.725 17.200 L 15.569 17.489 15.467 17.314 C 14.687 15.968,12.879 12.689,12.891 12.642 C 12.901 12.608,14.204 10.275,15.789 7.457 C 17.373 4.639,18.691 2.267,18.718 2.185 C 18.757 2.068,18.757 1.994,18.718 1.833 C 18.592 1.306,17.975 1.090,17.539 1.419 C 17.452 1.485,16.659 2.861,14.719 6.315 C 13.234 8.957,12.011 11.119,12.000 11.119 C 11.989 11.119,10.765 8.957,9.281 6.314 C 7.344 2.867,6.547 1.484,6.461 1.419 C 6.349 1.335,6.074 1.235,5.980 1.244 C 5.958 1.247,5.870 1.267,5.785 1.289 M5.578 16.821 C 5.949 16.918,6.274 17.112,6.581 17.419 C 7.041 17.879,7.240 18.356,7.240 19.000 C 7.240 19.644,7.041 20.121,6.581 20.581 C 6.121 21.041,5.644 21.240,5.000 21.240 C 4.356 21.240,3.879 21.041,3.419 20.581 C 2.959 20.121,2.760 19.644,2.760 19.000 C 2.760 18.356,2.959 17.879,3.419 17.419 C 3.719 17.118,4.050 16.919,4.404 16.823 C 4.692 16.746,5.285 16.745,5.578 16.821 M19.578 16.821 C 19.949 16.918,20.274 17.112,20.581 17.419 C 21.041 17.879,21.240 18.356,21.240 19.000 C 21.240 19.644,21.041 20.121,20.581 20.581 C 20.121 21.041,19.644 21.240,19.000 21.240 C 18.356 21.240,17.879 21.041,17.419 20.581 C 16.959 20.121,16.760 19.644,16.760 19.000 C 16.760 18.356,16.959 17.879,17.419 17.419 C 17.719 17.118,18.050 16.919,18.404 16.823 C 18.692 16.746,19.285 16.745,19.578 16.821 " stroke="none" fill-rule="evenodd" fill="black"></path></svg>