<svg width="24" height="24" viewBox="0 0 24 24" fill="none" xmlns="http://www.w3.org/2000/svg"><path d="M8.960 1.280 C 6.960 1.332,5.848 1.469,4.900 1.779 C 3.060 2.382,1.958 3.688,1.563 5.734 C 1.311 7.042,1.267 7.973,1.267 12.000 C 1.267 16.027,1.311 16.958,1.563 18.266 C 2.013 20.599,3.401 21.987,5.734 22.437 C 7.034 22.688,7.987 22.733,12.000 22.733 C 16.013 22.733,16.966 22.688,18.266 22.437 C 20.599 21.987,21.987 20.599,22.437 18.266 C 22.688 16.966,22.733 16.013,22.733 12.000 C 22.733 7.987,22.688 7.034,22.437 5.734 C 22.098 3.977,21.228 2.756,19.825 2.068 C 18.978 1.652,17.875 1.425,16.200 1.321 C 15.315 1.266,10.534 1.239,8.960 1.280 M16.787 2.853 C 17.971 2.982,18.589 3.129,19.180 3.421 C 20.200 3.924,20.776 4.815,21.019 6.260 C 21.215 7.435,21.251 8.515,21.229 12.620 C 21.210 16.115,21.195 16.526,21.055 17.500 C 20.734 19.744,19.757 20.726,17.520 21.054 C 16.474 21.207,16.036 21.220,12.000 21.220 C 7.964 21.220,7.526 21.207,6.480 21.054 C 4.384 20.747,3.408 19.870,3.021 17.947 C 2.796 16.826,2.780 16.428,2.780 12.000 C 2.780 8.382,2.788 7.864,2.852 7.240 C 3.025 5.550,3.340 4.663,4.001 4.001 C 4.665 3.338,5.593 3.009,7.220 2.862 C 8.207 2.772,8.227 2.772,12.400 2.782 C 15.524 2.790,16.323 2.803,16.787 2.853 M7.785 5.288 C 7.442 5.381,7.178 5.833,7.271 6.166 C 7.292 6.240,8.166 7.764,9.214 9.552 C 10.262 11.341,11.120 12.815,11.120 12.829 C 11.120 12.842,10.873 13.275,10.572 13.790 L 10.024 14.728 9.909 14.585 C 9.656 14.271,9.059 13.878,8.660 13.763 C 8.150 13.617,7.470 13.637,6.965 13.813 C 6.195 14.081,5.535 14.790,5.335 15.565 C 5.249 15.898,5.249 16.502,5.335 16.835 C 5.535 17.610,6.195 18.319,6.965 18.587 C 7.470 18.763,8.150 18.783,8.660 18.637 C 9.159 18.494,9.754 18.056,10.048 17.616 C 10.149 17.464,10.623 16.669,11.100 15.850 C 11.577 15.030,11.982 14.360,11.999 14.360 C 12.016 14.360,12.421 15.030,12.899 15.850 C 13.377 16.669,13.851 17.464,13.952 17.616 C 14.246 18.056,14.841 18.494,15.340 18.637 C 15.850 18.783,16.530 18.763,17.035 18.587 C 17.805 18.319,18.465 17.610,18.665 16.835 C 18.751 16.502,18.751 15.898,18.665 15.565 C 18.465 14.790,17.805 14.081,17.035 13.813 C 16.530 13.637,15.850 13.617,15.340 13.763 C 14.939 13.878,14.375 14.245,14.111 14.564 L 13.974 14.728 13.427 13.790 C 13.126 13.273,12.880 12.841,12.880 12.828 C 12.880 12.815,13.737 11.341,14.785 9.552 C 15.833 7.763,16.708 6.240,16.728 6.166 C 16.788 5.954,16.699 5.659,16.521 5.481 C 16.254 5.214,15.844 5.188,15.540 5.418 C 15.460 5.480,14.860 6.467,13.720 8.415 C 12.785 10.013,12.011 11.320,12.000 11.320 C 11.989 11.320,11.227 10.033,10.306 8.460 C 9.385 6.887,8.598 5.558,8.557 5.505 C 8.406 5.313,8.055 5.215,7.785 5.288 M8.405 15.290 C 9.261 15.734,9.175 16.833,8.257 17.183 C 8.040 17.266,7.564 17.246,7.371 17.146 C 6.841 16.871,6.618 16.281,6.855 15.780 C 6.941 15.600,7.047 15.477,7.250 15.323 C 7.381 15.224,7.620 15.164,7.887 15.162 C 8.111 15.160,8.193 15.180,8.405 15.290 M16.629 15.254 C 17.439 15.677,17.439 16.726,16.629 17.146 C 16.436 17.246,15.960 17.266,15.743 17.183 C 15.322 17.022,15.053 16.701,15.013 16.312 C 14.967 15.866,15.172 15.510,15.602 15.286 C 15.845 15.160,15.879 15.153,16.180 15.169 C 16.373 15.179,16.551 15.213,16.629 15.254 " stroke="none" fill-rule="evenodd" fill="black"></path></svg>