<svg width="24" height="24" viewBox="0 0 24 24" fill="none" xmlns="http://www.w3.org/2000/svg"><path d="M11.807 4.287 C 11.573 4.339,11.348 4.567,11.286 4.813 C 11.202 5.146,11.333 5.462,11.631 5.647 C 11.775 5.737,11.818 5.741,12.920 5.764 C 14.226 5.791,14.330 5.812,14.591 6.095 C 14.677 6.188,14.820 6.390,14.909 6.542 C 15.096 6.863,17.840 12.342,17.840 12.395 C 17.840 12.414,17.737 12.467,17.610 12.513 C 16.943 12.757,16.162 13.430,15.768 14.100 C 15.647 14.306,15.504 14.627,15.433 14.850 L 15.309 15.240 13.541 15.240 L 11.772 15.240 11.745 13.970 C 11.729 13.272,11.699 12.538,11.678 12.340 C 11.518 10.880,10.815 10.107,9.420 9.856 C 9.074 9.793,8.772 9.783,7.180 9.782 C 5.228 9.780,5.183 9.783,4.549 9.983 C 3.921 10.182,3.490 10.421,2.949 10.871 C 2.214 11.480,1.657 12.349,1.425 13.246 C 1.231 13.992,1.193 15.088,1.345 15.540 C 1.538 16.114,2.002 16.540,2.599 16.693 L 2.815 16.748 2.920 17.084 C 3.240 18.098,3.933 18.911,4.865 19.364 C 5.873 19.854,7.127 19.854,8.135 19.364 C 9.074 18.907,9.836 18.000,10.101 17.023 L 10.172 16.760 12.741 16.760 L 15.309 16.760 15.433 17.150 C 15.726 18.075,16.458 18.927,17.340 19.370 C 17.661 19.532,18.180 19.679,18.605 19.728 C 19.106 19.787,19.643 19.730,20.168 19.562 C 21.262 19.211,22.211 18.262,22.562 17.168 C 23.003 15.790,22.663 14.383,21.640 13.360 C 21.081 12.801,20.458 12.462,19.724 12.318 L 19.475 12.269 19.233 11.787 L 18.992 11.305 19.105 11.222 C 19.732 10.768,19.975 10.503,20.133 10.104 C 20.200 9.935,20.217 9.780,20.231 9.194 C 20.258 8.121,20.152 7.704,19.748 7.288 C 19.319 6.846,18.985 6.762,17.673 6.761 L 16.725 6.760 16.477 6.290 C 15.834 5.072,15.390 4.635,14.560 4.401 C 14.085 4.267,12.238 4.191,11.807 4.287 M18.669 8.331 C 18.729 8.392,18.742 8.490,18.753 8.964 C 18.763 9.404,18.754 9.544,18.708 9.614 C 18.647 9.706,18.330 9.944,18.304 9.916 C 18.278 9.888,17.480 8.282,17.480 8.257 C 17.480 8.244,17.731 8.240,18.039 8.247 C 18.510 8.258,18.609 8.271,18.669 8.331 M9.226 11.336 C 10.125 11.520,10.239 11.827,10.240 14.070 L 10.240 15.240 6.563 15.240 C 3.167 15.240,2.881 15.235,2.818 15.173 C 2.759 15.113,2.753 15.028,2.769 14.483 C 2.785 13.915,2.797 13.827,2.912 13.491 C 3.313 12.316,4.303 11.471,5.501 11.282 C 5.884 11.221,8.880 11.265,9.226 11.336 M19.578 13.839 C 19.977 13.941,20.276 14.115,20.581 14.419 C 21.046 14.885,21.219 15.313,21.219 16.000 C 21.219 16.687,21.046 17.115,20.581 17.581 C 20.115 18.046,19.687 18.219,19.000 18.219 C 18.313 18.219,17.885 18.046,17.419 17.581 C 16.954 17.115,16.781 16.687,16.781 16.000 C 16.781 15.313,16.954 14.885,17.419 14.419 C 17.999 13.839,18.769 13.633,19.578 13.839 M8.600 16.804 C 8.600 16.914,8.336 17.327,8.131 17.537 C 7.651 18.029,7.161 18.240,6.500 18.240 C 5.839 18.240,5.349 18.029,4.869 17.537 C 4.664 17.327,4.400 16.914,4.400 16.804 C 4.400 16.772,4.988 16.760,6.500 16.760 C 8.012 16.760,8.600 16.772,8.600 16.804 " stroke="none" fill-rule="evenodd" fill="black"></path></svg>