<svg width="24" height="24" viewBox="0 0 24 24" fill="none" xmlns="http://www.w3.org/2000/svg"><path d="M5.580 3.282 C 3.950 3.408,2.459 4.432,1.729 5.926 C 1.406 6.587,1.273 7.215,1.265 8.120 C 1.260 8.753,1.281 8.834,1.506 9.047 C 1.783 9.309,2.217 9.309,2.494 9.047 C 2.704 8.848,2.731 8.748,2.763 8.040 C 2.781 7.665,2.821 7.281,2.856 7.151 C 3.109 6.221,3.857 5.370,4.747 5.000 C 5.343 4.751,5.114 4.760,11.174 4.760 C 17.605 4.760,18.129 4.780,19.093 5.059 C 20.534 5.477,21.046 6.353,21.198 8.659 C 21.252 9.489,21.252 14.511,21.198 15.341 C 21.017 18.096,20.316 18.904,17.880 19.164 C 17.649 19.188,16.641 19.220,15.640 19.234 C 13.899 19.259,13.813 19.264,13.660 19.344 C 13.572 19.390,13.447 19.501,13.383 19.592 C 13.286 19.730,13.267 19.797,13.267 19.993 C 13.267 20.278,13.372 20.474,13.609 20.631 C 13.756 20.728,13.811 20.738,14.255 20.752 C 15.005 20.776,17.639 20.689,18.220 20.621 C 19.724 20.444,20.646 20.067,21.365 19.331 C 22.084 18.597,22.438 17.722,22.621 16.233 C 22.727 15.361,22.781 12.307,22.728 10.150 C 22.670 7.833,22.588 7.075,22.302 6.221 C 21.886 4.984,21.016 4.114,19.779 3.698 C 18.998 3.436,18.134 3.331,16.360 3.280 C 14.791 3.235,6.165 3.237,5.580 3.282 M1.826 10.286 C 1.184 10.431,1.053 11.290,1.620 11.640 C 1.746 11.718,1.847 11.734,2.373 11.762 C 3.634 11.828,4.639 12.094,5.740 12.652 C 7.296 13.441,8.559 14.704,9.348 16.260 C 9.906 17.361,10.172 18.366,10.238 19.627 C 10.274 20.315,10.320 20.439,10.607 20.629 C 10.839 20.783,11.180 20.778,11.408 20.617 C 11.688 20.418,11.741 20.264,11.730 19.680 C 11.681 17.251,10.658 14.894,8.882 13.118 C 7.335 11.571,5.417 10.622,3.280 10.345 C 2.688 10.269,2.022 10.241,1.826 10.286 M1.826 13.286 C 1.185 13.429,1.053 14.290,1.618 14.639 C 1.734 14.711,1.853 14.734,2.251 14.760 C 3.062 14.815,3.650 14.968,4.326 15.302 C 5.358 15.809,6.190 16.641,6.697 17.670 C 7.032 18.350,7.185 18.937,7.240 19.749 C 7.277 20.307,7.337 20.451,7.607 20.629 C 7.914 20.833,8.383 20.745,8.598 20.443 C 8.724 20.265,8.753 20.045,8.717 19.530 C 8.496 16.342,6.041 13.724,2.900 13.324 C 2.418 13.263,1.998 13.248,1.826 13.286 M1.826 16.285 C 1.188 16.433,1.053 17.289,1.613 17.636 C 1.713 17.697,1.862 17.732,2.150 17.759 C 2.776 17.819,3.253 18.044,3.643 18.464 C 4.011 18.861,4.185 19.263,4.241 19.848 C 4.285 20.307,4.358 20.465,4.607 20.629 C 4.839 20.783,5.180 20.778,5.408 20.617 C 5.655 20.442,5.738 20.249,5.730 19.871 C 5.707 18.764,5.158 17.698,4.257 17.009 C 4.023 16.830,3.536 16.575,3.214 16.462 C 2.771 16.307,2.098 16.221,1.826 16.285 " stroke="none" fill-rule="evenodd" fill="black"></path></svg>