<svg width="24" height="24" viewBox="0 0 24 24" fill="none" xmlns="http://www.w3.org/2000/svg"><path d="M12.060 1.279 C 10.724 1.323,10.167 1.401,9.519 1.638 C 8.619 1.967,8.001 2.565,7.674 3.424 L 7.551 3.747 6.586 3.773 C 4.898 3.818,4.239 3.958,3.565 4.417 C 2.940 4.842,2.547 5.532,2.380 6.500 C 2.284 7.053,2.242 8.758,2.242 12.000 C 2.242 15.242,2.284 16.947,2.380 17.500 C 2.661 19.126,3.548 19.945,5.260 20.156 C 5.458 20.180,6.054 20.212,6.586 20.227 L 7.551 20.253 7.674 20.576 C 8.081 21.646,8.911 22.289,10.233 22.559 C 10.933 22.701,11.685 22.732,14.480 22.733 C 17.282 22.734,18.053 22.703,18.772 22.557 C 20.372 22.233,21.233 21.372,21.557 19.772 C 21.729 18.925,21.739 18.468,21.739 12.000 C 21.739 5.532,21.729 5.075,21.557 4.228 C 21.176 2.349,20.081 1.494,17.832 1.320 C 17.121 1.266,13.312 1.238,12.060 1.279 M18.119 2.835 C 18.786 2.936,19.264 3.117,19.555 3.380 C 19.743 3.550,19.968 3.977,20.060 4.340 C 20.218 4.960,20.220 5.078,20.220 12.020 C 20.220 18.254,20.215 18.772,20.149 19.186 C 19.935 20.537,19.473 20.976,18.060 21.170 C 17.549 21.241,11.451 21.241,10.940 21.170 C 10.236 21.073,9.748 20.894,9.445 20.620 C 9.147 20.351,8.932 19.806,8.830 19.060 C 8.758 18.539,8.758 5.461,8.830 4.940 C 8.964 3.962,9.236 3.440,9.749 3.171 C 10.170 2.950,10.577 2.854,11.307 2.802 C 12.010 2.752,17.753 2.780,18.119 2.835 M7.303 5.390 C 7.259 5.642,7.232 16.176,7.272 17.500 C 7.292 18.182,7.302 18.747,7.295 18.756 C 7.263 18.794,5.357 18.676,5.100 18.621 C 4.300 18.449,3.989 18.091,3.831 17.160 C 3.757 16.725,3.757 7.275,3.831 6.840 C 4.030 5.673,4.460 5.364,6.000 5.283 C 6.319 5.266,6.748 5.249,6.954 5.246 L 7.329 5.240 7.303 5.390 M14.329 7.279 C 14.257 7.296,14.131 7.357,14.049 7.414 C 13.814 7.577,11.418 10.004,11.339 10.159 C 11.252 10.331,11.247 10.661,11.331 10.821 C 11.520 11.183,11.932 11.336,12.303 11.181 C 12.382 11.148,12.729 10.841,13.102 10.475 L 13.760 9.827 13.760 12.991 C 13.760 15.129,13.774 16.191,13.803 16.267 C 13.905 16.540,14.193 16.731,14.500 16.731 C 14.807 16.731,15.095 16.540,15.197 16.267 C 15.226 16.191,15.240 15.129,15.240 12.991 L 15.240 9.827 15.898 10.475 C 16.271 10.841,16.618 11.148,16.697 11.181 C 17.068 11.336,17.480 11.183,17.669 10.821 C 17.752 10.662,17.748 10.332,17.661 10.159 C 17.575 9.987,15.026 7.431,14.860 7.350 C 14.698 7.270,14.487 7.242,14.329 7.279 " stroke="none" fill-rule="evenodd" fill="black"></path></svg>