<svg width="24" height="24" viewBox="0 0 24 24" fill="none" xmlns="http://www.w3.org/2000/svg"><path d="M7.420 2.283 C 4.824 2.355,3.629 2.695,2.669 3.635 C 1.940 4.348,1.564 5.261,1.379 6.767 C 1.271 7.652,1.218 10.735,1.273 12.891 C 1.333 15.177,1.408 15.888,1.679 16.717 C 2.026 17.778,2.691 18.585,3.589 19.035 C 3.875 19.179,4.066 19.192,4.302 19.085 C 4.699 18.904,4.854 18.460,4.655 18.071 C 4.578 17.921,4.469 17.826,4.163 17.644 C 3.526 17.266,3.132 16.613,2.942 15.620 C 2.806 14.908,2.788 14.487,2.771 11.480 C 2.748 7.581,2.796 6.726,3.089 5.800 C 3.517 4.448,4.407 3.950,6.659 3.802 C 7.516 3.746,16.484 3.746,17.341 3.802 C 19.644 3.953,20.523 4.467,20.939 5.901 C 21.190 6.768,21.240 7.610,21.240 11.000 C 21.240 14.383,21.190 15.233,20.941 16.093 C 20.722 16.847,20.377 17.319,19.781 17.680 C 19.446 17.882,19.319 18.035,19.262 18.307 C 19.176 18.711,19.568 19.157,20.011 19.159 C 20.306 19.161,20.947 18.767,21.385 18.313 C 22.086 17.590,22.440 16.706,22.621 15.233 C 22.727 14.361,22.781 11.307,22.728 9.150 C 22.670 6.833,22.588 6.075,22.302 5.221 C 21.886 3.984,21.016 3.114,19.779 2.698 C 18.998 2.436,18.134 2.331,16.360 2.280 C 14.828 2.236,9.033 2.238,7.420 2.283 M11.531 13.942 C 11.253 14.016,10.918 14.189,10.600 14.421 C 10.302 14.638,8.268 16.662,7.626 17.380 C 6.573 18.556,6.251 19.325,6.474 20.129 C 6.714 20.996,7.378 21.458,8.640 21.637 C 9.250 21.724,11.915 21.772,13.530 21.725 C 15.114 21.678,15.439 21.651,15.980 21.514 C 16.827 21.300,17.362 20.807,17.541 20.076 C 17.706 19.403,17.456 18.693,16.745 17.812 C 16.147 17.073,13.872 14.771,13.380 14.408 C 12.746 13.941,12.120 13.783,11.531 13.942 M12.220 15.435 C 12.446 15.538,13.003 16.048,14.000 17.065 C 15.414 18.506,15.826 18.986,16.023 19.416 C 16.126 19.640,16.128 19.655,16.067 19.783 C 15.885 20.164,15.216 20.239,12.000 20.239 C 8.782 20.239,8.115 20.164,7.933 19.782 C 7.871 19.652,7.873 19.639,7.988 19.394 C 8.147 19.056,8.449 18.683,9.267 17.819 C 10.358 16.665,11.490 15.582,11.729 15.463 C 11.973 15.341,12.010 15.339,12.220 15.435 " stroke="none" fill-rule="evenodd" fill="black"></path></svg>