<svg width="24" height="24" viewBox="0 0 24 24" fill="none" xmlns="http://www.w3.org/2000/svg"><path d="M8.960 1.281 C 6.964 1.331,5.849 1.468,4.900 1.779 C 3.060 2.382,1.958 3.688,1.563 5.734 C 1.311 7.042,1.267 7.973,1.267 12.000 C 1.267 16.027,1.311 16.958,1.563 18.266 C 2.013 20.599,3.401 21.987,5.734 22.437 C 7.034 22.688,7.987 22.733,12.000 22.733 C 16.013 22.733,16.966 22.688,18.266 22.437 C 20.599 21.987,21.987 20.599,22.437 18.267 C 22.656 17.131,22.721 16.045,22.732 13.300 C 22.738 11.710,22.727 11.145,22.686 10.900 C 22.565 10.182,22.250 9.430,21.830 8.856 C 21.565 8.495,15.505 2.435,15.144 2.170 C 14.594 1.767,13.897 1.466,13.210 1.334 C 12.824 1.260,10.790 1.234,8.960 1.281 M13.260 2.875 C 13.580 2.983,13.939 3.156,14.200 3.331 C 14.433 3.487,20.348 9.385,20.587 9.700 C 20.814 10.000,21.005 10.375,21.126 10.762 L 21.220 11.060 21.219 13.500 C 21.218 15.962,21.193 16.566,21.054 17.520 C 20.727 19.750,19.750 20.727,17.520 21.054 C 16.474 21.207,16.036 21.220,12.000 21.220 C 7.964 21.220,7.526 21.207,6.480 21.054 C 4.384 20.747,3.408 19.870,3.021 17.947 C 2.796 16.826,2.780 16.428,2.780 12.000 C 2.780 8.382,2.788 7.864,2.852 7.240 C 3.025 5.550,3.340 4.663,4.001 4.001 C 4.665 3.338,5.593 3.009,7.220 2.862 C 8.154 2.777,8.285 2.774,10.780 2.778 C 12.977 2.781,12.980 2.782,13.260 2.875 M6.815 5.277 C 6.638 5.321,6.461 5.456,6.353 5.631 L 6.260 5.780 6.260 7.500 L 6.260 9.220 6.353 9.369 C 6.710 9.943,7.576 9.812,7.716 9.162 C 7.773 8.894,7.774 6.090,7.717 5.841 C 7.623 5.432,7.215 5.177,6.815 5.277 M9.815 5.277 C 9.638 5.321,9.461 5.456,9.353 5.631 L 9.260 5.780 9.260 7.500 L 9.260 9.220 9.353 9.369 C 9.710 9.943,10.576 9.812,10.716 9.162 C 10.773 8.894,10.774 6.090,10.717 5.841 C 10.623 5.432,10.215 5.177,9.815 5.277 M12.815 5.277 C 12.638 5.321,12.461 5.456,12.353 5.631 L 12.260 5.780 12.260 7.500 L 12.260 9.220 12.353 9.369 C 12.710 9.943,13.576 9.812,13.716 9.162 C 13.773 8.894,13.774 6.090,13.717 5.841 C 13.623 5.432,13.215 5.177,12.815 5.277 " stroke="none" fill-rule="evenodd" fill="black"></path></svg>