<svg width="24" height="24" viewBox="0 0 24 24" fill="none" xmlns="http://www.w3.org/2000/svg"><path d="M8.960 1.280 C 6.960 1.332,5.848 1.469,4.900 1.779 C 3.060 2.382,1.958 3.688,1.563 5.734 C 1.311 7.042,1.267 7.973,1.267 12.000 C 1.267 16.027,1.311 16.958,1.563 18.266 C 2.013 20.599,3.401 21.987,5.734 22.437 C 7.034 22.688,7.987 22.733,12.000 22.733 C 16.013 22.733,16.966 22.688,18.266 22.437 C 20.599 21.987,21.987 20.599,22.437 18.266 C 22.688 16.966,22.733 16.013,22.733 12.000 C 22.733 7.987,22.688 7.034,22.437 5.734 C 22.098 3.977,21.228 2.756,19.825 2.068 C 18.978 1.652,17.875 1.425,16.200 1.321 C 15.315 1.266,10.534 1.239,8.960 1.280 M16.787 2.853 C 17.971 2.982,18.589 3.129,19.180 3.421 C 20.200 3.924,20.776 4.815,21.019 6.260 C 21.215 7.435,21.251 8.515,21.229 12.620 C 21.210 16.115,21.195 16.526,21.055 17.500 C 20.734 19.744,19.757 20.726,17.520 21.054 C 16.474 21.207,16.036 21.220,12.000 21.220 C 7.964 21.220,7.526 21.207,6.480 21.054 C 4.384 20.747,3.408 19.870,3.021 17.947 C 2.796 16.826,2.780 16.428,2.780 12.000 C 2.780 8.382,2.788 7.864,2.852 7.240 C 3.025 5.550,3.340 4.663,4.001 4.001 C 4.665 3.338,5.593 3.009,7.220 2.862 C 8.207 2.772,8.227 2.772,12.400 2.782 C 15.524 2.790,16.323 2.803,16.787 2.853 M6.815 7.277 C 6.638 7.321,6.461 7.456,6.353 7.631 L 6.260 7.780 6.260 12.000 L 6.260 16.220 6.353 16.369 C 6.710 16.943,7.576 16.812,7.716 16.162 C 7.775 15.885,7.776 8.098,7.717 7.841 C 7.623 7.432,7.215 7.177,6.815 7.277 M12.900 8.260 C 12.878 8.267,12.806 8.285,12.740 8.299 C 12.652 8.319,12.200 8.745,11.028 9.913 C 10.152 10.786,9.398 11.561,9.351 11.636 C 9.291 11.732,9.267 11.836,9.267 12.000 C 9.267 12.164,9.291 12.268,9.351 12.364 C 9.398 12.439,10.152 13.214,11.028 14.086 C 12.544 15.596,12.629 15.673,12.810 15.711 C 13.390 15.831,13.832 15.389,13.710 14.810 C 13.673 14.633,13.608 14.557,12.747 13.690 L 11.824 12.760 14.390 12.760 C 16.113 12.760,17.024 12.745,17.162 12.716 C 17.904 12.557,17.924 11.471,17.189 11.286 C 17.059 11.254,16.245 11.240,14.414 11.240 L 11.824 11.240 12.747 10.310 C 13.610 9.441,13.673 9.367,13.711 9.189 C 13.785 8.835,13.633 8.480,13.352 8.350 C 13.213 8.286,12.968 8.237,12.900 8.260 " stroke="none" fill-rule="evenodd" fill="black"></path></svg>