<svg width="24" height="24" viewBox="0 0 24 24" fill="none" xmlns="http://www.w3.org/2000/svg"><path d="M8.960 1.280 C 6.960 1.332,5.848 1.469,4.900 1.779 C 3.060 2.382,1.958 3.688,1.563 5.734 C 1.311 7.042,1.267 7.973,1.267 12.000 C 1.267 16.027,1.311 16.958,1.563 18.266 C 2.013 20.599,3.401 21.987,5.734 22.437 C 7.034 22.688,7.987 22.733,12.000 22.733 C 16.013 22.733,16.966 22.688,18.266 22.437 C 20.599 21.987,21.987 20.599,22.437 18.266 C 22.688 16.966,22.733 16.013,22.733 12.000 C 22.733 7.987,22.688 7.034,22.437 5.734 C 22.098 3.977,21.228 2.756,19.825 2.068 C 18.978 1.652,17.875 1.425,16.200 1.321 C 15.315 1.266,10.534 1.239,8.960 1.280 M16.787 2.853 C 17.971 2.982,18.589 3.129,19.180 3.421 C 20.200 3.924,20.776 4.815,21.019 6.260 C 21.215 7.435,21.251 8.515,21.229 12.620 C 21.210 16.115,21.195 16.526,21.055 17.500 C 20.734 19.744,19.757 20.726,17.520 21.054 C 16.474 21.207,16.036 21.220,12.000 21.220 C 7.964 21.220,7.526 21.207,6.480 21.054 C 4.384 20.747,3.408 19.870,3.021 17.947 C 2.796 16.826,2.780 16.428,2.780 12.000 C 2.780 8.382,2.788 7.864,2.852 7.240 C 3.025 5.550,3.340 4.663,4.001 4.001 C 4.665 3.338,5.593 3.009,7.220 2.862 C 8.207 2.772,8.227 2.772,12.400 2.782 C 15.524 2.790,16.323 2.803,16.787 2.853 M6.826 5.286 C 6.625 5.331,6.468 5.445,6.353 5.631 L 6.260 5.780 6.260 12.000 L 6.260 18.220 6.353 18.369 C 6.713 18.949,7.575 18.818,7.716 18.162 C 7.776 17.883,7.777 6.100,7.717 5.841 C 7.622 5.428,7.243 5.192,6.826 5.286 M12.810 5.278 C 12.648 5.318,12.567 5.381,10.861 6.809 C 10.091 7.453,9.423 8.038,9.375 8.109 C 9.206 8.363,9.220 8.702,9.408 8.941 C 9.502 9.060,12.542 11.607,12.666 11.671 C 12.931 11.807,13.298 11.742,13.520 11.520 C 13.770 11.270,13.810 10.875,13.615 10.578 C 13.583 10.528,13.223 10.212,12.817 9.874 L 12.077 9.260 14.669 9.240 C 16.535 9.226,17.282 9.207,17.340 9.173 C 17.446 9.112,17.618 8.925,17.681 8.802 C 17.709 8.748,17.731 8.612,17.731 8.500 C 17.731 8.388,17.709 8.252,17.681 8.198 C 17.618 8.075,17.446 7.888,17.340 7.827 C 17.282 7.793,16.535 7.774,14.669 7.760 L 12.077 7.740 12.817 7.126 C 13.223 6.788,13.583 6.472,13.615 6.422 C 13.789 6.156,13.774 5.795,13.579 5.536 C 13.420 5.326,13.079 5.212,12.810 5.278 M12.810 12.278 C 12.648 12.318,12.567 12.381,10.861 13.809 C 10.091 14.453,9.423 15.038,9.375 15.109 C 9.206 15.363,9.220 15.702,9.408 15.941 C 9.502 16.060,12.542 18.607,12.666 18.671 C 12.931 18.807,13.298 18.742,13.520 18.520 C 13.770 18.270,13.810 17.875,13.615 17.578 C 13.583 17.528,13.223 17.212,12.817 16.874 L 12.077 16.260 14.669 16.240 C 16.535 16.226,17.282 16.207,17.340 16.173 C 17.446 16.112,17.618 15.925,17.681 15.802 C 17.709 15.748,17.731 15.612,17.731 15.500 C 17.731 15.388,17.709 15.252,17.681 15.198 C 17.618 15.075,17.446 14.888,17.340 14.827 C 17.282 14.793,16.535 14.774,14.669 14.760 L 12.077 14.740 12.817 14.126 C 13.223 13.788,13.583 13.472,13.615 13.422 C 13.789 13.156,13.774 12.795,13.579 12.536 C 13.420 12.326,13.079 12.212,12.810 12.278 " stroke="none" fill-rule="evenodd" fill="black"></path></svg>