<svg width="24" height="24" viewBox="0 0 24 24" fill="none" xmlns="http://www.w3.org/2000/svg"><path d="M7.340 2.283 C 4.732 2.362,3.546 2.718,2.595 3.706 C 1.716 4.620,1.383 5.740,1.280 8.130 C 1.229 9.296,1.230 14.722,1.281 15.900 C 1.383 18.278,1.719 19.387,2.616 20.314 C 3.528 21.256,4.677 21.614,7.130 21.720 C 8.401 21.775,13.017 21.771,13.219 21.715 C 13.431 21.657,13.660 21.422,13.719 21.204 C 13.808 20.873,13.689 20.566,13.395 20.372 L 13.226 20.260 9.863 20.236 C 6.634 20.212,6.254 20.199,5.482 20.078 C 4.014 19.849,3.269 19.168,2.977 17.789 C 2.840 17.139,2.794 16.432,2.772 14.590 L 2.749 12.760 11.995 12.760 L 21.240 12.760 21.240 12.910 C 21.241 13.547,21.826 13.936,22.364 13.658 C 22.514 13.580,22.670 13.383,22.718 13.209 C 22.772 13.016,22.772 9.379,22.719 8.140 C 22.652 6.590,22.516 5.739,22.205 4.940 C 21.879 4.100,21.194 3.355,20.365 2.940 C 19.494 2.503,18.549 2.343,16.460 2.279 C 15.058 2.237,8.795 2.239,7.340 2.283 M17.169 3.801 C 18.940 3.899,19.682 4.118,20.282 4.718 C 21.040 5.476,21.237 6.540,21.239 9.890 L 21.240 11.240 11.995 11.240 L 2.749 11.240 2.772 9.410 C 2.799 7.175,2.869 6.432,3.122 5.671 C 3.394 4.853,4.037 4.276,4.935 4.043 C 5.360 3.933,6.058 3.840,6.738 3.803 C 7.579 3.757,16.347 3.755,17.169 3.801 M5.699 5.816 C 5.550 5.881,5.332 6.124,5.291 6.271 C 5.251 6.413,5.251 8.587,5.291 8.729 C 5.333 8.881,5.553 9.121,5.708 9.186 C 6.002 9.309,6.336 9.229,6.550 8.985 C 6.621 8.905,6.693 8.789,6.709 8.729 C 6.749 8.587,6.749 6.413,6.709 6.271 C 6.667 6.119,6.447 5.879,6.292 5.814 C 6.130 5.746,5.857 5.747,5.699 5.816 M8.699 5.816 C 8.550 5.881,8.332 6.124,8.291 6.271 C 8.251 6.413,8.251 8.587,8.291 8.729 C 8.333 8.881,8.553 9.121,8.708 9.186 C 9.002 9.309,9.336 9.229,9.550 8.985 C 9.621 8.905,9.693 8.789,9.709 8.729 C 9.749 8.587,9.749 6.413,9.709 6.271 C 9.667 6.119,9.447 5.879,9.292 5.814 C 9.130 5.746,8.857 5.747,8.699 5.816 M13.180 6.835 C 12.990 6.923,12.904 7.012,12.822 7.210 C 12.708 7.483,12.783 7.869,12.986 8.048 C 13.201 8.240,13.205 8.240,15.756 8.240 C 17.354 8.240,18.192 8.226,18.267 8.197 C 18.540 8.095,18.731 7.807,18.731 7.500 C 18.731 7.193,18.540 6.905,18.267 6.803 C 18.192 6.774,17.353 6.760,15.747 6.761 C 13.497 6.762,13.330 6.767,13.180 6.835 M18.220 14.266 C 17.275 14.375,16.600 14.640,15.983 15.143 C 15.553 15.493,15.174 16.030,15.004 16.528 C 14.941 16.714,14.917 16.741,14.769 16.790 C 14.450 16.897,14.203 17.300,14.262 17.616 C 14.302 17.830,14.410 17.971,14.786 18.299 C 15.214 18.673,15.320 18.731,15.580 18.731 C 15.838 18.731,15.950 18.671,16.385 18.300 C 16.745 17.994,16.918 17.742,16.919 17.525 C 16.921 17.333,16.822 17.112,16.668 16.957 L 16.510 16.799 16.623 16.635 C 16.881 16.264,17.384 15.939,17.885 15.821 C 18.213 15.744,18.789 15.744,19.118 15.822 C 19.567 15.928,19.866 16.101,20.224 16.463 C 20.402 16.643,20.591 16.817,20.644 16.850 C 21.036 17.095,21.614 16.836,21.714 16.370 C 21.791 16.014,21.639 15.710,21.166 15.272 C 20.552 14.704,19.802 14.375,18.900 14.280 C 18.541 14.241,18.447 14.240,18.220 14.266 M5.699 14.816 C 5.550 14.881,5.332 15.124,5.291 15.271 C 5.251 15.413,5.251 17.587,5.291 17.729 C 5.333 17.881,5.553 18.121,5.708 18.186 C 6.002 18.309,6.336 18.229,6.550 17.985 C 6.621 17.905,6.693 17.789,6.709 17.729 C 6.749 17.587,6.749 15.413,6.709 15.271 C 6.667 15.119,6.447 14.879,6.292 14.814 C 6.130 14.746,5.857 14.747,5.699 14.816 M8.699 14.816 C 8.550 14.881,8.332 15.124,8.291 15.271 C 8.251 15.413,8.251 17.587,8.291 17.729 C 8.333 17.881,8.553 18.121,8.708 18.186 C 9.002 18.309,9.336 18.229,9.550 17.985 C 9.621 17.905,9.693 17.789,9.709 17.729 C 9.749 17.587,9.749 15.413,9.709 15.271 C 9.667 15.119,9.447 14.879,9.292 14.814 C 9.130 14.746,8.857 14.747,8.699 14.816 M21.260 17.277 C 21.077 17.321,20.997 17.374,20.614 17.700 C 20.255 18.006,20.082 18.258,20.081 18.475 C 20.079 18.667,20.178 18.888,20.332 19.043 L 20.490 19.201 20.377 19.364 C 20.123 19.731,19.608 20.062,19.110 20.180 C 18.787 20.256,18.210 20.255,17.882 20.178 C 17.433 20.072,17.134 19.899,16.776 19.537 C 16.598 19.357,16.409 19.183,16.356 19.150 C 15.964 18.905,15.386 19.164,15.286 19.630 C 15.209 19.986,15.361 20.290,15.834 20.728 C 16.818 21.639,18.280 21.967,19.619 21.579 C 20.784 21.242,21.658 20.464,21.999 19.462 C 22.058 19.287,22.085 19.258,22.231 19.210 C 22.435 19.142,22.661 18.898,22.719 18.685 C 22.767 18.505,22.727 18.258,22.624 18.101 C 22.545 17.979,21.898 17.411,21.761 17.342 C 21.621 17.271,21.403 17.243,21.260 17.277 " fill="#1C274C" stroke="none" fill-rule="evenodd"></path></svg>