<svg width="24" height="24" viewBox="0 0 24 24" fill="none" xmlns="http://www.w3.org/2000/svg"><path d="M7.340 2.283 C 4.732 2.362,3.546 2.718,2.595 3.706 C 1.716 4.620,1.383 5.740,1.280 8.130 C 1.229 9.296,1.230 14.722,1.281 15.900 C 1.383 18.278,1.719 19.387,2.616 20.314 C 3.528 21.256,4.677 21.614,7.130 21.720 C 8.401 21.775,13.017 21.771,13.219 21.715 C 13.431 21.657,13.660 21.422,13.719 21.204 C 13.808 20.873,13.689 20.566,13.395 20.372 L 13.226 20.260 9.863 20.236 C 6.634 20.212,6.254 20.199,5.482 20.078 C 4.014 19.849,3.269 19.168,2.977 17.789 C 2.840 17.139,2.794 16.432,2.772 14.590 L 2.749 12.760 11.995 12.760 L 21.240 12.760 21.240 12.910 C 21.241 13.547,21.826 13.936,22.364 13.658 C 22.514 13.580,22.670 13.383,22.718 13.209 C 22.772 13.016,22.772 9.379,22.719 8.140 C 22.652 6.590,22.516 5.739,22.205 4.940 C 21.879 4.100,21.194 3.355,20.365 2.940 C 19.494 2.503,18.549 2.343,16.460 2.279 C 15.058 2.237,8.795 2.239,7.340 2.283 M17.169 3.801 C 18.940 3.899,19.682 4.118,20.282 4.718 C 21.040 5.476,21.237 6.540,21.239 9.890 L 21.240 11.240 11.995 11.240 L 2.749 11.240 2.772 9.410 C 2.799 7.175,2.869 6.432,3.122 5.671 C 3.394 4.853,4.037 4.276,4.935 4.043 C 5.360 3.933,6.058 3.840,6.738 3.803 C 7.579 3.757,16.347 3.755,17.169 3.801 M5.699 5.816 C 5.550 5.881,5.332 6.124,5.291 6.271 C 5.251 6.413,5.251 8.587,5.291 8.729 C 5.333 8.881,5.553 9.121,5.708 9.186 C 6.002 9.309,6.336 9.229,6.550 8.985 C 6.621 8.905,6.693 8.789,6.709 8.729 C 6.749 8.587,6.749 6.413,6.709 6.271 C 6.667 6.119,6.447 5.879,6.292 5.814 C 6.130 5.746,5.857 5.747,5.699 5.816 M8.699 5.816 C 8.550 5.881,8.332 6.124,8.291 6.271 C 8.251 6.413,8.251 8.587,8.291 8.729 C 8.333 8.881,8.553 9.121,8.708 9.186 C 9.002 9.309,9.336 9.229,9.550 8.985 C 9.621 8.905,9.693 8.789,9.709 8.729 C 9.749 8.587,9.749 6.413,9.709 6.271 C 9.667 6.119,9.447 5.879,9.292 5.814 C 9.130 5.746,8.857 5.747,8.699 5.816 M13.180 6.835 C 12.990 6.923,12.904 7.012,12.822 7.210 C 12.708 7.483,12.783 7.869,12.986 8.048 C 13.201 8.240,13.205 8.240,15.756 8.240 C 17.354 8.240,18.192 8.226,18.267 8.197 C 18.540 8.095,18.731 7.807,18.731 7.500 C 18.731 7.193,18.540 6.905,18.267 6.803 C 18.192 6.774,17.353 6.760,15.747 6.761 C 13.497 6.762,13.330 6.767,13.180 6.835 M18.320 14.281 C 17.525 14.381,16.833 14.833,16.363 15.560 C 16.110 15.952,15.920 16.566,15.920 16.996 C 15.920 17.138,15.911 17.147,15.721 17.216 C 15.308 17.364,14.866 17.743,14.586 18.189 C 14.182 18.834,14.158 19.834,14.531 20.534 C 14.802 21.044,15.325 21.483,15.858 21.651 C 16.134 21.738,16.183 21.740,18.260 21.740 C 20.556 21.740,20.577 21.738,21.074 21.515 C 21.837 21.173,22.430 20.469,22.644 19.652 C 22.739 19.287,22.758 18.613,22.682 18.276 C 22.512 17.517,22.022 16.798,21.443 16.456 C 21.365 16.409,21.310 16.317,21.243 16.120 C 21.013 15.446,20.391 14.764,19.745 14.478 C 19.347 14.302,18.778 14.224,18.320 14.281 M5.699 14.816 C 5.550 14.881,5.332 15.124,5.291 15.271 C 5.251 15.413,5.251 17.587,5.291 17.729 C 5.333 17.881,5.553 18.121,5.708 18.186 C 6.002 18.309,6.336 18.229,6.550 17.985 C 6.621 17.905,6.693 17.789,6.709 17.729 C 6.749 17.587,6.749 15.413,6.709 15.271 C 6.667 15.119,6.447 14.879,6.292 14.814 C 6.130 14.746,5.857 14.747,5.699 14.816 M8.699 14.816 C 8.550 14.881,8.332 15.124,8.291 15.271 C 8.251 15.413,8.251 17.587,8.291 17.729 C 8.333 17.881,8.553 18.121,8.708 18.186 C 9.002 18.309,9.336 18.229,9.550 17.985 C 9.621 17.905,9.693 17.789,9.709 17.729 C 9.749 17.587,9.749 15.413,9.709 15.271 C 9.667 15.119,9.447 14.879,9.292 14.814 C 9.130 14.746,8.857 14.747,8.699 14.816 M19.183 15.870 C 19.272 15.916,19.368 15.981,19.396 16.015 C 19.439 16.067,19.421 16.082,19.273 16.121 C 18.853 16.233,18.638 16.459,18.608 16.820 C 18.576 17.208,18.776 17.487,19.172 17.608 C 19.298 17.646,19.374 17.641,19.604 17.582 C 20.143 17.442,20.616 17.581,20.924 17.970 C 21.480 18.674,21.279 19.735,20.516 20.116 L 20.267 20.240 18.292 20.240 C 16.115 20.240,16.202 20.249,15.970 19.985 C 15.717 19.697,15.687 19.219,15.903 18.912 C 16.156 18.552,16.515 18.484,16.940 18.716 C 17.151 18.831,17.206 18.845,17.394 18.826 C 18.086 18.758,18.322 17.892,17.759 17.484 C 17.667 17.417,17.559 17.353,17.520 17.340 C 17.480 17.327,17.438 17.276,17.425 17.226 C 17.387 17.074,17.478 16.635,17.591 16.427 C 17.723 16.185,18.028 15.906,18.251 15.824 C 18.489 15.736,18.968 15.760,19.183 15.870 " fill="#1C274C" stroke="none" fill-rule="evenodd"></path></svg>