<svg width="24" height="24" viewBox="0 0 24 24" fill="none" xmlns="http://www.w3.org/2000/svg"><path d="M4.740 1.267 C 3.839 1.347,3.045 1.697,2.406 2.297 C 1.884 2.787,1.454 3.588,1.319 4.320 C 1.257 4.654,1.257 5.346,1.319 5.680 C 1.462 6.458,1.902 7.248,2.486 7.776 L 2.734 8.000 2.486 8.224 C 1.902 8.752,1.462 9.542,1.319 10.320 C 1.257 10.654,1.257 11.346,1.319 11.680 C 1.592 13.160,2.704 14.303,4.225 14.668 C 4.466 14.726,4.911 14.736,7.870 14.749 L 11.240 14.765 11.240 15.557 L 11.240 16.349 11.010 16.434 C 10.349 16.676,9.676 17.349,9.434 18.009 L 9.350 18.238 5.562 18.249 L 1.774 18.260 1.612 18.367 C 1.372 18.526,1.267 18.721,1.267 19.007 C 1.267 19.203,1.286 19.270,1.383 19.408 C 1.448 19.499,1.572 19.610,1.660 19.656 C 1.819 19.739,1.855 19.740,5.587 19.751 L 9.354 19.762 9.402 19.911 C 9.582 20.481,10.109 21.090,10.720 21.432 C 11.434 21.832,12.566 21.832,13.280 21.432 C 13.891 21.089,14.418 20.481,14.599 19.910 L 14.646 19.760 18.301 19.760 C 20.819 19.760,22.020 19.746,22.162 19.716 C 22.904 19.557,22.924 18.471,22.189 18.286 C 22.056 18.253,20.982 18.240,18.328 18.240 L 14.651 18.240 14.566 18.010 C 14.324 17.349,13.651 16.676,12.990 16.434 L 12.760 16.349 12.760 15.557 L 12.760 14.765 16.130 14.749 C 19.089 14.736,19.534 14.726,19.775 14.668 C 21.296 14.303,22.408 13.160,22.681 11.680 C 22.743 11.346,22.743 10.654,22.681 10.320 C 22.538 9.542,22.098 8.752,21.514 8.224 L 21.266 8.000 21.514 7.776 C 22.098 7.248,22.538 6.458,22.681 5.680 C 22.743 5.346,22.743 4.654,22.681 4.320 C 22.442 3.025,21.528 1.947,20.275 1.481 C 19.651 1.250,20.162 1.264,12.200 1.258 C 8.185 1.255,4.828 1.259,4.740 1.267 M19.578 2.821 C 19.949 2.918,20.274 3.112,20.581 3.419 C 21.041 3.879,21.240 4.356,21.240 5.000 C 21.240 5.644,21.041 6.121,20.581 6.581 C 20.421 6.741,20.195 6.917,20.057 6.990 C 19.547 7.257,20.096 7.240,12.000 7.240 C 3.904 7.240,4.453 7.257,3.943 6.990 C 3.805 6.917,3.579 6.741,3.419 6.581 C 2.959 6.121,2.760 5.644,2.760 5.000 C 2.760 4.356,2.959 3.879,3.419 3.419 C 3.719 3.118,4.050 2.919,4.404 2.823 C 4.589 2.774,5.685 2.765,11.982 2.763 C 18.469 2.760,19.371 2.767,19.578 2.821 M5.667 4.065 C 5.303 4.177,5.000 4.602,5.000 5.000 C 5.000 5.520,5.480 6.000,6.000 6.000 C 6.517 6.000,7.000 5.517,7.000 5.000 C 7.000 4.598,6.688 4.173,6.310 4.061 C 6.061 3.987,5.919 3.988,5.667 4.065 M12.815 4.278 C 12.331 4.393,12.098 5.004,12.383 5.408 C 12.447 5.499,12.572 5.610,12.660 5.656 C 12.818 5.739,12.865 5.740,15.878 5.751 C 18.020 5.759,19.000 5.749,19.151 5.718 C 19.902 5.562,19.931 4.473,19.189 4.286 C 18.979 4.234,13.033 4.226,12.815 4.278 M19.578 8.821 C 19.949 8.918,20.274 9.112,20.581 9.419 C 21.041 9.879,21.240 10.356,21.240 11.000 C 21.240 11.644,21.041 12.121,20.581 12.581 C 20.421 12.741,20.195 12.917,20.057 12.990 C 19.547 13.257,20.096 13.240,12.000 13.240 C 3.904 13.240,4.453 13.257,3.943 12.990 C 3.805 12.917,3.579 12.741,3.419 12.581 C 2.959 12.121,2.760 11.644,2.760 11.000 C 2.760 10.356,2.959 9.879,3.419 9.419 C 3.719 9.118,4.050 8.919,4.404 8.823 C 4.589 8.774,5.685 8.765,11.982 8.763 C 18.469 8.760,19.371 8.767,19.578 8.821 M5.667 10.065 C 5.303 10.177,5.000 10.602,5.000 11.000 C 5.000 11.520,5.480 12.000,6.000 12.000 C 6.517 12.000,7.000 11.517,7.000 11.000 C 7.000 10.598,6.688 10.173,6.310 10.061 C 6.061 9.987,5.919 9.988,5.667 10.065 M12.815 10.278 C 12.331 10.393,12.098 11.004,12.383 11.408 C 12.447 11.499,12.572 11.610,12.660 11.656 C 12.818 11.739,12.865 11.740,15.878 11.751 C 18.020 11.759,19.000 11.749,19.151 11.718 C 19.902 11.562,19.931 10.473,19.189 10.286 C 18.979 10.234,13.033 10.226,12.815 10.278 M12.454 17.841 C 12.744 17.950,13.050 18.256,13.159 18.546 C 13.335 19.017,13.227 19.521,12.874 19.874 C 12.390 20.359,11.624 20.367,11.143 19.893 C 10.841 19.594,10.780 19.446,10.780 19.000 C 10.780 18.687,10.795 18.592,10.867 18.458 C 11.024 18.165,11.351 17.885,11.640 17.797 C 11.838 17.737,12.232 17.758,12.454 17.841 " stroke="none" fill-rule="evenodd" fill="black"></path></svg>