<svg width="24" height="24" viewBox="0 0 24 24" fill="none" xmlns="http://www.w3.org/2000/svg"><path d="M4.520 1.282 C 4.135 1.298,3.703 1.332,3.560 1.357 C 2.180 1.604,1.481 2.387,1.323 3.860 C 1.217 4.849,1.241 7.803,1.361 8.460 C 1.438 8.888,1.603 9.317,1.806 9.621 C 2.166 10.160,2.734 10.493,3.540 10.640 C 4.058 10.734,5.750 10.757,12.000 10.757 C 18.250 10.757,19.942 10.734,20.460 10.640 C 21.519 10.447,22.205 9.898,22.496 9.008 C 22.653 8.525,22.676 8.336,22.725 7.111 C 22.772 5.911,22.725 3.987,22.638 3.520 C 22.441 2.473,21.890 1.793,21.008 1.505 C 20.546 1.354,20.301 1.320,19.360 1.280 C 18.366 1.237,5.566 1.239,4.520 1.282 M20.260 2.832 C 20.370 2.858,20.559 2.930,20.679 2.991 C 20.863 3.084,20.916 3.137,21.009 3.321 C 21.208 3.713,21.220 3.861,21.220 6.000 C 21.220 8.139,21.208 8.287,21.009 8.679 C 20.916 8.863,20.863 8.916,20.679 9.009 C 20.559 9.071,20.352 9.143,20.220 9.170 C 19.870 9.243,4.130 9.243,3.780 9.170 C 3.648 9.143,3.441 9.071,3.321 9.009 C 3.137 8.916,3.084 8.863,2.991 8.679 C 2.930 8.559,2.860 8.370,2.835 8.260 C 2.770 7.968,2.741 4.655,2.798 4.107 C 2.850 3.610,2.955 3.291,3.123 3.123 C 3.276 2.970,3.602 2.850,3.989 2.806 C 4.482 2.748,20.014 2.774,20.260 2.832 M5.815 5.278 C 5.331 5.393,5.098 6.004,5.383 6.408 C 5.605 6.722,5.676 6.738,6.869 6.753 C 8.122 6.768,8.296 6.744,8.519 6.521 C 8.918 6.122,8.731 5.423,8.189 5.286 C 7.983 5.235,6.025 5.228,5.815 5.278 M10.815 5.278 C 10.331 5.393,10.098 6.004,10.383 6.408 C 10.447 6.499,10.572 6.610,10.660 6.656 C 10.818 6.739,10.858 6.740,14.379 6.751 C 16.882 6.759,18.001 6.749,18.152 6.717 C 18.902 6.562,18.930 5.473,18.189 5.286 C 17.979 5.234,11.034 5.226,10.815 5.278 M4.520 12.282 C 4.135 12.298,3.703 12.332,3.560 12.357 C 2.180 12.604,1.481 13.387,1.323 14.860 C 1.217 15.849,1.241 18.803,1.361 19.460 C 1.587 20.711,2.288 21.411,3.540 21.640 C 4.053 21.733,5.773 21.757,12.020 21.757 C 18.251 21.757,19.942 21.734,20.460 21.640 C 21.519 21.447,22.205 20.898,22.496 20.008 C 22.653 19.525,22.676 19.336,22.725 18.111 C 22.772 16.911,22.725 14.987,22.638 14.520 C 22.441 13.473,21.890 12.793,21.008 12.505 C 20.546 12.354,20.301 12.320,19.360 12.280 C 18.366 12.237,5.566 12.239,4.520 12.282 M20.260 13.832 C 20.370 13.858,20.559 13.930,20.679 13.991 C 20.863 14.084,20.916 14.137,21.009 14.321 C 21.208 14.713,21.220 14.861,21.220 17.000 C 21.220 19.139,21.208 19.287,21.009 19.679 C 20.916 19.863,20.863 19.916,20.679 20.009 C 20.559 20.071,20.352 20.143,20.220 20.170 C 19.870 20.243,4.130 20.243,3.780 20.170 C 3.648 20.143,3.441 20.071,3.321 20.009 C 3.137 19.916,3.084 19.863,2.991 19.679 C 2.930 19.559,2.860 19.370,2.835 19.260 C 2.770 18.968,2.741 15.655,2.798 15.107 C 2.850 14.610,2.955 14.291,3.123 14.123 C 3.276 13.970,3.602 13.850,3.989 13.806 C 4.482 13.748,20.014 13.774,20.260 13.832 M5.815 16.278 C 5.331 16.393,5.098 17.004,5.383 17.408 C 5.605 17.722,5.676 17.738,6.869 17.753 C 8.122 17.768,8.296 17.744,8.519 17.521 C 8.918 17.122,8.731 16.423,8.189 16.286 C 7.983 16.235,6.025 16.228,5.815 16.278 M10.815 16.278 C 10.331 16.393,10.098 17.004,10.383 17.408 C 10.447 17.499,10.572 17.610,10.660 17.656 C 10.818 17.739,10.858 17.740,14.379 17.751 C 16.882 17.759,18.001 17.749,18.152 17.717 C 18.902 17.562,18.930 16.473,18.189 16.286 C 17.979 16.234,11.034 16.226,10.815 16.278 " stroke="none" fill-rule="evenodd" fill="black"></path></svg>