<svg width="24" height="24" viewBox="0 0 24 24" fill="none" xmlns="http://www.w3.org/2000/svg"><path d="M4.520 1.282 C 4.135 1.298,3.703 1.332,3.560 1.357 C 2.180 1.604,1.481 2.387,1.323 3.860 C 1.217 4.849,1.241 7.803,1.361 8.460 C 1.438 8.888,1.603 9.317,1.806 9.621 C 2.166 10.160,2.734 10.493,3.540 10.640 C 4.058 10.734,5.750 10.757,12.000 10.757 C 18.250 10.757,19.942 10.734,20.460 10.640 C 21.519 10.447,22.205 9.898,22.496 9.008 C 22.653 8.525,22.676 8.336,22.725 7.111 C 22.772 5.911,22.725 3.987,22.638 3.520 C 22.441 2.473,21.890 1.793,21.008 1.505 C 20.546 1.354,20.301 1.320,19.360 1.280 C 18.366 1.237,5.566 1.239,4.520 1.282 M20.260 2.832 C 20.370 2.858,20.559 2.930,20.679 2.991 C 20.863 3.084,20.916 3.137,21.009 3.321 C 21.208 3.713,21.220 3.861,21.220 6.000 C 21.220 8.139,21.208 8.287,21.009 8.679 C 20.916 8.863,20.863 8.916,20.679 9.009 C 20.559 9.071,20.352 9.143,20.220 9.170 C 19.870 9.243,4.130 9.243,3.780 9.170 C 3.648 9.143,3.441 9.071,3.321 9.009 C 3.137 8.916,3.084 8.863,2.991 8.679 C 2.930 8.559,2.860 8.370,2.835 8.260 C 2.770 7.968,2.741 4.655,2.798 4.107 C 2.850 3.610,2.955 3.291,3.123 3.123 C 3.276 2.970,3.602 2.850,3.989 2.806 C 4.482 2.748,20.014 2.774,20.260 2.832 M5.815 4.277 C 5.638 4.321,5.461 4.456,5.353 4.631 C 5.261 4.778,5.260 4.793,5.260 6.000 C 5.260 7.207,5.261 7.222,5.353 7.369 C 5.710 7.943,6.576 7.812,6.716 7.162 C 6.772 6.901,6.773 5.083,6.717 4.841 C 6.623 4.432,6.215 4.177,5.815 4.277 M8.815 4.277 C 8.638 4.321,8.461 4.456,8.353 4.631 C 8.261 4.778,8.260 4.793,8.260 6.000 C 8.260 7.207,8.261 7.222,8.353 7.369 C 8.710 7.943,9.576 7.812,9.716 7.162 C 9.772 6.901,9.773 5.083,9.717 4.841 C 9.623 4.432,9.215 4.177,8.815 4.277 M13.420 5.260 C 13.398 5.267,13.331 5.284,13.271 5.297 C 13.124 5.329,12.881 5.548,12.814 5.708 C 12.703 5.973,12.759 6.289,12.953 6.494 C 13.196 6.751,13.073 6.739,15.616 6.752 C 18.230 6.765,18.279 6.761,18.519 6.521 C 18.918 6.122,18.731 5.423,18.189 5.286 C 18.059 5.254,17.332 5.241,15.732 5.243 C 14.483 5.245,13.442 5.252,13.420 5.260 M4.520 12.282 C 4.135 12.298,3.703 12.332,3.560 12.357 C 2.180 12.604,1.481 13.387,1.323 14.860 C 1.217 15.849,1.241 18.803,1.361 19.460 C 1.587 20.711,2.288 21.411,3.540 21.640 C 4.053 21.733,5.773 21.757,12.020 21.757 C 18.251 21.757,19.942 21.734,20.460 21.640 C 21.519 21.447,22.205 20.898,22.496 20.008 C 22.653 19.525,22.676 19.336,22.725 18.111 C 22.772 16.911,22.725 14.987,22.638 14.520 C 22.441 13.473,21.890 12.793,21.008 12.505 C 20.546 12.354,20.301 12.320,19.360 12.280 C 18.366 12.237,5.566 12.239,4.520 12.282 M20.260 13.832 C 20.370 13.858,20.559 13.930,20.679 13.991 C 20.863 14.084,20.916 14.137,21.009 14.321 C 21.208 14.713,21.220 14.861,21.220 17.000 C 21.220 19.139,21.208 19.287,21.009 19.679 C 20.916 19.863,20.863 19.916,20.679 20.009 C 20.559 20.071,20.352 20.143,20.220 20.170 C 19.870 20.243,4.130 20.243,3.780 20.170 C 3.648 20.143,3.441 20.071,3.321 20.009 C 3.137 19.916,3.084 19.863,2.991 19.679 C 2.930 19.559,2.860 19.370,2.835 19.260 C 2.770 18.968,2.741 15.655,2.798 15.107 C 2.850 14.610,2.955 14.291,3.123 14.123 C 3.276 13.970,3.602 13.850,3.989 13.806 C 4.482 13.748,20.014 13.774,20.260 13.832 M5.815 15.277 C 5.638 15.321,5.461 15.456,5.353 15.631 C 5.261 15.778,5.260 15.793,5.260 17.000 C 5.260 18.207,5.261 18.222,5.353 18.369 C 5.710 18.943,6.576 18.812,6.716 18.162 C 6.772 17.901,6.773 16.083,6.717 15.841 C 6.623 15.432,6.215 15.177,5.815 15.277 M8.815 15.277 C 8.638 15.321,8.461 15.456,8.353 15.631 C 8.261 15.778,8.260 15.793,8.260 17.000 C 8.260 18.207,8.261 18.222,8.353 18.369 C 8.710 18.943,9.576 18.812,9.716 18.162 C 9.772 17.901,9.773 16.083,9.717 15.841 C 9.623 15.432,9.215 15.177,8.815 15.277 M13.420 16.260 C 13.398 16.267,13.331 16.284,13.271 16.297 C 13.124 16.329,12.881 16.548,12.814 16.708 C 12.703 16.973,12.759 17.289,12.953 17.494 C 13.196 17.751,13.073 17.739,15.616 17.752 C 18.230 17.765,18.279 17.761,18.519 17.521 C 18.918 17.122,18.731 16.423,18.189 16.286 C 18.059 16.254,17.332 16.241,15.732 16.243 C 14.483 16.245,13.442 16.252,13.420 16.260 " stroke="none" fill-rule="evenodd" fill="black"></path></svg>