<svg width="24" height="24" viewBox="0 0 24 24" fill="none" xmlns="http://www.w3.org/2000/svg"><path d="M7.400 2.283 C 4.821 2.356,3.626 2.697,2.669 3.635 C 1.935 4.353,1.558 5.273,1.379 6.787 C 1.207 8.243,1.193 15.518,1.360 17.060 C 1.531 18.644,1.894 19.574,2.635 20.331 C 3.198 20.907,3.933 21.280,4.899 21.482 C 5.950 21.701,7.404 21.758,12.000 21.758 C 17.355 21.758,18.646 21.682,19.779 21.302 C 21.016 20.886,21.886 20.016,22.302 18.779 C 22.662 17.706,22.758 16.280,22.758 12.000 C 22.758 7.720,22.662 6.294,22.302 5.221 C 21.886 3.984,21.016 3.114,19.779 2.698 C 19.005 2.439,18.137 2.331,16.400 2.280 C 14.906 2.237,8.973 2.238,7.400 2.283 M17.340 3.801 C 18.245 3.860,18.701 3.931,19.200 4.089 C 19.901 4.311,20.393 4.693,20.676 5.236 C 21.111 6.073,21.240 7.109,21.240 9.769 L 21.240 11.240 11.995 11.240 L 2.751 11.240 2.771 9.370 C 2.783 8.341,2.812 7.320,2.837 7.100 C 3.103 4.698,3.918 3.981,6.580 3.804 C 7.289 3.756,16.629 3.754,17.340 3.801 M5.699 5.816 C 5.550 5.881,5.332 6.124,5.291 6.271 C 5.251 6.413,5.251 8.587,5.291 8.729 C 5.333 8.881,5.553 9.121,5.708 9.186 C 6.002 9.309,6.336 9.229,6.550 8.985 C 6.621 8.905,6.693 8.789,6.709 8.729 C 6.749 8.587,6.749 6.413,6.709 6.271 C 6.667 6.119,6.447 5.879,6.292 5.814 C 6.130 5.746,5.857 5.747,5.699 5.816 M8.699 5.816 C 8.550 5.881,8.332 6.124,8.291 6.271 C 8.251 6.413,8.251 8.587,8.291 8.729 C 8.333 8.881,8.553 9.121,8.708 9.186 C 9.002 9.309,9.336 9.229,9.550 8.985 C 9.621 8.905,9.693 8.789,9.709 8.729 C 9.749 8.587,9.749 6.413,9.709 6.271 C 9.667 6.119,9.447 5.879,9.292 5.814 C 9.130 5.746,8.857 5.747,8.699 5.816 M13.180 6.835 C 12.990 6.923,12.904 7.012,12.822 7.210 C 12.708 7.483,12.783 7.869,12.986 8.048 C 13.201 8.240,13.205 8.240,15.756 8.240 C 17.354 8.240,18.192 8.226,18.267 8.197 C 18.540 8.095,18.731 7.807,18.731 7.500 C 18.731 7.193,18.540 6.905,18.267 6.803 C 18.192 6.774,17.353 6.760,15.747 6.761 C 13.497 6.762,13.330 6.767,13.180 6.835 M21.240 14.231 C 21.240 16.344,21.164 17.324,20.939 18.099 C 20.646 19.111,20.109 19.647,19.093 19.941 C 18.624 20.077,18.125 20.148,17.260 20.201 C 16.281 20.262,6.622 20.231,6.080 20.165 C 3.810 19.891,3.088 19.164,2.837 16.900 C 2.812 16.680,2.783 15.659,2.771 14.630 L 2.751 12.760 11.995 12.760 L 21.240 12.760 21.240 14.231 M5.699 14.816 C 5.550 14.881,5.332 15.124,5.291 15.271 C 5.251 15.413,5.251 17.587,5.291 17.729 C 5.333 17.881,5.553 18.121,5.708 18.186 C 6.002 18.309,6.336 18.229,6.550 17.985 C 6.621 17.905,6.693 17.789,6.709 17.729 C 6.749 17.587,6.749 15.413,6.709 15.271 C 6.667 15.119,6.447 14.879,6.292 14.814 C 6.130 14.746,5.857 14.747,5.699 14.816 M8.699 14.816 C 8.550 14.881,8.332 15.124,8.291 15.271 C 8.251 15.413,8.251 17.587,8.291 17.729 C 8.333 17.881,8.553 18.121,8.708 18.186 C 9.002 18.309,9.336 18.229,9.550 17.985 C 9.621 17.905,9.693 17.789,9.709 17.729 C 9.749 17.587,9.749 15.413,9.709 15.271 C 9.667 15.119,9.447 14.879,9.292 14.814 C 9.130 14.746,8.857 14.747,8.699 14.816 M13.180 15.835 C 12.990 15.923,12.904 16.012,12.822 16.210 C 12.708 16.483,12.783 16.869,12.986 17.048 C 13.201 17.240,13.205 17.240,15.756 17.240 C 17.354 17.240,18.192 17.226,18.267 17.197 C 18.540 17.095,18.731 16.807,18.731 16.500 C 18.731 16.193,18.540 15.905,18.267 15.803 C 18.192 15.774,17.353 15.760,15.747 15.761 C 13.497 15.762,13.330 15.767,13.180 15.835 " stroke="none" fill-rule="evenodd" fill="black"></path></svg>