<svg width="24" height="24" viewBox="0 0 24 24" fill="none" xmlns="http://www.w3.org/2000/svg"><path d="M10.900 1.280 C 10.658 1.295,10.353 1.339,10.222 1.377 C 9.478 1.595,8.888 2.080,8.567 2.737 C 8.398 3.085,8.329 3.354,8.280 3.860 C 8.227 4.412,8.137 4.609,7.862 4.779 C 7.564 4.963,7.330 4.948,6.811 4.708 C 6.247 4.448,5.965 4.388,5.420 4.410 C 4.911 4.431,4.608 4.518,4.190 4.765 C 3.667 5.073,3.402 5.402,2.703 6.612 C 1.974 7.873,1.840 8.228,1.840 8.893 C 1.840 9.828,2.194 10.485,3.036 11.114 C 3.574 11.517,3.679 11.660,3.679 12.000 C 3.679 12.337,3.573 12.483,3.042 12.884 C 2.537 13.264,2.308 13.522,2.103 13.940 C 1.910 14.333,1.840 14.644,1.840 15.107 C 1.840 15.772,1.974 16.127,2.703 17.388 C 3.402 18.598,3.667 18.927,4.190 19.235 C 4.608 19.482,4.911 19.569,5.420 19.590 C 5.965 19.612,6.247 19.552,6.811 19.292 C 7.319 19.058,7.555 19.039,7.847 19.210 C 8.163 19.395,8.202 19.497,8.317 20.431 C 8.441 21.434,9.118 22.250,10.100 22.582 C 10.377 22.675,10.527 22.696,11.210 22.733 C 12.159 22.784,13.448 22.727,13.800 22.619 C 14.538 22.391,15.117 21.911,15.433 21.263 C 15.602 20.915,15.671 20.646,15.720 20.140 C 15.773 19.588,15.863 19.391,16.138 19.221 C 16.436 19.037,16.670 19.052,17.189 19.292 C 17.753 19.552,18.035 19.612,18.580 19.590 C 19.089 19.569,19.392 19.482,19.810 19.235 C 20.333 18.927,20.598 18.598,21.297 17.388 C 22.022 16.133,22.160 15.770,22.159 15.122 C 22.159 14.659,22.082 14.312,21.898 13.940 C 21.691 13.521,21.462 13.264,20.958 12.884 C 20.427 12.483,20.321 12.337,20.321 12.000 C 20.321 11.663,20.427 11.517,20.958 11.116 C 21.462 10.736,21.691 10.479,21.898 10.060 C 22.082 9.688,22.159 9.341,22.159 8.878 C 22.160 8.230,22.020 7.862,21.296 6.610 C 20.591 5.394,20.332 5.072,19.810 4.765 C 19.392 4.518,19.089 4.431,18.580 4.410 C 18.035 4.388,17.753 4.448,17.189 4.708 C 16.668 4.948,16.437 4.963,16.139 4.780 C 15.862 4.609,15.773 4.413,15.720 3.860 C 15.671 3.354,15.602 3.085,15.433 2.737 C 15.116 2.088,14.532 1.604,13.800 1.383 C 13.395 1.260,11.998 1.211,10.900 1.280 M13.526 2.866 C 13.762 2.975,14.026 3.238,14.125 3.462 C 14.171 3.566,14.217 3.808,14.241 4.068 C 14.290 4.599,14.389 4.942,14.590 5.274 C 14.887 5.765,15.340 6.128,15.858 6.291 C 16.079 6.361,16.236 6.380,16.580 6.379 C 17.070 6.378,17.154 6.357,17.740 6.087 C 18.100 5.922,18.170 5.903,18.440 5.902 C 18.691 5.900,18.778 5.919,18.974 6.015 C 19.269 6.160,19.404 6.332,19.923 7.221 C 20.687 8.529,20.761 8.740,20.626 9.207 C 20.533 9.525,20.376 9.713,19.973 9.989 C 19.418 10.369,19.124 10.741,18.940 11.295 C 18.732 11.920,18.831 12.708,19.184 13.240 C 19.399 13.564,19.578 13.738,19.976 14.012 C 20.377 14.288,20.533 14.476,20.626 14.793 C 20.761 15.260,20.687 15.471,19.923 16.779 C 19.404 17.668,19.269 17.840,18.974 17.985 C 18.778 18.081,18.691 18.100,18.440 18.098 C 18.168 18.097,18.102 18.079,17.739 17.910 C 17.208 17.662,16.875 17.586,16.440 17.612 C 15.643 17.660,15.004 18.045,14.588 18.730 C 14.389 19.057,14.290 19.402,14.241 19.932 C 14.217 20.192,14.171 20.434,14.125 20.538 C 14.026 20.762,13.762 21.025,13.526 21.134 C 13.347 21.217,13.287 21.220,12.000 21.220 C 10.713 21.220,10.653 21.217,10.474 21.134 C 10.238 21.025,9.974 20.762,9.875 20.538 C 9.829 20.434,9.783 20.192,9.759 19.932 C 9.710 19.402,9.611 19.057,9.412 18.730 C 8.996 18.045,8.357 17.660,7.560 17.612 C 7.125 17.586,6.792 17.662,6.261 17.910 C 5.898 18.079,5.832 18.097,5.560 18.098 C 5.309 18.100,5.222 18.081,5.026 17.985 C 4.731 17.840,4.596 17.668,4.077 16.779 C 3.313 15.471,3.239 15.260,3.374 14.793 C 3.467 14.475,3.624 14.287,4.027 14.011 C 4.796 13.485,5.164 12.840,5.165 12.017 C 5.167 11.178,4.796 10.516,4.031 9.992 C 3.624 9.713,3.467 9.526,3.374 9.207 C 3.239 8.740,3.313 8.529,4.077 7.221 C 4.596 6.332,4.731 6.160,5.026 6.015 C 5.222 5.919,5.309 5.900,5.560 5.902 C 5.830 5.903,5.900 5.922,6.260 6.087 C 6.846 6.357,6.930 6.378,7.420 6.379 C 7.764 6.380,7.921 6.361,8.142 6.291 C 8.657 6.129,9.112 5.763,9.412 5.270 C 9.610 4.943,9.710 4.598,9.758 4.071 C 9.813 3.476,9.937 3.218,10.283 2.978 C 10.572 2.778,10.708 2.762,12.080 2.771 C 13.275 2.780,13.350 2.784,13.526 2.866 M11.760 8.268 C 10.880 8.329,10.052 8.691,9.406 9.297 C 8.884 9.787,8.454 10.588,8.319 11.320 C 8.257 11.654,8.257 12.346,8.319 12.680 C 8.459 13.440,8.898 14.240,9.454 14.747 C 9.871 15.129,10.516 15.486,11.025 15.617 C 11.619 15.770,12.381 15.770,12.975 15.617 C 13.484 15.486,14.129 15.129,14.546 14.747 C 15.102 14.240,15.541 13.440,15.681 12.680 C 15.743 12.346,15.743 11.654,15.681 11.320 C 15.546 10.588,15.116 9.787,14.594 9.297 C 13.832 8.582,12.776 8.198,11.760 8.268 M12.578 9.821 C 12.949 9.918,13.274 10.112,13.581 10.419 C 14.041 10.879,14.240 11.356,14.240 12.000 C 14.240 12.644,14.041 13.121,13.581 13.581 C 13.121 14.041,12.644 14.240,12.000 14.240 C 11.356 14.240,10.879 14.041,10.419 13.581 C 9.959 13.121,9.760 12.644,9.760 12.000 C 9.760 11.356,9.959 10.879,10.419 10.419 C 10.719 10.118,11.050 9.919,11.404 9.823 C 11.692 9.746,12.285 9.745,12.578 9.821 " stroke="none" fill-rule="evenodd" fill="black"></path></svg>