<svg width="24" height="24" viewBox="0 0 24 24" fill="none" xmlns="http://www.w3.org/2000/svg"><path d="M11.640 1.281 C 10.945 1.346,10.204 1.616,9.172 2.182 C 7.965 2.843,5.531 4.296,4.700 4.853 C 3.474 5.673,2.799 6.530,2.519 7.624 C 2.353 8.269,2.317 8.667,2.271 10.350 C 2.218 12.277,2.273 15.029,2.377 15.680 C 2.552 16.775,2.870 17.474,3.500 18.152 C 3.865 18.545,4.233 18.839,4.922 19.291 C 5.863 19.907,8.460 21.447,9.440 21.970 C 11.080 22.845,12.254 22.950,13.740 22.354 C 14.350 22.109,15.338 21.561,17.480 20.280 C 19.330 19.173,19.971 18.722,20.500 18.152 C 21.130 17.474,21.448 16.774,21.623 15.680 C 21.727 15.031,21.781 12.278,21.729 10.350 C 21.683 8.667,21.647 8.269,21.481 7.624 C 21.201 6.530,20.526 5.673,19.300 4.853 C 18.494 4.313,16.107 2.886,14.878 2.208 C 13.499 1.447,12.603 1.191,11.640 1.281 M12.617 2.839 C 13.257 3.003,13.956 3.366,16.239 4.721 C 18.449 6.032,18.948 6.373,19.435 6.904 C 19.895 7.406,20.116 8.021,20.200 9.031 C 20.250 9.641,20.250 14.359,20.200 14.969 C 20.145 15.637,20.031 16.120,19.834 16.520 C 19.602 16.992,19.095 17.497,18.380 17.969 C 17.266 18.703,14.251 20.468,13.503 20.822 C 12.815 21.149,12.545 21.220,12.000 21.220 C 11.455 21.220,11.185 21.149,10.497 20.822 C 9.747 20.467,6.726 18.699,5.620 17.968 C 4.900 17.493,4.394 16.989,4.165 16.520 C 3.970 16.120,3.855 15.633,3.800 14.969 C 3.750 14.359,3.750 9.641,3.800 9.031 C 3.930 7.466,4.342 6.845,5.917 5.839 C 6.607 5.399,8.863 4.059,9.691 3.599 C 11.117 2.805,11.796 2.629,12.617 2.839 M11.760 8.268 C 10.880 8.329,10.052 8.691,9.406 9.297 C 8.884 9.787,8.454 10.588,8.319 11.320 C 8.257 11.654,8.257 12.346,8.319 12.680 C 8.459 13.440,8.898 14.240,9.454 14.747 C 9.871 15.129,10.516 15.486,11.025 15.617 C 11.619 15.770,12.381 15.770,12.975 15.617 C 13.484 15.486,14.129 15.129,14.546 14.747 C 15.102 14.240,15.541 13.440,15.681 12.680 C 15.743 12.346,15.743 11.654,15.681 11.320 C 15.546 10.588,15.116 9.787,14.594 9.297 C 13.832 8.582,12.776 8.198,11.760 8.268 M12.578 9.821 C 12.949 9.918,13.274 10.112,13.581 10.419 C 14.041 10.879,14.240 11.356,14.240 12.000 C 14.240 12.644,14.041 13.121,13.581 13.581 C 13.121 14.041,12.644 14.240,12.000 14.240 C 11.356 14.240,10.879 14.041,10.419 13.581 C 9.959 13.121,9.760 12.644,9.760 12.000 C 9.760 11.356,9.959 10.879,10.419 10.419 C 10.719 10.118,11.050 9.919,11.404 9.823 C 11.692 9.746,12.285 9.745,12.578 9.821 " stroke="none" fill-rule="evenodd" fill="black"></path></svg>