<svg width="24" height="24" viewBox="0 0 24 24" fill="none" xmlns="http://www.w3.org/2000/svg"><path d="M16.140 2.282 C 15.728 2.327,15.503 2.387,15.177 2.537 C 14.451 2.873,13.887 3.434,13.542 4.164 C 13.342 4.586,13.271 4.961,13.272 5.580 L 13.272 6.100 10.930 7.740 C 9.641 8.642,8.566 9.393,8.541 9.408 C 8.515 9.423,8.412 9.377,8.311 9.306 C 8.073 9.136,7.647 8.942,7.320 8.852 C 6.958 8.753,6.045 8.753,5.680 8.851 C 4.562 9.154,3.644 10.074,3.357 11.180 C 3.241 11.627,3.241 12.373,3.357 12.820 C 3.641 13.917,4.519 14.809,5.628 15.129 C 6.040 15.248,6.918 15.258,7.320 15.148 C 7.647 15.058,8.073 14.864,8.311 14.694 C 8.412 14.623,8.515 14.577,8.541 14.592 C 8.566 14.607,9.641 15.358,10.930 16.260 L 13.272 17.900 13.272 18.420 C 13.271 19.039,13.342 19.414,13.542 19.836 C 13.979 20.761,14.832 21.461,15.767 21.663 C 16.146 21.745,16.854 21.745,17.233 21.663 C 18.387 21.414,19.414 20.387,19.663 19.233 C 19.745 18.854,19.745 18.146,19.663 17.767 C 19.414 16.613,18.387 15.586,17.233 15.337 C 16.854 15.255,16.146 15.255,15.767 15.337 C 15.191 15.461,14.591 15.809,14.144 16.278 L 13.909 16.526 13.744 16.409 C 13.654 16.345,12.652 15.642,11.517 14.849 L 9.454 13.405 9.567 13.067 C 9.789 12.401,9.789 11.599,9.567 10.933 L 9.454 10.595 11.517 9.151 C 12.652 8.358,13.654 7.655,13.744 7.591 L 13.909 7.474 14.144 7.722 C 14.591 8.191,15.191 8.539,15.767 8.663 C 16.146 8.745,16.854 8.745,17.233 8.663 C 18.387 8.414,19.414 7.387,19.663 6.233 C 19.745 5.854,19.745 5.146,19.663 4.767 C 19.503 4.026,18.974 3.259,18.307 2.804 C 17.707 2.394,16.896 2.198,16.140 2.282 M17.247 3.930 C 17.618 4.113,17.915 4.415,18.092 4.790 C 18.212 5.043,18.220 5.088,18.220 5.500 C 18.220 5.912,18.212 5.957,18.092 6.210 C 17.914 6.586,17.618 6.887,17.245 7.071 C 16.952 7.216,16.932 7.220,16.500 7.220 C 16.068 7.220,16.048 7.216,15.755 7.071 C 15.382 6.887,15.086 6.586,14.908 6.210 C 14.788 5.957,14.780 5.912,14.780 5.500 C 14.780 5.088,14.788 5.043,14.907 4.791 C 15.123 4.335,15.494 4.003,15.979 3.830 C 16.132 3.775,16.272 3.761,16.564 3.770 C 16.914 3.781,16.976 3.796,17.247 3.930 M6.773 10.279 C 7.256 10.358,7.683 10.634,7.957 11.045 C 8.154 11.340,8.240 11.630,8.240 12.000 C 8.240 12.370,8.154 12.660,7.957 12.955 C 7.257 14.003,5.743 14.003,5.043 12.955 C 4.694 12.432,4.661 11.747,4.957 11.165 C 5.087 10.911,5.456 10.567,5.744 10.432 C 6.113 10.260,6.397 10.217,6.773 10.279 M17.247 16.930 C 17.618 17.113,17.915 17.415,18.092 17.790 C 18.212 18.043,18.220 18.088,18.220 18.500 C 18.220 18.912,18.212 18.957,18.092 19.210 C 17.914 19.586,17.618 19.887,17.245 20.071 C 16.952 20.216,16.932 20.220,16.500 20.220 C 16.068 20.220,16.048 20.216,15.755 20.071 C 15.382 19.887,15.086 19.586,14.908 19.210 C 14.788 18.957,14.780 18.912,14.780 18.500 C 14.780 18.088,14.788 18.043,14.907 17.791 C 15.123 17.335,15.494 17.003,15.979 16.830 C 16.132 16.775,16.272 16.761,16.564 16.770 C 16.914 16.781,16.976 16.796,17.247 16.930 " stroke="none" fill-rule="evenodd" fill="black"></path></svg>