<svg width="24" height="24" viewBox="0 0 24 24" fill="none" xmlns="http://www.w3.org/2000/svg"><path d="M11.740 2.266 C 10.415 2.385,9.327 3.085,8.719 4.212 C 8.400 4.803,8.271 5.320,8.271 6.000 C 8.271 6.682,8.400 7.197,8.721 7.792 C 9.078 8.453,9.549 8.923,10.212 9.281 C 10.803 9.600,11.320 9.729,12.000 9.729 C 12.680 9.729,13.197 9.600,13.788 9.281 C 14.451 8.923,14.922 8.453,15.279 7.792 C 15.600 7.197,15.729 6.682,15.729 6.000 C 15.729 5.320,15.600 4.803,15.281 4.212 C 14.832 3.381,14.122 2.779,13.215 2.463 C 12.793 2.316,12.149 2.230,11.740 2.266 M12.578 3.821 C 12.949 3.918,13.274 4.112,13.581 4.419 C 14.041 4.879,14.240 5.356,14.240 6.000 C 14.240 6.644,14.041 7.121,13.581 7.581 C 13.121 8.041,12.644 8.240,12.000 8.240 C 11.356 8.240,10.879 8.041,10.419 7.581 C 9.959 7.121,9.760 6.644,9.760 6.000 C 9.760 5.356,9.959 4.879,10.419 4.419 C 10.719 4.118,11.050 3.919,11.404 3.823 C 11.692 3.746,12.285 3.745,12.578 3.821 M6.531 6.278 C 6.460 6.295,6.361 6.336,6.311 6.369 C 6.113 6.500,5.633 6.979,5.315 7.363 C 4.022 8.926,3.310 10.799,3.270 12.740 C 3.261 13.182,3.267 13.232,3.353 13.369 C 3.591 13.753,4.108 13.851,4.464 13.580 C 4.673 13.420,4.725 13.252,4.763 12.618 C 4.823 11.592,5.033 10.784,5.481 9.849 C 5.870 9.037,6.431 8.264,7.012 7.739 C 7.346 7.438,7.440 7.276,7.440 7.004 C 7.440 6.517,6.996 6.163,6.531 6.278 M17.120 6.276 C 16.753 6.391,16.560 6.643,16.560 7.004 C 16.560 7.275,16.654 7.438,16.984 7.735 C 17.557 8.253,18.121 9.026,18.504 9.820 C 18.972 10.790,19.179 11.587,19.238 12.645 C 19.266 13.147,19.284 13.257,19.358 13.377 C 19.612 13.787,20.182 13.858,20.520 13.520 C 20.729 13.311,20.764 13.121,20.718 12.440 C 20.589 10.516,19.918 8.847,18.669 7.345 C 18.331 6.938,17.803 6.427,17.627 6.335 C 17.503 6.270,17.238 6.240,17.120 6.276 M5.120 14.281 C 3.595 14.424,2.289 15.541,1.873 17.060 C 1.747 17.522,1.747 18.478,1.873 18.940 C 2.226 20.227,3.239 21.260,4.480 21.597 C 6.264 22.082,8.086 21.254,8.878 19.597 C 9.148 19.031,9.214 18.718,9.214 18.000 C 9.214 17.282,9.148 16.969,8.878 16.403 C 8.190 14.963,6.717 14.132,5.120 14.281 M18.120 14.281 C 16.595 14.424,15.289 15.541,14.873 17.060 C 14.747 17.522,14.747 18.478,14.873 18.940 C 15.226 20.227,16.239 21.260,17.480 21.597 C 19.517 22.151,21.569 20.977,22.127 18.940 C 22.253 18.478,22.253 17.522,22.127 17.060 C 21.635 15.264,19.969 14.109,18.120 14.281 M6.188 15.859 C 7.227 16.189,7.880 17.237,7.726 18.327 C 7.614 19.119,7.024 19.844,6.260 20.126 C 6.058 20.201,5.938 20.215,5.500 20.215 C 4.915 20.215,4.673 20.153,4.299 19.904 C 2.899 18.976,2.902 17.023,4.305 16.092 C 4.809 15.757,5.569 15.663,6.188 15.859 M19.188 15.859 C 20.227 16.189,20.880 17.237,20.726 18.327 C 20.614 19.119,20.024 19.844,19.260 20.126 C 19.058 20.201,18.938 20.215,18.500 20.215 C 17.915 20.215,17.673 20.153,17.299 19.904 C 15.900 18.977,15.903 17.022,17.305 16.092 C 17.809 15.757,18.569 15.663,19.188 15.859 M9.720 20.064 C 9.426 20.191,9.270 20.423,9.266 20.741 C 9.262 21.020,9.416 21.283,9.649 21.393 C 9.856 21.491,10.437 21.617,10.980 21.682 C 12.073 21.811,13.776 21.666,14.351 21.393 C 14.800 21.180,14.871 20.516,14.480 20.186 C 14.238 19.983,14.100 19.972,13.467 20.103 C 12.934 20.213,12.846 20.220,11.980 20.218 C 11.133 20.217,11.020 20.208,10.560 20.108 C 9.989 19.984,9.913 19.980,9.720 20.064 " stroke="none" fill-rule="evenodd" fill="black"></path></svg>