<svg width="24" height="24" viewBox="0 0 24 24" fill="none" xmlns="http://www.w3.org/2000/svg"><path d="M11.740 1.266 C 11.004 1.328,10.485 1.466,8.600 2.102 C 5.832 3.035,4.538 3.512,3.860 3.850 C 2.915 4.320,2.613 4.676,2.440 5.521 C 2.302 6.194,2.271 6.993,2.265 9.980 C 2.261 12.561,2.268 12.914,2.333 13.380 C 2.610 15.367,3.308 16.999,4.533 18.520 C 5.107 19.232,6.191 20.215,7.054 20.807 C 8.156 21.563,9.805 22.381,10.674 22.603 C 11.366 22.781,12.635 22.781,13.326 22.603 C 14.196 22.380,15.845 21.562,16.946 20.807 C 17.809 20.215,18.893 19.232,19.467 18.520 C 20.692 16.999,21.390 15.367,21.667 13.380 C 21.732 12.915,21.739 12.562,21.735 10.020 C 21.732 8.292,21.712 6.928,21.683 6.535 C 21.584 5.173,21.378 4.644,20.786 4.224 C 20.495 4.017,19.889 3.710,19.360 3.501 C 18.240 3.058,14.199 1.674,13.460 1.481 C 12.821 1.314,12.155 1.230,11.740 1.266 M13.060 2.914 C 14.171 3.221,18.309 4.666,19.236 5.072 C 20.014 5.412,20.073 5.481,20.163 6.150 C 20.230 6.651,20.262 12.478,20.201 13.018 C 20.017 14.640,19.469 16.034,18.513 17.309 C 18.170 17.767,17.285 18.668,16.800 19.054 C 16.058 19.645,15.246 20.149,14.320 20.595 C 13.153 21.157,12.863 21.238,12.017 21.239 C 11.337 21.240,11.101 21.200,10.580 20.997 C 9.578 20.606,8.410 19.963,7.580 19.344 C 5.331 17.667,4.091 15.592,3.799 13.017 C 3.736 12.464,3.770 6.601,3.838 6.126 C 3.932 5.478,3.992 5.410,4.764 5.072 C 6.041 4.513,10.596 2.963,11.480 2.786 C 11.535 2.775,11.814 2.772,12.100 2.780 C 12.528 2.791,12.698 2.815,13.060 2.914 M11.716 8.083 C 11.592 8.101,11.394 8.162,11.276 8.219 C 10.947 8.376,7.438 11.031,7.345 11.193 C 7.162 11.513,7.292 11.990,7.613 12.178 C 7.814 12.296,8.135 12.316,8.312 12.223 C 8.371 12.192,9.202 11.580,10.157 10.863 C 11.423 9.913,11.922 9.560,12.000 9.560 C 12.078 9.560,12.577 9.913,13.843 10.863 C 14.798 11.580,15.629 12.192,15.688 12.223 C 15.865 12.316,16.186 12.296,16.387 12.178 C 16.708 11.990,16.838 11.513,16.655 11.193 C 16.563 11.032,13.054 8.377,12.728 8.220 C 12.559 8.140,12.058 8.026,11.960 8.046 C 11.949 8.048,11.839 8.065,11.716 8.083 M11.734 11.858 C 11.572 11.928,9.528 13.458,9.412 13.596 C 9.248 13.791,9.219 14.177,9.350 14.421 C 9.458 14.621,9.765 14.800,10.000 14.800 C 10.210 14.800,10.368 14.705,11.196 14.083 L 12.000 13.478 12.804 14.083 C 13.246 14.415,13.668 14.713,13.743 14.744 C 13.918 14.817,14.087 14.815,14.271 14.738 C 14.575 14.611,14.731 14.378,14.731 14.054 C 14.731 13.690,14.657 13.612,13.465 12.718 C 12.874 12.275,12.330 11.887,12.256 11.856 C 12.089 11.786,11.898 11.787,11.734 11.858 " stroke="none" fill-rule="evenodd" fill="black"></path></svg>