<svg width="24" height="24" viewBox="0 0 24 24" fill="none" xmlns="http://www.w3.org/2000/svg"><path d="M11.740 1.266 C 11.004 1.328,10.485 1.466,8.600 2.102 C 5.832 3.035,4.538 3.512,3.860 3.850 C 2.915 4.320,2.613 4.676,2.440 5.521 C 2.302 6.194,2.271 6.993,2.265 9.980 C 2.261 12.561,2.268 12.914,2.333 13.380 C 2.610 15.367,3.308 16.999,4.533 18.520 C 5.107 19.232,6.191 20.215,7.054 20.807 C 8.156 21.563,9.805 22.381,10.674 22.603 C 11.366 22.781,12.635 22.781,13.326 22.603 C 14.196 22.380,15.845 21.562,16.946 20.807 C 17.809 20.215,18.893 19.232,19.467 18.520 C 20.692 16.999,21.390 15.367,21.667 13.380 C 21.732 12.915,21.739 12.562,21.735 10.020 C 21.732 8.292,21.712 6.928,21.683 6.535 C 21.584 5.173,21.378 4.644,20.786 4.224 C 20.495 4.017,19.889 3.710,19.360 3.501 C 18.240 3.058,14.199 1.674,13.460 1.481 C 12.821 1.314,12.155 1.230,11.740 1.266 M13.060 2.914 C 14.171 3.221,18.309 4.666,19.236 5.072 C 20.014 5.412,20.073 5.481,20.163 6.150 C 20.230 6.651,20.262 12.478,20.201 13.018 C 20.017 14.640,19.469 16.034,18.513 17.309 C 18.170 17.767,17.285 18.668,16.800 19.054 C 16.058 19.645,15.246 20.149,14.320 20.595 C 13.153 21.157,12.863 21.238,12.017 21.239 C 11.337 21.240,11.101 21.200,10.580 20.997 C 9.578 20.606,8.410 19.963,7.580 19.344 C 5.331 17.667,4.091 15.592,3.799 13.017 C 3.736 12.464,3.770 6.601,3.838 6.126 C 3.932 5.478,3.992 5.410,4.764 5.072 C 6.041 4.513,10.596 2.963,11.480 2.786 C 11.535 2.775,11.814 2.772,12.100 2.780 C 12.528 2.791,12.698 2.815,13.060 2.914 M11.774 6.281 C 11.219 6.392,10.847 6.820,10.083 8.221 L 9.951 8.463 9.154 8.655 C 7.966 8.941,7.612 9.143,7.368 9.674 C 7.294 9.836,7.268 9.961,7.268 10.156 C 7.267 10.648,7.447 10.984,8.177 11.860 C 8.399 12.126,8.605 12.374,8.635 12.412 C 8.682 12.470,8.679 12.614,8.618 13.375 C 8.559 14.116,8.555 14.321,8.594 14.565 C 8.715 15.310,9.173 15.732,9.854 15.727 C 10.221 15.725,10.423 15.666,11.133 15.355 C 11.489 15.200,11.830 15.052,11.890 15.028 C 12.016 14.976,11.943 14.952,12.867 15.355 C 13.577 15.666,13.779 15.725,14.146 15.727 C 14.827 15.732,15.285 15.310,15.406 14.565 C 15.445 14.321,15.441 14.116,15.382 13.375 C 15.321 12.614,15.318 12.470,15.365 12.412 C 15.395 12.374,15.601 12.126,15.823 11.860 C 16.556 10.981,16.733 10.648,16.732 10.151 C 16.732 9.929,16.709 9.835,16.604 9.622 C 16.363 9.133,15.997 8.932,14.838 8.652 L 14.052 8.463 13.860 8.122 C 13.412 7.324,13.139 6.902,12.939 6.697 C 12.606 6.356,12.172 6.201,11.774 6.281 M12.431 8.630 C 12.653 9.021,12.897 9.413,12.973 9.501 C 13.175 9.737,13.455 9.854,14.304 10.058 C 14.720 10.159,15.084 10.250,15.113 10.260 C 15.181 10.285,15.128 10.359,14.540 11.063 C 14.287 11.366,14.026 11.721,13.960 11.853 C 13.850 12.073,13.840 12.127,13.840 12.505 C 13.840 12.731,13.857 13.093,13.878 13.308 C 13.958 14.131,13.958 14.160,13.897 14.160 C 13.865 14.160,13.511 14.012,13.109 13.830 L 12.380 13.500 12.000 13.500 L 11.620 13.500 10.891 13.830 C 10.489 14.012,10.135 14.160,10.103 14.160 C 10.042 14.160,10.042 14.131,10.122 13.308 C 10.143 13.093,10.160 12.731,10.160 12.505 C 10.160 12.128,10.150 12.072,10.041 11.855 C 9.976 11.724,9.677 11.323,9.378 10.964 C 9.079 10.604,8.849 10.296,8.867 10.279 C 8.885 10.263,9.249 10.165,9.676 10.063 C 10.543 9.855,10.824 9.738,11.027 9.501 C 11.103 9.413,11.347 9.021,11.569 8.630 C 11.791 8.240,11.985 7.920,12.000 7.920 C 12.015 7.920,12.209 8.240,12.431 8.630 " stroke="none" fill-rule="evenodd" fill="black"></path></svg>