<svg width="24" height="24" viewBox="0 0 24 24" fill="none" xmlns="http://www.w3.org/2000/svg"><path d="M11.740 1.266 C 11.004 1.328,10.485 1.466,8.600 2.102 C 5.832 3.035,4.538 3.512,3.860 3.850 C 2.915 4.320,2.613 4.676,2.440 5.521 C 2.302 6.194,2.271 6.993,2.265 9.980 C 2.261 12.561,2.268 12.914,2.333 13.380 C 2.610 15.367,3.308 16.999,4.533 18.520 C 5.107 19.232,6.191 20.215,7.054 20.807 C 8.156 21.563,9.805 22.381,10.674 22.603 C 11.366 22.781,12.635 22.781,13.326 22.603 C 14.196 22.380,15.845 21.562,16.946 20.807 C 17.809 20.215,18.893 19.232,19.467 18.520 C 20.692 16.999,21.390 15.367,21.667 13.380 C 21.732 12.915,21.739 12.562,21.735 10.020 C 21.732 8.292,21.712 6.928,21.683 6.535 C 21.584 5.173,21.378 4.644,20.786 4.224 C 20.495 4.017,19.889 3.710,19.360 3.501 C 18.240 3.058,14.199 1.674,13.460 1.481 C 12.821 1.314,12.155 1.230,11.740 1.266 M13.060 2.914 C 14.171 3.221,18.309 4.666,19.236 5.072 C 20.014 5.412,20.073 5.481,20.163 6.150 C 20.230 6.651,20.262 12.478,20.201 13.018 C 20.017 14.640,19.469 16.034,18.513 17.309 C 18.170 17.767,17.285 18.668,16.800 19.054 C 16.058 19.645,15.246 20.149,14.320 20.595 C 13.153 21.157,12.863 21.238,12.017 21.239 C 11.337 21.240,11.101 21.200,10.580 20.997 C 9.578 20.606,8.410 19.963,7.580 19.344 C 5.331 17.667,4.091 15.592,3.799 13.017 C 3.736 12.464,3.770 6.601,3.838 6.126 C 3.932 5.478,3.992 5.410,4.764 5.072 C 6.041 4.513,10.596 2.963,11.480 2.786 C 11.535 2.775,11.814 2.772,12.100 2.780 C 12.528 2.791,12.698 2.815,13.060 2.914 M11.460 6.284 C 9.202 6.520,7.306 8.005,6.584 10.104 C 5.984 11.847,6.225 13.683,7.257 15.235 C 8.036 16.408,9.416 17.334,10.800 17.615 C 11.632 17.784,12.368 17.784,13.200 17.615 C 14.100 17.432,15.076 16.942,15.787 16.313 C 17.548 14.759,18.184 12.335,17.416 10.104 C 16.928 8.683,15.875 7.506,14.500 6.841 C 13.815 6.510,13.286 6.364,12.486 6.282 C 12.026 6.235,11.924 6.236,11.460 6.284 M12.245 7.930 C 12.711 8.439,13.076 9.605,13.216 11.030 L 13.236 11.240 11.998 11.240 L 10.759 11.240 10.783 11.010 C 10.931 9.583,11.298 8.421,11.757 7.923 C 11.952 7.712,12.047 7.713,12.245 7.930 M9.713 8.707 C 9.554 9.200,9.411 9.922,9.333 10.630 L 9.265 11.240 8.537 11.240 L 7.808 11.240 7.880 10.970 C 8.081 10.212,8.433 9.582,8.952 9.051 C 9.193 8.805,9.738 8.362,9.803 8.361 C 9.815 8.360,9.775 8.516,9.713 8.707 M14.470 8.546 C 15.272 9.118,15.856 9.976,16.120 10.970 L 16.192 11.240 15.461 11.240 L 14.729 11.240 14.702 10.930 C 14.633 10.147,14.458 9.226,14.269 8.650 C 14.217 8.490,14.182 8.360,14.192 8.360 C 14.202 8.360,14.327 8.444,14.470 8.546 M9.333 13.370 C 9.411 14.078,9.554 14.800,9.713 15.293 C 9.775 15.484,9.818 15.640,9.808 15.640 C 9.745 15.640,9.221 15.220,8.976 14.972 C 8.441 14.432,8.085 13.800,7.880 13.030 L 7.808 12.760 8.537 12.760 L 9.265 12.760 9.333 13.370 M13.216 12.970 C 13.076 14.396,12.707 15.574,12.244 16.076 C 12.049 16.287,11.951 16.287,11.757 16.077 C 11.298 15.579,10.931 14.417,10.783 12.990 L 10.759 12.760 11.998 12.760 L 13.236 12.760 13.216 12.970 M16.120 13.030 C 15.915 13.800,15.559 14.432,15.024 14.972 C 14.779 15.220,14.255 15.640,14.192 15.640 C 14.182 15.640,14.217 15.510,14.269 15.350 C 14.458 14.774,14.633 13.853,14.702 13.070 L 14.729 12.760 15.461 12.760 L 16.192 12.760 16.120 13.030 " stroke="none" fill-rule="evenodd" fill="black"></path></svg>