<svg width="24" height="24" viewBox="0 0 24 24" fill="none" xmlns="http://www.w3.org/2000/svg"><path d="M11.740 1.266 C 11.004 1.328,10.485 1.466,8.600 2.102 C 5.832 3.035,4.538 3.512,3.860 3.850 C 2.915 4.320,2.613 4.676,2.440 5.521 C 2.302 6.194,2.271 6.993,2.265 9.980 C 2.261 12.561,2.268 12.914,2.333 13.380 C 2.610 15.367,3.308 16.999,4.533 18.520 C 5.107 19.232,6.191 20.215,7.054 20.807 C 8.156 21.563,9.805 22.381,10.674 22.603 C 11.366 22.781,12.635 22.781,13.326 22.603 C 14.196 22.380,15.845 21.562,16.946 20.807 C 17.809 20.215,18.893 19.232,19.467 18.520 C 20.692 16.999,21.390 15.367,21.667 13.380 C 21.732 12.915,21.739 12.562,21.735 10.020 C 21.732 8.292,21.712 6.928,21.683 6.535 C 21.584 5.173,21.378 4.644,20.786 4.224 C 20.495 4.017,19.889 3.710,19.360 3.501 C 18.240 3.058,14.199 1.674,13.460 1.481 C 12.821 1.314,12.155 1.230,11.740 1.266 M11.240 5.150 L 11.240 7.460 7.495 8.708 L 3.750 9.957 3.771 8.228 C 3.791 6.555,3.829 5.963,3.937 5.646 C 4.049 5.313,4.708 5.023,7.720 3.982 C 9.785 3.268,11.012 2.868,11.210 2.844 C 11.227 2.842,11.240 3.880,11.240 5.150 M13.140 2.937 C 13.410 3.006,15.237 3.616,16.720 4.132 C 19.289 5.026,19.956 5.328,20.065 5.649 C 20.169 5.957,20.209 6.587,20.229 8.248 L 20.249 9.956 16.505 8.708 L 12.760 7.460 12.760 5.147 C 12.760 2.964,12.764 2.836,12.830 2.855 C 12.868 2.867,13.008 2.903,13.140 2.937 M11.240 15.123 L 11.240 21.206 11.110 21.179 C 10.881 21.131,10.197 20.850,9.601 20.558 C 5.835 18.717,3.760 15.722,3.760 12.128 L 3.760 11.540 7.490 10.293 C 9.541 9.607,11.225 9.045,11.230 9.043 C 11.236 9.041,11.240 11.777,11.240 15.123 M20.240 12.128 C 20.240 14.031,19.655 15.786,18.513 17.309 C 18.170 17.767,17.285 18.668,16.800 19.054 C 16.399 19.374,15.670 19.870,15.219 20.131 C 14.555 20.516,13.252 21.102,12.890 21.179 L 12.760 21.206 12.760 15.127 L 12.760 9.047 16.500 10.293 L 20.240 11.540 20.240 12.128 " stroke="none" fill-rule="evenodd" fill="black"></path></svg>