<svg width="24" height="24" viewBox="0 0 24 24" fill="none" xmlns="http://www.w3.org/2000/svg"><path d="M11.740 1.266 C 11.004 1.328,10.485 1.466,8.600 2.102 C 5.832 3.035,4.538 3.512,3.860 3.850 C 2.915 4.320,2.613 4.676,2.440 5.521 C 2.302 6.194,2.271 6.993,2.265 9.980 C 2.261 12.561,2.268 12.914,2.333 13.380 C 2.610 15.367,3.308 16.999,4.533 18.520 C 5.107 19.232,6.191 20.215,7.054 20.807 C 8.156 21.563,9.805 22.381,10.674 22.603 C 11.366 22.781,12.635 22.781,13.326 22.603 C 14.196 22.380,15.845 21.562,16.946 20.807 C 17.809 20.215,18.893 19.232,19.467 18.520 C 20.692 16.999,21.390 15.367,21.667 13.380 C 21.732 12.915,21.739 12.562,21.735 10.020 C 21.732 8.292,21.712 6.928,21.683 6.535 C 21.584 5.173,21.378 4.644,20.786 4.224 C 20.495 4.017,19.889 3.710,19.360 3.501 C 18.240 3.058,14.199 1.674,13.460 1.481 C 12.821 1.314,12.155 1.230,11.740 1.266 M13.060 2.914 C 14.171 3.221,18.309 4.666,19.236 5.072 C 20.014 5.412,20.073 5.481,20.163 6.150 C 20.230 6.651,20.262 12.478,20.201 13.018 C 20.017 14.640,19.469 16.034,18.513 17.309 C 18.170 17.767,17.285 18.668,16.800 19.054 C 16.058 19.645,15.246 20.149,14.320 20.595 C 13.153 21.157,12.863 21.238,12.017 21.239 C 11.337 21.240,11.101 21.200,10.580 20.997 C 9.578 20.606,8.410 19.963,7.580 19.344 C 5.331 17.667,4.091 15.592,3.799 13.017 C 3.736 12.464,3.770 6.601,3.838 6.126 C 3.932 5.478,3.992 5.410,4.764 5.072 C 6.041 4.513,10.596 2.963,11.480 2.786 C 11.535 2.775,11.814 2.772,12.100 2.780 C 12.528 2.791,12.698 2.815,13.060 2.914 M11.660 6.278 C 10.776 6.385,10.027 6.901,9.568 7.720 C 9.168 8.434,9.168 9.566,9.568 10.280 C 10.094 11.219,10.953 11.731,12.000 11.731 C 13.047 11.731,13.906 11.219,14.432 10.280 C 14.832 9.566,14.832 8.433,14.432 7.720 C 14.158 7.232,13.764 6.838,13.280 6.567 C 12.867 6.337,12.186 6.215,11.660 6.278 M12.454 7.841 C 12.744 7.950,13.050 8.256,13.159 8.546 C 13.331 9.006,13.227 9.518,12.893 9.857 C 12.594 10.159,12.446 10.220,12.000 10.220 C 11.560 10.220,11.410 10.161,11.125 9.875 C 10.876 9.627,10.790 9.433,10.769 9.080 C 10.746 8.675,10.847 8.404,11.126 8.126 C 11.479 7.773,11.983 7.665,12.454 7.841 M11.380 12.279 C 9.648 12.393,8.219 13.022,7.602 13.944 C 7.329 14.353,7.265 14.590,7.269 15.183 C 7.273 15.924,7.420 16.371,7.787 16.764 C 8.355 17.371,9.255 17.629,11.130 17.722 C 12.086 17.770,13.420 17.725,14.140 17.621 C 15.653 17.403,16.416 16.887,16.665 15.911 C 16.705 15.756,16.729 15.485,16.731 15.182 C 16.733 14.587,16.669 14.350,16.395 13.940 C 15.634 12.802,13.613 12.133,11.380 12.279 M13.373 13.878 C 14.228 14.063,15.005 14.462,15.184 14.809 C 15.232 14.900,15.244 15.020,15.234 15.290 C 15.220 15.649,15.220 15.649,15.070 15.779 C 14.889 15.935,14.532 16.054,13.960 16.148 C 13.346 16.250,10.654 16.250,10.040 16.148 C 9.468 16.054,9.111 15.935,8.930 15.779 C 8.780 15.649,8.780 15.649,8.766 15.290 C 8.750 14.868,8.792 14.757,9.049 14.547 C 9.485 14.190,10.216 13.929,11.180 13.785 C 11.246 13.775,11.678 13.773,12.140 13.780 C 12.812 13.790,13.059 13.810,13.373 13.878 " stroke="none" fill-rule="evenodd" fill="black"></path></svg>