<svg width="24" height="24" viewBox="0 0 24 24" fill="none" xmlns="http://www.w3.org/2000/svg"><path d="M11.740 1.266 C 11.004 1.328,10.485 1.466,8.600 2.102 C 5.832 3.035,4.538 3.512,3.860 3.850 C 2.915 4.320,2.613 4.676,2.440 5.521 C 2.302 6.194,2.271 6.993,2.265 9.980 C 2.261 12.561,2.268 12.914,2.333 13.380 C 2.610 15.367,3.308 16.999,4.533 18.520 C 5.107 19.232,6.191 20.215,7.054 20.807 C 8.156 21.563,9.805 22.381,10.674 22.603 C 11.366 22.781,12.635 22.781,13.326 22.603 C 14.196 22.380,15.845 21.562,16.946 20.807 C 17.809 20.215,18.893 19.232,19.467 18.520 C 20.692 16.999,21.390 15.367,21.667 13.380 C 21.732 12.915,21.739 12.562,21.735 10.020 C 21.732 8.292,21.712 6.928,21.683 6.535 C 21.584 5.173,21.378 4.644,20.786 4.224 C 20.495 4.017,19.889 3.710,19.360 3.501 C 18.240 3.058,14.199 1.674,13.460 1.481 C 12.821 1.314,12.155 1.230,11.740 1.266 M13.060 2.914 C 14.171 3.221,18.309 4.666,19.236 5.072 C 20.014 5.412,20.073 5.481,20.163 6.150 C 20.230 6.651,20.262 12.478,20.201 13.018 C 20.017 14.640,19.469 16.034,18.513 17.309 C 18.170 17.767,17.285 18.668,16.800 19.054 C 16.058 19.645,15.246 20.149,14.320 20.595 C 13.153 21.157,12.863 21.238,12.017 21.239 C 11.337 21.240,11.101 21.200,10.580 20.997 C 9.578 20.606,8.410 19.963,7.580 19.344 C 5.331 17.667,4.091 15.592,3.799 13.017 C 3.736 12.464,3.770 6.601,3.838 6.126 C 3.932 5.478,3.992 5.410,4.764 5.072 C 6.041 4.513,10.596 2.963,11.480 2.786 C 11.535 2.775,11.814 2.772,12.100 2.780 C 12.528 2.791,12.698 2.815,13.060 2.914 M9.180 8.835 C 8.990 8.923,8.904 9.012,8.822 9.210 C 8.743 9.397,8.743 9.602,8.821 9.791 C 8.862 9.889,9.234 10.292,9.911 10.970 L 10.939 12.000 9.911 13.030 C 8.850 14.093,8.759 14.210,8.761 14.509 C 8.762 14.682,8.873 14.948,8.986 15.048 C 9.102 15.151,9.340 15.240,9.500 15.240 C 9.790 15.240,9.914 15.143,10.970 14.089 L 12.000 13.061 13.030 14.089 C 14.093 15.150,14.210 15.241,14.509 15.239 C 14.682 15.238,14.948 15.127,15.048 15.014 C 15.151 14.898,15.240 14.660,15.240 14.500 C 15.240 14.210,15.143 14.086,14.089 13.030 L 13.061 12.000 14.089 10.970 C 15.143 9.914,15.240 9.790,15.240 9.500 C 15.240 9.340,15.151 9.102,15.048 8.986 C 14.948 8.873,14.682 8.762,14.509 8.761 C 14.210 8.759,14.093 8.850,13.030 9.911 L 12.000 10.939 10.970 9.911 C 10.292 9.234,9.889 8.862,9.791 8.821 C 9.595 8.740,9.376 8.745,9.180 8.835 " stroke="none" fill-rule="evenodd" fill="black"></path></svg>