<svg width="24" height="24" viewBox="0 0 24 24" fill="none" xmlns="http://www.w3.org/2000/svg"><path d="M11.740 1.266 C 11.004 1.328,10.485 1.466,8.600 2.102 C 5.832 3.035,4.538 3.512,3.860 3.850 C 2.915 4.320,2.613 4.676,2.440 5.521 C 2.302 6.194,2.271 6.993,2.265 9.980 C 2.261 12.561,2.268 12.914,2.333 13.380 C 2.610 15.367,3.308 16.999,4.533 18.520 C 5.107 19.232,6.191 20.215,7.054 20.807 C 8.156 21.563,9.805 22.381,10.674 22.603 C 11.366 22.781,12.635 22.781,13.326 22.603 C 14.196 22.380,15.845 21.562,16.946 20.807 C 17.809 20.215,18.893 19.232,19.467 18.520 C 20.692 16.999,21.390 15.367,21.667 13.380 C 21.732 12.915,21.739 12.562,21.735 10.020 C 21.732 8.292,21.712 6.928,21.683 6.535 C 21.584 5.173,21.378 4.644,20.786 4.224 C 20.495 4.017,19.889 3.710,19.360 3.501 C 18.240 3.058,14.199 1.674,13.460 1.481 C 12.821 1.314,12.155 1.230,11.740 1.266 M13.060 2.914 C 14.171 3.221,18.309 4.666,19.236 5.072 C 20.014 5.412,20.073 5.481,20.163 6.150 C 20.230 6.651,20.262 12.478,20.201 13.018 C 20.017 14.640,19.469 16.034,18.513 17.309 C 18.170 17.767,17.285 18.668,16.800 19.054 C 16.058 19.645,15.246 20.149,14.320 20.595 C 13.153 21.157,12.863 21.238,12.017 21.239 C 11.337 21.240,11.101 21.200,10.580 20.997 C 9.578 20.606,8.410 19.963,7.580 19.344 C 5.331 17.667,4.091 15.592,3.799 13.017 C 3.736 12.464,3.770 6.601,3.838 6.126 C 3.932 5.478,3.992 5.410,4.764 5.072 C 6.041 4.513,10.596 2.963,11.480 2.786 C 11.535 2.775,11.814 2.772,12.100 2.780 C 12.528 2.791,12.698 2.815,13.060 2.914 M11.807 8.289 C 11.574 8.339,11.348 8.565,11.286 8.811 C 11.257 8.929,11.240 9.400,11.240 10.118 L 11.240 11.240 10.142 11.240 C 8.859 11.240,8.697 11.263,8.482 11.478 C 8.133 11.827,8.203 12.381,8.631 12.647 C 8.777 12.738,8.804 12.740,10.007 12.753 L 11.235 12.765 11.247 13.993 C 11.260 15.204,11.261 15.222,11.355 15.373 C 11.506 15.615,11.718 15.733,12.003 15.733 C 12.203 15.733,12.270 15.714,12.408 15.617 C 12.729 15.390,12.738 15.344,12.753 13.973 L 12.765 12.765 13.993 12.753 C 15.196 12.740,15.223 12.738,15.369 12.647 C 15.943 12.290,15.812 11.424,15.162 11.284 C 15.040 11.258,14.509 11.240,13.858 11.240 L 12.760 11.240 12.759 10.130 C 12.758 9.513,12.740 8.940,12.717 8.841 C 12.620 8.420,12.247 8.194,11.807 8.289 " stroke="none" fill-rule="evenodd" fill="black"></path></svg>