<svg width="24" height="24" viewBox="0 0 24 24" fill="none" xmlns="http://www.w3.org/2000/svg"><path d="M7.100 1.281 C 6.433 1.329,6.056 1.471,5.756 1.788 C 5.546 2.010,5.449 2.192,5.354 2.546 C 5.278 2.831,5.270 2.966,5.270 4.000 C 5.270 5.030,5.278 5.170,5.353 5.450 C 5.533 6.119,5.885 6.471,6.546 6.643 C 6.814 6.712,7.034 6.728,8.050 6.748 L 9.240 6.772 9.240 7.146 C 9.240 7.354,9.223 7.520,9.202 7.520 C 9.182 7.520,8.910 7.458,8.599 7.381 C 8.094 7.257,8.012 7.247,7.832 7.285 C 7.313 7.397,7.087 8.028,7.414 8.455 C 7.550 8.634,7.678 8.689,8.360 8.859 C 8.679 8.939,9.008 9.022,9.090 9.044 L 9.240 9.083 9.240 10.064 C 9.240 10.980,9.235 11.044,9.170 11.025 C 8.839 10.926,8.097 10.760,7.987 10.760 C 7.803 10.760,7.603 10.849,7.475 10.987 C 7.175 11.310,7.182 11.714,7.494 12.023 C 7.656 12.183,7.681 12.193,8.450 12.383 L 9.240 12.578 9.238 13.479 L 9.236 14.380 8.988 14.497 C 8.658 14.652,8.177 15.128,8.005 15.470 C 7.689 16.096,7.681 16.886,7.984 17.491 C 8.248 18.015,8.772 18.473,9.298 18.638 C 9.431 18.679,9.535 18.728,9.530 18.747 C 9.524 18.765,9.474 18.912,9.418 19.074 C 9.168 19.793,9.228 20.666,9.569 21.280 C 10.089 22.215,10.953 22.731,12.000 22.731 C 13.047 22.731,13.911 22.215,14.431 21.280 C 14.772 20.666,14.832 19.793,14.582 19.074 C 14.526 18.912,14.476 18.766,14.470 18.749 C 14.465 18.732,14.577 18.678,14.721 18.629 C 14.864 18.580,15.075 18.480,15.189 18.407 C 15.473 18.225,15.856 17.806,16.001 17.519 C 16.319 16.887,16.317 16.109,15.995 15.470 C 15.823 15.128,15.342 14.652,15.012 14.497 L 14.764 14.380 14.762 14.167 C 14.760 13.983,14.769 13.957,14.830 13.975 C 15.161 14.074,15.903 14.240,16.013 14.240 C 16.197 14.240,16.397 14.151,16.525 14.013 C 16.825 13.690,16.818 13.286,16.506 12.977 C 16.344 12.817,16.319 12.807,15.550 12.617 L 14.760 12.422 14.760 11.451 C 14.760 10.869,14.775 10.480,14.798 10.480 C 14.818 10.480,15.093 10.543,15.408 10.621 C 15.927 10.749,15.998 10.758,16.175 10.716 C 16.690 10.594,16.910 9.969,16.586 9.545 C 16.450 9.366,16.322 9.311,15.640 9.141 C 15.321 9.061,14.992 8.978,14.910 8.956 L 14.760 8.917 14.760 7.845 L 14.760 6.772 15.950 6.748 C 16.966 6.728,17.186 6.712,17.454 6.643 C 18.115 6.471,18.467 6.119,18.646 5.450 C 18.721 5.171,18.729 5.028,18.729 4.000 C 18.729 2.972,18.721 2.829,18.646 2.550 C 18.468 1.884,18.123 1.537,17.454 1.352 L 17.140 1.264 12.340 1.257 C 9.700 1.253,7.342 1.264,7.100 1.281 M17.168 2.832 C 17.244 2.908,17.244 5.092,17.168 5.168 C 17.091 5.245,6.909 5.245,6.832 5.168 C 6.766 5.103,6.734 3.073,6.796 2.910 C 6.819 2.851,6.875 2.798,6.928 2.788 C 6.979 2.778,9.292 2.772,12.068 2.775 C 16.152 2.779,17.126 2.790,17.168 2.832 M13.240 7.640 C 13.240 8.216,13.226 8.520,13.199 8.520 C 13.164 8.520,11.393 8.084,10.910 7.956 L 10.760 7.917 10.760 7.338 L 10.760 6.760 12.000 6.760 L 13.240 6.760 13.240 7.640 M4.140 7.260 C 4.118 7.267,4.051 7.284,3.991 7.297 C 3.844 7.329,3.601 7.548,3.534 7.708 C 3.465 7.875,3.465 8.128,3.535 8.291 C 3.604 8.451,4.503 9.340,4.654 9.398 C 5.082 9.560,5.591 9.268,5.662 8.818 C 5.713 8.495,5.633 8.346,5.147 7.858 C 4.901 7.611,4.646 7.383,4.580 7.350 C 4.454 7.288,4.208 7.237,4.140 7.260 M19.609 7.279 C 19.410 7.326,19.195 7.494,18.781 7.925 C 18.370 8.353,18.290 8.515,18.338 8.818 C 18.409 9.268,18.918 9.560,19.346 9.398 C 19.497 9.340,20.396 8.451,20.465 8.291 C 20.531 8.138,20.536 7.888,20.477 7.733 C 20.354 7.407,19.954 7.198,19.609 7.279 M11.891 9.742 C 12.468 9.886,13.008 10.022,13.090 10.044 L 13.240 10.083 13.240 11.066 C 13.240 11.835,13.229 12.045,13.190 12.030 C 13.162 12.020,12.605 11.879,11.950 11.717 L 10.760 11.421 10.760 10.451 C 10.760 9.812,10.774 9.480,10.801 9.480 C 10.824 9.480,11.314 9.598,11.891 9.742 M1.720 10.805 C 1.458 10.909,1.269 11.200,1.269 11.500 C 1.269 11.807,1.460 12.095,1.733 12.197 C 1.803 12.224,2.281 12.240,3.000 12.240 C 3.719 12.240,4.197 12.224,4.267 12.197 C 4.540 12.095,4.731 11.807,4.731 11.500 C 4.731 11.193,4.540 10.905,4.267 10.803 C 4.122 10.748,1.859 10.750,1.720 10.805 M19.720 10.805 C 19.458 10.909,19.269 11.200,19.269 11.500 C 19.269 11.807,19.460 12.095,19.733 12.197 C 19.803 12.224,20.281 12.240,21.000 12.240 C 21.719 12.240,22.197 12.224,22.267 12.197 C 22.540 12.095,22.731 11.807,22.731 11.500 C 22.731 11.193,22.540 10.905,22.267 10.803 C 22.122 10.748,19.859 10.750,19.720 10.805 M12.050 13.283 L 13.240 13.579 13.240 13.909 L 13.240 14.240 12.000 14.240 L 10.760 14.240 10.760 13.596 C 10.760 13.097,10.771 12.956,10.810 12.970 C 10.838 12.980,11.396 13.121,12.050 13.283 M4.620 13.620 C 4.442 13.715,3.600 14.560,3.536 14.709 C 3.326 15.193,3.686 15.731,4.220 15.731 C 4.510 15.731,4.645 15.646,5.147 15.142 C 5.509 14.778,5.602 14.661,5.640 14.519 C 5.730 14.187,5.613 13.873,5.330 13.679 C 5.153 13.557,4.793 13.528,4.620 13.620 M18.780 13.616 C 18.600 13.694,18.404 13.916,18.356 14.095 C 18.255 14.469,18.382 14.708,18.991 15.287 C 19.377 15.655,19.513 15.731,19.780 15.731 C 20.200 15.731,20.520 15.415,20.520 15.000 C 20.520 14.915,20.501 14.795,20.478 14.734 C 20.422 14.588,19.545 13.701,19.378 13.622 C 19.220 13.547,18.943 13.544,18.780 13.616 M14.385 15.863 C 14.446 15.908,14.550 16.013,14.618 16.096 C 14.725 16.229,14.740 16.278,14.739 16.494 C 14.737 16.777,14.638 16.965,14.405 17.125 L 14.266 17.220 12.000 17.220 L 9.734 17.220 9.595 17.125 C 9.206 16.858,9.135 16.384,9.430 16.039 C 9.678 15.750,9.567 15.761,12.047 15.771 C 14.228 15.780,14.276 15.782,14.385 15.863 M12.454 18.841 C 12.744 18.950,13.050 19.256,13.159 19.546 C 13.331 20.006,13.227 20.518,12.893 20.857 C 12.594 21.159,12.446 21.220,12.000 21.220 C 11.565 21.220,11.394 21.154,11.120 20.880 C 10.883 20.643,10.790 20.429,10.769 20.080 C 10.746 19.675,10.847 19.404,11.126 19.126 C 11.479 18.773,11.983 18.665,12.454 18.841 " stroke="none" fill-rule="evenodd" fill="black"></path></svg>