<svg width="24" height="24" viewBox="0 0 24 24" fill="none" xmlns="http://www.w3.org/2000/svg"><path d="M6.320 1.280 C 4.530 1.373,3.973 1.984,2.659 5.300 C 1.465 8.313,1.389 8.548,1.390 9.258 C 1.391 9.479,1.412 9.749,1.438 9.859 C 1.589 10.505,2.104 11.115,2.782 11.452 C 3.176 11.648,3.544 11.731,4.020 11.731 C 4.696 11.730,5.194 11.552,5.750 11.111 L 6.000 10.913 6.250 11.111 C 6.812 11.557,7.304 11.731,8.000 11.731 C 8.696 11.731,9.188 11.557,9.750 11.111 L 10.000 10.913 10.250 11.111 C 10.812 11.557,11.304 11.731,12.000 11.731 C 12.696 11.731,13.188 11.557,13.750 11.111 L 14.000 10.913 14.250 11.111 C 14.812 11.557,15.304 11.731,16.000 11.731 C 16.696 11.731,17.188 11.557,17.750 11.111 L 18.000 10.913 18.250 11.111 C 18.806 11.552,19.304 11.730,19.980 11.731 C 20.456 11.731,20.823 11.648,21.220 11.452 C 21.891 11.118,22.415 10.497,22.561 9.859 C 22.628 9.570,22.618 8.948,22.543 8.590 C 22.441 8.112,22.342 7.836,21.520 5.757 C 20.552 3.307,20.121 2.465,19.569 1.955 C 19.076 1.499,18.594 1.335,17.580 1.279 C 16.808 1.237,7.146 1.238,6.320 1.280 M18.248 2.853 C 18.744 3.046,19.100 3.698,20.124 6.288 C 20.968 8.424,20.941 8.352,21.039 8.736 C 21.133 9.105,21.143 9.430,21.065 9.611 C 20.972 9.826,20.706 10.065,20.452 10.160 C 20.266 10.231,20.161 10.244,19.920 10.231 C 19.571 10.210,19.357 10.117,19.120 9.880 C 18.903 9.663,18.807 9.454,18.757 9.091 C 18.733 8.920,18.685 8.720,18.651 8.648 C 18.522 8.373,18.159 8.213,17.834 8.286 C 17.477 8.366,17.303 8.590,17.247 9.045 C 17.226 9.211,17.174 9.427,17.131 9.524 C 17.036 9.736,16.764 10.016,16.542 10.130 C 16.346 10.230,15.891 10.268,15.653 10.204 C 15.416 10.140,15.126 9.927,14.973 9.704 C 14.834 9.503,14.798 9.389,14.729 8.948 C 14.660 8.503,14.409 8.271,13.996 8.271 C 13.570 8.271,13.306 8.543,13.246 9.044 C 13.226 9.211,13.174 9.427,13.131 9.524 C 13.036 9.736,12.764 10.016,12.542 10.130 C 12.346 10.230,11.891 10.268,11.653 10.204 C 11.416 10.140,11.126 9.927,10.973 9.704 C 10.834 9.503,10.798 9.389,10.729 8.948 C 10.660 8.503,10.409 8.271,9.996 8.271 C 9.570 8.271,9.306 8.543,9.246 9.044 C 9.226 9.211,9.174 9.427,9.131 9.524 C 9.036 9.736,8.764 10.016,8.542 10.130 C 8.346 10.230,7.891 10.268,7.653 10.204 C 7.416 10.140,7.126 9.927,6.973 9.704 C 6.834 9.503,6.798 9.389,6.729 8.948 C 6.660 8.503,6.409 8.271,5.996 8.271 C 5.570 8.271,5.306 8.543,5.246 9.044 C 5.200 9.426,5.099 9.653,4.878 9.873 C 4.620 10.131,4.436 10.211,4.056 10.232 C 3.757 10.248,3.711 10.240,3.474 10.127 C 3.214 10.002,3.001 9.792,2.920 9.580 C 2.835 9.356,2.891 8.885,3.062 8.379 C 3.238 7.859,4.578 4.522,4.743 4.193 C 5.283 3.113,5.498 2.880,6.040 2.787 C 6.095 2.778,8.822 2.772,12.100 2.775 C 17.766 2.780,18.069 2.784,18.248 2.853 M4.826 14.286 C 4.625 14.331,4.468 14.445,4.353 14.631 L 4.260 14.780 4.249 18.006 L 4.238 21.232 3.529 21.246 C 2.716 21.262,2.590 21.300,2.383 21.592 C 2.286 21.730,2.267 21.797,2.267 21.993 C 2.267 22.279,2.372 22.474,2.612 22.633 L 2.774 22.740 11.997 22.740 L 21.220 22.740 21.369 22.647 C 21.943 22.290,21.812 21.424,21.162 21.284 C 21.049 21.260,20.687 21.240,20.358 21.240 L 19.760 21.240 19.760 18.142 C 19.760 16.031,19.746 14.978,19.716 14.838 C 19.576 14.188,18.710 14.057,18.353 14.631 L 18.260 14.780 18.249 18.010 L 18.238 21.240 11.999 21.240 L 5.760 21.240 5.759 18.130 C 5.758 16.138,5.743 14.956,5.717 14.841 C 5.622 14.428,5.243 14.192,4.826 14.286 " stroke="none" fill-rule="evenodd" fill="black"></path></svg>