<svg width="24" height="24" viewBox="0 0 24 24" fill="none" xmlns="http://www.w3.org/2000/svg"><path d="M6.240 1.281 C 5.675 1.317,5.224 1.435,4.779 1.662 C 3.852 2.135,3.216 2.886,2.903 3.877 C 2.845 4.062,2.606 5.151,2.373 6.297 C 1.957 8.338,1.948 8.391,1.949 8.920 C 1.949 9.752,2.125 10.370,2.543 11.005 L 2.752 11.322 2.772 14.371 C 2.793 17.678,2.819 18.165,3.023 19.140 C 3.355 20.723,4.247 21.785,5.656 22.278 C 6.087 22.428,6.825 22.579,7.420 22.639 C 8.952 22.793,15.048 22.793,16.580 22.639 C 19.368 22.360,20.683 21.174,21.078 18.580 C 21.188 17.861,21.210 17.250,21.228 14.360 L 21.248 11.300 21.377 11.120 C 21.851 10.459,22.051 9.808,22.052 8.920 C 22.052 8.390,22.044 8.340,21.626 6.292 C 21.189 4.153,21.080 3.718,20.871 3.300 C 20.521 2.602,19.909 1.999,19.185 1.644 C 18.714 1.412,18.350 1.324,17.680 1.280 C 17.011 1.236,6.937 1.237,6.240 1.281 M8.394 5.450 C 8.246 6.930,8.105 8.383,8.080 8.680 C 7.997 9.674,7.847 10.073,7.380 10.542 C 6.906 11.018,6.396 11.240,5.778 11.240 C 5.077 11.240,4.595 11.045,4.121 10.571 C 3.782 10.231,3.601 9.925,3.494 9.509 C 3.374 9.044,3.406 8.768,3.817 6.725 C 4.243 4.606,4.356 4.144,4.507 3.881 C 4.840 3.305,5.417 2.892,6.020 2.800 C 6.130 2.784,6.770 2.768,7.442 2.765 L 8.664 2.760 8.394 5.450 M14.107 5.640 C 14.416 8.693,14.442 9.128,14.338 9.480 C 14.094 10.300,13.384 10.993,12.596 11.179 C 12.455 11.212,12.187 11.239,12.000 11.239 C 11.316 11.239,10.779 11.018,10.301 10.539 C 9.848 10.086,9.595 9.519,9.594 8.950 C 9.593 8.690,10.145 2.932,10.182 2.810 C 10.195 2.770,10.580 2.761,12.008 2.770 L 13.819 2.780 14.107 5.640 M18.331 2.891 C 18.844 3.092,19.225 3.417,19.493 3.881 C 19.644 4.144,19.757 4.608,20.183 6.725 C 20.483 8.221,20.564 8.692,20.564 8.960 C 20.565 9.601,20.362 10.079,19.881 10.564 C 19.409 11.041,18.920 11.240,18.222 11.240 C 17.604 11.240,17.094 11.018,16.620 10.542 C 16.153 10.073,16.003 9.674,15.920 8.680 C 15.895 8.383,15.754 6.928,15.605 5.446 L 15.335 2.753 16.698 2.768 L 18.060 2.784 18.331 2.891 M9.072 11.425 C 9.319 11.723,9.825 12.111,10.237 12.318 C 11.338 12.872,12.662 12.872,13.763 12.318 C 14.175 12.111,14.681 11.723,14.928 11.425 C 15.040 11.290,15.142 11.176,15.156 11.172 C 15.169 11.167,15.248 11.252,15.331 11.359 C 15.737 11.886,16.540 12.416,17.208 12.599 C 17.977 12.810,18.903 12.771,19.610 12.498 L 19.760 12.441 19.760 14.210 C 19.759 17.695,19.651 18.771,19.212 19.680 C 18.817 20.499,18.117 20.918,16.841 21.100 C 16.360 21.168,15.320 21.245,15.272 21.215 C 15.254 21.204,15.239 20.364,15.239 19.348 C 15.237 17.423,15.217 17.081,15.082 16.695 C 14.835 15.994,14.167 15.446,13.400 15.316 C 12.992 15.247,11.006 15.247,10.600 15.316 C 9.829 15.447,9.166 15.990,8.920 16.691 C 8.781 17.085,8.762 17.412,8.761 19.328 C 8.760 20.355,8.746 21.204,8.728 21.215 C 8.680 21.245,7.640 21.168,7.159 21.100 C 5.354 20.843,4.626 20.087,4.380 18.214 C 4.288 17.511,4.241 16.169,4.240 14.230 L 4.240 12.441 4.390 12.498 C 5.097 12.771,6.023 12.810,6.792 12.599 C 7.460 12.416,8.263 11.886,8.669 11.359 C 8.752 11.252,8.831 11.167,8.844 11.172 C 8.858 11.176,8.960 11.290,9.072 11.425 M13.214 16.798 C 13.383 16.837,13.570 16.992,13.674 17.180 C 13.732 17.286,13.741 17.525,13.753 19.270 L 13.766 21.240 12.000 21.240 L 10.234 21.240 10.247 19.270 C 10.259 17.525,10.268 17.286,10.326 17.180 C 10.426 17.000,10.617 16.835,10.767 16.800 C 10.953 16.756,13.026 16.754,13.214 16.798 " stroke="none" fill-rule="evenodd" fill="black"></path></svg>