<svg width="24" height="24" viewBox="0 0 24 24" fill="none" xmlns="http://www.w3.org/2000/svg"><path d="M19.811 4.278 C 19.415 4.375,19.172 4.799,19.281 5.204 C 19.319 5.345,19.411 5.464,19.746 5.804 L 20.164 6.229 18.372 6.251 C 17.378 6.264,16.420 6.295,16.220 6.321 C 14.984 6.483,14.256 6.970,13.437 8.184 C 13.329 8.345,12.409 9.859,11.395 11.549 C 10.380 13.238,9.423 14.808,9.266 15.037 C 8.780 15.752,8.482 15.996,7.911 16.147 C 7.692 16.205,7.284 16.217,4.717 16.237 L 1.774 16.260 1.605 16.372 C 1.311 16.566,1.192 16.873,1.281 17.204 C 1.342 17.432,1.570 17.658,1.799 17.720 C 2.030 17.782,7.450 17.749,7.840 17.683 C 8.425 17.584,8.868 17.432,9.267 17.194 C 9.577 17.010,10.087 16.493,10.408 16.039 C 10.556 15.831,11.481 14.319,12.465 12.680 C 14.920 8.587,15.130 8.278,15.637 8.022 C 16.064 7.805,16.217 7.791,18.280 7.771 L 20.180 7.753 19.754 8.187 C 19.414 8.533,19.319 8.655,19.281 8.795 C 19.128 9.364,19.634 9.870,20.205 9.719 C 20.358 9.679,20.520 9.535,21.493 8.567 C 22.105 7.958,22.630 7.414,22.659 7.359 C 22.747 7.193,22.770 6.984,22.720 6.796 C 22.679 6.641,22.541 6.487,21.587 5.528 C 20.989 4.927,20.446 4.403,20.380 4.362 C 20.234 4.272,19.985 4.236,19.811 4.278 M1.807 6.286 C 1.567 6.341,1.341 6.573,1.289 6.816 C 1.197 7.246,1.431 7.629,1.838 7.716 C 1.977 7.746,2.947 7.760,4.834 7.760 C 7.931 7.760,7.848 7.754,8.370 8.028 C 8.743 8.224,9.043 8.537,9.375 9.076 C 9.527 9.321,9.698 9.556,9.756 9.597 C 10.307 9.990,11.065 9.504,10.918 8.852 C 10.879 8.676,10.539 8.082,10.282 7.740 C 9.776 7.068,9.072 6.603,8.200 6.368 L 7.820 6.265 4.900 6.255 C 3.053 6.249,1.916 6.260,1.807 6.286 M13.585 14.289 C 13.235 14.382,12.987 14.813,13.081 15.164 C 13.128 15.338,13.478 15.940,13.718 16.260 C 14.224 16.933,14.932 17.399,15.800 17.631 C 16.178 17.732,16.193 17.733,18.172 17.750 L 20.165 17.768 19.750 18.194 C 19.411 18.541,19.326 18.653,19.289 18.798 C 19.146 19.363,19.608 19.831,20.190 19.711 C 20.369 19.674,20.444 19.608,21.526 18.526 C 22.608 17.444,22.674 17.369,22.711 17.190 C 22.737 17.066,22.737 16.934,22.711 16.810 C 22.674 16.631,22.608 16.556,21.526 15.474 C 20.444 14.392,20.369 14.326,20.190 14.289 C 19.614 14.170,19.166 14.611,19.287 15.176 C 19.325 15.354,19.377 15.424,19.751 15.808 L 20.173 16.240 18.275 16.240 C 16.163 16.240,16.135 16.237,15.630 15.972 C 15.257 15.776,14.957 15.463,14.625 14.924 C 14.333 14.452,14.237 14.356,13.980 14.285 C 13.797 14.234,13.793 14.234,13.585 14.289 " fill="#1C274C" stroke="none" fill-rule="evenodd"></path></svg>