<svg width="24" height="24" viewBox="0 0 24 24" fill="none" xmlns="http://www.w3.org/2000/svg"><path d="M7.420 2.283 C 4.824 2.355,3.629 2.695,2.669 3.635 C 1.935 4.353,1.558 5.273,1.379 6.787 C 1.207 8.243,1.193 15.518,1.360 17.060 C 1.531 18.644,1.894 19.574,2.635 20.331 C 3.066 20.772,3.616 21.103,4.273 21.318 C 5.402 21.686,6.664 21.758,12.000 21.758 C 17.336 21.758,18.598 21.686,19.727 21.318 C 21.002 20.901,21.880 20.036,22.302 18.779 C 22.661 17.707,22.758 16.258,22.758 11.960 C 22.757 7.719,22.661 6.291,22.302 5.221 C 21.886 3.984,21.016 3.114,19.779 2.698 C 18.998 2.436,18.134 2.331,16.360 2.280 C 14.828 2.236,9.033 2.238,7.420 2.283 M14.240 12.003 L 14.240 20.246 10.350 20.228 C 7.814 20.216,6.328 20.194,6.080 20.165 C 3.819 19.895,3.106 19.181,2.835 16.920 C 2.770 16.373,2.739 8.694,2.798 7.740 C 2.860 6.751,2.924 6.320,3.089 5.800 C 3.509 4.473,4.423 3.948,6.560 3.805 C 6.835 3.787,8.675 3.769,10.650 3.766 L 14.240 3.760 14.240 12.003 M17.341 3.802 C 19.647 3.954,20.523 4.466,20.941 5.907 C 21.204 6.815,21.240 7.548,21.240 12.000 C 21.240 15.659,21.216 16.577,21.099 17.361 C 20.922 18.551,20.490 19.300,19.766 19.673 C 19.038 20.047,18.295 20.178,16.610 20.227 L 15.760 20.253 15.760 12.006 L 15.760 3.760 16.231 3.760 C 16.490 3.760,16.989 3.779,17.341 3.802 M5.420 9.259 C 5.398 9.267,5.331 9.284,5.271 9.297 C 5.124 9.329,4.881 9.548,4.814 9.708 C 4.691 10.002,4.771 10.336,5.015 10.550 C 5.095 10.621,5.211 10.693,5.271 10.709 C 5.413 10.749,11.587 10.749,11.729 10.709 C 11.881 10.667,12.121 10.447,12.186 10.292 C 12.297 10.027,12.241 9.711,12.047 9.506 C 11.800 9.245,12.014 9.261,8.580 9.253 C 6.864 9.248,5.442 9.251,5.420 9.259 M6.420 13.259 C 6.398 13.267,6.331 13.284,6.271 13.297 C 6.124 13.329,5.881 13.548,5.814 13.708 C 5.691 14.002,5.771 14.336,6.015 14.550 C 6.095 14.621,6.211 14.693,6.271 14.709 C 6.413 14.749,10.587 14.749,10.729 14.709 C 10.881 14.667,11.121 14.447,11.186 14.292 C 11.297 14.027,11.241 13.711,11.047 13.506 C 10.805 13.250,10.907 13.261,8.580 13.252 C 7.414 13.248,6.442 13.251,6.420 13.259 " stroke="none" fill-rule="evenodd" fill="black"></path></svg>