<svg width="24" height="24" viewBox="0 0 24 24" fill="none" xmlns="http://www.w3.org/2000/svg"><path d="M7.420 2.283 C 4.824 2.355,3.629 2.695,2.669 3.635 C 1.935 4.353,1.558 5.273,1.379 6.787 C 1.207 8.243,1.193 15.518,1.360 17.060 C 1.531 18.644,1.894 19.574,2.635 20.331 C 3.066 20.772,3.616 21.103,4.273 21.318 C 5.402 21.686,6.664 21.758,12.000 21.758 C 17.336 21.758,18.598 21.686,19.727 21.318 C 21.002 20.901,21.880 20.036,22.302 18.779 C 22.661 17.707,22.758 16.258,22.758 11.960 C 22.757 7.719,22.661 6.291,22.302 5.221 C 21.886 3.984,21.016 3.114,19.779 2.698 C 18.998 2.436,18.134 2.331,16.360 2.280 C 14.828 2.236,9.033 2.238,7.420 2.283 M14.240 12.003 L 14.240 20.246 10.350 20.228 C 7.814 20.216,6.328 20.194,6.080 20.165 C 3.819 19.895,3.106 19.181,2.835 16.920 C 2.770 16.373,2.739 8.694,2.798 7.740 C 2.860 6.751,2.924 6.320,3.089 5.800 C 3.509 4.473,4.423 3.948,6.560 3.805 C 6.835 3.787,8.675 3.769,10.650 3.766 L 14.240 3.760 14.240 12.003 M17.341 3.802 C 19.647 3.954,20.523 4.466,20.941 5.907 C 21.204 6.815,21.240 7.548,21.240 12.000 C 21.240 15.659,21.216 16.577,21.099 17.361 C 20.922 18.551,20.490 19.300,19.766 19.673 C 19.038 20.047,18.295 20.178,16.610 20.227 L 15.760 20.253 15.760 12.006 L 15.760 3.760 16.231 3.760 C 16.490 3.760,16.989 3.779,17.341 3.802 M5.801 13.290 C 5.644 13.324,5.551 13.399,5.028 13.914 C 4.702 14.236,4.397 14.561,4.350 14.636 C 4.253 14.794,4.236 15.161,4.319 15.320 C 4.390 15.457,5.468 16.545,5.636 16.649 C 5.826 16.768,6.177 16.765,6.374 16.644 C 6.658 16.468,6.784 16.158,6.711 15.816 C 6.679 15.664,6.617 15.573,6.370 15.315 L 6.069 15.000 6.370 14.685 C 6.617 14.427,6.679 14.336,6.711 14.184 C 6.834 13.607,6.384 13.165,5.801 13.290 M8.785 13.288 C 8.699 13.311,8.564 13.396,8.485 13.476 C 8.356 13.605,8.251 13.859,7.545 15.746 C 6.822 17.677,6.751 17.890,6.768 18.066 C 6.830 18.711,7.598 18.967,8.049 18.492 C 8.129 18.408,8.360 17.840,8.915 16.359 C 9.331 15.248,9.692 14.263,9.718 14.170 C 9.861 13.633,9.337 13.137,8.785 13.288 M10.420 15.260 C 10.398 15.267,10.331 15.284,10.271 15.297 C 10.124 15.329,9.881 15.548,9.814 15.708 C 9.744 15.875,9.745 16.127,9.816 16.296 C 9.846 16.369,9.992 16.558,10.140 16.714 L 10.409 16.999 10.139 17.289 C 9.840 17.611,9.760 17.760,9.760 17.996 C 9.760 18.284,9.914 18.531,10.179 18.669 C 10.338 18.752,10.668 18.748,10.841 18.661 C 11.039 18.561,12.107 17.480,12.180 17.306 C 12.213 17.227,12.240 17.089,12.240 17.000 C 12.240 16.911,12.213 16.773,12.180 16.694 C 12.111 16.528,11.042 15.440,10.860 15.350 C 10.734 15.288,10.488 15.237,10.420 15.260 " stroke="none" fill-rule="evenodd" fill="black"></path></svg>