<svg width="24" height="24" viewBox="0 0 24 24" fill="none" xmlns="http://www.w3.org/2000/svg"><path d="M11.811 1.278 C 11.739 1.295,11.618 1.358,11.541 1.417 C 11.307 1.595,11.265 1.719,11.247 2.270 L 11.232 2.760 9.546 2.760 C 7.486 2.761,7.210 2.798,6.620 3.151 C 6.171 3.420,4.744 4.984,4.338 5.653 C 4.034 6.154,3.980 6.356,3.980 7.000 C 3.980 7.644,4.034 7.846,4.338 8.347 C 4.744 9.016,6.171 10.580,6.620 10.849 C 7.210 11.203,7.486 11.239,9.550 11.240 L 11.240 11.240 11.240 11.500 L 11.240 11.760 9.230 11.761 C 7.135 11.761,6.659 11.787,6.161 11.923 C 5.156 12.198,4.497 12.989,4.316 14.140 C 4.247 14.582,4.247 17.418,4.316 17.860 C 4.428 18.573,4.692 19.101,5.142 19.513 C 5.589 19.922,6.075 20.119,6.840 20.199 C 7.049 20.221,8.125 20.239,9.230 20.239 L 11.240 20.240 11.240 20.736 L 11.240 21.232 10.530 21.246 C 9.715 21.262,9.590 21.300,9.383 21.592 C 9.286 21.730,9.267 21.797,9.267 21.997 C 9.267 22.282,9.385 22.494,9.627 22.645 L 9.780 22.740 11.860 22.753 C 13.338 22.762,14.002 22.752,14.154 22.719 C 14.919 22.552,14.926 21.448,14.162 21.284 C 14.049 21.260,13.687 21.240,13.358 21.240 L 12.760 21.240 12.760 20.740 L 12.760 20.240 14.450 20.240 C 16.185 20.239,16.462 20.221,16.897 20.074 C 17.453 19.888,17.894 19.506,18.896 18.340 C 19.488 17.652,19.725 17.306,19.897 16.881 C 20.014 16.594,20.019 16.554,20.019 16.000 C 20.019 15.446,20.014 15.406,19.897 15.119 C 19.725 14.694,19.488 14.348,18.896 13.660 C 17.697 12.266,17.263 11.943,16.397 11.802 C 16.248 11.778,15.432 11.760,14.450 11.760 L 12.760 11.760 12.760 11.500 L 12.760 11.240 14.770 11.239 C 16.865 11.239,17.341 11.213,17.839 11.077 C 18.637 10.859,19.276 10.254,19.537 9.471 C 19.709 8.952,19.733 8.645,19.733 7.000 C 19.733 5.964,19.717 5.355,19.683 5.140 C 19.572 4.428,19.308 3.899,18.858 3.487 C 18.411 3.078,17.925 2.881,17.160 2.801 C 16.951 2.779,15.877 2.761,14.774 2.761 L 12.768 2.760 12.754 2.270 C 12.742 1.865,12.726 1.756,12.658 1.641 C 12.494 1.361,12.122 1.202,11.811 1.278 M16.920 4.277 C 17.464 4.325,17.624 4.384,17.867 4.619 C 18.215 4.958,18.220 4.992,18.220 7.000 C 18.220 9.008,18.215 9.042,17.867 9.381 C 17.748 9.495,17.592 9.603,17.500 9.632 C 17.138 9.746,16.364 9.763,12.077 9.752 L 7.734 9.740 7.499 9.619 C 7.315 9.526,7.158 9.384,6.787 8.979 C 5.684 7.775,5.440 7.416,5.440 7.000 C 5.440 6.585,5.644 6.282,6.724 5.092 C 7.292 4.465,7.485 4.324,7.833 4.280 C 8.155 4.238,16.461 4.236,16.920 4.277 M16.487 13.371 C 16.729 13.490,17.102 13.868,17.911 14.812 C 18.399 15.381,18.560 15.676,18.560 16.000 C 18.560 16.417,18.350 16.727,17.257 17.926 C 16.823 18.402,16.679 18.534,16.491 18.626 L 16.260 18.740 11.920 18.752 C 7.636 18.763,6.862 18.746,6.500 18.632 C 6.408 18.603,6.252 18.495,6.133 18.381 C 5.785 18.042,5.780 18.008,5.780 16.000 C 5.780 13.992,5.785 13.958,6.133 13.619 C 6.370 13.389,6.541 13.324,7.020 13.280 C 7.196 13.263,9.347 13.252,11.800 13.255 L 16.260 13.260 16.487 13.371 " fill="#1C274C" stroke="none" fill-rule="evenodd"></path></svg>