<svg width="24" height="24" viewBox="0 0 24 24" fill="none" xmlns="http://www.w3.org/2000/svg"><path d="M11.420 1.282 C 10.310 1.313,9.804 1.357,9.096 1.481 C 7.073 1.835,5.904 2.968,5.507 4.958 L 5.415 5.416 4.978 5.503 C 3.254 5.845,2.180 6.750,1.679 8.283 C 1.408 9.112,1.333 9.823,1.273 12.110 C 1.219 14.202,1.273 17.383,1.377 18.220 C 1.564 19.732,1.912 20.593,2.635 21.331 C 3.348 22.060,4.261 22.436,5.767 22.621 C 6.637 22.727,9.730 22.782,11.870 22.728 C 13.762 22.680,14.372 22.634,15.100 22.482 C 17.017 22.082,18.104 20.974,18.497 19.022 L 18.585 18.585 19.042 18.493 C 20.970 18.108,22.083 17.011,22.482 15.100 C 22.628 14.400,22.679 13.752,22.726 12.020 C 22.791 9.585,22.727 8.958,22.319 8.089 C 21.960 7.322,21.885 7.237,19.324 4.677 C 16.782 2.137,16.676 2.044,15.947 1.698 C 15.012 1.255,14.396 1.199,11.420 1.282 M14.672 2.823 C 15.050 2.901,15.540 3.127,15.860 3.371 C 16.186 3.621,20.556 8.011,20.718 8.253 C 20.921 8.555,21.107 8.991,21.176 9.328 C 21.228 9.579,21.240 9.925,21.240 11.169 C 21.240 13.899,21.114 14.921,20.674 15.767 C 20.374 16.343,19.827 16.752,19.081 16.958 C 18.916 17.003,18.766 17.040,18.746 17.040 C 18.725 17.040,18.722 16.436,18.739 15.590 C 18.779 13.534,18.705 12.912,18.319 12.089 C 17.960 11.322,17.885 11.237,15.324 8.677 C 12.783 6.138,12.676 6.044,11.948 5.699 C 11.096 5.295,10.490 5.220,8.410 5.261 C 7.564 5.278,6.960 5.275,6.960 5.254 C 6.960 5.234,6.997 5.084,7.042 4.919 C 7.408 3.595,8.298 3.002,10.160 2.842 C 10.926 2.776,10.950 2.775,12.712 2.767 C 14.082 2.761,14.416 2.771,14.672 2.823 M10.672 6.823 C 11.050 6.901,11.540 7.127,11.860 7.371 C 12.186 7.621,16.556 12.011,16.718 12.253 C 16.921 12.555,17.107 12.991,17.176 13.328 C 17.228 13.579,17.240 13.925,17.240 15.169 C 17.240 17.340,17.165 18.318,16.941 19.093 C 16.523 20.534,15.647 21.046,13.341 21.198 C 12.511 21.252,7.489 21.252,6.659 21.198 C 3.889 21.016,3.093 20.317,2.833 17.840 C 2.758 17.128,2.758 10.872,2.833 10.160 C 3.078 7.819,3.860 7.040,6.160 6.842 C 6.926 6.776,6.950 6.775,8.712 6.767 C 10.082 6.761,10.416 6.771,10.672 6.823 M8.100 13.277 C 7.083 13.351,6.580 13.716,6.353 14.546 C 6.271 14.844,6.267 14.945,6.267 16.500 C 6.267 18.049,6.271 18.157,6.352 18.450 C 6.535 19.119,6.879 19.464,7.546 19.648 C 7.850 19.732,7.926 19.735,10.000 19.735 C 12.074 19.735,12.150 19.732,12.454 19.648 C 13.121 19.464,13.465 19.119,13.648 18.450 C 13.728 18.158,13.733 18.047,13.733 16.500 C 13.733 14.953,13.728 14.842,13.648 14.550 C 13.465 13.880,13.117 13.532,12.454 13.355 C 12.161 13.276,12.021 13.270,10.320 13.259 C 9.319 13.253,8.320 13.261,8.100 13.277 M9.240 16.503 L 9.240 18.245 8.562 18.233 C 8.073 18.224,7.869 18.205,7.832 18.168 C 7.792 18.128,7.777 17.778,7.768 16.608 C 7.761 15.779,7.767 15.041,7.780 14.968 C 7.796 14.883,7.836 14.823,7.892 14.800 C 7.940 14.781,8.264 14.764,8.610 14.763 L 9.240 14.760 9.240 16.503 M12.168 14.832 C 12.202 14.866,12.225 15.032,12.234 15.322 L 12.247 15.760 11.504 15.760 L 10.760 15.760 10.760 15.257 L 10.760 14.755 11.438 14.767 C 11.926 14.776,12.131 14.795,12.168 14.832 M12.234 17.678 C 12.225 17.968,12.202 18.134,12.168 18.168 C 12.131 18.205,11.926 18.224,11.438 18.233 L 10.760 18.245 10.760 17.743 L 10.760 17.240 11.504 17.240 L 12.247 17.240 12.234 17.678 " stroke="none" fill-rule="evenodd" fill="black"></path></svg>