<svg width="24" height="24" viewBox="0 0 24 24" fill="none" xmlns="http://www.w3.org/2000/svg"><path d="M8.960 1.281 C 6.964 1.331,5.849 1.468,4.900 1.779 C 3.060 2.382,1.958 3.688,1.563 5.734 C 1.311 7.042,1.267 7.973,1.267 12.000 C 1.267 16.027,1.311 16.958,1.563 18.266 C 2.013 20.599,3.401 21.987,5.734 22.437 C 7.034 22.688,7.987 22.733,12.000 22.733 C 16.013 22.733,16.966 22.688,18.266 22.437 C 20.599 21.987,21.987 20.599,22.437 18.267 C 22.656 17.131,22.721 16.045,22.732 13.300 C 22.738 11.710,22.727 11.145,22.686 10.900 C 22.565 10.182,22.250 9.430,21.830 8.856 C 21.565 8.495,15.505 2.435,15.144 2.170 C 14.594 1.767,13.897 1.466,13.210 1.334 C 12.824 1.260,10.790 1.234,8.960 1.281 M13.260 2.875 C 13.580 2.983,13.939 3.156,14.200 3.331 C 14.433 3.487,20.348 9.385,20.587 9.700 C 20.814 10.000,21.005 10.375,21.126 10.762 L 21.220 11.060 21.219 13.500 C 21.218 15.962,21.193 16.566,21.054 17.520 C 20.727 19.750,19.750 20.727,17.520 21.054 C 16.474 21.207,16.036 21.220,12.000 21.220 C 7.964 21.220,7.526 21.207,6.480 21.054 C 4.384 20.747,3.408 19.870,3.021 17.947 C 2.796 16.826,2.780 16.428,2.780 12.000 C 2.780 8.382,2.788 7.864,2.852 7.240 C 3.025 5.550,3.340 4.663,4.001 4.001 C 4.665 3.338,5.593 3.009,7.220 2.862 C 8.154 2.777,8.285 2.774,10.780 2.778 C 12.977 2.781,12.980 2.782,13.260 2.875 M8.780 12.278 C 8.253 12.325,7.894 12.448,7.475 12.727 C 6.912 13.100,6.513 13.672,6.334 14.360 C 6.281 14.566,6.267 14.804,6.267 15.500 C 6.267 16.196,6.281 16.434,6.334 16.640 C 6.600 17.665,7.342 18.406,8.360 18.664 C 8.643 18.736,8.850 18.740,12.000 18.740 C 15.150 18.740,15.357 18.736,15.640 18.664 C 16.658 18.406,17.400 17.665,17.666 16.640 C 17.719 16.434,17.733 16.196,17.733 15.500 C 17.733 14.804,17.719 14.566,17.666 14.360 C 17.403 13.348,16.685 12.623,15.660 12.335 C 15.445 12.274,15.087 12.266,12.260 12.258 C 10.522 12.253,8.956 12.262,8.780 12.278 M15.552 13.872 C 15.771 13.989,16.011 14.229,16.128 14.448 C 16.216 14.612,16.220 14.659,16.220 15.500 C 16.220 16.341,16.216 16.388,16.128 16.552 C 16.011 16.771,15.771 17.011,15.552 17.128 L 15.380 17.220 12.000 17.220 L 8.620 17.220 8.448 17.128 C 8.229 17.011,7.989 16.771,7.872 16.552 C 7.787 16.392,7.779 16.323,7.767 15.595 C 7.759 15.113,7.771 14.748,7.798 14.649 C 7.890 14.304,8.279 13.901,8.614 13.803 C 8.687 13.782,10.130 13.769,12.060 13.773 L 15.380 13.780 15.552 13.872 " stroke="none" fill-rule="evenodd" fill="black"></path></svg>