<svg width="24" height="24" viewBox="0 0 24 24" fill="none" xmlns="http://www.w3.org/2000/svg"><path d="M8.960 1.281 C 6.964 1.331,5.849 1.468,4.900 1.779 C 3.060 2.382,1.958 3.688,1.563 5.734 C 1.311 7.042,1.267 7.973,1.267 12.000 C 1.267 16.027,1.311 16.958,1.563 18.266 C 2.013 20.599,3.401 21.987,5.734 22.437 C 7.034 22.688,7.987 22.733,12.000 22.733 C 16.013 22.733,16.966 22.688,18.266 22.437 C 20.599 21.987,21.987 20.599,22.437 18.267 C 22.656 17.131,22.721 16.045,22.732 13.300 C 22.738 11.710,22.727 11.145,22.686 10.900 C 22.565 10.182,22.250 9.430,21.830 8.856 C 21.565 8.495,15.505 2.435,15.144 2.170 C 14.594 1.767,13.897 1.466,13.210 1.334 C 12.824 1.260,10.790 1.234,8.960 1.281 M13.260 2.875 C 13.580 2.983,13.939 3.156,14.200 3.331 C 14.433 3.487,20.348 9.385,20.587 9.700 C 20.814 10.000,21.005 10.375,21.126 10.762 L 21.220 11.060 21.219 13.500 C 21.218 15.962,21.193 16.566,21.054 17.520 C 20.727 19.750,19.750 20.727,17.520 21.054 C 16.474 21.207,16.036 21.220,12.000 21.220 C 7.964 21.220,7.526 21.207,6.480 21.054 C 4.384 20.747,3.408 19.870,3.021 17.947 C 2.796 16.826,2.780 16.428,2.780 12.000 C 2.780 8.382,2.788 7.864,2.852 7.240 C 3.025 5.550,3.340 4.663,4.001 4.001 C 4.665 3.338,5.593 3.009,7.220 2.862 C 8.154 2.777,8.285 2.774,10.780 2.778 C 12.977 2.781,12.980 2.782,13.260 2.875 M10.200 11.278 C 9.881 11.296,9.485 11.341,9.320 11.380 C 8.322 11.612,7.619 12.309,7.383 13.300 C 7.213 14.015,7.213 16.984,7.383 17.700 C 7.617 18.682,8.320 19.385,9.300 19.616 C 9.741 19.720,11.064 19.771,12.660 19.745 C 14.163 19.721,14.566 19.683,15.030 19.520 C 15.690 19.288,16.288 18.690,16.520 18.029 C 16.704 17.507,16.733 17.157,16.733 15.500 C 16.733 13.843,16.704 13.493,16.520 12.971 C 16.286 12.303,15.697 11.715,15.030 11.480 C 14.535 11.306,14.186 11.277,12.440 11.261 C 11.527 11.253,10.519 11.261,10.200 11.278 M11.240 15.505 L 11.240 18.250 10.490 18.230 C 9.567 18.205,9.418 18.166,9.125 17.874 C 8.782 17.530,8.780 17.518,8.780 15.500 C 8.780 13.482,8.782 13.470,9.126 13.126 C 9.431 12.820,9.616 12.775,10.610 12.766 L 11.240 12.760 11.240 15.505 M14.464 12.855 C 14.745 12.944,15.057 13.257,15.143 13.536 C 15.178 13.649,15.216 13.967,15.229 14.250 L 15.251 14.760 14.006 14.760 L 12.760 14.760 12.760 13.755 L 12.760 12.750 13.510 12.770 C 14.043 12.784,14.319 12.809,14.464 12.855 M15.229 16.750 C 15.199 17.417,15.138 17.611,14.874 17.874 C 14.582 18.166,14.433 18.205,13.510 18.230 L 12.760 18.250 12.760 17.245 L 12.760 16.240 14.006 16.240 L 15.251 16.240 15.229 16.750 " stroke="none" fill-rule="evenodd" fill="black"></path></svg>