<svg width="24" height="24" viewBox="0 0 24 24" fill="none" xmlns="http://www.w3.org/2000/svg"><path d="M11.807 1.289 C 11.556 1.343,11.341 1.570,11.281 1.846 C 11.248 1.996,11.238 2.536,11.247 3.640 L 11.260 5.220 11.355 5.373 C 11.506 5.615,11.718 5.733,12.003 5.733 C 12.203 5.733,12.270 5.714,12.408 5.617 C 12.499 5.553,12.610 5.428,12.656 5.340 C 12.736 5.187,12.741 5.112,12.752 3.625 C 12.760 2.610,12.749 1.999,12.721 1.867 C 12.626 1.424,12.259 1.192,11.807 1.289 M2.826 4.285 C 2.480 4.365,2.267 4.636,2.267 4.996 C 2.267 5.119,2.290 5.265,2.318 5.320 C 2.347 5.375,2.741 5.796,3.195 6.254 C 4.054 7.124,4.206 7.238,4.500 7.238 C 4.680 7.238,4.946 7.130,5.048 7.014 C 5.154 6.896,5.240 6.659,5.239 6.491 C 5.237 6.204,5.119 6.049,4.235 5.175 C 3.545 4.493,3.353 4.324,3.240 4.302 C 3.163 4.287,3.073 4.268,3.040 4.261 C 3.007 4.255,2.911 4.265,2.826 4.285 M20.800 4.290 C 20.637 4.325,20.539 4.409,19.765 5.174 C 18.882 6.048,18.763 6.205,18.761 6.491 C 18.760 6.659,18.846 6.896,18.952 7.014 C 19.054 7.130,19.320 7.238,19.500 7.238 C 19.795 7.238,19.945 7.125,20.825 6.235 C 21.610 5.441,21.673 5.366,21.711 5.189 C 21.833 4.605,21.387 4.165,20.800 4.290 M9.760 7.283 C 8.590 7.315,7.966 7.380,7.353 7.536 C 5.536 7.997,3.998 9.532,3.538 11.343 C 3.297 12.295,3.244 13.531,3.241 18.246 L 3.240 21.232 2.530 21.246 C 1.715 21.262,1.590 21.300,1.383 21.592 C 1.286 21.730,1.267 21.797,1.267 21.993 C 1.267 22.279,1.372 22.474,1.612 22.633 L 1.774 22.740 11.997 22.740 L 22.220 22.740 22.369 22.647 C 22.943 22.290,22.812 21.424,22.162 21.284 C 22.049 21.260,21.687 21.240,21.358 21.240 L 20.760 21.240 20.758 18.270 C 20.756 13.546,20.703 12.293,20.464 11.353 C 20.003 9.536,18.468 7.998,16.657 7.538 C 16.019 7.377,15.420 7.318,14.020 7.279 C 12.534 7.238,11.371 7.240,9.760 7.283 M14.980 8.801 C 15.926 8.869,16.448 8.982,16.932 9.224 C 17.935 9.725,18.726 10.653,19.000 11.650 C 19.208 12.408,19.212 12.514,19.229 17.030 L 19.245 21.240 16.002 21.240 L 12.760 21.240 12.762 20.430 L 12.764 19.620 13.012 19.503 C 13.342 19.348,13.823 18.872,13.995 18.530 C 14.233 18.058,14.301 17.483,14.180 16.970 C 14.009 16.247,13.391 15.580,12.683 15.356 C 12.316 15.240,11.684 15.240,11.317 15.356 C 10.609 15.580,9.991 16.247,9.820 16.970 C 9.579 17.991,10.084 19.071,11.008 19.511 L 11.236 19.620 11.238 20.430 L 11.240 21.240 7.998 21.240 L 4.755 21.240 4.771 17.010 C 4.788 12.464,4.790 12.418,5.002 11.643 C 5.341 10.409,6.480 9.298,7.733 8.981 C 8.065 8.897,8.650 8.818,9.180 8.786 C 9.720 8.754,14.491 8.766,14.980 8.801 M14.700 10.134 C 14.424 10.264,14.269 10.514,14.269 10.826 C 14.269 11.068,14.355 11.239,14.562 11.407 C 14.679 11.501,14.764 11.529,15.024 11.558 C 15.200 11.578,15.420 11.621,15.514 11.653 C 16.053 11.839,16.440 12.372,16.440 12.929 C 16.440 13.148,16.522 13.374,16.652 13.513 C 16.963 13.846,17.538 13.795,17.801 13.411 C 17.893 13.276,17.900 13.232,17.897 12.803 C 17.895 12.415,17.877 12.288,17.788 12.020 C 17.516 11.196,16.788 10.488,15.931 10.212 C 15.543 10.088,14.887 10.046,14.700 10.134 M12.388 16.865 C 12.447 16.909,12.550 17.013,12.618 17.096 C 12.725 17.229,12.740 17.278,12.739 17.494 C 12.737 17.777,12.638 17.965,12.405 18.125 C 12.206 18.261,11.794 18.261,11.595 18.125 C 11.335 17.947,11.209 17.660,11.259 17.363 C 11.290 17.181,11.517 16.896,11.697 16.814 C 11.871 16.736,12.252 16.764,12.388 16.865 " stroke="none" fill-rule="evenodd" fill="black"></path></svg>