<svg width="24" height="24" viewBox="0 0 24 24" fill="none" xmlns="http://www.w3.org/2000/svg"><path d="M11.807 1.289 C 11.556 1.343,11.341 1.570,11.281 1.846 C 11.248 1.996,11.238 2.536,11.247 3.640 L 11.260 5.220 11.355 5.373 C 11.506 5.615,11.718 5.733,12.003 5.733 C 12.203 5.733,12.270 5.714,12.408 5.617 C 12.499 5.553,12.610 5.428,12.656 5.340 C 12.736 5.187,12.741 5.112,12.752 3.625 C 12.760 2.610,12.749 1.999,12.721 1.867 C 12.626 1.424,12.259 1.192,11.807 1.289 M2.826 5.285 C 2.480 5.365,2.267 5.636,2.267 5.996 C 2.267 6.119,2.290 6.265,2.318 6.320 C 2.347 6.375,2.741 6.796,3.195 7.254 C 4.054 8.124,4.206 8.238,4.500 8.238 C 4.680 8.238,4.946 8.130,5.048 8.014 C 5.154 7.896,5.240 7.659,5.239 7.491 C 5.237 7.204,5.119 7.049,4.235 6.175 C 3.545 5.493,3.353 5.324,3.240 5.302 C 3.163 5.287,3.073 5.268,3.040 5.261 C 3.007 5.255,2.911 5.265,2.826 5.285 M20.800 5.290 C 20.637 5.325,20.539 5.409,19.765 6.174 C 18.882 7.048,18.763 7.205,18.761 7.491 C 18.760 7.659,18.846 7.896,18.952 8.014 C 19.054 8.130,19.320 8.238,19.500 8.238 C 19.795 8.238,19.945 8.125,20.825 7.235 C 21.610 6.441,21.673 6.366,21.711 6.189 C 21.833 5.605,21.387 5.165,20.800 5.290 M11.360 7.282 C 9.606 7.405,7.922 8.068,6.516 9.189 C 5.050 10.357,3.954 12.081,3.507 13.920 C 3.272 14.885,3.269 14.929,3.251 18.206 L 3.233 21.232 2.527 21.246 C 1.716 21.262,1.590 21.300,1.383 21.592 C 1.286 21.730,1.267 21.797,1.267 21.997 C 1.267 22.282,1.385 22.494,1.627 22.645 L 1.780 22.740 12.000 22.740 L 22.220 22.740 22.369 22.647 C 22.943 22.290,22.812 21.424,22.162 21.284 C 22.049 21.260,21.689 21.240,21.361 21.240 L 20.767 21.240 20.748 18.230 C 20.729 15.142,20.723 15.005,20.554 14.180 C 20.218 12.533,19.202 10.729,17.987 9.623 C 16.123 7.926,13.810 7.109,11.360 7.282 M13.375 8.877 C 14.816 9.168,16.083 9.847,17.118 10.882 C 18.150 11.914,18.818 13.158,19.127 14.625 C 19.217 15.053,19.219 15.106,19.231 18.150 L 19.243 21.240 16.002 21.240 L 12.760 21.240 12.762 20.430 L 12.764 19.620 13.012 19.503 C 13.342 19.348,13.823 18.872,13.995 18.530 C 14.233 18.058,14.301 17.483,14.180 16.970 C 14.009 16.247,13.391 15.580,12.683 15.356 C 12.316 15.240,11.684 15.240,11.317 15.356 C 10.609 15.580,9.991 16.247,9.820 16.970 C 9.579 17.991,10.084 19.071,11.008 19.511 L 11.236 19.620 11.238 20.430 L 11.240 21.240 7.998 21.240 L 4.757 21.240 4.769 18.150 C 4.781 15.099,4.783 15.055,4.874 14.620 C 5.181 13.159,5.850 11.914,6.882 10.882 C 8.000 9.764,9.351 9.078,10.941 8.821 C 11.492 8.732,12.809 8.762,13.375 8.877 M13.978 10.835 C 13.666 10.977,13.527 11.244,13.570 11.622 C 13.601 11.895,13.744 12.045,14.201 12.284 C 14.916 12.658,15.342 13.085,15.718 13.804 C 15.955 14.256,16.105 14.399,16.378 14.430 C 16.769 14.474,17.054 14.314,17.183 13.979 C 17.276 13.735,17.244 13.525,17.055 13.140 C 16.558 12.128,15.726 11.321,14.725 10.882 C 14.407 10.742,14.210 10.730,13.978 10.835 M12.388 16.865 C 12.447 16.909,12.550 17.013,12.618 17.096 C 12.725 17.229,12.740 17.278,12.739 17.494 C 12.737 17.777,12.638 17.965,12.405 18.125 C 12.206 18.261,11.794 18.261,11.595 18.125 C 11.335 17.947,11.209 17.660,11.259 17.363 C 11.290 17.181,11.517 16.896,11.697 16.814 C 11.871 16.736,12.252 16.764,12.388 16.865 " stroke="none" fill-rule="evenodd" fill="black"></path></svg>