<svg width="24" height="24" viewBox="0 0 24 24" fill="none" xmlns="http://www.w3.org/2000/svg"><path d="M18.660 1.278 C 17.776 1.385,17.027 1.901,16.568 2.720 C 16.168 3.434,16.168 4.566,16.568 5.280 C 17.094 6.219,17.953 6.731,19.000 6.731 C 20.047 6.731,20.906 6.219,21.432 5.280 C 21.838 4.556,21.833 3.431,21.420 2.700 C 20.852 1.693,19.784 1.143,18.660 1.278 M19.454 2.841 C 19.744 2.950,20.050 3.256,20.159 3.546 C 20.331 4.006,20.227 4.518,19.893 4.857 C 19.594 5.159,19.446 5.220,19.000 5.220 C 18.560 5.220,18.410 5.161,18.125 4.875 C 17.876 4.627,17.790 4.433,17.769 4.080 C 17.746 3.675,17.847 3.404,18.126 3.126 C 18.479 2.773,18.983 2.665,19.454 2.841 M12.420 5.305 C 11.801 5.372,11.183 5.549,10.666 5.808 C 10.279 6.002,8.143 7.329,7.985 7.475 C 7.670 7.763,7.683 8.259,8.014 8.549 C 8.252 8.759,8.559 8.799,8.841 8.658 C 8.896 8.630,9.400 8.321,9.961 7.971 C 11.253 7.164,11.353 7.108,11.736 6.980 C 12.151 6.841,12.417 6.799,12.884 6.798 C 13.484 6.797,14.210 6.976,14.370 7.166 C 14.409 7.212,14.440 7.304,14.440 7.371 C 14.440 7.477,14.309 7.625,13.446 8.497 C 12.383 9.570,12.229 9.772,12.102 10.259 C 12.022 10.565,12.022 11.193,12.101 11.498 C 12.253 12.081,12.451 12.337,13.309 13.060 C 13.789 13.465,14.031 13.698,14.109 13.830 L 14.220 14.020 14.240 15.360 C 14.262 16.821,14.261 16.815,14.506 17.047 C 14.711 17.241,15.027 17.297,15.292 17.186 C 15.447 17.121,15.667 16.881,15.709 16.729 C 15.726 16.669,15.739 16.026,15.738 15.300 C 15.736 13.833,15.721 13.719,15.461 13.201 C 15.256 12.796,15.029 12.548,14.327 11.966 C 13.621 11.380,13.520 11.247,13.520 10.906 C 13.520 10.802,13.548 10.651,13.582 10.569 C 13.622 10.472,13.994 10.067,14.637 9.420 C 15.497 8.554,15.646 8.385,15.752 8.159 C 16.143 7.331,15.872 6.322,15.131 5.847 C 14.872 5.681,14.358 5.497,13.888 5.402 C 13.502 5.324,12.725 5.273,12.420 5.305 M16.420 9.259 C 16.398 9.267,16.331 9.284,16.271 9.297 C 16.124 9.329,15.881 9.548,15.814 9.708 C 15.691 10.002,15.771 10.336,16.015 10.550 C 16.095 10.621,16.211 10.693,16.271 10.709 C 16.413 10.749,19.587 10.749,19.729 10.709 C 19.881 10.667,20.121 10.447,20.186 10.292 C 20.297 10.027,20.241 9.711,20.047 9.506 C 19.810 9.255,19.854 9.261,18.080 9.252 C 17.189 9.248,16.442 9.251,16.420 9.259 M10.804 13.289 C 10.650 13.322,10.546 13.408,9.960 13.979 C 9.592 14.338,9.248 14.655,9.196 14.685 C 9.124 14.726,8.833 14.742,8.020 14.750 C 7.426 14.756,6.881 14.771,6.809 14.783 C 6.656 14.808,6.423 14.999,6.332 15.175 C 6.250 15.333,6.250 15.667,6.332 15.825 C 6.423 16.001,6.655 16.192,6.815 16.222 C 6.890 16.236,7.488 16.239,8.145 16.230 C 9.835 16.204,9.903 16.175,11.105 14.954 C 11.613 14.436,11.673 14.361,11.710 14.188 C 11.834 13.608,11.387 13.165,10.804 13.289 M2.811 16.278 C 2.488 16.357,2.263 16.667,2.267 17.027 C 2.269 17.289,2.308 17.349,2.869 17.973 C 3.854 19.068,4.871 19.601,6.204 19.719 C 6.818 19.773,17.182 19.773,17.796 19.719 C 19.129 19.601,20.146 19.068,21.131 17.973 C 21.692 17.349,21.730 17.289,21.734 17.026 C 21.740 16.602,21.434 16.271,21.033 16.267 C 20.707 16.263,20.572 16.354,20.080 16.902 C 19.443 17.611,19.024 17.900,18.300 18.131 L 18.020 18.220 12.000 18.220 L 5.980 18.220 5.700 18.131 C 4.976 17.900,4.557 17.611,3.920 16.902 C 3.676 16.630,3.419 16.380,3.348 16.347 C 3.176 16.266,2.968 16.239,2.811 16.278 M6.673 20.063 C 6.312 20.174,6.000 20.609,6.000 21.000 C 6.000 21.524,6.476 22.000,7.000 22.000 C 7.520 22.000,8.000 21.520,8.000 21.000 C 8.000 20.598,7.688 20.173,7.310 20.061 C 7.062 19.987,6.919 19.988,6.673 20.063 M16.673 20.063 C 16.312 20.174,16.000 20.609,16.000 21.000 C 16.000 21.524,16.476 22.000,17.000 22.000 C 17.520 22.000,18.000 21.520,18.000 21.000 C 18.000 20.598,17.688 20.173,17.310 20.061 C 17.062 19.987,16.919 19.988,16.673 20.063 " stroke="none" fill-rule="evenodd" fill="black"></path></svg>