<svg width="24" height="24" viewBox="0 0 24 24" fill="none" xmlns="http://www.w3.org/2000/svg"><path d="M1.860 6.277 C 1.543 6.355,1.364 6.527,1.283 6.830 C 1.209 7.102,1.282 7.268,1.840 8.097 C 2.471 9.035,2.659 9.268,3.041 9.590 C 3.662 10.114,4.384 10.470,5.200 10.654 L 5.580 10.740 12.000 10.740 L 18.420 10.740 18.800 10.654 C 19.009 10.607,19.337 10.511,19.529 10.441 C 20.198 10.196,21.036 9.612,21.452 9.099 C 21.782 8.693,22.669 7.345,22.715 7.181 C 22.766 6.993,22.715 6.721,22.595 6.553 C 22.408 6.290,21.960 6.191,21.657 6.345 C 21.528 6.411,21.405 6.566,20.963 7.222 C 20.348 8.134,20.018 8.494,19.534 8.777 C 19.165 8.993,18.891 9.102,18.511 9.182 C 18.098 9.269,5.902 9.269,5.489 9.182 C 5.109 9.102,4.835 8.993,4.466 8.777 C 3.982 8.494,3.652 8.134,3.037 7.222 C 2.617 6.599,2.469 6.410,2.360 6.356 C 2.179 6.267,2.010 6.240,1.860 6.277 M6.660 12.278 C 5.776 12.385,5.027 12.901,4.568 13.720 C 4.168 14.434,4.168 15.566,4.568 16.280 C 5.094 17.219,5.953 17.731,7.000 17.731 C 8.047 17.731,8.906 17.219,9.432 16.280 C 9.838 15.556,9.833 14.431,9.420 13.700 C 8.852 12.693,7.784 12.143,6.660 12.278 M16.660 12.278 C 15.776 12.385,15.027 12.901,14.568 13.720 C 14.168 14.434,14.168 15.566,14.568 16.280 C 15.094 17.219,15.953 17.731,17.000 17.731 C 18.047 17.731,18.906 17.219,19.432 16.280 C 19.838 15.556,19.833 14.431,19.420 13.700 C 18.852 12.693,17.784 12.143,16.660 12.278 M7.454 13.841 C 7.744 13.950,8.050 14.256,8.159 14.546 C 8.331 15.006,8.227 15.518,7.893 15.857 C 7.594 16.159,7.446 16.220,7.000 16.220 C 6.565 16.220,6.394 16.154,6.120 15.880 C 5.883 15.643,5.790 15.429,5.769 15.080 C 5.746 14.675,5.847 14.404,6.126 14.126 C 6.479 13.773,6.983 13.665,7.454 13.841 M17.454 13.841 C 17.744 13.950,18.050 14.256,18.159 14.546 C 18.331 15.006,18.227 15.518,17.893 15.857 C 17.594 16.159,17.446 16.220,17.000 16.220 C 16.565 16.220,16.394 16.154,16.120 15.880 C 15.883 15.643,15.790 15.429,15.769 15.080 C 15.746 14.675,15.847 14.404,16.126 14.126 C 16.479 13.773,16.983 13.665,17.454 13.841 " stroke="none" fill-rule="evenodd" fill="black"></path></svg>