<svg width="24" height="24" viewBox="0 0 24 24" fill="none" xmlns="http://www.w3.org/2000/svg"><path d="M18.660 1.278 C 17.776 1.385,17.027 1.901,16.568 2.720 C 16.168 3.434,16.168 4.566,16.568 5.280 C 17.094 6.219,17.953 6.731,19.000 6.731 C 20.047 6.731,20.906 6.219,21.432 5.280 C 21.838 4.556,21.833 3.431,21.420 2.700 C 20.852 1.693,19.784 1.143,18.660 1.278 M19.454 2.841 C 19.744 2.950,20.050 3.256,20.159 3.546 C 20.331 4.006,20.227 4.518,19.893 4.857 C 19.594 5.159,19.446 5.220,19.000 5.220 C 18.560 5.220,18.410 5.161,18.125 4.875 C 17.876 4.627,17.790 4.433,17.769 4.080 C 17.746 3.675,17.847 3.404,18.126 3.126 C 18.479 2.773,18.983 2.665,19.454 2.841 M12.380 4.983 C 12.336 4.993,12.202 5.021,12.083 5.045 C 11.964 5.069,11.787 5.123,11.691 5.164 C 11.463 5.262,8.135 7.336,7.985 7.474 C 7.670 7.764,7.683 8.259,8.014 8.549 C 8.252 8.758,8.559 8.799,8.840 8.658 C 8.895 8.631,9.651 8.163,10.520 7.620 C 11.389 7.076,12.170 6.596,12.256 6.552 C 12.359 6.499,12.492 6.472,12.645 6.472 C 13.242 6.472,13.699 6.998,13.627 7.602 C 13.594 7.883,13.452 8.074,13.010 8.432 C 12.113 9.158,11.770 9.751,11.730 10.641 C 11.679 11.746,12.115 12.547,13.126 13.213 C 13.642 13.551,13.939 13.913,14.129 14.432 C 14.203 14.632,14.216 14.784,14.238 15.680 C 14.264 16.786,14.272 16.826,14.506 17.047 C 14.783 17.309,15.217 17.309,15.494 17.047 C 15.735 16.819,15.740 16.791,15.739 15.720 C 15.738 15.076,15.720 14.658,15.686 14.500 C 15.462 13.455,14.961 12.675,14.153 12.116 C 13.379 11.579,13.226 11.363,13.222 10.800 C 13.219 10.266,13.335 10.094,14.132 9.448 C 14.751 8.948,15.072 8.344,15.110 7.616 C 15.150 6.838,14.927 6.240,14.403 5.718 C 14.069 5.386,13.701 5.168,13.300 5.065 C 13.045 5.000,12.514 4.953,12.380 4.983 M16.420 9.260 C 16.398 9.267,16.331 9.284,16.271 9.297 C 16.124 9.329,15.881 9.548,15.814 9.708 C 15.703 9.973,15.759 10.289,15.953 10.494 C 16.106 10.655,16.211 10.701,16.640 10.792 C 17.330 10.938,17.730 10.978,18.500 10.978 C 19.270 10.978,19.670 10.938,20.360 10.792 C 20.789 10.701,20.894 10.655,21.047 10.494 C 21.181 10.353,21.240 10.201,21.240 10.000 C 21.240 9.799,21.181 9.647,21.047 9.507 C 20.800 9.245,20.623 9.217,20.018 9.341 C 19.037 9.541,17.954 9.541,16.984 9.340 C 16.718 9.285,16.492 9.241,16.480 9.243 C 16.469 9.245,16.442 9.252,16.420 9.260 M10.817 13.287 C 10.700 13.312,10.556 13.406,10.314 13.614 C 9.393 14.405,8.426 14.760,7.194 14.760 C 7.002 14.760,6.795 14.779,6.733 14.803 C 6.591 14.856,6.412 15.024,6.331 15.179 C 6.250 15.333,6.251 15.668,6.332 15.825 C 6.425 16.004,6.656 16.192,6.822 16.223 C 7.047 16.265,8.063 16.216,8.460 16.143 C 9.507 15.951,10.636 15.374,11.398 14.641 C 11.627 14.422,11.676 14.350,11.710 14.189 C 11.832 13.614,11.386 13.164,10.817 13.287 M2.811 16.278 C 2.626 16.323,2.423 16.491,2.338 16.668 C 2.241 16.868,2.244 17.196,2.344 17.354 C 2.461 17.537,3.586 18.780,3.877 19.047 C 4.165 19.310,4.628 19.559,5.040 19.670 C 5.283 19.735,5.737 19.740,12.000 19.740 C 18.263 19.740,18.717 19.735,18.960 19.670 C 19.372 19.559,19.835 19.310,20.123 19.047 C 20.414 18.780,21.539 17.537,21.656 17.354 C 21.703 17.279,21.732 17.158,21.734 17.026 C 21.740 16.602,21.434 16.271,21.033 16.267 C 20.690 16.263,20.582 16.343,19.899 17.103 C 19.556 17.485,19.194 17.869,19.095 17.956 C 18.747 18.262,19.305 18.240,12.000 18.240 C 4.695 18.240,5.253 18.262,4.905 17.956 C 4.806 17.869,4.444 17.485,4.101 17.103 C 3.757 16.720,3.418 16.380,3.348 16.347 C 3.176 16.266,2.967 16.239,2.811 16.278 M6.673 20.063 C 6.312 20.174,6.000 20.609,6.000 21.000 C 6.000 21.524,6.476 22.000,7.000 22.000 C 7.520 22.000,8.000 21.520,8.000 21.000 C 8.000 20.598,7.688 20.173,7.310 20.061 C 7.062 19.987,6.919 19.988,6.673 20.063 M16.673 20.063 C 16.312 20.174,16.000 20.609,16.000 21.000 C 16.000 21.524,16.476 22.000,17.000 22.000 C 17.520 22.000,18.000 21.520,18.000 21.000 C 18.000 20.598,17.688 20.173,17.310 20.061 C 17.062 19.987,16.919 19.988,16.673 20.063 " stroke="none" fill-rule="evenodd" fill="black"></path></svg>