<svg width="24" height="24" viewBox="0 0 24 24" fill="none" xmlns="http://www.w3.org/2000/svg"><path d="M18.320 1.359 C 17.793 1.472,17.332 1.656,16.420 2.119 C 14.995 2.843,13.143 3.926,11.880 4.774 C 10.644 5.604,8.076 7.576,7.199 8.367 C 5.965 9.482,5.392 10.452,5.283 11.613 C 5.182 12.679,5.474 13.635,6.187 14.572 C 6.427 14.887,7.153 15.613,7.620 16.005 C 8.663 16.881,10.895 18.564,11.951 19.271 C 13.773 20.491,16.723 22.128,17.729 22.476 C 18.557 22.763,19.369 22.798,20.005 22.574 C 21.031 22.213,21.750 21.325,22.097 19.988 C 22.335 19.071,22.459 17.976,22.619 15.380 C 22.780 12.761,22.775 11.133,22.599 8.320 C 22.420 5.464,22.254 4.299,21.892 3.380 C 21.461 2.286,20.709 1.579,19.720 1.337 C 19.408 1.260,18.728 1.271,18.320 1.359 M19.620 2.874 C 19.939 3.026,20.246 3.356,20.421 3.733 C 20.759 4.466,20.912 5.442,21.079 7.940 C 21.301 11.272,21.301 12.691,21.079 16.060 C 20.876 19.123,20.654 20.167,20.073 20.785 C 19.520 21.373,18.909 21.389,17.690 20.845 C 17.186 20.620,16.500 20.254,15.260 19.547 C 13.207 18.378,12.178 17.680,9.860 15.880 C 8.031 14.459,7.351 13.789,7.001 13.060 C 6.818 12.679,6.760 12.425,6.760 12.000 C 6.760 11.575,6.818 11.321,7.001 10.940 C 7.339 10.237,8.025 9.550,9.675 8.263 C 12.329 6.192,13.378 5.494,16.156 3.948 C 18.169 2.828,18.989 2.574,19.620 2.874 M1.815 4.277 C 1.638 4.321,1.461 4.456,1.353 4.631 L 1.260 4.780 1.260 12.500 L 1.260 20.220 1.353 20.369 C 1.710 20.943,2.576 20.812,2.716 20.162 C 2.776 19.883,2.777 5.101,2.717 4.841 C 2.623 4.432,2.215 4.177,1.815 4.277 " stroke="none" fill-rule="evenodd" fill="black"></path></svg>