<svg width="24" height="24" viewBox="0 0 24 24" fill="none" xmlns="http://www.w3.org/2000/svg"><path d="M4.260 1.339 C 3.511 1.529,2.820 2.056,2.410 2.750 C 1.831 3.730,1.614 4.929,1.400 8.320 C 1.218 11.206,1.218 12.794,1.400 15.680 C 1.614 19.071,1.831 20.270,2.410 21.250 C 2.730 21.792,3.313 22.311,3.841 22.522 C 4.567 22.813,5.429 22.784,6.377 22.438 C 7.396 22.066,10.307 20.440,12.060 19.263 C 13.292 18.437,15.672 16.622,16.644 15.768 C 18.010 14.568,18.594 13.615,18.716 12.390 C 18.821 11.332,18.527 10.366,17.813 9.428 C 17.573 9.113,16.847 8.387,16.380 7.995 C 15.340 7.122,13.139 5.462,12.059 4.737 C 10.314 3.564,7.397 1.935,6.377 1.562 C 5.654 1.298,4.785 1.207,4.260 1.339 M5.526 2.857 C 6.168 3.044,6.936 3.425,8.740 4.453 C 10.765 5.605,11.810 6.313,14.040 8.042 C 15.944 9.517,16.646 10.205,16.999 10.940 C 17.182 11.321,17.240 11.575,17.240 12.000 C 17.240 12.425,17.182 12.679,16.999 13.060 C 16.646 13.795,15.944 14.483,14.040 15.958 C 11.810 17.687,10.765 18.395,8.740 19.547 C 7.500 20.254,6.814 20.620,6.310 20.845 C 5.091 21.389,4.480 21.373,3.927 20.785 C 3.343 20.164,3.124 19.139,2.922 16.080 C 2.698 12.697,2.698 11.303,2.922 7.920 C 3.124 4.861,3.343 3.836,3.927 3.215 C 4.354 2.761,4.829 2.655,5.526 2.857 M21.815 4.277 C 21.638 4.321,21.461 4.456,21.353 4.631 L 21.260 4.780 21.260 12.500 L 21.260 20.220 21.353 20.369 C 21.710 20.943,22.576 20.812,22.716 20.162 C 22.776 19.883,22.777 5.101,22.717 4.841 C 22.623 4.432,22.215 4.177,21.815 4.277 " stroke="none" fill-rule="evenodd" fill="black"></path></svg>