<svg width="24" height="24" viewBox="0 0 24 24" fill="none" xmlns="http://www.w3.org/2000/svg"><path d="M6.840 1.282 C 5.917 1.361,5.399 1.755,5.174 2.549 C 5.121 2.735,5.105 3.035,5.091 4.100 L 5.075 5.420 3.200 11.640 C 2.169 15.061,1.305 17.977,1.279 18.120 C 1.161 18.774,1.404 19.602,1.853 20.074 C 2.434 20.685,4.382 21.565,6.240 22.055 C 8.056 22.534,9.755 22.735,12.000 22.735 C 14.245 22.735,15.919 22.537,17.753 22.056 C 19.517 21.593,21.385 20.770,22.045 20.167 C 22.568 19.688,22.850 18.834,22.721 18.120 C 22.695 17.977,21.831 15.061,20.800 11.640 L 18.926 5.420 18.907 4.100 C 18.888 2.705,18.867 2.526,18.673 2.146 C 18.474 1.757,18.018 1.429,17.520 1.317 C 17.261 1.259,7.483 1.227,6.840 1.282 M17.328 2.832 C 17.367 2.871,17.383 3.119,17.393 3.822 L 17.405 4.760 12.003 4.760 L 6.600 4.760 6.604 3.890 C 6.606 3.411,6.620 2.975,6.636 2.920 C 6.655 2.852,6.701 2.812,6.782 2.794 C 6.847 2.780,9.235 2.771,12.088 2.774 C 16.282 2.779,17.286 2.790,17.328 2.832 M9.120 6.327 C 9.120 6.419,7.238 20.734,7.224 20.749 C 7.206 20.768,6.147 20.477,5.670 20.322 C 4.738 20.018,3.435 19.429,3.054 19.138 C 2.883 19.007,2.760 18.741,2.760 18.497 C 2.760 18.352,3.236 16.721,4.562 12.320 C 5.553 9.031,6.371 6.317,6.381 6.290 C 6.394 6.251,6.705 6.240,7.759 6.240 L 9.120 6.240 9.120 6.327 M14.312 13.635 C 14.846 17.691,15.278 21.015,15.272 21.021 C 15.250 21.043,14.182 21.160,13.640 21.200 C 12.944 21.251,11.056 21.251,10.360 21.200 C 9.815 21.160,8.750 21.043,8.728 21.021 C 8.714 21.007,10.635 6.367,10.661 6.289 C 10.674 6.250,10.965 6.241,12.009 6.249 L 13.340 6.260 14.312 13.635 M17.616 6.305 C 17.630 6.341,18.451 9.055,19.441 12.336 C 20.761 16.713,21.240 18.354,21.240 18.498 C 21.240 18.740,21.117 19.007,20.946 19.138 C 20.565 19.429,19.262 20.018,18.330 20.322 C 17.853 20.477,16.794 20.768,16.776 20.749 C 16.761 20.734,14.880 6.421,14.880 6.328 L 14.880 6.240 16.236 6.240 C 17.451 6.240,17.594 6.247,17.616 6.305 " fill="#1C274C" stroke="none" fill-rule="evenodd"></path></svg>