<svg width="24" height="24" viewBox="0 0 24 24" fill="none" xmlns="http://www.w3.org/2000/svg"><path d="M9.020 1.279 C 6.976 1.330,5.856 1.466,4.900 1.779 C 3.060 2.382,1.958 3.688,1.563 5.734 C 1.311 7.042,1.267 7.973,1.267 12.000 C 1.267 16.027,1.311 16.958,1.563 18.266 C 2.013 20.599,3.401 21.987,5.734 22.437 C 7.043 22.690,7.974 22.734,12.000 22.734 C 16.026 22.734,16.957 22.690,18.266 22.437 C 20.599 21.987,21.987 20.599,22.437 18.266 C 22.688 16.966,22.733 16.013,22.733 12.000 C 22.733 7.987,22.688 7.034,22.437 5.734 C 22.098 3.977,21.228 2.756,19.825 2.068 C 18.972 1.650,17.853 1.420,16.180 1.321 C 15.262 1.267,10.607 1.239,9.020 1.279 M16.600 2.836 C 18.439 3.019,19.320 3.320,20.000 4.000 C 20.692 4.693,20.998 5.605,21.168 7.480 C 21.242 8.307,21.242 15.693,21.168 16.520 C 20.995 18.427,20.692 19.314,19.966 20.031 C 19.337 20.654,18.428 20.975,16.820 21.144 C 16.288 21.199,15.577 21.214,12.620 21.229 C 8.221 21.252,7.082 21.205,5.923 20.954 C 4.231 20.588,3.373 19.699,3.021 17.947 C 2.796 16.825,2.780 16.431,2.781 11.980 C 2.782 7.664,2.793 7.353,2.984 6.240 C 3.183 5.082,3.600 4.278,4.272 3.760 C 5.025 3.178,6.058 2.913,8.002 2.802 C 8.872 2.752,16.044 2.780,16.600 2.836 M13.000 6.483 C 12.888 6.529,12.692 6.704,12.637 6.807 C 12.580 6.912,10.000 16.558,9.974 16.763 C 9.926 17.137,10.212 17.509,10.578 17.550 C 11.021 17.600,11.308 17.405,11.437 16.966 C 11.664 16.195,14.014 7.355,14.031 7.213 C 14.055 6.998,13.925 6.719,13.731 6.571 C 13.620 6.486,13.539 6.461,13.345 6.452 C 13.210 6.446,13.055 6.460,13.000 6.483 " stroke="none" fill-rule="evenodd" fill="black"></path></svg>