<svg width="24" height="24" viewBox="0 0 24 24" fill="none" xmlns="http://www.w3.org/2000/svg"><path d="M11.310 1.283 C 8.365 1.460,5.598 2.877,3.701 5.180 C 0.456 9.118,0.446 14.850,3.676 18.788 C 6.773 22.564,11.964 23.789,16.418 21.795 C 18.766 20.745,20.745 18.763,21.798 16.412 C 22.772 14.238,22.998 11.768,22.436 9.450 C 21.419 5.255,17.924 2.044,13.657 1.383 C 13.303 1.328,12.042 1.231,11.880 1.246 C 11.847 1.249,11.590 1.266,11.310 1.283 M13.146 2.822 C 14.895 3.051,16.592 3.782,17.878 4.859 C 18.914 5.728,19.725 6.758,20.304 7.940 C 20.940 9.239,21.240 10.538,21.240 12.000 C 21.240 13.462,20.940 14.764,20.304 16.060 C 18.921 18.877,16.278 20.768,13.146 21.178 C 12.214 21.301,10.974 21.244,10.002 21.034 C 8.667 20.747,7.178 20.022,6.140 19.153 C 4.272 17.590,3.134 15.531,2.822 13.146 C 2.699 12.214,2.756 10.974,2.966 10.002 C 3.177 9.020,3.703 7.775,4.268 6.920 C 5.750 4.677,8.131 3.188,10.820 2.823 C 11.380 2.746,12.569 2.746,13.146 2.822 M13.000 6.483 C 12.888 6.529,12.692 6.704,12.637 6.807 C 12.580 6.912,10.000 16.558,9.974 16.763 C 9.926 17.137,10.212 17.509,10.578 17.550 C 11.021 17.600,11.308 17.405,11.437 16.966 C 11.664 16.195,14.014 7.355,14.031 7.213 C 14.055 6.998,13.925 6.719,13.731 6.571 C 13.620 6.486,13.539 6.461,13.345 6.452 C 13.210 6.446,13.055 6.460,13.000 6.483 " stroke="none" fill-rule="evenodd" fill="black"></path></svg>