<svg width="24" height="24" viewBox="0 0 24 24" fill="none" xmlns="http://www.w3.org/2000/svg"><path d="M10.954 1.284 C 10.388 1.357,9.662 1.711,9.066 2.203 C 8.333 2.808,6.090 5.035,5.368 5.874 C 4.621 6.742,4.280 7.496,4.280 8.280 C 4.280 9.024,4.553 9.684,5.191 10.484 C 5.421 10.773,6.610 12.044,7.055 12.478 L 7.280 12.697 4.547 15.438 C 2.741 17.250,1.759 18.265,1.650 18.431 C 1.135 19.215,1.131 20.167,1.640 20.954 C 1.842 21.268,2.732 22.158,3.046 22.360 C 3.664 22.760,4.431 22.847,5.106 22.594 C 5.561 22.424,5.777 22.228,8.562 19.453 L 11.303 16.721 11.522 16.945 C 11.956 17.390,13.227 18.579,13.516 18.809 C 15.160 20.120,16.567 20.032,18.264 18.510 C 19.248 17.627,21.229 15.622,21.798 14.934 C 22.681 13.863,22.939 12.791,22.561 11.757 C 22.294 11.026,21.869 10.475,20.489 9.074 L 19.715 8.289 19.971 8.004 C 20.287 7.653,20.418 7.417,20.521 7.017 C 20.663 6.460,20.612 5.983,20.352 5.440 C 20.203 5.129,20.134 5.045,19.544 4.456 C 18.955 3.866,18.871 3.797,18.560 3.648 C 18.017 3.388,17.540 3.337,16.983 3.479 C 16.586 3.581,16.360 3.706,15.999 4.024 L 15.707 4.281 14.923 3.509 C 13.526 2.132,12.974 1.705,12.244 1.439 C 11.991 1.347,11.341 1.221,11.241 1.245 C 11.229 1.248,11.100 1.266,10.954 1.284 M11.923 2.928 C 12.086 3.009,12.373 3.197,12.560 3.345 C 13.003 3.695,20.305 10.997,20.655 11.440 C 21.196 12.124,21.348 12.631,21.161 13.128 C 20.955 13.676,20.491 14.226,18.850 15.866 C 17.283 17.431,16.784 17.862,16.247 18.113 C 16.064 18.199,15.961 18.220,15.717 18.220 C 15.441 18.220,15.384 18.205,15.077 18.053 C 14.467 17.749,13.973 17.286,9.897 13.194 C 6.403 9.686,6.198 9.463,5.908 8.849 C 5.799 8.621,5.780 8.535,5.780 8.280 C 5.781 7.623,6.145 7.138,8.137 5.146 C 10.184 3.099,10.659 2.748,11.343 2.771 C 11.577 2.779,11.677 2.806,11.923 2.928 M17.805 4.941 C 18.060 5.031,18.974 5.944,19.059 6.196 C 19.131 6.407,19.133 6.452,19.078 6.650 C 19.040 6.788,18.761 7.160,18.670 7.195 C 18.624 7.212,16.799 5.401,16.801 5.340 C 16.804 5.272,17.159 4.991,17.314 4.936 C 17.507 4.867,17.595 4.868,17.805 4.941 M7.510 18.388 C 5.544 20.351,4.734 21.135,4.622 21.182 C 4.426 21.264,4.177 21.265,3.985 21.184 C 3.788 21.102,2.898 20.212,2.816 20.015 C 2.735 19.823,2.736 19.574,2.818 19.378 C 2.865 19.266,3.651 18.454,5.611 16.491 L 8.338 13.759 9.290 14.709 L 10.242 15.660 7.510 18.388 " stroke="none" fill-rule="evenodd" fill="black"></path></svg>