<svg width="24" height="24" viewBox="0 0 24 24" fill="none" xmlns="http://www.w3.org/2000/svg"><path d="M8.960 1.283 C 6.976 1.330,5.854 1.467,4.900 1.779 C 3.060 2.382,1.958 3.688,1.563 5.734 C 1.311 7.042,1.267 7.973,1.267 12.000 C 1.267 16.027,1.311 16.958,1.563 18.266 C 2.013 20.599,3.401 21.987,5.734 22.437 C 7.034 22.688,7.987 22.733,12.000 22.733 C 16.013 22.733,16.966 22.688,18.266 22.437 C 20.599 21.987,21.987 20.599,22.437 18.266 C 22.636 17.232,22.703 16.250,22.743 13.759 C 22.774 11.840,22.762 11.722,22.523 11.483 C 22.173 11.133,21.619 11.203,21.353 11.631 L 21.260 11.780 21.234 13.920 C 21.209 16.032,21.179 16.638,21.055 17.500 C 20.734 19.744,19.757 20.726,17.520 21.054 C 16.474 21.207,16.036 21.220,12.000 21.220 C 7.964 21.220,7.526 21.207,6.480 21.054 C 4.384 20.747,3.408 19.870,3.021 17.947 C 2.796 16.826,2.780 16.428,2.780 12.000 C 2.780 7.572,2.796 7.174,3.021 6.053 C 3.383 4.255,4.256 3.382,6.053 3.021 C 6.950 2.841,7.693 2.794,9.900 2.774 C 11.052 2.763,12.033 2.737,12.154 2.714 C 12.902 2.569,12.929 1.473,12.189 1.286 C 11.986 1.235,11.027 1.234,8.960 1.283 M20.295 1.277 C 20.100 1.325,16.596 3.359,16.454 3.506 C 16.290 3.677,16.217 3.965,16.279 4.197 C 16.377 4.561,16.807 4.815,17.162 4.720 C 17.249 4.696,17.711 4.451,18.190 4.175 C 19.264 3.554,19.283 3.544,19.260 3.610 C 19.129 3.990,18.267 7.348,18.266 7.483 C 18.263 7.904,18.623 8.228,19.055 8.192 C 19.242 8.177,19.455 8.064,21.101 7.113 C 23.154 5.927,23.163 5.919,23.192 5.526 C 23.219 5.154,23.035 4.870,22.693 4.758 C 22.403 4.662,22.264 4.715,21.221 5.320 C 20.679 5.633,20.229 5.882,20.220 5.873 C 20.211 5.864,20.427 5.020,20.701 3.998 C 20.975 2.976,21.200 2.069,21.200 1.983 C 21.201 1.529,20.736 1.167,20.295 1.277 M13.709 4.841 C 13.626 4.886,13.505 4.997,13.439 5.087 C 13.341 5.223,13.320 5.291,13.320 5.476 C 13.320 5.759,13.411 5.943,13.628 6.099 C 13.720 6.166,13.796 6.230,13.798 6.241 C 13.799 6.253,13.567 6.323,13.281 6.397 C 12.989 6.472,12.701 6.573,12.622 6.627 C 12.316 6.834,12.222 7.312,12.425 7.625 C 12.482 7.714,12.559 7.805,12.595 7.828 C 12.632 7.850,13.075 8.110,13.581 8.405 L 14.500 8.940 14.783 8.940 C 15.032 8.940,15.084 8.926,15.213 8.828 C 15.633 8.508,15.614 7.896,15.176 7.605 L 14.996 7.487 15.208 7.427 C 15.325 7.394,15.569 7.327,15.751 7.279 C 16.154 7.172,16.306 7.074,16.427 6.844 C 16.606 6.504,16.508 6.104,16.194 5.892 C 16.098 5.827,15.633 5.551,15.161 5.279 C 14.384 4.831,14.280 4.783,14.081 4.771 C 13.917 4.762,13.821 4.780,13.709 4.841 M6.420 10.259 C 6.398 10.267,6.331 10.284,6.271 10.297 C 6.124 10.329,5.881 10.548,5.814 10.708 C 5.744 10.875,5.745 11.127,5.816 11.298 C 5.928 11.565,6.535 12.097,7.047 12.376 C 7.924 12.854,9.065 12.854,9.953 12.375 C 10.460 12.101,11.071 11.566,11.184 11.298 C 11.386 10.812,11.041 10.274,10.523 10.269 C 10.251 10.266,10.185 10.299,9.827 10.625 C 9.626 10.808,9.386 10.979,9.202 11.071 C 8.917 11.214,8.887 11.220,8.500 11.220 C 8.113 11.220,8.083 11.214,7.798 11.071 C 7.614 10.979,7.374 10.808,7.173 10.625 C 6.993 10.461,6.813 10.318,6.773 10.307 C 6.642 10.269,6.461 10.245,6.420 10.259 M13.420 10.259 C 13.398 10.267,13.331 10.284,13.271 10.297 C 13.124 10.329,12.881 10.548,12.814 10.708 C 12.744 10.875,12.745 11.127,12.816 11.298 C 12.928 11.565,13.535 12.097,14.047 12.376 C 14.922 12.854,16.078 12.854,16.953 12.376 C 17.465 12.097,18.072 11.565,18.184 11.298 C 18.386 10.812,18.041 10.274,17.523 10.269 C 17.251 10.266,17.185 10.299,16.827 10.625 C 16.626 10.808,16.386 10.979,16.202 11.071 C 15.917 11.214,15.887 11.220,15.500 11.220 C 15.113 11.220,15.083 11.214,14.798 11.071 C 14.614 10.979,14.374 10.808,14.173 10.625 C 13.993 10.461,13.813 10.318,13.773 10.307 C 13.642 10.269,13.461 10.245,13.420 10.259 M11.667 15.065 C 11.303 15.177,11.000 15.602,11.000 16.000 C 11.000 16.517,11.483 17.000,12.000 17.000 C 12.517 17.000,13.000 16.517,13.000 16.000 C 13.000 15.598,12.688 15.173,12.310 15.061 C 12.061 14.987,11.919 14.988,11.667 15.065 " stroke="none" fill-rule="evenodd" fill="black"></path></svg>