<svg width="24" height="24" viewBox="0 0 24 24" fill="none" xmlns="http://www.w3.org/2000/svg"><path d="M10.060 1.279 C 8.344 1.333,7.536 1.511,6.794 1.999 C 6.091 2.460,5.640 3.209,5.436 4.251 C 5.270 5.103,5.260 5.534,5.260 12.000 C 5.260 18.466,5.270 18.897,5.436 19.749 C 5.749 21.354,6.621 22.230,8.233 22.559 C 8.892 22.693,9.700 22.730,11.980 22.731 C 14.265 22.732,15.096 22.694,15.772 22.557 C 17.372 22.233,18.233 21.372,18.557 19.772 C 18.729 18.925,18.739 18.468,18.739 12.000 C 18.739 5.532,18.729 5.075,18.557 4.228 C 18.176 2.348,17.072 1.487,14.832 1.322 C 14.081 1.267,11.249 1.241,10.060 1.279 M15.119 2.836 C 15.782 2.934,16.263 3.117,16.555 3.380 C 16.743 3.550,16.968 3.977,17.060 4.340 C 17.218 4.960,17.220 5.078,17.220 12.020 C 17.220 18.254,17.215 18.772,17.149 19.186 C 16.935 20.537,16.473 20.976,15.060 21.170 C 14.553 21.240,9.447 21.240,8.940 21.170 C 8.236 21.073,7.748 20.894,7.445 20.620 C 7.147 20.351,6.932 19.806,6.830 19.060 C 6.758 18.539,6.758 5.461,6.830 4.940 C 6.964 3.962,7.236 3.440,7.749 3.171 C 8.169 2.950,8.576 2.854,9.307 2.802 C 9.988 2.753,14.750 2.781,15.119 2.836 M2.699 3.816 C 2.550 3.881,2.332 4.124,2.291 4.271 C 2.251 4.414,2.251 19.586,2.291 19.729 C 2.333 19.881,2.553 20.121,2.708 20.186 C 2.873 20.255,3.127 20.255,3.292 20.186 C 3.447 20.121,3.667 19.881,3.709 19.729 C 3.749 19.586,3.749 4.414,3.709 4.271 C 3.667 4.119,3.447 3.879,3.292 3.814 C 3.130 3.746,2.857 3.747,2.699 3.816 M20.699 3.816 C 20.550 3.881,20.332 4.124,20.291 4.271 C 20.251 4.414,20.251 19.586,20.291 19.729 C 20.333 19.881,20.553 20.121,20.708 20.186 C 20.873 20.255,21.127 20.255,21.292 20.186 C 21.447 20.121,21.667 19.881,21.709 19.729 C 21.749 19.586,21.749 4.414,21.709 4.271 C 21.667 4.119,21.447 3.879,21.292 3.814 C 21.130 3.746,20.857 3.747,20.699 3.816 " stroke="none" fill-rule="evenodd" fill="black"></path></svg>