<svg width="24" height="24" viewBox="0 0 24 24" fill="none" xmlns="http://www.w3.org/2000/svg"><path d="M10.060 1.279 C 8.725 1.323,8.168 1.401,7.519 1.638 C 6.616 1.967,6.001 2.564,5.672 3.430 L 5.546 3.760 5.083 3.761 C 4.147 3.762,3.542 3.869,3.017 4.124 C 2.221 4.512,1.608 5.270,1.400 6.125 C 1.269 6.663,1.243 7.632,1.243 12.000 C 1.243 16.356,1.269 17.338,1.398 17.870 C 1.589 18.651,2.096 19.335,2.803 19.762 C 3.335 20.083,3.799 20.190,4.825 20.226 L 5.551 20.252 5.674 20.576 C 6.081 21.646,6.911 22.289,8.233 22.559 C 8.892 22.693,9.700 22.730,11.980 22.731 C 14.265 22.732,15.096 22.694,15.772 22.557 C 17.087 22.291,17.920 21.645,18.326 20.576 L 18.449 20.252 19.175 20.226 C 20.406 20.183,20.911 20.026,21.593 19.479 C 22.061 19.103,22.453 18.479,22.600 17.875 C 22.731 17.337,22.757 16.368,22.757 12.000 C 22.757 7.644,22.731 6.662,22.602 6.130 C 22.411 5.349,21.904 4.665,21.197 4.238 C 20.665 3.917,20.201 3.810,19.175 3.774 L 18.449 3.748 18.326 3.424 C 17.830 2.119,16.738 1.462,14.832 1.322 C 14.077 1.266,11.243 1.241,10.060 1.279 M15.119 2.836 C 15.782 2.934,16.263 3.117,16.555 3.380 C 16.743 3.550,16.968 3.977,17.060 4.340 C 17.218 4.960,17.220 5.078,17.220 12.020 C 17.220 18.254,17.215 18.772,17.149 19.186 C 16.935 20.537,16.473 20.976,15.060 21.170 C 14.553 21.240,9.447 21.240,8.940 21.170 C 8.236 21.073,7.748 20.894,7.445 20.620 C 7.147 20.351,6.932 19.806,6.830 19.060 C 6.758 18.539,6.758 5.461,6.830 4.940 C 6.964 3.962,7.236 3.440,7.749 3.171 C 8.169 2.950,8.576 2.854,9.307 2.802 C 9.988 2.753,14.750 2.781,15.119 2.836 M5.291 5.570 C 5.250 6.004,5.251 18.001,5.291 18.435 L 5.323 18.771 4.811 18.744 C 4.190 18.711,3.921 18.661,3.665 18.532 C 3.429 18.413,3.133 18.125,2.984 17.870 C 2.762 17.492,2.763 17.510,2.763 12.000 C 2.763 6.490,2.762 6.508,2.984 6.130 C 3.200 5.761,3.611 5.435,3.980 5.341 C 4.126 5.303,4.683 5.254,5.051 5.246 L 5.322 5.240 5.291 5.570 M19.920 5.326 C 20.361 5.413,20.773 5.715,21.016 6.130 C 21.238 6.508,21.237 6.490,21.237 12.000 C 21.237 17.510,21.238 17.492,21.016 17.870 C 20.867 18.125,20.571 18.413,20.335 18.532 C 20.079 18.661,19.810 18.711,19.189 18.744 L 18.678 18.771 18.709 18.375 C 18.750 17.860,18.750 6.140,18.709 5.625 L 18.678 5.229 19.189 5.256 C 19.470 5.271,19.799 5.302,19.920 5.326 " stroke="none" fill-rule="evenodd" fill="black"></path></svg>