<svg width="24" height="24" viewBox="0 0 24 24" fill="none" xmlns="http://www.w3.org/2000/svg"><path d="M7.100 1.281 C 6.127 1.328,5.534 1.521,4.951 1.979 C 4.472 2.357,4.045 3.017,3.904 3.600 C 3.817 3.960,3.762 4.535,3.761 5.083 L 3.760 5.546 3.430 5.672 C 2.110 6.174,1.474 7.237,1.315 9.209 C 1.254 9.965,1.254 14.035,1.315 14.791 C 1.473 16.759,2.110 17.826,3.424 18.326 L 3.748 18.449 3.774 19.175 C 3.810 20.201,3.917 20.665,4.238 21.197 C 4.665 21.904,5.349 22.411,6.130 22.602 C 6.662 22.731,7.644 22.757,12.000 22.757 C 16.368 22.757,17.337 22.731,17.875 22.600 C 18.479 22.453,19.103 22.061,19.479 21.593 C 20.026 20.911,20.183 20.406,20.226 19.175 L 20.252 18.449 20.576 18.326 C 21.645 17.920,22.291 17.087,22.557 15.772 C 22.693 15.100,22.732 14.263,22.732 12.000 C 22.732 9.737,22.693 8.900,22.557 8.228 C 22.291 6.913,21.645 6.080,20.576 5.674 L 20.252 5.551 20.226 4.825 C 20.190 3.799,20.083 3.335,19.762 2.803 C 19.446 2.281,19.016 1.888,18.450 1.604 C 18.053 1.405,17.632 1.323,16.800 1.280 C 15.951 1.237,8.003 1.238,7.100 1.281 M17.371 2.818 C 17.732 2.883,17.975 3.012,18.245 3.282 C 18.598 3.634,18.698 3.942,18.744 4.811 L 18.771 5.323 18.435 5.291 C 17.998 5.250,6.002 5.250,5.565 5.291 L 5.229 5.323 5.256 4.811 C 5.302 3.942,5.402 3.634,5.755 3.282 C 6.018 3.018,6.272 2.881,6.610 2.820 C 7.049 2.740,16.926 2.739,17.371 2.818 M19.136 6.834 C 19.839 6.947,20.366 7.164,20.620 7.445 C 20.793 7.637,20.971 7.999,21.059 8.340 C 21.205 8.907,21.220 9.245,21.220 12.020 C 21.220 14.428,21.212 14.791,21.149 15.186 C 20.935 16.537,20.473 16.976,19.060 17.170 C 18.539 17.242,5.461 17.242,4.940 17.170 C 4.435 17.101,4.145 17.021,3.815 16.860 C 3.244 16.581,2.970 16.080,2.830 15.060 C 2.760 14.553,2.760 9.447,2.830 8.940 C 2.964 7.962,3.236 7.440,3.749 7.171 C 4.171 6.950,4.579 6.853,5.307 6.803 C 6.042 6.751,18.802 6.780,19.136 6.834 M12.000 18.740 C 15.289 18.740,18.158 18.726,18.375 18.709 L 18.771 18.678 18.744 19.189 C 18.698 20.058,18.598 20.366,18.245 20.718 C 17.975 20.988,17.732 21.117,17.371 21.182 C 16.911 21.264,7.089 21.264,6.629 21.182 C 6.268 21.117,6.025 20.988,5.755 20.718 C 5.402 20.366,5.302 20.058,5.256 19.189 L 5.229 18.678 5.625 18.709 C 5.842 18.726,8.711 18.740,12.000 18.740 " stroke="none" fill-rule="evenodd" fill="black"></path></svg>