<svg width="24" height="24" viewBox="0 0 24 24" fill="none" xmlns="http://www.w3.org/2000/svg"><path d="M9.253 1.284 C 8.570 1.363,7.894 1.711,7.030 2.430 C 6.594 2.793,3.610 5.741,2.891 6.520 C 2.617 6.817,2.259 7.236,2.096 7.452 C 1.770 7.884,1.439 8.522,1.341 8.911 C 1.071 9.976,1.382 10.950,2.378 12.160 C 2.864 12.751,11.454 21.320,11.966 21.724 C 12.515 22.158,12.952 22.419,13.367 22.562 C 14.586 22.981,15.589 22.710,16.940 21.596 C 17.460 21.167,21.167 17.460,21.596 16.940 C 22.423 15.937,22.734 15.239,22.735 14.380 C 22.737 13.518,22.433 12.827,21.612 11.829 C 21.231 11.365,12.660 2.790,12.200 2.413 C 11.068 1.483,10.248 1.169,9.253 1.284 M16.815 1.278 C 16.500 1.353,16.270 1.645,16.267 1.974 C 16.263 2.382,16.477 2.632,16.922 2.740 C 18.256 3.062,19.127 3.563,19.927 4.467 C 20.359 4.956,20.783 5.673,20.958 6.213 C 21.018 6.397,20.998 6.427,20.869 6.342 C 20.814 6.306,20.679 6.267,20.568 6.254 C 19.996 6.186,19.580 6.801,19.847 7.320 C 19.927 7.474,20.039 7.568,20.620 7.967 C 21.484 8.560,21.681 8.680,21.868 8.722 C 22.094 8.773,22.345 8.695,22.520 8.520 C 22.725 8.315,22.762 8.133,22.718 7.540 C 22.664 6.825,22.593 6.452,22.393 5.840 C 21.645 3.548,19.703 1.801,17.366 1.317 C 17.160 1.275,16.980 1.242,16.966 1.244 C 16.952 1.246,16.884 1.262,16.815 1.278 M10.100 2.837 C 10.382 2.936,10.696 3.129,11.120 3.465 C 11.470 3.741,19.426 11.649,20.111 12.400 C 20.595 12.931,20.922 13.370,21.088 13.712 C 21.206 13.956,21.218 14.014,21.219 14.360 C 21.220 14.715,21.211 14.760,21.076 15.040 C 20.765 15.687,20.233 16.283,17.915 18.582 C 16.302 20.182,15.870 20.576,15.380 20.890 C 14.950 21.166,14.667 21.254,14.291 21.231 C 13.782 21.199,13.397 20.984,12.580 20.274 C 11.985 19.757,3.777 11.515,3.464 11.120 C 2.914 10.426,2.738 10.026,2.768 9.544 C 2.799 9.068,3.063 8.590,3.696 7.860 C 4.090 7.406,7.131 4.354,7.674 3.868 C 8.373 3.242,8.804 2.948,9.220 2.816 C 9.461 2.740,9.850 2.749,10.100 2.837 M8.702 4.858 C 8.468 4.944,4.947 8.468,4.854 8.709 C 4.608 9.355,5.374 9.946,5.962 9.565 C 6.195 9.414,9.532 6.059,9.616 5.892 C 9.714 5.695,9.699 5.379,9.581 5.178 C 9.406 4.879,9.025 4.740,8.702 4.858 M15.171 13.622 C 13.807 13.989,13.149 15.519,13.814 16.780 C 14.163 17.444,14.959 17.917,15.728 17.919 C 16.736 17.922,17.667 17.163,17.875 16.168 C 18.108 15.062,17.388 13.903,16.294 13.623 C 15.994 13.546,15.454 13.545,15.171 13.622 M16.044 15.133 C 16.273 15.254,16.398 15.469,16.399 15.744 C 16.401 16.337,15.677 16.635,15.257 16.214 C 14.919 15.876,15.007 15.348,15.439 15.130 C 15.665 15.015,15.822 15.016,16.044 15.133 M1.785 15.289 C 1.576 15.345,1.344 15.582,1.290 15.797 C 1.233 16.020,1.293 16.875,1.401 17.394 C 1.928 19.932,3.830 21.953,6.302 22.603 C 6.933 22.769,7.188 22.772,7.408 22.617 C 7.816 22.328,7.844 21.710,7.462 21.419 C 7.392 21.366,7.219 21.294,7.078 21.260 C 5.744 20.938,4.873 20.437,4.073 19.533 C 3.641 19.044,3.217 18.327,3.042 17.787 C 2.982 17.603,3.002 17.573,3.131 17.658 C 3.186 17.694,3.321 17.733,3.432 17.746 C 3.971 17.810,4.382 17.264,4.184 16.746 C 4.148 16.650,4.078 16.536,4.029 16.491 C 3.913 16.385,2.496 15.428,2.340 15.351 C 2.168 15.265,1.964 15.242,1.785 15.289 " fill="#1C274C" stroke="none" fill-rule="evenodd"></path></svg>