<svg width="24" height="24" viewBox="0 0 24 24" fill="none" xmlns="http://www.w3.org/2000/svg"><path d="M9.600 1.282 C 9.061 1.297,8.440 1.332,8.220 1.359 C 6.483 1.570,5.441 2.373,5.040 3.807 C 4.910 4.272,4.843 4.767,4.801 5.582 C 4.745 6.643,4.747 17.119,4.803 17.267 C 4.856 17.409,5.024 17.588,5.179 17.669 C 5.333 17.750,5.668 17.749,5.825 17.668 C 6.000 17.577,6.192 17.344,6.218 17.191 C 6.230 17.119,6.246 14.459,6.254 11.280 C 6.264 7.117,6.282 5.379,6.317 5.067 C 6.489 3.523,6.968 3.021,8.452 2.832 C 9.035 2.758,14.965 2.758,15.548 2.832 C 16.807 2.993,17.308 3.370,17.558 4.347 C 17.724 4.993,17.731 5.268,17.746 11.280 C 17.754 14.459,17.770 17.119,17.782 17.191 C 17.808 17.344,18.000 17.577,18.175 17.668 C 18.332 17.749,18.667 17.750,18.821 17.669 C 18.976 17.588,19.144 17.409,19.197 17.267 C 19.253 17.119,19.255 6.643,19.199 5.582 C 19.116 3.988,18.865 3.163,18.256 2.471 C 17.745 1.892,16.857 1.490,15.800 1.362 C 14.947 1.258,11.809 1.217,9.600 1.282 M8.815 4.278 C 8.331 4.393,8.098 5.004,8.383 5.408 C 8.447 5.499,8.572 5.610,8.660 5.656 C 8.818 5.739,8.865 5.740,11.878 5.751 C 14.020 5.759,15.000 5.749,15.151 5.718 C 15.902 5.562,15.931 4.473,15.189 4.286 C 14.979 4.234,9.033 4.226,8.815 4.278 M2.840 14.286 C 2.365 14.425,1.596 15.336,1.375 16.020 C 1.256 16.390,1.232 16.915,1.319 17.280 C 1.796 19.295,4.857 20.810,9.460 21.310 L 9.740 21.340 9.761 21.800 C 9.783 22.300,9.806 22.367,10.018 22.553 C 10.282 22.785,10.655 22.802,10.936 22.595 C 11.257 22.359,12.589 21.154,12.656 21.039 C 12.752 20.872,12.758 20.547,12.667 20.358 C 12.595 20.209,11.065 18.841,10.827 18.712 C 10.574 18.575,10.147 18.652,9.952 18.867 C 9.823 19.009,9.760 19.230,9.760 19.539 C 9.760 19.705,9.743 19.840,9.722 19.840 C 9.700 19.840,9.408 19.805,9.072 19.761 C 6.402 19.418,4.296 18.672,3.300 17.715 C 2.910 17.341,2.760 17.073,2.760 16.753 C 2.761 16.415,2.902 16.168,3.337 15.738 C 3.668 15.411,3.717 15.345,3.754 15.170 C 3.874 14.611,3.375 14.129,2.840 14.286 M20.745 14.288 C 20.384 14.387,20.150 14.807,20.246 15.186 C 20.285 15.342,20.354 15.433,20.665 15.740 C 20.921 15.992,21.070 16.176,21.139 16.324 C 21.359 16.797,21.225 17.217,20.692 17.724 C 19.693 18.677,17.576 19.422,14.902 19.765 C 14.551 19.810,14.218 19.870,14.162 19.899 C 13.656 20.163,13.631 20.924,14.119 21.194 C 14.349 21.321,14.469 21.326,15.137 21.239 C 18.168 20.845,20.507 19.976,21.755 18.781 C 22.443 18.122,22.729 17.516,22.730 16.720 C 22.731 16.022,22.428 15.382,21.802 14.759 C 21.345 14.305,21.094 14.193,20.745 14.288 " stroke="none" fill-rule="evenodd" fill="black"></path></svg>