<svg width="24" height="24" viewBox="0 0 24 24" fill="none" xmlns="http://www.w3.org/2000/svg"><path d="M11.320 1.281 C 7.041 1.525,3.252 4.409,1.843 8.497 C 1.180 10.418,1.082 12.560,1.564 14.550 C 1.931 16.065,2.682 17.585,3.630 18.734 L 3.890 19.049 2.629 20.314 C 1.936 21.010,1.346 21.625,1.318 21.680 C 1.290 21.735,1.267 21.881,1.267 22.004 C 1.267 22.498,1.682 22.817,2.189 22.711 C 2.370 22.673,2.447 22.605,3.666 21.391 L 4.952 20.111 5.266 20.370 C 5.900 20.893,6.794 21.443,7.588 21.798 C 9.765 22.772,12.230 22.998,14.550 22.436 C 16.064 22.069,17.585 21.318,18.734 20.370 L 19.048 20.111 20.334 21.391 C 21.550 22.602,21.630 22.673,21.810 22.711 C 22.390 22.831,22.831 22.390,22.711 21.810 C 22.673 21.630,22.602 21.550,21.391 20.334 L 20.111 19.048 20.370 18.734 C 21.105 17.843,21.756 16.665,22.157 15.503 C 22.819 13.585,22.918 11.437,22.436 9.450 C 21.425 5.282,17.985 2.095,13.742 1.398 C 13.334 1.331,12.074 1.229,11.880 1.247 C 11.847 1.250,11.595 1.265,11.320 1.281 M13.146 2.822 C 14.202 2.960,15.123 3.237,16.066 3.699 C 18.871 5.073,20.769 7.728,21.178 10.854 C 21.258 11.459,21.258 12.541,21.178 13.146 C 20.769 16.271,18.870 18.928,16.066 20.301 C 14.761 20.941,13.464 21.240,12.000 21.240 C 10.538 21.240,9.236 20.940,7.940 20.304 C 5.123 18.921,3.232 16.278,2.822 13.146 C 2.699 12.214,2.756 10.974,2.966 10.002 C 3.177 9.020,3.703 7.775,4.268 6.920 C 5.750 4.677,8.131 3.188,10.820 2.823 C 11.380 2.746,12.569 2.746,13.146 2.822 M11.740 5.266 C 10.415 5.385,9.327 6.085,8.719 7.212 C 8.400 7.803,8.271 8.320,8.271 9.000 C 8.271 9.682,8.400 10.197,8.721 10.792 C 9.078 11.453,9.549 11.923,10.212 12.281 C 10.803 12.600,11.320 12.729,12.000 12.729 C 12.680 12.729,13.197 12.600,13.788 12.281 C 14.451 11.923,14.922 11.453,15.279 10.792 C 15.600 10.197,15.729 9.682,15.729 9.000 C 15.729 8.320,15.600 7.803,15.281 7.212 C 14.832 6.381,14.122 5.779,13.215 5.463 C 12.793 5.316,12.149 5.230,11.740 5.266 M12.578 6.821 C 12.949 6.918,13.274 7.112,13.581 7.419 C 14.041 7.879,14.240 8.356,14.240 9.000 C 14.240 9.644,14.041 10.121,13.581 10.581 C 13.121 11.041,12.644 11.240,12.000 11.240 C 11.356 11.240,10.879 11.041,10.419 10.581 C 9.959 10.121,9.760 9.644,9.760 9.000 C 9.760 8.356,9.959 7.879,10.419 7.419 C 10.719 7.118,11.050 6.919,11.404 6.823 C 11.692 6.746,12.285 6.745,12.578 6.821 M11.815 15.277 C 11.638 15.321,11.461 15.456,11.353 15.631 C 11.261 15.778,11.260 15.793,11.260 17.000 C 11.260 18.207,11.261 18.222,11.353 18.369 C 11.710 18.943,12.576 18.812,12.716 18.162 C 12.772 17.901,12.773 16.083,12.717 15.841 C 12.623 15.432,12.215 15.177,11.815 15.277 " stroke="none" fill-rule="evenodd" fill="black"></path></svg>