<svg width="24" height="24" viewBox="0 0 24 24" fill="none" xmlns="http://www.w3.org/2000/svg"><path d="M11.571 1.282 C 10.723 1.386,10.013 1.676,8.520 2.530 C 7.355 3.196,4.458 4.945,3.841 5.353 C 2.062 6.533,1.407 7.504,1.283 9.147 C 1.233 9.799,1.263 10.174,1.381 10.380 C 1.612 10.786,2.234 10.857,2.545 10.514 C 2.718 10.323,2.737 10.237,2.765 9.540 C 2.803 8.577,2.921 8.209,3.359 7.687 C 3.670 7.318,4.039 7.015,4.760 6.539 C 5.658 5.946,8.809 4.065,9.903 3.467 C 11.624 2.529,12.376 2.529,14.097 3.467 C 15.138 4.035,18.291 5.916,19.198 6.509 C 20.842 7.585,21.239 8.198,21.240 9.660 C 21.240 10.283,21.144 11.113,20.777 13.680 C 20.277 17.174,20.032 18.493,19.754 19.197 C 19.402 20.088,18.922 20.594,18.170 20.869 C 17.495 21.115,16.787 21.197,15.020 21.235 C 13.818 21.260,13.775 21.264,13.631 21.353 C 13.047 21.715,13.184 22.581,13.846 22.717 C 14.087 22.766,16.244 22.713,16.940 22.640 C 18.088 22.521,18.979 22.239,19.635 21.790 C 20.157 21.431,20.640 20.829,20.977 20.116 C 21.433 19.153,21.627 18.247,22.137 14.700 C 22.723 10.623,22.788 10.001,22.718 9.138 C 22.630 8.049,22.310 7.281,21.641 6.551 C 21.040 5.895,20.346 5.420,17.519 3.732 C 14.460 1.904,13.717 1.529,12.800 1.346 C 12.390 1.265,11.917 1.240,11.571 1.282 M1.815 12.279 C 1.332 12.391,1.098 13.004,1.383 13.408 C 1.572 13.675,1.714 13.724,2.395 13.762 C 2.720 13.780,3.156 13.824,3.363 13.859 C 5.940 14.298,8.170 15.938,9.348 18.260 C 9.906 19.361,10.172 20.366,10.238 21.627 C 10.265 22.148,10.282 22.254,10.358 22.376 C 10.705 22.937,11.579 22.807,11.713 22.174 C 11.763 21.938,11.715 21.036,11.622 20.460 C 10.934 16.201,7.533 12.894,3.280 12.345 C 2.718 12.273,1.984 12.239,1.815 12.279 M1.815 15.279 C 1.332 15.390,1.098 16.004,1.383 16.408 C 1.559 16.657,1.719 16.721,2.268 16.760 C 3.071 16.817,3.658 16.972,4.330 17.303 C 4.769 17.519,5.024 17.688,5.412 18.020 C 5.954 18.482,6.383 19.033,6.697 19.670 C 7.032 20.350,7.185 20.937,7.240 21.749 C 7.266 22.143,7.290 22.266,7.359 22.379 C 7.701 22.932,8.578 22.806,8.711 22.184 C 8.763 21.940,8.708 21.169,8.600 20.637 C 8.034 17.852,5.704 15.680,2.900 15.324 C 2.439 15.266,1.959 15.246,1.815 15.279 M1.815 18.278 C 1.220 18.420,1.062 19.246,1.562 19.602 C 1.673 19.680,1.764 19.701,2.418 19.795 C 3.137 19.899,3.846 20.497,4.120 21.230 C 4.166 21.351,4.220 21.630,4.241 21.850 C 4.268 22.134,4.303 22.288,4.362 22.384 C 4.705 22.938,5.580 22.802,5.713 22.174 C 5.756 21.969,5.716 21.409,5.637 21.104 C 5.314 19.856,4.422 18.884,3.215 18.463 C 2.778 18.310,2.070 18.217,1.815 18.278 " stroke="none" fill-rule="evenodd" fill="black"></path></svg>