<svg width="24" height="24" viewBox="0 0 24 24" fill="none" xmlns="http://www.w3.org/2000/svg"><path d="M11.600 1.280 C 10.549 1.410,9.939 1.716,6.620 3.772 C 3.607 5.638,2.877 6.152,2.352 6.779 C 1.838 7.392,1.553 8.039,1.402 8.936 C 1.281 9.656,1.261 10.077,1.338 10.262 C 1.525 10.709,1.997 10.870,2.412 10.627 C 2.676 10.472,2.745 10.316,2.798 9.747 C 2.941 8.204,3.275 7.699,4.840 6.661 C 6.329 5.673,9.948 3.465,10.580 3.159 C 11.665 2.634,12.335 2.634,13.420 3.159 C 14.051 3.465,17.659 5.666,19.161 6.661 C 20.693 7.676,21.069 8.238,21.197 9.703 C 21.251 10.316,21.253 16.372,21.199 17.180 C 21.087 18.871,20.842 19.679,20.262 20.264 C 19.752 20.779,19.068 21.033,17.840 21.164 C 17.609 21.188,16.610 21.220,15.620 21.234 C 13.899 21.259,13.813 21.264,13.660 21.344 C 13.572 21.390,13.447 21.501,13.383 21.592 C 13.222 21.820,13.217 22.161,13.371 22.393 C 13.552 22.667,13.708 22.733,14.217 22.752 C 14.905 22.777,17.644 22.686,18.193 22.620 C 19.766 22.430,20.685 22.031,21.445 21.207 C 22.202 20.386,22.540 19.334,22.685 17.340 C 22.756 16.375,22.756 10.203,22.686 9.540 C 22.547 8.232,22.272 7.513,21.615 6.739 C 21.106 6.139,20.336 5.602,17.280 3.712 C 14.730 2.135,14.103 1.781,13.440 1.542 C 12.795 1.310,12.125 1.214,11.600 1.280 M1.815 12.279 C 1.332 12.391,1.098 13.004,1.383 13.408 C 1.572 13.675,1.714 13.724,2.395 13.762 C 2.720 13.780,3.156 13.824,3.363 13.859 C 5.940 14.298,8.170 15.938,9.348 18.260 C 9.906 19.361,10.172 20.366,10.238 21.627 C 10.265 22.148,10.282 22.254,10.358 22.376 C 10.705 22.937,11.579 22.807,11.713 22.174 C 11.763 21.938,11.715 21.036,11.622 20.460 C 10.934 16.201,7.533 12.894,3.280 12.345 C 2.718 12.273,1.984 12.239,1.815 12.279 M1.815 15.279 C 1.332 15.390,1.098 16.004,1.383 16.408 C 1.559 16.657,1.719 16.721,2.268 16.760 C 3.071 16.817,3.658 16.972,4.330 17.303 C 4.769 17.519,5.024 17.688,5.412 18.020 C 5.954 18.482,6.383 19.033,6.697 19.670 C 7.032 20.350,7.185 20.937,7.240 21.749 C 7.266 22.143,7.290 22.266,7.359 22.379 C 7.701 22.932,8.578 22.806,8.711 22.184 C 8.763 21.940,8.708 21.169,8.600 20.637 C 8.034 17.852,5.704 15.680,2.900 15.324 C 2.439 15.266,1.959 15.246,1.815 15.279 M1.815 18.278 C 1.220 18.420,1.062 19.246,1.562 19.602 C 1.673 19.680,1.764 19.701,2.418 19.795 C 3.137 19.899,3.846 20.497,4.120 21.230 C 4.166 21.351,4.220 21.630,4.241 21.850 C 4.268 22.134,4.303 22.288,4.362 22.384 C 4.705 22.938,5.580 22.802,5.713 22.174 C 5.756 21.969,5.716 21.409,5.637 21.104 C 5.314 19.856,4.422 18.884,3.215 18.463 C 2.778 18.310,2.070 18.217,1.815 18.278 " stroke="none" fill-rule="evenodd" fill="black"></path></svg>