<svg width="24" height="24" viewBox="0 0 24 24" fill="none" xmlns="http://www.w3.org/2000/svg"><path d="M9.400 1.283 C 7.908 1.325,6.965 1.449,6.221 1.698 C 4.984 2.114,4.114 2.984,3.698 4.221 C 3.317 5.356,3.242 6.641,3.242 12.000 C 3.242 15.221,3.284 17.354,3.360 18.060 C 3.531 19.644,3.894 20.574,4.635 21.331 C 5.348 22.060,6.261 22.436,7.767 22.621 C 8.637 22.727,11.730 22.782,13.870 22.728 C 16.166 22.670,16.928 22.587,17.779 22.302 C 19.016 21.886,19.886 21.016,20.302 19.779 C 20.682 18.646,20.758 17.355,20.758 12.000 C 20.758 6.645,20.682 5.354,20.302 4.221 C 19.952 3.179,19.288 2.405,18.332 1.925 C 17.808 1.663,17.132 1.488,16.213 1.379 C 15.197 1.259,11.899 1.212,9.400 1.283 M15.340 2.801 C 16.245 2.860,16.701 2.931,17.200 3.089 C 18.552 3.517,19.050 4.407,19.198 6.659 C 19.254 7.516,19.254 16.484,19.198 17.341 C 19.047 19.644,18.533 20.523,17.099 20.939 C 16.178 21.206,15.301 21.252,11.520 21.229 C 9.614 21.218,8.352 21.194,8.100 21.165 C 5.800 20.900,5.077 20.163,4.833 17.840 C 4.756 17.116,4.756 6.884,4.833 6.160 C 5.090 3.704,5.897 2.982,8.580 2.804 C 9.283 2.757,14.638 2.755,15.340 2.801 M8.815 18.278 C 8.331 18.393,8.098 19.004,8.383 19.408 C 8.447 19.499,8.572 19.610,8.660 19.656 C 8.818 19.739,8.865 19.740,11.878 19.751 C 14.020 19.759,15.000 19.749,15.151 19.718 C 15.902 19.562,15.931 18.473,15.189 18.286 C 14.979 18.234,9.033 18.226,8.815 18.278 " stroke="none" fill-rule="evenodd" fill="black"></path></svg>