<svg width="24" height="24" viewBox="0 0 24 24" fill="none" xmlns="http://www.w3.org/2000/svg"><path d="M13.928 1.281 C 10.990 1.481,7.779 2.764,6.178 4.376 C 5.650 4.907,5.316 5.434,5.183 5.948 C 5.122 6.183,4.474 13.286,4.335 15.240 C 4.242 16.546,4.241 18.174,4.333 18.698 C 4.512 19.720,4.939 20.539,5.680 21.280 C 6.475 22.075,7.224 22.446,8.386 22.620 C 9.023 22.715,10.170 22.759,12.000 22.759 C 15.182 22.759,16.193 22.644,17.120 22.178 C 17.967 21.752,18.769 20.935,19.218 20.040 C 19.748 18.983,19.841 18.011,19.679 15.180 C 19.563 13.159,18.831 3.549,18.773 3.288 C 18.550 2.294,17.495 1.567,15.952 1.345 C 15.410 1.266,14.540 1.239,13.928 1.281 M15.539 2.802 C 16.302 2.889,16.917 3.114,17.175 3.400 C 17.360 3.604,17.371 3.820,17.215 4.140 C 16.744 5.102,15.152 6.139,13.100 6.821 C 11.951 7.203,11.058 7.386,9.880 7.481 C 8.149 7.622,6.600 7.158,6.600 6.499 C 6.600 6.248,6.866 5.811,7.257 5.420 C 8.530 4.147,11.204 3.059,13.680 2.805 C 14.167 2.756,15.120 2.754,15.539 2.802 M17.532 6.430 C 17.545 6.579,17.659 8.107,17.785 9.827 L 18.015 12.955 17.918 13.037 C 17.751 13.178,16.959 13.547,16.540 13.680 C 15.304 14.071,13.938 14.240,12.000 14.240 C 10.086 14.240,8.717 14.074,7.520 13.698 C 7.097 13.566,6.284 13.199,6.105 13.062 C 6.032 13.005,6.035 12.945,6.229 10.762 C 6.338 9.529,6.435 8.511,6.446 8.501 C 6.456 8.491,6.607 8.538,6.781 8.605 C 8.154 9.139,10.255 9.129,12.444 8.580 C 14.289 8.117,16.045 7.311,17.140 6.425 C 17.316 6.283,17.471 6.165,17.484 6.163 C 17.498 6.161,17.519 6.282,17.532 6.430 M6.238 14.817 C 7.221 15.249,8.556 15.539,10.220 15.683 C 11.420 15.787,13.535 15.738,14.800 15.576 C 15.844 15.443,17.141 15.102,17.909 14.758 C 18.024 14.707,18.126 14.673,18.134 14.682 C 18.174 14.726,18.250 17.048,18.230 17.641 C 18.203 18.466,18.130 18.834,17.898 19.309 C 17.439 20.249,16.650 20.889,15.715 21.081 C 15.028 21.222,14.315 21.248,11.600 21.230 C 8.803 21.211,8.533 21.193,7.885 20.976 C 7.094 20.712,6.276 19.887,5.972 19.049 C 5.754 18.449,5.710 17.481,5.820 15.740 C 5.852 15.234,5.879 14.788,5.879 14.750 C 5.880 14.659,5.877 14.658,6.238 14.817 " fill="#1C274C" stroke="none" fill-rule="evenodd"></path></svg>