<svg width="24" height="24" viewBox="0 0 24 24" fill="none" xmlns="http://www.w3.org/2000/svg"><path d="M11.280 1.265 C 9.893 1.310,7.887 1.543,6.878 1.777 C 6.136 1.949,5.385 2.296,4.794 2.740 C 4.348 3.074,3.790 3.663,3.482 4.123 C 2.888 5.011,2.671 5.698,2.521 7.152 C 2.180 10.465,2.180 13.894,2.520 17.100 C 2.637 18.210,2.767 18.720,3.093 19.365 C 3.379 19.932,3.636 20.280,4.138 20.783 C 4.927 21.573,5.674 21.998,6.702 22.243 C 7.110 22.340,8.979 22.577,10.000 22.661 C 11.038 22.747,12.962 22.747,14.000 22.661 C 15.072 22.573,16.896 22.338,17.286 22.238 C 19.421 21.693,21.058 19.894,21.396 17.720 C 21.449 17.384,21.586 15.950,21.639 15.180 C 21.769 13.317,21.760 10.517,21.620 8.640 C 21.537 7.538,21.408 6.323,21.336 5.980 C 20.924 3.997,19.418 2.392,17.473 1.863 C 16.729 1.660,14.989 1.406,13.780 1.324 C 13.087 1.277,11.832 1.247,11.280 1.265 M13.800 2.819 C 15.017 2.919,16.353 3.113,17.020 3.287 C 18.312 3.624,19.376 4.637,19.776 5.911 C 19.917 6.361,20.013 7.157,20.168 9.160 C 20.238 10.058,20.238 13.977,20.168 14.920 C 20.102 15.812,19.970 17.185,19.918 17.511 C 19.672 19.059,18.456 20.396,16.946 20.780 C 16.529 20.885,14.920 21.090,13.801 21.180 C 12.845 21.257,11.148 21.257,10.180 21.179 C 8.958 21.081,7.264 20.857,6.868 20.742 C 6.498 20.634,6.060 20.431,5.760 20.228 C 5.496 20.049,4.938 19.497,4.735 19.214 C 4.511 18.902,4.268 18.385,4.164 17.999 C 4.032 17.510,3.881 15.961,3.795 14.202 C 3.737 13.029,3.773 10.009,3.858 8.920 C 3.950 7.741,4.074 6.578,4.140 6.296 C 4.307 5.572,4.650 4.945,5.175 4.407 C 5.806 3.758,6.423 3.409,7.270 3.221 C 7.966 3.067,9.323 2.882,10.320 2.804 C 11.037 2.748,13.043 2.756,13.800 2.819 M6.801 5.286 C 6.349 5.419,6.134 5.908,6.340 6.336 C 6.497 6.663,7.551 7.300,8.524 7.656 C 10.642 8.432,13.360 8.432,15.476 7.656 C 16.310 7.351,17.393 6.731,17.598 6.442 C 17.899 6.021,17.683 5.411,17.190 5.287 C 16.916 5.218,16.782 5.262,16.300 5.583 C 15.465 6.139,14.409 6.505,13.120 6.685 C 12.933 6.711,12.429 6.732,12.000 6.732 C 11.571 6.732,11.067 6.711,10.880 6.685 C 9.589 6.505,8.533 6.138,7.700 5.582 C 7.231 5.269,7.056 5.211,6.801 5.286 " stroke="none" fill-rule="evenodd" fill="black"></path></svg>