<svg width="24" height="24" viewBox="0 0 24 24" fill="none" xmlns="http://www.w3.org/2000/svg"><path d="M11.280 1.265 C 9.893 1.310,7.887 1.543,6.878 1.777 C 6.136 1.949,5.385 2.296,4.794 2.740 C 4.348 3.074,3.790 3.663,3.482 4.123 C 2.888 5.011,2.671 5.698,2.521 7.152 C 2.180 10.465,2.180 13.894,2.520 17.100 C 2.637 18.210,2.767 18.720,3.093 19.365 C 3.379 19.932,3.636 20.280,4.138 20.783 C 4.927 21.573,5.674 21.998,6.702 22.243 C 7.110 22.340,8.979 22.577,10.000 22.661 C 11.038 22.747,12.962 22.747,14.000 22.661 C 15.072 22.573,16.896 22.338,17.286 22.238 C 19.421 21.693,21.058 19.894,21.396 17.720 C 21.449 17.384,21.586 15.950,21.639 15.180 C 21.769 13.317,21.760 10.517,21.620 8.640 C 21.537 7.538,21.408 6.323,21.336 5.980 C 20.924 3.997,19.418 2.392,17.473 1.863 C 16.729 1.660,14.989 1.406,13.780 1.324 C 13.087 1.277,11.832 1.247,11.280 1.265 M13.800 2.819 C 15.017 2.919,16.353 3.113,17.020 3.287 C 18.312 3.624,19.376 4.637,19.776 5.911 C 19.887 6.266,19.962 6.783,20.058 7.840 C 20.193 9.342,20.215 9.887,20.218 11.759 L 20.220 13.698 19.900 13.930 C 19.175 14.454,17.854 15.003,16.652 15.281 C 16.370 15.346,16.126 15.399,16.109 15.400 C 16.092 15.400,16.015 15.262,15.938 15.093 C 15.654 14.469,15.170 13.865,14.660 13.495 C 13.851 12.910,12.533 12.643,11.239 12.802 C 10.543 12.887,9.808 13.156,9.340 13.495 C 8.828 13.867,8.346 14.469,8.060 15.096 C 7.898 15.453,7.997 15.434,7.240 15.253 C 5.993 14.955,4.798 14.452,4.005 13.889 L 3.750 13.709 3.771 11.724 C 3.793 9.726,3.834 8.942,4.002 7.320 C 4.108 6.299,4.204 5.906,4.480 5.357 C 4.804 4.715,5.486 4.005,6.125 3.645 C 6.402 3.489,6.910 3.301,7.270 3.221 C 7.966 3.067,9.323 2.882,10.320 2.804 C 11.037 2.748,13.043 2.756,13.800 2.819 M7.594 3.795 C 7.494 3.859,7.326 4.023,7.220 4.160 C 6.497 5.100,6.647 6.243,7.597 7.027 C 7.910 7.285,8.598 7.631,9.099 7.782 C 10.727 8.273,13.289 8.273,14.897 7.782 C 16.378 7.330,17.242 6.448,17.240 5.388 C 17.239 4.989,17.111 4.656,16.815 4.280 C 16.442 3.805,16.087 3.656,15.708 3.814 C 15.433 3.929,15.204 4.327,15.263 4.589 C 15.314 4.819,15.333 4.853,15.523 5.063 C 15.630 5.182,15.729 5.322,15.742 5.375 C 15.822 5.694,15.228 6.133,14.392 6.375 C 13.063 6.759,10.934 6.758,9.601 6.373 C 8.899 6.170,8.332 5.802,8.256 5.500 C 8.223 5.366,8.330 5.124,8.488 4.973 C 8.660 4.810,8.731 4.650,8.734 4.419 C 8.743 3.830,8.097 3.476,7.594 3.795 M12.920 14.341 C 13.399 14.448,13.740 14.632,14.044 14.947 C 14.280 15.193,14.553 15.581,14.515 15.618 C 14.455 15.676,13.213 15.736,12.040 15.737 C 10.857 15.738,9.544 15.677,9.485 15.619 C 9.447 15.581,9.719 15.194,9.956 14.947 C 10.330 14.558,10.802 14.353,11.520 14.264 C 11.797 14.230,12.626 14.276,12.920 14.341 M4.093 15.698 C 4.370 15.860,5.187 16.198,5.758 16.387 C 7.531 16.973,9.478 17.239,12.000 17.239 C 15.203 17.239,17.568 16.806,19.556 15.856 C 19.851 15.715,20.099 15.606,20.106 15.613 C 20.124 15.631,19.970 17.181,19.918 17.511 C 19.673 19.058,18.456 20.396,16.946 20.780 C 16.529 20.885,14.920 21.090,13.801 21.180 C 12.845 21.257,11.148 21.257,10.180 21.179 C 8.958 21.081,7.264 20.857,6.868 20.742 C 6.457 20.622,6.037 20.420,5.700 20.180 C 5.423 19.982,4.870 19.423,4.692 19.160 C 4.364 18.675,4.145 18.082,4.060 17.449 C 4.008 17.065,3.880 15.786,3.880 15.653 C 3.880 15.581,3.900 15.585,4.093 15.698 " fill="#1C274C" stroke="none" fill-rule="evenodd"></path></svg>