<svg width="24" height="24" viewBox="0 0 24 24" fill="none" xmlns="http://www.w3.org/2000/svg"><path d="M3.836 0.127 C 3.598 0.298,3.171 0.731,2.974 1.000 C 2.559 1.566,2.253 2.242,2.101 2.927 L 2.033 3.234 1.831 3.282 C 1.444 3.375,1.189 3.775,1.274 4.155 C 1.319 4.352,1.333 4.372,1.835 4.930 C 2.115 5.242,2.303 5.416,2.414 5.466 C 2.609 5.554,2.898 5.554,3.068 5.466 C 3.227 5.384,4.077 4.458,4.146 4.292 C 4.219 4.118,4.214 3.862,4.136 3.696 C 4.053 3.522,3.827 3.323,3.677 3.293 C 3.613 3.281,3.560 3.256,3.560 3.239 C 3.560 3.222,3.598 3.085,3.645 2.934 C 3.948 1.950,4.652 1.205,5.589 0.875 C 5.889 0.770,6.544 0.731,6.888 0.798 C 7.449 0.908,7.902 1.172,8.404 1.679 C 8.687 1.967,8.780 2.035,8.933 2.074 C 9.485 2.213,9.990 1.716,9.844 1.175 C 9.787 0.963,9.424 0.532,9.056 0.239 L 8.755 -0.000 6.383 -0.000 L 4.012 -0.000 3.836 0.127 M12.807 1.287 C 12.573 1.339,12.348 1.567,12.286 1.813 C 12.202 2.146,12.333 2.463,12.631 2.646 C 12.775 2.736,12.817 2.739,14.064 2.766 C 15.780 2.803,16.598 2.885,17.200 3.082 C 18.557 3.526,19.050 4.410,19.198 6.659 C 19.254 7.516,19.254 16.484,19.198 17.341 C 19.050 19.591,18.548 20.488,17.200 20.912 C 16.677 21.076,16.248 21.140,15.260 21.202 C 14.325 21.261,8.674 21.231,8.100 21.165 C 5.820 20.902,5.097 20.179,4.835 17.900 C 4.806 17.649,4.780 16.253,4.764 14.160 C 4.741 10.992,4.736 10.812,4.664 10.668 C 4.368 10.072,3.448 10.168,3.286 10.811 C 3.190 11.195,3.249 17.035,3.360 18.060 C 3.531 19.644,3.894 20.574,4.635 21.331 C 5.348 22.060,6.261 22.436,7.767 22.621 C 8.637 22.727,11.730 22.782,13.870 22.728 C 16.166 22.670,16.928 22.587,17.779 22.302 C 19.016 21.886,19.886 21.016,20.302 19.779 C 20.682 18.646,20.758 17.355,20.758 12.000 C 20.758 7.404,20.701 5.950,20.482 4.899 C 20.054 2.850,18.793 1.731,16.567 1.423 C 15.728 1.308,13.138 1.214,12.807 1.287 M10.100 2.476 C 10.034 2.493,9.941 2.527,9.893 2.553 C 9.757 2.626,8.915 3.561,8.854 3.707 C 8.781 3.882,8.786 4.138,8.864 4.304 C 8.947 4.478,9.173 4.677,9.323 4.707 C 9.387 4.719,9.440 4.744,9.440 4.761 C 9.440 4.778,9.402 4.915,9.355 5.066 C 9.103 5.884,8.551 6.567,7.845 6.933 C 7.363 7.183,7.199 7.220,6.600 7.218 C 6.111 7.215,6.032 7.205,5.767 7.105 C 5.351 6.948,5.066 6.770,4.707 6.441 C 4.356 6.121,4.276 6.080,4.007 6.080 C 3.463 6.080,3.119 6.642,3.359 7.137 C 3.601 7.638,4.709 8.380,5.540 8.598 C 7.923 9.224,10.236 7.738,10.872 5.172 L 10.973 4.765 11.172 4.717 C 11.569 4.622,11.802 4.242,11.715 3.832 C 11.681 3.674,11.613 3.573,11.327 3.255 C 11.136 3.043,10.947 2.827,10.906 2.775 C 10.738 2.556,10.351 2.413,10.100 2.476 M8.815 18.278 C 8.331 18.393,8.098 19.004,8.383 19.408 C 8.447 19.499,8.572 19.610,8.660 19.656 C 8.818 19.739,8.865 19.740,11.878 19.751 C 14.020 19.759,15.000 19.749,15.151 19.718 C 15.902 19.562,15.931 18.473,15.189 18.286 C 14.979 18.234,9.033 18.226,8.815 18.278 " stroke="none" fill-rule="evenodd" fill="black"></path></svg>