<svg width="24" height="24" viewBox="0 0 24 24" fill="none" xmlns="http://www.w3.org/2000/svg"><path d="M11.320 1.281 C 7.041 1.525,3.252 4.409,1.843 8.497 C 1.180 10.418,1.082 12.560,1.564 14.550 C 1.698 15.103,1.929 15.797,2.135 16.262 L 2.273 16.576 2.137 16.846 C 2.062 16.995,1.952 17.275,1.894 17.468 C 1.799 17.781,1.787 17.889,1.783 18.440 C 1.780 19.115,1.830 19.407,2.041 19.929 C 2.414 20.850,3.248 21.662,4.160 21.995 C 4.691 22.189,4.875 22.218,5.540 22.215 C 6.113 22.213,6.217 22.201,6.532 22.106 C 6.725 22.047,7.005 21.938,7.154 21.863 L 7.424 21.727 7.738 21.865 C 9.796 22.773,12.296 22.982,14.550 22.436 C 15.103 22.302,15.797 22.071,16.262 21.865 L 16.576 21.727 16.846 21.863 C 16.995 21.938,17.275 22.047,17.468 22.106 C 17.783 22.201,17.887 22.213,18.460 22.215 C 19.125 22.218,19.309 22.189,19.840 21.995 C 20.277 21.836,20.862 21.452,21.184 21.113 C 21.526 20.754,21.844 20.255,21.995 19.840 C 22.189 19.309,22.218 19.125,22.215 18.460 C 22.213 17.887,22.201 17.783,22.106 17.468 C 22.047 17.275,21.938 16.995,21.863 16.846 L 21.727 16.576 21.865 16.262 C 22.772 14.206,22.982 11.702,22.436 9.450 C 21.425 5.282,17.985 2.095,13.742 1.398 C 13.334 1.331,12.074 1.229,11.880 1.247 C 11.847 1.250,11.595 1.265,11.320 1.281 M13.146 2.822 C 14.202 2.960,15.123 3.237,16.066 3.699 C 18.871 5.073,20.769 7.728,21.178 10.854 C 21.258 11.459,21.258 12.541,21.178 13.146 C 20.769 16.271,18.870 18.928,16.066 20.301 C 14.761 20.941,13.464 21.240,12.000 21.240 C 10.538 21.240,9.236 20.940,7.940 20.304 C 5.123 18.921,3.232 16.278,2.822 13.146 C 2.699 12.214,2.756 10.974,2.966 10.002 C 3.177 9.020,3.703 7.775,4.268 6.920 C 5.750 4.677,8.131 3.188,10.820 2.823 C 11.380 2.746,12.569 2.746,13.146 2.822 M11.740 5.266 C 10.415 5.385,9.327 6.085,8.719 7.212 C 8.400 7.803,8.271 8.320,8.271 9.000 C 8.271 9.682,8.400 10.197,8.721 10.792 C 9.078 11.453,9.549 11.923,10.212 12.281 C 10.803 12.600,11.320 12.729,12.000 12.729 C 12.680 12.729,13.197 12.600,13.788 12.281 C 14.451 11.923,14.922 11.453,15.279 10.792 C 15.600 10.197,15.729 9.682,15.729 9.000 C 15.729 8.320,15.600 7.803,15.281 7.212 C 14.832 6.381,14.122 5.779,13.215 5.463 C 12.793 5.316,12.149 5.230,11.740 5.266 M12.578 6.821 C 12.949 6.918,13.274 7.112,13.581 7.419 C 14.041 7.879,14.240 8.356,14.240 9.000 C 14.240 9.644,14.041 10.121,13.581 10.581 C 13.121 11.041,12.644 11.240,12.000 11.240 C 11.356 11.240,10.879 11.041,10.419 10.581 C 9.959 10.121,9.760 9.644,9.760 9.000 C 9.760 8.356,9.959 7.879,10.419 7.419 C 10.719 7.118,11.050 6.919,11.404 6.823 C 11.692 6.746,12.285 6.745,12.578 6.821 M11.815 15.277 C 11.638 15.321,11.461 15.456,11.353 15.631 C 11.261 15.778,11.260 15.793,11.260 17.000 C 11.260 18.207,11.261 18.222,11.353 18.369 C 11.710 18.943,12.576 18.812,12.716 18.162 C 12.772 17.901,12.773 16.083,12.717 15.841 C 12.623 15.432,12.215 15.177,11.815 15.277 M3.618 18.720 C 4.039 19.244,4.733 19.938,5.273 20.374 L 5.725 20.740 5.529 20.752 C 5.248 20.769,4.782 20.662,4.480 20.511 C 4.131 20.336,3.664 19.869,3.489 19.520 C 3.418 19.377,3.333 19.134,3.300 18.980 C 3.234 18.666,3.219 18.242,3.276 18.302 C 3.296 18.323,3.450 18.511,3.618 18.720 M20.702 18.964 C 20.611 19.406,20.430 19.731,20.080 20.081 C 19.631 20.530,19.020 20.785,18.471 20.752 L 18.275 20.740 18.727 20.374 C 18.976 20.172,19.366 19.821,19.594 19.594 C 19.821 19.366,20.172 18.976,20.374 18.727 L 20.740 18.275 20.752 18.471 C 20.758 18.579,20.736 18.801,20.702 18.964 " stroke="none" fill-rule="evenodd" fill="black"></path></svg>