<svg width="24" height="24" viewBox="0 0 24 24" fill="none" xmlns="http://www.w3.org/2000/svg"><path d="M6.060 1.279 C 4.331 1.334,3.517 1.517,2.759 2.021 C 2.087 2.467,1.636 3.229,1.436 4.251 C 1.270 5.103,1.260 5.534,1.260 12.000 C 1.260 18.466,1.270 18.897,1.436 19.749 C 1.749 21.354,2.621 22.230,4.233 22.559 C 4.933 22.701,5.685 22.732,8.480 22.733 C 11.282 22.734,12.053 22.703,12.772 22.557 C 14.372 22.233,15.233 21.372,15.557 19.772 C 15.729 18.925,15.739 18.468,15.739 12.000 C 15.739 5.532,15.729 5.075,15.557 4.228 C 15.177 2.352,14.079 1.493,11.840 1.321 C 11.127 1.266,7.326 1.238,6.060 1.279 M16.815 1.278 C 16.500 1.353,16.270 1.645,16.267 1.974 C 16.263 2.382,16.477 2.632,16.922 2.740 C 18.256 3.062,19.127 3.563,19.927 4.467 C 20.359 4.956,20.783 5.673,20.958 6.213 C 21.018 6.397,20.998 6.427,20.869 6.342 C 20.814 6.306,20.679 6.267,20.568 6.254 C 19.996 6.186,19.580 6.801,19.847 7.320 C 19.927 7.474,20.039 7.568,20.620 7.967 C 21.484 8.560,21.681 8.680,21.868 8.722 C 22.094 8.773,22.345 8.695,22.520 8.520 C 22.725 8.315,22.762 8.133,22.718 7.540 C 22.664 6.825,22.593 6.452,22.393 5.840 C 21.645 3.548,19.703 1.801,17.366 1.317 C 17.160 1.275,16.980 1.242,16.966 1.244 C 16.952 1.246,16.884 1.262,16.815 1.278 M12.119 2.835 C 13.487 3.041,13.937 3.480,14.149 4.814 C 14.215 5.228,14.220 5.746,14.220 12.000 C 14.220 18.254,14.215 18.772,14.149 19.186 C 13.935 20.537,13.473 20.976,12.060 21.170 C 11.549 21.241,5.451 21.241,4.940 21.170 C 4.236 21.073,3.748 20.894,3.445 20.620 C 3.147 20.351,2.932 19.806,2.830 19.060 C 2.758 18.539,2.758 5.461,2.830 4.940 C 2.964 3.962,3.236 3.440,3.749 3.171 C 4.170 2.950,4.577 2.854,5.307 2.802 C 6.010 2.752,11.753 2.780,12.119 2.835 M5.815 4.278 C 5.331 4.393,5.098 5.004,5.383 5.408 C 5.447 5.499,5.572 5.610,5.660 5.656 C 5.817 5.738,5.873 5.740,8.377 5.751 C 10.157 5.759,10.999 5.749,11.150 5.718 C 11.902 5.562,11.931 4.473,11.189 4.286 C 10.980 4.234,6.032 4.226,5.815 4.278 M17.163 9.347 C 17.087 9.387,16.970 9.489,16.903 9.574 C 16.793 9.711,16.780 9.756,16.780 9.997 C 16.780 10.339,16.889 10.519,17.180 10.657 C 17.360 10.743,17.453 10.755,18.100 10.776 C 20.317 10.849,20.899 11.238,21.149 12.814 C 21.212 13.209,21.220 13.573,21.220 16.000 C 21.220 18.427,21.212 18.791,21.149 19.186 C 20.899 20.762,20.317 21.151,18.100 21.224 C 17.453 21.245,17.360 21.257,17.180 21.343 C 16.889 21.481,16.780 21.661,16.780 22.003 C 16.780 22.244,16.793 22.289,16.903 22.426 C 17.135 22.717,17.189 22.729,18.140 22.705 C 19.416 22.672,20.114 22.553,20.749 22.259 C 21.735 21.804,22.304 21.021,22.557 19.772 C 22.693 19.100,22.732 18.263,22.732 16.000 C 22.732 13.737,22.693 12.900,22.557 12.228 C 22.304 10.979,21.735 10.196,20.749 9.741 C 20.114 9.447,19.416 9.328,18.140 9.295 C 17.378 9.276,17.287 9.281,17.163 9.347 M18.815 13.277 C 18.638 13.321,18.461 13.456,18.353 13.631 L 18.260 13.780 18.260 16.000 L 18.260 18.220 18.353 18.369 C 18.710 18.943,19.576 18.812,19.716 18.162 C 19.774 17.891,19.775 14.093,19.717 13.841 C 19.623 13.432,19.215 13.177,18.815 13.277 M8.180 15.281 C 7.086 15.427,6.276 16.360,6.270 17.480 C 6.267 18.129,6.470 18.630,6.920 19.080 C 7.363 19.523,7.868 19.731,8.500 19.731 C 9.132 19.731,9.637 19.523,10.080 19.080 C 10.523 18.637,10.731 18.132,10.731 17.500 C 10.731 16.868,10.523 16.363,10.080 15.920 C 9.575 15.415,8.894 15.186,8.180 15.281 M8.944 16.903 C 9.173 17.088,9.247 17.255,9.231 17.549 C 9.219 17.752,9.195 17.823,9.097 17.944 C 8.912 18.173,8.745 18.247,8.451 18.231 C 8.248 18.219,8.177 18.195,8.056 18.097 C 7.827 17.912,7.753 17.745,7.769 17.451 C 7.781 17.248,7.805 17.177,7.903 17.056 C 8.088 16.827,8.255 16.753,8.549 16.769 C 8.752 16.781,8.823 16.805,8.944 16.903 " stroke="none" fill-rule="evenodd" fill="black"></path></svg>