<svg width="24" height="24" viewBox="0 0 24 24" fill="none" xmlns="http://www.w3.org/2000/svg"><path d="M9.400 1.283 C 7.908 1.325,6.965 1.449,6.221 1.698 C 4.984 2.114,4.114 2.984,3.698 4.221 C 3.317 5.356,3.242 6.641,3.242 12.000 C 3.242 15.221,3.284 17.354,3.360 18.060 C 3.531 19.644,3.894 20.574,4.635 21.331 C 5.348 22.060,6.261 22.436,7.767 22.621 C 8.637 22.727,11.730 22.782,13.870 22.728 C 16.166 22.670,16.928 22.587,17.779 22.302 C 19.016 21.886,19.886 21.016,20.302 19.779 C 20.682 18.646,20.758 17.355,20.758 12.000 C 20.758 6.645,20.682 5.354,20.302 4.221 C 19.952 3.179,19.288 2.405,18.332 1.925 C 17.808 1.663,17.132 1.488,16.213 1.379 C 15.197 1.259,11.899 1.212,9.400 1.283 M15.340 2.801 C 16.905 2.904,17.700 3.145,18.266 3.689 C 18.771 4.173,19.105 5.128,19.167 6.260 L 19.180 6.500 12.022 6.510 C 8.085 6.516,4.851 6.507,4.835 6.490 C 4.799 6.452,4.862 5.799,4.942 5.380 C 5.286 3.589,6.168 2.964,8.580 2.804 C 9.283 2.757,14.638 2.755,15.340 2.801 M8.815 4.278 C 8.331 4.393,8.098 5.004,8.383 5.408 C 8.447 5.499,8.572 5.610,8.660 5.656 C 8.818 5.739,8.865 5.740,11.878 5.751 C 14.020 5.759,15.000 5.749,15.151 5.718 C 15.902 5.562,15.931 4.473,15.189 4.286 C 14.979 4.234,9.033 4.226,8.815 4.278 M19.220 12.000 L 19.220 16.500 12.000 16.500 L 4.780 16.500 4.770 12.040 C 4.764 9.587,4.768 7.557,4.778 7.530 C 4.794 7.490,6.261 7.482,12.009 7.490 L 19.220 7.500 19.220 12.000 M11.620 17.555 C 11.193 17.679,10.836 17.979,10.638 18.380 C 10.553 18.554,10.540 18.635,10.540 19.000 C 10.540 19.365,10.553 19.446,10.638 19.620 C 10.774 19.898,11.076 20.204,11.349 20.343 C 11.561 20.450,11.615 20.460,12.000 20.460 C 12.365 20.460,12.446 20.447,12.620 20.362 C 12.898 20.226,13.204 19.924,13.343 19.651 C 13.450 19.439,13.460 19.385,13.460 19.000 C 13.460 18.635,13.447 18.554,13.362 18.380 C 13.164 17.979,12.807 17.679,12.380 17.555 C 12.148 17.488,12.257 17.486,15.660 17.493 L 19.180 17.500 19.167 17.740 C 19.105 18.872,18.771 19.827,18.266 20.311 C 17.696 20.859,16.881 21.100,15.260 21.202 C 14.326 21.261,8.675 21.232,8.100 21.165 C 6.049 20.929,5.263 20.295,4.942 18.620 C 4.872 18.254,4.799 17.555,4.826 17.510 C 4.836 17.494,6.423 17.481,8.352 17.483 C 11.750 17.486,11.852 17.488,11.620 17.555 M12.140 18.520 C 12.238 18.520,12.437 18.723,12.476 18.863 C 12.578 19.235,12.237 19.579,11.867 19.477 C 11.505 19.377,11.384 18.900,11.655 18.645 C 11.758 18.548,11.948 18.477,12.033 18.503 C 12.063 18.513,12.111 18.520,12.140 18.520 " stroke="none" fill-rule="evenodd" fill="black"></path></svg>