<svg width="24" height="24" viewBox="0 0 24 24" fill="none" xmlns="http://www.w3.org/2000/svg"><path d="M11.815 1.277 C 11.638 1.321,11.461 1.456,11.353 1.631 C 11.262 1.777,11.260 1.805,11.247 2.976 L 11.235 4.172 10.327 3.271 C 9.828 2.775,9.375 2.347,9.320 2.318 C 9.265 2.290,9.118 2.267,8.992 2.267 C 8.721 2.267,8.503 2.389,8.358 2.623 C 8.234 2.823,8.231 3.172,8.352 3.364 C 8.398 3.439,9.067 4.130,9.838 4.900 L 11.240 6.300 11.240 8.490 C 11.240 9.694,11.232 10.680,11.223 10.680 C 11.206 10.680,7.478 8.531,7.455 8.508 C 7.448 8.501,7.216 7.651,6.940 6.618 C 6.664 5.585,6.418 4.690,6.393 4.628 C 6.176 4.083,5.414 3.998,5.093 4.484 C 4.910 4.761,4.921 4.863,5.279 6.194 C 5.458 6.862,5.600 7.413,5.593 7.420 C 5.586 7.426,5.134 7.175,4.590 6.861 C 4.005 6.524,3.537 6.280,3.448 6.266 C 3.241 6.233,3.026 6.300,2.853 6.452 C 2.523 6.741,2.511 7.235,2.825 7.527 C 2.888 7.586,3.368 7.880,3.892 8.182 C 4.415 8.483,4.837 8.737,4.828 8.746 C 4.819 8.755,4.279 8.904,3.629 9.078 C 2.978 9.252,2.390 9.424,2.323 9.459 C 2.147 9.550,1.992 9.804,1.969 10.038 C 1.931 10.438,2.229 10.794,2.631 10.828 C 2.781 10.841,3.222 10.736,4.759 10.323 L 6.697 9.802 8.588 10.891 C 9.628 11.490,10.478 11.989,10.478 12.000 C 10.478 12.011,9.628 12.510,8.588 13.109 L 6.697 14.199 4.758 13.677 C 3.223 13.264,2.781 13.159,2.631 13.172 C 2.229 13.206,1.931 13.562,1.969 13.962 C 1.992 14.196,2.147 14.450,2.323 14.541 C 2.390 14.576,2.978 14.748,3.629 14.922 C 4.279 15.096,4.819 15.245,4.828 15.254 C 4.837 15.263,4.415 15.517,3.892 15.818 C 3.368 16.120,2.888 16.414,2.825 16.473 C 2.511 16.765,2.523 17.259,2.853 17.548 C 3.026 17.700,3.241 17.767,3.449 17.734 C 3.539 17.720,4.003 17.478,4.590 17.139 C 5.135 16.826,5.586 16.574,5.593 16.580 C 5.600 16.587,5.458 17.138,5.279 17.806 C 4.921 19.137,4.910 19.239,5.093 19.516 C 5.414 20.002,6.178 19.917,6.393 19.372 C 6.417 19.310,6.663 18.415,6.940 17.382 C 7.216 16.349,7.448 15.499,7.454 15.493 C 7.476 15.470,11.207 13.320,11.223 13.320 C 11.232 13.320,11.240 14.306,11.240 15.510 L 11.240 17.700 9.838 19.100 C 9.067 19.870,8.398 20.561,8.352 20.636 C 8.232 20.826,8.234 21.177,8.356 21.374 C 8.532 21.659,8.841 21.784,9.189 21.711 C 9.367 21.673,9.441 21.610,10.307 20.750 L 11.235 19.829 11.247 21.025 C 11.260 22.195,11.262 22.223,11.353 22.369 C 11.710 22.943,12.576 22.812,12.716 22.162 C 12.742 22.041,12.760 21.517,12.760 20.890 L 12.760 19.824 13.690 20.747 C 14.557 21.608,14.633 21.673,14.810 21.710 C 15.389 21.832,15.831 21.390,15.711 20.810 C 15.673 20.629,15.599 20.547,14.216 19.159 L 12.760 17.698 12.760 15.509 C 12.760 14.305,12.768 13.320,12.777 13.320 C 12.793 13.320,16.524 15.471,16.546 15.493 C 16.553 15.499,16.794 16.386,17.083 17.462 C 17.647 19.568,17.662 19.608,17.961 19.760 C 18.407 19.988,18.974 19.686,19.029 19.191 C 19.043 19.061,18.970 18.730,18.721 17.806 C 18.542 17.138,18.400 16.587,18.407 16.580 C 18.414 16.574,18.865 16.826,19.410 17.139 C 19.997 17.478,20.461 17.720,20.551 17.734 C 20.759 17.767,20.974 17.700,21.147 17.548 C 21.477 17.259,21.489 16.765,21.175 16.473 C 21.112 16.414,20.632 16.120,20.108 15.818 C 19.585 15.517,19.163 15.263,19.172 15.254 C 19.181 15.245,19.721 15.096,20.371 14.922 C 21.022 14.748,21.610 14.576,21.677 14.541 C 21.745 14.506,21.850 14.403,21.910 14.312 C 22.065 14.077,22.066 13.724,21.912 13.491 C 21.790 13.307,21.526 13.160,21.316 13.160 C 21.240 13.160,20.306 13.394,19.240 13.679 L 17.303 14.199 15.412 13.109 C 14.372 12.510,13.521 12.011,13.521 12.000 C 13.522 11.989,14.372 11.490,15.412 10.891 L 17.302 9.802 19.241 10.321 C 20.307 10.606,21.242 10.840,21.317 10.840 C 21.526 10.840,21.790 10.693,21.912 10.509 C 22.066 10.276,22.065 9.923,21.910 9.688 C 21.850 9.597,21.745 9.494,21.677 9.459 C 21.610 9.424,21.022 9.252,20.371 9.078 C 19.721 8.904,19.181 8.755,19.172 8.746 C 19.163 8.737,19.585 8.483,20.108 8.182 C 20.632 7.880,21.112 7.586,21.175 7.527 C 21.489 7.235,21.477 6.741,21.147 6.452 C 20.974 6.300,20.759 6.233,20.551 6.266 C 20.461 6.280,19.997 6.522,19.410 6.861 C 18.865 7.174,18.414 7.426,18.407 7.419 C 18.400 7.413,18.541 6.861,18.721 6.194 C 18.969 5.271,19.043 4.939,19.029 4.809 C 18.974 4.314,18.407 4.012,17.961 4.240 C 17.662 4.392,17.647 4.432,17.082 6.538 C 16.793 7.615,16.552 8.501,16.546 8.508 C 16.524 8.530,12.793 10.680,12.777 10.680 C 12.768 10.680,12.760 9.695,12.760 8.491 L 12.760 6.302 14.216 4.841 C 15.602 3.449,15.673 3.371,15.711 3.189 C 15.816 2.682,15.498 2.267,15.004 2.267 C 14.881 2.267,14.735 2.290,14.680 2.318 C 14.625 2.347,14.171 2.777,13.670 3.274 L 12.760 4.178 12.759 3.099 C 12.758 1.955,12.733 1.737,12.580 1.536 C 12.421 1.327,12.078 1.211,11.815 1.277 " stroke="none" fill-rule="evenodd" fill="black"></path></svg>