<svg width="24" height="24" viewBox="0 0 24 24" fill="none" xmlns="http://www.w3.org/2000/svg"><path d="M9.020 1.278 C 7.735 1.310,7.475 1.326,6.649 1.423 C 4.782 1.643,3.569 2.183,2.728 3.171 C 1.841 4.212,1.475 5.425,1.314 7.860 C 1.249 8.841,1.249 15.159,1.314 16.140 C 1.431 17.905,1.649 18.970,2.068 19.825 C 2.756 21.228,3.977 22.098,5.734 22.437 C 7.034 22.688,7.987 22.733,12.000 22.733 C 16.013 22.733,16.966 22.688,18.266 22.437 C 20.599 21.987,21.987 20.599,22.437 18.266 C 22.688 16.968,22.732 16.015,22.733 12.000 C 22.733 7.987,22.688 7.034,22.437 5.734 C 22.098 3.977,21.228 2.756,19.825 2.068 C 18.972 1.650,17.855 1.421,16.180 1.321 C 15.276 1.267,10.579 1.239,9.020 1.278 M16.600 2.836 C 18.439 3.019,19.320 3.320,20.000 4.000 C 20.692 4.693,20.998 5.605,21.168 7.480 C 21.242 8.307,21.242 15.693,21.168 16.520 C 20.998 18.395,20.692 19.307,20.000 20.000 C 19.307 20.692,18.395 20.998,16.520 21.168 C 15.693 21.242,8.307 21.242,7.480 21.168 C 5.594 20.997,4.699 20.696,3.999 19.997 C 3.340 19.337,3.025 18.449,2.852 16.760 C 2.788 16.136,2.780 15.618,2.780 12.000 C 2.780 8.382,2.788 7.864,2.852 7.240 C 3.025 5.551,3.340 4.663,3.999 4.003 C 4.787 3.215,5.878 2.908,8.320 2.785 C 9.021 2.750,16.177 2.794,16.600 2.836 M11.460 5.282 C 8.141 5.547,5.514 8.204,5.283 11.527 C 5.200 12.722,5.421 13.875,5.940 14.940 C 7.571 18.294,11.584 19.685,14.940 18.060 C 17.422 16.857,18.909 14.286,18.717 11.527 C 18.458 7.792,15.194 4.983,11.460 5.282 M11.248 7.250 C 11.267 7.735,11.308 7.859,11.506 8.047 C 11.647 8.181,11.799 8.240,12.000 8.240 C 12.201 8.240,12.353 8.181,12.494 8.047 C 12.692 7.859,12.733 7.735,12.752 7.250 C 12.769 6.818,12.773 6.802,12.855 6.818 C 13.921 7.032,14.663 7.380,15.412 8.020 C 16.293 8.772,16.898 9.796,17.147 10.960 C 17.202 11.215,17.220 11.474,17.220 12.000 C 17.220 12.964,17.095 13.522,16.697 14.330 C 16.383 14.967,15.954 15.518,15.412 15.980 C 14.663 16.620,13.921 16.968,12.855 17.182 C 12.773 17.198,12.769 17.182,12.752 16.750 C 12.733 16.265,12.692 16.141,12.494 15.953 C 12.353 15.819,12.201 15.760,12.000 15.760 C 11.799 15.760,11.647 15.819,11.506 15.953 C 11.308 16.141,11.267 16.265,11.248 16.750 C 11.231 17.182,11.227 17.198,11.145 17.182 C 10.079 16.968,9.337 16.620,8.588 15.980 C 7.707 15.228,7.102 14.204,6.853 13.040 C 6.798 12.785,6.780 12.526,6.780 12.000 C 6.780 11.244,6.832 10.895,7.028 10.320 C 7.152 9.958,7.424 9.398,7.617 9.107 C 7.964 8.584,8.584 7.964,9.107 7.617 C 9.663 7.248,10.609 6.881,11.205 6.803 C 11.219 6.801,11.238 7.003,11.248 7.250 M9.667 11.065 C 9.303 11.177,9.000 11.602,9.000 12.000 C 9.000 12.520,9.480 13.000,10.000 13.000 C 10.517 13.000,11.000 12.517,11.000 12.000 C 11.000 11.598,10.688 11.173,10.310 11.061 C 10.061 10.987,9.919 10.988,9.667 11.065 M13.667 11.065 C 13.303 11.177,13.000 11.602,13.000 12.000 C 13.000 12.520,13.480 13.000,14.000 13.000 C 14.517 13.000,15.000 12.517,15.000 12.000 C 15.000 11.598,14.688 11.173,14.310 11.061 C 14.061 10.987,13.919 10.988,13.667 11.065 " stroke="none" fill-rule="evenodd" fill="black"></path></svg>