<svg width="24" height="24" viewBox="0 0 24 24" fill="none" xmlns="http://www.w3.org/2000/svg"><path d="M9.120 3.279 C 7.211 3.330,6.250 3.449,5.340 3.747 C 4.269 4.097,3.450 4.786,2.970 5.740 C 2.646 6.385,2.541 6.988,2.571 8.034 C 2.602 9.088,2.774 10.086,3.293 12.230 L 3.548 13.280 3.384 13.322 C 3.052 13.408,2.935 13.451,2.720 13.570 C 1.788 14.084,1.269 14.953,1.269 16.000 C 1.269 16.685,1.442 17.182,1.869 17.727 C 2.148 18.083,2.695 18.474,3.086 18.598 L 3.233 18.644 3.246 19.432 C 3.259 20.174,3.265 20.229,3.353 20.369 C 3.710 20.943,4.576 20.812,4.716 20.162 C 4.740 20.049,4.760 19.687,4.760 19.358 L 4.760 18.760 11.996 18.760 L 19.232 18.760 19.246 19.490 C 19.259 20.171,19.266 20.230,19.353 20.369 C 19.710 20.943,20.576 20.812,20.716 20.162 C 20.740 20.049,20.760 19.661,20.760 19.301 L 20.760 18.646 20.910 18.599 C 21.305 18.474,21.851 18.084,22.131 17.727 C 22.558 17.182,22.731 16.685,22.731 16.000 C 22.731 14.953,22.212 14.084,21.280 13.570 C 21.065 13.451,20.948 13.408,20.617 13.323 L 20.453 13.281 20.707 12.230 C 20.988 11.063,21.240 9.859,21.348 9.160 C 21.438 8.581,21.450 7.062,21.367 6.720 C 21.158 5.860,20.849 5.283,20.303 4.737 C 19.411 3.845,18.274 3.469,16.020 3.321 C 15.213 3.267,10.590 3.239,9.120 3.279 M15.780 4.802 C 17.579 4.901,18.553 5.160,19.148 5.699 C 19.464 5.985,19.693 6.335,19.829 6.740 C 19.931 7.043,19.937 7.100,19.936 7.820 C 19.935 8.651,19.863 9.190,19.582 10.477 C 19.458 11.041,19.057 12.718,18.957 13.090 L 18.917 13.240 12.000 13.240 L 5.083 13.240 5.043 13.090 C 4.943 12.718,4.542 11.041,4.418 10.477 C 4.137 9.190,4.065 8.651,4.064 7.820 C 4.063 7.100,4.069 7.043,4.171 6.740 C 4.450 5.909,5.050 5.376,6.014 5.101 C 6.473 4.970,7.344 4.847,8.100 4.805 C 8.989 4.756,14.896 4.753,15.780 4.802 M20.454 14.841 C 20.912 15.013,21.240 15.496,21.240 16.000 C 21.240 16.504,20.912 16.987,20.454 17.159 C 20.239 17.239,20.179 17.240,12.000 17.240 C 3.839 17.240,3.761 17.239,3.547 17.159 C 3.302 17.068,3.003 16.796,2.868 16.544 C 2.741 16.307,2.741 15.694,2.867 15.458 C 3.024 15.165,3.351 14.885,3.640 14.797 C 3.695 14.781,7.452 14.765,11.988 14.763 C 20.183 14.760,20.238 14.761,20.454 14.841 " stroke="none" fill-rule="evenodd" fill="black"></path></svg>