<svg width="24" height="24" viewBox="0 0 24 24" fill="none" xmlns="http://www.w3.org/2000/svg"><path d="M7.800 4.282 C 6.541 4.345,5.597 4.742,4.734 5.571 C 4.212 6.071,3.904 6.515,3.629 7.160 C 3.408 7.678,3.319 8.096,3.292 8.754 C 3.268 9.325,3.268 9.327,3.164 9.369 C 2.210 9.751,1.605 10.382,1.352 11.260 C 1.263 11.571,1.260 11.626,1.260 13.220 C 1.260 15.033,1.276 15.208,1.500 15.854 C 1.792 16.700,2.412 17.517,3.106 17.975 L 3.232 18.057 3.246 18.639 C 3.259 19.162,3.270 19.235,3.353 19.369 C 3.709 19.944,4.576 19.812,4.716 19.162 C 4.740 19.049,4.760 18.895,4.760 18.819 L 4.760 18.683 5.090 18.711 C 5.518 18.749,18.478 18.749,18.904 18.712 L 19.229 18.683 19.252 18.963 C 19.288 19.393,19.474 19.633,19.833 19.714 C 20.240 19.805,20.630 19.562,20.716 19.162 C 20.740 19.049,20.760 18.754,20.760 18.508 L 20.761 18.060 20.890 17.976 C 21.586 17.524,22.215 16.692,22.503 15.843 C 22.726 15.187,22.740 15.027,22.740 13.220 C 22.740 11.626,22.737 11.571,22.648 11.260 C 22.395 10.382,21.790 9.751,20.836 9.369 C 20.732 9.327,20.732 9.325,20.709 8.754 C 20.692 8.325,20.661 8.084,20.585 7.800 C 20.366 6.970,20.016 6.344,19.429 5.734 C 18.929 5.212,18.485 4.904,17.840 4.629 C 17.310 4.403,16.914 4.323,16.100 4.280 C 15.275 4.237,8.673 4.238,7.800 4.282 M11.240 9.500 L 11.240 13.240 9.006 13.240 L 6.771 13.240 6.749 12.390 C 6.719 11.240,6.618 10.894,6.131 10.273 C 5.849 9.914,5.305 9.526,4.904 9.399 L 4.749 9.350 4.773 8.865 C 4.818 7.939,5.103 7.298,5.746 6.675 C 6.184 6.252,6.622 5.998,7.142 5.866 C 7.509 5.772,7.508 5.772,9.430 5.766 L 11.240 5.760 11.240 9.500 M16.859 5.856 C 17.439 6.028,17.923 6.325,18.342 6.765 C 18.940 7.393,19.184 7.972,19.227 8.865 L 19.251 9.350 19.096 9.399 C 18.695 9.526,18.151 9.914,17.869 10.273 C 17.382 10.894,17.281 11.240,17.251 12.390 L 17.229 13.240 14.994 13.240 L 12.760 13.240 12.760 9.498 L 12.760 5.755 14.690 5.770 C 16.388 5.784,16.649 5.794,16.859 5.856 M4.454 10.841 C 4.744 10.950,5.050 11.256,5.159 11.546 C 5.229 11.734,5.240 11.858,5.240 12.472 C 5.241 13.266,5.284 13.617,5.412 13.876 C 5.633 14.321,6.086 14.647,6.584 14.719 C 6.954 14.772,17.042 14.773,17.411 14.719 C 18.006 14.633,18.463 14.252,18.671 13.666 C 18.714 13.548,18.738 13.232,18.757 12.560 C 18.787 11.498,18.799 11.450,19.125 11.125 C 19.373 10.876,19.567 10.790,19.920 10.769 C 20.159 10.756,20.266 10.770,20.445 10.837 C 20.747 10.951,21.049 11.252,21.161 11.552 C 21.241 11.766,21.244 11.835,21.232 13.397 L 21.220 15.020 21.107 15.340 C 20.776 16.277,20.001 16.975,19.060 17.184 C 18.865 17.227,17.534 17.237,12.000 17.237 C 4.726 17.237,4.980 17.244,4.487 17.045 C 3.826 16.778,3.222 16.169,2.948 15.494 C 2.771 15.056,2.753 14.816,2.767 13.160 C 2.780 11.670,2.783 11.615,2.867 11.458 C 3.024 11.165,3.351 10.885,3.640 10.797 C 3.838 10.737,4.232 10.758,4.454 10.841 " stroke="none" fill-rule="evenodd" fill="black"></path></svg>