<svg width="24" height="24" viewBox="0 0 24 24" fill="none" xmlns="http://www.w3.org/2000/svg"><path d="M16.826 3.285 C 16.624 3.331,16.468 3.446,16.353 3.631 L 16.260 3.780 16.260 12.000 L 16.260 20.220 16.355 20.373 C 16.499 20.605,16.718 20.731,16.973 20.731 C 17.392 20.731,17.338 20.789,19.082 18.463 C 20.210 16.958,20.685 16.293,20.714 16.180 C 20.796 15.863,20.660 15.533,20.374 15.356 C 20.175 15.233,19.827 15.232,19.629 15.354 C 19.538 15.411,19.188 15.841,18.634 16.582 L 17.780 17.721 17.760 10.771 C 17.741 4.056,17.737 3.815,17.664 3.668 C 17.623 3.584,17.533 3.473,17.464 3.421 C 17.355 3.337,17.274 3.307,17.040 3.261 C 17.007 3.254,16.911 3.265,16.826 3.285 M7.826 5.284 C 7.476 5.366,7.267 5.636,7.267 6.003 C 7.267 6.281,7.387 6.496,7.627 6.645 L 7.780 6.740 10.360 6.753 C 12.212 6.762,13.000 6.752,13.154 6.719 C 13.919 6.553,13.926 5.448,13.162 5.284 C 12.909 5.230,8.057 5.230,7.826 5.284 M5.826 10.284 C 5.476 10.366,5.267 10.636,5.267 11.003 C 5.267 11.281,5.387 11.496,5.627 11.645 L 5.780 11.740 9.360 11.753 C 11.961 11.762,12.998 11.752,13.154 11.719 C 13.919 11.553,13.926 10.448,13.162 10.284 C 12.907 10.230,6.059 10.230,5.826 10.284 M3.826 15.284 C 3.476 15.366,3.267 15.636,3.267 16.003 C 3.267 16.281,3.387 16.496,3.627 16.645 L 3.780 16.740 8.360 16.752 C 11.711 16.762,12.997 16.752,13.154 16.719 C 13.919 16.553,13.926 15.448,13.162 15.284 C 12.906 15.229,4.060 15.229,3.826 15.284 " stroke="none" fill-rule="evenodd" fill="black"></path></svg>