<svg width="24" height="24" viewBox="0 0 24 24" fill="none" xmlns="http://www.w3.org/2000/svg"><path d="M1.826 6.284 C 1.476 6.366,1.267 6.636,1.267 7.003 C 1.267 7.281,1.387 7.496,1.627 7.645 L 1.780 7.740 5.860 7.752 C 8.836 7.762,9.998 7.752,10.154 7.719 C 10.919 7.553,10.926 6.448,10.162 6.284 C 9.907 6.229,2.059 6.229,1.826 6.284 M16.533 6.282 C 14.517 6.447,12.758 7.641,11.851 9.460 C 11.072 11.023,11.072 12.977,11.851 14.540 C 13.400 17.645,17.282 18.689,20.180 16.778 C 22.348 15.349,23.275 12.587,22.418 10.105 C 21.800 8.316,20.271 6.908,18.440 6.442 C 17.852 6.293,17.133 6.232,16.533 6.282 M18.020 7.873 C 18.575 8.029,18.918 8.182,19.350 8.468 C 19.982 8.884,20.592 9.604,20.869 10.260 C 21.183 11.001,21.218 11.174,21.218 12.000 C 21.218 12.544,21.202 12.758,21.147 12.960 C 20.924 13.784,20.552 14.443,19.998 14.998 C 19.443 15.552,18.782 15.925,17.960 16.147 C 17.576 16.251,16.454 16.249,16.040 16.144 C 14.449 15.740,13.260 14.551,12.856 12.960 C 12.796 12.725,12.780 12.517,12.780 12.000 C 12.780 11.253,12.827 10.998,13.083 10.369 C 13.579 9.150,14.734 8.166,16.020 7.867 C 16.458 7.766,16.465 7.765,17.120 7.780 C 17.581 7.790,17.812 7.814,18.020 7.873 M16.826 9.286 C 16.625 9.331,16.468 9.445,16.353 9.631 C 16.261 9.778,16.260 9.797,16.260 10.923 L 16.260 12.066 16.365 12.223 C 16.601 12.575,17.522 13.592,17.670 13.663 C 18.178 13.908,18.742 13.541,18.734 12.971 C 18.730 12.717,18.680 12.636,18.144 12.020 L 17.761 11.580 17.759 10.800 C 17.759 10.371,17.739 9.939,17.717 9.841 C 17.622 9.428,17.243 9.192,16.826 9.286 M1.826 11.284 C 1.476 11.366,1.267 11.636,1.267 12.003 C 1.267 12.281,1.387 12.496,1.627 12.645 L 1.780 12.740 4.860 12.753 C 7.087 12.762,7.999 12.752,8.154 12.719 C 8.919 12.553,8.926 11.448,8.162 11.284 C 7.908 11.230,2.058 11.230,1.826 11.284 M1.826 16.284 C 1.476 16.366,1.267 16.636,1.267 17.003 C 1.267 17.281,1.387 17.496,1.627 17.645 L 1.780 17.740 5.860 17.752 C 8.836 17.762,9.998 17.752,10.154 17.719 C 10.919 17.553,10.926 16.448,10.162 16.284 C 9.907 16.229,2.059 16.229,1.826 16.284 " stroke="none" fill-rule="evenodd" fill="black"></path></svg>