<svg width="24" height="24" viewBox="0 0 24 24" fill="none" xmlns="http://www.w3.org/2000/svg"><path d="M16.826 3.286 C 16.625 3.331,16.468 3.445,16.353 3.631 L 16.260 3.780 16.260 12.000 L 16.260 20.220 16.353 20.369 C 16.668 20.877,17.404 20.856,17.664 20.332 C 17.737 20.185,17.741 19.944,17.760 13.229 L 17.780 6.279 18.634 7.418 C 19.188 8.159,19.538 8.589,19.629 8.646 C 19.827 8.768,20.175 8.767,20.374 8.644 C 20.660 8.467,20.796 8.137,20.714 7.820 C 20.651 7.577,17.539 3.436,17.355 3.352 C 17.166 3.266,17.006 3.245,16.826 3.286 M3.826 7.284 C 3.476 7.366,3.267 7.636,3.267 8.003 C 3.267 8.281,3.387 8.496,3.627 8.645 L 3.780 8.740 8.360 8.752 C 11.711 8.762,12.997 8.752,13.154 8.719 C 13.919 8.553,13.926 7.448,13.162 7.284 C 12.906 7.229,4.060 7.229,3.826 7.284 M5.826 12.284 C 5.476 12.366,5.267 12.636,5.267 13.003 C 5.267 13.281,5.387 13.496,5.627 13.645 L 5.780 13.740 9.360 13.753 C 11.961 13.762,12.998 13.752,13.154 13.719 C 13.919 13.553,13.926 12.448,13.162 12.284 C 12.907 12.230,6.059 12.230,5.826 12.284 M7.826 17.284 C 7.476 17.366,7.267 17.636,7.267 18.003 C 7.267 18.281,7.387 18.496,7.627 18.645 L 7.780 18.740 10.360 18.753 C 12.212 18.762,13.000 18.752,13.154 18.719 C 13.919 18.553,13.926 17.448,13.162 17.284 C 12.909 17.230,8.057 17.230,7.826 17.284 " stroke="none" fill-rule="evenodd" fill="black"></path></svg>