<svg width="24" height="24" viewBox="0 0 24 24" fill="none" xmlns="http://www.w3.org/2000/svg"><path d="M9.947 3.284 C 9.862 3.304,9.759 3.344,9.718 3.373 C 9.541 3.497,5.427 7.512,5.351 7.636 C 5.239 7.815,5.236 8.172,5.343 8.354 C 5.447 8.531,9.610 12.561,9.786 12.656 C 10.010 12.776,10.326 12.759,10.531 12.615 C 10.763 12.452,10.859 12.271,10.857 12.000 C 10.857 11.876,10.827 11.727,10.791 11.658 C 10.755 11.590,10.085 10.915,9.301 10.158 L 7.876 8.780 13.028 8.760 C 17.978 8.741,18.186 8.737,18.332 8.664 C 18.863 8.401,18.863 7.599,18.332 7.336 C 18.186 7.263,17.978 7.259,13.028 7.240 L 7.876 7.220 9.301 5.842 C 10.085 5.085,10.750 4.418,10.780 4.361 C 10.920 4.089,10.885 3.747,10.694 3.520 C 10.512 3.304,10.235 3.217,9.947 3.284 M13.700 11.277 C 13.226 11.391,12.992 11.919,13.220 12.361 C 13.250 12.418,13.915 13.085,14.699 13.842 L 16.124 15.220 10.952 15.240 L 5.780 15.260 5.627 15.355 C 5.385 15.506,5.267 15.718,5.267 16.003 C 5.267 16.203,5.286 16.270,5.383 16.408 C 5.447 16.499,5.572 16.610,5.660 16.656 C 5.819 16.740,5.844 16.740,10.971 16.760 L 16.122 16.780 14.699 18.157 C 13.916 18.914,13.251 19.581,13.221 19.638 C 13.029 20.010,13.172 20.480,13.534 20.667 C 13.704 20.755,14.039 20.750,14.214 20.656 C 14.390 20.561,18.553 16.531,18.657 16.354 C 18.708 16.268,18.733 16.150,18.733 16.000 C 18.733 15.850,18.708 15.732,18.657 15.646 C 18.556 15.474,14.390 11.438,14.227 11.354 C 14.067 11.271,13.855 11.240,13.700 11.277 " stroke="none" fill-rule="evenodd" fill="black"></path></svg>