<svg width="24" height="24" viewBox="0 0 24 24" fill="none" xmlns="http://www.w3.org/2000/svg"><path d="M3.826 6.284 C 3.476 6.366,3.267 6.636,3.267 7.003 C 3.267 7.281,3.387 7.496,3.627 7.645 L 3.780 7.740 11.860 7.752 C 17.835 7.761,19.996 7.753,20.154 7.719 C 20.919 7.554,20.926 6.448,20.162 6.284 C 19.904 6.229,4.061 6.229,3.826 6.284 M3.826 11.284 C 3.476 11.366,3.267 11.636,3.267 12.003 C 3.267 12.281,3.387 12.496,3.627 12.645 L 3.780 12.740 9.360 12.752 C 13.461 12.761,14.997 12.753,15.154 12.719 C 15.919 12.554,15.926 11.448,15.162 11.284 C 14.905 11.229,4.060 11.229,3.826 11.284 M3.826 16.284 C 3.476 16.366,3.267 16.636,3.267 17.003 C 3.267 17.281,3.387 17.496,3.627 17.645 L 3.780 17.740 6.360 17.753 C 8.212 17.762,9.000 17.752,9.154 17.719 C 9.919 17.553,9.926 16.448,9.162 16.284 C 8.909 16.230,4.057 16.230,3.826 16.284 " stroke="none" fill-rule="evenodd" fill="black"></path></svg>