<svg width="24" height="24" viewBox="0 0 24 24" fill="none" xmlns="http://www.w3.org/2000/svg"><path d="M2.826 6.284 C 2.476 6.366,2.267 6.636,2.267 7.003 C 2.267 7.281,2.387 7.496,2.627 7.645 L 2.780 7.740 7.860 7.752 C 11.586 7.761,12.997 7.753,13.154 7.719 C 13.919 7.554,13.926 6.448,13.162 6.284 C 12.906 6.229,3.060 6.229,2.826 6.284 M16.340 6.277 C 16.174 6.317,16.077 6.374,15.954 6.507 C 15.851 6.617,11.408 16.427,11.295 16.793 C 11.128 17.338,11.628 17.855,12.186 17.714 C 12.527 17.628,12.582 17.538,13.380 15.760 L 14.107 14.140 16.500 14.140 L 18.893 14.140 19.620 15.760 C 20.418 17.538,20.473 17.628,20.814 17.714 C 21.371 17.855,21.853 17.362,21.703 16.805 C 21.616 16.483,17.160 6.629,17.046 6.506 C 16.860 6.307,16.586 6.218,16.340 6.277 M17.356 10.723 L 18.191 12.580 17.358 12.591 C 16.900 12.597,16.139 12.597,15.667 12.591 L 14.809 12.580 15.651 10.709 C 16.113 9.681,16.498 8.845,16.506 8.853 C 16.514 8.860,16.896 9.702,17.356 10.723 M2.826 11.284 C 2.476 11.366,2.267 11.636,2.267 12.003 C 2.267 12.281,2.387 12.496,2.627 12.645 L 2.780 12.740 6.360 12.753 C 8.961 12.762,9.998 12.752,10.154 12.719 C 10.919 12.553,10.926 11.448,10.162 11.284 C 9.907 11.230,3.059 11.230,2.826 11.284 M2.826 16.284 C 2.476 16.366,2.267 16.636,2.267 17.003 C 2.267 17.281,2.387 17.496,2.627 17.645 L 2.780 17.740 5.360 17.753 C 7.212 17.762,8.000 17.752,8.154 17.719 C 8.919 17.553,8.926 16.448,8.162 16.284 C 7.909 16.230,3.057 16.230,2.826 16.284 " stroke="none" fill-rule="evenodd" fill="black"></path></svg>