<svg width="24" height="24" viewBox="0 0 24 24" fill="none" xmlns="http://www.w3.org/2000/svg"><path d="M7.815 5.278 C 7.639 5.320,7.462 5.455,7.353 5.631 L 7.260 5.780 7.240 10.952 L 7.220 16.124 5.842 14.699 C 5.085 13.915,4.418 13.250,4.361 13.220 C 3.990 13.029,3.520 13.172,3.333 13.534 C 3.245 13.704,3.250 14.039,3.344 14.214 C 3.438 14.389,7.448 18.533,7.636 18.649 C 7.815 18.761,8.172 18.764,8.354 18.657 C 8.531 18.553,12.561 14.390,12.656 14.214 C 12.750 14.039,12.755 13.704,12.667 13.534 C 12.480 13.172,12.010 13.029,11.638 13.221 C 11.581 13.251,10.914 13.916,10.157 14.699 L 8.780 16.122 8.760 10.971 C 8.741 6.022,8.737 5.814,8.664 5.668 C 8.573 5.484,8.395 5.343,8.180 5.284 C 8.003 5.236,7.993 5.236,7.815 5.278 M15.819 5.276 C 15.753 5.293,15.653 5.336,15.598 5.372 C 15.425 5.485,11.424 9.637,11.344 9.786 C 11.250 9.961,11.245 10.296,11.333 10.466 C 11.520 10.828,11.990 10.971,12.361 10.780 C 12.418 10.750,13.085 10.085,13.842 9.301 L 15.220 7.876 15.240 13.048 L 15.260 18.220 15.353 18.369 C 15.664 18.870,16.408 18.849,16.664 18.332 C 16.737 18.186,16.741 17.978,16.760 13.029 L 16.780 7.878 18.157 9.301 C 18.914 10.084,19.589 10.755,19.657 10.790 C 19.726 10.827,19.876 10.857,20.000 10.857 C 20.271 10.859,20.452 10.763,20.615 10.531 C 20.759 10.326,20.776 10.010,20.656 9.786 C 20.567 9.620,16.535 5.449,16.372 5.354 C 16.232 5.273,15.978 5.237,15.819 5.276 " stroke="none" fill-rule="evenodd" fill="black"></path></svg>