<svg width="24" height="24" viewBox="0 0 24 24" fill="none" xmlns="http://www.w3.org/2000/svg"><path d="M1.815 6.278 C 1.331 6.393,1.098 7.004,1.383 7.408 C 1.448 7.499,1.572 7.610,1.660 7.656 L 1.820 7.740 11.880 7.751 C 19.099 7.758,22.000 7.749,22.154 7.717 C 22.902 7.562,22.929 6.473,22.189 6.286 C 21.978 6.233,2.036 6.225,1.815 6.278 M4.815 11.278 C 4.331 11.393,4.098 12.004,4.383 12.408 C 4.447 12.499,4.572 12.610,4.660 12.656 L 4.820 12.740 11.880 12.751 C 16.920 12.758,19.001 12.749,19.154 12.717 C 19.902 12.562,19.929 11.473,19.189 11.286 C 18.978 11.233,5.035 11.225,4.815 11.278 M7.815 16.278 C 7.331 16.393,7.098 17.004,7.383 17.408 C 7.447 17.499,7.572 17.610,7.660 17.656 C 7.819 17.739,7.851 17.740,11.879 17.751 C 14.744 17.759,16.001 17.749,16.153 17.717 C 16.902 17.562,16.930 16.473,16.189 16.286 C 15.979 16.234,8.034 16.226,7.815 16.278 " stroke="none" fill-rule="evenodd" fill="black"></path></svg>