<svg width="24" height="24" viewBox="0 0 24 24" fill="none" xmlns="http://www.w3.org/2000/svg"><path d="M11.815 3.277 C 11.638 3.321,11.461 3.456,11.353 3.631 L 11.260 3.780 11.260 12.000 L 11.260 20.220 11.353 20.369 C 11.710 20.943,12.576 20.812,12.716 20.162 C 12.776 19.882,12.777 4.101,12.717 3.841 C 12.623 3.432,12.215 3.177,11.815 3.277 M7.815 6.277 C 7.638 6.321,7.461 6.456,7.353 6.631 L 7.260 6.780 7.260 12.000 L 7.260 17.220 7.353 17.369 C 7.710 17.943,8.576 17.812,8.716 17.162 C 8.775 16.884,8.776 7.100,8.717 6.841 C 8.623 6.432,8.215 6.177,7.815 6.277 M15.815 6.277 C 15.638 6.321,15.461 6.456,15.353 6.631 L 15.260 6.780 15.260 12.000 L 15.260 17.220 15.353 17.369 C 15.710 17.943,16.576 17.812,16.716 17.162 C 16.775 16.884,16.776 7.100,16.717 6.841 C 16.623 6.432,16.215 6.177,15.815 6.277 M3.815 10.277 C 3.638 10.321,3.461 10.456,3.353 10.631 C 3.261 10.778,3.260 10.793,3.260 12.000 C 3.260 13.207,3.261 13.222,3.353 13.369 C 3.710 13.943,4.576 13.812,4.716 13.162 C 4.772 12.901,4.773 11.083,4.717 10.841 C 4.623 10.432,4.215 10.177,3.815 10.277 M19.815 10.277 C 19.638 10.321,19.461 10.456,19.353 10.631 C 19.261 10.778,19.260 10.793,19.260 12.000 C 19.260 13.207,19.261 13.222,19.353 13.369 C 19.710 13.943,20.576 13.812,20.716 13.162 C 20.772 12.901,20.773 11.083,20.717 10.841 C 20.623 10.432,20.215 10.177,19.815 10.277 " stroke="none" fill-rule="evenodd" fill="black"></path></svg>