<svg width="24" height="24" viewBox="0 0 24 24" fill="none" xmlns="http://www.w3.org/2000/svg"><path d="M11.320 1.281 C 7.041 1.525,3.252 4.409,1.843 8.497 C 1.180 10.418,1.082 12.560,1.564 14.550 C 2.505 18.428,5.572 21.495,9.450 22.436 C 11.106 22.837,12.894 22.837,14.550 22.436 C 18.428 21.495,21.495 18.428,22.436 14.550 C 22.837 12.894,22.837 11.106,22.436 9.450 C 21.425 5.282,17.985 2.095,13.742 1.398 C 13.334 1.331,12.074 1.229,11.880 1.247 C 11.847 1.250,11.595 1.265,11.320 1.281 M13.146 2.822 C 14.201 2.960,15.125 3.237,16.060 3.696 C 18.877 5.079,20.768 7.722,21.178 10.854 C 21.301 11.786,21.244 13.026,21.034 13.998 C 20.745 15.343,20.003 16.855,19.121 17.900 C 18.247 18.935,17.240 19.726,16.060 20.304 C 14.761 20.940,13.462 21.240,12.000 21.240 C 10.538 21.240,9.236 20.940,7.940 20.304 C 5.123 18.921,3.232 16.278,2.822 13.146 C 2.699 12.214,2.756 10.974,2.966 10.002 C 3.177 9.020,3.703 7.775,4.268 6.920 C 5.750 4.677,8.131 3.188,10.820 2.823 C 11.380 2.746,12.569 2.746,13.146 2.822 M11.815 6.277 C 11.638 6.321,11.461 6.456,11.353 6.631 L 11.260 6.780 11.260 12.000 L 11.260 17.220 11.353 17.369 C 11.710 17.943,12.576 17.812,12.716 17.162 C 12.775 16.884,12.776 7.100,12.717 6.841 C 12.623 6.432,12.215 6.177,11.815 6.277 M6.815 8.277 C 6.638 8.321,6.461 8.456,6.353 8.631 L 6.260 8.780 6.260 12.000 L 6.260 15.220 6.353 15.369 C 6.710 15.943,7.576 15.812,7.716 15.162 C 7.775 14.887,7.776 9.097,7.717 8.841 C 7.623 8.432,7.215 8.177,6.815 8.277 M16.815 9.277 C 16.638 9.321,16.461 9.456,16.353 9.631 L 16.260 9.780 16.260 12.000 L 16.260 14.220 16.353 14.369 C 16.710 14.943,17.576 14.812,17.716 14.162 C 17.774 13.891,17.775 10.093,17.717 9.841 C 17.623 9.432,17.215 9.177,16.815 9.277 " stroke="none" fill-rule="evenodd" fill="black"></path></svg>