<svg width="24" height="24" viewBox="0 0 24 24" fill="none" xmlns="http://www.w3.org/2000/svg"><path d="M8.960 1.280 C 6.960 1.332,5.848 1.469,4.900 1.779 C 3.060 2.382,1.958 3.688,1.563 5.734 C 1.311 7.042,1.267 7.973,1.267 12.000 C 1.267 16.027,1.311 16.958,1.563 18.266 C 2.013 20.599,3.401 21.987,5.734 22.437 C 7.034 22.688,7.987 22.733,12.000 22.733 C 16.013 22.733,16.966 22.688,18.266 22.437 C 20.599 21.987,21.987 20.599,22.437 18.266 C 22.688 16.966,22.733 16.013,22.733 12.000 C 22.733 7.987,22.688 7.034,22.437 5.734 C 22.098 3.977,21.228 2.756,19.825 2.068 C 18.978 1.652,17.875 1.425,16.200 1.321 C 15.315 1.266,10.534 1.239,8.960 1.280 M16.787 2.853 C 17.971 2.982,18.589 3.129,19.180 3.421 C 20.200 3.924,20.776 4.815,21.019 6.260 C 21.215 7.435,21.251 8.515,21.229 12.620 C 21.210 16.115,21.195 16.526,21.055 17.500 C 20.734 19.744,19.757 20.726,17.520 21.054 C 16.474 21.207,16.036 21.220,12.000 21.220 C 7.964 21.220,7.526 21.207,6.480 21.054 C 4.384 20.747,3.408 19.870,3.021 17.947 C 2.796 16.826,2.780 16.428,2.780 12.000 C 2.780 8.382,2.788 7.864,2.852 7.240 C 3.025 5.550,3.340 4.663,4.001 4.001 C 4.665 3.338,5.593 3.009,7.220 2.862 C 8.207 2.772,8.227 2.772,12.400 2.782 C 15.524 2.790,16.323 2.803,16.787 2.853 M11.815 6.277 C 11.638 6.321,11.461 6.456,11.353 6.631 L 11.260 6.780 11.260 12.000 L 11.260 17.220 11.353 17.369 C 11.710 17.943,12.576 17.812,12.716 17.162 C 12.775 16.884,12.776 7.100,12.717 6.841 C 12.623 6.432,12.215 6.177,11.815 6.277 M6.815 8.277 C 6.638 8.321,6.461 8.456,6.353 8.631 L 6.260 8.780 6.260 12.000 L 6.260 15.220 6.353 15.369 C 6.710 15.943,7.576 15.812,7.716 15.162 C 7.775 14.887,7.776 9.097,7.717 8.841 C 7.623 8.432,7.215 8.177,6.815 8.277 M16.815 9.277 C 16.638 9.321,16.461 9.456,16.353 9.631 L 16.260 9.780 16.260 12.000 L 16.260 14.220 16.353 14.369 C 16.710 14.943,17.576 14.812,17.716 14.162 C 17.774 13.891,17.775 10.093,17.717 9.841 C 17.623 9.432,17.215 9.177,16.815 9.277 " stroke="none" fill-rule="evenodd" fill="black"></path></svg>