<svg width="24" height="24" viewBox="0 0 24 24" fill="none" xmlns="http://www.w3.org/2000/svg"><path d="M9.400 1.283 C 7.908 1.325,6.965 1.449,6.221 1.698 C 4.984 2.114,4.114 2.984,3.698 4.221 C 3.317 5.356,3.242 6.641,3.242 12.000 C 3.242 15.221,3.284 17.354,3.360 18.060 C 3.531 19.644,3.894 20.574,4.635 21.331 C 5.348 22.060,6.261 22.436,7.767 22.621 C 8.637 22.727,11.730 22.782,13.870 22.728 C 16.166 22.670,16.928 22.587,17.779 22.302 C 19.016 21.886,19.886 21.016,20.302 19.779 C 20.682 18.646,20.758 17.355,20.758 12.000 C 20.758 6.645,20.682 5.354,20.302 4.221 C 19.952 3.179,19.288 2.405,18.332 1.925 C 17.808 1.663,17.132 1.488,16.213 1.379 C 15.197 1.259,11.899 1.212,9.400 1.283 M15.340 2.801 C 16.245 2.860,16.701 2.931,17.200 3.089 C 18.552 3.517,19.050 4.407,19.198 6.659 C 19.254 7.516,19.254 16.484,19.198 17.341 C 19.047 19.644,18.533 20.523,17.099 20.939 C 16.178 21.206,15.301 21.252,11.520 21.229 C 9.614 21.218,8.352 21.194,8.100 21.165 C 5.800 20.900,5.077 20.163,4.833 17.840 C 4.756 17.116,4.756 6.884,4.833 6.160 C 5.090 3.704,5.897 2.982,8.580 2.804 C 9.283 2.757,14.638 2.755,15.340 2.801 M11.387 4.825 C 10.598 4.994,9.900 5.552,9.540 6.300 C 9.334 6.727,9.270 7.013,9.270 7.500 C 9.270 7.987,9.334 8.273,9.540 8.700 C 9.906 9.461,10.602 10.010,11.414 10.177 C 11.974 10.293,12.625 10.232,13.110 10.017 C 13.675 9.767,14.187 9.269,14.460 8.700 C 14.666 8.273,14.730 7.987,14.730 7.500 C 14.730 7.013,14.666 6.727,14.460 6.300 C 14.187 5.731,13.675 5.233,13.110 4.983 C 12.629 4.770,11.938 4.707,11.387 4.825 M12.499 6.355 C 13.131 6.635,13.420 7.400,13.126 8.020 C 12.908 8.481,12.507 8.736,12.000 8.736 C 11.642 8.736,11.412 8.647,11.151 8.406 C 10.870 8.147,10.780 7.928,10.780 7.500 C 10.780 7.201,10.796 7.110,10.873 6.960 C 11.189 6.352,11.896 6.089,12.499 6.355 M11.305 11.820 C 10.118 12.066,9.150 12.808,8.636 13.865 C 8.146 14.873,8.146 16.127,8.636 17.135 C 9.106 18.102,10.000 18.837,11.060 19.127 C 11.522 19.253,12.478 19.253,12.940 19.127 C 14.977 18.569,16.152 16.515,15.598 14.480 C 15.259 13.237,14.214 12.213,12.940 11.876 C 12.524 11.766,11.700 11.738,11.305 11.820 M12.400 13.282 C 13.132 13.400,13.857 14.012,14.126 14.740 C 14.201 14.942,14.215 15.062,14.215 15.500 C 14.215 16.085,14.153 16.327,13.904 16.701 C 12.978 18.098,11.039 18.098,10.095 16.703 C 9.649 16.043,9.649 14.957,10.095 14.297 C 10.630 13.507,11.476 13.134,12.400 13.282 " stroke="none" fill-rule="evenodd" fill="black"></path></svg>