<svg width="24" height="24" viewBox="0 0 24 24" fill="none" xmlns="http://www.w3.org/2000/svg"><path d="M9.400 1.283 C 7.908 1.325,6.965 1.449,6.221 1.698 C 4.984 2.114,4.114 2.984,3.698 4.221 C 3.317 5.356,3.242 6.641,3.242 12.000 C 3.242 15.221,3.284 17.354,3.360 18.060 C 3.531 19.644,3.894 20.574,4.635 21.331 C 5.348 22.060,6.261 22.436,7.767 22.621 C 8.637 22.727,11.730 22.782,13.870 22.728 C 16.166 22.670,16.928 22.587,17.779 22.302 C 19.016 21.886,19.886 21.016,20.302 19.779 C 20.682 18.646,20.758 17.355,20.758 12.000 C 20.758 6.645,20.682 5.354,20.302 4.221 C 19.952 3.179,19.288 2.405,18.332 1.925 C 17.808 1.663,17.132 1.488,16.213 1.379 C 15.197 1.259,11.899 1.212,9.400 1.283 M15.340 2.801 C 16.245 2.860,16.701 2.931,17.200 3.089 C 18.552 3.517,19.050 4.407,19.198 6.659 C 19.254 7.516,19.254 16.484,19.198 17.341 C 19.047 19.644,18.533 20.523,17.099 20.939 C 16.178 21.206,15.301 21.252,11.520 21.229 C 9.614 21.218,8.352 21.194,8.100 21.165 C 5.800 20.900,5.077 20.163,4.833 17.840 C 4.756 17.116,4.756 6.884,4.833 6.160 C 5.090 3.704,5.897 2.982,8.580 2.804 C 9.283 2.757,14.638 2.755,15.340 2.801 M9.815 5.278 C 9.331 5.393,9.098 6.004,9.383 6.408 C 9.447 6.499,9.572 6.610,9.660 6.656 C 9.815 6.738,9.880 6.740,11.875 6.752 C 14.208 6.765,14.281 6.759,14.519 6.521 C 14.918 6.122,14.731 5.423,14.189 5.286 C 13.980 5.234,10.031 5.226,9.815 5.278 M11.579 9.280 C 9.750 9.440,8.200 10.632,7.540 12.384 C 7.182 13.335,7.182 14.665,7.540 15.616 C 8.042 16.949,9.049 17.958,10.376 18.457 C 11.340 18.820,12.660 18.820,13.624 18.457 C 14.951 17.958,15.958 16.949,16.460 15.616 C 16.819 14.661,16.818 13.336,16.457 12.376 C 15.695 10.348,13.716 9.092,11.579 9.280 M12.980 10.894 C 13.508 11.068,13.854 11.286,14.284 11.716 C 14.712 12.143,14.928 12.485,15.108 13.020 C 15.209 13.316,15.217 13.389,15.217 14.000 C 15.217 14.611,15.209 14.684,15.108 14.980 C 14.928 15.515,14.712 15.857,14.284 16.284 C 13.857 16.712,13.515 16.928,12.980 17.108 C 12.684 17.209,12.611 17.217,12.000 17.217 C 11.389 17.217,11.316 17.209,11.020 17.108 C 10.485 16.928,10.143 16.712,9.716 16.284 C 9.288 15.857,9.072 15.515,8.892 14.980 C 8.791 14.684,8.783 14.611,8.783 14.000 C 8.783 13.389,8.791 13.316,8.892 13.020 C 9.072 12.485,9.288 12.143,9.716 11.716 C 10.433 10.999,11.066 10.750,12.100 10.775 C 12.572 10.787,12.710 10.806,12.980 10.894 " stroke="none" fill-rule="evenodd" fill="black"></path></svg>