<svg width="24" height="24" viewBox="0 0 24 24" fill="none" xmlns="http://www.w3.org/2000/svg"><path d="M8.960 1.280 C 6.960 1.332,5.848 1.469,4.900 1.779 C 3.060 2.382,1.958 3.688,1.563 5.734 C 1.311 7.042,1.267 7.973,1.267 12.000 C 1.267 16.027,1.311 16.958,1.563 18.266 C 2.013 20.599,3.401 21.987,5.734 22.437 C 7.034 22.688,7.987 22.733,12.000 22.733 C 16.013 22.733,16.966 22.688,18.266 22.437 C 20.599 21.987,21.987 20.599,22.437 18.266 C 22.688 16.966,22.733 16.013,22.733 12.000 C 22.733 7.987,22.688 7.034,22.437 5.734 C 22.098 3.977,21.228 2.756,19.825 2.068 C 18.978 1.652,17.875 1.425,16.200 1.321 C 15.315 1.266,10.534 1.239,8.960 1.280 M16.787 2.853 C 17.971 2.982,18.589 3.129,19.180 3.421 C 20.200 3.924,20.776 4.815,21.019 6.260 C 21.215 7.435,21.251 8.515,21.229 12.620 C 21.210 16.115,21.195 16.526,21.055 17.500 C 20.734 19.744,19.757 20.726,17.520 21.054 C 16.474 21.207,16.036 21.220,12.000 21.220 C 7.964 21.220,7.526 21.207,6.480 21.054 C 4.384 20.747,3.408 19.870,3.021 17.947 C 2.796 16.826,2.780 16.428,2.780 12.000 C 2.780 8.382,2.788 7.864,2.852 7.240 C 3.025 5.550,3.340 4.663,4.001 4.001 C 4.665 3.338,5.593 3.009,7.220 2.862 C 8.207 2.772,8.227 2.772,12.400 2.782 C 15.524 2.790,16.323 2.803,16.787 2.853 M5.807 7.287 C 5.558 7.343,5.341 7.571,5.284 7.838 C 5.222 8.127,5.222 15.873,5.284 16.162 C 5.447 16.920,6.553 16.920,6.716 16.162 C 6.744 16.031,6.760 15.374,6.760 14.358 L 6.760 12.760 8.358 12.760 C 10.180 12.760,10.292 12.748,10.520 12.520 C 10.929 12.111,10.725 11.405,10.162 11.284 C 10.031 11.256,9.374 11.240,8.358 11.240 L 6.760 11.240 6.760 10.000 L 6.760 8.760 8.358 8.760 C 9.374 8.760,10.031 8.744,10.162 8.716 C 10.920 8.553,10.920 7.447,10.162 7.284 C 9.903 7.229,6.058 7.231,5.807 7.287 M11.785 7.288 C 11.429 7.385,11.187 7.820,11.285 8.184 C 11.314 8.288,11.777 8.940,12.684 10.150 C 13.430 11.145,14.040 11.978,14.040 12.000 C 14.040 12.022,13.430 12.855,12.684 13.850 C 11.704 15.157,11.315 15.707,11.282 15.828 C 11.113 16.468,11.861 16.983,12.424 16.614 C 12.474 16.581,13.067 15.817,13.742 14.917 C 14.417 14.017,14.983 13.280,15.000 13.280 C 15.017 13.280,15.584 14.018,16.260 14.919 C 17.011 15.922,17.537 16.588,17.614 16.634 C 18.177 16.972,18.885 16.445,18.715 15.816 C 18.686 15.712,18.223 15.060,17.316 13.850 C 16.570 12.855,15.960 12.022,15.960 12.000 C 15.960 11.978,16.570 11.145,17.316 10.150 C 18.223 8.940,18.686 8.288,18.715 8.184 C 18.885 7.555,18.177 7.028,17.614 7.366 C 17.537 7.412,17.011 8.078,16.260 9.081 C 15.584 9.982,15.017 10.720,15.000 10.720 C 14.983 10.720,14.416 9.982,13.740 9.081 C 12.999 8.091,12.462 7.411,12.386 7.365 C 12.224 7.266,11.981 7.235,11.785 7.288 " stroke="none" fill-rule="evenodd" fill="black"></path></svg>