<svg width="24" height="24" viewBox="0 0 24 24" fill="none" xmlns="http://www.w3.org/2000/svg"><path d="M11.310 1.283 C 6.653 1.563,2.667 4.904,1.564 9.450 C 1.162 11.110,1.162 12.890,1.564 14.550 C 2.415 18.060,5.032 20.948,8.442 22.139 C 10.725 22.937,13.275 22.937,15.558 22.139 C 18.633 21.065,21.092 18.592,22.157 15.503 C 22.819 13.585,22.918 11.437,22.436 9.450 C 21.419 5.255,17.924 2.044,13.657 1.383 C 13.303 1.328,12.042 1.231,11.880 1.246 C 11.847 1.249,11.590 1.266,11.310 1.283 M11.246 3.513 C 11.260 4.209,11.263 4.230,11.367 4.388 C 11.526 4.628,11.721 4.733,12.007 4.733 C 12.203 4.733,12.270 4.714,12.408 4.617 C 12.699 4.411,12.738 4.283,12.754 3.484 L 12.768 2.789 13.068 2.814 C 13.943 2.888,15.121 3.236,16.064 3.698 C 16.664 3.992,17.454 4.492,17.800 4.796 L 17.980 4.954 17.432 5.507 C 16.869 6.074,16.760 6.236,16.760 6.500 C 16.760 6.660,16.849 6.898,16.952 7.014 C 17.052 7.127,17.318 7.238,17.491 7.239 C 17.764 7.241,17.921 7.136,18.493 6.568 L 19.046 6.020 19.204 6.200 C 19.508 6.546,20.008 7.336,20.302 7.936 C 20.759 8.869,21.080 9.950,21.190 10.926 L 21.224 11.233 20.522 11.246 C 19.716 11.262,19.589 11.301,19.383 11.592 C 19.286 11.730,19.267 11.797,19.267 11.993 C 19.267 12.279,19.372 12.474,19.612 12.633 C 19.770 12.738,19.790 12.740,20.499 12.754 L 21.224 12.767 21.190 13.074 C 21.080 14.049,20.759 15.131,20.303 16.062 C 20.008 16.665,19.503 17.464,19.205 17.800 L 19.046 17.980 18.493 17.432 C 17.921 16.864,17.764 16.759,17.491 16.761 C 17.318 16.762,17.052 16.873,16.952 16.986 C 16.849 17.102,16.760 17.340,16.760 17.500 C 16.760 17.764,16.869 17.926,17.432 18.493 L 17.980 19.046 17.800 19.205 C 17.464 19.503,16.665 20.008,16.062 20.303 C 14.761 20.940,13.462 21.240,12.000 21.240 C 10.538 21.240,9.239 20.940,7.938 20.303 C 7.335 20.008,6.536 19.503,6.200 19.205 L 6.020 19.046 6.568 18.493 C 7.131 17.926,7.240 17.764,7.240 17.500 C 7.240 17.340,7.151 17.102,7.048 16.986 C 6.948 16.873,6.682 16.762,6.509 16.761 C 6.236 16.759,6.079 16.864,5.507 17.432 L 4.954 17.980 4.795 17.800 C 4.497 17.464,3.992 16.665,3.697 16.062 C 3.241 15.131,2.920 14.049,2.810 13.074 L 2.776 12.767 3.498 12.754 C 4.171 12.741,4.230 12.734,4.369 12.647 C 4.943 12.290,4.812 11.424,4.162 11.284 C 4.049 11.260,3.690 11.240,3.366 11.240 L 2.775 11.240 2.810 10.930 C 2.920 9.951,3.240 8.871,3.697 7.938 C 3.992 7.335,4.497 6.536,4.795 6.200 L 4.954 6.020 5.507 6.568 C 6.074 7.131,6.236 7.240,6.500 7.240 C 6.660 7.240,6.898 7.151,7.014 7.048 C 7.127 6.948,7.238 6.682,7.239 6.509 C 7.241 6.236,7.136 6.079,6.568 5.507 L 6.020 4.954 6.200 4.796 C 6.706 4.350,7.807 3.709,8.623 3.386 C 9.338 3.102,10.545 2.812,11.046 2.803 L 11.232 2.800 11.246 3.513 M12.060 8.508 C 11.210 8.568,10.542 8.823,9.893 9.337 C 9.231 9.860,8.762 10.630,8.576 11.500 C 8.505 11.834,8.495 12.562,8.557 12.906 C 8.695 13.661,9.150 14.503,9.669 14.960 C 10.321 15.535,11.528 15.960,13.414 16.280 C 14.511 16.466,15.208 16.311,15.759 15.759 C 16.311 15.208,16.466 14.511,16.280 13.414 C 15.973 11.606,15.579 10.447,15.039 9.763 C 14.558 9.154,13.500 8.599,12.708 8.538 C 12.550 8.526,12.375 8.512,12.320 8.506 C 12.265 8.501,12.148 8.502,12.060 8.508 M12.814 10.063 C 13.339 10.199,13.851 10.576,14.069 10.987 C 14.321 11.462,14.565 12.326,14.779 13.493 C 14.900 14.153,14.903 14.325,14.800 14.552 C 14.738 14.688,14.684 14.740,14.534 14.807 C 14.299 14.911,14.038 14.895,13.200 14.724 C 11.620 14.403,10.942 14.150,10.567 13.740 C 10.196 13.334,10.000 12.819,10.001 12.254 C 10.002 11.603,10.203 11.117,10.660 10.660 C 10.970 10.350,11.306 10.151,11.665 10.063 C 11.984 9.986,12.515 9.986,12.814 10.063 " stroke="none" fill-rule="evenodd" fill="black"></path></svg>