<svg width="24" height="24" viewBox="0 0 24 24" fill="none" xmlns="http://www.w3.org/2000/svg"><path d="M8.960 1.283 C 6.976 1.330,5.854 1.467,4.900 1.779 C 3.060 2.382,1.958 3.688,1.563 5.734 C 1.311 7.042,1.267 7.973,1.267 12.000 C 1.267 16.027,1.311 16.958,1.563 18.266 C 2.013 20.599,3.401 21.987,5.734 22.437 C 7.034 22.688,7.987 22.733,12.000 22.733 C 16.013 22.733,16.966 22.688,18.266 22.437 C 20.599 21.987,21.987 20.599,22.437 18.266 C 22.636 17.232,22.703 16.250,22.743 13.759 C 22.774 11.840,22.762 11.722,22.523 11.483 C 22.173 11.133,21.619 11.203,21.353 11.631 L 21.260 11.780 21.234 13.920 C 21.209 16.032,21.179 16.638,21.055 17.500 C 20.734 19.744,19.757 20.726,17.520 21.054 C 16.474 21.207,16.036 21.220,12.000 21.220 C 7.964 21.220,7.526 21.207,6.480 21.054 C 4.384 20.747,3.408 19.870,3.021 17.947 C 2.796 16.826,2.780 16.428,2.780 12.000 C 2.780 7.572,2.796 7.174,3.021 6.053 C 3.383 4.255,4.256 3.382,6.053 3.021 C 6.950 2.841,7.693 2.794,9.900 2.774 C 11.052 2.763,12.033 2.737,12.154 2.714 C 12.902 2.569,12.929 1.473,12.189 1.286 C 11.986 1.235,11.027 1.234,8.960 1.283 M20.900 2.259 C 20.878 2.267,20.806 2.285,20.740 2.299 C 20.649 2.319,19.659 3.285,16.692 6.250 L 12.764 10.175 12.752 8.318 C 12.739 6.282,12.747 6.352,12.494 6.113 C 12.289 5.919,11.973 5.863,11.708 5.974 C 11.553 6.039,11.333 6.279,11.291 6.431 C 11.274 6.491,11.260 7.821,11.260 9.387 L 11.260 12.233 11.380 12.403 C 11.446 12.496,11.572 12.610,11.660 12.656 C 11.818 12.739,11.858 12.740,14.640 12.740 C 16.191 12.740,17.509 12.726,17.569 12.709 C 17.721 12.667,17.961 12.447,18.026 12.292 C 18.137 12.027,18.081 11.711,17.887 11.506 C 17.648 11.253,17.718 11.261,15.682 11.248 L 13.825 11.236 17.749 7.308 C 21.563 3.490,21.673 3.375,21.712 3.189 C 21.782 2.847,21.657 2.530,21.389 2.367 C 21.265 2.292,20.983 2.229,20.900 2.259 " stroke="none" fill-rule="evenodd" fill="black"></path></svg>