<svg width="24" height="24" viewBox="0 0 24 24" fill="none" xmlns="http://www.w3.org/2000/svg"><path d="M9.020 1.281 C 7.739 1.310,7.481 1.326,6.649 1.423 C 4.782 1.643,3.569 2.183,2.728 3.171 C 1.841 4.212,1.475 5.425,1.314 7.860 C 1.249 8.841,1.249 15.159,1.314 16.140 C 1.431 17.905,1.649 18.970,2.068 19.825 C 2.756 21.228,3.977 22.098,5.734 22.437 C 7.035 22.688,7.988 22.733,12.000 22.733 C 16.012 22.733,16.965 22.688,18.266 22.437 C 20.599 21.987,21.987 20.599,22.437 18.266 C 22.636 17.232,22.703 16.252,22.743 13.758 C 22.773 11.835,22.762 11.722,22.521 11.481 C 22.179 11.139,21.613 11.212,21.353 11.631 L 21.260 11.780 21.234 13.920 C 21.209 16.032,21.179 16.638,21.055 17.500 C 20.744 19.673,19.812 20.664,17.740 21.020 C 16.654 21.207,16.320 21.218,12.040 21.219 C 7.880 21.220,7.593 21.212,6.500 21.055 C 4.391 20.754,3.409 19.877,3.021 17.947 C 2.796 16.825,2.780 16.431,2.781 11.980 C 2.782 7.664,2.793 7.353,2.984 6.240 C 3.231 4.800,3.803 3.921,4.820 3.421 C 5.834 2.922,7.190 2.762,10.412 2.761 C 11.484 2.760,12.065 2.745,12.189 2.714 C 12.924 2.529,12.904 1.443,12.162 1.284 C 11.940 1.237,11.049 1.236,9.020 1.281 M14.539 1.941 C 14.154 2.084,13.876 2.489,13.801 3.020 C 13.779 3.174,13.761 3.681,13.761 4.148 L 13.760 4.995 13.570 5.020 C 11.660 5.271,10.093 6.013,8.880 7.242 C 7.482 8.658,6.676 10.512,6.361 13.040 C 6.286 13.641,6.240 14.954,6.286 15.171 C 6.370 15.563,6.787 15.820,7.171 15.717 C 7.420 15.650,7.541 15.545,7.721 15.243 C 8.102 14.601,8.711 13.978,9.406 13.519 C 10.528 12.779,12.164 12.200,13.430 12.096 L 13.760 12.068 13.761 12.884 C 13.762 13.864,13.801 14.178,13.962 14.509 C 14.176 14.946,14.535 15.147,15.039 15.111 C 15.358 15.088,15.645 14.949,16.062 14.617 C 16.663 14.138,19.851 11.348,20.355 10.860 C 20.979 10.255,21.228 9.943,21.440 9.500 C 21.768 8.814,21.768 8.186,21.440 7.500 C 21.109 6.809,20.618 6.314,18.077 4.111 C 16.073 2.373,15.875 2.211,15.545 2.035 C 15.344 1.928,15.250 1.904,15.001 1.894 C 14.805 1.886,14.644 1.902,14.539 1.941 M17.029 5.180 C 18.902 6.800,19.921 7.775,20.081 8.100 C 20.213 8.367,20.212 8.635,20.080 8.899 C 19.878 9.301,19.062 10.065,16.128 12.600 C 15.683 12.985,15.301 13.306,15.281 13.313 C 15.258 13.320,15.239 12.861,15.232 12.166 L 15.220 11.007 15.097 10.854 C 14.869 10.569,14.797 10.551,13.980 10.575 C 12.619 10.616,11.400 10.894,10.089 11.461 C 9.357 11.778,8.379 12.353,8.025 12.675 L 7.910 12.780 7.935 12.580 C 8.025 11.878,8.339 10.849,8.685 10.123 C 9.333 8.762,10.240 7.809,11.500 7.167 C 12.286 6.766,13.127 6.548,14.152 6.479 C 14.797 6.436,14.888 6.404,15.096 6.146 L 15.220 5.993 15.232 4.834 C 15.239 4.146,15.259 3.680,15.280 3.687 C 15.301 3.694,16.088 4.366,17.029 5.180 " stroke="none" fill-rule="evenodd" fill="black"></path></svg>