<svg width="24" height="24" viewBox="0 0 24 24" fill="none" xmlns="http://www.w3.org/2000/svg"><path d="M8.960 1.283 C 6.976 1.330,5.854 1.467,4.900 1.779 C 3.060 2.382,1.958 3.688,1.563 5.734 C 1.311 7.042,1.267 7.973,1.267 12.000 C 1.267 16.027,1.311 16.958,1.563 18.266 C 2.013 20.599,3.401 21.987,5.734 22.437 C 7.034 22.688,7.987 22.733,12.000 22.733 C 16.013 22.733,16.966 22.688,18.266 22.437 C 20.599 21.987,21.987 20.599,22.437 18.266 C 22.636 17.232,22.703 16.250,22.743 13.759 C 22.774 11.840,22.762 11.722,22.523 11.483 C 22.173 11.133,21.619 11.203,21.353 11.631 L 21.260 11.780 21.234 13.920 C 21.209 16.032,21.179 16.638,21.055 17.500 C 20.734 19.744,19.757 20.726,17.520 21.054 C 16.474 21.207,16.036 21.220,12.000 21.220 C 7.964 21.220,7.526 21.207,6.480 21.054 C 4.384 20.747,3.408 19.870,3.021 17.947 C 2.796 16.826,2.780 16.428,2.780 12.000 C 2.780 7.572,2.796 7.174,3.021 6.053 C 3.383 4.255,4.256 3.382,6.053 3.021 C 6.950 2.841,7.693 2.794,9.900 2.774 C 11.052 2.763,12.033 2.737,12.154 2.714 C 12.902 2.569,12.929 1.473,12.189 1.286 C 11.986 1.235,11.027 1.234,8.960 1.283 M16.580 1.259 C 16.558 1.267,16.491 1.284,16.431 1.297 C 16.284 1.329,16.041 1.548,15.974 1.708 C 15.863 1.973,15.919 2.289,16.113 2.494 C 16.352 2.747,16.282 2.739,18.318 2.752 L 20.175 2.764 16.250 6.692 C 13.425 9.519,12.316 10.654,12.294 10.740 C 12.134 11.349,12.583 11.836,13.189 11.712 C 13.375 11.673,13.490 11.563,17.308 7.749 L 21.236 3.825 21.248 5.682 C 21.261 7.718,21.253 7.648,21.506 7.887 C 21.711 8.081,22.027 8.137,22.292 8.026 C 22.447 7.961,22.667 7.721,22.709 7.569 C 22.726 7.509,22.740 6.191,22.740 4.640 C 22.740 1.858,22.739 1.818,22.656 1.660 C 22.610 1.572,22.496 1.446,22.403 1.380 L 22.233 1.260 19.427 1.252 C 17.883 1.248,16.602 1.251,16.580 1.259 " stroke="none" fill-rule="evenodd" fill="black"></path></svg>