<svg width="24" height="24" viewBox="0 0 24 24" fill="none" xmlns="http://www.w3.org/2000/svg"><path d="M8.960 1.280 C 6.960 1.332,5.848 1.469,4.900 1.779 C 3.060 2.382,1.958 3.688,1.563 5.734 C 1.311 7.042,1.267 7.973,1.267 12.000 C 1.267 16.027,1.311 16.958,1.563 18.266 C 2.013 20.599,3.401 21.987,5.734 22.437 C 7.034 22.688,7.987 22.733,12.000 22.733 C 16.013 22.733,16.966 22.688,18.266 22.437 C 20.599 21.987,21.987 20.599,22.437 18.266 C 22.688 16.966,22.733 16.013,22.733 12.000 C 22.733 7.987,22.688 7.034,22.437 5.734 C 22.098 3.977,21.228 2.756,19.825 2.068 C 18.978 1.652,17.875 1.425,16.200 1.321 C 15.315 1.266,10.534 1.239,8.960 1.280 M16.787 2.853 C 17.971 2.982,18.589 3.129,19.180 3.421 C 20.200 3.924,20.776 4.815,21.019 6.260 C 21.215 7.435,21.251 8.515,21.229 12.620 C 21.210 16.115,21.195 16.526,21.055 17.500 C 20.734 19.744,19.757 20.726,17.520 21.054 C 16.474 21.207,16.036 21.220,12.000 21.220 C 7.964 21.220,7.526 21.207,6.480 21.054 C 4.384 20.747,3.408 19.870,3.021 17.947 C 2.796 16.826,2.780 16.428,2.780 12.000 C 2.780 8.382,2.788 7.864,2.852 7.240 C 3.025 5.550,3.340 4.663,4.001 4.001 C 4.665 3.338,5.593 3.009,7.220 2.862 C 8.207 2.772,8.227 2.772,12.400 2.782 C 15.524 2.790,16.323 2.803,16.787 2.853 M8.420 8.260 C 8.398 8.267,8.331 8.284,8.271 8.297 C 8.124 8.329,7.881 8.548,7.814 8.708 C 7.743 8.879,7.746 9.128,7.821 9.308 C 7.861 9.403,8.325 9.899,9.149 10.727 L 10.417 12.001 9.150 13.271 C 8.314 14.110,7.863 14.592,7.822 14.690 C 7.664 15.068,7.814 15.478,8.179 15.669 C 8.338 15.752,8.668 15.748,8.841 15.662 C 9.051 15.556,12.102 12.493,12.178 12.311 C 12.212 12.229,12.240 12.089,12.240 12.000 C 12.240 11.911,12.212 11.771,12.178 11.689 C 12.105 11.515,9.054 8.444,8.860 8.349 C 8.733 8.287,8.488 8.237,8.420 8.260 M12.420 8.260 C 12.398 8.267,12.331 8.284,12.271 8.297 C 12.124 8.329,11.881 8.548,11.814 8.708 C 11.743 8.879,11.746 9.128,11.821 9.308 C 11.861 9.403,12.325 9.899,13.149 10.727 L 14.417 12.001 13.150 13.271 C 12.314 14.110,11.863 14.592,11.822 14.690 C 11.664 15.068,11.814 15.478,12.179 15.669 C 12.338 15.752,12.668 15.748,12.841 15.662 C 13.051 15.556,16.102 12.493,16.178 12.311 C 16.212 12.229,16.240 12.089,16.240 12.000 C 16.240 11.911,16.212 11.771,16.178 11.689 C 16.105 11.515,13.054 8.444,12.860 8.349 C 12.733 8.287,12.488 8.237,12.420 8.260 " stroke="none" fill-rule="evenodd" fill="black"></path></svg>