<svg width="24" height="24" viewBox="0 0 24 24" fill="none" xmlns="http://www.w3.org/2000/svg"><path d="M8.960 1.280 C 6.960 1.332,5.848 1.469,4.900 1.779 C 3.060 2.382,1.958 3.688,1.563 5.734 C 1.311 7.042,1.267 7.973,1.267 12.000 C 1.267 16.027,1.311 16.958,1.563 18.266 C 2.013 20.599,3.401 21.987,5.734 22.437 C 7.034 22.688,7.987 22.733,12.000 22.733 C 16.013 22.733,16.966 22.688,18.266 22.437 C 20.599 21.987,21.987 20.599,22.437 18.266 C 22.688 16.966,22.733 16.013,22.733 12.000 C 22.733 7.987,22.688 7.034,22.437 5.734 C 22.098 3.977,21.228 2.756,19.825 2.068 C 18.978 1.652,17.875 1.425,16.200 1.321 C 15.315 1.266,10.534 1.239,8.960 1.280 M16.787 2.853 C 17.971 2.982,18.589 3.129,19.180 3.421 C 20.200 3.924,20.776 4.815,21.019 6.260 C 21.215 7.435,21.251 8.515,21.229 12.620 C 21.210 16.115,21.195 16.526,21.055 17.500 C 20.734 19.744,19.757 20.726,17.520 21.054 C 16.474 21.207,16.036 21.220,12.000 21.220 C 7.964 21.220,7.526 21.207,6.480 21.054 C 4.384 20.747,3.408 19.870,3.021 17.947 C 2.796 16.826,2.780 16.428,2.780 12.000 C 2.780 8.382,2.788 7.864,2.852 7.240 C 3.025 5.550,3.340 4.663,4.001 4.001 C 4.665 3.338,5.593 3.009,7.220 2.862 C 8.207 2.772,8.227 2.772,12.400 2.782 C 15.524 2.790,16.323 2.803,16.787 2.853 M9.420 7.260 C 9.398 7.267,9.331 7.284,9.271 7.297 C 9.150 7.324,8.905 7.523,8.828 7.655 C 8.792 7.719,8.775 8.529,8.760 10.896 L 8.740 14.053 8.105 13.352 C 7.737 12.945,7.413 12.623,7.334 12.585 C 6.987 12.420,6.522 12.565,6.353 12.892 C 6.249 13.092,6.239 13.405,6.331 13.581 C 6.402 13.717,8.927 16.496,9.083 16.610 C 9.309 16.775,9.691 16.775,9.917 16.610 C 10.073 16.496,12.598 13.717,12.669 13.581 C 12.759 13.409,12.748 13.093,12.646 12.891 C 12.480 12.565,12.013 12.420,11.666 12.585 C 11.587 12.623,11.263 12.945,10.895 13.352 L 10.260 14.053 10.240 10.896 C 10.225 8.601,10.207 7.718,10.173 7.660 C 10.115 7.559,9.925 7.382,9.820 7.330 C 9.727 7.284,9.478 7.240,9.420 7.260 M14.325 7.280 C 14.251 7.298,14.143 7.347,14.085 7.389 C 13.927 7.504,11.403 10.282,11.331 10.419 C 11.239 10.595,11.249 10.908,11.353 11.108 C 11.540 11.470,12.046 11.598,12.390 11.370 C 12.482 11.309,12.823 10.965,13.149 10.604 L 13.740 9.949 13.760 13.104 C 13.775 15.400,13.793 16.282,13.827 16.340 C 13.888 16.446,14.075 16.618,14.198 16.681 C 14.252 16.709,14.388 16.731,14.500 16.731 C 14.612 16.731,14.748 16.709,14.802 16.681 C 14.925 16.618,15.112 16.446,15.173 16.340 C 15.207 16.282,15.225 15.399,15.240 13.104 L 15.260 9.947 15.895 10.648 C 16.263 11.055,16.587 11.377,16.666 11.415 C 17.013 11.580,17.480 11.435,17.646 11.109 C 17.749 10.907,17.759 10.591,17.669 10.419 C 17.634 10.354,17.197 9.850,16.698 9.300 C 15.293 7.754,14.959 7.401,14.845 7.344 C 14.697 7.269,14.483 7.243,14.325 7.280 " stroke="none" fill-rule="evenodd" fill="black"></path></svg>