<svg width="24" height="24" viewBox="0 0 24 24" fill="none" xmlns="http://www.w3.org/2000/svg"><path d="M8.960 1.280 C 6.960 1.332,5.848 1.469,4.900 1.779 C 3.060 2.382,1.958 3.688,1.563 5.734 C 1.311 7.042,1.267 7.973,1.267 12.000 C 1.267 16.027,1.311 16.958,1.563 18.266 C 2.013 20.599,3.401 21.987,5.734 22.437 C 7.034 22.688,7.987 22.733,12.000 22.733 C 16.013 22.733,16.966 22.688,18.266 22.437 C 20.599 21.987,21.987 20.599,22.437 18.266 C 22.688 16.966,22.733 16.013,22.733 12.000 C 22.733 7.987,22.688 7.034,22.437 5.734 C 22.098 3.977,21.228 2.756,19.825 2.068 C 18.978 1.652,17.875 1.425,16.200 1.321 C 15.315 1.266,10.534 1.239,8.960 1.280 M16.787 2.853 C 17.971 2.982,18.589 3.129,19.180 3.421 C 20.200 3.924,20.776 4.815,21.019 6.260 C 21.215 7.435,21.251 8.515,21.229 12.620 C 21.210 16.115,21.195 16.526,21.055 17.500 C 20.734 19.744,19.757 20.726,17.520 21.054 C 16.474 21.207,16.036 21.220,12.000 21.220 C 7.964 21.220,7.526 21.207,6.480 21.054 C 4.384 20.747,3.408 19.870,3.021 17.947 C 2.796 16.826,2.780 16.428,2.780 12.000 C 2.780 8.382,2.788 7.864,2.852 7.240 C 3.025 5.550,3.340 4.663,4.001 4.001 C 4.665 3.338,5.593 3.009,7.220 2.862 C 8.207 2.772,8.227 2.772,12.400 2.782 C 15.524 2.790,16.323 2.803,16.787 2.853 M8.815 8.278 C 8.640 8.320,8.462 8.455,8.356 8.626 C 8.253 8.793,8.233 9.155,8.318 9.320 C 8.346 9.375,9.450 10.503,10.772 11.828 L 13.174 14.235 11.737 14.248 C 10.166 14.261,10.188 14.258,9.953 14.506 C 9.819 14.647,9.760 14.799,9.760 15.000 C 9.760 15.201,9.819 15.353,9.953 15.494 C 10.196 15.751,10.073 15.739,12.616 15.752 C 15.231 15.765,15.279 15.761,15.520 15.520 C 15.761 15.279,15.765 15.231,15.752 12.616 C 15.739 10.073,15.751 10.196,15.494 9.953 C 15.353 9.819,15.201 9.760,15.000 9.760 C 14.799 9.760,14.647 9.819,14.506 9.953 C 14.258 10.188,14.261 10.166,14.248 11.737 L 14.235 13.174 11.808 10.751 C 9.384 8.332,9.380 8.328,9.168 8.284 C 9.051 8.260,8.952 8.242,8.948 8.244 C 8.944 8.246,8.884 8.262,8.815 8.278 " stroke="none" fill-rule="evenodd" fill="black"></path></svg>