<svg width="24" height="24" viewBox="0 0 24 24" fill="none" xmlns="http://www.w3.org/2000/svg"><path d="M8.960 1.280 C 6.960 1.332,5.848 1.469,4.900 1.779 C 3.060 2.382,1.958 3.688,1.563 5.734 C 1.311 7.042,1.267 7.973,1.267 12.000 C 1.267 16.027,1.311 16.958,1.563 18.266 C 2.013 20.599,3.401 21.987,5.734 22.437 C 7.034 22.688,7.987 22.733,12.000 22.733 C 16.013 22.733,16.966 22.688,18.266 22.437 C 20.599 21.987,21.987 20.599,22.437 18.266 C 22.688 16.966,22.733 16.013,22.733 12.000 C 22.733 7.987,22.688 7.034,22.437 5.734 C 22.098 3.977,21.228 2.756,19.825 2.068 C 18.978 1.652,17.875 1.425,16.200 1.321 C 15.315 1.266,10.534 1.239,8.960 1.280 M16.787 2.853 C 17.971 2.982,18.589 3.129,19.180 3.421 C 20.200 3.924,20.776 4.815,21.019 6.260 C 21.215 7.435,21.251 8.515,21.229 12.620 C 21.210 16.115,21.195 16.526,21.055 17.500 C 20.734 19.744,19.757 20.726,17.520 21.054 C 16.474 21.207,16.036 21.220,12.000 21.220 C 7.964 21.220,7.526 21.207,6.480 21.054 C 4.384 20.747,3.408 19.870,3.021 17.947 C 2.796 16.826,2.780 16.428,2.780 12.000 C 2.780 8.382,2.788 7.864,2.852 7.240 C 3.025 5.550,3.340 4.663,4.001 4.001 C 4.665 3.338,5.593 3.009,7.220 2.862 C 8.207 2.772,8.227 2.772,12.400 2.782 C 15.524 2.790,16.323 2.803,16.787 2.853 M11.329 8.279 C 11.257 8.296,11.131 8.357,11.049 8.414 C 10.766 8.610,7.888 11.531,7.822 11.689 C 7.743 11.878,7.743 12.122,7.822 12.311 C 7.898 12.493,10.949 15.556,11.159 15.662 C 11.332 15.748,11.662 15.752,11.821 15.669 C 12.186 15.479,12.336 15.068,12.179 14.692 C 12.139 14.597,11.675 14.101,10.851 13.273 L 9.584 12.000 10.851 10.727 C 11.675 9.899,12.139 9.403,12.179 9.308 C 12.373 8.843,12.095 8.344,11.600 8.270 C 11.523 8.258,11.401 8.262,11.329 8.279 M15.329 8.279 C 15.257 8.296,15.131 8.357,15.049 8.414 C 14.766 8.610,11.888 11.531,11.822 11.689 C 11.743 11.878,11.743 12.122,11.822 12.311 C 11.898 12.493,14.949 15.556,15.159 15.662 C 15.332 15.748,15.662 15.752,15.821 15.669 C 16.186 15.479,16.336 15.068,16.179 14.692 C 16.139 14.597,15.675 14.101,14.851 13.273 L 13.584 12.000 14.851 10.727 C 15.675 9.899,16.139 9.403,16.179 9.308 C 16.373 8.843,16.095 8.344,15.600 8.270 C 15.523 8.258,15.401 8.262,15.329 8.279 " stroke="none" fill-rule="evenodd" fill="black"></path></svg>