<svg width="24" height="24" viewBox="0 0 24 24" fill="none" xmlns="http://www.w3.org/2000/svg"><path d="M8.960 1.280 C 6.960 1.332,5.848 1.469,4.900 1.779 C 3.060 2.382,1.958 3.688,1.563 5.734 C 1.311 7.042,1.267 7.973,1.267 12.000 C 1.267 16.027,1.311 16.958,1.563 18.266 C 2.013 20.599,3.401 21.987,5.734 22.437 C 7.034 22.688,7.987 22.733,12.000 22.733 C 16.013 22.733,16.966 22.688,18.266 22.437 C 20.599 21.987,21.987 20.599,22.437 18.266 C 22.688 16.966,22.733 16.013,22.733 12.000 C 22.733 7.987,22.688 7.034,22.437 5.734 C 22.098 3.977,21.228 2.756,19.825 2.068 C 18.978 1.652,17.875 1.425,16.200 1.321 C 15.315 1.266,10.534 1.239,8.960 1.280 M16.787 2.853 C 17.971 2.982,18.589 3.129,19.180 3.421 C 20.200 3.924,20.776 4.815,21.019 6.260 C 21.215 7.435,21.251 8.515,21.229 12.620 C 21.210 16.115,21.195 16.526,21.055 17.500 C 20.734 19.744,19.757 20.726,17.520 21.054 C 16.474 21.207,16.036 21.220,12.000 21.220 C 7.964 21.220,7.526 21.207,6.480 21.054 C 4.384 20.747,3.408 19.870,3.021 17.947 C 2.796 16.826,2.780 16.428,2.780 12.000 C 2.780 8.382,2.788 7.864,2.852 7.240 C 3.025 5.550,3.340 4.663,4.001 4.001 C 4.665 3.338,5.593 3.009,7.220 2.862 C 8.207 2.772,8.227 2.772,12.400 2.782 C 15.524 2.790,16.323 2.803,16.787 2.853 M10.249 6.278 C 10.075 6.321,10.031 6.357,8.092 8.051 C 6.891 9.100,6.388 9.564,6.338 9.669 C 6.299 9.752,6.269 9.910,6.269 10.031 C 6.269 10.294,6.416 10.529,6.660 10.656 C 6.819 10.740,6.836 10.740,11.880 10.751 C 15.467 10.758,17.002 10.749,17.154 10.717 C 17.827 10.577,17.948 9.641,17.332 9.336 C 17.187 9.263,16.999 9.259,13.106 9.240 L 9.032 9.220 10.034 8.346 C 10.695 7.768,11.058 7.423,11.102 7.330 C 11.203 7.116,11.168 6.731,11.031 6.550 C 10.860 6.326,10.526 6.210,10.249 6.278 M6.815 13.278 C 6.331 13.393,6.098 14.004,6.383 14.408 C 6.447 14.499,6.572 14.610,6.660 14.656 C 6.818 14.739,6.859 14.740,10.895 14.760 L 14.969 14.780 13.968 15.652 C 13.277 16.254,12.945 16.570,12.897 16.672 C 12.810 16.855,12.813 17.151,12.903 17.341 C 13.092 17.739,13.652 17.864,14.011 17.589 C 14.275 17.387,17.425 14.630,17.548 14.494 C 17.911 14.091,17.711 13.418,17.189 13.286 C 16.979 13.233,7.035 13.226,6.815 13.278 " stroke="none" fill-rule="evenodd" fill="black"></path></svg>