<svg width="24" height="24" viewBox="0 0 24 24" fill="none" xmlns="http://www.w3.org/2000/svg"><path d="M8.960 1.280 C 6.960 1.332,5.848 1.469,4.900 1.779 C 3.060 2.382,1.958 3.688,1.563 5.734 C 1.311 7.042,1.267 7.973,1.267 12.000 C 1.267 16.027,1.311 16.958,1.563 18.266 C 2.013 20.599,3.401 21.987,5.734 22.437 C 7.034 22.688,7.987 22.733,12.000 22.733 C 16.013 22.733,16.966 22.688,18.266 22.437 C 20.599 21.987,21.987 20.599,22.437 18.266 C 22.688 16.966,22.733 16.013,22.733 12.000 C 22.733 7.987,22.688 7.034,22.437 5.734 C 22.098 3.977,21.228 2.756,19.825 2.068 C 18.978 1.652,17.875 1.425,16.200 1.321 C 15.315 1.266,10.534 1.239,8.960 1.280 M16.787 2.853 C 17.971 2.982,18.589 3.129,19.180 3.421 C 20.200 3.924,20.776 4.815,21.019 6.260 C 21.215 7.435,21.251 8.515,21.229 12.620 C 21.210 16.115,21.195 16.526,21.055 17.500 C 20.734 19.744,19.757 20.726,17.520 21.054 C 16.474 21.207,16.036 21.220,12.000 21.220 C 7.964 21.220,7.526 21.207,6.480 21.054 C 4.384 20.747,3.408 19.870,3.021 17.947 C 2.796 16.826,2.780 16.428,2.780 12.000 C 2.780 8.382,2.788 7.864,2.852 7.240 C 3.025 5.550,3.340 4.663,4.001 4.001 C 4.665 3.338,5.593 3.009,7.220 2.862 C 8.207 2.772,8.227 2.772,12.400 2.782 C 15.524 2.790,16.323 2.803,16.787 2.853 M11.815 7.277 C 11.638 7.321,11.461 7.456,11.353 7.631 L 11.260 7.780 11.249 10.977 L 11.238 14.174 10.309 13.253 C 9.464 12.415,9.363 12.328,9.191 12.286 C 8.854 12.203,8.538 12.332,8.356 12.626 C 8.235 12.823,8.232 13.174,8.351 13.364 C 8.398 13.439,9.152 14.214,10.028 15.086 C 11.544 16.596,11.629 16.673,11.810 16.711 C 11.934 16.737,12.066 16.737,12.190 16.711 C 12.372 16.674,12.453 16.599,14.026 15.026 C 15.599 13.453,15.674 13.372,15.711 13.190 C 15.798 12.766,15.576 12.384,15.186 12.286 C 15.015 12.243,14.933 12.247,14.700 12.309 C 14.656 12.320,14.202 12.745,13.690 13.253 L 12.760 14.176 12.759 11.098 C 12.758 9.128,12.743 7.956,12.717 7.841 C 12.623 7.432,12.215 7.177,11.815 7.277 " stroke="none" fill-rule="evenodd" fill="black"></path></svg>