<svg width="24" height="24" viewBox="0 0 24 24" fill="none" xmlns="http://www.w3.org/2000/svg"><path d="M11.700 2.269 C 11.132 2.292,10.381 2.457,9.805 2.686 C 9.541 2.791,3.743 5.495,2.903 5.905 C 2.646 6.031,2.564 6.093,2.473 6.238 C 2.112 6.806,2.628 7.517,3.274 7.343 C 3.376 7.316,4.999 6.571,6.880 5.689 C 8.761 4.807,10.442 4.038,10.616 3.980 C 11.497 3.685,12.503 3.685,13.384 3.980 C 13.558 4.038,15.280 4.825,17.211 5.730 C 21.011 7.510,20.915 7.457,21.115 7.880 C 21.207 8.072,21.220 8.152,21.220 8.500 C 21.220 8.848,21.207 8.928,21.115 9.120 C 20.914 9.544,21.011 9.490,17.210 11.271 C 15.279 12.175,13.558 12.962,13.384 13.020 C 12.575 13.291,11.595 13.312,10.780 13.077 C 10.455 12.983,10.008 12.783,7.660 11.679 C 5.155 10.501,5.047 10.459,4.747 10.558 C 4.567 10.617,4.338 10.869,4.283 11.067 C 4.229 11.262,4.226 16.420,4.280 16.960 C 4.346 17.622,4.528 18.138,4.881 18.660 C 5.304 19.286,5.739 19.603,7.100 20.278 C 9.328 21.383,11.046 21.844,12.468 21.719 C 13.742 21.608,15.126 21.158,16.900 20.278 C 18.261 19.603,18.697 19.286,19.119 18.660 C 19.392 18.256,19.552 17.884,19.670 17.380 C 19.726 17.141,19.739 16.709,19.758 14.410 L 19.780 11.719 20.380 11.438 C 21.522 10.902,21.719 10.783,22.020 10.444 C 22.971 9.371,22.971 7.629,22.020 6.556 C 21.812 6.322,21.553 6.134,21.180 5.948 C 20.508 5.613,14.502 2.808,14.197 2.687 C 13.426 2.381,12.551 2.234,11.700 2.269 M5.680 7.334 C 5.292 7.476,3.959 8.060,3.501 8.289 C 2.391 8.843,1.964 9.404,1.816 10.500 C 1.747 11.008,1.736 15.091,1.803 15.267 C 1.905 15.540,2.193 15.731,2.500 15.731 C 2.807 15.731,3.095 15.540,3.197 15.267 C 3.225 15.194,3.240 14.478,3.241 13.187 C 3.242 11.110,3.272 10.540,3.393 10.268 C 3.551 9.912,3.927 9.693,5.578 8.997 C 6.480 8.616,6.634 8.506,6.715 8.184 C 6.798 7.854,6.637 7.483,6.352 7.349 C 6.112 7.236,5.959 7.232,5.680 7.334 M8.000 13.490 C 9.695 14.285,9.953 14.393,10.483 14.534 C 11.066 14.688,11.372 14.727,12.000 14.727 C 12.858 14.727,13.548 14.586,14.362 14.244 C 14.570 14.156,15.523 13.717,16.480 13.267 L 18.220 12.449 18.231 14.675 C 18.237 16.093,18.226 16.972,18.200 17.100 C 18.111 17.530,17.822 17.995,17.485 18.252 C 17.239 18.439,15.964 19.092,15.240 19.402 C 14.540 19.701,13.651 19.999,13.080 20.126 C 12.478 20.261,11.522 20.261,10.920 20.126 C 10.349 19.999,9.460 19.701,8.760 19.402 C 8.036 19.092,6.761 18.439,6.515 18.252 C 6.310 18.096,6.095 17.830,5.965 17.571 C 5.766 17.176,5.760 17.098,5.760 14.693 L 5.760 12.443 6.130 12.615 C 6.334 12.710,7.175 13.104,8.000 13.490 " stroke="none" fill-rule="evenodd" fill="black"></path></svg>