<svg width="24" height="24" viewBox="0 0 24 24" fill="none" xmlns="http://www.w3.org/2000/svg"><path d="M8.960 1.280 C 6.960 1.332,5.848 1.469,4.900 1.779 C 3.060 2.382,1.958 3.688,1.563 5.734 C 1.311 7.042,1.267 7.973,1.267 12.000 C 1.267 16.027,1.311 16.958,1.563 18.266 C 2.013 20.599,3.401 21.987,5.734 22.437 C 7.034 22.688,7.987 22.733,12.000 22.733 C 16.013 22.733,16.966 22.688,18.266 22.437 C 20.599 21.987,21.987 20.599,22.437 18.266 C 22.688 16.966,22.733 16.013,22.733 12.000 C 22.733 7.987,22.688 7.034,22.437 5.734 C 22.098 3.977,21.228 2.756,19.825 2.068 C 18.978 1.652,17.875 1.425,16.200 1.321 C 15.315 1.266,10.534 1.239,8.960 1.280 M16.787 2.853 C 17.971 2.982,18.589 3.129,19.180 3.421 C 20.200 3.924,20.776 4.815,21.019 6.260 C 21.215 7.435,21.251 8.515,21.229 12.620 C 21.210 16.115,21.195 16.526,21.055 17.500 C 20.734 19.744,19.757 20.726,17.520 21.054 C 16.474 21.207,16.036 21.220,12.000 21.220 C 7.964 21.220,7.526 21.207,6.480 21.054 C 4.384 20.747,3.408 19.870,3.021 17.947 C 2.796 16.826,2.780 16.428,2.780 12.000 C 2.780 8.382,2.788 7.864,2.852 7.240 C 3.025 5.550,3.340 4.663,4.001 4.001 C 4.665 3.338,5.593 3.009,7.220 2.862 C 8.207 2.772,8.227 2.772,12.400 2.782 C 15.524 2.790,16.323 2.803,16.787 2.853 M14.900 8.260 C 14.878 8.267,14.806 8.285,14.740 8.299 C 14.650 8.319,14.007 8.937,12.192 10.750 L 9.765 13.174 9.752 11.737 C 9.739 10.166,9.742 10.188,9.494 9.953 C 9.289 9.759,8.973 9.703,8.708 9.814 C 8.553 9.879,8.333 10.119,8.291 10.271 C 8.274 10.331,8.260 11.472,8.260 12.807 L 8.260 15.233 8.380 15.403 C 8.446 15.496,8.572 15.610,8.660 15.656 C 8.817 15.738,8.864 15.740,11.220 15.740 C 12.540 15.740,13.669 15.726,13.729 15.709 C 13.881 15.667,14.121 15.447,14.186 15.292 C 14.297 15.027,14.241 14.711,14.047 14.506 C 13.812 14.258,13.834 14.261,12.263 14.248 L 10.826 14.235 13.249 11.808 C 15.587 9.465,15.673 9.373,15.711 9.189 C 15.785 8.834,15.633 8.480,15.352 8.350 C 15.213 8.286,14.968 8.237,14.900 8.260 " stroke="none" fill-rule="evenodd" fill="black"></path></svg>