<svg width="24" height="24" viewBox="0 0 24 24" fill="none" xmlns="http://www.w3.org/2000/svg"><path d="M8.960 1.280 C 6.960 1.332,5.848 1.469,4.900 1.779 C 3.060 2.382,1.958 3.688,1.563 5.734 C 1.311 7.042,1.267 7.973,1.267 12.000 C 1.267 16.027,1.311 16.958,1.563 18.266 C 2.013 20.599,3.401 21.987,5.734 22.437 C 7.034 22.688,7.987 22.733,12.000 22.733 C 16.013 22.733,16.966 22.688,18.266 22.437 C 20.599 21.987,21.987 20.599,22.437 18.266 C 22.688 16.966,22.733 16.013,22.733 12.000 C 22.733 7.987,22.688 7.034,22.437 5.734 C 22.098 3.977,21.228 2.756,19.825 2.068 C 18.978 1.652,17.875 1.425,16.200 1.321 C 15.315 1.266,10.534 1.239,8.960 1.280 M16.787 2.853 C 17.971 2.982,18.589 3.129,19.180 3.421 C 20.200 3.924,20.776 4.815,21.019 6.260 C 21.215 7.435,21.251 8.515,21.229 12.620 C 21.210 16.115,21.195 16.526,21.055 17.500 C 20.734 19.744,19.757 20.726,17.520 21.054 C 16.474 21.207,16.036 21.220,12.000 21.220 C 7.964 21.220,7.526 21.207,6.480 21.054 C 4.384 20.747,3.408 19.870,3.021 17.947 C 2.796 16.826,2.780 16.428,2.780 12.000 C 2.780 8.382,2.788 7.864,2.852 7.240 C 3.025 5.550,3.340 4.663,4.001 4.001 C 4.665 3.338,5.593 3.009,7.220 2.862 C 8.207 2.772,8.227 2.772,12.400 2.782 C 15.524 2.790,16.323 2.803,16.787 2.853 M9.815 6.277 C 9.638 6.321,9.461 6.456,9.353 6.631 L 9.260 6.780 9.240 10.874 L 9.220 14.968 8.349 13.970 C 7.869 13.421,7.437 12.951,7.389 12.925 C 6.927 12.683,6.399 12.904,6.282 13.390 C 6.205 13.714,6.263 13.844,6.730 14.387 C 8.462 16.402,9.535 17.598,9.667 17.661 C 9.746 17.698,9.896 17.729,10.000 17.729 C 10.363 17.729,10.635 17.513,10.717 17.159 C 10.774 16.912,10.774 7.088,10.717 6.841 C 10.623 6.432,10.215 6.177,9.815 6.277 M13.815 6.278 C 13.639 6.320,13.462 6.455,13.353 6.631 L 13.260 6.780 13.260 12.000 L 13.260 17.220 13.353 17.369 C 13.664 17.870,14.408 17.849,14.664 17.332 C 14.737 17.187,14.741 16.999,14.760 13.106 L 14.780 9.032 15.654 10.034 C 16.234 10.697,16.577 11.058,16.670 11.102 C 16.853 11.189,17.150 11.188,17.336 11.099 C 17.714 10.920,17.862 10.373,17.625 10.035 C 17.589 9.983,16.866 9.146,16.019 8.175 C 15.016 7.025,14.433 6.388,14.349 6.349 C 14.176 6.269,13.968 6.242,13.815 6.278 " stroke="none" fill-rule="evenodd" fill="black"></path></svg>