<svg width="24" height="24" viewBox="0 0 24 24" fill="none" xmlns="http://www.w3.org/2000/svg"><path d="M8.960 1.280 C 6.960 1.332,5.848 1.469,4.900 1.779 C 3.060 2.382,1.958 3.688,1.563 5.734 C 1.311 7.042,1.267 7.973,1.267 12.000 C 1.267 16.027,1.311 16.958,1.563 18.266 C 2.013 20.599,3.401 21.987,5.734 22.437 C 7.034 22.688,7.987 22.733,12.000 22.733 C 16.013 22.733,16.966 22.688,18.266 22.437 C 20.599 21.987,21.987 20.599,22.437 18.266 C 22.688 16.966,22.733 16.013,22.733 12.000 C 22.733 7.987,22.688 7.034,22.437 5.734 C 22.098 3.977,21.228 2.756,19.825 2.068 C 18.978 1.652,17.875 1.425,16.200 1.321 C 15.315 1.266,10.534 1.239,8.960 1.280 M16.787 2.853 C 17.971 2.982,18.589 3.129,19.180 3.421 C 20.200 3.924,20.776 4.815,21.019 6.260 C 21.215 7.435,21.251 8.515,21.229 12.620 C 21.210 16.115,21.195 16.526,21.055 17.500 C 20.734 19.744,19.757 20.726,17.520 21.054 C 16.474 21.207,16.036 21.220,12.000 21.220 C 7.964 21.220,7.526 21.207,6.480 21.054 C 4.384 20.747,3.408 19.870,3.021 17.947 C 2.796 16.826,2.780 16.428,2.780 12.000 C 2.780 8.382,2.788 7.864,2.852 7.240 C 3.025 5.550,3.340 4.663,4.001 4.001 C 4.665 3.338,5.593 3.009,7.220 2.862 C 8.207 2.772,8.227 2.772,12.400 2.782 C 15.524 2.790,16.323 2.803,16.787 2.853 M10.580 6.276 C 10.514 6.293,10.424 6.326,10.380 6.350 C 10.267 6.411,7.482 8.958,7.390 9.083 C 7.225 9.309,7.225 9.691,7.390 9.917 C 7.504 10.073,10.283 12.598,10.419 12.669 C 10.591 12.759,10.907 12.748,11.109 12.646 C 11.470 12.461,11.598 11.954,11.370 11.610 C 11.309 11.518,10.965 11.177,10.604 10.851 L 9.949 10.260 13.104 10.240 C 15.400 10.225,16.282 10.207,16.340 10.173 C 16.446 10.112,16.618 9.925,16.681 9.802 C 16.746 9.676,16.746 9.324,16.681 9.198 C 16.618 9.075,16.446 8.888,16.340 8.827 C 16.282 8.793,15.400 8.775,13.104 8.760 L 9.949 8.740 10.604 8.149 C 11.375 7.453,11.480 7.316,11.480 7.005 C 11.480 6.522,11.036 6.161,10.580 6.276 M13.080 11.276 C 12.719 11.390,12.520 11.643,12.520 11.992 C 12.520 12.105,12.549 12.259,12.585 12.334 C 12.623 12.413,12.945 12.737,13.352 13.105 L 14.053 13.740 10.896 13.760 C 8.601 13.775,7.718 13.793,7.660 13.827 C 7.554 13.888,7.382 14.075,7.319 14.198 C 7.254 14.324,7.254 14.676,7.319 14.802 C 7.382 14.925,7.554 15.112,7.660 15.173 C 7.718 15.207,8.601 15.225,10.896 15.240 L 14.053 15.260 13.352 15.895 C 12.945 16.263,12.623 16.587,12.585 16.666 C 12.420 17.013,12.565 17.480,12.891 17.646 C 13.093 17.748,13.409 17.759,13.581 17.669 C 13.717 17.598,16.496 15.073,16.610 14.917 C 16.775 14.691,16.775 14.309,16.610 14.083 C 16.505 13.939,13.723 11.405,13.600 11.341 C 13.464 11.271,13.202 11.238,13.080 11.276 " stroke="none" fill-rule="evenodd" fill="black"></path></svg>