<svg width="24" height="24" viewBox="0 0 24 24" fill="none" xmlns="http://www.w3.org/2000/svg"><path d="M8.960 1.280 C 6.960 1.332,5.848 1.469,4.900 1.779 C 3.060 2.382,1.958 3.688,1.563 5.734 C 1.311 7.042,1.267 7.973,1.267 12.000 C 1.267 16.027,1.311 16.958,1.563 18.266 C 2.013 20.599,3.401 21.987,5.734 22.437 C 7.034 22.688,7.987 22.733,12.000 22.733 C 16.013 22.733,16.966 22.688,18.266 22.437 C 20.599 21.987,21.987 20.599,22.437 18.266 C 22.688 16.966,22.733 16.013,22.733 12.000 C 22.733 7.987,22.688 7.034,22.437 5.734 C 22.098 3.977,21.228 2.756,19.825 2.068 C 18.978 1.652,17.875 1.425,16.200 1.321 C 15.315 1.266,10.534 1.239,8.960 1.280 M16.787 2.853 C 17.971 2.982,18.589 3.129,19.180 3.421 C 20.200 3.924,20.776 4.815,21.019 6.260 C 21.215 7.435,21.251 8.515,21.229 12.620 C 21.210 16.115,21.195 16.526,21.055 17.500 C 20.734 19.744,19.757 20.726,17.520 21.054 C 16.474 21.207,16.036 21.220,12.000 21.220 C 7.964 21.220,7.526 21.207,6.480 21.054 C 4.384 20.747,3.408 19.870,3.021 17.947 C 2.796 16.826,2.780 16.428,2.780 12.000 C 2.780 8.382,2.788 7.864,2.852 7.240 C 3.025 5.550,3.340 4.663,4.001 4.001 C 4.665 3.338,5.593 3.009,7.220 2.862 C 8.207 2.772,8.227 2.772,12.400 2.782 C 15.524 2.790,16.323 2.803,16.787 2.853 M8.720 7.805 C 8.589 7.857,8.408 8.030,8.331 8.179 C 8.248 8.338,8.252 8.668,8.338 8.841 C 8.444 9.051,11.507 12.102,11.689 12.178 C 11.878 12.257,12.122 12.257,12.311 12.178 C 12.493 12.102,15.556 9.051,15.662 8.841 C 15.748 8.668,15.752 8.338,15.669 8.179 C 15.478 7.814,15.068 7.664,14.690 7.822 C 14.592 7.863,14.110 8.314,13.271 9.150 L 12.001 10.417 10.727 9.149 C 9.899 8.325,9.403 7.861,9.308 7.821 C 9.145 7.752,8.871 7.745,8.720 7.805 M8.720 11.805 C 8.589 11.857,8.408 12.030,8.331 12.179 C 8.248 12.338,8.252 12.668,8.338 12.841 C 8.444 13.051,11.507 16.102,11.689 16.178 C 11.878 16.257,12.122 16.257,12.311 16.178 C 12.493 16.102,15.556 13.051,15.662 12.841 C 15.748 12.668,15.752 12.338,15.669 12.179 C 15.478 11.814,15.068 11.664,14.690 11.822 C 14.592 11.863,14.110 12.314,13.271 13.150 L 12.001 14.417 10.727 13.149 C 9.899 12.325,9.403 11.861,9.308 11.821 C 9.145 11.752,8.871 11.745,8.720 11.805 " stroke="none" fill-rule="evenodd" fill="black"></path></svg>