<svg width="24" height="24" viewBox="0 0 24 24" fill="none" xmlns="http://www.w3.org/2000/svg"><path d="M8.980 1.279 C 5.934 1.357,4.544 1.674,3.380 2.557 C 2.206 3.448,1.597 4.807,1.379 7.020 C 1.294 7.886,1.224 10.869,1.282 11.149 C 1.420 11.812,2.285 11.952,2.647 11.369 C 2.739 11.222,2.740 11.199,2.766 9.680 C 2.816 6.803,2.957 5.776,3.437 4.796 C 3.908 3.836,4.711 3.291,6.051 3.022 C 7.175 2.796,7.568 2.780,12.020 2.781 C 16.336 2.781,16.646 2.792,17.760 2.984 C 19.725 3.321,20.680 4.277,21.016 6.240 C 21.199 7.312,21.238 8.324,21.238 12.000 C 21.238 15.041,21.212 16.139,21.117 17.020 C 20.908 18.967,20.361 19.983,19.214 20.556 C 18.240 21.041,17.219 21.183,14.320 21.233 C 12.802 21.260,12.778 21.262,12.631 21.353 C 12.046 21.716,12.183 22.580,12.848 22.718 C 13.129 22.776,16.086 22.707,16.960 22.622 C 18.877 22.435,20.125 21.970,21.001 21.113 C 22.082 20.057,22.517 18.767,22.686 16.120 C 22.750 15.118,22.750 8.882,22.686 7.880 C 22.531 5.452,22.164 4.223,21.281 3.180 C 20.293 2.011,18.858 1.486,16.200 1.321 C 15.326 1.267,10.546 1.239,8.980 1.279 M4.815 12.278 C 4.331 12.393,4.098 13.004,4.383 13.408 C 4.447 13.499,4.572 13.610,4.660 13.656 C 4.816 13.738,4.879 13.740,6.998 13.752 L 9.176 13.763 5.772 17.172 C 3.900 19.046,2.346 20.625,2.318 20.680 C 2.290 20.735,2.267 20.881,2.267 21.004 C 2.267 21.498,2.681 21.816,3.189 21.712 C 3.374 21.673,3.481 21.571,6.808 18.248 L 10.237 14.824 10.248 17.022 L 10.260 19.220 10.353 19.369 C 10.710 19.943,11.576 19.812,11.716 19.162 C 11.777 18.875,11.777 13.125,11.716 12.838 C 11.658 12.570,11.450 12.352,11.189 12.286 C 10.979 12.234,5.033 12.226,4.815 12.278 " stroke="none" fill-rule="evenodd" fill="black"></path></svg>