<svg width="24" height="24" viewBox="0 0 24 24" fill="none" xmlns="http://www.w3.org/2000/svg"><path d="M9.180 1.265 C 6.608 1.333,5.221 1.552,4.220 2.048 C 2.632 2.834,1.821 4.059,1.479 6.186 C 1.303 7.278,1.218 10.007,1.257 13.320 C 1.291 16.220,1.349 17.158,1.563 18.266 C 2.013 20.599,3.401 21.987,5.734 22.437 C 7.035 22.688,7.988 22.733,12.000 22.733 C 15.993 22.733,17.069 22.682,18.280 22.436 C 20.626 21.959,21.962 20.627,22.438 18.289 C 22.606 17.464,22.708 16.174,22.729 14.617 L 22.740 13.774 22.633 13.612 C 22.475 13.373,22.279 13.267,21.997 13.267 C 21.719 13.267,21.504 13.388,21.356 13.626 C 21.266 13.772,21.262 13.818,21.233 14.916 C 21.163 17.651,20.921 18.841,20.259 19.715 C 19.521 20.689,18.376 21.074,15.832 21.203 C 14.449 21.273,8.007 21.231,7.220 21.146 C 5.343 20.945,4.419 20.569,3.774 19.745 C 3.262 19.091,3.017 18.303,2.854 16.780 C 2.769 15.994,2.727 9.555,2.797 8.168 C 2.926 5.624,3.311 4.479,4.285 3.741 C 5.159 3.079,6.349 2.837,9.084 2.767 C 10.182 2.738,10.228 2.734,10.374 2.644 C 10.857 2.345,10.861 1.657,10.383 1.362 C 10.223 1.263,9.985 1.244,9.180 1.265 M16.826 1.286 C 16.481 1.363,16.267 1.636,16.267 1.996 C 16.267 2.119,16.290 2.265,16.318 2.320 C 16.346 2.375,17.225 3.278,18.271 4.328 L 20.174 6.235 16.777 6.250 C 13.036 6.267,13.065 6.265,12.250 6.524 C 11.348 6.811,10.778 7.176,9.977 7.977 C 9.175 8.779,8.811 9.348,8.524 10.251 C 8.276 11.031,8.263 11.182,8.261 13.300 L 8.260 15.220 8.353 15.369 C 8.668 15.877,9.404 15.856,9.664 15.332 C 9.734 15.191,9.742 15.036,9.762 13.220 C 9.784 11.341,9.789 11.247,9.876 10.940 C 10.110 10.113,10.382 9.668,11.067 8.995 C 11.726 8.346,12.121 8.110,12.940 7.874 L 13.260 7.781 16.720 7.770 L 20.180 7.758 18.274 9.669 C 17.226 10.720,16.346 11.625,16.318 11.680 C 16.232 11.847,16.253 12.207,16.358 12.377 C 16.559 12.702,16.984 12.830,17.321 12.667 C 17.402 12.628,18.568 11.492,20.067 9.990 C 22.578 7.474,22.673 7.373,22.711 7.190 C 22.737 7.066,22.737 6.934,22.711 6.810 C 22.673 6.627,22.578 6.526,20.067 4.010 C 18.634 2.575,17.408 1.376,17.341 1.345 C 17.166 1.265,17.001 1.246,16.826 1.286 " stroke="none" fill-rule="evenodd" fill="black"></path></svg>