<svg width="24" height="24" viewBox="0 0 24 24" fill="none" xmlns="http://www.w3.org/2000/svg"><path d="M11.700 2.269 C 11.132 2.292,10.381 2.457,9.805 2.686 C 9.495 2.809,3.574 5.574,2.860 5.929 C 2.475 6.120,2.204 6.308,2.008 6.520 C 1.799 6.745,1.520 7.219,1.425 7.510 C 1.247 8.050,1.236 8.309,1.248 11.363 L 1.260 14.226 1.367 14.388 C 1.526 14.628,1.721 14.733,2.007 14.733 C 2.203 14.733,2.270 14.714,2.408 14.617 C 2.499 14.553,2.610 14.428,2.656 14.340 C 2.736 14.188,2.741 14.104,2.760 12.611 L 2.780 11.041 3.500 11.380 L 4.220 11.720 4.242 14.410 C 4.261 16.709,4.274 17.141,4.330 17.380 C 4.448 17.884,4.608 18.256,4.881 18.660 C 5.303 19.286,5.739 19.603,7.100 20.278 C 9.328 21.383,11.046 21.844,12.468 21.719 C 13.742 21.608,15.126 21.158,16.900 20.278 C 18.261 19.603,18.697 19.286,19.119 18.660 C 19.392 18.256,19.552 17.884,19.670 17.380 C 19.726 17.141,19.739 16.709,19.758 14.410 L 19.780 11.719 20.380 11.438 C 21.731 10.805,21.864 10.710,22.279 10.090 C 22.975 9.051,22.861 7.505,22.020 6.556 C 21.806 6.315,21.549 6.132,21.140 5.929 C 20.426 5.574,14.505 2.809,14.195 2.686 C 13.427 2.381,12.550 2.234,11.700 2.269 M12.744 3.817 C 12.923 3.849,13.211 3.922,13.384 3.980 C 13.558 4.038,15.279 4.825,17.210 5.729 C 21.011 7.510,20.914 7.456,21.115 7.880 C 21.207 8.072,21.220 8.152,21.220 8.500 C 21.220 8.848,21.207 8.928,21.115 9.120 C 20.901 9.571,21.335 9.347,14.620 12.485 C 14.114 12.721,13.558 12.962,13.384 13.020 C 12.503 13.315,11.497 13.315,10.616 13.020 C 10.442 12.962,9.751 12.658,9.080 12.345 C 2.651 9.339,3.099 9.572,2.885 9.120 C 2.793 8.928,2.780 8.848,2.780 8.500 C 2.780 8.152,2.793 8.072,2.885 7.880 C 3.086 7.456,2.989 7.510,6.790 5.729 C 8.721 4.825,10.444 4.037,10.620 3.978 C 10.796 3.919,11.066 3.848,11.220 3.820 C 11.604 3.750,12.353 3.748,12.744 3.817 M8.000 13.490 C 9.695 14.285,9.953 14.393,10.483 14.534 C 11.066 14.688,11.372 14.727,12.000 14.727 C 12.628 14.727,12.933 14.688,13.520 14.533 C 14.048 14.394,14.406 14.241,16.440 13.285 L 18.220 12.449 18.231 14.675 C 18.237 16.093,18.226 16.972,18.200 17.100 C 18.111 17.530,17.822 17.995,17.485 18.252 C 17.239 18.439,15.964 19.092,15.240 19.402 C 14.540 19.701,13.651 19.999,13.080 20.126 C 12.478 20.261,11.522 20.261,10.920 20.126 C 10.349 19.999,9.460 19.701,8.760 19.402 C 8.036 19.092,6.761 18.439,6.515 18.252 C 6.310 18.096,6.095 17.830,5.965 17.571 C 5.766 17.176,5.760 17.098,5.760 14.693 L 5.760 12.443 6.130 12.615 C 6.334 12.710,7.175 13.104,8.000 13.490 " stroke="none" fill-rule="evenodd" fill="black"></path></svg>