<svg width="24" height="24" viewBox="0 0 24 24" fill="none" xmlns="http://www.w3.org/2000/svg"><path d="M8.960 1.280 C 6.960 1.332,5.848 1.469,4.900 1.779 C 3.060 2.382,1.958 3.688,1.563 5.734 C 1.311 7.042,1.267 7.973,1.267 12.000 C 1.267 16.027,1.311 16.958,1.563 18.266 C 2.013 20.599,3.401 21.987,5.734 22.437 C 7.034 22.688,7.987 22.733,12.000 22.733 C 16.013 22.733,16.966 22.688,18.266 22.437 C 20.599 21.987,21.987 20.599,22.437 18.266 C 22.688 16.966,22.733 16.013,22.733 12.000 C 22.733 7.987,22.688 7.034,22.437 5.734 C 22.098 3.977,21.228 2.756,19.825 2.068 C 18.978 1.652,17.875 1.425,16.200 1.321 C 15.315 1.266,10.534 1.239,8.960 1.280 M16.787 2.853 C 17.971 2.982,18.589 3.129,19.180 3.421 C 20.200 3.924,20.776 4.815,21.019 6.260 C 21.215 7.435,21.251 8.515,21.229 12.620 C 21.210 16.115,21.195 16.526,21.055 17.500 C 20.734 19.744,19.757 20.726,17.520 21.054 C 16.474 21.207,16.036 21.220,12.000 21.220 C 7.964 21.220,7.526 21.207,6.480 21.054 C 4.384 20.747,3.408 19.870,3.021 17.947 C 2.796 16.826,2.780 16.428,2.780 12.000 C 2.780 8.382,2.788 7.864,2.852 7.240 C 3.025 5.550,3.340 4.663,4.001 4.001 C 4.665 3.338,5.593 3.009,7.220 2.862 C 8.207 2.772,8.227 2.772,12.400 2.782 C 15.524 2.790,16.323 2.803,16.787 2.853 M12.815 8.278 C 12.640 8.320,12.462 8.455,12.356 8.626 C 12.253 8.793,12.233 9.155,12.318 9.320 C 12.347 9.375,12.776 9.829,13.273 10.329 L 14.175 11.238 10.975 11.249 L 7.774 11.260 7.612 11.367 C 7.372 11.526,7.267 11.721,7.267 12.007 C 7.267 12.203,7.286 12.270,7.383 12.408 C 7.447 12.499,7.572 12.610,7.660 12.656 C 7.818 12.739,7.864 12.740,10.998 12.751 L 14.175 12.762 13.273 13.671 C 12.776 14.171,12.347 14.625,12.318 14.680 C 12.290 14.735,12.267 14.884,12.267 15.011 C 12.267 15.202,12.287 15.271,12.383 15.408 C 12.447 15.499,12.568 15.608,12.651 15.651 C 12.837 15.747,13.139 15.753,13.326 15.664 C 13.402 15.628,14.181 14.879,15.068 13.989 C 16.596 12.456,16.673 12.371,16.711 12.190 C 16.737 12.065,16.737 11.935,16.711 11.810 C 16.673 11.629,16.596 11.544,15.068 10.011 C 14.185 9.126,13.409 8.376,13.342 8.345 C 13.176 8.269,12.965 8.242,12.815 8.278 " stroke="none" fill-rule="evenodd" fill="black"></path></svg>