<svg width="24" height="24" viewBox="0 0 24 24" fill="none" xmlns="http://www.w3.org/2000/svg"><path d="M8.960 1.280 C 6.960 1.332,5.848 1.469,4.900 1.779 C 3.060 2.382,1.958 3.688,1.563 5.734 C 1.311 7.042,1.267 7.973,1.267 12.000 C 1.267 16.027,1.311 16.958,1.563 18.266 C 2.013 20.599,3.401 21.987,5.734 22.437 C 7.034 22.688,7.987 22.733,12.000 22.733 C 16.013 22.733,16.966 22.688,18.266 22.437 C 20.599 21.987,21.987 20.599,22.437 18.266 C 22.688 16.966,22.733 16.013,22.733 12.000 C 22.733 7.987,22.688 7.034,22.437 5.734 C 22.098 3.977,21.228 2.756,19.825 2.068 C 18.978 1.652,17.875 1.425,16.200 1.321 C 15.315 1.266,10.534 1.239,8.960 1.280 M16.787 2.853 C 17.971 2.982,18.589 3.129,19.180 3.421 C 20.200 3.924,20.776 4.815,21.019 6.260 C 21.215 7.435,21.251 8.515,21.229 12.620 C 21.210 16.115,21.195 16.526,21.055 17.500 C 20.734 19.744,19.757 20.726,17.520 21.054 C 16.474 21.207,16.036 21.220,12.000 21.220 C 7.964 21.220,7.526 21.207,6.480 21.054 C 4.384 20.747,3.408 19.870,3.021 17.947 C 2.796 16.826,2.780 16.428,2.780 12.000 C 2.780 8.382,2.788 7.864,2.852 7.240 C 3.025 5.550,3.340 4.663,4.001 4.001 C 4.665 3.338,5.593 3.009,7.220 2.862 C 8.207 2.772,8.227 2.772,12.400 2.782 C 15.524 2.790,16.323 2.803,16.787 2.853 M8.815 8.277 C 8.638 8.320,8.462 8.456,8.353 8.631 L 8.260 8.780 8.260 11.200 C 8.260 12.531,8.274 13.669,8.291 13.729 C 8.333 13.881,8.553 14.121,8.708 14.186 C 8.973 14.297,9.289 14.241,9.494 14.047 C 9.742 13.812,9.739 13.834,9.752 12.263 L 9.765 10.826 12.192 13.249 C 14.529 15.581,14.627 15.673,14.810 15.711 C 15.390 15.831,15.831 15.390,15.711 14.810 C 15.673 14.627,15.581 14.529,13.249 12.192 L 10.826 9.765 12.263 9.752 C 13.834 9.739,13.812 9.742,14.047 9.494 C 14.309 9.217,14.309 8.783,14.047 8.506 C 13.803 8.248,13.935 8.261,11.320 8.253 C 10.011 8.250,8.884 8.260,8.815 8.277 " stroke="none" fill-rule="evenodd" fill="black"></path></svg>