<svg width="24" height="24" viewBox="0 0 24 24" fill="none" xmlns="http://www.w3.org/2000/svg"><path d="M8.980 1.279 C 5.934 1.357,4.544 1.674,3.380 2.557 C 2.206 3.448,1.597 4.807,1.379 7.020 C 1.294 7.886,1.224 10.869,1.282 11.149 C 1.420 11.812,2.285 11.952,2.647 11.369 C 2.739 11.222,2.740 11.199,2.766 9.680 C 2.816 6.803,2.957 5.776,3.437 4.796 C 3.908 3.836,4.711 3.291,6.051 3.022 C 7.175 2.796,7.568 2.780,12.020 2.781 C 16.336 2.781,16.646 2.792,17.760 2.984 C 19.725 3.321,20.680 4.277,21.016 6.240 C 21.199 7.312,21.238 8.324,21.238 12.000 C 21.238 15.041,21.212 16.139,21.117 17.020 C 20.908 18.967,20.361 19.983,19.214 20.556 C 18.240 21.041,17.219 21.183,14.320 21.233 C 12.802 21.260,12.778 21.262,12.631 21.353 C 12.046 21.716,12.183 22.580,12.848 22.718 C 13.129 22.776,16.086 22.707,16.960 22.622 C 18.877 22.435,20.125 21.970,21.001 21.113 C 22.082 20.057,22.517 18.767,22.686 16.120 C 22.750 15.118,22.750 8.882,22.686 7.880 C 22.531 5.452,22.164 4.223,21.281 3.180 C 20.293 2.011,18.858 1.486,16.200 1.321 C 15.326 1.267,10.546 1.239,8.980 1.279 M10.900 12.258 C 10.878 12.266,10.806 12.285,10.740 12.299 C 10.650 12.319,9.775 13.169,7.190 15.752 L 3.760 19.179 3.760 17.111 C 3.760 15.753,3.745 14.973,3.716 14.838 C 3.575 14.182,2.713 14.051,2.353 14.631 L 2.260 14.780 2.260 18.007 L 2.260 21.233 2.380 21.403 C 2.446 21.496,2.572 21.610,2.660 21.656 C 2.818 21.739,2.865 21.740,5.878 21.751 C 8.020 21.759,9.000 21.749,9.151 21.718 C 9.902 21.562,9.931 20.473,9.189 20.286 C 9.061 20.254,8.366 20.240,6.913 20.240 L 4.821 20.240 8.247 16.810 C 11.571 13.481,11.673 13.374,11.712 13.189 C 11.784 12.834,11.634 12.482,11.352 12.349 C 11.212 12.283,10.967 12.234,10.900 12.258 " stroke="none" fill-rule="evenodd" fill="black"></path></svg>