<svg width="24" height="24" viewBox="0 0 24 24" fill="none" xmlns="http://www.w3.org/2000/svg"><path d="M7.074 2.283 C 5.809 2.417,4.889 3.220,4.380 4.633 C 4.327 4.780,3.715 7.213,3.020 10.040 C 2.297 12.981,1.712 15.283,1.652 15.420 C 1.341 16.130,1.217 16.908,1.286 17.717 C 1.381 18.841,1.878 19.869,2.686 20.617 C 3.392 21.271,4.187 21.626,5.154 21.720 C 5.665 21.770,18.335 21.770,18.846 21.720 C 19.343 21.672,19.696 21.584,20.120 21.402 C 21.565 20.783,22.575 19.347,22.714 17.717 C 22.783 16.908,22.659 16.129,22.348 15.420 C 22.288 15.282,21.708 13.001,20.980 10.040 C 20.285 7.213,19.670 4.774,19.613 4.620 C 19.231 3.598,18.705 2.953,17.940 2.570 C 17.616 2.408,17.320 2.328,16.874 2.281 C 16.423 2.233,7.524 2.235,7.074 2.283 M17.102 3.847 C 17.574 4.001,17.958 4.441,18.191 5.091 C 18.310 5.424,20.226 13.148,20.196 13.176 C 20.187 13.185,20.000 13.132,19.780 13.059 C 19.560 12.985,19.239 12.906,19.067 12.883 C 18.632 12.823,5.368 12.823,4.933 12.883 C 4.761 12.906,4.440 12.985,4.220 13.059 C 4.000 13.132,3.813 13.185,3.804 13.176 C 3.774 13.148,5.689 5.426,5.809 5.091 C 6.039 4.449,6.426 4.003,6.887 3.848 C 7.139 3.764,7.156 3.763,11.989 3.762 L 16.838 3.760 17.102 3.847 M19.140 14.411 C 19.917 14.637,20.594 15.214,20.942 15.947 C 21.172 16.431,21.252 16.850,21.229 17.440 C 21.197 18.258,20.969 18.811,20.428 19.385 C 20.105 19.728,19.751 19.968,19.352 20.113 L 19.060 20.220 12.109 20.231 C 4.378 20.242,4.912 20.260,4.320 19.970 C 4.089 19.856,3.937 19.739,3.659 19.461 C 3.039 18.840,2.805 18.308,2.771 17.440 C 2.754 17.024,2.765 16.881,2.835 16.591 C 3.121 15.391,4.043 14.511,5.166 14.363 C 5.306 14.344,8.453 14.332,12.160 14.335 C 18.443 14.341,18.916 14.346,19.140 14.411 M10.420 16.260 C 10.398 16.267,10.331 16.284,10.271 16.297 C 10.124 16.329,9.881 16.548,9.814 16.708 C 9.747 16.868,9.738 18.097,9.803 18.267 C 9.905 18.540,10.193 18.731,10.500 18.731 C 10.727 18.731,10.889 18.661,11.047 18.494 C 11.218 18.314,11.240 18.198,11.240 17.500 C 11.240 17.135,11.221 16.795,11.197 16.733 C 11.146 16.597,10.977 16.412,10.840 16.342 C 10.732 16.287,10.485 16.238,10.420 16.260 M12.815 16.277 C 12.638 16.321,12.461 16.456,12.353 16.631 C 12.265 16.772,12.260 16.816,12.260 17.500 C 12.260 18.184,12.265 18.228,12.353 18.369 C 12.710 18.943,13.576 18.812,13.716 18.162 C 13.771 17.904,13.772 17.080,13.717 16.841 C 13.623 16.432,13.215 16.177,12.815 16.277 M15.420 16.260 C 15.398 16.267,15.331 16.284,15.271 16.297 C 15.124 16.329,14.881 16.548,14.814 16.708 C 14.747 16.868,14.738 18.097,14.803 18.267 C 14.905 18.540,15.193 18.731,15.500 18.731 C 15.727 18.731,15.889 18.661,16.047 18.494 C 16.218 18.314,16.240 18.198,16.240 17.500 C 16.240 17.135,16.221 16.795,16.197 16.733 C 16.146 16.597,15.977 16.412,15.840 16.342 C 15.732 16.287,15.485 16.238,15.420 16.260 M17.815 16.277 C 17.638 16.321,17.461 16.456,17.353 16.631 C 17.265 16.772,17.260 16.816,17.260 17.500 C 17.260 18.184,17.265 18.228,17.353 18.369 C 17.710 18.943,18.576 18.812,18.716 18.162 C 18.771 17.904,18.772 17.080,18.717 16.841 C 18.623 16.432,18.215 16.177,17.815 16.277 " stroke="none" fill-rule="evenodd" fill="black"></path></svg>