<svg width="24" height="24" viewBox="0 0 24 24" fill="none" xmlns="http://www.w3.org/2000/svg"><path d="M7.180 2.267 C 5.868 2.387,4.888 3.215,4.381 4.632 C 4.274 4.930,1.474 14.575,1.379 14.970 C 1.240 15.551,1.201 18.453,1.321 19.300 C 1.476 20.398,2.115 21.226,3.047 21.536 C 3.675 21.746,3.430 21.740,12.000 21.740 C 20.570 21.740,20.325 21.746,20.953 21.536 C 21.476 21.362,21.928 21.003,22.259 20.501 C 22.617 19.957,22.710 19.462,22.744 17.900 C 22.772 16.669,22.717 15.373,22.621 14.970 C 22.512 14.516,19.719 4.906,19.612 4.620 C 19.238 3.613,18.682 2.935,17.942 2.580 C 17.238 2.243,17.635 2.265,12.180 2.258 C 9.518 2.255,7.268 2.259,7.180 2.267 M17.244 3.890 C 17.636 4.083,17.971 4.500,18.181 5.058 C 18.293 5.355,20.485 12.888,20.466 12.908 C 20.459 12.914,20.275 12.902,20.057 12.881 C 19.524 12.829,4.476 12.829,3.943 12.881 C 3.725 12.902,3.541 12.914,3.534 12.908 C 3.515 12.888,5.707 5.355,5.819 5.058 C 6.077 4.374,6.507 3.921,7.015 3.798 C 7.084 3.781,9.363 3.770,12.080 3.774 L 17.020 3.780 17.244 3.890 M19.783 14.358 C 20.393 14.402,20.561 14.453,20.799 14.666 C 21.023 14.868,21.143 15.121,21.199 15.507 C 21.251 15.864,21.250 18.738,21.198 19.100 C 21.121 19.646,20.840 20.015,20.401 20.151 C 20.195 20.215,19.611 20.220,12.000 20.220 C 4.389 20.220,3.805 20.215,3.599 20.151 C 3.145 20.011,2.876 19.643,2.797 19.056 C 2.769 18.848,2.760 18.137,2.770 17.076 C 2.789 15.108,2.794 15.081,3.158 14.718 C 3.421 14.456,3.569 14.402,4.140 14.361 C 4.720 14.319,19.210 14.316,19.783 14.358 M11.420 16.260 C 11.398 16.267,11.331 16.284,11.271 16.297 C 11.124 16.329,10.881 16.548,10.814 16.708 C 10.747 16.868,10.738 18.097,10.803 18.267 C 10.905 18.540,11.193 18.731,11.500 18.731 C 11.727 18.731,11.889 18.661,12.047 18.494 C 12.218 18.314,12.240 18.198,12.240 17.500 C 12.240 17.135,12.221 16.795,12.197 16.733 C 12.146 16.597,11.977 16.412,11.840 16.342 C 11.732 16.287,11.485 16.238,11.420 16.260 M13.815 16.277 C 13.638 16.321,13.461 16.456,13.353 16.631 C 13.265 16.772,13.260 16.816,13.260 17.500 C 13.260 18.184,13.265 18.228,13.353 18.369 C 13.710 18.943,14.576 18.812,14.716 18.162 C 14.771 17.904,14.772 17.080,14.717 16.841 C 14.623 16.432,14.215 16.177,13.815 16.277 M16.420 16.260 C 16.398 16.267,16.331 16.284,16.271 16.297 C 16.124 16.329,15.881 16.548,15.814 16.708 C 15.747 16.868,15.738 18.097,15.803 18.267 C 15.905 18.540,16.193 18.731,16.500 18.731 C 16.727 18.731,16.889 18.661,17.047 18.494 C 17.218 18.314,17.240 18.198,17.240 17.500 C 17.240 17.135,17.221 16.795,17.197 16.733 C 17.146 16.597,16.977 16.412,16.840 16.342 C 16.732 16.287,16.485 16.238,16.420 16.260 M18.815 16.277 C 18.638 16.321,18.461 16.456,18.353 16.631 C 18.265 16.772,18.260 16.816,18.260 17.500 C 18.260 18.184,18.265 18.228,18.353 18.369 C 18.710 18.943,19.576 18.812,19.716 18.162 C 19.771 17.904,19.772 17.080,19.717 16.841 C 19.623 16.432,19.215 16.177,18.815 16.277 " stroke="none" fill-rule="evenodd" fill="black"></path></svg>