<svg width="24" height="24" viewBox="0 0 24 24" fill="none" xmlns="http://www.w3.org/2000/svg"><path d="M11.320 1.281 C 7.041 1.525,3.252 4.409,1.843 8.497 C 1.180 10.418,1.082 12.560,1.564 14.550 C 2.505 18.428,5.572 21.495,9.450 22.436 C 11.106 22.837,12.894 22.837,14.550 22.436 C 18.428 21.495,21.495 18.428,22.436 14.550 C 22.837 12.894,22.837 11.106,22.436 9.450 C 21.425 5.282,17.985 2.095,13.742 1.398 C 13.334 1.331,12.074 1.229,11.880 1.247 C 11.847 1.250,11.595 1.265,11.320 1.281 M13.146 2.822 C 14.201 2.960,15.125 3.237,16.060 3.696 C 18.877 5.079,20.768 7.722,21.178 10.854 C 21.301 11.786,21.244 13.026,21.034 13.998 C 20.745 15.343,20.003 16.855,19.121 17.900 C 18.247 18.935,17.240 19.726,16.060 20.304 C 14.761 20.940,13.462 21.240,12.000 21.240 C 10.538 21.240,9.236 20.940,7.940 20.304 C 5.123 18.921,3.232 16.278,2.822 13.146 C 2.699 12.214,2.756 10.974,2.966 10.002 C 3.177 9.020,3.703 7.775,4.268 6.920 C 5.750 4.677,8.131 3.188,10.820 2.823 C 11.380 2.746,12.569 2.746,13.146 2.822 M11.769 7.282 C 11.513 7.333,11.214 7.513,11.013 7.736 C 10.849 7.918,10.415 8.612,10.083 9.221 L 9.951 9.463 9.154 9.655 C 7.966 9.941,7.612 10.143,7.368 10.674 C 7.294 10.836,7.268 10.961,7.268 11.156 C 7.267 11.648,7.447 11.984,8.177 12.860 C 8.399 13.126,8.605 13.374,8.635 13.412 C 8.682 13.470,8.679 13.614,8.618 14.375 C 8.559 15.116,8.555 15.321,8.594 15.565 C 8.715 16.310,9.173 16.732,9.854 16.727 C 10.221 16.725,10.423 16.666,11.133 16.355 C 11.489 16.200,11.830 16.052,11.890 16.028 C 12.016 15.976,11.943 15.952,12.867 16.355 C 13.577 16.666,13.779 16.725,14.146 16.727 C 14.827 16.732,15.285 16.310,15.406 15.565 C 15.445 15.321,15.441 15.116,15.382 14.375 C 15.321 13.614,15.318 13.470,15.365 13.412 C 15.395 13.374,15.601 13.126,15.823 12.860 C 16.553 11.984,16.733 11.648,16.732 11.156 C 16.732 10.961,16.706 10.836,16.632 10.674 C 16.388 10.143,16.034 9.941,14.846 9.655 L 14.049 9.463 13.917 9.221 C 13.529 8.509,13.126 7.880,12.933 7.688 C 12.598 7.353,12.167 7.203,11.769 7.282 M12.442 9.649 C 13.052 10.723,13.128 10.782,14.235 11.040 C 15.246 11.275,15.186 11.250,15.082 11.397 C 15.037 11.461,14.792 11.761,14.540 12.063 C 14.287 12.366,14.026 12.721,13.960 12.853 C 13.850 13.072,13.840 13.128,13.840 13.499 C 13.840 13.854,13.862 14.178,13.938 14.970 C 13.952 15.119,13.943 15.160,13.898 15.160 C 13.865 15.160,13.511 15.012,13.109 14.830 L 12.380 14.500 12.000 14.500 L 11.620 14.500 10.891 14.830 C 10.489 15.012,10.135 15.160,10.103 15.160 C 10.042 15.160,10.042 15.131,10.122 14.308 C 10.143 14.093,10.160 13.731,10.160 13.505 C 10.160 13.128,10.150 13.072,10.041 12.855 C 9.976 12.724,9.678 12.324,9.380 11.966 C 9.082 11.608,8.847 11.300,8.859 11.282 C 8.870 11.264,8.920 11.241,8.969 11.230 C 9.715 11.065,10.470 10.866,10.625 10.794 C 10.938 10.647,11.115 10.429,11.558 9.649 C 11.786 9.248,11.985 8.920,12.000 8.920 C 12.015 8.920,12.214 9.248,12.442 9.649 " stroke="none" fill-rule="evenodd" fill="black"></path></svg>