<svg width="24" height="24" viewBox="0 0 24 24" fill="none" xmlns="http://www.w3.org/2000/svg"><path d="M12.642 1.284 C 12.169 1.365,11.676 1.679,11.160 2.228 C 10.978 2.422,10.407 3.107,9.890 3.752 C 9.374 4.396,8.910 4.951,8.858 4.985 C 8.754 5.053,8.426 5.087,6.980 5.181 C 5.372 5.286,4.748 5.394,4.265 5.651 C 3.893 5.850,3.624 6.121,3.450 6.472 C 3.301 6.774,3.300 6.778,3.300 7.278 C 3.300 7.702,3.315 7.827,3.398 8.080 C 3.530 8.486,3.954 9.306,4.629 10.460 C 5.301 11.611,5.400 11.802,5.400 11.953 C 5.400 12.016,5.221 12.778,5.003 13.646 C 4.560 15.402,4.459 15.964,4.492 16.480 C 4.546 17.330,4.998 17.970,5.691 18.181 C 6.027 18.283,6.565 18.301,7.021 18.224 C 7.766 18.098,9.156 17.725,9.531 17.549 C 9.846 17.403,9.889 17.392,9.943 17.446 C 9.990 17.492,10.023 17.740,10.082 18.464 C 10.242 20.411,10.366 20.890,10.828 21.340 C 11.252 21.754,11.889 21.841,12.579 21.582 C 12.894 21.463,13.354 21.197,14.357 20.553 C 14.762 20.293,15.120 20.080,15.153 20.080 C 15.186 20.080,15.637 20.187,16.156 20.317 C 17.466 20.645,17.725 20.694,18.160 20.695 C 18.960 20.696,19.474 20.379,19.722 19.731 C 19.792 19.548,19.810 19.417,19.810 19.100 C 19.809 18.634,19.747 18.329,19.378 16.972 C 19.133 16.070,19.125 16.026,19.185 15.911 C 19.219 15.845,19.456 15.455,19.712 15.045 C 20.269 14.152,20.605 13.503,20.675 13.187 C 20.752 12.843,20.737 12.448,20.638 12.184 C 20.544 11.933,20.245 11.578,20.028 11.462 L 19.890 11.387 20.120 11.104 C 20.499 10.635,20.654 10.315,20.722 9.860 C 20.795 9.367,20.623 8.825,20.265 8.417 C 19.884 7.984,19.107 7.560,17.345 6.823 C 16.841 6.612,16.355 6.400,16.265 6.350 C 16.057 6.237,16.023 6.165,15.581 4.920 C 14.892 2.976,14.614 2.359,14.222 1.901 C 13.807 1.415,13.220 1.186,12.642 1.284 M13.112 2.903 C 13.343 3.183,13.629 3.872,14.280 5.720 C 14.624 6.695,14.790 7.031,15.059 7.303 C 15.329 7.574,15.599 7.717,16.800 8.219 C 18.195 8.802,18.834 9.117,19.058 9.332 C 19.375 9.636,19.294 9.839,18.572 10.555 L 18.073 11.050 17.767 11.026 C 17.598 11.012,17.248 10.990,16.988 10.975 C 16.611 10.954,16.497 10.934,16.419 10.872 C 16.366 10.830,16.083 10.513,15.791 10.168 C 14.840 9.043,14.519 8.721,14.132 8.502 C 13.499 8.145,12.830 8.199,12.341 8.646 C 11.933 9.019,11.738 9.398,11.132 11.000 C 10.970 11.429,10.815 11.801,10.789 11.827 C 10.762 11.853,10.371 12.022,9.920 12.202 C 8.822 12.641,8.430 12.819,8.120 13.020 C 7.624 13.341,7.355 13.709,7.283 14.163 C 7.185 14.781,7.464 15.337,8.199 15.997 C 8.408 16.184,8.540 16.330,8.511 16.340 C 8.280 16.423,6.946 16.730,6.660 16.767 C 6.197 16.827,6.080 16.793,6.005 16.577 C 5.902 16.278,6.024 15.634,6.618 13.340 C 6.882 12.317,6.887 12.293,6.870 11.880 C 6.846 11.279,6.853 11.293,5.763 9.440 C 5.562 9.099,5.262 8.549,5.096 8.217 C 4.852 7.731,4.790 7.569,4.773 7.377 C 4.754 7.165,4.761 7.131,4.846 7.054 C 5.091 6.830,5.605 6.754,7.770 6.619 C 8.845 6.553,9.031 6.527,9.361 6.403 C 9.756 6.255,9.981 6.030,10.971 4.792 C 12.232 3.214,12.664 2.760,12.903 2.760 C 12.959 2.760,13.040 2.815,13.112 2.903 M13.688 10.050 C 13.844 10.210,14.255 10.673,14.600 11.080 C 14.946 11.487,15.311 11.895,15.411 11.987 C 15.755 12.304,16.082 12.415,16.800 12.457 C 18.331 12.547,19.036 12.616,19.174 12.688 C 19.327 12.769,19.186 13.060,18.310 14.471 C 17.728 15.408,17.619 15.681,17.653 16.120 C 17.666 16.285,17.750 16.681,17.839 17.000 C 18.054 17.768,18.306 18.779,18.341 19.012 C 18.364 19.163,18.357 19.204,18.306 19.223 C 18.203 19.263,17.731 19.169,16.540 18.872 C 14.888 18.461,14.828 18.469,13.590 19.271 C 12.536 19.954,12.034 20.240,11.886 20.240 C 11.754 20.240,11.698 19.896,11.562 18.260 C 11.518 17.732,11.455 17.207,11.420 17.092 C 11.295 16.672,11.084 16.435,10.197 15.716 C 9.148 14.864,8.736 14.480,8.773 14.385 C 8.808 14.293,9.408 14.013,10.500 13.579 C 11.973 12.993,11.981 12.985,12.579 11.400 C 12.962 10.383,13.251 9.760,13.339 9.760 C 13.375 9.760,13.532 9.890,13.688 10.050 " stroke="none" fill-rule="evenodd" fill="black"></path></svg>