<svg width="24" height="24" viewBox="0 0 24 24" fill="none" xmlns="http://www.w3.org/2000/svg"><path d="M8.716 2.283 C 8.258 2.350,7.764 2.660,7.528 3.027 C 7.459 3.135,7.147 3.871,6.836 4.662 C 6.523 5.460,6.233 6.138,6.185 6.185 C 6.138 6.233,5.460 6.523,4.662 6.836 C 3.871 7.147,3.135 7.459,3.027 7.528 C 2.497 7.868,2.188 8.587,2.283 9.258 C 2.352 9.745,2.648 10.229,3.027 10.472 C 3.135 10.541,3.871 10.853,4.662 11.164 C 5.460 11.477,6.138 11.767,6.185 11.815 C 6.233 11.862,6.523 12.540,6.836 13.338 C 7.147 14.129,7.459 14.865,7.528 14.973 C 7.771 15.352,8.255 15.648,8.742 15.717 C 9.413 15.812,10.132 15.503,10.472 14.973 C 10.541 14.865,10.853 14.129,11.164 13.338 C 11.477 12.540,11.767 11.862,11.815 11.815 C 11.862 11.767,12.540 11.477,13.338 11.164 C 14.129 10.853,14.865 10.541,14.973 10.472 C 15.352 10.229,15.648 9.745,15.717 9.258 C 15.812 8.587,15.503 7.868,14.973 7.528 C 14.865 7.459,14.129 7.147,13.338 6.836 C 12.540 6.523,11.862 6.233,11.815 6.185 C 11.767 6.138,11.477 5.460,11.164 4.662 C 10.853 3.871,10.541 3.135,10.472 3.027 C 10.227 2.646,9.746 2.352,9.248 2.280 C 9.101 2.259,8.971 2.243,8.960 2.246 C 8.949 2.248,8.839 2.265,8.716 2.283 M9.160 3.800 C 9.208 3.826,9.362 4.164,9.594 4.750 C 9.791 5.250,10.056 5.921,10.182 6.240 C 10.308 6.559,10.482 6.922,10.569 7.047 C 10.830 7.421,11.032 7.530,12.671 8.178 C 13.651 8.566,14.175 8.793,14.201 8.841 C 14.255 8.942,14.250 9.091,14.190 9.173 C 14.162 9.211,13.502 9.494,12.723 9.802 C 11.944 10.109,11.226 10.401,11.128 10.450 C 10.898 10.565,10.565 10.898,10.450 11.128 C 10.401 11.226,10.109 11.944,9.802 12.723 C 9.494 13.502,9.211 14.162,9.173 14.190 C 9.091 14.250,8.942 14.255,8.841 14.201 C 8.793 14.175,8.566 13.651,8.178 12.671 C 7.531 11.036,7.418 10.825,7.051 10.572 C 6.908 10.473,6.304 10.210,5.326 9.820 C 3.952 9.272,3.817 9.210,3.782 9.110 C 3.759 9.041,3.759 8.959,3.783 8.890 C 3.817 8.790,3.953 8.727,5.326 8.180 C 6.314 7.786,6.908 7.526,7.056 7.425 C 7.413 7.179,7.533 6.954,8.181 5.320 C 8.514 4.478,8.796 3.823,8.833 3.801 C 8.920 3.751,9.066 3.750,9.160 3.800 M16.756 12.281 C 16.426 12.336,16.108 12.544,15.936 12.816 C 15.877 12.909,15.647 13.443,15.425 14.002 L 15.020 15.020 14.002 15.425 C 13.443 15.647,12.909 15.877,12.816 15.936 C 12.466 16.158,12.269 16.540,12.269 17.000 C 12.269 17.460,12.466 17.842,12.816 18.064 C 12.909 18.123,13.443 18.353,14.002 18.575 L 15.020 18.980 15.425 19.998 C 15.647 20.557,15.877 21.091,15.936 21.184 C 16.158 21.534,16.540 21.731,17.000 21.731 C 17.470 21.731,17.842 21.535,18.073 21.167 C 18.137 21.064,18.367 20.529,18.582 19.977 L 18.975 18.975 19.977 18.582 C 20.529 18.367,21.064 18.137,21.167 18.073 C 21.535 17.842,21.731 17.470,21.731 17.000 C 21.731 16.540,21.534 16.158,21.184 15.936 C 21.091 15.877,20.557 15.647,19.998 15.425 L 18.980 15.020 18.575 14.002 C 18.353 13.443,18.123 12.909,18.064 12.816 C 17.808 12.412,17.274 12.193,16.756 12.281 M17.255 14.731 C 17.584 15.582,17.744 15.919,17.892 16.075 C 18.049 16.240,18.343 16.385,19.209 16.720 C 19.577 16.863,19.878 16.989,19.878 17.000 C 19.878 17.011,19.577 17.137,19.209 17.280 C 18.343 17.615,18.049 17.760,17.892 17.925 C 17.744 18.081,17.584 18.418,17.255 19.269 C 17.126 19.604,17.011 19.878,17.000 19.878 C 16.989 19.878,16.874 19.604,16.745 19.269 C 16.416 18.418,16.256 18.081,16.108 17.925 C 15.951 17.760,15.657 17.615,14.791 17.280 C 14.423 17.137,14.122 17.011,14.122 17.000 C 14.122 16.989,14.423 16.863,14.791 16.720 C 15.657 16.385,15.951 16.240,16.108 16.075 C 16.256 15.919,16.416 15.582,16.745 14.731 C 16.874 14.396,16.989 14.122,17.000 14.122 C 17.011 14.122,17.126 14.396,17.255 14.731 " stroke="none" fill-rule="evenodd" fill="black"></path></svg>