<svg width="24" height="24" viewBox="0 0 24 24" fill="none" xmlns="http://www.w3.org/2000/svg"><path d="M8.894 3.283 C 8.781 3.298,8.589 3.356,8.468 3.411 C 7.996 3.627,7.628 3.966,6.452 5.268 L 5.794 5.997 4.287 5.988 C 2.923 5.981,2.757 5.987,2.540 6.054 C 1.980 6.225,1.632 6.503,1.411 6.955 C 1.316 7.148,1.299 7.240,1.286 7.605 C 1.264 8.261,1.390 8.659,2.237 10.600 C 2.414 11.007,2.560 11.383,2.560 11.435 C 2.560 11.488,2.381 12.064,2.163 12.715 C 1.733 13.997,1.624 14.385,1.558 14.859 C 1.448 15.649,1.766 16.342,2.375 16.640 C 2.952 16.922,3.398 16.908,5.420 16.543 C 6.044 16.430,6.191 16.415,6.240 16.457 C 6.273 16.485,6.541 16.719,6.835 16.976 C 7.487 17.545,8.096 17.957,8.760 18.276 C 9.215 18.494,9.553 18.601,12.500 19.455 C 16.529 20.623,16.682 20.666,16.997 20.717 C 17.689 20.828,18.386 20.501,18.737 19.901 C 19.027 19.406,19.298 18.421,19.540 16.983 C 19.620 16.507,19.658 16.365,19.730 16.288 C 19.780 16.234,20.176 15.921,20.612 15.591 C 21.642 14.812,22.014 14.495,22.266 14.181 C 23.073 13.177,22.838 12.093,21.640 11.293 C 21.337 11.091,20.563 10.627,19.897 10.248 C 19.698 10.135,19.502 10.006,19.462 9.963 C 19.416 9.912,19.284 9.447,19.095 8.677 C 18.777 7.375,18.704 7.116,18.546 6.728 C 18.348 6.239,17.971 5.815,17.613 5.677 C 17.351 5.576,9.406 3.289,9.260 3.273 C 9.172 3.263,9.007 3.268,8.894 3.283 M9.201 4.990 C 9.300 5.254,9.515 6.066,9.796 7.231 C 9.904 7.678,10.042 8.146,10.103 8.271 C 10.288 8.652,10.571 8.886,11.463 9.396 C 12.805 10.164,13.280 10.504,13.280 10.695 C 13.280 10.834,12.646 11.400,11.640 12.161 C 10.281 13.188,10.277 13.193,10.020 14.840 C 9.786 16.335,9.641 17.000,9.549 16.999 C 9.474 16.999,8.938 16.698,8.580 16.457 C 8.404 16.338,8.019 16.027,7.725 15.766 C 7.106 15.217,6.880 15.069,6.521 14.977 C 6.205 14.896,6.093 14.906,4.888 15.121 C 3.760 15.323,3.138 15.394,3.073 15.329 C 2.946 15.202,3.062 14.720,3.611 13.100 L 4.018 11.900 4.019 11.440 C 4.020 10.916,4.049 11.004,3.365 9.431 C 2.765 8.051,2.649 7.622,2.849 7.515 C 2.982 7.444,3.750 7.427,4.780 7.472 C 5.793 7.517,6.049 7.497,6.377 7.346 C 6.688 7.204,6.862 7.053,7.373 6.483 C 8.386 5.353,8.976 4.760,9.087 4.760 C 9.102 4.760,9.153 4.864,9.201 4.990 M14.000 6.171 L 17.060 7.060 17.152 7.246 C 17.233 7.409,17.811 9.601,17.781 9.632 C 17.775 9.638,16.521 9.298,14.995 8.876 C 12.260 8.120,12.215 8.106,11.848 7.892 C 11.642 7.772,11.458 7.635,11.435 7.585 C 11.348 7.394,10.854 5.280,10.896 5.281 C 10.920 5.281,12.317 5.682,14.000 6.171 M17.011 10.982 L 19.260 11.605 19.820 11.929 C 20.869 12.537,21.240 12.810,21.240 12.973 C 21.240 13.194,20.910 13.495,19.516 14.547 L 18.772 15.108 15.896 14.274 C 14.314 13.815,12.924 13.412,12.807 13.378 L 12.595 13.316 13.144 12.892 C 14.143 12.120,14.518 11.696,14.685 11.151 C 14.742 10.964,14.763 10.804,14.753 10.621 C 14.746 10.477,14.745 10.360,14.751 10.360 C 14.757 10.360,15.774 10.640,17.011 10.982 M14.901 15.538 C 16.616 16.036,18.040 16.449,18.065 16.458 C 18.111 16.474,18.085 16.680,17.934 17.500 C 17.848 17.966,17.623 18.762,17.500 19.030 C 17.387 19.277,17.348 19.285,16.878 19.162 C 16.373 19.030,11.074 17.487,11.053 17.467 C 11.043 17.456,11.080 17.261,11.137 17.034 C 11.224 16.683,11.443 15.458,11.539 14.786 C 11.565 14.601,11.571 14.592,11.674 14.613 C 11.733 14.625,13.186 15.041,14.901 15.538 " stroke="none" fill-rule="evenodd" fill="black"></path></svg>