<svg width="24" height="24" viewBox="0 0 24 24" fill="none" xmlns="http://www.w3.org/2000/svg"><path d="M13.822 3.282 C 13.501 3.337,13.072 3.574,12.786 3.855 C 12.406 4.230,11.987 4.884,10.978 6.680 C 10.762 7.065,10.537 7.428,10.479 7.487 C 10.356 7.610,10.365 7.608,8.941 7.941 C 7.532 8.271,6.935 8.446,6.525 8.648 C 5.551 9.129,5.155 9.985,5.459 10.951 C 5.642 11.527,5.997 12.034,7.311 13.589 C 8.237 14.685,8.216 14.651,8.206 15.032 C 8.202 15.202,8.164 15.709,8.121 16.160 C 7.897 18.523,7.918 19.162,8.239 19.799 C 8.555 20.424,9.060 20.720,9.812 20.720 C 10.450 20.720,10.902 20.566,12.840 19.689 C 13.423 19.425,13.941 19.197,13.991 19.182 C 14.114 19.144,14.260 19.197,15.120 19.591 C 16.222 20.095,16.986 20.418,17.427 20.566 C 17.792 20.688,17.858 20.697,18.360 20.699 C 18.887 20.700,18.906 20.697,19.160 20.573 C 19.658 20.329,20.009 19.839,20.145 19.200 C 20.231 18.794,20.198 17.614,20.063 16.200 C 19.931 14.826,19.931 14.781,20.075 14.558 C 20.138 14.460,20.467 14.056,20.805 13.659 C 22.313 11.892,22.679 11.337,22.802 10.625 C 22.938 9.846,22.528 9.101,21.740 8.694 C 21.242 8.436,20.675 8.270,18.963 7.877 C 18.488 7.768,18.016 7.651,17.912 7.617 C 17.687 7.543,17.638 7.475,17.039 6.400 C 15.951 4.451,15.541 3.881,14.972 3.519 C 14.652 3.315,14.189 3.220,13.822 3.282 M5.660 3.499 C 4.597 3.645,3.553 3.970,2.561 4.464 C 1.422 5.031,1.266 5.171,1.264 5.629 C 1.263 5.894,1.420 6.138,1.681 6.273 C 1.953 6.414,2.154 6.376,2.674 6.083 C 3.241 5.765,3.709 5.552,4.252 5.365 C 5.736 4.854,7.138 4.788,8.582 5.160 C 8.837 5.226,9.111 5.280,9.190 5.280 C 9.391 5.280,9.642 5.147,9.754 4.983 C 9.983 4.644,9.950 4.294,9.663 4.018 C 9.518 3.878,9.437 3.840,9.078 3.743 C 8.286 3.531,7.884 3.477,6.940 3.460 C 6.330 3.449,5.937 3.461,5.660 3.499 M14.368 4.950 C 14.653 5.243,14.810 5.499,16.058 7.699 C 16.408 8.316,16.625 8.596,16.893 8.774 C 17.210 8.984,17.409 9.051,18.402 9.279 C 20.309 9.717,20.918 9.897,21.185 10.101 C 21.534 10.368,21.301 10.766,19.659 12.700 C 19.249 13.184,18.844 13.697,18.759 13.840 C 18.442 14.379,18.421 14.683,18.581 16.387 C 18.760 18.295,18.758 18.963,18.571 19.170 C 18.392 19.368,17.920 19.216,15.940 18.321 C 14.592 17.712,14.555 17.699,14.060 17.703 C 13.588 17.706,13.599 17.702,12.220 18.329 C 10.698 19.021,10.190 19.214,9.880 19.217 L 9.620 19.220 9.541 19.060 C 9.426 18.826,9.444 18.010,9.600 16.360 C 9.737 14.915,9.737 14.600,9.600 14.212 C 9.483 13.877,9.257 13.564,8.423 12.583 C 7.229 11.178,6.840 10.628,6.840 10.345 C 6.840 10.046,7.400 9.823,9.171 9.420 C 10.866 9.034,11.092 8.957,11.448 8.642 C 11.681 8.437,11.880 8.137,12.381 7.240 C 13.456 5.313,13.838 4.760,14.097 4.760 C 14.147 4.760,14.260 4.839,14.368 4.950 M3.860 9.266 C 2.998 9.340,2.546 9.452,1.959 9.738 C 1.466 9.978,1.334 10.166,1.368 10.582 C 1.390 10.844,1.539 11.056,1.775 11.163 C 2.030 11.279,2.199 11.260,2.652 11.063 C 3.169 10.839,3.277 10.813,3.848 10.764 C 4.354 10.720,4.493 10.672,4.654 10.480 C 4.751 10.365,4.840 10.135,4.840 10.000 C 4.840 9.763,4.651 9.449,4.445 9.343 C 4.319 9.279,4.079 9.247,3.860 9.266 M4.540 14.282 C 3.563 14.365,2.650 14.695,1.852 15.254 C 1.473 15.520,1.360 15.692,1.360 16.008 C 1.360 16.436,1.671 16.738,2.110 16.733 C 2.297 16.731,2.358 16.706,2.690 16.487 C 3.441 15.993,3.995 15.807,4.823 15.772 C 5.220 15.755,5.437 15.766,5.726 15.818 C 6.038 15.875,6.137 15.878,6.281 15.840 C 6.627 15.747,6.882 15.353,6.825 15.002 C 6.794 14.813,6.612 14.563,6.440 14.476 C 6.146 14.326,5.184 14.228,4.540 14.282 " stroke="none" fill-rule="evenodd" fill="black"></path></svg>