<svg width="24" height="24" viewBox="0 0 24 24" fill="none" xmlns="http://www.w3.org/2000/svg"><path d="M13.184 1.281 C 12.875 1.335,12.510 1.537,12.252 1.797 C 11.840 2.213,11.570 2.747,10.862 4.549 C 10.670 5.039,10.474 5.496,10.426 5.566 C 10.335 5.699,10.351 5.692,8.600 6.359 C 7.072 6.940,6.417 7.333,6.126 7.843 C 6.052 7.972,5.901 8.123,5.651 8.316 C 4.375 9.302,3.334 10.575,2.605 12.040 C 1.311 14.642,0.947 17.763,1.499 21.529 C 1.605 22.248,1.678 22.456,1.873 22.595 C 2.060 22.728,2.310 22.778,2.513 22.723 C 2.789 22.647,2.932 22.477,3.170 21.940 C 3.287 21.676,3.472 21.310,3.581 21.126 C 4.366 19.807,5.739 18.522,7.406 17.546 C 7.868 17.275,8.967 16.736,9.440 16.547 L 9.780 16.412 9.900 16.660 C 10.225 17.331,10.771 17.686,11.479 17.686 C 12.093 17.685,12.684 17.435,14.001 16.620 C 15.277 15.829,15.532 15.678,15.637 15.652 C 15.705 15.635,16.205 15.743,17.120 15.972 C 18.797 16.393,19.101 16.450,19.640 16.449 C 20.366 16.447,20.868 16.208,21.203 15.706 C 21.428 15.370,21.497 15.105,21.494 14.600 C 21.491 14.089,21.409 13.677,21.053 12.380 C 20.631 10.845,20.623 10.805,20.693 10.658 C 20.726 10.589,21.022 10.120,21.351 9.616 C 22.366 8.060,22.627 7.556,22.725 6.964 C 22.865 6.117,22.379 5.367,21.490 5.058 C 21.003 4.889,20.093 4.777,18.560 4.699 C 17.747 4.658,17.441 4.616,17.325 4.531 C 17.267 4.488,16.870 4.041,16.442 3.537 C 15.211 2.086,14.635 1.557,14.076 1.363 C 13.807 1.270,13.441 1.236,13.184 1.281 M13.826 2.933 C 14.097 3.133,14.485 3.552,15.408 4.640 C 16.633 6.085,16.616 6.077,18.560 6.200 C 20.366 6.315,20.912 6.387,21.149 6.543 C 21.386 6.698,21.178 7.136,20.038 8.880 C 19.190 10.177,19.137 10.303,19.171 10.916 C 19.189 11.233,19.249 11.501,19.516 12.457 C 19.949 14.006,20.077 14.696,19.964 14.874 C 19.913 14.956,19.606 14.976,19.232 14.922 C 19.050 14.896,18.297 14.719,17.560 14.530 C 16.237 14.190,16.214 14.185,15.720 14.183 L 15.220 14.180 14.880 14.348 C 14.693 14.440,14.090 14.796,13.540 15.140 C 12.430 15.832,11.834 16.146,11.554 16.184 C 11.388 16.207,11.362 16.200,11.306 16.115 C 11.222 15.986,11.120 15.581,11.120 15.374 C 11.120 15.281,11.104 15.164,11.085 15.113 C 11.065 15.062,11.020 14.579,10.983 14.040 C 10.867 12.307,10.821 12.046,10.562 11.643 C 10.399 11.391,10.209 11.216,9.400 10.577 C 7.884 9.381,7.382 8.904,7.408 8.686 C 7.435 8.462,7.996 8.184,9.760 7.521 C 10.955 7.072,11.218 6.939,11.483 6.649 C 11.743 6.364,11.826 6.195,12.340 4.899 C 12.987 3.268,13.262 2.760,13.499 2.760 C 13.550 2.760,13.697 2.838,13.826 2.933 M7.108 10.644 C 7.345 10.848,7.929 11.325,8.407 11.705 C 8.884 12.085,9.294 12.432,9.318 12.476 C 9.355 12.545,9.398 13.022,9.502 14.521 L 9.528 14.903 9.034 15.097 C 7.017 15.889,5.163 17.071,3.820 18.420 C 3.534 18.708,3.192 19.082,3.060 19.252 L 2.820 19.562 2.787 19.331 C 2.740 18.998,2.787 17.062,2.855 16.520 C 3.044 15.018,3.353 13.933,3.918 12.780 C 4.428 11.740,4.950 11.016,5.774 10.206 L 6.237 9.751 6.458 10.012 C 6.579 10.155,6.872 10.439,7.108 10.644 " fill="#1C274C" stroke="none" fill-rule="evenodd"></path></svg>