<svg width="24" height="24" viewBox="0 0 24 24" fill="none" xmlns="http://www.w3.org/2000/svg"><path d="M12.300 1.295 C 11.885 1.401,11.570 1.645,11.289 2.077 C 11.090 2.384,10.960 2.684,10.535 3.816 C 10.330 4.364,10.155 4.818,10.147 4.826 C 10.140 4.834,9.735 5.001,9.249 5.197 C 7.750 5.802,7.266 6.092,6.946 6.573 C 6.868 6.691,6.678 6.891,6.524 7.017 C 5.201 8.099,4.153 9.809,3.662 11.686 C 3.366 12.820,3.262 13.719,3.265 15.120 C 3.267 16.461,3.421 18.000,3.588 18.352 C 3.723 18.636,4.116 18.809,4.431 18.723 C 4.692 18.652,4.856 18.481,5.001 18.129 C 5.345 17.291,5.748 16.671,6.375 16.013 C 7.019 15.337,7.766 14.767,8.660 14.270 C 9.041 14.058,9.659 13.760,9.718 13.760 C 9.733 13.760,9.776 13.824,9.813 13.902 C 9.925 14.137,10.240 14.442,10.496 14.564 C 10.821 14.718,11.085 14.745,11.465 14.660 C 11.889 14.566,12.358 14.316,13.370 13.646 C 13.852 13.327,14.264 13.080,14.317 13.080 C 14.368 13.080,14.764 13.178,15.197 13.298 C 16.466 13.650,16.684 13.693,17.200 13.695 C 17.782 13.697,18.019 13.615,18.343 13.299 C 18.669 12.981,18.774 12.724,18.793 12.199 C 18.812 11.683,18.763 11.404,18.416 10.042 L 18.156 9.025 18.719 8.096 C 19.617 6.614,19.824 6.086,19.729 5.526 C 19.617 4.867,19.164 4.417,18.420 4.226 C 18.090 4.141,17.656 4.092,16.585 4.020 C 16.082 3.986,15.653 3.948,15.633 3.936 C 15.612 3.923,15.314 3.559,14.970 3.126 C 14.148 2.092,13.680 1.622,13.280 1.429 C 12.931 1.261,12.608 1.217,12.300 1.295 M12.946 3.050 C 13.078 3.188,13.465 3.651,13.807 4.080 C 14.149 4.509,14.514 4.938,14.617 5.033 C 14.951 5.341,15.315 5.449,16.180 5.500 C 17.667 5.586,18.240 5.668,18.240 5.795 C 18.240 5.923,17.934 6.498,17.417 7.342 C 16.800 8.351,16.712 8.548,16.691 8.980 C 16.676 9.274,16.699 9.396,16.974 10.480 C 17.273 11.660,17.365 12.167,17.288 12.215 C 17.216 12.259,16.596 12.126,15.620 11.857 C 14.530 11.555,14.166 11.515,13.773 11.652 C 13.659 11.692,13.155 11.995,12.653 12.325 C 12.151 12.655,11.608 12.990,11.447 13.070 C 11.115 13.234,11.098 13.228,11.060 12.920 C 11.048 12.821,11.020 12.623,10.998 12.480 C 10.976 12.337,10.931 11.799,10.898 11.284 C 10.795 9.689,10.820 9.737,9.489 8.594 C 8.662 7.885,8.240 7.466,8.240 7.357 C 8.240 7.259,8.880 6.956,10.169 6.443 C 11.213 6.027,11.386 5.847,11.779 4.776 C 12.309 3.329,12.544 2.800,12.655 2.800 C 12.684 2.800,12.815 2.913,12.946 3.050 M7.527 8.850 C 7.733 9.053,8.220 9.489,8.609 9.817 C 9.237 10.349,9.318 10.431,9.337 10.557 C 9.374 10.808,9.450 12.203,9.428 12.225 C 9.416 12.237,9.158 12.359,8.853 12.496 C 7.458 13.123,6.303 13.928,5.283 14.984 L 4.748 15.539 4.772 14.679 C 4.786 14.207,4.825 13.613,4.860 13.360 C 5.080 11.757,5.610 10.377,6.421 9.300 C 6.610 9.050,7.108 8.480,7.139 8.480 C 7.146 8.480,7.320 8.646,7.527 8.850 M18.255 14.559 C 18.159 14.598,18.072 14.715,17.883 15.060 C 17.464 15.823,17.219 15.966,16.232 16.026 C 15.787 16.052,15.778 16.055,15.645 16.187 C 15.518 16.314,15.511 16.334,15.529 16.543 C 15.551 16.808,15.591 16.854,16.000 17.082 C 16.834 17.548,16.965 17.762,17.026 18.768 C 17.052 19.213,17.055 19.222,17.187 19.355 C 17.314 19.482,17.334 19.489,17.543 19.471 C 17.808 19.449,17.854 19.409,18.082 19.000 C 18.548 18.166,18.773 18.029,19.779 17.972 C 20.212 17.948,20.222 17.945,20.355 17.813 C 20.482 17.686,20.489 17.666,20.471 17.457 C 20.449 17.192,20.409 17.146,20.000 16.918 C 19.166 16.452,19.035 16.238,18.974 15.232 C 18.948 14.791,18.944 14.777,18.818 14.650 C 18.710 14.542,18.659 14.520,18.514 14.523 C 18.418 14.524,18.302 14.541,18.255 14.559 M9.941 15.651 C 9.807 15.785,9.800 15.806,9.800 16.066 C 9.800 16.471,9.726 17.183,9.654 17.480 C 9.488 18.161,9.021 18.633,7.973 19.177 C 7.603 19.370,7.551 19.432,7.528 19.700 C 7.511 19.907,7.518 19.926,7.651 20.059 C 7.787 20.195,7.802 20.200,8.092 20.200 C 8.501 20.200,9.165 20.270,9.480 20.346 C 10.160 20.511,10.633 20.979,11.177 22.027 C 11.370 22.397,11.432 22.449,11.700 22.472 C 11.907 22.489,11.926 22.482,12.059 22.349 C 12.193 22.215,12.200 22.194,12.200 21.934 C 12.200 21.529,12.274 20.817,12.346 20.520 C 12.512 19.839,12.979 19.367,14.027 18.823 C 14.397 18.630,14.449 18.568,14.472 18.300 C 14.489 18.093,14.482 18.074,14.349 17.941 C 14.213 17.805,14.198 17.800,13.908 17.800 C 13.499 17.800,12.835 17.730,12.520 17.654 C 11.840 17.489,11.367 17.021,10.823 15.973 C 10.630 15.603,10.568 15.551,10.300 15.528 C 10.093 15.511,10.074 15.518,9.941 15.651 M18.475 16.994 L 18.594 17.143 18.405 17.230 C 18.301 17.278,18.135 17.379,18.036 17.454 L 17.856 17.592 17.769 17.404 C 17.722 17.300,17.621 17.135,17.546 17.035 L 17.408 16.855 17.609 16.760 C 17.719 16.707,17.883 16.608,17.974 16.538 L 18.138 16.412 18.247 16.628 C 18.307 16.746,18.410 16.911,18.475 16.994 M11.588 18.369 C 11.746 18.448,11.998 18.543,12.148 18.582 L 12.420 18.651 12.097 18.976 C 11.737 19.339,11.536 19.688,11.418 20.148 L 11.349 20.420 11.024 20.097 C 10.661 19.737,10.312 19.536,9.852 19.418 L 9.580 19.349 9.903 19.024 C 10.263 18.661,10.464 18.312,10.582 17.852 L 10.651 17.580 10.976 17.903 C 11.206 18.130,11.386 18.267,11.588 18.369 " fill="#1C274C" stroke="none" fill-rule="evenodd"></path></svg>