<svg width="24" height="24" viewBox="0 0 24 24" fill="none" xmlns="http://www.w3.org/2000/svg"><path d="M17.176 3.282 C 16.089 3.415,14.607 4.249,13.080 5.588 C 12.500 6.097,11.415 7.199,10.877 7.825 L 10.504 8.260 9.222 8.265 C 7.321 8.273,6.045 8.403,4.724 8.726 C 3.528 9.017,2.612 9.443,1.992 9.996 C 1.744 10.217,1.449 10.666,1.350 10.973 C 1.242 11.309,1.245 11.846,1.356 12.201 C 1.507 12.685,1.922 13.250,2.460 13.706 C 3.147 14.289,4.492 15.013,5.641 15.418 C 6.094 15.578,6.074 15.532,5.903 16.006 C 5.490 17.156,5.270 18.219,5.268 19.080 C 5.266 19.665,5.309 19.946,5.463 20.380 C 5.799 21.326,6.678 21.838,7.755 21.716 C 8.858 21.591,10.007 20.983,11.638 19.663 L 12.215 19.196 12.414 19.584 C 12.773 20.281,13.201 20.591,13.747 20.549 C 14.248 20.510,14.600 20.227,15.216 19.372 C 15.613 18.819,15.486 18.885,16.320 18.799 C 16.551 18.775,16.862 18.730,17.011 18.699 C 17.971 18.503,18.367 17.706,17.944 16.825 C 17.867 16.666,17.631 16.288,17.417 15.984 L 17.030 15.431 17.133 14.826 C 17.279 13.963,17.291 13.814,17.241 13.505 C 17.188 13.178,17.100 12.994,16.897 12.785 C 16.646 12.527,16.449 12.459,15.960 12.464 C 15.581 12.467,15.479 12.485,14.920 12.653 C 14.579 12.756,14.279 12.840,14.253 12.840 C 14.228 12.840,14.003 12.720,13.755 12.573 C 13.506 12.427,13.149 12.234,12.962 12.145 C 12.642 11.993,12.597 11.983,12.260 11.981 C 11.930 11.980,11.882 11.990,11.680 12.104 C 11.403 12.260,11.226 12.489,11.116 12.832 C 11.041 13.066,11.030 13.203,11.024 13.908 L 11.018 14.715 10.526 15.184 C 9.816 15.861,9.600 16.209,9.600 16.678 C 9.600 17.279,9.986 17.721,10.775 18.022 C 10.943 18.086,11.080 18.151,11.080 18.166 C 11.080 18.211,10.052 19.022,9.620 19.317 C 8.782 19.890,7.967 20.240,7.474 20.240 C 7.152 20.240,7.006 20.155,6.877 19.895 C 6.787 19.713,6.780 19.657,6.780 19.060 C 6.781 18.361,6.820 18.116,7.066 17.268 C 7.179 16.878,7.464 16.053,7.500 16.008 C 7.506 16.002,7.727 16.051,7.992 16.118 C 8.597 16.271,8.792 16.244,9.047 15.974 C 9.309 15.697,9.309 15.263,9.047 14.986 C 8.904 14.835,8.785 14.777,8.462 14.702 C 8.313 14.667,8.175 14.630,8.157 14.618 C 8.107 14.587,8.656 13.558,9.212 12.640 C 9.574 12.041,10.315 10.948,10.775 10.332 C 11.205 9.757,11.070 9.796,12.180 9.921 C 15.956 10.347,19.350 11.483,20.715 12.779 C 21.044 13.092,21.239 13.394,21.240 13.592 C 21.241 14.152,20.235 14.739,18.670 15.091 C 18.201 15.197,18.098 15.249,17.933 15.466 C 17.835 15.594,17.820 15.650,17.820 15.880 C 17.820 16.196,17.923 16.382,18.177 16.525 C 18.401 16.650,18.671 16.636,19.347 16.463 C 20.377 16.199,21.134 15.872,21.719 15.438 C 22.057 15.187,22.223 15.010,22.445 14.668 C 22.657 14.340,22.734 14.055,22.729 13.620 C 22.722 12.927,22.491 12.453,21.840 11.797 C 21.537 11.492,21.280 11.282,20.920 11.044 C 20.402 10.701,19.399 10.188,18.790 9.954 C 18.598 9.881,18.440 9.810,18.440 9.798 C 18.440 9.786,18.502 9.754,18.577 9.726 C 18.801 9.645,18.933 9.452,19.117 8.936 C 19.795 7.032,19.918 5.440,19.463 4.460 C 19.052 3.575,18.232 3.153,17.176 3.282 M17.942 4.858 C 18.125 4.978,18.212 5.244,18.232 5.748 C 18.261 6.467,18.089 7.363,17.733 8.358 C 17.523 8.946,17.500 9.192,17.636 9.422 C 17.712 9.552,17.714 9.566,17.653 9.543 C 17.509 9.488,16.485 9.201,16.020 9.085 C 15.050 8.844,13.960 8.641,12.868 8.498 C 12.601 8.464,12.373 8.427,12.364 8.417 C 12.326 8.380,14.117 6.642,14.540 6.304 C 16.104 5.056,17.402 4.504,17.942 4.858 M9.284 9.830 C 9.262 9.869,9.077 10.138,8.872 10.429 C 8.191 11.399,7.404 12.709,6.918 13.685 L 6.666 14.191 6.403 14.100 C 5.493 13.787,4.447 13.287,3.825 12.868 C 3.488 12.641,3.010 12.174,2.876 11.941 C 2.734 11.694,2.730 11.519,2.858 11.300 C 3.350 10.461,5.892 9.783,8.611 9.765 C 9.278 9.760,9.320 9.764,9.284 9.830 M13.068 13.901 C 13.763 14.309,13.944 14.374,14.300 14.346 C 14.457 14.333,14.836 14.244,15.160 14.145 C 15.479 14.047,15.746 13.973,15.753 13.980 C 15.760 13.987,15.727 14.215,15.679 14.486 C 15.450 15.793,15.443 15.760,16.140 16.763 C 16.533 17.328,16.542 17.292,16.000 17.337 C 15.172 17.405,14.853 17.495,14.607 17.732 C 14.533 17.802,14.311 18.081,14.114 18.350 C 13.916 18.620,13.741 18.840,13.724 18.840 C 13.708 18.840,13.580 18.596,13.441 18.298 C 12.964 17.280,12.891 17.209,11.994 16.882 C 11.700 16.774,11.406 16.666,11.341 16.641 L 11.222 16.595 11.751 16.083 C 12.478 15.379,12.491 15.349,12.513 14.350 C 12.522 13.938,12.535 13.600,12.543 13.600 C 12.550 13.600,12.786 13.735,13.068 13.901 " stroke="none" fill-rule="evenodd" fill="black"></path></svg>