<svg width="24" height="24" viewBox="0 0 24 24" fill="none" xmlns="http://www.w3.org/2000/svg"><path d="M11.706 1.284 C 11.295 1.344,10.912 1.563,10.498 1.975 C 9.995 2.476,9.601 3.084,8.459 5.120 C 7.756 6.373,7.638 6.547,7.426 6.642 C 7.335 6.684,6.945 6.791,6.560 6.882 C 3.257 7.659,2.712 7.833,2.086 8.310 C 1.561 8.710,1.318 9.171,1.290 9.820 C 1.245 10.830,1.644 11.497,3.800 14.020 C 4.157 14.438,4.537 14.904,4.645 15.056 C 4.840 15.333,4.840 15.333,4.840 15.660 C 4.840 15.840,4.787 16.561,4.722 17.263 C 4.453 20.175,4.471 20.858,4.840 21.620 C 5.035 22.022,5.192 22.211,5.495 22.406 C 6.127 22.815,6.982 22.831,8.000 22.452 C 8.526 22.256,9.582 21.802,10.575 21.344 C 11.035 21.132,11.544 20.912,11.705 20.854 L 12.000 20.750 12.295 20.854 C 12.456 20.912,12.965 21.132,13.425 21.344 C 15.179 22.152,16.162 22.548,16.693 22.657 C 17.125 22.746,17.689 22.739,18.009 22.641 C 18.321 22.544,18.699 22.307,18.875 22.096 C 19.068 21.864,19.307 21.340,19.374 21.000 C 19.513 20.294,19.496 19.621,19.278 17.263 C 19.213 16.561,19.160 15.840,19.160 15.660 C 19.160 15.273,19.183 15.232,19.768 14.535 C 19.973 14.291,20.426 13.751,20.775 13.336 C 21.915 11.979,22.371 11.320,22.593 10.712 C 22.688 10.453,22.700 10.363,22.699 9.920 C 22.699 9.494,22.685 9.386,22.607 9.192 C 22.340 8.526,21.670 8.016,20.620 7.681 C 20.244 7.561,19.030 7.256,17.440 6.882 C 17.055 6.791,16.665 6.684,16.574 6.642 C 16.361 6.546,16.235 6.361,15.537 5.114 C 14.031 2.424,13.535 1.770,12.735 1.416 C 12.559 1.338,12.052 1.227,11.960 1.246 C 11.949 1.248,11.835 1.265,11.706 1.284 M12.408 2.990 C 12.807 3.370,13.103 3.832,14.224 5.826 C 14.568 6.439,14.914 7.039,14.993 7.160 C 15.222 7.510,15.561 7.818,15.889 7.975 C 16.224 8.135,16.272 8.148,17.964 8.540 C 21.158 9.280,21.532 9.506,21.085 10.422 C 20.851 10.903,20.601 11.223,18.667 13.519 C 18.124 14.163,17.947 14.416,17.811 14.740 C 17.701 15.000,17.627 15.549,17.657 15.879 C 17.670 16.023,17.738 16.743,17.807 17.480 C 17.906 18.524,17.934 19.032,17.937 19.780 C 17.940 20.727,17.939 20.743,17.840 20.940 C 17.710 21.199,17.612 21.248,17.260 21.228 C 16.804 21.201,16.284 21.000,14.123 20.019 C 12.803 19.420,12.400 19.280,12.000 19.280 C 11.599 19.280,11.197 19.420,9.871 20.023 C 7.747 20.988,7.080 21.241,6.661 21.239 C 6.385 21.239,6.277 21.174,6.160 20.940 C 6.069 20.757,6.059 20.686,6.046 20.109 C 6.030 19.422,6.068 18.810,6.225 17.220 C 6.344 16.015,6.362 15.355,6.284 15.040 C 6.157 14.529,5.967 14.250,4.880 12.980 C 3.296 11.128,2.819 10.458,2.769 10.015 C 2.703 9.429,3.234 9.189,6.036 8.540 C 6.731 8.379,7.414 8.218,7.553 8.182 C 8.121 8.035,8.545 7.770,8.853 7.369 C 9.027 7.144,9.154 6.927,10.120 5.220 C 11.196 3.317,11.624 2.760,12.008 2.760 C 12.145 2.760,12.197 2.790,12.408 2.990 " stroke="none" fill-rule="evenodd" fill="black"></path></svg>