<svg width="24" height="24" viewBox="0 0 24 24" fill="none" xmlns="http://www.w3.org/2000/svg"><path d="M11.826 1.286 C 11.625 1.331,11.468 1.445,11.353 1.631 C 11.261 1.778,11.260 1.793,11.260 3.003 L 11.260 4.226 11.367 4.388 C 11.526 4.628,11.721 4.733,12.007 4.733 C 12.203 4.733,12.270 4.714,12.408 4.617 C 12.722 4.395,12.738 4.325,12.753 3.128 C 12.767 1.990,12.741 1.747,12.581 1.538 C 12.419 1.325,12.109 1.222,11.826 1.286 M5.826 5.285 C 5.480 5.365,5.267 5.636,5.267 5.996 C 5.267 6.272,5.308 6.352,5.617 6.674 C 5.905 6.976,6.091 7.080,6.340 7.080 C 6.890 7.080,7.237 6.527,7.005 6.020 C 6.905 5.801,6.405 5.336,6.233 5.301 C 6.160 5.286,6.073 5.268,6.040 5.261 C 6.007 5.255,5.911 5.265,5.826 5.285 M17.808 5.289 C 17.676 5.317,17.569 5.389,17.355 5.591 C 16.994 5.931,16.906 6.098,16.928 6.403 C 16.956 6.796,17.263 7.080,17.660 7.080 C 17.915 7.080,18.101 6.972,18.408 6.647 C 18.617 6.425,18.680 6.328,18.711 6.182 C 18.833 5.610,18.383 5.165,17.808 5.289 M11.780 6.276 C 11.175 6.376,10.775 6.818,9.948 8.300 L 9.568 8.980 9.034 9.109 C 7.438 9.495,7.081 9.623,6.733 9.936 C 6.370 10.262,6.195 10.751,6.280 11.199 C 6.372 11.686,6.606 12.052,7.519 13.137 C 8.121 13.853,8.077 13.701,7.976 14.729 C 7.885 15.665,7.884 16.398,7.975 16.700 C 8.201 17.456,8.778 17.819,9.583 17.711 C 9.928 17.665,10.252 17.546,11.210 17.116 L 12.000 16.760 12.790 17.116 C 13.748 17.546,14.072 17.665,14.417 17.711 C 15.222 17.819,15.799 17.456,16.025 16.700 C 16.116 16.398,16.115 15.665,16.024 14.729 C 15.923 13.698,15.889 13.827,16.426 13.200 C 17.346 12.125,17.641 11.666,17.720 11.181 C 17.823 10.549,17.475 9.953,16.823 9.642 C 16.562 9.517,15.907 9.331,14.990 9.120 L 14.441 8.993 14.214 8.587 C 13.537 7.372,13.242 6.921,12.951 6.660 C 12.607 6.350,12.180 6.210,11.780 6.276 M12.175 8.050 C 12.249 8.165,12.432 8.476,12.581 8.740 C 13.121 9.694,13.223 9.856,13.400 10.039 C 13.646 10.293,13.910 10.406,14.660 10.577 C 15.455 10.759,16.032 10.913,16.150 10.975 L 16.240 11.022 16.133 11.181 C 16.004 11.374,15.831 11.588,15.278 12.240 C 14.420 13.252,14.394 13.336,14.520 14.664 C 14.563 15.124,14.599 15.668,14.600 15.873 C 14.600 16.241,14.599 16.245,14.510 16.218 C 14.343 16.168,13.784 15.930,13.207 15.665 C 12.526 15.352,12.301 15.280,12.000 15.280 C 11.699 15.280,11.474 15.352,10.793 15.665 C 10.216 15.930,9.657 16.168,9.490 16.218 C 9.401 16.245,9.400 16.241,9.400 15.873 C 9.401 15.668,9.436 15.129,9.478 14.676 C 9.589 13.498,9.545 13.265,9.110 12.715 C 8.994 12.569,8.704 12.218,8.465 11.935 C 8.226 11.652,7.970 11.330,7.896 11.221 L 7.761 11.022 7.850 10.975 C 7.967 10.914,8.539 10.761,9.338 10.577 C 10.506 10.308,10.562 10.261,11.339 8.883 C 11.767 8.123,11.947 7.840,12.000 7.840 C 12.023 7.840,12.101 7.935,12.175 8.050 M1.826 11.284 C 1.476 11.366,1.267 11.636,1.267 12.003 C 1.267 12.281,1.387 12.496,1.627 12.645 C 1.779 12.740,1.786 12.740,3.000 12.740 C 4.207 12.740,4.222 12.739,4.369 12.647 C 4.943 12.290,4.812 11.424,4.162 11.284 C 3.915 11.231,2.051 11.231,1.826 11.284 M19.826 11.284 C 19.476 11.366,19.267 11.636,19.267 12.003 C 19.267 12.281,19.387 12.496,19.627 12.645 C 19.779 12.740,19.786 12.740,21.000 12.740 C 22.207 12.740,22.222 12.739,22.369 12.647 C 22.943 12.290,22.812 11.424,22.162 11.284 C 21.915 11.231,20.051 11.231,19.826 11.284 M6.020 16.995 C 5.856 17.071,5.415 17.502,5.320 17.680 C 5.233 17.842,5.252 18.206,5.356 18.374 C 5.537 18.667,5.856 18.797,6.187 18.714 C 6.413 18.657,6.893 18.227,7.005 17.980 C 7.299 17.336,6.663 16.700,6.020 16.995 M17.340 16.987 C 17.068 17.130,16.920 17.367,16.920 17.660 C 16.920 17.909,17.024 18.095,17.326 18.383 C 17.648 18.692,17.728 18.733,18.004 18.733 C 18.496 18.733,18.818 18.317,18.711 17.818 C 18.680 17.672,18.617 17.574,18.406 17.350 C 18.260 17.195,18.068 17.035,17.980 16.995 C 17.784 16.905,17.501 16.902,17.340 16.987 M11.826 19.286 C 11.625 19.331,11.468 19.445,11.353 19.631 C 11.261 19.778,11.260 19.793,11.260 21.003 L 11.260 22.226 11.367 22.388 C 11.526 22.628,11.721 22.733,12.007 22.733 C 12.203 22.733,12.270 22.714,12.408 22.617 C 12.722 22.395,12.738 22.325,12.753 21.128 C 12.767 19.990,12.741 19.747,12.581 19.538 C 12.419 19.325,12.109 19.222,11.826 19.286 " stroke="none" fill-rule="evenodd" fill="black"></path></svg>