<svg width="24" height="24" viewBox="0 0 24 24" fill="none" xmlns="http://www.w3.org/2000/svg"><path d="M18.815 1.278 C 18.381 1.346,18.023 1.490,16.715 2.127 L 15.729 2.606 15.135 2.378 C 13.966 1.929,13.183 1.678,12.807 1.630 C 12.197 1.553,11.750 1.687,11.378 2.058 C 10.856 2.581,10.783 3.224,11.018 5.240 C 11.073 5.713,11.119 6.129,11.119 6.164 C 11.120 6.199,10.833 6.572,10.481 6.993 C 9.454 8.225,9.193 8.600,9.037 9.070 C 8.925 9.405,8.941 9.880,9.075 10.179 C 9.126 10.294,9.147 10.384,9.124 10.392 C 9.021 10.426,7.857 11.220,7.500 11.499 C 5.922 12.734,4.391 14.413,3.228 16.183 C 2.316 17.571,1.461 19.323,1.288 20.159 C 1.175 20.705,1.318 21.300,1.674 21.773 C 1.899 22.070,2.330 22.403,2.662 22.536 C 3.230 22.764,3.144 22.760,7.800 22.760 C 11.560 22.760,12.121 22.752,12.391 22.696 C 13.016 22.567,13.518 22.288,13.932 21.839 C 14.244 21.500,14.418 21.211,14.563 20.790 C 14.677 20.461,14.696 20.328,14.821 19.040 C 14.964 17.569,15.203 16.237,15.527 15.110 L 15.650 14.680 15.803 14.680 C 16.256 14.680,16.669 14.499,17.024 14.143 C 17.338 13.830,17.621 13.397,18.241 12.283 C 18.515 11.792,18.775 11.367,18.819 11.338 C 18.864 11.310,19.335 11.169,19.867 11.024 C 21.484 10.584,21.936 10.389,22.331 9.962 C 22.806 9.450,22.876 8.841,22.539 8.169 C 22.359 7.811,22.095 7.488,21.248 6.587 C 20.859 6.172,20.526 5.808,20.508 5.777 C 20.491 5.747,20.505 5.409,20.540 5.027 C 20.724 3.001,20.682 2.386,20.323 1.865 C 20.181 1.658,19.877 1.424,19.645 1.342 C 19.430 1.266,19.070 1.238,18.815 1.278 M19.144 2.950 C 19.160 3.059,19.140 3.560,19.096 4.120 C 19.054 4.659,19.020 5.334,19.020 5.621 C 19.020 6.131,19.023 6.148,19.154 6.414 C 19.254 6.616,19.418 6.825,19.794 7.225 C 20.849 8.347,21.240 8.808,21.240 8.927 C 21.240 9.044,20.546 9.291,19.240 9.641 C 17.859 10.010,17.727 10.113,17.042 11.347 C 16.485 12.350,16.195 12.827,16.027 13.020 L 15.887 13.180 15.741 13.040 C 15.576 12.882,15.179 12.291,14.678 11.460 C 14.253 10.757,13.898 10.376,13.542 10.244 C 13.411 10.195,12.790 10.067,12.162 9.959 C 11.096 9.777,10.681 9.685,10.510 9.594 C 10.444 9.559,10.444 9.549,10.516 9.409 C 10.631 9.182,10.905 8.825,11.574 8.027 C 12.289 7.175,12.422 6.988,12.524 6.698 C 12.628 6.402,12.622 5.986,12.499 4.892 C 12.435 4.329,12.402 3.835,12.409 3.567 L 12.420 3.140 12.546 3.128 C 12.744 3.109,13.106 3.219,14.160 3.617 C 15.252 4.031,15.420 4.080,15.733 4.080 C 16.069 4.080,16.383 3.962,17.484 3.423 C 18.439 2.955,18.890 2.764,19.048 2.761 C 19.098 2.760,19.122 2.809,19.144 2.950 M10.738 11.273 C 10.717 11.291,10.556 11.424,10.380 11.570 C 8.933 12.765,7.328 15.065,6.120 17.673 C 5.585 18.828,5.096 20.142,4.901 20.952 L 4.830 21.245 4.105 21.232 C 3.436 21.221,3.365 21.213,3.186 21.125 C 3.073 21.069,2.943 20.961,2.873 20.865 C 2.769 20.722,2.755 20.673,2.770 20.500 C 2.814 19.972,3.691 18.198,4.530 16.940 C 5.278 15.817,5.927 15.029,6.918 14.038 C 8.126 12.829,9.178 12.035,10.380 11.424 C 10.742 11.240,10.808 11.212,10.738 11.273 M12.319 12.290 C 10.949 14.199,9.688 17.556,9.220 20.545 C 9.165 20.894,9.120 21.194,9.120 21.210 C 9.120 21.227,8.508 21.240,7.760 21.240 C 6.542 21.240,6.400 21.233,6.400 21.176 C 6.400 21.052,6.877 19.691,7.120 19.120 C 8.388 16.150,10.089 13.646,11.620 12.497 C 11.872 12.308,12.457 11.962,12.528 11.961 C 12.544 11.960,12.450 12.108,12.319 12.290 M14.089 13.345 L 14.388 13.789 14.313 13.985 C 13.865 15.138,13.446 17.333,13.261 19.500 C 13.205 20.153,13.189 20.243,13.079 20.467 C 12.929 20.773,12.636 21.046,12.337 21.158 C 12.144 21.230,12.026 21.240,11.375 21.240 L 10.633 21.240 10.659 21.070 C 11.051 18.478,11.971 15.745,13.084 13.870 C 13.357 13.409,13.727 12.877,13.764 12.891 C 13.778 12.896,13.924 13.100,14.089 13.345 " fill="#1C274C" stroke="none" fill-rule="evenodd"></path></svg>