<svg width="24" height="24" viewBox="0 0 24 24" fill="none" xmlns="http://www.w3.org/2000/svg"><path d="M4.683 1.623 C 4.598 1.695,4.541 1.797,4.498 1.953 C 4.210 3.001,3.988 3.495,3.680 3.773 C 3.568 3.873,3.346 4.018,3.186 4.093 C 2.899 4.229,2.274 4.444,2.000 4.500 C 1.677 4.566,1.520 4.745,1.520 5.046 C 1.520 5.291,1.698 5.450,2.066 5.534 C 2.461 5.624,3.009 5.821,3.331 5.990 C 3.667 6.165,3.910 6.428,4.093 6.814 C 4.229 7.101,4.444 7.726,4.500 8.000 C 4.566 8.323,4.745 8.480,5.046 8.480 C 5.291 8.480,5.450 8.302,5.534 7.934 C 5.624 7.539,5.821 6.991,5.990 6.669 C 6.165 6.333,6.428 6.090,6.814 5.907 C 7.101 5.771,7.726 5.556,8.000 5.500 C 8.320 5.434,8.480 5.255,8.480 4.961 C 8.480 4.735,8.332 4.576,8.047 4.498 C 6.999 4.210,6.505 3.988,6.227 3.680 C 6.127 3.568,5.982 3.346,5.907 3.186 C 5.771 2.899,5.556 2.274,5.500 2.000 C 5.460 1.806,5.341 1.623,5.219 1.567 C 5.041 1.486,4.819 1.509,4.683 1.623 M18.815 3.277 C 18.502 3.355,18.293 3.620,18.255 3.990 L 18.230 4.230 17.990 4.255 C 17.538 4.302,17.267 4.580,17.267 4.997 C 17.267 5.415,17.497 5.661,17.959 5.733 L 18.230 5.776 18.255 6.018 C 18.300 6.449,18.591 6.729,18.996 6.729 C 19.412 6.729,19.662 6.495,19.734 6.040 C 19.773 5.790,19.787 5.760,19.867 5.760 C 20.453 5.760,20.824 5.345,20.711 4.816 C 20.640 4.482,20.295 4.240,19.891 4.240 C 19.782 4.240,19.776 4.230,19.734 3.960 C 19.684 3.642,19.563 3.448,19.352 3.349 C 19.177 3.266,18.969 3.239,18.815 3.277 M5.172 3.910 C 5.425 4.338,5.757 4.652,6.209 4.892 L 6.395 4.991 6.088 5.173 C 5.662 5.425,5.348 5.758,5.108 6.209 L 5.009 6.395 4.827 6.088 C 4.575 5.662,4.242 5.348,3.791 5.108 L 3.605 5.009 3.915 4.825 C 4.086 4.724,4.325 4.538,4.445 4.411 C 4.657 4.188,4.960 3.736,4.960 3.645 C 4.960 3.563,4.987 3.597,5.172 3.910 M12.245 4.283 C 11.900 4.330,11.470 4.569,11.140 4.895 C 10.729 5.303,10.327 5.925,9.380 7.620 C 8.790 8.675,8.705 8.796,8.500 8.869 C 8.412 8.900,7.845 9.042,7.240 9.184 C 5.411 9.613,4.922 9.756,4.426 10.011 C 3.230 10.627,2.937 11.804,3.674 13.030 C 3.960 13.507,4.139 13.732,5.869 15.795 C 6.028 15.985,6.198 16.215,6.247 16.306 L 6.336 16.472 6.266 17.246 C 6.228 17.672,6.168 18.317,6.133 18.680 C 6.052 19.543,6.042 20.858,6.114 21.180 C 6.260 21.825,6.607 22.300,7.114 22.551 L 7.416 22.700 7.958 22.699 C 8.438 22.699,8.540 22.686,8.850 22.588 C 9.293 22.448,9.986 22.157,11.280 21.567 C 12.147 21.172,12.330 21.102,12.500 21.102 C 12.671 21.102,12.858 21.174,13.780 21.595 C 15.002 22.152,15.761 22.469,16.200 22.605 C 16.450 22.683,16.590 22.698,17.042 22.699 L 17.584 22.700 17.886 22.551 C 18.393 22.300,18.740 21.825,18.886 21.180 C 18.982 20.753,18.952 19.624,18.801 17.966 L 18.664 16.473 18.753 16.306 C 18.801 16.215,18.972 15.985,19.131 15.795 C 20.861 13.732,21.040 13.507,21.326 13.030 C 21.803 12.236,21.854 11.394,21.463 10.782 C 21.192 10.360,20.675 9.996,20.029 9.776 C 19.642 9.644,18.748 9.412,17.569 9.140 C 17.035 9.016,16.534 8.888,16.456 8.856 C 16.286 8.785,16.203 8.656,15.354 7.160 C 14.387 5.455,14.016 4.937,13.517 4.604 C 13.096 4.323,12.692 4.221,12.245 4.283 M12.764 5.908 C 13.060 6.176,13.363 6.652,14.299 8.320 C 14.601 8.859,14.928 9.411,15.025 9.548 C 15.384 10.053,15.734 10.242,16.757 10.482 C 19.153 11.043,19.755 11.216,20.035 11.427 C 20.221 11.566,20.239 11.594,20.239 11.745 C 20.241 12.066,19.821 12.664,18.499 14.220 C 17.102 15.865,17.101 15.867,17.294 17.900 C 17.557 20.668,17.527 21.197,17.103 21.233 C 16.754 21.262,16.265 21.083,14.491 20.277 C 13.144 19.665,12.933 19.592,12.500 19.592 C 12.067 19.592,11.856 19.665,10.509 20.277 C 8.735 21.083,8.246 21.262,7.897 21.233 C 7.473 21.197,7.443 20.668,7.706 17.900 C 7.899 15.867,7.898 15.865,6.501 14.220 C 5.179 12.664,4.759 12.066,4.761 11.745 C 4.761 11.594,4.779 11.566,4.965 11.427 C 5.245 11.217,5.908 11.026,8.323 10.463 C 9.260 10.244,9.623 10.043,9.976 9.548 C 10.072 9.411,10.395 8.865,10.693 8.334 C 11.618 6.682,11.940 6.176,12.236 5.908 C 12.333 5.821,12.441 5.760,12.500 5.760 C 12.559 5.760,12.667 5.821,12.764 5.908 " stroke="none" fill-rule="evenodd" fill="black"></path></svg>