<svg width="24" height="24" viewBox="0 0 24 24" fill="none" xmlns="http://www.w3.org/2000/svg"><path d="M11.280 1.281 C 11.019 1.326,10.929 1.369,10.649 1.580 C 10.417 1.754,10.032 2.225,9.485 3.003 L 9.357 3.185 8.614 3.276 C 7.783 3.378,7.467 3.447,7.191 3.585 C 6.913 3.725,6.737 3.897,6.612 4.153 C 6.519 4.341,6.500 4.432,6.501 4.680 C 6.501 4.864,6.530 5.062,6.574 5.191 C 6.653 5.419,6.953 5.896,7.431 6.553 L 7.731 6.966 7.596 7.713 C 7.417 8.702,7.413 9.149,7.577 9.510 C 7.701 9.781,7.895 9.984,8.168 10.126 C 8.297 10.193,8.429 10.219,8.700 10.231 C 9.105 10.250,9.314 10.206,10.260 9.903 L 10.820 9.723 11.500 10.095 C 12.322 10.544,12.523 10.631,12.840 10.674 C 13.435 10.755,13.917 10.515,14.177 10.007 C 14.314 9.739,14.359 9.371,14.359 8.497 L 14.360 7.653 14.942 7.101 C 15.770 6.317,16.000 5.947,16.000 5.410 C 15.999 4.890,15.699 4.486,15.105 4.203 C 14.926 4.118,14.485 3.952,14.124 3.834 L 13.468 3.620 13.134 2.926 C 12.625 1.866,12.386 1.550,11.953 1.364 C 11.734 1.270,11.509 1.242,11.280 1.281 M11.822 3.655 C 12.385 4.806,12.433 4.847,13.670 5.258 C 14.049 5.383,14.368 5.501,14.379 5.519 C 14.391 5.537,14.121 5.817,13.780 6.141 C 13.258 6.637,13.140 6.771,13.030 6.994 L 12.900 7.258 12.887 8.189 C 12.880 8.701,12.862 9.120,12.845 9.120 C 12.829 9.120,12.538 8.964,12.198 8.774 C 11.044 8.127,10.957 8.115,9.884 8.456 C 8.987 8.742,8.960 8.747,8.960 8.647 C 8.960 8.604,9.017 8.265,9.087 7.894 C 9.157 7.521,9.213 7.086,9.214 6.919 C 9.214 6.534,9.126 6.336,8.674 5.720 C 8.222 5.104,8.069 4.878,8.089 4.858 C 8.098 4.849,8.459 4.797,8.891 4.743 C 9.826 4.625,9.934 4.599,10.187 4.427 C 10.372 4.301,10.495 4.151,11.140 3.265 C 11.294 3.053,11.425 2.880,11.431 2.880 C 11.438 2.880,11.614 3.229,11.822 3.655 M21.625 8.862 C 21.171 9.095,20.217 9.747,19.520 10.300 C 16.833 12.433,14.950 15.409,14.143 18.800 C 13.851 20.025,13.667 21.907,13.803 22.267 C 13.905 22.540,14.193 22.731,14.500 22.731 C 14.740 22.731,14.904 22.655,15.072 22.463 C 15.216 22.299,15.228 22.239,15.261 21.540 C 15.389 18.817,16.401 16.069,18.084 13.874 C 19.118 12.527,20.591 11.214,22.038 10.352 C 22.226 10.240,22.431 10.101,22.494 10.044 C 22.803 9.761,22.826 9.329,22.549 9.014 C 22.310 8.741,21.969 8.685,21.625 8.862 M10.785 11.288 C 10.524 11.359,10.346 11.578,10.246 11.948 C 9.906 13.207,9.758 15.134,9.837 17.279 C 9.922 19.596,10.181 22.091,10.368 22.392 C 10.636 22.827,11.304 22.857,11.595 22.447 C 11.738 22.246,11.759 22.073,11.696 21.609 C 11.409 19.479,11.345 18.526,11.342 16.340 C 11.340 14.152,11.387 13.574,11.668 12.402 C 11.755 12.039,11.762 11.962,11.720 11.822 C 11.596 11.403,11.198 11.176,10.785 11.288 M4.817 12.817 C 4.519 12.947,4.459 13.182,4.599 13.685 C 4.642 13.842,4.690 14.102,4.704 14.265 C 4.729 14.541,4.723 14.576,4.607 14.810 C 4.534 14.959,4.353 15.200,4.159 15.409 C 3.976 15.607,3.819 15.815,3.797 15.889 C 3.718 16.167,3.949 16.481,4.233 16.479 C 4.314 16.479,4.515 16.443,4.680 16.399 C 4.845 16.356,5.110 16.308,5.269 16.294 C 5.539 16.270,5.576 16.277,5.809 16.393 C 5.958 16.467,6.208 16.653,6.424 16.853 C 6.625 17.037,6.838 17.201,6.898 17.216 C 7.052 17.255,7.259 17.176,7.379 17.034 C 7.505 16.884,7.510 16.706,7.399 16.309 C 7.355 16.150,7.307 15.890,7.293 15.731 C 7.270 15.462,7.277 15.423,7.392 15.191 C 7.466 15.040,7.646 14.800,7.841 14.591 C 8.024 14.393,8.181 14.185,8.203 14.111 C 8.284 13.828,8.052 13.520,7.756 13.520 C 7.670 13.520,7.469 13.556,7.309 13.601 C 7.150 13.645,6.890 13.693,6.731 13.707 C 6.462 13.730,6.423 13.723,6.191 13.608 C 6.041 13.534,5.800 13.354,5.594 13.163 C 5.158 12.758,5.057 12.712,4.817 12.817 M5.960 14.600 C 6.081 14.643,6.248 14.678,6.330 14.679 C 6.413 14.679,6.479 14.694,6.479 14.710 C 6.478 14.727,6.443 14.839,6.400 14.960 C 6.357 15.081,6.322 15.248,6.321 15.330 C 6.321 15.412,6.306 15.479,6.290 15.479 C 6.274 15.478,6.161 15.443,6.040 15.400 C 5.919 15.357,5.753 15.322,5.670 15.321 C 5.588 15.321,5.520 15.306,5.520 15.289 C 5.520 15.271,5.556 15.155,5.600 15.030 C 5.644 14.904,5.680 14.739,5.680 14.661 C 5.680 14.583,5.694 14.521,5.710 14.521 C 5.726 14.522,5.839 14.557,5.960 14.600 " stroke="none" fill-rule="evenodd" fill="black"></path></svg>