<svg width="24" height="24" viewBox="0 0 24 24" fill="none" xmlns="http://www.w3.org/2000/svg"><path d="M19.005 2.285 C 18.804 2.344,18.703 2.422,18.517 2.664 C 18.313 2.928,17.792 3.331,17.456 3.484 C 17.078 3.656,16.583 3.771,16.247 3.764 C 15.891 3.757,15.683 3.809,15.520 3.946 C 15.339 4.099,15.267 4.266,15.270 4.532 C 15.273 4.931,15.527 5.196,15.958 5.252 C 16.157 5.277,16.206 5.325,16.417 5.700 C 16.604 6.032,16.750 6.462,16.824 6.895 C 16.894 7.309,16.997 7.502,17.221 7.641 C 17.519 7.825,17.973 7.735,18.192 7.447 C 18.294 7.314,18.300 7.282,18.296 6.903 C 18.291 6.419,18.159 5.880,17.918 5.366 C 17.749 5.005,17.736 4.960,17.803 4.960 C 17.827 4.960,17.973 4.896,18.128 4.819 C 18.283 4.741,18.415 4.682,18.421 4.689 C 18.426 4.695,18.488 4.838,18.557 5.006 C 18.762 5.500,19.314 6.289,19.588 6.479 C 19.843 6.656,20.232 6.635,20.463 6.432 C 20.655 6.264,20.731 6.100,20.731 5.859 C 20.731 5.628,20.691 5.534,20.483 5.280 C 20.120 4.838,19.870 4.366,19.741 3.877 L 19.672 3.614 19.805 3.425 C 19.919 3.264,19.939 3.201,19.939 3.008 C 19.939 2.511,19.470 2.149,19.005 2.285 M3.820 4.284 C 2.344 4.419,1.447 5.205,1.277 6.513 C 1.101 7.875,2.003 9.891,3.743 12.024 C 4.281 12.683,5.208 13.696,5.401 13.836 L 5.549 13.943 5.071 14.342 C 4.390 14.909,4.041 15.287,3.862 15.648 C 3.732 15.911,3.715 15.982,3.714 16.243 C 3.714 16.883,4.024 17.303,4.768 17.669 C 4.929 17.749,5.429 17.953,5.880 18.123 L 6.700 18.433 6.835 18.786 C 7.457 20.418,7.599 20.710,7.920 21.033 C 8.198 21.312,8.467 21.420,8.880 21.419 C 9.185 21.418,9.248 21.404,9.494 21.281 C 9.862 21.098,10.236 20.741,10.965 19.872 C 11.297 19.478,11.607 19.141,11.654 19.123 C 11.701 19.105,11.920 19.079,12.140 19.064 C 12.887 19.015,13.739 18.912,14.037 18.836 C 14.551 18.704,14.917 18.433,15.116 18.036 C 15.271 17.725,15.302 17.457,15.225 17.091 C 15.149 16.728,14.964 16.360,14.380 15.411 C 14.122 14.991,13.929 14.635,13.941 14.603 C 14.000 14.450,14.399 12.939,14.460 12.641 C 14.686 11.528,14.257 10.773,13.322 10.640 C 12.884 10.578,12.618 10.629,10.798 11.122 L 10.455 11.215 9.878 10.855 C 9.021 10.319,8.831 10.209,8.553 10.084 C 7.624 9.667,6.805 9.919,6.442 10.734 C 6.296 11.060,6.251 11.255,6.178 11.888 C 6.144 12.179,6.111 12.423,6.105 12.429 C 6.069 12.464,4.879 11.079,4.453 10.507 C 3.359 9.039,2.761 7.749,2.761 6.860 C 2.762 6.337,2.947 6.064,3.427 5.878 C 3.712 5.768,4.490 5.727,4.999 5.795 C 6.210 5.958,7.821 6.509,9.410 7.305 C 12.301 8.752,15.124 10.798,17.461 13.138 C 18.985 14.665,19.981 15.940,20.640 17.210 C 21.021 17.943,21.206 18.507,21.231 19.010 C 21.255 19.480,21.192 19.685,20.963 19.893 C 20.713 20.119,20.418 20.207,19.838 20.230 C 18.996 20.263,18.214 20.116,16.915 19.678 C 16.462 19.525,16.043 19.400,15.984 19.400 C 15.844 19.400,15.605 19.502,15.487 19.612 C 15.140 19.936,15.214 20.557,15.626 20.787 C 15.858 20.916,16.997 21.296,17.625 21.453 C 18.780 21.743,19.862 21.812,20.660 21.647 C 22.294 21.308,23.039 19.991,22.621 18.180 C 22.033 15.637,18.911 11.919,14.840 8.914 C 11.567 6.497,8.232 4.856,5.640 4.384 C 5.337 4.329,4.338 4.231,4.224 4.246 C 4.200 4.249,4.018 4.266,3.820 4.284 M8.090 11.525 C 8.226 11.594,8.622 11.828,8.969 12.045 C 9.745 12.529,9.920 12.619,10.200 12.675 C 10.500 12.735,10.732 12.695,11.771 12.405 C 12.699 12.147,13.040 12.079,13.040 12.154 C 13.040 12.199,12.784 13.200,12.562 14.020 C 12.347 14.818,12.405 15.073,13.025 16.060 C 13.517 16.843,13.774 17.306,13.743 17.355 C 13.707 17.413,13.270 17.474,12.280 17.560 C 10.850 17.685,10.844 17.688,9.965 18.740 C 9.451 19.356,8.969 19.880,8.918 19.880 C 8.871 19.880,8.709 19.507,8.381 18.640 C 8.210 18.189,8.005 17.721,7.925 17.600 C 7.706 17.269,7.458 17.124,6.460 16.746 C 5.976 16.563,5.501 16.372,5.405 16.323 L 5.230 16.233 5.405 16.052 C 5.501 15.953,5.888 15.613,6.265 15.298 C 6.641 14.982,7.032 14.632,7.133 14.520 C 7.448 14.169,7.485 14.013,7.618 12.497 C 7.682 11.763,7.744 11.400,7.804 11.400 C 7.825 11.400,7.954 11.456,8.090 11.525 " stroke="none" fill-rule="evenodd" fill="black"></path></svg>