<svg width="24" height="24" viewBox="0 0 24 24" fill="none" xmlns="http://www.w3.org/2000/svg"><path d="M9.180 1.835 C 8.990 1.923,8.904 2.012,8.822 2.210 C 8.743 2.397,8.743 2.602,8.821 2.791 C 8.905 2.994,10.959 5.060,11.180 5.163 C 11.448 5.289,11.798 5.241,12.014 5.048 C 12.217 4.869,12.292 4.484,12.179 4.209 C 12.095 4.006,10.041 1.940,9.820 1.837 C 9.617 1.742,9.385 1.741,9.180 1.835 M3.815 3.277 C 3.640 3.320,3.462 3.456,3.356 3.626 C 3.253 3.793,3.233 4.155,3.318 4.320 C 3.413 4.504,6.009 7.083,6.180 7.163 C 6.448 7.289,6.798 7.241,7.014 7.048 C 7.130 6.946,7.238 6.680,7.238 6.500 C 7.238 6.191,7.139 6.070,5.754 4.695 C 5.020 3.966,4.384 3.351,4.340 3.329 C 4.219 3.269,3.955 3.243,3.815 3.277 M12.815 5.278 C 12.640 5.320,12.462 5.455,12.356 5.626 C 12.235 5.823,12.232 6.174,12.351 6.364 C 12.485 6.579,13.045 7.111,13.209 7.178 C 13.470 7.287,13.807 7.233,14.014 7.048 C 14.130 6.946,14.238 6.680,14.238 6.500 C 14.238 6.243,14.116 6.044,13.734 5.677 C 13.447 5.401,13.341 5.325,13.191 5.287 C 12.986 5.235,12.993 5.236,12.815 5.278 M16.966 6.287 C 16.446 6.346,15.965 6.567,14.530 7.406 C 14.076 7.671,13.611 7.934,13.497 7.990 L 13.289 8.092 12.275 7.787 C 10.950 7.389,10.372 7.245,9.977 7.214 C 8.949 7.134,8.212 7.638,8.018 8.555 C 7.906 9.081,7.953 9.612,8.260 11.302 C 8.359 11.847,8.440 12.360,8.440 12.442 C 8.440 12.599,8.451 12.582,7.419 14.038 C 6.543 15.275,6.279 15.826,6.276 16.421 C 6.273 16.932,6.403 17.242,6.758 17.574 C 7.240 18.025,7.843 18.171,10.085 18.378 C 10.908 18.455,10.976 18.468,11.072 18.574 C 11.114 18.621,11.412 19.025,11.733 19.472 C 12.495 20.529,12.879 21.003,13.170 21.245 C 13.957 21.900,14.802 21.902,15.486 21.252 C 15.899 20.858,16.180 20.379,16.861 18.900 C 17.074 18.438,17.293 17.976,17.349 17.873 C 17.467 17.654,17.470 17.652,18.580 17.260 C 19.607 16.896,20.168 16.677,20.501 16.509 C 21.786 15.863,22.095 14.765,21.304 13.665 C 21.125 13.417,20.310 12.599,19.400 11.755 L 18.900 11.291 18.878 9.596 C 18.854 7.746,18.844 7.653,18.617 7.174 C 18.301 6.508,17.729 6.201,16.966 6.287 M1.815 7.277 C 1.487 7.358,1.267 7.648,1.267 8.000 C 1.267 8.287,1.333 8.399,1.748 8.808 C 2.177 9.232,2.439 9.325,2.790 9.178 C 2.988 9.096,3.077 9.010,3.165 8.820 C 3.255 8.624,3.260 8.405,3.178 8.209 C 3.112 8.050,2.579 7.484,2.380 7.362 C 2.235 7.273,1.985 7.235,1.815 7.277 M17.323 7.910 C 17.355 8.009,17.381 8.653,17.400 9.800 C 17.422 11.141,17.442 11.577,17.485 11.700 C 17.643 12.144,17.712 12.222,19.157 13.600 C 20.040 14.441,20.250 14.682,20.232 14.836 C 20.208 15.047,19.786 15.245,18.040 15.867 C 16.957 16.252,16.741 16.353,16.471 16.596 C 16.199 16.840,16.049 17.091,15.633 17.996 C 14.885 19.622,14.532 20.240,14.350 20.240 C 14.179 20.240,13.612 19.553,12.598 18.120 C 12.085 17.394,11.787 17.154,11.234 17.022 C 11.094 16.989,10.503 16.915,9.921 16.859 C 8.774 16.747,8.081 16.643,7.897 16.555 C 7.831 16.524,7.775 16.461,7.768 16.413 C 7.741 16.228,8.076 15.684,9.104 14.240 C 10.060 12.899,10.065 12.875,9.721 10.996 C 9.514 9.866,9.417 9.106,9.455 8.908 C 9.497 8.689,9.603 8.651,9.990 8.717 C 10.329 8.773,11.144 8.999,12.180 9.322 C 12.815 9.520,12.888 9.534,13.280 9.536 C 13.809 9.539,13.900 9.504,14.904 8.916 C 16.299 8.098,16.955 7.764,17.168 7.761 C 17.258 7.760,17.284 7.785,17.323 7.910 M4.180 9.835 C 3.990 9.923,3.904 10.012,3.822 10.210 C 3.740 10.406,3.745 10.624,3.836 10.820 C 3.883 10.922,4.222 11.288,4.765 11.825 C 5.557 12.608,5.634 12.673,5.810 12.710 C 6.389 12.832,6.832 12.389,6.710 11.810 C 6.673 11.634,6.608 11.557,5.825 10.765 C 5.288 10.222,4.922 9.883,4.820 9.836 C 4.617 9.742,4.384 9.741,4.180 9.835 " stroke="none" fill-rule="evenodd" fill="black"></path></svg>