<svg width="24" height="24" viewBox="0 0 24 24" fill="none" xmlns="http://www.w3.org/2000/svg"><path d="M11.815 3.277 C 11.638 3.321,11.461 3.456,11.353 3.631 C 11.260 3.780,11.260 3.784,11.260 5.200 C 11.260 6.616,11.260 6.620,11.353 6.769 C 11.710 7.343,12.576 7.212,12.716 6.562 C 12.772 6.298,12.773 4.086,12.717 3.841 C 12.623 3.432,12.215 3.177,11.815 3.277 M6.007 5.686 C 5.795 5.791,5.637 6.017,5.611 6.255 C 5.571 6.601,5.620 6.670,6.615 7.672 C 7.124 8.185,7.601 8.642,7.676 8.689 C 7.866 8.808,8.217 8.805,8.414 8.684 C 8.699 8.508,8.824 8.199,8.751 7.851 C 8.713 7.673,8.649 7.598,7.765 6.705 C 7.158 6.092,6.763 5.724,6.660 5.676 C 6.448 5.578,6.219 5.581,6.007 5.686 M17.340 5.676 C 17.170 5.756,15.373 7.537,15.278 7.720 C 15.250 7.775,15.227 7.921,15.227 8.044 C 15.227 8.541,15.660 8.875,16.151 8.754 C 16.323 8.712,16.425 8.623,17.310 7.746 C 18.364 6.700,18.430 6.610,18.390 6.260 C 18.334 5.758,17.800 5.462,17.340 5.676 M3.815 11.278 C 3.331 11.393,3.098 12.004,3.383 12.408 C 3.611 12.730,3.651 12.738,5.071 12.753 C 6.539 12.767,6.692 12.748,6.919 12.521 C 7.318 12.122,7.131 11.423,6.589 11.286 C 6.382 11.234,4.027 11.227,3.815 11.278 M17.415 11.278 C 16.931 11.393,16.698 12.004,16.983 12.408 C 17.211 12.730,17.251 12.738,18.671 12.753 C 20.139 12.767,20.292 12.748,20.519 12.521 C 20.918 12.122,20.731 11.423,20.189 11.286 C 19.982 11.234,17.627 11.227,17.415 11.278 M7.940 15.219 C 7.918 15.227,7.846 15.245,7.780 15.260 C 7.619 15.296,5.783 17.111,5.676 17.340 C 5.462 17.801,5.758 18.334,6.260 18.390 C 6.610 18.430,6.700 18.364,7.747 17.310 C 8.645 16.407,8.713 16.327,8.750 16.151 C 8.823 15.803,8.703 15.493,8.429 15.327 C 8.305 15.252,8.023 15.189,7.940 15.219 M15.775 15.238 C 15.600 15.280,15.422 15.415,15.316 15.586 C 15.195 15.783,15.192 16.134,15.311 16.324 C 15.358 16.399,15.815 16.876,16.328 17.385 C 17.330 18.380,17.399 18.429,17.745 18.389 C 18.242 18.334,18.537 17.798,18.324 17.340 C 18.276 17.237,17.908 16.842,17.295 16.235 C 16.370 15.319,16.333 15.288,16.128 15.245 C 16.011 15.220,15.912 15.202,15.908 15.204 C 15.904 15.206,15.844 15.222,15.775 15.238 M11.815 16.877 C 11.638 16.921,11.461 17.056,11.353 17.231 C 11.260 17.380,11.260 17.384,11.260 18.800 C 11.260 20.216,11.260 20.220,11.353 20.369 C 11.710 20.943,12.576 20.812,12.716 20.162 C 12.772 19.898,12.773 17.686,12.717 17.441 C 12.623 17.032,12.215 16.777,11.815 16.877 " stroke="none" fill-rule="evenodd" fill="black"></path></svg>