<svg width="24" height="24" viewBox="0 0 24 24" fill="none" xmlns="http://www.w3.org/2000/svg"><path d="M4.767 1.280 C 4.574 1.325,4.415 1.454,4.028 1.880 C 2.638 3.408,1.700 5.379,1.380 7.440 C 1.231 8.405,1.232 9.760,1.383 10.737 C 1.649 12.456,2.358 14.128,3.418 15.538 C 3.844 16.105,4.528 16.830,4.709 16.906 C 5.197 17.111,5.731 16.753,5.731 16.220 C 5.731 15.951,5.658 15.823,5.268 15.409 C 4.581 14.679,4.133 14.033,3.699 13.146 C 3.059 11.841,2.760 10.544,2.760 9.080 C 2.760 7.618,3.068 6.283,3.701 5.007 C 4.152 4.097,4.425 3.707,5.397 2.588 C 5.652 2.294,5.709 2.133,5.661 1.846 C 5.632 1.673,5.447 1.426,5.286 1.345 C 5.138 1.269,4.924 1.243,4.767 1.280 M19.060 1.340 C 19.038 1.347,18.971 1.364,18.911 1.377 C 18.764 1.409,18.521 1.628,18.454 1.788 C 18.385 1.954,18.385 2.207,18.455 2.371 C 18.485 2.442,18.634 2.635,18.785 2.800 C 19.455 3.530,19.870 4.137,20.304 5.020 C 20.940 6.316,21.240 7.617,21.240 9.080 C 21.240 10.545,20.943 11.832,20.302 13.140 C 19.875 14.012,19.441 14.648,18.801 15.339 C 18.418 15.753,18.350 15.872,18.346 16.139 C 18.339 16.645,18.842 17.004,19.333 16.842 C 19.654 16.736,20.642 15.553,21.239 14.560 C 22.661 12.191,23.098 9.260,22.436 6.530 C 22.047 4.928,21.255 3.368,20.206 2.140 C 19.932 1.820,19.583 1.473,19.483 1.423 C 19.372 1.367,19.125 1.318,19.060 1.340 M7.660 4.339 C 7.638 4.347,7.572 4.364,7.513 4.376 C 7.187 4.448,6.334 5.494,5.909 6.344 C 5.465 7.230,5.274 8.048,5.274 9.060 C 5.273 10.540,5.756 11.860,6.722 13.021 C 7.126 13.507,7.405 13.746,7.621 13.792 C 8.193 13.914,8.651 13.449,8.511 12.886 C 8.478 12.752,8.390 12.628,8.132 12.352 C 7.188 11.340,6.760 10.314,6.760 9.060 C 6.760 7.817,7.184 6.790,8.111 5.790 C 8.468 5.404,8.550 5.213,8.484 4.920 C 8.441 4.728,8.278 4.502,8.128 4.425 C 8.015 4.367,7.729 4.314,7.660 4.339 M16.140 4.398 C 15.779 4.484,15.560 4.754,15.560 5.111 C 15.560 5.398,15.600 5.478,15.921 5.824 C 16.805 6.777,17.240 7.845,17.240 9.060 C 17.240 10.297,16.808 11.346,15.899 12.318 C 15.561 12.680,15.520 12.759,15.520 13.049 C 15.520 13.456,15.825 13.760,16.233 13.760 C 16.344 13.760,16.482 13.742,16.540 13.720 C 16.767 13.634,17.419 12.910,17.774 12.349 C 18.316 11.493,18.649 10.489,18.718 9.500 C 18.826 7.946,18.372 6.499,17.373 5.214 C 17.042 4.788,16.680 4.454,16.512 4.421 C 16.439 4.406,16.353 4.388,16.320 4.382 C 16.287 4.375,16.206 4.382,16.140 4.398 M11.606 6.361 C 10.750 6.478,10.021 6.992,9.568 7.800 C 9.168 8.513,9.168 9.644,9.567 10.360 C 9.747 10.681,10.049 11.034,10.319 11.240 C 10.449 11.339,10.556 11.436,10.558 11.456 C 10.559 11.475,9.829 13.788,8.935 16.596 C 8.041 19.403,7.294 21.768,7.274 21.851 C 7.190 22.215,7.444 22.621,7.814 22.714 C 8.016 22.765,8.142 22.748,8.360 22.638 C 8.457 22.590,9.038 21.931,10.240 20.506 C 11.197 19.372,11.989 18.444,12.000 18.444 C 12.011 18.444,12.803 19.372,13.760 20.506 C 14.962 21.931,15.543 22.590,15.640 22.638 C 15.858 22.748,15.984 22.765,16.186 22.714 C 16.556 22.621,16.810 22.215,16.726 21.851 C 16.706 21.768,15.959 19.403,15.065 16.596 C 14.171 13.788,13.441 11.475,13.442 11.456 C 13.444 11.436,13.551 11.339,13.681 11.240 C 13.951 11.034,14.253 10.681,14.433 10.360 C 14.733 9.822,14.820 8.986,14.643 8.340 C 14.393 7.429,13.611 6.651,12.720 6.426 C 12.418 6.349,11.911 6.320,11.606 6.361 M12.552 7.955 C 12.771 8.068,13.012 8.309,13.125 8.528 C 13.246 8.764,13.272 9.202,13.183 9.472 C 13.017 9.970,12.529 10.320,12.000 10.320 C 11.175 10.320,10.577 9.519,10.801 8.713 C 10.893 8.381,11.282 7.984,11.614 7.881 C 11.833 7.814,12.358 7.855,12.552 7.955 M12.494 13.444 C 12.753 14.260,12.957 14.949,12.947 14.974 C 12.915 15.051,12.034 16.080,12.000 16.080 C 11.966 16.080,11.085 15.051,11.053 14.974 C 11.033 14.923,11.963 11.960,12.000 11.960 C 12.013 11.960,12.235 12.628,12.494 13.444 M10.758 16.964 C 10.893 17.121,10.998 17.264,10.992 17.283 C 10.972 17.340,9.904 18.598,9.889 18.582 C 9.881 18.574,10.002 18.166,10.159 17.674 C 10.494 16.618,10.473 16.680,10.495 16.680 C 10.505 16.680,10.623 16.808,10.758 16.964 M13.836 17.654 C 13.995 18.157,14.119 18.575,14.111 18.582 C 14.096 18.598,13.028 17.340,13.008 17.283 C 12.990 17.231,13.487 16.671,13.519 16.708 C 13.535 16.725,13.677 17.151,13.836 17.654 " stroke="none" fill-rule="evenodd" fill="black"></path></svg>