<svg width="24" height="24" viewBox="0 0 24 24" fill="none" xmlns="http://www.w3.org/2000/svg"><path d="M11.378 1.283 C 9.961 1.386,8.491 1.948,7.328 2.834 C 4.158 5.247,3.320 9.742,5.406 13.149 C 5.791 13.779,6.414 14.525,6.659 14.650 C 6.854 14.749,7.172 14.757,7.346 14.667 C 7.587 14.543,7.761 14.244,7.759 13.960 C 7.758 13.790,7.618 13.553,7.327 13.228 C 6.626 12.446,6.112 11.419,5.878 10.334 C 5.770 9.829,5.729 8.788,5.798 8.267 C 6.155 5.570,8.104 3.454,10.766 2.873 C 11.121 2.795,11.297 2.782,12.000 2.782 C 12.703 2.782,12.879 2.795,13.234 2.873 C 14.896 3.236,16.279 4.178,17.207 5.580 C 17.728 6.368,18.074 7.303,18.202 8.267 C 18.271 8.788,18.230 9.829,18.122 10.334 C 17.889 11.413,17.362 12.465,16.665 13.239 C 16.365 13.573,16.265 13.788,16.289 14.045 C 16.334 14.504,16.780 14.804,17.237 14.681 C 17.438 14.627,17.661 14.413,18.085 13.866 C 19.288 12.317,19.857 10.449,19.719 8.504 C 19.469 4.986,16.935 2.094,13.496 1.402 C 13.141 1.331,12.123 1.231,11.900 1.246 C 11.856 1.249,11.621 1.266,11.378 1.283 M11.440 4.104 C 10.636 4.252,10.286 4.357,9.821 4.590 C 8.385 5.310,7.377 6.683,7.117 8.274 C 6.996 9.013,7.097 10.046,7.360 10.767 C 7.592 11.402,8.059 12.146,8.455 12.512 C 8.848 12.874,9.368 12.813,9.625 12.375 C 9.714 12.223,9.727 12.162,9.712 11.959 C 9.694 11.706,9.678 11.678,9.268 11.175 C 9.043 10.901,8.755 10.331,8.653 9.960 C 8.598 9.761,8.581 9.550,8.581 9.060 C 8.580 8.510,8.593 8.375,8.672 8.103 C 8.937 7.187,9.617 6.364,10.460 5.940 C 10.998 5.669,11.348 5.589,12.000 5.589 C 12.652 5.589,13.002 5.669,13.540 5.940 C 14.383 6.364,15.063 7.187,15.328 8.103 C 15.407 8.375,15.420 8.510,15.419 9.060 C 15.419 9.550,15.402 9.761,15.347 9.960 C 15.241 10.344,14.954 10.907,14.724 11.180 C 14.405 11.560,14.316 11.728,14.314 11.947 C 14.313 12.289,14.447 12.509,14.740 12.644 C 15.193 12.853,15.581 12.618,16.102 11.820 C 16.678 10.937,16.923 10.115,16.926 9.058 C 16.934 6.687,15.325 4.689,13.000 4.181 C 12.710 4.117,11.651 4.065,11.440 4.104 M11.484 6.823 C 10.980 6.959,10.451 7.384,10.219 7.841 C 9.779 8.711,10.055 9.841,10.836 10.369 C 10.937 10.437,11.024 10.496,11.029 10.499 C 11.034 10.502,10.201 13.015,9.178 16.083 C 8.155 19.150,7.300 21.737,7.279 21.831 C 7.113 22.550,7.999 23.041,8.520 22.520 C 8.658 22.382,8.714 22.233,9.358 20.306 L 10.047 18.240 12.000 18.240 L 13.953 18.240 14.642 20.306 C 15.286 22.233,15.342 22.382,15.480 22.520 C 16.001 23.041,16.887 22.550,16.721 21.831 C 16.700 21.737,15.845 19.150,14.822 16.083 C 13.799 13.015,12.966 10.502,12.971 10.499 C 13.362 10.242,13.513 10.096,13.705 9.791 C 14.042 9.258,14.082 8.482,13.802 7.891 C 13.654 7.578,13.265 7.166,12.968 7.007 C 12.516 6.767,11.955 6.697,11.484 6.823 M12.325 8.385 C 12.662 8.707,12.459 9.240,12.000 9.240 C 11.668 9.240,11.412 8.905,11.522 8.614 C 11.574 8.478,11.709 8.325,11.820 8.276 C 11.961 8.214,12.201 8.266,12.325 8.385 M12.730 14.570 C 13.121 15.742,13.440 16.714,13.440 16.730 C 13.440 16.747,12.792 16.760,12.000 16.760 C 11.208 16.760,10.560 16.747,10.560 16.730 C 10.560 16.671,11.980 12.440,12.000 12.440 C 12.011 12.440,12.340 13.399,12.730 14.570 " stroke="none" fill-rule="evenodd" fill="black"></path></svg>