<svg width="24" height="24" viewBox="0 0 24 24" fill="none" xmlns="http://www.w3.org/2000/svg"><path d="M5.826 1.286 C 5.495 1.360,5.295 1.606,5.255 1.989 L 5.230 2.229 4.745 2.274 C 3.920 2.350,3.367 2.552,2.774 2.992 C 2.025 3.549,1.529 4.319,1.340 5.220 C 1.185 5.961,1.227 7.888,1.418 8.808 C 1.865 10.954,3.189 12.796,5.095 13.923 C 5.875 14.384,6.966 14.769,7.840 14.891 L 8.220 14.944 8.245 16.242 C 8.275 17.798,8.324 18.173,8.600 18.948 C 9.255 20.789,10.883 22.211,12.800 22.618 C 13.697 22.808,15.337 22.790,16.140 22.581 C 17.434 22.245,18.608 21.290,19.222 20.074 L 19.396 19.729 19.666 19.682 C 20.396 19.555,21.208 19.121,21.703 18.594 C 21.953 18.328,22.101 18.122,22.279 17.792 C 22.600 17.197,22.729 16.682,22.729 16.000 C 22.729 15.318,22.600 14.803,22.279 14.208 C 21.922 13.547,21.451 13.077,20.788 12.719 C 20.197 12.400,19.680 12.271,19.000 12.271 C 18.320 12.271,17.803 12.400,17.212 12.719 C 16.222 13.253,15.523 14.213,15.319 15.320 C 15.257 15.654,15.257 16.346,15.319 16.680 C 15.497 17.644,16.098 18.566,16.893 19.094 C 17.136 19.255,17.668 19.520,17.749 19.520 C 17.777 19.520,17.800 19.535,17.800 19.553 C 17.800 19.633,17.517 20.002,17.254 20.265 C 16.893 20.626,16.409 20.926,15.920 21.091 L 15.540 21.219 14.440 21.220 C 13.489 21.220,13.299 21.210,13.040 21.144 C 11.449 20.740,10.260 19.551,9.856 17.960 C 9.789 17.694,9.780 17.505,9.780 16.302 L 9.780 14.944 10.125 14.895 C 11.292 14.726,12.499 14.215,13.500 13.466 C 13.911 13.158,14.638 12.431,14.946 12.020 C 15.717 10.990,16.200 9.829,16.381 8.573 C 16.475 7.918,16.448 5.423,16.343 5.040 C 16.172 4.423,15.803 3.794,15.343 3.340 C 14.742 2.746,13.956 2.363,13.202 2.298 C 12.759 2.259,12.784 2.277,12.734 1.962 C 12.662 1.504,12.412 1.271,11.996 1.271 C 11.744 1.271,11.531 1.384,11.380 1.597 L 11.260 1.767 11.260 2.993 C 11.260 4.215,11.260 4.221,11.355 4.373 C 11.498 4.602,11.717 4.731,11.970 4.733 C 12.405 4.738,12.660 4.505,12.734 4.036 L 12.779 3.752 13.009 3.778 C 13.507 3.834,13.913 4.038,14.299 4.423 C 14.564 4.688,14.695 4.892,14.846 5.270 C 14.933 5.489,14.938 5.559,14.952 6.746 C 14.965 7.865,14.957 8.043,14.883 8.481 C 14.450 11.031,12.504 12.970,9.940 13.407 C 9.373 13.503,8.456 13.493,7.867 13.384 C 6.999 13.223,6.011 12.794,5.320 12.278 C 3.933 11.242,3.076 9.825,2.817 8.140 C 2.736 7.616,2.739 5.779,2.821 5.458 C 2.922 5.060,3.114 4.728,3.421 4.421 C 3.854 3.988,4.386 3.760,4.963 3.760 L 5.229 3.760 5.254 4.005 C 5.283 4.279,5.385 4.475,5.566 4.604 C 5.994 4.909,6.606 4.674,6.716 4.162 C 6.772 3.901,6.773 2.083,6.717 1.841 C 6.622 1.428,6.243 1.192,5.826 1.286 M19.578 13.821 C 19.949 13.918,20.274 14.112,20.581 14.419 C 21.041 14.879,21.240 15.356,21.240 16.000 C 21.240 16.644,21.041 17.121,20.581 17.581 C 20.121 18.041,19.644 18.240,19.000 18.240 C 18.356 18.240,17.879 18.041,17.419 17.581 C 16.959 17.121,16.760 16.644,16.760 16.000 C 16.760 15.356,16.959 14.879,17.419 14.419 C 17.719 14.118,18.050 13.919,18.404 13.823 C 18.692 13.746,19.285 13.745,19.578 13.821 " stroke="none" fill-rule="evenodd" fill="black"></path></svg>