<svg width="24" height="24" viewBox="0 0 24 24" fill="none" xmlns="http://www.w3.org/2000/svg"><path d="M8.960 1.280 C 6.960 1.332,5.848 1.469,4.900 1.779 C 3.060 2.382,1.958 3.688,1.563 5.734 C 1.311 7.042,1.267 7.973,1.267 12.000 C 1.267 16.027,1.311 16.958,1.563 18.266 C 2.013 20.599,3.401 21.987,5.734 22.437 C 6.942 22.670,7.825 22.716,11.640 22.746 C 15.065 22.773,15.760 22.750,16.568 22.582 C 17.710 22.344,18.783 21.852,19.740 21.127 C 20.092 20.860,20.772 20.187,21.059 19.820 C 22.076 18.522,22.608 17.122,22.725 15.440 C 22.780 14.655,22.746 8.891,22.680 7.820 C 22.517 5.152,21.997 3.723,20.829 2.728 C 19.796 1.848,18.542 1.467,16.200 1.321 C 15.315 1.266,10.534 1.239,8.960 1.280 M16.787 2.853 C 18.322 3.021,19.158 3.285,19.787 3.801 C 20.701 4.552,21.067 5.666,21.199 8.100 C 21.245 8.941,21.254 14.239,21.210 14.241 C 21.194 14.242,20.756 14.259,20.238 14.278 C 18.838 14.331,18.319 14.439,17.460 14.857 C 16.959 15.101,16.504 15.414,16.051 15.825 L 15.738 16.109 15.734 15.957 C 15.729 15.744,15.602 15.520,15.408 15.383 C 15.270 15.286,15.203 15.267,15.005 15.267 C 14.782 15.267,14.745 15.282,14.386 15.514 C 13.953 15.795,13.493 16.003,13.023 16.131 C 12.747 16.206,12.597 16.219,12.000 16.219 C 11.403 16.219,11.253 16.206,10.977 16.131 C 10.495 16.000,10.061 15.804,9.623 15.520 C 9.255 15.281,9.218 15.267,8.995 15.267 C 8.797 15.267,8.730 15.286,8.592 15.383 C 8.374 15.538,8.262 15.759,8.266 16.029 C 8.270 16.323,8.394 16.493,8.805 16.768 C 9.788 17.424,10.797 17.728,12.000 17.728 C 13.136 17.728,14.052 17.471,15.026 16.879 L 15.273 16.729 15.130 16.952 C 14.937 17.254,14.667 17.834,14.547 18.202 C 14.387 18.692,14.316 19.234,14.278 20.238 C 14.259 20.756,14.242 21.195,14.241 21.214 C 14.239 21.264,7.951 21.218,7.400 21.164 C 5.558 20.983,4.687 20.684,3.999 19.997 C 3.340 19.337,3.025 18.449,2.852 16.760 C 2.788 16.136,2.780 15.618,2.780 12.000 C 2.780 8.382,2.788 7.864,2.852 7.240 C 3.025 5.550,3.340 4.663,4.001 4.001 C 4.665 3.338,5.593 3.009,7.220 2.862 C 8.207 2.772,8.227 2.772,12.400 2.782 C 15.524 2.790,16.323 2.803,16.787 2.853 M8.767 9.043 C 8.694 9.066,8.553 9.165,8.454 9.264 C 7.856 9.862,7.861 11.143,8.463 11.745 C 8.950 12.232,9.595 11.972,9.889 11.169 C 9.955 10.988,9.973 10.847,9.973 10.500 C 9.973 10.005,9.901 9.741,9.680 9.419 C 9.453 9.091,9.096 8.944,8.767 9.043 M14.767 9.043 C 14.694 9.066,14.553 9.165,14.454 9.264 C 13.856 9.862,13.861 11.143,14.463 11.745 C 14.950 12.232,15.595 11.972,15.889 11.169 C 15.955 10.988,15.973 10.847,15.973 10.500 C 15.973 10.005,15.901 9.741,15.680 9.419 C 15.453 9.091,15.096 8.944,14.767 9.043 M21.179 15.950 C 21.078 16.674,20.762 17.532,20.328 18.260 C 19.870 19.029,19.027 19.872,18.260 20.328 C 17.528 20.764,16.675 21.078,15.944 21.179 L 15.749 21.207 15.771 20.333 C 15.795 19.362,15.855 18.941,16.035 18.480 C 16.473 17.355,17.356 16.471,18.474 16.038 C 18.999 15.834,19.455 15.773,20.512 15.765 L 21.205 15.760 21.179 15.950 " stroke="none" fill-rule="evenodd" fill="black"></path></svg>