<svg width="24" height="24" viewBox="0 0 24 24" fill="none" xmlns="http://www.w3.org/2000/svg"><path d="M8.960 1.280 C 6.960 1.332,5.848 1.469,4.900 1.779 C 3.060 2.382,1.958 3.688,1.563 5.734 C 1.311 7.042,1.267 7.973,1.267 12.000 C 1.267 16.027,1.311 16.958,1.563 18.266 C 2.013 20.599,3.401 21.987,5.734 22.437 C 6.942 22.670,7.825 22.716,11.640 22.746 C 15.065 22.773,15.760 22.750,16.568 22.582 C 17.710 22.344,18.783 21.852,19.740 21.127 C 20.092 20.860,20.772 20.187,21.059 19.820 C 22.071 18.528,22.606 17.127,22.725 15.460 C 22.779 14.696,22.745 8.885,22.680 7.820 C 22.517 5.153,21.997 3.723,20.829 2.728 C 19.796 1.848,18.542 1.467,16.200 1.321 C 15.315 1.266,10.534 1.239,8.960 1.280 M16.787 2.853 C 18.322 3.021,19.158 3.285,19.787 3.801 C 20.701 4.552,21.067 5.666,21.199 8.100 C 21.245 8.941,21.254 14.239,21.210 14.241 C 21.194 14.242,20.756 14.259,20.238 14.278 C 18.837 14.331,18.319 14.439,17.460 14.858 C 16.326 15.410,15.410 16.326,14.858 17.460 C 14.439 18.319,14.331 18.837,14.278 20.238 C 14.259 20.756,14.242 21.195,14.241 21.214 C 14.239 21.264,7.951 21.218,7.400 21.164 C 5.558 20.983,4.687 20.684,3.999 19.997 C 3.340 19.337,3.025 18.449,2.852 16.760 C 2.788 16.136,2.780 15.618,2.780 12.000 C 2.780 8.382,2.788 7.864,2.852 7.240 C 3.025 5.550,3.340 4.663,4.001 4.001 C 4.665 3.338,5.593 3.009,7.220 2.862 C 8.207 2.772,8.227 2.772,12.400 2.782 C 15.524 2.790,16.323 2.803,16.787 2.853 M21.179 15.950 C 21.078 16.674,20.762 17.532,20.328 18.260 C 19.870 19.029,19.027 19.872,18.260 20.328 C 17.528 20.764,16.675 21.078,15.944 21.179 L 15.749 21.207 15.771 20.333 C 15.795 19.362,15.855 18.941,16.035 18.480 C 16.473 17.355,17.356 16.471,18.474 16.038 C 18.999 15.834,19.455 15.773,20.512 15.765 L 21.205 15.760 21.179 15.950 " stroke="none" fill-rule="evenodd" fill="black"></path></svg>