<svg width="24" height="24" viewBox="0 0 24 24" fill="none" xmlns="http://www.w3.org/2000/svg"><path d="M11.320 1.281 C 7.041 1.525,3.252 4.409,1.843 8.497 C 1.180 10.418,1.082 12.560,1.564 14.550 C 2.505 18.428,5.572 21.495,9.450 22.436 C 10.117 22.598,10.631 22.673,11.379 22.717 C 12.514 22.785,13.053 22.661,13.760 22.169 C 14.070 21.953,21.639 14.418,22.020 13.945 C 22.631 13.187,22.791 12.601,22.717 11.379 C 22.673 10.631,22.598 10.117,22.436 9.450 C 21.425 5.282,17.985 2.095,13.742 1.398 C 13.334 1.331,12.074 1.229,11.880 1.247 C 11.847 1.250,11.595 1.265,11.320 1.281 M13.146 2.822 C 14.201 2.960,15.125 3.237,16.060 3.696 C 17.276 4.293,18.254 5.066,19.153 6.140 C 20.231 7.428,21.000 9.236,21.190 10.930 C 21.220 11.199,21.217 11.240,21.162 11.242 C 21.128 11.243,20.488 11.260,19.740 11.279 C 18.288 11.317,17.663 11.377,16.960 11.547 C 15.222 11.967,13.576 13.163,12.509 14.780 C 12.068 15.448,11.723 16.230,11.547 16.960 C 11.349 17.778,11.298 18.478,11.242 21.142 C 11.240 21.222,11.227 21.224,10.930 21.190 C 9.236 21.000,7.428 20.231,6.140 19.153 C 4.272 17.590,3.134 15.531,2.822 13.146 C 2.699 12.214,2.756 10.974,2.966 10.002 C 3.177 9.020,3.703 7.775,4.268 6.920 C 5.750 4.677,8.131 3.188,10.820 2.823 C 11.380 2.746,12.569 2.746,13.146 2.822 M20.957 12.890 C 20.839 13.063,13.058 20.842,12.884 20.961 L 12.749 21.054 12.773 19.797 C 12.811 17.828,12.924 17.194,13.408 16.220 C 13.739 15.556,14.010 15.186,14.598 14.597 C 15.185 14.008,15.545 13.745,16.220 13.408 C 16.883 13.078,17.449 12.921,18.263 12.842 C 18.927 12.777,18.987 12.774,20.053 12.767 L 21.045 12.760 20.957 12.890 " stroke="none" fill-rule="evenodd" fill="black"></path></svg>