<svg width="24" height="24" viewBox="0 0 24 24" fill="none" xmlns="http://www.w3.org/2000/svg"><path d="M11.320 1.281 C 7.041 1.525,3.252 4.409,1.843 8.497 C 1.180 10.418,1.082 12.560,1.564 14.550 C 2.505 18.428,5.572 21.495,9.450 22.436 C 10.117 22.598,10.631 22.673,11.379 22.717 C 12.514 22.785,13.053 22.661,13.760 22.169 C 14.070 21.953,21.639 14.418,22.020 13.945 C 22.631 13.187,22.791 12.601,22.717 11.379 C 22.673 10.631,22.598 10.117,22.436 9.450 C 21.425 5.282,17.985 2.095,13.742 1.398 C 13.334 1.331,12.074 1.229,11.880 1.247 C 11.847 1.250,11.595 1.265,11.320 1.281 M13.146 2.822 C 14.201 2.960,15.125 3.237,16.060 3.696 C 17.276 4.293,18.254 5.066,19.153 6.140 C 20.231 7.428,21.000 9.236,21.190 10.930 C 21.220 11.199,21.217 11.240,21.162 11.242 C 21.128 11.243,20.488 11.260,19.740 11.279 C 18.288 11.317,17.663 11.377,16.960 11.547 C 15.153 11.984,13.453 13.256,12.381 14.976 C 12.278 15.141,12.164 15.285,12.127 15.296 C 11.658 15.431,10.087 15.424,9.440 15.284 C 8.931 15.173,8.748 15.176,8.537 15.300 C 7.951 15.643,8.092 16.464,8.770 16.658 C 9.347 16.823,10.545 16.944,11.174 16.900 C 11.544 16.875,11.566 16.878,11.547 16.947 C 11.361 17.620,11.298 18.486,11.242 21.142 C 11.240 21.222,11.227 21.224,10.930 21.190 C 9.236 21.000,7.428 20.231,6.140 19.153 C 4.272 17.590,3.134 15.531,2.822 13.146 C 2.699 12.214,2.756 10.974,2.966 10.002 C 3.177 9.020,3.703 7.775,4.268 6.920 C 5.750 4.677,8.131 3.188,10.820 2.823 C 11.380 2.746,12.569 2.746,13.146 2.822 M13.950 8.411 C 13.201 8.865,13.381 10.490,14.245 11.080 C 14.423 11.201,14.480 11.219,14.697 11.219 C 15.012 11.220,15.214 11.099,15.368 10.814 C 15.699 10.207,15.538 9.238,15.013 8.676 C 14.682 8.323,14.267 8.219,13.950 8.411 M8.150 9.971 C 7.386 10.434,7.608 12.139,8.500 12.662 C 9.346 13.158,10.021 12.133,9.634 10.940 C 9.545 10.666,9.257 10.217,9.092 10.095 C 8.765 9.854,8.419 9.808,8.150 9.971 M20.957 12.890 C 20.839 13.063,13.058 20.842,12.884 20.961 L 12.749 21.054 12.773 19.797 C 12.811 17.828,12.924 17.194,13.408 16.220 C 13.739 15.556,14.010 15.186,14.598 14.597 C 15.185 14.008,15.545 13.745,16.220 13.408 C 16.883 13.078,17.449 12.921,18.263 12.842 C 18.927 12.777,18.987 12.774,20.053 12.767 L 21.045 12.760 20.957 12.890 " stroke="none" fill-rule="evenodd" fill="black"></path></svg>