<svg width="24" height="24" viewBox="0 0 24 24" fill="none" xmlns="http://www.w3.org/2000/svg"><path d="M11.320 1.281 C 7.041 1.525,3.252 4.409,1.843 8.497 C 1.180 10.418,1.082 12.560,1.564 14.550 C 2.505 18.428,5.572 21.495,9.450 22.436 C 11.106 22.837,12.894 22.837,14.550 22.436 C 18.428 21.495,21.495 18.428,22.436 14.550 C 22.837 12.894,22.837 11.106,22.436 9.450 C 21.425 5.282,17.985 2.095,13.742 1.398 C 13.334 1.331,12.074 1.229,11.880 1.247 C 11.847 1.250,11.595 1.265,11.320 1.281 M13.146 2.822 C 14.201 2.960,15.125 3.237,16.060 3.696 C 18.877 5.079,20.768 7.722,21.178 10.854 C 21.301 11.786,21.244 13.026,21.034 13.998 C 20.745 15.343,20.003 16.855,19.121 17.900 C 18.247 18.935,17.240 19.726,16.060 20.304 C 14.761 20.940,13.462 21.240,12.000 21.240 C 10.538 21.240,9.236 20.940,7.940 20.304 C 5.123 18.921,3.232 16.278,2.822 13.146 C 2.699 12.214,2.756 10.974,2.966 10.002 C 3.177 9.020,3.703 7.775,4.268 6.920 C 5.750 4.677,8.131 3.188,10.820 2.823 C 11.380 2.746,12.569 2.746,13.146 2.822 M11.579 7.280 C 9.750 7.440,8.200 8.632,7.540 10.384 C 7.182 11.335,7.182 12.665,7.540 13.616 C 8.042 14.949,9.049 15.958,10.376 16.457 C 11.340 16.820,12.660 16.820,13.624 16.457 C 14.951 15.958,15.958 14.949,16.460 13.616 C 16.819 12.661,16.818 11.336,16.457 10.376 C 15.695 8.348,13.716 7.092,11.579 7.280 M12.980 8.894 C 13.508 9.068,13.854 9.286,14.284 9.716 C 14.712 10.143,14.928 10.485,15.108 11.020 C 15.209 11.316,15.217 11.389,15.217 12.000 C 15.217 12.611,15.209 12.684,15.108 12.980 C 14.928 13.515,14.712 13.857,14.284 14.284 C 13.857 14.712,13.515 14.928,12.980 15.108 C 12.684 15.209,12.611 15.217,12.000 15.217 C 11.389 15.217,11.316 15.209,11.020 15.108 C 10.485 14.928,10.143 14.712,9.716 14.284 C 9.288 13.857,9.072 13.515,8.892 12.980 C 8.791 12.684,8.783 12.611,8.783 12.000 C 8.783 11.389,8.791 11.316,8.892 11.020 C 9.072 10.485,9.288 10.143,9.716 9.716 C 10.433 8.999,11.066 8.750,12.100 8.775 C 12.572 8.787,12.710 8.806,12.980 8.894 " stroke="none" fill="black" fill-rule="evenodd"></path></svg>