<svg width="24" height="24" viewBox="0 0 24 24" fill="none" xmlns="http://www.w3.org/2000/svg"><path d="M9.826 1.284 C 9.476 1.366,9.267 1.636,9.267 2.003 C 9.267 2.281,9.387 2.496,9.627 2.645 L 9.780 2.740 12.000 2.740 L 14.220 2.740 14.369 2.647 C 14.943 2.290,14.812 1.424,14.162 1.284 C 13.910 1.230,10.056 1.230,9.826 1.284 M11.340 3.281 C 7.073 3.553,3.439 6.660,2.499 10.840 C 2.187 12.227,2.187 13.773,2.499 15.160 C 3.355 18.967,6.486 21.944,10.320 22.597 C 14.153 23.250,17.956 21.620,20.107 18.402 C 21.192 16.780,21.729 14.991,21.729 13.000 C 21.729 11.149,21.263 9.466,20.330 7.943 C 18.416 4.822,14.996 3.048,11.340 3.281 M13.193 4.839 C 15.888 5.235,18.182 6.907,19.395 9.358 C 19.977 10.535,20.240 11.668,20.240 13.000 C 20.240 14.325,19.982 15.443,19.404 16.626 C 18.174 19.142,15.764 20.852,12.961 21.198 C 12.775 21.221,12.342 21.240,12.000 21.240 C 10.687 21.240,9.576 20.987,8.408 20.420 C 7.562 20.010,6.958 19.590,6.285 18.942 C 4.910 17.621,4.038 15.871,3.802 13.961 C 3.748 13.525,3.748 12.475,3.802 12.039 C 3.917 11.107,4.180 10.226,4.596 9.374 C 5.106 8.331,5.795 7.449,6.700 6.681 C 7.864 5.693,9.438 5.004,10.984 4.806 C 11.513 4.738,12.619 4.754,13.193 4.839 M11.807 8.289 C 11.556 8.343,11.341 8.570,11.281 8.846 C 11.248 8.998,11.238 9.663,11.247 11.143 L 11.260 13.226 11.367 13.388 C 11.526 13.628,11.721 13.733,12.007 13.733 C 12.203 13.733,12.270 13.714,12.408 13.617 C 12.499 13.553,12.610 13.428,12.656 13.340 C 12.738 13.185,12.740 13.120,12.752 11.123 C 12.759 9.763,12.749 8.997,12.720 8.865 C 12.626 8.424,12.258 8.192,11.807 8.289 " stroke="none" fill-rule="evenodd" fill="black"></path></svg>