<svg width="24" height="24" viewBox="0 0 24 24" fill="none" xmlns="http://www.w3.org/2000/svg"><path d="M9.826 1.284 C 9.476 1.366,9.267 1.636,9.267 2.003 C 9.267 2.281,9.387 2.496,9.627 2.645 L 9.780 2.740 12.000 2.740 L 14.220 2.740 14.369 2.647 C 14.943 2.290,14.812 1.424,14.162 1.284 C 13.910 1.230,10.056 1.230,9.826 1.284 M11.340 3.281 C 7.073 3.553,3.439 6.660,2.499 10.840 C 2.187 12.227,2.187 13.773,2.499 15.160 C 3.355 18.967,6.486 21.944,10.320 22.597 C 14.153 23.250,17.956 21.620,20.107 18.402 C 21.192 16.780,21.729 14.991,21.729 13.000 C 21.729 11.149,21.263 9.466,20.330 7.943 C 18.416 4.822,14.996 3.048,11.340 3.281 M13.193 4.839 C 15.888 5.235,18.182 6.907,19.395 9.358 C 19.977 10.535,20.240 11.668,20.240 13.000 C 20.240 14.325,19.982 15.443,19.404 16.626 C 18.174 19.142,15.764 20.852,12.961 21.198 C 12.775 21.221,12.342 21.240,12.000 21.240 C 10.687 21.240,9.576 20.987,8.408 20.420 C 7.562 20.010,6.958 19.590,6.285 18.942 C 4.910 17.621,4.038 15.871,3.802 13.961 C 3.748 13.525,3.748 12.475,3.802 12.039 C 3.917 11.107,4.180 10.226,4.596 9.374 C 5.106 8.331,5.795 7.449,6.700 6.681 C 7.864 5.693,9.438 5.004,10.984 4.806 C 11.513 4.738,12.619 4.754,13.193 4.839 M10.325 8.286 C 9.724 8.383,9.215 8.919,9.022 9.657 C 8.756 10.679,8.690 13.405,8.882 15.440 C 8.986 16.540,9.231 17.110,9.754 17.468 C 10.047 17.669,10.248 17.730,10.603 17.729 C 10.975 17.727,11.345 17.603,11.900 17.295 C 12.963 16.705,13.818 16.110,14.780 15.293 C 15.616 14.583,15.915 14.228,16.122 13.700 C 16.202 13.497,16.216 13.388,16.216 13.000 C 16.216 12.612,16.202 12.503,16.122 12.300 C 15.915 11.772,15.616 11.417,14.780 10.707 C 13.818 9.890,12.963 9.295,11.900 8.705 C 11.228 8.332,10.781 8.213,10.325 8.286 M10.971 9.905 C 12.048 10.447,13.435 11.442,14.306 12.300 C 15.003 12.986,14.934 13.215,13.720 14.230 C 12.994 14.837,12.546 15.166,11.906 15.560 C 11.312 15.926,10.721 16.240,10.625 16.240 C 10.277 16.240,10.133 12.437,10.404 10.384 C 10.452 10.019,10.544 9.760,10.625 9.760 C 10.657 9.760,10.812 9.825,10.971 9.905 " stroke="none" fill-rule="evenodd" fill="black"></path></svg>