<svg width="24" height="24" viewBox="0 0 24 24" fill="none" xmlns="http://www.w3.org/2000/svg"><path d="M9.826 1.284 C 9.476 1.366,9.267 1.636,9.267 2.003 C 9.267 2.281,9.387 2.496,9.627 2.645 L 9.780 2.740 12.000 2.740 L 14.220 2.740 14.369 2.647 C 14.943 2.290,14.812 1.424,14.162 1.284 C 13.910 1.230,10.056 1.230,9.826 1.284 M11.340 3.281 C 7.073 3.553,3.439 6.660,2.499 10.840 C 2.187 12.227,2.187 13.773,2.499 15.160 C 3.355 18.967,6.486 21.944,10.320 22.597 C 14.153 23.250,17.956 21.620,20.107 18.402 C 21.192 16.780,21.729 14.991,21.729 13.000 C 21.729 11.149,21.263 9.466,20.330 7.943 C 18.416 4.822,14.996 3.048,11.340 3.281 M13.193 4.839 C 15.888 5.235,18.182 6.907,19.395 9.358 C 19.977 10.535,20.240 11.668,20.240 13.000 C 20.240 14.325,19.982 15.443,19.404 16.626 C 18.174 19.142,15.764 20.852,12.961 21.198 C 12.775 21.221,12.342 21.240,12.000 21.240 C 10.687 21.240,9.576 20.987,8.408 20.420 C 7.562 20.010,6.958 19.590,6.285 18.942 C 4.910 17.621,4.038 15.871,3.802 13.961 C 3.748 13.525,3.748 12.475,3.802 12.039 C 3.917 11.107,4.180 10.226,4.596 9.374 C 5.106 8.331,5.795 7.449,6.700 6.681 C 7.864 5.693,9.438 5.004,10.984 4.806 C 11.513 4.738,12.619 4.754,13.193 4.839 M8.805 8.282 C 7.985 8.368,7.377 8.990,7.279 9.844 C 7.229 10.282,7.229 15.718,7.279 16.156 C 7.379 17.028,7.971 17.621,8.840 17.721 C 9.272 17.770,9.728 17.770,10.160 17.721 C 11.029 17.621,11.621 17.028,11.721 16.156 C 11.771 15.718,11.771 10.282,11.721 9.844 C 11.619 8.962,11.024 8.372,10.139 8.279 C 9.728 8.236,9.233 8.237,8.805 8.282 M13.805 8.282 C 12.985 8.368,12.377 8.990,12.279 9.844 C 12.229 10.282,12.229 15.718,12.279 16.156 C 12.379 17.028,12.971 17.621,13.840 17.721 C 14.272 17.770,14.728 17.770,15.160 17.721 C 16.029 17.621,16.621 17.028,16.721 16.156 C 16.771 15.718,16.771 10.282,16.721 9.844 C 16.619 8.962,16.024 8.372,15.139 8.279 C 14.728 8.236,14.233 8.237,13.805 8.282 M10.167 9.826 C 10.237 9.889,10.240 10.040,10.240 12.993 C 10.240 15.822,10.234 16.100,10.174 16.167 C 10.115 16.232,10.038 16.240,9.507 16.240 C 9.004 16.240,8.894 16.229,8.833 16.174 C 8.763 16.111,8.760 15.960,8.760 13.007 C 8.760 10.178,8.766 9.900,8.826 9.833 C 8.885 9.768,8.962 9.760,9.493 9.760 C 9.996 9.760,10.106 9.771,10.167 9.826 M15.167 9.826 C 15.237 9.889,15.240 10.040,15.240 12.993 C 15.240 15.822,15.234 16.100,15.174 16.167 C 15.115 16.232,15.038 16.240,14.507 16.240 C 14.004 16.240,13.894 16.229,13.833 16.174 C 13.763 16.111,13.760 15.960,13.760 13.007 C 13.760 10.178,13.766 9.900,13.826 9.833 C 13.885 9.768,13.962 9.760,14.493 9.760 C 14.996 9.760,15.106 9.771,15.167 9.826 " stroke="none" fill-rule="evenodd" fill="black"></path></svg>