<svg width="24" height="24" viewBox="0 0 24 24" fill="none" xmlns="http://www.w3.org/2000/svg"><path d="M9.020 1.278 C 7.735 1.310,7.475 1.326,6.649 1.423 C 4.782 1.643,3.569 2.183,2.728 3.171 C 1.841 4.212,1.475 5.425,1.314 7.860 C 1.249 8.841,1.249 15.159,1.314 16.140 C 1.431 17.905,1.649 18.970,2.068 19.825 C 2.756 21.228,3.977 22.098,5.734 22.437 C 7.035 22.688,7.988 22.733,12.000 22.733 C 16.012 22.733,16.965 22.688,18.266 22.437 C 20.599 21.987,21.987 20.599,22.437 18.266 C 22.688 16.968,22.732 16.015,22.733 12.000 C 22.733 7.987,22.688 7.034,22.437 5.734 C 22.098 3.977,21.228 2.756,19.825 2.068 C 18.972 1.650,17.855 1.421,16.180 1.321 C 15.276 1.267,10.579 1.239,9.020 1.278 M16.600 2.836 C 17.326 2.908,17.909 3.000,18.317 3.105 C 18.692 3.203,19.209 3.399,19.334 3.491 C 19.392 3.534,18.368 4.573,11.464 11.476 L 3.528 19.412 3.429 19.216 C 3.149 18.661,2.967 17.887,2.852 16.760 C 2.788 16.135,2.780 15.620,2.781 11.980 C 2.782 7.664,2.793 7.353,2.984 6.240 C 3.231 4.800,3.803 3.921,4.820 3.421 C 5.541 3.067,6.445 2.891,8.002 2.802 C 8.872 2.752,16.044 2.780,16.600 2.836 M20.677 5.019 C 20.907 5.573,21.054 6.290,21.164 7.400 C 21.230 8.064,21.260 14.650,21.203 15.781 C 21.117 17.486,20.961 18.369,20.615 19.119 L 20.477 19.417 16.769 15.709 L 13.060 12.000 16.760 8.300 C 19.981 5.078,20.466 4.608,20.509 4.666 C 20.536 4.702,20.611 4.861,20.677 5.019 M15.719 16.779 L 19.417 20.477 19.119 20.615 C 18.545 20.880,17.891 21.027,16.740 21.150 C 16.179 21.210,15.593 21.219,12.000 21.219 C 8.407 21.219,7.821 21.210,7.260 21.150 C 6.109 21.027,5.455 20.880,4.881 20.615 L 4.583 20.477 8.281 16.779 C 10.316 14.744,11.989 13.080,12.000 13.080 C 12.011 13.080,13.684 14.744,15.719 16.779 " stroke="none" fill-rule="evenodd" fill="black"></path></svg>