<svg width="24" height="24" viewBox="0 0 24 24" fill="none" xmlns="http://www.w3.org/2000/svg"><path d="M14.140 1.282 C 13.728 1.327,13.503 1.387,13.177 1.537 C 12.250 1.966,11.540 2.826,11.337 3.767 C 11.255 4.148,11.255 4.853,11.338 5.240 C 11.408 5.568,11.602 6.012,11.806 6.310 C 12.257 6.971,13.034 7.509,13.761 7.665 C 14.149 7.748,14.851 7.747,15.240 7.663 C 16.386 7.415,17.415 6.383,17.663 5.233 C 17.745 4.854,17.745 4.146,17.663 3.767 C 17.503 3.026,16.974 2.259,16.307 1.804 C 15.707 1.394,14.896 1.198,14.140 1.282 M15.247 2.930 C 15.618 3.113,15.915 3.415,16.092 3.790 C 16.212 4.043,16.220 4.088,16.220 4.500 C 16.220 4.912,16.212 4.957,16.092 5.210 C 15.914 5.586,15.618 5.887,15.245 6.071 C 14.952 6.216,14.932 6.220,14.500 6.220 C 14.068 6.220,14.048 6.216,13.755 6.071 C 13.382 5.887,13.086 5.586,12.908 5.210 C 12.788 4.957,12.780 4.912,12.780 4.500 C 12.780 4.088,12.788 4.043,12.907 3.791 C 13.123 3.335,13.494 3.003,13.979 2.830 C 14.132 2.775,14.272 2.761,14.564 2.770 C 14.914 2.781,14.976 2.796,15.247 2.930 M10.140 8.880 C 9.531 8.935,8.871 9.126,8.426 9.376 C 7.676 9.798,7.043 10.624,6.793 11.506 C 6.670 11.942,6.668 12.550,6.790 12.940 C 6.943 13.432,7.318 13.954,7.623 14.099 C 7.785 14.176,8.130 14.178,8.272 14.104 C 8.669 13.896,8.802 13.408,8.564 13.033 C 8.500 12.932,8.428 12.837,8.404 12.822 C 8.341 12.784,8.233 12.565,8.196 12.403 C 8.127 12.095,8.329 11.516,8.640 11.134 C 8.888 10.829,9.141 10.659,9.562 10.513 C 9.918 10.390,9.972 10.383,10.500 10.382 C 10.987 10.382,11.089 10.393,11.280 10.471 C 12.100 10.802,12.520 11.648,12.586 13.100 C 12.665 14.873,12.127 16.685,11.091 18.131 C 10.812 18.520,10.129 19.242,9.737 19.562 C 8.795 20.332,7.609 20.889,6.422 21.118 C 6.184 21.164,5.722 21.217,5.395 21.236 C 4.712 21.277,4.571 21.326,4.383 21.592 C 4.286 21.730,4.267 21.797,4.267 21.993 C 4.267 22.279,4.372 22.474,4.612 22.633 C 4.768 22.736,4.793 22.740,5.257 22.731 C 8.609 22.670,11.683 20.652,13.162 17.540 C 13.744 16.317,14.024 15.145,14.068 13.760 C 14.119 12.132,13.829 10.952,13.161 10.073 C 12.503 9.207,11.391 8.768,10.140 8.880 M15.406 14.500 C 14.747 14.705,14.705 15.593,15.340 15.883 C 15.476 15.945,15.565 15.952,15.940 15.932 C 16.434 15.906,16.672 15.954,17.088 16.164 C 17.400 16.322,17.838 16.741,17.993 17.032 C 18.237 17.490,18.240 17.525,18.241 19.858 C 18.242 21.147,18.258 22.049,18.283 22.156 C 18.305 22.253,18.360 22.384,18.405 22.447 C 18.662 22.808,19.338 22.807,19.596 22.446 C 19.756 22.221,19.767 22.024,19.749 19.750 C 19.730 17.348,19.723 17.281,19.461 16.667 C 19.270 16.222,19.098 15.951,18.802 15.630 C 18.066 14.832,17.164 14.438,16.080 14.443 C 15.777 14.444,15.511 14.467,15.406 14.500 " stroke="none" fill-rule="evenodd" fill="black"></path></svg>