<svg width="24" height="24" viewBox="0 0 24 24" fill="none" xmlns="http://www.w3.org/2000/svg"><path d="M9.020 1.278 C 7.735 1.310,7.475 1.326,6.649 1.423 C 4.782 1.643,3.569 2.183,2.728 3.171 C 1.841 4.212,1.475 5.425,1.314 7.860 C 1.249 8.841,1.249 15.159,1.314 16.140 C 1.431 17.905,1.649 18.970,2.068 19.825 C 2.756 21.228,3.977 22.098,5.734 22.437 C 7.035 22.688,7.988 22.733,12.000 22.733 C 16.012 22.733,16.965 22.688,18.266 22.437 C 20.599 21.987,21.987 20.599,22.437 18.266 C 22.688 16.968,22.732 16.015,22.733 12.000 C 22.733 7.987,22.688 7.034,22.437 5.734 C 22.098 3.977,21.228 2.756,19.825 2.068 C 18.972 1.650,17.855 1.421,16.180 1.321 C 15.276 1.267,10.579 1.239,9.020 1.278 M15.900 2.801 C 16.714 2.845,17.264 2.899,17.760 2.984 C 19.488 3.279,20.447 4.076,20.862 5.559 L 20.975 5.965 13.478 13.464 L 5.980 20.963 5.840 20.938 C 5.763 20.924,5.527 20.855,5.316 20.784 C 4.032 20.355,3.331 19.487,3.021 17.947 C 2.796 16.825,2.780 16.431,2.781 11.980 C 2.782 7.664,2.793 7.353,2.984 6.240 C 3.231 4.800,3.803 3.921,4.820 3.421 C 5.542 3.066,6.465 2.887,8.002 2.803 C 8.853 2.757,15.061 2.755,15.900 2.801 M8.249 4.820 C 7.331 4.986,6.593 5.363,5.947 5.994 C 5.361 6.568,5.001 7.227,4.831 8.040 C 4.679 8.769,4.792 9.869,5.106 10.719 C 5.634 12.143,6.640 13.345,7.780 13.913 C 8.310 14.176,8.482 14.220,9.000 14.220 C 9.507 14.220,9.687 14.176,10.173 13.936 C 10.661 13.695,11.009 13.438,11.461 12.983 C 12.092 12.348,12.569 11.594,12.894 10.719 C 13.208 9.869,13.321 8.769,13.169 8.040 C 12.913 6.815,12.147 5.820,11.010 5.237 C 10.204 4.823,9.127 4.661,8.249 4.820 M9.780 6.343 C 10.035 6.411,10.504 6.632,10.676 6.763 C 10.910 6.942,11.294 7.354,11.419 7.560 C 11.723 8.060,11.815 8.632,11.705 9.350 C 11.560 10.296,11.113 11.197,10.443 11.896 C 9.982 12.376,9.340 12.760,9.000 12.760 C 8.513 12.760,7.577 12.059,7.081 11.323 C 6.854 10.987,6.590 10.452,6.461 10.068 C 6.346 9.725,6.240 9.096,6.241 8.760 C 6.243 7.547,7.243 6.481,8.580 6.266 C 8.802 6.230,9.538 6.277,9.780 6.343 M21.235 11.920 C 21.238 15.030,21.213 16.129,21.117 17.020 C 21.022 17.910,20.859 18.591,20.615 19.119 L 20.477 19.417 17.769 16.709 L 15.060 14.000 18.120 10.940 L 21.180 7.879 21.205 8.270 C 21.219 8.484,21.232 10.127,21.235 11.920 M8.667 8.065 C 8.303 8.177,8.000 8.602,8.000 9.000 C 8.000 9.524,8.476 10.000,9.000 10.000 C 9.517 10.000,10.000 9.517,10.000 9.000 C 10.000 8.763,9.880 8.486,9.697 8.303 C 9.416 8.022,9.067 7.942,8.667 8.065 M16.719 17.779 L 19.417 20.477 19.119 20.615 C 18.551 20.877,17.889 21.027,16.780 21.146 C 16.295 21.198,15.519 21.214,12.720 21.229 C 10.817 21.240,8.947 21.235,8.565 21.220 L 7.869 21.191 10.925 18.135 C 12.605 16.455,13.989 15.080,14.000 15.080 C 14.011 15.080,15.235 16.294,16.719 17.779 " stroke="none" fill-rule="evenodd" fill="black"></path></svg>