<svg width="24" height="24" viewBox="0 0 24 24" fill="none" xmlns="http://www.w3.org/2000/svg"><path d="M7.300 1.280 C 5.980 1.317,5.494 1.361,4.840 1.506 C 3.890 1.717,3.314 2.012,2.706 2.597 C 1.820 3.450,1.428 4.492,1.324 6.266 C 1.219 8.055,1.241 12.219,1.362 13.300 C 1.482 14.384,1.760 15.212,2.221 15.862 C 2.476 16.222,3.055 16.750,3.451 16.985 C 4.050 17.339,5.137 17.632,5.922 17.650 C 6.173 17.656,6.248 17.642,6.371 17.566 C 6.762 17.324,6.856 16.823,6.579 16.456 C 6.440 16.272,6.264 16.207,5.715 16.136 C 4.758 16.012,4.252 15.806,3.768 15.342 C 3.409 14.998,3.235 14.728,3.077 14.270 C 2.818 13.517,2.761 12.665,2.761 9.500 C 2.761 6.367,2.816 5.512,3.067 4.754 C 3.178 4.418,3.447 3.934,3.514 3.949 C 3.535 3.954,5.800 5.563,8.547 7.524 C 12.974 10.686,13.886 11.356,16.589 13.435 C 19.480 15.658,19.632 15.782,19.543 15.828 C 19.348 15.931,18.760 16.074,18.285 16.136 C 17.736 16.207,17.560 16.272,17.421 16.456 C 17.144 16.822,17.238 17.324,17.629 17.565 C 17.808 17.676,18.122 17.680,18.760 17.578 C 19.868 17.402,20.628 17.050,21.294 16.405 C 21.998 15.723,22.370 14.952,22.577 13.753 C 22.692 13.085,22.731 12.011,22.731 9.500 C 22.731 6.294,22.683 5.526,22.418 4.522 C 22.310 4.114,22.047 3.522,21.837 3.213 C 21.648 2.936,21.141 2.421,20.854 2.215 C 20.137 1.701,19.156 1.415,17.780 1.318 C 17.031 1.266,8.889 1.236,7.300 1.280 M17.500 2.801 C 17.874 2.822,18.351 2.869,18.560 2.904 C 18.956 2.970,19.509 3.134,19.626 3.220 C 19.686 3.263,19.353 3.636,16.808 6.376 C 15.221 8.085,13.911 9.485,13.897 9.488 C 13.858 9.496,4.880 3.077,4.880 3.041 C 4.880 2.969,5.955 2.814,6.640 2.788 C 7.477 2.755,16.905 2.766,17.500 2.801 M20.896 4.650 C 20.953 4.809,21.026 5.066,21.057 5.220 C 21.206 5.946,21.220 6.317,21.220 9.500 C 21.220 12.700,21.207 13.047,21.053 13.798 C 20.993 14.092,20.775 14.720,20.733 14.720 C 20.693 14.720,15.140 10.434,15.140 10.403 C 15.140 10.359,20.717 4.360,20.758 4.360 C 20.776 4.360,20.839 4.490,20.896 4.650 M11.746 13.282 C 11.214 13.371,10.722 13.797,10.267 14.561 C 9.847 15.266,7.502 19.981,7.380 20.367 C 7.142 21.116,7.314 21.784,7.876 22.288 C 8.260 22.634,8.731 22.787,9.205 22.719 C 9.577 22.666,9.800 22.592,10.800 22.189 C 12.026 21.695,11.974 21.695,13.200 22.189 C 14.200 22.592,14.423 22.666,14.795 22.719 C 15.269 22.787,15.740 22.634,16.124 22.288 C 16.686 21.784,16.858 21.116,16.620 20.367 C 16.496 19.976,14.145 15.250,13.735 14.568 C 13.218 13.706,12.763 13.337,12.140 13.271 C 12.030 13.259,11.853 13.264,11.746 13.282 M12.189 14.934 C 12.405 15.221,12.696 15.753,13.472 17.277 C 14.511 19.317,15.240 20.840,15.240 20.970 C 15.240 21.142,15.102 21.253,14.919 21.229 C 14.836 21.218,14.339 21.038,13.814 20.828 C 13.289 20.619,12.779 20.425,12.680 20.396 C 12.444 20.328,11.557 20.327,11.320 20.395 C 11.221 20.424,10.711 20.619,10.186 20.828 C 9.661 21.037,9.164 21.218,9.081 21.229 C 8.898 21.253,8.760 21.142,8.760 20.970 C 8.760 20.837,9.426 19.446,10.486 17.360 C 11.518 15.331,11.849 14.762,12.000 14.762 C 12.033 14.762,12.118 14.840,12.189 14.934 " stroke="none" fill-rule="evenodd" fill="black"></path></svg>