<svg width="24" height="24" viewBox="0 0 24 24" fill="none" xmlns="http://www.w3.org/2000/svg"><path d="M14.140 1.282 C 13.728 1.327,13.503 1.387,13.177 1.537 C 12.250 1.966,11.540 2.826,11.337 3.767 C 11.255 4.148,11.255 4.853,11.338 5.240 C 11.408 5.568,11.602 6.012,11.806 6.310 C 12.257 6.971,13.034 7.509,13.761 7.665 C 14.149 7.748,14.851 7.747,15.240 7.663 C 16.386 7.415,17.415 6.383,17.663 5.233 C 17.745 4.854,17.745 4.146,17.663 3.767 C 17.503 3.026,16.974 2.259,16.307 1.804 C 15.707 1.394,14.896 1.198,14.140 1.282 M15.247 2.930 C 15.618 3.113,15.915 3.415,16.092 3.790 C 16.212 4.043,16.220 4.088,16.220 4.500 C 16.220 4.912,16.212 4.957,16.092 5.210 C 15.914 5.586,15.618 5.887,15.245 6.071 C 14.952 6.216,14.932 6.220,14.500 6.220 C 14.068 6.220,14.048 6.216,13.755 6.071 C 13.382 5.887,13.086 5.586,12.908 5.210 C 12.788 4.957,12.780 4.912,12.780 4.500 C 12.780 4.088,12.788 4.043,12.907 3.791 C 13.123 3.335,13.494 3.003,13.979 2.830 C 14.132 2.775,14.272 2.761,14.564 2.770 C 14.914 2.781,14.976 2.796,15.247 2.930 M10.880 9.086 C 10.607 9.150,7.928 10.305,7.700 10.456 C 6.939 10.963,6.552 11.887,6.736 12.760 C 6.848 13.291,7.032 13.598,7.557 14.125 C 7.812 14.381,8.083 14.622,8.159 14.661 C 8.331 14.748,8.662 14.752,8.821 14.669 C 9.085 14.532,9.240 14.284,9.240 14.000 C 9.240 13.744,9.175 13.641,8.705 13.161 C 8.344 12.792,8.246 12.666,8.212 12.533 C 8.135 12.229,8.245 11.903,8.476 11.744 C 8.555 11.689,9.196 11.396,9.900 11.093 C 11.039 10.603,11.205 10.542,11.407 10.541 C 11.595 10.540,11.662 10.560,11.803 10.660 C 11.896 10.726,12.010 10.852,12.056 10.940 C 12.137 11.094,12.140 11.156,12.140 12.620 C 12.139 13.926,12.130 14.163,12.075 14.300 C 11.988 14.514,9.261 19.384,9.134 19.551 C 9.080 19.622,8.944 19.733,8.832 19.797 C 8.721 19.861,7.728 20.234,6.626 20.626 C 4.824 21.268,4.607 21.354,4.477 21.484 C 4.012 21.946,4.342 22.736,5.000 22.734 C 5.131 22.733,5.733 22.535,7.219 22.003 C 8.340 21.601,9.330 21.236,9.419 21.191 C 9.908 20.945,10.260 20.605,10.571 20.077 C 11.083 19.208,13.346 15.118,13.431 14.909 C 13.612 14.461,13.637 14.174,13.638 12.580 C 13.639 10.957,13.618 10.752,13.407 10.304 C 13.168 9.797,12.695 9.370,12.140 9.160 C 11.862 9.055,11.182 9.015,10.880 9.086 M16.039 14.139 C 15.387 14.247,15.353 14.258,15.198 14.388 C 14.709 14.800,14.915 15.573,15.546 15.692 C 15.615 15.706,15.930 15.672,16.246 15.619 C 16.920 15.504,17.158 15.497,17.414 15.584 C 17.654 15.666,18.006 15.985,18.127 16.231 L 18.220 16.420 18.240 19.320 L 18.260 22.220 18.355 22.373 C 18.506 22.615,18.718 22.733,19.003 22.733 C 19.203 22.733,19.270 22.714,19.408 22.617 C 19.499 22.553,19.610 22.428,19.656 22.340 C 19.739 22.182,19.740 22.143,19.740 19.280 C 19.740 16.019,19.753 16.175,19.434 15.520 C 19.300 15.243,19.204 15.117,18.924 14.840 C 18.164 14.091,17.416 13.909,16.039 14.139 " stroke="none" fill-rule="evenodd" fill="black"></path></svg>