<svg width="24" height="24" viewBox="0 0 24 24" fill="none" xmlns="http://www.w3.org/2000/svg"><path d="M4.740 1.266 C 3.415 1.385,2.327 2.085,1.719 3.212 C 1.400 3.803,1.271 4.320,1.271 5.000 C 1.271 5.680,1.400 6.197,1.719 6.788 C 2.236 7.745,2.984 8.313,4.190 8.663 C 4.263 8.684,4.263 15.316,4.190 15.337 C 2.984 15.687,2.236 16.255,1.719 17.212 C 1.400 17.803,1.271 18.320,1.271 19.000 C 1.271 19.682,1.400 20.197,1.721 20.792 C 2.078 21.453,2.549 21.923,3.212 22.281 C 3.803 22.600,4.320 22.729,5.000 22.729 C 5.680 22.729,6.197 22.600,6.788 22.281 C 7.745 21.764,8.313 21.016,8.663 19.810 C 8.684 19.737,15.316 19.737,15.337 19.810 C 15.687 21.016,16.255 21.764,17.212 22.281 C 17.803 22.600,18.320 22.729,19.000 22.729 C 19.680 22.729,20.197 22.600,20.788 22.281 C 21.451 21.923,21.922 21.453,22.279 20.792 C 22.600 20.197,22.729 19.682,22.729 19.000 C 22.729 18.320,22.600 17.803,22.281 17.212 C 21.764 16.255,21.016 15.687,19.810 15.337 C 19.737 15.316,19.737 8.684,19.810 8.663 C 21.016 8.313,21.764 7.745,22.281 6.788 C 22.600 6.197,22.729 5.680,22.729 5.000 C 22.729 4.318,22.600 3.803,22.279 3.208 C 21.922 2.547,21.451 2.077,20.788 1.719 C 20.197 1.400,19.680 1.271,19.000 1.271 C 18.320 1.271,17.803 1.400,17.212 1.719 C 16.255 2.236,15.687 2.984,15.337 4.190 C 15.316 4.263,8.684 4.263,8.663 4.190 C 8.313 2.984,7.745 2.236,6.788 1.719 C 6.164 1.382,5.380 1.209,4.740 1.266 M5.578 2.821 C 5.949 2.918,6.274 3.112,6.581 3.419 C 7.041 3.879,7.240 4.356,7.240 5.000 C 7.240 5.644,7.041 6.121,6.581 6.581 C 6.121 7.041,5.644 7.240,5.000 7.240 C 4.356 7.240,3.879 7.041,3.419 6.581 C 2.959 6.121,2.760 5.644,2.760 5.000 C 2.760 4.356,2.959 3.879,3.419 3.419 C 3.719 3.118,4.050 2.919,4.404 2.823 C 4.692 2.746,5.285 2.745,5.578 2.821 M19.578 2.821 C 19.949 2.918,20.274 3.112,20.581 3.419 C 21.041 3.879,21.240 4.356,21.240 5.000 C 21.240 5.644,21.041 6.121,20.581 6.581 C 20.121 7.041,19.644 7.240,19.000 7.240 C 18.356 7.240,17.879 7.041,17.419 6.581 C 16.959 6.121,16.760 5.644,16.760 5.000 C 16.760 4.356,16.959 3.879,17.419 3.419 C 17.719 3.118,18.050 2.919,18.404 2.823 C 18.692 2.746,19.285 2.745,19.578 2.821 M15.337 5.810 C 15.789 7.369,16.631 8.211,18.190 8.663 C 18.229 8.674,18.240 9.376,18.240 12.000 C 18.240 14.624,18.229 15.326,18.190 15.337 C 16.943 15.699,16.163 16.314,15.650 17.340 C 15.552 17.536,15.432 17.862,15.337 18.190 C 15.316 18.263,8.684 18.263,8.663 18.190 C 8.211 16.631,7.369 15.789,5.810 15.337 C 5.771 15.326,5.760 14.624,5.760 12.000 C 5.760 9.376,5.771 8.674,5.810 8.663 C 7.057 8.301,7.837 7.686,8.350 6.660 C 8.448 6.464,8.568 6.138,8.663 5.810 C 8.684 5.737,15.316 5.737,15.337 5.810 M5.578 16.821 C 5.949 16.918,6.274 17.112,6.581 17.419 C 7.041 17.879,7.240 18.356,7.240 19.000 C 7.240 19.644,7.041 20.121,6.581 20.581 C 6.121 21.041,5.644 21.240,5.000 21.240 C 4.356 21.240,3.879 21.041,3.419 20.581 C 2.959 20.121,2.760 19.644,2.760 19.000 C 2.760 18.356,2.959 17.879,3.419 17.419 C 3.719 17.118,4.050 16.919,4.404 16.823 C 4.692 16.746,5.285 16.745,5.578 16.821 M19.578 16.821 C 19.949 16.918,20.274 17.112,20.581 17.419 C 21.041 17.879,21.240 18.356,21.240 19.000 C 21.240 19.644,21.041 20.121,20.581 20.581 C 20.121 21.041,19.644 21.240,19.000 21.240 C 18.356 21.240,17.879 21.041,17.419 20.581 C 16.959 20.121,16.760 19.644,16.760 19.000 C 16.760 18.356,16.959 17.879,17.419 17.419 C 17.719 17.118,18.050 16.919,18.404 16.823 C 18.692 16.746,19.285 16.745,19.578 16.821 " stroke="none" fill-rule="evenodd" fill="black"></path></svg>