<svg width="24" height="24" viewBox="0 0 24 24" fill="none" xmlns="http://www.w3.org/2000/svg"><path d="M7.420 3.282 C 4.817 3.355,3.631 3.693,2.669 4.635 C 1.936 5.352,1.566 6.252,1.377 7.780 C 1.273 8.617,1.219 11.798,1.273 13.890 C 1.321 15.727,1.361 16.284,1.497 17.011 C 1.809 18.677,2.744 19.806,4.221 20.302 C 5.354 20.682,6.645 20.758,12.000 20.758 C 17.355 20.758,18.646 20.682,19.779 20.302 C 21.016 19.886,21.886 19.016,22.302 17.779 C 22.587 16.928,22.670 16.166,22.728 13.870 C 22.764 12.440,22.764 11.560,22.728 10.130 C 22.670 7.834,22.587 7.072,22.302 6.221 C 21.886 4.984,21.016 4.114,19.779 3.698 C 19.005 3.439,18.137 3.331,16.400 3.280 C 14.922 3.237,8.986 3.238,7.420 3.282 M17.340 4.801 C 18.245 4.860,18.701 4.931,19.200 5.089 C 20.137 5.386,20.657 5.927,20.939 6.901 C 21.190 7.768,21.240 8.610,21.240 12.000 C 21.240 15.383,21.190 16.233,20.941 17.093 C 20.523 18.534,19.647 19.046,17.341 19.198 C 16.484 19.254,7.516 19.254,6.659 19.198 C 3.889 19.016,3.093 18.317,2.833 15.840 C 2.758 15.128,2.758 8.872,2.833 8.160 C 3.051 6.077,3.679 5.278,5.360 4.944 C 5.628 4.891,6.303 4.820,6.860 4.786 C 7.412 4.753,16.813 4.766,17.340 4.801 M5.815 12.278 C 5.331 12.393,5.098 13.004,5.383 13.408 C 5.576 13.681,5.733 13.736,6.363 13.754 C 7.073 13.773,7.316 13.724,7.519 13.521 C 7.918 13.122,7.731 12.423,7.189 12.286 C 6.988 12.236,6.016 12.230,5.815 12.278 M9.420 12.258 C 9.398 12.266,9.331 12.284,9.271 12.297 C 9.124 12.329,8.881 12.548,8.814 12.708 C 8.691 13.002,8.771 13.336,9.015 13.550 C 9.095 13.621,9.211 13.693,9.271 13.709 C 9.413 13.749,11.587 13.749,11.729 13.709 C 11.881 13.667,12.121 13.447,12.186 13.292 C 12.297 13.027,12.241 12.711,12.047 12.506 C 11.818 12.263,11.802 12.261,10.580 12.252 C 9.964 12.247,9.442 12.250,9.420 12.258 M13.815 12.278 C 13.331 12.393,13.098 13.004,13.383 13.408 C 13.447 13.499,13.572 13.610,13.660 13.656 C 13.815 13.738,13.880 13.740,15.875 13.752 C 18.208 13.765,18.281 13.759,18.519 13.521 C 18.918 13.122,18.731 12.423,18.189 12.286 C 17.980 12.234,14.031 12.226,13.815 12.278 M5.815 15.278 C 5.331 15.393,5.098 16.004,5.383 16.408 C 5.447 16.499,5.572 16.610,5.660 16.656 C 5.815 16.738,5.880 16.740,7.875 16.752 C 10.208 16.765,10.281 16.759,10.519 16.521 C 10.918 16.122,10.731 15.423,10.189 15.286 C 9.980 15.234,6.031 15.226,5.815 15.278 M12.420 15.260 C 12.398 15.267,12.331 15.284,12.271 15.297 C 12.124 15.329,11.881 15.548,11.814 15.708 C 11.703 15.973,11.759 16.289,11.953 16.494 C 12.171 16.724,12.231 16.738,13.107 16.753 C 14.099 16.770,14.303 16.737,14.519 16.521 C 14.918 16.122,14.731 15.423,14.189 15.286 C 14.025 15.245,12.531 15.223,12.420 15.260 M16.420 15.260 C 16.398 15.267,16.331 15.284,16.271 15.297 C 16.124 15.329,15.881 15.548,15.814 15.708 C 15.703 15.973,15.759 16.289,15.953 16.494 C 16.171 16.724,16.231 16.738,17.107 16.753 C 18.099 16.770,18.303 16.737,18.519 16.521 C 18.918 16.122,18.731 15.423,18.189 15.286 C 18.025 15.245,16.531 15.223,16.420 15.260 " stroke="none" fill-rule="evenodd" fill="black"></path></svg>