<svg width="24" height="24" viewBox="0 0 24 24" fill="none" xmlns="http://www.w3.org/2000/svg"><path d="M10.540 1.282 C 9.741 1.313,9.447 1.356,8.992 1.504 C 8.266 1.742,7.742 2.266,7.505 2.992 C 7.355 3.451,7.317 3.712,7.295 4.440 C 7.284 4.803,7.267 5.139,7.258 5.186 C 7.242 5.266,7.209 5.274,6.770 5.299 C 4.631 5.420,3.484 5.800,2.635 6.669 C 1.827 7.494,1.498 8.423,1.314 10.400 C 1.259 10.996,1.233 16.845,1.284 17.240 C 1.302 17.383,1.337 17.725,1.362 18.000 C 1.502 19.573,1.879 20.559,2.635 21.331 C 3.066 21.772,3.616 22.103,4.273 22.318 C 5.402 22.686,6.664 22.758,12.000 22.758 C 17.336 22.758,18.598 22.686,19.727 22.318 C 20.941 21.921,21.776 21.136,22.242 19.954 C 22.437 19.461,22.588 18.654,22.685 17.600 C 22.737 17.032,22.761 11.145,22.712 10.721 C 22.696 10.577,22.655 10.190,22.621 9.860 C 22.551 9.180,22.450 8.664,22.301 8.220 C 21.887 6.985,21.015 6.113,19.780 5.699 C 19.190 5.501,18.418 5.380,17.160 5.290 L 16.740 5.260 16.715 4.540 C 16.687 3.745,16.645 3.450,16.496 2.992 C 16.204 2.102,15.520 1.554,14.460 1.360 C 13.921 1.262,12.001 1.223,10.540 1.282 M14.260 2.835 C 14.370 2.860,14.559 2.930,14.679 2.991 C 14.863 3.084,14.916 3.137,15.009 3.321 C 15.159 3.617,15.195 3.827,15.226 4.590 L 15.252 5.240 12.006 5.240 L 8.760 5.240 8.760 4.838 C 8.760 3.961,8.887 3.359,9.123 3.123 C 9.276 2.971,9.601 2.851,9.989 2.804 C 10.423 2.752,14.005 2.778,14.260 2.835 M17.341 6.802 C 19.644 6.953,20.523 7.467,20.939 8.901 C 21.038 9.242,21.160 9.927,21.160 10.140 L 21.160 10.240 12.000 10.240 L 2.840 10.240 2.841 10.130 C 2.843 9.834,2.990 9.075,3.116 8.710 C 3.551 7.451,4.467 6.945,6.560 6.805 C 7.314 6.754,16.579 6.752,17.341 6.802 M21.240 14.000 L 21.240 16.240 12.000 16.240 L 2.760 16.240 2.760 14.000 L 2.760 11.760 12.000 11.760 L 21.240 11.760 21.240 14.000 M21.160 17.860 C 21.160 18.073,21.038 18.758,20.939 19.099 C 20.610 20.235,19.951 20.796,18.640 21.056 C 17.852 21.212,17.510 21.220,12.000 21.220 C 6.490 21.220,6.148 21.212,5.360 21.056 C 4.329 20.851,3.671 20.434,3.327 19.766 C 3.077 19.278,2.920 18.708,2.857 18.050 L 2.830 17.760 11.995 17.760 L 21.160 17.760 21.160 17.860 " stroke="none" fill-rule="evenodd" fill="black"></path></svg>