<svg width="24" height="24" viewBox="0 0 24 24" fill="none" xmlns="http://www.w3.org/2000/svg"><path d="M10.540 1.282 C 9.741 1.313,9.447 1.356,8.992 1.504 C 8.266 1.742,7.742 2.266,7.505 2.992 C 7.355 3.451,7.317 3.712,7.295 4.440 C 7.284 4.803,7.267 5.139,7.258 5.186 C 7.242 5.266,7.209 5.274,6.770 5.299 C 4.631 5.420,3.484 5.800,2.635 6.669 C 1.916 7.403,1.562 8.277,1.379 9.767 C 1.271 10.652,1.218 13.735,1.273 15.891 C 1.321 17.727,1.361 18.284,1.497 19.011 C 1.814 20.699,2.757 21.823,4.273 22.318 C 5.402 22.686,6.664 22.758,12.000 22.758 C 17.336 22.758,18.598 22.686,19.727 22.318 C 21.002 21.901,21.880 21.036,22.302 19.779 C 22.588 18.925,22.670 18.167,22.728 15.850 C 22.763 14.408,22.763 13.521,22.728 12.110 C 22.680 10.239,22.633 9.624,22.482 8.900 C 22.183 7.470,21.483 6.501,20.332 5.925 C 19.637 5.577,18.784 5.406,17.160 5.290 L 16.740 5.260 16.715 4.540 C 16.687 3.745,16.645 3.450,16.496 2.992 C 16.204 2.102,15.520 1.554,14.460 1.360 C 13.921 1.262,12.001 1.223,10.540 1.282 M14.260 2.835 C 14.370 2.860,14.559 2.930,14.679 2.991 C 14.863 3.084,14.916 3.137,15.009 3.321 C 15.159 3.617,15.195 3.827,15.226 4.590 L 15.252 5.240 12.006 5.240 L 8.760 5.240 8.760 4.838 C 8.760 3.961,8.887 3.359,9.123 3.123 C 9.276 2.971,9.601 2.851,9.989 2.804 C 10.423 2.752,14.005 2.778,14.260 2.835 M17.030 6.786 L 17.240 6.811 17.240 14.000 L 17.240 21.189 17.030 21.214 C 16.756 21.247,7.244 21.247,6.970 21.214 L 6.760 21.189 6.760 19.978 L 6.760 18.767 8.730 18.750 C 10.137 18.738,10.746 18.719,10.860 18.684 C 11.242 18.566,11.575 18.225,11.687 17.840 C 11.724 17.711,11.739 17.334,11.739 16.500 C 11.739 15.666,11.724 15.289,11.687 15.160 C 11.575 14.774,11.241 14.434,10.860 14.317 C 10.747 14.282,10.127 14.263,8.730 14.250 L 6.760 14.233 6.760 10.519 L 6.760 6.805 6.910 6.789 C 7.166 6.762,16.808 6.759,17.030 6.786 M5.240 10.635 L 5.240 14.310 5.110 14.336 C 4.792 14.399,4.423 14.780,4.313 15.160 C 4.240 15.414,4.240 17.586,4.313 17.840 C 4.423 18.220,4.792 18.601,5.110 18.664 L 5.240 18.690 5.240 19.861 L 5.240 21.033 5.150 21.013 C 3.870 20.728,3.208 20.011,2.942 18.620 C 2.806 17.908,2.788 17.487,2.771 14.480 C 2.753 11.546,2.779 10.467,2.883 9.740 C 3.109 8.163,3.662 7.425,4.889 7.062 C 5.071 7.008,5.225 6.963,5.230 6.962 C 5.236 6.961,5.240 8.614,5.240 10.635 M19.673 7.281 C 20.657 7.749,21.066 8.654,21.198 10.659 C 21.252 11.489,21.252 16.511,21.198 17.341 C 21.096 18.889,20.848 19.707,20.311 20.266 C 19.994 20.596,19.433 20.883,18.850 21.013 L 18.760 21.033 18.760 13.999 L 18.760 6.965 19.050 7.044 C 19.210 7.087,19.490 7.194,19.673 7.281 M10.240 16.500 L 10.240 17.240 8.000 17.240 L 5.760 17.240 5.760 16.500 L 5.760 15.760 8.000 15.760 L 10.240 15.760 10.240 16.500 " stroke="none" fill-rule="evenodd" fill="black"></path></svg>