<svg width="24" height="24" viewBox="0 0 24 24" fill="none" xmlns="http://www.w3.org/2000/svg"><path d="M10.540 1.282 C 9.741 1.313,9.447 1.356,8.992 1.504 C 8.266 1.742,7.742 2.266,7.505 2.992 C 7.355 3.451,7.317 3.712,7.295 4.440 C 7.284 4.803,7.267 5.139,7.258 5.186 C 7.242 5.266,7.209 5.274,6.770 5.299 C 4.631 5.420,3.484 5.800,2.635 6.669 C 1.916 7.403,1.562 8.277,1.379 9.767 C 1.271 10.652,1.218 13.735,1.273 15.891 C 1.321 17.727,1.361 18.284,1.497 19.011 C 1.814 20.699,2.757 21.823,4.273 22.318 C 5.402 22.686,6.664 22.758,12.000 22.758 C 17.336 22.758,18.598 22.686,19.727 22.318 C 21.002 21.901,21.880 21.036,22.302 19.779 C 22.588 18.925,22.670 18.167,22.728 15.850 C 22.763 14.408,22.763 13.521,22.728 12.110 C 22.680 10.239,22.633 9.624,22.482 8.900 C 22.183 7.470,21.483 6.501,20.332 5.925 C 19.637 5.577,18.784 5.406,17.160 5.290 L 16.740 5.260 16.715 4.540 C 16.687 3.745,16.645 3.450,16.496 2.992 C 16.204 2.102,15.520 1.554,14.460 1.360 C 13.921 1.262,12.001 1.223,10.540 1.282 M14.260 2.835 C 14.370 2.860,14.559 2.930,14.679 2.991 C 14.863 3.084,14.916 3.137,15.009 3.321 C 15.159 3.617,15.195 3.827,15.226 4.590 L 15.252 5.240 12.006 5.240 L 8.760 5.240 8.760 4.838 C 8.760 3.961,8.887 3.359,9.123 3.123 C 9.276 2.971,9.601 2.851,9.989 2.804 C 10.423 2.752,14.005 2.778,14.260 2.835 M17.341 6.802 C 19.644 6.953,20.523 7.467,20.939 8.901 C 21.190 9.768,21.240 10.610,21.240 14.000 C 21.240 17.383,21.190 18.233,20.941 19.093 C 20.553 20.432,19.754 20.966,17.840 21.167 C 17.116 21.244,6.884 21.244,6.160 21.167 C 3.837 20.923,3.100 20.200,2.835 17.900 C 2.769 17.326,2.739 11.675,2.798 10.740 C 2.860 9.750,2.924 9.319,3.089 8.800 C 3.509 7.473,4.423 6.948,6.560 6.805 C 7.314 6.754,16.579 6.752,17.341 6.802 M7.673 8.063 C 7.312 8.174,7.000 8.609,7.000 9.000 C 7.000 9.524,7.476 10.000,8.000 10.000 C 8.517 10.000,9.000 9.517,9.000 9.000 C 9.000 8.763,8.880 8.486,8.697 8.303 C 8.418 8.024,8.067 7.942,7.673 8.063 M15.673 8.063 C 15.312 8.174,15.000 8.609,15.000 9.000 C 15.000 9.524,15.476 10.000,16.000 10.000 C 16.517 10.000,17.000 9.517,17.000 9.000 C 17.000 8.598,16.688 8.173,16.310 8.061 C 16.062 7.987,15.919 7.988,15.673 8.063 " stroke="none" fill-rule="evenodd" fill="black"></path></svg>