<svg width="24" height="24" viewBox="0 0 24 24" fill="none" xmlns="http://www.w3.org/2000/svg"><path d="M11.815 1.277 C 11.638 1.321,11.461 1.456,11.353 1.631 C 11.265 1.772,11.260 1.816,11.260 2.500 C 11.260 3.184,11.265 3.228,11.353 3.369 C 11.710 3.943,12.576 3.812,12.716 3.162 C 12.771 2.904,12.772 2.080,12.717 1.841 C 12.623 1.432,12.215 1.177,11.815 1.277 M4.620 4.247 C 4.493 4.317,4.318 4.491,4.256 4.608 C 4.176 4.763,4.185 5.095,4.276 5.272 C 4.358 5.432,4.837 5.913,5.000 6.000 C 5.164 6.088,5.526 6.068,5.697 5.962 C 5.931 5.817,6.053 5.599,6.053 5.328 C 6.053 5.202,6.029 5.055,6.000 5.000 C 5.913 4.837,5.432 4.358,5.272 4.276 C 5.106 4.191,4.750 4.175,4.620 4.247 M18.740 4.266 C 18.586 4.347,18.141 4.780,18.031 4.956 C 17.971 5.052,17.947 5.156,17.947 5.320 C 17.947 5.600,18.037 5.772,18.271 5.936 C 18.409 6.033,18.478 6.053,18.669 6.053 C 18.955 6.053,19.031 6.014,19.374 5.684 C 19.694 5.376,19.800 5.192,19.800 4.944 C 19.800 4.640,19.653 4.393,19.392 4.256 C 19.249 4.182,18.891 4.187,18.740 4.266 M11.480 5.283 C 8.166 5.524,5.514 8.196,5.283 11.527 C 5.024 15.249,7.812 18.459,11.527 18.717 C 14.284 18.909,16.860 17.419,18.060 14.940 C 18.450 14.134,18.656 13.362,18.717 12.473 C 19.003 8.360,15.604 4.983,11.480 5.283 M13.080 6.859 C 13.690 6.995,14.410 7.296,14.893 7.617 C 15.416 7.964,16.036 8.584,16.383 9.107 C 16.576 9.398,16.848 9.958,16.972 10.320 C 17.168 10.895,17.220 11.244,17.220 12.000 C 17.220 12.964,17.095 13.522,16.697 14.330 C 16.481 14.769,16.312 15.024,15.980 15.412 C 15.228 16.293,14.204 16.898,13.040 17.147 C 12.562 17.250,11.438 17.250,10.960 17.147 C 10.058 16.954,9.281 16.572,8.588 15.980 C 7.707 15.228,7.102 14.204,6.853 13.040 C 6.798 12.785,6.780 12.526,6.780 12.000 C 6.780 11.244,6.832 10.895,7.028 10.320 C 7.152 9.958,7.424 9.398,7.617 9.107 C 7.964 8.584,8.584 7.964,9.107 7.617 C 9.613 7.281,10.356 6.976,10.940 6.864 C 11.116 6.831,11.296 6.795,11.340 6.784 C 11.526 6.740,12.789 6.794,13.080 6.859 M1.815 11.278 C 1.331 11.393,1.098 12.004,1.383 12.408 C 1.576 12.681,1.733 12.736,2.363 12.754 C 3.073 12.773,3.316 12.724,3.519 12.521 C 3.918 12.122,3.731 11.423,3.189 11.286 C 2.988 11.236,2.016 11.230,1.815 11.278 M20.815 11.278 C 20.331 11.393,20.098 12.004,20.383 12.408 C 20.576 12.681,20.733 12.736,21.363 12.754 C 22.073 12.773,22.316 12.724,22.519 12.521 C 22.918 12.122,22.731 11.423,22.189 11.286 C 21.988 11.236,21.016 11.230,20.815 11.278 M5.220 17.939 C 5.198 17.947,5.130 17.964,5.069 17.977 C 4.928 18.009,4.377 18.529,4.277 18.727 C 4.185 18.905,4.175 19.237,4.256 19.392 C 4.321 19.515,4.498 19.689,4.627 19.755 C 4.765 19.826,5.105 19.809,5.272 19.724 C 5.432 19.642,5.913 19.163,6.000 19.000 C 6.029 18.945,6.053 18.799,6.053 18.676 C 6.053 18.407,5.944 18.202,5.725 18.061 C 5.590 17.974,5.311 17.906,5.220 17.939 M18.580 17.939 C 18.558 17.947,18.492 17.964,18.433 17.976 C 18.294 18.007,18.094 18.177,18.012 18.335 C 17.933 18.487,17.926 18.862,18.000 19.000 C 18.087 19.163,18.568 19.642,18.728 19.724 C 19.012 19.869,19.393 19.804,19.607 19.575 C 19.814 19.354,19.863 18.999,19.724 18.728 C 19.647 18.577,19.165 18.087,19.020 18.011 C 18.930 17.964,18.642 17.917,18.580 17.939 M11.815 20.277 C 11.638 20.321,11.461 20.456,11.353 20.631 C 11.265 20.772,11.260 20.816,11.260 21.500 C 11.260 22.184,11.265 22.228,11.353 22.369 C 11.710 22.943,12.576 22.812,12.716 22.162 C 12.771 21.904,12.772 21.080,12.717 20.841 C 12.623 20.432,12.215 20.177,11.815 20.277 " stroke="none" fill-rule="evenodd" fill="black"></path></svg>