<svg width="24" height="24" viewBox="0 0 24 24" fill="none" xmlns="http://www.w3.org/2000/svg"><path d="M11.815 1.277 C 11.638 1.321,11.461 1.456,11.353 1.631 C 11.261 1.778,11.260 1.793,11.260 3.000 C 11.260 4.207,11.261 4.222,11.353 4.369 C 11.710 4.943,12.576 4.812,12.716 4.162 C 12.772 3.901,12.773 2.083,12.717 1.841 C 12.623 1.432,12.215 1.177,11.815 1.277 M3.887 3.566 C 3.553 3.731,3.400 4.139,3.537 4.497 C 3.593 4.645,3.794 4.847,4.801 5.767 C 5.459 6.368,6.065 6.891,6.149 6.929 C 6.544 7.109,7.019 6.887,7.162 6.455 C 7.236 6.229,7.153 5.917,6.967 5.726 C 6.550 5.300,4.656 3.611,4.528 3.551 C 4.327 3.457,4.095 3.463,3.887 3.566 M19.471 3.551 C 19.347 3.609,17.596 5.169,17.055 5.705 C 16.848 5.910,16.759 6.216,16.838 6.455 C 16.981 6.887,17.456 7.109,17.851 6.929 C 17.935 6.891,18.541 6.368,19.199 5.767 C 20.206 4.847,20.407 4.645,20.463 4.497 C 20.700 3.876,20.069 3.274,19.471 3.551 M11.533 6.282 C 9.517 6.447,7.758 7.641,6.851 9.460 C 6.072 11.023,6.072 12.977,6.851 14.540 C 8.149 17.142,11.146 18.367,13.895 17.418 C 14.564 17.187,15.254 16.784,15.787 16.313 C 17.543 14.763,18.184 12.323,17.418 10.105 C 16.771 8.233,15.117 6.776,13.189 6.383 C 12.932 6.330,11.989 6.229,11.920 6.246 C 11.909 6.249,11.735 6.265,11.533 6.282 M13.020 7.871 C 14.598 8.302,15.711 9.430,16.147 11.040 C 16.202 11.242,16.218 11.456,16.218 12.000 C 16.218 12.544,16.202 12.758,16.147 12.960 C 15.924 13.784,15.552 14.443,14.998 14.998 C 14.443 15.552,13.784 15.924,12.960 16.147 C 12.758 16.202,12.544 16.218,12.000 16.218 C 11.174 16.218,11.001 16.183,10.260 15.869 C 9.340 15.480,8.472 14.588,8.083 13.631 C 7.825 12.995,7.780 12.750,7.782 11.980 C 7.783 11.407,7.797 11.249,7.871 10.974 C 8.330 9.280,9.627 8.108,11.400 7.784 C 11.455 7.774,11.779 7.772,12.120 7.780 C 12.571 7.790,12.817 7.815,13.020 7.871 M1.815 11.278 C 1.331 11.393,1.098 12.004,1.383 12.408 C 1.605 12.722,1.676 12.738,2.869 12.753 C 4.122 12.768,4.296 12.744,4.519 12.521 C 4.918 12.122,4.731 11.423,4.189 11.286 C 3.983 11.235,2.025 11.228,1.815 11.278 M19.815 11.278 C 19.331 11.393,19.098 12.004,19.383 12.408 C 19.605 12.722,19.676 12.738,20.869 12.753 C 22.122 12.768,22.296 12.744,22.519 12.521 C 22.918 12.122,22.731 11.423,22.189 11.286 C 21.983 11.235,20.025 11.228,19.815 11.278 M6.200 16.847 C 6.015 16.900,3.669 19.218,3.556 19.460 C 3.342 19.921,3.638 20.454,4.140 20.510 C 4.498 20.551,4.560 20.503,5.888 19.170 C 6.968 18.085,7.118 17.919,7.160 17.764 C 7.267 17.361,7.039 16.950,6.649 16.842 C 6.472 16.793,6.387 16.794,6.200 16.847 M17.306 16.858 C 16.934 16.991,16.737 17.374,16.840 17.764 C 16.882 17.919,17.032 18.085,18.112 19.170 C 19.440 20.503,19.502 20.551,19.860 20.510 C 20.362 20.454,20.658 19.921,20.444 19.460 C 20.395 19.355,19.951 18.884,19.155 18.094 C 18.143 17.090,17.913 16.881,17.780 16.844 C 17.576 16.788,17.496 16.791,17.306 16.858 M11.815 19.277 C 11.638 19.321,11.461 19.456,11.353 19.631 C 11.261 19.778,11.260 19.793,11.260 21.000 C 11.260 22.207,11.261 22.222,11.353 22.369 C 11.710 22.943,12.576 22.812,12.716 22.162 C 12.772 21.901,12.773 20.083,12.717 19.841 C 12.623 19.432,12.215 19.177,11.815 19.277 " stroke="none" fill-rule="evenodd" fill="black"></path></svg>