<svg width="24" height="24" viewBox="0 0 24 24" fill="none" xmlns="http://www.w3.org/2000/svg"><path d="M11.815 1.277 C 11.638 1.321,11.461 1.456,11.353 1.631 C 11.265 1.772,11.260 1.816,11.260 2.500 C 11.260 3.184,11.265 3.228,11.353 3.369 C 11.710 3.943,12.576 3.812,12.716 3.162 C 12.771 2.904,12.772 2.080,12.717 1.841 C 12.623 1.432,12.215 1.177,11.815 1.277 M4.620 4.247 C 4.493 4.317,4.318 4.491,4.256 4.608 C 4.176 4.763,4.185 5.095,4.276 5.272 C 4.358 5.432,4.837 5.913,5.000 6.000 C 5.164 6.088,5.526 6.068,5.697 5.962 C 5.931 5.817,6.053 5.599,6.053 5.328 C 6.053 5.202,6.029 5.055,6.000 5.000 C 5.913 4.837,5.432 4.358,5.272 4.276 C 5.106 4.191,4.750 4.175,4.620 4.247 M18.740 4.266 C 18.586 4.347,18.141 4.780,18.031 4.956 C 17.971 5.052,17.947 5.156,17.947 5.320 C 17.947 5.600,18.037 5.772,18.271 5.936 C 18.409 6.033,18.478 6.053,18.669 6.053 C 18.955 6.053,19.031 6.014,19.374 5.684 C 19.694 5.376,19.800 5.192,19.800 4.944 C 19.800 4.640,19.653 4.393,19.392 4.256 C 19.249 4.182,18.891 4.187,18.740 4.266 M11.480 5.283 C 8.166 5.524,5.514 8.196,5.283 11.527 C 5.203 12.671,5.418 13.832,5.901 14.868 L 6.073 15.237 3.927 15.248 L 1.780 15.260 1.627 15.355 C 1.385 15.506,1.267 15.718,1.267 16.003 C 1.267 16.203,1.286 16.270,1.383 16.408 C 1.448 16.499,1.572 16.610,1.660 16.656 L 1.820 16.740 11.880 16.751 C 19.099 16.758,22.000 16.749,22.154 16.717 C 22.902 16.562,22.929 15.473,22.189 15.286 C 22.061 15.254,21.378 15.240,19.965 15.240 L 17.925 15.240 18.098 14.870 C 18.582 13.832,18.797 12.671,18.717 11.527 C 18.458 7.793,15.232 5.010,11.480 5.283 M13.080 6.859 C 13.690 6.995,14.410 7.296,14.893 7.617 C 15.416 7.964,16.036 8.584,16.383 9.107 C 16.715 9.608,17.011 10.326,17.147 10.960 C 17.238 11.382,17.248 12.604,17.165 12.980 C 17.068 13.418,16.875 13.976,16.697 14.331 C 16.517 14.691,16.254 15.106,16.150 15.192 C 16.105 15.229,15.158 15.238,11.977 15.230 L 7.863 15.220 7.719 15.029 C 7.370 14.567,7.060 13.887,6.892 13.212 C 6.794 12.823,6.784 12.707,6.782 12.040 C 6.780 11.240,6.828 10.906,7.028 10.320 C 7.152 9.958,7.424 9.398,7.617 9.107 C 7.964 8.584,8.584 7.964,9.107 7.617 C 9.613 7.281,10.356 6.976,10.940 6.864 C 11.116 6.831,11.296 6.795,11.340 6.784 C 11.526 6.740,12.789 6.794,13.080 6.859 M1.815 11.278 C 1.331 11.393,1.098 12.004,1.383 12.408 C 1.576 12.681,1.733 12.736,2.363 12.754 C 3.073 12.773,3.316 12.724,3.519 12.521 C 3.918 12.122,3.731 11.423,3.189 11.286 C 2.988 11.236,2.016 11.230,1.815 11.278 M20.815 11.278 C 20.331 11.393,20.098 12.004,20.383 12.408 C 20.576 12.681,20.733 12.736,21.363 12.754 C 22.073 12.773,22.316 12.724,22.519 12.521 C 22.918 12.122,22.731 11.423,22.189 11.286 C 21.988 11.236,21.016 11.230,20.815 11.278 M4.815 18.278 C 4.331 18.393,4.098 19.004,4.383 19.408 C 4.447 19.499,4.572 19.610,4.660 19.656 L 4.820 19.740 11.880 19.751 C 16.920 19.758,19.001 19.749,19.154 19.717 C 19.902 19.562,19.929 18.473,19.189 18.286 C 18.978 18.233,5.035 18.225,4.815 18.278 M7.815 21.278 C 7.331 21.393,7.098 22.004,7.383 22.408 C 7.447 22.499,7.572 22.610,7.660 22.656 C 7.819 22.739,7.851 22.740,11.879 22.751 C 14.744 22.759,16.001 22.749,16.153 22.717 C 16.902 22.562,16.930 21.473,16.189 21.286 C 15.979 21.234,8.034 21.226,7.815 21.278 " stroke="none" fill-rule="evenodd" fill="black"></path></svg>