<svg width="24" height="24" viewBox="0 0 24 24" fill="none" xmlns="http://www.w3.org/2000/svg"><path d="M4.800 1.277 C 4.255 1.324,3.900 1.444,3.475 1.727 C 2.914 2.099,2.521 2.661,2.332 3.360 C 2.269 3.591,2.261 3.831,2.261 5.500 C 2.261 7.169,2.269 7.409,2.332 7.640 C 2.609 8.667,3.341 9.403,4.340 9.661 C 4.735 9.763,6.253 9.766,6.640 9.666 C 7.328 9.487,7.900 9.088,8.273 8.525 C 8.601 8.031,8.704 7.660,8.744 6.830 L 8.772 6.240 10.003 6.240 L 11.234 6.240 11.247 7.230 C 11.260 8.191,11.263 8.224,11.355 8.373 C 11.506 8.615,11.718 8.733,12.003 8.733 C 12.203 8.733,12.270 8.714,12.408 8.617 C 12.718 8.398,12.738 8.315,12.753 7.210 L 12.766 6.240 13.997 6.240 L 15.228 6.240 15.256 6.830 C 15.271 7.155,15.312 7.537,15.347 7.680 C 15.582 8.639,16.354 9.407,17.340 9.661 C 17.569 9.720,17.781 9.734,18.500 9.734 C 19.219 9.734,19.431 9.720,19.660 9.661 C 20.659 9.403,21.391 8.667,21.668 7.640 C 21.731 7.409,21.739 7.169,21.739 5.500 C 21.739 3.831,21.731 3.591,21.668 3.360 C 21.389 2.326,20.660 1.598,19.640 1.335 C 19.266 1.238,17.734 1.238,17.360 1.335 C 16.674 1.512,16.101 1.912,15.727 2.475 C 15.399 2.969,15.296 3.340,15.256 4.170 L 15.228 4.760 12.000 4.760 L 8.771 4.760 8.743 4.170 C 8.727 3.846,8.688 3.472,8.656 3.340 C 8.419 2.364,7.639 1.583,6.660 1.343 C 6.376 1.273,5.287 1.235,4.800 1.277 M6.552 2.872 C 6.771 2.989,7.011 3.229,7.128 3.448 L 7.220 3.620 7.220 5.500 L 7.220 7.380 7.128 7.552 C 7.011 7.771,6.771 8.011,6.552 8.128 C 6.388 8.216,6.341 8.220,5.500 8.220 C 4.659 8.220,4.612 8.216,4.448 8.128 C 4.354 8.078,4.206 7.966,4.120 7.880 C 4.034 7.794,3.922 7.646,3.872 7.552 C 3.781 7.381,3.780 7.369,3.768 5.590 C 3.761 4.425,3.772 3.745,3.799 3.644 C 3.890 3.304,4.279 2.903,4.614 2.802 C 4.683 2.781,5.109 2.768,5.560 2.772 C 6.330 2.780,6.390 2.786,6.552 2.872 M19.552 2.872 C 19.771 2.989,20.011 3.229,20.128 3.448 L 20.220 3.620 20.220 5.500 L 20.220 7.380 20.128 7.552 C 20.011 7.771,19.771 8.011,19.552 8.128 C 19.388 8.216,19.341 8.220,18.500 8.220 C 17.659 8.220,17.612 8.216,17.448 8.128 C 17.229 8.011,16.989 7.771,16.872 7.552 C 16.781 7.381,16.780 7.369,16.768 5.590 C 16.761 4.425,16.772 3.745,16.799 3.644 C 16.890 3.304,17.279 2.903,17.614 2.802 C 17.683 2.781,18.109 2.768,18.560 2.772 C 19.330 2.780,19.390 2.786,19.552 2.872 M9.807 9.288 C 9.573 9.339,9.348 9.566,9.286 9.814 C 9.243 9.985,9.247 10.068,9.309 10.300 C 9.321 10.344,9.692 10.745,10.133 11.190 L 10.936 12.000 10.134 12.810 C 9.411 13.540,9.328 13.639,9.286 13.809 C 9.165 14.300,9.498 14.733,9.996 14.733 C 10.119 14.733,10.265 14.710,10.320 14.682 C 10.375 14.653,10.775 14.277,11.210 13.846 L 12.000 13.063 12.790 13.846 C 13.225 14.277,13.625 14.653,13.680 14.682 C 13.735 14.710,13.881 14.733,14.004 14.733 C 14.499 14.733,14.817 14.317,14.711 13.811 C 14.673 13.634,14.611 13.561,13.867 12.810 L 13.064 12.000 13.867 11.190 C 14.609 10.441,14.673 10.366,14.710 10.190 C 14.832 9.611,14.389 9.168,13.810 9.290 C 13.634 9.327,13.559 9.391,12.810 10.133 L 12.000 10.936 11.190 10.133 C 10.538 9.487,10.353 9.324,10.240 9.302 C 10.163 9.287,10.073 9.268,10.040 9.262 C 10.007 9.255,9.902 9.267,9.807 9.288 M4.800 14.277 C 4.255 14.324,3.900 14.444,3.475 14.727 C 2.914 15.099,2.521 15.661,2.332 16.360 C 2.269 16.591,2.261 16.831,2.261 18.500 C 2.261 20.169,2.269 20.409,2.332 20.640 C 2.609 21.667,3.341 22.403,4.340 22.661 C 4.569 22.720,4.781 22.734,5.500 22.734 C 6.219 22.734,6.431 22.720,6.660 22.661 C 7.653 22.405,8.417 21.638,8.657 20.660 C 8.689 20.528,8.728 20.155,8.744 19.830 L 8.772 19.240 12.000 19.240 L 15.228 19.240 15.256 19.830 C 15.271 20.155,15.312 20.537,15.347 20.680 C 15.582 21.639,16.354 22.407,17.340 22.661 C 17.569 22.720,17.781 22.734,18.500 22.734 C 19.219 22.734,19.431 22.720,19.660 22.661 C 20.659 22.403,21.390 21.668,21.669 20.640 C 21.731 20.409,21.739 20.171,21.739 18.500 C 21.738 16.836,21.730 16.590,21.668 16.360 C 21.390 15.327,20.660 14.598,19.640 14.335 C 19.435 14.282,19.193 14.268,18.500 14.268 C 17.807 14.268,17.565 14.282,17.360 14.335 C 16.674 14.512,16.101 14.912,15.727 15.475 C 15.399 15.969,15.296 16.340,15.256 17.170 L 15.228 17.760 13.994 17.760 L 12.760 17.760 12.760 16.902 C 12.760 15.873,12.729 15.689,12.520 15.480 C 12.122 15.082,11.423 15.270,11.286 15.811 C 11.258 15.923,11.240 16.342,11.240 16.878 L 11.240 17.760 10.005 17.760 L 8.771 17.760 8.743 17.170 C 8.727 16.846,8.688 16.472,8.656 16.340 C 8.419 15.364,7.639 14.583,6.660 14.343 C 6.376 14.273,5.287 14.235,4.800 14.277 M6.552 15.872 C 6.771 15.989,7.011 16.229,7.128 16.448 L 7.220 16.620 7.220 18.500 L 7.220 20.380 7.128 20.552 C 7.011 20.771,6.771 21.011,6.552 21.128 C 6.388 21.216,6.341 21.220,5.500 21.220 C 4.659 21.220,4.612 21.216,4.448 21.128 C 4.229 21.011,3.989 20.771,3.872 20.552 C 3.781 20.381,3.780 20.369,3.768 18.590 C 3.761 17.425,3.772 16.745,3.799 16.644 C 3.890 16.304,4.279 15.903,4.614 15.802 C 4.683 15.781,5.109 15.768,5.560 15.772 C 6.330 15.780,6.390 15.786,6.552 15.872 M19.552 15.872 C 19.771 15.989,20.011 16.229,20.128 16.448 L 20.220 16.620 20.220 18.500 L 20.220 20.380 20.128 20.552 C 20.011 20.771,19.771 21.011,19.552 21.128 C 19.388 21.216,19.341 21.220,18.500 21.220 C 17.659 21.220,17.612 21.216,17.448 21.128 C 17.229 21.011,16.989 20.771,16.872 20.552 C 16.781 20.381,16.780 20.369,16.768 18.590 C 16.761 17.425,16.772 16.745,16.799 16.644 C 16.890 16.304,17.279 15.903,17.614 15.802 C 17.683 15.781,18.109 15.768,18.560 15.772 C 19.330 15.780,19.390 15.786,19.552 15.872 " stroke="none" fill-rule="evenodd" fill="black"></path></svg>