<svg width="24" height="24" viewBox="0 0 24 24" fill="none" xmlns="http://www.w3.org/2000/svg"><path d="M16.611 2.281 C 15.327 2.416,14.198 3.398,13.851 4.680 C 13.753 5.043,13.753 5.957,13.851 6.320 C 14.154 7.438,15.074 8.356,16.180 8.643 C 16.627 8.759,17.373 8.759,17.820 8.643 C 18.926 8.356,19.846 7.438,20.149 6.320 C 20.258 5.917,20.247 5.038,20.129 4.628 C 19.811 3.526,18.905 2.630,17.840 2.365 C 17.471 2.274,16.994 2.241,16.611 2.281 M7.364 2.983 C 6.311 3.266,5.628 4.329,5.798 5.420 C 5.872 5.896,6.079 6.250,6.725 7.000 C 7.037 7.363,7.326 7.714,7.366 7.780 C 7.467 7.944,7.464 8.277,7.360 8.479 C 7.260 8.676,7.271 8.669,5.280 9.859 C 4.367 10.405,3.569 10.898,3.506 10.956 C 3.197 11.240,3.174 11.671,3.451 11.986 C 3.674 12.240,4.015 12.312,4.312 12.168 C 4.393 12.129,5.269 11.612,6.258 11.018 C 7.613 10.206,8.111 9.886,8.281 9.720 C 9.086 8.933,9.168 7.639,8.469 6.750 C 8.378 6.634,8.104 6.306,7.859 6.020 C 7.615 5.734,7.384 5.455,7.347 5.401 C 7.262 5.276,7.258 4.918,7.340 4.760 C 7.426 4.594,7.651 4.436,7.839 4.411 C 8.220 4.360,8.045 4.182,11.681 8.304 C 14.016 10.951,15.064 12.111,15.168 12.164 C 15.420 12.293,15.800 12.241,16.013 12.048 C 16.262 11.823,16.307 11.383,16.111 11.092 C 15.934 10.829,9.529 3.589,9.312 3.407 C 8.907 3.067,8.479 2.918,7.922 2.923 C 7.734 2.924,7.483 2.951,7.364 2.983 M17.503 3.823 C 17.622 3.857,17.825 3.956,17.955 4.043 C 18.882 4.662,19.011 5.947,18.225 6.734 C 17.868 7.090,17.507 7.239,17.000 7.239 C 16.496 7.239,16.132 7.090,15.781 6.739 C 15.239 6.198,15.103 5.460,15.418 4.773 C 15.614 4.345,16.007 3.988,16.447 3.838 C 16.717 3.746,17.215 3.739,17.503 3.823 M5.491 12.152 C 5.025 12.319,4.818 12.511,4.287 13.272 C 3.649 14.187,3.025 14.669,2.100 14.963 C 1.599 15.122,1.481 15.193,1.360 15.408 C 1.127 15.823,1.327 16.331,1.784 16.481 C 1.977 16.545,2.197 16.511,2.714 16.338 C 3.909 15.939,4.810 15.192,5.714 13.850 C 5.976 13.463,6.097 13.469,6.443 13.891 C 6.556 14.028,6.831 14.326,7.054 14.554 C 8.628 16.158,10.414 16.863,12.543 16.720 C 13.598 16.649,14.373 16.448,15.219 16.028 C 16.119 15.582,16.800 15.024,17.535 14.130 C 17.943 13.635,18.095 13.620,18.411 14.044 C 18.871 14.662,19.077 14.906,19.383 15.196 C 19.982 15.763,20.721 16.183,21.534 16.418 C 21.946 16.536,22.067 16.543,22.271 16.458 C 22.698 16.280,22.864 15.806,22.640 15.408 C 22.519 15.194,22.401 15.122,21.912 14.966 C 20.915 14.649,20.361 14.207,19.590 13.114 C 19.049 12.348,18.258 12.072,17.424 12.359 C 17.050 12.487,16.780 12.698,16.395 13.164 C 15.505 14.239,14.611 14.812,13.360 15.107 C 12.787 15.242,11.726 15.278,11.142 15.183 C 10.219 15.031,9.362 14.620,8.600 13.964 C 8.457 13.841,8.160 13.543,7.940 13.302 C 7.217 12.510,7.058 12.364,6.770 12.229 C 6.533 12.117,6.452 12.101,6.100 12.090 C 5.789 12.081,5.654 12.095,5.491 12.152 M5.491 17.152 C 5.025 17.319,4.818 17.511,4.287 18.272 C 3.649 19.187,3.025 19.669,2.100 19.963 C 1.599 20.122,1.481 20.193,1.360 20.408 C 1.127 20.823,1.327 21.331,1.784 21.481 C 1.977 21.545,2.197 21.511,2.714 21.338 C 3.909 20.939,4.810 20.192,5.714 18.850 C 5.976 18.463,6.097 18.469,6.443 18.891 C 6.556 19.028,6.831 19.326,7.054 19.554 C 8.628 21.158,10.414 21.863,12.543 21.720 C 13.598 21.649,14.373 21.448,15.219 21.028 C 16.119 20.582,16.800 20.024,17.535 19.130 C 17.943 18.635,18.095 18.620,18.411 19.044 C 18.871 19.662,19.077 19.906,19.383 20.196 C 19.982 20.763,20.721 21.183,21.534 21.418 C 21.946 21.536,22.067 21.543,22.271 21.458 C 22.698 21.280,22.864 20.806,22.640 20.408 C 22.519 20.194,22.401 20.122,21.912 19.966 C 20.915 19.649,20.361 19.207,19.590 18.114 C 19.049 17.348,18.258 17.072,17.424 17.359 C 17.050 17.487,16.780 17.698,16.395 18.164 C 15.505 19.239,14.611 19.812,13.360 20.107 C 12.787 20.242,11.726 20.278,11.142 20.183 C 10.219 20.031,9.362 19.620,8.600 18.964 C 8.457 18.841,8.160 18.543,7.940 18.302 C 7.217 17.510,7.058 17.364,6.770 17.229 C 6.533 17.117,6.452 17.101,6.100 17.090 C 5.789 17.081,5.654 17.095,5.491 17.152 " stroke="none" fill-rule="evenodd" fill="black"></path></svg>