<svg width="24" height="24" viewBox="0 0 24 24" fill="none" xmlns="http://www.w3.org/2000/svg"><path d="M16.934 3.278 C 16.469 3.389,16.211 3.912,16.420 4.323 C 16.459 4.398,16.713 4.686,16.984 4.961 L 17.479 5.462 16.920 6.020 L 16.362 6.577 15.471 5.696 C 14.981 5.211,14.480 4.741,14.358 4.652 C 13.855 4.283,13.351 4.120,12.724 4.121 C 12.070 4.122,11.600 4.281,11.059 4.683 C 10.905 4.797,9.537 6.135,8.018 7.655 C 5.018 10.658,4.948 10.737,4.538 11.580 C 4.294 12.082,4.156 12.486,4.032 13.060 C 3.907 13.634,3.907 14.725,4.032 15.303 C 4.207 16.116,4.545 16.923,4.951 17.500 L 5.148 17.780 4.238 18.700 C 3.451 19.494,3.321 19.644,3.281 19.795 C 3.130 20.365,3.635 20.870,4.205 20.719 C 4.356 20.679,4.506 20.549,5.300 19.762 L 6.220 18.852 6.500 19.049 C 7.077 19.455,7.884 19.793,8.697 19.968 C 9.277 20.093,10.365 20.093,10.946 19.968 C 11.790 19.786,12.586 19.443,13.255 18.972 C 13.491 18.807,14.345 17.979,16.363 15.962 C 17.894 14.432,19.232 13.063,19.337 12.921 C 19.733 12.382,19.883 11.934,19.883 11.280 C 19.883 10.809,19.821 10.517,19.636 10.121 C 19.452 9.725,19.260 9.495,18.304 8.529 L 17.423 7.638 17.980 7.080 L 18.538 6.521 19.039 7.016 C 19.314 7.287,19.602 7.541,19.677 7.580 C 20.226 7.859,20.897 7.304,20.724 6.713 C 20.680 6.563,20.463 6.329,19.107 4.967 C 18.245 4.102,17.495 3.371,17.440 3.343 C 17.301 3.270,17.083 3.243,16.934 3.278 M13.290 5.745 C 13.590 5.903,18.096 10.407,18.252 10.706 C 18.396 10.980,18.430 11.315,18.345 11.609 C 18.267 11.876,18.096 12.102,17.523 12.690 L 17.100 13.124 13.988 10.009 L 10.875 6.895 11.308 6.478 C 11.894 5.913,12.089 5.759,12.333 5.672 C 12.623 5.568,13.008 5.597,13.290 5.745 M12.930 11.070 C 14.618 12.758,16.000 14.158,16.000 14.180 C 16.000 14.203,15.757 14.464,15.460 14.760 L 14.920 15.299 13.710 14.094 C 13.045 13.431,12.446 12.862,12.380 12.829 C 12.075 12.678,11.782 12.713,11.534 12.931 C 11.299 13.137,11.215 13.461,11.322 13.747 C 11.345 13.809,11.925 14.422,12.612 15.110 L 13.859 16.360 13.571 16.648 L 13.282 16.937 12.651 16.313 C 12.152 15.820,11.985 15.680,11.859 15.645 C 11.638 15.583,11.525 15.590,11.340 15.676 C 10.933 15.864,10.775 16.271,10.957 16.660 C 11.000 16.753,11.259 17.046,11.574 17.357 C 11.872 17.653,12.106 17.910,12.095 17.928 C 12.058 17.989,11.530 18.237,11.215 18.343 C 11.046 18.400,10.773 18.472,10.610 18.503 C 10.228 18.576,9.412 18.576,9.030 18.503 C 7.345 18.181,6.016 16.946,5.570 15.288 C 5.475 14.937,5.465 14.831,5.465 14.180 C 5.465 13.529,5.475 13.423,5.570 13.072 C 5.698 12.597,5.925 12.104,6.205 11.691 C 6.354 11.471,6.909 10.885,8.097 9.690 C 9.021 8.761,9.796 8.000,9.818 8.000 C 9.841 8.000,11.241 9.381,12.930 11.070 " fill="#1C274C" stroke="none" fill-rule="evenodd"></path></svg>