<svg width="24" height="24" viewBox="0 0 24 24" fill="none" xmlns="http://www.w3.org/2000/svg"><path d="M7.060 1.284 C 6.747 1.328,6.379 1.473,5.937 1.726 C 5.470 1.993,4.706 2.504,4.346 2.790 C 3.928 3.122,2.898 4.142,2.700 4.420 C 2.404 4.835,2.272 5.229,2.272 5.700 C 2.272 6.184,2.425 6.609,2.761 7.058 C 2.919 7.271,3.620 7.965,4.411 8.694 C 4.670 8.933,4.913 9.185,4.951 9.254 C 5.015 9.371,5.022 9.763,5.043 14.640 C 5.069 20.411,5.056 20.123,5.309 20.697 C 5.530 21.200,5.815 21.537,6.260 21.822 C 6.552 22.009,6.813 22.106,7.380 22.240 C 10.140 22.894,13.860 22.894,16.620 22.240 C 17.187 22.106,17.448 22.009,17.740 21.822 C 18.185 21.537,18.470 21.200,18.691 20.697 C 18.943 20.124,18.931 20.409,18.957 14.640 C 18.978 9.763,18.985 9.371,19.049 9.254 C 19.087 9.185,19.330 8.933,19.589 8.694 C 20.380 7.965,21.081 7.271,21.239 7.058 C 21.773 6.344,21.872 5.604,21.539 4.820 C 21.415 4.526,21.134 4.185,20.535 3.599 C 19.870 2.949,19.577 2.706,18.947 2.283 C 17.365 1.219,16.815 1.081,15.505 1.422 C 14.772 1.612,14.376 1.859,14.010 2.353 C 13.466 3.087,13.146 3.338,12.540 3.504 C 12.283 3.575,11.717 3.575,11.460 3.504 C 10.854 3.338,10.534 3.087,9.990 2.353 C 9.622 1.857,9.224 1.610,8.486 1.420 C 7.820 1.249,7.511 1.220,7.060 1.284 M8.089 2.857 C 8.556 2.987,8.651 3.049,8.907 3.399 C 9.487 4.191,10.120 4.660,10.937 4.905 C 12.483 5.368,14.085 4.798,15.066 3.435 C 15.336 3.060,15.448 2.983,15.911 2.856 C 16.309 2.746,16.674 2.733,16.919 2.820 C 17.236 2.931,18.362 3.651,18.800 4.021 C 19.195 4.355,20.009 5.176,20.126 5.358 C 20.278 5.596,20.279 5.804,20.126 6.042 C 20.006 6.230,19.429 6.806,18.604 7.562 C 18.053 8.068,17.857 8.296,17.701 8.615 C 17.483 9.061,17.483 9.050,17.481 14.320 C 17.479 17.200,17.463 19.332,17.439 19.552 C 17.373 20.186,17.169 20.501,16.715 20.671 C 16.349 20.808,15.281 21.003,14.120 21.147 C 13.284 21.250,10.716 21.250,9.880 21.147 C 8.719 21.003,7.651 20.808,7.285 20.671 C 6.831 20.501,6.627 20.186,6.561 19.552 C 6.537 19.332,6.521 17.200,6.519 14.320 C 6.517 9.050,6.517 9.061,6.299 8.615 C 6.135 8.279,5.943 8.063,5.191 7.370 C 4.281 6.531,4.010 6.258,3.873 6.042 C 3.722 5.804,3.722 5.595,3.874 5.358 C 3.991 5.176,4.806 4.354,5.200 4.021 C 5.626 3.661,6.695 2.973,7.040 2.835 C 7.295 2.734,7.670 2.742,8.089 2.857 " stroke="none" fill-rule="evenodd" fill="black"></path></svg>