<svg width="24" height="24" viewBox="0 0 24 24" fill="none" xmlns="http://www.w3.org/2000/svg"><path d="M7.400 3.283 C 4.821 3.356,3.626 3.697,2.669 4.635 C 1.940 5.348,1.564 6.261,1.379 7.767 C 1.271 8.652,1.218 11.735,1.273 13.891 C 1.321 15.727,1.361 16.284,1.497 17.011 C 1.809 18.677,2.744 19.806,4.221 20.302 C 5.354 20.682,6.645 20.758,12.000 20.758 C 17.355 20.758,18.646 20.682,19.779 20.302 C 21.016 19.886,21.886 19.016,22.302 17.779 C 22.587 16.928,22.670 16.166,22.728 13.870 C 22.764 12.440,22.764 11.560,22.728 10.130 C 22.670 7.834,22.587 7.072,22.302 6.221 C 21.886 4.984,21.016 4.114,19.779 3.698 C 19.005 3.439,18.137 3.331,16.400 3.280 C 14.906 3.237,8.973 3.238,7.400 3.283 M17.340 4.801 C 18.245 4.860,18.701 4.931,19.200 5.089 C 20.137 5.386,20.657 5.927,20.939 6.901 C 21.190 7.768,21.240 8.610,21.240 12.000 C 21.240 15.383,21.190 16.233,20.941 17.093 C 20.647 18.109,20.111 18.646,19.099 18.939 C 18.624 19.077,18.128 19.148,17.260 19.201 C 16.281 19.262,6.622 19.231,6.080 19.165 C 3.790 18.888,3.076 18.157,2.833 15.840 C 2.758 15.128,2.758 8.872,2.833 8.160 C 3.090 5.704,3.897 4.982,6.580 4.804 C 7.289 4.756,16.629 4.754,17.340 4.801 M8.815 16.278 C 8.331 16.393,8.098 17.004,8.383 17.408 C 8.447 17.499,8.572 17.610,8.660 17.656 C 8.818 17.739,8.865 17.740,11.878 17.751 C 14.020 17.759,15.000 17.749,15.151 17.718 C 15.902 17.562,15.931 16.473,15.189 16.286 C 14.979 16.234,9.033 16.226,8.815 16.278 " stroke="none" fill-rule="evenodd" fill="black"></path></svg>