<svg width="24" height="24" viewBox="0 0 24 24" fill="none" xmlns="http://www.w3.org/2000/svg"><path d="M11.437 1.286 C 10.815 1.325,10.118 1.461,7.760 2.005 C 5.556 2.513,5.034 2.663,4.460 2.950 C 3.735 3.314,3.315 3.734,2.950 4.460 C 2.657 5.046,2.511 5.559,1.964 7.940 C 1.358 10.578,1.281 11.022,1.280 11.846 C 1.280 12.993,1.550 13.701,2.392 14.760 C 2.723 15.176,7.251 19.745,8.120 20.540 C 9.758 22.038,10.725 22.596,11.889 22.715 C 13.232 22.851,14.414 22.322,16.081 20.837 C 16.692 20.292,19.908 17.091,20.573 16.365 C 22.036 14.769,22.597 13.792,22.715 12.631 C 22.834 11.458,22.414 10.359,21.343 9.041 C 20.772 8.338,19.977 7.511,17.593 5.137 C 14.827 2.383,14.487 2.082,13.660 1.671 C 12.964 1.324,12.400 1.227,11.437 1.286 M12.448 2.804 C 12.760 2.868,13.252 3.120,13.660 3.425 C 13.904 3.608,14.901 4.575,16.763 6.437 C 20.043 9.717,20.489 10.217,20.921 11.094 C 21.186 11.634,21.255 11.922,21.229 12.380 C 21.188 13.112,20.835 13.785,19.937 14.840 C 19.429 15.438,15.438 19.429,14.840 19.937 C 14.064 20.597,13.498 20.954,12.920 21.147 C 12.611 21.250,11.905 21.249,11.600 21.145 C 10.992 20.938,10.434 20.580,9.580 19.848 C 8.898 19.263,3.729 14.066,3.425 13.660 C 3.102 13.228,2.863 12.752,2.797 12.407 C 2.723 12.024,2.772 11.289,2.919 10.540 C 3.099 9.627,3.820 6.515,3.982 5.952 C 4.342 4.702,4.702 4.341,5.940 3.986 C 6.876 3.717,10.741 2.851,11.280 2.789 C 11.584 2.754,12.247 2.762,12.448 2.804 M8.260 6.158 C 7.476 6.253,6.781 6.683,6.321 7.360 C 6.003 7.828,5.881 8.250,5.881 8.880 C 5.881 9.686,6.131 10.291,6.685 10.828 C 7.083 11.213,7.388 11.394,7.858 11.522 C 8.251 11.630,8.932 11.639,9.300 11.542 C 10.251 11.292,11.048 10.480,11.284 9.520 C 11.354 9.238,11.354 8.525,11.285 8.240 C 11.210 7.929,10.956 7.420,10.742 7.150 C 10.171 6.432,9.204 6.045,8.260 6.158 M9.152 7.755 C 9.389 7.877,9.629 8.128,9.743 8.373 C 9.878 8.664,9.878 9.096,9.743 9.387 C 9.629 9.632,9.389 9.883,9.152 10.005 C 8.910 10.128,8.479 10.153,8.195 10.058 C 7.896 9.959,7.521 9.585,7.422 9.287 C 7.329 9.006,7.350 8.606,7.471 8.357 C 7.595 8.103,7.895 7.816,8.137 7.720 C 8.414 7.610,8.904 7.627,9.152 7.755 M18.320 10.809 C 18.149 10.844,17.952 11.034,14.546 14.433 C 12.073 16.901,10.928 18.070,10.877 18.180 C 10.782 18.383,10.781 18.615,10.875 18.820 C 10.963 19.010,11.052 19.096,11.250 19.178 C 11.446 19.260,11.665 19.255,11.860 19.163 C 11.970 19.112,13.134 17.971,15.586 15.514 C 17.547 13.548,19.174 11.895,19.202 11.840 C 19.230 11.785,19.253 11.636,19.253 11.509 C 19.253 11.318,19.233 11.249,19.137 11.112 C 18.949 10.847,18.658 10.739,18.320 10.809 " stroke="none" fill-rule="evenodd" fill="black"></path></svg>