<svg width="24" height="24" viewBox="0 0 24 24" fill="none" xmlns="http://www.w3.org/2000/svg"><path d="M8.120 3.281 C 7.007 3.314,6.177 3.387,5.611 3.502 C 3.618 3.906,2.477 5.019,2.045 6.980 C 1.820 8.004,1.761 9.144,1.761 12.500 C 1.761 15.856,1.820 16.996,2.045 18.020 C 2.452 19.864,3.505 20.977,5.265 21.417 C 6.280 21.671,7.058 21.719,10.680 21.746 C 14.070 21.772,15.827 21.729,16.540 21.602 C 18.068 21.330,18.878 20.700,20.044 18.879 C 20.996 17.393,22.483 14.888,22.764 14.300 C 23.424 12.915,23.398 11.943,22.661 10.500 C 22.186 9.570,19.982 5.961,19.455 5.250 C 19.163 4.857,18.571 4.264,18.260 4.053 C 17.661 3.648,16.988 3.432,15.980 3.320 C 15.476 3.264,9.646 3.235,8.120 3.281 M15.770 4.802 C 17.144 4.923,17.711 5.300,18.647 6.720 C 19.094 7.398,20.271 9.319,20.889 10.380 C 21.889 12.097,21.957 12.581,21.363 13.760 C 21.006 14.467,19.209 17.452,18.545 18.440 C 18.065 19.154,17.578 19.651,17.160 19.854 C 16.777 20.040,16.365 20.144,15.794 20.197 C 15.193 20.253,8.199 20.254,7.339 20.198 C 5.730 20.093,4.916 19.853,4.339 19.313 C 3.641 18.660,3.374 17.709,3.281 15.540 C 3.230 14.353,3.230 10.647,3.281 9.460 C 3.374 7.291,3.641 6.340,4.339 5.687 C 4.903 5.159,5.765 4.899,7.260 4.804 C 8.042 4.755,15.212 4.753,15.770 4.802 M7.314 7.277 C 7.128 7.337,6.979 7.443,6.878 7.591 L 6.780 7.734 6.768 12.397 C 6.762 14.962,6.768 17.119,6.780 17.191 C 6.808 17.345,7.001 17.578,7.175 17.668 C 7.333 17.750,7.667 17.750,7.825 17.668 C 7.999 17.578,8.192 17.345,8.220 17.191 C 8.232 17.119,8.238 14.962,8.232 12.397 L 8.220 7.734 8.121 7.589 C 7.950 7.339,7.574 7.194,7.314 7.277 " stroke="none" fill-rule="evenodd" fill="black"></path></svg>