<svg width="24" height="24" viewBox="0 0 24 24" fill="none" xmlns="http://www.w3.org/2000/svg"><path d="M11.420 1.288 C 10.876 1.322,9.959 1.500,7.940 1.964 C 5.558 2.512,5.046 2.657,4.460 2.950 C 3.735 3.314,3.315 3.734,2.950 4.460 C 2.657 5.046,2.511 5.559,1.964 7.940 C 1.358 10.578,1.281 11.022,1.280 11.846 C 1.280 12.993,1.550 13.701,2.392 14.760 C 2.723 15.176,7.251 19.745,8.120 20.540 C 9.758 22.038,10.725 22.596,11.889 22.715 C 13.232 22.851,14.414 22.322,16.081 20.837 C 16.692 20.292,19.908 17.091,20.573 16.365 C 22.036 14.769,22.597 13.792,22.715 12.631 C 22.834 11.458,22.414 10.359,21.343 9.041 C 20.772 8.338,19.977 7.511,17.593 5.137 C 14.827 2.383,14.487 2.082,13.660 1.671 C 12.960 1.322,12.400 1.226,11.420 1.288 M12.448 2.804 C 12.760 2.868,13.252 3.120,13.660 3.425 C 13.904 3.608,14.901 4.575,16.763 6.437 C 20.043 9.717,20.489 10.217,20.921 11.094 C 21.186 11.634,21.255 11.922,21.229 12.380 C 21.188 13.112,20.834 13.786,19.937 14.840 C 19.426 15.440,15.435 19.431,14.840 19.937 C 14.063 20.598,13.497 20.954,12.920 21.147 C 12.611 21.250,11.905 21.249,11.600 21.145 C 10.992 20.938,10.434 20.580,9.580 19.848 C 8.898 19.263,3.729 14.066,3.425 13.660 C 3.102 13.228,2.863 12.752,2.797 12.407 C 2.723 12.024,2.772 11.289,2.919 10.540 C 3.099 9.627,3.820 6.515,3.982 5.952 C 4.342 4.702,4.702 4.341,5.940 3.986 C 6.876 3.717,10.741 2.851,11.280 2.789 C 11.584 2.754,12.247 2.762,12.448 2.804 M8.260 6.158 C 7.473 6.253,6.783 6.682,6.316 7.367 C 6.011 7.814,5.881 8.266,5.881 8.880 C 5.881 9.686,6.131 10.291,6.685 10.828 C 7.083 11.213,7.388 11.394,7.858 11.522 C 8.251 11.630,8.932 11.639,9.300 11.542 C 10.251 11.292,11.048 10.480,11.284 9.520 C 11.354 9.238,11.354 8.525,11.285 8.240 C 11.210 7.929,10.956 7.420,10.742 7.150 C 10.171 6.432,9.204 6.045,8.260 6.158 M9.152 7.755 C 9.389 7.877,9.629 8.128,9.743 8.373 C 9.878 8.664,9.878 9.096,9.743 9.387 C 9.538 9.826,9.162 10.083,8.680 10.111 C 8.285 10.133,8.008 10.033,7.747 9.772 C 7.462 9.487,7.380 9.288,7.380 8.880 C 7.380 8.608,7.398 8.503,7.470 8.357 C 7.596 8.102,7.895 7.816,8.137 7.720 C 8.414 7.610,8.904 7.627,9.152 7.755 M12.605 10.643 C 12.487 10.664,12.283 10.724,12.152 10.777 C 11.933 10.865,11.903 10.869,11.778 10.817 C 11.517 10.708,11.128 10.787,10.952 10.986 C 10.771 11.189,10.713 11.530,10.817 11.778 C 10.869 11.903,10.865 11.933,10.777 12.152 C 10.189 13.608,11.256 15.053,12.761 14.840 C 13.294 14.764,13.666 14.583,14.123 14.177 C 14.371 13.957,14.537 13.880,14.761 13.880 C 14.992 13.880,15.120 14.014,15.120 14.256 C 15.120 14.491,15.074 14.602,14.895 14.801 C 14.669 15.051,14.483 15.129,14.132 15.124 C 13.734 15.118,13.481 15.249,13.330 15.539 C 13.251 15.692,13.251 16.028,13.331 16.181 C 13.409 16.331,13.590 16.504,13.720 16.552 C 14.048 16.676,14.662 16.635,15.091 16.462 C 15.311 16.373,15.342 16.369,15.444 16.422 C 15.669 16.539,16.036 16.477,16.254 16.285 C 16.459 16.105,16.536 15.731,16.423 15.462 C 16.371 15.337,16.375 15.307,16.463 15.087 C 16.839 14.156,16.564 13.177,15.783 12.672 C 15.465 12.467,15.198 12.394,14.760 12.394 C 14.165 12.394,13.627 12.607,13.166 13.024 C 12.891 13.273,12.713 13.360,12.479 13.360 C 12.043 13.360,11.983 12.822,12.374 12.407 C 12.546 12.224,12.690 12.156,13.032 12.097 C 13.511 12.013,13.732 11.771,13.728 11.333 C 13.724 10.806,13.268 10.526,12.605 10.643 " stroke="none" fill-rule="evenodd" fill="black"></path></svg>