<svg width="24" height="24" viewBox="0 0 24 24" fill="none" xmlns="http://www.w3.org/2000/svg"><path d="M11.320 1.281 C 7.041 1.525,3.252 4.409,1.843 8.497 C 1.180 10.418,1.082 12.560,1.564 14.550 C 2.505 18.428,5.572 21.495,9.450 22.436 C 11.106 22.837,12.894 22.837,14.550 22.436 C 18.428 21.495,21.495 18.428,22.436 14.550 C 22.837 12.894,22.837 11.106,22.436 9.450 C 21.425 5.282,17.985 2.095,13.742 1.398 C 13.334 1.331,12.074 1.229,11.880 1.247 C 11.847 1.250,11.595 1.265,11.320 1.281 M11.353 5.369 C 11.710 5.943,12.576 5.812,12.716 5.162 C 12.742 5.040,12.760 4.511,12.760 3.866 L 12.760 2.775 13.070 2.810 C 14.764 3.000,16.572 3.769,17.860 4.847 C 18.318 5.230,18.770 5.682,19.153 6.140 C 20.230 7.428,21.000 9.237,21.190 10.927 L 21.224 11.235 19.999 11.247 L 18.774 11.260 18.612 11.367 C 18.372 11.526,18.267 11.721,18.267 12.007 C 18.267 12.203,18.286 12.270,18.383 12.408 C 18.610 12.728,18.657 12.738,20.022 12.753 L 21.224 12.765 21.190 13.073 C 20.999 14.775,20.215 16.604,19.121 17.900 C 18.793 18.288,18.158 18.915,17.787 19.217 C 16.510 20.257,14.720 21.005,13.070 21.190 L 12.760 21.225 12.760 20.134 C 12.760 18.860,12.736 18.696,12.522 18.482 C 12.173 18.133,11.619 18.203,11.353 18.631 C 11.262 18.777,11.260 18.804,11.247 20.002 L 11.235 21.224 10.927 21.190 C 9.237 21.000,7.428 20.230,6.140 19.153 C 5.682 18.770,5.230 18.318,4.847 17.860 C 3.769 16.572,3.000 14.764,2.810 13.070 L 2.775 12.760 3.866 12.760 C 5.143 12.760,5.303 12.737,5.520 12.520 C 5.918 12.122,5.730 11.423,5.189 11.286 C 5.071 11.257,4.602 11.240,3.890 11.240 L 2.775 11.240 2.810 10.930 C 3.000 9.236,3.769 7.428,4.847 6.140 C 5.746 5.066,6.724 4.293,7.940 3.696 C 8.862 3.244,9.834 2.950,10.820 2.827 L 11.220 2.777 11.240 3.998 C 11.259 5.189,11.262 5.224,11.353 5.369 M11.815 9.277 C 11.638 9.321,11.461 9.456,11.353 9.631 C 11.266 9.770,11.259 9.829,11.246 10.506 L 11.232 11.232 10.503 11.246 C 9.790 11.260,9.770 11.262,9.612 11.367 C 9.372 11.526,9.267 11.721,9.267 12.007 C 9.267 12.203,9.286 12.270,9.383 12.408 C 9.590 12.700,9.716 12.738,10.526 12.754 L 11.232 12.768 11.246 13.494 C 11.259 14.171,11.266 14.230,11.353 14.369 C 11.710 14.943,12.576 14.812,12.716 14.162 C 12.740 14.049,12.760 13.687,12.760 13.358 L 12.760 12.760 13.358 12.760 C 14.121 12.760,14.321 12.719,14.520 12.520 C 14.918 12.122,14.730 11.423,14.189 11.286 C 14.087 11.261,13.725 11.240,13.382 11.240 L 12.760 11.240 12.759 10.630 C 12.758 9.950,12.720 9.720,12.580 9.536 C 12.421 9.327,12.078 9.211,11.815 9.277 " stroke="none" fill-rule="evenodd" fill="black"></path></svg>