<svg width="24" height="24" viewBox="0 0 24 24" fill="none" xmlns="http://www.w3.org/2000/svg"><path d="M9.803 1.288 C 9.408 1.377,8.963 2.037,8.871 2.670 C 8.776 3.329,8.957 3.941,9.398 4.452 C 9.728 4.835,9.746 5.119,9.463 5.483 C 8.988 6.092,9.447 6.868,10.188 6.710 C 10.593 6.624,11.036 5.973,11.129 5.330 C 11.224 4.671,11.043 4.059,10.602 3.548 C 10.272 3.165,10.254 2.882,10.536 2.517 C 10.715 2.285,10.770 2.081,10.716 1.844 C 10.621 1.419,10.243 1.189,9.803 1.288 M5.180 2.835 C 4.899 2.963,4.487 3.485,4.338 3.901 C 4.250 4.150,4.215 4.828,4.277 5.123 C 4.301 5.243,4.384 5.457,4.459 5.600 C 4.792 6.226,4.810 6.275,4.782 6.462 C 4.762 6.592,4.707 6.695,4.574 6.850 C 4.328 7.136,4.269 7.263,4.269 7.500 C 4.269 7.921,4.585 8.240,5.004 8.240 C 5.241 8.240,5.397 8.157,5.650 7.898 C 6.087 7.451,6.305 6.867,6.269 6.240 C 6.246 5.836,6.146 5.530,5.916 5.165 C 5.644 4.732,5.652 4.432,5.942 4.122 C 6.241 3.803,6.312 3.501,6.165 3.180 C 6.077 2.990,5.988 2.904,5.790 2.822 C 5.595 2.740,5.377 2.745,5.180 2.835 M14.699 2.816 C 14.485 2.909,14.127 3.316,13.957 3.660 C 13.767 4.046,13.704 4.353,13.731 4.780 C 13.755 5.164,13.860 5.479,14.084 5.835 C 14.356 6.268,14.348 6.568,14.058 6.878 C 13.759 7.197,13.688 7.499,13.835 7.820 C 13.923 8.010,14.012 8.096,14.210 8.178 C 14.549 8.320,14.873 8.215,15.188 7.861 C 15.587 7.414,15.759 6.972,15.760 6.392 C 15.760 5.946,15.710 5.719,15.540 5.398 C 15.209 4.775,15.190 4.725,15.218 4.538 C 15.238 4.408,15.293 4.305,15.426 4.150 C 15.672 3.864,15.731 3.737,15.731 3.500 C 15.731 3.074,15.413 2.758,14.987 2.762 C 14.895 2.762,14.766 2.787,14.699 2.816 M3.980 9.282 C 3.778 9.300,3.492 9.357,3.328 9.413 C 2.458 9.712,1.728 10.553,1.557 11.454 C 1.486 11.829,1.521 12.330,1.758 14.351 C 2.019 16.572,2.066 16.867,2.244 17.413 C 2.907 19.443,4.605 21.037,6.660 21.556 C 7.345 21.728,7.554 21.740,10.000 21.740 C 12.445 21.740,12.654 21.728,13.340 21.556 C 15.122 21.108,16.645 19.856,17.444 18.183 L 17.641 17.771 18.570 17.748 C 19.765 17.718,20.108 17.645,20.793 17.277 C 21.449 16.925,21.923 16.451,22.279 15.792 C 22.600 15.197,22.729 14.682,22.729 14.000 C 22.729 13.318,22.600 12.803,22.279 12.208 C 21.923 11.549,21.449 11.075,20.793 10.723 C 20.130 10.367,19.760 10.284,18.674 10.253 L 17.849 10.228 17.660 10.036 C 17.212 9.580,16.665 9.339,15.940 9.278 C 15.413 9.234,4.498 9.238,3.980 9.282 M16.174 10.824 C 16.412 10.905,16.752 11.213,16.875 11.458 C 16.926 11.561,16.977 11.747,16.987 11.872 C 17.006 12.096,16.623 15.551,16.498 16.287 C 16.208 17.990,14.963 19.452,13.340 19.996 C 12.642 20.229,12.494 20.240,10.000 20.240 C 8.131 20.240,7.668 20.229,7.375 20.178 C 5.405 19.835,3.840 18.262,3.502 16.287 C 3.377 15.557,2.994 12.097,3.013 11.872 C 3.038 11.570,3.173 11.313,3.429 11.079 C 3.800 10.740,3.242 10.767,9.983 10.763 C 15.395 10.760,16.004 10.766,16.174 10.824 M19.578 11.821 C 19.949 11.918,20.274 12.112,20.581 12.419 C 21.041 12.879,21.240 13.356,21.240 14.000 C 21.240 14.644,21.041 15.121,20.581 15.581 C 20.057 16.105,19.671 16.240,18.692 16.240 C 18.042 16.240,18.040 16.240,18.040 16.150 C 18.041 16.101,18.132 15.295,18.242 14.360 C 18.353 13.425,18.455 12.457,18.468 12.210 L 18.492 11.760 18.918 11.760 C 19.171 11.760,19.438 11.785,19.578 11.821 " stroke="none" fill-rule="evenodd" fill="black"></path></svg>