<svg width="24" height="24" viewBox="0 0 24 24" fill="none" xmlns="http://www.w3.org/2000/svg"><path d="M18.696 1.280 C 18.407 1.322,18.232 1.385,17.800 1.601 C 17.367 1.818,13.247 4.151,12.697 4.491 C 12.246 4.770,11.929 5.085,11.770 5.412 L 11.648 5.663 9.756 6.736 C 8.715 7.326,7.703 7.909,7.505 8.031 C 6.990 8.350,6.664 8.700,6.525 9.083 C 6.494 9.166,6.093 9.411,4.502 10.314 C 2.290 11.569,2.034 11.727,1.737 12.025 C 1.430 12.332,1.303 12.618,1.286 13.047 C 1.265 13.573,1.368 13.859,1.931 14.840 C 2.340 15.551,2.676 16.043,2.900 16.258 C 3.291 16.634,3.748 16.788,4.261 16.717 C 4.738 16.650,4.878 16.580,7.340 15.178 L 9.220 14.107 9.660 14.100 C 9.999 14.095,10.154 14.073,10.337 14.007 C 10.467 13.959,10.576 13.924,10.580 13.930 C 10.584 13.935,9.861 15.659,8.974 17.760 C 8.087 19.861,7.333 21.673,7.299 21.786 C 7.077 22.520,7.981 23.066,8.516 22.521 C 8.638 22.397,8.910 21.780,10.318 18.428 C 11.230 16.256,11.987 14.480,12.000 14.480 C 12.013 14.480,12.770 16.256,13.682 18.428 C 15.502 22.761,15.431 22.618,15.814 22.714 C 16.347 22.849,16.859 22.356,16.720 21.842 C 16.698 21.756,15.824 19.657,14.779 17.175 C 13.272 13.597,12.890 12.654,12.930 12.617 C 12.957 12.591,13.433 12.314,13.987 12.002 L 14.994 11.434 15.214 11.461 C 15.612 11.511,15.949 11.422,16.575 11.104 C 17.277 10.746,21.417 8.392,21.811 8.126 C 22.165 7.887,22.437 7.601,22.584 7.315 C 22.672 7.143,22.698 7.031,22.712 6.753 C 22.733 6.334,22.642 5.982,22.391 5.520 C 22.113 5.006,20.763 2.719,20.502 2.320 C 20.031 1.599,19.674 1.347,19.000 1.262 C 18.945 1.255,18.808 1.263,18.696 1.280 M19.205 3.060 C 19.428 3.390,20.765 5.659,21.046 6.183 C 21.153 6.383,21.240 6.584,21.240 6.630 C 21.240 6.752,20.984 6.910,18.500 8.322 C 16.066 9.705,15.504 10.007,15.419 9.974 C 15.334 9.942,15.098 9.567,14.207 8.052 C 13.386 6.655,13.120 6.168,13.120 6.062 C 13.120 5.966,13.477 5.748,15.786 4.436 C 18.315 2.998,18.778 2.752,18.917 2.768 C 18.989 2.777,19.068 2.856,19.205 3.060 M12.080 7.360 C 12.125 7.448,12.539 8.162,13.001 8.947 C 13.462 9.732,13.835 10.377,13.830 10.380 C 13.702 10.464,10.336 12.351,10.140 12.450 C 9.686 12.677,9.719 12.682,9.491 12.351 C 9.227 11.966,8.188 10.189,8.030 9.852 L 7.906 9.586 8.034 9.479 C 8.105 9.420,8.320 9.280,8.512 9.167 C 9.220 8.751,11.941 7.205,11.969 7.203 C 11.985 7.201,12.035 7.272,12.080 7.360 M7.022 11.130 C 7.150 11.355,7.451 11.870,7.690 12.273 C 7.930 12.677,8.120 13.013,8.113 13.020 C 8.067 13.065,4.827 14.885,4.506 15.047 C 4.290 15.156,4.074 15.239,4.026 15.232 C 3.859 15.208,2.798 13.461,2.786 13.190 C 2.781 13.072,2.804 13.044,3.049 12.882 C 3.196 12.784,4.096 12.259,5.049 11.716 C 6.001 11.172,6.782 10.726,6.784 10.724 C 6.787 10.722,6.893 10.905,7.022 11.130 " stroke="none" fill-rule="evenodd" fill="black"></path></svg>