<svg width="24" height="24" viewBox="0 0 24 24" fill="none" xmlns="http://www.w3.org/2000/svg"><path d="M11.740 1.266 C 10.837 1.347,10.045 1.697,9.406 2.297 C 8.910 2.763,8.511 3.479,8.332 4.225 C 8.274 4.467,8.264 4.917,8.251 7.979 L 8.236 11.457 7.707 11.979 C 7.102 12.576,6.744 13.055,6.423 13.700 C 6.015 14.519,5.808 15.325,5.771 16.244 C 5.649 19.216,7.621 21.848,10.500 22.555 C 11.466 22.793,12.534 22.793,13.500 22.555 C 15.344 22.102,16.900 20.812,17.668 19.100 C 17.968 18.431,18.091 18.005,18.182 17.323 C 18.455 15.275,17.727 13.292,16.176 11.855 L 15.764 11.474 15.749 7.987 C 15.736 4.917,15.726 4.467,15.668 4.225 C 15.348 2.892,14.466 1.899,13.215 1.463 C 12.793 1.316,12.149 1.230,11.740 1.266 M12.578 2.821 C 12.708 2.855,12.923 2.940,13.057 3.010 C 13.371 3.175,13.825 3.629,13.990 3.943 C 14.247 4.434,14.240 4.319,14.241 7.998 C 14.241 9.836,14.258 11.454,14.278 11.592 C 14.348 12.077,14.501 12.317,15.134 12.940 C 16.041 13.832,16.434 14.518,16.664 15.606 C 16.758 16.056,16.758 16.977,16.663 17.420 C 16.455 18.384,16.022 19.182,15.338 19.863 C 13.562 21.627,10.761 21.714,8.869 20.064 C 7.302 18.697,6.812 16.413,7.683 14.529 C 7.954 13.943,8.247 13.548,8.866 12.940 C 9.498 12.318,9.639 12.097,9.718 11.600 C 9.744 11.436,9.760 10.109,9.760 7.998 C 9.760 5.128,9.769 4.624,9.821 4.422 C 10.011 3.692,10.678 3.019,11.404 2.823 C 11.692 2.746,12.285 2.745,12.578 2.821 M11.815 4.277 C 11.638 4.321,11.461 4.456,11.353 4.631 L 11.260 4.780 11.249 9.061 L 11.238 13.341 10.986 13.414 C 10.023 13.689,9.140 14.628,8.852 15.680 C 8.753 16.042,8.753 16.955,8.851 17.320 C 9.154 18.438,10.074 19.356,11.180 19.643 C 11.627 19.759,12.373 19.759,12.820 19.643 C 13.917 19.359,14.809 18.481,15.129 17.372 C 15.259 16.923,15.259 16.077,15.129 15.628 C 14.879 14.762,14.268 14.016,13.469 13.602 C 13.310 13.520,13.085 13.428,12.970 13.399 L 12.760 13.345 12.759 9.182 C 12.758 6.467,12.744 4.958,12.717 4.841 C 12.623 4.432,12.215 4.177,11.815 4.277 M12.503 14.823 C 12.622 14.857,12.825 14.956,12.955 15.043 C 14.003 15.743,14.003 17.257,12.955 17.957 C 12.432 18.306,11.747 18.339,11.165 18.043 C 10.956 17.936,10.603 17.584,10.474 17.354 C 10.187 16.840,10.187 16.160,10.474 15.646 C 10.680 15.278,11.087 14.949,11.498 14.819 C 11.728 14.746,12.247 14.748,12.503 14.823 " stroke="none" fill-rule="evenodd" fill="black"></path></svg>