<svg width="24" height="24" viewBox="0 0 24 24" fill="none" xmlns="http://www.w3.org/2000/svg"><path d="M11.255 1.282 C 7.353 1.544,3.856 3.966,2.229 7.531 C 1.586 8.941,1.268 10.418,1.268 12.000 C 1.268 14.441,2.010 16.615,3.521 18.600 C 4.069 19.320,4.750 19.987,5.560 20.596 C 9.374 23.464,14.702 23.451,18.480 20.564 C 20.571 18.966,21.979 16.746,22.516 14.200 C 23.066 11.590,22.590 8.747,21.227 6.500 C 20.359 5.069,19.333 3.985,18.000 3.091 C 16.363 1.994,14.637 1.413,12.621 1.282 C 11.933 1.237,11.922 1.237,11.255 1.282 M12.456 2.850 C 12.465 2.899,12.492 3.165,12.515 3.440 C 12.624 4.719,13.004 6.299,13.546 7.720 C 13.841 8.492,14.540 9.909,15.017 10.700 C 16.277 12.793,17.892 14.572,19.713 15.874 C 19.970 16.058,20.186 16.224,20.193 16.244 C 20.226 16.332,19.591 17.328,19.189 17.820 C 18.881 18.197,18.178 18.900,17.823 19.186 C 16.702 20.091,15.242 20.783,13.880 21.057 C 13.199 21.194,12.759 21.239,12.111 21.240 C 11.475 21.240,11.541 21.299,11.500 20.700 C 11.446 19.890,11.224 18.723,10.934 17.721 C 10.206 15.207,8.824 12.679,7.084 10.680 C 6.225 9.693,4.998 8.591,4.081 7.980 C 3.926 7.878,3.800 7.774,3.800 7.751 C 3.800 7.678,4.077 7.201,4.352 6.800 C 6.067 4.299,8.873 2.784,11.829 2.764 C 12.431 2.760,12.439 2.761,12.456 2.850 M14.459 3.081 C 15.085 3.257,15.591 3.454,16.160 3.743 C 18.006 4.681,19.387 6.079,20.300 7.937 C 20.777 8.908,21.038 9.778,21.183 10.880 C 21.274 11.574,21.244 12.908,21.122 13.560 C 21.018 14.118,20.840 14.800,20.798 14.800 C 20.751 14.800,20.143 14.343,19.740 14.004 C 16.705 11.453,14.495 7.419,14.021 3.561 C 13.950 2.982,13.949 2.960,13.993 2.960 C 14.011 2.960,14.221 3.015,14.459 3.081 M3.567 9.447 C 6.957 11.953,9.473 16.278,9.982 20.473 C 10.018 20.766,10.040 21.013,10.032 21.022 C 10.007 21.047,9.294 20.857,8.900 20.721 C 8.408 20.550,7.420 20.061,6.960 19.759 C 5.887 19.056,4.933 18.102,4.241 17.040 C 3.887 16.497,3.432 15.548,3.223 14.920 C 3.032 14.345,2.869 13.609,2.802 13.020 C 2.741 12.487,2.751 11.392,2.822 10.855 C 2.910 10.180,3.136 9.200,3.203 9.200 C 3.220 9.200,3.383 9.311,3.567 9.447 " stroke="none" fill-rule="evenodd" fill="black"></path></svg>