<svg width="24" height="24" viewBox="0 0 24 24" fill="none" xmlns="http://www.w3.org/2000/svg"><path d="M11.255 1.282 C 7.352 1.544,3.856 3.964,2.229 7.531 C 1.586 8.940,1.269 10.415,1.268 12.000 C 1.266 14.434,2.011 16.615,3.521 18.600 C 4.069 19.320,4.728 19.967,5.540 20.582 C 9.347 23.464,14.695 23.456,18.480 20.564 C 20.570 18.967,21.979 16.744,22.516 14.200 C 22.911 12.326,22.777 10.265,22.141 8.445 C 21.499 6.610,20.266 4.850,18.799 3.677 C 16.974 2.216,14.956 1.434,12.621 1.282 C 11.933 1.237,11.922 1.237,11.255 1.282 M12.288 2.990 C 12.274 3.116,12.262 3.283,12.261 3.360 L 12.260 3.500 12.979 3.547 C 13.375 3.574,13.704 3.589,13.711 3.583 C 13.717 3.576,13.738 3.432,13.757 3.263 C 13.776 3.093,13.800 2.947,13.810 2.937 C 13.837 2.910,14.683 3.134,15.100 3.279 C 15.583 3.447,16.572 3.937,17.040 4.242 C 19.379 5.763,20.915 8.285,21.204 11.075 C 21.277 11.788,21.231 12.976,21.104 13.646 C 20.333 17.719,17.060 20.756,12.959 21.204 C 12.406 21.264,11.017 21.228,10.540 21.141 C 9.522 20.955,8.792 20.720,7.940 20.302 C 6.972 19.828,6.202 19.281,5.461 18.539 C 4.719 17.798,4.183 17.043,3.698 16.060 C 3.229 15.108,2.920 14.060,2.802 13.020 C 2.741 12.487,2.751 11.392,2.822 10.855 C 2.912 10.163,3.148 9.163,3.244 9.062 C 3.266 9.039,3.386 9.076,3.559 9.160 C 3.713 9.234,3.846 9.287,3.855 9.277 C 3.864 9.268,4.018 8.967,4.197 8.608 L 4.522 7.956 4.179 7.797 L 3.835 7.638 3.964 7.409 C 4.145 7.088,4.570 6.472,4.841 6.140 C 6.531 4.070,9.170 2.784,11.767 2.764 L 12.314 2.760 12.288 2.990 M12.930 5.553 C 12.392 5.604,12.280 5.625,12.280 5.677 C 12.280 5.776,12.430 6.758,12.479 6.984 L 12.524 7.187 13.232 7.029 C 13.621 6.942,13.946 6.865,13.954 6.858 C 13.962 6.851,13.931 6.633,13.886 6.373 C 13.842 6.113,13.793 5.805,13.779 5.690 C 13.756 5.507,13.741 5.481,13.666 5.486 C 13.619 5.489,13.287 5.519,12.930 5.553 M13.810 8.951 C 13.223 9.189,13.162 9.223,13.184 9.297 C 13.217 9.410,13.809 10.640,13.830 10.640 C 13.844 10.640,15.080 9.965,15.110 9.941 C 15.116 9.937,15.006 9.692,14.865 9.396 C 14.725 9.101,14.598 8.820,14.582 8.770 C 14.567 8.720,14.533 8.682,14.507 8.684 C 14.481 8.686,14.167 8.806,13.810 8.951 M5.940 9.607 C 5.720 9.916,5.527 10.191,5.511 10.219 C 5.491 10.254,5.576 10.343,5.772 10.490 C 5.931 10.610,6.168 10.801,6.297 10.914 C 6.427 11.027,6.546 11.120,6.562 11.120 C 6.598 11.120,7.540 10.085,7.540 10.045 C 7.540 9.991,6.982 9.525,6.380 9.077 C 6.357 9.059,6.172 9.282,5.940 9.607 M15.572 11.975 L 15.003 12.427 15.265 12.743 C 15.409 12.918,15.646 13.182,15.792 13.330 L 16.058 13.601 16.569 13.091 C 16.850 12.811,17.080 12.562,17.080 12.539 C 17.080 12.516,16.997 12.416,16.897 12.318 C 16.796 12.220,16.596 12.001,16.453 11.830 C 16.310 11.660,16.181 11.521,16.167 11.522 C 16.152 11.522,15.884 11.727,15.572 11.975 M8.431 12.065 L 7.843 12.525 8.056 12.813 C 8.172 12.971,8.351 13.230,8.453 13.389 L 8.638 13.678 9.269 13.298 C 9.616 13.089,9.895 12.900,9.890 12.878 C 9.871 12.806,9.138 11.733,9.026 11.613 C 9.022 11.609,8.754 11.813,8.431 12.065 M18.511 13.832 C 18.414 13.945,17.756 14.884,17.734 14.941 C 17.701 15.028,18.977 15.840,19.042 15.773 C 19.087 15.727,19.720 14.555,19.720 14.519 C 19.720 14.503,19.590 14.412,19.430 14.318 C 19.270 14.224,19.012 14.060,18.855 13.955 C 18.590 13.778,18.565 13.769,18.511 13.832 M10.145 15.100 C 9.795 15.242,9.503 15.363,9.496 15.371 C 9.488 15.378,9.536 15.527,9.601 15.702 C 9.667 15.877,9.758 16.155,9.804 16.320 C 9.850 16.485,9.903 16.636,9.921 16.655 C 9.950 16.686,11.213 16.386,11.315 16.323 C 11.359 16.296,11.222 15.791,11.026 15.252 C 10.879 14.847,10.875 14.840,10.826 14.842 C 10.801 14.843,10.494 14.959,10.145 15.100 M10.785 18.504 C 10.501 18.533,10.266 18.563,10.263 18.569 C 10.259 18.575,10.263 18.890,10.272 19.270 L 10.288 19.960 10.558 19.960 C 10.706 19.960,11.049 19.972,11.320 19.986 L 11.813 20.013 11.785 19.316 C 11.747 18.399,11.760 18.439,11.506 18.445 C 11.393 18.448,11.068 18.475,10.785 18.504 " stroke="none" fill-rule="evenodd" fill="black"></path></svg>