<svg width="24" height="24" viewBox="0 0 24 24" fill="none" xmlns="http://www.w3.org/2000/svg"><path d="M3.660 1.278 C 2.776 1.385,2.027 1.901,1.568 2.720 C 1.168 3.434,1.168 4.566,1.568 5.280 C 1.911 5.891,2.519 6.418,3.090 6.599 L 3.240 6.646 3.240 12.000 L 3.240 17.354 3.090 17.401 C 2.519 17.582,1.911 18.109,1.568 18.720 C 1.168 19.434,1.168 20.566,1.568 21.280 C 2.094 22.219,2.953 22.731,4.000 22.731 C 4.685 22.731,5.182 22.558,5.727 22.131 C 6.084 21.851,6.474 21.305,6.599 20.910 L 6.646 20.760 12.000 20.760 L 17.354 20.760 17.401 20.910 C 17.526 21.305,17.916 21.851,18.273 22.131 C 18.818 22.558,19.315 22.731,20.000 22.731 C 21.047 22.731,21.906 22.219,22.432 21.280 C 22.832 20.566,22.832 19.433,22.432 18.720 C 22.091 18.113,21.477 17.580,20.910 17.401 L 20.760 17.354 20.760 12.000 L 20.760 6.646 20.910 6.599 C 21.305 6.474,21.851 6.084,22.131 5.727 C 22.558 5.182,22.731 4.685,22.731 4.000 C 22.731 2.957,22.213 2.089,21.280 1.567 C 20.564 1.168,19.433 1.168,18.720 1.568 C 18.109 1.911,17.582 2.519,17.401 3.090 L 17.354 3.240 12.000 3.240 L 6.646 3.240 6.599 3.090 C 6.420 2.525,5.882 1.904,5.280 1.567 C 4.867 1.337,4.186 1.215,3.660 1.278 M4.454 2.841 C 4.744 2.950,5.050 3.256,5.159 3.546 C 5.331 4.006,5.227 4.518,4.893 4.857 C 4.594 5.159,4.446 5.220,4.000 5.220 C 3.560 5.220,3.410 5.161,3.125 4.875 C 2.876 4.627,2.790 4.433,2.769 4.080 C 2.746 3.675,2.847 3.404,3.126 3.126 C 3.479 2.773,3.983 2.665,4.454 2.841 M20.454 2.841 C 20.744 2.950,21.050 3.256,21.159 3.546 C 21.331 4.006,21.227 4.518,20.893 4.857 C 20.594 5.159,20.446 5.220,20.000 5.220 C 19.565 5.220,19.394 5.154,19.120 4.880 C 18.883 4.643,18.790 4.429,18.769 4.080 C 18.746 3.675,18.847 3.404,19.126 3.126 C 19.479 2.773,19.983 2.665,20.454 2.841 M17.434 4.990 C 17.676 5.651,18.349 6.324,19.010 6.566 L 19.240 6.651 19.240 12.000 L 19.240 17.349 19.010 17.434 C 18.349 17.676,17.676 18.349,17.434 19.010 L 17.349 19.240 12.000 19.240 L 6.651 19.240 6.566 19.010 C 6.325 18.352,5.648 17.675,4.990 17.434 L 4.760 17.349 4.760 12.000 L 4.760 6.651 4.990 6.566 C 5.651 6.324,6.324 5.651,6.566 4.990 L 6.651 4.760 12.000 4.760 L 17.349 4.760 17.434 4.990 M8.807 8.287 C 8.573 8.339,8.348 8.567,8.286 8.813 C 8.202 9.146,8.333 9.462,8.631 9.647 C 8.777 9.738,8.804 9.740,10.009 9.753 L 11.237 9.765 11.249 12.493 L 11.260 15.220 11.355 15.373 C 11.506 15.615,11.718 15.733,12.003 15.733 C 12.203 15.733,12.270 15.714,12.408 15.617 C 12.499 15.553,12.610 15.428,12.656 15.340 C 12.738 15.183,12.740 15.129,12.751 12.473 L 12.763 9.765 13.991 9.753 C 15.196 9.740,15.223 9.738,15.369 9.647 C 15.943 9.290,15.812 8.424,15.162 8.284 C 14.899 8.228,9.061 8.230,8.807 8.287 M4.454 18.841 C 4.744 18.950,5.050 19.256,5.159 19.546 C 5.331 20.006,5.227 20.518,4.893 20.857 C 4.594 21.159,4.446 21.220,4.000 21.220 C 3.565 21.220,3.394 21.154,3.120 20.880 C 2.883 20.643,2.790 20.429,2.769 20.080 C 2.746 19.675,2.847 19.404,3.126 19.126 C 3.479 18.773,3.983 18.665,4.454 18.841 M20.454 18.841 C 20.744 18.950,21.050 19.256,21.159 19.546 C 21.331 20.006,21.227 20.518,20.893 20.857 C 20.594 21.159,20.446 21.220,20.000 21.220 C 19.565 21.220,19.394 21.154,19.120 20.880 C 18.883 20.643,18.790 20.429,18.769 20.080 C 18.746 19.675,18.847 19.404,19.126 19.126 C 19.479 18.773,19.983 18.665,20.454 18.841 " stroke="none" fill-rule="evenodd" fill="black"></path></svg>