<svg width="24" height="24" viewBox="0 0 24 24" fill="none" xmlns="http://www.w3.org/2000/svg"><path d="M9.260 2.278 C 7.633 2.322,6.792 2.409,5.956 2.620 C 4.070 3.095,2.921 4.327,2.524 6.300 C 2.366 7.089,2.206 9.131,2.278 9.450 C 2.406 10.019,3.080 10.239,3.494 9.847 C 3.707 9.645,3.730 9.555,3.765 8.760 C 3.866 6.474,4.144 5.518,4.921 4.785 C 5.560 4.181,6.529 3.904,8.360 3.801 C 9.268 3.749,14.732 3.749,15.640 3.801 C 17.452 3.903,18.435 4.181,19.062 4.768 C 19.856 5.511,20.130 6.448,20.235 8.780 C 20.270 9.553,20.294 9.646,20.506 9.847 C 20.920 10.239,21.594 10.019,21.722 9.450 C 21.761 9.280,21.699 7.981,21.619 7.260 C 21.433 5.596,21.020 4.586,20.192 3.774 C 19.257 2.858,18.111 2.471,15.892 2.322 C 15.088 2.268,10.726 2.239,9.260 2.278 M7.826 7.284 C 7.476 7.366,7.267 7.636,7.267 8.003 C 7.267 8.281,7.387 8.496,7.627 8.645 L 7.780 8.740 9.509 8.752 L 11.238 8.764 11.249 12.492 L 11.260 16.220 11.355 16.373 C 11.506 16.615,11.718 16.733,12.003 16.733 C 12.203 16.733,12.270 16.714,12.408 16.617 C 12.499 16.553,12.610 16.428,12.656 16.340 C 12.739 16.182,12.740 16.144,12.751 12.472 L 12.762 8.764 14.491 8.752 L 16.220 8.740 16.369 8.647 C 16.943 8.290,16.812 7.424,16.162 7.284 C 15.907 7.229,8.059 7.229,7.826 7.284 M1.826 11.284 C 1.476 11.366,1.267 11.636,1.267 12.003 C 1.267 12.281,1.387 12.496,1.627 12.645 C 1.779 12.740,1.786 12.740,3.000 12.740 C 4.207 12.740,4.222 12.739,4.369 12.647 C 4.943 12.290,4.812 11.424,4.162 11.284 C 3.915 11.231,2.051 11.231,1.826 11.284 M19.826 11.284 C 19.476 11.366,19.267 11.636,19.267 12.003 C 19.267 12.281,19.387 12.496,19.627 12.645 C 19.779 12.740,19.786 12.740,21.000 12.740 C 22.207 12.740,22.222 12.739,22.369 12.647 C 22.943 12.290,22.812 11.424,22.162 11.284 C 21.915 11.231,20.051 11.231,19.826 11.284 M2.699 14.016 C 2.546 14.083,2.328 14.329,2.297 14.471 C 2.284 14.531,2.268 14.599,2.261 14.623 C 2.254 14.647,2.264 15.016,2.284 15.443 C 2.401 17.952,2.777 19.160,3.753 20.169 C 4.558 21.001,5.617 21.429,7.340 21.619 C 8.326 21.727,11.692 21.782,14.050 21.728 C 16.554 21.670,17.356 21.592,18.300 21.313 C 20.012 20.808,21.099 19.571,21.476 17.700 C 21.634 16.911,21.794 14.869,21.722 14.550 C 21.642 14.193,21.356 13.960,21.000 13.960 C 20.799 13.960,20.647 14.019,20.506 14.153 C 20.294 14.354,20.270 14.447,20.235 15.220 C 20.131 17.540,19.859 18.480,19.079 19.215 C 18.443 19.816,17.483 20.092,15.660 20.199 C 14.777 20.251,9.223 20.251,8.340 20.199 C 6.517 20.092,5.557 19.816,4.921 19.215 C 4.144 18.482,3.866 17.526,3.765 15.240 C 3.730 14.445,3.707 14.355,3.494 14.153 C 3.290 13.960,2.959 13.903,2.699 14.016 " stroke="none" fill-rule="evenodd" fill="black"></path></svg>