<svg width="24" height="24" viewBox="0 0 24 24" fill="none" xmlns="http://www.w3.org/2000/svg"><path d="M11.310 1.283 C 6.653 1.563,2.667 4.904,1.564 9.450 C 1.162 11.110,1.162 12.890,1.564 14.550 C 2.415 18.060,5.032 20.948,8.442 22.139 C 10.725 22.937,13.275 22.937,15.558 22.139 C 18.633 21.065,21.092 18.592,22.157 15.503 C 22.819 13.585,22.918 11.437,22.436 9.450 C 21.419 5.255,17.924 2.044,13.657 1.383 C 13.303 1.328,12.042 1.231,11.880 1.246 C 11.847 1.249,11.590 1.266,11.310 1.283 M12.992 2.802 C 14.750 2.993,16.561 3.756,17.878 4.859 C 18.914 5.728,19.725 6.758,20.304 7.940 C 20.940 9.239,21.240 10.538,21.240 12.000 C 21.240 13.462,20.940 14.764,20.304 16.060 C 18.921 18.877,16.278 20.768,13.146 21.178 C 12.214 21.301,10.974 21.244,10.002 21.034 C 8.667 20.747,7.178 20.022,6.140 19.153 C 4.272 17.590,3.134 15.531,2.822 13.146 C 2.699 12.214,2.756 10.974,2.966 10.002 C 3.253 8.667,3.978 7.178,4.847 6.140 C 5.196 5.722,5.821 5.101,6.213 4.783 C 7.491 3.743,9.284 2.994,10.940 2.807 C 11.397 2.755,12.535 2.753,12.992 2.802 M9.055 6.280 C 8.579 6.321,8.298 6.406,8.028 6.590 C 7.452 6.983,7.279 7.464,7.267 8.700 C 7.259 9.487,7.273 9.546,7.506 9.767 C 7.647 9.901,7.799 9.960,8.000 9.960 C 8.201 9.960,8.353 9.901,8.494 9.767 C 8.712 9.561,8.733 9.477,8.762 8.680 C 8.777 8.273,8.801 7.911,8.817 7.874 C 8.861 7.773,9.012 7.760,10.162 7.760 L 11.234 7.760 11.247 8.730 C 11.261 9.785,11.268 9.822,11.506 10.047 C 11.783 10.309,12.217 10.309,12.494 10.047 C 12.732 9.822,12.739 9.785,12.753 8.730 L 12.766 7.760 13.838 7.760 C 14.988 7.760,15.139 7.773,15.183 7.874 C 15.199 7.911,15.223 8.273,15.238 8.680 C 15.267 9.477,15.288 9.561,15.506 9.767 C 15.647 9.901,15.799 9.960,16.000 9.960 C 16.201 9.960,16.353 9.901,16.494 9.767 C 16.727 9.546,16.741 9.487,16.733 8.700 C 16.728 8.243,16.704 7.875,16.666 7.693 C 16.512 6.956,16.077 6.499,15.371 6.332 C 15.138 6.277,14.702 6.267,12.260 6.258 C 10.698 6.253,9.256 6.262,9.055 6.280 M7.807 11.287 C 7.568 11.341,7.341 11.572,7.289 11.816 C 7.197 12.246,7.431 12.629,7.838 12.716 C 8.127 12.778,15.873 12.778,16.162 12.716 C 16.313 12.683,16.409 12.631,16.520 12.520 C 16.929 12.111,16.725 11.405,16.162 11.284 C 15.897 11.227,8.063 11.230,7.807 11.287 M11.700 13.821 C 11.539 13.908,11.406 14.035,11.326 14.180 C 11.271 14.280,11.258 14.459,11.247 15.267 L 11.234 16.234 10.267 16.247 C 9.215 16.261,9.178 16.269,8.953 16.506 C 8.759 16.711,8.703 17.027,8.814 17.292 C 8.879 17.447,9.119 17.667,9.271 17.709 C 9.331 17.726,10.577 17.740,12.040 17.740 C 15.002 17.740,14.814 17.757,15.072 17.463 C 15.371 17.123,15.258 16.589,14.836 16.340 C 14.712 16.267,14.614 16.259,13.733 16.247 L 12.766 16.234 12.753 15.267 C 12.738 14.183,12.731 14.150,12.429 13.907 C 12.243 13.756,11.896 13.715,11.700 13.821 " stroke="none" fill-rule="evenodd" fill="black"></path></svg>