<svg width="24" height="24" viewBox="0 0 24 24" fill="none" xmlns="http://www.w3.org/2000/svg"><path d="M8.807 1.287 C 8.573 1.339,8.348 1.567,8.286 1.813 C 8.202 2.146,8.333 2.462,8.631 2.647 L 8.780 2.740 11.383 2.760 L 13.986 2.780 11.220 12.000 L 8.454 21.220 5.637 21.240 C 2.878 21.260,2.817 21.262,2.660 21.344 C 2.572 21.390,2.448 21.501,2.383 21.592 C 2.286 21.730,2.267 21.797,2.267 21.997 C 2.267 22.282,2.385 22.494,2.627 22.645 L 2.780 22.740 9.000 22.740 L 15.220 22.740 15.369 22.647 C 15.870 22.336,15.849 21.592,15.332 21.336 C 15.189 21.264,15.027 21.259,12.597 21.240 L 10.014 21.220 12.780 12.000 L 15.546 2.780 18.383 2.760 L 21.220 2.740 21.369 2.647 C 21.943 2.290,21.812 1.424,21.162 1.284 C 20.895 1.227,9.064 1.230,8.807 1.287 " stroke="none" fill-rule="evenodd" fill="black"></path></svg>