<svg width="24" height="24" viewBox="0 0 24 24" fill="none" xmlns="http://www.w3.org/2000/svg"><path d="M9.020 1.279 C 6.976 1.330,5.856 1.466,4.900 1.779 C 3.060 2.382,1.958 3.688,1.563 5.734 C 1.311 7.042,1.267 7.973,1.267 12.000 C 1.267 16.027,1.311 16.958,1.563 18.266 C 2.013 20.599,3.401 21.987,5.734 22.437 C 7.043 22.690,7.974 22.734,12.000 22.734 C 16.026 22.734,16.957 22.690,18.266 22.437 C 20.599 21.987,21.987 20.599,22.437 18.266 C 22.688 16.966,22.733 16.013,22.733 12.000 C 22.733 7.987,22.688 7.034,22.437 5.734 C 22.098 3.977,21.228 2.756,19.825 2.068 C 18.972 1.650,17.853 1.420,16.180 1.321 C 15.262 1.267,10.607 1.239,9.020 1.279 M16.600 2.836 C 18.439 3.019,19.320 3.320,20.000 4.000 C 20.692 4.693,20.998 5.605,21.168 7.480 C 21.242 8.307,21.242 15.693,21.168 16.520 C 20.996 18.419,20.693 19.311,19.982 20.013 C 19.218 20.769,18.155 21.080,15.940 21.199 C 14.954 21.252,9.046 21.252,8.060 21.199 C 5.843 21.080,4.782 20.769,4.016 20.011 C 3.342 19.345,3.026 18.464,2.852 16.760 C 2.788 16.135,2.780 15.620,2.781 11.980 C 2.782 7.664,2.793 7.353,2.984 6.240 C 3.183 5.082,3.600 4.278,4.272 3.760 C 5.025 3.178,6.058 2.913,8.002 2.802 C 8.872 2.752,16.044 2.780,16.600 2.836 M9.199 5.277 C 8.351 5.395,7.610 6.029,7.349 6.858 L 7.260 7.140 7.260 12.160 L 7.260 17.180 7.351 17.433 C 7.567 18.031,7.970 18.433,8.567 18.648 C 8.816 18.738,8.853 18.740,10.856 18.752 C 13.478 18.768,13.832 18.735,14.548 18.400 C 15.342 18.029,15.882 17.527,16.281 16.788 C 16.600 16.197,16.729 15.680,16.729 15.000 C 16.729 14.320,16.600 13.803,16.281 13.212 C 15.947 12.593,15.478 12.107,14.900 11.779 C 14.790 11.717,14.694 11.662,14.687 11.657 C 14.680 11.652,14.767 11.533,14.880 11.394 C 15.441 10.701,15.726 9.904,15.728 9.020 C 15.730 8.323,15.603 7.810,15.281 7.212 C 14.844 6.402,14.157 5.809,13.275 5.481 C 12.755 5.288,12.586 5.272,10.960 5.259 C 10.113 5.252,9.321 5.260,9.199 5.277 M12.578 6.821 C 12.949 6.918,13.274 7.112,13.581 7.419 C 14.041 7.879,14.240 8.356,14.240 9.000 C 14.240 9.644,14.041 10.121,13.581 10.581 C 13.421 10.741,13.195 10.917,13.057 10.990 C 12.593 11.233,12.526 11.240,10.551 11.240 L 8.758 11.240 8.769 9.247 L 8.780 7.254 8.887 7.093 C 8.949 6.998,9.065 6.896,9.167 6.846 C 9.335 6.763,9.387 6.760,10.842 6.760 C 12.061 6.760,12.387 6.772,12.578 6.821 M13.578 12.821 C 13.949 12.918,14.274 13.112,14.581 13.419 C 15.041 13.879,15.240 14.356,15.240 15.000 C 15.240 15.644,15.041 16.121,14.581 16.581 C 14.421 16.741,14.195 16.917,14.057 16.990 C 13.583 17.238,13.564 17.240,11.169 17.240 L 8.994 17.240 8.877 17.123 L 8.760 17.006 8.760 14.883 L 8.760 12.760 11.052 12.760 C 12.980 12.760,13.380 12.770,13.578 12.821 " stroke="none" fill-rule="evenodd" fill="black"></path></svg>