<svg width="24" height="24" viewBox="0 0 24 24" fill="none" xmlns="http://www.w3.org/2000/svg"><path d="M9.020 1.279 C 6.976 1.330,5.856 1.466,4.900 1.779 C 3.060 2.382,1.958 3.688,1.563 5.734 C 1.311 7.042,1.267 7.973,1.267 12.000 C 1.267 16.027,1.311 16.958,1.563 18.266 C 2.013 20.599,3.401 21.987,5.734 22.437 C 7.043 22.690,7.974 22.734,12.000 22.734 C 16.026 22.734,16.957 22.690,18.266 22.437 C 20.599 21.987,21.987 20.599,22.437 18.266 C 22.688 16.966,22.733 16.013,22.733 12.000 C 22.733 7.987,22.688 7.034,22.437 5.734 C 22.098 3.977,21.228 2.756,19.825 2.068 C 18.972 1.650,17.853 1.420,16.180 1.321 C 15.262 1.267,10.607 1.239,9.020 1.279 M16.600 2.836 C 18.439 3.019,19.320 3.320,20.000 4.000 C 20.692 4.693,20.998 5.605,21.168 7.480 C 21.242 8.307,21.242 15.693,21.168 16.520 C 20.996 18.419,20.693 19.311,19.982 20.013 C 19.218 20.769,18.155 21.080,15.940 21.199 C 14.954 21.252,9.046 21.252,8.060 21.199 C 5.843 21.080,4.782 20.769,4.016 20.011 C 3.342 19.345,3.026 18.464,2.852 16.760 C 2.788 16.135,2.780 15.620,2.781 11.980 C 2.782 7.664,2.793 7.353,2.984 6.240 C 3.183 5.082,3.600 4.278,4.272 3.760 C 5.025 3.178,6.058 2.913,8.002 2.802 C 8.872 2.752,16.044 2.780,16.600 2.836 M7.826 6.285 C 7.624 6.331,7.468 6.446,7.353 6.631 L 7.260 6.780 7.261 8.640 C 7.262 10.267,7.271 10.545,7.334 10.860 C 7.669 12.538,8.786 13.860,10.376 14.457 C 11.340 14.820,12.660 14.820,13.624 14.457 C 15.179 13.872,16.289 12.589,16.645 10.964 C 16.721 10.616,16.731 10.416,16.749 8.837 C 16.772 6.829,16.761 6.721,16.521 6.481 C 16.179 6.139,15.613 6.212,15.353 6.631 L 15.260 6.780 15.238 8.720 L 15.217 10.660 15.109 10.980 C 14.928 11.515,14.712 11.857,14.284 12.284 C 13.857 12.712,13.515 12.928,12.980 13.108 C 12.684 13.209,12.611 13.217,12.000 13.217 C 11.389 13.217,11.316 13.209,11.020 13.108 C 10.485 12.928,10.143 12.712,9.716 12.284 C 9.288 11.857,9.072 11.515,8.891 10.980 L 8.783 10.660 8.762 8.740 C 8.742 6.963,8.734 6.809,8.664 6.668 C 8.623 6.584,8.533 6.473,8.464 6.421 C 8.355 6.337,8.274 6.307,8.040 6.261 C 8.007 6.254,7.911 6.265,7.826 6.285 M7.826 16.284 C 7.476 16.366,7.267 16.636,7.267 17.003 C 7.267 17.281,7.387 17.496,7.627 17.645 L 7.780 17.740 12.000 17.740 L 16.220 17.740 16.369 17.647 C 16.943 17.290,16.812 16.424,16.162 16.284 C 15.907 16.229,8.059 16.229,7.826 16.284 " stroke="none" fill-rule="evenodd" fill="black"></path></svg>