<svg width="24" height="24" viewBox="0 0 24 24" fill="none" xmlns="http://www.w3.org/2000/svg"><path d="M7.420 3.283 C 4.824 3.355,3.629 3.695,2.669 4.635 C 1.940 5.348,1.564 6.261,1.379 7.767 C 1.272 8.640,1.218 11.731,1.272 13.870 C 1.330 16.176,1.404 16.875,1.682 17.727 C 2.105 19.022,2.978 19.895,4.273 20.318 C 5.402 20.686,6.664 20.758,12.000 20.758 C 17.336 20.758,18.598 20.686,19.727 20.318 C 21.002 19.901,21.880 19.036,22.302 17.779 C 22.587 16.928,22.670 16.166,22.728 13.870 C 22.764 12.440,22.764 11.560,22.728 10.130 C 22.670 7.834,22.587 7.072,22.302 6.221 C 21.886 4.984,21.016 4.114,19.779 3.698 C 18.998 3.436,18.134 3.331,16.360 3.280 C 14.828 3.236,9.033 3.238,7.420 3.283 M17.341 4.802 C 19.644 4.953,20.523 5.467,20.939 6.901 C 21.190 7.768,21.240 8.610,21.240 12.000 C 21.240 15.383,21.190 16.233,20.941 17.093 C 20.553 18.432,19.754 18.966,17.840 19.167 C 17.116 19.244,6.884 19.244,6.160 19.167 C 3.837 18.923,3.100 18.200,2.835 15.900 C 2.769 15.326,2.739 9.675,2.798 8.740 C 2.860 7.750,2.924 7.319,3.089 6.800 C 3.509 5.473,4.423 4.948,6.560 4.805 C 7.314 4.754,16.579 4.752,17.341 4.802 M6.756 7.801 C 6.087 7.904,5.599 8.286,5.397 8.867 C 5.301 9.141,5.222 9.974,5.254 10.370 C 5.280 10.692,5.384 10.900,5.589 11.041 C 5.797 11.183,6.203 11.183,6.411 11.041 C 6.683 10.854,6.733 10.703,6.758 9.993 C 6.770 9.649,6.793 9.354,6.808 9.338 C 6.868 9.279,7.199 9.243,7.710 9.242 L 8.240 9.240 8.240 11.998 L 8.240 14.755 7.484 14.768 L 6.727 14.780 6.574 14.904 C 6.355 15.081,6.269 15.248,6.269 15.494 C 6.269 15.806,6.458 16.094,6.733 16.197 C 6.807 16.226,7.575 16.240,9.000 16.240 C 10.425 16.240,11.193 16.226,11.267 16.197 C 11.542 16.094,11.731 15.806,11.731 15.494 C 11.731 15.248,11.645 15.081,11.426 14.904 L 11.273 14.780 10.516 14.768 L 9.760 14.755 9.760 11.998 L 9.760 9.240 10.290 9.242 C 10.801 9.243,11.132 9.279,11.192 9.338 C 11.207 9.354,11.230 9.649,11.242 9.993 C 11.267 10.703,11.317 10.854,11.589 11.041 C 11.797 11.183,12.203 11.183,12.411 11.041 C 12.616 10.900,12.720 10.692,12.747 10.370 C 12.778 9.983,12.697 9.142,12.601 8.863 C 12.438 8.388,12.075 8.044,11.550 7.867 C 11.309 7.786,11.221 7.782,9.140 7.775 C 7.952 7.771,6.879 7.783,6.756 7.801 " stroke="none" fill-rule="evenodd" fill="black"></path></svg>