<svg width="24" height="24" viewBox="0 0 24 24" fill="none" xmlns="http://www.w3.org/2000/svg"><path d="M11.310 1.283 C 6.653 1.563,2.667 4.904,1.564 9.450 C 1.162 11.110,1.162 12.890,1.564 14.550 C 2.415 18.060,5.032 20.948,8.442 22.139 C 10.725 22.937,13.275 22.937,15.558 22.139 C 18.633 21.065,21.092 18.592,22.157 15.503 C 22.819 13.585,22.918 11.437,22.436 9.450 C 21.419 5.255,17.924 2.044,13.657 1.383 C 13.303 1.328,12.042 1.231,11.880 1.246 C 11.847 1.249,11.590 1.266,11.310 1.283 M12.992 2.802 C 14.750 2.993,16.561 3.756,17.878 4.859 C 18.914 5.728,19.725 6.758,20.304 7.940 C 20.940 9.239,21.240 10.538,21.240 12.000 C 21.240 13.462,20.940 14.764,20.304 16.060 C 18.921 18.877,16.278 20.768,13.146 21.178 C 12.214 21.301,10.974 21.244,10.002 21.034 C 8.667 20.747,7.178 20.022,6.140 19.153 C 4.272 17.590,3.134 15.531,2.822 13.146 C 2.699 12.214,2.756 10.974,2.966 10.002 C 3.253 8.667,3.978 7.178,4.847 6.140 C 5.196 5.722,5.821 5.101,6.213 4.783 C 7.491 3.743,9.284 2.994,10.940 2.807 C 11.397 2.755,12.535 2.753,12.992 2.802 M9.199 5.277 C 8.351 5.395,7.610 6.029,7.349 6.858 L 7.260 7.140 7.260 12.160 L 7.260 17.180 7.351 17.433 C 7.567 18.031,7.970 18.433,8.567 18.648 C 8.816 18.738,8.853 18.740,10.856 18.752 C 13.478 18.768,13.832 18.735,14.548 18.400 C 15.342 18.029,15.882 17.527,16.281 16.788 C 16.600 16.197,16.729 15.680,16.729 15.000 C 16.729 14.320,16.600 13.803,16.281 13.212 C 15.947 12.593,15.478 12.107,14.900 11.779 C 14.790 11.717,14.694 11.662,14.687 11.657 C 14.680 11.652,14.767 11.533,14.880 11.394 C 15.441 10.701,15.726 9.904,15.728 9.020 C 15.730 8.323,15.603 7.810,15.281 7.212 C 14.844 6.402,14.157 5.809,13.275 5.481 C 12.755 5.288,12.586 5.272,10.960 5.259 C 10.113 5.252,9.321 5.260,9.199 5.277 M12.578 6.821 C 12.949 6.918,13.274 7.112,13.581 7.419 C 14.041 7.879,14.240 8.356,14.240 9.000 C 14.240 9.644,14.041 10.121,13.581 10.581 C 13.421 10.741,13.195 10.917,13.057 10.990 C 12.593 11.233,12.526 11.240,10.551 11.240 L 8.758 11.240 8.769 9.247 L 8.780 7.254 8.887 7.093 C 8.949 6.998,9.065 6.896,9.167 6.846 C 9.335 6.763,9.387 6.760,10.842 6.760 C 12.061 6.760,12.387 6.772,12.578 6.821 M13.578 12.821 C 13.949 12.918,14.274 13.112,14.581 13.419 C 15.041 13.879,15.240 14.356,15.240 15.000 C 15.240 15.644,15.041 16.121,14.581 16.581 C 14.421 16.741,14.195 16.917,14.057 16.990 C 13.583 17.238,13.564 17.240,11.169 17.240 L 8.994 17.240 8.877 17.123 L 8.760 17.006 8.760 14.883 L 8.760 12.760 11.052 12.760 C 12.980 12.760,13.380 12.770,13.578 12.821 " stroke="none" fill-rule="evenodd" fill="black"></path></svg>