<svg width="24" height="24" viewBox="0 0 24 24" fill="none" xmlns="http://www.w3.org/2000/svg"><path d="M9.020 1.279 C 6.976 1.330,5.856 1.466,4.900 1.779 C 3.060 2.382,1.958 3.688,1.563 5.734 C 1.311 7.042,1.267 7.973,1.267 12.000 C 1.267 16.027,1.311 16.958,1.563 18.266 C 2.013 20.599,3.401 21.987,5.734 22.437 C 7.043 22.690,7.974 22.734,12.000 22.734 C 16.026 22.734,16.957 22.690,18.266 22.437 C 20.599 21.987,21.987 20.599,22.437 18.266 C 22.688 16.966,22.733 16.013,22.733 12.000 C 22.733 7.987,22.688 7.034,22.437 5.734 C 22.098 3.977,21.228 2.756,19.825 2.068 C 18.972 1.650,17.853 1.420,16.180 1.321 C 15.262 1.267,10.607 1.239,9.020 1.279 M16.600 2.836 C 18.439 3.019,19.320 3.320,20.000 4.000 C 20.692 4.693,20.998 5.605,21.168 7.480 C 21.242 8.307,21.242 15.693,21.168 16.520 C 20.996 18.419,20.693 19.311,19.982 20.013 C 19.218 20.769,18.155 21.080,15.940 21.199 C 14.954 21.252,9.046 21.252,8.060 21.199 C 5.843 21.080,4.782 20.769,4.016 20.011 C 3.342 19.345,3.026 18.464,2.852 16.760 C 2.788 16.135,2.780 15.620,2.781 11.980 C 2.782 7.664,2.793 7.353,2.984 6.240 C 3.183 5.082,3.600 4.278,4.272 3.760 C 5.025 3.178,6.058 2.913,8.002 2.802 C 8.872 2.752,16.044 2.780,16.600 2.836 M9.060 6.278 C 8.589 6.316,8.304 6.403,8.010 6.600 C 7.450 6.973,7.243 7.590,7.241 8.882 C 7.240 9.295,7.251 9.365,7.339 9.542 C 7.484 9.831,7.665 9.940,8.000 9.940 C 8.316 9.940,8.501 9.838,8.648 9.581 C 8.732 9.434,8.742 9.356,8.762 8.669 C 8.781 8.031,8.795 7.908,8.854 7.849 C 8.915 7.787,9.047 7.779,10.081 7.767 L 11.240 7.755 11.240 8.689 C 11.240 9.605,11.242 9.628,11.339 9.822 C 11.629 10.398,12.416 10.374,12.685 9.780 C 12.749 9.640,12.758 9.503,12.759 8.687 L 12.760 7.755 13.919 7.767 C 14.942 7.779,15.085 7.788,15.145 7.848 C 15.202 7.904,15.216 8.036,15.237 8.668 C 15.259 9.354,15.269 9.434,15.353 9.581 C 15.499 9.838,15.684 9.940,16.000 9.940 C 16.342 9.940,16.517 9.832,16.667 9.527 C 16.772 9.315,16.772 9.312,16.748 8.607 C 16.706 7.367,16.487 6.856,15.850 6.510 C 15.409 6.269,15.409 6.269,12.280 6.258 C 10.707 6.253,9.258 6.262,9.060 6.278 M7.811 11.278 C 7.536 11.345,7.316 11.587,7.260 11.885 C 7.197 12.220,7.450 12.624,7.781 12.715 C 8.005 12.778,15.995 12.778,16.219 12.715 C 16.431 12.657,16.660 12.422,16.719 12.204 C 16.808 11.873,16.689 11.566,16.395 11.372 L 16.226 11.260 12.083 11.254 C 9.804 11.250,7.882 11.261,7.811 11.278 M11.700 13.817 C 11.542 13.887,11.379 14.064,11.302 14.249 C 11.252 14.369,11.240 14.576,11.240 15.316 L 11.240 16.234 10.270 16.247 C 9.194 16.261,9.164 16.268,8.928 16.537 C 8.790 16.694,8.739 16.885,8.772 17.125 C 8.802 17.353,8.949 17.546,9.178 17.661 L 9.376 17.760 11.998 17.759 C 14.465 17.758,14.629 17.754,14.780 17.684 C 15.075 17.547,15.240 17.303,15.240 17.000 C 15.240 16.799,15.181 16.647,15.047 16.506 C 14.822 16.268,14.785 16.261,13.730 16.247 L 12.760 16.234 12.759 15.307 C 12.758 14.285,12.737 14.179,12.495 13.953 C 12.288 13.759,11.956 13.702,11.700 13.817 " fill="#1C274C" stroke="none" fill-rule="evenodd"></path></svg>