<svg width="24" height="24" viewBox="0 0 24 24" fill="none" xmlns="http://www.w3.org/2000/svg"><path d="M3.826 2.285 C 3.624 2.331,3.468 2.446,3.353 2.631 L 3.260 2.780 3.260 6.260 C 3.260 10.063,3.261 10.072,3.506 11.077 C 3.885 12.632,4.823 14.270,5.926 15.300 C 7.309 16.595,8.929 17.383,10.780 17.662 C 11.377 17.752,12.623 17.752,13.220 17.662 C 15.364 17.338,17.317 16.266,18.651 14.680 C 19.528 13.636,20.182 12.359,20.493 11.080 C 20.731 10.102,20.731 10.107,20.749 6.452 C 20.762 3.973,20.754 3.025,20.720 2.859 C 20.581 2.190,19.717 2.046,19.353 2.631 L 19.260 2.780 19.239 6.360 C 19.218 9.903,19.217 9.945,19.126 10.380 C 18.820 11.839,18.150 13.086,17.118 14.118 C 16.078 15.158,14.817 15.832,13.360 16.127 C 12.959 16.208,12.784 16.220,12.000 16.220 C 11.216 16.220,11.041 16.208,10.640 16.127 C 9.183 15.832,7.922 15.158,6.882 14.118 C 5.850 13.086,5.180 11.839,4.874 10.380 C 4.783 9.945,4.782 9.902,4.761 6.380 C 4.741 2.993,4.736 2.813,4.664 2.668 C 4.623 2.584,4.533 2.473,4.464 2.421 C 4.355 2.337,4.274 2.307,4.040 2.261 C 4.007 2.254,3.911 2.265,3.826 2.285 M3.826 20.284 C 3.476 20.366,3.267 20.636,3.267 21.003 C 3.267 21.281,3.387 21.496,3.627 21.645 L 3.780 21.740 12.000 21.740 L 20.220 21.740 20.369 21.647 C 20.943 21.290,20.812 20.424,20.162 20.284 C 19.904 20.229,4.061 20.229,3.826 20.284 " stroke="none" fill-rule="evenodd" fill="black"></path></svg>