<svg width="24" height="24" viewBox="0 0 24 24" fill="none" xmlns="http://www.w3.org/2000/svg"><path d="M6.540 2.282 C 5.741 2.313,5.447 2.356,4.992 2.504 C 4.102 2.796,3.553 3.480,3.360 4.540 C 3.300 4.872,3.230 6.680,3.246 7.480 C 3.259 8.110,3.265 8.148,3.366 8.320 C 3.652 8.806,4.348 8.806,4.634 8.320 L 4.740 8.140 4.767 6.540 C 4.781 5.660,4.813 4.850,4.837 4.740 C 4.860 4.630,4.930 4.441,4.991 4.321 C 5.084 4.137,5.137 4.084,5.321 3.991 C 5.441 3.930,5.630 3.859,5.740 3.834 C 5.874 3.803,6.808 3.783,8.589 3.772 L 11.237 3.755 11.249 6.487 L 11.260 9.220 11.355 9.373 C 11.506 9.615,11.718 9.733,12.003 9.733 C 12.203 9.733,12.270 9.714,12.408 9.617 C 12.499 9.553,12.610 9.428,12.656 9.340 C 12.738 9.183,12.740 9.130,12.751 6.467 L 12.763 3.755 15.411 3.772 C 17.192 3.783,18.126 3.803,18.260 3.834 C 18.370 3.859,18.559 3.930,18.679 3.991 C 18.863 4.084,18.916 4.137,19.009 4.321 C 19.070 4.441,19.140 4.630,19.163 4.740 C 19.187 4.850,19.219 5.660,19.233 6.540 L 19.260 8.140 19.366 8.320 C 19.652 8.806,20.348 8.806,20.634 8.320 C 20.735 8.148,20.741 8.110,20.754 7.480 C 20.770 6.680,20.700 4.872,20.640 4.540 C 20.447 3.480,19.898 2.795,19.008 2.505 C 18.543 2.353,18.299 2.320,17.340 2.280 C 16.325 2.237,7.615 2.239,6.540 2.282 M3.826 11.284 C 3.476 11.366,3.267 11.636,3.267 12.003 C 3.267 12.281,3.387 12.496,3.627 12.645 L 3.780 12.740 12.000 12.740 L 20.220 12.740 20.369 12.647 C 20.943 12.290,20.812 11.424,20.162 11.284 C 19.904 11.229,4.061 11.229,3.826 11.284 M11.807 14.289 C 11.574 14.339,11.348 14.565,11.286 14.811 C 11.254 14.942,11.240 15.762,11.240 17.616 L 11.240 20.237 9.030 20.248 C 6.878 20.260,6.816 20.262,6.660 20.344 C 6.572 20.390,6.447 20.501,6.383 20.592 C 6.286 20.730,6.267 20.797,6.267 20.993 C 6.267 21.279,6.372 21.474,6.612 21.633 L 6.774 21.740 11.997 21.740 L 17.220 21.740 17.369 21.647 C 17.943 21.290,17.812 20.424,17.162 20.284 C 17.027 20.255,16.239 20.240,14.858 20.240 L 12.760 20.240 12.759 17.630 C 12.758 15.982,12.743 14.954,12.717 14.841 C 12.620 14.420,12.247 14.194,11.807 14.289 " stroke="none" fill-rule="evenodd" fill="black"></path></svg>