<svg width="24" height="24" viewBox="0 0 24 24" fill="none" xmlns="http://www.w3.org/2000/svg"><path d="M9.020 1.279 C 6.976 1.330,5.856 1.466,4.900 1.779 C 3.060 2.382,1.958 3.688,1.563 5.734 C 1.311 7.042,1.267 7.973,1.267 12.000 C 1.267 16.027,1.311 16.958,1.563 18.266 C 2.013 20.599,3.401 21.987,5.734 22.437 C 7.043 22.690,7.974 22.734,12.000 22.734 C 16.026 22.734,16.957 22.690,18.266 22.437 C 20.599 21.987,21.987 20.599,22.437 18.266 C 22.688 16.966,22.733 16.013,22.733 12.000 C 22.733 7.987,22.688 7.034,22.437 5.734 C 22.098 3.977,21.228 2.756,19.825 2.068 C 18.972 1.650,17.853 1.420,16.180 1.321 C 15.262 1.267,10.607 1.239,9.020 1.279 M16.600 2.836 C 18.439 3.019,19.320 3.320,20.000 4.000 C 20.692 4.693,20.998 5.605,21.168 7.480 C 21.242 8.307,21.242 15.693,21.168 16.520 C 20.996 18.419,20.693 19.311,19.982 20.013 C 19.218 20.769,18.155 21.080,15.940 21.199 C 14.954 21.252,9.046 21.252,8.060 21.199 C 5.843 21.080,4.782 20.769,4.016 20.011 C 3.342 19.345,3.026 18.464,2.852 16.760 C 2.788 16.135,2.780 15.620,2.781 11.980 C 2.782 7.664,2.793 7.353,2.984 6.240 C 3.183 5.082,3.600 4.278,4.272 3.760 C 5.025 3.178,6.058 2.913,8.002 2.802 C 8.872 2.752,16.044 2.780,16.600 2.836 M9.060 6.278 C 8.589 6.316,8.304 6.403,8.010 6.600 C 7.407 7.002,7.220 7.647,7.247 9.226 C 7.262 10.063,7.300 10.181,7.612 10.375 C 7.975 10.600,8.462 10.473,8.656 10.100 C 8.733 9.954,8.742 9.854,8.760 8.931 C 8.778 8.033,8.788 7.915,8.851 7.851 C 8.916 7.787,9.033 7.779,10.081 7.767 L 11.240 7.755 11.240 11.994 L 11.240 16.234 10.270 16.247 C 9.194 16.261,9.164 16.268,8.928 16.537 C 8.790 16.694,8.739 16.885,8.772 17.125 C 8.802 17.353,8.949 17.546,9.178 17.661 L 9.376 17.760 12.218 17.760 C 14.168 17.760,15.110 17.746,15.219 17.715 C 15.431 17.657,15.660 17.422,15.719 17.204 C 15.808 16.873,15.689 16.566,15.395 16.372 L 15.226 16.260 13.993 16.247 L 12.760 16.235 12.760 11.995 L 12.760 7.755 13.919 7.767 C 14.962 7.779,15.084 7.787,15.148 7.851 C 15.210 7.913,15.221 8.037,15.239 8.931 C 15.263 10.097,15.282 10.170,15.612 10.375 C 15.975 10.600,16.462 10.473,16.656 10.100 C 16.735 9.949,16.740 9.882,16.735 8.920 C 16.731 8.016,16.720 7.864,16.645 7.583 C 16.462 6.901,16.072 6.511,15.397 6.335 C 15.170 6.276,14.804 6.267,12.280 6.258 C 10.707 6.253,9.258 6.262,9.060 6.278 " fill="#1C274C" stroke="none" fill-rule="evenodd"></path></svg>