<svg width="24" height="24" viewBox="0 0 24 24" fill="none" xmlns="http://www.w3.org/2000/svg"><path d="M9.020 1.279 C 6.976 1.330,5.856 1.466,4.900 1.779 C 3.060 2.382,1.958 3.688,1.563 5.734 C 1.311 7.042,1.267 7.973,1.267 12.000 C 1.267 16.027,1.311 16.958,1.563 18.266 C 2.013 20.599,3.401 21.987,5.734 22.437 C 7.043 22.690,7.974 22.734,12.000 22.734 C 16.026 22.734,16.957 22.690,18.266 22.437 C 20.599 21.987,21.987 20.599,22.437 18.266 C 22.688 16.966,22.733 16.013,22.733 12.000 C 22.733 7.987,22.688 7.034,22.437 5.734 C 22.098 3.977,21.228 2.756,19.825 2.068 C 18.972 1.650,17.853 1.420,16.180 1.321 C 15.262 1.267,10.607 1.239,9.020 1.279 M16.600 2.836 C 18.439 3.019,19.320 3.320,20.000 4.000 C 20.692 4.693,20.998 5.605,21.168 7.480 C 21.242 8.307,21.242 15.693,21.168 16.520 C 20.996 18.419,20.693 19.311,19.982 20.013 C 19.218 20.769,18.155 21.080,15.940 21.199 C 14.954 21.252,9.046 21.252,8.060 21.199 C 5.843 21.080,4.782 20.769,4.016 20.011 C 3.342 19.345,3.026 18.464,2.852 16.760 C 2.788 16.135,2.780 15.620,2.781 11.980 C 2.782 7.664,2.793 7.353,2.984 6.240 C 3.183 5.082,3.600 4.278,4.272 3.760 C 5.025 3.178,6.058 2.913,8.002 2.802 C 8.872 2.752,16.044 2.780,16.600 2.836 M10.485 6.280 C 10.227 6.341,9.987 6.597,9.937 6.864 C 9.865 7.245,10.121 7.633,10.503 7.722 C 10.589 7.742,11.044 7.759,11.513 7.759 C 12.178 7.760,12.363 7.771,12.349 7.810 C 12.340 7.838,11.830 9.744,11.216 12.047 L 10.100 16.234 8.960 16.247 C 7.665 16.262,7.608 16.274,7.383 16.592 C 7.286 16.730,7.267 16.797,7.267 16.993 C 7.267 17.279,7.372 17.474,7.612 17.633 L 7.774 17.740 10.617 17.740 C 12.181 17.740,13.508 17.727,13.567 17.710 C 13.825 17.638,14.077 17.292,14.079 17.009 C 14.080 16.847,13.985 16.612,13.868 16.487 C 13.667 16.272,13.610 16.261,12.588 16.247 C 11.883 16.237,11.640 16.221,11.652 16.187 C 11.661 16.161,12.170 14.256,12.784 11.953 L 13.900 7.766 15.060 7.753 C 16.193 7.740,16.224 7.738,16.369 7.647 C 16.943 7.290,16.812 6.424,16.162 6.284 C 15.921 6.232,10.703 6.229,10.485 6.280 " stroke="none" fill-rule="evenodd" fill="black"></path></svg>