<svg width="24" height="24" viewBox="0 0 24 24" fill="none" xmlns="http://www.w3.org/2000/svg"><path d="M7.260 1.281 C 6.694 1.342,6.249 1.501,5.764 1.815 C 5.066 2.266,4.567 2.979,4.348 3.836 L 4.260 4.180 4.260 12.280 L 4.260 20.380 4.352 20.700 C 4.618 21.622,5.355 22.365,6.280 22.646 L 6.580 22.737 10.200 22.751 C 14.592 22.768,14.930 22.749,15.860 22.431 C 18.329 21.589,19.926 19.160,19.717 16.562 C 19.633 15.523,19.326 14.642,18.743 13.765 C 18.122 12.832,17.048 11.991,16.000 11.618 C 15.835 11.560,15.685 11.498,15.668 11.482 C 15.650 11.465,15.731 11.366,15.848 11.262 C 17.546 9.746,18.172 7.290,17.418 5.105 C 16.855 3.475,15.525 2.145,13.895 1.582 C 13.386 1.406,12.987 1.326,12.385 1.280 C 11.818 1.235,7.671 1.237,7.260 1.281 M13.020 2.868 C 13.874 3.123,14.446 3.451,14.998 4.002 C 15.552 4.557,15.925 5.218,16.147 6.040 C 16.251 6.424,16.249 7.546,16.144 7.960 C 15.748 9.520,14.617 10.677,13.047 11.128 C 12.743 11.215,12.708 11.216,9.250 11.229 L 5.760 11.243 5.761 7.751 L 5.762 4.260 5.858 3.988 C 6.041 3.469,6.467 3.043,6.988 2.857 L 7.260 2.760 10.000 2.772 C 12.643 2.784,12.750 2.788,13.020 2.868 M15.020 12.867 C 15.879 13.126,16.447 13.452,16.998 14.002 C 17.552 14.557,17.925 15.218,18.147 16.040 C 18.251 16.424,18.249 17.546,18.144 17.960 C 17.748 19.520,16.618 20.676,15.047 21.128 C 14.741 21.216,14.725 21.216,10.775 21.229 L 6.810 21.243 6.582 21.157 C 6.274 21.042,5.958 20.727,5.844 20.422 C 5.761 20.199,5.760 20.159,5.760 16.477 L 5.760 12.758 10.250 12.770 C 14.680 12.783,14.744 12.784,15.020 12.867 " stroke="none" fill-rule="evenodd" fill="black"></path></svg>