<svg width="24" height="24" viewBox="0 0 24 24" fill="none" xmlns="http://www.w3.org/2000/svg"><path d="M11.310 1.283 C 6.653 1.563,2.667 4.904,1.564 9.450 C 1.162 11.110,1.162 12.890,1.564 14.550 C 2.415 18.060,5.032 20.948,8.442 22.139 C 10.725 22.937,13.275 22.937,15.558 22.139 C 18.633 21.065,21.092 18.592,22.157 15.503 C 22.819 13.585,22.918 11.437,22.436 9.450 C 21.419 5.255,17.924 2.044,13.657 1.383 C 13.303 1.328,12.042 1.231,11.880 1.246 C 11.847 1.249,11.590 1.266,11.310 1.283 M12.992 2.802 C 14.750 2.993,16.561 3.756,17.878 4.859 C 18.914 5.728,19.725 6.758,20.304 7.940 C 20.940 9.239,21.240 10.538,21.240 12.000 C 21.240 13.462,20.940 14.764,20.304 16.060 C 18.921 18.877,16.278 20.768,13.146 21.178 C 12.214 21.301,10.974 21.244,10.002 21.034 C 8.667 20.747,7.178 20.022,6.140 19.153 C 4.272 17.590,3.134 15.531,2.822 13.146 C 2.699 12.214,2.756 10.974,2.966 10.002 C 3.253 8.667,3.978 7.178,4.847 6.140 C 5.196 5.722,5.821 5.101,6.213 4.783 C 7.491 3.743,9.284 2.994,10.940 2.807 C 11.397 2.755,12.535 2.753,12.992 2.802 M7.826 6.285 C 7.624 6.331,7.468 6.446,7.353 6.631 L 7.260 6.780 7.261 8.640 C 7.262 10.267,7.271 10.545,7.334 10.860 C 7.669 12.538,8.786 13.860,10.376 14.457 C 11.340 14.820,12.660 14.820,13.624 14.457 C 15.179 13.872,16.289 12.589,16.645 10.964 C 16.721 10.616,16.731 10.416,16.749 8.837 C 16.772 6.829,16.761 6.721,16.521 6.481 C 16.179 6.139,15.613 6.212,15.353 6.631 L 15.260 6.780 15.238 8.720 L 15.217 10.660 15.109 10.980 C 14.928 11.515,14.712 11.857,14.284 12.284 C 13.857 12.712,13.515 12.928,12.980 13.108 C 12.684 13.209,12.611 13.217,12.000 13.217 C 11.389 13.217,11.316 13.209,11.020 13.108 C 10.485 12.928,10.143 12.712,9.716 12.284 C 9.288 11.857,9.072 11.515,8.891 10.980 L 8.783 10.660 8.762 8.740 C 8.742 6.963,8.734 6.809,8.664 6.668 C 8.623 6.584,8.533 6.473,8.464 6.421 C 8.355 6.337,8.274 6.307,8.040 6.261 C 8.007 6.254,7.911 6.265,7.826 6.285 M7.826 16.284 C 7.476 16.366,7.267 16.636,7.267 17.003 C 7.267 17.281,7.387 17.496,7.627 17.645 L 7.780 17.740 12.000 17.740 L 16.220 17.740 16.369 17.647 C 16.943 17.290,16.812 16.424,16.162 16.284 C 15.907 16.229,8.059 16.229,7.826 16.284 " stroke="none" fill-rule="evenodd" fill="black"></path></svg>