<svg width="24" height="24" viewBox="0 0 24 24" fill="none" xmlns="http://www.w3.org/2000/svg"><path d="M11.310 1.283 C 6.653 1.563,2.667 4.904,1.564 9.450 C 1.162 11.110,1.162 12.890,1.564 14.550 C 2.415 18.060,5.032 20.948,8.442 22.139 C 10.725 22.937,13.275 22.937,15.558 22.139 C 18.633 21.065,21.092 18.592,22.157 15.503 C 22.819 13.585,22.918 11.437,22.436 9.450 C 21.419 5.255,17.924 2.044,13.657 1.383 C 13.303 1.328,12.042 1.231,11.880 1.246 C 11.847 1.249,11.590 1.266,11.310 1.283 M12.992 2.802 C 14.750 2.993,16.561 3.756,17.878 4.859 C 18.914 5.728,19.725 6.758,20.304 7.940 C 20.940 9.239,21.240 10.538,21.240 12.000 C 21.240 13.462,20.940 14.764,20.304 16.060 C 18.921 18.877,16.278 20.768,13.146 21.178 C 12.214 21.301,10.974 21.244,10.002 21.034 C 8.667 20.747,7.178 20.022,6.140 19.153 C 4.272 17.590,3.134 15.531,2.822 13.146 C 2.699 12.214,2.756 10.974,2.966 10.002 C 3.253 8.667,3.978 7.178,4.847 6.140 C 5.196 5.722,5.821 5.101,6.213 4.783 C 7.491 3.743,9.284 2.994,10.940 2.807 C 11.397 2.755,12.535 2.753,12.992 2.802 M9.055 6.280 C 8.579 6.321,8.298 6.406,8.028 6.590 C 7.769 6.767,7.640 6.914,7.499 7.195 C 7.314 7.563,7.271 7.886,7.265 8.960 L 7.260 9.940 7.366 10.120 C 7.653 10.608,8.360 10.604,8.640 10.114 C 8.736 9.945,8.740 9.910,8.763 8.940 C 8.776 8.390,8.799 7.911,8.816 7.874 C 8.861 7.773,9.012 7.760,10.165 7.760 L 11.240 7.760 11.240 11.997 L 11.240 16.234 10.270 16.247 C 9.215 16.261,9.178 16.268,8.953 16.506 C 8.691 16.783,8.691 17.217,8.953 17.494 C 9.198 17.753,9.019 17.739,12.117 17.751 C 14.086 17.759,15.000 17.749,15.151 17.718 C 15.919 17.558,15.928 16.448,15.162 16.284 C 15.040 16.258,14.509 16.240,13.858 16.240 L 12.760 16.240 12.760 12.000 L 12.760 7.760 13.835 7.760 C 14.988 7.760,15.139 7.773,15.184 7.874 C 15.201 7.911,15.224 8.390,15.237 8.940 C 15.260 9.910,15.264 9.945,15.360 10.114 C 15.641 10.606,16.359 10.606,16.640 10.114 C 16.740 9.941,16.740 9.936,16.734 8.960 C 16.730 8.250,16.711 7.901,16.667 7.693 C 16.509 6.953,16.077 6.499,15.371 6.332 C 15.138 6.277,14.702 6.267,12.260 6.258 C 10.698 6.253,9.256 6.262,9.055 6.280 " stroke="none" fill-rule="evenodd" fill="black"></path></svg>