<svg width="24" height="24" viewBox="0 0 24 24" fill="none" xmlns="http://www.w3.org/2000/svg"><path d="M16.720 2.267 C 15.740 2.335,14.850 2.659,14.105 3.218 C 13.764 3.474,4.436 12.810,4.225 13.107 C 4.144 13.221,4.008 13.464,3.922 13.647 C 3.582 14.372,3.501 15.025,3.619 16.073 C 3.720 16.969,3.675 17.103,3.047 17.770 C 2.431 18.425,2.268 18.784,2.268 19.480 C 2.268 20.132,2.472 20.632,2.920 21.080 C 3.368 21.528,3.868 21.732,4.520 21.732 C 5.216 21.732,5.575 21.569,6.230 20.953 C 6.894 20.328,7.037 20.281,7.940 20.383 C 8.653 20.463,9.239 20.443,9.691 20.324 C 10.065 20.226,10.608 19.978,10.893 19.775 C 11.188 19.565,20.525 10.238,20.779 9.899 C 21.178 9.367,21.511 8.643,21.638 8.029 C 21.719 7.640,21.751 7.031,21.714 6.600 C 21.571 4.921,20.548 3.455,19.007 2.717 C 18.336 2.396,17.431 2.218,16.720 2.267 M17.659 3.821 C 18.027 3.897,18.449 4.069,18.749 4.266 C 19.045 4.459,19.541 4.955,19.734 5.251 C 20.390 6.254,20.415 7.655,19.794 8.711 C 19.717 8.842,19.389 9.216,19.022 9.591 L 18.384 10.243 17.942 9.806 C 17.699 9.565,17.456 9.346,17.402 9.319 C 17.348 9.291,17.211 9.269,17.098 9.269 C 16.709 9.269,16.406 9.538,16.369 9.917 C 16.338 10.238,16.410 10.370,16.883 10.858 L 17.316 11.305 16.247 12.373 L 15.179 13.440 14.760 13.017 C 14.529 12.785,14.286 12.566,14.221 12.531 C 14.155 12.497,14.009 12.469,13.897 12.469 C 13.509 12.469,13.206 12.739,13.169 13.117 C 13.138 13.438,13.210 13.570,13.683 14.058 L 14.116 14.505 13.047 15.573 L 11.979 16.640 11.579 16.237 C 11.360 16.016,11.113 15.799,11.032 15.757 C 10.855 15.665,10.524 15.655,10.368 15.736 C 10.245 15.801,10.071 15.978,10.005 16.107 C 9.948 16.218,9.947 16.560,10.002 16.706 C 10.025 16.767,10.241 17.016,10.482 17.261 L 10.920 17.704 10.490 18.125 C 10.028 18.577,9.838 18.706,9.455 18.832 C 9.062 18.961,8.754 18.976,8.074 18.899 C 7.342 18.817,6.964 18.837,6.531 18.981 C 6.107 19.123,5.732 19.366,5.274 19.796 C 4.856 20.189,4.767 20.240,4.495 20.240 C 4.086 20.240,3.760 19.914,3.760 19.504 C 3.760 19.232,3.812 19.142,4.201 18.730 C 4.627 18.281,4.875 17.897,5.024 17.460 C 5.156 17.072,5.172 16.571,5.082 15.704 C 5.030 15.203,5.031 15.118,5.089 14.836 C 5.124 14.664,5.212 14.401,5.283 14.252 C 5.405 13.996,5.694 13.699,10.236 9.159 C 15.270 4.128,15.188 4.205,15.763 3.973 C 16.277 3.765,17.077 3.701,17.659 3.821 M15.180 7.837 C 15.070 7.888,13.976 8.958,11.694 11.246 C 9.865 13.080,8.346 14.625,8.318 14.680 C 8.290 14.735,8.267 14.881,8.267 15.004 C 8.267 15.501,8.699 15.834,9.191 15.715 C 9.370 15.672,9.553 15.497,12.734 12.325 C 15.039 10.026,16.112 8.930,16.163 8.820 C 16.258 8.617,16.259 8.385,16.165 8.180 C 16.077 7.990,15.988 7.904,15.790 7.822 C 15.594 7.740,15.375 7.745,15.180 7.837 " stroke="none" fill-rule="evenodd" fill="black"></path></svg>