<svg width="24" height="24" viewBox="0 0 24 24" fill="none" xmlns="http://www.w3.org/2000/svg"><path d="M14.520 1.282 C 14.135 1.298,13.703 1.332,13.560 1.357 C 12.379 1.569,11.705 2.170,11.419 3.271 C 11.333 3.600,11.286 4.175,11.257 5.243 L 11.230 6.226 9.985 6.273 C 9.300 6.299,8.641 6.339,8.520 6.362 C 7.364 6.583,6.702 7.185,6.419 8.271 C 6.333 8.600,6.286 9.175,6.257 10.243 L 6.230 11.226 4.985 11.273 C 4.300 11.299,3.641 11.339,3.520 11.362 C 2.168 11.620,1.494 12.386,1.319 13.860 C 1.205 14.823,1.236 19.776,1.360 20.460 C 1.588 21.712,2.289 22.412,3.540 22.640 C 4.395 22.795,9.605 22.795,10.460 22.640 C 11.711 22.412,12.411 21.712,12.640 20.460 C 12.683 20.224,12.756 18.788,12.758 18.117 L 12.760 17.774 14.010 17.727 C 15.331 17.678,15.517 17.656,16.008 17.496 C 16.898 17.205,17.446 16.520,17.640 15.460 C 17.683 15.224,17.756 13.788,17.758 13.117 L 17.760 12.774 19.010 12.727 C 20.331 12.678,20.517 12.656,21.008 12.496 C 21.898 12.205,22.446 11.520,22.640 10.460 C 22.794 9.612,22.794 4.391,22.640 3.540 C 22.412 2.289,21.711 1.588,20.460 1.360 C 19.876 1.254,16.325 1.207,14.520 1.282 M20.260 2.834 C 20.370 2.859,20.559 2.930,20.679 2.991 C 20.863 3.084,20.916 3.137,21.009 3.321 C 21.217 3.729,21.220 3.789,21.220 7.000 C 21.220 10.211,21.217 10.271,21.009 10.679 C 20.916 10.863,20.863 10.916,20.679 11.009 C 20.271 11.217,20.211 11.220,17.000 11.220 C 13.789 11.220,13.729 11.217,13.321 11.009 C 13.137 10.916,13.084 10.863,12.991 10.679 C 12.930 10.559,12.859 10.370,12.834 10.260 C 12.769 9.974,12.738 4.691,12.798 4.107 C 12.850 3.610,12.955 3.291,13.123 3.123 C 13.276 2.970,13.601 2.851,13.989 2.805 C 14.447 2.751,20.009 2.776,20.260 2.834 M11.273 9.010 C 11.322 10.331,11.344 10.517,11.504 11.008 C 11.793 11.891,12.469 12.437,13.520 12.638 C 13.641 12.661,14.305 12.702,14.995 12.727 L 16.249 12.775 16.228 13.917 C 16.204 15.148,16.180 15.342,16.009 15.679 C 15.916 15.863,15.863 15.916,15.679 16.009 C 15.271 16.217,15.211 16.220,12.000 16.220 C 8.789 16.220,8.729 16.217,8.321 16.009 C 8.137 15.916,8.084 15.863,7.991 15.679 C 7.930 15.559,7.859 15.370,7.834 15.260 C 7.769 14.974,7.738 9.691,7.798 9.107 C 7.874 8.371,8.036 8.082,8.460 7.924 C 8.774 7.806,9.171 7.771,10.263 7.765 L 11.226 7.760 11.273 9.010 M6.273 14.010 C 6.322 15.331,6.344 15.517,6.504 16.008 C 6.793 16.891,7.469 17.437,8.520 17.638 C 8.641 17.661,9.305 17.702,9.995 17.727 L 11.249 17.775 11.228 18.917 C 11.204 20.148,11.180 20.342,11.009 20.679 C 10.916 20.863,10.863 20.916,10.679 21.009 C 10.271 21.217,10.211 21.220,7.000 21.220 C 3.789 21.220,3.729 21.217,3.321 21.009 C 3.137 20.916,3.084 20.863,2.991 20.679 C 2.930 20.559,2.859 20.370,2.834 20.260 C 2.769 19.974,2.738 14.691,2.798 14.107 C 2.874 13.371,3.036 13.082,3.460 12.924 C 3.774 12.806,4.171 12.771,5.263 12.765 L 6.226 12.760 6.273 14.010 " stroke="none" fill-rule="evenodd" fill="black"></path></svg>