<svg width="24" height="24" viewBox="0 0 24 24" fill="none" xmlns="http://www.w3.org/2000/svg"><path d="M7.460 3.282 C 5.836 3.326,4.926 3.446,4.136 3.722 C 2.638 4.246,1.745 5.390,1.441 7.176 C 1.278 8.131,1.216 9.467,1.317 9.820 C 1.401 10.113,1.743 10.434,2.306 10.750 C 2.997 11.138,3.218 11.442,3.218 12.000 C 3.218 12.558,2.997 12.862,2.306 13.250 C 1.743 13.566,1.401 13.887,1.317 14.180 C 1.216 14.533,1.278 15.869,1.441 16.824 C 1.745 18.612,2.637 19.754,4.136 20.278 C 4.567 20.428,5.305 20.579,5.900 20.639 C 6.676 20.717,8.738 20.757,12.000 20.757 C 15.262 20.757,17.324 20.717,18.100 20.639 C 18.695 20.579,19.433 20.428,19.864 20.278 C 21.317 19.770,22.216 18.657,22.536 16.968 C 22.706 16.074,22.786 14.541,22.683 14.180 C 22.599 13.887,22.257 13.566,21.694 13.250 C 21.003 12.862,20.782 12.558,20.782 12.000 C 20.782 11.442,21.003 11.138,21.694 10.750 C 22.257 10.434,22.599 10.113,22.683 9.820 C 22.786 9.459,22.706 7.926,22.536 7.032 C 22.216 5.343,21.317 4.230,19.864 3.722 C 19.425 3.569,18.690 3.420,18.080 3.360 C 17.827 3.335,17.044 3.299,16.340 3.279 C 14.877 3.237,9.015 3.239,7.460 3.282 M17.341 4.802 C 18.522 4.878,19.131 5.004,19.720 5.292 C 20.476 5.662,20.905 6.339,21.096 7.466 C 21.170 7.902,21.240 8.649,21.240 9.009 C 21.240 9.245,21.229 9.285,21.150 9.334 C 21.101 9.364,20.912 9.476,20.732 9.581 C 20.339 9.811,20.048 10.058,19.842 10.338 C 19.096 11.348,19.096 12.652,19.842 13.662 C 20.048 13.942,20.339 14.189,20.732 14.419 C 20.912 14.524,21.101 14.636,21.150 14.666 C 21.229 14.715,21.240 14.755,21.240 14.991 C 21.240 15.351,21.170 16.098,21.096 16.534 C 20.821 18.154,20.073 18.856,18.361 19.100 C 17.500 19.222,16.726 19.239,12.000 19.239 C 7.274 19.239,6.500 19.222,5.639 19.100 C 3.932 18.857,3.169 18.143,2.903 16.540 C 2.829 16.093,2.760 15.347,2.760 14.991 C 2.760 14.755,2.771 14.715,2.850 14.666 C 2.899 14.636,3.088 14.524,3.268 14.419 C 3.661 14.189,3.952 13.942,4.158 13.662 C 4.904 12.652,4.904 11.348,4.158 10.338 C 3.952 10.058,3.661 9.811,3.268 9.581 C 3.088 9.476,2.899 9.364,2.850 9.334 C 2.771 9.285,2.760 9.245,2.760 9.009 C 2.760 8.649,2.830 7.902,2.904 7.466 C 3.218 5.612,4.104 4.970,6.580 4.804 C 7.313 4.755,16.589 4.753,17.341 4.802 M14.800 8.289 C 14.630 8.324,14.452 8.494,11.528 11.413 C 9.827 13.111,8.398 14.561,8.351 14.636 C 8.231 14.828,8.234 15.177,8.358 15.377 C 8.504 15.613,8.720 15.733,8.997 15.733 C 9.164 15.733,9.267 15.710,9.364 15.649 C 9.439 15.602,10.889 14.173,12.586 12.472 C 15.576 9.476,15.673 9.374,15.712 9.189 C 15.832 8.604,15.389 8.167,14.800 8.289 M9.046 8.623 C 8.680 8.808,8.499 9.141,8.527 9.580 C 8.548 9.907,8.704 10.169,8.978 10.339 C 9.154 10.448,9.207 10.460,9.500 10.460 C 9.793 10.460,9.846 10.448,10.022 10.339 C 10.143 10.264,10.264 10.143,10.339 10.022 C 10.448 9.846,10.460 9.793,10.460 9.500 C 10.460 9.207,10.448 9.154,10.339 8.978 C 10.160 8.689,9.905 8.545,9.544 8.528 C 9.299 8.517,9.230 8.530,9.046 8.623 M14.046 13.623 C 13.680 13.808,13.499 14.141,13.527 14.580 C 13.548 14.907,13.704 15.169,13.978 15.339 C 14.154 15.448,14.207 15.460,14.500 15.460 C 14.793 15.460,14.846 15.448,15.022 15.339 C 15.143 15.264,15.264 15.143,15.339 15.022 C 15.448 14.846,15.460 14.793,15.460 14.500 C 15.460 14.207,15.448 14.154,15.339 13.978 C 15.160 13.689,14.905 13.545,14.544 13.528 C 14.299 13.517,14.230 13.530,14.046 13.623 " stroke="none" fill-rule="evenodd" fill="black"></path></svg>