<svg width="24" height="24" viewBox="0 0 24 24" fill="none" xmlns="http://www.w3.org/2000/svg"><path d="M7.420 3.283 C 5.490 3.337,4.444 3.521,3.590 3.957 C 1.998 4.772,1.311 6.331,1.272 9.220 C 1.266 9.718,1.274 9.801,1.352 9.973 C 1.532 10.376,1.833 10.638,2.280 10.782 C 2.886 10.977,3.218 11.408,3.218 12.000 C 3.218 12.592,2.886 13.023,2.280 13.218 C 1.833 13.362,1.532 13.624,1.352 14.027 C 1.274 14.199,1.266 14.282,1.272 14.780 C 1.288 15.932,1.452 17.124,1.686 17.792 C 2.217 19.306,3.248 20.154,4.976 20.498 C 5.662 20.635,6.167 20.678,7.580 20.720 C 9.179 20.768,14.816 20.768,16.420 20.720 C 17.783 20.680,18.279 20.640,18.938 20.516 C 20.997 20.131,22.131 19.016,22.524 16.991 C 22.627 16.458,22.718 15.467,22.728 14.780 C 22.734 14.282,22.726 14.199,22.648 14.027 C 22.468 13.624,22.167 13.362,21.720 13.218 C 21.114 13.023,20.782 12.592,20.782 12.000 C 20.782 11.408,21.114 10.977,21.720 10.782 C 22.167 10.638,22.468 10.376,22.648 9.973 C 22.726 9.801,22.734 9.718,22.728 9.220 C 22.718 8.533,22.627 7.542,22.524 7.009 C 22.185 5.260,21.251 4.155,19.700 3.669 C 18.920 3.424,18.109 3.330,16.360 3.280 C 14.827 3.236,9.032 3.238,7.420 3.283 M17.920 4.835 C 18.464 4.902,18.909 4.988,19.204 5.083 C 20.609 5.537,21.106 6.455,21.225 8.813 L 21.252 9.364 21.156 9.389 C 21.104 9.403,20.917 9.486,20.742 9.574 C 20.501 9.694,20.344 9.813,20.101 10.057 C 19.744 10.417,19.566 10.691,19.408 11.127 C 19.312 11.393,19.302 11.473,19.302 12.000 C 19.302 12.527,19.312 12.607,19.408 12.873 C 19.565 13.308,19.743 13.583,20.100 13.944 C 20.345 14.191,20.495 14.305,20.740 14.426 C 20.916 14.514,21.104 14.597,21.156 14.611 L 21.252 14.636 21.225 15.187 C 21.080 18.078,20.383 18.897,17.840 19.167 C 17.114 19.244,6.886 19.244,6.160 19.167 C 5.552 19.102,5.132 19.025,4.795 18.916 C 3.388 18.462,2.894 17.547,2.775 15.177 L 2.748 14.636 2.844 14.611 C 2.896 14.597,3.084 14.514,3.260 14.426 C 3.505 14.305,3.655 14.191,3.900 13.944 C 4.257 13.583,4.435 13.308,4.592 12.873 C 4.688 12.607,4.698 12.527,4.698 12.000 C 4.698 11.473,4.688 11.393,4.592 11.127 C 4.434 10.691,4.256 10.417,3.899 10.057 C 3.656 9.813,3.499 9.694,3.258 9.574 C 3.083 9.486,2.896 9.403,2.844 9.389 L 2.748 9.364 2.775 8.823 C 2.927 5.794,3.675 5.003,6.580 4.803 C 7.338 4.750,17.464 4.779,17.920 4.835 M11.820 8.280 C 11.334 8.355,11.063 8.648,10.416 9.795 C 10.343 9.926,10.319 9.935,9.735 10.082 C 9.403 10.165,9.054 10.272,8.961 10.319 C 8.528 10.540,8.266 10.941,8.272 11.373 C 8.279 11.817,8.430 12.105,9.029 12.811 L 9.327 13.162 9.278 13.745 C 9.197 14.709,9.272 15.077,9.617 15.422 C 9.845 15.650,10.079 15.739,10.424 15.731 C 10.710 15.725,10.906 15.666,11.490 15.412 L 12.000 15.190 12.510 15.412 C 13.094 15.666,13.290 15.725,13.576 15.731 C 13.921 15.739,14.155 15.650,14.383 15.422 C 14.728 15.077,14.803 14.709,14.722 13.745 L 14.673 13.162 14.971 12.811 C 15.570 12.105,15.721 11.817,15.728 11.373 C 15.734 10.941,15.472 10.540,15.039 10.319 C 14.946 10.272,14.597 10.165,14.265 10.082 C 13.681 9.935,13.657 9.926,13.584 9.795 C 13.049 8.847,12.794 8.520,12.471 8.371 C 12.270 8.277,12.043 8.246,11.820 8.280 M12.239 10.450 C 12.637 11.149,12.769 11.249,13.551 11.441 C 13.801 11.502,14.014 11.561,14.024 11.571 C 14.034 11.580,13.894 11.766,13.714 11.984 C 13.534 12.202,13.342 12.478,13.287 12.597 C 13.191 12.807,13.189 12.831,13.213 13.447 C 13.229 13.860,13.224 14.080,13.198 14.080 C 13.176 14.080,13.053 14.027,12.925 13.962 C 12.577 13.787,12.227 13.680,12.000 13.680 C 11.773 13.680,11.423 13.787,11.075 13.962 C 10.947 14.027,10.824 14.080,10.802 14.080 C 10.776 14.080,10.771 13.860,10.787 13.447 C 10.811 12.831,10.809 12.807,10.713 12.597 C 10.658 12.478,10.466 12.202,10.286 11.984 C 10.106 11.766,9.966 11.580,9.976 11.571 C 9.986 11.561,10.199 11.502,10.449 11.441 C 11.236 11.248,11.368 11.146,11.782 10.410 C 11.884 10.229,11.981 10.080,11.998 10.080 C 12.015 10.080,12.123 10.247,12.239 10.450 " stroke="none" fill-rule="evenodd" fill="black"></path></svg>