<svg width="24" height="24" viewBox="0 0 24 24" fill="none" xmlns="http://www.w3.org/2000/svg"><path d="M10.318 4.282 C 6.911 4.380,4.020 4.832,3.010 5.424 C 2.738 5.583,2.457 5.860,2.357 6.067 C 2.238 6.312,2.238 6.688,2.357 6.933 C 2.457 7.140,2.738 7.417,3.010 7.576 C 3.822 8.052,5.975 8.462,8.600 8.639 C 11.036 8.804,14.397 8.761,16.620 8.537 C 18.288 8.368,19.565 8.129,20.411 7.826 C 20.877 7.660,21.113 7.527,21.368 7.289 C 21.624 7.049,21.730 6.820,21.730 6.504 C 21.730 5.749,21.070 5.279,19.480 4.902 C 18.740 4.727,17.386 4.520,16.983 4.520 C 16.335 4.521,16.015 5.305,16.475 5.764 C 16.656 5.945,16.743 5.969,17.705 6.100 C 18.397 6.194,18.985 6.307,19.478 6.439 C 19.696 6.498,19.663 6.521,19.200 6.634 C 18.447 6.817,17.024 7.017,15.740 7.119 C 13.663 7.285,10.367 7.285,8.240 7.118 C 6.744 7.001,4.705 6.683,4.403 6.520 C 4.228 6.425,6.086 6.086,7.580 5.942 C 8.701 5.833,9.348 5.798,10.660 5.776 C 11.364 5.764,12.036 5.736,12.154 5.714 C 12.902 5.571,12.929 4.473,12.189 4.286 C 11.992 4.237,11.901 4.237,10.318 4.282 M3.785 9.289 C 3.431 9.383,3.187 9.812,3.283 10.172 C 3.383 10.551,3.610 10.701,4.441 10.940 C 7.077 11.699,11.620 11.949,15.680 11.558 C 17.245 11.407,19.073 11.077,20.039 10.770 C 20.449 10.640,20.642 10.473,20.714 10.186 C 20.814 9.790,20.577 9.384,20.187 9.286 C 19.985 9.235,19.925 9.244,19.342 9.416 C 18.338 9.713,16.659 9.981,14.800 10.142 C 13.804 10.229,10.772 10.265,9.680 10.204 C 7.493 10.081,5.896 9.832,4.548 9.403 C 3.994 9.226,4.012 9.229,3.785 9.289 M5.785 12.289 C 5.568 12.347,5.344 12.582,5.286 12.814 C 5.112 13.505,5.861 14.054,7.426 14.383 C 7.831 14.469,7.938 14.478,8.074 14.442 C 8.506 14.325,8.746 13.852,8.578 13.449 C 8.445 13.132,8.305 13.045,7.721 12.921 C 7.155 12.801,6.713 12.634,6.517 12.467 C 6.428 12.391,6.276 12.308,6.180 12.284 C 5.981 12.234,5.994 12.234,5.785 12.289 M17.796 12.285 C 17.717 12.307,17.567 12.396,17.463 12.482 C 16.943 12.912,15.363 13.175,12.955 13.234 L 11.771 13.262 11.610 13.368 C 11.372 13.526,11.267 13.722,11.267 14.007 C 11.267 14.203,11.286 14.270,11.383 14.408 C 11.603 14.718,11.695 14.741,12.680 14.730 C 16.286 14.687,18.478 14.124,18.716 13.179 C 18.854 12.632,18.342 12.135,17.796 12.285 M7.785 15.289 C 7.698 15.312,7.564 15.396,7.481 15.479 C 7.111 15.849,7.221 16.451,7.700 16.676 C 8.052 16.841,9.026 17.037,10.140 17.167 C 10.419 17.200,11.100 17.219,12.000 17.219 C 12.900 17.219,13.581 17.200,13.860 17.167 C 14.974 17.037,15.948 16.841,16.300 16.676 C 16.779 16.451,16.889 15.849,16.519 15.479 C 16.299 15.259,16.065 15.213,15.700 15.321 C 14.691 15.617,13.623 15.737,12.000 15.737 C 10.380 15.737,9.320 15.618,8.300 15.321 C 7.990 15.231,8.002 15.232,7.785 15.289 M15.580 17.843 C 15.182 17.975,14.529 18.121,14.064 18.182 C 13.224 18.293,11.616 18.246,10.507 18.078 C 9.928 17.991,9.762 18.008,9.539 18.178 C 9.355 18.319,9.269 18.494,9.266 18.739 C 9.262 19.009,9.404 19.268,9.625 19.389 C 10.117 19.661,12.975 19.831,14.230 19.663 C 14.803 19.586,15.420 19.453,15.980 19.285 C 16.320 19.183,16.402 19.141,16.527 19.007 C 16.854 18.656,16.809 18.194,16.419 17.897 C 16.226 17.750,15.920 17.730,15.580 17.843 " stroke="none" fill-rule="evenodd" fill="black"></path></svg>