<svg width="24" height="24" viewBox="0 0 24 24" fill="none" xmlns="http://www.w3.org/2000/svg"><path d="M10.318 2.282 C 6.911 2.380,4.020 2.832,3.010 3.424 C 2.738 3.583,2.457 3.860,2.357 4.067 C 2.238 4.312,2.238 4.688,2.357 4.933 C 2.457 5.140,2.738 5.417,3.010 5.576 C 3.822 6.052,5.975 6.462,8.600 6.639 C 11.036 6.804,14.397 6.761,16.620 6.537 C 18.288 6.368,19.565 6.129,20.411 5.826 C 20.877 5.660,21.113 5.527,21.368 5.289 C 21.624 5.049,21.730 4.820,21.730 4.504 C 21.730 3.749,21.070 3.279,19.480 2.902 C 18.740 2.727,17.386 2.520,16.983 2.520 C 16.335 2.521,16.015 3.305,16.475 3.764 C 16.656 3.945,16.743 3.969,17.705 4.100 C 18.397 4.194,18.985 4.307,19.478 4.439 C 19.696 4.498,19.663 4.521,19.200 4.634 C 18.447 4.817,17.024 5.017,15.740 5.119 C 13.663 5.285,10.367 5.285,8.240 5.118 C 6.744 5.001,4.705 4.683,4.403 4.520 C 4.228 4.425,6.086 4.086,7.580 3.942 C 8.701 3.833,9.348 3.798,10.660 3.776 C 11.364 3.764,12.036 3.736,12.154 3.714 C 12.902 3.571,12.929 2.473,12.189 2.286 C 11.992 2.237,11.901 2.237,10.318 2.282 M3.785 7.289 C 3.431 7.383,3.187 7.812,3.283 8.172 C 3.383 8.551,3.610 8.701,4.441 8.940 C 7.077 9.699,11.620 9.949,15.680 9.558 C 17.245 9.407,19.073 9.077,20.039 8.770 C 20.449 8.640,20.642 8.473,20.714 8.186 C 20.814 7.790,20.577 7.384,20.187 7.286 C 19.985 7.235,19.925 7.244,19.342 7.416 C 18.338 7.713,16.659 7.981,14.800 8.142 C 13.802 8.229,10.771 8.265,9.680 8.204 C 7.534 8.082,5.865 7.822,4.548 7.403 C 3.994 7.226,4.012 7.229,3.785 7.289 M5.785 10.289 C 5.568 10.347,5.344 10.582,5.286 10.814 C 5.112 11.505,5.861 12.054,7.426 12.383 C 7.831 12.469,7.938 12.478,8.074 12.442 C 8.506 12.325,8.746 11.852,8.578 11.449 C 8.445 11.132,8.305 11.045,7.721 10.921 C 7.155 10.801,6.713 10.634,6.517 10.467 C 6.428 10.391,6.276 10.308,6.180 10.284 C 5.981 10.234,5.994 10.234,5.785 10.289 M17.796 10.285 C 17.717 10.307,17.567 10.396,17.463 10.482 C 16.943 10.912,15.363 11.175,12.955 11.234 L 11.771 11.262 11.610 11.368 C 11.372 11.526,11.267 11.722,11.267 12.007 C 11.267 12.203,11.286 12.270,11.383 12.408 C 11.603 12.718,11.695 12.741,12.680 12.730 C 16.286 12.687,18.478 12.124,18.716 11.179 C 18.854 10.632,18.342 10.135,17.796 10.285 M7.785 13.289 C 7.698 13.312,7.564 13.396,7.481 13.479 C 7.111 13.849,7.221 14.451,7.700 14.676 C 8.052 14.841,9.026 15.037,10.140 15.167 C 10.419 15.200,11.100 15.219,12.000 15.219 C 12.900 15.219,13.581 15.200,13.860 15.167 C 14.974 15.037,15.948 14.841,16.300 14.676 C 16.779 14.451,16.889 13.849,16.519 13.479 C 16.299 13.259,16.065 13.213,15.700 13.321 C 14.691 13.617,13.623 13.737,12.000 13.737 C 10.380 13.737,9.320 13.618,8.300 13.321 C 7.990 13.231,8.002 13.232,7.785 13.289 M15.580 15.843 C 15.182 15.975,14.529 16.121,14.064 16.182 C 13.224 16.293,11.616 16.246,10.507 16.078 C 9.928 15.991,9.762 16.008,9.539 16.178 C 9.355 16.319,9.269 16.494,9.266 16.739 C 9.262 17.009,9.404 17.268,9.625 17.389 C 10.117 17.661,12.975 17.831,14.230 17.663 C 14.803 17.586,15.420 17.453,15.980 17.285 C 16.320 17.183,16.402 17.141,16.527 17.007 C 16.854 16.656,16.809 16.194,16.419 15.897 C 16.226 15.750,15.920 15.730,15.580 15.843 M14.100 18.688 C 13.990 18.708,13.369 18.730,12.720 18.736 C 12.071 18.743,11.509 18.751,11.471 18.754 C 11.381 18.762,11.130 18.984,11.063 19.116 C 10.914 19.406,10.958 19.709,11.185 19.960 C 11.409 20.208,11.476 20.219,12.800 20.219 C 14.589 20.220,14.944 20.143,15.169 19.703 C 15.342 19.363,15.180 18.894,14.830 18.725 C 14.643 18.634,14.443 18.624,14.100 18.688 M12.815 21.276 C 12.481 21.362,12.267 21.648,12.267 22.007 C 12.267 22.203,12.286 22.270,12.383 22.408 C 12.573 22.676,12.742 22.740,13.260 22.740 C 13.739 22.739,13.847 22.705,14.047 22.494 C 14.181 22.353,14.240 22.201,14.240 22.000 C 14.240 21.716,14.085 21.469,13.820 21.330 C 13.684 21.259,13.019 21.223,12.815 21.276 " stroke="none" fill-rule="evenodd" fill="black"></path></svg>