<svg width="24" height="24" viewBox="0 0 24 24" fill="none" xmlns="http://www.w3.org/2000/svg"><path d="M11.560 1.267 C 9.483 1.347,7.369 2.084,5.680 3.316 C 3.763 4.715,2.330 6.757,1.684 9.011 C 1.348 10.187,1.226 11.250,1.284 12.510 C 1.390 14.835,2.181 16.913,3.661 18.760 C 5.380 20.905,7.913 22.309,10.704 22.663 C 11.388 22.750,12.618 22.750,13.280 22.664 C 15.670 22.354,17.751 21.365,19.436 19.740 C 21.485 17.763,22.684 15.052,22.727 12.300 C 22.736 11.757,22.686 11.589,22.464 11.421 C 22.098 11.144,21.597 11.236,21.357 11.624 C 21.281 11.748,21.265 11.851,21.237 12.393 C 21.165 13.796,20.897 14.846,20.301 16.060 C 19.111 18.486,17.008 20.219,14.382 20.939 C 12.737 21.389,10.872 21.345,9.190 20.815 C 6.375 19.928,4.073 17.627,3.187 14.817 C 2.904 13.916,2.798 13.246,2.773 12.180 C 2.756 11.489,2.766 11.197,2.818 10.820 C 3.099 8.779,4.053 6.847,5.465 5.457 C 6.668 4.273,8.187 3.412,9.757 3.023 C 10.424 2.858,11.128 2.760,11.647 2.760 C 12.118 2.760,12.341 2.699,12.520 2.520 C 12.918 2.122,12.730 1.423,12.189 1.286 C 12.087 1.261,11.972 1.244,11.932 1.248 C 11.893 1.252,11.725 1.261,11.560 1.267 M14.311 1.598 C 13.863 1.741,13.630 2.227,13.825 2.612 C 13.963 2.887,14.066 2.951,14.674 3.144 C 16.240 3.639,17.362 4.311,18.493 5.431 C 19.648 6.574,20.319 7.676,20.843 9.288 C 20.959 9.648,21.076 9.934,21.130 9.991 C 21.292 10.165,21.511 10.251,21.744 10.231 C 22.027 10.208,22.214 10.076,22.346 9.810 C 22.478 9.542,22.463 9.434,22.174 8.560 C 21.434 6.330,19.929 4.375,17.920 3.034 C 17.191 2.548,16.268 2.099,15.424 1.820 C 14.711 1.585,14.490 1.541,14.311 1.598 " stroke="none" fill-rule="evenodd" fill="black"></path></svg>