<svg width="24" height="24" viewBox="0 0 24 24" fill="none" xmlns="http://www.w3.org/2000/svg"><path d="M9.100 1.286 C 6.751 1.383,5.585 1.738,4.669 2.635 C 3.935 3.353,3.558 4.273,3.379 5.787 C 3.195 7.342,3.195 14.647,3.379 16.220 C 3.456 16.876,3.539 17.287,3.682 17.727 C 4.044 18.834,4.728 19.626,5.735 20.104 L 6.037 20.247 5.682 20.956 C 5.487 21.346,5.306 21.743,5.280 21.839 C 5.143 22.351,5.655 22.855,6.172 22.717 C 6.500 22.630,6.564 22.546,7.069 21.535 L 7.540 20.594 7.720 20.617 C 8.440 20.708,9.388 20.734,12.000 20.734 C 14.612 20.734,15.560 20.708,16.280 20.617 L 16.460 20.594 16.931 21.535 C 17.436 22.546,17.500 22.630,17.828 22.717 C 18.348 22.856,18.857 22.348,18.717 21.831 C 18.693 21.739,18.513 21.346,18.318 20.956 L 17.963 20.247 18.265 20.104 C 19.254 19.634,19.943 18.848,20.302 17.779 C 20.662 16.706,20.758 15.280,20.758 11.000 C 20.758 6.720,20.662 5.294,20.302 4.221 C 19.886 2.984,19.016 2.114,17.779 1.698 C 17.085 1.465,16.207 1.343,14.800 1.285 C 13.739 1.240,10.187 1.241,9.100 1.286 M9.320 3.089 C 9.539 4.120,10.416 4.989,11.433 5.184 C 12.444 5.377,13.372 5.069,14.059 4.311 C 14.332 4.010,14.614 3.455,14.683 3.080 C 14.709 2.937,14.742 2.808,14.755 2.793 C 14.769 2.777,15.041 2.782,15.360 2.803 C 17.634 2.950,18.525 3.473,18.939 4.901 C 19.186 5.754,19.240 6.620,19.240 9.769 L 19.240 12.240 12.000 12.240 L 4.760 12.240 4.761 9.750 C 4.761 6.471,4.815 5.666,5.089 4.800 C 5.509 3.473,6.417 2.951,8.560 2.804 C 9.309 2.753,9.244 2.728,9.320 3.089 M13.201 2.859 C 13.058 3.234,12.815 3.503,12.485 3.653 C 12.222 3.771,11.772 3.768,11.500 3.646 C 11.187 3.505,10.919 3.213,10.809 2.890 L 10.764 2.760 12.001 2.760 L 13.238 2.760 13.201 2.859 M19.240 14.231 C 19.240 14.490,19.221 14.989,19.198 15.341 C 19.016 18.111,18.317 18.907,15.840 19.167 C 15.128 19.242,8.872 19.242,8.160 19.167 C 6.297 18.972,5.488 18.454,5.087 17.200 C 4.897 16.606,4.811 15.899,4.773 14.610 L 4.747 13.760 11.994 13.760 L 19.240 13.760 19.240 14.231 M6.826 15.283 C 6.474 15.369,6.267 15.637,6.267 16.003 C 6.267 16.281,6.387 16.496,6.627 16.645 C 6.776 16.738,6.801 16.740,7.700 16.740 C 8.206 16.740,8.669 16.726,8.729 16.709 C 8.881 16.667,9.121 16.447,9.186 16.292 C 9.297 16.027,9.241 15.711,9.047 15.506 C 8.825 15.272,8.776 15.261,7.840 15.253 C 7.367 15.248,6.911 15.262,6.826 15.283 M15.420 15.260 C 15.398 15.267,15.331 15.284,15.271 15.297 C 15.124 15.329,14.881 15.548,14.814 15.708 C 14.691 16.002,14.771 16.336,15.015 16.550 C 15.095 16.621,15.211 16.693,15.271 16.709 C 15.331 16.726,15.794 16.740,16.300 16.740 C 17.193 16.740,17.224 16.737,17.369 16.647 C 17.943 16.290,17.812 15.424,17.162 15.284 C 16.981 15.245,15.525 15.225,15.420 15.260 " stroke="none" fill-rule="evenodd" fill="black"></path></svg>