<svg width="24" height="24" viewBox="0 0 24 24" fill="none" xmlns="http://www.w3.org/2000/svg"><path d="M11.310 1.283 C 6.653 1.563,2.667 4.904,1.564 9.450 C 1.162 11.110,1.162 12.890,1.564 14.550 C 2.415 18.060,5.032 20.948,8.442 22.139 C 10.725 22.937,13.275 22.937,15.558 22.139 C 18.633 21.065,21.092 18.592,22.157 15.503 C 22.819 13.585,22.918 11.437,22.436 9.450 C 21.419 5.255,17.924 2.044,13.657 1.383 C 13.303 1.328,12.042 1.231,11.880 1.246 C 11.847 1.249,11.590 1.266,11.310 1.283 M12.992 2.802 C 14.750 2.993,16.561 3.756,17.878 4.859 C 18.914 5.728,19.725 6.758,20.304 7.940 C 20.940 9.239,21.240 10.538,21.240 12.000 C 21.240 13.462,20.940 14.764,20.304 16.060 C 18.921 18.877,16.278 20.768,13.146 21.178 C 12.214 21.301,10.974 21.244,10.002 21.034 C 8.667 20.747,7.178 20.022,6.140 19.153 C 4.272 17.590,3.134 15.531,2.822 13.146 C 2.699 12.214,2.756 10.974,2.966 10.002 C 3.253 8.667,3.978 7.178,4.847 6.140 C 5.196 5.722,5.821 5.101,6.213 4.783 C 7.491 3.743,9.284 2.994,10.940 2.807 C 11.397 2.755,12.535 2.753,12.992 2.802 M7.826 8.286 C 7.625 8.331,7.468 8.445,7.353 8.631 L 7.260 8.780 7.260 12.000 L 7.260 15.220 7.355 15.373 C 7.506 15.615,7.718 15.733,8.003 15.733 C 8.203 15.733,8.270 15.714,8.408 15.617 C 8.729 15.390,8.738 15.344,8.753 13.970 L 8.765 12.760 10.000 12.760 L 11.235 12.760 11.247 13.990 C 11.260 15.204,11.261 15.222,11.355 15.373 C 11.506 15.615,11.718 15.733,12.003 15.733 C 12.203 15.733,12.270 15.714,12.408 15.617 C 12.728 15.390,12.738 15.343,12.753 13.976 L 12.765 12.772 13.544 12.744 C 13.973 12.729,14.426 12.698,14.552 12.675 C 15.021 12.589,15.540 12.328,15.902 11.994 C 16.262 11.662,16.588 11.047,16.674 10.540 C 16.746 10.119,16.773 9.117,16.721 8.863 C 16.581 8.191,15.717 8.043,15.354 8.630 C 15.270 8.766,15.261 8.837,15.239 9.559 C 15.212 10.451,15.176 10.584,14.880 10.880 C 14.576 11.184,14.452 11.217,13.550 11.233 L 12.760 11.247 12.760 10.146 C 12.760 8.856,12.737 8.697,12.520 8.480 C 12.122 8.082,11.423 8.270,11.286 8.811 C 11.257 8.929,11.240 9.400,11.240 10.118 L 11.240 11.240 10.000 11.240 L 8.760 11.240 8.759 10.130 C 8.758 9.513,8.740 8.940,8.717 8.841 C 8.622 8.428,8.243 8.192,7.826 8.286 " stroke="none" fill-rule="evenodd" fill="black"></path></svg>