<svg width="24" height="24" viewBox="0 0 24 24" fill="none" xmlns="http://www.w3.org/2000/svg"><path d="M11.310 1.283 C 6.653 1.563,2.667 4.904,1.564 9.450 C 0.777 12.695,1.548 16.171,3.621 18.724 C 3.995 19.184,4.375 19.584,4.556 19.708 C 4.803 19.876,5.276 19.808,5.488 19.573 C 5.589 19.462,5.680 19.222,5.679 19.071 C 5.678 18.861,5.552 18.643,5.235 18.300 C 4.553 17.562,4.136 16.955,3.696 16.060 C 3.060 14.764,2.760 13.463,2.760 12.000 C 2.760 10.538,3.060 9.236,3.696 7.940 C 5.079 5.123,7.722 3.232,10.854 2.822 C 11.786 2.699,13.026 2.756,13.998 2.966 C 15.331 3.252,16.840 3.989,17.878 4.859 C 18.914 5.728,19.725 6.758,20.304 7.940 C 20.940 9.239,21.240 10.538,21.240 12.000 C 21.240 13.463,20.940 14.764,20.304 16.060 C 19.864 16.955,19.447 17.562,18.765 18.300 C 18.334 18.766,18.242 19.017,18.382 19.350 C 18.506 19.647,18.748 19.800,19.093 19.800 C 19.353 19.800,19.471 19.728,19.827 19.357 C 20.597 18.553,21.329 17.460,21.797 16.414 C 22.772 14.237,22.998 11.768,22.436 9.450 C 21.419 5.255,17.924 2.044,13.657 1.383 C 13.303 1.328,12.042 1.231,11.880 1.246 C 11.847 1.249,11.590 1.266,11.310 1.283 M11.480 5.283 C 8.168 5.524,5.514 8.198,5.283 11.527 C 5.157 13.337,5.756 15.112,6.948 16.462 C 7.334 16.899,7.453 16.973,7.766 16.973 C 7.963 16.973,8.030 16.954,8.168 16.857 C 8.574 16.570,8.598 15.989,8.219 15.640 C 8.088 15.519,7.649 14.957,7.525 14.752 C 7.230 14.263,6.976 13.615,6.853 13.040 C 6.750 12.562,6.750 11.438,6.853 10.960 C 7.046 10.058,7.428 9.281,8.020 8.588 C 8.772 7.707,9.796 7.102,10.960 6.853 C 11.215 6.798,11.474 6.780,12.000 6.780 C 12.964 6.780,13.522 6.905,14.330 7.303 C 14.769 7.519,15.024 7.688,15.412 8.020 C 16.293 8.772,16.898 9.796,17.147 10.960 C 17.250 11.438,17.250 12.562,17.147 13.040 C 17.050 13.492,16.906 13.904,16.697 14.330 C 16.476 14.778,16.307 15.031,15.971 15.417 C 15.600 15.842,15.511 16.002,15.511 16.242 C 15.511 16.495,15.622 16.708,15.832 16.857 C 15.969 16.953,16.037 16.973,16.229 16.973 C 16.546 16.973,16.661 16.902,17.042 16.470 C 18.032 15.350,18.614 13.962,18.717 12.473 C 19.003 8.362,15.602 4.983,11.480 5.283 M11.660 9.278 C 10.776 9.385,10.027 9.901,9.568 10.720 C 9.168 11.434,9.168 12.566,9.568 13.280 C 10.094 14.219,10.953 14.731,12.000 14.731 C 13.047 14.731,13.906 14.219,14.432 13.280 C 14.832 12.566,14.832 11.434,14.432 10.720 C 13.857 9.694,12.796 9.142,11.660 9.278 M12.454 10.841 C 12.744 10.950,13.050 11.256,13.159 11.546 C 13.335 12.017,13.227 12.521,12.874 12.874 C 12.596 13.153,12.325 13.254,11.920 13.231 C 11.567 13.210,11.373 13.124,11.125 12.875 C 10.876 12.627,10.790 12.433,10.769 12.080 C 10.746 11.675,10.847 11.404,11.126 11.126 C 11.479 10.773,11.983 10.665,12.454 10.841 M11.780 15.265 C 11.224 15.340,10.721 15.613,10.020 16.223 C 9.412 16.752,8.252 17.831,7.658 18.420 C 6.333 19.734,6.009 20.543,6.437 21.465 C 6.735 22.106,7.326 22.460,8.364 22.618 C 9.451 22.784,14.538 22.784,15.640 22.618 C 16.651 22.465,17.240 22.120,17.540 21.504 C 17.809 20.951,17.799 20.431,17.509 19.858 C 17.232 19.312,16.553 18.574,15.078 17.218 C 13.519 15.783,13.134 15.499,12.520 15.325 C 12.348 15.276,11.942 15.244,11.780 15.265 M12.380 16.876 C 12.905 17.177,15.609 19.717,16.014 20.288 C 16.339 20.746,16.298 20.926,15.840 21.055 C 15.304 21.206,14.977 21.220,12.000 21.220 C 9.023 21.220,8.696 21.206,8.160 21.055 C 7.863 20.971,7.746 20.861,7.774 20.688 C 7.825 20.375,8.495 19.644,10.002 18.258 C 11.428 16.946,11.675 16.761,12.000 16.761 C 12.125 16.761,12.241 16.796,12.380 16.876 " stroke="none" fill-rule="evenodd" fill="black"></path></svg>