<svg width="24" height="24" viewBox="0 0 24 24" fill="none" xmlns="http://www.w3.org/2000/svg"><path d="M4.780 4.199 C 4.589 4.242,4.514 4.296,4.211 4.607 C 2.958 5.892,2.003 7.641,1.564 9.450 C 0.716 12.949,1.678 16.673,4.104 19.282 C 4.297 19.490,4.513 19.702,4.583 19.753 C 4.833 19.936,5.229 19.917,5.463 19.712 C 5.655 19.544,5.731 19.380,5.731 19.140 C 5.731 18.873,5.667 18.760,5.272 18.336 C 4.574 17.586,4.143 16.966,3.706 16.084 C 3.065 14.790,2.760 13.471,2.760 11.994 C 2.760 10.538,3.061 9.233,3.696 7.940 C 4.138 7.040,4.557 6.432,5.245 5.690 C 5.629 5.277,5.697 5.140,5.667 4.848 C 5.622 4.408,5.206 4.104,4.780 4.199 M19.060 4.260 C 19.038 4.267,18.971 4.284,18.911 4.297 C 18.764 4.329,18.521 4.548,18.454 4.708 C 18.385 4.874,18.385 5.127,18.455 5.291 C 18.485 5.362,18.634 5.556,18.786 5.721 C 19.449 6.444,19.877 7.069,20.302 7.940 C 20.943 9.249,21.240 10.536,21.240 12.000 C 21.240 13.463,20.940 14.764,20.304 16.060 C 19.865 16.952,19.452 17.555,18.766 18.300 C 18.411 18.686,18.350 18.797,18.346 19.059 C 18.341 19.442,18.618 19.754,18.997 19.791 C 19.297 19.820,19.439 19.749,19.773 19.408 C 21.036 18.118,21.995 16.369,22.436 14.550 C 22.597 13.884,22.673 13.369,22.717 12.630 C 22.870 10.080,22.132 7.622,20.594 5.556 C 20.219 5.052,19.644 4.424,19.483 4.343 C 19.372 4.287,19.125 4.238,19.060 4.260 M7.660 7.258 C 7.638 7.266,7.572 7.284,7.513 7.296 C 7.187 7.368,6.334 8.414,5.909 9.264 C 5.465 10.150,5.274 10.968,5.274 11.980 C 5.273 13.222,5.582 14.259,6.270 15.337 C 6.593 15.842,7.224 16.543,7.479 16.679 C 7.622 16.756,7.956 16.747,8.132 16.662 C 8.439 16.514,8.598 16.156,8.512 15.807 C 8.479 15.673,8.387 15.545,8.109 15.247 C 7.184 14.252,6.760 13.225,6.760 11.980 C 6.760 10.756,7.200 9.685,8.095 8.728 C 8.462 8.336,8.493 8.277,8.493 7.989 C 8.493 7.798,8.473 7.729,8.377 7.592 C 8.313 7.501,8.197 7.395,8.120 7.356 C 7.978 7.284,7.733 7.232,7.660 7.258 M16.134 7.320 C 15.790 7.397,15.560 7.683,15.560 8.033 C 15.560 8.318,15.601 8.399,15.917 8.740 C 16.802 9.694,17.240 10.767,17.240 11.980 C 17.240 13.203,16.798 14.288,15.922 15.214 C 15.591 15.563,15.520 15.696,15.520 15.963 C 15.520 16.446,15.938 16.775,16.421 16.672 C 16.645 16.624,16.993 16.315,17.374 15.825 C 18.186 14.780,18.632 13.652,18.718 12.420 C 18.829 10.827,18.334 9.309,17.285 8.026 C 16.784 7.413,16.498 7.238,16.134 7.320 M11.660 9.278 C 10.776 9.385,10.027 9.901,9.568 10.720 C 9.168 11.434,9.168 12.566,9.568 13.280 C 10.094 14.219,10.953 14.731,12.000 14.731 C 13.047 14.731,13.906 14.219,14.432 13.280 C 14.832 12.566,14.832 11.434,14.432 10.720 C 13.857 9.694,12.796 9.142,11.660 9.278 M12.454 10.841 C 12.744 10.950,13.050 11.256,13.159 11.546 C 13.335 12.017,13.227 12.521,12.874 12.874 C 12.596 13.153,12.325 13.254,11.920 13.231 C 11.567 13.210,11.373 13.124,11.125 12.875 C 10.876 12.627,10.790 12.433,10.769 12.080 C 10.746 11.675,10.847 11.404,11.126 11.126 C 11.479 10.773,11.983 10.665,12.454 10.841 " stroke="none" fill-rule="evenodd" fill="black"></path></svg>