<svg width="24" height="24" viewBox="0 0 24 24" fill="none" xmlns="http://www.w3.org/2000/svg"><path d="M9.815 3.277 C 9.638 3.321,9.461 3.456,9.353 3.631 L 9.260 3.780 9.240 11.024 L 9.220 18.269 6.808 16.057 C 5.405 14.771,4.344 13.828,4.272 13.803 C 3.769 13.628,3.269 13.975,3.269 14.500 C 3.269 14.764,3.337 14.885,3.667 15.204 C 3.920 15.449,8.959 20.067,9.432 20.487 C 9.576 20.616,9.698 20.686,9.821 20.712 C 10.245 20.803,10.629 20.567,10.716 20.162 C 10.776 19.882,10.777 4.101,10.717 3.841 C 10.623 3.432,10.215 3.177,9.815 3.277 M13.815 3.278 C 13.639 3.320,13.462 3.455,13.353 3.631 L 13.260 3.780 13.260 12.000 L 13.260 20.220 13.353 20.369 C 13.664 20.870,14.408 20.849,14.664 20.332 C 14.737 20.185,14.741 19.939,14.760 12.956 L 14.780 5.731 17.192 7.943 C 18.595 9.229,19.656 10.172,19.728 10.197 C 20.231 10.372,20.731 10.025,20.731 9.500 C 20.731 9.227,20.661 9.109,20.293 8.759 C 19.244 7.762,14.456 3.409,14.349 3.354 C 14.184 3.270,13.975 3.240,13.815 3.278 " stroke="none" fill-rule="evenodd" fill="black"></path></svg>