<svg width="24" height="24" viewBox="0 0 24 24" fill="none" xmlns="http://www.w3.org/2000/svg"><path d="M9.325 3.280 C 9.251 3.298,9.143 3.346,9.085 3.388 C 8.900 3.523,3.404 9.535,3.333 9.680 C 3.293 9.762,3.266 9.909,3.267 10.033 C 3.270 10.294,3.418 10.530,3.660 10.656 L 3.820 10.740 11.880 10.751 C 17.646 10.758,20.001 10.749,20.154 10.717 C 20.827 10.578,20.948 9.641,20.332 9.336 C 20.185 9.263,19.939 9.259,12.956 9.240 L 5.731 9.220 7.943 6.808 C 9.229 5.405,10.172 4.344,10.197 4.272 C 10.221 4.204,10.240 4.080,10.240 3.997 C 10.240 3.524,9.789 3.171,9.325 3.280 M3.815 13.278 C 3.331 13.393,3.098 14.004,3.383 14.408 C 3.448 14.499,3.572 14.610,3.660 14.656 L 3.820 14.740 11.044 14.760 L 18.269 14.780 16.057 17.192 C 14.771 18.595,13.828 19.656,13.803 19.728 C 13.628 20.231,13.975 20.731,14.500 20.731 C 14.764 20.731,14.885 20.663,15.204 20.333 C 15.449 20.080,20.067 15.041,20.487 14.568 C 20.707 14.321,20.772 14.102,20.711 13.816 C 20.659 13.572,20.440 13.350,20.189 13.286 C 19.978 13.233,4.036 13.225,3.815 13.278 " stroke="none" fill-rule="evenodd" fill="black"></path></svg>