<svg width="24" height="24" viewBox="0 0 24 24" fill="none" xmlns="http://www.w3.org/2000/svg"><path d="M3.660 1.278 C 2.776 1.385,2.027 1.901,1.568 2.720 C 1.168 3.434,1.168 4.566,1.568 5.280 C 1.911 5.891,2.519 6.418,3.090 6.599 L 3.240 6.646 3.240 12.000 L 3.240 17.354 3.090 17.401 C 2.519 17.582,1.911 18.109,1.568 18.720 C 1.168 19.434,1.168 20.566,1.568 21.280 C 2.094 22.219,2.953 22.731,4.000 22.731 C 5.047 22.731,5.906 22.219,6.432 21.280 C 6.832 20.566,6.832 19.433,6.432 18.720 C 6.091 18.113,5.477 17.580,4.910 17.401 L 4.760 17.354 4.760 15.057 L 4.760 12.760 8.000 12.760 L 11.240 12.760 11.240 15.057 L 11.240 17.354 11.090 17.401 C 10.519 17.582,9.911 18.109,9.568 18.720 C 9.168 19.434,9.168 20.566,9.568 21.280 C 10.094 22.219,10.953 22.731,12.000 22.731 C 13.047 22.731,13.906 22.219,14.432 21.280 C 14.838 20.556,14.833 19.432,14.420 18.700 C 14.088 18.111,13.469 17.579,12.910 17.401 L 12.760 17.354 12.760 15.057 L 12.760 12.760 14.630 12.759 C 16.606 12.757,18.062 12.712,18.460 12.640 C 19.711 12.412,20.411 11.712,20.640 10.460 C 20.697 10.145,20.757 8.691,20.758 7.553 L 20.760 6.646 20.910 6.599 C 21.305 6.474,21.851 6.084,22.131 5.727 C 22.558 5.182,22.731 4.685,22.731 4.000 C 22.731 2.957,22.213 2.089,21.280 1.567 C 20.564 1.168,19.433 1.168,18.720 1.568 C 17.781 2.094,17.269 2.953,17.269 4.000 C 17.269 4.685,17.442 5.182,17.869 5.727 C 18.150 6.085,18.695 6.474,19.094 6.600 L 19.247 6.649 19.228 8.354 C 19.217 9.380,19.191 10.140,19.165 10.260 C 19.140 10.370,19.070 10.559,19.009 10.679 C 18.916 10.863,18.863 10.916,18.679 11.009 C 18.559 11.070,18.370 11.141,18.260 11.166 C 18.126 11.197,17.191 11.217,15.410 11.228 L 12.760 11.245 12.760 8.946 L 12.760 6.646 12.910 6.599 C 13.305 6.474,13.851 6.084,14.131 5.727 C 14.558 5.182,14.731 4.685,14.731 4.000 C 14.731 2.957,14.213 2.089,13.280 1.567 C 12.564 1.168,11.433 1.168,10.720 1.568 C 9.781 2.094,9.269 2.953,9.269 4.000 C 9.269 4.685,9.442 5.182,9.869 5.727 C 10.149 6.084,10.695 6.474,11.090 6.599 L 11.240 6.646 11.240 8.943 L 11.240 11.240 8.000 11.240 L 4.760 11.240 4.760 8.943 L 4.760 6.646 4.910 6.599 C 5.305 6.474,5.851 6.084,6.131 5.727 C 6.558 5.182,6.731 4.685,6.731 4.000 C 6.731 2.957,6.213 2.089,5.280 1.567 C 4.867 1.337,4.186 1.215,3.660 1.278 M4.454 2.841 C 4.744 2.950,5.050 3.256,5.159 3.546 C 5.331 4.006,5.227 4.518,4.893 4.857 C 4.594 5.159,4.446 5.220,4.000 5.220 C 3.560 5.220,3.410 5.161,3.125 4.875 C 2.876 4.627,2.790 4.433,2.769 4.080 C 2.746 3.675,2.847 3.404,3.126 3.126 C 3.479 2.773,3.983 2.665,4.454 2.841 M12.454 2.841 C 12.744 2.950,13.050 3.256,13.159 3.546 C 13.331 4.006,13.227 4.518,12.893 4.857 C 12.594 5.159,12.446 5.220,12.000 5.220 C 11.565 5.220,11.394 5.154,11.120 4.880 C 10.883 4.643,10.790 4.429,10.769 4.080 C 10.746 3.675,10.847 3.404,11.126 3.126 C 11.479 2.773,11.983 2.665,12.454 2.841 M20.454 2.841 C 20.744 2.950,21.050 3.256,21.159 3.546 C 21.331 4.006,21.227 4.518,20.893 4.857 C 20.594 5.159,20.446 5.220,20.000 5.220 C 19.565 5.220,19.394 5.154,19.120 4.880 C 18.883 4.643,18.790 4.429,18.769 4.080 C 18.746 3.675,18.847 3.404,19.126 3.126 C 19.479 2.773,19.983 2.665,20.454 2.841 M17.807 14.285 C 17.557 14.344,17.341 14.573,17.284 14.838 C 17.222 15.126,17.222 21.874,17.284 22.162 C 17.447 22.920,18.553 22.920,18.716 22.162 C 18.743 22.035,18.760 21.438,18.760 20.596 L 18.760 19.237 19.103 19.248 L 19.446 19.260 20.424 20.860 C 20.962 21.740,21.457 22.508,21.525 22.566 C 22.033 23.005,22.832 22.551,22.732 21.880 C 22.719 21.794,22.405 21.238,21.911 20.428 C 21.471 19.706,21.117 19.112,21.125 19.108 C 21.133 19.104,21.265 19.037,21.419 18.960 C 21.774 18.782,22.216 18.354,22.410 18.000 C 22.820 17.253,22.843 16.362,22.472 15.623 C 22.162 15.006,21.652 14.574,20.980 14.358 C 20.716 14.273,20.624 14.267,19.340 14.256 C 18.513 14.249,17.912 14.260,17.807 14.285 M20.709 15.862 C 21.049 16.032,21.241 16.352,21.239 16.749 C 21.238 17.138,21.040 17.470,20.700 17.654 C 20.552 17.733,20.472 17.741,19.650 17.753 L 18.760 17.765 18.760 16.763 L 18.760 15.760 19.632 15.760 C 20.487 15.760,20.508 15.762,20.709 15.862 M4.454 18.841 C 4.744 18.950,5.050 19.256,5.159 19.546 C 5.331 20.006,5.227 20.518,4.893 20.857 C 4.594 21.159,4.446 21.220,4.000 21.220 C 3.565 21.220,3.394 21.154,3.120 20.880 C 2.883 20.643,2.790 20.429,2.769 20.080 C 2.746 19.675,2.847 19.404,3.126 19.126 C 3.479 18.773,3.983 18.665,4.454 18.841 M12.454 18.841 C 12.744 18.950,13.050 19.256,13.159 19.546 C 13.331 20.006,13.227 20.518,12.893 20.857 C 12.594 21.159,12.446 21.220,12.000 21.220 C 11.565 21.220,11.394 21.154,11.120 20.880 C 10.883 20.643,10.790 20.429,10.769 20.080 C 10.746 19.675,10.847 19.404,11.126 19.126 C 11.479 18.773,11.983 18.665,12.454 18.841 " stroke="none" fill-rule="evenodd" fill="black"></path></svg>