<svg width="24" height="24" viewBox="0 0 24 24" fill="none" xmlns="http://www.w3.org/2000/svg"><path d="M6.540 1.283 C 4.017 1.481,1.885 3.352,1.383 5.811 C 1.256 6.429,1.241 7.081,1.241 12.000 C 1.241 16.919,1.256 17.571,1.383 18.189 C 1.828 20.372,3.628 22.172,5.811 22.617 C 6.429 22.744,7.081 22.759,12.000 22.759 C 16.919 22.759,17.571 22.744,18.189 22.617 C 20.372 22.172,22.172 20.372,22.617 18.189 C 22.744 17.571,22.759 16.919,22.759 12.000 C 22.759 7.082,22.744 6.430,22.618 5.811 C 22.332 4.412,21.412 3.040,20.235 2.257 C 19.342 1.663,18.471 1.364,17.385 1.280 C 16.806 1.234,7.119 1.237,6.540 1.283 M18.020 2.867 C 18.881 3.127,19.447 3.452,19.998 4.002 C 20.551 4.556,20.919 5.208,21.148 6.040 C 21.216 6.284,21.220 6.646,21.220 11.980 C 21.220 17.432,21.217 17.672,21.144 17.960 C 20.746 19.529,19.596 20.698,18.026 21.130 L 17.700 21.220 12.000 21.220 L 6.300 21.220 5.974 21.130 C 4.426 20.704,3.296 19.574,2.870 18.026 L 2.780 17.700 2.780 12.000 C 2.780 6.647,2.784 6.284,2.852 6.040 C 3.081 5.208,3.449 4.556,4.002 4.002 C 4.585 3.420,5.357 2.998,6.120 2.845 C 6.241 2.821,6.376 2.793,6.420 2.785 C 6.464 2.776,9.029 2.772,12.120 2.776 C 17.713 2.783,17.741 2.783,18.020 2.867 M7.826 8.286 C 7.625 8.331,7.468 8.445,7.353 8.631 L 7.260 8.780 7.260 12.000 L 7.260 15.220 7.355 15.373 C 7.506 15.615,7.718 15.733,8.003 15.733 C 8.203 15.733,8.270 15.714,8.408 15.617 C 8.729 15.390,8.738 15.344,8.753 13.970 L 8.765 12.760 10.000 12.760 L 11.235 12.760 11.247 13.990 C 11.260 15.204,11.261 15.222,11.355 15.373 C 11.506 15.615,11.718 15.733,12.003 15.733 C 12.203 15.733,12.270 15.714,12.408 15.617 C 12.728 15.390,12.738 15.343,12.753 13.976 L 12.765 12.772 13.544 12.744 C 13.973 12.729,14.426 12.698,14.552 12.675 C 15.021 12.589,15.540 12.328,15.902 11.994 C 16.262 11.662,16.588 11.047,16.674 10.540 C 16.746 10.119,16.773 9.117,16.721 8.863 C 16.581 8.191,15.717 8.043,15.354 8.630 C 15.270 8.766,15.261 8.837,15.239 9.559 C 15.212 10.451,15.176 10.584,14.880 10.880 C 14.576 11.184,14.452 11.217,13.550 11.233 L 12.760 11.247 12.760 10.146 C 12.760 8.856,12.737 8.697,12.520 8.480 C 12.122 8.082,11.423 8.270,11.286 8.811 C 11.257 8.929,11.240 9.400,11.240 10.118 L 11.240 11.240 10.000 11.240 L 8.760 11.240 8.759 10.130 C 8.758 9.513,8.740 8.940,8.717 8.841 C 8.622 8.428,8.243 8.192,7.826 8.286 " stroke="none" fill-rule="evenodd" fill="black"></path></svg>