<svg width="24" height="24" viewBox="0 0 24 24" fill="none" xmlns="http://www.w3.org/2000/svg"><path d="M11.580 1.280 C 11.233 1.319,10.855 1.416,10.540 1.547 C 10.170 1.702,9.561 2.126,9.281 2.425 C 8.806 2.933,8.440 3.623,8.440 4.011 C 8.440 4.502,8.899 4.842,9.375 4.703 C 9.642 4.626,9.754 4.503,9.962 4.063 C 10.096 3.779,10.190 3.647,10.415 3.423 C 10.873 2.968,11.369 2.761,12.000 2.761 C 12.631 2.761,13.127 2.968,13.585 3.423 C 13.810 3.647,13.904 3.779,14.038 4.063 C 14.246 4.503,14.358 4.626,14.625 4.703 C 14.858 4.771,14.985 4.753,15.220 4.619 C 15.438 4.495,15.560 4.270,15.559 3.995 C 15.558 3.588,15.089 2.765,14.588 2.291 C 14.316 2.034,13.781 1.683,13.449 1.543 C 12.919 1.321,12.161 1.214,11.580 1.280 M3.420 5.259 C 3.398 5.267,3.331 5.284,3.271 5.297 C 3.124 5.329,2.881 5.548,2.814 5.708 C 2.691 6.002,2.771 6.336,3.015 6.550 C 3.095 6.621,3.211 6.693,3.271 6.709 C 3.414 6.749,20.586 6.749,20.729 6.709 C 20.881 6.667,21.121 6.447,21.186 6.292 C 21.251 6.137,21.256 5.887,21.197 5.733 C 21.145 5.593,20.979 5.414,20.820 5.326 C 20.709 5.265,20.030 5.259,12.080 5.253 C 7.339 5.249,3.442 5.252,3.420 5.259 M4.860 7.823 C 4.550 7.984,4.440 8.176,4.440 8.557 C 4.440 8.871,4.886 15.617,4.981 16.740 C 5.119 18.383,5.265 19.129,5.575 19.779 C 5.907 20.473,6.323 20.900,6.980 21.220 C 7.754 21.598,8.201 21.665,10.330 21.726 C 12.234 21.781,15.047 21.725,15.700 21.621 C 17.021 21.409,17.869 20.866,18.356 19.920 C 18.728 19.197,18.870 18.516,19.020 16.740 C 19.117 15.589,19.560 8.866,19.560 8.549 C 19.560 8.335,19.540 8.227,19.483 8.135 C 19.130 7.555,18.258 7.679,18.122 8.328 C 18.098 8.445,17.970 10.178,17.838 12.180 C 17.581 16.099,17.510 17.033,17.416 17.780 C 17.204 19.458,16.768 19.957,15.325 20.169 C 14.833 20.242,9.167 20.242,8.675 20.169 C 7.232 19.957,6.798 19.461,6.583 17.780 C 6.491 17.062,6.425 16.175,6.162 12.180 C 6.030 10.178,5.904 8.453,5.881 8.346 C 5.858 8.239,5.803 8.101,5.759 8.039 C 5.587 7.797,5.124 7.686,4.860 7.823 " stroke="none" fill-rule="evenodd" fill="black"></path></svg>