<svg width="24" height="24" viewBox="0 0 24 24" fill="none" xmlns="http://www.w3.org/2000/svg"><path d="M14.660 1.278 C 13.776 1.385,13.027 1.901,12.568 2.720 C 12.168 3.434,12.168 4.566,12.568 5.280 C 13.094 6.219,13.953 6.731,15.000 6.731 C 16.047 6.731,16.906 6.219,17.432 5.280 C 17.832 4.566,17.832 3.433,17.432 2.720 C 17.158 2.232,16.764 1.838,16.280 1.567 C 15.867 1.337,15.186 1.215,14.660 1.278 M15.454 2.841 C 15.744 2.950,16.050 3.256,16.159 3.546 C 16.331 4.006,16.227 4.518,15.893 4.857 C 15.594 5.159,15.446 5.220,15.000 5.220 C 14.560 5.220,14.410 5.161,14.125 4.875 C 13.876 4.627,13.790 4.433,13.769 4.080 C 13.746 3.675,13.847 3.404,14.126 3.126 C 14.479 2.773,14.983 2.665,15.454 2.841 M8.085 5.062 C 7.945 5.092,7.720 5.169,7.585 5.232 C 7.282 5.374,4.143 7.329,3.985 7.475 C 3.670 7.763,3.683 8.259,4.014 8.549 C 4.245 8.752,4.558 8.799,4.820 8.669 C 4.864 8.647,5.632 8.173,6.526 7.614 C 7.421 7.056,8.229 6.572,8.321 6.540 C 8.867 6.347,9.553 6.687,9.743 7.242 C 9.844 7.540,9.835 7.895,9.720 8.119 C 9.671 8.216,9.431 8.504,9.186 8.760 C 8.461 9.518,8.278 9.904,8.249 10.742 C 8.228 11.361,8.278 11.609,8.526 12.120 C 8.675 12.427,8.746 12.514,9.262 13.020 C 10.165 13.907,10.202 13.992,10.236 15.303 C 10.260 16.219,10.261 16.227,10.367 16.388 C 10.526 16.628,10.721 16.733,11.007 16.733 C 11.203 16.733,11.270 16.714,11.408 16.617 C 11.717 16.398,11.740 16.306,11.737 15.300 C 11.735 14.537,11.723 14.374,11.648 14.069 C 11.446 13.252,11.107 12.699,10.406 12.043 C 9.810 11.483,9.740 11.359,9.741 10.860 C 9.742 10.398,9.808 10.267,10.298 9.760 C 10.770 9.272,10.888 9.116,11.062 8.748 C 11.664 7.482,11.126 5.927,9.867 5.294 C 9.318 5.017,8.676 4.933,8.085 5.062 M21.576 6.340 C 20.262 6.688,19.142 7.687,18.640 8.959 C 18.476 9.377,18.395 9.830,17.900 13.141 C 17.620 15.010,17.388 16.543,17.385 16.546 C 17.382 16.549,14.122 17.121,10.140 17.817 C 6.158 18.512,2.810 19.102,2.700 19.127 C 2.358 19.204,2.073 19.363,1.809 19.625 C 0.739 20.688,1.328 22.492,2.820 22.720 C 3.014 22.749,5.702 22.759,11.540 22.751 L 19.980 22.739 20.300 22.649 C 21.487 22.313,22.339 21.457,22.642 20.300 C 22.758 19.856,22.758 19.146,22.642 18.700 C 22.367 17.641,21.569 16.763,20.574 16.425 C 20.155 16.282,19.779 16.228,19.347 16.247 C 19.006 16.262,18.960 16.256,18.960 16.197 C 18.960 16.075,19.882 9.983,19.925 9.820 C 20.047 9.358,20.346 8.858,20.710 8.506 C 21.103 8.125,21.413 7.949,22.004 7.772 C 22.302 7.683,22.410 7.630,22.526 7.514 C 22.863 7.177,22.768 6.542,22.352 6.350 C 22.115 6.241,21.958 6.239,21.576 6.340 M12.340 9.277 C 12.162 9.320,12.065 9.381,11.927 9.538 C 11.636 9.869,11.742 10.413,12.144 10.648 C 12.334 10.759,13.022 10.918,13.528 10.969 C 13.891 11.005,14.109 11.005,14.472 10.969 C 14.978 10.918,15.666 10.759,15.856 10.648 C 16.258 10.413,16.364 9.869,16.072 9.537 C 15.817 9.247,15.607 9.206,15.072 9.344 C 14.314 9.540,13.666 9.539,12.909 9.342 C 12.695 9.286,12.506 9.242,12.489 9.244 C 12.473 9.246,12.406 9.261,12.340 9.277 M6.817 13.287 C 6.700 13.312,6.556 13.406,6.314 13.614 C 5.393 14.405,4.426 14.760,3.194 14.760 C 3.002 14.760,2.795 14.779,2.733 14.803 C 2.591 14.856,2.412 15.024,2.331 15.179 C 2.250 15.333,2.251 15.668,2.332 15.825 C 2.425 16.004,2.656 16.192,2.822 16.223 C 3.047 16.265,4.063 16.216,4.460 16.143 C 5.507 15.951,6.636 15.374,7.398 14.641 C 7.627 14.422,7.676 14.350,7.710 14.189 C 7.832 13.614,7.386 13.164,6.817 13.287 M19.906 17.776 C 20.415 17.911,20.875 18.289,21.090 18.748 C 21.194 18.971,21.219 19.081,21.233 19.370 C 21.251 19.755,21.207 19.980,21.049 20.298 C 20.929 20.540,20.557 20.919,20.323 21.039 C 19.907 21.251,20.420 21.239,11.368 21.240 L 2.956 21.240 2.858 21.142 C 2.726 21.010,2.726 20.806,2.857 20.683 C 2.945 20.600,3.727 20.456,10.927 19.195 C 15.312 18.427,18.990 17.783,19.100 17.764 C 19.405 17.711,19.679 17.715,19.906 17.776 " stroke="none" fill-rule="evenodd" fill="black"></path></svg>