<svg width="24" height="24" viewBox="0 0 24 24" fill="none" xmlns="http://www.w3.org/2000/svg"><path d="M14.660 1.278 C 13.776 1.385,13.027 1.901,12.568 2.720 C 12.168 3.434,12.168 4.566,12.568 5.280 C 13.094 6.219,13.953 6.731,15.000 6.731 C 16.047 6.731,16.906 6.219,17.432 5.280 C 17.832 4.566,17.832 3.433,17.432 2.720 C 17.158 2.232,16.764 1.838,16.280 1.567 C 15.867 1.337,15.186 1.215,14.660 1.278 M15.454 2.841 C 15.744 2.950,16.050 3.256,16.159 3.546 C 16.331 4.006,16.227 4.518,15.893 4.857 C 15.594 5.159,15.446 5.220,15.000 5.220 C 14.560 5.220,14.410 5.161,14.125 4.875 C 13.876 4.627,13.790 4.433,13.769 4.080 C 13.746 3.675,13.847 3.404,14.126 3.126 C 14.479 2.773,14.983 2.665,15.454 2.841 M8.420 5.305 C 7.801 5.372,7.183 5.549,6.666 5.808 C 6.279 6.002,4.143 7.329,3.985 7.475 C 3.670 7.763,3.683 8.259,4.014 8.549 C 4.252 8.759,4.559 8.799,4.841 8.658 C 4.896 8.630,5.400 8.321,5.961 7.971 C 7.253 7.164,7.353 7.108,7.736 6.980 C 8.151 6.841,8.417 6.799,8.884 6.798 C 9.484 6.797,10.210 6.976,10.370 7.166 C 10.409 7.212,10.440 7.304,10.440 7.371 C 10.440 7.477,10.309 7.625,9.446 8.497 C 8.383 9.570,8.229 9.772,8.102 10.259 C 8.022 10.565,8.022 11.193,8.101 11.498 C 8.253 12.081,8.451 12.337,9.309 13.060 C 9.789 13.465,10.031 13.698,10.109 13.830 L 10.220 14.020 10.240 15.120 C 10.259 16.191,10.263 16.224,10.355 16.373 C 10.506 16.615,10.718 16.733,11.003 16.733 C 11.203 16.733,11.270 16.714,11.408 16.617 C 11.499 16.553,11.610 16.428,11.656 16.340 C 11.735 16.189,11.740 16.120,11.738 15.080 C 11.736 13.856,11.714 13.703,11.461 13.201 C 11.256 12.796,11.029 12.548,10.327 11.966 C 9.621 11.380,9.520 11.247,9.520 10.906 C 9.520 10.802,9.548 10.651,9.582 10.569 C 9.622 10.472,9.994 10.067,10.637 9.420 C 11.497 8.554,11.646 8.385,11.752 8.159 C 12.143 7.331,11.872 6.322,11.131 5.847 C 10.872 5.681,10.358 5.497,9.888 5.402 C 9.502 5.324,8.725 5.273,8.420 5.305 M21.000 6.439 C 19.882 6.672,19.807 6.692,19.510 6.850 C 19.074 7.080,18.786 7.514,18.665 8.120 C 18.632 8.285,18.332 10.247,17.998 12.480 C 17.664 14.713,17.388 16.543,17.385 16.546 C 17.382 16.549,14.122 17.121,10.140 17.817 C 6.158 18.512,2.810 19.102,2.700 19.127 C 2.358 19.204,2.073 19.363,1.809 19.625 C 0.739 20.688,1.328 22.492,2.820 22.720 C 3.014 22.749,5.702 22.759,11.540 22.751 L 19.980 22.739 20.300 22.649 C 21.487 22.313,22.339 21.457,22.642 20.300 C 22.758 19.856,22.758 19.146,22.642 18.700 C 22.367 17.641,21.569 16.763,20.574 16.425 C 20.155 16.282,19.779 16.228,19.347 16.247 C 19.006 16.262,18.960 16.256,18.960 16.197 C 18.960 16.109,20.068 8.726,20.125 8.431 C 20.150 8.305,20.194 8.181,20.224 8.157 C 20.254 8.132,20.712 8.024,21.242 7.916 C 21.773 7.809,22.269 7.691,22.346 7.655 C 22.851 7.415,22.855 6.582,22.352 6.350 C 22.092 6.230,21.966 6.239,21.000 6.439 M12.420 9.259 C 12.398 9.267,12.331 9.284,12.271 9.297 C 12.124 9.329,11.881 9.548,11.814 9.708 C 11.691 10.002,11.771 10.336,12.015 10.550 C 12.095 10.621,12.211 10.693,12.271 10.709 C 12.413 10.749,15.587 10.749,15.729 10.709 C 15.881 10.667,16.121 10.447,16.186 10.292 C 16.297 10.027,16.241 9.711,16.047 9.506 C 15.810 9.255,15.854 9.261,14.080 9.252 C 13.189 9.248,12.442 9.251,12.420 9.259 M6.804 13.289 C 6.652 13.322,6.550 13.403,6.042 13.898 C 5.720 14.212,5.382 14.516,5.291 14.573 C 5.055 14.722,4.743 14.759,3.733 14.760 C 2.791 14.760,2.694 14.775,2.506 14.953 C 2.339 15.111,2.269 15.273,2.269 15.500 C 2.269 15.807,2.460 16.095,2.733 16.197 C 2.915 16.266,4.758 16.252,5.185 16.179 C 5.861 16.062,6.304 15.773,7.185 14.873 C 7.614 14.434,7.674 14.356,7.710 14.187 C 7.834 13.608,7.386 13.165,6.804 13.289 M19.906 17.776 C 20.415 17.911,20.875 18.289,21.090 18.748 C 21.194 18.971,21.219 19.081,21.233 19.370 C 21.251 19.755,21.207 19.980,21.049 20.298 C 20.929 20.540,20.557 20.919,20.323 21.039 C 19.907 21.251,20.420 21.239,11.368 21.240 L 2.956 21.240 2.858 21.142 C 2.726 21.010,2.726 20.806,2.857 20.683 C 2.945 20.600,3.727 20.456,10.927 19.195 C 15.312 18.427,18.990 17.783,19.100 17.764 C 19.405 17.711,19.679 17.715,19.906 17.776 " stroke="none" fill-rule="evenodd" fill="black"></path></svg>