<svg width="24" height="24" viewBox="0 0 24 24" fill="none" xmlns="http://www.w3.org/2000/svg"><path d="M11.676 1.283 C 11.270 1.328,10.730 1.489,9.400 1.960 C 7.434 2.655,6.712 2.834,5.440 2.940 C 4.170 3.046,3.259 3.696,2.925 4.733 C 2.761 5.244,2.760 5.271,2.760 9.838 L 2.760 14.271 2.610 14.299 C 2.171 14.381,1.631 14.814,1.427 15.247 C 1.264 15.593,1.239 15.898,1.280 17.000 C 1.336 18.505,1.448 19.141,1.779 19.820 C 2.095 20.470,2.529 20.904,3.180 21.221 C 3.378 21.318,3.695 21.436,3.885 21.484 L 4.229 21.570 4.250 21.903 C 4.265 22.149,4.294 22.273,4.358 22.377 C 4.709 22.944,5.578 22.806,5.716 22.162 C 5.740 22.049,5.760 21.907,5.760 21.848 L 5.760 21.740 11.995 21.740 L 18.230 21.740 18.254 21.993 C 18.303 22.524,18.684 22.818,19.183 22.711 C 19.555 22.632,19.760 22.296,19.760 21.764 L 19.760 21.573 20.110 21.485 C 20.303 21.436,20.622 21.318,20.820 21.221 C 21.471 20.904,21.905 20.470,22.221 19.820 C 22.553 19.139,22.665 18.501,22.720 16.994 C 22.760 15.888,22.734 15.591,22.573 15.247 C 22.369 14.814,21.829 14.381,21.390 14.299 L 21.240 14.271 21.240 9.838 C 21.240 6.844,21.226 5.335,21.197 5.192 C 21.069 4.556,20.855 4.134,20.462 3.739 C 20.002 3.276,19.360 3.007,18.560 2.940 C 17.284 2.834,16.567 2.656,14.580 1.952 C 12.823 1.330,12.308 1.212,11.676 1.283 M12.580 2.857 C 12.778 2.910,13.417 3.124,14.000 3.332 C 16.018 4.054,16.769 4.248,18.120 4.398 C 18.505 4.440,18.905 4.504,19.008 4.540 C 19.285 4.637,19.537 4.878,19.648 5.151 L 19.740 5.380 19.751 9.810 L 19.762 14.240 12.000 14.240 L 4.238 14.240 4.249 9.810 L 4.260 5.380 4.352 5.151 C 4.545 4.675,4.918 4.484,5.820 4.401 C 7.078 4.284,7.933 4.067,9.940 3.352 C 11.730 2.715,11.919 2.679,12.580 2.857 M10.329 6.279 C 10.257 6.296,10.127 6.359,10.041 6.420 C 9.796 6.589,8.882 7.546,8.817 7.700 C 8.664 8.068,8.818 8.481,9.179 8.669 C 9.338 8.752,9.668 8.748,9.841 8.661 C 10.039 8.561,11.107 7.480,11.180 7.306 C 11.373 6.843,11.094 6.344,10.600 6.270 C 10.523 6.258,10.401 6.262,10.329 6.279 M13.329 7.279 C 13.257 7.296,13.131 7.357,13.049 7.414 C 12.769 7.608,9.887 10.534,9.821 10.691 C 9.664 11.068,9.814 11.479,10.179 11.669 C 10.338 11.752,10.668 11.748,10.841 11.662 C 11.051 11.556,14.102 8.493,14.178 8.311 C 14.373 7.843,14.097 7.345,13.600 7.270 C 13.523 7.258,13.401 7.262,13.329 7.279 M14.329 10.279 C 14.257 10.296,14.127 10.359,14.041 10.420 C 13.796 10.589,12.882 11.546,12.817 11.700 C 12.664 12.068,12.818 12.481,13.179 12.669 C 13.338 12.752,13.668 12.748,13.841 12.661 C 14.039 12.561,15.107 11.480,15.180 11.306 C 15.373 10.843,15.094 10.344,14.600 10.270 C 14.523 10.258,14.401 10.262,14.329 10.279 M11.240 18.000 L 11.240 20.240 8.522 20.240 C 6.936 20.240,5.591 20.222,5.292 20.197 C 3.444 20.043,2.952 19.550,2.802 17.704 C 2.779 17.420,2.760 16.900,2.760 16.547 C 2.760 16.007,2.770 15.895,2.826 15.833 C 2.890 15.763,3.073 15.760,7.066 15.760 L 11.240 15.760 11.240 18.000 M21.167 15.826 C 21.232 15.885,21.240 15.963,21.240 16.540 C 21.240 17.747,21.126 18.634,20.906 19.131 C 20.776 19.424,20.452 19.751,20.148 19.895 C 19.520 20.191,18.860 20.240,15.478 20.240 L 12.760 20.240 12.760 18.000 L 12.760 15.760 16.927 15.760 C 20.748 15.760,21.100 15.765,21.167 15.826 M6.815 17.278 C 6.331 17.393,6.098 18.004,6.383 18.408 C 6.605 18.722,6.676 18.738,7.869 18.753 C 9.122 18.768,9.296 18.744,9.519 18.521 C 9.918 18.122,9.731 17.423,9.189 17.286 C 8.983 17.235,7.025 17.228,6.815 17.278 M14.815 17.278 C 14.331 17.393,14.098 18.004,14.383 18.408 C 14.605 18.722,14.676 18.738,15.869 18.753 C 17.122 18.768,17.296 18.744,17.519 18.521 C 17.918 18.122,17.731 17.423,17.189 17.286 C 16.983 17.235,15.025 17.228,14.815 17.278 " stroke="none" fill-rule="evenodd" fill="black"></path></svg>