<svg width="24" height="24" viewBox="0 0 24 24" fill="none" xmlns="http://www.w3.org/2000/svg"><path d="M13.660 1.278 C 12.776 1.385,12.027 1.901,11.568 2.720 C 11.168 3.434,11.168 4.566,11.568 5.280 C 12.094 6.219,12.953 6.731,14.000 6.731 C 15.047 6.731,15.906 6.219,16.432 5.280 C 16.832 4.566,16.832 3.433,16.432 2.720 C 16.158 2.232,15.764 1.838,15.280 1.567 C 14.867 1.337,14.186 1.215,13.660 1.278 M14.454 2.841 C 14.744 2.950,15.050 3.256,15.159 3.546 C 15.331 4.006,15.227 4.518,14.893 4.857 C 14.594 5.159,14.446 5.220,14.000 5.220 C 13.560 5.220,13.410 5.161,13.125 4.875 C 12.876 4.627,12.790 4.433,12.769 4.080 C 12.746 3.675,12.847 3.404,13.126 3.126 C 13.479 2.773,13.983 2.665,14.454 2.841 M4.826 3.284 C 4.476 3.366,4.267 3.636,4.267 4.003 C 4.267 4.281,4.387 4.496,4.627 4.645 L 4.780 4.740 7.500 4.740 L 10.220 4.740 10.369 4.647 C 10.943 4.290,10.812 3.424,10.162 3.284 C 9.909 3.230,5.057 3.230,4.826 3.284 M17.826 3.284 C 17.476 3.366,17.267 3.636,17.267 4.003 C 17.267 4.281,17.387 4.496,17.627 4.645 C 17.773 4.736,17.812 4.740,18.500 4.740 C 19.184 4.740,19.228 4.735,19.369 4.647 C 19.943 4.290,19.812 3.424,19.162 3.284 C 18.920 3.232,18.047 3.232,17.826 3.284 M11.660 9.278 C 10.776 9.385,10.027 9.901,9.568 10.720 C 9.168 11.434,9.168 12.566,9.568 13.280 C 10.094 14.219,10.953 14.731,12.000 14.731 C 13.047 14.731,13.906 14.219,14.432 13.280 C 14.838 12.556,14.833 11.431,14.420 10.700 C 13.852 9.693,12.784 9.143,11.660 9.278 M12.454 10.841 C 12.744 10.950,13.050 11.256,13.159 11.546 C 13.331 12.006,13.227 12.518,12.893 12.857 C 12.594 13.159,12.446 13.220,12.000 13.220 C 11.565 13.220,11.394 13.154,11.120 12.880 C 10.883 12.643,10.790 12.429,10.769 12.080 C 10.746 11.675,10.847 11.404,11.126 11.126 C 11.479 10.773,11.983 10.665,12.454 10.841 M4.826 11.284 C 4.476 11.366,4.267 11.636,4.267 12.003 C 4.267 12.281,4.387 12.496,4.627 12.645 L 4.780 12.740 6.500 12.740 L 8.220 12.740 8.369 12.647 C 8.943 12.290,8.812 11.424,8.162 11.284 C 7.912 11.230,5.055 11.231,4.826 11.284 M15.826 11.284 C 15.476 11.366,15.267 11.636,15.267 12.003 C 15.267 12.281,15.387 12.496,15.627 12.645 L 15.780 12.740 17.500 12.740 L 19.220 12.740 19.369 12.647 C 19.943 12.290,19.812 11.424,19.162 11.284 C 18.912 11.230,16.055 11.231,15.826 11.284 M9.660 17.278 C 8.570 17.409,7.646 18.204,7.357 19.260 C 7.180 19.907,7.267 20.744,7.568 21.280 C 8.094 22.219,8.953 22.731,10.000 22.731 C 11.047 22.731,11.906 22.219,12.432 21.280 C 12.838 20.556,12.833 19.431,12.420 18.700 C 11.852 17.693,10.784 17.143,9.660 17.278 M10.454 18.841 C 10.744 18.950,11.050 19.256,11.159 19.546 C 11.331 20.006,11.227 20.518,10.893 20.857 C 10.594 21.159,10.446 21.220,10.000 21.220 C 9.565 21.220,9.394 21.154,9.120 20.880 C 8.883 20.643,8.790 20.429,8.769 20.080 C 8.746 19.675,8.847 19.404,9.126 19.126 C 9.479 18.773,9.983 18.665,10.454 18.841 M4.826 19.284 C 4.476 19.366,4.267 19.636,4.267 20.003 C 4.267 20.281,4.387 20.496,4.627 20.645 C 4.773 20.736,4.812 20.740,5.500 20.740 C 6.184 20.740,6.228 20.735,6.369 20.647 C 6.943 20.290,6.812 19.424,6.162 19.284 C 5.920 19.232,5.047 19.232,4.826 19.284 M13.826 19.284 C 13.476 19.366,13.267 19.636,13.267 20.003 C 13.267 20.281,13.387 20.496,13.627 20.645 L 13.780 20.740 16.500 20.740 L 19.220 20.740 19.369 20.647 C 19.943 20.290,19.812 19.424,19.162 19.284 C 18.909 19.230,14.057 19.230,13.826 19.284 " stroke="none" fill-rule="evenodd" fill="black"></path></svg>