<svg width="24" height="24" viewBox="0 0 24 24" fill="none" xmlns="http://www.w3.org/2000/svg"><path d="M9.020 1.279 C 6.976 1.330,5.856 1.466,4.900 1.779 C 3.060 2.382,1.958 3.688,1.563 5.734 C 1.311 7.042,1.267 7.973,1.267 12.000 C 1.267 16.027,1.311 16.958,1.563 18.266 C 2.013 20.599,3.401 21.987,5.734 22.437 C 7.043 22.690,7.974 22.734,12.000 22.734 C 16.026 22.734,16.957 22.690,18.266 22.437 C 20.599 21.987,21.987 20.599,22.437 18.266 C 22.688 16.966,22.733 16.013,22.733 12.000 C 22.733 7.987,22.688 7.034,22.437 5.734 C 22.098 3.977,21.228 2.756,19.825 2.068 C 18.972 1.650,17.853 1.420,16.180 1.321 C 15.262 1.267,10.607 1.239,9.020 1.279 M16.600 2.836 C 18.439 3.019,19.320 3.320,20.000 4.000 C 20.692 4.693,20.998 5.605,21.168 7.480 C 21.242 8.307,21.242 15.693,21.168 16.520 C 20.996 18.419,20.693 19.311,19.982 20.013 C 19.218 20.769,18.155 21.080,15.940 21.199 C 14.954 21.252,9.046 21.252,8.060 21.199 C 5.843 21.080,4.782 20.769,4.016 20.011 C 3.342 19.345,3.026 18.464,2.852 16.760 C 2.788 16.135,2.780 15.620,2.781 11.980 C 2.782 7.664,2.793 7.353,2.984 6.240 C 3.183 5.082,3.600 4.278,4.272 3.760 C 5.025 3.178,6.058 2.913,8.002 2.802 C 8.872 2.752,16.044 2.780,16.600 2.836 M13.660 5.278 C 12.776 5.385,12.027 5.901,11.568 6.720 C 11.168 7.434,11.168 8.566,11.568 9.280 C 12.094 10.219,12.953 10.731,14.000 10.731 C 15.047 10.731,15.906 10.219,16.432 9.280 C 16.838 8.556,16.833 7.431,16.420 6.700 C 15.852 5.693,14.784 5.143,13.660 5.278 M14.454 6.841 C 14.744 6.950,15.050 7.256,15.159 7.546 C 15.331 8.006,15.227 8.518,14.893 8.857 C 14.594 9.159,14.446 9.220,14.000 9.220 C 13.565 9.220,13.394 9.154,13.120 8.880 C 12.883 8.643,12.790 8.429,12.769 8.080 C 12.746 7.675,12.847 7.404,13.126 7.126 C 13.479 6.773,13.983 6.665,14.454 6.841 M4.826 7.284 C 4.476 7.366,4.267 7.636,4.267 8.003 C 4.267 8.281,4.387 8.496,4.627 8.645 L 4.780 8.740 7.500 8.740 L 10.220 8.740 10.369 8.647 C 10.943 8.290,10.812 7.424,10.162 7.284 C 9.909 7.230,5.057 7.230,4.826 7.284 M17.826 7.284 C 17.476 7.366,17.267 7.636,17.267 8.003 C 17.267 8.281,17.387 8.496,17.627 8.645 C 17.773 8.736,17.812 8.740,18.500 8.740 C 19.184 8.740,19.228 8.735,19.369 8.647 C 19.943 8.290,19.812 7.424,19.162 7.284 C 18.920 7.232,18.047 7.232,17.826 7.284 M9.660 13.278 C 8.776 13.385,8.027 13.901,7.568 14.720 C 7.267 15.256,7.180 16.093,7.357 16.740 C 7.606 17.650,8.350 18.394,9.260 18.643 C 9.907 18.820,10.744 18.733,11.280 18.432 C 12.219 17.906,12.731 17.047,12.731 16.000 C 12.731 14.957,12.213 14.089,11.280 13.567 C 10.867 13.337,10.186 13.215,9.660 13.278 M10.454 14.841 C 10.744 14.950,11.050 15.256,11.159 15.546 C 11.331 16.006,11.227 16.518,10.893 16.857 C 10.594 17.159,10.446 17.220,10.000 17.220 C 9.565 17.220,9.394 17.154,9.120 16.880 C 8.883 16.643,8.790 16.429,8.769 16.080 C 8.746 15.675,8.847 15.404,9.126 15.126 C 9.479 14.773,9.983 14.665,10.454 14.841 M4.826 15.284 C 4.476 15.366,4.267 15.636,4.267 16.003 C 4.267 16.281,4.387 16.496,4.627 16.645 C 4.773 16.736,4.812 16.740,5.500 16.740 C 6.184 16.740,6.228 16.735,6.369 16.647 C 6.943 16.290,6.812 15.424,6.162 15.284 C 5.920 15.232,5.047 15.232,4.826 15.284 M13.826 15.284 C 13.476 15.366,13.267 15.636,13.267 16.003 C 13.267 16.281,13.387 16.496,13.627 16.645 L 13.780 16.740 16.500 16.740 L 19.220 16.740 19.369 16.647 C 19.943 16.290,19.812 15.424,19.162 15.284 C 18.909 15.230,14.057 15.230,13.826 15.284 " stroke="none" fill-rule="evenodd" fill="black"></path></svg>