<svg width="24" height="24" viewBox="0 0 24 24" fill="none" xmlns="http://www.w3.org/2000/svg"><path d="M6.797 1.279 C 6.609 1.313,6.428 1.445,6.313 1.631 C 6.221 1.778,6.220 1.793,6.220 3.000 C 6.220 4.207,6.221 4.222,6.313 4.369 C 6.673 4.949,7.535 4.818,7.676 4.162 C 7.732 3.901,7.733 2.083,7.677 1.841 C 7.583 1.435,7.217 1.201,6.797 1.279 M16.797 1.279 C 16.609 1.313,16.428 1.445,16.313 1.631 L 16.220 1.780 16.220 5.500 L 16.220 9.220 16.313 9.369 C 16.673 9.949,17.535 9.818,17.676 9.162 C 17.735 8.886,17.736 2.098,17.677 1.841 C 17.583 1.435,17.217 1.201,16.797 1.279 M6.305 5.820 C 5.118 6.066,4.150 6.808,3.636 7.865 C 3.146 8.873,3.146 10.127,3.636 11.135 C 4.106 12.102,5.000 12.837,6.060 13.127 C 6.522 13.253,7.478 13.253,7.940 13.127 C 9.977 12.569,11.152 10.515,10.598 8.480 C 10.259 7.237,9.214 6.213,7.940 5.876 C 7.524 5.766,6.700 5.738,6.305 5.820 M7.397 7.284 C 8.141 7.408,8.856 8.010,9.126 8.740 C 9.201 8.942,9.215 9.062,9.215 9.500 C 9.215 9.938,9.201 10.058,9.126 10.260 C 8.930 10.791,8.492 11.272,7.976 11.523 C 6.947 12.024,5.760 11.686,5.095 10.703 C 4.649 10.043,4.649 8.957,5.095 8.297 C 5.628 7.510,6.485 7.132,7.397 7.284 M16.305 10.820 C 15.118 11.066,14.150 11.808,13.636 12.865 C 13.146 13.873,13.146 15.127,13.636 16.135 C 14.106 17.102,15.000 17.837,16.060 18.127 C 16.522 18.253,17.478 18.253,17.940 18.127 C 19.977 17.569,21.152 15.515,20.598 13.480 C 20.259 12.237,19.214 11.213,17.940 10.876 C 17.524 10.766,16.700 10.738,16.305 10.820 M17.397 12.284 C 18.141 12.408,18.856 13.010,19.126 13.740 C 19.201 13.942,19.215 14.062,19.215 14.500 C 19.215 14.938,19.201 15.058,19.126 15.260 C 18.930 15.791,18.492 16.272,17.976 16.523 C 16.947 17.024,15.760 16.686,15.095 15.703 C 14.649 15.043,14.649 13.957,15.095 13.297 C 15.628 12.510,16.485 12.132,17.397 12.284 M6.797 14.279 C 6.609 14.313,6.428 14.445,6.313 14.631 L 6.220 14.780 6.220 18.500 L 6.220 22.220 6.313 22.369 C 6.673 22.949,7.535 22.818,7.676 22.162 C 7.735 21.886,7.736 15.098,7.677 14.841 C 7.583 14.435,7.217 14.201,6.797 14.279 M16.797 19.279 C 16.609 19.313,16.428 19.445,16.313 19.631 C 16.221 19.778,16.220 19.793,16.220 21.000 C 16.220 22.207,16.221 22.222,16.313 22.369 C 16.673 22.949,17.535 22.818,17.676 22.162 C 17.732 21.901,17.733 20.083,17.677 19.841 C 17.583 19.435,17.217 19.201,16.797 19.279 " stroke="none" fill-rule="evenodd" fill="black"></path></svg>