<svg width="24" height="24" viewBox="0 0 24 24" fill="none" xmlns="http://www.w3.org/2000/svg"><path d="M3.826 4.286 C 3.625 4.331,3.468 4.445,3.353 4.631 C 3.265 4.773,3.260 4.816,3.260 5.503 C 3.260 6.220,3.261 6.227,3.367 6.388 C 3.526 6.628,3.721 6.733,4.007 6.733 C 4.203 6.733,4.270 6.714,4.408 6.617 C 4.681 6.423,4.736 6.268,4.754 5.635 C 4.771 5.019,4.725 4.726,4.581 4.538 C 4.419 4.325,4.109 4.222,3.826 4.286 M11.807 4.289 C 11.556 4.343,11.341 4.570,11.281 4.846 C 11.248 4.996,11.238 5.536,11.247 6.640 L 11.260 8.220 11.355 8.373 C 11.506 8.615,11.718 8.733,12.003 8.733 C 12.203 8.733,12.270 8.714,12.408 8.617 C 12.499 8.553,12.610 8.428,12.656 8.340 C 12.736 8.187,12.741 8.112,12.752 6.625 C 12.760 5.610,12.749 4.999,12.721 4.867 C 12.626 4.424,12.259 4.192,11.807 4.289 M19.826 4.286 C 19.625 4.331,19.468 4.445,19.353 4.631 L 19.260 4.780 19.260 7.503 L 19.260 10.226 19.367 10.388 C 19.526 10.628,19.721 10.733,20.007 10.733 C 20.203 10.733,20.270 10.714,20.408 10.617 C 20.499 10.553,20.610 10.428,20.656 10.340 C 20.738 10.183,20.740 10.127,20.751 7.621 C 20.759 5.916,20.749 4.996,20.720 4.863 C 20.628 4.432,20.253 4.190,19.826 4.286 M3.660 7.278 C 2.776 7.385,2.027 7.901,1.568 8.720 C 1.168 9.434,1.168 10.566,1.568 11.280 C 2.094 12.219,2.953 12.731,4.000 12.731 C 5.047 12.731,5.906 12.219,6.432 11.280 C 6.832 10.566,6.832 9.433,6.432 8.720 C 6.158 8.232,5.764 7.838,5.280 7.567 C 4.867 7.337,4.186 7.215,3.660 7.278 M4.454 8.841 C 4.744 8.950,5.050 9.256,5.159 9.546 C 5.331 10.006,5.227 10.518,4.893 10.857 C 4.594 11.159,4.446 11.220,4.000 11.220 C 3.560 11.220,3.410 11.161,3.125 10.875 C 2.876 10.627,2.790 10.433,2.769 10.080 C 2.746 9.675,2.847 9.404,3.126 9.126 C 3.479 8.773,3.983 8.665,4.454 8.841 M11.660 9.278 C 10.776 9.385,10.027 9.901,9.568 10.720 C 9.168 11.434,9.168 12.566,9.568 13.280 C 10.094 14.219,10.953 14.731,12.000 14.731 C 13.047 14.731,13.906 14.219,14.432 13.280 C 14.838 12.556,14.833 11.431,14.420 10.700 C 13.852 9.693,12.784 9.143,11.660 9.278 M12.454 10.841 C 12.744 10.950,13.050 11.256,13.159 11.546 C 13.331 12.006,13.227 12.518,12.893 12.857 C 12.594 13.159,12.446 13.220,12.000 13.220 C 11.565 13.220,11.394 13.154,11.120 12.880 C 10.883 12.643,10.790 12.429,10.769 12.080 C 10.746 11.675,10.847 11.404,11.126 11.126 C 11.479 10.773,11.983 10.665,12.454 10.841 M19.660 11.278 C 18.776 11.385,18.027 11.901,17.568 12.720 C 17.168 13.434,17.168 14.566,17.568 15.280 C 18.094 16.219,18.953 16.731,20.000 16.731 C 21.047 16.731,21.906 16.219,22.432 15.280 C 22.838 14.556,22.833 13.431,22.420 12.700 C 21.852 11.693,20.784 11.143,19.660 11.278 M20.454 12.841 C 20.744 12.950,21.050 13.256,21.159 13.546 C 21.331 14.006,21.227 14.518,20.893 14.857 C 20.594 15.159,20.446 15.220,20.000 15.220 C 19.565 15.220,19.394 15.154,19.120 14.880 C 18.883 14.643,18.790 14.429,18.769 14.080 C 18.746 13.675,18.847 13.404,19.126 13.126 C 19.479 12.773,19.983 12.665,20.454 12.841 M3.826 13.286 C 3.625 13.331,3.468 13.445,3.353 13.631 L 3.260 13.780 3.260 16.503 L 3.260 19.226 3.367 19.388 C 3.526 19.628,3.721 19.733,4.007 19.733 C 4.203 19.733,4.270 19.714,4.408 19.617 C 4.499 19.553,4.610 19.428,4.656 19.340 C 4.738 19.183,4.740 19.127,4.751 16.621 C 4.759 14.916,4.749 13.996,4.720 13.863 C 4.628 13.432,4.253 13.190,3.826 13.286 M11.807 15.289 C 11.556 15.343,11.341 15.570,11.281 15.846 C 11.248 15.996,11.238 16.536,11.247 17.640 L 11.260 19.220 11.355 19.373 C 11.506 19.615,11.718 19.733,12.003 19.733 C 12.203 19.733,12.270 19.714,12.408 19.617 C 12.499 19.553,12.610 19.428,12.656 19.340 C 12.736 19.187,12.741 19.112,12.752 17.625 C 12.760 16.610,12.749 15.999,12.721 15.867 C 12.626 15.424,12.259 15.192,11.807 15.289 M19.826 17.286 C 19.625 17.331,19.468 17.445,19.353 17.631 C 19.265 17.773,19.260 17.816,19.260 18.503 C 19.260 19.220,19.261 19.227,19.367 19.388 C 19.526 19.628,19.721 19.733,20.007 19.733 C 20.203 19.733,20.270 19.714,20.408 19.617 C 20.681 19.423,20.736 19.268,20.754 18.635 C 20.771 18.019,20.725 17.726,20.581 17.538 C 20.419 17.325,20.109 17.222,19.826 17.286 " stroke="none" fill-rule="evenodd" fill="black"></path></svg>