<svg width="24" height="24" viewBox="0 0 24 24" fill="none" xmlns="http://www.w3.org/2000/svg"><path d="M14.107 3.284 C 12.564 3.447,11.289 4.541,10.873 6.060 C 10.747 6.522,10.747 7.478,10.873 7.940 C 11.163 9.000,11.898 9.894,12.865 10.364 C 13.873 10.854,15.127 10.854,16.135 10.364 C 17.102 9.894,17.837 9.000,18.127 7.940 C 18.253 7.478,18.253 6.522,18.127 6.060 C 17.858 5.078,17.193 4.220,16.320 3.728 C 15.696 3.376,14.847 3.206,14.107 3.284 M15.260 4.876 C 16.014 5.146,16.604 5.868,16.724 6.668 C 16.887 7.752,16.229 8.810,15.188 9.141 C 14.120 9.480,12.969 8.986,12.477 7.977 C 11.862 6.713,12.554 5.199,13.920 4.821 C 14.238 4.733,14.941 4.762,15.260 4.876 M1.819 6.237 C 1.073 6.419,1.088 7.515,1.838 7.676 C 2.114 7.735,8.902 7.736,9.159 7.677 C 9.525 7.592,9.732 7.321,9.728 6.930 C 9.726 6.670,9.604 6.459,9.373 6.315 L 9.220 6.220 5.580 6.214 C 3.578 6.210,1.886 6.220,1.819 6.237 M19.819 6.236 C 19.073 6.423,19.087 7.515,19.838 7.676 C 20.099 7.732,21.917 7.733,22.159 7.677 C 22.524 7.593,22.732 7.321,22.728 6.933 C 22.726 6.672,22.618 6.479,22.388 6.327 L 22.226 6.220 21.083 6.213 C 20.454 6.209,19.886 6.219,19.819 6.236 M9.107 13.284 C 7.564 13.447,6.289 14.541,5.873 16.060 C 5.801 16.325,5.786 16.486,5.786 17.000 C 5.786 17.514,5.801 17.675,5.873 17.940 C 6.163 19.000,6.898 19.894,7.865 20.364 C 8.873 20.854,10.127 20.854,11.135 20.364 C 12.102 19.894,12.837 19.000,13.127 17.940 C 13.253 17.478,13.253 16.522,13.127 16.060 C 12.858 15.078,12.193 14.220,11.320 13.728 C 10.696 13.376,9.847 13.206,9.107 13.284 M10.260 14.876 C 11.014 15.146,11.604 15.868,11.724 16.668 C 11.887 17.752,11.229 18.810,10.188 19.141 C 9.120 19.480,7.969 18.986,7.477 17.977 C 6.862 16.713,7.554 15.199,8.920 14.821 C 9.238 14.733,9.941 14.762,10.260 14.876 M1.819 16.236 C 1.073 16.423,1.087 17.515,1.838 17.676 C 2.099 17.732,3.917 17.733,4.159 17.677 C 4.524 17.593,4.732 17.321,4.728 16.933 C 4.726 16.672,4.618 16.479,4.388 16.327 L 4.226 16.220 3.083 16.213 C 2.454 16.209,1.886 16.219,1.819 16.236 M14.819 16.237 C 14.073 16.419,14.088 17.515,14.838 17.676 C 15.114 17.735,21.902 17.736,22.159 17.677 C 22.525 17.592,22.732 17.321,22.728 16.930 C 22.726 16.670,22.604 16.459,22.373 16.315 L 22.220 16.220 18.580 16.214 C 16.578 16.210,14.886 16.220,14.819 16.237 " stroke="none" fill-rule="evenodd" fill="black"></path></svg>