<svg width="24" height="24" viewBox="0 0 24 24" fill="none" xmlns="http://www.w3.org/2000/svg"><path d="M9.020 1.279 C 6.976 1.330,5.856 1.466,4.900 1.779 C 3.060 2.382,1.958 3.688,1.563 5.734 C 1.311 7.042,1.267 7.973,1.267 12.000 C 1.267 16.027,1.311 16.958,1.563 18.266 C 2.013 20.599,3.401 21.987,5.734 22.437 C 7.043 22.690,7.974 22.734,12.000 22.734 C 16.026 22.734,16.957 22.690,18.266 22.437 C 20.599 21.987,21.987 20.599,22.437 18.266 C 22.688 16.966,22.733 16.013,22.733 12.000 C 22.733 7.987,22.688 7.034,22.437 5.734 C 22.098 3.977,21.228 2.756,19.825 2.068 C 18.972 1.650,17.853 1.420,16.180 1.321 C 15.262 1.267,10.607 1.239,9.020 1.279 M16.600 2.836 C 18.439 3.019,19.320 3.320,20.000 4.000 C 20.692 4.693,20.998 5.605,21.168 7.480 C 21.242 8.307,21.242 15.693,21.168 16.520 C 20.996 18.419,20.693 19.311,19.982 20.013 C 19.218 20.769,18.155 21.080,15.940 21.199 C 14.954 21.252,9.046 21.252,8.060 21.199 C 5.843 21.080,4.782 20.769,4.016 20.011 C 3.342 19.345,3.026 18.464,2.852 16.760 C 2.788 16.135,2.780 15.620,2.781 11.980 C 2.782 7.664,2.793 7.353,2.984 6.240 C 3.183 5.082,3.600 4.278,4.272 3.760 C 5.025 3.178,6.058 2.913,8.002 2.802 C 8.872 2.752,16.044 2.780,16.600 2.836 M7.826 4.286 C 7.625 4.331,7.468 4.445,7.353 4.631 C 7.265 4.773,7.260 4.816,7.260 5.503 C 7.260 6.220,7.261 6.227,7.367 6.388 C 7.526 6.628,7.721 6.733,8.007 6.733 C 8.203 6.733,8.270 6.714,8.408 6.617 C 8.681 6.423,8.736 6.268,8.754 5.635 C 8.771 5.019,8.725 4.726,8.581 4.538 C 8.419 4.325,8.109 4.222,7.826 4.286 M15.826 4.286 C 15.625 4.331,15.468 4.445,15.353 4.631 L 15.260 4.780 15.260 7.503 L 15.260 10.226 15.367 10.388 C 15.526 10.628,15.721 10.733,16.007 10.733 C 16.203 10.733,16.270 10.714,16.408 10.617 C 16.499 10.553,16.610 10.428,16.656 10.340 C 16.738 10.183,16.740 10.127,16.751 7.621 C 16.759 5.916,16.749 4.996,16.720 4.863 C 16.628 4.432,16.253 4.190,15.826 4.286 M7.660 7.278 C 6.776 7.385,6.027 7.901,5.568 8.720 C 5.168 9.434,5.168 10.566,5.568 11.280 C 6.094 12.219,6.953 12.731,8.000 12.731 C 9.047 12.731,9.906 12.219,10.432 11.280 C 10.838 10.556,10.833 9.431,10.420 8.700 C 9.852 7.693,8.784 7.143,7.660 7.278 M8.454 8.841 C 8.744 8.950,9.050 9.256,9.159 9.546 C 9.331 10.006,9.227 10.518,8.893 10.857 C 8.594 11.159,8.446 11.220,8.000 11.220 C 7.565 11.220,7.394 11.154,7.120 10.880 C 6.883 10.643,6.790 10.429,6.769 10.080 C 6.746 9.675,6.847 9.404,7.126 9.126 C 7.479 8.773,7.983 8.665,8.454 8.841 M15.660 11.278 C 14.776 11.385,14.027 11.901,13.568 12.720 C 13.168 13.434,13.168 14.566,13.568 15.280 C 14.094 16.219,14.953 16.731,16.000 16.731 C 17.047 16.731,17.906 16.219,18.432 15.280 C 18.838 14.556,18.833 13.431,18.420 12.700 C 17.852 11.693,16.784 11.143,15.660 11.278 M16.454 12.841 C 16.744 12.950,17.050 13.256,17.159 13.546 C 17.331 14.006,17.227 14.518,16.893 14.857 C 16.594 15.159,16.446 15.220,16.000 15.220 C 15.565 15.220,15.394 15.154,15.120 14.880 C 14.883 14.643,14.790 14.429,14.769 14.080 C 14.746 13.675,14.847 13.404,15.126 13.126 C 15.479 12.773,15.983 12.665,16.454 12.841 M7.826 13.286 C 7.625 13.331,7.468 13.445,7.353 13.631 L 7.260 13.780 7.260 16.503 L 7.260 19.226 7.367 19.388 C 7.526 19.628,7.721 19.733,8.007 19.733 C 8.203 19.733,8.270 19.714,8.408 19.617 C 8.499 19.553,8.610 19.428,8.656 19.340 C 8.738 19.183,8.740 19.127,8.751 16.621 C 8.759 14.916,8.749 13.996,8.720 13.863 C 8.628 13.432,8.253 13.190,7.826 13.286 M15.826 17.286 C 15.625 17.331,15.468 17.445,15.353 17.631 C 15.265 17.773,15.260 17.816,15.260 18.503 C 15.260 19.220,15.261 19.227,15.367 19.388 C 15.526 19.628,15.721 19.733,16.007 19.733 C 16.203 19.733,16.270 19.714,16.408 19.617 C 16.681 19.423,16.736 19.268,16.754 18.635 C 16.771 18.019,16.725 17.726,16.581 17.538 C 16.419 17.325,16.109 17.222,15.826 17.286 " stroke="none" fill-rule="evenodd" fill="black"></path></svg>