<svg width="24" height="24" viewBox="0 0 24 24" fill="none" xmlns="http://www.w3.org/2000/svg"><path d="M7.560 1.280 C 5.469 1.346,4.390 1.587,3.487 2.188 C 2.500 2.844,1.875 3.877,1.579 5.343 C 1.315 6.645,1.266 7.691,1.266 12.000 C 1.266 16.309,1.315 17.355,1.579 18.657 C 1.877 20.128,2.499 21.155,3.496 21.818 C 4.246 22.318,5.132 22.558,6.700 22.688 C 7.550 22.759,16.450 22.759,17.300 22.688 C 18.868 22.558,19.754 22.318,20.504 21.818 C 21.501 21.155,22.123 20.128,22.421 18.657 C 22.685 17.356,22.734 16.310,22.734 12.000 C 22.734 7.690,22.685 6.644,22.421 5.343 C 22.123 3.872,21.501 2.845,20.504 2.182 C 19.768 1.692,18.872 1.444,17.380 1.318 C 16.740 1.264,9.022 1.234,7.560 1.280 M17.140 2.802 C 18.678 2.905,19.480 3.160,20.038 3.722 C 20.697 4.387,21.010 5.344,21.168 7.180 C 21.242 8.034,21.242 15.966,21.168 16.820 C 21.010 18.656,20.697 19.613,20.038 20.278 C 19.480 20.840,18.678 21.095,17.140 21.198 C 16.346 21.252,7.654 21.252,6.860 21.198 C 5.370 21.098,4.545 20.845,4.004 20.324 C 3.321 19.666,2.992 18.683,2.832 16.820 C 2.758 15.966,2.758 8.034,2.832 7.180 C 2.990 5.344,3.303 4.387,3.962 3.722 C 4.506 3.174,5.345 2.901,6.780 2.804 C 7.496 2.756,16.429 2.754,17.140 2.802 M16.500 6.807 C 15.919 6.916,15.270 7.430,14.992 8.000 C 14.560 8.885,14.727 9.890,15.419 10.580 C 15.600 10.761,15.796 10.908,15.970 10.996 L 16.240 11.132 16.240 13.064 C 16.240 14.902,16.236 15.008,16.160 15.212 C 16.019 15.588,15.870 15.717,15.159 16.081 C 14.485 16.425,14.376 16.515,14.281 16.812 C 14.243 16.931,14.243 17.007,14.282 17.167 C 14.378 17.567,14.785 17.820,15.172 17.718 C 15.422 17.652,16.439 17.116,16.709 16.908 C 17.080 16.623,17.428 16.127,17.593 15.650 C 17.732 15.250,17.759 14.799,17.760 12.916 L 17.760 11.132 18.017 11.001 C 18.513 10.750,18.910 10.301,19.116 9.761 C 19.202 9.534,19.215 9.436,19.215 9.000 C 19.215 8.564,19.202 8.466,19.116 8.239 C 18.766 7.320,17.931 6.748,16.963 6.764 C 16.818 6.767,16.610 6.786,16.500 6.807 M9.579 7.280 C 7.750 7.440,6.200 8.632,5.540 10.384 C 5.182 11.335,5.182 12.665,5.540 13.616 C 6.042 14.949,7.049 15.958,8.376 16.457 C 9.340 16.820,10.660 16.820,11.624 16.457 C 12.951 15.958,13.958 14.949,14.460 13.616 C 14.819 12.661,14.818 11.336,14.457 10.376 C 13.695 8.348,11.716 7.092,9.579 7.280 M17.271 8.302 C 17.911 8.569,17.911 9.431,17.271 9.698 C 17.083 9.777,16.917 9.777,16.729 9.698 C 16.101 9.436,16.084 8.600,16.700 8.316 C 16.897 8.225,17.076 8.221,17.271 8.302 M10.980 8.894 C 11.508 9.068,11.854 9.286,12.284 9.716 C 12.712 10.143,12.928 10.485,13.108 11.020 C 13.209 11.316,13.217 11.389,13.217 12.000 C 13.217 12.611,13.209 12.684,13.108 12.980 C 12.928 13.515,12.712 13.857,12.284 14.284 C 11.857 14.712,11.515 14.928,10.980 15.108 C 10.684 15.209,10.611 15.217,10.000 15.217 C 9.389 15.217,9.316 15.209,9.020 15.108 C 8.485 14.928,8.143 14.712,7.716 14.284 C 7.288 13.857,7.072 13.515,6.892 12.980 C 6.791 12.684,6.783 12.611,6.783 12.000 C 6.783 11.389,6.791 11.316,6.892 11.020 C 7.072 10.485,7.288 10.143,7.716 9.716 C 8.433 8.999,9.066 8.750,10.100 8.775 C 10.572 8.787,10.710 8.806,10.980 8.894 " stroke="none" fill-rule="evenodd" fill="black"></path></svg>