<svg width="24" height="24" viewBox="0 0 24 24" fill="none" xmlns="http://www.w3.org/2000/svg"><path d="M9.020 1.278 C 7.735 1.310,7.475 1.326,6.649 1.423 C 4.782 1.643,3.569 2.183,2.728 3.171 C 1.841 4.212,1.475 5.425,1.314 7.860 C 1.249 8.841,1.249 15.159,1.314 16.140 C 1.431 17.905,1.649 18.970,2.068 19.825 C 2.756 21.228,3.977 22.098,5.734 22.437 C 7.034 22.688,7.987 22.733,12.000 22.733 C 16.013 22.733,16.966 22.688,18.266 22.437 C 20.599 21.987,21.987 20.599,22.437 18.266 C 22.688 16.968,22.732 16.015,22.733 12.000 C 22.733 7.987,22.688 7.034,22.437 5.734 C 22.098 3.977,21.228 2.756,19.825 2.068 C 18.972 1.650,17.855 1.421,16.180 1.321 C 15.276 1.267,10.579 1.239,9.020 1.278 M15.634 2.786 L 16.240 2.812 16.240 5.439 L 16.240 8.066 16.150 8.148 C 16.101 8.193,15.511 8.594,14.840 9.040 C 14.169 9.485,13.569 9.897,13.506 9.955 C 13.340 10.109,13.269 10.272,13.269 10.500 C 13.269 11.060,13.832 11.409,14.329 11.156 C 14.614 11.010,17.000 9.402,17.190 9.227 C 17.406 9.028,17.539 8.827,17.653 8.524 C 17.736 8.305,17.738 8.235,17.751 5.646 L 17.764 2.992 17.942 3.018 C 18.260 3.066,18.812 3.242,19.143 3.401 C 20.179 3.898,20.775 4.806,21.019 6.260 C 21.215 7.435,21.251 8.515,21.229 12.620 C 21.210 16.115,21.195 16.526,21.055 17.500 C 20.734 19.744,19.757 20.726,17.520 21.054 C 16.474 21.207,16.036 21.220,12.000 21.220 C 7.964 21.220,7.526 21.207,6.480 21.054 C 4.384 20.747,3.408 19.870,3.021 17.947 C 2.796 16.826,2.780 16.428,2.780 12.000 C 2.780 8.382,2.788 7.864,2.852 7.240 C 3.025 5.551,3.340 4.663,3.999 4.003 C 4.785 3.218,5.945 2.891,8.320 2.787 C 8.884 2.762,15.064 2.762,15.634 2.786 M11.533 6.282 C 9.517 6.447,7.758 7.641,6.851 9.460 C 6.072 11.023,6.072 12.977,6.851 14.540 C 8.149 17.142,11.146 18.367,13.895 17.418 C 15.766 16.772,17.225 15.114,17.618 13.188 C 17.712 12.727,17.759 12.040,17.712 11.819 C 17.607 11.327,16.985 11.097,16.566 11.396 C 16.338 11.558,16.279 11.711,16.238 12.239 C 16.191 12.871,16.126 13.135,15.869 13.740 C 15.498 14.618,14.618 15.498,13.740 15.869 C 13.007 16.180,12.825 16.217,12.020 16.219 C 11.480 16.220,11.278 16.204,11.040 16.144 C 9.449 15.740,8.260 14.551,7.856 12.960 C 7.748 12.532,7.748 11.468,7.856 11.040 C 8.255 9.469,9.408 8.299,10.980 7.871 C 11.167 7.820,11.454 7.788,11.840 7.773 C 12.351 7.755,12.470 7.763,12.840 7.846 C 13.071 7.897,13.378 7.939,13.523 7.940 C 13.752 7.940,13.806 7.925,13.938 7.825 C 14.115 7.689,14.238 7.444,14.239 7.223 C 14.240 7.004,14.099 6.734,13.925 6.620 C 13.562 6.383,12.364 6.213,11.533 6.282 M9.815 11.278 C 9.639 11.320,9.462 11.455,9.353 11.631 C 9.275 11.758,9.262 11.827,9.268 12.111 C 9.289 13.074,9.828 13.935,10.720 14.431 C 11.137 14.663,11.802 14.792,12.174 14.713 C 12.435 14.657,12.657 14.439,12.711 14.184 C 12.823 13.660,12.455 13.240,11.884 13.240 C 11.666 13.240,11.341 13.088,11.143 12.893 C 10.896 12.649,10.809 12.468,10.757 12.091 C 10.733 11.920,10.685 11.720,10.651 11.648 C 10.574 11.483,10.390 11.341,10.180 11.284 C 10.003 11.236,9.993 11.236,9.815 11.278 " stroke="none" fill-rule="evenodd" fill="black"></path></svg>