<svg width="24" height="24" viewBox="0 0 24 24" fill="none" xmlns="http://www.w3.org/2000/svg"><path d="M9.020 1.278 C 7.735 1.310,7.475 1.326,6.649 1.423 C 4.782 1.643,3.569 2.183,2.728 3.171 C 1.841 4.212,1.475 5.425,1.314 7.860 C 1.249 8.841,1.249 15.159,1.314 16.140 C 1.475 18.566,1.839 19.780,2.719 20.820 C 3.716 21.999,5.194 22.533,7.860 22.677 C 9.154 22.747,11.874 22.775,12.134 22.721 C 12.923 22.557,12.938 21.442,12.154 21.284 C 12.026 21.259,11.118 21.234,9.900 21.223 C 7.888 21.205,7.365 21.179,6.500 21.055 C 4.390 20.753,3.409 19.877,3.021 17.947 C 2.796 16.826,2.780 16.428,2.780 12.000 C 2.780 8.382,2.788 7.864,2.852 7.240 C 3.025 5.551,3.340 4.663,3.999 4.003 C 4.699 3.304,5.594 3.003,7.480 2.832 C 7.911 2.793,9.072 2.780,12.000 2.780 C 16.036 2.780,16.474 2.793,17.520 2.946 C 19.212 3.194,20.165 3.820,20.669 5.016 C 21.028 5.867,21.170 6.910,21.234 9.160 C 21.267 10.334,21.278 10.383,21.539 10.582 C 21.902 10.859,22.441 10.750,22.641 10.358 C 22.712 10.220,22.720 10.121,22.720 9.429 C 22.720 8.044,22.608 6.581,22.436 5.720 C 22.212 4.602,21.738 3.631,21.095 2.978 C 20.057 1.924,18.716 1.472,16.180 1.321 C 15.276 1.267,10.579 1.239,9.020 1.278 M11.740 8.266 C 10.415 8.385,9.327 9.085,8.719 10.212 C 8.400 10.803,8.271 11.320,8.271 12.000 C 8.271 12.682,8.400 13.197,8.721 13.792 C 9.078 14.453,9.549 14.923,10.212 15.281 C 10.803 15.600,11.320 15.729,12.000 15.729 C 12.680 15.729,13.197 15.600,13.788 15.281 C 14.451 14.923,14.922 14.453,15.279 13.792 C 15.600 13.197,15.729 12.682,15.729 12.000 C 15.729 11.320,15.600 10.803,15.281 10.212 C 14.832 9.381,14.122 8.779,13.215 8.463 C 12.793 8.316,12.149 8.230,11.740 8.266 M12.578 9.821 C 12.949 9.918,13.274 10.112,13.581 10.419 C 14.041 10.879,14.240 11.356,14.240 12.000 C 14.240 12.644,14.041 13.121,13.581 13.581 C 13.121 14.041,12.644 14.240,12.000 14.240 C 11.356 14.240,10.879 14.041,10.419 13.581 C 9.959 13.121,9.760 12.644,9.760 12.000 C 9.760 11.356,9.959 10.879,10.419 10.419 C 10.719 10.118,11.050 9.919,11.404 9.823 C 11.692 9.746,12.285 9.745,12.578 9.821 M18.700 11.316 C 18.506 11.405,18.384 11.532,18.302 11.729 C 18.248 11.858,18.240 12.243,18.240 14.703 C 18.240 17.379,18.236 17.527,18.170 17.498 C 17.403 17.169,16.381 17.198,15.720 17.568 C 14.781 18.094,14.269 18.953,14.269 20.000 C 14.269 21.047,14.781 21.906,15.720 22.432 C 16.434 22.832,17.566 22.832,18.280 22.432 C 18.953 22.055,19.432 21.469,19.646 20.760 C 19.736 20.463,19.737 20.432,19.750 17.733 L 19.764 15.005 19.912 15.106 C 20.215 15.314,20.715 15.537,21.104 15.637 C 21.409 15.716,21.969 15.756,22.174 15.713 C 22.723 15.597,22.924 14.884,22.522 14.482 C 22.360 14.320,22.131 14.240,21.831 14.240 C 21.361 14.240,20.829 13.992,20.419 13.581 C 19.987 13.149,19.761 12.643,19.759 12.102 C 19.758 11.708,19.592 11.436,19.271 11.302 C 19.076 11.221,18.897 11.225,18.700 11.316 M17.454 18.841 C 17.744 18.950,18.050 19.256,18.159 19.546 C 18.335 20.017,18.227 20.521,17.874 20.874 C 17.390 21.359,16.624 21.367,16.143 20.893 C 15.841 20.594,15.780 20.446,15.780 20.000 C 15.780 19.687,15.795 19.592,15.867 19.458 C 16.024 19.165,16.351 18.885,16.640 18.797 C 16.838 18.737,17.232 18.758,17.454 18.841 " stroke="none" fill-rule="evenodd" fill="black"></path></svg>