<svg width="24" height="24" viewBox="0 0 24 24" fill="none" xmlns="http://www.w3.org/2000/svg"><path d="M8.811 1.278 C 8.349 1.392,8.106 1.997,8.367 2.385 C 8.424 2.470,8.989 3.143,9.621 3.880 L 10.772 5.220 8.296 5.246 C 5.663 5.274,4.864 5.313,4.231 5.442 C 2.622 5.770,1.749 6.647,1.436 8.251 C 1.280 9.052,1.262 9.642,1.262 14.000 C 1.262 18.358,1.280 18.948,1.436 19.749 C 1.749 21.354,2.621 22.230,4.234 22.559 C 5.064 22.728,5.542 22.739,12.000 22.739 C 18.469 22.739,18.924 22.729,19.772 22.557 C 21.372 22.233,22.233 21.372,22.557 19.772 C 22.718 18.978,22.737 18.351,22.737 14.000 C 22.737 9.649,22.718 9.022,22.557 8.228 C 22.178 6.359,21.085 5.499,18.860 5.321 C 18.574 5.298,17.192 5.267,15.790 5.253 C 14.388 5.239,13.240 5.221,13.240 5.213 C 13.240 5.206,13.778 4.571,14.437 3.803 C 15.095 3.036,15.655 2.366,15.682 2.316 C 15.709 2.265,15.733 2.133,15.734 2.021 C 15.740 1.603,15.432 1.271,15.033 1.267 C 14.649 1.263,14.621 1.289,13.270 2.866 C 12.584 3.665,12.012 4.320,11.997 4.320 C 11.983 4.320,11.409 3.665,10.723 2.863 C 9.927 1.935,9.429 1.385,9.348 1.347 C 9.176 1.266,8.967 1.239,8.811 1.278 M15.240 14.002 L 15.240 21.245 10.190 21.227 C 6.816 21.215,5.049 21.195,4.864 21.165 C 4.207 21.061,3.731 20.878,3.445 20.620 C 3.147 20.351,2.932 19.806,2.830 19.060 C 2.758 18.543,2.758 9.457,2.830 8.940 C 2.964 7.962,3.236 7.440,3.749 7.171 C 4.172 6.949,4.581 6.853,5.307 6.804 C 5.567 6.786,7.909 6.769,10.510 6.766 L 15.240 6.760 15.240 14.002 M19.119 6.840 C 20.464 7.020,20.938 7.481,21.149 8.814 C 21.214 9.222,21.220 9.660,21.220 14.000 C 21.220 18.340,21.214 18.778,21.149 19.186 C 20.995 20.158,20.726 20.612,20.145 20.883 C 19.623 21.126,19.182 21.190,17.790 21.226 L 16.760 21.253 16.760 14.000 L 16.760 6.747 17.790 6.774 C 18.357 6.788,18.955 6.818,19.119 6.840 M18.667 11.065 C 18.303 11.177,18.000 11.602,18.000 12.000 C 18.000 12.520,18.480 13.000,19.000 13.000 C 19.517 13.000,20.000 12.517,20.000 12.000 C 20.000 11.598,19.688 11.173,19.310 11.061 C 19.061 10.987,18.919 10.988,18.667 11.065 M18.667 15.065 C 18.303 15.177,18.000 15.602,18.000 16.000 C 18.000 16.520,18.480 17.000,19.000 17.000 C 19.517 17.000,20.000 16.517,20.000 16.000 C 20.000 15.598,19.688 15.173,19.310 15.061 C 19.061 14.987,18.919 14.988,18.667 15.065 " stroke="none" fill-rule="evenodd" fill="black"></path></svg>