<svg width="24" height="24" viewBox="0 0 24 24" fill="none" xmlns="http://www.w3.org/2000/svg"><path d="M11.280 3.282 C 10.549 3.340,10.039 3.482,9.340 3.820 C 7.920 4.505,6.830 5.821,6.443 7.317 C 6.406 7.458,6.350 7.587,6.318 7.604 C 6.286 7.621,6.017 7.710,5.720 7.801 C 3.622 8.448,2.065 9.519,1.519 10.690 C 1.349 11.055,1.277 11.374,1.273 11.780 C 1.268 12.229,1.330 12.537,1.503 12.914 C 1.846 13.660,2.507 14.316,3.508 14.906 C 3.834 15.098,4.318 15.338,4.591 15.443 C 4.679 15.478,4.671 15.499,4.221 16.399 C 3.726 17.387,3.696 17.490,3.822 17.790 C 3.904 17.988,3.990 18.077,4.180 18.165 C 4.450 18.289,4.801 18.240,5.013 18.048 C 5.055 18.011,5.312 17.535,5.585 16.990 C 5.880 16.401,6.103 16.000,6.137 16.000 C 6.168 16.000,6.361 16.045,6.566 16.099 C 7.680 16.395,9.355 16.643,10.647 16.704 L 11.235 16.731 11.247 17.976 C 11.260 19.197,11.262 19.223,11.353 19.369 C 11.710 19.943,12.576 19.812,12.716 19.162 C 12.742 19.040,12.760 18.505,12.760 17.844 L 12.760 16.732 13.350 16.704 C 14.645 16.643,16.319 16.395,17.434 16.099 C 17.639 16.045,17.832 16.000,17.863 16.000 C 17.897 16.000,18.120 16.401,18.415 16.990 C 18.688 17.535,18.945 18.011,18.987 18.048 C 19.199 18.240,19.550 18.289,19.820 18.165 C 20.010 18.077,20.096 17.988,20.178 17.790 C 20.304 17.490,20.274 17.387,19.779 16.399 C 19.329 15.499,19.321 15.478,19.409 15.443 C 19.682 15.338,20.166 15.098,20.492 14.906 C 21.690 14.201,22.414 13.384,22.661 12.460 C 22.745 12.147,22.745 11.497,22.661 11.180 C 22.289 9.780,20.685 8.542,18.280 7.801 C 17.983 7.710,17.714 7.621,17.682 7.604 C 17.650 7.587,17.594 7.458,17.557 7.317 C 17.253 6.144,16.462 5.003,15.455 4.285 C 15.083 4.020,14.388 3.663,13.980 3.527 C 13.262 3.288,12.298 3.201,11.280 3.282 M13.340 4.896 C 13.538 4.955,13.815 5.057,13.955 5.122 C 14.763 5.497,15.518 6.255,15.881 7.056 C 16.072 7.477,16.202 7.984,16.212 8.339 L 16.220 8.658 15.981 8.753 C 15.150 9.086,13.898 9.239,12.000 9.239 C 10.812 9.239,10.215 9.205,9.440 9.096 C 8.661 8.986,7.821 8.741,7.770 8.609 C 7.727 8.496,7.829 7.871,7.955 7.480 C 8.330 6.316,9.314 5.330,10.473 4.958 C 11.025 4.781,11.179 4.764,12.120 4.777 C 12.920 4.787,13.005 4.796,13.340 4.896 M6.604 9.644 C 7.123 10.163,8.385 10.530,10.180 10.684 C 10.902 10.745,13.098 10.745,13.820 10.684 C 15.925 10.503,17.234 10.052,17.583 9.385 L 17.696 9.169 18.146 9.324 C 19.341 9.736,20.216 10.242,20.784 10.849 C 21.084 11.170,21.208 11.421,21.232 11.752 C 21.326 13.084,18.832 14.464,15.360 14.999 C 14.152 15.186,13.647 15.219,12.000 15.219 C 10.353 15.219,9.848 15.186,8.640 14.999 C 6.255 14.631,4.262 13.854,3.339 12.931 C 2.900 12.491,2.739 12.160,2.768 11.752 C 2.792 11.421,2.916 11.170,3.216 10.849 C 3.783 10.243,4.615 9.760,5.820 9.337 L 6.300 9.168 6.378 9.332 C 6.421 9.423,6.523 9.563,6.604 9.644 M6.667 11.065 C 6.303 11.177,6.000 11.602,6.000 12.000 C 6.000 12.517,6.483 13.000,7.000 13.000 C 7.517 13.000,8.000 12.517,8.000 12.000 C 8.000 11.598,7.688 11.173,7.310 11.061 C 7.061 10.987,6.919 10.988,6.667 11.065 M16.667 11.065 C 16.303 11.177,16.000 11.602,16.000 12.000 C 16.000 12.517,16.483 13.000,17.000 13.000 C 17.517 13.000,18.000 12.517,18.000 12.000 C 18.000 11.598,17.688 11.173,17.310 11.061 C 17.061 10.987,16.919 10.988,16.667 11.065 M11.667 12.065 C 11.303 12.177,11.000 12.602,11.000 13.000 C 11.000 13.517,11.483 14.000,12.000 14.000 C 12.517 14.000,13.000 13.517,13.000 13.000 C 13.000 12.598,12.688 12.173,12.310 12.061 C 12.061 11.987,11.919 11.988,11.667 12.065 " stroke="none" fill-rule="evenodd" fill="black"></path></svg>