<svg width="24" height="24" viewBox="0 0 24 24" fill="none" xmlns="http://www.w3.org/2000/svg"><path d="M11.280 2.282 C 10.549 2.340,10.039 2.482,9.340 2.820 C 7.920 3.505,6.830 4.821,6.443 6.317 C 6.406 6.458,6.350 6.587,6.318 6.604 C 6.286 6.621,6.017 6.710,5.720 6.801 C 3.622 7.448,2.065 8.519,1.519 9.690 C 1.349 10.055,1.277 10.374,1.273 10.780 C 1.268 11.229,1.330 11.537,1.503 11.914 C 2.618 14.342,7.372 15.921,12.950 15.716 C 18.120 15.526,22.032 13.812,22.661 11.460 C 22.745 11.147,22.745 10.497,22.661 10.180 C 22.289 8.780,20.685 7.542,18.280 6.801 C 17.983 6.710,17.714 6.621,17.682 6.604 C 17.650 6.587,17.594 6.458,17.557 6.317 C 17.253 5.144,16.462 4.003,15.455 3.285 C 15.083 3.020,14.388 2.663,13.980 2.527 C 13.262 2.288,12.298 2.201,11.280 2.282 M13.340 3.896 C 13.538 3.955,13.815 4.057,13.955 4.122 C 14.763 4.497,15.518 5.255,15.881 6.056 C 16.072 6.477,16.202 6.984,16.212 7.339 L 16.220 7.658 15.981 7.753 C 15.150 8.086,13.898 8.239,12.000 8.239 C 10.812 8.239,10.215 8.205,9.440 8.096 C 8.661 7.986,7.821 7.741,7.770 7.609 C 7.727 7.496,7.829 6.871,7.955 6.480 C 8.330 5.316,9.314 4.330,10.473 3.958 C 11.025 3.781,11.179 3.764,12.120 3.777 C 12.920 3.787,13.005 3.796,13.340 3.896 M6.604 8.644 C 7.123 9.163,8.385 9.530,10.180 9.684 C 10.902 9.745,13.098 9.745,13.820 9.684 C 15.925 9.503,17.234 9.052,17.583 8.385 L 17.696 8.169 18.146 8.324 C 19.341 8.736,20.216 9.242,20.784 9.849 C 21.084 10.170,21.208 10.421,21.232 10.752 C 21.326 12.084,18.832 13.464,15.360 13.999 C 14.152 14.186,13.647 14.219,12.000 14.219 C 10.353 14.219,9.848 14.186,8.640 13.999 C 6.255 13.631,4.262 12.854,3.339 11.931 C 2.900 11.491,2.739 11.160,2.768 10.752 C 2.792 10.421,2.916 10.170,3.216 9.849 C 3.783 9.243,4.615 8.760,5.820 8.337 L 6.300 8.168 6.378 8.332 C 6.421 8.423,6.523 8.563,6.604 8.644 M6.667 10.065 C 6.303 10.177,6.000 10.602,6.000 11.000 C 6.000 11.517,6.483 12.000,7.000 12.000 C 7.517 12.000,8.000 11.517,8.000 11.000 C 8.000 10.598,7.688 10.173,7.310 10.061 C 7.061 9.987,6.919 9.988,6.667 10.065 M16.667 10.065 C 16.303 10.177,16.000 10.602,16.000 11.000 C 16.000 11.517,16.483 12.000,17.000 12.000 C 17.517 12.000,18.000 11.517,18.000 11.000 C 18.000 10.598,17.688 10.173,17.310 10.061 C 17.061 9.987,16.919 9.988,16.667 10.065 M11.667 11.065 C 11.303 11.177,11.000 11.602,11.000 12.000 C 11.000 12.517,11.483 13.000,12.000 13.000 C 12.517 13.000,13.000 12.517,13.000 12.000 C 13.000 11.598,12.688 11.173,12.310 11.061 C 12.061 10.987,11.919 10.988,11.667 11.065 M5.815 16.277 C 5.638 16.321,5.461 16.456,5.353 16.631 L 5.260 16.780 5.260 18.500 L 5.260 20.220 5.353 20.369 C 5.710 20.943,6.576 20.812,6.716 20.162 C 6.773 19.894,6.774 17.090,6.717 16.841 C 6.623 16.432,6.215 16.177,5.815 16.277 M17.815 16.277 C 17.638 16.321,17.461 16.456,17.353 16.631 L 17.260 16.780 17.260 18.500 L 17.260 20.220 17.353 20.369 C 17.710 20.943,18.576 20.812,18.716 20.162 C 18.773 19.894,18.774 17.090,18.717 16.841 C 18.623 16.432,18.215 16.177,17.815 16.277 M11.815 17.277 C 11.638 17.321,11.461 17.456,11.353 17.631 L 11.260 17.780 11.260 19.500 L 11.260 21.220 11.353 21.369 C 11.710 21.943,12.576 21.812,12.716 21.162 C 12.773 20.894,12.774 18.090,12.717 17.841 C 12.623 17.432,12.215 17.177,11.815 17.277 " stroke="none" fill-rule="evenodd" fill="black"></path></svg>