<svg width="24" height="24" viewBox="0 0 24 24" fill="none" xmlns="http://www.w3.org/2000/svg"><path d="M6.714 2.820 C 5.609 3.029,4.823 3.751,4.535 4.820 C 4.418 5.257,4.427 6.393,4.554 6.960 C 4.953 8.750,6.084 10.848,7.734 12.860 C 10.498 16.230,14.123 18.796,17.040 19.446 C 17.598 19.571,18.795 19.583,19.180 19.469 C 19.951 19.239,20.551 18.772,20.887 18.138 C 21.138 17.665,21.219 17.281,21.218 16.560 C 21.217 15.399,20.900 14.298,20.137 12.805 L 19.802 12.150 19.959 11.885 C 20.753 10.544,20.899 8.751,20.337 7.256 C 20.050 6.493,19.638 5.875,18.944 5.166 C 17.914 4.114,16.913 3.575,15.620 3.377 C 14.456 3.198,13.107 3.454,12.115 4.041 L 11.850 4.198 11.195 3.863 C 10.175 3.342,9.316 3.029,8.440 2.859 C 7.964 2.767,7.098 2.747,6.714 2.820 M7.991 4.303 C 8.503 4.379,9.162 4.574,9.744 4.823 C 10.106 4.977,10.631 5.224,10.670 5.259 C 10.676 5.263,10.654 5.345,10.620 5.439 C 10.288 6.381,11.352 8.154,13.599 10.401 C 15.846 12.648,17.619 13.712,18.561 13.380 C 18.655 13.346,18.738 13.325,18.746 13.332 C 18.753 13.339,18.856 13.551,18.974 13.803 C 19.403 14.713,19.640 15.473,19.722 16.207 C 19.827 17.140,19.566 17.731,18.945 17.967 C 18.731 18.048,18.632 18.060,18.160 18.058 C 17.549 18.055,17.080 17.961,16.371 17.696 C 12.098 16.103,7.046 10.774,6.050 6.809 C 5.960 6.451,5.942 6.291,5.941 5.840 C 5.940 5.371,5.952 5.268,6.033 5.056 C 6.192 4.636,6.509 4.387,7.000 4.296 C 7.358 4.229,7.505 4.230,7.991 4.303 M15.740 4.917 C 16.161 5.020,16.588 5.199,16.959 5.429 C 17.368 5.682,18.221 6.521,18.507 6.950 C 19.326 8.179,19.412 9.688,18.737 11.000 C 18.578 11.309,18.166 11.882,18.082 11.912 C 18.063 11.919,17.933 11.872,17.794 11.809 C 16.094 11.036,12.802 7.721,12.157 6.133 L 12.067 5.910 12.163 5.833 C 12.867 5.266,13.440 4.991,14.193 4.857 C 14.595 4.786,15.321 4.814,15.740 4.917 M8.860 6.807 C 8.387 6.986,8.098 7.485,8.201 7.945 C 8.255 8.186,8.325 8.313,8.487 8.466 C 8.767 8.730,9.088 8.810,9.444 8.706 C 10.302 8.455,10.416 7.280,9.621 6.871 C 9.434 6.775,9.034 6.741,8.860 6.807 M3.880 10.631 C 3.727 10.714,1.456 13.434,1.335 13.680 C 1.104 14.148,1.452 14.728,1.967 14.733 C 2.356 14.737,2.381 14.714,3.632 13.193 C 4.263 12.426,4.821 11.723,4.870 11.632 C 5.043 11.315,4.953 10.920,4.656 10.694 C 4.463 10.547,4.091 10.517,3.880 10.631 M11.667 11.065 C 11.303 11.177,11.000 11.602,11.000 12.000 C 11.000 12.517,11.483 13.000,12.000 13.000 C 12.517 13.000,13.000 12.517,13.000 12.000 C 13.000 11.596,12.692 11.174,12.317 11.063 C 12.061 10.987,11.920 10.987,11.667 11.065 M15.808 13.944 C 15.182 14.256,15.060 15.063,15.566 15.548 C 16.042 16.003,16.849 15.852,17.143 15.253 C 17.251 15.033,17.246 14.593,17.132 14.380 C 16.875 13.895,16.291 13.703,15.808 13.944 M7.560 15.529 C 7.391 15.565,7.249 15.697,5.228 17.713 C 4.044 18.894,3.042 19.914,3.001 19.980 C 2.822 20.268,2.869 20.638,3.115 20.885 C 3.359 21.129,3.728 21.175,4.020 20.997 C 4.086 20.957,5.106 19.956,6.286 18.772 C 8.352 16.700,8.433 16.613,8.471 16.429 C 8.542 16.088,8.408 15.760,8.138 15.615 C 7.934 15.505,7.783 15.483,7.560 15.529 M12.393 19.113 C 12.211 19.206,9.466 21.455,9.386 21.576 C 9.190 21.875,9.230 22.270,9.480 22.520 C 9.760 22.800,10.169 22.814,10.494 22.555 C 11.417 21.821,13.285 20.259,13.344 20.172 C 13.401 20.088,13.420 19.989,13.420 19.777 C 13.420 19.528,13.406 19.476,13.308 19.347 C 13.089 19.060,12.695 18.959,12.393 19.113 " stroke="none" fill-rule="evenodd" fill="black"></path></svg>