<svg width="24" height="24" viewBox="0 0 24 24" fill="none" xmlns="http://www.w3.org/2000/svg"><path d="M10.860 1.281 C 7.908 1.458,5.125 2.957,3.320 5.344 C 2.046 7.027,1.283 9.218,1.265 11.240 C 1.260 11.798,1.264 11.828,1.371 12.046 C 1.499 12.307,1.730 12.532,1.995 12.655 L 2.180 12.740 6.711 12.751 L 11.241 12.762 11.231 16.551 L 11.220 20.340 11.122 20.539 C 10.663 21.471,9.337 21.471,8.878 20.539 C 8.787 20.354,8.779 20.285,8.760 19.560 C 8.737 18.674,8.715 18.598,8.409 18.384 C 8.269 18.285,8.204 18.267,8.000 18.267 C 7.796 18.267,7.731 18.285,7.591 18.384 C 7.277 18.604,7.260 18.667,7.260 19.600 C 7.261 20.518,7.295 20.716,7.543 21.220 C 7.885 21.918,8.544 22.454,9.320 22.665 C 9.671 22.761,10.330 22.760,10.680 22.665 C 11.644 22.401,12.372 21.680,12.665 20.700 C 12.732 20.478,12.738 20.177,12.750 16.611 L 12.762 12.762 17.291 12.751 L 21.820 12.740 22.046 12.629 C 22.307 12.501,22.532 12.270,22.655 12.005 C 22.730 11.841,22.739 11.755,22.735 11.240 C 22.717 9.216,21.958 7.040,20.676 5.340 C 19.084 3.227,16.689 1.792,14.067 1.379 C 13.279 1.255,11.966 1.215,10.860 1.281 M12.532 2.840 C 13.821 3.239,14.924 5.316,15.659 8.731 C 15.757 9.183,15.966 10.402,16.018 10.820 C 16.032 10.930,16.053 11.070,16.065 11.130 L 16.086 11.240 12.003 11.240 L 7.919 11.240 7.940 11.090 C 8.330 8.322,8.871 6.294,9.622 4.794 C 10.428 3.183,11.441 2.503,12.532 2.840 M8.776 3.270 C 7.975 4.477,7.285 6.405,6.822 8.727 C 6.681 9.433,6.502 10.538,6.455 10.990 L 6.429 11.240 4.590 11.240 L 2.751 11.240 2.777 10.890 C 3.008 7.864,4.759 5.184,7.427 3.772 C 7.756 3.597,8.750 3.166,8.835 3.161 C 8.843 3.160,8.816 3.209,8.776 3.270 M15.780 3.399 C 18.233 4.380,20.198 6.576,20.919 9.141 C 21.051 9.612,21.183 10.375,21.223 10.890 L 21.249 11.240 19.410 11.240 L 17.571 11.240 17.545 10.990 C 17.498 10.538,17.319 9.433,17.178 8.727 C 16.715 6.405,16.024 4.477,15.224 3.270 L 15.151 3.160 15.306 3.216 C 15.390 3.246,15.604 3.329,15.780 3.399 " fill="#1C274C" stroke="none" fill-rule="evenodd"></path></svg>