<svg width="24" height="24" viewBox="0 0 24 24" fill="none" xmlns="http://www.w3.org/2000/svg"><path d="M8.960 1.280 C 6.960 1.332,5.848 1.469,4.900 1.779 C 3.060 2.382,1.958 3.688,1.563 5.734 C 1.311 7.042,1.267 7.973,1.267 12.000 C 1.267 16.027,1.311 16.958,1.563 18.266 C 2.013 20.599,3.401 21.987,5.734 22.437 C 7.034 22.688,7.987 22.733,12.000 22.733 C 16.013 22.733,16.966 22.688,18.266 22.437 C 20.599 21.987,21.987 20.599,22.437 18.266 C 22.688 16.966,22.733 16.013,22.733 12.000 C 22.733 7.987,22.688 7.034,22.437 5.734 C 22.098 3.977,21.228 2.756,19.825 2.068 C 18.978 1.652,17.875 1.425,16.200 1.321 C 15.315 1.266,10.534 1.239,8.960 1.280 M16.787 2.853 C 17.971 2.982,18.589 3.129,19.180 3.421 C 20.200 3.924,20.776 4.815,21.019 6.260 C 21.215 7.435,21.251 8.515,21.229 12.620 C 21.210 16.115,21.195 16.526,21.055 17.500 C 20.734 19.744,19.757 20.726,17.520 21.054 C 16.474 21.207,16.036 21.220,12.000 21.220 C 7.964 21.220,7.526 21.207,6.480 21.054 C 4.384 20.747,3.408 19.870,3.021 17.947 C 2.796 16.826,2.780 16.428,2.780 12.000 C 2.780 8.382,2.788 7.864,2.852 7.240 C 3.025 5.550,3.340 4.663,4.001 4.001 C 4.665 3.338,5.593 3.009,7.220 2.862 C 8.207 2.772,8.227 2.772,12.400 2.782 C 15.524 2.790,16.323 2.803,16.787 2.853 M8.457 6.737 C 8.341 6.787,8.127 6.977,6.553 8.431 C 5.858 9.073,5.760 9.204,5.760 9.500 C 5.760 9.819,5.832 9.905,7.049 11.028 C 7.688 11.617,8.271 12.143,8.345 12.196 C 8.759 12.493,9.413 12.206,9.470 11.702 C 9.513 11.321,9.480 11.262,8.928 10.729 L 8.420 10.237 12.040 10.251 C 15.995 10.266,15.893 10.260,16.239 10.499 C 16.450 10.646,16.624 10.914,16.688 11.194 C 16.761 11.514,16.761 14.406,16.688 14.726 C 16.624 15.006,16.450 15.274,16.239 15.421 C 15.899 15.657,15.949 15.653,12.457 15.678 L 9.254 15.700 9.084 15.813 C 8.796 16.003,8.685 16.383,8.822 16.710 C 8.901 16.901,8.985 16.991,9.172 17.086 C 9.320 17.162,9.420 17.163,12.572 17.149 C 16.071 17.134,16.056 17.134,16.608 16.917 C 17.211 16.679,17.760 16.130,17.998 15.526 C 18.199 15.014,18.220 14.775,18.220 12.960 C 18.220 11.143,18.199 10.906,17.996 10.391 C 17.767 9.809,17.192 9.234,16.612 9.005 C 16.053 8.785,16.111 8.788,12.126 8.763 L 8.433 8.740 8.913 8.289 C 9.443 7.793,9.501 7.695,9.472 7.338 C 9.432 6.857,8.902 6.543,8.457 6.737 " stroke="none" fill-rule="evenodd" fill="black"></path></svg>