<svg width="24" height="24" viewBox="0 0 24 24" fill="none" xmlns="http://www.w3.org/2000/svg"><path d="M6.900 3.259 C 6.878 3.267,6.806 3.285,6.740 3.299 C 6.652 3.319,6.200 3.745,5.028 4.913 C 4.152 5.786,3.398 6.561,3.351 6.636 C 3.235 6.822,3.235 7.178,3.351 7.364 C 3.398 7.439,4.152 8.214,5.028 9.086 C 6.544 10.596,6.629 10.673,6.810 10.711 C 7.390 10.831,7.832 10.389,7.710 9.810 C 7.673 9.633,7.608 9.557,6.746 8.689 L 5.822 7.758 10.781 7.770 C 15.691 7.783,15.743 7.784,16.020 7.867 C 16.608 8.044,16.927 8.188,17.350 8.468 C 17.982 8.884,18.592 9.604,18.869 10.260 C 19.183 11.001,19.218 11.174,19.218 12.000 C 19.218 12.826,19.183 12.999,18.869 13.740 C 18.592 14.396,17.982 15.116,17.350 15.532 C 16.926 15.813,16.604 15.958,16.020 16.132 C 15.747 16.214,15.647 16.216,11.757 16.238 L 7.774 16.260 7.612 16.367 C 7.372 16.526,7.267 16.721,7.267 17.007 C 7.267 17.203,7.286 17.270,7.383 17.408 C 7.447 17.499,7.572 17.610,7.660 17.656 C 7.818 17.739,7.860 17.740,11.320 17.752 C 15.619 17.766,15.941 17.747,16.895 17.418 C 18.525 16.855,19.855 15.525,20.418 13.895 C 21.184 11.677,20.543 9.239,18.787 7.686 C 18.071 7.053,17.109 6.570,16.189 6.383 C 15.577 6.257,14.917 6.241,10.382 6.241 L 5.824 6.240 6.747 5.310 C 7.610 4.441,7.673 4.367,7.711 4.189 C 7.782 3.848,7.658 3.530,7.389 3.367 C 7.265 3.292,6.983 3.229,6.900 3.259 " stroke="none" fill-rule="evenodd" fill="black"></path></svg>