<svg width="24" height="24" viewBox="0 0 24 24" fill="none" xmlns="http://www.w3.org/2000/svg"><path d="M16.815 3.277 C 16.640 3.320,16.462 3.456,16.356 3.626 C 16.253 3.793,16.233 4.155,16.318 4.320 C 16.347 4.375,16.775 4.828,17.270 5.326 L 18.171 6.233 12.555 6.251 C 6.519 6.271,6.549 6.270,5.806 6.479 C 4.903 6.734,4.059 7.472,3.638 8.373 C 3.495 8.678,3.381 9.135,3.316 9.660 C 3.249 10.207,3.248 13.789,3.316 14.340 C 3.377 14.841,3.525 15.413,3.664 15.689 C 4.113 16.577,4.927 17.272,5.806 17.521 C 6.523 17.723,6.629 17.727,11.423 17.749 C 14.813 17.764,15.962 17.757,16.137 17.721 C 16.826 17.578,16.958 16.646,16.332 16.336 C 16.186 16.263,15.983 16.259,11.440 16.237 C 6.247 16.212,6.454 16.222,5.929 15.973 C 5.626 15.830,5.170 15.373,5.027 15.070 C 4.791 14.572,4.780 14.435,4.780 12.000 C 4.780 9.565,4.791 9.428,5.027 8.930 C 5.170 8.627,5.626 8.170,5.929 8.027 C 6.465 7.773,6.132 7.786,12.440 7.771 L 18.180 7.757 17.275 8.669 C 16.777 9.170,16.347 9.625,16.318 9.680 C 16.290 9.735,16.267 9.884,16.267 10.011 C 16.267 10.202,16.287 10.271,16.383 10.408 C 16.448 10.499,16.568 10.608,16.651 10.651 C 16.837 10.747,17.139 10.753,17.326 10.664 C 17.402 10.628,18.181 9.879,19.068 8.989 C 20.596 7.456,20.673 7.371,20.711 7.190 C 20.737 7.065,20.737 6.935,20.711 6.810 C 20.673 6.629,20.596 6.544,19.086 5.028 C 18.214 4.152,17.446 3.403,17.380 3.362 C 17.235 3.273,16.985 3.235,16.815 3.277 " stroke="none" fill-rule="evenodd" fill="black"></path></svg>