<svg width="24" height="24" viewBox="0 0 24 24" fill="none" xmlns="http://www.w3.org/2000/svg"><path d="M6.900 3.259 C 6.878 3.267,6.806 3.285,6.740 3.299 C 6.652 3.319,6.200 3.745,5.028 4.913 C 4.152 5.786,3.398 6.561,3.351 6.636 C 3.235 6.822,3.235 7.178,3.351 7.364 C 3.398 7.439,4.152 8.214,5.028 9.086 C 6.544 10.596,6.629 10.673,6.810 10.711 C 7.390 10.831,7.832 10.389,7.710 9.810 C 7.673 9.633,7.608 9.557,6.746 8.689 L 5.821 7.757 11.561 7.771 C 17.868 7.786,17.535 7.773,18.071 8.027 C 18.374 8.170,18.830 8.627,18.973 8.930 C 19.209 9.428,19.220 9.565,19.220 12.000 C 19.220 14.435,19.209 14.572,18.973 15.070 C 18.830 15.373,18.374 15.830,18.071 15.973 C 17.546 16.221,17.755 16.211,12.537 16.237 L 7.774 16.260 7.612 16.367 C 7.372 16.526,7.267 16.721,7.267 17.007 C 7.267 17.203,7.286 17.270,7.383 17.408 C 7.447 17.499,7.572 17.610,7.660 17.656 C 7.820 17.740,7.832 17.740,12.360 17.739 C 17.212 17.738,17.373 17.732,18.115 17.538 C 18.763 17.368,19.368 16.984,19.814 16.458 C 20.493 15.659,20.656 15.114,20.724 13.420 C 20.768 12.310,20.741 10.214,20.675 9.620 C 20.625 9.165,20.474 8.585,20.336 8.311 C 19.887 7.423,19.073 6.728,18.194 6.479 C 17.451 6.270,17.481 6.271,11.445 6.251 L 5.831 6.233 6.751 5.306 C 7.610 4.441,7.673 4.367,7.711 4.189 C 7.782 3.848,7.658 3.530,7.389 3.367 C 7.265 3.292,6.983 3.229,6.900 3.259 " stroke="none" fill-rule="evenodd" fill="black"></path></svg>