<svg width="24" height="24" viewBox="0 0 24 24" fill="none" xmlns="http://www.w3.org/2000/svg"><path d="M8.960 1.280 C 6.960 1.332,5.848 1.469,4.900 1.779 C 3.060 2.382,1.958 3.688,1.563 5.734 C 1.311 7.042,1.267 7.973,1.267 12.000 C 1.267 16.027,1.311 16.958,1.563 18.266 C 2.013 20.599,3.401 21.987,5.734 22.437 C 7.034 22.688,7.987 22.733,12.000 22.733 C 16.013 22.733,16.966 22.688,18.266 22.437 C 20.599 21.987,21.987 20.599,22.437 18.266 C 22.688 16.966,22.733 16.013,22.733 12.000 C 22.733 7.987,22.688 7.034,22.437 5.734 C 22.098 3.977,21.228 2.756,19.825 2.068 C 18.978 1.652,17.875 1.425,16.200 1.321 C 15.315 1.266,10.534 1.239,8.960 1.280 M16.787 2.853 C 17.971 2.982,18.589 3.129,19.180 3.421 C 20.200 3.924,20.776 4.815,21.019 6.260 C 21.215 7.435,21.251 8.515,21.229 12.620 C 21.210 16.115,21.195 16.526,21.055 17.500 C 20.734 19.744,19.757 20.726,17.520 21.054 C 16.474 21.207,16.036 21.220,12.000 21.220 C 7.964 21.220,7.526 21.207,6.480 21.054 C 4.384 20.747,3.408 19.870,3.021 17.947 C 2.796 16.826,2.780 16.428,2.780 12.000 C 2.780 8.382,2.788 7.864,2.852 7.240 C 3.025 5.550,3.340 4.663,4.001 4.001 C 4.665 3.338,5.593 3.009,7.220 2.862 C 8.207 2.772,8.227 2.772,12.400 2.782 C 15.524 2.790,16.323 2.803,16.787 2.853 M14.935 6.754 C 14.698 6.866,14.550 7.077,14.528 7.338 C 14.499 7.695,14.557 7.793,15.087 8.289 L 15.567 8.740 12.434 8.761 L 9.300 8.782 8.903 8.890 C 7.415 9.297,6.289 10.427,5.889 11.915 C 5.798 12.256,5.786 12.376,5.786 12.960 C 5.786 13.544,5.798 13.664,5.889 14.005 C 6.331 15.647,7.662 16.855,9.320 17.118 C 9.479 17.143,10.574 17.160,12.132 17.160 C 14.593 17.160,14.689 17.157,14.838 17.081 C 15.370 16.810,15.365 16.024,14.830 15.765 C 14.657 15.681,14.620 15.680,12.186 15.680 C 9.400 15.680,9.353 15.676,8.761 15.392 C 8.480 15.257,8.359 15.166,8.060 14.864 C 7.478 14.278,7.262 13.763,7.262 12.960 C 7.262 12.171,7.491 11.622,8.056 11.056 C 8.409 10.704,8.729 10.504,9.180 10.354 L 9.460 10.261 12.520 10.250 L 15.580 10.238 15.072 10.729 C 14.520 11.262,14.487 11.321,14.530 11.702 C 14.587 12.206,15.241 12.493,15.655 12.196 C 15.729 12.143,16.312 11.617,16.951 11.028 C 18.168 9.905,18.240 9.819,18.240 9.500 C 18.240 9.181,18.168 9.095,16.951 7.972 C 16.312 7.383,15.728 6.856,15.654 6.803 C 15.470 6.671,15.158 6.650,14.935 6.754 " stroke="none" fill-rule="evenodd" fill="black"></path></svg>