<svg width="24" height="24" viewBox="0 0 24 24" fill="none" xmlns="http://www.w3.org/2000/svg"><path d="M8.960 1.280 C 6.960 1.332,5.848 1.469,4.900 1.779 C 3.060 2.382,1.958 3.688,1.563 5.734 C 1.311 7.042,1.267 7.973,1.267 12.000 C 1.267 16.027,1.311 16.958,1.563 18.266 C 2.013 20.599,3.401 21.987,5.734 22.437 C 7.034 22.688,7.987 22.733,12.000 22.733 C 16.013 22.733,16.966 22.688,18.266 22.437 C 20.599 21.987,21.987 20.599,22.437 18.266 C 22.688 16.966,22.733 16.013,22.733 12.000 C 22.733 7.987,22.688 7.034,22.437 5.734 C 22.098 3.977,21.228 2.756,19.825 2.068 C 18.978 1.652,17.875 1.425,16.200 1.321 C 15.315 1.266,10.534 1.239,8.960 1.280 M16.787 2.853 C 17.971 2.982,18.589 3.129,19.180 3.421 C 20.200 3.924,20.776 4.815,21.019 6.260 C 21.215 7.435,21.251 8.515,21.229 12.620 C 21.210 16.115,21.195 16.526,21.055 17.500 C 20.734 19.744,19.757 20.726,17.520 21.054 C 16.474 21.207,16.036 21.220,12.000 21.220 C 7.964 21.220,7.526 21.207,6.480 21.054 C 4.384 20.747,3.408 19.870,3.021 17.947 C 2.796 16.826,2.780 16.428,2.780 12.000 C 2.780 8.382,2.788 7.864,2.852 7.240 C 3.025 5.550,3.340 4.663,4.001 4.001 C 4.665 3.338,5.593 3.009,7.220 2.862 C 8.207 2.772,8.227 2.772,12.400 2.782 C 15.524 2.790,16.323 2.803,16.787 2.853 M14.935 6.754 C 14.698 6.866,14.550 7.077,14.528 7.338 C 14.499 7.695,14.557 7.793,15.087 8.289 L 15.567 8.740 11.874 8.763 C 7.889 8.788,7.947 8.785,7.388 9.005 C 6.809 9.233,6.233 9.809,6.005 10.388 C 5.815 10.869,5.791 11.101,5.771 12.667 C 5.746 14.596,5.801 15.122,6.084 15.700 C 6.336 16.215,6.841 16.695,7.342 16.896 C 7.941 17.137,7.887 17.133,11.428 17.149 C 14.580 17.163,14.680 17.162,14.828 17.086 C 15.015 16.991,15.099 16.901,15.178 16.710 C 15.314 16.386,15.198 15.999,14.908 15.807 L 14.746 15.700 11.543 15.678 C 8.051 15.653,8.101 15.657,7.761 15.421 C 7.550 15.274,7.376 15.006,7.312 14.726 C 7.239 14.406,7.239 11.514,7.312 11.194 C 7.376 10.914,7.550 10.646,7.761 10.499 C 8.107 10.260,8.005 10.266,11.960 10.251 L 15.580 10.237 15.072 10.729 C 14.520 11.262,14.487 11.321,14.530 11.702 C 14.587 12.206,15.241 12.493,15.655 12.196 C 15.729 12.143,16.312 11.617,16.951 11.028 C 18.168 9.905,18.240 9.819,18.240 9.500 C 18.240 9.181,18.168 9.095,16.951 7.972 C 16.312 7.383,15.728 6.856,15.654 6.803 C 15.470 6.671,15.158 6.650,14.935 6.754 " stroke="none" fill-rule="evenodd" fill="black"></path></svg>