<svg width="24" height="24" viewBox="0 0 24 24" fill="none" xmlns="http://www.w3.org/2000/svg"><path d="M16.815 3.277 C 16.640 3.320,16.462 3.456,16.356 3.626 C 16.253 3.793,16.233 4.155,16.318 4.320 C 16.347 4.375,16.777 4.829,17.274 5.330 L 18.178 6.240 13.619 6.241 C 9.083 6.241,8.423 6.257,7.811 6.383 C 5.870 6.779,4.215 8.244,3.569 10.140 C 3.166 11.322,3.166 12.678,3.569 13.860 C 4.137 15.526,5.474 16.863,7.140 17.431 C 7.610 17.592,8.014 17.672,8.591 17.720 C 9.266 17.776,15.899 17.772,16.162 17.716 C 16.828 17.573,16.943 16.639,16.332 16.336 C 16.187 16.263,15.999 16.259,12.220 16.238 C 8.351 16.216,8.254 16.214,7.980 16.132 C 7.396 15.958,7.074 15.813,6.650 15.532 C 5.780 14.959,5.125 14.019,4.856 12.960 C 4.748 12.532,4.748 11.468,4.856 11.040 C 5.055 10.258,5.451 9.554,6.002 9.002 C 6.538 8.467,7.172 8.102,7.980 7.865 C 8.255 7.785,8.354 7.783,13.220 7.770 L 18.180 7.758 17.275 8.669 C 16.777 9.170,16.347 9.625,16.318 9.680 C 16.290 9.735,16.267 9.884,16.267 10.011 C 16.267 10.202,16.287 10.271,16.383 10.408 C 16.448 10.499,16.568 10.608,16.651 10.651 C 16.837 10.747,17.139 10.753,17.326 10.664 C 17.402 10.628,18.181 9.879,19.068 8.989 C 20.596 7.456,20.673 7.371,20.711 7.190 C 20.737 7.065,20.737 6.935,20.711 6.810 C 20.673 6.629,20.596 6.544,19.086 5.028 C 18.214 4.152,17.446 3.403,17.380 3.362 C 17.235 3.273,16.985 3.235,16.815 3.277 " stroke="none" fill-rule="evenodd" fill="black"></path></svg>