<svg width="24" height="24" viewBox="0 0 24 24" fill="none" xmlns="http://www.w3.org/2000/svg"><path d="M17.700 6.815 C 17.538 6.886,17.616 6.799,13.640 11.356 L 10.140 15.367 10.012 15.213 C 9.538 14.647,7.481 12.331,7.397 12.269 C 7.274 12.180,7.021 12.140,6.822 12.177 C 6.656 12.208,6.425 12.396,6.332 12.575 C 6.239 12.756,6.245 13.075,6.346 13.246 C 6.392 13.324,7.162 14.226,8.057 15.250 C 9.780 17.224,9.798 17.240,10.140 17.240 C 10.504 17.240,10.330 17.424,14.605 12.527 C 16.806 10.006,18.635 7.889,18.671 7.822 C 18.752 7.669,18.751 7.335,18.669 7.179 C 18.588 7.024,18.409 6.856,18.267 6.803 C 18.116 6.745,17.847 6.751,17.700 6.815 " stroke="none" fill-rule="evenodd" fill="black"></path></svg>