<svg width="24" height="24" viewBox="0 0 24 24" fill="none" xmlns="http://www.w3.org/2000/svg"><path d="M11.820 1.276 C 11.754 1.293,11.658 1.332,11.606 1.363 C 11.492 1.433,8.468 4.948,8.348 5.151 C 8.245 5.325,8.238 5.642,8.332 5.825 C 8.425 6.004,8.656 6.192,8.822 6.223 C 9.022 6.260,9.274 6.220,9.397 6.130 C 9.453 6.089,9.891 5.601,10.369 5.046 L 11.239 4.037 11.249 9.629 L 11.260 15.220 11.353 15.369 C 11.664 15.870,12.408 15.849,12.664 15.332 C 12.737 15.186,12.741 14.971,12.760 9.622 L 12.780 4.064 13.586 5.002 C 14.029 5.518,14.443 5.988,14.506 6.047 C 14.971 6.486,15.727 6.149,15.733 5.501 C 15.734 5.390,15.706 5.246,15.671 5.180 C 15.567 4.985,12.575 1.510,12.411 1.393 C 12.247 1.276,12.009 1.229,11.820 1.276 M5.920 8.282 C 4.604 8.330,3.863 8.458,3.253 8.740 C 2.034 9.303,1.470 10.312,1.314 12.209 C 1.250 12.983,1.250 18.017,1.314 18.791 C 1.504 21.099,2.334 22.172,4.231 22.558 C 5.073 22.730,5.495 22.740,12.000 22.740 C 18.505 22.740,18.927 22.730,19.769 22.558 C 21.375 22.231,22.233 21.373,22.557 19.772 C 22.601 19.556,22.658 19.101,22.685 18.760 C 22.752 17.916,22.752 13.084,22.685 12.240 C 22.573 10.814,22.263 9.969,21.622 9.340 C 21.061 8.791,20.334 8.487,19.280 8.360 C 18.684 8.289,17.051 8.241,16.826 8.288 C 16.186 8.421,16.059 9.293,16.628 9.645 C 16.767 9.731,16.833 9.738,17.746 9.765 C 19.142 9.806,19.613 9.873,20.104 10.099 C 20.726 10.385,20.991 10.820,21.149 11.814 C 21.213 12.214,21.220 12.595,21.220 15.500 C 21.220 18.405,21.213 18.786,21.149 19.186 C 20.935 20.537,20.473 20.976,19.060 21.170 C 18.539 21.242,5.461 21.242,4.940 21.170 C 4.236 21.073,3.748 20.894,3.445 20.620 C 3.147 20.351,2.932 19.806,2.830 19.060 C 2.759 18.549,2.759 12.451,2.830 11.940 C 2.933 11.193,3.147 10.649,3.446 10.379 C 3.760 10.095,4.317 9.901,5.052 9.820 C 5.180 9.805,5.721 9.781,6.254 9.765 C 7.174 9.738,7.232 9.731,7.375 9.643 C 7.604 9.502,7.726 9.290,7.728 9.030 C 7.733 8.538,7.379 8.226,6.840 8.247 C 6.763 8.250,6.349 8.266,5.920 8.282 " stroke="none" fill-rule="evenodd" fill="black"></path></svg>