<svg width="24" height="24" viewBox="0 0 24 24" fill="none" xmlns="http://www.w3.org/2000/svg"><path d="M11.320 1.281 C 7.041 1.525,3.252 4.409,1.843 8.497 C 1.180 10.418,1.082 12.560,1.564 14.550 C 2.581 18.745,6.076 21.956,10.343 22.617 C 11.506 22.797,13.074 22.762,14.094 22.533 C 14.314 22.484,14.398 22.442,14.518 22.322 C 14.858 21.982,14.790 21.382,14.387 21.173 C 14.154 21.052,14.014 21.044,13.548 21.125 C 12.959 21.227,11.616 21.269,11.040 21.203 C 9.225 20.997,7.463 20.260,6.140 19.153 C 4.272 17.590,3.134 15.531,2.822 13.146 C 2.699 12.214,2.756 10.974,2.966 10.002 C 3.253 8.667,3.978 7.178,4.847 6.140 C 5.746 5.066,6.724 4.293,7.940 3.696 C 9.236 3.060,10.538 2.760,12.000 2.760 C 13.462 2.760,14.764 3.060,16.060 3.696 C 18.932 5.106,20.839 7.828,21.203 11.040 C 21.269 11.622,21.227 12.959,21.123 13.560 C 21.026 14.120,21.055 14.295,21.280 14.520 C 21.591 14.831,22.149 14.793,22.396 14.445 C 22.714 13.999,22.835 11.752,22.617 10.343 C 21.910 5.777,18.310 2.149,13.742 1.398 C 13.334 1.331,12.074 1.229,11.880 1.247 C 11.847 1.250,11.595 1.265,11.320 1.281 M12.476 6.953 C 11.801 7.177,11.362 7.722,11.280 8.440 C 11.258 8.627,11.240 9.623,11.240 10.654 C 11.240 12.424,11.236 12.527,11.170 12.498 C 10.403 12.169,9.381 12.198,8.720 12.568 C 7.781 13.094,7.269 13.953,7.269 15.000 C 7.269 16.047,7.781 16.906,8.720 17.432 C 9.434 17.832,10.566 17.832,11.280 17.432 C 11.954 17.054,12.434 16.466,12.645 15.760 C 12.731 15.469,12.735 15.394,12.750 13.350 C 12.759 12.190,12.774 11.240,12.784 11.240 C 12.793 11.240,13.086 11.383,13.435 11.557 C 14.376 12.028,14.526 12.084,14.920 12.107 C 15.331 12.131,15.631 12.050,15.975 11.822 C 16.250 11.639,16.404 11.459,16.567 11.131 C 16.821 10.617,16.822 9.407,16.568 8.865 C 16.347 8.393,16.146 8.240,14.974 7.649 C 13.583 6.948,13.501 6.916,13.060 6.896 C 12.782 6.883,12.649 6.896,12.476 6.953 M14.140 8.912 L 15.220 9.460 15.220 9.998 L 15.220 10.537 15.110 10.598 C 15.002 10.659,14.978 10.649,13.890 10.100 L 12.780 9.540 12.769 9.020 C 12.758 8.529,12.762 8.496,12.843 8.430 C 12.890 8.392,12.958 8.361,12.994 8.362 C 13.030 8.363,13.546 8.611,14.140 8.912 M10.454 13.841 C 10.744 13.950,11.050 14.256,11.159 14.546 C 11.335 15.017,11.227 15.521,10.874 15.874 C 10.381 16.368,9.619 16.368,9.126 15.874 C 8.847 15.596,8.746 15.325,8.769 14.920 C 8.790 14.567,8.876 14.373,9.124 14.125 C 9.397 13.853,9.597 13.769,9.988 13.763 C 10.148 13.761,10.315 13.789,10.454 13.841 M17.900 14.259 C 17.878 14.267,17.806 14.285,17.740 14.299 C 17.578 14.335,14.945 16.947,14.836 17.180 C 14.795 17.268,14.762 17.412,14.762 17.500 C 14.762 17.680,14.870 17.946,14.986 18.048 C 15.102 18.151,15.340 18.240,15.500 18.240 C 15.773 18.240,15.924 18.133,16.589 17.470 L 17.237 16.824 17.249 19.522 L 17.260 22.220 17.353 22.369 C 17.710 22.943,18.576 22.812,18.716 22.162 C 18.745 22.024,18.760 21.113,18.760 19.388 L 18.760 16.821 19.410 17.469 C 20.076 18.133,20.227 18.240,20.500 18.240 C 20.660 18.240,20.898 18.151,21.014 18.048 C 21.130 17.946,21.238 17.680,21.238 17.500 C 21.238 17.191,21.139 17.070,19.754 15.695 C 19.020 14.966,18.384 14.351,18.340 14.329 C 18.249 14.284,17.960 14.237,17.900 14.259 " stroke="none" fill-rule="evenodd" fill="black"></path></svg>