<svg width="24" height="24" viewBox="0 0 24 24" fill="none" xmlns="http://www.w3.org/2000/svg"><path d="M8.960 1.280 C 6.960 1.332,5.848 1.469,4.900 1.779 C 3.060 2.382,1.958 3.688,1.563 5.734 C 1.311 7.042,1.267 7.973,1.267 12.000 C 1.267 16.027,1.311 16.958,1.563 18.266 C 2.013 20.599,3.401 21.987,5.734 22.437 C 7.034 22.688,7.987 22.733,12.000 22.733 C 16.013 22.733,16.966 22.688,18.266 22.437 C 20.599 21.987,21.987 20.599,22.437 18.266 C 22.688 16.966,22.733 16.013,22.733 12.000 C 22.733 7.987,22.688 7.034,22.437 5.734 C 22.098 3.977,21.228 2.756,19.825 2.068 C 18.978 1.652,17.875 1.425,16.200 1.321 C 15.315 1.266,10.534 1.239,8.960 1.280 M16.787 2.853 C 17.971 2.982,18.589 3.129,19.180 3.421 C 20.200 3.924,20.776 4.815,21.019 6.260 C 21.215 7.435,21.251 8.515,21.229 12.620 C 21.210 16.115,21.195 16.526,21.055 17.500 C 20.734 19.744,19.757 20.726,17.520 21.054 C 16.474 21.207,16.036 21.220,12.000 21.220 C 7.964 21.220,7.526 21.207,6.480 21.054 C 4.384 20.747,3.408 19.870,3.021 17.947 C 2.796 16.826,2.780 16.428,2.780 12.000 C 2.780 8.382,2.788 7.864,2.852 7.240 C 3.025 5.550,3.340 4.663,4.001 4.001 C 4.665 3.338,5.593 3.009,7.220 2.862 C 8.207 2.772,8.227 2.772,12.400 2.782 C 15.524 2.790,16.323 2.803,16.787 2.853 M7.815 6.278 C 7.331 6.393,7.098 7.004,7.383 7.408 C 7.447 7.499,7.572 7.610,7.660 7.656 C 7.819 7.739,7.851 7.740,11.879 7.751 C 14.744 7.759,16.001 7.749,16.153 7.717 C 16.902 7.562,16.930 6.473,16.189 6.286 C 15.979 6.234,8.034 6.226,7.815 6.278 M11.900 9.258 C 11.878 9.266,11.806 9.285,11.740 9.299 C 11.652 9.319,11.200 9.745,10.028 10.913 C 9.152 11.786,8.398 12.561,8.351 12.636 C 8.232 12.826,8.235 13.177,8.356 13.374 C 8.532 13.659,8.841 13.784,9.189 13.711 C 9.367 13.673,9.441 13.610,10.309 12.748 L 11.237 11.826 11.249 14.523 L 11.260 17.220 11.353 17.369 C 11.710 17.943,12.576 17.812,12.716 17.162 C 12.745 17.024,12.760 16.113,12.760 14.390 L 12.760 11.824 13.690 12.747 C 14.557 13.608,14.633 13.673,14.810 13.710 C 15.389 13.832,15.831 13.390,15.711 12.810 C 15.673 12.629,15.596 12.544,14.068 11.011 C 13.185 10.126,12.409 9.376,12.342 9.344 C 12.211 9.282,11.965 9.235,11.900 9.258 " stroke="none" fill-rule="evenodd" fill="black"></path></svg>