<svg width="24" height="24" viewBox="0 0 24 24" fill="none" xmlns="http://www.w3.org/2000/svg"><path d="M8.960 1.280 C 6.960 1.332,5.848 1.469,4.900 1.779 C 3.060 2.382,1.958 3.688,1.563 5.734 C 1.311 7.042,1.267 7.973,1.267 12.000 C 1.267 16.027,1.311 16.958,1.563 18.266 C 2.013 20.599,3.401 21.987,5.734 22.437 C 7.034 22.688,7.987 22.733,12.000 22.733 C 16.013 22.733,16.966 22.688,18.266 22.437 C 20.599 21.987,21.987 20.599,22.437 18.266 C 22.688 16.966,22.733 16.013,22.733 12.000 C 22.733 7.987,22.688 7.034,22.437 5.734 C 22.098 3.977,21.228 2.756,19.825 2.068 C 18.978 1.652,17.875 1.425,16.200 1.321 C 15.315 1.266,10.534 1.239,8.960 1.280 M16.787 2.853 C 17.971 2.982,18.589 3.129,19.180 3.421 C 20.200 3.924,20.776 4.815,21.019 6.260 C 21.215 7.435,21.251 8.515,21.229 12.620 C 21.210 16.115,21.195 16.526,21.055 17.500 C 20.734 19.744,19.757 20.726,17.520 21.054 C 16.474 21.207,16.036 21.220,12.000 21.220 C 7.964 21.220,7.526 21.207,6.480 21.054 C 4.384 20.747,3.408 19.870,3.021 17.947 C 2.796 16.826,2.780 16.428,2.780 12.000 C 2.780 8.382,2.788 7.864,2.852 7.240 C 3.025 5.550,3.340 4.663,4.001 4.001 C 4.665 3.338,5.593 3.009,7.220 2.862 C 8.207 2.772,8.227 2.772,12.400 2.782 C 15.524 2.790,16.323 2.803,16.787 2.853 M5.815 6.278 C 5.331 6.393,5.098 7.004,5.383 7.408 C 5.447 7.499,5.572 7.610,5.660 7.656 C 5.820 7.740,5.822 7.740,11.880 7.751 C 16.193 7.758,18.002 7.749,18.154 7.717 C 18.902 7.562,18.929 6.473,18.189 6.286 C 17.979 6.233,6.035 6.226,5.815 6.278 M8.267 9.298 C 8.183 9.328,8.077 9.386,8.031 9.426 C 7.910 9.533,5.376 12.576,5.318 12.684 C 5.291 12.735,5.267 12.867,5.266 12.979 C 5.260 13.397,5.568 13.729,5.967 13.733 C 6.329 13.737,6.420 13.665,7.111 12.834 L 7.740 12.078 7.760 14.669 C 7.774 16.535,7.793 17.282,7.827 17.340 C 7.888 17.446,8.075 17.618,8.198 17.681 C 8.252 17.709,8.388 17.731,8.500 17.731 C 8.612 17.731,8.748 17.709,8.802 17.681 C 8.925 17.618,9.112 17.446,9.173 17.340 C 9.207 17.282,9.226 16.535,9.240 14.669 L 9.260 12.078 9.889 12.834 C 10.577 13.662,10.672 13.737,11.026 13.733 C 11.369 13.730,11.622 13.524,11.717 13.171 C 11.813 12.816,11.793 12.785,10.361 11.069 C 9.642 10.206,9.015 9.467,8.969 9.426 C 8.874 9.343,8.620 9.244,8.500 9.244 C 8.456 9.244,8.351 9.268,8.267 9.298 M15.267 9.298 C 15.183 9.328,15.077 9.386,15.031 9.426 C 14.910 9.533,12.376 12.576,12.318 12.684 C 12.291 12.735,12.267 12.867,12.266 12.979 C 12.260 13.397,12.568 13.729,12.967 13.733 C 13.329 13.737,13.420 13.665,14.111 12.834 L 14.740 12.078 14.760 14.669 C 14.774 16.535,14.793 17.282,14.827 17.340 C 14.888 17.446,15.075 17.618,15.198 17.681 C 15.252 17.709,15.388 17.731,15.500 17.731 C 15.612 17.731,15.748 17.709,15.802 17.681 C 15.925 17.618,16.112 17.446,16.173 17.340 C 16.207 17.282,16.226 16.535,16.240 14.669 L 16.260 12.078 16.889 12.834 C 17.577 13.662,17.672 13.737,18.026 13.733 C 18.369 13.730,18.622 13.524,18.717 13.171 C 18.813 12.816,18.793 12.785,17.361 11.069 C 16.642 10.206,16.015 9.467,15.969 9.426 C 15.874 9.343,15.620 9.244,15.500 9.244 C 15.456 9.244,15.351 9.268,15.267 9.298 " stroke="none" fill-rule="evenodd" fill="black"></path></svg>