<svg width="24" height="24" viewBox="0 0 24 24" fill="none" xmlns="http://www.w3.org/2000/svg"><path d="M16.480 1.279 C 16.136 1.326,15.924 1.395,15.600 1.564 C 14.984 1.885,14.348 2.447,12.844 3.998 C 12.130 4.735,11.852 4.997,11.804 4.979 C 11.769 4.965,11.605 4.918,11.440 4.875 C 10.469 4.621,9.533 4.814,8.544 5.471 C 7.898 5.900,7.303 6.450,5.117 8.636 C 2.555 11.199,2.066 11.755,1.651 12.577 C 1.006 13.858,1.137 15.088,2.058 16.376 C 2.507 17.004,3.145 17.698,4.723 19.277 C 6.302 20.855,6.996 21.493,7.624 21.942 C 9.092 22.992,10.478 23.019,11.960 22.029 C 12.604 21.598,13.181 21.065,15.364 18.883 C 17.550 16.697,18.100 16.102,18.529 15.456 C 19.183 14.472,19.378 13.536,19.129 12.572 L 19.055 12.284 19.651 11.692 C 20.582 10.768,21.644 9.641,21.935 9.267 C 22.507 8.535,22.727 8.007,22.728 7.360 C 22.729 6.750,22.608 6.363,22.243 5.807 C 21.938 5.344,21.606 4.962,20.585 3.903 C 19.625 2.907,18.830 2.161,18.420 1.871 C 17.738 1.388,17.101 1.194,16.480 1.279 M17.180 2.854 C 17.537 3.021,17.999 3.428,19.155 4.595 C 20.875 6.330,21.240 6.808,21.240 7.320 C 21.240 7.632,21.056 7.992,20.646 8.482 C 20.282 8.917,18.324 10.929,18.281 10.912 C 18.265 10.905,18.111 10.730,17.939 10.523 C 17.230 9.667,14.273 6.708,13.487 6.065 C 13.329 5.936,13.200 5.819,13.200 5.804 C 13.200 5.789,13.718 5.253,14.350 4.614 C 15.896 3.051,16.274 2.761,16.760 2.761 C 16.907 2.761,17.047 2.792,17.180 2.854 M16.403 4.570 C 16.251 4.602,16.157 4.675,15.755 5.068 C 15.245 5.567,15.160 5.697,15.160 5.973 C 15.160 6.200,15.214 6.347,15.353 6.495 C 15.567 6.725,15.949 6.789,16.232 6.644 C 16.417 6.548,17.221 5.735,17.278 5.585 C 17.301 5.525,17.320 5.381,17.319 5.267 C 17.318 4.781,16.900 4.463,16.403 4.570 M11.165 6.372 C 11.864 6.611,12.478 7.117,14.473 9.097 C 17.159 11.764,17.659 12.410,17.711 13.287 C 17.755 14.005,17.423 14.580,16.202 15.900 C 15.519 16.638,12.567 19.573,12.020 20.058 C 10.848 21.096,10.193 21.380,9.428 21.180 C 8.722 20.996,8.138 20.532,6.185 18.601 C 3.691 16.136,3.017 15.328,2.820 14.572 C 2.702 14.120,2.770 13.668,3.026 13.200 C 3.366 12.581,3.853 12.028,5.719 10.145 C 7.396 8.452,8.405 7.482,8.926 7.063 C 9.821 6.342,10.480 6.139,11.165 6.372 M18.380 6.742 C 18.208 6.831,17.448 7.593,17.357 7.768 C 17.217 8.038,17.266 8.394,17.473 8.615 C 17.680 8.836,18.064 8.908,18.340 8.777 C 18.413 8.743,18.679 8.504,18.931 8.246 C 19.335 7.833,19.395 7.754,19.430 7.587 C 19.502 7.251,19.369 6.924,19.098 6.771 C 18.908 6.663,18.560 6.649,18.380 6.742 M4.940 13.457 C 4.791 13.523,4.619 13.704,4.563 13.853 C 4.507 13.999,4.508 14.341,4.564 14.453 C 4.627 14.577,9.397 19.353,9.528 19.423 C 9.665 19.495,10.004 19.497,10.171 19.425 C 10.327 19.358,10.500 19.181,10.557 19.027 C 10.620 18.863,10.609 18.575,10.536 18.428 C 10.448 18.251,5.776 13.573,5.592 13.477 C 5.419 13.387,5.117 13.378,4.940 13.457 " fill="#1C274C" stroke="none" fill-rule="evenodd"></path></svg>