<svg width="24" height="24" viewBox="0 0 24 24" fill="none" xmlns="http://www.w3.org/2000/svg"><path d="M11.815 1.277 C 11.746 1.294,11.631 1.349,11.561 1.399 C 11.366 1.538,9.297 4.662,9.262 4.870 C 9.154 5.506,9.876 5.981,10.409 5.626 C 10.482 5.578,10.695 5.309,10.890 5.021 L 11.240 4.503 11.240 8.253 L 11.240 12.002 11.113 11.936 C 11.043 11.900,10.185 11.603,9.205 11.276 C 8.125 10.914,7.366 10.639,7.274 10.576 C 7.079 10.441,6.928 10.241,6.834 9.995 C 6.768 9.821,6.760 9.674,6.760 8.681 L 6.760 7.562 6.882 7.499 C 7.203 7.333,7.553 6.891,7.666 6.512 C 7.743 6.252,7.743 5.748,7.666 5.488 C 7.511 4.966,7.033 4.489,6.510 4.333 C 6.252 4.257,5.747 4.257,5.488 4.334 C 4.964 4.489,4.490 4.966,4.331 5.495 C 4.253 5.759,4.253 6.242,4.332 6.507 C 4.446 6.889,4.796 7.333,5.113 7.496 L 5.231 7.557 5.252 8.769 C 5.263 9.452,5.292 10.058,5.317 10.160 C 5.480 10.812,5.905 11.447,6.414 11.795 C 6.745 12.022,7.049 12.141,8.797 12.725 C 9.819 13.067,10.636 13.362,10.717 13.419 C 10.911 13.553,11.076 13.770,11.166 14.006 C 11.234 14.184,11.240 14.339,11.240 15.777 L 11.240 17.354 11.090 17.401 C 10.519 17.582,9.911 18.109,9.568 18.720 C 9.168 19.434,9.168 20.566,9.568 21.280 C 10.094 22.219,10.953 22.731,12.000 22.731 C 13.047 22.731,13.906 22.219,14.432 21.280 C 14.832 20.566,14.832 19.434,14.432 18.720 C 14.089 18.109,13.481 17.582,12.910 17.401 C 12.735 17.346,12.725 17.293,12.834 17.005 C 12.928 16.759,13.079 16.559,13.274 16.424 C 13.366 16.361,14.124 16.086,15.203 15.725 C 16.951 15.141,17.255 15.022,17.586 14.795 C 17.961 14.539,18.369 14.026,18.538 13.600 C 18.705 13.181,18.726 13.004,18.748 11.834 L 18.769 10.688 18.895 10.663 C 19.210 10.601,19.581 10.214,19.685 9.840 C 19.752 9.599,19.752 8.401,19.685 8.160 C 19.575 7.767,19.232 7.424,18.840 7.316 C 18.731 7.286,18.401 7.266,18.000 7.266 C 17.599 7.266,17.269 7.286,17.160 7.316 C 16.768 7.424,16.425 7.767,16.315 8.160 C 16.248 8.401,16.248 9.599,16.315 9.840 C 16.420 10.216,16.791 10.601,17.110 10.664 L 17.240 10.690 17.240 11.745 C 17.240 12.676,17.231 12.822,17.166 12.995 C 17.072 13.241,16.921 13.441,16.726 13.576 C 16.634 13.639,15.875 13.914,14.795 14.276 C 13.815 14.603,12.957 14.900,12.887 14.936 L 12.760 15.002 12.760 9.753 L 12.760 4.503 13.110 5.021 C 13.305 5.309,13.518 5.578,13.591 5.626 C 14.124 5.981,14.846 5.506,14.738 4.870 C 14.698 4.630,12.622 1.521,12.411 1.385 C 12.241 1.275,12.001 1.231,11.815 1.277 M6.167 5.826 C 6.258 5.909,6.261 6.070,6.174 6.167 C 6.036 6.319,5.760 6.212,5.760 6.007 C 5.760 5.793,6.008 5.683,6.167 5.826 M18.240 9.000 L 18.240 9.240 18.000 9.240 L 17.760 9.240 17.760 9.000 L 17.760 8.760 18.000 8.760 L 18.240 8.760 18.240 9.000 M12.454 18.841 C 12.744 18.950,13.050 19.256,13.159 19.546 C 13.335 20.017,13.227 20.521,12.874 20.874 C 12.596 21.153,12.325 21.254,11.920 21.231 C 11.567 21.210,11.373 21.124,11.125 20.875 C 10.876 20.627,10.790 20.433,10.769 20.080 C 10.746 19.675,10.847 19.404,11.126 19.126 C 11.479 18.773,11.983 18.665,12.454 18.841 " fill="#1C274C" stroke="none" fill-rule="evenodd"></path></svg>