<svg width="24" height="24" viewBox="0 0 24 24" fill="none" xmlns="http://www.w3.org/2000/svg"><path d="M9.020 1.279 C 6.976 1.330,5.856 1.466,4.900 1.779 C 3.060 2.382,1.958 3.688,1.563 5.734 C 1.311 7.042,1.267 7.973,1.267 12.000 C 1.267 16.027,1.311 16.958,1.563 18.266 C 2.013 20.599,3.401 21.987,5.734 22.437 C 7.043 22.690,7.974 22.734,12.000 22.734 C 16.026 22.734,16.957 22.690,18.266 22.437 C 20.599 21.987,21.987 20.599,22.437 18.266 C 22.688 16.966,22.733 16.013,22.733 12.000 C 22.733 7.987,22.688 7.034,22.437 5.734 C 22.098 3.977,21.228 2.756,19.825 2.068 C 18.972 1.650,17.853 1.420,16.180 1.321 C 15.262 1.267,10.607 1.239,9.020 1.279 M16.600 2.836 C 18.439 3.019,19.320 3.320,20.000 4.000 C 20.692 4.693,20.998 5.605,21.168 7.480 C 21.242 8.307,21.242 15.693,21.168 16.520 C 20.995 18.427,20.692 19.314,19.966 20.031 C 19.337 20.654,18.428 20.975,16.820 21.144 C 16.288 21.199,15.577 21.214,12.620 21.229 C 8.221 21.252,7.082 21.205,5.923 20.954 C 4.231 20.588,3.373 19.699,3.021 17.947 C 2.796 16.825,2.780 16.431,2.781 11.980 C 2.782 7.664,2.793 7.353,2.984 6.240 C 3.183 5.082,3.600 4.278,4.272 3.760 C 5.025 3.178,6.058 2.913,8.002 2.802 C 8.872 2.752,16.044 2.780,16.600 2.836 M11.815 5.277 C 11.628 5.323,11.515 5.417,10.894 6.047 C 10.284 6.664,10.202 6.803,10.260 7.115 C 10.337 7.526,10.725 7.813,11.106 7.741 L 11.240 7.716 11.240 10.218 C 11.240 11.594,11.230 12.720,11.218 12.720 C 11.161 12.720,9.542 12.195,9.419 12.137 C 9.218 12.042,8.900 11.676,8.824 11.454 C 8.784 11.337,8.760 11.132,8.760 10.914 L 8.760 10.562 8.882 10.499 C 9.203 10.333,9.553 9.891,9.666 9.512 C 9.743 9.252,9.743 8.748,9.666 8.488 C 9.511 7.966,9.033 7.489,8.510 7.333 C 8.252 7.257,7.748 7.257,7.490 7.333 C 6.965 7.489,6.490 7.965,6.332 8.493 C 6.253 8.758,6.253 9.242,6.332 9.507 C 6.446 9.889,6.796 10.333,7.112 10.496 C 7.227 10.555,7.228 10.559,7.256 11.019 C 7.306 11.868,7.544 12.431,8.077 12.963 C 8.534 13.421,8.706 13.505,10.083 13.937 C 10.693 14.129,10.806 14.178,10.938 14.306 C 11.165 14.527,11.238 14.721,11.239 15.109 C 11.240 15.436,11.239 15.438,11.118 15.501 C 10.796 15.667,10.447 16.108,10.332 16.493 C 10.253 16.758,10.253 17.241,10.331 17.505 C 10.490 18.036,10.963 18.510,11.493 18.668 C 11.758 18.747,12.242 18.747,12.507 18.668 C 13.035 18.510,13.511 18.035,13.667 17.510 C 13.743 17.254,13.743 16.748,13.668 16.493 C 13.583 16.208,13.386 15.909,13.134 15.685 C 12.931 15.504,12.918 15.482,12.967 15.403 C 13.071 15.235,13.310 15.123,14.063 14.887 C 15.299 14.501,15.554 14.371,15.995 13.899 C 16.451 13.411,16.687 12.841,16.739 12.094 L 16.768 11.688 16.894 11.663 C 17.084 11.626,17.373 11.411,17.511 11.204 C 17.700 10.923,17.735 10.735,17.735 10.000 C 17.735 9.594,17.715 9.271,17.685 9.160 C 17.575 8.767,17.232 8.424,16.840 8.316 C 16.600 8.250,15.400 8.250,15.160 8.316 C 14.768 8.424,14.425 8.767,14.315 9.160 C 14.248 9.401,14.248 10.599,14.315 10.840 C 14.420 11.216,14.791 11.601,15.110 11.664 L 15.240 11.690 15.240 11.978 C 15.240 12.137,15.211 12.350,15.176 12.454 C 15.100 12.676,14.782 13.042,14.581 13.137 C 14.458 13.195,12.839 13.720,12.782 13.720 C 12.770 13.720,12.760 12.369,12.760 10.718 L 12.760 7.716 12.894 7.741 C 13.275 7.813,13.663 7.526,13.740 7.115 C 13.799 6.801,13.718 6.666,13.086 6.028 C 12.764 5.702,12.446 5.402,12.380 5.362 C 12.235 5.273,11.985 5.236,11.815 5.277 M8.167 8.826 C 8.258 8.909,8.261 9.070,8.174 9.167 C 8.036 9.319,7.760 9.212,7.760 9.007 C 7.760 8.793,8.008 8.683,8.167 8.826 M16.240 10.000 L 16.240 10.240 16.000 10.240 L 15.760 10.240 15.760 10.000 L 15.760 9.760 16.000 9.760 L 16.240 9.760 16.240 10.000 M12.167 16.826 C 12.258 16.909,12.261 17.070,12.174 17.167 C 12.036 17.319,11.760 17.212,11.760 17.007 C 11.760 16.793,12.008 16.683,12.167 16.826 " fill="#1C274C" stroke="none" fill-rule="evenodd"></path></svg>