<svg width="24" height="24" viewBox="0 0 24 24" fill="none" xmlns="http://www.w3.org/2000/svg"><path d="M11.310 1.283 C 8.365 1.460,5.598 2.877,3.701 5.180 C 0.456 9.118,0.446 14.850,3.676 18.788 C 6.773 22.564,11.964 23.789,16.418 21.795 C 18.766 20.745,20.745 18.763,21.798 16.412 C 22.772 14.238,22.998 11.768,22.436 9.450 C 21.419 5.255,17.924 2.044,13.657 1.383 C 13.303 1.328,12.042 1.231,11.880 1.246 C 11.847 1.249,11.590 1.266,11.310 1.283 M13.146 2.822 C 14.895 3.051,16.592 3.782,17.878 4.859 C 18.914 5.728,19.725 6.758,20.304 7.940 C 20.940 9.239,21.240 10.538,21.240 12.000 C 21.240 13.462,20.940 14.764,20.304 16.060 C 18.921 18.877,16.278 20.768,13.146 21.178 C 12.214 21.301,10.974 21.244,10.002 21.034 C 8.667 20.747,7.178 20.022,6.140 19.153 C 4.272 17.590,3.134 15.531,2.822 13.146 C 2.699 12.214,2.756 10.974,2.966 10.002 C 3.177 9.020,3.703 7.775,4.268 6.920 C 5.750 4.677,8.131 3.188,10.820 2.823 C 11.380 2.746,12.569 2.746,13.146 2.822 M11.815 5.277 C 11.628 5.323,11.515 5.417,10.894 6.047 C 10.284 6.664,10.202 6.803,10.260 7.115 C 10.337 7.526,10.725 7.813,11.106 7.741 L 11.240 7.716 11.240 10.218 C 11.240 11.594,11.230 12.720,11.218 12.720 C 11.161 12.720,9.542 12.195,9.419 12.137 C 9.218 12.042,8.900 11.676,8.824 11.454 C 8.784 11.337,8.760 11.132,8.760 10.914 L 8.760 10.562 8.882 10.499 C 9.203 10.333,9.553 9.891,9.666 9.512 C 9.743 9.252,9.743 8.748,9.666 8.488 C 9.511 7.966,9.033 7.489,8.510 7.333 C 8.252 7.257,7.748 7.257,7.490 7.333 C 6.965 7.489,6.490 7.965,6.332 8.493 C 6.253 8.758,6.253 9.242,6.332 9.507 C 6.446 9.889,6.796 10.333,7.112 10.496 C 7.227 10.555,7.228 10.559,7.256 11.019 C 7.306 11.868,7.544 12.431,8.077 12.963 C 8.534 13.421,8.706 13.505,10.083 13.937 C 10.693 14.129,10.806 14.178,10.938 14.306 C 11.165 14.527,11.238 14.721,11.239 15.109 C 11.240 15.436,11.239 15.438,11.118 15.501 C 10.796 15.667,10.447 16.108,10.332 16.493 C 10.253 16.758,10.253 17.241,10.331 17.505 C 10.490 18.036,10.963 18.510,11.493 18.668 C 11.758 18.747,12.242 18.747,12.507 18.668 C 13.035 18.510,13.511 18.035,13.667 17.510 C 13.743 17.254,13.743 16.748,13.668 16.493 C 13.583 16.208,13.386 15.909,13.134 15.685 C 12.931 15.504,12.918 15.482,12.967 15.403 C 13.071 15.235,13.310 15.123,14.063 14.887 C 15.299 14.501,15.554 14.371,15.995 13.899 C 16.451 13.411,16.687 12.841,16.739 12.094 L 16.768 11.688 16.894 11.663 C 17.084 11.626,17.373 11.411,17.511 11.204 C 17.700 10.923,17.735 10.735,17.735 10.000 C 17.735 9.594,17.715 9.271,17.685 9.160 C 17.575 8.767,17.232 8.424,16.840 8.316 C 16.600 8.250,15.400 8.250,15.160 8.316 C 14.768 8.424,14.425 8.767,14.315 9.160 C 14.248 9.401,14.248 10.599,14.315 10.840 C 14.420 11.216,14.791 11.601,15.110 11.664 L 15.240 11.690 15.240 11.978 C 15.240 12.137,15.211 12.350,15.176 12.454 C 15.100 12.676,14.782 13.042,14.581 13.137 C 14.458 13.195,12.839 13.720,12.782 13.720 C 12.770 13.720,12.760 12.369,12.760 10.718 L 12.760 7.716 12.894 7.741 C 13.275 7.813,13.663 7.526,13.740 7.115 C 13.799 6.801,13.718 6.666,13.086 6.028 C 12.764 5.702,12.446 5.402,12.380 5.362 C 12.235 5.273,11.985 5.236,11.815 5.277 M8.167 8.826 C 8.258 8.909,8.261 9.070,8.174 9.167 C 8.036 9.319,7.760 9.212,7.760 9.007 C 7.760 8.793,8.008 8.683,8.167 8.826 M16.240 10.000 L 16.240 10.240 16.000 10.240 L 15.760 10.240 15.760 10.000 L 15.760 9.760 16.000 9.760 L 16.240 9.760 16.240 10.000 M12.167 16.826 C 12.258 16.909,12.261 17.070,12.174 17.167 C 12.036 17.319,11.760 17.212,11.760 17.007 C 11.760 16.793,12.008 16.683,12.167 16.826 " fill="#1C274C" stroke="none" fill-rule="evenodd"></path></svg>