<svg width="24" height="24" viewBox="0 0 24 24" fill="none" xmlns="http://www.w3.org/2000/svg"><path d="M11.580 1.284 C 9.765 1.428,8.201 2.628,7.540 4.384 C 7.182 5.335,7.182 6.665,7.540 7.616 C 8.042 8.949,9.049 9.958,10.376 10.457 C 11.340 10.820,12.660 10.820,13.624 10.457 C 14.951 9.958,15.958 8.949,16.460 7.616 C 16.819 6.661,16.818 5.336,16.457 4.376 C 16.196 3.681,15.789 3.065,15.256 2.559 C 14.268 1.621,12.977 1.173,11.580 1.284 M12.980 2.894 C 13.508 3.068,13.854 3.286,14.284 3.716 C 14.712 4.143,14.928 4.485,15.108 5.020 C 15.209 5.316,15.217 5.389,15.217 6.000 C 15.217 6.611,15.209 6.684,15.108 6.980 C 14.928 7.515,14.712 7.857,14.284 8.284 C 13.857 8.712,13.515 8.928,12.980 9.108 C 12.684 9.209,12.611 9.217,12.000 9.217 C 11.389 9.217,11.316 9.209,11.020 9.108 C 10.485 8.928,10.143 8.712,9.716 8.284 C 9.288 7.857,9.072 7.515,8.892 6.980 C 8.791 6.684,8.783 6.611,8.783 6.000 C 8.783 5.389,8.791 5.316,8.892 5.020 C 9.072 4.485,9.288 4.143,9.716 3.716 C 10.433 2.999,11.066 2.750,12.100 2.775 C 12.572 2.787,12.710 2.806,12.980 2.894 M5.556 3.281 C 4.692 3.360,3.889 3.712,3.257 4.289 C 1.941 5.493,1.939 7.506,3.254 8.708 C 3.721 9.134,4.333 9.467,4.924 9.615 C 5.252 9.697,5.956 9.766,6.130 9.734 C 6.911 9.588,6.937 8.450,6.162 8.284 C 6.049 8.260,5.871 8.240,5.766 8.240 C 5.269 8.240,4.630 7.957,4.238 7.563 C 3.860 7.184,3.781 7.000,3.780 6.500 C 3.780 6.123,3.788 6.086,3.912 5.856 C 4.147 5.424,4.608 5.057,5.138 4.881 C 5.274 4.835,5.580 4.781,5.816 4.760 C 6.282 4.719,6.449 4.652,6.598 4.443 C 6.851 4.088,6.724 3.523,6.352 3.350 C 6.166 3.263,5.953 3.245,5.556 3.281 M17.826 3.286 C 17.188 3.430,17.053 4.289,17.614 4.636 C 17.719 4.701,17.860 4.732,18.184 4.760 C 18.420 4.781,18.726 4.835,18.862 4.881 C 19.392 5.057,19.853 5.424,20.088 5.856 C 20.212 6.086,20.220 6.123,20.220 6.500 C 20.219 6.978,20.147 7.161,19.817 7.515 C 19.421 7.941,18.889 8.181,18.206 8.241 C 17.717 8.284,17.551 8.355,17.383 8.592 C 17.161 8.906,17.246 9.377,17.566 9.604 C 17.750 9.735,17.949 9.763,18.402 9.720 C 19.340 9.630,20.091 9.306,20.746 8.708 C 21.889 7.663,22.060 5.964,21.146 4.740 C 20.726 4.178,20.108 3.735,19.400 3.488 C 18.893 3.312,18.139 3.215,17.826 3.286 M11.349 12.284 C 8.328 12.477,5.863 14.082,5.354 16.188 C 5.238 16.671,5.238 17.329,5.354 17.812 C 5.868 19.937,8.343 21.535,11.399 21.716 C 14.585 21.904,17.445 20.580,18.423 18.462 C 18.838 17.564,18.838 16.436,18.423 15.538 C 17.701 13.976,15.913 12.800,13.660 12.405 C 13.278 12.338,11.968 12.221,11.880 12.246 C 11.869 12.249,11.630 12.266,11.349 12.284 M3.500 13.359 C 1.880 13.783,0.665 14.739,0.350 15.837 C 0.248 16.194,0.248 16.806,0.350 17.163 C 0.666 18.265,1.883 19.220,3.509 19.642 C 3.988 19.766,4.107 19.765,4.367 19.635 C 4.821 19.408,4.868 18.704,4.447 18.405 C 4.388 18.363,4.143 18.272,3.903 18.203 C 3.058 17.959,2.487 17.654,2.108 17.246 C 1.642 16.744,1.642 16.256,2.108 15.754 C 2.487 15.346,3.058 15.041,3.903 14.797 C 4.143 14.728,4.388 14.637,4.447 14.595 C 4.868 14.296,4.822 13.593,4.367 13.365 C 4.111 13.236,3.972 13.235,3.500 13.359 M19.860 13.277 C 19.335 13.405,19.098 13.940,19.368 14.389 C 19.485 14.585,19.618 14.659,20.097 14.797 C 20.942 15.041,21.513 15.346,21.892 15.754 C 22.358 16.256,22.358 16.744,21.892 17.246 C 21.513 17.654,20.942 17.959,20.097 18.203 C 19.857 18.272,19.612 18.363,19.553 18.405 C 19.168 18.679,19.171 19.326,19.560 19.590 C 19.817 19.765,19.960 19.776,20.433 19.658 C 21.495 19.393,22.377 18.913,22.981 18.271 C 23.514 17.704,23.725 17.202,23.725 16.500 C 23.725 15.769,23.501 15.258,22.923 14.675 C 22.411 14.159,21.802 13.789,21.019 13.517 C 20.708 13.410,20.053 13.234,20.000 13.244 C 19.989 13.246,19.926 13.261,19.860 13.277 M13.543 13.896 C 15.454 14.299,16.821 15.270,17.176 16.477 C 17.435 17.358,16.983 18.347,15.982 19.091 C 15.373 19.543,14.512 19.899,13.522 20.109 C 13.059 20.207,12.944 20.216,12.040 20.218 C 10.986 20.220,10.779 20.198,10.009 19.996 C 8.933 19.715,8.086 19.253,7.487 18.620 C 6.995 18.101,6.760 17.576,6.760 17.000 C 6.760 15.633,8.227 14.375,10.350 13.920 C 10.986 13.784,11.243 13.764,12.180 13.780 C 12.933 13.792,13.130 13.809,13.543 13.896 " stroke="none" fill-rule="evenodd" fill="black"></path></svg>