<svg width="24" height="24" viewBox="0 0 24 24" fill="none" xmlns="http://www.w3.org/2000/svg"><path d="M9.580 1.284 C 7.765 1.428,6.201 2.628,5.540 4.384 C 5.182 5.335,5.182 6.665,5.540 7.616 C 6.042 8.949,7.049 9.958,8.376 10.457 C 9.340 10.820,10.660 10.820,11.624 10.457 C 12.951 9.958,13.958 8.949,14.460 7.616 C 14.819 6.661,14.818 5.336,14.457 4.376 C 14.196 3.681,13.789 3.065,13.256 2.559 C 12.268 1.621,10.977 1.173,9.580 1.284 M10.980 2.894 C 11.508 3.068,11.854 3.286,12.284 3.716 C 12.712 4.143,12.928 4.485,13.108 5.020 C 13.209 5.316,13.217 5.389,13.217 6.000 C 13.217 6.611,13.209 6.684,13.108 6.980 C 12.928 7.515,12.712 7.857,12.284 8.284 C 11.857 8.712,11.515 8.928,10.980 9.108 C 10.684 9.209,10.611 9.217,10.000 9.217 C 9.389 9.217,9.316 9.209,9.020 9.108 C 8.485 8.928,8.143 8.712,7.716 8.284 C 7.288 7.857,7.072 7.515,6.892 6.980 C 6.791 6.684,6.783 6.611,6.783 6.000 C 6.783 5.389,6.791 5.316,6.892 5.020 C 7.072 4.485,7.288 4.143,7.716 3.716 C 8.433 2.999,9.066 2.750,10.100 2.775 C 10.572 2.787,10.710 2.806,10.980 2.894 M17.280 7.264 C 16.255 7.430,15.619 7.985,15.357 8.939 C 15.254 9.316,15.236 9.871,15.315 10.200 C 15.396 10.535,15.647 11.022,15.937 11.405 C 16.443 12.074,17.631 13.083,18.280 13.396 C 18.566 13.533,18.600 13.540,19.000 13.540 C 19.400 13.540,19.434 13.533,19.720 13.396 C 19.885 13.316,20.240 13.086,20.508 12.884 C 21.461 12.166,22.156 11.409,22.478 10.740 C 22.679 10.322,22.739 10.060,22.734 9.619 C 22.724 8.693,22.267 7.888,21.540 7.514 C 21.192 7.335,20.907 7.266,20.520 7.267 C 20.094 7.268,19.794 7.340,19.370 7.544 L 19.000 7.722 18.630 7.544 C 18.186 7.331,17.608 7.211,17.280 7.264 M17.888 8.839 C 18.005 8.883,18.213 9.010,18.351 9.122 C 18.875 9.546,19.125 9.546,19.649 9.122 C 19.975 8.858,20.264 8.747,20.571 8.769 C 20.973 8.797,21.195 9.066,21.231 9.566 C 21.250 9.823,21.241 9.863,21.106 10.135 C 20.929 10.494,20.447 11.020,19.871 11.484 C 19.295 11.946,19.062 12.094,18.951 12.066 C 18.778 12.022,17.979 11.384,17.518 10.923 C 16.951 10.356,16.760 10.028,16.760 9.625 C 16.761 9.362,16.880 9.041,17.025 8.912 C 17.215 8.744,17.557 8.715,17.888 8.839 M9.520 12.268 C 6.642 12.352,3.993 13.295,2.518 14.760 C 1.739 15.533,1.344 16.337,1.261 17.320 C 1.233 17.656,1.296 18.851,1.361 19.220 C 1.682 21.025,3.082 22.051,5.804 22.476 C 7.191 22.693,9.323 22.791,11.190 22.724 C 14.855 22.591,16.709 22.091,17.789 20.943 C 18.494 20.194,18.722 19.429,18.731 17.782 C 18.735 17.167,18.723 17.009,18.649 16.712 C 18.128 14.614,15.625 12.950,12.200 12.423 C 11.463 12.310,10.325 12.244,9.520 12.268 M11.740 13.858 C 13.791 14.156,15.480 14.868,16.440 15.839 C 16.823 16.227,17.043 16.571,17.167 16.975 C 17.244 17.227,17.249 17.314,17.229 18.055 C 17.205 18.941,17.163 19.174,16.953 19.568 C 16.534 20.354,15.421 20.826,13.400 21.076 C 12.426 21.197,11.525 21.240,10.000 21.240 C 8.475 21.240,7.574 21.197,6.600 21.076 C 4.579 20.826,3.466 20.354,3.047 19.568 C 2.837 19.174,2.795 18.941,2.771 18.055 C 2.751 17.314,2.756 17.227,2.833 16.975 C 2.957 16.571,3.177 16.227,3.560 15.839 C 4.639 14.747,6.531 14.025,8.940 13.784 C 9.337 13.745,11.320 13.797,11.740 13.858 " stroke="none" fill-rule="evenodd" fill="black"></path></svg>