<svg width="24" height="24" viewBox="0 0 24 24" fill="none" xmlns="http://www.w3.org/2000/svg"><path d="M10.580 1.284 C 8.765 1.428,7.201 2.628,6.540 4.384 C 6.182 5.335,6.182 6.665,6.540 7.616 C 7.042 8.949,8.049 9.958,9.376 10.457 C 10.340 10.820,11.660 10.820,12.624 10.457 C 13.951 9.958,14.958 8.949,15.460 7.616 C 15.819 6.661,15.818 5.336,15.457 4.376 C 15.196 3.681,14.789 3.065,14.256 2.559 C 13.268 1.621,11.977 1.173,10.580 1.284 M11.980 2.894 C 12.508 3.068,12.854 3.286,13.284 3.716 C 13.712 4.143,13.928 4.485,14.108 5.020 C 14.209 5.316,14.217 5.389,14.217 6.000 C 14.217 6.611,14.209 6.684,14.108 6.980 C 13.928 7.515,13.712 7.857,13.284 8.284 C 12.857 8.712,12.515 8.928,11.980 9.108 C 11.684 9.209,11.611 9.217,11.000 9.217 C 10.389 9.217,10.316 9.209,10.020 9.108 C 9.485 8.928,9.143 8.712,8.716 8.284 C 8.288 7.857,8.072 7.515,7.892 6.980 C 7.791 6.684,7.783 6.611,7.783 6.000 C 7.783 5.389,7.791 5.316,7.892 5.020 C 8.072 4.485,8.288 4.143,8.716 3.716 C 9.433 2.999,10.066 2.750,11.100 2.775 C 11.572 2.787,11.710 2.806,11.980 2.894 M20.720 7.805 C 20.573 7.864,20.527 7.911,19.352 9.230 L 18.274 10.441 17.847 10.054 C 17.389 9.640,17.253 9.560,17.004 9.560 C 16.716 9.560,16.469 9.714,16.331 9.979 C 16.250 10.134,16.251 10.468,16.333 10.626 C 16.428 10.811,17.763 12.034,18.008 12.163 C 18.208 12.267,18.467 12.262,18.673 12.150 C 18.789 12.087,19.258 11.588,20.224 10.500 C 20.985 9.643,21.636 8.887,21.670 8.821 C 21.749 8.668,21.749 8.332,21.669 8.179 C 21.588 8.024,21.409 7.856,21.267 7.803 C 21.129 7.750,20.854 7.751,20.720 7.805 M10.520 12.268 C 7.642 12.352,4.993 13.295,3.518 14.760 C 2.739 15.533,2.344 16.337,2.261 17.320 C 2.233 17.656,2.296 18.851,2.361 19.220 C 2.682 21.025,4.082 22.051,6.804 22.476 C 8.191 22.693,10.323 22.791,12.190 22.724 C 15.855 22.591,17.709 22.091,18.789 20.943 C 19.494 20.194,19.722 19.429,19.731 17.782 C 19.735 17.167,19.723 17.009,19.649 16.712 C 19.128 14.614,16.625 12.950,13.200 12.423 C 12.463 12.310,11.325 12.244,10.520 12.268 M12.740 13.858 C 14.791 14.156,16.480 14.868,17.440 15.839 C 17.823 16.227,18.043 16.571,18.167 16.975 C 18.244 17.227,18.249 17.314,18.229 18.055 C 18.205 18.941,18.163 19.174,17.953 19.568 C 17.534 20.354,16.421 20.826,14.400 21.076 C 13.426 21.197,12.525 21.240,11.000 21.240 C 9.475 21.240,8.574 21.197,7.600 21.076 C 5.579 20.826,4.466 20.354,4.047 19.568 C 3.837 19.174,3.795 18.941,3.771 18.055 C 3.751 17.314,3.756 17.227,3.833 16.975 C 3.957 16.571,4.177 16.227,4.560 15.839 C 5.639 14.747,7.531 14.025,9.940 13.784 C 10.337 13.745,12.320 13.797,12.740 13.858 " stroke="none" fill-rule="evenodd" fill="black"></path></svg>