<svg width="24" height="24" viewBox="0 0 24 24" fill="none" xmlns="http://www.w3.org/2000/svg"><path d="M11.580 1.284 C 9.765 1.428,8.201 2.628,7.540 4.384 C 7.182 5.335,7.182 6.665,7.540 7.616 C 8.042 8.949,9.049 9.958,10.376 10.457 C 11.340 10.820,12.660 10.820,13.624 10.457 C 14.951 9.958,15.958 8.949,16.460 7.616 C 16.819 6.661,16.818 5.336,16.457 4.376 C 16.196 3.681,15.789 3.065,15.256 2.559 C 14.268 1.621,12.977 1.173,11.580 1.284 M12.980 2.894 C 13.508 3.068,13.854 3.286,14.284 3.716 C 14.712 4.143,14.928 4.485,15.108 5.020 C 15.209 5.316,15.217 5.389,15.217 6.000 C 15.217 6.611,15.209 6.684,15.108 6.980 C 14.928 7.515,14.712 7.857,14.284 8.284 C 13.857 8.712,13.515 8.928,12.980 9.108 C 12.684 9.209,12.611 9.217,12.000 9.217 C 11.389 9.217,11.316 9.209,11.020 9.108 C 10.485 8.928,10.143 8.712,9.716 8.284 C 9.288 7.857,9.072 7.515,8.892 6.980 C 8.791 6.684,8.783 6.611,8.783 6.000 C 8.783 5.389,8.791 5.316,8.892 5.020 C 9.072 4.485,9.288 4.143,9.716 3.716 C 10.433 2.999,11.066 2.750,12.100 2.775 C 12.572 2.787,12.710 2.806,12.980 2.894 M7.580 12.281 C 6.879 12.352,6.334 12.544,5.766 12.920 C 5.096 13.365,4.624 13.897,4.293 14.580 C 4.008 15.169,3.949 15.505,3.580 18.664 C 3.211 21.823,3.215 21.718,3.452 21.987 C 3.731 22.305,4.193 22.332,4.494 22.047 C 4.556 21.988,4.634 21.889,4.666 21.827 C 4.704 21.754,4.844 20.698,5.061 18.847 C 5.247 17.270,5.426 15.868,5.459 15.730 C 5.592 15.192,5.888 14.723,6.326 14.358 C 6.556 14.167,7.071 13.880,7.184 13.880 C 7.218 13.880,7.236 14.652,7.253 16.850 C 7.275 19.755,7.296 20.240,7.418 20.720 C 7.694 21.808,8.365 22.420,9.520 22.638 C 9.986 22.725,11.946 22.773,13.130 22.725 C 14.337 22.676,14.527 22.653,15.008 22.496 C 15.898 22.205,16.446 21.520,16.640 20.460 C 16.715 20.045,16.757 18.541,16.758 16.170 C 16.760 14.338,16.770 13.880,16.811 13.880 C 16.929 13.880,17.439 14.163,17.674 14.358 C 18.112 14.723,18.408 15.192,18.541 15.730 C 18.574 15.868,18.753 17.270,18.939 18.847 C 19.156 20.698,19.296 21.754,19.334 21.827 C 19.583 22.305,20.198 22.386,20.548 21.987 C 20.785 21.718,20.789 21.823,20.420 18.664 C 20.196 16.745,20.049 15.639,19.982 15.360 C 19.627 13.882,18.411 12.693,16.901 12.347 C 16.550 12.267,16.426 12.265,12.220 12.257 C 9.844 12.253,7.756 12.263,7.580 12.281 M15.228 16.910 C 15.217 19.087,15.198 20.122,15.166 20.260 C 15.141 20.370,15.070 20.559,15.009 20.679 C 14.916 20.863,14.863 20.916,14.679 21.009 C 14.287 21.208,14.139 21.220,12.000 21.220 C 9.861 21.220,9.713 21.208,9.321 21.009 C 9.137 20.916,9.084 20.863,8.991 20.679 C 8.930 20.559,8.859 20.370,8.834 20.260 C 8.802 20.122,8.783 19.087,8.772 16.910 L 8.756 13.760 12.000 13.760 L 15.244 13.760 15.228 16.910 " stroke="none" fill-rule="evenodd" fill="black"></path></svg>