<svg width="24" height="24" viewBox="0 0 24 24" fill="none" xmlns="http://www.w3.org/2000/svg"><path d="M11.580 1.284 C 9.765 1.428,8.201 2.628,7.540 4.384 C 7.182 5.335,7.182 6.665,7.540 7.616 C 8.042 8.949,9.049 9.958,10.376 10.457 C 11.340 10.820,12.660 10.820,13.624 10.457 C 14.951 9.958,15.958 8.949,16.460 7.616 C 16.819 6.661,16.818 5.336,16.457 4.376 C 16.196 3.681,15.789 3.065,15.256 2.559 C 14.268 1.621,12.977 1.173,11.580 1.284 M12.980 2.894 C 13.508 3.068,13.854 3.286,14.284 3.716 C 14.712 4.143,14.928 4.485,15.108 5.020 C 15.209 5.316,15.217 5.389,15.217 6.000 C 15.217 6.611,15.209 6.684,15.108 6.980 C 14.928 7.515,14.712 7.857,14.284 8.284 C 13.857 8.712,13.515 8.928,12.980 9.108 C 12.684 9.209,12.611 9.217,12.000 9.217 C 11.389 9.217,11.316 9.209,11.020 9.108 C 10.485 8.928,10.143 8.712,9.716 8.284 C 9.288 7.857,9.072 7.515,8.892 6.980 C 8.791 6.684,8.783 6.611,8.783 6.000 C 8.783 5.389,8.791 5.316,8.892 5.020 C 9.072 4.485,9.288 4.143,9.716 3.716 C 10.433 2.999,11.066 2.750,12.100 2.775 C 12.572 2.787,12.710 2.806,12.980 2.894 M11.273 12.282 C 9.773 12.361,8.378 12.700,7.180 13.279 C 5.425 14.127,4.435 15.295,4.278 16.698 C 4.229 17.141,4.284 18.248,4.378 18.687 C 4.603 19.743,5.303 20.531,6.440 21.006 C 7.496 21.448,8.738 21.643,11.000 21.725 C 12.547 21.781,13.198 21.746,13.415 21.598 C 13.615 21.461,13.731 21.234,13.731 20.983 C 13.731 20.644,13.525 20.368,13.208 20.282 C 13.127 20.260,12.367 20.234,11.520 20.224 C 10.673 20.215,9.791 20.187,9.560 20.163 C 7.787 19.981,6.691 19.636,6.218 19.112 C 6.017 18.890,5.850 18.516,5.802 18.180 C 5.733 17.701,5.751 16.733,5.834 16.495 C 6.191 15.459,7.558 14.523,9.382 14.063 C 10.156 13.868,10.726 13.796,11.686 13.772 C 12.950 13.740,13.834 13.843,14.916 14.149 C 15.483 14.309,15.672 14.309,15.916 14.147 C 16.199 13.960,16.323 13.520,16.175 13.228 C 16.030 12.942,15.897 12.863,15.260 12.688 C 14.016 12.346,12.671 12.209,11.273 12.282 M17.760 15.268 C 16.460 15.358,15.330 16.080,14.719 17.212 C 14.400 17.803,14.271 18.320,14.271 19.000 C 14.271 19.680,14.400 20.197,14.719 20.788 C 15.118 21.527,15.658 22.029,16.452 22.400 C 17.040 22.675,17.707 22.785,18.365 22.717 C 18.846 22.668,19.150 22.586,19.548 22.400 C 20.342 22.029,20.882 21.527,21.281 20.788 C 21.600 20.197,21.729 19.680,21.729 19.000 C 21.729 18.320,21.600 17.803,21.281 17.212 C 20.832 16.380,20.123 15.780,19.214 15.462 C 18.803 15.319,18.198 15.238,17.760 15.268 M18.575 16.820 C 19.046 16.943,19.145 16.794,17.478 18.462 C 16.657 19.283,15.972 19.947,15.956 19.938 C 15.814 19.850,15.712 18.926,15.798 18.509 C 15.955 17.754,16.648 17.027,17.404 16.823 C 17.690 16.746,18.285 16.745,18.575 16.820 M20.140 18.270 C 20.230 18.520,20.264 19.194,20.202 19.491 C 20.043 20.256,19.348 20.978,18.578 21.179 C 18.278 21.257,17.723 21.257,17.425 21.180 C 16.954 21.057,16.855 21.206,18.522 19.538 C 19.343 18.717,20.028 18.053,20.044 18.062 C 20.060 18.072,20.103 18.166,20.140 18.270 " stroke="none" fill-rule="evenodd" fill="black"></path></svg>