<svg width="24" height="24" viewBox="0 0 24 24" fill="none" xmlns="http://www.w3.org/2000/svg"><path d="M9.580 1.284 C 7.765 1.428,6.201 2.628,5.540 4.384 C 5.182 5.335,5.182 6.665,5.540 7.616 C 6.042 8.949,7.049 9.958,8.376 10.457 C 9.340 10.820,10.660 10.820,11.624 10.457 C 12.951 9.958,13.958 8.949,14.460 7.616 C 14.819 6.661,14.818 5.336,14.457 4.376 C 14.196 3.681,13.789 3.065,13.256 2.559 C 12.268 1.621,10.977 1.173,9.580 1.284 M10.980 2.894 C 11.508 3.068,11.854 3.286,12.284 3.716 C 12.712 4.143,12.928 4.485,13.108 5.020 C 13.209 5.316,13.217 5.389,13.217 6.000 C 13.217 6.611,13.209 6.684,13.108 6.980 C 12.928 7.515,12.712 7.857,12.284 8.284 C 11.857 8.712,11.515 8.928,10.980 9.108 C 10.684 9.209,10.611 9.217,10.000 9.217 C 9.389 9.217,9.316 9.209,9.020 9.108 C 8.485 8.928,8.143 8.712,7.716 8.284 C 7.288 7.857,7.072 7.515,6.892 6.980 C 6.791 6.684,6.783 6.611,6.783 6.000 C 6.783 5.389,6.791 5.316,6.892 5.020 C 7.072 4.485,7.288 4.143,7.716 3.716 C 8.433 2.999,9.066 2.750,10.100 2.775 C 10.572 2.787,10.710 2.806,10.980 2.894 M17.260 7.263 C 17.216 7.273,17.081 7.301,16.960 7.325 C 16.229 7.473,15.615 8.075,15.366 8.887 C 15.034 9.972,15.406 10.980,16.546 12.081 C 17.230 12.742,18.058 13.346,18.467 13.482 C 18.799 13.593,19.215 13.594,19.529 13.484 C 20.148 13.269,21.505 12.154,22.091 11.380 C 22.574 10.741,22.790 10.111,22.741 9.487 C 22.656 8.389,22.000 7.552,21.040 7.317 C 20.770 7.251,20.249 7.252,19.957 7.318 C 19.838 7.345,19.573 7.447,19.370 7.545 L 19.000 7.722 18.630 7.545 C 18.427 7.447,18.170 7.349,18.060 7.325 C 17.818 7.274,17.370 7.239,17.260 7.263 M17.972 8.876 C 18.077 8.927,18.262 9.049,18.381 9.146 C 18.860 9.536,19.140 9.536,19.619 9.146 C 19.924 8.898,20.174 8.785,20.460 8.769 C 20.764 8.751,20.937 8.839,21.094 9.092 C 21.229 9.308,21.279 9.700,21.203 9.931 C 21.074 10.320,20.534 10.951,19.879 11.475 C 19.290 11.947,19.060 12.094,18.952 12.066 C 18.816 12.031,18.053 11.445,17.662 11.075 C 17.267 10.701,16.990 10.350,16.849 10.045 C 16.653 9.621,16.805 9.026,17.160 8.832 C 17.348 8.729,17.710 8.749,17.972 8.876 M9.273 12.282 C 8.226 12.337,7.085 12.552,6.160 12.866 C 5.609 13.053,4.709 13.491,4.269 13.785 C 2.602 14.900,1.919 16.469,2.428 18.010 C 2.928 19.521,4.709 20.821,7.073 21.397 C 9.243 21.926,11.803 21.826,13.840 21.134 C 14.391 20.947,15.291 20.509,15.731 20.215 C 17.398 19.100,18.081 17.531,17.572 15.990 C 17.072 14.478,15.292 13.181,12.922 12.602 C 11.808 12.330,10.509 12.216,9.273 12.282 M11.720 13.878 C 14.060 14.274,15.761 15.281,16.166 16.508 C 16.540 17.642,15.550 18.868,13.669 19.601 C 12.879 19.909,12.000 20.113,11.089 20.199 C 10.539 20.251,9.461 20.251,8.911 20.199 C 6.387 19.960,4.299 18.852,3.834 17.505 C 3.740 17.235,3.740 16.765,3.834 16.495 C 4.246 15.303,5.955 14.277,8.160 13.899 C 8.825 13.785,9.156 13.765,10.200 13.779 C 11.007 13.790,11.324 13.811,11.720 13.878 " fill="#1C274C" stroke="none" fill-rule="evenodd"></path></svg>