<svg width="24" height="24" viewBox="0 0 24 24" fill="none" xmlns="http://www.w3.org/2000/svg"><path d="M11.310 1.283 C 6.653 1.563,2.667 4.904,1.564 9.450 C 1.162 11.110,1.162 12.890,1.564 14.550 C 2.415 18.060,5.032 20.948,8.442 22.139 C 10.725 22.937,13.275 22.937,15.558 22.139 C 18.633 21.065,21.092 18.592,22.157 15.503 C 22.819 13.585,22.918 11.437,22.436 9.450 C 21.419 5.255,17.924 2.044,13.657 1.383 C 13.303 1.328,12.042 1.231,11.880 1.246 C 11.847 1.249,11.590 1.266,11.310 1.283 M12.992 2.802 C 14.750 2.993,16.561 3.756,17.878 4.859 C 18.914 5.728,19.725 6.758,20.304 7.940 C 21.221 9.812,21.478 11.940,21.034 13.998 C 20.760 15.271,20.034 16.795,19.240 17.760 C 18.900 18.174,18.558 18.521,18.541 18.468 C 18.533 18.442,18.496 18.285,18.458 18.120 C 18.191 16.958,17.540 15.953,16.680 15.373 C 15.548 14.610,14.109 14.271,12.000 14.271 C 9.891 14.271,8.452 14.610,7.320 15.373 C 6.460 15.953,5.809 16.958,5.542 18.120 C 5.504 18.285,5.467 18.442,5.459 18.468 C 5.442 18.521,5.100 18.174,4.760 17.760 C 3.966 16.795,3.240 15.271,2.966 13.998 C 2.689 12.717,2.689 11.283,2.966 10.002 C 3.253 8.667,3.978 7.178,4.847 6.140 C 5.196 5.722,5.821 5.101,6.213 4.783 C 7.491 3.743,9.284 2.994,10.940 2.807 C 11.397 2.755,12.535 2.753,12.992 2.802 M11.760 5.268 C 10.880 5.329,10.052 5.691,9.406 6.297 C 8.884 6.787,8.454 7.588,8.319 8.320 C 8.257 8.654,8.257 9.346,8.319 9.680 C 8.459 10.440,8.898 11.240,9.454 11.747 C 9.871 12.129,10.516 12.486,11.025 12.617 C 11.619 12.770,12.381 12.770,12.975 12.617 C 13.484 12.486,14.129 12.129,14.546 11.747 C 15.102 11.240,15.541 10.440,15.681 9.680 C 15.743 9.346,15.743 8.654,15.681 8.320 C 15.546 7.588,15.116 6.787,14.594 6.297 C 13.832 5.582,12.776 5.198,11.760 5.268 M12.578 6.821 C 12.949 6.918,13.274 7.112,13.581 7.419 C 14.041 7.879,14.240 8.356,14.240 9.000 C 14.240 9.644,14.041 10.121,13.581 10.581 C 13.121 11.041,12.644 11.240,12.000 11.240 C 11.356 11.240,10.879 11.041,10.419 10.581 C 9.959 10.121,9.760 9.644,9.760 9.000 C 9.760 8.356,9.959 7.879,10.419 7.419 C 10.719 7.118,11.050 6.919,11.404 6.823 C 11.692 6.746,12.285 6.745,12.578 6.821 M13.700 15.856 C 15.352 16.140,16.222 16.654,16.720 17.640 C 16.923 18.042,17.086 18.688,17.179 19.460 L 17.204 19.660 16.932 19.833 C 16.170 20.320,14.896 20.841,13.998 21.034 C 12.717 21.311,11.283 21.311,10.002 21.034 C 9.104 20.841,7.830 20.320,7.068 19.833 L 6.796 19.660 6.821 19.460 C 7.011 17.886,7.419 17.077,8.303 16.514 C 8.876 16.150,9.820 15.888,10.940 15.783 C 11.355 15.744,13.357 15.797,13.700 15.856 " stroke="none" fill-rule="evenodd" fill="black"></path></svg>