<svg width="24" height="24" viewBox="0 0 24 24" fill="none" xmlns="http://www.w3.org/2000/svg"><path d="M8.580 1.284 C 6.765 1.428,5.201 2.628,4.540 4.384 C 4.182 5.335,4.182 6.665,4.540 7.616 C 5.042 8.949,6.049 9.958,7.376 10.457 C 8.340 10.820,9.660 10.820,10.624 10.457 C 11.951 9.958,12.958 8.949,13.460 7.616 C 13.819 6.661,13.818 5.336,13.457 4.376 C 13.196 3.681,12.789 3.065,12.256 2.559 C 11.268 1.621,9.977 1.173,8.580 1.284 M14.826 2.286 C 14.189 2.428,14.053 3.289,14.613 3.636 C 14.713 3.697,14.862 3.732,15.150 3.759 C 15.789 3.820,16.260 4.047,16.661 4.486 C 17.053 4.916,17.240 5.405,17.240 6.000 C 17.240 6.595,17.053 7.084,16.661 7.514 C 16.265 7.948,15.796 8.176,15.168 8.241 C 14.715 8.288,14.544 8.364,14.383 8.592 C 14.161 8.906,14.246 9.377,14.566 9.604 C 14.747 9.733,14.939 9.761,15.355 9.718 C 15.846 9.668,16.148 9.587,16.548 9.400 C 17.342 9.029,17.882 8.527,18.281 7.788 C 18.600 7.197,18.729 6.680,18.729 6.000 C 18.729 5.320,18.600 4.803,18.281 4.212 C 17.832 3.380,17.123 2.780,16.214 2.462 C 15.772 2.308,15.108 2.224,14.826 2.286 M9.980 2.894 C 10.508 3.068,10.854 3.286,11.284 3.716 C 11.712 4.143,11.928 4.485,12.108 5.020 C 12.209 5.316,12.217 5.389,12.217 6.000 C 12.217 6.611,12.209 6.684,12.108 6.980 C 11.928 7.515,11.712 7.857,11.284 8.284 C 10.857 8.712,10.515 8.928,9.980 9.108 C 9.684 9.209,9.611 9.217,9.000 9.217 C 8.389 9.217,8.316 9.209,8.020 9.108 C 7.485 8.928,7.143 8.712,6.716 8.284 C 6.288 7.857,6.072 7.515,5.892 6.980 C 5.791 6.684,5.783 6.611,5.783 6.000 C 5.783 5.389,5.791 5.316,5.892 5.020 C 6.072 4.485,6.288 4.143,6.716 3.716 C 7.433 2.999,8.066 2.750,9.100 2.775 C 9.572 2.787,9.710 2.806,9.980 2.894 M8.273 12.282 C 7.226 12.337,6.085 12.552,5.160 12.866 C 4.609 13.053,3.709 13.491,3.269 13.785 C 1.602 14.900,0.919 16.469,1.428 18.010 C 1.928 19.521,3.709 20.821,6.073 21.397 C 8.243 21.926,10.803 21.826,12.840 21.134 C 13.391 20.947,14.291 20.509,14.731 20.215 C 16.398 19.100,17.081 17.531,16.572 15.990 C 16.072 14.478,14.292 13.181,11.922 12.602 C 10.808 12.330,9.509 12.216,8.273 12.282 M17.860 13.277 C 17.335 13.405,17.098 13.940,17.368 14.389 C 17.485 14.585,17.618 14.659,18.097 14.797 C 18.942 15.041,19.513 15.346,19.892 15.754 C 20.397 16.298,20.356 16.823,19.767 17.364 C 19.447 17.657,19.078 17.867,18.540 18.064 C 18.053 18.243,17.951 18.311,17.843 18.533 C 17.614 19.007,17.909 19.549,18.419 19.592 C 18.801 19.623,19.619 19.302,20.283 18.860 C 20.708 18.577,21.180 18.106,21.390 17.753 C 21.743 17.163,21.830 16.423,21.626 15.752 C 21.409 15.037,20.608 14.235,19.654 13.776 C 19.299 13.605,18.771 13.421,18.345 13.318 C 18.166 13.276,18.011 13.242,18.000 13.244 C 17.989 13.246,17.926 13.261,17.860 13.277 M10.720 13.878 C 13.060 14.274,14.761 15.281,15.166 16.508 C 15.540 17.642,14.550 18.868,12.669 19.601 C 11.879 19.909,11.000 20.113,10.089 20.199 C 9.539 20.251,8.461 20.251,7.911 20.199 C 5.387 19.960,3.299 18.852,2.834 17.505 C 2.740 17.235,2.740 16.765,2.834 16.495 C 3.246 15.303,4.955 14.277,7.160 13.899 C 7.825 13.785,8.156 13.765,9.200 13.779 C 10.007 13.790,10.324 13.811,10.720 13.878 " stroke="none" fill-rule="evenodd" fill="black"></path></svg>