<svg width="24" height="24" viewBox="0 0 24 24" fill="none" xmlns="http://www.w3.org/2000/svg"><path d="M11.580 1.284 C 9.765 1.428,8.201 2.628,7.540 4.384 C 7.182 5.335,7.182 6.665,7.540 7.616 C 8.042 8.949,9.049 9.958,10.376 10.457 C 11.340 10.820,12.660 10.820,13.624 10.457 C 14.951 9.958,15.958 8.949,16.460 7.616 C 16.819 6.661,16.818 5.336,16.457 4.376 C 16.196 3.681,15.789 3.065,15.256 2.559 C 14.268 1.621,12.977 1.173,11.580 1.284 M12.980 2.894 C 13.508 3.068,13.854 3.286,14.284 3.716 C 14.712 4.143,14.928 4.485,15.108 5.020 C 15.209 5.316,15.217 5.389,15.217 6.000 C 15.217 6.611,15.209 6.684,15.108 6.980 C 14.928 7.515,14.712 7.857,14.284 8.284 C 13.857 8.712,13.515 8.928,12.980 9.108 C 12.684 9.209,12.611 9.217,12.000 9.217 C 11.389 9.217,11.316 9.209,11.020 9.108 C 10.485 8.928,10.143 8.712,9.716 8.284 C 9.288 7.857,9.072 7.515,8.892 6.980 C 8.791 6.684,8.783 6.611,8.783 6.000 C 8.783 5.389,8.791 5.316,8.892 5.020 C 9.072 4.485,9.288 4.143,9.716 3.716 C 10.433 2.999,11.066 2.750,12.100 2.775 C 12.572 2.787,12.710 2.806,12.980 2.894 M11.273 12.282 C 10.226 12.337,9.085 12.552,8.160 12.866 C 7.609 13.053,6.709 13.491,6.269 13.785 C 4.602 14.900,3.919 16.469,4.428 18.010 C 4.928 19.521,6.709 20.821,9.073 21.397 C 11.243 21.926,13.803 21.826,15.840 21.134 C 16.391 20.947,17.291 20.509,17.731 20.215 C 19.398 19.100,20.081 17.531,19.572 15.990 C 19.072 14.478,17.292 13.181,14.922 12.602 C 13.808 12.330,12.509 12.216,11.273 12.282 M13.720 13.878 C 16.060 14.274,17.761 15.281,18.166 16.508 C 18.540 17.642,17.550 18.868,15.669 19.601 C 14.879 19.909,14.000 20.113,13.089 20.199 C 12.539 20.251,11.461 20.251,10.911 20.199 C 8.387 19.960,6.299 18.852,5.834 17.505 C 5.740 17.235,5.740 16.765,5.834 16.495 C 6.246 15.303,7.955 14.277,10.160 13.899 C 10.825 13.785,11.156 13.765,12.200 13.779 C 13.007 13.790,13.324 13.811,13.720 13.878 " stroke="none" fill="black" fill-rule="evenodd"></path></svg>