<svg width="24" height="24" viewBox="0 0 24 24" fill="none" xmlns="http://www.w3.org/2000/svg"><path d="M11.580 1.284 C 9.765 1.428,8.201 2.628,7.540 4.384 C 7.182 5.335,7.182 6.665,7.540 7.616 C 8.042 8.949,9.049 9.958,10.376 10.457 C 11.340 10.820,12.660 10.820,13.624 10.457 C 14.951 9.958,15.958 8.949,16.460 7.616 C 16.819 6.661,16.818 5.336,16.457 4.376 C 16.196 3.681,15.789 3.065,15.256 2.559 C 14.268 1.621,12.977 1.173,11.580 1.284 M12.980 2.894 C 13.508 3.068,13.854 3.286,14.284 3.716 C 14.712 4.143,14.928 4.485,15.108 5.020 C 15.209 5.316,15.217 5.389,15.217 6.000 C 15.217 6.611,15.209 6.684,15.108 6.980 C 14.928 7.515,14.712 7.857,14.284 8.284 C 13.857 8.712,13.515 8.928,12.980 9.108 C 12.684 9.209,12.611 9.217,12.000 9.217 C 11.389 9.217,11.316 9.209,11.020 9.108 C 10.485 8.928,10.143 8.712,9.716 8.284 C 9.288 7.857,9.072 7.515,8.892 6.980 C 8.791 6.684,8.783 6.611,8.783 6.000 C 8.783 5.389,8.791 5.316,8.892 5.020 C 9.072 4.485,9.288 4.143,9.716 3.716 C 10.433 2.999,11.066 2.750,12.100 2.775 C 12.572 2.787,12.710 2.806,12.980 2.894 M11.273 12.283 C 9.775 12.360,8.378 12.700,7.180 13.279 C 5.447 14.117,4.438 15.293,4.283 16.656 C 4.132 17.980,4.849 19.265,6.269 20.215 C 6.709 20.509,7.609 20.947,8.160 21.134 C 10.364 21.883,13.122 21.938,15.388 21.278 C 15.887 21.132,15.981 21.089,16.127 20.934 C 16.339 20.710,16.380 20.388,16.235 20.089 C 16.142 19.898,15.992 19.785,15.740 19.715 C 15.598 19.676,15.522 19.687,15.080 19.814 C 14.019 20.119,13.162 20.240,12.060 20.240 C 11.664 20.240,11.147 20.222,10.911 20.199 C 8.387 19.960,6.299 18.852,5.834 17.505 C 5.740 17.235,5.740 16.765,5.834 16.495 C 6.191 15.459,7.558 14.523,9.382 14.063 C 10.164 13.866,10.725 13.795,11.703 13.772 C 13.146 13.736,14.124 13.871,15.320 14.268 C 16.158 14.547,16.831 14.916,17.380 15.400 C 17.534 15.536,17.718 15.673,17.789 15.704 C 18.101 15.841,18.523 15.715,18.713 15.428 C 18.800 15.296,18.820 15.220,18.819 15.023 C 18.818 14.729,18.742 14.602,18.360 14.262 C 17.317 13.335,15.696 12.664,13.812 12.382 C 13.460 12.329,12.094 12.231,11.920 12.247 C 11.887 12.250,11.596 12.266,11.273 12.283 M20.805 16.285 C 20.730 16.307,20.627 16.353,20.575 16.387 C 20.523 16.421,20.137 16.879,19.716 17.404 L 18.952 18.360 18.686 18.115 C 18.387 17.839,18.235 17.760,18.004 17.760 C 17.716 17.760,17.469 17.914,17.331 18.179 C 17.247 18.340,17.252 18.669,17.340 18.841 C 17.424 19.003,18.338 19.946,18.562 20.101 C 18.833 20.289,19.215 20.283,19.447 20.088 C 19.518 20.029,20.047 19.390,20.623 18.670 C 21.767 17.239,21.809 17.169,21.717 16.829 C 21.692 16.736,21.637 16.612,21.595 16.553 C 21.432 16.324,21.080 16.204,20.805 16.285 " stroke="none" fill-rule="evenodd" fill="black"></path></svg>