<svg width="24" height="24" viewBox="0 0 24 24" fill="none" xmlns="http://www.w3.org/2000/svg"><path d="M9.580 1.284 C 7.765 1.428,6.201 2.628,5.540 4.384 C 5.182 5.335,5.182 6.665,5.540 7.616 C 6.042 8.949,7.049 9.958,8.376 10.457 C 9.340 10.820,10.660 10.820,11.624 10.457 C 12.951 9.958,13.958 8.949,14.460 7.616 C 14.819 6.661,14.818 5.336,14.457 4.376 C 14.196 3.681,13.789 3.065,13.256 2.559 C 12.268 1.621,10.977 1.173,9.580 1.284 M10.980 2.894 C 11.508 3.068,11.854 3.286,12.284 3.716 C 12.712 4.143,12.928 4.485,13.108 5.020 C 13.209 5.316,13.217 5.389,13.217 6.000 C 13.217 6.611,13.209 6.684,13.108 6.980 C 12.928 7.515,12.712 7.857,12.284 8.284 C 11.857 8.712,11.515 8.928,10.980 9.108 C 10.684 9.209,10.611 9.217,10.000 9.217 C 9.389 9.217,9.316 9.209,9.020 9.108 C 8.485 8.928,8.143 8.712,7.716 8.284 C 7.288 7.857,7.072 7.515,6.892 6.980 C 6.791 6.684,6.783 6.611,6.783 6.000 C 6.783 5.389,6.791 5.316,6.892 5.020 C 7.072 4.485,7.288 4.143,7.716 3.716 C 8.433 2.999,9.066 2.750,10.100 2.775 C 10.572 2.787,10.710 2.806,10.980 2.894 M17.300 7.896 C 17.037 8.012,16.840 8.305,16.840 8.580 C 16.840 8.839,16.950 9.007,17.450 9.509 L 17.937 9.999 17.434 10.509 C 16.890 11.062,16.815 11.189,16.850 11.505 C 16.887 11.832,17.168 12.113,17.495 12.150 C 17.811 12.185,17.938 12.110,18.490 11.567 L 19.000 11.064 19.510 11.567 C 20.062 12.110,20.189 12.185,20.505 12.150 C 20.832 12.113,21.113 11.832,21.150 11.505 C 21.185 11.189,21.110 11.062,20.567 10.510 L 20.064 10.000 20.567 9.490 C 21.110 8.938,21.185 8.811,21.150 8.495 C 21.113 8.168,20.832 7.887,20.505 7.850 C 20.189 7.815,20.062 7.890,19.509 8.434 L 18.999 8.937 18.509 8.450 C 18.223 8.165,17.958 7.938,17.871 7.902 C 17.691 7.827,17.462 7.825,17.300 7.896 M9.520 12.268 C 6.642 12.352,3.993 13.295,2.518 14.760 C 1.739 15.533,1.344 16.337,1.261 17.320 C 1.233 17.656,1.296 18.851,1.361 19.220 C 1.682 21.025,3.082 22.051,5.804 22.476 C 7.191 22.693,9.323 22.791,11.190 22.724 C 14.855 22.591,16.709 22.091,17.789 20.943 C 18.494 20.194,18.722 19.429,18.731 17.782 C 18.735 17.167,18.723 17.009,18.649 16.712 C 18.128 14.614,15.625 12.950,12.200 12.423 C 11.463 12.310,10.325 12.244,9.520 12.268 M11.740 13.858 C 13.791 14.156,15.480 14.868,16.440 15.839 C 16.823 16.227,17.043 16.571,17.167 16.975 C 17.244 17.227,17.249 17.314,17.229 18.055 C 17.205 18.941,17.163 19.174,16.953 19.568 C 16.534 20.354,15.421 20.826,13.400 21.076 C 12.426 21.197,11.525 21.240,10.000 21.240 C 8.475 21.240,7.574 21.197,6.600 21.076 C 4.579 20.826,3.466 20.354,3.047 19.568 C 2.837 19.174,2.795 18.941,2.771 18.055 C 2.751 17.314,2.756 17.227,2.833 16.975 C 2.957 16.571,3.177 16.227,3.560 15.839 C 4.639 14.747,6.531 14.025,8.940 13.784 C 9.337 13.745,11.320 13.797,11.740 13.858 " stroke="none" fill-rule="evenodd" fill="black"></path></svg>