<svg width="24" height="24" viewBox="0 0 24 24" fill="none" xmlns="http://www.w3.org/2000/svg"><path d="M7.420 3.283 C 4.824 3.355,3.629 3.695,2.669 4.635 C 1.940 5.348,1.564 6.261,1.379 7.767 C 1.272 8.640,1.218 11.731,1.272 13.870 C 1.330 16.176,1.404 16.875,1.682 17.727 C 2.105 19.022,2.978 19.895,4.273 20.318 C 5.402 20.686,6.664 20.758,12.000 20.758 C 17.336 20.758,18.598 20.686,19.727 20.318 C 21.002 19.901,21.880 19.036,22.302 17.779 C 22.587 16.928,22.670 16.166,22.728 13.870 C 22.764 12.440,22.764 11.560,22.728 10.130 C 22.670 7.834,22.587 7.072,22.302 6.221 C 21.886 4.984,21.016 4.114,19.779 3.698 C 18.998 3.436,18.134 3.331,16.360 3.280 C 14.828 3.236,9.033 3.238,7.420 3.283 M17.341 4.802 C 19.644 4.953,20.523 5.467,20.939 6.901 C 21.190 7.768,21.240 8.610,21.240 12.000 C 21.240 15.383,21.190 16.233,20.941 17.093 C 20.553 18.432,19.754 18.966,17.840 19.167 C 17.116 19.244,6.884 19.244,6.160 19.167 C 3.837 18.923,3.100 18.200,2.835 15.900 C 2.769 15.326,2.739 9.675,2.798 8.740 C 2.860 7.750,2.924 7.319,3.089 6.800 C 3.509 5.473,4.423 4.948,6.560 4.805 C 7.314 4.754,16.579 4.752,17.341 4.802 M8.660 6.278 C 7.776 6.385,7.027 6.901,6.568 7.720 C 6.168 8.434,6.168 9.566,6.568 10.280 C 7.094 11.219,7.953 11.731,9.000 11.731 C 10.047 11.731,10.906 11.219,11.432 10.280 C 11.832 9.566,11.832 8.433,11.432 7.720 C 11.158 7.232,10.764 6.838,10.280 6.567 C 9.867 6.337,9.186 6.215,8.660 6.278 M9.454 7.841 C 9.744 7.950,10.050 8.256,10.159 8.546 C 10.331 9.006,10.227 9.518,9.893 9.857 C 9.594 10.159,9.446 10.220,9.000 10.220 C 8.560 10.220,8.410 10.161,8.125 9.875 C 7.876 9.627,7.790 9.433,7.769 9.080 C 7.746 8.675,7.847 8.404,8.126 8.126 C 8.479 7.773,8.983 7.665,9.454 7.841 M13.826 8.284 C 13.476 8.366,13.267 8.636,13.267 9.003 C 13.267 9.281,13.387 9.496,13.627 9.645 L 13.780 9.740 16.500 9.740 L 19.220 9.740 19.369 9.647 C 19.943 9.290,19.812 8.424,19.162 8.284 C 18.909 8.230,14.057 8.230,13.826 8.284 M14.826 11.284 C 14.476 11.366,14.267 11.636,14.267 12.003 C 14.267 12.281,14.387 12.496,14.627 12.645 L 14.780 12.740 17.000 12.740 L 19.220 12.740 19.369 12.647 C 19.943 12.290,19.812 11.424,19.162 11.284 C 18.910 11.230,15.056 11.230,14.826 11.284 M8.380 12.279 C 6.648 12.393,5.219 13.022,4.602 13.944 C 4.329 14.353,4.265 14.590,4.269 15.183 C 4.273 15.924,4.420 16.371,4.787 16.764 C 5.355 17.371,6.255 17.629,8.130 17.722 C 9.086 17.770,10.420 17.725,11.140 17.621 C 12.653 17.403,13.416 16.887,13.665 15.911 C 13.705 15.756,13.729 15.485,13.731 15.182 C 13.733 14.587,13.669 14.350,13.395 13.940 C 12.634 12.802,10.613 12.133,8.380 12.279 M10.373 13.878 C 11.228 14.063,12.005 14.462,12.184 14.809 C 12.232 14.900,12.244 15.020,12.234 15.290 C 12.220 15.649,12.220 15.649,12.070 15.779 C 11.889 15.935,11.532 16.054,10.960 16.148 C 10.346 16.250,7.654 16.250,7.040 16.148 C 6.468 16.054,6.111 15.935,5.930 15.779 C 5.780 15.649,5.780 15.649,5.766 15.290 C 5.750 14.868,5.792 14.757,6.049 14.547 C 6.485 14.190,7.216 13.929,8.180 13.785 C 8.246 13.775,8.678 13.773,9.140 13.780 C 9.812 13.790,10.059 13.810,10.373 13.878 M15.826 14.284 C 15.476 14.366,15.267 14.636,15.267 15.003 C 15.267 15.281,15.387 15.496,15.627 15.645 L 15.780 15.740 17.500 15.740 L 19.220 15.740 19.369 15.647 C 19.943 15.290,19.812 14.424,19.162 14.284 C 18.912 14.230,16.055 14.231,15.826 14.284 " stroke="none" fill-rule="evenodd" fill="black"></path></svg>