<svg width="24" height="24" viewBox="0 0 24 24" fill="none" xmlns="http://www.w3.org/2000/svg"><path d="M11.580 1.284 C 9.765 1.428,8.201 2.628,7.540 4.384 C 7.182 5.335,7.182 6.665,7.540 7.616 C 8.042 8.949,9.049 9.958,10.376 10.457 C 11.340 10.820,12.660 10.820,13.624 10.457 C 14.951 9.958,15.958 8.949,16.460 7.616 C 16.819 6.661,16.818 5.336,16.457 4.376 C 16.196 3.681,15.789 3.065,15.256 2.559 C 14.268 1.621,12.977 1.173,11.580 1.284 M12.980 2.894 C 13.508 3.068,13.854 3.286,14.284 3.716 C 14.712 4.143,14.928 4.485,15.108 5.020 C 15.209 5.316,15.217 5.389,15.217 6.000 C 15.217 6.611,15.209 6.684,15.108 6.980 C 14.928 7.515,14.712 7.857,14.284 8.284 C 13.857 8.712,13.515 8.928,12.980 9.108 C 12.684 9.209,12.611 9.217,12.000 9.217 C 11.389 9.217,11.316 9.209,11.020 9.108 C 10.485 8.928,10.143 8.712,9.716 8.284 C 9.288 7.857,9.072 7.515,8.892 6.980 C 8.791 6.684,8.783 6.611,8.783 6.000 C 8.783 5.389,8.791 5.316,8.892 5.020 C 9.072 4.485,9.288 4.143,9.716 3.716 C 10.433 2.999,11.066 2.750,12.100 2.775 C 12.572 2.787,12.710 2.806,12.980 2.894 M11.273 12.282 C 9.773 12.361,8.378 12.700,7.180 13.279 C 6.020 13.840,5.234 14.504,4.722 15.357 C 4.114 16.368,4.114 17.632,4.722 18.643 C 5.234 19.496,6.020 20.160,7.180 20.721 C 8.079 21.155,8.991 21.429,10.096 21.598 C 11.259 21.775,13.015 21.783,13.345 21.613 C 13.838 21.358,13.872 20.671,13.407 20.343 L 13.242 20.226 12.311 20.235 C 11.799 20.240,11.178 20.225,10.932 20.201 C 8.386 19.959,6.301 18.857,5.834 17.505 C 5.740 17.235,5.740 16.765,5.834 16.495 C 6.191 15.459,7.558 14.523,9.382 14.063 C 10.757 13.716,12.528 13.662,13.958 13.922 C 14.493 14.019,14.646 14.019,14.838 13.921 C 15.369 13.650,15.362 12.834,14.827 12.600 C 14.320 12.378,12.518 12.217,11.273 12.282 M17.760 14.268 C 16.460 14.358,15.330 15.080,14.719 16.212 C 14.400 16.803,14.271 17.320,14.271 18.000 C 14.271 18.680,14.400 19.197,14.719 19.788 C 15.118 20.527,15.658 21.029,16.452 21.400 C 17.040 21.675,17.707 21.785,18.365 21.717 C 18.846 21.668,19.150 21.586,19.548 21.400 C 20.342 21.029,20.882 20.527,21.281 19.788 C 21.600 19.197,21.729 18.680,21.729 18.000 C 21.729 17.320,21.600 16.803,21.281 16.212 C 20.832 15.380,20.123 14.780,19.214 14.462 C 18.803 14.319,18.198 14.238,17.760 14.268 M18.575 15.820 C 19.046 15.943,19.145 15.794,17.478 17.462 C 16.657 18.283,15.972 18.947,15.956 18.938 C 15.814 18.850,15.712 17.926,15.798 17.509 C 15.955 16.754,16.648 16.027,17.404 15.823 C 17.690 15.746,18.285 15.745,18.575 15.820 M20.140 17.270 C 20.230 17.520,20.264 18.194,20.202 18.491 C 20.043 19.256,19.348 19.978,18.578 20.179 C 18.278 20.257,17.723 20.257,17.425 20.180 C 16.954 20.057,16.855 20.206,18.522 18.538 C 19.343 17.717,20.028 17.053,20.044 17.062 C 20.060 17.072,20.103 17.166,20.140 17.270 " stroke="none" fill-rule="evenodd" fill="black"></path></svg>