<svg width="24" height="24" viewBox="0 0 24 24" fill="none" xmlns="http://www.w3.org/2000/svg"><path d="M9.580 1.284 C 7.765 1.428,6.201 2.628,5.540 4.384 C 5.182 5.335,5.182 6.665,5.540 7.616 C 6.042 8.949,7.049 9.958,8.376 10.457 C 9.340 10.820,10.660 10.820,11.624 10.457 C 12.951 9.958,13.958 8.949,14.460 7.616 C 14.819 6.661,14.818 5.336,14.457 4.376 C 14.196 3.681,13.789 3.065,13.256 2.559 C 12.268 1.621,10.977 1.173,9.580 1.284 M18.801 1.287 C 18.475 1.380,18.270 1.644,18.267 1.974 C 18.264 2.254,18.369 2.454,18.616 2.639 C 19.674 3.428,20.240 4.599,20.240 6.000 C 20.240 7.401,19.674 8.572,18.616 9.361 C 18.369 9.546,18.264 9.746,18.267 10.026 C 18.270 10.369,18.476 10.622,18.830 10.717 C 19.146 10.802,19.442 10.662,19.960 10.182 C 21.238 8.998,21.853 7.369,21.716 5.530 C 21.603 4.007,21.012 2.779,19.911 1.775 C 19.437 1.343,19.109 1.199,18.801 1.287 M10.980 2.894 C 11.508 3.068,11.854 3.286,12.284 3.716 C 12.712 4.143,12.928 4.485,13.108 5.020 C 13.209 5.316,13.217 5.389,13.217 6.000 C 13.217 6.611,13.209 6.684,13.108 6.980 C 12.928 7.515,12.712 7.857,12.284 8.284 C 11.857 8.712,11.515 8.928,10.980 9.108 C 10.684 9.209,10.611 9.217,10.000 9.217 C 9.389 9.217,9.316 9.209,9.020 9.108 C 8.485 8.928,8.143 8.712,7.716 8.284 C 7.288 7.857,7.072 7.515,6.892 6.980 C 6.791 6.684,6.783 6.611,6.783 6.000 C 6.783 5.389,6.791 5.316,6.892 5.020 C 7.072 4.485,7.288 4.143,7.716 3.716 C 8.433 2.999,9.066 2.750,10.100 2.775 C 10.572 2.787,10.710 2.806,10.980 2.894 M16.801 3.287 C 16.400 3.402,16.184 3.782,16.288 4.193 C 16.326 4.345,16.386 4.429,16.612 4.640 C 16.937 4.945,17.048 5.106,17.159 5.436 C 17.317 5.906,17.243 6.548,16.983 6.953 C 16.931 7.034,16.764 7.217,16.612 7.360 C 16.385 7.573,16.326 7.654,16.287 7.809 C 16.165 8.292,16.507 8.734,17.000 8.734 C 17.244 8.734,17.445 8.630,17.751 8.343 C 18.193 7.930,18.524 7.353,18.659 6.760 C 18.751 6.361,18.751 5.639,18.659 5.240 C 18.527 4.660,18.198 4.079,17.773 3.675 C 17.408 3.328,17.096 3.203,16.801 3.287 M9.520 12.268 C 6.642 12.352,3.993 13.295,2.518 14.760 C 1.739 15.533,1.344 16.337,1.261 17.320 C 1.233 17.656,1.296 18.851,1.361 19.220 C 1.682 21.025,3.082 22.051,5.804 22.476 C 7.191 22.693,9.323 22.791,11.190 22.724 C 14.855 22.591,16.709 22.091,17.789 20.943 C 18.494 20.194,18.722 19.429,18.731 17.782 C 18.735 17.167,18.723 17.009,18.649 16.712 C 18.128 14.614,15.625 12.950,12.200 12.423 C 11.463 12.310,10.325 12.244,9.520 12.268 M11.740 13.858 C 13.791 14.156,15.480 14.868,16.440 15.839 C 16.823 16.227,17.043 16.571,17.167 16.975 C 17.244 17.227,17.249 17.314,17.229 18.055 C 17.205 18.941,17.163 19.174,16.953 19.568 C 16.534 20.354,15.421 20.826,13.400 21.076 C 12.426 21.197,11.525 21.240,10.000 21.240 C 8.475 21.240,7.574 21.197,6.600 21.076 C 4.579 20.826,3.466 20.354,3.047 19.568 C 2.837 19.174,2.795 18.941,2.771 18.055 C 2.751 17.314,2.756 17.227,2.833 16.975 C 2.957 16.571,3.177 16.227,3.560 15.839 C 4.639 14.747,6.531 14.025,8.940 13.784 C 9.337 13.745,11.320 13.797,11.740 13.858 " stroke="none" fill-rule="evenodd" fill="black"></path></svg>