<svg width="24" height="24" viewBox="0 0 24 24" fill="none" xmlns="http://www.w3.org/2000/svg"><path d="M9.580 1.284 C 7.765 1.428,6.201 2.628,5.540 4.384 C 5.182 5.335,5.182 6.665,5.540 7.616 C 6.042 8.949,7.049 9.958,8.376 10.457 C 9.340 10.820,10.660 10.820,11.624 10.457 C 12.951 9.958,13.958 8.949,14.460 7.616 C 14.819 6.661,14.818 5.336,14.457 4.376 C 14.196 3.681,13.789 3.065,13.256 2.559 C 12.268 1.621,10.977 1.173,9.580 1.284 M18.801 1.287 C 18.475 1.380,18.270 1.644,18.267 1.974 C 18.264 2.254,18.369 2.454,18.616 2.639 C 19.674 3.428,20.240 4.599,20.240 6.000 C 20.240 7.401,19.674 8.572,18.616 9.361 C 18.369 9.546,18.264 9.746,18.267 10.026 C 18.270 10.369,18.476 10.622,18.830 10.717 C 19.146 10.802,19.442 10.662,19.960 10.182 C 21.238 8.998,21.853 7.369,21.716 5.530 C 21.603 4.007,21.012 2.779,19.911 1.775 C 19.437 1.343,19.109 1.199,18.801 1.287 M10.980 2.894 C 11.508 3.068,11.854 3.286,12.284 3.716 C 12.712 4.143,12.928 4.485,13.108 5.020 C 13.209 5.316,13.217 5.389,13.217 6.000 C 13.217 6.611,13.209 6.684,13.108 6.980 C 12.928 7.515,12.712 7.857,12.284 8.284 C 11.857 8.712,11.515 8.928,10.980 9.108 C 10.684 9.209,10.611 9.217,10.000 9.217 C 9.389 9.217,9.316 9.209,9.020 9.108 C 8.485 8.928,8.143 8.712,7.716 8.284 C 7.288 7.857,7.072 7.515,6.892 6.980 C 6.791 6.684,6.783 6.611,6.783 6.000 C 6.783 5.389,6.791 5.316,6.892 5.020 C 7.072 4.485,7.288 4.143,7.716 3.716 C 8.433 2.999,9.066 2.750,10.100 2.775 C 10.572 2.787,10.710 2.806,10.980 2.894 M16.801 3.287 C 16.400 3.402,16.184 3.782,16.288 4.193 C 16.326 4.345,16.386 4.429,16.612 4.640 C 16.937 4.945,17.048 5.106,17.159 5.436 C 17.317 5.906,17.243 6.548,16.983 6.953 C 16.931 7.034,16.764 7.217,16.612 7.360 C 16.385 7.573,16.326 7.654,16.287 7.809 C 16.165 8.292,16.507 8.734,17.000 8.734 C 17.244 8.734,17.445 8.630,17.751 8.343 C 18.193 7.930,18.524 7.353,18.659 6.760 C 18.751 6.361,18.751 5.639,18.659 5.240 C 18.527 4.660,18.198 4.079,17.773 3.675 C 17.408 3.328,17.096 3.203,16.801 3.287 M9.273 12.282 C 8.226 12.337,7.085 12.552,6.160 12.866 C 5.609 13.053,4.709 13.491,4.269 13.785 C 2.602 14.900,1.919 16.469,2.428 18.010 C 2.928 19.521,4.709 20.821,7.073 21.397 C 9.243 21.926,11.803 21.826,13.840 21.134 C 14.391 20.947,15.291 20.509,15.731 20.215 C 17.398 19.100,18.081 17.531,17.572 15.990 C 17.072 14.478,15.292 13.181,12.922 12.602 C 11.808 12.330,10.509 12.216,9.273 12.282 M11.720 13.878 C 14.060 14.274,15.761 15.281,16.166 16.508 C 16.540 17.642,15.550 18.868,13.669 19.601 C 12.879 19.909,12.000 20.113,11.089 20.199 C 10.539 20.251,9.461 20.251,8.911 20.199 C 6.387 19.960,4.299 18.852,3.834 17.505 C 3.740 17.235,3.740 16.765,3.834 16.495 C 4.246 15.303,5.955 14.277,8.160 13.899 C 8.825 13.785,9.156 13.765,10.200 13.779 C 11.007 13.790,11.324 13.811,11.720 13.878 " stroke="none" fill-rule="evenodd" fill="black"></path></svg>