<svg width="24" height="24" viewBox="0 0 24 24" fill="none" xmlns="http://www.w3.org/2000/svg"><path d="M11.580 1.284 C 9.765 1.428,8.201 2.628,7.540 4.384 C 7.182 5.335,7.182 6.665,7.540 7.616 C 8.042 8.949,9.049 9.958,10.376 10.457 C 11.340 10.820,12.660 10.820,13.624 10.457 C 14.951 9.958,15.958 8.949,16.460 7.616 C 16.819 6.661,16.818 5.336,16.457 4.376 C 16.196 3.681,15.789 3.065,15.256 2.559 C 14.268 1.621,12.977 1.173,11.580 1.284 M12.980 2.894 C 13.508 3.068,13.854 3.286,14.284 3.716 C 14.712 4.143,14.928 4.485,15.108 5.020 C 15.209 5.316,15.217 5.389,15.217 6.000 C 15.217 6.611,15.209 6.684,15.108 6.980 C 14.928 7.515,14.712 7.857,14.284 8.284 C 13.857 8.712,13.515 8.928,12.980 9.108 C 12.684 9.209,12.611 9.217,12.000 9.217 C 11.389 9.217,11.316 9.209,11.020 9.108 C 10.485 8.928,10.143 8.712,9.716 8.284 C 9.288 7.857,9.072 7.515,8.892 6.980 C 8.791 6.684,8.783 6.611,8.783 6.000 C 8.783 5.389,8.791 5.316,8.892 5.020 C 9.072 4.485,9.288 4.143,9.716 3.716 C 10.433 2.999,11.066 2.750,12.100 2.775 C 12.572 2.787,12.710 2.806,12.980 2.894 M11.520 12.268 C 8.642 12.352,5.993 13.295,4.518 14.760 C 3.739 15.533,3.344 16.337,3.261 17.320 C 3.233 17.656,3.296 18.851,3.361 19.220 C 3.682 21.025,5.082 22.051,7.804 22.476 C 10.079 22.832,13.921 22.832,16.196 22.476 C 17.917 22.208,19.058 21.721,19.789 20.943 C 20.494 20.194,20.722 19.429,20.731 17.782 C 20.735 17.167,20.723 17.009,20.649 16.712 C 20.128 14.614,17.625 12.950,14.200 12.423 C 13.463 12.310,12.325 12.244,11.520 12.268 M13.740 13.858 C 15.791 14.156,17.480 14.868,18.440 15.839 C 18.823 16.227,19.043 16.571,19.167 16.975 C 19.244 17.227,19.249 17.314,19.229 18.055 C 19.205 18.941,19.163 19.174,18.953 19.568 C 18.534 20.354,17.421 20.826,15.400 21.076 C 14.426 21.197,13.525 21.240,12.000 21.240 C 10.475 21.240,9.574 21.197,8.600 21.076 C 6.579 20.826,5.466 20.354,5.047 19.568 C 4.837 19.174,4.795 18.941,4.771 18.055 C 4.751 17.314,4.756 17.227,4.833 16.975 C 4.957 16.571,5.177 16.227,5.560 15.839 C 6.639 14.747,8.531 14.025,10.940 13.784 C 11.337 13.745,13.320 13.797,13.740 13.858 " stroke="none" fill-rule="evenodd" fill="black"></path></svg>