<svg width="24" height="24" viewBox="0 0 24 24" fill="none" xmlns="http://www.w3.org/2000/svg"><path d="M11.580 2.063 C 11.536 2.073,11.374 2.111,11.220 2.146 C 10.652 2.275,10.297 2.485,9.443 3.198 C 8.652 3.857,8.589 3.883,7.509 3.980 C 6.642 4.057,6.415 4.097,6.081 4.230 C 5.318 4.533,4.709 5.092,4.347 5.820 C 4.148 6.221,4.089 6.455,4.020 7.115 C 3.887 8.401,3.886 8.403,3.768 8.655 C 3.700 8.799,3.466 9.122,3.201 9.440 C 2.495 10.284,2.295 10.619,2.136 11.220 C 2.034 11.607,2.034 12.393,2.136 12.780 C 2.296 13.386,2.487 13.706,3.184 14.540 C 3.462 14.873,3.699 15.199,3.768 15.345 C 3.886 15.597,3.887 15.599,4.020 16.885 C 4.089 17.545,4.148 17.779,4.347 18.180 C 4.659 18.807,5.195 19.345,5.812 19.650 C 6.223 19.852,6.454 19.911,7.115 19.981 C 7.437 20.015,7.860 20.059,8.055 20.080 C 8.557 20.133,8.789 20.254,9.458 20.815 C 10.094 21.348,10.339 21.520,10.692 21.678 C 11.126 21.874,11.450 21.938,12.000 21.938 C 12.550 21.938,12.874 21.874,13.305 21.680 C 13.642 21.528,13.928 21.328,14.560 20.799 C 15.210 20.256,15.447 20.132,15.945 20.080 C 16.140 20.059,16.563 20.015,16.885 19.981 C 17.546 19.911,17.780 19.852,18.180 19.653 C 18.908 19.291,19.467 18.682,19.770 17.919 C 19.903 17.585,19.943 17.358,20.020 16.491 C 20.117 15.411,20.143 15.348,20.802 14.557 C 21.329 13.926,21.529 13.641,21.680 13.305 C 21.874 12.874,21.938 12.550,21.938 12.000 C 21.938 11.450,21.874 11.126,21.680 10.695 C 21.529 10.359,21.329 10.074,20.802 9.443 C 20.143 8.652,20.117 8.589,20.020 7.509 C 19.943 6.642,19.903 6.415,19.770 6.081 C 19.467 5.318,18.909 4.710,18.180 4.347 C 17.711 4.114,17.426 4.055,16.300 3.960 C 15.440 3.887,15.323 3.836,14.557 3.198 C 13.721 2.500,13.377 2.293,12.800 2.142 C 12.549 2.077,11.744 2.024,11.580 2.063 M12.390 3.577 C 12.744 3.671,12.918 3.781,13.540 4.302 C 14.542 5.141,14.930 5.320,15.959 5.422 C 17.131 5.538,17.276 5.563,17.561 5.706 C 17.718 5.784,17.905 5.921,18.011 6.035 C 18.374 6.422,18.463 6.722,18.560 7.880 C 18.656 9.015,18.815 9.384,19.643 10.386 C 19.949 10.757,20.238 11.137,20.284 11.230 C 20.466 11.600,20.520 11.998,20.438 12.356 C 20.362 12.684,20.202 12.939,19.662 13.591 C 19.365 13.949,19.057 14.360,18.976 14.505 C 18.774 14.866,18.647 15.292,18.597 15.773 C 18.449 17.205,18.442 17.252,18.322 17.508 C 18.110 17.961,17.660 18.333,17.198 18.436 C 17.100 18.458,16.696 18.505,16.300 18.540 C 14.970 18.660,14.640 18.795,13.616 19.642 C 13.244 19.949,12.842 20.248,12.722 20.305 C 12.260 20.527,11.740 20.527,11.278 20.305 C 11.158 20.248,10.756 19.949,10.384 19.642 C 9.360 18.795,9.030 18.660,7.700 18.540 C 7.304 18.505,6.900 18.458,6.802 18.436 C 6.340 18.333,5.890 17.961,5.678 17.508 C 5.558 17.252,5.551 17.210,5.402 15.766 C 5.354 15.299,5.220 14.858,5.016 14.491 C 4.940 14.354,4.635 13.949,4.338 13.591 C 4.042 13.233,3.752 12.842,3.695 12.722 C 3.473 12.260,3.473 11.740,3.695 11.278 C 3.752 11.158,4.042 10.767,4.338 10.409 C 4.635 10.051,4.943 9.640,5.024 9.495 C 5.226 9.134,5.353 8.708,5.403 8.227 C 5.551 6.795,5.558 6.748,5.678 6.492 C 5.836 6.153,6.110 5.871,6.439 5.706 C 6.724 5.563,6.869 5.538,8.041 5.422 C 9.068 5.320,9.413 5.163,10.409 4.338 C 11.046 3.811,11.321 3.636,11.628 3.564 C 11.858 3.510,12.156 3.515,12.390 3.577 M15.180 8.837 C 15.072 8.887,14.285 9.649,12.760 11.176 L 10.500 13.440 9.720 12.661 C 8.915 11.858,8.780 11.759,8.491 11.761 C 8.318 11.762,8.052 11.873,7.952 11.986 C 7.759 12.202,7.711 12.552,7.837 12.820 C 7.940 13.041,10.006 15.095,10.209 15.179 C 10.398 15.257,10.602 15.257,10.791 15.179 C 10.997 15.094,16.057 10.046,16.163 9.820 C 16.258 9.617,16.259 9.385,16.165 9.180 C 16.077 8.990,15.988 8.904,15.790 8.822 C 15.594 8.740,15.375 8.745,15.180 8.837 " stroke="none" fill-rule="evenodd" fill="black"></path></svg>