<svg width="24" height="24" viewBox="0 0 24 24" fill="none" xmlns="http://www.w3.org/2000/svg"><path d="M6.159 1.284 C 4.728 1.339,3.921 1.491,3.220 1.838 C 1.915 2.483,1.402 3.508,1.282 5.706 C 1.227 6.702,1.226 15.725,1.281 16.442 C 1.365 17.556,1.495 18.157,1.779 18.740 C 2.267 19.742,3.179 20.349,4.540 20.578 C 5.299 20.706,5.802 20.728,8.490 20.748 L 11.240 20.769 11.241 20.955 C 11.241 21.196,11.338 21.599,11.444 21.808 C 11.561 22.038,11.901 22.387,12.140 22.524 C 12.563 22.766,12.648 22.772,15.593 22.748 C 18.194 22.727,18.708 22.705,19.460 22.578 C 20.821 22.349,21.733 21.742,22.221 20.740 C 22.504 20.159,22.635 19.555,22.718 18.454 C 22.772 17.743,22.772 8.683,22.719 7.706 C 22.598 5.507,22.085 4.483,20.780 3.838 C 20.107 3.505,19.306 3.345,18.078 3.300 C 17.738 3.287,17.316 3.269,17.140 3.260 C 16.964 3.251,15.907 3.243,14.790 3.242 L 12.760 3.240 12.759 3.050 C 12.759 2.782,12.657 2.382,12.531 2.150 C 12.394 1.898,12.024 1.556,11.748 1.426 C 11.630 1.370,11.418 1.305,11.277 1.282 C 10.986 1.234,7.410 1.236,6.159 1.284 M6.240 4.500 L 6.240 6.240 4.500 6.240 L 2.760 6.240 2.760 6.150 C 2.761 5.828,2.856 4.880,2.919 4.568 C 3.174 3.307,3.894 2.889,5.980 2.787 C 6.112 2.780,6.225 2.772,6.230 2.768 C 6.236 2.763,6.240 3.543,6.240 4.500 M11.167 2.826 C 11.235 2.888,11.240 2.995,11.240 4.566 L 11.240 6.240 9.500 6.240 L 7.760 6.240 7.760 4.500 L 7.760 2.760 9.427 2.760 C 10.922 2.760,11.101 2.767,11.167 2.826 M16.240 6.500 L 16.240 8.240 14.500 8.240 L 12.760 8.240 12.760 6.500 L 12.760 4.760 14.500 4.760 L 16.240 4.760 16.240 6.500 M18.700 4.842 C 20.239 4.989,20.851 5.432,21.081 6.568 C 21.144 6.880,21.239 7.828,21.240 8.150 L 21.240 8.240 19.500 8.240 L 17.760 8.240 17.760 6.510 L 17.760 4.780 18.010 4.790 C 18.147 4.796,18.458 4.819,18.700 4.842 M11.240 11.500 L 11.240 15.240 7.000 15.240 L 2.760 15.240 2.760 11.500 L 2.760 7.760 7.000 7.760 L 11.240 7.760 11.240 11.500 M21.240 13.500 L 21.240 17.240 17.000 17.240 L 12.760 17.240 12.760 13.500 L 12.760 9.760 17.000 9.760 L 21.240 9.760 21.240 13.500 M6.240 18.002 L 6.240 19.243 5.930 19.220 C 4.470 19.110,3.875 18.943,3.445 18.525 C 3.123 18.211,2.913 17.688,2.856 17.055 L 2.829 16.760 4.534 16.760 L 6.240 16.760 6.240 18.002 M11.240 18.000 L 11.240 19.240 9.500 19.240 L 7.760 19.240 7.760 18.000 L 7.760 16.760 9.500 16.760 L 11.240 16.760 11.240 18.000 M16.240 20.000 L 16.240 21.240 14.573 21.240 C 13.078 21.240,12.899 21.233,12.833 21.174 C 12.765 21.113,12.760 21.020,12.760 19.934 L 12.760 18.760 14.500 18.760 L 16.240 18.760 16.240 20.000 M21.159 18.910 C 21.159 19.183,21.005 19.813,20.874 20.078 C 20.506 20.827,19.873 21.084,18.070 21.220 L 17.760 21.243 17.760 20.002 L 17.760 18.760 19.460 18.760 L 21.160 18.760 21.159 18.910 " fill="#1C274C" stroke="none" fill-rule="evenodd"></path></svg>