<svg width="24" height="24" viewBox="0 0 24 24" fill="none" xmlns="http://www.w3.org/2000/svg"><path d="M10.614 1.280 C 10.228 1.360,9.922 1.603,9.740 1.976 C 9.652 2.157,9.631 2.254,9.631 2.490 C 9.631 2.668,9.656 2.842,9.696 2.937 C 9.806 3.199,10.965 5.203,11.089 5.344 C 11.153 5.417,11.315 5.531,11.449 5.598 C 11.657 5.702,11.738 5.720,12.000 5.720 C 12.262 5.720,12.343 5.702,12.551 5.598 C 12.685 5.531,12.847 5.417,12.911 5.344 C 13.035 5.203,14.194 3.199,14.304 2.937 C 14.344 2.842,14.369 2.668,14.369 2.490 C 14.369 1.992,14.104 1.581,13.643 1.365 L 13.420 1.260 12.100 1.253 C 11.374 1.249,10.705 1.261,10.614 1.280 M12.673 2.798 C 12.644 2.881,12.019 3.959,12.000 3.959 C 11.981 3.959,11.356 2.881,11.327 2.798 C 11.319 2.775,11.590 2.760,12.000 2.760 C 12.410 2.760,12.681 2.775,12.673 2.798 M5.953 3.281 C 4.329 3.338,3.521 3.521,2.794 3.999 C 2.091 4.460,1.640 5.209,1.436 6.251 C 1.280 7.052,1.262 7.642,1.262 12.000 C 1.262 16.358,1.280 16.948,1.436 17.749 C 1.699 19.096,2.373 19.944,3.510 20.359 C 4.284 20.641,5.090 20.721,7.273 20.733 C 8.839 20.741,8.810 20.745,9.047 20.494 C 9.309 20.217,9.309 19.783,9.047 19.506 C 8.857 19.305,8.737 19.267,8.230 19.248 L 7.760 19.230 7.760 12.000 L 7.760 4.770 8.230 4.752 C 8.737 4.733,8.857 4.695,9.047 4.494 C 9.181 4.353,9.240 4.201,9.240 4.000 C 9.240 3.799,9.181 3.647,9.047 3.506 C 8.822 3.268,8.783 3.260,7.780 3.255 C 7.274 3.252,6.452 3.264,5.953 3.281 M15.420 3.257 C 15.398 3.266,15.331 3.284,15.271 3.297 C 15.124 3.329,14.881 3.548,14.814 3.708 C 14.703 3.973,14.759 4.289,14.953 4.494 C 15.143 4.695,15.263 4.733,15.770 4.752 L 16.240 4.770 16.240 12.000 L 16.240 19.230 15.770 19.248 C 15.263 19.267,15.143 19.305,14.953 19.506 C 14.819 19.647,14.760 19.799,14.760 20.000 C 14.760 20.201,14.819 20.353,14.953 20.494 C 15.190 20.745,15.160 20.741,16.734 20.732 C 18.337 20.724,19.191 20.675,19.772 20.557 C 21.372 20.233,22.233 19.372,22.557 17.772 C 22.718 16.978,22.737 16.351,22.737 12.000 C 22.737 7.649,22.718 7.022,22.557 6.228 C 22.178 4.355,21.075 3.490,18.852 3.323 C 18.317 3.282,15.489 3.228,15.420 3.257 M6.240 6.500 L 6.240 8.240 4.496 8.240 L 2.752 8.240 2.779 7.730 C 2.861 6.156,3.107 5.508,3.749 5.171 C 4.255 4.905,4.875 4.794,6.010 4.766 L 6.240 4.760 6.240 6.500 M19.102 4.843 C 19.550 4.895,19.852 4.978,20.185 5.140 C 20.887 5.483,21.136 6.106,21.221 7.730 L 21.248 8.240 19.504 8.240 L 17.760 8.240 17.760 6.496 L 17.760 4.752 18.270 4.779 C 18.550 4.793,18.925 4.822,19.102 4.843 M11.699 6.816 C 11.550 6.881,11.332 7.124,11.291 7.271 C 11.274 7.331,11.260 7.659,11.260 8.000 C 11.260 8.341,11.274 8.669,11.291 8.729 C 11.333 8.881,11.553 9.121,11.708 9.186 C 12.002 9.309,12.336 9.229,12.550 8.985 C 12.621 8.905,12.693 8.789,12.709 8.729 C 12.726 8.669,12.740 8.341,12.740 8.000 C 12.740 7.659,12.726 7.331,12.709 7.271 C 12.667 7.119,12.447 6.879,12.292 6.814 C 12.130 6.746,11.857 6.747,11.699 6.816 M6.240 12.000 L 6.240 14.240 4.500 14.240 L 2.760 14.240 2.760 12.000 L 2.760 9.760 4.500 9.760 L 6.240 9.760 6.240 12.000 M21.240 12.000 L 21.240 14.240 19.500 14.240 L 17.760 14.240 17.760 12.000 L 17.760 9.760 19.500 9.760 L 21.240 9.760 21.240 12.000 M11.699 10.816 C 11.550 10.881,11.332 11.124,11.291 11.271 C 11.274 11.331,11.260 11.659,11.260 12.000 C 11.260 12.341,11.274 12.669,11.291 12.729 C 11.333 12.881,11.553 13.121,11.708 13.186 C 11.873 13.255,12.127 13.255,12.292 13.186 C 12.447 13.121,12.667 12.881,12.709 12.729 C 12.726 12.669,12.740 12.341,12.740 12.000 C 12.740 11.659,12.726 11.331,12.709 11.271 C 12.667 11.119,12.447 10.879,12.292 10.814 C 12.130 10.746,11.857 10.747,11.699 10.816 M11.699 14.816 C 11.550 14.881,11.332 15.124,11.291 15.271 C 11.274 15.331,11.260 15.659,11.260 16.000 C 11.260 16.341,11.274 16.669,11.291 16.729 C 11.333 16.881,11.553 17.121,11.708 17.186 C 11.873 17.255,12.127 17.255,12.292 17.186 C 12.447 17.121,12.667 16.881,12.709 16.729 C 12.726 16.669,12.740 16.341,12.740 16.000 C 12.740 15.659,12.726 15.331,12.709 15.271 C 12.667 15.119,12.447 14.879,12.292 14.814 C 12.130 14.746,11.857 14.747,11.699 14.816 M6.240 17.504 L 6.240 19.248 5.730 19.221 C 4.738 19.169,4.300 19.090,3.855 18.883 C 3.511 18.723,3.304 18.521,3.140 18.185 C 2.911 17.716,2.833 17.301,2.779 16.270 L 2.752 15.760 4.496 15.760 L 6.240 15.760 6.240 17.504 M21.220 16.290 C 21.102 18.626,20.628 19.097,18.270 19.221 L 17.760 19.248 17.760 17.504 L 17.760 15.760 19.504 15.760 L 21.247 15.760 21.220 16.290 M11.449 18.402 C 11.315 18.469,11.153 18.583,11.089 18.656 C 10.965 18.797,9.806 20.801,9.696 21.063 C 9.656 21.158,9.631 21.332,9.631 21.510 C 9.631 22.008,9.896 22.419,10.357 22.635 L 10.580 22.740 12.000 22.740 L 13.420 22.740 13.643 22.636 C 13.915 22.508,14.126 22.297,14.265 22.014 C 14.348 21.844,14.369 21.742,14.369 21.510 C 14.369 21.345,14.344 21.158,14.310 21.078 C 14.202 20.820,13.034 18.796,12.914 18.659 C 12.848 18.585,12.685 18.469,12.551 18.402 C 12.343 18.298,12.262 18.280,12.000 18.280 C 11.738 18.280,11.657 18.298,11.449 18.402 M12.340 20.603 C 12.516 20.912,12.666 21.182,12.673 21.202 C 12.681 21.225,12.410 21.240,12.000 21.240 C 11.590 21.240,11.319 21.225,11.327 21.202 C 11.356 21.119,11.981 20.041,12.000 20.041 C 12.011 20.041,12.164 20.294,12.340 20.603 " stroke="none" fill-rule="evenodd" fill="black"></path></svg>