<svg width="24" height="24" viewBox="0 0 24 24" fill="none" xmlns="http://www.w3.org/2000/svg"><path d="M7.300 3.280 C 5.354 3.334,4.519 3.478,3.669 3.905 C 3.261 4.110,3.065 4.251,2.706 4.597 C 1.921 5.353,1.524 6.264,1.363 7.680 C 1.239 8.770,1.213 13.982,1.323 15.754 C 1.409 17.139,1.692 18.125,2.215 18.854 C 2.421 19.141,2.936 19.648,3.213 19.837 C 3.522 20.047,4.114 20.310,4.522 20.418 C 5.526 20.683,6.294 20.731,9.500 20.731 C 12.706 20.731,13.474 20.683,14.478 20.418 C 14.886 20.310,15.478 20.047,15.787 19.837 C 16.064 19.648,16.579 19.141,16.785 18.854 C 17.258 18.194,17.575 17.181,17.662 16.054 L 17.690 15.688 18.155 15.908 C 19.766 16.672,20.404 16.847,21.071 16.706 C 21.665 16.580,22.112 16.223,22.376 15.667 C 22.685 15.014,22.731 14.536,22.731 12.000 C 22.731 9.462,22.684 8.984,22.376 8.333 C 22.112 7.777,21.665 7.420,21.071 7.294 C 20.404 7.153,19.766 7.328,18.155 8.092 L 17.690 8.312 17.662 7.946 C 17.575 6.819,17.258 5.806,16.785 5.146 C 16.579 4.859,16.064 4.352,15.787 4.163 C 15.074 3.678,14.086 3.405,12.754 3.323 C 11.825 3.267,8.671 3.241,7.300 3.280 M12.507 4.801 C 13.982 4.886,14.644 5.095,15.234 5.660 C 15.592 6.003,15.767 6.274,15.922 6.730 C 16.192 7.526,16.239 8.303,16.239 12.000 C 16.239 15.697,16.192 16.474,15.922 17.270 C 15.767 17.726,15.592 17.997,15.234 18.340 C 14.644 18.905,13.982 19.114,12.507 19.199 C 11.617 19.251,7.383 19.251,6.493 19.199 C 5.018 19.114,4.356 18.905,3.766 18.340 C 3.409 17.998,3.234 17.728,3.077 17.270 C 2.809 16.493,2.761 15.692,2.761 12.000 C 2.761 8.308,2.809 7.507,3.077 6.730 C 3.234 6.272,3.409 6.002,3.766 5.660 C 4.343 5.108,5.046 4.880,6.420 4.802 C 7.212 4.756,11.729 4.756,12.507 4.801 M20.951 8.852 C 21.186 9.068,21.238 9.641,21.238 12.000 C 21.238 14.724,21.174 15.155,20.755 15.254 C 20.501 15.314,19.695 15.007,18.390 14.355 L 17.760 14.040 17.760 12.000 L 17.760 9.960 18.390 9.645 C 19.699 8.991,20.470 8.695,20.740 8.746 C 20.806 8.758,20.901 8.806,20.951 8.852 M9.180 8.835 C 8.797 9.011,8.760 9.141,8.760 10.296 L 8.760 11.234 7.767 11.247 L 6.774 11.260 6.612 11.367 C 6.372 11.526,6.267 11.721,6.267 12.007 C 6.267 12.203,6.286 12.270,6.383 12.408 C 6.602 12.718,6.685 12.738,7.790 12.753 L 8.760 12.766 8.761 13.713 C 8.762 14.546,8.771 14.679,8.835 14.820 C 8.923 15.010,9.012 15.096,9.210 15.178 C 9.398 15.257,9.602 15.257,9.790 15.178 C 9.988 15.096,10.077 15.010,10.165 14.820 C 10.229 14.679,10.238 14.546,10.239 13.710 L 10.240 12.760 11.098 12.760 C 12.127 12.760,12.311 12.729,12.520 12.520 C 12.918 12.122,12.730 11.423,12.189 11.286 C 12.077 11.258,11.658 11.240,11.122 11.240 L 10.240 11.240 10.239 10.290 C 10.238 9.454,10.229 9.321,10.165 9.180 C 10.077 8.990,9.988 8.904,9.790 8.822 C 9.595 8.740,9.376 8.745,9.180 8.835 " stroke="none" fill-rule="evenodd" fill="black"></path></svg>