<svg width="24" height="24" viewBox="0 0 24 24" fill="none" xmlns="http://www.w3.org/2000/svg"><path d="M11.815 1.277 C 11.638 1.321,11.461 1.456,11.353 1.631 L 11.260 1.780 11.260 3.500 L 11.260 5.220 11.353 5.369 C 11.710 5.943,12.576 5.812,12.716 5.162 C 12.773 4.894,12.774 2.090,12.717 1.841 C 12.623 1.432,12.215 1.177,11.815 1.277 M8.420 2.282 C 5.815 2.364,4.669 2.685,3.702 3.604 C 2.929 4.337,2.535 5.317,2.360 6.940 C 2.205 8.376,2.205 15.624,2.360 17.060 C 2.535 18.683,2.929 19.663,3.702 20.396 C 4.719 21.363,6.042 21.700,8.925 21.726 C 9.634 21.732,9.724 21.725,9.841 21.656 C 10.297 21.389,10.376 20.804,10.001 20.465 C 9.788 20.273,9.634 20.240,8.936 20.240 C 8.604 20.240,8.199 20.229,8.036 20.215 L 7.740 20.190 7.740 12.000 L 7.740 3.810 8.036 3.785 C 8.199 3.771,8.604 3.760,8.936 3.760 C 9.634 3.760,9.788 3.727,10.001 3.535 C 10.473 3.108,10.205 2.336,9.560 2.270 C 9.461 2.260,8.948 2.266,8.420 2.282 M14.420 2.267 C 14.376 2.276,14.300 2.292,14.251 2.302 C 14.122 2.330,13.877 2.557,13.814 2.708 C 13.692 3.001,13.771 3.336,14.013 3.548 C 14.217 3.727,14.377 3.760,15.064 3.760 C 15.396 3.760,15.801 3.771,15.964 3.785 L 16.260 3.810 16.260 12.000 L 16.260 20.190 15.964 20.215 C 15.801 20.229,15.396 20.240,15.064 20.240 C 14.377 20.240,14.217 20.273,14.013 20.452 C 13.695 20.731,13.668 21.193,13.953 21.494 C 14.167 21.720,14.229 21.733,15.080 21.725 C 17.957 21.700,19.281 21.362,20.298 20.396 C 21.051 19.681,21.439 18.749,21.621 17.213 C 21.804 15.669,21.804 8.331,21.621 6.787 C 21.439 5.251,21.051 4.319,20.298 3.604 C 19.352 2.704,18.160 2.359,15.800 2.299 C 15.349 2.287,14.872 2.272,14.740 2.265 C 14.608 2.258,14.464 2.259,14.420 2.267 M6.240 5.860 L 6.240 7.760 5.020 7.760 L 3.800 7.760 3.800 7.644 C 3.800 7.581,3.818 7.342,3.840 7.114 C 4.019 5.290,4.585 4.441,5.880 4.054 C 6.045 4.005,6.194 3.963,6.210 3.962 C 6.226 3.961,6.240 4.815,6.240 5.860 M18.077 4.042 C 19.446 4.421,20.029 5.349,20.183 7.390 L 20.210 7.760 18.985 7.760 L 17.760 7.760 17.760 5.860 C 17.760 4.815,17.765 3.960,17.771 3.960 C 17.777 3.960,17.915 3.997,18.077 4.042 M11.815 7.277 C 11.638 7.321,11.461 7.456,11.353 7.631 L 11.260 7.780 11.260 9.500 L 11.260 11.220 11.353 11.369 C 11.710 11.943,12.576 11.812,12.716 11.162 C 12.773 10.894,12.774 8.090,12.717 7.841 C 12.623 7.432,12.215 7.177,11.815 7.277 M6.240 12.000 L 6.240 14.760 5.000 14.760 L 3.760 14.760 3.760 12.000 L 3.760 9.240 5.000 9.240 L 6.240 9.240 6.240 12.000 M20.240 12.000 L 20.240 14.760 19.000 14.760 L 17.760 14.760 17.760 12.000 L 17.760 9.240 19.000 9.240 L 20.240 9.240 20.240 12.000 M11.815 13.277 C 11.638 13.321,11.461 13.456,11.353 13.631 L 11.260 13.780 11.260 15.500 L 11.260 17.220 11.353 17.369 C 11.710 17.943,12.576 17.812,12.716 17.162 C 12.773 16.894,12.774 14.090,12.717 13.841 C 12.623 13.432,12.215 13.177,11.815 13.277 M6.240 18.140 C 6.240 19.185,6.235 20.040,6.229 20.040 C 6.223 20.040,6.085 20.003,5.923 19.958 C 4.792 19.645,4.195 18.939,3.942 17.620 C 3.881 17.303,3.800 16.578,3.800 16.356 L 3.800 16.240 5.020 16.240 L 6.240 16.240 6.240 18.140 M20.183 16.610 C 20.052 18.348,19.604 19.276,18.676 19.728 C 18.446 19.841,17.867 20.040,17.771 20.040 C 17.765 20.040,17.760 19.185,17.760 18.140 L 17.760 16.240 18.985 16.240 L 20.210 16.240 20.183 16.610 M11.815 19.277 C 11.638 19.321,11.461 19.456,11.353 19.631 C 11.261 19.778,11.260 19.793,11.260 21.000 C 11.260 22.207,11.261 22.222,11.353 22.369 C 11.710 22.943,12.576 22.812,12.716 22.162 C 12.772 21.901,12.773 20.083,12.717 19.841 C 12.623 19.432,12.215 19.177,11.815 19.277 " stroke="none" fill-rule="evenodd" fill="black"></path></svg>