<svg width="24" height="24" viewBox="0 0 24 24" fill="none" xmlns="http://www.w3.org/2000/svg"><path d="M8.960 1.280 C 6.960 1.332,5.848 1.469,4.900 1.779 C 3.060 2.382,1.958 3.688,1.563 5.734 C 1.311 7.042,1.267 7.973,1.267 12.000 C 1.267 16.027,1.311 16.958,1.563 18.266 C 2.013 20.599,3.401 21.987,5.734 22.437 C 7.034 22.688,7.987 22.733,12.000 22.733 C 16.013 22.733,16.966 22.688,18.266 22.437 C 20.599 21.987,21.987 20.599,22.437 18.266 C 22.688 16.966,22.733 16.013,22.733 12.000 C 22.733 7.987,22.688 7.034,22.437 5.734 C 22.098 3.977,21.228 2.756,19.825 2.068 C 18.978 1.652,17.875 1.425,16.200 1.321 C 15.315 1.266,10.534 1.239,8.960 1.280 M15.634 2.786 L 16.240 2.812 16.240 7.026 L 16.240 11.240 12.000 11.240 L 7.760 11.240 7.760 7.021 L 7.760 2.803 8.170 2.790 C 8.996 2.764,15.046 2.761,15.634 2.786 M6.240 4.620 L 6.240 6.240 4.620 6.240 C 3.064 6.240,3.000 6.237,3.000 6.165 C 3.000 6.034,3.187 5.349,3.296 5.081 C 3.639 4.240,4.240 3.639,5.081 3.296 C 5.361 3.182,6.004 3.005,6.150 3.002 L 6.240 3.000 6.240 4.620 M18.478 3.145 C 19.218 3.357,19.842 3.756,20.240 4.272 C 20.581 4.713,20.893 5.464,20.982 6.060 L 21.009 6.240 19.385 6.240 L 17.760 6.240 17.760 4.615 L 17.760 2.991 17.948 3.019 C 18.052 3.035,18.290 3.091,18.478 3.145 M6.240 9.500 L 6.240 11.240 4.500 11.240 L 2.760 11.240 2.760 10.106 C 2.760 9.483,2.772 8.700,2.786 8.366 L 2.812 7.760 4.526 7.760 L 6.240 7.760 6.240 9.500 M21.214 8.366 C 21.228 8.700,21.240 9.483,21.240 10.106 L 21.240 11.240 19.500 11.240 L 17.760 11.240 17.760 9.500 L 17.760 7.760 19.474 7.760 L 21.188 7.760 21.214 8.366 M6.240 14.500 L 6.240 16.240 4.526 16.240 L 2.812 16.240 2.786 15.670 C 2.772 15.357,2.760 14.573,2.760 13.930 L 2.760 12.760 4.500 12.760 L 6.240 12.760 6.240 14.500 M16.240 16.974 L 16.240 21.188 15.634 21.214 C 15.300 21.228,13.665 21.240,12.000 21.240 C 10.335 21.240,8.700 21.228,8.366 21.214 L 7.760 21.188 7.760 16.974 L 7.760 12.760 12.000 12.760 L 16.240 12.760 16.240 16.974 M21.240 13.894 C 21.240 14.517,21.228 15.300,21.214 15.634 L 21.188 16.240 19.474 16.240 L 17.760 16.240 17.760 14.500 L 17.760 12.760 19.500 12.760 L 21.240 12.760 21.240 13.894 M6.240 19.385 L 6.240 21.009 6.060 20.982 C 5.719 20.931,5.180 20.755,4.820 20.579 C 4.181 20.265,3.736 19.820,3.421 19.180 C 3.241 18.816,3.071 18.294,3.019 17.948 L 2.991 17.760 4.615 17.760 L 6.240 17.760 6.240 19.385 M20.982 17.940 C 20.892 18.539,20.581 19.287,20.236 19.734 C 19.760 20.350,18.848 20.846,17.940 20.982 L 17.760 21.009 17.760 19.385 L 17.760 17.760 19.385 17.760 L 21.009 17.760 20.982 17.940 " stroke="none" fill-rule="evenodd" fill="black"></path></svg>