<svg width="24" height="24" viewBox="0 0 24 24" fill="none" xmlns="http://www.w3.org/2000/svg"><path d="M7.300 3.280 C 5.354 3.334,4.519 3.478,3.669 3.905 C 3.261 4.110,3.065 4.251,2.706 4.597 C 1.921 5.353,1.524 6.264,1.363 7.680 C 1.239 8.770,1.213 13.982,1.323 15.754 C 1.409 17.139,1.692 18.125,2.215 18.854 C 2.421 19.141,2.936 19.648,3.213 19.837 C 3.522 20.047,4.114 20.310,4.522 20.418 C 5.526 20.683,6.294 20.731,9.500 20.731 C 12.706 20.731,13.474 20.683,14.478 20.418 C 14.886 20.310,15.478 20.047,15.787 19.837 C 16.064 19.648,16.579 19.141,16.785 18.854 C 17.258 18.194,17.575 17.181,17.662 16.054 L 17.690 15.688 18.155 15.908 C 19.766 16.672,20.404 16.847,21.071 16.706 C 21.665 16.580,22.112 16.223,22.376 15.667 C 22.685 15.014,22.731 14.536,22.731 12.000 C 22.731 9.462,22.684 8.984,22.376 8.333 C 22.112 7.777,21.665 7.420,21.071 7.294 C 20.404 7.153,19.766 7.328,18.155 8.092 L 17.690 8.312 17.662 7.946 C 17.575 6.819,17.258 5.806,16.785 5.146 C 16.579 4.859,16.064 4.352,15.787 4.163 C 15.074 3.678,14.086 3.405,12.754 3.323 C 11.825 3.267,8.671 3.241,7.300 3.280 M12.507 4.801 C 13.982 4.886,14.644 5.095,15.234 5.660 C 15.592 6.003,15.767 6.274,15.922 6.730 C 16.192 7.526,16.239 8.303,16.239 12.000 C 16.239 15.697,16.192 16.474,15.922 17.270 C 15.767 17.726,15.592 17.997,15.234 18.340 C 14.644 18.905,13.982 19.114,12.507 19.199 C 11.617 19.251,7.383 19.251,6.493 19.199 C 5.018 19.114,4.356 18.905,3.766 18.340 C 3.409 17.998,3.234 17.728,3.077 17.270 C 2.809 16.493,2.761 15.692,2.761 12.000 C 2.761 8.308,2.809 7.507,3.077 6.730 C 3.234 6.272,3.409 6.002,3.766 5.660 C 4.343 5.108,5.046 4.880,6.420 4.802 C 7.212 4.756,11.729 4.756,12.507 4.801 M12.158 6.281 C 11.065 6.450,10.276 7.370,10.270 8.480 C 10.267 9.129,10.470 9.630,10.920 10.080 C 11.363 10.523,11.868 10.731,12.500 10.731 C 13.132 10.731,13.637 10.523,14.080 10.080 C 14.523 9.637,14.731 9.132,14.731 8.500 C 14.731 7.868,14.523 7.363,14.080 6.920 C 13.573 6.413,12.851 6.173,12.158 6.281 M12.944 7.903 C 13.173 8.088,13.247 8.255,13.231 8.549 C 13.219 8.752,13.195 8.823,13.097 8.944 C 12.912 9.173,12.745 9.247,12.451 9.231 C 12.248 9.219,12.177 9.195,12.056 9.097 C 11.827 8.912,11.753 8.745,11.769 8.451 C 11.781 8.248,11.805 8.177,11.903 8.056 C 12.088 7.827,12.255 7.753,12.549 7.769 C 12.752 7.781,12.823 7.805,12.944 7.903 M20.951 8.852 C 21.186 9.068,21.238 9.641,21.238 12.000 C 21.238 14.724,21.174 15.155,20.755 15.254 C 20.501 15.314,19.695 15.007,18.390 14.355 L 17.760 14.040 17.760 12.000 L 17.760 9.960 18.390 9.645 C 19.699 8.991,20.470 8.695,20.740 8.746 C 20.806 8.758,20.901 8.806,20.951 8.852 " stroke="none" fill-rule="evenodd" fill="black"></path></svg>