<svg width="24" height="24" viewBox="0 0 24 24" fill="none" xmlns="http://www.w3.org/2000/svg"><path d="M11.300 1.282 C 8.896 1.422,6.477 2.460,4.720 4.103 C 2.624 6.063,1.451 8.547,1.280 11.385 C 1.106 14.275,2.148 17.190,4.103 19.280 C 5.044 20.286,6.054 21.045,7.215 21.616 C 10.264 23.118,13.736 23.118,16.785 21.616 C 17.946 21.045,18.956 20.286,19.897 19.280 C 21.568 17.494,22.578 15.109,22.719 12.616 C 22.826 10.725,22.459 8.926,21.616 7.215 C 21.045 6.054,20.286 5.044,19.280 4.103 C 17.787 2.706,15.802 1.737,13.742 1.398 C 13.335 1.331,12.076 1.229,11.880 1.247 C 11.847 1.250,11.586 1.266,11.300 1.282 M13.146 2.822 C 14.892 3.051,16.580 3.776,17.860 4.847 C 19.237 5.999,20.236 7.450,20.774 9.080 C 21.296 10.659,21.386 12.360,21.035 13.998 C 20.750 15.323,20.018 16.826,19.153 17.860 C 18.803 18.278,18.181 18.896,17.780 19.224 C 16.786 20.037,15.272 20.761,13.998 21.035 C 12.714 21.310,11.286 21.310,10.002 21.035 C 8.677 20.750,7.173 20.018,6.140 19.153 C 5.064 18.253,4.290 17.273,3.697 16.060 C 3.057 14.750,2.760 13.464,2.760 12.000 C 2.760 10.536,3.057 9.250,3.697 7.940 C 5.064 5.144,7.706 3.245,10.820 2.823 C 11.380 2.746,12.569 2.746,13.146 2.822 M7.272 6.681 C 7.043 6.721,6.840 6.880,6.499 7.287 C 5.752 8.176,5.258 9.136,4.986 10.220 C 4.821 10.878,4.782 11.219,4.782 12.000 C 4.782 12.415,4.805 12.881,4.834 13.060 C 4.958 13.825,5.214 14.628,5.542 15.284 C 5.906 16.011,6.677 17.021,7.020 17.222 C 7.473 17.487,8.055 17.225,8.136 16.719 C 8.179 16.445,8.101 16.263,7.787 15.906 C 7.151 15.184,6.783 14.555,6.524 13.746 C 6.332 13.145,6.266 12.704,6.266 12.000 C 6.266 11.053,6.438 10.290,6.827 9.501 C 7.116 8.916,7.299 8.647,7.787 8.094 C 8.099 7.740,8.183 7.547,8.137 7.289 C 8.063 6.872,7.689 6.610,7.272 6.681 M16.426 6.688 C 16.019 6.774,15.769 7.189,15.879 7.597 C 15.910 7.713,16.017 7.871,16.213 8.094 C 16.697 8.643,16.906 8.954,17.202 9.560 C 17.925 11.044,17.925 12.956,17.202 14.440 C 16.906 15.046,16.697 15.357,16.213 15.906 C 15.899 16.263,15.821 16.445,15.864 16.719 C 15.945 17.225,16.527 17.487,16.980 17.222 C 17.323 17.021,18.094 16.011,18.458 15.284 C 18.786 14.628,19.042 13.825,19.166 13.060 C 19.195 12.881,19.218 12.415,19.218 12.000 C 19.218 11.219,19.179 10.878,19.014 10.220 C 18.742 9.136,18.248 8.176,17.501 7.287 C 17.051 6.750,16.798 6.609,16.426 6.688 M11.740 8.266 C 10.415 8.385,9.327 9.085,8.719 10.212 C 8.400 10.803,8.271 11.320,8.271 12.000 C 8.271 12.682,8.400 13.197,8.721 13.792 C 9.078 14.453,9.549 14.923,10.212 15.281 C 10.803 15.600,11.320 15.729,12.000 15.729 C 12.680 15.729,13.197 15.600,13.788 15.281 C 14.451 14.923,14.922 14.453,15.279 13.792 C 15.600 13.197,15.729 12.682,15.729 12.000 C 15.729 11.320,15.600 10.803,15.281 10.212 C 14.832 9.381,14.122 8.779,13.215 8.463 C 12.793 8.316,12.149 8.230,11.740 8.266 M12.578 9.821 C 12.949 9.918,13.274 10.112,13.581 10.419 C 14.041 10.879,14.240 11.356,14.240 12.000 C 14.240 12.644,14.041 13.121,13.581 13.581 C 13.121 14.041,12.644 14.240,12.000 14.240 C 11.356 14.240,10.879 14.041,10.419 13.581 C 9.959 13.121,9.760 12.644,9.760 12.000 C 9.760 11.356,9.959 10.879,10.419 10.419 C 10.719 10.118,11.050 9.919,11.404 9.823 C 11.692 9.746,12.285 9.745,12.578 9.821 " stroke="none" fill-rule="evenodd" fill="black"></path></svg>