<svg width="24" height="24" viewBox="0 0 24 24" fill="none" xmlns="http://www.w3.org/2000/svg"><path d="M3.180 1.281 C 2.086 1.427,1.276 2.360,1.270 3.480 C 1.267 4.129,1.470 4.630,1.920 5.080 C 2.514 5.674,3.356 5.882,4.176 5.639 L 4.486 5.546 5.228 6.288 L 5.970 7.030 5.705 7.399 C 5.559 7.602,5.342 7.942,5.222 8.154 C 4.979 8.583,4.628 9.425,4.554 9.753 C 4.511 9.942,4.497 9.963,4.423 9.938 C 3.853 9.752,3.412 9.716,2.970 9.820 C 2.247 9.991,1.580 10.609,1.356 11.317 C 1.240 11.684,1.240 12.316,1.356 12.683 C 1.529 13.231,1.978 13.749,2.510 14.016 C 3.084 14.304,3.840 14.308,4.480 14.026 C 4.527 14.005,4.572 14.093,4.688 14.436 C 5.028 15.436,5.617 16.428,6.308 17.162 L 6.556 17.425 6.028 17.950 L 5.500 18.475 5.200 18.373 C 4.825 18.246,4.271 18.231,3.900 18.338 C 3.150 18.555,2.557 19.147,2.337 19.900 C 2.245 20.215,2.246 20.781,2.338 21.101 C 2.554 21.850,3.150 22.446,3.899 22.662 C 4.215 22.753,4.785 22.753,5.101 22.662 C 5.851 22.446,6.445 21.850,6.662 21.100 C 6.762 20.755,6.752 20.181,6.640 19.824 L 6.553 19.547 7.129 18.971 L 7.706 18.395 8.043 18.600 C 8.499 18.878,9.030 19.128,9.534 19.303 L 9.953 19.447 10.094 19.674 C 10.406 20.178,10.894 20.533,11.480 20.683 C 11.712 20.742,12.288 20.742,12.520 20.683 C 13.091 20.537,13.538 20.220,13.881 19.717 C 14.020 19.513,14.052 19.490,14.248 19.446 C 14.596 19.368,15.487 18.988,15.938 18.725 C 16.388 18.462,16.401 18.457,16.468 18.524 C 16.499 18.555,16.489 18.630,16.429 18.794 C 16.327 19.073,16.291 19.726,16.359 20.054 C 16.479 20.634,16.981 21.280,17.520 21.551 C 18.662 22.123,20.025 21.655,20.578 20.500 C 21.088 19.436,20.652 18.124,19.602 17.565 C 19.103 17.298,18.416 17.240,17.862 17.416 C 17.696 17.468,17.560 17.502,17.560 17.491 C 17.560 17.480,17.662 17.360,17.787 17.225 C 18.452 16.508,19.084 15.416,19.382 14.470 L 19.455 14.240 19.617 14.239 C 20.462 14.236,21.375 13.535,21.644 12.683 C 21.760 12.316,21.760 11.684,21.644 11.317 C 21.420 10.609,20.753 9.991,20.030 9.820 C 19.893 9.788,19.690 9.761,19.580 9.761 L 19.380 9.760 19.270 9.441 C 19.052 8.810,18.616 8.004,18.168 7.407 L 17.948 7.114 18.236 6.824 L 18.523 6.535 18.811 6.632 C 19.175 6.754,19.736 6.767,20.100 6.662 C 20.850 6.445,21.446 5.851,21.662 5.101 C 21.753 4.785,21.753 4.215,21.662 3.899 C 21.446 3.150,20.850 2.554,20.101 2.338 C 19.785 2.247,19.215 2.247,18.899 2.338 C 18.150 2.554,17.557 3.147,17.337 3.900 C 17.231 4.261,17.245 4.821,17.368 5.189 L 17.465 5.477 17.176 5.764 L 16.886 6.052 16.593 5.832 C 15.952 5.351,15.175 4.939,14.433 4.687 C 14.092 4.572,14.005 4.527,14.026 4.480 C 14.230 4.017,14.291 3.443,14.185 2.990 C 14.010 2.247,13.399 1.582,12.683 1.356 C 12.316 1.240,11.684 1.240,11.317 1.356 C 10.609 1.580,9.991 2.247,9.820 2.970 C 9.716 3.412,9.752 3.853,9.938 4.423 C 9.963 4.497,9.942 4.511,9.753 4.554 C 9.425 4.628,8.583 4.979,8.154 5.222 C 7.942 5.342,7.602 5.559,7.399 5.705 L 7.030 5.970 6.283 5.223 L 5.535 4.476 5.632 4.188 C 5.707 3.966,5.729 3.813,5.730 3.520 C 5.733 2.870,5.529 2.369,5.080 1.920 C 4.575 1.415,3.894 1.186,3.180 1.281 M3.944 2.903 C 4.173 3.088,4.247 3.255,4.231 3.549 C 4.219 3.752,4.195 3.823,4.097 3.944 C 3.912 4.173,3.745 4.247,3.451 4.231 C 3.248 4.219,3.177 4.195,3.056 4.097 C 2.827 3.912,2.753 3.745,2.769 3.451 C 2.781 3.248,2.805 3.177,2.903 3.056 C 3.088 2.827,3.255 2.753,3.549 2.769 C 3.752 2.781,3.823 2.805,3.944 2.903 M12.388 2.865 C 12.447 2.909,12.550 3.013,12.618 3.096 C 12.725 3.229,12.740 3.278,12.740 3.500 C 12.740 3.722,12.725 3.771,12.618 3.904 C 12.402 4.170,12.305 4.220,12.004 4.220 C 11.785 4.220,11.708 4.202,11.595 4.125 C 11.335 3.947,11.209 3.660,11.259 3.363 C 11.290 3.181,11.517 2.896,11.697 2.814 C 11.871 2.736,12.252 2.764,12.388 2.865 M19.944 3.903 C 20.173 4.088,20.247 4.255,20.231 4.549 C 20.219 4.752,20.195 4.823,20.097 4.944 C 19.912 5.173,19.745 5.247,19.451 5.231 C 19.248 5.219,19.177 5.195,19.056 5.097 C 18.827 4.912,18.753 4.745,18.769 4.451 C 18.781 4.248,18.805 4.177,18.903 4.056 C 19.088 3.827,19.255 3.753,19.549 3.769 C 19.752 3.781,19.823 3.805,19.944 3.903 M12.829 5.822 C 13.848 5.986,14.806 6.381,15.620 6.973 C 16.017 7.261,16.682 7.921,16.978 8.320 C 17.811 9.441,18.240 10.727,18.240 12.100 C 18.240 13.731,17.665 15.183,16.564 16.331 C 15.343 17.603,13.854 18.240,12.100 18.240 C 10.376 18.240,8.800 17.568,7.578 16.313 C 6.773 15.486,6.263 14.601,5.967 13.518 C 5.684 12.484,5.690 11.226,5.981 10.219 C 6.311 9.080,6.807 8.263,7.670 7.435 C 8.436 6.700,9.343 6.204,10.440 5.917 C 11.053 5.757,12.153 5.714,12.829 5.822 M9.840 7.270 C 9.155 7.326,8.529 7.835,8.331 8.495 C 8.253 8.758,8.253 9.242,8.331 9.505 C 8.490 10.036,8.963 10.510,9.493 10.668 C 9.758 10.747,10.242 10.747,10.507 10.668 C 11.035 10.510,11.511 10.035,11.667 9.510 C 11.743 9.252,11.743 8.748,11.667 8.490 C 11.438 7.721,10.662 7.202,9.840 7.270 M10.167 8.826 C 10.258 8.909,10.261 9.070,10.174 9.167 C 10.036 9.319,9.760 9.212,9.760 9.007 C 9.760 8.793,10.008 8.683,10.167 8.826 M14.144 10.282 C 13.225 10.390,12.362 11.032,11.983 11.890 C 11.695 12.541,11.695 13.459,11.983 14.110 C 12.233 14.675,12.731 15.187,13.300 15.460 C 13.727 15.666,14.013 15.730,14.500 15.730 C 14.987 15.730,15.273 15.666,15.700 15.460 C 16.269 15.187,16.767 14.675,17.017 14.110 C 17.146 13.819,17.240 13.351,17.240 13.000 C 17.240 11.343,15.809 10.087,14.144 10.282 M3.915 11.391 C 4.171 11.598,4.220 11.697,4.220 12.000 C 4.220 12.306,4.171 12.401,3.904 12.618 C 3.771 12.725,3.722 12.740,3.506 12.739 C 3.225 12.737,3.035 12.638,2.879 12.411 C 2.770 12.251,2.732 11.945,2.798 11.746 C 2.850 11.589,3.151 11.297,3.293 11.266 C 3.496 11.221,3.774 11.277,3.915 11.391 M20.067 11.526 C 20.182 11.649,20.240 11.809,20.240 12.000 C 20.240 12.270,20.132 12.459,19.870 12.647 L 19.760 12.725 19.760 12.000 L 19.760 11.275 19.870 11.353 C 19.930 11.397,20.019 11.474,20.067 11.526 M15.020 11.874 C 15.481 12.092,15.736 12.493,15.736 13.000 C 15.736 13.515,15.469 13.927,14.996 14.139 C 14.783 14.234,14.712 14.246,14.446 14.233 C 13.947 14.209,13.553 13.941,13.348 13.487 C 13.232 13.229,13.231 12.772,13.347 12.515 C 13.556 12.054,14.004 11.760,14.500 11.760 C 14.725 11.760,14.827 11.783,15.020 11.874 M8.667 12.065 C 8.303 12.177,8.000 12.602,8.000 13.000 C 8.000 13.524,8.476 14.000,9.000 14.000 C 9.517 14.000,10.000 13.517,10.000 13.000 C 10.000 12.598,9.688 12.173,9.310 12.061 C 9.061 11.987,8.919 11.988,8.667 12.065 M18.860 18.876 C 19.081 18.977,19.202 19.122,19.262 19.354 C 19.314 19.554,19.295 19.742,19.208 19.905 C 19.139 20.034,18.891 20.236,18.769 20.263 C 18.709 20.276,18.638 20.293,18.612 20.301 C 18.517 20.330,18.155 20.210,18.053 20.115 C 17.996 20.063,17.916 19.948,17.876 19.860 C 17.585 19.230,18.230 18.585,18.860 18.876 M4.944 19.903 C 5.173 20.088,5.247 20.255,5.231 20.549 C 5.219 20.752,5.195 20.823,5.097 20.944 C 4.912 21.173,4.745 21.247,4.451 21.231 C 4.248 21.219,4.177 21.195,4.056 21.097 C 3.827 20.912,3.753 20.745,3.769 20.451 C 3.781 20.248,3.805 20.177,3.903 20.056 C 4.088 19.827,4.255 19.753,4.549 19.769 C 4.752 19.781,4.823 19.805,4.944 19.903 " stroke="none" fill-rule="evenodd" fill="black"></path></svg>