<svg width="24" height="24" viewBox="0 0 24 24" fill="none" xmlns="http://www.w3.org/2000/svg"><path d="M11.310 1.283 C 8.844 1.431,6.449 2.466,4.660 4.156 C 2.815 5.899,1.707 8.053,1.334 10.620 C 1.238 11.284,1.238 12.716,1.334 13.380 C 1.666 15.668,2.587 17.636,4.092 19.272 C 5.805 21.134,8.026 22.289,10.620 22.666 C 11.284 22.762,12.716 22.762,13.380 22.666 C 15.668 22.334,17.636 21.413,19.272 19.908 C 21.134 18.195,22.289 15.974,22.666 13.380 C 22.762 12.716,22.762 11.284,22.666 10.620 C 22.252 7.772,20.908 5.390,18.708 3.606 C 17.306 2.470,15.477 1.665,13.657 1.383 C 13.303 1.328,12.042 1.231,11.880 1.246 C 11.847 1.249,11.590 1.266,11.310 1.283 M13.380 2.864 C 16.207 3.245,18.841 5.125,20.200 7.733 C 20.442 8.198,20.780 9.011,20.825 9.235 C 20.851 9.363,20.843 9.358,20.416 9.017 C 19.066 7.939,17.259 6.982,15.600 6.466 C 14.929 6.257,14.193 6.080,13.996 6.080 C 13.785 6.080,13.507 6.210,13.402 6.358 C 13.169 6.684,13.207 7.063,13.500 7.345 C 13.658 7.497,13.708 7.519,14.146 7.619 C 14.723 7.752,15.757 8.088,16.300 8.319 C 18.022 9.053,19.460 10.028,20.776 11.354 L 21.253 11.834 21.227 12.407 C 21.213 12.722,21.173 13.169,21.139 13.400 C 21.069 13.868,20.852 14.738,20.710 15.118 L 20.617 15.367 20.232 14.929 C 18.699 13.189,16.609 11.971,14.317 11.484 C 13.837 11.382,13.022 11.280,12.688 11.280 L 12.435 11.280 12.201 10.790 C 11.624 9.578,11.384 8.514,11.384 7.160 C 11.384 5.815,11.558 5.031,12.201 3.470 L 12.494 2.761 12.717 2.783 C 12.840 2.795,13.138 2.832,13.380 2.864 M10.635 3.330 C 10.106 4.635,9.880 5.773,9.877 7.137 C 9.873 8.715,10.174 10.035,10.868 11.488 L 11.091 11.956 10.917 12.168 C 9.523 13.866,7.821 14.954,5.740 15.478 C 5.107 15.637,3.745 15.809,3.589 15.749 C 3.434 15.689,2.990 14.253,2.852 13.360 C 2.753 12.718,2.753 11.282,2.852 10.640 C 3.162 8.637,4.074 6.847,5.506 5.430 C 5.937 5.004,6.111 4.862,6.070 4.968 C 6.010 5.124,5.796 6.193,5.723 6.700 C 5.581 7.694,5.548 8.278,5.572 9.400 C 5.601 10.724,5.761 12.013,5.938 12.357 C 6.087 12.644,6.444 12.808,6.745 12.727 C 6.993 12.661,7.107 12.577,7.225 12.375 C 7.349 12.163,7.352 12.028,7.245 11.360 C 7.111 10.526,7.069 9.981,7.068 9.060 C 7.067 7.241,7.343 5.663,7.967 3.934 L 8.084 3.609 8.592 3.407 C 9.261 3.141,10.324 2.861,10.727 2.844 L 10.834 2.840 10.635 3.330 M13.500 12.864 C 15.554 13.165,17.597 14.249,18.965 15.763 C 19.287 16.120,19.840 16.827,19.840 16.882 C 19.840 16.938,19.484 17.442,19.178 17.820 C 18.337 18.858,17.278 19.705,16.100 20.281 C 14.797 20.918,13.712 21.189,12.296 21.229 C 11.221 21.260,10.414 21.165,9.460 20.896 C 9.088 20.791,8.064 20.403,8.090 20.377 C 8.098 20.369,8.301 20.325,8.542 20.279 C 10.775 19.855,13.051 18.916,15.006 17.612 C 15.563 17.240,15.652 17.149,15.724 16.876 C 15.870 16.319,15.272 15.795,14.743 16.016 C 14.669 16.047,14.445 16.182,14.247 16.316 C 12.652 17.388,10.827 18.199,9.034 18.634 C 8.144 18.850,7.312 18.975,6.460 19.022 L 5.980 19.048 5.512 18.574 C 5.047 18.104,4.706 17.709,4.476 17.374 L 4.356 17.200 4.503 17.200 C 4.754 17.200,5.476 17.082,6.020 16.953 C 8.455 16.373,10.515 15.057,12.139 13.045 L 12.376 12.751 12.738 12.778 C 12.937 12.793,13.280 12.832,13.500 12.864 " fill="#1C274C" stroke="none" fill-rule="evenodd"></path></svg>