<svg width="24" height="24" viewBox="0 0 24 24" fill="none" xmlns="http://www.w3.org/2000/svg"><path d="M11.310 1.283 C 8.844 1.431,6.449 2.466,4.660 4.156 C 2.815 5.899,1.707 8.053,1.334 10.620 C 1.238 11.284,1.238 12.716,1.334 13.380 C 1.666 15.668,2.587 17.636,4.092 19.272 C 5.805 21.134,8.026 22.289,10.620 22.666 C 11.284 22.762,12.716 22.762,13.380 22.666 C 15.668 22.334,17.636 21.413,19.272 19.908 C 21.134 18.195,22.289 15.974,22.666 13.380 C 22.762 12.716,22.762 11.284,22.666 10.620 C 22.252 7.772,20.908 5.390,18.708 3.606 C 17.306 2.470,15.477 1.665,13.657 1.383 C 13.303 1.328,12.042 1.231,11.880 1.246 C 11.847 1.249,11.590 1.266,11.310 1.283 M13.380 2.864 C 16.481 3.281,19.292 5.473,20.532 8.441 C 20.740 8.938,20.856 9.277,20.828 9.306 C 20.816 9.317,20.630 9.185,20.414 9.013 C 18.385 7.399,15.831 6.300,13.223 5.921 C 12.745 5.851,11.814 5.760,11.579 5.760 C 11.466 5.760,11.467 5.750,11.623 5.120 C 11.748 4.613,11.853 4.314,12.201 3.470 L 12.494 2.761 12.717 2.783 C 12.840 2.795,13.138 2.832,13.380 2.864 M10.635 3.330 C 10.106 4.635,9.880 5.773,9.877 7.137 C 9.873 8.715,10.174 10.035,10.868 11.488 L 11.091 11.956 10.917 12.168 C 10.536 12.632,10.091 13.098,9.745 13.396 C 9.113 13.939,8.187 14.565,8.121 14.495 C 8.065 14.436,7.803 13.698,7.656 13.187 C 7.312 11.992,7.148 11.008,7.083 9.740 C 6.985 7.824,7.281 5.846,7.940 4.014 L 8.087 3.608 8.593 3.406 C 9.262 3.141,10.325 2.861,10.727 2.844 L 10.834 2.840 10.635 3.330 M5.977 5.360 C 5.659 6.756,5.584 7.448,5.582 9.000 C 5.580 10.360,5.602 10.656,5.782 11.729 C 5.949 12.723,6.325 14.077,6.674 14.948 C 6.720 15.063,6.743 15.166,6.724 15.177 C 6.589 15.261,5.571 15.532,5.071 15.618 C 4.620 15.695,3.669 15.780,3.589 15.749 C 3.434 15.689,2.990 14.253,2.852 13.360 C 2.753 12.718,2.753 11.282,2.852 10.640 C 3.141 8.775,4.006 6.989,5.249 5.688 C 5.540 5.384,6.044 4.911,6.060 4.927 C 6.067 4.934,6.030 5.129,5.977 5.360 M12.326 7.321 C 13.988 7.487,15.482 7.909,16.980 8.635 C 18.401 9.325,19.463 10.075,20.635 11.220 L 21.250 11.820 21.226 12.400 C 21.212 12.719,21.173 13.169,21.139 13.400 C 21.069 13.869,20.852 14.738,20.710 15.118 L 20.617 15.367 20.232 14.929 C 18.699 13.189,16.609 11.971,14.317 11.484 C 13.837 11.382,13.022 11.280,12.688 11.280 L 12.435 11.280 12.201 10.790 C 11.713 9.765,11.472 8.839,11.380 7.630 L 11.353 7.280 11.632 7.280 C 11.786 7.280,12.098 7.299,12.326 7.321 M13.500 12.864 C 14.067 12.947,14.541 13.064,15.140 13.268 C 15.650 13.441,16.751 13.953,16.837 14.056 C 16.870 14.097,16.768 14.217,16.390 14.585 C 15.238 15.704,13.680 16.785,12.182 17.504 C 10.320 18.397,8.344 18.921,6.451 19.023 L 5.980 19.049 5.512 18.574 C 5.047 18.104,4.706 17.709,4.476 17.374 L 4.356 17.200 4.503 17.200 C 4.754 17.200,5.476 17.082,6.020 16.953 C 8.455 16.373,10.515 15.057,12.139 13.045 L 12.376 12.751 12.738 12.778 C 12.937 12.793,13.280 12.832,13.500 12.864 M18.928 15.724 C 19.256 16.081,19.840 16.824,19.840 16.882 C 19.840 16.938,19.483 17.444,19.178 17.820 C 18.337 18.858,17.278 19.705,16.100 20.281 C 14.797 20.918,13.712 21.189,12.296 21.229 C 11.221 21.260,10.414 21.165,9.460 20.896 C 9.088 20.791,8.064 20.403,8.090 20.377 C 8.098 20.369,8.301 20.325,8.542 20.278 C 11.944 19.628,15.249 17.871,17.677 15.425 L 18.134 14.964 18.371 15.169 C 18.501 15.282,18.752 15.532,18.928 15.724 " fill="#1C274C" stroke="none" fill-rule="evenodd"></path></svg>