<svg width="24" height="24" viewBox="0 0 24 24" fill="none" xmlns="http://www.w3.org/2000/svg"><path d="M11.617 2.577 C 11.434 2.656,11.207 2.871,11.109 3.056 C 10.988 3.285,10.988 3.715,11.109 3.944 C 11.209 4.134,11.437 4.346,11.626 4.425 C 11.795 4.496,12.205 4.496,12.374 4.425 C 12.563 4.346,12.791 4.134,12.891 3.944 C 12.956 3.821,12.978 3.710,12.978 3.500 C 12.978 3.290,12.956 3.179,12.891 3.056 C 12.791 2.866,12.563 2.654,12.374 2.575 C 12.208 2.505,11.778 2.506,11.617 2.577 M5.640 5.050 C 5.424 5.122,5.106 5.463,5.042 5.691 C 4.917 6.140,5.090 6.596,5.471 6.825 C 5.724 6.976,5.930 7.014,6.196 6.957 C 6.693 6.851,7.054 6.333,6.975 5.839 C 6.935 5.590,6.728 5.280,6.511 5.146 C 6.361 5.054,6.266 5.027,6.051 5.016 C 5.902 5.009,5.717 5.024,5.640 5.050 M17.675 5.055 C 17.215 5.220,16.942 5.706,17.041 6.183 C 17.120 6.567,17.424 6.873,17.811 6.958 C 18.368 7.082,18.929 6.676,18.988 6.107 C 19.023 5.765,18.943 5.539,18.702 5.299 C 18.416 5.013,18.041 4.924,17.675 5.055 M11.508 6.282 C 9.496 6.461,7.754 7.650,6.851 9.460 C 6.072 11.023,6.072 12.977,6.851 14.540 C 8.149 17.142,11.146 18.367,13.895 17.418 C 15.525 16.855,16.855 15.525,17.418 13.895 C 18.095 11.935,17.670 9.747,16.314 8.213 C 15.494 7.286,14.363 6.622,13.194 6.384 C 12.912 6.326,12.059 6.234,11.920 6.246 C 11.887 6.249,11.701 6.265,11.508 6.282 M11.353 11.369 C 11.710 11.943,12.576 11.812,12.716 11.162 C 12.744 11.031,12.760 10.381,12.760 9.382 L 12.760 7.808 13.030 7.880 C 13.553 8.019,13.913 8.179,14.350 8.468 C 14.982 8.884,15.592 9.604,15.869 10.260 C 16.183 11.001,16.218 11.174,16.218 12.000 C 16.218 12.826,16.183 12.999,15.869 13.740 C 15.498 14.618,14.618 15.498,13.740 15.869 C 13.007 16.180,12.825 16.217,12.020 16.219 C 11.250 16.220,11.005 16.175,10.369 15.917 C 9.369 15.510,8.490 14.631,8.083 13.631 C 7.827 13.002,7.780 12.747,7.780 12.000 C 7.780 11.253,7.827 10.998,8.083 10.369 C 8.571 9.169,9.687 8.204,10.960 7.881 L 11.220 7.815 11.240 9.517 C 11.260 11.212,11.260 11.221,11.353 11.369 M3.240 11.035 C 2.944 11.132,2.685 11.362,2.575 11.626 C 2.504 11.795,2.504 12.205,2.575 12.374 C 2.654 12.563,2.866 12.791,3.056 12.891 C 3.179 12.956,3.290 12.978,3.500 12.978 C 3.710 12.978,3.821 12.956,3.944 12.891 C 4.134 12.791,4.346 12.563,4.425 12.374 C 4.496 12.205,4.496 11.795,4.425 11.626 C 4.346 11.436,4.133 11.208,3.947 11.113 C 3.771 11.024,3.399 10.983,3.240 11.035 M20.240 11.035 C 19.944 11.132,19.685 11.362,19.575 11.626 C 19.504 11.795,19.504 12.205,19.575 12.374 C 19.654 12.563,19.866 12.791,20.056 12.891 C 20.179 12.956,20.290 12.978,20.500 12.978 C 20.829 12.978,21.034 12.888,21.239 12.655 C 21.419 12.450,21.480 12.285,21.480 12.000 C 21.480 11.867,21.455 11.698,21.425 11.626 C 21.346 11.436,21.133 11.208,20.947 11.113 C 20.771 11.024,20.399 10.983,20.240 11.035 M5.795 17.027 C 5.595 17.060,5.268 17.292,5.149 17.484 C 5.009 17.712,4.966 18.037,5.042 18.309 C 5.111 18.554,5.427 18.881,5.665 18.951 C 6.157 19.097,6.621 18.912,6.859 18.476 C 7.131 17.974,6.904 17.316,6.383 17.099 C 6.237 17.038,5.942 17.002,5.795 17.027 M17.753 17.054 C 17.398 17.153,17.123 17.446,17.042 17.811 C 16.918 18.368,17.324 18.929,17.893 18.988 C 18.235 19.023,18.461 18.943,18.701 18.702 C 18.988 18.414,19.076 18.042,18.943 17.670 C 18.775 17.199,18.236 16.920,17.753 17.054 " stroke="none" fill-rule="evenodd" fill="black"></path></svg>