<svg width="24" height="24" viewBox="0 0 24 24" fill="none" xmlns="http://www.w3.org/2000/svg"><path d="M16.080 3.177 C 15.247 3.362,14.520 3.754,12.149 5.295 C 10.710 6.231,10.690 6.238,9.640 6.241 C 7.511 6.246,6.785 6.374,6.044 6.877 C 5.307 7.378,4.775 8.092,4.545 8.888 C 4.177 10.165,4.177 13.835,4.545 15.112 C 4.773 15.902,5.309 16.624,6.030 17.113 C 6.760 17.607,7.243 17.707,9.100 17.744 C 10.395 17.769,10.643 17.799,10.978 17.968 C 11.067 18.013,11.599 18.348,12.160 18.713 C 14.972 20.539,15.688 20.880,16.706 20.880 C 17.488 20.880,18.281 20.490,18.700 19.900 C 19.319 19.028,19.479 18.193,19.639 15.000 C 19.767 12.423,19.767 11.577,19.639 9.000 C 19.480 5.817,19.317 4.961,18.708 4.110 C 18.402 3.682,17.867 3.332,17.290 3.182 C 17.005 3.109,16.400 3.106,16.080 3.177 M17.154 4.723 C 17.864 5.078,18.008 5.816,18.200 10.100 C 18.271 11.693,18.249 13.213,18.119 15.520 C 17.993 17.753,17.849 18.565,17.499 19.025 C 17.445 19.095,17.290 19.209,17.154 19.277 C 16.482 19.613,15.865 19.344,12.940 17.441 C 11.583 16.558,11.511 16.520,10.860 16.356 C 10.585 16.287,10.364 16.273,9.280 16.255 C 7.436 16.224,7.157 16.160,6.584 15.635 C 6.292 15.367,6.113 15.107,6.006 14.797 C 5.681 13.853,5.681 10.147,6.006 9.203 C 6.211 8.608,6.831 8.029,7.454 7.852 C 7.605 7.809,8.042 7.784,9.080 7.760 C 11.202 7.709,11.146 7.726,13.000 6.520 C 15.859 4.660,16.485 4.389,17.154 4.723 " stroke="none" fill-rule="evenodd" fill="black"></path></svg>