<svg width="24" height="24" viewBox="0 0 24 24" fill="none" xmlns="http://www.w3.org/2000/svg"><path d="M12.420 3.218 C 11.630 3.425,10.992 3.774,8.720 5.246 C 7.434 6.078,7.472 6.056,7.146 6.156 C 6.911 6.228,6.767 6.240,6.146 6.241 C 4.912 6.243,4.032 6.303,3.591 6.416 C 2.360 6.730,1.329 7.757,1.019 8.981 C 0.711 10.193,0.682 13.357,0.966 14.779 C 1.186 15.882,1.876 16.795,2.889 17.322 C 3.526 17.654,4.287 17.754,6.186 17.759 C 7.220 17.761,7.164 17.738,8.860 18.841 C 10.982 20.222,11.630 20.574,12.434 20.783 C 12.868 20.895,13.451 20.913,13.786 20.824 C 14.067 20.749,14.538 20.515,14.779 20.331 C 15.300 19.932,15.683 19.203,15.858 18.277 C 16.024 17.403,16.240 13.828,16.240 11.980 C 16.239 10.316,16.045 6.906,15.897 5.960 C 15.741 4.960,15.400 4.216,14.890 3.762 C 14.644 3.542,14.126 3.266,13.793 3.178 C 13.459 3.089,12.845 3.107,12.420 3.218 M13.534 4.669 C 14.220 4.915,14.426 5.542,14.578 7.840 C 14.790 11.073,14.790 12.927,14.578 16.160 C 14.478 17.676,14.366 18.357,14.143 18.792 C 14.020 19.034,13.873 19.170,13.600 19.297 C 12.950 19.599,12.263 19.288,9.320 17.359 C 8.320 16.704,7.940 16.508,7.420 16.377 C 7.048 16.283,6.921 16.274,5.600 16.242 C 4.495 16.215,4.128 16.193,3.943 16.143 C 3.296 15.965,2.624 15.293,2.467 14.669 C 2.300 14.007,2.209 12.325,2.275 11.141 C 2.332 10.125,2.379 9.679,2.467 9.331 C 2.624 8.704,3.292 8.037,3.943 7.857 C 4.129 7.806,4.487 7.784,5.600 7.758 C 6.924 7.727,7.047 7.718,7.420 7.623 C 7.950 7.490,8.315 7.298,9.440 6.562 C 12.211 4.748,12.885 4.436,13.534 4.669 M17.785 8.289 C 17.550 8.351,17.338 8.586,17.279 8.848 C 17.234 9.048,17.238 9.082,17.335 9.324 C 17.625 10.049,17.736 10.791,17.736 12.000 C 17.736 13.209,17.625 13.951,17.335 14.676 C 17.238 14.918,17.234 14.952,17.279 15.152 C 17.398 15.682,18.004 15.911,18.449 15.593 C 18.667 15.438,18.868 14.955,19.035 14.180 C 19.187 13.477,19.220 13.089,19.218 11.980 C 19.217 10.784,19.171 10.339,18.960 9.506 C 18.754 8.693,18.560 8.388,18.180 8.284 C 17.997 8.234,17.993 8.234,17.785 8.289 " stroke="none" fill-rule="evenodd" fill="black"></path></svg>