<svg width="24" height="24" viewBox="0 0 24 24" fill="none" xmlns="http://www.w3.org/2000/svg"><path d="M21.900 1.259 C 21.878 1.267,21.806 1.285,21.740 1.299 C 21.650 1.319,20.925 2.019,18.839 4.103 C 17.310 5.630,16.045 6.880,16.029 6.880 C 16.013 6.880,16.000 6.815,16.000 6.735 C 16.000 6.493,15.884 5.763,15.777 5.340 C 15.537 4.383,15.061 3.746,14.314 3.385 C 13.848 3.159,13.641 3.110,13.157 3.110 C 12.167 3.112,11.404 3.483,8.593 5.328 C 7.955 5.747,7.443 6.054,7.283 6.114 C 7.031 6.209,6.965 6.214,5.727 6.243 C 4.355 6.276,3.860 6.320,3.440 6.449 C 2.627 6.697,1.770 7.394,1.328 8.166 C 0.905 8.906,0.723 10.315,0.773 12.480 C 0.830 14.944,1.054 15.733,1.950 16.629 C 2.687 17.366,3.433 17.666,4.715 17.742 L 5.170 17.769 3.269 19.675 C 2.224 20.723,1.346 21.625,1.318 21.680 C 1.290 21.735,1.267 21.881,1.267 22.004 C 1.267 22.498,1.681 22.816,2.189 22.712 C 2.376 22.674,2.592 22.460,12.490 12.566 C 18.342 6.717,22.628 2.403,22.665 2.324 C 22.816 2.006,22.705 1.590,22.416 1.393 C 22.274 1.295,21.999 1.224,21.900 1.259 M13.600 4.703 C 13.971 4.875,14.149 5.105,14.296 5.598 C 14.392 5.924,14.510 6.808,14.563 7.614 L 14.611 8.329 10.655 12.287 L 6.700 16.245 5.440 16.229 C 4.412 16.215,4.136 16.200,3.940 16.145 C 3.340 15.975,2.720 15.399,2.518 14.823 C 2.365 14.388,2.268 13.293,2.268 12.000 C 2.268 10.707,2.365 9.612,2.518 9.177 C 2.720 8.601,3.345 8.022,3.943 7.857 C 4.130 7.806,4.484 7.785,5.620 7.761 C 7.711 7.716,7.642 7.739,9.640 6.435 C 12.346 4.670,12.955 4.404,13.600 4.703 M20.391 6.279 C 20.056 6.382,19.840 6.664,19.840 6.997 C 19.840 7.104,19.900 7.317,20.000 7.564 C 20.315 8.347,20.533 9.244,20.665 10.300 C 20.764 11.087,20.764 12.875,20.666 13.680 C 20.470 15.281,20.059 16.571,19.452 17.484 C 19.294 17.721,19.269 17.788,19.267 17.969 C 19.260 18.657,20.040 19.000,20.520 18.520 C 20.964 18.076,21.529 16.812,21.840 15.568 C 22.365 13.466,22.371 10.612,21.854 8.480 C 21.647 7.628,21.296 6.688,21.110 6.488 C 20.937 6.304,20.614 6.210,20.391 6.279 M18.073 9.303 C 17.946 9.342,17.845 9.410,17.762 9.510 C 17.575 9.736,17.545 9.900,17.616 10.311 C 17.875 11.811,17.758 13.618,17.335 14.676 C 17.238 14.918,17.234 14.952,17.279 15.152 C 17.431 15.829,18.305 15.953,18.657 15.347 C 18.842 15.029,19.056 14.226,19.167 13.440 C 19.248 12.857,19.236 11.025,19.147 10.440 C 19.027 9.658,18.960 9.502,18.687 9.365 C 18.473 9.257,18.285 9.238,18.073 9.303 M15.420 11.260 C 15.398 11.267,15.330 11.284,15.269 11.298 C 15.117 11.331,14.854 11.577,14.803 11.733 C 14.780 11.803,14.743 12.382,14.721 13.020 C 14.563 17.493,14.416 18.632,13.934 19.087 C 13.751 19.260,13.410 19.399,13.167 19.400 C 12.659 19.401,11.854 19.009,10.343 18.025 C 9.818 17.683,9.773 17.662,9.543 17.649 C 9.256 17.633,9.087 17.708,8.904 17.935 C 8.736 18.142,8.714 18.465,8.850 18.720 C 8.959 18.923,9.323 19.183,10.460 19.868 C 12.037 20.819,12.960 21.076,13.855 20.812 C 14.503 20.622,15.160 20.097,15.449 19.539 C 15.901 18.667,16.025 17.787,16.180 14.324 C 16.251 12.750,16.256 11.889,16.197 11.733 C 16.146 11.597,15.977 11.412,15.840 11.342 C 15.732 11.287,15.485 11.238,15.420 11.260 " fill="#1C274C" stroke="none" fill-rule="evenodd"></path></svg>