<svg width="24" height="24" viewBox="0 0 24 24" fill="none" xmlns="http://www.w3.org/2000/svg"><path d="M6.940 4.279 C 5.850 4.311,5.636 4.328,5.080 4.425 C 4.014 4.610,3.262 5.004,2.559 5.744 C 1.759 6.586,1.439 7.424,1.315 9.005 C 1.251 9.831,1.251 14.165,1.316 14.995 C 1.440 16.586,1.761 17.421,2.576 18.271 C 3.458 19.191,4.319 19.547,6.001 19.687 C 6.886 19.761,17.112 19.761,17.995 19.687 C 19.590 19.555,20.416 19.239,21.256 18.441 C 22.181 17.563,22.554 16.661,22.684 14.995 C 22.749 14.166,22.749 9.830,22.684 9.005 C 22.554 7.341,22.177 6.431,21.256 5.560 C 20.429 4.778,19.580 4.446,18.080 4.318 C 17.473 4.266,8.456 4.235,6.940 4.279 M8.240 7.041 C 8.240 8.032,8.229 8.326,8.190 8.337 C 7.428 8.558,6.921 8.825,6.454 9.253 C 5.898 9.760,5.459 10.560,5.319 11.320 C 5.257 11.654,5.257 12.346,5.319 12.680 C 5.497 13.647,6.098 14.566,6.899 15.097 C 7.194 15.294,7.724 15.540,8.000 15.609 L 8.220 15.665 8.231 16.959 L 8.241 18.252 7.091 18.228 C 5.024 18.184,4.464 18.026,3.719 17.281 C 3.173 16.735,3.000 16.366,2.851 15.430 C 2.788 15.027,2.780 14.666,2.780 12.000 C 2.780 9.325,2.787 8.973,2.852 8.566 C 2.991 7.690,3.176 7.274,3.647 6.778 C 4.412 5.973,5.121 5.781,7.390 5.766 L 8.240 5.760 8.240 7.041 M14.240 12.000 L 14.240 18.240 12.000 18.240 L 9.760 18.240 9.760 12.000 L 9.760 5.760 12.000 5.760 L 14.240 5.760 14.240 12.000 M18.340 5.842 C 18.853 5.908,19.255 6.018,19.600 6.187 C 19.835 6.302,19.983 6.417,20.283 6.717 C 20.714 7.148,20.901 7.467,21.037 8.005 C 21.205 8.668,21.220 9.005,21.220 12.000 C 21.220 14.995,21.205 15.332,21.037 15.995 C 20.901 16.534,20.714 16.852,20.283 17.281 C 19.533 18.027,18.974 18.184,16.909 18.228 L 15.759 18.252 15.769 16.959 L 15.780 15.665 16.000 15.609 C 16.276 15.540,16.806 15.294,17.101 15.097 C 17.902 14.566,18.503 13.647,18.681 12.680 C 18.743 12.346,18.743 11.654,18.681 11.320 C 18.541 10.560,18.102 9.760,17.546 9.253 C 17.079 8.825,16.572 8.558,15.810 8.337 C 15.771 8.326,15.760 8.031,15.760 7.035 L 15.760 5.748 16.870 5.772 C 17.480 5.785,18.142 5.817,18.340 5.842 M8.240 12.000 C 8.240 13.166,8.229 14.120,8.216 14.120 C 8.105 14.120,7.650 13.813,7.419 13.581 C 6.959 13.121,6.760 12.644,6.760 12.000 C 6.760 11.356,6.959 10.879,7.419 10.419 C 7.653 10.185,8.094 9.885,8.210 9.881 C 8.226 9.880,8.240 10.834,8.240 12.000 M16.054 10.009 C 16.195 10.083,16.420 10.258,16.581 10.419 C 17.041 10.879,17.240 11.356,17.240 12.000 C 17.240 12.644,17.041 13.121,16.581 13.581 C 16.350 13.813,15.895 14.120,15.784 14.120 C 15.771 14.120,15.760 13.166,15.760 12.000 C 15.760 10.834,15.771 9.880,15.784 9.880 C 15.798 9.880,15.919 9.938,16.054 10.009 " stroke="none" fill-rule="evenodd" fill="black"></path></svg>