<svg width="24" height="24" viewBox="0 0 24 24" fill="none" xmlns="http://www.w3.org/2000/svg"><path d="M12.140 1.282 C 11.728 1.327,11.503 1.387,11.177 1.537 C 10.250 1.966,9.540 2.826,9.337 3.767 C 9.255 4.148,9.255 4.853,9.338 5.240 C 9.408 5.568,9.602 6.012,9.806 6.310 C 10.257 6.971,11.034 7.509,11.761 7.665 C 12.149 7.748,12.851 7.747,13.240 7.663 C 14.386 7.415,15.415 6.383,15.663 5.233 C 15.745 4.854,15.745 4.146,15.663 3.767 C 15.503 3.026,14.974 2.259,14.307 1.804 C 13.707 1.394,12.896 1.198,12.140 1.282 M13.247 2.930 C 13.618 3.113,13.915 3.415,14.092 3.790 C 14.212 4.043,14.220 4.088,14.220 4.500 C 14.220 4.912,14.212 4.957,14.092 5.210 C 13.914 5.586,13.618 5.887,13.245 6.071 C 12.952 6.216,12.932 6.220,12.500 6.220 C 12.068 6.220,12.048 6.216,11.755 6.071 C 11.382 5.887,11.086 5.586,10.908 5.210 C 10.788 4.957,10.780 4.912,10.780 4.500 C 10.780 4.088,10.788 4.043,10.907 3.791 C 11.123 3.335,11.494 3.003,11.979 2.830 C 12.132 2.775,12.272 2.761,12.564 2.770 C 12.914 2.781,12.976 2.796,13.247 2.930 M10.840 9.282 C 8.843 9.444,7.210 10.771,6.539 12.774 C 6.290 13.520,6.183 14.554,6.327 14.820 C 6.474 15.088,6.717 15.240,7.000 15.240 C 7.201 15.240,7.353 15.181,7.494 15.047 C 7.680 14.871,7.724 14.741,7.761 14.246 C 7.841 13.192,8.224 12.367,8.955 11.671 C 9.217 11.422,9.404 11.285,9.668 11.148 C 9.976 10.989,10.622 10.767,10.659 10.807 C 10.666 10.814,10.600 11.513,10.514 12.360 C 10.326 14.186,10.311 14.769,10.439 15.180 C 10.613 15.735,10.475 15.542,13.551 19.529 C 14.976 21.376,15.937 22.588,16.014 22.634 C 16.575 22.970,17.276 22.456,17.117 21.825 C 17.082 21.687,16.625 21.070,14.931 18.875 C 12.270 15.429,11.992 15.057,11.908 14.847 C 11.808 14.599,11.821 14.278,12.000 12.485 C 12.088 11.604,12.160 10.864,12.160 10.841 C 12.160 10.789,12.390 10.789,12.787 10.842 C 13.428 10.928,13.845 11.127,14.266 11.548 C 14.501 11.783,14.589 11.908,14.740 12.228 C 15.149 13.089,15.208 13.194,15.381 13.375 C 15.798 13.809,16.336 14.045,16.920 14.049 C 17.315 14.051,19.136 13.754,19.350 13.653 C 19.822 13.429,19.866 12.676,19.424 12.386 C 19.195 12.236,19.043 12.238,18.066 12.403 C 16.966 12.588,16.844 12.593,16.621 12.463 C 16.446 12.360,16.404 12.294,16.183 11.767 C 15.881 11.047,15.326 10.382,14.675 9.961 C 14.021 9.538,13.350 9.363,12.077 9.282 C 11.716 9.259,11.375 9.243,11.320 9.246 C 11.265 9.249,11.049 9.265,10.840 9.282 M9.675 16.840 C 9.480 16.943,9.331 17.128,9.279 17.332 C 9.007 18.405,8.672 19.155,8.149 19.862 C 7.880 20.227,7.318 20.786,6.816 21.190 C 6.371 21.547,6.266 21.702,6.265 22.003 C 6.264 22.243,6.386 22.471,6.592 22.617 C 6.820 22.778,7.161 22.783,7.394 22.629 C 7.619 22.480,8.252 21.951,8.574 21.642 C 9.541 20.717,10.357 19.261,10.661 17.920 C 10.783 17.383,10.750 17.196,10.493 16.953 C 10.276 16.747,9.940 16.700,9.675 16.840 " stroke="none" fill-rule="evenodd" fill="black"></path></svg>