<svg width="24" height="24" viewBox="0 0 24 24" fill="none" xmlns="http://www.w3.org/2000/svg"><path d="M11.140 1.282 C 10.728 1.327,10.503 1.387,10.177 1.537 C 9.250 1.966,8.540 2.826,8.337 3.767 C 8.255 4.148,8.255 4.853,8.338 5.240 C 8.408 5.568,8.602 6.012,8.806 6.310 C 9.257 6.971,10.034 7.509,10.761 7.665 C 11.149 7.748,11.851 7.747,12.240 7.663 C 13.386 7.415,14.415 6.383,14.663 5.233 C 14.745 4.854,14.745 4.146,14.663 3.767 C 14.503 3.026,13.974 2.259,13.307 1.804 C 12.707 1.394,11.896 1.198,11.140 1.282 M12.247 2.930 C 12.618 3.113,12.915 3.415,13.092 3.790 C 13.212 4.043,13.220 4.088,13.220 4.500 C 13.220 4.912,13.212 4.957,13.092 5.210 C 12.914 5.586,12.618 5.887,12.245 6.071 C 11.952 6.216,11.932 6.220,11.500 6.220 C 11.068 6.220,11.048 6.216,10.755 6.071 C 10.382 5.887,10.086 5.586,9.908 5.210 C 9.788 4.957,9.780 4.912,9.780 4.500 C 9.780 4.088,9.788 4.043,9.907 3.791 C 10.123 3.335,10.494 3.003,10.979 2.830 C 11.132 2.775,11.272 2.761,11.564 2.770 C 11.914 2.781,11.976 2.796,12.247 2.930 M8.740 9.284 C 7.741 9.340,7.219 9.535,6.715 10.037 C 6.175 10.575,5.999 11.040,5.518 13.209 C 5.192 14.676,5.191 14.691,5.451 14.987 C 5.731 15.305,6.193 15.332,6.494 15.047 C 6.556 14.988,6.632 14.893,6.661 14.836 C 6.691 14.779,6.844 14.158,7.002 13.456 C 7.538 11.066,7.631 10.906,8.547 10.801 C 8.741 10.779,9.075 10.761,9.289 10.760 L 9.678 10.760 9.659 10.870 C 9.623 11.089,9.480 12.634,9.440 13.260 C 9.397 13.910,9.427 14.560,9.519 14.980 C 9.656 15.607,9.964 16.305,10.480 17.160 C 11.022 18.057,13.776 22.425,13.856 22.514 C 14.336 23.048,15.260 22.590,15.139 21.877 C 15.121 21.770,14.669 21.017,13.672 19.431 C 11.406 15.831,11.196 15.465,11.036 14.848 C 10.880 14.247,10.888 13.786,11.088 11.687 L 11.176 10.754 11.978 10.767 C 12.885 10.782,13.005 10.814,13.315 11.125 C 13.510 11.320,13.603 11.514,13.734 12.008 C 13.977 12.923,14.473 13.535,15.281 13.917 C 15.675 14.104,16.054 14.173,16.554 14.151 C 16.938 14.134,17.048 14.110,17.674 13.903 C 18.280 13.702,18.386 13.654,18.521 13.519 C 18.868 13.172,18.813 12.648,18.401 12.376 C 18.150 12.210,17.939 12.226,17.193 12.473 C 16.511 12.698,16.403 12.712,16.078 12.616 C 15.632 12.483,15.342 12.169,15.196 11.661 C 15.006 11.001,14.945 10.837,14.816 10.621 C 14.510 10.114,14.141 9.782,13.593 9.520 C 13.053 9.264,12.815 9.239,10.925 9.246 C 10.031 9.249,9.048 9.266,8.740 9.284 M8.720 16.805 C 8.665 16.827,8.577 16.884,8.525 16.932 C 8.351 17.092,5.328 21.662,5.281 21.836 C 5.161 22.281,5.518 22.725,6.001 22.732 C 6.402 22.738,6.351 22.800,8.012 20.318 C 8.844 19.076,9.571 17.982,9.628 17.887 C 9.806 17.589,9.757 17.196,9.514 16.975 C 9.294 16.775,8.970 16.705,8.720 16.805 " fill="#1C274C" stroke="none" fill-rule="evenodd"></path></svg>