<svg width="24" height="24" viewBox="0 0 24 24" fill="none" xmlns="http://www.w3.org/2000/svg"><path d="M9.060 1.279 C 7.725 1.323,7.168 1.401,6.519 1.638 C 5.618 1.967,5.001 2.565,4.674 3.424 L 4.550 3.749 4.236 3.773 C 3.330 3.843,2.478 4.304,1.934 5.018 C 1.525 5.555,1.337 6.058,1.278 6.775 C 1.230 7.355,1.230 16.645,1.278 17.225 C 1.321 17.739,1.395 18.026,1.586 18.422 C 2.013 19.304,2.858 19.966,3.807 20.162 C 4.012 20.204,4.262 20.239,4.363 20.239 L 4.546 20.240 4.672 20.570 C 5.081 21.647,5.908 22.289,7.234 22.559 C 7.966 22.708,8.698 22.735,12.000 22.735 C 15.301 22.736,16.024 22.709,16.772 22.557 C 18.090 22.290,18.919 21.645,19.328 20.570 L 19.454 20.240 19.637 20.239 C 19.738 20.239,19.988 20.204,20.193 20.162 C 21.142 19.966,21.987 19.304,22.414 18.422 C 22.608 18.021,22.681 17.731,22.722 17.203 C 22.769 16.600,22.769 7.400,22.722 6.797 C 22.681 6.269,22.608 5.979,22.414 5.578 C 22.107 4.943,21.568 4.402,20.940 4.099 C 20.519 3.895,20.199 3.807,19.764 3.773 L 19.450 3.749 19.326 3.424 C 18.832 2.126,17.755 1.473,15.852 1.320 C 15.187 1.266,10.351 1.237,9.060 1.279 M16.136 2.835 C 16.788 2.937,17.268 3.121,17.555 3.380 C 17.836 3.634,18.053 4.161,18.166 4.864 C 18.196 5.054,18.215 7.154,18.227 11.620 L 18.244 18.100 17.512 17.354 C 16.607 16.432,16.312 16.245,15.561 16.120 C 14.791 15.991,14.054 16.202,13.378 16.745 C 13.225 16.867,13.058 16.984,13.007 17.004 C 12.850 17.065,12.658 17.044,12.518 16.950 C 12.445 16.900,11.625 15.969,10.698 14.880 C 9.312 13.254,8.960 12.863,8.725 12.693 C 8.386 12.447,8.123 12.341,7.709 12.284 C 7.037 12.190,6.412 12.380,5.916 12.829 L 5.754 12.975 5.773 9.057 C 5.785 6.553,5.808 5.041,5.835 4.864 C 5.980 3.936,6.253 3.431,6.749 3.171 C 7.170 2.950,7.577 2.854,8.307 2.802 C 8.992 2.753,15.794 2.783,16.136 2.835 M14.180 4.281 C 13.086 4.427,12.276 5.360,12.270 6.480 C 12.267 7.129,12.470 7.630,12.920 8.080 C 13.363 8.523,13.868 8.731,14.500 8.731 C 15.132 8.731,15.637 8.523,16.080 8.080 C 16.523 7.637,16.731 7.132,16.731 6.500 C 16.731 5.868,16.523 5.363,16.080 4.920 C 15.575 4.415,14.894 4.186,14.180 4.281 M4.291 5.550 C 4.250 5.906,4.251 18.099,4.292 18.456 L 4.323 18.731 4.142 18.706 C 3.944 18.679,3.619 18.529,3.403 18.364 C 3.187 18.200,2.929 17.819,2.840 17.532 C 2.762 17.277,2.760 17.168,2.760 12.000 C 2.760 6.832,2.762 6.723,2.840 6.468 C 2.929 6.181,3.187 5.800,3.403 5.636 C 3.665 5.436,4.001 5.290,4.211 5.283 L 4.322 5.280 4.291 5.550 M20.250 5.425 C 20.365 5.483,20.522 5.578,20.597 5.636 C 20.813 5.800,21.071 6.181,21.160 6.468 C 21.238 6.723,21.240 6.832,21.240 12.000 C 21.240 17.168,21.238 17.277,21.160 17.532 C 20.980 18.112,20.405 18.631,19.858 18.706 L 19.677 18.731 19.709 18.396 C 19.726 18.211,19.740 15.333,19.740 12.000 C 19.740 8.667,19.726 5.789,19.709 5.604 L 19.677 5.269 19.858 5.294 C 19.958 5.307,20.134 5.366,20.250 5.425 M14.944 5.903 C 15.173 6.088,15.247 6.255,15.231 6.549 C 15.219 6.752,15.195 6.823,15.097 6.944 C 14.912 7.173,14.745 7.247,14.451 7.231 C 14.248 7.219,14.177 7.195,14.056 7.097 C 13.827 6.912,13.753 6.745,13.769 6.451 C 13.781 6.248,13.805 6.177,13.903 6.056 C 14.088 5.827,14.255 5.753,14.549 5.769 C 14.752 5.781,14.823 5.805,14.944 5.903 M7.744 13.842 C 7.880 13.908,8.246 14.314,9.593 15.892 C 10.517 16.974,11.333 17.917,11.406 17.986 C 11.772 18.331,12.261 18.522,12.781 18.524 C 13.342 18.526,13.644 18.414,14.193 18.001 C 14.622 17.677,14.831 17.588,15.159 17.588 C 15.622 17.588,15.758 17.681,16.644 18.611 C 17.068 19.056,17.540 19.549,17.692 19.706 L 17.969 19.991 17.839 20.236 C 17.556 20.767,17.046 21.035,16.060 21.170 C 15.547 21.241,8.453 21.241,7.940 21.170 C 7.236 21.073,6.748 20.894,6.445 20.620 C 6.256 20.449,6.031 20.021,5.940 19.659 C 5.818 19.170,5.793 18.779,5.772 16.965 L 5.750 15.111 6.365 14.491 C 6.703 14.151,7.034 13.847,7.100 13.818 C 7.276 13.738,7.550 13.748,7.744 13.842 " stroke="none" fill-rule="evenodd" fill="black"></path></svg>