<svg width="24" height="24" viewBox="0 0 24 24" fill="none" xmlns="http://www.w3.org/2000/svg"><path d="M11.200 2.266 C 10.703 2.304,10.185 2.447,9.747 2.666 C 9.597 2.741,8.593 3.387,7.516 4.100 L 5.557 5.398 5.207 5.459 C 4.048 5.660,3.258 6.031,2.635 6.669 C 1.916 7.403,1.562 8.277,1.379 9.767 C 1.272 10.640,1.218 13.731,1.272 15.870 C 1.330 18.176,1.404 18.875,1.682 19.727 C 2.173 21.229,3.266 22.158,4.940 22.495 C 5.931 22.695,7.507 22.758,11.500 22.758 C 15.493 22.758,17.069 22.695,18.060 22.495 C 19.019 22.302,19.823 21.895,20.369 21.327 C 21.116 20.550,21.473 19.626,21.641 18.041 C 21.666 17.811,21.695 17.608,21.706 17.591 C 21.717 17.573,21.795 17.523,21.880 17.480 C 22.087 17.375,22.400 17.051,22.534 16.804 C 22.745 16.416,22.759 16.246,22.759 14.000 C 22.759 11.754,22.745 11.584,22.534 11.196 C 22.400 10.949,22.087 10.625,21.880 10.520 C 21.795 10.477,21.717 10.427,21.706 10.409 C 21.695 10.392,21.666 10.189,21.641 9.959 C 21.473 8.374,21.116 7.450,20.369 6.673 C 19.763 6.042,18.953 5.660,17.793 5.459 L 17.443 5.398 15.482 4.099 C 13.478 2.772,13.175 2.591,12.720 2.447 C 12.264 2.303,11.658 2.231,11.200 2.266 M12.094 3.823 C 12.458 3.915,12.774 4.089,13.682 4.694 L 14.500 5.240 11.500 5.240 L 8.500 5.240 9.310 4.700 C 10.229 4.086,10.491 3.940,10.848 3.838 C 11.171 3.746,11.763 3.738,12.094 3.823 M16.341 6.802 C 17.515 6.879,18.187 7.024,18.767 7.326 C 19.344 7.626,19.753 8.176,19.959 8.928 C 20.034 9.200,20.158 9.953,20.159 10.145 C 20.160 10.229,20.150 10.230,18.930 10.252 C 17.891 10.270,17.644 10.286,17.340 10.355 C 16.516 10.542,15.834 10.923,15.279 11.506 C 14.602 12.219,14.271 13.038,14.271 14.000 C 14.271 15.436,15.098 16.700,16.459 17.345 C 17.162 17.677,17.712 17.760,19.230 17.760 L 20.160 17.760 20.159 17.850 C 20.158 18.046,20.035 18.796,19.959 19.072 C 19.650 20.201,18.955 20.795,17.640 21.056 C 16.860 21.210,16.485 21.220,11.500 21.220 C 7.785 21.220,6.544 21.208,6.160 21.167 C 3.837 20.923,3.100 20.200,2.835 17.900 C 2.769 17.326,2.739 11.675,2.798 10.740 C 2.860 9.750,2.924 9.319,3.089 8.800 C 3.509 7.473,4.423 6.948,6.560 6.805 C 7.313 6.755,15.582 6.752,16.341 6.802 M5.807 9.287 C 5.573 9.339,5.348 9.567,5.286 9.813 C 5.202 10.146,5.333 10.462,5.631 10.647 L 5.780 10.740 8.000 10.740 L 10.220 10.740 10.369 10.647 C 10.943 10.290,10.812 9.424,10.162 9.284 C 9.903 9.229,6.058 9.231,5.807 9.287 M21.151 11.822 L 21.240 11.885 21.240 14.000 L 21.240 16.115 21.151 16.178 C 21.074 16.232,20.845 16.240,19.457 16.240 C 17.664 16.240,17.496 16.220,16.987 15.951 C 16.656 15.776,16.164 15.302,16.007 15.007 C 15.675 14.384,15.675 13.616,16.007 12.993 C 16.164 12.698,16.656 12.224,16.988 12.049 C 17.494 11.781,17.633 11.765,19.441 11.762 C 20.846 11.760,21.074 11.768,21.151 11.822 M17.673 13.063 C 17.312 13.174,17.000 13.609,17.000 14.000 C 17.000 14.524,17.476 15.000,18.000 15.000 C 18.520 15.000,19.000 14.520,19.000 14.000 C 19.000 13.598,18.688 13.173,18.310 13.061 C 18.062 12.987,17.919 12.988,17.673 13.063 " stroke="none" fill-rule="evenodd" fill="black"></path></svg>