<svg width="24" height="24" viewBox="0 0 24 24" fill="none" xmlns="http://www.w3.org/2000/svg"><path d="M7.420 3.283 C 4.824 3.355,3.629 3.695,2.669 4.635 C 1.940 5.348,1.564 6.261,1.379 7.767 C 1.272 8.640,1.218 11.731,1.272 13.870 C 1.330 16.176,1.404 16.875,1.682 17.727 C 2.173 19.229,3.266 20.158,4.940 20.495 C 5.931 20.695,7.507 20.758,11.500 20.758 C 15.493 20.758,17.069 20.695,18.060 20.495 C 19.019 20.302,19.823 19.895,20.369 19.327 C 21.116 18.550,21.473 17.626,21.641 16.041 C 21.666 15.811,21.695 15.608,21.706 15.591 C 21.717 15.573,21.795 15.523,21.880 15.480 C 22.087 15.375,22.400 15.051,22.534 14.804 C 22.745 14.416,22.759 14.246,22.759 12.000 C 22.759 9.754,22.745 9.584,22.534 9.196 C 22.400 8.949,22.087 8.625,21.880 8.520 C 21.795 8.477,21.717 8.427,21.706 8.409 C 21.695 8.392,21.666 8.189,21.641 7.959 C 21.414 5.813,20.737 4.631,19.332 3.925 C 18.490 3.503,17.494 3.341,15.360 3.280 C 13.833 3.236,9.033 3.238,7.420 3.283 M16.341 4.802 C 17.515 4.879,18.187 5.024,18.767 5.326 C 19.344 5.626,19.753 6.176,19.959 6.928 C 20.034 7.200,20.158 7.953,20.159 8.145 C 20.160 8.229,20.150 8.230,18.930 8.252 C 17.891 8.270,17.644 8.286,17.340 8.355 C 16.516 8.542,15.834 8.923,15.279 9.506 C 14.602 10.219,14.271 11.038,14.271 12.000 C 14.271 13.436,15.098 14.700,16.459 15.345 C 17.162 15.677,17.712 15.760,19.230 15.760 L 20.160 15.760 20.159 15.850 C 20.158 16.046,20.035 16.796,19.959 17.072 C 19.650 18.201,18.955 18.795,17.640 19.056 C 16.860 19.210,16.485 19.220,11.500 19.220 C 7.785 19.220,6.544 19.208,6.160 19.167 C 3.837 18.923,3.100 18.200,2.835 15.900 C 2.769 15.326,2.739 9.675,2.798 8.740 C 2.860 7.750,2.924 7.319,3.089 6.800 C 3.509 5.473,4.423 4.948,6.560 4.805 C 7.313 4.755,15.582 4.752,16.341 4.802 M6.826 8.286 C 6.625 8.331,6.468 8.445,6.353 8.631 L 6.260 8.780 6.260 12.000 L 6.260 15.220 6.355 15.373 C 6.506 15.615,6.718 15.733,7.003 15.733 C 7.203 15.733,7.270 15.714,7.408 15.617 C 7.499 15.553,7.610 15.428,7.656 15.340 C 7.739 15.182,7.740 15.135,7.751 12.120 C 7.759 10.071,7.748 8.995,7.720 8.862 C 7.628 8.432,7.252 8.190,6.826 8.286 M21.151 9.822 L 21.240 9.885 21.240 12.000 L 21.240 14.115 21.151 14.178 C 21.074 14.232,20.845 14.240,19.457 14.240 C 17.664 14.240,17.496 14.220,16.987 13.951 C 16.656 13.776,16.164 13.302,16.007 13.007 C 15.675 12.384,15.675 11.616,16.007 10.993 C 16.164 10.698,16.656 10.224,16.988 10.049 C 17.494 9.781,17.633 9.765,19.441 9.762 C 20.846 9.760,21.074 9.768,21.151 9.822 M17.673 11.063 C 17.312 11.174,17.000 11.609,17.000 12.000 C 17.000 12.524,17.476 13.000,18.000 13.000 C 18.520 13.000,19.000 12.520,19.000 12.000 C 19.000 11.598,18.688 11.173,18.310 11.061 C 18.062 10.987,17.919 10.988,17.673 11.063 " stroke="none" fill-rule="evenodd" fill="black"></path></svg>