<svg width="24" height="24" viewBox="0 0 24 24" fill="none" xmlns="http://www.w3.org/2000/svg"><path d="M8.400 1.283 C 5.821 1.356,4.626 1.697,3.669 2.635 C 2.935 3.353,2.558 4.273,2.379 5.787 C 2.204 7.266,2.190 15.489,2.360 17.060 C 2.531 18.644,2.894 19.574,3.635 20.331 C 3.781 20.480,4.022 20.684,4.170 20.784 C 4.400 20.938,4.942 21.215,5.165 21.291 C 5.218 21.310,5.233 21.395,5.247 21.770 C 5.262 22.155,5.279 22.248,5.355 22.372 C 5.708 22.944,6.577 22.810,6.716 22.162 C 6.740 22.049,6.760 21.882,6.760 21.792 L 6.760 21.628 7.070 21.656 C 8.539 21.786,15.458 21.787,16.924 21.656 L 17.228 21.629 17.251 21.935 C 17.285 22.392,17.464 22.631,17.833 22.714 C 18.240 22.805,18.630 22.562,18.716 22.162 C 18.740 22.049,18.760 21.812,18.760 21.637 C 18.760 21.369,18.771 21.314,18.830 21.293 C 18.869 21.280,19.050 21.200,19.234 21.115 C 20.239 20.653,20.938 19.862,21.302 18.779 C 21.673 17.674,21.758 16.317,21.758 11.500 C 21.758 6.683,21.673 5.326,21.302 4.221 C 20.886 2.984,20.016 2.114,18.779 1.698 C 18.005 1.439,17.137 1.331,15.400 1.280 C 13.915 1.237,9.973 1.238,8.400 1.283 M16.340 2.801 C 17.538 2.880,18.127 3.005,18.738 3.310 C 19.476 3.679,19.921 4.440,20.099 5.639 C 20.171 6.124,20.240 7.162,20.240 7.769 L 20.240 8.240 11.994 8.240 L 3.747 8.240 3.773 7.390 C 3.811 6.099,3.897 5.390,4.087 4.800 C 4.521 3.457,5.411 2.948,7.580 2.804 C 8.285 2.757,15.634 2.754,16.340 2.801 M14.046 4.623 C 13.680 4.808,13.499 5.141,13.527 5.580 C 13.548 5.907,13.704 6.169,13.978 6.339 C 14.154 6.448,14.207 6.460,14.500 6.460 C 14.793 6.460,14.846 6.448,15.022 6.339 C 15.143 6.264,15.264 6.143,15.339 6.022 C 15.448 5.846,15.460 5.793,15.460 5.500 C 15.460 5.207,15.448 5.154,15.339 4.978 C 15.160 4.689,14.905 4.545,14.544 4.528 C 14.299 4.517,14.230 4.530,14.046 4.623 M17.046 4.623 C 16.680 4.808,16.499 5.141,16.527 5.580 C 16.548 5.907,16.704 6.169,16.978 6.339 C 17.154 6.448,17.207 6.460,17.500 6.460 C 17.793 6.460,17.846 6.448,18.022 6.339 C 18.143 6.264,18.264 6.143,18.339 6.022 C 18.448 5.846,18.460 5.793,18.460 5.500 C 18.460 5.207,18.448 5.154,18.339 4.978 C 18.160 4.689,17.905 4.545,17.544 4.528 C 17.299 4.517,17.230 4.530,17.046 4.623 M6.180 4.835 C 5.990 4.923,5.904 5.012,5.822 5.210 C 5.708 5.483,5.783 5.869,5.986 6.048 C 6.194 6.234,6.263 6.240,8.009 6.239 C 9.525 6.238,9.673 6.232,9.820 6.165 C 10.010 6.077,10.096 5.988,10.178 5.790 C 10.257 5.602,10.257 5.398,10.178 5.210 C 10.096 5.012,10.010 4.923,9.820 4.835 C 9.673 4.768,9.526 4.762,8.000 4.762 C 6.474 4.762,6.327 4.768,6.180 4.835 M20.240 12.731 C 20.240 16.404,20.194 17.218,19.939 18.099 C 19.646 19.111,19.109 19.647,18.093 19.941 C 17.624 20.077,17.126 20.148,16.260 20.202 C 15.307 20.261,7.627 20.230,7.080 20.165 C 4.819 19.894,4.103 19.178,3.836 16.920 C 3.807 16.681,3.784 15.285,3.772 13.150 L 3.754 9.760 11.997 9.760 L 20.240 9.760 20.240 12.731 M11.740 11.266 C 10.415 11.385,9.327 12.085,8.719 13.212 C 8.400 13.803,8.271 14.320,8.271 15.000 C 8.271 15.682,8.400 16.197,8.721 16.792 C 9.078 17.453,9.549 17.923,10.212 18.281 C 10.803 18.600,11.320 18.729,12.000 18.729 C 12.680 18.729,13.197 18.600,13.788 18.281 C 14.451 17.923,14.922 17.453,15.279 16.792 C 15.600 16.197,15.729 15.682,15.729 15.000 C 15.729 14.320,15.600 13.803,15.281 13.212 C 14.832 12.381,14.122 11.779,13.215 11.463 C 12.793 11.316,12.149 11.230,11.740 11.266 M12.578 12.821 C 12.949 12.918,13.274 13.112,13.581 13.419 C 14.041 13.879,14.240 14.356,14.240 15.000 C 14.240 15.644,14.041 16.121,13.581 16.581 C 13.121 17.041,12.644 17.240,12.000 17.240 C 11.356 17.240,10.879 17.041,10.419 16.581 C 9.959 16.121,9.760 15.644,9.760 15.000 C 9.760 14.356,9.959 13.879,10.419 13.419 C 10.719 13.118,11.050 12.919,11.404 12.823 C 11.692 12.746,12.285 12.745,12.578 12.821 " stroke="none" fill-rule="evenodd" fill="black"></path></svg>