<svg width="24" height="24" viewBox="0 0 24 24" fill="none" xmlns="http://www.w3.org/2000/svg"><path d="M8.400 1.283 C 6.908 1.325,5.965 1.449,5.221 1.698 C 3.984 2.114,3.114 2.984,2.698 4.221 C 2.317 5.356,2.242 6.641,2.242 12.000 C 2.242 16.468,2.288 17.804,2.481 18.904 C 2.831 20.904,3.950 22.075,5.899 22.482 C 6.884 22.687,8.438 22.758,12.000 22.758 C 16.280 22.758,17.706 22.662,18.779 22.302 C 20.016 21.886,20.886 21.016,21.302 19.779 C 21.682 18.646,21.758 17.355,21.758 12.000 C 21.758 6.645,21.682 5.354,21.302 4.221 C 20.886 2.984,20.016 2.114,18.779 1.698 C 18.005 1.439,17.137 1.331,15.400 1.280 C 13.915 1.237,9.973 1.238,8.400 1.283 M16.340 2.801 C 17.245 2.860,17.701 2.931,18.200 3.089 C 19.552 3.517,20.050 4.407,20.198 6.659 C 20.254 7.516,20.254 16.484,20.198 17.341 C 20.047 19.644,19.533 20.523,18.099 20.939 C 17.624 21.077,17.129 21.147,16.260 21.202 C 15.307 21.261,7.627 21.230,7.080 21.165 C 4.793 20.891,4.076 20.157,3.833 17.840 C 3.756 17.116,3.756 6.884,3.833 6.160 C 4.090 3.704,4.897 2.982,7.580 2.804 C 8.285 2.757,15.634 2.754,16.340 2.801 M7.815 5.278 C 7.331 5.393,7.098 6.004,7.383 6.408 C 7.447 6.499,7.572 6.610,7.660 6.656 C 7.819 6.739,7.851 6.740,11.879 6.751 C 14.744 6.759,16.001 6.749,16.153 6.717 C 16.902 6.562,16.930 5.473,16.189 5.286 C 15.979 5.234,8.034 5.226,7.815 5.278 M11.533 8.282 C 9.517 8.447,7.758 9.641,6.851 11.460 C 6.072 13.023,6.072 14.977,6.851 16.540 C 8.149 19.142,11.146 20.367,13.895 19.418 C 14.564 19.187,15.254 18.784,15.787 18.313 C 17.543 16.763,18.184 14.323,17.418 12.105 C 16.771 10.233,15.117 8.776,13.189 8.383 C 12.932 8.330,11.989 8.229,11.920 8.246 C 11.909 8.249,11.735 8.265,11.533 8.282 M13.020 9.873 C 13.841 10.104,14.443 10.447,14.998 11.002 C 15.732 11.737,16.166 12.680,16.227 13.676 L 16.253 14.093 16.156 14.065 C 15.421 13.854,14.961 13.785,14.440 13.810 C 13.750 13.843,13.288 14.038,12.480 14.638 C 11.975 15.012,11.799 15.090,11.415 15.112 C 11.067 15.131,10.691 15.070,10.111 14.902 C 9.627 14.761,9.183 14.565,8.440 14.164 L 7.780 13.808 7.787 13.557 C 7.797 13.227,7.897 12.827,8.083 12.369 C 8.579 11.150,9.734 10.166,11.020 9.867 C 11.458 9.766,11.465 9.765,12.120 9.780 C 12.581 9.790,12.812 9.814,13.020 9.873 M15.106 15.340 C 15.470 15.409,15.920 15.552,15.920 15.598 C 15.920 15.682,15.729 16.053,15.532 16.350 C 14.957 17.223,14.057 17.851,12.960 18.147 C 12.576 18.251,11.454 18.249,11.040 18.144 C 9.980 17.875,9.047 17.224,8.464 16.347 C 8.263 16.046,8.093 15.720,8.135 15.720 C 8.145 15.720,8.308 15.792,8.498 15.879 C 9.981 16.561,11.383 16.778,12.284 16.464 C 12.611 16.350,12.894 16.185,13.440 15.788 C 13.649 15.636,13.887 15.478,13.969 15.436 C 14.284 15.274,14.617 15.246,15.106 15.340 " stroke="none" fill-rule="evenodd" fill="black"></path></svg>