<svg width="24" height="24" viewBox="0 0 24 24" fill="none" xmlns="http://www.w3.org/2000/svg"><path d="M9.640 1.280 C 8.774 1.348,8.280 1.522,7.813 1.926 C 7.304 2.366,7.047 2.925,6.725 4.287 L 6.577 4.915 6.318 5.087 C 6.176 5.181,5.911 5.402,5.729 5.576 C 4.810 6.456,4.446 7.337,4.316 9.000 C 4.250 9.833,4.251 14.162,4.316 15.000 C 4.446 16.661,4.809 17.542,5.729 18.425 C 5.911 18.599,6.179 18.821,6.325 18.916 L 6.590 19.090 6.680 19.495 C 6.992 20.882,7.241 21.482,7.698 21.941 C 8.397 22.643,8.999 22.757,12.000 22.757 C 15.001 22.757,15.603 22.643,16.302 21.941 C 16.759 21.482,17.008 20.882,17.320 19.495 L 17.410 19.090 17.675 18.916 C 18.029 18.683,18.521 18.210,18.806 17.827 C 19.331 17.122,19.581 16.315,19.684 14.995 C 19.749 14.166,19.749 9.830,19.684 9.005 C 19.581 7.683,19.337 6.896,18.809 6.180 C 18.530 5.801,18.040 5.328,17.681 5.089 L 17.424 4.917 17.275 4.289 C 17.089 3.502,16.948 3.054,16.778 2.717 C 16.381 1.928,15.818 1.521,14.860 1.330 C 14.532 1.265,10.353 1.225,9.640 1.280 M14.400 2.801 C 14.892 2.852,15.168 2.982,15.344 3.245 C 15.465 3.426,15.660 3.967,15.705 4.246 L 15.728 4.385 15.494 4.355 C 14.387 4.215,8.798 4.236,8.312 4.383 C 8.252 4.402,8.256 4.363,8.346 4.032 C 8.597 3.110,8.826 2.881,9.580 2.801 C 10.005 2.755,13.966 2.756,14.400 2.801 M15.340 5.836 C 15.848 5.909,16.276 6.028,16.600 6.187 C 16.835 6.301,16.984 6.417,17.283 6.717 C 17.843 7.277,18.039 7.722,18.167 8.725 C 18.243 9.317,18.243 14.683,18.167 15.275 C 18.039 16.279,17.843 16.725,17.283 17.281 C 16.733 17.828,16.364 18.000,15.430 18.149 C 15.027 18.212,14.666 18.220,12.000 18.220 C 9.334 18.220,8.973 18.212,8.570 18.149 C 7.634 18.000,7.265 17.827,6.719 17.281 C 6.173 16.735,6.000 16.366,5.851 15.430 C 5.788 15.027,5.780 14.666,5.780 12.000 C 5.780 9.325,5.787 8.973,5.852 8.566 C 5.991 7.690,6.176 7.274,6.647 6.778 C 7.257 6.136,7.855 5.895,9.068 5.803 C 9.748 5.752,14.941 5.779,15.340 5.836 M11.826 8.286 C 11.625 8.331,11.468 8.445,11.353 8.631 L 11.260 8.780 11.260 10.520 C 11.260 12.115,11.266 12.272,11.332 12.404 C 11.405 12.551,13.423 14.514,13.646 14.656 C 13.721 14.703,13.842 14.732,13.974 14.734 C 14.398 14.740,14.722 14.441,14.730 14.037 C 14.733 13.904,14.708 13.763,14.665 13.674 C 14.623 13.586,14.225 13.175,13.679 12.654 L 12.763 11.780 12.761 10.400 C 12.759 9.604,12.741 8.944,12.717 8.841 C 12.622 8.428,12.243 8.192,11.826 8.286 M8.960 19.677 C 10.450 19.779,14.624 19.757,15.500 19.643 C 15.632 19.625,15.744 19.614,15.749 19.618 C 15.754 19.622,15.712 19.795,15.655 20.002 C 15.492 20.598,15.299 20.924,15.023 21.068 C 14.738 21.217,14.374 21.237,12.000 21.237 C 9.626 21.237,9.262 21.217,8.977 21.068 C 8.710 20.929,8.509 20.599,8.362 20.060 C 8.314 19.884,8.265 19.707,8.253 19.666 C 8.237 19.609,8.249 19.597,8.306 19.615 C 8.347 19.627,8.641 19.655,8.960 19.677 " stroke="none" fill-rule="evenodd" fill="black"></path></svg>