<svg width="24" height="24" viewBox="0 0 24 24" fill="none" xmlns="http://www.w3.org/2000/svg"><path d="M9.900 1.281 C 8.801 1.328,8.222 1.533,7.698 2.059 C 7.195 2.564,7.011 3.041,6.581 4.960 L 6.352 5.980 6.082 6.260 C 4.909 7.475,4.151 8.985,3.853 10.700 C 3.801 11.000,3.784 11.326,3.784 12.000 C 3.784 12.674,3.801 13.000,3.853 13.300 C 4.151 15.015,4.909 16.525,6.082 17.740 L 6.352 18.020 6.581 19.040 C 7.011 20.959,7.195 21.436,7.698 21.941 C 8.397 22.643,8.999 22.757,12.000 22.757 C 15.001 22.757,15.603 22.643,16.302 21.941 C 16.805 21.436,16.989 20.959,17.419 19.040 L 17.648 18.020 17.918 17.740 C 19.191 16.421,19.999 14.696,20.198 12.872 C 20.459 10.471,19.612 8.015,17.918 6.260 L 17.648 5.980 17.419 4.960 C 16.989 3.041,16.805 2.564,16.302 2.059 C 15.756 1.511,15.239 1.338,13.980 1.279 C 13.082 1.238,10.873 1.238,9.900 1.281 M14.507 2.803 C 15.042 2.878,15.238 3.004,15.443 3.407 C 15.538 3.594,15.862 4.680,15.823 4.680 C 15.816 4.680,15.657 4.608,15.468 4.519 C 15.011 4.305,14.154 4.023,13.660 3.924 C 11.939 3.579,10.077 3.795,8.532 4.519 C 8.343 4.608,8.184 4.680,8.177 4.680 C 8.171 4.680,8.228 4.445,8.304 4.157 C 8.570 3.149,8.780 2.904,9.462 2.804 C 9.821 2.752,14.132 2.751,14.507 2.803 M13.071 5.339 C 14.443 5.547,15.737 6.213,16.762 7.238 C 17.815 8.291,18.482 9.618,18.684 11.060 C 18.749 11.522,18.749 12.478,18.684 12.940 C 18.377 15.132,16.984 17.050,14.966 18.058 C 14.413 18.335,13.725 18.556,13.071 18.667 C 12.603 18.746,11.501 18.756,11.040 18.684 C 9.559 18.455,8.289 17.813,7.238 16.762 C 6.187 15.711,5.545 14.441,5.316 12.960 C 5.244 12.499,5.254 11.397,5.333 10.929 C 5.703 8.753,7.055 6.931,9.034 5.942 C 9.789 5.565,10.557 5.360,11.580 5.264 C 11.842 5.239,12.697 5.282,13.071 5.339 M11.647 8.265 C 11.464 8.359,11.330 8.547,11.279 8.787 C 11.251 8.919,11.240 9.542,11.248 10.585 C 11.259 12.035,11.267 12.193,11.333 12.327 C 11.411 12.483,13.485 14.497,13.672 14.598 C 13.732 14.630,13.881 14.656,14.005 14.655 C 14.276 14.652,14.477 14.543,14.626 14.318 C 14.748 14.133,14.765 13.808,14.664 13.593 C 14.625 13.512,14.209 13.082,13.681 12.577 L 12.764 11.702 12.752 10.221 C 12.739 8.565,12.736 8.548,12.449 8.329 C 12.269 8.192,11.856 8.159,11.647 8.265 M8.408 19.424 C 8.990 19.719,9.915 20.011,10.700 20.147 C 11.262 20.244,12.737 20.245,13.300 20.147 C 14.065 20.015,14.997 19.722,15.569 19.435 C 15.695 19.372,15.806 19.320,15.816 19.320 C 15.857 19.320,15.551 20.381,15.455 20.573 C 15.256 20.972,15.079 21.098,14.603 21.183 C 14.167 21.261,9.833 21.261,9.397 21.183 C 8.921 21.098,8.744 20.972,8.545 20.573 C 8.449 20.380,8.143 19.320,8.184 19.320 C 8.194 19.320,8.295 19.367,8.408 19.424 " stroke="none" fill-rule="evenodd" fill="black"></path></svg>