<svg width="24" height="24" viewBox="0 0 24 24" fill="none" xmlns="http://www.w3.org/2000/svg"><path d="M6.826 1.284 C 6.476 1.366,6.267 1.636,6.267 2.003 C 6.267 2.281,6.387 2.496,6.627 2.645 L 6.780 2.740 12.000 2.740 L 17.220 2.740 17.369 2.647 C 17.943 2.290,17.812 1.424,17.162 1.284 C 16.906 1.229,7.060 1.229,6.826 1.284 M9.940 4.278 C 8.850 4.311,8.636 4.328,8.080 4.425 C 7.014 4.610,6.262 5.004,5.559 5.744 C 4.759 6.586,4.439 7.424,4.315 9.005 C 4.251 9.831,4.251 14.165,4.316 14.995 C 4.440 16.586,4.761 17.421,5.576 18.271 C 6.459 19.193,7.334 19.554,9.001 19.684 C 9.833 19.750,14.164 19.750,14.995 19.685 C 16.576 19.561,17.414 19.241,18.256 18.441 C 19.181 17.563,19.554 16.661,19.684 14.995 C 19.749 14.166,19.749 9.830,19.684 9.005 C 19.554 7.341,19.177 6.431,18.256 5.560 C 17.417 4.767,16.542 4.430,15.040 4.322 C 14.286 4.268,11.188 4.241,9.940 4.278 M15.340 5.836 C 15.848 5.909,16.276 6.028,16.600 6.187 C 16.835 6.301,16.984 6.417,17.283 6.717 C 17.843 7.277,18.039 7.722,18.167 8.725 C 18.243 9.317,18.243 14.683,18.167 15.275 C 18.039 16.279,17.843 16.725,17.283 17.281 C 16.733 17.828,16.364 18.000,15.430 18.149 C 15.027 18.212,14.666 18.220,12.000 18.220 C 9.334 18.220,8.973 18.212,8.570 18.149 C 7.634 18.000,7.265 17.827,6.719 17.281 C 6.173 16.735,6.000 16.366,5.851 15.430 C 5.788 15.027,5.780 14.666,5.780 12.000 C 5.780 9.325,5.787 8.973,5.852 8.566 C 5.991 7.690,6.176 7.274,6.647 6.778 C 7.257 6.136,7.855 5.895,9.068 5.803 C 9.748 5.752,14.941 5.779,15.340 5.836 M11.807 8.289 C 11.556 8.343,11.341 8.570,11.281 8.846 C 11.248 8.996,11.238 9.541,11.247 10.660 C 11.259 12.104,11.267 12.274,11.332 12.404 C 11.405 12.551,13.423 14.514,13.646 14.656 C 13.721 14.703,13.842 14.732,13.974 14.734 C 14.398 14.740,14.722 14.441,14.730 14.037 C 14.733 13.904,14.708 13.763,14.665 13.674 C 14.623 13.586,14.225 13.175,13.679 12.654 L 12.763 11.780 12.761 10.400 C 12.759 9.604,12.741 8.944,12.717 8.841 C 12.620 8.420,12.247 8.194,11.807 8.289 M6.826 21.284 C 6.476 21.366,6.267 21.636,6.267 22.003 C 6.267 22.281,6.387 22.496,6.627 22.645 L 6.780 22.740 12.000 22.740 L 17.220 22.740 17.369 22.647 C 17.943 22.290,17.812 21.424,17.162 21.284 C 16.906 21.229,7.060 21.229,6.826 21.284 " stroke="none" fill-rule="evenodd" fill="black"></path></svg>