<svg width="24" height="24" viewBox="0 0 24 24" fill="none" xmlns="http://www.w3.org/2000/svg"><path d="M11.500 1.283 C 10.749 1.342,10.031 1.540,9.240 1.906 C 5.372 3.697,2.767 7.384,2.319 11.700 C 2.237 12.486,2.255 13.915,2.356 14.580 C 2.684 16.758,3.633 18.616,5.185 20.120 C 6.663 21.553,8.428 22.400,10.520 22.684 C 10.753 22.715,11.327 22.735,12.000 22.735 C 12.673 22.735,13.247 22.715,13.480 22.684 C 15.572 22.400,17.337 21.553,18.815 20.120 C 20.367 18.616,21.316 16.759,21.645 14.580 C 21.804 13.526,21.749 11.784,21.519 10.600 C 20.791 6.841,18.401 3.693,15.007 2.022 C 13.784 1.420,12.691 1.189,11.500 1.283 M12.803 2.823 C 13.334 2.924,13.739 3.067,14.382 3.383 C 15.416 3.891,16.164 4.414,16.975 5.200 C 18.611 6.783,19.729 8.890,20.095 11.080 C 20.205 11.737,20.240 12.212,20.240 13.037 C 20.240 14.531,20.006 15.591,19.403 16.820 C 19.001 17.640,18.621 18.175,17.941 18.875 C 16.699 20.156,15.175 20.936,13.441 21.178 C 12.833 21.263,11.167 21.263,10.559 21.178 C 9.205 20.989,7.951 20.457,6.854 19.605 C 6.465 19.304,5.721 18.557,5.434 18.180 C 4.717 17.240,4.154 16.014,3.926 14.900 C 3.794 14.254,3.760 13.870,3.760 13.021 C 3.761 11.143,4.087 9.724,4.884 8.121 C 5.736 6.410,7.033 4.952,8.602 3.945 C 9.082 3.636,10.097 3.129,10.491 3.001 C 11.226 2.762,12.118 2.693,12.803 2.823 M11.200 5.556 C 11.027 5.612,10.511 5.883,10.220 6.070 C 8.811 6.976,7.686 8.396,7.058 10.060 C 6.858 10.592,6.836 10.858,6.974 11.093 C 7.093 11.296,7.207 11.381,7.448 11.445 C 7.847 11.550,8.187 11.314,8.378 10.800 C 8.846 9.539,9.428 8.663,10.339 7.849 C 10.671 7.552,11.027 7.307,11.463 7.076 C 11.637 6.983,11.832 6.861,11.895 6.804 C 12.240 6.492,12.178 5.891,11.776 5.656 C 11.585 5.543,11.358 5.504,11.200 5.556 " stroke="none" fill-rule="evenodd" fill="black"></path></svg>