<svg width="24" height="24" viewBox="0 0 24 24" fill="none" xmlns="http://www.w3.org/2000/svg"><path d="M5.820 5.268 C 5.255 5.344,4.914 5.575,4.454 6.192 C 3.629 7.300,3.078 7.703,1.933 8.037 C 1.470 8.172,1.269 8.399,1.269 8.786 C 1.269 9.058,1.411 9.306,1.641 9.435 C 1.785 9.517,1.846 9.527,2.074 9.509 C 2.615 9.467,3.557 9.074,4.178 8.632 C 4.591 8.338,5.122 7.794,5.517 7.260 C 5.680 7.040,5.840 6.838,5.874 6.810 C 5.994 6.712,6.161 6.751,6.315 6.912 C 7.239 7.881,7.622 8.225,8.203 8.607 C 9.499 9.461,10.954 9.830,12.591 9.719 C 14.572 9.586,16.190 8.806,17.434 7.385 C 17.737 7.039,17.829 6.958,17.945 6.936 C 18.154 6.897,18.246 6.960,18.523 7.327 C 19.040 8.013,19.706 8.601,20.405 8.990 C 20.860 9.243,21.711 9.520,22.034 9.520 C 22.418 9.520,22.731 9.190,22.731 8.786 C 22.731 8.399,22.530 8.172,22.067 8.037 C 21.643 7.913,21.203 7.734,20.915 7.567 C 20.608 7.390,19.949 6.747,19.617 6.302 C 19.173 5.705,18.785 5.482,18.133 5.449 C 17.433 5.414,16.963 5.645,16.390 6.305 C 15.538 7.287,14.581 7.857,13.332 8.125 C 12.769 8.246,11.675 8.274,11.113 8.182 C 9.779 7.963,8.712 7.323,7.580 6.064 C 7.225 5.670,6.967 5.478,6.638 5.365 C 6.409 5.286,6.023 5.240,5.820 5.268 M5.820 10.268 C 5.255 10.344,4.914 10.575,4.454 11.192 C 3.629 12.300,3.078 12.703,1.933 13.037 C 1.470 13.172,1.269 13.399,1.269 13.786 C 1.269 14.058,1.411 14.306,1.641 14.435 C 1.785 14.517,1.846 14.527,2.074 14.509 C 2.615 14.467,3.557 14.074,4.178 13.632 C 4.591 13.338,5.122 12.794,5.517 12.260 C 5.680 12.040,5.840 11.838,5.874 11.810 C 5.994 11.712,6.161 11.751,6.315 11.912 C 7.239 12.881,7.622 13.225,8.203 13.607 C 9.499 14.461,10.954 14.830,12.591 14.719 C 14.572 14.586,16.190 13.806,17.434 12.385 C 17.737 12.039,17.829 11.958,17.945 11.936 C 18.154 11.897,18.246 11.960,18.523 12.327 C 19.040 13.013,19.706 13.601,20.405 13.990 C 20.860 14.243,21.711 14.520,22.034 14.520 C 22.418 14.520,22.731 14.190,22.731 13.786 C 22.731 13.399,22.530 13.172,22.067 13.037 C 21.643 12.913,21.203 12.734,20.915 12.567 C 20.608 12.390,19.949 11.747,19.617 11.302 C 19.173 10.705,18.785 10.482,18.133 10.449 C 17.433 10.414,16.963 10.645,16.390 11.305 C 15.538 12.287,14.581 12.857,13.332 13.125 C 12.769 13.246,11.675 13.274,11.113 13.182 C 9.779 12.963,8.712 12.323,7.580 11.064 C 7.225 10.670,6.967 10.478,6.638 10.365 C 6.409 10.286,6.023 10.240,5.820 10.268 M5.820 15.268 C 5.255 15.344,4.914 15.575,4.454 16.192 C 3.629 17.300,3.078 17.703,1.933 18.037 C 1.470 18.172,1.269 18.399,1.269 18.786 C 1.269 19.058,1.411 19.306,1.641 19.435 C 1.785 19.517,1.846 19.527,2.074 19.509 C 2.615 19.467,3.557 19.074,4.178 18.632 C 4.591 18.338,5.122 17.794,5.517 17.260 C 5.680 17.040,5.840 16.837,5.874 16.810 C 5.994 16.712,6.161 16.751,6.315 16.912 C 7.239 17.881,7.622 18.225,8.203 18.607 C 9.499 19.461,10.954 19.830,12.591 19.719 C 14.572 19.586,16.190 18.806,17.434 17.385 C 17.737 17.039,17.829 16.958,17.945 16.936 C 18.154 16.897,18.246 16.960,18.523 17.327 C 19.040 18.013,19.706 18.601,20.405 18.990 C 20.860 19.243,21.711 19.520,22.034 19.520 C 22.418 19.520,22.731 19.190,22.731 18.786 C 22.731 18.399,22.530 18.172,22.067 18.037 C 21.643 17.913,21.203 17.734,20.915 17.567 C 20.608 17.390,19.949 16.747,19.617 16.302 C 19.173 15.705,18.785 15.482,18.133 15.449 C 17.433 15.414,16.963 15.645,16.390 16.305 C 15.538 17.287,14.581 17.857,13.332 18.125 C 12.769 18.246,11.675 18.274,11.113 18.182 C 9.779 17.963,8.712 17.323,7.580 16.064 C 7.225 15.670,6.967 15.478,6.638 15.365 C 6.409 15.286,6.023 15.240,5.820 15.268 " stroke="none" fill-rule="evenodd" fill="black"></path></svg>