<svg width="24" height="24" viewBox="0 0 24 24" fill="none" xmlns="http://www.w3.org/2000/svg"><path d="M11.380 2.013 C 10.859 2.147,10.474 2.410,9.926 3.010 C 8.663 4.391,7.799 5.686,7.461 6.700 C 7.192 7.507,7.208 8.504,7.503 9.397 C 8.505 12.432,11.964 13.674,14.590 11.944 C 15.636 11.255,16.432 10.022,16.661 8.737 C 16.745 8.262,16.748 7.497,16.667 7.156 C 16.411 6.082,15.696 4.874,14.491 3.480 C 13.414 2.233,13.038 1.998,12.080 1.975 C 11.765 1.967,11.506 1.981,11.380 2.013 M12.391 3.520 C 12.769 3.691,14.056 5.215,14.637 6.177 C 15.067 6.891,15.239 7.383,15.240 7.903 C 15.241 8.840,14.904 9.625,14.203 10.322 C 13.867 10.656,13.766 10.730,13.399 10.910 C 12.911 11.150,12.530 11.240,12.000 11.240 C 11.470 11.240,11.089 11.150,10.601 10.910 C 10.234 10.730,10.133 10.656,9.797 10.322 C 9.096 9.625,8.759 8.840,8.760 7.903 C 8.761 7.385,8.939 6.874,9.355 6.191 C 9.974 5.176,11.224 3.694,11.609 3.519 C 11.833 3.418,12.167 3.418,12.391 3.520 M5.380 12.013 C 4.859 12.147,4.474 12.410,3.926 13.010 C 2.663 14.391,1.799 15.686,1.461 16.700 C 1.192 17.507,1.208 18.504,1.503 19.397 C 2.505 22.432,5.964 23.674,8.590 21.944 C 9.636 21.255,10.432 20.022,10.661 18.737 C 10.745 18.262,10.748 17.497,10.667 17.156 C 10.411 16.082,9.696 14.874,8.491 13.480 C 7.414 12.233,7.038 11.998,6.080 11.975 C 5.765 11.967,5.506 11.981,5.380 12.013 M17.380 12.013 C 16.859 12.147,16.474 12.410,15.926 13.010 C 14.663 14.391,13.799 15.686,13.461 16.700 C 13.192 17.507,13.208 18.504,13.503 19.397 C 14.505 22.432,17.964 23.674,20.590 21.944 C 21.636 21.255,22.432 20.022,22.661 18.737 C 22.745 18.262,22.748 17.497,22.667 17.156 C 22.411 16.082,21.696 14.874,20.491 13.480 C 19.414 12.233,19.038 11.998,18.080 11.975 C 17.765 11.967,17.506 11.981,17.380 12.013 M6.391 13.520 C 6.769 13.691,8.056 15.215,8.637 16.177 C 9.067 16.891,9.239 17.383,9.240 17.903 C 9.241 18.840,8.904 19.625,8.203 20.322 C 7.867 20.656,7.766 20.730,7.399 20.910 C 6.911 21.150,6.530 21.240,6.000 21.240 C 5.470 21.240,5.089 21.150,4.601 20.910 C 4.234 20.730,4.133 20.656,3.797 20.322 C 3.096 19.625,2.759 18.840,2.760 17.903 C 2.761 17.385,2.939 16.874,3.355 16.191 C 3.974 15.176,5.224 13.694,5.609 13.519 C 5.833 13.418,6.167 13.418,6.391 13.520 M18.391 13.520 C 18.769 13.691,20.056 15.215,20.637 16.177 C 21.067 16.891,21.239 17.383,21.240 17.903 C 21.241 18.840,20.904 19.625,20.203 20.322 C 19.867 20.656,19.766 20.730,19.399 20.910 C 18.911 21.150,18.530 21.240,18.000 21.240 C 17.470 21.240,17.089 21.150,16.601 20.910 C 16.234 20.730,16.133 20.656,15.797 20.322 C 15.096 19.625,14.759 18.840,14.760 17.903 C 14.761 17.385,14.939 16.874,15.355 16.191 C 15.974 15.176,17.224 13.694,17.609 13.519 C 17.833 13.418,18.167 13.418,18.391 13.520 " stroke="none" fill-rule="evenodd" fill="black"></path></svg>