<svg width="24" height="24" viewBox="0 0 24 24" fill="none" xmlns="http://www.w3.org/2000/svg"><path d="M11.807 1.289 C 11.691 1.314,11.584 1.376,11.481 1.479 C 11.271 1.689,11.227 1.908,11.246 2.646 C 11.260 3.196,11.266 3.236,11.368 3.389 C 11.526 3.628,11.721 3.733,12.007 3.733 C 12.203 3.733,12.270 3.714,12.408 3.617 C 12.681 3.423,12.736 3.268,12.754 2.635 C 12.771 2.019,12.725 1.726,12.581 1.538 C 12.415 1.321,12.113 1.223,11.807 1.289 M4.620 4.257 C 4.358 4.374,4.200 4.632,4.200 4.944 C 4.200 5.192,4.306 5.376,4.626 5.684 C 4.968 6.013,5.045 6.053,5.325 6.053 C 5.600 6.053,5.773 5.962,5.936 5.729 C 6.033 5.591,6.053 5.522,6.053 5.331 C 6.053 5.204,6.029 5.055,6.000 5.000 C 5.913 4.837,5.432 4.358,5.272 4.276 C 5.099 4.187,4.795 4.178,4.620 4.257 M18.740 4.266 C 18.586 4.347,18.141 4.780,18.031 4.956 C 17.933 5.113,17.915 5.480,17.998 5.640 C 18.141 5.917,18.366 6.053,18.680 6.053 C 18.955 6.053,19.033 6.012,19.374 5.684 C 19.694 5.376,19.800 5.192,19.800 4.944 C 19.800 4.498,19.497 4.198,19.051 4.202 C 18.946 4.202,18.806 4.231,18.740 4.266 M11.480 5.283 C 9.162 5.449,7.032 6.871,5.983 8.954 C 5.660 9.595,5.357 10.569,5.352 10.981 C 5.348 11.352,5.553 11.621,5.914 11.718 C 6.123 11.775,6.290 11.745,6.489 11.616 C 6.704 11.478,6.746 11.392,6.898 10.796 C 7.049 10.201,7.156 9.921,7.395 9.487 C 8.026 8.344,9.050 7.467,10.240 7.050 C 10.909 6.816,11.146 6.780,12.020 6.781 C 12.749 6.783,12.855 6.792,13.220 6.887 C 13.787 7.034,14.216 7.209,14.647 7.468 C 15.901 8.223,16.740 9.355,17.098 10.776 C 17.253 11.392,17.295 11.477,17.511 11.616 C 17.710 11.745,17.877 11.775,18.086 11.718 C 18.448 11.621,18.650 11.355,18.646 10.983 C 18.643 10.732,18.449 9.965,18.283 9.547 C 17.180 6.772,14.466 5.070,11.480 5.283 M1.826 11.284 C 1.476 11.366,1.267 11.636,1.267 12.003 C 1.267 12.281,1.387 12.496,1.627 12.645 C 1.773 12.736,1.812 12.740,2.500 12.740 C 3.184 12.740,3.228 12.735,3.369 12.647 C 3.943 12.290,3.812 11.424,3.162 11.284 C 2.920 11.232,2.047 11.232,1.826 11.284 M20.826 11.284 C 20.476 11.366,20.267 11.636,20.267 12.003 C 20.267 12.281,20.387 12.496,20.627 12.645 C 20.773 12.736,20.812 12.740,21.500 12.740 C 22.184 12.740,22.228 12.735,22.369 12.647 C 22.943 12.290,22.812 11.424,22.162 11.284 C 21.920 11.232,21.047 11.232,20.826 11.284 M5.491 13.152 C 5.025 13.319,4.818 13.511,4.287 14.272 C 3.649 15.187,3.025 15.669,2.100 15.963 C 1.599 16.122,1.481 16.193,1.360 16.408 C 1.127 16.823,1.327 17.331,1.784 17.481 C 1.977 17.545,2.197 17.511,2.714 17.338 C 3.909 16.939,4.810 16.192,5.714 14.850 C 5.976 14.463,6.097 14.469,6.443 14.891 C 6.556 15.028,6.831 15.326,7.054 15.554 C 8.628 17.158,10.414 17.863,12.543 17.720 C 13.598 17.649,14.373 17.448,15.219 17.028 C 16.119 16.582,16.800 16.024,17.535 15.130 C 17.943 14.635,18.095 14.620,18.411 15.044 C 18.871 15.662,19.077 15.906,19.383 16.196 C 19.982 16.763,20.721 17.183,21.534 17.418 C 21.946 17.536,22.067 17.543,22.271 17.458 C 22.698 17.280,22.864 16.806,22.640 16.408 C 22.519 16.194,22.401 16.122,21.912 15.966 C 20.915 15.649,20.361 15.207,19.590 14.114 C 19.049 13.348,18.258 13.072,17.424 13.359 C 17.050 13.487,16.780 13.698,16.395 14.164 C 15.505 15.239,14.611 15.812,13.360 16.107 C 12.787 16.242,11.726 16.278,11.142 16.183 C 10.219 16.031,9.362 15.620,8.600 14.964 C 8.457 14.841,8.160 14.543,7.940 14.302 C 7.217 13.510,7.058 13.364,6.770 13.229 C 6.533 13.117,6.452 13.101,6.100 13.090 C 5.789 13.081,5.654 13.095,5.491 13.152 M5.491 18.152 C 5.025 18.319,4.818 18.511,4.287 19.272 C 3.649 20.187,3.025 20.669,2.100 20.963 C 1.599 21.122,1.481 21.193,1.360 21.408 C 1.127 21.823,1.327 22.331,1.784 22.481 C 1.977 22.545,2.197 22.511,2.714 22.338 C 3.909 21.939,4.810 21.192,5.714 19.850 C 5.976 19.463,6.097 19.469,6.443 19.891 C 6.556 20.028,6.831 20.326,7.054 20.554 C 8.628 22.158,10.414 22.863,12.543 22.720 C 13.598 22.649,14.373 22.448,15.219 22.028 C 16.119 21.582,16.800 21.024,17.535 20.130 C 17.943 19.635,18.095 19.620,18.411 20.044 C 18.871 20.662,19.077 20.906,19.383 21.196 C 19.982 21.763,20.721 22.183,21.534 22.418 C 21.946 22.536,22.067 22.543,22.271 22.458 C 22.698 22.280,22.864 21.806,22.640 21.408 C 22.519 21.194,22.401 21.122,21.912 20.966 C 20.915 20.649,20.361 20.207,19.590 19.114 C 19.049 18.348,18.258 18.072,17.424 18.359 C 17.050 18.487,16.780 18.698,16.395 19.164 C 15.505 20.239,14.611 20.812,13.360 21.107 C 12.787 21.242,11.726 21.278,11.142 21.183 C 10.219 21.031,9.362 20.620,8.600 19.964 C 8.457 19.841,8.160 19.543,7.940 19.302 C 7.217 18.510,7.058 18.364,6.770 18.229 C 6.533 18.117,6.452 18.101,6.100 18.090 C 5.789 18.081,5.654 18.095,5.491 18.152 " stroke="none" fill-rule="evenodd" fill="black"></path></svg>