<svg width="24" height="24" viewBox="0 0 24 24" fill="none" xmlns="http://www.w3.org/2000/svg"><path d="M8.400 1.283 C 6.908 1.325,5.965 1.449,5.221 1.698 C 3.984 2.114,3.114 2.984,2.698 4.221 C 2.317 5.356,2.242 6.641,2.242 12.000 C 2.242 16.468,2.288 17.804,2.481 18.904 C 2.831 20.904,3.950 22.075,5.899 22.482 C 6.884 22.687,8.438 22.758,12.000 22.758 C 16.280 22.758,17.706 22.662,18.779 22.302 C 20.016 21.886,20.886 21.016,21.302 19.779 C 21.682 18.646,21.758 17.355,21.758 12.000 C 21.758 6.645,21.682 5.354,21.302 4.221 C 20.886 2.984,20.016 2.114,18.779 1.698 C 18.005 1.439,17.137 1.331,15.400 1.280 C 13.915 1.237,9.973 1.238,8.400 1.283 M16.340 2.801 C 17.245 2.860,17.701 2.931,18.200 3.089 C 19.552 3.517,20.050 4.407,20.198 6.659 C 20.254 7.516,20.254 16.484,20.198 17.341 C 20.047 19.644,19.533 20.523,18.099 20.939 C 17.624 21.077,17.129 21.147,16.260 21.202 C 15.307 21.261,7.627 21.230,7.080 21.165 C 4.793 20.891,4.076 20.157,3.833 17.840 C 3.756 17.116,3.756 6.884,3.833 6.160 C 4.090 3.704,4.897 2.982,7.580 2.804 C 8.285 2.757,15.634 2.754,16.340 2.801 M10.840 4.545 C 9.603 4.631,8.130 4.863,7.713 5.038 C 6.717 5.456,6.041 6.475,6.041 7.560 C 6.041 7.725,6.067 7.983,6.099 8.132 C 6.163 8.432,6.863 10.229,7.023 10.501 C 7.360 11.077,7.969 11.460,8.620 11.507 C 8.832 11.523,9.022 11.502,9.400 11.421 C 10.529 11.179,10.862 11.144,12.000 11.144 C 13.138 11.144,13.471 11.179,14.600 11.421 C 15.184 11.546,15.521 11.539,15.899 11.397 C 16.428 11.198,16.779 10.879,17.038 10.360 C 17.273 9.889,17.837 8.432,17.901 8.132 C 18.121 7.096,17.699 5.987,16.846 5.357 C 16.456 5.069,16.097 4.934,15.410 4.817 C 14.226 4.615,13.535 4.555,12.260 4.542 C 11.600 4.535,10.961 4.536,10.840 4.545 M13.780 6.098 C 14.634 6.186,15.428 6.317,15.673 6.408 C 15.957 6.515,16.210 6.750,16.347 7.034 C 16.435 7.217,16.455 7.317,16.456 7.560 C 16.457 7.848,16.441 7.900,16.070 8.816 C 15.857 9.342,15.643 9.815,15.594 9.866 C 15.439 10.031,15.281 10.046,14.806 9.942 C 13.705 9.702,12.966 9.629,11.791 9.647 L 10.881 9.660 10.842 9.560 C 10.820 9.505,10.657 9.055,10.480 8.561 C 10.135 7.596,10.047 7.448,9.770 7.357 C 9.348 7.218,8.933 7.416,8.799 7.822 C 8.728 8.039,8.767 8.216,9.079 9.074 C 9.233 9.500,9.360 9.861,9.360 9.877 C 9.360 9.893,9.226 9.935,9.063 9.970 C 8.722 10.044,8.547 10.017,8.406 9.866 C 8.357 9.815,8.143 9.342,7.930 8.816 C 7.559 7.900,7.543 7.848,7.544 7.560 C 7.545 7.317,7.565 7.217,7.653 7.034 C 7.791 6.749,8.043 6.514,8.330 6.407 C 8.590 6.310,9.664 6.144,10.440 6.082 C 10.737 6.058,11.061 6.031,11.160 6.023 C 11.525 5.992,13.237 6.041,13.780 6.098 M7.815 17.278 C 7.331 17.393,7.098 18.004,7.383 18.408 C 7.447 18.499,7.572 18.610,7.660 18.656 C 7.819 18.739,7.851 18.740,11.879 18.751 C 14.744 18.759,16.001 18.749,16.153 18.717 C 16.902 18.562,16.930 17.473,16.189 17.286 C 15.979 17.234,8.034 17.226,7.815 17.278 " stroke="none" fill-rule="evenodd" fill="black"></path></svg>