<svg width="24" height="24" viewBox="0 0 24 24" fill="none" xmlns="http://www.w3.org/2000/svg"><path d="M11.310 1.283 C 6.653 1.563,2.667 4.904,1.564 9.450 C 1.162 11.110,1.162 12.890,1.564 14.550 C 2.415 18.060,5.032 20.948,8.442 22.139 C 10.725 22.937,13.275 22.937,15.558 22.139 C 18.633 21.065,21.092 18.592,22.157 15.503 C 22.819 13.585,22.918 11.437,22.436 9.450 C 21.419 5.255,17.924 2.044,13.657 1.383 C 13.303 1.328,12.042 1.231,11.880 1.246 C 11.847 1.249,11.590 1.266,11.310 1.283 M12.992 2.802 C 14.750 2.993,16.561 3.756,17.878 4.859 C 18.914 5.728,19.725 6.758,20.304 7.940 C 20.940 9.239,21.240 10.538,21.240 12.000 C 21.240 13.462,20.940 14.764,20.304 16.060 C 18.921 18.877,16.278 20.768,13.146 21.178 C 12.214 21.301,10.974 21.244,10.002 21.034 C 8.667 20.747,7.178 20.022,6.140 19.153 C 4.272 17.590,3.134 15.531,2.822 13.146 C 2.699 12.214,2.756 10.974,2.966 10.002 C 3.253 8.667,3.978 7.178,4.847 6.140 C 5.196 5.722,5.821 5.101,6.213 4.783 C 7.491 3.743,9.284 2.994,10.940 2.807 C 11.397 2.755,12.535 2.753,12.992 2.802 M11.500 5.284 C 10.385 5.356,9.245 5.743,8.293 6.372 C 5.468 8.241,4.462 11.902,5.940 14.940 C 7.563 18.277,11.544 19.672,14.907 18.080 C 16.784 17.192,18.185 15.405,18.598 13.373 C 19.080 11.000,18.283 8.580,16.493 6.980 C 15.115 5.748,13.392 5.163,11.500 5.284 M12.821 6.817 C 13.238 6.890,13.595 6.983,13.791 7.070 L 13.948 7.140 13.321 8.220 C 12.715 9.263,12.690 9.300,12.577 9.291 C 12.513 9.286,12.253 9.282,12.000 9.282 C 11.747 9.282,11.487 9.286,11.422 9.291 C 11.308 9.300,11.285 9.266,10.678 8.220 L 10.052 7.140 10.210 7.070 C 10.816 6.801,12.051 6.681,12.821 6.817 M9.397 8.985 C 9.729 9.560,10.000 10.048,10.000 10.070 C 10.000 10.092,9.930 10.197,9.845 10.305 C 9.662 10.536,9.467 10.880,9.401 11.090 L 9.354 11.240 8.076 11.240 L 6.798 11.240 6.817 11.150 C 6.975 10.369,7.218 9.732,7.568 9.178 C 7.858 8.720,8.693 7.835,8.765 7.910 C 8.781 7.927,9.065 8.410,9.397 8.985 M15.866 8.459 C 16.560 9.218,16.954 10.024,17.183 11.150 L 17.202 11.240 15.924 11.240 L 14.646 11.240 14.599 11.090 C 14.529 10.870,14.333 10.527,14.156 10.313 C 14.070 10.210,14.000 10.103,14.000 10.076 C 14.000 10.036,14.807 8.609,15.168 8.010 L 15.247 7.880 15.428 8.029 C 15.528 8.110,15.725 8.304,15.866 8.459 M12.529 10.874 C 12.962 11.085,13.240 11.526,13.240 12.000 C 13.240 12.460,13.002 12.854,12.570 13.108 C 12.398 13.210,12.344 13.220,11.998 13.220 C 11.633 13.220,11.607 13.214,11.384 13.080 C 10.990 12.842,10.797 12.534,10.769 12.095 C 10.731 11.517,11.047 11.025,11.586 10.820 C 11.819 10.732,12.294 10.759,12.529 10.874 M9.401 12.910 C 9.467 13.120,9.662 13.464,9.845 13.695 C 9.930 13.803,10.000 13.909,10.000 13.931 C 10.000 13.969,8.885 15.923,8.784 16.061 C 8.741 16.120,8.700 16.094,8.425 15.836 C 7.568 15.037,7.075 14.121,6.817 12.850 L 6.798 12.760 8.076 12.760 L 9.354 12.760 9.401 12.910 M17.183 12.850 C 17.052 13.497,16.936 13.846,16.688 14.349 C 16.403 14.925,16.028 15.422,15.548 15.860 C 15.298 16.088,15.255 16.114,15.214 16.058 C 15.115 15.923,14.000 13.969,14.000 13.931 C 14.000 13.909,14.070 13.803,14.155 13.695 C 14.338 13.464,14.533 13.120,14.599 12.910 L 14.646 12.760 15.924 12.760 L 17.202 12.760 17.183 12.850 M12.060 14.725 C 12.280 14.720,12.513 14.712,12.577 14.708 C 12.690 14.700,12.716 14.738,13.320 15.780 L 13.946 16.860 13.790 16.930 C 13.380 17.113,12.645 17.240,12.000 17.240 C 11.355 17.240,10.622 17.113,10.209 16.930 L 10.052 16.860 10.643 15.840 C 10.969 15.279,11.255 14.787,11.280 14.747 C 11.317 14.686,11.353 14.679,11.492 14.703 C 11.585 14.720,11.840 14.729,12.060 14.725 " stroke="none" fill-rule="evenodd" fill="black"></path></svg>