<svg width="24" height="24" viewBox="0 0 24 24" fill="none" xmlns="http://www.w3.org/2000/svg"><path d="M16.460 1.266 C 13.834 1.474,11.602 2.807,10.082 5.079 C 9.019 6.666,8.392 8.409,8.239 10.200 L 8.196 10.700 5.145 13.760 C 3.467 15.443,2.028 16.912,1.947 17.025 C 1.185 18.090,1.051 19.493,1.599 20.667 C 1.791 21.077,1.950 21.312,2.258 21.635 C 2.932 22.344,3.846 22.730,4.840 22.728 C 5.674 22.726,6.313 22.518,7.000 22.026 C 7.121 21.940,8.588 20.504,10.260 18.836 L 13.300 15.804 13.800 15.761 C 15.193 15.642,16.433 15.276,17.780 14.587 C 19.718 13.594,21.138 12.196,21.958 10.471 C 22.497 9.337,22.724 8.361,22.726 7.160 C 22.730 5.411,22.133 3.941,20.970 2.836 C 19.988 1.903,18.795 1.395,17.320 1.281 C 16.826 1.242,16.773 1.241,16.460 1.266 M17.618 2.805 C 17.784 2.830,17.920 2.861,17.920 2.875 C 17.919 2.889,17.744 2.990,17.531 3.100 C 17.048 3.349,16.075 3.992,15.504 4.439 C 13.688 5.861,11.827 7.894,10.451 9.960 C 10.253 10.257,10.012 10.644,9.916 10.820 L 9.740 11.140 9.728 10.700 C 9.686 9.071,10.516 6.859,11.741 5.341 C 12.849 3.967,14.303 3.098,15.959 2.819 C 16.343 2.754,17.228 2.747,17.618 2.805 M20.001 3.981 C 20.117 4.086,20.133 4.257,20.059 4.589 C 19.823 5.652,18.685 7.387,17.222 8.914 C 15.269 10.954,12.767 12.822,11.351 13.298 C 11.045 13.400,10.671 13.445,10.612 13.385 C 10.552 13.326,10.596 12.966,10.700 12.655 C 11.313 10.830,14.156 7.352,16.505 5.554 C 18.116 4.321,19.626 3.641,20.001 3.981 M21.193 6.390 C 21.412 7.829,20.964 9.513,20.006 10.856 C 19.564 11.474,18.766 12.233,18.060 12.707 C 16.635 13.662,14.687 14.307,13.333 14.272 L 12.886 14.260 13.411 13.945 C 15.210 12.868,17.374 11.042,18.798 9.400 C 19.713 8.344,20.496 7.252,20.900 6.469 C 21.010 6.256,21.110 6.081,21.123 6.080 C 21.136 6.080,21.167 6.220,21.193 6.390 M8.537 12.810 C 8.743 13.400,9.184 14.101,9.597 14.492 C 10.019 14.893,10.638 15.269,11.190 15.462 C 11.306 15.503,11.400 15.546,11.400 15.559 C 11.400 15.572,10.207 16.771,8.750 18.224 C 5.926 21.039,5.953 21.015,5.403 21.176 C 5.278 21.213,5.039 21.240,4.840 21.240 C 4.235 21.240,3.814 21.063,3.376 20.624 C 2.937 20.186,2.760 19.765,2.760 19.160 C 2.760 18.961,2.787 18.722,2.824 18.597 C 2.985 18.047,2.961 18.074,5.776 15.250 C 7.229 13.793,8.428 12.600,8.441 12.600 C 8.454 12.600,8.497 12.695,8.537 12.810 " stroke="none" fill-rule="evenodd" fill="black"></path></svg>