<svg width="24" height="24" viewBox="0 0 24 24" fill="none" xmlns="http://www.w3.org/2000/svg"><path d="M11.563 1.283 C 10.100 1.395,8.725 2.035,7.660 3.100 C 7.055 3.705,6.474 4.594,6.298 5.188 C 6.153 5.673,6.494 6.129,7.000 6.129 C 7.222 6.129,7.482 6.006,7.590 5.851 C 7.632 5.790,7.725 5.614,7.796 5.460 C 8.442 4.057,9.838 3.026,11.399 2.798 C 11.906 2.724,12.768 2.768,13.252 2.894 C 14.030 3.097,14.743 3.490,15.335 4.043 C 15.746 4.427,16.069 4.867,16.361 5.439 C 16.551 5.812,16.635 5.935,16.745 6.003 C 17.150 6.253,17.657 6.116,17.843 5.705 C 17.956 5.456,17.938 5.301,17.748 4.880 C 16.953 3.124,15.323 1.814,13.422 1.402 C 13.097 1.332,12.169 1.229,12.020 1.247 C 11.998 1.249,11.793 1.266,11.563 1.283 M2.785 3.288 C 2.427 3.386,2.170 3.846,2.282 4.188 C 2.310 4.272,3.086 5.660,4.009 7.274 C 4.931 8.888,5.678 10.216,5.669 10.225 C 5.660 10.234,5.231 10.258,4.716 10.279 C 3.701 10.320,3.462 10.351,2.992 10.505 C 2.266 10.742,1.742 11.266,1.504 11.992 C 1.347 12.473,1.324 12.663,1.275 13.870 C 1.227 15.054,1.275 17.014,1.362 17.480 C 1.580 18.635,2.192 19.306,3.280 19.582 C 3.844 19.726,4.086 19.731,11.198 19.748 C 18.056 19.765,19.890 19.743,20.460 19.640 C 21.520 19.447,22.205 18.898,22.496 18.008 C 22.653 17.525,22.676 17.336,22.725 16.111 C 22.772 14.911,22.725 12.987,22.638 12.520 C 22.441 11.473,21.890 10.793,21.008 10.505 C 20.538 10.351,20.299 10.320,19.284 10.279 C 18.769 10.258,18.340 10.234,18.331 10.225 C 18.322 10.216,19.069 8.888,19.991 7.274 C 20.914 5.660,21.690 4.272,21.718 4.188 C 21.757 4.069,21.757 3.994,21.718 3.833 C 21.592 3.306,20.975 3.090,20.538 3.419 C 20.453 3.484,19.848 4.509,18.498 6.874 L 16.580 10.237 12.000 10.238 L 7.420 10.239 5.521 6.914 C 4.477 5.085,3.591 3.548,3.552 3.499 C 3.406 3.313,3.051 3.216,2.785 3.288 M11.466 3.799 C 10.174 4.034,9.071 4.930,8.598 6.128 C 8.468 6.456,8.443 6.813,8.536 6.992 C 8.656 7.223,8.941 7.400,9.193 7.400 C 9.532 7.400,9.777 7.214,9.923 6.849 C 10.091 6.423,10.199 6.244,10.442 5.985 C 10.908 5.486,11.396 5.269,12.060 5.264 C 12.717 5.260,13.239 5.479,13.711 5.958 C 13.946 6.197,14.064 6.391,14.216 6.790 C 14.326 7.077,14.448 7.225,14.668 7.335 C 14.970 7.488,15.408 7.358,15.578 7.066 C 15.724 6.813,15.737 6.661,15.638 6.340 C 15.264 5.134,14.268 4.204,12.980 3.858 C 12.701 3.783,11.758 3.746,11.466 3.799 M11.806 6.044 C 11.314 6.194,11.001 6.715,11.112 7.200 C 11.240 7.751,11.757 8.085,12.296 7.964 C 13.009 7.805,13.312 6.975,12.869 6.394 C 12.640 6.095,12.158 5.936,11.806 6.044 M20.260 11.832 C 20.370 11.858,20.559 11.930,20.679 11.991 C 20.863 12.084,20.916 12.137,21.009 12.321 C 21.208 12.713,21.220 12.861,21.220 15.000 C 21.220 17.139,21.208 17.287,21.009 17.679 C 20.916 17.863,20.863 17.916,20.679 18.009 C 20.559 18.071,20.352 18.143,20.220 18.170 C 19.870 18.243,4.130 18.243,3.780 18.170 C 3.648 18.143,3.441 18.071,3.321 18.009 C 3.137 17.916,3.084 17.863,2.991 17.679 C 2.930 17.559,2.860 17.370,2.835 17.260 C 2.770 16.968,2.741 13.655,2.798 13.107 C 2.850 12.610,2.955 12.291,3.123 12.123 C 3.276 11.970,3.602 11.850,3.989 11.806 C 4.482 11.748,20.014 11.774,20.260 11.832 M5.689 14.059 C 5.454 14.132,5.263 14.287,5.131 14.511 C 5.036 14.672,5.020 14.744,5.020 15.000 C 5.020 15.257,5.036 15.327,5.133 15.492 C 5.570 16.235,6.653 16.134,6.939 15.322 C 7.121 14.807,6.828 14.215,6.316 14.063 C 6.065 13.988,5.919 13.987,5.689 14.059 M8.673 14.063 C 8.312 14.174,8.000 14.609,8.000 15.000 C 8.000 15.524,8.476 16.000,9.000 16.000 C 9.520 16.000,10.000 15.520,10.000 15.000 C 10.000 14.598,9.688 14.173,9.310 14.061 C 9.062 13.987,8.919 13.988,8.673 14.063 M13.826 14.284 C 13.476 14.366,13.267 14.636,13.267 15.003 C 13.267 15.281,13.387 15.496,13.627 15.645 L 13.780 15.740 16.000 15.740 L 18.220 15.740 18.369 15.647 C 18.943 15.290,18.812 14.424,18.162 14.284 C 17.910 14.230,14.056 14.230,13.826 14.284 " fill="#1C274C" stroke="none" fill-rule="evenodd"></path></svg>