<svg width="24" height="24" viewBox="0 0 24 24" fill="none" xmlns="http://www.w3.org/2000/svg"><path d="M15.971 1.283 C 14.910 1.364,13.944 1.704,13.034 2.316 C 12.074 2.960,11.392 3.737,10.896 4.750 C 10.624 5.305,10.612 5.594,10.848 5.863 C 11.016 6.055,11.180 6.131,11.420 6.131 C 11.794 6.131,11.939 6.005,12.232 5.420 C 12.496 4.893,12.759 4.527,13.145 4.150 C 14.097 3.219,15.204 2.760,16.500 2.760 C 17.839 2.760,18.993 3.258,19.943 4.244 C 20.323 4.639,20.519 4.920,20.779 5.440 C 21.060 6.003,21.209 6.131,21.580 6.131 C 21.820 6.131,21.984 6.055,22.152 5.863 C 22.388 5.594,22.376 5.305,22.105 4.754 C 21.622 3.770,20.919 2.963,20.000 2.336 C 18.826 1.535,17.432 1.170,15.971 1.283 M15.789 3.823 C 14.863 3.991,13.939 4.601,13.407 5.396 C 12.909 6.141,12.774 6.715,13.013 7.076 C 13.323 7.545,14.067 7.482,14.287 6.967 C 14.553 6.344,14.641 6.196,14.907 5.931 C 15.363 5.477,15.872 5.264,16.500 5.264 C 17.128 5.264,17.637 5.477,18.093 5.931 C 18.359 6.196,18.447 6.344,18.713 6.967 C 19.004 7.648,20.039 7.472,20.110 6.729 C 20.156 6.242,19.643 5.296,19.031 4.741 C 18.159 3.949,16.964 3.611,15.789 3.823 M16.240 6.035 C 15.944 6.132,15.685 6.362,15.575 6.626 C 15.504 6.795,15.504 7.205,15.575 7.374 C 15.654 7.563,15.866 7.791,16.056 7.891 C 16.285 8.012,16.715 8.012,16.944 7.891 C 17.134 7.791,17.346 7.563,17.425 7.374 C 17.496 7.205,17.496 6.795,17.425 6.626 C 17.346 6.436,17.133 6.208,16.947 6.113 C 16.771 6.024,16.399 5.983,16.240 6.035 M6.533 9.282 C 4.517 9.447,2.758 10.641,1.851 12.460 C 1.072 14.023,1.072 15.977,1.851 17.540 C 2.427 18.695,3.352 19.609,4.520 20.178 C 4.719 20.275,4.901 20.360,4.924 20.368 C 4.947 20.376,4.809 20.701,4.616 21.092 C 4.323 21.684,4.265 21.833,4.265 21.991 C 4.266 22.487,4.704 22.836,5.177 22.717 C 5.486 22.639,5.573 22.526,6.035 21.608 L 6.464 20.757 12.000 20.757 L 17.536 20.757 17.965 21.608 C 18.427 22.526,18.514 22.639,18.823 22.717 C 19.296 22.836,19.734 22.487,19.735 21.991 C 19.735 21.833,19.677 21.684,19.384 21.092 C 19.191 20.701,19.053 20.376,19.076 20.368 C 19.099 20.360,19.281 20.275,19.480 20.178 C 22.125 18.891,23.376 15.879,22.418 13.105 C 21.855 11.475,20.525 10.145,18.895 9.582 C 18.394 9.409,18.000 9.329,17.409 9.280 C 16.860 9.235,7.089 9.236,6.533 9.282 M18.020 10.867 C 18.881 11.127,19.447 11.452,19.998 12.002 C 20.552 12.557,20.925 13.218,21.147 14.040 C 21.251 14.424,21.249 15.546,21.144 15.960 C 20.746 17.529,19.596 18.698,18.026 19.130 L 17.700 19.220 12.000 19.220 L 6.300 19.220 5.974 19.130 C 4.404 18.698,3.254 17.529,2.856 15.960 C 2.796 15.725,2.780 15.517,2.780 15.000 C 2.780 14.253,2.827 13.998,3.083 13.369 C 3.593 12.114,4.803 11.109,6.120 10.845 C 6.241 10.821,6.376 10.793,6.420 10.785 C 6.464 10.776,9.029 10.772,12.120 10.776 C 17.713 10.783,17.741 10.783,18.020 10.867 M6.540 12.798 C 5.325 13.060,4.551 14.260,4.804 15.488 C 4.929 16.098,5.426 16.729,6.000 17.007 C 6.652 17.323,7.344 17.326,7.984 17.015 C 8.501 16.763,8.905 16.315,9.116 15.761 C 9.247 15.414,9.263 14.665,9.145 14.320 C 8.916 13.646,8.415 13.128,7.761 12.888 C 7.473 12.782,6.832 12.735,6.540 12.798 M7.271 14.302 C 7.911 14.569,7.911 15.431,7.271 15.698 C 7.083 15.777,6.917 15.777,6.729 15.698 C 6.101 15.436,6.084 14.600,6.700 14.316 C 6.897 14.225,7.076 14.221,7.271 14.302 M11.826 14.284 C 11.476 14.367,11.267 14.636,11.267 15.003 C 11.267 15.281,11.387 15.496,11.627 15.645 L 11.780 15.740 15.200 15.740 C 17.081 15.740,18.669 15.726,18.729 15.709 C 18.881 15.667,19.121 15.447,19.186 15.292 C 19.297 15.027,19.241 14.711,19.047 14.506 C 18.799 14.244,19.041 14.261,15.340 14.253 C 13.409 14.250,11.914 14.263,11.826 14.284 " stroke="none" fill-rule="evenodd" fill="black"></path></svg>