<svg width="24" height="24" viewBox="0 0 24 24" fill="none" xmlns="http://www.w3.org/2000/svg"><path d="M15.971 3.283 C 14.910 3.364,13.944 3.704,13.034 4.316 C 12.074 4.960,11.392 5.737,10.896 6.750 C 10.624 7.305,10.612 7.594,10.848 7.863 C 11.016 8.055,11.180 8.131,11.420 8.131 C 11.794 8.131,11.939 8.005,12.232 7.420 C 12.496 6.893,12.759 6.527,13.145 6.150 C 14.097 5.219,15.204 4.760,16.500 4.760 C 17.839 4.760,18.993 5.258,19.943 6.244 C 20.323 6.639,20.519 6.920,20.779 7.440 C 21.060 8.003,21.209 8.131,21.580 8.131 C 21.820 8.131,21.984 8.055,22.152 7.863 C 22.388 7.594,22.376 7.305,22.105 6.754 C 21.622 5.770,20.919 4.963,20.000 4.336 C 18.826 3.535,17.432 3.170,15.971 3.283 M15.789 5.823 C 14.863 5.991,13.939 6.601,13.407 7.396 C 12.909 8.141,12.774 8.715,13.013 9.076 C 13.323 9.545,14.067 9.482,14.287 8.967 C 14.553 8.344,14.641 8.196,14.907 7.931 C 15.363 7.477,15.872 7.264,16.500 7.264 C 17.128 7.264,17.637 7.477,18.093 7.931 C 18.359 8.196,18.447 8.344,18.713 8.967 C 19.004 9.648,20.039 9.472,20.110 8.729 C 20.156 8.242,19.643 7.296,19.031 6.741 C 18.159 5.949,16.964 5.611,15.789 5.823 M16.420 8.260 C 16.398 8.267,16.331 8.284,16.271 8.297 C 16.124 8.329,15.881 8.548,15.814 8.708 C 15.773 8.807,15.760 9.120,15.760 10.039 L 15.760 11.240 10.650 11.242 C 5.678 11.243,4.033 11.270,3.540 11.360 C 2.480 11.554,1.795 12.102,1.504 12.992 C 1.347 13.473,1.324 13.663,1.275 14.870 C 1.227 16.054,1.275 18.014,1.362 18.480 C 1.580 19.635,2.192 20.306,3.280 20.582 C 3.844 20.726,4.086 20.731,11.198 20.748 C 18.056 20.765,19.890 20.743,20.460 20.640 C 21.704 20.413,22.404 19.719,22.638 18.480 C 22.724 18.020,22.772 16.020,22.724 14.851 C 22.676 13.663,22.652 13.471,22.496 12.992 C 22.205 12.102,21.520 11.554,20.460 11.360 C 20.181 11.310,18.735 11.244,17.850 11.242 L 17.240 11.240 17.240 10.043 C 17.240 9.294,17.224 8.803,17.197 8.733 C 17.146 8.597,16.977 8.412,16.840 8.342 C 16.732 8.287,16.485 8.238,16.420 8.260 M20.260 12.832 C 20.370 12.858,20.559 12.930,20.679 12.991 C 20.863 13.084,20.916 13.137,21.009 13.321 C 21.208 13.713,21.220 13.861,21.220 16.000 C 21.220 18.139,21.208 18.287,21.009 18.679 C 20.916 18.863,20.863 18.916,20.679 19.009 C 20.559 19.071,20.352 19.143,20.220 19.170 C 19.870 19.243,4.130 19.243,3.780 19.170 C 3.648 19.143,3.441 19.071,3.321 19.009 C 3.137 18.916,3.084 18.863,2.991 18.679 C 2.930 18.559,2.860 18.370,2.835 18.260 C 2.770 17.968,2.741 14.655,2.798 14.107 C 2.850 13.610,2.955 13.291,3.123 13.123 C 3.276 12.970,3.602 12.850,3.989 12.806 C 4.482 12.748,20.014 12.774,20.260 12.832 M5.673 15.063 C 5.312 15.174,5.000 15.609,5.000 16.000 C 5.000 16.524,5.476 17.000,6.000 17.000 C 6.520 17.000,7.000 16.520,7.000 16.000 C 7.000 15.598,6.688 15.173,6.310 15.061 C 6.062 14.987,5.919 14.988,5.673 15.063 M8.673 15.063 C 8.312 15.174,8.000 15.609,8.000 16.000 C 8.000 16.524,8.476 17.000,9.000 17.000 C 9.520 17.000,10.000 16.520,10.000 16.000 C 10.000 15.598,9.688 15.173,9.310 15.061 C 9.062 14.987,8.919 14.988,8.673 15.063 " stroke="none" fill-rule="evenodd" fill="black"></path></svg>