<svg width="24" height="24" viewBox="0 0 24 24" fill="none" xmlns="http://www.w3.org/2000/svg"><path d="M5.940 1.784 C 5.896 1.795,5.717 1.831,5.542 1.864 C 4.004 2.160,2.651 3.298,2.086 4.771 C 1.844 5.400,1.783 5.752,1.783 6.500 C 1.783 7.248,1.844 7.599,2.085 8.229 C 2.546 9.429,3.570 10.453,4.771 10.914 C 5.400 11.156,5.752 11.217,6.500 11.217 C 7.248 11.217,7.600 11.156,8.229 10.914 C 9.430 10.453,10.454 9.429,10.915 8.229 C 11.149 7.619,11.216 7.244,11.218 6.540 C 11.220 5.870,11.166 5.498,10.993 4.982 C 10.532 3.609,9.403 2.480,8.020 2.009 C 7.566 1.854,7.190 1.793,6.600 1.779 C 6.281 1.771,5.984 1.773,5.940 1.784 M16.940 1.784 C 16.896 1.795,16.717 1.831,16.542 1.864 C 15.004 2.160,13.651 3.298,13.086 4.771 C 12.844 5.400,12.783 5.752,12.783 6.500 C 12.783 7.248,12.844 7.599,13.085 8.229 C 13.546 9.429,14.570 10.453,15.771 10.914 C 16.400 11.156,16.752 11.217,17.500 11.217 C 18.248 11.217,18.600 11.156,19.229 10.914 C 20.430 10.453,21.454 9.429,21.915 8.229 C 22.149 7.619,22.216 7.244,22.218 6.540 C 22.220 5.870,22.166 5.498,21.993 4.982 C 21.532 3.609,20.403 2.480,19.020 2.009 C 18.566 1.854,18.190 1.793,17.600 1.779 C 17.281 1.771,16.984 1.773,16.940 1.784 M6.974 3.281 C 7.356 3.336,7.809 3.495,8.140 3.689 C 8.507 3.903,9.097 4.493,9.311 4.860 C 9.900 5.864,9.900 7.136,9.311 8.140 C 9.097 8.507,8.507 9.097,8.140 9.311 C 7.136 9.900,5.864 9.900,4.860 9.311 C 4.493 9.097,3.903 8.507,3.689 8.140 C 3.100 7.136,3.100 5.864,3.689 4.860 C 3.903 4.493,4.493 3.903,4.860 3.689 C 5.488 3.321,6.242 3.175,6.974 3.281 M17.974 3.281 C 18.356 3.336,18.809 3.495,19.140 3.689 C 19.507 3.903,20.097 4.493,20.311 4.860 C 20.900 5.864,20.900 7.136,20.311 8.140 C 20.097 8.507,19.507 9.097,19.140 9.311 C 18.136 9.900,16.864 9.900,15.860 9.311 C 15.493 9.097,14.903 8.507,14.689 8.140 C 14.100 7.136,14.100 5.864,14.689 4.860 C 14.903 4.493,15.493 3.903,15.860 3.689 C 16.488 3.321,17.242 3.175,17.974 3.281 M5.940 12.784 C 5.896 12.795,5.717 12.831,5.542 12.864 C 4.004 13.160,2.651 14.298,2.086 15.771 C 1.844 16.400,1.783 16.752,1.783 17.500 C 1.783 18.248,1.844 18.599,2.085 19.229 C 2.546 20.429,3.570 21.453,4.771 21.914 C 5.400 22.156,5.752 22.217,6.500 22.217 C 7.248 22.217,7.600 22.156,8.229 21.914 C 9.430 21.453,10.454 20.429,10.915 19.229 C 11.149 18.619,11.216 18.244,11.218 17.540 C 11.220 16.870,11.166 16.498,10.993 15.982 C 10.532 14.609,9.403 13.480,8.020 13.009 C 7.566 12.854,7.190 12.793,6.600 12.779 C 6.281 12.771,5.984 12.773,5.940 12.784 M16.940 12.784 C 16.896 12.795,16.717 12.831,16.542 12.864 C 15.004 13.160,13.651 14.298,13.086 15.771 C 12.844 16.400,12.783 16.752,12.783 17.500 C 12.783 18.248,12.844 18.599,13.085 19.229 C 13.546 20.429,14.570 21.453,15.771 21.914 C 16.400 22.156,16.752 22.217,17.500 22.217 C 18.248 22.217,18.600 22.156,19.229 21.914 C 20.430 21.453,21.454 20.429,21.915 19.229 C 22.149 18.619,22.216 18.244,22.218 17.540 C 22.220 16.870,22.166 16.498,21.993 15.982 C 21.532 14.609,20.403 13.480,19.020 13.009 C 18.566 12.854,18.190 12.793,17.600 12.779 C 17.281 12.771,16.984 12.773,16.940 12.784 M6.974 14.281 C 7.356 14.336,7.809 14.495,8.140 14.689 C 8.507 14.903,9.097 15.493,9.311 15.860 C 9.900 16.864,9.900 18.136,9.311 19.140 C 9.097 19.507,8.507 20.097,8.140 20.311 C 7.136 20.900,5.864 20.900,4.860 20.311 C 4.493 20.097,3.903 19.507,3.689 19.140 C 3.100 18.136,3.100 16.864,3.689 15.860 C 3.903 15.493,4.493 14.903,4.860 14.689 C 5.488 14.321,6.242 14.175,6.974 14.281 M17.974 14.281 C 18.356 14.336,18.809 14.495,19.140 14.689 C 19.507 14.903,20.097 15.493,20.311 15.860 C 20.900 16.864,20.900 18.136,20.311 19.140 C 20.097 19.507,19.507 20.097,19.140 20.311 C 18.136 20.900,16.864 20.900,15.860 20.311 C 15.493 20.097,14.903 19.507,14.689 19.140 C 14.316 18.504,14.167 17.716,14.283 17.000 C 14.397 16.294,14.681 15.752,15.216 15.216 C 15.627 14.806,15.982 14.577,16.452 14.421 C 16.964 14.250,17.450 14.206,17.974 14.281 " stroke="none" fill-rule="evenodd" fill="black"></path></svg>