<svg width="24" height="24" viewBox="0 0 24 24" fill="none" xmlns="http://www.w3.org/2000/svg"><path d="M5.940 1.784 C 5.896 1.795,5.717 1.831,5.542 1.864 C 4.004 2.160,2.651 3.298,2.086 4.771 C 1.844 5.400,1.783 5.752,1.783 6.500 C 1.783 7.248,1.844 7.599,2.085 8.229 C 2.546 9.429,3.570 10.453,4.771 10.914 C 5.400 11.156,5.752 11.217,6.500 11.217 C 7.248 11.217,7.600 11.156,8.229 10.914 C 9.430 10.453,10.454 9.429,10.915 8.229 C 11.149 7.619,11.216 7.244,11.218 6.540 C 11.220 5.870,11.166 5.498,10.993 4.982 C 10.532 3.609,9.403 2.480,8.020 2.009 C 7.566 1.854,7.190 1.793,6.600 1.779 C 6.281 1.771,5.984 1.773,5.940 1.784 M15.540 1.804 C 14.344 1.893,13.553 2.334,13.160 3.133 C 12.830 3.806,12.761 4.386,12.761 6.500 C 12.761 8.614,12.830 9.194,13.160 9.867 C 13.565 10.692,14.337 11.106,15.639 11.200 C 16.337 11.251,18.663 11.251,19.361 11.200 C 20.663 11.106,21.435 10.692,21.840 9.867 C 22.170 9.194,22.239 8.614,22.239 6.500 C 22.239 4.386,22.170 3.806,21.840 3.133 C 21.435 2.308,20.663 1.894,19.361 1.800 C 18.727 1.754,16.177 1.757,15.540 1.804 M6.974 3.281 C 7.356 3.336,7.809 3.495,8.140 3.689 C 8.507 3.903,9.097 4.493,9.311 4.860 C 9.900 5.864,9.900 7.136,9.311 8.140 C 9.097 8.507,8.507 9.097,8.140 9.311 C 7.136 9.900,5.864 9.900,4.860 9.311 C 4.493 9.097,3.903 8.507,3.689 8.140 C 3.100 7.136,3.100 5.864,3.689 4.860 C 3.903 4.493,4.493 3.903,4.860 3.689 C 5.488 3.321,6.242 3.175,6.974 3.281 M19.121 3.279 C 20.132 3.345,20.436 3.499,20.600 4.029 C 20.708 4.380,20.758 5.160,20.758 6.500 C 20.758 8.434,20.673 9.085,20.379 9.379 C 20.085 9.673,19.434 9.758,17.500 9.758 C 15.566 9.758,14.915 9.673,14.621 9.379 C 14.327 9.085,14.242 8.434,14.242 6.500 C 14.242 4.565,14.327 3.915,14.622 3.621 C 14.813 3.430,15.195 3.319,15.792 3.281 C 16.488 3.238,18.457 3.236,19.121 3.279 M4.540 12.804 C 3.344 12.893,2.553 13.334,2.160 14.133 C 1.830 14.806,1.761 15.386,1.761 17.500 C 1.761 19.614,1.830 20.194,2.160 20.867 C 2.377 21.308,2.692 21.623,3.133 21.840 C 3.806 22.170,4.386 22.239,6.500 22.239 C 8.614 22.239,9.194 22.170,9.867 21.840 C 10.308 21.623,10.623 21.308,10.840 20.867 C 11.170 20.194,11.239 19.614,11.239 17.500 C 11.239 15.386,11.170 14.806,10.840 14.133 C 10.435 13.308,9.663 12.894,8.361 12.800 C 7.727 12.754,5.177 12.757,4.540 12.804 M16.940 12.784 C 16.896 12.795,16.717 12.831,16.542 12.864 C 15.004 13.160,13.651 14.298,13.086 15.771 C 12.844 16.400,12.783 16.752,12.783 17.500 C 12.783 18.248,12.844 18.599,13.085 19.229 C 13.546 20.429,14.570 21.453,15.771 21.914 C 16.400 22.156,16.752 22.217,17.500 22.217 C 18.248 22.217,18.600 22.156,19.229 21.914 C 20.430 21.453,21.454 20.429,21.915 19.229 C 22.149 18.619,22.216 18.244,22.218 17.540 C 22.220 16.870,22.166 16.498,21.993 15.982 C 21.532 14.609,20.403 13.480,19.020 13.009 C 18.566 12.854,18.190 12.793,17.600 12.779 C 17.281 12.771,16.984 12.773,16.940 12.784 M8.121 14.279 C 9.132 14.345,9.436 14.499,9.600 15.029 C 9.708 15.380,9.758 16.160,9.758 17.500 C 9.758 19.434,9.673 20.085,9.379 20.379 C 9.085 20.673,8.434 20.758,6.500 20.758 C 4.566 20.758,3.915 20.673,3.621 20.379 C 3.327 20.085,3.242 19.434,3.242 17.500 C 3.242 15.565,3.327 14.915,3.622 14.621 C 3.813 14.430,4.195 14.319,4.792 14.281 C 5.488 14.238,7.457 14.236,8.121 14.279 M17.974 14.281 C 18.356 14.336,18.809 14.495,19.140 14.689 C 19.507 14.903,20.097 15.493,20.311 15.860 C 20.900 16.864,20.900 18.136,20.311 19.140 C 20.097 19.507,19.507 20.097,19.140 20.311 C 18.136 20.900,16.864 20.900,15.860 20.311 C 15.493 20.097,14.903 19.507,14.689 19.140 C 14.316 18.504,14.167 17.716,14.283 17.000 C 14.397 16.294,14.681 15.752,15.216 15.216 C 15.627 14.806,15.982 14.577,16.452 14.421 C 16.964 14.250,17.450 14.206,17.974 14.281 " stroke="none" fill-rule="evenodd" fill="black"></path></svg>