<svg width="24" height="24" viewBox="0 0 24 24" fill="none" xmlns="http://www.w3.org/2000/svg"><path d="M4.060 1.801 C 2.308 1.950,1.511 2.702,1.312 4.395 C 1.242 4.991,1.242 10.009,1.312 10.605 C 1.492 12.135,2.162 12.886,3.580 13.145 C 3.934 13.210,4.214 13.219,6.000 13.219 C 7.786 13.219,8.066 13.210,8.420 13.145 C 9.838 12.886,10.508 12.135,10.688 10.605 C 10.758 10.009,10.758 4.991,10.688 4.395 C 10.509 2.873,9.835 2.113,8.440 1.859 C 8.124 1.801,7.757 1.788,6.260 1.778 C 5.270 1.772,4.280 1.782,4.060 1.801 M15.020 1.819 C 14.230 1.946,13.573 2.385,13.164 3.059 C 12.808 3.646,12.744 4.087,12.770 5.769 C 12.791 7.107,12.809 7.233,13.059 7.740 C 13.402 8.435,13.994 8.920,14.780 9.146 C 14.991 9.207,15.287 9.217,17.240 9.231 C 18.677 9.241,19.590 9.231,19.829 9.203 C 20.653 9.106,21.320 8.711,21.754 8.061 C 22.165 7.447,22.239 7.053,22.239 5.500 C 22.239 3.995,22.165 3.569,21.802 3.008 C 21.575 2.657,21.387 2.464,21.057 2.243 C 20.690 1.998,20.399 1.886,19.940 1.816 C 19.448 1.740,15.495 1.743,15.020 1.819 M8.226 3.336 C 8.911 3.476,9.104 3.719,9.201 4.564 C 9.251 5.001,9.251 9.999,9.201 10.436 C 9.103 11.287,8.915 11.520,8.207 11.670 C 7.752 11.766,4.248 11.766,3.793 11.670 C 3.085 11.520,2.897 11.287,2.799 10.436 C 2.749 9.999,2.749 5.001,2.799 4.564 C 2.914 3.569,3.162 3.359,4.320 3.279 C 5.081 3.226,7.890 3.267,8.226 3.336 M20.003 3.365 C 20.287 3.498,20.502 3.713,20.635 3.997 L 20.740 4.220 20.740 5.500 L 20.740 6.780 20.636 7.000 C 20.486 7.319,20.349 7.461,20.048 7.609 L 19.782 7.740 17.500 7.740 L 15.218 7.740 14.952 7.609 C 14.651 7.461,14.514 7.319,14.364 7.000 L 14.260 6.780 14.260 5.500 L 14.260 4.220 14.365 3.997 C 14.554 3.593,14.896 3.335,15.320 3.278 C 15.441 3.261,16.494 3.250,17.660 3.254 L 19.780 3.260 20.003 3.365 M15.540 10.804 C 14.344 10.893,13.553 11.334,13.160 12.133 C 12.802 12.863,12.761 13.309,12.761 16.500 C 12.761 19.691,12.802 20.137,13.160 20.867 C 13.565 21.692,14.337 22.106,15.639 22.200 C 16.337 22.251,18.663 22.251,19.361 22.200 C 20.663 22.106,21.435 21.692,21.840 20.867 C 22.198 20.137,22.239 19.691,22.239 16.500 C 22.239 13.309,22.198 12.863,21.840 12.133 C 21.435 11.308,20.663 10.894,19.361 10.800 C 18.727 10.754,16.177 10.757,15.540 10.804 M19.121 12.279 C 20.419 12.363,20.637 12.581,20.721 13.879 C 20.769 14.632,20.769 18.368,20.721 19.121 C 20.655 20.132,20.501 20.436,19.971 20.600 C 19.620 20.708,18.840 20.758,17.500 20.758 C 15.566 20.758,14.915 20.673,14.621 20.379 C 14.296 20.053,14.242 19.501,14.242 16.500 C 14.242 13.497,14.296 12.947,14.622 12.621 C 14.813 12.430,15.195 12.319,15.792 12.281 C 16.488 12.238,18.457 12.236,19.121 12.279 M3.720 14.785 C 3.313 14.851,3.114 14.898,2.940 14.971 C 2.130 15.311,1.493 16.075,1.340 16.888 C 1.196 17.652,1.230 19.824,1.394 20.349 C 1.621 21.079,2.217 21.726,2.940 22.028 C 3.384 22.214,3.483 22.220,6.000 22.220 C 8.517 22.220,8.616 22.214,9.060 22.028 C 9.869 21.690,10.497 20.937,10.667 20.100 C 10.763 19.626,10.762 17.358,10.666 16.900 C 10.458 15.918,9.690 15.113,8.712 14.853 C 8.492 14.794,8.168 14.785,6.140 14.777 C 4.864 14.772,3.775 14.776,3.720 14.785 M8.172 16.281 C 8.321 16.302,8.510 16.355,8.592 16.397 C 8.782 16.495,9.006 16.731,9.126 16.960 C 9.219 17.139,9.220 17.149,9.220 18.500 C 9.220 19.851,9.219 19.861,9.126 20.040 C 9.006 20.269,8.782 20.505,8.592 20.603 C 8.336 20.736,7.953 20.758,6.000 20.758 C 4.047 20.758,3.664 20.736,3.408 20.603 C 3.218 20.505,2.994 20.269,2.874 20.040 C 2.781 19.861,2.780 19.851,2.780 18.500 C 2.780 17.149,2.781 17.139,2.874 16.960 C 3.077 16.572,3.389 16.342,3.792 16.283 C 4.117 16.236,7.844 16.234,8.172 16.281 " stroke="none" fill-rule="evenodd" fill="black"></path></svg>