<svg width="24" height="24" viewBox="0 0 24 24" fill="none" xmlns="http://www.w3.org/2000/svg"><path d="M5.940 1.784 C 5.896 1.795,5.717 1.831,5.542 1.864 C 4.004 2.160,2.651 3.298,2.086 4.771 C 1.844 5.400,1.783 5.752,1.783 6.500 C 1.783 7.248,1.844 7.600,2.086 8.229 C 2.552 9.444,3.602 10.483,4.820 10.934 C 5.567 11.211,5.592 11.213,7.712 11.230 C 9.044 11.240,9.711 11.231,9.861 11.200 C 10.528 11.061,11.062 10.525,11.201 9.853 C 11.230 9.716,11.239 9.000,11.229 7.733 C 11.216 6.079,11.205 5.779,11.143 5.520 C 10.913 4.543,10.466 3.743,9.785 3.090 C 9.129 2.460,8.382 2.062,7.480 1.860 C 7.190 1.796,6.113 1.742,5.940 1.784 M16.940 1.784 C 16.896 1.795,16.717 1.831,16.542 1.864 C 15.437 2.077,14.398 2.734,13.714 3.653 C 13.293 4.217,13.056 4.724,12.873 5.451 C 12.782 5.814,12.780 5.856,12.780 7.880 L 12.780 9.940 12.907 10.210 C 13.085 10.587,13.384 10.889,13.758 11.072 L 14.060 11.220 16.120 11.220 C 18.144 11.220,18.186 11.218,18.549 11.127 C 19.514 10.883,20.288 10.443,20.922 9.776 C 21.533 9.134,21.903 8.449,22.125 7.549 C 22.247 7.056,22.258 6.074,22.147 5.562 C 21.936 4.583,21.482 3.758,20.785 3.090 C 20.129 2.460,19.382 2.062,18.480 1.860 C 18.190 1.796,17.113 1.742,16.940 1.784 M6.974 3.281 C 7.678 3.383,8.241 3.674,8.784 4.216 C 9.191 4.624,9.423 4.982,9.575 5.440 C 9.742 5.941,9.759 6.173,9.760 7.912 L 9.760 9.564 9.662 9.662 L 9.564 9.760 7.912 9.760 C 6.948 9.760,6.152 9.742,6.000 9.717 C 5.621 9.656,5.180 9.499,4.860 9.311 C 4.493 9.097,3.903 8.507,3.689 8.140 C 3.100 7.136,3.100 5.864,3.689 4.860 C 3.903 4.493,4.493 3.903,4.860 3.689 C 5.488 3.321,6.242 3.175,6.974 3.281 M17.974 3.281 C 18.356 3.336,18.809 3.495,19.140 3.689 C 19.507 3.903,20.097 4.493,20.311 4.860 C 20.900 5.864,20.900 7.136,20.311 8.140 C 20.097 8.507,19.507 9.097,19.140 9.311 C 18.812 9.503,18.368 9.659,17.977 9.720 C 17.560 9.784,14.381 9.757,14.312 9.688 C 14.243 9.619,14.216 6.440,14.280 6.023 C 14.341 5.632,14.497 5.188,14.689 4.860 C 14.903 4.493,15.493 3.903,15.860 3.689 C 16.488 3.321,17.242 3.175,17.974 3.281 M5.940 12.786 C 5.896 12.796,5.717 12.831,5.542 12.864 C 4.004 13.160,2.651 14.298,2.086 15.771 C 1.844 16.400,1.783 16.752,1.783 17.500 C 1.783 18.248,1.844 18.599,2.085 19.229 C 2.546 20.429,3.570 21.453,4.771 21.914 C 5.400 22.156,5.752 22.217,6.500 22.217 C 7.248 22.217,7.600 22.156,8.229 21.914 C 9.444 21.448,10.483 20.398,10.934 19.180 C 11.209 18.437,11.213 18.401,11.230 16.344 C 11.240 15.029,11.231 14.384,11.198 14.189 C 11.114 13.688,10.808 13.246,10.372 12.996 C 9.992 12.778,9.806 12.761,7.820 12.765 C 6.830 12.768,5.984 12.777,5.940 12.786 M14.050 12.821 C 13.413 12.995,12.932 13.503,12.800 14.139 C 12.769 14.289,12.760 14.956,12.770 16.288 C 12.787 18.408,12.789 18.433,13.066 19.180 C 13.517 20.398,14.556 21.448,15.771 21.914 C 16.400 22.156,16.752 22.217,17.500 22.217 C 18.248 22.217,18.600 22.156,19.229 21.914 C 20.430 21.453,21.454 20.429,21.915 19.229 C 22.149 18.619,22.216 18.244,22.218 17.540 C 22.220 16.870,22.166 16.498,21.993 15.982 C 21.532 14.609,20.403 13.480,19.020 13.009 C 18.383 12.792,18.316 12.786,16.220 12.774 C 14.612 12.765,14.222 12.773,14.050 12.821 M9.669 14.331 C 9.734 14.397,9.741 14.531,9.751 16.051 C 9.759 17.086,9.747 17.803,9.720 17.977 C 9.659 18.368,9.503 18.812,9.311 19.140 C 9.097 19.507,8.507 20.097,8.140 20.311 C 7.136 20.900,5.864 20.900,4.860 20.311 C 4.493 20.097,3.903 19.507,3.689 19.140 C 3.100 18.136,3.100 16.864,3.689 15.860 C 3.903 15.493,4.493 14.903,4.860 14.689 C 5.175 14.504,5.651 14.334,5.992 14.283 C 6.117 14.264,6.980 14.251,7.909 14.254 C 9.472 14.260,9.603 14.265,9.669 14.331 M17.974 14.281 C 18.678 14.383,19.241 14.674,19.784 15.216 C 20.191 15.624,20.423 15.982,20.575 16.440 C 20.818 17.170,20.818 17.830,20.575 18.560 C 20.423 19.018,20.191 19.376,19.784 19.784 C 19.248 20.319,18.706 20.603,18.000 20.717 C 17.484 20.801,16.980 20.755,16.440 20.575 C 15.982 20.423,15.624 20.191,15.216 19.784 C 14.809 19.376,14.577 19.018,14.425 18.560 C 14.258 18.059,14.241 17.827,14.240 16.088 L 14.240 14.436 14.338 14.338 L 14.436 14.240 16.068 14.241 C 16.966 14.241,17.823 14.259,17.974 14.281 " stroke="none" fill-rule="evenodd" fill="black"></path></svg>