<svg width="24" height="24" viewBox="0 0 24 24" fill="none" xmlns="http://www.w3.org/2000/svg"><path d="M4.540 1.804 C 3.344 1.893,2.553 2.334,2.160 3.133 C 1.830 3.806,1.761 4.386,1.761 6.500 C 1.761 8.614,1.830 9.194,2.160 9.867 C 2.565 10.692,3.337 11.106,4.639 11.200 C 5.337 11.251,7.663 11.251,8.361 11.200 C 9.663 11.106,10.435 10.692,10.840 9.867 C 11.170 9.194,11.239 8.614,11.239 6.500 C 11.239 4.386,11.170 3.806,10.840 3.133 C 10.435 2.308,9.663 1.894,8.361 1.800 C 7.727 1.754,5.177 1.757,4.540 1.804 M15.540 1.804 C 14.344 1.893,13.553 2.334,13.160 3.133 C 12.830 3.806,12.761 4.386,12.761 6.500 C 12.761 8.614,12.830 9.194,13.160 9.867 C 13.565 10.692,14.337 11.106,15.639 11.200 C 16.337 11.251,18.663 11.251,19.361 11.200 C 20.663 11.106,21.435 10.692,21.840 9.867 C 22.170 9.194,22.239 8.614,22.239 6.500 C 22.239 4.386,22.170 3.806,21.840 3.133 C 21.435 2.308,20.663 1.894,19.361 1.800 C 18.727 1.754,16.177 1.757,15.540 1.804 M8.121 3.279 C 9.132 3.345,9.436 3.499,9.600 4.029 C 9.708 4.380,9.758 5.160,9.758 6.500 C 9.758 8.434,9.673 9.085,9.379 9.379 C 9.085 9.673,8.434 9.758,6.500 9.758 C 4.566 9.758,3.915 9.673,3.621 9.379 C 3.327 9.085,3.242 8.434,3.242 6.500 C 3.242 4.565,3.327 3.915,3.622 3.621 C 3.813 3.430,4.195 3.319,4.792 3.281 C 5.488 3.238,7.457 3.236,8.121 3.279 M19.121 3.279 C 20.132 3.345,20.436 3.499,20.600 4.029 C 20.708 4.380,20.758 5.160,20.758 6.500 C 20.758 8.434,20.673 9.085,20.379 9.379 C 20.085 9.673,19.434 9.758,17.500 9.758 C 15.566 9.758,14.915 9.673,14.621 9.379 C 14.327 9.085,14.242 8.434,14.242 6.500 C 14.242 4.565,14.327 3.915,14.622 3.621 C 14.813 3.430,15.195 3.319,15.792 3.281 C 16.488 3.238,18.457 3.236,19.121 3.279 M4.540 12.804 C 3.344 12.893,2.553 13.334,2.160 14.133 C 1.830 14.806,1.761 15.386,1.761 17.500 C 1.761 19.614,1.830 20.194,2.160 20.867 C 2.377 21.308,2.692 21.623,3.133 21.840 C 3.806 22.170,4.386 22.239,6.500 22.239 C 8.614 22.239,9.194 22.170,9.867 21.840 C 10.308 21.623,10.623 21.308,10.840 20.867 C 11.170 20.194,11.239 19.614,11.239 17.500 C 11.239 15.386,11.170 14.806,10.840 14.133 C 10.435 13.308,9.663 12.894,8.361 12.800 C 7.727 12.754,5.177 12.757,4.540 12.804 M15.540 12.804 C 14.344 12.893,13.553 13.334,13.160 14.133 C 12.830 14.806,12.761 15.386,12.761 17.500 C 12.761 19.614,12.830 20.194,13.160 20.867 C 13.377 21.308,13.692 21.623,14.133 21.840 C 14.806 22.170,15.386 22.239,17.500 22.239 C 19.614 22.239,20.194 22.170,20.867 21.840 C 21.308 21.623,21.623 21.308,21.840 20.867 C 22.170 20.194,22.239 19.614,22.239 17.500 C 22.239 15.386,22.170 14.806,21.840 14.133 C 21.435 13.308,20.663 12.894,19.361 12.800 C 18.727 12.754,16.177 12.757,15.540 12.804 M8.121 14.279 C 9.132 14.345,9.436 14.499,9.600 15.029 C 9.708 15.380,9.758 16.160,9.758 17.500 C 9.758 19.434,9.673 20.085,9.379 20.379 C 9.085 20.673,8.434 20.758,6.500 20.758 C 4.566 20.758,3.915 20.673,3.621 20.379 C 3.327 20.085,3.242 19.434,3.242 17.500 C 3.242 15.565,3.327 14.915,3.622 14.621 C 3.813 14.430,4.195 14.319,4.792 14.281 C 5.488 14.238,7.457 14.236,8.121 14.279 M19.121 14.279 C 20.132 14.345,20.436 14.499,20.600 15.029 C 20.708 15.380,20.758 16.160,20.758 17.500 C 20.758 19.434,20.673 20.085,20.379 20.379 C 20.085 20.673,19.434 20.758,17.500 20.758 C 15.566 20.758,14.915 20.673,14.621 20.379 C 14.327 20.085,14.242 19.434,14.242 17.500 C 14.242 15.565,14.327 14.915,14.622 14.621 C 14.813 14.430,15.195 14.319,15.792 14.281 C 16.488 14.238,18.457 14.236,19.121 14.279 " stroke="none" fill-rule="evenodd" fill="black"></path></svg>