<svg width="24" height="24" viewBox="0 0 24 24" fill="none" xmlns="http://www.w3.org/2000/svg"><path d="M4.540 1.804 C 3.344 1.893,2.553 2.334,2.160 3.133 C 1.947 3.567,1.847 3.984,1.800 4.639 C 1.748 5.360,1.748 18.640,1.800 19.361 C 1.894 20.663,2.308 21.435,3.133 21.840 C 3.806 22.170,4.386 22.239,6.500 22.239 C 8.614 22.239,9.194 22.170,9.867 21.840 C 10.692 21.435,11.106 20.663,11.200 19.361 C 11.252 18.640,11.252 5.360,11.200 4.639 C 11.106 3.337,10.692 2.565,9.867 2.160 C 9.433 1.947,9.016 1.847,8.361 1.800 C 7.727 1.754,5.177 1.757,4.540 1.804 M15.020 1.819 C 14.230 1.946,13.573 2.385,13.164 3.059 C 12.808 3.646,12.744 4.087,12.770 5.769 C 12.791 7.107,12.809 7.233,13.059 7.740 C 13.402 8.435,13.994 8.920,14.780 9.146 C 14.991 9.207,15.287 9.217,17.240 9.231 C 18.677 9.241,19.590 9.231,19.829 9.203 C 20.653 9.106,21.320 8.711,21.754 8.061 C 22.165 7.447,22.239 7.053,22.239 5.500 C 22.239 3.995,22.165 3.569,21.802 3.008 C 21.575 2.657,21.387 2.464,21.057 2.243 C 20.690 1.998,20.399 1.886,19.940 1.816 C 19.448 1.740,15.495 1.743,15.020 1.819 M8.121 3.279 C 9.419 3.363,9.637 3.581,9.721 4.879 C 9.770 5.640,9.770 18.360,9.721 19.121 C 9.637 20.419,9.419 20.637,8.121 20.721 C 7.374 20.769,5.626 20.769,4.879 20.721 C 3.581 20.637,3.363 20.419,3.279 19.121 C 3.230 18.360,3.230 5.640,3.279 4.879 C 3.362 3.608,3.600 3.357,4.792 3.281 C 5.488 3.238,7.457 3.236,8.121 3.279 M20.003 3.365 C 20.287 3.498,20.502 3.713,20.635 3.997 L 20.740 4.220 20.740 5.500 L 20.740 6.780 20.636 7.000 C 20.486 7.319,20.349 7.461,20.048 7.609 L 19.782 7.740 17.500 7.740 L 15.218 7.740 14.952 7.609 C 14.651 7.461,14.514 7.319,14.364 7.000 L 14.260 6.780 14.260 5.500 L 14.260 4.220 14.365 3.997 C 14.554 3.593,14.896 3.335,15.320 3.278 C 15.441 3.261,16.494 3.250,17.660 3.254 L 19.780 3.260 20.003 3.365 M15.540 10.804 C 14.344 10.893,13.553 11.334,13.160 12.133 C 12.802 12.863,12.761 13.309,12.761 16.500 C 12.761 19.691,12.802 20.137,13.160 20.867 C 13.565 21.692,14.337 22.106,15.639 22.200 C 16.337 22.251,18.663 22.251,19.361 22.200 C 20.663 22.106,21.435 21.692,21.840 20.867 C 22.198 20.137,22.239 19.691,22.239 16.500 C 22.239 13.309,22.198 12.863,21.840 12.133 C 21.435 11.308,20.663 10.894,19.361 10.800 C 18.727 10.754,16.177 10.757,15.540 10.804 M19.121 12.279 C 20.419 12.363,20.637 12.581,20.721 13.879 C 20.769 14.632,20.769 18.368,20.721 19.121 C 20.655 20.132,20.501 20.436,19.971 20.600 C 19.620 20.708,18.840 20.758,17.500 20.758 C 15.566 20.758,14.915 20.673,14.621 20.379 C 14.296 20.053,14.242 19.501,14.242 16.500 C 14.242 13.497,14.296 12.947,14.622 12.621 C 14.813 12.430,15.195 12.319,15.792 12.281 C 16.488 12.238,18.457 12.236,19.121 12.279 " stroke="none" fill-rule="evenodd" fill="black"></path></svg>