<svg width="24" height="24" viewBox="0 0 24 24" fill="none" xmlns="http://www.w3.org/2000/svg"><path d="M9.140 2.282 C 8.728 2.327,8.503 2.387,8.177 2.537 C 7.451 2.873,6.887 3.434,6.542 4.164 C 6.353 4.564,6.275 4.960,6.267 5.560 C 6.259 6.128,6.294 6.230,6.574 6.456 C 6.712 6.568,6.755 6.580,7.000 6.580 C 7.245 6.580,7.288 6.568,7.426 6.456 C 7.687 6.245,7.726 6.139,7.759 5.558 C 7.786 5.072,7.796 5.023,7.932 4.747 C 8.113 4.383,8.417 4.084,8.790 3.908 C 9.043 3.788,9.088 3.780,9.500 3.780 C 9.912 3.780,9.957 3.788,10.210 3.908 C 10.586 4.086,10.887 4.382,11.071 4.755 C 11.216 5.048,11.220 5.068,11.220 5.500 C 11.220 5.932,11.216 5.952,11.071 6.245 C 10.887 6.618,10.586 6.914,10.210 7.092 L 9.940 7.220 6.357 7.240 L 2.774 7.260 2.612 7.367 C 2.372 7.526,2.267 7.721,2.267 8.007 C 2.267 8.203,2.286 8.270,2.383 8.408 C 2.447 8.499,2.572 8.610,2.660 8.656 C 2.819 8.739,2.847 8.740,6.360 8.740 C 9.573 8.740,9.929 8.734,10.211 8.671 C 11.394 8.407,12.412 7.395,12.663 6.233 C 12.745 5.854,12.745 5.146,12.663 4.767 C 12.503 4.026,11.974 3.259,11.307 2.804 C 10.707 2.394,9.896 2.198,9.140 2.282 M18.060 3.284 C 16.356 3.451,14.906 4.668,14.422 6.338 C 14.307 6.732,14.218 7.610,14.254 7.990 C 14.292 8.395,14.484 8.636,14.834 8.714 C 15.044 8.761,15.296 8.707,15.464 8.580 C 15.684 8.412,15.730 8.251,15.762 7.540 C 15.784 7.045,15.811 6.841,15.878 6.640 C 16.143 5.851,16.836 5.157,17.640 4.874 C 17.866 4.795,17.978 4.783,18.500 4.783 C 19.022 4.783,19.134 4.795,19.360 4.874 C 19.750 5.011,20.130 5.253,20.436 5.559 C 20.754 5.876,20.960 6.198,21.110 6.608 C 21.208 6.876,21.217 6.949,21.217 7.500 C 21.217 8.051,21.208 8.124,21.110 8.392 C 20.961 8.801,20.754 9.124,20.439 9.439 C 20.125 9.753,19.803 9.959,19.392 10.112 L 19.100 10.220 10.440 10.240 L 1.780 10.260 1.627 10.355 C 1.385 10.506,1.267 10.718,1.267 11.003 C 1.267 11.203,1.286 11.270,1.383 11.408 C 1.448 11.499,1.572 11.610,1.660 11.656 L 1.820 11.740 10.060 11.752 C 15.766 11.760,18.457 11.751,18.811 11.720 C 19.622 11.651,20.221 11.447,20.864 11.019 C 21.478 10.610,22.060 9.929,22.360 9.267 C 22.853 8.178,22.854 6.823,22.361 5.735 C 21.773 4.439,20.399 3.427,19.060 3.303 C 18.501 3.251,18.414 3.249,18.060 3.284 M3.815 13.278 C 3.331 13.393,3.098 14.004,3.383 14.408 C 3.448 14.499,3.572 14.610,3.660 14.656 L 3.820 14.740 11.460 14.760 L 19.100 14.780 19.360 14.873 C 19.753 15.013,20.131 15.254,20.436 15.559 C 20.754 15.876,20.960 16.198,21.110 16.608 C 21.208 16.876,21.217 16.949,21.217 17.500 C 21.217 18.051,21.208 18.124,21.110 18.392 C 20.961 18.801,20.754 19.124,20.439 19.439 C 20.124 19.754,19.801 19.961,19.392 20.110 C 19.124 20.208,19.051 20.217,18.500 20.217 C 17.978 20.217,17.866 20.205,17.640 20.126 C 16.836 19.843,16.143 19.149,15.878 18.360 C 15.811 18.159,15.784 17.955,15.762 17.460 C 15.740 16.971,15.716 16.783,15.661 16.667 C 15.473 16.271,14.930 16.136,14.566 16.396 C 14.267 16.609,14.200 16.931,14.276 17.794 C 14.374 18.892,14.768 19.762,15.503 20.497 C 16.399 21.393,17.619 21.830,18.900 21.715 C 20.638 21.559,22.101 20.341,22.580 18.649 C 22.843 17.724,22.759 16.613,22.360 15.733 C 22.060 15.071,21.478 14.390,20.864 13.981 C 20.242 13.568,19.633 13.354,18.875 13.283 C 18.349 13.234,4.020 13.229,3.815 13.278 " stroke="none" fill-rule="evenodd" fill="black"></path></svg>