<svg width="24" height="24" viewBox="0 0 24 24" fill="none" xmlns="http://www.w3.org/2000/svg"><path d="M9.020 1.279 C 6.976 1.330,5.856 1.466,4.900 1.779 C 3.060 2.382,1.958 3.688,1.563 5.734 C 1.307 7.060,1.263 7.988,1.266 12.000 C 1.268 16.033,1.313 16.968,1.563 18.266 C 2.013 20.599,3.401 21.987,5.734 22.437 C 7.043 22.690,7.974 22.734,12.000 22.734 C 16.026 22.734,16.957 22.690,18.266 22.437 C 20.599 21.987,21.987 20.599,22.437 18.267 C 22.686 16.977,22.732 16.003,22.735 12.000 C 22.737 8.021,22.691 7.052,22.437 5.733 C 22.098 3.977,21.227 2.755,19.825 2.068 C 18.972 1.650,17.853 1.420,16.180 1.321 C 15.262 1.267,10.607 1.239,9.020 1.279 M16.600 2.836 C 18.439 3.019,19.320 3.320,20.000 4.000 C 20.782 4.782,21.139 6.065,21.208 8.340 L 21.220 8.740 12.000 8.740 L 2.780 8.740 2.793 8.280 C 2.810 7.689,2.898 6.750,2.982 6.251 C 3.180 5.086,3.597 4.281,4.272 3.760 C 5.025 3.178,6.058 2.913,8.002 2.802 C 8.872 2.752,16.044 2.780,16.600 2.836 M5.673 5.063 C 5.312 5.174,5.000 5.609,5.000 6.000 C 5.000 6.524,5.476 7.000,6.000 7.000 C 6.517 7.000,7.000 6.517,7.000 6.000 C 7.000 5.763,6.880 5.486,6.697 5.303 C 6.418 5.024,6.067 4.942,5.673 5.063 M8.673 5.063 C 8.312 5.174,8.000 5.609,8.000 6.000 C 8.000 6.524,8.476 7.000,9.000 7.000 C 9.517 7.000,10.000 6.517,10.000 6.000 C 10.000 5.763,9.880 5.486,9.697 5.303 C 9.418 5.024,9.067 4.942,8.673 5.063 M11.673 5.063 C 11.312 5.174,11.000 5.609,11.000 6.000 C 11.000 6.524,11.476 7.000,12.000 7.000 C 12.517 7.000,13.000 6.517,13.000 6.000 C 13.000 5.598,12.688 5.173,12.310 5.061 C 12.062 4.987,11.919 4.988,11.673 5.063 M8.241 15.630 C 8.241 18.595,8.253 21.063,8.267 21.116 L 8.293 21.212 7.776 21.184 C 4.687 21.013,3.471 20.184,3.021 17.947 C 2.820 16.945,2.792 16.413,2.771 13.210 L 2.752 10.240 5.496 10.240 L 8.240 10.240 8.241 15.630 M21.228 13.190 C 21.209 16.089,21.190 16.565,21.055 17.500 C 20.753 19.609,19.876 20.591,17.947 20.979 C 16.923 21.184,16.437 21.209,12.944 21.229 L 9.708 21.248 9.734 21.094 C 9.748 21.009,9.759 18.532,9.760 15.590 L 9.760 10.240 15.504 10.240 L 21.248 10.240 21.228 13.190 " stroke="none" fill-rule="evenodd" fill="black"></path></svg>