<svg width="24" height="24" viewBox="0 0 24 24" fill="none" xmlns="http://www.w3.org/2000/svg"><path d="M6.680 2.265 C 5.578 2.375,4.703 3.081,4.355 4.140 C 4.265 4.413,4.263 4.467,4.248 6.280 C 4.228 8.788,4.284 9.347,4.666 10.480 C 5.071 11.684,5.698 12.666,6.645 13.581 C 7.873 14.766,9.256 15.426,11.090 15.701 L 11.240 15.724 11.240 17.980 L 11.240 20.236 9.650 20.248 L 8.060 20.260 7.880 20.366 C 7.512 20.582,7.401 21.027,7.625 21.388 C 7.695 21.500,7.803 21.606,7.900 21.656 C 8.059 21.740,8.081 21.740,12.000 21.740 C 15.919 21.740,15.941 21.740,16.100 21.656 C 16.197 21.606,16.305 21.500,16.375 21.388 C 16.599 21.027,16.488 20.582,16.120 20.366 L 15.940 20.260 14.350 20.248 L 12.760 20.236 12.760 17.980 L 12.760 15.724 12.910 15.701 C 14.491 15.464,15.787 14.912,16.896 14.003 C 17.273 13.694,17.927 13.013,18.205 12.640 C 18.692 11.988,19.070 11.264,19.336 10.475 C 19.716 9.348,19.772 8.786,19.752 6.280 C 19.737 4.467,19.735 4.413,19.645 4.140 C 19.349 3.240,18.699 2.615,17.764 2.332 C 17.558 2.269,17.103 2.263,12.180 2.257 C 9.232 2.254,6.757 2.258,6.680 2.265 M17.503 3.827 C 17.767 3.917,18.083 4.233,18.173 4.497 C 18.232 4.670,18.240 4.916,18.240 6.501 L 18.240 8.309 17.770 8.491 C 16.299 9.061,15.223 9.307,14.507 9.237 C 13.903 9.177,13.413 8.974,12.365 8.349 C 10.927 7.491,10.263 7.265,9.180 7.267 C 8.735 7.268,8.517 7.290,8.119 7.372 C 7.405 7.521,6.521 7.787,5.830 8.061 C 5.764 8.087,5.760 7.992,5.760 6.391 C 5.760 4.426,5.758 4.436,6.098 4.097 C 6.456 3.739,5.964 3.767,11.983 3.763 C 16.863 3.760,17.322 3.766,17.503 3.827 M9.940 8.843 C 10.327 8.936,10.814 9.166,11.571 9.614 C 13.120 10.530,13.702 10.731,14.800 10.732 C 15.272 10.732,15.474 10.713,15.881 10.628 C 16.431 10.513,17.220 10.292,17.627 10.139 C 17.771 10.084,17.895 10.040,17.902 10.040 C 17.925 10.040,17.714 10.534,17.560 10.840 C 17.271 11.415,16.929 11.877,16.403 12.402 C 15.497 13.305,14.588 13.810,13.337 14.105 C 12.892 14.210,12.803 14.218,12.000 14.218 C 11.197 14.218,11.108 14.210,10.663 14.105 C 9.366 13.800,8.390 13.244,7.475 12.290 C 7.027 11.822,6.645 11.269,6.364 10.679 C 6.188 10.309,5.941 9.645,5.970 9.617 C 6.052 9.536,7.470 9.060,8.056 8.918 C 8.888 8.715,9.335 8.698,9.940 8.843 " fill="#1C274C" stroke="none" fill-rule="evenodd"></path></svg>