<svg width="24" height="24" viewBox="0 0 24 24" fill="none" xmlns="http://www.w3.org/2000/svg"><path d="M4.382 2.283 C 2.651 2.483,1.707 4.457,2.622 5.963 C 2.729 6.139,3.942 7.404,7.004 10.533 L 11.238 14.860 11.239 17.548 L 11.240 20.236 9.383 20.248 L 7.527 20.260 7.355 20.381 C 7.118 20.547,7.021 20.727,7.021 21.000 C 7.021 21.273,7.119 21.453,7.355 21.619 L 7.527 21.740 12.000 21.740 L 16.473 21.740 16.645 21.619 C 16.885 21.450,16.980 21.273,16.976 20.995 C 16.972 20.717,16.879 20.546,16.645 20.381 L 16.473 20.260 14.617 20.248 L 12.760 20.236 12.761 17.548 L 12.762 14.860 16.995 10.535 C 19.459 8.016,21.279 6.126,21.351 6.009 C 21.626 5.562,21.730 5.200,21.728 4.700 C 21.726 4.244,21.675 4.020,21.481 3.620 C 21.292 3.230,21.006 2.903,20.649 2.668 C 20.299 2.437,20.000 2.330,19.569 2.281 C 19.148 2.232,4.800 2.234,4.382 2.283 M19.700 3.835 C 19.882 3.917,20.103 4.151,20.185 4.346 C 20.263 4.534,20.252 4.869,20.161 5.070 C 20.106 5.191,19.543 5.791,18.238 7.120 L 16.392 9.000 11.986 8.995 L 7.580 8.991 5.749 7.117 C 4.456 5.794,3.894 5.192,3.839 5.071 C 3.745 4.863,3.737 4.532,3.822 4.329 C 3.904 4.132,4.102 3.928,4.300 3.836 C 4.454 3.765,4.739 3.762,12.000 3.762 C 19.208 3.762,19.547 3.765,19.700 3.835 M14.757 10.670 C 14.661 10.775,14.002 11.454,13.291 12.180 L 11.999 13.500 10.708 12.180 C 9.998 11.454,9.339 10.775,9.243 10.670 L 9.070 10.480 12.000 10.480 L 14.930 10.480 14.757 10.670 " stroke="none" fill-rule="evenodd" fill="black"></path></svg>