<svg width="24" height="24" viewBox="0 0 24 24" fill="none" xmlns="http://www.w3.org/2000/svg"><path d="M13.880 1.281 C 13.140 1.329,12.582 1.559,12.095 2.019 L 11.862 2.240 8.201 2.241 C 4.452 2.242,3.585 2.266,3.200 2.383 C 2.303 2.653,1.660 3.296,1.381 4.200 C 1.208 4.761,1.208 7.239,1.381 7.800 C 1.486 8.139,1.673 8.496,1.886 8.760 L 2.080 9.000 1.886 9.240 C 1.673 9.504,1.486 9.861,1.381 10.200 C 1.208 10.761,1.208 13.239,1.381 13.800 C 1.486 14.139,1.673 14.496,1.886 14.760 L 2.080 15.000 1.886 15.240 C 1.673 15.504,1.486 15.861,1.381 16.200 C 1.208 16.761,1.208 19.239,1.381 19.800 C 1.660 20.704,2.303 21.347,3.200 21.617 C 3.585 21.734,4.452 21.758,8.201 21.759 L 11.862 21.760 12.095 21.981 C 12.384 22.254,12.720 22.454,13.116 22.587 C 13.785 22.813,16.215 22.813,16.884 22.587 C 17.280 22.454,17.616 22.254,17.905 21.981 L 18.138 21.760 18.799 21.759 C 19.689 21.758,20.532 21.698,20.800 21.617 C 21.697 21.347,22.341 20.703,22.619 19.800 C 22.790 19.241,22.790 16.759,22.619 16.200 C 22.515 15.861,22.327 15.505,22.114 15.240 L 21.920 15.000 22.114 14.760 C 22.327 14.495,22.515 14.139,22.619 13.800 C 22.790 13.241,22.790 10.759,22.619 10.200 C 22.515 9.861,22.327 9.505,22.114 9.240 L 21.920 9.000 22.114 8.760 C 22.327 8.495,22.515 8.139,22.619 7.800 C 22.790 7.241,22.790 4.759,22.619 4.200 C 22.341 3.297,21.697 2.653,20.800 2.383 C 20.532 2.302,19.689 2.242,18.799 2.241 L 18.138 2.240 17.905 2.019 C 17.395 1.537,16.878 1.333,16.025 1.278 C 15.385 1.237,14.557 1.238,13.880 1.281 M16.497 2.851 C 16.760 2.970,16.987 3.185,17.107 3.430 L 17.220 3.660 17.220 12.000 L 17.220 20.340 17.106 20.572 C 16.980 20.828,16.707 21.076,16.451 21.167 C 16.234 21.243,13.766 21.243,13.549 21.167 C 13.293 21.076,13.020 20.828,12.894 20.572 L 12.780 20.340 12.769 12.120 C 12.762 6.331,12.772 3.838,12.802 3.690 C 12.885 3.290,13.229 2.926,13.628 2.816 C 13.772 2.776,14.136 2.765,15.080 2.771 C 16.188 2.779,16.359 2.789,16.497 2.851 M11.266 4.150 C 11.252 4.364,11.240 5.373,11.240 6.391 L 11.240 8.242 7.450 8.231 C 3.668 8.220,3.660 8.220,3.474 8.134 C 3.236 8.024,2.976 7.764,2.866 7.526 C 2.785 7.351,2.779 7.269,2.767 6.129 C 2.759 5.332,2.770 4.843,2.800 4.699 C 2.884 4.293,3.231 3.924,3.628 3.817 C 3.778 3.777,4.637 3.765,7.556 3.763 L 11.292 3.760 11.266 4.150 M20.526 3.866 C 20.763 3.976,21.024 4.236,21.134 4.474 C 21.217 4.653,21.220 4.713,21.220 6.000 C 21.220 7.287,21.217 7.347,21.134 7.526 C 21.024 7.764,20.763 8.024,20.526 8.133 C 20.360 8.209,20.254 8.220,19.550 8.233 L 18.760 8.247 18.760 6.430 C 18.760 5.430,18.748 4.419,18.734 4.183 L 18.707 3.753 19.524 3.767 C 20.255 3.780,20.359 3.790,20.526 3.866 M11.240 12.001 L 11.240 14.242 7.450 14.231 C 3.668 14.220,3.660 14.220,3.474 14.134 C 3.236 14.024,2.976 13.764,2.866 13.526 C 2.785 13.351,2.779 13.269,2.767 12.129 C 2.759 11.332,2.770 10.843,2.800 10.699 C 2.884 10.293,3.231 9.924,3.628 9.817 C 3.778 9.777,4.632 9.765,7.530 9.763 L 11.240 9.760 11.240 12.001 M20.526 9.867 C 20.763 9.976,21.024 10.236,21.134 10.474 C 21.217 10.653,21.220 10.713,21.220 12.000 C 21.220 13.287,21.217 13.347,21.134 13.526 C 21.024 13.764,20.763 14.024,20.526 14.133 C 20.360 14.209,20.254 14.220,19.550 14.233 L 18.760 14.247 18.760 12.000 L 18.760 9.753 19.550 9.767 C 20.254 9.780,20.360 9.791,20.526 9.867 M14.815 10.277 C 14.638 10.321,14.461 10.456,14.353 10.631 C 14.261 10.778,14.260 10.793,14.260 12.000 C 14.260 13.207,14.261 13.222,14.353 13.369 C 14.710 13.943,15.576 13.812,15.716 13.162 C 15.772 12.901,15.773 11.083,15.717 10.841 C 15.623 10.432,15.215 10.177,14.815 10.277 M11.240 17.610 C 11.240 18.628,11.252 19.636,11.266 19.851 L 11.292 20.242 7.476 20.231 C 3.667 20.220,3.660 20.220,3.474 20.134 C 3.236 20.024,2.976 19.764,2.866 19.526 C 2.785 19.351,2.779 19.269,2.767 18.129 C 2.759 17.332,2.770 16.843,2.800 16.699 C 2.884 16.293,3.231 15.924,3.628 15.817 C 3.778 15.777,4.632 15.765,7.530 15.763 L 11.240 15.760 11.240 17.610 M20.526 15.867 C 20.763 15.976,21.024 16.236,21.134 16.474 C 21.217 16.653,21.220 16.713,21.220 18.000 C 21.220 19.287,21.217 19.347,21.134 19.526 C 21.024 19.764,20.763 20.024,20.526 20.134 C 20.359 20.210,20.255 20.220,19.524 20.233 L 18.707 20.247 18.734 19.817 C 18.748 19.581,18.760 18.570,18.760 17.570 L 18.760 15.753 19.550 15.767 C 20.254 15.780,20.360 15.791,20.526 15.867 " stroke="none" fill-rule="evenodd" fill="black"></path></svg>