<svg width="24" height="24" viewBox="0 0 24 24" fill="none" xmlns="http://www.w3.org/2000/svg"><path d="M11.220 1.281 C 7.512 1.551,4.384 4.195,3.507 7.800 C 3.336 8.501,3.273 9.040,3.270 9.820 C 3.265 11.259,3.541 12.480,4.160 13.746 C 5.187 15.851,7.033 17.488,9.246 18.259 L 9.740 18.431 9.764 19.405 C 9.777 19.941,9.806 20.434,9.828 20.500 C 10.031 21.104,10.482 21.532,11.070 21.680 C 11.221 21.718,11.240 21.736,11.240 21.840 C 11.240 22.454,11.644 22.826,12.184 22.711 C 12.533 22.637,12.760 22.293,12.760 21.840 C 12.760 21.736,12.779 21.718,12.930 21.680 C 13.581 21.516,14.076 20.993,14.196 20.341 C 14.220 20.211,14.240 19.744,14.240 19.303 L 14.240 18.500 14.770 18.330 C 16.103 17.903,17.227 17.216,18.221 16.221 C 19.595 14.847,20.434 13.130,20.682 11.180 C 20.743 10.701,20.743 9.554,20.682 9.080 C 20.386 6.779,19.252 4.729,17.453 3.242 C 16.736 2.649,15.601 2.024,14.700 1.723 C 13.599 1.356,12.355 1.198,11.220 1.281 M13.260 2.877 C 14.537 3.137,15.824 3.783,16.771 4.638 C 17.497 5.293,18.017 5.974,18.453 6.840 C 18.780 7.490,18.993 8.098,19.128 8.769 C 19.206 9.158,19.219 9.345,19.219 10.120 C 19.220 10.902,19.208 11.080,19.128 11.473 C 18.835 12.918,18.184 14.139,17.162 15.162 C 16.019 16.305,14.618 16.987,12.970 17.203 C 12.450 17.271,11.262 17.228,10.740 17.123 C 9.469 16.866,8.177 16.218,7.229 15.362 C 6.503 14.707,5.983 14.026,5.547 13.160 C 5.220 12.511,5.007 11.903,4.872 11.231 C 4.792 10.838,4.781 10.661,4.781 9.860 C 4.782 9.014,4.791 8.899,4.890 8.436 C 5.027 7.796,5.184 7.344,5.479 6.740 C 6.513 4.622,8.439 3.212,10.831 2.821 C 11.349 2.736,12.728 2.768,13.260 2.877 M12.687 6.280 C 12.614 6.297,12.496 6.354,12.425 6.405 C 12.289 6.504,9.586 9.324,9.412 9.549 C 9.084 9.971,9.315 10.604,9.838 10.716 C 9.960 10.742,10.492 10.760,11.145 10.760 L 12.246 10.760 11.379 11.665 C 10.873 12.193,10.487 12.630,10.452 12.714 C 10.254 13.187,10.620 13.731,11.134 13.731 C 11.249 13.731,11.395 13.704,11.461 13.670 C 11.589 13.603,11.999 13.192,13.283 11.840 C 14.719 10.328,14.668 10.388,14.711 10.184 C 14.803 9.754,14.569 9.371,14.162 9.284 C 14.040 9.258,13.508 9.240,12.855 9.240 L 11.754 9.240 12.637 8.316 C 13.589 7.319,13.630 7.257,13.589 6.887 C 13.544 6.487,13.094 6.184,12.687 6.280 M12.760 19.409 C 12.760 20.292,12.808 20.240,11.982 20.240 C 11.190 20.240,11.240 20.297,11.240 19.394 L 11.240 18.726 12.000 18.732 L 12.760 18.738 12.760 19.409 " stroke="none" fill-rule="evenodd" fill="black"></path></svg>