<svg width="24" height="24" viewBox="0 0 24 24" fill="none" xmlns="http://www.w3.org/2000/svg"><path d="M11.363 1.282 C 9.892 1.400,8.299 2.028,7.180 2.932 C 6.871 3.181,6.259 3.789,6.002 4.100 C 4.109 6.397,3.724 9.698,5.037 12.380 C 5.431 13.185,5.826 13.745,6.457 14.394 C 7.552 15.520,8.903 16.264,10.432 16.582 C 10.689 16.636,10.948 16.680,11.007 16.680 C 11.238 16.680,11.240 16.685,11.240 17.244 L 11.240 17.760 10.299 17.760 C 9.315 17.760,9.177 17.780,8.987 17.952 C 8.694 18.217,8.694 18.783,8.987 19.048 C 9.177 19.220,9.315 19.240,10.299 19.240 L 11.240 19.240 11.240 20.650 C 11.240 21.555,11.256 22.117,11.285 22.219 C 11.344 22.432,11.578 22.660,11.798 22.719 C 12.198 22.827,12.610 22.599,12.718 22.209 C 12.743 22.119,12.760 21.496,12.760 20.650 L 12.760 19.240 13.710 19.239 C 14.546 19.238,14.679 19.229,14.820 19.165 C 15.010 19.077,15.096 18.988,15.178 18.790 C 15.257 18.602,15.257 18.398,15.178 18.210 C 15.096 18.012,15.010 17.923,14.820 17.835 C 14.679 17.771,14.546 17.762,13.710 17.761 L 12.760 17.760 12.760 17.244 C 12.760 16.685,12.762 16.680,12.993 16.680 C 13.052 16.680,13.311 16.636,13.568 16.582 C 15.606 16.158,17.357 14.955,18.518 13.180 C 19.960 10.976,20.135 8.012,18.963 5.620 C 18.569 4.815,18.174 4.255,17.543 3.606 C 15.923 1.940,13.680 1.096,11.363 1.282 M12.900 2.817 C 14.296 3.031,15.484 3.640,16.464 4.646 C 16.993 5.189,17.274 5.586,17.617 6.272 C 18.450 7.939,18.450 10.061,17.617 11.728 C 17.274 12.414,16.993 12.811,16.464 13.354 C 15.259 14.590,13.723 15.239,12.000 15.239 C 10.277 15.239,8.741 14.590,7.536 13.354 C 7.007 12.811,6.726 12.414,6.383 11.728 C 5.653 10.268,5.556 8.478,6.120 6.892 C 6.584 5.589,7.583 4.360,8.740 3.672 C 9.490 3.225,10.237 2.951,11.060 2.820 C 11.494 2.751,12.460 2.749,12.900 2.817 " fill="#1C274C" stroke="none" fill-rule="evenodd"></path></svg>