<svg width="24" height="24" viewBox="0 0 24 24" fill="none" xmlns="http://www.w3.org/2000/svg"><path d="M8.960 1.280 C 6.960 1.332,5.848 1.469,4.900 1.779 C 3.060 2.382,1.958 3.688,1.563 5.734 C 1.311 7.042,1.267 7.973,1.267 12.000 C 1.267 16.027,1.311 16.958,1.563 18.266 C 2.013 20.599,3.401 21.987,5.734 22.437 C 7.034 22.688,7.987 22.733,12.000 22.733 C 16.013 22.733,16.966 22.688,18.266 22.437 C 20.599 21.987,21.987 20.599,22.437 18.266 C 22.688 16.966,22.733 16.013,22.733 12.000 C 22.733 7.987,22.688 7.034,22.437 5.734 C 22.098 3.977,21.228 2.756,19.825 2.068 C 18.978 1.652,17.875 1.425,16.200 1.321 C 15.315 1.266,10.534 1.239,8.960 1.280 M16.787 2.853 C 17.971 2.982,18.589 3.129,19.180 3.421 C 20.200 3.924,20.776 4.815,21.019 6.260 C 21.215 7.435,21.251 8.515,21.229 12.620 C 21.210 16.115,21.195 16.526,21.055 17.500 C 20.734 19.744,19.757 20.726,17.520 21.054 C 16.474 21.207,16.036 21.220,12.000 21.220 C 7.964 21.220,7.526 21.207,6.480 21.054 C 4.384 20.747,3.408 19.870,3.021 17.947 C 2.796 16.826,2.780 16.428,2.780 12.000 C 2.780 8.382,2.788 7.864,2.852 7.240 C 3.025 5.550,3.340 4.663,4.001 4.001 C 4.665 3.338,5.593 3.009,7.220 2.862 C 8.207 2.772,8.227 2.772,12.400 2.782 C 15.524 2.790,16.323 2.803,16.787 2.853 M4.340 8.277 C 4.070 8.342,3.822 8.582,3.777 8.822 C 3.715 9.155,3.748 9.222,4.697 10.645 L 5.600 12.000 4.697 13.355 C 3.748 14.778,3.715 14.845,3.777 15.178 C 3.807 15.338,3.996 15.576,4.156 15.656 C 4.434 15.796,4.746 15.760,4.972 15.561 C 5.045 15.498,5.416 14.976,5.799 14.402 C 6.181 13.828,6.506 13.372,6.522 13.389 C 6.537 13.406,6.856 13.880,7.231 14.443 C 7.605 15.005,7.968 15.513,8.037 15.572 C 8.431 15.903,9.039 15.721,9.212 15.221 L 9.267 15.064 9.293 15.195 C 9.379 15.623,9.929 15.865,10.343 15.656 C 10.477 15.588,10.611 15.411,11.240 14.469 C 11.647 13.861,11.989 13.362,12.000 13.362 C 12.011 13.362,12.353 13.861,12.760 14.469 C 13.389 15.411,13.523 15.588,13.657 15.656 C 14.071 15.865,14.621 15.623,14.707 15.195 L 14.733 15.064 14.788 15.221 C 14.961 15.721,15.569 15.903,15.963 15.572 C 16.032 15.513,16.395 15.005,16.769 14.443 C 17.144 13.880,17.463 13.406,17.478 13.389 C 17.494 13.372,17.819 13.828,18.201 14.402 C 18.584 14.976,18.955 15.498,19.028 15.561 C 19.254 15.760,19.566 15.796,19.844 15.656 C 20.004 15.576,20.193 15.338,20.223 15.178 C 20.285 14.845,20.252 14.778,19.303 13.355 L 18.400 12.000 19.303 10.645 C 20.252 9.222,20.285 9.155,20.223 8.822 C 20.193 8.662,20.004 8.424,19.844 8.344 C 19.571 8.207,19.262 8.239,19.037 8.428 C 18.968 8.487,18.605 8.995,18.231 9.557 C 17.856 10.120,17.537 10.594,17.522 10.611 C 17.506 10.628,17.181 10.172,16.799 9.598 C 16.416 9.024,16.045 8.502,15.972 8.439 C 15.581 8.095,14.963 8.272,14.788 8.779 L 14.733 8.936 14.707 8.805 C 14.621 8.377,14.071 8.135,13.657 8.344 C 13.523 8.412,13.389 8.589,12.760 9.531 C 12.353 10.139,12.011 10.638,12.000 10.638 C 11.989 10.638,11.647 10.139,11.240 9.531 C 10.611 8.589,10.477 8.412,10.343 8.344 C 9.929 8.135,9.379 8.377,9.293 8.805 L 9.267 8.936 9.212 8.779 C 9.039 8.279,8.431 8.097,8.037 8.428 C 7.968 8.487,7.605 8.995,7.231 9.557 C 6.856 10.120,6.537 10.594,6.522 10.611 C 6.506 10.628,6.181 10.172,5.799 9.598 C 5.416 9.024,5.045 8.502,4.973 8.439 C 4.901 8.376,4.774 8.305,4.691 8.282 C 4.524 8.236,4.511 8.236,4.340 8.277 M10.202 10.643 C 10.685 11.367,11.080 11.978,11.080 12.000 C 11.080 12.022,10.683 12.635,10.199 13.362 C 9.714 14.089,9.306 14.740,9.292 14.810 L 9.267 14.936 9.217 14.794 C 9.190 14.715,8.770 14.055,8.284 13.326 L 7.399 12.000 8.286 10.670 C 8.774 9.939,9.192 9.280,9.215 9.205 L 9.257 9.068 9.291 9.198 C 9.309 9.269,9.719 9.919,10.202 10.643 M15.716 10.674 L 16.601 12.000 15.716 13.326 C 15.230 14.055,14.810 14.715,14.783 14.794 L 14.733 14.936 14.708 14.810 C 14.694 14.740,14.286 14.089,13.801 13.362 C 13.317 12.635,12.920 12.022,12.920 12.000 C 12.920 11.978,13.317 11.365,13.801 10.638 C 14.286 9.911,14.694 9.260,14.708 9.190 L 14.733 9.064 14.783 9.206 C 14.810 9.285,15.230 9.945,15.716 10.674 " stroke="none" fill-rule="evenodd" fill="black"></path></svg>