<svg width="24" height="24" viewBox="0 0 24 24" fill="none" xmlns="http://www.w3.org/2000/svg"><path d="M8.400 1.283 C 6.908 1.325,5.965 1.449,5.221 1.698 C 3.984 2.114,3.114 2.984,2.698 4.221 C 2.317 5.356,2.242 6.641,2.242 12.000 C 2.242 17.336,2.314 18.598,2.682 19.727 C 3.035 20.808,3.694 21.585,4.673 22.077 C 5.208 22.346,5.970 22.535,6.940 22.640 C 8.365 22.795,15.635 22.795,17.060 22.640 C 18.662 22.467,19.629 22.084,20.365 21.331 C 21.088 20.593,21.443 19.711,21.621 18.213 C 21.713 17.432,21.758 15.422,21.758 12.000 C 21.758 6.645,21.682 5.354,21.302 4.221 C 20.886 2.984,20.016 2.114,18.779 1.698 C 18.005 1.439,17.137 1.331,15.400 1.280 C 13.915 1.237,9.973 1.238,8.400 1.283 M8.766 3.530 C 8.780 4.259,8.786 4.312,8.883 4.520 C 9.014 4.800,9.200 4.986,9.480 5.117 C 9.688 5.214,9.741 5.220,10.470 5.234 L 11.240 5.247 11.240 5.738 L 11.240 6.228 10.530 6.251 C 9.745 6.277,9.515 6.326,9.247 6.519 C 9.036 6.672,8.894 6.897,8.816 7.204 C 8.766 7.398,8.756 7.633,8.767 8.373 C 8.780 9.273,8.783 9.307,8.883 9.520 C 9.014 9.800,9.200 9.986,9.480 10.117 C 9.688 10.214,9.741 10.220,10.464 10.233 L 11.228 10.247 11.252 10.974 C 11.265 11.373,11.296 11.772,11.321 11.860 C 11.426 12.234,11.773 12.576,12.160 12.686 C 12.282 12.721,12.630 12.737,13.240 12.738 C 13.977 12.739,14.180 12.726,14.363 12.670 C 14.802 12.535,15.067 12.254,15.184 11.796 C 15.234 11.602,15.244 11.367,15.233 10.627 C 15.220 9.727,15.217 9.693,15.117 9.480 C 14.986 9.200,14.800 9.014,14.520 8.883 C 14.312 8.786,14.259 8.780,13.530 8.766 L 12.760 8.753 12.760 8.262 L 12.760 7.772 13.470 7.749 C 14.255 7.723,14.485 7.674,14.753 7.481 C 14.964 7.328,15.106 7.103,15.184 6.796 C 15.234 6.602,15.244 6.367,15.233 5.627 C 15.220 4.727,15.217 4.693,15.117 4.480 C 14.986 4.200,14.800 4.014,14.520 3.883 C 14.312 3.786,14.259 3.780,13.530 3.766 L 12.760 3.753 12.760 3.256 L 12.760 2.760 14.250 2.761 C 16.480 2.762,17.410 2.839,18.200 3.089 C 19.552 3.517,20.050 4.407,20.198 6.659 C 20.254 7.516,20.254 16.484,20.198 17.341 C 20.050 19.591,19.548 20.488,18.200 20.912 C 17.677 21.076,17.247 21.140,16.260 21.202 C 15.306 21.261,7.627 21.230,7.080 21.165 C 4.793 20.891,4.076 20.157,3.833 17.840 C 3.756 17.116,3.756 6.884,3.833 6.160 C 4.090 3.704,4.897 2.982,7.580 2.804 C 7.844 2.786,8.216 2.769,8.406 2.766 L 8.753 2.760 8.766 3.530 M11.240 3.260 L 11.240 3.760 10.740 3.760 L 10.240 3.760 10.240 3.260 L 10.240 2.760 10.740 2.760 L 11.240 2.760 11.240 3.260 M13.760 5.740 L 13.760 6.240 13.260 6.240 L 12.760 6.240 12.760 5.740 L 12.760 5.240 13.260 5.240 L 13.760 5.240 13.760 5.740 M11.240 8.260 L 11.240 8.760 10.740 8.760 L 10.240 8.760 10.240 8.260 L 10.240 7.760 10.740 7.760 L 11.240 7.760 11.240 8.260 M13.760 10.740 L 13.760 11.240 13.260 11.240 L 12.760 11.240 12.760 10.740 L 12.760 10.240 13.260 10.240 L 13.760 10.240 13.760 10.740 M9.901 13.826 C 9.394 13.983,8.969 14.422,8.818 14.942 C 8.735 15.226,8.756 15.962,8.858 16.340 C 9.152 17.436,10.082 18.359,11.180 18.643 C 11.627 18.759,12.373 18.759,12.820 18.643 C 13.918 18.359,14.848 17.436,15.142 16.340 C 15.244 15.959,15.265 15.226,15.182 14.939 C 15.047 14.477,14.723 14.109,14.257 13.891 L 14.020 13.780 12.060 13.772 C 10.389 13.765,10.071 13.773,9.901 13.826 M13.722 15.302 C 13.803 15.400,13.717 15.937,13.570 16.251 C 13.433 16.544,13.091 16.912,12.835 17.043 C 12.311 17.310,11.689 17.310,11.165 17.043 C 10.914 16.915,10.567 16.544,10.436 16.264 C 10.261 15.890,10.185 15.391,10.288 15.288 C 10.324 15.252,10.760 15.240,12.003 15.240 C 13.463 15.240,13.677 15.248,13.722 15.302 " stroke="none" fill-rule="evenodd" fill="black"></path></svg>